<?xml version="1.0" encoding="UTF-8" standalone="no"?>
<!DOCTYPE svg PUBLIC "-//W3C//DTD SVG 1.1//EN"
 "http://www.w3.org/Graphics/SVG/1.1/DTD/svg11.dtd">
<!-- Generated by graphviz version 9.0.0 (20230911.1827)
 -->
<!-- Title: J3DMaterialFactory_v21 Pages: 1 -->
<!--zoomable 586 -->

<svg id="main" version="1.1" xmlns="http://www.w3.org/2000/svg" xmlns:xlink="http://www.w3.org/1999/xlink" xml:space="preserve" onload="init(evt)">
<style type="text/css"><![CDATA[
.node, .edge {opacity: 0.7;}
.node.selected, .edge.selected {opacity: 1;}
.edge:hover path { stroke: red; }
.edge:hover polygon { stroke: red; fill: red; }
]]></style>

<defs>
  <circle id="rim" cx="0" cy="0" r="7"/>
  <circle id="rim2" cx="0" cy="0" r="3.5"/>
  <g id="zoomPlus">
    <use xlink:href="#rim" fill="#404040"><set attributeName="fill" to="#808080" begin="zoomplus.mouseover" end="zoomplus.mouseout"/></use>
    <path d="M-4,0h8M0,-4v8" fill="none" stroke="white" stroke-width="1.5" pointer-events="none"/>
  </g>
  <g id="zoomMin">
    <use xlink:href="#rim" fill="#404040"><set attributeName="fill" to="#808080" begin="zoomminus.mouseover" end="zoomminus.mouseout"/></use>
    <path d="M-4,0h8" fill="none" stroke="white" stroke-width="1.5" pointer-events="none"/>
  </g>
  <g id="arrowUp" transform="translate(30 24)">
    <use xlink:href="#rim"/>
    <path pointer-events="none" fill="none" stroke="white" stroke-width="1.5" d="M0,-3.0v7 M-2.5,-0.5L0,-3.0L2.5,-0.5"/>
  </g>
  <g id="arrowRight" transform="rotate(90) translate(36 -43)">
    <use xlink:href="#rim"/>
    <path pointer-events="none" fill="none" stroke="white" stroke-width="1.5" d="M0,-3.0v7 M-2.5,-0.5L0,-3.0L2.5,-0.5"/>
  </g>
  <g id="arrowDown" transform="rotate(180) translate(-30 -48)">
    <use xlink:href="#rim"/>
    <path pointer-events="none" fill="none" stroke="white" stroke-width="1.5" d="M0,-3.0v7 M-2.5,-0.5L0,-3.0L2.5,-0.5"/>
  </g>
  <g id="arrowLeft" transform="rotate(270) translate(-36 17)">
    <use xlink:href="#rim"/>
    <path pointer-events="none" fill="none" stroke="white" stroke-width="1.5" d="M0,-3.0v7 M-2.5,-0.5L0,-3.0L2.5,-0.5"/>
  </g>
  <g id="resetDef">
    <use xlink:href="#rim2" fill="#404040"><set attributeName="fill" to="#808080" begin="reset.mouseover" end="reset.mouseout"/></use>
  </g>
</defs>
<script type="application/ecmascript">
var viewWidth = 628;
var viewHeight = 586;
var sectionId = 'dynsection-0';
</script>
<script type="application/ecmascript" xlink:href="svg.min.js"/>
<svg id="graph" class="graph">
<g id="viewport">
<title>J3DMaterialFactory_v21</title>
<!-- Node1 -->
<g id="Node000001" class="node">
<title>Node1</title>
<g id="a_Node000001"><a xlink:title=" ">
<polygon fill="#999999" stroke="#666666" points="620.25,-288.58 499.25,-288.58 499.25,-269.33 620.25,-269.33 620.25,-288.58"/>
<text text-anchor="middle" x="559.75" y="-275.08" font-family="Helvetica,sans-Serif" font-size="10.00">J3DMaterialFactory_v21</text>
</a>
</g>
</g>
<!-- Node2 -->
<g id="Node000002" class="node">
<title>Node2</title>
<g id="a_Node000002"><a xlink:href="structJ3DMaterialInitData__v21.html" target="_top" xlink:title=" ">
<polygon fill="white" stroke="#666666" points="333.5,-572.58 211,-572.58 211,-553.33 333.5,-553.33 333.5,-572.58"/>
<text text-anchor="middle" x="272.25" y="-559.08" font-family="Helvetica,sans-Serif" font-size="10.00">J3DMaterialInitData_v21</text>
</a>
</g>
</g>
<!-- Node2&#45;&gt;Node1 -->
<g id="edge1_Node000001_Node000002" class="edge">
<title>Node2&#45;&gt;Node1</title>
<g id="a_edge1_Node000001_Node000002"><a xlink:title=" ">
<path fill="none" stroke="#9a32cd" stroke-dasharray="5,2" d="M344.93,-568.28C389.19,-567.66 444.36,-559.29 481.25,-526.96 555.54,-461.85 559.44,-326.64 559.02,-288.92"/>
<polygon fill="#9a32cd" stroke="#9a32cd" points="345.16,-564.78 335.15,-568.27 345.15,-571.78 345.16,-564.78"/>
</a>
</g>
<text text-anchor="middle" x="420.5" y="-568.71" font-family="Helvetica,sans-Serif" font-size="10.00" fill="grey"> mpMaterialInitData</text>
</g>
<!-- Node3 -->
<g id="Node000003" class="node">
<title>Node3</title>
<g id="a_Node000003"><a xlink:href="struct__GXColor.html" target="_top" xlink:title=" ">
<polygon fill="white" stroke="#666666" points="79.75,-510.58 21.75,-510.58 21.75,-491.33 79.75,-491.33 79.75,-510.58"/>
<text text-anchor="middle" x="50.75" y="-497.08" font-family="Helvetica,sans-Serif" font-size="10.00">_GXColor</text>
</a>
</g>
</g>
<!-- Node3&#45;&gt;Node1 -->
<g id="edge2_Node000001_Node000003" class="edge">
<title>Node3&#45;&gt;Node1</title>
<g id="a_edge2_Node000001_Node000003"><a xlink:title=" ">
<path fill="none" stroke="#9a32cd" stroke-dasharray="5,2" d="M91.37,-505.32C185.62,-514.85 419.85,-533.3 481.25,-488.96 549.61,-439.59 557.77,-323.03 558.66,-288.66"/>
<polygon fill="#9a32cd" stroke="#9a32cd" points="91.88,-501.86 81.58,-504.31 91.17,-508.82 91.88,-501.86"/>
</a>
</g>
<text text-anchor="middle" x="272.25" y="-529.96" font-family="Helvetica,sans-Serif" font-size="10.00" fill="grey"> mpMatColor</text>
<text text-anchor="middle" x="272.25" y="-518.71" font-family="Helvetica,sans-Serif" font-size="10.00" fill="grey">mpTevKColor</text>
</g>
<!-- Node14 -->
<g id="Node000014" class="node">
<title>Node14</title>
<g id="a_Node000014"><a xlink:href="structJ3DFogInfo.html" target="_top" xlink:title=" ">
<polygon fill="white" stroke="#666666" points="305.38,-476.58 239.12,-476.58 239.12,-457.33 305.38,-457.33 305.38,-476.58"/>
<text text-anchor="middle" x="272.25" y="-463.08" font-family="Helvetica,sans-Serif" font-size="10.00">J3DFogInfo</text>
</a>
</g>
</g>
<!-- Node3&#45;&gt;Node14 -->
<g id="edge14_Node000014_Node000003" class="edge">
<title>Node3&#45;&gt;Node14</title>
<g id="a_edge14_Node000014_Node000003"><a xlink:title=" ">
<path fill="none" stroke="#9a32cd" stroke-dasharray="5,2" d="M91.32,-492.83C100.55,-491.04 110.36,-489.23 119.5,-487.71 160.55,-480.89 208.12,-474.66 238.9,-470.84"/>
<polygon fill="#9a32cd" stroke="#9a32cd" points="90.65,-489.39 81.52,-494.76 92.01,-496.26 90.65,-489.39"/>
</a>
</g>
<text text-anchor="middle" x="152.12" y="-488.71" font-family="Helvetica,sans-Serif" font-size="10.00" fill="grey"> mColor</text>
</g>
<!-- Node4 -->
<g id="Node000004" class="node">
<title>Node4</title>
<g id="a_Node000004"><a xlink:href="structJ3DColorChanInfo.html" target="_top" xlink:title=" ">
<polygon fill="white" stroke="#666666" points="319.62,-439.58 224.88,-439.58 224.88,-420.33 319.62,-420.33 319.62,-439.58"/>
<text text-anchor="middle" x="272.25" y="-426.08" font-family="Helvetica,sans-Serif" font-size="10.00">J3DColorChanInfo</text>
</a>
</g>
</g>
<!-- Node4&#45;&gt;Node1 -->
<g id="edge3_Node000001_Node000004" class="edge">
<title>Node4&#45;&gt;Node1</title>
<g id="a_edge3_Node000001_Node000004"><a xlink:title=" ">
<path fill="none" stroke="#9a32cd" stroke-dasharray="5,2" d="M331.27,-428.56C384.01,-426.3 457.14,-420.4 481.25,-404.96 525.37,-376.71 548.39,-313.47 555.92,-288.95"/>
<polygon fill="#9a32cd" stroke="#9a32cd" points="331.39,-425.05 321.53,-428.94 331.66,-432.05 331.39,-425.05"/>
</a>
</g>
<text text-anchor="middle" x="420.5" y="-427.71" font-family="Helvetica,sans-Serif" font-size="10.00" fill="grey"> mpColorChanInfo</text>
</g>
<!-- Node5 -->
<g id="Node000005" class="node">
<title>Node5</title>
<g id="a_Node000005"><a xlink:href="structJ3DTexCoordInfo.html" target="_top" xlink:title=" ">
<polygon fill="white" stroke="#666666" points="317.75,-402.58 226.75,-402.58 226.75,-383.33 317.75,-383.33 317.75,-402.58"/>
<text text-anchor="middle" x="272.25" y="-389.08" font-family="Helvetica,sans-Serif" font-size="10.00">J3DTexCoordInfo</text>
</a>
</g>
</g>
<!-- Node5&#45;&gt;Node1 -->
<g id="edge4_Node000001_Node000005" class="edge">
<title>Node5&#45;&gt;Node1</title>
<g id="a_edge4_Node000001_Node000005"><a xlink:title=" ">
<path fill="none" stroke="#9a32cd" stroke-dasharray="5,2" d="M329.71,-391.69C382.14,-389.67 455.83,-384.45 481.25,-370.96 517.22,-351.86 543.36,-308.48 553.77,-288.89"/>
<polygon fill="#9a32cd" stroke="#9a32cd" points="329.59,-388.19 319.72,-392.04 329.84,-395.19 329.59,-388.19"/>
</a>
</g>
<text text-anchor="middle" x="420.5" y="-391.71" font-family="Helvetica,sans-Serif" font-size="10.00" fill="grey"> mpTexCoordInfo</text>
</g>
<!-- Node6 -->
<g id="Node000006" class="node">
<title>Node6</title>
<g id="a_Node000006"><a xlink:href="structJ3DTexMtxInfo.html" target="_top" xlink:title=" ">
<polygon fill="white" stroke="#666666" points="312.88,-328.58 231.62,-328.58 231.62,-309.33 312.88,-309.33 312.88,-328.58"/>
<text text-anchor="middle" x="272.25" y="-315.08" font-family="Helvetica,sans-Serif" font-size="10.00">J3DTexMtxInfo</text>
</a>
</g>
</g>
<!-- Node6&#45;&gt;Node1 -->
<g id="edge5_Node000001_Node000006" class="edge">
<title>Node6&#45;&gt;Node1</title>
<g id="a_edge5_Node000001_Node000006"><a xlink:title=" ">
<path fill="none" stroke="#9a32cd" stroke-dasharray="5,2" d="M324.51,-312.35C366.63,-306.84 427.85,-298.69 481.25,-290.96 487.04,-290.12 493.08,-289.23 499.11,-288.32"/>
<polygon fill="#9a32cd" stroke="#9a32cd" points="324.12,-308.87 314.66,-313.63 325.03,-315.81 324.12,-308.87"/>
</a>
</g>
<text text-anchor="middle" x="420.5" y="-319.96" font-family="Helvetica,sans-Serif" font-size="10.00" fill="grey"> field_0x28</text>
<text text-anchor="middle" x="420.5" y="-308.71" font-family="Helvetica,sans-Serif" font-size="10.00" fill="grey">mpTexMtxInfo</text>
</g>
<!-- Node7 -->
<g id="Node000007" class="node">
<title>Node7</title>
<g id="a_Node000007"><a xlink:href="structVec.html" target="_top" xlink:title=" ">
<polygon fill="white" stroke="#666666" points="67.38,-350.58 34.12,-350.58 34.12,-331.33 67.38,-331.33 67.38,-350.58"/>
<text text-anchor="middle" x="50.75" y="-337.08" font-family="Helvetica,sans-Serif" font-size="10.00">Vec</text>
</a>
</g>
</g>
<!-- Node7&#45;&gt;Node6 -->
<g id="edge6_Node000006_Node000007" class="edge">
<title>Node7&#45;&gt;Node6</title>
<g id="a_edge6_Node000006_Node000007"><a xlink:title=" ">
<path fill="none" stroke="#9a32cd" stroke-dasharray="5,2" d="M78.81,-335.87C91.18,-333.7 106.04,-331.3 119.5,-329.71 157.27,-325.25 200.56,-322.4 231.22,-320.77"/>
<polygon fill="#9a32cd" stroke="#9a32cd" points="78.55,-332.36 69.33,-337.58 79.79,-339.25 78.55,-332.36"/>
</a>
</g>
<text text-anchor="middle" x="152.12" y="-330.71" font-family="Helvetica,sans-Serif" font-size="10.00" fill="grey"> mCenter</text>
</g>
<!-- Node19 -->
<g id="Node000019" class="node">
<title>Node19</title>
<g id="a_Node000019"><a xlink:href="structJ3DNBTScaleInfo.html" target="_top" xlink:title=" ">
<polygon fill="white" stroke="#666666" points="319.62,-365.58 224.88,-365.58 224.88,-346.33 319.62,-346.33 319.62,-365.58"/>
<text text-anchor="middle" x="272.25" y="-352.08" font-family="Helvetica,sans-Serif" font-size="10.00">J3DNBTScaleInfo</text>
</a>
</g>
</g>
<!-- Node7&#45;&gt;Node19 -->
<g id="edge20_Node000019_Node000007" class="edge">
<title>Node7&#45;&gt;Node19</title>
<g id="a_edge20_Node000019_Node000007"><a xlink:title=" ">
<path fill="none" stroke="#9a32cd" stroke-dasharray="5,2" d="M78.67,-342.8C114.99,-345.28 180.24,-349.74 224.62,-352.77"/>
<polygon fill="#9a32cd" stroke="#9a32cd" points="79.26,-339.33 69.05,-342.14 78.78,-346.32 79.26,-339.33"/>
</a>
</g>
<text text-anchor="middle" x="152.12" y="-350.71" font-family="Helvetica,sans-Serif" font-size="10.00" fill="grey"> mScale</text>
</g>
<!-- Node8 -->
<g id="Node000008" class="node">
<title>Node8</title>
<g id="a_Node000008"><a xlink:href="structJ3DTextureSRTInfo.html" target="_top" xlink:title=" ">
<polygon fill="white" stroke="#666666" points="101.5,-297.58 0,-297.58 0,-278.33 101.5,-278.33 101.5,-297.58"/>
<text text-anchor="middle" x="50.75" y="-284.08" font-family="Helvetica,sans-Serif" font-size="10.00">J3DTextureSRTInfo</text>
</a>
</g>
</g>
<!-- Node8&#45;&gt;Node6 -->
<g id="edge7_Node000006_Node000008" class="edge">
<title>Node8&#45;&gt;Node6</title>
<g id="a_edge7_Node000006_Node000008"><a xlink:title=" ">
<path fill="none" stroke="#9a32cd" stroke-dasharray="5,2" d="M113.22,-296.64C151,-301.98 198.3,-308.66 231.26,-313.31"/>
<polygon fill="#9a32cd" stroke="#9a32cd" points="113.72,-293.18 103.33,-295.24 112.74,-300.11 113.72,-293.18"/>
</a>
</g>
<text text-anchor="middle" x="152.12" y="-307.71" font-family="Helvetica,sans-Serif" font-size="10.00" fill="grey"> mSRT</text>
</g>
<!-- Node9 -->
<g id="Node000009" class="node">
<title>Node9</title>
<g id="a_Node000009"><a xlink:href="structJ3DTevOrderInfo.html" target="_top" xlink:title=" ">
<polygon fill="white" stroke="#666666" points="317.38,-291.58 227.12,-291.58 227.12,-272.33 317.38,-272.33 317.38,-291.58"/>
<text text-anchor="middle" x="272.25" y="-278.08" font-family="Helvetica,sans-Serif" font-size="10.00">J3DTevOrderInfo</text>
</a>
</g>
</g>
<!-- Node9&#45;&gt;Node1 -->
<g id="edge8_Node000001_Node000009" class="edge">
<title>Node9&#45;&gt;Node1</title>
<g id="a_edge8_Node000001_Node000009"><a xlink:title=" ">
<path fill="none" stroke="#9a32cd" stroke-dasharray="5,2" d="M329.03,-280.33C339.25,-280.08 349.82,-279.86 359.75,-279.71 406.56,-279.01 459.57,-278.84 499.1,-278.84"/>
<polygon fill="#9a32cd" stroke="#9a32cd" points="329.12,-276.82 319.21,-280.58 329.29,-283.82 329.12,-276.82"/>
</a>
</g>
<text text-anchor="middle" x="420.5" y="-280.71" font-family="Helvetica,sans-Serif" font-size="10.00" fill="grey"> mpTevOrderInfo</text>
</g>
<!-- Node10 -->
<g id="Node000010" class="node">
<title>Node10</title>
<g id="a_Node000010"><a xlink:href="struct__GXColorS10.html" target="_top" xlink:title=" ">
<polygon fill="white" stroke="#666666" points="309.88,-254.58 234.62,-254.58 234.62,-235.33 309.88,-235.33 309.88,-254.58"/>
<text text-anchor="middle" x="272.25" y="-241.08" font-family="Helvetica,sans-Serif" font-size="10.00">_GXColorS10</text>
</a>
</g>
</g>
<!-- Node10&#45;&gt;Node1 -->
<g id="edge9_Node000001_Node000010" class="edge">
<title>Node10&#45;&gt;Node1</title>
<g id="a_edge9_Node000001_Node000010"><a xlink:title=" ">
<path fill="none" stroke="#9a32cd" stroke-dasharray="5,2" d="M321.58,-247.42C363.86,-249.96 426.84,-254.71 481.25,-262.71 492.4,-264.35 504.36,-266.6 515.47,-268.91"/>
<polygon fill="#9a32cd" stroke="#9a32cd" points="321.92,-243.93 311.74,-246.84 321.52,-250.92 321.92,-243.93"/>
</a>
</g>
<text text-anchor="middle" x="420.5" y="-263.71" font-family="Helvetica,sans-Serif" font-size="10.00" fill="grey"> mpTevColor</text>
</g>
<!-- Node11 -->
<g id="Node000011" class="node">
<title>Node11</title>
<g id="a_Node000011"><a xlink:href="structJ3DTevStageInfo.html" target="_top" xlink:title=" ">
<polygon fill="white" stroke="#666666" points="318.12,-217.58 226.38,-217.58 226.38,-198.33 318.12,-198.33 318.12,-217.58"/>
<text text-anchor="middle" x="272.25" y="-204.08" font-family="Helvetica,sans-Serif" font-size="10.00">J3DTevStageInfo</text>
</a>
</g>
</g>
<!-- Node11&#45;&gt;Node1 -->
<g id="edge10_Node000001_Node000011" class="edge">
<title>Node11&#45;&gt;Node1</title>
<g id="a_edge10_Node000001_Node000011"><a xlink:title=" ">
<path fill="none" stroke="#9a32cd" stroke-dasharray="5,2" d="M329.88,-209.31C372.47,-211.73 431.76,-218.13 481.25,-234.71 505.2,-242.73 530.07,-258.48 544.98,-268.86"/>
<polygon fill="#9a32cd" stroke="#9a32cd" points="330.28,-205.82 320.12,-208.81 329.93,-212.81 330.28,-205.82"/>
</a>
</g>
<text text-anchor="middle" x="420.5" y="-235.71" font-family="Helvetica,sans-Serif" font-size="10.00" fill="grey"> mpTevStageInfo</text>
</g>
<!-- Node12 -->
<g id="Node000012" class="node">
<title>Node12</title>
<g id="a_Node000012"><a xlink:href="structJ3DTevSwapModeInfo.html" target="_top" xlink:title=" ">
<polygon fill="white" stroke="#666666" points="329.75,-180.58 214.75,-180.58 214.75,-161.33 329.75,-161.33 329.75,-180.58"/>
<text text-anchor="middle" x="272.25" y="-167.08" font-family="Helvetica,sans-Serif" font-size="10.00">J3DTevSwapModeInfo</text>
</a>
</g>
</g>
<!-- Node12&#45;&gt;Node1 -->
<g id="edge11_Node000001_Node000012" class="edge">
<title>Node12&#45;&gt;Node1</title>
<g id="a_edge11_Node000001_Node000012"><a xlink:title=" ">
<path fill="none" stroke="#9a32cd" stroke-dasharray="5,2" d="M341.43,-167.93C383.77,-168.75 438.14,-174.86 481.25,-196.71 514.67,-213.65 541.36,-251.1 552.76,-269.02"/>
<polygon fill="#9a32cd" stroke="#9a32cd" points="341.65,-164.43 331.62,-167.84 341.59,-171.43 341.65,-164.43"/>
</a>
</g>
<text text-anchor="middle" x="420.5" y="-197.71" font-family="Helvetica,sans-Serif" font-size="10.00" fill="grey"> mpTevSwapModeInfo</text>
</g>
<!-- Node13 -->
<g id="Node000013" class="node">
<title>Node13</title>
<g id="a_Node000013"><a xlink:href="structJ3DTevSwapModeTableInfo.html" target="_top" xlink:title=" ">
<polygon fill="white" stroke="#666666" points="341.75,-143.58 202.75,-143.58 202.75,-124.33 341.75,-124.33 341.75,-143.58"/>
<text text-anchor="middle" x="272.25" y="-130.08" font-family="Helvetica,sans-Serif" font-size="10.00">J3DTevSwapModeTableInfo</text>
</a>
</g>
</g>
<!-- Node13&#45;&gt;Node1 -->
<g id="edge12_Node000001_Node000013" class="edge">
<title>Node13&#45;&gt;Node1</title>
<g id="a_edge12_Node000001_Node000013"><a xlink:title=" ">
<path fill="none" stroke="#9a32cd" stroke-dasharray="5,2" d="M353.17,-124.84C394.27,-124 443.51,-129.31 481.25,-152.71 525.84,-180.36 548.58,-244.11 555.98,-268.87"/>
<polygon fill="#9a32cd" stroke="#9a32cd" points="353.2,-121.34 343.32,-125.18 353.44,-128.33 353.2,-121.34"/>
</a>
</g>
<text text-anchor="middle" x="420.5" y="-153.71" font-family="Helvetica,sans-Serif" font-size="10.00" fill="grey"> mpTevSwapModeTableInfo</text>
</g>
<!-- Node14&#45;&gt;Node1 -->
<g id="edge13_Node000001_Node000014" class="edge">
<title>Node14&#45;&gt;Node1</title>
<g id="a_edge13_Node000001_Node000014"><a xlink:title=" ">
<path fill="none" stroke="#9a32cd" stroke-dasharray="5,2" d="M316.75,-472.9C362.11,-476.7 433.18,-475.6 481.25,-440.96 534.37,-402.68 552.49,-318.19 557.29,-289.06"/>
<polygon fill="#9a32cd" stroke="#9a32cd" points="317.32,-469.44 307.03,-471.96 316.64,-476.41 317.32,-469.44"/>
</a>
</g>
<text text-anchor="middle" x="420.5" y="-475.71" font-family="Helvetica,sans-Serif" font-size="10.00" fill="grey"> mpFogInfo</text>
</g>
<!-- Node15 -->
<g id="Node000015" class="node">
<title>Node15</title>
<g id="a_Node000015"><a xlink:href="struct__GXFogAdjTable.html" target="_top" xlink:title=" ">
<polygon fill="white" stroke="#666666" points="95.88,-462.58 5.62,-462.58 5.62,-443.33 95.88,-443.33 95.88,-462.58"/>
<text text-anchor="middle" x="50.75" y="-449.08" font-family="Helvetica,sans-Serif" font-size="10.00">_GXFogAdjTable</text>
</a>
</g>
</g>
<!-- Node15&#45;&gt;Node14 -->
<g id="edge15_Node000014_Node000015" class="edge">
<title>Node15&#45;&gt;Node14</title>
<g id="a_edge15_Node000014_Node000015"><a xlink:title=" ">
<path fill="none" stroke="#9a32cd" stroke-dasharray="5,2" d="M107.48,-451.46C131.31,-451.29 159.43,-451.71 184.75,-453.71 202.77,-455.13 222.73,-458.1 238.93,-460.86"/>
<polygon fill="#9a32cd" stroke="#9a32cd" points="107.63,-447.96 97.67,-451.57 107.7,-454.96 107.63,-447.96"/>
</a>
</g>
<text text-anchor="middle" x="152.12" y="-454.71" font-family="Helvetica,sans-Serif" font-size="10.00" fill="grey"> mFogAdjTable</text>
</g>
<!-- Node16 -->
<g id="Node000016" class="node">
<title>Node16</title>
<g id="a_Node000016"><a xlink:href="structJ3DAlphaCompInfo.html" target="_top" xlink:title=" ">
<polygon fill="white" stroke="#666666" points="322.25,-106.58 222.25,-106.58 222.25,-87.33 322.25,-87.33 322.25,-106.58"/>
<text text-anchor="middle" x="272.25" y="-93.08" font-family="Helvetica,sans-Serif" font-size="10.00">J3DAlphaCompInfo</text>
</a>
</g>
</g>
<!-- Node16&#45;&gt;Node1 -->
<g id="edge16_Node000001_Node000016" class="edge">
<title>Node16&#45;&gt;Node1</title>
<g id="a_edge16_Node000001_Node000016"><a xlink:title=" ">
<path fill="none" stroke="#9a32cd" stroke-dasharray="5,2" d="M330.23,-85.23C375.14,-79.27 437.31,-78.65 481.25,-108.71 538.07,-147.59 553.93,-238.83 557.7,-269.05"/>
<polygon fill="#9a32cd" stroke="#9a32cd" points="329.8,-81.76 320.41,-86.67 330.81,-88.68 329.8,-81.76"/>
</a>
</g>
<text text-anchor="middle" x="420.5" y="-109.71" font-family="Helvetica,sans-Serif" font-size="10.00" fill="grey"> mpAlphaCompInfo</text>
</g>
<!-- Node17 -->
<g id="Node000017" class="node">
<title>Node17</title>
<g id="a_Node000017"><a xlink:href="structJ3DBlendInfo.html" target="_top" xlink:title=" ">
<polygon fill="white" stroke="#666666" points="309.5,-69.58 235,-69.58 235,-50.33 309.5,-50.33 309.5,-69.58"/>
<text text-anchor="middle" x="272.25" y="-56.08" font-family="Helvetica,sans-Serif" font-size="10.00">J3DBlendInfo</text>
</a>
</g>
</g>
<!-- Node17&#45;&gt;Node1 -->
<g id="edge17_Node000001_Node000017" class="edge">
<title>Node17&#45;&gt;Node1</title>
<g id="a_edge17_Node000001_Node000017"><a xlink:title=" ">
<path fill="none" stroke="#9a32cd" stroke-dasharray="5,2" d="M320.54,-47.55C366.13,-38.55 434.84,-33.12 481.25,-66.71 550.21,-116.63 557.95,-234.42 558.7,-269.16"/>
<polygon fill="#9a32cd" stroke="#9a32cd" points="320.02,-44.08 310.96,-49.58 321.47,-50.93 320.02,-44.08"/>
</a>
</g>
<text text-anchor="middle" x="420.5" y="-67.71" font-family="Helvetica,sans-Serif" font-size="10.00" fill="grey"> mpBlendInfo</text>
</g>
<!-- Node18 -->
<g id="Node000018" class="node">
<title>Node18</title>
<g id="a_Node000018"><a xlink:href="structJ3DZModeInfo.html" target="_top" xlink:title=" ">
<polygon fill="white" stroke="#666666" points="312.12,-32.58 232.38,-32.58 232.38,-13.33 312.12,-13.33 312.12,-32.58"/>
<text text-anchor="middle" x="272.25" y="-19.08" font-family="Helvetica,sans-Serif" font-size="10.00">J3DZModeInfo</text>
</a>
</g>
</g>
<!-- Node18&#45;&gt;Node1 -->
<g id="edge18_Node000001_Node000018" class="edge">
<title>Node18&#45;&gt;Node1</title>
<g id="a_edge18_Node000001_Node000018"><a xlink:title=" ">
<path fill="none" stroke="#9a32cd" stroke-dasharray="5,2" d="M315.71,-10.11C361.34,0.9 433.71,9.95 481.25,-25.71 522.26,-56.47 550.63,-225.81 557.26,-268.95"/>
<polygon fill="#9a32cd" stroke="#9a32cd" points="315,-6.68 306.18,-12.55 316.74,-13.46 315,-6.68"/>
</a>
</g>
<text text-anchor="middle" x="420.5" y="-27.71" font-family="Helvetica,sans-Serif" font-size="10.00" fill="grey"> mpZModeInfo</text>
</g>
<!-- Node19&#45;&gt;Node1 -->
<g id="edge19_Node000001_Node000019" class="edge">
<title>Node19&#45;&gt;Node1</title>
<g id="a_edge19_Node000001_Node000019"><a xlink:title=" ">
<path fill="none" stroke="#9a32cd" stroke-dasharray="5,2" d="M331.16,-357.61C373.93,-356.99 432.87,-352.24 481.25,-333.96 508.41,-323.7 534.86,-301.55 548.73,-288.71"/>
<polygon fill="#9a32cd" stroke="#9a32cd" points="331.32,-354.11 321.34,-357.67 331.36,-361.1 331.32,-354.11"/>
</a>
</g>
<text text-anchor="middle" x="420.5" y="-357.71" font-family="Helvetica,sans-Serif" font-size="10.00" fill="grey"> mpNBTScaleInfo</text>
</g>
</g>
</svg>

<g id="navigator" transform="translate(0 0)" fill="#404254">
  <rect fill="#f2f5e9" fill-opacity="0.5" stroke="#606060" stroke-width=".5" x="0" y="0" width="60" height="60"/>
  <use id="zoomplus" xlink:href="#zoomPlus" x="17" y="9" onmousedown="handleZoom(evt,'in')"/>
  <use id="zoomminus" xlink:href="#zoomMin" x="42" y="9" onmousedown="handleZoom(evt,'out')"/>
  <use id="reset" xlink:href="#resetDef" x="30" y="36" onmousedown="handleReset()"/>
   <use id="arrowup" xlink:href="#arrowUp" x="0" y="0" onmousedown="handlePan(0,-1)"/>
  <use id="arrowright" xlink:href="#arrowRight" x="0" y="0" onmousedown="handlePan(1,0)"/>
  <use id="arrowdown" xlink:href="#arrowDown" x="0" y="0" onmousedown="handlePan(0,1)"/>
  <use id="arrowleft" xlink:href="#arrowLeft" x="0" y="0" onmousedown="handlePan(-1,0)"/>
</g>
<svg viewBox="0 0 15 15" width="100%" height="30px" preserveAspectRatio="xMaxYMin meet">
 <g id="arrow_out" transform="scale(0.3 0.3)">
  <a xlink:href="classJ3DMaterialFactory__v21__coll__graph_org.svg" target="_base">
   <rect id="button" ry="5" rx="5" y="6" x="6" height="38" width="38"
        fill="#f2f5e9" fill-opacity="0.5" stroke="#606060" stroke-width="1.0"/>
   <path id="arrow"
     d="M 11.500037,31.436501 C 11.940474,20.09759 22.043105,11.32322 32.158766,21.979434 L 37.068811,17.246167 C 37.068811,17.246167 37.088388,32 37.088388,32 L 22.160133,31.978069 C 22.160133,31.978069 26.997745,27.140456 26.997745,27.140456 C 18.528582,18.264221 13.291696,25.230495 11.500037,31.436501 z"
     style="fill:#404040;"/>
  </a>
 </g>
</svg>

<style type='text/css'>
<![CDATA[
[data-mouse-over-selected='false'] { opacity: 0.7; }
[data-mouse-over-selected='true']  { opacity: 1.0; }
]]>
</style>
<script type="application/ecmascript"><![CDATA[
document.addEventListener('DOMContentLoaded', (event) => {
  highlightEdges();
  highlightAdjacentNodes();
});
]]></script>
</svg>
