<?xml version="1.0" encoding="UTF-8" standalone="no"?>
<!DOCTYPE svg PUBLIC "-//W3C//DTD SVG 1.1//EN"
 "http://www.w3.org/Graphics/SVG/1.1/DTD/svg11.dtd">
<!-- Generated by graphviz version 9.0.0 (20230911.1827)
 -->
<!-- Title: dMap_c Pages: 1 -->
<svg width="363pt" height="609pt"
 viewBox="0.00 0.00 363.00 609.25" xmlns="http://www.w3.org/2000/svg" xmlns:xlink="http://www.w3.org/1999/xlink">
<g id="graph0" class="graph" transform="scale(1 1) rotate(0) translate(4 605.25)">
<title>dMap_c</title>
<!-- Node1 -->
<g id="Node000001" class="node">
<title>Node1</title>
<g id="a_Node000001"><a xlink:title=" ">
<polygon fill="#999999" stroke="#666666" points="255.75,-19.25 205.25,-19.25 205.25,0 255.75,0 255.75,-19.25"/>
<text text-anchor="middle" x="230.5" y="-5.75" font-family="Helvetica,sans-Serif" font-size="10.00">dMap_c</text>
</a>
</g>
</g>
<!-- Node2 -->
<g id="Node000002" class="node">
<title>Node2</title>
<g id="a_Node000002"><a xlink:href="classrenderingAmap__c.html" target="_top" xlink:title=" ">
<polygon fill="white" stroke="#666666" points="161.38,-97 69.62,-97 69.62,-77.75 161.38,-77.75 161.38,-97"/>
<text text-anchor="middle" x="115.5" y="-83.5" font-family="Helvetica,sans-Serif" font-size="10.00">renderingAmap_c</text>
</a>
</g>
</g>
<!-- Node2&#45;&gt;Node1 -->
<g id="edge1_Node000001_Node000002" class="edge">
<title>Node2&#45;&gt;Node1</title>
<g id="a_edge1_Node000001_Node000002"><a xlink:title=" ">
<path fill="none" stroke="#63b8ff" d="M138.68,-71.11C162.13,-55.66 197.6,-32.29 216.87,-19.6"/>
<polygon fill="#63b8ff" stroke="#63b8ff" points="136.83,-68.13 130.41,-76.56 140.68,-73.98 136.83,-68.13"/>
</a>
</g>
</g>
<!-- Node3 -->
<g id="Node000003" class="node">
<title>Node3</title>
<g id="a_Node000003"><a xlink:href="classrenderingPlusDoorAndCursor__c.html" target="_top" xlink:title=" ">
<polygon fill="white" stroke="#666666" points="154.38,-163.5 2.62,-163.5 2.62,-144.25 154.38,-144.25 154.38,-163.5"/>
<text text-anchor="middle" x="78.5" y="-150" font-family="Helvetica,sans-Serif" font-size="10.00">renderingPlusDoorAndCursor_c</text>
</a>
</g>
</g>
<!-- Node3&#45;&gt;Node2 -->
<g id="edge2_Node000002_Node000003" class="edge">
<title>Node3&#45;&gt;Node2</title>
<g id="a_edge2_Node000002_Node000003"><a xlink:title=" ">
<path fill="none" stroke="#63b8ff" d="M89.18,-134.26C96.15,-122.1 104.95,-106.77 110.4,-97.27"/>
<polygon fill="#63b8ff" stroke="#63b8ff" points="86.34,-132.18 84.4,-142.59 92.41,-135.66 86.34,-132.18"/>
</a>
</g>
</g>
<!-- Node4 -->
<g id="Node000004" class="node">
<title>Node4</title>
<g id="a_Node000004"><a xlink:href="structrenderingPlusDoor__c.html" target="_top" xlink:title=" ">
<polygon fill="white" stroke="#666666" points="131.5,-263.75 25.5,-263.75 25.5,-244.5 131.5,-244.5 131.5,-263.75"/>
<text text-anchor="middle" x="78.5" y="-250.25" font-family="Helvetica,sans-Serif" font-size="10.00">renderingPlusDoor_c</text>
</a>
</g>
</g>
<!-- Node4&#45;&gt;Node3 -->
<g id="edge3_Node000003_Node000004" class="edge">
<title>Node4&#45;&gt;Node3</title>
<g id="a_edge3_Node000003_Node000004"><a xlink:title=" ">
<path fill="none" stroke="#63b8ff" d="M78.5,-232.82C78.5,-211.67 78.5,-179.48 78.5,-163.92"/>
<polygon fill="#63b8ff" stroke="#63b8ff" points="75,-232.54 78.5,-242.54 82,-232.54 75,-232.54"/>
</a>
</g>
</g>
<!-- Node5 -->
<g id="Node000005" class="node">
<title>Node5</title>
<g id="a_Node000005"><a xlink:href="structrenderingDAmap__c.html" target="_top" xlink:title=" ">
<polygon fill="white" stroke="#666666" points="127.75,-320 29.25,-320 29.25,-300.75 127.75,-300.75 127.75,-320"/>
<text text-anchor="middle" x="78.5" y="-306.5" font-family="Helvetica,sans-Serif" font-size="10.00">renderingDAmap_c</text>
</a>
</g>
</g>
<!-- Node5&#45;&gt;Node4 -->
<g id="edge4_Node000004_Node000005" class="edge">
<title>Node5&#45;&gt;Node4</title>
<g id="a_edge4_Node000004_Node000005"><a xlink:title=" ">
<path fill="none" stroke="#63b8ff" d="M78.5,-289.19C78.5,-280.48 78.5,-270.74 78.5,-263.92"/>
<polygon fill="#63b8ff" stroke="#63b8ff" points="75,-288.9 78.5,-298.9 82,-288.9 75,-288.9"/>
</a>
</g>
</g>
<!-- Node6 -->
<g id="Node000006" class="node">
<title>Node6</title>
<g id="a_Node000006"><a xlink:href="structdRenderingFDAmap__c.html" target="_top" xlink:title=" ">
<polygon fill="white" stroke="#666666" points="135.25,-376.25 21.75,-376.25 21.75,-357 135.25,-357 135.25,-376.25"/>
<text text-anchor="middle" x="78.5" y="-362.75" font-family="Helvetica,sans-Serif" font-size="10.00">dRenderingFDAmap_c</text>
</a>
</g>
</g>
<!-- Node6&#45;&gt;Node5 -->
<g id="edge5_Node000005_Node000006" class="edge">
<title>Node6&#45;&gt;Node5</title>
<g id="a_edge5_Node000005_Node000006"><a xlink:title=" ">
<path fill="none" stroke="#63b8ff" d="M78.5,-345.44C78.5,-336.73 78.5,-326.99 78.5,-320.17"/>
<polygon fill="#63b8ff" stroke="#63b8ff" points="75,-345.15 78.5,-355.15 82,-345.15 75,-345.15"/>
</a>
</g>
</g>
<!-- Node7 -->
<g id="Node000007" class="node">
<title>Node7</title>
<g id="a_Node000007"><a xlink:href="structdRenderingMap__c.html" target="_top" xlink:title=" ">
<polygon fill="white" stroke="#666666" points="125.5,-432.5 31.5,-432.5 31.5,-413.25 125.5,-413.25 125.5,-432.5"/>
<text text-anchor="middle" x="78.5" y="-419" font-family="Helvetica,sans-Serif" font-size="10.00">dRenderingMap_c</text>
</a>
</g>
</g>
<!-- Node7&#45;&gt;Node6 -->
<g id="edge6_Node000006_Node000007" class="edge">
<title>Node7&#45;&gt;Node6</title>
<g id="a_edge6_Node000006_Node000007"><a xlink:title=" ">
<path fill="none" stroke="#63b8ff" d="M78.5,-401.69C78.5,-392.98 78.5,-383.24 78.5,-376.42"/>
<polygon fill="#63b8ff" stroke="#63b8ff" points="75,-401.4 78.5,-411.4 82,-401.4 75,-401.4"/>
</a>
</g>
</g>
<!-- Node8 -->
<g id="Node000008" class="node">
<title>Node8</title>
<g id="a_Node000008"><a xlink:href="classdDrawPathWithNormalPattern__c.html" target="_top" xlink:title=" ">
<polygon fill="white" stroke="#666666" points="157,-488.75 0,-488.75 0,-469.5 157,-469.5 157,-488.75"/>
<text text-anchor="middle" x="78.5" y="-475.25" font-family="Helvetica,sans-Serif" font-size="10.00">dDrawPathWithNormalPattern_c</text>
</a>
</g>
</g>
<!-- Node8&#45;&gt;Node7 -->
<g id="edge7_Node000007_Node000008" class="edge">
<title>Node8&#45;&gt;Node7</title>
<g id="a_edge7_Node000007_Node000008"><a xlink:title=" ">
<path fill="none" stroke="#63b8ff" d="M78.5,-457.94C78.5,-449.23 78.5,-439.49 78.5,-432.67"/>
<polygon fill="#63b8ff" stroke="#63b8ff" points="75,-457.65 78.5,-467.65 82,-457.65 75,-457.65"/>
</a>
</g>
</g>
<!-- Node9 -->
<g id="Node000009" class="node">
<title>Node9</title>
<g id="a_Node000009"><a xlink:href="structdDrawPath__c.html" target="_top" xlink:title=" ">
<polygon fill="white" stroke="#666666" points="115.75,-545 41.25,-545 41.25,-525.75 115.75,-525.75 115.75,-545"/>
<text text-anchor="middle" x="78.5" y="-531.5" font-family="Helvetica,sans-Serif" font-size="10.00">dDrawPath_c</text>
</a>
</g>
</g>
<!-- Node9&#45;&gt;Node8 -->
<g id="edge8_Node000008_Node000009" class="edge">
<title>Node9&#45;&gt;Node8</title>
<g id="a_edge8_Node000008_Node000009"><a xlink:title=" ">
<path fill="none" stroke="#63b8ff" d="M78.5,-514.19C78.5,-505.48 78.5,-495.74 78.5,-488.92"/>
<polygon fill="#63b8ff" stroke="#63b8ff" points="75,-513.9 78.5,-523.9 82,-513.9 75,-513.9"/>
</a>
</g>
</g>
<!-- Node10 -->
<g id="Node000010" class="node">
<title>Node10</title>
<g id="a_Node000010"><a xlink:href="classdDlst__base__c.html" target="_top" xlink:title=" ">
<polygon fill="white" stroke="#666666" points="116.12,-601.25 40.88,-601.25 40.88,-582 116.12,-582 116.12,-601.25"/>
<text text-anchor="middle" x="78.5" y="-587.75" font-family="Helvetica,sans-Serif" font-size="10.00">dDlst_base_c</text>
</a>
</g>
</g>
<!-- Node10&#45;&gt;Node9 -->
<g id="edge9_Node000009_Node000010" class="edge">
<title>Node10&#45;&gt;Node9</title>
<g id="a_edge9_Node000009_Node000010"><a xlink:title=" ">
<path fill="none" stroke="#63b8ff" d="M78.5,-570.44C78.5,-561.73 78.5,-551.99 78.5,-545.17"/>
<polygon fill="#63b8ff" stroke="#63b8ff" points="75,-570.15 78.5,-580.15 82,-570.15 75,-570.15"/>
</a>
</g>
</g>
<!-- Node11 -->
<g id="Node000011" class="node">
<title>Node11</title>
<g id="a_Node000011"><a xlink:href="structdMap__prm__res__s.html" target="_top" xlink:title=" ">
<polygon fill="white" stroke="#666666" points="276,-97 185,-97 185,-77.75 276,-77.75 276,-97"/>
<text text-anchor="middle" x="230.5" y="-83.5" font-family="Helvetica,sans-Serif" font-size="10.00">dMap_prm_res_s</text>
</a>
</g>
</g>
<!-- Node11&#45;&gt;Node1 -->
<g id="edge10_Node000001_Node000011" class="edge">
<title>Node11&#45;&gt;Node1</title>
<g id="a_edge10_Node000001_Node000011"><a xlink:title=" ">
<path fill="none" stroke="#9a32cd" stroke-dasharray="5,2" d="M230.5,-66.1C230.5,-50.95 230.5,-30.98 230.5,-19.6"/>
<polygon fill="#9a32cd" stroke="#9a32cd" points="227,-65.87 230.5,-75.87 234,-65.87 227,-65.87"/>
</a>
</g>
<text text-anchor="middle" x="253.38" y="-50.25" font-family="Helvetica,sans-Serif" font-size="10.00" fill="grey"> m_res</text>
<text text-anchor="middle" x="253.38" y="-39" font-family="Helvetica,sans-Serif" font-size="10.00" fill="grey">m_res_src</text>
</g>
<!-- Node12 -->
<g id="Node000012" class="node">
<title>Node12</title>
<g id="a_Node000012"><a xlink:href="structdMpath__RGB5A3__palDt__s.html" target="_top" xlink:title=" ">
<polygon fill="white" stroke="#666666" points="302.5,-163.5 172.5,-163.5 172.5,-144.25 302.5,-144.25 302.5,-163.5"/>
<text text-anchor="middle" x="237.5" y="-150" font-family="Helvetica,sans-Serif" font-size="10.00">dMpath_RGB5A3_palDt_s</text>
</a>
</g>
</g>
<!-- Node12&#45;&gt;Node11 -->
<g id="edge11_Node000011_Node000012" class="edge">
<title>Node12&#45;&gt;Node11</title>
<g id="a_edge11_Node000011_Node000012"><a xlink:title=" ">
<path fill="none" stroke="#9a32cd" stroke-dasharray="5,2" d="M235.32,-132.77C234.03,-120.87 232.45,-106.38 231.47,-97.27"/>
<polygon fill="#9a32cd" stroke="#9a32cd" points="231.8,-132.84 236.36,-142.4 238.76,-132.08 231.8,-132.84"/>
</a>
</g>
<text text-anchor="middle" x="261.25" y="-116.75" font-family="Helvetica,sans-Serif" font-size="10.00" fill="grey"> palette_data</text>
</g>
<!-- Node13 -->
<g id="Node000013" class="node">
<title>Node13</title>
<g id="a_Node000013"><a xlink:href="structdMpath__RGB5A3__s.html" target="_top" xlink:title=" ">
<polygon fill="white" stroke="#666666" points="288.62,-263.75 186.38,-263.75 186.38,-244.5 288.62,-244.5 288.62,-263.75"/>
<text text-anchor="middle" x="237.5" y="-250.25" font-family="Helvetica,sans-Serif" font-size="10.00">dMpath_RGB5A3_s</text>
</a>
</g>
</g>
<!-- Node13&#45;&gt;Node12 -->
<g id="edge12_Node000012_Node000013" class="edge">
<title>Node13&#45;&gt;Node12</title>
<g id="a_edge12_Node000012_Node000013"><a xlink:title=" ">
<path fill="none" stroke="#9a32cd" stroke-dasharray="5,2" d="M237.5,-232.82C237.5,-211.67 237.5,-179.48 237.5,-163.92"/>
<polygon fill="#9a32cd" stroke="#9a32cd" points="234,-232.54 237.5,-242.54 241,-232.54 234,-232.54"/>
</a>
</g>
<text text-anchor="middle" x="257.38" y="-217" font-family="Helvetica,sans-Serif" font-size="10.00" fill="grey"> field_0x0</text>
<text text-anchor="middle" x="257.38" y="-205.75" font-family="Helvetica,sans-Serif" font-size="10.00" fill="grey">field_0x2</text>
<text text-anchor="middle" x="257.38" y="-194.5" font-family="Helvetica,sans-Serif" font-size="10.00" fill="grey">field_0x4</text>
<text text-anchor="middle" x="257.38" y="-183.25" font-family="Helvetica,sans-Serif" font-size="10.00" fill="grey">field_0x6</text>
</g>
<!-- Node14 -->
<g id="Node000014" class="node">
<title>Node14</title>
<g id="a_Node000014"><a xlink:href="structResTIMG.html" target="_top" xlink:title="Image data header.">
<polygon fill="white" stroke="#666666" points="352.5,-97 294.5,-97 294.5,-77.75 352.5,-77.75 352.5,-97"/>
<text text-anchor="middle" x="323.5" y="-83.5" font-family="Helvetica,sans-Serif" font-size="10.00">ResTIMG</text>
</a>
</g>
</g>
<!-- Node14&#45;&gt;Node1 -->
<g id="edge13_Node000001_Node000014" class="edge">
<title>Node14&#45;&gt;Node1</title>
<g id="a_edge13_Node000001_Node000014"><a xlink:title=" ">
<path fill="none" stroke="#9a32cd" stroke-dasharray="5,2" d="M310.43,-68.46C302.53,-58.45 291.82,-46.23 280.5,-37.25 271.72,-30.28 260.84,-24.24 251.48,-19.68"/>
<polygon fill="#9a32cd" stroke="#9a32cd" points="307.56,-70.47 316.4,-76.32 313.14,-66.23 307.56,-70.47"/>
</a>
</g>
<text text-anchor="middle" x="328.75" y="-44.62" font-family="Helvetica,sans-Serif" font-size="10.00" fill="grey"> mResTIMG</text>
</g>
</g>
</svg>
