<?xml version="1.0" encoding="UTF-8" standalone="no"?>
<!DOCTYPE svg PUBLIC "-//W3C//DTD SVG 1.1//EN"
 "http://www.w3.org/Graphics/SVG/1.1/DTD/svg11.dtd">
<!-- Generated by graphviz version 9.0.0 (20230911.1827)
 -->
<!-- Title: JStudio::fvb::TObject_list Pages: 1 -->
<svg width="729pt" height="249pt"
 viewBox="0.00 0.00 728.50 248.88" xmlns="http://www.w3.org/2000/svg" xmlns:xlink="http://www.w3.org/1999/xlink">
<g id="graph0" class="graph" transform="scale(1 1) rotate(0) translate(4 244.88)">
<title>JStudio::fvb::TObject_list</title>
<!-- Node1 -->
<g id="Node000001" class="node">
<title>Node1</title>
<g id="a_Node000001"><a xlink:title=" ">
<polygon fill="#999999" stroke="#666666" points="720.5,-118.88 596.5,-118.88 596.5,-99.62 720.5,-99.62 720.5,-118.88"/>
<text text-anchor="middle" x="658.5" y="-105.38" font-family="Helvetica,sans-Serif" font-size="10.00">JStudio::fvb::TObject_list</text>
</a>
</g>
</g>
<!-- Node2 -->
<g id="Node000002" class="node">
<title>Node2</title>
<g id="a_Node000002"><a xlink:href="classJStudio_1_1fvb_1_1TObject.html" target="_top" xlink:title=" ">
<polygon fill="white" stroke="#666666" points="508.38,-158.88 402.38,-158.88 402.38,-139.62 508.38,-139.62 508.38,-158.88"/>
<text text-anchor="middle" x="455.38" y="-145.38" font-family="Helvetica,sans-Serif" font-size="10.00">JStudio::fvb::TObject</text>
</a>
</g>
</g>
<!-- Node2&#45;&gt;Node1 -->
<g id="edge1_Node000001_Node000002" class="edge">
<title>Node2&#45;&gt;Node1</title>
<g id="a_edge1_Node000001_Node000002"><a xlink:title=" ">
<path fill="none" stroke="#63b8ff" d="M518.16,-136.96C546.57,-131.31 579.85,-124.69 606.76,-119.34"/>
<polygon fill="#63b8ff" stroke="#63b8ff" points="517.74,-133.48 508.61,-138.86 519.1,-140.34 517.74,-133.48"/>
</a>
</g>
</g>
<!-- Node3 -->
<g id="Node000003" class="node">
<title>Node3</title>
<g id="a_Node000003"><a xlink:href="structJStudio_1_1object_1_1TObject__ID.html" target="_top" xlink:title=" ">
<polygon fill="white" stroke="#666666" points="303.38,-240.88 169.62,-240.88 169.62,-221.62 303.38,-221.62 303.38,-240.88"/>
<text text-anchor="middle" x="236.5" y="-227.38" font-family="Helvetica,sans-Serif" font-size="10.00">JStudio::object::TObject_ID</text>
</a>
</g>
</g>
<!-- Node3&#45;&gt;Node2 -->
<g id="edge2_Node000002_Node000003" class="edge">
<title>Node3&#45;&gt;Node2</title>
<g id="a_edge2_Node000002_Node000003"><a xlink:title=" ">
<path fill="none" stroke="#63b8ff" d="M296.22,-218.27C302.86,-216.43 309.49,-214.41 315.75,-212.25 359.98,-196.98 409.32,-172.71 435.55,-159.18"/>
<polygon fill="#63b8ff" stroke="#63b8ff" points="295.32,-214.89 286.55,-220.83 297.11,-221.65 295.32,-214.89"/>
</a>
</g>
</g>
<!-- Node4 -->
<g id="Node000004" class="node">
<title>Node4</title>
<g id="a_Node000004"><a xlink:href="structJStudio_1_1object_1_1TIDData.html" target="_top" xlink:title=" ">
<polygon fill="white" stroke="#666666" points="120.25,-240.88 0,-240.88 0,-221.62 120.25,-221.62 120.25,-240.88"/>
<text text-anchor="middle" x="60.12" y="-227.38" font-family="Helvetica,sans-Serif" font-size="10.00">JStudio::object::TIDData</text>
</a>
</g>
</g>
<!-- Node4&#45;&gt;Node3 -->
<g id="edge3_Node000003_Node000004" class="edge">
<title>Node4&#45;&gt;Node3</title>
<g id="a_edge3_Node000003_Node000004"><a xlink:title=" ">
<path fill="none" stroke="#63b8ff" d="M131.87,-231.25C144.26,-231.25 157.11,-231.25 169.37,-231.25"/>
<polygon fill="#63b8ff" stroke="#63b8ff" points="132.16,-227.75 122.16,-231.25 132.16,-234.75 132.16,-227.75"/>
</a>
</g>
</g>
<!-- Node5 -->
<g id="Node000005" class="node">
<title>Node5</title>
<g id="a_Node000005"><a xlink:href="structJGadget_1_1TLinkListNode.html" target="_top" xlink:title=" ">
<polygon fill="white" stroke="#666666" points="297.38,-162.88 175.62,-162.88 175.62,-143.62 297.38,-143.62 297.38,-162.88"/>
<text text-anchor="middle" x="236.5" y="-149.38" font-family="Helvetica,sans-Serif" font-size="10.00">JGadget::TLinkListNode</text>
</a>
</g>
</g>
<!-- Node5&#45;&gt;Node2 -->
<g id="edge4_Node000002_Node000005" class="edge">
<title>Node5&#45;&gt;Node2</title>
<g id="a_edge4_Node000002_Node000005"><a xlink:title=" ">
<path fill="none" stroke="#9a32cd" stroke-dasharray="5,2" d="M309,-151.93C339.32,-151.37 374,-150.73 401.88,-150.22"/>
<polygon fill="#9a32cd" stroke="#9a32cd" points="309.07,-148.43 299.14,-152.11 309.2,-155.43 309.07,-148.43"/>
</a>
</g>
<text text-anchor="middle" x="350.62" y="-153" font-family="Helvetica,sans-Serif" font-size="10.00" fill="grey"> mNode</text>
</g>
<!-- Node5&#45;&gt;Node5 -->
<g id="edge5_Node000005_Node000005" class="edge">
<title>Node5&#45;&gt;Node5</title>
<g id="a_edge5_Node000005_Node000005"><a xlink:title=" ">
<path fill="none" stroke="#9a32cd" stroke-dasharray="5,2" d="M219.15,-174.28C221.32,-178.15 227.1,-180.88 236.5,-180.88 253.68,-180.88 258.78,-171.77 251.8,-163.16"/>
<polygon fill="#9a32cd" stroke="#9a32cd" points="222.55,-175.12 220.92,-164.65 215.67,-173.85 222.55,-175.12"/>
</a>
</g>
<text text-anchor="middle" x="236.5" y="-193.88" font-family="Helvetica,sans-Serif" font-size="10.00" fill="grey"> mNext</text>
<text text-anchor="middle" x="236.5" y="-182.62" font-family="Helvetica,sans-Serif" font-size="10.00" fill="grey">mPrev</text>
</g>
<!-- Node6 -->
<g id="Node000006" class="node">
<title>Node6</title>
<g id="a_Node000006"><a xlink:href="classJStudio_1_1TFunctionValue.html" target="_top" xlink:title=" ">
<polygon fill="white" stroke="#666666" points="297.38,-119.88 175.62,-119.88 175.62,-100.62 297.38,-100.62 297.38,-119.88"/>
<text text-anchor="middle" x="236.5" y="-106.38" font-family="Helvetica,sans-Serif" font-size="10.00">JStudio::TFunctionValue</text>
</a>
</g>
</g>
<!-- Node6&#45;&gt;Node2 -->
<g id="edge6_Node000002_Node000006" class="edge">
<title>Node6&#45;&gt;Node2</title>
<g id="a_edge6_Node000002_Node000006"><a xlink:title=" ">
<path fill="none" stroke="#9a32cd" stroke-dasharray="5,2" d="M304.92,-122.37C336.28,-128.01 373,-134.62 402.2,-139.87"/>
<polygon fill="#9a32cd" stroke="#9a32cd" points="305.58,-118.94 295.12,-120.61 304.35,-125.83 305.58,-118.94"/>
</a>
</g>
<text text-anchor="middle" x="350.62" y="-134" font-family="Helvetica,sans-Serif" font-size="10.00" fill="grey"> pfv_</text>
</g>
<!-- Node7 -->
<g id="Node000007" class="node">
<title>Node7</title>
<g id="a_Node000007"><a xlink:href="classJStudio_1_1TFunctionValue__list.html" target="_top" xlink:title=" ">
<polygon fill="white" stroke="#666666" points="525.25,-85.88 385.5,-85.88 385.5,-66.62 525.25,-66.62 525.25,-85.88"/>
<text text-anchor="middle" x="455.38" y="-72.38" font-family="Helvetica,sans-Serif" font-size="10.00">JStudio::TFunctionValue_list</text>
</a>
</g>
</g>
<!-- Node6&#45;&gt;Node7 -->
<g id="edge8_Node000007_Node000006" class="edge">
<title>Node6&#45;&gt;Node7</title>
<g id="a_edge8_Node000007_Node000006"><a xlink:title=" ">
<path fill="none" stroke="#8b1a1a" d="M308.99,-99.04C335.11,-94.95 364.49,-90.34 389.96,-86.35"/>
<polygon fill="#8b1a1a" stroke="#8b1a1a" points="308.46,-95.58 299.12,-100.59 309.54,-102.5 308.46,-95.58"/>
</a>
</g>
</g>
<!-- Node7&#45;&gt;Node1 -->
<g id="edge7_Node000001_Node000007" class="edge">
<title>Node7&#45;&gt;Node1</title>
<g id="a_edge7_Node000001_Node000007"><a xlink:title=" ">
<path fill="none" stroke="#9a32cd" stroke-dasharray="5,2" d="M529.1,-88.18C551.06,-91.79 574.95,-95.7 596.09,-99.17"/>
<polygon fill="#9a32cd" stroke="#9a32cd" points="529.74,-84.74 519.31,-86.58 528.61,-91.65 529.74,-84.74"/>
</a>
</g>
<text text-anchor="middle" x="560.88" y="-97" font-family="Helvetica,sans-Serif" font-size="10.00" fill="grey"> fnValue</text>
</g>
<!-- Node7&#45;&gt;Node7 -->
<g id="edge11_Node000007_Node000007" class="edge">
<title>Node7&#45;&gt;Node7</title>
<g id="a_edge11_Node000007_Node000007"><a xlink:title=" ">
<path fill="none" stroke="#9a32cd" stroke-dasharray="5,2" d="M436.78,-97.28C439.11,-101.15 445.31,-103.88 455.38,-103.88 473.79,-103.88 479.25,-94.77 471.77,-86.16"/>
<polygon fill="#9a32cd" stroke="#9a32cd" points="440.18,-98.14 438.68,-87.65 433.31,-96.78 440.18,-98.14"/>
</a>
</g>
<text text-anchor="middle" x="455.38" y="-105.62" font-family="Helvetica,sans-Serif" font-size="10.00" fill="grey"> pfnUpdate_</text>
</g>
<!-- Node8 -->
<g id="Node000008" class="node">
<title>Node8</title>
<g id="a_Node000008"><a xlink:href="classJStudio_1_1TFunctionValueAttribute__range.html" target="_top" xlink:title=" ">
<polygon fill="white" stroke="#666666" points="315.75,-79.5 157.25,-79.5 157.25,-49 315.75,-49 315.75,-79.5"/>
<text text-anchor="start" x="165.25" y="-66" font-family="Helvetica,sans-Serif" font-size="10.00">JStudio::TFunctionValueAttribute</text>
<text text-anchor="middle" x="236.5" y="-54.75" font-family="Helvetica,sans-Serif" font-size="10.00">_range</text>
</a>
</g>
</g>
<!-- Node8&#45;&gt;Node7 -->
<g id="edge9_Node000007_Node000008" class="edge">
<title>Node8&#45;&gt;Node7</title>
<g id="a_edge9_Node000007_Node000008"><a xlink:title=" ">
<path fill="none" stroke="#8b1a1a" d="M327.33,-69.22C346.6,-70.29 366.67,-71.4 385.01,-72.41"/>
<polygon fill="#8b1a1a" stroke="#8b1a1a" points="327.79,-65.74 317.61,-68.68 327.41,-72.73 327.79,-65.74"/>
</a>
</g>
</g>
<!-- Node9 -->
<g id="Node000009" class="node">
<title>Node9</title>
<g id="a_Node000009"><a xlink:href="classJStudio_1_1TFunctionValueAttribute__interpolate.html" target="_top" xlink:title=" ">
<polygon fill="white" stroke="#666666" points="315.75,-30.5 157.25,-30.5 157.25,0 315.75,0 315.75,-30.5"/>
<text text-anchor="start" x="165.25" y="-17" font-family="Helvetica,sans-Serif" font-size="10.00">JStudio::TFunctionValueAttribute</text>
<text text-anchor="middle" x="236.5" y="-5.75" font-family="Helvetica,sans-Serif" font-size="10.00">_interpolate</text>
</a>
</g>
</g>
<!-- Node9&#45;&gt;Node7 -->
<g id="edge10_Node000007_Node000009" class="edge">
<title>Node9&#45;&gt;Node7</title>
<g id="a_edge10_Node000007_Node000009"><a xlink:title=" ">
<path fill="none" stroke="#8b1a1a" d="M304.25,-34.02C341.9,-44.61 387.45,-57.43 418.44,-66.14"/>
<polygon fill="#8b1a1a" stroke="#8b1a1a" points="305.38,-30.71 294.81,-31.37 303.49,-37.45 305.38,-30.71"/>
</a>
</g>
</g>
</g>
</svg>
