<?xml version="1.0" encoding="UTF-8" standalone="no"?>
<!DOCTYPE svg PUBLIC "-//W3C//DTD SVG 1.1//EN"
 "http://www.w3.org/Graphics/SVG/1.1/DTD/svg11.dtd">
<!-- Generated by graphviz version 9.0.0 (20230911.1827)
 -->
<!-- Title: J3DVertexBuffer Pages: 1 -->
<svg width="307pt" height="164pt"
 viewBox="0.00 0.00 307.12 163.50" xmlns="http://www.w3.org/2000/svg" xmlns:xlink="http://www.w3.org/1999/xlink">
<g id="graph0" class="graph" transform="scale(1 1) rotate(0) translate(4 159.5)">
<title>J3DVertexBuffer</title>
<!-- Node1 -->
<g id="Node000001" class="node">
<title>Node1</title>
<g id="a_Node000001"><a xlink:title=" ">
<polygon fill="#999999" stroke="#666666" points="232.88,-19.25 146.38,-19.25 146.38,0 232.88,0 232.88,-19.25"/>
<text text-anchor="middle" x="189.62" y="-5.75" font-family="Helvetica,sans-Serif" font-size="10.00">J3DVertexBuffer</text>
</a>
</g>
</g>
<!-- Node2 -->
<g id="Node000002" class="node">
<title>Node2</title>
<g id="a_Node000002"><a xlink:href="classJ3DVertexData.html" target="_top" xlink:title=" ">
<polygon fill="white" stroke="#666666" points="187.25,-87.38 106,-87.38 106,-68.12 187.25,-68.12 187.25,-87.38"/>
<text text-anchor="middle" x="146.62" y="-73.88" font-family="Helvetica,sans-Serif" font-size="10.00">J3DVertexData</text>
</a>
</g>
</g>
<!-- Node2&#45;&gt;Node1 -->
<g id="edge1_Node000001_Node000002" class="edge">
<title>Node2&#45;&gt;Node1</title>
<g id="a_edge1_Node000001_Node000002"><a xlink:title=" ">
<path fill="none" stroke="#9a32cd" stroke-dasharray="5,2" d="M158.67,-58.22C166.93,-45.53 177.51,-29.26 183.92,-19.4"/>
<polygon fill="#9a32cd" stroke="#9a32cd" points="155.77,-56.27 153.25,-66.56 161.64,-60.09 155.77,-56.27"/>
</a>
</g>
<text text-anchor="middle" x="195.12" y="-39" font-family="Helvetica,sans-Serif" font-size="10.00" fill="grey"> mVtxData</text>
</g>
<!-- Node3 -->
<g id="Node000003" class="node">
<title>Node3</title>
<g id="a_Node000003"><a xlink:href="struct__GXVtxAttrFmtList.html" target="_top" xlink:title=" ">
<polygon fill="white" stroke="#666666" points="99.25,-155.5 0,-155.5 0,-136.25 99.25,-136.25 99.25,-155.5"/>
<text text-anchor="middle" x="49.62" y="-142" font-family="Helvetica,sans-Serif" font-size="10.00">_GXVtxAttrFmtList</text>
</a>
</g>
</g>
<!-- Node3&#45;&gt;Node2 -->
<g id="edge2_Node000002_Node000003" class="edge">
<title>Node3&#45;&gt;Node2</title>
<g id="a_edge2_Node000002_Node000003"><a xlink:title=" ">
<path fill="none" stroke="#9a32cd" stroke-dasharray="5,2" d="M54.92,-125.02C57.48,-118.56 61.16,-111.82 66.38,-107 77.22,-96.97 91.84,-90.47 105.62,-86.26"/>
<polygon fill="#9a32cd" stroke="#9a32cd" points="51.63,-123.83 51.91,-134.42 58.29,-125.97 51.63,-123.83"/>
</a>
</g>
<text text-anchor="middle" x="103.75" y="-108.75" font-family="Helvetica,sans-Serif" font-size="10.00" fill="grey"> mVtxAttrFmtList</text>
</g>
<!-- Node4 -->
<g id="Node000004" class="node">
<title>Node4</title>
<g id="a_Node000004"><a xlink:href="struct__GXColor.html" target="_top" xlink:title=" ">
<polygon fill="white" stroke="#666666" points="217.62,-155.5 159.62,-155.5 159.62,-136.25 217.62,-136.25 217.62,-155.5"/>
<text text-anchor="middle" x="188.62" y="-142" font-family="Helvetica,sans-Serif" font-size="10.00">_GXColor</text>
</a>
</g>
</g>
<!-- Node4&#45;&gt;Node1 -->
<g id="edge4_Node000001_Node000004" class="edge">
<title>Node4&#45;&gt;Node1</title>
<g id="a_edge4_Node000001_Node000004"><a xlink:title=" ">
<path fill="none" stroke="#9a32cd" stroke-dasharray="5,2" d="M210.86,-128.37C213.61,-125.32 216.01,-121.93 217.62,-118.25 232.11,-85.29 231.82,-70.33 217.62,-37.25 214.61,-30.22 208.73,-24.17 203.13,-19.63"/>
<polygon fill="#9a32cd" stroke="#9a32cd" points="208.7,-125.6 203.71,-134.95 213.44,-130.75 208.7,-125.6"/>
</a>
</g>
<text text-anchor="middle" x="263.88" y="-79.5" font-family="Helvetica,sans-Serif" font-size="10.00" fill="grey"> mCurrentVtxCol</text>
<text text-anchor="middle" x="263.88" y="-68.25" font-family="Helvetica,sans-Serif" font-size="10.00" fill="grey">mVtxColArray</text>
</g>
<!-- Node4&#45;&gt;Node2 -->
<g id="edge3_Node000002_Node000004" class="edge">
<title>Node4&#45;&gt;Node2</title>
<g id="a_edge3_Node000002_Node000004"><a xlink:title=" ">
<path fill="none" stroke="#9a32cd" stroke-dasharray="5,2" d="M157.93,-129.75C153.93,-126.5 150.36,-122.68 147.88,-118.25 142.63,-108.92 143.32,-96.29 144.65,-87.85"/>
<polygon fill="#9a32cd" stroke="#9a32cd" points="155.64,-132.42 165.89,-135.12 159.56,-126.62 155.64,-132.42"/>
</a>
</g>
<text text-anchor="middle" x="183.5" y="-108.75" font-family="Helvetica,sans-Serif" font-size="10.00" fill="grey"> mVtxColorArray</text>
</g>
</g>
</svg>
