<?xml version="1.0" encoding="UTF-8" standalone="no"?>
<!DOCTYPE svg PUBLIC "-//W3C//DTD SVG 1.1//EN"
 "http://www.w3.org/Graphics/SVG/1.1/DTD/svg11.dtd">
<!-- Generated by graphviz version 9.0.0 (20230911.1827)
 -->
<!-- Title: J2DAnmTevRegKey Pages: 1 -->
<svg width="467pt" height="272pt"
 viewBox="0.00 0.00 467.25 271.75" xmlns="http://www.w3.org/2000/svg" xmlns:xlink="http://www.w3.org/1999/xlink">

<svg id="main" version="1.1" xmlns="http://www.w3.org/2000/svg" xmlns:xlink="http://www.w3.org/1999/xlink" xml:space="preserve" onload="init(evt)">
<style type="text/css"><![CDATA[
.node, .edge {opacity: 0.7;}
.node.selected, .edge.selected {opacity: 1;}
.edge:hover path { stroke: red; }
.edge:hover polygon { stroke: red; fill: red; }
]]></style>
<script type="application/ecmascript" xlink:href="svg.min.js"/>
<svg id="graph" class="graph">
<g id="graph0" class="graph" transform="scale(1 1) rotate(0) translate(4 267.75)">
<title>J2DAnmTevRegKey</title>
<!-- Node1 -->
<g id="Node000001" class="node">
<title>Node1</title>
<g id="a_Node000001"><a xlink:title=" ">
<polygon fill="#999999" stroke="#666666" points="242.88,-19.25 139.12,-19.25 139.12,0 242.88,0 242.88,-19.25"/>
<text text-anchor="middle" x="191" y="-5.75" font-family="Helvetica,sans-Serif" font-size="10.00">J2DAnmTevRegKey</text>
</a>
</g>
</g>
<!-- Node2 -->
<g id="Node000002" class="node">
<title>Node2</title>
<g id="a_Node000002"><a xlink:href="structJ2DAnmBase.html" target="_top" xlink:title=" ">
<polygon fill="white" stroke="#666666" points="76,-97 0,-97 0,-77.75 76,-77.75 76,-97"/>
<text text-anchor="middle" x="38" y="-83.5" font-family="Helvetica,sans-Serif" font-size="10.00">J2DAnmBase</text>
</a>
</g>
</g>
<!-- Node2&#45;&gt;Node1 -->
<g id="edge1_Node000001_Node000002" class="edge">
<title>Node2&#45;&gt;Node1</title>
<g id="a_edge1_Node000001_Node000002"><a xlink:title=" ">
<path fill="none" stroke="#63b8ff" d="M64.63,-71.94C83.34,-61.92 109.02,-48.43 132,-37.25 144.53,-31.15 158.77,-24.72 170.11,-19.7"/>
<polygon fill="#63b8ff" stroke="#63b8ff" points="62.98,-68.85 55.83,-76.67 66.29,-75.02 62.98,-68.85"/>
</a>
</g>
</g>
<!-- Node3 -->
<g id="Node000003" class="node">
<title>Node3</title>
<g id="a_Node000003"><a xlink:href="structJUTNameTab.html" target="_top" xlink:title=" ">
<polygon fill="white" stroke="#666666" points="171.75,-97 94.25,-97 94.25,-77.75 171.75,-77.75 171.75,-97"/>
<text text-anchor="middle" x="133" y="-83.5" font-family="Helvetica,sans-Serif" font-size="10.00">JUTNameTab</text>
</a>
</g>
</g>
<!-- Node3&#45;&gt;Node1 -->
<g id="edge2_Node000001_Node000003" class="edge">
<title>Node3&#45;&gt;Node1</title>
<g id="a_edge2_Node000001_Node000003"><a xlink:title=" ">
<path fill="none" stroke="#9a32cd" stroke-dasharray="5,2" d="M134.65,-66.22C136.28,-56.67 139.48,-45.56 145.75,-37.25 151.46,-29.68 160,-23.87 168.13,-19.63"/>
<polygon fill="#9a32cd" stroke="#9a32cd" points="131.19,-65.67 133.48,-76.01 138.14,-66.5 131.19,-65.67"/>
</a>
</g>
<text text-anchor="middle" x="184.62" y="-50.25" font-family="Helvetica,sans-Serif" font-size="10.00" fill="grey"> mCRegNameTab</text>
<text text-anchor="middle" x="184.62" y="-39" font-family="Helvetica,sans-Serif" font-size="10.00" fill="grey">mKRegNameTab</text>
</g>
<!-- Node4 -->
<g id="Node000004" class="node">
<title>Node4</title>
<g id="a_Node000004"><a xlink:href="structResNTAB.html" target="_top" xlink:title=" ">
<polygon fill="white" stroke="#666666" points="163.12,-197.25 102.88,-197.25 102.88,-178 163.12,-178 163.12,-197.25"/>
<text text-anchor="middle" x="133" y="-183.75" font-family="Helvetica,sans-Serif" font-size="10.00">ResNTAB</text>
</a>
</g>
</g>
<!-- Node4&#45;&gt;Node3 -->
<g id="edge3_Node000003_Node000004" class="edge">
<title>Node4&#45;&gt;Node3</title>
<g id="a_edge3_Node000003_Node000004"><a xlink:title=" ">
<path fill="none" stroke="#9a32cd" stroke-dasharray="5,2" d="M133,-166.32C133,-145.17 133,-112.98 133,-97.42"/>
<polygon fill="#9a32cd" stroke="#9a32cd" points="129.5,-166.04 133,-176.04 136.5,-166.04 129.5,-166.04"/>
</a>
</g>
<text text-anchor="middle" x="163.38" y="-133.62" font-family="Helvetica,sans-Serif" font-size="10.00" fill="grey"> mNameTable</text>
</g>
<!-- Node5 -->
<g id="Node000005" class="node">
<title>Node5</title>
<g id="a_Node000005"><a xlink:href="structResNTAB_1_1Entry.html" target="_top" xlink:title=" ">
<polygon fill="white" stroke="#666666" points="176.25,-263.75 89.75,-263.75 89.75,-244.5 176.25,-244.5 176.25,-263.75"/>
<text text-anchor="middle" x="133" y="-250.25" font-family="Helvetica,sans-Serif" font-size="10.00">ResNTAB::Entry</text>
</a>
</g>
</g>
<!-- Node5&#45;&gt;Node4 -->
<g id="edge4_Node000004_Node000005" class="edge">
<title>Node5&#45;&gt;Node4</title>
<g id="a_edge4_Node000004_Node000005"><a xlink:title=" ">
<path fill="none" stroke="#9a32cd" stroke-dasharray="5,2" d="M133,-232.65C133,-220.82 133,-206.54 133,-197.52"/>
<polygon fill="#9a32cd" stroke="#9a32cd" points="129.5,-232.64 133,-242.64 136.5,-232.64 129.5,-232.64"/>
</a>
</g>
<text text-anchor="middle" x="153.25" y="-217" font-family="Helvetica,sans-Serif" font-size="10.00" fill="grey"> mEntries</text>
</g>
<!-- Node6 -->
<g id="Node000006" class="node">
<title>Node6</title>
<g id="a_Node000006"><a xlink:href="structJ3DAnmCRegKeyTable.html" target="_top" xlink:title=" ">
<polygon fill="white" stroke="#666666" points="308,-97 190,-97 190,-77.75 308,-77.75 308,-97"/>
<text text-anchor="middle" x="249" y="-83.5" font-family="Helvetica,sans-Serif" font-size="10.00">J3DAnmCRegKeyTable</text>
</a>
</g>
</g>
<!-- Node6&#45;&gt;Node1 -->
<g id="edge5_Node000001_Node000006" class="edge">
<title>Node6&#45;&gt;Node1</title>
<g id="a_edge5_Node000001_Node000006"><a xlink:title=" ">
<path fill="none" stroke="#9a32cd" stroke-dasharray="5,2" d="M240.9,-66.99C236.41,-57.49 230.26,-46.2 223,-37.25 217.63,-30.63 210.41,-24.45 204.19,-19.72"/>
<polygon fill="#9a32cd" stroke="#9a32cd" points="237.65,-68.31 244.9,-76.03 244.05,-65.47 237.65,-68.31"/>
</a>
</g>
<text text-anchor="middle" x="284.62" y="-44.62" font-family="Helvetica,sans-Serif" font-size="10.00" fill="grey"> mAnmCRegKeyTable</text>
</g>
<!-- Node7 -->
<g id="Node000007" class="node">
<title>Node7</title>
<g id="a_Node000007"><a xlink:href="structJ3DAnmKeyTableBase.html" target="_top" xlink:title=" ">
<polygon fill="white" stroke="#666666" points="357.25,-197.25 240.75,-197.25 240.75,-178 357.25,-178 357.25,-197.25"/>
<text text-anchor="middle" x="299" y="-183.75" font-family="Helvetica,sans-Serif" font-size="10.00">J3DAnmKeyTableBase</text>
</a>
</g>
</g>
<!-- Node7&#45;&gt;Node6 -->
<g id="edge6_Node000006_Node000007" class="edge">
<title>Node7&#45;&gt;Node6</title>
<g id="a_edge6_Node000006_Node000007"><a xlink:title=" ">
<path fill="none" stroke="#9a32cd" stroke-dasharray="5,2" d="M289.27,-167.5C278.52,-146.38 261.67,-113.27 253.6,-97.42"/>
<polygon fill="#9a32cd" stroke="#9a32cd" points="286.04,-168.88 293.7,-176.21 292.28,-165.71 286.04,-168.88"/>
</a>
</g>
<text text-anchor="middle" x="305.62" y="-150.5" font-family="Helvetica,sans-Serif" font-size="10.00" fill="grey"> mATable</text>
<text text-anchor="middle" x="305.62" y="-139.25" font-family="Helvetica,sans-Serif" font-size="10.00" fill="grey">mBTable</text>
<text text-anchor="middle" x="305.62" y="-128" font-family="Helvetica,sans-Serif" font-size="10.00" fill="grey">mGTable</text>
<text text-anchor="middle" x="305.62" y="-116.75" font-family="Helvetica,sans-Serif" font-size="10.00" fill="grey">mRTable</text>
</g>
<!-- Node8 -->
<g id="Node000008" class="node">
<title>Node8</title>
<g id="a_Node000008"><a xlink:href="structJ3DAnmKRegKeyTable.html" target="_top" xlink:title=" ">
<polygon fill="white" stroke="#666666" points="444,-97 326,-97 326,-77.75 444,-77.75 444,-97"/>
<text text-anchor="middle" x="385" y="-83.5" font-family="Helvetica,sans-Serif" font-size="10.00">J3DAnmKRegKeyTable</text>
</a>
</g>
</g>
<!-- Node7&#45;&gt;Node8 -->
<g id="edge8_Node000008_Node000007" class="edge">
<title>Node7&#45;&gt;Node8</title>
<g id="a_edge8_Node000008_Node000007"><a xlink:title=" ">
<path fill="none" stroke="#9a32cd" stroke-dasharray="5,2" d="M319.44,-170.12C323.08,-166.89 326.75,-163.44 330,-160 349.83,-139.05 369.57,-111.21 379.1,-97.21"/>
<polygon fill="#9a32cd" stroke="#9a32cd" points="317.21,-167.42 311.85,-176.56 321.74,-172.76 317.21,-167.42"/>
</a>
</g>
<text text-anchor="middle" x="386.62" y="-150.5" font-family="Helvetica,sans-Serif" font-size="10.00" fill="grey"> mATable</text>
<text text-anchor="middle" x="386.62" y="-139.25" font-family="Helvetica,sans-Serif" font-size="10.00" fill="grey">mBTable</text>
<text text-anchor="middle" x="386.62" y="-128" font-family="Helvetica,sans-Serif" font-size="10.00" fill="grey">mGTable</text>
<text text-anchor="middle" x="386.62" y="-116.75" font-family="Helvetica,sans-Serif" font-size="10.00" fill="grey">mRTable</text>
</g>
<!-- Node8&#45;&gt;Node1 -->
<g id="edge7_Node000001_Node000008" class="edge">
<title>Node8&#45;&gt;Node1</title>
<g id="a_edge7_Node000001_Node000008"><a xlink:title=" ">
<path fill="none" stroke="#9a32cd" stroke-dasharray="5,2" d="M371.8,-68.47C362.89,-57.72 350.2,-44.72 336,-37.25 307.46,-22.24 271.89,-15.56 243.12,-12.64"/>
<polygon fill="#9a32cd" stroke="#9a32cd" points="369,-70.57 377.92,-76.29 374.51,-66.26 369,-70.57"/>
</a>
</g>
<text text-anchor="middle" x="411.62" y="-44.62" font-family="Helvetica,sans-Serif" font-size="10.00" fill="grey"> mAnmKRegKeyTable</text>
</g>
</g>
</svg>
</svg>

<style type='text/css'>
<![CDATA[
[data-mouse-over-selected='false'] { opacity: 0.7; }
[data-mouse-over-selected='true']  { opacity: 1.0; }
]]>
</style>
<script type="application/ecmascript"><![CDATA[
document.addEventListener('DOMContentLoaded', (event) => {
  highlightEdges();
  highlightAdjacentNodes();
});
]]></script>
</svg>
