<?xml version="1.0" encoding="UTF-8" standalone="no"?>
<!DOCTYPE svg PUBLIC "-//W3C//DTD SVG 1.1//EN"
 "http://www.w3.org/Graphics/SVG/1.1/DTD/svg11.dtd">
<!-- Generated by graphviz version 9.0.0 (20230911.1827)
 -->
<!-- Title: ob_ke_s Pages: 1 -->
<svg width="113pt" height="243pt"
 viewBox="0.00 0.00 112.88 243.25" xmlns="http://www.w3.org/2000/svg" xmlns:xlink="http://www.w3.org/1999/xlink">
<g id="graph0" class="graph" transform="scale(1 1) rotate(0) translate(4 239.25)">
<title>ob_ke_s</title>
<!-- Node1 -->
<g id="Node000001" class="node">
<title>Node1</title>
<g id="a_Node000001"><a xlink:title=" ">
<polygon fill="#999999" stroke="#666666" points="52.75,-19.25 0,-19.25 0,0 52.75,0 52.75,-19.25"/>
<text text-anchor="middle" x="26.38" y="-5.75" font-family="Helvetica,sans-Serif" font-size="10.00">ob_ke_s</text>
</a>
</g>
</g>
<!-- Node2 -->
<g id="Node000002" class="node">
<title>Node2</title>
<g id="a_Node000002"><a xlink:href="structcXyz.html" target="_top" xlink:title=" ">
<polygon fill="white" stroke="#666666" points="44.88,-143.62 7.88,-143.62 7.88,-124.38 44.88,-124.38 44.88,-143.62"/>
<text text-anchor="middle" x="26.38" y="-130.12" font-family="Helvetica,sans-Serif" font-size="10.00">cXyz</text>
</a>
</g>
</g>
<!-- Node2&#45;&gt;Node1 -->
<g id="edge1_Node000001_Node000002" class="edge">
<title>Node2&#45;&gt;Node1</title>
<g id="a_edge1_Node000001_Node000002"><a xlink:title=" ">
<path fill="none" stroke="#9a32cd" stroke-dasharray="5,2" d="M26.38,-112.74C26.38,-85.77 26.38,-39.22 26.38,-19.68"/>
<polygon fill="#9a32cd" stroke="#9a32cd" points="22.88,-112.69 26.38,-122.69 29.88,-112.69 22.88,-112.69"/>
</a>
</g>
<text text-anchor="middle" x="50.38" y="-61.5" font-family="Helvetica,sans-Serif" font-size="10.00" fill="grey"> field_0x0</text>
<text text-anchor="middle" x="50.38" y="-50.25" font-family="Helvetica,sans-Serif" font-size="10.00" fill="grey">field_0x1e0</text>
<text text-anchor="middle" x="50.38" y="-39" font-family="Helvetica,sans-Serif" font-size="10.00" fill="grey">field_0xf0</text>
</g>
<!-- Node2&#45;&gt;Node2 -->
<g id="edge3_Node000002_Node000002" class="edge">
<title>Node2&#45;&gt;Node2</title>
<g id="a_edge3_Node000002_Node000002"><a xlink:title=" ">
<path fill="none" stroke="#9a32cd" stroke-dasharray="5,2" d="M51.14,-145.82C57.81,-145.18 62.88,-141.24 62.88,-134 62.88,-122.96 51.11,-119.6 39.85,-123.91"/>
<polygon fill="#9a32cd" stroke="#9a32cd" points="51.76,-142.37 41.35,-144.32 50.7,-149.29 51.76,-142.37"/>
</a>
</g>
<text text-anchor="middle" x="83.88" y="-169.5" font-family="Helvetica,sans-Serif" font-size="10.00" fill="grey"> BaseX</text>
<text text-anchor="middle" x="83.88" y="-158.25" font-family="Helvetica,sans-Serif" font-size="10.00" fill="grey">BaseXY</text>
<text text-anchor="middle" x="83.88" y="-147" font-family="Helvetica,sans-Serif" font-size="10.00" fill="grey">BaseXYZ</text>
<text text-anchor="middle" x="83.88" y="-135.75" font-family="Helvetica,sans-Serif" font-size="10.00" fill="grey">BaseXZ</text>
<text text-anchor="middle" x="83.88" y="-124.5" font-family="Helvetica,sans-Serif" font-size="10.00" fill="grey">BaseY</text>
<text text-anchor="middle" x="83.88" y="-113.25" font-family="Helvetica,sans-Serif" font-size="10.00" fill="grey">BaseYZ</text>
<text text-anchor="middle" x="83.88" y="-102" font-family="Helvetica,sans-Serif" font-size="10.00" fill="grey">BaseZ</text>
<text text-anchor="middle" x="83.88" y="-90.75" font-family="Helvetica,sans-Serif" font-size="10.00" fill="grey">Zero</text>
</g>
<!-- Node3 -->
<g id="Node000003" class="node">
<title>Node3</title>
<g id="a_Node000003"><a xlink:href="structVec.html" target="_top" xlink:title=" ">
<polygon fill="white" stroke="#666666" points="43,-235.25 9.75,-235.25 9.75,-216 43,-216 43,-235.25"/>
<text text-anchor="middle" x="26.38" y="-221.75" font-family="Helvetica,sans-Serif" font-size="10.00">Vec</text>
</a>
</g>
</g>
<!-- Node3&#45;&gt;Node2 -->
<g id="edge2_Node000002_Node000003" class="edge">
<title>Node3&#45;&gt;Node2</title>
<g id="a_edge2_Node000002_Node000003"><a xlink:title=" ">
<path fill="none" stroke="#63b8ff" d="M26.38,-204.44C26.38,-185.44 26.38,-157.89 26.38,-143.89"/>
<polygon fill="#63b8ff" stroke="#63b8ff" points="22.88,-204.19 26.38,-214.19 29.88,-204.19 22.88,-204.19"/>
</a>
</g>
</g>
</g>
</svg>
