<?xml version="1.0" encoding="UTF-8" standalone="no"?>
<!DOCTYPE svg PUBLIC "-//W3C//DTD SVG 1.1//EN"
 "http://www.w3.org/Graphics/SVG/1.1/DTD/svg11.dtd">
<!-- Generated by graphviz version 7.0.5 (20221223.1930)
 -->
<!-- Title: libs/dolphin/ai/ai.c Pages: 1 -->
<!--zoomable 379 -->
<svg id="main" version="1.1" xmlns="http://www.w3.org/2000/svg" xmlns:xlink="http://www.w3.org/1999/xlink" xml:space="preserve" onload="init(evt)">
<style type="text/css"><![CDATA[
.edge:hover path { stroke: red; }
.edge:hover polygon { stroke: red; fill: red; }
]]></style>
<script type="text/javascript"><![CDATA[
var edges = document.getElementsByTagName('g');
if (edges && edges.length) {
  for (var i=0;i<edges.length;i++) {
    if (edges[i].id.substr(0,4)=='edge') {
      edges[i].setAttribute('class','edge');
    }
  }
}
]]></script>
        <defs>
                <circle id="rim" cx="0" cy="0" r="7"/>
                <circle id="rim2" cx="0" cy="0" r="3.5"/>
                <g id="zoomPlus">
                        <use xlink:href="#rim" fill="#404040">
                                <set attributeName="fill" to="#808080" begin="zoomplus.mouseover" end="zoomplus.mouseout"/>
                        </use>
                        <path d="M-4,0h8M0,-4v8" fill="none" stroke="white" stroke-width="1.5" pointer-events="none"/>
                </g>
                <g id="zoomMin">
                        <use xlink:href="#rim" fill="#404040">
                                <set attributeName="fill" to="#808080" begin="zoomminus.mouseover" end="zoomminus.mouseout"/>
                        </use>
                        <path d="M-4,0h8" fill="none" stroke="white" stroke-width="1.5" pointer-events="none"/>
                </g>
                <g id="dirArrow">
                        <path fill="none" stroke="white" stroke-width="1.5" d="M0,-3.0v7 M-2.5,-0.5L0,-3.0L2.5,-0.5"/>
                </g>
               <g id="resetDef">
                       <use xlink:href="#rim2" fill="#404040">
                               <set attributeName="fill" to="#808080" begin="reset.mouseover" end="reset.mouseout"/>
                       </use>
               </g>
        </defs>

<script type="text/javascript">
var viewWidth = 1940;
var viewHeight = 379;
var sectionId = 'dynsection-0';
</script>
<script xlink:href="svgpan.js"/>
<svg id="graph" class="graph">
<g id="viewport">
<title>libs/dolphin/ai/ai.c</title>
<!-- Node1 -->
<g id="node1" class="node">
<title>Node1</title>
<g id="a_node1"><a xlink:title=" ">
<polygon fill="#999999" stroke="#666666" points="156.17,-371 62.17,-371 62.17,-352 156.17,-352 156.17,-371"/>
<text text-anchor="middle" x="109.17" y="-359" font-family="Helvetica,sans-Serif" font-size="10.00">libs/dolphin/ai/ai.c</text>
</a>
</g>
</g>
<!-- Node2 -->
<g id="node2" class="node">
<title>Node2</title>
<g id="a_node2"><a xlink:href="ai_8h.html" target="_top" xlink:title=" ">
<polygon fill="white" stroke="#666666" points="110.17,-140 34.17,-140 34.17,-121 110.17,-121 110.17,-140"/>
<text text-anchor="middle" x="72.17" y="-128" font-family="Helvetica,sans-Serif" font-size="10.00">dolphin/ai/ai.h</text>
</a>
</g>
</g>
<!-- Node1&#45;&gt;Node2 -->
<g id="edge1" class="edge">
<title>Node1&#45;&gt;Node2</title>
<path fill="none" stroke="#63b8ff" d="M72.38,-351.52C53.9,-344.95 33.14,-333.95 22.17,-316 -10.3,-262.92 -3.31,-232.77 22.17,-176 27.5,-164.11 37.76,-154.1 47.6,-146.6"/>
<polygon fill="#63b8ff" stroke="#63b8ff" points="49.31,-149.67 55.5,-141.07 45.3,-143.94 49.31,-149.67"/>
</g>
<!-- Node5 -->
<g id="node5" class="node">
<title>Node5</title>
<g id="a_node5"><a xlink:href="dol2asm_8h.html" target="_top" xlink:title=" ">
<polygon fill="white" stroke="#666666" points="92.67,-316 31.67,-316 31.67,-297 92.67,-297 92.67,-316"/>
<text text-anchor="middle" x="62.17" y="-304" font-family="Helvetica,sans-Serif" font-size="10.00">dol2asm.h</text>
</a>
</g>
</g>
<!-- Node1&#45;&gt;Node5 -->
<g id="edge4" class="edge">
<title>Node1&#45;&gt;Node5</title>
<path fill="none" stroke="#63b8ff" d="M101.4,-351.75C94.98,-344.5 85.65,-333.98 77.7,-325.02"/>
<polygon fill="#63b8ff" stroke="#63b8ff" points="80.35,-322.73 71.1,-317.57 75.12,-327.38 80.35,-322.73"/>
</g>
<!-- Node6 -->
<g id="node6" class="node">
<title>Node6</title>
<g id="a_node6"><a xlink:href="dsp_8h.html" target="_top" xlink:title=" ">
<polygon fill="white" stroke="#666666" points="203.17,-316 111.17,-316 111.17,-297 203.17,-297 203.17,-316"/>
<text text-anchor="middle" x="157.17" y="-304" font-family="Helvetica,sans-Serif" font-size="10.00">dolphin/dsp/dsp.h</text>
</a>
</g>
</g>
<!-- Node1&#45;&gt;Node6 -->
<g id="edge5" class="edge">
<title>Node1&#45;&gt;Node6</title>
<path fill="none" stroke="#63b8ff" d="M117.09,-351.75C123.72,-344.43 133.38,-333.76 141.56,-324.74"/>
<polygon fill="#63b8ff" stroke="#63b8ff" points="143.93,-327.33 148.05,-317.56 138.74,-322.63 143.93,-327.33"/>
</g>
<!-- Node8 -->
<g id="node8" class="node">
<title>Node8</title>
<g id="a_node8"><a xlink:href="OS_8h.html" target="_top" xlink:title=" ">
<polygon fill="white" stroke="#666666" points="907.17,-316 821.17,-316 821.17,-297 907.17,-297 907.17,-316"/>
<text text-anchor="middle" x="864.17" y="-304" font-family="Helvetica,sans-Serif" font-size="10.00">dolphin/os/OS.h</text>
</a>
</g>
</g>
<!-- Node1&#45;&gt;Node8 -->
<g id="edge8" class="edge">
<title>Node1&#45;&gt;Node8</title>
<path fill="none" stroke="#63b8ff" d="M156.39,-357.18C289.53,-347.84 667.39,-321.31 809.36,-311.35"/>
<polygon fill="#63b8ff" stroke="#63b8ff" points="809.52,-314.84 819.25,-310.65 809.03,-307.86 809.52,-314.84"/>
</g>
<!-- Node3 -->
<g id="node3" class="node">
<title>Node3</title>
<g id="a_node3"><a xlink:href="types_8h.html" target="_top" xlink:title=" ">
<polygon fill="white" stroke="#666666" points="957.67,-85 876.67,-85 876.67,-66 957.67,-66 957.67,-85"/>
<text text-anchor="middle" x="917.17" y="-73" font-family="Helvetica,sans-Serif" font-size="10.00">dolphin/types.h</text>
</a>
</g>
</g>
<!-- Node2&#45;&gt;Node3 -->
<g id="edge2" class="edge">
<title>Node2&#45;&gt;Node3</title>
<path fill="none" stroke="#63b8ff" d="M110.3,-126.15C129.71,-124.49 153.69,-122.53 175.17,-121 433.97,-102.56 743.93,-85.64 865.06,-79.22"/>
<polygon fill="#63b8ff" stroke="#63b8ff" points="865.21,-82.72 875.01,-78.7 864.84,-75.73 865.21,-82.72"/>
</g>
<!-- Node4 -->
<g id="node4" class="node">
<title>Node4</title>
<g id="a_node4"><a xlink:href="stddef_8h.html" target="_top" xlink:title=" ">
<polygon fill="white" stroke="#666666" points="985.17,-30 849.17,-30 849.17,0 985.17,0 985.17,-30"/>
<text text-anchor="start" x="857.17" y="-18" font-family="Helvetica,sans-Serif" font-size="10.00">MSL_C/MSL_Common/Src</text>
<text text-anchor="middle" x="917.17" y="-7" font-family="Helvetica,sans-Serif" font-size="10.00">/stddef.h</text>
</a>
</g>
</g>
<!-- Node3&#45;&gt;Node4 -->
<g id="edge3" class="edge">
<title>Node3&#45;&gt;Node4</title>
<path fill="none" stroke="#63b8ff" d="M917.17,-65.87C917.17,-59.4 917.17,-50.2 917.17,-41.45"/>
<polygon fill="#63b8ff" stroke="#63b8ff" points="920.67,-41.63 917.17,-31.63 913.67,-41.63 920.67,-41.63"/>
</g>
<!-- Node7 -->
<g id="node7" class="node">
<title>Node7</title>
<g id="a_node7"><a xlink:href="OSTime_8h.html" target="_top" xlink:title=" ">
<polygon fill="white" stroke="#666666" points="138.67,-200.5 31.67,-200.5 31.67,-181.5 138.67,-181.5 138.67,-200.5"/>
<text text-anchor="middle" x="85.17" y="-188.5" font-family="Helvetica,sans-Serif" font-size="10.00">dolphin/os/OSTime.h</text>
</a>
</g>
</g>
<!-- Node6&#45;&gt;Node7 -->
<g id="edge6" class="edge">
<title>Node6&#45;&gt;Node7</title>
<path fill="none" stroke="#63b8ff" d="M145.55,-296.75C135.3,-288.5 120.56,-275.3 111.17,-261 101.16,-245.77 94.25,-226.15 90.08,-211.73"/>
<polygon fill="#63b8ff" stroke="#63b8ff" points="93.46,-210.85 87.5,-202.09 86.7,-212.66 93.46,-210.85"/>
</g>
<!-- Node7&#45;&gt;Node3 -->
<g id="edge7" class="edge">
<title>Node7&#45;&gt;Node3</title>
<path fill="none" stroke="#63b8ff" d="M107.53,-181.08C146.8,-165.86 231.04,-135.12 305.17,-121 509.67,-82.04 758.59,-76.63 864.93,-76.25"/>
<polygon fill="#63b8ff" stroke="#63b8ff" points="864.78,-79.75 874.77,-76.23 864.76,-72.75 864.78,-79.75"/>
</g>
<!-- Node8&#45;&gt;Node7 -->
<g id="edge54" class="edge">
<title>Node8&#45;&gt;Node7</title>
<path fill="none" stroke="#63b8ff" d="M820.92,-304.76C674.87,-301.99 205.66,-290.85 145.17,-261 122.98,-250.05 105.57,-226.86 95.34,-210.39"/>
<polygon fill="#63b8ff" stroke="#63b8ff" points="98.52,-208.89 90.45,-202.04 92.48,-212.43 98.52,-208.89"/>
</g>
<!-- Node9 -->
<g id="node9" class="node">
<title>Node9</title>
<g id="a_node9"><a xlink:href="____va__arg_8h.html" target="_top" xlink:title=" ">
<polygon fill="white" stroke="#666666" points="1866.17,-206 1756.17,-206 1756.17,-176 1866.17,-176 1866.17,-206"/>
<text text-anchor="start" x="1764.17" y="-194" font-family="Helvetica,sans-Serif" font-size="10.00">Runtime.PPCEABI.H/</text>
<text text-anchor="middle" x="1811.17" y="-183" font-family="Helvetica,sans-Serif" font-size="10.00">__va_arg.h</text>
</a>
</g>
</g>
<!-- Node8&#45;&gt;Node9 -->
<g id="edge9" class="edge">
<title>Node8&#45;&gt;Node9</title>
<path fill="none" stroke="#63b8ff" d="M907.4,-304.75C1085.09,-301.52 1751.55,-287.63 1787.17,-261 1800.63,-250.93 1806.59,-232.79 1809.2,-217.63"/>
<polygon fill="#63b8ff" stroke="#63b8ff" points="1812.65,-218.2 1810.46,-207.83 1805.71,-217.3 1812.65,-218.2"/>
</g>
<!-- Node10 -->
<g id="node10" class="node">
<title>Node10</title>
<g id="a_node10"><a xlink:href="dvd_8h.html" target="_top" xlink:title=" ">
<polygon fill="white" stroke="#666666" points="1932.17,-140 1840.17,-140 1840.17,-121 1932.17,-121 1932.17,-140"/>
<text text-anchor="middle" x="1886.17" y="-128" font-family="Helvetica,sans-Serif" font-size="10.00">dolphin/dvd/dvd.h</text>
</a>
</g>
</g>
<!-- Node8&#45;&gt;Node10 -->
<g id="edge11" class="edge">
<title>Node8&#45;&gt;Node10</title>
<path fill="none" stroke="#63b8ff" d="M907.58,-305.08C1081.77,-303.16 1724.59,-293.89 1809.17,-261 1844.75,-247.16 1856.48,-239.3 1875.17,-206 1884.56,-189.27 1886.79,-167.23 1886.99,-151.48"/>
<polygon fill="#63b8ff" stroke="#63b8ff" points="1890.5,-151.86 1886.84,-141.92 1883.5,-151.98 1890.5,-151.86"/>
</g>
<!-- Node11 -->
<g id="node11" class="node">
<title>Node11</title>
<g id="a_node11"><a xlink:href="OSAlarm_8h.html" target="_top" xlink:title=" ">
<polygon fill="white" stroke="#666666" points="265.67,-261 154.67,-261 154.67,-242 265.67,-242 265.67,-261"/>
<text text-anchor="middle" x="210.17" y="-249" font-family="Helvetica,sans-Serif" font-size="10.00">dolphin/os/OSAlarm.h</text>
</a>
</g>
</g>
<!-- Node8&#45;&gt;Node11 -->
<g id="edge13" class="edge">
<title>Node8&#45;&gt;Node11</title>
<path fill="none" stroke="#63b8ff" d="M820.75,-301.98C709.03,-292.93 411.04,-268.78 277.06,-257.92"/>
<polygon fill="#63b8ff" stroke="#63b8ff" points="277.53,-254.45 267.28,-257.13 276.96,-261.42 277.53,-254.45"/>
</g>
<!-- Node12 -->
<g id="node12" class="node">
<title>Node12</title>
<g id="a_node12"><a xlink:href="OSError_8h.html" target="_top" xlink:title=" ">
<polygon fill="white" stroke="#666666" points="263.17,-200.5 157.17,-200.5 157.17,-181.5 263.17,-181.5 263.17,-200.5"/>
<text text-anchor="middle" x="210.17" y="-188.5" font-family="Helvetica,sans-Serif" font-size="10.00">dolphin/os/OSError.h</text>
</a>
</g>
</g>
<!-- Node8&#45;&gt;Node12 -->
<g id="edge27" class="edge">
<title>Node8&#45;&gt;Node12</title>
<path fill="none" stroke="#63b8ff" d="M820.94,-303.57C744.09,-299.56 578.89,-288.3 442.17,-261 371.13,-246.82 290.56,-220.45 245.51,-204.73"/>
<polygon fill="#63b8ff" stroke="#63b8ff" points="246.87,-201.5 236.28,-201.48 244.55,-208.11 246.87,-201.5"/>
</g>
<!-- Node13 -->
<g id="node13" class="node">
<title>Node13</title>
<g id="a_node13"><a xlink:href="OSAlloc_8h.html" target="_top" xlink:title=" ">
<polygon fill="white" stroke="#666666" points="388.67,-200.5 281.67,-200.5 281.67,-181.5 388.67,-181.5 388.67,-200.5"/>
<text text-anchor="middle" x="335.17" y="-188.5" font-family="Helvetica,sans-Serif" font-size="10.00">dolphin/os/OSAlloc.h</text>
</a>
</g>
</g>
<!-- Node8&#45;&gt;Node13 -->
<g id="edge17" class="edge">
<title>Node8&#45;&gt;Node13</title>
<path fill="none" stroke="#63b8ff" d="M820.83,-303.94C752.18,-300.62 614.69,-290.58 502.17,-261 450.92,-247.53 394.6,-221.8 362.21,-205.85"/>
<polygon fill="#63b8ff" stroke="#63b8ff" points="364.05,-202.85 353.54,-201.52 360.92,-209.12 364.05,-202.85"/>
</g>
<!-- Node14 -->
<g id="node14" class="node">
<title>Node14</title>
<g id="a_node14"><a xlink:href="OSArena_8h.html" target="_top" xlink:title=" ">
<polygon fill="white" stroke="#666666" points="517.67,-200.5 406.67,-200.5 406.67,-181.5 517.67,-181.5 517.67,-200.5"/>
<text text-anchor="middle" x="462.17" y="-188.5" font-family="Helvetica,sans-Serif" font-size="10.00">dolphin/os/OSArena.h</text>
</a>
</g>
</g>
<!-- Node8&#45;&gt;Node14 -->
<g id="edge19" class="edge">
<title>Node8&#45;&gt;Node14</title>
<path fill="none" stroke="#63b8ff" d="M820.78,-303.1C742.72,-298.22 582.1,-285.47 532.17,-261 508.06,-249.18 487.14,-225.83 474.6,-209.58"/>
<polygon fill="#63b8ff" stroke="#63b8ff" points="477.58,-207.72 468.82,-201.77 471.95,-211.89 477.58,-207.72"/>
</g>
<!-- Node15 -->
<g id="node15" class="node">
<title>Node15</title>
<g id="a_node15"><a xlink:href="OSAudioSystem_8h.html" target="_top" xlink:title=" ">
<polygon fill="white" stroke="#666666" points="544.67,-140 401.67,-140 401.67,-121 544.67,-121 544.67,-140"/>
<text text-anchor="middle" x="473.17" y="-128" font-family="Helvetica,sans-Serif" font-size="10.00">dolphin/os/OSAudioSystem.h</text>
</a>
</g>
</g>
<!-- Node8&#45;&gt;Node15 -->
<g id="edge21" class="edge">
<title>Node8&#45;&gt;Node15</title>
<path fill="none" stroke="#63b8ff" d="M821.08,-305.35C769.26,-303.52 680.91,-295.08 614.17,-261 565.74,-236.27 566.57,-212.39 526.17,-176 515.48,-166.37 503.19,-156.02 493.14,-147.72"/>
<polygon fill="#63b8ff" stroke="#63b8ff" points="495.44,-145.08 485.49,-141.44 491,-150.49 495.44,-145.08"/>
</g>
<!-- Node16 -->
<g id="node16" class="node">
<title>Node16</title>
<g id="a_node16"><a xlink:href="OSCache_8h.html" target="_top" xlink:title=" ">
<polygon fill="white" stroke="#666666" points="675.67,-140 562.67,-140 562.67,-121 675.67,-121 675.67,-140"/>
<text text-anchor="middle" x="619.17" y="-128" font-family="Helvetica,sans-Serif" font-size="10.00">dolphin/os/OSCache.h</text>
</a>
</g>
</g>
<!-- Node8&#45;&gt;Node16 -->
<g id="edge23" class="edge">
<title>Node8&#45;&gt;Node16</title>
<path fill="none" stroke="#63b8ff" d="M820.67,-303.41C759.85,-299.5 654.06,-288.8 629.17,-261 602.29,-230.99 608.05,-179.8 613.99,-151.61"/>
<polygon fill="#63b8ff" stroke="#63b8ff" points="617.39,-152.44 616.27,-141.9 610.58,-150.84 617.39,-152.44"/>
</g>
<!-- Node17 -->
<g id="node17" class="node">
<title>Node17</title>
<g id="a_node17"><a xlink:href="OSContext_8h.html" target="_top" xlink:title=" ">
<polygon fill="white" stroke="#666666" points="976.67,-140 857.67,-140 857.67,-121 976.67,-121 976.67,-140"/>
<text text-anchor="middle" x="917.17" y="-128" font-family="Helvetica,sans-Serif" font-size="10.00">dolphin/os/OSContext.h</text>
</a>
</g>
</g>
<!-- Node8&#45;&gt;Node17 -->
<g id="edge25" class="edge">
<title>Node8&#45;&gt;Node17</title>
<path fill="none" stroke="#63b8ff" d="M855.95,-296.8C848.62,-288.38 838.41,-274.9 834.17,-261 826.92,-237.29 835.7,-190.1 845.17,-176 854.17,-162.58 868.73,-152.48 882.4,-145.32"/>
<polygon fill="#63b8ff" stroke="#63b8ff" points="883.73,-148.57 891.22,-141.07 880.69,-142.26 883.73,-148.57"/>
</g>
<!-- Node18 -->
<g id="node18" class="node">
<title>Node18</title>
<g id="a_node18"><a xlink:href="OSExec_8h.html" target="_top" xlink:title=" ">
<polygon fill="white" stroke="#666666" points="800.67,-140 693.67,-140 693.67,-121 800.67,-121 800.67,-140"/>
<text text-anchor="middle" x="747.17" y="-128" font-family="Helvetica,sans-Serif" font-size="10.00">dolphin/os/OSExec.h</text>
</a>
</g>
</g>
<!-- Node8&#45;&gt;Node18 -->
<g id="edge28" class="edge">
<title>Node8&#45;&gt;Node18</title>
<path fill="none" stroke="#63b8ff" d="M820.88,-303.19C762.55,-299.07 663.45,-288.17 641.17,-261 606.94,-219.27 678.19,-169.92 719.87,-145.97"/>
<polygon fill="#63b8ff" stroke="#63b8ff" points="721.41,-149.13 728.43,-141.19 717.99,-143.02 721.41,-149.13"/>
</g>
<!-- Node19 -->
<g id="node19" class="node">
<title>Node19</title>
<g id="a_node19"><a xlink:href="OSFont_8h.html" target="_top" xlink:title=" ">
<polygon fill="white" stroke="#666666" points="755.67,-261 650.67,-261 650.67,-242 755.67,-242 755.67,-261"/>
<text text-anchor="middle" x="703.17" y="-249" font-family="Helvetica,sans-Serif" font-size="10.00">dolphin/os/OSFont.h</text>
</a>
</g>
</g>
<!-- Node8&#45;&gt;Node19 -->
<g id="edge30" class="edge">
<title>Node8&#45;&gt;Node19</title>
<path fill="none" stroke="#63b8ff" d="M836.85,-296.51C810.52,-287.84 770.45,-274.65 741.04,-264.97"/>
<polygon fill="#63b8ff" stroke="#63b8ff" points="742.37,-261.72 731.78,-261.92 740.18,-268.37 742.37,-261.72"/>
</g>
<!-- Node20 -->
<g id="node20" class="node">
<title>Node20</title>
<g id="a_node20"><a xlink:href="OSInterrupt_8h.html" target="_top" xlink:title=" ">
<polygon fill="white" stroke="#666666" points="1245.17,-200.5 1123.17,-200.5 1123.17,-181.5 1245.17,-181.5 1245.17,-200.5"/>
<text text-anchor="middle" x="1184.17" y="-188.5" font-family="Helvetica,sans-Serif" font-size="10.00">dolphin/os/OSInterrupt.h</text>
</a>
</g>
</g>
<!-- Node8&#45;&gt;Node20 -->
<g id="edge32" class="edge">
<title>Node8&#45;&gt;Node20</title>
<path fill="none" stroke="#63b8ff" d="M907.53,-303.73C1004.15,-299.35 1230.45,-286.46 1253.17,-261 1270.99,-241.02 1240.52,-219.42 1214.58,-205.81"/>
<polygon fill="#63b8ff" stroke="#63b8ff" points="1216.48,-202.84 1205.97,-201.51 1213.35,-209.11 1216.48,-202.84"/>
</g>
<!-- Node21 -->
<g id="node21" class="node">
<title>Node21</title>
<g id="a_node21"><a xlink:href="OSLink_8h.html" target="_top" xlink:title=" ">
<polygon fill="white" stroke="#666666" points="1404.17,-261 1300.17,-261 1300.17,-242 1404.17,-242 1404.17,-261"/>
<text text-anchor="middle" x="1352.17" y="-249" font-family="Helvetica,sans-Serif" font-size="10.00">dolphin/os/OSLink.h</text>
</a>
</g>
</g>
<!-- Node8&#45;&gt;Node21 -->
<g id="edge34" class="edge">
<title>Node8&#45;&gt;Node21</title>
<path fill="none" stroke="#63b8ff" d="M907.64,-301.25C984.2,-293.69 1148.06,-277.17 1286.17,-261 1287,-260.9 1287.85,-260.8 1288.7,-260.7"/>
<polygon fill="#63b8ff" stroke="#63b8ff" points="1288.93,-264.2 1298.44,-259.52 1288.09,-257.25 1288.93,-264.2"/>
</g>
<!-- Node22 -->
<g id="node22" class="node">
<title>Node22</title>
<g id="a_node22"><a xlink:href="OSMemory_8h.html" target="_top" xlink:title=" ">
<polygon fill="white" stroke="#666666" points="1244.17,-261 1124.17,-261 1124.17,-242 1244.17,-242 1244.17,-261"/>
<text text-anchor="middle" x="1184.17" y="-249" font-family="Helvetica,sans-Serif" font-size="10.00">dolphin/os/OSMemory.h</text>
</a>
</g>
</g>
<!-- Node8&#45;&gt;Node22 -->
<g id="edge36" class="edge">
<title>Node8&#45;&gt;Node22</title>
<path fill="none" stroke="#63b8ff" d="M907.66,-298.3C962.14,-289.27 1056.01,-273.73 1119.07,-263.28"/>
<polygon fill="#63b8ff" stroke="#63b8ff" points="1119.29,-266.79 1128.59,-261.71 1118.15,-259.89 1119.29,-266.79"/>
</g>
<!-- Node23 -->
<g id="node23" class="node">
<title>Node23</title>
<g id="a_node23"><a xlink:href="OSMessage_8h.html" target="_top" xlink:title=" ">
<polygon fill="white" stroke="#666666" points="1105.67,-261 980.67,-261 980.67,-242 1105.67,-242 1105.67,-261"/>
<text text-anchor="middle" x="1043.17" y="-249" font-family="Helvetica,sans-Serif" font-size="10.00">dolphin/os/OSMessage.h</text>
</a>
</g>
</g>
<!-- Node8&#45;&gt;Node23 -->
<g id="edge38" class="edge">
<title>Node8&#45;&gt;Node23</title>
<path fill="none" stroke="#63b8ff" d="M894.53,-296.51C924.06,-287.76 969.15,-274.42 1001.92,-264.71"/>
<polygon fill="#63b8ff" stroke="#63b8ff" points="1002.9,-268.07 1011.5,-261.88 1000.92,-261.36 1002.9,-268.07"/>
</g>
<!-- Node24 -->
<g id="node24" class="node">
<title>Node24</title>
<g id="a_node24"><a xlink:href="OSThread_8h.html" target="_top" xlink:title=" ">
<polygon fill="white" stroke="#666666" points="970.17,-200.5 854.17,-200.5 854.17,-181.5 970.17,-181.5 970.17,-200.5"/>
<text text-anchor="middle" x="912.17" y="-188.5" font-family="Helvetica,sans-Serif" font-size="10.00">dolphin/os/OSThread.h</text>
</a>
</g>
</g>
<!-- Node8&#45;&gt;Node24 -->
<g id="edge53" class="edge">
<title>Node8&#45;&gt;Node24</title>
<path fill="none" stroke="#63b8ff" d="M856.38,-296.57C846.43,-283.99 831.55,-260.53 841.17,-242 849.4,-226.13 865.25,-214.23 879.89,-206.03"/>
<polygon fill="#63b8ff" stroke="#63b8ff" points="881.1,-209.34 888.38,-201.64 877.89,-203.12 881.1,-209.34"/>
</g>
<!-- Node25 -->
<g id="node25" class="node">
<title>Node25</title>
<g id="a_node25"><a xlink:href="OSMutex_8h.html" target="_top" xlink:title=" ">
<polygon fill="white" stroke="#666666" points="962.17,-261 850.17,-261 850.17,-242 962.17,-242 962.17,-261"/>
<text text-anchor="middle" x="906.17" y="-249" font-family="Helvetica,sans-Serif" font-size="10.00">dolphin/os/OSMutex.h</text>
</a>
</g>
</g>
<!-- Node8&#45;&gt;Node25 -->
<g id="edge41" class="edge">
<title>Node8&#45;&gt;Node25</title>
<path fill="none" stroke="#63b8ff" d="M871.1,-296.75C876.78,-289.58 885,-279.2 892.06,-270.3"/>
<polygon fill="#63b8ff" stroke="#63b8ff" points="894.67,-272.64 898.14,-262.63 889.19,-268.29 894.67,-272.64"/>
</g>
<!-- Node26 -->
<g id="node26" class="node">
<title>Node26</title>
<g id="a_node26"><a xlink:href="OSReboot_8h.html" target="_top" xlink:title=" ">
<polygon fill="white" stroke="#666666" points="1430.17,-140 1314.17,-140 1314.17,-121 1430.17,-121 1430.17,-140"/>
<text text-anchor="middle" x="1372.17" y="-128" font-family="Helvetica,sans-Serif" font-size="10.00">dolphin/os/OSReboot.h</text>
</a>
</g>
</g>
<!-- Node8&#45;&gt;Node26 -->
<g id="edge43" class="edge">
<title>Node8&#45;&gt;Node26</title>
<path fill="none" stroke="#63b8ff" d="M907.23,-305.28C1030.68,-304.22 1379.09,-297.95 1413.17,-261 1428.25,-244.64 1398.81,-182.01 1382.29,-150.23"/>
<polygon fill="#63b8ff" stroke="#63b8ff" points="1385.57,-148.94 1377.79,-141.74 1379.38,-152.21 1385.57,-148.94"/>
</g>
<!-- Node27 -->
<g id="node27" class="node">
<title>Node27</title>
<g id="a_node27"><a xlink:href="OSReset_8h.html" target="_top" xlink:title=" ">
<polygon fill="white" stroke="#666666" points="1533.67,-200.5 1422.67,-200.5 1422.67,-181.5 1533.67,-181.5 1533.67,-200.5"/>
<text text-anchor="middle" x="1478.17" y="-188.5" font-family="Helvetica,sans-Serif" font-size="10.00">dolphin/os/OSReset.h</text>
</a>
</g>
</g>
<!-- Node8&#45;&gt;Node27 -->
<g id="edge45" class="edge">
<title>Node8&#45;&gt;Node27</title>
<path fill="none" stroke="#63b8ff" d="M907.27,-304.69C1034.48,-301.97 1402.19,-291.5 1446.17,-261 1462.59,-249.61 1470.78,-227.55 1474.73,-211.44"/>
<polygon fill="#63b8ff" stroke="#63b8ff" points="1478.08,-212.53 1476.68,-202.02 1471.23,-211.11 1478.08,-212.53"/>
</g>
<!-- Node28 -->
<g id="node28" class="node">
<title>Node28</title>
<g id="a_node28"><a xlink:href="OSResetSW_8h.html" target="_top" xlink:title=" ">
<polygon fill="white" stroke="#666666" points="1625.67,-261 1498.67,-261 1498.67,-242 1625.67,-242 1625.67,-261"/>
<text text-anchor="middle" x="1562.17" y="-249" font-family="Helvetica,sans-Serif" font-size="10.00">dolphin/os/OSResetSW.h</text>
</a>
</g>
</g>
<!-- Node8&#45;&gt;Node28 -->
<g id="edge47" class="edge">
<title>Node8&#45;&gt;Node28</title>
<path fill="none" stroke="#63b8ff" d="M907.43,-302.95C1008.48,-296.86 1267.87,-280.54 1484.17,-261 1485.17,-260.91 1486.19,-260.82 1487.21,-260.72"/>
<polygon fill="#63b8ff" stroke="#63b8ff" points="1487.21,-264.24 1496.83,-259.8 1486.54,-257.27 1487.21,-264.24"/>
</g>
<!-- Node29 -->
<g id="node29" class="node">
<title>Node29</title>
<g id="a_node29"><a xlink:href="OSRtc_8h.html" target="_top" xlink:title=" ">
<polygon fill="white" stroke="#666666" points="1744.67,-261 1643.67,-261 1643.67,-242 1744.67,-242 1744.67,-261"/>
<text text-anchor="middle" x="1694.17" y="-249" font-family="Helvetica,sans-Serif" font-size="10.00">dolphin/os/OSRtc.h</text>
</a>
</g>
</g>
<!-- Node8&#45;&gt;Node29 -->
<g id="edge49" class="edge">
<title>Node8&#45;&gt;Node29</title>
<path fill="none" stroke="#63b8ff" d="M907.26,-304.26C1022.79,-300.68 1349.25,-288.81 1632.15,-261.1"/>
<polygon fill="#63b8ff" stroke="#63b8ff" points="1632.35,-264.6 1641.96,-260.13 1631.66,-257.63 1632.35,-264.6"/>
</g>
<!-- Node30 -->
<g id="node30" class="node">
<title>Node30</title>
<g id="a_node30"><a xlink:href="OSSync_8h.html" target="_top" xlink:title=" ">
<polygon fill="white" stroke="#666666" points="1769.67,-140 1662.67,-140 1662.67,-121 1769.67,-121 1769.67,-140"/>
<text text-anchor="middle" x="1716.17" y="-128" font-family="Helvetica,sans-Serif" font-size="10.00">dolphin/os/OSSync.h</text>
</a>
</g>
</g>
<!-- Node8&#45;&gt;Node30 -->
<g id="edge51" class="edge">
<title>Node8&#45;&gt;Node30</title>
<path fill="none" stroke="#63b8ff" d="M907.53,-304.97C1081.86,-302.63 1723.73,-291.95 1753.17,-261 1758.99,-254.88 1754.52,-250.33 1753.17,-242 1747.78,-208.98 1733.91,-172.51 1724.77,-150.82"/>
<polygon fill="#63b8ff" stroke="#63b8ff" points="1728.05,-149.59 1720.86,-141.8 1721.63,-152.37 1728.05,-149.59"/>
</g>
<!-- Node9&#45;&gt;Node3 -->
<g id="edge10" class="edge">
<title>Node9&#45;&gt;Node3</title>
<path fill="none" stroke="#63b8ff" d="M1808.73,-175.53C1805.14,-159.23 1796.73,-133.38 1778.17,-121 1710.99,-76.2 1145.36,-75.31 969.28,-76.13"/>
<polygon fill="#63b8ff" stroke="#63b8ff" points="969.5,-72.63 959.52,-76.18 969.54,-79.63 969.5,-72.63"/>
</g>
<!-- Node10&#45;&gt;Node3 -->
<g id="edge12" class="edge">
<title>Node10&#45;&gt;Node3</title>
<path fill="none" stroke="#63b8ff" d="M1839.76,-123.23C1832.54,-122.39 1825.16,-121.61 1818.17,-121 1496.38,-92.98 1108.3,-81.23 969.59,-77.71"/>
<polygon fill="#63b8ff" stroke="#63b8ff" points="969.7,-74.22 959.61,-77.47 969.52,-81.21 969.7,-74.22"/>
</g>
<!-- Node11&#45;&gt;Node7 -->
<g id="edge16" class="edge">
<title>Node11&#45;&gt;Node7</title>
<path fill="none" stroke="#63b8ff" d="M191.18,-241.62C170.81,-232.08 138.19,-216.81 114.5,-205.73"/>
<polygon fill="#63b8ff" stroke="#63b8ff" points="116.24,-202.68 105.7,-201.61 113.27,-209.02 116.24,-202.68"/>
</g>
<!-- Node11&#45;&gt;Node12 -->
<g id="edge14" class="edge">
<title>Node11&#45;&gt;Node12</title>
<path fill="none" stroke="#63b8ff" d="M210.17,-241.87C210.17,-234 210.17,-222.1 210.17,-211.89"/>
<polygon fill="#63b8ff" stroke="#63b8ff" points="213.67,-212.18 210.17,-202.18 206.67,-212.18 213.67,-212.18"/>
</g>
<!-- Node12&#45;&gt;Node3 -->
<g id="edge15" class="edge">
<title>Node12&#45;&gt;Node3</title>
<path fill="none" stroke="#63b8ff" d="M224.73,-181.11C250.67,-165.77 307.05,-134.68 359.17,-121 453.89,-96.14 745.31,-82.84 865.01,-78.31"/>
<polygon fill="#63b8ff" stroke="#63b8ff" points="865.01,-81.81 874.87,-77.94 864.75,-74.82 865.01,-81.81"/>
</g>
<!-- Node13&#45;&gt;Node3 -->
<g id="edge18" class="edge">
<title>Node13&#45;&gt;Node3</title>
<path fill="none" stroke="#63b8ff" d="M338.3,-181.37C344.34,-166.15 359.15,-134.85 383.17,-121 424.29,-97.28 739.35,-83.1 865.34,-78.32"/>
<polygon fill="#63b8ff" stroke="#63b8ff" points="865.2,-81.83 875.06,-77.96 864.94,-74.83 865.2,-81.83"/>
</g>
<!-- Node14&#45;&gt;Node3 -->
<g id="edge20" class="edge">
<title>Node14&#45;&gt;Node3</title>
<path fill="none" stroke="#63b8ff" d="M441.37,-181.13C413.96,-168.27 371.5,-143.49 392.17,-121 423.75,-86.63 738.76,-78.78 865.13,-77.01"/>
<polygon fill="#63b8ff" stroke="#63b8ff" points="864.93,-80.51 874.88,-76.88 864.84,-73.51 864.93,-80.51"/>
</g>
<!-- Node15&#45;&gt;Node3 -->
<g id="edge22" class="edge">
<title>Node15&#45;&gt;Node3</title>
<path fill="none" stroke="#63b8ff" d="M545,-120.93C634.71,-110.22 786.01,-92.16 865.24,-82.7"/>
<polygon fill="#63b8ff" stroke="#63b8ff" points="865.37,-86.21 874.89,-81.55 864.54,-79.26 865.37,-86.21"/>
</g>
<!-- Node16&#45;&gt;Node3 -->
<g id="edge24" class="edge">
<title>Node16&#45;&gt;Node3</title>
<path fill="none" stroke="#63b8ff" d="M669.72,-120.51C724.13,-110.83 810.26,-95.51 865.21,-85.74"/>
<polygon fill="#63b8ff" stroke="#63b8ff" points="865.72,-89.21 874.95,-84.01 864.49,-82.31 865.72,-89.21"/>
</g>
<!-- Node17&#45;&gt;Node3 -->
<g id="edge26" class="edge">
<title>Node17&#45;&gt;Node3</title>
<path fill="none" stroke="#63b8ff" d="M917.17,-120.75C917.17,-114.27 917.17,-105.16 917.17,-96.9"/>
<polygon fill="#63b8ff" stroke="#63b8ff" points="920.67,-96.96 917.17,-86.96 913.67,-96.96 920.67,-96.96"/>
</g>
<!-- Node18&#45;&gt;Node3 -->
<g id="edge29" class="edge">
<title>Node18&#45;&gt;Node3</title>
<path fill="none" stroke="#63b8ff" d="M776,-120.51C803.93,-111.8 846.5,-98.53 877.58,-88.84"/>
<polygon fill="#63b8ff" stroke="#63b8ff" points="878.52,-92.21 887.03,-85.9 876.44,-85.53 878.52,-92.21"/>
</g>
<!-- Node19&#45;&gt;Node3 -->
<g id="edge31" class="edge">
<title>Node19&#45;&gt;Node3</title>
<path fill="none" stroke="#63b8ff" d="M711.9,-241.81C733.84,-220.18 793.39,-162.72 848.17,-121 862.26,-110.26 878.94,-99.46 892.37,-91.19"/>
<polygon fill="#63b8ff" stroke="#63b8ff" points="893.88,-94.36 900.61,-86.18 890.24,-88.38 893.88,-94.36"/>
</g>
<!-- Node20&#45;&gt;Node3 -->
<g id="edge33" class="edge">
<title>Node20&#45;&gt;Node3</title>
<path fill="none" stroke="#63b8ff" d="M1163.21,-181.09C1116.52,-161.24 1003.69,-113.28 948.55,-89.84"/>
<polygon fill="#63b8ff" stroke="#63b8ff" points="949.98,-86.65 939.41,-85.96 947.25,-93.09 949.98,-86.65"/>
</g>
<!-- Node21&#45;&gt;Node3 -->
<g id="edge35" class="edge">
<title>Node21&#45;&gt;Node3</title>
<path fill="none" stroke="#63b8ff" d="M1342.95,-241.61C1326.45,-226.16 1290.21,-194.24 1254.17,-176 1159.36,-128.02 1037.57,-99.27 969.39,-85.79"/>
<polygon fill="#63b8ff" stroke="#63b8ff" points="970.08,-82.36 959.6,-83.89 968.75,-89.23 970.08,-82.36"/>
</g>
<!-- Node22&#45;&gt;Node20 -->
<g id="edge37" class="edge">
<title>Node22&#45;&gt;Node20</title>
<path fill="none" stroke="#63b8ff" d="M1184.17,-241.87C1184.17,-234 1184.17,-222.1 1184.17,-211.89"/>
<polygon fill="#63b8ff" stroke="#63b8ff" points="1187.67,-212.18 1184.17,-202.18 1180.67,-212.18 1187.67,-212.18"/>
</g>
<!-- Node23&#45;&gt;Node24 -->
<g id="edge39" class="edge">
<title>Node23&#45;&gt;Node24</title>
<path fill="none" stroke="#63b8ff" d="M1023.27,-241.62C1001.82,-232.04 967.42,-216.68 942.58,-205.58"/>
<polygon fill="#63b8ff" stroke="#63b8ff" points="944.19,-202.47 933.63,-201.59 941.33,-208.86 944.19,-202.47"/>
</g>
<!-- Node24&#45;&gt;Node17 -->
<g id="edge40" class="edge">
<title>Node24&#45;&gt;Node17</title>
<path fill="none" stroke="#63b8ff" d="M912.9,-181.37C913.58,-173.5 914.59,-161.6 915.47,-151.39"/>
<polygon fill="#63b8ff" stroke="#63b8ff" points="918.93,-151.94 916.3,-141.68 911.96,-151.34 918.93,-151.94"/>
</g>
<!-- Node25&#45;&gt;Node24 -->
<g id="edge42" class="edge">
<title>Node25&#45;&gt;Node24</title>
<path fill="none" stroke="#63b8ff" d="M907.05,-241.87C907.86,-234 909.08,-222.1 910.13,-211.89"/>
<polygon fill="#63b8ff" stroke="#63b8ff" points="913.58,-212.48 911.12,-202.17 906.62,-211.76 913.58,-212.48"/>
</g>
<!-- Node26&#45;&gt;Node3 -->
<g id="edge44" class="edge">
<title>Node26&#45;&gt;Node3</title>
<path fill="none" stroke="#63b8ff" d="M1314.08,-122.73C1224.75,-112.33 1055.03,-92.56 969.38,-82.58"/>
<polygon fill="#63b8ff" stroke="#63b8ff" points="969.96,-79.13 959.62,-81.45 969.15,-86.08 969.96,-79.13"/>
</g>
<!-- Node27&#45;&gt;Node3 -->
<g id="edge46" class="edge">
<title>Node27&#45;&gt;Node3</title>
<path fill="none" stroke="#63b8ff" d="M1476.11,-181.42C1471.99,-166.29 1461.17,-135.12 1439.17,-121 1400.24,-96.01 1093.53,-82.64 969.22,-78.2"/>
<polygon fill="#63b8ff" stroke="#63b8ff" points="969.41,-74.7 959.29,-77.85 969.16,-81.7 969.41,-74.7"/>
</g>
<!-- Node28&#45;&gt;Node3 -->
<g id="edge48" class="edge">
<title>Node28&#45;&gt;Node3</title>
<path fill="none" stroke="#63b8ff" d="M1561.76,-241.87C1560.67,-227.1 1556.7,-196.56 1542.17,-176 1517.26,-140.77 1502.82,-135.47 1462.17,-121 1372.25,-89.01 1087.41,-79.82 969.28,-77.35"/>
<polygon fill="#63b8ff" stroke="#63b8ff" points="969.63,-73.85 959.56,-77.15 969.49,-80.85 969.63,-73.85"/>
</g>
<!-- Node29&#45;&gt;Node3 -->
<g id="edge50" class="edge">
<title>Node29&#45;&gt;Node3</title>
<path fill="none" stroke="#63b8ff" d="M1684.93,-241.8C1658.41,-217.46 1578.8,-148.63 1498.17,-121 1401.05,-87.72 1092.76,-79.24 969.16,-77.15"/>
<polygon fill="#63b8ff" stroke="#63b8ff" points="969.35,-73.66 959.3,-77 969.24,-80.66 969.35,-73.66"/>
</g>
<!-- Node30&#45;&gt;Node3 -->
<g id="edge52" class="edge">
<title>Node30&#45;&gt;Node3</title>
<path fill="none" stroke="#63b8ff" d="M1662.23,-123.37C1653.84,-122.51 1645.28,-121.69 1637.17,-121 1387.17,-99.84 1087.53,-84.55 969.04,-78.9"/>
<polygon fill="#63b8ff" stroke="#63b8ff" points="969.48,-75.41 959.32,-78.43 969.15,-82.4 969.48,-75.41"/>
</g>
</g>
</svg>
        <g id="navigator" transform="translate(0 0)" fill="#404254">
                <rect fill="#f2f5e9" fill-opacity="0.5" stroke="#606060" stroke-width=".5" x="0" y="0" width="60" height="60"/>
                <use id="zoomplus" xlink:href="#zoomPlus" x="17" y="9" onmousedown="handleZoom(evt,'in')"/>
                <use id="zoomminus" xlink:href="#zoomMin" x="42" y="9" onmousedown="handleZoom(evt,'out')"/>
                <use id="reset" xlink:href="#resetDef" x="30" y="36" onmousedown="handleReset()"/>
                <g id="arrowUp" xlink:href="#dirArrow" transform="translate(30 24)" onmousedown="handlePan(0,-1)">
                  <use xlink:href="#rim" fill="#404040">
                        <set attributeName="fill" to="#808080" begin="arrowUp.mouseover" end="arrowUp.mouseout"/>
                  </use>
                  <path fill="none" stroke="white" stroke-width="1.5" d="M0,-3.0v7 M-2.5,-0.5L0,-3.0L2.5,-0.5"/>
                </g>
                <g id="arrowRight" xlink:href="#dirArrow" transform="rotate(90) translate(36 -43)" onmousedown="handlePan(1,0)">
                  <use xlink:href="#rim" fill="#404040">
                        <set attributeName="fill" to="#808080" begin="arrowRight.mouseover" end="arrowRight.mouseout"/>
                  </use>
                  <path fill="none" stroke="white" stroke-width="1.5" d="M0,-3.0v7 M-2.5,-0.5L0,-3.0L2.5,-0.5"/>
                </g>
                <g id="arrowDown" xlink:href="#dirArrow" transform="rotate(180) translate(-30 -48)" onmousedown="handlePan(0,1)">
                  <use xlink:href="#rim" fill="#404040">
                        <set attributeName="fill" to="#808080" begin="arrowDown.mouseover" end="arrowDown.mouseout"/>
                  </use>
                  <path fill="none" stroke="white" stroke-width="1.5" d="M0,-3.0v7 M-2.5,-0.5L0,-3.0L2.5,-0.5"/>
                </g>
                <g id="arrowLeft" xlink:href="#dirArrow" transform="rotate(270) translate(-36 17)" onmousedown="handlePan(-1,0)">
                  <use xlink:href="#rim" fill="#404040">
                        <set attributeName="fill" to="#808080" begin="arrowLeft.mouseover" end="arrowLeft.mouseout"/>
                  </use>
                  <path fill="none" stroke="white" stroke-width="1.5" d="M0,-3.0v7 M-2.5,-0.5L0,-3.0L2.5,-0.5"/>
                </g>
        </g>
        <svg viewBox="0 0 15 15" width="100%" height="30px" preserveAspectRatio="xMaxYMin meet">
         <g id="arrow_out" transform="scale(0.3 0.3)">
          <a xlink:href="ai_8c__incl_org.svg" target="_base">
           <rect id="button" ry="5" rx="5" y="6" x="6" height="38" width="38"
                fill="#f2f5e9" fill-opacity="0.5" stroke="#606060" stroke-width="1.0"/>
           <path id="arrow"
             d="M 11.500037,31.436501 C 11.940474,20.09759 22.043105,11.32322 32.158766,21.979434 L 37.068811,17.246167 C 37.068811,17.246167 37.088388,32 37.088388,32 L 22.160133,31.978069 C 22.160133,31.978069 26.997745,27.140456 26.997745,27.140456 C 18.528582,18.264221 13.291696,25.230495 11.500037,31.436501 z"
             style="fill:#404040;"/>
          </a>
         </g>
        </svg>
</svg>
