<?xml version="1.0" encoding="UTF-8" standalone="no"?>
<!DOCTYPE svg PUBLIC "-//W3C//DTD SVG 1.1//EN"
 "http://www.w3.org/Graphics/SVG/1.1/DTD/svg11.dtd">
<!-- Generated by graphviz version 7.0.5 (20221223.1930)
 -->
<!-- Title: libs/dolphin/ai/ai.c Pages: 1 -->
<svg width="1814pt" height="445pt"
 viewBox="0.00 0.00 1813.95 445.00" xmlns="http://www.w3.org/2000/svg" xmlns:xlink="http://www.w3.org/1999/xlink">
<g id="graph0" class="graph" transform="scale(1 1) rotate(0) translate(4 441)">
<title>libs/dolphin/ai/ai.c</title>
<!-- Node1 -->
<g id="node1" class="node">
<title>Node1</title>
<g id="a_node1"><a xlink:title=" ">
<polygon fill="#999999" stroke="#666666" points="889.95,-437 795.95,-437 795.95,-418 889.95,-418 889.95,-437"/>
<text text-anchor="middle" x="842.95" y="-425" font-family="Helvetica,sans-Serif" font-size="10.00">libs/dolphin/ai/ai.c</text>
</a>
</g>
</g>
<!-- Node2 -->
<g id="node2" class="node">
<title>Node2</title>
<g id="a_node2"><a xlink:href="ai_8h.html" target="_top" xlink:title=" ">
<polygon fill="white" stroke="#666666" points="219.95,-316 143.95,-316 143.95,-297 219.95,-297 219.95,-316"/>
<text text-anchor="middle" x="181.95" y="-304" font-family="Helvetica,sans-Serif" font-size="10.00">dolphin/ai/ai.h</text>
</a>
</g>
</g>
<!-- Node1&#45;&gt;Node2 -->
<g id="edge1" class="edge">
<title>Node1&#45;&gt;Node2</title>
<path fill="none" stroke="#63b8ff" d="M795.67,-417.99C674.73,-396.22 354.95,-338.65 231.52,-316.43"/>
<polygon fill="#63b8ff" stroke="#63b8ff" points="232.16,-312.98 221.69,-314.66 230.92,-319.87 232.16,-312.98"/>
</g>
<!-- Node5 -->
<g id="node5" class="node">
<title>Node5</title>
<g id="a_node5"><a xlink:href="dol2asm_8h.html" target="_top" xlink:title=" ">
<polygon fill="white" stroke="#666666" points="741.45,-376.5 680.45,-376.5 680.45,-357.5 741.45,-357.5 741.45,-376.5"/>
<text text-anchor="middle" x="710.95" y="-364.5" font-family="Helvetica,sans-Serif" font-size="10.00">dol2asm.h</text>
</a>
</g>
</g>
<!-- Node1&#45;&gt;Node5 -->
<g id="edge4" class="edge">
<title>Node1&#45;&gt;Node5</title>
<path fill="none" stroke="#63b8ff" d="M822.9,-417.62C801.29,-408.04 766.62,-392.68 741.59,-381.58"/>
<polygon fill="#63b8ff" stroke="#63b8ff" points="743.13,-378.43 732.57,-377.58 740.29,-384.83 743.13,-378.43"/>
</g>
<!-- Node6 -->
<g id="node6" class="node">
<title>Node6</title>
<g id="a_node6"><a xlink:href="dsp_8h.html" target="_top" xlink:title=" ">
<polygon fill="white" stroke="#666666" points="851.95,-376.5 759.95,-376.5 759.95,-357.5 851.95,-357.5 851.95,-376.5"/>
<text text-anchor="middle" x="805.95" y="-364.5" font-family="Helvetica,sans-Serif" font-size="10.00">dolphin/dsp/dsp.h</text>
</a>
</g>
</g>
<!-- Node1&#45;&gt;Node6 -->
<g id="edge5" class="edge">
<title>Node1&#45;&gt;Node6</title>
<path fill="none" stroke="#63b8ff" d="M837.49,-417.87C832.24,-409.57 824.15,-396.78 817.47,-386.22"/>
<polygon fill="#63b8ff" stroke="#63b8ff" points="820.54,-384.53 812.24,-377.95 814.62,-388.27 820.54,-384.53"/>
</g>
<!-- Node7 -->
<g id="node7" class="node">
<title>Node7</title>
<g id="a_node7"><a xlink:href="OS_8h.html" target="_top" xlink:title=" ">
<polygon fill="white" stroke="#666666" points="922.95,-316 836.95,-316 836.95,-297 922.95,-297 922.95,-316"/>
<text text-anchor="middle" x="879.95" y="-304" font-family="Helvetica,sans-Serif" font-size="10.00">dolphin/os/OS.h</text>
</a>
</g>
</g>
<!-- Node1&#45;&gt;Node7 -->
<g id="edge55" class="edge">
<title>Node1&#45;&gt;Node7</title>
<path fill="none" stroke="#63b8ff" d="M846.89,-417.76C850.8,-408.88 856.79,-394.67 860.95,-382 866.93,-363.77 872.18,-342.52 875.64,-327.39"/>
<polygon fill="#63b8ff" stroke="#63b8ff" points="879.02,-328.33 877.77,-317.8 872.19,-326.81 879.02,-328.33"/>
</g>
<!-- Node31 -->
<g id="node31" class="node">
<title>Node31</title>
<g id="a_node31"><a xlink:title=" ">
<polygon fill="#e0e0e0" stroke="#999999" points="1047.45,-382 908.45,-382 908.45,-352 1047.45,-352 1047.45,-382"/>
<text text-anchor="start" x="916.45" y="-370" font-family="Helvetica,sans-Serif" font-size="10.00">asm/dolphin/ai/ai/AIRegister</text>
<text text-anchor="middle" x="977.95" y="-359" font-family="Helvetica,sans-Serif" font-size="10.00">DMACallback.s</text>
</a>
</g>
</g>
<!-- Node1&#45;&gt;Node31 -->
<g id="edge56" class="edge">
<title>Node1&#45;&gt;Node31</title>
<path fill="none" stroke="#63b8ff" d="M863.45,-417.62C882.13,-409.52 910.34,-397.3 934.08,-387.01"/>
<polygon fill="#63b8ff" stroke="#63b8ff" points="935.45,-390.23 943.23,-383.04 932.67,-383.81 935.45,-390.23"/>
</g>
<!-- Node32 -->
<g id="node32" class="node">
<title>Node32</title>
<g id="a_node32"><a xlink:title=" ">
<polygon fill="#e0e0e0" stroke="#999999" points="1189.95,-376.5 1065.95,-376.5 1065.95,-357.5 1189.95,-357.5 1189.95,-376.5"/>
<text text-anchor="middle" x="1127.95" y="-364.5" font-family="Helvetica,sans-Serif" font-size="10.00">asm/dolphin/ai/ai/AIInit.s</text>
</a>
</g>
</g>
<!-- Node1&#45;&gt;Node32 -->
<g id="edge57" class="edge">
<title>Node1&#45;&gt;Node32</title>
<path fill="none" stroke="#63b8ff" d="M886.54,-417.55C936.62,-407.27 1018.85,-390.39 1073.2,-379.24"/>
<polygon fill="#63b8ff" stroke="#63b8ff" points="1073.78,-382.69 1082.87,-377.25 1072.37,-375.83 1073.78,-382.69"/>
</g>
<!-- Node3 -->
<g id="node3" class="node">
<title>Node3</title>
<g id="a_node3"><a xlink:href="types_8h.html" target="_top" xlink:title=" ">
<polygon fill="white" stroke="#666666" points="1087.45,-85 1006.45,-85 1006.45,-66 1087.45,-66 1087.45,-85"/>
<text text-anchor="middle" x="1046.95" y="-73" font-family="Helvetica,sans-Serif" font-size="10.00">dolphin/types.h</text>
</a>
</g>
</g>
<!-- Node2&#45;&gt;Node3 -->
<g id="edge2" class="edge">
<title>Node2&#45;&gt;Node3</title>
<path fill="none" stroke="#63b8ff" d="M143.82,-296.73C81.54,-280.57 -31.26,-242.61 8.95,-187 63.79,-111.15 116.95,-138.3 208.95,-121 360.77,-92.45 836.11,-80.66 994.79,-77.46"/>
<polygon fill="#63b8ff" stroke="#63b8ff" points="994.66,-80.96 1004.59,-77.26 994.52,-73.96 994.66,-80.96"/>
</g>
<!-- Node4 -->
<g id="node4" class="node">
<title>Node4</title>
<g id="a_node4"><a xlink:href="stddef_8h.html" target="_top" xlink:title=" ">
<polygon fill="white" stroke="#666666" points="1114.95,-30 978.95,-30 978.95,0 1114.95,0 1114.95,-30"/>
<text text-anchor="start" x="986.95" y="-18" font-family="Helvetica,sans-Serif" font-size="10.00">MSL_C/MSL_Common/Src</text>
<text text-anchor="middle" x="1046.95" y="-7" font-family="Helvetica,sans-Serif" font-size="10.00">/stddef.h</text>
</a>
</g>
</g>
<!-- Node3&#45;&gt;Node4 -->
<g id="edge3" class="edge">
<title>Node3&#45;&gt;Node4</title>
<path fill="none" stroke="#63b8ff" d="M1046.95,-65.87C1046.95,-59.4 1046.95,-50.2 1046.95,-41.45"/>
<polygon fill="#63b8ff" stroke="#63b8ff" points="1050.45,-41.63 1046.95,-31.63 1043.45,-41.63 1050.45,-41.63"/>
</g>
<!-- Node6&#45;&gt;Node7 -->
<g id="edge6" class="edge">
<title>Node6&#45;&gt;Node7</title>
<path fill="none" stroke="#63b8ff" d="M817.18,-357.12C828.49,-348.18 846.15,-334.22 859.86,-323.37"/>
<polygon fill="#63b8ff" stroke="#63b8ff" points="861.74,-326.35 867.41,-317.41 857.4,-320.86 861.74,-326.35"/>
</g>
<!-- Node8 -->
<g id="node8" class="node">
<title>Node8</title>
<g id="a_node8"><a xlink:href="____va__arg_8h.html" target="_top" xlink:title=" ">
<polygon fill="white" stroke="#666666" points="1695.95,-151 1585.95,-151 1585.95,-121 1695.95,-121 1695.95,-151"/>
<text text-anchor="start" x="1593.95" y="-139" font-family="Helvetica,sans-Serif" font-size="10.00">Runtime.PPCEABI.H/</text>
<text text-anchor="middle" x="1640.95" y="-128" font-family="Helvetica,sans-Serif" font-size="10.00">__va_arg.h</text>
</a>
</g>
</g>
<!-- Node7&#45;&gt;Node8 -->
<g id="edge7" class="edge">
<title>Node7&#45;&gt;Node8</title>
<path fill="none" stroke="#63b8ff" d="M923.18,-305.86C1052.51,-306.44 1434.54,-304.35 1549.95,-261 1587.64,-246.84 1599.42,-239.38 1621.95,-206 1630.65,-193.09 1635.39,-176.29 1637.95,-162.5"/>
<polygon fill="#63b8ff" stroke="#63b8ff" points="1641.38,-163.24 1639.46,-152.82 1634.46,-162.17 1641.38,-163.24"/>
</g>
<!-- Node9 -->
<g id="node9" class="node">
<title>Node9</title>
<g id="a_node9"><a xlink:href="dvd_8h.html" target="_top" xlink:title=" ">
<polygon fill="white" stroke="#666666" points="1805.95,-145.5 1713.95,-145.5 1713.95,-126.5 1805.95,-126.5 1805.95,-145.5"/>
<text text-anchor="middle" x="1759.95" y="-133.5" font-family="Helvetica,sans-Serif" font-size="10.00">dolphin/dvd/dvd.h</text>
</a>
</g>
</g>
<!-- Node7&#45;&gt;Node9 -->
<g id="edge9" class="edge">
<title>Node7&#45;&gt;Node9</title>
<path fill="none" stroke="#63b8ff" d="M923.32,-305.81C1056.89,-306.27 1460.32,-303.98 1582.95,-261 1649.69,-237.6 1714.11,-181.43 1743.44,-153.44"/>
<polygon fill="#63b8ff" stroke="#63b8ff" points="1745.56,-156.25 1750.29,-146.78 1740.68,-151.23 1745.56,-156.25"/>
</g>
<!-- Node10 -->
<g id="node10" class="node">
<title>Node10</title>
<g id="a_node10"><a xlink:href="OSAlarm_8h.html" target="_top" xlink:title=" ">
<polygon fill="white" stroke="#666666" points="268.45,-261 157.45,-261 157.45,-242 268.45,-242 268.45,-261"/>
<text text-anchor="middle" x="212.95" y="-249" font-family="Helvetica,sans-Serif" font-size="10.00">dolphin/os/OSAlarm.h</text>
</a>
</g>
</g>
<!-- Node7&#45;&gt;Node10 -->
<g id="edge11" class="edge">
<title>Node7&#45;&gt;Node10</title>
<path fill="none" stroke="#63b8ff" d="M836.81,-302.97C738.45,-297.06 490.08,-281.28 282.95,-261 281.93,-260.9 280.91,-260.8 279.88,-260.7"/>
<polygon fill="#63b8ff" stroke="#63b8ff" points="280.52,-257.24 270.21,-259.67 279.78,-264.2 280.52,-257.24"/>
</g>
<!-- Node11 -->
<g id="node11" class="node">
<title>Node11</title>
<g id="a_node11"><a xlink:href="OSTime_8h.html" target="_top" xlink:title=" ">
<polygon fill="white" stroke="#666666" points="250.45,-206 143.45,-206 143.45,-187 250.45,-187 250.45,-206"/>
<text text-anchor="middle" x="196.95" y="-194" font-family="Helvetica,sans-Serif" font-size="10.00">dolphin/os/OSTime.h</text>
</a>
</g>
</g>
<!-- Node7&#45;&gt;Node11 -->
<g id="edge54" class="edge">
<title>Node7&#45;&gt;Node11</title>
<path fill="none" stroke="#63b8ff" d="M836.6,-304.49C682.88,-300.69 171.65,-286.19 147.95,-261 133.4,-245.54 153.55,-225.98 172.23,-212.68"/>
<polygon fill="#63b8ff" stroke="#63b8ff" points="174.06,-215.67 180.42,-207.19 170.16,-209.85 174.06,-215.67"/>
</g>
<!-- Node12 -->
<g id="node12" class="node">
<title>Node12</title>
<g id="a_node12"><a xlink:href="OSError_8h.html" target="_top" xlink:title=" ">
<polygon fill="white" stroke="#666666" points="374.95,-206 268.95,-206 268.95,-187 374.95,-187 374.95,-206"/>
<text text-anchor="middle" x="321.95" y="-194" font-family="Helvetica,sans-Serif" font-size="10.00">dolphin/os/OSError.h</text>
</a>
</g>
</g>
<!-- Node7&#45;&gt;Node12 -->
<g id="edge26" class="edge">
<title>Node7&#45;&gt;Node12</title>
<path fill="none" stroke="#63b8ff" d="M836.81,-304.55C716.53,-301.55 383.67,-290.63 344.95,-261 331.55,-250.75 325.95,-231.97 323.61,-217.48"/>
<polygon fill="#63b8ff" stroke="#63b8ff" points="327.1,-217.2 322.46,-207.68 320.15,-218.02 327.1,-217.2"/>
</g>
<!-- Node13 -->
<g id="node13" class="node">
<title>Node13</title>
<g id="a_node13"><a xlink:href="OSContext_8h.html" target="_top" xlink:title=" ">
<polygon fill="white" stroke="#666666" points="596.45,-145.5 477.45,-145.5 477.45,-126.5 596.45,-126.5 596.45,-145.5"/>
<text text-anchor="middle" x="536.95" y="-133.5" font-family="Helvetica,sans-Serif" font-size="10.00">dolphin/os/OSContext.h</text>
</a>
</g>
</g>
<!-- Node7&#45;&gt;Node13 -->
<g id="edge25" class="edge">
<title>Node7&#45;&gt;Node13</title>
<path fill="none" stroke="#63b8ff" d="M836.76,-299.16C794.34,-292.25 728.15,-279.64 672.95,-261 666.14,-258.7 560.57,-211.49 555.95,-206 544.31,-192.19 539.76,-171.83 538.01,-156.8"/>
<polygon fill="#63b8ff" stroke="#63b8ff" points="541.52,-156.88 537.21,-147.2 534.55,-157.45 541.52,-156.88"/>
</g>
<!-- Node14 -->
<g id="node14" class="node">
<title>Node14</title>
<g id="a_node14"><a xlink:href="OSAlloc_8h.html" target="_top" xlink:title=" ">
<polygon fill="white" stroke="#666666" points="125.45,-206 18.45,-206 18.45,-187 125.45,-187 125.45,-206"/>
<text text-anchor="middle" x="71.95" y="-194" font-family="Helvetica,sans-Serif" font-size="10.00">dolphin/os/OSAlloc.h</text>
</a>
</g>
</g>
<!-- Node7&#45;&gt;Node14 -->
<g id="edge17" class="edge">
<title>Node7&#45;&gt;Node14</title>
<path fill="none" stroke="#63b8ff" d="M836.59,-304.6C687.84,-301.28 203.88,-288.46 139.95,-261 117.3,-251.28 97.49,-230.59 85.18,-215.46"/>
<polygon fill="#63b8ff" stroke="#63b8ff" points="88.05,-213.44 79.15,-207.68 82.52,-217.73 88.05,-213.44"/>
</g>
<!-- Node15 -->
<g id="node15" class="node">
<title>Node15</title>
<g id="a_node15"><a xlink:href="OSArena_8h.html" target="_top" xlink:title=" ">
<polygon fill="white" stroke="#666666" points="808.45,-145.5 697.45,-145.5 697.45,-126.5 808.45,-126.5 808.45,-145.5"/>
<text text-anchor="middle" x="752.95" y="-133.5" font-family="Helvetica,sans-Serif" font-size="10.00">dolphin/os/OSArena.h</text>
</a>
</g>
</g>
<!-- Node7&#45;&gt;Node15 -->
<g id="edge19" class="edge">
<title>Node7&#45;&gt;Node15</title>
<path fill="none" stroke="#63b8ff" d="M876.53,-296.66C871.01,-283.34 859,-257.99 841.95,-242 816.43,-218.07 794,-233.15 771.95,-206 760.56,-191.99 755.98,-171.65 754.14,-156.68"/>
<polygon fill="#63b8ff" stroke="#63b8ff" points="757.67,-156.79 753.3,-147.14 750.7,-157.41 757.67,-156.79"/>
</g>
<!-- Node16 -->
<g id="node16" class="node">
<title>Node16</title>
<g id="a_node16"><a xlink:href="OSAudioSystem_8h.html" target="_top" xlink:title=" ">
<polygon fill="white" stroke="#666666" points="924.45,-206 781.45,-206 781.45,-187 924.45,-187 924.45,-206"/>
<text text-anchor="middle" x="852.95" y="-194" font-family="Helvetica,sans-Serif" font-size="10.00">dolphin/os/OSAudioSystem.h</text>
</a>
</g>
</g>
<!-- Node7&#45;&gt;Node16 -->
<g id="edge21" class="edge">
<title>Node7&#45;&gt;Node16</title>
<path fill="none" stroke="#63b8ff" d="M880.29,-296.69C880.55,-284.26 880.17,-260.98 874.95,-242 872.49,-233.08 868.22,-223.81 864.09,-216.06"/>
<polygon fill="#63b8ff" stroke="#63b8ff" points="867.28,-214.59 859.31,-207.62 861.2,-218.04 867.28,-214.59"/>
</g>
<!-- Node17 -->
<g id="node17" class="node">
<title>Node17</title>
<g id="a_node17"><a xlink:href="OSCache_8h.html" target="_top" xlink:title=" ">
<polygon fill="white" stroke="#666666" points="978.45,-145.5 865.45,-145.5 865.45,-126.5 978.45,-126.5 978.45,-145.5"/>
<text text-anchor="middle" x="921.95" y="-133.5" font-family="Helvetica,sans-Serif" font-size="10.00">dolphin/os/OSCache.h</text>
</a>
</g>
</g>
<!-- Node7&#45;&gt;Node17 -->
<g id="edge23" class="edge">
<title>Node7&#45;&gt;Node17</title>
<path fill="none" stroke="#63b8ff" d="M886.83,-296.55C899.2,-279.86 924.71,-242.39 933.95,-206 938.16,-189.41 934.11,-170.2 929.61,-156.27"/>
<polygon fill="#63b8ff" stroke="#63b8ff" points="932.95,-155.22 926.25,-147.01 926.37,-157.6 932.95,-155.22"/>
</g>
<!-- Node18 -->
<g id="node18" class="node">
<title>Node18</title>
<g id="a_node18"><a xlink:href="OSExec_8h.html" target="_top" xlink:title=" ">
<polygon fill="white" stroke="#666666" points="1088.45,-206 981.45,-206 981.45,-187 1088.45,-187 1088.45,-206"/>
<text text-anchor="middle" x="1034.95" y="-194" font-family="Helvetica,sans-Serif" font-size="10.00">dolphin/os/OSExec.h</text>
</a>
</g>
</g>
<!-- Node7&#45;&gt;Node18 -->
<g id="edge27" class="edge">
<title>Node7&#45;&gt;Node18</title>
<path fill="none" stroke="#63b8ff" d="M901.26,-296.61C919.48,-288.56 945.98,-275.72 966.95,-261 986.68,-247.15 1006.53,-227.85 1019.64,-214.18"/>
<polygon fill="#63b8ff" stroke="#63b8ff" points="1021.88,-216.9 1026.18,-207.22 1016.78,-212.11 1021.88,-216.9"/>
</g>
<!-- Node19 -->
<g id="node19" class="node">
<title>Node19</title>
<g id="a_node19"><a xlink:href="OSFont_8h.html" target="_top" xlink:title=" ">
<polygon fill="white" stroke="#666666" points="1140.45,-145.5 1035.45,-145.5 1035.45,-126.5 1140.45,-126.5 1140.45,-145.5"/>
<text text-anchor="middle" x="1087.95" y="-133.5" font-family="Helvetica,sans-Serif" font-size="10.00">dolphin/os/OSFont.h</text>
</a>
</g>
</g>
<!-- Node7&#45;&gt;Node19 -->
<g id="edge29" class="edge">
<title>Node7&#45;&gt;Node19</title>
<path fill="none" stroke="#63b8ff" d="M904.27,-296.64C927.16,-288.12 962.26,-274.56 991.95,-261 1016.08,-249.98 1084.16,-228.68 1097.95,-206 1107.07,-190.98 1102.63,-170.8 1097.07,-156.15"/>
<polygon fill="#63b8ff" stroke="#63b8ff" points="1100.38,-154.98 1093.22,-147.18 1093.95,-157.75 1100.38,-154.98"/>
</g>
<!-- Node20 -->
<g id="node20" class="node">
<title>Node20</title>
<g id="a_node20"><a xlink:href="OSInterrupt_8h.html" target="_top" xlink:title=" ">
<polygon fill="white" stroke="#666666" points="686.95,-206 564.95,-206 564.95,-187 686.95,-187 686.95,-206"/>
<text text-anchor="middle" x="625.95" y="-194" font-family="Helvetica,sans-Serif" font-size="10.00">dolphin/os/OSInterrupt.h</text>
</a>
</g>
</g>
<!-- Node7&#45;&gt;Node20 -->
<g id="edge31" class="edge">
<title>Node7&#45;&gt;Node20</title>
<path fill="none" stroke="#63b8ff" d="M836.51,-299.9C799.71,-293.93 746.33,-282.29 703.95,-261 680.17,-249.06 657.06,-228.83 642.25,-214.42"/>
<polygon fill="#63b8ff" stroke="#63b8ff" points="644.78,-212 635.24,-207.39 639.83,-216.94 644.78,-212"/>
</g>
<!-- Node21 -->
<g id="node21" class="node">
<title>Node21</title>
<g id="a_node21"><a xlink:href="OSLink_8h.html" target="_top" xlink:title=" ">
<polygon fill="white" stroke="#666666" points="1160.95,-261 1056.95,-261 1056.95,-242 1160.95,-242 1160.95,-261"/>
<text text-anchor="middle" x="1108.95" y="-249" font-family="Helvetica,sans-Serif" font-size="10.00">dolphin/os/OSLink.h</text>
</a>
</g>
</g>
<!-- Node7&#45;&gt;Node21 -->
<g id="edge33" class="edge">
<title>Node7&#45;&gt;Node21</title>
<path fill="none" stroke="#63b8ff" d="M918.79,-296.51C957.48,-287.55 1017.03,-273.77 1059.17,-264.02"/>
<polygon fill="#63b8ff" stroke="#63b8ff" points="1059.86,-267.45 1068.82,-261.79 1058.28,-260.63 1059.86,-267.45"/>
</g>
<!-- Node22 -->
<g id="node22" class="node">
<title>Node22</title>
<g id="a_node22"><a xlink:href="OSMemory_8h.html" target="_top" xlink:title=" ">
<polygon fill="white" stroke="#666666" points="832.95,-261 712.95,-261 712.95,-242 832.95,-242 832.95,-261"/>
<text text-anchor="middle" x="772.95" y="-249" font-family="Helvetica,sans-Serif" font-size="10.00">dolphin/os/OSMemory.h</text>
</a>
</g>
</g>
<!-- Node7&#45;&gt;Node22 -->
<g id="edge35" class="edge">
<title>Node7&#45;&gt;Node22</title>
<path fill="none" stroke="#63b8ff" d="M861.79,-296.51C845.17,-288.27 820.3,-275.96 801.1,-266.45"/>
<polygon fill="#63b8ff" stroke="#63b8ff" points="802.7,-263.33 792.18,-262.03 799.59,-269.6 802.7,-263.33"/>
</g>
<!-- Node23 -->
<g id="node23" class="node">
<title>Node23</title>
<g id="a_node23"><a xlink:href="OSMessage_8h.html" target="_top" xlink:title=" ">
<polygon fill="white" stroke="#666666" points="618.45,-261 493.45,-261 493.45,-242 618.45,-242 618.45,-261"/>
<text text-anchor="middle" x="555.95" y="-249" font-family="Helvetica,sans-Serif" font-size="10.00">dolphin/os/OSMessage.h</text>
</a>
</g>
</g>
<!-- Node7&#45;&gt;Node23 -->
<g id="edge38" class="edge">
<title>Node7&#45;&gt;Node23</title>
<path fill="none" stroke="#63b8ff" d="M836.59,-298.41C781.6,-289.41 686.26,-273.82 622.15,-263.33"/>
<polygon fill="#63b8ff" stroke="#63b8ff" points="622.89,-259.9 612.45,-261.74 621.76,-266.81 622.89,-259.9"/>
</g>
<!-- Node24 -->
<g id="node24" class="node">
<title>Node24</title>
<g id="a_node24"><a xlink:href="OSThread_8h.html" target="_top" xlink:title=" ">
<polygon fill="white" stroke="#666666" points="508.95,-206 392.95,-206 392.95,-187 508.95,-187 508.95,-206"/>
<text text-anchor="middle" x="450.95" y="-194" font-family="Helvetica,sans-Serif" font-size="10.00">dolphin/os/OSThread.h</text>
</a>
</g>
</g>
<!-- Node7&#45;&gt;Node24 -->
<g id="edge53" class="edge">
<title>Node7&#45;&gt;Node24</title>
<path fill="none" stroke="#63b8ff" d="M836.54,-305.12C716.43,-303.61 386.35,-296.26 353.95,-261 333.54,-238.8 370.23,-220.84 404.18,-209.76"/>
<polygon fill="#63b8ff" stroke="#63b8ff" points="405.06,-213.15 413.58,-206.85 402.99,-206.46 405.06,-213.15"/>
</g>
<!-- Node25 -->
<g id="node25" class="node">
<title>Node25</title>
<g id="a_node25"><a xlink:href="OSMutex_8h.html" target="_top" xlink:title=" ">
<polygon fill="white" stroke="#666666" points="474.95,-261 362.95,-261 362.95,-242 474.95,-242 474.95,-261"/>
<text text-anchor="middle" x="418.95" y="-249" font-family="Helvetica,sans-Serif" font-size="10.00">dolphin/os/OSMutex.h</text>
</a>
</g>
</g>
<!-- Node7&#45;&gt;Node25 -->
<g id="edge41" class="edge">
<title>Node7&#45;&gt;Node25</title>
<path fill="none" stroke="#63b8ff" d="M836.55,-300.88C765.65,-293.29 620.26,-277.47 486.55,-261.3"/>
<polygon fill="#63b8ff" stroke="#63b8ff" points="487.16,-257.85 476.81,-260.12 486.32,-264.79 487.16,-257.85"/>
</g>
<!-- Node26 -->
<g id="node26" class="node">
<title>Node26</title>
<g id="a_node26"><a xlink:href="OSReboot_8h.html" target="_top" xlink:title=" ">
<polygon fill="white" stroke="#666666" points="1294.95,-261 1178.95,-261 1178.95,-242 1294.95,-242 1294.95,-261"/>
<text text-anchor="middle" x="1236.95" y="-249" font-family="Helvetica,sans-Serif" font-size="10.00">dolphin/os/OSReboot.h</text>
</a>
</g>
</g>
<!-- Node7&#45;&gt;Node26 -->
<g id="edge43" class="edge">
<title>Node7&#45;&gt;Node26</title>
<path fill="none" stroke="#63b8ff" d="M923.36,-299.05C984.04,-290.05 1094.87,-273.59 1167.2,-262.85"/>
<polygon fill="#63b8ff" stroke="#63b8ff" points="1167.59,-266.34 1176.97,-261.4 1166.56,-259.41 1167.59,-266.34"/>
</g>
<!-- Node27 -->
<g id="node27" class="node">
<title>Node27</title>
<g id="a_node27"><a xlink:href="OSReset_8h.html" target="_top" xlink:title=" ">
<polygon fill="white" stroke="#666666" points="1346.45,-145.5 1235.45,-145.5 1235.45,-126.5 1346.45,-126.5 1346.45,-145.5"/>
<text text-anchor="middle" x="1290.95" y="-133.5" font-family="Helvetica,sans-Serif" font-size="10.00">dolphin/os/OSReset.h</text>
</a>
</g>
</g>
<!-- Node7&#45;&gt;Node27 -->
<g id="edge45" class="edge">
<title>Node7&#45;&gt;Node27</title>
<path fill="none" stroke="#63b8ff" d="M923.33,-304.17C1026.31,-300.57 1278.78,-288.95 1303.95,-261 1329.93,-232.15 1313.12,-182.85 1300.73,-155.92"/>
<polygon fill="#63b8ff" stroke="#63b8ff" points="1304.02,-154.69 1296.49,-147.24 1297.73,-157.76 1304.02,-154.69"/>
</g>
<!-- Node28 -->
<g id="node28" class="node">
<title>Node28</title>
<g id="a_node28"><a xlink:href="OSResetSW_8h.html" target="_top" xlink:title=" ">
<polygon fill="white" stroke="#666666" points="1491.45,-145.5 1364.45,-145.5 1364.45,-126.5 1491.45,-126.5 1491.45,-145.5"/>
<text text-anchor="middle" x="1427.95" y="-133.5" font-family="Helvetica,sans-Serif" font-size="10.00">dolphin/os/OSResetSW.h</text>
</a>
</g>
</g>
<!-- Node7&#45;&gt;Node28 -->
<g id="edge47" class="edge">
<title>Node7&#45;&gt;Node28</title>
<path fill="none" stroke="#63b8ff" d="M923.35,-305.22C1020.89,-303.95 1254.28,-297.11 1322.95,-261 1368.57,-237.01 1402.56,-184.08 1418.28,-155.76"/>
<polygon fill="#63b8ff" stroke="#63b8ff" points="1421.21,-157.7 1422.84,-147.24 1415.04,-154.4 1421.21,-157.7"/>
</g>
<!-- Node29 -->
<g id="node29" class="node">
<title>Node29</title>
<g id="a_node29"><a xlink:href="OSRtc_8h.html" target="_top" xlink:title=" ">
<polygon fill="white" stroke="#666666" points="1518.45,-261 1417.45,-261 1417.45,-242 1518.45,-242 1518.45,-261"/>
<text text-anchor="middle" x="1467.95" y="-249" font-family="Helvetica,sans-Serif" font-size="10.00">dolphin/os/OSRtc.h</text>
</a>
</g>
</g>
<!-- Node7&#45;&gt;Node29 -->
<g id="edge49" class="edge">
<title>Node7&#45;&gt;Node29</title>
<path fill="none" stroke="#63b8ff" d="M923.2,-301.9C1010.51,-294.58 1214.09,-277.28 1384.95,-261 1391.68,-260.36 1398.71,-259.67 1405.72,-258.97"/>
<polygon fill="#63b8ff" stroke="#63b8ff" points="1405.93,-262.47 1415.53,-257.98 1405.23,-255.5 1405.93,-262.47"/>
</g>
<!-- Node30 -->
<g id="node30" class="node">
<title>Node30</title>
<g id="a_node30"><a xlink:href="OSSync_8h.html" target="_top" xlink:title=" ">
<polygon fill="white" stroke="#666666" points="1612.45,-206 1505.45,-206 1505.45,-187 1612.45,-187 1612.45,-206"/>
<text text-anchor="middle" x="1558.95" y="-194" font-family="Helvetica,sans-Serif" font-size="10.00">dolphin/os/OSSync.h</text>
</a>
</g>
</g>
<!-- Node7&#45;&gt;Node30 -->
<g id="edge51" class="edge">
<title>Node7&#45;&gt;Node30</title>
<path fill="none" stroke="#63b8ff" d="M922.99,-305.01C1059.69,-303.13 1477.96,-294.66 1527.95,-261 1542.73,-251.04 1550.72,-231.93 1554.86,-217.26"/>
<polygon fill="#63b8ff" stroke="#63b8ff" points="1558.21,-218.3 1557.15,-207.76 1551.41,-216.66 1558.21,-218.3"/>
</g>
<!-- Node8&#45;&gt;Node3 -->
<g id="edge8" class="edge">
<title>Node8&#45;&gt;Node3</title>
<path fill="none" stroke="#63b8ff" d="M1585.68,-123.2C1581.05,-122.39 1576.42,-121.64 1571.95,-121 1399.62,-96.3 1193.37,-83.73 1098.87,-78.91"/>
<polygon fill="#63b8ff" stroke="#63b8ff" points="1099.31,-75.43 1089.15,-78.42 1098.96,-82.42 1099.31,-75.43"/>
</g>
<!-- Node9&#45;&gt;Node3 -->
<g id="edge10" class="edge">
<title>Node9&#45;&gt;Node3</title>
<path fill="none" stroke="#63b8ff" d="M1728.74,-126.01C1721.02,-124.08 1712.73,-122.24 1704.95,-121 1481.36,-85.29 1210.57,-78.19 1098.91,-76.82"/>
<polygon fill="#63b8ff" stroke="#63b8ff" points="1099.22,-73.32 1089.18,-76.71 1099.14,-80.32 1099.22,-73.32"/>
</g>
<!-- Node10&#45;&gt;Node11 -->
<g id="edge12" class="edge">
<title>Node10&#45;&gt;Node11</title>
<path fill="none" stroke="#63b8ff" d="M210.3,-241.75C208.3,-235.11 205.47,-225.73 202.93,-217.31"/>
<polygon fill="#63b8ff" stroke="#63b8ff" points="206.32,-216.45 200.08,-207.89 199.62,-218.48 206.32,-216.45"/>
</g>
<!-- Node10&#45;&gt;Node12 -->
<g id="edge14" class="edge">
<title>Node10&#45;&gt;Node12</title>
<path fill="none" stroke="#63b8ff" d="M231.44,-241.51C248.45,-233.24 273.94,-220.84 293.54,-211.31"/>
<polygon fill="#63b8ff" stroke="#63b8ff" points="294.9,-214.54 302.37,-207.02 291.84,-208.25 294.9,-214.54"/>
</g>
<!-- Node11&#45;&gt;Node3 -->
<g id="edge13" class="edge">
<title>Node11&#45;&gt;Node3</title>
<path fill="none" stroke="#63b8ff" d="M222.73,-186.62C270.47,-170.59 376.13,-137 467.95,-121 660.22,-87.5 892.79,-79.22 994.76,-77.17"/>
<polygon fill="#63b8ff" stroke="#63b8ff" points="994.81,-80.67 1004.74,-76.99 994.67,-73.67 994.81,-80.67"/>
</g>
<!-- Node12&#45;&gt;Node13 -->
<g id="edge15" class="edge">
<title>Node12&#45;&gt;Node13</title>
<path fill="none" stroke="#63b8ff" d="M354.6,-186.62C391.54,-176.56 451.88,-160.15 492.95,-148.97"/>
<polygon fill="#63b8ff" stroke="#63b8ff" points="493.79,-152.37 502.52,-146.37 491.96,-145.61 493.79,-152.37"/>
</g>
<!-- Node13&#45;&gt;Node3 -->
<g id="edge16" class="edge">
<title>Node13&#45;&gt;Node3</title>
<path fill="none" stroke="#63b8ff" d="M596.67,-127.86C615.33,-125.64 635.99,-123.2 654.95,-121 776.77,-106.86 919.95,-90.73 995.01,-82.31"/>
<polygon fill="#63b8ff" stroke="#63b8ff" points="994.97,-85.84 1004.52,-81.25 994.19,-78.88 994.97,-85.84"/>
</g>
<!-- Node14&#45;&gt;Node3 -->
<g id="edge18" class="edge">
<title>Node14&#45;&gt;Node3</title>
<path fill="none" stroke="#63b8ff" d="M96.75,-186.62C143.19,-170.41 246.72,-136.33 336.95,-121 580.57,-79.6 877.09,-75.73 995,-76.02"/>
<polygon fill="#63b8ff" stroke="#63b8ff" points="994.65,-79.51 1004.66,-76.05 994.67,-72.51 994.65,-79.51"/>
</g>
<!-- Node15&#45;&gt;Node3 -->
<g id="edge20" class="edge">
<title>Node15&#45;&gt;Node3</title>
<path fill="none" stroke="#63b8ff" d="M797.75,-126.03C806.13,-124.36 814.8,-122.62 822.95,-121 881.91,-109.25 949.62,-95.8 995.02,-86.8"/>
<polygon fill="#63b8ff" stroke="#63b8ff" points="995.45,-90.28 1004.58,-84.9 994.09,-83.41 995.45,-90.28"/>
</g>
<!-- Node16&#45;&gt;Node3 -->
<g id="edge22" class="edge">
<title>Node16&#45;&gt;Node3</title>
<path fill="none" stroke="#63b8ff" d="M850.46,-186.96C846.59,-171.77 841.14,-139.87 856.95,-121 874.45,-100.1 945.06,-87.89 995.07,-81.7"/>
<polygon fill="#63b8ff" stroke="#63b8ff" points="995.32,-85.2 1004.84,-80.54 994.5,-78.25 995.32,-85.2"/>
</g>
<!-- Node17&#45;&gt;Node3 -->
<g id="edge24" class="edge">
<title>Node17&#45;&gt;Node3</title>
<path fill="none" stroke="#63b8ff" d="M940.93,-126.12C961.3,-116.58 993.93,-101.31 1017.61,-90.23"/>
<polygon fill="#63b8ff" stroke="#63b8ff" points="1018.84,-93.52 1026.41,-86.11 1015.87,-87.18 1018.84,-93.52"/>
</g>
<!-- Node18&#45;&gt;Node3 -->
<g id="edge28" class="edge">
<title>Node18&#45;&gt;Node3</title>
<path fill="none" stroke="#63b8ff" d="M1032.21,-186.69C1028.26,-172.65 1021.93,-144.4 1026.95,-121 1028.83,-112.21 1032.59,-103.06 1036.35,-95.35"/>
<polygon fill="#63b8ff" stroke="#63b8ff" points="1039.36,-97.14 1040.92,-86.66 1033.17,-93.88 1039.36,-97.14"/>
</g>
<!-- Node19&#45;&gt;Node3 -->
<g id="edge30" class="edge">
<title>Node19&#45;&gt;Node3</title>
<path fill="none" stroke="#63b8ff" d="M1081.9,-126.37C1076.02,-117.99 1066.93,-105.01 1059.49,-94.39"/>
<polygon fill="#63b8ff" stroke="#63b8ff" points="1062.49,-92.59 1053.89,-86.41 1056.76,-96.6 1062.49,-92.59"/>
</g>
<!-- Node20&#45;&gt;Node13 -->
<g id="edge32" class="edge">
<title>Node20&#45;&gt;Node13</title>
<path fill="none" stroke="#63b8ff" d="M612.43,-186.62C598.58,-177.51 576.77,-163.18 560.15,-152.25"/>
<polygon fill="#63b8ff" stroke="#63b8ff" points="562.13,-149.37 551.85,-146.8 558.29,-155.22 562.13,-149.37"/>
</g>
<!-- Node21&#45;&gt;Node3 -->
<g id="edge34" class="edge">
<title>Node21&#45;&gt;Node3</title>
<path fill="none" stroke="#63b8ff" d="M1116.6,-241.62C1134.64,-219.57 1176.37,-161.2 1149.95,-121 1138.4,-103.43 1118.28,-92.77 1098.87,-86.31"/>
<polygon fill="#63b8ff" stroke="#63b8ff" points="1099.95,-82.98 1089.36,-83.48 1097.95,-89.69 1099.95,-82.98"/>
</g>
<!-- Node22&#45;&gt;Node3 -->
<g id="edge36" class="edge">
<title>Node22&#45;&gt;Node3</title>
<path fill="none" stroke="#63b8ff" d="M759.35,-241.73C727.16,-219.93 651.62,-162.11 687.95,-121 707.93,-98.38 900.33,-84.64 994.94,-79.2"/>
<polygon fill="#63b8ff" stroke="#63b8ff" points="994.95,-82.7 1004.73,-78.65 994.55,-75.71 994.95,-82.7"/>
</g>
<!-- Node22&#45;&gt;Node20 -->
<g id="edge37" class="edge">
<title>Node22&#45;&gt;Node20</title>
<path fill="none" stroke="#63b8ff" d="M748.01,-241.51C724.11,-232.89 687.8,-219.8 661,-210.14"/>
<polygon fill="#63b8ff" stroke="#63b8ff" points="662.53,-206.97 651.94,-206.87 660.16,-213.56 662.53,-206.97"/>
</g>
<!-- Node23&#45;&gt;Node24 -->
<g id="edge39" class="edge">
<title>Node23&#45;&gt;Node24</title>
<path fill="none" stroke="#63b8ff" d="M538.13,-241.51C521.82,-233.27 497.42,-220.96 478.57,-211.45"/>
<polygon fill="#63b8ff" stroke="#63b8ff" points="480.35,-208.42 469.85,-207.04 477.2,-214.67 480.35,-208.42"/>
</g>
<!-- Node24&#45;&gt;Node13 -->
<g id="edge40" class="edge">
<title>Node24&#45;&gt;Node13</title>
<path fill="none" stroke="#63b8ff" d="M464.01,-186.62C477.39,-177.51 498.46,-163.18 514.52,-152.25"/>
<polygon fill="#63b8ff" stroke="#63b8ff" points="516.21,-155.34 522.51,-146.82 512.27,-149.55 516.21,-155.34"/>
</g>
<!-- Node25&#45;&gt;Node24 -->
<g id="edge42" class="edge">
<title>Node25&#45;&gt;Node24</title>
<path fill="none" stroke="#63b8ff" d="M424.23,-241.75C428.42,-234.81 434.42,-224.86 439.68,-216.16"/>
<polygon fill="#63b8ff" stroke="#63b8ff" points="442.59,-218.11 444.76,-207.74 436.6,-214.49 442.59,-218.11"/>
</g>
<!-- Node26&#45;&gt;Node3 -->
<g id="edge44" class="edge">
<title>Node26&#45;&gt;Node3</title>
<path fill="none" stroke="#63b8ff" d="M1234.6,-241.56C1228.08,-218.32 1207.51,-155.48 1167.95,-121 1148.51,-104.07 1122.08,-93.36 1098.88,-86.71"/>
<polygon fill="#63b8ff" stroke="#63b8ff" points="1099.82,-83.34 1089.25,-84.15 1098.02,-90.1 1099.82,-83.34"/>
</g>
<!-- Node27&#45;&gt;Node3 -->
<g id="edge46" class="edge">
<title>Node27&#45;&gt;Node3</title>
<path fill="none" stroke="#63b8ff" d="M1253.62,-126.05C1211.2,-115.88 1141.81,-99.24 1095.28,-88.09"/>
<polygon fill="#63b8ff" stroke="#63b8ff" points="1096.28,-84.73 1085.74,-85.8 1094.65,-91.54 1096.28,-84.73"/>
</g>
<!-- Node28&#45;&gt;Node3 -->
<g id="edge48" class="edge">
<title>Node28&#45;&gt;Node3</title>
<path fill="none" stroke="#63b8ff" d="M1383.84,-126.07C1374.64,-124.31 1364.99,-122.53 1355.95,-121 1265.83,-105.76 1160.36,-91.29 1098.86,-83.19"/>
<polygon fill="#63b8ff" stroke="#63b8ff" points="1099.41,-79.73 1089.04,-81.9 1098.5,-86.67 1099.41,-79.73"/>
</g>
<!-- Node29&#45;&gt;Node3 -->
<g id="edge50" class="edge">
<title>Node29&#45;&gt;Node3</title>
<path fill="none" stroke="#63b8ff" d="M1472.17,-241.58C1484.31,-215.35 1517.39,-139.13 1500.95,-121 1474.39,-91.71 1213.04,-81.04 1099.34,-77.76"/>
<polygon fill="#63b8ff" stroke="#63b8ff" points="1099.44,-74.26 1089.35,-77.48 1099.25,-81.26 1099.44,-74.26"/>
</g>
<!-- Node30&#45;&gt;Node3 -->
<g id="edge52" class="edge">
<title>Node30&#45;&gt;Node3</title>
<path fill="none" stroke="#63b8ff" d="M1558.88,-186.66C1558.24,-170.68 1554.38,-137.16 1533.95,-121 1500.39,-94.47 1217.84,-82.13 1099.13,-78.08"/>
<polygon fill="#63b8ff" stroke="#63b8ff" points="1099.46,-74.59 1089.35,-77.76 1099.23,-81.59 1099.46,-74.59"/>
</g>
</g>
</svg>
