<?xml version="1.0" encoding="UTF-8" standalone="no"?>
<!DOCTYPE svg PUBLIC "-//W3C//DTD SVG 1.1//EN"
 "http://www.w3.org/Graphics/SVG/1.1/DTD/svg11.dtd">
<!-- Generated by graphviz version 9.0.0 (20230911.1827)
 -->
<!-- Title: include/dolphin/amcstubs/AmcExi2Stubs.h Pages: 1 -->
<svg width="874pt" height="194pt"
 viewBox="0.00 0.00 873.88 194.00" xmlns="http://www.w3.org/2000/svg" xmlns:xlink="http://www.w3.org/1999/xlink">
<g id="graph0" class="graph" transform="scale(1 1) rotate(0) translate(4 190)">
<title>include/dolphin/amcstubs/AmcExi2Stubs.h</title>
<!-- Node1 -->
<g id="Node000001" class="node">
<title>Node1</title>
<g id="a_Node000001"><a xlink:title=" ">
<polygon fill="#999999" stroke="#666666" points="456,-186 329.75,-186 329.75,-155.5 456,-155.5 456,-186"/>
<text text-anchor="start" x="337.75" y="-172.5" font-family="Helvetica,sans-Serif" font-size="10.00">include/dolphin/amcstubs</text>
<text text-anchor="middle" x="392.88" y="-161.25" font-family="Helvetica,sans-Serif" font-size="10.00">/AmcExi2Stubs.h</text>
</a>
</g>
</g>
<!-- Node2 -->
<g id="Node000002" class="node">
<title>Node2</title>
<g id="a_Node000002"><a xlink:href="DDH__Stubs_8h.html" target="_top" xlink:title=" ">
<polygon fill="white" stroke="#666666" points="148.5,-119.5 31.25,-119.5 31.25,-77.75 148.5,-77.75 148.5,-119.5"/>
<text text-anchor="start" x="39.25" y="-106" font-family="Helvetica,sans-Serif" font-size="10.00">include/TRK_MINNOW</text>
<text text-anchor="start" x="39.25" y="-94.75" font-family="Helvetica,sans-Serif" font-size="10.00">_DOLPHIN/Os/dolphin</text>
<text text-anchor="middle" x="89.88" y="-83.5" font-family="Helvetica,sans-Serif" font-size="10.00">/DDH_Stubs.h</text>
</a>
</g>
</g>
<!-- Node1&#45;&gt;Node2 -->
<g id="edge1_Node000001_Node000002" class="edge">
<title>Node1&#45;&gt;Node2</title>
<g id="a_edge1_Node000001_Node000002"><a xlink:title=" ">
<path fill="none" stroke="#63b8ff" d="M318.15,-152.46C265.98,-140.38 197.29,-124.49 148.94,-113.29"/>
<polygon fill="#63b8ff" stroke="#63b8ff" points="317.35,-155.86 327.88,-154.71 318.93,-149.04 317.35,-155.86"/>
</a>
</g>
</g>
<!-- Node4 -->
<g id="Node000004" class="node">
<title>Node4</title>
<g id="a_Node000004"><a xlink:href="GDEV__Stubs_8h.html" target="_top" xlink:title=" ">
<polygon fill="white" stroke="#666666" points="310.5,-119.5 193.25,-119.5 193.25,-77.75 310.5,-77.75 310.5,-119.5"/>
<text text-anchor="start" x="201.25" y="-106" font-family="Helvetica,sans-Serif" font-size="10.00">include/TRK_MINNOW</text>
<text text-anchor="start" x="201.25" y="-94.75" font-family="Helvetica,sans-Serif" font-size="10.00">_DOLPHIN/Os/dolphin</text>
<text text-anchor="middle" x="251.88" y="-83.5" font-family="Helvetica,sans-Serif" font-size="10.00">/GDEV_Stubs.h</text>
</a>
</g>
</g>
<!-- Node1&#45;&gt;Node4 -->
<g id="edge3_Node000001_Node000004" class="edge">
<title>Node1&#45;&gt;Node4</title>
<g id="a_edge3_Node000001_Node000004"><a xlink:title=" ">
<path fill="none" stroke="#63b8ff" d="M353.23,-150.03C334.31,-140.62 311.69,-129.37 292.62,-119.89"/>
<polygon fill="#63b8ff" stroke="#63b8ff" points="351.45,-153.06 361.96,-154.38 354.57,-146.79 351.45,-153.06"/>
</a>
</g>
</g>
<!-- Node5 -->
<g id="Node000005" class="node">
<title>Node5</title>
<g id="a_Node000005"><a xlink:href="db_8h.html" target="_top" xlink:title=" ">
<polygon fill="white" stroke="#666666" points="443.62,-108.25 342.12,-108.25 342.12,-89 443.62,-89 443.62,-108.25"/>
<text text-anchor="middle" x="392.88" y="-94.75" font-family="Helvetica,sans-Serif" font-size="10.00">include/dolphin/db.h</text>
</a>
</g>
</g>
<!-- Node1&#45;&gt;Node5 -->
<g id="edge5_Node000001_Node000005" class="edge">
<title>Node1&#45;&gt;Node5</title>
<g id="a_edge5_Node000001_Node000005"><a xlink:title=" ">
<path fill="none" stroke="#63b8ff" d="M392.88,-143.98C392.88,-131.48 392.88,-117.27 392.88,-108.38"/>
<polygon fill="#63b8ff" stroke="#63b8ff" points="389.38,-143.71 392.88,-153.71 396.38,-143.71 389.38,-143.71"/>
</a>
</g>
</g>
<!-- Node11 -->
<g id="Node000011" class="node">
<title>Node11</title>
<g id="a_Node000011"><a xlink:href="EXI2__DDH__GCN_2main_8c.html" target="_top" xlink:title=" ">
<polygon fill="white" stroke="#666666" points="613.75,-113.88 462,-113.88 462,-83.38 613.75,-83.38 613.75,-113.88"/>
<text text-anchor="start" x="470" y="-100.38" font-family="Helvetica,sans-Serif" font-size="10.00">libs/TRK_MINNOW_DOLPHIN</text>
<text text-anchor="middle" x="537.88" y="-89.12" font-family="Helvetica,sans-Serif" font-size="10.00">/GCN/EXI2_DDH_GCN/main.c</text>
</a>
</g>
</g>
<!-- Node1&#45;&gt;Node11 -->
<g id="edge11_Node000001_Node000011" class="edge">
<title>Node1&#45;&gt;Node11</title>
<g id="a_edge11_Node000001_Node000011"><a xlink:title=" ">
<path fill="none" stroke="#63b8ff" d="M433.62,-150.05C457.08,-138.7 486.07,-124.68 507.52,-114.31"/>
<polygon fill="#63b8ff" stroke="#63b8ff" points="432.11,-146.89 424.63,-154.39 435.16,-153.19 432.11,-146.89"/>
</a>
</g>
</g>
<!-- Node12 -->
<g id="Node000012" class="node">
<title>Node12</title>
<g id="a_Node000012"><a xlink:href="AmcExi2Stubs_8c.html" target="_top" xlink:title=" ">
<polygon fill="white" stroke="#666666" points="742.12,-113.88 631.62,-113.88 631.62,-83.38 742.12,-83.38 742.12,-113.88"/>
<text text-anchor="start" x="639.62" y="-100.38" font-family="Helvetica,sans-Serif" font-size="10.00">libs/dolphin/amcstubs</text>
<text text-anchor="middle" x="686.88" y="-89.12" font-family="Helvetica,sans-Serif" font-size="10.00">/AmcExi2Stubs.c</text>
</a>
</g>
</g>
<!-- Node1&#45;&gt;Node12 -->
<g id="edge12_Node000001_Node000012" class="edge">
<title>Node1&#45;&gt;Node12</title>
<g id="a_edge12_Node000001_Node000012"><a xlink:title=" ">
<path fill="none" stroke="#63b8ff" d="M467.38,-155.17C512.59,-145.9 571.32,-133.11 622.88,-119.5 628.84,-117.93 635.07,-116.15 641.22,-114.33"/>
<polygon fill="#63b8ff" stroke="#63b8ff" points="466.77,-151.72 457.67,-157.14 468.17,-158.58 466.77,-151.72"/>
</a>
</g>
</g>
<!-- Node3 -->
<g id="Node000003" class="node">
<title>Node3</title>
<g id="a_Node000003"><a xlink:href="dolphin__trk__glue_8c.html" target="_top" xlink:title=" ">
<polygon fill="white" stroke="#666666" points="151.75,-41.75 0,-41.75 0,0 151.75,0 151.75,-41.75"/>
<text text-anchor="start" x="8" y="-28.25" font-family="Helvetica,sans-Serif" font-size="10.00">libs/TRK_MINNOW_DOLPHIN</text>
<text text-anchor="start" x="8" y="-17" font-family="Helvetica,sans-Serif" font-size="10.00">/Os/dolphin/dolphin_trk</text>
<text text-anchor="middle" x="75.88" y="-5.75" font-family="Helvetica,sans-Serif" font-size="10.00">_glue.c</text>
</a>
</g>
</g>
<!-- Node2&#45;&gt;Node3 -->
<g id="edge2_Node000002_Node000003" class="edge">
<title>Node2&#45;&gt;Node3</title>
<g id="a_edge2_Node000002_Node000003"><a xlink:title=" ">
<path fill="none" stroke="#63b8ff" d="M84.08,-66.28C82.58,-58.16 81,-49.62 79.64,-42.23"/>
<polygon fill="#63b8ff" stroke="#63b8ff" points="80.59,-66.64 85.85,-75.84 87.47,-65.37 80.59,-66.64"/>
</a>
</g>
</g>
<!-- Node4&#45;&gt;Node3 -->
<g id="edge4_Node000004_Node000003" class="edge">
<title>Node4&#45;&gt;Node3</title>
<g id="a_edge4_Node000004_Node000003"><a xlink:title=" ">
<path fill="none" stroke="#63b8ff" d="M194.37,-72.88C171.32,-62.95 145.09,-51.66 123.17,-42.23"/>
<polygon fill="#63b8ff" stroke="#63b8ff" points="192.75,-75.99 203.32,-76.73 195.52,-69.56 192.75,-75.99"/>
</a>
</g>
</g>
<!-- Node6 -->
<g id="Node000006" class="node">
<title>Node6</title>
<g id="a_Node000006"><a xlink:href="EXI2__GDEV__GCN_2main_8c.html" target="_top" xlink:title=" ">
<polygon fill="white" stroke="#666666" points="325.62,-36.12 170.12,-36.12 170.12,-5.62 325.62,-5.62 325.62,-36.12"/>
<text text-anchor="start" x="178.12" y="-22.62" font-family="Helvetica,sans-Serif" font-size="10.00">libs/TRK_MINNOW_DOLPHIN</text>
<text text-anchor="middle" x="247.88" y="-11.38" font-family="Helvetica,sans-Serif" font-size="10.00">/GCN/EXI2_GDEV_GCN/main.c</text>
</a>
</g>
</g>
<!-- Node5&#45;&gt;Node6 -->
<g id="edge6_Node000005_Node000006" class="edge">
<title>Node5&#45;&gt;Node6</title>
<g id="a_edge6_Node000005_Node000006"><a xlink:title=" ">
<path fill="none" stroke="#63b8ff" d="M365.54,-83.34C339.93,-69.97 301.85,-50.07 275.99,-36.56"/>
<polygon fill="#63b8ff" stroke="#63b8ff" points="363.85,-86.41 374.33,-87.94 367.09,-80.2 363.85,-86.41"/>
</a>
</g>
</g>
<!-- Node7 -->
<g id="Node000007" class="node">
<title>Node7</title>
<g id="a_Node000007"><a xlink:href="db_8c.html" target="_top" xlink:title=" ">
<polygon fill="white" stroke="#666666" points="442.5,-30.5 343.25,-30.5 343.25,-11.25 442.5,-11.25 442.5,-30.5"/>
<text text-anchor="middle" x="392.88" y="-17" font-family="Helvetica,sans-Serif" font-size="10.00">libs/dolphin/db/db.c</text>
</a>
</g>
</g>
<!-- Node5&#45;&gt;Node7 -->
<g id="edge7_Node000005_Node000007" class="edge">
<title>Node5&#45;&gt;Node7</title>
<g id="a_edge7_Node000005_Node000007"><a xlink:title=" ">
<path fill="none" stroke="#63b8ff" d="M392.88,-77.35C392.88,-62.2 392.88,-42.23 392.88,-30.85"/>
<polygon fill="#63b8ff" stroke="#63b8ff" points="389.38,-77.12 392.88,-87.12 396.38,-77.12 389.38,-77.12"/>
</a>
</g>
</g>
<!-- Node8 -->
<g id="Node000008" class="node">
<title>Node8</title>
<g id="a_Node000008"><a xlink:href="OS_8c.html" target="_top" xlink:title=" ">
<polygon fill="white" stroke="#666666" points="563.38,-30.5 460.38,-30.5 460.38,-11.25 563.38,-11.25 563.38,-30.5"/>
<text text-anchor="middle" x="511.88" y="-17" font-family="Helvetica,sans-Serif" font-size="10.00">libs/dolphin/os/OS.c</text>
</a>
</g>
</g>
<!-- Node5&#45;&gt;Node8 -->
<g id="edge8_Node000005_Node000008" class="edge">
<title>Node5&#45;&gt;Node8</title>
<g id="a_edge8_Node000005_Node000008"><a xlink:title=" ">
<path fill="none" stroke="#63b8ff" d="M416.53,-82.57C440.8,-67.12 477.75,-43.6 497.78,-30.85"/>
<polygon fill="#63b8ff" stroke="#63b8ff" points="414.83,-79.5 408.27,-87.83 418.59,-85.41 414.83,-79.5"/>
</a>
</g>
</g>
<!-- Node9 -->
<g id="Node000009" class="node">
<title>Node9</title>
<g id="a_Node000009"><a xlink:href="OSCache_8c.html" target="_top" xlink:title=" ">
<polygon fill="white" stroke="#666666" points="712.25,-30.5 581.5,-30.5 581.5,-11.25 712.25,-11.25 712.25,-30.5"/>
<text text-anchor="middle" x="646.88" y="-17" font-family="Helvetica,sans-Serif" font-size="10.00">libs/dolphin/os/OSCache.c</text>
</a>
</g>
</g>
<!-- Node5&#45;&gt;Node9 -->
<g id="edge9_Node000005_Node000009" class="edge">
<title>Node5&#45;&gt;Node9</title>
<g id="a_edge9_Node000005_Node000009"><a xlink:title=" ">
<path fill="none" stroke="#63b8ff" d="M430.07,-85.05C437.6,-82.58 445.48,-80.04 452.88,-77.75 509.13,-60.34 575.1,-41.72 613.8,-30.97"/>
<polygon fill="#63b8ff" stroke="#63b8ff" points="429.21,-81.65 420.82,-88.12 431.42,-88.29 429.21,-81.65"/>
</a>
</g>
</g>
<!-- Node10 -->
<g id="Node000010" class="node">
<title>Node10</title>
<g id="a_Node000010"><a xlink:href="OSContext_8c.html" target="_top" xlink:title=" ">
<polygon fill="white" stroke="#666666" points="865.88,-30.5 729.88,-30.5 729.88,-11.25 865.88,-11.25 865.88,-30.5"/>
<text text-anchor="middle" x="797.88" y="-17" font-family="Helvetica,sans-Serif" font-size="10.00">libs/dolphin/os/OSContext.c</text>
</a>
</g>
</g>
<!-- Node5&#45;&gt;Node10 -->
<g id="edge10_Node000005_Node000010" class="edge">
<title>Node5&#45;&gt;Node10</title>
<g id="a_edge10_Node000005_Node000010"><a xlink:title=" ">
<path fill="none" stroke="#63b8ff" d="M427.56,-84.92C435.78,-82.25 444.57,-79.67 452.88,-77.75 569.98,-50.74 602.93,-64.81 720.88,-41.75 735.92,-38.81 752.39,-34.68 766.23,-30.95"/>
<polygon fill="#63b8ff" stroke="#63b8ff" points="426.6,-81.55 418.25,-88.07 428.84,-88.18 426.6,-81.55"/>
</a>
</g>
</g>
</g>
</svg>
