<?xml version="1.0" encoding="UTF-8" standalone="no"?>
<!DOCTYPE svg PUBLIC "-//W3C//DTD SVG 1.1//EN"
 "http://www.w3.org/Graphics/SVG/1.1/DTD/svg11.dtd">
<!-- Generated by graphviz version 7.0.5 (20221223.1930)
 -->
<!-- Title: include/SSystem/SComponent/c_angle.h Pages: 1 -->
<svg width="4617pt" height="434pt"
 viewBox="0.00 0.00 4616.76 434.00" xmlns="http://www.w3.org/2000/svg" xmlns:xlink="http://www.w3.org/1999/xlink">
<g id="graph0" class="graph" transform="scale(1 1) rotate(0) translate(4 430)">
<title>include/SSystem/SComponent/c_angle.h</title>
<!-- Node1 -->
<g id="node1" class="node">
<title>Node1</title>
<g id="a_node1"><a xlink:title=" ">
<polygon fill="#999999" stroke="#666666" points="3930.76,-426 3781.76,-426 3781.76,-396 3930.76,-396 3930.76,-426"/>
<text text-anchor="start" x="3789.76" y="-414" font-family="Helvetica,sans-Serif" font-size="10.00">include/SSystem/SComponent</text>
<text text-anchor="middle" x="3856.26" y="-403" font-family="Helvetica,sans-Serif" font-size="10.00">/c_angle.h</text>
</a>
</g>
</g>
<!-- Node2 -->
<g id="node2" class="node">
<title>Node2</title>
<g id="a_node2"><a xlink:href="d__attention_8h.html" target="_top" xlink:title=" ">
<polygon fill="white" stroke="#666666" points="2556.26,-294 2442.26,-294 2442.26,-275 2556.26,-275 2556.26,-294"/>
<text text-anchor="middle" x="2499.26" y="-282" font-family="Helvetica,sans-Serif" font-size="10.00">include/d/d_attention.h</text>
</a>
</g>
</g>
<!-- Node1&#45;&gt;Node2 -->
<g id="edge1" class="edge">
<title>Node1&#45;&gt;Node2</title>
<path fill="none" stroke="#63b8ff" d="M3769.97,-402.08C3514.97,-378.69 2769.47,-310.29 2556.62,-290.76"/>
<polygon fill="#63b8ff" stroke="#63b8ff" points="3769.59,-405.56 3779.87,-402.99 3770.23,-398.59 3769.59,-405.56"/>
</g>
<!-- Node116 -->
<g id="node47" class="node">
<title>Node116</title>
<g id="a_node47"><a xlink:href="d__cam__param_8h.html" target="_top" xlink:title=" ">
<polygon fill="white" stroke="#666666" points="3966.26,-354.5 3838.26,-354.5 3838.26,-335.5 3966.26,-335.5 3966.26,-354.5"/>
<text text-anchor="middle" x="3902.26" y="-342.5" font-family="Helvetica,sans-Serif" font-size="10.00">include/d/d_cam_param.h</text>
</a>
</g>
</g>
<!-- Node1&#45;&gt;Node116 -->
<g id="edge59" class="edge">
<title>Node1&#45;&gt;Node116</title>
<path fill="none" stroke="#63b8ff" d="M3873.07,-386.61C3881.02,-375.56 3890.03,-363.03 3895.91,-354.84"/>
<polygon fill="#63b8ff" stroke="#63b8ff" points="3870.35,-384.4 3867.36,-394.57 3876.03,-388.49 3870.35,-384.4"/>
</g>
<!-- Node117 -->
<g id="node48" class="node">
<title>Node117</title>
<g id="a_node48"><a xlink:href="d__camera_8h.html" target="_top" xlink:title=" ">
<polygon fill="white" stroke="#666666" points="3910.76,-294 3801.76,-294 3801.76,-275 3910.76,-275 3910.76,-294"/>
<text text-anchor="middle" x="3856.26" y="-282" font-family="Helvetica,sans-Serif" font-size="10.00">include/d/d_camera.h</text>
</a>
</g>
</g>
<!-- Node1&#45;&gt;Node117 -->
<g id="edge68" class="edge">
<title>Node1&#45;&gt;Node117</title>
<path fill="none" stroke="#63b8ff" d="M3840.32,-386.22C3835.83,-378.23 3831.55,-369.04 3829.26,-360 3826,-347.07 3825.67,-342.84 3829.26,-330 3833.06,-316.42 3842.26,-302.87 3848.86,-294.35"/>
<polygon fill="#63b8ff" stroke="#63b8ff" points="3837.24,-387.88 3845.41,-394.62 3843.22,-384.25 3837.24,-387.88"/>
</g>
<!-- Node122 -->
<g id="node50" class="node">
<title>Node122</title>
<g id="a_node50"><a xlink:href="c__angle_8cpp.html" target="_top" xlink:title=" ">
<polygon fill="white" stroke="#666666" points="4118.26,-360 3984.26,-360 3984.26,-330 4118.26,-330 4118.26,-360"/>
<text text-anchor="start" x="3992.26" y="-348" font-family="Helvetica,sans-Serif" font-size="10.00">libs/SSystem/SComponent</text>
<text text-anchor="middle" x="4051.26" y="-337" font-family="Helvetica,sans-Serif" font-size="10.00">/c_angle.cpp</text>
</a>
</g>
</g>
<!-- Node1&#45;&gt;Node122 -->
<g id="edge69" class="edge">
<title>Node1&#45;&gt;Node122</title>
<path fill="none" stroke="#63b8ff" d="M3910.9,-392.07C3941.35,-382.07 3978.77,-369.79 4007.31,-360.43"/>
<polygon fill="#63b8ff" stroke="#63b8ff" points="3909.87,-388.72 3901.46,-395.17 3912.06,-395.37 3909.87,-388.72"/>
</g>
<!-- Node3 -->
<g id="node3" class="node">
<title>Node3</title>
<g id="a_node3"><a xlink:href="d__a__alink_8h.html" target="_top" xlink:title=" ">
<polygon fill="white" stroke="#666666" points="2789.26,-233.5 2673.26,-233.5 2673.26,-214.5 2789.26,-214.5 2789.26,-233.5"/>
<text text-anchor="middle" x="2731.26" y="-221.5" font-family="Helvetica,sans-Serif" font-size="10.00">include/d/a/d_a_alink.h</text>
</a>
</g>
</g>
<!-- Node2&#45;&gt;Node3 -->
<g id="edge2" class="edge">
<title>Node2&#45;&gt;Node3</title>
<path fill="none" stroke="#63b8ff" d="M2545.79,-271.77C2590.03,-260.61 2655.61,-244.08 2695.78,-233.95"/>
<polygon fill="#63b8ff" stroke="#63b8ff" points="2545.06,-268.34 2536.22,-274.18 2546.77,-275.13 2545.06,-268.34"/>
</g>
<!-- Node4 -->
<g id="node4" class="node">
<title>Node4</title>
<g id="a_node4"><a xlink:href="d__com__inf__game_8h.html" target="_top" xlink:title=" ">
<polygon fill="#fff0f0" stroke="red" points="2600.26,-173 2490.26,-173 2490.26,-143 2600.26,-143 2600.26,-173"/>
<text text-anchor="start" x="2498.26" y="-161" font-family="Helvetica,sans-Serif" font-size="10.00">include/d/com/d_com</text>
<text text-anchor="middle" x="2545.26" y="-150" font-family="Helvetica,sans-Serif" font-size="10.00">_inf_game.h</text>
</a>
</g>
</g>
<!-- Node2&#45;&gt;Node4 -->
<g id="edge56" class="edge">
<title>Node2&#45;&gt;Node4</title>
<path fill="none" stroke="#63b8ff" d="M2502.99,-263.4C2506.15,-248.16 2511.28,-226.87 2518.26,-209 2523.15,-196.5 2530.46,-183.17 2536.25,-173.42"/>
<polygon fill="#63b8ff" stroke="#63b8ff" points="2499.58,-262.59 2501.1,-273.08 2506.45,-263.94 2499.58,-262.59"/>
</g>
<!-- Node84 -->
<g id="node39" class="node">
<title>Node84</title>
<g id="a_node39"><a xlink:href="d__attention_8cpp.html" target="_top" xlink:title=" ">
<polygon fill="white" stroke="#666666" points="137.76,-96 30.76,-96 30.76,-77 137.76,-77 137.76,-96"/>
<text text-anchor="middle" x="84.26" y="-84" font-family="Helvetica,sans-Serif" font-size="10.00">src/d/d_attention.cpp</text>
</a>
</g>
</g>
<!-- Node2&#45;&gt;Node84 -->
<g id="edge58" class="edge">
<title>Node2&#45;&gt;Node84</title>
<path fill="none" stroke="#63b8ff" d="M2430.72,-283.58C2034.83,-283.91 56.81,-283.34 13.26,-239 -29.48,-195.48 45.68,-121.41 74.07,-96.2"/>
<polygon fill="#63b8ff" stroke="#63b8ff" points="2430.46,-287.08 2440.46,-283.58 2430.45,-280.08 2430.46,-287.08"/>
</g>
<!-- Node115 -->
<g id="node46" class="node">
<title>Node115</title>
<g id="a_node46"><a xlink:href="d__att__dist_8cpp.html" target="_top" xlink:title=" ">
<polygon fill="white" stroke="#666666" points="124.26,-233.5 22.26,-233.5 22.26,-214.5 124.26,-214.5 124.26,-233.5"/>
<text text-anchor="middle" x="73.26" y="-221.5" font-family="Helvetica,sans-Serif" font-size="10.00">src/d/d_att_dist.cpp</text>
</a>
</g>
</g>
<!-- Node2&#45;&gt;Node115 -->
<g id="edge57" class="edge">
<title>Node2&#45;&gt;Node115</title>
<path fill="none" stroke="#63b8ff" d="M2430.64,-283C2066.76,-280.23 370.73,-265.97 138.26,-239 128.63,-237.88 118.32,-235.99 108.82,-233.95"/>
<polygon fill="#63b8ff" stroke="#63b8ff" points="2430.48,-286.5 2440.51,-283.07 2430.53,-279.5 2430.48,-286.5"/>
</g>
<!-- Node3&#45;&gt;Node4 -->
<g id="edge3" class="edge">
<title>Node3&#45;&gt;Node4</title>
<path fill="none" stroke="#63b8ff" d="M2694.68,-210.41C2663.83,-199.8 2619.65,-184.6 2587.34,-173.48"/>
<polygon fill="#63b8ff" stroke="#63b8ff" points="2693.38,-213.66 2703.97,-213.61 2695.65,-207.05 2693.38,-213.66"/>
</g>
<!-- Node14 -->
<g id="node8" class="node">
<title>Node14</title>
<g id="a_node8"><a xlink:href="d__a__alink_8cpp.html" target="_top" xlink:title=" ">
<polygon fill="white" stroke="#666666" points="4107.76,-24.5 3998.76,-24.5 3998.76,-5.5 4107.76,-5.5 4107.76,-24.5"/>
<text text-anchor="middle" x="4053.26" y="-12.5" font-family="Helvetica,sans-Serif" font-size="10.00">src/d/a/d_a_alink.cpp</text>
</a>
</g>
</g>
<!-- Node3&#45;&gt;Node14 -->
<g id="edge55" class="edge">
<title>Node3&#45;&gt;Node14</title>
<path fill="none" stroke="#63b8ff" d="M2800.81,-222.66C3072.08,-220.62 4048.72,-206.39 4140.26,-107 4152.61,-93.6 4149.39,-81.77 4140.26,-66 4128.31,-45.34 4104.23,-32.48 4084.43,-24.98"/>
<polygon fill="#63b8ff" stroke="#63b8ff" points="2801.05,-219.16 2791.07,-222.73 2801.1,-226.16 2801.05,-219.16"/>
</g>
<!-- Node5 -->
<g id="node5" class="node">
<title>Node5</title>
<g id="a_node5"><a xlink:href="d__a__npc_8h.html" target="_top" xlink:title=" ">
<polygon fill="#fff0f0" stroke="red" points="1817.76,-24.5 1706.76,-24.5 1706.76,-5.5 1817.76,-5.5 1817.76,-24.5"/>
<text text-anchor="middle" x="1762.26" y="-12.5" font-family="Helvetica,sans-Serif" font-size="10.00">include/d/a/d_a_npc.h</text>
</a>
</g>
</g>
<!-- Node4&#45;&gt;Node5 -->
<g id="edge4" class="edge">
<title>Node4&#45;&gt;Node5</title>
<path fill="none" stroke="#63b8ff" d="M2611.97,-155.7C2812.75,-151.45 3399.35,-136.54 3427.26,-107 3439.78,-93.76 3439.95,-79.08 3427.26,-66 3398.61,-36.47 2104.55,-19.92 1818.04,-16.62"/>
<polygon fill="#63b8ff" stroke="#63b8ff" points="2612.16,-152.19 2602.24,-155.9 2612.31,-159.19 2612.16,-152.19"/>
</g>
<!-- Node11 -->
<g id="node6" class="node">
<title>Node11</title>
<g id="a_node6"><a xlink:href="d__cc__uty_8h.html" target="_top" xlink:title=" ">
<polygon fill="#fff0f0" stroke="red" points="3593.76,-96 3474.76,-96 3474.76,-77 3593.76,-77 3593.76,-96"/>
<text text-anchor="middle" x="3534.26" y="-84" font-family="Helvetica,sans-Serif" font-size="10.00">include/d/cc/d_cc_uty.h</text>
</a>
</g>
</g>
<!-- Node4&#45;&gt;Node11 -->
<g id="edge5" class="edge">
<title>Node4&#45;&gt;Node11</title>
<path fill="none" stroke="#63b8ff" d="M2611.72,-155.12C2793.56,-149.7 3296.6,-132.76 3460.26,-107 3475.49,-104.6 3492.11,-100.38 3505.74,-96.47"/>
<polygon fill="#63b8ff" stroke="#63b8ff" points="2611.88,-151.62 2601.99,-155.41 2612.09,-158.61 2611.88,-151.62"/>
</g>
<!-- Node17 -->
<g id="node7" class="node">
<title>Node17</title>
<g id="a_node7"><a xlink:href="d__item_8h.html" target="_top" xlink:title=" ">
<polygon fill="#fff0f0" stroke="red" points="4113.76,-96 4018.76,-96 4018.76,-77 4113.76,-77 4113.76,-96"/>
<text text-anchor="middle" x="4066.26" y="-84" font-family="Helvetica,sans-Serif" font-size="10.00">include/d/d_item.h</text>
</a>
</g>
</g>
<!-- Node4&#45;&gt;Node17 -->
<g id="edge6" class="edge">
<title>Node4&#45;&gt;Node17</title>
<path fill="none" stroke="#63b8ff" d="M2611.76,-157.33C2860.48,-158.15 3735.66,-157.32 4009.26,-107 4021.4,-104.77 4034.46,-100.45 4045.01,-96.44"/>
<polygon fill="#63b8ff" stroke="#63b8ff" points="2611.92,-153.83 2601.91,-157.29 2611.9,-160.83 2611.92,-153.83"/>
</g>
<!-- Node4&#45;&gt;Node14 -->
<g id="edge34" class="edge">
<title>Node4&#45;&gt;Node14</title>
<path fill="none" stroke="#63b8ff" d="M2611.79,-156.14C2908.35,-152.17 4096.56,-134.56 4123.26,-107 4135.94,-93.91 4131.6,-82.2 4123.26,-66 4113.22,-46.48 4091.63,-32.89 4075.06,-24.86"/>
<polygon fill="#63b8ff" stroke="#63b8ff" points="2611.85,-152.64 2601.9,-156.28 2611.94,-159.64 2611.85,-152.64"/>
</g>
<!-- Node18 -->
<g id="node9" class="node">
<title>Node18</title>
<g id="a_node9"><a xlink:href="d__a__obj__item_8cpp.html" target="_top" xlink:title=" ">
<polygon fill="white" stroke="#666666" points="3972.76,-24.5 3847.76,-24.5 3847.76,-5.5 3972.76,-5.5 3972.76,-24.5"/>
<text text-anchor="middle" x="3910.26" y="-12.5" font-family="Helvetica,sans-Serif" font-size="10.00">src/d/a/d_a_obj_item.cpp</text>
</a>
</g>
</g>
<!-- Node4&#45;&gt;Node18 -->
<g id="edge37" class="edge">
<title>Node4&#45;&gt;Node18</title>
<path fill="none" stroke="#63b8ff" d="M2611.83,-156.52C2838.39,-154.53 3570.95,-145.2 3669.26,-107 3695.73,-96.72 3693.02,-79.01 3718.26,-66 3759.14,-44.94 3809.6,-32.25 3848.53,-24.92"/>
<polygon fill="#63b8ff" stroke="#63b8ff" points="2611.96,-153.02 2601.99,-156.6 2612.02,-160.02 2611.96,-153.02"/>
</g>
<!-- Node19 -->
<g id="node10" class="node">
<title>Node19</title>
<g id="a_node10"><a xlink:href="d__com__inf__game_8cpp.html" target="_top" xlink:title=" ">
<polygon fill="white" stroke="#666666" points="4234.26,-30 4126.26,-30 4126.26,0 4234.26,0 4234.26,-30"/>
<text text-anchor="start" x="4134.26" y="-18" font-family="Helvetica,sans-Serif" font-size="10.00">src/d/com/d_com_inf</text>
<text text-anchor="middle" x="4180.26" y="-7" font-family="Helvetica,sans-Serif" font-size="10.00">_game.cpp</text>
</a>
</g>
</g>
<!-- Node4&#45;&gt;Node19 -->
<g id="edge43" class="edge">
<title>Node4&#45;&gt;Node19</title>
<path fill="none" stroke="#63b8ff" d="M2611.73,-156.88C2905.53,-156.12 4076.05,-150.37 4140.26,-107 4166.15,-89.52 4175.43,-51.27 4178.64,-30.35"/>
<polygon fill="#63b8ff" stroke="#63b8ff" points="2611.93,-153.38 2601.94,-156.91 2611.95,-160.38 2611.93,-153.38"/>
</g>
<!-- Node22 -->
<g id="node11" class="node">
<title>Node22</title>
<g id="a_node11"><a xlink:href="d__kantera__icon__meter_8h.html" target="_top" xlink:title=" ">
<polygon fill="#fff0f0" stroke="red" points="3827.76,-101.5 3726.76,-101.5 3726.76,-71.5 3827.76,-71.5 3827.76,-101.5"/>
<text text-anchor="start" x="3734.76" y="-89.5" font-family="Helvetica,sans-Serif" font-size="10.00">include/d/d_kantera</text>
<text text-anchor="middle" x="3777.26" y="-78.5" font-family="Helvetica,sans-Serif" font-size="10.00">_icon_meter.h</text>
</a>
</g>
</g>
<!-- Node4&#45;&gt;Node22 -->
<g id="edge10" class="edge">
<title>Node4&#45;&gt;Node22</title>
<path fill="none" stroke="#63b8ff" d="M2612.1,-156.32C2826.95,-153.78 3498.36,-143.09 3712.26,-107 3719.58,-105.77 3727.24,-103.96 3734.62,-101.93"/>
<polygon fill="#63b8ff" stroke="#63b8ff" points="2612.18,-152.82 2602.22,-156.43 2612.26,-159.82 2612.18,-152.82"/>
</g>
<!-- Node25 -->
<g id="node12" class="node">
<title>Node25</title>
<g id="a_node12"><a xlink:href="d__model_8h.html" target="_top" xlink:title=" ">
<polygon fill="#fff0f0" stroke="red" points="258.76,-96 155.76,-96 155.76,-77 258.76,-77 258.76,-96"/>
<text text-anchor="middle" x="207.26" y="-84" font-family="Helvetica,sans-Serif" font-size="10.00">include/d/d_model.h</text>
</a>
</g>
</g>
<!-- Node4&#45;&gt;Node25 -->
<g id="edge11" class="edge">
<title>Node4&#45;&gt;Node25</title>
<path fill="none" stroke="#63b8ff" d="M2478.47,-156.7C2125.99,-154.93 489.78,-144.76 267.26,-107 254.41,-104.82 240.55,-100.45 229.38,-96.4"/>
<polygon fill="#63b8ff" stroke="#63b8ff" points="2478.45,-160.2 2488.47,-156.74 2478.49,-153.2 2478.45,-160.2"/>
</g>
<!-- Node27 -->
<g id="node13" class="node">
<title>Node27</title>
<g id="a_node13"><a xlink:href="d__name_8h.html" target="_top" xlink:title=" ">
<polygon fill="#fff0f0" stroke="red" points="377.76,-96 276.76,-96 276.76,-77 377.76,-77 377.76,-96"/>
<text text-anchor="middle" x="327.26" y="-84" font-family="Helvetica,sans-Serif" font-size="10.00">include/d/d_name.h</text>
</a>
</g>
</g>
<!-- Node4&#45;&gt;Node27 -->
<g id="edge12" class="edge">
<title>Node4&#45;&gt;Node27</title>
<path fill="none" stroke="#63b8ff" d="M2478.45,-156.61C2137.25,-154.45 597.31,-142.77 387.26,-107 374.52,-104.83 360.78,-100.52 349.67,-96.5"/>
<polygon fill="#63b8ff" stroke="#63b8ff" points="2478.3,-160.11 2488.32,-156.67 2478.35,-153.11 2478.3,-160.11"/>
</g>
<!-- Node29 -->
<g id="node14" class="node">
<title>Node29</title>
<g id="a_node14"><a xlink:href="d__file__sel__info_8h.html" target="_top" xlink:title=" ">
<polygon fill="#fff0f0" stroke="red" points="492.26,-101.5 396.26,-101.5 396.26,-71.5 492.26,-71.5 492.26,-101.5"/>
<text text-anchor="start" x="404.26" y="-89.5" font-family="Helvetica,sans-Serif" font-size="10.00">include/d/file/d_file</text>
<text text-anchor="middle" x="444.26" y="-78.5" font-family="Helvetica,sans-Serif" font-size="10.00">_sel_info.h</text>
</a>
</g>
</g>
<!-- Node4&#45;&gt;Node29 -->
<g id="edge13" class="edge">
<title>Node4&#45;&gt;Node29</title>
<path fill="none" stroke="#63b8ff" d="M2478.52,-156.58C2148.53,-154.31 699.23,-142.42 501.26,-107 494.67,-105.82 487.82,-104.01 481.24,-101.96"/>
<polygon fill="#63b8ff" stroke="#63b8ff" points="2478.25,-160.07 2488.27,-156.64 2478.3,-153.07 2478.25,-160.07"/>
</g>
<!-- Node32 -->
<g id="node15" class="node">
<title>Node32</title>
<g id="a_node15"><a xlink:href="d__file__sel__warning_8h.html" target="_top" xlink:title=" ">
<polygon fill="#fff0f0" stroke="red" points="606.26,-101.5 510.26,-101.5 510.26,-71.5 606.26,-71.5 606.26,-101.5"/>
<text text-anchor="start" x="518.26" y="-89.5" font-family="Helvetica,sans-Serif" font-size="10.00">include/d/file/d_file</text>
<text text-anchor="middle" x="558.26" y="-78.5" font-family="Helvetica,sans-Serif" font-size="10.00">_sel_warning.h</text>
</a>
</g>
</g>
<!-- Node4&#45;&gt;Node32 -->
<g id="edge14" class="edge">
<title>Node4&#45;&gt;Node32</title>
<path fill="none" stroke="#63b8ff" d="M2478.94,-156.47C2161.11,-153.8 801.52,-140.46 615.26,-107 608.68,-105.82 601.82,-104.01 595.24,-101.96"/>
<polygon fill="#63b8ff" stroke="#63b8ff" points="2478.7,-159.97 2488.73,-156.56 2478.76,-152.97 2478.7,-159.97"/>
</g>
<!-- Node34 -->
<g id="node16" class="node">
<title>Node34</title>
<g id="a_node16"><a xlink:href="d__meter2_8h.html" target="_top" xlink:title=" ">
<polygon fill="#fff0f0" stroke="red" points="758.26,-96 624.26,-96 624.26,-77 758.26,-77 758.26,-96"/>
<text text-anchor="middle" x="691.26" y="-84" font-family="Helvetica,sans-Serif" font-size="10.00">include/d/meter/d_meter2.h</text>
</a>
</g>
</g>
<!-- Node4&#45;&gt;Node34 -->
<g id="edge15" class="edge">
<title>Node4&#45;&gt;Node34</title>
<path fill="none" stroke="#63b8ff" d="M2478.79,-156.97C2198.46,-156.58 1111.54,-152.12 772.26,-107 755.35,-104.75 736.81,-100.43 721.75,-96.43"/>
<polygon fill="#63b8ff" stroke="#63b8ff" points="2478.46,-160.47 2488.47,-156.99 2478.47,-153.47 2478.46,-160.47"/>
</g>
<!-- Node41 -->
<g id="node17" class="node">
<title>Node41</title>
<g id="a_node17"><a xlink:href="d__msg__object_8h.html" target="_top" xlink:title=" ">
<polygon fill="#fff0f0" stroke="red" points="1623.26,-101.5 1513.26,-101.5 1513.26,-71.5 1623.26,-71.5 1623.26,-101.5"/>
<text text-anchor="start" x="1521.26" y="-89.5" font-family="Helvetica,sans-Serif" font-size="10.00">include/d/msg/d_msg</text>
<text text-anchor="middle" x="1568.26" y="-78.5" font-family="Helvetica,sans-Serif" font-size="10.00">_object.h</text>
</a>
</g>
</g>
<!-- Node4&#45;&gt;Node41 -->
<g id="edge16" class="edge">
<title>Node4&#45;&gt;Node41</title>
<path fill="none" stroke="#63b8ff" d="M2478.58,-155.43C2296.72,-150.82 1794.96,-135.8 1632.26,-107 1625.17,-105.74 1617.76,-103.95 1610.6,-101.96"/>
<polygon fill="#63b8ff" stroke="#63b8ff" points="2478.23,-158.92 2488.31,-155.68 2478.41,-151.93 2478.23,-158.92"/>
</g>
<!-- Node48 -->
<g id="node18" class="node">
<title>Node48</title>
<g id="a_node18"><a xlink:href="d__demo_8cpp.html" target="_top" xlink:title=" ">
<polygon fill="white" stroke="#666666" points="1421.26,-24.5 1327.26,-24.5 1327.26,-5.5 1421.26,-5.5 1421.26,-24.5"/>
<text text-anchor="middle" x="1374.26" y="-12.5" font-family="Helvetica,sans-Serif" font-size="10.00">src/d/d_demo.cpp</text>
</a>
</g>
</g>
<!-- Node4&#45;&gt;Node48 -->
<g id="edge48" class="edge">
<title>Node4&#45;&gt;Node48</title>
<path fill="none" stroke="#63b8ff" d="M2478.66,-156.3C2167.66,-152.88 872.25,-136.85 843.26,-107 830.57,-93.93 831,-79.48 843.26,-66 875.52,-30.56 1202.79,-19.74 1326.89,-16.9"/>
<polygon fill="#63b8ff" stroke="#63b8ff" points="2478.61,-159.8 2488.65,-156.41 2478.69,-152.8 2478.61,-159.8"/>
</g>
<!-- Node49 -->
<g id="node19" class="node">
<title>Node49</title>
<g id="a_node19"><a xlink:href="d__event_8cpp.html" target="_top" xlink:title=" ">
<polygon fill="white" stroke="#666666" points="846.76,-24.5 725.76,-24.5 725.76,-5.5 846.76,-5.5 846.76,-24.5"/>
<text text-anchor="middle" x="786.26" y="-12.5" font-family="Helvetica,sans-Serif" font-size="10.00">src/d/event/d_event.cpp</text>
</a>
</g>
</g>
<!-- Node4&#45;&gt;Node49 -->
<g id="edge52" class="edge">
<title>Node4&#45;&gt;Node49</title>
<path fill="none" stroke="#63b8ff" d="M2478.42,-156.98C2170.49,-156.65 900.53,-152.52 830.26,-107 801.1,-88.11 790.73,-44 787.53,-24.99"/>
<polygon fill="#63b8ff" stroke="#63b8ff" points="2478.3,-160.48 2488.31,-156.99 2478.31,-153.48 2478.3,-160.48"/>
</g>
<!-- Node50 -->
<g id="node20" class="node">
<title>Node50</title>
<g id="a_node20"><a xlink:href="d__event__data_8cpp.html" target="_top" xlink:title=" ">
<polygon fill="white" stroke="#666666" points="3673.76,-30 3570.76,-30 3570.76,0 3673.76,0 3673.76,-30"/>
<text text-anchor="start" x="3578.76" y="-18" font-family="Helvetica,sans-Serif" font-size="10.00">src/d/event/d_event</text>
<text text-anchor="middle" x="3622.26" y="-7" font-family="Helvetica,sans-Serif" font-size="10.00">_data.cpp</text>
</a>
</g>
</g>
<!-- Node4&#45;&gt;Node50 -->
<g id="edge53" class="edge">
<title>Node4&#45;&gt;Node50</title>
<path fill="none" stroke="#63b8ff" d="M2611.93,-156.08C2838.29,-152.66 3565.49,-139.21 3603.26,-107 3625.37,-88.15 3625.78,-50.82 3624.08,-30.31"/>
<polygon fill="#63b8ff" stroke="#63b8ff" points="2612.05,-152.58 2602.1,-156.23 2612.15,-159.58 2612.05,-152.58"/>
</g>
<!-- Node57 -->
<g id="node21" class="node">
<title>Node57</title>
<g id="a_node21"><a xlink:href="d__s__logo_8h.html" target="_top" xlink:title=" ">
<polygon fill="#fff0f0" stroke="red" points="965.76,-96 852.76,-96 852.76,-77 965.76,-77 965.76,-96"/>
<text text-anchor="middle" x="909.26" y="-84" font-family="Helvetica,sans-Serif" font-size="10.00">include/d/s/d_s_logo.h</text>
</a>
</g>
</g>
<!-- Node4&#45;&gt;Node57 -->
<g id="edge22" class="edge">
<title>Node4&#45;&gt;Node57</title>
<path fill="none" stroke="#63b8ff" d="M2478.74,-157.18C2218.7,-157.51 1270.66,-155.33 974.26,-107 960.54,-104.76 945.66,-100.44 933.6,-96.44"/>
<polygon fill="#63b8ff" stroke="#63b8ff" points="2478.37,-160.68 2488.36,-157.16 2478.36,-153.68 2478.37,-160.68"/>
</g>
<!-- Node59 -->
<g id="node22" class="node">
<title>Node59</title>
<g id="a_node22"><a xlink:href="d__s__play_8h.html" target="_top" xlink:title=" ">
<polygon fill="#fff0f0" stroke="red" points="1096.76,-96 983.76,-96 983.76,-77 1096.76,-77 1096.76,-96"/>
<text text-anchor="middle" x="1040.26" y="-84" font-family="Helvetica,sans-Serif" font-size="10.00">include/d/s/d_s_play.h</text>
</a>
</g>
</g>
<!-- Node4&#45;&gt;Node59 -->
<g id="edge23" class="edge">
<title>Node4&#45;&gt;Node59</title>
<path fill="none" stroke="#63b8ff" d="M2478.67,-156.95C2232.57,-156.42 1374.81,-151.35 1105.26,-107 1091.55,-104.74 1076.66,-100.42 1064.61,-96.42"/>
<polygon fill="#63b8ff" stroke="#63b8ff" points="2478.4,-160.45 2488.41,-156.97 2478.41,-153.45 2478.4,-160.45"/>
</g>
<!-- Node65 -->
<g id="node23" class="node">
<title>Node65</title>
<g id="a_node23"><a xlink:href="d__msg__scrn__base_8h.html" target="_top" xlink:title=" ">
<polygon fill="#fff0f0" stroke="red" points="1213.76,-101.5 1114.76,-101.5 1114.76,-71.5 1213.76,-71.5 1213.76,-101.5"/>
<text text-anchor="start" x="1122.76" y="-89.5" font-family="Helvetica,sans-Serif" font-size="10.00">include/msg/scrn/d</text>
<text text-anchor="middle" x="1164.26" y="-78.5" font-family="Helvetica,sans-Serif" font-size="10.00">_msg_scrn_base.h</text>
</a>
</g>
</g>
<!-- Node4&#45;&gt;Node65 -->
<g id="edge24" class="edge">
<title>Node4&#45;&gt;Node65</title>
<path fill="none" stroke="#63b8ff" d="M2478.67,-157C2245.57,-156.6 1467.26,-151.85 1222.26,-107 1215.68,-105.79 1208.83,-104 1202.23,-101.98"/>
<polygon fill="#63b8ff" stroke="#63b8ff" points="2478.49,-160.5 2488.49,-157.01 2478.5,-153.5 2478.49,-160.5"/>
</g>
<!-- Node69 -->
<g id="node24" class="node">
<title>Node69</title>
<g id="a_node24"><a xlink:href="d__a__b__zant_8h.html" target="_top" xlink:title=" ">
<polygon fill="white" stroke="#666666" points="1352.76,-101.5 1231.76,-101.5 1231.76,-71.5 1352.76,-71.5 1352.76,-101.5"/>
<text text-anchor="start" x="1239.76" y="-89.5" font-family="Helvetica,sans-Serif" font-size="10.00">include/rel/d/a/b/d</text>
<text text-anchor="middle" x="1292.26" y="-78.5" font-family="Helvetica,sans-Serif" font-size="10.00">_a_b_zant/d_a_b_zant.h</text>
</a>
</g>
</g>
<!-- Node4&#45;&gt;Node69 -->
<g id="edge25" class="edge">
<title>Node4&#45;&gt;Node69</title>
<path fill="none" stroke="#63b8ff" d="M2478.29,-156.19C2261.39,-153.24 1579.7,-141.41 1362.26,-107 1354.41,-105.76 1346.19,-103.95 1338.25,-101.92"/>
<polygon fill="#63b8ff" stroke="#63b8ff" points="2478.22,-159.69 2488.27,-156.32 2478.32,-152.69 2478.22,-159.69"/>
</g>
<!-- Node70 -->
<g id="node25" class="node">
<title>Node70</title>
<g id="a_node25"><a xlink:href="d__a__skip__2D_8h.html" target="_top" xlink:title=" ">
<polygon fill="white" stroke="#666666" points="1495.26,-101.5 1371.26,-101.5 1371.26,-71.5 1495.26,-71.5 1495.26,-101.5"/>
<text text-anchor="start" x="1379.26" y="-89.5" font-family="Helvetica,sans-Serif" font-size="10.00">include/rel/d/a/d_a</text>
<text text-anchor="middle" x="1433.26" y="-78.5" font-family="Helvetica,sans-Serif" font-size="10.00">_skip_2D/d_a_skip_2D.h</text>
</a>
</g>
</g>
<!-- Node4&#45;&gt;Node70 -->
<g id="edge26" class="edge">
<title>Node4&#45;&gt;Node70</title>
<path fill="none" stroke="#63b8ff" d="M2478.37,-155.71C2279.34,-151.57 1693.03,-137.08 1504.26,-107 1496.44,-105.75 1488.24,-103.97 1480.3,-101.97"/>
<polygon fill="#63b8ff" stroke="#63b8ff" points="2478.22,-159.21 2488.29,-155.91 2478.36,-152.21 2478.22,-159.21"/>
</g>
<!-- Node71 -->
<g id="node26" class="node">
<title>Node71</title>
<g id="a_node26"><a xlink:href="d__a__spinner_8h.html" target="_top" xlink:title=" ">
<polygon fill="white" stroke="#666666" points="4000.26,-101.5 3884.26,-101.5 3884.26,-71.5 4000.26,-71.5 4000.26,-101.5"/>
<text text-anchor="start" x="3892.26" y="-89.5" font-family="Helvetica,sans-Serif" font-size="10.00">include/rel/d/a/d_a</text>
<text text-anchor="middle" x="3942.26" y="-78.5" font-family="Helvetica,sans-Serif" font-size="10.00">_spinner/d_a_spinner.h</text>
</a>
</g>
</g>
<!-- Node4&#45;&gt;Node71 -->
<g id="edge27" class="edge">
<title>Node4&#45;&gt;Node71</title>
<path fill="none" stroke="#63b8ff" d="M2612.02,-155.7C2841.36,-151.02 3596.2,-133.91 3837.26,-107 3852.47,-105.3 3868.77,-102.68 3883.9,-99.89"/>
<polygon fill="#63b8ff" stroke="#63b8ff" points="2611.97,-152.2 2602.05,-155.9 2612.12,-159.2 2611.97,-152.2"/>
</g>
<!-- Node72 -->
<g id="node27" class="node">
<title>Node72</title>
<g id="a_node27"><a xlink:href="d__a__player_8cpp.html" target="_top" xlink:title=" ">
<polygon fill="white" stroke="#666666" points="3814.26,-24.5 3700.26,-24.5 3700.26,-5.5 3814.26,-5.5 3814.26,-24.5"/>
<text text-anchor="middle" x="3757.26" y="-12.5" font-family="Helvetica,sans-Serif" font-size="10.00">src/d/a/d_a_player.cpp</text>
</a>
</g>
</g>
<!-- Node4&#45;&gt;Node72 -->
<g id="edge38" class="edge">
<title>Node4&#45;&gt;Node72</title>
<path fill="none" stroke="#63b8ff" d="M2612.13,-156.09C2833.02,-152.78 3530.74,-139.8 3626.26,-107 3656.12,-96.75 3658.35,-84.03 3684.26,-66 3705.07,-51.52 3729.38,-34.94 3744.04,-24.97"/>
<polygon fill="#63b8ff" stroke="#63b8ff" points="2612.2,-152.59 2602.25,-156.23 2612.3,-159.59 2612.2,-152.59"/>
</g>
<!-- Node73 -->
<g id="node28" class="node">
<title>Node73</title>
<g id="a_node28"><a xlink:href="d__a__obj__enemy__create_8h.html" target="_top" xlink:title=" ">
<polygon fill="white" stroke="#666666" points="1768.76,-107 1641.76,-107 1641.76,-66 1768.76,-66 1768.76,-107"/>
<text text-anchor="start" x="1649.76" y="-95" font-family="Helvetica,sans-Serif" font-size="10.00">include/rel/d/a/obj</text>
<text text-anchor="start" x="1649.76" y="-84" font-family="Helvetica,sans-Serif" font-size="10.00">/d_a_obj_enemy_create</text>
<text text-anchor="middle" x="1705.26" y="-73" font-family="Helvetica,sans-Serif" font-size="10.00">/d_a_obj_enemy_create.h</text>
</a>
</g>
</g>
<!-- Node4&#45;&gt;Node73 -->
<g id="edge30" class="edge">
<title>Node4&#45;&gt;Node73</title>
<path fill="none" stroke="#63b8ff" d="M2478.64,-157.11C2344.79,-156.36 2034.05,-149.69 1777.26,-107 1774.58,-106.55 1771.85,-106.05 1769.11,-105.5"/>
<polygon fill="#63b8ff" stroke="#63b8ff" points="2478.36,-160.61 2488.37,-157.16 2478.39,-153.61 2478.36,-160.61"/>
</g>
<!-- Node74 -->
<g id="node29" class="node">
<title>Node74</title>
<g id="a_node29"><a xlink:href="d__a__obj__yobikusa_8h.html" target="_top" xlink:title=" ">
<polygon fill="white" stroke="#666666" points="1891.76,-107 1786.76,-107 1786.76,-66 1891.76,-66 1891.76,-107"/>
<text text-anchor="start" x="1794.76" y="-95" font-family="Helvetica,sans-Serif" font-size="10.00">include/rel/d/a/obj</text>
<text text-anchor="start" x="1794.76" y="-84" font-family="Helvetica,sans-Serif" font-size="10.00">/d_a_obj_yobikusa/d</text>
<text text-anchor="middle" x="1839.26" y="-73" font-family="Helvetica,sans-Serif" font-size="10.00">_a_obj_yobikusa.h</text>
</a>
</g>
</g>
<!-- Node4&#45;&gt;Node74 -->
<g id="edge31" class="edge">
<title>Node4&#45;&gt;Node74</title>
<path fill="none" stroke="#63b8ff" d="M2478.7,-156.79C2361.09,-155.32 2109.31,-147.25 1901.26,-107 1898.27,-106.42 1895.22,-105.75 1892.16,-105.01"/>
<polygon fill="#63b8ff" stroke="#63b8ff" points="2478.44,-160.29 2488.48,-156.9 2478.52,-153.29 2478.44,-160.29"/>
</g>
<!-- Node75 -->
<g id="node30" class="node">
<title>Node75</title>
<g id="a_node30"><a xlink:href="d__a__tag__telop_8h.html" target="_top" xlink:title=" ">
<polygon fill="white" stroke="#666666" points="2028.26,-107 1910.26,-107 1910.26,-66 2028.26,-66 2028.26,-107"/>
<text text-anchor="start" x="1918.26" y="-95" font-family="Helvetica,sans-Serif" font-size="10.00">include/rel/d/a/tag</text>
<text text-anchor="start" x="1918.26" y="-84" font-family="Helvetica,sans-Serif" font-size="10.00">/d_a_tag_telop/d_a_tag</text>
<text text-anchor="middle" x="1969.26" y="-73" font-family="Helvetica,sans-Serif" font-size="10.00">_telop.h</text>
</a>
</g>
</g>
<!-- Node4&#45;&gt;Node75 -->
<g id="edge32" class="edge">
<title>Node4&#45;&gt;Node75</title>
<path fill="none" stroke="#63b8ff" d="M2478.46,-154.28C2380.81,-149.44 2193.68,-136.87 2037.26,-107 2034.37,-106.45 2031.42,-105.83 2028.45,-105.16"/>
<polygon fill="#63b8ff" stroke="#63b8ff" points="2478.25,-157.78 2488.41,-154.76 2478.59,-150.78 2478.25,-157.78"/>
</g>
<!-- Node76 -->
<g id="node31" class="node">
<title>Node76</title>
<g id="a_node31"><a xlink:href="c__dylink_8cpp.html" target="_top" xlink:title=" ">
<polygon fill="white" stroke="#666666" points="2141.76,-96 2046.76,-96 2046.76,-77 2141.76,-77 2141.76,-96"/>
<text text-anchor="middle" x="2094.26" y="-84" font-family="Helvetica,sans-Serif" font-size="10.00">src/c/c_dylink.cpp</text>
</a>
</g>
</g>
<!-- Node4&#45;&gt;Node76 -->
<g id="edge33" class="edge">
<title>Node4&#45;&gt;Node76</title>
<path fill="none" stroke="#63b8ff" d="M2478.59,-152.69C2399.65,-146.64 2264.58,-133.28 2151.26,-107 2139.75,-104.33 2127.3,-100.22 2116.97,-96.46"/>
<polygon fill="#63b8ff" stroke="#63b8ff" points="2478.08,-156.16 2488.32,-153.42 2478.6,-149.18 2478.08,-156.16"/>
</g>
<!-- Node77 -->
<g id="node32" class="node">
<title>Node77</title>
<g id="a_node32"><a xlink:href="d__a__itembase_8cpp.html" target="_top" xlink:title=" ">
<polygon fill="white" stroke="#666666" points="2288.26,-96 2160.26,-96 2160.26,-77 2288.26,-77 2288.26,-96"/>
<text text-anchor="middle" x="2224.26" y="-84" font-family="Helvetica,sans-Serif" font-size="10.00">src/d/a/d_a_itembase.cpp</text>
</a>
</g>
</g>
<!-- Node4&#45;&gt;Node77 -->
<g id="edge35" class="edge">
<title>Node4&#45;&gt;Node77</title>
<path fill="none" stroke="#63b8ff" d="M2478.89,-144.78C2428.8,-135.28 2358.49,-121.34 2297.26,-107 2283.73,-103.83 2268.88,-99.94 2256.14,-96.47"/>
<polygon fill="#63b8ff" stroke="#63b8ff" points="2477.93,-148.16 2488.4,-146.58 2479.23,-141.28 2477.93,-148.16"/>
</g>
<!-- Node78 -->
<g id="node33" class="node">
<title>Node78</title>
<g id="a_node33"><a xlink:href="d__a__obj_8cpp.html" target="_top" xlink:title=" ">
<polygon fill="white" stroke="#666666" points="2407.76,-96 2306.76,-96 2306.76,-77 2407.76,-77 2407.76,-96"/>
<text text-anchor="middle" x="2357.26" y="-84" font-family="Helvetica,sans-Serif" font-size="10.00">src/d/a/d_a_obj.cpp</text>
</a>
</g>
</g>
<!-- Node4&#45;&gt;Node78 -->
<g id="edge36" class="edge">
<title>Node4&#45;&gt;Node78</title>
<path fill="none" stroke="#63b8ff" d="M2495.79,-138.71C2458.98,-125.1 2410.32,-107.11 2381.55,-96.48"/>
<polygon fill="#63b8ff" stroke="#63b8ff" points="2494.3,-141.89 2504.89,-142.07 2496.72,-135.32 2494.3,-141.89"/>
</g>
<!-- Node79 -->
<g id="node34" class="node">
<title>Node79</title>
<g id="a_node34"><a xlink:href="d__bg__s_8cpp.html" target="_top" xlink:title=" ">
<polygon fill="white" stroke="#666666" points="2530.26,-96 2426.26,-96 2426.26,-77 2530.26,-77 2530.26,-96"/>
<text text-anchor="middle" x="2478.26" y="-84" font-family="Helvetica,sans-Serif" font-size="10.00">src/d/bg/d_bg_s.cpp</text>
</a>
</g>
</g>
<!-- Node4&#45;&gt;Node79 -->
<g id="edge39" class="edge">
<title>Node4&#45;&gt;Node79</title>
<path fill="none" stroke="#63b8ff" d="M2523.56,-134.49C2510.97,-121.43 2495.83,-105.72 2486.63,-96.18"/>
<polygon fill="#63b8ff" stroke="#63b8ff" points="2520.87,-136.74 2530.33,-141.51 2525.91,-131.88 2520.87,-136.74"/>
</g>
<!-- Node80 -->
<g id="node35" class="node">
<title>Node80</title>
<g id="a_node35"><a xlink:href="d__bg__s__movebg__actor_8cpp.html" target="_top" xlink:title=" ">
<polygon fill="white" stroke="#666666" points="2674.26,-101.5 2548.26,-101.5 2548.26,-71.5 2674.26,-71.5 2674.26,-101.5"/>
<text text-anchor="start" x="2556.26" y="-89.5" font-family="Helvetica,sans-Serif" font-size="10.00">src/d/bg/d_bg_s_movebg</text>
<text text-anchor="middle" x="2611.26" y="-78.5" font-family="Helvetica,sans-Serif" font-size="10.00">_actor.cpp</text>
</a>
</g>
</g>
<!-- Node4&#45;&gt;Node80 -->
<g id="edge40" class="edge">
<title>Node4&#45;&gt;Node80</title>
<path fill="none" stroke="#63b8ff" d="M2566.65,-134.48C2576.81,-123.78 2588.67,-111.29 2597.61,-101.88"/>
<polygon fill="#63b8ff" stroke="#63b8ff" points="2564.33,-131.84 2559.98,-141.5 2569.41,-136.66 2564.33,-131.84"/>
</g>
<!-- Node81 -->
<g id="node36" class="node">
<title>Node81</title>
<g id="a_node36"><a xlink:href="d__bg__w_8cpp.html" target="_top" xlink:title=" ">
<polygon fill="white" stroke="#666666" points="2799.76,-96 2692.76,-96 2692.76,-77 2799.76,-77 2799.76,-96"/>
<text text-anchor="middle" x="2746.26" y="-84" font-family="Helvetica,sans-Serif" font-size="10.00">src/d/bg/d_bg_w.cpp</text>
</a>
</g>
</g>
<!-- Node4&#45;&gt;Node81 -->
<g id="edge41" class="edge">
<title>Node4&#45;&gt;Node81</title>
<path fill="none" stroke="#63b8ff" d="M2597.66,-138.88C2637.07,-125.26 2689.41,-107.16 2720.3,-96.48"/>
<polygon fill="#63b8ff" stroke="#63b8ff" points="2596.65,-135.53 2588.34,-142.1 2598.94,-142.14 2596.65,-135.53"/>
</g>
<!-- Node82 -->
<g id="node37" class="node">
<title>Node82</title>
<g id="a_node37"><a xlink:href="d__cc__s_8cpp.html" target="_top" xlink:title=" ">
<polygon fill="white" stroke="#666666" points="2922.26,-96 2818.26,-96 2818.26,-77 2922.26,-77 2922.26,-96"/>
<text text-anchor="middle" x="2870.26" y="-84" font-family="Helvetica,sans-Serif" font-size="10.00">src/d/cc/d_cc_s.cpp</text>
</a>
</g>
</g>
<!-- Node4&#45;&gt;Node82 -->
<g id="edge42" class="edge">
<title>Node4&#45;&gt;Node82</title>
<path fill="none" stroke="#63b8ff" d="M2611.64,-146.74C2665.32,-137.89 2742.67,-123.88 2809.26,-107 2821.01,-104.02 2833.81,-100.04 2844.64,-96.46"/>
<polygon fill="#63b8ff" stroke="#63b8ff" points="2611.35,-143.24 2602.05,-148.31 2612.48,-150.15 2611.35,-143.24"/>
</g>
<!-- Node83 -->
<g id="node38" class="node">
<title>Node83</title>
<g id="a_node38"><a xlink:href="d__com__static_8cpp.html" target="_top" xlink:title=" ">
<polygon fill="white" stroke="#666666" points="3080.26,-96 2940.26,-96 2940.26,-77 3080.26,-77 3080.26,-96"/>
<text text-anchor="middle" x="3010.26" y="-84" font-family="Helvetica,sans-Serif" font-size="10.00">src/d/com/d_com_static.cpp</text>
</a>
</g>
</g>
<!-- Node4&#45;&gt;Node83 -->
<g id="edge44" class="edge">
<title>Node4&#45;&gt;Node83</title>
<path fill="none" stroke="#63b8ff" d="M2611.53,-150.72C2688.71,-142.88 2819.85,-127.9 2931.26,-107 2946.54,-104.14 2963.27,-100.13 2977.39,-96.5"/>
<polygon fill="#63b8ff" stroke="#63b8ff" points="2611.65,-147.19 2602.05,-151.67 2612.35,-154.16 2611.65,-147.19"/>
</g>
<!-- Node4&#45;&gt;Node84 -->
<g id="edge45" class="edge">
<title>Node4&#45;&gt;Node84</title>
<path fill="none" stroke="#63b8ff" d="M2478.46,-156.74C2114.82,-155.16 381.56,-145.64 146.26,-107 133.01,-104.82 118.69,-100.46 107.14,-96.41"/>
<polygon fill="#63b8ff" stroke="#63b8ff" points="2478.29,-160.24 2488.3,-156.78 2478.32,-153.24 2478.29,-160.24"/>
</g>
<!-- Node85 -->
<g id="node40" class="node">
<title>Node85</title>
<g id="a_node40"><a xlink:href="d__cam__param_8cpp.html" target="_top" xlink:title=" ">
<polygon fill="white" stroke="#666666" points="4608.76,-96 4487.76,-96 4487.76,-77 4608.76,-77 4608.76,-96"/>
<text text-anchor="middle" x="4548.26" y="-84" font-family="Helvetica,sans-Serif" font-size="10.00">src/d/d_cam_param.cpp</text>
</a>
</g>
</g>
<!-- Node4&#45;&gt;Node85 -->
<g id="edge46" class="edge">
<title>Node4&#45;&gt;Node85</title>
<path fill="none" stroke="#63b8ff" d="M2611.69,-156.27C2930.01,-152.62 4291.78,-135.46 4479.26,-107 4493.79,-104.8 4509.58,-100.48 4522.39,-96.47"/>
<polygon fill="#63b8ff" stroke="#63b8ff" points="2611.84,-152.76 2601.88,-156.38 2611.92,-159.76 2611.84,-152.76"/>
</g>
<!-- Node86 -->
<g id="node41" class="node">
<title>Node86</title>
<g id="a_node41"><a xlink:href="d__camera_8cpp.html" target="_top" xlink:title=" ">
<polygon fill="white" stroke="#666666" points="4348.26,-96 4246.26,-96 4246.26,-77 4348.26,-77 4348.26,-96"/>
<text text-anchor="middle" x="4297.26" y="-84" font-family="Helvetica,sans-Serif" font-size="10.00">src/d/d_camera.cpp</text>
</a>
</g>
</g>
<!-- Node4&#45;&gt;Node86 -->
<g id="edge47" class="edge">
<title>Node4&#45;&gt;Node86</title>
<path fill="none" stroke="#63b8ff" d="M2612.24,-156.37C2880.74,-153.63 3879.87,-141.31 4194.26,-107 4215.43,-104.69 4238.77,-100.42 4257.86,-96.46"/>
<polygon fill="#63b8ff" stroke="#63b8ff" points="2612.23,-152.87 2602.27,-156.47 2612.3,-159.87 2612.23,-152.87"/>
</g>
<!-- Node87 -->
<g id="node42" class="node">
<title>Node87</title>
<g id="a_node42"><a xlink:href="d__eye__hl_8cpp.html" target="_top" xlink:title=" ">
<polygon fill="white" stroke="#666666" points="3196.26,-96 3098.26,-96 3098.26,-77 3196.26,-77 3196.26,-96"/>
<text text-anchor="middle" x="3147.26" y="-84" font-family="Helvetica,sans-Serif" font-size="10.00">src/d/d_eye_hl.cpp</text>
</a>
</g>
</g>
<!-- Node4&#45;&gt;Node87 -->
<g id="edge49" class="edge">
<title>Node4&#45;&gt;Node87</title>
<path fill="none" stroke="#63b8ff" d="M2612.22,-155.84C2715.62,-152.93 2919.94,-142.74 3089.26,-107 3101.22,-104.48 3114.14,-100.29 3124.74,-96.43"/>
<polygon fill="#63b8ff" stroke="#63b8ff" points="2612.14,-152.34 2602.23,-156.1 2612.32,-159.34 2612.14,-152.34"/>
</g>
<!-- Node88 -->
<g id="node43" class="node">
<title>Node88</title>
<g id="a_node43"><a xlink:href="d__insect_8cpp.html" target="_top" xlink:title=" ">
<polygon fill="white" stroke="#666666" points="3310.26,-96 3214.26,-96 3214.26,-77 3310.26,-77 3310.26,-96"/>
<text text-anchor="middle" x="3262.26" y="-84" font-family="Helvetica,sans-Serif" font-size="10.00">src/d/d_insect.cpp</text>
</a>
</g>
</g>
<!-- Node4&#45;&gt;Node88 -->
<g id="edge50" class="edge">
<title>Node4&#45;&gt;Node88</title>
<path fill="none" stroke="#63b8ff" d="M2611.84,-157.5C2731.78,-157.19 2991.54,-150.91 3205.26,-107 3217.15,-104.56 3229.97,-100.33 3240.43,-96.43"/>
<polygon fill="#63b8ff" stroke="#63b8ff" points="2612.19,-154 2602.19,-157.52 2612.19,-161 2612.19,-154"/>
</g>
<!-- Node89 -->
<g id="node44" class="node">
<title>Node89</title>
<g id="a_node44"><a xlink:href="d__kyeff_8cpp.html" target="_top" xlink:title=" ">
<polygon fill="white" stroke="#666666" points="3418.26,-96 3328.26,-96 3328.26,-77 3418.26,-77 3418.26,-96"/>
<text text-anchor="middle" x="3373.26" y="-84" font-family="Helvetica,sans-Serif" font-size="10.00">src/d/d_kyeff.cpp</text>
</a>
</g>
</g>
<!-- Node4&#45;&gt;Node89 -->
<g id="edge51" class="edge">
<title>Node4&#45;&gt;Node89</title>
<path fill="none" stroke="#63b8ff" d="M2611.79,-155.11C2773.72,-150.12 3184.9,-135.01 3319.26,-107 3330.58,-104.64 3342.73,-100.42 3352.63,-96.5"/>
<polygon fill="#63b8ff" stroke="#63b8ff" points="2611.97,-151.6 2602.08,-155.4 2612.19,-158.6 2611.97,-151.6"/>
</g>
<!-- Node98 -->
<g id="node45" class="node">
<title>Node98</title>
<g id="a_node45"><a xlink:href="d__event__manager_8cpp.html" target="_top" xlink:title=" ">
<polygon fill="white" stroke="#666666" points="4469.76,-101.5 4366.76,-101.5 4366.76,-71.5 4469.76,-71.5 4469.76,-101.5"/>
<text text-anchor="start" x="4374.76" y="-89.5" font-family="Helvetica,sans-Serif" font-size="10.00">src/d/event/d_event</text>
<text text-anchor="middle" x="4418.26" y="-78.5" font-family="Helvetica,sans-Serif" font-size="10.00">_manager.cpp</text>
</a>
</g>
</g>
<!-- Node4&#45;&gt;Node98 -->
<g id="edge54" class="edge">
<title>Node4&#45;&gt;Node98</title>
<path fill="none" stroke="#63b8ff" d="M2611.94,-156.27C2918.25,-152.78 4182.96,-136.65 4357.26,-107 4364.28,-105.81 4371.6,-103.99 4378.63,-101.94"/>
<polygon fill="#63b8ff" stroke="#63b8ff" points="2612.08,-152.77 2602.12,-156.38 2612.16,-159.77 2612.08,-152.77"/>
</g>
<!-- Node17&#45;&gt;Node14 -->
<g id="edge7" class="edge">
<title>Node17&#45;&gt;Node14</title>
<path fill="none" stroke="#63b8ff" d="M4062.56,-65.71C4060.05,-52.29 4056.85,-35.2 4054.94,-24.95"/>
<polygon fill="#63b8ff" stroke="#63b8ff" points="4059.06,-66.02 4064.34,-75.21 4065.94,-64.74 4059.06,-66.02"/>
</g>
<!-- Node17&#45;&gt;Node18 -->
<g id="edge8" class="edge">
<title>Node17&#45;&gt;Node18</title>
<path fill="none" stroke="#63b8ff" d="M4035.9,-71.97C4004.7,-58.07 3957.02,-36.83 3930.26,-24.91"/>
<polygon fill="#63b8ff" stroke="#63b8ff" points="4034.25,-75.07 4044.81,-75.94 4037.1,-68.67 4034.25,-75.07"/>
</g>
<!-- Node17&#45;&gt;Node19 -->
<g id="edge9" class="edge">
<title>Node17&#45;&gt;Node19</title>
<path fill="none" stroke="#63b8ff" d="M4090.41,-70.78C4110,-58.83 4137.46,-42.1 4156.85,-30.27"/>
<polygon fill="#63b8ff" stroke="#63b8ff" points="4088.71,-67.72 4081.99,-75.91 4092.35,-73.69 4088.71,-67.72"/>
</g>
<!-- Node41&#45;&gt;Node5 -->
<g id="edge17" class="edge">
<title>Node41&#45;&gt;Node5</title>
<path fill="none" stroke="#63b8ff" d="M1618.83,-67.38C1656.88,-53.76 1707.39,-35.66 1737.2,-24.98"/>
<polygon fill="#63b8ff" stroke="#63b8ff" points="1618.12,-63.92 1609.89,-70.59 1620.48,-70.51 1618.12,-63.92"/>
</g>
<!-- Node41&#45;&gt;Node14 -->
<g id="edge18" class="edge">
<title>Node41&#45;&gt;Node14</title>
<path fill="none" stroke="#63b8ff" d="M1620.55,-68.28C1624.48,-67.38 1628.42,-66.6 1632.26,-66 2148.24,14.91 3462.86,-84.74 3982.26,-30 3992.76,-28.89 4004.01,-27.01 4014.39,-24.97"/>
<polygon fill="#63b8ff" stroke="#63b8ff" points="1619.82,-64.85 1610.99,-70.71 1621.55,-71.64 1619.82,-64.85"/>
</g>
<!-- Node41&#45;&gt;Node48 -->
<g id="edge19" class="edge">
<title>Node41&#45;&gt;Node48</title>
<path fill="none" stroke="#63b8ff" d="M1517.7,-67.38C1479.65,-53.76 1429.14,-35.66 1399.33,-24.98"/>
<polygon fill="#63b8ff" stroke="#63b8ff" points="1516.05,-70.51 1526.64,-70.59 1518.41,-63.92 1516.05,-70.51"/>
</g>
<!-- Node41&#45;&gt;Node49 -->
<g id="edge20" class="edge">
<title>Node41&#45;&gt;Node49</title>
<path fill="none" stroke="#63b8ff" d="M1514.55,-68.18C1511.09,-67.36 1507.64,-66.62 1504.26,-66 1263.73,-21.57 971.24,-15.85 846.89,-15.62"/>
<polygon fill="#63b8ff" stroke="#63b8ff" points="1513.54,-71.54 1524.1,-70.65 1515.29,-64.76 1513.54,-71.54"/>
</g>
<!-- Node41&#45;&gt;Node50 -->
<g id="edge21" class="edge">
<title>Node41&#45;&gt;Node50</title>
<path fill="none" stroke="#63b8ff" d="M1620.73,-68.28C1624.61,-67.39 1628.48,-66.61 1632.26,-66 1828.32,-34.27 3276.84,-19.21 3570.45,-16.46"/>
<polygon fill="#63b8ff" stroke="#63b8ff" points="1620.17,-64.81 1611.35,-70.68 1621.9,-71.6 1620.17,-64.81"/>
</g>
<!-- Node71&#45;&gt;Node14 -->
<g id="edge28" class="edge">
<title>Node71&#45;&gt;Node14</title>
<path fill="none" stroke="#63b8ff" d="M3974.92,-65.06C3996.23,-51.71 4023,-34.95 4039.08,-24.88"/>
<polygon fill="#63b8ff" stroke="#63b8ff" points="3973.16,-62.02 3966.55,-70.3 3976.88,-67.96 3973.16,-62.02"/>
</g>
<!-- Node71&#45;&gt;Node72 -->
<g id="edge29" class="edge">
<title>Node71&#45;&gt;Node72</title>
<path fill="none" stroke="#63b8ff" d="M3893.58,-67.21C3857.35,-53.6 3809.47,-35.61 3781.16,-24.98"/>
<polygon fill="#63b8ff" stroke="#63b8ff" points="3891.92,-70.33 3902.52,-70.57 3894.38,-63.77 3891.92,-70.33"/>
</g>
<!-- Node116&#45;&gt;Node85 -->
<g id="edge67" class="edge">
<title>Node116&#45;&gt;Node85</title>
<path fill="none" stroke="#63b8ff" d="M3938.97,-331.36C3994.08,-312.23 4101.34,-274.39 4191.26,-239 4320.95,-187.96 4474.33,-120.41 4528.29,-96.42"/>
<polygon fill="#63b8ff" stroke="#63b8ff" points="3938.08,-327.97 3929.77,-334.55 3940.37,-334.58 3938.08,-327.97"/>
</g>
<!-- Node116&#45;&gt;Node117 -->
<g id="edge60" class="edge">
<title>Node116&#45;&gt;Node117</title>
<path fill="none" stroke="#63b8ff" d="M3888.49,-326.48C3880.1,-315.81 3869.75,-302.65 3863.08,-294.17"/>
<polygon fill="#63b8ff" stroke="#63b8ff" points="3885.61,-328.48 3894.54,-334.18 3891.11,-324.15 3885.61,-328.48"/>
</g>
<!-- Node117&#45;&gt;Node49 -->
<g id="edge64" class="edge">
<title>Node117&#45;&gt;Node49</title>
<path fill="none" stroke="#63b8ff" d="M3790.34,-283.03C3293.78,-279.21 156.41,-249.48 21.26,-107 8.72,-93.78 8.81,-79.3 21.26,-66 69.01,-15.04 552.63,-14.03 725.36,-15.32"/>
<polygon fill="#63b8ff" stroke="#63b8ff" points="3790.03,-286.53 3800.06,-283.11 3790.08,-279.53 3790.03,-286.53"/>
</g>
<!-- Node117&#45;&gt;Node50 -->
<g id="edge65" class="edge">
<title>Node117&#45;&gt;Node50</title>
<path fill="none" stroke="#63b8ff" d="M3861.42,-263.52C3870.99,-221.36 3886.34,-122.56 3837.26,-66 3831.85,-59.76 3736.11,-39.23 3674.23,-26.5"/>
<polygon fill="#63b8ff" stroke="#63b8ff" points="3858.02,-262.66 3859.07,-273.2 3864.83,-264.31 3858.02,-262.66"/>
</g>
<!-- Node117&#45;&gt;Node86 -->
<g id="edge63" class="edge">
<title>Node117&#45;&gt;Node86</title>
<path fill="none" stroke="#63b8ff" d="M3922.29,-276.76C4001.87,-265.94 4136.81,-238.77 4232.26,-173 4262.21,-152.37 4284.25,-113.56 4293.05,-96.24"/>
<polygon fill="#63b8ff" stroke="#63b8ff" points="3921.92,-273.27 3912.46,-278.04 3922.83,-280.22 3921.92,-273.27"/>
</g>
<!-- Node117&#45;&gt;Node98 -->
<g id="edge66" class="edge">
<title>Node117&#45;&gt;Node98</title>
<path fill="none" stroke="#63b8ff" d="M3922.71,-279.86C3982.12,-275.07 4070.88,-264.07 4144.26,-239 4246.11,-204.21 4354.32,-132.61 4398.13,-101.95"/>
<polygon fill="#63b8ff" stroke="#63b8ff" points="3922.45,-276.37 3912.74,-280.63 3922.98,-283.35 3922.45,-276.37"/>
</g>
<!-- Node118 -->
<g id="node49" class="node">
<title>Node118</title>
<g id="a_node49"><a xlink:href="f__op__camera__mng_8h.html" target="_top" xlink:title=" ">
<polygon fill="#fff0f0" stroke="red" points="2655.26,-239 2527.26,-239 2527.26,-209 2655.26,-209 2655.26,-239"/>
<text text-anchor="start" x="2535.26" y="-227" font-family="Helvetica,sans-Serif" font-size="10.00">include/f_op/f_op_camera</text>
<text text-anchor="middle" x="2591.26" y="-216" font-family="Helvetica,sans-Serif" font-size="10.00">_mng.h</text>
</a>
</g>
</g>
<!-- Node117&#45;&gt;Node118 -->
<g id="edge61" class="edge">
<title>Node117&#45;&gt;Node118</title>
<path fill="none" stroke="#63b8ff" d="M3790,-282.36C3573,-278.4 2884.99,-264.14 2664.26,-239 2661.44,-238.68 2658.57,-238.31 2655.67,-237.9"/>
<polygon fill="#63b8ff" stroke="#63b8ff" points="3789.92,-285.85 3799.98,-282.54 3790.05,-278.86 3789.92,-285.85"/>
</g>
<!-- Node118&#45;&gt;Node4 -->
<g id="edge62" class="edge">
<title>Node118&#45;&gt;Node4</title>
<path fill="none" stroke="#63b8ff" d="M2574.5,-199.68C2568.12,-190.79 2561.04,-180.95 2555.44,-173.16"/>
<polygon fill="#63b8ff" stroke="#63b8ff" points="2571.49,-201.49 2580.17,-207.57 2577.18,-197.4 2571.49,-201.49"/>
</g>
</g>
</svg>
