<?xml version="1.0" encoding="UTF-8" standalone="no"?>
<!DOCTYPE svg PUBLIC "-//W3C//DTD SVG 1.1//EN"
 "http://www.w3.org/Graphics/SVG/1.1/DTD/svg11.dtd">
<!-- Generated by graphviz version 7.0.5 (20221223.1930)
 -->
<!-- Title: include/SSystem/SComponent/c_bg_s_gnd_chk.h Pages: 1 -->
<svg width="3995pt" height="621pt"
 viewBox="0.00 0.00 3995.00 621.00" xmlns="http://www.w3.org/2000/svg" xmlns:xlink="http://www.w3.org/1999/xlink">
<g id="graph0" class="graph" transform="scale(1 1) rotate(0) translate(4 617)">
<title>include/SSystem/SComponent/c_bg_s_gnd_chk.h</title>
<!-- Node1 -->
<g id="node1" class="node">
<title>Node1</title>
<g id="a_node1"><a xlink:title=" ">
<polygon fill="#999999" stroke="#666666" points="3422.5,-613 3273.5,-613 3273.5,-583 3422.5,-583 3422.5,-613"/>
<text text-anchor="start" x="3281.5" y="-601" font-family="Helvetica,sans-Serif" font-size="10.00">include/SSystem/SComponent</text>
<text text-anchor="middle" x="3348" y="-590" font-family="Helvetica,sans-Serif" font-size="10.00">/c_bg_s_gnd_chk.h</text>
</a>
</g>
</g>
<!-- Node2 -->
<g id="node2" class="node">
<title>Node2</title>
<g id="a_node2"><a xlink:href="d__bg__s_8h.html" target="_top" xlink:title=" ">
<polygon fill="white" stroke="#666666" points="2691.5,-283 2580.5,-283 2580.5,-264 2691.5,-264 2691.5,-283"/>
<text text-anchor="middle" x="2636" y="-271" font-family="Helvetica,sans-Serif" font-size="10.00">include/d/bg/d_bg_s.h</text>
</a>
</g>
</g>
<!-- Node1&#45;&gt;Node2 -->
<g id="edge1" class="edge">
<title>Node1&#45;&gt;Node2</title>
<path fill="none" stroke="#63b8ff" d="M3262,-591.16C3063.45,-576.52 2590,-534.53 2590,-467 2590,-467 2590,-467 2590,-399 2590,-353.14 2617.8,-303.35 2630.17,-283.45"/>
<polygon fill="#63b8ff" stroke="#63b8ff" points="3261.51,-594.63 3271.74,-591.87 3262.02,-587.65 3261.51,-594.63"/>
</g>
<!-- Node122 -->
<g id="node40" class="node">
<title>Node122</title>
<g id="a_node40"><a xlink:href="d__bg__s__gnd__chk_8h.html" target="_top" xlink:title=" ">
<polygon fill="white" stroke="#666666" points="3400,-547 3296,-547 3296,-517 3400,-517 3400,-547"/>
<text text-anchor="start" x="3304" y="-535" font-family="Helvetica,sans-Serif" font-size="10.00">include/d/bg/d_bg_s</text>
<text text-anchor="middle" x="3348" y="-524" font-family="Helvetica,sans-Serif" font-size="10.00">_gnd_chk.h</text>
</a>
</g>
</g>
<!-- Node1&#45;&gt;Node122 -->
<g id="edge50" class="edge">
<title>Node1&#45;&gt;Node122</title>
<path fill="none" stroke="#63b8ff" d="M3348,-571.39C3348,-563.13 3348,-554.28 3348,-547.16"/>
<polygon fill="#63b8ff" stroke="#63b8ff" points="3344.5,-571.28 3348,-581.28 3351.5,-571.28 3344.5,-571.28"/>
</g>
<!-- Node135 -->
<g id="node42" class="node">
<title>Node135</title>
<g id="a_node42"><a xlink:href="d__bg__w_8h.html" target="_top" xlink:title=" ">
<polygon fill="white" stroke="#666666" points="3527.5,-343.5 3414.5,-343.5 3414.5,-324.5 3527.5,-324.5 3527.5,-343.5"/>
<text text-anchor="middle" x="3471" y="-331.5" font-family="Helvetica,sans-Serif" font-size="10.00">include/d/bg/d_bg_w.h</text>
</a>
</g>
</g>
<!-- Node1&#45;&gt;Node135 -->
<g id="edge65" class="edge">
<title>Node1&#45;&gt;Node135</title>
<path fill="none" stroke="#63b8ff" d="M3286.64,-578.89C3217.11,-555.11 3118.4,-509.41 3159,-451 3216.64,-368.08 3340.97,-344.31 3414.08,-337.58"/>
<polygon fill="#63b8ff" stroke="#63b8ff" points="3285.49,-582.2 3296.09,-582.04 3287.71,-575.56 3285.49,-582.2"/>
</g>
<!-- Node139 -->
<g id="node45" class="node">
<title>Node139</title>
<g id="a_node45"><a xlink:href="d__bg__w__base_8h.html" target="_top" xlink:title=" ">
<polygon fill="white" stroke="#666666" points="3605,-415 3499,-415 3499,-385 3605,-385 3605,-415"/>
<text text-anchor="start" x="3507" y="-403" font-family="Helvetica,sans-Serif" font-size="10.00">include/d/bg/d_bg_w</text>
<text text-anchor="middle" x="3552" y="-392" font-family="Helvetica,sans-Serif" font-size="10.00">_base.h</text>
</a>
</g>
</g>
<!-- Node1&#45;&gt;Node139 -->
<g id="edge66" class="edge">
<title>Node1&#45;&gt;Node139</title>
<path fill="none" stroke="#63b8ff" d="M3398.46,-578.18C3440.77,-559.8 3499.5,-527.72 3533,-481 3547.14,-461.28 3550.88,-432.47 3551.79,-415.34"/>
<polygon fill="#63b8ff" stroke="#63b8ff" points="3397.33,-574.86 3389.48,-581.97 3400.05,-581.31 3397.33,-574.86"/>
</g>
<!-- Node159 -->
<g id="node50" class="node">
<title>Node159</title>
<g id="a_node50"><a xlink:href="c__bg__s__gnd__chk_8cpp.html" target="_top" xlink:title=" ">
<polygon fill="white" stroke="#666666" points="3714,-547 3580,-547 3580,-517 3714,-517 3714,-547"/>
<text text-anchor="start" x="3588" y="-535" font-family="Helvetica,sans-Serif" font-size="10.00">libs/SSystem/SComponent</text>
<text text-anchor="middle" x="3647" y="-524" font-family="Helvetica,sans-Serif" font-size="10.00">/c_bg_s_gnd_chk.cpp</text>
</a>
</g>
</g>
<!-- Node1&#45;&gt;Node159 -->
<g id="edge67" class="edge">
<title>Node1&#45;&gt;Node159</title>
<path fill="none" stroke="#63b8ff" d="M3426.65,-580.16C3474.18,-569.99 3534.14,-557.16 3579.51,-547.45"/>
<polygon fill="#63b8ff" stroke="#63b8ff" points="3426,-576.72 3416.95,-582.24 3427.47,-583.57 3426,-576.72"/>
</g>
<!-- Node3 -->
<g id="node3" class="node">
<title>Node3</title>
<g id="a_node3"><a xlink:href="d__a__alink_8h.html" target="_top" xlink:title=" ">
<polygon fill="white" stroke="#666666" points="2694,-222.5 2578,-222.5 2578,-203.5 2694,-203.5 2694,-222.5"/>
<text text-anchor="middle" x="2636" y="-210.5" font-family="Helvetica,sans-Serif" font-size="10.00">include/d/a/d_a_alink.h</text>
</a>
</g>
</g>
<!-- Node2&#45;&gt;Node3 -->
<g id="edge2" class="edge">
<title>Node2&#45;&gt;Node3</title>
<path fill="none" stroke="#63b8ff" d="M2636,-252.66C2636,-242.45 2636,-230.54 2636,-222.67"/>
<polygon fill="#63b8ff" stroke="#63b8ff" points="2632.5,-252.35 2636,-262.35 2639.5,-252.35 2632.5,-252.35"/>
</g>
<!-- Node4 -->
<g id="node4" class="node">
<title>Node4</title>
<g id="a_node4"><a xlink:href="d__com__inf__game_8h.html" target="_top" xlink:title=" ">
<polygon fill="#fff0f0" stroke="red" points="2368,-162 2258,-162 2258,-132 2368,-132 2368,-162"/>
<text text-anchor="start" x="2266" y="-150" font-family="Helvetica,sans-Serif" font-size="10.00">include/d/com/d_com</text>
<text text-anchor="middle" x="2313" y="-139" font-family="Helvetica,sans-Serif" font-size="10.00">_inf_game.h</text>
</a>
</g>
</g>
<!-- Node2&#45;&gt;Node4 -->
<g id="edge44" class="edge">
<title>Node2&#45;&gt;Node4</title>
<path fill="none" stroke="#63b8ff" d="M2602.22,-259.48C2541.39,-236.03 2413.89,-186.89 2350.48,-162.45"/>
<polygon fill="#63b8ff" stroke="#63b8ff" points="2600.77,-262.67 2611.36,-263 2603.29,-256.14 2600.77,-262.67"/>
</g>
<!-- Node83 -->
<g id="node34" class="node">
<title>Node83</title>
<g id="a_node34"><a xlink:href="d__bg__s_8cpp.html" target="_top" xlink:title=" ">
<polygon fill="white" stroke="#666666" points="104,-85 0,-85 0,-66 104,-66 104,-85"/>
<text text-anchor="middle" x="52" y="-73" font-family="Helvetica,sans-Serif" font-size="10.00">src/d/bg/d_bg_s.cpp</text>
</a>
</g>
</g>
<!-- Node2&#45;&gt;Node83 -->
<g id="edge48" class="edge">
<title>Node2&#45;&gt;Node83</title>
<path fill="none" stroke="#63b8ff" d="M2583.58,-261.17C2503.49,-244.35 2345.66,-213.13 2210,-198 1291.03,-95.49 1047.09,-228.75 132,-96 115.59,-93.62 97.62,-89.39 82.88,-85.48"/>
<polygon fill="#63b8ff" stroke="#63b8ff" points="2582.83,-264.59 2593.34,-263.23 2584.28,-257.74 2582.83,-264.59"/>
</g>
<!-- Node120 -->
<g id="node38" class="node">
<title>Node120</title>
<g id="a_node38"><a xlink:href="d__a__horse_8h.html" target="_top" xlink:title=" ">
<polygon fill="#fff0f0" stroke="red" points="3836.5,-162 3735.5,-162 3735.5,-132 3836.5,-132 3836.5,-162"/>
<text text-anchor="start" x="3743.5" y="-150" font-family="Helvetica,sans-Serif" font-size="10.00">include/rel/d/a/d_a</text>
<text text-anchor="middle" x="3786" y="-139" font-family="Helvetica,sans-Serif" font-size="10.00">_horse/d_a_horse.h</text>
</a>
</g>
</g>
<!-- Node2&#45;&gt;Node120 -->
<g id="edge45" class="edge">
<title>Node2&#45;&gt;Node120</title>
<path fill="none" stroke="#63b8ff" d="M2702.97,-266.13C2869.09,-250.19 3313.37,-206.62 3683,-162 3700.02,-159.95 3718.59,-157.49 3735.22,-155.21"/>
<polygon fill="#63b8ff" stroke="#63b8ff" points="2703.09,-262.61 2693.47,-267.04 2703.76,-269.57 2703.09,-262.61"/>
</g>
<!-- Node121 -->
<g id="node39" class="node">
<title>Node121</title>
<g id="a_node39"><a xlink:href="d__bg__s__acch_8cpp.html" target="_top" xlink:title=" ">
<polygon fill="white" stroke="#666666" points="2201.5,-222.5 2070.5,-222.5 2070.5,-203.5 2201.5,-203.5 2201.5,-222.5"/>
<text text-anchor="middle" x="2136" y="-210.5" font-family="Helvetica,sans-Serif" font-size="10.00">src/d/bg/d_bg_s_acch.cpp</text>
</a>
</g>
</g>
<!-- Node2&#45;&gt;Node121 -->
<g id="edge49" class="edge">
<title>Node2&#45;&gt;Node121</title>
<path fill="none" stroke="#63b8ff" d="M2569.06,-264.34C2568.03,-264.23 2567.01,-264.11 2566,-264 2410.6,-246.57 2370.89,-249.49 2216,-228 2205.67,-226.57 2194.62,-224.79 2184.14,-222.99"/>
<polygon fill="#63b8ff" stroke="#63b8ff" points="2568.39,-267.79 2578.72,-265.46 2569.19,-260.84 2568.39,-267.79"/>
</g>
<!-- Node3&#45;&gt;Node4 -->
<g id="edge3" class="edge">
<title>Node3&#45;&gt;Node4</title>
<path fill="none" stroke="#63b8ff" d="M2579.71,-200.85C2520.39,-189.09 2427.52,-170.69 2368.5,-159"/>
<polygon fill="#63b8ff" stroke="#63b8ff" points="2578.77,-204.23 2589.26,-202.74 2580.13,-197.36 2578.77,-204.23"/>
</g>
<!-- Node14 -->
<g id="node8" class="node">
<title>Node14</title>
<g id="a_node8"><a xlink:href="d__a__alink_8cpp.html" target="_top" xlink:title=" ">
<polygon fill="white" stroke="#666666" points="3314.5,-19 3205.5,-19 3205.5,0 3314.5,0 3314.5,-19"/>
<text text-anchor="middle" x="3260" y="-7" font-family="Helvetica,sans-Serif" font-size="10.00">src/d/a/d_a_alink.cpp</text>
</a>
</g>
</g>
<!-- Node3&#45;&gt;Node14 -->
<g id="edge43" class="edge">
<title>Node3&#45;&gt;Node14</title>
<path fill="none" stroke="#63b8ff" d="M2705.48,-208.97C2918.52,-198.99 3551.78,-163.81 3612,-96 3624.1,-82.38 3624.05,-68.67 3612,-55 3592.68,-33.08 3408.61,-19.21 3314.64,-13.49"/>
<polygon fill="#63b8ff" stroke="#63b8ff" points="2705.5,-205.47 2695.67,-209.43 2705.82,-212.46 2705.5,-205.47"/>
</g>
<!-- Node5 -->
<g id="node5" class="node">
<title>Node5</title>
<g id="a_node5"><a xlink:href="d__a__npc_8h.html" target="_top" xlink:title=" ">
<polygon fill="#fff0f0" stroke="red" points="2409.5,-19 2298.5,-19 2298.5,0 2409.5,0 2409.5,-19"/>
<text text-anchor="middle" x="2354" y="-7" font-family="Helvetica,sans-Serif" font-size="10.00">include/d/a/d_a_npc.h</text>
</a>
</g>
</g>
<!-- Node4&#45;&gt;Node5 -->
<g id="edge4" class="edge">
<title>Node4&#45;&gt;Node5</title>
<path fill="none" stroke="#63b8ff" d="M2316.6,-120.2C2319.6,-101.72 2324.6,-76.42 2332,-55 2336.44,-42.13 2343.78,-28.19 2348.75,-19.41"/>
<polygon fill="#63b8ff" stroke="#63b8ff" points="2313.15,-119.6 2315.1,-130.02 2320.07,-120.66 2313.15,-119.6"/>
</g>
<!-- Node11 -->
<g id="node6" class="node">
<title>Node11</title>
<g id="a_node6"><a xlink:href="d__cc__uty_8h.html" target="_top" xlink:title=" ">
<polygon fill="#fff0f0" stroke="red" points="2284.5,-85 2165.5,-85 2165.5,-66 2284.5,-66 2284.5,-85"/>
<text text-anchor="middle" x="2225" y="-73" font-family="Helvetica,sans-Serif" font-size="10.00">include/d/cc/d_cc_uty.h</text>
</a>
</g>
</g>
<!-- Node4&#45;&gt;Node11 -->
<g id="edge5" class="edge">
<title>Node4&#45;&gt;Node11</title>
<path fill="none" stroke="#63b8ff" d="M2285.96,-124.64C2269.26,-111.45 2248.71,-95.22 2236.24,-85.38"/>
<polygon fill="#63b8ff" stroke="#63b8ff" points="2283.56,-127.21 2293.58,-130.66 2287.9,-121.72 2283.56,-127.21"/>
</g>
<!-- Node17 -->
<g id="node7" class="node">
<title>Node17</title>
<g id="a_node7"><a xlink:href="d__item_8h.html" target="_top" xlink:title=" ">
<polygon fill="#fff0f0" stroke="red" points="3602.5,-85 3507.5,-85 3507.5,-66 3602.5,-66 3602.5,-85"/>
<text text-anchor="middle" x="3555" y="-73" font-family="Helvetica,sans-Serif" font-size="10.00">include/d/d_item.h</text>
</a>
</g>
</g>
<!-- Node4&#45;&gt;Node17 -->
<g id="edge6" class="edge">
<title>Node4&#45;&gt;Node17</title>
<path fill="none" stroke="#63b8ff" d="M2379.54,-145.75C2596.52,-144.53 3281.98,-137.42 3499,-96 3510.93,-93.72 3523.76,-89.4 3534.13,-85.4"/>
<polygon fill="#63b8ff" stroke="#63b8ff" points="2379.85,-142.25 2369.87,-145.8 2379.88,-149.25 2379.85,-142.25"/>
</g>
<!-- Node4&#45;&gt;Node14 -->
<g id="edge34" class="edge">
<title>Node4&#45;&gt;Node14</title>
<path fill="none" stroke="#63b8ff" d="M2379.82,-144.43C2555,-139.91 3018.38,-125.3 3081,-96 3103.78,-85.34 3098.68,-68.34 3120,-55 3148.11,-37.41 3183.77,-26.21 3212.07,-19.45"/>
<polygon fill="#63b8ff" stroke="#63b8ff" points="2379.88,-140.92 2369.97,-144.68 2380.06,-147.92 2379.88,-140.92"/>
</g>
<!-- Node18 -->
<g id="node9" class="node">
<title>Node18</title>
<g id="a_node9"><a xlink:href="d__a__obj__item_8cpp.html" target="_top" xlink:title=" ">
<polygon fill="white" stroke="#666666" points="3655.5,-19 3530.5,-19 3530.5,0 3655.5,0 3655.5,-19"/>
<text text-anchor="middle" x="3593" y="-7" font-family="Helvetica,sans-Serif" font-size="10.00">src/d/a/d_a_obj_item.cpp</text>
</a>
</g>
</g>
<!-- Node4&#45;&gt;Node18 -->
<g id="edge37" class="edge">
<title>Node4&#45;&gt;Node18</title>
<path fill="none" stroke="#63b8ff" d="M2379.87,-145.97C2639.57,-145.51 3568.94,-140.75 3612,-96 3632.45,-74.74 3611,-36.6 3599.4,-19.38"/>
<polygon fill="#63b8ff" stroke="#63b8ff" points="2379.89,-142.47 2369.89,-145.98 2379.9,-149.47 2379.89,-142.47"/>
</g>
<!-- Node22 -->
<g id="node10" class="node">
<title>Node22</title>
<g id="a_node10"><a xlink:href="d__kantera__icon__meter_8h.html" target="_top" xlink:title=" ">
<polygon fill="#fff0f0" stroke="red" points="1905.5,-90.5 1804.5,-90.5 1804.5,-60.5 1905.5,-60.5 1905.5,-90.5"/>
<text text-anchor="start" x="1812.5" y="-78.5" font-family="Helvetica,sans-Serif" font-size="10.00">include/d/d_kantera</text>
<text text-anchor="middle" x="1855" y="-67.5" font-family="Helvetica,sans-Serif" font-size="10.00">_icon_meter.h</text>
</a>
</g>
</g>
<!-- Node4&#45;&gt;Node22 -->
<g id="edge9" class="edge">
<title>Node4&#45;&gt;Node22</title>
<path fill="none" stroke="#63b8ff" d="M2246.53,-132.4C2245.68,-132.26 2244.84,-132.13 2244,-132 2098.22,-109.31 2058.17,-127.32 1914,-96 1907.78,-94.65 1901.29,-92.88 1894.99,-90.97"/>
<polygon fill="#63b8ff" stroke="#63b8ff" points="2245.78,-135.82 2256.23,-134.06 2246.96,-128.92 2245.78,-135.82"/>
</g>
<!-- Node25 -->
<g id="node11" class="node">
<title>Node25</title>
<g id="a_node11"><a xlink:href="d__model_8h.html" target="_top" xlink:title=" ">
<polygon fill="#fff0f0" stroke="red" points="2572.5,-85 2469.5,-85 2469.5,-66 2572.5,-66 2572.5,-85"/>
<text text-anchor="middle" x="2521" y="-73" font-family="Helvetica,sans-Serif" font-size="10.00">include/d/d_model.h</text>
</a>
</g>
</g>
<!-- Node4&#45;&gt;Node25 -->
<g id="edge10" class="edge">
<title>Node4&#45;&gt;Node25</title>
<path fill="none" stroke="#63b8ff" d="M2367.21,-127.89C2408.03,-114.25 2462.24,-96.13 2494.2,-85.46"/>
<polygon fill="#63b8ff" stroke="#63b8ff" points="2366.16,-124.55 2357.79,-131.04 2368.38,-131.19 2366.16,-124.55"/>
</g>
<!-- Node27 -->
<g id="node12" class="node">
<title>Node27</title>
<g id="a_node12"><a xlink:href="d__name_8h.html" target="_top" xlink:title=" ">
<polygon fill="#fff0f0" stroke="red" points="2691.5,-85 2590.5,-85 2590.5,-66 2691.5,-66 2691.5,-85"/>
<text text-anchor="middle" x="2641" y="-73" font-family="Helvetica,sans-Serif" font-size="10.00">include/d/d_name.h</text>
</a>
</g>
</g>
<!-- Node4&#45;&gt;Node27 -->
<g id="edge11" class="edge">
<title>Node4&#45;&gt;Node27</title>
<path fill="none" stroke="#63b8ff" d="M2379.65,-136.19C2434.42,-127.51 2513.81,-113.52 2582,-96 2593.49,-93.05 2606,-89.03 2616.53,-85.41"/>
<polygon fill="#63b8ff" stroke="#63b8ff" points="2379.18,-132.72 2369.84,-137.73 2380.26,-139.64 2379.18,-132.72"/>
</g>
<!-- Node29 -->
<g id="node13" class="node">
<title>Node29</title>
<g id="a_node13"><a xlink:href="d__file__sel__info_8h.html" target="_top" xlink:title=" ">
<polygon fill="#fff0f0" stroke="red" points="2806,-90.5 2710,-90.5 2710,-60.5 2806,-60.5 2806,-90.5"/>
<text text-anchor="start" x="2718" y="-78.5" font-family="Helvetica,sans-Serif" font-size="10.00">include/d/file/d_file</text>
<text text-anchor="middle" x="2758" y="-67.5" font-family="Helvetica,sans-Serif" font-size="10.00">_sel_info.h</text>
</a>
</g>
</g>
<!-- Node4&#45;&gt;Node29 -->
<g id="edge12" class="edge">
<title>Node4&#45;&gt;Node29</title>
<path fill="none" stroke="#63b8ff" d="M2379.31,-141.54C2457.15,-135.37 2589.72,-121.92 2701,-96 2706.91,-94.62 2713.06,-92.87 2719.05,-90.98"/>
<polygon fill="#63b8ff" stroke="#63b8ff" points="2379.45,-138.02 2369.75,-142.28 2379.99,-145 2379.45,-138.02"/>
</g>
<!-- Node32 -->
<g id="node14" class="node">
<title>Node32</title>
<g id="a_node14"><a xlink:href="d__file__sel__warning_8h.html" target="_top" xlink:title=" ">
<polygon fill="#fff0f0" stroke="red" points="2920,-90.5 2824,-90.5 2824,-60.5 2920,-60.5 2920,-90.5"/>
<text text-anchor="start" x="2832" y="-78.5" font-family="Helvetica,sans-Serif" font-size="10.00">include/d/file/d_file</text>
<text text-anchor="middle" x="2872" y="-67.5" font-family="Helvetica,sans-Serif" font-size="10.00">_sel_warning.h</text>
</a>
</g>
</g>
<!-- Node4&#45;&gt;Node32 -->
<g id="edge13" class="edge">
<title>Node4&#45;&gt;Node32</title>
<path fill="none" stroke="#63b8ff" d="M2379.61,-144.23C2476.48,-140.57 2661.43,-129.45 2815,-96 2821.13,-94.66 2827.52,-92.88 2833.71,-90.94"/>
<polygon fill="#63b8ff" stroke="#63b8ff" points="2379.62,-140.73 2369.76,-144.59 2379.88,-147.73 2379.62,-140.73"/>
</g>
<!-- Node34 -->
<g id="node15" class="node">
<title>Node34</title>
<g id="a_node15"><a xlink:href="d__meter2_8h.html" target="_top" xlink:title=" ">
<polygon fill="#fff0f0" stroke="red" points="3072,-85 2938,-85 2938,-66 3072,-66 3072,-85"/>
<text text-anchor="middle" x="3005" y="-73" font-family="Helvetica,sans-Serif" font-size="10.00">include/d/meter/d_meter2.h</text>
</a>
</g>
</g>
<!-- Node4&#45;&gt;Node34 -->
<g id="edge14" class="edge">
<title>Node4&#45;&gt;Node34</title>
<path fill="none" stroke="#63b8ff" d="M2379.42,-144.31C2492.84,-140.6 2730.78,-129.23 2929,-96 2944.32,-93.43 2961.06,-89.29 2974.93,-85.47"/>
<polygon fill="#63b8ff" stroke="#63b8ff" points="2379.58,-140.8 2369.7,-144.62 2379.81,-147.8 2379.58,-140.8"/>
</g>
<!-- Node41 -->
<g id="node16" class="node">
<title>Node41</title>
<g id="a_node16"><a xlink:href="d__msg__object_8h.html" target="_top" xlink:title=" ">
<polygon fill="#fff0f0" stroke="red" points="2451,-90.5 2341,-90.5 2341,-60.5 2451,-60.5 2451,-90.5"/>
<text text-anchor="start" x="2349" y="-78.5" font-family="Helvetica,sans-Serif" font-size="10.00">include/d/msg/d_msg</text>
<text text-anchor="middle" x="2396" y="-67.5" font-family="Helvetica,sans-Serif" font-size="10.00">_object.h</text>
</a>
</g>
</g>
<!-- Node4&#45;&gt;Node41 -->
<g id="edge15" class="edge">
<title>Node4&#45;&gt;Node41</title>
<path fill="none" stroke="#63b8ff" d="M2338.75,-124.43C2351.79,-113.52 2367.26,-100.57 2378.82,-90.88"/>
<polygon fill="#63b8ff" stroke="#63b8ff" points="2336.78,-121.52 2331.36,-130.63 2341.27,-126.89 2336.78,-121.52"/>
</g>
<!-- Node57 -->
<g id="node17" class="node">
<title>Node57</title>
<g id="a_node17"><a xlink:href="d__s__logo_8h.html" target="_top" xlink:title=" ">
<polygon fill="#fff0f0" stroke="red" points="3241.5,-85 3128.5,-85 3128.5,-66 3241.5,-66 3241.5,-85"/>
<text text-anchor="middle" x="3185" y="-73" font-family="Helvetica,sans-Serif" font-size="10.00">include/d/s/d_s_logo.h</text>
</a>
</g>
</g>
<!-- Node4&#45;&gt;Node57 -->
<g id="edge18" class="edge">
<title>Node4&#45;&gt;Node57</title>
<path fill="none" stroke="#63b8ff" d="M2379.49,-146.45C2517.42,-146.37 2844.3,-140.96 3114,-96 3128.63,-93.56 3144.58,-89.33 3157.65,-85.43"/>
<polygon fill="#63b8ff" stroke="#63b8ff" points="2379.83,-142.95 2369.83,-146.44 2379.82,-149.95 2379.83,-142.95"/>
</g>
<!-- Node59 -->
<g id="node18" class="node">
<title>Node59</title>
<g id="a_node18"><a xlink:href="d__s__play_8h.html" target="_top" xlink:title=" ">
<polygon fill="#fff0f0" stroke="red" points="3372.5,-85 3259.5,-85 3259.5,-66 3372.5,-66 3372.5,-85"/>
<text text-anchor="middle" x="3316" y="-73" font-family="Helvetica,sans-Serif" font-size="10.00">include/d/s/d_s_play.h</text>
</a>
</g>
</g>
<!-- Node4&#45;&gt;Node59 -->
<g id="edge19" class="edge">
<title>Node4&#45;&gt;Node59</title>
<path fill="none" stroke="#63b8ff" d="M2379.87,-144.5C2565.29,-140.03 3083.29,-125.2 3251,-96 3264.58,-93.64 3279.32,-89.36 3291.33,-85.41"/>
<polygon fill="#63b8ff" stroke="#63b8ff" points="2379.83,-141 2369.92,-144.74 2380,-148 2379.83,-141"/>
</g>
<!-- Node65 -->
<g id="node19" class="node">
<title>Node65</title>
<g id="a_node19"><a xlink:href="d__msg__scrn__base_8h.html" target="_top" xlink:title=" ">
<polygon fill="#fff0f0" stroke="red" points="3489.5,-90.5 3390.5,-90.5 3390.5,-60.5 3489.5,-60.5 3489.5,-90.5"/>
<text text-anchor="start" x="3398.5" y="-78.5" font-family="Helvetica,sans-Serif" font-size="10.00">include/msg/scrn/d</text>
<text text-anchor="middle" x="3440" y="-67.5" font-family="Helvetica,sans-Serif" font-size="10.00">_msg_scrn_base.h</text>
</a>
</g>
</g>
<!-- Node4&#45;&gt;Node65 -->
<g id="edge20" class="edge">
<title>Node4&#45;&gt;Node65</title>
<path fill="none" stroke="#63b8ff" d="M2379.7,-145.3C2582.3,-142.78 3188.43,-132.33 3382,-96 3388.58,-94.77 3395.43,-92.96 3402.02,-90.93"/>
<polygon fill="#63b8ff" stroke="#63b8ff" points="2379.84,-141.79 2369.88,-145.42 2379.92,-148.79 2379.84,-141.79"/>
</g>
<!-- Node69 -->
<g id="node20" class="node">
<title>Node69</title>
<g id="a_node20"><a xlink:href="d__a__b__oh2_8h.html" target="_top" xlink:title=" ">
<polygon fill="white" stroke="#666666" points="276,-90.5 160,-90.5 160,-60.5 276,-60.5 276,-90.5"/>
<text text-anchor="start" x="168" y="-78.5" font-family="Helvetica,sans-Serif" font-size="10.00">include/rel/d/a/b/d</text>
<text text-anchor="middle" x="218" y="-67.5" font-family="Helvetica,sans-Serif" font-size="10.00">_a_b_oh2/d_a_b_oh2.h</text>
</a>
</g>
</g>
<!-- Node4&#45;&gt;Node69 -->
<g id="edge21" class="edge">
<title>Node4&#45;&gt;Node69</title>
<path fill="none" stroke="#63b8ff" d="M2246.54,-132.29C2245.69,-132.19 2244.84,-132.09 2244,-132 1811.19,-84.51 715.47,-161.41 285,-96 277.33,-94.84 269.31,-93.03 261.6,-90.99"/>
<polygon fill="#63b8ff" stroke="#63b8ff" points="2245.89,-135.74 2256.28,-133.66 2246.86,-128.8 2245.89,-135.74"/>
</g>
<!-- Node70 -->
<g id="node21" class="node">
<title>Node70</title>
<g id="a_node21"><a xlink:href="d__a__b__zant_8h.html" target="_top" xlink:title=" ">
<polygon fill="white" stroke="#666666" points="415.5,-90.5 294.5,-90.5 294.5,-60.5 415.5,-60.5 415.5,-90.5"/>
<text text-anchor="start" x="302.5" y="-78.5" font-family="Helvetica,sans-Serif" font-size="10.00">include/rel/d/a/b/d</text>
<text text-anchor="middle" x="355" y="-67.5" font-family="Helvetica,sans-Serif" font-size="10.00">_a_b_zant/d_a_b_zant.h</text>
</a>
</g>
</g>
<!-- Node4&#45;&gt;Node70 -->
<g id="edge22" class="edge">
<title>Node4&#45;&gt;Node70</title>
<path fill="none" stroke="#63b8ff" d="M2246.54,-132.29C2245.69,-132.19 2244.84,-132.09 2244,-132 1841.92,-87.6 824.13,-155.49 424,-96 416.12,-94.83 407.87,-93.02 399.92,-90.98"/>
<polygon fill="#63b8ff" stroke="#63b8ff" points="2245.89,-135.74 2256.28,-133.67 2246.87,-128.81 2245.89,-135.74"/>
</g>
<!-- Node71 -->
<g id="node22" class="node">
<title>Node71</title>
<g id="a_node22"><a xlink:href="d__a__set__bgobj_8h.html" target="_top" xlink:title=" ">
<polygon fill="white" stroke="#666666" points="570.5,-90.5 433.5,-90.5 433.5,-60.5 570.5,-60.5 570.5,-90.5"/>
<text text-anchor="start" x="441.5" y="-78.5" font-family="Helvetica,sans-Serif" font-size="10.00">include/rel/d/a/d_a</text>
<text text-anchor="middle" x="502" y="-67.5" font-family="Helvetica,sans-Serif" font-size="10.00">_set_bgobj/d_a_set_bgobj.h</text>
</a>
</g>
</g>
<!-- Node4&#45;&gt;Node71 -->
<g id="edge23" class="edge">
<title>Node4&#45;&gt;Node71</title>
<path fill="none" stroke="#63b8ff" d="M2246.54,-132.3C2245.69,-132.19 2244.84,-132.09 2244,-132 1508.82,-50.13 1313.17,-194.32 580,-96 571.15,-94.81 561.84,-93 552.87,-90.95"/>
<polygon fill="#63b8ff" stroke="#63b8ff" points="2245.88,-135.74 2256.28,-133.68 2246.87,-128.81 2245.88,-135.74"/>
</g>
<!-- Node72 -->
<g id="node23" class="node">
<title>Node72</title>
<g id="a_node23"><a xlink:href="d__a__skip__2D_8h.html" target="_top" xlink:title=" ">
<polygon fill="white" stroke="#666666" points="713,-90.5 589,-90.5 589,-60.5 713,-60.5 713,-90.5"/>
<text text-anchor="start" x="597" y="-78.5" font-family="Helvetica,sans-Serif" font-size="10.00">include/rel/d/a/d_a</text>
<text text-anchor="middle" x="651" y="-67.5" font-family="Helvetica,sans-Serif" font-size="10.00">_skip_2D/d_a_skip_2D.h</text>
</a>
</g>
</g>
<!-- Node4&#45;&gt;Node72 -->
<g id="edge24" class="edge">
<title>Node4&#45;&gt;Node72</title>
<path fill="none" stroke="#63b8ff" d="M2246.54,-132.3C2245.69,-132.19 2244.84,-132.09 2244,-132 1907.8,-94.22 1056.73,-145.17 722,-96 713.91,-94.81 705.42,-93 697.25,-90.95"/>
<polygon fill="#63b8ff" stroke="#63b8ff" points="2245.88,-135.74 2256.28,-133.69 2246.87,-128.81 2245.88,-135.74"/>
</g>
<!-- Node73 -->
<g id="node24" class="node">
<title>Node73</title>
<g id="a_node24"><a xlink:href="d__a__spinner_8h.html" target="_top" xlink:title=" ">
<polygon fill="white" stroke="#666666" points="847,-90.5 731,-90.5 731,-60.5 847,-60.5 847,-90.5"/>
<text text-anchor="start" x="739" y="-78.5" font-family="Helvetica,sans-Serif" font-size="10.00">include/rel/d/a/d_a</text>
<text text-anchor="middle" x="789" y="-67.5" font-family="Helvetica,sans-Serif" font-size="10.00">_spinner/d_a_spinner.h</text>
</a>
</g>
</g>
<!-- Node4&#45;&gt;Node73 -->
<g id="edge25" class="edge">
<title>Node4&#45;&gt;Node73</title>
<path fill="none" stroke="#63b8ff" d="M2246.54,-132.3C2245.69,-132.2 2244.84,-132.1 2244,-132 1937.42,-97.19 1160.87,-143.5 856,-96 848.34,-94.81 840.32,-92.99 832.6,-90.94"/>
<polygon fill="#63b8ff" stroke="#63b8ff" points="2245.88,-135.74 2256.28,-133.7 2246.87,-128.81 2245.88,-135.74"/>
</g>
<!-- Node74 -->
<g id="node25" class="node">
<title>Node74</title>
<g id="a_node25"><a xlink:href="d__a__player_8cpp.html" target="_top" xlink:title=" ">
<polygon fill="white" stroke="#666666" points="518,-19 404,-19 404,0 518,0 518,-19"/>
<text text-anchor="middle" x="461" y="-7" font-family="Helvetica,sans-Serif" font-size="10.00">src/d/a/d_a_player.cpp</text>
</a>
</g>
</g>
<!-- Node4&#45;&gt;Node74 -->
<g id="edge38" class="edge">
<title>Node4&#45;&gt;Node74</title>
<path fill="none" stroke="#63b8ff" d="M2246.54,-132.29C2245.69,-132.19 2244.84,-132.09 2244,-132 2186.2,-125.69 191.76,-137.47 151,-96 74.68,-18.36 294.5,-9.39 403.59,-9.53"/>
<polygon fill="#63b8ff" stroke="#63b8ff" points="2245.89,-135.73 2256.28,-133.66 2246.86,-128.8 2245.89,-135.73"/>
</g>
<!-- Node75 -->
<g id="node26" class="node">
<title>Node75</title>
<g id="a_node26"><a xlink:href="d__a__obj__enemy__create_8h.html" target="_top" xlink:title=" ">
<polygon fill="white" stroke="#666666" points="992.5,-96 865.5,-96 865.5,-55 992.5,-55 992.5,-96"/>
<text text-anchor="start" x="873.5" y="-84" font-family="Helvetica,sans-Serif" font-size="10.00">include/rel/d/a/obj</text>
<text text-anchor="start" x="873.5" y="-73" font-family="Helvetica,sans-Serif" font-size="10.00">/d_a_obj_enemy_create</text>
<text text-anchor="middle" x="929" y="-62" font-family="Helvetica,sans-Serif" font-size="10.00">/d_a_obj_enemy_create.h</text>
</a>
</g>
</g>
<!-- Node4&#45;&gt;Node75 -->
<g id="edge28" class="edge">
<title>Node4&#45;&gt;Node75</title>
<path fill="none" stroke="#63b8ff" d="M2246.54,-132.31C2245.69,-132.2 2244.84,-132.1 2244,-132 1694.95,-68.82 1547.74,-176.8 1001,-96 998.31,-95.6 995.58,-95.14 992.82,-94.62"/>
<polygon fill="#63b8ff" stroke="#63b8ff" points="2245.88,-135.75 2256.27,-133.71 2246.88,-128.82 2245.88,-135.75"/>
</g>
<!-- Node76 -->
<g id="node27" class="node">
<title>Node76</title>
<g id="a_node27"><a xlink:href="d__a__obj__web0_8h.html" target="_top" xlink:title=" ">
<polygon fill="white" stroke="#666666" points="1129.5,-96 1010.5,-96 1010.5,-55 1129.5,-55 1129.5,-96"/>
<text text-anchor="start" x="1018.5" y="-84" font-family="Helvetica,sans-Serif" font-size="10.00">include/rel/d/a/obj</text>
<text text-anchor="start" x="1018.5" y="-73" font-family="Helvetica,sans-Serif" font-size="10.00">/d_a_obj_web0/d_a_obj</text>
<text text-anchor="middle" x="1070" y="-62" font-family="Helvetica,sans-Serif" font-size="10.00">_web0.h</text>
</a>
</g>
</g>
<!-- Node4&#45;&gt;Node76 -->
<g id="edge29" class="edge">
<title>Node4&#45;&gt;Node76</title>
<path fill="none" stroke="#63b8ff" d="M2246.54,-132.31C2245.69,-132.2 2244.84,-132.1 2244,-132 1755.51,-74.9 1623.85,-172.37 1138,-96 1135.33,-95.58 1132.62,-95.09 1129.89,-94.54"/>
<polygon fill="#63b8ff" stroke="#63b8ff" points="2245.87,-135.75 2256.27,-133.73 2246.88,-128.82 2245.87,-135.75"/>
</g>
<!-- Node77 -->
<g id="node28" class="node">
<title>Node77</title>
<g id="a_node28"><a xlink:href="d__a__obj__web1_8h.html" target="_top" xlink:title=" ">
<polygon fill="white" stroke="#666666" points="1266.5,-96 1147.5,-96 1147.5,-55 1266.5,-55 1266.5,-96"/>
<text text-anchor="start" x="1155.5" y="-84" font-family="Helvetica,sans-Serif" font-size="10.00">include/rel/d/a/obj</text>
<text text-anchor="start" x="1155.5" y="-73" font-family="Helvetica,sans-Serif" font-size="10.00">/d_a_obj_web1/d_a_obj</text>
<text text-anchor="middle" x="1207" y="-62" font-family="Helvetica,sans-Serif" font-size="10.00">_web1.h</text>
</a>
</g>
</g>
<!-- Node4&#45;&gt;Node77 -->
<g id="edge30" class="edge">
<title>Node4&#45;&gt;Node77</title>
<path fill="none" stroke="#63b8ff" d="M2246.54,-132.32C2245.69,-132.21 2244.84,-132.1 2244,-132 1816.07,-80.98 1700.58,-163.9 1275,-96 1272.33,-95.57 1269.62,-95.08 1266.89,-94.53"/>
<polygon fill="#63b8ff" stroke="#63b8ff" points="2245.87,-135.75 2256.27,-133.75 2246.89,-128.83 2245.87,-135.75"/>
</g>
<!-- Node78 -->
<g id="node29" class="node">
<title>Node78</title>
<g id="a_node29"><a xlink:href="d__a__obj__yobikusa_8h.html" target="_top" xlink:title=" ">
<polygon fill="white" stroke="#666666" points="1389.5,-96 1284.5,-96 1284.5,-55 1389.5,-55 1389.5,-96"/>
<text text-anchor="start" x="1292.5" y="-84" font-family="Helvetica,sans-Serif" font-size="10.00">include/rel/d/a/obj</text>
<text text-anchor="start" x="1292.5" y="-73" font-family="Helvetica,sans-Serif" font-size="10.00">/d_a_obj_yobikusa/d</text>
<text text-anchor="middle" x="1337" y="-62" font-family="Helvetica,sans-Serif" font-size="10.00">_a_obj_yobikusa.h</text>
</a>
</g>
</g>
<!-- Node4&#45;&gt;Node78 -->
<g id="edge31" class="edge">
<title>Node4&#45;&gt;Node78</title>
<path fill="none" stroke="#63b8ff" d="M2246.54,-132.32C2245.69,-132.21 2244.84,-132.1 2244,-132 1870.87,-86.49 1769.24,-160.95 1399,-96 1396,-95.47 1392.94,-94.84 1389.87,-94.13"/>
<polygon fill="#63b8ff" stroke="#63b8ff" points="2245.86,-135.76 2256.27,-133.77 2246.89,-128.84 2245.86,-135.76"/>
</g>
<!-- Node79 -->
<g id="node30" class="node">
<title>Node79</title>
<g id="a_node30"><a xlink:href="d__a__tag__telop_8h.html" target="_top" xlink:title=" ">
<polygon fill="white" stroke="#666666" points="1526,-96 1408,-96 1408,-55 1526,-55 1526,-96"/>
<text text-anchor="start" x="1416" y="-84" font-family="Helvetica,sans-Serif" font-size="10.00">include/rel/d/a/tag</text>
<text text-anchor="start" x="1416" y="-73" font-family="Helvetica,sans-Serif" font-size="10.00">/d_a_tag_telop/d_a_tag</text>
<text text-anchor="middle" x="1467" y="-62" font-family="Helvetica,sans-Serif" font-size="10.00">_telop.h</text>
</a>
</g>
</g>
<!-- Node4&#45;&gt;Node79 -->
<g id="edge32" class="edge">
<title>Node4&#45;&gt;Node79</title>
<path fill="none" stroke="#63b8ff" d="M2246.54,-132.33C2245.69,-132.22 2244.84,-132.11 2244,-132 1930.96,-92.52 1846.23,-147.82 1535,-96 1532.09,-95.52 1529.13,-94.95 1526.16,-94.33"/>
<polygon fill="#63b8ff" stroke="#63b8ff" points="2245.85,-135.77 2256.26,-133.81 2246.9,-128.85 2245.85,-135.77"/>
</g>
<!-- Node80 -->
<g id="node31" class="node">
<title>Node80</title>
<g id="a_node31"><a xlink:href="c__dylink_8cpp.html" target="_top" xlink:title=" ">
<polygon fill="white" stroke="#666666" points="1639.5,-85 1544.5,-85 1544.5,-66 1639.5,-66 1639.5,-85"/>
<text text-anchor="middle" x="1592" y="-73" font-family="Helvetica,sans-Serif" font-size="10.00">src/c/c_dylink.cpp</text>
</a>
</g>
</g>
<!-- Node4&#45;&gt;Node80 -->
<g id="edge33" class="edge">
<title>Node4&#45;&gt;Node80</title>
<path fill="none" stroke="#63b8ff" d="M2246.54,-132.34C2245.69,-132.22 2244.84,-132.11 2244,-132 1981.32,-97.58 1908.91,-147.34 1649,-96 1637,-93.63 1624.06,-89.35 1613.55,-85.41"/>
<polygon fill="#63b8ff" stroke="#63b8ff" points="2245.84,-135.78 2256.26,-133.85 2246.91,-128.86 2245.84,-135.78"/>
</g>
<!-- Node81 -->
<g id="node32" class="node">
<title>Node81</title>
<g id="a_node32"><a xlink:href="d__a__itembase_8cpp.html" target="_top" xlink:title=" ">
<polygon fill="white" stroke="#666666" points="1786,-85 1658,-85 1658,-66 1786,-66 1786,-85"/>
<text text-anchor="middle" x="1722" y="-73" font-family="Helvetica,sans-Serif" font-size="10.00">src/d/a/d_a_itembase.cpp</text>
</a>
</g>
</g>
<!-- Node4&#45;&gt;Node81 -->
<g id="edge35" class="edge">
<title>Node4&#45;&gt;Node81</title>
<path fill="none" stroke="#63b8ff" d="M2246.53,-132.37C2245.68,-132.24 2244.84,-132.12 2244,-132 2045.77,-104.05 1992.29,-129.97 1795,-96 1780.13,-93.44 1763.89,-89.25 1750.51,-85.4"/>
<polygon fill="#63b8ff" stroke="#63b8ff" points="2245.81,-135.8 2256.25,-133.94 2246.93,-128.89 2245.81,-135.8"/>
</g>
<!-- Node82 -->
<g id="node33" class="node">
<title>Node82</title>
<g id="a_node33"><a xlink:href="d__a__obj_8cpp.html" target="_top" xlink:title=" ">
<polygon fill="white" stroke="#666666" points="2024.5,-85 1923.5,-85 1923.5,-66 2024.5,-66 2024.5,-85"/>
<text text-anchor="middle" x="1974" y="-73" font-family="Helvetica,sans-Serif" font-size="10.00">src/d/a/d_a_obj.cpp</text>
</a>
</g>
</g>
<!-- Node4&#45;&gt;Node82 -->
<g id="edge36" class="edge">
<title>Node4&#45;&gt;Node82</title>
<path fill="none" stroke="#63b8ff" d="M2246.52,-132.47C2245.67,-132.31 2244.83,-132.16 2244,-132 2150.92,-114.58 2125.94,-118.69 2034,-96 2022.3,-93.11 2009.58,-89.11 1998.87,-85.48"/>
<polygon fill="#63b8ff" stroke="#63b8ff" points="2245.7,-135.88 2256.18,-134.33 2247.02,-129.01 2245.7,-135.88"/>
</g>
<!-- Node4&#45;&gt;Node83 -->
<g id="edge39" class="edge">
<title>Node4&#45;&gt;Node83</title>
<path fill="none" stroke="#63b8ff" d="M2246.54,-132.29C2245.69,-132.19 2244.84,-132.09 2244,-132 1774.27,-80.81 585.06,-167.6 118,-96 103.95,-93.85 88.7,-89.48 76.4,-85.43"/>
<polygon fill="#63b8ff" stroke="#63b8ff" points="2245.89,-135.73 2256.28,-133.66 2246.86,-128.8 2245.89,-135.73"/>
</g>
<!-- Node84 -->
<g id="node35" class="node">
<title>Node84</title>
<g id="a_node35"><a xlink:href="d__bg__s__movebg__actor_8cpp.html" target="_top" xlink:title=" ">
<polygon fill="white" stroke="#666666" points="3987,-90.5 3861,-90.5 3861,-60.5 3987,-60.5 3987,-90.5"/>
<text text-anchor="start" x="3869" y="-78.5" font-family="Helvetica,sans-Serif" font-size="10.00">src/d/bg/d_bg_s_movebg</text>
<text text-anchor="middle" x="3924" y="-67.5" font-family="Helvetica,sans-Serif" font-size="10.00">_actor.cpp</text>
</a>
</g>
</g>
<!-- Node4&#45;&gt;Node84 -->
<g id="edge40" class="edge">
<title>Node4&#45;&gt;Node84</title>
<path fill="none" stroke="#63b8ff" d="M2379.32,-145.05C2631.36,-141.23 3529.72,-125.78 3814,-96 3829.14,-94.41 3845.34,-91.97 3860.52,-89.34"/>
<polygon fill="#63b8ff" stroke="#63b8ff" points="2379.63,-141.54 2369.68,-145.19 2379.73,-148.54 2379.63,-141.54"/>
</g>
<!-- Node85 -->
<g id="node36" class="node">
<title>Node85</title>
<g id="a_node36"><a xlink:href="d__bg__w_8cpp.html" target="_top" xlink:title=" ">
<polygon fill="white" stroke="#666666" points="3804.5,-85 3697.5,-85 3697.5,-66 3804.5,-66 3804.5,-85"/>
<text text-anchor="middle" x="3751" y="-73" font-family="Helvetica,sans-Serif" font-size="10.00">src/d/bg/d_bg_w.cpp</text>
</a>
</g>
</g>
<!-- Node4&#45;&gt;Node85 -->
<g id="edge41" class="edge">
<title>Node4&#45;&gt;Node85</title>
<path fill="none" stroke="#63b8ff" d="M2379.86,-144.77C2613.93,-140.26 3395.75,-123.46 3645,-96 3666.57,-93.62 3690.36,-89.4 3709.93,-85.48"/>
<polygon fill="#63b8ff" stroke="#63b8ff" points="2379.93,-141.27 2369.99,-144.96 2380.06,-148.27 2379.93,-141.27"/>
</g>
<!-- Node86 -->
<g id="node37" class="node">
<title>Node86</title>
<g id="a_node37"><a xlink:href="d__cc__s_8cpp.html" target="_top" xlink:title=" ">
<polygon fill="white" stroke="#666666" points="2147,-85 2043,-85 2043,-66 2147,-66 2147,-85"/>
<text text-anchor="middle" x="2095" y="-73" font-family="Helvetica,sans-Serif" font-size="10.00">src/d/cc/d_cc_s.cpp</text>
</a>
</g>
</g>
<!-- Node4&#45;&gt;Node86 -->
<g id="edge42" class="edge">
<title>Node4&#45;&gt;Node86</title>
<path fill="none" stroke="#63b8ff" d="M2256.98,-128.17C2227.02,-118.64 2189.49,-106.69 2156,-96 2145.2,-92.55 2133.32,-88.76 2122.94,-85.44"/>
<polygon fill="#63b8ff" stroke="#63b8ff" points="2255.62,-131.42 2266.21,-131.11 2257.74,-124.74 2255.62,-131.42"/>
</g>
<!-- Node17&#45;&gt;Node14 -->
<g id="edge7" class="edge">
<title>Node17&#45;&gt;Node14</title>
<path fill="none" stroke="#63b8ff" d="M3520.96,-61.73C3513.77,-59.29 3506.18,-56.91 3499,-55 3436.59,-38.42 3363.41,-25.77 3314.63,-18.26"/>
<polygon fill="#63b8ff" stroke="#63b8ff" points="3519.79,-65.03 3530.38,-65.04 3522.11,-58.42 3519.79,-65.03"/>
</g>
<!-- Node17&#45;&gt;Node18 -->
<g id="edge8" class="edge">
<title>Node17&#45;&gt;Node18</title>
<path fill="none" stroke="#63b8ff" d="M3565.97,-56.03C3573.13,-43.96 3582.16,-28.75 3587.76,-19.32"/>
<polygon fill="#63b8ff" stroke="#63b8ff" points="3563.15,-53.91 3561.06,-64.3 3569.17,-57.49 3563.15,-53.91"/>
</g>
<!-- Node41&#45;&gt;Node5 -->
<g id="edge16" class="edge">
<title>Node41&#45;&gt;Node5</title>
<path fill="none" stroke="#63b8ff" d="M2380.43,-50.78C2373.23,-39.81 2365.12,-27.44 2359.8,-19.34"/>
<polygon fill="#63b8ff" stroke="#63b8ff" points="2377.44,-52.59 2385.85,-59.03 2383.29,-48.75 2377.44,-52.59"/>
</g>
<!-- Node41&#45;&gt;Node14 -->
<g id="edge17" class="edge">
<title>Node41&#45;&gt;Node14</title>
<path fill="none" stroke="#63b8ff" d="M2450.03,-57.25C2453.72,-56.39 2457.4,-55.63 2461,-55 2604.51,-29.84 3049.23,-16.04 3205.24,-11.87"/>
<polygon fill="#63b8ff" stroke="#63b8ff" points="2449.31,-53.82 2440.48,-59.68 2451.03,-60.61 2449.31,-53.82"/>
</g>
<!-- Node73&#45;&gt;Node14 -->
<g id="edge26" class="edge">
<title>Node73&#45;&gt;Node14</title>
<path fill="none" stroke="#63b8ff" d="M843.58,-57.34C847.76,-56.42 851.93,-55.62 856,-55 975.84,-36.78 2857.88,-14.98 3205.14,-11.1"/>
<polygon fill="#63b8ff" stroke="#63b8ff" points="842.95,-53.89 834.07,-59.66 844.61,-60.69 842.95,-53.89"/>
</g>
<!-- Node73&#45;&gt;Node74 -->
<g id="edge27" class="edge">
<title>Node73&#45;&gt;Node74</title>
<path fill="none" stroke="#63b8ff" d="M730.97,-57.17C727.95,-56.41 724.94,-55.68 722,-55 652.56,-39.03 571.53,-26.09 518.4,-18.36"/>
<polygon fill="#63b8ff" stroke="#63b8ff" points="729.93,-60.52 740.49,-59.69 731.72,-53.75 729.93,-60.52"/>
</g>
<!-- Node120&#45;&gt;Node14 -->
<g id="edge46" class="edge">
<title>Node120&#45;&gt;Node14</title>
<path fill="none" stroke="#63b8ff" d="M3804.29,-122.67C3817.81,-102.45 3831.15,-73.58 3814,-55 3797.21,-36.81 3451.22,-19.18 3314.7,-12.91"/>
<polygon fill="#63b8ff" stroke="#63b8ff" points="3801.6,-120.42 3798.65,-130.59 3807.3,-124.48 3801.6,-120.42"/>
</g>
<!-- Node120&#45;&gt;Node85 -->
<g id="edge47" class="edge">
<title>Node120&#45;&gt;Node85</title>
<path fill="none" stroke="#63b8ff" d="M3773.72,-121.61C3767.34,-108.94 3759.95,-94.27 3755.37,-85.18"/>
<polygon fill="#63b8ff" stroke="#63b8ff" points="3770.44,-122.89 3778.07,-130.25 3776.7,-119.74 3770.44,-122.89"/>
</g>
<!-- Node123 -->
<g id="node41" class="node">
<title>Node123</title>
<g id="a_node41"><a xlink:href="d__bg__s__acch_8h.html" target="_top" xlink:title=" ">
<polygon fill="#fff0f0" stroke="red" points="3524,-481 3420,-481 3420,-451 3524,-451 3524,-481"/>
<text text-anchor="start" x="3428" y="-469" font-family="Helvetica,sans-Serif" font-size="10.00">include/d/bg/d_bg_s</text>
<text text-anchor="middle" x="3472" y="-458" font-family="Helvetica,sans-Serif" font-size="10.00">_acch.h</text>
</a>
</g>
</g>
<!-- Node122&#45;&gt;Node123 -->
<g id="edge51" class="edge">
<title>Node122&#45;&gt;Node123</title>
<path fill="none" stroke="#63b8ff" d="M3385.87,-511.45C3404.7,-501.73 3427.05,-490.2 3444.26,-481.31"/>
<polygon fill="#63b8ff" stroke="#63b8ff" points="3384.45,-508.25 3377.17,-515.94 3387.66,-514.47 3384.45,-508.25"/>
</g>
<!-- Node153 -->
<g id="node48" class="node">
<title>Node153</title>
<g id="a_node48"><a xlink:href="d__camera_8h.html" target="_top" xlink:title=" ">
<polygon fill="#fff0f0" stroke="red" points="3276.5,-475.5 3167.5,-475.5 3167.5,-456.5 3276.5,-456.5 3276.5,-475.5"/>
<text text-anchor="middle" x="3222" y="-463.5" font-family="Helvetica,sans-Serif" font-size="10.00">include/d/d_camera.h</text>
</a>
</g>
</g>
<!-- Node122&#45;&gt;Node153 -->
<g id="edge63" class="edge">
<title>Node122&#45;&gt;Node153</title>
<path fill="none" stroke="#63b8ff" d="M3309.47,-511.43C3286.22,-499.62 3257.71,-485.14 3239.69,-475.99"/>
<polygon fill="#63b8ff" stroke="#63b8ff" points="3307.87,-514.54 3318.37,-515.95 3311.04,-508.3 3307.87,-514.54"/>
</g>
<!-- Node158 -->
<g id="node49" class="node">
<title>Node158</title>
<g id="a_node49"><a xlink:href="d__bg__s__gnd__chk_8cpp.html" target="_top" xlink:title=" ">
<polygon fill="white" stroke="#666666" points="3401.5,-481 3294.5,-481 3294.5,-451 3401.5,-451 3401.5,-481"/>
<text text-anchor="start" x="3302.5" y="-469" font-family="Helvetica,sans-Serif" font-size="10.00">src/d/bg/d_bg_s_gnd</text>
<text text-anchor="middle" x="3348" y="-458" font-family="Helvetica,sans-Serif" font-size="10.00">_chk.cpp</text>
</a>
</g>
</g>
<!-- Node122&#45;&gt;Node158 -->
<g id="edge64" class="edge">
<title>Node122&#45;&gt;Node158</title>
<path fill="none" stroke="#63b8ff" d="M3348,-505.39C3348,-497.13 3348,-488.28 3348,-481.16"/>
<polygon fill="#63b8ff" stroke="#63b8ff" points="3344.5,-505.28 3348,-515.28 3351.5,-505.28 3344.5,-505.28"/>
</g>
<!-- Node123&#45;&gt;Node121 -->
<g id="edge62" class="edge">
<title>Node123&#45;&gt;Node121</title>
<path fill="none" stroke="#63b8ff" d="M3408.73,-450.57C2875.79,-340.37 2737.17,-330.26 2206,-228 2197.72,-226.41 2188.91,-224.67 2180.42,-222.98"/>
<polygon fill="#63b8ff" stroke="#63b8ff" points="3407.8,-453.96 3418.31,-452.56 3409.22,-447.1 3407.8,-453.96"/>
</g>
<!-- Node123&#45;&gt;Node135 -->
<g id="edge52" class="edge">
<title>Node123&#45;&gt;Node135</title>
<path fill="none" stroke="#63b8ff" d="M3471.8,-439.12C3471.57,-409.59 3471.21,-362.92 3471.07,-343.71"/>
<polygon fill="#63b8ff" stroke="#63b8ff" points="3468.3,-439.1 3471.88,-449.08 3475.3,-439.05 3468.3,-439.1"/>
</g>
<!-- Node123&#45;&gt;Node139 -->
<g id="edge58" class="edge">
<title>Node123&#45;&gt;Node139</title>
<path fill="none" stroke="#63b8ff" d="M3498.63,-443.7C3510.26,-434.4 3523.59,-423.73 3534.02,-415.39"/>
<polygon fill="#63b8ff" stroke="#63b8ff" points="3496.56,-440.87 3490.94,-449.85 3500.93,-446.34 3496.56,-440.87"/>
</g>
<!-- Node135&#45;&gt;Node2 -->
<g id="edge53" class="edge">
<title>Node135&#45;&gt;Node2</title>
<path fill="none" stroke="#63b8ff" d="M3403.1,-328.24C3242.21,-316.97 2840.17,-288.8 2691.99,-278.42"/>
<polygon fill="#63b8ff" stroke="#63b8ff" points="3402.53,-331.71 3412.75,-328.92 3403.02,-324.73 3402.53,-331.71"/>
</g>
<!-- Node135&#45;&gt;Node85 -->
<g id="edge57" class="edge">
<title>Node135&#45;&gt;Node85</title>
<path fill="none" stroke="#63b8ff" d="M3488.84,-316.65C3542.43,-267.56 3700.76,-122.53 3741.4,-85.29"/>
<polygon fill="#63b8ff" stroke="#63b8ff" points="3486.76,-313.81 3481.75,-323.15 3491.49,-318.97 3486.76,-313.81"/>
</g>
<!-- Node136 -->
<g id="node43" class="node">
<title>Node136</title>
<g id="a_node43"><a xlink:href="d__bg__s__movebg__actor_8h.html" target="_top" xlink:title=" ">
<polygon fill="white" stroke="#666666" points="3968,-228 3864,-228 3864,-198 3968,-198 3968,-228"/>
<text text-anchor="start" x="3872" y="-216" font-family="Helvetica,sans-Serif" font-size="10.00">include/d/bg/d_bg_s</text>
<text text-anchor="middle" x="3916" y="-205" font-family="Helvetica,sans-Serif" font-size="10.00">_movebg_actor.h</text>
</a>
</g>
</g>
<!-- Node135&#45;&gt;Node136 -->
<g id="edge54" class="edge">
<title>Node135&#45;&gt;Node136</title>
<path fill="none" stroke="#63b8ff" d="M3520.95,-321.84C3526.35,-320.8 3531.78,-319.83 3537,-319 3611.38,-307.17 3810.4,-323.34 3874,-283 3893.9,-270.38 3905.77,-244.61 3911.58,-228.38"/>
<polygon fill="#63b8ff" stroke="#63b8ff" points="3520.56,-318.35 3511.45,-323.75 3521.94,-325.21 3520.56,-318.35"/>
</g>
<!-- Node137 -->
<g id="node44" class="node">
<title>Node137</title>
<g id="a_node44"><a xlink:href="d__bg__w__sv_8h.html" target="_top" xlink:title=" ">
<polygon fill="#fff0f0" stroke="red" points="3864.5,-283 3735.5,-283 3735.5,-264 3864.5,-264 3864.5,-283"/>
<text text-anchor="middle" x="3800" y="-271" font-family="Helvetica,sans-Serif" font-size="10.00">include/d/bg/d_bg_w_sv.h</text>
</a>
</g>
</g>
<!-- Node135&#45;&gt;Node137 -->
<g id="edge56" class="edge">
<title>Node135&#45;&gt;Node137</title>
<path fill="none" stroke="#63b8ff" d="M3522.86,-321.79C3527.64,-320.82 3532.4,-319.88 3537,-319 3607.62,-305.54 3689.31,-292.04 3742.67,-283.5"/>
<polygon fill="#63b8ff" stroke="#63b8ff" points="3522.36,-318.32 3513.27,-323.77 3523.77,-325.17 3522.36,-318.32"/>
</g>
<!-- Node136&#45;&gt;Node84 -->
<g id="edge55" class="edge">
<title>Node136&#45;&gt;Node84</title>
<path fill="none" stroke="#63b8ff" d="M3917.51,-186.41C3919.18,-158.17 3921.8,-113.71 3923.15,-90.96"/>
<polygon fill="#63b8ff" stroke="#63b8ff" points="3914.03,-186.06 3916.93,-196.24 3921.01,-186.47 3914.03,-186.06"/>
</g>
<!-- Node139&#45;&gt;Node135 -->
<g id="edge59" class="edge">
<title>Node139&#45;&gt;Node135</title>
<path fill="none" stroke="#63b8ff" d="M3525.34,-377.93C3510.68,-366.35 3493.28,-352.61 3482.19,-343.84"/>
<polygon fill="#63b8ff" stroke="#63b8ff" points="3522.82,-380.4 3532.84,-383.86 3527.16,-374.91 3522.82,-380.4"/>
</g>
<!-- Node140 -->
<g id="node46" class="node">
<title>Node140</title>
<g id="a_node46"><a xlink:href="d__bg__w__kcol_8h.html" target="_top" xlink:title=" ">
<polygon fill="#fff0f0" stroke="red" points="3652,-349 3546,-349 3546,-319 3652,-319 3652,-349"/>
<text text-anchor="start" x="3554" y="-337" font-family="Helvetica,sans-Serif" font-size="10.00">include/d/bg/d_bg_w</text>
<text text-anchor="middle" x="3599" y="-326" font-family="Helvetica,sans-Serif" font-size="10.00">_kcol.h</text>
</a>
</g>
</g>
<!-- Node139&#45;&gt;Node140 -->
<g id="edge60" class="edge">
<title>Node139&#45;&gt;Node140</title>
<path fill="none" stroke="#63b8ff" d="M3569.13,-375.68C3575.65,-366.79 3582.88,-356.95 3588.6,-349.16"/>
<polygon fill="#63b8ff" stroke="#63b8ff" points="3566.42,-373.44 3563.33,-383.58 3572.07,-377.59 3566.42,-373.44"/>
</g>
<!-- Node142 -->
<g id="node47" class="node">
<title>Node142</title>
<g id="a_node47"><a xlink:href="d__bg__w__base_8cpp.html" target="_top" xlink:title=" ">
<polygon fill="white" stroke="#666666" points="3803.5,-343.5 3670.5,-343.5 3670.5,-324.5 3803.5,-324.5 3803.5,-343.5"/>
<text text-anchor="middle" x="3737" y="-331.5" font-family="Helvetica,sans-Serif" font-size="10.00">src/d/bg/d_bg_w_base.cpp</text>
</a>
</g>
</g>
<!-- Node139&#45;&gt;Node142 -->
<g id="edge61" class="edge">
<title>Node139&#45;&gt;Node142</title>
<path fill="none" stroke="#63b8ff" d="M3604.01,-381.01C3638.91,-368.93 3683.38,-353.55 3711.03,-343.99"/>
<polygon fill="#63b8ff" stroke="#63b8ff" points="3603.25,-377.57 3594.95,-384.14 3605.54,-384.18 3603.25,-377.57"/>
</g>
</g>
</svg>
