<?xml version="1.0" encoding="UTF-8" standalone="no"?>
<!DOCTYPE svg PUBLIC "-//W3C//DTD SVG 1.1//EN"
 "http://www.w3.org/Graphics/SVG/1.1/DTD/svg11.dtd">
<!-- Generated by graphviz version 7.0.4 (20221203.1631)
 -->
<!-- Title: include/SSystem/SComponent/c_counter.h Pages: 1 -->
<svg width="558pt" height="104pt"
 viewBox="0.00 0.00 557.50 104.00" xmlns="http://www.w3.org/2000/svg" xmlns:xlink="http://www.w3.org/1999/xlink">
<g id="graph0" class="graph" transform="scale(1 1) rotate(0) translate(4 100)">
<title>include/SSystem/SComponent/c_counter.h</title>
<!-- Node1 -->
<g id="node1" class="node">
<title>Node1</title>
<g id="a_node1"><a xlink:title=" ">
<polygon fill="#999999" stroke="#666666" points="362.5,-96 213.5,-96 213.5,-66 362.5,-66 362.5,-96"/>
<text text-anchor="start" x="221.5" y="-84" font-family="Helvetica,sans-Serif" font-size="10.00">include/SSystem/SComponent</text>
<text text-anchor="middle" x="288" y="-73" font-family="Helvetica,sans-Serif" font-size="10.00">/c_counter.h</text>
</a>
</g>
</g>
<!-- Node2 -->
<g id="node2" class="node">
<title>Node2</title>
<g id="a_node2"><a xlink:href="c__counter_8cpp.html" target="_top" xlink:title=" ">
<polygon fill="white" stroke="#666666" points="134,-30 0,-30 0,0 134,0 134,-30"/>
<text text-anchor="start" x="8" y="-18" font-family="Helvetica,sans-Serif" font-size="10.00">libs/SSystem/SComponent</text>
<text text-anchor="middle" x="67" y="-7" font-family="Helvetica,sans-Serif" font-size="10.00">/c_counter.cpp</text>
</a>
</g>
</g>
<!-- Node1&#45;&gt;Node2 -->
<g id="edge1" class="edge">
<title>Node1&#45;&gt;Node2</title>
<path fill="none" stroke="#63b8ff" d="M227.16,-62.38C192.41,-52.32 149.39,-39.86 116.69,-30.39"/>
<polygon fill="#63b8ff" stroke="#63b8ff" points="226.09,-65.72 236.67,-65.14 228.04,-58.99 226.09,-65.72"/>
</g>
<!-- Node3 -->
<g id="node3" class="node">
<title>Node3</title>
<g id="a_node3"><a xlink:href="d__kankyo_8cpp.html" target="_top" xlink:title=" ">
<polygon fill="white" stroke="#666666" points="286,-24.5 152,-24.5 152,-5.5 286,-5.5 286,-24.5"/>
<text text-anchor="middle" x="219" y="-12.5" font-family="Helvetica,sans-Serif" font-size="10.00">src/d/kankyo/d_kankyo.cpp</text>
</a>
</g>
</g>
<!-- Node1&#45;&gt;Node3 -->
<g id="edge2" class="edge">
<title>Node1&#45;&gt;Node3</title>
<path fill="none" stroke="#63b8ff" d="M264.58,-58.27C252.25,-46.84 237.8,-33.44 228.54,-24.84"/>
<polygon fill="#63b8ff" stroke="#63b8ff" points="261.87,-60.53 271.58,-64.77 266.63,-55.4 261.87,-60.53"/>
</g>
<!-- Node4 -->
<g id="node4" class="node">
<title>Node4</title>
<g id="a_node4"><a xlink:href="d__s__play_8cpp.html" target="_top" xlink:title=" ">
<polygon fill="white" stroke="#666666" points="410,-24.5 304,-24.5 304,-5.5 410,-5.5 410,-24.5"/>
<text text-anchor="middle" x="357" y="-12.5" font-family="Helvetica,sans-Serif" font-size="10.00">src/d/s/d_s_play.cpp</text>
</a>
</g>
</g>
<!-- Node1&#45;&gt;Node4 -->
<g id="edge3" class="edge">
<title>Node1&#45;&gt;Node4</title>
<path fill="none" stroke="#63b8ff" d="M311.42,-58.27C323.75,-46.84 338.2,-33.44 347.46,-24.84"/>
<polygon fill="#63b8ff" stroke="#63b8ff" points="309.37,-55.4 304.42,-64.77 314.13,-60.53 309.37,-55.4"/>
</g>
<!-- Node5 -->
<g id="node5" class="node">
<title>Node5</title>
<g id="a_node5"><a xlink:href="f__ap__game_8cpp.html" target="_top" xlink:title=" ">
<polygon fill="white" stroke="#666666" points="549.5,-24.5 428.5,-24.5 428.5,-5.5 549.5,-5.5 549.5,-24.5"/>
<text text-anchor="middle" x="489" y="-12.5" font-family="Helvetica,sans-Serif" font-size="10.00">src/f_ap/f_ap_game.cpp</text>
</a>
</g>
</g>
<!-- Node1&#45;&gt;Node5 -->
<g id="edge4" class="edge">
<title>Node1&#45;&gt;Node5</title>
<path fill="none" stroke="#63b8ff" d="M344.27,-62.08C382.25,-49.99 430.76,-34.54 460.85,-24.96"/>
<polygon fill="#63b8ff" stroke="#63b8ff" points="343.27,-58.73 334.8,-65.1 345.39,-65.4 343.27,-58.73"/>
</g>
</g>
</svg>
