<?xml version="1.0" encoding="UTF-8" standalone="no"?>
<!DOCTYPE svg PUBLIC "-//W3C//DTD SVG 1.1//EN"
 "http://www.w3.org/Graphics/SVG/1.1/DTD/svg11.dtd">
<!-- Generated by graphviz version 3.0.0 (20220413.0106)
 -->
<!-- Title: libs/SSystem/SComponent/c_list.cpp Pages: 1 -->
<svg width="280pt" height="229pt"
 viewBox="0.00 0.00 279.50 229.00" xmlns="http://www.w3.org/2000/svg" xmlns:xlink="http://www.w3.org/1999/xlink">
<g id="graph0" class="graph" transform="scale(1 1) rotate(0) translate(4 225)">
<title>libs/SSystem/SComponent/c_list.cpp</title>
<polygon fill="white" stroke="transparent" points="-4,4 -4,-225 275.5,-225 275.5,4 -4,4"/>
<!-- Node1 -->
<g id="node1" class="node">
<title>Node1</title>
<g id="a_node1"><a xlink:title=" ">
<polygon fill="#bfbfbf" stroke="black" points="115,-190.5 115,-220.5 249,-220.5 249,-190.5 115,-190.5"/>
<text text-anchor="start" x="123" y="-208.5" font-family="Helvetica,sans-Serif" font-size="10.00">libs/SSystem/SComponent</text>
<text text-anchor="middle" x="182" y="-197.5" font-family="Helvetica,sans-Serif" font-size="10.00">/c_list.cpp</text>
</a>
</g>
</g>
<!-- Node2 -->
<g id="node2" class="node">
<title>Node2</title>
<g id="a_node2"><a xlink:href="c__list_8h.html" target="_top" xlink:title=" ">
<polygon fill="white" stroke="black" points="38,-123.5 38,-153.5 154,-153.5 154,-123.5 38,-123.5"/>
<text text-anchor="start" x="46" y="-141.5" font-family="Helvetica,sans-Serif" font-size="10.00">SSystem/SComponent</text>
<text text-anchor="middle" x="96" y="-130.5" font-family="Helvetica,sans-Serif" font-size="10.00">/c_list.h</text>
</a>
</g>
</g>
<!-- Node1&#45;&gt;Node2 -->
<g id="edge1" class="edge">
<title>Node1&#45;&gt;Node2</title>
<path fill="none" stroke="midnightblue" d="M163.34,-190.4C151.51,-181.45 136.01,-169.74 122.86,-159.8"/>
<polygon fill="midnightblue" stroke="midnightblue" points="124.71,-156.81 114.62,-153.58 120.49,-162.4 124.71,-156.81"/>
</g>
<!-- Node4 -->
<g id="node4" class="node">
<title>Node4</title>
<g id="a_node4"><a xlink:href="types_8h.html" target="_top" xlink:title=" ">
<polygon fill="white" stroke="black" points="103.5,-0.5 103.5,-19.5 184.5,-19.5 184.5,-0.5 103.5,-0.5"/>
<text text-anchor="middle" x="144" y="-7.5" font-family="Helvetica,sans-Serif" font-size="10.00">dolphin/types.h</text>
</a>
</g>
</g>
<!-- Node1&#45;&gt;Node4 -->
<g id="edge6" class="edge">
<title>Node1&#45;&gt;Node4</title>
<path fill="none" stroke="midnightblue" d="M179.21,-190.27C172.44,-155.8 155.16,-67.81 147.61,-29.4"/>
<polygon fill="midnightblue" stroke="midnightblue" points="151.05,-28.71 145.68,-19.58 144.18,-30.06 151.05,-28.71"/>
</g>
<!-- Node5 -->
<g id="node5" class="node">
<title>Node5</title>
<g id="a_node5"><a xlink:href="dol2asm_8h.html" target="_top" xlink:title=" ">
<polygon fill="white" stroke="black" points="210.5,-129 210.5,-148 271.5,-148 271.5,-129 210.5,-129"/>
<text text-anchor="middle" x="241" y="-136" font-family="Helvetica,sans-Serif" font-size="10.00">dol2asm.h</text>
</a>
</g>
</g>
<!-- Node1&#45;&gt;Node5 -->
<g id="edge5" class="edge">
<title>Node1&#45;&gt;Node5</title>
<path fill="none" stroke="midnightblue" d="M194.8,-190.4C204.09,-180.16 216.68,-166.3 226.37,-155.62"/>
<polygon fill="midnightblue" stroke="midnightblue" points="228.98,-157.95 233.11,-148.19 223.8,-153.25 228.98,-157.95"/>
</g>
<!-- Node3 -->
<g id="node3" class="node">
<title>Node3</title>
<g id="a_node3"><a xlink:href="c__node_8h.html" target="_top" xlink:title=" ">
<polygon fill="white" stroke="black" points="0,-56.5 0,-86.5 116,-86.5 116,-56.5 0,-56.5"/>
<text text-anchor="start" x="8" y="-74.5" font-family="Helvetica,sans-Serif" font-size="10.00">SSystem/SComponent</text>
<text text-anchor="middle" x="58" y="-63.5" font-family="Helvetica,sans-Serif" font-size="10.00">/c_node.h</text>
</a>
</g>
</g>
<!-- Node2&#45;&gt;Node3 -->
<g id="edge2" class="edge">
<title>Node2&#45;&gt;Node3</title>
<path fill="none" stroke="midnightblue" d="M87.75,-123.4C82.97,-115.22 76.84,-104.73 71.38,-95.39"/>
<polygon fill="midnightblue" stroke="midnightblue" points="74.3,-93.44 66.23,-86.58 68.25,-96.98 74.3,-93.44"/>
</g>
<!-- Node2&#45;&gt;Node4 -->
<g id="edge4" class="edge">
<title>Node2&#45;&gt;Node4</title>
<path fill="none" stroke="midnightblue" d="M105.48,-123.45C111.76,-113.6 119.78,-99.94 125,-87 132.61,-68.12 137.82,-45.34 140.83,-29.67"/>
<polygon fill="midnightblue" stroke="midnightblue" points="144.3,-30.14 142.64,-19.68 137.41,-28.89 144.3,-30.14"/>
</g>
<!-- Node3&#45;&gt;Node4 -->
<g id="edge3" class="edge">
<title>Node3&#45;&gt;Node4</title>
<path fill="none" stroke="midnightblue" d="M78.38,-56.4C91.91,-47.04 109.61,-34.79 123.22,-25.38"/>
<polygon fill="midnightblue" stroke="midnightblue" points="125.25,-28.23 131.49,-19.66 121.27,-22.47 125.25,-28.23"/>
</g>
</g>
</svg>
