<?xml version="1.0" encoding="UTF-8" standalone="no"?>
<!DOCTYPE svg PUBLIC "-//W3C//DTD SVG 1.1//EN"
 "http://www.w3.org/Graphics/SVG/1.1/DTD/svg11.dtd">
<!-- Generated by graphviz version 9.0.0 (20230911.1827)
 -->
<!-- Title: libs/SSystem/SComponent/c_m3d_g_aab.cpp Pages: 1 -->
<svg width="323pt" height="404pt"
 viewBox="0.00 0.00 323.00 403.75" xmlns="http://www.w3.org/2000/svg" xmlns:xlink="http://www.w3.org/1999/xlink">

<svg id="main" version="1.1" xmlns="http://www.w3.org/2000/svg" xmlns:xlink="http://www.w3.org/1999/xlink" xml:space="preserve" onload="init(evt)">
<style type="text/css"><![CDATA[
.node, .edge {opacity: 0.7;}
.node.selected, .edge.selected {opacity: 1;}
.edge:hover path { stroke: red; }
.edge:hover polygon { stroke: red; fill: red; }
]]></style>
<script type="application/ecmascript" xlink:href="svg.min.js"/>
<svg id="graph" class="graph">
<g id="graph0" class="graph" transform="scale(1 1) rotate(0) translate(4 399.75)">
<title>libs/SSystem/SComponent/c_m3d_g_aab.cpp</title>
<!-- Node1 -->
<g id="Node000001" class="node">
<title>Node1</title>
<g id="a_Node000001"><a xlink:title=" ">
<polygon fill="#999999" stroke="#666666" points="228,-395.75 95,-395.75 95,-365.25 228,-365.25 228,-395.75"/>
<text text-anchor="start" x="103" y="-382.25" font-family="Helvetica,sans-Serif" font-size="10.00">libs/SSystem/SComponent</text>
<text text-anchor="middle" x="161.5" y="-371" font-family="Helvetica,sans-Serif" font-size="10.00">/c_m3d_g_aab.cpp</text>
</a>
</g>
</g>
<!-- Node2 -->
<g id="Node000002" class="node">
<title>Node2</title>
<g id="a_Node000002"><a xlink:href="c__m3d__g__aab_8h.html" target="_top" xlink:title=" ">
<polygon fill="white" stroke="#666666" points="219,-329.25 104,-329.25 104,-298.75 219,-298.75 219,-329.25"/>
<text text-anchor="start" x="112" y="-315.75" font-family="Helvetica,sans-Serif" font-size="10.00">SSystem/SComponent</text>
<text text-anchor="middle" x="161.5" y="-304.5" font-family="Helvetica,sans-Serif" font-size="10.00">/c_m3d_g_aab.h</text>
</a>
</g>
</g>
<!-- Node1&#45;&gt;Node2 -->
<g id="edge1_Node000001_Node000002" class="edge">
<title>Node1&#45;&gt;Node2</title>
<g id="a_edge1_Node000001_Node000002"><a xlink:title=" ">
<path fill="none" stroke="#63b8ff" d="M161.5,-364.86C161.5,-357.77 161.5,-349.04 161.5,-340.88"/>
<polygon fill="#63b8ff" stroke="#63b8ff" points="165,-341.09 161.5,-331.09 158,-341.09 165,-341.09"/>
</a>
</g>
</g>
<!-- Node3 -->
<g id="Node000003" class="node">
<title>Node3</title>
<g id="a_Node000003"><a xlink:href="c__xyz_8h.html" target="_top" xlink:title=" ">
<polygon fill="white" stroke="#666666" points="115,-196.25 0,-196.25 0,-165.75 115,-165.75 115,-196.25"/>
<text text-anchor="start" x="8" y="-182.75" font-family="Helvetica,sans-Serif" font-size="10.00">SSystem/SComponent</text>
<text text-anchor="middle" x="57.5" y="-171.5" font-family="Helvetica,sans-Serif" font-size="10.00">/c_xyz.h</text>
</a>
</g>
</g>
<!-- Node2&#45;&gt;Node3 -->
<g id="edge2_Node000002_Node000003" class="edge">
<title>Node2&#45;&gt;Node3</title>
<g id="a_edge2_Node000002_Node000003"><a xlink:title=" ">
<path fill="none" stroke="#63b8ff" d="M149.97,-298.48C132.09,-275.96 97.5,-232.38 76.06,-205.38"/>
<polygon fill="#63b8ff" stroke="#63b8ff" points="78.98,-203.43 70.02,-197.77 73.5,-207.78 78.98,-203.43"/>
</a>
</g>
</g>
<!-- Node10 -->
<g id="Node000010" class="node">
<title>Node10</title>
<g id="a_Node000010"><a xlink:href="c__m3d__g__lin_8h.html" target="_top" xlink:title=" ">
<polygon fill="white" stroke="#666666" points="262,-262.75 147,-262.75 147,-232.25 262,-232.25 262,-262.75"/>
<text text-anchor="start" x="155" y="-249.25" font-family="Helvetica,sans-Serif" font-size="10.00">SSystem/SComponent</text>
<text text-anchor="middle" x="204.5" y="-238" font-family="Helvetica,sans-Serif" font-size="10.00">/c_m3d_g_lin.h</text>
</a>
</g>
</g>
<!-- Node2&#45;&gt;Node10 -->
<g id="edge9_Node000002_Node000010" class="edge">
<title>Node2&#45;&gt;Node10</title>
<g id="a_edge9_Node000002_Node000010"><a xlink:title=" ">
<path fill="none" stroke="#63b8ff" d="M171.26,-298.36C176.37,-290.69 182.76,-281.11 188.57,-272.4"/>
<polygon fill="#63b8ff" stroke="#63b8ff" points="191.31,-274.6 193.94,-264.34 185.48,-270.72 191.31,-274.6"/>
</a>
</g>
</g>
<!-- Node11 -->
<g id="Node000011" class="node">
<title>Node11</title>
<g id="a_Node000011"><a xlink:href="global_8h.html" target="_top" xlink:title=" ">
<polygon fill="white" stroke="#666666" points="315,-190.62 266,-190.62 266,-171.38 315,-171.38 315,-190.62"/>
<text text-anchor="middle" x="290.5" y="-177.12" font-family="Helvetica,sans-Serif" font-size="10.00">global.h</text>
</a>
</g>
</g>
<!-- Node2&#45;&gt;Node11 -->
<g id="edge17_Node000002_Node000011" class="edge">
<title>Node2&#45;&gt;Node11</title>
<g id="a_edge17_Node000002_Node000011"><a xlink:title=" ">
<path fill="none" stroke="#63b8ff" d="M218.29,-298.3C237.7,-290.65 257.92,-279.31 271.5,-262.75 285.46,-245.72 289.52,-220.23 290.53,-202.46"/>
<polygon fill="#63b8ff" stroke="#63b8ff" points="294.02,-202.71 290.78,-192.63 287.03,-202.53 294.02,-202.71"/>
</a>
</g>
</g>
<!-- Node12 -->
<g id="Node000012" class="node">
<title>Node12</title>
<g id="a_Node000012"><a xlink:href="c__m3d_8h.html" target="_top" xlink:title=" ">
<polygon fill="white" stroke="#666666" points="248,-196.25 133,-196.25 133,-165.75 248,-165.75 248,-196.25"/>
<text text-anchor="start" x="141" y="-182.75" font-family="Helvetica,sans-Serif" font-size="10.00">SSystem/SComponent</text>
<text text-anchor="middle" x="190.5" y="-171.5" font-family="Helvetica,sans-Serif" font-size="10.00">/c_m3d.h</text>
</a>
</g>
</g>
<!-- Node2&#45;&gt;Node12 -->
<g id="edge13_Node000002_Node000012" class="edge">
<title>Node2&#45;&gt;Node12</title>
<g id="a_edge13_Node000002_Node000012"><a xlink:title=" ">
<path fill="none" stroke="#63b8ff" d="M151.13,-298.35C140.85,-281.89 127.91,-254.55 137.5,-232.25 142.19,-221.33 150.56,-211.67 159.28,-203.81"/>
<polygon fill="#63b8ff" stroke="#63b8ff" points="161.37,-206.62 166.82,-197.54 156.89,-201.24 161.37,-206.62"/>
</a>
</g>
</g>
<!-- Node4 -->
<g id="Node000004" class="node">
<title>Node4</title>
<g id="a_Node000004"><a xlink:href="math_8h.html" target="_top" xlink:title=" ">
<polygon fill="white" stroke="#666666" points="97.12,-129.75 51.88,-129.75 51.88,-110.5 97.12,-110.5 97.12,-129.75"/>
<text text-anchor="middle" x="74.5" y="-116.25" font-family="Helvetica,sans-Serif" font-size="10.00">math.h</text>
</a>
</g>
</g>
<!-- Node3&#45;&gt;Node4 -->
<g id="edge3_Node000003_Node000004" class="edge">
<title>Node3&#45;&gt;Node4</title>
<g id="a_edge3_Node000003_Node000004"><a xlink:title=" ">
<path fill="none" stroke="#63b8ff" d="M61.7,-165.45C63.82,-158.12 66.42,-149.12 68.72,-141.16"/>
<polygon fill="#63b8ff" stroke="#63b8ff" points="72.05,-142.23 71.46,-131.66 65.32,-140.29 72.05,-142.23"/>
</a>
</g>
</g>
<!-- Node7 -->
<g id="Node000007" class="node">
<title>Node7</title>
<g id="a_Node000007"><a xlink:href="vec_8h.html" target="_top" xlink:title=" ">
<polygon fill="white" stroke="#666666" points="215.38,-129.75 123.62,-129.75 123.62,-110.5 215.38,-110.5 215.38,-129.75"/>
<text text-anchor="middle" x="169.5" y="-116.25" font-family="Helvetica,sans-Serif" font-size="10.00">dolphin/mtx/vec.h</text>
</a>
</g>
</g>
<!-- Node3&#45;&gt;Node7 -->
<g id="edge6_Node000003_Node000007" class="edge">
<title>Node3&#45;&gt;Node7</title>
<g id="a_edge6_Node000003_Node000007"><a xlink:title=" ">
<path fill="none" stroke="#63b8ff" d="M85.47,-165.3C102.86,-156.16 125.1,-144.47 142.33,-135.41"/>
<polygon fill="#63b8ff" stroke="#63b8ff" points="143.76,-138.61 150.98,-130.86 140.5,-132.41 143.76,-138.61"/>
</a>
</g>
</g>
<!-- Node5 -->
<g id="Node000005" class="node">
<title>Node5</title>
<g id="a_Node000005"><a xlink:href="float_8h.html" target="_top" xlink:title=" ">
<polygon fill="white" stroke="#666666" points="95.25,-74.5 53.75,-74.5 53.75,-55.25 95.25,-55.25 95.25,-74.5"/>
<text text-anchor="middle" x="74.5" y="-61" font-family="Helvetica,sans-Serif" font-size="10.00">float.h</text>
</a>
</g>
</g>
<!-- Node4&#45;&gt;Node5 -->
<g id="edge4_Node000004_Node000005" class="edge">
<title>Node4&#45;&gt;Node5</title>
<g id="a_edge4_Node000004_Node000005"><a xlink:title=" ">
<path fill="none" stroke="#63b8ff" d="M74.5,-110.33C74.5,-103.82 74.5,-94.67 74.5,-86.37"/>
<polygon fill="#63b8ff" stroke="#63b8ff" points="78,-86.37 74.5,-76.37 71,-86.37 78,-86.37"/>
</a>
</g>
</g>
<!-- Node6 -->
<g id="Node000006" class="node">
<title>Node6</title>
<g id="a_Node000006"><a xlink:href="fdlibm_8h.html" target="_top" xlink:title=" ">
<polygon fill="white" stroke="#666666" points="99.38,-19.25 49.62,-19.25 49.62,0 99.38,0 99.38,-19.25"/>
<text text-anchor="middle" x="74.5" y="-5.75" font-family="Helvetica,sans-Serif" font-size="10.00">fdlibm.h</text>
</a>
</g>
</g>
<!-- Node5&#45;&gt;Node6 -->
<g id="edge5_Node000005_Node000006" class="edge">
<title>Node5&#45;&gt;Node6</title>
<g id="a_edge5_Node000005_Node000006"><a xlink:title=" ">
<path fill="none" stroke="#63b8ff" d="M74.5,-55.08C74.5,-48.57 74.5,-39.42 74.5,-31.12"/>
<polygon fill="#63b8ff" stroke="#63b8ff" points="78,-31.12 74.5,-21.12 71,-31.12 78,-31.12"/>
</a>
</g>
</g>
<!-- Node8 -->
<g id="Node000008" class="node">
<title>Node8</title>
<g id="a_Node000008"><a xlink:href="types_8h.html" target="_top" xlink:title=" ">
<polygon fill="white" stroke="#666666" points="283.75,-74.5 203.25,-74.5 203.25,-55.25 283.75,-55.25 283.75,-74.5"/>
<text text-anchor="middle" x="243.5" y="-61" font-family="Helvetica,sans-Serif" font-size="10.00">dolphin/types.h</text>
</a>
</g>
</g>
<!-- Node7&#45;&gt;Node8 -->
<g id="edge7_Node000007_Node000008" class="edge">
<title>Node7&#45;&gt;Node8</title>
<g id="a_edge7_Node000007_Node000008"><a xlink:title=" ">
<path fill="none" stroke="#63b8ff" d="M182.05,-110.09C192.96,-102.24 209,-90.7 221.96,-81.37"/>
<polygon fill="#63b8ff" stroke="#63b8ff" points="223.83,-84.34 229.9,-75.66 219.74,-78.66 223.83,-84.34"/>
</a>
</g>
</g>
<!-- Node9 -->
<g id="Node000009" class="node">
<title>Node9</title>
<g id="a_Node000009"><a xlink:href="stddef_8h.html" target="_top" xlink:title=" ">
<polygon fill="white" stroke="#666666" points="268.75,-19.25 218.25,-19.25 218.25,0 268.75,0 268.75,-19.25"/>
<text text-anchor="middle" x="243.5" y="-5.75" font-family="Helvetica,sans-Serif" font-size="10.00">stddef.h</text>
</a>
</g>
</g>
<!-- Node8&#45;&gt;Node9 -->
<g id="edge8_Node000008_Node000009" class="edge">
<title>Node8&#45;&gt;Node9</title>
<g id="a_edge8_Node000008_Node000009"><a xlink:title=" ">
<path fill="none" stroke="#63b8ff" d="M243.5,-55.08C243.5,-48.57 243.5,-39.42 243.5,-31.12"/>
<polygon fill="#63b8ff" stroke="#63b8ff" points="247,-31.12 243.5,-21.12 240,-31.12 247,-31.12"/>
</a>
</g>
</g>
<!-- Node10&#45;&gt;Node3 -->
<g id="edge10_Node000010_Node000003" class="edge">
<title>Node10&#45;&gt;Node3</title>
<g id="a_edge10_Node000010_Node000003"><a xlink:title=" ">
<path fill="none" stroke="#63b8ff" d="M171.14,-231.86C150.45,-222.78 123.63,-211.02 101.24,-201.19"/>
<polygon fill="#63b8ff" stroke="#63b8ff" points="102.93,-198.11 92.36,-197.3 100.12,-204.52 102.93,-198.11"/>
</a>
</g>
</g>
<!-- Node10&#45;&gt;Node11 -->
<g id="edge11_Node000010_Node000011" class="edge">
<title>Node10&#45;&gt;Node11</title>
<g id="a_edge11_Node000010_Node000011"><a xlink:title=" ">
<path fill="none" stroke="#63b8ff" d="M224.01,-231.86C237.71,-221.6 255.98,-207.89 269.9,-197.45"/>
<polygon fill="#63b8ff" stroke="#63b8ff" points="271.63,-200.53 277.53,-191.73 267.43,-194.93 271.63,-200.53"/>
</a>
</g>
</g>
<!-- Node11&#45;&gt;Node8 -->
<g id="edge12_Node000011_Node000008" class="edge">
<title>Node11&#45;&gt;Node8</title>
<g id="a_edge12_Node000011_Node000008"><a xlink:title=" ">
<path fill="none" stroke="#63b8ff" d="M286.81,-171.04C279.23,-152.63 261.73,-110.14 251.45,-85.17"/>
<polygon fill="#63b8ff" stroke="#63b8ff" points="254.79,-84.1 247.75,-76.19 248.32,-86.77 254.79,-84.1"/>
</a>
</g>
</g>
<!-- Node12&#45;&gt;Node4 -->
<g id="edge14_Node000012_Node000004" class="edge">
<title>Node12&#45;&gt;Node4</title>
<g id="a_edge14_Node000012_Node000004"><a xlink:title=" ">
<path fill="none" stroke="#63b8ff" d="M161.53,-165.3C143.44,-156.11 120.27,-144.36 102.39,-135.28"/>
<polygon fill="#63b8ff" stroke="#63b8ff" points="104.14,-132.24 93.64,-130.84 100.97,-138.49 104.14,-132.24"/>
</a>
</g>
</g>
<!-- Node12&#45;&gt;Node7 -->
<g id="edge16_Node000012_Node000007" class="edge">
<title>Node12&#45;&gt;Node7</title>
<g id="a_edge16_Node000012_Node000007"><a xlink:title=" ">
<path fill="none" stroke="#63b8ff" d="M185.31,-165.45C182.66,-158.03 179.41,-148.91 176.54,-140.88"/>
<polygon fill="#63b8ff" stroke="#63b8ff" points="179.9,-139.87 173.25,-131.63 173.31,-142.22 179.9,-139.87"/>
</a>
</g>
</g>
<!-- Node12&#45;&gt;Node8 -->
<g id="edge15_Node000012_Node000008" class="edge">
<title>Node12&#45;&gt;Node8</title>
<g id="a_edge15_Node000012_Node000008"><a xlink:title=" ">
<path fill="none" stroke="#63b8ff" d="M202.19,-165.33C209.43,-155.68 218.46,-142.51 224.5,-129.75 231.18,-115.64 236.09,-98.67 239.25,-85.76"/>
<polygon fill="#63b8ff" stroke="#63b8ff" points="242.59,-86.87 241.4,-76.34 235.76,-85.31 242.59,-86.87"/>
</a>
</g>
</g>
</g>
</svg>
</svg>

<style type='text/css'>
<![CDATA[
[data-mouse-over-selected='false'] { opacity: 0.7; }
[data-mouse-over-selected='true']  { opacity: 1.0; }
]]>
</style>
<script type="application/ecmascript"><![CDATA[
document.addEventListener('DOMContentLoaded', (event) => {
  highlightEdges();
  highlightAdjacentNodes();
});
]]></script>
</svg>
