<?xml version="1.0" encoding="UTF-8" standalone="no"?>
<!DOCTYPE svg PUBLIC "-//W3C//DTD SVG 1.1//EN"
 "http://www.w3.org/Graphics/SVG/1.1/DTD/svg11.dtd">
<!-- Generated by graphviz version 7.0.5 (20221223.1930)
 -->
<!-- Title: include/SSystem/SComponent/c_malloc.h Pages: 1 -->
<!--zoomable 445 -->
<svg id="main" version="1.1" xmlns="http://www.w3.org/2000/svg" xmlns:xlink="http://www.w3.org/1999/xlink" xml:space="preserve" onload="init(evt)">
<style type="text/css"><![CDATA[
.edge:hover path { stroke: red; }
.edge:hover polygon { stroke: red; fill: red; }
]]></style>
<script type="text/javascript"><![CDATA[
var edges = document.getElementsByTagName('g');
if (edges && edges.length) {
  for (var i=0;i<edges.length;i++) {
    if (edges[i].id.substr(0,4)=='edge') {
      edges[i].setAttribute('class','edge');
    }
  }
}
]]></script>
        <defs>
                <circle id="rim" cx="0" cy="0" r="7"/>
                <circle id="rim2" cx="0" cy="0" r="3.5"/>
                <g id="zoomPlus">
                        <use xlink:href="#rim" fill="#404040">
                                <set attributeName="fill" to="#808080" begin="zoomplus.mouseover" end="zoomplus.mouseout"/>
                        </use>
                        <path d="M-4,0h8M0,-4v8" fill="none" stroke="white" stroke-width="1.5" pointer-events="none"/>
                </g>
                <g id="zoomMin">
                        <use xlink:href="#rim" fill="#404040">
                                <set attributeName="fill" to="#808080" begin="zoomminus.mouseover" end="zoomminus.mouseout"/>
                        </use>
                        <path d="M-4,0h8" fill="none" stroke="white" stroke-width="1.5" pointer-events="none"/>
                </g>
                <g id="dirArrow">
                        <path fill="none" stroke="white" stroke-width="1.5" d="M0,-3.0v7 M-2.5,-0.5L0,-3.0L2.5,-0.5"/>
                </g>
               <g id="resetDef">
                       <use xlink:href="#rim2" fill="#404040">
                               <set attributeName="fill" to="#808080" begin="reset.mouseover" end="reset.mouseout"/>
                       </use>
               </g>
        </defs>

<script type="text/javascript">
var viewWidth = 2213;
var viewHeight = 445;
var sectionId = 'dynsection-0';
</script>
<script xlink:href="svgpan.js"/>
<svg id="graph" class="graph">
<g id="viewport">
<title>include/SSystem/SComponent/c_malloc.h</title>
<!-- Node1 -->
<g id="node1" class="node">
<title>Node1</title>
<g id="a_node1"><a xlink:title=" ">
<polygon fill="#999999" stroke="#666666" points="1798.5,-437 1649.5,-437 1649.5,-407 1798.5,-407 1798.5,-437"/>
<text text-anchor="start" x="1657.5" y="-425" font-family="Helvetica,sans-Serif" font-size="10.00">include/SSystem/SComponent</text>
<text text-anchor="middle" x="1724" y="-414" font-family="Helvetica,sans-Serif" font-size="10.00">/c_malloc.h</text>
</a>
</g>
</g>
<!-- Node2 -->
<g id="node2" class="node">
<title>Node2</title>
<g id="a_node2"><a xlink:href="JKRHeap_8h.html" target="_top" xlink:title=" ">
<polygon fill="white" stroke="#666666" points="1642.5,-371 1499.5,-371 1499.5,-352 1642.5,-352 1642.5,-371"/>
<text text-anchor="middle" x="1571" y="-359" font-family="Helvetica,sans-Serif" font-size="10.00">JSystem/JKernel/JKRHeap.h</text>
</a>
</g>
</g>
<!-- Node1&#45;&gt;Node2 -->
<g id="edge1" class="edge">
<title>Node1&#45;&gt;Node2</title>
<path fill="none" stroke="#63b8ff" d="M1686.18,-406.54C1661.28,-397.02 1628.95,-384.66 1604.89,-375.46"/>
<polygon fill="#63b8ff" stroke="#63b8ff" points="1606.14,-372.19 1595.55,-371.89 1603.64,-378.73 1606.14,-372.19"/>
</g>
<!-- Node5 -->
<g id="node5" class="node">
<title>Node5</title>
<g id="a_node5"><a xlink:href="types_8h.html" target="_top" xlink:title=" ">
<polygon fill="white" stroke="#666666" points="1342.5,-85 1261.5,-85 1261.5,-66 1342.5,-66 1342.5,-85"/>
<text text-anchor="middle" x="1302" y="-73" font-family="Helvetica,sans-Serif" font-size="10.00">dolphin/types.h</text>
</a>
</g>
</g>
<!-- Node1&#45;&gt;Node5 -->
<g id="edge57" class="edge">
<title>Node1&#45;&gt;Node5</title>
<path fill="none" stroke="#63b8ff" d="M1798.84,-418.65C1933.56,-412.37 2203,-389.54 2203,-307.5 2203,-307.5 2203,-307.5 2203,-195.5 2203,-161.22 2209.67,-142.54 2183,-121 2150.64,-94.85 1538.23,-81.03 1354,-77.45"/>
<polygon fill="#63b8ff" stroke="#63b8ff" points="1354.32,-73.96 1344.26,-77.26 1354.19,-80.95 1354.32,-73.96"/>
</g>
<!-- Node3 -->
<g id="node3" class="node">
<title>Node3</title>
<g id="a_node3"><a xlink:href="JKRDisposer_8h.html" target="_top" xlink:title=" ">
<polygon fill="white" stroke="#666666" points="2117,-206 1959,-206 1959,-187 2117,-187 2117,-206"/>
<text text-anchor="middle" x="2038" y="-194" font-family="Helvetica,sans-Serif" font-size="10.00">JSystem/JKernel/JKRDisposer.h</text>
</a>
</g>
</g>
<!-- Node2&#45;&gt;Node3 -->
<g id="edge2" class="edge">
<title>Node2&#45;&gt;Node3</title>
<path fill="none" stroke="#63b8ff" d="M1597.53,-351.59C1648.75,-334.36 1764.78,-295.16 1862,-261 1910.95,-243.8 1967.33,-223.35 2002.81,-210.39"/>
<polygon fill="#63b8ff" stroke="#63b8ff" points="2003.95,-213.7 2012.14,-206.98 2001.54,-207.13 2003.95,-213.7"/>
</g>
<!-- Node2&#45;&gt;Node5 -->
<g id="edge56" class="edge">
<title>Node2&#45;&gt;Node5</title>
<path fill="none" stroke="#63b8ff" d="M1499.16,-359.37C1191.41,-354.08 0,-328.69 0,-252.5 0,-252.5 0,-252.5 0,-195.5 0,-123.44 74.33,-139.38 144,-121 251.63,-92.61 1038.64,-80.05 1249.92,-77.17"/>
<polygon fill="#63b8ff" stroke="#63b8ff" points="1249.81,-80.67 1259.76,-77.03 1249.72,-73.67 1249.81,-80.67"/>
</g>
<!-- Node7 -->
<g id="node7" class="node">
<title>Node7</title>
<g id="a_node7"><a xlink:href="OS_8h.html" target="_top" xlink:title=" ">
<polygon fill="white" stroke="#666666" points="1203,-316 1117,-316 1117,-297 1203,-297 1203,-316"/>
<text text-anchor="middle" x="1160" y="-304" font-family="Helvetica,sans-Serif" font-size="10.00">dolphin/os/OS.h</text>
</a>
</g>
</g>
<!-- Node2&#45;&gt;Node7 -->
<g id="edge7" class="edge">
<title>Node2&#45;&gt;Node7</title>
<path fill="none" stroke="#63b8ff" d="M1501.28,-351.51C1420.41,-341.08 1288.76,-324.1 1214.84,-314.57"/>
<polygon fill="#63b8ff" stroke="#63b8ff" points="1215.35,-311.11 1204.99,-313.3 1214.46,-318.05 1215.35,-311.11"/>
</g>
<!-- Node4 -->
<g id="node4" class="node">
<title>Node4</title>
<g id="a_node4"><a xlink:href="JSUList_8h.html" target="_top" xlink:title=" ">
<polygon fill="white" stroke="#666666" points="2174.5,-145.5 2031.5,-145.5 2031.5,-126.5 2174.5,-126.5 2174.5,-145.5"/>
<text text-anchor="middle" x="2103" y="-133.5" font-family="Helvetica,sans-Serif" font-size="10.00">JSystem/JSupport/JSUList.h</text>
</a>
</g>
</g>
<!-- Node3&#45;&gt;Node4 -->
<g id="edge3" class="edge">
<title>Node3&#45;&gt;Node4</title>
<path fill="none" stroke="#63b8ff" d="M2047.87,-186.62C2057.61,-177.85 2072.72,-164.25 2084.66,-153.5"/>
<polygon fill="#63b8ff" stroke="#63b8ff" points="2086.82,-156.27 2091.91,-146.98 2082.14,-151.07 2086.82,-156.27"/>
</g>
<!-- Node3&#45;&gt;Node5 -->
<g id="edge6" class="edge">
<title>Node3&#45;&gt;Node5</title>
<path fill="none" stroke="#63b8ff" d="M2032.3,-186.58C2021.24,-170.17 1995.11,-135.52 1963,-121 1908.09,-96.17 1500.09,-82.17 1353.91,-77.91"/>
<polygon fill="#63b8ff" stroke="#63b8ff" points="1354.24,-74.42 1344.14,-77.63 1354.03,-81.42 1354.24,-74.42"/>
</g>
<!-- Node4&#45;&gt;Node5 -->
<g id="edge4" class="edge">
<title>Node4&#45;&gt;Node5</title>
<path fill="none" stroke="#63b8ff" d="M2053.09,-126.02C2041.29,-124.13 2028.73,-122.32 2017,-121 1769.7,-93.24 1472.19,-81.69 1354.03,-77.97"/>
<polygon fill="#63b8ff" stroke="#63b8ff" points="1354.45,-74.48 1344.35,-77.67 1354.23,-81.48 1354.45,-74.48"/>
</g>
<!-- Node6 -->
<g id="node6" class="node">
<title>Node6</title>
<g id="a_node6"><a xlink:href="stddef_8h.html" target="_top" xlink:title=" ">
<polygon fill="white" stroke="#666666" points="1370,-30 1234,-30 1234,0 1370,0 1370,-30"/>
<text text-anchor="start" x="1242" y="-18" font-family="Helvetica,sans-Serif" font-size="10.00">MSL_C/MSL_Common/Src</text>
<text text-anchor="middle" x="1302" y="-7" font-family="Helvetica,sans-Serif" font-size="10.00">/stddef.h</text>
</a>
</g>
</g>
<!-- Node5&#45;&gt;Node6 -->
<g id="edge5" class="edge">
<title>Node5&#45;&gt;Node6</title>
<path fill="none" stroke="#63b8ff" d="M1302,-65.87C1302,-59.4 1302,-50.2 1302,-41.45"/>
<polygon fill="#63b8ff" stroke="#63b8ff" points="1305.5,-41.63 1302,-31.63 1298.5,-41.63 1305.5,-41.63"/>
</g>
<!-- Node8 -->
<g id="node8" class="node">
<title>Node8</title>
<g id="a_node8"><a xlink:href="____va__arg_8h.html" target="_top" xlink:title=" ">
<polygon fill="white" stroke="#666666" points="1937,-151 1827,-151 1827,-121 1937,-121 1937,-151"/>
<text text-anchor="start" x="1835" y="-139" font-family="Helvetica,sans-Serif" font-size="10.00">Runtime.PPCEABI.H/</text>
<text text-anchor="middle" x="1882" y="-128" font-family="Helvetica,sans-Serif" font-size="10.00">__va_arg.h</text>
</a>
</g>
</g>
<!-- Node7&#45;&gt;Node8 -->
<g id="edge8" class="edge">
<title>Node7&#45;&gt;Node8</title>
<path fill="none" stroke="#63b8ff" d="M1203.36,-304.68C1314.16,-302.16 1605.29,-292.62 1696,-261 1760.65,-238.46 1824.53,-188.1 1857.99,-158.97"/>
<polygon fill="#63b8ff" stroke="#63b8ff" points="1860.3,-161.6 1865.47,-152.36 1855.66,-156.36 1860.3,-161.6"/>
</g>
<!-- Node9 -->
<g id="node9" class="node">
<title>Node9</title>
<g id="a_node9"><a xlink:href="dvd_8h.html" target="_top" xlink:title=" ">
<polygon fill="white" stroke="#666666" points="1941,-206 1849,-206 1849,-187 1941,-187 1941,-206"/>
<text text-anchor="middle" x="1895" y="-194" font-family="Helvetica,sans-Serif" font-size="10.00">dolphin/dvd/dvd.h</text>
</a>
</g>
</g>
<!-- Node7&#45;&gt;Node9 -->
<g id="edge10" class="edge">
<title>Node7&#45;&gt;Node9</title>
<path fill="none" stroke="#63b8ff" d="M1203.46,-304.47C1343.65,-300.9 1778.08,-287.78 1835,-261 1855.74,-251.24 1872.9,-230.88 1883.48,-215.83"/>
<polygon fill="#63b8ff" stroke="#63b8ff" points="1886.26,-217.98 1888.88,-207.71 1880.43,-214.1 1886.26,-217.98"/>
</g>
<!-- Node10 -->
<g id="node10" class="node">
<title>Node10</title>
<g id="a_node10"><a xlink:href="OSAlarm_8h.html" target="_top" xlink:title=" ">
<polygon fill="white" stroke="#666666" points="303.5,-261 192.5,-261 192.5,-242 303.5,-242 303.5,-261"/>
<text text-anchor="middle" x="248" y="-249" font-family="Helvetica,sans-Serif" font-size="10.00">dolphin/os/OSAlarm.h</text>
</a>
</g>
</g>
<!-- Node7&#45;&gt;Node10 -->
<g id="edge12" class="edge">
<title>Node7&#45;&gt;Node10</title>
<path fill="none" stroke="#63b8ff" d="M1116.55,-304.25C992.01,-300.43 623.16,-287.56 318,-261 316.99,-260.91 315.96,-260.82 314.94,-260.73"/>
<polygon fill="#63b8ff" stroke="#63b8ff" points="315.55,-257.27 305.25,-259.77 314.86,-264.24 315.55,-257.27"/>
</g>
<!-- Node11 -->
<g id="node11" class="node">
<title>Node11</title>
<g id="a_node11"><a xlink:href="OSTime_8h.html" target="_top" xlink:title=" ">
<polygon fill="white" stroke="#666666" points="217.5,-206 110.5,-206 110.5,-187 217.5,-187 217.5,-206"/>
<text text-anchor="middle" x="164" y="-194" font-family="Helvetica,sans-Serif" font-size="10.00">dolphin/os/OSTime.h</text>
</a>
</g>
</g>
<!-- Node7&#45;&gt;Node11 -->
<g id="edge55" class="edge">
<title>Node7&#45;&gt;Node11</title>
<path fill="none" stroke="#63b8ff" d="M1116.72,-304.92C932.37,-302.25 220.27,-290.09 183,-261 169.95,-250.81 165.57,-232.02 164.23,-217.52"/>
<polygon fill="#63b8ff" stroke="#63b8ff" points="167.74,-217.53 163.77,-207.7 160.74,-217.86 167.74,-217.53"/>
</g>
<!-- Node12 -->
<g id="node12" class="node">
<title>Node12</title>
<g id="a_node12"><a xlink:href="OSError_8h.html" target="_top" xlink:title=" ">
<polygon fill="white" stroke="#666666" points="342,-206 236,-206 236,-187 342,-187 342,-206"/>
<text text-anchor="middle" x="289" y="-194" font-family="Helvetica,sans-Serif" font-size="10.00">dolphin/os/OSError.h</text>
</a>
</g>
</g>
<!-- Node7&#45;&gt;Node12 -->
<g id="edge27" class="edge">
<title>Node7&#45;&gt;Node12</title>
<path fill="none" stroke="#63b8ff" d="M1116.74,-304.84C959.8,-302.22 425.97,-291.16 356,-261 333.3,-251.22 313.64,-230.18 301.59,-214.99"/>
<polygon fill="#63b8ff" stroke="#63b8ff" points="304.55,-213.11 295.73,-207.24 298.97,-217.33 304.55,-213.11"/>
</g>
<!-- Node13 -->
<g id="node13" class="node">
<title>Node13</title>
<g id="a_node13"><a xlink:href="OSContext_8h.html" target="_top" xlink:title=" ">
<polygon fill="white" stroke="#666666" points="551.5,-145.5 432.5,-145.5 432.5,-126.5 551.5,-126.5 551.5,-145.5"/>
<text text-anchor="middle" x="492" y="-133.5" font-family="Helvetica,sans-Serif" font-size="10.00">dolphin/os/OSContext.h</text>
</a>
</g>
</g>
<!-- Node7&#45;&gt;Node13 -->
<g id="edge26" class="edge">
<title>Node7&#45;&gt;Node13</title>
<path fill="none" stroke="#63b8ff" d="M1116.6,-304.52C961.43,-300.82 442.07,-286.56 418,-261 407.88,-250.26 405.88,-219.78 425,-187 433.83,-171.87 449.23,-159.89 463.04,-151.46"/>
<polygon fill="#63b8ff" stroke="#63b8ff" points="464.43,-154.69 471.38,-146.7 460.96,-148.61 464.43,-154.69"/>
</g>
<!-- Node14 -->
<g id="node14" class="node">
<title>Node14</title>
<g id="a_node14"><a xlink:href="OSAlloc_8h.html" target="_top" xlink:title=" ">
<polygon fill="white" stroke="#666666" points="135.5,-261 28.5,-261 28.5,-242 135.5,-242 135.5,-261"/>
<text text-anchor="middle" x="82" y="-249" font-family="Helvetica,sans-Serif" font-size="10.00">dolphin/os/OSAlloc.h</text>
</a>
</g>
</g>
<!-- Node7&#45;&gt;Node14 -->
<g id="edge18" class="edge">
<title>Node7&#45;&gt;Node14</title>
<path fill="none" stroke="#63b8ff" d="M1116.61,-304.83C976.47,-302.41 523.4,-292.51 150,-261 148.99,-260.91 147.97,-260.83 146.94,-260.73"/>
<polygon fill="#63b8ff" stroke="#63b8ff" points="147.58,-257.28 137.29,-259.78 146.89,-264.25 147.58,-257.28"/>
</g>
<!-- Node15 -->
<g id="node15" class="node">
<title>Node15</title>
<g id="a_node15"><a xlink:href="OSArena_8h.html" target="_top" xlink:title=" ">
<polygon fill="white" stroke="#666666" points="997.5,-261 886.5,-261 886.5,-242 997.5,-242 997.5,-261"/>
<text text-anchor="middle" x="942" y="-249" font-family="Helvetica,sans-Serif" font-size="10.00">dolphin/os/OSArena.h</text>
</a>
</g>
</g>
<!-- Node7&#45;&gt;Node15 -->
<g id="edge20" class="edge">
<title>Node7&#45;&gt;Node15</title>
<path fill="none" stroke="#63b8ff" d="M1123.02,-296.51C1086.34,-287.59 1029.98,-273.89 989.9,-264.15"/>
<polygon fill="#63b8ff" stroke="#63b8ff" points="990.81,-260.77 980.27,-261.8 989.16,-267.57 990.81,-260.77"/>
</g>
<!-- Node16 -->
<g id="node16" class="node">
<title>Node16</title>
<g id="a_node16"><a xlink:href="OSAudioSystem_8h.html" target="_top" xlink:title=" ">
<polygon fill="white" stroke="#666666" points="1158.5,-261 1015.5,-261 1015.5,-242 1158.5,-242 1158.5,-261"/>
<text text-anchor="middle" x="1087" y="-249" font-family="Helvetica,sans-Serif" font-size="10.00">dolphin/os/OSAudioSystem.h</text>
</a>
</g>
</g>
<!-- Node7&#45;&gt;Node16 -->
<g id="edge22" class="edge">
<title>Node7&#45;&gt;Node16</title>
<path fill="none" stroke="#63b8ff" d="M1147.62,-296.51C1136.85,-288.7 1121.03,-277.21 1108.25,-267.93"/>
<polygon fill="#63b8ff" stroke="#63b8ff" points="1110.57,-265.29 1100.43,-262.25 1106.46,-270.95 1110.57,-265.29"/>
</g>
<!-- Node17 -->
<g id="node17" class="node">
<title>Node17</title>
<g id="a_node17"><a xlink:href="OSCache_8h.html" target="_top" xlink:title=" ">
<polygon fill="white" stroke="#666666" points="1289.5,-261 1176.5,-261 1176.5,-242 1289.5,-242 1289.5,-261"/>
<text text-anchor="middle" x="1233" y="-249" font-family="Helvetica,sans-Serif" font-size="10.00">dolphin/os/OSCache.h</text>
</a>
</g>
</g>
<!-- Node7&#45;&gt;Node17 -->
<g id="edge24" class="edge">
<title>Node7&#45;&gt;Node17</title>
<path fill="none" stroke="#63b8ff" d="M1172.38,-296.51C1183.15,-288.7 1198.97,-277.21 1211.75,-267.93"/>
<polygon fill="#63b8ff" stroke="#63b8ff" points="1213.54,-270.95 1219.57,-262.25 1209.43,-265.29 1213.54,-270.95"/>
</g>
<!-- Node18 -->
<g id="node18" class="node">
<title>Node18</title>
<g id="a_node18"><a xlink:href="OSExec_8h.html" target="_top" xlink:title=" ">
<polygon fill="white" stroke="#666666" points="1261.5,-206 1154.5,-206 1154.5,-187 1261.5,-187 1261.5,-206"/>
<text text-anchor="middle" x="1208" y="-194" font-family="Helvetica,sans-Serif" font-size="10.00">dolphin/os/OSExec.h</text>
</a>
</g>
</g>
<!-- Node7&#45;&gt;Node18 -->
<g id="edge28" class="edge">
<title>Node7&#45;&gt;Node18</title>
<path fill="none" stroke="#63b8ff" d="M1203.22,-304.3C1235.09,-300.86 1276.51,-290.51 1298,-261 1314.46,-238.39 1282.74,-220.89 1252.52,-210.04"/>
<polygon fill="#63b8ff" stroke="#63b8ff" points="1254,-206.85 1243.4,-206.96 1251.76,-213.48 1254,-206.85"/>
</g>
<!-- Node19 -->
<g id="node19" class="node">
<title>Node19</title>
<g id="a_node19"><a xlink:href="OSFont_8h.html" target="_top" xlink:title=" ">
<polygon fill="white" stroke="#666666" points="1231.5,-145.5 1126.5,-145.5 1126.5,-126.5 1231.5,-126.5 1231.5,-145.5"/>
<text text-anchor="middle" x="1179" y="-133.5" font-family="Helvetica,sans-Serif" font-size="10.00">dolphin/os/OSFont.h</text>
</a>
</g>
</g>
<!-- Node7&#45;&gt;Node19 -->
<g id="edge30" class="edge">
<title>Node7&#45;&gt;Node19</title>
<path fill="none" stroke="#63b8ff" d="M1203.36,-298.97C1244.35,-291.8 1301.52,-278.89 1315,-261 1350.11,-214.4 1265.94,-171.19 1214.79,-150.24"/>
<polygon fill="#63b8ff" stroke="#63b8ff" points="1216.11,-147 1205.53,-146.56 1213.52,-153.51 1216.11,-147"/>
</g>
<!-- Node20 -->
<g id="node20" class="node">
<title>Node20</title>
<g id="a_node20"><a xlink:href="OSInterrupt_8h.html" target="_top" xlink:title=" ">
<polygon fill="white" stroke="#666666" points="781,-206 659,-206 659,-187 781,-187 781,-206"/>
<text text-anchor="middle" x="720" y="-194" font-family="Helvetica,sans-Serif" font-size="10.00">dolphin/os/OSInterrupt.h</text>
</a>
</g>
</g>
<!-- Node7&#45;&gt;Node20 -->
<g id="edge32" class="edge">
<title>Node7&#45;&gt;Node20</title>
<path fill="none" stroke="#63b8ff" d="M1116.65,-303.61C1015,-298.81 767.67,-284.79 739,-261 726.26,-250.43 721.84,-231.69 720.41,-217.29"/>
<polygon fill="#63b8ff" stroke="#63b8ff" points="723.92,-217.38 719.87,-207.59 716.93,-217.77 723.92,-217.38"/>
</g>
<!-- Node21 -->
<g id="node21" class="node">
<title>Node21</title>
<g id="a_node21"><a xlink:href="OSLink_8h.html" target="_top" xlink:title=" ">
<polygon fill="white" stroke="#666666" points="1354,-145.5 1250,-145.5 1250,-126.5 1354,-126.5 1354,-145.5"/>
<text text-anchor="middle" x="1302" y="-133.5" font-family="Helvetica,sans-Serif" font-size="10.00">dolphin/os/OSLink.h</text>
</a>
</g>
</g>
<!-- Node7&#45;&gt;Node21 -->
<g id="edge34" class="edge">
<title>Node7&#45;&gt;Node21</title>
<path fill="none" stroke="#63b8ff" d="M1203.26,-300.41C1249.17,-294.01 1317.23,-281.34 1333,-261 1357.38,-229.56 1332.4,-181.33 1315.25,-155.26"/>
<polygon fill="#63b8ff" stroke="#63b8ff" points="1318.17,-153.33 1309.61,-147.09 1312.41,-157.31 1318.17,-153.33"/>
</g>
<!-- Node22 -->
<g id="node22" class="node">
<title>Node22</title>
<g id="a_node22"><a xlink:href="OSMemory_8h.html" target="_top" xlink:title=" ">
<polygon fill="white" stroke="#666666" points="868,-261 748,-261 748,-242 868,-242 868,-261"/>
<text text-anchor="middle" x="808" y="-249" font-family="Helvetica,sans-Serif" font-size="10.00">dolphin/os/OSMemory.h</text>
</a>
</g>
</g>
<!-- Node7&#45;&gt;Node22 -->
<g id="edge36" class="edge">
<title>Node7&#45;&gt;Node22</title>
<path fill="none" stroke="#63b8ff" d="M1116.84,-299C1057.5,-290.07 950.01,-273.88 878.8,-263.16"/>
<polygon fill="#63b8ff" stroke="#63b8ff" points="879.61,-259.74 869.2,-261.71 878.56,-266.66 879.61,-259.74"/>
</g>
<!-- Node23 -->
<g id="node23" class="node">
<title>Node23</title>
<g id="a_node23"><a xlink:href="OSMessage_8h.html" target="_top" xlink:title=" ">
<polygon fill="white" stroke="#666666" points="691.5,-261 566.5,-261 566.5,-242 691.5,-242 691.5,-261"/>
<text text-anchor="middle" x="629" y="-249" font-family="Helvetica,sans-Serif" font-size="10.00">dolphin/os/OSMessage.h</text>
</a>
</g>
</g>
<!-- Node7&#45;&gt;Node23 -->
<g id="edge39" class="edge">
<title>Node7&#45;&gt;Node23</title>
<path fill="none" stroke="#63b8ff" d="M1116.79,-301.44C1036.06,-293.82 856.85,-276.72 706,-261 704.98,-260.89 703.94,-260.79 702.91,-260.68"/>
<polygon fill="#63b8ff" stroke="#63b8ff" points="703.43,-257.21 693.11,-259.64 702.69,-264.17 703.43,-257.21"/>
</g>
<!-- Node24 -->
<g id="node24" class="node">
<title>Node24</title>
<g id="a_node24"><a xlink:href="OSThread_8h.html" target="_top" xlink:title=" ">
<polygon fill="white" stroke="#666666" points="550,-206 434,-206 434,-187 550,-187 550,-206"/>
<text text-anchor="middle" x="492" y="-194" font-family="Helvetica,sans-Serif" font-size="10.00">dolphin/os/OSThread.h</text>
</a>
</g>
</g>
<!-- Node7&#45;&gt;Node24 -->
<g id="edge54" class="edge">
<title>Node7&#45;&gt;Node24</title>
<path fill="none" stroke="#63b8ff" d="M1116.6,-304.49C962.66,-300.7 450.74,-286.23 427,-261 410.35,-243.31 437.25,-223.92 461.34,-211.28"/>
<polygon fill="#63b8ff" stroke="#63b8ff" points="462.6,-214.56 469.99,-206.98 459.48,-208.3 462.6,-214.56"/>
</g>
<!-- Node25 -->
<g id="node25" class="node">
<title>Node25</title>
<g id="a_node25"><a xlink:href="OSMutex_8h.html" target="_top" xlink:title=" ">
<polygon fill="white" stroke="#666666" points="548,-261 436,-261 436,-242 548,-242 548,-261"/>
<text text-anchor="middle" x="492" y="-249" font-family="Helvetica,sans-Serif" font-size="10.00">dolphin/os/OSMutex.h</text>
</a>
</g>
</g>
<!-- Node7&#45;&gt;Node25 -->
<g id="edge42" class="edge">
<title>Node7&#45;&gt;Node25</title>
<path fill="none" stroke="#63b8ff" d="M1116.79,-303.15C1019.36,-297.67 774.92,-282.91 559.55,-261.2"/>
<polygon fill="#63b8ff" stroke="#63b8ff" points="560.16,-257.75 549.85,-260.22 559.45,-264.71 560.16,-257.75"/>
</g>
<!-- Node26 -->
<g id="node26" class="node">
<title>Node26</title>
<g id="a_node26"><a xlink:href="OSReboot_8h.html" target="_top" xlink:title=" ">
<polygon fill="white" stroke="#666666" points="1488,-145.5 1372,-145.5 1372,-126.5 1488,-126.5 1488,-145.5"/>
<text text-anchor="middle" x="1430" y="-133.5" font-family="Helvetica,sans-Serif" font-size="10.00">dolphin/os/OSReboot.h</text>
</a>
</g>
</g>
<!-- Node7&#45;&gt;Node26 -->
<g id="edge44" class="edge">
<title>Node7&#45;&gt;Node26</title>
<path fill="none" stroke="#63b8ff" d="M1203.11,-304.74C1244.74,-302.01 1307.81,-292.45 1352,-261 1389.18,-234.54 1412.56,-184.25 1423.22,-156.54"/>
<polygon fill="#63b8ff" stroke="#63b8ff" points="1426.46,-157.88 1426.6,-147.29 1419.88,-155.48 1426.46,-157.88"/>
</g>
<!-- Node27 -->
<g id="node27" class="node">
<title>Node27</title>
<g id="a_node27"><a xlink:href="OSReset_8h.html" target="_top" xlink:title=" ">
<polygon fill="white" stroke="#666666" points="1571.5,-206 1460.5,-206 1460.5,-187 1571.5,-187 1571.5,-206"/>
<text text-anchor="middle" x="1516" y="-194" font-family="Helvetica,sans-Serif" font-size="10.00">dolphin/os/OSReset.h</text>
</a>
</g>
</g>
<!-- Node7&#45;&gt;Node27 -->
<g id="edge46" class="edge">
<title>Node7&#45;&gt;Node27</title>
<path fill="none" stroke="#63b8ff" d="M1203.45,-306.34C1261.54,-305.82 1366.42,-299.01 1446,-261 1468.59,-250.21 1489.12,-229.73 1502.02,-214.93"/>
<polygon fill="#63b8ff" stroke="#63b8ff" points="1504.63,-217.27 1508.37,-207.36 1499.26,-212.78 1504.63,-217.27"/>
</g>
<!-- Node28 -->
<g id="node28" class="node">
<title>Node28</title>
<g id="a_node28"><a xlink:href="OSResetSW_8h.html" target="_top" xlink:title=" ">
<polygon fill="white" stroke="#666666" points="1716.5,-206 1589.5,-206 1589.5,-187 1716.5,-187 1716.5,-206"/>
<text text-anchor="middle" x="1653" y="-194" font-family="Helvetica,sans-Serif" font-size="10.00">dolphin/os/OSResetSW.h</text>
</a>
</g>
</g>
<!-- Node7&#45;&gt;Node28 -->
<g id="edge48" class="edge">
<title>Node7&#45;&gt;Node28</title>
<path fill="none" stroke="#63b8ff" d="M1203.44,-302.11C1264.52,-296.72 1378.96,-284.34 1474,-261 1527.02,-247.98 1586.34,-225.24 1621.63,-210.8"/>
<polygon fill="#63b8ff" stroke="#63b8ff" points="1622.9,-214.06 1630.8,-207 1620.22,-207.59 1622.9,-214.06"/>
</g>
<!-- Node29 -->
<g id="node29" class="node">
<title>Node29</title>
<g id="a_node29"><a xlink:href="OSRtc_8h.html" target="_top" xlink:title=" ">
<polygon fill="white" stroke="#666666" points="1683.5,-145.5 1582.5,-145.5 1582.5,-126.5 1683.5,-126.5 1683.5,-145.5"/>
<text text-anchor="middle" x="1633" y="-133.5" font-family="Helvetica,sans-Serif" font-size="10.00">dolphin/os/OSRtc.h</text>
</a>
</g>
</g>
<!-- Node7&#45;&gt;Node29 -->
<g id="edge50" class="edge">
<title>Node7&#45;&gt;Node29</title>
<path fill="none" stroke="#63b8ff" d="M1203.29,-305.03C1324.33,-302.66 1661.53,-288.64 1725,-206 1743.63,-181.74 1707.02,-161.81 1674.61,-149.71"/>
<polygon fill="#63b8ff" stroke="#63b8ff" points="1675.89,-146.45 1665.3,-146.42 1673.56,-153.05 1675.89,-146.45"/>
</g>
<!-- Node30 -->
<g id="node30" class="node">
<title>Node30</title>
<g id="a_node30"><a xlink:href="OSSync_8h.html" target="_top" xlink:title=" ">
<polygon fill="white" stroke="#666666" points="1808.5,-145.5 1701.5,-145.5 1701.5,-126.5 1808.5,-126.5 1808.5,-145.5"/>
<text text-anchor="middle" x="1755" y="-133.5" font-family="Helvetica,sans-Serif" font-size="10.00">dolphin/os/OSSync.h</text>
</a>
</g>
</g>
<!-- Node7&#45;&gt;Node30 -->
<g id="edge52" class="edge">
<title>Node7&#45;&gt;Node30</title>
<path fill="none" stroke="#63b8ff" d="M1203.33,-304.32C1308.44,-301.04 1574.47,-290.02 1658,-261 1700.15,-246.35 1717.22,-243.11 1742,-206 1751.63,-191.57 1754.57,-171.86 1755.28,-157.2"/>
<polygon fill="#63b8ff" stroke="#63b8ff" points="1758.78,-157.44 1755.43,-147.39 1751.78,-157.34 1758.78,-157.44"/>
</g>
<!-- Node8&#45;&gt;Node5 -->
<g id="edge9" class="edge">
<title>Node8&#45;&gt;Node5</title>
<path fill="none" stroke="#63b8ff" d="M1826.77,-122.61C1823.47,-122.02 1820.2,-121.48 1817,-121 1648.92,-95.74 1447.65,-83.5 1354.3,-78.84"/>
<polygon fill="#63b8ff" stroke="#63b8ff" points="1354.6,-75.35 1344.44,-78.36 1354.26,-82.34 1354.6,-75.35"/>
</g>
<!-- Node9&#45;&gt;Node5 -->
<g id="edge11" class="edge">
<title>Node9&#45;&gt;Node5</title>
<path fill="none" stroke="#63b8ff" d="M1908.82,-186.62C1929.96,-171.98 1965.89,-142.31 1946,-121 1905.94,-78.07 1499.87,-75.61 1353.9,-76.12"/>
<polygon fill="#63b8ff" stroke="#63b8ff" points="1354.13,-72.62 1344.14,-76.17 1354.16,-79.62 1354.13,-72.62"/>
</g>
<!-- Node10&#45;&gt;Node11 -->
<g id="edge13" class="edge">
<title>Node10&#45;&gt;Node11</title>
<path fill="none" stroke="#63b8ff" d="M233.75,-241.51C221.12,-233.54 202.44,-221.75 187.59,-212.38"/>
<polygon fill="#63b8ff" stroke="#63b8ff" points="189.64,-209.54 179.32,-207.17 185.91,-215.46 189.64,-209.54"/>
</g>
<!-- Node10&#45;&gt;Node12 -->
<g id="edge15" class="edge">
<title>Node10&#45;&gt;Node12</title>
<path fill="none" stroke="#63b8ff" d="M254.77,-241.75C260.32,-234.58 268.34,-224.2 275.23,-215.3"/>
<polygon fill="#63b8ff" stroke="#63b8ff" points="277.81,-217.69 281.16,-207.64 272.27,-213.41 277.81,-217.69"/>
</g>
<!-- Node11&#45;&gt;Node5 -->
<g id="edge14" class="edge">
<title>Node11&#45;&gt;Node5</title>
<path fill="none" stroke="#63b8ff" d="M188.21,-186.5C233.54,-170.12 334.62,-135.75 423,-121 583.61,-94.2 1086.07,-81.18 1249.83,-77.57"/>
<polygon fill="#63b8ff" stroke="#63b8ff" points="1249.59,-81.08 1259.51,-77.36 1249.44,-74.08 1249.59,-81.08"/>
</g>
<!-- Node12&#45;&gt;Node13 -->
<g id="edge16" class="edge">
<title>Node12&#45;&gt;Node13</title>
<path fill="none" stroke="#63b8ff" d="M319.83,-186.62C354.56,-176.61 411.2,-160.29 449.96,-149.12"/>
<polygon fill="#63b8ff" stroke="#63b8ff" points="450.78,-152.52 459.42,-146.39 448.85,-145.79 450.78,-152.52"/>
</g>
<!-- Node13&#45;&gt;Node5 -->
<g id="edge17" class="edge">
<title>Node13&#45;&gt;Node5</title>
<path fill="none" stroke="#63b8ff" d="M551.89,-130.67C704.58,-119.65 1106.49,-90.62 1250.08,-80.25"/>
<polygon fill="#63b8ff" stroke="#63b8ff" points="1249.94,-83.77 1259.66,-79.56 1249.43,-76.79 1249.94,-83.77"/>
</g>
<!-- Node14&#45;&gt;Node5 -->
<g id="edge19" class="edge">
<title>Node14&#45;&gt;Node5</title>
<path fill="none" stroke="#63b8ff" d="M82.17,-241.87C82.9,-228.36 86.27,-202.21 101,-187 165.22,-120.65 207.22,-137.87 298,-121 483.28,-86.56 1070.77,-78.56 1249.75,-76.9"/>
<polygon fill="#63b8ff" stroke="#63b8ff" points="1249.7,-80.4 1259.67,-76.81 1249.64,-73.4 1249.7,-80.4"/>
</g>
<!-- Node15&#45;&gt;Node5 -->
<g id="edge21" class="edge">
<title>Node15&#45;&gt;Node5</title>
<path fill="none" stroke="#63b8ff" d="M948.14,-241.84C965.41,-218.19 1017.08,-152.19 1077,-121 1131.66,-92.55 1202.45,-82.24 1249.89,-78.53"/>
<polygon fill="#63b8ff" stroke="#63b8ff" points="1249.89,-82.03 1259.62,-77.84 1249.4,-75.05 1249.89,-82.03"/>
</g>
<!-- Node16&#45;&gt;Node5 -->
<g id="edge23" class="edge">
<title>Node16&#45;&gt;Node5</title>
<path fill="none" stroke="#63b8ff" d="M1084.33,-241.64C1078,-218.6 1064.74,-156.18 1095,-121 1114.81,-97.98 1195.29,-86.13 1249.87,-80.63"/>
<polygon fill="#63b8ff" stroke="#63b8ff" points="1249.96,-84.14 1259.58,-79.7 1249.29,-77.17 1249.96,-84.14"/>
</g>
<!-- Node17&#45;&gt;Node5 -->
<g id="edge25" class="edge">
<title>Node17&#45;&gt;Node5</title>
<path fill="none" stroke="#63b8ff" d="M1207.43,-241.62C1188.66,-234.19 1163.35,-222.21 1145,-206 1114.12,-178.73 1082.33,-153.23 1108,-121 1125.46,-99.08 1198.7,-87.07 1250.01,-81.21"/>
<polygon fill="#63b8ff" stroke="#63b8ff" points="1250.18,-84.72 1259.74,-80.15 1249.42,-77.76 1250.18,-84.72"/>
</g>
<!-- Node18&#45;&gt;Node5 -->
<g id="edge29" class="edge">
<title>Node18&#45;&gt;Node5</title>
<path fill="none" stroke="#63b8ff" d="M1168.64,-186.65C1149.56,-180.16 1128.36,-169.2 1117,-151 1109.94,-139.69 1108.75,-131.47 1117,-121 1133.33,-100.28 1201.28,-88.1 1250.09,-81.86"/>
<polygon fill="#63b8ff" stroke="#63b8ff" points="1250.42,-85.34 1259.92,-80.66 1249.57,-78.4 1250.42,-85.34"/>
</g>
<!-- Node19&#45;&gt;Node5 -->
<g id="edge31" class="edge">
<title>Node19&#45;&gt;Node5</title>
<path fill="none" stroke="#63b8ff" d="M1197.68,-126.12C1217.64,-116.62 1249.54,-101.45 1272.82,-90.38"/>
<polygon fill="#63b8ff" stroke="#63b8ff" points="1274.25,-93.57 1281.78,-86.12 1271.24,-87.25 1274.25,-93.57"/>
</g>
<!-- Node20&#45;&gt;Node13 -->
<g id="edge33" class="edge">
<title>Node20&#45;&gt;Node13</title>
<path fill="none" stroke="#63b8ff" d="M685.37,-186.62C646.03,-176.52 581.66,-160.01 538.1,-148.83"/>
<polygon fill="#63b8ff" stroke="#63b8ff" points="538.98,-145.44 528.42,-146.34 537.24,-152.22 538.98,-145.44"/>
</g>
<!-- Node21&#45;&gt;Node5 -->
<g id="edge35" class="edge">
<title>Node21&#45;&gt;Node5</title>
<path fill="none" stroke="#63b8ff" d="M1302,-126.37C1302,-118.5 1302,-106.6 1302,-96.39"/>
<polygon fill="#63b8ff" stroke="#63b8ff" points="1305.5,-96.68 1302,-86.68 1298.5,-96.68 1305.5,-96.68"/>
</g>
<!-- Node22&#45;&gt;Node5 -->
<g id="edge37" class="edge">
<title>Node22&#45;&gt;Node5</title>
<path fill="none" stroke="#63b8ff" d="M819.79,-241.52C851.8,-217.65 943.77,-152.29 1031,-121 1104.32,-94.7 1194.43,-83.84 1250.04,-79.43"/>
<polygon fill="#63b8ff" stroke="#63b8ff" points="1250.14,-82.93 1259.86,-78.7 1249.62,-75.95 1250.14,-82.93"/>
</g>
<!-- Node22&#45;&gt;Node20 -->
<g id="edge38" class="edge">
<title>Node22&#45;&gt;Node20</title>
<path fill="none" stroke="#63b8ff" d="M793.07,-241.51C779.72,-233.47 759.89,-221.53 744.26,-212.11"/>
<polygon fill="#63b8ff" stroke="#63b8ff" points="746.38,-209.3 736,-207.14 742.76,-215.3 746.38,-209.3"/>
</g>
<!-- Node23&#45;&gt;Node24 -->
<g id="edge40" class="edge">
<title>Node23&#45;&gt;Node24</title>
<path fill="none" stroke="#63b8ff" d="M605.76,-241.51C583.68,-232.97 550.25,-220.03 525.33,-210.4"/>
<polygon fill="#63b8ff" stroke="#63b8ff" points="526.9,-207.25 516.31,-206.9 524.37,-213.78 526.9,-207.25"/>
</g>
<!-- Node24&#45;&gt;Node13 -->
<g id="edge41" class="edge">
<title>Node24&#45;&gt;Node13</title>
<path fill="none" stroke="#63b8ff" d="M492,-186.87C492,-179 492,-167.1 492,-156.89"/>
<polygon fill="#63b8ff" stroke="#63b8ff" points="495.5,-157.18 492,-147.18 488.5,-157.18 495.5,-157.18"/>
</g>
<!-- Node25&#45;&gt;Node24 -->
<g id="edge43" class="edge">
<title>Node25&#45;&gt;Node24</title>
<path fill="none" stroke="#63b8ff" d="M492,-241.75C492,-235.27 492,-226.16 492,-217.9"/>
<polygon fill="#63b8ff" stroke="#63b8ff" points="495.5,-217.96 492,-207.96 488.5,-217.96 495.5,-217.96"/>
</g>
<!-- Node26&#45;&gt;Node5 -->
<g id="edge45" class="edge">
<title>Node26&#45;&gt;Node5</title>
<path fill="none" stroke="#63b8ff" d="M1410.56,-126.12C1389.7,-116.58 1356.29,-101.31 1332.04,-90.23"/>
<polygon fill="#63b8ff" stroke="#63b8ff" points="1333.55,-87.07 1323,-86.1 1330.64,-93.44 1333.55,-87.07"/>
</g>
<!-- Node27&#45;&gt;Node5 -->
<g id="edge47" class="edge">
<title>Node27&#45;&gt;Node5</title>
<path fill="none" stroke="#63b8ff" d="M1516.48,-186.73C1516.83,-171.17 1515.16,-138.7 1497,-121 1476.99,-101.49 1405.05,-88.92 1354.4,-82.28"/>
<polygon fill="#63b8ff" stroke="#63b8ff" points="1354.84,-78.81 1344.48,-81.02 1353.97,-85.75 1354.84,-78.81"/>
</g>
<!-- Node28&#45;&gt;Node5 -->
<g id="edge49" class="edge">
<title>Node28&#45;&gt;Node5</title>
<path fill="none" stroke="#63b8ff" d="M1636.89,-186.53C1601.37,-166.76 1519.39,-121.14 1519,-121 1464.43,-100.78 1398.55,-88.92 1353.8,-82.59"/>
<polygon fill="#63b8ff" stroke="#63b8ff" points="1354.49,-79.16 1344.11,-81.27 1353.55,-86.09 1354.49,-79.16"/>
</g>
<!-- Node29&#45;&gt;Node5 -->
<g id="edge51" class="edge">
<title>Node29&#45;&gt;Node5</title>
<path fill="none" stroke="#63b8ff" d="M1592.84,-126.05C1584.63,-124.3 1576.05,-122.54 1568,-121 1493.88,-106.83 1407.65,-92.86 1353.94,-84.46"/>
<polygon fill="#63b8ff" stroke="#63b8ff" points="1354.58,-81.02 1344.16,-82.94 1353.5,-87.93 1354.58,-81.02"/>
</g>
<!-- Node30&#45;&gt;Node5 -->
<g id="edge53" class="edge">
<title>Node30&#45;&gt;Node5</title>
<path fill="none" stroke="#63b8ff" d="M1717.82,-126.06C1709.36,-124.21 1700.4,-122.41 1692,-121 1571.9,-100.86 1429.45,-87.16 1354.36,-80.71"/>
<polygon fill="#63b8ff" stroke="#63b8ff" points="1354.67,-77.23 1344.41,-79.87 1354.08,-84.2 1354.67,-77.23"/>
</g>
</g>
</svg>
        <g id="navigator" transform="translate(0 0)" fill="#404254">
                <rect fill="#f2f5e9" fill-opacity="0.5" stroke="#606060" stroke-width=".5" x="0" y="0" width="60" height="60"/>
                <use id="zoomplus" xlink:href="#zoomPlus" x="17" y="9" onmousedown="handleZoom(evt,'in')"/>
                <use id="zoomminus" xlink:href="#zoomMin" x="42" y="9" onmousedown="handleZoom(evt,'out')"/>
                <use id="reset" xlink:href="#resetDef" x="30" y="36" onmousedown="handleReset()"/>
                <g id="arrowUp" xlink:href="#dirArrow" transform="translate(30 24)" onmousedown="handlePan(0,-1)">
                  <use xlink:href="#rim" fill="#404040">
                        <set attributeName="fill" to="#808080" begin="arrowUp.mouseover" end="arrowUp.mouseout"/>
                  </use>
                  <path fill="none" stroke="white" stroke-width="1.5" d="M0,-3.0v7 M-2.5,-0.5L0,-3.0L2.5,-0.5"/>
                </g>
                <g id="arrowRight" xlink:href="#dirArrow" transform="rotate(90) translate(36 -43)" onmousedown="handlePan(1,0)">
                  <use xlink:href="#rim" fill="#404040">
                        <set attributeName="fill" to="#808080" begin="arrowRight.mouseover" end="arrowRight.mouseout"/>
                  </use>
                  <path fill="none" stroke="white" stroke-width="1.5" d="M0,-3.0v7 M-2.5,-0.5L0,-3.0L2.5,-0.5"/>
                </g>
                <g id="arrowDown" xlink:href="#dirArrow" transform="rotate(180) translate(-30 -48)" onmousedown="handlePan(0,1)">
                  <use xlink:href="#rim" fill="#404040">
                        <set attributeName="fill" to="#808080" begin="arrowDown.mouseover" end="arrowDown.mouseout"/>
                  </use>
                  <path fill="none" stroke="white" stroke-width="1.5" d="M0,-3.0v7 M-2.5,-0.5L0,-3.0L2.5,-0.5"/>
                </g>
                <g id="arrowLeft" xlink:href="#dirArrow" transform="rotate(270) translate(-36 17)" onmousedown="handlePan(-1,0)">
                  <use xlink:href="#rim" fill="#404040">
                        <set attributeName="fill" to="#808080" begin="arrowLeft.mouseover" end="arrowLeft.mouseout"/>
                  </use>
                  <path fill="none" stroke="white" stroke-width="1.5" d="M0,-3.0v7 M-2.5,-0.5L0,-3.0L2.5,-0.5"/>
                </g>
        </g>
        <svg viewBox="0 0 15 15" width="100%" height="30px" preserveAspectRatio="xMaxYMin meet">
         <g id="arrow_out" transform="scale(0.3 0.3)">
          <a xlink:href="c__malloc_8h__incl_org.svg" target="_base">
           <rect id="button" ry="5" rx="5" y="6" x="6" height="38" width="38"
                fill="#f2f5e9" fill-opacity="0.5" stroke="#606060" stroke-width="1.0"/>
           <path id="arrow"
             d="M 11.500037,31.436501 C 11.940474,20.09759 22.043105,11.32322 32.158766,21.979434 L 37.068811,17.246167 C 37.068811,17.246167 37.088388,32 37.088388,32 L 22.160133,31.978069 C 22.160133,31.978069 26.997745,27.140456 26.997745,27.140456 C 18.528582,18.264221 13.291696,25.230495 11.500037,31.436501 z"
             style="fill:#404040;"/>
          </a>
         </g>
        </svg>
</svg>
