<?xml version="1.0" encoding="UTF-8" standalone="no"?>
<!DOCTYPE svg PUBLIC "-//W3C//DTD SVG 1.1//EN"
 "http://www.w3.org/Graphics/SVG/1.1/DTD/svg11.dtd">
<!-- Generated by graphviz version 2.44.0 ()
 -->
<!-- Title: include/SSystem/SComponent/c_m3d_g_lin.h Pages: 1 -->
<!--zoomable 575 -->
<svg id="main" version="1.1" xmlns="http://www.w3.org/2000/svg" xmlns:xlink="http://www.w3.org/1999/xlink" xml:space="preserve" onload="init(evt)">
<style type="text/css"><![CDATA[
.edge:hover path { stroke: red; }
.edge:hover polygon { stroke: red; fill: red; }
]]></style>
<script type="text/javascript"><![CDATA[
var edges = document.getElementsByTagName('g');
if (edges && edges.length) {
  for (var i=0;i<edges.length;i++) {
    if (edges[i].id.substr(0,4)=='edge') {
      edges[i].setAttribute('class','edge');
    }
  }
}
]]></script>
        <defs>
                <circle id="rim" cx="0" cy="0" r="7"/>
                <circle id="rim2" cx="0" cy="0" r="3.5"/>
                <g id="zoomPlus">
                        <use xlink:href="#rim" fill="#404040">
                                <set attributeName="fill" to="#808080" begin="zoomplus.mouseover" end="zoomplus.mouseout"/>
                        </use>
                        <path d="M-4,0h8M0,-4v8" fill="none" stroke="white" stroke-width="1.5" pointer-events="none"/>
                </g>
                <g id="zoomMin">
                        <use xlink:href="#rim" fill="#404040">
                                <set attributeName="fill" to="#808080" begin="zoomminus.mouseover" end="zoomminus.mouseout"/>
                        </use>
                        <path d="M-4,0h8" fill="none" stroke="white" stroke-width="1.5" pointer-events="none"/>
                </g>
                <g id="dirArrow">
                        <path fill="none" stroke="white" stroke-width="1.5" d="M0,-3.0v7 M-2.5,-0.5L0,-3.0L2.5,-0.5"/>
                </g>
               <g id="resetDef">
                       <use xlink:href="#rim2" fill="#404040">
                               <set attributeName="fill" to="#808080" begin="reset.mouseover" end="reset.mouseout"/>
                       </use>
               </g>
        </defs>

<script type="text/javascript">
var viewWidth = 1231;
var viewHeight = 575;
var sectionId = 'dynsection-1';
</script>
<script xlink:href="svgpan.js"/>
<svg id="graph" class="graph">
<g id="viewport">
<title>include/SSystem/SComponent/c_m3d_g_lin.h</title>
<polygon fill="white" stroke="transparent" points="-4,4 -4,-571 1227,-571 1227,4 -4,4"/>
<!-- Node1 -->
<g id="node1" class="node">
<title>Node1</title>
<g id="a_node1"><a xlink:title=" ">
<polygon fill="#bfbfbf" stroke="black" points="543.5,-536.5 543.5,-566.5 692.5,-566.5 692.5,-536.5 543.5,-536.5"/>
<text text-anchor="start" x="551.5" y="-554.5" font-family="Helvetica,sans-Serif" font-size="10.00">include/SSystem/SComponent</text>
<text text-anchor="middle" x="618" y="-543.5" font-family="Helvetica,sans-Serif" font-size="10.00">/c_m3d_g_lin.h</text>
</a>
</g>
</g>
<!-- Node2 -->
<g id="node2" class="node">
<title>Node2</title>
<g id="a_node2"><a xlink:href="c__m3d__g__lin_8cpp.html" target="_top" xlink:title=" ">
<polygon fill="white" stroke="black" points="303,-469.5 303,-499.5 437,-499.5 437,-469.5 303,-469.5"/>
<text text-anchor="start" x="311" y="-487.5" font-family="Helvetica,sans-Serif" font-size="10.00">libs/SSystem/SComponent</text>
<text text-anchor="middle" x="370" y="-476.5" font-family="Helvetica,sans-Serif" font-size="10.00">/c_m3d_g_lin.cpp</text>
</a>
</g>
</g>
<!-- Node1&#45;&gt;Node2 -->
<g id="edge1" class="edge">
<title>Node1&#45;&gt;Node2</title>
<path fill="none" stroke="midnightblue" d="M554.73,-533.92C514.26,-523.31 462.33,-509.7 423.84,-499.61"/>
<polygon fill="midnightblue" stroke="midnightblue" points="553.93,-537.33 564.49,-536.48 555.71,-530.55 553.93,-537.33"/>
</g>
<!-- Node3 -->
<g id="node3" class="node">
<title>Node3</title>
<g id="a_node3"><a xlink:href="c__m3d_8cpp.html" target="_top" xlink:title=" ">
<polygon fill="white" stroke="black" points="275,-402.5 275,-432.5 409,-432.5 409,-402.5 275,-402.5"/>
<text text-anchor="start" x="283" y="-420.5" font-family="Helvetica,sans-Serif" font-size="10.00">libs/SSystem/SComponent</text>
<text text-anchor="middle" x="342" y="-409.5" font-family="Helvetica,sans-Serif" font-size="10.00">/c_m3d.cpp</text>
</a>
</g>
</g>
<!-- Node1&#45;&gt;Node3 -->
<g id="edge2" class="edge">
<title>Node1&#45;&gt;Node3</title>
<path fill="none" stroke="midnightblue" d="M558.91,-533.26C534.55,-524.93 506.57,-513.74 483,-500 464.46,-489.2 464.01,-480.66 446,-469 423.93,-454.71 397.21,-441.82 376.39,-432.64"/>
<polygon fill="midnightblue" stroke="midnightblue" points="557.81,-536.58 568.4,-536.42 560.02,-529.94 557.81,-536.58"/>
</g>
<!-- Node4 -->
<g id="node4" class="node">
<title>Node4</title>
<g id="a_node4"><a xlink:href="d__bg__s__acch_8h.html" target="_top" xlink:title=" ">
<polygon fill="white" stroke="black" points="617,-335.5 617,-365.5 721,-365.5 721,-335.5 617,-335.5"/>
<text text-anchor="start" x="625" y="-353.5" font-family="Helvetica,sans-Serif" font-size="10.00">include/d/bg/d_bg_s</text>
<text text-anchor="middle" x="669" y="-342.5" font-family="Helvetica,sans-Serif" font-size="10.00">_acch.h</text>
</a>
</g>
</g>
<!-- Node1&#45;&gt;Node4 -->
<g id="edge3" class="edge">
<title>Node1&#45;&gt;Node4</title>
<path fill="none" stroke="midnightblue" d="M635.27,-527.94C640.84,-519.58 646.48,-509.75 650,-500 666.93,-453.05 669.15,-393 669.2,-365.9"/>
<polygon fill="midnightblue" stroke="midnightblue" points="632.23,-526.17 629.35,-536.37 637.96,-530.2 632.23,-526.17"/>
</g>
<!-- Node18 -->
<g id="node18" class="node">
<title>Node18</title>
<g id="a_node18"><a xlink:href="d__jnt__col_8h.html" target="_top" xlink:title=" ">
<polygon fill="white" stroke="black" points="1044.5,-475 1044.5,-494 1149.5,-494 1149.5,-475 1044.5,-475"/>
<text text-anchor="middle" x="1097" y="-482" font-family="Helvetica,sans-Serif" font-size="10.00">include/d/d_jnt_col.h</text>
</a>
</g>
</g>
<!-- Node1&#45;&gt;Node18 -->
<g id="edge19" class="edge">
<title>Node1&#45;&gt;Node18</title>
<path fill="none" stroke="midnightblue" d="M702.54,-539.03C801.39,-525.61 961.94,-503.83 1044.42,-492.64"/>
<polygon fill="midnightblue" stroke="midnightblue" points="702.02,-535.57 692.58,-540.38 702.96,-542.5 702.02,-535.57"/>
</g>
<!-- Node20 -->
<g id="node20" class="node">
<title>Node20</title>
<g id="a_node20"><a xlink:href="c__bg__s__lin__chk_8h.html" target="_top" xlink:title=" ">
<polygon fill="white" stroke="black" points="794.5,-469.5 794.5,-499.5 943.5,-499.5 943.5,-469.5 794.5,-469.5"/>
<text text-anchor="start" x="802.5" y="-487.5" font-family="Helvetica,sans-Serif" font-size="10.00">include/SSystem/SComponent</text>
<text text-anchor="middle" x="869" y="-476.5" font-family="Helvetica,sans-Serif" font-size="10.00">/c_bg_s_lin_chk.h</text>
</a>
</g>
</g>
<!-- Node1&#45;&gt;Node20 -->
<g id="edge22" class="edge">
<title>Node1&#45;&gt;Node20</title>
<path fill="none" stroke="midnightblue" d="M682.04,-533.92C723,-523.31 775.56,-509.7 814.51,-499.61"/>
<polygon fill="midnightblue" stroke="midnightblue" points="680.96,-530.58 672.15,-536.48 682.71,-537.36 680.96,-530.58"/>
</g>
<!-- Node24 -->
<g id="node24" class="node">
<title>Node24</title>
<g id="a_node24"><a xlink:href="c__m3d__g__cps_8h.html" target="_top" xlink:title=" ">
<polygon fill="white" stroke="black" points="492.5,-469.5 492.5,-499.5 641.5,-499.5 641.5,-469.5 492.5,-469.5"/>
<text text-anchor="start" x="500.5" y="-487.5" font-family="Helvetica,sans-Serif" font-size="10.00">include/SSystem/SComponent</text>
<text text-anchor="middle" x="567" y="-476.5" font-family="Helvetica,sans-Serif" font-size="10.00">/c_m3d_g_cps.h</text>
</a>
</g>
</g>
<!-- Node1&#45;&gt;Node24 -->
<g id="edge29" class="edge">
<title>Node1&#45;&gt;Node24</title>
<path fill="none" stroke="midnightblue" d="M600.7,-528.45C593.21,-518.9 584.66,-508 578.04,-499.58"/>
<polygon fill="midnightblue" stroke="midnightblue" points="598.01,-530.69 606.93,-536.4 603.51,-526.37 598.01,-530.69"/>
</g>
<!-- Node5 -->
<g id="node5" class="node">
<title>Node5</title>
<g id="a_node5"><a xlink:href="d__bg__s__acch_8cpp.html" target="_top" xlink:title=" ">
<polygon fill="white" stroke="black" points="734.5,-274 734.5,-293 865.5,-293 865.5,-274 734.5,-274"/>
<text text-anchor="middle" x="800" y="-281" font-family="Helvetica,sans-Serif" font-size="10.00">src/d/bg/d_bg_s_acch.cpp</text>
</a>
</g>
</g>
<!-- Node4&#45;&gt;Node5 -->
<g id="edge4" class="edge">
<title>Node4&#45;&gt;Node5</title>
<path fill="none" stroke="midnightblue" d="M706.68,-330.8C731.8,-318.34 763.61,-302.56 782.86,-293.01"/>
<polygon fill="midnightblue" stroke="midnightblue" points="704.83,-327.82 697.43,-335.4 707.94,-334.09 704.83,-327.82"/>
</g>
<!-- Node6 -->
<g id="node6" class="node">
<title>Node6</title>
<g id="a_node6"><a xlink:href="d__bg__w_8h.html" target="_top" xlink:title=" ">
<polygon fill="white" stroke="black" points="883.5,-274 883.5,-293 996.5,-293 996.5,-274 883.5,-274"/>
<text text-anchor="middle" x="940" y="-281" font-family="Helvetica,sans-Serif" font-size="10.00">include/d/bg/d_bg_w.h</text>
</a>
</g>
</g>
<!-- Node4&#45;&gt;Node6 -->
<g id="edge5" class="edge">
<title>Node4&#45;&gt;Node6</title>
<path fill="none" stroke="midnightblue" d="M731,-334.63C784.62,-321.77 860.28,-303.62 904.33,-293.06"/>
<polygon fill="midnightblue" stroke="midnightblue" points="730.16,-331.23 721.25,-336.97 731.79,-338.04 730.16,-331.23"/>
</g>
<!-- Node14 -->
<g id="node14" class="node">
<title>Node14</title>
<g id="a_node14"><a xlink:href="d__bomb_8h.html" target="_top" xlink:title=" ">
<polygon fill="white" stroke="black" points="152.5,-140 152.5,-159 253.5,-159 253.5,-140 152.5,-140"/>
<text text-anchor="middle" x="203" y="-147" font-family="Helvetica,sans-Serif" font-size="10.00">include/d/d_bomb.h</text>
</a>
</g>
</g>
<!-- Node4&#45;&gt;Node14 -->
<g id="edge14" class="edge">
<title>Node4&#45;&gt;Node14</title>
<path fill="none" stroke="midnightblue" d="M606.68,-346.34C472.05,-338.07 161.1,-310.69 98,-232 71.94,-199.5 134.83,-172.32 174.19,-159.11"/>
<polygon fill="midnightblue" stroke="midnightblue" points="606.64,-349.85 616.83,-346.95 607.06,-342.86 606.64,-349.85"/>
</g>
<!-- Node16 -->
<g id="node16" class="node">
<title>Node16</title>
<g id="a_node16"><a xlink:href="d__particle__copoly_8h.html" target="_top" xlink:title=" ">
<polygon fill="white" stroke="black" points="614,-268.5 614,-298.5 716,-298.5 716,-268.5 614,-268.5"/>
<text text-anchor="start" x="622" y="-286.5" font-family="Helvetica,sans-Serif" font-size="10.00">include/d/particle</text>
<text text-anchor="middle" x="665" y="-275.5" font-family="Helvetica,sans-Serif" font-size="10.00">/d_particle_copoly.h</text>
</a>
</g>
</g>
<!-- Node4&#45;&gt;Node16 -->
<g id="edge16" class="edge">
<title>Node4&#45;&gt;Node16</title>
<path fill="none" stroke="midnightblue" d="M667.52,-325.4C666.96,-316.37 666.35,-306.41 665.87,-298.58"/>
<polygon fill="midnightblue" stroke="midnightblue" points="664.02,-325.63 668.13,-335.4 671.01,-325.2 664.02,-325.63"/>
</g>
<!-- Node7 -->
<g id="node7" class="node">
<title>Node7</title>
<g id="a_node7"><a xlink:href="d__bg__w_8cpp.html" target="_top" xlink:title=" ">
<polygon fill="white" stroke="black" points="889.5,-207 889.5,-226 996.5,-226 996.5,-207 889.5,-207"/>
<text text-anchor="middle" x="943" y="-214" font-family="Helvetica,sans-Serif" font-size="10.00">src/d/bg/d_bg_w.cpp</text>
</a>
</g>
</g>
<!-- Node6&#45;&gt;Node7 -->
<g id="edge6" class="edge">
<title>Node6&#45;&gt;Node7</title>
<path fill="none" stroke="midnightblue" d="M940.88,-263.54C941.45,-251.17 942.16,-235.62 942.6,-226.13"/>
<polygon fill="midnightblue" stroke="midnightblue" points="937.37,-263.58 940.4,-273.73 944.36,-263.91 937.37,-263.58"/>
</g>
<!-- Node8 -->
<g id="node8" class="node">
<title>Node8</title>
<g id="a_node8"><a xlink:href="d__bg__s_8h.html" target="_top" xlink:title=" ">
<polygon fill="white" stroke="black" points="1053.5,-207 1053.5,-226 1164.5,-226 1164.5,-207 1053.5,-207"/>
<text text-anchor="middle" x="1109" y="-214" font-family="Helvetica,sans-Serif" font-size="10.00">include/d/bg/d_bg_s.h</text>
</a>
</g>
</g>
<!-- Node6&#45;&gt;Node8 -->
<g id="edge7" class="edge">
<title>Node6&#45;&gt;Node8</title>
<path fill="none" stroke="midnightblue" d="M971.8,-270.27C1005.34,-257.37 1057.32,-237.38 1086.73,-226.06"/>
<polygon fill="midnightblue" stroke="midnightblue" points="970.52,-267.01 962.44,-273.87 973.03,-273.55 970.52,-267.01"/>
</g>
<!-- Node9 -->
<g id="node9" class="node">
<title>Node9</title>
<g id="a_node9"><a xlink:href="d__bg__s_8cpp.html" target="_top" xlink:title=" ">
<polygon fill="white" stroke="black" points="1057,-140 1057,-159 1161,-159 1161,-140 1057,-140"/>
<text text-anchor="middle" x="1109" y="-147" font-family="Helvetica,sans-Serif" font-size="10.00">src/d/bg/d_bg_s.cpp</text>
</a>
</g>
</g>
<!-- Node8&#45;&gt;Node9 -->
<g id="edge8" class="edge">
<title>Node8&#45;&gt;Node9</title>
<path fill="none" stroke="midnightblue" d="M1109,-196.54C1109,-184.17 1109,-168.62 1109,-159.13"/>
<polygon fill="midnightblue" stroke="midnightblue" points="1105.5,-196.73 1109,-206.73 1112.5,-196.73 1105.5,-196.73"/>
</g>
<!-- Node10 -->
<g id="node10" class="node">
<title>Node10</title>
<g id="a_node10"><a xlink:href="d__a__alink_8h.html" target="_top" xlink:title=" ">
<polygon fill="white" stroke="black" points="707,-140 707,-159 823,-159 823,-140 707,-140"/>
<text text-anchor="middle" x="765" y="-147" font-family="Helvetica,sans-Serif" font-size="10.00">include/d/a/d_a_alink.h</text>
</a>
</g>
</g>
<!-- Node8&#45;&gt;Node10 -->
<g id="edge9" class="edge">
<title>Node8&#45;&gt;Node10</title>
<path fill="none" stroke="midnightblue" d="M1058.5,-204.9C1051.94,-203.57 1045.31,-202.24 1039,-201 959.96,-185.53 867.83,-168.82 813.07,-159.03"/>
<polygon fill="midnightblue" stroke="midnightblue" points="1058.18,-208.41 1068.68,-206.99 1059.59,-201.55 1058.18,-208.41"/>
</g>
<!-- Node12 -->
<g id="node12" class="node">
<title>Node12</title>
<g id="a_node12"><a xlink:href="d__com__inf__game_8h.html" target="_top" xlink:title=" ">
<polygon fill="white" stroke="black" points="646,-67.5 646,-97.5 756,-97.5 756,-67.5 646,-67.5"/>
<text text-anchor="start" x="654" y="-85.5" font-family="Helvetica,sans-Serif" font-size="10.00">include/d/com/d_com</text>
<text text-anchor="middle" x="701" y="-74.5" font-family="Helvetica,sans-Serif" font-size="10.00">_inf_game.h</text>
</a>
</g>
</g>
<!-- Node8&#45;&gt;Node12 -->
<g id="edge13" class="edge">
<title>Node8&#45;&gt;Node12</title>
<path fill="none" stroke="midnightblue" d="M1072.61,-203.73C997.47,-179.42 825.49,-123.78 744.59,-97.6"/>
<polygon fill="midnightblue" stroke="midnightblue" points="1071.95,-207.19 1082.54,-206.94 1074.11,-200.53 1071.95,-207.19"/>
</g>
<!-- Node11 -->
<g id="node11" class="node">
<title>Node11</title>
<g id="a_node11"><a xlink:href="d__a__alink_8cpp.html" target="_top" xlink:title=" ">
<polygon fill="white" stroke="black" points="774.5,-73 774.5,-92 883.5,-92 883.5,-73 774.5,-73"/>
<text text-anchor="middle" x="829" y="-80" font-family="Helvetica,sans-Serif" font-size="10.00">src/d/a/d_a_alink.cpp</text>
</a>
</g>
</g>
<!-- Node10&#45;&gt;Node11 -->
<g id="edge10" class="edge">
<title>Node10&#45;&gt;Node11</title>
<path fill="none" stroke="midnightblue" d="M780.76,-132.5C793.31,-119.75 810.4,-102.39 820.51,-92.13"/>
<polygon fill="midnightblue" stroke="midnightblue" points="778.15,-130.15 773.63,-139.73 783.14,-135.06 778.15,-130.15"/>
</g>
<!-- Node10&#45;&gt;Node12 -->
<g id="edge11" class="edge">
<title>Node10&#45;&gt;Node12</title>
<path fill="none" stroke="midnightblue" d="M749.05,-132.3C738.55,-121.63 724.93,-107.8 714.87,-97.59"/>
<polygon fill="midnightblue" stroke="midnightblue" points="746.86,-135.06 756.37,-139.73 751.85,-130.15 746.86,-135.06"/>
</g>
<!-- Node13 -->
<g id="node13" class="node">
<title>Node13</title>
<g id="a_node13"><a xlink:href="d__com__inf__game_8cpp.html" target="_top" xlink:title=" ">
<polygon fill="white" stroke="black" points="647,-0.5 647,-30.5 755,-30.5 755,-0.5 647,-0.5"/>
<text text-anchor="start" x="655" y="-18.5" font-family="Helvetica,sans-Serif" font-size="10.00">src/d/com/d_com_inf</text>
<text text-anchor="middle" x="701" y="-7.5" font-family="Helvetica,sans-Serif" font-size="10.00">_game.cpp</text>
</a>
</g>
</g>
<!-- Node12&#45;&gt;Node13 -->
<g id="edge12" class="edge">
<title>Node12&#45;&gt;Node13</title>
<path fill="none" stroke="midnightblue" d="M701,-57.11C701,-48.15 701,-38.32 701,-30.58"/>
<polygon fill="midnightblue" stroke="midnightblue" points="697.5,-57.4 701,-67.4 704.5,-57.4 697.5,-57.4"/>
</g>
<!-- Node15 -->
<g id="node15" class="node">
<title>Node15</title>
<g id="a_node15"><a xlink:href="d__bomb_8cpp.html" target="_top" xlink:title=" ">
<polygon fill="white" stroke="black" points="156,-73 156,-92 250,-92 250,-73 156,-73"/>
<text text-anchor="middle" x="203" y="-80" font-family="Helvetica,sans-Serif" font-size="10.00">src/d/d_bomb.cpp</text>
</a>
</g>
</g>
<!-- Node14&#45;&gt;Node15 -->
<g id="edge15" class="edge">
<title>Node14&#45;&gt;Node15</title>
<path fill="none" stroke="midnightblue" d="M203,-129.54C203,-117.17 203,-101.62 203,-92.13"/>
<polygon fill="midnightblue" stroke="midnightblue" points="199.5,-129.73 203,-139.73 206.5,-129.73 199.5,-129.73"/>
</g>
<!-- Node16&#45;&gt;Node10 -->
<g id="edge18" class="edge">
<title>Node16&#45;&gt;Node10</title>
<path fill="none" stroke="midnightblue" d="M683.52,-260.23C690.66,-251.51 698.81,-241.37 706,-232 725.99,-205.94 748.44,-174.2 758.95,-159.18"/>
<polygon fill="midnightblue" stroke="midnightblue" points="680.71,-258.14 677.06,-268.08 686.11,-262.59 680.71,-258.14"/>
</g>
<!-- Node17 -->
<g id="node17" class="node">
<title>Node17</title>
<g id="a_node17"><a xlink:href="d__particle__copoly_8cpp.html" target="_top" xlink:title=" ">
<polygon fill="white" stroke="black" points="753,-201.5 753,-231.5 871,-231.5 871,-201.5 753,-201.5"/>
<text text-anchor="start" x="761" y="-219.5" font-family="Helvetica,sans-Serif" font-size="10.00">src/d/particle/d_particle</text>
<text text-anchor="middle" x="812" y="-208.5" font-family="Helvetica,sans-Serif" font-size="10.00">_copoly.cpp</text>
</a>
</g>
</g>
<!-- Node16&#45;&gt;Node17 -->
<g id="edge17" class="edge">
<title>Node16&#45;&gt;Node17</title>
<path fill="none" stroke="midnightblue" d="M706.23,-264.27C729.64,-253.92 758.51,-241.15 780.17,-231.58"/>
<polygon fill="midnightblue" stroke="midnightblue" points="704.63,-261.15 696.9,-268.4 707.46,-267.55 704.63,-261.15"/>
</g>
<!-- Node18&#45;&gt;Node10 -->
<g id="edge21" class="edge">
<title>Node18&#45;&gt;Node10</title>
<path fill="none" stroke="midnightblue" d="M1096.93,-464.85C1095.65,-414.12 1084.76,-272.62 1005,-201 991.26,-188.66 885.91,-169.85 819.43,-159.01"/>
<polygon fill="midnightblue" stroke="midnightblue" points="1093.43,-465.03 1097.08,-474.98 1100.43,-464.93 1093.43,-465.03"/>
</g>
<!-- Node19 -->
<g id="node19" class="node">
<title>Node19</title>
<g id="a_node19"><a xlink:href="d__jnt__col_8cpp.html" target="_top" xlink:title=" ">
<polygon fill="white" stroke="black" points="1125,-408 1125,-427 1223,-427 1223,-408 1125,-408"/>
<text text-anchor="middle" x="1174" y="-415" font-family="Helvetica,sans-Serif" font-size="10.00">src/d/d_jnt_col.cpp</text>
</a>
</g>
</g>
<!-- Node18&#45;&gt;Node19 -->
<g id="edge20" class="edge">
<title>Node18&#45;&gt;Node19</title>
<path fill="none" stroke="midnightblue" d="M1115.11,-468.21C1130.28,-455.41 1151.39,-437.59 1163.78,-427.13"/>
<polygon fill="midnightblue" stroke="midnightblue" points="1112.77,-465.61 1107.38,-474.73 1117.28,-470.96 1112.77,-465.61"/>
</g>
<!-- Node20&#45;&gt;Node6 -->
<g id="edge28" class="edge">
<title>Node20&#45;&gt;Node6</title>
<path fill="none" stroke="midnightblue" d="M873.35,-459.57C876.63,-443.15 881.65,-420.99 888,-402 902.08,-359.9 925.69,-312.25 935.51,-293.12"/>
<polygon fill="midnightblue" stroke="midnightblue" points="869.9,-458.95 871.45,-469.44 876.78,-460.28 869.9,-458.95"/>
</g>
<!-- Node20&#45;&gt;Node8 -->
<g id="edge24" class="edge">
<title>Node20&#45;&gt;Node8</title>
<path fill="none" stroke="midnightblue" d="M953.72,-475.08C984.3,-468.11 1016.93,-455.55 1040,-433 1101.24,-373.14 1108.22,-258.96 1108.94,-226.38"/>
<polygon fill="midnightblue" stroke="midnightblue" points="952.95,-471.66 943.88,-477.15 954.39,-478.51 952.95,-471.66"/>
</g>
<!-- Node21 -->
<g id="node21" class="node">
<title>Node21</title>
<g id="a_node21"><a xlink:href="c__bg__s__lin__chk_8cpp.html" target="_top" xlink:title=" ">
<polygon fill="white" stroke="black" points="897,-402.5 897,-432.5 1031,-432.5 1031,-402.5 897,-402.5"/>
<text text-anchor="start" x="905" y="-420.5" font-family="Helvetica,sans-Serif" font-size="10.00">libs/SSystem/SComponent</text>
<text text-anchor="middle" x="964" y="-409.5" font-family="Helvetica,sans-Serif" font-size="10.00">/c_bg_s_lin_chk.cpp</text>
</a>
</g>
</g>
<!-- Node20&#45;&gt;Node21 -->
<g id="edge23" class="edge">
<title>Node20&#45;&gt;Node21</title>
<path fill="none" stroke="midnightblue" d="M897.89,-463.73C912.59,-453.68 930.11,-441.68 943.43,-432.58"/>
<polygon fill="midnightblue" stroke="midnightblue" points="895.89,-460.86 889.61,-469.4 899.84,-466.64 895.89,-460.86"/>
</g>
<!-- Node22 -->
<g id="node22" class="node">
<title>Node22</title>
<g id="a_node22"><a xlink:href="d__bg__s__lin__chk_8h.html" target="_top" xlink:title=" ">
<polygon fill="white" stroke="black" points="737,-402.5 737,-432.5 841,-432.5 841,-402.5 737,-402.5"/>
<text text-anchor="start" x="745" y="-420.5" font-family="Helvetica,sans-Serif" font-size="10.00">include/d/bg/d_bg_s</text>
<text text-anchor="middle" x="789" y="-409.5" font-family="Helvetica,sans-Serif" font-size="10.00">_lin_chk.h</text>
</a>
</g>
</g>
<!-- Node20&#45;&gt;Node22 -->
<g id="edge25" class="edge">
<title>Node20&#45;&gt;Node22</title>
<path fill="none" stroke="midnightblue" d="M843.63,-462.88C831.47,-453.01 817.22,-441.43 806.32,-432.58"/>
<polygon fill="midnightblue" stroke="midnightblue" points="841.67,-465.81 851.64,-469.4 846.09,-460.37 841.67,-465.81"/>
</g>
<!-- Node22&#45;&gt;Node4 -->
<g id="edge27" class="edge">
<title>Node22&#45;&gt;Node4</title>
<path fill="none" stroke="midnightblue" d="M754.06,-397.57C735.18,-387.35 712.27,-374.94 694.99,-365.58"/>
<polygon fill="midnightblue" stroke="midnightblue" points="752.5,-400.71 762.96,-402.4 755.84,-394.56 752.5,-400.71"/>
</g>
<!-- Node23 -->
<g id="node23" class="node">
<title>Node23</title>
<g id="a_node23"><a xlink:href="d__bg__s__lin__chk_8cpp.html" target="_top" xlink:title=" ">
<polygon fill="white" stroke="black" points="739.5,-335.5 739.5,-365.5 840.5,-365.5 840.5,-335.5 739.5,-335.5"/>
<text text-anchor="start" x="747.5" y="-353.5" font-family="Helvetica,sans-Serif" font-size="10.00">src/d/bg/d_bg_s_lin</text>
<text text-anchor="middle" x="790" y="-342.5" font-family="Helvetica,sans-Serif" font-size="10.00">_chk.cpp</text>
</a>
</g>
</g>
<!-- Node22&#45;&gt;Node23 -->
<g id="edge26" class="edge">
<title>Node22&#45;&gt;Node23</title>
<path fill="none" stroke="midnightblue" d="M789.38,-392.11C789.51,-383.15 789.66,-373.32 789.78,-365.58"/>
<polygon fill="midnightblue" stroke="midnightblue" points="785.87,-392.34 789.22,-402.4 792.87,-392.45 785.87,-392.34"/>
</g>
<!-- Node24&#45;&gt;Node3 -->
<g id="edge31" class="edge">
<title>Node24&#45;&gt;Node3</title>
<path fill="none" stroke="midnightblue" d="M508.43,-466.58C471.89,-456.02 425.4,-442.59 390.85,-432.61"/>
<polygon fill="midnightblue" stroke="midnightblue" points="507.88,-470.06 518.46,-469.48 509.82,-463.34 507.88,-470.06"/>
</g>
<!-- Node25 -->
<g id="node25" class="node">
<title>Node25</title>
<g id="a_node25"><a xlink:href="c__m3d__g__cps_8cpp.html" target="_top" xlink:title=" ">
<polygon fill="white" stroke="black" points="427,-402.5 427,-432.5 561,-432.5 561,-402.5 427,-402.5"/>
<text text-anchor="start" x="435" y="-420.5" font-family="Helvetica,sans-Serif" font-size="10.00">libs/SSystem/SComponent</text>
<text text-anchor="middle" x="494" y="-409.5" font-family="Helvetica,sans-Serif" font-size="10.00">/c_m3d_g_cps.cpp</text>
</a>
</g>
</g>
<!-- Node24&#45;&gt;Node25 -->
<g id="edge30" class="edge">
<title>Node24&#45;&gt;Node25</title>
<path fill="none" stroke="midnightblue" d="M543.53,-462.6C532.5,-452.78 519.66,-441.34 509.81,-432.58"/>
<polygon fill="midnightblue" stroke="midnightblue" points="541.36,-465.36 551.16,-469.4 546.02,-460.13 541.36,-465.36"/>
</g>
<!-- Node26 -->
<g id="node26" class="node">
<title>Node26</title>
<g id="a_node26"><a xlink:href="c__cc__d_8h.html" target="_top" xlink:title=" ">
<polygon fill="white" stroke="black" points="408.5,-268.5 408.5,-298.5 557.5,-298.5 557.5,-268.5 408.5,-268.5"/>
<text text-anchor="start" x="416.5" y="-286.5" font-family="Helvetica,sans-Serif" font-size="10.00">include/SSystem/SComponent</text>
<text text-anchor="middle" x="483" y="-275.5" font-family="Helvetica,sans-Serif" font-size="10.00">/c_cc_d.h</text>
</a>
</g>
</g>
<!-- Node24&#45;&gt;Node26 -->
<g id="edge32" class="edge">
<title>Node24&#45;&gt;Node26</title>
<path fill="none" stroke="midnightblue" d="M572.24,-459.28C574.78,-442.73 576.11,-420.53 570,-402 555.84,-359.09 519.31,-319.05 498.37,-298.63"/>
<polygon fill="midnightblue" stroke="midnightblue" points="568.77,-458.78 570.46,-469.24 575.66,-460.01 568.77,-458.78"/>
</g>
<!-- Node27 -->
<g id="node27" class="node">
<title>Node27</title>
<g id="a_node27"><a xlink:href="c__cc__d_8cpp.html" target="_top" xlink:title=" ">
<polygon fill="white" stroke="black" points="275,-201.5 275,-231.5 409,-231.5 409,-201.5 275,-201.5"/>
<text text-anchor="start" x="283" y="-219.5" font-family="Helvetica,sans-Serif" font-size="10.00">libs/SSystem/SComponent</text>
<text text-anchor="middle" x="342" y="-208.5" font-family="Helvetica,sans-Serif" font-size="10.00">/c_cc_d.cpp</text>
</a>
</g>
</g>
<!-- Node26&#45;&gt;Node27 -->
<g id="edge33" class="edge">
<title>Node26&#45;&gt;Node27</title>
<path fill="none" stroke="midnightblue" d="M443.15,-264.13C420.75,-253.8 393.22,-241.11 372.54,-231.58"/>
<polygon fill="midnightblue" stroke="midnightblue" points="441.86,-267.39 452.41,-268.4 444.79,-261.03 441.86,-267.39"/>
</g>
<!-- Node28 -->
<g id="node28" class="node">
<title>Node28</title>
<g id="a_node28"><a xlink:href="d__cc__d_8h.html" target="_top" xlink:title=" ">
<polygon fill="white" stroke="black" points="427.5,-207 427.5,-226 538.5,-226 538.5,-207 427.5,-207"/>
<text text-anchor="middle" x="483" y="-214" font-family="Helvetica,sans-Serif" font-size="10.00">include/d/cc/d_cc_d.h</text>
</a>
</g>
</g>
<!-- Node26&#45;&gt;Node28 -->
<g id="edge34" class="edge">
<title>Node26&#45;&gt;Node28</title>
<path fill="none" stroke="midnightblue" d="M483,-258.25C483,-247.02 483,-234.38 483,-226.19"/>
<polygon fill="midnightblue" stroke="midnightblue" points="479.5,-258.4 483,-268.4 486.5,-258.4 479.5,-258.4"/>
</g>
<!-- Node32 -->
<g id="node32" class="node">
<title>Node32</title>
<g id="a_node32"><a xlink:href="d__cc__mass__s_8h.html" target="_top" xlink:title=" ">
<polygon fill="white" stroke="black" points="557,-207 557,-226 697,-226 697,-207 557,-207"/>
<text text-anchor="middle" x="627" y="-214" font-family="Helvetica,sans-Serif" font-size="10.00">include/d/cc/d_cc_mass_s.h</text>
</a>
</g>
</g>
<!-- Node26&#45;&gt;Node32 -->
<g id="edge41" class="edge">
<title>Node26&#45;&gt;Node32</title>
<path fill="none" stroke="midnightblue" d="M523.69,-264.13C551.41,-251.62 586.81,-235.64 608.15,-226.01"/>
<polygon fill="midnightblue" stroke="midnightblue" points="521.92,-261.09 514.25,-268.4 524.8,-267.47 521.92,-261.09"/>
</g>
<!-- Node33 -->
<g id="node33" class="node">
<title>Node33</title>
<g id="a_node33"><a xlink:href="c__cc__s_8h.html" target="_top" xlink:title=" ">
<polygon fill="white" stroke="black" points="107.5,-201.5 107.5,-231.5 256.5,-231.5 256.5,-201.5 107.5,-201.5"/>
<text text-anchor="start" x="115.5" y="-219.5" font-family="Helvetica,sans-Serif" font-size="10.00">include/SSystem/SComponent</text>
<text text-anchor="middle" x="182" y="-208.5" font-family="Helvetica,sans-Serif" font-size="10.00">/c_cc_s.h</text>
</a>
</g>
</g>
<!-- Node26&#45;&gt;Node33 -->
<g id="edge45" class="edge">
<title>Node26&#45;&gt;Node33</title>
<path fill="none" stroke="midnightblue" d="M408.05,-266.32C358.58,-255.63 294.41,-241.77 247.08,-231.55"/>
<polygon fill="midnightblue" stroke="midnightblue" points="407.54,-269.79 418.06,-268.48 409.02,-262.94 407.54,-269.79"/>
</g>
<!-- Node28&#45;&gt;Node10 -->
<g id="edge37" class="edge">
<title>Node28&#45;&gt;Node10</title>
<path fill="none" stroke="midnightblue" d="M530.1,-204.64C585.66,-191.84 676.89,-170.81 727.76,-159.08"/>
<polygon fill="midnightblue" stroke="midnightblue" points="529.11,-201.28 520.16,-206.94 530.69,-208.1 529.11,-201.28"/>
</g>
<!-- Node28&#45;&gt;Node14 -->
<g id="edge40" class="edge">
<title>Node28&#45;&gt;Node14</title>
<path fill="none" stroke="midnightblue" d="M434.6,-204.68C389.79,-194.61 321.33,-179.07 262,-165 253.99,-163.1 245.39,-161.01 237.3,-159.03"/>
<polygon fill="midnightblue" stroke="midnightblue" points="434.1,-208.15 444.63,-206.93 435.64,-201.33 434.1,-208.15"/>
</g>
<!-- Node29 -->
<g id="node29" class="node">
<title>Node29</title>
<g id="a_node29"><a xlink:href="d__cc__d__nonmatching_8cpp.html" target="_top" xlink:title=" ">
<polygon fill="white" stroke="black" points="400.5,-140 400.5,-159 565.5,-159 565.5,-140 400.5,-140"/>
<text text-anchor="middle" x="483" y="-147" font-family="Helvetica,sans-Serif" font-size="10.00">src/d/cc/d_cc_d_nonmatching.cpp</text>
</a>
</g>
</g>
<!-- Node28&#45;&gt;Node29 -->
<g id="edge35" class="edge">
<title>Node28&#45;&gt;Node29</title>
<path fill="none" stroke="midnightblue" d="M483,-196.54C483,-184.17 483,-168.62 483,-159.13"/>
<polygon fill="midnightblue" stroke="midnightblue" points="479.5,-196.73 483,-206.73 486.5,-196.73 479.5,-196.73"/>
</g>
<!-- Node30 -->
<g id="node30" class="node">
<title>Node30</title>
<g id="a_node30"><a xlink:href="d__cc__mass__s_8cpp.html" target="_top" xlink:title=" ">
<polygon fill="white" stroke="black" points="583.5,-134.5 583.5,-164.5 688.5,-164.5 688.5,-134.5 583.5,-134.5"/>
<text text-anchor="start" x="591.5" y="-152.5" font-family="Helvetica,sans-Serif" font-size="10.00">src/d/cc/d_cc_mass</text>
<text text-anchor="middle" x="636" y="-141.5" font-family="Helvetica,sans-Serif" font-size="10.00">_s.cpp</text>
</a>
</g>
</g>
<!-- Node28&#45;&gt;Node30 -->
<g id="edge36" class="edge">
<title>Node28&#45;&gt;Node30</title>
<path fill="none" stroke="midnightblue" d="M512.63,-202.91C538.54,-191.91 576.11,-175.94 602.98,-164.53"/>
<polygon fill="midnightblue" stroke="midnightblue" points="511.15,-199.74 503.32,-206.87 513.89,-206.18 511.15,-199.74"/>
</g>
<!-- Node31 -->
<g id="node31" class="node">
<title>Node31</title>
<g id="a_node31"><a xlink:href="d__cc__s_8h.html" target="_top" xlink:title=" ">
<polygon fill="white" stroke="black" points="271.5,-140 271.5,-159 382.5,-159 382.5,-140 271.5,-140"/>
<text text-anchor="middle" x="327" y="-147" font-family="Helvetica,sans-Serif" font-size="10.00">include/d/cc/d_cc_s.h</text>
</a>
</g>
</g>
<!-- Node28&#45;&gt;Node31 -->
<g id="edge38" class="edge">
<title>Node28&#45;&gt;Node31</title>
<path fill="none" stroke="midnightblue" d="M452.88,-202.95C421.99,-190.08 374.77,-170.4 347.8,-159.17"/>
<polygon fill="midnightblue" stroke="midnightblue" points="451.71,-206.25 462.28,-206.87 454.4,-199.79 451.71,-206.25"/>
</g>
<!-- Node31&#45;&gt;Node12 -->
<g id="edge39" class="edge">
<title>Node31&#45;&gt;Node12</title>
<path fill="none" stroke="midnightblue" d="M372.89,-137.75C378.97,-136.43 385.13,-135.14 391,-134 479.85,-116.71 583.82,-100.61 645.94,-91.43"/>
<polygon fill="midnightblue" stroke="midnightblue" points="371.8,-134.4 362.8,-139.98 373.32,-141.24 371.8,-134.4"/>
</g>
<!-- Node32&#45;&gt;Node10 -->
<g id="edge43" class="edge">
<title>Node32&#45;&gt;Node10</title>
<path fill="none" stroke="midnightblue" d="M654.72,-202.44C682.05,-189.57 723.05,-170.26 746.6,-159.17"/>
<polygon fill="midnightblue" stroke="midnightblue" points="652.88,-199.44 645.33,-206.87 655.86,-205.77 652.88,-199.44"/>
</g>
<!-- Node32&#45;&gt;Node30 -->
<g id="edge42" class="edge">
<title>Node32&#45;&gt;Node30</title>
<path fill="none" stroke="midnightblue" d="M629.6,-196.74C631.02,-186.49 632.75,-174 634.05,-164.59"/>
<polygon fill="midnightblue" stroke="midnightblue" points="626.12,-196.35 628.21,-206.73 633.05,-197.31 626.12,-196.35"/>
</g>
<!-- Node32&#45;&gt;Node31 -->
<g id="edge44" class="edge">
<title>Node32&#45;&gt;Node31</title>
<path fill="none" stroke="midnightblue" d="M576.67,-204.91C528.86,-194.81 454.99,-179.09 391,-165 382.32,-163.09 372.99,-161 364.21,-159.01"/>
<polygon fill="midnightblue" stroke="midnightblue" points="575.95,-208.34 586.46,-206.98 577.4,-201.49 575.95,-208.34"/>
</g>
<!-- Node33&#45;&gt;Node31 -->
<g id="edge47" class="edge">
<title>Node33&#45;&gt;Node31</title>
<path fill="none" stroke="midnightblue" d="M222.61,-197.3C250.57,-184.76 286.44,-168.68 308.02,-159.01"/>
<polygon fill="midnightblue" stroke="midnightblue" points="221.16,-194.11 213.46,-201.4 224.02,-200.5 221.16,-194.11"/>
</g>
<!-- Node34 -->
<g id="node34" class="node">
<title>Node34</title>
<g id="a_node34"><a xlink:href="c__cc__s_8cpp.html" target="_top" xlink:title=" ">
<polygon fill="white" stroke="black" points="0,-134.5 0,-164.5 134,-164.5 134,-134.5 0,-134.5"/>
<text text-anchor="start" x="8" y="-152.5" font-family="Helvetica,sans-Serif" font-size="10.00">libs/SSystem/SComponent</text>
<text text-anchor="middle" x="67" y="-141.5" font-family="Helvetica,sans-Serif" font-size="10.00">/c_cc_s.cpp</text>
</a>
</g>
</g>
<!-- Node33&#45;&gt;Node34 -->
<g id="edge46" class="edge">
<title>Node33&#45;&gt;Node34</title>
<path fill="none" stroke="midnightblue" d="M148.02,-196.3C130.03,-186.12 108.32,-173.85 91.9,-164.58"/>
<polygon fill="midnightblue" stroke="midnightblue" points="146.62,-199.52 157.05,-201.4 150.06,-193.43 146.62,-199.52"/>
</g>
</g>
</svg>
        <g id="navigator" transform="translate(0 0)" fill="#404254">
                <rect fill="#f2f5e9" fill-opacity="0.5" stroke="#606060" stroke-width=".5" x="0" y="0" width="60" height="60"/>
                <use id="zoomplus" xlink:href="#zoomPlus" x="17" y="9" onmousedown="handleZoom(evt,'in')"/>
                <use id="zoomminus" xlink:href="#zoomMin" x="42" y="9" onmousedown="handleZoom(evt,'out')"/>
                <use id="reset" xlink:href="#resetDef" x="30" y="36" onmousedown="handleReset()"/>
                <g id="arrowUp" xlink:href="#dirArrow" transform="translate(30 24)" onmousedown="handlePan(0,-1)">
                  <use xlink:href="#rim" fill="#404040">
                        <set attributeName="fill" to="#808080" begin="arrowUp.mouseover" end="arrowUp.mouseout"/>
                  </use>
                  <path fill="none" stroke="white" stroke-width="1.5" d="M0,-3.0v7 M-2.5,-0.5L0,-3.0L2.5,-0.5"/>
                </g>
                <g id="arrowRight" xlink:href="#dirArrow" transform="rotate(90) translate(36 -43)" onmousedown="handlePan(1,0)">
                  <use xlink:href="#rim" fill="#404040">
                        <set attributeName="fill" to="#808080" begin="arrowRight.mouseover" end="arrowRight.mouseout"/>
                  </use>
                  <path fill="none" stroke="white" stroke-width="1.5" d="M0,-3.0v7 M-2.5,-0.5L0,-3.0L2.5,-0.5"/>
                </g>
                <g id="arrowDown" xlink:href="#dirArrow" transform="rotate(180) translate(-30 -48)" onmousedown="handlePan(0,1)">
                  <use xlink:href="#rim" fill="#404040">
                        <set attributeName="fill" to="#808080" begin="arrowDown.mouseover" end="arrowDown.mouseout"/>
                  </use>
                  <path fill="none" stroke="white" stroke-width="1.5" d="M0,-3.0v7 M-2.5,-0.5L0,-3.0L2.5,-0.5"/>
                </g>
                <g id="arrowLeft" xlink:href="#dirArrow" transform="rotate(270) translate(-36 17)" onmousedown="handlePan(-1,0)">
                  <use xlink:href="#rim" fill="#404040">
                        <set attributeName="fill" to="#808080" begin="arrowLeft.mouseover" end="arrowLeft.mouseout"/>
                  </use>
                  <path fill="none" stroke="white" stroke-width="1.5" d="M0,-3.0v7 M-2.5,-0.5L0,-3.0L2.5,-0.5"/>
                </g>
        </g>
        <svg viewBox="0 0 15 15" width="100%" height="30px" preserveAspectRatio="xMaxYMin meet">
         <g id="arrow_out" transform="scale(0.3 0.3)">
          <a xlink:href="c__m3d__g__lin_8h__dep__incl_org.svg" target="_base">
           <rect id="button" ry="5" rx="5" y="6" x="6" height="38" width="38"
                fill="#f2f5e9" fill-opacity="0.5" stroke="#606060" stroke-width="1.0"/>
           <path id="arrow"
             d="M 11.500037,31.436501 C 11.940474,20.09759 22.043105,11.32322 32.158766,21.979434 L 37.068811,17.246167 C 37.068811,17.246167 37.088388,32 37.088388,32 L 22.160133,31.978069 C 22.160133,31.978069 26.997745,27.140456 26.997745,27.140456 C 18.528582,18.264221 13.291696,25.230495 11.500037,31.436501 z"
             style="fill:#404040;"/>
          </a>
         </g>
        </svg>
</svg>
