<?xml version="1.0" encoding="UTF-8" standalone="no"?>
<!DOCTYPE svg PUBLIC "-//W3C//DTD SVG 1.1//EN"
 "http://www.w3.org/Graphics/SVG/1.1/DTD/svg11.dtd">
<!-- Generated by graphviz version 7.0.5 (20221223.1930)
 -->
<!-- Title: libs/SSystem/SComponent/c_m3d_g_tri.cpp Pages: 1 -->
<!--zoomable 423 -->
<svg id="main" version="1.1" xmlns="http://www.w3.org/2000/svg" xmlns:xlink="http://www.w3.org/1999/xlink" xml:space="preserve" onload="init(evt)">
<style type="text/css"><![CDATA[
.edge:hover path { stroke: red; }
.edge:hover polygon { stroke: red; fill: red; }
]]></style>
<script type="text/javascript"><![CDATA[
var edges = document.getElementsByTagName('g');
if (edges && edges.length) {
  for (var i=0;i<edges.length;i++) {
    if (edges[i].id.substr(0,4)=='edge') {
      edges[i].setAttribute('class','edge');
    }
  }
}
]]></script>
        <defs>
                <circle id="rim" cx="0" cy="0" r="7"/>
                <circle id="rim2" cx="0" cy="0" r="3.5"/>
                <g id="zoomPlus">
                        <use xlink:href="#rim" fill="#404040">
                                <set attributeName="fill" to="#808080" begin="zoomplus.mouseover" end="zoomplus.mouseout"/>
                        </use>
                        <path d="M-4,0h8M0,-4v8" fill="none" stroke="white" stroke-width="1.5" pointer-events="none"/>
                </g>
                <g id="zoomMin">
                        <use xlink:href="#rim" fill="#404040">
                                <set attributeName="fill" to="#808080" begin="zoomminus.mouseover" end="zoomminus.mouseout"/>
                        </use>
                        <path d="M-4,0h8" fill="none" stroke="white" stroke-width="1.5" pointer-events="none"/>
                </g>
                <g id="dirArrow">
                        <path fill="none" stroke="white" stroke-width="1.5" d="M0,-3.0v7 M-2.5,-0.5L0,-3.0L2.5,-0.5"/>
                </g>
               <g id="resetDef">
                       <use xlink:href="#rim2" fill="#404040">
                               <set attributeName="fill" to="#808080" begin="reset.mouseover" end="reset.mouseout"/>
                       </use>
               </g>
        </defs>

<script type="text/javascript">
var viewWidth = 529;
var viewHeight = 423;
var sectionId = 'dynsection-0';
</script>
<script xlink:href="svgpan.js"/>
<svg id="graph" class="graph">
<g id="viewport">
<title>libs/SSystem/SComponent/c_m3d_g_tri.cpp</title>
<!-- Node1 -->
<g id="node1" class="node">
<title>Node1</title>
<g id="a_node1"><a xlink:title=" ">
<polygon fill="#999999" stroke="#666666" points="436,-415 302,-415 302,-385 436,-385 436,-415"/>
<text text-anchor="start" x="310" y="-403" font-family="Helvetica,sans-Serif" font-size="10.00">libs/SSystem/SComponent</text>
<text text-anchor="middle" x="369" y="-392" font-family="Helvetica,sans-Serif" font-size="10.00">/c_m3d_g_tri.cpp</text>
</a>
</g>
</g>
<!-- Node2 -->
<g id="node2" class="node">
<title>Node2</title>
<g id="a_node2"><a xlink:href="c__m3d__g__tri_8h.html" target="_top" xlink:title=" ">
<polygon fill="white" stroke="#666666" points="322,-349 206,-349 206,-319 322,-319 322,-349"/>
<text text-anchor="start" x="214" y="-337" font-family="Helvetica,sans-Serif" font-size="10.00">SSystem/SComponent</text>
<text text-anchor="middle" x="264" y="-326" font-family="Helvetica,sans-Serif" font-size="10.00">/c_m3d_g_tri.h</text>
</a>
</g>
</g>
<!-- Node1&#45;&gt;Node2 -->
<g id="edge1" class="edge">
<title>Node1&#45;&gt;Node2</title>
<path fill="none" stroke="#63b8ff" d="M345.44,-384.64C331.12,-375.91 312.62,-364.63 296.87,-355.04"/>
<polygon fill="#63b8ff" stroke="#63b8ff" points="299.14,-352.32 288.78,-350.1 295.5,-358.3 299.14,-352.32"/>
</g>
<!-- Node3 -->
<g id="node3" class="node">
<title>Node3</title>
<g id="a_node3"><a xlink:href="c__m3d_8h.html" target="_top" xlink:title=" ">
<polygon fill="white" stroke="#666666" points="116,-217 0,-217 0,-187 116,-187 116,-217"/>
<text text-anchor="start" x="8" y="-205" font-family="Helvetica,sans-Serif" font-size="10.00">SSystem/SComponent</text>
<text text-anchor="middle" x="58" y="-194" font-family="Helvetica,sans-Serif" font-size="10.00">/c_m3d.h</text>
</a>
</g>
</g>
<!-- Node1&#45;&gt;Node3 -->
<g id="edge23" class="edge">
<title>Node1&#45;&gt;Node3</title>
<path fill="none" stroke="#63b8ff" d="M301.61,-396.68C225.51,-389.95 105.36,-365.91 52,-283 41.59,-266.82 44.16,-244.81 48.73,-227.97"/>
<polygon fill="#63b8ff" stroke="#63b8ff" points="51.98,-229.31 51.63,-218.72 45.3,-227.22 51.98,-229.31"/>
</g>
<!-- Node7 -->
<g id="node7" class="node">
<title>Node7</title>
<g id="a_node7"><a xlink:href="types_8h.html" target="_top" xlink:title=" ">
<polygon fill="white" stroke="#666666" points="357.5,-90.5 276.5,-90.5 276.5,-71.5 357.5,-71.5 357.5,-90.5"/>
<text text-anchor="middle" x="317" y="-78.5" font-family="Helvetica,sans-Serif" font-size="10.00">dolphin/types.h</text>
</a>
</g>
</g>
<!-- Node1&#45;&gt;Node7 -->
<g id="edge25" class="edge">
<title>Node1&#45;&gt;Node7</title>
<path fill="none" stroke="#63b8ff" d="M380.95,-384.85C398.97,-362.04 431,-315.01 431,-269 431,-269 431,-269 431,-201 431,-151.87 379.7,-115.1 345.92,-96.22"/>
<polygon fill="#63b8ff" stroke="#63b8ff" points="347.88,-93.3 337.41,-91.66 344.57,-99.47 347.88,-93.3"/>
</g>
<!-- Node14 -->
<g id="node14" class="node">
<title>Node14</title>
<g id="a_node14"><a xlink:href="dol2asm_8h.html" target="_top" xlink:title=" ">
<polygon fill="white" stroke="#666666" points="520.5,-343.5 459.5,-343.5 459.5,-324.5 520.5,-324.5 520.5,-343.5"/>
<text text-anchor="middle" x="490" y="-331.5" font-family="Helvetica,sans-Serif" font-size="10.00">dol2asm.h</text>
</a>
</g>
</g>
<!-- Node1&#45;&gt;Node14 -->
<g id="edge24" class="edge">
<title>Node1&#45;&gt;Node14</title>
<path fill="none" stroke="#63b8ff" d="M396.15,-384.64C416.12,-374.08 443.13,-359.79 463.04,-349.26"/>
<polygon fill="#63b8ff" stroke="#63b8ff" points="464.47,-352.46 471.67,-344.69 461.2,-346.28 464.47,-352.46"/>
</g>
<!-- Node2&#45;&gt;Node3 -->
<g id="edge2" class="edge">
<title>Node2&#45;&gt;Node3</title>
<path fill="none" stroke="#63b8ff" d="M205.94,-325.48C154.94,-317.62 86.12,-303.54 68,-283 55.12,-268.4 53.29,-246.05 54.3,-228.68"/>
<polygon fill="#63b8ff" stroke="#63b8ff" points="57.77,-229.15 55.24,-218.86 50.8,-228.48 57.77,-229.15"/>
</g>
<!-- Node2&#45;&gt;Node7 -->
<g id="edge22" class="edge">
<title>Node2&#45;&gt;Node7</title>
<path fill="none" stroke="#63b8ff" d="M322.37,-320.24C342.21,-312.81 362.3,-301.17 374,-283 412.59,-223.07 358.34,-136.7 331.05,-99.8"/>
<polygon fill="#63b8ff" stroke="#63b8ff" points="333.93,-97.81 325.08,-91.97 328.36,-102.05 333.93,-97.81"/>
</g>
<!-- Node9 -->
<g id="node9" class="node">
<title>Node9</title>
<g id="a_node9"><a xlink:href="c__m3d__g__cyl_8h.html" target="_top" xlink:title=" ">
<polygon fill="white" stroke="#666666" points="193,-283 77,-283 77,-253 193,-253 193,-283"/>
<text text-anchor="start" x="85" y="-271" font-family="Helvetica,sans-Serif" font-size="10.00">SSystem/SComponent</text>
<text text-anchor="middle" x="135" y="-260" font-family="Helvetica,sans-Serif" font-size="10.00">/c_m3d_g_cyl.h</text>
</a>
</g>
</g>
<!-- Node2&#45;&gt;Node9 -->
<g id="edge8" class="edge">
<title>Node2&#45;&gt;Node9</title>
<path fill="none" stroke="#63b8ff" d="M235.05,-318.64C217.04,-309.7 193.66,-298.1 174.02,-288.36"/>
<polygon fill="#63b8ff" stroke="#63b8ff" points="175.72,-285.3 165.21,-283.99 172.61,-291.57 175.72,-285.3"/>
</g>
<!-- Node10 -->
<g id="node10" class="node">
<title>Node10</title>
<g id="a_node10"><a xlink:href="c__xyz_8h.html" target="_top" xlink:title=" ">
<polygon fill="white" stroke="#666666" points="269,-217 153,-217 153,-187 269,-187 269,-217"/>
<text text-anchor="start" x="161" y="-205" font-family="Helvetica,sans-Serif" font-size="10.00">SSystem/SComponent</text>
<text text-anchor="middle" x="211" y="-194" font-family="Helvetica,sans-Serif" font-size="10.00">/c_xyz.h</text>
</a>
</g>
</g>
<!-- Node2&#45;&gt;Node10 -->
<g id="edge21" class="edge">
<title>Node2&#45;&gt;Node10</title>
<path fill="none" stroke="#63b8ff" d="M256.68,-318.73C251.72,-308.82 245.15,-295.25 240,-283 232.36,-264.81 224.8,-243.82 219.31,-227.9"/>
<polygon fill="#63b8ff" stroke="#63b8ff" points="222.73,-227.1 216.2,-218.76 216.11,-229.35 222.73,-227.1"/>
</g>
<!-- Node13 -->
<g id="node13" class="node">
<title>Node13</title>
<g id="a_node13"><a xlink:href="c__m3d__g__pla_8h.html" target="_top" xlink:title=" ">
<polygon fill="white" stroke="#666666" points="365,-283 249,-283 249,-253 365,-253 365,-283"/>
<text text-anchor="start" x="257" y="-271" font-family="Helvetica,sans-Serif" font-size="10.00">SSystem/SComponent</text>
<text text-anchor="middle" x="307" y="-260" font-family="Helvetica,sans-Serif" font-size="10.00">/c_m3d_g_pla.h</text>
</a>
</g>
</g>
<!-- Node2&#45;&gt;Node13 -->
<g id="edge17" class="edge">
<title>Node2&#45;&gt;Node13</title>
<path fill="none" stroke="#63b8ff" d="M273.54,-318.8C278.72,-311.09 285.25,-301.37 291.17,-292.56"/>
<polygon fill="#63b8ff" stroke="#63b8ff" points="293.97,-294.67 296.64,-284.42 288.16,-290.77 293.97,-294.67"/>
</g>
<!-- Node4 -->
<g id="node4" class="node">
<title>Node4</title>
<g id="a_node4"><a xlink:href="math_8h.html" target="_top" xlink:title=" ">
<polygon fill="white" stroke="#666666" points="111,-151 29,-151 29,-132 111,-132 111,-151"/>
<text text-anchor="middle" x="70" y="-139" font-family="Helvetica,sans-Serif" font-size="10.00">MSL_C/math.h</text>
</a>
</g>
</g>
<!-- Node3&#45;&gt;Node4 -->
<g id="edge3" class="edge">
<title>Node3&#45;&gt;Node4</title>
<path fill="none" stroke="#63b8ff" d="M60.97,-186.54C62.46,-179.26 64.29,-170.31 65.92,-162.39"/>
<polygon fill="#63b8ff" stroke="#63b8ff" points="69.34,-163.16 67.92,-152.66 62.48,-161.75 69.34,-163.16"/>
</g>
<!-- Node3&#45;&gt;Node7 -->
<g id="edge6" class="edge">
<title>Node3&#45;&gt;Node7</title>
<path fill="none" stroke="#63b8ff" d="M40.61,-186.77C24.71,-172.05 5.69,-148.92 20,-132 35.61,-113.54 183.61,-95.66 264.62,-87.16"/>
<polygon fill="#63b8ff" stroke="#63b8ff" points="264.97,-90.64 274.55,-86.13 264.25,-83.68 264.97,-90.64"/>
</g>
<!-- Node5 -->
<g id="node5" class="node">
<title>Node5</title>
<g id="a_node5"><a xlink:href="float_8h.html" target="_top" xlink:title=" ">
<polygon fill="white" stroke="#666666" points="138,-96 2,-96 2,-66 138,-66 138,-96"/>
<text text-anchor="start" x="10" y="-84" font-family="Helvetica,sans-Serif" font-size="10.00">MSL_C/MSL_Common/Src</text>
<text text-anchor="middle" x="70" y="-73" font-family="Helvetica,sans-Serif" font-size="10.00">/float.h</text>
</a>
</g>
</g>
<!-- Node4&#45;&gt;Node5 -->
<g id="edge4" class="edge">
<title>Node4&#45;&gt;Node5</title>
<path fill="none" stroke="#63b8ff" d="M70,-131.87C70,-125.4 70,-116.2 70,-107.45"/>
<polygon fill="#63b8ff" stroke="#63b8ff" points="73.5,-107.63 70,-97.63 66.5,-107.63 73.5,-107.63"/>
</g>
<!-- Node6 -->
<g id="node6" class="node">
<title>Node6</title>
<g id="a_node6"><a xlink:href="fdlibm_8h.html" target="_top" xlink:title=" ">
<polygon fill="white" stroke="#666666" points="95,-24.5 45,-24.5 45,-5.5 95,-5.5 95,-24.5"/>
<text text-anchor="middle" x="70" y="-12.5" font-family="Helvetica,sans-Serif" font-size="10.00">fdlibm.h</text>
</a>
</g>
</g>
<!-- Node5&#45;&gt;Node6 -->
<g id="edge5" class="edge">
<title>Node5&#45;&gt;Node6</title>
<path fill="none" stroke="#63b8ff" d="M70,-65.8C70,-57.09 70,-45.81 70,-36.18"/>
<polygon fill="#63b8ff" stroke="#63b8ff" points="73.5,-36.36 70,-26.36 66.5,-36.36 73.5,-36.36"/>
</g>
<!-- Node8 -->
<g id="node8" class="node">
<title>Node8</title>
<g id="a_node8"><a xlink:href="stddef_8h.html" target="_top" xlink:title=" ">
<polygon fill="white" stroke="#666666" points="385,-30 249,-30 249,0 385,0 385,-30"/>
<text text-anchor="start" x="257" y="-18" font-family="Helvetica,sans-Serif" font-size="10.00">MSL_C/MSL_Common/Src</text>
<text text-anchor="middle" x="317" y="-7" font-family="Helvetica,sans-Serif" font-size="10.00">/stddef.h</text>
</a>
</g>
</g>
<!-- Node7&#45;&gt;Node8 -->
<g id="edge7" class="edge">
<title>Node7&#45;&gt;Node8</title>
<path fill="none" stroke="#63b8ff" d="M317,-71.1C317,-63.41 317,-51.92 317,-41.42"/>
<polygon fill="#63b8ff" stroke="#63b8ff" points="320.5,-41.75 317,-31.75 313.5,-41.75 320.5,-41.75"/>
</g>
<!-- Node9&#45;&gt;Node3 -->
<g id="edge9" class="edge">
<title>Node9&#45;&gt;Node3</title>
<path fill="none" stroke="#63b8ff" d="M117.91,-252.8C107.91,-244.49 95.09,-233.83 83.87,-224.5"/>
<polygon fill="#63b8ff" stroke="#63b8ff" points="86.4,-222.05 76.47,-218.35 81.92,-227.44 86.4,-222.05"/>
</g>
<!-- Node9&#45;&gt;Node7 -->
<g id="edge16" class="edge">
<title>Node9&#45;&gt;Node7</title>
<path fill="none" stroke="#63b8ff" d="M193.27,-259.28C222.28,-252.6 255.79,-240.16 278,-217 308.44,-185.25 315.35,-131.25 316.77,-102.1"/>
<polygon fill="#63b8ff" stroke="#63b8ff" points="320.26,-102.55 317.06,-92.45 313.26,-102.34 320.26,-102.55"/>
</g>
<!-- Node9&#45;&gt;Node10 -->
<g id="edge10" class="edge">
<title>Node9&#45;&gt;Node10</title>
<path fill="none" stroke="#63b8ff" d="M151.87,-252.8C161.64,-244.57 174.14,-234.04 185.13,-224.78"/>
<polygon fill="#63b8ff" stroke="#63b8ff" points="187.37,-227.48 192.76,-218.36 182.86,-222.12 187.37,-227.48"/>
</g>
<!-- Node10&#45;&gt;Node4 -->
<g id="edge11" class="edge">
<title>Node10&#45;&gt;Node4</title>
<path fill="none" stroke="#63b8ff" d="M176.15,-186.54C153.4,-177.1 123.94,-164.88 101.83,-155.71"/>
<polygon fill="#63b8ff" stroke="#63b8ff" points="103.3,-152.53 92.72,-151.93 100.61,-158.99 103.3,-152.53"/>
</g>
<!-- Node11 -->
<g id="node11" class="node">
<title>Node11</title>
<g id="a_node11"><a xlink:href="vec_8h.html" target="_top" xlink:title=" ">
<polygon fill="white" stroke="#666666" points="221,-151 129,-151 129,-132 221,-132 221,-151"/>
<text text-anchor="middle" x="175" y="-139" font-family="Helvetica,sans-Serif" font-size="10.00">dolphin/mtx/vec.h</text>
</a>
</g>
</g>
<!-- Node10&#45;&gt;Node11 -->
<g id="edge12" class="edge">
<title>Node10&#45;&gt;Node11</title>
<path fill="none" stroke="#63b8ff" d="M202.1,-186.54C197.3,-178.74 191.32,-169.03 186.21,-160.71"/>
<polygon fill="#63b8ff" stroke="#63b8ff" points="189.35,-159.15 181.13,-152.46 183.39,-162.82 189.35,-159.15"/>
</g>
<!-- Node12 -->
<g id="node12" class="node">
<title>Node12</title>
<g id="a_node12"><a xlink:href="global_8h.html" target="_top" xlink:title=" ">
<polygon fill="white" stroke="#666666" points="289,-151 239,-151 239,-132 289,-132 289,-151"/>
<text text-anchor="middle" x="264" y="-139" font-family="Helvetica,sans-Serif" font-size="10.00">global.h</text>
</a>
</g>
</g>
<!-- Node10&#45;&gt;Node12 -->
<g id="edge14" class="edge">
<title>Node10&#45;&gt;Node12</title>
<path fill="none" stroke="#63b8ff" d="M224.1,-186.54C231.48,-178.39 240.75,-168.16 248.5,-159.61"/>
<polygon fill="#63b8ff" stroke="#63b8ff" points="251,-162.06 255.12,-152.3 245.82,-157.36 251,-162.06"/>
</g>
<!-- Node11&#45;&gt;Node7 -->
<g id="edge13" class="edge">
<title>Node11&#45;&gt;Node7</title>
<path fill="none" stroke="#63b8ff" d="M196.57,-131.62C220.02,-121.95 257.77,-106.4 284.76,-95.28"/>
<polygon fill="#63b8ff" stroke="#63b8ff" points="285.92,-98.59 293.83,-91.55 283.25,-92.12 285.92,-98.59"/>
</g>
<!-- Node12&#45;&gt;Node7 -->
<g id="edge15" class="edge">
<title>Node12&#45;&gt;Node7</title>
<path fill="none" stroke="#63b8ff" d="M271.82,-131.87C279.65,-123.23 291.9,-109.7 301.67,-98.92"/>
<polygon fill="#63b8ff" stroke="#63b8ff" points="304.01,-101.55 308.13,-91.79 298.82,-96.85 304.01,-101.55"/>
</g>
<!-- Node13&#45;&gt;Node3 -->
<g id="edge19" class="edge">
<title>Node13&#45;&gt;Node3</title>
<path fill="none" stroke="#63b8ff" d="M250.81,-252.56C213.52,-242.97 164.4,-230.35 125.06,-220.24"/>
<polygon fill="#63b8ff" stroke="#63b8ff" points="126.01,-216.87 115.45,-217.77 124.27,-223.65 126.01,-216.87"/>
</g>
<!-- Node13&#45;&gt;Node7 -->
<g id="edge20" class="edge">
<title>Node13&#45;&gt;Node7</title>
<path fill="none" stroke="#63b8ff" d="M315.96,-252.76C321.5,-243.08 328.09,-229.77 331,-217 339.38,-180.16 336.14,-169.43 331,-132 329.58,-121.69 326.6,-110.52 323.75,-101.35"/>
<polygon fill="#63b8ff" stroke="#63b8ff" points="327.16,-100.53 320.7,-92.13 320.52,-102.73 327.16,-100.53"/>
</g>
<!-- Node13&#45;&gt;Node10 -->
<g id="edge18" class="edge">
<title>Node13&#45;&gt;Node10</title>
<path fill="none" stroke="#63b8ff" d="M285.69,-252.8C272.86,-244.24 256.29,-233.19 242.02,-223.68"/>
<polygon fill="#63b8ff" stroke="#63b8ff" points="244.1,-220.86 233.84,-218.22 240.22,-226.68 244.1,-220.86"/>
</g>
</g>
</svg>
        <g id="navigator" transform="translate(0 0)" fill="#404254">
                <rect fill="#f2f5e9" fill-opacity="0.5" stroke="#606060" stroke-width=".5" x="0" y="0" width="60" height="60"/>
                <use id="zoomplus" xlink:href="#zoomPlus" x="17" y="9" onmousedown="handleZoom(evt,'in')"/>
                <use id="zoomminus" xlink:href="#zoomMin" x="42" y="9" onmousedown="handleZoom(evt,'out')"/>
                <use id="reset" xlink:href="#resetDef" x="30" y="36" onmousedown="handleReset()"/>
                <g id="arrowUp" xlink:href="#dirArrow" transform="translate(30 24)" onmousedown="handlePan(0,-1)">
                  <use xlink:href="#rim" fill="#404040">
                        <set attributeName="fill" to="#808080" begin="arrowUp.mouseover" end="arrowUp.mouseout"/>
                  </use>
                  <path fill="none" stroke="white" stroke-width="1.5" d="M0,-3.0v7 M-2.5,-0.5L0,-3.0L2.5,-0.5"/>
                </g>
                <g id="arrowRight" xlink:href="#dirArrow" transform="rotate(90) translate(36 -43)" onmousedown="handlePan(1,0)">
                  <use xlink:href="#rim" fill="#404040">
                        <set attributeName="fill" to="#808080" begin="arrowRight.mouseover" end="arrowRight.mouseout"/>
                  </use>
                  <path fill="none" stroke="white" stroke-width="1.5" d="M0,-3.0v7 M-2.5,-0.5L0,-3.0L2.5,-0.5"/>
                </g>
                <g id="arrowDown" xlink:href="#dirArrow" transform="rotate(180) translate(-30 -48)" onmousedown="handlePan(0,1)">
                  <use xlink:href="#rim" fill="#404040">
                        <set attributeName="fill" to="#808080" begin="arrowDown.mouseover" end="arrowDown.mouseout"/>
                  </use>
                  <path fill="none" stroke="white" stroke-width="1.5" d="M0,-3.0v7 M-2.5,-0.5L0,-3.0L2.5,-0.5"/>
                </g>
                <g id="arrowLeft" xlink:href="#dirArrow" transform="rotate(270) translate(-36 17)" onmousedown="handlePan(-1,0)">
                  <use xlink:href="#rim" fill="#404040">
                        <set attributeName="fill" to="#808080" begin="arrowLeft.mouseover" end="arrowLeft.mouseout"/>
                  </use>
                  <path fill="none" stroke="white" stroke-width="1.5" d="M0,-3.0v7 M-2.5,-0.5L0,-3.0L2.5,-0.5"/>
                </g>
        </g>
        <svg viewBox="0 0 15 15" width="100%" height="30px" preserveAspectRatio="xMaxYMin meet">
         <g id="arrow_out" transform="scale(0.3 0.3)">
          <a xlink:href="c__m3d__g__tri_8cpp__incl_org.svg" target="_base">
           <rect id="button" ry="5" rx="5" y="6" x="6" height="38" width="38"
                fill="#f2f5e9" fill-opacity="0.5" stroke="#606060" stroke-width="1.0"/>
           <path id="arrow"
             d="M 11.500037,31.436501 C 11.940474,20.09759 22.043105,11.32322 32.158766,21.979434 L 37.068811,17.246167 C 37.068811,17.246167 37.088388,32 37.088388,32 L 22.160133,31.978069 C 22.160133,31.978069 26.997745,27.140456 26.997745,27.140456 C 18.528582,18.264221 13.291696,25.230495 11.500037,31.436501 z"
             style="fill:#404040;"/>
          </a>
         </g>
        </svg>
</svg>
