<?xml version="1.0" encoding="UTF-8" standalone="no"?>
<!DOCTYPE svg PUBLIC "-//W3C//DTD SVG 1.1//EN"
 "http://www.w3.org/Graphics/SVG/1.1/DTD/svg11.dtd">
<!-- Generated by graphviz version 7.0.4 (20221203.1631)
 -->
<!-- Title: libs/dolphin/card/CARDMount.c Pages: 1 -->
<!--zoomable 148 -->
<svg id="main" version="1.1" xmlns="http://www.w3.org/2000/svg" xmlns:xlink="http://www.w3.org/1999/xlink" xml:space="preserve" onload="init(evt)">
<style type="text/css"><![CDATA[
.edge:hover path { stroke: red; }
.edge:hover polygon { stroke: red; fill: red; }
]]></style>
<script type="text/javascript"><![CDATA[
var edges = document.getElementsByTagName('g');
if (edges && edges.length) {
  for (var i=0;i<edges.length;i++) {
    if (edges[i].id.substr(0,4)=='edge') {
      edges[i].setAttribute('class','edge');
    }
  }
}
]]></script>
        <defs>
                <circle id="rim" cx="0" cy="0" r="7"/>
                <circle id="rim2" cx="0" cy="0" r="3.5"/>
                <g id="zoomPlus">
                        <use xlink:href="#rim" fill="#404040">
                                <set attributeName="fill" to="#808080" begin="zoomplus.mouseover" end="zoomplus.mouseout"/>
                        </use>
                        <path d="M-4,0h8M0,-4v8" fill="none" stroke="white" stroke-width="1.5" pointer-events="none"/>
                </g>
                <g id="zoomMin">
                        <use xlink:href="#rim" fill="#404040">
                                <set attributeName="fill" to="#808080" begin="zoomminus.mouseover" end="zoomminus.mouseout"/>
                        </use>
                        <path d="M-4,0h8" fill="none" stroke="white" stroke-width="1.5" pointer-events="none"/>
                </g>
                <g id="dirArrow">
                        <path fill="none" stroke="white" stroke-width="1.5" d="M0,-3.0v7 M-2.5,-0.5L0,-3.0L2.5,-0.5"/>
                </g>
               <g id="resetDef">
                       <use xlink:href="#rim2" fill="#404040">
                               <set attributeName="fill" to="#808080" begin="reset.mouseover" end="reset.mouseout"/>
                       </use>
               </g>
        </defs>

<script type="text/javascript">
var viewWidth = 1754;
var viewHeight = 148;
var sectionId = 'dynsection-0';
</script>
<script xlink:href="svgpan.js"/>
<svg id="graph" class="graph">
<g id="viewport">
<title>libs/dolphin/card/CARDMount.c</title>
<!-- Node1 -->
<g id="node1" class="node">
<title>Node1</title>
<g id="a_node1"><a xlink:title=" ">
<polygon fill="#999999" stroke="#666666" points="835,-140 683,-140 683,-121 835,-121 835,-140"/>
<text text-anchor="middle" x="759" y="-128" font-family="Helvetica,sans-Serif" font-size="10.00">libs/dolphin/card/CARDMount.c</text>
</a>
</g>
</g>
<!-- Node2 -->
<g id="node2" class="node">
<title>Node2</title>
<g id="a_node2"><a xlink:href="CARDMount_8h.html" target="_top" xlink:title=" ">
<polygon fill="white" stroke="#666666" points="134,-79.5 0,-79.5 0,-60.5 134,-60.5 134,-79.5"/>
<text text-anchor="middle" x="67" y="-67.5" font-family="Helvetica,sans-Serif" font-size="10.00">dolphin/card/CARDMount.h</text>
</a>
</g>
</g>
<!-- Node1&#45;&gt;Node2 -->
<g id="edge1" class="edge">
<title>Node1&#45;&gt;Node2</title>
<path fill="none" stroke="#63b8ff" d="M682.56,-126.35C566.64,-121.03 339.61,-108.48 148,-85 140.58,-84.09 132.8,-82.97 125.12,-81.75"/>
<polygon fill="#63b8ff" stroke="#63b8ff" points="125.93,-78.34 115.49,-80.17 124.79,-85.25 125.93,-78.34"/>
</g>
<!-- Node3 -->
<g id="node3" class="node">
<title>Node3</title>
<g id="a_node3"><a xlink:href="types_8h.html" target="_top" xlink:title=" ">
<polygon fill="white" stroke="#666666" points="154.5,-19 73.5,-19 73.5,0 154.5,0 154.5,-19"/>
<text text-anchor="middle" x="114" y="-7" font-family="Helvetica,sans-Serif" font-size="10.00">dolphin/types.h</text>
</a>
</g>
</g>
<!-- Node1&#45;&gt;Node3 -->
<g id="edge4" class="edge">
<title>Node1&#45;&gt;Node3</title>
<path fill="none" stroke="#63b8ff" d="M682.7,-126.74C536.16,-120.98 225.91,-106.42 182,-85 156.86,-72.73 136.62,-46.76 124.95,-28.97"/>
<polygon fill="#63b8ff" stroke="#63b8ff" points="128.02,-27.29 119.76,-20.66 122.09,-31 128.02,-27.29"/>
</g>
<!-- Node4 -->
<g id="node4" class="node">
<title>Node4</title>
<g id="a_node4"><a xlink:href="dol2asm_8h.html" target="_top" xlink:title=" ">
<polygon fill="white" stroke="#666666" points="251.5,-79.5 190.5,-79.5 190.5,-60.5 251.5,-60.5 251.5,-79.5"/>
<text text-anchor="middle" x="221" y="-67.5" font-family="Helvetica,sans-Serif" font-size="10.00">dol2asm.h</text>
</a>
</g>
</g>
<!-- Node1&#45;&gt;Node4 -->
<g id="edge3" class="edge">
<title>Node1&#45;&gt;Node4</title>
<path fill="none" stroke="#63b8ff" d="M682.61,-128.52C584.11,-125.92 407.99,-116.78 261,-85 258.84,-84.53 256.64,-83.98 254.44,-83.38"/>
<polygon fill="#63b8ff" stroke="#63b8ff" points="255.6,-80.07 245.01,-80.44 253.52,-86.76 255.6,-80.07"/>
</g>
<!-- Node5 -->
<g id="node5" class="node">
<title>Node5</title>
<g id="a_node5"><a xlink:title=" ">
<polygon fill="#e0e0e0" stroke="#999999" points="418,-85 270,-85 270,-55 418,-55 418,-85"/>
<text text-anchor="start" x="278" y="-73" font-family="Helvetica,sans-Serif" font-size="10.00">asm/dolphin/card/CARDMount</text>
<text text-anchor="middle" x="344" y="-62" font-family="Helvetica,sans-Serif" font-size="10.00">/IsCard.s</text>
</a>
</g>
</g>
<!-- Node1&#45;&gt;Node5 -->
<g id="edge5" class="edge">
<title>Node1&#45;&gt;Node5</title>
<path fill="none" stroke="#63b8ff" d="M686.69,-120.52C621.93,-112.32 524.07,-99.53 429.42,-85.33"/>
<polygon fill="#63b8ff" stroke="#63b8ff" points="430.1,-81.9 419.69,-83.87 429.05,-88.82 430.1,-81.9"/>
</g>
<!-- Node6 -->
<g id="node6" class="node">
<title>Node6</title>
<g id="a_node6"><a xlink:title=" ">
<polygon fill="#e0e0e0" stroke="#999999" points="584,-85 436,-85 436,-55 584,-55 584,-85"/>
<text text-anchor="start" x="444" y="-73" font-family="Helvetica,sans-Serif" font-size="10.00">asm/dolphin/card/CARDMount</text>
<text text-anchor="middle" x="510" y="-62" font-family="Helvetica,sans-Serif" font-size="10.00">/CARDProbe.s</text>
</a>
</g>
</g>
<!-- Node1&#45;&gt;Node6 -->
<g id="edge6" class="edge">
<title>Node1&#45;&gt;Node6</title>
<path fill="none" stroke="#63b8ff" d="M720.91,-120.55C684.16,-111.92 627.59,-98.63 582.28,-87.98"/>
<polygon fill="#63b8ff" stroke="#63b8ff" points="583.33,-84.63 572.8,-85.75 581.73,-91.45 583.33,-84.63"/>
</g>
<!-- Node7 -->
<g id="node7" class="node">
<title>Node7</title>
<g id="a_node7"><a xlink:title=" ">
<polygon fill="#e0e0e0" stroke="#999999" points="750,-85 602,-85 602,-55 750,-55 750,-85"/>
<text text-anchor="start" x="610" y="-73" font-family="Helvetica,sans-Serif" font-size="10.00">asm/dolphin/card/CARDMount</text>
<text text-anchor="middle" x="676" y="-62" font-family="Helvetica,sans-Serif" font-size="10.00">/CARDProbeEx.s</text>
</a>
</g>
</g>
<!-- Node1&#45;&gt;Node7 -->
<g id="edge7" class="edge">
<title>Node1&#45;&gt;Node7</title>
<path fill="none" stroke="#63b8ff" d="M746.39,-120.62C735.63,-113.03 719.73,-101.82 705.76,-91.98"/>
<polygon fill="#63b8ff" stroke="#63b8ff" points="707.91,-89.21 697.72,-86.31 703.88,-94.93 707.91,-89.21"/>
</g>
<!-- Node8 -->
<g id="node8" class="node">
<title>Node8</title>
<g id="a_node8"><a xlink:title=" ">
<polygon fill="#e0e0e0" stroke="#999999" points="916,-85 768,-85 768,-55 916,-55 916,-85"/>
<text text-anchor="start" x="776" y="-73" font-family="Helvetica,sans-Serif" font-size="10.00">asm/dolphin/card/CARDMount</text>
<text text-anchor="middle" x="842" y="-62" font-family="Helvetica,sans-Serif" font-size="10.00">/DoMount.s</text>
</a>
</g>
</g>
<!-- Node1&#45;&gt;Node8 -->
<g id="edge8" class="edge">
<title>Node1&#45;&gt;Node8</title>
<path fill="none" stroke="#63b8ff" d="M771.61,-120.62C782.37,-113.03 798.27,-101.82 812.24,-91.98"/>
<polygon fill="#63b8ff" stroke="#63b8ff" points="814.12,-94.93 820.28,-86.31 810.09,-89.21 814.12,-94.93"/>
</g>
<!-- Node9 -->
<g id="node9" class="node">
<title>Node9</title>
<g id="a_node9"><a xlink:title=" ">
<polygon fill="#e0e0e0" stroke="#999999" points="1082,-85 934,-85 934,-55 1082,-55 1082,-85"/>
<text text-anchor="start" x="942" y="-73" font-family="Helvetica,sans-Serif" font-size="10.00">asm/dolphin/card/CARDMount</text>
<text text-anchor="middle" x="1008" y="-62" font-family="Helvetica,sans-Serif" font-size="10.00">/__CARDMountCallback.s</text>
</a>
</g>
</g>
<!-- Node1&#45;&gt;Node9 -->
<g id="edge9" class="edge">
<title>Node1&#45;&gt;Node9</title>
<path fill="none" stroke="#63b8ff" d="M797.09,-120.55C833.84,-111.92 890.41,-98.63 935.72,-87.98"/>
<polygon fill="#63b8ff" stroke="#63b8ff" points="936.27,-91.45 945.2,-85.75 934.67,-84.63 936.27,-91.45"/>
</g>
<!-- Node10 -->
<g id="node10" class="node">
<title>Node10</title>
<g id="a_node10"><a xlink:title=" ">
<polygon fill="#e0e0e0" stroke="#999999" points="1248,-85 1100,-85 1100,-55 1248,-55 1248,-85"/>
<text text-anchor="start" x="1108" y="-73" font-family="Helvetica,sans-Serif" font-size="10.00">asm/dolphin/card/CARDMount</text>
<text text-anchor="middle" x="1174" y="-62" font-family="Helvetica,sans-Serif" font-size="10.00">/CARDMountAsync.s</text>
</a>
</g>
</g>
<!-- Node1&#45;&gt;Node10 -->
<g id="edge10" class="edge">
<title>Node1&#45;&gt;Node10</title>
<path fill="none" stroke="#63b8ff" d="M831.31,-120.52C896.07,-112.32 993.93,-99.53 1088.58,-85.33"/>
<polygon fill="#63b8ff" stroke="#63b8ff" points="1088.95,-88.82 1098.31,-83.87 1087.9,-81.9 1088.95,-88.82"/>
</g>
<!-- Node11 -->
<g id="node11" class="node">
<title>Node11</title>
<g id="a_node11"><a xlink:title=" ">
<polygon fill="#e0e0e0" stroke="#999999" points="1414,-85 1266,-85 1266,-55 1414,-55 1414,-85"/>
<text text-anchor="start" x="1274" y="-73" font-family="Helvetica,sans-Serif" font-size="10.00">asm/dolphin/card/CARDMount</text>
<text text-anchor="middle" x="1340" y="-62" font-family="Helvetica,sans-Serif" font-size="10.00">/CARDMount.s</text>
</a>
</g>
</g>
<!-- Node1&#45;&gt;Node11 -->
<g id="edge11" class="edge">
<title>Node1&#45;&gt;Node11</title>
<path fill="none" stroke="#63b8ff" d="M835.13,-124.55C930.7,-117.92 1099.9,-104.82 1254.71,-85.23"/>
<polygon fill="#63b8ff" stroke="#63b8ff" points="1254.85,-88.74 1264.33,-84 1253.97,-81.79 1254.85,-88.74"/>
</g>
<!-- Node12 -->
<g id="node12" class="node">
<title>Node12</title>
<g id="a_node12"><a xlink:title=" ">
<polygon fill="#e0e0e0" stroke="#999999" points="1580,-85 1432,-85 1432,-55 1580,-55 1580,-85"/>
<text text-anchor="start" x="1440" y="-73" font-family="Helvetica,sans-Serif" font-size="10.00">asm/dolphin/card/CARDMount</text>
<text text-anchor="middle" x="1506" y="-62" font-family="Helvetica,sans-Serif" font-size="10.00">/DoUnmount.s</text>
</a>
</g>
</g>
<!-- Node1&#45;&gt;Node12 -->
<g id="edge12" class="edge">
<title>Node1&#45;&gt;Node12</title>
<path fill="none" stroke="#63b8ff" d="M835.41,-126.87C957.06,-122.13 1202.44,-110.33 1420.49,-85.21"/>
<polygon fill="#63b8ff" stroke="#63b8ff" points="1420.81,-88.7 1430.34,-84.06 1420,-81.74 1420.81,-88.7"/>
</g>
<!-- Node13 -->
<g id="node13" class="node">
<title>Node13</title>
<g id="a_node13"><a xlink:title=" ">
<polygon fill="#e0e0e0" stroke="#999999" points="1746,-85 1598,-85 1598,-55 1746,-55 1746,-85"/>
<text text-anchor="start" x="1606" y="-73" font-family="Helvetica,sans-Serif" font-size="10.00">asm/dolphin/card/CARDMount</text>
<text text-anchor="middle" x="1672" y="-62" font-family="Helvetica,sans-Serif" font-size="10.00">/CARDUnmount.s</text>
</a>
</g>
</g>
<!-- Node1&#45;&gt;Node13 -->
<g id="edge13" class="edge">
<title>Node1&#45;&gt;Node13</title>
<path fill="none" stroke="#63b8ff" d="M835.34,-128.3C979.93,-125.4 1303.86,-115.88 1586.54,-85.18"/>
<polygon fill="#63b8ff" stroke="#63b8ff" points="1586.78,-88.67 1596.34,-84.1 1586.02,-81.71 1586.78,-88.67"/>
</g>
<!-- Node2&#45;&gt;Node3 -->
<g id="edge2" class="edge">
<title>Node2&#45;&gt;Node3</title>
<path fill="none" stroke="#63b8ff" d="M73.94,-60.37C80.74,-51.9 91.31,-38.74 99.89,-28.07"/>
<polygon fill="#63b8ff" stroke="#63b8ff" points="102.55,-30.34 106.09,-20.35 97.1,-25.95 102.55,-30.34"/>
</g>
</g>
</svg>
        <g id="navigator" transform="translate(0 0)" fill="#404254">
                <rect fill="#f2f5e9" fill-opacity="0.5" stroke="#606060" stroke-width=".5" x="0" y="0" width="60" height="60"/>
                <use id="zoomplus" xlink:href="#zoomPlus" x="17" y="9" onmousedown="handleZoom(evt,'in')"/>
                <use id="zoomminus" xlink:href="#zoomMin" x="42" y="9" onmousedown="handleZoom(evt,'out')"/>
                <use id="reset" xlink:href="#resetDef" x="30" y="36" onmousedown="handleReset()"/>
                <g id="arrowUp" xlink:href="#dirArrow" transform="translate(30 24)" onmousedown="handlePan(0,-1)">
                  <use xlink:href="#rim" fill="#404040">
                        <set attributeName="fill" to="#808080" begin="arrowUp.mouseover" end="arrowUp.mouseout"/>
                  </use>
                  <path fill="none" stroke="white" stroke-width="1.5" d="M0,-3.0v7 M-2.5,-0.5L0,-3.0L2.5,-0.5"/>
                </g>
                <g id="arrowRight" xlink:href="#dirArrow" transform="rotate(90) translate(36 -43)" onmousedown="handlePan(1,0)">
                  <use xlink:href="#rim" fill="#404040">
                        <set attributeName="fill" to="#808080" begin="arrowRight.mouseover" end="arrowRight.mouseout"/>
                  </use>
                  <path fill="none" stroke="white" stroke-width="1.5" d="M0,-3.0v7 M-2.5,-0.5L0,-3.0L2.5,-0.5"/>
                </g>
                <g id="arrowDown" xlink:href="#dirArrow" transform="rotate(180) translate(-30 -48)" onmousedown="handlePan(0,1)">
                  <use xlink:href="#rim" fill="#404040">
                        <set attributeName="fill" to="#808080" begin="arrowDown.mouseover" end="arrowDown.mouseout"/>
                  </use>
                  <path fill="none" stroke="white" stroke-width="1.5" d="M0,-3.0v7 M-2.5,-0.5L0,-3.0L2.5,-0.5"/>
                </g>
                <g id="arrowLeft" xlink:href="#dirArrow" transform="rotate(270) translate(-36 17)" onmousedown="handlePan(-1,0)">
                  <use xlink:href="#rim" fill="#404040">
                        <set attributeName="fill" to="#808080" begin="arrowLeft.mouseover" end="arrowLeft.mouseout"/>
                  </use>
                  <path fill="none" stroke="white" stroke-width="1.5" d="M0,-3.0v7 M-2.5,-0.5L0,-3.0L2.5,-0.5"/>
                </g>
        </g>
        <svg viewBox="0 0 15 15" width="100%" height="30px" preserveAspectRatio="xMaxYMin meet">
         <g id="arrow_out" transform="scale(0.3 0.3)">
          <a xlink:href="CARDMount_8c__incl_org.svg" target="_base">
           <rect id="button" ry="5" rx="5" y="6" x="6" height="38" width="38"
                fill="#f2f5e9" fill-opacity="0.5" stroke="#606060" stroke-width="1.0"/>
           <path id="arrow"
             d="M 11.500037,31.436501 C 11.940474,20.09759 22.043105,11.32322 32.158766,21.979434 L 37.068811,17.246167 C 37.068811,17.246167 37.088388,32 37.088388,32 L 22.160133,31.978069 C 22.160133,31.978069 26.997745,27.140456 26.997745,27.140456 C 18.528582,18.264221 13.291696,25.230495 11.500037,31.436501 z"
             style="fill:#404040;"/>
          </a>
         </g>
        </svg>
</svg>
