<?xml version="1.0" encoding="UTF-8" standalone="no"?>
<!DOCTYPE svg PUBLIC "-//W3C//DTD SVG 1.1//EN"
 "http://www.w3.org/Graphics/SVG/1.1/DTD/svg11.dtd">
<!-- Generated by graphviz version 7.0.5 (20221223.1930)
 -->
<!-- Title: libs/dolphin/card/CARDDir.c Pages: 1 -->
<!--zoomable 390 -->
<svg id="main" version="1.1" xmlns="http://www.w3.org/2000/svg" xmlns:xlink="http://www.w3.org/1999/xlink" xml:space="preserve" onload="init(evt)">
<style type="text/css"><![CDATA[
.edge:hover path { stroke: red; }
.edge:hover polygon { stroke: red; fill: red; }
]]></style>
<script type="text/javascript"><![CDATA[
var edges = document.getElementsByTagName('g');
if (edges && edges.length) {
  for (var i=0;i<edges.length;i++) {
    if (edges[i].id.substr(0,4)=='edge') {
      edges[i].setAttribute('class','edge');
    }
  }
}
]]></script>
        <defs>
                <circle id="rim" cx="0" cy="0" r="7"/>
                <circle id="rim2" cx="0" cy="0" r="3.5"/>
                <g id="zoomPlus">
                        <use xlink:href="#rim" fill="#404040">
                                <set attributeName="fill" to="#808080" begin="zoomplus.mouseover" end="zoomplus.mouseout"/>
                        </use>
                        <path d="M-4,0h8M0,-4v8" fill="none" stroke="white" stroke-width="1.5" pointer-events="none"/>
                </g>
                <g id="zoomMin">
                        <use xlink:href="#rim" fill="#404040">
                                <set attributeName="fill" to="#808080" begin="zoomminus.mouseover" end="zoomminus.mouseout"/>
                        </use>
                        <path d="M-4,0h8" fill="none" stroke="white" stroke-width="1.5" pointer-events="none"/>
                </g>
                <g id="dirArrow">
                        <path fill="none" stroke="white" stroke-width="1.5" d="M0,-3.0v7 M-2.5,-0.5L0,-3.0L2.5,-0.5"/>
                </g>
               <g id="resetDef">
                       <use xlink:href="#rim2" fill="#404040">
                               <set attributeName="fill" to="#808080" begin="reset.mouseover" end="reset.mouseout"/>
                       </use>
               </g>
        </defs>

<script type="text/javascript">
var viewWidth = 2065;
var viewHeight = 390;
var sectionId = 'dynsection-0';
</script>
<script xlink:href="svgpan.js"/>
<svg id="graph" class="graph">
<g id="viewport">
<title>libs/dolphin/card/CARDDir.c</title>
<!-- Node1 -->
<g id="node1" class="node">
<title>Node1</title>
<g id="a_node1"><a xlink:title=" ">
<polygon fill="#999999" stroke="#666666" points="461,-382 324,-382 324,-363 461,-363 461,-382"/>
<text text-anchor="middle" x="392.5" y="-370" font-family="Helvetica,sans-Serif" font-size="10.00">libs/dolphin/card/CARDDir.c</text>
</a>
</g>
</g>
<!-- Node2 -->
<g id="node2" class="node">
<title>Node2</title>
<g id="a_node2"><a xlink:href="CARDDir_8h.html" target="_top" xlink:title=" ">
<polygon fill="white" stroke="#666666" points="119,-255.5 0,-255.5 0,-236.5 119,-236.5 119,-255.5"/>
<text text-anchor="middle" x="59.5" y="-243.5" font-family="Helvetica,sans-Serif" font-size="10.00">dolphin/card/CARDDir.h</text>
</a>
</g>
</g>
<!-- Node1&#45;&gt;Node2 -->
<g id="edge1" class="edge">
<title>Node1&#45;&gt;Node2</title>
<path fill="none" stroke="#63b8ff" d="M335.24,-362.55C296.62,-355.47 244.97,-343.91 201.5,-327 156.6,-309.54 108.62,-279.92 81.51,-262.04"/>
<polygon fill="#63b8ff" stroke="#63b8ff" points="83.71,-259.3 73.45,-256.65 79.82,-265.12 83.71,-259.3"/>
</g>
<!-- Node4 -->
<g id="node4" class="node">
<title>Node4</title>
<g id="a_node4"><a xlink:href="MSL__Common_2Src_2string_8h.html" target="_top" xlink:title=" ">
<polygon fill="white" stroke="#666666" points="273.5,-261 137.5,-261 137.5,-231 273.5,-231 273.5,-261"/>
<text text-anchor="start" x="145.5" y="-249" font-family="Helvetica,sans-Serif" font-size="10.00">MSL_C/MSL_Common/Src</text>
<text text-anchor="middle" x="205.5" y="-238" font-family="Helvetica,sans-Serif" font-size="10.00">/string.h</text>
</a>
</g>
</g>
<!-- Node1&#45;&gt;Node4 -->
<g id="edge3" class="edge">
<title>Node1&#45;&gt;Node4</title>
<path fill="none" stroke="#63b8ff" d="M328.15,-362.53C284.98,-355.16 233.39,-343.28 218.5,-327 205.29,-312.56 202.6,-290.2 202.89,-272.78"/>
<polygon fill="#63b8ff" stroke="#63b8ff" points="206.38,-273.1 203.42,-262.93 199.39,-272.73 206.38,-273.1"/>
</g>
<!-- Node5 -->
<g id="node5" class="node">
<title>Node5</title>
<g id="a_node5"><a xlink:href="dol2asm_8h.html" target="_top" xlink:title=" ">
<polygon fill="white" stroke="#666666" points="289,-321.5 228,-321.5 228,-302.5 289,-302.5 289,-321.5"/>
<text text-anchor="middle" x="258.5" y="-309.5" font-family="Helvetica,sans-Serif" font-size="10.00">dol2asm.h</text>
</a>
</g>
</g>
<!-- Node1&#45;&gt;Node5 -->
<g id="edge5" class="edge">
<title>Node1&#45;&gt;Node5</title>
<path fill="none" stroke="#63b8ff" d="M372.15,-362.62C350.11,-352.99 314.71,-337.54 289.27,-326.43"/>
<polygon fill="#63b8ff" stroke="#63b8ff" points="291,-323.37 280.43,-322.57 288.19,-329.78 291,-323.37"/>
</g>
<!-- Node6 -->
<g id="node6" class="node">
<title>Node6</title>
<g id="a_node6"><a xlink:href="card_8h.html" target="_top" xlink:title=" ">
<polygon fill="white" stroke="#666666" points="287.5,-79.5 189.5,-79.5 189.5,-60.5 287.5,-60.5 287.5,-79.5"/>
<text text-anchor="middle" x="238.5" y="-67.5" font-family="Helvetica,sans-Serif" font-size="10.00">dolphin/card/card.h</text>
</a>
</g>
</g>
<!-- Node1&#45;&gt;Node6 -->
<g id="edge6" class="edge">
<title>Node1&#45;&gt;Node6</title>
<path fill="none" stroke="#63b8ff" d="M384.93,-362.57C364.18,-337.67 305.83,-264.74 273.5,-195 257.31,-160.09 247.08,-116.11 242.1,-91.01"/>
<polygon fill="#63b8ff" stroke="#63b8ff" points="245.55,-90.42 240.26,-81.24 238.67,-91.72 245.55,-90.42"/>
</g>
<!-- Node7 -->
<g id="node7" class="node">
<title>Node7</title>
<g id="a_node7"><a xlink:href="dsp_8h.html" target="_top" xlink:title=" ">
<polygon fill="white" stroke="#666666" points="779.5,-321.5 687.5,-321.5 687.5,-302.5 779.5,-302.5 779.5,-321.5"/>
<text text-anchor="middle" x="733.5" y="-309.5" font-family="Helvetica,sans-Serif" font-size="10.00">dolphin/dsp/dsp.h</text>
</a>
</g>
</g>
<!-- Node1&#45;&gt;Node7 -->
<g id="edge8" class="edge">
<title>Node1&#45;&gt;Node7</title>
<path fill="none" stroke="#63b8ff" d="M444.66,-362.55C507.05,-351.85 611.17,-333.99 675.88,-322.88"/>
<polygon fill="#63b8ff" stroke="#63b8ff" points="676.34,-326.36 685.6,-321.22 675.16,-319.46 676.34,-326.36"/>
</g>
<!-- Node10 -->
<g id="node10" class="node">
<title>Node10</title>
<g id="a_node10"><a xlink:href="dvd_8h.html" target="_top" xlink:title=" ">
<polygon fill="white" stroke="#666666" points="374.5,-195 282.5,-195 282.5,-176 374.5,-176 374.5,-195"/>
<text text-anchor="middle" x="328.5" y="-183" font-family="Helvetica,sans-Serif" font-size="10.00">dolphin/dvd/dvd.h</text>
</a>
</g>
</g>
<!-- Node1&#45;&gt;Node10 -->
<g id="edge58" class="edge">
<title>Node1&#45;&gt;Node10</title>
<path fill="none" stroke="#63b8ff" d="M389.41,-362.58C379.61,-334.25 349.05,-245.89 335.31,-206.18"/>
<polygon fill="#63b8ff" stroke="#63b8ff" points="338.63,-205.07 332.05,-196.76 332.01,-207.36 338.63,-205.07"/>
</g>
<!-- Node32 -->
<g id="node32" class="node">
<title>Node32</title>
<g id="a_node32"><a xlink:href="CARDPriv_8h.html" target="_top" xlink:title=" ">
<polygon fill="white" stroke="#666666" points="2033.5,-79.5 1909.5,-79.5 1909.5,-60.5 2033.5,-60.5 2033.5,-79.5"/>
<text text-anchor="middle" x="1971.5" y="-67.5" font-family="Helvetica,sans-Serif" font-size="10.00">dolphin/card/CARDPriv.h</text>
</a>
</g>
</g>
<!-- Node1&#45;&gt;Node32 -->
<g id="edge59" class="edge">
<title>Node1&#45;&gt;Node32</title>
<path fill="none" stroke="#63b8ff" d="M461.29,-364.71C540.37,-356.69 674,-342.46 788.5,-327 873.22,-315.56 893.69,-307.75 978.5,-297 1096.21,-282.07 1960.12,-281.35 2041.5,-195 2064.06,-171.06 2058.75,-150.15 2043.5,-121 2035.13,-105 2019.06,-93.1 2004.22,-84.92"/>
<polygon fill="#63b8ff" stroke="#63b8ff" points="2006.1,-81.95 1995.6,-80.54 2002.93,-88.19 2006.1,-81.95"/>
</g>
<!-- Node33 -->
<g id="node33" class="node">
<title>Node33</title>
<g id="a_node33"><a xlink:title=" ">
<polygon fill="#e0e0e0" stroke="#999999" points="1121,-327 988,-327 988,-297 1121,-297 1121,-327"/>
<text text-anchor="start" x="996" y="-315" font-family="Helvetica,sans-Serif" font-size="10.00">asm/dolphin/card/CARDDir</text>
<text text-anchor="middle" x="1054.5" y="-304" font-family="Helvetica,sans-Serif" font-size="10.00">/WriteCallback.s</text>
</a>
</g>
</g>
<!-- Node1&#45;&gt;Node33 -->
<g id="edge61" class="edge">
<title>Node1&#45;&gt;Node33</title>
<path fill="none" stroke="#63b8ff" d="M461.13,-368.35C570.05,-362.88 789.03,-349.95 973.5,-327 974.52,-326.87 975.55,-326.74 976.59,-326.61"/>
<polygon fill="#63b8ff" stroke="#63b8ff" points="976.91,-330.1 986.33,-325.25 975.94,-323.16 976.91,-330.1"/>
</g>
<!-- Node34 -->
<g id="node34" class="node">
<title>Node34</title>
<g id="a_node34"><a xlink:title=" ">
<polygon fill="#e0e0e0" stroke="#999999" points="1272,-327 1139,-327 1139,-297 1272,-297 1272,-327"/>
<text text-anchor="start" x="1147" y="-315" font-family="Helvetica,sans-Serif" font-size="10.00">asm/dolphin/card/CARDDir</text>
<text text-anchor="middle" x="1205.5" y="-304" font-family="Helvetica,sans-Serif" font-size="10.00">/EraseCallback.s</text>
</a>
</g>
</g>
<!-- Node1&#45;&gt;Node34 -->
<g id="edge62" class="edge">
<title>Node1&#45;&gt;Node34</title>
<path fill="none" stroke="#63b8ff" d="M461.44,-370.2C590.39,-367.15 877.02,-357.42 1127.37,-327.29"/>
<polygon fill="#63b8ff" stroke="#63b8ff" points="1127.5,-330.8 1137,-326.12 1126.65,-323.85 1127.5,-330.8"/>
</g>
<!-- Node35 -->
<g id="node35" class="node">
<title>Node35</title>
<g id="a_node35"><a xlink:title=" ">
<polygon fill="#e0e0e0" stroke="#999999" points="1423,-327 1290,-327 1290,-297 1423,-297 1423,-327"/>
<text text-anchor="start" x="1298" y="-315" font-family="Helvetica,sans-Serif" font-size="10.00">asm/dolphin/card/CARDDir</text>
<text text-anchor="middle" x="1356.5" y="-304" font-family="Helvetica,sans-Serif" font-size="10.00">/__CARDUpdateDir.s</text>
</a>
</g>
</g>
<!-- Node1&#45;&gt;Node35 -->
<g id="edge63" class="edge">
<title>Node1&#45;&gt;Node35</title>
<path fill="none" stroke="#63b8ff" d="M461.36,-371.2C609.32,-369.88 968.69,-363.01 1278.51,-327.25"/>
<polygon fill="#63b8ff" stroke="#63b8ff" points="1278.48,-330.78 1288.01,-326.14 1277.67,-323.83 1278.48,-330.78"/>
</g>
<!-- Node3 -->
<g id="node3" class="node">
<title>Node3</title>
<g id="a_node3"><a xlink:href="types_8h.html" target="_top" xlink:title=" ">
<polygon fill="white" stroke="#666666" points="903,-19 822,-19 822,0 903,0 903,-19"/>
<text text-anchor="middle" x="862.5" y="-7" font-family="Helvetica,sans-Serif" font-size="10.00">dolphin/types.h</text>
</a>
</g>
</g>
<!-- Node2&#45;&gt;Node3 -->
<g id="edge2" class="edge">
<title>Node2&#45;&gt;Node3</title>
<path fill="none" stroke="#63b8ff" d="M61.07,-236.17C67.17,-204.9 92.37,-98.93 160.5,-55 214.7,-20.05 657.46,-12.48 810.61,-10.9"/>
<polygon fill="#63b8ff" stroke="#63b8ff" points="810.5,-14.4 820.46,-10.8 810.43,-7.4 810.5,-14.4"/>
</g>
<!-- Node4&#45;&gt;Node3 -->
<g id="edge4" class="edge">
<title>Node4&#45;&gt;Node3</title>
<path fill="none" stroke="#63b8ff" d="M196.94,-230.54C177.31,-195.33 134.21,-104.41 180.5,-55 223.29,-9.32 658.86,-8.71 810.66,-9.91"/>
<polygon fill="#63b8ff" stroke="#63b8ff" points="810.39,-13.41 820.42,-9.99 810.45,-6.41 810.39,-13.41"/>
</g>
<!-- Node6&#45;&gt;Node3 -->
<g id="edge7" class="edge">
<title>Node6&#45;&gt;Node3</title>
<path fill="none" stroke="#63b8ff" d="M274.65,-60.06C283.4,-58.15 292.75,-56.31 301.5,-55 487.61,-27.08 711.27,-15.98 810.6,-12.2"/>
<polygon fill="#63b8ff" stroke="#63b8ff" points="810.42,-15.71 820.29,-11.84 810.16,-8.71 810.42,-15.71"/>
</g>
<!-- Node8 -->
<g id="node8" class="node">
<title>Node8</title>
<g id="a_node8"><a xlink:href="OS_8h.html" target="_top" xlink:title=" ">
<polygon fill="white" stroke="#666666" points="1145.5,-255.5 1059.5,-255.5 1059.5,-236.5 1145.5,-236.5 1145.5,-255.5"/>
<text text-anchor="middle" x="1102.5" y="-243.5" font-family="Helvetica,sans-Serif" font-size="10.00">dolphin/os/OS.h</text>
</a>
</g>
</g>
<!-- Node7&#45;&gt;Node8 -->
<g id="edge9" class="edge">
<title>Node7&#45;&gt;Node8</title>
<path fill="none" stroke="#63b8ff" d="M779.86,-302.96C848.12,-291.12 975.4,-269.04 1048.02,-256.45"/>
<polygon fill="#63b8ff" stroke="#63b8ff" points="1048.45,-259.93 1057.7,-254.77 1047.25,-253.03 1048.45,-259.93"/>
</g>
<!-- Node9 -->
<g id="node9" class="node">
<title>Node9</title>
<g id="a_node9"><a xlink:href="____va__arg_8h.html" target="_top" xlink:title=" ">
<polygon fill="white" stroke="#666666" points="1347.5,-85 1237.5,-85 1237.5,-55 1347.5,-55 1347.5,-85"/>
<text text-anchor="start" x="1245.5" y="-73" font-family="Helvetica,sans-Serif" font-size="10.00">Runtime.PPCEABI.H/</text>
<text text-anchor="middle" x="1292.5" y="-62" font-family="Helvetica,sans-Serif" font-size="10.00">__va_arg.h</text>
</a>
</g>
</g>
<!-- Node8&#45;&gt;Node9 -->
<g id="edge10" class="edge">
<title>Node8&#45;&gt;Node9</title>
<path fill="none" stroke="#63b8ff" d="M1145.76,-239.8C1196.39,-232.71 1275.59,-218.2 1293.5,-195 1315.16,-166.94 1308.55,-123.69 1301.07,-96.39"/>
<polygon fill="#63b8ff" stroke="#63b8ff" points="1304.44,-95.44 1298.21,-86.87 1297.73,-97.45 1304.44,-95.44"/>
</g>
<!-- Node8&#45;&gt;Node10 -->
<g id="edge12" class="edge">
<title>Node8&#45;&gt;Node10</title>
<path fill="none" stroke="#63b8ff" d="M1059.35,-243.05C948.03,-237.77 642.13,-221.81 388.5,-195 387.68,-194.91 386.85,-194.82 386.01,-194.73"/>
<polygon fill="#63b8ff" stroke="#63b8ff" points="386.82,-191.3 376.48,-193.59 385.99,-198.25 386.82,-191.3"/>
</g>
<!-- Node11 -->
<g id="node11" class="node">
<title>Node11</title>
<g id="a_node11"><a xlink:href="OSAlarm_8h.html" target="_top" xlink:title=" ">
<polygon fill="white" stroke="#666666" points="2016,-195 1905,-195 1905,-176 2016,-176 2016,-195"/>
<text text-anchor="middle" x="1960.5" y="-183" font-family="Helvetica,sans-Serif" font-size="10.00">dolphin/os/OSAlarm.h</text>
</a>
</g>
</g>
<!-- Node8&#45;&gt;Node11 -->
<g id="edge14" class="edge">
<title>Node8&#45;&gt;Node11</title>
<path fill="none" stroke="#63b8ff" d="M1145.7,-243.13C1264.65,-237.8 1606.92,-221.19 1890.5,-195 1891.51,-194.91 1892.53,-194.81 1893.56,-194.71"/>
<polygon fill="#63b8ff" stroke="#63b8ff" points="1893.65,-198.22 1903.24,-193.72 1892.94,-191.26 1893.65,-198.22"/>
</g>
<!-- Node12 -->
<g id="node12" class="node">
<title>Node12</title>
<g id="a_node12"><a xlink:href="OSTime_8h.html" target="_top" xlink:title=" ">
<polygon fill="white" stroke="#666666" points="2034,-140 1927,-140 1927,-121 2034,-121 2034,-140"/>
<text text-anchor="middle" x="1980.5" y="-128" font-family="Helvetica,sans-Serif" font-size="10.00">dolphin/os/OSTime.h</text>
</a>
</g>
</g>
<!-- Node8&#45;&gt;Node12 -->
<g id="edge57" class="edge">
<title>Node8&#45;&gt;Node12</title>
<path fill="none" stroke="#63b8ff" d="M1145.7,-244.29C1324.01,-241.17 1994.89,-227.31 2025.5,-195 2039.74,-179.96 2020.8,-160.17 2003.3,-146.7"/>
<polygon fill="#63b8ff" stroke="#63b8ff" points="2005.84,-144.22 1995.69,-141.19 2001.73,-149.89 2005.84,-144.22"/>
</g>
<!-- Node13 -->
<g id="node13" class="node">
<title>Node13</title>
<g id="a_node13"><a xlink:href="OSError_8h.html" target="_top" xlink:title=" ">
<polygon fill="white" stroke="#666666" points="1908.5,-140 1802.5,-140 1802.5,-121 1908.5,-121 1908.5,-140"/>
<text text-anchor="middle" x="1855.5" y="-128" font-family="Helvetica,sans-Serif" font-size="10.00">dolphin/os/OSError.h</text>
</a>
</g>
</g>
<!-- Node8&#45;&gt;Node13 -->
<g id="edge29" class="edge">
<title>Node8&#45;&gt;Node13</title>
<path fill="none" stroke="#63b8ff" d="M1145.93,-244.88C1295.43,-244.07 1782.52,-238.12 1836.5,-195 1849.43,-184.67 1853.83,-165.9 1855.2,-151.43"/>
<polygon fill="#63b8ff" stroke="#63b8ff" points="1858.69,-151.82 1855.69,-141.66 1851.7,-151.47 1858.69,-151.82"/>
</g>
<!-- Node14 -->
<g id="node14" class="node">
<title>Node14</title>
<g id="a_node14"><a xlink:href="OSContext_8h.html" target="_top" xlink:title=" ">
<polygon fill="white" stroke="#666666" points="1613,-79.5 1494,-79.5 1494,-60.5 1613,-60.5 1613,-79.5"/>
<text text-anchor="middle" x="1553.5" y="-67.5" font-family="Helvetica,sans-Serif" font-size="10.00">dolphin/os/OSContext.h</text>
</a>
</g>
</g>
<!-- Node8&#45;&gt;Node14 -->
<g id="edge28" class="edge">
<title>Node8&#45;&gt;Node14</title>
<path fill="none" stroke="#63b8ff" d="M1145.98,-243.19C1233.68,-238.91 1428.34,-226.13 1486.5,-195 1515.11,-179.69 1519.14,-168.58 1534.5,-140 1542.78,-124.59 1547.7,-105.27 1550.45,-90.99"/>
<polygon fill="#63b8ff" stroke="#63b8ff" points="1553.84,-91.91 1552.08,-81.46 1546.94,-90.73 1553.84,-91.91"/>
</g>
<!-- Node15 -->
<g id="node15" class="node">
<title>Node15</title>
<g id="a_node15"><a xlink:href="OSAlloc_8h.html" target="_top" xlink:title=" ">
<polygon fill="white" stroke="#666666" points="412,-140 305,-140 305,-121 412,-121 412,-140"/>
<text text-anchor="middle" x="358.5" y="-128" font-family="Helvetica,sans-Serif" font-size="10.00">dolphin/os/OSAlloc.h</text>
</a>
</g>
</g>
<!-- Node8&#45;&gt;Node15 -->
<g id="edge20" class="edge">
<title>Node8&#45;&gt;Node15</title>
<path fill="none" stroke="#63b8ff" d="M1059.12,-245.51C928.46,-246.48 540.64,-244.95 426.5,-195 403.92,-185.12 384.1,-164.46 371.77,-149.38"/>
<polygon fill="#63b8ff" stroke="#63b8ff" points="374.64,-147.37 365.73,-141.64 369.12,-151.67 374.64,-147.37"/>
</g>
<!-- Node16 -->
<g id="node16" class="node">
<title>Node16</title>
<g id="a_node16"><a xlink:href="OSArena_8h.html" target="_top" xlink:title=" ">
<polygon fill="white" stroke="#666666" points="501,-79.5 390,-79.5 390,-60.5 501,-60.5 501,-79.5"/>
<text text-anchor="middle" x="445.5" y="-67.5" font-family="Helvetica,sans-Serif" font-size="10.00">dolphin/os/OSArena.h</text>
</a>
</g>
</g>
<!-- Node8&#45;&gt;Node16 -->
<g id="edge22" class="edge">
<title>Node8&#45;&gt;Node16</title>
<path fill="none" stroke="#63b8ff" d="M1059.18,-245.16C969.9,-244.55 759.49,-238.17 589.5,-195 528.69,-179.56 499.21,-188.57 459.5,-140 448.26,-126.25 445.27,-105.88 444.78,-90.83"/>
<polygon fill="#63b8ff" stroke="#63b8ff" points="448.28,-91.24 444.83,-81.22 441.28,-91.2 448.28,-91.24"/>
</g>
<!-- Node17 -->
<g id="node17" class="node">
<title>Node17</title>
<g id="a_node17"><a xlink:href="OSAudioSystem_8h.html" target="_top" xlink:title=" ">
<polygon fill="white" stroke="#666666" points="612,-140 469,-140 469,-121 612,-121 612,-140"/>
<text text-anchor="middle" x="540.5" y="-128" font-family="Helvetica,sans-Serif" font-size="10.00">dolphin/os/OSAudioSystem.h</text>
</a>
</g>
</g>
<!-- Node8&#45;&gt;Node17 -->
<g id="edge24" class="edge">
<title>Node8&#45;&gt;Node17</title>
<path fill="none" stroke="#63b8ff" d="M1059.1,-243.35C957.12,-239.01 704.93,-225.45 626.5,-195 599.35,-184.46 573.17,-162.98 556.97,-147.93"/>
<polygon fill="#63b8ff" stroke="#63b8ff" points="559.79,-145.79 550.15,-141.39 554.94,-150.84 559.79,-145.79"/>
</g>
<!-- Node18 -->
<g id="node18" class="node">
<title>Node18</title>
<g id="a_node18"><a xlink:href="OSCache_8h.html" target="_top" xlink:title=" ">
<polygon fill="white" stroke="#666666" points="672,-79.5 559,-79.5 559,-60.5 672,-60.5 672,-79.5"/>
<text text-anchor="middle" x="615.5" y="-67.5" font-family="Helvetica,sans-Serif" font-size="10.00">dolphin/os/OSCache.h</text>
</a>
</g>
</g>
<!-- Node8&#45;&gt;Node18 -->
<g id="edge26" class="edge">
<title>Node8&#45;&gt;Node18</title>
<path fill="none" stroke="#63b8ff" d="M1059.25,-242.13C973.98,-235.99 787.33,-220.08 728.5,-195 692.42,-179.62 685.73,-169.15 659.5,-140 645.57,-124.51 633.16,-104.13 625.1,-89.54"/>
<polygon fill="#63b8ff" stroke="#63b8ff" points="628.35,-88.2 620.55,-81.03 622.18,-91.5 628.35,-88.2"/>
</g>
<!-- Node19 -->
<g id="node19" class="node">
<title>Node19</title>
<g id="a_node19"><a xlink:href="OSExec_8h.html" target="_top" xlink:title=" ">
<polygon fill="white" stroke="#666666" points="776,-140 669,-140 669,-121 776,-121 776,-140"/>
<text text-anchor="middle" x="722.5" y="-128" font-family="Helvetica,sans-Serif" font-size="10.00">dolphin/os/OSExec.h</text>
</a>
</g>
</g>
<!-- Node8&#45;&gt;Node19 -->
<g id="edge30" class="edge">
<title>Node8&#45;&gt;Node19</title>
<path fill="none" stroke="#63b8ff" d="M1059.1,-244.37C974.76,-242.3 792.84,-233.38 745.5,-195 732.4,-184.38 726.76,-165.64 724.33,-151.26"/>
<polygon fill="#63b8ff" stroke="#63b8ff" points="727.83,-151.05 723.11,-141.57 720.89,-151.93 727.83,-151.05"/>
</g>
<!-- Node20 -->
<g id="node20" class="node">
<title>Node20</title>
<g id="a_node20"><a xlink:href="OSFont_8h.html" target="_top" xlink:title=" ">
<polygon fill="white" stroke="#666666" points="834,-79.5 729,-79.5 729,-60.5 834,-60.5 834,-79.5"/>
<text text-anchor="middle" x="781.5" y="-67.5" font-family="Helvetica,sans-Serif" font-size="10.00">dolphin/os/OSFont.h</text>
</a>
</g>
</g>
<!-- Node8&#45;&gt;Node20 -->
<g id="edge32" class="edge">
<title>Node8&#45;&gt;Node20</title>
<path fill="none" stroke="#63b8ff" d="M1059.04,-243.13C987.31,-239.14 848.6,-227.36 813.5,-195 798.34,-181.03 788.35,-122.23 784,-90.88"/>
<polygon fill="#63b8ff" stroke="#63b8ff" points="787.5,-90.63 782.72,-81.17 780.56,-91.55 787.5,-90.63"/>
</g>
<!-- Node21 -->
<g id="node21" class="node">
<title>Node21</title>
<g id="a_node21"><a xlink:href="OSInterrupt_8h.html" target="_top" xlink:title=" ">
<polygon fill="white" stroke="#666666" points="1525.5,-140 1403.5,-140 1403.5,-121 1525.5,-121 1525.5,-140"/>
<text text-anchor="middle" x="1464.5" y="-128" font-family="Helvetica,sans-Serif" font-size="10.00">dolphin/os/OSInterrupt.h</text>
</a>
</g>
</g>
<!-- Node8&#45;&gt;Node21 -->
<g id="edge34" class="edge">
<title>Node8&#45;&gt;Node21</title>
<path fill="none" stroke="#63b8ff" d="M1145.69,-245.86C1233.46,-246.59 1427.9,-242.65 1469.5,-195 1479.95,-183.02 1477.09,-164.48 1472.57,-150.51"/>
<polygon fill="#63b8ff" stroke="#63b8ff" points="1475.98,-149.64 1469.17,-141.52 1469.43,-152.11 1475.98,-149.64"/>
</g>
<!-- Node22 -->
<g id="node22" class="node">
<title>Node22</title>
<g id="a_node22"><a xlink:href="OSLink_8h.html" target="_top" xlink:title=" ">
<polygon fill="white" stroke="#666666" points="936.5,-140 832.5,-140 832.5,-121 936.5,-121 936.5,-140"/>
<text text-anchor="middle" x="884.5" y="-128" font-family="Helvetica,sans-Serif" font-size="10.00">dolphin/os/OSLink.h</text>
</a>
</g>
</g>
<!-- Node8&#45;&gt;Node22 -->
<g id="edge36" class="edge">
<title>Node8&#45;&gt;Node22</title>
<path fill="none" stroke="#63b8ff" d="M1059.03,-243.81C987.84,-240.85 851.29,-230.56 821.5,-195 806.45,-177.04 831.03,-158.19 853.75,-145.74"/>
<polygon fill="#63b8ff" stroke="#63b8ff" points="855.28,-148.89 862.56,-141.19 852.07,-142.67 855.28,-148.89"/>
</g>
<!-- Node23 -->
<g id="node23" class="node">
<title>Node23</title>
<g id="a_node23"><a xlink:href="OSMemory_8h.html" target="_top" xlink:title=" ">
<polygon fill="white" stroke="#666666" points="1460.5,-195 1340.5,-195 1340.5,-176 1460.5,-176 1460.5,-195"/>
<text text-anchor="middle" x="1400.5" y="-183" font-family="Helvetica,sans-Serif" font-size="10.00">dolphin/os/OSMemory.h</text>
</a>
</g>
</g>
<!-- Node8&#45;&gt;Node23 -->
<g id="edge38" class="edge">
<title>Node8&#45;&gt;Node23</title>
<path fill="none" stroke="#63b8ff" d="M1145.83,-236.49C1198.04,-226.24 1285.92,-208.99 1343.56,-197.68"/>
<polygon fill="#63b8ff" stroke="#63b8ff" points="1344.04,-201.15 1353.18,-195.79 1342.7,-194.28 1344.04,-201.15"/>
</g>
<!-- Node24 -->
<g id="node24" class="node">
<title>Node24</title>
<g id="a_node24"><a xlink:href="OSMessage_8h.html" target="_top" xlink:title=" ">
<polygon fill="white" stroke="#666666" points="1810,-195 1685,-195 1685,-176 1810,-176 1810,-195"/>
<text text-anchor="middle" x="1747.5" y="-183" font-family="Helvetica,sans-Serif" font-size="10.00">dolphin/os/OSMessage.h</text>
</a>
</g>
</g>
<!-- Node8&#45;&gt;Node24 -->
<g id="edge41" class="edge">
<title>Node8&#45;&gt;Node24</title>
<path fill="none" stroke="#63b8ff" d="M1145.67,-241.68C1239.5,-234.38 1469.32,-215.97 1673.44,-195.18"/>
<polygon fill="#63b8ff" stroke="#63b8ff" points="1673.59,-198.68 1683.18,-194.18 1672.87,-191.72 1673.59,-198.68"/>
</g>
<!-- Node25 -->
<g id="node25" class="node">
<title>Node25</title>
<g id="a_node25"><a xlink:href="OSThread_8h.html" target="_top" xlink:title=" ">
<polygon fill="white" stroke="#666666" points="1761.5,-140 1645.5,-140 1645.5,-121 1761.5,-121 1761.5,-140"/>
<text text-anchor="middle" x="1703.5" y="-128" font-family="Helvetica,sans-Serif" font-size="10.00">dolphin/os/OSThread.h</text>
</a>
</g>
</g>
<!-- Node8&#45;&gt;Node25 -->
<g id="edge56" class="edge">
<title>Node8&#45;&gt;Node25</title>
<path fill="none" stroke="#63b8ff" d="M1145.74,-243.6C1297.29,-238.47 1796.41,-219.75 1819.5,-195 1842.26,-170.6 1801.79,-153.44 1762.55,-143.16"/>
<polygon fill="#63b8ff" stroke="#63b8ff" points="1763.58,-139.81 1753.03,-140.81 1761.9,-146.61 1763.58,-139.81"/>
</g>
<!-- Node26 -->
<g id="node26" class="node">
<title>Node26</title>
<g id="a_node26"><a xlink:href="OSMutex_8h.html" target="_top" xlink:title=" ">
<polygon fill="white" stroke="#666666" points="1666.5,-195 1554.5,-195 1554.5,-176 1666.5,-176 1666.5,-195"/>
<text text-anchor="middle" x="1610.5" y="-183" font-family="Helvetica,sans-Serif" font-size="10.00">dolphin/os/OSMutex.h</text>
</a>
</g>
</g>
<!-- Node8&#45;&gt;Node26 -->
<g id="edge44" class="edge">
<title>Node8&#45;&gt;Node26</title>
<path fill="none" stroke="#63b8ff" d="M1145.72,-240.17C1224.31,-231.36 1395.89,-212.03 1540.5,-195 1541.34,-194.9 1542.19,-194.8 1543.05,-194.7"/>
<polygon fill="#63b8ff" stroke="#63b8ff" points="1543.32,-198.19 1552.84,-193.53 1542.49,-191.24 1543.32,-198.19"/>
</g>
<!-- Node27 -->
<g id="node27" class="node">
<title>Node27</title>
<g id="a_node27"><a xlink:href="OSReboot_8h.html" target="_top" xlink:title=" ">
<polygon fill="white" stroke="#666666" points="1006.5,-79.5 890.5,-79.5 890.5,-60.5 1006.5,-60.5 1006.5,-79.5"/>
<text text-anchor="middle" x="948.5" y="-67.5" font-family="Helvetica,sans-Serif" font-size="10.00">dolphin/os/OSReboot.h</text>
</a>
</g>
</g>
<!-- Node8&#45;&gt;Node27 -->
<g id="edge46" class="edge">
<title>Node8&#45;&gt;Node27</title>
<path fill="none" stroke="#63b8ff" d="M1059.19,-242.67C995.11,-238.22 879.89,-226.01 854.5,-195 849.15,-188.47 849.75,-182.98 854.5,-176 878.95,-140.03 920.27,-175.43 945.5,-140 955.61,-125.81 955.21,-105.49 952.97,-90.58"/>
<polygon fill="#63b8ff" stroke="#63b8ff" points="956.47,-90.22 951.14,-81.07 949.59,-91.55 956.47,-90.22"/>
</g>
<!-- Node28 -->
<g id="node28" class="node">
<title>Node28</title>
<g id="a_node28"><a xlink:href="OSReset_8h.html" target="_top" xlink:title=" ">
<polygon fill="white" stroke="#666666" points="975,-195 864,-195 864,-176 975,-176 975,-195"/>
<text text-anchor="middle" x="919.5" y="-183" font-family="Helvetica,sans-Serif" font-size="10.00">dolphin/os/OSReset.h</text>
</a>
</g>
</g>
<!-- Node8&#45;&gt;Node28 -->
<g id="edge48" class="edge">
<title>Node8&#45;&gt;Node28</title>
<path fill="none" stroke="#63b8ff" d="M1074.71,-236.12C1043.67,-226.19 993.22,-210.07 958.3,-198.9"/>
<polygon fill="#63b8ff" stroke="#63b8ff" points="959.59,-195.64 949,-195.93 957.46,-202.31 959.59,-195.64"/>
</g>
<!-- Node29 -->
<g id="node29" class="node">
<title>Node29</title>
<g id="a_node29"><a xlink:href="OSResetSW_8h.html" target="_top" xlink:title=" ">
<polygon fill="white" stroke="#666666" points="1120,-195 993,-195 993,-176 1120,-176 1120,-195"/>
<text text-anchor="middle" x="1056.5" y="-183" font-family="Helvetica,sans-Serif" font-size="10.00">dolphin/os/OSResetSW.h</text>
</a>
</g>
</g>
<!-- Node8&#45;&gt;Node29 -->
<g id="edge50" class="edge">
<title>Node8&#45;&gt;Node29</title>
<path fill="none" stroke="#63b8ff" d="M1095.71,-236.37C1089.05,-227.9 1078.71,-214.74 1070.31,-204.07"/>
<polygon fill="#63b8ff" stroke="#63b8ff" points="1073.18,-202.05 1064.25,-196.36 1067.68,-206.38 1073.18,-202.05"/>
</g>
<!-- Node30 -->
<g id="node30" class="node">
<title>Node30</title>
<g id="a_node30"><a xlink:href="OSRtc_8h.html" target="_top" xlink:title=" ">
<polygon fill="white" stroke="#666666" points="1202,-140 1101,-140 1101,-121 1202,-121 1202,-140"/>
<text text-anchor="middle" x="1151.5" y="-128" font-family="Helvetica,sans-Serif" font-size="10.00">dolphin/os/OSRtc.h</text>
</a>
</g>
</g>
<!-- Node8&#45;&gt;Node30 -->
<g id="edge52" class="edge">
<title>Node8&#45;&gt;Node30</title>
<path fill="none" stroke="#63b8ff" d="M1107.93,-236.01C1113.74,-226.16 1122.99,-209.81 1129.5,-195 1135.84,-180.59 1141.6,-163.74 1145.64,-151.02"/>
<polygon fill="#63b8ff" stroke="#63b8ff" points="1148.9,-152.33 1148.5,-141.74 1142.21,-150.27 1148.9,-152.33"/>
</g>
<!-- Node31 -->
<g id="node31" class="node">
<title>Node31</title>
<g id="a_node31"><a xlink:href="OSSync_8h.html" target="_top" xlink:title=" ">
<polygon fill="white" stroke="#666666" points="1284,-195 1177,-195 1177,-176 1284,-176 1284,-195"/>
<text text-anchor="middle" x="1230.5" y="-183" font-family="Helvetica,sans-Serif" font-size="10.00">dolphin/os/OSSync.h</text>
</a>
</g>
</g>
<!-- Node8&#45;&gt;Node31 -->
<g id="edge54" class="edge">
<title>Node8&#45;&gt;Node31</title>
<path fill="none" stroke="#63b8ff" d="M1121.94,-236.12C1142.8,-226.58 1176.21,-211.31 1200.46,-200.23"/>
<polygon fill="#63b8ff" stroke="#63b8ff" points="1201.86,-203.44 1209.5,-196.1 1198.95,-197.07 1201.86,-203.44"/>
</g>
<!-- Node9&#45;&gt;Node3 -->
<g id="edge11" class="edge">
<title>Node9&#45;&gt;Node3</title>
<path fill="none" stroke="#63b8ff" d="M1237.21,-57.39C1232.58,-56.54 1227.96,-55.73 1223.5,-55 1113.98,-37.17 984.73,-22.85 914.43,-15.62"/>
<polygon fill="#63b8ff" stroke="#63b8ff" points="915.06,-12.17 904.76,-14.64 914.35,-19.13 915.06,-12.17"/>
</g>
<!-- Node10&#45;&gt;Node3 -->
<g id="edge13" class="edge">
<title>Node10&#45;&gt;Node3</title>
<path fill="none" stroke="#63b8ff" d="M318.44,-175.71C305.96,-163.68 287.29,-141.27 295.5,-121 310.85,-83.13 322.61,-72.57 359.5,-55 438.24,-17.5 698.41,-11.41 810.44,-10.56"/>
<polygon fill="#63b8ff" stroke="#63b8ff" points="810.27,-14.06 820.25,-10.5 810.23,-7.06 810.27,-14.06"/>
</g>
<!-- Node11&#45;&gt;Node12 -->
<g id="edge15" class="edge">
<title>Node11&#45;&gt;Node12</title>
<path fill="none" stroke="#63b8ff" d="M1963.8,-175.75C1966.33,-169.04 1969.93,-159.52 1973.13,-151.02"/>
<polygon fill="#63b8ff" stroke="#63b8ff" points="1976.34,-152.45 1976.59,-141.86 1969.79,-149.98 1976.34,-152.45"/>
</g>
<!-- Node11&#45;&gt;Node13 -->
<g id="edge17" class="edge">
<title>Node11&#45;&gt;Node13</title>
<path fill="none" stroke="#63b8ff" d="M1942.69,-175.51C1926.37,-167.27 1901.97,-154.96 1883.13,-145.45"/>
<polygon fill="#63b8ff" stroke="#63b8ff" points="1884.9,-142.42 1874.4,-141.04 1881.75,-148.67 1884.9,-142.42"/>
</g>
<!-- Node12&#45;&gt;Node3 -->
<g id="edge16" class="edge">
<title>Node12&#45;&gt;Node3</title>
<path fill="none" stroke="#63b8ff" d="M1946.23,-120.61C1882.82,-104.56 1742.7,-70.94 1622.5,-55 1358.17,-19.95 1038.47,-12.51 914.83,-10.93"/>
<polygon fill="#63b8ff" stroke="#63b8ff" points="915.04,-7.43 904.99,-10.81 914.95,-14.43 915.04,-7.43"/>
</g>
<!-- Node13&#45;&gt;Node14 -->
<g id="edge18" class="edge">
<title>Node13&#45;&gt;Node14</title>
<path fill="none" stroke="#63b8ff" d="M1809.3,-120.55C1756.02,-110.23 1668.37,-93.25 1610.79,-82.1"/>
<polygon fill="#63b8ff" stroke="#63b8ff" points="1611.66,-78.7 1601.18,-80.24 1610.33,-85.57 1611.66,-78.7"/>
</g>
<!-- Node14&#45;&gt;Node3 -->
<g id="edge19" class="edge">
<title>Node14&#45;&gt;Node3</title>
<path fill="none" stroke="#63b8ff" d="M1493.52,-63.87C1462.48,-61.21 1423.95,-57.93 1389.5,-55 1215.38,-40.22 1008.9,-22.82 914.4,-14.87"/>
<polygon fill="#63b8ff" stroke="#63b8ff" points="914.93,-11.4 904.67,-14.05 914.34,-18.37 914.93,-11.4"/>
</g>
<!-- Node15&#45;&gt;Node3 -->
<g id="edge21" class="edge">
<title>Node15&#45;&gt;Node3</title>
<path fill="none" stroke="#63b8ff" d="M358.19,-120.69C358.15,-104.78 360.6,-71.35 380.5,-55 413.17,-28.15 692.48,-16.01 810.36,-12.05"/>
<polygon fill="#63b8ff" stroke="#63b8ff" points="810.19,-15.56 820.07,-11.73 809.96,-8.56 810.19,-15.56"/>
</g>
<!-- Node16&#45;&gt;Node3 -->
<g id="edge23" class="edge">
<title>Node16&#45;&gt;Node3</title>
<path fill="none" stroke="#63b8ff" d="M488.6,-60.02C497.78,-58.24 507.45,-56.47 516.5,-55 620.34,-38.1 742.56,-23.65 810.41,-16.1"/>
<polygon fill="#63b8ff" stroke="#63b8ff" points="810.57,-19.61 820.12,-15.03 809.8,-12.65 810.57,-19.61"/>
</g>
<!-- Node17&#45;&gt;Node3 -->
<g id="edge25" class="edge">
<title>Node17&#45;&gt;Node3</title>
<path fill="none" stroke="#63b8ff" d="M538.53,-120.72C535.61,-105.16 532.18,-72.69 549.5,-55 584.82,-18.93 730.99,-11.72 810.47,-10.52"/>
<polygon fill="#63b8ff" stroke="#63b8ff" points="810.22,-14.02 820.18,-10.4 810.14,-7.02 810.22,-14.02"/>
</g>
<!-- Node18&#45;&gt;Node3 -->
<g id="edge27" class="edge">
<title>Node18&#45;&gt;Node3</title>
<path fill="none" stroke="#63b8ff" d="M653.28,-60.05C696.23,-49.88 766.47,-33.24 813.57,-22.09"/>
<polygon fill="#63b8ff" stroke="#63b8ff" points="814.32,-25.51 823.25,-19.8 812.71,-18.7 814.32,-25.51"/>
</g>
<!-- Node19&#45;&gt;Node3 -->
<g id="edge31" class="edge">
<title>Node19&#45;&gt;Node3</title>
<path fill="none" stroke="#63b8ff" d="M718.92,-120.67C713.45,-105.59 705.07,-74.6 719.5,-55 740.23,-26.84 778.64,-15.99 810.44,-12.03"/>
<polygon fill="#63b8ff" stroke="#63b8ff" points="810.71,-15.52 820.3,-11.01 810,-8.55 810.71,-15.52"/>
</g>
<!-- Node20&#45;&gt;Node3 -->
<g id="edge33" class="edge">
<title>Node20&#45;&gt;Node3</title>
<path fill="none" stroke="#63b8ff" d="M793.8,-60.12C806.29,-51.1 825.88,-36.95 840.95,-26.06"/>
<polygon fill="#63b8ff" stroke="#63b8ff" points="842.8,-29.05 848.86,-20.35 838.7,-23.37 842.8,-29.05"/>
</g>
<!-- Node21&#45;&gt;Node14 -->
<g id="edge35" class="edge">
<title>Node21&#45;&gt;Node14</title>
<path fill="none" stroke="#63b8ff" d="M1478.02,-120.62C1491.87,-111.51 1513.68,-97.18 1530.3,-86.25"/>
<polygon fill="#63b8ff" stroke="#63b8ff" points="1532.16,-89.22 1538.59,-80.8 1528.31,-83.37 1532.16,-89.22"/>
</g>
<!-- Node22&#45;&gt;Node3 -->
<g id="edge37" class="edge">
<title>Node22&#45;&gt;Node3</title>
<path fill="none" stroke="#63b8ff" d="M882.85,-120.56C879.33,-101.51 871.01,-56.56 866.17,-30.37"/>
<polygon fill="#63b8ff" stroke="#63b8ff" points="869.65,-29.91 864.39,-20.71 862.76,-31.18 869.65,-29.91"/>
</g>
<!-- Node23&#45;&gt;Node3 -->
<g id="edge39" class="edge">
<title>Node23&#45;&gt;Node3</title>
<path fill="none" stroke="#63b8ff" d="M1398.8,-175.72C1393.47,-149.16 1376.28,-70.56 1356.5,-55 1322.32,-28.11 1034.44,-15.95 914.57,-12.01"/>
<polygon fill="#63b8ff" stroke="#63b8ff" points="914.78,-8.52 904.68,-11.7 914.56,-15.52 914.78,-8.52"/>
</g>
<!-- Node23&#45;&gt;Node21 -->
<g id="edge40" class="edge">
<title>Node23&#45;&gt;Node21</title>
<path fill="none" stroke="#63b8ff" d="M1411.36,-175.51C1420.61,-167.85 1434.12,-156.66 1445.21,-147.47"/>
<polygon fill="#63b8ff" stroke="#63b8ff" points="1447.17,-150.4 1452.64,-141.32 1442.7,-145.01 1447.17,-150.4"/>
</g>
<!-- Node24&#45;&gt;Node25 -->
<g id="edge42" class="edge">
<title>Node24&#45;&gt;Node25</title>
<path fill="none" stroke="#63b8ff" d="M1740.23,-175.75C1734.22,-168.5 1725.49,-157.98 1718.04,-149.02"/>
<polygon fill="#63b8ff" stroke="#63b8ff" points="1720.97,-147.07 1711.89,-141.61 1715.58,-151.54 1720.97,-147.07"/>
</g>
<!-- Node25&#45;&gt;Node14 -->
<g id="edge43" class="edge">
<title>Node25&#45;&gt;Node14</title>
<path fill="none" stroke="#63b8ff" d="M1680.72,-120.62C1655.83,-110.91 1615.71,-95.26 1587.18,-84.14"/>
<polygon fill="#63b8ff" stroke="#63b8ff" points="1588.49,-80.89 1577.91,-80.52 1585.95,-87.41 1588.49,-80.89"/>
</g>
<!-- Node26&#45;&gt;Node25 -->
<g id="edge45" class="edge">
<title>Node26&#45;&gt;Node25</title>
<path fill="none" stroke="#63b8ff" d="M1626.28,-175.51C1640.52,-167.39 1661.74,-155.3 1678.33,-145.85"/>
<polygon fill="#63b8ff" stroke="#63b8ff" points="1679.69,-149.1 1686.64,-141.11 1676.22,-143.02 1679.69,-149.1"/>
</g>
<!-- Node27&#45;&gt;Node3 -->
<g id="edge47" class="edge">
<title>Node27&#45;&gt;Node3</title>
<path fill="none" stroke="#63b8ff" d="M935.44,-60.12C922.05,-51.01 900.98,-36.68 884.92,-25.75"/>
<polygon fill="#63b8ff" stroke="#63b8ff" points="887.17,-23.05 876.94,-20.32 883.24,-28.84 887.17,-23.05"/>
</g>
<!-- Node28&#45;&gt;Node3 -->
<g id="edge49" class="edge">
<title>Node28&#45;&gt;Node3</title>
<path fill="none" stroke="#63b8ff" d="M935.3,-175.52C970.44,-154.43 1049.35,-100.1 1015.5,-55 1003.22,-38.64 954.06,-26.33 914.73,-18.85"/>
<polygon fill="#63b8ff" stroke="#63b8ff" points="915.38,-15.41 904.91,-17.05 914.12,-22.3 915.38,-15.41"/>
</g>
<!-- Node29&#45;&gt;Node3 -->
<g id="edge51" class="edge">
<title>Node29&#45;&gt;Node3</title>
<path fill="none" stroke="#63b8ff" d="M1057.95,-175.57C1061.16,-152.37 1066.28,-89.6 1034.5,-55 1018.38,-37.45 959.03,-24.87 914.53,-17.66"/>
<polygon fill="#63b8ff" stroke="#63b8ff" points="915.2,-14.22 904.78,-16.13 914.12,-21.13 915.2,-14.22"/>
</g>
<!-- Node30&#45;&gt;Node3 -->
<g id="edge53" class="edge">
<title>Node30&#45;&gt;Node3</title>
<path fill="none" stroke="#63b8ff" d="M1146.54,-120.71C1137.09,-104.81 1114.87,-71.43 1086.5,-55 1033.24,-24.17 962.23,-14.37 914.56,-11.43"/>
<polygon fill="#63b8ff" stroke="#63b8ff" points="914.96,-7.94 904.78,-10.91 914.59,-14.93 914.96,-7.94"/>
</g>
<!-- Node31&#45;&gt;Node3 -->
<g id="edge55" class="edge">
<title>Node31&#45;&gt;Node3</title>
<path fill="none" stroke="#63b8ff" d="M1229.73,-175.91C1228.18,-162.92 1223.75,-137.99 1211.5,-121 1181.65,-79.59 1164.67,-74.52 1117.5,-55 1050.91,-27.44 967.68,-16.94 914.79,-12.95"/>
<polygon fill="#63b8ff" stroke="#63b8ff" points="915.06,-9.46 904.84,-12.26 914.57,-16.44 915.06,-9.46"/>
</g>
<!-- Node32&#45;&gt;Node3 -->
<g id="edge60" class="edge">
<title>Node32&#45;&gt;Node3</title>
<path fill="none" stroke="#63b8ff" d="M1909.29,-63.24C1877.89,-60.47 1839.19,-57.27 1804.5,-55 1465.63,-32.8 1057.49,-17.36 914.79,-12.3"/>
<polygon fill="#63b8ff" stroke="#63b8ff" points="915.02,-8.81 904.9,-11.95 914.77,-15.8 915.02,-8.81"/>
</g>
</g>
</svg>
        <g id="navigator" transform="translate(0 0)" fill="#404254">
                <rect fill="#f2f5e9" fill-opacity="0.5" stroke="#606060" stroke-width=".5" x="0" y="0" width="60" height="60"/>
                <use id="zoomplus" xlink:href="#zoomPlus" x="17" y="9" onmousedown="handleZoom(evt,'in')"/>
                <use id="zoomminus" xlink:href="#zoomMin" x="42" y="9" onmousedown="handleZoom(evt,'out')"/>
                <use id="reset" xlink:href="#resetDef" x="30" y="36" onmousedown="handleReset()"/>
                <g id="arrowUp" xlink:href="#dirArrow" transform="translate(30 24)" onmousedown="handlePan(0,-1)">
                  <use xlink:href="#rim" fill="#404040">
                        <set attributeName="fill" to="#808080" begin="arrowUp.mouseover" end="arrowUp.mouseout"/>
                  </use>
                  <path fill="none" stroke="white" stroke-width="1.5" d="M0,-3.0v7 M-2.5,-0.5L0,-3.0L2.5,-0.5"/>
                </g>
                <g id="arrowRight" xlink:href="#dirArrow" transform="rotate(90) translate(36 -43)" onmousedown="handlePan(1,0)">
                  <use xlink:href="#rim" fill="#404040">
                        <set attributeName="fill" to="#808080" begin="arrowRight.mouseover" end="arrowRight.mouseout"/>
                  </use>
                  <path fill="none" stroke="white" stroke-width="1.5" d="M0,-3.0v7 M-2.5,-0.5L0,-3.0L2.5,-0.5"/>
                </g>
                <g id="arrowDown" xlink:href="#dirArrow" transform="rotate(180) translate(-30 -48)" onmousedown="handlePan(0,1)">
                  <use xlink:href="#rim" fill="#404040">
                        <set attributeName="fill" to="#808080" begin="arrowDown.mouseover" end="arrowDown.mouseout"/>
                  </use>
                  <path fill="none" stroke="white" stroke-width="1.5" d="M0,-3.0v7 M-2.5,-0.5L0,-3.0L2.5,-0.5"/>
                </g>
                <g id="arrowLeft" xlink:href="#dirArrow" transform="rotate(270) translate(-36 17)" onmousedown="handlePan(-1,0)">
                  <use xlink:href="#rim" fill="#404040">
                        <set attributeName="fill" to="#808080" begin="arrowLeft.mouseover" end="arrowLeft.mouseout"/>
                  </use>
                  <path fill="none" stroke="white" stroke-width="1.5" d="M0,-3.0v7 M-2.5,-0.5L0,-3.0L2.5,-0.5"/>
                </g>
        </g>
        <svg viewBox="0 0 15 15" width="100%" height="30px" preserveAspectRatio="xMaxYMin meet">
         <g id="arrow_out" transform="scale(0.3 0.3)">
          <a xlink:href="CARDDir_8c__incl_org.svg" target="_base">
           <rect id="button" ry="5" rx="5" y="6" x="6" height="38" width="38"
                fill="#f2f5e9" fill-opacity="0.5" stroke="#606060" stroke-width="1.0"/>
           <path id="arrow"
             d="M 11.500037,31.436501 C 11.940474,20.09759 22.043105,11.32322 32.158766,21.979434 L 37.068811,17.246167 C 37.068811,17.246167 37.088388,32 37.088388,32 L 22.160133,31.978069 C 22.160133,31.978069 26.997745,27.140456 26.997745,27.140456 C 18.528582,18.264221 13.291696,25.230495 11.500037,31.436501 z"
             style="fill:#404040;"/>
          </a>
         </g>
        </svg>
</svg>
