<?xml version="1.0" encoding="UTF-8" standalone="no"?>
<!DOCTYPE svg PUBLIC "-//W3C//DTD SVG 1.1//EN"
 "http://www.w3.org/Graphics/SVG/1.1/DTD/svg11.dtd">
<!-- Generated by graphviz version 7.0.5 (20221223.1930)
 -->
<!-- Title: include/dolphin/card/CARDPriv.h Pages: 1 -->
<svg width="416pt" height="269pt"
 viewBox="0.00 0.00 415.50 269.00" xmlns="http://www.w3.org/2000/svg" xmlns:xlink="http://www.w3.org/1999/xlink">
<g id="graph0" class="graph" transform="scale(1 1) rotate(0) translate(4 265)">
<title>include/dolphin/card/CARDPriv.h</title>
<!-- Node1 -->
<g id="node1" class="node">
<title>Node1</title>
<g id="a_node1"><a xlink:title=" ">
<polygon fill="#999999" stroke="#666666" points="311.5,-261 208.5,-261 208.5,-231 311.5,-231 311.5,-261"/>
<text text-anchor="start" x="216.5" y="-249" font-family="Helvetica,sans-Serif" font-size="10.00">include/dolphin/card</text>
<text text-anchor="middle" x="260" y="-238" font-family="Helvetica,sans-Serif" font-size="10.00">/CARDPriv.h</text>
</a>
</g>
</g>
<!-- Node2 -->
<g id="node2" class="node">
<title>Node2</title>
<g id="a_node2"><a xlink:href="OSAlarm_8h.html" target="_top" xlink:title=" ">
<polygon fill="white" stroke="#666666" points="231.5,-195 120.5,-195 120.5,-176 231.5,-176 231.5,-195"/>
<text text-anchor="middle" x="176" y="-183" font-family="Helvetica,sans-Serif" font-size="10.00">dolphin/os/OSAlarm.h</text>
</a>
</g>
</g>
<!-- Node1&#45;&gt;Node2 -->
<g id="edge1" class="edge">
<title>Node1&#45;&gt;Node2</title>
<path fill="none" stroke="#63b8ff" d="M239.24,-230.54C226.66,-221.78 210.64,-210.63 197.87,-201.73"/>
<polygon fill="#63b8ff" stroke="#63b8ff" points="199.9,-198.88 189.7,-196.04 195.9,-204.63 199.9,-198.88"/>
</g>
<!-- Node4 -->
<g id="node4" class="node">
<title>Node4</title>
<g id="a_node4"><a xlink:href="types_8h.html" target="_top" xlink:title=" ">
<polygon fill="white" stroke="#666666" points="259.5,-85 178.5,-85 178.5,-66 259.5,-66 259.5,-85"/>
<text text-anchor="middle" x="219" y="-73" font-family="Helvetica,sans-Serif" font-size="10.00">dolphin/types.h</text>
</a>
</g>
</g>
<!-- Node1&#45;&gt;Node4 -->
<g id="edge10" class="edge">
<title>Node1&#45;&gt;Node4</title>
<path fill="none" stroke="#63b8ff" d="M259.22,-230.54C257.65,-207.07 253.12,-159.42 241,-121 238.25,-112.28 233.99,-103.13 229.96,-95.42"/>
<polygon fill="#63b8ff" stroke="#63b8ff" points="233.03,-93.75 225.13,-86.69 226.91,-97.13 233.03,-93.75"/>
</g>
<!-- Node7 -->
<g id="node7" class="node">
<title>Node7</title>
<g id="a_node7"><a xlink:href="OSThread_8h.html" target="_top" xlink:title=" ">
<polygon fill="white" stroke="#666666" points="405,-195 289,-195 289,-176 405,-176 405,-195"/>
<text text-anchor="middle" x="347" y="-183" font-family="Helvetica,sans-Serif" font-size="10.00">dolphin/os/OSThread.h</text>
</a>
</g>
</g>
<!-- Node1&#45;&gt;Node7 -->
<g id="edge7" class="edge">
<title>Node1&#45;&gt;Node7</title>
<path fill="none" stroke="#63b8ff" d="M281.51,-230.54C294.58,-221.75 311.25,-210.54 324.49,-201.63"/>
<polygon fill="#63b8ff" stroke="#63b8ff" points="326.24,-204.68 332.59,-196.19 322.34,-198.87 326.24,-204.68"/>
</g>
<!-- Node3 -->
<g id="node3" class="node">
<title>Node3</title>
<g id="a_node3"><a xlink:href="OSError_8h.html" target="_top" xlink:title=" ">
<polygon fill="white" stroke="#666666" points="106,-140 0,-140 0,-121 106,-121 106,-140"/>
<text text-anchor="middle" x="53" y="-128" font-family="Helvetica,sans-Serif" font-size="10.00">dolphin/os/OSError.h</text>
</a>
</g>
</g>
<!-- Node2&#45;&gt;Node3 -->
<g id="edge2" class="edge">
<title>Node2&#45;&gt;Node3</title>
<path fill="none" stroke="#63b8ff" d="M155.13,-175.51C135.58,-167.08 106.1,-154.38 83.83,-144.79"/>
<polygon fill="#63b8ff" stroke="#63b8ff" points="85.52,-141.7 74.95,-140.96 82.75,-148.13 85.52,-141.7"/>
</g>
<!-- Node6 -->
<g id="node6" class="node">
<title>Node6</title>
<g id="a_node6"><a xlink:href="OSTime_8h.html" target="_top" xlink:title=" ">
<polygon fill="white" stroke="#666666" points="231.5,-140 124.5,-140 124.5,-121 231.5,-121 231.5,-140"/>
<text text-anchor="middle" x="178" y="-128" font-family="Helvetica,sans-Serif" font-size="10.00">dolphin/os/OSTime.h</text>
</a>
</g>
</g>
<!-- Node2&#45;&gt;Node6 -->
<g id="edge5" class="edge">
<title>Node2&#45;&gt;Node6</title>
<path fill="none" stroke="#63b8ff" d="M176.33,-175.75C176.57,-169.27 176.92,-160.16 177.23,-151.9"/>
<polygon fill="#63b8ff" stroke="#63b8ff" points="180.73,-152.08 177.61,-141.95 173.73,-151.82 180.73,-152.08"/>
</g>
<!-- Node3&#45;&gt;Node4 -->
<g id="edge3" class="edge">
<title>Node3&#45;&gt;Node4</title>
<path fill="none" stroke="#63b8ff" d="M81.16,-120.51C108.43,-111.8 149.99,-98.53 180.35,-88.84"/>
<polygon fill="#63b8ff" stroke="#63b8ff" points="181.08,-92.28 189.54,-85.91 178.95,-85.61 181.08,-92.28"/>
</g>
<!-- Node5 -->
<g id="node5" class="node">
<title>Node5</title>
<g id="a_node5"><a xlink:href="stddef_8h.html" target="_top" xlink:title=" ">
<polygon fill="white" stroke="#666666" points="287,-30 151,-30 151,0 287,0 287,-30"/>
<text text-anchor="start" x="159" y="-18" font-family="Helvetica,sans-Serif" font-size="10.00">MSL_C/MSL_Common/Src</text>
<text text-anchor="middle" x="219" y="-7" font-family="Helvetica,sans-Serif" font-size="10.00">/stddef.h</text>
</a>
</g>
</g>
<!-- Node4&#45;&gt;Node5 -->
<g id="edge4" class="edge">
<title>Node4&#45;&gt;Node5</title>
<path fill="none" stroke="#63b8ff" d="M219,-65.87C219,-59.4 219,-50.2 219,-41.45"/>
<polygon fill="#63b8ff" stroke="#63b8ff" points="222.5,-41.63 219,-31.63 215.5,-41.63 222.5,-41.63"/>
</g>
<!-- Node6&#45;&gt;Node4 -->
<g id="edge6" class="edge">
<title>Node6&#45;&gt;Node4</title>
<path fill="none" stroke="#63b8ff" d="M184.77,-120.75C190.32,-113.58 198.34,-103.2 205.23,-94.3"/>
<polygon fill="#63b8ff" stroke="#63b8ff" points="207.81,-96.69 211.16,-86.64 202.27,-92.41 207.81,-96.69"/>
</g>
<!-- Node8 -->
<g id="node8" class="node">
<title>Node8</title>
<g id="a_node8"><a xlink:href="OSContext_8h.html" target="_top" xlink:title=" ">
<polygon fill="white" stroke="#666666" points="407.5,-140 288.5,-140 288.5,-121 407.5,-121 407.5,-140"/>
<text text-anchor="middle" x="348" y="-128" font-family="Helvetica,sans-Serif" font-size="10.00">dolphin/os/OSContext.h</text>
</a>
</g>
</g>
<!-- Node7&#45;&gt;Node8 -->
<g id="edge8" class="edge">
<title>Node7&#45;&gt;Node8</title>
<path fill="none" stroke="#63b8ff" d="M347.17,-175.75C347.29,-169.27 347.46,-160.16 347.62,-151.9"/>
<polygon fill="#63b8ff" stroke="#63b8ff" points="351.11,-152.02 347.8,-141.96 344.11,-151.89 351.11,-152.02"/>
</g>
<!-- Node8&#45;&gt;Node4 -->
<g id="edge9" class="edge">
<title>Node8&#45;&gt;Node4</title>
<path fill="none" stroke="#63b8ff" d="M326.12,-120.51C305.51,-112.04 274.41,-99.27 251.02,-89.66"/>
<polygon fill="#63b8ff" stroke="#63b8ff" points="252.54,-86.5 241.96,-85.93 249.88,-92.97 252.54,-86.5"/>
</g>
</g>
</svg>
