<?xml version="1.0" encoding="UTF-8" standalone="no"?>
<!DOCTYPE svg PUBLIC "-//W3C//DTD SVG 1.1//EN"
 "http://www.w3.org/Graphics/SVG/1.1/DTD/svg11.dtd">
<!-- Generated by graphviz version 9.0.0 (20230911.1827)
 -->
<!-- Title: include/dolphin/card.h Pages: 1 -->
<!--zoomable 83 -->

<svg id="main" version="1.1" xmlns="http://www.w3.org/2000/svg" xmlns:xlink="http://www.w3.org/1999/xlink" xml:space="preserve" onload="init(evt)">
<style type="text/css"><![CDATA[
.node, .edge {opacity: 0.7;}
.node.selected, .edge.selected {opacity: 1;}
.edge:hover path { stroke: red; }
.edge:hover polygon { stroke: red; fill: red; }
]]></style>

<defs>
  <circle id="rim" cx="0" cy="0" r="7"/>
  <circle id="rim2" cx="0" cy="0" r="3.5"/>
  <g id="zoomPlus">
    <use xlink:href="#rim" fill="#404040"><set attributeName="fill" to="#808080" begin="zoomplus.mouseover" end="zoomplus.mouseout"/></use>
    <path d="M-4,0h8M0,-4v8" fill="none" stroke="white" stroke-width="1.5" pointer-events="none"/>
  </g>
  <g id="zoomMin">
    <use xlink:href="#rim" fill="#404040"><set attributeName="fill" to="#808080" begin="zoomminus.mouseover" end="zoomminus.mouseout"/></use>
    <path d="M-4,0h8" fill="none" stroke="white" stroke-width="1.5" pointer-events="none"/>
  </g>
  <g id="arrowUp" transform="translate(30 24)">
    <use xlink:href="#rim"/>
    <path pointer-events="none" fill="none" stroke="white" stroke-width="1.5" d="M0,-3.0v7 M-2.5,-0.5L0,-3.0L2.5,-0.5"/>
  </g>
  <g id="arrowRight" transform="rotate(90) translate(36 -43)">
    <use xlink:href="#rim"/>
    <path pointer-events="none" fill="none" stroke="white" stroke-width="1.5" d="M0,-3.0v7 M-2.5,-0.5L0,-3.0L2.5,-0.5"/>
  </g>
  <g id="arrowDown" transform="rotate(180) translate(-30 -48)">
    <use xlink:href="#rim"/>
    <path pointer-events="none" fill="none" stroke="white" stroke-width="1.5" d="M0,-3.0v7 M-2.5,-0.5L0,-3.0L2.5,-0.5"/>
  </g>
  <g id="arrowLeft" transform="rotate(270) translate(-36 17)">
    <use xlink:href="#rim"/>
    <path pointer-events="none" fill="none" stroke="white" stroke-width="1.5" d="M0,-3.0v7 M-2.5,-0.5L0,-3.0L2.5,-0.5"/>
  </g>
  <g id="resetDef">
    <use xlink:href="#rim2" fill="#404040"><set attributeName="fill" to="#808080" begin="reset.mouseover" end="reset.mouseout"/></use>
  </g>
</defs>
<script type="application/ecmascript">
var viewWidth = 2677;
var viewHeight = 83;
var sectionId = 'dynsection-1';
</script>
<script type="application/ecmascript" xlink:href="svg.min.js"/>
<svg id="graph" class="graph">
<g id="viewport">
<title>include/dolphin/card.h</title>
<!-- Node1 -->
<g id="Node000001" class="node">
<title>Node1</title>
<g id="a_Node000001"><a xlink:title=" ">
<polygon fill="#999999" stroke="#666666" points="1368.62,-74.5 1258.88,-74.5 1258.88,-55.25 1368.62,-55.25 1368.62,-74.5"/>
<text text-anchor="middle" x="1313.75" y="-61" font-family="Helvetica,sans-Serif" font-size="10.00">include/dolphin/card.h</text>
</a>
</g>
</g>
<!-- Node2 -->
<g id="Node000002" class="node">
<title>Node2</title>
<g id="a_Node000002"><a xlink:href="CARDBios_8c.html" target="_top" xlink:title=" ">
<polygon fill="white" stroke="#666666" points="143.5,-19.25 0,-19.25 0,0 143.5,0 143.5,-19.25"/>
<text text-anchor="middle" x="71.75" y="-5.75" font-family="Helvetica,sans-Serif" font-size="10.00">libs/dolphin/card/CARDBios.c</text>
</a>
</g>
</g>
<!-- Node1&#45;&gt;Node2 -->
<g id="edge1_Node000001_Node000002" class="edge">
<title>Node1&#45;&gt;Node2</title>
<g id="a_edge1_Node000001_Node000002"><a xlink:title=" ">
<path fill="none" stroke="#63b8ff" d="M1246.88,-62.89C1068.77,-59.91 568.17,-49.32 152.75,-19.25 149.79,-19.04 146.77,-18.8 143.72,-18.54"/>
<polygon fill="#63b8ff" stroke="#63b8ff" points="1246.82,-66.39 1256.87,-63.05 1246.93,-59.39 1246.82,-66.39"/>
</a>
</g>
</g>
<!-- Node3 -->
<g id="Node000003" class="node">
<title>Node3</title>
<g id="a_Node000003"><a xlink:href="CARDBlock_8c.html" target="_top" xlink:title=" ">
<polygon fill="white" stroke="#666666" points="310.12,-19.25 161.38,-19.25 161.38,0 310.12,0 310.12,-19.25"/>
<text text-anchor="middle" x="235.75" y="-5.75" font-family="Helvetica,sans-Serif" font-size="10.00">libs/dolphin/card/CARDBlock.c</text>
</a>
</g>
</g>
<!-- Node1&#45;&gt;Node3 -->
<g id="edge2_Node000001_Node000003" class="edge">
<title>Node1&#45;&gt;Node3</title>
<g id="a_edge2_Node000001_Node000003"><a xlink:title=" ">
<path fill="none" stroke="#63b8ff" d="M1247.33,-62.24C1087.34,-58.02 667.97,-45.2 318.75,-19.25 316,-19.05 313.21,-18.82 310.39,-18.59"/>
<polygon fill="#63b8ff" stroke="#63b8ff" points="1246.8,-65.73 1256.89,-62.49 1246.98,-58.73 1246.8,-65.73"/>
</a>
</g>
</g>
<!-- Node4 -->
<g id="Node000004" class="node">
<title>Node4</title>
<g id="a_Node000004"><a xlink:href="CARDCheck_8c.html" target="_top" xlink:title=" ">
<polygon fill="white" stroke="#666666" points="479.62,-19.25 327.88,-19.25 327.88,0 479.62,0 479.62,-19.25"/>
<text text-anchor="middle" x="403.75" y="-5.75" font-family="Helvetica,sans-Serif" font-size="10.00">libs/dolphin/card/CARDCheck.c</text>
</a>
</g>
</g>
<!-- Node1&#45;&gt;Node4 -->
<g id="edge3_Node000001_Node000004" class="edge">
<title>Node1&#45;&gt;Node4</title>
<g id="a_edge3_Node000001_Node000004"><a xlink:title=" ">
<path fill="none" stroke="#63b8ff" d="M1247.3,-61.34C1107.03,-55.77 770.42,-41.15 488.75,-19.25 485.79,-19.02 482.78,-18.77 479.73,-18.51"/>
<polygon fill="#63b8ff" stroke="#63b8ff" points="1247.02,-64.83 1257.15,-61.73 1247.29,-57.84 1247.02,-64.83"/>
</a>
</g>
</g>
<!-- Node5 -->
<g id="Node000005" class="node">
<title>Node5</title>
<g id="a_Node000005"><a xlink:href="CARDCreate_8c.html" target="_top" xlink:title=" ">
<polygon fill="white" stroke="#666666" points="650,-19.25 497.5,-19.25 497.5,0 650,0 650,-19.25"/>
<text text-anchor="middle" x="573.75" y="-5.75" font-family="Helvetica,sans-Serif" font-size="10.00">libs/dolphin/card/CARDCreate.c</text>
</a>
</g>
</g>
<!-- Node1&#45;&gt;Node5 -->
<g id="edge4_Node000001_Node000005" class="edge">
<title>Node1&#45;&gt;Node5</title>
<g id="a_edge4_Node000001_Node000005"><a xlink:title=" ">
<path fill="none" stroke="#63b8ff" d="M1247.12,-60.07C1128.66,-53.13 873.63,-37.47 658.75,-19.25 655.94,-19.01 653.08,-18.76 650.19,-18.5"/>
<polygon fill="#63b8ff" stroke="#63b8ff" points="1246.8,-63.55 1256.98,-60.64 1247.21,-56.57 1246.8,-63.55"/>
</a>
</g>
</g>
<!-- Node6 -->
<g id="Node000006" class="node">
<title>Node6</title>
<g id="a_Node000006"><a xlink:href="CARDDir_8c.html" target="_top" xlink:title=" ">
<polygon fill="white" stroke="#666666" points="803.75,-19.25 667.75,-19.25 667.75,0 803.75,0 803.75,-19.25"/>
<text text-anchor="middle" x="735.75" y="-5.75" font-family="Helvetica,sans-Serif" font-size="10.00">libs/dolphin/card/CARDDir.c</text>
</a>
</g>
</g>
<!-- Node1&#45;&gt;Node6 -->
<g id="edge5_Node000001_Node000006" class="edge">
<title>Node1&#45;&gt;Node6</title>
<g id="a_edge5_Node000001_Node000006"><a xlink:title=" ">
<path fill="none" stroke="#63b8ff" d="M1247.21,-58.43C1151.2,-50.47 968.25,-34.88 812.75,-19.25 809.94,-18.97 807.07,-18.67 804.18,-18.37"/>
<polygon fill="#63b8ff" stroke="#63b8ff" points="1246.72,-61.9 1256.97,-59.24 1247.29,-54.93 1246.72,-61.9"/>
</a>
</g>
</g>
<!-- Node7 -->
<g id="Node000007" class="node">
<title>Node7</title>
<g id="a_Node000007"><a xlink:href="CARDFormat_8c.html" target="_top" xlink:title=" ">
<polygon fill="white" stroke="#666666" points="976.12,-19.25 821.38,-19.25 821.38,0 976.12,0 976.12,-19.25"/>
<text text-anchor="middle" x="898.75" y="-5.75" font-family="Helvetica,sans-Serif" font-size="10.00">libs/dolphin/card/CARDFormat.c</text>
</a>
</g>
</g>
<!-- Node1&#45;&gt;Node7 -->
<g id="edge6_Node000001_Node000007" class="edge">
<title>Node1&#45;&gt;Node7</title>
<g id="a_edge6_Node000001_Node000007"><a xlink:title=" ">
<path fill="none" stroke="#63b8ff" d="M1247.34,-55.35C1171.39,-45.61 1047.54,-29.72 969.74,-19.73"/>
<polygon fill="#63b8ff" stroke="#63b8ff" points="1246.78,-58.81 1257.14,-56.61 1247.67,-51.87 1246.78,-58.81"/>
</a>
</g>
</g>
<!-- Node8 -->
<g id="Node000008" class="node">
<title>Node8</title>
<g id="a_Node000008"><a xlink:href="CARDMount_8c.html" target="_top" xlink:title=" ">
<polygon fill="white" stroke="#666666" points="1145.25,-19.25 994.25,-19.25 994.25,0 1145.25,0 1145.25,-19.25"/>
<text text-anchor="middle" x="1069.75" y="-5.75" font-family="Helvetica,sans-Serif" font-size="10.00">libs/dolphin/card/CARDMount.c</text>
</a>
</g>
</g>
<!-- Node1&#45;&gt;Node8 -->
<g id="edge7_Node000001_Node000008" class="edge">
<title>Node1&#45;&gt;Node8</title>
<g id="a_edge7_Node000001_Node000008"><a xlink:title=" ">
<path fill="none" stroke="#63b8ff" d="M1261.1,-52.38C1216.22,-42.59 1152.59,-28.7 1111.25,-19.68"/>
<polygon fill="#63b8ff" stroke="#63b8ff" points="1260.09,-55.75 1270.6,-54.46 1261.58,-48.91 1260.09,-55.75"/>
</a>
</g>
</g>
<!-- Node9 -->
<g id="Node000009" class="node">
<title>Node9</title>
<g id="a_Node000009"><a xlink:href="CARDNet_8c.html" target="_top" xlink:title=" ">
<polygon fill="white" stroke="#666666" points="1302.62,-19.25 1162.88,-19.25 1162.88,0 1302.62,0 1302.62,-19.25"/>
<text text-anchor="middle" x="1232.75" y="-5.75" font-family="Helvetica,sans-Serif" font-size="10.00">libs/dolphin/card/CARDNet.c</text>
</a>
</g>
</g>
<!-- Node1&#45;&gt;Node9 -->
<g id="edge8_Node000001_Node000009" class="edge">
<title>Node1&#45;&gt;Node9</title>
<g id="a_edge8_Node000001_Node000009"><a xlink:title=" ">
<path fill="none" stroke="#63b8ff" d="M1290.41,-48.53C1276.21,-39.2 1258.56,-27.6 1246.56,-19.7"/>
<polygon fill="#63b8ff" stroke="#63b8ff" points="1288.47,-51.44 1298.74,-54.01 1292.31,-45.59 1288.47,-51.44"/>
</a>
</g>
</g>
<!-- Node10 -->
<g id="Node000010" class="node">
<title>Node10</title>
<g id="a_Node000010"><a xlink:href="CARDOpen_8c.html" target="_top" xlink:title=" ">
<polygon fill="white" stroke="#666666" points="1468.38,-19.25 1321.12,-19.25 1321.12,0 1468.38,0 1468.38,-19.25"/>
<text text-anchor="middle" x="1394.75" y="-5.75" font-family="Helvetica,sans-Serif" font-size="10.00">libs/dolphin/card/CARDOpen.c</text>
</a>
</g>
</g>
<!-- Node1&#45;&gt;Node10 -->
<g id="edge9_Node000001_Node000010" class="edge">
<title>Node1&#45;&gt;Node10</title>
<g id="a_edge9_Node000001_Node000010"><a xlink:title=" ">
<path fill="none" stroke="#63b8ff" d="M1337.09,-48.53C1351.29,-39.2 1368.94,-27.6 1380.94,-19.7"/>
<polygon fill="#63b8ff" stroke="#63b8ff" points="1335.19,-45.59 1328.76,-54.01 1339.03,-51.44 1335.19,-45.59"/>
</a>
</g>
</g>
<!-- Node11 -->
<g id="Node000011" class="node">
<title>Node11</title>
<g id="a_Node000011"><a xlink:href="CARDRdwr_8c.html" target="_top" xlink:title=" ">
<polygon fill="white" stroke="#666666" points="1633,-19.25 1486.5,-19.25 1486.5,0 1633,0 1633,-19.25"/>
<text text-anchor="middle" x="1559.75" y="-5.75" font-family="Helvetica,sans-Serif" font-size="10.00">libs/dolphin/card/CARDRdwr.c</text>
</a>
</g>
</g>
<!-- Node1&#45;&gt;Node11 -->
<g id="edge10_Node000001_Node000011" class="edge">
<title>Node1&#45;&gt;Node11</title>
<g id="a_edge10_Node000001_Node000011"><a xlink:title=" ">
<path fill="none" stroke="#63b8ff" d="M1366.83,-52.38C1412.08,-42.59 1476.23,-28.7 1517.91,-19.68"/>
<polygon fill="#63b8ff" stroke="#63b8ff" points="1366.27,-48.92 1357.24,-54.46 1367.75,-55.77 1366.27,-48.92"/>
</a>
</g>
</g>
<!-- Node12 -->
<g id="Node000012" class="node">
<title>Node12</title>
<g id="a_Node000012"><a xlink:href="CARDRead_8c.html" target="_top" xlink:title=" ">
<polygon fill="white" stroke="#666666" points="1798,-19.25 1651.5,-19.25 1651.5,0 1798,0 1798,-19.25"/>
<text text-anchor="middle" x="1724.75" y="-5.75" font-family="Helvetica,sans-Serif" font-size="10.00">libs/dolphin/card/CARDRead.c</text>
</a>
</g>
</g>
<!-- Node1&#45;&gt;Node12 -->
<g id="edge11_Node000001_Node000012" class="edge">
<title>Node1&#45;&gt;Node12</title>
<g id="a_edge11_Node000001_Node000012"><a xlink:title=" ">
<path fill="none" stroke="#63b8ff" d="M1379.96,-55.3C1455.27,-45.54 1577.71,-29.68 1654.61,-19.71"/>
<polygon fill="#63b8ff" stroke="#63b8ff" points="1379.72,-51.8 1370.25,-56.55 1380.62,-58.74 1379.72,-51.8"/>
</a>
</g>
</g>
<!-- Node13 -->
<g id="Node000013" class="node">
<title>Node13</title>
<g id="a_Node000013"><a xlink:href="CARDStat_8c.html" target="_top" xlink:title=" ">
<polygon fill="white" stroke="#666666" points="1957.75,-19.25 1815.75,-19.25 1815.75,0 1957.75,0 1957.75,-19.25"/>
<text text-anchor="middle" x="1886.75" y="-5.75" font-family="Helvetica,sans-Serif" font-size="10.00">libs/dolphin/card/CARDStat.c</text>
</a>
</g>
</g>
<!-- Node1&#45;&gt;Node13 -->
<g id="edge12_Node000001_Node000013" class="edge">
<title>Node1&#45;&gt;Node13</title>
<g id="a_edge12_Node000001_Node000013"><a xlink:title=" ">
<path fill="none" stroke="#63b8ff" d="M1380.27,-58.22C1475.01,-50.08 1654.26,-34.37 1806.75,-19.25 1809.67,-18.96 1812.65,-18.66 1815.66,-18.35"/>
<polygon fill="#63b8ff" stroke="#63b8ff" points="1380.03,-54.73 1370.37,-59.07 1380.63,-61.7 1380.03,-54.73"/>
</a>
</g>
</g>
<!-- Node14 -->
<g id="Node000014" class="node">
<title>Node14</title>
<g id="a_Node000014"><a xlink:href="CARDUnlock_8c.html" target="_top" xlink:title=" ">
<polygon fill="white" stroke="#666666" points="2130.12,-19.25 1975.38,-19.25 1975.38,0 2130.12,0 2130.12,-19.25"/>
<text text-anchor="middle" x="2052.75" y="-5.75" font-family="Helvetica,sans-Serif" font-size="10.00">libs/dolphin/card/CARDUnlock.c</text>
</a>
</g>
</g>
<!-- Node1&#45;&gt;Node14 -->
<g id="edge13_Node000001_Node000014" class="edge">
<title>Node1&#45;&gt;Node14</title>
<g id="a_edge13_Node000001_Node000014"><a xlink:title=" ">
<path fill="none" stroke="#63b8ff" d="M1380.17,-60.03C1498.27,-53.05 1752.52,-37.31 1966.75,-19.25 1969.44,-19.02 1972.18,-18.79 1974.94,-18.54"/>
<polygon fill="#63b8ff" stroke="#63b8ff" points="1380.12,-56.53 1370.34,-60.61 1380.53,-63.52 1380.12,-56.53"/>
</a>
</g>
</g>
<!-- Node15 -->
<g id="Node000015" class="node">
<title>Node15</title>
<g id="a_Node000015"><a xlink:href="CARDWrite_8c.html" target="_top" xlink:title=" ">
<polygon fill="white" stroke="#666666" points="2295,-19.25 2148.5,-19.25 2148.5,0 2295,0 2295,-19.25"/>
<text text-anchor="middle" x="2221.75" y="-5.75" font-family="Helvetica,sans-Serif" font-size="10.00">libs/dolphin/card/CARDWrite.c</text>
</a>
</g>
</g>
<!-- Node1&#45;&gt;Node15 -->
<g id="edge14_Node000001_Node000015" class="edge">
<title>Node1&#45;&gt;Node15</title>
<g id="a_edge14_Node000001_Node000015"><a xlink:title=" ">
<path fill="none" stroke="#63b8ff" d="M1380.2,-61.4C1520.48,-55.92 1857.11,-41.49 2138.75,-19.25 2141.78,-19.01 2144.88,-18.75 2148,-18.48"/>
<polygon fill="#63b8ff" stroke="#63b8ff" points="1380.21,-57.89 1370.36,-61.78 1380.49,-64.89 1380.21,-57.89"/>
</a>
</g>
</g>
<!-- Node16 -->
<g id="Node000016" class="node">
<title>Node16</title>
<g id="a_Node000016"><a xlink:href="m__Do__MemCard_8cpp.html" target="_top" xlink:title=" ">
<polygon fill="white" stroke="#666666" points="2464.62,-19.25 2312.88,-19.25 2312.88,0 2464.62,0 2464.62,-19.25"/>
<text text-anchor="middle" x="2388.75" y="-5.75" font-family="Helvetica,sans-Serif" font-size="10.00">src/m_Do/m_Do_MemCard.cpp</text>
</a>
</g>
</g>
<!-- Node1&#45;&gt;Node16 -->
<g id="edge15_Node000001_Node000016" class="edge">
<title>Node1&#45;&gt;Node16</title>
<g id="a_edge15_Node000001_Node000016"><a xlink:title=" ">
<path fill="none" stroke="#63b8ff" d="M1380.6,-62.16C1540.35,-57.77 1956.81,-44.65 2303.75,-19.25 2306.71,-19.03 2309.72,-18.8 2312.77,-18.55"/>
<polygon fill="#63b8ff" stroke="#63b8ff" points="1380.51,-58.66 1370.6,-62.43 1380.7,-65.65 1380.51,-58.66"/>
</a>
</g>
</g>
<!-- Node17 -->
<g id="Node000017" class="node">
<title>Node17</title>
<g id="a_Node000017"><a xlink:href="m__Do__MemCardRWmng_8cpp.html" target="_top" xlink:title=" ">
<polygon fill="white" stroke="#666666" points="2668.88,-19.25 2482.62,-19.25 2482.62,0 2668.88,0 2668.88,-19.25"/>
<text text-anchor="middle" x="2575.75" y="-5.75" font-family="Helvetica,sans-Serif" font-size="10.00">src/m_Do/m_Do_MemCardRWmng.cpp</text>
</a>
</g>
</g>
<!-- Node1&#45;&gt;Node17 -->
<g id="edge16_Node000001_Node000017" class="edge">
<title>Node1&#45;&gt;Node17</title>
<g id="a_edge16_Node000001_Node000017"><a xlink:title=" ">
<path fill="none" stroke="#63b8ff" d="M1380.53,-62.38C1558.4,-58.16 2058.39,-44.79 2473.75,-19.25 2476.59,-19.08 2479.47,-18.89 2482.38,-18.69"/>
<polygon fill="#63b8ff" stroke="#63b8ff" points="1380.46,-58.88 1370.55,-62.61 1380.63,-65.88 1380.46,-58.88"/>
</a>
</g>
</g>
</g>
</svg>

<g id="navigator" transform="translate(0 0)" fill="#404254">
  <rect fill="#f2f5e9" fill-opacity="0.5" stroke="#606060" stroke-width=".5" x="0" y="0" width="60" height="60"/>
  <use id="zoomplus" xlink:href="#zoomPlus" x="17" y="9" onmousedown="handleZoom(evt,'in')"/>
  <use id="zoomminus" xlink:href="#zoomMin" x="42" y="9" onmousedown="handleZoom(evt,'out')"/>
  <use id="reset" xlink:href="#resetDef" x="30" y="36" onmousedown="handleReset()"/>
   <use id="arrowup" xlink:href="#arrowUp" x="0" y="0" onmousedown="handlePan(0,-1)"/>
  <use id="arrowright" xlink:href="#arrowRight" x="0" y="0" onmousedown="handlePan(1,0)"/>
  <use id="arrowdown" xlink:href="#arrowDown" x="0" y="0" onmousedown="handlePan(0,1)"/>
  <use id="arrowleft" xlink:href="#arrowLeft" x="0" y="0" onmousedown="handlePan(-1,0)"/>
</g>
<svg viewBox="0 0 15 15" width="100%" height="30px" preserveAspectRatio="xMaxYMin meet">
 <g id="arrow_out" transform="scale(0.3 0.3)">
  <a xlink:href="card_8h__dep__incl_org.svg" target="_base">
   <rect id="button" ry="5" rx="5" y="6" x="6" height="38" width="38"
        fill="#f2f5e9" fill-opacity="0.5" stroke="#606060" stroke-width="1.0"/>
   <path id="arrow"
     d="M 11.500037,31.436501 C 11.940474,20.09759 22.043105,11.32322 32.158766,21.979434 L 37.068811,17.246167 C 37.068811,17.246167 37.088388,32 37.088388,32 L 22.160133,31.978069 C 22.160133,31.978069 26.997745,27.140456 26.997745,27.140456 C 18.528582,18.264221 13.291696,25.230495 11.500037,31.436501 z"
     style="fill:#404040;"/>
  </a>
 </g>
</svg>

<style type='text/css'>
<![CDATA[
[data-mouse-over-selected='false'] { opacity: 0.7; }
[data-mouse-over-selected='true']  { opacity: 1.0; }
]]>
</style>
<script type="application/ecmascript"><![CDATA[
document.addEventListener('DOMContentLoaded', (event) => {
  highlightEdges();
  highlightAdjacentNodes();
});
]]></script>
</svg>
