<?xml version="1.0" encoding="UTF-8" standalone="no"?>
<!DOCTYPE svg PUBLIC "-//W3C//DTD SVG 1.1//EN"
 "http://www.w3.org/Graphics/SVG/1.1/DTD/svg11.dtd">
<!-- Generated by graphviz version 7.0.5 (20221223.1930)
 -->
<!-- Title: dStage_roomStatus_c Pages: 1 -->
<!--zoomable 822 -->
<svg id="main" version="1.1" xmlns="http://www.w3.org/2000/svg" xmlns:xlink="http://www.w3.org/1999/xlink" xml:space="preserve" onload="init(evt)">
<style type="text/css"><![CDATA[
.edge:hover path { stroke: red; }
.edge:hover polygon { stroke: red; fill: red; }
]]></style>
<script type="text/javascript"><![CDATA[
var edges = document.getElementsByTagName('g');
if (edges && edges.length) {
  for (var i=0;i<edges.length;i++) {
    if (edges[i].id.substr(0,4)=='edge') {
      edges[i].setAttribute('class','edge');
    }
  }
}
]]></script>
        <defs>
                <circle id="rim" cx="0" cy="0" r="7"/>
                <circle id="rim2" cx="0" cy="0" r="3.5"/>
                <g id="zoomPlus">
                        <use xlink:href="#rim" fill="#404040">
                                <set attributeName="fill" to="#808080" begin="zoomplus.mouseover" end="zoomplus.mouseout"/>
                        </use>
                        <path d="M-4,0h8M0,-4v8" fill="none" stroke="white" stroke-width="1.5" pointer-events="none"/>
                </g>
                <g id="zoomMin">
                        <use xlink:href="#rim" fill="#404040">
                                <set attributeName="fill" to="#808080" begin="zoomminus.mouseover" end="zoomminus.mouseout"/>
                        </use>
                        <path d="M-4,0h8" fill="none" stroke="white" stroke-width="1.5" pointer-events="none"/>
                </g>
                <g id="dirArrow">
                        <path fill="none" stroke="white" stroke-width="1.5" d="M0,-3.0v7 M-2.5,-0.5L0,-3.0L2.5,-0.5"/>
                </g>
               <g id="resetDef">
                       <use xlink:href="#rim2" fill="#404040">
                               <set attributeName="fill" to="#808080" begin="reset.mouseover" end="reset.mouseout"/>
                       </use>
               </g>
        </defs>

<script type="text/javascript">
var viewWidth = 1447;
var viewHeight = 822;
var sectionId = 'dynsection-0';
</script>
<script xlink:href="svgpan.js"/>
<svg id="graph" class="graph">
<g id="viewport">
<title>dStage_roomStatus_c</title>
<!-- Node1 -->
<g id="node1" class="node">
<title>Node1</title>
<g id="a_node1"><a xlink:title=" ">
<polygon fill="#999999" stroke="#666666" points="1439,-641.66 1326,-641.66 1326,-622.66 1439,-622.66 1439,-641.66"/>
<text text-anchor="middle" x="1382.5" y="-629.66" font-family="Helvetica,sans-Serif" font-size="10.00">dStage_roomStatus_c</text>
</a>
</g>
</g>
<!-- Node2 -->
<g id="node2" class="node">
<title>Node2</title>
<g id="a_node2"><a xlink:href="classdStage__roomDt__c.html" target="_top" xlink:title=" ">
<polygon fill="white" stroke="#666666" points="1244,-432.66 1149,-432.66 1149,-413.66 1244,-413.66 1244,-432.66"/>
<text text-anchor="middle" x="1196.5" y="-420.66" font-family="Helvetica,sans-Serif" font-size="10.00">dStage_roomDt_c</text>
</a>
</g>
</g>
<!-- Node2&#45;&gt;Node1 -->
<g id="edge1" class="edge">
<title>Node2&#45;&gt;Node1</title>
<path fill="none" stroke="#9a32cd" stroke-dasharray="5,2" d="M1213.71,-441.58C1251.56,-484.56 1344.65,-590.3 1373.1,-622.62"/>
<polygon fill="#9a32cd" stroke="#9a32cd" points="1216.36,-439.29 1207.13,-434.1 1211.11,-443.92 1216.36,-439.29"/>
<text text-anchor="middle" x="1285" y="-549.16" font-family="Helvetica,sans-Serif" font-size="10.00"> mRoomDt</text>
</g>
<!-- Node3 -->
<g id="node3" class="node">
<title>Node3</title>
<g id="a_node3"><a xlink:href="structdStage__dt__c.html" target="_top" xlink:title=" ">
<polygon fill="white" stroke="#666666" points="1016,-651.66 945,-651.66 945,-632.66 1016,-632.66 1016,-651.66"/>
<text text-anchor="middle" x="980.5" y="-639.66" font-family="Helvetica,sans-Serif" font-size="10.00">dStage_dt_c</text>
</a>
</g>
</g>
<!-- Node3&#45;&gt;Node2 -->
<g id="edge2" class="edge">
<title>Node3&#45;&gt;Node2</title>
<path fill="none" stroke="#63b8ff" d="M1027.44,-642.2C1060.07,-639.83 1102.9,-631.52 1131,-606.16 1184.27,-558.09 1193.55,-463.33 1195.16,-432.85"/>
<polygon fill="#63b8ff" stroke="#63b8ff" points="1027.67,-638.68 1017.88,-642.73 1028.06,-645.67 1027.67,-638.68"/>
</g>
<!-- Node4 -->
<g id="node4" class="node">
<title>Node4</title>
<g id="a_node4"><a xlink:href="structstage__pure__lightvec__info__class.html" target="_top" xlink:title=" ">
<polygon fill="white" stroke="#666666" points="1032.5,-614.16 928.5,-614.16 928.5,-584.16 1032.5,-584.16 1032.5,-614.16"/>
<text text-anchor="start" x="936.5" y="-602.16" font-family="Helvetica,sans-Serif" font-size="10.00">stage_pure_lightvec</text>
<text text-anchor="middle" x="980.5" y="-591.16" font-family="Helvetica,sans-Serif" font-size="10.00">_info_class</text>
</a>
</g>
</g>
<!-- Node4&#45;&gt;Node2 -->
<g id="edge3" class="edge">
<title>Node4&#45;&gt;Node2</title>
<path fill="none" stroke="#9a32cd" stroke-dasharray="5,2" d="M1044.2,-595.43C1073.32,-590.86 1106.77,-581.21 1131,-561.16 1172.97,-526.43 1189.16,-458.24 1193.88,-432.92"/>
<polygon fill="#9a32cd" stroke="#9a32cd" points="1043.79,-591.96 1034.37,-596.79 1044.75,-598.89 1043.79,-591.96"/>
<text text-anchor="middle" x="1095.5" y="-594.16" font-family="Helvetica,sans-Serif" font-size="10.00"> mLightVecInfo</text>
</g>
<!-- Node5 -->
<g id="node5" class="node">
<title>Node5</title>
<g id="a_node5"><a xlink:href="structstage__map__info__class.html" target="_top" xlink:title=" ">
<polygon fill="white" stroke="#666666" points="782,-535.66 668,-535.66 668,-516.66 782,-516.66 782,-535.66"/>
<text text-anchor="middle" x="725" y="-523.66" font-family="Helvetica,sans-Serif" font-size="10.00">stage_map_info_class</text>
</a>
</g>
</g>
<!-- Node5&#45;&gt;Node2 -->
<g id="edge4" class="edge">
<title>Node5&#45;&gt;Node2</title>
<path fill="none" stroke="#9a32cd" stroke-dasharray="5,2" d="M793.8,-522.12C892.85,-515.45 1071.79,-500.33 1131,-475.16 1153.77,-465.48 1175.06,-445.34 1186.58,-433.16"/>
<polygon fill="#9a32cd" stroke="#9a32cd" points="793.68,-518.62 783.93,-522.77 794.14,-525.6 793.68,-518.62"/>
<text text-anchor="middle" x="980.5" y="-514.16" font-family="Helvetica,sans-Serif" font-size="10.00"> mMapInfo</text>
</g>
<!-- Node6 -->
<g id="node6" class="node">
<title>Node6</title>
<g id="a_node6"><a xlink:href="structstage__map__info__dummy__class.html" target="_top" xlink:title=" ">
<polygon fill="white" stroke="#666666" points="1041.5,-566.16 919.5,-566.16 919.5,-536.16 1041.5,-536.16 1041.5,-566.16"/>
<text text-anchor="start" x="927.5" y="-554.16" font-family="Helvetica,sans-Serif" font-size="10.00">stage_map_info_dummy</text>
<text text-anchor="middle" x="980.5" y="-543.16" font-family="Helvetica,sans-Serif" font-size="10.00">_class</text>
</a>
</g>
</g>
<!-- Node5&#45;&gt;Node6 -->
<g id="edge6" class="edge">
<title>Node5&#45;&gt;Node6</title>
<path fill="none" stroke="#9a32cd" stroke-dasharray="5,2" d="M793.55,-532.82C832.72,-536.69 881.6,-541.51 919.42,-545.24"/>
<polygon fill="#9a32cd" stroke="#9a32cd" points="794.06,-529.36 783.77,-531.86 793.37,-536.32 794.06,-529.36"/>
<text text-anchor="middle" x="852" y="-545.16" font-family="Helvetica,sans-Serif" font-size="10.00"> mData</text>
</g>
<!-- Node6&#45;&gt;Node2 -->
<g id="edge5" class="edge">
<title>Node6&#45;&gt;Node2</title>
<path fill="none" stroke="#9a32cd" stroke-dasharray="5,2" d="M1052.79,-548.29C1079.15,-544.41 1108.15,-536.57 1131,-521.16 1164.1,-498.84 1184.32,-453.25 1191.99,-433.11"/>
<polygon fill="#9a32cd" stroke="#9a32cd" points="1052.65,-544.78 1043.18,-549.52 1053.55,-551.72 1052.65,-544.78"/>
<text text-anchor="middle" x="1095.5" y="-549.16" font-family="Helvetica,sans-Serif" font-size="10.00"> mMapInfoBase</text>
</g>
<!-- Node7 -->
<g id="node7" class="node">
<title>Node7</title>
<g id="a_node7"><a xlink:href="structstage__vrbox__info__class.html" target="_top" xlink:title=" ">
<polygon fill="white" stroke="#666666" points="316,-269.66 197,-269.66 197,-250.66 316,-250.66 316,-269.66"/>
<text text-anchor="middle" x="256.5" y="-257.66" font-family="Helvetica,sans-Serif" font-size="10.00">stage_vrbox_info_class</text>
</a>
</g>
</g>
<!-- Node7&#45;&gt;Node2 -->
<g id="edge7" class="edge">
<title>Node7&#45;&gt;Node2</title>
<path fill="none" stroke="#9a32cd" stroke-dasharray="5,2" d="M327.69,-257.23C379.68,-255.32 452.24,-253.16 516,-253.16 516,-253.16 516,-253.16 981.5,-253.16 1050.4,-253.16 1077.75,-250.44 1131,-294.16 1170.48,-326.57 1188,-389.25 1193.48,-413.37"/>
<polygon fill="#9a32cd" stroke="#9a32cd" points="327.64,-253.73 317.78,-257.61 327.9,-260.73 327.64,-253.73"/>
<text text-anchor="middle" x="725" y="-256.16" font-family="Helvetica,sans-Serif" font-size="10.00"> mVrboxInfo</text>
</g>
<!-- Node8 -->
<g id="node8" class="node">
<title>Node8</title>
<g id="a_node8"><a xlink:href="struct__GXColor.html" target="_top" xlink:title=" ">
<polygon fill="white" stroke="#666666" points="75.5,-336.66 16.5,-336.66 16.5,-317.66 75.5,-317.66 75.5,-336.66"/>
<text text-anchor="middle" x="46" y="-324.66" font-family="Helvetica,sans-Serif" font-size="10.00">_GXColor</text>
</a>
</g>
</g>
<!-- Node8&#45;&gt;Node7 -->
<g id="edge8" class="edge">
<title>Node8&#45;&gt;Node7</title>
<path fill="none" stroke="#9a32cd" stroke-dasharray="5,2" d="M87.05,-324.32C113.73,-321.51 149.23,-315.98 179,-305.16 202.75,-296.53 227.47,-280.49 242.16,-270.08"/>
<polygon fill="#9a32cd" stroke="#9a32cd" points="86.96,-320.82 77.34,-325.26 87.63,-327.78 86.96,-320.82"/>
<text text-anchor="middle" x="144.5" y="-335.16" font-family="Helvetica,sans-Serif" font-size="10.00"> field_0x0</text>
<text text-anchor="middle" x="144.5" y="-324.16" font-family="Helvetica,sans-Serif" font-size="10.00">field_0x4</text>
</g>
<!-- Node38 -->
<g id="node38" class="node">
<title>Node38</title>
<g id="a_node38"><a xlink:href="structJ3DLightInfo.html" target="_top" xlink:title=" ">
<polygon fill="white" stroke="#666666" points="292.5,-632.66 220.5,-632.66 220.5,-613.66 292.5,-613.66 292.5,-632.66"/>
<text text-anchor="middle" x="256.5" y="-620.66" font-family="Helvetica,sans-Serif" font-size="10.00">J3DLightInfo</text>
</a>
</g>
</g>
<!-- Node8&#45;&gt;Node38 -->
<g id="edge48" class="edge">
<title>Node8&#45;&gt;Node38</title>
<path fill="none" stroke="#9a32cd" stroke-dasharray="5,2" d="M85.64,-341.82C87.93,-343.43 90.07,-345.21 92,-347.16 175.21,-431.49 116.75,-505.01 197,-592.16 205.41,-601.29 217.13,-608.24 227.88,-613.22"/>
<polygon fill="#9a32cd" stroke="#9a32cd" points="87.41,-338.8 77,-336.82 83.9,-344.86 87.41,-338.8"/>
<text text-anchor="middle" x="144.5" y="-569.16" font-family="Helvetica,sans-Serif" font-size="10.00"> mColor</text>
</g>
<!-- Node9 -->
<g id="node9" class="node">
<title>Node9</title>
<g id="a_node9"><a xlink:href="structcolor__RGB__class.html" target="_top" xlink:title=" ">
<polygon fill="white" stroke="#666666" points="92,-269.66 0,-269.66 0,-250.66 92,-250.66 92,-269.66"/>
<text text-anchor="middle" x="46" y="-257.66" font-family="Helvetica,sans-Serif" font-size="10.00">color_RGB_class</text>
</a>
</g>
</g>
<!-- Node9&#45;&gt;Node7 -->
<g id="edge9" class="edge">
<title>Node9&#45;&gt;Node7</title>
<path fill="none" stroke="#9a32cd" stroke-dasharray="5,2" d="M104.01,-260.16C132.76,-260.16 167.6,-260.16 196.62,-260.16"/>
<polygon fill="#9a32cd" stroke="#9a32cd" points="104.01,-256.66 94.01,-260.16 104.01,-263.66 104.01,-256.66"/>
<text text-anchor="middle" x="144.5" y="-296.16" font-family="Helvetica,sans-Serif" font-size="10.00"> field_0x11</text>
<text text-anchor="middle" x="144.5" y="-285.16" font-family="Helvetica,sans-Serif" font-size="10.00">field_0x8</text>
<text text-anchor="middle" x="144.5" y="-274.16" font-family="Helvetica,sans-Serif" font-size="10.00">field_0xb</text>
<text text-anchor="middle" x="144.5" y="-263.16" font-family="Helvetica,sans-Serif" font-size="10.00">field_0xe</text>
</g>
<!-- Node10 -->
<g id="node10" class="node">
<title>Node10</title>
<g id="a_node10"><a xlink:href="structstage__vrboxcol__info__class.html" target="_top" xlink:title=" ">
<polygon fill="white" stroke="#666666" points="1032,-225.16 929,-225.16 929,-195.16 1032,-195.16 1032,-225.16"/>
<text text-anchor="start" x="937" y="-213.16" font-family="Helvetica,sans-Serif" font-size="10.00">stage_vrboxcol_info</text>
<text text-anchor="middle" x="980.5" y="-202.16" font-family="Helvetica,sans-Serif" font-size="10.00">_class</text>
</a>
</g>
</g>
<!-- Node10&#45;&gt;Node2 -->
<g id="edge10" class="edge">
<title>Node10&#45;&gt;Node2</title>
<path fill="none" stroke="#9a32cd" stroke-dasharray="5,2" d="M1043.63,-203.19C1073.07,-203.21 1106.97,-208.51 1131,-228.16 1190.34,-276.7 1195.5,-381.25 1195.63,-413.49"/>
<polygon fill="#9a32cd" stroke="#9a32cd" points="1043.6,-199.69 1033.68,-203.4 1043.76,-206.69 1043.6,-199.69"/>
<text text-anchor="middle" x="1095.5" y="-231.16" font-family="Helvetica,sans-Serif" font-size="10.00"> mVrboxcolInfo</text>
</g>
<!-- Node11 -->
<g id="node11" class="node">
<title>Node11</title>
<g id="a_node11"><a xlink:href="classdStage__FileList2__dt__c.html" target="_top" xlink:title=" ">
<polygon fill="white" stroke="#666666" points="1037.5,-176.66 923.5,-176.66 923.5,-157.66 1037.5,-157.66 1037.5,-176.66"/>
<text text-anchor="middle" x="980.5" y="-164.66" font-family="Helvetica,sans-Serif" font-size="10.00">dStage_FileList2_dt_c</text>
</a>
</g>
</g>
<!-- Node11&#45;&gt;Node2 -->
<g id="edge11" class="edge">
<title>Node11&#45;&gt;Node2</title>
<path fill="none" stroke="#9a32cd" stroke-dasharray="5,2" d="M1049.22,-161.22C1077.55,-162.33 1108.94,-168.77 1131,-188.16 1166.19,-219.1 1188.77,-372.43 1194.22,-413.19"/>
<polygon fill="#9a32cd" stroke="#9a32cd" points="1049.28,-157.72 1039.23,-161.07 1049.18,-164.72 1049.28,-157.72"/>
<text text-anchor="middle" x="1095.5" y="-191.16" font-family="Helvetica,sans-Serif" font-size="10.00"> mFileList2Info</text>
</g>
<!-- Node12 -->
<g id="node12" class="node">
<title>Node12</title>
<g id="a_node12"><a xlink:href="classdStage__FileList__dt__c.html" target="_top" xlink:title=" ">
<polygon fill="white" stroke="#666666" points="1035,-139.66 926,-139.66 926,-120.66 1035,-120.66 1035,-139.66"/>
<text text-anchor="middle" x="980.5" y="-127.66" font-family="Helvetica,sans-Serif" font-size="10.00">dStage_FileList_dt_c</text>
</a>
</g>
</g>
<!-- Node12&#45;&gt;Node2 -->
<g id="edge12" class="edge">
<title>Node12&#45;&gt;Node2</title>
<path fill="none" stroke="#9a32cd" stroke-dasharray="5,2" d="M1046.69,-121.78C1075.74,-121.67 1108.43,-127.08 1131,-147.16 1172.26,-183.88 1190.76,-368.46 1194.68,-413.32"/>
<polygon fill="#9a32cd" stroke="#9a32cd" points="1046.75,-118.28 1036.85,-122.05 1046.94,-125.27 1046.75,-118.28"/>
<text text-anchor="middle" x="1095.5" y="-150.16" font-family="Helvetica,sans-Serif" font-size="10.00"> mFileListInfo</text>
</g>
<!-- Node13 -->
<g id="node13" class="node">
<title>Node13</title>
<g id="a_node13"><a xlink:href="classstage__actor__class.html" target="_top" xlink:title=" ">
<polygon fill="white" stroke="#666666" points="900,-392.66 804,-392.66 804,-373.66 900,-373.66 900,-392.66"/>
<text text-anchor="middle" x="852" y="-380.66" font-family="Helvetica,sans-Serif" font-size="10.00">stage_actor_class</text>
</a>
</g>
</g>
<!-- Node13&#45;&gt;Node2 -->
<g id="edge13" class="edge">
<title>Node13&#45;&gt;Node2</title>
<path fill="none" stroke="#9a32cd" stroke-dasharray="5,2" d="M911.35,-384.62C948.8,-386.04 998.39,-388.8 1042,-394.16 1079.01,-398.72 1120.55,-406.74 1151.07,-413.2"/>
<polygon fill="#9a32cd" stroke="#9a32cd" points="911.77,-381.13 901.65,-384.28 911.52,-388.13 911.77,-381.13"/>
<text text-anchor="middle" x="980.5" y="-397.16" font-family="Helvetica,sans-Serif" font-size="10.00"> mPlayer</text>
</g>
<!-- Node14 -->
<g id="node14" class="node">
<title>Node14</title>
<g id="a_node14"><a xlink:href="classstage__actor__data__class.html" target="_top" xlink:title=" ">
<polygon fill="white" stroke="#666666" points="577,-383.66 457,-383.66 457,-364.66 577,-364.66 577,-383.66"/>
<text text-anchor="middle" x="517" y="-371.66" font-family="Helvetica,sans-Serif" font-size="10.00">stage_actor_data_class</text>
</a>
</g>
</g>
<!-- Node14&#45;&gt;Node13 -->
<g id="edge14" class="edge">
<title>Node14&#45;&gt;Node13</title>
<path fill="none" stroke="#9a32cd" stroke-dasharray="5,2" d="M588.49,-376.07C653.27,-377.82 747.52,-380.37 803.7,-381.88"/>
<polygon fill="#9a32cd" stroke="#9a32cd" points="588.75,-372.57 578.66,-375.8 588.56,-379.57 588.75,-372.57"/>
<text text-anchor="middle" x="621.5" y="-380.16" font-family="Helvetica,sans-Serif" font-size="10.00"> mEntries</text>
</g>
<!-- Node34 -->
<g id="node34" class="node">
<title>Node34</title>
<g id="a_node34"><a xlink:href="structstage__tgsc__data__class.html" target="_top" xlink:title=" ">
<polygon fill="white" stroke="#666666" points="783.5,-353.66 666.5,-353.66 666.5,-334.66 783.5,-334.66 783.5,-353.66"/>
<text text-anchor="middle" x="725" y="-341.66" font-family="Helvetica,sans-Serif" font-size="10.00">stage_tgsc_data_class</text>
</a>
</g>
</g>
<!-- Node14&#45;&gt;Node34 -->
<g id="edge42" class="edge">
<title>Node14&#45;&gt;Node34</title>
<path fill="none" stroke="#63b8ff" d="M582.54,-362.3C587.09,-361.55 591.61,-360.83 596,-360.16 618.92,-356.68 644.22,-353.39 666.24,-350.72"/>
<polygon fill="#63b8ff" stroke="#63b8ff" points="581.99,-358.85 572.72,-363.97 583.16,-365.75 581.99,-358.85"/>
</g>
<!-- Node15 -->
<g id="node15" class="node">
<title>Node15</title>
<g id="a_node15"><a xlink:href="structcXyz.html" target="_top" xlink:title=" ">
<polygon fill="white" stroke="#666666" points="275.5,-476.66 237.5,-476.66 237.5,-457.66 275.5,-457.66 275.5,-476.66"/>
<text text-anchor="middle" x="256.5" y="-464.66" font-family="Helvetica,sans-Serif" font-size="10.00">cXyz</text>
</a>
</g>
</g>
<!-- Node15&#45;&gt;Node14 -->
<g id="edge15" class="edge">
<title>Node15&#45;&gt;Node14</title>
<path fill="none" stroke="#9a32cd" stroke-dasharray="5,2" d="M286.7,-459.48C322.76,-449.69 385.73,-431.55 438,-411.16 458.67,-403.1 481.51,-391.99 497.1,-384.06"/>
<polygon fill="#9a32cd" stroke="#9a32cd" points="286.2,-455.99 277.45,-461.97 288.01,-462.75 286.2,-455.99"/>
<text text-anchor="middle" x="386" y="-448.16" font-family="Helvetica,sans-Serif" font-size="10.00"> mSpawnPos</text>
</g>
<!-- Node15&#45;&gt;Node15 -->
<g id="edge17" class="edge">
<title>Node15&#45;&gt;Node15</title>
<path fill="none" stroke="#9a32cd" stroke-dasharray="5,2" d="M236.62,-488.09C239.11,-491.95 245.73,-494.66 256.5,-494.66 276.19,-494.66 282.03,-485.6 274.03,-477.03"/>
<polygon fill="#9a32cd" stroke="#9a32cd" points="240,-489.02 238.65,-478.51 233.15,-487.57 240,-489.02"/>
<text text-anchor="middle" x="256.5" y="-574.66" font-family="Helvetica,sans-Serif" font-size="10.00"> BaseX</text>
<text text-anchor="middle" x="256.5" y="-563.66" font-family="Helvetica,sans-Serif" font-size="10.00">BaseXY</text>
<text text-anchor="middle" x="256.5" y="-552.66" font-family="Helvetica,sans-Serif" font-size="10.00">BaseXYZ</text>
<text text-anchor="middle" x="256.5" y="-541.66" font-family="Helvetica,sans-Serif" font-size="10.00">BaseXZ</text>
<text text-anchor="middle" x="256.5" y="-530.66" font-family="Helvetica,sans-Serif" font-size="10.00">BaseY</text>
<text text-anchor="middle" x="256.5" y="-519.66" font-family="Helvetica,sans-Serif" font-size="10.00">BaseYZ</text>
<text text-anchor="middle" x="256.5" y="-508.66" font-family="Helvetica,sans-Serif" font-size="10.00">BaseZ</text>
<text text-anchor="middle" x="256.5" y="-497.66" font-family="Helvetica,sans-Serif" font-size="10.00">Zero</text>
</g>
<!-- Node19 -->
<g id="node19" class="node">
<title>Node19</title>
<g id="a_node19"><a xlink:href="structdStage__dPnt__c.html" target="_top" xlink:title=" ">
<polygon fill="white" stroke="#666666" points="558.5,-470.66 475.5,-470.66 475.5,-451.66 558.5,-451.66 558.5,-470.66"/>
<text text-anchor="middle" x="517" y="-458.66" font-family="Helvetica,sans-Serif" font-size="10.00">dStage_dPnt_c</text>
</a>
</g>
</g>
<!-- Node15&#45;&gt;Node19 -->
<g id="edge22" class="edge">
<title>Node15&#45;&gt;Node19</title>
<path fill="none" stroke="#9a32cd" stroke-dasharray="5,2" d="M286.96,-466.48C333.11,-465.41 422.61,-463.33 475.02,-462.11"/>
<polygon fill="#9a32cd" stroke="#9a32cd" points="287.11,-462.97 277.19,-466.71 287.27,-469.97 287.11,-462.97"/>
<text text-anchor="middle" x="386" y="-468.16" font-family="Helvetica,sans-Serif" font-size="10.00"> m_position</text>
</g>
<!-- Node25 -->
<g id="node25" class="node">
<title>Node25</title>
<g id="a_node25"><a xlink:href="structstage__arrow__data__class.html" target="_top" xlink:title=" ">
<polygon fill="white" stroke="#666666" points="578,-340.66 456,-340.66 456,-321.66 578,-321.66 578,-340.66"/>
<text text-anchor="middle" x="517" y="-328.66" font-family="Helvetica,sans-Serif" font-size="10.00">stage_arrow_data_class</text>
</a>
</g>
</g>
<!-- Node15&#45;&gt;Node25 -->
<g id="edge30" class="edge">
<title>Node15&#45;&gt;Node25</title>
<path fill="none" stroke="#9a32cd" stroke-dasharray="5,2" d="M276.55,-449.52C298.08,-429.65 330.61,-399.87 334,-398.16 376.11,-376.95 397.33,-401.03 438,-377.16 448.6,-370.94 446.06,-363.39 456,-356.16 464.49,-349.99 474.73,-345.01 484.33,-341.16"/>
<polygon fill="#9a32cd" stroke="#9a32cd" points="274.19,-446.94 269.22,-456.3 278.94,-452.08 274.19,-446.94"/>
<text text-anchor="middle" x="386" y="-401.16" font-family="Helvetica,sans-Serif" font-size="10.00"> mPosition</text>
</g>
<!-- Node36 -->
<g id="node36" class="node">
<title>Node36</title>
<g id="a_node36"><a xlink:href="structdKy__tevstr__c.html" target="_top" xlink:title=" ">
<polygon fill="white" stroke="#666666" points="762,-752.66 688,-752.66 688,-733.66 762,-733.66 762,-752.66"/>
<text text-anchor="middle" x="725" y="-740.66" font-family="Helvetica,sans-Serif" font-size="10.00">dKy_tevstr_c</text>
</a>
</g>
</g>
<!-- Node15&#45;&gt;Node36 -->
<g id="edge49" class="edge">
<title>Node15&#45;&gt;Node36</title>
<path fill="none" stroke="#9a32cd" stroke-dasharray="5,2" d="M286.43,-475.61C358.71,-498.24 548.47,-567.2 647,-693.16 657.05,-706.01 652.28,-714.94 665,-725.16 671.51,-730.4 679.53,-734.11 687.54,-736.75"/>
<polygon fill="#9a32cd" stroke="#9a32cd" points="287.9,-472.4 277.31,-472.82 285.85,-479.1 287.9,-472.4"/>
<text text-anchor="middle" x="517" y="-635.16" font-family="Helvetica,sans-Serif" font-size="10.00"> field_0x32c</text>
<text text-anchor="middle" x="517" y="-624.16" font-family="Helvetica,sans-Serif" font-size="10.00">mLightPosWorld</text>
</g>
<!-- Node16 -->
<g id="node16" class="node">
<title>Node16</title>
<g id="a_node16"><a xlink:href="structVec.html" target="_top" xlink:title=" ">
<polygon fill="white" stroke="#666666" points="63,-632.66 29,-632.66 29,-613.66 63,-613.66 63,-632.66"/>
<text text-anchor="middle" x="46" y="-620.66" font-family="Helvetica,sans-Serif" font-size="10.00">Vec</text>
</a>
</g>
</g>
<!-- Node16&#45;&gt;Node15 -->
<g id="edge16" class="edge">
<title>Node16&#45;&gt;Node15</title>
<path fill="none" stroke="#63b8ff" d="M69.55,-606.29C113.08,-573.72 207.44,-503.12 242.25,-477.07"/>
<polygon fill="#63b8ff" stroke="#63b8ff" points="67.48,-603.47 61.57,-612.26 71.68,-609.07 67.48,-603.47"/>
</g>
<!-- Node32 -->
<g id="node32" class="node">
<title>Node32</title>
<g id="a_node32"><a xlink:href="classstage__tresure__class.html" target="_top" xlink:title=" ">
<polygon fill="white" stroke="#666666" points="438,-714.66 334,-714.66 334,-695.66 438,-695.66 438,-714.66"/>
<text text-anchor="middle" x="386" y="-702.66" font-family="Helvetica,sans-Serif" font-size="10.00">stage_tresure_class</text>
</a>
</g>
</g>
<!-- Node16&#45;&gt;Node32 -->
<g id="edge39" class="edge">
<title>Node16&#45;&gt;Node32</title>
<path fill="none" stroke="#9a32cd" stroke-dasharray="5,2" d="M64.27,-640.39C76.12,-651.1 92.75,-664.13 110,-671.16 183.62,-701.17 276.78,-706.6 333.58,-706.69"/>
<polygon fill="#9a32cd" stroke="#9a32cd" points="67,-638.15 57.32,-633.83 62.19,-643.24 67,-638.15"/>
<text text-anchor="middle" x="144.5" y="-694.16" font-family="Helvetica,sans-Serif" font-size="10.00"> mPosition</text>
</g>
<!-- Node16&#45;&gt;Node38 -->
<g id="edge47" class="edge">
<title>Node16&#45;&gt;Node38</title>
<path fill="none" stroke="#9a32cd" stroke-dasharray="5,2" d="M74.39,-623.16C111.78,-623.16 178.87,-623.16 220.06,-623.16"/>
<polygon fill="#9a32cd" stroke="#9a32cd" points="74.87,-619.66 64.87,-623.16 74.87,-626.66 74.87,-619.66"/>
<text text-anchor="middle" x="144.5" y="-659.16" font-family="Helvetica,sans-Serif" font-size="10.00"> mCosAtten</text>
<text text-anchor="middle" x="144.5" y="-648.16" font-family="Helvetica,sans-Serif" font-size="10.00">mDistAtten</text>
<text text-anchor="middle" x="144.5" y="-637.16" font-family="Helvetica,sans-Serif" font-size="10.00">mLightDirection</text>
<text text-anchor="middle" x="144.5" y="-626.16" font-family="Helvetica,sans-Serif" font-size="10.00">mLightPosition</text>
</g>
<!-- Node17 -->
<g id="node17" class="node">
<title>Node17</title>
<g id="a_node17"><a xlink:href="structcsXyz.html" target="_top" xlink:title=" ">
<polygon fill="white" stroke="#666666" points="278,-374.66 235,-374.66 235,-355.66 278,-355.66 278,-374.66"/>
<text text-anchor="middle" x="256.5" y="-362.66" font-family="Helvetica,sans-Serif" font-size="10.00">csXyz</text>
</a>
</g>
</g>
<!-- Node17&#45;&gt;Node14 -->
<g id="edge18" class="edge">
<title>Node17&#45;&gt;Node14</title>
<path fill="none" stroke="#9a32cd" stroke-dasharray="5,2" d="M289.64,-364.4C325.76,-363.77 386.13,-363.37 438,-366.16 444.12,-366.49 450.49,-366.95 456.85,-367.49"/>
<polygon fill="#9a32cd" stroke="#9a32cd" points="289.81,-360.9 279.88,-364.59 289.94,-367.9 289.81,-360.9"/>
<text text-anchor="middle" x="386" y="-369.16" font-family="Helvetica,sans-Serif" font-size="10.00"> mAngle</text>
</g>
<!-- Node17&#45;&gt;Node17 -->
<g id="edge20" class="edge">
<title>Node17&#45;&gt;Node17</title>
<path fill="none" stroke="#9a32cd" stroke-dasharray="5,2" d="M236.62,-386.09C239.11,-389.95 245.73,-392.66 256.5,-392.66 276.19,-392.66 282.03,-383.6 274.03,-375.03"/>
<polygon fill="#9a32cd" stroke="#9a32cd" points="240,-387.02 238.65,-376.51 233.15,-385.57 240,-387.02"/>
<text text-anchor="middle" x="256.5" y="-395.66" font-family="Helvetica,sans-Serif" font-size="10.00"> Zero</text>
</g>
<!-- Node17&#45;&gt;Node25 -->
<g id="edge31" class="edge">
<title>Node17&#45;&gt;Node25</title>
<path fill="none" stroke="#9a32cd" stroke-dasharray="5,2" d="M289.28,-357.16C302.97,-353.96 319.19,-350.49 334,-348.16 374.28,-341.83 419.98,-337.57 455.51,-334.9"/>
<polygon fill="#9a32cd" stroke="#9a32cd" points="288.85,-353.67 279.94,-359.4 290.48,-360.47 288.85,-353.67"/>
<text text-anchor="middle" x="386" y="-351.16" font-family="Helvetica,sans-Serif" font-size="10.00"> mAngle</text>
</g>
<!-- Node18 -->
<g id="node18" class="node">
<title>Node18</title>
<g id="a_node18"><a xlink:href="structSVec.html" target="_top" xlink:title=" ">
<polygon fill="white" stroke="#666666" points="66.5,-374.66 25.5,-374.66 25.5,-355.66 66.5,-355.66 66.5,-374.66"/>
<text text-anchor="middle" x="46" y="-362.66" font-family="Helvetica,sans-Serif" font-size="10.00">SVec</text>
</a>
</g>
</g>
<!-- Node18&#45;&gt;Node17 -->
<g id="edge19" class="edge">
<title>Node18&#45;&gt;Node17</title>
<path fill="none" stroke="#63b8ff" d="M78.47,-365.16C121.62,-365.16 197.94,-365.16 234.64,-365.16"/>
<polygon fill="#63b8ff" stroke="#63b8ff" points="78.51,-361.66 68.51,-365.16 78.51,-368.66 78.51,-361.66"/>
</g>
<!-- Node19&#45;&gt;Node2 -->
<g id="edge21" class="edge">
<title>Node19&#45;&gt;Node2</title>
<path fill="none" stroke="#9a32cd" stroke-dasharray="5,2" d="M570.25,-459.42C664.51,-456.24 869.29,-449.17 1042,-442.16 1081.56,-440.56 1091.77,-443.56 1131,-438.16 1139.77,-436.96 1149.1,-435.12 1157.86,-433.14"/>
<polygon fill="#9a32cd" stroke="#9a32cd" points="570.16,-455.92 560.28,-459.75 570.4,-462.91 570.16,-455.92"/>
<text text-anchor="middle" x="852" y="-454.16" font-family="Helvetica,sans-Serif" font-size="10.00"> mPnt2Info</text>
</g>
<!-- Node21 -->
<g id="node21" class="node">
<title>Node21</title>
<g id="a_node21"><a xlink:href="structdPath.html" target="_top" xlink:title=" ">
<polygon fill="white" stroke="#666666" points="746,-432.66 704,-432.66 704,-413.66 746,-413.66 746,-432.66"/>
<text text-anchor="middle" x="725" y="-420.66" font-family="Helvetica,sans-Serif" font-size="10.00">dPath</text>
</a>
</g>
</g>
<!-- Node19&#45;&gt;Node21 -->
<g id="edge25" class="edge">
<title>Node19&#45;&gt;Node21</title>
<path fill="none" stroke="#9a32cd" stroke-dasharray="5,2" d="M555.09,-447.53C567.89,-443.29 582.43,-438.99 596,-436.16 633.61,-428.32 678.46,-425.14 703.85,-423.91"/>
<polygon fill="#9a32cd" stroke="#9a32cd" points="554.11,-444.16 545.78,-450.71 556.37,-450.79 554.11,-444.16"/>
<text text-anchor="middle" x="621.5" y="-439.16" font-family="Helvetica,sans-Serif" font-size="10.00"> m_points</text>
</g>
<!-- Node20 -->
<g id="node20" class="node">
<title>Node20</title>
<g id="a_node20"><a xlink:href="structdStage__dPath__c.html" target="_top" xlink:title=" ">
<polygon fill="white" stroke="#666666" points="1025,-432.66 936,-432.66 936,-413.66 1025,-413.66 1025,-432.66"/>
<text text-anchor="middle" x="980.5" y="-420.66" font-family="Helvetica,sans-Serif" font-size="10.00">dStage_dPath_c</text>
</a>
</g>
</g>
<!-- Node20&#45;&gt;Node2 -->
<g id="edge23" class="edge">
<title>Node20&#45;&gt;Node2</title>
<path fill="none" stroke="#9a32cd" stroke-dasharray="5,2" d="M1036.7,-423.16C1071.44,-423.16 1115.78,-423.16 1148.77,-423.16"/>
<polygon fill="#9a32cd" stroke="#9a32cd" points="1036.84,-419.66 1026.84,-423.16 1036.84,-426.66 1036.84,-419.66"/>
<text text-anchor="middle" x="1095.5" y="-426.16" font-family="Helvetica,sans-Serif" font-size="10.00"> mPath2Info</text>
</g>
<!-- Node21&#45;&gt;Node20 -->
<g id="edge24" class="edge">
<title>Node21&#45;&gt;Node20</title>
<path fill="none" stroke="#9a32cd" stroke-dasharray="5,2" d="M757.67,-423.16C802.56,-423.16 884.89,-423.16 935.64,-423.16"/>
<polygon fill="#9a32cd" stroke="#9a32cd" points="757.83,-419.66 747.83,-423.16 757.83,-426.66 757.83,-419.66"/>
<text text-anchor="middle" x="852" y="-426.16" font-family="Helvetica,sans-Serif" font-size="10.00"> m_path</text>
</g>
<!-- Node22 -->
<g id="node22" class="node">
<title>Node22</title>
<g id="a_node22"><a xlink:href="structstage__camera__class.html" target="_top" xlink:title=" ">
<polygon fill="white" stroke="#666666" points="1034,-102.66 927,-102.66 927,-83.66 1034,-83.66 1034,-102.66"/>
<text text-anchor="middle" x="980.5" y="-90.66" font-family="Helvetica,sans-Serif" font-size="10.00">stage_camera_class</text>
</a>
</g>
</g>
<!-- Node22&#45;&gt;Node2 -->
<g id="edge26" class="edge">
<title>Node22&#45;&gt;Node2</title>
<path fill="none" stroke="#9a32cd" stroke-dasharray="5,2" d="M1045.85,-83.54C1075.19,-82.82 1108.35,-87.71 1131,-108.16 1177.92,-150.53 1192.31,-364.51 1195,-413.27"/>
<polygon fill="#9a32cd" stroke="#9a32cd" points="1045.73,-80.04 1035.91,-84.02 1046.07,-87.03 1045.73,-80.04"/>
<text text-anchor="middle" x="1095.5" y="-111.16" font-family="Helvetica,sans-Serif" font-size="10.00"> mCamera</text>
</g>
<!-- Node23 -->
<g id="node23" class="node">
<title>Node23</title>
<g id="a_node23"><a xlink:href="structstage__camera2__data__class.html" target="_top" xlink:title=" ">
<polygon fill="white" stroke="#666666" points="778.5,-111.16 671.5,-111.16 671.5,-81.16 778.5,-81.16 778.5,-111.16"/>
<text text-anchor="start" x="679.5" y="-99.16" font-family="Helvetica,sans-Serif" font-size="10.00">stage_camera2_data</text>
<text text-anchor="middle" x="725" y="-88.16" font-family="Helvetica,sans-Serif" font-size="10.00">_class</text>
</a>
</g>
</g>
<!-- Node23&#45;&gt;Node22 -->
<g id="edge27" class="edge">
<title>Node23&#45;&gt;Node22</title>
<path fill="none" stroke="#9a32cd" stroke-dasharray="5,2" d="M790.12,-95.4C832.37,-94.9 887.01,-94.26 926.73,-93.79"/>
<polygon fill="#9a32cd" stroke="#9a32cd" points="790.3,-91.9 780.35,-95.52 790.39,-98.9 790.3,-91.9"/>
<text text-anchor="middle" x="852" y="-99.16" font-family="Helvetica,sans-Serif" font-size="10.00"> field_0x4</text>
</g>
<!-- Node24 -->
<g id="node24" class="node">
<title>Node24</title>
<g id="a_node24"><a xlink:href="structstage__arrow__class.html" target="_top" xlink:title=" ">
<polygon fill="white" stroke="#666666" points="901,-312.66 803,-312.66 803,-293.66 901,-293.66 901,-312.66"/>
<text text-anchor="middle" x="852" y="-300.66" font-family="Helvetica,sans-Serif" font-size="10.00">stage_arrow_class</text>
</a>
</g>
</g>
<!-- Node24&#45;&gt;Node2 -->
<g id="edge28" class="edge">
<title>Node24&#45;&gt;Node2</title>
<path fill="none" stroke="#9a32cd" stroke-dasharray="5,2" d="M912.52,-292.73C972.79,-285.5 1066.12,-283.78 1131,-327.16 1163.72,-349.04 1184.14,-393.69 1191.92,-413.42"/>
<polygon fill="#9a32cd" stroke="#9a32cd" points="912.26,-289.23 902.8,-293.99 913.16,-296.18 912.26,-289.23"/>
<text text-anchor="middle" x="980.5" y="-296.16" font-family="Helvetica,sans-Serif" font-size="10.00"> mArrow</text>
</g>
<!-- Node25&#45;&gt;Node24 -->
<g id="edge29" class="edge">
<title>Node25&#45;&gt;Node24</title>
<path fill="none" stroke="#9a32cd" stroke-dasharray="5,2" d="M589.58,-325.14C653.96,-319.73 746.78,-311.93 802.75,-307.22"/>
<polygon fill="#9a32cd" stroke="#9a32cd" points="589.48,-321.64 579.81,-325.96 590.07,-328.61 589.48,-321.64"/>
<text text-anchor="middle" x="621.5" y="-327.16" font-family="Helvetica,sans-Serif" font-size="10.00"> mEntries</text>
</g>
<!-- Node26 -->
<g id="node26" class="node">
<title>Node26</title>
<g id="a_node26"><a xlink:href="structdStage__MapEventInfo__c.html" target="_top" xlink:title=" ">
<polygon fill="white" stroke="#666666" points="1042,-65.66 919,-65.66 919,-46.66 1042,-46.66 1042,-65.66"/>
<text text-anchor="middle" x="980.5" y="-53.66" font-family="Helvetica,sans-Serif" font-size="10.00">dStage_MapEventInfo_c</text>
</a>
</g>
</g>
<!-- Node26&#45;&gt;Node2 -->
<g id="edge32" class="edge">
<title>Node26&#45;&gt;Node2</title>
<path fill="none" stroke="#9a32cd" stroke-dasharray="5,2" d="M1044.56,-45.41C1074.26,-44.02 1108.11,-48.32 1131,-69.16 1183.77,-117.22 1193.72,-361.52 1195.25,-413.45"/>
<polygon fill="#9a32cd" stroke="#9a32cd" points="1044.65,-41.89 1034.92,-46.08 1045.14,-48.87 1044.65,-41.89"/>
<text text-anchor="middle" x="1095.5" y="-72.16" font-family="Helvetica,sans-Serif" font-size="10.00"> mMapEventInfo</text>
</g>
<!-- Node27 -->
<g id="node27" class="node">
<title>Node27</title>
<g id="a_node27"><a xlink:href="structdStage__MapEvent__dt__c.html" target="_top" xlink:title=" ">
<polygon fill="white" stroke="#666666" points="785,-62.66 665,-62.66 665,-43.66 785,-43.66 785,-62.66"/>
<text text-anchor="middle" x="725" y="-50.66" font-family="Helvetica,sans-Serif" font-size="10.00">dStage_MapEvent_dt_c</text>
</a>
</g>
</g>
<!-- Node27&#45;&gt;Node26 -->
<g id="edge33" class="edge">
<title>Node27&#45;&gt;Node26</title>
<path fill="none" stroke="#9a32cd" stroke-dasharray="5,2" d="M796.53,-54C834.91,-54.45 881.92,-55.01 918.68,-55.44"/>
<polygon fill="#9a32cd" stroke="#9a32cd" points="796.99,-50.5 786.95,-53.88 796.91,-57.5 796.99,-50.5"/>
<text text-anchor="middle" x="852" y="-59.16" font-family="Helvetica,sans-Serif" font-size="10.00"> mData</text>
</g>
<!-- Node28 -->
<g id="node28" class="node">
<title>Node28</title>
<g id="a_node28"><a xlink:href="structdStage__SoundInfo__c.html" target="_top" xlink:title=" ">
<polygon fill="white" stroke="#666666" points="1034,-27.66 927,-27.66 927,-8.66 1034,-8.66 1034,-27.66"/>
<text text-anchor="middle" x="980.5" y="-15.66" font-family="Helvetica,sans-Serif" font-size="10.00">dStage_SoundInfo_c</text>
</a>
</g>
</g>
<!-- Node28&#45;&gt;Node2 -->
<g id="edge34" class="edge">
<title>Node28&#45;&gt;Node2</title>
<path fill="none" stroke="#9a32cd" stroke-dasharray="5,2" d="M1023.32,-5.52C1056.48,1.7 1101.93,4.97 1131,-20.16 1192.65,-73.45 1195.59,-356.28 1195.55,-413.18"/>
<polygon fill="#9a32cd" stroke="#9a32cd" points="1022.53,-2.11 1013.63,-7.85 1024.17,-8.92 1022.53,-2.11"/>
<text text-anchor="middle" x="1095.5" y="-34.16" font-family="Helvetica,sans-Serif" font-size="10.00"> mSoundInf</text>
<text text-anchor="middle" x="1095.5" y="-23.16" font-family="Helvetica,sans-Serif" font-size="10.00">mSoundInfCL</text>
</g>
<!-- Node29 -->
<g id="node29" class="node">
<title>Node29</title>
<g id="a_node29"><a xlink:href="structstage__scls__info__dummy__class.html" target="_top" xlink:title=" ">
<polygon fill="white" stroke="#666666" points="1041.5,-737.16 919.5,-737.16 919.5,-707.16 1041.5,-707.16 1041.5,-737.16"/>
<text text-anchor="start" x="927.5" y="-725.16" font-family="Helvetica,sans-Serif" font-size="10.00">stage_scls_info_dummy</text>
<text text-anchor="middle" x="980.5" y="-714.16" font-family="Helvetica,sans-Serif" font-size="10.00">_class</text>
</a>
</g>
</g>
<!-- Node29&#45;&gt;Node2 -->
<g id="edge35" class="edge">
<title>Node29&#45;&gt;Node2</title>
<path fill="none" stroke="#9a32cd" stroke-dasharray="5,2" d="M1053.08,-719.86C1080.74,-715.39 1110.57,-705.61 1131,-685.16 1167.99,-648.12 1189.56,-476.06 1194.43,-432.97"/>
<polygon fill="#9a32cd" stroke="#9a32cd" points="1052.73,-716.38 1043.31,-721.21 1053.69,-723.31 1052.73,-716.38"/>
<text text-anchor="middle" x="1095.5" y="-721.16" font-family="Helvetica,sans-Serif" font-size="10.00"> mSclsInfo</text>
</g>
<!-- Node30 -->
<g id="node30" class="node">
<title>Node30</title>
<g id="a_node30"><a xlink:href="structstage__scls__info__class.html" target="_top" xlink:title=" ">
<polygon fill="white" stroke="#666666" points="781.5,-715.66 668.5,-715.66 668.5,-696.66 781.5,-696.66 781.5,-715.66"/>
<text text-anchor="middle" x="725" y="-703.66" font-family="Helvetica,sans-Serif" font-size="10.00">stage_scls_info_class</text>
</a>
</g>
</g>
<!-- Node30&#45;&gt;Node29 -->
<g id="edge36" class="edge">
<title>Node30&#45;&gt;Node29</title>
<path fill="none" stroke="#9a32cd" stroke-dasharray="5,2" d="M793.24,-710.41C832.4,-712.88 881.37,-715.97 919.27,-718.36"/>
<polygon fill="#9a32cd" stroke="#9a32cd" points="793.66,-706.93 783.46,-709.79 793.22,-713.91 793.66,-706.93"/>
<text text-anchor="middle" x="852" y="-719.16" font-family="Helvetica,sans-Serif" font-size="10.00"> mEntries</text>
</g>
<!-- Node31 -->
<g id="node31" class="node">
<title>Node31</title>
<g id="a_node31"><a xlink:href="structdStage__Lbnk__c.html" target="_top" xlink:title=" ">
<polygon fill="white" stroke="#666666" points="1023,-774.66 938,-774.66 938,-755.66 1023,-755.66 1023,-774.66"/>
<text text-anchor="middle" x="980.5" y="-762.66" font-family="Helvetica,sans-Serif" font-size="10.00">dStage_Lbnk_c</text>
</a>
</g>
</g>
<!-- Node31&#45;&gt;Node2 -->
<g id="edge37" class="edge">
<title>Node31&#45;&gt;Node2</title>
<path fill="none" stroke="#9a32cd" stroke-dasharray="5,2" d="M1034.85,-767.43C1066.91,-765.82 1106.16,-758.14 1131,-733.16 1174.8,-689.11 1191.53,-481.24 1194.85,-433.12"/>
<polygon fill="#9a32cd" stroke="#9a32cd" points="1034.81,-763.93 1024.92,-767.72 1035.02,-770.92 1034.81,-763.93"/>
<text text-anchor="middle" x="1095.5" y="-767.16" font-family="Helvetica,sans-Serif" font-size="10.00"> mLbnk</text>
</g>
<!-- Node32&#45;&gt;Node2 -->
<g id="edge38" class="edge">
<title>Node32&#45;&gt;Node2</title>
<path fill="none" stroke="#9a32cd" stroke-dasharray="5,2" d="M403.87,-722.82C416.96,-735.54 436.16,-752.15 456,-762.16 523.27,-796.11 545.15,-803.16 620.5,-803.16 620.5,-803.16 620.5,-803.16 981.5,-803.16 1048.8,-803.16 1082.94,-826.27 1131,-779.16 1143.9,-766.52 1185.68,-489.23 1194.04,-433.04"/>
<polygon fill="#9a32cd" stroke="#9a32cd" points="406.46,-720.46 396.92,-715.85 401.5,-725.4 406.46,-720.46"/>
<text text-anchor="middle" x="725" y="-806.16" font-family="Helvetica,sans-Serif" font-size="10.00"> mTreasure</text>
</g>
<!-- Node33 -->
<g id="node33" class="node">
<title>Node33</title>
<g id="a_node33"><a xlink:href="classstage__tgsc__class.html" target="_top" xlink:title=" ">
<polygon fill="white" stroke="#666666" points="1027,-347.66 934,-347.66 934,-328.66 1027,-328.66 1027,-347.66"/>
<text text-anchor="middle" x="980.5" y="-335.66" font-family="Helvetica,sans-Serif" font-size="10.00">stage_tgsc_class</text>
</a>
</g>
</g>
<!-- Node33&#45;&gt;Node2 -->
<g id="edge40" class="edge">
<title>Node33&#45;&gt;Node2</title>
<path fill="none" stroke="#9a32cd" stroke-dasharray="5,2" d="M1038.61,-331.84C1067.69,-331.06 1102.76,-334.04 1131,-348.16 1160.03,-362.68 1181.35,-396.64 1190.52,-413.42"/>
<polygon fill="#9a32cd" stroke="#9a32cd" points="1038.73,-328.33 1028.89,-332.26 1039.03,-335.32 1038.73,-328.33"/>
<text text-anchor="middle" x="1095.5" y="-362.16" font-family="Helvetica,sans-Serif" font-size="10.00"> mDoor</text>
<text text-anchor="middle" x="1095.5" y="-351.16" font-family="Helvetica,sans-Serif" font-size="10.00">mDrTg</text>
</g>
<!-- Node34&#45;&gt;Node33 -->
<g id="edge41" class="edge">
<title>Node34&#45;&gt;Node33</title>
<path fill="none" stroke="#9a32cd" stroke-dasharray="5,2" d="M795.35,-342.52C839.39,-341.48 895.16,-340.16 933.72,-339.25"/>
<polygon fill="#9a32cd" stroke="#9a32cd" points="795.27,-339.02 785.35,-342.76 795.43,-346.02 795.27,-339.02"/>
<text text-anchor="middle" x="852" y="-345.16" font-family="Helvetica,sans-Serif" font-size="10.00"> mData</text>
</g>
<!-- Node35 -->
<g id="node35" class="node">
<title>Node35</title>
<g id="a_node35"><a xlink:href="structdStage__FloorInfo__c.html" target="_top" xlink:title=" ">
<polygon fill="white" stroke="#666666" points="1031,-688.66 930,-688.66 930,-669.66 1031,-669.66 1031,-688.66"/>
<text text-anchor="middle" x="980.5" y="-676.66" font-family="Helvetica,sans-Serif" font-size="10.00">dStage_FloorInfo_c</text>
</a>
</g>
</g>
<!-- Node35&#45;&gt;Node2 -->
<g id="edge43" class="edge">
<title>Node35&#45;&gt;Node2</title>
<path fill="none" stroke="#9a32cd" stroke-dasharray="5,2" d="M1042.62,-674.65C1072.8,-669.38 1107.65,-658.3 1131,-635.16 1190.03,-576.67 1195.36,-465.96 1195.59,-432.79"/>
<polygon fill="#9a32cd" stroke="#9a32cd" points="1042.16,-671.18 1032.81,-676.16 1043.22,-678.09 1042.16,-671.18"/>
<text text-anchor="middle" x="1095.5" y="-673.16" font-family="Helvetica,sans-Serif" font-size="10.00"> mFloorInfo</text>
</g>
<!-- Node36&#45;&gt;Node1 -->
<g id="edge44" class="edge">
<title>Node36&#45;&gt;Node1</title>
<path fill="none" stroke="#9a32cd" stroke-dasharray="5,2" d="M765.89,-756.42C839.7,-778.85 1001.81,-818.19 1131,-779.16 1231.88,-748.68 1335.01,-669.99 1369.47,-642.13"/>
<polygon fill="#9a32cd" stroke="#9a32cd" points="767.28,-753.19 756.69,-753.56 765.2,-759.87 767.28,-753.19"/>
<text text-anchor="middle" x="1095.5" y="-795.16" font-family="Helvetica,sans-Serif" font-size="10.00"> mKyTevStr</text>
</g>
<!-- Node37 -->
<g id="node37" class="node">
<title>Node37</title>
<g id="a_node37"><a xlink:href="structJ3DLightObj.html" target="_top" xlink:title=" ">
<polygon fill="white" stroke="#666666" points="552.5,-677.66 481.5,-677.66 481.5,-658.66 552.5,-658.66 552.5,-677.66"/>
<text text-anchor="middle" x="517" y="-665.66" font-family="Helvetica,sans-Serif" font-size="10.00">J3DLightObj</text>
</a>
</g>
</g>
<!-- Node37&#45;&gt;Node36 -->
<g id="edge45" class="edge">
<title>Node37&#45;&gt;Node36</title>
<path fill="none" stroke="#9a32cd" stroke-dasharray="5,2" d="M555.82,-681.9C581.65,-691.44 616.57,-704.63 647,-717.16 655.1,-720.5 656.8,-722.1 665,-725.16 672.63,-728.01 680.92,-730.75 688.82,-733.2"/>
<polygon fill="#9a32cd" stroke="#9a32cd" points="557.37,-678.74 546.77,-678.58 554.95,-685.31 557.37,-678.74"/>
<text text-anchor="middle" x="621.5" y="-731.16" font-family="Helvetica,sans-Serif" font-size="10.00"> field_0x074</text>
<text text-anchor="middle" x="621.5" y="-720.16" font-family="Helvetica,sans-Serif" font-size="10.00">mLightObj</text>
</g>
<!-- Node38&#45;&gt;Node37 -->
<g id="edge46" class="edge">
<title>Node38&#45;&gt;Node37</title>
<path fill="none" stroke="#9a32cd" stroke-dasharray="5,2" d="M304.23,-631.3C355.11,-640.15 435.32,-654.12 481.03,-662.07"/>
<polygon fill="#9a32cd" stroke="#9a32cd" points="304.84,-627.85 294.39,-629.58 303.64,-634.75 304.84,-627.85"/>
<text text-anchor="middle" x="386" y="-656.16" font-family="Helvetica,sans-Serif" font-size="10.00"> mInfo</text>
</g>
<!-- Node39 -->
<g id="node39" class="node">
<title>Node39</title>
<g id="a_node39"><a xlink:href="struct__GXColorS10.html" target="_top" xlink:title=" ">
<polygon fill="white" stroke="#666666" points="555,-752.66 479,-752.66 479,-733.66 555,-733.66 555,-752.66"/>
<text text-anchor="middle" x="517" y="-740.66" font-family="Helvetica,sans-Serif" font-size="10.00">_GXColorS10</text>
</a>
</g>
</g>
<!-- Node39&#45;&gt;Node36 -->
<g id="edge50" class="edge">
<title>Node39&#45;&gt;Node36</title>
<path fill="none" stroke="#9a32cd" stroke-dasharray="5,2" d="M566.36,-743.16C603.49,-743.16 653.94,-743.16 687.66,-743.16"/>
<polygon fill="#9a32cd" stroke="#9a32cd" points="566.82,-739.66 556.82,-743.16 566.82,-746.66 566.82,-739.66"/>
<text text-anchor="middle" x="621.5" y="-768.16" font-family="Helvetica,sans-Serif" font-size="10.00"> mColorC0</text>
<text text-anchor="middle" x="621.5" y="-757.16" font-family="Helvetica,sans-Serif" font-size="10.00">mColorK0</text>
<text text-anchor="middle" x="621.5" y="-746.16" font-family="Helvetica,sans-Serif" font-size="10.00">mFogColor</text>
</g>
</g>
</svg>
        <g id="navigator" transform="translate(0 0)" fill="#404254">
                <rect fill="#f2f5e9" fill-opacity="0.5" stroke="#606060" stroke-width=".5" x="0" y="0" width="60" height="60"/>
                <use id="zoomplus" xlink:href="#zoomPlus" x="17" y="9" onmousedown="handleZoom(evt,'in')"/>
                <use id="zoomminus" xlink:href="#zoomMin" x="42" y="9" onmousedown="handleZoom(evt,'out')"/>
                <use id="reset" xlink:href="#resetDef" x="30" y="36" onmousedown="handleReset()"/>
                <g id="arrowUp" xlink:href="#dirArrow" transform="translate(30 24)" onmousedown="handlePan(0,-1)">
                  <use xlink:href="#rim" fill="#404040">
                        <set attributeName="fill" to="#808080" begin="arrowUp.mouseover" end="arrowUp.mouseout"/>
                  </use>
                  <path fill="none" stroke="white" stroke-width="1.5" d="M0,-3.0v7 M-2.5,-0.5L0,-3.0L2.5,-0.5"/>
                </g>
                <g id="arrowRight" xlink:href="#dirArrow" transform="rotate(90) translate(36 -43)" onmousedown="handlePan(1,0)">
                  <use xlink:href="#rim" fill="#404040">
                        <set attributeName="fill" to="#808080" begin="arrowRight.mouseover" end="arrowRight.mouseout"/>
                  </use>
                  <path fill="none" stroke="white" stroke-width="1.5" d="M0,-3.0v7 M-2.5,-0.5L0,-3.0L2.5,-0.5"/>
                </g>
                <g id="arrowDown" xlink:href="#dirArrow" transform="rotate(180) translate(-30 -48)" onmousedown="handlePan(0,1)">
                  <use xlink:href="#rim" fill="#404040">
                        <set attributeName="fill" to="#808080" begin="arrowDown.mouseover" end="arrowDown.mouseout"/>
                  </use>
                  <path fill="none" stroke="white" stroke-width="1.5" d="M0,-3.0v7 M-2.5,-0.5L0,-3.0L2.5,-0.5"/>
                </g>
                <g id="arrowLeft" xlink:href="#dirArrow" transform="rotate(270) translate(-36 17)" onmousedown="handlePan(-1,0)">
                  <use xlink:href="#rim" fill="#404040">
                        <set attributeName="fill" to="#808080" begin="arrowLeft.mouseover" end="arrowLeft.mouseout"/>
                  </use>
                  <path fill="none" stroke="white" stroke-width="1.5" d="M0,-3.0v7 M-2.5,-0.5L0,-3.0L2.5,-0.5"/>
                </g>
        </g>
        <svg viewBox="0 0 15 15" width="100%" height="30px" preserveAspectRatio="xMaxYMin meet">
         <g id="arrow_out" transform="scale(0.3 0.3)">
          <a xlink:href="classdStage__roomStatus__c__coll__graph_org.svg" target="_base">
           <rect id="button" ry="5" rx="5" y="6" x="6" height="38" width="38"
                fill="#f2f5e9" fill-opacity="0.5" stroke="#606060" stroke-width="1.0"/>
           <path id="arrow"
             d="M 11.500037,31.436501 C 11.940474,20.09759 22.043105,11.32322 32.158766,21.979434 L 37.068811,17.246167 C 37.068811,17.246167 37.088388,32 37.088388,32 L 22.160133,31.978069 C 22.160133,31.978069 26.997745,27.140456 26.997745,27.140456 C 18.528582,18.264221 13.291696,25.230495 11.500037,31.436501 z"
             style="fill:#404040;"/>
          </a>
         </g>
        </svg>
</svg>
