<?xml version="1.0" encoding="UTF-8" standalone="no"?>
<!DOCTYPE svg PUBLIC "-//W3C//DTD SVG 1.1//EN"
 "http://www.w3.org/Graphics/SVG/1.1/DTD/svg11.dtd">
<!-- Generated by graphviz version 9.0.0 (20230911.1827)
 -->
<!-- Title: JUTPalette Pages: 1 -->
<svg width="164pt" height="94pt"
 viewBox="0.00 0.00 163.50 93.75" xmlns="http://www.w3.org/2000/svg" xmlns:xlink="http://www.w3.org/1999/xlink">
<g id="graph0" class="graph" transform="scale(1 1) rotate(0) translate(4 89.75)">
<title>JUTPalette</title>
<!-- Node1 -->
<g id="Node000001" class="node">
<title>Node1</title>
<g id="a_Node000001"><a xlink:title=" ">
<polygon fill="#999999" stroke="#666666" points="106.25,-19.25 40.75,-19.25 40.75,0 106.25,0 106.25,-19.25"/>
<text text-anchor="middle" x="73.5" y="-5.75" font-family="Helvetica,sans-Serif" font-size="10.00">JUTPalette</text>
</a>
</g>
</g>
<!-- Node2 -->
<g id="Node000002" class="node">
<title>Node2</title>
<g id="a_Node000002"><a xlink:href="struct__GXTlutObj.html" target="_top" xlink:title=" ">
<polygon fill="white" stroke="#666666" points="67,-85.75 0,-85.75 0,-66.5 67,-66.5 67,-85.75"/>
<text text-anchor="middle" x="33.5" y="-72.25" font-family="Helvetica,sans-Serif" font-size="10.00">_GXTlutObj</text>
</a>
</g>
</g>
<!-- Node2&#45;&gt;Node1 -->
<g id="edge1_Node000001_Node000002" class="edge">
<title>Node2&#45;&gt;Node1</title>
<g id="a_edge1_Node000001_Node000002"><a xlink:title=" ">
<path fill="none" stroke="#9a32cd" stroke-dasharray="5,2" d="M41.05,-55.42C43.7,-49.39 46.91,-42.88 50.5,-37.25 54.57,-30.86 60.09,-24.42 64.71,-19.47"/>
<polygon fill="#9a32cd" stroke="#9a32cd" points="37.83,-54.04 37.29,-64.62 44.31,-56.69 37.83,-54.04"/>
</a>
</g>
<text text-anchor="middle" x="71.5" y="-39" font-family="Helvetica,sans-Serif" font-size="10.00" fill="grey"> mTlutObj</text>
</g>
<!-- Node3 -->
<g id="Node000003" class="node">
<title>Node3</title>
<g id="a_Node000003"><a xlink:href="structResTLUT.html" target="_top" xlink:title=" ">
<polygon fill="white" stroke="#666666" points="143.88,-85.75 85.12,-85.75 85.12,-66.5 143.88,-66.5 143.88,-85.75"/>
<text text-anchor="middle" x="114.5" y="-72.25" font-family="Helvetica,sans-Serif" font-size="10.00">ResTLUT</text>
</a>
</g>
</g>
<!-- Node3&#45;&gt;Node1 -->
<g id="edge2_Node000001_Node000003" class="edge">
<title>Node3&#45;&gt;Node1</title>
<g id="a_edge2_Node000001_Node000003"><a xlink:title=" ">
<path fill="none" stroke="#9a32cd" stroke-dasharray="5,2" d="M104.25,-56.69C100.66,-50.44 96.51,-43.47 92.5,-37.25 88.56,-31.14 83.81,-24.49 80.04,-19.36"/>
<polygon fill="#9a32cd" stroke="#9a32cd" points="100.95,-57.96 108.92,-64.94 107.04,-54.51 100.95,-57.96"/>
</a>
</g>
<text text-anchor="middle" x="127" y="-39" font-family="Helvetica,sans-Serif" font-size="10.00" fill="grey"> mColorTable</text>
</g>
</g>
</svg>
