<?xml version="1.0" encoding="UTF-8" standalone="no"?>
<!DOCTYPE svg PUBLIC "-//W3C//DTD SVG 1.1//EN"
 "http://www.w3.org/Graphics/SVG/1.1/DTD/svg11.dtd">
<!-- Generated by graphviz version 2.50.0 (20220203.2022)
 -->
<!-- Title: dAttList_c Pages: 1 -->
<svg width="106pt" height="130pt"
 viewBox="0.00 0.00 105.50 130.00" xmlns="http://www.w3.org/2000/svg" xmlns:xlink="http://www.w3.org/1999/xlink">
<g id="graph0" class="graph" transform="scale(1 1) rotate(0) translate(4 126)">
<title>dAttList_c</title>
<polygon fill="white" stroke="transparent" points="-4,4 -4,-126 101.5,-126 101.5,4 -4,4"/>
<!-- Node1 -->
<g id="node1" class="node">
<title>Node1</title>
<g id="a_node1"><a xlink:title=" ">
<polygon fill="#bfbfbf" stroke="black" points="0,-0.5 0,-19.5 62,-19.5 62,-0.5 0,-0.5"/>
<text text-anchor="middle" x="31" y="-7.5" font-family="Helvetica,sans-Serif" font-size="10.00">dAttList_c</text>
</a>
</g>
</g>
<!-- Node2 -->
<g id="node2" class="node">
<title>Node2</title>
<g id="a_node2"><a xlink:href="structcSAngle.html" target="_top" xlink:title=" ">
<polygon fill="white" stroke="black" points="4.5,-85 4.5,-104 57.5,-104 57.5,-85 4.5,-85"/>
<text text-anchor="middle" x="31" y="-92" font-family="Helvetica,sans-Serif" font-size="10.00">cSAngle</text>
</a>
</g>
</g>
<!-- Node2&#45;&gt;Node1 -->
<g id="edge1" class="edge">
<title>Node2&#45;&gt;Node1</title>
<path fill="none" stroke="#9a32cd" stroke-dasharray="5,2" d="M31,-74.93C31,-57.63 31,-32.61 31,-19.6"/>
<polygon fill="#9a32cd" stroke="#9a32cd" points="27.5,-74.98 31,-84.98 34.5,-74.98 27.5,-74.98"/>
<text text-anchor="middle" x="44" y="-41" font-family="Helvetica,sans-Serif" font-size="10.00"> angle</text>
</g>
<!-- Node2&#45;&gt;Node2 -->
<g id="edge2" class="edge">
<title>Node2&#45;&gt;Node2</title>
<path fill="none" stroke="#9a32cd" stroke-dasharray="5,2" d="M68.09,-102.58C72.57,-101.12 75.5,-98.43 75.5,-94.5 75.5,-88.05 67.61,-84.93 57.94,-85.13"/>
<polygon fill="#9a32cd" stroke="#9a32cd" points="67.42,-99.14 57.94,-103.87 68.3,-106.08 67.42,-99.14"/>
<text text-anchor="middle" x="86.5" y="-114" font-family="Helvetica,sans-Serif" font-size="10.00"> _0</text>
<text text-anchor="middle" x="86.5" y="-103" font-family="Helvetica,sans-Serif" font-size="10.00">_1</text>
<text text-anchor="middle" x="86.5" y="-92" font-family="Helvetica,sans-Serif" font-size="10.00">_180</text>
<text text-anchor="middle" x="86.5" y="-81" font-family="Helvetica,sans-Serif" font-size="10.00">_270</text>
<text text-anchor="middle" x="86.5" y="-70" font-family="Helvetica,sans-Serif" font-size="10.00">_90</text>
</g>
</g>
</svg>
