<?xml version="1.0" encoding="UTF-8" standalone="no"?>
<!DOCTYPE svg PUBLIC "-//W3C//DTD SVG 1.1//EN"
 "http://www.w3.org/Graphics/SVG/1.1/DTD/svg11.dtd">
<!-- Generated by graphviz version 9.0.0 (20230911.1827)
 -->
<!-- Title: scene_request_class Pages: 1 -->
<svg width="1847pt" height="623pt"
 viewBox="0.00 0.00 1847.25 622.50" xmlns="http://www.w3.org/2000/svg" xmlns:xlink="http://www.w3.org/1999/xlink">
<g id="graph0" class="graph" transform="scale(1 1) rotate(0) translate(4 618.5)">
<title>scene_request_class</title>
<!-- Node1 -->
<g id="Node000001" class="node">
<title>Node1</title>
<g id="a_Node000001"><a xlink:title=" ">
<polygon fill="#999999" stroke="#666666" points="1839.25,-49.88 1731,-49.88 1731,-30.62 1839.25,-30.62 1839.25,-49.88"/>
<text text-anchor="middle" x="1785.12" y="-36.38" font-family="Helvetica,sans-Serif" font-size="10.00">scene_request_class</text>
</a>
</g>
</g>
<!-- Node2 -->
<g id="Node000002" class="node">
<title>Node2</title>
<g id="a_Node000002"><a xlink:href="structnode__create__request.html" target="_top" xlink:title=" ">
<polygon fill="white" stroke="#666666" points="1649.62,-118.88 1542.88,-118.88 1542.88,-99.62 1649.62,-99.62 1649.62,-118.88"/>
<text text-anchor="middle" x="1596.25" y="-105.38" font-family="Helvetica,sans-Serif" font-size="10.00">node_create_request</text>
</a>
</g>
</g>
<!-- Node2&#45;&gt;Node1 -->
<g id="edge1_Node000001_Node000002" class="edge">
<title>Node2&#45;&gt;Node1</title>
<g id="a_edge1_Node000001_Node000002"><a xlink:title=" ">
<path fill="none" stroke="#9a32cd" stroke-dasharray="5,2" d="M1635.04,-95.3C1671.18,-81.95 1724.8,-62.16 1756.92,-50.3"/>
<polygon fill="#9a32cd" stroke="#9a32cd" points="1634.01,-91.95 1625.84,-98.69 1636.44,-98.51 1634.01,-91.95"/>
</a>
</g>
<text text-anchor="middle" x="1692.75" y="-82" font-family="Helvetica,sans-Serif" font-size="10.00" fill="grey"> mCrtReq</text>
</g>
<!-- Node3 -->
<g id="Node000003" class="node">
<title>Node3</title>
<g id="a_Node000003"><a xlink:href="structcreate__tag__class.html" target="_top" xlink:title=" ">
<polygon fill="white" stroke="#666666" points="230.75,-232.88 140.5,-232.88 140.5,-213.62 230.75,-213.62 230.75,-232.88"/>
<text text-anchor="middle" x="185.62" y="-219.38" font-family="Helvetica,sans-Serif" font-size="10.00">create_tag_class</text>
</a>
</g>
</g>
<!-- Node3&#45;&gt;Node2 -->
<g id="edge2_Node000002_Node000003" class="edge">
<title>Node3&#45;&gt;Node2</title>
<g id="a_edge2_Node000002_Node000003"><a xlink:title=" ">
<path fill="none" stroke="#9a32cd" stroke-dasharray="5,2" d="M196.37,-202.98C206.9,-182.83 225.38,-152.13 248.75,-132.25 301.41,-87.45 320.48,-66.25 389.62,-66.25 389.62,-66.25 389.62,-66.25 1339.75,-66.25 1418.69,-66.25 1509.48,-86.46 1558.76,-99.17"/>
<polygon fill="#9a32cd" stroke="#9a32cd" points="193.27,-201.35 191.9,-211.86 199.52,-204.49 193.27,-201.35"/>
</a>
</g>
<text text-anchor="middle" x="887.88" y="-68" font-family="Helvetica,sans-Serif" font-size="10.00" fill="grey"> mCreateTag</text>
</g>
<!-- Node5 -->
<g id="Node000005" class="node">
<title>Node5</title>
<g id="a_Node000005"><a xlink:href="structprocess__method__tag__class.html" target="_top" xlink:title=" ">
<polygon fill="white" stroke="#666666" points="444,-216.5 337.25,-216.5 337.25,-186 444,-186 444,-216.5"/>
<text text-anchor="start" x="345.25" y="-203" font-family="Helvetica,sans-Serif" font-size="10.00">process_method_tag</text>
<text text-anchor="middle" x="390.62" y="-191.75" font-family="Helvetica,sans-Serif" font-size="10.00">_class</text>
</a>
</g>
</g>
<!-- Node3&#45;&gt;Node5 -->
<g id="edge6_Node000005_Node000003" class="edge">
<title>Node3&#45;&gt;Node5</title>
<g id="a_edge6_Node000005_Node000003"><a xlink:title=" ">
<path fill="none" stroke="#9a32cd" stroke-dasharray="5,2" d="M242.19,-214.82C244.41,-214.53 246.6,-214.26 248.75,-214 277.89,-210.52 310.52,-207.51 337.03,-205.29"/>
<polygon fill="#9a32cd" stroke="#9a32cd" points="241.98,-211.31 232.54,-216.12 242.92,-218.25 241.98,-211.31"/>
</a>
</g>
<text text-anchor="middle" x="276.5" y="-215" font-family="Helvetica,sans-Serif" font-size="10.00" fill="grey"> mCreateTag</text>
</g>
<!-- Node14 -->
<g id="Node000014" class="node">
<title>Node14</title>
<g id="a_Node000014"><a xlink:href="structcreate__tag.html" target="_top" xlink:title=" ">
<polygon fill="white" stroke="#666666" points="421.5,-253.88 359.75,-253.88 359.75,-234.62 421.5,-234.62 421.5,-253.88"/>
<text text-anchor="middle" x="390.62" y="-240.38" font-family="Helvetica,sans-Serif" font-size="10.00">create_tag</text>
</a>
</g>
</g>
<!-- Node3&#45;&gt;Node14 -->
<g id="edge16_Node000014_Node000003" class="edge">
<title>Node3&#45;&gt;Node14</title>
<g id="a_edge16_Node000014_Node000003"><a xlink:title=" ">
<path fill="none" stroke="#9a32cd" stroke-dasharray="5,2" d="M242.51,-229.03C280.23,-232.93 328.56,-237.93 359.32,-241.11"/>
<polygon fill="#9a32cd" stroke="#9a32cd" points="242.99,-225.56 232.68,-228.01 242.27,-232.52 242.99,-225.56"/>
</a>
</g>
<text text-anchor="middle" x="276.5" y="-236" font-family="Helvetica,sans-Serif" font-size="10.00" fill="grey"> mBase</text>
</g>
<!-- Node19 -->
<g id="Node000019" class="node">
<title>Node19</title>
<g id="a_Node000019"><a xlink:href="structlayer__management__tag__class.html" target="_top" xlink:title=" ">
<polygon fill="white" stroke="#666666" points="1654.5,-433.5 1538,-433.5 1538,-403 1654.5,-403 1654.5,-433.5"/>
<text text-anchor="start" x="1546" y="-420" font-family="Helvetica,sans-Serif" font-size="10.00">layer_management_tag</text>
<text text-anchor="middle" x="1596.25" y="-408.75" font-family="Helvetica,sans-Serif" font-size="10.00">_class</text>
</a>
</g>
</g>
<!-- Node3&#45;&gt;Node19 -->
<g id="edge28_Node000019_Node000003" class="edge">
<title>Node3&#45;&gt;Node19</title>
<g id="a_edge28_Node000019_Node000003"><a xlink:title=" ">
<path fill="none" stroke="#9a32cd" stroke-dasharray="5,2" d="M191.51,-244.45C203.88,-292.73 241.36,-410.72 322.25,-462.25 737.24,-726.6 1392.49,-498.2 1556.88,-433.89"/>
<polygon fill="#9a32cd" stroke="#9a32cd" points="194.91,-243.62 189.14,-234.74 188.11,-245.28 194.91,-243.62"/>
</a>
</g>
<text text-anchor="middle" x="887.88" y="-588" font-family="Helvetica,sans-Serif" font-size="10.00" fill="grey"> mCreateTag</text>
</g>
<!-- Node20 -->
<g id="Node000020" class="node">
<title>Node20</title>
<g id="a_Node000020"><a xlink:href="structline__tag.html" target="_top" xlink:title=" ">
<polygon fill="white" stroke="#666666" points="529.62,-186.88 479.88,-186.88 479.88,-167.62 529.62,-167.62 529.62,-186.88"/>
<text text-anchor="middle" x="504.75" y="-173.38" font-family="Helvetica,sans-Serif" font-size="10.00">line_tag</text>
</a>
</g>
</g>
<!-- Node3&#45;&gt;Node20 -->
<g id="edge31_Node000020_Node000003" class="edge">
<title>Node3&#45;&gt;Node20</title>
<g id="a_edge31_Node000020_Node000003"><a xlink:title=" ">
<path fill="none" stroke="#9a32cd" stroke-dasharray="5,2" d="M214.23,-208.03C224.79,-202.68 237.1,-197.02 248.75,-193 329.68,-165.09 433.52,-170.31 479.72,-174.57"/>
<polygon fill="#9a32cd" stroke="#9a32cd" points="212.93,-204.76 205.69,-212.49 216.17,-210.96 212.93,-204.76"/>
</a>
</g>
<text text-anchor="middle" x="276.5" y="-194" font-family="Helvetica,sans-Serif" font-size="10.00" fill="grey"> mBase</text>
</g>
<!-- Node21 -->
<g id="Node000021" class="node">
<title>Node21</title>
<g id="a_Node000021"><a xlink:href="structdelete__tag__class.html" target="_top" xlink:title=" ">
<polygon fill="white" stroke="#666666" points="1641,-275.88 1551.5,-275.88 1551.5,-256.62 1641,-256.62 1641,-275.88"/>
<text text-anchor="middle" x="1596.25" y="-262.38" font-family="Helvetica,sans-Serif" font-size="10.00">delete_tag_class</text>
</a>
</g>
</g>
<!-- Node3&#45;&gt;Node21 -->
<g id="edge33_Node000021_Node000003" class="edge">
<title>Node3&#45;&gt;Node21</title>
<g id="a_edge33_Node000021_Node000003"><a xlink:title=" ">
<path fill="none" stroke="#9a32cd" stroke-dasharray="5,2" d="M204.41,-205.6C237.71,-174.51 313.05,-113.25 389.62,-113.25 389.62,-113.25 389.62,-113.25 756.25,-113.25 849.29,-113.25 866.92,-150.84 958.5,-167.25 1154.8,-202.43 1216.01,-146.3 1405.25,-209.25 1414.15,-212.21 1414.63,-216.56 1423.25,-220.25 1465.16,-238.21 1515.87,-250.75 1551.33,-258.14"/>
<polygon fill="#9a32cd" stroke="#9a32cd" points="202.06,-203 197.26,-212.44 206.91,-208.05 202.06,-203"/>
</a>
</g>
<text text-anchor="middle" x="887.88" y="-165" font-family="Helvetica,sans-Serif" font-size="10.00" fill="grey"> mBase</text>
</g>
<!-- Node22 -->
<g id="Node000022" class="node">
<title>Node22</title>
<g id="a_Node000022"><a xlink:href="structprocess__priority__class.html" target="_top" xlink:title=" ">
<polygon fill="white" stroke="#666666" points="669.25,-355.88 556.5,-355.88 556.5,-336.62 669.25,-336.62 669.25,-355.88"/>
<text text-anchor="middle" x="612.88" y="-342.38" font-family="Helvetica,sans-Serif" font-size="10.00">process_priority_class</text>
</a>
</g>
</g>
<!-- Node3&#45;&gt;Node22 -->
<g id="edge36_Node000022_Node000003" class="edge">
<title>Node3&#45;&gt;Node22</title>
<g id="a_edge36_Node000022_Node000003"><a xlink:title=" ">
<path fill="none" stroke="#9a32cd" stroke-dasharray="5,2" d="M206.57,-240.45C231.7,-261.07 277.09,-294.87 322.25,-311.25 400.1,-339.48 496.65,-345.93 556.25,-346.9"/>
<polygon fill="#9a32cd" stroke="#9a32cd" points="209.05,-237.96 199.13,-234.23 204.56,-243.33 209.05,-237.96"/>
</a>
</g>
<text text-anchor="middle" x="390.62" y="-342" font-family="Helvetica,sans-Serif" font-size="10.00" fill="grey"> mBase</text>
</g>
<!-- Node4 -->
<g id="Node000004" class="node">
<title>Node4</title>
<g id="a_Node000004"><a xlink:href="structnode__class.html" target="_top" xlink:title=" ">
<polygon fill="white" stroke="#666666" points="65.5,-561.88 0,-561.88 0,-542.62 65.5,-542.62 65.5,-561.88"/>
<text text-anchor="middle" x="32.75" y="-548.38" font-family="Helvetica,sans-Serif" font-size="10.00">node_class</text>
</a>
</g>
</g>
<!-- Node4&#45;&gt;Node3 -->
<g id="edge3_Node000003_Node000004" class="edge">
<title>Node4&#45;&gt;Node3</title>
<g id="a_edge3_Node000003_Node000004"><a xlink:title=" ">
<path fill="none" stroke="#9a32cd" stroke-dasharray="5,2" d="M42.91,-532.27C71.64,-469.62 159.26,-278.57 180.13,-233.06"/>
<polygon fill="#9a32cd" stroke="#9a32cd" points="39.88,-530.48 38.9,-541.03 46.25,-533.4 39.88,-530.48"/>
</a>
</g>
<text text-anchor="middle" x="103" y="-438" font-family="Helvetica,sans-Serif" font-size="10.00" fill="grey"> mpNode</text>
</g>
<!-- Node4&#45;&gt;Node4 -->
<g id="edge4_Node000004_Node000004" class="edge">
<title>Node4&#45;&gt;Node4</title>
<g id="a_edge4_Node000004_Node000004"><a xlink:title=" ">
<path fill="none" stroke="#9a32cd" stroke-dasharray="5,2" d="M20.28,-573.28C21.84,-577.15 26,-579.88 32.75,-579.88 45.1,-579.88 48.76,-570.77 43.75,-562.16"/>
<polygon fill="#9a32cd" stroke="#9a32cd" points="23.71,-574.04 21.55,-563.66 16.77,-573.12 23.71,-574.04"/>
</a>
</g>
<text text-anchor="middle" x="32.75" y="-592.88" font-family="Helvetica,sans-Serif" font-size="10.00" fill="grey"> mpNextNode</text>
<text text-anchor="middle" x="32.75" y="-581.62" font-family="Helvetica,sans-Serif" font-size="10.00" fill="grey">mpPrevNode</text>
</g>
<!-- Node16 -->
<g id="Node000016" class="node">
<title>Node16</title>
<g id="a_Node000016"><a xlink:href="structlayer__class.html" target="_top" xlink:title=" ">
<polygon fill="white" stroke="#666666" points="1371.12,-389.88 1306.38,-389.88 1306.38,-370.62 1371.12,-370.62 1371.12,-389.88"/>
<text text-anchor="middle" x="1338.75" y="-376.38" font-family="Helvetica,sans-Serif" font-size="10.00">layer_class</text>
</a>
</g>
</g>
<!-- Node4&#45;&gt;Node16 -->
<g id="edge21_Node000016_Node000004" class="edge">
<title>Node4&#45;&gt;Node16</title>
<g id="a_edge21_Node000016_Node000004"><a xlink:title=" ">
<path fill="none" stroke="#9a32cd" stroke-dasharray="5,2" d="M61.18,-567.56C90.72,-582.58 139.56,-603.25 184.62,-603.25 184.62,-603.25 184.62,-603.25 756.25,-603.25 983.31,-603.25 1068.53,-619.88 1254.25,-489.25 1292.86,-462.1 1321.69,-411.74 1332.78,-390.32"/>
<polygon fill="#9a32cd" stroke="#9a32cd" points="63.04,-564.58 52.56,-563.03 59.78,-570.77 63.04,-564.58"/>
</a>
</g>
<text text-anchor="middle" x="612.88" y="-605" font-family="Helvetica,sans-Serif" font-size="10.00" fill="grey"> mNode</text>
</g>
<!-- Node18 -->
<g id="Node000018" class="node">
<title>Node18</title>
<g id="a_Node000018"><a xlink:href="structnode__list__class.html" target="_top" xlink:title=" ">
<polygon fill="white" stroke="#666666" points="929.62,-493.88 846.12,-493.88 846.12,-474.62 929.62,-474.62 929.62,-493.88"/>
<text text-anchor="middle" x="887.88" y="-480.38" font-family="Helvetica,sans-Serif" font-size="10.00">node_list_class</text>
</a>
</g>
</g>
<!-- Node4&#45;&gt;Node18 -->
<g id="edge24_Node000018_Node000004" class="edge">
<title>Node4&#45;&gt;Node18</title>
<g id="a_edge24_Node000018_Node000004"><a xlink:title=" ">
<path fill="none" stroke="#9a32cd" stroke-dasharray="5,2" d="M77.22,-552.25C107.36,-552.25 148.44,-552.25 184.62,-552.25 184.62,-552.25 184.62,-552.25 505.75,-552.25 635.97,-552.25 787.39,-513.3 853.33,-494.36"/>
<polygon fill="#9a32cd" stroke="#9a32cd" points="77.34,-548.75 67.34,-552.25 77.34,-555.75 77.34,-548.75"/>
</a>
</g>
<text text-anchor="middle" x="390.62" y="-565.25" font-family="Helvetica,sans-Serif" font-size="10.00" fill="grey"> mpHead</text>
<text text-anchor="middle" x="390.62" y="-554" font-family="Helvetica,sans-Serif" font-size="10.00" fill="grey">mpTail</text>
</g>
<!-- Node5&#45;&gt;Node2 -->
<g id="edge5_Node000002_Node000005" class="edge">
<title>Node5&#45;&gt;Node2</title>
<g id="a_edge5_Node000002_Node000005"><a xlink:title=" ">
<path fill="none" stroke="#9a32cd" stroke-dasharray="5,2" d="M434.11,-181.04C447.56,-175.41 462.66,-169.86 477,-166.25 535.45,-151.56 551.61,-152.25 611.88,-152.25 611.88,-152.25 611.88,-152.25 1220.38,-152.25 1354.12,-152.25 1387.66,-143.57 1520,-124.25 1529.23,-122.9 1539.03,-121.17 1548.41,-119.37"/>
<polygon fill="#9a32cd" stroke="#9a32cd" points="432.9,-177.75 425.11,-184.94 435.68,-184.18 432.9,-177.75"/>
</a>
</g>
<text text-anchor="middle" x="998.25" y="-154" font-family="Helvetica,sans-Serif" font-size="10.00" fill="grey"> mProcMthCls</text>
</g>
<!-- Node13 -->
<g id="Node000013" class="node">
<title>Node13</title>
<g id="a_Node000013"><a xlink:href="structcreate__request.html" target="_top" xlink:title=" ">
<polygon fill="white" stroke="#666666" points="653.12,-276.88 572.62,-276.88 572.62,-257.62 653.12,-257.62 653.12,-276.88"/>
<text text-anchor="middle" x="612.88" y="-263.38" font-family="Helvetica,sans-Serif" font-size="10.00">create_request</text>
</a>
</g>
</g>
<!-- Node5&#45;&gt;Node13 -->
<g id="edge17_Node000013_Node000005" class="edge">
<title>Node5&#45;&gt;Node13</title>
<g id="a_edge17_Node000013_Node000005"><a xlink:title=" ">
<path fill="none" stroke="#9a32cd" stroke-dasharray="5,2" d="M455.38,-216.47C479.67,-222.64 507.51,-230.16 532.5,-238 550.86,-243.76 571.21,-251.29 586.71,-257.26"/>
<polygon fill="#9a32cd" stroke="#9a32cd" points="456.51,-213.15 445.96,-214.11 454.8,-219.94 456.51,-213.15"/>
</a>
</g>
<text text-anchor="middle" x="504.75" y="-239" font-family="Helvetica,sans-Serif" font-size="10.00" fill="grey"> mMtdTg</text>
</g>
<!-- Node5&#45;&gt;Node22 -->
<g id="edge37_Node000022_Node000005" class="edge">
<title>Node5&#45;&gt;Node22</title>
<g id="a_edge37_Node000022_Node000005"><a xlink:title=" ">
<path fill="none" stroke="#9a32cd" stroke-dasharray="5,2" d="M453.99,-220.58C455.77,-222.03 457.45,-223.58 459,-225.25 479.42,-247.2 457.1,-267.83 477,-290.25 494.7,-310.19 507.87,-302.79 532.5,-313 551.13,-320.72 572.19,-329.55 587.93,-336.16"/>
<polygon fill="#9a32cd" stroke="#9a32cd" points="455.94,-217.67 445.67,-215.05 452.06,-223.5 455.94,-217.67"/>
</a>
</g>
<text text-anchor="middle" x="504.75" y="-314" font-family="Helvetica,sans-Serif" font-size="10.00" fill="grey"> mMtdTag</text>
</g>
<!-- Node6 -->
<g id="Node000006" class="node">
<title>Node6</title>
<g id="a_Node000006"><a xlink:href="structrequest__of__phase__process__class.html" target="_top" xlink:title=" ">
<polygon fill="white" stroke="#666666" points="1405.25,-30.5 1272.25,-30.5 1272.25,0 1405.25,0 1405.25,-30.5"/>
<text text-anchor="start" x="1280.25" y="-17" font-family="Helvetica,sans-Serif" font-size="10.00">request_of_phase_process</text>
<text text-anchor="middle" x="1338.75" y="-5.75" font-family="Helvetica,sans-Serif" font-size="10.00">_class</text>
</a>
</g>
</g>
<!-- Node6&#45;&gt;Node1 -->
<g id="edge45_Node000001_Node000006" class="edge">
<title>Node6&#45;&gt;Node1</title>
<g id="a_edge45_Node000001_Node000006"><a xlink:title=" ">
<path fill="none" stroke="#9a32cd" stroke-dasharray="5,2" d="M1417.17,-17.17C1449.04,-18.13 1486.3,-19.48 1520,-21.25 1593,-25.09 1677.21,-31.49 1730.54,-35.79"/>
<polygon fill="#9a32cd" stroke="#9a32cd" points="1417.31,-13.68 1407.21,-16.88 1417.1,-20.67 1417.31,-13.68"/>
</a>
</g>
<text text-anchor="middle" x="1596.25" y="-32" font-family="Helvetica,sans-Serif" font-size="10.00" fill="grey"> mReqPhsProcCls</text>
</g>
<!-- Node6&#45;&gt;Node2 -->
<g id="edge7_Node000002_Node000006" class="edge">
<title>Node6&#45;&gt;Node2</title>
<g id="a_edge7_Node000002_Node000006"><a xlink:title=" ">
<path fill="none" stroke="#9a32cd" stroke-dasharray="5,2" d="M1416.61,-21.72C1456.97,-26.01 1501.76,-32.43 1520,-41 1549.37,-54.8 1575.4,-84.02 1587.71,-99.37"/>
<polygon fill="#9a32cd" stroke="#9a32cd" points="1417.17,-18.26 1406.87,-20.72 1416.46,-25.22 1417.17,-18.26"/>
</a>
</g>
<text text-anchor="middle" x="1471.62" y="-43" font-family="Helvetica,sans-Serif" font-size="10.00" fill="grey"> mReqPhsProc</text>
</g>
<!-- Node7 -->
<g id="Node000007" class="node">
<title>Node7</title>
<g id="a_Node000007"><a xlink:href="structnode__create__request__method__class.html" target="_top" xlink:title=" ">
<polygon fill="white" stroke="#666666" points="1392.12,-124.5 1285.38,-124.5 1285.38,-94 1392.12,-94 1392.12,-124.5"/>
<text text-anchor="start" x="1293.38" y="-111" font-family="Helvetica,sans-Serif" font-size="10.00">node_create_request</text>
<text text-anchor="middle" x="1338.75" y="-99.75" font-family="Helvetica,sans-Serif" font-size="10.00">_method_class</text>
</a>
</g>
</g>
<!-- Node7&#45;&gt;Node2 -->
<g id="edge8_Node000002_Node000007" class="edge">
<title>Node7&#45;&gt;Node2</title>
<g id="a_edge8_Node000002_Node000007"><a xlink:title=" ">
<path fill="none" stroke="#9a32cd" stroke-dasharray="5,2" d="M1403.83,-109.25C1446.7,-109.25 1502.43,-109.25 1542.69,-109.25"/>
<polygon fill="#9a32cd" stroke="#9a32cd" points="1403.89,-105.75 1393.89,-109.25 1403.89,-112.75 1403.89,-105.75"/>
</a>
</g>
<text text-anchor="middle" x="1471.62" y="-111" font-family="Helvetica,sans-Serif" font-size="10.00" fill="grey"> mpNodeCrReqMthCls</text>
</g>
<!-- Node8 -->
<g id="Node000008" class="node">
<title>Node8</title>
<g id="a_Node000008"><a xlink:href="structunk__process__node__class.html" target="_top" xlink:title=" ">
<polygon fill="white" stroke="#666666" points="1401.88,-237.88 1275.62,-237.88 1275.62,-218.62 1401.88,-218.62 1401.88,-237.88"/>
<text text-anchor="middle" x="1338.75" y="-224.38" font-family="Helvetica,sans-Serif" font-size="10.00">unk_process_node_class</text>
</a>
</g>
</g>
<!-- Node8&#45;&gt;Node2 -->
<g id="edge9_Node000002_Node000008" class="edge">
<title>Node8&#45;&gt;Node2</title>
<g id="a_edge9_Node000002_Node000008"><a xlink:title=" ">
<path fill="none" stroke="#9a32cd" stroke-dasharray="5,2" d="M1361.43,-211.53C1377.65,-199.75 1400.82,-184.47 1423.25,-175 1463.95,-157.83 1478.9,-168.43 1520,-152.25 1542.26,-143.49 1565.9,-129.02 1580.61,-119.32"/>
<polygon fill="#9a32cd" stroke="#9a32cd" points="1359.45,-208.64 1353.51,-217.41 1363.62,-214.26 1359.45,-208.64"/>
</a>
</g>
<text text-anchor="middle" x="1471.62" y="-176" font-family="Helvetica,sans-Serif" font-size="10.00" fill="grey"> mNodeProc</text>
</g>
<!-- Node9 -->
<g id="Node000009" class="node">
<title>Node9</title>
<g id="a_Node000009"><a xlink:href="structprocess__node__class.html" target="_top" xlink:title=" ">
<polygon fill="white" stroke="#666666" points="1163.88,-363.88 1058.62,-363.88 1058.62,-344.62 1163.88,-344.62 1163.88,-363.88"/>
<text text-anchor="middle" x="1111.25" y="-350.38" font-family="Helvetica,sans-Serif" font-size="10.00">process_node_class</text>
</a>
</g>
</g>
<!-- Node9&#45;&gt;Node8 -->
<g id="edge10_Node000008_Node000009" class="edge">
<title>Node9&#45;&gt;Node8</title>
<g id="a_edge10_Node000008_Node000009"><a xlink:title=" ">
<path fill="none" stroke="#9a32cd" stroke-dasharray="5,2" d="M1117.86,-333.36C1126.73,-304.94 1146.98,-255.1 1184.5,-233 1215.24,-214.9 1255.78,-214.45 1287.45,-218.13"/>
<polygon fill="#9a32cd" stroke="#9a32cd" points="1114.5,-332.38 1115.07,-342.96 1121.22,-334.33 1114.5,-332.38"/>
</a>
</g>
<text text-anchor="middle" x="1219.38" y="-234" font-family="Helvetica,sans-Serif" font-size="10.00" fill="grey"> mpNodeProc</text>
</g>
<!-- Node9&#45;&gt;Node16 -->
<g id="edge25_Node000016_Node000009" class="edge">
<title>Node9&#45;&gt;Node16</title>
<g id="a_edge25_Node000016_Node000009"><a xlink:title=" ">
<path fill="none" stroke="#9a32cd" stroke-dasharray="5,2" d="M1175.66,-361.56C1218.22,-366.47 1272.48,-372.72 1306.17,-376.61"/>
<polygon fill="#9a32cd" stroke="#9a32cd" points="1176.11,-358.09 1165.77,-360.42 1175.3,-365.04 1176.11,-358.09"/>
</a>
</g>
<text text-anchor="middle" x="1219.38" y="-372" font-family="Helvetica,sans-Serif" font-size="10.00" fill="grey"> mpPcNode</text>
</g>
<!-- Node10 -->
<g id="Node000010" class="node">
<title>Node10</title>
<g id="a_Node000010"><a xlink:href="structbase__process__class.html" target="_top" xlink:title=" ">
<polygon fill="white" stroke="#666666" points="940.5,-327.88 835.25,-327.88 835.25,-308.62 940.5,-308.62 940.5,-327.88"/>
<text text-anchor="middle" x="887.88" y="-314.38" font-family="Helvetica,sans-Serif" font-size="10.00">base_process_class</text>
</a>
</g>
</g>
<!-- Node10&#45;&gt;Node9 -->
<g id="edge11_Node000009_Node000010" class="edge">
<title>Node10&#45;&gt;Node9</title>
<g id="a_edge11_Node000009_Node000010"><a xlink:title=" ">
<path fill="none" stroke="#9a32cd" stroke-dasharray="5,2" d="M952.07,-322.56C978.74,-324.99 1010.03,-328.64 1038,-334 1051.56,-336.6 1066.28,-340.52 1078.87,-344.22"/>
<polygon fill="#9a32cd" stroke="#9a32cd" points="952.72,-319.1 942.46,-321.72 952.12,-326.08 952.72,-319.1"/>
</a>
</g>
<text text-anchor="middle" x="998.25" y="-335" font-family="Helvetica,sans-Serif" font-size="10.00" fill="grey"> mBase</text>
</g>
<!-- Node10&#45;&gt;Node13 -->
<g id="edge19_Node000013_Node000010" class="edge">
<title>Node10&#45;&gt;Node13</title>
<g id="a_edge19_Node000013_Node000010"><a xlink:title=" ">
<path fill="none" stroke="#9a32cd" stroke-dasharray="5,2" d="M858.13,-303.39C845.85,-297.66 831.16,-291.64 817.25,-288 761.62,-273.45 694.96,-269.01 653.5,-267.7"/>
<polygon fill="#9a32cd" stroke="#9a32cd" points="856.34,-306.41 866.87,-307.61 859.39,-300.1 856.34,-306.41"/>
</a>
</g>
<text text-anchor="middle" x="755.25" y="-289" font-family="Helvetica,sans-Serif" font-size="10.00" fill="grey"> mpRes</text>
</g>
<!-- Node11 -->
<g id="Node000011" class="node">
<title>Node11</title>
<g id="a_Node000011"><a xlink:href="structprocess__profile__definition.html" target="_top" xlink:title=" ">
<polygon fill="white" stroke="#666666" points="675.25,-400.88 550.5,-400.88 550.5,-381.62 675.25,-381.62 675.25,-400.88"/>
<text text-anchor="middle" x="612.88" y="-387.38" font-family="Helvetica,sans-Serif" font-size="10.00">process_profile_definition</text>
</a>
</g>
</g>
<!-- Node11&#45;&gt;Node10 -->
<g id="edge12_Node000010_Node000011" class="edge">
<title>Node11&#45;&gt;Node10</title>
<g id="a_edge12_Node000010_Node000011"><a xlink:title=" ">
<path fill="none" stroke="#9a32cd" stroke-dasharray="5,2" d="M686.8,-390.22C727.03,-387.15 776.87,-379.08 817.25,-359.25 827.13,-354.4 826.14,-348.43 835.25,-342.25 843.18,-336.87 852.52,-332.12 861.05,-328.3"/>
<polygon fill="#9a32cd" stroke="#9a32cd" points="686.7,-386.72 676.96,-390.88 687.17,-393.7 686.7,-386.72"/>
</a>
</g>
<text text-anchor="middle" x="755.25" y="-391" font-family="Helvetica,sans-Serif" font-size="10.00" fill="grey"> mpProf</text>
</g>
<!-- Node12 -->
<g id="Node000012" class="node">
<title>Node12</title>
<g id="a_Node000012"><a xlink:href="structprocess__method__class.html" target="_top" xlink:title=" ">
<polygon fill="white" stroke="#666666" points="448.88,-452.88 332.38,-452.88 332.38,-433.62 448.88,-433.62 448.88,-452.88"/>
<text text-anchor="middle" x="390.62" y="-439.38" font-family="Helvetica,sans-Serif" font-size="10.00">process_method_class</text>
</a>
</g>
</g>
<!-- Node12&#45;&gt;Node10 -->
<g id="edge39_Node000010_Node000012" class="edge">
<title>Node12&#45;&gt;Node10</title>
<g id="a_edge39_Node000010_Node000012"><a xlink:title=" ">
<path fill="none" stroke="#9a32cd" stroke-dasharray="5,2" d="M460.46,-443.36C564.82,-442.46 757.25,-436.32 817.25,-404.25 849.95,-386.77 872.92,-346.77 882.24,-328.14"/>
<polygon fill="#9a32cd" stroke="#9a32cd" points="460.6,-439.86 450.63,-443.43 460.65,-446.86 460.6,-439.86"/>
</a>
</g>
<text text-anchor="middle" x="612.88" y="-443" font-family="Helvetica,sans-Serif" font-size="10.00" fill="grey"> mpPcMtd</text>
</g>
<!-- Node12&#45;&gt;Node11 -->
<g id="edge13_Node000011_Node000012" class="edge">
<title>Node12&#45;&gt;Node11</title>
<g id="a_edge13_Node000011_Node000012"><a xlink:title=" ">
<path fill="none" stroke="#9a32cd" stroke-dasharray="5,2" d="M433.67,-429.98C447.41,-425.87 462.79,-421.5 477,-418 502.38,-411.74 530.72,-405.95 554.85,-401.36"/>
<polygon fill="#9a32cd" stroke="#9a32cd" points="433.06,-426.51 424.51,-432.76 435.1,-433.21 433.06,-426.51"/>
</a>
</g>
<text text-anchor="middle" x="504.75" y="-419" font-family="Helvetica,sans-Serif" font-size="10.00" fill="grey"> sub_method</text>
</g>
<!-- Node24 -->
<g id="Node000024" class="node">
<title>Node24</title>
<g id="a_Node000024"><a xlink:href="structnodedraw__method__class.html" target="_top" xlink:title=" ">
<polygon fill="white" stroke="#666666" points="817.25,-478.88 693.25,-478.88 693.25,-459.62 817.25,-459.62 817.25,-478.88"/>
<text text-anchor="middle" x="755.25" y="-465.38" font-family="Helvetica,sans-Serif" font-size="10.00">nodedraw_method_class</text>
</a>
</g>
</g>
<!-- Node12&#45;&gt;Node24 -->
<g id="edge41_Node000024_Node000012" class="edge">
<title>Node12&#45;&gt;Node24</title>
<g id="a_edge41_Node000024_Node000012"><a xlink:title=" ">
<path fill="none" stroke="#9a32cd" stroke-dasharray="5,2" d="M460,-452.51C465.74,-453.15 471.47,-453.74 477,-454.25 551.05,-461.01 636.52,-465.07 692.76,-467.23"/>
<polygon fill="#9a32cd" stroke="#9a32cd" points="460.81,-449.08 450.47,-451.41 460,-456.04 460.81,-449.08"/>
</a>
</g>
<text text-anchor="middle" x="504.75" y="-460" font-family="Helvetica,sans-Serif" font-size="10.00" fill="grey"> mBase</text>
</g>
<!-- Node13&#45;&gt;Node10 -->
<g id="edge14_Node000010_Node000013" class="edge">
<title>Node13&#45;&gt;Node10</title>
<g id="a_edge14_Node000010_Node000013"><a xlink:title=" ">
<path fill="none" stroke="#9a32cd" stroke-dasharray="5,2" d="M642.54,-282.15C657.3,-289.14 675.82,-296.87 693.25,-301.25 740.21,-313.05 795.37,-316.96 834.77,-318.12"/>
<polygon fill="#9a32cd" stroke="#9a32cd" points="644.41,-279.16 633.89,-277.92 641.34,-285.45 644.41,-279.16"/>
</a>
</g>
<text text-anchor="middle" x="755.25" y="-319" font-family="Helvetica,sans-Serif" font-size="10.00" fill="grey"> mpCtRq</text>
</g>
<!-- Node14&#45;&gt;Node13 -->
<g id="edge15_Node000013_Node000014" class="edge">
<title>Node14&#45;&gt;Node13</title>
<g id="a_edge15_Node000013_Node000014"><a xlink:title=" ">
<path fill="none" stroke="#9a32cd" stroke-dasharray="5,2" d="M433,-248.57C472.97,-252.75 533.1,-259.02 572.42,-263.13"/>
<polygon fill="#9a32cd" stroke="#9a32cd" points="433.6,-245.11 423.29,-247.56 432.88,-252.08 433.6,-245.11"/>
</a>
</g>
<text text-anchor="middle" x="504.75" y="-260" font-family="Helvetica,sans-Serif" font-size="10.00" fill="grey"> mBase</text>
</g>
<!-- Node15 -->
<g id="Node000015" class="node">
<title>Node15</title>
<g id="a_Node000015"><a xlink:href="structcreate__request__method__class.html" target="_top" xlink:title=" ">
<polygon fill="white" stroke="#666666" points="449.62,-302.5 331.62,-302.5 331.62,-272 449.62,-272 449.62,-302.5"/>
<text text-anchor="start" x="339.62" y="-289" font-family="Helvetica,sans-Serif" font-size="10.00">create_request_method</text>
<text text-anchor="middle" x="390.62" y="-277.75" font-family="Helvetica,sans-Serif" font-size="10.00">_class</text>
</a>
</g>
</g>
<!-- Node15&#45;&gt;Node13 -->
<g id="edge18_Node000013_Node000015" class="edge">
<title>Node15&#45;&gt;Node13</title>
<g id="a_edge18_Node000013_Node000015"><a xlink:title=" ">
<path fill="none" stroke="#9a32cd" stroke-dasharray="5,2" d="M461.03,-280.49C466.43,-279.98 471.81,-279.48 477,-279 509.07,-276.05 545.44,-272.9 572.32,-270.6"/>
<polygon fill="#9a32cd" stroke="#9a32cd" points="461.07,-276.97 451.45,-281.4 461.74,-283.94 461.07,-276.97"/>
</a>
</g>
<text text-anchor="middle" x="504.75" y="-280" font-family="Helvetica,sans-Serif" font-size="10.00" fill="grey"> mpCtRqMtd</text>
</g>
<!-- Node16&#45;&gt;Node2 -->
<g id="edge44_Node000002_Node000016" class="edge">
<title>Node16&#45;&gt;Node2</title>
<g id="a_edge44_Node000002_Node000016"><a xlink:title=" ">
<path fill="none" stroke="#9a32cd" stroke-dasharray="5,2" d="M1355.27,-361.63C1371.78,-342.01 1398.83,-310.35 1423.25,-284 1464.8,-239.17 1477.14,-229.83 1520,-186.25 1543.59,-162.26 1571.21,-133.94 1585.53,-119.24"/>
<polygon fill="#9a32cd" stroke="#9a32cd" points="1352.79,-359.15 1349.05,-369.06 1358.15,-363.65 1352.79,-359.15"/>
</a>
</g>
<text text-anchor="middle" x="1471.62" y="-285" font-family="Helvetica,sans-Serif" font-size="10.00" fill="grey"> mpLayerClass</text>
</g>
<!-- Node16&#45;&gt;Node9 -->
<g id="edge42_Node000009_Node000016" class="edge">
<title>Node16&#45;&gt;Node9</title>
<g id="a_edge42_Node000009_Node000016"><a xlink:title=" ">
<path fill="none" stroke="#9a32cd" stroke-dasharray="5,2" d="M1308.39,-365.38C1292.75,-358.29 1272.93,-350.58 1254.25,-347 1224.79,-341.35 1191.31,-342.7 1164.26,-345.67"/>
<polygon fill="#9a32cd" stroke="#9a32cd" points="1306.57,-368.4 1317.11,-369.49 1309.56,-362.06 1306.57,-368.4"/>
</a>
</g>
<text text-anchor="middle" x="1219.38" y="-348" font-family="Helvetica,sans-Serif" font-size="10.00" fill="grey"> mLayer</text>
</g>
<!-- Node16&#45;&gt;Node13 -->
<g id="edge20_Node000013_Node000016" class="edge">
<title>Node16&#45;&gt;Node13</title>
<g id="a_edge20_Node000013_Node000016"><a xlink:title=" ">
<path fill="none" stroke="#9a32cd" stroke-dasharray="5,2" d="M1312.04,-364.68C1295.97,-355.63 1274.53,-344.75 1254.25,-338.25 1067.07,-278.25 1013.11,-286.85 817.25,-270.25 760.42,-265.43 694.36,-265.5 653.32,-266.21"/>
<polygon fill="#9a32cd" stroke="#9a32cd" points="1310.04,-367.57 1320.45,-369.55 1313.55,-361.51 1310.04,-367.57"/>
</a>
</g>
<text text-anchor="middle" x="998.25" y="-289" font-family="Helvetica,sans-Serif" font-size="10.00" fill="grey"> mpLayer</text>
</g>
<!-- Node16&#45;&gt;Node19 -->
<g id="edge29_Node000019_Node000016" class="edge">
<title>Node16&#45;&gt;Node19</title>
<g id="a_edge29_Node000019_Node000016"><a xlink:title=" ">
<path fill="none" stroke="#9a32cd" stroke-dasharray="5,2" d="M1382.63,-380.25C1419.4,-380.96 1473.64,-383.74 1520,-393 1531.49,-395.29 1543.64,-398.85 1554.75,-402.57"/>
<polygon fill="#9a32cd" stroke="#9a32cd" points="1382.89,-376.75 1372.84,-380.1 1382.79,-383.75 1382.89,-376.75"/>
</a>
</g>
<text text-anchor="middle" x="1471.62" y="-394" font-family="Helvetica,sans-Serif" font-size="10.00" fill="grey"> mpLayer</text>
</g>
<!-- Node16&#45;&gt;Node21 -->
<g id="edge34_Node000021_Node000016" class="edge">
<title>Node16&#45;&gt;Node21</title>
<g id="a_edge34_Node000021_Node000016"><a xlink:title=" ">
<path fill="none" stroke="#9a32cd" stroke-dasharray="5,2" d="M1372.9,-365.46C1425.67,-341.91 1527.4,-296.52 1572.63,-276.34"/>
<polygon fill="#9a32cd" stroke="#9a32cd" points="1371.51,-362.25 1363.81,-369.52 1374.36,-368.64 1371.51,-362.25"/>
</a>
</g>
<text text-anchor="middle" x="1471.62" y="-341" font-family="Helvetica,sans-Serif" font-size="10.00" fill="grey"> mpLayer</text>
</g>
<!-- Node17 -->
<g id="Node000017" class="node">
<title>Node17</title>
<g id="a_Node000017"><a xlink:href="structnode__lists__tree__class.html" target="_top" xlink:title=" ">
<polygon fill="white" stroke="#666666" points="1166.5,-465.88 1056,-465.88 1056,-446.62 1166.5,-446.62 1166.5,-465.88"/>
<text text-anchor="middle" x="1111.25" y="-452.38" font-family="Helvetica,sans-Serif" font-size="10.00">node_lists_tree_class</text>
</a>
</g>
</g>
<!-- Node17&#45;&gt;Node16 -->
<g id="edge22_Node000016_Node000017" class="edge">
<title>Node17&#45;&gt;Node16</title>
<g id="a_edge22_Node000016_Node000017"><a xlink:title=" ">
<path fill="none" stroke="#9a32cd" stroke-dasharray="5,2" d="M1178.17,-450.53C1202.62,-447.01 1230.23,-441.35 1254.25,-432.25 1281.56,-421.9 1309.64,-402.18 1325.28,-390.22"/>
<polygon fill="#9a32cd" stroke="#9a32cd" points="1177.77,-447.05 1168.32,-451.84 1178.7,-453.99 1177.77,-447.05"/>
</a>
</g>
<text text-anchor="middle" x="1219.38" y="-451" font-family="Helvetica,sans-Serif" font-size="10.00" fill="grey"> mNodeListTree</text>
</g>
<!-- Node18&#45;&gt;Node9 -->
<g id="edge43_Node000009_Node000018" class="edge">
<title>Node18&#45;&gt;Node9</title>
<g id="a_edge43_Node000009_Node000018"><a xlink:title=" ">
<path fill="none" stroke="#9a32cd" stroke-dasharray="5,2" d="M915.76,-468.46C961.91,-441.36 1054.9,-386.75 1093.19,-364.27"/>
<polygon fill="#9a32cd" stroke="#9a32cd" points="914.03,-465.42 907.18,-473.5 917.58,-471.45 914.03,-465.42"/>
</a>
</g>
<text text-anchor="middle" x="998.25" y="-443" font-family="Helvetica,sans-Serif" font-size="10.00" fill="grey"> mLayerNodeLists</text>
</g>
<!-- Node18&#45;&gt;Node16 -->
<g id="edge26_Node000016_Node000018" class="edge">
<title>Node18&#45;&gt;Node16</title>
<g id="a_edge26_Node000016_Node000018"><a xlink:title=" ">
<path fill="none" stroke="#9a32cd" stroke-dasharray="5,2" d="M941.43,-493.66C1015.42,-504.27 1152.63,-514.16 1254.25,-464.25 1289.69,-446.85 1318.94,-408.3 1331.35,-390.11"/>
<polygon fill="#9a32cd" stroke="#9a32cd" points="942.01,-490.21 931.61,-492.18 940.97,-497.13 942.01,-490.21"/>
</a>
</g>
<text text-anchor="middle" x="1111.25" y="-504" font-family="Helvetica,sans-Serif" font-size="10.00" fill="grey"> mCancelList</text>
</g>
<!-- Node18&#45;&gt;Node17 -->
<g id="edge23_Node000017_Node000018" class="edge">
<title>Node18&#45;&gt;Node17</title>
<g id="a_edge23_Node000017_Node000018"><a xlink:title=" ">
<path fill="none" stroke="#9a32cd" stroke-dasharray="5,2" d="M941.24,-477.63C975.68,-473.27 1020.66,-467.58 1055.56,-463.17"/>
<polygon fill="#9a32cd" stroke="#9a32cd" points="940.98,-474.13 931.5,-478.86 941.86,-481.08 940.98,-474.13"/>
</a>
</g>
<text text-anchor="middle" x="998.25" y="-476" font-family="Helvetica,sans-Serif" font-size="10.00" fill="grey"> mpLists</text>
</g>
<!-- Node19&#45;&gt;Node10 -->
<g id="edge27_Node000010_Node000019" class="edge">
<title>Node19&#45;&gt;Node10</title>
<g id="a_edge27_Node000010_Node000019"><a xlink:title=" ">
<path fill="none" stroke="#9a32cd" stroke-dasharray="5,2" d="M1526.48,-418.29C1367.01,-418.16 983.61,-416.57 958.5,-404.25 925.21,-387.92 902.54,-347.33 893.4,-328.34"/>
<polygon fill="#9a32cd" stroke="#9a32cd" points="1526.05,-421.79 1536.06,-418.29 1526.06,-414.79 1526.05,-421.79"/>
</a>
</g>
<text text-anchor="middle" x="1219.38" y="-418" font-family="Helvetica,sans-Serif" font-size="10.00" fill="grey"> mLyTg</text>
</g>
<!-- Node20&#45;&gt;Node10 -->
<g id="edge30_Node000010_Node000020" class="edge">
<title>Node20&#45;&gt;Node10</title>
<g id="a_edge30_Node000010_Node000020"><a xlink:title=" ">
<path fill="none" stroke="#9a32cd" stroke-dasharray="5,2" d="M540.92,-182.75C600.31,-192.99 723.21,-218.31 817.25,-265.25 840.36,-276.78 863.48,-296.37 876.4,-308.23"/>
<polygon fill="#9a32cd" stroke="#9a32cd" points="541.85,-179.36 531.41,-181.15 540.69,-186.26 541.85,-179.36"/>
</a>
</g>
<text text-anchor="middle" x="612.88" y="-212" font-family="Helvetica,sans-Serif" font-size="10.00" fill="grey"> mLnTg</text>
</g>
<!-- Node21&#45;&gt;Node10 -->
<g id="edge32_Node000010_Node000021" class="edge">
<title>Node21&#45;&gt;Node10</title>
<g id="a_edge32_Node000010_Node000021"><a xlink:title=" ">
<path fill="none" stroke="#9a32cd" stroke-dasharray="5,2" d="M1540.22,-264.14C1406.48,-259.53 1067.37,-251.2 958.5,-280.25 937.48,-285.86 915.88,-299.02 902.43,-308.27"/>
<polygon fill="#9a32cd" stroke="#9a32cd" points="1539.75,-267.62 1549.87,-264.47 1540,-260.63 1539.75,-267.62"/>
</a>
</g>
<text text-anchor="middle" x="1219.38" y="-262" font-family="Helvetica,sans-Serif" font-size="10.00" fill="grey"> mDtTg</text>
</g>
<!-- Node22&#45;&gt;Node10 -->
<g id="edge35_Node000010_Node000022" class="edge">
<title>Node22&#45;&gt;Node10</title>
<g id="a_edge35_Node000010_Node000022"><a xlink:title=" ">
<path fill="none" stroke="#9a32cd" stroke-dasharray="5,2" d="M680.83,-345.75C720.64,-344.67 772.04,-341.93 817.25,-335.25 828.33,-333.61 840.22,-331.03 850.99,-328.36"/>
<polygon fill="#9a32cd" stroke="#9a32cd" points="680.82,-342.24 670.91,-345.98 680.99,-349.24 680.82,-342.24"/>
</a>
</g>
<text text-anchor="middle" x="755.25" y="-346" font-family="Helvetica,sans-Serif" font-size="10.00" fill="grey"> mPi</text>
</g>
<!-- Node23 -->
<g id="Node000023" class="node">
<title>Node23</title>
<g id="a_Node000023"><a xlink:href="structprocess__priority__queue__info.html" target="_top" xlink:title=" ">
<polygon fill="white" stroke="#666666" points="459,-386.88 322.25,-386.88 322.25,-367.62 459,-367.62 459,-386.88"/>
<text text-anchor="middle" x="390.62" y="-373.38" font-family="Helvetica,sans-Serif" font-size="10.00">process_priority_queue_info</text>
</a>
</g>
</g>
<!-- Node23&#45;&gt;Node22 -->
<g id="edge38_Node000022_Node000023" class="edge">
<title>Node23&#45;&gt;Node22</title>
<g id="a_edge38_Node000022_Node000023"><a xlink:title=" ">
<path fill="none" stroke="#9a32cd" stroke-dasharray="5,2" d="M470.34,-366.17C498.76,-362.17 530.23,-357.74 556.26,-354.08"/>
<polygon fill="#9a32cd" stroke="#9a32cd" points="470.12,-362.67 460.7,-367.53 471.09,-369.6 470.12,-362.67"/>
</a>
</g>
<text text-anchor="middle" x="504.75" y="-377.25" font-family="Helvetica,sans-Serif" font-size="10.00" fill="grey"> mInfoCurr</text>
<text text-anchor="middle" x="504.75" y="-366" font-family="Helvetica,sans-Serif" font-size="10.00" fill="grey">mInfoQ</text>
</g>
<!-- Node24&#45;&gt;Node9 -->
<g id="edge40_Node000009_Node000024" class="edge">
<title>Node24&#45;&gt;Node9</title>
<g id="a_edge40_Node000009_Node000024"><a xlink:title=" ">
<path fill="none" stroke="#9a32cd" stroke-dasharray="5,2" d="M803.43,-455.79C808.11,-454.32 812.79,-452.79 817.25,-451.25 881.09,-429.23 894.41,-416.54 958.5,-395.25 995.02,-383.12 1037.34,-371.92 1068,-364.3"/>
<polygon fill="#9a32cd" stroke="#9a32cd" points="802.53,-452.41 793.99,-458.68 804.58,-459.1 802.53,-452.41"/>
</a>
</g>
<text text-anchor="middle" x="887.88" y="-445" font-family="Helvetica,sans-Serif" font-size="10.00" fill="grey"> mpNodeMtd</text>
</g>
</g>
</svg>
