<?xml version="1.0" encoding="UTF-8" standalone="no"?>
<!DOCTYPE svg PUBLIC "-//W3C//DTD SVG 1.1//EN"
 "http://www.w3.org/Graphics/SVG/1.1/DTD/svg11.dtd">
<!-- Generated by graphviz version 2.44.0 ()
 -->
<!-- Title: include/d/a/d_a_alink.h Pages: 1 -->
<svg width="246pt" height="162pt"
 viewBox="0.00 0.00 245.50 162.00" xmlns="http://www.w3.org/2000/svg" xmlns:xlink="http://www.w3.org/1999/xlink">
<g id="graph0" class="graph" transform="scale(1 1) rotate(0) translate(4 158)">
<title>include/d/a/d_a_alink.h</title>
<polygon fill="white" stroke="transparent" points="-4,4 -4,-158 241.5,-158 241.5,4 -4,4"/>
<!-- Node1 -->
<g id="node1" class="node">
<title>Node1</title>
<g id="a_node1"><a xlink:title=" ">
<polygon fill="#bfbfbf" stroke="black" points="60.5,-134.5 60.5,-153.5 176.5,-153.5 176.5,-134.5 60.5,-134.5"/>
<text text-anchor="middle" x="118.5" y="-141.5" font-family="Helvetica,sans-Serif" font-size="10.00">include/d/a/d_a_alink.h</text>
</a>
</g>
</g>
<!-- Node2 -->
<g id="node2" class="node">
<title>Node2</title>
<g id="a_node2"><a xlink:href="d__a__alink_8cpp.html" target="_top" xlink:title=" ">
<polygon fill="white" stroke="black" points="0,-73 0,-92 109,-92 109,-73 0,-73"/>
<text text-anchor="middle" x="54.5" y="-80" font-family="Helvetica,sans-Serif" font-size="10.00">src/d/a/d_a_alink.cpp</text>
</a>
</g>
</g>
<!-- Node1&#45;&gt;Node2 -->
<g id="edge1" class="edge">
<title>Node1&#45;&gt;Node2</title>
<path fill="none" stroke="midnightblue" d="M101.99,-127.65C89.79,-116.31 73.63,-101.28 63.65,-92.01"/>
<polygon fill="midnightblue" stroke="midnightblue" points="99.62,-130.23 109.33,-134.48 104.39,-125.1 99.62,-130.23"/>
</g>
<!-- Node3 -->
<g id="node3" class="node">
<title>Node3</title>
<g id="a_node3"><a xlink:href="d__com__inf__game_8h.html" target="_top" xlink:title=" ">
<polygon fill="white" stroke="black" points="127.5,-67.5 127.5,-97.5 237.5,-97.5 237.5,-67.5 127.5,-67.5"/>
<text text-anchor="start" x="135.5" y="-85.5" font-family="Helvetica,sans-Serif" font-size="10.00">include/d/com/d_com</text>
<text text-anchor="middle" x="182.5" y="-74.5" font-family="Helvetica,sans-Serif" font-size="10.00">_inf_game.h</text>
</a>
</g>
</g>
<!-- Node1&#45;&gt;Node3 -->
<g id="edge2" class="edge">
<title>Node1&#45;&gt;Node3</title>
<path fill="none" stroke="midnightblue" d="M135.02,-127.65C145.02,-118.35 157.68,-106.57 167.42,-97.52"/>
<polygon fill="midnightblue" stroke="midnightblue" points="132.61,-125.1 127.67,-134.48 137.38,-130.23 132.61,-125.1"/>
</g>
<!-- Node4 -->
<g id="node4" class="node">
<title>Node4</title>
<g id="a_node4"><a xlink:href="d__com__inf__game_8cpp.html" target="_top" xlink:title=" ">
<polygon fill="white" stroke="black" points="128.5,-0.5 128.5,-30.5 236.5,-30.5 236.5,-0.5 128.5,-0.5"/>
<text text-anchor="start" x="136.5" y="-18.5" font-family="Helvetica,sans-Serif" font-size="10.00">src/d/com/d_com_inf</text>
<text text-anchor="middle" x="182.5" y="-7.5" font-family="Helvetica,sans-Serif" font-size="10.00">_game.cpp</text>
</a>
</g>
</g>
<!-- Node3&#45;&gt;Node4 -->
<g id="edge3" class="edge">
<title>Node3&#45;&gt;Node4</title>
<path fill="none" stroke="midnightblue" d="M182.5,-57.11C182.5,-48.15 182.5,-38.32 182.5,-30.58"/>
<polygon fill="midnightblue" stroke="midnightblue" points="179,-57.4 182.5,-67.4 186,-57.4 179,-57.4"/>
</g>
</g>
</svg>
