<?xml version="1.0" encoding="UTF-8" standalone="no"?>
<!DOCTYPE svg PUBLIC "-//W3C//DTD SVG 1.1//EN"
 "http://www.w3.org/Graphics/SVG/1.1/DTD/svg11.dtd">
<!-- Generated by graphviz version 7.0.5 (20221223.1930)
 -->
<!-- Title: include/d/a/d_a_alink.h Pages: 1 -->
<svg width="5887pt" height="236pt"
 viewBox="0.00 0.00 5887.00 236.00" xmlns="http://www.w3.org/2000/svg" xmlns:xlink="http://www.w3.org/1999/xlink">
<g id="graph0" class="graph" transform="scale(1 1) rotate(0) translate(4 232)">
<title>include/d/a/d_a_alink.h</title>
<!-- Node1 -->
<g id="node1" class="node">
<title>Node1</title>
<g id="a_node1"><a xlink:title=" ">
<polygon fill="#999999" stroke="#666666" points="1585.5,-228 1469.5,-228 1469.5,-209 1585.5,-209 1585.5,-228"/>
<text text-anchor="middle" x="1527.5" y="-216" font-family="Helvetica,sans-Serif" font-size="10.00">include/d/a/d_a_alink.h</text>
</a>
</g>
</g>
<!-- Node2 -->
<g id="node2" class="node">
<title>Node2</title>
<g id="a_node2"><a xlink:href="d__com__inf__game_8h.html" target="_top" xlink:title=" ">
<polygon fill="#fff0f0" stroke="red" points="2836.5,-173 2726.5,-173 2726.5,-143 2836.5,-143 2836.5,-173"/>
<text text-anchor="start" x="2734.5" y="-161" font-family="Helvetica,sans-Serif" font-size="10.00">include/d/com/d_com</text>
<text text-anchor="middle" x="2781.5" y="-150" font-family="Helvetica,sans-Serif" font-size="10.00">_inf_game.h</text>
</a>
</g>
</g>
<!-- Node1&#45;&gt;Node2 -->
<g id="edge1" class="edge">
<title>Node1&#45;&gt;Node2</title>
<path fill="none" stroke="#63b8ff" d="M1597.16,-214.25C1821.74,-203.77 2523.88,-171.02 2726.35,-161.57"/>
<polygon fill="#63b8ff" stroke="#63b8ff" points="1597.22,-210.74 1587.4,-214.71 1597.55,-217.74 1597.22,-210.74"/>
</g>
<!-- Node12 -->
<g id="node6" class="node">
<title>Node12</title>
<g id="a_node6"><a xlink:href="d__a__alink_8cpp.html" target="_top" xlink:title=" ">
<polygon fill="white" stroke="#666666" points="379,-24.5 270,-24.5 270,-5.5 379,-5.5 379,-24.5"/>
<text text-anchor="middle" x="324.5" y="-12.5" font-family="Helvetica,sans-Serif" font-size="10.00">src/d/a/d_a_alink.cpp</text>
</a>
</g>
</g>
<!-- Node1&#45;&gt;Node12 -->
<g id="edge58" class="edge">
<title>Node1&#45;&gt;Node12</title>
<path fill="none" stroke="#63b8ff" d="M1457.92,-216.51C1211.38,-212.31 390.09,-191.97 312.5,-107 291.44,-83.94 309.66,-42.85 319.36,-24.85"/>
<polygon fill="#63b8ff" stroke="#63b8ff" points="1457.65,-220.01 1467.7,-216.68 1457.76,-213.01 1457.65,-220.01"/>
</g>
<!-- Node3 -->
<g id="node3" class="node">
<title>Node3</title>
<g id="a_node3"><a xlink:href="d__a__npc_8h.html" target="_top" xlink:title=" ">
<polygon fill="#fff0f0" stroke="red" points="5879,-24.5 5768,-24.5 5768,-5.5 5879,-5.5 5879,-24.5"/>
<text text-anchor="middle" x="5823.5" y="-12.5" font-family="Helvetica,sans-Serif" font-size="10.00">include/d/a/d_a_npc.h</text>
</a>
</g>
</g>
<!-- Node2&#45;&gt;Node3 -->
<g id="edge2" class="edge">
<title>Node2&#45;&gt;Node3</title>
<path fill="none" stroke="#63b8ff" d="M2848.3,-156.88C3285.31,-155.97 5720.28,-149.02 5783.5,-107 5811.96,-88.08 5820.32,-43.99 5822.65,-24.98"/>
<polygon fill="#63b8ff" stroke="#63b8ff" points="2848.36,-153.38 2838.37,-156.9 2848.38,-160.38 2848.36,-153.38"/>
</g>
<!-- Node9 -->
<g id="node4" class="node">
<title>Node9</title>
<g id="a_node4"><a xlink:href="d__cc__uty_8h.html" target="_top" xlink:title=" ">
<polygon fill="#fff0f0" stroke="red" points="631,-96 512,-96 512,-77 631,-77 631,-96"/>
<text text-anchor="middle" x="571.5" y="-84" font-family="Helvetica,sans-Serif" font-size="10.00">include/d/cc/d_cc_uty.h</text>
</a>
</g>
</g>
<!-- Node2&#45;&gt;Node9 -->
<g id="edge3" class="edge">
<title>Node2&#45;&gt;Node9</title>
<path fill="none" stroke="#63b8ff" d="M2714.92,-156.46C2375.82,-153.57 848.52,-138.87 639.5,-107 625.17,-104.82 609.61,-100.5 596.99,-96.49"/>
<polygon fill="#63b8ff" stroke="#63b8ff" points="2714.7,-159.96 2724.73,-156.54 2714.76,-152.96 2714.7,-159.96"/>
</g>
<!-- Node15 -->
<g id="node5" class="node">
<title>Node15</title>
<g id="a_node5"><a xlink:href="d__item_8h.html" target="_top" xlink:title=" ">
<polygon fill="#fff0f0" stroke="red" points="245,-96 150,-96 150,-77 245,-77 245,-96"/>
<text text-anchor="middle" x="197.5" y="-84" font-family="Helvetica,sans-Serif" font-size="10.00">include/d/d_item.h</text>
</a>
</g>
</g>
<!-- Node2&#45;&gt;Node15 -->
<g id="edge4" class="edge">
<title>Node2&#45;&gt;Node15</title>
<path fill="none" stroke="#63b8ff" d="M2714.88,-157.21C2370.12,-158.08 785.73,-159.12 297.5,-107 276.75,-104.78 253.88,-100.47 235.25,-96.46"/>
<polygon fill="#63b8ff" stroke="#63b8ff" points="2714.64,-160.71 2724.63,-157.19 2714.62,-153.71 2714.64,-160.71"/>
</g>
<!-- Node2&#45;&gt;Node12 -->
<g id="edge42" class="edge">
<title>Node2&#45;&gt;Node12</title>
<path fill="none" stroke="#63b8ff" d="M2714.93,-156.87C2327.11,-155.98 374.84,-149.37 330.5,-107 307.95,-85.45 316.55,-43.18 321.72,-24.84"/>
<polygon fill="#63b8ff" stroke="#63b8ff" points="2714.69,-160.37 2724.7,-156.89 2714.7,-153.37 2714.69,-160.37"/>
</g>
<!-- Node16 -->
<g id="node7" class="node">
<title>Node16</title>
<g id="a_node7"><a xlink:href="d__a__obj__item_8cpp.html" target="_top" xlink:title=" ">
<polygon fill="white" stroke="#666666" points="125,-24.5 0,-24.5 0,-5.5 125,-5.5 125,-24.5"/>
<text text-anchor="middle" x="62.5" y="-12.5" font-family="Helvetica,sans-Serif" font-size="10.00">src/d/a/d_a_obj_item.cpp</text>
</a>
</g>
</g>
<!-- Node2&#45;&gt;Node16 -->
<g id="edge45" class="edge">
<title>Node2&#45;&gt;Node16</title>
<path fill="none" stroke="#63b8ff" d="M2714.73,-156.55C2308.91,-153.74 188.67,-137.62 129.5,-107 94.83,-89.06 73.57,-44.02 65.83,-24.86"/>
<polygon fill="#63b8ff" stroke="#63b8ff" points="2714.7,-160.05 2724.72,-156.62 2714.75,-153.05 2714.7,-160.05"/>
</g>
<!-- Node17 -->
<g id="node8" class="node">
<title>Node17</title>
<g id="a_node8"><a xlink:href="d__com__inf__game_8cpp.html" target="_top" xlink:title=" ">
<polygon fill="white" stroke="#666666" points="251.5,-30 143.5,-30 143.5,0 251.5,0 251.5,-30"/>
<text text-anchor="start" x="151.5" y="-18" font-family="Helvetica,sans-Serif" font-size="10.00">src/d/com/d_com_inf</text>
<text text-anchor="middle" x="197.5" y="-7" font-family="Helvetica,sans-Serif" font-size="10.00">_game.cpp</text>
</a>
</g>
</g>
<!-- Node2&#45;&gt;Node17 -->
<g id="edge51" class="edge">
<title>Node2&#45;&gt;Node17</title>
<path fill="none" stroke="#63b8ff" d="M2714.67,-157.02C2308.48,-156.95 186.97,-154.35 140.5,-107 127.74,-93.99 132.98,-82.6 140.5,-66 147.24,-51.13 160.82,-38.94 173.04,-30.31"/>
<polygon fill="#63b8ff" stroke="#63b8ff" points="2714.67,-160.51 2724.67,-157.02 2714.67,-153.51 2714.67,-160.51"/>
</g>
<!-- Node20 -->
<g id="node9" class="node">
<title>Node20</title>
<g id="a_node9"><a xlink:href="d__kantera__icon__meter_8h.html" target="_top" xlink:title=" ">
<polygon fill="#fff0f0" stroke="red" points="750,-101.5 649,-101.5 649,-71.5 750,-71.5 750,-101.5"/>
<text text-anchor="start" x="657" y="-89.5" font-family="Helvetica,sans-Serif" font-size="10.00">include/d/d_kantera</text>
<text text-anchor="middle" x="699.5" y="-78.5" font-family="Helvetica,sans-Serif" font-size="10.00">_icon_meter.h</text>
</a>
</g>
</g>
<!-- Node2&#45;&gt;Node20 -->
<g id="edge8" class="edge">
<title>Node2&#45;&gt;Node20</title>
<path fill="none" stroke="#63b8ff" d="M2715.18,-156.52C2388.1,-153.99 954.56,-141.05 758.5,-107 751.7,-105.82 744.61,-104.01 737.8,-101.96"/>
<polygon fill="#63b8ff" stroke="#63b8ff" points="2714.81,-160.02 2724.84,-156.59 2714.86,-153.02 2714.81,-160.02"/>
</g>
<!-- Node23 -->
<g id="node10" class="node">
<title>Node23</title>
<g id="a_node10"><a xlink:href="d__model_8h.html" target="_top" xlink:title=" ">
<polygon fill="#fff0f0" stroke="red" points="871,-96 768,-96 768,-77 871,-77 871,-96"/>
<text text-anchor="middle" x="819.5" y="-84" font-family="Helvetica,sans-Serif" font-size="10.00">include/d/d_model.h</text>
</a>
</g>
</g>
<!-- Node2&#45;&gt;Node23 -->
<g id="edge9" class="edge">
<title>Node2&#45;&gt;Node23</title>
<path fill="none" stroke="#63b8ff" d="M2715.12,-156.39C2400.05,-153.33 1063.1,-138.56 879.5,-107 866.76,-104.81 853.02,-100.5 841.9,-96.48"/>
<polygon fill="#63b8ff" stroke="#63b8ff" points="2714.78,-159.88 2724.82,-156.48 2714.85,-152.88 2714.78,-159.88"/>
</g>
<!-- Node25 -->
<g id="node11" class="node">
<title>Node25</title>
<g id="a_node11"><a xlink:href="d__name_8h.html" target="_top" xlink:title=" ">
<polygon fill="#fff0f0" stroke="red" points="990,-96 889,-96 889,-77 990,-77 990,-96"/>
<text text-anchor="middle" x="939.5" y="-84" font-family="Helvetica,sans-Serif" font-size="10.00">include/d/d_name.h</text>
</a>
</g>
</g>
<!-- Node2&#45;&gt;Node25 -->
<g id="edge10" class="edge">
<title>Node2&#45;&gt;Node25</title>
<path fill="none" stroke="#63b8ff" d="M2714.93,-156.26C2411.94,-152.73 1170.66,-136.58 999.5,-107 986.76,-104.8 973.02,-100.48 961.91,-96.47"/>
<polygon fill="#63b8ff" stroke="#63b8ff" points="2714.59,-159.75 2724.63,-156.37 2714.67,-152.76 2714.59,-159.75"/>
</g>
<!-- Node27 -->
<g id="node12" class="node">
<title>Node27</title>
<g id="a_node12"><a xlink:href="d__file__sel__info_8h.html" target="_top" xlink:title=" ">
<polygon fill="#fff0f0" stroke="red" points="1104.5,-101.5 1008.5,-101.5 1008.5,-71.5 1104.5,-71.5 1104.5,-101.5"/>
<text text-anchor="start" x="1016.5" y="-89.5" font-family="Helvetica,sans-Serif" font-size="10.00">include/d/file/d_file</text>
<text text-anchor="middle" x="1056.5" y="-78.5" font-family="Helvetica,sans-Serif" font-size="10.00">_sel_info.h</text>
</a>
</g>
</g>
<!-- Node2&#45;&gt;Node27 -->
<g id="edge11" class="edge">
<title>Node2&#45;&gt;Node27</title>
<path fill="none" stroke="#63b8ff" d="M2714.95,-156.18C2424.18,-152.44 1272.69,-135.93 1113.5,-107 1106.91,-105.8 1100.06,-103.99 1093.48,-101.93"/>
<polygon fill="#63b8ff" stroke="#63b8ff" points="2714.58,-159.68 2724.63,-156.3 2714.67,-152.68 2714.58,-159.68"/>
</g>
<!-- Node30 -->
<g id="node13" class="node">
<title>Node30</title>
<g id="a_node13"><a xlink:href="d__file__sel__warning_8h.html" target="_top" xlink:title=" ">
<polygon fill="#fff0f0" stroke="red" points="1218.5,-101.5 1122.5,-101.5 1122.5,-71.5 1218.5,-71.5 1218.5,-101.5"/>
<text text-anchor="start" x="1130.5" y="-89.5" font-family="Helvetica,sans-Serif" font-size="10.00">include/d/file/d_file</text>
<text text-anchor="middle" x="1170.5" y="-78.5" font-family="Helvetica,sans-Serif" font-size="10.00">_sel_warning.h</text>
</a>
</g>
</g>
<!-- Node2&#45;&gt;Node30 -->
<g id="edge12" class="edge">
<title>Node2&#45;&gt;Node30</title>
<path fill="none" stroke="#63b8ff" d="M2714.82,-157.48C2456.21,-158.95 1519.41,-160.39 1227.5,-107 1220.92,-105.8 1214.06,-103.97 1207.48,-101.92"/>
<polygon fill="#63b8ff" stroke="#63b8ff" points="2714.77,-160.98 2724.75,-157.42 2714.73,-153.98 2714.77,-160.98"/>
</g>
<!-- Node32 -->
<g id="node14" class="node">
<title>Node32</title>
<g id="a_node14"><a xlink:href="d__meter2_8h.html" target="_top" xlink:title=" ">
<polygon fill="#fff0f0" stroke="red" points="1370.5,-96 1236.5,-96 1236.5,-77 1370.5,-77 1370.5,-96"/>
<text text-anchor="middle" x="1303.5" y="-84" font-family="Helvetica,sans-Serif" font-size="10.00">include/d/meter/d_meter2.h</text>
</a>
</g>
</g>
<!-- Node2&#45;&gt;Node32 -->
<g id="edge13" class="edge">
<title>Node2&#45;&gt;Node32</title>
<path fill="none" stroke="#63b8ff" d="M2714.73,-156.52C2472.71,-154.5 1642.02,-144.91 1379.5,-107 1363.73,-104.72 1346.5,-100.45 1332.44,-96.49"/>
<polygon fill="#63b8ff" stroke="#63b8ff" points="2714.6,-160.02 2724.62,-156.61 2714.65,-153.02 2714.6,-160.02"/>
</g>
<!-- Node39 -->
<g id="node15" class="node">
<title>Node39</title>
<g id="a_node15"><a xlink:href="d__msg__object_8h.html" target="_top" xlink:title=" ">
<polygon fill="#fff0f0" stroke="red" points="5757.5,-101.5 5647.5,-101.5 5647.5,-71.5 5757.5,-71.5 5757.5,-101.5"/>
<text text-anchor="start" x="5655.5" y="-89.5" font-family="Helvetica,sans-Serif" font-size="10.00">include/d/msg/d_msg</text>
<text text-anchor="middle" x="5702.5" y="-78.5" font-family="Helvetica,sans-Serif" font-size="10.00">_object.h</text>
</a>
</g>
</g>
<!-- Node2&#45;&gt;Node39 -->
<g id="edge14" class="edge">
<title>Node2&#45;&gt;Node39</title>
<path fill="none" stroke="#63b8ff" d="M2848.34,-156.94C3251.87,-156.45 5355.17,-151.74 5638.5,-107 5645.84,-105.84 5653.51,-104.04 5660.89,-102"/>
<polygon fill="#63b8ff" stroke="#63b8ff" points="2848.41,-153.44 2838.41,-156.95 2848.42,-160.44 2848.41,-153.44"/>
</g>
<!-- Node46 -->
<g id="node16" class="node">
<title>Node46</title>
<g id="a_node16"><a xlink:href="d__demo_8cpp.html" target="_top" xlink:title=" ">
<polygon fill="white" stroke="#666666" points="5749.5,-24.5 5655.5,-24.5 5655.5,-5.5 5749.5,-5.5 5749.5,-24.5"/>
<text text-anchor="middle" x="5702.5" y="-12.5" font-family="Helvetica,sans-Serif" font-size="10.00">src/d/d_demo.cpp</text>
</a>
</g>
</g>
<!-- Node2&#45;&gt;Node46 -->
<g id="edge56" class="edge">
<title>Node2&#45;&gt;Node46</title>
<path fill="none" stroke="#63b8ff" d="M2848.17,-157.16C3284.24,-158.09 5713.58,-160.82 5766.5,-107 5779.28,-94.01 5774.49,-82.38 5766.5,-66 5757.23,-46.99 5736.85,-33.09 5721.56,-24.84"/>
<polygon fill="#63b8ff" stroke="#63b8ff" points="2848.26,-153.67 2838.26,-157.14 2848.25,-160.67 2848.26,-153.67"/>
</g>
<!-- Node55 -->
<g id="node17" class="node">
<title>Node55</title>
<g id="a_node17"><a xlink:href="d__s__logo_8h.html" target="_top" xlink:title=" ">
<polygon fill="#fff0f0" stroke="red" points="1502,-96 1389,-96 1389,-77 1502,-77 1502,-96"/>
<text text-anchor="middle" x="1445.5" y="-84" font-family="Helvetica,sans-Serif" font-size="10.00">include/d/s/d_s_logo.h</text>
</a>
</g>
</g>
<!-- Node2&#45;&gt;Node55 -->
<g id="edge18" class="edge">
<title>Node2&#45;&gt;Node55</title>
<path fill="none" stroke="#63b8ff" d="M2714.93,-156.59C2487.97,-154.86 1745.6,-146.24 1510.5,-107 1496.9,-104.73 1482.16,-100.46 1470.15,-96.5"/>
<polygon fill="#63b8ff" stroke="#63b8ff" points="2714.76,-160.09 2724.78,-156.67 2714.81,-153.09 2714.76,-160.09"/>
</g>
<!-- Node57 -->
<g id="node18" class="node">
<title>Node57</title>
<g id="a_node18"><a xlink:href="d__s__play_8h.html" target="_top" xlink:title=" ">
<polygon fill="#fff0f0" stroke="red" points="1633,-96 1520,-96 1520,-77 1633,-77 1633,-96"/>
<text text-anchor="middle" x="1576.5" y="-84" font-family="Helvetica,sans-Serif" font-size="10.00">include/d/s/d_s_play.h</text>
</a>
</g>
</g>
<!-- Node2&#45;&gt;Node57 -->
<g id="edge19" class="edge">
<title>Node2&#45;&gt;Node57</title>
<path fill="none" stroke="#63b8ff" d="M2714.81,-156.24C2503.42,-153.49 1849.98,-142.28 1641.5,-107 1627.91,-104.7 1613.16,-100.43 1601.16,-96.47"/>
<polygon fill="#63b8ff" stroke="#63b8ff" points="2714.76,-159.74 2724.8,-156.37 2714.85,-152.74 2714.76,-159.74"/>
</g>
<!-- Node63 -->
<g id="node19" class="node">
<title>Node63</title>
<g id="a_node19"><a xlink:href="d__msg__scrn__base_8h.html" target="_top" xlink:title=" ">
<polygon fill="#fff0f0" stroke="red" points="1750,-101.5 1651,-101.5 1651,-71.5 1750,-71.5 1750,-101.5"/>
<text text-anchor="start" x="1659" y="-89.5" font-family="Helvetica,sans-Serif" font-size="10.00">include/msg/scrn/d</text>
<text text-anchor="middle" x="1700.5" y="-78.5" font-family="Helvetica,sans-Serif" font-size="10.00">_msg_scrn_base.h</text>
</a>
</g>
</g>
<!-- Node2&#45;&gt;Node63 -->
<g id="edge20" class="edge">
<title>Node2&#45;&gt;Node63</title>
<path fill="none" stroke="#63b8ff" d="M2714.73,-156.08C2518.14,-153.02 1943.68,-141.29 1759.5,-107 1752.82,-105.76 1745.85,-103.94 1739.15,-101.92"/>
<polygon fill="#63b8ff" stroke="#63b8ff" points="2714.46,-159.58 2724.51,-156.23 2714.56,-152.58 2714.46,-159.58"/>
</g>
<!-- Node67 -->
<g id="node20" class="node">
<title>Node67</title>
<g id="a_node20"><a xlink:href="d__a__b__oh2_8h.html" target="_top" xlink:title=" ">
<polygon fill="white" stroke="#666666" points="1884.5,-101.5 1768.5,-101.5 1768.5,-71.5 1884.5,-71.5 1884.5,-101.5"/>
<text text-anchor="start" x="1776.5" y="-89.5" font-family="Helvetica,sans-Serif" font-size="10.00">include/rel/d/a/b/d</text>
<text text-anchor="middle" x="1826.5" y="-78.5" font-family="Helvetica,sans-Serif" font-size="10.00">_a_b_oh2/d_a_b_oh2.h</text>
</a>
</g>
</g>
<!-- Node2&#45;&gt;Node67 -->
<g id="edge21" class="edge">
<title>Node2&#45;&gt;Node67</title>
<path fill="none" stroke="#63b8ff" d="M2714.82,-155.21C2536.48,-150.09 2051.36,-134.05 1893.5,-107 1886.1,-105.73 1878.35,-103.93 1870.86,-101.94"/>
<polygon fill="#63b8ff" stroke="#63b8ff" points="2714.51,-158.7 2724.6,-155.48 2714.71,-151.7 2714.51,-158.7"/>
</g>
<!-- Node68 -->
<g id="node21" class="node">
<title>Node68</title>
<g id="a_node21"><a xlink:href="d__a__b__zant_8h.html" target="_top" xlink:title=" ">
<polygon fill="white" stroke="#666666" points="2024,-101.5 1903,-101.5 1903,-71.5 2024,-71.5 2024,-101.5"/>
<text text-anchor="start" x="1911" y="-89.5" font-family="Helvetica,sans-Serif" font-size="10.00">include/rel/d/a/b/d</text>
<text text-anchor="middle" x="1963.5" y="-78.5" font-family="Helvetica,sans-Serif" font-size="10.00">_a_b_zant/d_a_b_zant.h</text>
</a>
</g>
</g>
<!-- Node2&#45;&gt;Node68 -->
<g id="edge22" class="edge">
<title>Node2&#45;&gt;Node68</title>
<path fill="none" stroke="#63b8ff" d="M2714.72,-157.1C2583.3,-156.3 2282.26,-149.5 2033.5,-107 2025.91,-105.7 2017.97,-103.92 2010.27,-101.95"/>
<polygon fill="#63b8ff" stroke="#63b8ff" points="2714.62,-160.6 2724.63,-157.15 2714.65,-153.6 2714.62,-160.6"/>
</g>
<!-- Node69 -->
<g id="node22" class="node">
<title>Node69</title>
<g id="a_node22"><a xlink:href="d__a__cstaF_8h.html" target="_top" xlink:title=" ">
<polygon fill="white" stroke="#666666" points="2142.5,-101.5 2042.5,-101.5 2042.5,-71.5 2142.5,-71.5 2142.5,-101.5"/>
<text text-anchor="start" x="2050.5" y="-89.5" font-family="Helvetica,sans-Serif" font-size="10.00">include/rel/d/a/d_a</text>
<text text-anchor="middle" x="2092.5" y="-78.5" font-family="Helvetica,sans-Serif" font-size="10.00">_cstaf/d_a_cstaF.h</text>
</a>
</g>
</g>
<!-- Node2&#45;&gt;Node69 -->
<g id="edge23" class="edge">
<title>Node2&#45;&gt;Node69</title>
<path fill="none" stroke="#63b8ff" d="M2714.64,-156.93C2598.79,-155.65 2353.74,-147.83 2151.5,-107 2145.05,-105.7 2138.32,-103.91 2131.82,-101.94"/>
<polygon fill="#63b8ff" stroke="#63b8ff" points="2714.56,-160.43 2724.6,-157.03 2714.63,-153.43 2714.56,-160.43"/>
</g>
<!-- Node70 -->
<g id="node23" class="node">
<title>Node70</title>
<g id="a_node23"><a xlink:href="d__a__dmidna_8h.html" target="_top" xlink:title=" ">
<polygon fill="white" stroke="#666666" points="2276.5,-101.5 2160.5,-101.5 2160.5,-71.5 2276.5,-71.5 2276.5,-101.5"/>
<text text-anchor="start" x="2168.5" y="-89.5" font-family="Helvetica,sans-Serif" font-size="10.00">include/rel/d/a/d_a</text>
<text text-anchor="middle" x="2218.5" y="-78.5" font-family="Helvetica,sans-Serif" font-size="10.00">_dmidna/d_a_dmidna.h</text>
</a>
</g>
</g>
<!-- Node2&#45;&gt;Node70 -->
<g id="edge24" class="edge">
<title>Node2&#45;&gt;Node70</title>
<path fill="none" stroke="#63b8ff" d="M2715.11,-154.17C2619.43,-149.21 2437.56,-136.53 2285.5,-107 2278.48,-105.64 2271.14,-103.87 2264,-101.95"/>
<polygon fill="#63b8ff" stroke="#63b8ff" points="2714.67,-157.65 2724.83,-154.66 2715.02,-150.66 2714.67,-157.65"/>
</g>
<!-- Node71 -->
<g id="node24" class="node">
<title>Node71</title>
<g id="a_node24"><a xlink:href="d__a__set__bgobj_8h.html" target="_top" xlink:title=" ">
<polygon fill="white" stroke="#666666" points="2432,-101.5 2295,-101.5 2295,-71.5 2432,-71.5 2432,-101.5"/>
<text text-anchor="start" x="2303" y="-89.5" font-family="Helvetica,sans-Serif" font-size="10.00">include/rel/d/a/d_a</text>
<text text-anchor="middle" x="2363.5" y="-78.5" font-family="Helvetica,sans-Serif" font-size="10.00">_set_bgobj/d_a_set_bgobj.h</text>
</a>
</g>
</g>
<!-- Node2&#45;&gt;Node71 -->
<g id="edge25" class="edge">
<title>Node2&#45;&gt;Node71</title>
<path fill="none" stroke="#63b8ff" d="M2715.06,-149.21C2646.28,-140.68 2535.89,-125.69 2441.5,-107 2433.97,-105.51 2426.07,-103.76 2418.32,-101.93"/>
<polygon fill="#63b8ff" stroke="#63b8ff" points="2714.3,-152.64 2724.65,-150.39 2715.15,-145.69 2714.3,-152.64"/>
</g>
<!-- Node72 -->
<g id="node25" class="node">
<title>Node72</title>
<g id="a_node25"><a xlink:href="d__a__skip__2D_8h.html" target="_top" xlink:title=" ">
<polygon fill="white" stroke="#666666" points="2574.5,-101.5 2450.5,-101.5 2450.5,-71.5 2574.5,-71.5 2574.5,-101.5"/>
<text text-anchor="start" x="2458.5" y="-89.5" font-family="Helvetica,sans-Serif" font-size="10.00">include/rel/d/a/d_a</text>
<text text-anchor="middle" x="2512.5" y="-78.5" font-family="Helvetica,sans-Serif" font-size="10.00">_skip_2D/d_a_skip_2D.h</text>
</a>
</g>
</g>
<!-- Node2&#45;&gt;Node72 -->
<g id="edge26" class="edge">
<title>Node2&#45;&gt;Node72</title>
<path fill="none" stroke="#63b8ff" d="M2715.3,-140.65C2676.79,-131.04 2627.34,-118.55 2583.5,-107 2577.44,-105.4 2571.1,-103.7 2564.81,-102"/>
<polygon fill="#63b8ff" stroke="#63b8ff" points="2714.35,-144.02 2724.9,-143.04 2716.04,-137.22 2714.35,-144.02"/>
</g>
<!-- Node73 -->
<g id="node26" class="node">
<title>Node73</title>
<g id="a_node26"><a xlink:href="d__a__spinner_8h.html" target="_top" xlink:title=" ">
<polygon fill="#fff0f0" stroke="red" points="455.5,-101.5 339.5,-101.5 339.5,-71.5 455.5,-71.5 455.5,-101.5"/>
<text text-anchor="start" x="347.5" y="-89.5" font-family="Helvetica,sans-Serif" font-size="10.00">include/rel/d/a/d_a</text>
<text text-anchor="middle" x="397.5" y="-78.5" font-family="Helvetica,sans-Serif" font-size="10.00">_spinner/d_a_spinner.h</text>
</a>
</g>
</g>
<!-- Node2&#45;&gt;Node73 -->
<g id="edge27" class="edge">
<title>Node2&#45;&gt;Node73</title>
<path fill="none" stroke="#63b8ff" d="M2714.88,-156.52C2359.68,-153.85 696.47,-139.69 469.5,-107 461.3,-105.82 452.69,-104.01 444.41,-101.96"/>
<polygon fill="#63b8ff" stroke="#63b8ff" points="2714.69,-160.02 2724.71,-156.6 2714.74,-153.02 2714.69,-160.02"/>
</g>
<!-- Node75 -->
<g id="node27" class="node">
<title>Node75</title>
<g id="a_node27"><a xlink:href="d__a__player_8cpp.html" target="_top" xlink:title=" ">
<polygon fill="white" stroke="#666666" points="526.5,-24.5 412.5,-24.5 412.5,-5.5 526.5,-5.5 526.5,-24.5"/>
<text text-anchor="middle" x="469.5" y="-12.5" font-family="Helvetica,sans-Serif" font-size="10.00">src/d/a/d_a_player.cpp</text>
</a>
</g>
</g>
<!-- Node2&#45;&gt;Node75 -->
<g id="edge46" class="edge">
<title>Node2&#45;&gt;Node75</title>
<path fill="none" stroke="#63b8ff" d="M2714.79,-156.57C2343.69,-154.04 548.62,-140.1 502.5,-107 475.47,-87.6 470.51,-43.77 469.65,-24.91"/>
<polygon fill="#63b8ff" stroke="#63b8ff" points="2714.58,-160.07 2724.6,-156.63 2714.63,-153.07 2714.58,-160.07"/>
</g>
<!-- Node76 -->
<g id="node28" class="node">
<title>Node76</title>
<g id="a_node28"><a xlink:href="d__a__obj__cboard_8h.html" target="_top" xlink:title=" ">
<polygon fill="white" stroke="#666666" points="2700,-107 2593,-107 2593,-66 2700,-66 2700,-107"/>
<text text-anchor="start" x="2601" y="-95" font-family="Helvetica,sans-Serif" font-size="10.00">include/rel/d/a/obj</text>
<text text-anchor="start" x="2601" y="-84" font-family="Helvetica,sans-Serif" font-size="10.00">/d_a_obj_cboard/d_a</text>
<text text-anchor="middle" x="2646.5" y="-73" font-family="Helvetica,sans-Serif" font-size="10.00">_obj_cboard.h</text>
</a>
</g>
</g>
<!-- Node2&#45;&gt;Node76 -->
<g id="edge30" class="edge">
<title>Node2&#45;&gt;Node76</title>
<path fill="none" stroke="#63b8ff" d="M2743.54,-137.46C2725.31,-128.07 2703.51,-116.85 2685.19,-107.42"/>
<polygon fill="#63b8ff" stroke="#63b8ff" points="2741.69,-140.44 2752.18,-141.91 2744.89,-134.22 2741.69,-140.44"/>
</g>
<!-- Node77 -->
<g id="node29" class="node">
<title>Node77</title>
<g id="a_node29"><a xlink:href="d__a__obj__enemy__create_8h.html" target="_top" xlink:title=" ">
<polygon fill="white" stroke="#666666" points="2845,-107 2718,-107 2718,-66 2845,-66 2845,-107"/>
<text text-anchor="start" x="2726" y="-95" font-family="Helvetica,sans-Serif" font-size="10.00">include/rel/d/a/obj</text>
<text text-anchor="start" x="2726" y="-84" font-family="Helvetica,sans-Serif" font-size="10.00">/d_a_obj_enemy_create</text>
<text text-anchor="middle" x="2781.5" y="-73" font-family="Helvetica,sans-Serif" font-size="10.00">/d_a_obj_enemy_create.h</text>
</a>
</g>
</g>
<!-- Node2&#45;&gt;Node77 -->
<g id="edge31" class="edge">
<title>Node2&#45;&gt;Node77</title>
<path fill="none" stroke="#63b8ff" d="M2781.5,-131.36C2781.5,-123.45 2781.5,-114.87 2781.5,-107.42"/>
<polygon fill="#63b8ff" stroke="#63b8ff" points="2778,-131.09 2781.5,-141.09 2785,-131.09 2778,-131.09"/>
</g>
<!-- Node78 -->
<g id="node30" class="node">
<title>Node78</title>
<g id="a_node30"><a xlink:href="d__a__obj__web0_8h.html" target="_top" xlink:title=" ">
<polygon fill="white" stroke="#666666" points="2982,-107 2863,-107 2863,-66 2982,-66 2982,-107"/>
<text text-anchor="start" x="2871" y="-95" font-family="Helvetica,sans-Serif" font-size="10.00">include/rel/d/a/obj</text>
<text text-anchor="start" x="2871" y="-84" font-family="Helvetica,sans-Serif" font-size="10.00">/d_a_obj_web0/d_a_obj</text>
<text text-anchor="middle" x="2922.5" y="-73" font-family="Helvetica,sans-Serif" font-size="10.00">_web0.h</text>
</a>
</g>
</g>
<!-- Node2&#45;&gt;Node78 -->
<g id="edge32" class="edge">
<title>Node2&#45;&gt;Node78</title>
<path fill="none" stroke="#63b8ff" d="M2820.88,-137.59C2839.97,-128.18 2862.87,-116.89 2882.1,-107.42"/>
<polygon fill="#63b8ff" stroke="#63b8ff" points="2819.5,-134.37 2812.07,-141.93 2822.59,-140.65 2819.5,-134.37"/>
</g>
<!-- Node79 -->
<g id="node31" class="node">
<title>Node79</title>
<g id="a_node31"><a xlink:href="d__a__obj__web1_8h.html" target="_top" xlink:title=" ">
<polygon fill="white" stroke="#666666" points="3119,-107 3000,-107 3000,-66 3119,-66 3119,-107"/>
<text text-anchor="start" x="3008" y="-95" font-family="Helvetica,sans-Serif" font-size="10.00">include/rel/d/a/obj</text>
<text text-anchor="start" x="3008" y="-84" font-family="Helvetica,sans-Serif" font-size="10.00">/d_a_obj_web1/d_a_obj</text>
<text text-anchor="middle" x="3059.5" y="-73" font-family="Helvetica,sans-Serif" font-size="10.00">_web1.h</text>
</a>
</g>
</g>
<!-- Node2&#45;&gt;Node79 -->
<g id="edge33" class="edge">
<title>Node2&#45;&gt;Node79</title>
<path fill="none" stroke="#63b8ff" d="M2847.65,-141.9C2888.85,-132.32 2942.88,-119.42 2990.5,-107 2993.51,-106.21 2996.59,-105.4 2999.7,-104.56"/>
<polygon fill="#63b8ff" stroke="#63b8ff" points="2847.08,-138.44 2838.13,-144.11 2848.66,-145.26 2847.08,-138.44"/>
</g>
<!-- Node80 -->
<g id="node32" class="node">
<title>Node80</title>
<g id="a_node32"><a xlink:href="d__a__obj__yobikusa_8h.html" target="_top" xlink:title=" ">
<polygon fill="white" stroke="#666666" points="3242,-107 3137,-107 3137,-66 3242,-66 3242,-107"/>
<text text-anchor="start" x="3145" y="-95" font-family="Helvetica,sans-Serif" font-size="10.00">include/rel/d/a/obj</text>
<text text-anchor="start" x="3145" y="-84" font-family="Helvetica,sans-Serif" font-size="10.00">/d_a_obj_yobikusa/d</text>
<text text-anchor="middle" x="3189.5" y="-73" font-family="Helvetica,sans-Serif" font-size="10.00">_a_obj_yobikusa.h</text>
</a>
</g>
</g>
<!-- Node2&#45;&gt;Node80 -->
<g id="edge34" class="edge">
<title>Node2&#45;&gt;Node80</title>
<path fill="none" stroke="#63b8ff" d="M2848.13,-150.6C2918.24,-143.11 3031.51,-128.88 3127.5,-107 3130.47,-106.32 3133.5,-105.57 3136.55,-104.77"/>
<polygon fill="#63b8ff" stroke="#63b8ff" points="2847.92,-147.1 2838.34,-151.63 2848.65,-154.06 2847.92,-147.1"/>
</g>
<!-- Node81 -->
<g id="node33" class="node">
<title>Node81</title>
<g id="a_node33"><a xlink:href="d__a__tag__ajnot_8h.html" target="_top" xlink:title=" ">
<polygon fill="white" stroke="#666666" points="3378.5,-107 3260.5,-107 3260.5,-66 3378.5,-66 3378.5,-107"/>
<text text-anchor="start" x="3268.5" y="-95" font-family="Helvetica,sans-Serif" font-size="10.00">include/rel/d/a/tag</text>
<text text-anchor="start" x="3268.5" y="-84" font-family="Helvetica,sans-Serif" font-size="10.00">/d_a_tag_ajnot/d_a_tag</text>
<text text-anchor="middle" x="3319.5" y="-73" font-family="Helvetica,sans-Serif" font-size="10.00">_ajnot.h</text>
</a>
</g>
</g>
<!-- Node2&#45;&gt;Node81 -->
<g id="edge35" class="edge">
<title>Node2&#45;&gt;Node81</title>
<path fill="none" stroke="#63b8ff" d="M2848.12,-153.46C2939.52,-147.79 3108.63,-134.4 3250.5,-107 3253.68,-106.39 3256.92,-105.7 3260.19,-104.95"/>
<polygon fill="#63b8ff" stroke="#63b8ff" points="2848.1,-149.95 2838.33,-154.05 2848.53,-156.94 2848.1,-149.95"/>
</g>
<!-- Node82 -->
<g id="node34" class="node">
<title>Node82</title>
<g id="a_node34"><a xlink:href="d__a__tag__assistance_8h.html" target="_top" xlink:title=" ">
<polygon fill="white" stroke="#666666" points="3510.5,-107 3396.5,-107 3396.5,-66 3510.5,-66 3510.5,-107"/>
<text text-anchor="start" x="3404.5" y="-95" font-family="Helvetica,sans-Serif" font-size="10.00">include/rel/d/a/tag</text>
<text text-anchor="start" x="3404.5" y="-84" font-family="Helvetica,sans-Serif" font-size="10.00">/d_a_tag_assistance</text>
<text text-anchor="middle" x="3453.5" y="-73" font-family="Helvetica,sans-Serif" font-size="10.00">/d_a_tag_assistance.h</text>
</a>
</g>
</g>
<!-- Node2&#45;&gt;Node82 -->
<g id="edge36" class="edge">
<title>Node2&#45;&gt;Node82</title>
<path fill="none" stroke="#63b8ff" d="M2848.19,-155.95C2960.43,-153.2 3193.82,-143.21 3387.5,-107 3390.32,-106.47 3393.19,-105.87 3396.08,-105.22"/>
<polygon fill="#63b8ff" stroke="#63b8ff" points="2848.16,-152.45 2838.25,-156.18 2848.33,-159.45 2848.16,-152.45"/>
</g>
<!-- Node83 -->
<g id="node35" class="node">
<title>Node83</title>
<g id="a_node35"><a xlink:href="d__a__tag__gra_8h.html" target="_top" xlink:title=" ">
<polygon fill="white" stroke="#666666" points="3666,-101.5 3529,-101.5 3529,-71.5 3666,-71.5 3666,-101.5"/>
<text text-anchor="start" x="3537" y="-89.5" font-family="Helvetica,sans-Serif" font-size="10.00">include/rel/d/a/tag</text>
<text text-anchor="middle" x="3597.5" y="-78.5" font-family="Helvetica,sans-Serif" font-size="10.00">/d_a_tag_gra/d_a_tag_gra.h</text>
</a>
</g>
</g>
<!-- Node2&#45;&gt;Node83 -->
<g id="edge37" class="edge">
<title>Node2&#45;&gt;Node83</title>
<path fill="none" stroke="#63b8ff" d="M2848.27,-156.43C2978.28,-154.45 3274.15,-145.67 3519.5,-107 3527.77,-105.7 3536.45,-103.93 3544.89,-102"/>
<polygon fill="#63b8ff" stroke="#63b8ff" points="2848.42,-152.93 2838.47,-156.57 2848.52,-159.93 2848.42,-152.93"/>
</g>
<!-- Node84 -->
<g id="node36" class="node">
<title>Node84</title>
<g id="a_node36"><a xlink:href="d__a__tag__howl_8h.html" target="_top" xlink:title=" ">
<polygon fill="white" stroke="#666666" points="3801,-107 3684,-107 3684,-66 3801,-66 3801,-107"/>
<text text-anchor="start" x="3692" y="-95" font-family="Helvetica,sans-Serif" font-size="10.00">include/rel/d/a/tag</text>
<text text-anchor="start" x="3692" y="-84" font-family="Helvetica,sans-Serif" font-size="10.00">/d_a_tag_howl/d_a_tag</text>
<text text-anchor="middle" x="3742.5" y="-73" font-family="Helvetica,sans-Serif" font-size="10.00">_howl.h</text>
</a>
</g>
</g>
<!-- Node2&#45;&gt;Node84 -->
<g id="edge38" class="edge">
<title>Node2&#45;&gt;Node84</title>
<path fill="none" stroke="#63b8ff" d="M2848.23,-155.19C3027.31,-150.04 3515.61,-133.88 3674.5,-107 3677.53,-106.49 3680.61,-105.89 3683.71,-105.23"/>
<polygon fill="#63b8ff" stroke="#63b8ff" points="2848.3,-151.69 2838.4,-155.48 2848.5,-158.69 2848.3,-151.69"/>
</g>
<!-- Node85 -->
<g id="node37" class="node">
<title>Node85</title>
<g id="a_node37"><a xlink:href="d__a__tag__lv6CstaSw_8h.html" target="_top" xlink:title=" ">
<polygon fill="white" stroke="#666666" points="3934,-107 3819,-107 3819,-66 3934,-66 3934,-107"/>
<text text-anchor="start" x="3827" y="-95" font-family="Helvetica,sans-Serif" font-size="10.00">include/rel/d/a/tag</text>
<text text-anchor="start" x="3827" y="-84" font-family="Helvetica,sans-Serif" font-size="10.00">/d_a_tag_lv6CstaSw/d</text>
<text text-anchor="middle" x="3876.5" y="-73" font-family="Helvetica,sans-Serif" font-size="10.00">_a_tag_lv6CstaSw.h</text>
</a>
</g>
</g>
<!-- Node2&#45;&gt;Node85 -->
<g id="edge39" class="edge">
<title>Node2&#45;&gt;Node85</title>
<path fill="none" stroke="#63b8ff" d="M2848.26,-155.8C3045.53,-151.92 3623.54,-138.14 3809.5,-107 3812.49,-106.5 3815.53,-105.91 3818.59,-105.26"/>
<polygon fill="#63b8ff" stroke="#63b8ff" points="2848.38,-152.29 2838.45,-155.99 2848.51,-159.29 2848.38,-152.29"/>
</g>
<!-- Node86 -->
<g id="node38" class="node">
<title>Node86</title>
<g id="a_node38"><a xlink:href="d__a__tag__telop_8h.html" target="_top" xlink:title=" ">
<polygon fill="white" stroke="#666666" points="4070.5,-107 3952.5,-107 3952.5,-66 4070.5,-66 4070.5,-107"/>
<text text-anchor="start" x="3960.5" y="-95" font-family="Helvetica,sans-Serif" font-size="10.00">include/rel/d/a/tag</text>
<text text-anchor="start" x="3960.5" y="-84" font-family="Helvetica,sans-Serif" font-size="10.00">/d_a_tag_telop/d_a_tag</text>
<text text-anchor="middle" x="4011.5" y="-73" font-family="Helvetica,sans-Serif" font-size="10.00">_telop.h</text>
</a>
</g>
</g>
<!-- Node2&#45;&gt;Node86 -->
<g id="edge40" class="edge">
<title>Node2&#45;&gt;Node86</title>
<path fill="none" stroke="#63b8ff" d="M2848.34,-156.16C3062.41,-153.15 3729.54,-141.2 3942.5,-107 3945.7,-106.49 3948.95,-105.88 3952.23,-105.19"/>
<polygon fill="#63b8ff" stroke="#63b8ff" points="2848.45,-152.66 2838.5,-156.3 2848.55,-159.66 2848.45,-152.66"/>
</g>
<!-- Node87 -->
<g id="node39" class="node">
<title>Node87</title>
<g id="a_node39"><a xlink:href="c__dylink_8cpp.html" target="_top" xlink:title=" ">
<polygon fill="white" stroke="#666666" points="4184,-96 4089,-96 4089,-77 4184,-77 4184,-96"/>
<text text-anchor="middle" x="4136.5" y="-84" font-family="Helvetica,sans-Serif" font-size="10.00">src/c/c_dylink.cpp</text>
</a>
</g>
</g>
<!-- Node2&#45;&gt;Node87 -->
<g id="edge41" class="edge">
<title>Node2&#45;&gt;Node87</title>
<path fill="none" stroke="#63b8ff" d="M2848.01,-156.99C3078.16,-156.54 3839.67,-151.65 4079.5,-107 4091.63,-104.74 4104.69,-100.42 4115.24,-96.42"/>
<polygon fill="#63b8ff" stroke="#63b8ff" points="2848.33,-153.49 2838.33,-157 2848.34,-160.49 2848.33,-153.49"/>
</g>
<!-- Node88 -->
<g id="node40" class="node">
<title>Node88</title>
<g id="a_node40"><a xlink:href="d__a__itembase_8cpp.html" target="_top" xlink:title=" ">
<polygon fill="white" stroke="#666666" points="4330.5,-96 4202.5,-96 4202.5,-77 4330.5,-77 4330.5,-96"/>
<text text-anchor="middle" x="4266.5" y="-84" font-family="Helvetica,sans-Serif" font-size="10.00">src/d/a/d_a_itembase.cpp</text>
</a>
</g>
</g>
<!-- Node2&#45;&gt;Node88 -->
<g id="edge43" class="edge">
<title>Node2&#45;&gt;Node88</title>
<path fill="none" stroke="#63b8ff" d="M2848.3,-156.6C3091.36,-154.83 3928.27,-146 4192.5,-107 4207.88,-104.73 4224.66,-100.46 4238.34,-96.5"/>
<polygon fill="#63b8ff" stroke="#63b8ff" points="2848.33,-153.1 2838.35,-156.67 2848.38,-160.1 2848.33,-153.1"/>
</g>
<!-- Node89 -->
<g id="node41" class="node">
<title>Node89</title>
<g id="a_node41"><a xlink:href="d__a__obj_8cpp.html" target="_top" xlink:title=" ">
<polygon fill="white" stroke="#666666" points="4450,-96 4349,-96 4349,-77 4450,-77 4450,-96"/>
<text text-anchor="middle" x="4399.5" y="-84" font-family="Helvetica,sans-Serif" font-size="10.00">src/d/a/d_a_obj.cpp</text>
</a>
</g>
</g>
<!-- Node2&#45;&gt;Node89 -->
<g id="edge44" class="edge">
<title>Node2&#45;&gt;Node89</title>
<path fill="none" stroke="#63b8ff" d="M2848.32,-157.36C3107.51,-158.35 4046.44,-158.26 4339.5,-107 4352.23,-104.77 4365.97,-100.46 4377.09,-96.45"/>
<polygon fill="#63b8ff" stroke="#63b8ff" points="2848.39,-153.86 2838.37,-157.32 2848.36,-160.86 2848.39,-153.86"/>
</g>
<!-- Node90 -->
<g id="node42" class="node">
<title>Node90</title>
<g id="a_node42"><a xlink:href="d__bg__s_8cpp.html" target="_top" xlink:title=" ">
<polygon fill="white" stroke="#666666" points="4572.5,-96 4468.5,-96 4468.5,-77 4572.5,-77 4572.5,-96"/>
<text text-anchor="middle" x="4520.5" y="-84" font-family="Helvetica,sans-Serif" font-size="10.00">src/d/bg/d_bg_s.cpp</text>
</a>
</g>
</g>
<!-- Node2&#45;&gt;Node90 -->
<g id="edge47" class="edge">
<title>Node2&#45;&gt;Node90</title>
<path fill="none" stroke="#63b8ff" d="M2847.99,-157.45C3118.97,-158.91 4140.67,-160.66 4458.5,-107 4471.63,-104.78 4485.83,-100.47 4497.32,-96.46"/>
<polygon fill="#63b8ff" stroke="#63b8ff" points="2848.31,-153.95 2838.29,-157.4 2848.27,-160.95 2848.31,-153.95"/>
</g>
<!-- Node91 -->
<g id="node43" class="node">
<title>Node91</title>
<g id="a_node43"><a xlink:href="d__bg__s__movebg__actor_8cpp.html" target="_top" xlink:title=" ">
<polygon fill="white" stroke="#666666" points="4716.5,-101.5 4590.5,-101.5 4590.5,-71.5 4716.5,-71.5 4716.5,-101.5"/>
<text text-anchor="start" x="4598.5" y="-89.5" font-family="Helvetica,sans-Serif" font-size="10.00">src/d/bg/d_bg_s_movebg</text>
<text text-anchor="middle" x="4653.5" y="-78.5" font-family="Helvetica,sans-Serif" font-size="10.00">_actor.cpp</text>
</a>
</g>
</g>
<!-- Node2&#45;&gt;Node91 -->
<g id="edge48" class="edge">
<title>Node2&#45;&gt;Node91</title>
<path fill="none" stroke="#63b8ff" d="M2848.07,-157.26C3131.32,-158.02 4237.35,-157.65 4581.5,-107 4589.7,-105.79 4598.3,-103.97 4606.59,-101.92"/>
<polygon fill="#63b8ff" stroke="#63b8ff" points="2848.3,-153.76 2838.29,-157.23 2848.28,-160.76 2848.3,-153.76"/>
</g>
<!-- Node92 -->
<g id="node44" class="node">
<title>Node92</title>
<g id="a_node44"><a xlink:href="d__bg__w_8cpp.html" target="_top" xlink:title=" ">
<polygon fill="white" stroke="#666666" points="4842,-96 4735,-96 4735,-77 4842,-77 4842,-96"/>
<text text-anchor="middle" x="4788.5" y="-84" font-family="Helvetica,sans-Serif" font-size="10.00">src/d/bg/d_bg_w.cpp</text>
</a>
</g>
</g>
<!-- Node2&#45;&gt;Node92 -->
<g id="edge49" class="edge">
<title>Node2&#45;&gt;Node92</title>
<path fill="none" stroke="#63b8ff" d="M2848.28,-156.37C3168.32,-153.2 4537.41,-137.92 4725.5,-107 4738.83,-104.81 4753.26,-100.49 4764.94,-96.48"/>
<polygon fill="#63b8ff" stroke="#63b8ff" points="2848.38,-152.87 2838.42,-156.47 2848.45,-159.87 2848.38,-152.87"/>
</g>
<!-- Node93 -->
<g id="node45" class="node">
<title>Node93</title>
<g id="a_node45"><a xlink:href="d__cc__s_8cpp.html" target="_top" xlink:title=" ">
<polygon fill="white" stroke="#666666" points="4964.5,-96 4860.5,-96 4860.5,-77 4964.5,-77 4964.5,-96"/>
<text text-anchor="middle" x="4912.5" y="-84" font-family="Helvetica,sans-Serif" font-size="10.00">src/d/cc/d_cc_s.cpp</text>
</a>
</g>
</g>
<!-- Node2&#45;&gt;Node93 -->
<g id="edge50" class="edge">
<title>Node2&#45;&gt;Node93</title>
<path fill="none" stroke="#63b8ff" d="M2848.22,-156.5C3180.59,-153.85 4649.51,-140.35 4850.5,-107 4863.64,-104.82 4877.83,-100.51 4889.33,-96.49"/>
<polygon fill="#63b8ff" stroke="#63b8ff" points="2848.37,-153 2838.4,-156.58 2848.42,-160 2848.37,-153"/>
</g>
<!-- Node94 -->
<g id="node46" class="node">
<title>Node94</title>
<g id="a_node46"><a xlink:href="d__com__static_8cpp.html" target="_top" xlink:title=" ">
<polygon fill="white" stroke="#666666" points="5122.5,-96 4982.5,-96 4982.5,-77 5122.5,-77 5122.5,-96"/>
<text text-anchor="middle" x="5052.5" y="-84" font-family="Helvetica,sans-Serif" font-size="10.00">src/d/com/d_com_static.cpp</text>
</a>
</g>
</g>
<!-- Node2&#45;&gt;Node94 -->
<g id="edge52" class="edge">
<title>Node2&#45;&gt;Node94</title>
<path fill="none" stroke="#63b8ff" d="M2848.48,-156.35C3193.13,-152.87 4758.8,-135.59 4973.5,-107 4990.02,-104.8 5008.1,-100.48 5022.79,-96.47"/>
<polygon fill="#63b8ff" stroke="#63b8ff" points="2848.46,-152.85 2838.49,-156.45 2848.53,-159.85 2848.46,-152.85"/>
</g>
<!-- Node95 -->
<g id="node47" class="node">
<title>Node95</title>
<g id="a_node47"><a xlink:href="d__attention_8cpp.html" target="_top" xlink:title=" ">
<polygon fill="white" stroke="#666666" points="5248,-96 5141,-96 5141,-77 5248,-77 5248,-96"/>
<text text-anchor="middle" x="5194.5" y="-84" font-family="Helvetica,sans-Serif" font-size="10.00">src/d/d_attention.cpp</text>
</a>
</g>
</g>
<!-- Node2&#45;&gt;Node95 -->
<g id="edge53" class="edge">
<title>Node2&#45;&gt;Node95</title>
<path fill="none" stroke="#63b8ff" d="M2848.36,-156.69C3207.64,-154.86 4901.24,-144.33 5131.5,-107 5144.95,-104.82 5159.51,-100.45 5171.24,-96.4"/>
<polygon fill="#63b8ff" stroke="#63b8ff" points="2848.38,-153.19 2838.4,-156.74 2848.42,-160.19 2848.38,-153.19"/>
</g>
<!-- Node96 -->
<g id="node48" class="node">
<title>Node96</title>
<g id="a_node48"><a xlink:href="d__cam__param_8cpp.html" target="_top" xlink:title=" ">
<polygon fill="white" stroke="#666666" points="5387,-96 5266,-96 5266,-77 5387,-77 5387,-96"/>
<text text-anchor="middle" x="5326.5" y="-84" font-family="Helvetica,sans-Serif" font-size="10.00">src/d/d_cam_param.cpp</text>
</a>
</g>
</g>
<!-- Node2&#45;&gt;Node96 -->
<g id="edge54" class="edge">
<title>Node2&#45;&gt;Node96</title>
<path fill="none" stroke="#63b8ff" d="M2848.02,-156.65C3217.8,-154.6 5012.6,-142.85 5256.5,-107 5271.35,-104.82 5287.52,-100.45 5300.58,-96.4"/>
<polygon fill="#63b8ff" stroke="#63b8ff" points="2848.22,-153.15 2838.24,-156.71 2848.26,-160.15 2848.22,-153.15"/>
</g>
<!-- Node97 -->
<g id="node49" class="node">
<title>Node97</title>
<g id="a_node49"><a xlink:href="d__camera_8cpp.html" target="_top" xlink:title=" ">
<polygon fill="white" stroke="#666666" points="5507.5,-96 5405.5,-96 5405.5,-77 5507.5,-77 5507.5,-96"/>
<text text-anchor="middle" x="5456.5" y="-84" font-family="Helvetica,sans-Serif" font-size="10.00">src/d/d_camera.cpp</text>
</a>
</g>
</g>
<!-- Node2&#45;&gt;Node97 -->
<g id="edge55" class="edge">
<title>Node2&#45;&gt;Node97</title>
<path fill="none" stroke="#63b8ff" d="M2848.37,-156.88C3231.28,-156.04 5137.89,-149.7 5395.5,-107 5408.55,-104.84 5422.65,-100.47 5434,-96.42"/>
<polygon fill="#63b8ff" stroke="#63b8ff" points="2848.46,-153.38 2838.47,-156.9 2848.48,-160.38 2848.46,-153.38"/>
</g>
<!-- Node98 -->
<g id="node50" class="node">
<title>Node98</title>
<g id="a_node50"><a xlink:href="d__drawlist_8cpp.html" target="_top" xlink:title=" ">
<polygon fill="white" stroke="#666666" points="5629.5,-96 5525.5,-96 5525.5,-77 5629.5,-77 5629.5,-96"/>
<text text-anchor="middle" x="5577.5" y="-84" font-family="Helvetica,sans-Serif" font-size="10.00">src/d/d_drawlist.cpp</text>
</a>
</g>
</g>
<!-- Node2&#45;&gt;Node98 -->
<g id="edge57" class="edge">
<title>Node2&#45;&gt;Node98</title>
<path fill="none" stroke="#63b8ff" d="M2848.29,-156.94C3241.45,-156.44 5246.23,-151.68 5516.5,-107 5529.55,-104.84 5543.65,-100.48 5555,-96.42"/>
<polygon fill="#63b8ff" stroke="#63b8ff" points="2848.37,-153.44 2838.37,-156.95 2848.38,-160.44 2848.37,-153.44"/>
</g>
<!-- Node15&#45;&gt;Node12 -->
<g id="edge5" class="edge">
<title>Node15&#45;&gt;Node12</title>
<path fill="none" stroke="#63b8ff" d="M223.9,-71.05C249.31,-57.15 286.91,-36.57 308.22,-24.91"/>
<polygon fill="#63b8ff" stroke="#63b8ff" points="222.26,-67.96 215.17,-75.83 225.62,-74.1 222.26,-67.96"/>
</g>
<!-- Node15&#45;&gt;Node16 -->
<g id="edge6" class="edge">
<title>Node15&#45;&gt;Node16</title>
<path fill="none" stroke="#63b8ff" d="M170.16,-71.42C143.15,-57.52 102.66,-36.67 79.81,-24.91"/>
<polygon fill="#63b8ff" stroke="#63b8ff" points="168.29,-74.4 178.78,-75.86 171.49,-68.17 168.29,-74.4"/>
</g>
<!-- Node15&#45;&gt;Node17 -->
<g id="edge7" class="edge">
<title>Node15&#45;&gt;Node17</title>
<path fill="none" stroke="#63b8ff" d="M197.5,-65.39C197.5,-54.15 197.5,-40.41 197.5,-30.27"/>
<polygon fill="#63b8ff" stroke="#63b8ff" points="194,-65.18 197.5,-75.18 201,-65.18 194,-65.18"/>
</g>
<!-- Node39&#45;&gt;Node3 -->
<g id="edge15" class="edge">
<title>Node39&#45;&gt;Node3</title>
<path fill="none" stroke="#63b8ff" d="M5737.47,-65.42C5760.8,-52.01 5790.35,-35.04 5808.04,-24.88"/>
<polygon fill="#63b8ff" stroke="#63b8ff" points="5735.81,-62.33 5728.88,-70.35 5739.3,-68.4 5735.81,-62.33"/>
</g>
<!-- Node39&#45;&gt;Node12 -->
<g id="edge16" class="edge">
<title>Node39&#45;&gt;Node12</title>
<path fill="none" stroke="#63b8ff" d="M5650.22,-68.24C5646.29,-67.35 5642.35,-66.59 5638.5,-66 5350.98,-22.16 693.13,-56.47 403.5,-30 391.71,-28.92 379.04,-27.02 367.37,-24.95"/>
<polygon fill="#63b8ff" stroke="#63b8ff" points="5649.23,-71.6 5659.78,-70.66 5650.94,-64.82 5649.23,-71.6"/>
</g>
<!-- Node39&#45;&gt;Node46 -->
<g id="edge17" class="edge">
<title>Node39&#45;&gt;Node46</title>
<path fill="none" stroke="#63b8ff" d="M5702.5,-59.96C5702.5,-47.57 5702.5,-33.49 5702.5,-24.68"/>
<polygon fill="#63b8ff" stroke="#63b8ff" points="5699,-59.59 5702.5,-69.59 5706,-59.59 5699,-59.59"/>
</g>
<!-- Node73&#45;&gt;Node12 -->
<g id="edge28" class="edge">
<title>Node73&#45;&gt;Node12</title>
<path fill="none" stroke="#63b8ff" d="M374.25,-63.36C360.45,-50.23 343.73,-34.31 333.62,-24.68"/>
<polygon fill="#63b8ff" stroke="#63b8ff" points="371.62,-65.7 381.28,-70.06 376.45,-60.63 371.62,-65.7"/>
</g>
<!-- Node73&#45;&gt;Node75 -->
<g id="edge29" class="edge">
<title>Node73&#45;&gt;Node75</title>
<path fill="none" stroke="#63b8ff" d="M420.43,-63.36C434.04,-50.23 450.53,-34.31 460.51,-24.68"/>
<polygon fill="#63b8ff" stroke="#63b8ff" points="418.27,-60.59 413.51,-70.05 423.13,-65.62 418.27,-60.59"/>
</g>
</g>
</svg>
