<?xml version="1.0" encoding="UTF-8" standalone="no"?>
<!DOCTYPE svg PUBLIC "-//W3C//DTD SVG 1.1//EN"
 "http://www.w3.org/Graphics/SVG/1.1/DTD/svg11.dtd">
<!-- Generated by graphviz version 7.0.5 (20221223.1930)
 -->
<!-- Title: include/rel/d/a/tag/d_a_tag_mmsg/d_a_tag_mmsg.h Pages: 1 -->
<svg width="5646pt" height="313pt"
 viewBox="0.00 0.00 5646.08 313.00" xmlns="http://www.w3.org/2000/svg" xmlns:xlink="http://www.w3.org/1999/xlink">
<g id="graph0" class="graph" transform="scale(1 1) rotate(0) translate(4 309)">
<title>include/rel/d/a/tag/d_a_tag_mmsg/d_a_tag_mmsg.h</title>
<!-- Node1 -->
<g id="node1" class="node">
<title>Node1</title>
<g id="a_node1"><a xlink:title=" ">
<polygon fill="#999999" stroke="#666666" points="1423.5,-305 1299.5,-305 1299.5,-264 1423.5,-264 1423.5,-305"/>
<text text-anchor="start" x="1307.5" y="-293" font-family="Helvetica,sans-Serif" font-size="10.00">include/rel/d/a/tag</text>
<text text-anchor="start" x="1307.5" y="-282" font-family="Helvetica,sans-Serif" font-size="10.00">/d_a_tag_mmsg/d_a_tag</text>
<text text-anchor="middle" x="1361.5" y="-271" font-family="Helvetica,sans-Serif" font-size="10.00">_mmsg.h</text>
</a>
</g>
</g>
<!-- Node2 -->
<g id="node2" class="node">
<title>Node2</title>
<g id="a_node2"><a xlink:href="d__a__alink_8h.html" target="_top" xlink:title=" ">
<polygon fill="white" stroke="#666666" points="1419.5,-228 1303.5,-228 1303.5,-209 1419.5,-209 1419.5,-228"/>
<text text-anchor="middle" x="1361.5" y="-216" font-family="Helvetica,sans-Serif" font-size="10.00">include/d/a/d_a_alink.h</text>
</a>
</g>
</g>
<!-- Node1&#45;&gt;Node2 -->
<g id="edge1" class="edge">
<title>Node1&#45;&gt;Node2</title>
<path fill="none" stroke="#63b8ff" d="M1361.5,-252.23C1361.5,-243.38 1361.5,-234.45 1361.5,-228.16"/>
<polygon fill="#63b8ff" stroke="#63b8ff" points="1358,-252.09 1361.5,-262.09 1365,-252.09 1358,-252.09"/>
</g>
<!-- Node3 -->
<g id="node3" class="node">
<title>Node3</title>
<g id="a_node3"><a xlink:href="d__com__inf__game_8h.html" target="_top" xlink:title=" ">
<polygon fill="#fff0f0" stroke="red" points="2637.5,-173 2527.5,-173 2527.5,-143 2637.5,-143 2637.5,-173"/>
<text text-anchor="start" x="2535.5" y="-161" font-family="Helvetica,sans-Serif" font-size="10.00">include/d/com/d_com</text>
<text text-anchor="middle" x="2582.5" y="-150" font-family="Helvetica,sans-Serif" font-size="10.00">_inf_game.h</text>
</a>
</g>
</g>
<!-- Node2&#45;&gt;Node3 -->
<g id="edge2" class="edge">
<title>Node2&#45;&gt;Node3</title>
<path fill="none" stroke="#63b8ff" d="M1431.36,-214.15C1651.65,-203.6 2328.84,-171.15 2527.3,-161.64"/>
<polygon fill="#63b8ff" stroke="#63b8ff" points="1431.31,-210.65 1421.49,-214.63 1431.65,-217.64 1431.31,-210.65"/>
</g>
<!-- Node13 -->
<g id="node7" class="node">
<title>Node13</title>
<g id="a_node7"><a xlink:href="d__a__alink_8cpp.html" target="_top" xlink:title=" ">
<polygon fill="white" stroke="#666666" points="379,-24.5 270,-24.5 270,-5.5 379,-5.5 379,-24.5"/>
<text text-anchor="middle" x="324.5" y="-12.5" font-family="Helvetica,sans-Serif" font-size="10.00">src/d/a/d_a_alink.cpp</text>
</a>
</g>
</g>
<!-- Node2&#45;&gt;Node13 -->
<g id="edge58" class="edge">
<title>Node2&#45;&gt;Node13</title>
<path fill="none" stroke="#63b8ff" d="M1291.94,-215.57C1065.97,-208.59 363.26,-181.04 296.5,-107 274.92,-83.06 302.46,-42.79 316.81,-24.96"/>
<polygon fill="#63b8ff" stroke="#63b8ff" points="1291.67,-219.06 1301.77,-215.87 1291.88,-212.07 1291.67,-219.06"/>
</g>
<!-- Node4 -->
<g id="node4" class="node">
<title>Node4</title>
<g id="a_node4"><a xlink:href="d__a__npc_8h.html" target="_top" xlink:title=" ">
<polygon fill="#fff0f0" stroke="red" points="3230,-24.5 3119,-24.5 3119,-5.5 3230,-5.5 3230,-24.5"/>
<text text-anchor="middle" x="3174.5" y="-12.5" font-family="Helvetica,sans-Serif" font-size="10.00">include/d/a/d_a_npc.h</text>
</a>
</g>
</g>
<!-- Node3&#45;&gt;Node4 -->
<g id="edge3" class="edge">
<title>Node3&#45;&gt;Node4</title>
<path fill="none" stroke="#63b8ff" d="M2649.14,-157.19C3090.33,-158.28 5574.43,-161.96 5628.5,-107 5641.28,-94.01 5641.25,-79.02 5628.5,-66 5585.12,-21.72 3592.12,-16.63 3230.47,-16.07"/>
<polygon fill="#63b8ff" stroke="#63b8ff" points="2649.41,-153.69 2639.4,-157.16 2649.4,-160.69 2649.41,-153.69"/>
</g>
<!-- Node10 -->
<g id="node5" class="node">
<title>Node10</title>
<g id="a_node5"><a xlink:href="d__cc__uty_8h.html" target="_top" xlink:title=" ">
<polygon fill="#fff0f0" stroke="red" points="776,-96 657,-96 657,-77 776,-77 776,-96"/>
<text text-anchor="middle" x="716.5" y="-84" font-family="Helvetica,sans-Serif" font-size="10.00">include/d/cc/d_cc_uty.h</text>
</a>
</g>
</g>
<!-- Node3&#45;&gt;Node10 -->
<g id="edge4" class="edge">
<title>Node3&#45;&gt;Node10</title>
<path fill="none" stroke="#63b8ff" d="M2516.02,-157.35C2233.19,-158.5 1128.79,-159.45 785.5,-107 770.98,-104.78 755.19,-100.46 742.38,-96.46"/>
<polygon fill="#63b8ff" stroke="#63b8ff" points="2515.81,-160.85 2525.79,-157.31 2515.78,-153.85 2515.81,-160.85"/>
</g>
<!-- Node16 -->
<g id="node6" class="node">
<title>Node16</title>
<g id="a_node6"><a xlink:href="d__item_8h.html" target="_top" xlink:title=" ">
<polygon fill="#fff0f0" stroke="red" points="186,-96 91,-96 91,-77 186,-77 186,-96"/>
<text text-anchor="middle" x="138.5" y="-84" font-family="Helvetica,sans-Serif" font-size="10.00">include/d/d_item.h</text>
</a>
</g>
</g>
<!-- Node3&#45;&gt;Node16 -->
<g id="edge5" class="edge">
<title>Node3&#45;&gt;Node16</title>
<path fill="none" stroke="#63b8ff" d="M2515.66,-157.12C2182.3,-157.48 697.34,-156.26 238.5,-107 217.75,-104.77 194.88,-100.45 176.26,-96.45"/>
<polygon fill="#63b8ff" stroke="#63b8ff" points="2515.52,-160.62 2525.51,-157.11 2515.51,-153.62 2515.52,-160.62"/>
</g>
<!-- Node3&#45;&gt;Node13 -->
<g id="edge42" class="edge">
<title>Node3&#45;&gt;Node13</title>
<path fill="none" stroke="#63b8ff" d="M2515.76,-156.8C2144.51,-155.56 349.09,-147.47 309.5,-107 287.55,-84.57 308.01,-43.14 318.8,-24.96"/>
<polygon fill="#63b8ff" stroke="#63b8ff" points="2515.57,-160.3 2525.58,-156.84 2515.59,-153.3 2515.57,-160.3"/>
</g>
<!-- Node17 -->
<g id="node8" class="node">
<title>Node17</title>
<g id="a_node8"><a xlink:href="d__a__obj__item_8cpp.html" target="_top" xlink:title=" ">
<polygon fill="white" stroke="#666666" points="125,-24.5 0,-24.5 0,-5.5 125,-5.5 125,-24.5"/>
<text text-anchor="middle" x="62.5" y="-12.5" font-family="Helvetica,sans-Serif" font-size="10.00">src/d/a/d_a_obj_item.cpp</text>
</a>
</g>
</g>
<!-- Node3&#45;&gt;Node17 -->
<g id="edge45" class="edge">
<title>Node3&#45;&gt;Node17</title>
<path fill="none" stroke="#63b8ff" d="M2515.61,-156.8C2122.63,-155.51 129.7,-146.98 81.5,-107 56.9,-86.6 58.99,-43.32 61.2,-24.75"/>
<polygon fill="#63b8ff" stroke="#63b8ff" points="2515.51,-160.3 2525.52,-156.84 2515.53,-153.3 2515.51,-160.3"/>
</g>
<!-- Node18 -->
<g id="node9" class="node">
<title>Node18</title>
<g id="a_node9"><a xlink:href="d__com__inf__game_8cpp.html" target="_top" xlink:title=" ">
<polygon fill="white" stroke="#666666" points="251.5,-30 143.5,-30 143.5,0 251.5,0 251.5,-30"/>
<text text-anchor="start" x="151.5" y="-18" font-family="Helvetica,sans-Serif" font-size="10.00">src/d/com/d_com_inf</text>
<text text-anchor="middle" x="197.5" y="-7" font-family="Helvetica,sans-Serif" font-size="10.00">_game.cpp</text>
</a>
</g>
</g>
<!-- Node3&#45;&gt;Node18 -->
<g id="edge51" class="edge">
<title>Node3&#45;&gt;Node18</title>
<path fill="none" stroke="#63b8ff" d="M2515.75,-156.87C2150.05,-155.97 401.98,-149.45 296.5,-107 257.08,-91.14 223.67,-51.84 207.65,-30.44"/>
<polygon fill="#63b8ff" stroke="#63b8ff" points="2515.65,-160.37 2525.66,-156.89 2515.67,-153.37 2515.65,-160.37"/>
</g>
<!-- Node21 -->
<g id="node10" class="node">
<title>Node21</title>
<g id="a_node10"><a xlink:href="d__kantera__icon__meter_8h.html" target="_top" xlink:title=" ">
<polygon fill="#fff0f0" stroke="red" points="895,-101.5 794,-101.5 794,-71.5 895,-71.5 895,-101.5"/>
<text text-anchor="start" x="802" y="-89.5" font-family="Helvetica,sans-Serif" font-size="10.00">include/d/d_kantera</text>
<text text-anchor="middle" x="844.5" y="-78.5" font-family="Helvetica,sans-Serif" font-size="10.00">_icon_meter.h</text>
</a>
</g>
</g>
<!-- Node3&#45;&gt;Node21 -->
<g id="edge9" class="edge">
<title>Node3&#45;&gt;Node21</title>
<path fill="none" stroke="#63b8ff" d="M2516.05,-156.14C2224.37,-152.19 1064.95,-134.88 904.5,-107 897.59,-105.8 890.39,-103.98 883.47,-101.93"/>
<polygon fill="#63b8ff" stroke="#63b8ff" points="2515.71,-159.63 2525.75,-156.27 2515.8,-152.63 2515.71,-159.63"/>
</g>
<!-- Node24 -->
<g id="node11" class="node">
<title>Node24</title>
<g id="a_node11"><a xlink:href="d__model_8h.html" target="_top" xlink:title=" ">
<polygon fill="#fff0f0" stroke="red" points="1016,-96 913,-96 913,-77 1016,-77 1016,-96"/>
<text text-anchor="middle" x="964.5" y="-84" font-family="Helvetica,sans-Serif" font-size="10.00">include/d/d_model.h</text>
</a>
</g>
</g>
<!-- Node3&#45;&gt;Node24 -->
<g id="edge10" class="edge">
<title>Node3&#45;&gt;Node24</title>
<path fill="none" stroke="#63b8ff" d="M2515.73,-157.31C2256.73,-158.14 1318.5,-157.52 1025.5,-107 1012.57,-104.77 998.6,-100.45 987.3,-96.45"/>
<polygon fill="#63b8ff" stroke="#63b8ff" points="2515.68,-160.81 2525.67,-157.28 2515.66,-153.81 2515.68,-160.81"/>
</g>
<!-- Node26 -->
<g id="node12" class="node">
<title>Node26</title>
<g id="a_node12"><a xlink:href="d__name_8h.html" target="_top" xlink:title=" ">
<polygon fill="#fff0f0" stroke="red" points="1135,-96 1034,-96 1034,-77 1135,-77 1135,-96"/>
<text text-anchor="middle" x="1084.5" y="-84" font-family="Helvetica,sans-Serif" font-size="10.00">include/d/d_name.h</text>
</a>
</g>
</g>
<!-- Node3&#45;&gt;Node26 -->
<g id="edge11" class="edge">
<title>Node3&#45;&gt;Node26</title>
<path fill="none" stroke="#63b8ff" d="M2515.96,-157.15C2270.09,-157.3 1413.15,-154.36 1144.5,-107 1131.77,-104.76 1118.03,-100.44 1106.91,-96.43"/>
<polygon fill="#63b8ff" stroke="#63b8ff" points="2515.69,-160.65 2525.69,-157.14 2515.69,-153.65 2515.69,-160.65"/>
</g>
<!-- Node28 -->
<g id="node13" class="node">
<title>Node28</title>
<g id="a_node13"><a xlink:href="d__file__sel__info_8h.html" target="_top" xlink:title=" ">
<polygon fill="#fff0f0" stroke="red" points="1249.5,-101.5 1153.5,-101.5 1153.5,-71.5 1249.5,-71.5 1249.5,-101.5"/>
<text text-anchor="start" x="1161.5" y="-89.5" font-family="Helvetica,sans-Serif" font-size="10.00">include/d/file/d_file</text>
<text text-anchor="middle" x="1201.5" y="-78.5" font-family="Helvetica,sans-Serif" font-size="10.00">_sel_info.h</text>
</a>
</g>
</g>
<!-- Node3&#45;&gt;Node28 -->
<g id="edge12" class="edge">
<title>Node3&#45;&gt;Node28</title>
<path fill="none" stroke="#63b8ff" d="M2515.85,-157.05C2282.55,-156.8 1503.56,-152.53 1258.5,-107 1252.02,-105.8 1245.28,-104 1238.8,-101.99"/>
<polygon fill="#63b8ff" stroke="#63b8ff" points="2515.68,-160.55 2525.68,-157.05 2515.68,-153.55 2515.68,-160.55"/>
</g>
<!-- Node31 -->
<g id="node14" class="node">
<title>Node31</title>
<g id="a_node14"><a xlink:href="d__file__sel__warning_8h.html" target="_top" xlink:title=" ">
<polygon fill="#fff0f0" stroke="red" points="1363.5,-101.5 1267.5,-101.5 1267.5,-71.5 1363.5,-71.5 1363.5,-101.5"/>
<text text-anchor="start" x="1275.5" y="-89.5" font-family="Helvetica,sans-Serif" font-size="10.00">include/d/file/d_file</text>
<text text-anchor="middle" x="1315.5" y="-78.5" font-family="Helvetica,sans-Serif" font-size="10.00">_sel_warning.h</text>
</a>
</g>
</g>
<!-- Node3&#45;&gt;Node31 -->
<g id="edge13" class="edge">
<title>Node3&#45;&gt;Node31</title>
<path fill="none" stroke="#63b8ff" d="M2515.76,-156.77C2295.69,-155.6 1594.42,-148.64 1372.5,-107 1366.02,-105.78 1359.28,-103.99 1352.8,-101.97"/>
<polygon fill="#63b8ff" stroke="#63b8ff" points="2515.57,-160.27 2525.59,-156.82 2515.61,-153.27 2515.57,-160.27"/>
</g>
<!-- Node33 -->
<g id="node15" class="node">
<title>Node33</title>
<g id="a_node15"><a xlink:href="d__meter2_8h.html" target="_top" xlink:title=" ">
<polygon fill="#fff0f0" stroke="red" points="1515.5,-96 1381.5,-96 1381.5,-77 1515.5,-77 1515.5,-96"/>
<text text-anchor="middle" x="1448.5" y="-84" font-family="Helvetica,sans-Serif" font-size="10.00">include/d/meter/d_meter2.h</text>
</a>
</g>
</g>
<!-- Node3&#45;&gt;Node33 -->
<g id="edge14" class="edge">
<title>Node3&#45;&gt;Node33</title>
<path fill="none" stroke="#63b8ff" d="M2515.96,-155.6C2315.26,-151.1 1717.9,-135.62 1525.5,-107 1509.54,-104.63 1492.09,-100.35 1477.84,-96.4"/>
<polygon fill="#63b8ff" stroke="#63b8ff" points="2515.61,-159.09 2525.68,-155.82 2515.76,-152.1 2515.61,-159.09"/>
</g>
<!-- Node40 -->
<g id="node16" class="node">
<title>Node40</title>
<g id="a_node16"><a xlink:href="d__msg__object_8h.html" target="_top" xlink:title=" ">
<polygon fill="#fff0f0" stroke="red" points="638.5,-101.5 528.5,-101.5 528.5,-71.5 638.5,-71.5 638.5,-101.5"/>
<text text-anchor="start" x="536.5" y="-89.5" font-family="Helvetica,sans-Serif" font-size="10.00">include/d/msg/d_msg</text>
<text text-anchor="middle" x="583.5" y="-78.5" font-family="Helvetica,sans-Serif" font-size="10.00">_object.h</text>
</a>
</g>
</g>
<!-- Node3&#45;&gt;Node40 -->
<g id="edge15" class="edge">
<title>Node3&#45;&gt;Node40</title>
<path fill="none" stroke="#63b8ff" d="M2516.07,-156.33C2197.7,-152.97 835.75,-136.96 648.5,-107 641.05,-105.81 633.27,-103.99 625.78,-101.94"/>
<polygon fill="#63b8ff" stroke="#63b8ff" points="2515.84,-159.83 2525.87,-156.43 2515.91,-152.83 2515.84,-159.83"/>
</g>
<!-- Node47 -->
<g id="node17" class="node">
<title>Node47</title>
<g id="a_node17"><a xlink:href="d__demo_8cpp.html" target="_top" xlink:title=" ">
<polygon fill="white" stroke="#666666" points="628.5,-24.5 534.5,-24.5 534.5,-5.5 628.5,-5.5 628.5,-24.5"/>
<text text-anchor="middle" x="581.5" y="-12.5" font-family="Helvetica,sans-Serif" font-size="10.00">src/d/d_demo.cpp</text>
</a>
</g>
</g>
<!-- Node3&#45;&gt;Node47 -->
<g id="edge56" class="edge">
<title>Node3&#45;&gt;Node47</title>
<path fill="none" stroke="#63b8ff" d="M2515.59,-156.65C2165.06,-154.66 555.17,-143.55 519.5,-107 506.77,-93.96 511.64,-82.44 519.5,-66 528.45,-47.29 548.2,-33.34 563.02,-24.99"/>
<polygon fill="#63b8ff" stroke="#63b8ff" points="2515.51,-160.15 2525.53,-156.71 2515.55,-153.15 2515.51,-160.15"/>
</g>
<!-- Node56 -->
<g id="node18" class="node">
<title>Node56</title>
<g id="a_node18"><a xlink:href="d__s__logo_8h.html" target="_top" xlink:title=" ">
<polygon fill="#fff0f0" stroke="red" points="1647,-96 1534,-96 1534,-77 1647,-77 1647,-96"/>
<text text-anchor="middle" x="1590.5" y="-84" font-family="Helvetica,sans-Serif" font-size="10.00">include/d/s/d_s_logo.h</text>
</a>
</g>
</g>
<!-- Node3&#45;&gt;Node56 -->
<g id="edge19" class="edge">
<title>Node3&#45;&gt;Node56</title>
<path fill="none" stroke="#63b8ff" d="M2515.85,-155.42C2332.26,-150.75 1821.93,-135.5 1656.5,-107 1642.72,-104.63 1627.75,-100.35 1615.56,-96.4"/>
<polygon fill="#63b8ff" stroke="#63b8ff" points="2515.6,-158.91 2525.69,-155.67 2515.78,-151.92 2515.6,-158.91"/>
</g>
<!-- Node58 -->
<g id="node19" class="node">
<title>Node58</title>
<g id="a_node19"><a xlink:href="d__s__play_8h.html" target="_top" xlink:title=" ">
<polygon fill="#fff0f0" stroke="red" points="1778,-96 1665,-96 1665,-77 1778,-77 1778,-96"/>
<text text-anchor="middle" x="1721.5" y="-84" font-family="Helvetica,sans-Serif" font-size="10.00">include/d/s/d_s_play.h</text>
</a>
</g>
</g>
<!-- Node3&#45;&gt;Node58 -->
<g id="edge20" class="edge">
<title>Node3&#45;&gt;Node58</title>
<path fill="none" stroke="#63b8ff" d="M2515.92,-157.83C2378.6,-158.44 2054.4,-154.2 1787.5,-107 1773.85,-104.59 1759.02,-100.36 1746.88,-96.45"/>
<polygon fill="#63b8ff" stroke="#63b8ff" points="2515.56,-161.33 2525.54,-157.77 2515.52,-154.33 2515.56,-161.33"/>
</g>
<!-- Node64 -->
<g id="node20" class="node">
<title>Node64</title>
<g id="a_node20"><a xlink:href="d__msg__scrn__base_8h.html" target="_top" xlink:title=" ">
<polygon fill="#fff0f0" stroke="red" points="1895,-101.5 1796,-101.5 1796,-71.5 1895,-71.5 1895,-101.5"/>
<text text-anchor="start" x="1804" y="-89.5" font-family="Helvetica,sans-Serif" font-size="10.00">include/msg/scrn/d</text>
<text text-anchor="middle" x="1845.5" y="-78.5" font-family="Helvetica,sans-Serif" font-size="10.00">_msg_scrn_base.h</text>
</a>
</g>
</g>
<!-- Node3&#45;&gt;Node64 -->
<g id="edge21" class="edge">
<title>Node3&#45;&gt;Node64</title>
<path fill="none" stroke="#63b8ff" d="M2516.03,-157.47C2393.75,-157.16 2125.42,-150.96 1904.5,-107 1898.05,-105.72 1891.32,-103.94 1884.81,-101.97"/>
<polygon fill="#63b8ff" stroke="#63b8ff" points="2515.88,-160.97 2525.89,-157.49 2515.89,-153.97 2515.88,-160.97"/>
</g>
<!-- Node68 -->
<g id="node21" class="node">
<title>Node68</title>
<g id="a_node21"><a xlink:href="d__a__b__oh2_8h.html" target="_top" xlink:title=" ">
<polygon fill="white" stroke="#666666" points="2029.5,-101.5 1913.5,-101.5 1913.5,-71.5 2029.5,-71.5 2029.5,-101.5"/>
<text text-anchor="start" x="1921.5" y="-89.5" font-family="Helvetica,sans-Serif" font-size="10.00">include/rel/d/a/b/d</text>
<text text-anchor="middle" x="1971.5" y="-78.5" font-family="Helvetica,sans-Serif" font-size="10.00">_a_b_oh2/d_a_b_oh2.h</text>
</a>
</g>
</g>
<!-- Node3&#45;&gt;Node68 -->
<g id="edge22" class="edge">
<title>Node3&#45;&gt;Node68</title>
<path fill="none" stroke="#63b8ff" d="M2515.86,-154.88C2412.89,-150.71 2209.28,-138.87 2039.5,-107 2032.38,-105.66 2024.93,-103.91 2017.68,-102"/>
<polygon fill="#63b8ff" stroke="#63b8ff" points="2515.67,-158.38 2525.79,-155.27 2515.94,-151.38 2515.67,-158.38"/>
</g>
<!-- Node69 -->
<g id="node22" class="node">
<title>Node69</title>
<g id="a_node22"><a xlink:href="d__a__b__zant_8h.html" target="_top" xlink:title=" ">
<polygon fill="white" stroke="#666666" points="2169,-101.5 2048,-101.5 2048,-71.5 2169,-71.5 2169,-101.5"/>
<text text-anchor="start" x="2056" y="-89.5" font-family="Helvetica,sans-Serif" font-size="10.00">include/rel/d/a/b/d</text>
<text text-anchor="middle" x="2108.5" y="-78.5" font-family="Helvetica,sans-Serif" font-size="10.00">_a_b_zant/d_a_b_zant.h</text>
</a>
</g>
</g>
<!-- Node3&#45;&gt;Node69 -->
<g id="edge23" class="edge">
<title>Node3&#45;&gt;Node69</title>
<path fill="none" stroke="#63b8ff" d="M2515.75,-151.8C2435.25,-144.82 2296.07,-130.52 2178.5,-107 2171.45,-105.59 2164.07,-103.84 2156.85,-101.97"/>
<polygon fill="#63b8ff" stroke="#63b8ff" points="2515.43,-155.28 2525.69,-152.65 2516.02,-148.31 2515.43,-155.28"/>
</g>
<!-- Node70 -->
<g id="node23" class="node">
<title>Node70</title>
<g id="a_node23"><a xlink:href="d__a__cstaF_8h.html" target="_top" xlink:title=" ">
<polygon fill="white" stroke="#666666" points="2287.5,-101.5 2187.5,-101.5 2187.5,-71.5 2287.5,-71.5 2287.5,-101.5"/>
<text text-anchor="start" x="2195.5" y="-89.5" font-family="Helvetica,sans-Serif" font-size="10.00">include/rel/d/a/d_a</text>
<text text-anchor="middle" x="2237.5" y="-78.5" font-family="Helvetica,sans-Serif" font-size="10.00">_cstaf/d_a_cstaF.h</text>
</a>
</g>
</g>
<!-- Node3&#45;&gt;Node70 -->
<g id="edge24" class="edge">
<title>Node3&#45;&gt;Node70</title>
<path fill="none" stroke="#63b8ff" d="M2515.89,-148.17C2457.56,-139.77 2370.75,-125.65 2296.5,-107 2290.64,-105.53 2284.52,-103.77 2278.54,-101.91"/>
<polygon fill="#63b8ff" stroke="#63b8ff" points="2515.28,-151.62 2525.67,-149.56 2516.26,-144.69 2515.28,-151.62"/>
</g>
<!-- Node71 -->
<g id="node24" class="node">
<title>Node71</title>
<g id="a_node24"><a xlink:href="d__a__dmidna_8h.html" target="_top" xlink:title=" ">
<polygon fill="white" stroke="#666666" points="2421.5,-101.5 2305.5,-101.5 2305.5,-71.5 2421.5,-71.5 2421.5,-101.5"/>
<text text-anchor="start" x="2313.5" y="-89.5" font-family="Helvetica,sans-Serif" font-size="10.00">include/rel/d/a/d_a</text>
<text text-anchor="middle" x="2363.5" y="-78.5" font-family="Helvetica,sans-Serif" font-size="10.00">_dmidna/d_a_dmidna.h</text>
</a>
</g>
</g>
<!-- Node3&#45;&gt;Node71 -->
<g id="edge25" class="edge">
<title>Node3&#45;&gt;Node71</title>
<path fill="none" stroke="#63b8ff" d="M2525.94,-139.05C2489.61,-127.52 2443.04,-112.74 2409.08,-101.97"/>
<polygon fill="#63b8ff" stroke="#63b8ff" points="2524.82,-142.37 2535.41,-142.06 2526.94,-135.7 2524.82,-142.37"/>
</g>
<!-- Node72 -->
<g id="node25" class="node">
<title>Node72</title>
<g id="a_node25"><a xlink:href="d__a__set__bgobj_8h.html" target="_top" xlink:title=" ">
<polygon fill="white" stroke="#666666" points="2577,-101.5 2440,-101.5 2440,-71.5 2577,-71.5 2577,-101.5"/>
<text text-anchor="start" x="2448" y="-89.5" font-family="Helvetica,sans-Serif" font-size="10.00">include/rel/d/a/d_a</text>
<text text-anchor="middle" x="2508.5" y="-78.5" font-family="Helvetica,sans-Serif" font-size="10.00">_set_bgobj/d_a_set_bgobj.h</text>
</a>
</g>
</g>
<!-- Node3&#45;&gt;Node72 -->
<g id="edge26" class="edge">
<title>Node3&#45;&gt;Node72</title>
<path fill="none" stroke="#63b8ff" d="M2558.87,-134.8C2547.39,-124.02 2533.93,-111.38 2523.81,-101.88"/>
<polygon fill="#63b8ff" stroke="#63b8ff" points="2556.38,-137.27 2566.06,-141.56 2561.17,-132.17 2556.38,-137.27"/>
</g>
<!-- Node73 -->
<g id="node26" class="node">
<title>Node73</title>
<g id="a_node26"><a xlink:href="d__a__skip__2D_8h.html" target="_top" xlink:title=" ">
<polygon fill="white" stroke="#666666" points="2719.5,-101.5 2595.5,-101.5 2595.5,-71.5 2719.5,-71.5 2719.5,-101.5"/>
<text text-anchor="start" x="2603.5" y="-89.5" font-family="Helvetica,sans-Serif" font-size="10.00">include/rel/d/a/d_a</text>
<text text-anchor="middle" x="2657.5" y="-78.5" font-family="Helvetica,sans-Serif" font-size="10.00">_skip_2D/d_a_skip_2D.h</text>
</a>
</g>
</g>
<!-- Node3&#45;&gt;Node73 -->
<g id="edge27" class="edge">
<title>Node3&#45;&gt;Node73</title>
<path fill="none" stroke="#63b8ff" d="M2606.45,-134.8C2618.09,-124.02 2631.73,-111.38 2641.98,-101.88"/>
<polygon fill="#63b8ff" stroke="#63b8ff" points="2604.11,-132.21 2599.15,-141.57 2608.86,-137.34 2604.11,-132.21"/>
</g>
<!-- Node74 -->
<g id="node27" class="node">
<title>Node74</title>
<g id="a_node27"><a xlink:href="d__a__spinner_8h.html" target="_top" xlink:title=" ">
<polygon fill="#fff0f0" stroke="red" points="434.5,-101.5 318.5,-101.5 318.5,-71.5 434.5,-71.5 434.5,-101.5"/>
<text text-anchor="start" x="326.5" y="-89.5" font-family="Helvetica,sans-Serif" font-size="10.00">include/rel/d/a/d_a</text>
<text text-anchor="middle" x="376.5" y="-78.5" font-family="Helvetica,sans-Serif" font-size="10.00">_spinner/d_a_spinner.h</text>
</a>
</g>
</g>
<!-- Node3&#45;&gt;Node74 -->
<g id="edge28" class="edge">
<title>Node3&#45;&gt;Node74</title>
<path fill="none" stroke="#63b8ff" d="M2516.15,-156.4C2178.31,-153.2 656.96,-137.22 448.5,-107 440.3,-105.81 431.7,-104 423.41,-101.95"/>
<polygon fill="#63b8ff" stroke="#63b8ff" points="2515.66,-159.89 2525.69,-156.49 2515.72,-152.89 2515.66,-159.89"/>
</g>
<!-- Node76 -->
<g id="node28" class="node">
<title>Node76</title>
<g id="a_node28"><a xlink:href="d__a__player_8cpp.html" target="_top" xlink:title=" ">
<polygon fill="white" stroke="#666666" points="514.5,-24.5 400.5,-24.5 400.5,-5.5 514.5,-5.5 514.5,-24.5"/>
<text text-anchor="middle" x="457.5" y="-12.5" font-family="Helvetica,sans-Serif" font-size="10.00">src/d/a/d_a_player.cpp</text>
</a>
</g>
</g>
<!-- Node3&#45;&gt;Node76 -->
<g id="edge46" class="edge">
<title>Node3&#45;&gt;Node76</title>
<path fill="none" stroke="#63b8ff" d="M2515.93,-157.25C2170.53,-158.33 595.2,-160.31 507.5,-107 476.85,-88.37 463.64,-43.71 459.27,-24.75"/>
<polygon fill="#63b8ff" stroke="#63b8ff" points="2515.71,-160.75 2525.7,-157.22 2515.69,-153.75 2515.71,-160.75"/>
</g>
<!-- Node77 -->
<g id="node29" class="node">
<title>Node77</title>
<g id="a_node29"><a xlink:href="d__a__obj__cboard_8h.html" target="_top" xlink:title=" ">
<polygon fill="white" stroke="#666666" points="2845,-107 2738,-107 2738,-66 2845,-66 2845,-107"/>
<text text-anchor="start" x="2746" y="-95" font-family="Helvetica,sans-Serif" font-size="10.00">include/rel/d/a/obj</text>
<text text-anchor="start" x="2746" y="-84" font-family="Helvetica,sans-Serif" font-size="10.00">/d_a_obj_cboard/d_a</text>
<text text-anchor="middle" x="2791.5" y="-73" font-family="Helvetica,sans-Serif" font-size="10.00">_obj_cboard.h</text>
</a>
</g>
</g>
<!-- Node3&#45;&gt;Node77 -->
<g id="edge31" class="edge">
<title>Node3&#45;&gt;Node77</title>
<path fill="none" stroke="#63b8ff" d="M2636.69,-138.98C2667.75,-128.65 2706.58,-115.74 2737.59,-105.43"/>
<polygon fill="#63b8ff" stroke="#63b8ff" points="2635.88,-135.56 2627.5,-142.04 2638.09,-142.2 2635.88,-135.56"/>
</g>
<!-- Node78 -->
<g id="node30" class="node">
<title>Node78</title>
<g id="a_node30"><a xlink:href="d__a__obj__enemy__create_8h.html" target="_top" xlink:title=" ">
<polygon fill="white" stroke="#666666" points="2990,-107 2863,-107 2863,-66 2990,-66 2990,-107"/>
<text text-anchor="start" x="2871" y="-95" font-family="Helvetica,sans-Serif" font-size="10.00">include/rel/d/a/obj</text>
<text text-anchor="start" x="2871" y="-84" font-family="Helvetica,sans-Serif" font-size="10.00">/d_a_obj_enemy_create</text>
<text text-anchor="middle" x="2926.5" y="-73" font-family="Helvetica,sans-Serif" font-size="10.00">/d_a_obj_enemy_create.h</text>
</a>
</g>
</g>
<!-- Node3&#45;&gt;Node78 -->
<g id="edge32" class="edge">
<title>Node3&#45;&gt;Node78</title>
<path fill="none" stroke="#63b8ff" d="M2649.04,-146.35C2704.31,-137.12 2784.85,-122.81 2854.5,-107 2857.15,-106.4 2859.85,-105.76 2862.58,-105.11"/>
<polygon fill="#63b8ff" stroke="#63b8ff" points="2648.78,-142.84 2639.49,-147.93 2649.93,-149.75 2648.78,-142.84"/>
</g>
<!-- Node79 -->
<g id="node31" class="node">
<title>Node79</title>
<g id="a_node31"><a xlink:href="d__a__obj__web0_8h.html" target="_top" xlink:title=" ">
<polygon fill="white" stroke="#666666" points="3127,-107 3008,-107 3008,-66 3127,-66 3127,-107"/>
<text text-anchor="start" x="3016" y="-95" font-family="Helvetica,sans-Serif" font-size="10.00">include/rel/d/a/obj</text>
<text text-anchor="start" x="3016" y="-84" font-family="Helvetica,sans-Serif" font-size="10.00">/d_a_obj_web0/d_a_obj</text>
<text text-anchor="middle" x="3067.5" y="-73" font-family="Helvetica,sans-Serif" font-size="10.00">_web0.h</text>
</a>
</g>
</g>
<!-- Node3&#45;&gt;Node79 -->
<g id="edge33" class="edge">
<title>Node3&#45;&gt;Node79</title>
<path fill="none" stroke="#63b8ff" d="M2649.18,-152.31C2731.95,-145.73 2877.14,-131.71 2999.5,-107 3002.15,-106.47 3004.84,-105.88 3007.56,-105.25"/>
<polygon fill="#63b8ff" stroke="#63b8ff" points="2649.13,-148.8 2639.43,-153.07 2649.68,-155.78 2649.13,-148.8"/>
</g>
<!-- Node80 -->
<g id="node32" class="node">
<title>Node80</title>
<g id="a_node32"><a xlink:href="d__a__obj__web1_8h.html" target="_top" xlink:title=" ">
<polygon fill="white" stroke="#666666" points="3264,-107 3145,-107 3145,-66 3264,-66 3264,-107"/>
<text text-anchor="start" x="3153" y="-95" font-family="Helvetica,sans-Serif" font-size="10.00">include/rel/d/a/obj</text>
<text text-anchor="start" x="3153" y="-84" font-family="Helvetica,sans-Serif" font-size="10.00">/d_a_obj_web1/d_a_obj</text>
<text text-anchor="middle" x="3204.5" y="-73" font-family="Helvetica,sans-Serif" font-size="10.00">_web1.h</text>
</a>
</g>
</g>
<!-- Node3&#45;&gt;Node80 -->
<g id="edge34" class="edge">
<title>Node3&#45;&gt;Node80</title>
<path fill="none" stroke="#63b8ff" d="M2648.93,-155.06C2753.47,-151.1 2962.42,-139.51 3136.5,-107 3139.16,-106.5 3141.86,-105.95 3144.58,-105.35"/>
<polygon fill="#63b8ff" stroke="#63b8ff" points="2649,-151.56 2639.13,-155.42 2649.25,-158.55 2649,-151.56"/>
</g>
<!-- Node81 -->
<g id="node33" class="node">
<title>Node81</title>
<g id="a_node33"><a xlink:href="d__a__obj__yobikusa_8h.html" target="_top" xlink:title=" ">
<polygon fill="white" stroke="#666666" points="3387,-107 3282,-107 3282,-66 3387,-66 3387,-107"/>
<text text-anchor="start" x="3290" y="-95" font-family="Helvetica,sans-Serif" font-size="10.00">include/rel/d/a/obj</text>
<text text-anchor="start" x="3290" y="-84" font-family="Helvetica,sans-Serif" font-size="10.00">/d_a_obj_yobikusa/d</text>
<text text-anchor="middle" x="3334.5" y="-73" font-family="Helvetica,sans-Serif" font-size="10.00">_a_obj_yobikusa.h</text>
</a>
</g>
</g>
<!-- Node3&#45;&gt;Node81 -->
<g id="edge35" class="edge">
<title>Node3&#45;&gt;Node81</title>
<path fill="none" stroke="#63b8ff" d="M2648.88,-157.4C2772.81,-156.99 3047.32,-150.69 3273.5,-107 3276.23,-106.47 3279.01,-105.86 3281.8,-105.19"/>
<polygon fill="#63b8ff" stroke="#63b8ff" points="2649.23,-153.9 2639.23,-157.42 2649.24,-160.9 2649.23,-153.9"/>
</g>
<!-- Node82 -->
<g id="node34" class="node">
<title>Node82</title>
<g id="a_node34"><a xlink:href="d__a__tag__ajnot_8h.html" target="_top" xlink:title=" ">
<polygon fill="white" stroke="#666666" points="3523.5,-107 3405.5,-107 3405.5,-66 3523.5,-66 3523.5,-107"/>
<text text-anchor="start" x="3413.5" y="-95" font-family="Helvetica,sans-Serif" font-size="10.00">include/rel/d/a/tag</text>
<text text-anchor="start" x="3413.5" y="-84" font-family="Helvetica,sans-Serif" font-size="10.00">/d_a_tag_ajnot/d_a_tag</text>
<text text-anchor="middle" x="3464.5" y="-73" font-family="Helvetica,sans-Serif" font-size="10.00">_ajnot.h</text>
</a>
</g>
</g>
<!-- Node3&#45;&gt;Node82 -->
<g id="edge36" class="edge">
<title>Node3&#45;&gt;Node82</title>
<path fill="none" stroke="#63b8ff" d="M2649.07,-157.79C2788.71,-158.39 3122,-154.21 3396.5,-107 3399.4,-106.5 3402.36,-105.92 3405.34,-105.29"/>
<polygon fill="#63b8ff" stroke="#63b8ff" points="2649.29,-154.29 2639.27,-157.74 2649.26,-161.29 2649.29,-154.29"/>
</g>
<!-- Node83 -->
<g id="node35" class="node">
<title>Node83</title>
<g id="a_node35"><a xlink:href="d__a__tag__assistance_8h.html" target="_top" xlink:title=" ">
<polygon fill="white" stroke="#666666" points="3655.5,-107 3541.5,-107 3541.5,-66 3655.5,-66 3655.5,-107"/>
<text text-anchor="start" x="3549.5" y="-95" font-family="Helvetica,sans-Serif" font-size="10.00">include/rel/d/a/tag</text>
<text text-anchor="start" x="3549.5" y="-84" font-family="Helvetica,sans-Serif" font-size="10.00">/d_a_tag_assistance</text>
<text text-anchor="middle" x="3598.5" y="-73" font-family="Helvetica,sans-Serif" font-size="10.00">/d_a_tag_assistance.h</text>
</a>
</g>
</g>
<!-- Node3&#45;&gt;Node83 -->
<g id="edge37" class="edge">
<title>Node3&#45;&gt;Node83</title>
<path fill="none" stroke="#63b8ff" d="M2649.28,-155.52C2836.23,-151.06 3362.3,-136.2 3532.5,-107 3535.33,-106.52 3538.2,-105.95 3541.09,-105.32"/>
<polygon fill="#63b8ff" stroke="#63b8ff" points="2649.42,-152.02 2639.5,-155.75 2649.58,-159.02 2649.42,-152.02"/>
</g>
<!-- Node84 -->
<g id="node36" class="node">
<title>Node84</title>
<g id="a_node36"><a xlink:href="d__a__tag__howl_8h.html" target="_top" xlink:title=" ">
<polygon fill="white" stroke="#666666" points="3791,-107 3674,-107 3674,-66 3791,-66 3791,-107"/>
<text text-anchor="start" x="3682" y="-95" font-family="Helvetica,sans-Serif" font-size="10.00">include/rel/d/a/tag</text>
<text text-anchor="start" x="3682" y="-84" font-family="Helvetica,sans-Serif" font-size="10.00">/d_a_tag_howl/d_a_tag</text>
<text text-anchor="middle" x="3732.5" y="-73" font-family="Helvetica,sans-Serif" font-size="10.00">_howl.h</text>
</a>
</g>
</g>
<!-- Node3&#45;&gt;Node84 -->
<g id="edge38" class="edge">
<title>Node3&#45;&gt;Node84</title>
<path fill="none" stroke="#63b8ff" d="M2649.23,-155.95C2853.39,-152.42 3467.57,-139.33 3664.5,-107 3667.53,-106.5 3670.62,-105.92 3673.72,-105.26"/>
<polygon fill="#63b8ff" stroke="#63b8ff" points="2649.27,-152.45 2639.33,-156.12 2649.39,-159.45 2649.27,-152.45"/>
</g>
<!-- Node85 -->
<g id="node37" class="node">
<title>Node85</title>
<g id="a_node37"><a xlink:href="d__a__tag__lv6CstaSw_8h.html" target="_top" xlink:title=" ">
<polygon fill="white" stroke="#666666" points="3924,-107 3809,-107 3809,-66 3924,-66 3924,-107"/>
<text text-anchor="start" x="3817" y="-95" font-family="Helvetica,sans-Serif" font-size="10.00">include/rel/d/a/tag</text>
<text text-anchor="start" x="3817" y="-84" font-family="Helvetica,sans-Serif" font-size="10.00">/d_a_tag_lv6CstaSw/d</text>
<text text-anchor="middle" x="3866.5" y="-73" font-family="Helvetica,sans-Serif" font-size="10.00">_a_tag_lv6CstaSw.h</text>
</a>
</g>
</g>
<!-- Node3&#45;&gt;Node85 -->
<g id="edge39" class="edge">
<title>Node3&#45;&gt;Node85</title>
<path fill="none" stroke="#63b8ff" d="M2649.24,-156.42C2870.13,-154.17 3576.15,-144.16 3800.5,-107 3803.21,-106.55 3805.97,-106.03 3808.74,-105.44"/>
<polygon fill="#63b8ff" stroke="#63b8ff" points="2649.33,-152.92 2639.37,-156.52 2649.4,-159.92 2649.33,-152.92"/>
</g>
<!-- Node86 -->
<g id="node38" class="node">
<title>Node86</title>
<g id="a_node38"><a xlink:href="d__a__tag__telop_8h.html" target="_top" xlink:title=" ">
<polygon fill="white" stroke="#666666" points="4060.5,-107 3942.5,-107 3942.5,-66 4060.5,-66 4060.5,-107"/>
<text text-anchor="start" x="3950.5" y="-95" font-family="Helvetica,sans-Serif" font-size="10.00">include/rel/d/a/tag</text>
<text text-anchor="start" x="3950.5" y="-84" font-family="Helvetica,sans-Serif" font-size="10.00">/d_a_tag_telop/d_a_tag</text>
<text text-anchor="middle" x="4001.5" y="-73" font-family="Helvetica,sans-Serif" font-size="10.00">_telop.h</text>
</a>
</g>
</g>
<!-- Node3&#45;&gt;Node86 -->
<g id="edge40" class="edge">
<title>Node3&#45;&gt;Node86</title>
<path fill="none" stroke="#63b8ff" d="M2649.22,-156.67C2885.53,-155.15 3681.92,-147.12 3933.5,-107 3936.41,-106.54 3939.37,-105.99 3942.35,-105.37"/>
<polygon fill="#63b8ff" stroke="#63b8ff" points="2649.23,-153.17 2639.25,-156.73 2649.27,-160.17 2649.23,-153.17"/>
</g>
<!-- Node87 -->
<g id="node39" class="node">
<title>Node87</title>
<g id="a_node39"><a xlink:href="c__dylink_8cpp.html" target="_top" xlink:title=" ">
<polygon fill="white" stroke="#666666" points="4174,-96 4079,-96 4079,-77 4174,-77 4174,-96"/>
<text text-anchor="middle" x="4126.5" y="-84" font-family="Helvetica,sans-Serif" font-size="10.00">src/c/c_dylink.cpp</text>
</a>
</g>
</g>
<!-- Node3&#45;&gt;Node87 -->
<g id="edge41" class="edge">
<title>Node3&#45;&gt;Node87</title>
<path fill="none" stroke="#63b8ff" d="M2649.19,-157.37C2900.67,-158.36 3791.28,-158.09 4069.5,-107 4081.64,-104.77 4094.7,-100.45 4105.25,-96.45"/>
<polygon fill="#63b8ff" stroke="#63b8ff" points="2649.23,-153.87 2639.22,-157.33 2649.21,-160.87 2649.23,-153.87"/>
</g>
<!-- Node88 -->
<g id="node40" class="node">
<title>Node88</title>
<g id="a_node40"><a xlink:href="d__a__itembase_8cpp.html" target="_top" xlink:title=" ">
<polygon fill="white" stroke="#666666" points="4320.5,-96 4192.5,-96 4192.5,-77 4320.5,-77 4320.5,-96"/>
<text text-anchor="middle" x="4256.5" y="-84" font-family="Helvetica,sans-Serif" font-size="10.00">src/d/a/d_a_itembase.cpp</text>
</a>
</g>
</g>
<!-- Node3&#45;&gt;Node88 -->
<g id="edge43" class="edge">
<title>Node3&#45;&gt;Node88</title>
<path fill="none" stroke="#63b8ff" d="M2648.92,-156.96C2911.86,-156.47 3880.21,-151.64 4183.5,-107 4198.81,-104.75 4215.52,-100.43 4229.08,-96.43"/>
<polygon fill="#63b8ff" stroke="#63b8ff" points="2649.18,-153.46 2639.18,-156.97 2649.19,-160.46 2649.18,-153.46"/>
</g>
<!-- Node89 -->
<g id="node41" class="node">
<title>Node89</title>
<g id="a_node41"><a xlink:href="d__a__obj_8cpp.html" target="_top" xlink:title=" ">
<polygon fill="white" stroke="#666666" points="4440,-96 4339,-96 4339,-77 4440,-77 4440,-96"/>
<text text-anchor="middle" x="4389.5" y="-84" font-family="Helvetica,sans-Serif" font-size="10.00">src/d/a/d_a_obj.cpp</text>
</a>
</g>
</g>
<!-- Node3&#45;&gt;Node89 -->
<g id="edge44" class="edge">
<title>Node3&#45;&gt;Node89</title>
<path fill="none" stroke="#63b8ff" d="M2649.19,-156.22C2948.68,-152.55 4161.98,-136 4329.5,-107 4342.24,-104.8 4355.98,-100.48 4367.09,-96.47"/>
<polygon fill="#63b8ff" stroke="#63b8ff" points="2649.15,-152.72 2639.2,-156.34 2649.24,-159.72 2649.15,-152.72"/>
</g>
<!-- Node90 -->
<g id="node42" class="node">
<title>Node90</title>
<g id="a_node42"><a xlink:href="d__bg__s_8cpp.html" target="_top" xlink:title=" ">
<polygon fill="white" stroke="#666666" points="4562.5,-96 4458.5,-96 4458.5,-77 4562.5,-77 4562.5,-96"/>
<text text-anchor="middle" x="4510.5" y="-84" font-family="Helvetica,sans-Serif" font-size="10.00">src/d/bg/d_bg_s.cpp</text>
</a>
</g>
</g>
<!-- Node3&#45;&gt;Node90 -->
<g id="edge47" class="edge">
<title>Node3&#45;&gt;Node90</title>
<path fill="none" stroke="#63b8ff" d="M2648.67,-156.34C2959.78,-153.06 4269.41,-137.56 4449.5,-107 4462.43,-104.81 4476.41,-100.49 4487.71,-96.48"/>
<polygon fill="#63b8ff" stroke="#63b8ff" points="2649.08,-152.83 2639.12,-156.44 2649.15,-159.83 2649.08,-152.83"/>
</g>
<!-- Node91 -->
<g id="node43" class="node">
<title>Node91</title>
<g id="a_node43"><a xlink:href="d__bg__s__movebg__actor_8cpp.html" target="_top" xlink:title=" ">
<polygon fill="white" stroke="#666666" points="4706.5,-101.5 4580.5,-101.5 4580.5,-71.5 4706.5,-71.5 4706.5,-101.5"/>
<text text-anchor="start" x="4588.5" y="-89.5" font-family="Helvetica,sans-Serif" font-size="10.00">src/d/bg/d_bg_s_movebg</text>
<text text-anchor="middle" x="4643.5" y="-78.5" font-family="Helvetica,sans-Serif" font-size="10.00">_actor.cpp</text>
</a>
</g>
</g>
<!-- Node3&#45;&gt;Node91 -->
<g id="edge48" class="edge">
<title>Node3&#45;&gt;Node91</title>
<path fill="none" stroke="#63b8ff" d="M2648.72,-156.28C2972.17,-152.62 4378.11,-135.2 4571.5,-107 4579.7,-105.8 4588.3,-103.99 4596.59,-101.93"/>
<polygon fill="#63b8ff" stroke="#63b8ff" points="2649.15,-152.77 2639.19,-156.38 2649.23,-159.77 2649.15,-152.77"/>
</g>
<!-- Node92 -->
<g id="node44" class="node">
<title>Node92</title>
<g id="a_node44"><a xlink:href="d__bg__w_8cpp.html" target="_top" xlink:title=" ">
<polygon fill="white" stroke="#666666" points="4832,-96 4725,-96 4725,-77 4832,-77 4832,-96"/>
<text text-anchor="middle" x="4778.5" y="-84" font-family="Helvetica,sans-Serif" font-size="10.00">src/d/bg/d_bg_w.cpp</text>
</a>
</g>
</g>
<!-- Node3&#45;&gt;Node92 -->
<g id="edge49" class="edge">
<title>Node3&#45;&gt;Node92</title>
<path fill="none" stroke="#63b8ff" d="M2648.84,-156.54C2986.63,-154.03 4507.71,-140.92 4715.5,-107 4728.83,-104.82 4743.26,-100.51 4754.94,-96.49"/>
<polygon fill="#63b8ff" stroke="#63b8ff" points="2649.27,-153.03 2639.3,-156.61 2649.33,-160.03 2649.27,-153.03"/>
</g>
<!-- Node93 -->
<g id="node45" class="node">
<title>Node93</title>
<g id="a_node45"><a xlink:href="d__cc__s_8cpp.html" target="_top" xlink:title=" ">
<polygon fill="white" stroke="#666666" points="4954.5,-96 4850.5,-96 4850.5,-77 4954.5,-77 4954.5,-96"/>
<text text-anchor="middle" x="4902.5" y="-84" font-family="Helvetica,sans-Serif" font-size="10.00">src/d/cc/d_cc_s.cpp</text>
</a>
</g>
</g>
<!-- Node3&#45;&gt;Node93 -->
<g id="edge50" class="edge">
<title>Node3&#45;&gt;Node93</title>
<path fill="none" stroke="#63b8ff" d="M2649.3,-156.66C3000.01,-154.74 4620.87,-143.91 4841.5,-107 4854.55,-104.82 4868.65,-100.45 4880,-96.4"/>
<polygon fill="#63b8ff" stroke="#63b8ff" points="2649.34,-153.16 2639.36,-156.72 2649.38,-160.16 2649.34,-153.16"/>
</g>
<!-- Node94 -->
<g id="node46" class="node">
<title>Node94</title>
<g id="a_node46"><a xlink:href="d__com__static_8cpp.html" target="_top" xlink:title=" ">
<polygon fill="white" stroke="#666666" points="5112.5,-96 4972.5,-96 4972.5,-77 5112.5,-77 5112.5,-96"/>
<text text-anchor="middle" x="5042.5" y="-84" font-family="Helvetica,sans-Serif" font-size="10.00">src/d/com/d_com_static.cpp</text>
</a>
</g>
</g>
<!-- Node3&#45;&gt;Node94 -->
<g id="edge52" class="edge">
<title>Node3&#45;&gt;Node94</title>
<path fill="none" stroke="#63b8ff" d="M2649.06,-156.48C3010.42,-153.54 4728.95,-138.02 4963.5,-107 4980.03,-104.81 4998.1,-100.5 5012.79,-96.48"/>
<polygon fill="#63b8ff" stroke="#63b8ff" points="2649.26,-152.98 2639.29,-156.56 2649.31,-159.98 2649.26,-152.98"/>
</g>
<!-- Node95 -->
<g id="node47" class="node">
<title>Node95</title>
<g id="a_node47"><a xlink:href="d__attention_8cpp.html" target="_top" xlink:title=" ">
<polygon fill="white" stroke="#666666" points="5238,-96 5131,-96 5131,-77 5238,-77 5238,-96"/>
<text text-anchor="middle" x="5184.5" y="-84" font-family="Helvetica,sans-Serif" font-size="10.00">src/d/d_attention.cpp</text>
</a>
</g>
</g>
<!-- Node3&#45;&gt;Node95 -->
<g id="edge53" class="edge">
<title>Node3&#45;&gt;Node95</title>
<path fill="none" stroke="#63b8ff" d="M2649.23,-156.8C3025.23,-155.54 4871.5,-147.33 5121.5,-107 5134.95,-104.83 5149.51,-100.46 5161.24,-96.41"/>
<polygon fill="#63b8ff" stroke="#63b8ff" points="2649.26,-153.3 2639.27,-156.84 2649.28,-160.3 2649.26,-153.3"/>
</g>
<!-- Node96 -->
<g id="node48" class="node">
<title>Node96</title>
<g id="a_node48"><a xlink:href="d__cam__param_8cpp.html" target="_top" xlink:title=" ">
<polygon fill="white" stroke="#666666" points="5377,-96 5256,-96 5256,-77 5377,-77 5377,-96"/>
<text text-anchor="middle" x="5316.5" y="-84" font-family="Helvetica,sans-Serif" font-size="10.00">src/d/d_cam_param.cpp</text>
</a>
</g>
</g>
<!-- Node3&#45;&gt;Node96 -->
<g id="edge54" class="edge">
<title>Node3&#45;&gt;Node96</title>
<path fill="none" stroke="#63b8ff" d="M2649.11,-156.77C3035.77,-155.31 4983.81,-146.07 5247.5,-107 5262.15,-104.83 5278.09,-100.46 5290.96,-96.41"/>
<polygon fill="#63b8ff" stroke="#63b8ff" points="2649.36,-153.27 2639.38,-156.81 2649.39,-160.27 2649.36,-153.27"/>
</g>
<!-- Node97 -->
<g id="node49" class="node">
<title>Node97</title>
<g id="a_node49"><a xlink:href="d__camera_8cpp.html" target="_top" xlink:title=" ">
<polygon fill="white" stroke="#666666" points="5497.5,-96 5395.5,-96 5395.5,-77 5497.5,-77 5497.5,-96"/>
<text text-anchor="middle" x="5446.5" y="-84" font-family="Helvetica,sans-Serif" font-size="10.00">src/d/d_camera.cpp</text>
</a>
</g>
</g>
<!-- Node3&#45;&gt;Node97 -->
<g id="edge55" class="edge">
<title>Node3&#45;&gt;Node97</title>
<path fill="none" stroke="#63b8ff" d="M2649.07,-156.99C3047.54,-156.79 5109.08,-153.49 5386.5,-107 5399.35,-104.85 5413.22,-100.48 5424.39,-96.43"/>
<polygon fill="#63b8ff" stroke="#63b8ff" points="2649.28,-153.49 2639.28,-157 2649.28,-160.49 2649.28,-153.49"/>
</g>
<!-- Node98 -->
<g id="node50" class="node">
<title>Node98</title>
<g id="a_node50"><a xlink:href="d__drawlist_8cpp.html" target="_top" xlink:title=" ">
<polygon fill="white" stroke="#666666" points="5619.5,-96 5515.5,-96 5515.5,-77 5619.5,-77 5619.5,-96"/>
<text text-anchor="middle" x="5567.5" y="-84" font-family="Helvetica,sans-Serif" font-size="10.00">src/d/d_drawlist.cpp</text>
</a>
</g>
</g>
<!-- Node3&#45;&gt;Node98 -->
<g id="edge57" class="edge">
<title>Node3&#45;&gt;Node98</title>
<path fill="none" stroke="#63b8ff" d="M2649.29,-157.03C3058.29,-157.03 5216.46,-154.77 5506.5,-107 5519.55,-104.85 5533.65,-100.48 5545,-96.43"/>
<polygon fill="#63b8ff" stroke="#63b8ff" points="2649.5,-153.53 2639.5,-157.03 2649.5,-160.53 2649.5,-153.53"/>
</g>
<!-- Node16&#45;&gt;Node13 -->
<g id="edge6" class="edge">
<title>Node16&#45;&gt;Node13</title>
<path fill="none" stroke="#63b8ff" d="M172.77,-72.69C209.91,-58.82 268.2,-37.04 300.66,-24.91"/>
<polygon fill="#63b8ff" stroke="#63b8ff" points="172,-69.25 163.85,-76.03 174.45,-75.8 172,-69.25"/>
</g>
<!-- Node16&#45;&gt;Node17 -->
<g id="edge7" class="edge">
<title>Node16&#45;&gt;Node17</title>
<path fill="none" stroke="#63b8ff" d="M120.79,-69.31C105.68,-55.49 84.52,-36.14 72.29,-24.95"/>
<polygon fill="#63b8ff" stroke="#63b8ff" points="118.02,-71.51 127.76,-75.68 122.74,-66.35 118.02,-71.51"/>
</g>
<!-- Node16&#45;&gt;Node18 -->
<g id="edge8" class="edge">
<title>Node16&#45;&gt;Node18</title>
<path fill="none" stroke="#63b8ff" d="M153.16,-68.24C163.08,-56.54 176.04,-41.28 185.38,-30.27"/>
<polygon fill="#63b8ff" stroke="#63b8ff" points="150.76,-65.66 146.95,-75.54 156.09,-70.19 150.76,-65.66"/>
</g>
<!-- Node40&#45;&gt;Node4 -->
<g id="edge16" class="edge">
<title>Node40&#45;&gt;Node4</title>
<path fill="none" stroke="#63b8ff" d="M636.79,-68.26C640.73,-67.37 644.66,-66.6 648.5,-66 899.83,-26.57 2770.2,-17.54 3118.69,-16.2"/>
<polygon fill="#63b8ff" stroke="#63b8ff" points="636.09,-64.83 627.24,-70.65 637.79,-71.62 636.09,-64.83"/>
</g>
<!-- Node40&#45;&gt;Node13 -->
<g id="edge17" class="edge">
<title>Node40&#45;&gt;Node13</title>
<path fill="none" stroke="#63b8ff" d="M518.58,-68.08C467.48,-54.37 398.35,-35.82 357.88,-24.96"/>
<polygon fill="#63b8ff" stroke="#63b8ff" points="517.49,-71.41 528.06,-70.62 519.31,-64.65 517.49,-71.41"/>
</g>
<!-- Node40&#45;&gt;Node47 -->
<g id="edge18" class="edge">
<title>Node40&#45;&gt;Node47</title>
<path fill="none" stroke="#63b8ff" d="M582.77,-59.96C582.41,-47.57 582,-33.49 581.75,-24.68"/>
<polygon fill="#63b8ff" stroke="#63b8ff" points="579.26,-59.69 583.04,-69.59 586.25,-59.49 579.26,-59.69"/>
</g>
<!-- Node74&#45;&gt;Node13 -->
<g id="edge29" class="edge">
<title>Node74&#45;&gt;Node13</title>
<path fill="none" stroke="#63b8ff" d="M359.1,-62.24C349.44,-49.33 338,-34.04 330.99,-24.68"/>
<polygon fill="#63b8ff" stroke="#63b8ff" points="356.03,-63.98 364.82,-69.89 361.63,-59.78 356.03,-63.98"/>
</g>
<!-- Node74&#45;&gt;Node76 -->
<g id="edge30" class="edge">
<title>Node74&#45;&gt;Node76</title>
<path fill="none" stroke="#63b8ff" d="M401.87,-63.73C417.26,-50.53 436.05,-34.4 447.38,-24.68"/>
<polygon fill="#63b8ff" stroke="#63b8ff" points="399.74,-60.95 394.43,-70.11 404.3,-66.26 399.74,-60.95"/>
</g>
</g>
</svg>
