<?xml version="1.0" encoding="UTF-8" standalone="no"?>
<!DOCTYPE svg PUBLIC "-//W3C//DTD SVG 1.1//EN"
 "http://www.w3.org/Graphics/SVG/1.1/DTD/svg11.dtd">
<!-- Generated by graphviz version 2.50.0 (20220203.2022)
 -->
<!-- Title: include/rel/d/a/tag/d_a_tag_mmsg/d_a_tag_mmsg.h Pages: 1 -->
<svg width="5279pt" height="318pt"
 viewBox="0.00 0.00 5278.50 318.00" xmlns="http://www.w3.org/2000/svg" xmlns:xlink="http://www.w3.org/1999/xlink">
<g id="graph0" class="graph" transform="scale(1 1) rotate(0) translate(4 314)">
<title>include/rel/d/a/tag/d_a_tag_mmsg/d_a_tag_mmsg.h</title>
<polygon fill="white" stroke="transparent" points="-4,4 -4,-314 5274.5,-314 5274.5,4 -4,4"/>
<!-- Node1 -->
<g id="node1" class="node">
<title>Node1</title>
<g id="a_node1"><a xlink:title=" ">
<polygon fill="#bfbfbf" stroke="black" points="1134,-268.5 1134,-309.5 1258,-309.5 1258,-268.5 1134,-268.5"/>
<text text-anchor="start" x="1142" y="-297.5" font-family="Helvetica,sans-Serif" font-size="10.00">include/rel/d/a/tag</text>
<text text-anchor="start" x="1142" y="-286.5" font-family="Helvetica,sans-Serif" font-size="10.00">/d_a_tag_mmsg/d_a_tag</text>
<text text-anchor="middle" x="1196" y="-275.5" font-family="Helvetica,sans-Serif" font-size="10.00">_mmsg.h</text>
</a>
</g>
</g>
<!-- Node2 -->
<g id="node2" class="node">
<title>Node2</title>
<g id="a_node2"><a xlink:href="d__a__alink_8h.html" target="_top" xlink:title=" ">
<polygon fill="white" stroke="black" points="1138,-212.5 1138,-231.5 1254,-231.5 1254,-212.5 1138,-212.5"/>
<text text-anchor="middle" x="1196" y="-219.5" font-family="Helvetica,sans-Serif" font-size="10.00">include/d/a/d_a_alink.h</text>
</a>
</g>
</g>
<!-- Node1&#45;&gt;Node2 -->
<g id="edge1" class="edge">
<title>Node1&#45;&gt;Node2</title>
<path fill="none" stroke="midnightblue" d="M1196,-258.26C1196,-248.56 1196,-238.52 1196,-231.65"/>
<polygon fill="midnightblue" stroke="midnightblue" points="1192.5,-258.5 1196,-268.5 1199.5,-258.5 1192.5,-258.5"/>
</g>
<!-- Node3 -->
<g id="node3" class="node">
<title>Node3</title>
<g id="a_node3"><a xlink:href="d__com__inf__game_8h.html" target="_top" xlink:title=" ">
<polygon fill="white" stroke="red" points="2101,-145.5 2101,-175.5 2211,-175.5 2211,-145.5 2101,-145.5"/>
<text text-anchor="start" x="2109" y="-163.5" font-family="Helvetica,sans-Serif" font-size="10.00">include/d/com/d_com</text>
<text text-anchor="middle" x="2156" y="-152.5" font-family="Helvetica,sans-Serif" font-size="10.00">_inf_game.h</text>
</a>
</g>
</g>
<!-- Node2&#45;&gt;Node3 -->
<g id="edge2" class="edge">
<title>Node2&#45;&gt;Node3</title>
<path fill="none" stroke="midnightblue" d="M1264.45,-216.76C1445.74,-205.52 1935.67,-175.16 2100.8,-164.92"/>
<polygon fill="midnightblue" stroke="midnightblue" points="1264.01,-213.28 1254.25,-217.39 1264.45,-220.26 1264.01,-213.28"/>
</g>
<!-- Node41 -->
<g id="node26" class="node">
<title>Node41</title>
<g id="a_node26"><a xlink:href="d__a__alink_8cpp.html" target="_top" xlink:title=" ">
<polygon fill="white" stroke="black" points="118.5,-78.5 118.5,-97.5 227.5,-97.5 227.5,-78.5 118.5,-78.5"/>
<text text-anchor="middle" x="173" y="-85.5" font-family="Helvetica,sans-Serif" font-size="10.00">src/d/a/d_a_alink.cpp</text>
</a>
</g>
</g>
<!-- Node2&#45;&gt;Node41 -->
<g id="edge63" class="edge">
<title>Node2&#45;&gt;Node41</title>
<path fill="none" stroke="midnightblue" d="M1127.94,-216.89C970.65,-206.54 570.28,-175.37 242,-109 227.45,-106.06 211.52,-101.53 198.63,-97.53"/>
<polygon fill="midnightblue" stroke="midnightblue" points="1127.74,-220.38 1137.94,-217.54 1128.19,-213.4 1127.74,-220.38"/>
</g>
<!-- Node4 -->
<g id="node4" class="node">
<title>Node4</title>
<g id="a_node4"><a xlink:href="d__a__npc_8h.html" target="_top" xlink:title=" ">
<polygon fill="white" stroke="red" points="5022.5,-78.5 5022.5,-97.5 5133.5,-97.5 5133.5,-78.5 5022.5,-78.5"/>
<text text-anchor="middle" x="5078" y="-85.5" font-family="Helvetica,sans-Serif" font-size="10.00">include/d/a/d_a_npc.h</text>
</a>
</g>
</g>
<!-- Node3&#45;&gt;Node4 -->
<g id="edge3" class="edge">
<title>Node3&#45;&gt;Node4</title>
<path fill="none" stroke="midnightblue" d="M2221.33,-159.44C2621.11,-158.95 4729.38,-154.21 5013,-109 5027.57,-106.68 5043.41,-101.85 5055.81,-97.53"/>
<polygon fill="midnightblue" stroke="midnightblue" points="2221.1,-155.94 2211.1,-159.46 2221.11,-162.94 2221.1,-155.94"/>
</g>
<!-- Node9 -->
<g id="node5" class="node">
<title>Node9</title>
<g id="a_node5"><a xlink:href="d__cc__uty_8h.html" target="_top" xlink:title=" ">
<polygon fill="white" stroke="red" points="5151.5,-78.5 5151.5,-97.5 5270.5,-97.5 5270.5,-78.5 5151.5,-78.5"/>
<text text-anchor="middle" x="5211" y="-85.5" font-family="Helvetica,sans-Serif" font-size="10.00">include/d/cc/d_cc_uty.h</text>
</a>
</g>
</g>
<!-- Node3&#45;&gt;Node9 -->
<g id="edge4" class="edge">
<title>Node3&#45;&gt;Node9</title>
<path fill="none" stroke="midnightblue" d="M2221.33,-159.45C2631.68,-158.99 4845.47,-154.42 5143,-109 5158.21,-106.68 5174.77,-101.86 5187.75,-97.53"/>
<polygon fill="midnightblue" stroke="midnightblue" points="2221.12,-155.95 2211.13,-159.46 2221.13,-162.95 2221.12,-155.95"/>
</g>
<!-- Node11 -->
<g id="node6" class="node">
<title>Node11</title>
<g id="a_node6"><a xlink:href="d__item_8h.html" target="_top" xlink:title=" ">
<polygon fill="white" stroke="red" points="284.5,-78.5 284.5,-97.5 379.5,-97.5 379.5,-78.5 284.5,-78.5"/>
<text text-anchor="middle" x="332" y="-85.5" font-family="Helvetica,sans-Serif" font-size="10.00">include/d/d_item.h</text>
</a>
</g>
</g>
<!-- Node3&#45;&gt;Node11 -->
<g id="edge5" class="edge">
<title>Node3&#45;&gt;Node11</title>
<path fill="none" stroke="midnightblue" d="M2090.57,-158.72C1791.67,-155.02 563.34,-138.13 394,-109 380.18,-106.62 365.2,-101.86 353.43,-97.57"/>
<polygon fill="midnightblue" stroke="midnightblue" points="2090.76,-162.22 2100.81,-158.85 2090.85,-155.22 2090.76,-162.22"/>
</g>
<!-- Node12 -->
<g id="node7" class="node">
<title>Node12</title>
<g id="a_node7"><a xlink:href="d__com__inf__game_8cpp.html" target="_top" xlink:title=" ">
<polygon fill="white" stroke="black" points="0,-0.5 0,-30.5 108,-30.5 108,-0.5 0,-0.5"/>
<text text-anchor="start" x="8" y="-18.5" font-family="Helvetica,sans-Serif" font-size="10.00">src/d/com/d_com_inf</text>
<text text-anchor="middle" x="54" y="-7.5" font-family="Helvetica,sans-Serif" font-size="10.00">_game.cpp</text>
</a>
</g>
</g>
<!-- Node3&#45;&gt;Node12 -->
<g id="edge35" class="edge">
<title>Node3&#45;&gt;Node12</title>
<path fill="none" stroke="midnightblue" d="M2090.88,-159.16C1768.92,-157.33 359.34,-147.13 275,-109 251.79,-98.51 257.76,-80.24 236,-67 224.9,-60.25 157.78,-42.5 108.26,-29.96"/>
<polygon fill="midnightblue" stroke="midnightblue" points="2090.96,-162.67 2100.98,-159.22 2091,-155.67 2090.96,-162.67"/>
</g>
<!-- Node6 -->
<g id="node8" class="node">
<title>Node6</title>
<g id="a_node8"><a xlink:href="d__msg__flow_8cpp.html" target="_top" xlink:title=" ">
<polygon fill="white" stroke="black" points="126.5,-6 126.5,-25 259.5,-25 259.5,-6 126.5,-6"/>
<text text-anchor="middle" x="193" y="-13" font-family="Helvetica,sans-Serif" font-size="10.00">src/d/msg/d_msg_flow.cpp</text>
</a>
</g>
</g>
<!-- Node3&#45;&gt;Node6 -->
<g id="edge54" class="edge">
<title>Node3&#45;&gt;Node6</title>
<path fill="none" stroke="midnightblue" d="M2090.51,-159.12C1783.46,-157.14 498.02,-146.63 422,-109 400.48,-98.34 408.2,-80 388,-67 363.59,-51.29 288.85,-34.72 239.31,-25.01"/>
<polygon fill="midnightblue" stroke="midnightblue" points="2090.57,-162.62 2100.59,-159.18 2090.62,-155.62 2090.57,-162.62"/>
</g>
<!-- Node7 -->
<g id="node9" class="node">
<title>Node7</title>
<g id="a_node9"><a xlink:href="d__shop__system_8cpp.html" target="_top" xlink:title=" ">
<polygon fill="white" stroke="black" points="278,-6 278,-25 430,-25 430,-6 278,-6"/>
<text text-anchor="middle" x="354" y="-13" font-family="Helvetica,sans-Serif" font-size="10.00">src/d/shop/d_shop_system.cpp</text>
</a>
</g>
</g>
<!-- Node3&#45;&gt;Node7 -->
<g id="edge58" class="edge">
<title>Node3&#45;&gt;Node7</title>
<path fill="none" stroke="midnightblue" d="M2090.49,-159.72C1800.62,-160.39 640.97,-159.85 487,-109 473.25,-104.46 395.51,-47.33 365.66,-25.19"/>
<polygon fill="midnightblue" stroke="midnightblue" points="2090.84,-163.22 2100.83,-159.69 2090.82,-156.22 2090.84,-163.22"/>
</g>
<!-- Node15 -->
<g id="node10" class="node">
<title>Node15</title>
<g id="a_node10"><a xlink:href="d__kantera__icon__meter_8h.html" target="_top" xlink:title=" ">
<polygon fill="white" stroke="red" points="512.5,-73 512.5,-103 613.5,-103 613.5,-73 512.5,-73"/>
<text text-anchor="start" x="520.5" y="-91" font-family="Helvetica,sans-Serif" font-size="10.00">include/d/d_kantera</text>
<text text-anchor="middle" x="563" y="-80" font-family="Helvetica,sans-Serif" font-size="10.00">_icon_meter.h</text>
</a>
</g>
</g>
<!-- Node3&#45;&gt;Node15 -->
<g id="edge9" class="edge">
<title>Node3&#45;&gt;Node15</title>
<path fill="none" stroke="midnightblue" d="M2090.52,-158.36C1817.02,-153.46 773.38,-133.32 628,-109 619.73,-107.62 611.05,-105.46 602.82,-103.07"/>
<polygon fill="midnightblue" stroke="midnightblue" points="2090.63,-161.86 2100.69,-158.54 2090.75,-154.86 2090.63,-161.86"/>
</g>
<!-- Node17 -->
<g id="node11" class="node">
<title>Node17</title>
<g id="a_node11"><a xlink:href="d__meter2__draw_8cpp.html" target="_top" xlink:title=" ">
<polygon fill="white" stroke="black" points="448,-0.5 448,-30.5 558,-30.5 558,-0.5 448,-0.5"/>
<text text-anchor="start" x="456" y="-18.5" font-family="Helvetica,sans-Serif" font-size="10.00">src/d/meter/d_meter2</text>
<text text-anchor="middle" x="503" y="-7.5" font-family="Helvetica,sans-Serif" font-size="10.00">_draw.cpp</text>
</a>
</g>
</g>
<!-- Node3&#45;&gt;Node17 -->
<g id="edge51" class="edge">
<title>Node3&#45;&gt;Node17</title>
<path fill="none" stroke="midnightblue" d="M2090.22,-158.73C1786.24,-155.02 531.11,-137.98 503,-109 482.87,-88.25 491.05,-50.95 497.68,-30.63"/>
<polygon fill="midnightblue" stroke="midnightblue" points="2090.58,-162.24 2100.63,-158.86 2090.67,-155.24 2090.58,-162.24"/>
</g>
<!-- Node18 -->
<g id="node12" class="node">
<title>Node18</title>
<g id="a_node12"><a xlink:href="d__model_8h.html" target="_top" xlink:title=" ">
<polygon fill="white" stroke="red" points="950.5,-78.5 950.5,-97.5 1053.5,-97.5 1053.5,-78.5 950.5,-78.5"/>
<text text-anchor="middle" x="1002" y="-85.5" font-family="Helvetica,sans-Serif" font-size="10.00">include/d/d_model.h</text>
</a>
</g>
</g>
<!-- Node3&#45;&gt;Node18 -->
<g id="edge11" class="edge">
<title>Node3&#45;&gt;Node18</title>
<path fill="none" stroke="midnightblue" d="M2090.47,-158.79C1886.05,-156.22 1261.91,-145.5 1063,-109 1049.52,-106.53 1034.91,-101.81 1023.37,-97.58"/>
<polygon fill="midnightblue" stroke="midnightblue" points="2090.7,-162.3 2100.75,-158.92 2090.79,-155.3 2090.7,-162.3"/>
</g>
<!-- Node20 -->
<g id="node13" class="node">
<title>Node20</title>
<g id="a_node13"><a xlink:href="d__file__sel__info_8h.html" target="_top" xlink:title=" ">
<polygon fill="white" stroke="red" points="1072,-73 1072,-103 1168,-103 1168,-73 1072,-73"/>
<text text-anchor="start" x="1080" y="-91" font-family="Helvetica,sans-Serif" font-size="10.00">include/d/file/d_file</text>
<text text-anchor="middle" x="1120" y="-80" font-family="Helvetica,sans-Serif" font-size="10.00">_sel_info.h</text>
</a>
</g>
</g>
<!-- Node3&#45;&gt;Node20 -->
<g id="edge12" class="edge">
<title>Node3&#45;&gt;Node20</title>
<path fill="none" stroke="midnightblue" d="M2090.88,-158.56C1901.41,-155.45 1352.75,-143.62 1177,-109 1169.8,-107.58 1162.27,-105.44 1155.14,-103.08"/>
<polygon fill="midnightblue" stroke="midnightblue" points="2090.91,-162.06 2100.96,-158.73 2091.02,-155.06 2090.91,-162.06"/>
</g>
<!-- Node22 -->
<g id="node14" class="node">
<title>Node22</title>
<g id="a_node14"><a xlink:href="d__meter2_8h.html" target="_top" xlink:title=" ">
<polygon fill="white" stroke="red" points="1186,-78.5 1186,-97.5 1320,-97.5 1320,-78.5 1186,-78.5"/>
<text text-anchor="middle" x="1253" y="-85.5" font-family="Helvetica,sans-Serif" font-size="10.00">include/d/meter/d_meter2.h</text>
</a>
</g>
</g>
<!-- Node3&#45;&gt;Node22 -->
<g id="edge13" class="edge">
<title>Node3&#45;&gt;Node22</title>
<path fill="none" stroke="midnightblue" d="M2090.76,-159.85C1950.45,-159.65 1609.93,-154.09 1329,-109 1312.57,-106.36 1294.53,-101.7 1280.16,-97.53"/>
<polygon fill="midnightblue" stroke="midnightblue" points="2090.92,-163.35 2100.92,-159.85 2090.92,-156.35 2090.92,-163.35"/>
</g>
<!-- Node30 -->
<g id="node15" class="node">
<title>Node30</title>
<g id="a_node15"><a xlink:href="d__msg__object_8h.html" target="_top" xlink:title=" ">
<polygon fill="white" stroke="red" points="670,-73 670,-103 780,-103 780,-73 670,-73"/>
<text text-anchor="start" x="678" y="-91" font-family="Helvetica,sans-Serif" font-size="10.00">include/d/msg/d_msg</text>
<text text-anchor="middle" x="725" y="-80" font-family="Helvetica,sans-Serif" font-size="10.00">_object.h</text>
</a>
</g>
</g>
<!-- Node3&#45;&gt;Node30 -->
<g id="edge14" class="edge">
<title>Node3&#45;&gt;Node30</title>
<path fill="none" stroke="midnightblue" d="M2090.54,-159.19C1854.59,-157.76 1048.22,-149.92 794,-109 785.26,-107.59 776.06,-105.43 767.32,-103.03"/>
<polygon fill="midnightblue" stroke="midnightblue" points="2090.66,-162.7 2100.69,-159.25 2090.71,-155.7 2090.66,-162.7"/>
</g>
<!-- Node31 -->
<g id="node16" class="node">
<title>Node31</title>
<g id="a_node16"><a xlink:href="d__kankyo_8cpp.html" target="_top" xlink:title=" ">
<polygon fill="white" stroke="black" points="576,-6 576,-25 710,-25 710,-6 576,-6"/>
<text text-anchor="middle" x="643" y="-13" font-family="Helvetica,sans-Serif" font-size="10.00">src/d/kankyo/d_kankyo.cpp</text>
</a>
</g>
</g>
<!-- Node3&#45;&gt;Node31 -->
<g id="edge46" class="edge">
<title>Node3&#45;&gt;Node31</title>
<path fill="none" stroke="midnightblue" d="M2090.6,-159.54C1809.56,-159.43 716.08,-155.98 661,-109 636.23,-87.87 639.09,-43.7 641.6,-25.07"/>
<polygon fill="midnightblue" stroke="midnightblue" points="2090.64,-163.04 2100.65,-159.54 2090.65,-156.04 2090.64,-163.04"/>
</g>
<!-- Node25 -->
<g id="node17" class="node">
<title>Node25</title>
<g id="a_node17"><a xlink:href="d__menu__window_8cpp.html" target="_top" xlink:title=" ">
<polygon fill="white" stroke="black" points="728.5,-6 728.5,-25 887.5,-25 887.5,-6 728.5,-6"/>
<text text-anchor="middle" x="808" y="-13" font-family="Helvetica,sans-Serif" font-size="10.00">src/d/menu/d_menu_window.cpp</text>
</a>
</g>
</g>
<!-- Node3&#45;&gt;Node25 -->
<g id="edge49" class="edge">
<title>Node3&#45;&gt;Node25</title>
<path fill="none" stroke="midnightblue" d="M2090.6,-159.74C1847.61,-160.24 1005.06,-158.38 896,-109 855.62,-90.71 824.62,-44.54 812.99,-25.22"/>
<polygon fill="midnightblue" stroke="midnightblue" points="2090.71,-163.24 2100.7,-159.72 2090.69,-156.24 2090.71,-163.24"/>
</g>
<!-- Node27 -->
<g id="node18" class="node">
<title>Node27</title>
<g id="a_node18"><a xlink:href="d__meter2__info_8cpp.html" target="_top" xlink:title=" ">
<polygon fill="white" stroke="black" points="906,-0.5 906,-30.5 1016,-30.5 1016,-0.5 906,-0.5"/>
<text text-anchor="start" x="914" y="-18.5" font-family="Helvetica,sans-Serif" font-size="10.00">src/d/meter/d_meter2</text>
<text text-anchor="middle" x="961" y="-7.5" font-family="Helvetica,sans-Serif" font-size="10.00">_info.cpp</text>
</a>
</g>
</g>
<!-- Node3&#45;&gt;Node27 -->
<g id="edge52" class="edge">
<title>Node3&#45;&gt;Node27</title>
<path fill="none" stroke="midnightblue" d="M2090.71,-159.34C1839.65,-158.39 948.31,-152.01 907,-109 894.07,-95.54 899.57,-84.12 907,-67 913.49,-52.05 926.83,-39.5 938.63,-30.65"/>
<polygon fill="midnightblue" stroke="midnightblue" points="2090.77,-162.84 2100.78,-159.37 2090.79,-155.84 2090.77,-162.84"/>
</g>
<!-- Node26 -->
<g id="node19" class="node">
<title>Node26</title>
<g id="a_node19"><a xlink:href="d__meter__map_8cpp.html" target="_top" xlink:title=" ">
<polygon fill="white" stroke="black" points="1034,-0.5 1034,-30.5 1138,-30.5 1138,-0.5 1034,-0.5"/>
<text text-anchor="start" x="1042" y="-18.5" font-family="Helvetica,sans-Serif" font-size="10.00">src/d/meter/d_meter</text>
<text text-anchor="middle" x="1086" y="-7.5" font-family="Helvetica,sans-Serif" font-size="10.00">_map.cpp</text>
</a>
</g>
</g>
<!-- Node3&#45;&gt;Node26 -->
<g id="edge53" class="edge">
<title>Node3&#45;&gt;Node26</title>
<path fill="none" stroke="midnightblue" d="M2090.6,-159.31C1841.08,-158.25 960.83,-151.53 920,-109 907.07,-95.53 908.89,-82 920,-67 927.04,-57.5 987.88,-40.66 1033.88,-29.05"/>
<polygon fill="midnightblue" stroke="midnightblue" points="2090.95,-162.81 2100.96,-159.35 2090.97,-155.81 2090.95,-162.81"/>
</g>
<!-- Node33 -->
<g id="node20" class="node">
<title>Node33</title>
<g id="a_node20"><a xlink:href="f__op__msg__mng_8cpp.html" target="_top" xlink:title=" ">
<polygon fill="white" stroke="black" points="1156,-6 1156,-25 1296,-25 1296,-6 1156,-6"/>
<text text-anchor="middle" x="1226" y="-13" font-family="Helvetica,sans-Serif" font-size="10.00">src/f_op/f_op_msg_mng.cpp</text>
</a>
</g>
</g>
<!-- Node3&#45;&gt;Node33 -->
<g id="edge61" class="edge">
<title>Node3&#45;&gt;Node33</title>
<path fill="none" stroke="midnightblue" d="M2090.47,-159.26C1843.51,-158.03 981.05,-150.75 941,-109 879.93,-45.34 989.46,-59.22 1147,-31 1157.71,-29.08 1169.22,-26.99 1180.06,-25"/>
<polygon fill="midnightblue" stroke="midnightblue" points="2090.71,-162.76 2100.72,-159.31 2090.74,-155.76 2090.71,-162.76"/>
</g>
<!-- Node34 -->
<g id="node21" class="node">
<title>Node34</title>
<g id="a_node21"><a xlink:href="d__s__logo_8h.html" target="_top" xlink:title=" ">
<polygon fill="white" stroke="red" points="1338.5,-78.5 1338.5,-97.5 1451.5,-97.5 1451.5,-78.5 1338.5,-78.5"/>
<text text-anchor="middle" x="1395" y="-85.5" font-family="Helvetica,sans-Serif" font-size="10.00">include/d/s/d_s_logo.h</text>
</a>
</g>
</g>
<!-- Node3&#45;&gt;Node34 -->
<g id="edge23" class="edge">
<title>Node3&#45;&gt;Node34</title>
<path fill="none" stroke="midnightblue" d="M2090.97,-159.09C1967.98,-157.36 1693.26,-148.9 1466,-109 1450.74,-106.32 1434.04,-101.71 1420.68,-97.58"/>
<polygon fill="midnightblue" stroke="midnightblue" points="2090.93,-162.59 2100.98,-159.22 2091.02,-155.59 2090.93,-162.59"/>
</g>
<!-- Node36 -->
<g id="node22" class="node">
<title>Node36</title>
<g id="a_node22"><a xlink:href="d__s__play_8h.html" target="_top" xlink:title=" ">
<polygon fill="white" stroke="red" points="1508.5,-78.5 1508.5,-97.5 1621.5,-97.5 1621.5,-78.5 1508.5,-78.5"/>
<text text-anchor="middle" x="1565" y="-85.5" font-family="Helvetica,sans-Serif" font-size="10.00">include/d/s/d_s_play.h</text>
</a>
</g>
</g>
<!-- Node3&#45;&gt;Node36 -->
<g id="edge24" class="edge">
<title>Node3&#45;&gt;Node36</title>
<path fill="none" stroke="midnightblue" d="M2090.44,-157.37C1990.47,-153.17 1794.32,-141.27 1631,-109 1616.91,-106.22 1601.52,-101.65 1589.16,-97.58"/>
<polygon fill="midnightblue" stroke="midnightblue" points="2090.55,-160.87 2100.68,-157.78 2090.83,-153.88 2090.55,-160.87"/>
</g>
<!-- Node37 -->
<g id="node23" class="node">
<title>Node37</title>
<g id="a_node23"><a xlink:href="f__op__camera_8cpp.html" target="_top" xlink:title=" ">
<polygon fill="white" stroke="black" points="1458.5,-6 1458.5,-25 1587.5,-25 1587.5,-6 1458.5,-6"/>
<text text-anchor="middle" x="1523" y="-13" font-family="Helvetica,sans-Serif" font-size="10.00">src/f_op/f_op_camera.cpp</text>
</a>
</g>
</g>
<!-- Node3&#45;&gt;Node37 -->
<g id="edge59" class="edge">
<title>Node3&#45;&gt;Node37</title>
<path fill="none" stroke="midnightblue" d="M2090.74,-159.39C1932.72,-158.43 1539.58,-151.75 1500,-109 1477.85,-85.08 1503.41,-43.2 1516.37,-25.16"/>
<polygon fill="midnightblue" stroke="midnightblue" points="2090.79,-162.89 2100.81,-159.44 2090.82,-155.89 2090.79,-162.89"/>
</g>
<!-- Node39 -->
<g id="node24" class="node">
<title>Node39</title>
<g id="a_node24"><a xlink:href="d__a__tag__telop_8h.html" target="_top" xlink:title=" ">
<polygon fill="white" stroke="black" points="1640,-67.5 1640,-108.5 1758,-108.5 1758,-67.5 1640,-67.5"/>
<text text-anchor="start" x="1648" y="-96.5" font-family="Helvetica,sans-Serif" font-size="10.00">include/rel/d/a/tag</text>
<text text-anchor="start" x="1648" y="-85.5" font-family="Helvetica,sans-Serif" font-size="10.00">/d_a_tag_telop/d_a_tag</text>
<text text-anchor="middle" x="1699" y="-74.5" font-family="Helvetica,sans-Serif" font-size="10.00">_telop.h</text>
</a>
</g>
</g>
<!-- Node3&#45;&gt;Node39 -->
<g id="edge26" class="edge">
<title>Node3&#45;&gt;Node39</title>
<path fill="none" stroke="midnightblue" d="M2090.84,-154.08C2013.34,-146.94 1880.32,-132.45 1768,-109 1764.83,-108.34 1761.58,-107.6 1758.32,-106.82"/>
<polygon fill="midnightblue" stroke="midnightblue" points="2090.67,-157.58 2100.94,-155 2091.3,-150.61 2090.67,-157.58"/>
</g>
<!-- Node40 -->
<g id="node25" class="node">
<title>Node40</title>
<g id="a_node25"><a xlink:href="c__dylink_8cpp.html" target="_top" xlink:title=" ">
<polygon fill="white" stroke="black" points="1776.5,-78.5 1776.5,-97.5 1871.5,-97.5 1871.5,-78.5 1776.5,-78.5"/>
<text text-anchor="middle" x="1824" y="-85.5" font-family="Helvetica,sans-Serif" font-size="10.00">src/c/c_dylink.cpp</text>
</a>
</g>
</g>
<!-- Node3&#45;&gt;Node40 -->
<g id="edge27" class="edge">
<title>Node3&#45;&gt;Node40</title>
<path fill="none" stroke="midnightblue" d="M2090.76,-150.45C2034.64,-141.97 1951.78,-127.79 1881,-109 1869.14,-105.85 1856.22,-101.4 1845.68,-97.5"/>
<polygon fill="midnightblue" stroke="midnightblue" points="2090.51,-153.95 2100.92,-151.97 2091.54,-147.03 2090.51,-153.95"/>
</g>
<!-- Node3&#45;&gt;Node41 -->
<g id="edge28" class="edge">
<title>Node3&#45;&gt;Node41</title>
<path fill="none" stroke="midnightblue" d="M2090.68,-158.77C1776.4,-155.11 427.53,-137.85 242,-109 226.72,-106.62 210.05,-101.86 196.93,-97.57"/>
<polygon fill="midnightblue" stroke="midnightblue" points="2090.94,-162.27 2100.98,-158.89 2091.02,-155.27 2090.94,-162.27"/>
</g>
<!-- Node42 -->
<g id="node27" class="node">
<title>Node42</title>
<g id="a_node27"><a xlink:href="d__a__itembase_8cpp.html" target="_top" xlink:title=" ">
<polygon fill="white" stroke="black" points="1890,-78.5 1890,-97.5 2018,-97.5 2018,-78.5 1890,-78.5"/>
<text text-anchor="middle" x="1954" y="-85.5" font-family="Helvetica,sans-Serif" font-size="10.00">src/d/a/d_a_itembase.cpp</text>
</a>
</g>
</g>
<!-- Node3&#45;&gt;Node42 -->
<g id="edge29" class="edge">
<title>Node3&#45;&gt;Node42</title>
<path fill="none" stroke="midnightblue" d="M2106.15,-142.1C2065.55,-127.93 2009.97,-108.54 1978.45,-97.53"/>
<polygon fill="midnightblue" stroke="midnightblue" points="2105.01,-145.41 2115.61,-145.4 2107.32,-138.8 2105.01,-145.41"/>
</g>
<!-- Node43 -->
<g id="node28" class="node">
<title>Node43</title>
<g id="a_node28"><a xlink:href="d__a__player_8cpp.html" target="_top" xlink:title=" ">
<polygon fill="white" stroke="black" points="2036,-78.5 2036,-97.5 2150,-97.5 2150,-78.5 2036,-78.5"/>
<text text-anchor="middle" x="2093" y="-85.5" font-family="Helvetica,sans-Serif" font-size="10.00">src/d/a/d_a_player.cpp</text>
</a>
</g>
</g>
<!-- Node3&#45;&gt;Node43 -->
<g id="edge30" class="edge">
<title>Node3&#45;&gt;Node43</title>
<path fill="none" stroke="midnightblue" d="M2136.57,-137.76C2124.58,-124.34 2109.84,-107.85 2100.95,-97.89"/>
<polygon fill="midnightblue" stroke="midnightblue" points="2133.98,-140.11 2143.25,-145.23 2139.2,-135.44 2133.98,-140.11"/>
</g>
<!-- Node44 -->
<g id="node29" class="node">
<title>Node44</title>
<g id="a_node29"><a xlink:href="d__bg__s_8cpp.html" target="_top" xlink:title=" ">
<polygon fill="white" stroke="black" points="2168,-78.5 2168,-97.5 2272,-97.5 2272,-78.5 2168,-78.5"/>
<text text-anchor="middle" x="2220" y="-85.5" font-family="Helvetica,sans-Serif" font-size="10.00">src/d/bg/d_bg_s.cpp</text>
</a>
</g>
</g>
<!-- Node3&#45;&gt;Node44 -->
<g id="edge31" class="edge">
<title>Node3&#45;&gt;Node44</title>
<path fill="none" stroke="midnightblue" d="M2175.73,-137.76C2187.91,-124.34 2202.89,-107.85 2211.93,-97.89"/>
<polygon fill="midnightblue" stroke="midnightblue" points="2173.08,-135.48 2168.95,-145.23 2178.26,-140.18 2173.08,-135.48"/>
</g>
<!-- Node45 -->
<g id="node30" class="node">
<title>Node45</title>
<g id="a_node30"><a xlink:href="d__bg__s__movebg__actor_8cpp.html" target="_top" xlink:title=" ">
<polygon fill="white" stroke="black" points="2290,-73 2290,-103 2416,-103 2416,-73 2290,-73"/>
<text text-anchor="start" x="2298" y="-91" font-family="Helvetica,sans-Serif" font-size="10.00">src/d/bg/d_bg_s_movebg</text>
<text text-anchor="middle" x="2353" y="-80" font-family="Helvetica,sans-Serif" font-size="10.00">_actor.cpp</text>
</a>
</g>
</g>
<!-- Node3&#45;&gt;Node45 -->
<g id="edge32" class="edge">
<title>Node3&#45;&gt;Node45</title>
<path fill="none" stroke="midnightblue" d="M2205,-141.96C2238.54,-129.96 2282.42,-114.26 2313.68,-103.07"/>
<polygon fill="midnightblue" stroke="midnightblue" points="2203.63,-138.74 2195.39,-145.4 2205.99,-145.33 2203.63,-138.74"/>
</g>
<!-- Node46 -->
<g id="node31" class="node">
<title>Node46</title>
<g id="a_node31"><a xlink:href="d__bg__w_8cpp.html" target="_top" xlink:title=" ">
<polygon fill="white" stroke="black" points="2434.5,-78.5 2434.5,-97.5 2541.5,-97.5 2541.5,-78.5 2434.5,-78.5"/>
<text text-anchor="middle" x="2488" y="-85.5" font-family="Helvetica,sans-Serif" font-size="10.00">src/d/bg/d_bg_w.cpp</text>
</a>
</g>
</g>
<!-- Node3&#45;&gt;Node46 -->
<g id="edge33" class="edge">
<title>Node3&#45;&gt;Node46</title>
<path fill="none" stroke="midnightblue" d="M2220.96,-149.58C2275.74,-140.68 2356.02,-126.35 2425,-109 2437.8,-105.78 2451.81,-101.42 2463.36,-97.59"/>
<polygon fill="midnightblue" stroke="midnightblue" points="2220.35,-146.14 2211.04,-151.18 2221.47,-153.05 2220.35,-146.14"/>
</g>
<!-- Node47 -->
<g id="node32" class="node">
<title>Node47</title>
<g id="a_node32"><a xlink:href="d__cc__s_8cpp.html" target="_top" xlink:title=" ">
<polygon fill="white" stroke="black" points="2560,-78.5 2560,-97.5 2664,-97.5 2664,-78.5 2560,-78.5"/>
<text text-anchor="middle" x="2612" y="-85.5" font-family="Helvetica,sans-Serif" font-size="10.00">src/d/cc/d_cc_s.cpp</text>
</a>
</g>
</g>
<!-- Node3&#45;&gt;Node47 -->
<g id="edge34" class="edge">
<title>Node3&#45;&gt;Node47</title>
<path fill="none" stroke="midnightblue" d="M2221.48,-154.95C2300.37,-148.6 2436.6,-134.82 2551,-109 2563.94,-106.08 2578.03,-101.55 2589.4,-97.54"/>
<polygon fill="midnightblue" stroke="midnightblue" points="2220.9,-151.49 2211.2,-155.76 2221.45,-158.46 2220.9,-151.49"/>
</g>
<!-- Node48 -->
<g id="node33" class="node">
<title>Node48</title>
<g id="a_node33"><a xlink:href="d__eye__hl_8cpp.html" target="_top" xlink:title=" ">
<polygon fill="white" stroke="black" points="2682,-78.5 2682,-97.5 2780,-97.5 2780,-78.5 2682,-78.5"/>
<text text-anchor="middle" x="2731" y="-85.5" font-family="Helvetica,sans-Serif" font-size="10.00">src/d/d_eye_hl.cpp</text>
</a>
</g>
</g>
<!-- Node3&#45;&gt;Node48 -->
<g id="edge36" class="edge">
<title>Node3&#45;&gt;Node48</title>
<path fill="none" stroke="midnightblue" d="M2221.51,-158.01C2320.4,-154.66 2513.22,-143.84 2673,-109 2685.59,-106.25 2699.24,-101.64 2710.13,-97.53"/>
<polygon fill="midnightblue" stroke="midnightblue" points="2221.25,-154.52 2211.37,-158.34 2221.48,-161.51 2221.25,-154.52"/>
</g>
<!-- Node49 -->
<g id="node34" class="node">
<title>Node49</title>
<g id="a_node34"><a xlink:href="d__kyeff_8cpp.html" target="_top" xlink:title=" ">
<polygon fill="white" stroke="black" points="2798,-78.5 2798,-97.5 2888,-97.5 2888,-78.5 2798,-78.5"/>
<text text-anchor="middle" x="2843" y="-85.5" font-family="Helvetica,sans-Serif" font-size="10.00">src/d/d_kyeff.cpp</text>
</a>
</g>
</g>
<!-- Node3&#45;&gt;Node49 -->
<g id="edge37" class="edge">
<title>Node3&#45;&gt;Node49</title>
<path fill="none" stroke="midnightblue" d="M2221.49,-160.16C2337.36,-160.03 2585.48,-153.9 2789,-109 2800.91,-106.37 2813.73,-101.71 2823.89,-97.54"/>
<polygon fill="midnightblue" stroke="midnightblue" points="2221.36,-156.66 2211.36,-160.15 2221.36,-163.66 2221.36,-156.66"/>
</g>
<!-- Node50 -->
<g id="node35" class="node">
<title>Node50</title>
<g id="a_node35"><a xlink:href="d__resorce_8cpp.html" target="_top" xlink:title=" ">
<polygon fill="white" stroke="black" points="2906,-78.5 2906,-97.5 3008,-97.5 3008,-78.5 2906,-78.5"/>
<text text-anchor="middle" x="2957" y="-85.5" font-family="Helvetica,sans-Serif" font-size="10.00">src/d/d_resorce.cpp</text>
</a>
</g>
</g>
<!-- Node3&#45;&gt;Node50 -->
<g id="edge38" class="edge">
<title>Node3&#45;&gt;Node50</title>
<path fill="none" stroke="midnightblue" d="M2221.43,-157.17C2377.57,-151.26 2768.55,-134.36 2897,-109 2910.14,-106.41 2924.38,-101.74 2935.69,-97.57"/>
<polygon fill="midnightblue" stroke="midnightblue" points="2220.9,-153.69 2211.04,-157.56 2221.17,-160.68 2220.9,-153.69"/>
</g>
<!-- Node51 -->
<g id="node36" class="node">
<title>Node51</title>
<g id="a_node36"><a xlink:href="d__simple__model_8cpp.html" target="_top" xlink:title=" ">
<polygon fill="white" stroke="black" points="3026,-78.5 3026,-97.5 3156,-97.5 3156,-78.5 3026,-78.5"/>
<text text-anchor="middle" x="3091" y="-85.5" font-family="Helvetica,sans-Serif" font-size="10.00">src/d/d_simple_model.cpp</text>
</a>
</g>
</g>
<!-- Node3&#45;&gt;Node51 -->
<g id="edge39" class="edge">
<title>Node3&#45;&gt;Node51</title>
<path fill="none" stroke="midnightblue" d="M2221.09,-160.22C2365.41,-160.83 2722.75,-156.87 3017,-109 3033.03,-106.39 3050.58,-101.73 3064.57,-97.56"/>
<polygon fill="midnightblue" stroke="midnightblue" points="2221.09,-156.72 2211.07,-160.17 2221.06,-163.72 2221.09,-156.72"/>
</g>
<!-- Node52 -->
<g id="node37" class="node">
<title>Node52</title>
<g id="a_node37"><a xlink:href="d__stage_8cpp.html" target="_top" xlink:title=" ">
<polygon fill="white" stroke="black" points="3174,-78.5 3174,-97.5 3268,-97.5 3268,-78.5 3174,-78.5"/>
<text text-anchor="middle" x="3221" y="-85.5" font-family="Helvetica,sans-Serif" font-size="10.00">src/d/d_stage.cpp</text>
</a>
</g>
</g>
<!-- Node3&#45;&gt;Node52 -->
<g id="edge40" class="edge">
<title>Node3&#45;&gt;Node52</title>
<path fill="none" stroke="midnightblue" d="M2221.14,-158.72C2414.56,-156.03 2983.33,-145.17 3165,-109 3177.45,-106.52 3190.87,-101.81 3201.44,-97.58"/>
<polygon fill="midnightblue" stroke="midnightblue" points="2221.07,-155.23 2211.12,-158.86 2221.17,-162.22 2221.07,-155.23"/>
</g>
<!-- Node53 -->
<g id="node38" class="node">
<title>Node53</title>
<g id="a_node38"><a xlink:href="d__timer_8cpp.html" target="_top" xlink:title=" ">
<polygon fill="white" stroke="black" points="3286,-78.5 3286,-97.5 3378,-97.5 3378,-78.5 3286,-78.5"/>
<text text-anchor="middle" x="3332" y="-85.5" font-family="Helvetica,sans-Serif" font-size="10.00">src/d/d_timer.cpp</text>
</a>
</g>
</g>
<!-- Node3&#45;&gt;Node53 -->
<g id="edge41" class="edge">
<title>Node3&#45;&gt;Node53</title>
<path fill="none" stroke="midnightblue" d="M2221.15,-159.15C2428.73,-157.64 3072.92,-149.71 3277,-109 3289.36,-106.54 3302.65,-101.77 3313.07,-97.5"/>
<polygon fill="midnightblue" stroke="midnightblue" points="2220.99,-155.65 2211.01,-159.22 2221.04,-162.65 2220.99,-155.65"/>
</g>
<!-- Node54 -->
<g id="node39" class="node">
<title>Node54</title>
<g id="a_node39"><a xlink:href="d__tresure_8cpp.html" target="_top" xlink:title=" ">
<polygon fill="white" stroke="black" points="3396,-78.5 3396,-97.5 3496,-97.5 3496,-78.5 3396,-78.5"/>
<text text-anchor="middle" x="3446" y="-85.5" font-family="Helvetica,sans-Serif" font-size="10.00">src/d/d_tresure.cpp</text>
</a>
</g>
</g>
<!-- Node3&#45;&gt;Node54 -->
<g id="edge42" class="edge">
<title>Node3&#45;&gt;Node54</title>
<path fill="none" stroke="midnightblue" d="M2221.43,-159.27C2442.47,-158.13 3160.33,-151.16 3387,-109 3400.19,-106.55 3414.44,-101.78 3425.63,-97.51"/>
<polygon fill="midnightblue" stroke="midnightblue" points="2221.26,-155.77 2211.28,-159.32 2221.3,-162.77 2221.26,-155.77"/>
</g>
<!-- Node55 -->
<g id="node40" class="node">
<title>Node55</title>
<g id="a_node40"><a xlink:href="d__event_8cpp.html" target="_top" xlink:title=" ">
<polygon fill="white" stroke="black" points="3514.5,-78.5 3514.5,-97.5 3635.5,-97.5 3635.5,-78.5 3514.5,-78.5"/>
<text text-anchor="middle" x="3575" y="-85.5" font-family="Helvetica,sans-Serif" font-size="10.00">src/d/event/d_event.cpp</text>
</a>
</g>
</g>
<!-- Node3&#45;&gt;Node55 -->
<g id="edge43" class="edge">
<title>Node3&#45;&gt;Node55</title>
<path fill="none" stroke="midnightblue" d="M2221.22,-159.14C2455.42,-157.51 3253.28,-149.07 3505,-109 3520.48,-106.54 3537.38,-101.77 3550.7,-97.5"/>
<polygon fill="midnightblue" stroke="midnightblue" points="2221.13,-155.64 2211.16,-159.2 2221.18,-162.64 2221.13,-155.64"/>
</g>
<!-- Node56 -->
<g id="node41" class="node">
<title>Node56</title>
<g id="a_node41"><a xlink:href="d__event__data_8cpp.html" target="_top" xlink:title=" ">
<polygon fill="white" stroke="black" points="3653.5,-73 3653.5,-103 3756.5,-103 3756.5,-73 3653.5,-73"/>
<text text-anchor="start" x="3661.5" y="-91" font-family="Helvetica,sans-Serif" font-size="10.00">src/d/event/d_event</text>
<text text-anchor="middle" x="3705" y="-80" font-family="Helvetica,sans-Serif" font-size="10.00">_data.cpp</text>
</a>
</g>
</g>
<!-- Node3&#45;&gt;Node56 -->
<g id="edge44" class="edge">
<title>Node3&#45;&gt;Node56</title>
<path fill="none" stroke="midnightblue" d="M2221.28,-159.78C2471,-160.44 3365.66,-159.21 3645,-109 3652.67,-107.62 3660.7,-105.47 3668.31,-103.08"/>
<polygon fill="midnightblue" stroke="midnightblue" points="2221.28,-156.28 2211.27,-159.75 2221.26,-163.28 2221.28,-156.28"/>
</g>
<!-- Node57 -->
<g id="node42" class="node">
<title>Node57</title>
<g id="a_node42"><a xlink:href="d__event__manager_8cpp.html" target="_top" xlink:title=" ">
<polygon fill="white" stroke="black" points="3774.5,-73 3774.5,-103 3877.5,-103 3877.5,-73 3774.5,-73"/>
<text text-anchor="start" x="3782.5" y="-91" font-family="Helvetica,sans-Serif" font-size="10.00">src/d/event/d_event</text>
<text text-anchor="middle" x="3826" y="-80" font-family="Helvetica,sans-Serif" font-size="10.00">_manager.cpp</text>
</a>
</g>
</g>
<!-- Node3&#45;&gt;Node57 -->
<g id="edge45" class="edge">
<title>Node3&#45;&gt;Node57</title>
<path fill="none" stroke="midnightblue" d="M2221.27,-159.97C2483.63,-161.48 3461.89,-163.26 3766,-109 3773.67,-107.63 3781.71,-105.48 3789.31,-103.09"/>
<polygon fill="midnightblue" stroke="midnightblue" points="2221.16,-156.47 2211.14,-159.91 2221.12,-163.47 2221.16,-156.47"/>
</g>
<!-- Node58 -->
<g id="node43" class="node">
<title>Node58</title>
<g id="a_node43"><a xlink:href="d__kankyo__wether_8cpp.html" target="_top" xlink:title=" ">
<polygon fill="white" stroke="black" points="3896,-73 3896,-103 4012,-103 4012,-73 3896,-73"/>
<text text-anchor="start" x="3904" y="-91" font-family="Helvetica,sans-Serif" font-size="10.00">src/d/kankyo/d_kankyo</text>
<text text-anchor="middle" x="3954" y="-80" font-family="Helvetica,sans-Serif" font-size="10.00">_wether.cpp</text>
</a>
</g>
</g>
<!-- Node3&#45;&gt;Node58 -->
<g id="edge47" class="edge">
<title>Node3&#45;&gt;Node58</title>
<path fill="none" stroke="midnightblue" d="M2221.52,-159.87C2496.38,-161.07 3557.31,-162.08 3887,-109 3895.51,-107.63 3904.45,-105.48 3912.93,-103.09"/>
<polygon fill="midnightblue" stroke="midnightblue" points="2221.33,-156.37 2211.31,-159.82 2221.3,-163.37 2221.33,-156.37"/>
</g>
<!-- Node59 -->
<g id="node44" class="node">
<title>Node59</title>
<g id="a_node44"><a xlink:href="d__map__path__dmap_8cpp.html" target="_top" xlink:title=" ">
<polygon fill="white" stroke="black" points="4030,-73 4030,-103 4146,-103 4146,-73 4030,-73"/>
<text text-anchor="start" x="4038" y="-91" font-family="Helvetica,sans-Serif" font-size="10.00">src/d/map/d_map_path</text>
<text text-anchor="middle" x="4088" y="-80" font-family="Helvetica,sans-Serif" font-size="10.00">_dmap.cpp</text>
</a>
</g>
</g>
<!-- Node3&#45;&gt;Node59 -->
<g id="edge48" class="edge">
<title>Node3&#45;&gt;Node59</title>
<path fill="none" stroke="midnightblue" d="M2221.17,-158.75C2530.22,-155.06 3840.64,-137.84 4021,-109 4029.63,-107.62 4038.71,-105.43 4047.29,-103"/>
<polygon fill="midnightblue" stroke="midnightblue" points="2220.99,-155.25 2211.03,-158.87 2221.07,-162.25 2220.99,-155.25"/>
</g>
<!-- Node60 -->
<g id="node45" class="node">
<title>Node60</title>
<g id="a_node45"><a xlink:href="d__menu__window__HIO_8cpp.html" target="_top" xlink:title=" ">
<polygon fill="white" stroke="black" points="4164.5,-73 4164.5,-103 4305.5,-103 4305.5,-73 4164.5,-73"/>
<text text-anchor="start" x="4172.5" y="-91" font-family="Helvetica,sans-Serif" font-size="10.00">src/d/menu/d_menu_window</text>
<text text-anchor="middle" x="4235" y="-80" font-family="Helvetica,sans-Serif" font-size="10.00">_HIO.cpp</text>
</a>
</g>
</g>
<!-- Node3&#45;&gt;Node60 -->
<g id="edge50" class="edge">
<title>Node3&#45;&gt;Node60</title>
<path fill="none" stroke="midnightblue" d="M2221.46,-159.78C2521.69,-160.75 3768.72,-161.51 4155,-109 4165.07,-107.63 4175.71,-105.48 4185.83,-103.09"/>
<polygon fill="midnightblue" stroke="midnightblue" points="2221.2,-156.28 2211.18,-159.74 2221.17,-163.28 2221.2,-156.28"/>
</g>
<!-- Node61 -->
<g id="node46" class="node">
<title>Node61</title>
<g id="a_node46"><a xlink:href="d__s__room_8cpp.html" target="_top" xlink:title=" ">
<polygon fill="white" stroke="black" points="4324,-78.5 4324,-97.5 4434,-97.5 4434,-78.5 4324,-78.5"/>
<text text-anchor="middle" x="4379" y="-85.5" font-family="Helvetica,sans-Serif" font-size="10.00">src/d/s/d_s_room.cpp</text>
</a>
</g>
</g>
<!-- Node3&#45;&gt;Node61 -->
<g id="edge55" class="edge">
<title>Node3&#45;&gt;Node61</title>
<path fill="none" stroke="midnightblue" d="M2221.31,-159.06C2559.51,-156.62 4104.35,-143.67 4315,-109 4329.24,-106.66 4344.7,-101.89 4356.86,-97.6"/>
<polygon fill="midnightblue" stroke="midnightblue" points="2221.16,-155.56 2211.19,-159.13 2221.21,-162.56 2221.16,-155.56"/>
</g>
<!-- Node28 -->
<g id="node47" class="node">
<title>Node28</title>
<g id="a_node47"><a xlink:href="d__save_8cpp.html" target="_top" xlink:title=" ">
<polygon fill="white" stroke="black" points="4452.5,-78.5 4452.5,-97.5 4567.5,-97.5 4567.5,-78.5 4452.5,-78.5"/>
<text text-anchor="middle" x="4510" y="-85.5" font-family="Helvetica,sans-Serif" font-size="10.00">src/d/save/d_save.cpp</text>
</a>
</g>
</g>
<!-- Node3&#45;&gt;Node28 -->
<g id="edge56" class="edge">
<title>Node3&#45;&gt;Node28</title>
<path fill="none" stroke="midnightblue" d="M2221.45,-159.1C2571.89,-156.82 4218.83,-144.28 4443,-109 4457.87,-106.66 4474.05,-101.89 4486.79,-97.6"/>
<polygon fill="midnightblue" stroke="midnightblue" points="2221.2,-155.6 2211.22,-159.17 2221.24,-162.6 2221.2,-155.6"/>
</g>
<!-- Node62 -->
<g id="node48" class="node">
<title>Node62</title>
<g id="a_node48"><a xlink:href="d__save__HIO_8cpp.html" target="_top" xlink:title=" ">
<polygon fill="white" stroke="black" points="4586,-78.5 4586,-97.5 4724,-97.5 4724,-78.5 4586,-78.5"/>
<text text-anchor="middle" x="4655" y="-85.5" font-family="Helvetica,sans-Serif" font-size="10.00">src/d/save/d_save_HIO.cpp</text>
</a>
</g>
</g>
<!-- Node3&#45;&gt;Node62 -->
<g id="edge57" class="edge">
<title>Node3&#45;&gt;Node62</title>
<path fill="none" stroke="midnightblue" d="M2221.15,-159.04C2583.03,-156.34 4338.1,-141.67 4577,-109 4594.17,-106.65 4613.01,-101.89 4627.87,-97.59"/>
<polygon fill="midnightblue" stroke="midnightblue" points="2221.08,-155.54 2211.11,-159.11 2221.13,-162.54 2221.08,-155.54"/>
</g>
<!-- Node63 -->
<g id="node49" class="node">
<title>Node63</title>
<g id="a_node49"><a xlink:href="f__op__kankyo__mng_8cpp.html" target="_top" xlink:title=" ">
<polygon fill="white" stroke="black" points="4742,-73 4742,-103 4852,-103 4852,-73 4742,-73"/>
<text text-anchor="start" x="4750" y="-91" font-family="Helvetica,sans-Serif" font-size="10.00">src/f_op/f_op_kankyo</text>
<text text-anchor="middle" x="4797" y="-80" font-family="Helvetica,sans-Serif" font-size="10.00">_mng.cpp</text>
</a>
</g>
</g>
<!-- Node3&#45;&gt;Node63 -->
<g id="edge60" class="edge">
<title>Node3&#45;&gt;Node63</title>
<path fill="none" stroke="midnightblue" d="M2221.41,-159.32C2597.7,-158.17 4478.79,-150.35 4733,-109 4741.27,-107.65 4749.95,-105.48 4758.16,-103.06"/>
<polygon fill="midnightblue" stroke="midnightblue" points="2221.22,-155.83 2211.23,-159.36 2221.25,-162.83 2221.22,-155.83"/>
</g>
<!-- Node64 -->
<g id="node50" class="node">
<title>Node64</title>
<g id="a_node50"><a xlink:href="f__pc__manager_8cpp.html" target="_top" xlink:title=" ">
<polygon fill="white" stroke="black" points="4870,-78.5 4870,-97.5 5004,-97.5 5004,-78.5 4870,-78.5"/>
<text text-anchor="middle" x="4937" y="-85.5" font-family="Helvetica,sans-Serif" font-size="10.00">src/f_pc/f_pc_manager.cpp</text>
</a>
</g>
</g>
<!-- Node3&#45;&gt;Node64 -->
<g id="edge62" class="edge">
<title>Node3&#45;&gt;Node64</title>
<path fill="none" stroke="midnightblue" d="M2221.19,-159.21C2607.85,-157.4 4592.45,-146.3 4861,-109 4877.89,-106.65 4896.41,-101.83 4910.93,-97.51"/>
<polygon fill="midnightblue" stroke="midnightblue" points="2221,-155.72 2211.02,-159.26 2221.03,-162.71 2221,-155.72"/>
</g>
<!-- Node11&#45;&gt;Node12 -->
<g id="edge6" class="edge">
<title>Node11&#45;&gt;Node12</title>
<path fill="none" stroke="midnightblue" d="M297.43,-75.29C288.53,-72.43 278.95,-69.48 270,-67 262.11,-64.81 169.45,-43.26 108.08,-29.03"/>
<polygon fill="midnightblue" stroke="midnightblue" points="296.51,-78.67 307.1,-78.45 298.68,-72.02 296.51,-78.67"/>
</g>
<!-- Node11&#45;&gt;Node6 -->
<g id="edge7" class="edge">
<title>Node11&#45;&gt;Node6</title>
<path fill="none" stroke="midnightblue" d="M306,-73.81C277.84,-59.53 233.76,-37.17 209.83,-25.03"/>
<polygon fill="midnightblue" stroke="midnightblue" points="304.73,-77.09 315.23,-78.5 307.9,-70.85 304.73,-77.09"/>
</g>
<!-- Node11&#45;&gt;Node7 -->
<g id="edge8" class="edge">
<title>Node11&#45;&gt;Node7</title>
<path fill="none" stroke="midnightblue" d="M337.69,-68.77C342.06,-54.76 347.9,-36.03 351.28,-25.22"/>
<polygon fill="midnightblue" stroke="midnightblue" points="334.34,-67.77 334.7,-78.36 341.02,-69.85 334.34,-67.77"/>
</g>
<!-- Node15&#45;&gt;Node17 -->
<g id="edge10" class="edge">
<title>Node15&#45;&gt;Node17</title>
<path fill="none" stroke="midnightblue" d="M544.31,-65.04C534.79,-53.86 523.5,-40.58 515.12,-30.75"/>
<polygon fill="midnightblue" stroke="midnightblue" points="541.71,-67.39 550.86,-72.73 547.04,-62.85 541.71,-67.39"/>
</g>
<!-- Node30&#45;&gt;Node6 -->
<g id="edge20" class="edge">
<title>Node30&#45;&gt;Node6</title>
<path fill="none" stroke="midnightblue" d="M659.91,-73.44C647.36,-71.09 634.3,-68.82 622,-67 465.99,-43.95 425.05,-53.8 269,-31 257.7,-29.35 245.53,-27.2 234.31,-25.06"/>
<polygon fill="midnightblue" stroke="midnightblue" points="659.35,-76.9 669.83,-75.34 660.67,-70.02 659.35,-76.9"/>
</g>
<!-- Node30&#45;&gt;Node7 -->
<g id="edge21" class="edge">
<title>Node30&#45;&gt;Node7</title>
<path fill="none" stroke="midnightblue" d="M659.98,-74.32C647.38,-71.88 634.28,-69.35 622,-67 543.87,-52.05 452.87,-34.98 399.54,-25"/>
<polygon fill="midnightblue" stroke="midnightblue" points="659.47,-77.78 669.95,-76.25 660.8,-70.91 659.47,-77.78"/>
</g>
<!-- Node30&#45;&gt;Node17 -->
<g id="edge17" class="edge">
<title>Node30&#45;&gt;Node17</title>
<path fill="none" stroke="midnightblue" d="M671.02,-69.86C633.11,-57.82 583.02,-41.91 547.42,-30.61"/>
<polygon fill="midnightblue" stroke="midnightblue" points="670.28,-73.3 680.87,-72.99 672.4,-66.62 670.28,-73.3"/>
</g>
<!-- Node30&#45;&gt;Node31 -->
<g id="edge15" class="edge">
<title>Node30&#45;&gt;Node31</title>
<path fill="none" stroke="midnightblue" d="M700.59,-66.01C684.83,-52.46 665.14,-35.53 653.34,-25.39"/>
<polygon fill="midnightblue" stroke="midnightblue" points="698.54,-68.87 708.41,-72.73 703.11,-63.56 698.54,-68.87"/>
</g>
<!-- Node30&#45;&gt;Node25 -->
<g id="edge16" class="edge">
<title>Node30&#45;&gt;Node25</title>
<path fill="none" stroke="midnightblue" d="M749.71,-66.01C765.66,-52.46 785.59,-35.53 797.53,-25.39"/>
<polygon fill="midnightblue" stroke="midnightblue" points="747.15,-63.59 741.8,-72.73 751.68,-68.93 747.15,-63.59"/>
</g>
<!-- Node30&#45;&gt;Node27 -->
<g id="edge18" class="edge">
<title>Node30&#45;&gt;Node27</title>
<path fill="none" stroke="midnightblue" d="M781.61,-70.09C822,-58.02 875.69,-41.98 913.78,-30.61"/>
<polygon fill="midnightblue" stroke="midnightblue" points="780.49,-66.77 771.91,-72.99 782.49,-73.48 780.49,-66.77"/>
</g>
<!-- Node30&#45;&gt;Node26 -->
<g id="edge19" class="edge">
<title>Node30&#45;&gt;Node26</title>
<path fill="none" stroke="midnightblue" d="M790.04,-75.8C850.92,-65.1 944.36,-48.1 1025,-31 1027.88,-30.39 1030.82,-29.75 1033.79,-29.09"/>
<polygon fill="midnightblue" stroke="midnightblue" points="789.42,-72.36 780.18,-77.53 790.63,-79.25 789.42,-72.36"/>
</g>
<!-- Node30&#45;&gt;Node33 -->
<g id="edge22" class="edge">
<title>Node30&#45;&gt;Node33</title>
<path fill="none" stroke="midnightblue" d="M790.13,-79.37C873.16,-69.42 1021.04,-50.91 1147,-31 1158.29,-29.22 1170.46,-27.09 1181.78,-25.02"/>
<polygon fill="midnightblue" stroke="midnightblue" points="789.6,-75.91 780.09,-80.57 790.43,-82.86 789.6,-75.91"/>
</g>
<!-- Node36&#45;&gt;Node37 -->
<g id="edge25" class="edge">
<title>Node36&#45;&gt;Node37</title>
<path fill="none" stroke="midnightblue" d="M1554.63,-69.59C1546.23,-55.5 1534.76,-36.24 1528.19,-25.22"/>
<polygon fill="midnightblue" stroke="midnightblue" points="1551.73,-71.56 1559.85,-78.36 1557.74,-67.97 1551.73,-71.56"/>
</g>
</g>
</svg>
