<?xml version="1.0" encoding="UTF-8" standalone="no"?>
<!DOCTYPE svg PUBLIC "-//W3C//DTD SVG 1.1//EN"
 "http://www.w3.org/Graphics/SVG/1.1/DTD/svg11.dtd">
<!-- Generated by graphviz version 7.0.5 (20221223.1930)
 -->
<!-- Title: include/rel/d/a/kytag/d_a_kytag05/d_a_kytag05.h Pages: 1 -->
<!--zoomable 302 -->
<svg id="main" version="1.1" xmlns="http://www.w3.org/2000/svg" xmlns:xlink="http://www.w3.org/1999/xlink" xml:space="preserve" onload="init(evt)">
<style type="text/css"><![CDATA[
.edge:hover path { stroke: red; }
.edge:hover polygon { stroke: red; fill: red; }
]]></style>
<script type="text/javascript"><![CDATA[
var edges = document.getElementsByTagName('g');
if (edges && edges.length) {
  for (var i=0;i<edges.length;i++) {
    if (edges[i].id.substr(0,4)=='edge') {
      edges[i].setAttribute('class','edge');
    }
  }
}
]]></script>
        <defs>
                <circle id="rim" cx="0" cy="0" r="7"/>
                <circle id="rim2" cx="0" cy="0" r="3.5"/>
                <g id="zoomPlus">
                        <use xlink:href="#rim" fill="#404040">
                                <set attributeName="fill" to="#808080" begin="zoomplus.mouseover" end="zoomplus.mouseout"/>
                        </use>
                        <path d="M-4,0h8M0,-4v8" fill="none" stroke="white" stroke-width="1.5" pointer-events="none"/>
                </g>
                <g id="zoomMin">
                        <use xlink:href="#rim" fill="#404040">
                                <set attributeName="fill" to="#808080" begin="zoomminus.mouseover" end="zoomminus.mouseout"/>
                        </use>
                        <path d="M-4,0h8" fill="none" stroke="white" stroke-width="1.5" pointer-events="none"/>
                </g>
                <g id="dirArrow">
                        <path fill="none" stroke="white" stroke-width="1.5" d="M0,-3.0v7 M-2.5,-0.5L0,-3.0L2.5,-0.5"/>
                </g>
               <g id="resetDef">
                       <use xlink:href="#rim2" fill="#404040">
                               <set attributeName="fill" to="#808080" begin="reset.mouseover" end="reset.mouseout"/>
                       </use>
               </g>
        </defs>

<script type="text/javascript">
var viewWidth = 5443;
var viewHeight = 302;
var sectionId = 'dynsection-1';
</script>
<script xlink:href="svgpan.js"/>
<svg id="graph" class="graph">
<g id="viewport">
<title>include/rel/d/a/kytag/d_a_kytag05/d_a_kytag05.h</title>
<!-- Node1 -->
<g id="node1" class="node">
<title>Node1</title>
<g id="a_node1"><a xlink:title=" ">
<polygon fill="#999999" stroke="#666666" points="1426.5,-294 1286.5,-294 1286.5,-264 1426.5,-264 1426.5,-294"/>
<text text-anchor="start" x="1294.5" y="-282" font-family="Helvetica,sans-Serif" font-size="10.00">include/rel/d/a/kytag</text>
<text text-anchor="middle" x="1356.5" y="-271" font-family="Helvetica,sans-Serif" font-size="10.00">/d_a_kytag05/d_a_kytag05.h</text>
</a>
</g>
</g>
<!-- Node2 -->
<g id="node2" class="node">
<title>Node2</title>
<g id="a_node2"><a xlink:href="d__a__alink_8h.html" target="_top" xlink:title=" ">
<polygon fill="white" stroke="#666666" points="1414.5,-228 1298.5,-228 1298.5,-209 1414.5,-209 1414.5,-228"/>
<text text-anchor="middle" x="1356.5" y="-216" font-family="Helvetica,sans-Serif" font-size="10.00">include/d/a/d_a_alink.h</text>
</a>
</g>
</g>
<!-- Node1&#45;&gt;Node2 -->
<g id="edge1" class="edge">
<title>Node1&#45;&gt;Node2</title>
<path fill="none" stroke="#63b8ff" d="M1356.5,-252.3C1356.5,-243.65 1356.5,-234.58 1356.5,-228.18"/>
<polygon fill="#63b8ff" stroke="#63b8ff" points="1353,-252.03 1356.5,-262.03 1360,-252.03 1353,-252.03"/>
</g>
<!-- Node3 -->
<g id="node3" class="node">
<title>Node3</title>
<g id="a_node3"><a xlink:href="d__com__inf__game_8h.html" target="_top" xlink:title=" ">
<polygon fill="#fff0f0" stroke="red" points="2584.5,-173 2474.5,-173 2474.5,-143 2584.5,-143 2584.5,-173"/>
<text text-anchor="start" x="2482.5" y="-161" font-family="Helvetica,sans-Serif" font-size="10.00">include/d/com/d_com</text>
<text text-anchor="middle" x="2529.5" y="-150" font-family="Helvetica,sans-Serif" font-size="10.00">_inf_game.h</text>
</a>
</g>
</g>
<!-- Node2&#45;&gt;Node3 -->
<g id="edge2" class="edge">
<title>Node2&#45;&gt;Node3</title>
<path fill="none" stroke="#63b8ff" d="M1426,-214.03C1639.19,-203.4 2281.14,-171.39 2474.07,-161.76"/>
<polygon fill="#63b8ff" stroke="#63b8ff" points="1425.99,-210.53 1416.18,-214.52 1426.34,-217.52 1425.99,-210.53"/>
</g>
<!-- Node13 -->
<g id="node7" class="node">
<title>Node13</title>
<g id="a_node7"><a xlink:href="d__a__alink_8cpp.html" target="_top" xlink:title=" ">
<polygon fill="white" stroke="#666666" points="379,-24.5 270,-24.5 270,-5.5 379,-5.5 379,-24.5"/>
<text text-anchor="middle" x="324.5" y="-12.5" font-family="Helvetica,sans-Serif" font-size="10.00">src/d/a/d_a_alink.cpp</text>
</a>
</g>
</g>
<!-- Node2&#45;&gt;Node13 -->
<g id="edge59" class="edge">
<title>Node2&#45;&gt;Node13</title>
<path fill="none" stroke="#63b8ff" d="M1286.59,-215.34C1064.4,-207.78 385.14,-178.9 320.5,-107 299.78,-83.95 313.13,-42.85 320.53,-24.85"/>
<polygon fill="#63b8ff" stroke="#63b8ff" points="1286.45,-218.84 1296.56,-215.68 1286.69,-211.84 1286.45,-218.84"/>
</g>
<!-- Node4 -->
<g id="node4" class="node">
<title>Node4</title>
<g id="a_node4"><a xlink:href="d__a__npc_8h.html" target="_top" xlink:title=" ">
<polygon fill="#fff0f0" stroke="red" points="3196,-24.5 3085,-24.5 3085,-5.5 3196,-5.5 3196,-24.5"/>
<text text-anchor="middle" x="3140.5" y="-12.5" font-family="Helvetica,sans-Serif" font-size="10.00">include/d/a/d_a_npc.h</text>
</a>
</g>
</g>
<!-- Node3&#45;&gt;Node4 -->
<g id="edge3" class="edge">
<title>Node3&#45;&gt;Node4</title>
<path fill="none" stroke="#63b8ff" d="M2596.22,-157.13C3024.77,-157.81 5374.25,-159.14 5425.5,-107 5438.27,-94 5438.24,-79.03 5425.5,-66 5385.29,-24.9 3543.3,-17.23 3196.48,-16.15"/>
<polygon fill="#63b8ff" stroke="#63b8ff" points="2596.5,-153.63 2586.49,-157.11 2596.49,-160.63 2596.5,-153.63"/>
</g>
<!-- Node10 -->
<g id="node5" class="node">
<title>Node10</title>
<g id="a_node5"><a xlink:href="d__cc__uty_8h.html" target="_top" xlink:title=" ">
<polygon fill="#fff0f0" stroke="red" points="848,-96 729,-96 729,-77 848,-77 848,-96"/>
<text text-anchor="middle" x="788.5" y="-84" font-family="Helvetica,sans-Serif" font-size="10.00">include/d/cc/d_cc_uty.h</text>
</a>
</g>
</g>
<!-- Node3&#45;&gt;Node10 -->
<g id="edge4" class="edge">
<title>Node3&#45;&gt;Node10</title>
<path fill="none" stroke="#63b8ff" d="M2463.25,-157.19C2193.24,-157.61 1175.13,-155.87 857.5,-107 842.98,-104.77 827.19,-100.45 814.38,-96.44"/>
<polygon fill="#63b8ff" stroke="#63b8ff" points="2462.91,-160.69 2472.91,-157.17 2462.9,-153.69 2462.91,-160.69"/>
</g>
<!-- Node16 -->
<g id="node6" class="node">
<title>Node16</title>
<g id="a_node6"><a xlink:href="d__item_8h.html" target="_top" xlink:title=" ">
<polygon fill="#fff0f0" stroke="red" points="220,-96 125,-96 125,-77 220,-77 220,-96"/>
<text text-anchor="middle" x="172.5" y="-84" font-family="Helvetica,sans-Serif" font-size="10.00">include/d/d_item.h</text>
</a>
</g>
</g>
<!-- Node3&#45;&gt;Node16 -->
<g id="edge5" class="edge">
<title>Node3&#45;&gt;Node16</title>
<path fill="none" stroke="#63b8ff" d="M2463.29,-157.06C2138.7,-157.1 713.45,-154.53 272.5,-107 251.75,-104.76 228.88,-100.45 210.26,-96.44"/>
<polygon fill="#63b8ff" stroke="#63b8ff" points="2462.85,-160.56 2472.85,-157.05 2462.85,-153.56 2462.85,-160.56"/>
</g>
<!-- Node3&#45;&gt;Node13 -->
<g id="edge32" class="edge">
<title>Node3&#45;&gt;Node13</title>
<path fill="none" stroke="#63b8ff" d="M2462.84,-156.61C2100.79,-154.33 385.26,-141.74 343.5,-107 318.93,-86.56 321,-43.3 323.2,-24.75"/>
<polygon fill="#63b8ff" stroke="#63b8ff" points="2462.62,-160.11 2472.64,-156.67 2462.66,-153.11 2462.62,-160.11"/>
</g>
<!-- Node17 -->
<g id="node8" class="node">
<title>Node17</title>
<g id="a_node8"><a xlink:href="d__a__obj__item_8cpp.html" target="_top" xlink:title=" ">
<polygon fill="white" stroke="#666666" points="125,-24.5 0,-24.5 0,-5.5 125,-5.5 125,-24.5"/>
<text text-anchor="middle" x="62.5" y="-12.5" font-family="Helvetica,sans-Serif" font-size="10.00">src/d/a/d_a_obj_item.cpp</text>
</a>
</g>
</g>
<!-- Node3&#45;&gt;Node17 -->
<g id="edge35" class="edge">
<title>Node3&#45;&gt;Node17</title>
<path fill="none" stroke="#63b8ff" d="M2462.67,-156.51C2078.58,-153.6 167.48,-137.6 115.5,-107 84.15,-88.54 69.51,-43.79 64.55,-24.78"/>
<polygon fill="#63b8ff" stroke="#63b8ff" points="2462.57,-160.01 2472.6,-156.59 2462.62,-153.01 2462.57,-160.01"/>
</g>
<!-- Node18 -->
<g id="node9" class="node">
<title>Node18</title>
<g id="a_node9"><a xlink:href="d__com__inf__game_8cpp.html" target="_top" xlink:title=" ">
<polygon fill="white" stroke="#666666" points="251.5,-30 143.5,-30 143.5,0 251.5,0 251.5,-30"/>
<text text-anchor="start" x="151.5" y="-18" font-family="Helvetica,sans-Serif" font-size="10.00">src/d/com/d_com_inf</text>
<text text-anchor="middle" x="197.5" y="-7" font-family="Helvetica,sans-Serif" font-size="10.00">_game.cpp</text>
</a>
</g>
</g>
<!-- Node3&#45;&gt;Node18 -->
<g id="edge41" class="edge">
<title>Node3&#45;&gt;Node18</title>
<path fill="none" stroke="#63b8ff" d="M2462.79,-156.63C2104.84,-154.47 424.23,-142.51 320.5,-107 274.76,-91.34 231.89,-51.95 210.93,-30.49"/>
<polygon fill="#63b8ff" stroke="#63b8ff" points="2462.69,-160.12 2472.71,-156.68 2462.73,-153.13 2462.69,-160.12"/>
</g>
<!-- Node21 -->
<g id="node10" class="node">
<title>Node21</title>
<g id="a_node10"><a xlink:href="d__kantera__icon__meter_8h.html" target="_top" xlink:title=" ">
<polygon fill="#fff0f0" stroke="red" points="967,-101.5 866,-101.5 866,-71.5 967,-71.5 967,-101.5"/>
<text text-anchor="start" x="874" y="-89.5" font-family="Helvetica,sans-Serif" font-size="10.00">include/d/d_kantera</text>
<text text-anchor="middle" x="916.5" y="-78.5" font-family="Helvetica,sans-Serif" font-size="10.00">_icon_meter.h</text>
</a>
</g>
</g>
<!-- Node3&#45;&gt;Node21 -->
<g id="edge9" class="edge">
<title>Node3&#45;&gt;Node21</title>
<path fill="none" stroke="#63b8ff" d="M2462.89,-157.35C2204.54,-158.31 1268.62,-158.11 976.5,-107 969.59,-105.79 962.39,-103.97 955.47,-101.91"/>
<polygon fill="#63b8ff" stroke="#63b8ff" points="2462.82,-160.85 2472.8,-157.31 2462.79,-153.85 2462.82,-160.85"/>
</g>
<!-- Node24 -->
<g id="node11" class="node">
<title>Node24</title>
<g id="a_node11"><a xlink:href="d__model_8h.html" target="_top" xlink:title=" ">
<polygon fill="#fff0f0" stroke="red" points="1088,-96 985,-96 985,-77 1088,-77 1088,-96"/>
<text text-anchor="middle" x="1036.5" y="-84" font-family="Helvetica,sans-Serif" font-size="10.00">include/d/d_model.h</text>
</a>
</g>
</g>
<!-- Node3&#45;&gt;Node24 -->
<g id="edge10" class="edge">
<title>Node3&#45;&gt;Node24</title>
<path fill="none" stroke="#63b8ff" d="M2462.83,-157.09C2217.46,-157.06 1364.99,-153.51 1097.5,-107 1084.57,-104.75 1070.6,-100.43 1059.3,-96.43"/>
<polygon fill="#63b8ff" stroke="#63b8ff" points="2462.54,-160.59 2472.54,-157.09 2462.54,-153.59 2462.54,-160.59"/>
</g>
<!-- Node26 -->
<g id="node12" class="node">
<title>Node26</title>
<g id="a_node12"><a xlink:href="d__name_8h.html" target="_top" xlink:title=" ">
<polygon fill="#fff0f0" stroke="red" points="1207,-96 1106,-96 1106,-77 1207,-77 1207,-96"/>
<text text-anchor="middle" x="1156.5" y="-84" font-family="Helvetica,sans-Serif" font-size="10.00">include/d/d_name.h</text>
</a>
</g>
</g>
<!-- Node3&#45;&gt;Node26 -->
<g id="edge11" class="edge">
<title>Node3&#45;&gt;Node26</title>
<path fill="none" stroke="#63b8ff" d="M2463.03,-156.89C2231.27,-156.12 1459.72,-150.29 1216.5,-107 1203.78,-104.74 1190.03,-100.42 1178.92,-96.42"/>
<polygon fill="#63b8ff" stroke="#63b8ff" points="2462.78,-160.39 2472.79,-156.92 2462.8,-153.39 2462.78,-160.39"/>
</g>
<!-- Node28 -->
<g id="node13" class="node">
<title>Node28</title>
<g id="a_node13"><a xlink:href="d__file__sel__info_8h.html" target="_top" xlink:title=" ">
<polygon fill="#fff0f0" stroke="red" points="1321.5,-101.5 1225.5,-101.5 1225.5,-71.5 1321.5,-71.5 1321.5,-101.5"/>
<text text-anchor="start" x="1233.5" y="-89.5" font-family="Helvetica,sans-Serif" font-size="10.00">include/d/file/d_file</text>
<text text-anchor="middle" x="1273.5" y="-78.5" font-family="Helvetica,sans-Serif" font-size="10.00">_sel_info.h</text>
</a>
</g>
</g>
<!-- Node3&#45;&gt;Node28 -->
<g id="edge12" class="edge">
<title>Node3&#45;&gt;Node28</title>
<path fill="none" stroke="#63b8ff" d="M2462.99,-156.74C2244.5,-155.49 1550.27,-148.28 1330.5,-107 1324.02,-105.78 1317.28,-103.99 1310.8,-101.96"/>
<polygon fill="#63b8ff" stroke="#63b8ff" points="2462.72,-160.24 2472.74,-156.79 2462.76,-153.24 2462.72,-160.24"/>
</g>
<!-- Node31 -->
<g id="node14" class="node">
<title>Node31</title>
<g id="a_node14"><a xlink:href="d__file__sel__warning_8h.html" target="_top" xlink:title=" ">
<polygon fill="#fff0f0" stroke="red" points="1435.5,-101.5 1339.5,-101.5 1339.5,-71.5 1435.5,-71.5 1435.5,-101.5"/>
<text text-anchor="start" x="1347.5" y="-89.5" font-family="Helvetica,sans-Serif" font-size="10.00">include/d/file/d_file</text>
<text text-anchor="middle" x="1387.5" y="-78.5" font-family="Helvetica,sans-Serif" font-size="10.00">_sel_warning.h</text>
</a>
</g>
</g>
<!-- Node3&#45;&gt;Node31 -->
<g id="edge13" class="edge">
<title>Node3&#45;&gt;Node31</title>
<path fill="none" stroke="#63b8ff" d="M2462.86,-156.4C2258.27,-154.15 1641.22,-144.39 1444.5,-107 1438.03,-105.77 1431.29,-103.96 1424.81,-101.94"/>
<polygon fill="#63b8ff" stroke="#63b8ff" points="2462.75,-159.9 2472.79,-156.5 2462.83,-152.9 2462.75,-159.9"/>
</g>
<!-- Node33 -->
<g id="node15" class="node">
<title>Node33</title>
<g id="a_node15"><a xlink:href="d__meter2_8h.html" target="_top" xlink:title=" ">
<polygon fill="#fff0f0" stroke="red" points="1587.5,-96 1453.5,-96 1453.5,-77 1587.5,-77 1587.5,-96"/>
<text text-anchor="middle" x="1520.5" y="-84" font-family="Helvetica,sans-Serif" font-size="10.00">include/d/meter/d_meter2.h</text>
</a>
</g>
</g>
<!-- Node3&#45;&gt;Node33 -->
<g id="edge14" class="edge">
<title>Node3&#45;&gt;Node33</title>
<path fill="none" stroke="#63b8ff" d="M2463.17,-157.85C2309.82,-158.85 1919.26,-155.9 1597.5,-107 1581.69,-104.6 1564.39,-100.37 1550.21,-96.46"/>
<polygon fill="#63b8ff" stroke="#63b8ff" points="2462.74,-161.35 2472.72,-157.78 2462.69,-154.35 2462.74,-161.35"/>
</g>
<!-- Node40 -->
<g id="node16" class="node">
<title>Node40</title>
<g id="a_node16"><a xlink:href="d__msg__object_8h.html" target="_top" xlink:title=" ">
<polygon fill="#fff0f0" stroke="red" points="672.5,-101.5 562.5,-101.5 562.5,-71.5 672.5,-71.5 672.5,-101.5"/>
<text text-anchor="start" x="570.5" y="-89.5" font-family="Helvetica,sans-Serif" font-size="10.00">include/d/msg/d_msg</text>
<text text-anchor="middle" x="617.5" y="-78.5" font-family="Helvetica,sans-Serif" font-size="10.00">_object.h</text>
</a>
</g>
</g>
<!-- Node3&#45;&gt;Node40 -->
<g id="edge15" class="edge">
<title>Node3&#45;&gt;Node40</title>
<path fill="none" stroke="#63b8ff" d="M2462.76,-157.4C2175.02,-158.81 1039.17,-160.76 686.5,-107 678.62,-105.8 670.37,-103.98 662.43,-101.93"/>
<polygon fill="#63b8ff" stroke="#63b8ff" points="2462.74,-160.9 2472.72,-157.35 2462.7,-153.9 2462.74,-160.9"/>
</g>
<!-- Node47 -->
<g id="node17" class="node">
<title>Node47</title>
<g id="a_node17"><a xlink:href="d__demo_8cpp.html" target="_top" xlink:title=" ">
<polygon fill="white" stroke="#666666" points="623.5,-24.5 529.5,-24.5 529.5,-5.5 623.5,-5.5 623.5,-24.5"/>
<text text-anchor="middle" x="576.5" y="-12.5" font-family="Helvetica,sans-Serif" font-size="10.00">src/d/d_demo.cpp</text>
</a>
</g>
</g>
<!-- Node3&#45;&gt;Node47 -->
<g id="edge46" class="edge">
<title>Node3&#45;&gt;Node47</title>
<path fill="none" stroke="#63b8ff" d="M2462.68,-156.58C2121.4,-154.26 587.56,-141.93 553.5,-107 531.2,-84.13 556.53,-42.94 569.63,-24.88"/>
<polygon fill="#63b8ff" stroke="#63b8ff" points="2462.54,-160.08 2472.56,-156.64 2462.59,-153.08 2462.54,-160.08"/>
</g>
<!-- Node48 -->
<g id="node18" class="node">
<title>Node48</title>
<g id="a_node18"><a xlink:href="d__event_8cpp.html" target="_top" xlink:title=" ">
<polygon fill="white" stroke="#666666" points="763,-24.5 642,-24.5 642,-5.5 763,-5.5 763,-24.5"/>
<text text-anchor="middle" x="702.5" y="-12.5" font-family="Helvetica,sans-Serif" font-size="10.00">src/d/event/d_event.cpp</text>
</a>
</g>
</g>
<!-- Node3&#45;&gt;Node48 -->
<g id="edge58" class="edge">
<title>Node3&#45;&gt;Node48</title>
<path fill="none" stroke="#63b8ff" d="M2462.54,-156.28C2139.3,-152.69 754.41,-135.65 720.5,-107 696.14,-86.42 698.7,-43.24 701.1,-24.73"/>
<polygon fill="#63b8ff" stroke="#63b8ff" points="2462.48,-159.78 2472.52,-156.4 2462.56,-152.78 2462.48,-159.78"/>
</g>
<!-- Node56 -->
<g id="node19" class="node">
<title>Node56</title>
<g id="a_node19"><a xlink:href="d__s__logo_8h.html" target="_top" xlink:title=" ">
<polygon fill="#fff0f0" stroke="red" points="1719,-96 1606,-96 1606,-77 1719,-77 1719,-96"/>
<text text-anchor="middle" x="1662.5" y="-84" font-family="Helvetica,sans-Serif" font-size="10.00">include/d/s/d_s_logo.h</text>
</a>
</g>
</g>
<!-- Node3&#45;&gt;Node56 -->
<g id="edge20" class="edge">
<title>Node3&#45;&gt;Node56</title>
<path fill="none" stroke="#63b8ff" d="M2462.94,-157.87C2324.87,-158.58 1997.75,-154.55 1728.5,-107 1714.85,-104.59 1700.02,-100.36 1687.88,-96.45"/>
<polygon fill="#63b8ff" stroke="#63b8ff" points="2462.64,-161.37 2472.61,-157.81 2462.59,-154.37 2462.64,-161.37"/>
</g>
<!-- Node58 -->
<g id="node20" class="node">
<title>Node58</title>
<g id="a_node20"><a xlink:href="d__s__play_8h.html" target="_top" xlink:title=" ">
<polygon fill="#fff0f0" stroke="red" points="1850,-96 1737,-96 1737,-77 1850,-77 1850,-96"/>
<text text-anchor="middle" x="1793.5" y="-84" font-family="Helvetica,sans-Serif" font-size="10.00">include/d/s/d_s_play.h</text>
</a>
</g>
</g>
<!-- Node3&#45;&gt;Node58 -->
<g id="edge21" class="edge">
<title>Node3&#45;&gt;Node58</title>
<path fill="none" stroke="#63b8ff" d="M2463.02,-156.7C2341.97,-155.13 2077.92,-146.95 1859.5,-107 1845.98,-104.53 1831.29,-100.34 1819.21,-96.48"/>
<polygon fill="#63b8ff" stroke="#63b8ff" points="2462.73,-160.2 2472.77,-156.82 2462.81,-153.2 2462.73,-160.2"/>
</g>
<!-- Node64 -->
<g id="node21" class="node">
<title>Node64</title>
<g id="a_node21"><a xlink:href="d__msg__scrn__base_8h.html" target="_top" xlink:title=" ">
<polygon fill="#fff0f0" stroke="red" points="1967,-101.5 1868,-101.5 1868,-71.5 1967,-71.5 1967,-101.5"/>
<text text-anchor="start" x="1876" y="-89.5" font-family="Helvetica,sans-Serif" font-size="10.00">include/msg/scrn/d</text>
<text text-anchor="middle" x="1917.5" y="-78.5" font-family="Helvetica,sans-Serif" font-size="10.00">_msg_scrn_base.h</text>
</a>
</g>
</g>
<!-- Node3&#45;&gt;Node64 -->
<g id="edge22" class="edge">
<title>Node3&#45;&gt;Node64</title>
<path fill="none" stroke="#63b8ff" d="M2463.02,-155.89C2358.45,-153.04 2149.58,-142.93 1976.5,-107 1970.16,-105.68 1963.55,-103.91 1957.15,-101.97"/>
<polygon fill="#63b8ff" stroke="#63b8ff" points="2462.74,-159.38 2472.83,-156.14 2462.92,-152.38 2462.74,-159.38"/>
</g>
<!-- Node68 -->
<g id="node22" class="node">
<title>Node68</title>
<g id="a_node22"><a xlink:href="d__a__b__zant_8h.html" target="_top" xlink:title=" ">
<polygon fill="white" stroke="#666666" points="2106,-101.5 1985,-101.5 1985,-71.5 2106,-71.5 2106,-101.5"/>
<text text-anchor="start" x="1993" y="-89.5" font-family="Helvetica,sans-Serif" font-size="10.00">include/rel/d/a/b/d</text>
<text text-anchor="middle" x="2045.5" y="-78.5" font-family="Helvetica,sans-Serif" font-size="10.00">_a_b_zant/d_a_b_zant.h</text>
</a>
</g>
</g>
<!-- Node3&#45;&gt;Node68 -->
<g id="edge23" class="edge">
<title>Node3&#45;&gt;Node68</title>
<path fill="none" stroke="#63b8ff" d="M2462.73,-152.07C2380.49,-145.28 2236.78,-131.07 2115.5,-107 2108.45,-105.6 2101.06,-103.86 2093.85,-101.99"/>
<polygon fill="#63b8ff" stroke="#63b8ff" points="2462.41,-155.55 2472.66,-152.88 2462.97,-148.58 2462.41,-155.55"/>
</g>
<!-- Node69 -->
<g id="node23" class="node">
<title>Node69</title>
<g id="a_node23"><a xlink:href="d__a__skip__2D_8h.html" target="_top" xlink:title=" ">
<polygon fill="white" stroke="#666666" points="2248.5,-101.5 2124.5,-101.5 2124.5,-71.5 2248.5,-71.5 2248.5,-101.5"/>
<text text-anchor="start" x="2132.5" y="-89.5" font-family="Helvetica,sans-Serif" font-size="10.00">include/rel/d/a/d_a</text>
<text text-anchor="middle" x="2186.5" y="-78.5" font-family="Helvetica,sans-Serif" font-size="10.00">_skip_2D/d_a_skip_2D.h</text>
</a>
</g>
</g>
<!-- Node3&#45;&gt;Node69 -->
<g id="edge24" class="edge">
<title>Node3&#45;&gt;Node69</title>
<path fill="none" stroke="#63b8ff" d="M2462.86,-146.27C2407.81,-137.04 2327.75,-122.74 2258.5,-107 2251.81,-105.48 2244.8,-103.75 2237.89,-101.97"/>
<polygon fill="#63b8ff" stroke="#63b8ff" points="2462.28,-149.72 2472.72,-147.92 2463.43,-142.82 2462.28,-149.72"/>
</g>
<!-- Node70 -->
<g id="node24" class="node">
<title>Node70</title>
<g id="a_node24"><a xlink:href="d__a__spinner_8h.html" target="_top" xlink:title=" ">
<polygon fill="white" stroke="#666666" points="468.5,-101.5 352.5,-101.5 352.5,-71.5 468.5,-71.5 468.5,-101.5"/>
<text text-anchor="start" x="360.5" y="-89.5" font-family="Helvetica,sans-Serif" font-size="10.00">include/rel/d/a/d_a</text>
<text text-anchor="middle" x="410.5" y="-78.5" font-family="Helvetica,sans-Serif" font-size="10.00">_spinner/d_a_spinner.h</text>
</a>
</g>
</g>
<!-- Node3&#45;&gt;Node70 -->
<g id="edge25" class="edge">
<title>Node3&#45;&gt;Node70</title>
<path fill="none" stroke="#63b8ff" d="M2462.97,-156.32C2133.22,-152.85 681.86,-136 482.5,-107 474.3,-105.81 465.7,-103.99 457.41,-101.94"/>
<polygon fill="#63b8ff" stroke="#63b8ff" points="2462.68,-159.82 2472.71,-156.43 2462.75,-152.82 2462.68,-159.82"/>
</g>
<!-- Node71 -->
<g id="node25" class="node">
<title>Node71</title>
<g id="a_node25"><a xlink:href="d__a__player_8cpp.html" target="_top" xlink:title=" ">
<polygon fill="white" stroke="#666666" points="511.5,-24.5 397.5,-24.5 397.5,-5.5 511.5,-5.5 511.5,-24.5"/>
<text text-anchor="middle" x="454.5" y="-12.5" font-family="Helvetica,sans-Serif" font-size="10.00">src/d/a/d_a_player.cpp</text>
</a>
</g>
</g>
<!-- Node3&#45;&gt;Node71 -->
<g id="edge36" class="edge">
<title>Node3&#45;&gt;Node71</title>
<path fill="none" stroke="#63b8ff" d="M2462.69,-156.76C2126.25,-155.36 630.07,-146.93 540.5,-107 500.99,-89.39 470.94,-44.17 459.52,-24.91"/>
<polygon fill="#63b8ff" stroke="#63b8ff" points="2462.64,-160.26 2472.65,-156.8 2462.66,-153.26 2462.64,-160.26"/>
</g>
<!-- Node72 -->
<g id="node26" class="node">
<title>Node72</title>
<g id="a_node26"><a xlink:href="d__a__obj__enemy__create_8h.html" target="_top" xlink:title=" ">
<polygon fill="white" stroke="#666666" points="2394,-107 2267,-107 2267,-66 2394,-66 2394,-107"/>
<text text-anchor="start" x="2275" y="-95" font-family="Helvetica,sans-Serif" font-size="10.00">include/rel/d/a/obj</text>
<text text-anchor="start" x="2275" y="-84" font-family="Helvetica,sans-Serif" font-size="10.00">/d_a_obj_enemy_create</text>
<text text-anchor="middle" x="2330.5" y="-73" font-family="Helvetica,sans-Serif" font-size="10.00">/d_a_obj_enemy_create.h</text>
</a>
</g>
</g>
<!-- Node3&#45;&gt;Node72 -->
<g id="edge28" class="edge">
<title>Node3&#45;&gt;Node72</title>
<path fill="none" stroke="#63b8ff" d="M2477.63,-138.88C2449.98,-129.23 2415.91,-117.33 2387.53,-107.42"/>
<polygon fill="#63b8ff" stroke="#63b8ff" points="2476.24,-142.11 2486.84,-142.1 2478.55,-135.5 2476.24,-142.11"/>
</g>
<!-- Node73 -->
<g id="node27" class="node">
<title>Node73</title>
<g id="a_node27"><a xlink:href="d__a__obj__yobikusa_8h.html" target="_top" xlink:title=" ">
<polygon fill="white" stroke="#666666" points="2517,-107 2412,-107 2412,-66 2517,-66 2517,-107"/>
<text text-anchor="start" x="2420" y="-95" font-family="Helvetica,sans-Serif" font-size="10.00">include/rel/d/a/obj</text>
<text text-anchor="start" x="2420" y="-84" font-family="Helvetica,sans-Serif" font-size="10.00">/d_a_obj_yobikusa/d</text>
<text text-anchor="middle" x="2464.5" y="-73" font-family="Helvetica,sans-Serif" font-size="10.00">_a_obj_yobikusa.h</text>
</a>
</g>
</g>
<!-- Node3&#45;&gt;Node73 -->
<g id="edge29" class="edge">
<title>Node3&#45;&gt;Node73</title>
<path fill="none" stroke="#63b8ff" d="M2508.35,-134.39C2500.22,-125.69 2491,-115.84 2483.13,-107.42"/>
<polygon fill="#63b8ff" stroke="#63b8ff" points="2505.61,-136.58 2515,-141.49 2510.72,-131.8 2505.61,-136.58"/>
</g>
<!-- Node74 -->
<g id="node28" class="node">
<title>Node74</title>
<g id="a_node28"><a xlink:href="d__a__tag__telop_8h.html" target="_top" xlink:title=" ">
<polygon fill="white" stroke="#666666" points="2653.5,-107 2535.5,-107 2535.5,-66 2653.5,-66 2653.5,-107"/>
<text text-anchor="start" x="2543.5" y="-95" font-family="Helvetica,sans-Serif" font-size="10.00">include/rel/d/a/tag</text>
<text text-anchor="start" x="2543.5" y="-84" font-family="Helvetica,sans-Serif" font-size="10.00">/d_a_tag_telop/d_a_tag</text>
<text text-anchor="middle" x="2594.5" y="-73" font-family="Helvetica,sans-Serif" font-size="10.00">_telop.h</text>
</a>
</g>
</g>
<!-- Node3&#45;&gt;Node74 -->
<g id="edge30" class="edge">
<title>Node3&#45;&gt;Node74</title>
<path fill="none" stroke="#63b8ff" d="M2550.65,-134.39C2558.78,-125.69 2568,-115.84 2575.87,-107.42"/>
<polygon fill="#63b8ff" stroke="#63b8ff" points="2548.28,-131.8 2544,-141.49 2553.39,-136.58 2548.28,-131.8"/>
</g>
<!-- Node75 -->
<g id="node29" class="node">
<title>Node75</title>
<g id="a_node29"><a xlink:href="c__dylink_8cpp.html" target="_top" xlink:title=" ">
<polygon fill="white" stroke="#666666" points="2767,-96 2672,-96 2672,-77 2767,-77 2767,-96"/>
<text text-anchor="middle" x="2719.5" y="-84" font-family="Helvetica,sans-Serif" font-size="10.00">src/c/c_dylink.cpp</text>
</a>
</g>
</g>
<!-- Node3&#45;&gt;Node75 -->
<g id="edge31" class="edge">
<title>Node3&#45;&gt;Node75</title>
<path fill="none" stroke="#63b8ff" d="M2579.5,-138.71C2616.71,-125.1 2665.88,-107.11 2694.95,-96.48"/>
<polygon fill="#63b8ff" stroke="#63b8ff" points="2578.48,-135.36 2570.29,-142.08 2580.88,-141.93 2578.48,-135.36"/>
</g>
<!-- Node76 -->
<g id="node30" class="node">
<title>Node76</title>
<g id="a_node30"><a xlink:href="d__a__itembase_8cpp.html" target="_top" xlink:title=" ">
<polygon fill="white" stroke="#666666" points="2913.5,-96 2785.5,-96 2785.5,-77 2913.5,-77 2913.5,-96"/>
<text text-anchor="middle" x="2849.5" y="-84" font-family="Helvetica,sans-Serif" font-size="10.00">src/d/a/d_a_itembase.cpp</text>
</a>
</g>
</g>
<!-- Node3&#45;&gt;Node76 -->
<g id="edge33" class="edge">
<title>Node3&#45;&gt;Node76</title>
<path fill="none" stroke="#63b8ff" d="M2595.92,-144.7C2645.78,-135.19 2715.64,-121.27 2776.5,-107 2790.04,-103.82 2804.88,-99.94 2817.63,-96.47"/>
<polygon fill="#63b8ff" stroke="#63b8ff" points="2595.31,-141.25 2586.13,-146.56 2596.61,-148.13 2595.31,-141.25"/>
</g>
<!-- Node77 -->
<g id="node31" class="node">
<title>Node77</title>
<g id="a_node31"><a xlink:href="d__a__obj_8cpp.html" target="_top" xlink:title=" ">
<polygon fill="white" stroke="#666666" points="3033,-96 2932,-96 2932,-77 3033,-77 3033,-96"/>
<text text-anchor="middle" x="2982.5" y="-84" font-family="Helvetica,sans-Serif" font-size="10.00">src/d/a/d_a_obj.cpp</text>
</a>
</g>
</g>
<!-- Node3&#45;&gt;Node77 -->
<g id="edge34" class="edge">
<title>Node3&#45;&gt;Node77</title>
<path fill="none" stroke="#63b8ff" d="M2595.93,-152.37C2674.61,-146.01 2809.27,-132.37 2922.5,-107 2934.58,-104.29 2947.68,-100.18 2958.56,-96.42"/>
<polygon fill="#63b8ff" stroke="#63b8ff" points="2595.94,-148.86 2586.25,-153.14 2596.49,-155.84 2595.94,-148.86"/>
</g>
<!-- Node78 -->
<g id="node32" class="node">
<title>Node78</title>
<g id="a_node32"><a xlink:href="d__bg__s_8cpp.html" target="_top" xlink:title=" ">
<polygon fill="white" stroke="#666666" points="3155.5,-96 3051.5,-96 3051.5,-77 3155.5,-77 3155.5,-96"/>
<text text-anchor="middle" x="3103.5" y="-84" font-family="Helvetica,sans-Serif" font-size="10.00">src/d/bg/d_bg_s.cpp</text>
</a>
</g>
</g>
<!-- Node3&#45;&gt;Node78 -->
<g id="edge37" class="edge">
<title>Node3&#45;&gt;Node78</title>
<path fill="none" stroke="#63b8ff" d="M2595.99,-155.02C2694.46,-151.07 2884.43,-139.58 3042.5,-107 3054.91,-104.44 3068.37,-100.29 3079.47,-96.48"/>
<polygon fill="#63b8ff" stroke="#63b8ff" points="2596.11,-151.51 2586.25,-155.39 2596.38,-158.51 2596.11,-151.51"/>
</g>
<!-- Node79 -->
<g id="node33" class="node">
<title>Node79</title>
<g id="a_node33"><a xlink:href="d__bg__s__movebg__actor_8cpp.html" target="_top" xlink:title=" ">
<polygon fill="white" stroke="#666666" points="3299.5,-101.5 3173.5,-101.5 3173.5,-71.5 3299.5,-71.5 3299.5,-101.5"/>
<text text-anchor="start" x="3181.5" y="-89.5" font-family="Helvetica,sans-Serif" font-size="10.00">src/d/bg/d_bg_s_movebg</text>
<text text-anchor="middle" x="3236.5" y="-78.5" font-family="Helvetica,sans-Serif" font-size="10.00">_actor.cpp</text>
</a>
</g>
</g>
<!-- Node3&#45;&gt;Node79 -->
<g id="edge38" class="edge">
<title>Node3&#45;&gt;Node79</title>
<path fill="none" stroke="#63b8ff" d="M2596.22,-155.82C2712.47,-152.85 2959.34,-142.54 3164.5,-107 3172.16,-105.67 3180.18,-103.9 3187.98,-101.96"/>
<polygon fill="#63b8ff" stroke="#63b8ff" points="2596.14,-152.32 2586.23,-156.06 2596.31,-159.31 2596.14,-152.32"/>
</g>
<!-- Node80 -->
<g id="node34" class="node">
<title>Node80</title>
<g id="a_node34"><a xlink:href="d__bg__w_8cpp.html" target="_top" xlink:title=" ">
<polygon fill="white" stroke="#666666" points="3425,-96 3318,-96 3318,-77 3425,-77 3425,-96"/>
<text text-anchor="middle" x="3371.5" y="-84" font-family="Helvetica,sans-Serif" font-size="10.00">src/d/bg/d_bg_w.cpp</text>
</a>
</g>
</g>
<!-- Node3&#45;&gt;Node80 -->
<g id="edge39" class="edge">
<title>Node3&#45;&gt;Node80</title>
<path fill="none" stroke="#63b8ff" d="M2596.09,-154.75C2758.68,-148.92 3172.57,-132.04 3308.5,-107 3321.56,-104.59 3335.72,-100.37 3347.3,-96.46"/>
<polygon fill="#63b8ff" stroke="#63b8ff" points="2596.21,-151.24 2586.34,-155.09 2596.45,-158.24 2596.21,-151.24"/>
</g>
<!-- Node81 -->
<g id="node35" class="node">
<title>Node81</title>
<g id="a_node35"><a xlink:href="d__cc__s_8cpp.html" target="_top" xlink:title=" ">
<polygon fill="white" stroke="#666666" points="3547.5,-96 3443.5,-96 3443.5,-77 3547.5,-77 3547.5,-96"/>
<text text-anchor="middle" x="3495.5" y="-84" font-family="Helvetica,sans-Serif" font-size="10.00">src/d/cc/d_cc_s.cpp</text>
</a>
</g>
</g>
<!-- Node3&#45;&gt;Node81 -->
<g id="edge40" class="edge">
<title>Node3&#45;&gt;Node81</title>
<path fill="none" stroke="#63b8ff" d="M2596.21,-155.51C2777.02,-151.12 3273.61,-136.66 3434.5,-107 3447.29,-104.64 3461.13,-100.37 3472.39,-96.42"/>
<polygon fill="#63b8ff" stroke="#63b8ff" points="2596.2,-152.01 2586.28,-155.75 2596.36,-159.01 2596.2,-152.01"/>
</g>
<!-- Node82 -->
<g id="node36" class="node">
<title>Node82</title>
<g id="a_node36"><a xlink:href="d__com__static_8cpp.html" target="_top" xlink:title=" ">
<polygon fill="white" stroke="#666666" points="3705.5,-96 3565.5,-96 3565.5,-77 3705.5,-77 3705.5,-96"/>
<text text-anchor="middle" x="3635.5" y="-84" font-family="Helvetica,sans-Serif" font-size="10.00">src/d/com/d_com_static.cpp</text>
</a>
</g>
</g>
<!-- Node3&#45;&gt;Node82 -->
<g id="edge42" class="edge">
<title>Node3&#45;&gt;Node82</title>
<path fill="none" stroke="#63b8ff" d="M2596.14,-155.44C2793.06,-150.56 3370.12,-134.28 3556.5,-107 3572.71,-104.63 3590.46,-100.4 3605.01,-96.49"/>
<polygon fill="#63b8ff" stroke="#63b8ff" points="2596.26,-151.94 2586.35,-155.68 2596.43,-158.93 2596.26,-151.94"/>
</g>
<!-- Node83 -->
<g id="node37" class="node">
<title>Node83</title>
<g id="a_node37"><a xlink:href="d__attention_8cpp.html" target="_top" xlink:title=" ">
<polygon fill="white" stroke="#666666" points="3831,-96 3724,-96 3724,-77 3831,-77 3831,-96"/>
<text text-anchor="middle" x="3777.5" y="-84" font-family="Helvetica,sans-Serif" font-size="10.00">src/d/d_attention.cpp</text>
</a>
</g>
</g>
<!-- Node3&#45;&gt;Node83 -->
<g id="edge43" class="edge">
<title>Node3&#45;&gt;Node83</title>
<path fill="none" stroke="#63b8ff" d="M2596.26,-156.44C2813.24,-154.28 3497.08,-144.58 3714.5,-107 3727.7,-104.72 3741.99,-100.45 3753.62,-96.49"/>
<polygon fill="#63b8ff" stroke="#63b8ff" points="2596.24,-152.94 2586.27,-156.54 2596.31,-159.94 2596.24,-152.94"/>
</g>
<!-- Node84 -->
<g id="node38" class="node">
<title>Node84</title>
<g id="a_node38"><a xlink:href="d__cam__param_8cpp.html" target="_top" xlink:title=" ">
<polygon fill="white" stroke="#666666" points="3970,-96 3849,-96 3849,-77 3970,-77 3970,-96"/>
<text text-anchor="middle" x="3909.5" y="-84" font-family="Helvetica,sans-Serif" font-size="10.00">src/d/d_cam_param.cpp</text>
</a>
</g>
</g>
<!-- Node3&#45;&gt;Node84 -->
<g id="edge44" class="edge">
<title>Node3&#45;&gt;Node84</title>
<path fill="none" stroke="#63b8ff" d="M2596.2,-156.54C2827.91,-154.64 3597,-145.49 3840.5,-107 3854.89,-104.73 3870.53,-100.46 3883.29,-96.49"/>
<polygon fill="#63b8ff" stroke="#63b8ff" points="2596.42,-153.04 2586.45,-156.62 2596.47,-160.04 2596.42,-153.04"/>
</g>
<!-- Node85 -->
<g id="node39" class="node">
<title>Node85</title>
<g id="a_node39"><a xlink:href="d__camera_8cpp.html" target="_top" xlink:title=" ">
<polygon fill="white" stroke="#666666" points="4090.5,-96 3988.5,-96 3988.5,-77 4090.5,-77 4090.5,-96"/>
<text text-anchor="middle" x="4039.5" y="-84" font-family="Helvetica,sans-Serif" font-size="10.00">src/d/d_camera.cpp</text>
</a>
</g>
</g>
<!-- Node3&#45;&gt;Node85 -->
<g id="edge45" class="edge">
<title>Node3&#45;&gt;Node85</title>
<path fill="none" stroke="#63b8ff" d="M2596.17,-157.17C2843.55,-157.41 3708.45,-154.74 3979.5,-107 3992.23,-104.76 4005.97,-100.44 4017.09,-96.44"/>
<polygon fill="#63b8ff" stroke="#63b8ff" points="2596.38,-153.67 2586.38,-157.16 2596.37,-160.67 2596.38,-153.67"/>
</g>
<!-- Node86 -->
<g id="node40" class="node">
<title>Node86</title>
<g id="a_node40"><a xlink:href="d__eye__hl_8cpp.html" target="_top" xlink:title=" ">
<polygon fill="white" stroke="#666666" points="4206.5,-96 4108.5,-96 4108.5,-77 4206.5,-77 4206.5,-96"/>
<text text-anchor="middle" x="4157.5" y="-84" font-family="Helvetica,sans-Serif" font-size="10.00">src/d/d_eye_hl.cpp</text>
</a>
</g>
</g>
<!-- Node3&#45;&gt;Node86 -->
<g id="edge47" class="edge">
<title>Node3&#45;&gt;Node86</title>
<path fill="none" stroke="#63b8ff" d="M2596.03,-157.46C2856.09,-158.87 3804.13,-160.16 4099.5,-107 4111.84,-104.78 4125.12,-100.46 4135.86,-96.45"/>
<polygon fill="#63b8ff" stroke="#63b8ff" points="2596.42,-153.96 2586.41,-157.41 2596.39,-160.96 2596.42,-153.96"/>
</g>
<!-- Node87 -->
<g id="node41" class="node">
<title>Node87</title>
<g id="a_node41"><a xlink:href="d__insect_8cpp.html" target="_top" xlink:title=" ">
<polygon fill="white" stroke="#666666" points="4320.5,-96 4224.5,-96 4224.5,-77 4320.5,-77 4320.5,-96"/>
<text text-anchor="middle" x="4272.5" y="-84" font-family="Helvetica,sans-Serif" font-size="10.00">src/d/d_insect.cpp</text>
</a>
</g>
</g>
<!-- Node3&#45;&gt;Node87 -->
<g id="edge48" class="edge">
<title>Node3&#45;&gt;Node87</title>
<path fill="none" stroke="#63b8ff" d="M2595.8,-156.21C2888.1,-152.55 4054.41,-136.25 4215.5,-107 4227.64,-104.79 4240.7,-100.48 4251.25,-96.47"/>
<polygon fill="#63b8ff" stroke="#63b8ff" points="2596.02,-152.7 2586.07,-156.33 2596.11,-159.7 2596.02,-152.7"/>
</g>
<!-- Node88 -->
<g id="node42" class="node">
<title>Node88</title>
<g id="a_node42"><a xlink:href="d__kyeff_8cpp.html" target="_top" xlink:title=" ">
<polygon fill="white" stroke="#666666" points="4428.5,-96 4338.5,-96 4338.5,-77 4428.5,-77 4428.5,-96"/>
<text text-anchor="middle" x="4383.5" y="-84" font-family="Helvetica,sans-Serif" font-size="10.00">src/d/d_kyeff.cpp</text>
</a>
</g>
</g>
<!-- Node3&#45;&gt;Node88 -->
<g id="edge49" class="edge">
<title>Node3&#45;&gt;Node88</title>
<path fill="none" stroke="#63b8ff" d="M2596.27,-156.4C2901.54,-153.5 4157.02,-139.66 4329.5,-107 4341.06,-104.81 4353.43,-100.5 4363.42,-96.48"/>
<polygon fill="#63b8ff" stroke="#63b8ff" points="2596.44,-152.9 2586.48,-156.49 2596.51,-159.9 2596.44,-152.9"/>
</g>
<!-- Node89 -->
<g id="node43" class="node">
<title>Node89</title>
<g id="a_node43"><a xlink:href="d__path_8cpp.html" target="_top" xlink:title=" ">
<polygon fill="white" stroke="#666666" points="4536,-96 4447,-96 4447,-77 4536,-77 4536,-96"/>
<text text-anchor="middle" x="4491.5" y="-84" font-family="Helvetica,sans-Serif" font-size="10.00">src/d/d_path.cpp</text>
</a>
</g>
</g>
<!-- Node3&#45;&gt;Node89 -->
<g id="edge50" class="edge">
<title>Node3&#45;&gt;Node89</title>
<path fill="none" stroke="#63b8ff" d="M2596.11,-156.52C2912.28,-154.05 4253.86,-141.63 4437.5,-107 4449.06,-104.82 4461.43,-100.51 4471.42,-96.49"/>
<polygon fill="#63b8ff" stroke="#63b8ff" points="2596.35,-153.01 2586.38,-156.59 2596.4,-160.01 2596.35,-153.01"/>
</g>
<!-- Node90 -->
<g id="node44" class="node">
<title>Node90</title>
<g id="a_node44"><a xlink:href="d__resorce_8cpp.html" target="_top" xlink:title=" ">
<polygon fill="white" stroke="#666666" points="4656.5,-96 4554.5,-96 4554.5,-77 4656.5,-77 4656.5,-96"/>
<text text-anchor="middle" x="4605.5" y="-84" font-family="Helvetica,sans-Serif" font-size="10.00">src/d/d_resorce.cpp</text>
</a>
</g>
</g>
<!-- Node3&#45;&gt;Node90 -->
<g id="edge51" class="edge">
<title>Node3&#45;&gt;Node90</title>
<path fill="none" stroke="#63b8ff" d="M2596.12,-156.49C2923.08,-153.84 4350.14,-140.44 4545.5,-107 4558.24,-104.82 4571.98,-100.51 4583.1,-96.49"/>
<polygon fill="#63b8ff" stroke="#63b8ff" points="2596.44,-152.99 2586.47,-156.57 2596.5,-159.99 2596.44,-152.99"/>
</g>
<!-- Node91 -->
<g id="node45" class="node">
<title>Node91</title>
<g id="a_node45"><a xlink:href="d__select__cursor_8cpp.html" target="_top" xlink:title=" ">
<polygon fill="white" stroke="#666666" points="4802.5,-96 4674.5,-96 4674.5,-77 4802.5,-77 4802.5,-96"/>
<text text-anchor="middle" x="4738.5" y="-84" font-family="Helvetica,sans-Serif" font-size="10.00">src/d/d_select_cursor.cpp</text>
</a>
</g>
</g>
<!-- Node3&#45;&gt;Node91 -->
<g id="edge52" class="edge">
<title>Node3&#45;&gt;Node91</title>
<path fill="none" stroke="#63b8ff" d="M2596.16,-156.38C2934.81,-153.12 4456.85,-136.88 4665.5,-107 4680.82,-104.81 4697.53,-100.49 4711.09,-96.48"/>
<polygon fill="#63b8ff" stroke="#63b8ff" points="2596.32,-152.88 2586.36,-156.48 2596.39,-159.88 2596.32,-152.88"/>
</g>
<!-- Node92 -->
<g id="node46" class="node">
<title>Node92</title>
<g id="a_node46"><a xlink:href="d__simple__model_8cpp.html" target="_top" xlink:title=" ">
<polygon fill="white" stroke="#666666" points="4950.5,-96 4820.5,-96 4820.5,-77 4950.5,-77 4950.5,-96"/>
<text text-anchor="middle" x="4885.5" y="-84" font-family="Helvetica,sans-Serif" font-size="10.00">src/d/d_simple_model.cpp</text>
</a>
</g>
</g>
<!-- Node3&#45;&gt;Node92 -->
<g id="edge53" class="edge">
<title>Node3&#45;&gt;Node92</title>
<path fill="none" stroke="#63b8ff" d="M2596.11,-156.48C2948.49,-153.58 4587.55,-138.51 4811.5,-107 4827.02,-104.82 4843.96,-100.5 4857.71,-96.49"/>
<polygon fill="#63b8ff" stroke="#63b8ff" points="2596.33,-152.97 2586.36,-156.56 2596.39,-159.97 2596.33,-152.97"/>
</g>
<!-- Node93 -->
<g id="node47" class="node">
<title>Node93</title>
<g id="a_node47"><a xlink:href="d__stage_8cpp.html" target="_top" xlink:title=" ">
<polygon fill="white" stroke="#666666" points="5062.5,-96 4968.5,-96 4968.5,-77 5062.5,-77 5062.5,-96"/>
<text text-anchor="middle" x="5015.5" y="-84" font-family="Helvetica,sans-Serif" font-size="10.00">src/d/d_stage.cpp</text>
</a>
</g>
</g>
<!-- Node3&#45;&gt;Node93 -->
<g id="edge54" class="edge">
<title>Node3&#45;&gt;Node93</title>
<path fill="none" stroke="#63b8ff" d="M2596.3,-156.88C2962.79,-156.03 4721.59,-149.76 4959.5,-107 4971.56,-104.83 4984.51,-100.47 4994.91,-96.41"/>
<polygon fill="#63b8ff" stroke="#63b8ff" points="2596.36,-153.38 2586.37,-156.9 2596.38,-160.38 2596.36,-153.38"/>
</g>
<!-- Node42 -->
<g id="node48" class="node">
<title>Node42</title>
<g id="a_node48"><a xlink:href="d__timer_8cpp.html" target="_top" xlink:title=" ">
<polygon fill="white" stroke="#666666" points="5172.5,-96 5080.5,-96 5080.5,-77 5172.5,-77 5172.5,-96"/>
<text text-anchor="middle" x="5126.5" y="-84" font-family="Helvetica,sans-Serif" font-size="10.00">src/d/d_timer.cpp</text>
</a>
</g>
</g>
<!-- Node3&#45;&gt;Node42 -->
<g id="edge55" class="edge">
<title>Node3&#45;&gt;Node42</title>
<path fill="none" stroke="#63b8ff" d="M2596.33,-156.96C2972.93,-156.59 4822.07,-152.44 5071.5,-107 5083.36,-104.84 5096.08,-100.47 5106.29,-96.42"/>
<polygon fill="#63b8ff" stroke="#63b8ff" points="2596.36,-153.46 2586.36,-156.97 2596.36,-160.46 2596.36,-153.46"/>
</g>
<!-- Node94 -->
<g id="node49" class="node">
<title>Node94</title>
<g id="a_node49"><a xlink:href="d__tresure_8cpp.html" target="_top" xlink:title=" ">
<polygon fill="white" stroke="#666666" points="5290.5,-96 5190.5,-96 5190.5,-77 5290.5,-77 5290.5,-96"/>
<text text-anchor="middle" x="5240.5" y="-84" font-family="Helvetica,sans-Serif" font-size="10.00">src/d/d_tresure.cpp</text>
</a>
</g>
</g>
<!-- Node3&#45;&gt;Node94 -->
<g id="edge56" class="edge">
<title>Node3&#45;&gt;Node94</title>
<path fill="none" stroke="#63b8ff" d="M2596.41,-156.94C2982.74,-156.42 4920.14,-151.6 5181.5,-107 5194.15,-104.84 5207.79,-100.47 5218.77,-96.42"/>
<polygon fill="#63b8ff" stroke="#63b8ff" points="2596.41,-153.44 2586.42,-156.95 2596.42,-160.44 2596.41,-153.44"/>
</g>
<!-- Node95 -->
<g id="node50" class="node">
<title>Node95</title>
<g id="a_node50"><a xlink:href="d__vibration_8cpp.html" target="_top" xlink:title=" ">
<polygon fill="white" stroke="#666666" points="5416,-96 5309,-96 5309,-77 5416,-77 5416,-96"/>
<text text-anchor="middle" x="5362.5" y="-84" font-family="Helvetica,sans-Serif" font-size="10.00">src/d/d_vibration.cpp</text>
</a>
</g>
</g>
<!-- Node3&#45;&gt;Node95 -->
<g id="edge57" class="edge">
<title>Node3&#45;&gt;Node95</title>
<path fill="none" stroke="#63b8ff" d="M2596.2,-156.92C2992.11,-156.3 5025.35,-150.99 5299.5,-107 5312.95,-104.84 5327.51,-100.48 5339.24,-96.42"/>
<polygon fill="#63b8ff" stroke="#63b8ff" points="2596.48,-153.42 2586.49,-156.94 2596.49,-160.42 2596.48,-153.42"/>
</g>
<!-- Node16&#45;&gt;Node13 -->
<g id="edge6" class="edge">
<title>Node16&#45;&gt;Node13</title>
<path fill="none" stroke="#63b8ff" d="M202.48,-71.79C232.89,-57.89 279.06,-36.78 305.01,-24.91"/>
<polygon fill="#63b8ff" stroke="#63b8ff" points="201.08,-68.59 193.44,-75.93 203.99,-74.95 201.08,-68.59"/>
</g>
<!-- Node16&#45;&gt;Node17 -->
<g id="edge7" class="edge">
<title>Node16&#45;&gt;Node17</title>
<path fill="none" stroke="#63b8ff" d="M148.99,-70.64C127.02,-56.77 94.95,-36.5 76.67,-24.95"/>
<polygon fill="#63b8ff" stroke="#63b8ff" points="146.97,-73.51 157.29,-75.89 150.7,-67.59 146.97,-73.51"/>
</g>
<!-- Node16&#45;&gt;Node18 -->
<g id="edge8" class="edge">
<title>Node16&#45;&gt;Node18</title>
<path fill="none" stroke="#63b8ff" d="M179.47,-66.12C183.56,-54.75 188.64,-40.63 192.37,-30.27"/>
<polygon fill="#63b8ff" stroke="#63b8ff" points="176.27,-64.68 176.18,-75.27 182.86,-67.05 176.27,-64.68"/>
</g>
<!-- Node40&#45;&gt;Node4 -->
<g id="edge16" class="edge">
<title>Node40&#45;&gt;Node4</title>
<path fill="none" stroke="#63b8ff" d="M683.84,-71.26C695.98,-69.14 708.58,-67.24 720.5,-66 1200.64,-15.94 2768.12,-15.46 3084.53,-15.89"/>
<polygon fill="#63b8ff" stroke="#63b8ff" points="683.54,-67.76 674.33,-73 684.8,-74.65 683.54,-67.76"/>
</g>
<!-- Node40&#45;&gt;Node13 -->
<g id="edge17" class="edge">
<title>Node40&#45;&gt;Node13</title>
<path fill="none" stroke="#63b8ff" d="M551.07,-69.74C492.64,-55.88 409.68,-36.21 362.05,-24.91"/>
<polygon fill="#63b8ff" stroke="#63b8ff" points="550.03,-73.09 560.57,-72 551.65,-66.28 550.03,-73.09"/>
</g>
<!-- Node40&#45;&gt;Node47 -->
<g id="edge18" class="edge">
<title>Node40&#45;&gt;Node47</title>
<path fill="none" stroke="#63b8ff" d="M603.33,-61.49C595.81,-48.74 587.03,-33.86 581.62,-24.68"/>
<polygon fill="#63b8ff" stroke="#63b8ff" points="600.14,-62.96 608.24,-69.8 606.17,-59.4 600.14,-62.96"/>
</g>
<!-- Node40&#45;&gt;Node48 -->
<g id="edge19" class="edge">
<title>Node40&#45;&gt;Node48</title>
<path fill="none" stroke="#63b8ff" d="M643.67,-64.1C659.9,-50.83 679.88,-34.49 691.89,-24.68"/>
<polygon fill="#63b8ff" stroke="#63b8ff" points="641.81,-61.1 636.28,-70.14 646.24,-66.52 641.81,-61.1"/>
</g>
<!-- Node70&#45;&gt;Node13 -->
<g id="edge26" class="edge">
<title>Node70&#45;&gt;Node13</title>
<path fill="none" stroke="#63b8ff" d="M384.07,-64.14C367.75,-50.95 347.67,-34.72 335.49,-24.88"/>
<polygon fill="#63b8ff" stroke="#63b8ff" points="381.53,-66.58 391.5,-70.15 385.93,-61.14 381.53,-66.58"/>
</g>
<!-- Node70&#45;&gt;Node71 -->
<g id="edge27" class="edge">
<title>Node70&#45;&gt;Node71</title>
<path fill="none" stroke="#63b8ff" d="M425.7,-61.49C433.77,-48.74 443.2,-33.86 449.01,-24.68"/>
<polygon fill="#63b8ff" stroke="#63b8ff" points="422.82,-59.5 420.43,-69.82 428.73,-63.24 422.82,-59.5"/>
</g>
</g>
</svg>
        <g id="navigator" transform="translate(0 0)" fill="#404254">
                <rect fill="#f2f5e9" fill-opacity="0.5" stroke="#606060" stroke-width=".5" x="0" y="0" width="60" height="60"/>
                <use id="zoomplus" xlink:href="#zoomPlus" x="17" y="9" onmousedown="handleZoom(evt,'in')"/>
                <use id="zoomminus" xlink:href="#zoomMin" x="42" y="9" onmousedown="handleZoom(evt,'out')"/>
                <use id="reset" xlink:href="#resetDef" x="30" y="36" onmousedown="handleReset()"/>
                <g id="arrowUp" xlink:href="#dirArrow" transform="translate(30 24)" onmousedown="handlePan(0,-1)">
                  <use xlink:href="#rim" fill="#404040">
                        <set attributeName="fill" to="#808080" begin="arrowUp.mouseover" end="arrowUp.mouseout"/>
                  </use>
                  <path fill="none" stroke="white" stroke-width="1.5" d="M0,-3.0v7 M-2.5,-0.5L0,-3.0L2.5,-0.5"/>
                </g>
                <g id="arrowRight" xlink:href="#dirArrow" transform="rotate(90) translate(36 -43)" onmousedown="handlePan(1,0)">
                  <use xlink:href="#rim" fill="#404040">
                        <set attributeName="fill" to="#808080" begin="arrowRight.mouseover" end="arrowRight.mouseout"/>
                  </use>
                  <path fill="none" stroke="white" stroke-width="1.5" d="M0,-3.0v7 M-2.5,-0.5L0,-3.0L2.5,-0.5"/>
                </g>
                <g id="arrowDown" xlink:href="#dirArrow" transform="rotate(180) translate(-30 -48)" onmousedown="handlePan(0,1)">
                  <use xlink:href="#rim" fill="#404040">
                        <set attributeName="fill" to="#808080" begin="arrowDown.mouseover" end="arrowDown.mouseout"/>
                  </use>
                  <path fill="none" stroke="white" stroke-width="1.5" d="M0,-3.0v7 M-2.5,-0.5L0,-3.0L2.5,-0.5"/>
                </g>
                <g id="arrowLeft" xlink:href="#dirArrow" transform="rotate(270) translate(-36 17)" onmousedown="handlePan(-1,0)">
                  <use xlink:href="#rim" fill="#404040">
                        <set attributeName="fill" to="#808080" begin="arrowLeft.mouseover" end="arrowLeft.mouseout"/>
                  </use>
                  <path fill="none" stroke="white" stroke-width="1.5" d="M0,-3.0v7 M-2.5,-0.5L0,-3.0L2.5,-0.5"/>
                </g>
        </g>
        <svg viewBox="0 0 15 15" width="100%" height="30px" preserveAspectRatio="xMaxYMin meet">
         <g id="arrow_out" transform="scale(0.3 0.3)">
          <a xlink:href="d__a__kytag05_8h__dep__incl_org.svg" target="_base">
           <rect id="button" ry="5" rx="5" y="6" x="6" height="38" width="38"
                fill="#f2f5e9" fill-opacity="0.5" stroke="#606060" stroke-width="1.0"/>
           <path id="arrow"
             d="M 11.500037,31.436501 C 11.940474,20.09759 22.043105,11.32322 32.158766,21.979434 L 37.068811,17.246167 C 37.068811,17.246167 37.088388,32 37.088388,32 L 22.160133,31.978069 C 22.160133,31.978069 26.997745,27.140456 26.997745,27.140456 C 18.528582,18.264221 13.291696,25.230495 11.500037,31.436501 z"
             style="fill:#404040;"/>
          </a>
         </g>
        </svg>
</svg>
