<?xml version="1.0" encoding="UTF-8" standalone="no"?>
<!DOCTYPE svg PUBLIC "-//W3C//DTD SVG 1.1//EN"
 "http://www.w3.org/Graphics/SVG/1.1/DTD/svg11.dtd">
<!-- Generated by graphviz version 3.0.0 (20220413.0106)
 -->
<!-- Title: include/d/bg/d_bg_s_acch.h Pages: 1 -->
<svg width="3101pt" height="530pt"
 viewBox="0.00 0.00 3100.50 530.00" xmlns="http://www.w3.org/2000/svg" xmlns:xlink="http://www.w3.org/1999/xlink">
<g id="graph0" class="graph" transform="scale(1 1) rotate(0) translate(4 526)">
<title>include/d/bg/d_bg_s_acch.h</title>
<polygon fill="white" stroke="transparent" points="-4,4 -4,-526 3096.5,-526 3096.5,4 -4,4"/>
<!-- Node1 -->
<g id="node1" class="node">
<title>Node1</title>
<g id="a_node1"><a xlink:title=" ">
<polygon fill="#bfbfbf" stroke="black" points="2522,-491.5 2522,-521.5 2626,-521.5 2626,-491.5 2522,-491.5"/>
<text text-anchor="start" x="2530" y="-509.5" font-family="Helvetica,sans-Serif" font-size="10.00">include/d/bg/d_bg_s</text>
<text text-anchor="middle" x="2574" y="-498.5" font-family="Helvetica,sans-Serif" font-size="10.00">_acch.h</text>
</a>
</g>
</g>
<!-- Node2 -->
<g id="node2" class="node">
<title>Node2</title>
<g id="a_node2"><a xlink:href="d__a__itembase_8h.html" target="_top" xlink:title=" ">
<polygon fill="white" stroke="black" points="336.5,-296 336.5,-315 471.5,-315 471.5,-296 336.5,-296"/>
<text text-anchor="middle" x="404" y="-303" font-family="Helvetica,sans-Serif" font-size="10.00">include/d/a/d_a_itembase.h</text>
</a>
</g>
</g>
<!-- Node1&#45;&gt;Node2 -->
<g id="edge1" class="edge">
<title>Node1&#45;&gt;Node2</title>
<path fill="none" stroke="midnightblue" d="M2511.72,-499.79C2198.42,-471.06 796.97,-342.54 471.62,-312.7"/>
<polygon fill="midnightblue" stroke="midnightblue" points="2511.69,-503.3 2521.97,-500.73 2512.33,-496.33 2511.69,-503.3"/>
</g>
<!-- Node80 -->
<g id="node35" class="node">
<title>Node80</title>
<g id="a_node35"><a xlink:href="d__bg__w_8h.html" target="_top" xlink:title=" ">
<polygon fill="white" stroke="black" points="2115.5,-363 2115.5,-382 2228.5,-382 2228.5,-363 2115.5,-363"/>
<text text-anchor="middle" x="2172" y="-370" font-family="Helvetica,sans-Serif" font-size="10.00">include/d/bg/d_bg_w.h</text>
</a>
</g>
</g>
<!-- Node1&#45;&gt;Node80 -->
<g id="edge38" class="edge">
<title>Node1&#45;&gt;Node80</title>
<path fill="none" stroke="midnightblue" d="M2511.93,-501.14C2429.23,-494.46 2288.11,-479.8 2243,-455 2210.94,-437.37 2186.52,-399.31 2176.71,-382.17"/>
<polygon fill="midnightblue" stroke="midnightblue" points="2511.71,-504.63 2521.96,-501.93 2512.27,-497.65 2511.71,-504.63"/>
</g>
<!-- Node86 -->
<g id="node39" class="node">
<title>Node86</title>
<g id="a_node39"><a xlink:href="d__bg__s__acch_8cpp.html" target="_top" xlink:title=" ">
<polygon fill="white" stroke="black" points="2847.5,-229 2847.5,-248 2978.5,-248 2978.5,-229 2847.5,-229"/>
<text text-anchor="middle" x="2913" y="-236" font-family="Helvetica,sans-Serif" font-size="10.00">src/d/bg/d_bg_s_acch.cpp</text>
</a>
</g>
</g>
<!-- Node1&#45;&gt;Node86 -->
<g id="edge68" class="edge">
<title>Node1&#45;&gt;Node86</title>
<path fill="none" stroke="midnightblue" d="M2636.3,-501.6C2710.55,-493.34 2832.43,-467.68 2895,-388 2928.68,-345.11 2919.22,-272.66 2914.73,-248.01"/>
<polygon fill="midnightblue" stroke="midnightblue" points="2635.74,-498.14 2626.15,-502.65 2636.46,-505.1 2635.74,-498.14"/>
</g>
<!-- Node88 -->
<g id="node41" class="node">
<title>Node88</title>
<g id="a_node41"><a xlink:href="d__bg__w__base_8h.html" target="_top" xlink:title=" ">
<polygon fill="white" stroke="black" points="2368,-424.5 2368,-454.5 2474,-454.5 2474,-424.5 2368,-424.5"/>
<text text-anchor="start" x="2376" y="-442.5" font-family="Helvetica,sans-Serif" font-size="10.00">include/d/bg/d_bg_w</text>
<text text-anchor="middle" x="2421" y="-431.5" font-family="Helvetica,sans-Serif" font-size="10.00">_base.h</text>
</a>
</g>
</g>
<!-- Node1&#45;&gt;Node88 -->
<g id="edge51" class="edge">
<title>Node1&#45;&gt;Node88</title>
<path fill="none" stroke="midnightblue" d="M2531.41,-487.41C2506.98,-477.03 2476.78,-464.2 2454.13,-454.58"/>
<polygon fill="midnightblue" stroke="midnightblue" points="2530.23,-490.71 2540.8,-491.4 2532.97,-484.26 2530.23,-490.71"/>
</g>
<!-- Node92 -->
<g id="node45" class="node">
<title>Node92</title>
<g id="a_node45"><a xlink:href="d__bomb_8h.html" target="_top" xlink:title=" ">
<polygon fill="white" stroke="black" points="2941.5,-430 2941.5,-449 3042.5,-449 3042.5,-430 2941.5,-430"/>
<text text-anchor="middle" x="2992" y="-437" font-family="Helvetica,sans-Serif" font-size="10.00">include/d/d_bomb.h</text>
</a>
</g>
</g>
<!-- Node1&#45;&gt;Node92 -->
<g id="edge56" class="edge">
<title>Node1&#45;&gt;Node92</title>
<path fill="none" stroke="midnightblue" d="M2636.32,-498.07C2707.04,-489.29 2825.71,-473.51 2927,-455 2936.44,-453.27 2946.59,-451.14 2956,-449.05"/>
<polygon fill="midnightblue" stroke="midnightblue" points="2635.74,-494.61 2626.24,-499.31 2636.59,-501.56 2635.74,-494.61"/>
</g>
<!-- Node94 -->
<g id="node47" class="node">
<title>Node94</title>
<g id="a_node47"><a xlink:href="d__particle__copoly_8h.html" target="_top" xlink:title=" ">
<polygon fill="white" stroke="black" points="2566,-424.5 2566,-454.5 2668,-454.5 2668,-424.5 2566,-424.5"/>
<text text-anchor="start" x="2574" y="-442.5" font-family="Helvetica,sans-Serif" font-size="10.00">include/d/particle</text>
<text text-anchor="middle" x="2617" y="-431.5" font-family="Helvetica,sans-Serif" font-size="10.00">/d_particle_copoly.h</text>
</a>
</g>
</g>
<!-- Node1&#45;&gt;Node94 -->
<g id="edge59" class="edge">
<title>Node1&#45;&gt;Node94</title>
<path fill="none" stroke="midnightblue" d="M2588.97,-482.87C2595.2,-473.46 2602.23,-462.83 2607.69,-454.58"/>
<polygon fill="midnightblue" stroke="midnightblue" points="2585.93,-481.12 2583.33,-491.4 2591.77,-484.99 2585.93,-481.12"/>
</g>
<!-- Node95 -->
<g id="node48" class="node">
<title>Node95</title>
<g id="a_node48"><a xlink:href="d__a__boomerang_8h.html" target="_top" xlink:title=" ">
<polygon fill="white" stroke="black" points="2736.5,-357.5 2736.5,-387.5 2885.5,-387.5 2885.5,-357.5 2736.5,-357.5"/>
<text text-anchor="start" x="2744.5" y="-375.5" font-family="Helvetica,sans-Serif" font-size="10.00">include/rel/d/a/d_a</text>
<text text-anchor="middle" x="2811" y="-364.5" font-family="Helvetica,sans-Serif" font-size="10.00">_boomerang/d_a_boomerang.h</text>
</a>
</g>
</g>
<!-- Node1&#45;&gt;Node95 -->
<g id="edge64" class="edge">
<title>Node1&#45;&gt;Node95</title>
<path fill="none" stroke="midnightblue" d="M2613.69,-487.08C2633,-477.85 2656.44,-466.26 2677,-455 2717.36,-432.89 2762.83,-404.46 2789.07,-387.68"/>
<polygon fill="midnightblue" stroke="midnightblue" points="2612.1,-483.96 2604.57,-491.41 2615.1,-490.28 2612.1,-483.96"/>
</g>
<!-- Node97 -->
<g id="node50" class="node">
<title>Node97</title>
<g id="a_node50"><a xlink:href="d__a__obj__carry_8h.html" target="_top" xlink:title=" ">
<polygon fill="white" stroke="black" points="2675,-145.5 2675,-186.5 2791,-186.5 2791,-145.5 2675,-145.5"/>
<text text-anchor="start" x="2683" y="-174.5" font-family="Helvetica,sans-Serif" font-size="10.00">include/rel/d/a/obj</text>
<text text-anchor="start" x="2683" y="-163.5" font-family="Helvetica,sans-Serif" font-size="10.00">/d_a_obj_carry/d_a_obj</text>
<text text-anchor="middle" x="2733" y="-152.5" font-family="Helvetica,sans-Serif" font-size="10.00">_carry.h</text>
</a>
</g>
</g>
<!-- Node1&#45;&gt;Node97 -->
<g id="edge65" class="edge">
<title>Node1&#45;&gt;Node97</title>
<path fill="none" stroke="midnightblue" d="M2511.57,-506.04C2419.23,-503.2 2257,-482.68 2257,-373.5 2257,-373.5 2257,-373.5 2257,-304.5 2257,-218.48 2547.53,-182.94 2674.63,-171.51"/>
<polygon fill="midnightblue" stroke="midnightblue" points="2511.57,-509.54 2521.65,-506.29 2511.74,-502.54 2511.57,-509.54"/>
</g>
<!-- Node3 -->
<g id="node3" class="node">
<title>Node3</title>
<g id="a_node3"><a xlink:href="d__a__itembase__static_8h.html" target="_top" xlink:title=" ">
<polygon fill="white" stroke="black" points="54,-223.5 54,-253.5 182,-253.5 182,-223.5 54,-223.5"/>
<text text-anchor="start" x="62" y="-241.5" font-family="Helvetica,sans-Serif" font-size="10.00">include/d/a/d_a_itembase</text>
<text text-anchor="middle" x="118" y="-230.5" font-family="Helvetica,sans-Serif" font-size="10.00">_static.h</text>
</a>
</g>
</g>
<!-- Node2&#45;&gt;Node3 -->
<g id="edge2" class="edge">
<title>Node2&#45;&gt;Node3</title>
<path fill="none" stroke="midnightblue" d="M356.42,-293.69C308.03,-282.69 232.84,-265.6 179.86,-253.56"/>
<polygon fill="midnightblue" stroke="midnightblue" points="355.79,-297.13 366.32,-295.94 357.34,-290.31 355.79,-297.13"/>
</g>
<!-- Node5 -->
<g id="node5" class="node">
<title>Node5</title>
<g id="a_node5"><a xlink:href="d__a__shop__item__static_8h.html" target="_top" xlink:title=" ">
<polygon fill="white" stroke="black" points="263.5,-223.5 263.5,-253.5 372.5,-253.5 372.5,-223.5 263.5,-223.5"/>
<text text-anchor="start" x="271.5" y="-241.5" font-family="Helvetica,sans-Serif" font-size="10.00">include/d/a/d_a_shop</text>
<text text-anchor="middle" x="318" y="-230.5" font-family="Helvetica,sans-Serif" font-size="10.00">_item_static.h</text>
</a>
</g>
</g>
<!-- Node2&#45;&gt;Node5 -->
<g id="edge4" class="edge">
<title>Node2&#45;&gt;Node5</title>
<path fill="none" stroke="midnightblue" d="M384.21,-289.54C369.9,-278.73 350.68,-264.2 336.64,-253.59"/>
<polygon fill="midnightblue" stroke="midnightblue" points="382.31,-292.5 392.4,-295.73 386.53,-286.91 382.31,-292.5"/>
</g>
<!-- Node12 -->
<g id="node10" class="node">
<title>Node12</title>
<g id="a_node10"><a xlink:href="d__event_8h.html" target="_top" xlink:title=" ">
<polygon fill="white" stroke="black" points="432,-229 432,-248 560,-248 560,-229 432,-229"/>
<text text-anchor="middle" x="496" y="-236" font-family="Helvetica,sans-Serif" font-size="10.00">include/d/event/d_event.h</text>
</a>
</g>
</g>
<!-- Node2&#45;&gt;Node12 -->
<g id="edge9" class="edge">
<title>Node2&#45;&gt;Node12</title>
<path fill="none" stroke="midnightblue" d="M424.64,-289.92C442.82,-277.07 468.71,-258.78 483.79,-248.13"/>
<polygon fill="midnightblue" stroke="midnightblue" points="422.56,-287.1 416.41,-295.73 426.59,-292.82 422.56,-287.1"/>
</g>
<!-- Node52 -->
<g id="node27" class="node">
<title>Node52</title>
<g id="a_node27"><a xlink:href="d__a__itembase_8cpp.html" target="_top" xlink:title=" ">
<polygon fill="white" stroke="black" points="233,-78.5 233,-97.5 361,-97.5 361,-78.5 233,-78.5"/>
<text text-anchor="middle" x="297" y="-85.5" font-family="Helvetica,sans-Serif" font-size="10.00">src/d/a/d_a_itembase.cpp</text>
</a>
</g>
</g>
<!-- Node2&#45;&gt;Node52 -->
<g id="edge37" class="edge">
<title>Node2&#45;&gt;Node52</title>
<path fill="none" stroke="midnightblue" d="M406.65,-285.62C410.1,-253.93 412.76,-189.15 385,-145 370.25,-121.54 341.7,-106.12 321.11,-97.51"/>
<polygon fill="midnightblue" stroke="midnightblue" points="403.16,-285.35 405.4,-295.7 410.11,-286.21 403.16,-285.35"/>
</g>
<!-- Node4 -->
<g id="node4" class="node">
<title>Node4</title>
<g id="a_node4"><a xlink:href="d__a__itembase__static_8cpp.html" target="_top" xlink:title=" ">
<polygon fill="white" stroke="black" points="0,-151 0,-181 110,-181 110,-151 0,-151"/>
<text text-anchor="start" x="8" y="-169" font-family="Helvetica,sans-Serif" font-size="10.00">src/d/a/d_a_itembase</text>
<text text-anchor="middle" x="55" y="-158" font-family="Helvetica,sans-Serif" font-size="10.00">_static.cpp</text>
</a>
</g>
</g>
<!-- Node3&#45;&gt;Node4 -->
<g id="edge3" class="edge">
<title>Node3&#45;&gt;Node4</title>
<path fill="none" stroke="midnightblue" d="M98.38,-215.54C88.38,-204.36 76.52,-191.08 67.73,-181.25"/>
<polygon fill="midnightblue" stroke="midnightblue" points="95.98,-218.11 105.25,-223.23 101.2,-213.44 95.98,-218.11"/>
</g>
<!-- Node6 -->
<g id="node6" class="node">
<title>Node6</title>
<g id="a_node6"><a xlink:href="d__shop__item__ctrl_8h.html" target="_top" xlink:title=" ">
<polygon fill="white" stroke="black" points="128,-151 128,-181 242,-181 242,-151 128,-151"/>
<text text-anchor="start" x="136" y="-169" font-family="Helvetica,sans-Serif" font-size="10.00">include/d/shop/d_shop</text>
<text text-anchor="middle" x="185" y="-158" font-family="Helvetica,sans-Serif" font-size="10.00">_item_ctrl.h</text>
</a>
</g>
</g>
<!-- Node5&#45;&gt;Node6 -->
<g id="edge5" class="edge">
<title>Node5&#45;&gt;Node6</title>
<path fill="none" stroke="midnightblue" d="M282.56,-218.72C260.25,-206.89 231.92,-191.87 211.55,-181.07"/>
<polygon fill="midnightblue" stroke="midnightblue" points="280.93,-221.81 291.41,-223.4 284.21,-215.63 280.93,-221.81"/>
</g>
<!-- Node11 -->
<g id="node9" class="node">
<title>Node11</title>
<g id="a_node9"><a xlink:href="d__a__shop__item__static_8cpp.html" target="_top" xlink:title=" ">
<polygon fill="white" stroke="black" points="260,-151 260,-181 376,-181 376,-151 260,-151"/>
<text text-anchor="start" x="268" y="-169" font-family="Helvetica,sans-Serif" font-size="10.00">src/d/a/d_a_shop_item</text>
<text text-anchor="middle" x="318" y="-158" font-family="Helvetica,sans-Serif" font-size="10.00">_static.cpp</text>
</a>
</g>
</g>
<!-- Node5&#45;&gt;Node11 -->
<g id="edge8" class="edge">
<title>Node5&#45;&gt;Node11</title>
<path fill="none" stroke="midnightblue" d="M318,-213.23C318,-202.57 318,-190.41 318,-181.25"/>
<polygon fill="midnightblue" stroke="midnightblue" points="314.5,-213.23 318,-223.23 321.5,-213.23 314.5,-213.23"/>
</g>
<!-- Node7 -->
<g id="node7" class="node">
<title>Node7</title>
<g id="a_node7"><a xlink:href="d__shop__system_8h.html" target="_top" xlink:title=" ">
<polygon fill="white" stroke="red" points="468,-0.5 468,-30.5 582,-30.5 582,-0.5 468,-0.5"/>
<text text-anchor="start" x="476" y="-18.5" font-family="Helvetica,sans-Serif" font-size="10.00">include/d/shop/d_shop</text>
<text text-anchor="middle" x="525" y="-7.5" font-family="Helvetica,sans-Serif" font-size="10.00">_system.h</text>
</a>
</g>
</g>
<!-- Node6&#45;&gt;Node7 -->
<g id="edge6" class="edge">
<title>Node6&#45;&gt;Node7</title>
<path fill="none" stroke="midnightblue" d="M187.93,-140.58C192,-117.94 201.59,-85.09 224,-67 260.59,-37.46 391.15,-24.61 467.77,-19.5"/>
<polygon fill="midnightblue" stroke="midnightblue" points="184.42,-140.35 186.34,-150.77 191.34,-141.43 184.42,-140.35"/>
</g>
<!-- Node10 -->
<g id="node8" class="node">
<title>Node10</title>
<g id="a_node8"><a xlink:href="d__shop__item__ctrl_8cpp.html" target="_top" xlink:title=" ">
<polygon fill="white" stroke="black" points="55.5,-73 55.5,-103 176.5,-103 176.5,-73 55.5,-73"/>
<text text-anchor="start" x="63.5" y="-91" font-family="Helvetica,sans-Serif" font-size="10.00">src/d/shop/d_shop_item</text>
<text text-anchor="middle" x="116" y="-80" font-family="Helvetica,sans-Serif" font-size="10.00">_ctrl.cpp</text>
</a>
</g>
</g>
<!-- Node6&#45;&gt;Node10 -->
<g id="edge7" class="edge">
<title>Node6&#45;&gt;Node10</title>
<path fill="none" stroke="midnightblue" d="M165.18,-143.17C153.52,-130.33 139.12,-114.47 128.92,-103.23"/>
<polygon fill="midnightblue" stroke="midnightblue" points="162.71,-145.65 172.02,-150.7 167.89,-140.95 162.71,-145.65"/>
</g>
<!-- Node13 -->
<g id="node11" class="node">
<title>Node13</title>
<g id="a_node11"><a xlink:href="d__com__inf__game_8h.html" target="_top" xlink:title=" ">
<polygon fill="white" stroke="red" points="1725,-151 1725,-181 1835,-181 1835,-151 1725,-151"/>
<text text-anchor="start" x="1733" y="-169" font-family="Helvetica,sans-Serif" font-size="10.00">include/d/com/d_com</text>
<text text-anchor="middle" x="1780" y="-158" font-family="Helvetica,sans-Serif" font-size="10.00">_inf_game.h</text>
</a>
</g>
</g>
<!-- Node12&#45;&gt;Node13 -->
<g id="edge10" class="edge">
<title>Node12&#45;&gt;Node13</title>
<path fill="none" stroke="midnightblue" d="M570.2,-233.43C803.72,-220.6 1520.13,-181.27 1724.84,-170.03"/>
<polygon fill="midnightblue" stroke="midnightblue" points="569.91,-229.94 560.11,-233.98 570.29,-236.93 569.91,-229.94"/>
</g>
<!-- Node65 -->
<g id="node33" class="node">
<title>Node65</title>
<g id="a_node33"><a xlink:href="d__event_8cpp.html" target="_top" xlink:title=" ">
<polygon fill="white" stroke="black" points="379.5,-78.5 379.5,-97.5 500.5,-97.5 500.5,-78.5 379.5,-78.5"/>
<text text-anchor="middle" x="440" y="-85.5" font-family="Helvetica,sans-Serif" font-size="10.00">src/d/event/d_event.cpp</text>
</a>
</g>
</g>
<!-- Node12&#45;&gt;Node65 -->
<g id="edge36" class="edge">
<title>Node12&#45;&gt;Node65</title>
<path fill="none" stroke="midnightblue" d="M489.06,-219.09C476.88,-186.79 452.11,-121.12 443.25,-97.61"/>
<polygon fill="midnightblue" stroke="midnightblue" points="485.86,-220.53 492.66,-228.66 492.41,-218.06 485.86,-220.53"/>
</g>
<!-- Node14 -->
<g id="node12" class="node">
<title>Node14</title>
<g id="a_node12"><a xlink:href="d__a__npc_8h.html" target="_top" xlink:title=" ">
<polygon fill="white" stroke="red" points="788.5,-78.5 788.5,-97.5 899.5,-97.5 899.5,-78.5 788.5,-78.5"/>
<text text-anchor="middle" x="844" y="-85.5" font-family="Helvetica,sans-Serif" font-size="10.00">include/d/a/d_a_npc.h</text>
</a>
</g>
</g>
<!-- Node13&#45;&gt;Node14 -->
<g id="edge11" class="edge">
<title>Node13&#45;&gt;Node14</title>
<path fill="none" stroke="midnightblue" d="M1714.69,-162.78C1539.79,-156.53 1063.63,-137.35 909,-109 894.83,-106.4 879.41,-101.74 867.14,-97.57"/>
<polygon fill="midnightblue" stroke="midnightblue" points="1714.66,-166.29 1724.78,-163.14 1714.91,-159.29 1714.66,-166.29"/>
</g>
<!-- Node16 -->
<g id="node13" class="node">
<title>Node16</title>
<g id="a_node13"><a xlink:href="d__cc__uty_8h.html" target="_top" xlink:title=" ">
<polygon fill="white" stroke="red" points="2419.5,-78.5 2419.5,-97.5 2538.5,-97.5 2538.5,-78.5 2419.5,-78.5"/>
<text text-anchor="middle" x="2479" y="-85.5" font-family="Helvetica,sans-Serif" font-size="10.00">include/d/cc/d_cc_uty.h</text>
</a>
</g>
</g>
<!-- Node13&#45;&gt;Node16 -->
<g id="edge13" class="edge">
<title>Node13&#45;&gt;Node16</title>
<path fill="none" stroke="midnightblue" d="M1845.32,-163.35C1960.36,-159.52 2206.24,-147.21 2410,-109 2424.71,-106.24 2440.79,-101.67 2453.72,-97.6"/>
<polygon fill="midnightblue" stroke="midnightblue" points="1845.15,-159.85 1835.26,-163.67 1845.37,-166.85 1845.15,-159.85"/>
</g>
<!-- Node18 -->
<g id="node14" class="node">
<title>Node18</title>
<g id="a_node14"><a xlink:href="d__item_8h.html" target="_top" xlink:title=" ">
<polygon fill="white" stroke="red" points="1671.5,-78.5 1671.5,-97.5 1766.5,-97.5 1766.5,-78.5 1671.5,-78.5"/>
<text text-anchor="middle" x="1719" y="-85.5" font-family="Helvetica,sans-Serif" font-size="10.00">include/d/d_item.h</text>
</a>
</g>
</g>
<!-- Node13&#45;&gt;Node18 -->
<g id="edge14" class="edge">
<title>Node13&#45;&gt;Node18</title>
<path fill="none" stroke="midnightblue" d="M1762.18,-142.79C1750.03,-127.66 1734.61,-108.45 1725.87,-97.56"/>
<polygon fill="midnightblue" stroke="midnightblue" points="1759.54,-145.1 1768.53,-150.7 1765,-140.72 1759.54,-145.1"/>
</g>
<!-- Node19 -->
<g id="node15" class="node">
<title>Node19</title>
<g id="a_node15"><a xlink:href="d__com__inf__game_8cpp.html" target="_top" xlink:title=" ">
<polygon fill="white" stroke="black" points="2089,-0.5 2089,-30.5 2197,-30.5 2197,-0.5 2089,-0.5"/>
<text text-anchor="start" x="2097" y="-18.5" font-family="Helvetica,sans-Serif" font-size="10.00">src/d/com/d_com_inf</text>
<text text-anchor="middle" x="2143" y="-7.5" font-family="Helvetica,sans-Serif" font-size="10.00">_game.cpp</text>
</a>
</g>
</g>
<!-- Node13&#45;&gt;Node19 -->
<g id="edge33" class="edge">
<title>Node13&#45;&gt;Node19</title>
<path fill="none" stroke="midnightblue" d="M1845.26,-162.64C2026.48,-155.76 2524.2,-134.6 2548,-109 2560.71,-95.33 2560.36,-80.99 2548,-67 2525.14,-41.11 2302.12,-25.36 2197.13,-19.33"/>
<polygon fill="midnightblue" stroke="midnightblue" points="1844.93,-159.15 1835.07,-163.02 1845.19,-166.14 1844.93,-159.15"/>
</g>
<!-- Node22 -->
<g id="node16" class="node">
<title>Node22</title>
<g id="a_node16"><a xlink:href="d__kantera__icon__meter_8h.html" target="_top" xlink:title=" ">
<polygon fill="white" stroke="red" points="917.5,-73 917.5,-103 1018.5,-103 1018.5,-73 917.5,-73"/>
<text text-anchor="start" x="925.5" y="-91" font-family="Helvetica,sans-Serif" font-size="10.00">include/d/d_kantera</text>
<text text-anchor="middle" x="968" y="-80" font-family="Helvetica,sans-Serif" font-size="10.00">_icon_meter.h</text>
</a>
</g>
</g>
<!-- Node13&#45;&gt;Node22 -->
<g id="edge16" class="edge">
<title>Node13&#45;&gt;Node22</title>
<path fill="none" stroke="midnightblue" d="M1714.34,-165.53C1582.75,-165.41 1277.95,-159.16 1028,-109 1020.57,-107.51 1012.79,-105.37 1005.38,-103.04"/>
<polygon fill="midnightblue" stroke="midnightblue" points="1714.64,-169.03 1724.64,-165.53 1714.64,-162.03 1714.64,-169.03"/>
</g>
<!-- Node25 -->
<g id="node17" class="node">
<title>Node25</title>
<g id="a_node17"><a xlink:href="d__model_8h.html" target="_top" xlink:title=" ">
<polygon fill="white" stroke="red" points="1036.5,-78.5 1036.5,-97.5 1139.5,-97.5 1139.5,-78.5 1036.5,-78.5"/>
<text text-anchor="middle" x="1088" y="-85.5" font-family="Helvetica,sans-Serif" font-size="10.00">include/d/d_model.h</text>
</a>
</g>
</g>
<!-- Node13&#45;&gt;Node25 -->
<g id="edge17" class="edge">
<title>Node13&#45;&gt;Node25</title>
<path fill="none" stroke="midnightblue" d="M1714.88,-164.1C1599.62,-161.43 1352.65,-150.85 1149,-109 1135.79,-106.29 1121.44,-101.67 1109.98,-97.55"/>
<polygon fill="midnightblue" stroke="midnightblue" points="1714.88,-167.6 1724.95,-164.32 1715.03,-160.6 1714.88,-167.6"/>
</g>
<!-- Node27 -->
<g id="node18" class="node">
<title>Node27</title>
<g id="a_node18"><a xlink:href="d__name_8h.html" target="_top" xlink:title=" ">
<polygon fill="white" stroke="red" points="1157.5,-78.5 1157.5,-97.5 1258.5,-97.5 1258.5,-78.5 1157.5,-78.5"/>
<text text-anchor="middle" x="1208" y="-85.5" font-family="Helvetica,sans-Serif" font-size="10.00">include/d/d_name.h</text>
</a>
</g>
</g>
<!-- Node13&#45;&gt;Node27 -->
<g id="edge18" class="edge">
<title>Node13&#45;&gt;Node27</title>
<path fill="none" stroke="midnightblue" d="M1714.77,-162.31C1616.78,-157.27 1426.19,-143.6 1268,-109 1255.13,-106.18 1241.14,-101.61 1229.91,-97.55"/>
<polygon fill="midnightblue" stroke="midnightblue" points="1714.66,-165.81 1724.82,-162.81 1715.01,-158.82 1714.66,-165.81"/>
</g>
<!-- Node29 -->
<g id="node19" class="node">
<title>Node29</title>
<g id="a_node19"><a xlink:href="d__file__sel__info_8h.html" target="_top" xlink:title=" ">
<polygon fill="white" stroke="red" points="1277,-73 1277,-103 1373,-103 1373,-73 1277,-73"/>
<text text-anchor="start" x="1285" y="-91" font-family="Helvetica,sans-Serif" font-size="10.00">include/d/file/d_file</text>
<text text-anchor="middle" x="1325" y="-80" font-family="Helvetica,sans-Serif" font-size="10.00">_sel_info.h</text>
</a>
</g>
</g>
<!-- Node13&#45;&gt;Node29 -->
<g id="edge19" class="edge">
<title>Node13&#45;&gt;Node29</title>
<path fill="none" stroke="midnightblue" d="M1714.61,-159.79C1635.13,-152.55 1497.34,-137.06 1382,-109 1375.38,-107.39 1368.44,-105.31 1361.78,-103.1"/>
<polygon fill="midnightblue" stroke="midnightblue" points="1714.68,-163.31 1724.96,-160.72 1715.31,-156.34 1714.68,-163.31"/>
</g>
<!-- Node31 -->
<g id="node20" class="node">
<title>Node31</title>
<g id="a_node20"><a xlink:href="d__meter2_8h.html" target="_top" xlink:title=" ">
<polygon fill="white" stroke="red" points="1391,-78.5 1391,-97.5 1525,-97.5 1525,-78.5 1391,-78.5"/>
<text text-anchor="middle" x="1458" y="-85.5" font-family="Helvetica,sans-Serif" font-size="10.00">include/d/meter/d_meter2.h</text>
</a>
</g>
</g>
<!-- Node13&#45;&gt;Node31 -->
<g id="edge20" class="edge">
<title>Node13&#45;&gt;Node31</title>
<path fill="none" stroke="midnightblue" d="M1714.71,-150.76C1665.05,-139.78 1595.09,-123.99 1534,-109 1519.29,-105.39 1503.05,-101.15 1489.37,-97.51"/>
<polygon fill="midnightblue" stroke="midnightblue" points="1714.15,-154.22 1724.67,-152.96 1715.66,-147.39 1714.15,-154.22"/>
</g>
<!-- Node41 -->
<g id="node21" class="node">
<title>Node41</title>
<g id="a_node21"><a xlink:href="d__msg__object_8h.html" target="_top" xlink:title=" ">
<polygon fill="white" stroke="red" points="1543,-73 1543,-103 1653,-103 1653,-73 1543,-73"/>
<text text-anchor="start" x="1551" y="-91" font-family="Helvetica,sans-Serif" font-size="10.00">include/d/msg/d_msg</text>
<text text-anchor="middle" x="1598" y="-80" font-family="Helvetica,sans-Serif" font-size="10.00">_object.h</text>
</a>
</g>
</g>
<!-- Node13&#45;&gt;Node41 -->
<g id="edge21" class="edge">
<title>Node13&#45;&gt;Node41</title>
<path fill="none" stroke="midnightblue" d="M1736.59,-146.87C1704.42,-133.44 1661.2,-115.39 1631.63,-103.04"/>
<polygon fill="midnightblue" stroke="midnightblue" points="1735.62,-150.26 1746.19,-150.88 1738.31,-143.8 1735.62,-150.26"/>
</g>
<!-- Node45 -->
<g id="node22" class="node">
<title>Node45</title>
<g id="a_node22"><a xlink:href="d__s__logo_8h.html" target="_top" xlink:title=" ">
<polygon fill="white" stroke="red" points="1784.5,-78.5 1784.5,-97.5 1897.5,-97.5 1897.5,-78.5 1784.5,-78.5"/>
<text text-anchor="middle" x="1841" y="-85.5" font-family="Helvetica,sans-Serif" font-size="10.00">include/d/s/d_s_logo.h</text>
</a>
</g>
</g>
<!-- Node13&#45;&gt;Node45 -->
<g id="edge22" class="edge">
<title>Node13&#45;&gt;Node45</title>
<path fill="none" stroke="midnightblue" d="M1797.82,-142.79C1809.97,-127.66 1825.39,-108.45 1834.13,-97.56"/>
<polygon fill="midnightblue" stroke="midnightblue" points="1795,-140.72 1791.47,-150.7 1800.46,-145.1 1795,-140.72"/>
</g>
<!-- Node47 -->
<g id="node23" class="node">
<title>Node47</title>
<g id="a_node23"><a xlink:href="d__s__play_8h.html" target="_top" xlink:title=" ">
<polygon fill="white" stroke="red" points="1915.5,-78.5 1915.5,-97.5 2028.5,-97.5 2028.5,-78.5 1915.5,-78.5"/>
<text text-anchor="middle" x="1972" y="-85.5" font-family="Helvetica,sans-Serif" font-size="10.00">include/d/s/d_s_play.h</text>
</a>
</g>
</g>
<!-- Node13&#45;&gt;Node47 -->
<g id="edge23" class="edge">
<title>Node13&#45;&gt;Node47</title>
<path fill="none" stroke="midnightblue" d="M1825.31,-147.06C1864.7,-131.47 1920.06,-109.56 1950.26,-97.61"/>
<polygon fill="midnightblue" stroke="midnightblue" points="1823.67,-143.95 1815.66,-150.88 1826.25,-150.46 1823.67,-143.95"/>
</g>
<!-- Node50 -->
<g id="node24" class="node">
<title>Node50</title>
<g id="a_node24"><a xlink:href="d__a__tag__telop_8h.html" target="_top" xlink:title=" ">
<polygon fill="white" stroke="black" points="2047,-67.5 2047,-108.5 2165,-108.5 2165,-67.5 2047,-67.5"/>
<text text-anchor="start" x="2055" y="-96.5" font-family="Helvetica,sans-Serif" font-size="10.00">include/rel/d/a/tag</text>
<text text-anchor="start" x="2055" y="-85.5" font-family="Helvetica,sans-Serif" font-size="10.00">/d_a_tag_telop/d_a_tag</text>
<text text-anchor="middle" x="2106" y="-74.5" font-family="Helvetica,sans-Serif" font-size="10.00">_telop.h</text>
</a>
</g>
</g>
<!-- Node13&#45;&gt;Node50 -->
<g id="edge24" class="edge">
<title>Node13&#45;&gt;Node50</title>
<path fill="none" stroke="midnightblue" d="M1844.96,-152.26C1897.31,-141.66 1972.71,-125.67 2038,-109 2040.86,-108.27 2043.78,-107.5 2046.73,-106.71"/>
<polygon fill="midnightblue" stroke="midnightblue" points="1844.24,-148.83 1835.13,-154.24 1845.62,-155.69 1844.24,-148.83"/>
</g>
<!-- Node51 -->
<g id="node25" class="node">
<title>Node51</title>
<g id="a_node25"><a xlink:href="c__dylink_8cpp.html" target="_top" xlink:title=" ">
<polygon fill="white" stroke="black" points="2183.5,-78.5 2183.5,-97.5 2278.5,-97.5 2278.5,-78.5 2183.5,-78.5"/>
<text text-anchor="middle" x="2231" y="-85.5" font-family="Helvetica,sans-Serif" font-size="10.00">src/c/c_dylink.cpp</text>
</a>
</g>
</g>
<!-- Node13&#45;&gt;Node51 -->
<g id="edge25" class="edge">
<title>Node13&#45;&gt;Node51</title>
<path fill="none" stroke="midnightblue" d="M1845.4,-159.67C1924.18,-152.33 2060.14,-136.78 2174,-109 2186.12,-106.04 2199.29,-101.51 2209.92,-97.51"/>
<polygon fill="midnightblue" stroke="midnightblue" points="1844.78,-156.21 1835.14,-160.6 1845.42,-163.18 1844.78,-156.21"/>
</g>
<!-- Node34 -->
<g id="node26" class="node">
<title>Node34</title>
<g id="a_node26"><a xlink:href="d__a__alink_8cpp.html" target="_top" xlink:title=" ">
<polygon fill="white" stroke="black" points="2983.5,-78.5 2983.5,-97.5 3092.5,-97.5 3092.5,-78.5 2983.5,-78.5"/>
<text text-anchor="middle" x="3038" y="-85.5" font-family="Helvetica,sans-Serif" font-size="10.00">src/d/a/d_a_alink.cpp</text>
</a>
</g>
</g>
<!-- Node13&#45;&gt;Node34 -->
<g id="edge26" class="edge">
<title>Node13&#45;&gt;Node34</title>
<path fill="none" stroke="midnightblue" d="M1845.6,-164.13C2062.39,-160.91 2754.47,-147.79 2974,-109 2988.1,-106.51 3003.43,-101.79 3015.54,-97.57"/>
<polygon fill="midnightblue" stroke="midnightblue" points="1845.28,-160.64 1835.33,-164.28 1845.38,-167.63 1845.28,-160.64"/>
</g>
<!-- Node13&#45;&gt;Node52 -->
<g id="edge27" class="edge">
<title>Node13&#45;&gt;Node52</title>
<path fill="none" stroke="midnightblue" d="M1714.67,-164.38C1473.61,-161.77 634.33,-149.91 370,-109 354.03,-106.53 336.55,-101.81 322.7,-97.58"/>
<polygon fill="midnightblue" stroke="midnightblue" points="1714.65,-167.88 1724.69,-164.48 1714.72,-160.88 1714.65,-167.88"/>
</g>
<!-- Node53 -->
<g id="node28" class="node">
<title>Node53</title>
<g id="a_node28"><a xlink:href="d__a__player_8cpp.html" target="_top" xlink:title=" ">
<polygon fill="white" stroke="black" points="2851,-78.5 2851,-97.5 2965,-97.5 2965,-78.5 2851,-78.5"/>
<text text-anchor="middle" x="2908" y="-85.5" font-family="Helvetica,sans-Serif" font-size="10.00">src/d/a/d_a_player.cpp</text>
</a>
</g>
</g>
<!-- Node13&#45;&gt;Node53 -->
<g id="edge28" class="edge">
<title>Node13&#45;&gt;Node53</title>
<path fill="none" stroke="midnightblue" d="M1845.37,-163.62C2045.67,-159.06 2648.95,-142.83 2842,-109 2856.51,-106.46 2872.31,-101.74 2884.81,-97.53"/>
<polygon fill="midnightblue" stroke="midnightblue" points="1845.21,-160.12 1835.3,-163.85 1845.37,-167.12 1845.21,-160.12"/>
</g>
<!-- Node54 -->
<g id="node29" class="node">
<title>Node54</title>
<g id="a_node29"><a xlink:href="d__bg__s_8cpp.html" target="_top" xlink:title=" ">
<polygon fill="white" stroke="black" points="2595,-78.5 2595,-97.5 2699,-97.5 2699,-78.5 2595,-78.5"/>
<text text-anchor="middle" x="2647" y="-85.5" font-family="Helvetica,sans-Serif" font-size="10.00">src/d/bg/d_bg_s.cpp</text>
</a>
</g>
</g>
<!-- Node13&#45;&gt;Node54 -->
<g id="edge29" class="edge">
<title>Node13&#45;&gt;Node54</title>
<path fill="none" stroke="midnightblue" d="M1845.77,-165.37C1983.42,-165.05 2311.43,-158.62 2581,-109 2595.37,-106.36 2611.03,-101.69 2623.49,-97.53"/>
<polygon fill="midnightblue" stroke="midnightblue" points="1845.4,-161.87 1835.4,-165.38 1845.41,-168.87 1845.4,-161.87"/>
</g>
<!-- Node55 -->
<g id="node30" class="node">
<title>Node55</title>
<g id="a_node30"><a xlink:href="d__bg__s__movebg__actor_8cpp.html" target="_top" xlink:title=" ">
<polygon fill="white" stroke="black" points="519,-73 519,-103 645,-103 645,-73 519,-73"/>
<text text-anchor="start" x="527" y="-91" font-family="Helvetica,sans-Serif" font-size="10.00">src/d/bg/d_bg_s_movebg</text>
<text text-anchor="middle" x="582" y="-80" font-family="Helvetica,sans-Serif" font-size="10.00">_actor.cpp</text>
</a>
</g>
</g>
<!-- Node13&#45;&gt;Node55 -->
<g id="edge30" class="edge">
<title>Node13&#45;&gt;Node55</title>
<path fill="none" stroke="midnightblue" d="M1714.74,-163.62C1506.78,-158.92 861.27,-141.99 655,-109 645.92,-107.55 636.34,-105.39 627.23,-103.03"/>
<polygon fill="midnightblue" stroke="midnightblue" points="1714.82,-167.12 1724.89,-163.84 1714.97,-160.12 1714.82,-167.12"/>
</g>
<!-- Node56 -->
<g id="node31" class="node">
<title>Node56</title>
<g id="a_node31"><a xlink:href="d__bg__w_8cpp.html" target="_top" xlink:title=" ">
<polygon fill="white" stroke="black" points="663.5,-78.5 663.5,-97.5 770.5,-97.5 770.5,-78.5 663.5,-78.5"/>
<text text-anchor="middle" x="717" y="-85.5" font-family="Helvetica,sans-Serif" font-size="10.00">src/d/bg/d_bg_w.cpp</text>
</a>
</g>
</g>
<!-- Node13&#45;&gt;Node56 -->
<g id="edge31" class="edge">
<title>Node13&#45;&gt;Node56</title>
<path fill="none" stroke="midnightblue" d="M1714.79,-162.3C1507.42,-153.59 871.4,-125.79 780,-109 766.12,-106.45 751.03,-101.73 739.1,-97.52"/>
<polygon fill="midnightblue" stroke="midnightblue" points="1714.79,-165.8 1724.92,-162.73 1715.08,-158.81 1714.79,-165.8"/>
</g>
<!-- Node57 -->
<g id="node32" class="node">
<title>Node57</title>
<g id="a_node32"><a xlink:href="d__cc__s_8cpp.html" target="_top" xlink:title=" ">
<polygon fill="white" stroke="black" points="2297,-78.5 2297,-97.5 2401,-97.5 2401,-78.5 2297,-78.5"/>
<text text-anchor="middle" x="2349" y="-85.5" font-family="Helvetica,sans-Serif" font-size="10.00">src/d/cc/d_cc_s.cpp</text>
</a>
</g>
</g>
<!-- Node13&#45;&gt;Node57 -->
<g id="edge32" class="edge">
<title>Node13&#45;&gt;Node57</title>
<path fill="none" stroke="midnightblue" d="M1845.38,-162.12C1942.78,-156.86 2131.33,-142.94 2288,-109 2301.07,-106.17 2315.29,-101.6 2326.71,-97.54"/>
<polygon fill="midnightblue" stroke="midnightblue" points="1844.9,-158.64 1835.1,-162.66 1845.27,-165.63 1844.9,-158.64"/>
</g>
<!-- Node13&#45;&gt;Node65 -->
<g id="edge34" class="edge">
<title>Node13&#45;&gt;Node65</title>
<path fill="none" stroke="midnightblue" d="M1714.84,-164.14C1489.72,-160.86 745.59,-147.31 510,-109 494.66,-106.51 477.9,-101.79 464.62,-97.57"/>
<polygon fill="midnightblue" stroke="midnightblue" points="1714.8,-167.64 1724.85,-164.29 1714.9,-160.64 1714.8,-167.64"/>
</g>
<!-- Node39 -->
<g id="node34" class="node">
<title>Node39</title>
<g id="a_node34"><a xlink:href="d__save_8cpp.html" target="_top" xlink:title=" ">
<polygon fill="white" stroke="black" points="2717.5,-78.5 2717.5,-97.5 2832.5,-97.5 2832.5,-78.5 2717.5,-78.5"/>
<text text-anchor="middle" x="2775" y="-85.5" font-family="Helvetica,sans-Serif" font-size="10.00">src/d/save/d_save.cpp</text>
</a>
</g>
</g>
<!-- Node13&#45;&gt;Node39 -->
<g id="edge35" class="edge">
<title>Node13&#45;&gt;Node39</title>
<path fill="none" stroke="midnightblue" d="M1845.38,-163.01C2028.16,-157.13 2541.86,-138.41 2708,-109 2722.58,-106.42 2738.48,-101.76 2751.13,-97.58"/>
<polygon fill="midnightblue" stroke="midnightblue" points="1845,-159.52 1835.12,-163.34 1845.23,-166.52 1845,-159.52"/>
</g>
<!-- Node14&#45;&gt;Node7 -->
<g id="edge12" class="edge">
<title>Node14&#45;&gt;Node7</title>
<path fill="none" stroke="midnightblue" d="M809.13,-75.36C799.73,-72.43 789.53,-69.42 780,-67 712.65,-49.86 634.05,-35.07 582.11,-26"/>
<polygon fill="midnightblue" stroke="midnightblue" points="808.36,-78.79 818.95,-78.49 810.48,-72.12 808.36,-78.79"/>
</g>
<!-- Node18&#45;&gt;Node19 -->
<g id="edge15" class="edge">
<title>Node18&#45;&gt;Node19</title>
<path fill="none" stroke="midnightblue" d="M1749.57,-75.01C1758.03,-72.04 1767.28,-69.11 1776,-67 1885.4,-40.56 2016.73,-26.67 2088.88,-20.53"/>
<polygon fill="midnightblue" stroke="midnightblue" points="1748.28,-71.75 1740.08,-78.47 1750.67,-78.33 1748.28,-71.75"/>
</g>
<!-- Node80&#45;&gt;Node56 -->
<g id="edge50" class="edge">
<title>Node80&#45;&gt;Node56</title>
<path fill="none" stroke="midnightblue" d="M2105.31,-361.86C1903.72,-332.09 1283.65,-235.94 780,-109 767.2,-105.77 753.19,-101.41 741.64,-97.58"/>
<polygon fill="midnightblue" stroke="midnightblue" points="2105.04,-365.36 2115.44,-363.35 2106.06,-358.43 2105.04,-365.36"/>
</g>
<!-- Node81 -->
<g id="node36" class="node">
<title>Node81</title>
<g id="a_node36"><a xlink:href="d__bg__s_8h.html" target="_top" xlink:title=" ">
<polygon fill="white" stroke="black" points="2285.5,-296 2285.5,-315 2396.5,-315 2396.5,-296 2285.5,-296"/>
<text text-anchor="middle" x="2341" y="-303" font-family="Helvetica,sans-Serif" font-size="10.00">include/d/bg/d_bg_s.h</text>
</a>
</g>
</g>
<!-- Node80&#45;&gt;Node81 -->
<g id="edge39" class="edge">
<title>Node80&#45;&gt;Node81</title>
<path fill="none" stroke="midnightblue" d="M2203.8,-359.27C2237.34,-346.37 2289.32,-326.38 2318.73,-315.06"/>
<polygon fill="midnightblue" stroke="midnightblue" points="2202.52,-356.01 2194.44,-362.87 2205.03,-362.55 2202.52,-356.01"/>
</g>
<!-- Node87 -->
<g id="node40" class="node">
<title>Node87</title>
<g id="a_node40"><a xlink:href="d__bg__s__movebg__actor_8h.html" target="_top" xlink:title=" ">
<polygon fill="white" stroke="black" points="812,-290.5 812,-320.5 916,-320.5 916,-290.5 812,-290.5"/>
<text text-anchor="start" x="820" y="-308.5" font-family="Helvetica,sans-Serif" font-size="10.00">include/d/bg/d_bg_s</text>
<text text-anchor="middle" x="864" y="-297.5" font-family="Helvetica,sans-Serif" font-size="10.00">_movebg_actor.h</text>
</a>
</g>
</g>
<!-- Node80&#45;&gt;Node87 -->
<g id="edge48" class="edge">
<title>Node80&#45;&gt;Node87</title>
<path fill="none" stroke="midnightblue" d="M2105.17,-368.18C1875.6,-356.77 1122.11,-319.33 916.33,-309.1"/>
<polygon fill="midnightblue" stroke="midnightblue" points="2105.22,-371.69 2115.38,-368.69 2105.56,-364.69 2105.22,-371.69"/>
</g>
<!-- Node81&#45;&gt;Node13 -->
<g id="edge43" class="edge">
<title>Node81&#45;&gt;Node13</title>
<path fill="none" stroke="midnightblue" d="M2295.94,-293.46C2194.1,-268.5 1946.44,-207.79 1835.43,-180.59"/>
<polygon fill="midnightblue" stroke="midnightblue" points="2295.36,-296.92 2305.91,-295.9 2297.03,-290.12 2295.36,-296.92"/>
</g>
<!-- Node81&#45;&gt;Node54 -->
<g id="edge46" class="edge">
<title>Node81&#45;&gt;Node54</title>
<path fill="none" stroke="midnightblue" d="M2354.59,-287.78C2369.29,-270.31 2394.02,-242.77 2419,-223 2490.65,-166.31 2588.68,-116.78 2628.78,-97.54"/>
<polygon fill="midnightblue" stroke="midnightblue" points="2351.54,-285.96 2347.86,-295.89 2356.93,-290.43 2351.54,-285.96"/>
</g>
<!-- Node33 -->
<g id="node37" class="node">
<title>Node33</title>
<g id="a_node37"><a xlink:href="d__a__alink_8h.html" target="_top" xlink:title=" ">
<polygon fill="white" stroke="black" points="2502,-229 2502,-248 2618,-248 2618,-229 2502,-229"/>
<text text-anchor="middle" x="2560" y="-236" font-family="Helvetica,sans-Serif" font-size="10.00">include/d/a/d_a_alink.h</text>
</a>
</g>
</g>
<!-- Node81&#45;&gt;Node33 -->
<g id="edge40" class="edge">
<title>Node81&#45;&gt;Node33</title>
<path fill="none" stroke="midnightblue" d="M2379.71,-293.01C2423.06,-280.15 2492.3,-259.59 2531.15,-248.06"/>
<polygon fill="midnightblue" stroke="midnightblue" points="2378.67,-289.67 2370.08,-295.87 2380.66,-296.38 2378.67,-289.67"/>
</g>
<!-- Node82 -->
<g id="node38" class="node">
<title>Node82</title>
<g id="a_node38"><a xlink:href="d__a__horse_8h.html" target="_top" xlink:title=" ">
<polygon fill="white" stroke="red" points="2859.5,-151 2859.5,-181 2960.5,-181 2960.5,-151 2859.5,-151"/>
<text text-anchor="start" x="2867.5" y="-169" font-family="Helvetica,sans-Serif" font-size="10.00">include/rel/d/a/d_a</text>
<text text-anchor="middle" x="2910" y="-158" font-family="Helvetica,sans-Serif" font-size="10.00">_horse/d_a_horse.h</text>
</a>
</g>
</g>
<!-- Node81&#45;&gt;Node82 -->
<g id="edge44" class="edge">
<title>Node81&#45;&gt;Node82</title>
<path fill="none" stroke="midnightblue" d="M2361.91,-289.97C2390.22,-271.1 2442.95,-238.73 2493,-223 2624.06,-181.82 2664.13,-207.3 2800,-187 2819.49,-184.09 2840.81,-180.34 2859.46,-176.88"/>
<polygon fill="midnightblue" stroke="midnightblue" points="2359.61,-287.3 2353.29,-295.8 2363.53,-293.1 2359.61,-287.3"/>
</g>
<!-- Node81&#45;&gt;Node86 -->
<g id="edge47" class="edge">
<title>Node81&#45;&gt;Node86</title>
<path fill="none" stroke="midnightblue" d="M2385.46,-293.84C2392.31,-292.41 2399.33,-291.07 2406,-290 2563.42,-264.7 2750.51,-249.99 2847.45,-243.5"/>
<polygon fill="midnightblue" stroke="midnightblue" points="2384.63,-290.44 2375.6,-295.97 2386.11,-297.28 2384.63,-290.44"/>
</g>
<!-- Node33&#45;&gt;Node13 -->
<g id="edge41" class="edge">
<title>Node33&#45;&gt;Node13</title>
<path fill="none" stroke="midnightblue" d="M2491.53,-231.31C2339.09,-217.53 1974.26,-184.56 1835.16,-171.99"/>
<polygon fill="midnightblue" stroke="midnightblue" points="2491.42,-234.82 2501.69,-232.23 2492.05,-227.84 2491.42,-234.82"/>
</g>
<!-- Node33&#45;&gt;Node34 -->
<g id="edge42" class="edge">
<title>Node33&#45;&gt;Node34</title>
<path fill="none" stroke="midnightblue" d="M2628.16,-235.77C2729.5,-232.09 2913.99,-220.83 2970,-187 3005.63,-165.48 3027.23,-117.34 3034.87,-97.65"/>
<polygon fill="midnightblue" stroke="midnightblue" points="2627.89,-232.28 2618.02,-236.12 2628.14,-239.27 2627.89,-232.28"/>
</g>
<!-- Node82&#45;&gt;Node34 -->
<g id="edge45" class="edge">
<title>Node82&#45;&gt;Node34</title>
<path fill="none" stroke="midnightblue" d="M2942.57,-145.66C2968.64,-130.18 3003.97,-109.2 3023.51,-97.61"/>
<polygon fill="midnightblue" stroke="midnightblue" points="2940.59,-142.77 2933.78,-150.88 2944.16,-148.79 2940.59,-142.77"/>
</g>
<!-- Node87&#45;&gt;Node55 -->
<g id="edge49" class="edge">
<title>Node87&#45;&gt;Node55</title>
<path fill="none" stroke="midnightblue" d="M837.38,-284.16C780.69,-240.83 649.25,-140.39 600.57,-103.19"/>
<polygon fill="midnightblue" stroke="midnightblue" points="835.43,-287.07 845.5,-290.36 839.68,-281.51 835.43,-287.07"/>
</g>
<!-- Node88&#45;&gt;Node80 -->
<g id="edge52" class="edge">
<title>Node88&#45;&gt;Node80</title>
<path fill="none" stroke="midnightblue" d="M2358.06,-422.07C2309.3,-409.34 2243.71,-392.22 2204.84,-382.07"/>
<polygon fill="midnightblue" stroke="midnightblue" points="2357.33,-425.5 2367.89,-424.64 2359.1,-418.72 2357.33,-425.5"/>
</g>
<!-- Node89 -->
<g id="node42" class="node">
<title>Node89</title>
<g id="a_node42"><a xlink:href="d__bg__w__kcol_8h.html" target="_top" xlink:title=" ">
<polygon fill="white" stroke="black" points="2437,-357.5 2437,-387.5 2543,-387.5 2543,-357.5 2437,-357.5"/>
<text text-anchor="start" x="2445" y="-375.5" font-family="Helvetica,sans-Serif" font-size="10.00">include/d/bg/d_bg_w</text>
<text text-anchor="middle" x="2490" y="-364.5" font-family="Helvetica,sans-Serif" font-size="10.00">_kcol.h</text>
</a>
</g>
</g>
<!-- Node88&#45;&gt;Node89 -->
<g id="edge53" class="edge">
<title>Node88&#45;&gt;Node89</title>
<path fill="none" stroke="midnightblue" d="M2443.49,-417.31C2453.84,-407.56 2465.84,-396.26 2475.06,-387.58"/>
<polygon fill="midnightblue" stroke="midnightblue" points="2440.85,-414.99 2435.97,-424.4 2445.65,-420.09 2440.85,-414.99"/>
</g>
<!-- Node91 -->
<g id="node44" class="node">
<title>Node91</title>
<g id="a_node44"><a xlink:href="d__bg__w__base_8cpp.html" target="_top" xlink:title=" ">
<polygon fill="white" stroke="black" points="2285.5,-363 2285.5,-382 2418.5,-382 2418.5,-363 2285.5,-363"/>
<text text-anchor="middle" x="2352" y="-370" font-family="Helvetica,sans-Serif" font-size="10.00">src/d/bg/d_bg_w_base.cpp</text>
</a>
</g>
</g>
<!-- Node88&#45;&gt;Node91 -->
<g id="edge55" class="edge">
<title>Node88&#45;&gt;Node91</title>
<path fill="none" stroke="midnightblue" d="M2398.53,-417.34C2385.86,-405.4 2370.72,-391.14 2361.23,-382.19"/>
<polygon fill="midnightblue" stroke="midnightblue" points="2396.35,-420.09 2406.03,-424.4 2401.15,-414.99 2396.35,-420.09"/>
</g>
<!-- Node90 -->
<g id="node43" class="node">
<title>Node90</title>
<g id="a_node43"><a xlink:href="d__bg__w__kcol_8cpp.html" target="_top" xlink:title=" ">
<polygon fill="white" stroke="black" points="2415,-296 2415,-315 2545,-315 2545,-296 2415,-296"/>
<text text-anchor="middle" x="2480" y="-303" font-family="Helvetica,sans-Serif" font-size="10.00">src/d/bg/d_bg_w_kcol.cpp</text>
</a>
</g>
</g>
<!-- Node89&#45;&gt;Node90 -->
<g id="edge54" class="edge">
<title>Node89&#45;&gt;Node90</title>
<path fill="none" stroke="midnightblue" d="M2486.27,-347.25C2484.54,-336.02 2482.6,-323.38 2481.34,-315.19"/>
<polygon fill="midnightblue" stroke="midnightblue" points="2482.85,-348.04 2487.83,-357.4 2489.77,-346.98 2482.85,-348.04"/>
</g>
<!-- Node92&#45;&gt;Node34 -->
<g id="edge57" class="edge">
<title>Node92&#45;&gt;Node34</title>
<path fill="none" stroke="midnightblue" d="M3012.18,-423.66C3023.17,-414.55 3036.1,-401.97 3044,-388 3062.3,-355.62 3063,-343.69 3063,-306.5 3063,-306.5 3063,-306.5 3063,-237.5 3063,-183.64 3046.81,-120.31 3040.49,-97.62"/>
<polygon fill="midnightblue" stroke="midnightblue" points="3009.95,-420.97 3004.27,-429.92 3014.29,-426.46 3009.95,-420.97"/>
</g>
<!-- Node93 -->
<g id="node46" class="node">
<title>Node93</title>
<g id="a_node46"><a xlink:href="d__bomb_8cpp.html" target="_top" xlink:title=" ">
<polygon fill="white" stroke="black" points="2941,-363 2941,-382 3035,-382 3035,-363 2941,-363"/>
<text text-anchor="middle" x="2988" y="-370" font-family="Helvetica,sans-Serif" font-size="10.00">src/d/d_bomb.cpp</text>
</a>
</g>
</g>
<!-- Node92&#45;&gt;Node93 -->
<g id="edge58" class="edge">
<title>Node92&#45;&gt;Node93</title>
<path fill="none" stroke="midnightblue" d="M2990.83,-419.54C2990.07,-407.17 2989.12,-391.62 2988.53,-382.13"/>
<polygon fill="midnightblue" stroke="midnightblue" points="2987.35,-419.97 2991.46,-429.73 2994.34,-419.54 2987.35,-419.97"/>
</g>
<!-- Node94&#45;&gt;Node33 -->
<g id="edge60" class="edge">
<title>Node94&#45;&gt;Node33</title>
<path fill="none" stroke="midnightblue" d="M2603.51,-415.52C2599.01,-407.09 2594.3,-397.32 2591,-388 2572.79,-336.61 2563.76,-271.24 2560.97,-248.09"/>
<polygon fill="midnightblue" stroke="midnightblue" points="2600.51,-417.33 2608.42,-424.38 2606.63,-413.94 2600.51,-417.33"/>
</g>
<!-- Node94&#45;&gt;Node95 -->
<g id="edge61" class="edge">
<title>Node94&#45;&gt;Node95</title>
<path fill="none" stroke="midnightblue" d="M2668.96,-421.09C2700.27,-410.6 2739.64,-397.41 2768.99,-387.58"/>
<polygon fill="midnightblue" stroke="midnightblue" points="2667.47,-417.9 2659.1,-424.4 2669.69,-424.54 2667.47,-417.9"/>
</g>
<!-- Node96 -->
<g id="node49" class="node">
<title>Node96</title>
<g id="a_node49"><a xlink:href="d__particle__copoly_8cpp.html" target="_top" xlink:title=" ">
<polygon fill="white" stroke="black" points="2600,-357.5 2600,-387.5 2718,-387.5 2718,-357.5 2600,-357.5"/>
<text text-anchor="start" x="2608" y="-375.5" font-family="Helvetica,sans-Serif" font-size="10.00">src/d/particle/d_particle</text>
<text text-anchor="middle" x="2659" y="-364.5" font-family="Helvetica,sans-Serif" font-size="10.00">_copoly.cpp</text>
</a>
</g>
</g>
<!-- Node94&#45;&gt;Node96 -->
<g id="edge63" class="edge">
<title>Node94&#45;&gt;Node96</title>
<path fill="none" stroke="midnightblue" d="M2631.62,-415.87C2637.7,-406.46 2644.57,-395.83 2649.9,-387.58"/>
<polygon fill="midnightblue" stroke="midnightblue" points="2628.6,-414.1 2626.11,-424.4 2634.48,-417.9 2628.6,-414.1"/>
</g>
<!-- Node95&#45;&gt;Node53 -->
<g id="edge62" class="edge">
<title>Node95&#45;&gt;Node53</title>
<path fill="none" stroke="midnightblue" d="M2810.56,-347.15C2810.77,-303.9 2815.75,-211.96 2851,-145 2861.6,-124.87 2882.01,-107.55 2895.31,-97.7"/>
<polygon fill="midnightblue" stroke="midnightblue" points="2807.06,-347.3 2810.6,-357.28 2814.06,-347.27 2807.06,-347.3"/>
</g>
<!-- Node97&#45;&gt;Node34 -->
<g id="edge66" class="edge">
<title>Node97&#45;&gt;Node34</title>
<path fill="none" stroke="midnightblue" d="M2801.31,-150.55C2849.74,-139.96 2916.15,-124.74 2974,-109 2986.69,-105.55 3000.65,-101.25 3012.28,-97.52"/>
<polygon fill="midnightblue" stroke="midnightblue" points="2800.28,-147.19 2791.25,-152.74 2801.77,-154.03 2800.28,-147.19"/>
</g>
<!-- Node97&#45;&gt;Node39 -->
<g id="edge67" class="edge">
<title>Node97&#45;&gt;Node39</title>
<path fill="none" stroke="midnightblue" d="M2748.67,-136.65C2756.35,-122.75 2765.05,-107.01 2770.27,-97.55"/>
<polygon fill="midnightblue" stroke="midnightblue" points="2745.59,-134.98 2743.82,-145.43 2751.72,-138.37 2745.59,-134.98"/>
</g>
</g>
</svg>
