<?xml version="1.0" encoding="UTF-8" standalone="no"?>
<!DOCTYPE svg PUBLIC "-//W3C//DTD SVG 1.1//EN"
 "http://www.w3.org/Graphics/SVG/1.1/DTD/svg11.dtd">
<!-- Generated by graphviz version 9.0.0 (20230911.1827)
 -->
<!-- Title: include/d/bg/d_bg_s.h Pages: 1 -->
<svg width="496pt" height="381pt"
 viewBox="0.00 0.00 495.75 381.25" xmlns="http://www.w3.org/2000/svg" xmlns:xlink="http://www.w3.org/1999/xlink">
<g id="graph0" class="graph" transform="scale(1 1) rotate(0) translate(4 377.25)">
<title>include/d/bg/d_bg_s.h</title>
<!-- Node1 -->
<g id="Node000001" class="node">
<title>Node1</title>
<g id="a_Node000001"><a xlink:title=" ">
<polygon fill="#999999" stroke="#666666" points="487.75,-373.25 377.25,-373.25 377.25,-354 487.75,-354 487.75,-373.25"/>
<text text-anchor="middle" x="432.5" y="-359.75" font-family="Helvetica,sans-Serif" font-size="10.00">include/d/bg/d_bg_s.h</text>
</a>
</g>
</g>
<!-- Node2 -->
<g id="Node000002" class="node">
<title>Node2</title>
<g id="a_Node000002"><a xlink:href="d__bg__w__base_8h.html" target="_top" xlink:title=" ">
<polygon fill="white" stroke="#666666" points="359.12,-318 253.88,-318 253.88,-298.75 359.12,-298.75 359.12,-318"/>
<text text-anchor="middle" x="306.5" y="-304.5" font-family="Helvetica,sans-Serif" font-size="10.00">d/bg/d_bg_w_base.h</text>
</a>
</g>
</g>
<!-- Node1&#45;&gt;Node2 -->
<g id="edge1_Node000001_Node000002" class="edge">
<title>Node1&#45;&gt;Node2</title>
<g id="a_edge1_Node000001_Node000002"><a xlink:title=" ">
<path fill="none" stroke="#63b8ff" d="M411.13,-353.59C391.21,-345.18 361.26,-332.52 338.5,-322.9"/>
<polygon fill="#63b8ff" stroke="#63b8ff" points="339.95,-319.71 329.37,-319.04 337.22,-326.16 339.95,-319.71"/>
</a>
</g>
</g>
<!-- Node4 -->
<g id="Node000004" class="node">
<title>Node4</title>
<g id="a_Node000004"><a xlink:href="types_8h.html" target="_top" xlink:title=" ">
<polygon fill="white" stroke="#666666" points="418.75,-74.5 338.25,-74.5 338.25,-55.25 418.75,-55.25 418.75,-74.5"/>
<text text-anchor="middle" x="378.5" y="-61" font-family="Helvetica,sans-Serif" font-size="10.00">dolphin/types.h</text>
</a>
</g>
</g>
<!-- Node1&#45;&gt;Node4 -->
<g id="edge18_Node000001_Node000004" class="edge">
<title>Node1&#45;&gt;Node4</title>
<g id="a_edge18_Node000001_Node000004"><a xlink:title=" ">
<path fill="none" stroke="#63b8ff" d="M440.63,-353.69C448.05,-345.1 458.85,-331.48 465.5,-318 479.73,-289.18 485.5,-280.64 485.5,-248.5 485.5,-248.5 485.5,-248.5 485.5,-180 485.5,-133.93 438.51,-98.8 406.81,-80.35"/>
<polygon fill="#63b8ff" stroke="#63b8ff" points="408.9,-77.5 398.46,-75.68 405.49,-83.61 408.9,-77.5"/>
</a>
</g>
</g>
<!-- Node14 -->
<g id="Node000014" class="node">
<title>Node14</title>
<g id="a_Node000014"><a xlink:href="global_8h.html" target="_top" xlink:title=" ">
<polygon fill="white" stroke="#666666" points="457,-318 408,-318 408,-298.75 457,-298.75 457,-318"/>
<text text-anchor="middle" x="432.5" y="-304.5" font-family="Helvetica,sans-Serif" font-size="10.00">global.h</text>
</a>
</g>
</g>
<!-- Node1&#45;&gt;Node14 -->
<g id="edge19_Node000001_Node000014" class="edge">
<title>Node1&#45;&gt;Node14</title>
<g id="a_edge19_Node000001_Node000014"><a xlink:title=" ">
<path fill="none" stroke="#63b8ff" d="M432.5,-353.83C432.5,-347.32 432.5,-338.17 432.5,-329.87"/>
<polygon fill="#63b8ff" stroke="#63b8ff" points="436,-329.87 432.5,-319.87 429,-329.87 436,-329.87"/>
</a>
</g>
</g>
<!-- Node3 -->
<g id="Node000003" class="node">
<title>Node3</title>
<g id="a_Node000003"><a xlink:href="c__bg__s__poly__info_8h.html" target="_top" xlink:title=" ">
<polygon fill="white" stroke="#666666" points="381,-196.25 266,-196.25 266,-165.75 381,-165.75 381,-196.25"/>
<text text-anchor="start" x="274" y="-182.75" font-family="Helvetica,sans-Serif" font-size="10.00">SSystem/SComponent</text>
<text text-anchor="middle" x="323.5" y="-171.5" font-family="Helvetica,sans-Serif" font-size="10.00">/c_bg_s_poly_info.h</text>
</a>
</g>
</g>
<!-- Node2&#45;&gt;Node3 -->
<g id="edge2_Node000002_Node000003" class="edge">
<title>Node2&#45;&gt;Node3</title>
<g id="a_edge2_Node000002_Node000003"><a xlink:title=" ">
<path fill="none" stroke="#63b8ff" d="M302.69,-298.46C297.16,-284.26 288.21,-255.72 294.5,-232.25 296.93,-223.18 301.43,-214.06 306.17,-206.12"/>
<polygon fill="#63b8ff" stroke="#63b8ff" points="309.1,-208.05 311.58,-197.75 303.22,-204.25 309.1,-208.05"/>
</a>
</g>
</g>
<!-- Node6 -->
<g id="Node000006" class="node">
<title>Node6</title>
<g id="a_Node000006"><a xlink:href="c__bg__w_8h.html" target="_top" xlink:title=" ">
<polygon fill="white" stroke="#666666" points="419,-262.75 304,-262.75 304,-232.25 419,-232.25 419,-262.75"/>
<text text-anchor="start" x="312" y="-249.25" font-family="Helvetica,sans-Serif" font-size="10.00">SSystem/SComponent</text>
<text text-anchor="middle" x="361.5" y="-238" font-family="Helvetica,sans-Serif" font-size="10.00">/c_bg_w.h</text>
</a>
</g>
</g>
<!-- Node2&#45;&gt;Node6 -->
<g id="edge5_Node000002_Node000006" class="edge">
<title>Node2&#45;&gt;Node6</title>
<g id="a_edge5_Node000002_Node000006"><a xlink:title=" ">
<path fill="none" stroke="#63b8ff" d="M314.85,-298.43C321.57,-291.24 331.32,-280.81 340.16,-271.34"/>
<polygon fill="#63b8ff" stroke="#63b8ff" points="342.62,-273.83 346.89,-264.14 337.51,-269.06 342.62,-273.83"/>
</a>
</g>
</g>
<!-- Node7 -->
<g id="Node000007" class="node">
<title>Node7</title>
<g id="a_Node000007"><a xlink:href="c__m3d__g__pla_8h.html" target="_top" xlink:title=" ">
<polygon fill="white" stroke="#666666" points="247,-262.75 132,-262.75 132,-232.25 247,-232.25 247,-262.75"/>
<text text-anchor="start" x="140" y="-249.25" font-family="Helvetica,sans-Serif" font-size="10.00">SSystem/SComponent</text>
<text text-anchor="middle" x="189.5" y="-238" font-family="Helvetica,sans-Serif" font-size="10.00">/c_m3d_g_pla.h</text>
</a>
</g>
</g>
<!-- Node2&#45;&gt;Node7 -->
<g id="edge7_Node000002_Node000007" class="edge">
<title>Node2&#45;&gt;Node7</title>
<g id="a_edge7_Node000002_Node000007"><a xlink:title=" ">
<path fill="none" stroke="#63b8ff" d="M288.48,-298.3C272.65,-290.34 249.06,-278.47 228.88,-268.32"/>
<polygon fill="#63b8ff" stroke="#63b8ff" points="230.56,-265.24 220.05,-263.88 227.41,-271.5 230.56,-265.24"/>
</a>
</g>
</g>
<!-- Node3&#45;&gt;Node4 -->
<g id="edge3_Node000003_Node000004" class="edge">
<title>Node3&#45;&gt;Node4</title>
<g id="a_edge3_Node000003_Node000004"><a xlink:title=" ">
<path fill="none" stroke="#63b8ff" d="M330.47,-165.55C340.31,-145.12 358.3,-107.79 369.25,-85.06"/>
<polygon fill="#63b8ff" stroke="#63b8ff" points="372.28,-86.84 373.47,-76.31 365.98,-83.8 372.28,-86.84"/>
</a>
</g>
</g>
<!-- Node5 -->
<g id="Node000005" class="node">
<title>Node5</title>
<g id="a_Node000005"><a xlink:href="stddef_8h.html" target="_top" xlink:title=" ">
<polygon fill="white" stroke="#666666" points="403.75,-19.25 353.25,-19.25 353.25,0 403.75,0 403.75,-19.25"/>
<text text-anchor="middle" x="378.5" y="-5.75" font-family="Helvetica,sans-Serif" font-size="10.00">stddef.h</text>
</a>
</g>
</g>
<!-- Node4&#45;&gt;Node5 -->
<g id="edge4_Node000004_Node000005" class="edge">
<title>Node4&#45;&gt;Node5</title>
<g id="a_edge4_Node000004_Node000005"><a xlink:title=" ">
<path fill="none" stroke="#63b8ff" d="M378.5,-55.08C378.5,-48.57 378.5,-39.42 378.5,-31.12"/>
<polygon fill="#63b8ff" stroke="#63b8ff" points="382,-31.12 378.5,-21.12 375,-31.12 382,-31.12"/>
</a>
</g>
</g>
<!-- Node6&#45;&gt;Node4 -->
<g id="edge6_Node000006_Node000004" class="edge">
<title>Node6&#45;&gt;Node4</title>
<g id="a_edge6_Node000006_Node000004"><a xlink:title=" ">
<path fill="none" stroke="#63b8ff" d="M372.22,-231.97C378.62,-222.36 386.13,-209.2 389.5,-196.25 399.42,-158.09 390.83,-111.73 384.27,-85.84"/>
<polygon fill="#63b8ff" stroke="#63b8ff" points="387.69,-85.1 381.7,-76.36 380.94,-86.93 387.69,-85.1"/>
</a>
</g>
</g>
<!-- Node8 -->
<g id="Node000008" class="node">
<title>Node8</title>
<g id="a_Node000008"><a xlink:href="c__xyz_8h.html" target="_top" xlink:title=" ">
<polygon fill="white" stroke="#666666" points="115,-196.25 0,-196.25 0,-165.75 115,-165.75 115,-196.25"/>
<text text-anchor="start" x="8" y="-182.75" font-family="Helvetica,sans-Serif" font-size="10.00">SSystem/SComponent</text>
<text text-anchor="middle" x="57.5" y="-171.5" font-family="Helvetica,sans-Serif" font-size="10.00">/c_xyz.h</text>
</a>
</g>
</g>
<!-- Node7&#45;&gt;Node8 -->
<g id="edge8_Node000007_Node000008" class="edge">
<title>Node7&#45;&gt;Node8</title>
<g id="a_edge8_Node000007_Node000008"><a xlink:title=" ">
<path fill="none" stroke="#63b8ff" d="M159.55,-231.86C141.24,-222.92 117.58,-211.36 97.66,-201.62"/>
<polygon fill="#63b8ff" stroke="#63b8ff" points="99.22,-198.49 88.69,-197.24 96.14,-204.78 99.22,-198.49"/>
</a>
</g>
</g>
<!-- Node13 -->
<g id="Node000013" class="node">
<title>Node13</title>
<g id="a_Node000013"><a xlink:href="c__m3d_8h.html" target="_top" xlink:title=" ">
<polygon fill="white" stroke="#666666" points="248,-196.25 133,-196.25 133,-165.75 248,-165.75 248,-196.25"/>
<text text-anchor="start" x="141" y="-182.75" font-family="Helvetica,sans-Serif" font-size="10.00">SSystem/SComponent</text>
<text text-anchor="middle" x="190.5" y="-171.5" font-family="Helvetica,sans-Serif" font-size="10.00">/c_m3d.h</text>
</a>
</g>
</g>
<!-- Node7&#45;&gt;Node13 -->
<g id="edge14_Node000007_Node000013" class="edge">
<title>Node7&#45;&gt;Node13</title>
<g id="a_edge14_Node000007_Node000013"><a xlink:title=" ">
<path fill="none" stroke="#63b8ff" d="M189.73,-231.86C189.84,-224.77 189.97,-216.04 190.1,-207.88"/>
<polygon fill="#63b8ff" stroke="#63b8ff" points="193.59,-208.14 190.25,-198.09 186.6,-208.04 193.59,-208.14"/>
</a>
</g>
</g>
<!-- Node9 -->
<g id="Node000009" class="node">
<title>Node9</title>
<g id="a_Node000009"><a xlink:href="math_8h.html" target="_top" xlink:title=" ">
<polygon fill="white" stroke="#666666" points="103.12,-129.75 57.88,-129.75 57.88,-110.5 103.12,-110.5 103.12,-129.75"/>
<text text-anchor="middle" x="80.5" y="-116.25" font-family="Helvetica,sans-Serif" font-size="10.00">math.h</text>
</a>
</g>
</g>
<!-- Node8&#45;&gt;Node9 -->
<g id="edge9_Node000008_Node000009" class="edge">
<title>Node8&#45;&gt;Node9</title>
<g id="a_edge9_Node000008_Node000009"><a xlink:title=" ">
<path fill="none" stroke="#63b8ff" d="M63.19,-165.45C66.08,-158.03 69.64,-148.91 72.78,-140.88"/>
<polygon fill="#63b8ff" stroke="#63b8ff" points="76.02,-142.2 76.4,-131.61 69.5,-139.65 76.02,-142.2"/>
</a>
</g>
</g>
<!-- Node12 -->
<g id="Node000012" class="node">
<title>Node12</title>
<g id="a_Node000012"><a xlink:href="vec_8h.html" target="_top" xlink:title=" ">
<polygon fill="white" stroke="#666666" points="236.38,-129.75 144.62,-129.75 144.62,-110.5 236.38,-110.5 236.38,-129.75"/>
<text text-anchor="middle" x="190.5" y="-116.25" font-family="Helvetica,sans-Serif" font-size="10.00">dolphin/mtx/vec.h</text>
</a>
</g>
</g>
<!-- Node8&#45;&gt;Node12 -->
<g id="edge12_Node000008_Node000012" class="edge">
<title>Node8&#45;&gt;Node12</title>
<g id="a_edge12_Node000008_Node000012"><a xlink:title=" ">
<path fill="none" stroke="#63b8ff" d="M90.72,-165.3C111.85,-155.94 139.02,-143.91 159.67,-134.77"/>
<polygon fill="#63b8ff" stroke="#63b8ff" points="160.99,-138.01 168.72,-130.77 158.16,-131.61 160.99,-138.01"/>
</a>
</g>
</g>
<!-- Node10 -->
<g id="Node000010" class="node">
<title>Node10</title>
<g id="a_Node000010"><a xlink:href="float_8h.html" target="_top" xlink:title=" ">
<polygon fill="white" stroke="#666666" points="101.25,-74.5 59.75,-74.5 59.75,-55.25 101.25,-55.25 101.25,-74.5"/>
<text text-anchor="middle" x="80.5" y="-61" font-family="Helvetica,sans-Serif" font-size="10.00">float.h</text>
</a>
</g>
</g>
<!-- Node9&#45;&gt;Node10 -->
<g id="edge10_Node000009_Node000010" class="edge">
<title>Node9&#45;&gt;Node10</title>
<g id="a_edge10_Node000009_Node000010"><a xlink:title=" ">
<path fill="none" stroke="#63b8ff" d="M80.5,-110.33C80.5,-103.82 80.5,-94.67 80.5,-86.37"/>
<polygon fill="#63b8ff" stroke="#63b8ff" points="84,-86.37 80.5,-76.37 77,-86.37 84,-86.37"/>
</a>
</g>
</g>
<!-- Node11 -->
<g id="Node000011" class="node">
<title>Node11</title>
<g id="a_Node000011"><a xlink:href="fdlibm_8h.html" target="_top" xlink:title=" ">
<polygon fill="white" stroke="#666666" points="105.38,-19.25 55.62,-19.25 55.62,0 105.38,0 105.38,-19.25"/>
<text text-anchor="middle" x="80.5" y="-5.75" font-family="Helvetica,sans-Serif" font-size="10.00">fdlibm.h</text>
</a>
</g>
</g>
<!-- Node10&#45;&gt;Node11 -->
<g id="edge11_Node000010_Node000011" class="edge">
<title>Node10&#45;&gt;Node11</title>
<g id="a_edge11_Node000010_Node000011"><a xlink:title=" ">
<path fill="none" stroke="#63b8ff" d="M80.5,-55.08C80.5,-48.57 80.5,-39.42 80.5,-31.12"/>
<polygon fill="#63b8ff" stroke="#63b8ff" points="84,-31.12 80.5,-21.12 77,-31.12 84,-31.12"/>
</a>
</g>
</g>
<!-- Node12&#45;&gt;Node4 -->
<g id="edge13_Node000012_Node000004" class="edge">
<title>Node12&#45;&gt;Node4</title>
<g id="a_edge13_Node000012_Node000004"><a xlink:title=" ">
<path fill="none" stroke="#63b8ff" d="M222.39,-110.09C253.59,-101.26 301.3,-87.74 335.76,-77.98"/>
<polygon fill="#63b8ff" stroke="#63b8ff" points="336.33,-81.46 345,-75.36 334.42,-74.72 336.33,-81.46"/>
</a>
</g>
</g>
<!-- Node13&#45;&gt;Node4 -->
<g id="edge16_Node000013_Node000004" class="edge">
<title>Node13&#45;&gt;Node4</title>
<g id="a_edge16_Node000013_Node000004"><a xlink:title=" ">
<path fill="none" stroke="#63b8ff" d="M214.69,-165.31C250.62,-143.51 317.7,-102.78 353.88,-80.82"/>
<polygon fill="#63b8ff" stroke="#63b8ff" points="355.6,-83.87 362.33,-75.69 351.97,-77.89 355.6,-83.87"/>
</a>
</g>
</g>
<!-- Node13&#45;&gt;Node9 -->
<g id="edge15_Node000013_Node000009" class="edge">
<title>Node13&#45;&gt;Node9</title>
<g id="a_edge15_Node000013_Node000009"><a xlink:title=" ">
<path fill="none" stroke="#63b8ff" d="M163.03,-165.3C145.95,-156.16 124.11,-144.47 107.19,-135.41"/>
<polygon fill="#63b8ff" stroke="#63b8ff" points="109.17,-132.5 98.7,-130.87 105.87,-138.67 109.17,-132.5"/>
</a>
</g>
</g>
<!-- Node13&#45;&gt;Node12 -->
<g id="edge17_Node000013_Node000012" class="edge">
<title>Node13&#45;&gt;Node12</title>
<g id="a_edge17_Node000013_Node000012"><a xlink:title=" ">
<path fill="none" stroke="#63b8ff" d="M190.5,-165.45C190.5,-158.21 190.5,-149.34 190.5,-141.44"/>
<polygon fill="#63b8ff" stroke="#63b8ff" points="194,-141.71 190.5,-131.71 187,-141.71 194,-141.71"/>
</a>
</g>
</g>
<!-- Node14&#45;&gt;Node4 -->
<g id="edge20_Node000014_Node000004" class="edge">
<title>Node14&#45;&gt;Node4</title>
<g id="a_edge20_Node000014_Node000004"><a xlink:title=" ">
<path fill="none" stroke="#63b8ff" d="M432.67,-298.4C432.92,-269.88 431.49,-179.24 405.5,-110.5 402.07,-101.42 396.77,-92.11 391.78,-84.36"/>
<polygon fill="#63b8ff" stroke="#63b8ff" points="394.73,-82.48 386.21,-76.19 388.94,-86.42 394.73,-82.48"/>
</a>
</g>
</g>
</g>
</svg>
