<?xml version="1.0" encoding="UTF-8" standalone="no"?>
<!DOCTYPE svg PUBLIC "-//W3C//DTD SVG 1.1//EN"
 "http://www.w3.org/Graphics/SVG/1.1/DTD/svg11.dtd">
<!-- Generated by graphviz version 2.44.0 ()
 -->
<!-- Title: src/d/bg/d_bg_s_roof_chk.cpp Pages: 1 -->
<!--zoomable 296 -->
<svg id="main" version="1.1" xmlns="http://www.w3.org/2000/svg" xmlns:xlink="http://www.w3.org/1999/xlink" xml:space="preserve" onload="init(evt)">
<style type="text/css"><![CDATA[
.edge:hover path { stroke: red; }
.edge:hover polygon { stroke: red; fill: red; }
]]></style>
<script type="text/javascript"><![CDATA[
var edges = document.getElementsByTagName('g');
if (edges && edges.length) {
  for (var i=0;i<edges.length;i++) {
    if (edges[i].id.substr(0,4)=='edge') {
      edges[i].setAttribute('class','edge');
    }
  }
}
]]></script>
        <defs>
                <circle id="rim" cx="0" cy="0" r="7"/>
                <circle id="rim2" cx="0" cy="0" r="3.5"/>
                <g id="zoomPlus">
                        <use xlink:href="#rim" fill="#404040">
                                <set attributeName="fill" to="#808080" begin="zoomplus.mouseover" end="zoomplus.mouseout"/>
                        </use>
                        <path d="M-4,0h8M0,-4v8" fill="none" stroke="white" stroke-width="1.5" pointer-events="none"/>
                </g>
                <g id="zoomMin">
                        <use xlink:href="#rim" fill="#404040">
                                <set attributeName="fill" to="#808080" begin="zoomminus.mouseover" end="zoomminus.mouseout"/>
                        </use>
                        <path d="M-4,0h8" fill="none" stroke="white" stroke-width="1.5" pointer-events="none"/>
                </g>
                <g id="dirArrow">
                        <path fill="none" stroke="white" stroke-width="1.5" d="M0,-3.0v7 M-2.5,-0.5L0,-3.0L2.5,-0.5"/>
                </g>
               <g id="resetDef">
                       <use xlink:href="#rim2" fill="#404040">
                               <set attributeName="fill" to="#808080" begin="reset.mouseover" end="reset.mouseout"/>
                       </use>
               </g>
        </defs>

<script type="text/javascript">
var viewWidth = 1758;
var viewHeight = 296;
var sectionId = 'dynsection-0';
</script>
<script xlink:href="svgpan.js"/>
<svg id="graph" class="graph">
<g id="viewport">
<title>src/d/bg/d_bg_s_roof_chk.cpp</title>
<polygon fill="white" stroke="transparent" points="-4,4 -4,-292 1754,-292 1754,4 -4,4"/>
<!-- Node1 -->
<g id="node1" class="node">
<title>Node1</title>
<g id="a_node1"><a xlink:title=" ">
<polygon fill="#bfbfbf" stroke="black" points="1033,-257.5 1033,-287.5 1141,-287.5 1141,-257.5 1033,-257.5"/>
<text text-anchor="start" x="1041" y="-275.5" font-family="Helvetica,sans-Serif" font-size="10.00">src/d/bg/d_bg_s_roof</text>
<text text-anchor="middle" x="1087" y="-264.5" font-family="Helvetica,sans-Serif" font-size="10.00">_chk.cpp</text>
</a>
</g>
</g>
<!-- Node2 -->
<g id="node2" class="node">
<title>Node2</title>
<g id="a_node2"><a xlink:href="d__bg__s__roof__chk_8h.html" target="_top" xlink:title=" ">
<polygon fill="white" stroke="black" points="237,-196 237,-215 357,-215 357,-196 237,-196"/>
<text text-anchor="middle" x="297" y="-203" font-family="Helvetica,sans-Serif" font-size="10.00">d/bg/d_bg_s_roof_chk.h</text>
</a>
</g>
</g>
<!-- Node1&#45;&gt;Node2 -->
<g id="edge1" class="edge">
<title>Node1&#45;&gt;Node2</title>
<path fill="none" stroke="midnightblue" d="M1032.7,-267.03C893.32,-255.56 523,-225.1 367.41,-212.29"/>
<polygon fill="midnightblue" stroke="midnightblue" points="367.29,-208.77 357.03,-211.44 366.71,-215.75 367.29,-208.77"/>
</g>
<!-- Node4 -->
<g id="node4" class="node">
<title>Node4</title>
<g id="a_node4"><a xlink:href="types_8h.html" target="_top" xlink:title=" ">
<polygon fill="white" stroke="black" points="309.5,-0.5 309.5,-19.5 390.5,-19.5 390.5,-0.5 309.5,-0.5"/>
<text text-anchor="middle" x="350" y="-7.5" font-family="Helvetica,sans-Serif" font-size="10.00">dolphin/types.h</text>
</a>
</g>
</g>
<!-- Node1&#45;&gt;Node4 -->
<g id="edge19" class="edge">
<title>Node1&#45;&gt;Node4</title>
<path fill="none" stroke="midnightblue" d="M1032.75,-271.05C944.19,-269.16 774.11,-260.35 731,-221 675.34,-170.2 747.91,-106.52 692,-56 650.25,-18.28 485.52,-11.69 400.85,-10.85"/>
<polygon fill="midnightblue" stroke="midnightblue" points="400.71,-7.35 390.69,-10.77 400.66,-14.35 400.71,-7.35"/>
</g>
<!-- Node12 -->
<g id="node12" class="node">
<title>Node12</title>
<g id="a_node12"><a xlink:href="dol2asm_8h.html" target="_top" xlink:title=" ">
<polygon fill="white" stroke="black" points="740.5,-196 740.5,-215 801.5,-215 801.5,-196 740.5,-196"/>
<text text-anchor="middle" x="771" y="-203" font-family="Helvetica,sans-Serif" font-size="10.00">dol2asm.h</text>
</a>
</g>
</g>
<!-- Node1&#45;&gt;Node12 -->
<g id="edge18" class="edge">
<title>Node1&#45;&gt;Node12</title>
<path fill="none" stroke="midnightblue" d="M1032.98,-264.34C976.91,-256.27 886.94,-241.56 811,-221 808.19,-220.24 805.3,-219.37 802.42,-218.44"/>
<polygon fill="midnightblue" stroke="midnightblue" points="803.39,-215.08 792.8,-215.15 801.12,-221.7 803.39,-215.08"/>
</g>
<!-- Node13 -->
<g id="node13" class="node">
<title>Node13</title>
<g id="a_node13"><a xlink:title=" ">
<polygon fill="white" stroke="#bfbfbf" points="820,-190.5 820,-220.5 986,-220.5 986,-190.5 820,-190.5"/>
<text text-anchor="start" x="828" y="-208.5" font-family="Helvetica,sans-Serif" font-size="10.00">asm/d/bg/d_bg_s_roof</text>
<text text-anchor="middle" x="903" y="-197.5" font-family="Helvetica,sans-Serif" font-size="10.00">_chk/__ct__12dBgS_RoofChkFv.s</text>
</a>
</g>
</g>
<!-- Node1&#45;&gt;Node13 -->
<g id="edge20" class="edge">
<title>Node1&#45;&gt;Node13</title>
<path fill="none" stroke="midnightblue" d="M1047.07,-257.4C1019.35,-247.6 982.21,-234.48 952.58,-224.02"/>
<polygon fill="midnightblue" stroke="midnightblue" points="953.44,-220.61 942.85,-220.58 951.11,-227.21 953.44,-220.61"/>
</g>
<!-- Node14 -->
<g id="node14" class="node">
<title>Node14</title>
<g id="a_node14"><a xlink:title=" ">
<polygon fill="white" stroke="#bfbfbf" points="1004,-190.5 1004,-220.5 1170,-220.5 1170,-190.5 1004,-190.5"/>
<text text-anchor="start" x="1012" y="-208.5" font-family="Helvetica,sans-Serif" font-size="10.00">asm/d/bg/d_bg_s_roof</text>
<text text-anchor="middle" x="1087" y="-197.5" font-family="Helvetica,sans-Serif" font-size="10.00">_chk/__dt__12dBgS_RoofChkFv.s</text>
</a>
</g>
</g>
<!-- Node1&#45;&gt;Node14 -->
<g id="edge21" class="edge">
<title>Node1&#45;&gt;Node14</title>
<path fill="none" stroke="midnightblue" d="M1087,-257.4C1087,-249.64 1087,-239.81 1087,-230.86"/>
<polygon fill="midnightblue" stroke="midnightblue" points="1090.5,-230.58 1087,-220.58 1083.5,-230.58 1090.5,-230.58"/>
</g>
<!-- Node15 -->
<g id="node15" class="node">
<title>Node15</title>
<g id="a_node15"><a xlink:title=" ">
<polygon fill="white" stroke="#bfbfbf" points="1188.5,-190.5 1188.5,-220.5 1349.5,-220.5 1349.5,-190.5 1188.5,-190.5"/>
<text text-anchor="start" x="1196.5" y="-208.5" font-family="Helvetica,sans-Serif" font-size="10.00">asm/d/bg/d_bg_s_roof</text>
<text text-anchor="middle" x="1269" y="-197.5" font-family="Helvetica,sans-Serif" font-size="10.00">_chk/Init__12dBgS_RoofChkFv.s</text>
</a>
</g>
</g>
<!-- Node1&#45;&gt;Node15 -->
<g id="edge22" class="edge">
<title>Node1&#45;&gt;Node15</title>
<path fill="none" stroke="midnightblue" d="M1126.49,-257.4C1153.92,-247.6 1190.65,-234.48 1219.96,-224.02"/>
<polygon fill="midnightblue" stroke="midnightblue" points="1221.35,-227.24 1229.59,-220.58 1218.99,-220.64 1221.35,-227.24"/>
</g>
<!-- Node16 -->
<g id="node16" class="node">
<title>Node16</title>
<g id="a_node16"><a xlink:title=" ">
<polygon fill="white" stroke="#bfbfbf" points="1368,-190.5 1368,-220.5 1484,-220.5 1484,-190.5 1368,-190.5"/>
<text text-anchor="start" x="1376" y="-208.5" font-family="Helvetica,sans-Serif" font-size="10.00">asm/d/bg/d_bg_s_roof</text>
<text text-anchor="middle" x="1426" y="-197.5" font-family="Helvetica,sans-Serif" font-size="10.00">_chk/func_8007914C.s</text>
</a>
</g>
</g>
<!-- Node1&#45;&gt;Node16 -->
<g id="edge23" class="edge">
<title>Node1&#45;&gt;Node16</title>
<path fill="none" stroke="midnightblue" d="M1141.02,-261.96C1193.83,-252.52 1276.75,-237.4 1358.02,-221.17"/>
<polygon fill="midnightblue" stroke="midnightblue" points="1358.8,-224.58 1367.92,-219.18 1357.42,-217.71 1358.8,-224.58"/>
</g>
<!-- Node17 -->
<g id="node17" class="node">
<title>Node17</title>
<g id="a_node17"><a xlink:title=" ">
<polygon fill="white" stroke="#bfbfbf" points="1502,-190.5 1502,-220.5 1616,-220.5 1616,-190.5 1502,-190.5"/>
<text text-anchor="start" x="1510" y="-208.5" font-family="Helvetica,sans-Serif" font-size="10.00">asm/d/bg/d_bg_s_roof</text>
<text text-anchor="middle" x="1559" y="-197.5" font-family="Helvetica,sans-Serif" font-size="10.00">_chk/func_80079154.s</text>
</a>
</g>
</g>
<!-- Node1&#45;&gt;Node17 -->
<g id="edge24" class="edge">
<title>Node1&#45;&gt;Node17</title>
<path fill="none" stroke="midnightblue" d="M1141.09,-266.38C1217.14,-258.83 1360.19,-243.32 1491.58,-221.15"/>
<polygon fill="midnightblue" stroke="midnightblue" points="1492.56,-224.53 1501.83,-219.4 1491.38,-217.63 1492.56,-224.53"/>
</g>
<!-- Node18 -->
<g id="node18" class="node">
<title>Node18</title>
<g id="a_node18"><a xlink:title=" ">
<polygon fill="white" stroke="#bfbfbf" points="1634,-190.5 1634,-220.5 1750,-220.5 1750,-190.5 1634,-190.5"/>
<text text-anchor="start" x="1642" y="-208.5" font-family="Helvetica,sans-Serif" font-size="10.00">asm/d/bg/d_bg_s_roof</text>
<text text-anchor="middle" x="1692" y="-197.5" font-family="Helvetica,sans-Serif" font-size="10.00">_chk/func_8007915C.s</text>
</a>
</g>
</g>
<!-- Node1&#45;&gt;Node18 -->
<g id="edge25" class="edge">
<title>Node1&#45;&gt;Node18</title>
<path fill="none" stroke="midnightblue" d="M1141.1,-268.57C1236.62,-262.92 1441.5,-248.72 1623.93,-221.04"/>
<polygon fill="midnightblue" stroke="midnightblue" points="1624.62,-224.48 1633.97,-219.5 1623.56,-217.56 1624.62,-224.48"/>
</g>
<!-- Node3 -->
<g id="node3" class="node">
<title>Node3</title>
<g id="a_node3"><a xlink:href="c__bg__s__chk_8h.html" target="_top" xlink:title=" ">
<polygon fill="white" stroke="black" points="0,-123.5 0,-153.5 116,-153.5 116,-123.5 0,-123.5"/>
<text text-anchor="start" x="8" y="-141.5" font-family="Helvetica,sans-Serif" font-size="10.00">SSystem/SComponent</text>
<text text-anchor="middle" x="58" y="-130.5" font-family="Helvetica,sans-Serif" font-size="10.00">/c_bg_s_chk.h</text>
</a>
</g>
</g>
<!-- Node2&#45;&gt;Node3 -->
<g id="edge2" class="edge">
<title>Node2&#45;&gt;Node3</title>
<path fill="none" stroke="midnightblue" d="M265.26,-195.87C228.16,-185.78 165.89,-168.84 119.28,-156.16"/>
<polygon fill="midnightblue" stroke="midnightblue" points="120.15,-152.78 109.58,-153.53 118.31,-159.53 120.15,-152.78"/>
</g>
<!-- Node2&#45;&gt;Node4 -->
<g id="edge17" class="edge">
<title>Node2&#45;&gt;Node4</title>
<path fill="none" stroke="midnightblue" d="M236.71,-197.33C209.46,-190.74 179.69,-178.13 163,-154 155.16,-142.67 159.87,-136.42 163,-123 170.53,-90.67 170.58,-77.35 196,-56 224.96,-31.67 266.53,-20.49 299.19,-15.35"/>
<polygon fill="midnightblue" stroke="midnightblue" points="300.04,-18.77 309.45,-13.89 299.05,-11.84 300.04,-18.77"/>
</g>
<!-- Node5 -->
<g id="node5" class="node">
<title>Node5</title>
<g id="a_node5"><a xlink:href="c__bg__s__poly__info_8h.html" target="_top" xlink:title=" ">
<polygon fill="white" stroke="black" points="172,-123.5 172,-153.5 288,-153.5 288,-123.5 172,-123.5"/>
<text text-anchor="start" x="180" y="-141.5" font-family="Helvetica,sans-Serif" font-size="10.00">SSystem/SComponent</text>
<text text-anchor="middle" x="230" y="-130.5" font-family="Helvetica,sans-Serif" font-size="10.00">/c_bg_s_poly_info.h</text>
</a>
</g>
</g>
<!-- Node2&#45;&gt;Node5 -->
<g id="edge4" class="edge">
<title>Node2&#45;&gt;Node5</title>
<path fill="none" stroke="midnightblue" d="M287.96,-195.73C278.74,-186.78 264.06,-172.54 251.78,-160.63"/>
<polygon fill="midnightblue" stroke="midnightblue" points="254.14,-158.04 244.52,-153.59 249.26,-163.06 254.14,-158.04"/>
</g>
<!-- Node6 -->
<g id="node6" class="node">
<title>Node6</title>
<g id="a_node6"><a xlink:href="c__xyz_8h.html" target="_top" xlink:title=" ">
<polygon fill="white" stroke="black" points="306,-123.5 306,-153.5 422,-153.5 422,-123.5 306,-123.5"/>
<text text-anchor="start" x="314" y="-141.5" font-family="Helvetica,sans-Serif" font-size="10.00">SSystem/SComponent</text>
<text text-anchor="middle" x="364" y="-130.5" font-family="Helvetica,sans-Serif" font-size="10.00">/c_xyz.h</text>
</a>
</g>
</g>
<!-- Node2&#45;&gt;Node6 -->
<g id="edge6" class="edge">
<title>Node2&#45;&gt;Node6</title>
<path fill="none" stroke="midnightblue" d="M306.04,-195.73C315.26,-186.78 329.94,-172.54 342.22,-160.63"/>
<polygon fill="midnightblue" stroke="midnightblue" points="344.74,-163.06 349.48,-153.59 339.86,-158.04 344.74,-163.06"/>
</g>
<!-- Node9 -->
<g id="node9" class="node">
<title>Node9</title>
<g id="a_node9"><a xlink:href="d__bg__s__chk_8h.html" target="_top" xlink:title=" ">
<polygon fill="white" stroke="black" points="440,-129 440,-148 538,-148 538,-129 440,-129"/>
<text text-anchor="middle" x="489" y="-136" font-family="Helvetica,sans-Serif" font-size="10.00">d/bg/d_bg_s_chk.h</text>
</a>
</g>
</g>
<!-- Node2&#45;&gt;Node9 -->
<g id="edge11" class="edge">
<title>Node2&#45;&gt;Node9</title>
<path fill="none" stroke="midnightblue" d="M322.5,-195.87C356.3,-184.42 416.1,-164.18 454.08,-151.32"/>
<polygon fill="midnightblue" stroke="midnightblue" points="455.35,-154.59 463.7,-148.06 453.11,-147.96 455.35,-154.59"/>
</g>
<!-- Node3&#45;&gt;Node4 -->
<g id="edge3" class="edge">
<title>Node3&#45;&gt;Node4</title>
<path fill="none" stroke="midnightblue" d="M66.27,-123.47C77.99,-104.92 101.24,-72.64 130,-56 182.39,-25.69 252.15,-15.59 298.95,-12.34"/>
<polygon fill="midnightblue" stroke="midnightblue" points="299.38,-15.82 309.15,-11.71 298.96,-8.83 299.38,-15.82"/>
</g>
<!-- Node5&#45;&gt;Node4 -->
<g id="edge5" class="edge">
<title>Node5&#45;&gt;Node4</title>
<path fill="none" stroke="midnightblue" d="M218.88,-123.23C206.79,-105.86 191.06,-76.32 206,-56 227.21,-27.15 266.83,-16.28 299.15,-12.41"/>
<polygon fill="midnightblue" stroke="midnightblue" points="299.75,-15.87 309.36,-11.39 299.06,-8.91 299.75,-15.87"/>
</g>
<!-- Node7 -->
<g id="node7" class="node">
<title>Node7</title>
<g id="a_node7"><a xlink:href="vec_8h.html" target="_top" xlink:title=" ">
<polygon fill="white" stroke="black" points="215,-62 215,-81 307,-81 307,-62 215,-62"/>
<text text-anchor="middle" x="261" y="-69" font-family="Helvetica,sans-Serif" font-size="10.00">dolphin/mtx/vec.h</text>
</a>
</g>
</g>
<!-- Node6&#45;&gt;Node7 -->
<g id="edge7" class="edge">
<title>Node6&#45;&gt;Node7</title>
<path fill="none" stroke="midnightblue" d="M341.65,-123.4C324.38,-112.5 300.58,-97.48 283.32,-86.58"/>
<polygon fill="midnightblue" stroke="midnightblue" points="284.81,-83.38 274.48,-81.01 281.07,-89.3 284.81,-83.38"/>
</g>
<!-- Node8 -->
<g id="node8" class="node">
<title>Node8</title>
<g id="a_node8"><a xlink:href="global_8h.html" target="_top" xlink:title=" ">
<polygon fill="white" stroke="black" points="325,-62 325,-81 375,-81 375,-62 325,-62"/>
<text text-anchor="middle" x="350" y="-69" font-family="Helvetica,sans-Serif" font-size="10.00">global.h</text>
</a>
</g>
</g>
<!-- Node6&#45;&gt;Node8 -->
<g id="edge9" class="edge">
<title>Node6&#45;&gt;Node8</title>
<path fill="none" stroke="midnightblue" d="M360.96,-123.4C358.93,-113.96 356.24,-101.45 354.03,-91.19"/>
<polygon fill="midnightblue" stroke="midnightblue" points="357.4,-90.23 351.87,-81.19 350.56,-91.71 357.4,-90.23"/>
</g>
<!-- Node7&#45;&gt;Node4 -->
<g id="edge8" class="edge">
<title>Node7&#45;&gt;Node4</title>
<path fill="none" stroke="midnightblue" d="M273.75,-61.98C288.03,-52.43 311.4,-36.81 328.51,-25.37"/>
<polygon fill="midnightblue" stroke="midnightblue" points="330.9,-27.98 337.27,-19.51 327.01,-22.16 330.9,-27.98"/>
</g>
<!-- Node8&#45;&gt;Node4 -->
<g id="edge10" class="edge">
<title>Node8&#45;&gt;Node4</title>
<path fill="none" stroke="midnightblue" d="M350,-61.98C350,-53.58 350,-40.48 350,-29.66"/>
<polygon fill="midnightblue" stroke="midnightblue" points="353.5,-29.51 350,-19.51 346.5,-29.51 353.5,-29.51"/>
</g>
<!-- Node9&#45;&gt;Node4 -->
<g id="edge16" class="edge">
<title>Node9&#45;&gt;Node4</title>
<path fill="none" stroke="midnightblue" d="M476.41,-128.96C462.58,-119.36 439.92,-103.01 422,-87 400.73,-68 378.48,-43.73 364.44,-27.8"/>
<polygon fill="midnightblue" stroke="midnightblue" points="366.76,-25.13 357.55,-19.89 361.48,-29.73 366.76,-25.13"/>
</g>
<!-- Node10 -->
<g id="node10" class="node">
<title>Node10</title>
<g id="a_node10"><a xlink:href="d__bg__s__grp__pass__chk_8h.html" target="_top" xlink:title=" ">
<polygon fill="white" stroke="black" points="431.5,-56.5 431.5,-86.5 546.5,-86.5 546.5,-56.5 431.5,-56.5"/>
<text text-anchor="start" x="439.5" y="-74.5" font-family="Helvetica,sans-Serif" font-size="10.00">d/bg/d_bg_s_grp_pass</text>
<text text-anchor="middle" x="489" y="-63.5" font-family="Helvetica,sans-Serif" font-size="10.00">_chk.h</text>
</a>
</g>
</g>
<!-- Node9&#45;&gt;Node10 -->
<g id="edge12" class="edge">
<title>Node9&#45;&gt;Node10</title>
<path fill="none" stroke="midnightblue" d="M489,-128.73C489,-120.54 489,-107.92 489,-96.71"/>
<polygon fill="midnightblue" stroke="midnightblue" points="492.5,-96.59 489,-86.59 485.5,-96.59 492.5,-96.59"/>
</g>
<!-- Node11 -->
<g id="node11" class="node">
<title>Node11</title>
<g id="a_node11"><a xlink:href="d__bg__s__poly__pass__chk_8h.html" target="_top" xlink:title=" ">
<polygon fill="white" stroke="black" points="564.5,-56.5 564.5,-86.5 683.5,-86.5 683.5,-56.5 564.5,-56.5"/>
<text text-anchor="start" x="572.5" y="-74.5" font-family="Helvetica,sans-Serif" font-size="10.00">d/bg/d_bg_s_poly_pass</text>
<text text-anchor="middle" x="624" y="-63.5" font-family="Helvetica,sans-Serif" font-size="10.00">_chk.h</text>
</a>
</g>
</g>
<!-- Node9&#45;&gt;Node11 -->
<g id="edge14" class="edge">
<title>Node9&#45;&gt;Node11</title>
<path fill="none" stroke="midnightblue" d="M506.93,-128.87C526.92,-119.24 559.85,-103.39 585.7,-90.94"/>
<polygon fill="midnightblue" stroke="midnightblue" points="587.37,-94.02 594.86,-86.53 584.34,-87.71 587.37,-94.02"/>
</g>
<!-- Node10&#45;&gt;Node4 -->
<g id="edge13" class="edge">
<title>Node10&#45;&gt;Node4</title>
<path fill="none" stroke="midnightblue" d="M456.06,-56.4C432.84,-46.46 402.01,-33.26 379.58,-23.66"/>
<polygon fill="midnightblue" stroke="midnightblue" points="380.8,-20.38 370.23,-19.66 378.04,-26.81 380.8,-20.38"/>
</g>
<!-- Node11&#45;&gt;Node4 -->
<g id="edge15" class="edge">
<title>Node11&#45;&gt;Node4</title>
<path fill="none" stroke="midnightblue" d="M564.21,-57.52C514.77,-46.78 445.42,-31.72 399.16,-21.68"/>
<polygon fill="midnightblue" stroke="midnightblue" points="399.88,-18.25 389.37,-19.55 398.4,-25.09 399.88,-18.25"/>
</g>
</g>
</svg>
        <g id="navigator" transform="translate(0 0)" fill="#404254">
                <rect fill="#f2f5e9" fill-opacity="0.5" stroke="#606060" stroke-width=".5" x="0" y="0" width="60" height="60"/>
                <use id="zoomplus" xlink:href="#zoomPlus" x="17" y="9" onmousedown="handleZoom(evt,'in')"/>
                <use id="zoomminus" xlink:href="#zoomMin" x="42" y="9" onmousedown="handleZoom(evt,'out')"/>
                <use id="reset" xlink:href="#resetDef" x="30" y="36" onmousedown="handleReset()"/>
                <g id="arrowUp" xlink:href="#dirArrow" transform="translate(30 24)" onmousedown="handlePan(0,-1)">
                  <use xlink:href="#rim" fill="#404040">
                        <set attributeName="fill" to="#808080" begin="arrowUp.mouseover" end="arrowUp.mouseout"/>
                  </use>
                  <path fill="none" stroke="white" stroke-width="1.5" d="M0,-3.0v7 M-2.5,-0.5L0,-3.0L2.5,-0.5"/>
                </g>
                <g id="arrowRight" xlink:href="#dirArrow" transform="rotate(90) translate(36 -43)" onmousedown="handlePan(1,0)">
                  <use xlink:href="#rim" fill="#404040">
                        <set attributeName="fill" to="#808080" begin="arrowRight.mouseover" end="arrowRight.mouseout"/>
                  </use>
                  <path fill="none" stroke="white" stroke-width="1.5" d="M0,-3.0v7 M-2.5,-0.5L0,-3.0L2.5,-0.5"/>
                </g>
                <g id="arrowDown" xlink:href="#dirArrow" transform="rotate(180) translate(-30 -48)" onmousedown="handlePan(0,1)">
                  <use xlink:href="#rim" fill="#404040">
                        <set attributeName="fill" to="#808080" begin="arrowDown.mouseover" end="arrowDown.mouseout"/>
                  </use>
                  <path fill="none" stroke="white" stroke-width="1.5" d="M0,-3.0v7 M-2.5,-0.5L0,-3.0L2.5,-0.5"/>
                </g>
                <g id="arrowLeft" xlink:href="#dirArrow" transform="rotate(270) translate(-36 17)" onmousedown="handlePan(-1,0)">
                  <use xlink:href="#rim" fill="#404040">
                        <set attributeName="fill" to="#808080" begin="arrowLeft.mouseover" end="arrowLeft.mouseout"/>
                  </use>
                  <path fill="none" stroke="white" stroke-width="1.5" d="M0,-3.0v7 M-2.5,-0.5L0,-3.0L2.5,-0.5"/>
                </g>
        </g>
        <svg viewBox="0 0 15 15" width="100%" height="30px" preserveAspectRatio="xMaxYMin meet">
         <g id="arrow_out" transform="scale(0.3 0.3)">
          <a xlink:href="d__bg__s__roof__chk_8cpp__incl_org.svg" target="_base">
           <rect id="button" ry="5" rx="5" y="6" x="6" height="38" width="38"
                fill="#f2f5e9" fill-opacity="0.5" stroke="#606060" stroke-width="1.0"/>
           <path id="arrow"
             d="M 11.500037,31.436501 C 11.940474,20.09759 22.043105,11.32322 32.158766,21.979434 L 37.068811,17.246167 C 37.068811,17.246167 37.088388,32 37.088388,32 L 22.160133,31.978069 C 22.160133,31.978069 26.997745,27.140456 26.997745,27.140456 C 18.528582,18.264221 13.291696,25.230495 11.500037,31.436501 z"
             style="fill:#404040;"/>
          </a>
         </g>
        </svg>
</svg>
