<?xml version="1.0" encoding="UTF-8" standalone="no"?>
<!DOCTYPE svg PUBLIC "-//W3C//DTD SVG 1.1//EN"
 "http://www.w3.org/Graphics/SVG/1.1/DTD/svg11.dtd">
<!-- Generated by graphviz version 2.44.0 ()
 -->
<!-- Title: include/d/cc/d_cc_mass_s.h Pages: 1 -->
<svg width="2658pt" height="430pt"
 viewBox="0.00 0.00 2658.39 430.00" xmlns="http://www.w3.org/2000/svg" xmlns:xlink="http://www.w3.org/1999/xlink">
<g id="graph0" class="graph" transform="scale(1 1) rotate(0) translate(4 426)">
<title>include/d/cc/d_cc_mass_s.h</title>
<polygon fill="white" stroke="transparent" points="-4,4 -4,-426 2654.39,-426 2654.39,4 -4,4"/>
<!-- Node1 -->
<g id="node1" class="node">
<title>Node1</title>
<g id="a_node1"><a xlink:title=" ">
<polygon fill="#bfbfbf" stroke="black" points="240.39,-402.5 240.39,-421.5 380.39,-421.5 380.39,-402.5 240.39,-402.5"/>
<text text-anchor="middle" x="310.39" y="-409.5" font-family="Helvetica,sans-Serif" font-size="10.00">include/d/cc/d_cc_mass_s.h</text>
</a>
</g>
</g>
<!-- Node2 -->
<g id="node2" class="node">
<title>Node2</title>
<g id="a_node2"><a xlink:href="d__cc__mass__s_8cpp.html" target="_top" xlink:title=" ">
<polygon fill="white" stroke="black" points="128.89,-335.5 128.89,-365.5 233.89,-365.5 233.89,-335.5 128.89,-335.5"/>
<text text-anchor="start" x="136.89" y="-353.5" font-family="Helvetica,sans-Serif" font-size="10.00">src/d/cc/d_cc_mass</text>
<text text-anchor="middle" x="181.39" y="-342.5" font-family="Helvetica,sans-Serif" font-size="10.00">_s.cpp</text>
</a>
</g>
</g>
<!-- Node1&#45;&gt;Node2 -->
<g id="edge1" class="edge">
<title>Node1&#45;&gt;Node2</title>
<path fill="none" stroke="midnightblue" d="M282.64,-398.2C261.79,-388.58 233.26,-375.42 211.8,-365.52"/>
<polygon fill="midnightblue" stroke="midnightblue" points="281.36,-401.46 291.91,-402.48 284.3,-395.11 281.36,-401.46"/>
</g>
<!-- Node3 -->
<g id="node3" class="node">
<title>Node3</title>
<g id="a_node3"><a xlink:href="d__a__alink_8h.html" target="_top" xlink:title=" ">
<polygon fill="white" stroke="black" points="252.39,-341 252.39,-360 368.39,-360 368.39,-341 252.39,-341"/>
<text text-anchor="middle" x="310.39" y="-348" font-family="Helvetica,sans-Serif" font-size="10.00">include/d/a/d_a_alink.h</text>
</a>
</g>
</g>
<!-- Node1&#45;&gt;Node3 -->
<g id="edge2" class="edge">
<title>Node1&#45;&gt;Node3</title>
<path fill="none" stroke="midnightblue" d="M310.39,-392.32C310.39,-381.5 310.39,-368.4 310.39,-360.01"/>
<polygon fill="midnightblue" stroke="midnightblue" points="306.89,-392.48 310.39,-402.48 313.89,-392.48 306.89,-392.48"/>
</g>
<!-- Node36 -->
<g id="node36" class="node">
<title>Node36</title>
<g id="a_node36"><a xlink:href="d__cc__s_8h.html" target="_top" xlink:title=" ">
<polygon fill="white" stroke="black" points="525.89,-341 525.89,-360 636.89,-360 636.89,-341 525.89,-341"/>
<text text-anchor="middle" x="581.39" y="-348" font-family="Helvetica,sans-Serif" font-size="10.00">include/d/cc/d_cc_s.h</text>
</a>
</g>
</g>
<!-- Node1&#45;&gt;Node36 -->
<g id="edge46" class="edge">
<title>Node1&#45;&gt;Node36</title>
<path fill="none" stroke="midnightblue" d="M358.99,-400.33C411.54,-388.79 494.27,-370.63 542.64,-360.01"/>
<polygon fill="midnightblue" stroke="midnightblue" points="358.24,-396.91 349.22,-402.48 359.74,-403.75 358.24,-396.91"/>
</g>
<!-- Node4 -->
<g id="node4" class="node">
<title>Node4</title>
<g id="a_node4"><a xlink:href="d__a__alink_8cpp.html" target="_top" xlink:title=" ">
<polygon fill="white" stroke="black" points="15.89,-207 15.89,-226 124.89,-226 124.89,-207 15.89,-207"/>
<text text-anchor="middle" x="70.39" y="-214" font-family="Helvetica,sans-Serif" font-size="10.00">src/d/a/d_a_alink.cpp</text>
</a>
</g>
</g>
<!-- Node3&#45;&gt;Node4 -->
<g id="edge3" class="edge">
<title>Node3&#45;&gt;Node4</title>
<path fill="none" stroke="midnightblue" d="M285.59,-335.86C236.13,-308.65 126.47,-248.34 85.89,-226.02"/>
<polygon fill="midnightblue" stroke="midnightblue" points="284.2,-339.09 294.65,-340.84 287.57,-332.95 284.2,-339.09"/>
</g>
<!-- Node5 -->
<g id="node5" class="node">
<title>Node5</title>
<g id="a_node5"><a xlink:href="d__com__inf__game_8h.html" target="_top" xlink:title=" ">
<polygon fill="white" stroke="black" points="847.39,-268.5 847.39,-298.5 957.39,-298.5 957.39,-268.5 847.39,-268.5"/>
<text text-anchor="start" x="855.39" y="-286.5" font-family="Helvetica,sans-Serif" font-size="10.00">include/d/com/d_com</text>
<text text-anchor="middle" x="902.39" y="-275.5" font-family="Helvetica,sans-Serif" font-size="10.00">_inf_game.h</text>
</a>
</g>
</g>
<!-- Node3&#45;&gt;Node5 -->
<g id="edge4" class="edge">
<title>Node3&#45;&gt;Node5</title>
<path fill="none" stroke="midnightblue" d="M378.53,-342.02C496.88,-329.02 738.16,-302.53 846.98,-290.58"/>
<polygon fill="midnightblue" stroke="midnightblue" points="378.06,-338.55 368.5,-343.12 378.83,-345.51 378.06,-338.55"/>
</g>
<!-- Node5&#45;&gt;Node4 -->
<g id="edge10" class="edge">
<title>Node5&#45;&gt;Node4</title>
<path fill="none" stroke="midnightblue" d="M836.7,-281.27C704.22,-278.1 395.81,-267.25 139.39,-232 128.6,-230.52 116.97,-228.31 106.39,-226.07"/>
<polygon fill="midnightblue" stroke="midnightblue" points="836.99,-284.78 847.07,-281.51 837.15,-277.78 836.99,-284.78"/>
</g>
<!-- Node6 -->
<g id="node6" class="node">
<title>Node6</title>
<g id="a_node6"><a xlink:href="d__a__player_8cpp.html" target="_top" xlink:title=" ">
<polygon fill="white" stroke="black" points="2414.39,-207 2414.39,-226 2528.39,-226 2528.39,-207 2414.39,-207"/>
<text text-anchor="middle" x="2471.39" y="-214" font-family="Helvetica,sans-Serif" font-size="10.00">src/d/a/d_a_player.cpp</text>
</a>
</g>
</g>
<!-- Node5&#45;&gt;Node6 -->
<g id="edge5" class="edge">
<title>Node5&#45;&gt;Node6</title>
<path fill="none" stroke="midnightblue" d="M967.72,-281.89C1218.69,-279.32 2120.98,-267.72 2405.39,-232 2416.1,-230.66 2427.64,-228.4 2438.02,-226.07"/>
<polygon fill="midnightblue" stroke="midnightblue" points="967.63,-278.39 957.67,-282 967.7,-285.39 967.63,-278.39"/>
</g>
<!-- Node7 -->
<g id="node7" class="node">
<title>Node7</title>
<g id="a_node7"><a xlink:href="d__bg__s_8cpp.html" target="_top" xlink:title=" ">
<polygon fill="white" stroke="black" points="2546.39,-207 2546.39,-226 2650.39,-226 2650.39,-207 2546.39,-207"/>
<text text-anchor="middle" x="2598.39" y="-214" font-family="Helvetica,sans-Serif" font-size="10.00">src/d/bg/d_bg_s.cpp</text>
</a>
</g>
</g>
<!-- Node5&#45;&gt;Node7 -->
<g id="edge6" class="edge">
<title>Node5&#45;&gt;Node7</title>
<path fill="none" stroke="midnightblue" d="M967.66,-282.25C1232.31,-280.95 2226.08,-273.37 2537.39,-232 2547.43,-230.67 2558.22,-228.39 2567.9,-226.03"/>
<polygon fill="midnightblue" stroke="midnightblue" points="967.43,-278.75 957.45,-282.3 967.47,-285.75 967.43,-278.75"/>
</g>
<!-- Node8 -->
<g id="node8" class="node">
<title>Node8</title>
<g id="a_node8"><a xlink:href="d__bg__s__movebg__actor_8cpp.html" target="_top" xlink:title=" ">
<polygon fill="white" stroke="black" points="181.39,-201.5 181.39,-231.5 307.39,-231.5 307.39,-201.5 181.39,-201.5"/>
<text text-anchor="start" x="189.39" y="-219.5" font-family="Helvetica,sans-Serif" font-size="10.00">src/d/bg/d_bg_s_movebg</text>
<text text-anchor="middle" x="244.39" y="-208.5" font-family="Helvetica,sans-Serif" font-size="10.00">_actor.cpp</text>
</a>
</g>
</g>
<!-- Node5&#45;&gt;Node8 -->
<g id="edge7" class="edge">
<title>Node5&#45;&gt;Node8</title>
<path fill="none" stroke="midnightblue" d="M837.08,-279.28C728.56,-273.39 504.4,-258.94 316.39,-232 313.49,-231.58 310.53,-231.13 307.54,-230.64"/>
<polygon fill="midnightblue" stroke="midnightblue" points="837.05,-282.78 847.22,-279.82 837.42,-275.79 837.05,-282.78"/>
</g>
<!-- Node9 -->
<g id="node9" class="node">
<title>Node9</title>
<g id="a_node9"><a xlink:href="d__bg__w_8cpp.html" target="_top" xlink:title=" ">
<polygon fill="white" stroke="black" points="325.89,-207 325.89,-226 432.89,-226 432.89,-207 325.89,-207"/>
<text text-anchor="middle" x="379.39" y="-214" font-family="Helvetica,sans-Serif" font-size="10.00">src/d/bg/d_bg_w.cpp</text>
</a>
</g>
</g>
<!-- Node5&#45;&gt;Node9 -->
<g id="edge8" class="edge">
<title>Node5&#45;&gt;Node9</title>
<path fill="none" stroke="midnightblue" d="M837,-277.3C748.37,-269.79 585.32,-254.3 447.39,-232 437.26,-230.36 426.36,-228.21 416.32,-226.07"/>
<polygon fill="midnightblue" stroke="midnightblue" points="836.91,-280.81 847.17,-278.16 837.5,-273.83 836.91,-280.81"/>
</g>
<!-- Node10 -->
<g id="node10" class="node">
<title>Node10</title>
<g id="a_node10"><a xlink:href="d__com__inf__game_8cpp.html" target="_top" xlink:title=" ">
<polygon fill="white" stroke="black" points="99.39,-67.5 99.39,-97.5 207.39,-97.5 207.39,-67.5 99.39,-67.5"/>
<text text-anchor="start" x="107.39" y="-85.5" font-family="Helvetica,sans-Serif" font-size="10.00">src/d/com/d_com_inf</text>
<text text-anchor="middle" x="153.39" y="-74.5" font-family="Helvetica,sans-Serif" font-size="10.00">_game.cpp</text>
</a>
</g>
</g>
<!-- Node5&#45;&gt;Node10 -->
<g id="edge9" class="edge">
<title>Node5&#45;&gt;Node10</title>
<path fill="none" stroke="midnightblue" d="M837.1,-282.62C667.02,-282.28 220.16,-277.07 172.39,-232 135.15,-196.86 143.97,-127.87 150.02,-97.93"/>
<polygon fill="midnightblue" stroke="midnightblue" points="837.17,-286.12 847.17,-282.63 837.18,-279.12 837.17,-286.12"/>
</g>
<!-- Node11 -->
<g id="node11" class="node">
<title>Node11</title>
<g id="a_node11"><a xlink:href="d__resorce_8cpp.html" target="_top" xlink:title=" ">
<polygon fill="white" stroke="black" points="793.39,-207 793.39,-226 895.39,-226 895.39,-207 793.39,-207"/>
<text text-anchor="middle" x="844.39" y="-214" font-family="Helvetica,sans-Serif" font-size="10.00">src/d/d_resorce.cpp</text>
</a>
</g>
</g>
<!-- Node5&#45;&gt;Node11 -->
<g id="edge11" class="edge">
<title>Node5&#45;&gt;Node11</title>
<path fill="none" stroke="midnightblue" d="M882.9,-260.66C872.38,-248.86 859.98,-234.97 852.15,-226.19"/>
<polygon fill="midnightblue" stroke="midnightblue" points="880.54,-263.26 889.81,-268.4 885.76,-258.6 880.54,-263.26"/>
</g>
<!-- Node12 -->
<g id="node12" class="node">
<title>Node12</title>
<g id="a_node12"><a xlink:href="d__stage_8cpp.html" target="_top" xlink:title=" ">
<polygon fill="white" stroke="black" points="913.39,-207 913.39,-226 1007.39,-226 1007.39,-207 913.39,-207"/>
<text text-anchor="middle" x="960.39" y="-214" font-family="Helvetica,sans-Serif" font-size="10.00">src/d/d_stage.cpp</text>
</a>
</g>
</g>
<!-- Node5&#45;&gt;Node12 -->
<g id="edge12" class="edge">
<title>Node5&#45;&gt;Node12</title>
<path fill="none" stroke="midnightblue" d="M921.88,-260.66C932.41,-248.86 944.81,-234.97 952.63,-226.19"/>
<polygon fill="midnightblue" stroke="midnightblue" points="919.02,-258.6 914.98,-268.4 924.25,-263.26 919.02,-258.6"/>
</g>
<!-- Node13 -->
<g id="node13" class="node">
<title>Node13</title>
<g id="a_node13"><a xlink:href="d__event_8cpp.html" target="_top" xlink:title=" ">
<polygon fill="white" stroke="black" points="1025.89,-207 1025.89,-226 1146.89,-226 1146.89,-207 1025.89,-207"/>
<text text-anchor="middle" x="1086.39" y="-214" font-family="Helvetica,sans-Serif" font-size="10.00">src/d/event/d_event.cpp</text>
</a>
</g>
</g>
<!-- Node5&#45;&gt;Node13 -->
<g id="edge13" class="edge">
<title>Node5&#45;&gt;Node13</title>
<path fill="none" stroke="midnightblue" d="M952.08,-264.95C987.82,-252.32 1034.45,-235.85 1062.31,-226.01"/>
<polygon fill="midnightblue" stroke="midnightblue" points="950.58,-261.76 942.32,-268.4 952.91,-268.37 950.58,-261.76"/>
</g>
<!-- Node14 -->
<g id="node14" class="node">
<title>Node14</title>
<g id="a_node14"><a xlink:href="d__event__data_8cpp.html" target="_top" xlink:title=" ">
<polygon fill="white" stroke="black" points="1164.89,-201.5 1164.89,-231.5 1267.89,-231.5 1267.89,-201.5 1164.89,-201.5"/>
<text text-anchor="start" x="1172.89" y="-219.5" font-family="Helvetica,sans-Serif" font-size="10.00">src/d/event/d_event</text>
<text text-anchor="middle" x="1216.39" y="-208.5" font-family="Helvetica,sans-Serif" font-size="10.00">_data.cpp</text>
</a>
</g>
</g>
<!-- Node5&#45;&gt;Node14 -->
<g id="edge14" class="edge">
<title>Node5&#45;&gt;Node14</title>
<path fill="none" stroke="midnightblue" d="M967.5,-270.31C1018.91,-260.51 1092.38,-246.09 1156.39,-232 1159.11,-231.4 1161.9,-230.77 1164.71,-230.13"/>
<polygon fill="midnightblue" stroke="midnightblue" points="966.7,-266.9 957.53,-272.21 968,-273.78 966.7,-266.9"/>
</g>
<!-- Node15 -->
<g id="node15" class="node">
<title>Node15</title>
<g id="a_node15"><a xlink:href="d__event__manager_8cpp.html" target="_top" xlink:title=" ">
<polygon fill="white" stroke="black" points="1285.89,-201.5 1285.89,-231.5 1388.89,-231.5 1388.89,-201.5 1285.89,-201.5"/>
<text text-anchor="start" x="1293.89" y="-219.5" font-family="Helvetica,sans-Serif" font-size="10.00">src/d/event/d_event</text>
<text text-anchor="middle" x="1337.39" y="-208.5" font-family="Helvetica,sans-Serif" font-size="10.00">_manager.cpp</text>
</a>
</g>
</g>
<!-- Node5&#45;&gt;Node15 -->
<g id="edge15" class="edge">
<title>Node5&#45;&gt;Node15</title>
<path fill="none" stroke="midnightblue" d="M967.89,-275.75C1042.99,-267.54 1169.63,-252.22 1277.39,-232 1280.13,-231.49 1282.93,-230.93 1285.75,-230.34"/>
<polygon fill="midnightblue" stroke="midnightblue" points="967.21,-272.31 957.64,-276.87 967.96,-279.27 967.21,-272.31"/>
</g>
<!-- Node16 -->
<g id="node16" class="node">
<title>Node16</title>
<g id="a_node16"><a xlink:href="d__kankyo_8cpp.html" target="_top" xlink:title=" ">
<polygon fill="white" stroke="black" points="1407.39,-207 1407.39,-226 1541.39,-226 1541.39,-207 1407.39,-207"/>
<text text-anchor="middle" x="1474.39" y="-214" font-family="Helvetica,sans-Serif" font-size="10.00">src/d/kankyo/d_kankyo.cpp</text>
</a>
</g>
</g>
<!-- Node5&#45;&gt;Node16 -->
<g id="edge16" class="edge">
<title>Node5&#45;&gt;Node16</title>
<path fill="none" stroke="midnightblue" d="M967.67,-277.68C1062.73,-270.24 1244.69,-254.44 1398.39,-232 1409.69,-230.35 1421.86,-228.2 1433.09,-226.06"/>
<polygon fill="midnightblue" stroke="midnightblue" points="967.33,-274.19 957.63,-278.46 967.87,-281.17 967.33,-274.19"/>
</g>
<!-- Node17 -->
<g id="node17" class="node">
<title>Node17</title>
<g id="a_node17"><a xlink:href="d__menu__window__HIO_8cpp.html" target="_top" xlink:title=" ">
<polygon fill="white" stroke="black" points="1559.89,-201.5 1559.89,-231.5 1700.89,-231.5 1700.89,-201.5 1559.89,-201.5"/>
<text text-anchor="start" x="1567.89" y="-219.5" font-family="Helvetica,sans-Serif" font-size="10.00">src/d/menu/d_menu_window</text>
<text text-anchor="middle" x="1630.39" y="-208.5" font-family="Helvetica,sans-Serif" font-size="10.00">_HIO.cpp</text>
</a>
</g>
</g>
<!-- Node5&#45;&gt;Node17 -->
<g id="edge17" class="edge">
<title>Node5&#45;&gt;Node17</title>
<path fill="none" stroke="midnightblue" d="M967.87,-279.6C1085.07,-273.92 1338.29,-259.41 1550.39,-232 1553.47,-231.6 1556.61,-231.17 1559.78,-230.7"/>
<polygon fill="midnightblue" stroke="midnightblue" points="967.45,-276.11 957.63,-280.09 967.79,-283.11 967.45,-276.11"/>
</g>
<!-- Node18 -->
<g id="node18" class="node">
<title>Node18</title>
<g id="a_node18"><a xlink:href="d__meter2__info_8cpp.html" target="_top" xlink:title=" ">
<polygon fill="white" stroke="black" points="604.39,-67.5 604.39,-97.5 714.39,-97.5 714.39,-67.5 604.39,-67.5"/>
<text text-anchor="start" x="612.39" y="-85.5" font-family="Helvetica,sans-Serif" font-size="10.00">src/d/meter/d_meter2</text>
<text text-anchor="middle" x="659.39" y="-74.5" font-family="Helvetica,sans-Serif" font-size="10.00">_info.cpp</text>
</a>
</g>
</g>
<!-- Node5&#45;&gt;Node18 -->
<g id="edge18" class="edge">
<title>Node5&#45;&gt;Node18</title>
<path fill="none" stroke="midnightblue" d="M837.05,-273.64C805.42,-266.64 768.51,-254.16 741.39,-232 696.47,-195.29 672.13,-127.14 663.29,-97.68"/>
<polygon fill="midnightblue" stroke="midnightblue" points="836.62,-277.13 847.12,-275.73 838.04,-270.27 836.62,-277.13"/>
</g>
<!-- Node19 -->
<g id="node19" class="node">
<title>Node19</title>
<g id="a_node19"><a xlink:href="d__meter2__draw_8cpp.html" target="_top" xlink:title=" ">
<polygon fill="white" stroke="black" points="1719.39,-201.5 1719.39,-231.5 1829.39,-231.5 1829.39,-201.5 1719.39,-201.5"/>
<text text-anchor="start" x="1727.39" y="-219.5" font-family="Helvetica,sans-Serif" font-size="10.00">src/d/meter/d_meter2</text>
<text text-anchor="middle" x="1774.39" y="-208.5" font-family="Helvetica,sans-Serif" font-size="10.00">_draw.cpp</text>
</a>
</g>
</g>
<!-- Node5&#45;&gt;Node19 -->
<g id="edge19" class="edge">
<title>Node5&#45;&gt;Node19</title>
<path fill="none" stroke="midnightblue" d="M967.96,-281.96C1106.01,-280.03 1436.5,-271.33 1710.39,-232 1713.32,-231.58 1716.32,-231.09 1719.34,-230.56"/>
<polygon fill="midnightblue" stroke="midnightblue" points="967.52,-278.46 957.57,-282.09 967.61,-285.46 967.52,-278.46"/>
</g>
<!-- Node20 -->
<g id="node20" class="node">
<title>Node20</title>
<g id="a_node20"><a xlink:href="d__meter__map_8cpp.html" target="_top" xlink:title=" ">
<polygon fill="white" stroke="black" points="690.39,-0.5 690.39,-30.5 794.39,-30.5 794.39,-0.5 690.39,-0.5"/>
<text text-anchor="start" x="698.39" y="-18.5" font-family="Helvetica,sans-Serif" font-size="10.00">src/d/meter/d_meter</text>
<text text-anchor="middle" x="742.39" y="-7.5" font-family="Helvetica,sans-Serif" font-size="10.00">_map.cpp</text>
</a>
</g>
</g>
<!-- Node5&#45;&gt;Node20 -->
<g id="edge20" class="edge">
<title>Node5&#45;&gt;Node20</title>
<path fill="none" stroke="midnightblue" d="M837.56,-269.66C817.06,-262.2 796.58,-250.47 784.39,-232 776.81,-220.5 778,-213.2 784.39,-201 797.44,-176.1 813.79,-181.71 836.39,-165 875.07,-136.41 900.4,-141.28 921.39,-98 927.41,-85.6 929.71,-77.99 921.39,-67 906.05,-46.73 841.83,-32.28 794.68,-24.17"/>
<polygon fill="midnightblue" stroke="midnightblue" points="836.68,-273.05 847.28,-272.88 838.89,-266.41 836.68,-273.05"/>
</g>
<!-- Node21 -->
<g id="node21" class="node">
<title>Node21</title>
<g id="a_node21"><a xlink:href="d__msg__flow_8cpp.html" target="_top" xlink:title=" ">
<polygon fill="white" stroke="black" points="1847.89,-207 1847.89,-226 1980.89,-226 1980.89,-207 1847.89,-207"/>
<text text-anchor="middle" x="1914.39" y="-214" font-family="Helvetica,sans-Serif" font-size="10.00">src/d/msg/d_msg_flow.cpp</text>
</a>
</g>
</g>
<!-- Node5&#45;&gt;Node21 -->
<g id="edge21" class="edge">
<title>Node5&#45;&gt;Node21</title>
<path fill="none" stroke="midnightblue" d="M967.63,-282C1120.4,-280.16 1513.09,-271.62 1838.39,-232 1850.39,-230.54 1863.35,-228.31 1875.11,-226.04"/>
<polygon fill="midnightblue" stroke="midnightblue" points="967.44,-278.5 957.48,-282.11 967.52,-285.5 967.44,-278.5"/>
</g>
<!-- Node22 -->
<g id="node22" class="node">
<title>Node22</title>
<g id="a_node22"><a xlink:href="d__save_8cpp.html" target="_top" xlink:title=" ">
<polygon fill="white" stroke="black" points="470.89,-73 470.89,-92 585.89,-92 585.89,-73 470.89,-73"/>
<text text-anchor="middle" x="528.39" y="-80" font-family="Helvetica,sans-Serif" font-size="10.00">src/d/save/d_save.cpp</text>
</a>
</g>
</g>
<!-- Node5&#45;&gt;Node22 -->
<g id="edge22" class="edge">
<title>Node5&#45;&gt;Node22</title>
<path fill="none" stroke="midnightblue" d="M837.06,-275.54C797.89,-268.98 748.46,-256.33 710.39,-232 662.78,-201.57 673.62,-169.17 629.39,-134 605.61,-115.09 573.6,-100.56 552.05,-92.05"/>
<polygon fill="midnightblue" stroke="midnightblue" points="836.62,-279.01 847.04,-277.12 837.71,-272.1 836.62,-279.01"/>
</g>
<!-- Node23 -->
<g id="node23" class="node">
<title>Node23</title>
<g id="a_node23"><a xlink:href="m__Do__machine__exception_8cpp.html" target="_top" xlink:title=" ">
<polygon fill="white" stroke="black" points="1998.89,-201.5 1998.89,-231.5 2127.89,-231.5 2127.89,-201.5 1998.89,-201.5"/>
<text text-anchor="start" x="2006.89" y="-219.5" font-family="Helvetica,sans-Serif" font-size="10.00">src/m_Do/m_Do_machine</text>
<text text-anchor="middle" x="2063.39" y="-208.5" font-family="Helvetica,sans-Serif" font-size="10.00">_exception.cpp</text>
</a>
</g>
</g>
<!-- Node5&#45;&gt;Node23 -->
<g id="edge23" class="edge">
<title>Node5&#45;&gt;Node23</title>
<path fill="none" stroke="midnightblue" d="M967.55,-282.87C1136.89,-283.08 1604.56,-279 1990.39,-232 1993.09,-231.67 1995.83,-231.3 1998.59,-230.89"/>
<polygon fill="midnightblue" stroke="midnightblue" points="967.55,-279.37 957.54,-282.85 967.54,-286.37 967.55,-279.37"/>
</g>
<!-- Node24 -->
<g id="node24" class="node">
<title>Node24</title>
<g id="a_node24"><a xlink:href="m__Do__main_8cpp.html" target="_top" xlink:title=" ">
<polygon fill="white" stroke="black" points="2145.89,-207 2145.89,-226 2276.89,-226 2276.89,-207 2145.89,-207"/>
<text text-anchor="middle" x="2211.39" y="-214" font-family="Helvetica,sans-Serif" font-size="10.00">src/m_Do/m_Do_main.cpp</text>
</a>
</g>
</g>
<!-- Node5&#45;&gt;Node24 -->
<g id="edge24" class="edge">
<title>Node5&#45;&gt;Node24</title>
<path fill="none" stroke="midnightblue" d="M967.86,-281.14C1189.07,-276.35 1907.68,-259.04 2137.39,-232 2149.22,-230.61 2161.99,-228.37 2173.54,-226.07"/>
<polygon fill="midnightblue" stroke="midnightblue" points="967.63,-277.65 957.71,-281.36 967.78,-284.65 967.63,-277.65"/>
</g>
<!-- Node25 -->
<g id="node25" class="node">
<title>Node25</title>
<g id="a_node25"><a xlink:href="d__item_8h.html" target="_top" xlink:title=" ">
<polygon fill="white" stroke="black" points="215.89,-140 215.89,-159 310.89,-159 310.89,-140 215.89,-140"/>
<text text-anchor="middle" x="263.39" y="-147" font-family="Helvetica,sans-Serif" font-size="10.00">include/d/d_item.h</text>
</a>
</g>
</g>
<!-- Node5&#45;&gt;Node25 -->
<g id="edge25" class="edge">
<title>Node5&#45;&gt;Node25</title>
<path fill="none" stroke="midnightblue" d="M836.99,-279.03C735,-272.9 543.26,-258.24 480.39,-232 459.96,-223.47 461.09,-211.11 441.39,-201 428.39,-194.33 343.91,-171.62 296.15,-159.05"/>
<polygon fill="midnightblue" stroke="midnightblue" points="836.98,-282.54 847.17,-279.64 837.39,-275.55 836.98,-282.54"/>
</g>
<!-- Node27 -->
<g id="node27" class="node">
<title>Node27</title>
<g id="a_node27"><a xlink:href="d__kantera__icon__meter_8h.html" target="_top" xlink:title=" ">
<polygon fill="white" stroke="black" points="2294.89,-201.5 2294.89,-231.5 2395.89,-231.5 2395.89,-201.5 2294.89,-201.5"/>
<text text-anchor="start" x="2302.89" y="-219.5" font-family="Helvetica,sans-Serif" font-size="10.00">include/d/d_kantera</text>
<text text-anchor="middle" x="2345.39" y="-208.5" font-family="Helvetica,sans-Serif" font-size="10.00">_icon_meter.h</text>
</a>
</g>
</g>
<!-- Node5&#45;&gt;Node27 -->
<g id="edge28" class="edge">
<title>Node5&#45;&gt;Node27</title>
<path fill="none" stroke="midnightblue" d="M967.64,-281.89C1205.65,-279.38 2026.82,-268.24 2286.39,-232 2289.11,-231.62 2291.88,-231.17 2294.67,-230.66"/>
<polygon fill="midnightblue" stroke="midnightblue" points="967.38,-278.39 957.41,-281.99 967.45,-285.39 967.38,-278.39"/>
</g>
<!-- Node29 -->
<g id="node29" class="node">
<title>Node29</title>
<g id="a_node29"><a xlink:href="d__meter2_8h.html" target="_top" xlink:title=" ">
<polygon fill="white" stroke="black" points="489.39,-207 489.39,-226 623.39,-226 623.39,-207 489.39,-207"/>
<text text-anchor="middle" x="556.39" y="-214" font-family="Helvetica,sans-Serif" font-size="10.00">include/d/meter/d_meter2.h</text>
</a>
</g>
</g>
<!-- Node5&#45;&gt;Node29 -->
<g id="edge30" class="edge">
<title>Node5&#45;&gt;Node29</title>
<path fill="none" stroke="midnightblue" d="M837.33,-270.28C768.57,-257.36 661.93,-237.33 601.75,-226.02"/>
<polygon fill="midnightblue" stroke="midnightblue" points="836.71,-273.72 847.19,-272.13 838,-266.84 836.71,-273.72"/>
</g>
<!-- Node34 -->
<g id="node34" class="node">
<title>Node34</title>
<g id="a_node34"><a xlink:href="d__msg__object_8h.html" target="_top" xlink:title=" ">
<polygon fill="white" stroke="black" points="717.39,-134.5 717.39,-164.5 827.39,-164.5 827.39,-134.5 717.39,-134.5"/>
<text text-anchor="start" x="725.39" y="-152.5" font-family="Helvetica,sans-Serif" font-size="10.00">include/d/msg/d_msg</text>
<text text-anchor="middle" x="772.39" y="-141.5" font-family="Helvetica,sans-Serif" font-size="10.00">_object.h</text>
</a>
</g>
</g>
<!-- Node5&#45;&gt;Node34 -->
<g id="edge42" class="edge">
<title>Node5&#45;&gt;Node34</title>
<path fill="none" stroke="midnightblue" d="M837.29,-277.88C805.95,-271.99 771,-259.23 751.39,-232 736.79,-211.72 751.07,-182.17 762.16,-164.78"/>
<polygon fill="midnightblue" stroke="midnightblue" points="836.88,-281.36 847.32,-279.56 838.04,-274.45 836.88,-281.36"/>
</g>
<!-- Node25&#45;&gt;Node10 -->
<g id="edge26" class="edge">
<title>Node25&#45;&gt;Node10</title>
<path fill="none" stroke="midnightblue" d="M239.88,-134.6C221.4,-123.69 195.79,-108.55 177.24,-97.59"/>
<polygon fill="midnightblue" stroke="midnightblue" points="238.17,-137.66 248.56,-139.73 241.73,-131.63 238.17,-137.66"/>
</g>
<!-- Node26 -->
<g id="node26" class="node">
<title>Node26</title>
<g id="a_node26"><a xlink:href="d__item_8cpp.html" target="_top" xlink:title=" ">
<polygon fill="white" stroke="black" points="225.89,-73 225.89,-92 314.89,-92 314.89,-73 225.89,-73"/>
<text text-anchor="middle" x="270.39" y="-80" font-family="Helvetica,sans-Serif" font-size="10.00">src/d/d_item.cpp</text>
</a>
</g>
</g>
<!-- Node25&#45;&gt;Node26 -->
<g id="edge27" class="edge">
<title>Node25&#45;&gt;Node26</title>
<path fill="none" stroke="midnightblue" d="M265.43,-129.54C266.77,-117.17 268.44,-101.62 269.46,-92.13"/>
<polygon fill="midnightblue" stroke="midnightblue" points="261.93,-129.42 264.34,-139.73 268.89,-130.17 261.93,-129.42"/>
</g>
<!-- Node28 -->
<g id="node28" class="node">
<title>Node28</title>
<g id="a_node28"><a xlink:href="d__kantera__icon__meter_8cpp.html" target="_top" xlink:title=" ">
<polygon fill="white" stroke="black" points="2291.89,-134.5 2291.89,-164.5 2398.89,-164.5 2398.89,-134.5 2291.89,-134.5"/>
<text text-anchor="start" x="2299.89" y="-152.5" font-family="Helvetica,sans-Serif" font-size="10.00">src/d/d_kantera_icon</text>
<text text-anchor="middle" x="2345.39" y="-141.5" font-family="Helvetica,sans-Serif" font-size="10.00">_meter.cpp</text>
</a>
</g>
</g>
<!-- Node27&#45;&gt;Node28 -->
<g id="edge29" class="edge">
<title>Node27&#45;&gt;Node28</title>
<path fill="none" stroke="midnightblue" d="M2345.39,-191.11C2345.39,-182.15 2345.39,-172.32 2345.39,-164.58"/>
<polygon fill="midnightblue" stroke="midnightblue" points="2341.89,-191.4 2345.39,-201.4 2348.89,-191.4 2341.89,-191.4"/>
</g>
<!-- Node30 -->
<g id="node30" class="node">
<title>Node30</title>
<g id="a_node30"><a xlink:href="d__meter2_8cpp.html" target="_top" xlink:title=" ">
<polygon fill="white" stroke="black" points="492.39,-140 492.39,-159 620.39,-159 620.39,-140 492.39,-140"/>
<text text-anchor="middle" x="556.39" y="-147" font-family="Helvetica,sans-Serif" font-size="10.00">src/d/meter/d_meter2.cpp</text>
</a>
</g>
</g>
<!-- Node29&#45;&gt;Node30 -->
<g id="edge31" class="edge">
<title>Node29&#45;&gt;Node30</title>
<path fill="none" stroke="midnightblue" d="M556.39,-196.54C556.39,-184.17 556.39,-168.62 556.39,-159.13"/>
<polygon fill="midnightblue" stroke="midnightblue" points="552.89,-196.73 556.39,-206.73 559.89,-196.73 552.89,-196.73"/>
</g>
<!-- Node31 -->
<g id="node31" class="node">
<title>Node31</title>
<g id="a_node31"><a xlink:href="d__meter2__info_8h.html" target="_top" xlink:title=" ">
<polygon fill="white" stroke="black" points="328.89,-134.5 328.89,-164.5 455.89,-164.5 455.89,-134.5 328.89,-134.5"/>
<text text-anchor="start" x="336.89" y="-152.5" font-family="Helvetica,sans-Serif" font-size="10.00">include/d/meter/d_meter2</text>
<text text-anchor="middle" x="392.39" y="-141.5" font-family="Helvetica,sans-Serif" font-size="10.00">_info.h</text>
</a>
</g>
</g>
<!-- Node29&#45;&gt;Node31 -->
<g id="edge32" class="edge">
<title>Node29&#45;&gt;Node31</title>
<path fill="none" stroke="midnightblue" d="M525,-203.06C497.22,-192.05 456.71,-175.99 427.79,-164.53"/>
<polygon fill="midnightblue" stroke="midnightblue" points="524.03,-206.44 534.61,-206.87 526.61,-199.93 524.03,-206.44"/>
</g>
<!-- Node31&#45;&gt;Node3 -->
<g id="edge37" class="edge">
<title>Node31&#45;&gt;Node3</title>
<path fill="none" stroke="midnightblue" d="M318.76,-164.76C234.67,-173.79 51.12,-150.83 6.39,-201 -2.78,-211.28 -1.23,-220.52 6.39,-232 37.18,-278.38 200.21,-322.87 274.02,-340.98"/>
<polygon fill="midnightblue" stroke="midnightblue" points="319.28,-168.22 328.75,-163.46 318.38,-161.28 319.28,-168.22"/>
</g>
<!-- Node31&#45;&gt;Node10 -->
<g id="edge33" class="edge">
<title>Node31&#45;&gt;Node10</title>
<path fill="none" stroke="midnightblue" d="M331.17,-131.85C292.2,-121.25 242.29,-107.68 205.28,-97.61"/>
<polygon fill="midnightblue" stroke="midnightblue" points="330.26,-135.23 340.83,-134.48 332.1,-128.47 330.26,-135.23"/>
</g>
<!-- Node31&#45;&gt;Node18 -->
<g id="edge35" class="edge">
<title>Node31&#45;&gt;Node18</title>
<path fill="none" stroke="midnightblue" d="M459.89,-132.07C504.51,-121.2 562.29,-107.14 604.17,-96.94"/>
<polygon fill="midnightblue" stroke="midnightblue" points="458.89,-128.71 450,-134.48 460.54,-135.51 458.89,-128.71"/>
</g>
<!-- Node31&#45;&gt;Node22 -->
<g id="edge36" class="edge">
<title>Node31&#45;&gt;Node22</title>
<path fill="none" stroke="midnightblue" d="M431.17,-129.97C457.29,-117.48 490.53,-101.6 510.59,-92.01"/>
<polygon fill="midnightblue" stroke="midnightblue" points="429.42,-126.93 421.9,-134.4 432.43,-133.24 429.42,-126.93"/>
</g>
<!-- Node31&#45;&gt;Node26 -->
<g id="edge34" class="edge">
<title>Node31&#45;&gt;Node26</title>
<path fill="none" stroke="midnightblue" d="M356.99,-129.64C333.65,-117.2 304.2,-101.51 286.36,-92.01"/>
<polygon fill="midnightblue" stroke="midnightblue" points="355.45,-132.78 365.92,-134.4 358.74,-126.6 355.45,-132.78"/>
</g>
<!-- Node32 -->
<g id="node32" class="node">
<title>Node32</title>
<g id="a_node32"><a xlink:href="d__menu__window_8h.html" target="_top" xlink:title=" ">
<polygon fill="white" stroke="black" points="332.39,-67.5 332.39,-97.5 452.39,-97.5 452.39,-67.5 332.39,-67.5"/>
<text text-anchor="start" x="340.39" y="-85.5" font-family="Helvetica,sans-Serif" font-size="10.00">include/d/menu/d_menu</text>
<text text-anchor="middle" x="392.39" y="-74.5" font-family="Helvetica,sans-Serif" font-size="10.00">_window.h</text>
</a>
</g>
</g>
<!-- Node31&#45;&gt;Node32 -->
<g id="edge38" class="edge">
<title>Node31&#45;&gt;Node32</title>
<path fill="none" stroke="midnightblue" d="M385.85,-124.4C385.4,-115.37 385.69,-105.41 386.72,-97.58"/>
<polygon fill="midnightblue" stroke="midnightblue" points="382.36,-124.74 386.71,-134.4 389.34,-124.13 382.36,-124.74"/>
</g>
<!-- Node32&#45;&gt;Node20 -->
<g id="edge40" class="edge">
<title>Node32&#45;&gt;Node20</title>
<path fill="none" stroke="midnightblue" d="M462.45,-66.82C547.89,-50.27 635.88,-34.79 690.26,-25.4"/>
<polygon fill="midnightblue" stroke="midnightblue" points="461.73,-63.4 452.58,-68.74 463.07,-70.27 461.73,-63.4"/>
</g>
<!-- Node32&#45;&gt;Node31 -->
<g id="edge41" class="edge">
<title>Node32&#45;&gt;Node31</title>
<path fill="none" stroke="midnightblue" d="M398.94,-107.57C399.39,-116.6 399.1,-126.56 398.07,-134.4"/>
<polygon fill="midnightblue" stroke="midnightblue" points="402.42,-107.24 398.07,-97.58 395.45,-107.84 402.42,-107.24"/>
</g>
<!-- Node33 -->
<g id="node33" class="node">
<title>Node33</title>
<g id="a_node33"><a xlink:href="d__menu__window_8cpp.html" target="_top" xlink:title=" ">
<polygon fill="white" stroke="black" points="312.89,-6 312.89,-25 471.89,-25 471.89,-6 312.89,-6"/>
<text text-anchor="middle" x="392.39" y="-13" font-family="Helvetica,sans-Serif" font-size="10.00">src/d/menu/d_menu_window.cpp</text>
</a>
</g>
</g>
<!-- Node32&#45;&gt;Node33 -->
<g id="edge39" class="edge">
<title>Node32&#45;&gt;Node33</title>
<path fill="none" stroke="midnightblue" d="M392.39,-57.25C392.39,-46.02 392.39,-33.38 392.39,-25.19"/>
<polygon fill="midnightblue" stroke="midnightblue" points="388.89,-57.4 392.39,-67.4 395.89,-57.4 388.89,-57.4"/>
</g>
<!-- Node34&#45;&gt;Node18 -->
<g id="edge43" class="edge">
<title>Node34&#45;&gt;Node18</title>
<path fill="none" stroke="midnightblue" d="M739.01,-129.3C721.32,-119.12 699.99,-106.85 683.86,-97.58"/>
<polygon fill="midnightblue" stroke="midnightblue" points="737.46,-132.44 747.87,-134.4 740.95,-126.38 737.46,-132.44"/>
</g>
<!-- Node34&#45;&gt;Node20 -->
<g id="edge44" class="edge">
<title>Node34&#45;&gt;Node20</title>
<path fill="none" stroke="midnightblue" d="M766.91,-124.39C760.67,-96.9 750.66,-52.89 745.58,-30.52"/>
<polygon fill="midnightblue" stroke="midnightblue" points="763.55,-125.4 769.18,-134.37 770.38,-123.85 763.55,-125.4"/>
</g>
<!-- Node35 -->
<g id="node35" class="node">
<title>Node35</title>
<g id="a_node35"><a xlink:href="d__msg__object_8cpp.html" target="_top" xlink:title=" ">
<polygon fill="white" stroke="black" points="770.39,-73 770.39,-92 912.39,-92 912.39,-73 770.39,-73"/>
<text text-anchor="middle" x="841.39" y="-80" font-family="Helvetica,sans-Serif" font-size="10.00">src/d/msg/d_msg_object.cpp</text>
</a>
</g>
</g>
<!-- Node34&#45;&gt;Node35 -->
<g id="edge45" class="edge">
<title>Node34&#45;&gt;Node35</title>
<path fill="none" stroke="midnightblue" d="M794.86,-127.34C807.53,-115.4 822.67,-101.14 832.16,-92.19"/>
<polygon fill="midnightblue" stroke="midnightblue" points="792.24,-124.99 787.36,-134.4 797.04,-130.09 792.24,-124.99"/>
</g>
<!-- Node36&#45;&gt;Node5 -->
<g id="edge47" class="edge">
<title>Node36&#45;&gt;Node5</title>
<path fill="none" stroke="midnightblue" d="M633.51,-338.95C692.27,-327.05 787.42,-307.78 847.36,-295.64"/>
<polygon fill="midnightblue" stroke="midnightblue" points="632.79,-335.52 623.69,-340.94 634.18,-342.38 632.79,-335.52"/>
</g>
</g>
</svg>
