<?xml version="1.0" encoding="UTF-8" standalone="no"?>
<!DOCTYPE svg PUBLIC "-//W3C//DTD SVG 1.1//EN"
 "http://www.w3.org/Graphics/SVG/1.1/DTD/svg11.dtd">
<!-- Generated by graphviz version 7.0.5 (20221223.1930)
 -->
<!-- Title: src/msg/scrn/d_msg_scrn_light.cpp Pages: 1 -->
<svg width="1754pt" height="247pt"
 viewBox="0.00 0.00 1754.00 247.00" xmlns="http://www.w3.org/2000/svg" xmlns:xlink="http://www.w3.org/1999/xlink">
<g id="graph0" class="graph" transform="scale(1 1) rotate(0) translate(4 243)">
<title>src/msg/scrn/d_msg_scrn_light.cpp</title>
<!-- Node1 -->
<g id="node1" class="node">
<title>Node1</title>
<g id="a_node1"><a xlink:title=" ">
<polygon fill="#999999" stroke="#666666" points="813.5,-239 707.5,-239 707.5,-209 813.5,-209 813.5,-239"/>
<text text-anchor="start" x="715.5" y="-227" font-family="Helvetica,sans-Serif" font-size="10.00">src/msg/scrn/d_msg</text>
<text text-anchor="middle" x="760.5" y="-216" font-family="Helvetica,sans-Serif" font-size="10.00">_scrn_light.cpp</text>
</a>
</g>
</g>
<!-- Node2 -->
<g id="node2" class="node">
<title>Node2</title>
<g id="a_node2"><a xlink:href="d__msg__scrn__light_8h.html" target="_top" xlink:title=" ">
<polygon fill="white" stroke="#666666" points="113,-162 0,-162 0,-132 113,-132 113,-162"/>
<text text-anchor="start" x="8" y="-150" font-family="Helvetica,sans-Serif" font-size="10.00">msg/scrn/d_msg_scrn</text>
<text text-anchor="middle" x="56.5" y="-139" font-family="Helvetica,sans-Serif" font-size="10.00">_light.h</text>
</a>
</g>
</g>
<!-- Node1&#45;&gt;Node2 -->
<g id="edge1" class="edge">
<title>Node1&#45;&gt;Node2</title>
<path fill="none" stroke="#63b8ff" d="M707.32,-223.42C597.64,-223.29 338.88,-217.76 127.5,-173 119.33,-171.27 110.81,-168.84 102.62,-166.18"/>
<polygon fill="#63b8ff" stroke="#63b8ff" points="103.76,-162.87 93.17,-162.93 101.49,-169.49 103.76,-162.87"/>
</g>
<!-- Node3 -->
<g id="node3" class="node">
<title>Node3</title>
<g id="a_node3"><a xlink:href="types_8h.html" target="_top" xlink:title=" ">
<polygon fill="white" stroke="#666666" points="139,-85 58,-85 58,-66 139,-66 139,-85"/>
<text text-anchor="middle" x="98.5" y="-73" font-family="Helvetica,sans-Serif" font-size="10.00">dolphin/types.h</text>
</a>
</g>
</g>
<!-- Node1&#45;&gt;Node3 -->
<g id="edge5" class="edge">
<title>Node1&#45;&gt;Node3</title>
<path fill="none" stroke="#63b8ff" d="M707.16,-221.21C569.14,-216.21 207.77,-200.6 161.5,-173 153.68,-168.34 125.16,-121.56 109.31,-94.89"/>
<polygon fill="#63b8ff" stroke="#63b8ff" points="112.43,-93.3 104.33,-86.47 106.41,-96.86 112.43,-93.3"/>
</g>
<!-- Node5 -->
<g id="node5" class="node">
<title>Node5</title>
<g id="a_node5"><a xlink:href="dol2asm_8h.html" target="_top" xlink:title=" ">
<polygon fill="white" stroke="#666666" points="231,-156.5 170,-156.5 170,-137.5 231,-137.5 231,-156.5"/>
<text text-anchor="middle" x="200.5" y="-144.5" font-family="Helvetica,sans-Serif" font-size="10.00">dol2asm.h</text>
</a>
</g>
</g>
<!-- Node1&#45;&gt;Node5 -->
<g id="edge4" class="edge">
<title>Node1&#45;&gt;Node5</title>
<path fill="none" stroke="#63b8ff" d="M707.35,-220.98C592.77,-216.13 325.95,-202.01 240.5,-173 233.74,-170.71 226.95,-167.08 220.93,-163.29"/>
<polygon fill="#63b8ff" stroke="#63b8ff" points="223.16,-160.57 212.93,-157.82 219.21,-166.35 223.16,-160.57"/>
</g>
<!-- Node6 -->
<g id="node6" class="node">
<title>Node6</title>
<g id="a_node6"><a xlink:title=" ">
<polygon fill="#e0e0e0" stroke="#999999" points="400,-167.5 249,-167.5 249,-126.5 400,-126.5 400,-167.5"/>
<text text-anchor="start" x="257" y="-155.5" font-family="Helvetica,sans-Serif" font-size="10.00">asm/msg/scrn/d_msg</text>
<text text-anchor="start" x="257" y="-144.5" font-family="Helvetica,sans-Serif" font-size="10.00">_scrn_light/__ct__19dMsgScrn</text>
<text text-anchor="middle" x="324.5" y="-133.5" font-family="Helvetica,sans-Serif" font-size="10.00">Light_HIO_cFv.s</text>
</a>
</g>
</g>
<!-- Node1&#45;&gt;Node6 -->
<g id="edge6" class="edge">
<title>Node1&#45;&gt;Node6</title>
<path fill="none" stroke="#63b8ff" d="M707.15,-217.83C637.99,-210.57 513.86,-195.66 409.5,-173 406.33,-172.31 403.1,-171.57 399.85,-170.78"/>
<polygon fill="#63b8ff" stroke="#63b8ff" points="400.78,-167.4 390.23,-168.33 399.06,-174.19 400.78,-167.4"/>
</g>
<!-- Node7 -->
<g id="node7" class="node">
<title>Node7</title>
<g id="a_node7"><a xlink:title=" ">
<polygon fill="#e0e0e0" stroke="#999999" points="582.5,-167.5 418.5,-167.5 418.5,-126.5 582.5,-126.5 582.5,-167.5"/>
<text text-anchor="start" x="426.5" y="-155.5" font-family="Helvetica,sans-Serif" font-size="10.00">asm/msg/scrn/d_msg</text>
<text text-anchor="start" x="426.5" y="-144.5" font-family="Helvetica,sans-Serif" font-size="10.00">_scrn_light/updateColor</text>
<text text-anchor="middle" x="500.5" y="-133.5" font-family="Helvetica,sans-Serif" font-size="10.00">__19dMsgScrnLight_HIO_cFUc.s</text>
</a>
</g>
</g>
<!-- Node1&#45;&gt;Node7 -->
<g id="edge7" class="edge">
<title>Node1&#45;&gt;Node7</title>
<path fill="none" stroke="#63b8ff" d="M710.37,-208.54C673.58,-197.93 622.86,-183.3 580.5,-171.08"/>
<polygon fill="#63b8ff" stroke="#63b8ff" points="581.67,-167.77 571.1,-168.36 579.73,-174.5 581.67,-167.77"/>
</g>
<!-- Node8 -->
<g id="node8" class="node">
<title>Node8</title>
<g id="a_node8"><a xlink:title=" ">
<polygon fill="#e0e0e0" stroke="#999999" points="752,-167.5 601,-167.5 601,-126.5 752,-126.5 752,-167.5"/>
<text text-anchor="start" x="609" y="-155.5" font-family="Helvetica,sans-Serif" font-size="10.00">asm/msg/scrn/d_msg</text>
<text text-anchor="start" x="609" y="-144.5" font-family="Helvetica,sans-Serif" font-size="10.00">_scrn_light/__ct__15dMsgScrn</text>
<text text-anchor="middle" x="676.5" y="-133.5" font-family="Helvetica,sans-Serif" font-size="10.00">Light_cFUcUc.s</text>
</a>
</g>
</g>
<!-- Node1&#45;&gt;Node8 -->
<g id="edge8" class="edge">
<title>Node1&#45;&gt;Node8</title>
<path fill="none" stroke="#63b8ff" d="M744.3,-208.54C733.77,-199.13 719.69,-186.57 707.1,-175.32"/>
<polygon fill="#63b8ff" stroke="#63b8ff" points="709.6,-172.86 699.81,-168.81 704.94,-178.08 709.6,-172.86"/>
</g>
<!-- Node9 -->
<g id="node9" class="node">
<title>Node9</title>
<g id="a_node9"><a xlink:title=" ">
<polygon fill="#e0e0e0" stroke="#999999" points="921,-167.5 770,-167.5 770,-126.5 921,-126.5 921,-167.5"/>
<text text-anchor="start" x="778" y="-155.5" font-family="Helvetica,sans-Serif" font-size="10.00">asm/msg/scrn/d_msg</text>
<text text-anchor="start" x="778" y="-144.5" font-family="Helvetica,sans-Serif" font-size="10.00">_scrn_light/__dt__15dMsgScrn</text>
<text text-anchor="middle" x="845.5" y="-133.5" font-family="Helvetica,sans-Serif" font-size="10.00">Light_cFv.s</text>
</a>
</g>
</g>
<!-- Node1&#45;&gt;Node9 -->
<g id="edge9" class="edge">
<title>Node1&#45;&gt;Node9</title>
<path fill="none" stroke="#63b8ff" d="M776.89,-208.54C787.55,-199.13 801.79,-186.57 814.53,-175.32"/>
<polygon fill="#63b8ff" stroke="#63b8ff" points="816.74,-178.05 821.92,-168.8 812.11,-172.8 816.74,-178.05"/>
</g>
<!-- Node10 -->
<g id="node10" class="node">
<title>Node10</title>
<g id="a_node10"><a xlink:title=" ">
<polygon fill="#e0e0e0" stroke="#999999" points="1092,-167.5 939,-167.5 939,-126.5 1092,-126.5 1092,-167.5"/>
<text text-anchor="start" x="947" y="-155.5" font-family="Helvetica,sans-Serif" font-size="10.00">asm/msg/scrn/d_msg</text>
<text text-anchor="start" x="947" y="-144.5" font-family="Helvetica,sans-Serif" font-size="10.00">_scrn_light/draw__15dMsgScrn</text>
<text text-anchor="middle" x="1015.5" y="-133.5" font-family="Helvetica,sans-Serif" font-size="10.00">Light_cFPffffffUc.s</text>
</a>
</g>
</g>
<!-- Node1&#45;&gt;Node10 -->
<g id="edge10" class="edge">
<title>Node1&#45;&gt;Node10</title>
<path fill="none" stroke="#63b8ff" d="M809.67,-208.54C845.67,-197.95 895.28,-183.36 936.77,-171.15"/>
<polygon fill="#63b8ff" stroke="#63b8ff" points="937.63,-174.55 946.24,-168.37 935.65,-167.84 937.63,-174.55"/>
</g>
<!-- Node11 -->
<g id="node11" class="node">
<title>Node11</title>
<g id="a_node11"><a xlink:title=" ">
<polygon fill="#e0e0e0" stroke="#999999" points="1272.5,-173 1110.5,-173 1110.5,-121 1272.5,-121 1272.5,-173"/>
<text text-anchor="start" x="1118.5" y="-161" font-family="Helvetica,sans-Serif" font-size="10.00">asm/msg/scrn/d_msg</text>
<text text-anchor="start" x="1118.5" y="-150" font-family="Helvetica,sans-Serif" font-size="10.00">_scrn_light/draw__15dMsgScrn</text>
<text text-anchor="start" x="1118.5" y="-139" font-family="Helvetica,sans-Serif" font-size="10.00">Light_cFPfffffffQ28JUtility6TColor</text>
<text text-anchor="middle" x="1191.5" y="-128" font-family="Helvetica,sans-Serif" font-size="10.00">Q28JUtility6TColor.s</text>
</a>
</g>
</g>
<!-- Node1&#45;&gt;Node11 -->
<g id="edge11" class="edge">
<title>Node1&#45;&gt;Node11</title>
<path fill="none" stroke="#63b8ff" d="M813.73,-217.29C878.84,-209.84 992.55,-195.35 1098.92,-173.44"/>
<polygon fill="#63b8ff" stroke="#63b8ff" points="1099.62,-176.86 1108.7,-171.39 1098.19,-170.01 1099.62,-176.86"/>
</g>
<!-- Node12 -->
<g id="node12" class="node">
<title>Node12</title>
<g id="a_node12"><a xlink:title=" ">
<polygon fill="#e0e0e0" stroke="#999999" points="1432,-167.5 1291,-167.5 1291,-126.5 1432,-126.5 1432,-167.5"/>
<text text-anchor="start" x="1299" y="-155.5" font-family="Helvetica,sans-Serif" font-size="10.00">asm/msg/scrn/d_msg</text>
<text text-anchor="start" x="1299" y="-144.5" font-family="Helvetica,sans-Serif" font-size="10.00">_scrn_light/drawCommon</text>
<text text-anchor="middle" x="1361.5" y="-133.5" font-family="Helvetica,sans-Serif" font-size="10.00">__15dMsgScrnLight_cFfffff.s</text>
</a>
</g>
</g>
<!-- Node1&#45;&gt;Node12 -->
<g id="edge12" class="edge">
<title>Node1&#45;&gt;Node12</title>
<path fill="none" stroke="#63b8ff" d="M813.91,-221.52C908.87,-218.08 1112.94,-207.04 1281.5,-173 1284.82,-172.33 1288.19,-171.58 1291.58,-170.76"/>
<polygon fill="#63b8ff" stroke="#63b8ff" points="1292.17,-174.22 1300.98,-168.33 1290.42,-167.44 1292.17,-174.22"/>
</g>
<!-- Node13 -->
<g id="node13" class="node">
<title>Node13</title>
<g id="a_node13"><a xlink:title=" ">
<polygon fill="#e0e0e0" stroke="#999999" points="1601,-167.5 1450,-167.5 1450,-126.5 1601,-126.5 1601,-167.5"/>
<text text-anchor="start" x="1458" y="-155.5" font-family="Helvetica,sans-Serif" font-size="10.00">asm/msg/scrn/d_msg</text>
<text text-anchor="start" x="1458" y="-144.5" font-family="Helvetica,sans-Serif" font-size="10.00">_scrn_light/__dt__19dMsgScrn</text>
<text text-anchor="middle" x="1525.5" y="-133.5" font-family="Helvetica,sans-Serif" font-size="10.00">Light_HIO_cFv.s</text>
</a>
</g>
</g>
<!-- Node1&#45;&gt;Node13 -->
<g id="edge13" class="edge">
<title>Node1&#45;&gt;Node13</title>
<path fill="none" stroke="#63b8ff" d="M813.98,-222.98C929.51,-222.09 1210.62,-215.32 1441.5,-173 1445.28,-172.31 1449.13,-171.51 1453.01,-170.63"/>
<polygon fill="#63b8ff" stroke="#63b8ff" points="1453.58,-174.09 1462.47,-168.32 1451.92,-167.29 1453.58,-174.09"/>
</g>
<!-- Node14 -->
<g id="node14" class="node">
<title>Node14</title>
<g id="a_node14"><a xlink:title=" ">
<polygon fill="#e0e0e0" stroke="#999999" points="1746,-167.5 1619,-167.5 1619,-126.5 1746,-126.5 1746,-167.5"/>
<text text-anchor="start" x="1627" y="-155.5" font-family="Helvetica,sans-Serif" font-size="10.00">asm/msg/scrn/d_msg</text>
<text text-anchor="start" x="1627" y="-144.5" font-family="Helvetica,sans-Serif" font-size="10.00">_scrn_light/__sinit</text>
<text text-anchor="middle" x="1682.5" y="-133.5" font-family="Helvetica,sans-Serif" font-size="10.00">_d_msg_scrn_light_cpp.s</text>
</a>
</g>
</g>
<!-- Node1&#45;&gt;Node14 -->
<g id="edge14" class="edge">
<title>Node1&#45;&gt;Node14</title>
<path fill="none" stroke="#63b8ff" d="M813.86,-221.78C975.32,-217.79 1456.91,-203.57 1610.5,-173 1613.5,-172.4 1616.54,-171.71 1619.6,-170.94"/>
<polygon fill="#63b8ff" stroke="#63b8ff" points="1620.5,-174.33 1629.21,-168.29 1618.64,-167.58 1620.5,-174.33"/>
</g>
<!-- Node2&#45;&gt;Node3 -->
<g id="edge2" class="edge">
<title>Node2&#45;&gt;Node3</title>
<path fill="none" stroke="#63b8ff" d="M65.2,-131.6C71.61,-120.99 80.38,-106.48 87.31,-95.02"/>
<polygon fill="#63b8ff" stroke="#63b8ff" points="90.3,-96.84 92.47,-86.47 84.3,-93.22 90.3,-96.84"/>
</g>
<!-- Node4 -->
<g id="node4" class="node">
<title>Node4</title>
<g id="a_node4"><a xlink:href="stddef_8h.html" target="_top" xlink:title=" ">
<polygon fill="white" stroke="#666666" points="166.5,-30 30.5,-30 30.5,0 166.5,0 166.5,-30"/>
<text text-anchor="start" x="38.5" y="-18" font-family="Helvetica,sans-Serif" font-size="10.00">MSL_C/MSL_Common/Src</text>
<text text-anchor="middle" x="98.5" y="-7" font-family="Helvetica,sans-Serif" font-size="10.00">/stddef.h</text>
</a>
</g>
</g>
<!-- Node3&#45;&gt;Node4 -->
<g id="edge3" class="edge">
<title>Node3&#45;&gt;Node4</title>
<path fill="none" stroke="#63b8ff" d="M98.5,-65.87C98.5,-59.4 98.5,-50.2 98.5,-41.45"/>
<polygon fill="#63b8ff" stroke="#63b8ff" points="102,-41.63 98.5,-31.63 95,-41.63 102,-41.63"/>
</g>
</g>
</svg>
