<?xml version="1.0" encoding="UTF-8" standalone="no"?>
<!DOCTYPE svg PUBLIC "-//W3C//DTD SVG 1.1//EN"
 "http://www.w3.org/Graphics/SVG/1.1/DTD/svg11.dtd">
<!-- Generated by graphviz version 7.0.5 (20221223.1930)
 -->
<!-- Title: src/d/meter/d_meter_HIO.cpp Pages: 1 -->
<svg width="3165pt" height="423pt"
 viewBox="0.00 0.00 3164.52 423.00" xmlns="http://www.w3.org/2000/svg" xmlns:xlink="http://www.w3.org/1999/xlink">
<g id="graph0" class="graph" transform="scale(1 1) rotate(0) translate(4 419)">
<title>src/d/meter/d_meter_HIO.cpp</title>
<!-- Node1 -->
<g id="node1" class="node">
<title>Node1</title>
<g id="a_node1"><a xlink:title=" ">
<polygon fill="#999999" stroke="#666666" points="1858.02,-415 1754.02,-415 1754.02,-385 1858.02,-385 1858.02,-415"/>
<text text-anchor="start" x="1762.02" y="-403" font-family="Helvetica,sans-Serif" font-size="10.00">src/d/meter/d_meter</text>
<text text-anchor="middle" x="1806.02" y="-392" font-family="Helvetica,sans-Serif" font-size="10.00">_HIO.cpp</text>
</a>
</g>
</g>
<!-- Node2 -->
<g id="node2" class="node">
<title>Node2</title>
<g id="a_node2"><a xlink:href="d__meter__HIO_8h.html" target="_top" xlink:title=" ">
<polygon fill="white" stroke="#666666" points="318.52,-338 199.52,-338 199.52,-319 318.52,-319 318.52,-338"/>
<text text-anchor="middle" x="259.02" y="-326" font-family="Helvetica,sans-Serif" font-size="10.00">d/meter/d_meter_HIO.h</text>
</a>
</g>
</g>
<!-- Node1&#45;&gt;Node2 -->
<g id="edge1" class="edge">
<title>Node1&#45;&gt;Node2</title>
<path fill="none" stroke="#63b8ff" d="M1753.67,-397.87C1576.27,-393.86 981.59,-378.93 491.02,-349 436.9,-345.7 375.8,-340.5 329.9,-336.31"/>
<polygon fill="#63b8ff" stroke="#63b8ff" points="330.35,-332.83 320.07,-335.4 329.71,-339.8 330.35,-332.83"/>
</g>
<!-- Node5 -->
<g id="node5" class="node">
<title>Node5</title>
<g id="a_node5"><a xlink:href="types_8h.html" target="_top" xlink:title=" ">
<polygon fill="white" stroke="#666666" points="453.52,-90.5 372.52,-90.5 372.52,-71.5 453.52,-71.5 453.52,-90.5"/>
<text text-anchor="middle" x="413.02" y="-78.5" font-family="Helvetica,sans-Serif" font-size="10.00">dolphin/types.h</text>
</a>
</g>
</g>
<!-- Node1&#45;&gt;Node5 -->
<g id="edge35" class="edge">
<title>Node1&#45;&gt;Node5</title>
<path fill="none" stroke="#63b8ff" d="M1753.64,-399.31C1584.16,-399.81 1058.34,-397.43 1001.02,-349 971.21,-323.81 981.02,-302.53 981.02,-263.5 981.02,-263.5 981.02,-263.5 981.02,-201 981.02,-96.14 605.51,-83.13 465.13,-81.93"/>
<polygon fill="#63b8ff" stroke="#63b8ff" points="465.4,-78.43 455.38,-81.86 465.36,-85.43 465.4,-78.43"/>
</g>
<!-- Node7 -->
<g id="node7" class="node">
<title>Node7</title>
<g id="a_node7"><a xlink:href="global_8h.html" target="_top" xlink:title=" ">
<polygon fill="white" stroke="#666666" points="465.02,-151 415.02,-151 415.02,-132 465.02,-132 465.02,-151"/>
<text text-anchor="middle" x="440.02" y="-139" font-family="Helvetica,sans-Serif" font-size="10.00">global.h</text>
</a>
</g>
</g>
<!-- Node1&#45;&gt;Node7 -->
<g id="edge36" class="edge">
<title>Node1&#45;&gt;Node7</title>
<path fill="none" stroke="#63b8ff" d="M1753.7,-398.8C1573.97,-397.73 982.63,-391.04 798.02,-349 664.26,-318.54 629.2,-298.72 519.02,-217 495.25,-199.37 470.94,-175.36 455.68,-159.42"/>
<polygon fill="#63b8ff" stroke="#63b8ff" points="458.64,-157.45 449.23,-152.58 453.54,-162.26 458.64,-157.45"/>
</g>
<!-- Node14 -->
<g id="node14" class="node">
<title>Node14</title>
<g id="a_node14"><a xlink:href="d__save_8h.html" target="_top" xlink:title=" ">
<polygon fill="white" stroke="#666666" points="712.02,-272 624.02,-272 624.02,-253 712.02,-253 712.02,-272"/>
<text text-anchor="middle" x="668.02" y="-260" font-family="Helvetica,sans-Serif" font-size="10.00">d/save/d_save.h</text>
</a>
</g>
</g>
<!-- Node1&#45;&gt;Node14 -->
<g id="edge20" class="edge">
<title>Node1&#45;&gt;Node14</title>
<path fill="none" stroke="#63b8ff" d="M1753.69,-397.38C1594.81,-392.23 1119.49,-375.02 967.02,-349 869.43,-332.35 758.24,-295.68 703,-276.22"/>
<polygon fill="#63b8ff" stroke="#63b8ff" points="704.42,-273.01 693.83,-272.96 702.08,-279.61 704.42,-273.01"/>
</g>
<!-- Node22 -->
<g id="node22" class="node">
<title>Node22</title>
<g id="a_node22"><a xlink:href="dol2asm_8h.html" target="_top" xlink:title=" ">
<polygon fill="white" stroke="#666666" points="1070.52,-338 1009.52,-338 1009.52,-319 1070.52,-319 1070.52,-338"/>
<text text-anchor="middle" x="1040.02" y="-326" font-family="Helvetica,sans-Serif" font-size="10.00">dol2asm.h</text>
</a>
</g>
</g>
<!-- Node1&#45;&gt;Node22 -->
<g id="edge34" class="edge">
<title>Node1&#45;&gt;Node22</title>
<path fill="none" stroke="#63b8ff" d="M1753.71,-397.99C1609.3,-394.8 1207.34,-383.03 1080.02,-349 1074.92,-347.64 1069.71,-345.62 1064.79,-343.39"/>
<polygon fill="#63b8ff" stroke="#63b8ff" points="1066.54,-340.35 1056.03,-339.01 1063.42,-346.61 1066.54,-340.35"/>
</g>
<!-- Node23 -->
<g id="node23" class="node">
<title>Node23</title>
<g id="a_node23"><a xlink:title=" ">
<polygon fill="#e0e0e0" stroke="#999999" points="1201.52,-349 1088.52,-349 1088.52,-308 1201.52,-308 1201.52,-349"/>
<text text-anchor="start" x="1096.52" y="-337" font-family="Helvetica,sans-Serif" font-size="10.00">asm/d/meter/d_meter</text>
<text text-anchor="start" x="1096.52" y="-326" font-family="Helvetica,sans-Serif" font-size="10.00">_HIO/__dt__16dMeter</text>
<text text-anchor="middle" x="1145.02" y="-315" font-family="Helvetica,sans-Serif" font-size="10.00">_fmapHIO_cFv.s</text>
</a>
</g>
</g>
<!-- Node1&#45;&gt;Node23 -->
<g id="edge37" class="edge">
<title>Node1&#45;&gt;Node23</title>
<path fill="none" stroke="#63b8ff" d="M1753.81,-398.17C1651.57,-395.78 1417.82,-386.54 1212.99,-349.14"/>
<polygon fill="#63b8ff" stroke="#63b8ff" points="1213.68,-345.71 1203.21,-347.33 1212.4,-352.59 1213.68,-345.71"/>
</g>
<!-- Node24 -->
<g id="node24" class="node">
<title>Node24</title>
<g id="a_node24"><a xlink:title=" ">
<polygon fill="#e0e0e0" stroke="#999999" points="1352.02,-349 1220.02,-349 1220.02,-308 1352.02,-308 1352.02,-349"/>
<text text-anchor="start" x="1228.02" y="-337" font-family="Helvetica,sans-Serif" font-size="10.00">asm/d/meter/d_meter</text>
<text text-anchor="start" x="1228.02" y="-326" font-family="Helvetica,sans-Serif" font-size="10.00">_HIO/__dt__25dMeter</text>
<text text-anchor="middle" x="1286.02" y="-315" font-family="Helvetica,sans-Serif" font-size="10.00">_drawLightDropHIO_cFv.s</text>
</a>
</g>
</g>
<!-- Node1&#45;&gt;Node24 -->
<g id="edge38" class="edge">
<title>Node1&#45;&gt;Node24</title>
<path fill="none" stroke="#63b8ff" d="M1753.59,-395.54C1672.06,-389.63 1509.84,-375.75 1363.14,-349.25"/>
<polygon fill="#63b8ff" stroke="#63b8ff" points="1364.11,-345.87 1353.64,-347.51 1362.85,-352.76 1364.11,-345.87"/>
</g>
<!-- Node25 -->
<g id="node25" class="node">
<title>Node25</title>
<g id="a_node25"><a xlink:title=" ">
<polygon fill="#e0e0e0" stroke="#999999" points="1508.02,-349 1370.02,-349 1370.02,-308 1508.02,-308 1508.02,-349"/>
<text text-anchor="start" x="1378.02" y="-337" font-family="Helvetica,sans-Serif" font-size="10.00">asm/d/meter/d_meter</text>
<text text-anchor="start" x="1378.02" y="-326" font-family="Helvetica,sans-Serif" font-size="10.00">_HIO/__dt__25dMeter</text>
<text text-anchor="middle" x="1439.02" y="-315" font-family="Helvetica,sans-Serif" font-size="10.00">_drawEmpButtonHIO_cFv.s</text>
</a>
</g>
</g>
<!-- Node1&#45;&gt;Node25 -->
<g id="edge39" class="edge">
<title>Node1&#45;&gt;Node25</title>
<path fill="none" stroke="#63b8ff" d="M1753.59,-391.12C1697.9,-382.48 1607.05,-367.64 1519.49,-349.45"/>
<polygon fill="#63b8ff" stroke="#63b8ff" points="1520.26,-346.04 1509.76,-347.41 1518.83,-352.89 1520.26,-346.04"/>
</g>
<!-- Node26 -->
<g id="node26" class="node">
<title>Node26</title>
<g id="a_node26"><a xlink:title=" ">
<polygon fill="#e0e0e0" stroke="#999999" points="1660.02,-349 1526.02,-349 1526.02,-308 1660.02,-308 1660.02,-349"/>
<text text-anchor="start" x="1534.02" y="-337" font-family="Helvetica,sans-Serif" font-size="10.00">asm/d/meter/d_meter</text>
<text text-anchor="start" x="1534.02" y="-326" font-family="Helvetica,sans-Serif" font-size="10.00">_HIO/__dt__24dMeter</text>
<text text-anchor="middle" x="1593.02" y="-315" font-family="Helvetica,sans-Serif" font-size="10.00">_drawMiniGameHIO_cFv.s</text>
</a>
</g>
</g>
<!-- Node1&#45;&gt;Node26 -->
<g id="edge40" class="edge">
<title>Node1&#45;&gt;Node26</title>
<path fill="none" stroke="#63b8ff" d="M1761.62,-384.52C1733.58,-375.37 1696.71,-363.33 1664.6,-352.86"/>
<polygon fill="#63b8ff" stroke="#63b8ff" points="1665.94,-349.61 1655.35,-349.84 1663.77,-356.27 1665.94,-349.61"/>
</g>
<!-- Node27 -->
<g id="node27" class="node">
<title>Node27</title>
<g id="a_node27"><a xlink:title=" ">
<polygon fill="#e0e0e0" stroke="#999999" points="1791.52,-349 1678.52,-349 1678.52,-308 1791.52,-308 1791.52,-349"/>
<text text-anchor="start" x="1686.52" y="-337" font-family="Helvetica,sans-Serif" font-size="10.00">asm/d/meter/d_meter</text>
<text text-anchor="start" x="1686.52" y="-326" font-family="Helvetica,sans-Serif" font-size="10.00">_HIO/__dt__21dMeter</text>
<text text-anchor="middle" x="1735.02" y="-315" font-family="Helvetica,sans-Serif" font-size="10.00">_drawSkillHIO_cFv.s</text>
</a>
</g>
</g>
<!-- Node1&#45;&gt;Node27 -->
<g id="edge41" class="edge">
<title>Node1&#45;&gt;Node27</title>
<path fill="none" stroke="#63b8ff" d="M1791.31,-384.6C1783.26,-376.73 1773.02,-366.7 1763.49,-357.37"/>
<polygon fill="#63b8ff" stroke="#63b8ff" points="1766.04,-354.97 1756.44,-350.47 1761.14,-359.97 1766.04,-354.97"/>
</g>
<!-- Node28 -->
<g id="node28" class="node">
<title>Node28</title>
<g id="a_node28"><a xlink:title=" ">
<polygon fill="#e0e0e0" stroke="#999999" points="1946.02,-349 1810.02,-349 1810.02,-308 1946.02,-308 1946.02,-349"/>
<text text-anchor="start" x="1818.02" y="-337" font-family="Helvetica,sans-Serif" font-size="10.00">asm/d/meter/d_meter</text>
<text text-anchor="start" x="1818.02" y="-326" font-family="Helvetica,sans-Serif" font-size="10.00">_HIO/__dt__27dMeter</text>
<text text-anchor="middle" x="1878.02" y="-315" font-family="Helvetica,sans-Serif" font-size="10.00">_drawCalibrationHIO_cFv.s</text>
</a>
</g>
</g>
<!-- Node1&#45;&gt;Node28 -->
<g id="edge42" class="edge">
<title>Node1&#45;&gt;Node28</title>
<path fill="none" stroke="#63b8ff" d="M1820.93,-384.6C1829.09,-376.73 1839.47,-366.7 1849.14,-357.37"/>
<polygon fill="#63b8ff" stroke="#63b8ff" points="1851.53,-359.93 1856.3,-350.47 1846.67,-354.89 1851.53,-359.93"/>
</g>
<!-- Node29 -->
<g id="node29" class="node">
<title>Node29</title>
<g id="a_node29"><a xlink:title=" ">
<polygon fill="#e0e0e0" stroke="#999999" points="2081.52,-349 1964.52,-349 1964.52,-308 2081.52,-308 2081.52,-349"/>
<text text-anchor="start" x="1972.52" y="-337" font-family="Helvetica,sans-Serif" font-size="10.00">asm/d/meter/d_meter</text>
<text text-anchor="start" x="1972.52" y="-326" font-family="Helvetica,sans-Serif" font-size="10.00">_HIO/__dt__22dMeter</text>
<text text-anchor="middle" x="2023.02" y="-315" font-family="Helvetica,sans-Serif" font-size="10.00">_drawInsectHIO_cFv.s</text>
</a>
</g>
</g>
<!-- Node1&#45;&gt;Node29 -->
<g id="edge43" class="edge">
<title>Node1&#45;&gt;Node29</title>
<path fill="none" stroke="#63b8ff" d="M1851.24,-384.52C1880.83,-375.04 1920.07,-362.47 1953.58,-351.74"/>
<polygon fill="#63b8ff" stroke="#63b8ff" points="1954.34,-355.17 1962.79,-348.79 1952.2,-348.5 1954.34,-355.17"/>
</g>
<!-- Node30 -->
<g id="node30" class="node">
<title>Node30</title>
<g id="a_node30"><a xlink:title=" ">
<polygon fill="#e0e0e0" stroke="#999999" points="2222.02,-349 2100.02,-349 2100.02,-308 2222.02,-308 2222.02,-349"/>
<text text-anchor="start" x="2108.02" y="-337" font-family="Helvetica,sans-Serif" font-size="10.00">asm/d/meter/d_meter</text>
<text text-anchor="start" x="2108.02" y="-326" font-family="Helvetica,sans-Serif" font-size="10.00">_HIO/__dt__23dMeter</text>
<text text-anchor="middle" x="2161.02" y="-315" font-family="Helvetica,sans-Serif" font-size="10.00">_drawFishingHIO_cFv.s</text>
</a>
</g>
</g>
<!-- Node1&#45;&gt;Node30 -->
<g id="edge44" class="edge">
<title>Node1&#45;&gt;Node30</title>
<path fill="none" stroke="#63b8ff" d="M1858.33,-391.4C1913.37,-383.05 2002.72,-368.5 2088.64,-349.44"/>
<polygon fill="#63b8ff" stroke="#63b8ff" points="2089.18,-352.9 2098.17,-347.3 2087.64,-346.07 2089.18,-352.9"/>
</g>
<!-- Node31 -->
<g id="node31" class="node">
<title>Node31</title>
<g id="a_node31"><a xlink:title=" ">
<polygon fill="#e0e0e0" stroke="#999999" points="2356.02,-349 2240.02,-349 2240.02,-308 2356.02,-308 2356.02,-349"/>
<text text-anchor="start" x="2248.02" y="-337" font-family="Helvetica,sans-Serif" font-size="10.00">asm/d/meter/d_meter</text>
<text text-anchor="start" x="2248.02" y="-326" font-family="Helvetica,sans-Serif" font-size="10.00">_HIO/__dt__22dMeter</text>
<text text-anchor="middle" x="2298.02" y="-315" font-family="Helvetica,sans-Serif" font-size="10.00">_drawLetterHIO_cFv.s</text>
</a>
</g>
</g>
<!-- Node1&#45;&gt;Node31 -->
<g id="edge45" class="edge">
<title>Node1&#45;&gt;Node31</title>
<path fill="none" stroke="#63b8ff" d="M1858.47,-395.64C1937.03,-390.01 2089.98,-376.65 2228.48,-349.34"/>
<polygon fill="#63b8ff" stroke="#63b8ff" points="2229.09,-352.79 2238.21,-347.39 2227.72,-345.93 2229.09,-352.79"/>
</g>
<!-- Node32 -->
<g id="node32" class="node">
<title>Node32</title>
<g id="a_node32"><a xlink:title=" ">
<polygon fill="#e0e0e0" stroke="#999999" points="2493.52,-349 2374.52,-349 2374.52,-308 2493.52,-308 2493.52,-349"/>
<text text-anchor="start" x="2382.52" y="-337" font-family="Helvetica,sans-Serif" font-size="10.00">asm/d/meter/d_meter</text>
<text text-anchor="start" x="2382.52" y="-326" font-family="Helvetica,sans-Serif" font-size="10.00">_HIO/__dt__22dMeter</text>
<text text-anchor="middle" x="2434.02" y="-315" font-family="Helvetica,sans-Serif" font-size="10.00">_drawOptionHIO_cFv.s</text>
</a>
</g>
</g>
<!-- Node1&#45;&gt;Node32 -->
<g id="edge46" class="edge">
<title>Node1&#45;&gt;Node32</title>
<path fill="none" stroke="#63b8ff" d="M1858.48,-397.56C1956.12,-394.18 2172.36,-383.38 2363.25,-349.12"/>
<polygon fill="#63b8ff" stroke="#63b8ff" points="2363.64,-352.61 2372.85,-347.37 2362.38,-345.72 2363.64,-352.61"/>
</g>
<!-- Node33 -->
<g id="node33" class="node">
<title>Node33</title>
<g id="a_node33"><a xlink:title=" ">
<polygon fill="#e0e0e0" stroke="#999999" points="2632.02,-349 2512.02,-349 2512.02,-308 2632.02,-308 2632.02,-349"/>
<text text-anchor="start" x="2520.02" y="-337" font-family="Helvetica,sans-Serif" font-size="10.00">asm/d/meter/d_meter</text>
<text text-anchor="start" x="2520.02" y="-326" font-family="Helvetica,sans-Serif" font-size="10.00">_HIO/__dt__23dMeter</text>
<text text-anchor="middle" x="2572.02" y="-315" font-family="Helvetica,sans-Serif" font-size="10.00">_drawCollectHIO_cFv.s</text>
</a>
</g>
</g>
<!-- Node1&#45;&gt;Node33 -->
<g id="edge47" class="edge">
<title>Node1&#45;&gt;Node33</title>
<path fill="none" stroke="#63b8ff" d="M1858.48,-398.87C1973.46,-397.81 2256.19,-390.95 2500.37,-349.27"/>
<polygon fill="#63b8ff" stroke="#63b8ff" points="2500.85,-352.74 2510.1,-347.59 2499.65,-345.85 2500.85,-352.74"/>
</g>
<!-- Node34 -->
<g id="node34" class="node">
<title>Node34</title>
<g id="a_node34"><a xlink:title=" ">
<polygon fill="#e0e0e0" stroke="#999999" points="2763.52,-349 2650.52,-349 2650.52,-308 2763.52,-308 2763.52,-349"/>
<text text-anchor="start" x="2658.52" y="-337" font-family="Helvetica,sans-Serif" font-size="10.00">asm/d/meter/d_meter</text>
<text text-anchor="start" x="2658.52" y="-326" font-family="Helvetica,sans-Serif" font-size="10.00">_HIO/__dt__19dMeter</text>
<text text-anchor="middle" x="2707.02" y="-315" font-family="Helvetica,sans-Serif" font-size="10.00">_mapIconHIO_cFv.s</text>
</a>
</g>
</g>
<!-- Node1&#45;&gt;Node34 -->
<g id="edge48" class="edge">
<title>Node1&#45;&gt;Node34</title>
<path fill="none" stroke="#63b8ff" d="M1858.38,-397.42C2013.26,-392.52 2468.41,-376.32 2639.03,-349.04"/>
<polygon fill="#63b8ff" stroke="#63b8ff" points="2639.56,-352.5 2648.84,-347.39 2638.4,-345.59 2639.56,-352.5"/>
</g>
<!-- Node35 -->
<g id="node35" class="node">
<title>Node35</title>
<g id="a_node35"><a xlink:title=" ">
<polygon fill="#e0e0e0" stroke="#999999" points="2894.52,-349 2781.52,-349 2781.52,-308 2894.52,-308 2894.52,-349"/>
<text text-anchor="start" x="2789.52" y="-337" font-family="Helvetica,sans-Serif" font-size="10.00">asm/d/meter/d_meter</text>
<text text-anchor="start" x="2789.52" y="-326" font-family="Helvetica,sans-Serif" font-size="10.00">_HIO/__dt__18dMeter</text>
<text text-anchor="middle" x="2838.02" y="-315" font-family="Helvetica,sans-Serif" font-size="10.00">_cursorHIO_cFv.s</text>
</a>
</g>
</g>
<!-- Node1&#45;&gt;Node35 -->
<g id="edge49" class="edge">
<title>Node1&#45;&gt;Node35</title>
<path fill="none" stroke="#63b8ff" d="M1858.48,-397.94C2029.85,-394.24 2573.06,-380.42 2769.79,-349.29"/>
<polygon fill="#63b8ff" stroke="#63b8ff" points="2770.35,-352.74 2779.64,-347.65 2769.2,-345.84 2770.35,-352.74"/>
</g>
<!-- Node36 -->
<g id="node36" class="node">
<title>Node36</title>
<g id="a_node36"><a xlink:title=" ">
<polygon fill="#e0e0e0" stroke="#999999" points="3025.52,-349 2912.52,-349 2912.52,-308 3025.52,-308 3025.52,-349"/>
<text text-anchor="start" x="2920.52" y="-337" font-family="Helvetica,sans-Serif" font-size="10.00">asm/d/meter/d_meter</text>
<text text-anchor="start" x="2920.52" y="-326" font-family="Helvetica,sans-Serif" font-size="10.00">_HIO/__dt__16dMeter</text>
<text text-anchor="middle" x="2969.02" y="-315" font-family="Helvetica,sans-Serif" font-size="10.00">_ringHIO_cFv.s</text>
</a>
</g>
</g>
<!-- Node1&#45;&gt;Node36 -->
<g id="edge50" class="edge">
<title>Node1&#45;&gt;Node36</title>
<path fill="none" stroke="#63b8ff" d="M1858.51,-398.32C2045.17,-395.63 2677.09,-384.24 2900.84,-349.27"/>
<polygon fill="#63b8ff" stroke="#63b8ff" points="2901.34,-352.74 2910.64,-347.67 2900.21,-345.83 2901.34,-352.74"/>
</g>
<!-- Node37 -->
<g id="node37" class="node">
<title>Node37</title>
<g id="a_node37"><a xlink:title=" ">
<polygon fill="#e0e0e0" stroke="#999999" points="3156.52,-349 3043.52,-349 3043.52,-308 3156.52,-308 3156.52,-349"/>
<text text-anchor="start" x="3051.52" y="-337" font-family="Helvetica,sans-Serif" font-size="10.00">asm/d/meter/d_meter</text>
<text text-anchor="start" x="3051.52" y="-326" font-family="Helvetica,sans-Serif" font-size="10.00">_HIO/__dt__16dMeter</text>
<text text-anchor="middle" x="3100.02" y="-315" font-family="Helvetica,sans-Serif" font-size="10.00">_drawHIO_cFv.s</text>
</a>
</g>
</g>
<!-- Node1&#45;&gt;Node37 -->
<g id="edge51" class="edge">
<title>Node1&#45;&gt;Node37</title>
<path fill="none" stroke="#63b8ff" d="M1858.35,-398.62C2059.13,-396.87 2781.04,-388.1 3031.91,-349.26"/>
<polygon fill="#63b8ff" stroke="#63b8ff" points="3032.33,-352.73 3041.64,-347.68 3031.21,-345.82 3032.33,-352.73"/>
</g>
<!-- Node3 -->
<g id="node3" class="node">
<title>Node3</title>
<g id="a_node3"><a xlink:href="TColor_8h.html" target="_top" xlink:title=" ">
<polygon fill="white" stroke="#666666" points="368.52,-272 241.52,-272 241.52,-253 368.52,-253 368.52,-272"/>
<text text-anchor="middle" x="305.02" y="-260" font-family="Helvetica,sans-Serif" font-size="10.00">JSystem/JUtility/TColor.h</text>
</a>
</g>
</g>
<!-- Node2&#45;&gt;Node3 -->
<g id="edge2" class="edge">
<title>Node2&#45;&gt;Node3</title>
<path fill="none" stroke="#63b8ff" d="M265.41,-318.6C272.28,-309.05 283.37,-293.61 292.07,-281.51"/>
<polygon fill="#63b8ff" stroke="#63b8ff" points="294.8,-283.72 297.79,-273.55 289.11,-279.63 294.8,-283.72"/>
</g>
<!-- Node2&#45;&gt;Node5 -->
<g id="edge18" class="edge">
<title>Node2&#45;&gt;Node5</title>
<path fill="none" stroke="#63b8ff" d="M199.21,-319.36C140.24,-307.81 53.15,-280.47 12.02,-217 -8.94,-184.67 -0.44,-156.83 29.02,-132 53.96,-110.98 261.76,-93.1 360.84,-85.67"/>
<polygon fill="#63b8ff" stroke="#63b8ff" points="360.86,-89.18 370.58,-84.95 360.34,-82.2 360.86,-89.18"/>
</g>
<!-- Node2&#45;&gt;Node7 -->
<g id="edge19" class="edge">
<title>Node2&#45;&gt;Node7</title>
<path fill="none" stroke="#63b8ff" d="M297.48,-318.61C343.94,-305.47 419.44,-275.8 448.02,-217 456.44,-199.66 452.43,-177.42 447.56,-161.78"/>
<polygon fill="#63b8ff" stroke="#63b8ff" points="450.99,-160.98 444.36,-152.71 444.39,-163.31 450.99,-160.98"/>
</g>
<!-- Node8 -->
<g id="node8" class="node">
<title>Node8</title>
<g id="a_node8"><a xlink:href="c__sxyz_8h.html" target="_top" xlink:title=" ">
<polygon fill="white" stroke="#666666" points="271.02,-217 155.02,-217 155.02,-187 271.02,-187 271.02,-217"/>
<text text-anchor="start" x="163.02" y="-205" font-family="Helvetica,sans-Serif" font-size="10.00">SSystem/SComponent</text>
<text text-anchor="middle" x="213.02" y="-194" font-family="Helvetica,sans-Serif" font-size="10.00">/c_sxyz.h</text>
</a>
</g>
</g>
<!-- Node2&#45;&gt;Node8 -->
<g id="edge9" class="edge">
<title>Node2&#45;&gt;Node8</title>
<path fill="none" stroke="#63b8ff" d="M254.1,-318.69C248.24,-307.93 238.45,-289.04 232.02,-272 226.68,-257.85 222.12,-241.55 218.81,-228.35"/>
<polygon fill="#63b8ff" stroke="#63b8ff" points="222.23,-227.62 216.48,-218.72 215.43,-229.26 222.23,-227.62"/>
</g>
<!-- Node10 -->
<g id="node10" class="node">
<title>Node10</title>
<g id="a_node10"><a xlink:href="c__xyz_8h.html" target="_top" xlink:title=" ">
<polygon fill="white" stroke="#666666" points="137.02,-217 21.02,-217 21.02,-187 137.02,-187 137.02,-217"/>
<text text-anchor="start" x="29.02" y="-205" font-family="Helvetica,sans-Serif" font-size="10.00">SSystem/SComponent</text>
<text text-anchor="middle" x="79.02" y="-194" font-family="Helvetica,sans-Serif" font-size="10.00">/c_xyz.h</text>
</a>
</g>
</g>
<!-- Node2&#45;&gt;Node10 -->
<g id="edge13" class="edge">
<title>Node2&#45;&gt;Node10</title>
<path fill="none" stroke="#63b8ff" d="M246.07,-318.55C217.62,-298.87 149.03,-251.42 109.14,-223.84"/>
<polygon fill="#63b8ff" stroke="#63b8ff" points="111.36,-221.12 101.15,-218.31 107.38,-226.87 111.36,-221.12"/>
</g>
<!-- Node4 -->
<g id="node4" class="node">
<title>Node4</title>
<g id="a_node4"><a xlink:href="GXStruct_8h.html" target="_top" xlink:title=" ">
<polygon fill="white" stroke="#666666" points="438.52,-211.5 327.52,-211.5 327.52,-192.5 438.52,-192.5 438.52,-211.5"/>
<text text-anchor="middle" x="383.02" y="-199.5" font-family="Helvetica,sans-Serif" font-size="10.00">dolphin/gx/GXStruct.h</text>
</a>
</g>
</g>
<!-- Node3&#45;&gt;Node4 -->
<g id="edge3" class="edge">
<title>Node3&#45;&gt;Node4</title>
<path fill="none" stroke="#63b8ff" d="M316.86,-252.62C328.77,-243.68 347.4,-229.72 361.85,-218.87"/>
<polygon fill="#63b8ff" stroke="#63b8ff" points="363.95,-221.68 369.85,-212.88 359.75,-216.08 363.95,-221.68"/>
</g>
<!-- Node3&#45;&gt;Node5 -->
<g id="edge8" class="edge">
<title>Node3&#45;&gt;Node5</title>
<path fill="none" stroke="#63b8ff" d="M305.16,-252.76C305.71,-238.34 308.19,-208.96 319.02,-187 337.01,-150.49 371.32,-117.08 393.14,-98.17"/>
<polygon fill="#63b8ff" stroke="#63b8ff" points="395.37,-100.87 400.75,-91.74 390.86,-95.52 395.37,-100.87"/>
</g>
<!-- Node4&#45;&gt;Node5 -->
<g id="edge4" class="edge">
<title>Node4&#45;&gt;Node5</title>
<path fill="none" stroke="#63b8ff" d="M385.27,-192.06C390.07,-173.01 401.41,-128.06 408.01,-101.87"/>
<polygon fill="#63b8ff" stroke="#63b8ff" points="411.4,-102.74 410.45,-92.19 404.61,-101.03 411.4,-102.74"/>
</g>
<!-- Node4&#45;&gt;Node7 -->
<g id="edge6" class="edge">
<title>Node4&#45;&gt;Node7</title>
<path fill="none" stroke="#63b8ff" d="M391.43,-192.37C399.93,-183.64 413.29,-169.93 423.85,-159.09"/>
<polygon fill="#63b8ff" stroke="#63b8ff" points="426.04,-161.86 430.52,-152.25 421.03,-156.97 426.04,-161.86"/>
</g>
<!-- Node6 -->
<g id="node6" class="node">
<title>Node6</title>
<g id="a_node6"><a xlink:href="stddef_8h.html" target="_top" xlink:title=" ">
<polygon fill="white" stroke="#666666" points="888.02,-30 752.02,-30 752.02,0 888.02,0 888.02,-30"/>
<text text-anchor="start" x="760.02" y="-18" font-family="Helvetica,sans-Serif" font-size="10.00">MSL_C/MSL_Common/Src</text>
<text text-anchor="middle" x="820.02" y="-7" font-family="Helvetica,sans-Serif" font-size="10.00">/stddef.h</text>
</a>
</g>
</g>
<!-- Node5&#45;&gt;Node6 -->
<g id="edge5" class="edge">
<title>Node5&#45;&gt;Node6</title>
<path fill="none" stroke="#63b8ff" d="M453.9,-73.57C520.75,-63.06 654.59,-42.01 740.6,-28.49"/>
<polygon fill="#63b8ff" stroke="#63b8ff" points="741.05,-31.96 750.39,-26.95 739.96,-25.05 741.05,-31.96"/>
</g>
<!-- Node7&#45;&gt;Node5 -->
<g id="edge7" class="edge">
<title>Node7&#45;&gt;Node5</title>
<path fill="none" stroke="#63b8ff" d="M436.03,-131.87C432.28,-123.75 426.54,-111.31 421.73,-100.89"/>
<polygon fill="#63b8ff" stroke="#63b8ff" points="425.02,-99.65 417.65,-92.04 418.66,-102.59 425.02,-99.65"/>
</g>
<!-- Node8&#45;&gt;Node5 -->
<g id="edge12" class="edge">
<title>Node8&#45;&gt;Node5</title>
<path fill="none" stroke="#63b8ff" d="M224.96,-186.59C238.27,-171.3 261.09,-147.28 285.02,-132 311.03,-115.39 343.43,-102.8 369.13,-94.41"/>
<polygon fill="#63b8ff" stroke="#63b8ff" points="370.13,-97.76 378.61,-91.42 368.02,-91.09 370.13,-97.76"/>
</g>
<!-- Node9 -->
<g id="node9" class="node">
<title>Node9</title>
<g id="a_node9"><a xlink:href="vec_8h.html" target="_top" xlink:title=" ">
<polygon fill="white" stroke="#666666" points="233.02,-151 141.02,-151 141.02,-132 233.02,-132 233.02,-151"/>
<text text-anchor="middle" x="187.02" y="-139" font-family="Helvetica,sans-Serif" font-size="10.00">dolphin/mtx/vec.h</text>
</a>
</g>
</g>
<!-- Node8&#45;&gt;Node9 -->
<g id="edge10" class="edge">
<title>Node8&#45;&gt;Node9</title>
<path fill="none" stroke="#63b8ff" d="M206.59,-186.54C203.24,-179 199.09,-169.67 195.48,-161.55"/>
<polygon fill="#63b8ff" stroke="#63b8ff" points="198.75,-160.27 191.49,-152.56 192.35,-163.12 198.75,-160.27"/>
</g>
<!-- Node9&#45;&gt;Node5 -->
<g id="edge11" class="edge">
<title>Node9&#45;&gt;Node5</title>
<path fill="none" stroke="#63b8ff" d="M221.34,-131.62C260.33,-121.52 324.14,-105.01 367.32,-93.83"/>
<polygon fill="#63b8ff" stroke="#63b8ff" points="368.1,-97.24 376.9,-91.35 366.35,-90.47 368.1,-97.24"/>
</g>
<!-- Node10&#45;&gt;Node9 -->
<g id="edge17" class="edge">
<title>Node10&#45;&gt;Node9</title>
<path fill="none" stroke="#63b8ff" d="M105.71,-186.54C122.58,-177.4 144.26,-165.66 160.99,-156.6"/>
<polygon fill="#63b8ff" stroke="#63b8ff" points="162.23,-159.91 169.35,-152.07 158.89,-153.75 162.23,-159.91"/>
</g>
<!-- Node11 -->
<g id="node11" class="node">
<title>Node11</title>
<g id="a_node11"><a xlink:href="math_8h.html" target="_top" xlink:title=" ">
<polygon fill="white" stroke="#666666" points="120.02,-151 38.02,-151 38.02,-132 120.02,-132 120.02,-151"/>
<text text-anchor="middle" x="79.02" y="-139" font-family="Helvetica,sans-Serif" font-size="10.00">MSL_C/math.h</text>
</a>
</g>
</g>
<!-- Node10&#45;&gt;Node11 -->
<g id="edge14" class="edge">
<title>Node10&#45;&gt;Node11</title>
<path fill="none" stroke="#63b8ff" d="M79.02,-186.54C79.02,-179.34 79.02,-170.53 79.02,-162.68"/>
<polygon fill="#63b8ff" stroke="#63b8ff" points="82.52,-162.69 79.02,-152.69 75.52,-162.69 82.52,-162.69"/>
</g>
<!-- Node12 -->
<g id="node12" class="node">
<title>Node12</title>
<g id="a_node12"><a xlink:href="MSL__Common_2Src_2float_8h.html" target="_top" xlink:title=" ">
<polygon fill="white" stroke="#666666" points="147.02,-96 11.02,-96 11.02,-66 147.02,-66 147.02,-96"/>
<text text-anchor="start" x="19.02" y="-84" font-family="Helvetica,sans-Serif" font-size="10.00">MSL_C/MSL_Common/Src</text>
<text text-anchor="middle" x="79.02" y="-73" font-family="Helvetica,sans-Serif" font-size="10.00">/float.h</text>
</a>
</g>
</g>
<!-- Node11&#45;&gt;Node12 -->
<g id="edge15" class="edge">
<title>Node11&#45;&gt;Node12</title>
<path fill="none" stroke="#63b8ff" d="M79.02,-131.87C79.02,-125.4 79.02,-116.2 79.02,-107.45"/>
<polygon fill="#63b8ff" stroke="#63b8ff" points="82.52,-107.63 79.02,-97.63 75.52,-107.63 82.52,-107.63"/>
</g>
<!-- Node13 -->
<g id="node13" class="node">
<title>Node13</title>
<g id="a_node13"><a xlink:href="fdlibm_8h.html" target="_top" xlink:title=" ">
<polygon fill="white" stroke="#666666" points="104.02,-24.5 54.02,-24.5 54.02,-5.5 104.02,-5.5 104.02,-24.5"/>
<text text-anchor="middle" x="79.02" y="-12.5" font-family="Helvetica,sans-Serif" font-size="10.00">fdlibm.h</text>
</a>
</g>
</g>
<!-- Node12&#45;&gt;Node13 -->
<g id="edge16" class="edge">
<title>Node12&#45;&gt;Node13</title>
<path fill="none" stroke="#63b8ff" d="M79.02,-65.8C79.02,-57.09 79.02,-45.81 79.02,-36.18"/>
<polygon fill="#63b8ff" stroke="#63b8ff" points="82.52,-36.36 79.02,-26.36 75.52,-36.36 82.52,-36.36"/>
</g>
<!-- Node14&#45;&gt;Node5 -->
<g id="edge30" class="edge">
<title>Node14&#45;&gt;Node5</title>
<path fill="none" stroke="#63b8ff" d="M661.33,-252.59C654.91,-243.81 645.16,-229.87 638.02,-217 617.93,-180.82 631.51,-158.84 600.02,-132 562.34,-99.89 506.11,-88.18 465.15,-84.02"/>
<polygon fill="#63b8ff" stroke="#63b8ff" points="465.54,-80.54 455.27,-83.15 464.92,-87.51 465.54,-80.54"/>
</g>
<!-- Node14&#45;&gt;Node7 -->
<g id="edge31" class="edge">
<title>Node14&#45;&gt;Node7</title>
<path fill="none" stroke="#63b8ff" d="M646.93,-252.51C627.1,-243.89 596.7,-230.26 571.02,-217 547.31,-204.76 542.2,-200.21 519.02,-187 501.35,-176.93 481.4,-165.69 465.96,-157.03"/>
<polygon fill="#63b8ff" stroke="#63b8ff" points="467.84,-154.06 457.4,-152.23 464.41,-160.17 467.84,-154.06"/>
</g>
<!-- Node14&#45;&gt;Node10 -->
<g id="edge27" class="edge">
<title>Node14&#45;&gt;Node10</title>
<path fill="none" stroke="#63b8ff" d="M623.81,-259.54C535.45,-255.23 330.58,-243.29 148.79,-217.29"/>
<polygon fill="#63b8ff" stroke="#63b8ff" points="149.3,-213.82 138.91,-215.85 148.3,-220.75 149.3,-213.82"/>
</g>
<!-- Node15 -->
<g id="node15" class="node">
<title>Node15</title>
<g id="a_node15"><a xlink:href="string_8h.html" target="_top" xlink:title=" ">
<polygon fill="white" stroke="#666666" points="1093.02,-151 1009.02,-151 1009.02,-132 1093.02,-132 1093.02,-151"/>
<text text-anchor="middle" x="1051.02" y="-139" font-family="Helvetica,sans-Serif" font-size="10.00">MSL_C/string.h</text>
</a>
</g>
</g>
<!-- Node14&#45;&gt;Node15 -->
<g id="edge21" class="edge">
<title>Node14&#45;&gt;Node15</title>
<path fill="none" stroke="#63b8ff" d="M712.28,-258.63C764.32,-254.16 852.65,-243.16 924.02,-217 963.92,-202.38 1005.56,-175.33 1029.85,-158.16"/>
<polygon fill="#63b8ff" stroke="#63b8ff" points="1031.84,-161.04 1037.91,-152.35 1027.75,-155.35 1031.84,-161.04"/>
</g>
<!-- Node19 -->
<g id="node19" class="node">
<title>Node19</title>
<g id="a_node19"><a xlink:href="OSTime_8h.html" target="_top" xlink:title=" ">
<polygon fill="white" stroke="#666666" points="590.52,-151 483.52,-151 483.52,-132 590.52,-132 590.52,-151"/>
<text text-anchor="middle" x="537.02" y="-139" font-family="Helvetica,sans-Serif" font-size="10.00">dolphin/os/OSTime.h</text>
</a>
</g>
</g>
<!-- Node14&#45;&gt;Node19 -->
<g id="edge28" class="edge">
<title>Node14&#45;&gt;Node19</title>
<path fill="none" stroke="#63b8ff" d="M653.6,-252.6C640.39,-244.15 620.58,-230.73 605.02,-217 584.79,-199.15 564.29,-175.81 551.16,-160.05"/>
<polygon fill="#63b8ff" stroke="#63b8ff" points="554.02,-158.01 544.97,-152.5 548.61,-162.45 554.02,-158.01"/>
</g>
<!-- Node20 -->
<g id="node20" class="node">
<title>Node20</title>
<g id="a_node20"><a xlink:href="d__save__bit__labels_8inc.html" target="_top" xlink:title=" ">
<polygon fill="white" stroke="#666666" points="789.02,-211.5 647.02,-211.5 647.02,-192.5 789.02,-192.5 789.02,-211.5"/>
<text text-anchor="middle" x="718.02" y="-199.5" font-family="Helvetica,sans-Serif" font-size="10.00">d/save/d_save_bit_labels.inc</text>
</a>
</g>
</g>
<!-- Node14&#45;&gt;Node20 -->
<g id="edge32" class="edge">
<title>Node14&#45;&gt;Node20</title>
<path fill="none" stroke="#63b8ff" d="M675.39,-252.87C682.71,-244.31 694.11,-230.97 703.28,-220.24"/>
<polygon fill="#63b8ff" stroke="#63b8ff" points="705.79,-222.69 709.63,-212.82 700.47,-218.15 705.79,-222.69"/>
</g>
<!-- Node21 -->
<g id="node21" class="node">
<title>Node21</title>
<g id="a_node21"><a xlink:href="d__save__temp__bit__labels_8inc.html" target="_top" xlink:title=" ">
<polygon fill="white" stroke="#666666" points="914.52,-217 807.52,-217 807.52,-187 914.52,-187 914.52,-217"/>
<text text-anchor="start" x="815.52" y="-205" font-family="Helvetica,sans-Serif" font-size="10.00">d/save/d_save_temp</text>
<text text-anchor="middle" x="861.02" y="-194" font-family="Helvetica,sans-Serif" font-size="10.00">_bit_labels.inc</text>
</a>
</g>
</g>
<!-- Node14&#45;&gt;Node21 -->
<g id="edge33" class="edge">
<title>Node14&#45;&gt;Node21</title>
<path fill="none" stroke="#63b8ff" d="M697.33,-252.62C725.11,-244.19 767.65,-231.3 802.4,-220.77"/>
<polygon fill="#63b8ff" stroke="#63b8ff" points="803.38,-224.13 811.93,-217.88 801.34,-217.43 803.38,-224.13"/>
</g>
<!-- Node16 -->
<g id="node16" class="node">
<title>Node16</title>
<g id="a_node16"><a xlink:href="extras_8h.html" target="_top" xlink:title=" ">
<polygon fill="white" stroke="#666666" points="1042.02,-96 906.02,-96 906.02,-66 1042.02,-66 1042.02,-96"/>
<text text-anchor="start" x="914.02" y="-84" font-family="Helvetica,sans-Serif" font-size="10.00">MSL_C/MSL_Common/Src</text>
<text text-anchor="middle" x="974.02" y="-73" font-family="Helvetica,sans-Serif" font-size="10.00">/extras.h</text>
</a>
</g>
</g>
<!-- Node15&#45;&gt;Node16 -->
<g id="edge22" class="edge">
<title>Node15&#45;&gt;Node16</title>
<path fill="none" stroke="#63b8ff" d="M1039.32,-131.62C1029.44,-124.1 1014.87,-113.04 1002,-103.26"/>
<polygon fill="#63b8ff" stroke="#63b8ff" points="1004.31,-100.62 994.23,-97.36 1000.07,-106.19 1004.31,-100.62"/>
</g>
<!-- Node17 -->
<g id="node17" class="node">
<title>Node17</title>
<g id="a_node17"><a xlink:href="mem_8h.html" target="_top" xlink:title=" ">
<polygon fill="white" stroke="#666666" points="1196.02,-96 1060.02,-96 1060.02,-66 1196.02,-66 1196.02,-96"/>
<text text-anchor="start" x="1068.02" y="-84" font-family="Helvetica,sans-Serif" font-size="10.00">MSL_C/MSL_Common/Src</text>
<text text-anchor="middle" x="1128.02" y="-73" font-family="Helvetica,sans-Serif" font-size="10.00">/mem.h</text>
</a>
</g>
</g>
<!-- Node15&#45;&gt;Node17 -->
<g id="edge23" class="edge">
<title>Node15&#45;&gt;Node17</title>
<path fill="none" stroke="#63b8ff" d="M1062.71,-131.62C1072.6,-124.1 1087.16,-113.04 1100.03,-103.26"/>
<polygon fill="#63b8ff" stroke="#63b8ff" points="1101.96,-106.19 1107.81,-97.36 1097.73,-100.62 1101.96,-106.19"/>
</g>
<!-- Node18 -->
<g id="node18" class="node">
<title>Node18</title>
<g id="a_node18"><a xlink:href="MSL__Common_2Src_2string_8h.html" target="_top" xlink:title=" ">
<polygon fill="white" stroke="#666666" points="888.02,-96 752.02,-96 752.02,-66 888.02,-66 888.02,-96"/>
<text text-anchor="start" x="760.02" y="-84" font-family="Helvetica,sans-Serif" font-size="10.00">MSL_C/MSL_Common/Src</text>
<text text-anchor="middle" x="820.02" y="-73" font-family="Helvetica,sans-Serif" font-size="10.00">/string.h</text>
</a>
</g>
</g>
<!-- Node15&#45;&gt;Node18 -->
<g id="edge25" class="edge">
<title>Node15&#45;&gt;Node18</title>
<path fill="none" stroke="#63b8ff" d="M1015.68,-131.55C981.8,-122.97 929.77,-109.79 887.88,-99.18"/>
<polygon fill="#63b8ff" stroke="#63b8ff" points="888.93,-95.84 878.37,-96.78 887.21,-102.63 888.93,-95.84"/>
</g>
<!-- Node17&#45;&gt;Node6 -->
<g id="edge24" class="edge">
<title>Node17&#45;&gt;Node6</title>
<path fill="none" stroke="#63b8ff" d="M1059.66,-65.8C1012.29,-55.95 949.07,-42.82 899.46,-32.51"/>
<polygon fill="#63b8ff" stroke="#63b8ff" points="900.43,-29.13 889.93,-30.53 899.01,-35.99 900.43,-29.13"/>
</g>
<!-- Node18&#45;&gt;Node6 -->
<g id="edge26" class="edge">
<title>Node18&#45;&gt;Node6</title>
<path fill="none" stroke="#63b8ff" d="M820.02,-65.8C820.02,-58.67 820.02,-49.82 820.02,-41.56"/>
<polygon fill="#63b8ff" stroke="#63b8ff" points="823.52,-41.68 820.02,-31.68 816.52,-41.68 823.52,-41.68"/>
</g>
<!-- Node19&#45;&gt;Node5 -->
<g id="edge29" class="edge">
<title>Node19&#45;&gt;Node5</title>
<path fill="none" stroke="#63b8ff" d="M518.18,-131.62C498.06,-122.12 465.9,-106.95 442.44,-95.88"/>
<polygon fill="#63b8ff" stroke="#63b8ff" points="443.93,-92.72 433.4,-91.61 440.95,-99.05 443.93,-92.72"/>
</g>
</g>
</svg>
