<?xml version="1.0" encoding="UTF-8" standalone="no"?>
<!DOCTYPE svg PUBLIC "-//W3C//DTD SVG 1.1//EN"
 "http://www.w3.org/Graphics/SVG/1.1/DTD/svg11.dtd">
<!-- Generated by graphviz version 7.0.5 (20221223.1930)
 -->
<!-- Title: src/msg/scrn/d_msg_scrn_place.cpp Pages: 1 -->
<svg width="1070pt" height="236pt"
 viewBox="0.00 0.00 1069.50 236.00" xmlns="http://www.w3.org/2000/svg" xmlns:xlink="http://www.w3.org/1999/xlink">
<g id="graph0" class="graph" transform="scale(1 1) rotate(0) translate(4 232)">
<title>src/msg/scrn/d_msg_scrn_place.cpp</title>
<!-- Node1 -->
<g id="node1" class="node">
<title>Node1</title>
<g id="a_node1"><a xlink:title=" ">
<polygon fill="#999999" stroke="#666666" points="467.5,-228 361.5,-228 361.5,-198 467.5,-198 467.5,-228"/>
<text text-anchor="start" x="369.5" y="-216" font-family="Helvetica,sans-Serif" font-size="10.00">src/msg/scrn/d_msg</text>
<text text-anchor="middle" x="414.5" y="-205" font-family="Helvetica,sans-Serif" font-size="10.00">_scrn_place.cpp</text>
</a>
</g>
</g>
<!-- Node2 -->
<g id="node2" class="node">
<title>Node2</title>
<g id="a_node2"><a xlink:href="d__msg__scrn__place_8h.html" target="_top" xlink:title=" ">
<polygon fill="white" stroke="#666666" points="113,-156.5 0,-156.5 0,-126.5 113,-126.5 113,-156.5"/>
<text text-anchor="start" x="8" y="-144.5" font-family="Helvetica,sans-Serif" font-size="10.00">msg/scrn/d_msg_scrn</text>
<text text-anchor="middle" x="56.5" y="-133.5" font-family="Helvetica,sans-Serif" font-size="10.00">_place.h</text>
</a>
</g>
</g>
<!-- Node1&#45;&gt;Node2 -->
<g id="edge1" class="edge">
<title>Node1&#45;&gt;Node2</title>
<path fill="none" stroke="#63b8ff" d="M361.04,-204.25C303.17,-195.5 208.32,-180.09 127.5,-162 124.34,-161.29 121.12,-160.54 117.86,-159.74"/>
<polygon fill="#63b8ff" stroke="#63b8ff" points="118.79,-156.37 108.24,-157.32 117.08,-163.16 118.79,-156.37"/>
</g>
<!-- Node3 -->
<g id="node3" class="node">
<title>Node3</title>
<g id="a_node3"><a xlink:href="types_8h.html" target="_top" xlink:title=" ">
<polygon fill="white" stroke="#666666" points="139,-85 58,-85 58,-66 139,-66 139,-85"/>
<text text-anchor="middle" x="98.5" y="-73" font-family="Helvetica,sans-Serif" font-size="10.00">dolphin/types.h</text>
</a>
</g>
</g>
<!-- Node1&#45;&gt;Node3 -->
<g id="edge5" class="edge">
<title>Node1&#45;&gt;Node3</title>
<path fill="none" stroke="#63b8ff" d="M361.23,-212.42C307,-210.47 222.46,-200.68 161.5,-162 148.05,-153.47 124.07,-117.52 109.89,-95.04"/>
<polygon fill="#63b8ff" stroke="#63b8ff" points="112.86,-93.19 104.61,-86.55 106.92,-96.89 112.86,-93.19"/>
</g>
<!-- Node5 -->
<g id="node5" class="node">
<title>Node5</title>
<g id="a_node5"><a xlink:href="dol2asm_8h.html" target="_top" xlink:title=" ">
<polygon fill="white" stroke="#666666" points="231,-151 170,-151 170,-132 231,-132 231,-151"/>
<text text-anchor="middle" x="200.5" y="-139" font-family="Helvetica,sans-Serif" font-size="10.00">dol2asm.h</text>
</a>
</g>
</g>
<!-- Node1&#45;&gt;Node5 -->
<g id="edge4" class="edge">
<title>Node1&#45;&gt;Node5</title>
<path fill="none" stroke="#63b8ff" d="M361.18,-199.25C326.33,-190.29 280.11,-177.21 240.5,-162 236.16,-160.33 231.65,-158.37 227.29,-156.35"/>
<polygon fill="#63b8ff" stroke="#63b8ff" points="228.83,-153.21 218.31,-151.98 225.77,-159.5 228.83,-153.21"/>
</g>
<!-- Node6 -->
<g id="node6" class="node">
<title>Node6</title>
<g id="a_node6"><a xlink:title=" ">
<polygon fill="#e0e0e0" stroke="#999999" points="405.5,-162 249.5,-162 249.5,-121 405.5,-121 405.5,-162"/>
<text text-anchor="start" x="257.5" y="-150" font-family="Helvetica,sans-Serif" font-size="10.00">asm/msg/scrn/d_msg</text>
<text text-anchor="start" x="257.5" y="-139" font-family="Helvetica,sans-Serif" font-size="10.00">_scrn_place/__ct__15dMsgScrn</text>
<text text-anchor="middle" x="327.5" y="-128" font-family="Helvetica,sans-Serif" font-size="10.00">Place_cFv.s</text>
</a>
</g>
</g>
<!-- Node1&#45;&gt;Node6 -->
<g id="edge6" class="edge">
<title>Node1&#45;&gt;Node6</title>
<path fill="none" stroke="#63b8ff" d="M396.47,-197.6C386.32,-189.49 373.31,-179.09 361.33,-169.52"/>
<polygon fill="#63b8ff" stroke="#63b8ff" points="363.61,-166.87 353.61,-163.36 359.24,-172.34 363.61,-166.87"/>
</g>
<!-- Node7 -->
<g id="node7" class="node">
<title>Node7</title>
<g id="a_node7"><a xlink:title=" ">
<polygon fill="#e0e0e0" stroke="#999999" points="579.5,-162 423.5,-162 423.5,-121 579.5,-121 579.5,-162"/>
<text text-anchor="start" x="431.5" y="-150" font-family="Helvetica,sans-Serif" font-size="10.00">asm/msg/scrn/d_msg</text>
<text text-anchor="start" x="431.5" y="-139" font-family="Helvetica,sans-Serif" font-size="10.00">_scrn_place/__dt__15dMsgScrn</text>
<text text-anchor="middle" x="501.5" y="-128" font-family="Helvetica,sans-Serif" font-size="10.00">Place_cFv.s</text>
</a>
</g>
</g>
<!-- Node1&#45;&gt;Node7 -->
<g id="edge7" class="edge">
<title>Node1&#45;&gt;Node7</title>
<path fill="none" stroke="#63b8ff" d="M432.53,-197.6C442.68,-189.49 455.69,-179.09 467.67,-169.52"/>
<polygon fill="#63b8ff" stroke="#63b8ff" points="469.76,-172.34 475.39,-163.36 465.39,-166.87 469.76,-172.34"/>
</g>
<!-- Node8 -->
<g id="node8" class="node">
<title>Node8</title>
<g id="a_node8"><a xlink:title=" ">
<polygon fill="#e0e0e0" stroke="#999999" points="755.5,-162 597.5,-162 597.5,-121 755.5,-121 755.5,-162"/>
<text text-anchor="start" x="605.5" y="-150" font-family="Helvetica,sans-Serif" font-size="10.00">asm/msg/scrn/d_msg</text>
<text text-anchor="start" x="605.5" y="-139" font-family="Helvetica,sans-Serif" font-size="10.00">_scrn_place/exec__15dMsgScrn</text>
<text text-anchor="middle" x="676.5" y="-128" font-family="Helvetica,sans-Serif" font-size="10.00">Place_cFv.s</text>
</a>
</g>
</g>
<!-- Node1&#45;&gt;Node8 -->
<g id="edge8" class="edge">
<title>Node1&#45;&gt;Node8</title>
<path fill="none" stroke="#63b8ff" d="M467.84,-197.85C503.06,-188.51 550,-176.06 590.45,-165.33"/>
<polygon fill="#63b8ff" stroke="#63b8ff" points="591.16,-168.76 599.93,-162.81 589.37,-161.99 591.16,-168.76"/>
</g>
<!-- Node9 -->
<g id="node9" class="node">
<title>Node9</title>
<g id="a_node9"><a xlink:title=" ">
<polygon fill="#e0e0e0" stroke="#999999" points="909.5,-162 773.5,-162 773.5,-121 909.5,-121 909.5,-162"/>
<text text-anchor="start" x="781.5" y="-150" font-family="Helvetica,sans-Serif" font-size="10.00">asm/msg/scrn/d_msg</text>
<text text-anchor="start" x="781.5" y="-139" font-family="Helvetica,sans-Serif" font-size="10.00">_scrn_place/drawSelf</text>
<text text-anchor="middle" x="841.5" y="-128" font-family="Helvetica,sans-Serif" font-size="10.00">__15dMsgScrnPlace_cFv.s</text>
</a>
</g>
</g>
<!-- Node1&#45;&gt;Node9 -->
<g id="edge9" class="edge">
<title>Node1&#45;&gt;Node9</title>
<path fill="none" stroke="#63b8ff" d="M467.87,-206.16C534.47,-198.48 652.04,-183.63 761.87,-162.42"/>
<polygon fill="#63b8ff" stroke="#63b8ff" points="762.52,-165.86 771.67,-160.5 761.18,-158.99 762.52,-165.86"/>
</g>
<!-- Node10 -->
<g id="node10" class="node">
<title>Node10</title>
<g id="a_node10"><a xlink:title=" ">
<polygon fill="#e0e0e0" stroke="#999999" points="1061.5,-162 927.5,-162 927.5,-121 1061.5,-121 1061.5,-162"/>
<text text-anchor="start" x="935.5" y="-150" font-family="Helvetica,sans-Serif" font-size="10.00">asm/msg/scrn/d_msg</text>
<text text-anchor="start" x="935.5" y="-139" font-family="Helvetica,sans-Serif" font-size="10.00">_scrn_place/fukiAlpha</text>
<text text-anchor="middle" x="994.5" y="-128" font-family="Helvetica,sans-Serif" font-size="10.00">__15dMsgScrnPlace_cFf.s</text>
</a>
</g>
</g>
<!-- Node1&#45;&gt;Node10 -->
<g id="edge10" class="edge">
<title>Node1&#45;&gt;Node10</title>
<path fill="none" stroke="#63b8ff" d="M467.83,-209.38C558.18,-204.37 747.18,-191.37 915.74,-162.35"/>
<polygon fill="#63b8ff" stroke="#63b8ff" points="916.33,-165.8 925.58,-160.63 915.13,-158.9 916.33,-165.8"/>
</g>
<!-- Node2&#45;&gt;Node3 -->
<g id="edge2" class="edge">
<title>Node2&#45;&gt;Node3</title>
<path fill="none" stroke="#63b8ff" d="M65.82,-126.3C71.92,-117 79.94,-104.77 86.52,-94.76"/>
<polygon fill="#63b8ff" stroke="#63b8ff" points="89.31,-96.89 91.87,-86.61 83.45,-93.05 89.31,-96.89"/>
</g>
<!-- Node4 -->
<g id="node4" class="node">
<title>Node4</title>
<g id="a_node4"><a xlink:href="stddef_8h.html" target="_top" xlink:title=" ">
<polygon fill="white" stroke="#666666" points="166.5,-30 30.5,-30 30.5,0 166.5,0 166.5,-30"/>
<text text-anchor="start" x="38.5" y="-18" font-family="Helvetica,sans-Serif" font-size="10.00">MSL_C/MSL_Common/Src</text>
<text text-anchor="middle" x="98.5" y="-7" font-family="Helvetica,sans-Serif" font-size="10.00">/stddef.h</text>
</a>
</g>
</g>
<!-- Node3&#45;&gt;Node4 -->
<g id="edge3" class="edge">
<title>Node3&#45;&gt;Node4</title>
<path fill="none" stroke="#63b8ff" d="M98.5,-65.87C98.5,-59.4 98.5,-50.2 98.5,-41.45"/>
<polygon fill="#63b8ff" stroke="#63b8ff" points="102,-41.63 98.5,-31.63 95,-41.63 102,-41.63"/>
</g>
</g>
</svg>
