<?xml version="1.0" encoding="UTF-8" standalone="no"?>
<!DOCTYPE svg PUBLIC "-//W3C//DTD SVG 1.1//EN"
 "http://www.w3.org/Graphics/SVG/1.1/DTD/svg11.dtd">
<!-- Generated by graphviz version 7.0.5 (20221223.1930)
 -->
<!-- Title: include/d/particle/d_particle.h Pages: 1 -->
<svg width="5205pt" height="302pt"
 viewBox="0.00 0.00 5205.05 302.00" xmlns="http://www.w3.org/2000/svg" xmlns:xlink="http://www.w3.org/1999/xlink">
<g id="graph0" class="graph" transform="scale(1 1) rotate(0) translate(4 298)">
<title>include/d/particle/d_particle.h</title>
<!-- Node1 -->
<g id="node1" class="node">
<title>Node1</title>
<g id="a_node1"><a xlink:title=" ">
<polygon fill="#999999" stroke="#666666" points="4021,-294 3931,-294 3931,-264 4021,-264 4021,-294"/>
<text text-anchor="start" x="3939" y="-282" font-family="Helvetica,sans-Serif" font-size="10.00">include/d/particle</text>
<text text-anchor="middle" x="3976" y="-271" font-family="Helvetica,sans-Serif" font-size="10.00">/d_particle.h</text>
</a>
</g>
</g>
<!-- Node2 -->
<g id="node2" class="node">
<title>Node2</title>
<g id="a_node2"><a xlink:href="d__a__alink_8h.html" target="_top" xlink:title=" ">
<polygon fill="white" stroke="#666666" points="2689,-222.5 2573,-222.5 2573,-203.5 2689,-203.5 2689,-222.5"/>
<text text-anchor="middle" x="2631" y="-210.5" font-family="Helvetica,sans-Serif" font-size="10.00">include/d/a/d_a_alink.h</text>
</a>
</g>
</g>
<!-- Node1&#45;&gt;Node2 -->
<g id="edge1" class="edge">
<title>Node1&#45;&gt;Node2</title>
<path fill="none" stroke="#63b8ff" d="M3919.37,-275.31C3700.51,-264.89 2911.13,-227.33 2689.33,-216.78"/>
<polygon fill="#63b8ff" stroke="#63b8ff" points="3919.2,-278.8 3929.35,-275.78 3919.53,-271.81 3919.2,-278.8"/>
</g>
<!-- Node3 -->
<g id="node3" class="node">
<title>Node3</title>
<g id="a_node3"><a xlink:href="d__com__inf__game_8h.html" target="_top" xlink:title=" ">
<polygon fill="#fff0f0" stroke="red" points="2686,-162 2576,-162 2576,-132 2686,-132 2686,-162"/>
<text text-anchor="start" x="2584" y="-150" font-family="Helvetica,sans-Serif" font-size="10.00">include/d/com/d_com</text>
<text text-anchor="middle" x="2631" y="-139" font-family="Helvetica,sans-Serif" font-size="10.00">_inf_game.h</text>
</a>
</g>
</g>
<!-- Node1&#45;&gt;Node3 -->
<g id="edge57" class="edge">
<title>Node1&#45;&gt;Node3</title>
<path fill="none" stroke="#63b8ff" d="M3919.64,-272.55C3700.15,-251.34 2903.9,-174.38 2686.29,-153.34"/>
<polygon fill="#63b8ff" stroke="#63b8ff" points="3919.07,-276.01 3929.36,-273.49 3919.74,-269.05 3919.07,-276.01"/>
</g>
<!-- Node120 -->
<g id="node45" class="node">
<title>Node120</title>
<g id="a_node45"><a xlink:href="d__particle_8cpp.html" target="_top" xlink:title=" ">
<polygon fill="white" stroke="#666666" points="5179,-85 5043,-85 5043,-66 5179,-66 5179,-85"/>
<text text-anchor="middle" x="5111" y="-73" font-family="Helvetica,sans-Serif" font-size="10.00">src/d/particle/d_particle.cpp</text>
</a>
</g>
</g>
<!-- Node1&#45;&gt;Node120 -->
<g id="edge60" class="edge">
<title>Node1&#45;&gt;Node120</title>
<path fill="none" stroke="#63b8ff" d="M4006.2,-257.65C4035.67,-238.86 4082.46,-211.85 4127,-198 4501.71,-81.48 4615.89,-153.87 5004,-96 5024.26,-92.98 5046.57,-89.02 5065.55,-85.45"/>
<polygon fill="#63b8ff" stroke="#63b8ff" points="4004.66,-254.48 3998.17,-262.85 4008.46,-260.35 4004.66,-254.48"/>
</g>
<!-- Node132 -->
<g id="node46" class="node">
<title>Node132</title>
<g id="a_node46"><a xlink:href="d__a__item__static_8h.html" target="_top" xlink:title=" ">
<polygon fill="white" stroke="#666666" points="3962.5,-228 3855.5,-228 3855.5,-198 3962.5,-198 3962.5,-228"/>
<text text-anchor="start" x="3863.5" y="-216" font-family="Helvetica,sans-Serif" font-size="10.00">include/d/a/d_a_item</text>
<text text-anchor="middle" x="3909" y="-205" font-family="Helvetica,sans-Serif" font-size="10.00">_static.h</text>
</a>
</g>
</g>
<!-- Node1&#45;&gt;Node132 -->
<g id="edge52" class="edge">
<title>Node1&#45;&gt;Node132</title>
<path fill="none" stroke="#63b8ff" d="M3953.06,-256.09C3943.39,-246.85 3932.41,-236.36 3923.83,-228.16"/>
<polygon fill="#63b8ff" stroke="#63b8ff" points="3950.39,-258.37 3960.04,-262.75 3955.22,-253.31 3950.39,-258.37"/>
</g>
<!-- Node134 -->
<g id="node48" class="node">
<title>Node134</title>
<g id="a_node48"><a xlink:href="d__a__do_8h.html" target="_top" xlink:title=" ">
<polygon fill="white" stroke="#666666" points="4079,-162 3983,-162 3983,-132 4079,-132 4079,-162"/>
<text text-anchor="start" x="3991" y="-150" font-family="Helvetica,sans-Serif" font-size="10.00">include/rel/d/a/d_a</text>
<text text-anchor="middle" x="4031" y="-139" font-family="Helvetica,sans-Serif" font-size="10.00">_do/d_a_do.h</text>
</a>
</g>
</g>
<!-- Node1&#45;&gt;Node134 -->
<g id="edge59" class="edge">
<title>Node1&#45;&gt;Node134</title>
<path fill="none" stroke="#63b8ff" d="M3986.54,-253.1C3997.9,-226.24 4015.61,-184.38 4024.88,-162.47"/>
<polygon fill="#63b8ff" stroke="#63b8ff" points="3983.36,-251.62 3982.69,-262.2 3989.81,-254.35 3983.36,-251.62"/>
</g>
<!-- Node136 -->
<g id="node50" class="node">
<title>Node136</title>
<g id="a_node50"><a xlink:href="d__a__arrow_8h.html" target="_top" xlink:title=" ">
<polygon fill="white" stroke="#666666" points="4236.5,-228 4135.5,-228 4135.5,-198 4236.5,-198 4236.5,-228"/>
<text text-anchor="start" x="4143.5" y="-216" font-family="Helvetica,sans-Serif" font-size="10.00">include/rel/d/a/d_a</text>
<text text-anchor="middle" x="4186" y="-205" font-family="Helvetica,sans-Serif" font-size="10.00">_arrow/d_a_arrow.h</text>
</a>
</g>
</g>
<!-- Node1&#45;&gt;Node136 -->
<g id="edge58" class="edge">
<title>Node1&#45;&gt;Node136</title>
<path fill="none" stroke="#63b8ff" d="M4032.23,-260.86C4065.45,-250.74 4107.04,-238.06 4138.59,-228.45"/>
<polygon fill="#63b8ff" stroke="#63b8ff" points="4031.3,-257.49 4022.76,-263.75 4033.34,-264.18 4031.3,-257.49"/>
</g>
<!-- Node2&#45;&gt;Node3 -->
<g id="edge2" class="edge">
<title>Node2&#45;&gt;Node3</title>
<path fill="none" stroke="#63b8ff" d="M2631,-191.78C2631,-182.17 2631,-170.92 2631,-162.23"/>
<polygon fill="#63b8ff" stroke="#63b8ff" points="2627.5,-191.59 2631,-201.59 2634.5,-191.59 2627.5,-191.59"/>
</g>
<!-- Node13 -->
<g id="node7" class="node">
<title>Node13</title>
<g id="a_node7"><a xlink:href="d__a__alink_8cpp.html" target="_top" xlink:title=" ">
<polygon fill="white" stroke="#666666" points="281.5,-19 172.5,-19 172.5,0 281.5,0 281.5,-19"/>
<text text-anchor="middle" x="227" y="-7" font-family="Helvetica,sans-Serif" font-size="10.00">src/d/a/d_a_alink.cpp</text>
</a>
</g>
</g>
<!-- Node2&#45;&gt;Node13 -->
<g id="edge51" class="edge">
<title>Node2&#45;&gt;Node13</title>
<path fill="none" stroke="#63b8ff" d="M2561.17,-211.52C2159.89,-208.44 162.36,-188.46 74,-96 61.41,-82.83 63.06,-69.57 74,-55 86,-39.02 133.2,-26.9 172.04,-19.37"/>
<polygon fill="#63b8ff" stroke="#63b8ff" points="2561.03,-215.02 2571.06,-211.6 2561.08,-208.02 2561.03,-215.02"/>
</g>
<!-- Node4 -->
<g id="node4" class="node">
<title>Node4</title>
<g id="a_node4"><a xlink:href="d__a__npc_8h.html" target="_top" xlink:title=" ">
<polygon fill="#fff0f0" stroke="red" points="2672.5,-19 2561.5,-19 2561.5,0 2672.5,0 2672.5,-19"/>
<text text-anchor="middle" x="2617" y="-7" font-family="Helvetica,sans-Serif" font-size="10.00">include/d/a/d_a_npc.h</text>
</a>
</g>
</g>
<!-- Node3&#45;&gt;Node4 -->
<g id="edge3" class="edge">
<title>Node3&#45;&gt;Node4</title>
<path fill="none" stroke="#63b8ff" d="M2697.54,-145.2C3075.67,-140.57 4937.69,-116.76 4958,-96 4970.75,-82.98 4970.76,-68.01 4958,-55 4916.69,-12.89 3024.57,-10.56 2672.92,-10.49"/>
<polygon fill="#63b8ff" stroke="#63b8ff" points="2697.74,-141.7 2687.79,-145.32 2697.83,-148.7 2697.74,-141.7"/>
</g>
<!-- Node10 -->
<g id="node5" class="node">
<title>Node10</title>
<g id="a_node5"><a xlink:href="d__cc__uty_8h.html" target="_top" xlink:title=" ">
<polygon fill="#fff0f0" stroke="red" points="615.5,-85 496.5,-85 496.5,-66 615.5,-66 615.5,-85"/>
<text text-anchor="middle" x="556" y="-73" font-family="Helvetica,sans-Serif" font-size="10.00">include/d/cc/d_cc_uty.h</text>
</a>
</g>
</g>
<!-- Node3&#45;&gt;Node10 -->
<g id="edge4" class="edge">
<title>Node3&#45;&gt;Node10</title>
<path fill="none" stroke="#63b8ff" d="M2564.7,-145.35C2239.31,-142.02 819.03,-125.89 624,-96 609.68,-93.8 594.11,-89.49 581.49,-85.48"/>
<polygon fill="#63b8ff" stroke="#63b8ff" points="2564.26,-148.85 2574.3,-145.45 2564.33,-141.85 2564.26,-148.85"/>
</g>
<!-- Node16 -->
<g id="node6" class="node">
<title>Node16</title>
<g id="a_node6"><a xlink:href="d__item_8h.html" target="_top" xlink:title=" ">
<polygon fill="#fff0f0" stroke="red" points="478.5,-85 383.5,-85 383.5,-66 478.5,-66 478.5,-85"/>
<text text-anchor="middle" x="431" y="-73" font-family="Helvetica,sans-Serif" font-size="10.00">include/d/d_item.h</text>
</a>
</g>
</g>
<!-- Node3&#45;&gt;Node16 -->
<g id="edge5" class="edge">
<title>Node3&#45;&gt;Node16</title>
<path fill="none" stroke="#63b8ff" d="M2564.32,-145.68C2224.72,-143.88 695.24,-133.72 487,-96 474.95,-93.82 462,-89.45 451.59,-85.4"/>
<polygon fill="#63b8ff" stroke="#63b8ff" points="2564.13,-149.18 2574.15,-145.73 2564.17,-142.18 2564.13,-149.18"/>
</g>
<!-- Node3&#45;&gt;Node13 -->
<g id="edge41" class="edge">
<title>Node3&#45;&gt;Node13</title>
<path fill="none" stroke="#63b8ff" d="M2564.2,-145.73C2182.41,-144.04 292.07,-133.76 246,-96 222.95,-77.11 224.06,-37.03 225.84,-19.28"/>
<polygon fill="#63b8ff" stroke="#63b8ff" points="2564.04,-149.23 2574.06,-145.77 2564.08,-142.23 2564.04,-149.23"/>
</g>
<!-- Node17 -->
<g id="node8" class="node">
<title>Node17</title>
<g id="a_node8"><a xlink:href="d__a__obj__item_8cpp.html" target="_top" xlink:title=" ">
<polygon fill="white" stroke="#666666" points="5077.5,-19 4952.5,-19 4952.5,0 5077.5,0 5077.5,-19"/>
<text text-anchor="middle" x="5015" y="-7" font-family="Helvetica,sans-Serif" font-size="10.00">src/d/a/d_a_obj_item.cpp</text>
</a>
</g>
</g>
<!-- Node3&#45;&gt;Node17 -->
<g id="edge44" class="edge">
<title>Node3&#45;&gt;Node17</title>
<path fill="none" stroke="#63b8ff" d="M2697.63,-145.06C3077.29,-139.64 4951.55,-112.09 4976,-96 5002.71,-78.42 5011.38,-37.64 5013.98,-19.49"/>
<polygon fill="#63b8ff" stroke="#63b8ff" points="2697.77,-141.56 2687.83,-145.2 2697.87,-148.56 2697.77,-141.56"/>
</g>
<!-- Node21 -->
<g id="node9" class="node">
<title>Node21</title>
<g id="a_node9"><a xlink:href="d__kantera__icon__meter_8h.html" target="_top" xlink:title=" ">
<polygon fill="#fff0f0" stroke="red" points="734.5,-90.5 633.5,-90.5 633.5,-60.5 734.5,-60.5 734.5,-90.5"/>
<text text-anchor="start" x="641.5" y="-78.5" font-family="Helvetica,sans-Serif" font-size="10.00">include/d/d_kantera</text>
<text text-anchor="middle" x="684" y="-67.5" font-family="Helvetica,sans-Serif" font-size="10.00">_icon_meter.h</text>
</a>
</g>
</g>
<!-- Node3&#45;&gt;Node21 -->
<g id="edge8" class="edge">
<title>Node3&#45;&gt;Node21</title>
<path fill="none" stroke="#63b8ff" d="M2564.59,-145.39C2250.89,-142.37 925.07,-127.79 743,-96 736.2,-94.81 729.11,-93 722.3,-90.95"/>
<polygon fill="#63b8ff" stroke="#63b8ff" points="2564.21,-148.89 2574.24,-145.48 2564.27,-141.89 2564.21,-148.89"/>
</g>
<!-- Node24 -->
<g id="node10" class="node">
<title>Node24</title>
<g id="a_node10"><a xlink:href="d__model_8h.html" target="_top" xlink:title=" ">
<polygon fill="#fff0f0" stroke="red" points="855.5,-85 752.5,-85 752.5,-66 855.5,-66 855.5,-85"/>
<text text-anchor="middle" x="804" y="-73" font-family="Helvetica,sans-Serif" font-size="10.00">include/d/d_model.h</text>
</a>
</g>
</g>
<!-- Node3&#45;&gt;Node24 -->
<g id="edge9" class="edge">
<title>Node3&#45;&gt;Node24</title>
<path fill="none" stroke="#63b8ff" d="M2564.49,-145.24C2263.19,-141.66 1033.62,-125.34 864,-96 851.26,-93.8 837.52,-89.48 826.41,-85.47"/>
<polygon fill="#63b8ff" stroke="#63b8ff" points="2564.09,-148.74 2574.13,-145.36 2564.18,-141.74 2564.09,-148.74"/>
</g>
<!-- Node26 -->
<g id="node11" class="node">
<title>Node26</title>
<g id="a_node11"><a xlink:href="d__name_8h.html" target="_top" xlink:title=" ">
<polygon fill="#fff0f0" stroke="red" points="974.5,-85 873.5,-85 873.5,-66 974.5,-66 974.5,-85"/>
<text text-anchor="middle" x="924" y="-73" font-family="Helvetica,sans-Serif" font-size="10.00">include/d/d_name.h</text>
</a>
</g>
</g>
<!-- Node3&#45;&gt;Node26 -->
<g id="edge10" class="edge">
<title>Node3&#45;&gt;Node26</title>
<path fill="none" stroke="#63b8ff" d="M2564.39,-145.09C2275.85,-141.01 1141.23,-123.36 984,-96 971.27,-93.78 957.52,-89.47 946.41,-85.46"/>
<polygon fill="#63b8ff" stroke="#63b8ff" points="2564.34,-148.59 2574.39,-145.23 2564.44,-141.59 2564.34,-148.59"/>
</g>
<!-- Node28 -->
<g id="node12" class="node">
<title>Node28</title>
<g id="a_node12"><a xlink:href="d__file__sel__info_8h.html" target="_top" xlink:title=" ">
<polygon fill="#fff0f0" stroke="red" points="1089,-90.5 993,-90.5 993,-60.5 1089,-60.5 1089,-90.5"/>
<text text-anchor="start" x="1001" y="-78.5" font-family="Helvetica,sans-Serif" font-size="10.00">include/d/file/d_file</text>
<text text-anchor="middle" x="1041" y="-67.5" font-family="Helvetica,sans-Serif" font-size="10.00">_sel_info.h</text>
</a>
</g>
</g>
<!-- Node3&#45;&gt;Node28 -->
<g id="edge11" class="edge">
<title>Node3&#45;&gt;Node28</title>
<path fill="none" stroke="#63b8ff" d="M2564.36,-146.45C2308.04,-147.77 1385.63,-148.67 1098,-96 1091.42,-94.79 1084.56,-92.97 1077.98,-90.92"/>
<polygon fill="#63b8ff" stroke="#63b8ff" points="2564.21,-149.95 2574.19,-146.4 2564.17,-142.95 2564.21,-149.95"/>
</g>
<!-- Node31 -->
<g id="node13" class="node">
<title>Node31</title>
<g id="a_node13"><a xlink:href="d__file__sel__warning_8h.html" target="_top" xlink:title=" ">
<polygon fill="#fff0f0" stroke="red" points="1203,-90.5 1107,-90.5 1107,-60.5 1203,-60.5 1203,-90.5"/>
<text text-anchor="start" x="1115" y="-78.5" font-family="Helvetica,sans-Serif" font-size="10.00">include/d/file/d_file</text>
<text text-anchor="middle" x="1155" y="-67.5" font-family="Helvetica,sans-Serif" font-size="10.00">_sel_warning.h</text>
</a>
</g>
</g>
<!-- Node3&#45;&gt;Node31 -->
<g id="edge12" class="edge">
<title>Node3&#45;&gt;Node31</title>
<path fill="none" stroke="#63b8ff" d="M2564.5,-146.24C2320.7,-146.73 1476.43,-144.78 1212,-96 1205.42,-94.79 1198.56,-92.96 1191.99,-90.9"/>
<polygon fill="#63b8ff" stroke="#63b8ff" points="2564.14,-149.74 2574.13,-146.22 2564.12,-142.74 2564.14,-149.74"/>
</g>
<!-- Node33 -->
<g id="node14" class="node">
<title>Node33</title>
<g id="a_node14"><a xlink:href="d__meter2_8h.html" target="_top" xlink:title=" ">
<polygon fill="#fff0f0" stroke="red" points="1355,-85 1221,-85 1221,-66 1355,-66 1355,-85"/>
<text text-anchor="middle" x="1288" y="-73" font-family="Helvetica,sans-Serif" font-size="10.00">include/d/meter/d_meter2.h</text>
</a>
</g>
</g>
<!-- Node3&#45;&gt;Node33 -->
<g id="edge13" class="edge">
<title>Node3&#45;&gt;Node33</title>
<path fill="none" stroke="#63b8ff" d="M2564.31,-145.23C2337.79,-142.33 1598.97,-130.38 1364,-96 1348.23,-93.69 1331,-89.42 1316.94,-85.46"/>
<polygon fill="#63b8ff" stroke="#63b8ff" points="2564.1,-148.73 2574.14,-145.35 2564.19,-141.73 2564.1,-148.73"/>
</g>
<!-- Node40 -->
<g id="node15" class="node">
<title>Node40</title>
<g id="a_node15"><a xlink:href="d__msg__object_8h.html" target="_top" xlink:title=" ">
<polygon fill="#fff0f0" stroke="red" points="365,-90.5 255,-90.5 255,-60.5 365,-60.5 365,-90.5"/>
<text text-anchor="start" x="263" y="-78.5" font-family="Helvetica,sans-Serif" font-size="10.00">include/d/msg/d_msg</text>
<text text-anchor="middle" x="310" y="-67.5" font-family="Helvetica,sans-Serif" font-size="10.00">_object.h</text>
</a>
</g>
</g>
<!-- Node3&#45;&gt;Node40 -->
<g id="edge14" class="edge">
<title>Node3&#45;&gt;Node40</title>
<path fill="none" stroke="#63b8ff" d="M2564.27,-145.61C2213.91,-143.41 594.68,-131.38 374,-96 366.66,-94.82 358.99,-93.02 351.61,-90.97"/>
<polygon fill="#63b8ff" stroke="#63b8ff" points="2564.18,-149.11 2574.2,-145.67 2564.22,-142.11 2564.18,-149.11"/>
</g>
<!-- Node56 -->
<g id="node16" class="node">
<title>Node56</title>
<g id="a_node16"><a xlink:href="d__s__logo_8h.html" target="_top" xlink:title=" ">
<polygon fill="#fff0f0" stroke="red" points="1486.5,-85 1373.5,-85 1373.5,-66 1486.5,-66 1486.5,-85"/>
<text text-anchor="middle" x="1430" y="-73" font-family="Helvetica,sans-Serif" font-size="10.00">include/d/s/d_s_logo.h</text>
</a>
</g>
</g>
<!-- Node3&#45;&gt;Node56 -->
<g id="edge17" class="edge">
<title>Node3&#45;&gt;Node56</title>
<path fill="none" stroke="#63b8ff" d="M2564.18,-145.23C2353.15,-142.44 1702.63,-131.15 1495,-96 1481.41,-93.7 1466.66,-89.43 1454.66,-85.47"/>
<polygon fill="#63b8ff" stroke="#63b8ff" points="2564.11,-148.73 2574.16,-145.36 2564.2,-141.73 2564.11,-148.73"/>
</g>
<!-- Node58 -->
<g id="node17" class="node">
<title>Node58</title>
<g id="a_node17"><a xlink:href="d__s__play_8h.html" target="_top" xlink:title=" ">
<polygon fill="#fff0f0" stroke="red" points="1617.5,-85 1504.5,-85 1504.5,-66 1617.5,-66 1617.5,-85"/>
<text text-anchor="middle" x="1561" y="-73" font-family="Helvetica,sans-Serif" font-size="10.00">include/d/s/d_s_play.h</text>
</a>
</g>
</g>
<!-- Node3&#45;&gt;Node58 -->
<g id="edge18" class="edge">
<title>Node3&#45;&gt;Node58</title>
<path fill="none" stroke="#63b8ff" d="M2564.08,-144.78C2369.65,-140.89 1807.16,-127.21 1626,-96 1612.42,-93.66 1597.67,-89.39 1585.66,-85.43"/>
<polygon fill="#63b8ff" stroke="#63b8ff" points="2563.95,-148.28 2574.01,-144.97 2564.08,-141.28 2563.95,-148.28"/>
</g>
<!-- Node64 -->
<g id="node18" class="node">
<title>Node64</title>
<g id="a_node18"><a xlink:href="d__msg__scrn__base_8h.html" target="_top" xlink:title=" ">
<polygon fill="#fff0f0" stroke="red" points="1734.5,-90.5 1635.5,-90.5 1635.5,-60.5 1734.5,-60.5 1734.5,-90.5"/>
<text text-anchor="start" x="1643.5" y="-78.5" font-family="Helvetica,sans-Serif" font-size="10.00">include/msg/scrn/d</text>
<text text-anchor="middle" x="1685" y="-67.5" font-family="Helvetica,sans-Serif" font-size="10.00">_msg_scrn_base.h</text>
</a>
</g>
</g>
<!-- Node3&#45;&gt;Node64 -->
<g id="edge19" class="edge">
<title>Node3&#45;&gt;Node64</title>
<path fill="none" stroke="#63b8ff" d="M2564.34,-144.51C2386.06,-140.16 1901.17,-125.86 1744,-96 1737.43,-94.75 1730.58,-92.96 1723.97,-90.97"/>
<polygon fill="#63b8ff" stroke="#63b8ff" points="2564.04,-148 2574.12,-144.74 2564.21,-141 2564.04,-148"/>
</g>
<!-- Node68 -->
<g id="node19" class="node">
<title>Node68</title>
<g id="a_node19"><a xlink:href="d__a__b__oh2_8h.html" target="_top" xlink:title=" ">
<polygon fill="white" stroke="#666666" points="1869,-90.5 1753,-90.5 1753,-60.5 1869,-60.5 1869,-90.5"/>
<text text-anchor="start" x="1761" y="-78.5" font-family="Helvetica,sans-Serif" font-size="10.00">include/rel/d/a/b/d</text>
<text text-anchor="middle" x="1811" y="-67.5" font-family="Helvetica,sans-Serif" font-size="10.00">_a_b_oh2/d_a_b_oh2.h</text>
</a>
</g>
</g>
<!-- Node3&#45;&gt;Node68 -->
<g id="edge20" class="edge">
<title>Node3&#45;&gt;Node68</title>
<path fill="none" stroke="#63b8ff" d="M2564.22,-146.4C2432.11,-146.13 2128.48,-140.23 1878,-96 1870.72,-94.72 1863.11,-92.94 1855.73,-90.97"/>
<polygon fill="#63b8ff" stroke="#63b8ff" points="2564.19,-149.9 2574.2,-146.41 2564.2,-142.9 2564.19,-149.9"/>
</g>
<!-- Node69 -->
<g id="node20" class="node">
<title>Node69</title>
<g id="a_node20"><a xlink:href="d__a__b__zant_8h.html" target="_top" xlink:title=" ">
<polygon fill="white" stroke="#666666" points="2008.5,-90.5 1887.5,-90.5 1887.5,-60.5 2008.5,-60.5 2008.5,-90.5"/>
<text text-anchor="start" x="1895.5" y="-78.5" font-family="Helvetica,sans-Serif" font-size="10.00">include/rel/d/a/b/d</text>
<text text-anchor="middle" x="1948" y="-67.5" font-family="Helvetica,sans-Serif" font-size="10.00">_a_b_zant/d_a_b_zant.h</text>
</a>
</g>
</g>
<!-- Node3&#45;&gt;Node69 -->
<g id="edge21" class="edge">
<title>Node3&#45;&gt;Node69</title>
<path fill="none" stroke="#63b8ff" d="M2564.39,-144.71C2451.24,-141.59 2214.65,-131.08 2018,-96 2010.55,-94.67 2002.74,-92.89 1995.16,-90.95"/>
<polygon fill="#63b8ff" stroke="#63b8ff" points="2564,-148.2 2574.09,-144.96 2564.18,-141.2 2564,-148.2"/>
</g>
<!-- Node70 -->
<g id="node21" class="node">
<title>Node70</title>
<g id="a_node21"><a xlink:href="d__a__cstaF_8h.html" target="_top" xlink:title=" ">
<polygon fill="white" stroke="#666666" points="2127,-90.5 2027,-90.5 2027,-60.5 2127,-60.5 2127,-90.5"/>
<text text-anchor="start" x="2035" y="-78.5" font-family="Helvetica,sans-Serif" font-size="10.00">include/rel/d/a/d_a</text>
<text text-anchor="middle" x="2077" y="-67.5" font-family="Helvetica,sans-Serif" font-size="10.00">_cstaf/d_a_cstaF.h</text>
</a>
</g>
</g>
<!-- Node3&#45;&gt;Node70 -->
<g id="edge22" class="edge">
<title>Node3&#45;&gt;Node70</title>
<path fill="none" stroke="#63b8ff" d="M2564.59,-143.89C2468.92,-139.82 2287.19,-128.22 2136,-96 2129.67,-94.65 2123.07,-92.86 2116.66,-90.92"/>
<polygon fill="#63b8ff" stroke="#63b8ff" points="2564.18,-147.38 2574.31,-144.29 2564.46,-140.39 2564.18,-147.38"/>
</g>
<!-- Node71 -->
<g id="node22" class="node">
<title>Node71</title>
<g id="a_node22"><a xlink:href="d__a__dmidna_8h.html" target="_top" xlink:title=" ">
<polygon fill="white" stroke="#666666" points="2261,-90.5 2145,-90.5 2145,-60.5 2261,-60.5 2261,-90.5"/>
<text text-anchor="start" x="2153" y="-78.5" font-family="Helvetica,sans-Serif" font-size="10.00">include/rel/d/a/d_a</text>
<text text-anchor="middle" x="2203" y="-67.5" font-family="Helvetica,sans-Serif" font-size="10.00">_dmidna/d_a_dmidna.h</text>
</a>
</g>
</g>
<!-- Node3&#45;&gt;Node71 -->
<g id="edge23" class="edge">
<title>Node3&#45;&gt;Node71</title>
<path fill="none" stroke="#63b8ff" d="M2564.24,-139.7C2491.4,-132.14 2371.61,-117.7 2270,-96 2263.25,-94.56 2256.18,-92.79 2249.27,-90.92"/>
<polygon fill="#63b8ff" stroke="#63b8ff" points="2563.71,-143.16 2574.02,-140.7 2564.42,-136.2 2563.71,-143.16"/>
</g>
<!-- Node72 -->
<g id="node23" class="node">
<title>Node72</title>
<g id="a_node23"><a xlink:href="d__a__set__bgobj_8h.html" target="_top" xlink:title=" ">
<polygon fill="white" stroke="#666666" points="2416.5,-90.5 2279.5,-90.5 2279.5,-60.5 2416.5,-60.5 2416.5,-90.5"/>
<text text-anchor="start" x="2287.5" y="-78.5" font-family="Helvetica,sans-Serif" font-size="10.00">include/rel/d/a/d_a</text>
<text text-anchor="middle" x="2348" y="-67.5" font-family="Helvetica,sans-Serif" font-size="10.00">_set_bgobj/d_a_set_bgobj.h</text>
</a>
</g>
</g>
<!-- Node3&#45;&gt;Node72 -->
<g id="edge24" class="edge">
<title>Node3&#45;&gt;Node72</title>
<path fill="none" stroke="#63b8ff" d="M2564.74,-129.94C2524.58,-120.18 2472.33,-107.44 2426,-96 2419.36,-94.36 2412.4,-92.63 2405.5,-90.91"/>
<polygon fill="#63b8ff" stroke="#63b8ff" points="2563.71,-133.29 2574.26,-132.25 2565.37,-126.49 2563.71,-133.29"/>
</g>
<!-- Node73 -->
<g id="node24" class="node">
<title>Node73</title>
<g id="a_node24"><a xlink:href="d__a__skip__2D_8h.html" target="_top" xlink:title=" ">
<polygon fill="white" stroke="#666666" points="2559,-90.5 2435,-90.5 2435,-60.5 2559,-60.5 2559,-90.5"/>
<text text-anchor="start" x="2443" y="-78.5" font-family="Helvetica,sans-Serif" font-size="10.00">include/rel/d/a/d_a</text>
<text text-anchor="middle" x="2497" y="-67.5" font-family="Helvetica,sans-Serif" font-size="10.00">_skip_2D/d_a_skip_2D.h</text>
</a>
</g>
</g>
<!-- Node3&#45;&gt;Node73 -->
<g id="edge25" class="edge">
<title>Node3&#45;&gt;Node73</title>
<path fill="none" stroke="#63b8ff" d="M2593.02,-126.3C2571.28,-115.03 2544.48,-101.13 2524.73,-90.88"/>
<polygon fill="#63b8ff" stroke="#63b8ff" points="2591.4,-129.41 2601.89,-130.9 2594.63,-123.19 2591.4,-129.41"/>
</g>
<!-- Node74 -->
<g id="node25" class="node">
<title>Node74</title>
<g id="a_node25"><a xlink:href="d__a__spinner_8h.html" target="_top" xlink:title=" ">
<polygon fill="#fff0f0" stroke="red" points="199,-90.5 83,-90.5 83,-60.5 199,-60.5 199,-90.5"/>
<text text-anchor="start" x="91" y="-78.5" font-family="Helvetica,sans-Serif" font-size="10.00">include/rel/d/a/d_a</text>
<text text-anchor="middle" x="141" y="-67.5" font-family="Helvetica,sans-Serif" font-size="10.00">_spinner/d_a_spinner.h</text>
</a>
</g>
</g>
<!-- Node3&#45;&gt;Node74 -->
<g id="edge26" class="edge">
<title>Node3&#45;&gt;Node74</title>
<path fill="none" stroke="#63b8ff" d="M2564.28,-145.59C2199.19,-143.22 451.02,-130.17 213,-96 204.8,-94.82 196.19,-93.01 187.91,-90.97"/>
<polygon fill="#63b8ff" stroke="#63b8ff" points="2564.15,-149.09 2574.17,-145.65 2564.19,-142.09 2564.15,-149.09"/>
</g>
<!-- Node76 -->
<g id="node26" class="node">
<title>Node76</title>
<g id="a_node26"><a xlink:href="d__a__player_8cpp.html" target="_top" xlink:title=" ">
<polygon fill="white" stroke="#666666" points="114,-19 0,-19 0,0 114,0 114,-19"/>
<text text-anchor="middle" x="57" y="-7" font-family="Helvetica,sans-Serif" font-size="10.00">src/d/a/d_a_player.cpp</text>
</a>
</g>
</g>
<!-- Node3&#45;&gt;Node76 -->
<g id="edge45" class="edge">
<title>Node3&#45;&gt;Node76</title>
<path fill="none" stroke="#63b8ff" d="M2564.51,-145.84C2167.27,-144.75 123.17,-137.17 74,-96 51.26,-76.96 53.37,-36.96 55.62,-19.25"/>
<polygon fill="#63b8ff" stroke="#63b8ff" points="2564.25,-149.34 2574.26,-145.87 2564.27,-142.34 2564.25,-149.34"/>
</g>
<!-- Node77 -->
<g id="node27" class="node">
<title>Node77</title>
<g id="a_node27"><a xlink:href="d__a__obj__cboard_8h.html" target="_top" xlink:title=" ">
<polygon fill="white" stroke="#666666" points="2684.5,-96 2577.5,-96 2577.5,-55 2684.5,-55 2684.5,-96"/>
<text text-anchor="start" x="2585.5" y="-84" font-family="Helvetica,sans-Serif" font-size="10.00">include/rel/d/a/obj</text>
<text text-anchor="start" x="2585.5" y="-73" font-family="Helvetica,sans-Serif" font-size="10.00">/d_a_obj_cboard/d_a</text>
<text text-anchor="middle" x="2631" y="-62" font-family="Helvetica,sans-Serif" font-size="10.00">_obj_cboard.h</text>
</a>
</g>
</g>
<!-- Node3&#45;&gt;Node77 -->
<g id="edge29" class="edge">
<title>Node3&#45;&gt;Node77</title>
<path fill="none" stroke="#63b8ff" d="M2631,-120.36C2631,-112.45 2631,-103.87 2631,-96.42"/>
<polygon fill="#63b8ff" stroke="#63b8ff" points="2627.5,-120.09 2631,-130.09 2634.5,-120.09 2627.5,-120.09"/>
</g>
<!-- Node78 -->
<g id="node28" class="node">
<title>Node78</title>
<g id="a_node28"><a xlink:href="d__a__obj__enemy__create_8h.html" target="_top" xlink:title=" ">
<polygon fill="white" stroke="#666666" points="2829.5,-96 2702.5,-96 2702.5,-55 2829.5,-55 2829.5,-96"/>
<text text-anchor="start" x="2710.5" y="-84" font-family="Helvetica,sans-Serif" font-size="10.00">include/rel/d/a/obj</text>
<text text-anchor="start" x="2710.5" y="-73" font-family="Helvetica,sans-Serif" font-size="10.00">/d_a_obj_enemy_create</text>
<text text-anchor="middle" x="2766" y="-62" font-family="Helvetica,sans-Serif" font-size="10.00">/d_a_obj_enemy_create.h</text>
</a>
</g>
</g>
<!-- Node3&#45;&gt;Node78 -->
<g id="edge30" class="edge">
<title>Node3&#45;&gt;Node78</title>
<path fill="none" stroke="#63b8ff" d="M2668.96,-126.46C2687.19,-117.07 2708.99,-105.85 2727.31,-96.42"/>
<polygon fill="#63b8ff" stroke="#63b8ff" points="2667.61,-123.22 2660.32,-130.91 2670.81,-129.44 2667.61,-123.22"/>
</g>
<!-- Node79 -->
<g id="node29" class="node">
<title>Node79</title>
<g id="a_node29"><a xlink:href="d__a__obj__web0_8h.html" target="_top" xlink:title=" ">
<polygon fill="white" stroke="#666666" points="2966.5,-96 2847.5,-96 2847.5,-55 2966.5,-55 2966.5,-96"/>
<text text-anchor="start" x="2855.5" y="-84" font-family="Helvetica,sans-Serif" font-size="10.00">include/rel/d/a/obj</text>
<text text-anchor="start" x="2855.5" y="-73" font-family="Helvetica,sans-Serif" font-size="10.00">/d_a_obj_web0/d_a_obj</text>
<text text-anchor="middle" x="2907" y="-62" font-family="Helvetica,sans-Serif" font-size="10.00">_web0.h</text>
</a>
</g>
</g>
<!-- Node3&#45;&gt;Node79 -->
<g id="edge31" class="edge">
<title>Node3&#45;&gt;Node79</title>
<path fill="none" stroke="#63b8ff" d="M2697.54,-130.78C2738.45,-121.23 2791.89,-108.41 2839,-96 2841.73,-95.28 2844.52,-94.53 2847.34,-93.77"/>
<polygon fill="#63b8ff" stroke="#63b8ff" points="2696.76,-127.37 2687.82,-133.04 2698.35,-134.18 2696.76,-127.37"/>
</g>
<!-- Node80 -->
<g id="node30" class="node">
<title>Node80</title>
<g id="a_node30"><a xlink:href="d__a__obj__web1_8h.html" target="_top" xlink:title=" ">
<polygon fill="white" stroke="#666666" points="3103.5,-96 2984.5,-96 2984.5,-55 3103.5,-55 3103.5,-96"/>
<text text-anchor="start" x="2992.5" y="-84" font-family="Helvetica,sans-Serif" font-size="10.00">include/rel/d/a/obj</text>
<text text-anchor="start" x="2992.5" y="-73" font-family="Helvetica,sans-Serif" font-size="10.00">/d_a_obj_web1/d_a_obj</text>
<text text-anchor="middle" x="3044" y="-62" font-family="Helvetica,sans-Serif" font-size="10.00">_web1.h</text>
</a>
</g>
</g>
<!-- Node3&#45;&gt;Node80 -->
<g id="edge32" class="edge">
<title>Node3&#45;&gt;Node80</title>
<path fill="none" stroke="#63b8ff" d="M2697.64,-139.05C2767.47,-131.14 2880.15,-116.59 2976,-96 2978.64,-95.43 2981.33,-94.82 2984.04,-94.17"/>
<polygon fill="#63b8ff" stroke="#63b8ff" points="2697.43,-135.55 2687.89,-140.14 2698.21,-142.51 2697.43,-135.55"/>
</g>
<!-- Node81 -->
<g id="node31" class="node">
<title>Node81</title>
<g id="a_node31"><a xlink:href="d__a__obj__yobikusa_8h.html" target="_top" xlink:title=" ">
<polygon fill="white" stroke="#666666" points="3226.5,-96 3121.5,-96 3121.5,-55 3226.5,-55 3226.5,-96"/>
<text text-anchor="start" x="3129.5" y="-84" font-family="Helvetica,sans-Serif" font-size="10.00">include/rel/d/a/obj</text>
<text text-anchor="start" x="3129.5" y="-73" font-family="Helvetica,sans-Serif" font-size="10.00">/d_a_obj_yobikusa/d</text>
<text text-anchor="middle" x="3174" y="-62" font-family="Helvetica,sans-Serif" font-size="10.00">_a_obj_yobikusa.h</text>
</a>
</g>
</g>
<!-- Node3&#45;&gt;Node81 -->
<g id="edge33" class="edge">
<title>Node3&#45;&gt;Node81</title>
<path fill="none" stroke="#63b8ff" d="M2697.41,-143.44C2790.99,-138.85 2966.57,-126.66 3113,-96 3115.72,-95.43 3118.49,-94.79 3121.28,-94.09"/>
<polygon fill="#63b8ff" stroke="#63b8ff" points="2697.48,-139.93 2687.65,-143.9 2697.81,-146.92 2697.48,-139.93"/>
</g>
<!-- Node82 -->
<g id="node32" class="node">
<title>Node82</title>
<g id="a_node32"><a xlink:href="d__a__tag__ajnot_8h.html" target="_top" xlink:title=" ">
<polygon fill="white" stroke="#666666" points="3363,-96 3245,-96 3245,-55 3363,-55 3363,-96"/>
<text text-anchor="start" x="3253" y="-84" font-family="Helvetica,sans-Serif" font-size="10.00">include/rel/d/a/tag</text>
<text text-anchor="start" x="3253" y="-73" font-family="Helvetica,sans-Serif" font-size="10.00">/d_a_tag_ajnot/d_a_tag</text>
<text text-anchor="middle" x="3304" y="-62" font-family="Helvetica,sans-Serif" font-size="10.00">_ajnot.h</text>
</a>
</g>
</g>
<!-- Node3&#45;&gt;Node82 -->
<g id="edge34" class="edge">
<title>Node3&#45;&gt;Node82</title>
<path fill="none" stroke="#63b8ff" d="M2697.55,-144.77C2809.56,-141.75 3042.5,-131.38 3236,-96 3238.9,-95.47 3241.85,-94.87 3244.82,-94.21"/>
<polygon fill="#63b8ff" stroke="#63b8ff" points="2697.54,-141.27 2687.63,-145.03 2697.72,-148.27 2697.54,-141.27"/>
</g>
<!-- Node83 -->
<g id="node33" class="node">
<title>Node83</title>
<g id="a_node33"><a xlink:href="d__a__tag__assistance_8h.html" target="_top" xlink:title=" ">
<polygon fill="white" stroke="#666666" points="3495,-96 3381,-96 3381,-55 3495,-55 3495,-96"/>
<text text-anchor="start" x="3389" y="-84" font-family="Helvetica,sans-Serif" font-size="10.00">include/rel/d/a/tag</text>
<text text-anchor="start" x="3389" y="-73" font-family="Helvetica,sans-Serif" font-size="10.00">/d_a_tag_assistance</text>
<text text-anchor="middle" x="3438" y="-62" font-family="Helvetica,sans-Serif" font-size="10.00">/d_a_tag_assistance.h</text>
</a>
</g>
</g>
<!-- Node3&#45;&gt;Node83 -->
<g id="edge35" class="edge">
<title>Node3&#45;&gt;Node83</title>
<path fill="none" stroke="#63b8ff" d="M2697.71,-146.39C2828.26,-146.07 3126.22,-140.05 3372,-96 3374.82,-95.49 3377.7,-94.91 3380.59,-94.27"/>
<polygon fill="#63b8ff" stroke="#63b8ff" points="2697.86,-142.88 2687.86,-146.4 2697.87,-149.88 2697.86,-142.88"/>
</g>
<!-- Node84 -->
<g id="node34" class="node">
<title>Node84</title>
<g id="a_node34"><a xlink:href="d__a__tag__gra_8h.html" target="_top" xlink:title=" ">
<polygon fill="white" stroke="#666666" points="3650.5,-90.5 3513.5,-90.5 3513.5,-60.5 3650.5,-60.5 3650.5,-90.5"/>
<text text-anchor="start" x="3521.5" y="-78.5" font-family="Helvetica,sans-Serif" font-size="10.00">include/rel/d/a/tag</text>
<text text-anchor="middle" x="3582" y="-67.5" font-family="Helvetica,sans-Serif" font-size="10.00">/d_a_tag_gra/d_a_tag_gra.h</text>
</a>
</g>
</g>
<!-- Node3&#45;&gt;Node84 -->
<g id="edge36" class="edge">
<title>Node3&#45;&gt;Node84</title>
<path fill="none" stroke="#63b8ff" d="M2697.72,-146.43C2844.42,-146.45 3205.72,-141.41 3504,-96 3512.42,-94.72 3521.25,-92.94 3529.83,-90.98"/>
<polygon fill="#63b8ff" stroke="#63b8ff" points="2697.79,-142.93 2687.79,-146.42 2697.78,-149.93 2697.79,-142.93"/>
</g>
<!-- Node85 -->
<g id="node35" class="node">
<title>Node85</title>
<g id="a_node35"><a xlink:href="d__a__tag__howl_8h.html" target="_top" xlink:title=" ">
<polygon fill="white" stroke="#666666" points="3785.5,-96 3668.5,-96 3668.5,-55 3785.5,-55 3785.5,-96"/>
<text text-anchor="start" x="3676.5" y="-84" font-family="Helvetica,sans-Serif" font-size="10.00">include/rel/d/a/tag</text>
<text text-anchor="start" x="3676.5" y="-73" font-family="Helvetica,sans-Serif" font-size="10.00">/d_a_tag_howl/d_a_tag</text>
<text text-anchor="middle" x="3727" y="-62" font-family="Helvetica,sans-Serif" font-size="10.00">_howl.h</text>
</a>
</g>
</g>
<!-- Node3&#45;&gt;Node85 -->
<g id="edge37" class="edge">
<title>Node3&#45;&gt;Node85</title>
<path fill="none" stroke="#63b8ff" d="M2697.83,-144.8C2895.28,-140.93 3473.86,-127.17 3660,-96 3662.75,-95.54 3665.54,-95.01 3668.35,-94.41"/>
<polygon fill="#63b8ff" stroke="#63b8ff" points="2697.93,-141.3 2688,-144.99 2698.07,-148.3 2697.93,-141.3"/>
</g>
<!-- Node86 -->
<g id="node36" class="node">
<title>Node86</title>
<g id="a_node36"><a xlink:href="d__a__tag__lv6CstaSw_8h.html" target="_top" xlink:title=" ">
<polygon fill="white" stroke="#666666" points="3918.5,-96 3803.5,-96 3803.5,-55 3918.5,-55 3918.5,-96"/>
<text text-anchor="start" x="3811.5" y="-84" font-family="Helvetica,sans-Serif" font-size="10.00">include/rel/d/a/tag</text>
<text text-anchor="start" x="3811.5" y="-73" font-family="Helvetica,sans-Serif" font-size="10.00">/d_a_tag_lv6CstaSw/d</text>
<text text-anchor="middle" x="3861" y="-62" font-family="Helvetica,sans-Serif" font-size="10.00">_a_tag_lv6CstaSw.h</text>
</a>
</g>
</g>
<!-- Node3&#45;&gt;Node86 -->
<g id="edge38" class="edge">
<title>Node3&#45;&gt;Node86</title>
<path fill="none" stroke="#63b8ff" d="M2697.66,-145.27C2911.94,-142.61 3581.58,-131.56 3795,-96 3797.71,-95.55 3800.47,-95.02 3803.24,-94.43"/>
<polygon fill="#63b8ff" stroke="#63b8ff" points="2697.77,-141.77 2687.81,-145.39 2697.85,-148.77 2697.77,-141.77"/>
</g>
<!-- Node87 -->
<g id="node37" class="node">
<title>Node87</title>
<g id="a_node37"><a xlink:href="d__a__tag__telop_8h.html" target="_top" xlink:title=" ">
<polygon fill="white" stroke="#666666" points="4055,-96 3937,-96 3937,-55 4055,-55 4055,-96"/>
<text text-anchor="start" x="3945" y="-84" font-family="Helvetica,sans-Serif" font-size="10.00">include/rel/d/a/tag</text>
<text text-anchor="start" x="3945" y="-73" font-family="Helvetica,sans-Serif" font-size="10.00">/d_a_tag_telop/d_a_tag</text>
<text text-anchor="middle" x="3996" y="-62" font-family="Helvetica,sans-Serif" font-size="10.00">_telop.h</text>
</a>
</g>
</g>
<!-- Node3&#45;&gt;Node87 -->
<g id="edge39" class="edge">
<title>Node3&#45;&gt;Node87</title>
<path fill="none" stroke="#63b8ff" d="M2697.39,-145.55C2927.11,-143.66 3687.31,-134.57 3928,-96 3930.91,-95.53 3933.87,-94.98 3936.85,-94.37"/>
<polygon fill="#63b8ff" stroke="#63b8ff" points="2697.7,-142.05 2687.73,-145.63 2697.75,-149.05 2697.7,-142.05"/>
</g>
<!-- Node88 -->
<g id="node38" class="node">
<title>Node88</title>
<g id="a_node38"><a xlink:href="c__dylink_8cpp.html" target="_top" xlink:title=" ">
<polygon fill="white" stroke="#666666" points="4168.5,-85 4073.5,-85 4073.5,-66 4168.5,-66 4168.5,-85"/>
<text text-anchor="middle" x="4121" y="-73" font-family="Helvetica,sans-Serif" font-size="10.00">src/c/c_dylink.cpp</text>
</a>
</g>
</g>
<!-- Node3&#45;&gt;Node88 -->
<g id="edge40" class="edge">
<title>Node3&#45;&gt;Node88</title>
<path fill="none" stroke="#63b8ff" d="M2697.33,-146.27C2942.44,-146.86 3796.65,-145.27 4064,-96 4076.14,-93.76 4089.2,-89.45 4099.75,-85.44"/>
<polygon fill="#63b8ff" stroke="#63b8ff" points="2697.65,-142.77 2687.64,-146.24 2697.63,-149.77 2697.65,-142.77"/>
</g>
<!-- Node89 -->
<g id="node39" class="node">
<title>Node89</title>
<g id="a_node39"><a xlink:href="d__a__itembase_8cpp.html" target="_top" xlink:title=" ">
<polygon fill="white" stroke="#666666" points="4315,-85 4187,-85 4187,-66 4315,-66 4315,-85"/>
<text text-anchor="middle" x="4251" y="-73" font-family="Helvetica,sans-Serif" font-size="10.00">src/d/a/d_a_itembase.cpp</text>
</a>
</g>
</g>
<!-- Node3&#45;&gt;Node89 -->
<g id="edge42" class="edge">
<title>Node3&#45;&gt;Node89</title>
<path fill="none" stroke="#63b8ff" d="M2697.71,-145.87C2955.4,-145.06 3885.92,-139.15 4178,-96 4193.31,-93.74 4210.02,-89.42 4223.58,-85.42"/>
<polygon fill="#63b8ff" stroke="#63b8ff" points="2697.81,-142.37 2687.82,-145.9 2697.83,-149.37 2697.81,-142.37"/>
</g>
<!-- Node90 -->
<g id="node40" class="node">
<title>Node90</title>
<g id="a_node40"><a xlink:href="d__a__obj_8cpp.html" target="_top" xlink:title=" ">
<polygon fill="white" stroke="#666666" points="4434.5,-85 4333.5,-85 4333.5,-66 4434.5,-66 4434.5,-85"/>
<text text-anchor="middle" x="4384" y="-73" font-family="Helvetica,sans-Serif" font-size="10.00">src/d/a/d_a_obj.cpp</text>
</a>
</g>
</g>
<!-- Node3&#45;&gt;Node90 -->
<g id="edge43" class="edge">
<title>Node3&#45;&gt;Node90</title>
<path fill="none" stroke="#63b8ff" d="M2697.56,-145.15C2991.04,-141.27 4162.02,-124.12 4324,-96 4336.73,-93.79 4350.48,-89.47 4361.59,-85.46"/>
<polygon fill="#63b8ff" stroke="#63b8ff" points="2697.74,-141.65 2687.79,-145.28 2697.83,-148.65 2697.74,-141.65"/>
</g>
<!-- Node91 -->
<g id="node41" class="node">
<title>Node91</title>
<g id="a_node41"><a xlink:href="d__bg__s_8cpp.html" target="_top" xlink:title=" ">
<polygon fill="white" stroke="#666666" points="4557,-85 4453,-85 4453,-66 4557,-66 4557,-85"/>
<text text-anchor="middle" x="4505" y="-73" font-family="Helvetica,sans-Serif" font-size="10.00">src/d/bg/d_bg_s.cpp</text>
</a>
</g>
</g>
<!-- Node3&#45;&gt;Node91 -->
<g id="edge46" class="edge">
<title>Node3&#45;&gt;Node91</title>
<path fill="none" stroke="#63b8ff" d="M2697.72,-145.27C3004.2,-141.78 4269.6,-125.67 4444,-96 4456.93,-93.8 4470.9,-89.49 4482.21,-85.47"/>
<polygon fill="#63b8ff" stroke="#63b8ff" points="2697.85,-141.77 2687.89,-145.38 2697.92,-148.77 2697.85,-141.77"/>
</g>
<!-- Node92 -->
<g id="node42" class="node">
<title>Node92</title>
<g id="a_node42"><a xlink:href="d__bg__s__movebg__actor_8cpp.html" target="_top" xlink:title=" ">
<polygon fill="white" stroke="#666666" points="4701,-90.5 4575,-90.5 4575,-60.5 4701,-60.5 4701,-90.5"/>
<text text-anchor="start" x="4583" y="-78.5" font-family="Helvetica,sans-Serif" font-size="10.00">src/d/bg/d_bg_s_movebg</text>
<text text-anchor="middle" x="4638" y="-67.5" font-family="Helvetica,sans-Serif" font-size="10.00">_actor.cpp</text>
</a>
</g>
</g>
<!-- Node3&#45;&gt;Node92 -->
<g id="edge47" class="edge">
<title>Node3&#45;&gt;Node92</title>
<path fill="none" stroke="#63b8ff" d="M2697.45,-145.22C3015.91,-141.38 4378.27,-123.44 4566,-96 4574.2,-94.8 4582.8,-92.98 4591.09,-90.93"/>
<polygon fill="#63b8ff" stroke="#63b8ff" points="2697.6,-141.72 2687.64,-145.34 2697.68,-148.72 2697.6,-141.72"/>
</g>
<!-- Node93 -->
<g id="node43" class="node">
<title>Node93</title>
<g id="a_node43"><a xlink:href="d__bg__w_8cpp.html" target="_top" xlink:title=" ">
<polygon fill="white" stroke="#666666" points="4826.5,-85 4719.5,-85 4719.5,-66 4826.5,-66 4826.5,-85"/>
<text text-anchor="middle" x="4773" y="-73" font-family="Helvetica,sans-Serif" font-size="10.00">src/d/bg/d_bg_w.cpp</text>
</a>
</g>
</g>
<!-- Node3&#45;&gt;Node93 -->
<g id="edge48" class="edge">
<title>Node3&#45;&gt;Node93</title>
<path fill="none" stroke="#63b8ff" d="M2697.77,-144.91C3042.47,-139.23 4608.57,-112.59 4710,-96 4723.33,-93.82 4737.76,-89.51 4749.44,-85.49"/>
<polygon fill="#63b8ff" stroke="#63b8ff" points="2697.95,-141.41 2688.01,-145.07 2698.07,-148.41 2697.95,-141.41"/>
</g>
<!-- Node94 -->
<g id="node44" class="node">
<title>Node94</title>
<g id="a_node44"><a xlink:href="d__cc__s_8cpp.html" target="_top" xlink:title=" ">
<polygon fill="white" stroke="#666666" points="4949,-85 4845,-85 4845,-66 4949,-66 4949,-85"/>
<text text-anchor="middle" x="4897" y="-73" font-family="Helvetica,sans-Serif" font-size="10.00">src/d/cc/d_cc_s.cpp</text>
</a>
</g>
</g>
<!-- Node3&#45;&gt;Node94 -->
<g id="edge49" class="edge">
<title>Node3&#45;&gt;Node94</title>
<path fill="none" stroke="#63b8ff" d="M2697.73,-145.02C3054.86,-139.74 4728.09,-114.08 4836,-96 4848.94,-93.83 4862.91,-89.52 4874.21,-85.5"/>
<polygon fill="#63b8ff" stroke="#63b8ff" points="2697.78,-141.52 2687.83,-145.17 2697.88,-148.52 2697.78,-141.52"/>
</g>
<!-- Node3&#45;&gt;Node120 -->
<g id="edge50" class="edge">
<title>Node3&#45;&gt;Node120</title>
<path fill="none" stroke="#63b8ff" d="M2697.73,-145.01C3073.24,-139.38 4910.38,-111.17 5029,-96 5046.13,-93.81 5064.89,-89.5 5080.14,-85.48"/>
<polygon fill="#63b8ff" stroke="#63b8ff" points="2697.73,-141.51 2687.79,-145.16 2697.84,-148.51 2697.73,-141.51"/>
</g>
<!-- Node16&#45;&gt;Node13 -->
<g id="edge6" class="edge">
<title>Node16&#45;&gt;Node13</title>
<path fill="none" stroke="#63b8ff" d="M394.96,-61.95C388.02,-59.6 380.79,-57.19 374,-55 334.03,-42.12 287.6,-28.24 257.79,-19.47"/>
<polygon fill="#63b8ff" stroke="#63b8ff" points="393.5,-65.15 404.1,-65.08 395.77,-58.53 393.5,-65.15"/>
</g>
<!-- Node16&#45;&gt;Node17 -->
<g id="edge7" class="edge">
<title>Node16&#45;&gt;Node17</title>
<path fill="none" stroke="#63b8ff" d="M462.25,-61.62C470.19,-58.9 478.8,-56.43 487,-55 602.17,-34.94 4414.83,-13.73 4952.28,-10.83"/>
<polygon fill="#63b8ff" stroke="#63b8ff" points="461.18,-58.28 453,-65.01 463.59,-64.85 461.18,-58.28"/>
</g>
<!-- Node40&#45;&gt;Node4 -->
<g id="edge15" class="edge">
<title>Node40&#45;&gt;Node4</title>
<path fill="none" stroke="#63b8ff" d="M362.47,-57.26C366.34,-56.37 370.21,-55.6 374,-55 595.59,-19.74 2235.68,-11.9 2561,-10.69"/>
<polygon fill="#63b8ff" stroke="#63b8ff" points="361.91,-53.79 353.08,-59.65 363.63,-60.57 361.91,-53.79"/>
</g>
<!-- Node40&#45;&gt;Node13 -->
<g id="edge16" class="edge">
<title>Node40&#45;&gt;Node13</title>
<path fill="none" stroke="#63b8ff" d="M282.68,-53.43C267.66,-41.85 249.83,-28.11 238.47,-19.34"/>
<polygon fill="#63b8ff" stroke="#63b8ff" points="280.32,-56.04 290.38,-59.37 284.6,-50.49 280.32,-56.04"/>
</g>
<!-- Node74&#45;&gt;Node13 -->
<g id="edge27" class="edge">
<title>Node74&#45;&gt;Node13</title>
<path fill="none" stroke="#63b8ff" d="M169.31,-53.43C184.87,-41.85 203.34,-28.11 215.12,-19.34"/>
<polygon fill="#63b8ff" stroke="#63b8ff" points="167.23,-50.61 161.3,-59.39 171.41,-56.23 167.23,-50.61"/>
</g>
<!-- Node74&#45;&gt;Node76 -->
<g id="edge28" class="edge">
<title>Node74&#45;&gt;Node76</title>
<path fill="none" stroke="#63b8ff" d="M113.35,-53.43C98.15,-41.85 80.11,-28.11 68.61,-19.34"/>
<polygon fill="#63b8ff" stroke="#63b8ff" points="111.08,-56.1 121.15,-59.38 115.32,-50.53 111.08,-56.1"/>
</g>
<!-- Node133 -->
<g id="node47" class="node">
<title>Node133</title>
<g id="a_node47"><a xlink:href="d__a__obj__item_8h.html" target="_top" xlink:title=" ">
<polygon fill="white" stroke="#666666" points="3809.5,-162 3708.5,-162 3708.5,-132 3809.5,-132 3809.5,-162"/>
<text text-anchor="start" x="3716.5" y="-150" font-family="Helvetica,sans-Serif" font-size="10.00">include/d/a/d_a_obj</text>
<text text-anchor="middle" x="3759" y="-139" font-family="Helvetica,sans-Serif" font-size="10.00">_item.h</text>
</a>
</g>
</g>
<!-- Node132&#45;&gt;Node133 -->
<g id="edge53" class="edge">
<title>Node132&#45;&gt;Node133</title>
<path fill="none" stroke="#63b8ff" d="M3864.8,-193.14C3841.79,-183.32 3814.09,-171.51 3792.81,-162.43"/>
<polygon fill="#63b8ff" stroke="#63b8ff" points="3863.37,-196.34 3873.94,-197.04 3866.12,-189.9 3863.37,-196.34"/>
</g>
<!-- Node132&#45;&gt;Node134 -->
<g id="edge55" class="edge">
<title>Node132&#45;&gt;Node134</title>
<path fill="none" stroke="#63b8ff" d="M3946.52,-192.32C3964.99,-182.63 3986.86,-171.16 4003.71,-162.31"/>
<polygon fill="#63b8ff" stroke="#63b8ff" points="3944.95,-189.19 3937.72,-196.93 3948.2,-195.39 3944.95,-189.19"/>
</g>
<!-- Node135 -->
<g id="node49" class="node">
<title>Node135</title>
<g id="a_node49"><a xlink:href="d__a__item__static_8cpp.html" target="_top" xlink:title=" ">
<polygon fill="white" stroke="#666666" points="3964.5,-156.5 3827.5,-156.5 3827.5,-137.5 3964.5,-137.5 3964.5,-156.5"/>
<text text-anchor="middle" x="3896" y="-144.5" font-family="Helvetica,sans-Serif" font-size="10.00">src/d/a/d_a_item_static.cpp</text>
</a>
</g>
</g>
<!-- Node132&#45;&gt;Node135 -->
<g id="edge56" class="edge">
<title>Node132&#45;&gt;Node135</title>
<path fill="none" stroke="#63b8ff" d="M3903.84,-186.59C3901.7,-176.06 3899.36,-164.53 3897.8,-156.84"/>
<polygon fill="#63b8ff" stroke="#63b8ff" points="3900.39,-187.21 3905.81,-196.31 3907.25,-185.82 3900.39,-187.21"/>
</g>
<!-- Node133&#45;&gt;Node17 -->
<g id="edge54" class="edge">
<title>Node133&#45;&gt;Node17</title>
<path fill="none" stroke="#63b8ff" d="M3821.17,-132.45C3970.83,-123.99 5136.57,-148.8 5188,-96 5200.71,-82.95 5199.17,-69.4 5188,-55 5174.37,-37.41 5121.66,-25.56 5077.97,-18.54"/>
<polygon fill="#63b8ff" stroke="#63b8ff" points="3821.12,-128.94 3811.44,-133.25 3821.7,-135.92 3821.12,-128.94"/>
</g>
</g>
</svg>
