<?xml version="1.0" encoding="UTF-8" standalone="no"?>
<!DOCTYPE svg PUBLIC "-//W3C//DTD SVG 1.1//EN"
 "http://www.w3.org/Graphics/SVG/1.1/DTD/svg11.dtd">
<!-- Generated by graphviz version 9.0.0 (20230911.1827)
 -->
<!-- Title: include/d/pane/d_pane_class_alpha.h Pages: 1 -->
<svg width="4064pt" height="426pt"
 viewBox="0.00 0.00 4063.88 426.25" xmlns="http://www.w3.org/2000/svg" xmlns:xlink="http://www.w3.org/1999/xlink">
<g id="graph0" class="graph" transform="scale(1 1) rotate(0) translate(4 422.25)">
<title>include/d/pane/d_pane_class_alpha.h</title>
<!-- Node1 -->
<g id="Node000001" class="node">
<title>Node1</title>
<g id="a_Node000001"><a xlink:title=" ">
<polygon fill="#999999" stroke="#666666" points="3319.75,-418.25 3206.25,-418.25 3206.25,-387.75 3319.75,-387.75 3319.75,-418.25"/>
<text text-anchor="start" x="3214.25" y="-404.75" font-family="Helvetica,sans-Serif" font-size="10.00">include/d/pane/d_pane</text>
<text text-anchor="middle" x="3263" y="-393.5" font-family="Helvetica,sans-Serif" font-size="10.00">_class_alpha.h</text>
</a>
</g>
</g>
<!-- Node2 -->
<g id="Node000002" class="node">
<title>Node2</title>
<g id="a_Node000002"><a xlink:href="d__pane__class_8h.html" target="_top" xlink:title=" ">
<polygon fill="white" stroke="#666666" points="2499.75,-351.75 2386.25,-351.75 2386.25,-321.25 2499.75,-321.25 2499.75,-351.75"/>
<text text-anchor="start" x="2394.25" y="-338.25" font-family="Helvetica,sans-Serif" font-size="10.00">include/d/pane/d_pane</text>
<text text-anchor="middle" x="2443" y="-327" font-family="Helvetica,sans-Serif" font-size="10.00">_class.h</text>
</a>
</g>
</g>
<!-- Node1&#45;&gt;Node2 -->
<g id="edge1_Node000001_Node000002" class="edge">
<title>Node1&#45;&gt;Node2</title>
<g id="a_edge1_Node000001_Node000002"><a xlink:title=" ">
<path fill="none" stroke="#63b8ff" d="M3194.54,-396.62C3036.17,-384.16 2646.88,-353.54 2500.18,-342"/>
<polygon fill="#63b8ff" stroke="#63b8ff" points="3194.24,-400.1 3204.48,-397.4 3194.79,-393.12 3194.24,-400.1"/>
</a>
</g>
</g>
<!-- Node43 -->
<g id="Node000043" class="node">
<title>Node43</title>
<g id="a_Node000043"><a xlink:href="d__msg__scrn__howl_8cpp.html" target="_top" xlink:title=" ">
<polygon fill="white" stroke="#666666" points="4055.88,-285.25 3940.12,-285.25 3940.12,-254.75 4055.88,-254.75 4055.88,-285.25"/>
<text text-anchor="start" x="3948.12" y="-271.75" font-family="Helvetica,sans-Serif" font-size="10.00">src/d/msg/d_msg_scrn</text>
<text text-anchor="middle" x="3998" y="-260.5" font-family="Helvetica,sans-Serif" font-size="10.00">_howl.cpp</text>
</a>
</g>
</g>
<!-- Node1&#45;&gt;Node43 -->
<g id="edge51_Node000001_Node000043" class="edge">
<title>Node1&#45;&gt;Node43</title>
<g id="a_edge51_Node000001_Node000043"><a xlink:title=" ">
<path fill="none" stroke="#63b8ff" d="M3261.62,-376.06C3262.19,-357.81 3266.32,-334.39 3282,-321.25 3337.35,-274.86 3859.41,-294.79 3931,-285.25 3933.83,-284.87 3936.72,-284.44 3939.63,-283.97"/>
<polygon fill="#63b8ff" stroke="#63b8ff" points="3258.12,-375.91 3261.68,-385.89 3265.12,-375.87 3258.12,-375.91"/>
</a>
</g>
</g>
<!-- Node50 -->
<g id="Node000050" class="node">
<title>Node50</title>
<g id="a_Node000050"><a xlink:href="d__pane__class__alpha_8cpp.html" target="_top" xlink:title=" ">
<polygon fill="white" stroke="#666666" points="3415.38,-351.75 3290.62,-351.75 3290.62,-321.25 3415.38,-321.25 3415.38,-351.75"/>
<text text-anchor="start" x="3298.62" y="-338.25" font-family="Helvetica,sans-Serif" font-size="10.00">src/d/pane/d_pane_class</text>
<text text-anchor="middle" x="3353" y="-327" font-family="Helvetica,sans-Serif" font-size="10.00">_alpha.cpp</text>
</a>
</g>
</g>
<!-- Node1&#45;&gt;Node50 -->
<g id="edge52_Node000001_Node000050" class="edge">
<title>Node1&#45;&gt;Node50</title>
<g id="a_edge52_Node000001_Node000050"><a xlink:title=" ">
<path fill="none" stroke="#63b8ff" d="M3292.56,-380.82C3305.69,-371.41 3320.82,-360.56 3332.66,-352.08"/>
<polygon fill="#63b8ff" stroke="#63b8ff" points="3290.74,-377.81 3284.65,-386.48 3294.82,-383.5 3290.74,-377.81"/>
</a>
</g>
</g>
<!-- Node3 -->
<g id="Node000003" class="node">
<title>Node3</title>
<g id="a_Node000003"><a xlink:href="d__scope_8h.html" target="_top" xlink:title=" ">
<polygon fill="white" stroke="#666666" points="956.12,-279.62 853.88,-279.62 853.88,-260.38 956.12,-260.38 956.12,-279.62"/>
<text text-anchor="middle" x="905" y="-266.12" font-family="Helvetica,sans-Serif" font-size="10.00">include/d/d_scope.h</text>
</a>
</g>
</g>
<!-- Node2&#45;&gt;Node3 -->
<g id="edge2_Node000002_Node000003" class="edge">
<title>Node2&#45;&gt;Node3</title>
<g id="a_edge2_Node000002_Node000003"><a xlink:title=" ">
<path fill="none" stroke="#63b8ff" d="M2374.35,-334.47C2123.64,-330.5 1257.9,-314.93 983,-285.25 971.78,-284.04 959.74,-282.14 948.56,-280.12"/>
<polygon fill="#63b8ff" stroke="#63b8ff" points="2374.25,-337.97 2384.3,-334.63 2374.36,-330.97 2374.25,-337.97"/>
</a>
</g>
</g>
<!-- Node6 -->
<g id="Node000006" class="node">
<title>Node6</title>
<g id="a_Node000006"><a xlink:href="d__select__icon_8h.html" target="_top" xlink:title=" ">
<polygon fill="white" stroke="#666666" points="1244.38,-285.25 1149.62,-285.25 1149.62,-254.75 1244.38,-254.75 1244.38,-285.25"/>
<text text-anchor="start" x="1157.62" y="-271.75" font-family="Helvetica,sans-Serif" font-size="10.00">include/d/d_select</text>
<text text-anchor="middle" x="1197" y="-260.5" font-family="Helvetica,sans-Serif" font-size="10.00">_icon.h</text>
</a>
</g>
</g>
<!-- Node2&#45;&gt;Node6 -->
<g id="edge5_Node000002_Node000006" class="edge">
<title>Node2&#45;&gt;Node6</title>
<g id="a_edge5_Node000002_Node000006"><a xlink:title=" ">
<path fill="none" stroke="#63b8ff" d="M2374.55,-336.14C2193.52,-337.07 1687.43,-334.65 1270,-285.25 1261.79,-284.28 1253.13,-282.9 1244.74,-281.38"/>
<polygon fill="#63b8ff" stroke="#63b8ff" points="2374.5,-339.64 2384.48,-336.09 2374.46,-332.64 2374.5,-339.64"/>
</a>
</g>
</g>
<!-- Node18 -->
<g id="Node000018" class="node">
<title>Node18</title>
<g id="a_Node000018"><a xlink:href="d__menu__collect_8cpp.html" target="_top" xlink:title=" ">
<polygon fill="white" stroke="#666666" points="154,-146.62 0,-146.62 0,-127.38 154,-127.38 154,-146.62"/>
<text text-anchor="middle" x="77" y="-133.12" font-family="Helvetica,sans-Serif" font-size="10.00">src/d/menu/d_menu_collect.cpp</text>
</a>
</g>
</g>
<!-- Node2&#45;&gt;Node18 -->
<g id="edge33_Node000002_Node000018" class="edge">
<title>Node2&#45;&gt;Node18</title>
<g id="a_edge33_Node000002_Node000018"><a xlink:title=" ">
<path fill="none" stroke="#63b8ff" d="M2374.31,-334.64C2122.74,-331.27 1260.18,-317.43 1141,-285.25 1080.25,-268.84 1068.76,-253.04 1016,-218.75 997.55,-206.76 997.64,-195.88 977,-188.25 807.16,-125.49 343.08,-171.08 163,-152.25 150.81,-150.97 137.72,-149.08 125.53,-147.09"/>
<polygon fill="#63b8ff" stroke="#63b8ff" points="2374.26,-338.14 2384.31,-334.78 2374.36,-331.15 2374.26,-338.14"/>
</a>
</g>
</g>
<!-- Node24 -->
<g id="Node000024" class="node">
<title>Node24</title>
<g id="a_Node000024"><a xlink:href="d__menu__ring_8cpp.html" target="_top" xlink:title=" ">
<polygon fill="white" stroke="#666666" points="2191.62,-146.62 2050.38,-146.62 2050.38,-127.38 2191.62,-127.38 2191.62,-146.62"/>
<text text-anchor="middle" x="2121" y="-133.12" font-family="Helvetica,sans-Serif" font-size="10.00">src/d/menu/d_menu_ring.cpp</text>
</a>
</g>
</g>
<!-- Node2&#45;&gt;Node24 -->
<g id="edge34_Node000002_Node000024" class="edge">
<title>Node2&#45;&gt;Node24</title>
<g id="a_edge34_Node000002_Node000024"><a xlink:title=" ">
<path fill="none" stroke="#63b8ff" d="M2374.51,-335.06C2133.95,-333.19 1340.16,-324.09 1303,-285.25 1187.79,-164.85 1876.41,-178.33 2041,-152.25 2050.89,-150.68 2061.45,-148.89 2071.55,-147.11"/>
<polygon fill="#63b8ff" stroke="#63b8ff" points="2374.34,-338.56 2384.36,-335.14 2374.39,-331.56 2374.34,-338.56"/>
</a>
</g>
</g>
<!-- Node29 -->
<g id="Node000029" class="node">
<title>Node29</title>
<g id="a_Node000029"><a xlink:href="d__a__alink_8cpp.html" target="_top" xlink:title=" ">
<polygon fill="white" stroke="#666666" points="1420.12,-279.62 1311.88,-279.62 1311.88,-260.38 1420.12,-260.38 1420.12,-279.62"/>
<text text-anchor="middle" x="1366" y="-266.12" font-family="Helvetica,sans-Serif" font-size="10.00">src/d/a/d_a_alink.cpp</text>
</a>
</g>
</g>
<!-- Node2&#45;&gt;Node29 -->
<g id="edge28_Node000002_Node000029" class="edge">
<title>Node2&#45;&gt;Node29</title>
<g id="a_edge28_Node000002_Node000029"><a xlink:title=" ">
<path fill="none" stroke="#63b8ff" d="M2374.51,-336.09C2210.56,-336.64 1782.96,-332.95 1430,-285.25 1420.75,-284 1410.86,-282.09 1401.69,-280.07"/>
<polygon fill="#63b8ff" stroke="#63b8ff" points="2374.35,-339.59 2384.34,-336.05 2374.32,-332.59 2374.35,-339.59"/>
</a>
</g>
</g>
<!-- Node30 -->
<g id="Node000030" class="node">
<title>Node30</title>
<g id="a_Node000030"><a xlink:href="d__kantera__icon__meter_8cpp.html" target="_top" xlink:title=" ">
<polygon fill="white" stroke="#666666" points="1545.38,-285.25 1438.62,-285.25 1438.62,-254.75 1545.38,-254.75 1545.38,-285.25"/>
<text text-anchor="start" x="1446.62" y="-271.75" font-family="Helvetica,sans-Serif" font-size="10.00">src/d/d_kantera_icon</text>
<text text-anchor="middle" x="1492" y="-260.5" font-family="Helvetica,sans-Serif" font-size="10.00">_meter.cpp</text>
</a>
</g>
</g>
<!-- Node2&#45;&gt;Node30 -->
<g id="edge29_Node000002_Node000030" class="edge">
<title>Node2&#45;&gt;Node30</title>
<g id="a_edge29_Node000002_Node000030"><a xlink:title=" ">
<path fill="none" stroke="#63b8ff" d="M2374.75,-335.57C2225.25,-334.86 1857.92,-328.45 1554,-285.25 1551.27,-284.86 1548.48,-284.41 1545.66,-283.92"/>
<polygon fill="#63b8ff" stroke="#63b8ff" points="2374.46,-339.07 2384.47,-335.61 2374.49,-332.07 2374.46,-339.07"/>
</a>
</g>
</g>
<!-- Node31 -->
<g id="Node000031" class="node">
<title>Node31</title>
<g id="a_Node000031"><a xlink:href="d__timer_8cpp.html" target="_top" xlink:title=" ">
<polygon fill="white" stroke="#666666" points="1654.5,-279.62 1563.5,-279.62 1563.5,-260.38 1654.5,-260.38 1654.5,-279.62"/>
<text text-anchor="middle" x="1609" y="-266.12" font-family="Helvetica,sans-Serif" font-size="10.00">src/d/d_timer.cpp</text>
</a>
</g>
</g>
<!-- Node2&#45;&gt;Node31 -->
<g id="edge30_Node000002_Node000031" class="edge">
<title>Node2&#45;&gt;Node31</title>
<g id="a_edge30_Node000002_Node000031"><a xlink:title=" ">
<path fill="none" stroke="#63b8ff" d="M2374.44,-335.41C2238.19,-334.29 1924.05,-326.94 1664,-285.25 1656.11,-283.99 1647.71,-282.09 1639.91,-280.1"/>
<polygon fill="#63b8ff" stroke="#63b8ff" points="2374.36,-338.91 2384.39,-335.49 2374.41,-331.91 2374.36,-338.91"/>
</a>
</g>
</g>
<!-- Node32 -->
<g id="Node000032" class="node">
<title>Node32</title>
<g id="a_Node000032"><a xlink:href="d__file__sel__info_8cpp.html" target="_top" xlink:title=" ">
<polygon fill="white" stroke="#666666" points="1769.12,-285.25 1672.88,-285.25 1672.88,-254.75 1769.12,-254.75 1769.12,-285.25"/>
<text text-anchor="start" x="1680.88" y="-271.75" font-family="Helvetica,sans-Serif" font-size="10.00">src/d/file/d_file_sel</text>
<text text-anchor="middle" x="1721" y="-260.5" font-family="Helvetica,sans-Serif" font-size="10.00">_info.cpp</text>
</a>
</g>
</g>
<!-- Node2&#45;&gt;Node32 -->
<g id="edge31_Node000002_Node000032" class="edge">
<title>Node2&#45;&gt;Node32</title>
<g id="a_edge31_Node000002_Node000032"><a xlink:title=" ">
<path fill="none" stroke="#63b8ff" d="M2374.87,-334.16C2253.95,-330.93 1994.19,-320.18 1778,-285.25 1775.18,-284.79 1772.3,-284.27 1769.39,-283.69"/>
<polygon fill="#63b8ff" stroke="#63b8ff" points="2374.53,-337.65 2384.62,-334.41 2374.71,-330.65 2374.53,-337.65"/>
</a>
</g>
</g>
<!-- Node33 -->
<g id="Node000033" class="node">
<title>Node33</title>
<g id="a_Node000033"><a xlink:href="d__file__sel__warning__NONMATCHING_8cpp.html" target="_top" xlink:title=" ">
<polygon fill="white" stroke="#666666" points="1941,-285.25 1787,-285.25 1787,-254.75 1941,-254.75 1941,-285.25"/>
<text text-anchor="start" x="1795" y="-271.75" font-family="Helvetica,sans-Serif" font-size="10.00">src/d/file/d_file_sel</text>
<text text-anchor="middle" x="1864" y="-260.5" font-family="Helvetica,sans-Serif" font-size="10.00">_warning_NONMATCHING.cpp</text>
</a>
</g>
</g>
<!-- Node2&#45;&gt;Node33 -->
<g id="edge32_Node000002_Node000033" class="edge">
<title>Node2&#45;&gt;Node33</title>
<g id="a_edge32_Node000002_Node000033"><a xlink:title=" ">
<path fill="none" stroke="#63b8ff" d="M2374.73,-329.9C2279.42,-321.78 2101.19,-305.46 1950,-285.25 1947.15,-284.87 1944.25,-284.47 1941.32,-284.05"/>
<polygon fill="#63b8ff" stroke="#63b8ff" points="2374.16,-333.37 2384.42,-330.72 2374.75,-326.39 2374.16,-333.37"/>
</a>
</g>
</g>
<!-- Node34 -->
<g id="Node000034" class="node">
<title>Node34</title>
<g id="a_Node000034"><a xlink:href="d__meter2__draw_8cpp.html" target="_top" xlink:title=" ">
<polygon fill="white" stroke="#666666" points="2068.5,-285.25 1959.5,-285.25 1959.5,-254.75 2068.5,-254.75 2068.5,-285.25"/>
<text text-anchor="start" x="1967.5" y="-271.75" font-family="Helvetica,sans-Serif" font-size="10.00">src/d/meter/d_meter2</text>
<text text-anchor="middle" x="2014" y="-260.5" font-family="Helvetica,sans-Serif" font-size="10.00">_draw.cpp</text>
</a>
</g>
</g>
<!-- Node2&#45;&gt;Node34 -->
<g id="edge35_Node000002_Node000034" class="edge">
<title>Node2&#45;&gt;Node34</title>
<g id="a_edge35_Node000002_Node000034"><a xlink:title=" ">
<path fill="none" stroke="#63b8ff" d="M2374.6,-327.89C2300.86,-319.27 2180.18,-303.97 2077,-285.25 2074.35,-284.77 2071.65,-284.25 2068.92,-283.71"/>
<polygon fill="#63b8ff" stroke="#63b8ff" points="2374.18,-331.37 2384.51,-329.04 2374.98,-324.41 2374.18,-331.37"/>
</a>
</g>
</g>
<!-- Node35 -->
<g id="Node000035" class="node">
<title>Node35</title>
<g id="a_Node000035"><a xlink:href="d__meter__button_8cpp.html" target="_top" xlink:title=" ">
<polygon fill="white" stroke="#666666" points="2189.88,-285.25 2086.12,-285.25 2086.12,-254.75 2189.88,-254.75 2189.88,-285.25"/>
<text text-anchor="start" x="2094.12" y="-271.75" font-family="Helvetica,sans-Serif" font-size="10.00">src/d/meter/d_meter</text>
<text text-anchor="middle" x="2138" y="-260.5" font-family="Helvetica,sans-Serif" font-size="10.00">_button.cpp</text>
</a>
</g>
</g>
<!-- Node2&#45;&gt;Node35 -->
<g id="edge36_Node000002_Node000035" class="edge">
<title>Node2&#45;&gt;Node35</title>
<g id="a_edge36_Node000002_Node000035"><a xlink:title=" ">
<path fill="none" stroke="#63b8ff" d="M2375.11,-322.02C2326.1,-312.16 2258.37,-298.3 2199,-285.25 2196.13,-284.62 2193.19,-283.96 2190.22,-283.3"/>
<polygon fill="#63b8ff" stroke="#63b8ff" points="2374.23,-325.41 2384.73,-323.95 2375.61,-318.55 2374.23,-325.41"/>
</a>
</g>
</g>
<!-- Node36 -->
<g id="Node000036" class="node">
<title>Node36</title>
<g id="a_Node000036"><a xlink:href="d__meter__haihai_8cpp.html" target="_top" xlink:title=" ">
<polygon fill="white" stroke="#666666" points="2311.88,-285.25 2208.12,-285.25 2208.12,-254.75 2311.88,-254.75 2311.88,-285.25"/>
<text text-anchor="start" x="2216.12" y="-271.75" font-family="Helvetica,sans-Serif" font-size="10.00">src/d/meter/d_meter</text>
<text text-anchor="middle" x="2260" y="-260.5" font-family="Helvetica,sans-Serif" font-size="10.00">_haihai.cpp</text>
</a>
</g>
</g>
<!-- Node2&#45;&gt;Node36 -->
<g id="edge37_Node000002_Node000036" class="edge">
<title>Node2&#45;&gt;Node36</title>
<g id="a_edge37_Node000002_Node000036"><a xlink:title=" ">
<path fill="none" stroke="#63b8ff" d="M2390.97,-317.16C2362.68,-307.19 2328.17,-295.03 2301.68,-285.69"/>
<polygon fill="#63b8ff" stroke="#63b8ff" points="2389.45,-320.34 2400.05,-320.36 2391.78,-313.74 2389.45,-320.34"/>
</a>
</g>
</g>
<!-- Node37 -->
<g id="Node000037" class="node">
<title>Node37</title>
<g id="a_Node000037"><a xlink:href="d__meter__hakusha_8cpp.html" target="_top" xlink:title=" ">
<polygon fill="white" stroke="#666666" points="2433.88,-285.25 2330.12,-285.25 2330.12,-254.75 2433.88,-254.75 2433.88,-285.25"/>
<text text-anchor="start" x="2338.12" y="-271.75" font-family="Helvetica,sans-Serif" font-size="10.00">src/d/meter/d_meter</text>
<text text-anchor="middle" x="2382" y="-260.5" font-family="Helvetica,sans-Serif" font-size="10.00">_hakusha.cpp</text>
</a>
</g>
</g>
<!-- Node2&#45;&gt;Node37 -->
<g id="edge38_Node000002_Node000037" class="edge">
<title>Node2&#45;&gt;Node37</title>
<g id="a_edge38_Node000002_Node000037"><a xlink:title=" ">
<path fill="none" stroke="#63b8ff" d="M2421.4,-312.66C2412.88,-303.65 2403.34,-293.57 2395.79,-285.58"/>
<polygon fill="#63b8ff" stroke="#63b8ff" points="2418.7,-314.9 2428.12,-319.76 2423.79,-310.09 2418.7,-314.9"/>
</a>
</g>
</g>
<!-- Node38 -->
<g id="Node000038" class="node">
<title>Node38</title>
<g id="a_Node000038"><a xlink:href="d__meter__string_8cpp.html" target="_top" xlink:title=" ">
<polygon fill="white" stroke="#666666" points="2555.88,-285.25 2452.12,-285.25 2452.12,-254.75 2555.88,-254.75 2555.88,-285.25"/>
<text text-anchor="start" x="2460.12" y="-271.75" font-family="Helvetica,sans-Serif" font-size="10.00">src/d/meter/d_meter</text>
<text text-anchor="middle" x="2504" y="-260.5" font-family="Helvetica,sans-Serif" font-size="10.00">_string.cpp</text>
</a>
</g>
</g>
<!-- Node2&#45;&gt;Node38 -->
<g id="edge39_Node000002_Node000038" class="edge">
<title>Node2&#45;&gt;Node38</title>
<g id="a_edge39_Node000002_Node000038"><a xlink:title=" ">
<path fill="none" stroke="#63b8ff" d="M2464.6,-312.66C2473.12,-303.65 2482.66,-293.57 2490.21,-285.58"/>
<polygon fill="#63b8ff" stroke="#63b8ff" points="2462.21,-310.09 2457.88,-319.76 2467.3,-314.9 2462.21,-310.09"/>
</a>
</g>
</g>
<!-- Node39 -->
<g id="Node000039" class="node">
<title>Node39</title>
<g id="a_Node000039"><a xlink:href="d__msg__scrn__arrow_8cpp.html" target="_top" xlink:title=" ">
<polygon fill="white" stroke="#666666" points="2689.88,-285.25 2574.12,-285.25 2574.12,-254.75 2689.88,-254.75 2689.88,-285.25"/>
<text text-anchor="start" x="2582.12" y="-271.75" font-family="Helvetica,sans-Serif" font-size="10.00">src/d/msg/d_msg_scrn</text>
<text text-anchor="middle" x="2632" y="-260.5" font-family="Helvetica,sans-Serif" font-size="10.00">_arrow.cpp</text>
</a>
</g>
</g>
<!-- Node2&#45;&gt;Node39 -->
<g id="edge40_Node000002_Node000039" class="edge">
<title>Node2&#45;&gt;Node39</title>
<g id="a_edge40_Node000002_Node000039"><a xlink:title=" ">
<path fill="none" stroke="#63b8ff" d="M2496.74,-317.16C2525.95,-307.19 2561.59,-295.03 2588.96,-285.69"/>
<polygon fill="#63b8ff" stroke="#63b8ff" points="2495.65,-313.83 2487.32,-320.38 2497.91,-320.46 2495.65,-313.83"/>
</a>
</g>
</g>
<!-- Node40 -->
<g id="Node000040" class="node">
<title>Node40</title>
<g id="a_Node000040"><a xlink:href="d__msg__scrn__base_8cpp.html" target="_top" xlink:title=" ">
<polygon fill="white" stroke="#666666" points="2823.88,-285.25 2708.12,-285.25 2708.12,-254.75 2823.88,-254.75 2823.88,-285.25"/>
<text text-anchor="start" x="2716.12" y="-271.75" font-family="Helvetica,sans-Serif" font-size="10.00">src/d/msg/d_msg_scrn</text>
<text text-anchor="middle" x="2766" y="-260.5" font-family="Helvetica,sans-Serif" font-size="10.00">_base.cpp</text>
</a>
</g>
</g>
<!-- Node2&#45;&gt;Node40 -->
<g id="edge41_Node000002_Node000040" class="edge">
<title>Node2&#45;&gt;Node40</title>
<g id="a_edge41_Node000002_Node000040"><a xlink:title=" ">
<path fill="none" stroke="#63b8ff" d="M2511.25,-322.41C2562.86,-312.43 2635.44,-298.25 2699,-285.25 2701.91,-284.65 2704.9,-284.04 2707.91,-283.41"/>
<polygon fill="#63b8ff" stroke="#63b8ff" points="2510.88,-318.91 2501.73,-324.24 2512.21,-325.78 2510.88,-318.91"/>
</a>
</g>
</g>
<!-- Node41 -->
<g id="Node000041" class="node">
<title>Node41</title>
<g id="a_Node000041"><a xlink:href="d__msg__scrn__boss_8cpp.html" target="_top" xlink:title=" ">
<polygon fill="white" stroke="#666666" points="2957.88,-285.25 2842.12,-285.25 2842.12,-254.75 2957.88,-254.75 2957.88,-285.25"/>
<text text-anchor="start" x="2850.12" y="-271.75" font-family="Helvetica,sans-Serif" font-size="10.00">src/d/msg/d_msg_scrn</text>
<text text-anchor="middle" x="2900" y="-260.5" font-family="Helvetica,sans-Serif" font-size="10.00">_boss.cpp</text>
</a>
</g>
</g>
<!-- Node2&#45;&gt;Node41 -->
<g id="edge42_Node000002_Node000041" class="edge">
<title>Node2&#45;&gt;Node41</title>
<g id="a_edge42_Node000002_Node000041"><a xlink:title=" ">
<path fill="none" stroke="#63b8ff" d="M2511.17,-328.42C2589.21,-319.92 2720.75,-304.39 2833,-285.25 2835.93,-284.75 2838.93,-284.21 2841.95,-283.65"/>
<polygon fill="#63b8ff" stroke="#63b8ff" points="2511.12,-324.9 2501.56,-329.46 2511.88,-331.86 2511.12,-324.9"/>
</a>
</g>
</g>
<!-- Node42 -->
<g id="Node000042" class="node">
<title>Node42</title>
<g id="a_Node000042"><a xlink:href="d__msg__scrn__explain_8cpp.html" target="_top" xlink:title=" ">
<polygon fill="white" stroke="#666666" points="3091.88,-285.25 2976.12,-285.25 2976.12,-254.75 3091.88,-254.75 3091.88,-285.25"/>
<text text-anchor="start" x="2984.12" y="-271.75" font-family="Helvetica,sans-Serif" font-size="10.00">src/d/msg/d_msg_scrn</text>
<text text-anchor="middle" x="3034" y="-260.5" font-family="Helvetica,sans-Serif" font-size="10.00">_explain.cpp</text>
</a>
</g>
</g>
<!-- Node2&#45;&gt;Node42 -->
<g id="edge43_Node000002_Node000042" class="edge">
<title>Node2&#45;&gt;Node42</title>
<g id="a_edge43_Node000002_Node000042"><a xlink:title=" ">
<path fill="none" stroke="#63b8ff" d="M2511.34,-331.44C2611.67,-324.92 2804.52,-310.24 2967,-285.25 2969.94,-284.8 2972.94,-284.3 2975.97,-283.77"/>
<polygon fill="#63b8ff" stroke="#63b8ff" points="2511.13,-327.95 2501.38,-332.08 2511.58,-334.93 2511.13,-327.95"/>
</a>
</g>
</g>
<!-- Node2&#45;&gt;Node43 -->
<g id="edge44_Node000002_Node000043" class="edge">
<title>Node2&#45;&gt;Node43</title>
<g id="a_edge44_Node000002_Node000043"><a xlink:title=" ">
<path fill="none" stroke="#63b8ff" d="M2511.33,-334.79C2764.75,-331.9 3650.68,-319.52 3931,-285.25 3933.83,-284.9 3936.72,-284.5 3939.64,-284.04"/>
<polygon fill="#63b8ff" stroke="#63b8ff" points="2511.57,-331.28 2501.61,-334.9 2511.65,-338.28 2511.57,-331.28"/>
</a>
</g>
</g>
<!-- Node44 -->
<g id="Node000044" class="node">
<title>Node44</title>
<g id="a_Node000044"><a xlink:href="d__msg__scrn__kanban_8cpp.html" target="_top" xlink:title=" ">
<polygon fill="white" stroke="#666666" points="3225.88,-285.25 3110.12,-285.25 3110.12,-254.75 3225.88,-254.75 3225.88,-285.25"/>
<text text-anchor="start" x="3118.12" y="-271.75" font-family="Helvetica,sans-Serif" font-size="10.00">src/d/msg/d_msg_scrn</text>
<text text-anchor="middle" x="3168" y="-260.5" font-family="Helvetica,sans-Serif" font-size="10.00">_kanban.cpp</text>
</a>
</g>
</g>
<!-- Node2&#45;&gt;Node44 -->
<g id="edge45_Node000002_Node000044" class="edge">
<title>Node2&#45;&gt;Node44</title>
<g id="a_edge45_Node000002_Node000044"><a xlink:title=" ">
<path fill="none" stroke="#63b8ff" d="M2511.22,-333.29C2631.08,-328.73 2887.05,-316.03 3101,-285.25 3103.94,-284.83 3106.95,-284.35 3109.98,-283.83"/>
<polygon fill="#63b8ff" stroke="#63b8ff" points="2511.42,-329.78 2501.56,-333.65 2511.68,-336.77 2511.42,-329.78"/>
</a>
</g>
</g>
<!-- Node45 -->
<g id="Node000045" class="node">
<title>Node45</title>
<g id="a_Node000045"><a xlink:href="d__msg__scrn__light_8cpp.html" target="_top" xlink:title=" ">
<polygon fill="white" stroke="#666666" points="3359.88,-285.25 3244.12,-285.25 3244.12,-254.75 3359.88,-254.75 3359.88,-285.25"/>
<text text-anchor="start" x="3252.12" y="-271.75" font-family="Helvetica,sans-Serif" font-size="10.00">src/d/msg/d_msg_scrn</text>
<text text-anchor="middle" x="3302" y="-260.5" font-family="Helvetica,sans-Serif" font-size="10.00">_light.cpp</text>
</a>
</g>
</g>
<!-- Node2&#45;&gt;Node45 -->
<g id="edge46_Node000002_Node000045" class="edge">
<title>Node2&#45;&gt;Node45</title>
<g id="a_edge46_Node000002_Node000045"><a xlink:title=" ">
<path fill="none" stroke="#63b8ff" d="M2511.1,-334.53C2648.57,-331.83 2968.81,-321.8 3235,-285.25 3237.95,-284.85 3240.95,-284.38 3243.99,-283.88"/>
<polygon fill="#63b8ff" stroke="#63b8ff" points="2511.39,-331.02 2501.46,-334.71 2511.52,-338.02 2511.39,-331.02"/>
</a>
</g>
</g>
<!-- Node46 -->
<g id="Node000046" class="node">
<title>Node46</title>
<g id="a_Node000046"><a xlink:href="d__msg__scrn__place_8cpp.html" target="_top" xlink:title=" ">
<polygon fill="white" stroke="#666666" points="3493.88,-285.25 3378.12,-285.25 3378.12,-254.75 3493.88,-254.75 3493.88,-285.25"/>
<text text-anchor="start" x="3386.12" y="-271.75" font-family="Helvetica,sans-Serif" font-size="10.00">src/d/msg/d_msg_scrn</text>
<text text-anchor="middle" x="3436" y="-260.5" font-family="Helvetica,sans-Serif" font-size="10.00">_place.cpp</text>
</a>
</g>
</g>
<!-- Node2&#45;&gt;Node46 -->
<g id="edge47_Node000002_Node000046" class="edge">
<title>Node2&#45;&gt;Node46</title>
<g id="a_edge47_Node000002_Node000046"><a xlink:title=" ">
<path fill="none" stroke="#63b8ff" d="M2511.3,-335.41C2665.12,-334.43 3050.19,-327.54 3369,-285.25 3371.83,-284.87 3374.72,-284.44 3377.63,-283.97"/>
<polygon fill="#63b8ff" stroke="#63b8ff" points="2511.68,-331.91 2501.7,-335.47 2511.72,-338.91 2511.68,-331.91"/>
</a>
</g>
</g>
<!-- Node47 -->
<g id="Node000047" class="node">
<title>Node47</title>
<g id="a_Node000047"><a xlink:href="d__msg__scrn__staff_8cpp.html" target="_top" xlink:title=" ">
<polygon fill="white" stroke="#666666" points="3627.88,-285.25 3512.12,-285.25 3512.12,-254.75 3627.88,-254.75 3627.88,-285.25"/>
<text text-anchor="start" x="3520.12" y="-271.75" font-family="Helvetica,sans-Serif" font-size="10.00">src/d/msg/d_msg_scrn</text>
<text text-anchor="middle" x="3570" y="-260.5" font-family="Helvetica,sans-Serif" font-size="10.00">_staff.cpp</text>
</a>
</g>
</g>
<!-- Node2&#45;&gt;Node47 -->
<g id="edge48_Node000002_Node000047" class="edge">
<title>Node2&#45;&gt;Node47</title>
<g id="a_edge48_Node000002_Node000047"><a xlink:title=" ">
<path fill="none" stroke="#63b8ff" d="M2511.62,-336.09C2680.81,-336.7 3131.23,-333.28 3503,-285.25 3505.83,-284.88 3508.72,-284.46 3511.63,-284"/>
<polygon fill="#63b8ff" stroke="#63b8ff" points="2511.69,-332.59 2501.68,-336.04 2511.66,-339.59 2511.69,-332.59"/>
</a>
</g>
</g>
<!-- Node48 -->
<g id="Node000048" class="node">
<title>Node48</title>
<g id="a_Node000048"><a xlink:href="d__msg__scrn__tree_8cpp.html" target="_top" xlink:title=" ">
<polygon fill="white" stroke="#666666" points="3761.88,-285.25 3646.12,-285.25 3646.12,-254.75 3761.88,-254.75 3761.88,-285.25"/>
<text text-anchor="start" x="3654.12" y="-271.75" font-family="Helvetica,sans-Serif" font-size="10.00">src/d/msg/d_msg_scrn</text>
<text text-anchor="middle" x="3704" y="-260.5" font-family="Helvetica,sans-Serif" font-size="10.00">_tree.cpp</text>
</a>
</g>
</g>
<!-- Node2&#45;&gt;Node48 -->
<g id="edge49_Node000002_Node000048" class="edge">
<title>Node2&#45;&gt;Node48</title>
<g id="a_edge49_Node000002_Node000048"><a xlink:title=" ">
<path fill="none" stroke="#63b8ff" d="M2511.32,-334.13C2730.87,-329.49 3416.84,-313.1 3637,-285.25 3639.83,-284.89 3642.72,-284.48 3645.63,-284.02"/>
<polygon fill="#63b8ff" stroke="#63b8ff" points="2511.43,-330.63 2501.51,-334.34 2511.58,-337.63 2511.43,-330.63"/>
</a>
</g>
</g>
<!-- Node49 -->
<g id="Node000049" class="node">
<title>Node49</title>
<g id="a_Node000049"><a xlink:href="d__pane__class_8cpp.html" target="_top" xlink:title=" ">
<polygon fill="white" stroke="#666666" points="3922.38,-279.62 3779.62,-279.62 3779.62,-260.38 3922.38,-260.38 3922.38,-279.62"/>
<text text-anchor="middle" x="3851" y="-266.12" font-family="Helvetica,sans-Serif" font-size="10.00">src/d/pane/d_pane_class.cpp</text>
</a>
</g>
</g>
<!-- Node2&#45;&gt;Node49 -->
<g id="edge50_Node000002_Node000049" class="edge">
<title>Node2&#45;&gt;Node49</title>
<g id="a_edge50_Node000002_Node000049"><a xlink:title=" ">
<path fill="none" stroke="#63b8ff" d="M2511.65,-334.16C2747.42,-329.36 3523.13,-311.89 3771,-285.25 3782.5,-284.01 3794.84,-282.11 3806.31,-280.09"/>
<polygon fill="#63b8ff" stroke="#63b8ff" points="2511.62,-330.66 2501.69,-334.36 2511.76,-337.66 2511.62,-330.66"/>
</a>
</g>
</g>
<!-- Node4 -->
<g id="Node000004" class="node">
<title>Node4</title>
<g id="a_Node000004"><a xlink:href="d__scope_8cpp.html" target="_top" xlink:title=" ">
<polygon fill="white" stroke="#666666" points="823.75,-213.12 728.25,-213.12 728.25,-193.88 823.75,-193.88 823.75,-213.12"/>
<text text-anchor="middle" x="776" y="-199.62" font-family="Helvetica,sans-Serif" font-size="10.00">src/d/d_scope.cpp</text>
</a>
</g>
</g>
<!-- Node3&#45;&gt;Node4 -->
<g id="edge3_Node000003_Node000004" class="edge">
<title>Node3&#45;&gt;Node4</title>
<g id="a_edge3_Node000003_Node000004"><a xlink:title=" ">
<path fill="none" stroke="#63b8ff" d="M876.76,-254.88C851.61,-242.31 815.59,-224.29 794.12,-213.56"/>
<polygon fill="#63b8ff" stroke="#63b8ff" points="874.93,-257.88 885.44,-259.22 878.06,-251.62 874.93,-257.88"/>
</a>
</g>
</g>
<!-- Node5 -->
<g id="Node000005" class="node">
<title>Node5</title>
<g id="a_Node000005"><a xlink:href="d__meter2_8cpp.html" target="_top" xlink:title=" ">
<polygon fill="white" stroke="#666666" points="968.5,-213.12 841.5,-213.12 841.5,-193.88 968.5,-193.88 968.5,-213.12"/>
<text text-anchor="middle" x="905" y="-199.62" font-family="Helvetica,sans-Serif" font-size="10.00">src/d/meter/d_meter2.cpp</text>
</a>
</g>
</g>
<!-- Node3&#45;&gt;Node5 -->
<g id="edge4_Node000003_Node000005" class="edge">
<title>Node3&#45;&gt;Node5</title>
<g id="a_edge4_Node000003_Node000005"><a xlink:title=" ">
<path fill="none" stroke="#63b8ff" d="M905,-248.52C905,-236.69 905,-222.41 905,-213.39"/>
<polygon fill="#63b8ff" stroke="#63b8ff" points="901.5,-248.52 905,-258.52 908.5,-248.52 901.5,-248.52"/>
</a>
</g>
</g>
<!-- Node7 -->
<g id="Node000007" class="node">
<title>Node7</title>
<g id="a_Node000007"><a xlink:href="d__select__cursor_8h.html" target="_top" xlink:title=" ">
<polygon fill="white" stroke="#666666" points="1119.38,-218.75 1024.62,-218.75 1024.62,-188.25 1119.38,-188.25 1119.38,-218.75"/>
<text text-anchor="start" x="1032.62" y="-205.25" font-family="Helvetica,sans-Serif" font-size="10.00">include/d/d_select</text>
<text text-anchor="middle" x="1072" y="-194" font-family="Helvetica,sans-Serif" font-size="10.00">_cursor.h</text>
</a>
</g>
</g>
<!-- Node6&#45;&gt;Node7 -->
<g id="edge6_Node000006_Node000007" class="edge">
<title>Node6&#45;&gt;Node7</title>
<g id="a_edge6_Node000006_Node000007"><a xlink:title=" ">
<path fill="none" stroke="#63b8ff" d="M1158.58,-249.18C1139.76,-239.46 1117.49,-227.97 1100.25,-219.08"/>
<polygon fill="#63b8ff" stroke="#63b8ff" points="1156.8,-252.19 1167.29,-253.67 1160.01,-245.97 1156.8,-252.19"/>
</a>
</g>
</g>
<!-- Node28 -->
<g id="Node000028" class="node">
<title>Node28</title>
<g id="a_Node000028"><a xlink:href="d__select__icon_8cpp.html" target="_top" xlink:title=" ">
<polygon fill="white" stroke="#666666" points="1256.38,-213.12 1137.62,-213.12 1137.62,-193.88 1256.38,-193.88 1256.38,-213.12"/>
<text text-anchor="middle" x="1197" y="-199.62" font-family="Helvetica,sans-Serif" font-size="10.00">src/d/d_select_icon.cpp</text>
</a>
</g>
</g>
<!-- Node6&#45;&gt;Node28 -->
<g id="edge27_Node000006_Node000028" class="edge">
<title>Node6&#45;&gt;Node28</title>
<g id="a_edge27_Node000006_Node000028"><a xlink:title=" ">
<path fill="none" stroke="#63b8ff" d="M1197,-243.09C1197,-232.51 1197,-221 1197,-213.32"/>
<polygon fill="#63b8ff" stroke="#63b8ff" points="1193.5,-242.85 1197,-252.85 1200.5,-242.85 1193.5,-242.85"/>
</a>
</g>
</g>
<!-- Node8 -->
<g id="Node000008" class="node">
<title>Node8</title>
<g id="a_Node000008"><a xlink:href="d__name_8h.html" target="_top" xlink:title=" ">
<polygon fill="white" stroke="#666666" points="272,-146.62 172,-146.62 172,-127.38 272,-127.38 272,-146.62"/>
<text text-anchor="middle" x="222" y="-133.12" font-family="Helvetica,sans-Serif" font-size="10.00">include/d/d_name.h</text>
</a>
</g>
</g>
<!-- Node7&#45;&gt;Node8 -->
<g id="edge7_Node000007_Node000008" class="edge">
<title>Node7&#45;&gt;Node8</title>
<g id="a_edge7_Node000007_Node000008"><a xlink:title=" ">
<path fill="none" stroke="#63b8ff" d="M1013.03,-188.54C1012.35,-188.44 1011.67,-188.34 1011,-188.25 689.31,-143.12 602.52,-198.59 281,-152.25 272.45,-151.02 263.32,-149.11 254.86,-147.09"/>
<polygon fill="#63b8ff" stroke="#63b8ff" points="1012.26,-191.96 1022.71,-190.22 1013.45,-185.07 1012.26,-191.96"/>
</a>
</g>
</g>
<!-- Node12 -->
<g id="Node000012" class="node">
<title>Node12</title>
<g id="a_Node000012"><a xlink:href="d__menu__dmap_8h.html" target="_top" xlink:title=" ">
<polygon fill="white" stroke="#666666" points="409.75,-152.25 290.25,-152.25 290.25,-121.75 409.75,-121.75 409.75,-152.25"/>
<text text-anchor="start" x="298.25" y="-138.75" font-family="Helvetica,sans-Serif" font-size="10.00">include/d/menu/d_menu</text>
<text text-anchor="middle" x="350" y="-127.5" font-family="Helvetica,sans-Serif" font-size="10.00">_dmap.h</text>
</a>
</g>
</g>
<!-- Node7&#45;&gt;Node12 -->
<g id="edge11_Node000007_Node000012" class="edge">
<title>Node7&#45;&gt;Node12</title>
<g id="a_edge11_Node000007_Node000012"><a xlink:title=" ">
<path fill="none" stroke="#63b8ff" d="M1013.03,-188.56C1012.35,-188.45 1011.67,-188.35 1011,-188.25 750.17,-150.13 680.3,-187 419,-152.25 416.09,-151.86 413.12,-151.42 410.12,-150.94"/>
<polygon fill="#63b8ff" stroke="#63b8ff" points="1012.25,-191.97 1022.71,-190.27 1013.47,-185.08 1012.25,-191.97"/>
</a>
</g>
</g>
<!-- Node16 -->
<g id="Node000016" class="node">
<title>Node16</title>
<g id="a_Node000016"><a xlink:href="d__select__cursor_8cpp.html" target="_top" xlink:title=" ">
<polygon fill="white" stroke="#666666" points="555.88,-146.62 428.12,-146.62 428.12,-127.38 555.88,-127.38 555.88,-146.62"/>
<text text-anchor="middle" x="492" y="-133.12" font-family="Helvetica,sans-Serif" font-size="10.00">src/d/d_select_cursor.cpp</text>
</a>
</g>
</g>
<!-- Node7&#45;&gt;Node16 -->
<g id="edge15_Node000007_Node000016" class="edge">
<title>Node7&#45;&gt;Node16</title>
<g id="a_edge15_Node000007_Node000016"><a xlink:title=" ">
<path fill="none" stroke="#63b8ff" d="M1013.02,-188.57C1012.35,-188.46 1011.67,-188.35 1011,-188.25 814.52,-157.55 762.01,-179.34 565,-152.25 555.02,-150.88 544.35,-149.02 534.33,-147.1"/>
<polygon fill="#63b8ff" stroke="#63b8ff" points="1012.23,-191.99 1022.69,-190.35 1013.49,-185.1 1012.23,-191.99"/>
</a>
</g>
</g>
<!-- Node17 -->
<g id="Node000017" class="node">
<title>Node17</title>
<g id="a_Node000017"><a xlink:href="d__menu__calibration_8cpp.html" target="_top" xlink:title=" ">
<polygon fill="white" stroke="#666666" points="743.88,-146.62 574.12,-146.62 574.12,-127.38 743.88,-127.38 743.88,-146.62"/>
<text text-anchor="middle" x="659" y="-133.12" font-family="Helvetica,sans-Serif" font-size="10.00">src/d/menu/d_menu_calibration.cpp</text>
</a>
</g>
</g>
<!-- Node7&#45;&gt;Node17 -->
<g id="edge16_Node000007_Node000017" class="edge">
<title>Node7&#45;&gt;Node17</title>
<g id="a_edge16_Node000007_Node000017"><a xlink:title=" ">
<path fill="none" stroke="#63b8ff" d="M1013.02,-188.63C1012.34,-188.5 1011.67,-188.37 1011,-188.25 897.18,-167.06 867.57,-168.93 753,-152.25 741.81,-150.62 729.88,-148.84 718.4,-147.11"/>
<polygon fill="#63b8ff" stroke="#63b8ff" points="1012.16,-192.03 1022.65,-190.58 1013.55,-185.17 1012.16,-192.03"/>
</a>
</g>
</g>
<!-- Node7&#45;&gt;Node18 -->
<g id="edge17_Node000007_Node000018" class="edge">
<title>Node7&#45;&gt;Node18</title>
<g id="a_edge17_Node000007_Node000018"><a xlink:title=" ">
<path fill="none" stroke="#63b8ff" d="M1013.03,-188.54C1012.35,-188.44 1011.67,-188.34 1011,-188.25 637.25,-137.12 538.22,-191.15 163,-152.25 150.81,-150.99 137.72,-149.09 125.53,-147.1"/>
<polygon fill="#63b8ff" stroke="#63b8ff" points="1012.27,-191.96 1022.72,-190.19 1013.45,-185.06 1012.27,-191.96"/>
</a>
</g>
</g>
<!-- Node19 -->
<g id="Node000019" class="node">
<title>Node19</title>
<g id="a_Node000019"><a xlink:href="d__menu__insect_8cpp.html" target="_top" xlink:title=" ">
<polygon fill="white" stroke="#666666" points="913.88,-146.62 762.12,-146.62 762.12,-127.38 913.88,-127.38 913.88,-146.62"/>
<text text-anchor="middle" x="838" y="-133.12" font-family="Helvetica,sans-Serif" font-size="10.00">src/d/menu/d_menu_insect.cpp</text>
</a>
</g>
</g>
<!-- Node7&#45;&gt;Node19 -->
<g id="edge18_Node000007_Node000019" class="edge">
<title>Node7&#45;&gt;Node19</title>
<g id="a_edge18_Node000007_Node000019"><a xlink:title=" ">
<path fill="none" stroke="#63b8ff" d="M1013.27,-186.31C968.24,-173.9 907.74,-157.22 870.88,-147.06"/>
<polygon fill="#63b8ff" stroke="#63b8ff" points="1012.33,-189.68 1022.91,-188.97 1014.2,-182.94 1012.33,-189.68"/>
</a>
</g>
</g>
<!-- Node20 -->
<g id="Node000020" class="node">
<title>Node20</title>
<g id="a_Node000020"><a xlink:href="d__menu__item__explain_8cpp.html" target="_top" xlink:title=" ">
<polygon fill="white" stroke="#666666" points="1058.12,-152.25 931.88,-152.25 931.88,-121.75 1058.12,-121.75 1058.12,-152.25"/>
<text text-anchor="start" x="939.88" y="-138.75" font-family="Helvetica,sans-Serif" font-size="10.00">src/d/menu/d_menu_item</text>
<text text-anchor="middle" x="995" y="-127.5" font-family="Helvetica,sans-Serif" font-size="10.00">_explain.cpp</text>
</a>
</g>
</g>
<!-- Node7&#45;&gt;Node20 -->
<g id="edge19_Node000007_Node000020" class="edge">
<title>Node7&#45;&gt;Node20</title>
<g id="a_edge19_Node000007_Node000020"><a xlink:title=" ">
<path fill="none" stroke="#63b8ff" d="M1045.73,-180.49C1034.72,-171.28 1022.24,-160.81 1012.4,-152.58"/>
<polygon fill="#63b8ff" stroke="#63b8ff" points="1043.45,-183.15 1053.37,-186.89 1047.95,-177.79 1043.45,-183.15"/>
</a>
</g>
</g>
<!-- Node21 -->
<g id="Node000021" class="node">
<title>Node21</title>
<g id="a_Node000021"><a xlink:href="d__menu__letter_8cpp.html" target="_top" xlink:title=" ">
<polygon fill="white" stroke="#666666" points="1223.62,-146.62 1076.38,-146.62 1076.38,-127.38 1223.62,-127.38 1223.62,-146.62"/>
<text text-anchor="middle" x="1150" y="-133.12" font-family="Helvetica,sans-Serif" font-size="10.00">src/d/menu/d_menu_letter.cpp</text>
</a>
</g>
</g>
<!-- Node7&#45;&gt;Node21 -->
<g id="edge20_Node000007_Node000021" class="edge">
<title>Node7&#45;&gt;Node21</title>
<g id="a_edge20_Node000007_Node000021"><a xlink:title=" ">
<path fill="none" stroke="#63b8ff" d="M1098.46,-180.62C1112.45,-169.05 1128.85,-155.49 1139.33,-146.82"/>
<polygon fill="#63b8ff" stroke="#63b8ff" points="1096.34,-177.83 1090.87,-186.9 1100.8,-183.22 1096.34,-177.83"/>
</a>
</g>
</g>
<!-- Node22 -->
<g id="Node000022" class="node">
<title>Node22</title>
<g id="a_Node000022"><a xlink:href="d__menu__map__common_8cpp.html" target="_top" xlink:title=" ">
<polygon fill="white" stroke="#666666" points="1368.12,-152.25 1241.88,-152.25 1241.88,-121.75 1368.12,-121.75 1368.12,-152.25"/>
<text text-anchor="start" x="1249.88" y="-138.75" font-family="Helvetica,sans-Serif" font-size="10.00">src/d/menu/d_menu_map</text>
<text text-anchor="middle" x="1305" y="-127.5" font-family="Helvetica,sans-Serif" font-size="10.00">_common.cpp</text>
</a>
</g>
</g>
<!-- Node7&#45;&gt;Node22 -->
<g id="edge21_Node000007_Node000022" class="edge">
<title>Node7&#45;&gt;Node22</title>
<g id="a_edge21_Node000007_Node000022"><a xlink:title=" ">
<path fill="none" stroke="#63b8ff" d="M1130.44,-186.32C1167.79,-175.98 1215.84,-162.68 1252.07,-152.65"/>
<polygon fill="#63b8ff" stroke="#63b8ff" points="1129.88,-182.85 1121.17,-188.89 1131.74,-189.59 1129.88,-182.85"/>
</a>
</g>
</g>
<!-- Node23 -->
<g id="Node000023" class="node">
<title>Node23</title>
<g id="a_Node000023"><a xlink:href="d__menu__option_8cpp.html" target="_top" xlink:title=" ">
<polygon fill="white" stroke="#666666" points="1537.88,-146.62 1386.12,-146.62 1386.12,-127.38 1537.88,-127.38 1537.88,-146.62"/>
<text text-anchor="middle" x="1462" y="-133.12" font-family="Helvetica,sans-Serif" font-size="10.00">src/d/menu/d_menu_option.cpp</text>
</a>
</g>
</g>
<!-- Node7&#45;&gt;Node23 -->
<g id="edge22_Node000007_Node000023" class="edge">
<title>Node7&#45;&gt;Node23</title>
<g id="a_edge22_Node000007_Node000023"><a xlink:title=" ">
<path fill="none" stroke="#63b8ff" d="M1130.99,-187.99C1240.21,-166.87 1270.51,-168.9 1377,-152.25 1387.35,-150.63 1398.39,-148.83 1408.98,-147.07"/>
<polygon fill="#63b8ff" stroke="#63b8ff" points="1130.44,-184.53 1121.3,-189.88 1131.79,-191.4 1130.44,-184.53"/>
</a>
</g>
</g>
<!-- Node7&#45;&gt;Node24 -->
<g id="edge23_Node000007_Node000024" class="edge">
<title>Node7&#45;&gt;Node24</title>
<g id="a_edge23_Node000007_Node000024"><a xlink:title=" ">
<path fill="none" stroke="#63b8ff" d="M1131.11,-188.19C1532.57,-131.95 1641.45,-195.52 2041,-152.25 2052.5,-151 2064.84,-149.1 2076.31,-147.07"/>
<polygon fill="#63b8ff" stroke="#63b8ff" points="1130.66,-184.72 1121.25,-189.59 1131.64,-191.65 1130.66,-184.72"/>
</a>
</g>
</g>
<!-- Node25 -->
<g id="Node000025" class="node">
<title>Node25</title>
<g id="a_Node000025"><a xlink:href="d__menu__save_8cpp.html" target="_top" xlink:title=" ">
<polygon fill="white" stroke="#666666" points="1702.25,-146.62 1555.75,-146.62 1555.75,-127.38 1702.25,-127.38 1702.25,-146.62"/>
<text text-anchor="middle" x="1629" y="-133.12" font-family="Helvetica,sans-Serif" font-size="10.00">src/d/menu/d_menu_save.cpp</text>
</a>
</g>
</g>
<!-- Node7&#45;&gt;Node25 -->
<g id="edge24_Node000007_Node000025" class="edge">
<title>Node7&#45;&gt;Node25</title>
<g id="a_edge24_Node000007_Node000025"><a xlink:title=" ">
<path fill="none" stroke="#63b8ff" d="M1130.93,-188.13C1314.89,-158.25 1365.7,-175.77 1547,-152.25 1558.03,-150.82 1569.85,-148.96 1580.98,-147.06"/>
<polygon fill="#63b8ff" stroke="#63b8ff" points="1130.57,-184.64 1121.27,-189.72 1131.71,-191.55 1130.57,-184.64"/>
</a>
</g>
</g>
<!-- Node26 -->
<g id="Node000026" class="node">
<title>Node26</title>
<g id="a_Node000026"><a xlink:href="d__menu__skill_8cpp.html" target="_top" xlink:title=" ">
<polygon fill="white" stroke="#666666" points="1863.38,-146.62 1720.62,-146.62 1720.62,-127.38 1863.38,-127.38 1863.38,-146.62"/>
<text text-anchor="middle" x="1792" y="-133.12" font-family="Helvetica,sans-Serif" font-size="10.00">src/d/menu/d_menu_skill.cpp</text>
</a>
</g>
</g>
<!-- Node7&#45;&gt;Node26 -->
<g id="edge25_Node000007_Node000026" class="edge">
<title>Node7&#45;&gt;Node26</title>
<g id="a_edge25_Node000007_Node000026"><a xlink:title=" ">
<path fill="none" stroke="#63b8ff" d="M1130.92,-188.18C1387.1,-149.61 1457.28,-182.32 1711,-152.25 1722.2,-150.92 1734.2,-149.06 1745.44,-147.11"/>
<polygon fill="#63b8ff" stroke="#63b8ff" points="1130.62,-184.68 1121.26,-189.66 1131.67,-191.6 1130.62,-184.68"/>
</a>
</g>
</g>
<!-- Node27 -->
<g id="Node000027" class="node">
<title>Node27</title>
<g id="a_Node000027"><a xlink:href="d__shop__system_8cpp.html" target="_top" xlink:title=" ">
<polygon fill="white" stroke="#666666" points="2032.5,-146.62 1881.5,-146.62 1881.5,-127.38 2032.5,-127.38 2032.5,-146.62"/>
<text text-anchor="middle" x="1957" y="-133.12" font-family="Helvetica,sans-Serif" font-size="10.00">src/d/shop/d_shop_system.cpp</text>
</a>
</g>
</g>
<!-- Node7&#45;&gt;Node27 -->
<g id="edge26_Node000007_Node000027" class="edge">
<title>Node7&#45;&gt;Node27</title>
<g id="a_edge26_Node000007_Node000027"><a xlink:title=" ">
<path fill="none" stroke="#63b8ff" d="M1130.99,-188.19C1458.05,-140.99 1546.98,-187.25 1872,-152.25 1884.05,-150.95 1896.98,-149.05 1909.04,-147.05"/>
<polygon fill="#63b8ff" stroke="#63b8ff" points="1130.64,-184.71 1121.25,-189.62 1131.66,-191.63 1130.64,-184.71"/>
</a>
</g>
</g>
<!-- Node9 -->
<g id="Node000009" class="node">
<title>Node9</title>
<g id="a_Node000009"><a xlink:href="d__file__select_8h.html" target="_top" xlink:title=" ">
<polygon fill="white" stroke="#666666" points="146.75,-85.75 51.25,-85.75 51.25,-55.25 146.75,-55.25 146.75,-85.75"/>
<text text-anchor="start" x="59.25" y="-72.25" font-family="Helvetica,sans-Serif" font-size="10.00">include/d/file/d_file</text>
<text text-anchor="middle" x="99" y="-61" font-family="Helvetica,sans-Serif" font-size="10.00">_select.h</text>
</a>
</g>
</g>
<!-- Node8&#45;&gt;Node9 -->
<g id="edge8_Node000008_Node000009" class="edge">
<title>Node8&#45;&gt;Node9</title>
<g id="a_edge8_Node000008_Node000009"><a xlink:title=" ">
<path fill="none" stroke="#63b8ff" d="M194.52,-121.59C174.31,-110.99 146.96,-96.65 126.7,-86.03"/>
<polygon fill="#63b8ff" stroke="#63b8ff" points="192.82,-124.65 203.3,-126.19 196.07,-118.45 192.82,-124.65"/>
</a>
</g>
</g>
<!-- Node11 -->
<g id="Node000011" class="node">
<title>Node11</title>
<g id="a_Node000011"><a xlink:href="d__name_8cpp.html" target="_top" xlink:title=" ">
<polygon fill="white" stroke="#666666" points="257.62,-80.12 164.38,-80.12 164.38,-60.88 257.62,-60.88 257.62,-80.12"/>
<text text-anchor="middle" x="211" y="-66.62" font-family="Helvetica,sans-Serif" font-size="10.00">src/d/d_name.cpp</text>
</a>
</g>
</g>
<!-- Node8&#45;&gt;Node11 -->
<g id="edge10_Node000008_Node000011" class="edge">
<title>Node8&#45;&gt;Node11</title>
<g id="a_edge10_Node000008_Node000011"><a xlink:title=" ">
<path fill="none" stroke="#63b8ff" d="M218.57,-115.9C216.54,-104 214.07,-89.51 212.52,-80.39"/>
<polygon fill="#63b8ff" stroke="#63b8ff" points="215.08,-116.27 220.22,-125.54 221.98,-115.09 215.08,-116.27"/>
</a>
</g>
</g>
<!-- Node10 -->
<g id="Node000010" class="node">
<title>Node10</title>
<g id="a_Node000010"><a xlink:href="d__file__select_8cpp.html" target="_top" xlink:title=" ">
<polygon fill="white" stroke="#666666" points="162.88,-19.25 35.12,-19.25 35.12,0 162.88,0 162.88,-19.25"/>
<text text-anchor="middle" x="99" y="-5.75" font-family="Helvetica,sans-Serif" font-size="10.00">src/d/file/d_file_select.cpp</text>
</a>
</g>
</g>
<!-- Node9&#45;&gt;Node10 -->
<g id="edge9_Node000009_Node000010" class="edge">
<title>Node9&#45;&gt;Node10</title>
<g id="a_edge9_Node000009_Node000010"><a xlink:title=" ">
<path fill="none" stroke="#63b8ff" d="M99,-43.48C99,-34.98 99,-26.09 99,-19.7"/>
<polygon fill="#63b8ff" stroke="#63b8ff" points="95.5,-43.43 99,-53.43 102.5,-43.43 95.5,-43.43"/>
</a>
</g>
</g>
<!-- Node13 -->
<g id="Node000013" class="node">
<title>Node13</title>
<g id="a_Node000013"><a xlink:href="d__menu__dmap_8cpp.html" target="_top" xlink:title=" ">
<polygon fill="white" stroke="#666666" points="424.75,-80.12 275.25,-80.12 275.25,-60.88 424.75,-60.88 424.75,-80.12"/>
<text text-anchor="middle" x="350" y="-66.62" font-family="Helvetica,sans-Serif" font-size="10.00">src/d/menu/d_menu_dmap.cpp</text>
</a>
</g>
</g>
<!-- Node12&#45;&gt;Node13 -->
<g id="edge12_Node000012_Node000013" class="edge">
<title>Node12&#45;&gt;Node13</title>
<g id="a_edge12_Node000012_Node000013"><a xlink:title=" ">
<path fill="none" stroke="#63b8ff" d="M350,-110.09C350,-99.51 350,-88 350,-80.32"/>
<polygon fill="#63b8ff" stroke="#63b8ff" points="346.5,-109.85 350,-119.85 353.5,-109.85 346.5,-109.85"/>
</a>
</g>
</g>
<!-- Node14 -->
<g id="Node000014" class="node">
<title>Node14</title>
<g id="a_Node000014"><a xlink:href="d__menu__fishing_8cpp.html" target="_top" xlink:title=" ">
<polygon fill="white" stroke="#666666" points="595.62,-80.12 442.38,-80.12 442.38,-60.88 595.62,-60.88 595.62,-80.12"/>
<text text-anchor="middle" x="519" y="-66.62" font-family="Helvetica,sans-Serif" font-size="10.00">src/d/menu/d_menu_fishing.cpp</text>
</a>
</g>
</g>
<!-- Node12&#45;&gt;Node14 -->
<g id="edge13_Node000012_Node000014" class="edge">
<title>Node12&#45;&gt;Node14</title>
<g id="a_edge13_Node000012_Node000014"><a xlink:title=" ">
<path fill="none" stroke="#63b8ff" d="M398.76,-117.39C430.5,-105.28 470.48,-90.02 495.39,-80.51"/>
<polygon fill="#63b8ff" stroke="#63b8ff" points="397.86,-113.99 389.76,-120.82 400.35,-120.53 397.86,-113.99"/>
</a>
</g>
</g>
<!-- Node15 -->
<g id="Node000015" class="node">
<title>Node15</title>
<g id="a_Node000015"><a xlink:href="d__menu__window_8cpp.html" target="_top" xlink:title=" ">
<polygon fill="white" stroke="#666666" points="772.25,-80.12 613.75,-80.12 613.75,-60.88 772.25,-60.88 772.25,-80.12"/>
<text text-anchor="middle" x="693" y="-66.62" font-family="Helvetica,sans-Serif" font-size="10.00">src/d/menu/d_menu_window.cpp</text>
</a>
</g>
</g>
<!-- Node12&#45;&gt;Node15 -->
<g id="edge14_Node000012_Node000015" class="edge">
<title>Node12&#45;&gt;Node15</title>
<g id="a_edge14_Node000012_Node000015"><a xlink:title=" ">
<path fill="none" stroke="#63b8ff" d="M421.32,-121.32C504.04,-105.28 588.67,-90 641.43,-80.61"/>
<polygon fill="#63b8ff" stroke="#63b8ff" points="420.83,-117.85 411.68,-123.2 422.16,-124.72 420.83,-117.85"/>
</a>
</g>
</g>
</g>
</svg>
