<?xml version="1.0" encoding="UTF-8" standalone="no"?>
<!DOCTYPE svg PUBLIC "-//W3C//DTD SVG 1.1//EN"
 "http://www.w3.org/Graphics/SVG/1.1/DTD/svg11.dtd">
<!-- Generated by graphviz version 2.44.0 ()
 -->
<!-- Title: include/d/d_resorce.h Pages: 1 -->
<!--zoomable 553 -->
<svg id="main" version="1.1" xmlns="http://www.w3.org/2000/svg" xmlns:xlink="http://www.w3.org/1999/xlink" xml:space="preserve" onload="init(evt)">
<style type="text/css"><![CDATA[
.edge:hover path { stroke: red; }
.edge:hover polygon { stroke: red; fill: red; }
]]></style>
<script type="text/javascript"><![CDATA[
var edges = document.getElementsByTagName('g');
if (edges && edges.length) {
  for (var i=0;i<edges.length;i++) {
    if (edges[i].id.substr(0,4)=='edge') {
      edges[i].setAttribute('class','edge');
    }
  }
}
]]></script>
        <defs>
                <circle id="rim" cx="0" cy="0" r="7"/>
                <circle id="rim2" cx="0" cy="0" r="3.5"/>
                <g id="zoomPlus">
                        <use xlink:href="#rim" fill="#404040">
                                <set attributeName="fill" to="#808080" begin="zoomplus.mouseover" end="zoomplus.mouseout"/>
                        </use>
                        <path d="M-4,0h8M0,-4v8" fill="none" stroke="white" stroke-width="1.5" pointer-events="none"/>
                </g>
                <g id="zoomMin">
                        <use xlink:href="#rim" fill="#404040">
                                <set attributeName="fill" to="#808080" begin="zoomminus.mouseover" end="zoomminus.mouseout"/>
                        </use>
                        <path d="M-4,0h8" fill="none" stroke="white" stroke-width="1.5" pointer-events="none"/>
                </g>
                <g id="dirArrow">
                        <path fill="none" stroke="white" stroke-width="1.5" d="M0,-3.0v7 M-2.5,-0.5L0,-3.0L2.5,-0.5"/>
                </g>
               <g id="resetDef">
                       <use xlink:href="#rim2" fill="#404040">
                               <set attributeName="fill" to="#808080" begin="reset.mouseover" end="reset.mouseout"/>
                       </use>
               </g>
        </defs>

<script type="text/javascript">
var viewWidth = 1939;
var viewHeight = 553;
var sectionId = 'dynsection-1';
</script>
<script xlink:href="svgpan.js"/>
<svg id="graph" class="graph">
<g id="viewport">
<title>include/d/d_resorce.h</title>
<polygon fill="white" stroke="transparent" points="-4,4 -4,-549 1935.1,-549 1935.1,4 -4,4"/>
<!-- Node1 -->
<g id="node1" class="node">
<title>Node1</title>
<g id="a_node1"><a xlink:title=" ">
<polygon fill="#bfbfbf" stroke="black" points="989.5,-525.5 989.5,-544.5 1098.5,-544.5 1098.5,-525.5 989.5,-525.5"/>
<text text-anchor="middle" x="1044" y="-532.5" font-family="Helvetica,sans-Serif" font-size="10.00">include/d/d_resorce.h</text>
</a>
</g>
</g>
<!-- Node2 -->
<g id="node2" class="node">
<title>Node2</title>
<g id="a_node2"><a xlink:href="d__resorce_8cpp.html" target="_top" xlink:title=" ">
<polygon fill="white" stroke="black" points="0,-73 0,-92 102,-92 102,-73 0,-73"/>
<text text-anchor="middle" x="51" y="-80" font-family="Helvetica,sans-Serif" font-size="10.00">src/d/d_resorce.cpp</text>
</a>
</g>
</g>
<!-- Node1&#45;&gt;Node2 -->
<g id="edge1" class="edge">
<title>Node1&#45;&gt;Node2</title>
<path fill="none" stroke="midnightblue" d="M979.31,-532.45C773.77,-526.69 149,-502.28 149,-418.5 149,-418.5 149,-418.5 149,-215.5 149,-158.99 90.38,-110.93 63.81,-92.05"/>
<polygon fill="midnightblue" stroke="midnightblue" points="979.27,-535.95 989.36,-532.73 979.46,-528.96 979.27,-535.95"/>
</g>
<!-- Node3 -->
<g id="node3" class="node">
<title>Node3</title>
<g id="a_node3"><a xlink:href="d__a__player_8h.html" target="_top" xlink:title=" ">
<polygon fill="white" stroke="black" points="685.5,-469.5 685.5,-488.5 806.5,-488.5 806.5,-469.5 685.5,-469.5"/>
<text text-anchor="middle" x="746" y="-476.5" font-family="Helvetica,sans-Serif" font-size="10.00">include/d/a/d_a_player.h</text>
</a>
</g>
</g>
<!-- Node1&#45;&gt;Node3 -->
<g id="edge2" class="edge">
<title>Node1&#45;&gt;Node3</title>
<path fill="none" stroke="midnightblue" d="M986.61,-523.6C930.29,-513.4 845.44,-498.02 793,-488.52"/>
<polygon fill="midnightblue" stroke="midnightblue" points="986.32,-527.1 996.78,-525.44 987.57,-520.22 986.32,-527.1"/>
</g>
<!-- Node7 -->
<g id="node7" class="node">
<title>Node7</title>
<g id="a_node7"><a xlink:href="d__com__inf__game_8h.html" target="_top" xlink:title=" ">
<polygon fill="white" stroke="black" points="807,-134.5 807,-164.5 917,-164.5 917,-134.5 807,-134.5"/>
<text text-anchor="start" x="815" y="-152.5" font-family="Helvetica,sans-Serif" font-size="10.00">include/d/com/d_com</text>
<text text-anchor="middle" x="862" y="-141.5" font-family="Helvetica,sans-Serif" font-size="10.00">_inf_game.h</text>
</a>
</g>
</g>
<!-- Node1&#45;&gt;Node7 -->
<g id="edge45" class="edge">
<title>Node1&#45;&gt;Node7</title>
<path fill="none" stroke="midnightblue" d="M1103.21,-523.5C1190.11,-506.38 1342,-469.2 1342,-418.5 1342,-418.5 1342,-418.5 1342,-282.5 1342,-195.21 1043.14,-163.49 917.06,-153.99"/>
<polygon fill="midnightblue" stroke="midnightblue" points="1102.36,-520.1 1093.21,-525.44 1103.69,-526.97 1102.36,-520.1"/>
</g>
<!-- Node35 -->
<g id="node35" class="node">
<title>Node35</title>
<g id="a_node35"><a xlink:href="d__meter2__info_8h.html" target="_top" xlink:title=" ">
<polygon fill="white" stroke="black" points="1696.5,-268.5 1696.5,-298.5 1823.5,-298.5 1823.5,-268.5 1696.5,-268.5"/>
<text text-anchor="start" x="1704.5" y="-286.5" font-family="Helvetica,sans-Serif" font-size="10.00">include/d/meter/d_meter2</text>
<text text-anchor="middle" x="1760" y="-275.5" font-family="Helvetica,sans-Serif" font-size="10.00">_info.h</text>
</a>
</g>
</g>
<!-- Node1&#45;&gt;Node35 -->
<g id="edge46" class="edge">
<title>Node1&#45;&gt;Node35</title>
<path fill="none" stroke="midnightblue" d="M1109.1,-530.77C1173.18,-526.17 1273.2,-515.15 1356,-489 1511.17,-439.99 1679.55,-336.53 1738.32,-298.72"/>
<polygon fill="midnightblue" stroke="midnightblue" points="1108.48,-527.31 1098.74,-531.48 1108.96,-534.29 1108.48,-527.31"/>
</g>
<!-- Node4 -->
<g id="node4" class="node">
<title>Node4</title>
<g id="a_node4"><a xlink:href="d__a__player_8cpp.html" target="_top" xlink:title=" ">
<polygon fill="white" stroke="black" points="120,-73 120,-92 234,-92 234,-73 120,-73"/>
<text text-anchor="middle" x="177" y="-80" font-family="Helvetica,sans-Serif" font-size="10.00">src/d/a/d_a_player.cpp</text>
</a>
</g>
</g>
<!-- Node3&#45;&gt;Node4 -->
<g id="edge3" class="edge">
<title>Node3&#45;&gt;Node4</title>
<path fill="none" stroke="midnightblue" d="M675.05,-473.26C545.76,-462.67 285,-431.4 285,-351.5 285,-351.5 285,-351.5 285,-215.5 285,-157.17 221.04,-110.45 191.57,-92.01"/>
<polygon fill="midnightblue" stroke="midnightblue" points="675.01,-476.77 685.26,-474.08 675.57,-469.79 675.01,-476.77"/>
</g>
<!-- Node5 -->
<g id="node5" class="node">
<title>Node5</title>
<g id="a_node5"><a xlink:href="d__a__alink_8h.html" target="_top" xlink:title=" ">
<polygon fill="white" stroke="black" points="890,-207 890,-226 1006,-226 1006,-207 890,-207"/>
<text text-anchor="middle" x="948" y="-214" font-family="Helvetica,sans-Serif" font-size="10.00">include/d/a/d_a_alink.h</text>
</a>
</g>
</g>
<!-- Node3&#45;&gt;Node5 -->
<g id="edge4" class="edge">
<title>Node3&#45;&gt;Node5</title>
<path fill="none" stroke="midnightblue" d="M750.06,-459.23C756.98,-430.36 773.2,-374.3 802,-335 803.28,-333.25 903.5,-253.07 937.13,-226.18"/>
<polygon fill="midnightblue" stroke="midnightblue" points="746.6,-458.65 747.78,-469.18 753.42,-460.21 746.6,-458.65"/>
</g>
<!-- Node22 -->
<g id="node22" class="node">
<title>Node22</title>
<g id="a_node22"><a xlink:href="d__bg__s__acch_8h.html" target="_top" xlink:title=" ">
<polygon fill="white" stroke="black" points="956,-402.5 956,-432.5 1060,-432.5 1060,-402.5 956,-402.5"/>
<text text-anchor="start" x="964" y="-420.5" font-family="Helvetica,sans-Serif" font-size="10.00">include/d/bg/d_bg_s</text>
<text text-anchor="middle" x="1008" y="-409.5" font-family="Helvetica,sans-Serif" font-size="10.00">_acch.h</text>
</a>
</g>
</g>
<!-- Node3&#45;&gt;Node22 -->
<g id="edge25" class="edge">
<title>Node3&#45;&gt;Node22</title>
<path fill="none" stroke="midnightblue" d="M793.5,-467.21C839.24,-456.82 908.28,-441.15 955.6,-430.4"/>
<polygon fill="midnightblue" stroke="midnightblue" points="792.51,-463.85 783.54,-469.48 794.07,-470.67 792.51,-463.85"/>
</g>
<!-- Node32 -->
<g id="node32" class="node">
<title>Node32</title>
<g id="a_node32"><a xlink:href="d__attention_8h.html" target="_top" xlink:title=" ">
<polygon fill="white" stroke="black" points="594,-274 594,-293 708,-293 708,-274 594,-274"/>
<text text-anchor="middle" x="651" y="-281" font-family="Helvetica,sans-Serif" font-size="10.00">include/d/d_attention.h</text>
</a>
</g>
</g>
<!-- Node3&#45;&gt;Node32 -->
<g id="edge38" class="edge">
<title>Node3&#45;&gt;Node32</title>
<path fill="none" stroke="midnightblue" d="M737.32,-460.32C717.61,-420.17 670.03,-323.26 655.37,-293.41"/>
<polygon fill="midnightblue" stroke="midnightblue" points="734.25,-462 741.8,-469.44 740.53,-458.92 734.25,-462"/>
</g>
<!-- Node34 -->
<g id="node34" class="node">
<title>Node34</title>
<g id="a_node34"><a xlink:href="d__event_8h.html" target="_top" xlink:title=" ">
<polygon fill="white" stroke="black" points="420,-207 420,-226 548,-226 548,-207 420,-207"/>
<text text-anchor="middle" x="484" y="-214" font-family="Helvetica,sans-Serif" font-size="10.00">include/d/event/d_event.h</text>
</a>
</g>
</g>
<!-- Node3&#45;&gt;Node34 -->
<g id="edge42" class="edge">
<title>Node3&#45;&gt;Node34</title>
<path fill="none" stroke="midnightblue" d="M729.97,-462.06C680.39,-412.76 530.58,-263.81 492.75,-226.2"/>
<polygon fill="midnightblue" stroke="midnightblue" points="727.72,-464.76 737.28,-469.33 732.66,-459.8 727.72,-464.76"/>
</g>
<!-- Node6 -->
<g id="node6" class="node">
<title>Node6</title>
<g id="a_node6"><a xlink:href="d__a__alink_8cpp.html" target="_top" xlink:title=" ">
<polygon fill="white" stroke="black" points="1495.5,-73 1495.5,-92 1604.5,-92 1604.5,-73 1495.5,-73"/>
<text text-anchor="middle" x="1550" y="-80" font-family="Helvetica,sans-Serif" font-size="10.00">src/d/a/d_a_alink.cpp</text>
</a>
</g>
</g>
<!-- Node5&#45;&gt;Node6 -->
<g id="edge5" class="edge">
<title>Node5&#45;&gt;Node6</title>
<path fill="none" stroke="midnightblue" d="M997.85,-204.83C1093.01,-184.43 1307.11,-138.31 1487,-98 1495.54,-96.09 1504.73,-93.99 1513.37,-92.01"/>
<polygon fill="midnightblue" stroke="midnightblue" points="996.97,-201.44 987.93,-206.96 998.44,-208.29 996.97,-201.44"/>
</g>
<!-- Node5&#45;&gt;Node7 -->
<g id="edge6" class="edge">
<title>Node5&#45;&gt;Node7</title>
<path fill="none" stroke="midnightblue" d="M928.21,-200.54C913.9,-189.73 894.68,-175.2 880.64,-164.59"/>
<polygon fill="midnightblue" stroke="midnightblue" points="926.31,-203.5 936.4,-206.73 930.53,-197.91 926.31,-203.5"/>
</g>
<!-- Node7&#45;&gt;Node2 -->
<g id="edge10" class="edge">
<title>Node7&#45;&gt;Node2</title>
<path fill="none" stroke="midnightblue" d="M796.75,-147.83C665.92,-145.68 362.52,-136.56 111,-98 101.47,-96.54 91.22,-94.31 81.94,-92.04"/>
<polygon fill="midnightblue" stroke="midnightblue" points="796.94,-151.34 807,-147.99 797.05,-144.34 796.94,-151.34"/>
</g>
<!-- Node7&#45;&gt;Node4 -->
<g id="edge7" class="edge">
<title>Node7&#45;&gt;Node4</title>
<path fill="none" stroke="midnightblue" d="M796.4,-146.06C683.03,-141.19 443.34,-128.04 243,-98 232.79,-96.47 221.8,-94.28 211.77,-92.06"/>
<polygon fill="midnightblue" stroke="midnightblue" points="796.51,-149.56 806.65,-146.49 796.8,-142.57 796.51,-149.56"/>
</g>
<!-- Node7&#45;&gt;Node6 -->
<g id="edge9" class="edge">
<title>Node7&#45;&gt;Node6</title>
<path fill="none" stroke="midnightblue" d="M927.38,-146.35C1041.53,-141.9 1284.35,-129.34 1487,-98 1496.87,-96.47 1507.49,-94.26 1517.15,-92.01"/>
<polygon fill="midnightblue" stroke="midnightblue" points="926.93,-142.86 917.07,-146.74 927.2,-149.86 926.93,-142.86"/>
</g>
<!-- Node8 -->
<g id="node8" class="node">
<title>Node8</title>
<g id="a_node8"><a xlink:href="d__com__inf__game_8cpp.html" target="_top" xlink:title=" ">
<polygon fill="white" stroke="black" points="1376,-0.5 1376,-30.5 1484,-30.5 1484,-0.5 1376,-0.5"/>
<text text-anchor="start" x="1384" y="-18.5" font-family="Helvetica,sans-Serif" font-size="10.00">src/d/com/d_com_inf</text>
<text text-anchor="middle" x="1430" y="-7.5" font-family="Helvetica,sans-Serif" font-size="10.00">_game.cpp</text>
</a>
</g>
</g>
<!-- Node7&#45;&gt;Node8 -->
<g id="edge8" class="edge">
<title>Node7&#45;&gt;Node8</title>
<path fill="none" stroke="midnightblue" d="M796.88,-139.95C733.5,-129.1 651.78,-106.84 689,-67 735.65,-17.06 1213.21,-15.2 1375.99,-16.04"/>
<polygon fill="midnightblue" stroke="midnightblue" points="796.44,-143.42 806.87,-141.59 797.57,-136.51 796.44,-143.42"/>
</g>
<!-- Node9 -->
<g id="node9" class="node">
<title>Node9</title>
<g id="a_node9"><a xlink:href="d__stage_8cpp.html" target="_top" xlink:title=" ">
<polygon fill="white" stroke="black" points="698,-73 698,-92 792,-92 792,-73 698,-73"/>
<text text-anchor="middle" x="745" y="-80" font-family="Helvetica,sans-Serif" font-size="10.00">src/d/d_stage.cpp</text>
</a>
</g>
</g>
<!-- Node7&#45;&gt;Node9 -->
<g id="edge11" class="edge">
<title>Node7&#45;&gt;Node9</title>
<path fill="none" stroke="midnightblue" d="M827.75,-129.47C805.42,-117.06 777.35,-101.47 760.31,-92.01"/>
<polygon fill="midnightblue" stroke="midnightblue" points="826.17,-132.6 836.61,-134.4 829.57,-126.48 826.17,-132.6"/>
</g>
<!-- Node10 -->
<g id="node10" class="node">
<title>Node10</title>
<g id="a_node10"><a xlink:href="d__event_8cpp.html" target="_top" xlink:title=" ">
<polygon fill="white" stroke="black" points="252.5,-73 252.5,-92 373.5,-92 373.5,-73 252.5,-73"/>
<text text-anchor="middle" x="313" y="-80" font-family="Helvetica,sans-Serif" font-size="10.00">src/d/event/d_event.cpp</text>
</a>
</g>
</g>
<!-- Node7&#45;&gt;Node10 -->
<g id="edge12" class="edge">
<title>Node7&#45;&gt;Node10</title>
<path fill="none" stroke="midnightblue" d="M796.62,-143.75C703.99,-136.55 529.4,-121.18 382,-98 371.6,-96.36 360.4,-94.19 350.11,-92.03"/>
<polygon fill="midnightblue" stroke="midnightblue" points="796.45,-147.25 806.69,-144.53 796.99,-140.27 796.45,-147.25"/>
</g>
<!-- Node11 -->
<g id="node11" class="node">
<title>Node11</title>
<g id="a_node11"><a xlink:href="d__event__manager_8cpp.html" target="_top" xlink:title=" ">
<polygon fill="white" stroke="black" points="810.5,-67.5 810.5,-97.5 913.5,-97.5 913.5,-67.5 810.5,-67.5"/>
<text text-anchor="start" x="818.5" y="-85.5" font-family="Helvetica,sans-Serif" font-size="10.00">src/d/event/d_event</text>
<text text-anchor="middle" x="862" y="-74.5" font-family="Helvetica,sans-Serif" font-size="10.00">_manager.cpp</text>
</a>
</g>
</g>
<!-- Node7&#45;&gt;Node11 -->
<g id="edge13" class="edge">
<title>Node7&#45;&gt;Node11</title>
<path fill="none" stroke="midnightblue" d="M862,-124.11C862,-115.15 862,-105.32 862,-97.58"/>
<polygon fill="midnightblue" stroke="midnightblue" points="858.5,-124.4 862,-134.4 865.5,-124.4 858.5,-124.4"/>
</g>
<!-- Node12 -->
<g id="node12" class="node">
<title>Node12</title>
<g id="a_node12"><a xlink:href="d__kankyo_8cpp.html" target="_top" xlink:title=" ">
<polygon fill="white" stroke="black" points="932,-73 932,-92 1066,-92 1066,-73 932,-73"/>
<text text-anchor="middle" x="999" y="-80" font-family="Helvetica,sans-Serif" font-size="10.00">src/d/kankyo/d_kankyo.cpp</text>
</a>
</g>
</g>
<!-- Node7&#45;&gt;Node12 -->
<g id="edge14" class="edge">
<title>Node7&#45;&gt;Node12</title>
<path fill="none" stroke="midnightblue" d="M901.06,-129.97C927.38,-117.48 960.86,-101.6 981.07,-92.01"/>
<polygon fill="midnightblue" stroke="midnightblue" points="899.26,-126.95 891.73,-134.4 902.26,-133.27 899.26,-126.95"/>
</g>
<!-- Node13 -->
<g id="node13" class="node">
<title>Node13</title>
<g id="a_node13"><a xlink:href="d__meter2__info_8cpp.html" target="_top" xlink:title=" ">
<polygon fill="white" stroke="black" points="1623,-67.5 1623,-97.5 1733,-97.5 1733,-67.5 1623,-67.5"/>
<text text-anchor="start" x="1631" y="-85.5" font-family="Helvetica,sans-Serif" font-size="10.00">src/d/meter/d_meter2</text>
<text text-anchor="middle" x="1678" y="-74.5" font-family="Helvetica,sans-Serif" font-size="10.00">_info.cpp</text>
</a>
</g>
</g>
<!-- Node7&#45;&gt;Node13 -->
<g id="edge15" class="edge">
<title>Node7&#45;&gt;Node13</title>
<path fill="none" stroke="midnightblue" d="M927.29,-147.53C1058.21,-144.83 1361.87,-134.8 1614,-98 1616.93,-97.57 1619.93,-97.08 1622.94,-96.55"/>
<polygon fill="midnightblue" stroke="midnightblue" points="926.96,-144.04 917.04,-147.73 927.1,-151.03 926.96,-144.04"/>
</g>
<!-- Node14 -->
<g id="node14" class="node">
<title>Node14</title>
<g id="a_node14"><a xlink:href="d__msg__flow_8cpp.html" target="_top" xlink:title=" ">
<polygon fill="white" stroke="black" points="1084.5,-73 1084.5,-92 1217.5,-92 1217.5,-73 1084.5,-73"/>
<text text-anchor="middle" x="1151" y="-80" font-family="Helvetica,sans-Serif" font-size="10.00">src/d/msg/d_msg_flow.cpp</text>
</a>
</g>
</g>
<!-- Node7&#45;&gt;Node14 -->
<g id="edge16" class="edge">
<title>Node7&#45;&gt;Node14</title>
<path fill="none" stroke="midnightblue" d="M927.09,-133.86C984.44,-120.96 1065.98,-102.62 1113.2,-92"/>
<polygon fill="midnightblue" stroke="midnightblue" points="926.03,-130.51 917.04,-136.12 927.56,-137.34 926.03,-130.51"/>
</g>
<!-- Node15 -->
<g id="node15" class="node">
<title>Node15</title>
<g id="a_node15"><a xlink:href="d__save_8cpp.html" target="_top" xlink:title=" ">
<polygon fill="white" stroke="black" points="1751.5,-73 1751.5,-92 1866.5,-92 1866.5,-73 1751.5,-73"/>
<text text-anchor="middle" x="1809" y="-80" font-family="Helvetica,sans-Serif" font-size="10.00">src/d/save/d_save.cpp</text>
</a>
</g>
</g>
<!-- Node7&#45;&gt;Node15 -->
<g id="edge17" class="edge">
<title>Node7&#45;&gt;Node15</title>
<path fill="none" stroke="midnightblue" d="M927.28,-148.22C1073.73,-146.84 1439.37,-139.18 1742,-98 1752.61,-96.56 1764.05,-94.34 1774.41,-92.06"/>
<polygon fill="midnightblue" stroke="midnightblue" points="927.09,-144.72 917.12,-148.31 927.15,-151.72 927.09,-144.72"/>
</g>
<!-- Node16 -->
<g id="node16" class="node">
<title>Node16</title>
<g id="a_node16"><a xlink:href="m__Do__machine__exception_8cpp.html" target="_top" xlink:title=" ">
<polygon fill="white" stroke="black" points="1235.5,-67.5 1235.5,-97.5 1364.5,-97.5 1364.5,-67.5 1235.5,-67.5"/>
<text text-anchor="start" x="1243.5" y="-85.5" font-family="Helvetica,sans-Serif" font-size="10.00">src/m_Do/m_Do_machine</text>
<text text-anchor="middle" x="1300" y="-74.5" font-family="Helvetica,sans-Serif" font-size="10.00">_exception.cpp</text>
</a>
</g>
</g>
<!-- Node7&#45;&gt;Node16 -->
<g id="edge18" class="edge">
<title>Node7&#45;&gt;Node16</title>
<path fill="none" stroke="midnightblue" d="M926.99,-140.59C999.93,-131.46 1121.73,-115.44 1226,-98 1229.1,-97.48 1232.27,-96.93 1235.46,-96.36"/>
<polygon fill="midnightblue" stroke="midnightblue" points="926.52,-137.12 917.03,-141.83 927.39,-144.07 926.52,-137.12"/>
</g>
<!-- Node17 -->
<g id="node17" class="node">
<title>Node17</title>
<g id="a_node17"><a xlink:href="m__Do__main_8cpp.html" target="_top" xlink:title=" ">
<polygon fill="white" stroke="black" points="391.5,-73 391.5,-92 522.5,-92 522.5,-73 391.5,-73"/>
<text text-anchor="middle" x="457" y="-80" font-family="Helvetica,sans-Serif" font-size="10.00">src/m_Do/m_Do_main.cpp</text>
</a>
</g>
</g>
<!-- Node7&#45;&gt;Node17 -->
<g id="edge19" class="edge">
<title>Node7&#45;&gt;Node17</title>
<path fill="none" stroke="midnightblue" d="M796.86,-139.39C730.01,-129.84 623.06,-114.03 531,-98 520.55,-96.18 509.31,-94.06 498.82,-92.01"/>
<polygon fill="midnightblue" stroke="midnightblue" points="796.44,-142.86 806.83,-140.81 797.42,-135.93 796.44,-142.86"/>
</g>
<!-- Node18 -->
<g id="node18" class="node">
<title>Node18</title>
<g id="a_node18"><a xlink:href="d__item_8h.html" target="_top" xlink:title=" ">
<polygon fill="white" stroke="black" points="1382.5,-73 1382.5,-92 1477.5,-92 1477.5,-73 1382.5,-73"/>
<text text-anchor="middle" x="1430" y="-80" font-family="Helvetica,sans-Serif" font-size="10.00">include/d/d_item.h</text>
</a>
</g>
</g>
<!-- Node7&#45;&gt;Node18 -->
<g id="edge20" class="edge">
<title>Node7&#45;&gt;Node18</title>
<path fill="none" stroke="midnightblue" d="M927.2,-145.21C1024.75,-139.57 1214.21,-125.88 1373,-98 1381.85,-96.45 1391.35,-94.25 1400.01,-92.03"/>
<polygon fill="midnightblue" stroke="midnightblue" points="926.98,-141.71 917.19,-145.78 927.38,-148.7 926.98,-141.71"/>
</g>
<!-- Node20 -->
<g id="node20" class="node">
<title>Node20</title>
<g id="a_node20"><a xlink:href="d__kantera__icon__meter_8h.html" target="_top" xlink:title=" ">
<polygon fill="white" stroke="black" points="540.5,-67.5 540.5,-97.5 641.5,-97.5 641.5,-67.5 540.5,-67.5"/>
<text text-anchor="start" x="548.5" y="-85.5" font-family="Helvetica,sans-Serif" font-size="10.00">include/d/d_kantera</text>
<text text-anchor="middle" x="591" y="-74.5" font-family="Helvetica,sans-Serif" font-size="10.00">_icon_meter.h</text>
</a>
</g>
</g>
<!-- Node7&#45;&gt;Node20 -->
<g id="edge23" class="edge">
<title>Node7&#45;&gt;Node20</title>
<path fill="none" stroke="midnightblue" d="M796.91,-132.89C749.21,-121.45 685.4,-106.14 641.52,-95.62"/>
<polygon fill="midnightblue" stroke="midnightblue" points="796.29,-136.34 806.83,-135.27 797.92,-129.53 796.29,-136.34"/>
</g>
<!-- Node18&#45;&gt;Node8 -->
<g id="edge21" class="edge">
<title>Node18&#45;&gt;Node8</title>
<path fill="none" stroke="midnightblue" d="M1430,-62.41C1430,-52.22 1430,-39.9 1430,-30.59"/>
<polygon fill="midnightblue" stroke="midnightblue" points="1426.5,-62.73 1430,-72.73 1433.5,-62.73 1426.5,-62.73"/>
</g>
<!-- Node19 -->
<g id="node19" class="node">
<title>Node19</title>
<g id="a_node19"><a xlink:href="d__item_8cpp.html" target="_top" xlink:title=" ">
<polygon fill="white" stroke="black" points="1712.5,-6 1712.5,-25 1801.5,-25 1801.5,-6 1712.5,-6"/>
<text text-anchor="middle" x="1757" y="-13" font-family="Helvetica,sans-Serif" font-size="10.00">src/d/d_item.cpp</text>
</a>
</g>
</g>
<!-- Node18&#45;&gt;Node19 -->
<g id="edge22" class="edge">
<title>Node18&#45;&gt;Node19</title>
<path fill="none" stroke="midnightblue" d="M1472.23,-70.44C1477.2,-69.23 1482.2,-68.06 1487,-67 1565.94,-49.6 1658.71,-33.1 1712.39,-23.94"/>
<polygon fill="midnightblue" stroke="midnightblue" points="1471.03,-67.13 1462.17,-72.93 1472.72,-73.92 1471.03,-67.13"/>
</g>
<!-- Node21 -->
<g id="node21" class="node">
<title>Node21</title>
<g id="a_node21"><a xlink:href="d__kantera__icon__meter_8cpp.html" target="_top" xlink:title=" ">
<polygon fill="white" stroke="black" points="537.5,-0.5 537.5,-30.5 644.5,-30.5 644.5,-0.5 537.5,-0.5"/>
<text text-anchor="start" x="545.5" y="-18.5" font-family="Helvetica,sans-Serif" font-size="10.00">src/d/d_kantera_icon</text>
<text text-anchor="middle" x="591" y="-7.5" font-family="Helvetica,sans-Serif" font-size="10.00">_meter.cpp</text>
</a>
</g>
</g>
<!-- Node20&#45;&gt;Node21 -->
<g id="edge24" class="edge">
<title>Node20&#45;&gt;Node21</title>
<path fill="none" stroke="midnightblue" d="M591,-57.11C591,-48.15 591,-38.32 591,-30.58"/>
<polygon fill="midnightblue" stroke="midnightblue" points="587.5,-57.4 591,-67.4 594.5,-57.4 587.5,-57.4"/>
</g>
<!-- Node23 -->
<g id="node23" class="node">
<title>Node23</title>
<g id="a_node23"><a xlink:href="d__bg__s__acch_8cpp.html" target="_top" xlink:title=" ">
<polygon fill="white" stroke="black" points="942.5,-341 942.5,-360 1073.5,-360 1073.5,-341 942.5,-341"/>
<text text-anchor="middle" x="1008" y="-348" font-family="Helvetica,sans-Serif" font-size="10.00">src/d/bg/d_bg_s_acch.cpp</text>
</a>
</g>
</g>
<!-- Node22&#45;&gt;Node23 -->
<g id="edge26" class="edge">
<title>Node22&#45;&gt;Node23</title>
<path fill="none" stroke="midnightblue" d="M1008,-392.25C1008,-381.02 1008,-368.38 1008,-360.19"/>
<polygon fill="midnightblue" stroke="midnightblue" points="1004.5,-392.4 1008,-402.4 1011.5,-392.4 1004.5,-392.4"/>
</g>
<!-- Node24 -->
<g id="node24" class="node">
<title>Node24</title>
<g id="a_node24"><a xlink:href="d__bg__w_8h.html" target="_top" xlink:title=" ">
<polygon fill="white" stroke="black" points="811.5,-341 811.5,-360 924.5,-360 924.5,-341 811.5,-341"/>
<text text-anchor="middle" x="868" y="-348" font-family="Helvetica,sans-Serif" font-size="10.00">include/d/bg/d_bg_w.h</text>
</a>
</g>
</g>
<!-- Node22&#45;&gt;Node24 -->
<g id="edge27" class="edge">
<title>Node22&#45;&gt;Node24</title>
<path fill="none" stroke="midnightblue" d="M968.44,-398.13C941.49,-385.62 907.07,-369.64 886.32,-360.01"/>
<polygon fill="midnightblue" stroke="midnightblue" points="967.08,-401.36 977.62,-402.4 970.03,-395.01 967.08,-401.36"/>
</g>
<!-- Node28 -->
<g id="node28" class="node">
<title>Node28</title>
<g id="a_node28"><a xlink:href="d__bomb_8h.html" target="_top" xlink:title=" ">
<polygon fill="white" stroke="black" points="1212.5,-341 1212.5,-360 1313.5,-360 1313.5,-341 1212.5,-341"/>
<text text-anchor="middle" x="1263" y="-348" font-family="Helvetica,sans-Serif" font-size="10.00">include/d/d_bomb.h</text>
</a>
</g>
</g>
<!-- Node22&#45;&gt;Node28 -->
<g id="edge33" class="edge">
<title>Node22&#45;&gt;Node28</title>
<path fill="none" stroke="midnightblue" d="M1070,-400.7C1120.23,-387.89 1189.08,-370.34 1229.52,-360.03"/>
<polygon fill="midnightblue" stroke="midnightblue" points="1069.04,-397.33 1060.22,-403.19 1070.77,-404.11 1069.04,-397.33"/>
</g>
<!-- Node30 -->
<g id="node30" class="node">
<title>Node30</title>
<g id="a_node30"><a xlink:href="d__particle__copoly_8h.html" target="_top" xlink:title=" ">
<polygon fill="white" stroke="black" points="1092,-335.5 1092,-365.5 1194,-365.5 1194,-335.5 1092,-335.5"/>
<text text-anchor="start" x="1100" y="-353.5" font-family="Helvetica,sans-Serif" font-size="10.00">include/d/particle</text>
<text text-anchor="middle" x="1143" y="-342.5" font-family="Helvetica,sans-Serif" font-size="10.00">/d_particle_copoly.h</text>
</a>
</g>
</g>
<!-- Node22&#45;&gt;Node30 -->
<g id="edge35" class="edge">
<title>Node22&#45;&gt;Node30</title>
<path fill="none" stroke="midnightblue" d="M1046.44,-397.99C1067.84,-387.69 1094.05,-375.07 1113.76,-365.58"/>
<polygon fill="midnightblue" stroke="midnightblue" points="1044.78,-394.9 1037.29,-402.4 1047.82,-401.21 1044.78,-394.9"/>
</g>
<!-- Node25 -->
<g id="node25" class="node">
<title>Node25</title>
<g id="a_node25"><a xlink:href="d__bg__w_8cpp.html" target="_top" xlink:title=" ">
<polygon fill="white" stroke="black" points="894.5,-274 894.5,-293 1001.5,-293 1001.5,-274 894.5,-274"/>
<text text-anchor="middle" x="948" y="-281" font-family="Helvetica,sans-Serif" font-size="10.00">src/d/bg/d_bg_w.cpp</text>
</a>
</g>
</g>
<!-- Node24&#45;&gt;Node25 -->
<g id="edge28" class="edge">
<title>Node24&#45;&gt;Node25</title>
<path fill="none" stroke="midnightblue" d="M886.81,-334.21C902.58,-321.41 924.51,-303.59 937.38,-293.13"/>
<polygon fill="midnightblue" stroke="midnightblue" points="884.34,-331.71 878.79,-340.73 888.76,-337.14 884.34,-331.71"/>
</g>
<!-- Node26 -->
<g id="node26" class="node">
<title>Node26</title>
<g id="a_node26"><a xlink:href="d__bg__s_8h.html" target="_top" xlink:title=" ">
<polygon fill="white" stroke="black" points="726.5,-274 726.5,-293 837.5,-293 837.5,-274 726.5,-274"/>
<text text-anchor="middle" x="782" y="-281" font-family="Helvetica,sans-Serif" font-size="10.00">include/d/bg/d_bg_s.h</text>
</a>
</g>
</g>
<!-- Node24&#45;&gt;Node26 -->
<g id="edge29" class="edge">
<title>Node24&#45;&gt;Node26</title>
<path fill="none" stroke="midnightblue" d="M848.24,-334.57C831.27,-321.74 807.38,-303.69 793.41,-293.13"/>
<polygon fill="midnightblue" stroke="midnightblue" points="846.31,-337.5 856.4,-340.73 850.53,-331.91 846.31,-337.5"/>
</g>
<!-- Node26&#45;&gt;Node5 -->
<g id="edge31" class="edge">
<title>Node26&#45;&gt;Node5</title>
<path fill="none" stroke="midnightblue" d="M813.66,-270.1C846.62,-257.2 897.36,-237.33 926.13,-226.06"/>
<polygon fill="midnightblue" stroke="midnightblue" points="812.08,-266.96 804.04,-273.87 814.63,-273.48 812.08,-266.96"/>
</g>
<!-- Node26&#45;&gt;Node7 -->
<g id="edge32" class="edge">
<title>Node26&#45;&gt;Node7</title>
<path fill="none" stroke="midnightblue" d="M805.69,-268.38C818.59,-259.5 833.77,-246.91 843,-232 856.07,-210.87 860.16,-181.61 861.43,-164.5"/>
<polygon fill="midnightblue" stroke="midnightblue" points="803.67,-265.52 797.22,-273.92 807.5,-271.38 803.67,-265.52"/>
</g>
<!-- Node27 -->
<g id="node27" class="node">
<title>Node27</title>
<g id="a_node27"><a xlink:href="d__bg__s_8cpp.html" target="_top" xlink:title=" ">
<polygon fill="white" stroke="black" points="730,-207 730,-226 834,-226 834,-207 730,-207"/>
<text text-anchor="middle" x="782" y="-214" font-family="Helvetica,sans-Serif" font-size="10.00">src/d/bg/d_bg_s.cpp</text>
</a>
</g>
</g>
<!-- Node26&#45;&gt;Node27 -->
<g id="edge30" class="edge">
<title>Node26&#45;&gt;Node27</title>
<path fill="none" stroke="midnightblue" d="M782,-263.54C782,-251.17 782,-235.62 782,-226.13"/>
<polygon fill="midnightblue" stroke="midnightblue" points="778.5,-263.73 782,-273.73 785.5,-263.73 778.5,-263.73"/>
</g>
<!-- Node29 -->
<g id="node29" class="node">
<title>Node29</title>
<g id="a_node29"><a xlink:href="d__bomb_8cpp.html" target="_top" xlink:title=" ">
<polygon fill="white" stroke="black" points="1216,-274 1216,-293 1310,-293 1310,-274 1216,-274"/>
<text text-anchor="middle" x="1263" y="-281" font-family="Helvetica,sans-Serif" font-size="10.00">src/d/d_bomb.cpp</text>
</a>
</g>
</g>
<!-- Node28&#45;&gt;Node29 -->
<g id="edge34" class="edge">
<title>Node28&#45;&gt;Node29</title>
<path fill="none" stroke="midnightblue" d="M1263,-330.54C1263,-318.17 1263,-302.62 1263,-293.13"/>
<polygon fill="midnightblue" stroke="midnightblue" points="1259.5,-330.73 1263,-340.73 1266.5,-330.73 1259.5,-330.73"/>
</g>
<!-- Node30&#45;&gt;Node5 -->
<g id="edge37" class="edge">
<title>Node30&#45;&gt;Node5</title>
<path fill="none" stroke="midnightblue" d="M1151.76,-325.82C1156.67,-308.08 1159.58,-284.17 1147,-268 1129.76,-245.84 1058.41,-231.84 1006.06,-224.34"/>
<polygon fill="midnightblue" stroke="midnightblue" points="1148.39,-324.86 1148.73,-335.45 1155.07,-326.96 1148.39,-324.86"/>
</g>
<!-- Node31 -->
<g id="node31" class="node">
<title>Node31</title>
<g id="a_node31"><a xlink:href="d__particle__copoly_8cpp.html" target="_top" xlink:title=" ">
<polygon fill="white" stroke="black" points="1020,-268.5 1020,-298.5 1138,-298.5 1138,-268.5 1020,-268.5"/>
<text text-anchor="start" x="1028" y="-286.5" font-family="Helvetica,sans-Serif" font-size="10.00">src/d/particle/d_particle</text>
<text text-anchor="middle" x="1079" y="-275.5" font-family="Helvetica,sans-Serif" font-size="10.00">_copoly.cpp</text>
</a>
</g>
</g>
<!-- Node30&#45;&gt;Node31 -->
<g id="edge36" class="edge">
<title>Node30&#45;&gt;Node31</title>
<path fill="none" stroke="midnightblue" d="M1121.85,-328.02C1112.32,-318.34 1101.33,-307.17 1092.86,-298.58"/>
<polygon fill="midnightblue" stroke="midnightblue" points="1119.6,-330.73 1129.11,-335.4 1124.59,-325.81 1119.6,-330.73"/>
</g>
<!-- Node32&#45;&gt;Node5 -->
<g id="edge40" class="edge">
<title>Node32&#45;&gt;Node5</title>
<path fill="none" stroke="midnightblue" d="M699.54,-271.83C705.42,-270.54 711.35,-269.24 717,-268 784.37,-253.24 862.8,-236.1 908.76,-226.07"/>
<polygon fill="midnightblue" stroke="midnightblue" points="698.75,-268.42 689.74,-273.98 700.25,-275.26 698.75,-268.42"/>
</g>
<!-- Node32&#45;&gt;Node7 -->
<g id="edge41" class="edge">
<title>Node32&#45;&gt;Node7</title>
<path fill="none" stroke="midnightblue" d="M661.97,-265.04C674.29,-246.73 695.87,-218.28 721,-201 746.71,-183.32 779.3,-171.12 806.67,-163.14"/>
<polygon fill="midnightblue" stroke="midnightblue" points="658.94,-263.28 656.41,-273.57 664.8,-267.11 658.94,-263.28"/>
</g>
<!-- Node33 -->
<g id="node33" class="node">
<title>Node33</title>
<g id="a_node33"><a xlink:href="d__attention_8cpp.html" target="_top" xlink:title=" ">
<polygon fill="white" stroke="black" points="566.5,-207 566.5,-226 673.5,-226 673.5,-207 566.5,-207"/>
<text text-anchor="middle" x="620" y="-214" font-family="Helvetica,sans-Serif" font-size="10.00">src/d/d_attention.cpp</text>
</a>
</g>
</g>
<!-- Node32&#45;&gt;Node33 -->
<g id="edge39" class="edge">
<title>Node32&#45;&gt;Node33</title>
<path fill="none" stroke="midnightblue" d="M642.49,-264.66C636.51,-252.13 628.78,-235.91 624.11,-226.13"/>
<polygon fill="midnightblue" stroke="midnightblue" points="639.36,-266.21 646.82,-273.73 645.67,-263.2 639.36,-266.21"/>
</g>
<!-- Node34&#45;&gt;Node7 -->
<g id="edge44" class="edge">
<title>Node34&#45;&gt;Node7</title>
<path fill="none" stroke="midnightblue" d="M535.9,-204.98C542.99,-203.6 550.17,-202.24 557,-201 644.13,-185.14 745.65,-168.74 806.81,-159.09"/>
<polygon fill="midnightblue" stroke="midnightblue" points="534.79,-201.63 525.65,-206.99 536.13,-208.5 534.79,-201.63"/>
</g>
<!-- Node34&#45;&gt;Node10 -->
<g id="edge43" class="edge">
<title>Node34&#45;&gt;Node10</title>
<path fill="none" stroke="midnightblue" d="M464.53,-200.47C428.49,-172.65 352.47,-113.97 324.04,-92.02"/>
<polygon fill="midnightblue" stroke="midnightblue" points="462.73,-203.5 472.78,-206.84 467,-197.96 462.73,-203.5"/>
</g>
<!-- Node35&#45;&gt;Node5 -->
<g id="edge51" class="edge">
<title>Node35&#45;&gt;Node5</title>
<path fill="none" stroke="midnightblue" d="M1686.06,-276.58C1526.12,-263.78 1150.78,-233.73 1006.2,-222.16"/>
<polygon fill="midnightblue" stroke="midnightblue" points="1686.04,-280.09 1696.28,-277.4 1686.59,-273.11 1686.04,-280.09"/>
</g>
<!-- Node35&#45;&gt;Node8 -->
<g id="edge47" class="edge">
<title>Node35&#45;&gt;Node8</title>
<path fill="none" stroke="midnightblue" d="M1746.14,-259.09C1729.36,-227.36 1706.66,-170.49 1735,-134 1774.68,-82.92 1836.32,-149.08 1876,-98 1884.45,-87.12 1885.18,-77.28 1876,-67 1850.3,-38.23 1597.56,-23.75 1484.35,-18.67"/>
<polygon fill="midnightblue" stroke="midnightblue" points="1743.2,-261.01 1751.09,-268.08 1749.33,-257.63 1743.2,-261.01"/>
</g>
<!-- Node35&#45;&gt;Node13 -->
<g id="edge49" class="edge">
<title>Node35&#45;&gt;Node13</title>
<path fill="none" stroke="midnightblue" d="M1729.17,-262.34C1718.96,-254.13 1708.55,-243.79 1702,-232 1677.39,-187.72 1676.29,-125.27 1677.21,-97.62"/>
<polygon fill="midnightblue" stroke="midnightblue" points="1727.14,-265.2 1737.23,-268.45 1731.37,-259.62 1727.14,-265.2"/>
</g>
<!-- Node35&#45;&gt;Node15 -->
<g id="edge50" class="edge">
<title>Node35&#45;&gt;Node15</title>
<path fill="none" stroke="midnightblue" d="M1817.88,-264.71C1836.95,-256.86 1857.27,-246.13 1873,-232 1898.63,-208.97 1903.02,-198.27 1912,-165 1915.59,-151.7 1919.29,-145.69 1912,-134 1898.2,-111.86 1871.55,-99.16 1848.82,-92.03"/>
<polygon fill="midnightblue" stroke="midnightblue" points="1816.38,-261.54 1808.35,-268.45 1818.94,-268.05 1816.38,-261.54"/>
</g>
<!-- Node35&#45;&gt;Node19 -->
<g id="edge48" class="edge">
<title>Node35&#45;&gt;Node19</title>
<path fill="none" stroke="midnightblue" d="M1833.2,-268.48C1856.84,-260.95 1881.66,-249.45 1900,-232 1932.82,-200.77 1934.24,-178.87 1928,-134 1923.74,-103.34 1930.39,-89.37 1909,-67 1880.94,-37.66 1835.44,-25.36 1801.53,-20.21"/>
<polygon fill="midnightblue" stroke="midnightblue" points="1832.09,-265.16 1823.51,-271.38 1834.09,-271.87 1832.09,-265.16"/>
</g>
<!-- Node36 -->
<g id="node36" class="node">
<title>Node36</title>
<g id="a_node36"><a xlink:href="d__menu__window_8h.html" target="_top" xlink:title=" ">
<polygon fill="white" stroke="black" points="1744,-201.5 1744,-231.5 1864,-231.5 1864,-201.5 1744,-201.5"/>
<text text-anchor="start" x="1752" y="-219.5" font-family="Helvetica,sans-Serif" font-size="10.00">include/d/menu/d_menu</text>
<text text-anchor="middle" x="1804" y="-208.5" font-family="Helvetica,sans-Serif" font-size="10.00">_window.h</text>
</a>
</g>
</g>
<!-- Node35&#45;&gt;Node36 -->
<g id="edge52" class="edge">
<title>Node35&#45;&gt;Node36</title>
<path fill="none" stroke="midnightblue" d="M1769.04,-259.58C1774.82,-250.24 1782.19,-239.75 1788.8,-231.58"/>
<polygon fill="midnightblue" stroke="midnightblue" points="1765.9,-258 1763.87,-268.4 1771.94,-261.54 1765.9,-258"/>
</g>
<!-- Node36&#45;&gt;Node35 -->
<g id="edge54" class="edge">
<title>Node36&#45;&gt;Node35</title>
<path fill="none" stroke="midnightblue" d="M1794.98,-240.39C1789.2,-249.73 1781.83,-260.22 1775.23,-268.4"/>
<polygon fill="midnightblue" stroke="midnightblue" points="1798.11,-241.97 1800.15,-231.58 1792.07,-238.44 1798.11,-241.97"/>
</g>
<!-- Node37 -->
<g id="node37" class="node">
<title>Node37</title>
<g id="a_node37"><a xlink:href="d__menu__window_8cpp.html" target="_top" xlink:title=" ">
<polygon fill="white" stroke="black" points="1743.5,-140 1743.5,-159 1902.5,-159 1902.5,-140 1743.5,-140"/>
<text text-anchor="middle" x="1823" y="-147" font-family="Helvetica,sans-Serif" font-size="10.00">src/d/menu/d_menu_window.cpp</text>
</a>
</g>
</g>
<!-- Node36&#45;&gt;Node37 -->
<g id="edge53" class="edge">
<title>Node36&#45;&gt;Node37</title>
<path fill="none" stroke="midnightblue" d="M1810.99,-191.6C1814.3,-180.28 1818.04,-167.46 1820.46,-159.19"/>
<polygon fill="midnightblue" stroke="midnightblue" points="1807.57,-190.82 1808.12,-201.4 1814.29,-192.78 1807.57,-190.82"/>
</g>
</g>
</svg>
        <g id="navigator" transform="translate(0 0)" fill="#404254">
                <rect fill="#f2f5e9" fill-opacity="0.5" stroke="#606060" stroke-width=".5" x="0" y="0" width="60" height="60"/>
                <use id="zoomplus" xlink:href="#zoomPlus" x="17" y="9" onmousedown="handleZoom(evt,'in')"/>
                <use id="zoomminus" xlink:href="#zoomMin" x="42" y="9" onmousedown="handleZoom(evt,'out')"/>
                <use id="reset" xlink:href="#resetDef" x="30" y="36" onmousedown="handleReset()"/>
                <g id="arrowUp" xlink:href="#dirArrow" transform="translate(30 24)" onmousedown="handlePan(0,-1)">
                  <use xlink:href="#rim" fill="#404040">
                        <set attributeName="fill" to="#808080" begin="arrowUp.mouseover" end="arrowUp.mouseout"/>
                  </use>
                  <path fill="none" stroke="white" stroke-width="1.5" d="M0,-3.0v7 M-2.5,-0.5L0,-3.0L2.5,-0.5"/>
                </g>
                <g id="arrowRight" xlink:href="#dirArrow" transform="rotate(90) translate(36 -43)" onmousedown="handlePan(1,0)">
                  <use xlink:href="#rim" fill="#404040">
                        <set attributeName="fill" to="#808080" begin="arrowRight.mouseover" end="arrowRight.mouseout"/>
                  </use>
                  <path fill="none" stroke="white" stroke-width="1.5" d="M0,-3.0v7 M-2.5,-0.5L0,-3.0L2.5,-0.5"/>
                </g>
                <g id="arrowDown" xlink:href="#dirArrow" transform="rotate(180) translate(-30 -48)" onmousedown="handlePan(0,1)">
                  <use xlink:href="#rim" fill="#404040">
                        <set attributeName="fill" to="#808080" begin="arrowDown.mouseover" end="arrowDown.mouseout"/>
                  </use>
                  <path fill="none" stroke="white" stroke-width="1.5" d="M0,-3.0v7 M-2.5,-0.5L0,-3.0L2.5,-0.5"/>
                </g>
                <g id="arrowLeft" xlink:href="#dirArrow" transform="rotate(270) translate(-36 17)" onmousedown="handlePan(-1,0)">
                  <use xlink:href="#rim" fill="#404040">
                        <set attributeName="fill" to="#808080" begin="arrowLeft.mouseover" end="arrowLeft.mouseout"/>
                  </use>
                  <path fill="none" stroke="white" stroke-width="1.5" d="M0,-3.0v7 M-2.5,-0.5L0,-3.0L2.5,-0.5"/>
                </g>
        </g>
        <svg viewBox="0 0 15 15" width="100%" height="30px" preserveAspectRatio="xMaxYMin meet">
         <g id="arrow_out" transform="scale(0.3 0.3)">
          <a xlink:href="d__resorce_8h__dep__incl_org.svg" target="_base">
           <rect id="button" ry="5" rx="5" y="6" x="6" height="38" width="38"
                fill="#f2f5e9" fill-opacity="0.5" stroke="#606060" stroke-width="1.0"/>
           <path id="arrow"
             d="M 11.500037,31.436501 C 11.940474,20.09759 22.043105,11.32322 32.158766,21.979434 L 37.068811,17.246167 C 37.068811,17.246167 37.088388,32 37.088388,32 L 22.160133,31.978069 C 22.160133,31.978069 26.997745,27.140456 26.997745,27.140456 C 18.528582,18.264221 13.291696,25.230495 11.500037,31.436501 z"
             style="fill:#404040;"/>
          </a>
         </g>
        </svg>
</svg>
