<?xml version="1.0" encoding="UTF-8" standalone="no"?>
<!DOCTYPE svg PUBLIC "-//W3C//DTD SVG 1.1//EN"
 "http://www.w3.org/Graphics/SVG/1.1/DTD/svg11.dtd">
<!-- Generated by graphviz version 7.0.5 (20221223.1930)
 -->
<!-- Title: src/d/s/d_s_room.cpp Pages: 1 -->
<svg width="3502pt" height="280pt"
 viewBox="0.00 0.00 3501.50 280.00" xmlns="http://www.w3.org/2000/svg" xmlns:xlink="http://www.w3.org/1999/xlink">
<g id="graph0" class="graph" transform="scale(1 1) rotate(0) translate(4 276)">
<title>src/d/s/d_s_room.cpp</title>
<!-- Node1 -->
<g id="node1" class="node">
<title>Node1</title>
<g id="a_node1"><a xlink:title=" ">
<polygon fill="#999999" stroke="#666666" points="2400,-272 2290,-272 2290,-253 2400,-253 2400,-272"/>
<text text-anchor="middle" x="2345" y="-260" font-family="Helvetica,sans-Serif" font-size="10.00">src/d/s/d_s_room.cpp</text>
</a>
</g>
</g>
<!-- Node2 -->
<g id="node2" class="node">
<title>Node2</title>
<g id="a_node2"><a xlink:href="d__s__room_8h.html" target="_top" xlink:title=" ">
<polygon fill="white" stroke="#666666" points="1371.5,-206 1288.5,-206 1288.5,-187 1371.5,-187 1371.5,-206"/>
<text text-anchor="middle" x="1330" y="-194" font-family="Helvetica,sans-Serif" font-size="10.00">d/s/d_s_room.h</text>
</a>
</g>
</g>
<!-- Node1&#45;&gt;Node2 -->
<g id="edge1" class="edge">
<title>Node1&#45;&gt;Node2</title>
<path fill="none" stroke="#63b8ff" d="M2289.78,-261.31C2111.94,-260.31 1555.55,-254.23 1380,-217 1372.94,-215.5 1365.58,-213.13 1358.74,-210.54"/>
<polygon fill="#63b8ff" stroke="#63b8ff" points="1360.53,-207.49 1349.95,-206.97 1357.9,-213.98 1360.53,-207.49"/>
</g>
<!-- Node3 -->
<g id="node3" class="node">
<title>Node3</title>
<g id="a_node3"><a xlink:href="JKRExpHeap_8h.html" target="_top" xlink:title=" ">
<polygon fill="white" stroke="#666666" points="1548.5,-206 1389.5,-206 1389.5,-187 1548.5,-187 1548.5,-206"/>
<text text-anchor="middle" x="1469" y="-194" font-family="Helvetica,sans-Serif" font-size="10.00">JSystem/JKernel/JKRExpHeap.h</text>
</a>
</g>
</g>
<!-- Node1&#45;&gt;Node3 -->
<g id="edge2" class="edge">
<title>Node1&#45;&gt;Node3</title>
<path fill="none" stroke="#63b8ff" d="M2289.75,-261.15C2161.52,-259.74 1834,-252.62 1563,-217 1547.86,-215.01 1531.51,-211.95 1516.76,-208.83"/>
<polygon fill="#63b8ff" stroke="#63b8ff" points="1517.84,-205.48 1507.32,-206.78 1516.35,-212.32 1517.84,-205.48"/>
</g>
<!-- Node12 -->
<g id="node6" class="node">
<title>Node12</title>
<g id="a_node6"><a xlink:href="stdio_8h.html" target="_top" xlink:title=" ">
<polygon fill="white" stroke="#666666" points="1650.5,-206 1605.5,-206 1605.5,-187 1650.5,-187 1650.5,-206"/>
<text text-anchor="middle" x="1628" y="-194" font-family="Helvetica,sans-Serif" font-size="10.00">stdio.h</text>
</a>
</g>
</g>
<!-- Node1&#45;&gt;Node12 -->
<g id="edge5" class="edge">
<title>Node1&#45;&gt;Node12</title>
<path fill="none" stroke="#63b8ff" d="M2289.9,-259.39C2182.95,-254.86 1939.93,-242.51 1737,-217 1711.73,-213.82 1683.43,-208.71 1662,-204.52"/>
<polygon fill="#63b8ff" stroke="#63b8ff" points="1662.84,-201.12 1652.34,-202.6 1661.47,-207.98 1662.84,-201.12"/>
</g>
<!-- Node19 -->
<g id="node12" class="node">
<title>Node19</title>
<g id="a_node12"><a xlink:href="d__com__inf__game_8h.html" target="_top" xlink:title=" ">
<polygon fill="white" stroke="#666666" points="2109,-206 1981,-206 1981,-187 2109,-187 2109,-206"/>
<text text-anchor="middle" x="2045" y="-194" font-family="Helvetica,sans-Serif" font-size="10.00">d/com/d_com_inf_game.h</text>
</a>
</g>
</g>
<!-- Node1&#45;&gt;Node19 -->
<g id="edge11" class="edge">
<title>Node1&#45;&gt;Node19</title>
<path fill="none" stroke="#63b8ff" d="M2294.3,-252.57C2248.16,-244.21 2178.26,-230.94 2118,-217 2108.06,-214.7 2097.43,-212 2087.44,-209.35"/>
<polygon fill="#63b8ff" stroke="#63b8ff" points="2088.53,-206.02 2077.97,-206.81 2086.71,-212.78 2088.53,-206.02"/>
</g>
<!-- Node224 -->
<g id="node24" class="node">
<title>Node224</title>
<g id="a_node24"><a xlink:href="d__procname_8h.html" target="_top" xlink:title=" ">
<polygon fill="white" stroke="#666666" points="2449,-206 2363,-206 2363,-187 2449,-187 2449,-206"/>
<text text-anchor="middle" x="2406" y="-194" font-family="Helvetica,sans-Serif" font-size="10.00">d/d_procname.h</text>
</a>
</g>
</g>
<!-- Node1&#45;&gt;Node224 -->
<g id="edge27" class="edge">
<title>Node1&#45;&gt;Node224</title>
<path fill="none" stroke="#63b8ff" d="M2353.48,-252.6C2362.86,-242.76 2378.18,-226.68 2389.87,-214.43"/>
<polygon fill="#63b8ff" stroke="#63b8ff" points="2392.18,-217.07 2396.55,-207.42 2387.11,-212.24 2392.18,-217.07"/>
</g>
<!-- Node225 -->
<g id="node25" class="node">
<title>Node225</title>
<g id="a_node25"><a xlink:href="d__s__play_8h.html" target="_top" xlink:title=" ">
<polygon fill="white" stroke="#666666" points="2206.5,-206 2127.5,-206 2127.5,-187 2206.5,-187 2206.5,-206"/>
<text text-anchor="middle" x="2167" y="-194" font-family="Helvetica,sans-Serif" font-size="10.00">d/s/d_s_play.h</text>
</a>
</g>
</g>
<!-- Node1&#45;&gt;Node225 -->
<g id="edge28" class="edge">
<title>Node1&#45;&gt;Node225</title>
<path fill="none" stroke="#63b8ff" d="M2318.19,-252.66C2292.01,-243.92 2251.09,-230.03 2216,-217 2210.56,-214.98 2204.81,-212.77 2199.24,-210.58"/>
<polygon fill="#63b8ff" stroke="#63b8ff" points="2200.86,-207.46 2190.28,-207.01 2198.28,-213.96 2200.86,-207.46"/>
</g>
<!-- Node228 -->
<g id="node27" class="node">
<title>Node228</title>
<g id="a_node27"><a xlink:href="dol2asm_8h.html" target="_top" xlink:title=" ">
<polygon fill="white" stroke="#666666" points="2528.5,-206 2467.5,-206 2467.5,-187 2528.5,-187 2528.5,-206"/>
<text text-anchor="middle" x="2498" y="-194" font-family="Helvetica,sans-Serif" font-size="10.00">dol2asm.h</text>
</a>
</g>
</g>
<!-- Node1&#45;&gt;Node228 -->
<g id="edge31" class="edge">
<title>Node1&#45;&gt;Node228</title>
<path fill="none" stroke="#63b8ff" d="M2369.03,-252.66C2392.06,-244.05 2427.7,-230.33 2458,-217 2462.1,-215.2 2466.39,-213.21 2470.58,-211.22"/>
<polygon fill="#63b8ff" stroke="#63b8ff" points="2471.79,-214.52 2479.25,-207 2468.73,-208.23 2471.79,-214.52"/>
</g>
<!-- Node94 -->
<g id="node28" class="node">
<title>Node94</title>
<g id="a_node28"><a xlink:href="OS_8h.html" target="_top" xlink:title=" ">
<polygon fill="#fff0f0" stroke="red" points="1115,-140 1029,-140 1029,-121 1115,-121 1115,-140"/>
<text text-anchor="middle" x="1072" y="-128" font-family="Helvetica,sans-Serif" font-size="10.00">dolphin/os/OS.h</text>
</a>
</g>
</g>
<!-- Node1&#45;&gt;Node94 -->
<g id="edge32" class="edge">
<title>Node1&#45;&gt;Node94</title>
<path fill="none" stroke="#63b8ff" d="M2289.77,-260.55C2127.29,-257.42 1658.36,-245.97 1596,-217 1573.19,-206.4 1579.64,-186.96 1557,-176 1482.3,-139.83 1236.99,-132.97 1126.63,-131.73"/>
<polygon fill="#63b8ff" stroke="#63b8ff" points="1126.99,-128.23 1116.95,-131.63 1126.92,-135.23 1126.99,-128.23"/>
</g>
<!-- Node229 -->
<g id="node43" class="node">
<title>Node229</title>
<g id="a_node43"><a xlink:href="f__op__actor__mng_8h.html" target="_top" xlink:title=" ">
<polygon fill="#fff0f0" stroke="red" points="1862,-206 1746,-206 1746,-187 1862,-187 1862,-206"/>
<text text-anchor="middle" x="1804" y="-194" font-family="Helvetica,sans-Serif" font-size="10.00">f_op/f_op_actor_mng.h</text>
</a>
</g>
</g>
<!-- Node1&#45;&gt;Node229 -->
<g id="edge51" class="edge">
<title>Node1&#45;&gt;Node229</title>
<path fill="none" stroke="#63b8ff" d="M2289.65,-254.95C2190.29,-243.2 1981.95,-218.55 1873.28,-205.7"/>
<polygon fill="#63b8ff" stroke="#63b8ff" points="1873.98,-202.25 1863.63,-204.55 1873.15,-209.21 1873.98,-202.25"/>
</g>
<!-- Node240 -->
<g id="node44" class="node">
<title>Node240</title>
<g id="a_node44"><a xlink:href="f__op__scene__mng_8h.html" target="_top" xlink:title=" ">
<polygon fill="#fff0f0" stroke="red" points="2345,-206 2225,-206 2225,-187 2345,-187 2345,-206"/>
<text text-anchor="middle" x="2285" y="-194" font-family="Helvetica,sans-Serif" font-size="10.00">f_op/f_op_scene_mng.h</text>
</a>
</g>
</g>
<!-- Node1&#45;&gt;Node240 -->
<g id="edge53" class="edge">
<title>Node1&#45;&gt;Node240</title>
<path fill="none" stroke="#63b8ff" d="M2336.66,-252.6C2327.43,-242.76 2312.36,-226.68 2300.87,-214.43"/>
<polygon fill="#63b8ff" stroke="#63b8ff" points="2303.7,-212.33 2294.31,-207.43 2298.59,-217.12 2303.7,-212.33"/>
</g>
<!-- Node241 -->
<g id="node45" class="node">
<title>Node241</title>
<g id="a_node45"><a xlink:href="m__Do__Reset_8h.html" target="_top" xlink:title=" ">
<polygon fill="#fff0f0" stroke="red" points="2655.5,-206 2546.5,-206 2546.5,-187 2655.5,-187 2655.5,-206"/>
<text text-anchor="middle" x="2601" y="-194" font-family="Helvetica,sans-Serif" font-size="10.00">m_Do/m_Do_Reset.h</text>
</a>
</g>
</g>
<!-- Node1&#45;&gt;Node241 -->
<g id="edge55" class="edge">
<title>Node1&#45;&gt;Node241</title>
<path fill="none" stroke="#63b8ff" d="M2388.15,-252.5C2427.41,-244.09 2486.87,-230.79 2538,-217 2546.06,-214.83 2554.63,-212.31 2562.78,-209.82"/>
<polygon fill="#63b8ff" stroke="#63b8ff" points="2563.57,-213.24 2572.08,-206.93 2561.49,-206.56 2563.57,-213.24"/>
</g>
<!-- Node242 -->
<g id="node46" class="node">
<title>Node242</title>
<g id="a_node46"><a xlink:title=" ">
<polygon fill="#e0e0e0" stroke="#999999" points="2814,-211.5 2674,-211.5 2674,-181.5 2814,-181.5 2814,-211.5"/>
<text text-anchor="start" x="2682" y="-199.5" font-family="Helvetica,sans-Serif" font-size="10.00">asm/d/s/d_s_room/getReset</text>
<text text-anchor="middle" x="2744" y="-188.5" font-family="Helvetica,sans-Serif" font-size="10.00">ArchiveBank__FiPPCUc.s</text>
</a>
</g>
</g>
<!-- Node1&#45;&gt;Node242 -->
<g id="edge56" class="edge">
<title>Node1&#45;&gt;Node242</title>
<path fill="none" stroke="#63b8ff" d="M2400.5,-255.55C2464.54,-248.28 2572.88,-234.73 2665,-217 2669.05,-216.22 2673.21,-215.36 2677.4,-214.46"/>
<polygon fill="#63b8ff" stroke="#63b8ff" points="2678.02,-217.91 2687.01,-212.3 2676.48,-211.08 2678.02,-217.91"/>
</g>
<!-- Node243 -->
<g id="node47" class="node">
<title>Node243</title>
<g id="a_node47"><a xlink:title=" ">
<polygon fill="#e0e0e0" stroke="#999999" points="2979.5,-211.5 2832.5,-211.5 2832.5,-181.5 2979.5,-181.5 2979.5,-211.5"/>
<text text-anchor="start" x="2840.5" y="-199.5" font-family="Helvetica,sans-Serif" font-size="10.00">asm/d/s/d_s_room/setArchive</text>
<text text-anchor="middle" x="2906" y="-188.5" font-family="Helvetica,sans-Serif" font-size="10.00">Bank__Fi.s</text>
</a>
</g>
</g>
<!-- Node1&#45;&gt;Node243 -->
<g id="edge57" class="edge">
<title>Node1&#45;&gt;Node243</title>
<path fill="none" stroke="#63b8ff" d="M2400.15,-258.84C2489.46,-253.98 2671.03,-241.8 2823,-217 2827.9,-216.2 2832.94,-215.28 2838,-214.27"/>
<polygon fill="#63b8ff" stroke="#63b8ff" points="2838.5,-217.74 2847.57,-212.28 2837.07,-210.89 2838.5,-217.74"/>
</g>
<!-- Node244 -->
<g id="node48" class="node">
<title>Node244</title>
<g id="a_node48"><a xlink:title=" ">
<polygon fill="#e0e0e0" stroke="#999999" points="3156,-211.5 2998,-211.5 2998,-181.5 3156,-181.5 3156,-211.5"/>
<text text-anchor="start" x="3006" y="-199.5" font-family="Helvetica,sans-Serif" font-size="10.00">asm/d/s/d_s_room/isCreating</text>
<text text-anchor="middle" x="3077" y="-188.5" font-family="Helvetica,sans-Serif" font-size="10.00">Callback__FP10create_tagPUi.s</text>
</a>
</g>
</g>
<!-- Node1&#45;&gt;Node244 -->
<g id="edge58" class="edge">
<title>Node1&#45;&gt;Node244</title>
<path fill="none" stroke="#63b8ff" d="M2400.43,-260.45C2512.26,-257.72 2772.71,-248.26 2989,-217 2994.66,-216.18 3000.5,-215.2 3006.35,-214.12"/>
<polygon fill="#63b8ff" stroke="#63b8ff" points="3006.95,-217.57 3016.09,-212.22 3005.61,-210.7 3006.95,-217.57"/>
</g>
<!-- Node245 -->
<g id="node49" class="node">
<title>Node245</title>
<g id="a_node49"><a xlink:title=" ">
<polygon fill="#e0e0e0" stroke="#999999" points="3318,-211.5 3174,-211.5 3174,-181.5 3318,-181.5 3318,-211.5"/>
<text text-anchor="start" x="3182" y="-199.5" font-family="Helvetica,sans-Serif" font-size="10.00">asm/d/s/d_s_room/loadDemo</text>
<text text-anchor="middle" x="3246" y="-188.5" font-family="Helvetica,sans-Serif" font-size="10.00">Archive__Fi.s</text>
</a>
</g>
</g>
<!-- Node1&#45;&gt;Node245 -->
<g id="edge59" class="edge">
<title>Node1&#45;&gt;Node245</title>
<path fill="none" stroke="#63b8ff" d="M2400.04,-261.96C2532.52,-262.31 2879.33,-258.78 3165,-217 3170.18,-216.24 3175.52,-215.31 3180.87,-214.26"/>
<polygon fill="#63b8ff" stroke="#63b8ff" points="3181.24,-217.76 3190.32,-212.29 3179.82,-210.91 3181.24,-217.76"/>
</g>
<!-- Node246 -->
<g id="node50" class="node">
<title>Node246</title>
<g id="a_node50"><a xlink:title=" ">
<polygon fill="#e0e0e0" stroke="#999999" points="3493.5,-217 3336.5,-217 3336.5,-176 3493.5,-176 3493.5,-217"/>
<text text-anchor="start" x="3344.5" y="-205" font-family="Helvetica,sans-Serif" font-size="10.00">asm/d/s/d_s_room/dScnRoom</text>
<text text-anchor="start" x="3344.5" y="-194" font-family="Helvetica,sans-Serif" font-size="10.00">_Execute__FP19room_of_scene</text>
<text text-anchor="middle" x="3415" y="-183" font-family="Helvetica,sans-Serif" font-size="10.00">_class.s</text>
</a>
</g>
</g>
<!-- Node1&#45;&gt;Node246 -->
<g id="edge60" class="edge">
<title>Node1&#45;&gt;Node246</title>
<path fill="none" stroke="#63b8ff" d="M2400.37,-260.25C2576.65,-256.08 3124.36,-241.57 3325.14,-217.05"/>
<polygon fill="#63b8ff" stroke="#63b8ff" points="3325.46,-220.54 3334.94,-215.81 3324.57,-213.6 3325.46,-220.54"/>
</g>
<!-- Node4 -->
<g id="node4" class="node">
<title>Node4</title>
<g id="a_node4"><a xlink:href="JKRHeap_8h.html" target="_top" xlink:title=" ">
<polygon fill="#fff0f0" stroke="red" points="569.5,-140 426.5,-140 426.5,-121 569.5,-121 569.5,-140"/>
<text text-anchor="middle" x="498" y="-128" font-family="Helvetica,sans-Serif" font-size="10.00">JSystem/JKernel/JKRHeap.h</text>
</a>
</g>
</g>
<!-- Node3&#45;&gt;Node4 -->
<g id="edge3" class="edge">
<title>Node3&#45;&gt;Node4</title>
<path fill="none" stroke="#63b8ff" d="M1434.58,-186.57C1418.17,-182.67 1398.19,-178.43 1380,-176 1088.31,-136.96 738.18,-131.45 581.24,-131.13"/>
<polygon fill="#63b8ff" stroke="#63b8ff" points="581.34,-127.63 571.33,-131.12 581.33,-134.63 581.34,-127.63"/>
</g>
<!-- Node9 -->
<g id="node5" class="node">
<title>Node9</title>
<g id="a_node5"><a xlink:href="OSMutex_8h.html" target="_top" xlink:title=" ">
<polygon fill="#fff0f0" stroke="red" points="112,-79.5 0,-79.5 0,-60.5 112,-60.5 112,-79.5"/>
<text text-anchor="middle" x="56" y="-67.5" font-family="Helvetica,sans-Serif" font-size="10.00">dolphin/os/OSMutex.h</text>
</a>
</g>
</g>
<!-- Node4&#45;&gt;Node9 -->
<g id="edge4" class="edge">
<title>Node4&#45;&gt;Node9</title>
<path fill="none" stroke="#63b8ff" d="M426.14,-123.06C350.07,-115.77 226.65,-102.57 121,-85 116.06,-84.18 110.93,-83.23 105.82,-82.23"/>
<polygon fill="#63b8ff" stroke="#63b8ff" points="106.7,-78.84 96.21,-80.27 105.31,-85.7 106.7,-78.84"/>
</g>
<!-- Node13 -->
<g id="node7" class="node">
<title>Node13</title>
<g id="a_node7"><a xlink:href="char__io_8h.html" target="_top" xlink:title=" ">
<polygon fill="#fff0f0" stroke="red" points="1698,-140 1642,-140 1642,-121 1698,-121 1698,-140"/>
<text text-anchor="middle" x="1670" y="-128" font-family="Helvetica,sans-Serif" font-size="10.00">char_io.h</text>
</a>
</g>
</g>
<!-- Node12&#45;&gt;Node13 -->
<g id="edge6" class="edge">
<title>Node12&#45;&gt;Node13</title>
<path fill="none" stroke="#63b8ff" d="M1633.84,-186.6C1640.05,-177.14 1650.03,-161.92 1657.94,-149.87"/>
<polygon fill="#63b8ff" stroke="#63b8ff" points="1660.82,-151.87 1663.38,-141.59 1654.97,-148.03 1660.82,-151.87"/>
</g>
<!-- Node15 -->
<g id="node8" class="node">
<title>Node15</title>
<g id="a_node8"><a xlink:href="file__io_8h.html" target="_top" xlink:title=" ">
<polygon fill="#fff0f0" stroke="red" points="1491.5,-140 1442.5,-140 1442.5,-121 1491.5,-121 1491.5,-140"/>
<text text-anchor="middle" x="1467" y="-128" font-family="Helvetica,sans-Serif" font-size="10.00">file_io.h</text>
</a>
</g>
</g>
<!-- Node12&#45;&gt;Node15 -->
<g id="edge7" class="edge">
<title>Node12&#45;&gt;Node15</title>
<path fill="none" stroke="#63b8ff" d="M1612.4,-186.65C1605.88,-183.12 1598.18,-179.16 1591,-176 1561.77,-163.13 1527.54,-151.06 1502.46,-142.75"/>
<polygon fill="#63b8ff" stroke="#63b8ff" points="1503.66,-139.46 1493.07,-139.68 1501.49,-146.11 1503.66,-139.46"/>
</g>
<!-- Node16 -->
<g id="node9" class="node">
<title>Node16</title>
<g id="a_node9"><a xlink:href="printf_8h.html" target="_top" xlink:title=" ">
<polygon fill="#fff0f0" stroke="red" points="1624,-140 1578,-140 1578,-121 1624,-121 1624,-140"/>
<text text-anchor="middle" x="1601" y="-128" font-family="Helvetica,sans-Serif" font-size="10.00">printf.h</text>
</a>
</g>
</g>
<!-- Node12&#45;&gt;Node16 -->
<g id="edge8" class="edge">
<title>Node12&#45;&gt;Node16</title>
<path fill="none" stroke="#63b8ff" d="M1624.25,-186.6C1620.34,-177.34 1614.09,-162.54 1609.06,-150.61"/>
<polygon fill="#63b8ff" stroke="#63b8ff" points="1612.42,-149.57 1605.31,-141.72 1605.97,-152.29 1612.42,-149.57"/>
</g>
<!-- Node18 -->
<g id="node11" class="node">
<title>Node18</title>
<g id="a_node11"><a xlink:href="extras_8h.html" target="_top" xlink:title=" ">
<polygon fill="white" stroke="#666666" points="1560,-140 1510,-140 1510,-121 1560,-121 1560,-140"/>
<text text-anchor="middle" x="1535" y="-128" font-family="Helvetica,sans-Serif" font-size="10.00">extras.h</text>
</a>
</g>
</g>
<!-- Node12&#45;&gt;Node18 -->
<g id="edge10" class="edge">
<title>Node12&#45;&gt;Node18</title>
<path fill="none" stroke="#63b8ff" d="M1615.07,-186.6C1600.15,-176.33 1575.35,-159.27 1557.3,-146.84"/>
<polygon fill="#63b8ff" stroke="#63b8ff" points="1559.29,-143.97 1549.07,-141.18 1555.32,-149.73 1559.29,-143.97"/>
</g>
<!-- Node17 -->
<g id="node10" class="node">
<title>Node17</title>
<g id="a_node10"><a xlink:href="____va__arg_8h.html" target="_top" xlink:title=" ">
<polygon fill="#fff0f0" stroke="red" points="1846,-79.5 1782,-79.5 1782,-60.5 1846,-60.5 1846,-79.5"/>
<text text-anchor="middle" x="1814" y="-67.5" font-family="Helvetica,sans-Serif" font-size="10.00">__va_arg.h</text>
</a>
</g>
</g>
<!-- Node16&#45;&gt;Node17 -->
<g id="edge9" class="edge">
<title>Node16&#45;&gt;Node17</title>
<path fill="none" stroke="#63b8ff" d="M1624.41,-123.26C1627.31,-122.5 1630.22,-121.73 1633,-121 1694.73,-104.81 1710.8,-103.1 1772,-85 1773.82,-84.46 1775.69,-83.89 1777.57,-83.31"/>
<polygon fill="#63b8ff" stroke="#63b8ff" points="1778.42,-86.71 1786.88,-80.33 1776.29,-80.05 1778.42,-86.71"/>
</g>
<!-- Node20 -->
<g id="node13" class="node">
<title>Node20</title>
<g id="a_node13"><a xlink:href="d__bg__s_8h.html" target="_top" xlink:title=" ">
<polygon fill="#fff0f0" stroke="red" points="1793.5,-140 1716.5,-140 1716.5,-121 1793.5,-121 1793.5,-140"/>
<text text-anchor="middle" x="1755" y="-128" font-family="Helvetica,sans-Serif" font-size="10.00">d/bg/d_bg_s.h</text>
</a>
</g>
</g>
<!-- Node19&#45;&gt;Node20 -->
<g id="edge12" class="edge">
<title>Node19&#45;&gt;Node20</title>
<path fill="none" stroke="#63b8ff" d="M2004.37,-186.53C1952.16,-175.01 1861.55,-155.01 1805.12,-142.56"/>
<polygon fill="#63b8ff" stroke="#63b8ff" points="1805.96,-139.16 1795.44,-140.43 1804.45,-146 1805.96,-139.16"/>
</g>
<!-- Node31 -->
<g id="node14" class="node">
<title>Node31</title>
<g id="a_node14"><a xlink:href="global_8h.html" target="_top" xlink:title=" ">
<polygon fill="#fff0f0" stroke="red" points="1914,-79.5 1864,-79.5 1864,-60.5 1914,-60.5 1914,-79.5"/>
<text text-anchor="middle" x="1889" y="-67.5" font-family="Helvetica,sans-Serif" font-size="10.00">global.h</text>
</a>
</g>
</g>
<!-- Node19&#45;&gt;Node31 -->
<g id="edge26" class="edge">
<title>Node19&#45;&gt;Node31</title>
<path fill="none" stroke="#63b8ff" d="M1980.52,-186.57C1927.36,-177.73 1858.02,-162.27 1841,-140 1827.34,-122.13 1847.53,-100.77 1865.76,-86.59"/>
<polygon fill="#63b8ff" stroke="#63b8ff" points="1867.7,-89.51 1873.7,-80.79 1863.56,-83.86 1867.7,-89.51"/>
</g>
<!-- Node32 -->
<g id="node15" class="node">
<title>Node32</title>
<g id="a_node15"><a xlink:href="d__cc__s_8h.html" target="_top" xlink:title=" ">
<polygon fill="#fff0f0" stroke="red" points="1927.5,-140 1850.5,-140 1850.5,-121 1927.5,-121 1927.5,-140"/>
<text text-anchor="middle" x="1889" y="-128" font-family="Helvetica,sans-Serif" font-size="10.00">d/cc/d_cc_s.h</text>
</a>
</g>
</g>
<!-- Node19&#45;&gt;Node32 -->
<g id="edge14" class="edge">
<title>Node19&#45;&gt;Node32</title>
<path fill="none" stroke="#63b8ff" d="M2023.31,-186.6C1996.84,-175.74 1951.84,-157.28 1921.3,-144.75"/>
<polygon fill="#63b8ff" stroke="#63b8ff" points="1922.74,-141.56 1912.16,-141 1920.08,-148.03 1922.74,-141.56"/>
</g>
<!-- Node42 -->
<g id="node16" class="node">
<title>Node42</title>
<g id="a_node16"><a xlink:href="d__attention_8h.html" target="_top" xlink:title=" ">
<polygon fill="#fff0f0" stroke="red" points="2138,-140 2058,-140 2058,-121 2138,-121 2138,-140"/>
<text text-anchor="middle" x="2098" y="-128" font-family="Helvetica,sans-Serif" font-size="10.00">d/d_attention.h</text>
</a>
</g>
</g>
<!-- Node19&#45;&gt;Node42 -->
<g id="edge16" class="edge">
<title>Node19&#45;&gt;Node42</title>
<path fill="none" stroke="#63b8ff" d="M2052.37,-186.6C2060.36,-176.95 2073.32,-161.31 2083.39,-149.15"/>
<polygon fill="#63b8ff" stroke="#63b8ff" points="2086.05,-151.42 2089.73,-141.49 2080.65,-146.96 2086.05,-151.42"/>
</g>
<!-- Node156 -->
<g id="node17" class="node">
<title>Node156</title>
<g id="a_node17"><a xlink:href="d__resorce_8h.html" target="_top" xlink:title=" ">
<polygon fill="#fff0f0" stroke="red" points="2231.5,-140 2156.5,-140 2156.5,-121 2231.5,-121 2231.5,-140"/>
<text text-anchor="middle" x="2194" y="-128" font-family="Helvetica,sans-Serif" font-size="10.00">d/d_resorce.h</text>
</a>
</g>
</g>
<!-- Node19&#45;&gt;Node156 -->
<g id="edge17" class="edge">
<title>Node19&#45;&gt;Node156</title>
<path fill="none" stroke="#63b8ff" d="M2065.72,-186.6C2090.96,-175.76 2133.84,-157.34 2163.01,-144.81"/>
<polygon fill="#63b8ff" stroke="#63b8ff" points="2164.26,-148.08 2172.07,-140.92 2161.5,-141.65 2164.26,-148.08"/>
</g>
<!-- Node175 -->
<g id="node18" class="node">
<title>Node175</title>
<g id="a_node18"><a xlink:href="d__vibration_8h.html" target="_top" xlink:title=" ">
<polygon fill="#fff0f0" stroke="red" points="2330,-140 2250,-140 2250,-121 2330,-121 2330,-140"/>
<text text-anchor="middle" x="2290" y="-128" font-family="Helvetica,sans-Serif" font-size="10.00">d/d_vibration.h</text>
</a>
</g>
</g>
<!-- Node19&#45;&gt;Node175 -->
<g id="edge18" class="edge">
<title>Node19&#45;&gt;Node175</title>
<path fill="none" stroke="#63b8ff" d="M2078.42,-186.51C2090.84,-183.19 2105.06,-179.4 2118,-176 2160.8,-164.75 2209.65,-152.13 2244.33,-143.21"/>
<polygon fill="#63b8ff" stroke="#63b8ff" points="2244.78,-146.71 2253.59,-140.83 2243.04,-139.93 2244.78,-146.71"/>
</g>
<!-- Node177 -->
<g id="node20" class="node">
<title>Node177</title>
<g id="a_node20"><a xlink:href="d__event_8h.html" target="_top" xlink:title=" ">
<polygon fill="#fff0f0" stroke="red" points="2040,-140 1946,-140 1946,-121 2040,-121 2040,-140"/>
<text text-anchor="middle" x="1993" y="-128" font-family="Helvetica,sans-Serif" font-size="10.00">d/event/d_event.h</text>
</a>
</g>
</g>
<!-- Node19&#45;&gt;Node177 -->
<g id="edge20" class="edge">
<title>Node19&#45;&gt;Node177</title>
<path fill="none" stroke="#63b8ff" d="M2037.77,-186.6C2029.93,-176.95 2017.22,-161.31 2007.34,-149.15"/>
<polygon fill="#63b8ff" stroke="#63b8ff" points="2010.15,-147.05 2001.12,-141.5 2004.71,-151.47 2010.15,-147.05"/>
</g>
<!-- Node198 -->
<g id="node21" class="node">
<title>Node198</title>
<g id="a_node21"><a xlink:href="d__event__manager_8h.html" target="_top" xlink:title=" ">
<polygon fill="#fff0f0" stroke="red" points="2485.5,-140 2348.5,-140 2348.5,-121 2485.5,-121 2485.5,-140"/>
<text text-anchor="middle" x="2417" y="-128" font-family="Helvetica,sans-Serif" font-size="10.00">d/event/d_event_manager.h</text>
</a>
</g>
</g>
<!-- Node19&#45;&gt;Node198 -->
<g id="edge22" class="edge">
<title>Node19&#45;&gt;Node198</title>
<path fill="none" stroke="#63b8ff" d="M2075.36,-186.56C2088.41,-182.94 2103.87,-178.93 2118,-176 2191.5,-160.76 2276.21,-148.66 2336.65,-140.95"/>
<polygon fill="#63b8ff" stroke="#63b8ff" points="2337.04,-144.43 2346.53,-139.7 2336.17,-137.48 2337.04,-144.43"/>
</g>
<!-- Node200 -->
<g id="node22" class="node">
<title>Node200</title>
<g id="a_node22"><a xlink:href="d__particle_8h.html" target="_top" xlink:title=" ">
<polygon fill="#fff0f0" stroke="red" points="2612.5,-140 2503.5,-140 2503.5,-121 2612.5,-121 2612.5,-140"/>
<text text-anchor="middle" x="2558" y="-128" font-family="Helvetica,sans-Serif" font-size="10.00">d/particle/d_particle.h</text>
</a>
</g>
</g>
<!-- Node19&#45;&gt;Node200 -->
<g id="edge24" class="edge">
<title>Node19&#45;&gt;Node200</title>
<path fill="none" stroke="#63b8ff" d="M2074.23,-186.5C2087.48,-182.73 2103.41,-178.63 2118,-176 2280.1,-146.82 2325.83,-158.71 2491.92,-140.3"/>
<polygon fill="#63b8ff" stroke="#63b8ff" points="2491.99,-143.82 2501.54,-139.21 2491.21,-136.86 2491.99,-143.82"/>
</g>
<!-- Node208 -->
<g id="node23" class="node">
<title>Node208</title>
<g id="a_node23"><a xlink:href="f__op__camera__mng_8h.html" target="_top" xlink:title=" ">
<polygon fill="#fff0f0" stroke="red" points="2757,-140 2631,-140 2631,-121 2757,-121 2757,-140"/>
<text text-anchor="middle" x="2694" y="-128" font-family="Helvetica,sans-Serif" font-size="10.00">f_op/f_op_camera_mng.h</text>
</a>
</g>
</g>
<!-- Node19&#45;&gt;Node208 -->
<g id="edge25" class="edge">
<title>Node19&#45;&gt;Node208</title>
<path fill="none" stroke="#63b8ff" d="M2073.5,-186.54C2086.88,-182.68 2103.12,-178.5 2118,-176 2335.8,-139.47 2396.43,-160.45 2619.37,-140.19"/>
<polygon fill="#63b8ff" stroke="#63b8ff" points="2619.66,-143.68 2629.29,-139.27 2619.01,-136.71 2619.66,-143.68"/>
</g>
<!-- Node20&#45;&gt;Node31 -->
<g id="edge13" class="edge">
<title>Node20&#45;&gt;Node31</title>
<path fill="none" stroke="#63b8ff" d="M1775.35,-120.62C1797.39,-110.99 1832.79,-95.54 1858.23,-84.43"/>
<polygon fill="#63b8ff" stroke="#63b8ff" points="1859.31,-87.78 1867.07,-80.57 1856.5,-81.37 1859.31,-87.78"/>
</g>
<!-- Node32&#45;&gt;Node31 -->
<g id="edge15" class="edge">
<title>Node32&#45;&gt;Node31</title>
<path fill="none" stroke="#63b8ff" d="M1889,-120.87C1889,-113 1889,-101.1 1889,-90.89"/>
<polygon fill="#63b8ff" stroke="#63b8ff" points="1892.5,-91.18 1889,-81.18 1885.5,-91.18 1892.5,-91.18"/>
</g>
<!-- Node25 -->
<g id="node19" class="node">
<title>Node25</title>
<g id="a_node19"><a xlink:href="c__xyz_8h.html" target="_top" xlink:title=" ">
<polygon fill="#fff0f0" stroke="red" points="2475,-85 2359,-85 2359,-55 2475,-55 2475,-85"/>
<text text-anchor="start" x="2367" y="-73" font-family="Helvetica,sans-Serif" font-size="10.00">SSystem/SComponent</text>
<text text-anchor="middle" x="2417" y="-62" font-family="Helvetica,sans-Serif" font-size="10.00">/c_xyz.h</text>
</a>
</g>
</g>
<!-- Node175&#45;&gt;Node25 -->
<g id="edge19" class="edge">
<title>Node175&#45;&gt;Node25</title>
<path fill="none" stroke="#63b8ff" d="M2309.29,-120.62C2326.78,-112.56 2353.16,-100.41 2375.43,-90.15"/>
<polygon fill="#63b8ff" stroke="#63b8ff" points="2376.66,-93.44 2384.28,-86.07 2373.73,-87.08 2376.66,-93.44"/>
</g>
<!-- Node177&#45;&gt;Node31 -->
<g id="edge21" class="edge">
<title>Node177&#45;&gt;Node31</title>
<path fill="none" stroke="#63b8ff" d="M1977.2,-120.62C1960.64,-111.29 1934.33,-96.5 1914.75,-85.49"/>
<polygon fill="#63b8ff" stroke="#63b8ff" points="1916.69,-82.56 1906.26,-80.71 1913.26,-88.66 1916.69,-82.56"/>
</g>
<!-- Node198&#45;&gt;Node25 -->
<g id="edge23" class="edge">
<title>Node198&#45;&gt;Node25</title>
<path fill="none" stroke="#63b8ff" d="M2417,-120.87C2417,-114.4 2417,-105.2 2417,-96.45"/>
<polygon fill="#63b8ff" stroke="#63b8ff" points="2420.5,-96.63 2417,-86.63 2413.5,-96.63 2420.5,-96.63"/>
</g>
<!-- Node225&#45;&gt;Node25 -->
<g id="edge29" class="edge">
<title>Node225&#45;&gt;Node25</title>
<path fill="none" stroke="#63b8ff" d="M2185.18,-186.68C2194.23,-182.71 2205.46,-178.38 2216,-176 2275.74,-162.51 2724.13,-184.7 2766,-140 2805.65,-97.67 2599.31,-80.31 2486.55,-74.07"/>
<polygon fill="#63b8ff" stroke="#63b8ff" points="2486.96,-70.59 2476.79,-73.55 2486.59,-77.58 2486.96,-70.59"/>
</g>
<!-- Node226 -->
<g id="node26" class="node">
<title>Node226</title>
<g id="a_node26"><a xlink:href="f__op__scene_8h.html" target="_top" xlink:title=" ">
<polygon fill="#fff0f0" stroke="red" points="2909,-140 2813,-140 2813,-121 2909,-121 2909,-140"/>
<text text-anchor="middle" x="2861" y="-128" font-family="Helvetica,sans-Serif" font-size="10.00">f_op/f_op_scene.h</text>
</a>
</g>
</g>
<!-- Node225&#45;&gt;Node226 -->
<g id="edge30" class="edge">
<title>Node225&#45;&gt;Node226</title>
<path fill="none" stroke="#63b8ff" d="M2185.17,-186.67C2194.22,-182.69 2205.46,-178.36 2216,-176 2469.34,-119.29 2540.67,-165.65 2799,-140 2799.83,-139.92 2800.67,-139.83 2801.51,-139.74"/>
<polygon fill="#63b8ff" stroke="#63b8ff" points="2801.59,-143.26 2811.14,-138.65 2800.81,-136.3 2801.59,-143.26"/>
</g>
<!-- Node94&#45;&gt;Node9 -->
<g id="edge50" class="edge">
<title>Node94&#45;&gt;Node9</title>
<path fill="none" stroke="#63b8ff" d="M1028.56,-128.42C866.9,-124.27 300.17,-108.32 121,-85 115.35,-84.26 109.46,-83.29 103.64,-82.2"/>
<polygon fill="#63b8ff" stroke="#63b8ff" points="104.57,-78.82 94.08,-80.29 103.2,-85.68 104.57,-78.82"/>
</g>
<!-- Node94&#45;&gt;Node17 -->
<g id="edge33" class="edge">
<title>Node94&#45;&gt;Node17</title>
<path fill="none" stroke="#63b8ff" d="M1115.23,-128.21C1247.46,-124.05 1645.16,-109.74 1772,-85 1774.61,-84.49 1777.28,-83.86 1779.95,-83.16"/>
<polygon fill="#63b8ff" stroke="#63b8ff" points="1780.71,-86.59 1789.29,-80.37 1778.71,-79.88 1780.71,-86.59"/>
</g>
<!-- Node95 -->
<g id="node29" class="node">
<title>Node95</title>
<g id="a_node29"><a xlink:href="dvd_8h.html" target="_top" xlink:title=" ">
<polygon fill="#fff0f0" stroke="red" points="1596,-79.5 1504,-79.5 1504,-60.5 1596,-60.5 1596,-79.5"/>
<text text-anchor="middle" x="1550" y="-67.5" font-family="Helvetica,sans-Serif" font-size="10.00">dolphin/dvd/dvd.h</text>
</a>
</g>
</g>
<!-- Node94&#45;&gt;Node95 -->
<g id="edge34" class="edge">
<title>Node94&#45;&gt;Node95</title>
<path fill="none" stroke="#63b8ff" d="M1115.41,-126.93C1192.22,-121.95 1356.89,-109.24 1494,-85 1498.04,-84.29 1502.21,-83.44 1506.38,-82.53"/>
<polygon fill="#63b8ff" stroke="#63b8ff" points="1506.87,-86.01 1515.82,-80.33 1505.29,-79.19 1506.87,-86.01"/>
</g>
<!-- Node96 -->
<g id="node30" class="node">
<title>Node96</title>
<g id="a_node30"><a xlink:href="OSAlarm_8h.html" target="_top" xlink:title=" ">
<polygon fill="#fff0f0" stroke="red" points="1763.5,-79.5 1652.5,-79.5 1652.5,-60.5 1763.5,-60.5 1763.5,-79.5"/>
<text text-anchor="middle" x="1708" y="-67.5" font-family="Helvetica,sans-Serif" font-size="10.00">dolphin/os/OSAlarm.h</text>
</a>
</g>
</g>
<!-- Node94&#45;&gt;Node96 -->
<g id="edge35" class="edge">
<title>Node94&#45;&gt;Node96</title>
<path fill="none" stroke="#63b8ff" d="M1115.15,-127.86C1210.06,-123.87 1443.96,-111.93 1638,-85 1643.98,-84.17 1650.23,-83.15 1656.42,-82.04"/>
<polygon fill="#63b8ff" stroke="#63b8ff" points="1656.76,-85.53 1665.94,-80.25 1655.46,-78.66 1656.76,-85.53"/>
</g>
<!-- Node97 -->
<g id="node31" class="node">
<title>Node97</title>
<g id="a_node31"><a xlink:href="OSError_8h.html" target="_top" xlink:title=" ">
<polygon fill="#fff0f0" stroke="red" points="1719,-19 1613,-19 1613,0 1719,0 1719,-19"/>
<text text-anchor="middle" x="1666" y="-7" font-family="Helvetica,sans-Serif" font-size="10.00">dolphin/os/OSError.h</text>
</a>
</g>
</g>
<!-- Node94&#45;&gt;Node97 -->
<g id="edge42" class="edge">
<title>Node94&#45;&gt;Node97</title>
<path fill="none" stroke="#63b8ff" d="M1115.37,-130.16C1226.8,-131.2 1520.34,-129.5 1605,-85 1628.42,-72.69 1646.19,-47.13 1656.35,-29.41"/>
<polygon fill="#63b8ff" stroke="#63b8ff" points="1659.4,-31.13 1661.08,-20.67 1653.24,-27.8 1659.4,-31.13"/>
</g>
<!-- Node99 -->
<g id="node32" class="node">
<title>Node99</title>
<g id="a_node32"><a xlink:href="OSAlloc_8h.html" target="_top" xlink:title=" ">
<polygon fill="#fff0f0" stroke="red" points="237.5,-79.5 130.5,-79.5 130.5,-60.5 237.5,-60.5 237.5,-79.5"/>
<text text-anchor="middle" x="184" y="-67.5" font-family="Helvetica,sans-Serif" font-size="10.00">dolphin/os/OSAlloc.h</text>
</a>
</g>
</g>
<!-- Node94&#45;&gt;Node99 -->
<g id="edge37" class="edge">
<title>Node94&#45;&gt;Node99</title>
<path fill="none" stroke="#63b8ff" d="M1028.76,-129.72C905.71,-129.82 543.29,-126.27 246,-85 240.74,-84.27 235.27,-83.32 229.86,-82.26"/>
<polygon fill="#63b8ff" stroke="#63b8ff" points="230.88,-78.9 220.38,-80.27 229.44,-85.75 230.88,-78.9"/>
</g>
<!-- Node100 -->
<g id="node33" class="node">
<title>Node100</title>
<g id="a_node33"><a xlink:href="OSArena_8h.html" target="_top" xlink:title=" ">
<polygon fill="#fff0f0" stroke="red" points="366.5,-79.5 255.5,-79.5 255.5,-60.5 366.5,-60.5 366.5,-79.5"/>
<text text-anchor="middle" x="311" y="-67.5" font-family="Helvetica,sans-Serif" font-size="10.00">dolphin/os/OSArena.h</text>
</a>
</g>
</g>
<!-- Node94&#45;&gt;Node100 -->
<g id="edge38" class="edge">
<title>Node94&#45;&gt;Node100</title>
<path fill="none" stroke="#63b8ff" d="M1028.54,-129.01C918.57,-127.27 620.55,-119.49 375,-85 369.65,-84.25 364.08,-83.29 358.56,-82.24"/>
<polygon fill="#63b8ff" stroke="#63b8ff" points="359.36,-78.83 348.86,-80.26 357.96,-85.69 359.36,-78.83"/>
</g>
<!-- Node101 -->
<g id="node34" class="node">
<title>Node101</title>
<g id="a_node34"><a xlink:href="OSAudioSystem_8h.html" target="_top" xlink:title=" ">
<polygon fill="white" stroke="#666666" points="527.5,-79.5 384.5,-79.5 384.5,-60.5 527.5,-60.5 527.5,-79.5"/>
<text text-anchor="middle" x="456" y="-67.5" font-family="Helvetica,sans-Serif" font-size="10.00">dolphin/os/OSAudioSystem.h</text>
</a>
</g>
</g>
<!-- Node94&#45;&gt;Node101 -->
<g id="edge39" class="edge">
<title>Node94&#45;&gt;Node101</title>
<path fill="none" stroke="#63b8ff" d="M1028.78,-127.24C937.5,-122.18 718.44,-108.49 536,-85 528.85,-84.08 521.36,-82.97 513.96,-81.78"/>
<polygon fill="#63b8ff" stroke="#63b8ff" points="514.78,-78.37 504.34,-80.18 513.63,-85.27 514.78,-78.37"/>
</g>
<!-- Node102 -->
<g id="node35" class="node">
<title>Node102</title>
<g id="a_node35"><a xlink:href="OSCache_8h.html" target="_top" xlink:title=" ">
<polygon fill="#fff0f0" stroke="red" points="658.5,-79.5 545.5,-79.5 545.5,-60.5 658.5,-60.5 658.5,-79.5"/>
<text text-anchor="middle" x="602" y="-67.5" font-family="Helvetica,sans-Serif" font-size="10.00">dolphin/os/OSCache.h</text>
</a>
</g>
</g>
<!-- Node94&#45;&gt;Node102 -->
<g id="edge40" class="edge">
<title>Node94&#45;&gt;Node102</title>
<path fill="none" stroke="#63b8ff" d="M1028.65,-126.21C954.32,-120.24 797.92,-106.23 667,-85 661.99,-84.19 656.79,-83.24 651.61,-82.23"/>
<polygon fill="#63b8ff" stroke="#63b8ff" points="652.35,-78.81 641.85,-80.25 650.96,-85.67 652.35,-78.81"/>
</g>
<!-- Node11 -->
<g id="node36" class="node">
<title>Node11</title>
<g id="a_node36"><a xlink:href="OSContext_8h.html" target="_top" xlink:title=" ">
<polygon fill="#fff0f0" stroke="red" points="795.5,-79.5 676.5,-79.5 676.5,-60.5 795.5,-60.5 795.5,-79.5"/>
<text text-anchor="middle" x="736" y="-67.5" font-family="Helvetica,sans-Serif" font-size="10.00">dolphin/os/OSContext.h</text>
</a>
</g>
</g>
<!-- Node94&#45;&gt;Node11 -->
<g id="edge41" class="edge">
<title>Node94&#45;&gt;Node11</title>
<path fill="none" stroke="#63b8ff" d="M1028.74,-122.84C975.69,-114.56 883.06,-99.7 804,-85 799.33,-84.13 794.49,-83.2 789.65,-82.25"/>
<polygon fill="#63b8ff" stroke="#63b8ff" points="790.37,-78.82 779.88,-80.29 788.99,-85.68 790.37,-78.82"/>
</g>
<!-- Node103 -->
<g id="node37" class="node">
<title>Node103</title>
<g id="a_node37"><a xlink:href="OSExec_8h.html" target="_top" xlink:title=" ">
<polygon fill="#fff0f0" stroke="red" points="920.5,-79.5 813.5,-79.5 813.5,-60.5 920.5,-60.5 920.5,-79.5"/>
<text text-anchor="middle" x="867" y="-67.5" font-family="Helvetica,sans-Serif" font-size="10.00">dolphin/os/OSExec.h</text>
</a>
</g>
</g>
<!-- Node94&#45;&gt;Node103 -->
<g id="edge43" class="edge">
<title>Node94&#45;&gt;Node103</title>
<path fill="none" stroke="#63b8ff" d="M1040.86,-120.62C1005.8,-110.61 948.6,-94.29 909.45,-83.12"/>
<polygon fill="#63b8ff" stroke="#63b8ff" points="910.46,-79.76 899.88,-80.38 908.54,-86.49 910.46,-79.76"/>
</g>
<!-- Node104 -->
<g id="node38" class="node">
<title>Node104</title>
<g id="a_node38"><a xlink:href="OSFont_8h.html" target="_top" xlink:title=" ">
<polygon fill="#fff0f0" stroke="red" points="1043.5,-79.5 938.5,-79.5 938.5,-60.5 1043.5,-60.5 1043.5,-79.5"/>
<text text-anchor="middle" x="991" y="-67.5" font-family="Helvetica,sans-Serif" font-size="10.00">dolphin/os/OSFont.h</text>
</a>
</g>
</g>
<!-- Node94&#45;&gt;Node104 -->
<g id="edge44" class="edge">
<title>Node94&#45;&gt;Node104</title>
<path fill="none" stroke="#63b8ff" d="M1059.7,-120.62C1047.21,-111.6 1027.62,-97.45 1012.55,-86.56"/>
<polygon fill="#63b8ff" stroke="#63b8ff" points="1014.8,-83.87 1004.64,-80.85 1010.7,-89.55 1014.8,-83.87"/>
</g>
<!-- Node105 -->
<g id="node39" class="node">
<title>Node105</title>
<g id="a_node39"><a xlink:href="OSInterrupt_8h.html" target="_top" xlink:title=" ">
<polygon fill="#fff0f0" stroke="red" points="1177,-19 1055,-19 1055,0 1177,0 1177,-19"/>
<text text-anchor="middle" x="1116" y="-7" font-family="Helvetica,sans-Serif" font-size="10.00">dolphin/os/OSInterrupt.h</text>
</a>
</g>
</g>
<!-- Node94&#45;&gt;Node105 -->
<g id="edge45" class="edge">
<title>Node94&#45;&gt;Node105</title>
<path fill="none" stroke="#63b8ff" d="M1073.5,-120.55C1076.05,-106.31 1081.87,-77.8 1091,-55 1094.54,-46.17 1099.51,-36.91 1104.08,-29.15"/>
<polygon fill="#63b8ff" stroke="#63b8ff" points="1107.05,-31 1109.31,-20.65 1101.09,-27.33 1107.05,-31"/>
</g>
<!-- Node106 -->
<g id="node40" class="node">
<title>Node106</title>
<g id="a_node40"><a xlink:href="OSLink_8h.html" target="_top" xlink:title=" ">
<polygon fill="#fff0f0" stroke="red" points="1342,-79.5 1238,-79.5 1238,-60.5 1342,-60.5 1342,-79.5"/>
<text text-anchor="middle" x="1290" y="-67.5" font-family="Helvetica,sans-Serif" font-size="10.00">dolphin/os/OSLink.h</text>
</a>
</g>
</g>
<!-- Node94&#45;&gt;Node106 -->
<g id="edge46" class="edge">
<title>Node94&#45;&gt;Node106</title>
<path fill="none" stroke="#63b8ff" d="M1105.11,-120.62C1142.64,-110.54 1204.01,-94.08 1245.65,-82.9"/>
<polygon fill="#63b8ff" stroke="#63b8ff" points="1246.37,-86.33 1255.12,-80.36 1244.55,-79.57 1246.37,-86.33"/>
</g>
<!-- Node107 -->
<g id="node41" class="node">
<title>Node107</title>
<g id="a_node41"><a xlink:href="OSMemory_8h.html" target="_top" xlink:title=" ">
<polygon fill="white" stroke="#666666" points="1220,-79.5 1100,-79.5 1100,-60.5 1220,-60.5 1220,-79.5"/>
<text text-anchor="middle" x="1160" y="-67.5" font-family="Helvetica,sans-Serif" font-size="10.00">dolphin/os/OSMemory.h</text>
</a>
</g>
</g>
<!-- Node94&#45;&gt;Node107 -->
<g id="edge47" class="edge">
<title>Node94&#45;&gt;Node107</title>
<path fill="none" stroke="#63b8ff" d="M1085.37,-120.62C1099.06,-111.51 1120.62,-97.18 1137.06,-86.25"/>
<polygon fill="#63b8ff" stroke="#63b8ff" points="1138.86,-89.26 1145.25,-80.81 1134.98,-83.43 1138.86,-89.26"/>
</g>
<!-- Node108 -->
<g id="node42" class="node">
<title>Node108</title>
<g id="a_node42"><a xlink:href="OSMessage_8h.html" target="_top" xlink:title=" ">
<polygon fill="#fff0f0" stroke="red" points="1485.5,-79.5 1360.5,-79.5 1360.5,-60.5 1485.5,-60.5 1485.5,-79.5"/>
<text text-anchor="middle" x="1423" y="-67.5" font-family="Helvetica,sans-Serif" font-size="10.00">dolphin/os/OSMessage.h</text>
</a>
</g>
</g>
<!-- Node94&#45;&gt;Node108 -->
<g id="edge49" class="edge">
<title>Node94&#45;&gt;Node108</title>
<path fill="none" stroke="#63b8ff" d="M1115.09,-123.09C1169.97,-114.82 1267.68,-99.74 1351,-85 1356.21,-84.08 1361.63,-83.09 1367.05,-82.07"/>
<polygon fill="#63b8ff" stroke="#63b8ff" points="1367.45,-85.56 1376.62,-80.26 1366.14,-78.68 1367.45,-85.56"/>
</g>
<!-- Node96&#45;&gt;Node97 -->
<g id="edge36" class="edge">
<title>Node96&#45;&gt;Node97</title>
<path fill="none" stroke="#63b8ff" d="M1701.8,-60.37C1695.79,-51.99 1686.47,-39.01 1678.85,-28.39"/>
<polygon fill="#63b8ff" stroke="#63b8ff" points="1681.78,-26.48 1673.11,-20.4 1676.09,-30.56 1681.78,-26.48"/>
</g>
<!-- Node107&#45;&gt;Node105 -->
<g id="edge48" class="edge">
<title>Node107&#45;&gt;Node105</title>
<path fill="none" stroke="#63b8ff" d="M1153.51,-60.37C1147.14,-51.9 1137.24,-38.74 1129.21,-28.07"/>
<polygon fill="#63b8ff" stroke="#63b8ff" points="1132.24,-26.26 1123.43,-20.38 1126.64,-30.47 1132.24,-26.26"/>
</g>
<!-- Node229&#45;&gt;Node20 -->
<g id="edge52" class="edge">
<title>Node229&#45;&gt;Node20</title>
<path fill="none" stroke="#63b8ff" d="M1797.19,-186.6C1789.8,-176.95 1777.82,-161.31 1768.51,-149.15"/>
<polygon fill="#63b8ff" stroke="#63b8ff" points="1771.53,-147.34 1762.68,-141.53 1765.98,-151.59 1771.53,-147.34"/>
</g>
<!-- Node240&#45;&gt;Node226 -->
<g id="edge54" class="edge">
<title>Node240&#45;&gt;Node226</title>
<path fill="none" stroke="#63b8ff" d="M2311.92,-186.58C2324.56,-182.73 2339.91,-178.54 2354,-176 2549.29,-140.85 2601.74,-161.48 2799,-140 2799.83,-139.91 2800.67,-139.82 2801.51,-139.72"/>
<polygon fill="#63b8ff" stroke="#63b8ff" points="2801.61,-143.23 2811.13,-138.57 2800.78,-136.28 2801.61,-143.23"/>
</g>
</g>
</svg>
