<?xml version="1.0" encoding="UTF-8" standalone="no"?>
<!DOCTYPE svg PUBLIC "-//W3C//DTD SVG 1.1//EN"
 "http://www.w3.org/Graphics/SVG/1.1/DTD/svg11.dtd">
<!-- Generated by graphviz version 7.0.5 (20221223.1930)
 -->
<!-- Title: include/d/s/d_s_play.h Pages: 1 -->
<!--zoomable 588 -->
<svg id="main" version="1.1" xmlns="http://www.w3.org/2000/svg" xmlns:xlink="http://www.w3.org/1999/xlink" xml:space="preserve" onload="init(evt)">
<style type="text/css"><![CDATA[
.edge:hover path { stroke: red; }
.edge:hover polygon { stroke: red; fill: red; }
]]></style>
<script type="text/javascript"><![CDATA[
var edges = document.getElementsByTagName('g');
if (edges && edges.length) {
  for (var i=0;i<edges.length;i++) {
    if (edges[i].id.substr(0,4)=='edge') {
      edges[i].setAttribute('class','edge');
    }
  }
}
]]></script>
        <defs>
                <circle id="rim" cx="0" cy="0" r="7"/>
                <circle id="rim2" cx="0" cy="0" r="3.5"/>
                <g id="zoomPlus">
                        <use xlink:href="#rim" fill="#404040">
                                <set attributeName="fill" to="#808080" begin="zoomplus.mouseover" end="zoomplus.mouseout"/>
                        </use>
                        <path d="M-4,0h8M0,-4v8" fill="none" stroke="white" stroke-width="1.5" pointer-events="none"/>
                </g>
                <g id="zoomMin">
                        <use xlink:href="#rim" fill="#404040">
                                <set attributeName="fill" to="#808080" begin="zoomminus.mouseover" end="zoomminus.mouseout"/>
                        </use>
                        <path d="M-4,0h8" fill="none" stroke="white" stroke-width="1.5" pointer-events="none"/>
                </g>
                <g id="dirArrow">
                        <path fill="none" stroke="white" stroke-width="1.5" d="M0,-3.0v7 M-2.5,-0.5L0,-3.0L2.5,-0.5"/>
                </g>
               <g id="resetDef">
                       <use xlink:href="#rim2" fill="#404040">
                               <set attributeName="fill" to="#808080" begin="reset.mouseover" end="reset.mouseout"/>
                       </use>
               </g>
        </defs>

<script type="text/javascript">
var viewWidth = 1331;
var viewHeight = 588;
var sectionId = 'dynsection-0';
</script>
<script xlink:href="svgpan.js"/>
<svg id="graph" class="graph">
<g id="viewport">
<title>include/d/s/d_s_play.h</title>
<!-- Node1 -->
<g id="node1" class="node">
<title>Node1</title>
<g id="a_node1"><a xlink:title=" ">
<polygon fill="#999999" stroke="#666666" points="243.5,-580 130.5,-580 130.5,-561 243.5,-561 243.5,-580"/>
<text text-anchor="middle" x="187" y="-568" font-family="Helvetica,sans-Serif" font-size="10.00">include/d/s/d_s_play.h</text>
</a>
</g>
</g>
<!-- Node2 -->
<g id="node2" class="node">
<title>Node2</title>
<g id="a_node2"><a xlink:href="c__phase_8h.html" target="_top" xlink:title=" ">
<polygon fill="white" stroke="#666666" points="116,-338 0,-338 0,-308 116,-308 116,-338"/>
<text text-anchor="start" x="8" y="-326" font-family="Helvetica,sans-Serif" font-size="10.00">SSystem/SComponent</text>
<text text-anchor="middle" x="58" y="-315" font-family="Helvetica,sans-Serif" font-size="10.00">/c_phase.h</text>
</a>
</g>
</g>
<!-- Node1&#45;&gt;Node2 -->
<g id="edge1" class="edge">
<title>Node1&#45;&gt;Node2</title>
<path fill="none" stroke="#63b8ff" d="M171.19,-560.62C158.47,-552.75 140.96,-540.16 130,-525 90.05,-469.74 70.33,-390.1 62.4,-349.66"/>
<polygon fill="#63b8ff" stroke="#63b8ff" points="65.86,-349.11 60.59,-339.93 58.98,-350.4 65.86,-349.11"/>
</g>
<!-- Node3 -->
<g id="node3" class="node">
<title>Node3</title>
<g id="a_node3"><a xlink:href="types_8h.html" target="_top" xlink:title=" ">
<polygon fill="white" stroke="#666666" points="738.5,-85 657.5,-85 657.5,-66 738.5,-66 738.5,-85"/>
<text text-anchor="middle" x="698" y="-73" font-family="Helvetica,sans-Serif" font-size="10.00">dolphin/types.h</text>
</a>
</g>
</g>
<!-- Node1&#45;&gt;Node3 -->
<g id="edge10" class="edge">
<title>Node1&#45;&gt;Node3</title>
<path fill="none" stroke="#63b8ff" d="M181.38,-560.64C169.72,-541.4 144,-493.99 144,-450.5 144,-450.5 144,-450.5 144,-201 144,-159.76 156.14,-143.03 191,-121 228.85,-97.08 524.65,-83.14 646.16,-78.37"/>
<polygon fill="#63b8ff" stroke="#63b8ff" points="645.99,-81.88 655.85,-78 645.72,-74.89 645.99,-81.88"/>
</g>
<!-- Node5 -->
<g id="node5" class="node">
<title>Node5</title>
<g id="a_node5"><a xlink:href="c__xyz_8h.html" target="_top" xlink:title=" ">
<polygon fill="white" stroke="#666666" points="288,-525 172,-525 172,-495 288,-495 288,-525"/>
<text text-anchor="start" x="180" y="-513" font-family="Helvetica,sans-Serif" font-size="10.00">SSystem/SComponent</text>
<text text-anchor="middle" x="230" y="-502" font-family="Helvetica,sans-Serif" font-size="10.00">/c_xyz.h</text>
</a>
</g>
</g>
<!-- Node1&#45;&gt;Node5 -->
<g id="edge4" class="edge">
<title>Node1&#45;&gt;Node5</title>
<path fill="none" stroke="#63b8ff" d="M193.34,-560.87C198.48,-553.89 205.95,-543.71 212.82,-534.38"/>
<polygon fill="#63b8ff" stroke="#63b8ff" points="215.63,-536.46 218.73,-526.33 209.99,-532.32 215.63,-536.46"/>
</g>
<!-- Node10 -->
<g id="node10" class="node">
<title>Node10</title>
<g id="a_node10"><a xlink:href="f__op__scene_8h.html" target="_top" xlink:title=" ">
<polygon fill="white" stroke="#666666" points="578,-519.5 482,-519.5 482,-500.5 578,-500.5 578,-519.5"/>
<text text-anchor="middle" x="530" y="-507.5" font-family="Helvetica,sans-Serif" font-size="10.00">f_op/f_op_scene.h</text>
</a>
</g>
</g>
<!-- Node1&#45;&gt;Node10 -->
<g id="edge11" class="edge">
<title>Node1&#45;&gt;Node10</title>
<path fill="none" stroke="#63b8ff" d="M239.47,-560.55C301.7,-549.94 405.18,-532.29 470.38,-521.17"/>
<polygon fill="#63b8ff" stroke="#63b8ff" points="470.94,-524.62 480.2,-519.49 469.76,-517.72 470.94,-524.62"/>
</g>
<!-- Node2&#45;&gt;Node3 -->
<g id="edge2" class="edge">
<title>Node2&#45;&gt;Node3</title>
<path fill="none" stroke="#63b8ff" d="M58.21,-307.57C59.63,-269.76 69.18,-167.48 130,-121 170.43,-90.1 512.9,-80.12 645.69,-77.4"/>
<polygon fill="#63b8ff" stroke="#63b8ff" points="645.68,-80.9 655.61,-77.2 645.54,-73.9 645.68,-80.9"/>
</g>
<!-- Node4 -->
<g id="node4" class="node">
<title>Node4</title>
<g id="a_node4"><a xlink:href="stddef_8h.html" target="_top" xlink:title=" ">
<polygon fill="white" stroke="#666666" points="766,-30 630,-30 630,0 766,0 766,-30"/>
<text text-anchor="start" x="638" y="-18" font-family="Helvetica,sans-Serif" font-size="10.00">MSL_C/MSL_Common/Src</text>
<text text-anchor="middle" x="698" y="-7" font-family="Helvetica,sans-Serif" font-size="10.00">/stddef.h</text>
</a>
</g>
</g>
<!-- Node3&#45;&gt;Node4 -->
<g id="edge3" class="edge">
<title>Node3&#45;&gt;Node4</title>
<path fill="none" stroke="#63b8ff" d="M698,-65.87C698,-59.4 698,-50.2 698,-41.45"/>
<polygon fill="#63b8ff" stroke="#63b8ff" points="701.5,-41.63 698,-31.63 694.5,-41.63 701.5,-41.63"/>
</g>
<!-- Node6 -->
<g id="node6" class="node">
<title>Node6</title>
<g id="a_node6"><a xlink:href="math_8h.html" target="_top" xlink:title=" ">
<polygon fill="white" stroke="#666666" points="364,-459 282,-459 282,-440 364,-440 364,-459"/>
<text text-anchor="middle" x="323" y="-447" font-family="Helvetica,sans-Serif" font-size="10.00">MSL_C/math.h</text>
</a>
</g>
</g>
<!-- Node5&#45;&gt;Node6 -->
<g id="edge5" class="edge">
<title>Node5&#45;&gt;Node6</title>
<path fill="none" stroke="#63b8ff" d="M252.99,-494.54C267.1,-485.66 285.13,-474.32 299.36,-465.37"/>
<polygon fill="#63b8ff" stroke="#63b8ff" points="301.05,-468.44 307.66,-460.15 297.33,-462.51 301.05,-468.44"/>
</g>
<!-- Node9 -->
<g id="node9" class="node">
<title>Node9</title>
<g id="a_node9"><a xlink:href="vec_8h.html" target="_top" xlink:title=" ">
<polygon fill="white" stroke="#666666" points="264,-459 172,-459 172,-440 264,-440 264,-459"/>
<text text-anchor="middle" x="218" y="-447" font-family="Helvetica,sans-Serif" font-size="10.00">dolphin/mtx/vec.h</text>
</a>
</g>
</g>
<!-- Node5&#45;&gt;Node9 -->
<g id="edge8" class="edge">
<title>Node5&#45;&gt;Node9</title>
<path fill="none" stroke="#63b8ff" d="M227.03,-494.54C225.54,-487.26 223.71,-478.31 222.08,-470.39"/>
<polygon fill="#63b8ff" stroke="#63b8ff" points="225.52,-469.75 220.08,-460.66 218.66,-471.16 225.52,-469.75"/>
</g>
<!-- Node7 -->
<g id="node7" class="node">
<title>Node7</title>
<g id="a_node7"><a xlink:href="MSL__Common_2Src_2float_8h.html" target="_top" xlink:title=" ">
<polygon fill="white" stroke="#666666" points="391,-404 255,-404 255,-374 391,-374 391,-404"/>
<text text-anchor="start" x="263" y="-392" font-family="Helvetica,sans-Serif" font-size="10.00">MSL_C/MSL_Common/Src</text>
<text text-anchor="middle" x="323" y="-381" font-family="Helvetica,sans-Serif" font-size="10.00">/float.h</text>
</a>
</g>
</g>
<!-- Node6&#45;&gt;Node7 -->
<g id="edge6" class="edge">
<title>Node6&#45;&gt;Node7</title>
<path fill="none" stroke="#63b8ff" d="M323,-439.87C323,-433.4 323,-424.2 323,-415.45"/>
<polygon fill="#63b8ff" stroke="#63b8ff" points="326.5,-415.63 323,-405.63 319.5,-415.63 326.5,-415.63"/>
</g>
<!-- Node8 -->
<g id="node8" class="node">
<title>Node8</title>
<g id="a_node8"><a xlink:href="fdlibm_8h.html" target="_top" xlink:title=" ">
<polygon fill="white" stroke="#666666" points="348,-332.5 298,-332.5 298,-313.5 348,-313.5 348,-332.5"/>
<text text-anchor="middle" x="323" y="-320.5" font-family="Helvetica,sans-Serif" font-size="10.00">fdlibm.h</text>
</a>
</g>
</g>
<!-- Node7&#45;&gt;Node8 -->
<g id="edge7" class="edge">
<title>Node7&#45;&gt;Node8</title>
<path fill="none" stroke="#63b8ff" d="M323,-373.8C323,-365.09 323,-353.81 323,-344.18"/>
<polygon fill="#63b8ff" stroke="#63b8ff" points="326.5,-344.36 323,-334.36 319.5,-344.36 326.5,-344.36"/>
</g>
<!-- Node9&#45;&gt;Node3 -->
<g id="edge9" class="edge">
<title>Node9&#45;&gt;Node3</title>
<path fill="none" stroke="#63b8ff" d="M213.59,-439.69C203.97,-419.68 182,-369 182,-324 182,-324 182,-324 182,-201 182,-159.76 194.22,-143.15 229,-121 263.56,-98.99 531.33,-84.17 646.08,-78.77"/>
<polygon fill="#63b8ff" stroke="#63b8ff" points="646,-82.28 655.83,-78.32 645.68,-75.29 646,-82.28"/>
</g>
<!-- Node10&#45;&gt;Node3 -->
<g id="edge12" class="edge">
<title>Node10&#45;&gt;Node3</title>
<path fill="none" stroke="#63b8ff" d="M578.41,-506.87C750.58,-498.67 1323,-465.7 1323,-390 1323,-390 1323,-390 1323,-201 1323,-146.14 1279.65,-142.08 1229,-121 1143.43,-85.39 866.52,-78.26 750.21,-76.85"/>
<polygon fill="#63b8ff" stroke="#63b8ff" points="750.36,-73.35 740.32,-76.74 750.28,-80.35 750.36,-73.35"/>
</g>
<!-- Node11 -->
<g id="node11" class="node">
<title>Node11</title>
<g id="a_node11"><a xlink:href="f__op__scene__tag_8h.html" target="_top" xlink:title=" ">
<polygon fill="white" stroke="#666666" points="363.5,-211.5 248.5,-211.5 248.5,-192.5 363.5,-192.5 363.5,-211.5"/>
<text text-anchor="middle" x="306" y="-199.5" font-family="Helvetica,sans-Serif" font-size="10.00">f_op/f_op_scene_tag.h</text>
</a>
</g>
</g>
<!-- Node10&#45;&gt;Node11 -->
<g id="edge13" class="edge">
<title>Node10&#45;&gt;Node11</title>
<path fill="none" stroke="#63b8ff" d="M519.25,-500.06C498.52,-481.74 455,-437.62 455,-390 455,-390 455,-390 455,-322 455,-266.46 391,-232.6 346.89,-215.87"/>
<polygon fill="#63b8ff" stroke="#63b8ff" points="348.17,-212.61 337.58,-212.49 345.79,-219.19 348.17,-212.61"/>
</g>
<!-- Node13 -->
<g id="node13" class="node">
<title>Node13</title>
<g id="a_node13"><a xlink:href="f__pc__node_8h.html" target="_top" xlink:title=" ">
<polygon fill="white" stroke="#666666" points="652.5,-459 561.5,-459 561.5,-440 652.5,-440 652.5,-459"/>
<text text-anchor="middle" x="607" y="-447" font-family="Helvetica,sans-Serif" font-size="10.00">f_pc/f_pc_node.h</text>
</a>
</g>
</g>
<!-- Node10&#45;&gt;Node13 -->
<g id="edge17" class="edge">
<title>Node10&#45;&gt;Node13</title>
<path fill="none" stroke="#63b8ff" d="M541.69,-500.12C553.45,-491.18 571.84,-477.22 586.11,-466.37"/>
<polygon fill="#63b8ff" stroke="#63b8ff" points="588.14,-469.22 593.99,-460.38 583.91,-463.65 588.14,-469.22"/>
</g>
<!-- Node11&#45;&gt;Node3 -->
<g id="edge16" class="edge">
<title>Node11&#45;&gt;Node3</title>
<path fill="none" stroke="#63b8ff" d="M289.06,-192.16C262.48,-177.21 216.23,-146.08 239,-121 265.92,-91.34 531.26,-80.86 645.8,-77.7"/>
<polygon fill="#63b8ff" stroke="#63b8ff" points="645.63,-81.2 655.54,-77.44 645.45,-74.2 645.63,-81.2"/>
</g>
<!-- Node12 -->
<g id="node12" class="node">
<title>Node12</title>
<g id="a_node12"><a xlink:href="c__list_8h.html" target="_top" xlink:title=" ">
<polygon fill="white" stroke="#666666" points="364,-151 248,-151 248,-121 364,-121 364,-151"/>
<text text-anchor="start" x="256" y="-139" font-family="Helvetica,sans-Serif" font-size="10.00">SSystem/SComponent</text>
<text text-anchor="middle" x="306" y="-128" font-family="Helvetica,sans-Serif" font-size="10.00">/c_list.h</text>
</a>
</g>
</g>
<!-- Node11&#45;&gt;Node12 -->
<g id="edge14" class="edge">
<title>Node11&#45;&gt;Node12</title>
<path fill="none" stroke="#63b8ff" d="M306,-192.1C306,-184.41 306,-172.92 306,-162.42"/>
<polygon fill="#63b8ff" stroke="#63b8ff" points="309.5,-162.75 306,-152.75 302.5,-162.75 309.5,-162.75"/>
</g>
<!-- Node12&#45;&gt;Node3 -->
<g id="edge15" class="edge">
<title>Node12&#45;&gt;Node3</title>
<path fill="none" stroke="#63b8ff" d="M364.42,-122.54C367.32,-122 370.19,-121.49 373,-121 468.95,-104.43 581.71,-90.14 646.02,-82.48"/>
<polygon fill="#63b8ff" stroke="#63b8ff" points="646.05,-86 655.57,-81.35 645.23,-79.05 646.05,-86"/>
</g>
<!-- Node14 -->
<g id="node14" class="node">
<title>Node14</title>
<g id="a_node14"><a xlink:href="f__pc__base_8h.html" target="_top" xlink:title=" ">
<polygon fill="white" stroke="#666666" points="1072.5,-398.5 981.5,-398.5 981.5,-379.5 1072.5,-379.5 1072.5,-398.5"/>
<text text-anchor="middle" x="1027" y="-386.5" font-family="Helvetica,sans-Serif" font-size="10.00">f_pc/f_pc_base.h</text>
</a>
</g>
</g>
<!-- Node13&#45;&gt;Node14 -->
<g id="edge18" class="edge">
<title>Node13&#45;&gt;Node14</title>
<path fill="none" stroke="#63b8ff" d="M652.75,-442.13C729.91,-431.38 885.73,-409.68 969.92,-397.95"/>
<polygon fill="#63b8ff" stroke="#63b8ff" points="970.39,-401.42 979.81,-396.57 969.42,-394.49 970.39,-401.42"/>
</g>
<!-- Node22 -->
<g id="node22" class="node">
<title>Node22</title>
<g id="a_node22"><a xlink:href="f__pc__layer_8h.html" target="_top" xlink:title=" ">
<polygon fill="white" stroke="#666666" points="571,-211.5 481,-211.5 481,-192.5 571,-192.5 571,-211.5"/>
<text text-anchor="middle" x="526" y="-199.5" font-family="Helvetica,sans-Serif" font-size="10.00">f_pc/f_pc_layer.h</text>
</a>
</g>
</g>
<!-- Node13&#45;&gt;Node22 -->
<g id="edge37" class="edge">
<title>Node13&#45;&gt;Node22</title>
<path fill="none" stroke="#63b8ff" d="M600.72,-439.54C588.31,-421.33 560.63,-378.33 547,-338 533.69,-298.61 528.76,-249.86 526.98,-223.04"/>
<polygon fill="#63b8ff" stroke="#63b8ff" points="530.48,-223.07 526.42,-213.28 523.49,-223.47 530.48,-223.07"/>
</g>
<!-- Node24 -->
<g id="node24" class="node">
<title>Node24</title>
<g id="a_node24"><a xlink:href="f__pc__method_8h.html" target="_top" xlink:title=" ">
<polygon fill="white" stroke="#666666" points="658,-332.5 556,-332.5 556,-313.5 658,-313.5 658,-332.5"/>
<text text-anchor="middle" x="607" y="-320.5" font-family="Helvetica,sans-Serif" font-size="10.00">f_pc/f_pc_method.h</text>
</a>
</g>
</g>
<!-- Node13&#45;&gt;Node24 -->
<g id="edge43" class="edge">
<title>Node13&#45;&gt;Node24</title>
<path fill="none" stroke="#63b8ff" d="M607,-439.55C607,-419.72 607,-371.68 607,-344.19"/>
<polygon fill="#63b8ff" stroke="#63b8ff" points="610.5,-344.39 607,-334.39 603.5,-344.39 610.5,-344.39"/>
</g>
<!-- Node25 -->
<g id="node25" class="node">
<title>Node25</title>
<g id="a_node25"><a xlink:href="f__pc__profile_8h.html" target="_top" xlink:title=" ">
<polygon fill="white" stroke="#666666" points="731.5,-398.5 636.5,-398.5 636.5,-379.5 731.5,-379.5 731.5,-398.5"/>
<text text-anchor="middle" x="684" y="-386.5" font-family="Helvetica,sans-Serif" font-size="10.00">f_pc/f_pc_profile.h</text>
</a>
</g>
</g>
<!-- Node13&#45;&gt;Node25 -->
<g id="edge45" class="edge">
<title>Node13&#45;&gt;Node25</title>
<path fill="none" stroke="#63b8ff" d="M618.69,-439.62C630.45,-430.68 648.84,-416.72 663.11,-405.87"/>
<polygon fill="#63b8ff" stroke="#63b8ff" points="665.14,-408.72 670.99,-399.88 660.91,-403.15 665.14,-408.72"/>
</g>
<!-- Node14&#45;&gt;Node3 -->
<g id="edge19" class="edge">
<title>Node14&#45;&gt;Node3</title>
<path fill="none" stroke="#63b8ff" d="M1072.83,-386.03C1146.97,-380.13 1285,-356.63 1285,-263.5 1285,-263.5 1285,-263.5 1285,-201 1285,-92.09 893.43,-78.03 749.91,-76.54"/>
<polygon fill="#63b8ff" stroke="#63b8ff" points="750.35,-73.04 740.32,-76.46 750.29,-80.04 750.35,-73.04"/>
</g>
<!-- Node15 -->
<g id="node15" class="node">
<title>Node15</title>
<g id="a_node15"><a xlink:href="f__pc__delete__tag_8h.html" target="_top" xlink:title=" ">
<polygon fill="white" stroke="#666666" points="1129.5,-272 1014.5,-272 1014.5,-253 1129.5,-253 1129.5,-272"/>
<text text-anchor="middle" x="1072" y="-260" font-family="Helvetica,sans-Serif" font-size="10.00">f_pc/f_pc_delete_tag.h</text>
</a>
</g>
</g>
<!-- Node14&#45;&gt;Node15 -->
<g id="edge20" class="edge">
<title>Node14&#45;&gt;Node15</title>
<path fill="none" stroke="#63b8ff" d="M1030.24,-379.05C1037.47,-359.04 1055.08,-310.31 1064.97,-282.95"/>
<polygon fill="#63b8ff" stroke="#63b8ff" points="1068.17,-284.39 1068.28,-273.8 1061.59,-282.01 1068.17,-284.39"/>
</g>
<!-- Node18 -->
<g id="node18" class="node">
<title>Node18</title>
<g id="a_node18"><a xlink:href="f__pc__layer__tag_8h.html" target="_top" xlink:title=" ">
<polygon fill="white" stroke="#666666" points="1256.5,-272 1147.5,-272 1147.5,-253 1256.5,-253 1256.5,-272"/>
<text text-anchor="middle" x="1202" y="-260" font-family="Helvetica,sans-Serif" font-size="10.00">f_pc/f_pc_layer_tag.h</text>
</a>
</g>
</g>
<!-- Node14&#45;&gt;Node18 -->
<g id="edge26" class="edge">
<title>Node14&#45;&gt;Node18</title>
<path fill="none" stroke="#63b8ff" d="M1039.59,-379.05C1069.23,-357.96 1143.7,-304.98 1180.6,-278.73"/>
<polygon fill="#63b8ff" stroke="#63b8ff" points="1182.18,-281.9 1188.3,-273.25 1178.12,-276.2 1182.18,-281.9"/>
</g>
<!-- Node19 -->
<g id="node19" class="node">
<title>Node19</title>
<g id="a_node19"><a xlink:href="f__pc__line__tag_8h.html" target="_top" xlink:title=" ">
<polygon fill="white" stroke="#666666" points="818,-272 714,-272 714,-253 818,-253 818,-272"/>
<text text-anchor="middle" x="766" y="-260" font-family="Helvetica,sans-Serif" font-size="10.00">f_pc/f_pc_line_tag.h</text>
</a>
</g>
</g>
<!-- Node14&#45;&gt;Node19 -->
<g id="edge29" class="edge">
<title>Node14&#45;&gt;Node19</title>
<path fill="none" stroke="#63b8ff" d="M1008.23,-379.05C963.18,-357.56 848.68,-302.94 794.82,-277.25"/>
<polygon fill="#63b8ff" stroke="#63b8ff" points="796.5,-274.17 785.97,-273.02 793.49,-280.49 796.5,-274.17"/>
</g>
<!-- Node20 -->
<g id="node20" class="node">
<title>Node20</title>
<g id="a_node20"><a xlink:href="f__pc__priority_8h.html" target="_top" xlink:title=" ">
<polygon fill="white" stroke="#666666" points="1035,-332.5 937,-332.5 937,-313.5 1035,-313.5 1035,-332.5"/>
<text text-anchor="middle" x="986" y="-320.5" font-family="Helvetica,sans-Serif" font-size="10.00">f_pc/f_pc_priority.h</text>
</a>
</g>
</g>
<!-- Node14&#45;&gt;Node20 -->
<g id="edge32" class="edge">
<title>Node14&#45;&gt;Node20</title>
<path fill="none" stroke="#63b8ff" d="M1021.3,-379.1C1015.24,-369.64 1005.49,-354.42 997.77,-342.37"/>
<polygon fill="#63b8ff" stroke="#63b8ff" points="1000.81,-340.63 992.47,-334.1 994.92,-344.41 1000.81,-340.63"/>
</g>
<!-- Node15&#45;&gt;Node3 -->
<g id="edge25" class="edge">
<title>Node15&#45;&gt;Node3</title>
<path fill="none" stroke="#63b8ff" d="M1059.66,-252.52C1039.92,-238.25 999.92,-209.7 965,-187 917.52,-156.14 907.95,-143.55 856,-121 821.89,-106.2 781.51,-94.92 750.11,-87.43"/>
<polygon fill="#63b8ff" stroke="#63b8ff" points="750.98,-84.04 740.45,-85.18 749.39,-90.85 750.98,-84.04"/>
</g>
<!-- Node16 -->
<g id="node16" class="node">
<title>Node16</title>
<g id="a_node16"><a xlink:href="c__tag_8h.html" target="_top" xlink:title=" ">
<polygon fill="white" stroke="#666666" points="956,-217 840,-217 840,-187 956,-187 956,-217"/>
<text text-anchor="start" x="848" y="-205" font-family="Helvetica,sans-Serif" font-size="10.00">SSystem/SComponent</text>
<text text-anchor="middle" x="898" y="-194" font-family="Helvetica,sans-Serif" font-size="10.00">/c_tag.h</text>
</a>
</g>
</g>
<!-- Node15&#45;&gt;Node16 -->
<g id="edge21" class="edge">
<title>Node15&#45;&gt;Node16</title>
<path fill="none" stroke="#63b8ff" d="M1045.57,-252.62C1020.74,-244.27 982.84,-231.52 951.66,-221.04"/>
<polygon fill="#63b8ff" stroke="#63b8ff" points="952.98,-217.79 942.38,-217.92 950.75,-224.43 952.98,-217.79"/>
</g>
<!-- Node16&#45;&gt;Node3 -->
<g id="edge24" class="edge">
<title>Node16&#45;&gt;Node3</title>
<path fill="none" stroke="#63b8ff" d="M888.48,-186.56C876.07,-168.78 852.77,-138.78 826,-121 802.97,-105.7 774.12,-95.08 749.63,-88.05"/>
<polygon fill="#63b8ff" stroke="#63b8ff" points="750.76,-84.73 740.19,-85.47 748.92,-91.48 750.76,-84.73"/>
</g>
<!-- Node17 -->
<g id="node17" class="node">
<title>Node17</title>
<g id="a_node17"><a xlink:href="c__node_8h.html" target="_top" xlink:title=" ">
<polygon fill="white" stroke="#666666" points="670,-151 554,-151 554,-121 670,-121 670,-151"/>
<text text-anchor="start" x="562" y="-139" font-family="Helvetica,sans-Serif" font-size="10.00">SSystem/SComponent</text>
<text text-anchor="middle" x="612" y="-128" font-family="Helvetica,sans-Serif" font-size="10.00">/c_node.h</text>
</a>
</g>
</g>
<!-- Node16&#45;&gt;Node17 -->
<g id="edge22" class="edge">
<title>Node16&#45;&gt;Node17</title>
<path fill="none" stroke="#63b8ff" d="M839.78,-187.97C793.87,-177.7 729.71,-163.34 681.18,-152.48"/>
<polygon fill="#63b8ff" stroke="#63b8ff" points="682.14,-149.11 671.62,-150.34 680.61,-155.94 682.14,-149.11"/>
</g>
<!-- Node17&#45;&gt;Node3 -->
<g id="edge23" class="edge">
<title>Node17&#45;&gt;Node3</title>
<path fill="none" stroke="#63b8ff" d="M633.26,-120.54C646.18,-111.75 662.66,-100.54 675.75,-91.63"/>
<polygon fill="#63b8ff" stroke="#63b8ff" points="677.44,-94.72 683.74,-86.2 673.51,-88.93 677.44,-94.72"/>
</g>
<!-- Node18&#45;&gt;Node3 -->
<g id="edge28" class="edge">
<title>Node18&#45;&gt;Node3</title>
<path fill="none" stroke="#63b8ff" d="M1186.03,-252.62C1141.65,-228.27 1012.57,-159.72 898,-121 848.97,-104.43 791.08,-92.32 750.23,-84.96"/>
<polygon fill="#63b8ff" stroke="#63b8ff" points="750.87,-81.51 740.41,-83.22 749.65,-88.41 750.87,-81.51"/>
</g>
<!-- Node18&#45;&gt;Node16 -->
<g id="edge27" class="edge">
<title>Node18&#45;&gt;Node16</title>
<path fill="none" stroke="#63b8ff" d="M1155.5,-252.55C1105.44,-242.92 1025.27,-227.49 967.68,-216.41"/>
<polygon fill="#63b8ff" stroke="#63b8ff" points="968.44,-212.99 957.96,-214.54 967.12,-219.87 968.44,-212.99"/>
</g>
<!-- Node19&#45;&gt;Node3 -->
<g id="edge31" class="edge">
<title>Node19&#45;&gt;Node3</title>
<path fill="none" stroke="#63b8ff" d="M767.12,-252.63C769.63,-229.42 773.72,-165.67 750,-121 743.75,-109.23 732.99,-99.23 722.88,-91.71"/>
<polygon fill="#63b8ff" stroke="#63b8ff" points="725.02,-88.93 714.8,-86.14 721.05,-94.7 725.02,-88.93"/>
</g>
<!-- Node19&#45;&gt;Node16 -->
<g id="edge30" class="edge">
<title>Node19&#45;&gt;Node16</title>
<path fill="none" stroke="#63b8ff" d="M786.05,-252.62C804.31,-244.52 831.89,-232.3 855.11,-222.01"/>
<polygon fill="#63b8ff" stroke="#63b8ff" points="856.31,-225.3 864.03,-218.05 853.47,-218.9 856.31,-225.3"/>
</g>
<!-- Node20&#45;&gt;Node16 -->
<g id="edge33" class="edge">
<title>Node20&#45;&gt;Node16</title>
<path fill="none" stroke="#63b8ff" d="M985.43,-313.15C984.14,-299.21 980.03,-271.79 967,-253 958.9,-241.32 947.16,-231.36 935.65,-223.48"/>
<polygon fill="#63b8ff" stroke="#63b8ff" points="937.7,-220.64 927.4,-218.17 933.92,-226.53 937.7,-220.64"/>
</g>
<!-- Node21 -->
<g id="node21" class="node">
<title>Node21</title>
<g id="a_node21"><a xlink:href="f__pc__method__tag_8h.html" target="_top" xlink:title=" ">
<polygon fill="white" stroke="#666666" points="957.5,-272 836.5,-272 836.5,-253 957.5,-253 957.5,-272"/>
<text text-anchor="middle" x="897" y="-260" font-family="Helvetica,sans-Serif" font-size="10.00">f_pc/f_pc_method_tag.h</text>
</a>
</g>
</g>
<!-- Node20&#45;&gt;Node21 -->
<g id="edge34" class="edge">
<title>Node20&#45;&gt;Node21</title>
<path fill="none" stroke="#63b8ff" d="M972.48,-313.12C958.63,-304.01 936.82,-289.68 920.2,-278.75"/>
<polygon fill="#63b8ff" stroke="#63b8ff" points="922.19,-275.87 911.91,-273.3 918.34,-281.72 922.19,-275.87"/>
</g>
<!-- Node21&#45;&gt;Node3 -->
<g id="edge36" class="edge">
<title>Node21&#45;&gt;Node3</title>
<path fill="none" stroke="#63b8ff" d="M879.86,-252.57C865.63,-244.58 845.46,-231.86 831,-217 795.74,-180.77 805.97,-156.52 770,-121 757.67,-108.82 741.42,-98.42 727.48,-90.74"/>
<polygon fill="#63b8ff" stroke="#63b8ff" points="729.19,-87.69 718.71,-86.12 725.92,-93.88 729.19,-87.69"/>
</g>
<!-- Node21&#45;&gt;Node16 -->
<g id="edge35" class="edge">
<title>Node21&#45;&gt;Node16</title>
<path fill="none" stroke="#63b8ff" d="M897.15,-252.87C897.26,-246.4 897.42,-237.2 897.56,-228.45"/>
<polygon fill="#63b8ff" stroke="#63b8ff" points="901.06,-228.69 897.73,-218.63 894.06,-228.57 901.06,-228.69"/>
</g>
<!-- Node22&#45;&gt;Node3 -->
<g id="edge42" class="edge">
<title>Node22&#45;&gt;Node3</title>
<path fill="none" stroke="#63b8ff" d="M525.43,-192.22C524.87,-175.93 526.11,-140.86 545,-121 570.93,-93.75 612.47,-82.89 645.73,-78.7"/>
<polygon fill="#63b8ff" stroke="#63b8ff" points="646.04,-82.19 655.61,-77.64 645.29,-75.23 646.04,-82.19"/>
</g>
<!-- Node22&#45;&gt;Node12 -->
<g id="edge38" class="edge">
<title>Node22&#45;&gt;Node12</title>
<path fill="none" stroke="#63b8ff" d="M495.41,-192.1C462.25,-182.45 408.46,-166.81 366.66,-154.65"/>
<polygon fill="#63b8ff" stroke="#63b8ff" points="367.8,-151.33 357.22,-151.9 365.84,-158.05 367.8,-151.33"/>
</g>
<!-- Node22&#45;&gt;Node17 -->
<g id="edge39" class="edge">
<title>Node22&#45;&gt;Node17</title>
<path fill="none" stroke="#63b8ff" d="M537.96,-192.1C549.65,-183.4 567.91,-169.81 583.37,-158.31"/>
<polygon fill="#63b8ff" stroke="#63b8ff" points="585.4,-161.16 591.33,-152.38 581.22,-155.54 585.4,-161.16"/>
</g>
<!-- Node23 -->
<g id="node23" class="node">
<title>Node23</title>
<g id="a_node23"><a xlink:href="c__tree_8h.html" target="_top" xlink:title=" ">
<polygon fill="white" stroke="#666666" points="498,-151 382,-151 382,-121 498,-121 498,-151"/>
<text text-anchor="start" x="390" y="-139" font-family="Helvetica,sans-Serif" font-size="10.00">SSystem/SComponent</text>
<text text-anchor="middle" x="440" y="-128" font-family="Helvetica,sans-Serif" font-size="10.00">/c_tree.h</text>
</a>
</g>
</g>
<!-- Node22&#45;&gt;Node23 -->
<g id="edge40" class="edge">
<title>Node22&#45;&gt;Node23</title>
<path fill="none" stroke="#63b8ff" d="M514.04,-192.1C502.35,-183.4 484.09,-169.81 468.63,-158.31"/>
<polygon fill="#63b8ff" stroke="#63b8ff" points="470.78,-155.54 460.67,-152.38 466.6,-161.16 470.78,-155.54"/>
</g>
<!-- Node23&#45;&gt;Node3 -->
<g id="edge41" class="edge">
<title>Node23&#45;&gt;Node3</title>
<path fill="none" stroke="#63b8ff" d="M498.22,-121.8C543.11,-111.62 604.55,-97.69 647.4,-87.97"/>
<polygon fill="#63b8ff" stroke="#63b8ff" points="647.96,-91.43 656.94,-85.81 646.42,-84.61 647.96,-91.43"/>
</g>
<!-- Node24&#45;&gt;Node3 -->
<g id="edge44" class="edge">
<title>Node24&#45;&gt;Node3</title>
<path fill="none" stroke="#63b8ff" d="M611.22,-313.28C623.14,-288.41 657.56,-214.82 679,-151 685.11,-132.81 690.35,-111.56 693.77,-96.42"/>
<polygon fill="#63b8ff" stroke="#63b8ff" points="697.15,-97.34 695.87,-86.82 690.31,-95.84 697.15,-97.34"/>
</g>
<!-- Node25&#45;&gt;Node3 -->
<g id="edge46" class="edge">
<title>Node25&#45;&gt;Node3</title>
<path fill="none" stroke="#63b8ff" d="M684.69,-379.4C687.14,-348.53 695.36,-240.4 698,-151 698.54,-132.6 698.48,-111.64 698.32,-96.64"/>
<polygon fill="#63b8ff" stroke="#63b8ff" points="701.82,-96.68 698.19,-86.73 694.82,-96.78 701.82,-96.68"/>
</g>
</g>
</svg>
        <g id="navigator" transform="translate(0 0)" fill="#404254">
                <rect fill="#f2f5e9" fill-opacity="0.5" stroke="#606060" stroke-width=".5" x="0" y="0" width="60" height="60"/>
                <use id="zoomplus" xlink:href="#zoomPlus" x="17" y="9" onmousedown="handleZoom(evt,'in')"/>
                <use id="zoomminus" xlink:href="#zoomMin" x="42" y="9" onmousedown="handleZoom(evt,'out')"/>
                <use id="reset" xlink:href="#resetDef" x="30" y="36" onmousedown="handleReset()"/>
                <g id="arrowUp" xlink:href="#dirArrow" transform="translate(30 24)" onmousedown="handlePan(0,-1)">
                  <use xlink:href="#rim" fill="#404040">
                        <set attributeName="fill" to="#808080" begin="arrowUp.mouseover" end="arrowUp.mouseout"/>
                  </use>
                  <path fill="none" stroke="white" stroke-width="1.5" d="M0,-3.0v7 M-2.5,-0.5L0,-3.0L2.5,-0.5"/>
                </g>
                <g id="arrowRight" xlink:href="#dirArrow" transform="rotate(90) translate(36 -43)" onmousedown="handlePan(1,0)">
                  <use xlink:href="#rim" fill="#404040">
                        <set attributeName="fill" to="#808080" begin="arrowRight.mouseover" end="arrowRight.mouseout"/>
                  </use>
                  <path fill="none" stroke="white" stroke-width="1.5" d="M0,-3.0v7 M-2.5,-0.5L0,-3.0L2.5,-0.5"/>
                </g>
                <g id="arrowDown" xlink:href="#dirArrow" transform="rotate(180) translate(-30 -48)" onmousedown="handlePan(0,1)">
                  <use xlink:href="#rim" fill="#404040">
                        <set attributeName="fill" to="#808080" begin="arrowDown.mouseover" end="arrowDown.mouseout"/>
                  </use>
                  <path fill="none" stroke="white" stroke-width="1.5" d="M0,-3.0v7 M-2.5,-0.5L0,-3.0L2.5,-0.5"/>
                </g>
                <g id="arrowLeft" xlink:href="#dirArrow" transform="rotate(270) translate(-36 17)" onmousedown="handlePan(-1,0)">
                  <use xlink:href="#rim" fill="#404040">
                        <set attributeName="fill" to="#808080" begin="arrowLeft.mouseover" end="arrowLeft.mouseout"/>
                  </use>
                  <path fill="none" stroke="white" stroke-width="1.5" d="M0,-3.0v7 M-2.5,-0.5L0,-3.0L2.5,-0.5"/>
                </g>
        </g>
        <svg viewBox="0 0 15 15" width="100%" height="30px" preserveAspectRatio="xMaxYMin meet">
         <g id="arrow_out" transform="scale(0.3 0.3)">
          <a xlink:href="d__s__play_8h__incl_org.svg" target="_base">
           <rect id="button" ry="5" rx="5" y="6" x="6" height="38" width="38"
                fill="#f2f5e9" fill-opacity="0.5" stroke="#606060" stroke-width="1.0"/>
           <path id="arrow"
             d="M 11.500037,31.436501 C 11.940474,20.09759 22.043105,11.32322 32.158766,21.979434 L 37.068811,17.246167 C 37.068811,17.246167 37.088388,32 37.088388,32 L 22.160133,31.978069 C 22.160133,31.978069 26.997745,27.140456 26.997745,27.140456 C 18.528582,18.264221 13.291696,25.230495 11.500037,31.436501 z"
             style="fill:#404040;"/>
          </a>
         </g>
        </svg>
</svg>
