<?xml version="1.0" encoding="UTF-8" standalone="no"?>
<!DOCTYPE svg PUBLIC "-//W3C//DTD SVG 1.1//EN"
 "http://www.w3.org/Graphics/SVG/1.1/DTD/svg11.dtd">
<!-- Generated by graphviz version 7.0.5 (20221223.1930)
 -->
<!-- Title: include/d/d_vibration.h Pages: 1 -->
<svg width="5856pt" height="236pt"
 viewBox="0.00 0.00 5856.27 236.00" xmlns="http://www.w3.org/2000/svg" xmlns:xlink="http://www.w3.org/1999/xlink">
<g id="graph0" class="graph" transform="scale(1 1) rotate(0) translate(4 232)">
<title>include/d/d_vibration.h</title>
<!-- Node1 -->
<g id="node1" class="node">
<title>Node1</title>
<g id="a_node1"><a xlink:title=" ">
<polygon fill="#999999" stroke="#666666" points="4493.27,-228 4380.27,-228 4380.27,-209 4493.27,-209 4493.27,-228"/>
<text text-anchor="middle" x="4436.77" y="-216" font-family="Helvetica,sans-Serif" font-size="10.00">include/d/d_vibration.h</text>
</a>
</g>
</g>
<!-- Node2 -->
<g id="node2" class="node">
<title>Node2</title>
<g id="a_node2"><a xlink:href="d__com__inf__game_8h.html" target="_top" xlink:title=" ">
<polygon fill="#fff0f0" stroke="red" points="3051.77,-173 2941.77,-173 2941.77,-143 3051.77,-143 3051.77,-173"/>
<text text-anchor="start" x="2949.77" y="-161" font-family="Helvetica,sans-Serif" font-size="10.00">include/d/com/d_com</text>
<text text-anchor="middle" x="2996.77" y="-150" font-family="Helvetica,sans-Serif" font-size="10.00">_inf_game.h</text>
</a>
</g>
</g>
<!-- Node1&#45;&gt;Node2 -->
<g id="edge1" class="edge">
<title>Node1&#45;&gt;Node2</title>
<path fill="none" stroke="#63b8ff" d="M4368.57,-214.73C4121.59,-204.7 3276.64,-170.37 3051.99,-161.24"/>
<polygon fill="#63b8ff" stroke="#63b8ff" points="4368.23,-218.22 4378.36,-215.13 4368.51,-211.22 4368.23,-218.22"/>
</g>
<!-- Node198 -->
<g id="node49" class="node">
<title>Node198</title>
<g id="a_node49"><a xlink:href="d__vibration_8cpp.html" target="_top" xlink:title=" ">
<polygon fill="white" stroke="#666666" points="5848.27,-96 5741.27,-96 5741.27,-77 5848.27,-77 5848.27,-96"/>
<text text-anchor="middle" x="5794.77" y="-84" font-family="Helvetica,sans-Serif" font-size="10.00">src/d/d_vibration.cpp</text>
</a>
</g>
</g>
<!-- Node1&#45;&gt;Node198 -->
<g id="edge54" class="edge">
<title>Node1&#45;&gt;Node198</title>
<path fill="none" stroke="#63b8ff" d="M4435.78,-197.2C4436.15,-179.86 4439.83,-155.75 4455.77,-143 4510.93,-98.87 5656.96,-117.82 5726.77,-107 5741.09,-104.78 5756.66,-100.46 5769.28,-96.45"/>
<polygon fill="#63b8ff" stroke="#63b8ff" points="4432.28,-197.16 4435.95,-207.1 4439.27,-197.04 4432.28,-197.16"/>
</g>
<!-- Node234 -->
<g id="node50" class="node">
<title>Node234</title>
<g id="a_node50"><a xlink:href="d__vib__pattern_8cpp.html" target="_top" xlink:title=" ">
<polygon fill="white" stroke="#666666" points="4582.77,-167.5 4464.77,-167.5 4464.77,-148.5 4582.77,-148.5 4582.77,-167.5"/>
<text text-anchor="middle" x="4523.77" y="-155.5" font-family="Helvetica,sans-Serif" font-size="10.00">src/d/d_vib_pattern.cpp</text>
</a>
</g>
</g>
<!-- Node1&#45;&gt;Node234 -->
<g id="edge53" class="edge">
<title>Node1&#45;&gt;Node234</title>
<path fill="none" stroke="#63b8ff" d="M4459.3,-202.35C4475.52,-191.44 4496.84,-177.11 4510.43,-167.97"/>
<polygon fill="#63b8ff" stroke="#63b8ff" points="4457.58,-199.29 4451.24,-207.77 4461.49,-205.09 4457.58,-199.29"/>
</g>
<!-- Node3 -->
<g id="node3" class="node">
<title>Node3</title>
<g id="a_node3"><a xlink:href="d__a__npc_8h.html" target="_top" xlink:title=" ">
<polygon fill="#fff0f0" stroke="red" points="113.27,-24.5 2.27,-24.5 2.27,-5.5 113.27,-5.5 113.27,-24.5"/>
<text text-anchor="middle" x="57.77" y="-12.5" font-family="Helvetica,sans-Serif" font-size="10.00">include/d/a/d_a_npc.h</text>
</a>
</g>
</g>
<!-- Node2&#45;&gt;Node3 -->
<g id="edge2" class="edge">
<title>Node2&#45;&gt;Node3</title>
<path fill="none" stroke="#63b8ff" d="M2930.01,-157.17C2493.35,-158.1 60.76,-160.89 7.77,-107 -5.01,-94.01 0.8,-82.84 7.77,-66 15.1,-48.31 32.06,-33.61 44.2,-24.83"/>
<polygon fill="#63b8ff" stroke="#63b8ff" points="2929.95,-160.67 2939.94,-157.14 2929.93,-153.67 2929.95,-160.67"/>
</g>
<!-- Node15 -->
<g id="node4" class="node">
<title>Node15</title>
<g id="a_node4"><a xlink:href="d__a__npc__cd_8h.html" target="_top" xlink:title=" ">
<polygon fill="#fff0f0" stroke="red" points="144.27,-96 17.27,-96 17.27,-77 144.27,-77 144.27,-96"/>
<text text-anchor="middle" x="80.77" y="-84" font-family="Helvetica,sans-Serif" font-size="10.00">include/d/a/d_a_npc_cd.h</text>
</a>
</g>
</g>
<!-- Node2&#45;&gt;Node15 -->
<g id="edge3" class="edge">
<title>Node2&#45;&gt;Node15</title>
<path fill="none" stroke="#63b8ff" d="M2930.08,-156.73C2528.61,-155.01 441.17,-144.29 158.77,-107 142.3,-104.83 124.29,-100.46 109.73,-96.41"/>
<polygon fill="#63b8ff" stroke="#63b8ff" points="2929.93,-160.23 2939.95,-156.78 2929.96,-153.23 2929.93,-160.23"/>
</g>
<!-- Node17 -->
<g id="node5" class="node">
<title>Node17</title>
<g id="a_node5"><a xlink:href="d__a__npc__cd2_8h.html" target="_top" xlink:title=" ">
<polygon fill="#fff0f0" stroke="red" points="5723.77,-30 5619.77,-30 5619.77,0 5723.77,0 5723.77,-30"/>
<text text-anchor="start" x="5627.77" y="-18" font-family="Helvetica,sans-Serif" font-size="10.00">include/d/a/d_a_npc</text>
<text text-anchor="middle" x="5671.77" y="-7" font-family="Helvetica,sans-Serif" font-size="10.00">_cd2.h</text>
</a>
</g>
</g>
<!-- Node2&#45;&gt;Node17 -->
<g id="edge4" class="edge">
<title>Node2&#45;&gt;Node17</title>
<path fill="none" stroke="#63b8ff" d="M3063.7,-156.39C3477.44,-152.58 5670,-131.21 5693.77,-107 5714.04,-86.35 5695.48,-50.42 5682.3,-30.45"/>
<polygon fill="#63b8ff" stroke="#63b8ff" points="3063.74,-152.89 3053.77,-156.49 3063.81,-159.89 3063.74,-152.89"/>
</g>
<!-- Node19 -->
<g id="node6" class="node">
<title>Node19</title>
<g id="a_node6"><a xlink:href="d__cc__uty_8h.html" target="_top" xlink:title=" ">
<polygon fill="#fff0f0" stroke="red" points="440.27,-96 321.27,-96 321.27,-77 440.27,-77 440.27,-96"/>
<text text-anchor="middle" x="380.77" y="-84" font-family="Helvetica,sans-Serif" font-size="10.00">include/d/cc/d_cc_uty.h</text>
</a>
</g>
</g>
<!-- Node2&#45;&gt;Node19 -->
<g id="edge5" class="edge">
<title>Node2&#45;&gt;Node19</title>
<path fill="none" stroke="#63b8ff" d="M2929.82,-156.72C2552.56,-155.03 700.07,-144.84 448.77,-107 434.32,-104.82 418.61,-100.46 405.93,-96.41"/>
<polygon fill="#63b8ff" stroke="#63b8ff" points="2929.8,-160.22 2939.81,-156.77 2929.83,-153.22 2929.8,-160.22"/>
</g>
<!-- Node30 -->
<g id="node7" class="node">
<title>Node30</title>
<g id="a_node7"><a xlink:href="d__bright__check_8h.html" target="_top" xlink:title=" ">
<polygon fill="#fff0f0" stroke="red" points="551.27,-101.5 458.27,-101.5 458.27,-71.5 551.27,-71.5 551.27,-101.5"/>
<text text-anchor="start" x="466.27" y="-89.5" font-family="Helvetica,sans-Serif" font-size="10.00">include/d/d_bright</text>
<text text-anchor="middle" x="504.77" y="-78.5" font-family="Helvetica,sans-Serif" font-size="10.00">_check.h</text>
</a>
</g>
</g>
<!-- Node2&#45;&gt;Node30 -->
<g id="edge6" class="edge">
<title>Node2&#45;&gt;Node30</title>
<path fill="none" stroke="#63b8ff" d="M2929.81,-156.88C2562.41,-156.05 799.26,-149.86 560.77,-107 554.28,-105.83 547.54,-104.03 541.08,-101.99"/>
<polygon fill="#63b8ff" stroke="#63b8ff" points="2929.76,-160.38 2939.76,-156.9 2929.77,-153.38 2929.76,-160.38"/>
</g>
<!-- Node32 -->
<g id="node8" class="node">
<title>Node32</title>
<g id="a_node8"><a xlink:href="d__error__msg_8h.html" target="_top" xlink:title=" ">
<polygon fill="#fff0f0" stroke="red" points="689.77,-96 569.77,-96 569.77,-77 689.77,-77 689.77,-96"/>
<text text-anchor="middle" x="629.77" y="-84" font-family="Helvetica,sans-Serif" font-size="10.00">include/d/d_error_msg.h</text>
</a>
</g>
</g>
<!-- Node2&#45;&gt;Node32 -->
<g id="edge7" class="edge">
<title>Node2&#45;&gt;Node32</title>
<path fill="none" stroke="#63b8ff" d="M2929.97,-156.56C2575.68,-154.07 924.06,-140.72 698.77,-107 684.24,-104.83 668.45,-100.51 655.64,-96.49"/>
<polygon fill="#63b8ff" stroke="#63b8ff" points="2929.75,-160.05 2939.78,-156.62 2929.8,-153.05 2929.75,-160.05"/>
</g>
<!-- Node35 -->
<g id="node9" class="node">
<title>Node35</title>
<g id="a_node9"><a xlink:href="d__npc__lib_8h.html" target="_top" xlink:title=" ">
<polygon fill="#fff0f0" stroke="red" points="5684.27,-96 5577.27,-96 5577.27,-77 5684.27,-77 5684.27,-96"/>
<text text-anchor="middle" x="5630.77" y="-84" font-family="Helvetica,sans-Serif" font-size="10.00">include/d/d_npc_lib.h</text>
</a>
</g>
</g>
<!-- Node2&#45;&gt;Node35 -->
<g id="edge8" class="edge">
<title>Node2&#45;&gt;Node35</title>
<path fill="none" stroke="#63b8ff" d="M3063.44,-156.19C3454.33,-151.38 5435.73,-126.12 5562.77,-107 5577.22,-104.82 5592.93,-100.46 5605.61,-96.41"/>
<polygon fill="#63b8ff" stroke="#63b8ff" points="3063.55,-152.69 3053.59,-156.31 3063.63,-159.69 3063.55,-152.69"/>
</g>
<!-- Node37 -->
<g id="node10" class="node">
<title>Node37</title>
<g id="a_node10"><a xlink:href="d__file__select_8h.html" target="_top" xlink:title=" ">
<polygon fill="#fff0f0" stroke="red" points="803.77,-101.5 707.77,-101.5 707.77,-71.5 803.77,-71.5 803.77,-101.5"/>
<text text-anchor="start" x="715.77" y="-89.5" font-family="Helvetica,sans-Serif" font-size="10.00">include/d/file/d_file</text>
<text text-anchor="middle" x="755.77" y="-78.5" font-family="Helvetica,sans-Serif" font-size="10.00">_select.h</text>
</a>
</g>
</g>
<!-- Node2&#45;&gt;Node37 -->
<g id="edge10" class="edge">
<title>Node2&#45;&gt;Node37</title>
<path fill="none" stroke="#63b8ff" d="M2929.98,-156.69C2586.32,-154.92 1025.24,-144.84 812.77,-107 806.18,-105.83 799.32,-104.02 792.74,-101.97"/>
<polygon fill="#63b8ff" stroke="#63b8ff" points="2929.92,-160.19 2939.93,-156.74 2929.95,-153.19 2929.92,-160.19"/>
</g>
<!-- Node39 -->
<g id="node11" class="node">
<title>Node39</title>
<g id="a_node11"><a xlink:href="d__menu__insect_8h.html" target="_top" xlink:title=" ">
<polygon fill="#fff0f0" stroke="red" points="941.77,-101.5 821.77,-101.5 821.77,-71.5 941.77,-71.5 941.77,-101.5"/>
<text text-anchor="start" x="829.77" y="-89.5" font-family="Helvetica,sans-Serif" font-size="10.00">include/d/menu/d_menu</text>
<text text-anchor="middle" x="881.77" y="-78.5" font-family="Helvetica,sans-Serif" font-size="10.00">_insect.h</text>
</a>
</g>
</g>
<!-- Node2&#45;&gt;Node39 -->
<g id="edge11" class="edge">
<title>Node2&#45;&gt;Node39</title>
<path fill="none" stroke="#63b8ff" d="M2930.27,-156.37C2600.64,-153.09 1149.87,-137.08 950.77,-107 942.89,-105.81 934.64,-104 926.69,-101.94"/>
<polygon fill="#63b8ff" stroke="#63b8ff" points="2929.97,-159.86 2940,-156.46 2930.04,-152.86 2929.97,-159.86"/>
</g>
<!-- Node44 -->
<g id="node12" class="node">
<title>Node44</title>
<g id="a_node12"><a xlink:href="d__menu__ring_8h.html" target="_top" xlink:title=" ">
<polygon fill="#fff0f0" stroke="red" points="1079.77,-101.5 959.77,-101.5 959.77,-71.5 1079.77,-71.5 1079.77,-101.5"/>
<text text-anchor="start" x="967.77" y="-89.5" font-family="Helvetica,sans-Serif" font-size="10.00">include/d/menu/d_menu</text>
<text text-anchor="middle" x="1019.77" y="-78.5" font-family="Helvetica,sans-Serif" font-size="10.00">_ring.h</text>
</a>
</g>
</g>
<!-- Node2&#45;&gt;Node44 -->
<g id="edge12" class="edge">
<title>Node2&#45;&gt;Node44</title>
<path fill="none" stroke="#63b8ff" d="M2930.2,-156.24C2614.26,-152.5 1273.53,-135.08 1088.77,-107 1080.89,-105.8 1072.64,-103.99 1064.7,-101.93"/>
<polygon fill="#63b8ff" stroke="#63b8ff" points="2929.89,-159.74 2939.93,-156.35 2929.97,-152.74 2929.89,-159.74"/>
</g>
<!-- Node46 -->
<g id="node13" class="node">
<title>Node46</title>
<g id="a_node13"><a xlink:href="d__msg__object_8h.html" target="_top" xlink:title=" ">
<polygon fill="#fff0f0" stroke="red" points="1207.77,-101.5 1097.77,-101.5 1097.77,-71.5 1207.77,-71.5 1207.77,-101.5"/>
<text text-anchor="start" x="1105.77" y="-89.5" font-family="Helvetica,sans-Serif" font-size="10.00">include/d/msg/d_msg</text>
<text text-anchor="middle" x="1152.77" y="-78.5" font-family="Helvetica,sans-Serif" font-size="10.00">_object.h</text>
</a>
</g>
</g>
<!-- Node2&#45;&gt;Node46 -->
<g id="edge13" class="edge">
<title>Node2&#45;&gt;Node46</title>
<path fill="none" stroke="#63b8ff" d="M2930.28,-156.19C2627.69,-152.33 1388,-134.97 1216.77,-107 1209.43,-105.8 1201.76,-103.98 1194.39,-101.93"/>
<polygon fill="#63b8ff" stroke="#63b8ff" points="2929.93,-159.68 2939.97,-156.31 2930.02,-152.68 2929.93,-159.68"/>
</g>
<!-- Node68 -->
<g id="node14" class="node">
<title>Node68</title>
<g id="a_node14"><a xlink:href="d__particle__copoly_8h.html" target="_top" xlink:title=" ">
<polygon fill="#fff0f0" stroke="red" points="302.77,-101.5 200.77,-101.5 200.77,-71.5 302.77,-71.5 302.77,-101.5"/>
<text text-anchor="start" x="208.77" y="-89.5" font-family="Helvetica,sans-Serif" font-size="10.00">include/d/particle</text>
<text text-anchor="middle" x="251.77" y="-78.5" font-family="Helvetica,sans-Serif" font-size="10.00">/d_particle_copoly.h</text>
</a>
</g>
</g>
<!-- Node2&#45;&gt;Node68 -->
<g id="edge14" class="edge">
<title>Node2&#45;&gt;Node68</title>
<path fill="none" stroke="#63b8ff" d="M2930.26,-156.94C2542.04,-156.4 576.77,-151.51 311.77,-107 304.86,-105.84 297.65,-104.04 290.73,-101.99"/>
<polygon fill="#63b8ff" stroke="#63b8ff" points="2930.03,-160.44 2940.04,-156.95 2930.04,-153.44 2930.03,-160.44"/>
</g>
<!-- Node75 -->
<g id="node15" class="node">
<title>Node75</title>
<g id="a_node15"><a xlink:href="d__a__cstaF_8h.html" target="_top" xlink:title=" ">
<polygon fill="white" stroke="#666666" points="263.27,-30 160.27,-30 160.27,0 263.27,0 263.27,-30"/>
<text text-anchor="start" x="168.27" y="-18" font-family="Helvetica,sans-Serif" font-size="10.00">include/rel/d/a/d_a</text>
<text text-anchor="middle" x="211.77" y="-7" font-family="Helvetica,sans-Serif" font-size="10.00">_cstaF/d_a_cstaF.h</text>
</a>
</g>
</g>
<!-- Node2&#45;&gt;Node75 -->
<g id="edge19" class="edge">
<title>Node2&#45;&gt;Node75</title>
<path fill="none" stroke="#63b8ff" d="M2930.17,-157.09C2509.89,-157.51 241.32,-157.44 191.77,-107 171.59,-86.46 189.14,-50.49 201.71,-30.48"/>
<polygon fill="#63b8ff" stroke="#63b8ff" points="2929.98,-160.59 2939.97,-157.08 2929.97,-153.59 2929.98,-160.59"/>
</g>
<!-- Node77 -->
<g id="node16" class="node">
<title>Node77</title>
<g id="a_node16"><a xlink:href="d__a__spinner_8h.html" target="_top" xlink:title=" ">
<polygon fill="#fff0f0" stroke="red" points="3000.77,-30 2884.77,-30 2884.77,0 3000.77,0 3000.77,-30"/>
<text text-anchor="start" x="2892.77" y="-18" font-family="Helvetica,sans-Serif" font-size="10.00">include/rel/d/a/d_a</text>
<text text-anchor="middle" x="2942.77" y="-7" font-family="Helvetica,sans-Serif" font-size="10.00">_spinner/d_a_spinner.h</text>
</a>
</g>
</g>
<!-- Node2&#45;&gt;Node77 -->
<g id="edge28" class="edge">
<title>Node2&#45;&gt;Node77</title>
<path fill="none" stroke="#63b8ff" d="M3063.39,-156.32C3461.3,-152.16 5507.53,-129.68 5529.77,-107 5542.53,-93.99 5542.53,-79.01 5529.77,-66 5483.99,-19.32 3380.77,-16.19 3001.16,-16.01"/>
<polygon fill="#63b8ff" stroke="#63b8ff" points="3063.58,-152.81 3053.61,-156.42 3063.65,-159.81 3063.58,-152.81"/>
</g>
<!-- Node83 -->
<g id="node17" class="node">
<title>Node83</title>
<g id="a_node17"><a xlink:href="d__a__andsw_8h.html" target="_top" xlink:title=" ">
<polygon fill="white" stroke="#666666" points="1335.77,-101.5 1225.77,-101.5 1225.77,-71.5 1335.77,-71.5 1335.77,-101.5"/>
<text text-anchor="start" x="1233.77" y="-89.5" font-family="Helvetica,sans-Serif" font-size="10.00">include/rel/d/a/d_a</text>
<text text-anchor="middle" x="1280.77" y="-78.5" font-family="Helvetica,sans-Serif" font-size="10.00">_andsw/d_a_andsw.h</text>
</a>
</g>
</g>
<!-- Node2&#45;&gt;Node83 -->
<g id="edge18" class="edge">
<title>Node2&#45;&gt;Node83</title>
<path fill="none" stroke="#63b8ff" d="M2929.99,-157.34C2661.16,-158.33 1657.58,-158.45 1344.77,-107 1337.43,-105.79 1329.77,-103.97 1322.39,-101.92"/>
<polygon fill="#63b8ff" stroke="#63b8ff" points="2929.99,-160.84 2939.98,-157.3 2929.96,-153.84 2929.99,-160.84"/>
</g>
<!-- Node84 -->
<g id="node18" class="node">
<title>Node84</title>
<g id="a_node18"><a xlink:href="d__a__dmidna_8h.html" target="_top" xlink:title=" ">
<polygon fill="white" stroke="#666666" points="1469.77,-101.5 1353.77,-101.5 1353.77,-71.5 1469.77,-71.5 1469.77,-101.5"/>
<text text-anchor="start" x="1361.77" y="-89.5" font-family="Helvetica,sans-Serif" font-size="10.00">include/rel/d/a/d_a</text>
<text text-anchor="middle" x="1411.77" y="-78.5" font-family="Helvetica,sans-Serif" font-size="10.00">_dmidna/d_a_dmidna.h</text>
</a>
</g>
</g>
<!-- Node2&#45;&gt;Node84 -->
<g id="edge20" class="edge">
<title>Node2&#45;&gt;Node84</title>
<path fill="none" stroke="#63b8ff" d="M2930,-157.02C2675.24,-156.74 1764.4,-152.53 1478.77,-107 1471.23,-105.8 1463.35,-104.01 1455.74,-101.99"/>
<polygon fill="#63b8ff" stroke="#63b8ff" points="2929.76,-160.52 2939.76,-157.03 2929.76,-153.52 2929.76,-160.52"/>
</g>
<!-- Node85 -->
<g id="node19" class="node">
<title>Node85</title>
<g id="a_node19"><a xlink:href="d__a__dshutter_8h.html" target="_top" xlink:title=" ">
<polygon fill="#fff0f0" stroke="red" points="1611.77,-101.5 1487.77,-101.5 1487.77,-71.5 1611.77,-71.5 1611.77,-101.5"/>
<text text-anchor="start" x="1495.77" y="-89.5" font-family="Helvetica,sans-Serif" font-size="10.00">include/rel/d/a/d_a</text>
<text text-anchor="middle" x="1549.77" y="-78.5" font-family="Helvetica,sans-Serif" font-size="10.00">_dshutter/d_a_dshutter.h</text>
</a>
</g>
</g>
<!-- Node2&#45;&gt;Node85 -->
<g id="edge21" class="edge">
<title>Node2&#45;&gt;Node85</title>
<path fill="none" stroke="#63b8ff" d="M2930,-156.62C2690.85,-154.94 1877.66,-146.4 1620.77,-107 1612.81,-105.78 1604.47,-103.98 1596.41,-101.96"/>
<polygon fill="#63b8ff" stroke="#63b8ff" points="2929.75,-160.12 2939.77,-156.69 2929.79,-153.12 2929.75,-160.12"/>
</g>
<!-- Node87 -->
<g id="node20" class="node">
<title>Node87</title>
<g id="a_node20"><a xlink:href="d__a__guard__mng_8h.html" target="_top" xlink:title=" ">
<polygon fill="white" stroke="#666666" points="1779.27,-101.5 1630.27,-101.5 1630.27,-71.5 1779.27,-71.5 1779.27,-101.5"/>
<text text-anchor="start" x="1638.27" y="-89.5" font-family="Helvetica,sans-Serif" font-size="10.00">include/rel/d/a/d_a</text>
<text text-anchor="middle" x="1704.77" y="-78.5" font-family="Helvetica,sans-Serif" font-size="10.00">_guard_mng/d_a_guard_mng.h</text>
</a>
</g>
</g>
<!-- Node2&#45;&gt;Node87 -->
<g id="edge22" class="edge">
<title>Node2&#45;&gt;Node87</title>
<path fill="none" stroke="#63b8ff" d="M2930.28,-155.88C2711.02,-151.95 2012.14,-137.28 1788.77,-107 1779.57,-105.75 1769.9,-103.97 1760.53,-101.97"/>
<polygon fill="#63b8ff" stroke="#63b8ff" points="2930.01,-159.38 2940.07,-156.06 2930.13,-152.38 2930.01,-159.38"/>
</g>
<!-- Node88 -->
<g id="node21" class="node">
<title>Node88</title>
<g id="a_node21"><a xlink:href="d__a__hitobj_8h.html" target="_top" xlink:title=" ">
<polygon fill="white" stroke="#666666" points="1897.77,-101.5 1797.77,-101.5 1797.77,-71.5 1897.77,-71.5 1897.77,-101.5"/>
<text text-anchor="start" x="1805.77" y="-89.5" font-family="Helvetica,sans-Serif" font-size="10.00">include/rel/d/a/d_a</text>
<text text-anchor="middle" x="1847.77" y="-78.5" font-family="Helvetica,sans-Serif" font-size="10.00">_hitobj/d_a_hitobj.h</text>
</a>
</g>
</g>
<!-- Node2&#45;&gt;Node88 -->
<g id="edge23" class="edge">
<title>Node2&#45;&gt;Node88</title>
<path fill="none" stroke="#63b8ff" d="M2929.84,-156.32C2724.36,-153.86 2104.59,-143.51 1906.77,-107 1900.09,-105.77 1893.12,-103.96 1886.41,-101.93"/>
<polygon fill="#63b8ff" stroke="#63b8ff" points="2929.78,-159.82 2939.82,-156.44 2929.86,-152.82 2929.78,-159.82"/>
</g>
<!-- Node89 -->
<g id="node22" class="node">
<title>Node89</title>
<g id="a_node22"><a xlink:href="d__a__izumi__gate_8h.html" target="_top" xlink:title=" ">
<polygon fill="white" stroke="#666666" points="2031.27,-107 1916.27,-107 1916.27,-66 2031.27,-66 2031.27,-107"/>
<text text-anchor="start" x="1924.27" y="-95" font-family="Helvetica,sans-Serif" font-size="10.00">include/rel/d/a/d_a</text>
<text text-anchor="start" x="1924.27" y="-84" font-family="Helvetica,sans-Serif" font-size="10.00">_izumi_gate/d_a_izumi</text>
<text text-anchor="middle" x="1973.77" y="-73" font-family="Helvetica,sans-Serif" font-size="10.00">_gate.h</text>
</a>
</g>
</g>
<!-- Node2&#45;&gt;Node89 -->
<g id="edge24" class="edge">
<title>Node2&#45;&gt;Node89</title>
<path fill="none" stroke="#63b8ff" d="M2930.23,-155.52C2742.69,-151.03 2212.31,-136.05 2040.77,-107 2037.78,-106.49 2034.74,-105.9 2031.68,-105.24"/>
<polygon fill="#63b8ff" stroke="#63b8ff" points="2929.96,-159.01 2940.04,-155.75 2930.13,-152.02 2929.96,-159.01"/>
</g>
<!-- Node90 -->
<g id="node23" class="node">
<title>Node90</title>
<g id="a_node23"><a xlink:href="d__a__midna_8h.html" target="_top" xlink:title=" ">
<polygon fill="#fff0f0" stroke="red" points="2155.77,-101.5 2049.77,-101.5 2049.77,-71.5 2155.77,-71.5 2155.77,-101.5"/>
<text text-anchor="start" x="2057.77" y="-89.5" font-family="Helvetica,sans-Serif" font-size="10.00">include/rel/d/a/d_a</text>
<text text-anchor="middle" x="2102.77" y="-78.5" font-family="Helvetica,sans-Serif" font-size="10.00">_midna/d_a_midna.h</text>
</a>
</g>
</g>
<!-- Node2&#45;&gt;Node90 -->
<g id="edge25" class="edge">
<title>Node2&#45;&gt;Node90</title>
<path fill="none" stroke="#63b8ff" d="M2930.16,-155.1C2759.77,-149.9 2311.18,-134 2164.77,-107 2157.89,-105.73 2150.71,-103.93 2143.77,-101.94"/>
<polygon fill="#63b8ff" stroke="#63b8ff" points="2929.84,-158.59 2939.95,-155.39 2930.06,-151.59 2929.84,-158.59"/>
</g>
<!-- Node91 -->
<g id="node24" class="node">
<title>Node91</title>
<g id="a_node24"><a xlink:href="d__a__set__bgobj_8h.html" target="_top" xlink:title=" ">
<polygon fill="#fff0f0" stroke="red" points="2311.27,-101.5 2174.27,-101.5 2174.27,-71.5 2311.27,-71.5 2311.27,-101.5"/>
<text text-anchor="start" x="2182.27" y="-89.5" font-family="Helvetica,sans-Serif" font-size="10.00">include/rel/d/a/d_a</text>
<text text-anchor="middle" x="2242.77" y="-78.5" font-family="Helvetica,sans-Serif" font-size="10.00">_set_bgobj/d_a_set_bgobj.h</text>
</a>
</g>
</g>
<!-- Node2&#45;&gt;Node91 -->
<g id="edge26" class="edge">
<title>Node2&#45;&gt;Node91</title>
<path fill="none" stroke="#63b8ff" d="M2930.32,-155.85C2808.65,-152.91 2542.23,-142.6 2320.77,-107 2312.5,-105.67 2303.82,-103.89 2295.38,-101.95"/>
<polygon fill="#63b8ff" stroke="#63b8ff" points="2930.04,-159.34 2940.12,-156.08 2930.2,-152.34 2930.04,-159.34"/>
</g>
<!-- Node92 -->
<g id="node25" class="node">
<title>Node92</title>
<g id="a_node25"><a xlink:href="d__a__skip__2D_8h.html" target="_top" xlink:title=" ">
<polygon fill="white" stroke="#666666" points="2453.77,-101.5 2329.77,-101.5 2329.77,-71.5 2453.77,-71.5 2453.77,-101.5"/>
<text text-anchor="start" x="2337.77" y="-89.5" font-family="Helvetica,sans-Serif" font-size="10.00">include/rel/d/a/d_a</text>
<text text-anchor="middle" x="2391.77" y="-78.5" font-family="Helvetica,sans-Serif" font-size="10.00">_skip_2D/d_a_skip_2D.h</text>
</a>
</g>
</g>
<!-- Node2&#45;&gt;Node92 -->
<g id="edge27" class="edge">
<title>Node2&#45;&gt;Node92</title>
<path fill="none" stroke="#63b8ff" d="M2930.07,-154.5C2828.49,-149.84 2629.24,-137.41 2462.77,-107 2455.35,-105.64 2447.58,-103.88 2440.01,-101.96"/>
<polygon fill="#63b8ff" stroke="#63b8ff" points="2929.71,-157.98 2939.86,-154.93 2930.02,-150.99 2929.71,-157.98"/>
</g>
<!-- Node93 -->
<g id="node26" class="node">
<title>Node93</title>
<g id="a_node26"><a xlink:href="d__a__swTime_8h.html" target="_top" xlink:title=" ">
<polygon fill="white" stroke="#666666" points="2593.77,-101.5 2471.77,-101.5 2471.77,-71.5 2593.77,-71.5 2593.77,-101.5"/>
<text text-anchor="start" x="2479.77" y="-89.5" font-family="Helvetica,sans-Serif" font-size="10.00">include/rel/d/a/d_a</text>
<text text-anchor="middle" x="2532.77" y="-78.5" font-family="Helvetica,sans-Serif" font-size="10.00">_swTime/d_a_swTime.h</text>
</a>
</g>
</g>
<!-- Node2&#45;&gt;Node93 -->
<g id="edge29" class="edge">
<title>Node2&#45;&gt;Node93</title>
<path fill="none" stroke="#63b8ff" d="M2930.35,-151.54C2851.64,-144.39 2716.8,-129.99 2602.77,-107 2595.72,-105.58 2588.34,-103.82 2581.13,-101.95"/>
<polygon fill="#63b8ff" stroke="#63b8ff" points="2929.76,-155 2940.04,-152.41 2930.39,-148.03 2929.76,-155"/>
</g>
<!-- Node94 -->
<g id="node27" class="node">
<title>Node94</title>
<g id="a_node27"><a xlink:href="d__a__vrbox_8h.html" target="_top" xlink:title=" ">
<polygon fill="white" stroke="#666666" points="2711.77,-101.5 2611.77,-101.5 2611.77,-71.5 2711.77,-71.5 2711.77,-101.5"/>
<text text-anchor="start" x="2619.77" y="-89.5" font-family="Helvetica,sans-Serif" font-size="10.00">include/rel/d/a/d_a</text>
<text text-anchor="middle" x="2661.77" y="-78.5" font-family="Helvetica,sans-Serif" font-size="10.00">_vrbox/d_a_vrbox.h</text>
</a>
</g>
</g>
<!-- Node2&#45;&gt;Node94 -->
<g id="edge30" class="edge">
<title>Node2&#45;&gt;Node94</title>
<path fill="none" stroke="#63b8ff" d="M2930.05,-147.59C2873.8,-139.03 2791.41,-124.98 2720.77,-107 2715.02,-105.54 2709.02,-103.8 2703.13,-101.98"/>
<polygon fill="#63b8ff" stroke="#63b8ff" points="2929.39,-151.03 2939.8,-149.06 2930.43,-144.11 2929.39,-151.03"/>
</g>
<!-- Node95 -->
<g id="node28" class="node">
<title>Node95</title>
<g id="a_node28"><a xlink:href="d__a__door__dbdoor00_8h.html" target="_top" xlink:title=" ">
<polygon fill="white" stroke="#666666" points="2843.27,-107 2730.27,-107 2730.27,-66 2843.27,-66 2843.27,-107"/>
<text text-anchor="start" x="2738.27" y="-95" font-family="Helvetica,sans-Serif" font-size="10.00">include/rel/d/a/door</text>
<text text-anchor="start" x="2738.27" y="-84" font-family="Helvetica,sans-Serif" font-size="10.00">/d_a_door_dbdoor00/d</text>
<text text-anchor="middle" x="2786.77" y="-73" font-family="Helvetica,sans-Serif" font-size="10.00">_a_door_dbdoor00.h</text>
</a>
</g>
</g>
<!-- Node2&#45;&gt;Node95 -->
<g id="edge31" class="edge">
<title>Node2&#45;&gt;Node95</title>
<path fill="none" stroke="#63b8ff" d="M2942.2,-138.94C2911.92,-128.92 2874.3,-116.47 2843.65,-106.33"/>
<polygon fill="#63b8ff" stroke="#63b8ff" points="2940.97,-142.22 2951.56,-142.04 2943.17,-135.57 2940.97,-142.22"/>
</g>
<!-- Node96 -->
<g id="node29" class="node">
<title>Node96</title>
<g id="a_node29"><a xlink:href="d__a__door__push_8h.html" target="_top" xlink:title=" ">
<polygon fill="white" stroke="#666666" points="2989.77,-107 2861.77,-107 2861.77,-66 2989.77,-66 2989.77,-107"/>
<text text-anchor="start" x="2869.77" y="-95" font-family="Helvetica,sans-Serif" font-size="10.00">include/rel/d/a/door</text>
<text text-anchor="start" x="2869.77" y="-84" font-family="Helvetica,sans-Serif" font-size="10.00">/d_a_door_push/d_a_door</text>
<text text-anchor="middle" x="2925.77" y="-73" font-family="Helvetica,sans-Serif" font-size="10.00">_push.h</text>
</a>
</g>
</g>
<!-- Node2&#45;&gt;Node96 -->
<g id="edge32" class="edge">
<title>Node2&#45;&gt;Node96</title>
<path fill="none" stroke="#63b8ff" d="M2973.95,-134.66C2965,-125.9 2954.81,-115.93 2946.11,-107.42"/>
<polygon fill="#63b8ff" stroke="#63b8ff" points="2971.38,-137.05 2980.98,-141.54 2976.28,-132.04 2971.38,-137.05"/>
</g>
<!-- Node97 -->
<g id="node30" class="node">
<title>Node97</title>
<g id="a_node30"><a xlink:href="d__a__e__db__leaf_8h.html" target="_top" xlink:title=" ">
<polygon fill="white" stroke="#666666" points="3127.27,-107 3008.27,-107 3008.27,-66 3127.27,-66 3127.27,-107"/>
<text text-anchor="start" x="3016.27" y="-95" font-family="Helvetica,sans-Serif" font-size="10.00">include/rel/d/a/e/d</text>
<text text-anchor="start" x="3016.27" y="-84" font-family="Helvetica,sans-Serif" font-size="10.00">_a_e_db_leaf/d_a_e_db</text>
<text text-anchor="middle" x="3067.77" y="-73" font-family="Helvetica,sans-Serif" font-size="10.00">_leaf.h</text>
</a>
</g>
</g>
<!-- Node2&#45;&gt;Node97 -->
<g id="edge33" class="edge">
<title>Node2&#45;&gt;Node97</title>
<path fill="none" stroke="#63b8ff" d="M3019.59,-134.66C3028.54,-125.9 3038.73,-115.93 3047.42,-107.42"/>
<polygon fill="#63b8ff" stroke="#63b8ff" points="3017.26,-132.04 3012.56,-141.54 3022.16,-137.05 3017.26,-132.04"/>
</g>
<!-- Node98 -->
<g id="node31" class="node">
<title>Node98</title>
<g id="a_node31"><a xlink:href="d__a__kytag02_8h.html" target="_top" xlink:title=" ">
<polygon fill="white" stroke="#666666" points="3285.77,-101.5 3145.77,-101.5 3145.77,-71.5 3285.77,-71.5 3285.77,-101.5"/>
<text text-anchor="start" x="3153.77" y="-89.5" font-family="Helvetica,sans-Serif" font-size="10.00">include/rel/d/a/kytag</text>
<text text-anchor="middle" x="3215.77" y="-78.5" font-family="Helvetica,sans-Serif" font-size="10.00">/d_a_kytag02/d_a_kytag02.h</text>
</a>
</g>
</g>
<!-- Node2&#45;&gt;Node98 -->
<g id="edge34" class="edge">
<title>Node2&#45;&gt;Node98</title>
<path fill="none" stroke="#63b8ff" d="M3053.33,-139.05C3089.66,-127.52 3136.23,-112.74 3170.18,-101.97"/>
<polygon fill="#63b8ff" stroke="#63b8ff" points="3052.33,-135.7 3043.85,-142.06 3054.44,-142.37 3052.33,-135.7"/>
</g>
<!-- Node99 -->
<g id="node32" class="node">
<title>Node99</title>
<g id="a_node32"><a xlink:href="d__a__obj__bombf_8h.html" target="_top" xlink:title=" ">
<polygon fill="white" stroke="#666666" points="3425.77,-107 3303.77,-107 3303.77,-66 3425.77,-66 3425.77,-107"/>
<text text-anchor="start" x="3311.77" y="-95" font-family="Helvetica,sans-Serif" font-size="10.00">include/rel/d/a/obj</text>
<text text-anchor="start" x="3311.77" y="-84" font-family="Helvetica,sans-Serif" font-size="10.00">/d_a_obj_bombf/d_a_obj</text>
<text text-anchor="middle" x="3364.77" y="-73" font-family="Helvetica,sans-Serif" font-size="10.00">_bombf.h</text>
</a>
</g>
</g>
<!-- Node2&#45;&gt;Node99 -->
<g id="edge35" class="edge">
<title>Node2&#45;&gt;Node99</title>
<path fill="none" stroke="#63b8ff" d="M3063.36,-147.88C3124.01,-139.09 3215.87,-124.56 3294.77,-107 3297.6,-106.37 3300.49,-105.7 3303.4,-104.99"/>
<polygon fill="#63b8ff" stroke="#63b8ff" points="3062.93,-144.41 3053.53,-149.29 3063.92,-151.34 3062.93,-144.41"/>
</g>
<!-- Node100 -->
<g id="node33" class="node">
<title>Node100</title>
<g id="a_node33"><a xlink:href="d__a__obj__carry_8h.html" target="_top" xlink:title=" ">
<polygon fill="#fff0f0" stroke="red" points="3559.77,-107 3443.77,-107 3443.77,-66 3559.77,-66 3559.77,-107"/>
<text text-anchor="start" x="3451.77" y="-95" font-family="Helvetica,sans-Serif" font-size="10.00">include/rel/d/a/obj</text>
<text text-anchor="start" x="3451.77" y="-84" font-family="Helvetica,sans-Serif" font-size="10.00">/d_a_obj_carry/d_a_obj</text>
<text text-anchor="middle" x="3501.77" y="-73" font-family="Helvetica,sans-Serif" font-size="10.00">_carry.h</text>
</a>
</g>
</g>
<!-- Node2&#45;&gt;Node100 -->
<g id="edge36" class="edge">
<title>Node2&#45;&gt;Node100</title>
<path fill="none" stroke="#63b8ff" d="M3063.68,-152.9C3150.06,-146.81 3304.75,-133.15 3434.77,-107 3437.62,-106.43 3440.52,-105.79 3443.45,-105.11"/>
<polygon fill="#63b8ff" stroke="#63b8ff" points="3063.45,-149.41 3053.72,-153.59 3063.93,-156.39 3063.45,-149.41"/>
</g>
<!-- Node102 -->
<g id="node34" class="node">
<title>Node102</title>
<g id="a_node34"><a xlink:href="d__a__obj__cboard_8h.html" target="_top" xlink:title=" ">
<polygon fill="white" stroke="#666666" points="3685.27,-107 3578.27,-107 3578.27,-66 3685.27,-66 3685.27,-107"/>
<text text-anchor="start" x="3586.27" y="-95" font-family="Helvetica,sans-Serif" font-size="10.00">include/rel/d/a/obj</text>
<text text-anchor="start" x="3586.27" y="-84" font-family="Helvetica,sans-Serif" font-size="10.00">/d_a_obj_cboard/d_a</text>
<text text-anchor="middle" x="3631.77" y="-73" font-family="Helvetica,sans-Serif" font-size="10.00">_obj_cboard.h</text>
</a>
</g>
</g>
<!-- Node2&#45;&gt;Node102 -->
<g id="edge37" class="edge">
<title>Node2&#45;&gt;Node102</title>
<path fill="none" stroke="#63b8ff" d="M3063.42,-155.76C3170.79,-152.75 3388.26,-142.4 3568.77,-107 3571.8,-106.4 3574.9,-105.72 3578.01,-104.97"/>
<polygon fill="#63b8ff" stroke="#63b8ff" points="3063.55,-152.26 3053.64,-156.02 3063.73,-159.26 3063.55,-152.26"/>
</g>
<!-- Node103 -->
<g id="node35" class="node">
<title>Node103</title>
<g id="a_node35"><a xlink:href="d__a__obj__cowdoor_8h.html" target="_top" xlink:title=" ">
<polygon fill="white" stroke="#666666" points="3817.77,-107 3703.77,-107 3703.77,-66 3817.77,-66 3817.77,-107"/>
<text text-anchor="start" x="3711.77" y="-95" font-family="Helvetica,sans-Serif" font-size="10.00">include/rel/d/a/obj</text>
<text text-anchor="start" x="3711.77" y="-84" font-family="Helvetica,sans-Serif" font-size="10.00">/d_a_obj_cowdoor/d_a</text>
<text text-anchor="middle" x="3760.77" y="-73" font-family="Helvetica,sans-Serif" font-size="10.00">_obj_cowdoor.h</text>
</a>
</g>
</g>
<!-- Node2&#45;&gt;Node103 -->
<g id="edge38" class="edge">
<title>Node2&#45;&gt;Node103</title>
<path fill="none" stroke="#63b8ff" d="M3063.15,-156.89C3187.75,-155.66 3464.78,-148.06 3693.77,-107 3696.99,-106.42 3700.27,-105.75 3703.58,-105.01"/>
<polygon fill="#63b8ff" stroke="#63b8ff" points="3063.41,-153.39 3053.44,-156.98 3063.47,-160.39 3063.41,-153.39"/>
</g>
<!-- Node104 -->
<g id="node36" class="node">
<title>Node104</title>
<g id="a_node36"><a xlink:href="d__a__obj__digholl_8h.html" target="_top" xlink:title=" ">
<polygon fill="white" stroke="#666666" points="3941.27,-107 3836.27,-107 3836.27,-66 3941.27,-66 3941.27,-107"/>
<text text-anchor="start" x="3844.27" y="-95" font-family="Helvetica,sans-Serif" font-size="10.00">include/rel/d/a/obj</text>
<text text-anchor="start" x="3844.27" y="-84" font-family="Helvetica,sans-Serif" font-size="10.00">/d_a_obj_digholl/d_a</text>
<text text-anchor="middle" x="3888.77" y="-73" font-family="Helvetica,sans-Serif" font-size="10.00">_obj_digholl.h</text>
</a>
</g>
</g>
<!-- Node2&#45;&gt;Node104 -->
<g id="edge39" class="edge">
<title>Node2&#45;&gt;Node104</title>
<path fill="none" stroke="#63b8ff" d="M3063.52,-155.08C3233.73,-149.86 3680.8,-133.93 3826.77,-107 3829.77,-106.45 3832.82,-105.79 3835.88,-105.07"/>
<polygon fill="#63b8ff" stroke="#63b8ff" points="3063.64,-151.58 3053.75,-155.38 3063.85,-158.58 3063.64,-151.58"/>
</g>
<!-- Node105 -->
<g id="node37" class="node">
<title>Node105</title>
<g id="a_node37"><a xlink:href="d__a__obj__dmelevator_8h.html" target="_top" xlink:title=" ">
<polygon fill="white" stroke="#666666" points="4073.77,-107 3959.77,-107 3959.77,-66 4073.77,-66 4073.77,-107"/>
<text text-anchor="start" x="3967.77" y="-95" font-family="Helvetica,sans-Serif" font-size="10.00">include/rel/d/a/obj</text>
<text text-anchor="start" x="3967.77" y="-84" font-family="Helvetica,sans-Serif" font-size="10.00">/d_a_obj_dmelevator</text>
<text text-anchor="middle" x="4016.77" y="-73" font-family="Helvetica,sans-Serif" font-size="10.00">/d_a_obj_dmelevator.h</text>
</a>
</g>
</g>
<!-- Node2&#45;&gt;Node105 -->
<g id="edge40" class="edge">
<title>Node2&#45;&gt;Node105</title>
<path fill="none" stroke="#63b8ff" d="M3063.42,-155.5C3250.67,-150.98 3778.87,-135.95 3949.77,-107 3952.99,-106.45 3956.28,-105.81 3959.59,-105.08"/>
<polygon fill="#63b8ff" stroke="#63b8ff" points="3063.54,-152 3053.63,-155.74 3063.71,-159 3063.54,-152"/>
</g>
<!-- Node106 -->
<g id="node38" class="node">
<title>Node106</title>
<g id="a_node38"><a xlink:href="d__a__obj__enemy__create_8h.html" target="_top" xlink:title=" ">
<polygon fill="white" stroke="#666666" points="4219.27,-107 4092.27,-107 4092.27,-66 4219.27,-66 4219.27,-107"/>
<text text-anchor="start" x="4100.27" y="-95" font-family="Helvetica,sans-Serif" font-size="10.00">include/rel/d/a/obj</text>
<text text-anchor="start" x="4100.27" y="-84" font-family="Helvetica,sans-Serif" font-size="10.00">/d_a_obj_enemy_create</text>
<text text-anchor="middle" x="4155.77" y="-73" font-family="Helvetica,sans-Serif" font-size="10.00">/d_a_obj_enemy_create.h</text>
</a>
</g>
</g>
<!-- Node2&#45;&gt;Node106 -->
<g id="edge41" class="edge">
<title>Node2&#45;&gt;Node106</title>
<path fill="none" stroke="#63b8ff" d="M3063.72,-155.8C3268.56,-151.84 3884.82,-137.63 4082.77,-107 4085.75,-106.54 4088.79,-106 4091.84,-105.41"/>
<polygon fill="#63b8ff" stroke="#63b8ff" points="3063.71,-152.3 3053.78,-155.99 3063.85,-159.3 3063.71,-152.3"/>
</g>
<!-- Node107 -->
<g id="node39" class="node">
<title>Node107</title>
<g id="a_node39"><a xlink:href="d__a__obj__fallobj_8h.html" target="_top" xlink:title=" ">
<polygon fill="white" stroke="#666666" points="4340.27,-107 4237.27,-107 4237.27,-66 4340.27,-66 4340.27,-107"/>
<text text-anchor="start" x="4245.27" y="-95" font-family="Helvetica,sans-Serif" font-size="10.00">include/rel/d/a/obj</text>
<text text-anchor="start" x="4245.27" y="-84" font-family="Helvetica,sans-Serif" font-size="10.00">/d_a_obj_fallobj/d_a</text>
<text text-anchor="middle" x="4288.77" y="-73" font-family="Helvetica,sans-Serif" font-size="10.00">_obj_fallobj.h</text>
</a>
</g>
</g>
<!-- Node2&#45;&gt;Node107 -->
<g id="edge42" class="edge">
<title>Node2&#45;&gt;Node107</title>
<path fill="none" stroke="#63b8ff" d="M3063.49,-156.65C3285.97,-155.1 4001.19,-147.06 4227.77,-107 4230.83,-106.46 4233.96,-105.8 4237.09,-105.06"/>
<polygon fill="#63b8ff" stroke="#63b8ff" points="3063.52,-153.15 3053.54,-156.71 3063.56,-160.15 3063.52,-153.15"/>
</g>
<!-- Node108 -->
<g id="node40" class="node">
<title>Node108</title>
<g id="a_node40"><a xlink:href="d__a__obj__fireWood_8h.html" target="_top" xlink:title=" ">
<polygon fill="white" stroke="#666666" points="4462.77,-107 4358.77,-107 4358.77,-66 4462.77,-66 4462.77,-107"/>
<text text-anchor="start" x="4366.77" y="-95" font-family="Helvetica,sans-Serif" font-size="10.00">include/rel/d/a/obj</text>
<text text-anchor="start" x="4366.77" y="-84" font-family="Helvetica,sans-Serif" font-size="10.00">/d_a_obj_fireWood/d</text>
<text text-anchor="middle" x="4410.77" y="-73" font-family="Helvetica,sans-Serif" font-size="10.00">_a_obj_fireWood.h</text>
</a>
</g>
</g>
<!-- Node2&#45;&gt;Node108 -->
<g id="edge43" class="edge">
<title>Node2&#45;&gt;Node108</title>
<path fill="none" stroke="#63b8ff" d="M3063.58,-156.89C3300.18,-156.13 4097.53,-150.34 4348.77,-107 4351.99,-106.44 4355.28,-105.76 4358.58,-104.99"/>
<polygon fill="#63b8ff" stroke="#63b8ff" points="3063.58,-153.39 3053.59,-156.92 3063.6,-160.39 3063.58,-153.39"/>
</g>
<!-- Node109 -->
<g id="node41" class="node">
<title>Node109</title>
<g id="a_node41"><a xlink:href="d__a__obj__fireWood2_8h.html" target="_top" xlink:title=" ">
<polygon fill="white" stroke="#666666" points="4590.77,-107 4480.77,-107 4480.77,-66 4590.77,-66 4590.77,-107"/>
<text text-anchor="start" x="4488.77" y="-95" font-family="Helvetica,sans-Serif" font-size="10.00">include/rel/d/a/obj</text>
<text text-anchor="start" x="4488.77" y="-84" font-family="Helvetica,sans-Serif" font-size="10.00">/d_a_obj_fireWood2/d</text>
<text text-anchor="middle" x="4535.77" y="-73" font-family="Helvetica,sans-Serif" font-size="10.00">_a_obj_fireWood2.h</text>
</a>
</g>
</g>
<!-- Node2&#45;&gt;Node109 -->
<g id="edge44" class="edge">
<title>Node2&#45;&gt;Node109</title>
<path fill="none" stroke="#63b8ff" d="M3063.29,-157.05C3313.13,-156.89 4195.13,-153.01 4471.77,-107 4474.63,-106.52 4477.55,-105.95 4480.48,-105.31"/>
<polygon fill="#63b8ff" stroke="#63b8ff" points="3063.39,-153.55 3053.39,-157.06 3063.4,-160.55 3063.39,-153.55"/>
</g>
<!-- Node110 -->
<g id="node42" class="node">
<title>Node110</title>
<g id="a_node42"><a xlink:href="d__a__obj__ganonwall_8h.html" target="_top" xlink:title=" ">
<polygon fill="white" stroke="#666666" points="4718.77,-107 4608.77,-107 4608.77,-66 4718.77,-66 4718.77,-107"/>
<text text-anchor="start" x="4616.77" y="-95" font-family="Helvetica,sans-Serif" font-size="10.00">include/rel/d/a/obj</text>
<text text-anchor="start" x="4616.77" y="-84" font-family="Helvetica,sans-Serif" font-size="10.00">/d_a_obj_ganonwall/d</text>
<text text-anchor="middle" x="4663.77" y="-73" font-family="Helvetica,sans-Serif" font-size="10.00">_a_obj_ganonwall.h</text>
</a>
</g>
</g>
<!-- Node2&#45;&gt;Node110 -->
<g id="edge45" class="edge">
<title>Node2&#45;&gt;Node110</title>
<path fill="none" stroke="#63b8ff" d="M3063.32,-157.26C3326.77,-157.95 4296.93,-156.95 4599.77,-107 4602.63,-106.53 4605.55,-105.96 4608.48,-105.32"/>
<polygon fill="#63b8ff" stroke="#63b8ff" points="3063.57,-153.77 3053.56,-157.24 3063.55,-160.77 3063.57,-153.77"/>
</g>
<!-- Node111 -->
<g id="node43" class="node">
<title>Node111</title>
<g id="a_node43"><a xlink:href="d__a__obj__graWall_8h.html" target="_top" xlink:title=" ">
<polygon fill="white" stroke="#666666" points="4846.77,-107 4736.77,-107 4736.77,-66 4846.77,-66 4846.77,-107"/>
<text text-anchor="start" x="4744.77" y="-95" font-family="Helvetica,sans-Serif" font-size="10.00">include/rel/d/a/obj</text>
<text text-anchor="start" x="4744.77" y="-84" font-family="Helvetica,sans-Serif" font-size="10.00">/d_a_obj_graWall/d_a</text>
<text text-anchor="middle" x="4791.77" y="-73" font-family="Helvetica,sans-Serif" font-size="10.00">_obj_graWall.h</text>
</a>
</g>
</g>
<!-- Node2&#45;&gt;Node111 -->
<g id="edge46" class="edge">
<title>Node2&#45;&gt;Node111</title>
<path fill="none" stroke="#63b8ff" d="M3063.53,-157.45C3340.33,-158.93 4398.71,-160.88 4727.77,-107 4730.63,-106.53 4733.55,-105.97 4736.48,-105.33"/>
<polygon fill="#63b8ff" stroke="#63b8ff" points="3063.62,-153.95 3053.6,-157.39 3063.58,-160.95 3063.62,-153.95"/>
</g>
<!-- Node112 -->
<g id="node44" class="node">
<title>Node112</title>
<g id="a_node44"><a xlink:href="d__a__obj__kjgjs_8h.html" target="_top" xlink:title=" ">
<polygon fill="white" stroke="#666666" points="4980.77,-107 4864.77,-107 4864.77,-66 4980.77,-66 4980.77,-107"/>
<text text-anchor="start" x="4872.77" y="-95" font-family="Helvetica,sans-Serif" font-size="10.00">include/rel/d/a/obj</text>
<text text-anchor="start" x="4872.77" y="-84" font-family="Helvetica,sans-Serif" font-size="10.00">/d_a_obj_kjgjs/d_a_obj</text>
<text text-anchor="middle" x="4922.77" y="-73" font-family="Helvetica,sans-Serif" font-size="10.00">_kjgjs.h</text>
</a>
</g>
</g>
<!-- Node2&#45;&gt;Node112 -->
<g id="edge47" class="edge">
<title>Node2&#45;&gt;Node112</title>
<path fill="none" stroke="#63b8ff" d="M3063.15,-156.22C3373.77,-152.45 4676.17,-135.07 4855.77,-107 4858.64,-106.55 4861.56,-106.01 4864.5,-105.41"/>
<polygon fill="#63b8ff" stroke="#63b8ff" points="3063.57,-152.72 3053.61,-156.34 3063.65,-159.72 3063.57,-152.72"/>
</g>
<!-- Node113 -->
<g id="node45" class="node">
<title>Node113</title>
<g id="a_node45"><a xlink:href="d__a__obj__kkanban_8h.html" target="_top" xlink:title=" ">
<polygon fill="white" stroke="#666666" points="5112.77,-107 4998.77,-107 4998.77,-66 5112.77,-66 5112.77,-107"/>
<text text-anchor="start" x="5006.77" y="-95" font-family="Helvetica,sans-Serif" font-size="10.00">include/rel/d/a/obj</text>
<text text-anchor="start" x="5006.77" y="-84" font-family="Helvetica,sans-Serif" font-size="10.00">/d_a_obj_kkanban/d_a</text>
<text text-anchor="middle" x="5055.77" y="-73" font-family="Helvetica,sans-Serif" font-size="10.00">_obj_kkanban.h</text>
</a>
</g>
</g>
<!-- Node2&#45;&gt;Node113 -->
<g id="edge48" class="edge">
<title>Node2&#45;&gt;Node113</title>
<path fill="none" stroke="#63b8ff" d="M3063.14,-156.37C3387.3,-153.14 4796.32,-137.46 4989.77,-107 4992.6,-106.55 4995.48,-106.02 4998.38,-105.42"/>
<polygon fill="#63b8ff" stroke="#63b8ff" points="3063.55,-152.86 3053.58,-156.46 3063.62,-159.86 3063.55,-152.86"/>
</g>
<!-- Node114 -->
<g id="node46" class="node">
<title>Node114</title>
<g id="a_node46"><a xlink:href="d__a__obj__mgate_8h.html" target="_top" xlink:title=" ">
<polygon fill="white" stroke="#666666" points="5252.77,-107 5130.77,-107 5130.77,-66 5252.77,-66 5252.77,-107"/>
<text text-anchor="start" x="5138.77" y="-95" font-family="Helvetica,sans-Serif" font-size="10.00">include/rel/d/a/obj</text>
<text text-anchor="start" x="5138.77" y="-84" font-family="Helvetica,sans-Serif" font-size="10.00">/d_a_obj_mgate/d_a_obj</text>
<text text-anchor="middle" x="5191.77" y="-73" font-family="Helvetica,sans-Serif" font-size="10.00">_mgate.h</text>
</a>
</g>
</g>
<!-- Node2&#45;&gt;Node114 -->
<g id="edge49" class="edge">
<title>Node2&#45;&gt;Node114</title>
<path fill="none" stroke="#63b8ff" d="M3063.11,-156.42C3400.11,-153.33 4914.36,-137.84 5121.77,-107 5124.64,-106.57 5127.56,-106.07 5130.5,-105.5"/>
<polygon fill="#63b8ff" stroke="#63b8ff" points="3063.57,-152.91 3053.6,-156.5 3063.63,-159.91 3063.57,-152.91"/>
</g>
<!-- Node115 -->
<g id="node47" class="node">
<title>Node115</title>
<g id="a_node47"><a xlink:href="d__a__obj__onsen_8h.html" target="_top" xlink:title=" ">
<polygon fill="white" stroke="#666666" points="5392.77,-107 5270.77,-107 5270.77,-66 5392.77,-66 5392.77,-107"/>
<text text-anchor="start" x="5278.77" y="-95" font-family="Helvetica,sans-Serif" font-size="10.00">include/rel/d/a/obj</text>
<text text-anchor="start" x="5278.77" y="-84" font-family="Helvetica,sans-Serif" font-size="10.00">/d_a_obj_onsen/d_a_obj</text>
<text text-anchor="middle" x="5331.77" y="-73" font-family="Helvetica,sans-Serif" font-size="10.00">_onsen.h</text>
</a>
</g>
</g>
<!-- Node2&#45;&gt;Node115 -->
<g id="edge50" class="edge">
<title>Node2&#45;&gt;Node115</title>
<path fill="none" stroke="#63b8ff" d="M3063.72,-156.52C3415.25,-153.85 5039.89,-139.82 5261.77,-107 5264.64,-106.58 5267.56,-106.07 5270.5,-105.5"/>
<polygon fill="#63b8ff" stroke="#63b8ff" points="3063.73,-153.02 3053.75,-156.59 3063.78,-160.02 3063.73,-153.02"/>
</g>
<!-- Node116 -->
<g id="node48" class="node">
<title>Node116</title>
<g id="a_node48"><a xlink:href="d__a__obj__onsenFire_8h.html" target="_top" xlink:title=" ">
<polygon fill="white" stroke="#666666" points="5520.77,-107 5410.77,-107 5410.77,-66 5520.77,-66 5520.77,-107"/>
<text text-anchor="start" x="5418.77" y="-95" font-family="Helvetica,sans-Serif" font-size="10.00">include/rel/d/a/obj</text>
<text text-anchor="start" x="5418.77" y="-84" font-family="Helvetica,sans-Serif" font-size="10.00">/d_a_obj_onsenFire/d</text>
<text text-anchor="middle" x="5465.77" y="-73" font-family="Helvetica,sans-Serif" font-size="10.00">_a_obj_onsenFire.h</text>
</a>
</g>
</g>
<!-- Node2&#45;&gt;Node116 -->
<g id="edge51" class="edge">
<title>Node2&#45;&gt;Node116</title>
<path fill="none" stroke="#63b8ff" d="M3063.71,-156.13C3440.41,-151.15 5283.33,-125.9 5401.77,-107 5404.64,-106.54 5407.55,-105.99 5410.49,-105.36"/>
<polygon fill="#63b8ff" stroke="#63b8ff" points="3063.68,-152.63 3053.73,-156.26 3063.78,-159.63 3063.68,-152.63"/>
</g>
<!-- Node2&#45;&gt;Node198 -->
<g id="edge52" class="edge">
<title>Node2&#45;&gt;Node198</title>
<path fill="none" stroke="#63b8ff" d="M3063.47,-156.27C3469.03,-151.77 5591.13,-127.33 5726.77,-107 5741.22,-104.83 5756.93,-100.47 5769.61,-96.42"/>
<polygon fill="#63b8ff" stroke="#63b8ff" points="3063.72,-152.77 3053.76,-156.38 3063.8,-159.77 3063.72,-152.77"/>
</g>
<!-- Node35&#45;&gt;Node17 -->
<g id="edge9" class="edge">
<title>Node35&#45;&gt;Node17</title>
<path fill="none" stroke="#63b8ff" d="M5641.78,-66.83C5648.56,-55.34 5657.11,-40.84 5663.35,-30.27"/>
<polygon fill="#63b8ff" stroke="#63b8ff" points="5638.8,-65 5636.73,-75.39 5644.83,-68.56 5638.8,-65"/>
</g>
<!-- Node68&#45;&gt;Node3 -->
<g id="edge15" class="edge">
<title>Node68&#45;&gt;Node3</title>
<path fill="none" stroke="#63b8ff" d="M201.2,-67.38C163.16,-53.76 112.64,-35.66 82.83,-24.98"/>
<polygon fill="#63b8ff" stroke="#63b8ff" points="199.55,-70.51 210.15,-70.59 201.91,-63.92 199.55,-70.51"/>
</g>
<!-- Node68&#45;&gt;Node75 -->
<g id="edge16" class="edge">
<title>Node68&#45;&gt;Node75</title>
<path fill="none" stroke="#63b8ff" d="M237.89,-61.38C231.94,-51.05 225.19,-39.32 220.05,-30.38"/>
<polygon fill="#63b8ff" stroke="#63b8ff" points="234.7,-62.87 242.73,-69.79 240.77,-59.37 234.7,-62.87"/>
</g>
<!-- Node68&#45;&gt;Node77 -->
<g id="edge17" class="edge">
<title>Node68&#45;&gt;Node77</title>
<path fill="none" stroke="#63b8ff" d="M301.58,-68.09C305,-67.28 308.42,-66.56 311.77,-66 573,-22.07 2520.53,-16.7 2884.33,-16.08"/>
<polygon fill="#63b8ff" stroke="#63b8ff" points="300.94,-64.64 292.19,-70.62 302.76,-71.4 300.94,-64.64"/>
</g>
</g>
</svg>
