<?xml version="1.0" encoding="UTF-8" standalone="no"?>
<!DOCTYPE svg PUBLIC "-//W3C//DTD SVG 1.1//EN"
 "http://www.w3.org/Graphics/SVG/1.1/DTD/svg11.dtd">
<!-- Generated by graphviz version 2.44.0 ()
 -->
<!-- Title: include/d/d_vibration.h Pages: 1 -->
<!--zoomable 363 -->
<svg id="main" version="1.1" xmlns="http://www.w3.org/2000/svg" xmlns:xlink="http://www.w3.org/1999/xlink" xml:space="preserve" onload="init(evt)">
<style type="text/css"><![CDATA[
.edge:hover path { stroke: red; }
.edge:hover polygon { stroke: red; fill: red; }
]]></style>
<script type="text/javascript"><![CDATA[
var edges = document.getElementsByTagName('g');
if (edges && edges.length) {
  for (var i=0;i<edges.length;i++) {
    if (edges[i].id.substr(0,4)=='edge') {
      edges[i].setAttribute('class','edge');
    }
  }
}
]]></script>
        <defs>
                <circle id="rim" cx="0" cy="0" r="7"/>
                <circle id="rim2" cx="0" cy="0" r="3.5"/>
                <g id="zoomPlus">
                        <use xlink:href="#rim" fill="#404040">
                                <set attributeName="fill" to="#808080" begin="zoomplus.mouseover" end="zoomplus.mouseout"/>
                        </use>
                        <path d="M-4,0h8M0,-4v8" fill="none" stroke="white" stroke-width="1.5" pointer-events="none"/>
                </g>
                <g id="zoomMin">
                        <use xlink:href="#rim" fill="#404040">
                                <set attributeName="fill" to="#808080" begin="zoomminus.mouseover" end="zoomminus.mouseout"/>
                        </use>
                        <path d="M-4,0h8" fill="none" stroke="white" stroke-width="1.5" pointer-events="none"/>
                </g>
                <g id="dirArrow">
                        <path fill="none" stroke="white" stroke-width="1.5" d="M0,-3.0v7 M-2.5,-0.5L0,-3.0L2.5,-0.5"/>
                </g>
               <g id="resetDef">
                       <use xlink:href="#rim2" fill="#404040">
                               <set attributeName="fill" to="#808080" begin="reset.mouseover" end="reset.mouseout"/>
                       </use>
               </g>
        </defs>

<script type="text/javascript">
var viewWidth = 2850;
var viewHeight = 363;
var sectionId = 'dynsection-1';
</script>
<script xlink:href="svgpan.js"/>
<svg id="graph" class="graph">
<g id="viewport">
<title>include/d/d_vibration.h</title>
<polygon fill="white" stroke="transparent" points="-4,4 -4,-359 2846.4,-359 2846.4,4 -4,4"/>
<!-- Node1 -->
<g id="node1" class="node">
<title>Node1</title>
<g id="a_node1"><a xlink:title=" ">
<polygon fill="#bfbfbf" stroke="black" points="1304.5,-335.5 1304.5,-354.5 1417.5,-354.5 1417.5,-335.5 1304.5,-335.5"/>
<text text-anchor="middle" x="1361" y="-342.5" font-family="Helvetica,sans-Serif" font-size="10.00">include/d/d_vibration.h</text>
</a>
</g>
</g>
<!-- Node2 -->
<g id="node2" class="node">
<title>Node2</title>
<g id="a_node2"><a xlink:href="d__vibration_8cpp.html" target="_top" xlink:title=" ">
<polygon fill="white" stroke="black" points="1244.5,-274 1244.5,-293 1351.5,-293 1351.5,-274 1244.5,-274"/>
<text text-anchor="middle" x="1298" y="-281" font-family="Helvetica,sans-Serif" font-size="10.00">src/d/d_vibration.cpp</text>
</a>
</g>
</g>
<!-- Node1&#45;&gt;Node2 -->
<g id="edge1" class="edge">
<title>Node1&#45;&gt;Node2</title>
<path fill="none" stroke="midnightblue" d="M1344.4,-328.32C1332.43,-317.02 1316.73,-302.19 1307.01,-293.01"/>
<polygon fill="midnightblue" stroke="midnightblue" points="1342.3,-331.15 1351.97,-335.48 1347.11,-326.06 1342.3,-331.15"/>
</g>
<!-- Node3 -->
<g id="node3" class="node">
<title>Node3</title>
<g id="a_node3"><a xlink:href="d__com__inf__game_8h.html" target="_top" xlink:title=" ">
<polygon fill="white" stroke="black" points="1370,-268.5 1370,-298.5 1480,-298.5 1480,-268.5 1370,-268.5"/>
<text text-anchor="start" x="1378" y="-286.5" font-family="Helvetica,sans-Serif" font-size="10.00">include/d/com/d_com</text>
<text text-anchor="middle" x="1425" y="-275.5" font-family="Helvetica,sans-Serif" font-size="10.00">_inf_game.h</text>
</a>
</g>
</g>
<!-- Node1&#45;&gt;Node3 -->
<g id="edge2" class="edge">
<title>Node1&#45;&gt;Node3</title>
<path fill="none" stroke="midnightblue" d="M1377.52,-328.65C1387.52,-319.35 1400.18,-307.57 1409.92,-298.52"/>
<polygon fill="midnightblue" stroke="midnightblue" points="1375.11,-326.1 1370.17,-335.48 1379.88,-331.23 1375.11,-326.1"/>
</g>
<!-- Node4 -->
<g id="node4" class="node">
<title>Node4</title>
<g id="a_node4"><a xlink:href="d__a__player_8cpp.html" target="_top" xlink:title=" ">
<polygon fill="white" stroke="black" points="0,-207 0,-226 114,-226 114,-207 0,-207"/>
<text text-anchor="middle" x="57" y="-214" font-family="Helvetica,sans-Serif" font-size="10.00">src/d/a/d_a_player.cpp</text>
</a>
</g>
</g>
<!-- Node3&#45;&gt;Node4 -->
<g id="edge3" class="edge">
<title>Node3&#45;&gt;Node4</title>
<path fill="none" stroke="midnightblue" d="M1359.68,-268.18C812.44,-201.02 665.55,-298.89 123,-232 112.17,-230.66 100.5,-228.39 90.03,-226.03"/>
<polygon fill="midnightblue" stroke="midnightblue" points="1359.45,-271.68 1369.81,-269.44 1360.31,-264.73 1359.45,-271.68"/>
</g>
<!-- Node5 -->
<g id="node5" class="node">
<title>Node5</title>
<g id="a_node5"><a xlink:href="d__bg__s_8cpp.html" target="_top" xlink:title=" ">
<polygon fill="white" stroke="black" points="132,-207 132,-226 236,-226 236,-207 132,-207"/>
<text text-anchor="middle" x="184" y="-214" font-family="Helvetica,sans-Serif" font-size="10.00">src/d/bg/d_bg_s.cpp</text>
</a>
</g>
</g>
<!-- Node3&#45;&gt;Node5 -->
<g id="edge4" class="edge">
<title>Node3&#45;&gt;Node5</title>
<path fill="none" stroke="midnightblue" d="M1359.57,-268.17C866.29,-207 733.09,-297.21 245,-232 234.97,-230.66 224.17,-228.38 214.49,-226.02"/>
<polygon fill="midnightblue" stroke="midnightblue" points="1359.45,-271.68 1369.81,-269.45 1360.32,-264.73 1359.45,-271.68"/>
</g>
<!-- Node6 -->
<g id="node6" class="node">
<title>Node6</title>
<g id="a_node6"><a xlink:href="d__bg__s__movebg__actor_8cpp.html" target="_top" xlink:title=" ">
<polygon fill="white" stroke="black" points="254,-201.5 254,-231.5 380,-231.5 380,-201.5 254,-201.5"/>
<text text-anchor="start" x="262" y="-219.5" font-family="Helvetica,sans-Serif" font-size="10.00">src/d/bg/d_bg_s_movebg</text>
<text text-anchor="middle" x="317" y="-208.5" font-family="Helvetica,sans-Serif" font-size="10.00">_actor.cpp</text>
</a>
</g>
</g>
<!-- Node3&#45;&gt;Node6 -->
<g id="edge5" class="edge">
<title>Node3&#45;&gt;Node6</title>
<path fill="none" stroke="midnightblue" d="M1359.59,-268.16C929.9,-213.84 814.5,-282.4 389,-232 386.09,-231.66 383.12,-231.26 380.12,-230.81"/>
<polygon fill="midnightblue" stroke="midnightblue" points="1359.44,-271.67 1369.8,-269.47 1360.33,-264.73 1359.44,-271.67"/>
</g>
<!-- Node7 -->
<g id="node7" class="node">
<title>Node7</title>
<g id="a_node7"><a xlink:href="d__bg__w_8cpp.html" target="_top" xlink:title=" ">
<polygon fill="white" stroke="black" points="398.5,-207 398.5,-226 505.5,-226 505.5,-207 398.5,-207"/>
<text text-anchor="middle" x="452" y="-214" font-family="Helvetica,sans-Serif" font-size="10.00">src/d/bg/d_bg_w.cpp</text>
</a>
</g>
</g>
<!-- Node3&#45;&gt;Node7 -->
<g id="edge6" class="edge">
<title>Node3&#45;&gt;Node7</title>
<path fill="none" stroke="midnightblue" d="M1359.84,-268.19C987.77,-220.18 887.43,-278.71 520,-232 508.98,-230.6 497.1,-228.33 486.4,-226"/>
<polygon fill="midnightblue" stroke="midnightblue" points="1359.43,-271.66 1369.8,-269.49 1360.34,-264.72 1359.43,-271.66"/>
</g>
<!-- Node8 -->
<g id="node8" class="node">
<title>Node8</title>
<g id="a_node8"><a xlink:href="d__com__inf__game_8cpp.html" target="_top" xlink:title=" ">
<polygon fill="white" stroke="black" points="1356,-67.5 1356,-97.5 1464,-97.5 1464,-67.5 1356,-67.5"/>
<text text-anchor="start" x="1364" y="-85.5" font-family="Helvetica,sans-Serif" font-size="10.00">src/d/com/d_com_inf</text>
<text text-anchor="middle" x="1410" y="-74.5" font-family="Helvetica,sans-Serif" font-size="10.00">_game.cpp</text>
</a>
</g>
</g>
<!-- Node3&#45;&gt;Node8 -->
<g id="edge7" class="edge">
<title>Node3&#45;&gt;Node8</title>
<path fill="none" stroke="midnightblue" d="M1359.6,-268.62C1258.94,-262.32 619.26,-261.61 591,-232 481.95,-117.72 1156.47,-90.33 1355.75,-84.76"/>
<polygon fill="midnightblue" stroke="midnightblue" points="1359.53,-272.13 1369.8,-269.51 1360.14,-265.15 1359.53,-272.13"/>
</g>
<!-- Node9 -->
<g id="node9" class="node">
<title>Node9</title>
<g id="a_node9"><a xlink:href="d__a__alink_8cpp.html" target="_top" xlink:title=" ">
<polygon fill="white" stroke="black" points="900.5,-6 900.5,-25 1009.5,-25 1009.5,-6 900.5,-6"/>
<text text-anchor="middle" x="955" y="-13" font-family="Helvetica,sans-Serif" font-size="10.00">src/d/a/d_a_alink.cpp</text>
</a>
</g>
</g>
<!-- Node3&#45;&gt;Node9 -->
<g id="edge8" class="edge">
<title>Node3&#45;&gt;Node9</title>
<path fill="none" stroke="midnightblue" d="M1359.74,-268.63C1258.3,-262.28 604.85,-262.21 576,-232 468.3,-119.24 779.34,-48.41 904.95,-25.05"/>
<polygon fill="midnightblue" stroke="midnightblue" points="1359.53,-272.12 1369.8,-269.5 1360.14,-265.15 1359.53,-272.12"/>
</g>
<!-- Node10 -->
<g id="node10" class="node">
<title>Node10</title>
<g id="a_node10"><a xlink:href="d__resorce_8cpp.html" target="_top" xlink:title=" ">
<polygon fill="white" stroke="black" points="600,-207 600,-226 702,-226 702,-207 600,-207"/>
<text text-anchor="middle" x="651" y="-214" font-family="Helvetica,sans-Serif" font-size="10.00">src/d/d_resorce.cpp</text>
</a>
</g>
</g>
<!-- Node3&#45;&gt;Node10 -->
<g id="edge9" class="edge">
<title>Node3&#45;&gt;Node10</title>
<path fill="none" stroke="midnightblue" d="M1359.48,-268.13C1072,-229.48 993.45,-273.61 711,-232 701.35,-230.58 690.98,-228.34 681.62,-226.03"/>
<polygon fill="midnightblue" stroke="midnightblue" points="1359.41,-271.65 1369.79,-269.54 1360.36,-264.72 1359.41,-271.65"/>
</g>
<!-- Node11 -->
<g id="node11" class="node">
<title>Node11</title>
<g id="a_node11"><a xlink:href="d__stage_8cpp.html" target="_top" xlink:title=" ">
<polygon fill="white" stroke="black" points="720,-207 720,-226 814,-226 814,-207 720,-207"/>
<text text-anchor="middle" x="767" y="-214" font-family="Helvetica,sans-Serif" font-size="10.00">src/d/d_stage.cpp</text>
</a>
</g>
</g>
<!-- Node3&#45;&gt;Node11 -->
<g id="edge10" class="edge">
<title>Node3&#45;&gt;Node11</title>
<path fill="none" stroke="midnightblue" d="M1359.78,-268.16C1121.46,-234.84 1055.91,-269.62 823,-232 814.08,-230.56 804.51,-228.34 795.85,-226.07"/>
<polygon fill="midnightblue" stroke="midnightblue" points="1359.39,-271.64 1369.79,-269.58 1360.38,-264.71 1359.39,-271.64"/>
</g>
<!-- Node12 -->
<g id="node12" class="node">
<title>Node12</title>
<g id="a_node12"><a xlink:href="d__event_8cpp.html" target="_top" xlink:title=" ">
<polygon fill="white" stroke="black" points="832.5,-207 832.5,-226 953.5,-226 953.5,-207 832.5,-207"/>
<text text-anchor="middle" x="893" y="-214" font-family="Helvetica,sans-Serif" font-size="10.00">src/d/event/d_event.cpp</text>
</a>
</g>
</g>
<!-- Node3&#45;&gt;Node12 -->
<g id="edge11" class="edge">
<title>Node3&#45;&gt;Node12</title>
<path fill="none" stroke="midnightblue" d="M1359.87,-268.14C1182.78,-241.23 1134.48,-257.83 962,-232 951.47,-230.42 940.13,-228.24 929.74,-226.05"/>
<polygon fill="midnightblue" stroke="midnightblue" points="1359.36,-271.6 1369.77,-269.67 1360.43,-264.69 1359.36,-271.6"/>
</g>
<!-- Node13 -->
<g id="node13" class="node">
<title>Node13</title>
<g id="a_node13"><a xlink:href="d__event__data_8cpp.html" target="_top" xlink:title=" ">
<polygon fill="white" stroke="black" points="971.5,-201.5 971.5,-231.5 1074.5,-231.5 1074.5,-201.5 971.5,-201.5"/>
<text text-anchor="start" x="979.5" y="-219.5" font-family="Helvetica,sans-Serif" font-size="10.00">src/d/event/d_event</text>
<text text-anchor="middle" x="1023" y="-208.5" font-family="Helvetica,sans-Serif" font-size="10.00">_data.cpp</text>
</a>
</g>
</g>
<!-- Node3&#45;&gt;Node13 -->
<g id="edge12" class="edge">
<title>Node3&#45;&gt;Node13</title>
<path fill="none" stroke="midnightblue" d="M1359.88,-268.1C1236.02,-246.86 1201.97,-254.04 1083,-232 1080.26,-231.49 1077.46,-230.94 1074.63,-230.35"/>
<polygon fill="midnightblue" stroke="midnightblue" points="1359.3,-271.55 1369.75,-269.82 1360.5,-264.65 1359.3,-271.55"/>
</g>
<!-- Node14 -->
<g id="node14" class="node">
<title>Node14</title>
<g id="a_node14"><a xlink:href="d__event__manager_8cpp.html" target="_top" xlink:title=" ">
<polygon fill="white" stroke="black" points="1092.5,-201.5 1092.5,-231.5 1195.5,-231.5 1195.5,-201.5 1092.5,-201.5"/>
<text text-anchor="start" x="1100.5" y="-219.5" font-family="Helvetica,sans-Serif" font-size="10.00">src/d/event/d_event</text>
<text text-anchor="middle" x="1144" y="-208.5" font-family="Helvetica,sans-Serif" font-size="10.00">_manager.cpp</text>
</a>
</g>
</g>
<!-- Node3&#45;&gt;Node14 -->
<g id="edge13" class="edge">
<title>Node3&#45;&gt;Node14</title>
<path fill="none" stroke="midnightblue" d="M1359.87,-267.69C1316.07,-257.69 1257.04,-244.16 1205,-232 1201.93,-231.28 1198.77,-230.54 1195.58,-229.79"/>
<polygon fill="midnightblue" stroke="midnightblue" points="1359.29,-271.15 1369.82,-269.96 1360.85,-264.32 1359.29,-271.15"/>
</g>
<!-- Node15 -->
<g id="node15" class="node">
<title>Node15</title>
<g id="a_node15"><a xlink:href="d__kankyo_8cpp.html" target="_top" xlink:title=" ">
<polygon fill="white" stroke="black" points="1214,-207 1214,-226 1348,-226 1348,-207 1214,-207"/>
<text text-anchor="middle" x="1281" y="-214" font-family="Helvetica,sans-Serif" font-size="10.00">src/d/kankyo/d_kankyo.cpp</text>
</a>
</g>
</g>
<!-- Node3&#45;&gt;Node15 -->
<g id="edge14" class="edge">
<title>Node3&#45;&gt;Node15</title>
<path fill="none" stroke="midnightblue" d="M1384.31,-264.13C1356.59,-251.62 1321.19,-235.64 1299.85,-226.01"/>
<polygon fill="midnightblue" stroke="midnightblue" points="1383.2,-267.47 1393.75,-268.4 1386.08,-261.09 1383.2,-267.47"/>
</g>
<!-- Node16 -->
<g id="node16" class="node">
<title>Node16</title>
<g id="a_node16"><a xlink:href="d__menu__window_8cpp.html" target="_top" xlink:title=" ">
<polygon fill="white" stroke="black" points="2577.5,-6 2577.5,-25 2736.5,-25 2736.5,-6 2577.5,-6"/>
<text text-anchor="middle" x="2657" y="-13" font-family="Helvetica,sans-Serif" font-size="10.00">src/d/menu/d_menu_window.cpp</text>
</a>
</g>
</g>
<!-- Node3&#45;&gt;Node16 -->
<g id="edge15" class="edge">
<title>Node3&#45;&gt;Node16</title>
<path fill="none" stroke="midnightblue" d="M1490.25,-281.31C1718.92,-276.93 2475.83,-260.4 2581,-232 2704.6,-198.62 2769.79,-207.58 2836,-98 2862.57,-54.01 2796.04,-33.58 2736.68,-24.21"/>
<polygon fill="midnightblue" stroke="midnightblue" points="1490.02,-277.82 1480.09,-281.51 1490.15,-284.82 1490.02,-277.82"/>
</g>
<!-- Node17 -->
<g id="node17" class="node">
<title>Node17</title>
<g id="a_node17"><a xlink:href="d__menu__window__HIO_8cpp.html" target="_top" xlink:title=" ">
<polygon fill="white" stroke="black" points="1404.5,-201.5 1404.5,-231.5 1545.5,-231.5 1545.5,-201.5 1404.5,-201.5"/>
<text text-anchor="start" x="1412.5" y="-219.5" font-family="Helvetica,sans-Serif" font-size="10.00">src/d/menu/d_menu_window</text>
<text text-anchor="middle" x="1475" y="-208.5" font-family="Helvetica,sans-Serif" font-size="10.00">_HIO.cpp</text>
</a>
</g>
</g>
<!-- Node3&#45;&gt;Node17 -->
<g id="edge16" class="edge">
<title>Node3&#45;&gt;Node17</title>
<path fill="none" stroke="midnightblue" d="M1441.96,-260.45C1449.31,-250.9 1457.69,-240 1464.17,-231.58"/>
<polygon fill="midnightblue" stroke="midnightblue" points="1439.17,-258.34 1435.85,-268.4 1444.72,-262.6 1439.17,-258.34"/>
</g>
<!-- Node18 -->
<g id="node18" class="node">
<title>Node18</title>
<g id="a_node18"><a xlink:href="d__meter2__info_8cpp.html" target="_top" xlink:title=" ">
<polygon fill="white" stroke="black" points="2481,-67.5 2481,-97.5 2591,-97.5 2591,-67.5 2481,-67.5"/>
<text text-anchor="start" x="2489" y="-85.5" font-family="Helvetica,sans-Serif" font-size="10.00">src/d/meter/d_meter2</text>
<text text-anchor="middle" x="2536" y="-74.5" font-family="Helvetica,sans-Serif" font-size="10.00">_info.cpp</text>
</a>
</g>
</g>
<!-- Node3&#45;&gt;Node18 -->
<g id="edge17" class="edge">
<title>Node3&#45;&gt;Node18</title>
<path fill="none" stroke="midnightblue" d="M1490.21,-281.72C1719.04,-278.68 2473.76,-266.12 2512,-232 2550.58,-197.57 2543.84,-127.57 2538.8,-97.61"/>
<polygon fill="midnightblue" stroke="midnightblue" points="1489.99,-278.22 1480.04,-281.85 1490.08,-285.22 1489.99,-278.22"/>
</g>
<!-- Node19 -->
<g id="node19" class="node">
<title>Node19</title>
<g id="a_node19"><a xlink:href="d__meter2__draw_8cpp.html" target="_top" xlink:title=" ">
<polygon fill="white" stroke="black" points="1602,-201.5 1602,-231.5 1712,-231.5 1712,-201.5 1602,-201.5"/>
<text text-anchor="start" x="1610" y="-219.5" font-family="Helvetica,sans-Serif" font-size="10.00">src/d/meter/d_meter2</text>
<text text-anchor="middle" x="1657" y="-208.5" font-family="Helvetica,sans-Serif" font-size="10.00">_draw.cpp</text>
</a>
</g>
</g>
<!-- Node3&#45;&gt;Node19 -->
<g id="edge18" class="edge">
<title>Node3&#45;&gt;Node19</title>
<path fill="none" stroke="midnightblue" d="M1484.91,-265.71C1522.66,-255.14 1570.86,-241.63 1606.63,-231.61"/>
<polygon fill="midnightblue" stroke="midnightblue" points="1483.74,-262.41 1475.05,-268.48 1485.63,-269.15 1483.74,-262.41"/>
</g>
<!-- Node20 -->
<g id="node20" class="node">
<title>Node20</title>
<g id="a_node20"><a xlink:href="d__meter__map_8cpp.html" target="_top" xlink:title=" ">
<polygon fill="white" stroke="black" points="2401,-0.5 2401,-30.5 2505,-30.5 2505,-0.5 2401,-0.5"/>
<text text-anchor="start" x="2409" y="-18.5" font-family="Helvetica,sans-Serif" font-size="10.00">src/d/meter/d_meter</text>
<text text-anchor="middle" x="2453" y="-7.5" font-family="Helvetica,sans-Serif" font-size="10.00">_map.cpp</text>
</a>
</g>
</g>
<!-- Node3&#45;&gt;Node20 -->
<g id="edge19" class="edge">
<title>Node3&#45;&gt;Node20</title>
<path fill="none" stroke="midnightblue" d="M1490.24,-281.77C1712.24,-278.95 2426.49,-267.18 2460,-232 2487.43,-203.2 2464.5,-73.73 2455.91,-30.56"/>
<polygon fill="midnightblue" stroke="midnightblue" points="1490,-278.27 1480.04,-281.89 1490.09,-285.27 1490,-278.27"/>
</g>
<!-- Node21 -->
<g id="node21" class="node">
<title>Node21</title>
<g id="a_node21"><a xlink:href="d__msg__flow_8cpp.html" target="_top" xlink:title=" ">
<polygon fill="white" stroke="black" points="1849.5,-207 1849.5,-226 1982.5,-226 1982.5,-207 1849.5,-207"/>
<text text-anchor="middle" x="1916" y="-214" font-family="Helvetica,sans-Serif" font-size="10.00">src/d/msg/d_msg_flow.cpp</text>
</a>
</g>
</g>
<!-- Node3&#45;&gt;Node21 -->
<g id="edge20" class="edge">
<title>Node3&#45;&gt;Node21</title>
<path fill="none" stroke="midnightblue" d="M1490.19,-276.02C1572.26,-267.53 1717.46,-251.42 1841,-232 1851.87,-230.29 1863.58,-228.17 1874.44,-226.07"/>
<polygon fill="midnightblue" stroke="midnightblue" points="1489.6,-272.56 1480.02,-277.06 1490.32,-279.52 1489.6,-272.56"/>
</g>
<!-- Node22 -->
<g id="node22" class="node">
<title>Node22</title>
<g id="a_node22"><a xlink:href="d__save_8cpp.html" target="_top" xlink:title=" ">
<polygon fill="white" stroke="black" points="2289.5,-73 2289.5,-92 2404.5,-92 2404.5,-73 2289.5,-73"/>
<text text-anchor="middle" x="2347" y="-80" font-family="Helvetica,sans-Serif" font-size="10.00">src/d/save/d_save.cpp</text>
</a>
</g>
</g>
<!-- Node3&#45;&gt;Node22 -->
<g id="edge21" class="edge">
<title>Node3&#45;&gt;Node22</title>
<path fill="none" stroke="midnightblue" d="M1490.16,-281.7C1709.36,-278.71 2408.18,-266.5 2441,-232 2484.96,-185.8 2394.49,-116.06 2359.79,-92.01"/>
<polygon fill="midnightblue" stroke="midnightblue" points="1490.04,-278.21 1480.09,-281.84 1490.14,-285.2 1490.04,-278.21"/>
</g>
<!-- Node23 -->
<g id="node23" class="node">
<title>Node23</title>
<g id="a_node23"><a xlink:href="m__Do__machine__exception_8cpp.html" target="_top" xlink:title=" ">
<polygon fill="white" stroke="black" points="2153.5,-201.5 2153.5,-231.5 2282.5,-231.5 2282.5,-201.5 2153.5,-201.5"/>
<text text-anchor="start" x="2161.5" y="-219.5" font-family="Helvetica,sans-Serif" font-size="10.00">src/m_Do/m_Do_machine</text>
<text text-anchor="middle" x="2218" y="-208.5" font-family="Helvetica,sans-Serif" font-size="10.00">_exception.cpp</text>
</a>
</g>
</g>
<!-- Node3&#45;&gt;Node23 -->
<g id="edge22" class="edge">
<title>Node3&#45;&gt;Node23</title>
<path fill="none" stroke="midnightblue" d="M1490.56,-280.6C1617.29,-276.33 1904.5,-263.75 2144,-232 2146.98,-231.6 2150.03,-231.16 2153.1,-230.69"/>
<polygon fill="midnightblue" stroke="midnightblue" points="1490.14,-277.11 1480.26,-280.94 1490.37,-284.11 1490.14,-277.11"/>
</g>
<!-- Node24 -->
<g id="node24" class="node">
<title>Node24</title>
<g id="a_node24"><a xlink:href="m__Do__main_8cpp.html" target="_top" xlink:title=" ">
<polygon fill="white" stroke="black" points="2300.5,-207 2300.5,-226 2431.5,-226 2431.5,-207 2300.5,-207"/>
<text text-anchor="middle" x="2366" y="-214" font-family="Helvetica,sans-Serif" font-size="10.00">src/m_Do/m_Do_main.cpp</text>
</a>
</g>
</g>
<!-- Node3&#45;&gt;Node24 -->
<g id="edge23" class="edge">
<title>Node3&#45;&gt;Node24</title>
<path fill="none" stroke="midnightblue" d="M1490.06,-281.71C1634.76,-279.31 1994,-269.7 2292,-232 2303.69,-230.52 2316.31,-228.29 2327.75,-226.02"/>
<polygon fill="midnightblue" stroke="midnightblue" points="1489.96,-278.21 1480.01,-281.87 1490.07,-285.21 1489.96,-278.21"/>
</g>
<!-- Node25 -->
<g id="node25" class="node">
<title>Node25</title>
<g id="a_node25"><a xlink:href="d__item_8h.html" target="_top" xlink:title=" ">
<polygon fill="white" stroke="black" points="1526.5,-140 1526.5,-159 1621.5,-159 1621.5,-140 1526.5,-140"/>
<text text-anchor="middle" x="1574" y="-147" font-family="Helvetica,sans-Serif" font-size="10.00">include/d/d_item.h</text>
</a>
</g>
</g>
<!-- Node3&#45;&gt;Node25 -->
<g id="edge24" class="edge">
<title>Node3&#45;&gt;Node25</title>
<path fill="none" stroke="midnightblue" d="M1489.92,-270.16C1513.08,-262.71 1537.5,-250.84 1554,-232 1572.43,-210.95 1574.46,-175.63 1574.33,-159.29"/>
<polygon fill="midnightblue" stroke="midnightblue" points="1488.68,-266.88 1480.09,-273.09 1490.68,-273.59 1488.68,-266.88"/>
</g>
<!-- Node27 -->
<g id="node27" class="node">
<title>Node27</title>
<g id="a_node27"><a xlink:href="d__kantera__icon__meter_8h.html" target="_top" xlink:title=" ">
<polygon fill="white" stroke="black" points="1730.5,-201.5 1730.5,-231.5 1831.5,-231.5 1831.5,-201.5 1730.5,-201.5"/>
<text text-anchor="start" x="1738.5" y="-219.5" font-family="Helvetica,sans-Serif" font-size="10.00">include/d/d_kantera</text>
<text text-anchor="middle" x="1781" y="-208.5" font-family="Helvetica,sans-Serif" font-size="10.00">_icon_meter.h</text>
</a>
</g>
</g>
<!-- Node3&#45;&gt;Node27 -->
<g id="edge27" class="edge">
<title>Node3&#45;&gt;Node27</title>
<path fill="none" stroke="midnightblue" d="M1490.15,-272.69C1550.28,-263.33 1641.96,-248.27 1721,-232 1724.04,-231.37 1727.17,-230.7 1730.32,-230.01"/>
<polygon fill="midnightblue" stroke="midnightblue" points="1489.38,-269.27 1480.04,-274.26 1490.45,-276.19 1489.38,-269.27"/>
</g>
<!-- Node29 -->
<g id="node29" class="node">
<title>Node29</title>
<g id="a_node29"><a xlink:href="d__meter2_8h.html" target="_top" xlink:title=" ">
<polygon fill="white" stroke="black" points="2001,-207 2001,-226 2135,-226 2135,-207 2001,-207"/>
<text text-anchor="middle" x="2068" y="-214" font-family="Helvetica,sans-Serif" font-size="10.00">include/d/meter/d_meter2.h</text>
</a>
</g>
</g>
<!-- Node3&#45;&gt;Node29 -->
<g id="edge29" class="edge">
<title>Node3&#45;&gt;Node29</title>
<path fill="none" stroke="midnightblue" d="M1490.55,-278.79C1596.38,-272.33 1811.31,-257.22 1992,-232 2003.57,-230.38 2016.06,-228.19 2027.5,-226"/>
<polygon fill="midnightblue" stroke="midnightblue" points="1490.11,-275.31 1480.34,-279.41 1490.53,-282.3 1490.11,-275.31"/>
</g>
<!-- Node34 -->
<g id="node34" class="node">
<title>Node34</title>
<g id="a_node34"><a xlink:href="d__msg__object_8h.html" target="_top" xlink:title=" ">
<polygon fill="white" stroke="black" points="2564,-134.5 2564,-164.5 2674,-164.5 2674,-134.5 2564,-134.5"/>
<text text-anchor="start" x="2572" y="-152.5" font-family="Helvetica,sans-Serif" font-size="10.00">include/d/msg/d_msg</text>
<text text-anchor="middle" x="2619" y="-141.5" font-family="Helvetica,sans-Serif" font-size="10.00">_object.h</text>
</a>
</g>
</g>
<!-- Node3&#45;&gt;Node34 -->
<g id="edge43" class="edge">
<title>Node3&#45;&gt;Node34</title>
<path fill="none" stroke="midnightblue" d="M1490.16,-282.6C1715.75,-282.52 2455,-278.66 2550,-232 2579.62,-217.45 2601.41,-183.73 2611.94,-164.54"/>
<polygon fill="midnightblue" stroke="midnightblue" points="1490.12,-279.1 1480.12,-282.6 1490.12,-286.1 1490.12,-279.1"/>
</g>
<!-- Node25&#45;&gt;Node8 -->
<g id="edge25" class="edge">
<title>Node25&#45;&gt;Node8</title>
<path fill="none" stroke="midnightblue" d="M1542.61,-136.06C1514.83,-125.05 1474.32,-108.99 1445.39,-97.53"/>
<polygon fill="midnightblue" stroke="midnightblue" points="1541.64,-139.44 1552.22,-139.87 1544.22,-132.93 1541.64,-139.44"/>
</g>
<!-- Node26 -->
<g id="node26" class="node">
<title>Node26</title>
<g id="a_node26"><a xlink:href="d__item_8cpp.html" target="_top" xlink:title=" ">
<polygon fill="white" stroke="black" points="1901.5,-73 1901.5,-92 1990.5,-92 1990.5,-73 1901.5,-73"/>
<text text-anchor="middle" x="1946" y="-80" font-family="Helvetica,sans-Serif" font-size="10.00">src/d/d_item.cpp</text>
</a>
</g>
</g>
<!-- Node25&#45;&gt;Node26 -->
<g id="edge26" class="edge">
<title>Node25&#45;&gt;Node26</title>
<path fill="none" stroke="midnightblue" d="M1632,-138.36C1706.4,-125.37 1833.84,-103.1 1901.22,-91.33"/>
<polygon fill="midnightblue" stroke="midnightblue" points="1631.12,-134.97 1621.87,-140.14 1632.32,-141.86 1631.12,-134.97"/>
</g>
<!-- Node28 -->
<g id="node28" class="node">
<title>Node28</title>
<g id="a_node28"><a xlink:href="d__kantera__icon__meter_8cpp.html" target="_top" xlink:title=" ">
<polygon fill="white" stroke="black" points="1727.5,-134.5 1727.5,-164.5 1834.5,-164.5 1834.5,-134.5 1727.5,-134.5"/>
<text text-anchor="start" x="1735.5" y="-152.5" font-family="Helvetica,sans-Serif" font-size="10.00">src/d/d_kantera_icon</text>
<text text-anchor="middle" x="1781" y="-141.5" font-family="Helvetica,sans-Serif" font-size="10.00">_meter.cpp</text>
</a>
</g>
</g>
<!-- Node27&#45;&gt;Node28 -->
<g id="edge28" class="edge">
<title>Node27&#45;&gt;Node28</title>
<path fill="none" stroke="midnightblue" d="M1781,-191.11C1781,-182.15 1781,-172.32 1781,-164.58"/>
<polygon fill="midnightblue" stroke="midnightblue" points="1777.5,-191.4 1781,-201.4 1784.5,-191.4 1777.5,-191.4"/>
</g>
<!-- Node30 -->
<g id="node30" class="node">
<title>Node30</title>
<g id="a_node30"><a xlink:href="d__meter2_8cpp.html" target="_top" xlink:title=" ">
<polygon fill="white" stroke="black" points="2150,-140 2150,-159 2278,-159 2278,-140 2150,-140"/>
<text text-anchor="middle" x="2214" y="-147" font-family="Helvetica,sans-Serif" font-size="10.00">src/d/meter/d_meter2.cpp</text>
</a>
</g>
</g>
<!-- Node29&#45;&gt;Node30 -->
<g id="edge30" class="edge">
<title>Node29&#45;&gt;Node30</title>
<path fill="none" stroke="midnightblue" d="M2096.57,-202.78C2125.48,-189.91 2169.4,-170.35 2194.53,-159.17"/>
<polygon fill="midnightblue" stroke="midnightblue" points="2095.1,-199.6 2087.39,-206.87 2097.95,-206 2095.1,-199.6"/>
</g>
<!-- Node31 -->
<g id="node31" class="node">
<title>Node31</title>
<g id="a_node31"><a xlink:href="d__meter2__info_8h.html" target="_top" xlink:title=" ">
<polygon fill="white" stroke="black" points="2004.5,-134.5 2004.5,-164.5 2131.5,-164.5 2131.5,-134.5 2004.5,-134.5"/>
<text text-anchor="start" x="2012.5" y="-152.5" font-family="Helvetica,sans-Serif" font-size="10.00">include/d/meter/d_meter2</text>
<text text-anchor="middle" x="2068" y="-141.5" font-family="Helvetica,sans-Serif" font-size="10.00">_info.h</text>
</a>
</g>
</g>
<!-- Node29&#45;&gt;Node31 -->
<g id="edge31" class="edge">
<title>Node29&#45;&gt;Node31</title>
<path fill="none" stroke="midnightblue" d="M2068,-196.41C2068,-186.22 2068,-173.9 2068,-164.59"/>
<polygon fill="midnightblue" stroke="midnightblue" points="2064.5,-196.73 2068,-206.73 2071.5,-196.73 2064.5,-196.73"/>
</g>
<!-- Node31&#45;&gt;Node8 -->
<g id="edge32" class="edge">
<title>Node31&#45;&gt;Node8</title>
<path fill="none" stroke="midnightblue" d="M1993.98,-143.53C1857.57,-134.16 1571.45,-113.43 1473,-98 1470.12,-97.55 1467.17,-97.04 1464.2,-96.49"/>
<polygon fill="midnightblue" stroke="midnightblue" points="1994.12,-147.05 2004.33,-144.24 1994.6,-140.07 1994.12,-147.05"/>
</g>
<!-- Node31&#45;&gt;Node18 -->
<g id="edge34" class="edge">
<title>Node31&#45;&gt;Node18</title>
<path fill="none" stroke="midnightblue" d="M2141.72,-133.98C2220.7,-121.64 2392.08,-100.73 2480.77,-90.08"/>
<polygon fill="midnightblue" stroke="midnightblue" points="2140.98,-130.55 2131.65,-135.59 2142.08,-137.47 2140.98,-130.55"/>
</g>
<!-- Node31&#45;&gt;Node22 -->
<g id="edge35" class="edge">
<title>Node31&#45;&gt;Node22</title>
<path fill="none" stroke="midnightblue" d="M2138.18,-132.15C2192.93,-119.39 2266.77,-102.19 2310.39,-92.03"/>
<polygon fill="midnightblue" stroke="midnightblue" points="2137.14,-128.8 2128.2,-134.48 2138.73,-135.62 2137.14,-128.8"/>
</g>
<!-- Node31&#45;&gt;Node26 -->
<g id="edge33" class="edge">
<title>Node31&#45;&gt;Node26</title>
<path fill="none" stroke="midnightblue" d="M2032.6,-129.64C2009.26,-117.2 1979.81,-101.51 1961.97,-92.01"/>
<polygon fill="midnightblue" stroke="midnightblue" points="2031.06,-132.78 2041.53,-134.4 2034.35,-126.6 2031.06,-132.78"/>
</g>
<!-- Node32 -->
<g id="node32" class="node">
<title>Node32</title>
<g id="a_node32"><a xlink:href="d__a__alink_8h.html" target="_top" xlink:title=" ">
<polygon fill="white" stroke="black" points="1482,-73 1482,-92 1598,-92 1598,-73 1482,-73"/>
<text text-anchor="middle" x="1540" y="-80" font-family="Helvetica,sans-Serif" font-size="10.00">include/d/a/d_a_alink.h</text>
</a>
</g>
</g>
<!-- Node31&#45;&gt;Node32 -->
<g id="edge36" class="edge">
<title>Node31&#45;&gt;Node32</title>
<path fill="none" stroke="midnightblue" d="M1994.33,-139.43C1888.33,-126.38 1694.92,-102.57 1598.25,-90.67"/>
<polygon fill="midnightblue" stroke="midnightblue" points="1993.96,-142.91 2004.31,-140.66 1994.81,-135.96 1993.96,-142.91"/>
</g>
<!-- Node33 -->
<g id="node33" class="node">
<title>Node33</title>
<g id="a_node33"><a xlink:href="d__menu__window_8h.html" target="_top" xlink:title=" ">
<polygon fill="white" stroke="black" points="2080,-67.5 2080,-97.5 2200,-97.5 2200,-67.5 2080,-67.5"/>
<text text-anchor="start" x="2088" y="-85.5" font-family="Helvetica,sans-Serif" font-size="10.00">include/d/menu/d_menu</text>
<text text-anchor="middle" x="2140" y="-74.5" font-family="Helvetica,sans-Serif" font-size="10.00">_window.h</text>
</a>
</g>
</g>
<!-- Node31&#45;&gt;Node33 -->
<g id="edge39" class="edge">
<title>Node31&#45;&gt;Node33</title>
<path fill="none" stroke="midnightblue" d="M2085.1,-127.31C2095.22,-117.56 2107.97,-106.26 2118.73,-97.58"/>
<polygon fill="midnightblue" stroke="midnightblue" points="2082.59,-124.87 2077.94,-134.4 2087.51,-129.85 2082.59,-124.87"/>
</g>
<!-- Node32&#45;&gt;Node3 -->
<g id="edge38" class="edge">
<title>Node32&#45;&gt;Node3</title>
<path fill="none" stroke="midnightblue" d="M1511.62,-96.66C1476.7,-114.63 1419.09,-150.47 1395,-201 1384.1,-223.86 1400.43,-251.82 1412.94,-268.34"/>
<polygon fill="midnightblue" stroke="midnightblue" points="1513.43,-99.67 1520.82,-92.07 1510.31,-93.41 1513.43,-99.67"/>
</g>
<!-- Node32&#45;&gt;Node9 -->
<g id="edge37" class="edge">
<title>Node32&#45;&gt;Node9</title>
<path fill="none" stroke="midnightblue" d="M1494.16,-70.84C1487.1,-69.42 1479.87,-68.08 1473,-67 1305.17,-40.75 1104.48,-25.82 1009.7,-19.74"/>
<polygon fill="midnightblue" stroke="midnightblue" points="1493.82,-74.35 1504.33,-72.98 1495.26,-67.5 1493.82,-74.35"/>
</g>
<!-- Node33&#45;&gt;Node16 -->
<g id="edge40" class="edge">
<title>Node33&#45;&gt;Node16</title>
<path fill="none" stroke="midnightblue" d="M2210.03,-72.7C2309.6,-60.18 2490.91,-37.38 2589.23,-25.02"/>
<polygon fill="midnightblue" stroke="midnightblue" points="2209.55,-69.23 2200.06,-73.95 2210.42,-76.17 2209.55,-69.23"/>
</g>
<!-- Node33&#45;&gt;Node20 -->
<g id="edge41" class="edge">
<title>Node33&#45;&gt;Node20</title>
<path fill="none" stroke="midnightblue" d="M2210.14,-66.93C2267.96,-54.93 2348.67,-38.17 2400.89,-27.32"/>
<polygon fill="midnightblue" stroke="midnightblue" points="2209.43,-63.51 2200.35,-68.97 2210.85,-70.36 2209.43,-63.51"/>
</g>
<!-- Node33&#45;&gt;Node31 -->
<g id="edge42" class="edge">
<title>Node33&#45;&gt;Node31</title>
<path fill="none" stroke="midnightblue" d="M2122.93,-104.66C2112.82,-114.4 2100.06,-125.71 2089.3,-134.4"/>
<polygon fill="midnightblue" stroke="midnightblue" points="2125.44,-107.1 2130.08,-97.58 2120.51,-102.13 2125.44,-107.1"/>
</g>
<!-- Node34&#45;&gt;Node16 -->
<g id="edge44" class="edge">
<title>Node34&#45;&gt;Node16</title>
<path fill="none" stroke="midnightblue" d="M2625.85,-124.71C2634.46,-94.81 2648.8,-45 2654.53,-25.1"/>
<polygon fill="midnightblue" stroke="midnightblue" points="2622.47,-123.8 2623.07,-134.37 2629.2,-125.73 2622.47,-123.8"/>
</g>
<!-- Node34&#45;&gt;Node18 -->
<g id="edge45" class="edge">
<title>Node34&#45;&gt;Node18</title>
<path fill="none" stroke="midnightblue" d="M2593.04,-128.17C2580.35,-118.23 2565.39,-106.51 2553.97,-97.58"/>
<polygon fill="midnightblue" stroke="midnightblue" points="2590.96,-130.99 2600.99,-134.4 2595.28,-125.47 2590.96,-130.99"/>
</g>
<!-- Node34&#45;&gt;Node20 -->
<g id="edge46" class="edge">
<title>Node34&#45;&gt;Node20</title>
<path fill="none" stroke="midnightblue" d="M2619.31,-123.99C2618.24,-106.13 2613.95,-82.45 2600,-67 2575.86,-40.26 2536.92,-27.68 2505.18,-21.76"/>
<polygon fill="midnightblue" stroke="midnightblue" points="2615.82,-124.35 2619.62,-134.24 2622.81,-124.14 2615.82,-124.35"/>
</g>
<!-- Node35 -->
<g id="node35" class="node">
<title>Node35</title>
<g id="a_node35"><a xlink:href="d__msg__object_8cpp.html" target="_top" xlink:title=" ">
<polygon fill="white" stroke="black" points="2685,-73 2685,-92 2827,-92 2827,-73 2685,-73"/>
<text text-anchor="middle" x="2756" y="-80" font-family="Helvetica,sans-Serif" font-size="10.00">src/d/msg/d_msg_object.cpp</text>
</a>
</g>
</g>
<!-- Node34&#45;&gt;Node35 -->
<g id="edge47" class="edge">
<title>Node34&#45;&gt;Node35</title>
<path fill="none" stroke="midnightblue" d="M2658.06,-129.97C2684.38,-117.48 2717.86,-101.6 2738.07,-92.01"/>
<polygon fill="midnightblue" stroke="midnightblue" points="2656.26,-126.95 2648.73,-134.4 2659.26,-133.27 2656.26,-126.95"/>
</g>
</g>
</svg>
        <g id="navigator" transform="translate(0 0)" fill="#404254">
                <rect fill="#f2f5e9" fill-opacity="0.5" stroke="#606060" stroke-width=".5" x="0" y="0" width="60" height="60"/>
                <use id="zoomplus" xlink:href="#zoomPlus" x="17" y="9" onmousedown="handleZoom(evt,'in')"/>
                <use id="zoomminus" xlink:href="#zoomMin" x="42" y="9" onmousedown="handleZoom(evt,'out')"/>
                <use id="reset" xlink:href="#resetDef" x="30" y="36" onmousedown="handleReset()"/>
                <g id="arrowUp" xlink:href="#dirArrow" transform="translate(30 24)" onmousedown="handlePan(0,-1)">
                  <use xlink:href="#rim" fill="#404040">
                        <set attributeName="fill" to="#808080" begin="arrowUp.mouseover" end="arrowUp.mouseout"/>
                  </use>
                  <path fill="none" stroke="white" stroke-width="1.5" d="M0,-3.0v7 M-2.5,-0.5L0,-3.0L2.5,-0.5"/>
                </g>
                <g id="arrowRight" xlink:href="#dirArrow" transform="rotate(90) translate(36 -43)" onmousedown="handlePan(1,0)">
                  <use xlink:href="#rim" fill="#404040">
                        <set attributeName="fill" to="#808080" begin="arrowRight.mouseover" end="arrowRight.mouseout"/>
                  </use>
                  <path fill="none" stroke="white" stroke-width="1.5" d="M0,-3.0v7 M-2.5,-0.5L0,-3.0L2.5,-0.5"/>
                </g>
                <g id="arrowDown" xlink:href="#dirArrow" transform="rotate(180) translate(-30 -48)" onmousedown="handlePan(0,1)">
                  <use xlink:href="#rim" fill="#404040">
                        <set attributeName="fill" to="#808080" begin="arrowDown.mouseover" end="arrowDown.mouseout"/>
                  </use>
                  <path fill="none" stroke="white" stroke-width="1.5" d="M0,-3.0v7 M-2.5,-0.5L0,-3.0L2.5,-0.5"/>
                </g>
                <g id="arrowLeft" xlink:href="#dirArrow" transform="rotate(270) translate(-36 17)" onmousedown="handlePan(-1,0)">
                  <use xlink:href="#rim" fill="#404040">
                        <set attributeName="fill" to="#808080" begin="arrowLeft.mouseover" end="arrowLeft.mouseout"/>
                  </use>
                  <path fill="none" stroke="white" stroke-width="1.5" d="M0,-3.0v7 M-2.5,-0.5L0,-3.0L2.5,-0.5"/>
                </g>
        </g>
        <svg viewBox="0 0 15 15" width="100%" height="30px" preserveAspectRatio="xMaxYMin meet">
         <g id="arrow_out" transform="scale(0.3 0.3)">
          <a xlink:href="d__vibration_8h__dep__incl_org.svg" target="_base">
           <rect id="button" ry="5" rx="5" y="6" x="6" height="38" width="38"
                fill="#f2f5e9" fill-opacity="0.5" stroke="#606060" stroke-width="1.0"/>
           <path id="arrow"
             d="M 11.500037,31.436501 C 11.940474,20.09759 22.043105,11.32322 32.158766,21.979434 L 37.068811,17.246167 C 37.068811,17.246167 37.088388,32 37.088388,32 L 22.160133,31.978069 C 22.160133,31.978069 26.997745,27.140456 26.997745,27.140456 C 18.528582,18.264221 13.291696,25.230495 11.500037,31.436501 z"
             style="fill:#404040;"/>
          </a>
         </g>
        </svg>
</svg>
