<?xml version="1.0" encoding="UTF-8" standalone="no"?>
<!DOCTYPE svg PUBLIC "-//W3C//DTD SVG 1.1//EN"
 "http://www.w3.org/Graphics/SVG/1.1/DTD/svg11.dtd">
<!-- Generated by graphviz version 2.44.0 ()
 -->
<!-- Title: include/d/menu Pages: 1 -->
<svg width="117pt" height="295pt"
 viewBox="0.00 0.00 117.00 295.00" xmlns="http://www.w3.org/2000/svg" xmlns:xlink="http://www.w3.org/1999/xlink">
<g id="graph0" class="graph" transform="scale(1 1) rotate(0) translate(4 291)">
<title>include/d/menu</title>
<polygon fill="white" stroke="transparent" points="-4,4 -4,-291 113,-291 113,4 -4,4"/>
<g id="clust1" class="cluster">
<title>clusterdir_cc3ad1aed4be3f446fdd7af78322f5bf</title>
<g id="a_clust1"><a xlink:href="dir_cc3ad1aed4be3f446fdd7af78322f5bf.html" target="_top" xlink:title="d">
<polygon fill="#ddddee" stroke="black" points="30,-136 30,-279 100,-279 100,-136 30,-136"/>
<text text-anchor="middle" x="65" y="-267" font-family="Helvetica,sans-Serif" font-size="10.00">d</text>
</a>
</g>
</g>
<!-- dir_1641b1a8130cba42fb335c906a98b602 -->
<g id="node1" class="node">
<title>dir_1641b1a8130cba42fb335c906a98b602</title>
<g id="a_node1"><a xlink:href="dir_1641b1a8130cba42fb335c906a98b602.html" target="_top" xlink:title="meter">
<polygon fill="none" stroke="black" points="92,-252 38,-252 38,-216 92,-216 92,-252"/>
<text text-anchor="middle" x="65" y="-231.5" font-family="Helvetica,sans-Serif" font-size="10.00">meter</text>
</a>
</g>
</g>
<!-- dir_8708ba3a724eae4ad101a20e39d5924d -->
<g id="node2" class="node">
<title>dir_8708ba3a724eae4ad101a20e39d5924d</title>
<g id="a_node2"><a xlink:href="dir_8708ba3a724eae4ad101a20e39d5924d.html" target="_top" xlink:title="menu">
<polygon fill="#eeeeff" stroke="black" points="92,-180 38,-180 38,-144 92,-144 92,-180"/>
<text text-anchor="middle" x="65" y="-159.5" font-family="Helvetica,sans-Serif" font-size="10.00">menu</text>
</a>
</g>
</g>
<!-- dir_1641b1a8130cba42fb335c906a98b602&#45;&gt;dir_8708ba3a724eae4ad101a20e39d5924d -->
<g id="edge1" class="edge">
<title>dir_1641b1a8130cba42fb335c906a98b602&#45;&gt;dir_8708ba3a724eae4ad101a20e39d5924d</title>
<path fill="none" stroke="black" d="M59.08,-215.7C58.29,-207.98 58.06,-198.71 58.4,-190.11"/>
<polygon fill="black" stroke="black" points="61.9,-190.32 59.1,-180.1 54.92,-189.84 61.9,-190.32"/>
<g id="a_edge1&#45;headlabel"><a xlink:href="dir_000017_000016.html" target="_top" xlink:title="1">
<text text-anchor="middle" x="64.48" y="-191.61" font-family="Helvetica,sans-Serif" font-size="10.00">1</text>
</a>
</g>
</g>
<!-- dir_b778c3f297ab88300258a2935792c8cc -->
<g id="node4" class="node">
<title>dir_b778c3f297ab88300258a2935792c8cc</title>
<g id="a_node4"><a xlink:href="dir_b778c3f297ab88300258a2935792c8cc.html" target="_top" xlink:title="dolphin">
<polygon fill="white" stroke="red" points="109,-36 55,-36 55,0 109,0 109,-36"/>
<text text-anchor="middle" x="82" y="-15.5" font-family="Helvetica,sans-Serif" font-size="10.00">dolphin</text>
</a>
</g>
</g>
<!-- dir_1641b1a8130cba42fb335c906a98b602&#45;&gt;dir_b778c3f297ab88300258a2935792c8cc -->
<g id="edge2" class="edge">
<title>dir_1641b1a8130cba42fb335c906a98b602&#45;&gt;dir_b778c3f297ab88300258a2935792c8cc</title>
<path fill="none" stroke="black" d="M80.61,-215.77C88.37,-206.03 96.95,-193.18 101,-180 115.03,-134.36 102.13,-78.51 91.82,-46.02"/>
<polygon fill="black" stroke="black" points="95.08,-44.73 88.6,-36.34 88.43,-46.93 95.08,-44.73"/>
<g id="a_edge2&#45;headlabel"><a xlink:href="dir_000017_000025.html" target="_top" xlink:title="9">
<text text-anchor="middle" x="98.9" y="-44.74" font-family="Helvetica,sans-Serif" font-size="10.00">9</text>
</a>
</g>
</g>
<!-- dir_8708ba3a724eae4ad101a20e39d5924d&#45;&gt;dir_1641b1a8130cba42fb335c906a98b602 -->
<g id="edge4" class="edge">
<title>dir_8708ba3a724eae4ad101a20e39d5924d&#45;&gt;dir_1641b1a8130cba42fb335c906a98b602</title>
<path fill="none" stroke="black" d="M70.9,-180.1C71.7,-187.79 71.94,-197.05 71.6,-205.67"/>
<polygon fill="black" stroke="black" points="68.11,-205.48 70.92,-215.7 75.09,-205.96 68.11,-205.48"/>
<g id="a_edge4&#45;headlabel"><a xlink:href="dir_000016_000017.html" target="_top" xlink:title="1">
<text text-anchor="middle" x="65.52" y="-199.2" font-family="Helvetica,sans-Serif" font-size="10.00">1</text>
</a>
</g>
</g>
<!-- dir_6bdfff2c28f90f381b6da5bee088878b -->
<g id="node3" class="node">
<title>dir_6bdfff2c28f90f381b6da5bee088878b</title>
<g id="a_node3"><a xlink:href="dir_6bdfff2c28f90f381b6da5bee088878b.html" target="_top" xlink:title="m_Do">
<polygon fill="none" stroke="black" points="54,-108 0,-108 0,-72 54,-72 54,-108"/>
<text text-anchor="middle" x="27" y="-87.5" font-family="Helvetica,sans-Serif" font-size="10.00">m_Do</text>
</a>
</g>
</g>
<!-- dir_8708ba3a724eae4ad101a20e39d5924d&#45;&gt;dir_6bdfff2c28f90f381b6da5bee088878b -->
<g id="edge5" class="edge">
<title>dir_8708ba3a724eae4ad101a20e39d5924d&#45;&gt;dir_6bdfff2c28f90f381b6da5bee088878b</title>
<path fill="none" stroke="black" d="M55.61,-143.7C51.24,-135.64 45.94,-125.89 41.1,-116.98"/>
<polygon fill="black" stroke="black" points="44.13,-115.22 36.29,-108.1 37.98,-118.56 44.13,-115.22"/>
<g id="a_edge5&#45;headlabel"><a xlink:href="dir_000016_000066.html" target="_top" xlink:title="1">
<text text-anchor="middle" x="48.34" y="-114.53" font-family="Helvetica,sans-Serif" font-size="10.00">1</text>
</a>
</g>
</g>
<!-- dir_8708ba3a724eae4ad101a20e39d5924d&#45;&gt;dir_b778c3f297ab88300258a2935792c8cc -->
<g id="edge6" class="edge">
<title>dir_8708ba3a724eae4ad101a20e39d5924d&#45;&gt;dir_b778c3f297ab88300258a2935792c8cc</title>
<path fill="none" stroke="black" d="M67.05,-143.87C69.95,-119.67 75.27,-75.21 78.72,-46.39"/>
<polygon fill="black" stroke="black" points="82.23,-46.53 79.94,-36.19 75.28,-45.7 82.23,-46.53"/>
<g id="a_edge6&#45;headlabel"><a xlink:href="dir_000016_000025.html" target="_top" xlink:title="18">
<text text-anchor="middle" x="84.62" y="-47.94" font-family="Helvetica,sans-Serif" font-size="10.00">18</text>
</a>
</g>
</g>
<!-- dir_6bdfff2c28f90f381b6da5bee088878b&#45;&gt;dir_b778c3f297ab88300258a2935792c8cc -->
<g id="edge3" class="edge">
<title>dir_6bdfff2c28f90f381b6da5bee088878b&#45;&gt;dir_b778c3f297ab88300258a2935792c8cc</title>
<path fill="none" stroke="black" d="M40.6,-71.7C47.12,-63.39 55.07,-53.28 62.25,-44.14"/>
<polygon fill="black" stroke="black" points="65.13,-46.13 68.56,-36.1 59.63,-41.81 65.13,-46.13"/>
<g id="a_edge3&#45;headlabel"><a xlink:href="dir_000066_000025.html" target="_top" xlink:title="15">
<text text-anchor="middle" x="65.15" y="-48.21" font-family="Helvetica,sans-Serif" font-size="10.00">15</text>
</a>
</g>
</g>
</g>
</svg>
