<?xml version="1.0" encoding="UTF-8" standalone="no"?>
<!DOCTYPE svg PUBLIC "-//W3C//DTD SVG 1.1//EN"
 "http://www.w3.org/Graphics/SVG/1.1/DTD/svg11.dtd">
<!-- Generated by graphviz version 9.0.0 (20230911.1827)
 -->
<!-- Title: libs Pages: 1 -->
<svg width="519pt" height="154pt"
 viewBox="0.00 0.00 519.00 153.75" xmlns="http://www.w3.org/2000/svg" xmlns:xlink="http://www.w3.org/1999/xlink">
<g id="graph0" class="graph" transform="scale(1 1) rotate(0) translate(4 149.75)">
<title>libs</title>
<g id="clust1" class="cluster">
<title>clusterdir_6719ab1f1f7655efc2fa43f7eb574fd1</title>
<g id="a_clust1"><a xlink:href="dir_6719ab1f1f7655efc2fa43f7eb574fd1.html" target="_top">
<polygon fill="#edf0f7" stroke="#404040" stroke-width="2" points="8,-47.25 8,-137.75 503,-137.75 503,-47.25 8,-47.25"/>
</a>
</g>
</g>
<!-- dir_6719ab1f1f7655efc2fa43f7eb574fd1 -->
<g id="node1" class="node">
<title>dir_6719ab1f1f7655efc2fa43f7eb574fd1</title>
<text text-anchor="middle" x="479" y="-116.25" font-family="Helvetica,sans-Serif" font-size="10.00">libs</text>
</g>
<!-- dir_22235b545bd11e9cf035754dc4797b88 -->
<g id="node2" class="node">
<title>dir_22235b545bd11e9cf035754dc4797b88</title>
<g id="a_node2"><a xlink:href="dir_22235b545bd11e9cf035754dc4797b88.html" target="_top" xlink:title="dolphin">
<polygon fill="#a2b4d6" stroke="#404040" points="372.38,-129.75 325.62,-129.75 325.62,-110.5 372.38,-110.5 372.38,-129.75"/>
<text text-anchor="middle" x="349" y="-116.25" font-family="Helvetica,sans-Serif" font-size="10.00">dolphin</text>
</a>
</g>
</g>
<!-- dir_db1709413e4853dbf382363385ab04a7 -->
<g id="node4" class="node">
<title>dir_db1709413e4853dbf382363385ab04a7</title>
<g id="a_node4"><a xlink:href="dir_db1709413e4853dbf382363385ab04a7.html" target="_top" xlink:title="PowerPC_EABI_Support">
<polygon fill="#a2b4d6" stroke="#404040" points="213,-74.5 89,-74.5 89,-55.25 213,-55.25 213,-74.5"/>
<text text-anchor="middle" x="151" y="-61" font-family="Helvetica,sans-Serif" font-size="10.00">PowerPC_EABI_Support</text>
</a>
</g>
</g>
<!-- dir_22235b545bd11e9cf035754dc4797b88&#45;&gt;dir_db1709413e4853dbf382363385ab04a7 -->
<g id="edge2" class="edge">
<title>dir_22235b545bd11e9cf035754dc4797b88&#45;&gt;dir_db1709413e4853dbf382363385ab04a7</title>
<g id="a_edge2"><a xlink:href="dir_000785_001309.html" target="_top">
<path fill="none" stroke="#63b8ff" d="M325.23,-112.72C322.46,-111.97 319.67,-111.22 317,-110.5 275.83,-99.42 228.92,-86.81 195.49,-77.83"/>
<polygon fill="#63b8ff" stroke="#63b8ff" points="196.73,-74.54 186.16,-75.32 194.91,-81.3 196.73,-74.54"/>
</a>
</g>
<g id="a_edge2&#45;headlabel"><a xlink:href="dir_000785_001309.html" target="_top" xlink:title="13">
<text text-anchor="middle" x="199.48" y="-68.46" font-family="Helvetica,sans-Serif" font-size="10.00" fill="#63b8ff">13</text>
</a>
</g>
</g>
<!-- dir_d44c64559bbebec7f509842c48db8b23 -->
<g id="node8" class="node">
<title>dir_d44c64559bbebec7f509842c48db8b23</title>
<g id="a_node8"><a xlink:href="dir_d44c64559bbebec7f509842c48db8b23.html" target="_top" xlink:title="include">
<polygon fill="#edf0f7" stroke="red" points="321.38,-19.25 274.62,-19.25 274.62,0 321.38,0 321.38,-19.25"/>
<text text-anchor="middle" x="298" y="-5.75" font-family="Helvetica,sans-Serif" font-size="10.00">include</text>
</a>
</g>
</g>
<!-- dir_22235b545bd11e9cf035754dc4797b88&#45;&gt;dir_d44c64559bbebec7f509842c48db8b23 -->
<g id="edge1" class="edge">
<title>dir_22235b545bd11e9cf035754dc4797b88&#45;&gt;dir_d44c64559bbebec7f509842c48db8b23</title>
<g id="a_edge1"><a xlink:href="dir_000785_000829.html" target="_top">
<path fill="none" stroke="#63b8ff" d="M344.83,-110.25C336.61,-92.76 318.16,-53.52 307.03,-29.84"/>
<polygon fill="#63b8ff" stroke="#63b8ff" points="310.3,-28.56 302.88,-21 303.96,-31.54 310.3,-28.56"/>
</a>
</g>
<g id="a_edge1&#45;headlabel"><a xlink:href="dir_000785_000829.html" target="_top" xlink:title="258">
<text text-anchor="middle" x="313.75" y="-25.36" font-family="Helvetica,sans-Serif" font-size="10.00" fill="#63b8ff">258</text>
</a>
</g>
</g>
<!-- dir_003060a984452b2ac376c290647dff95 -->
<g id="node3" class="node">
<title>dir_003060a984452b2ac376c290647dff95</title>
<g id="a_node3"><a xlink:href="dir_003060a984452b2ac376c290647dff95.html" target="_top" xlink:title="JSystem">
<polygon fill="#a2b4d6" stroke="#404040" points="445.12,-129.75 390.88,-129.75 390.88,-110.5 445.12,-110.5 445.12,-129.75"/>
<text text-anchor="middle" x="418" y="-116.25" font-family="Helvetica,sans-Serif" font-size="10.00">JSystem</text>
</a>
</g>
</g>
<!-- dir_003060a984452b2ac376c290647dff95&#45;&gt;dir_db1709413e4853dbf382363385ab04a7 -->
<g id="edge4" class="edge">
<title>dir_003060a984452b2ac376c290647dff95&#45;&gt;dir_db1709413e4853dbf382363385ab04a7</title>
<g id="a_edge4"><a xlink:href="dir_000873_001309.html" target="_top">
<path fill="none" stroke="#63b8ff" d="M390.55,-112.61C387.33,-111.88 384.1,-111.16 381,-110.5 323.67,-98.26 258,-85.66 211.54,-76.98"/>
<polygon fill="#63b8ff" stroke="#63b8ff" points="212.42,-73.59 201.95,-75.2 211.14,-80.47 212.42,-73.59"/>
</a>
</g>
<g id="a_edge4&#45;headlabel"><a xlink:href="dir_000873_001309.html" target="_top" xlink:title="61">
<text text-anchor="middle" x="214.99" y="-67.3" font-family="Helvetica,sans-Serif" font-size="10.00" fill="#63b8ff">61</text>
</a>
</g>
</g>
<!-- dir_003060a984452b2ac376c290647dff95&#45;&gt;dir_d44c64559bbebec7f509842c48db8b23 -->
<g id="edge3" class="edge">
<title>dir_003060a984452b2ac376c290647dff95&#45;&gt;dir_d44c64559bbebec7f509842c48db8b23</title>
<g id="a_edge3"><a xlink:href="dir_000873_000829.html" target="_top">
<path fill="none" stroke="#63b8ff" d="M408.18,-110.25C388.14,-92.13 342.25,-50.63 316.46,-27.32"/>
<polygon fill="#63b8ff" stroke="#63b8ff" points="318.84,-24.75 309.08,-20.64 314.15,-29.94 318.84,-24.75"/>
</a>
</g>
<g id="a_edge3&#45;headlabel"><a xlink:href="dir_000873_000829.html" target="_top" xlink:title="950">
<text text-anchor="middle" x="322.29" y="-20.17" font-family="Helvetica,sans-Serif" font-size="10.00" fill="#63b8ff">950</text>
</a>
</g>
</g>
<!-- dir_db1709413e4853dbf382363385ab04a7&#45;&gt;dir_d44c64559bbebec7f509842c48db8b23 -->
<g id="edge5" class="edge">
<title>dir_db1709413e4853dbf382363385ab04a7&#45;&gt;dir_d44c64559bbebec7f509842c48db8b23</title>
<g id="a_edge5"><a xlink:href="dir_001309_000829.html" target="_top">
<path fill="none" stroke="#63b8ff" d="M175.94,-54.84C200.13,-46.08 237.02,-32.71 263.91,-22.97"/>
<polygon fill="#63b8ff" stroke="#63b8ff" points="264.77,-26.39 272.98,-19.69 262.39,-19.8 264.77,-26.39"/>
</a>
</g>
<g id="a_edge5&#45;headlabel"><a xlink:href="dir_001309_000829.html" target="_top" xlink:title="19">
<text text-anchor="middle" x="263.78" y="-25.89" font-family="Helvetica,sans-Serif" font-size="10.00" fill="#63b8ff">19</text>
</a>
</g>
</g>
<!-- dir_1cd32b914603311b5711a192cd0b3625 -->
<g id="node5" class="node">
<title>dir_1cd32b914603311b5711a192cd0b3625</title>
<g id="a_node5"><a xlink:href="dir_1cd32b914603311b5711a192cd0b3625.html" target="_top" xlink:title="SSystem">
<polygon fill="#a2b4d6" stroke="#404040" points="71.88,-129.75 16.12,-129.75 16.12,-110.5 71.88,-110.5 71.88,-129.75"/>
<text text-anchor="middle" x="44" y="-116.25" font-family="Helvetica,sans-Serif" font-size="10.00">SSystem</text>
</a>
</g>
</g>
<!-- dir_1cd32b914603311b5711a192cd0b3625&#45;&gt;dir_db1709413e4853dbf382363385ab04a7 -->
<g id="edge7" class="edge">
<title>dir_1cd32b914603311b5711a192cd0b3625&#45;&gt;dir_db1709413e4853dbf382363385ab04a7</title>
<g id="a_edge7"><a xlink:href="dir_001720_001309.html" target="_top">
<path fill="none" stroke="#63b8ff" d="M62.15,-110.09C78.68,-101.87 103.34,-89.59 122.5,-80.06"/>
<polygon fill="#63b8ff" stroke="#63b8ff" points="124.01,-83.22 131.4,-75.63 120.89,-76.95 124.01,-83.22"/>
</a>
</g>
<g id="a_edge7&#45;headlabel"><a xlink:href="dir_001720_001309.html" target="_top" xlink:title="3">
<text text-anchor="middle" x="123.41" y="-82.81" font-family="Helvetica,sans-Serif" font-size="10.00" fill="#63b8ff">3</text>
</a>
</g>
</g>
<!-- dir_1cd32b914603311b5711a192cd0b3625&#45;&gt;dir_d44c64559bbebec7f509842c48db8b23 -->
<g id="edge6" class="edge">
<title>dir_1cd32b914603311b5711a192cd0b3625&#45;&gt;dir_d44c64559bbebec7f509842c48db8b23</title>
<g id="a_edge6"><a xlink:href="dir_001720_000829.html" target="_top">
<path fill="none" stroke="#63b8ff" d="M72.05,-112.44C120.48,-100.86 215.26,-77.94 222,-74.5 223.64,-73.66 256.85,-45.57 278.83,-26.92"/>
<polygon fill="#63b8ff" stroke="#63b8ff" points="280.92,-29.73 286.28,-20.59 276.39,-24.4 280.92,-29.73"/>
</a>
</g>
<g id="a_edge6&#45;headlabel"><a xlink:href="dir_001720_000829.html" target="_top" xlink:title="83">
<text text-anchor="middle" x="281.17" y="-29.37" font-family="Helvetica,sans-Serif" font-size="10.00" fill="#63b8ff">83</text>
</a>
</g>
</g>
<!-- dir_6b67cfcdbcbf1df04fac4a98c3b947ab -->
<g id="node6" class="node">
<title>dir_6b67cfcdbcbf1df04fac4a98c3b947ab</title>
<g id="a_node6"><a xlink:href="dir_6b67cfcdbcbf1df04fac4a98c3b947ab.html" target="_top" xlink:title="TRK_MINNOW_DOLPHIN">
<polygon fill="#a2b4d6" stroke="#404040" points="223.88,-129.75 90.12,-129.75 90.12,-110.5 223.88,-110.5 223.88,-129.75"/>
<text text-anchor="middle" x="157" y="-116.25" font-family="Helvetica,sans-Serif" font-size="10.00">TRK_MINNOW_DOLPHIN</text>
</a>
</g>
</g>
<!-- dir_6b67cfcdbcbf1df04fac4a98c3b947ab&#45;&gt;dir_db1709413e4853dbf382363385ab04a7 -->
<g id="edge9" class="edge">
<title>dir_6b67cfcdbcbf1df04fac4a98c3b947ab&#45;&gt;dir_db1709413e4853dbf382363385ab04a7</title>
<g id="a_edge9"><a xlink:href="dir_001724_001309.html" target="_top">
<path fill="none" stroke="#63b8ff" d="M156.01,-110.33C155.27,-103.74 154.22,-94.46 153.28,-86.07"/>
<polygon fill="#63b8ff" stroke="#63b8ff" points="156.78,-85.91 152.18,-76.36 149.82,-86.69 156.78,-85.91"/>
</a>
</g>
<g id="a_edge9&#45;headlabel"><a xlink:href="dir_001724_001309.html" target="_top" xlink:title="12">
<text text-anchor="middle" x="159.83" y="-83.78" font-family="Helvetica,sans-Serif" font-size="10.00" fill="#63b8ff">12</text>
</a>
</g>
</g>
<!-- dir_6b67cfcdbcbf1df04fac4a98c3b947ab&#45;&gt;dir_d44c64559bbebec7f509842c48db8b23 -->
<g id="edge8" class="edge">
<title>dir_6b67cfcdbcbf1df04fac4a98c3b947ab&#45;&gt;dir_d44c64559bbebec7f509842c48db8b23</title>
<g id="a_edge8"><a xlink:href="dir_001724_000829.html" target="_top">
<path fill="none" stroke="#63b8ff" d="M187.72,-110.05C208.37,-102.84 235.31,-91.18 255,-74.5 269.65,-62.09 281.39,-43.5 288.88,-29.57"/>
<polygon fill="#63b8ff" stroke="#63b8ff" points="291.85,-31.46 293.27,-20.96 285.61,-28.28 291.85,-31.46"/>
</a>
</g>
<g id="a_edge8&#45;headlabel"><a xlink:href="dir_001724_000829.html" target="_top" xlink:title="71">
<text text-anchor="middle" x="293.44" y="-30.73" font-family="Helvetica,sans-Serif" font-size="10.00" fill="#63b8ff">71</text>
</a>
</g>
</g>
<!-- dir_604e56504269bc9a128cd8b15a4d6a95 -->
<g id="node7" class="node">
<title>dir_604e56504269bc9a128cd8b15a4d6a95</title>
<g id="a_node7"><a xlink:href="dir_604e56504269bc9a128cd8b15a4d6a95.html" target="_top" xlink:title="Z2AudioLib">
<polygon fill="#a2b4d6" stroke="#404040" points="307.75,-129.75 242.25,-129.75 242.25,-110.5 307.75,-110.5 307.75,-129.75"/>
<text text-anchor="middle" x="275" y="-116.25" font-family="Helvetica,sans-Serif" font-size="10.00">Z2AudioLib</text>
</a>
</g>
</g>
<!-- dir_604e56504269bc9a128cd8b15a4d6a95&#45;&gt;dir_db1709413e4853dbf382363385ab04a7 -->
<g id="edge11" class="edge">
<title>dir_604e56504269bc9a128cd8b15a4d6a95&#45;&gt;dir_db1709413e4853dbf382363385ab04a7</title>
<g id="a_edge11"><a xlink:href="dir_001729_001309.html" target="_top">
<path fill="none" stroke="#63b8ff" d="M253.97,-110.09C234.37,-101.68 204.89,-89.02 182.49,-79.4"/>
<polygon fill="#63b8ff" stroke="#63b8ff" points="184.1,-76.28 173.53,-75.55 181.34,-82.71 184.1,-76.28"/>
</a>
</g>
<g id="a_edge11&#45;headlabel"><a xlink:href="dir_001729_001309.html" target="_top" xlink:title="3">
<text text-anchor="middle" x="187.13" y="-70.62" font-family="Helvetica,sans-Serif" font-size="10.00" fill="#63b8ff">3</text>
</a>
</g>
</g>
<!-- dir_604e56504269bc9a128cd8b15a4d6a95&#45;&gt;dir_d44c64559bbebec7f509842c48db8b23 -->
<g id="edge10" class="edge">
<title>dir_604e56504269bc9a128cd8b15a4d6a95&#45;&gt;dir_d44c64559bbebec7f509842c48db8b23</title>
<g id="a_edge10"><a xlink:href="dir_001729_000829.html" target="_top">
<path fill="none" stroke="#63b8ff" d="M279.57,-110.16C283.83,-101.34 289.98,-87.35 293,-74.5 296.4,-60.04 297.61,-43.29 297.99,-30.57"/>
<polygon fill="#63b8ff" stroke="#63b8ff" points="301.49,-30.99 298.13,-20.95 294.49,-30.9 301.49,-30.99"/>
</a>
</g>
<g id="a_edge10&#45;headlabel"><a xlink:href="dir_001729_000829.html" target="_top" xlink:title="159">
<text text-anchor="middle" x="304.3" y="-29.24" font-family="Helvetica,sans-Serif" font-size="10.00" fill="#63b8ff">159</text>
</a>
</g>
</g>
</g>
</svg>
