<?xml version="1.0" encoding="UTF-8" standalone="no"?>
<!DOCTYPE svg PUBLIC "-//W3C//DTD SVG 1.1//EN"
 "http://www.w3.org/Graphics/SVG/1.1/DTD/svg11.dtd">
<!-- Generated by graphviz version 3.0.0 (20220413.0106)
 -->
<!-- Title: include/odemuexi2/Src Pages: 1 -->
<svg width="208pt" height="159pt"
 viewBox="0.00 0.00 208.00 159.00" xmlns="http://www.w3.org/2000/svg" xmlns:xlink="http://www.w3.org/1999/xlink">
<g id="graph0" class="graph" transform="scale(1 1) rotate(0) translate(4 155)">
<title>include/odemuexi2/Src</title>
<polygon fill="white" stroke="transparent" points="-4,4 -4,-155 204,-155 204,4 -4,4"/>
<g id="clust1" class="cluster">
<title>clusterdir_87ef4356690393f98a03cd010822f8d3</title>
<g id="a_clust1"><a xlink:href="dir_87ef4356690393f98a03cd010822f8d3.html" target="_top" xlink:title="odemuexi2">
<polygon fill="#edf0f7" stroke="#7f7f7f" stroke-dasharray="5,2" points="8,-56 8,-143 192,-143 192,-56 8,-56"/>
<text text-anchor="middle" x="100" y="-131" font-family="Helvetica,sans-Serif" font-size="10.00">odemuexi2</text>
</a>
</g>
</g>
<g id="clust2" class="cluster">
<title>clusterdir_bfd223f46385ddc8c544556b7dc637f2</title>
<g id="a_clust2"><a xlink:href="dir_bfd223f46385ddc8c544556b7dc637f2.html" target="_top">
<polygon fill="#edf0f7" stroke="#404040" stroke-width="2" points="16,-64 16,-116 184,-116 184,-64 16,-64"/>
</a>
</g>
</g>
<!-- dir_bfd223f46385ddc8c544556b7dc637f2 -->
<g id="node1" class="node">
<title>dir_bfd223f46385ddc8c544556b7dc637f2</title>
<text text-anchor="middle" x="149" y="-87.5" font-family="Helvetica,sans-Serif" font-size="10.00">Src</text>
</g>
<!-- dir_44bf48323cb61be75b1281f040d630c6 -->
<g id="node2" class="node">
<title>dir_44bf48323cb61be75b1281f040d630c6</title>
<g id="a_node2"><a xlink:href="dir_44bf48323cb61be75b1281f040d630c6.html" target="_top" xlink:title="OdemuExi2Lib">
<polygon fill="#a2b4d6" stroke="#404040" points="104,-108 24,-108 24,-72 104,-72 104,-108"/>
<text text-anchor="middle" x="64" y="-87.5" font-family="Helvetica,sans-Serif" font-size="10.00">OdemuExi2Lib</text>
</a>
</g>
</g>
<!-- dir_b778c3f297ab88300258a2935792c8cc -->
<g id="node3" class="node">
<title>dir_b778c3f297ab88300258a2935792c8cc</title>
<g id="a_node3"><a xlink:href="dir_b778c3f297ab88300258a2935792c8cc.html" target="_top" xlink:title="dolphin">
<polygon fill="none" stroke="red" stroke-dasharray="5,2" points="91,-36 37,-36 37,0 91,0 91,-36"/>
<text text-anchor="middle" x="64" y="-15.5" font-family="Helvetica,sans-Serif" font-size="10.00">dolphin</text>
</a>
</g>
</g>
<!-- dir_44bf48323cb61be75b1281f040d630c6&#45;&gt;dir_b778c3f297ab88300258a2935792c8cc -->
<g id="edge1" class="edge">
<title>dir_44bf48323cb61be75b1281f040d630c6&#45;&gt;dir_b778c3f297ab88300258a2935792c8cc</title>
<path fill="none" stroke="black" d="M64,-71.7C64,-63.98 64,-54.71 64,-46.11"/>
<polygon fill="black" stroke="black" points="67.5,-46.1 64,-36.1 60.5,-46.1 67.5,-46.1"/>
<g id="a_edge1&#45;headlabel"><a xlink:href="dir_001299_000788.html" target="_top" xlink:title="1">
<text text-anchor="middle" x="70.34" y="-47.2" font-family="Helvetica,sans-Serif" font-size="10.00">1</text>
</a>
</g>
</g>
</g>
</svg>
