<?xml version="1.0" encoding="UTF-8" standalone="no"?>
<!DOCTYPE svg PUBLIC "-//W3C//DTD SVG 1.1//EN"
 "http://www.w3.org/Graphics/SVG/1.1/DTD/svg11.dtd">
<!-- Generated by graphviz version 7.0.5 (20221223.1930)
 -->
<!-- Title: include/rel/d/a/d_a_spinner Pages: 1 -->
<svg width="181pt" height="125pt"
 viewBox="0.00 0.00 180.50 125.00" xmlns="http://www.w3.org/2000/svg" xmlns:xlink="http://www.w3.org/1999/xlink">
<g id="graph0" class="graph" transform="scale(1 1) rotate(0) translate(4 121)">
<title>include/rel/d/a/d_a_spinner</title>
<g id="clust1" class="cluster">
<title>clusterdir_b81c1d082692bb1b2b34ed3bfe8a0f4a</title>
<g id="a_clust1"><a xlink:href="dir_b81c1d082692bb1b2b34ed3bfe8a0f4a.html" target="_top" xlink:title="a">
<polygon fill="#edf0f7" stroke="#7f7f7f" stroke-dasharray="5,2" points="8,-39 8,-109 160,-109 160,-39 8,-39"/>
<text text-anchor="middle" x="84" y="-97" font-family="Helvetica,sans-Serif" font-size="10.00">a</text>
</a>
</g>
</g>
<g id="clust2" class="cluster">
<title>clusterdir_821c5c544961da92ffc5521851c8fd16</title>
<g id="a_clust2"><a xlink:href="dir_821c5c544961da92ffc5521851c8fd16.html" target="_top">
<polygon fill="#edf0f7" stroke="#404040" stroke-width="2" points="16,-47 16,-82 152,-82 152,-47 16,-47"/>
</a>
</g>
</g>
<!-- dir_821c5c544961da92ffc5521851c8fd16 -->
<g id="node1" class="node">
<title>dir_821c5c544961da92ffc5521851c8fd16</title>
<text text-anchor="middle" x="109" y="-62" font-family="Helvetica,sans-Serif" font-size="10.00">d_a_spinner</text>
</g>
<!-- dir_b778c3f297ab88300258a2935792c8cc -->
<g id="node3" class="node">
<title>dir_b778c3f297ab88300258a2935792c8cc</title>
<g id="a_node3"><a xlink:href="dir_b778c3f297ab88300258a2935792c8cc.html" target="_top" xlink:title="dolphin">
<polygon fill="#edf0f7" stroke="red" stroke-dasharray="5,2" points="69.5,-19 22.5,-19 22.5,0 69.5,0 69.5,-19"/>
<text text-anchor="middle" x="46" y="-7" font-family="Helvetica,sans-Serif" font-size="10.00">dolphin</text>
</a>
</g>
</g>
<!-- dir_821c5c544961da92ffc5521851c8fd16&#45;&gt;dir_b778c3f297ab88300258a2935792c8cc -->
<g id="edge1" class="edge">
<title>dir_821c5c544961da92ffc5521851c8fd16&#45;&gt;dir_b778c3f297ab88300258a2935792c8cc</title>
<path fill="none" stroke="#63b8ff" d="M99.16,-55.22C90.07,-47.58 76.33,-36.02 65.09,-26.56"/>
<polygon fill="#63b8ff" stroke="#63b8ff" points="67.47,-23.99 57.56,-20.23 62.96,-29.34 67.47,-23.99"/>
<g id="a_edge1&#45;headlabel"><a xlink:href="dir_000693_000786.html" target="_top" xlink:title="5">
<text text-anchor="middle" x="70.89" y="-20.65" font-family="Helvetica,sans-Serif" font-size="10.00" fill="#63b8ff">5</text>
</a>
</g>
</g>
<!-- dir_cc3ad1aed4be3f446fdd7af78322f5bf -->
<g id="node4" class="node">
<title>dir_cc3ad1aed4be3f446fdd7af78322f5bf</title>
<g id="a_node4"><a xlink:href="dir_cc3ad1aed4be3f446fdd7af78322f5bf.html" target="_top" xlink:title="d">
<polygon fill="#edf0f7" stroke="red" stroke-dasharray="5,2" points="119.5,-19 90.5,-19 90.5,0 119.5,0 119.5,-19"/>
<text text-anchor="middle" x="105" y="-7" font-family="Helvetica,sans-Serif" font-size="10.00">d</text>
</a>
</g>
</g>
<!-- dir_821c5c544961da92ffc5521851c8fd16&#45;&gt;dir_cc3ad1aed4be3f446fdd7af78322f5bf -->
<g id="edge2" class="edge">
<title>dir_821c5c544961da92ffc5521851c8fd16&#45;&gt;dir_cc3ad1aed4be3f446fdd7af78322f5bf</title>
<path fill="none" stroke="#63b8ff" d="M108.38,-55.22C107.88,-48.65 107.16,-39.18 106.52,-30.64"/>
<polygon fill="#63b8ff" stroke="#63b8ff" points="110.02,-30.47 105.77,-20.76 103.04,-31 110.02,-30.47"/>
<g id="a_edge2&#45;headlabel"><a xlink:href="dir_000693_000024.html" target="_top" xlink:title="3">
<text text-anchor="middle" x="113" y="-29.83" font-family="Helvetica,sans-Serif" font-size="10.00" fill="#63b8ff">3</text>
</a>
</g>
</g>
<!-- dir_fbb29e8cafd745cbb7106b56de6b5377 -->
<g id="node5" class="node">
<title>dir_fbb29e8cafd745cbb7106b56de6b5377</title>
<g id="a_node5"><a xlink:href="dir_fbb29e8cafd745cbb7106b56de6b5377.html" target="_top" xlink:title="f_op">
<polygon fill="#edf0f7" stroke="#7f7f7f" points="172.5,-19 137.5,-19 137.5,0 172.5,0 172.5,-19"/>
<text text-anchor="middle" x="155" y="-7" font-family="Helvetica,sans-Serif" font-size="10.00">f_op</text>
</a>
</g>
</g>
<!-- dir_821c5c544961da92ffc5521851c8fd16&#45;&gt;dir_fbb29e8cafd745cbb7106b56de6b5377 -->
<g id="edge3" class="edge">
<title>dir_821c5c544961da92ffc5521851c8fd16&#45;&gt;dir_fbb29e8cafd745cbb7106b56de6b5377</title>
<path fill="none" stroke="#63b8ff" d="M116.19,-55.22C122.56,-47.88 132.06,-36.93 140.07,-27.71"/>
<polygon fill="#63b8ff" stroke="#63b8ff" points="142.5,-30.24 146.41,-20.39 137.21,-25.65 142.5,-30.24"/>
<g id="a_edge3&#45;headlabel"><a xlink:href="dir_000693_000812.html" target="_top" xlink:title="1">
<text text-anchor="middle" x="143.28" y="-31.17" font-family="Helvetica,sans-Serif" font-size="10.00" fill="#63b8ff">1</text>
</a>
</g>
</g>
<!-- dir_d474863b71b76357056ab27d59560d6b -->
<g id="node2" class="node">
<title>dir_d474863b71b76357056ab27d59560d6b</title>
<g id="a_node2"><a xlink:href="dir_d474863b71b76357056ab27d59560d6b.html" target="_top" xlink:title="libs">
<polygon fill="#a2b4d6" stroke="#404040" points="56,-74 24,-74 24,-55 56,-55 56,-74"/>
<text text-anchor="middle" x="40" y="-62" font-family="Helvetica,sans-Serif" font-size="10.00">libs</text>
</a>
</g>
</g>
<!-- dir_d474863b71b76357056ab27d59560d6b&#45;&gt;dir_b778c3f297ab88300258a2935792c8cc -->
<g id="edge4" class="edge">
<title>dir_d474863b71b76357056ab27d59560d6b&#45;&gt;dir_b778c3f297ab88300258a2935792c8cc</title>
<path fill="none" stroke="#63b8ff" d="M40.99,-54.75C41.73,-48.19 42.78,-38.95 43.72,-30.6"/>
<polygon fill="#63b8ff" stroke="#63b8ff" points="47.17,-31.28 44.82,-20.95 40.21,-30.49 47.17,-31.28"/>
<g id="a_edge4&#45;headlabel"><a xlink:href="dir_000918_000786.html" target="_top" xlink:title="1">
<text text-anchor="middle" x="49.76" y="-31.16" font-family="Helvetica,sans-Serif" font-size="10.00" fill="#63b8ff">1</text>
</a>
</g>
</g>
</g>
</svg>
