<?xml version="1.0" encoding="UTF-8" standalone="no"?>
<!DOCTYPE svg PUBLIC "-//W3C//DTD SVG 1.1//EN"
 "http://www.w3.org/Graphics/SVG/1.1/DTD/svg11.dtd">
<!-- Generated by graphviz version 7.0.5 (20221223.1930)
 -->
<!-- Title: include/dolphin Pages: 1 -->
<svg width="573pt" height="259pt"
 viewBox="0.00 0.00 573.00 259.00" xmlns="http://www.w3.org/2000/svg" xmlns:xlink="http://www.w3.org/1999/xlink">
<g id="graph0" class="graph" transform="scale(1 1) rotate(0) translate(4 255)">
<title>include/dolphin</title>
<g id="clust1" class="cluster">
<title>clusterdir_d44c64559bbebec7f509842c48db8b23</title>
<g id="a_clust1"><a xlink:href="dir_d44c64559bbebec7f509842c48db8b23.html" target="_top" xlink:title="include">
<polygon fill="#edf0f7" stroke="#404040" stroke-dasharray="5,2" points="8,-8 8,-243 525,-243 525,-8 8,-8"/>
<text text-anchor="middle" x="266.5" y="-231" font-family="Helvetica,sans-Serif" font-size="10.00">include</text>
</a>
</g>
</g>
<g id="clust2" class="cluster">
<title>clusterdir_b778c3f297ab88300258a2935792c8cc</title>
<g id="a_clust2"><a xlink:href="dir_b778c3f297ab88300258a2935792c8cc.html" target="_top">
<polygon fill="#edf0f7" stroke="#404040" stroke-width="2" points="16,-16 16,-216 517,-216 517,-16 16,-16"/>
</a>
</g>
</g>
<!-- dir_b778c3f297ab88300258a2935792c8cc -->
<g id="node1" class="node">
<title>dir_b778c3f297ab88300258a2935792c8cc</title>
<text text-anchor="middle" x="485" y="-196" font-family="Helvetica,sans-Serif" font-size="10.00">dolphin</text>
</g>
<!-- dir_6719ab1f1f7655efc2fa43f7eb574fd1 -->
<g id="node18" class="node">
<title>dir_6719ab1f1f7655efc2fa43f7eb574fd1</title>
<g id="a_node18"><a xlink:href="dir_6719ab1f1f7655efc2fa43f7eb574fd1.html" target="_top" xlink:title="libs">
<polygon fill="#edf0f7" stroke="red" points="565,-43 533,-43 533,-24 565,-24 565,-43"/>
<text text-anchor="middle" x="549" y="-31" font-family="Helvetica,sans-Serif" font-size="10.00">libs</text>
</a>
</g>
</g>
<!-- dir_b778c3f297ab88300258a2935792c8cc&#45;&gt;dir_6719ab1f1f7655efc2fa43f7eb574fd1 -->
<g id="edge1" class="edge">
<title>dir_b778c3f297ab88300258a2935792c8cc&#45;&gt;dir_6719ab1f1f7655efc2fa43f7eb574fd1</title>
<path fill="none" stroke="#63b8ff" d="M488.26,-189.19C498.06,-164.25 527.4,-89.52 541.4,-53.85"/>
<polygon fill="#63b8ff" stroke="#63b8ff" points="544.56,-55.38 544.96,-44.79 538.05,-52.82 544.56,-55.38"/>
<g id="a_edge1&#45;headlabel"><a xlink:href="dir_000786_001267.html" target="_top" xlink:title="2">
<text text-anchor="middle" x="546.44" y="-55.85" font-family="Helvetica,sans-Serif" font-size="10.00" fill="#63b8ff">2</text>
</a>
</g>
</g>
<!-- dir_521291349eb63a0524ef4b13f92d3bb5 -->
<g id="node2" class="node">
<title>dir_521291349eb63a0524ef4b13f92d3bb5</title>
<g id="a_node2"><a xlink:href="dir_521291349eb63a0524ef4b13f92d3bb5.html" target="_top" xlink:title="ai">
<polygon fill="#a2b4d6" stroke="#404040" points="443.5,-208 414.5,-208 414.5,-189 443.5,-189 443.5,-208"/>
<text text-anchor="middle" x="429" y="-196" font-family="Helvetica,sans-Serif" font-size="10.00">ai</text>
</a>
</g>
</g>
<!-- dir_18e4858151fe0ca0d0b33d25acbbb1c4 -->
<g id="node3" class="node">
<title>dir_18e4858151fe0ca0d0b33d25acbbb1c4</title>
<g id="a_node3"><a xlink:href="dir_18e4858151fe0ca0d0b33d25acbbb1c4.html" target="_top" xlink:title="ar">
<polygon fill="#a2b4d6" stroke="#404040" points="396.5,-208 367.5,-208 367.5,-189 396.5,-189 396.5,-208"/>
<text text-anchor="middle" x="382" y="-196" font-family="Helvetica,sans-Serif" font-size="10.00">ar</text>
</a>
</g>
</g>
<!-- dir_79a1ec55bd3d63dbffc944250452287c -->
<g id="node4" class="node">
<title>dir_79a1ec55bd3d63dbffc944250452287c</title>
<g id="a_node4"><a xlink:href="dir_79a1ec55bd3d63dbffc944250452287c.html" target="_top" xlink:title="base">
<polygon fill="#a2b4d6" stroke="#404040" points="349,-208 311,-208 311,-189 349,-189 349,-208"/>
<text text-anchor="middle" x="330" y="-196" font-family="Helvetica,sans-Serif" font-size="10.00">base</text>
</a>
</g>
</g>
<!-- dir_0ef040c2f93dc84452aa976ac860f1af -->
<g id="node5" class="node">
<title>dir_0ef040c2f93dc84452aa976ac860f1af</title>
<g id="a_node5"><a xlink:href="dir_0ef040c2f93dc84452aa976ac860f1af.html" target="_top" xlink:title="card">
<polygon fill="#a2b4d6" stroke="#404040" points="417.5,-153 382.5,-153 382.5,-134 417.5,-134 417.5,-153"/>
<text text-anchor="middle" x="400" y="-141" font-family="Helvetica,sans-Serif" font-size="10.00">card</text>
</a>
</g>
</g>
<!-- dir_cae10961887f0d641c054afc85dac474 -->
<g id="node14" class="node">
<title>dir_cae10961887f0d641c054afc85dac474</title>
<g id="a_node14"><a xlink:href="dir_cae10961887f0d641c054afc85dac474.html" target="_top" xlink:title="os">
<polygon fill="#a2b4d6" stroke="#404040" points="362.5,-98 333.5,-98 333.5,-79 362.5,-79 362.5,-98"/>
<text text-anchor="middle" x="348" y="-86" font-family="Helvetica,sans-Serif" font-size="10.00">os</text>
</a>
</g>
</g>
<!-- dir_0ef040c2f93dc84452aa976ac860f1af&#45;&gt;dir_cae10961887f0d641c054afc85dac474 -->
<g id="edge2" class="edge">
<title>dir_0ef040c2f93dc84452aa976ac860f1af&#45;&gt;dir_cae10961887f0d641c054afc85dac474</title>
<path fill="none" stroke="#63b8ff" d="M391.41,-133.75C384.16,-126.35 373.55,-115.54 364.63,-106.45"/>
<polygon fill="#63b8ff" stroke="#63b8ff" points="367.34,-104.21 357.83,-99.52 362.34,-109.11 367.34,-104.21"/>
<g id="a_edge2&#45;headlabel"><a xlink:href="dir_000016_001300.html" target="_top" xlink:title="2">
<text text-anchor="middle" x="370.82" y="-101.21" font-family="Helvetica,sans-Serif" font-size="10.00" fill="#63b8ff">2</text>
</a>
</g>
</g>
<!-- dir_d1528a5e946760f264693e8a3f2d64b5 -->
<g id="node6" class="node">
<title>dir_d1528a5e946760f264693e8a3f2d64b5</title>
<g id="a_node6"><a xlink:href="dir_d1528a5e946760f264693e8a3f2d64b5.html" target="_top" xlink:title="db">
<polygon fill="#a2b4d6" stroke="#404040" points="292.5,-208 263.5,-208 263.5,-189 292.5,-189 292.5,-208"/>
<text text-anchor="middle" x="278" y="-196" font-family="Helvetica,sans-Serif" font-size="10.00">db</text>
</a>
</g>
</g>
<!-- dir_09cbebe37d76dbc976deecd2ab12d8d9 -->
<g id="node7" class="node">
<title>dir_09cbebe37d76dbc976deecd2ab12d8d9</title>
<g id="a_node7"><a xlink:href="dir_09cbebe37d76dbc976deecd2ab12d8d9.html" target="_top" xlink:title="dsp">
<polygon fill="#a2b4d6" stroke="#404040" points="364,-153 332,-153 332,-134 364,-134 364,-153"/>
<text text-anchor="middle" x="348" y="-141" font-family="Helvetica,sans-Serif" font-size="10.00">dsp</text>
</a>
</g>
</g>
<!-- dir_09cbebe37d76dbc976deecd2ab12d8d9&#45;&gt;dir_cae10961887f0d641c054afc85dac474 -->
<g id="edge3" class="edge">
<title>dir_09cbebe37d76dbc976deecd2ab12d8d9&#45;&gt;dir_cae10961887f0d641c054afc85dac474</title>
<path fill="none" stroke="#63b8ff" d="M348,-133.75C348,-127.27 348,-118.16 348,-109.9"/>
<polygon fill="#63b8ff" stroke="#63b8ff" points="351.5,-109.96 348,-99.96 344.5,-109.96 351.5,-109.96"/>
<g id="a_edge3&#45;headlabel"><a xlink:href="dir_000792_001300.html" target="_top" xlink:title="1">
<text text-anchor="middle" x="354.34" y="-109.54" font-family="Helvetica,sans-Serif" font-size="10.00" fill="#63b8ff">1</text>
</a>
</g>
</g>
<!-- dir_29bcf741baa82324f70900332eca16cc -->
<g id="node8" class="node">
<title>dir_29bcf741baa82324f70900332eca16cc</title>
<g id="a_node8"><a xlink:href="dir_29bcf741baa82324f70900332eca16cc.html" target="_top" xlink:title="dvd">
<polygon fill="#a2b4d6" stroke="#404040" points="364,-43 332,-43 332,-24 364,-24 364,-43"/>
<text text-anchor="middle" x="348" y="-31" font-family="Helvetica,sans-Serif" font-size="10.00">dvd</text>
</a>
</g>
</g>
<!-- dir_6f6beed2686d731e2bd60d8768419109 -->
<g id="node9" class="node">
<title>dir_6f6beed2686d731e2bd60d8768419109</title>
<g id="a_node9"><a xlink:href="dir_6f6beed2686d731e2bd60d8768419109.html" target="_top" xlink:title="exi">
<polygon fill="#a2b4d6" stroke="#404040" points="245.5,-208 216.5,-208 216.5,-189 245.5,-189 245.5,-208"/>
<text text-anchor="middle" x="231" y="-196" font-family="Helvetica,sans-Serif" font-size="10.00">exi</text>
</a>
</g>
</g>
<!-- dir_a77b964d850efb05d208e24b02ac9b71 -->
<g id="node10" class="node">
<title>dir_a77b964d850efb05d208e24b02ac9b71</title>
<g id="a_node10"><a xlink:href="dir_a77b964d850efb05d208e24b02ac9b71.html" target="_top" xlink:title="gd">
<polygon fill="#a2b4d6" stroke="#404040" points="198.5,-208 169.5,-208 169.5,-189 198.5,-189 198.5,-208"/>
<text text-anchor="middle" x="184" y="-196" font-family="Helvetica,sans-Serif" font-size="10.00">gd</text>
</a>
</g>
</g>
<!-- dir_da4e8bf8a3e0570034fe2e3a47ee8420 -->
<g id="node11" class="node">
<title>dir_da4e8bf8a3e0570034fe2e3a47ee8420</title>
<g id="a_node11"><a xlink:href="dir_da4e8bf8a3e0570034fe2e3a47ee8420.html" target="_top" xlink:title="gf">
<polygon fill="#a2b4d6" stroke="#404040" points="151.5,-208 122.5,-208 122.5,-189 151.5,-189 151.5,-208"/>
<text text-anchor="middle" x="137" y="-196" font-family="Helvetica,sans-Serif" font-size="10.00">gf</text>
</a>
</g>
</g>
<!-- dir_0a946831413905238e39a80608042579 -->
<g id="node12" class="node">
<title>dir_0a946831413905238e39a80608042579</title>
<g id="a_node12"><a xlink:href="dir_0a946831413905238e39a80608042579.html" target="_top" xlink:title="gx">
<polygon fill="#a2b4d6" stroke="#404040" points="189.5,-153 160.5,-153 160.5,-134 189.5,-134 189.5,-153"/>
<text text-anchor="middle" x="175" y="-141" font-family="Helvetica,sans-Serif" font-size="10.00">gx</text>
</a>
</g>
</g>
<!-- dir_da4e8bf8a3e0570034fe2e3a47ee8420&#45;&gt;dir_0a946831413905238e39a80608042579 -->
<g id="edge4" class="edge">
<title>dir_da4e8bf8a3e0570034fe2e3a47ee8420&#45;&gt;dir_0a946831413905238e39a80608042579</title>
<path fill="none" stroke="#63b8ff" d="M143.27,-188.75C148.36,-181.66 155.7,-171.42 162.03,-162.59"/>
<polygon fill="#63b8ff" stroke="#63b8ff" points="164.72,-164.84 167.71,-154.67 159.04,-160.76 164.72,-164.84"/>
<g id="a_edge4&#45;headlabel"><a xlink:href="dir_000827_000829.html" target="_top" xlink:title="3">
<text text-anchor="middle" x="165.82" y="-165.68" font-family="Helvetica,sans-Serif" font-size="10.00" fill="#63b8ff">3</text>
</a>
</g>
</g>
<!-- dir_c18583810381222ac4660cab2f94c87b -->
<g id="node13" class="node">
<title>dir_c18583810381222ac4660cab2f94c87b</title>
<g id="a_node13"><a xlink:href="dir_c18583810381222ac4660cab2f94c87b.html" target="_top" xlink:title="mtx">
<polygon fill="#a2b4d6" stroke="#404040" points="191,-98 159,-98 159,-79 191,-79 191,-98"/>
<text text-anchor="middle" x="175" y="-86" font-family="Helvetica,sans-Serif" font-size="10.00">mtx</text>
</a>
</g>
</g>
<!-- dir_0a946831413905238e39a80608042579&#45;&gt;dir_c18583810381222ac4660cab2f94c87b -->
<g id="edge5" class="edge">
<title>dir_0a946831413905238e39a80608042579&#45;&gt;dir_c18583810381222ac4660cab2f94c87b</title>
<path fill="none" stroke="#63b8ff" d="M175,-133.75C175,-127.27 175,-118.16 175,-109.9"/>
<polygon fill="#63b8ff" stroke="#63b8ff" points="178.5,-109.96 175,-99.96 171.5,-109.96 178.5,-109.96"/>
<g id="a_edge5&#45;headlabel"><a xlink:href="dir_000829_001290.html" target="_top" xlink:title="2">
<text text-anchor="middle" x="181.34" y="-109.54" font-family="Helvetica,sans-Serif" font-size="10.00" fill="#63b8ff">2</text>
</a>
</g>
</g>
<!-- dir_0a946831413905238e39a80608042579&#45;&gt;dir_cae10961887f0d641c054afc85dac474 -->
<g id="edge6" class="edge">
<title>dir_0a946831413905238e39a80608042579&#45;&gt;dir_cae10961887f0d641c054afc85dac474</title>
<path fill="none" stroke="#63b8ff" d="M189.75,-137.98C219.24,-128.95 285.8,-108.56 322.5,-97.31"/>
<polygon fill="#63b8ff" stroke="#63b8ff" points="323.3,-100.73 331.84,-94.45 321.25,-94.03 323.3,-100.73"/>
<g id="a_edge6&#45;headlabel"><a xlink:href="dir_000829_001300.html" target="_top" xlink:title="1">
<text text-anchor="middle" x="322.15" y="-101.55" font-family="Helvetica,sans-Serif" font-size="10.00" fill="#63b8ff">1</text>
</a>
</g>
</g>
<!-- dir_cae10961887f0d641c054afc85dac474&#45;&gt;dir_29bcf741baa82324f70900332eca16cc -->
<g id="edge7" class="edge">
<title>dir_cae10961887f0d641c054afc85dac474&#45;&gt;dir_29bcf741baa82324f70900332eca16cc</title>
<path fill="none" stroke="#63b8ff" d="M348,-78.75C348,-72.27 348,-63.16 348,-54.9"/>
<polygon fill="#63b8ff" stroke="#63b8ff" points="351.5,-54.96 348,-44.96 344.5,-54.96 351.5,-54.96"/>
<g id="a_edge7&#45;headlabel"><a xlink:href="dir_001300_000794.html" target="_top" xlink:title="1">
<text text-anchor="middle" x="354.34" y="-54.54" font-family="Helvetica,sans-Serif" font-size="10.00" fill="#63b8ff">1</text>
</a>
</g>
</g>
<!-- dir_cae10961887f0d641c054afc85dac474&#45;&gt;dir_6719ab1f1f7655efc2fa43f7eb574fd1 -->
<g id="edge8" class="edge">
<title>dir_cae10961887f0d641c054afc85dac474&#45;&gt;dir_6719ab1f1f7655efc2fa43f7eb574fd1</title>
<path fill="none" stroke="#63b8ff" d="M362.87,-83.9C392.87,-76.6 462.77,-59.32 521,-43 521.24,-42.93 521.48,-42.87 521.72,-42.8"/>
<polygon fill="#63b8ff" stroke="#63b8ff" points="522.69,-46.16 531.3,-39.99 520.71,-39.44 522.69,-46.16"/>
<g id="a_edge8&#45;headlabel"><a xlink:href="dir_001300_001267.html" target="_top" xlink:title="1">
<text text-anchor="middle" x="521.49" y="-46.97" font-family="Helvetica,sans-Serif" font-size="10.00" fill="#63b8ff">1</text>
</a>
</g>
</g>
<!-- dir_80850d49484b7deac3e56f29f2c142bb -->
<g id="node15" class="node">
<title>dir_80850d49484b7deac3e56f29f2c142bb</title>
<g id="a_node15"><a xlink:href="dir_80850d49484b7deac3e56f29f2c142bb.html" target="_top" xlink:title="pad">
<polygon fill="#a2b4d6" stroke="#404040" points="104,-208 72,-208 72,-189 104,-189 104,-208"/>
<text text-anchor="middle" x="88" y="-196" font-family="Helvetica,sans-Serif" font-size="10.00">pad</text>
</a>
</g>
</g>
<!-- dir_b02b9d991b880b57acc1b523a1a5973b -->
<g id="node16" class="node">
<title>dir_b02b9d991b880b57acc1b523a1a5973b</title>
<g id="a_node16"><a xlink:href="dir_b02b9d991b880b57acc1b523a1a5973b.html" target="_top" xlink:title="si">
<polygon fill="#a2b4d6" stroke="#404040" points="313.5,-153 284.5,-153 284.5,-134 313.5,-134 313.5,-153"/>
<text text-anchor="middle" x="299" y="-141" font-family="Helvetica,sans-Serif" font-size="10.00">si</text>
</a>
</g>
</g>
<!-- dir_b02b9d991b880b57acc1b523a1a5973b&#45;&gt;dir_cae10961887f0d641c054afc85dac474 -->
<g id="edge9" class="edge">
<title>dir_b02b9d991b880b57acc1b523a1a5973b&#45;&gt;dir_cae10961887f0d641c054afc85dac474</title>
<path fill="none" stroke="#63b8ff" d="M307.09,-133.75C313.86,-126.43 323.72,-115.76 332.06,-106.74"/>
<polygon fill="#63b8ff" stroke="#63b8ff" points="334.49,-109.27 338.71,-99.55 329.35,-104.52 334.49,-109.27"/>
<g id="a_edge9&#45;headlabel"><a xlink:href="dir_001715_001300.html" target="_top" xlink:title="2">
<text text-anchor="middle" x="335.16" y="-110.23" font-family="Helvetica,sans-Serif" font-size="10.00" fill="#63b8ff">2</text>
</a>
</g>
</g>
<!-- dir_644b56497ee721560a7c52bb893b6766 -->
<g id="node17" class="node">
<title>dir_644b56497ee721560a7c52bb893b6766</title>
<g id="a_node17"><a xlink:href="dir_644b56497ee721560a7c52bb893b6766.html" target="_top" xlink:title="vi">
<polygon fill="#a2b4d6" stroke="#404040" points="53.5,-208 24.5,-208 24.5,-189 53.5,-189 53.5,-208"/>
<text text-anchor="middle" x="39" y="-196" font-family="Helvetica,sans-Serif" font-size="10.00">vi</text>
</a>
</g>
</g>
</g>
</svg>
