<?xml version="1.0" encoding="UTF-8" standalone="no"?>
<!DOCTYPE svg PUBLIC "-//W3C//DTD SVG 1.1//EN"
 "http://www.w3.org/Graphics/SVG/1.1/DTD/svg11.dtd">
<!-- Generated by graphviz version 3.0.0 (20220413.0106)
 -->
<!-- Title: include/rel/d/a/b/d_a_b_dr Pages: 1 -->
<svg width="184pt" height="159pt"
 viewBox="0.00 0.00 184.00 159.00" xmlns="http://www.w3.org/2000/svg" xmlns:xlink="http://www.w3.org/1999/xlink">
<g id="graph0" class="graph" transform="scale(1 1) rotate(0) translate(4 155)">
<title>include/rel/d/a/b/d_a_b_dr</title>
<polygon fill="white" stroke="transparent" points="-4,4 -4,-155 180,-155 180,4 -4,4"/>
<g id="clust1" class="cluster">
<title>clusterdir_1bc2c6076309d5060e91ecc2fa0132ef</title>
<g id="a_clust1"><a xlink:href="dir_1bc2c6076309d5060e91ecc2fa0132ef.html" target="_top" xlink:title="b">
<polygon fill="#edf0f7" stroke="#7f7f7f" stroke-dasharray="5,2" points="8,-56 8,-143 168,-143 168,-56 8,-56"/>
<text text-anchor="middle" x="88" y="-131" font-family="Helvetica,sans-Serif" font-size="10.00">b</text>
</a>
</g>
</g>
<g id="clust2" class="cluster">
<title>clusterdir_d273bccfaaf094a8c5b1ab491cff0ec3</title>
<g id="a_clust2"><a xlink:href="dir_d273bccfaaf094a8c5b1ab491cff0ec3.html" target="_top">
<polygon fill="#edf0f7" stroke="#404040" stroke-width="2" points="16,-64 16,-116 160,-116 160,-64 16,-64"/>
</a>
</g>
</g>
<!-- dir_d273bccfaaf094a8c5b1ab491cff0ec3 -->
<g id="node1" class="node">
<title>dir_d273bccfaaf094a8c5b1ab491cff0ec3</title>
<text text-anchor="middle" x="124" y="-87.5" font-family="Helvetica,sans-Serif" font-size="10.00">d_a_b_dr</text>
</g>
<!-- dir_b778c3f297ab88300258a2935792c8cc -->
<g id="node3" class="node">
<title>dir_b778c3f297ab88300258a2935792c8cc</title>
<g id="a_node3"><a xlink:href="dir_b778c3f297ab88300258a2935792c8cc.html" target="_top" xlink:title="dolphin">
<polygon fill="none" stroke="red" stroke-dasharray="5,2" points="114,-36 60,-36 60,0 114,0 114,-36"/>
<text text-anchor="middle" x="87" y="-15.5" font-family="Helvetica,sans-Serif" font-size="10.00">dolphin</text>
</a>
</g>
</g>
<!-- dir_d273bccfaaf094a8c5b1ab491cff0ec3&#45;&gt;dir_b778c3f297ab88300258a2935792c8cc -->
<g id="edge1" class="edge">
<title>dir_d273bccfaaf094a8c5b1ab491cff0ec3&#45;&gt;dir_b778c3f297ab88300258a2935792c8cc</title>
<path fill="none" stroke="black" d="M114.85,-71.7C110.6,-63.64 105.44,-53.89 100.73,-44.98"/>
<polygon fill="black" stroke="black" points="103.81,-43.31 96.04,-36.1 97.62,-46.58 103.81,-43.31"/>
<g id="a_edge1&#45;headlabel"><a xlink:href="dir_000035_000788.html" target="_top" xlink:title="5">
<text text-anchor="middle" x="108" y="-42.66" font-family="Helvetica,sans-Serif" font-size="10.00">5</text>
</a>
</g>
</g>
<!-- dir_d1d22a01f6b50cf20e93d9d5bb22ff2c -->
<g id="node2" class="node">
<title>dir_d1d22a01f6b50cf20e93d9d5bb22ff2c</title>
<g id="a_node2"><a xlink:href="dir_d1d22a01f6b50cf20e93d9d5bb22ff2c.html" target="_top" xlink:title="libs">
<polygon fill="#a2b4d6" stroke="#404040" points="78,-108 24,-108 24,-72 78,-72 78,-108"/>
<text text-anchor="middle" x="51" y="-87.5" font-family="Helvetica,sans-Serif" font-size="10.00">libs</text>
</a>
</g>
</g>
<!-- dir_d1d22a01f6b50cf20e93d9d5bb22ff2c&#45;&gt;dir_b778c3f297ab88300258a2935792c8cc -->
<g id="edge2" class="edge">
<title>dir_d1d22a01f6b50cf20e93d9d5bb22ff2c&#45;&gt;dir_b778c3f297ab88300258a2935792c8cc</title>
<path fill="none" stroke="black" d="M59.9,-71.7C64,-63.73 68.95,-54.1 73.49,-45.26"/>
<polygon fill="black" stroke="black" points="76.74,-46.6 78.2,-36.1 70.52,-43.4 76.74,-46.6"/>
<g id="a_edge2&#45;headlabel"><a xlink:href="dir_000882_000788.html" target="_top" xlink:title="1">
<text text-anchor="middle" x="77.62" y="-48.59" font-family="Helvetica,sans-Serif" font-size="10.00">1</text>
</a>
</g>
</g>
</g>
</svg>
