<?xml version="1.0" encoding="UTF-8" standalone="no"?>
<!DOCTYPE svg PUBLIC "-//W3C//DTD SVG 1.1//EN"
 "http://www.w3.org/Graphics/SVG/1.1/DTD/svg11.dtd">
<!-- Generated by graphviz version 3.0.0 (20220413.0106)
 -->
<!-- Title: include/rel/d/a/obj/d_a_obj_kantera Pages: 1 -->
<svg width="128pt" height="151pt"
 viewBox="0.00 0.00 128.00 151.00" xmlns="http://www.w3.org/2000/svg" xmlns:xlink="http://www.w3.org/1999/xlink">
<g id="graph0" class="graph" transform="scale(1 1) rotate(0) translate(4 147)">
<title>include/rel/d/a/obj/d_a_obj_kantera</title>
<polygon fill="white" stroke="transparent" points="-4,4 -4,-147 124,-147 124,4 -4,4"/>
<g id="clust1" class="cluster">
<title>clusterdir_837b79828d4d0cae6e2581b9ebbbcbf8</title>
<g id="a_clust1"><a xlink:href="dir_837b79828d4d0cae6e2581b9ebbbcbf8.html" target="_top" xlink:title="obj">
<polygon fill="#edf0f7" stroke="#7f7f7f" stroke-dasharray="5,2" points="8,-64 8,-135 112,-135 112,-64 8,-64"/>
<text text-anchor="middle" x="60" y="-123" font-family="Helvetica,sans-Serif" font-size="10.00">obj</text>
</a>
</g>
</g>
<!-- dir_87c931f8f40a7ba5221ab69770d21aa3 -->
<g id="node1" class="node">
<title>dir_87c931f8f40a7ba5221ab69770d21aa3</title>
<g id="a_node1"><a xlink:href="dir_87c931f8f40a7ba5221ab69770d21aa3.html" target="_top" xlink:title="d_a_obj_kantera">
<polygon fill="#edf0f7" stroke="#404040" stroke-width="2" points="104,-108 16,-108 16,-72 104,-72 104,-108"/>
<text text-anchor="middle" x="60" y="-87.5" font-family="Helvetica,sans-Serif" font-size="10.00">d_a_obj_kantera</text>
</a>
</g>
</g>
<!-- dir_b778c3f297ab88300258a2935792c8cc -->
<g id="node2" class="node">
<title>dir_b778c3f297ab88300258a2935792c8cc</title>
<g id="a_node2"><a xlink:href="dir_b778c3f297ab88300258a2935792c8cc.html" target="_top" xlink:title="dolphin">
<polygon fill="none" stroke="red" stroke-dasharray="5,2" points="87,-36 33,-36 33,0 87,0 87,-36"/>
<text text-anchor="middle" x="60" y="-15.5" font-family="Helvetica,sans-Serif" font-size="10.00">dolphin</text>
</a>
</g>
</g>
<!-- dir_87c931f8f40a7ba5221ab69770d21aa3&#45;&gt;dir_b778c3f297ab88300258a2935792c8cc -->
<g id="edge1" class="edge">
<title>dir_87c931f8f40a7ba5221ab69770d21aa3&#45;&gt;dir_b778c3f297ab88300258a2935792c8cc</title>
<path fill="none" stroke="black" d="M60,-71.7C60,-63.98 60,-54.71 60,-46.11"/>
<polygon fill="black" stroke="black" points="63.5,-46.1 60,-36.1 56.5,-46.1 63.5,-46.1"/>
<g id="a_edge1&#45;headlabel"><a xlink:href="dir_000451_000788.html" target="_top" xlink:title="5">
<text text-anchor="middle" x="66.34" y="-47.2" font-family="Helvetica,sans-Serif" font-size="10.00">5</text>
</a>
</g>
</g>
</g>
</svg>
