<?xml version="1.0" encoding="UTF-8" standalone="no"?>
<!DOCTYPE svg PUBLIC "-//W3C//DTD SVG 1.1//EN"
 "http://www.w3.org/Graphics/SVG/1.1/DTD/svg11.dtd">
<!-- Generated by graphviz version 7.0.5 (20221223.1930)
 -->
<!-- Title: libs/JSystem/JAudio2/dspproc.cpp Pages: 1 -->
<svg width="1014pt" height="346pt"
 viewBox="0.00 0.00 1014.00 346.00" xmlns="http://www.w3.org/2000/svg" xmlns:xlink="http://www.w3.org/1999/xlink">
<g id="graph0" class="graph" transform="scale(1 1) rotate(0) translate(4 342)">
<title>libs/JSystem/JAudio2/dspproc.cpp</title>
<!-- Node1 -->
<g id="node1" class="node">
<title>Node1</title>
<g id="a_node1"><a xlink:title=" ">
<polygon fill="#999999" stroke="#666666" points="469.5,-338 358.5,-338 358.5,-308 469.5,-308 469.5,-338"/>
<text text-anchor="start" x="366.5" y="-326" font-family="Helvetica,sans-Serif" font-size="10.00">libs/JSystem/JAudio2</text>
<text text-anchor="middle" x="414" y="-315" font-family="Helvetica,sans-Serif" font-size="10.00">/dspproc.cpp</text>
</a>
</g>
</g>
<!-- Node2 -->
<g id="node2" class="node">
<title>Node2</title>
<g id="a_node2"><a xlink:href="dspproc_8h.html" target="_top" xlink:title=" ">
<polygon fill="white" stroke="#666666" points="138,-261 0,-261 0,-242 138,-242 138,-261"/>
<text text-anchor="middle" x="69" y="-249" font-family="Helvetica,sans-Serif" font-size="10.00">JSystem/JAudio2/dspproc.h</text>
</a>
</g>
</g>
<!-- Node1&#45;&gt;Node2 -->
<g id="edge1" class="edge">
<title>Node1&#45;&gt;Node2</title>
<path fill="none" stroke="#63b8ff" d="M358.15,-312.05C305.02,-302.41 222.88,-287.08 152,-272 140.6,-269.57 128.36,-266.8 116.87,-264.11"/>
<polygon fill="#63b8ff" stroke="#63b8ff" points="117.71,-260.71 107.17,-261.82 116.1,-267.52 117.71,-260.71"/>
</g>
<!-- Node3 -->
<g id="node3" class="node">
<title>Node3</title>
<g id="a_node3"><a xlink:href="types_8h.html" target="_top" xlink:title=" ">
<polygon fill="white" stroke="#666666" points="124.5,-85 43.5,-85 43.5,-66 124.5,-66 124.5,-85"/>
<text text-anchor="middle" x="84" y="-73" font-family="Helvetica,sans-Serif" font-size="10.00">dolphin/types.h</text>
</a>
</g>
</g>
<!-- Node1&#45;&gt;Node3 -->
<g id="edge8" class="edge">
<title>Node1&#45;&gt;Node3</title>
<path fill="none" stroke="#63b8ff" d="M358.25,-316.46C298.9,-309.44 210.22,-295.34 186,-272 136.09,-223.9 186.38,-178.04 147,-121 138.44,-108.6 125.24,-98.51 113.13,-91.09"/>
<polygon fill="#63b8ff" stroke="#63b8ff" points="115.07,-88.16 104.65,-86.24 111.59,-94.24 115.07,-88.16"/>
</g>
<!-- Node7 -->
<g id="node7" class="node">
<title>Node7</title>
<g id="a_node7"><a xlink:href="dol2asm_8h.html" target="_top" xlink:title=" ">
<polygon fill="white" stroke="#666666" points="255.5,-261 194.5,-261 194.5,-242 255.5,-242 255.5,-261"/>
<text text-anchor="middle" x="225" y="-249" font-family="Helvetica,sans-Serif" font-size="10.00">dol2asm.h</text>
</a>
</g>
</g>
<!-- Node1&#45;&gt;Node7 -->
<g id="edge7" class="edge">
<title>Node1&#45;&gt;Node7</title>
<path fill="none" stroke="#63b8ff" d="M365.78,-307.57C336.32,-298.32 298.08,-285.55 265,-272 260.78,-270.27 256.37,-268.3 252.1,-266.29"/>
<polygon fill="#63b8ff" stroke="#63b8ff" points="253.79,-263.23 243.27,-262.01 250.74,-269.52 253.79,-263.23"/>
</g>
<!-- Node8 -->
<g id="node8" class="node">
<title>Node8</title>
<g id="a_node8"><a xlink:title=" ">
<polygon fill="#e0e0e0" stroke="#999999" points="410,-272 274,-272 274,-231 410,-231 410,-272"/>
<text text-anchor="start" x="282" y="-260" font-family="Helvetica,sans-Serif" font-size="10.00">asm/JSystem/JAudio2</text>
<text text-anchor="start" x="282" y="-249" font-family="Helvetica,sans-Serif" font-size="10.00">/dspproc/DSPReleaseHalt2</text>
<text text-anchor="middle" x="342" y="-238" font-family="Helvetica,sans-Serif" font-size="10.00">__FUl.s</text>
</a>
</g>
</g>
<!-- Node1&#45;&gt;Node8 -->
<g id="edge9" class="edge">
<title>Node1&#45;&gt;Node8</title>
<path fill="none" stroke="#63b8ff" d="M399.08,-307.6C390.93,-299.73 380.54,-289.7 370.87,-280.37"/>
<polygon fill="#63b8ff" stroke="#63b8ff" points="373.35,-277.89 363.72,-273.47 368.49,-282.93 373.35,-277.89"/>
</g>
<!-- Node9 -->
<g id="node9" class="node">
<title>Node9</title>
<g id="a_node9"><a xlink:title=" ">
<polygon fill="#e0e0e0" stroke="#999999" points="543.5,-272 428.5,-272 428.5,-231 543.5,-231 543.5,-272"/>
<text text-anchor="start" x="436.5" y="-260" font-family="Helvetica,sans-Serif" font-size="10.00">asm/JSystem/JAudio2</text>
<text text-anchor="start" x="436.5" y="-249" font-family="Helvetica,sans-Serif" font-size="10.00">/dspproc/DsetupTable</text>
<text text-anchor="middle" x="486" y="-238" font-family="Helvetica,sans-Serif" font-size="10.00">__FUlUlUlUlUl.s</text>
</a>
</g>
</g>
<!-- Node1&#45;&gt;Node9 -->
<g id="edge10" class="edge">
<title>Node1&#45;&gt;Node9</title>
<path fill="none" stroke="#63b8ff" d="M428.92,-307.6C437.07,-299.73 447.46,-289.7 457.13,-280.37"/>
<polygon fill="#63b8ff" stroke="#63b8ff" points="459.51,-282.93 464.28,-273.47 454.65,-277.89 459.51,-282.93"/>
</g>
<!-- Node10 -->
<g id="node10" class="node">
<title>Node10</title>
<g id="a_node10"><a xlink:title=" ">
<polygon fill="#e0e0e0" stroke="#999999" points="714,-266.5 562,-266.5 562,-236.5 714,-236.5 714,-266.5"/>
<text text-anchor="start" x="570" y="-254.5" font-family="Helvetica,sans-Serif" font-size="10.00">asm/JSystem/JAudio2</text>
<text text-anchor="middle" x="638" y="-243.5" font-family="Helvetica,sans-Serif" font-size="10.00">/dspproc/DsetMixerLevel__Ff.s</text>
</a>
</g>
</g>
<!-- Node1&#45;&gt;Node10 -->
<g id="edge11" class="edge">
<title>Node1&#45;&gt;Node10</title>
<path fill="none" stroke="#63b8ff" d="M460.69,-307.52C495.58,-296.69 543.47,-281.83 580.69,-270.28"/>
<polygon fill="#63b8ff" stroke="#63b8ff" points="581.42,-273.72 589.93,-267.41 579.34,-267.04 581.42,-273.72"/>
</g>
<!-- Node11 -->
<g id="node11" class="node">
<title>Node11</title>
<g id="a_node11"><a xlink:title=" ">
<polygon fill="#e0e0e0" stroke="#999999" points="860,-272 732,-272 732,-231 860,-231 860,-272"/>
<text text-anchor="start" x="740" y="-260" font-family="Helvetica,sans-Serif" font-size="10.00">asm/JSystem/JAudio2</text>
<text text-anchor="start" x="740" y="-249" font-family="Helvetica,sans-Serif" font-size="10.00">/dspproc/DsyncFrame2ch</text>
<text text-anchor="middle" x="796" y="-238" font-family="Helvetica,sans-Serif" font-size="10.00">__FUlUlUl.s</text>
</a>
</g>
</g>
<!-- Node1&#45;&gt;Node11 -->
<g id="edge12" class="edge">
<title>Node1&#45;&gt;Node11</title>
<path fill="none" stroke="#63b8ff" d="M469.85,-314.69C529.62,-306.48 627.38,-291.94 720.56,-272.42"/>
<polygon fill="#63b8ff" stroke="#63b8ff" points="721.06,-275.89 730.12,-270.39 719.61,-269.04 721.06,-275.89"/>
</g>
<!-- Node12 -->
<g id="node12" class="node">
<title>Node12</title>
<g id="a_node12"><a xlink:title=" ">
<polygon fill="#e0e0e0" stroke="#999999" points="1006,-272 878,-272 878,-231 1006,-231 1006,-272"/>
<text text-anchor="start" x="886" y="-260" font-family="Helvetica,sans-Serif" font-size="10.00">asm/JSystem/JAudio2</text>
<text text-anchor="start" x="886" y="-249" font-family="Helvetica,sans-Serif" font-size="10.00">/dspproc/DsyncFrame4ch</text>
<text text-anchor="middle" x="942" y="-238" font-family="Helvetica,sans-Serif" font-size="10.00">__FUlUlUlUlUl.s</text>
</a>
</g>
</g>
<!-- Node1&#45;&gt;Node12 -->
<g id="edge13" class="edge">
<title>Node1&#45;&gt;Node12</title>
<path fill="none" stroke="#63b8ff" d="M469.73,-318.61C553.8,-312.89 718.17,-299.39 866.53,-272.32"/>
<polygon fill="#63b8ff" stroke="#63b8ff" points="866.95,-275.8 876.15,-270.54 865.68,-268.92 866.95,-275.8"/>
</g>
<!-- Node2&#45;&gt;Node3 -->
<g id="edge2" class="edge">
<title>Node2&#45;&gt;Node3</title>
<path fill="none" stroke="#63b8ff" d="M59.19,-241.82C48.59,-231.76 32.24,-214.09 25,-195 13.33,-164.22 6.97,-150.28 22,-121 28.62,-108.11 40.9,-98.11 52.79,-90.88"/>
<polygon fill="#63b8ff" stroke="#63b8ff" points="54.19,-94.11 61.24,-86.2 50.8,-87.99 54.19,-94.11"/>
</g>
<!-- Node5 -->
<g id="node5" class="node">
<title>Node5</title>
<g id="a_node5"><a xlink:href="dsp_8h.html" target="_top" xlink:title=" ">
<polygon fill="white" stroke="#666666" points="126,-195 34,-195 34,-176 126,-176 126,-195"/>
<text text-anchor="middle" x="80" y="-183" font-family="Helvetica,sans-Serif" font-size="10.00">dolphin/dsp/dsp.h</text>
</a>
</g>
</g>
<!-- Node2&#45;&gt;Node5 -->
<g id="edge4" class="edge">
<title>Node2&#45;&gt;Node5</title>
<path fill="none" stroke="#63b8ff" d="M70.53,-241.6C72.09,-232.53 74.56,-218.14 76.59,-206.35"/>
<polygon fill="#63b8ff" stroke="#63b8ff" points="79.98,-207.26 78.23,-196.82 73.08,-206.08 79.98,-207.26"/>
</g>
<!-- Node4 -->
<g id="node4" class="node">
<title>Node4</title>
<g id="a_node4"><a xlink:href="stddef_8h.html" target="_top" xlink:title=" ">
<polygon fill="white" stroke="#666666" points="152,-30 16,-30 16,0 152,0 152,-30"/>
<text text-anchor="start" x="24" y="-18" font-family="Helvetica,sans-Serif" font-size="10.00">MSL_C/MSL_Common/Src</text>
<text text-anchor="middle" x="84" y="-7" font-family="Helvetica,sans-Serif" font-size="10.00">/stddef.h</text>
</a>
</g>
</g>
<!-- Node3&#45;&gt;Node4 -->
<g id="edge3" class="edge">
<title>Node3&#45;&gt;Node4</title>
<path fill="none" stroke="#63b8ff" d="M84,-65.87C84,-59.4 84,-50.2 84,-41.45"/>
<polygon fill="#63b8ff" stroke="#63b8ff" points="87.5,-41.63 84,-31.63 80.5,-41.63 87.5,-41.63"/>
</g>
<!-- Node6 -->
<g id="node6" class="node">
<title>Node6</title>
<g id="a_node6"><a xlink:href="OSTime_8h.html" target="_top" xlink:title=" ">
<polygon fill="white" stroke="#666666" points="137.5,-140 30.5,-140 30.5,-121 137.5,-121 137.5,-140"/>
<text text-anchor="middle" x="84" y="-128" font-family="Helvetica,sans-Serif" font-size="10.00">dolphin/os/OSTime.h</text>
</a>
</g>
</g>
<!-- Node5&#45;&gt;Node6 -->
<g id="edge5" class="edge">
<title>Node5&#45;&gt;Node6</title>
<path fill="none" stroke="#63b8ff" d="M80.66,-175.75C81.15,-169.27 81.84,-160.16 82.46,-151.9"/>
<polygon fill="#63b8ff" stroke="#63b8ff" points="85.95,-152.19 83.21,-141.95 78.97,-151.66 85.95,-152.19"/>
</g>
<!-- Node6&#45;&gt;Node3 -->
<g id="edge6" class="edge">
<title>Node6&#45;&gt;Node3</title>
<path fill="none" stroke="#63b8ff" d="M84,-120.75C84,-114.27 84,-105.16 84,-96.9"/>
<polygon fill="#63b8ff" stroke="#63b8ff" points="87.5,-96.96 84,-86.96 80.5,-96.96 87.5,-96.96"/>
</g>
</g>
</svg>
