<?xml version="1.0" encoding="UTF-8" standalone="no"?>
<!DOCTYPE svg PUBLIC "-//W3C//DTD SVG 1.1//EN"
 "http://www.w3.org/Graphics/SVG/1.1/DTD/svg11.dtd">
<!-- Generated by graphviz version 7.0.5 (20221223.1930)
 -->
<!-- Title: libs/dolphin/dvd/dvdqueue.c Pages: 1 -->
<svg width="1057pt" height="214pt"
 viewBox="0.00 0.00 1057.00 214.00" xmlns="http://www.w3.org/2000/svg" xmlns:xlink="http://www.w3.org/1999/xlink">
<g id="graph0" class="graph" transform="scale(1 1) rotate(0) translate(4 210)">
<title>libs/dolphin/dvd/dvdqueue.c</title>
<!-- Node1 -->
<g id="node1" class="node">
<title>Node1</title>
<g id="a_node1"><a xlink:title=" ">
<polygon fill="#999999" stroke="#666666" points="473,-206 336,-206 336,-187 473,-187 473,-206"/>
<text text-anchor="middle" x="404.5" y="-194" font-family="Helvetica,sans-Serif" font-size="10.00">libs/dolphin/dvd/dvdqueue.c</text>
</a>
</g>
</g>
<!-- Node2 -->
<g id="node2" class="node">
<title>Node2</title>
<g id="a_node2"><a xlink:href="dvdqueue_8h.html" target="_top" xlink:title=" ">
<polygon fill="white" stroke="#666666" points="119,-145.5 0,-145.5 0,-126.5 119,-126.5 119,-145.5"/>
<text text-anchor="middle" x="59.5" y="-133.5" font-family="Helvetica,sans-Serif" font-size="10.00">dolphin/dvd/dvdqueue.h</text>
</a>
</g>
</g>
<!-- Node1&#45;&gt;Node2 -->
<g id="edge1" class="edge">
<title>Node1&#45;&gt;Node2</title>
<path fill="none" stroke="#63b8ff" d="M347.33,-186.53C292.44,-177.81 207.21,-164.02 133.5,-151 128.22,-150.07 122.74,-149.08 117.26,-148.07"/>
<polygon fill="#63b8ff" stroke="#63b8ff" points="118.01,-144.65 107.54,-146.26 116.73,-151.53 118.01,-144.65"/>
</g>
<!-- Node3 -->
<g id="node3" class="node">
<title>Node3</title>
<g id="a_node3"><a xlink:href="types_8h.html" target="_top" xlink:title=" ">
<polygon fill="white" stroke="#666666" points="144,-85 63,-85 63,-66 144,-66 144,-85"/>
<text text-anchor="middle" x="103.5" y="-73" font-family="Helvetica,sans-Serif" font-size="10.00">dolphin/types.h</text>
</a>
</g>
</g>
<!-- Node1&#45;&gt;Node3 -->
<g id="edge5" class="edge">
<title>Node1&#45;&gt;Node3</title>
<path fill="none" stroke="#63b8ff" d="M335.73,-194.54C286.04,-191.12 218.9,-180.66 167.5,-151 144.14,-137.52 125.21,-112.26 114.16,-94.92"/>
<polygon fill="#63b8ff" stroke="#63b8ff" points="117.3,-93.34 109.11,-86.62 111.32,-96.98 117.3,-93.34"/>
</g>
<!-- Node5 -->
<g id="node5" class="node">
<title>Node5</title>
<g id="a_node5"><a xlink:href="dol2asm_8h.html" target="_top" xlink:title=" ">
<polygon fill="white" stroke="#666666" points="237,-145.5 176,-145.5 176,-126.5 237,-126.5 237,-145.5"/>
<text text-anchor="middle" x="206.5" y="-133.5" font-family="Helvetica,sans-Serif" font-size="10.00">dol2asm.h</text>
</a>
</g>
</g>
<!-- Node1&#45;&gt;Node5 -->
<g id="edge4" class="edge">
<title>Node1&#45;&gt;Node5</title>
<path fill="none" stroke="#63b8ff" d="M370.42,-186.56C338.29,-177.97 288.9,-164.38 246.5,-151 245.12,-150.56 243.71,-150.11 242.3,-149.65"/>
<polygon fill="#63b8ff" stroke="#63b8ff" points="243.41,-146.33 232.82,-146.46 241.18,-152.97 243.41,-146.33"/>
</g>
<!-- Node6 -->
<g id="node6" class="node">
<title>Node6</title>
<g id="a_node6"><a xlink:title=" ">
<polygon fill="#e0e0e0" stroke="#999999" points="396,-151 255,-151 255,-121 396,-121 396,-151"/>
<text text-anchor="start" x="263" y="-139" font-family="Helvetica,sans-Serif" font-size="10.00">asm/dolphin/dvd/dvdqueue</text>
<text text-anchor="middle" x="325.5" y="-128" font-family="Helvetica,sans-Serif" font-size="10.00">/__DVDClearWaitingQueue.s</text>
</a>
</g>
</g>
<!-- Node1&#45;&gt;Node6 -->
<g id="edge6" class="edge">
<title>Node1&#45;&gt;Node6</title>
<path fill="none" stroke="#63b8ff" d="M392.5,-186.62C382.36,-179.1 367.41,-168.04 354.21,-158.26"/>
<polygon fill="#63b8ff" stroke="#63b8ff" points="356.34,-155.48 346.22,-152.34 352.17,-161.1 356.34,-155.48"/>
</g>
<!-- Node7 -->
<g id="node7" class="node">
<title>Node7</title>
<g id="a_node7"><a xlink:title=" ">
<polygon fill="#e0e0e0" stroke="#999999" points="555,-151 414,-151 414,-121 555,-121 555,-151"/>
<text text-anchor="start" x="422" y="-139" font-family="Helvetica,sans-Serif" font-size="10.00">asm/dolphin/dvd/dvdqueue</text>
<text text-anchor="middle" x="484.5" y="-128" font-family="Helvetica,sans-Serif" font-size="10.00">/__DVDPushWaitingQueue.s</text>
</a>
</g>
</g>
<!-- Node1&#45;&gt;Node7 -->
<g id="edge7" class="edge">
<title>Node1&#45;&gt;Node7</title>
<path fill="none" stroke="#63b8ff" d="M416.65,-186.62C427.02,-179.03 442.35,-167.82 455.81,-157.98"/>
<polygon fill="#63b8ff" stroke="#63b8ff" points="457.53,-161.06 463.53,-152.33 453.39,-155.41 457.53,-161.06"/>
</g>
<!-- Node8 -->
<g id="node8" class="node">
<title>Node8</title>
<g id="a_node8"><a xlink:title=" ">
<polygon fill="#e0e0e0" stroke="#999999" points="709.5,-151 573.5,-151 573.5,-121 709.5,-121 709.5,-151"/>
<text text-anchor="start" x="581.5" y="-139" font-family="Helvetica,sans-Serif" font-size="10.00">asm/dolphin/dvd/dvdqueue</text>
<text text-anchor="middle" x="641.5" y="-128" font-family="Helvetica,sans-Serif" font-size="10.00">/__DVDPopWaitingQueue.s</text>
</a>
</g>
</g>
<!-- Node1&#45;&gt;Node8 -->
<g id="edge8" class="edge">
<title>Node1&#45;&gt;Node8</title>
<path fill="none" stroke="#63b8ff" d="M440.75,-186.55C475.58,-177.95 529.12,-164.74 572.15,-154.12"/>
<polygon fill="#63b8ff" stroke="#63b8ff" points="572.79,-157.56 581.66,-151.77 571.12,-150.77 572.79,-157.56"/>
</g>
<!-- Node9 -->
<g id="node9" class="node">
<title>Node9</title>
<g id="a_node9"><a xlink:title=" ">
<polygon fill="#e0e0e0" stroke="#999999" points="873.5,-151 727.5,-151 727.5,-121 873.5,-121 873.5,-151"/>
<text text-anchor="start" x="735.5" y="-139" font-family="Helvetica,sans-Serif" font-size="10.00">asm/dolphin/dvd/dvdqueue</text>
<text text-anchor="middle" x="800.5" y="-128" font-family="Helvetica,sans-Serif" font-size="10.00">/__DVDCheckWaitingQueue.s</text>
</a>
</g>
</g>
<!-- Node1&#45;&gt;Node9 -->
<g id="edge9" class="edge">
<title>Node1&#45;&gt;Node9</title>
<path fill="none" stroke="#63b8ff" d="M471.96,-186.5C533.05,-178.23 625.84,-165.34 715.94,-151.37"/>
<polygon fill="#63b8ff" stroke="#63b8ff" points="716.36,-154.85 725.7,-149.85 715.28,-147.93 716.36,-154.85"/>
</g>
<!-- Node10 -->
<g id="node10" class="node">
<title>Node10</title>
<g id="a_node10"><a xlink:title=" ">
<polygon fill="#e0e0e0" stroke="#999999" points="1049,-151 892,-151 892,-121 1049,-121 1049,-151"/>
<text text-anchor="start" x="900" y="-139" font-family="Helvetica,sans-Serif" font-size="10.00">asm/dolphin/dvd/dvdqueue</text>
<text text-anchor="middle" x="970.5" y="-128" font-family="Helvetica,sans-Serif" font-size="10.00">/__DVDDequeueWaitingQueue.s</text>
</a>
</g>
</g>
<!-- Node1&#45;&gt;Node10 -->
<g id="edge10" class="edge">
<title>Node1&#45;&gt;Node10</title>
<path fill="none" stroke="#63b8ff" d="M473.12,-190.52C563.83,-183.62 728.86,-169.99 880.5,-151.19"/>
<polygon fill="#63b8ff" stroke="#63b8ff" points="880.86,-154.67 890.35,-149.96 879.99,-147.73 880.86,-154.67"/>
</g>
<!-- Node2&#45;&gt;Node3 -->
<g id="edge2" class="edge">
<title>Node2&#45;&gt;Node3</title>
<path fill="none" stroke="#63b8ff" d="M65.99,-126.37C72.36,-117.9 82.26,-104.74 90.29,-94.07"/>
<polygon fill="#63b8ff" stroke="#63b8ff" points="92.86,-96.47 96.07,-86.38 87.26,-92.26 92.86,-96.47"/>
</g>
<!-- Node4 -->
<g id="node4" class="node">
<title>Node4</title>
<g id="a_node4"><a xlink:href="stddef_8h.html" target="_top" xlink:title=" ">
<polygon fill="white" stroke="#666666" points="171.5,-30 35.5,-30 35.5,0 171.5,0 171.5,-30"/>
<text text-anchor="start" x="43.5" y="-18" font-family="Helvetica,sans-Serif" font-size="10.00">MSL_C/MSL_Common/Src</text>
<text text-anchor="middle" x="103.5" y="-7" font-family="Helvetica,sans-Serif" font-size="10.00">/stddef.h</text>
</a>
</g>
</g>
<!-- Node3&#45;&gt;Node4 -->
<g id="edge3" class="edge">
<title>Node3&#45;&gt;Node4</title>
<path fill="none" stroke="#63b8ff" d="M103.5,-65.87C103.5,-59.4 103.5,-50.2 103.5,-41.45"/>
<polygon fill="#63b8ff" stroke="#63b8ff" points="107,-41.63 103.5,-31.63 100,-41.63 107,-41.63"/>
</g>
</g>
</svg>
