<?xml version="1.0" encoding="UTF-8" standalone="no"?>
<!DOCTYPE svg PUBLIC "-//W3C//DTD SVG 1.1//EN"
 "http://www.w3.org/Graphics/SVG/1.1/DTD/svg11.dtd">
<!-- Generated by graphviz version 7.0.5 (20221223.1930)
 -->
<!-- Title: include/f_op/f_op_camera_mng.h Pages: 1 -->
<!--zoomable 247 -->
<svg id="main" version="1.1" xmlns="http://www.w3.org/2000/svg" xmlns:xlink="http://www.w3.org/1999/xlink" xml:space="preserve" onload="init(evt)">
<style type="text/css"><![CDATA[
.edge:hover path { stroke: red; }
.edge:hover polygon { stroke: red; fill: red; }
]]></style>
<script type="text/javascript"><![CDATA[
var edges = document.getElementsByTagName('g');
if (edges && edges.length) {
  for (var i=0;i<edges.length;i++) {
    if (edges[i].id.substr(0,4)=='edge') {
      edges[i].setAttribute('class','edge');
    }
  }
}
]]></script>
        <defs>
                <circle id="rim" cx="0" cy="0" r="7"/>
                <circle id="rim2" cx="0" cy="0" r="3.5"/>
                <g id="zoomPlus">
                        <use xlink:href="#rim" fill="#404040">
                                <set attributeName="fill" to="#808080" begin="zoomplus.mouseover" end="zoomplus.mouseout"/>
                        </use>
                        <path d="M-4,0h8M0,-4v8" fill="none" stroke="white" stroke-width="1.5" pointer-events="none"/>
                </g>
                <g id="zoomMin">
                        <use xlink:href="#rim" fill="#404040">
                                <set attributeName="fill" to="#808080" begin="zoomminus.mouseover" end="zoomminus.mouseout"/>
                        </use>
                        <path d="M-4,0h8" fill="none" stroke="white" stroke-width="1.5" pointer-events="none"/>
                </g>
                <g id="dirArrow">
                        <path fill="none" stroke="white" stroke-width="1.5" d="M0,-3.0v7 M-2.5,-0.5L0,-3.0L2.5,-0.5"/>
                </g>
               <g id="resetDef">
                       <use xlink:href="#rim2" fill="#404040">
                               <set attributeName="fill" to="#808080" begin="reset.mouseover" end="reset.mouseout"/>
                       </use>
               </g>
        </defs>

<script type="text/javascript">
var viewWidth = 5323;
var viewHeight = 247;
var sectionId = 'dynsection-1';
</script>
<script xlink:href="svgpan.js"/>
<svg id="graph" class="graph">
<g id="viewport">
<title>include/f_op/f_op_camera_mng.h</title>
<!-- Node1 -->
<g id="node1" class="node">
<title>Node1</title>
<g id="a_node1"><a xlink:title=" ">
<polygon fill="#999999" stroke="#666666" points="2702.5,-239 2574.5,-239 2574.5,-209 2702.5,-209 2702.5,-239"/>
<text text-anchor="start" x="2582.5" y="-227" font-family="Helvetica,sans-Serif" font-size="10.00">include/f_op/f_op_camera</text>
<text text-anchor="middle" x="2638.5" y="-216" font-family="Helvetica,sans-Serif" font-size="10.00">_mng.h</text>
</a>
</g>
</g>
<!-- Node2 -->
<g id="node2" class="node">
<title>Node2</title>
<g id="a_node2"><a xlink:href="d__com__inf__game_8h.html" target="_top" xlink:title=" ">
<polygon fill="#fff0f0" stroke="red" points="2479.5,-173 2369.5,-173 2369.5,-143 2479.5,-143 2479.5,-173"/>
<text text-anchor="start" x="2377.5" y="-161" font-family="Helvetica,sans-Serif" font-size="10.00">include/d/com/d_com</text>
<text text-anchor="middle" x="2424.5" y="-150" font-family="Helvetica,sans-Serif" font-size="10.00">_inf_game.h</text>
</a>
</g>
</g>
<!-- Node1&#45;&gt;Node2 -->
<g id="edge1" class="edge">
<title>Node1&#45;&gt;Node2</title>
<path fill="none" stroke="#63b8ff" d="M2579.59,-205.38C2545.94,-195.32 2504.28,-182.86 2472.62,-173.39"/>
<polygon fill="#63b8ff" stroke="#63b8ff" points="2578.17,-208.61 2588.76,-208.12 2580.18,-201.91 2578.17,-208.61"/>
</g>
<!-- Node119 -->
<g id="node48" class="node">
<title>Node119</title>
<g id="a_node48"><a xlink:href="f__op__camera_8h.html" target="_top" xlink:title=" ">
<polygon fill="#fff0f0" stroke="red" points="2633.5,-167.5 2497.5,-167.5 2497.5,-148.5 2633.5,-148.5 2633.5,-167.5"/>
<text text-anchor="middle" x="2565.5" y="-155.5" font-family="Helvetica,sans-Serif" font-size="10.00">include/f_op/f_op_camera.h</text>
</a>
</g>
</g>
<!-- Node1&#45;&gt;Node119 -->
<g id="edge55" class="edge">
<title>Node1&#45;&gt;Node119</title>
<path fill="none" stroke="#63b8ff" d="M2613.72,-201.27C2600.67,-189.84 2585.39,-176.44 2575.59,-167.84"/>
<polygon fill="#63b8ff" stroke="#63b8ff" points="2611.33,-203.84 2621.16,-207.8 2615.95,-198.57 2611.33,-203.84"/>
</g>
<!-- Node120 -->
<g id="node49" class="node">
<title>Node120</title>
<g id="a_node49"><a xlink:href="f__ap__game_8cpp.html" target="_top" xlink:title=" ">
<polygon fill="white" stroke="#666666" points="2773,-167.5 2652,-167.5 2652,-148.5 2773,-148.5 2773,-167.5"/>
<text text-anchor="middle" x="2712.5" y="-155.5" font-family="Helvetica,sans-Serif" font-size="10.00">src/f_ap/f_ap_game.cpp</text>
</a>
</g>
</g>
<!-- Node1&#45;&gt;Node120 -->
<g id="edge56" class="edge">
<title>Node1&#45;&gt;Node120</title>
<path fill="none" stroke="#63b8ff" d="M2663.62,-201.27C2676.84,-189.84 2692.33,-176.44 2702.27,-167.84"/>
<polygon fill="#63b8ff" stroke="#63b8ff" points="2661.34,-198.62 2656.07,-207.81 2665.92,-203.91 2661.34,-198.62"/>
</g>
<!-- Node121 -->
<g id="node50" class="node">
<title>Node121</title>
<g id="a_node50"><a xlink:href="f__op__camera__mng_8cpp.html" target="_top" xlink:title=" ">
<polygon fill="white" stroke="#666666" points="2902,-173 2791,-173 2791,-143 2902,-143 2902,-173"/>
<text text-anchor="start" x="2799" y="-161" font-family="Helvetica,sans-Serif" font-size="10.00">src/f_op/f_op_camera</text>
<text text-anchor="middle" x="2846.5" y="-150" font-family="Helvetica,sans-Serif" font-size="10.00">_mng.cpp</text>
</a>
</g>
</g>
<!-- Node1&#45;&gt;Node121 -->
<g id="edge57" class="edge">
<title>Node1&#45;&gt;Node121</title>
<path fill="none" stroke="#63b8ff" d="M2696.19,-205.25C2728.82,-195.21 2769.09,-182.82 2799.73,-173.39"/>
<polygon fill="#63b8ff" stroke="#63b8ff" points="2695.41,-201.83 2686.89,-208.11 2697.47,-208.52 2695.41,-201.83"/>
</g>
<!-- Node3 -->
<g id="node3" class="node">
<title>Node3</title>
<g id="a_node3"><a xlink:href="d__a__npc_8h.html" target="_top" xlink:title=" ">
<polygon fill="#fff0f0" stroke="red" points="111,-24.5 0,-24.5 0,-5.5 111,-5.5 111,-24.5"/>
<text text-anchor="middle" x="55.5" y="-12.5" font-family="Helvetica,sans-Serif" font-size="10.00">include/d/a/d_a_npc.h</text>
</a>
</g>
</g>
<!-- Node2&#45;&gt;Node3 -->
<g id="edge2" class="edge">
<title>Node2&#45;&gt;Node3</title>
<path fill="none" stroke="#63b8ff" d="M2357.64,-157.13C1990.37,-157.66 230.94,-157.53 128.5,-107 92.35,-89.17 68.29,-44.07 59.37,-24.87"/>
<polygon fill="#63b8ff" stroke="#63b8ff" points="2357.6,-160.63 2367.6,-157.12 2357.59,-153.63 2357.6,-160.63"/>
</g>
<!-- Node9 -->
<g id="node4" class="node">
<title>Node9</title>
<g id="a_node4"><a xlink:href="d__cc__uty_8h.html" target="_top" xlink:title=" ">
<polygon fill="#fff0f0" stroke="red" points="796,-96 677,-96 677,-77 796,-77 796,-96"/>
<text text-anchor="middle" x="736.5" y="-84" font-family="Helvetica,sans-Serif" font-size="10.00">include/d/cc/d_cc_uty.h</text>
</a>
</g>
</g>
<!-- Node2&#45;&gt;Node9 -->
<g id="edge3" class="edge">
<title>Node2&#45;&gt;Node9</title>
<path fill="none" stroke="#63b8ff" d="M2357.76,-157.11C2092.44,-157.21 1112.04,-154.32 805.5,-107 790.98,-104.76 775.19,-100.44 762.38,-96.44"/>
<polygon fill="#63b8ff" stroke="#63b8ff" points="2357.6,-160.61 2367.6,-157.1 2357.6,-153.61 2357.6,-160.61"/>
</g>
<!-- Node15 -->
<g id="node5" class="node">
<title>Node15</title>
<g id="a_node5"><a xlink:href="d__item_8h.html" target="_top" xlink:title=" ">
<polygon fill="#fff0f0" stroke="red" points="410,-96 315,-96 315,-77 410,-77 410,-96"/>
<text text-anchor="middle" x="362.5" y="-84" font-family="Helvetica,sans-Serif" font-size="10.00">include/d/d_item.h</text>
</a>
</g>
</g>
<!-- Node2&#45;&gt;Node15 -->
<g id="edge4" class="edge">
<title>Node2&#45;&gt;Node15</title>
<path fill="none" stroke="#63b8ff" d="M2358.24,-156.54C2033.01,-154.15 613.53,-141.76 419.5,-107 407.35,-104.82 394.29,-100.51 383.74,-96.49"/>
<polygon fill="#63b8ff" stroke="#63b8ff" points="2357.8,-160.04 2367.83,-156.61 2357.85,-153.04 2357.8,-160.04"/>
</g>
<!-- Node12 -->
<g id="node6" class="node">
<title>Node12</title>
<g id="a_node6"><a xlink:href="d__a__alink_8cpp.html" target="_top" xlink:title=" ">
<polygon fill="white" stroke="#666666" points="351,-24.5 242,-24.5 242,-5.5 351,-5.5 351,-24.5"/>
<text text-anchor="middle" x="296.5" y="-12.5" font-family="Helvetica,sans-Serif" font-size="10.00">src/d/a/d_a_alink.cpp</text>
</a>
</g>
</g>
<!-- Node2&#45;&gt;Node12 -->
<g id="edge34" class="edge">
<title>Node2&#45;&gt;Node12</title>
<path fill="none" stroke="#63b8ff" d="M2357.84,-156.63C2002.32,-154.52 344.03,-142.75 305.5,-107 282.57,-85.73 289.6,-43.31 294.06,-24.88"/>
<polygon fill="#63b8ff" stroke="#63b8ff" points="2357.67,-160.13 2367.69,-156.69 2357.71,-153.13 2357.67,-160.13"/>
</g>
<!-- Node16 -->
<g id="node7" class="node">
<title>Node16</title>
<g id="a_node7"><a xlink:href="d__a__obj__item_8cpp.html" target="_top" xlink:title=" ">
<polygon fill="white" stroke="#666666" points="494,-24.5 369,-24.5 369,-5.5 494,-5.5 494,-24.5"/>
<text text-anchor="middle" x="431.5" y="-12.5" font-family="Helvetica,sans-Serif" font-size="10.00">src/d/a/d_a_obj_item.cpp</text>
</a>
</g>
</g>
<!-- Node2&#45;&gt;Node16 -->
<g id="edge37" class="edge">
<title>Node2&#45;&gt;Node16</title>
<path fill="none" stroke="#63b8ff" d="M2357.92,-156.46C2039.34,-153.69 682.67,-140 599.5,-107 574.04,-96.9 576.73,-80.51 553.5,-66 523.99,-47.56 486.52,-33.39 460.94,-24.92"/>
<polygon fill="#63b8ff" stroke="#63b8ff" points="2357.7,-159.95 2367.73,-156.54 2357.76,-152.95 2357.7,-159.95"/>
</g>
<!-- Node17 -->
<g id="node8" class="node">
<title>Node17</title>
<g id="a_node8"><a xlink:href="d__com__inf__game_8cpp.html" target="_top" xlink:title=" ">
<polygon fill="white" stroke="#666666" points="620.5,-30 512.5,-30 512.5,0 620.5,0 620.5,-30"/>
<text text-anchor="start" x="520.5" y="-18" font-family="Helvetica,sans-Serif" font-size="10.00">src/d/com/d_com_inf</text>
<text text-anchor="middle" x="566.5" y="-7" font-family="Helvetica,sans-Serif" font-size="10.00">_game.cpp</text>
</a>
</g>
</g>
<!-- Node2&#45;&gt;Node17 -->
<g id="edge43" class="edge">
<title>Node2&#45;&gt;Node17</title>
<path fill="none" stroke="#63b8ff" d="M2358.34,-156.53C2046.34,-154.12 733.78,-141.95 654.5,-107 617.9,-90.87 588.86,-51.68 575.13,-30.37"/>
<polygon fill="#63b8ff" stroke="#63b8ff" points="2357.9,-160.02 2367.93,-156.6 2357.96,-153.02 2357.9,-160.02"/>
</g>
<!-- Node20 -->
<g id="node9" class="node">
<title>Node20</title>
<g id="a_node9"><a xlink:href="d__kantera__icon__meter_8h.html" target="_top" xlink:title=" ">
<polygon fill="#fff0f0" stroke="red" points="915,-101.5 814,-101.5 814,-71.5 915,-71.5 915,-101.5"/>
<text text-anchor="start" x="822" y="-89.5" font-family="Helvetica,sans-Serif" font-size="10.00">include/d/d_kantera</text>
<text text-anchor="middle" x="864.5" y="-78.5" font-family="Helvetica,sans-Serif" font-size="10.00">_icon_meter.h</text>
</a>
</g>
</g>
<!-- Node2&#45;&gt;Node20 -->
<g id="edge8" class="edge">
<title>Node2&#45;&gt;Node20</title>
<path fill="none" stroke="#63b8ff" d="M2358.05,-157.26C2105.57,-157.85 1205.84,-156.39 924.5,-107 917.6,-105.79 910.39,-103.96 903.47,-101.91"/>
<polygon fill="#63b8ff" stroke="#63b8ff" points="2357.72,-160.76 2367.72,-157.23 2357.71,-153.76 2357.72,-160.76"/>
</g>
<!-- Node23 -->
<g id="node10" class="node">
<title>Node23</title>
<g id="a_node10"><a xlink:href="d__model_8h.html" target="_top" xlink:title=" ">
<polygon fill="#fff0f0" stroke="red" points="1036,-96 933,-96 933,-77 1036,-77 1036,-96"/>
<text text-anchor="middle" x="984.5" y="-84" font-family="Helvetica,sans-Serif" font-size="10.00">include/d/d_model.h</text>
</a>
</g>
</g>
<!-- Node2&#45;&gt;Node23 -->
<g id="edge9" class="edge">
<title>Node2&#45;&gt;Node23</title>
<path fill="none" stroke="#63b8ff" d="M2357.93,-156.99C2118.57,-156.57 1302.22,-151.81 1045.5,-107 1032.58,-104.74 1018.61,-100.42 1007.3,-96.42"/>
<polygon fill="#63b8ff" stroke="#63b8ff" points="2357.7,-160.49 2367.71,-157 2357.71,-153.49 2357.7,-160.49"/>
</g>
<!-- Node25 -->
<g id="node11" class="node">
<title>Node25</title>
<g id="a_node11"><a xlink:href="d__name_8h.html" target="_top" xlink:title=" ">
<polygon fill="#fff0f0" stroke="red" points="1155,-96 1054,-96 1054,-77 1155,-77 1155,-96"/>
<text text-anchor="middle" x="1104.5" y="-84" font-family="Helvetica,sans-Serif" font-size="10.00">include/d/d_name.h</text>
</a>
</g>
</g>
<!-- Node2&#45;&gt;Node25 -->
<g id="edge10" class="edge">
<title>Node2&#45;&gt;Node25</title>
<path fill="none" stroke="#63b8ff" d="M2357.7,-156.76C2131.69,-155.58 1396.84,-148.55 1164.5,-107 1151.78,-104.72 1138.04,-100.4 1126.92,-96.41"/>
<polygon fill="#63b8ff" stroke="#63b8ff" points="2357.49,-160.26 2367.51,-156.81 2357.53,-153.26 2357.49,-160.26"/>
</g>
<!-- Node27 -->
<g id="node12" class="node">
<title>Node27</title>
<g id="a_node12"><a xlink:href="d__file__sel__info_8h.html" target="_top" xlink:title=" ">
<polygon fill="#fff0f0" stroke="red" points="1269.5,-101.5 1173.5,-101.5 1173.5,-71.5 1269.5,-71.5 1269.5,-101.5"/>
<text text-anchor="start" x="1181.5" y="-89.5" font-family="Helvetica,sans-Serif" font-size="10.00">include/d/file/d_file</text>
<text text-anchor="middle" x="1221.5" y="-78.5" font-family="Helvetica,sans-Serif" font-size="10.00">_sel_info.h</text>
</a>
</g>
</g>
<!-- Node2&#45;&gt;Node27 -->
<g id="edge11" class="edge">
<title>Node2&#45;&gt;Node27</title>
<path fill="none" stroke="#63b8ff" d="M2358.08,-156.59C2146.13,-154.89 1487.59,-146.48 1278.5,-107 1272.03,-105.78 1265.29,-103.98 1258.8,-101.95"/>
<polygon fill="#63b8ff" stroke="#63b8ff" points="2357.78,-160.09 2367.81,-156.66 2357.83,-153.09 2357.78,-160.09"/>
</g>
<!-- Node30 -->
<g id="node13" class="node">
<title>Node30</title>
<g id="a_node13"><a xlink:href="d__file__sel__warning_8h.html" target="_top" xlink:title=" ">
<polygon fill="#fff0f0" stroke="red" points="1383.5,-101.5 1287.5,-101.5 1287.5,-71.5 1383.5,-71.5 1383.5,-101.5"/>
<text text-anchor="start" x="1295.5" y="-89.5" font-family="Helvetica,sans-Serif" font-size="10.00">include/d/file/d_file</text>
<text text-anchor="middle" x="1335.5" y="-78.5" font-family="Helvetica,sans-Serif" font-size="10.00">_sel_warning.h</text>
</a>
</g>
</g>
<!-- Node2&#45;&gt;Node30 -->
<g id="edge12" class="edge">
<title>Node2&#45;&gt;Node30</title>
<path fill="none" stroke="#63b8ff" d="M2357.75,-156.21C2159.85,-153.48 1578.52,-142.59 1392.5,-107 1386.03,-105.76 1379.29,-103.95 1372.81,-101.93"/>
<polygon fill="#63b8ff" stroke="#63b8ff" points="2357.56,-159.71 2367.6,-156.34 2357.65,-152.71 2357.56,-159.71"/>
</g>
<!-- Node32 -->
<g id="node14" class="node">
<title>Node32</title>
<g id="a_node14"><a xlink:href="d__meter2_8h.html" target="_top" xlink:title=" ">
<polygon fill="#fff0f0" stroke="red" points="1535.5,-96 1401.5,-96 1401.5,-77 1535.5,-77 1535.5,-96"/>
<text text-anchor="middle" x="1468.5" y="-84" font-family="Helvetica,sans-Serif" font-size="10.00">include/d/meter/d_meter2.h</text>
</a>
</g>
</g>
<!-- Node2&#45;&gt;Node32 -->
<g id="edge13" class="edge">
<title>Node2&#45;&gt;Node32</title>
<path fill="none" stroke="#63b8ff" d="M2357.59,-157.54C2210.03,-157.77 1845.94,-153.15 1545.5,-107 1529.69,-104.57 1512.4,-100.34 1498.21,-96.44"/>
<polygon fill="#63b8ff" stroke="#63b8ff" points="2357.59,-161.04 2367.58,-157.51 2357.57,-154.04 2357.59,-161.04"/>
</g>
<!-- Node40 -->
<g id="node15" class="node">
<title>Node40</title>
<g id="a_node15"><a xlink:href="d__msg__object_8h.html" target="_top" xlink:title=" ">
<polygon fill="#fff0f0" stroke="red" points="258.5,-101.5 148.5,-101.5 148.5,-71.5 258.5,-71.5 258.5,-101.5"/>
<text text-anchor="start" x="156.5" y="-89.5" font-family="Helvetica,sans-Serif" font-size="10.00">include/d/msg/d_msg</text>
<text text-anchor="middle" x="203.5" y="-78.5" font-family="Helvetica,sans-Serif" font-size="10.00">_object.h</text>
</a>
</g>
</g>
<!-- Node2&#45;&gt;Node40 -->
<g id="edge14" class="edge">
<title>Node2&#45;&gt;Node40</title>
<path fill="none" stroke="#63b8ff" d="M2357.89,-156.45C2017.77,-153.52 482.61,-138.61 272.5,-107 264.62,-105.81 256.37,-104 248.42,-101.95"/>
<polygon fill="#63b8ff" stroke="#63b8ff" points="2357.71,-159.95 2367.74,-156.54 2357.77,-152.95 2357.71,-159.95"/>
</g>
<!-- Node47 -->
<g id="node16" class="node">
<title>Node47</title>
<g id="a_node16"><a xlink:href="d__demo_8cpp.html" target="_top" xlink:title=" ">
<polygon fill="white" stroke="#666666" points="223.5,-24.5 129.5,-24.5 129.5,-5.5 223.5,-5.5 223.5,-24.5"/>
<text text-anchor="middle" x="176.5" y="-12.5" font-family="Helvetica,sans-Serif" font-size="10.00">src/d/d_demo.cpp</text>
</a>
</g>
</g>
<!-- Node2&#45;&gt;Node47 -->
<g id="edge48" class="edge">
<title>Node2&#45;&gt;Node47</title>
<path fill="none" stroke="#63b8ff" d="M2357.71,-156.81C1985.17,-155.61 179.31,-147.69 139.5,-107 116.24,-83.23 149.88,-42.87 167.24,-24.99"/>
<polygon fill="#63b8ff" stroke="#63b8ff" points="2357.55,-160.31 2367.56,-156.84 2357.58,-153.31 2357.55,-160.31"/>
</g>
<!-- Node56 -->
<g id="node17" class="node">
<title>Node56</title>
<g id="a_node17"><a xlink:href="d__s__logo_8h.html" target="_top" xlink:title=" ">
<polygon fill="#fff0f0" stroke="red" points="1667,-96 1554,-96 1554,-77 1667,-77 1667,-96"/>
<text text-anchor="middle" x="1610.5" y="-84" font-family="Helvetica,sans-Serif" font-size="10.00">include/d/s/d_s_logo.h</text>
</a>
</g>
</g>
<!-- Node2&#45;&gt;Node56 -->
<g id="edge18" class="edge">
<title>Node2&#45;&gt;Node56</title>
<path fill="none" stroke="#63b8ff" d="M2357.66,-157.45C2226.13,-157.24 1924.92,-151.44 1676.5,-107 1662.86,-104.56 1648.03,-100.33 1635.89,-96.43"/>
<polygon fill="#63b8ff" stroke="#63b8ff" points="2357.58,-160.95 2367.58,-157.45 2357.58,-153.95 2357.58,-160.95"/>
</g>
<!-- Node58 -->
<g id="node18" class="node">
<title>Node58</title>
<g id="a_node18"><a xlink:href="d__s__play_8h.html" target="_top" xlink:title=" ">
<polygon fill="#fff0f0" stroke="red" points="1798,-96 1685,-96 1685,-77 1798,-77 1798,-96"/>
<text text-anchor="middle" x="1741.5" y="-84" font-family="Helvetica,sans-Serif" font-size="10.00">include/d/s/d_s_play.h</text>
</a>
</g>
</g>
<!-- Node2&#45;&gt;Node58 -->
<g id="edge19" class="edge">
<title>Node2&#45;&gt;Node58</title>
<path fill="none" stroke="#63b8ff" d="M2357.83,-156.09C2244.03,-153.54 2005.41,-143.85 1807.5,-107 1793.99,-104.49 1779.3,-100.29 1767.22,-96.44"/>
<polygon fill="#63b8ff" stroke="#63b8ff" points="2357.52,-159.58 2367.59,-156.3 2357.67,-152.59 2357.52,-159.58"/>
</g>
<!-- Node64 -->
<g id="node19" class="node">
<title>Node64</title>
<g id="a_node19"><a xlink:href="d__msg__scrn__base_8h.html" target="_top" xlink:title=" ">
<polygon fill="#fff0f0" stroke="red" points="1915,-101.5 1816,-101.5 1816,-71.5 1915,-71.5 1915,-101.5"/>
<text text-anchor="start" x="1824" y="-89.5" font-family="Helvetica,sans-Serif" font-size="10.00">include/msg/scrn/d</text>
<text text-anchor="middle" x="1865.5" y="-78.5" font-family="Helvetica,sans-Serif" font-size="10.00">_msg_scrn_base.h</text>
</a>
</g>
</g>
<!-- Node2&#45;&gt;Node64 -->
<g id="edge20" class="edge">
<title>Node2&#45;&gt;Node64</title>
<path fill="none" stroke="#63b8ff" d="M2357.81,-154.98C2261.28,-151 2077.43,-139.51 1924.5,-107 1918.17,-105.65 1911.56,-103.87 1905.16,-101.92"/>
<polygon fill="#63b8ff" stroke="#63b8ff" points="2357.5,-158.47 2367.63,-155.37 2357.78,-151.47 2357.5,-158.47"/>
</g>
<!-- Node68 -->
<g id="node20" class="node">
<title>Node68</title>
<g id="a_node20"><a xlink:href="d__a__b__oh2_8h.html" target="_top" xlink:title=" ">
<polygon fill="white" stroke="#666666" points="2049.5,-101.5 1933.5,-101.5 1933.5,-71.5 2049.5,-71.5 2049.5,-101.5"/>
<text text-anchor="start" x="1941.5" y="-89.5" font-family="Helvetica,sans-Serif" font-size="10.00">include/rel/d/a/b/d</text>
<text text-anchor="middle" x="1991.5" y="-78.5" font-family="Helvetica,sans-Serif" font-size="10.00">_a_b_oh2/d_a_b_oh2.h</text>
</a>
</g>
</g>
<!-- Node2&#45;&gt;Node68 -->
<g id="edge21" class="edge">
<title>Node2&#45;&gt;Node68</title>
<path fill="none" stroke="#63b8ff" d="M2357.66,-150.74C2284.09,-143.19 2162.57,-128.72 2059.5,-107 2052.65,-105.56 2045.48,-103.79 2038.47,-101.91"/>
<polygon fill="#63b8ff" stroke="#63b8ff" points="2357.23,-154.22 2367.54,-151.75 2357.94,-147.26 2357.23,-154.22"/>
</g>
<!-- Node69 -->
<g id="node21" class="node">
<title>Node69</title>
<g id="a_node21"><a xlink:href="d__a__b__zant_8h.html" target="_top" xlink:title=" ">
<polygon fill="white" stroke="#666666" points="2189,-101.5 2068,-101.5 2068,-71.5 2189,-71.5 2189,-101.5"/>
<text text-anchor="start" x="2076" y="-89.5" font-family="Helvetica,sans-Serif" font-size="10.00">include/rel/d/a/b/d</text>
<text text-anchor="middle" x="2128.5" y="-78.5" font-family="Helvetica,sans-Serif" font-size="10.00">_a_b_zant/d_a_b_zant.h</text>
</a>
</g>
</g>
<!-- Node2&#45;&gt;Node69 -->
<g id="edge22" class="edge">
<title>Node2&#45;&gt;Node69</title>
<path fill="none" stroke="#63b8ff" d="M2357.92,-143.26C2312.79,-133.7 2251.87,-120.33 2198.5,-107 2192.26,-105.44 2185.72,-103.73 2179.26,-101.99"/>
<polygon fill="#63b8ff" stroke="#63b8ff" points="2357.05,-146.65 2367.56,-145.29 2358.5,-139.8 2357.05,-146.65"/>
</g>
<!-- Node70 -->
<g id="node22" class="node">
<title>Node70</title>
<g id="a_node22"><a xlink:href="d__a__set__bgobj_8h.html" target="_top" xlink:title=" ">
<polygon fill="white" stroke="#666666" points="2344,-101.5 2207,-101.5 2207,-71.5 2344,-71.5 2344,-101.5"/>
<text text-anchor="start" x="2215" y="-89.5" font-family="Helvetica,sans-Serif" font-size="10.00">include/rel/d/a/d_a</text>
<text text-anchor="middle" x="2275.5" y="-78.5" font-family="Helvetica,sans-Serif" font-size="10.00">_set_bgobj/d_a_set_bgobj.h</text>
</a>
</g>
</g>
<!-- Node2&#45;&gt;Node70 -->
<g id="edge23" class="edge">
<title>Node2&#45;&gt;Node70</title>
<path fill="none" stroke="#63b8ff" d="M2383.26,-137.76C2358.91,-126.41 2328.6,-112.27 2306.33,-101.88"/>
<polygon fill="#63b8ff" stroke="#63b8ff" points="2381.71,-140.9 2392.26,-141.96 2384.67,-134.56 2381.71,-140.9"/>
</g>
<!-- Node71 -->
<g id="node23" class="node">
<title>Node71</title>
<g id="a_node23"><a xlink:href="d__a__skip__2D_8h.html" target="_top" xlink:title=" ">
<polygon fill="white" stroke="#666666" points="2486.5,-101.5 2362.5,-101.5 2362.5,-71.5 2486.5,-71.5 2486.5,-101.5"/>
<text text-anchor="start" x="2370.5" y="-89.5" font-family="Helvetica,sans-Serif" font-size="10.00">include/rel/d/a/d_a</text>
<text text-anchor="middle" x="2424.5" y="-78.5" font-family="Helvetica,sans-Serif" font-size="10.00">_skip_2D/d_a_skip_2D.h</text>
</a>
</g>
</g>
<!-- Node2&#45;&gt;Node71 -->
<g id="edge24" class="edge">
<title>Node2&#45;&gt;Node71</title>
<path fill="none" stroke="#63b8ff" d="M2424.5,-131.26C2424.5,-121.33 2424.5,-110.36 2424.5,-101.88"/>
<polygon fill="#63b8ff" stroke="#63b8ff" points="2421,-131.09 2424.5,-141.09 2428,-131.09 2421,-131.09"/>
</g>
<!-- Node72 -->
<g id="node24" class="node">
<title>Node72</title>
<g id="a_node24"><a xlink:href="d__a__spinner_8h.html" target="_top" xlink:title=" ">
<polygon fill="white" stroke="#666666" points="544.5,-101.5 428.5,-101.5 428.5,-71.5 544.5,-71.5 544.5,-101.5"/>
<text text-anchor="start" x="436.5" y="-89.5" font-family="Helvetica,sans-Serif" font-size="10.00">include/rel/d/a/d_a</text>
<text text-anchor="middle" x="486.5" y="-78.5" font-family="Helvetica,sans-Serif" font-size="10.00">_spinner/d_a_spinner.h</text>
</a>
</g>
</g>
<!-- Node2&#45;&gt;Node72 -->
<g id="edge25" class="edge">
<title>Node2&#45;&gt;Node72</title>
<path fill="none" stroke="#63b8ff" d="M2357.86,-157.33C2068.09,-158.46 916.25,-159.47 558.5,-107 550.3,-105.8 541.7,-103.98 533.41,-101.92"/>
<polygon fill="#63b8ff" stroke="#63b8ff" points="2357.51,-160.84 2367.49,-157.29 2357.48,-153.84 2357.51,-160.84"/>
</g>
<!-- Node73 -->
<g id="node25" class="node">
<title>Node73</title>
<g id="a_node25"><a xlink:href="d__a__player_8cpp.html" target="_top" xlink:title=" ">
<polygon fill="white" stroke="#666666" points="752.5,-24.5 638.5,-24.5 638.5,-5.5 752.5,-5.5 752.5,-24.5"/>
<text text-anchor="middle" x="695.5" y="-12.5" font-family="Helvetica,sans-Serif" font-size="10.00">src/d/a/d_a_player.cpp</text>
</a>
</g>
</g>
<!-- Node2&#45;&gt;Node73 -->
<g id="edge38" class="edge">
<title>Node2&#45;&gt;Node73</title>
<path fill="none" stroke="#63b8ff" d="M2357.79,-156.36C2040.43,-153.17 697.5,-137.87 667.5,-107 644.92,-83.77 673.33,-42.77 687.89,-24.82"/>
<polygon fill="#63b8ff" stroke="#63b8ff" points="2357.54,-159.86 2367.57,-156.46 2357.6,-152.86 2357.54,-159.86"/>
</g>
<!-- Node74 -->
<g id="node26" class="node">
<title>Node74</title>
<g id="a_node26"><a xlink:href="d__a__obj__enemy__create_8h.html" target="_top" xlink:title=" ">
<polygon fill="white" stroke="#666666" points="2632,-107 2505,-107 2505,-66 2632,-66 2632,-107"/>
<text text-anchor="start" x="2513" y="-95" font-family="Helvetica,sans-Serif" font-size="10.00">include/rel/d/a/obj</text>
<text text-anchor="start" x="2513" y="-84" font-family="Helvetica,sans-Serif" font-size="10.00">/d_a_obj_enemy_create</text>
<text text-anchor="middle" x="2568.5" y="-73" font-family="Helvetica,sans-Serif" font-size="10.00">/d_a_obj_enemy_create.h</text>
</a>
</g>
</g>
<!-- Node2&#45;&gt;Node74 -->
<g id="edge28" class="edge">
<title>Node2&#45;&gt;Node74</title>
<path fill="none" stroke="#63b8ff" d="M2464.45,-137.72C2484,-128.28 2507.51,-116.94 2527.24,-107.42"/>
<polygon fill="#63b8ff" stroke="#63b8ff" points="2463.18,-134.44 2455.7,-141.94 2466.23,-140.75 2463.18,-134.44"/>
</g>
<!-- Node75 -->
<g id="node27" class="node">
<title>Node75</title>
<g id="a_node27"><a xlink:href="d__a__obj__web0_8h.html" target="_top" xlink:title=" ">
<polygon fill="white" stroke="#666666" points="2769,-107 2650,-107 2650,-66 2769,-66 2769,-107"/>
<text text-anchor="start" x="2658" y="-95" font-family="Helvetica,sans-Serif" font-size="10.00">include/rel/d/a/obj</text>
<text text-anchor="start" x="2658" y="-84" font-family="Helvetica,sans-Serif" font-size="10.00">/d_a_obj_web0/d_a_obj</text>
<text text-anchor="middle" x="2709.5" y="-73" font-family="Helvetica,sans-Serif" font-size="10.00">_web0.h</text>
</a>
</g>
</g>
<!-- Node2&#45;&gt;Node75 -->
<g id="edge29" class="edge">
<title>Node2&#45;&gt;Node75</title>
<path fill="none" stroke="#63b8ff" d="M2490.78,-142.13C2543.68,-130.19 2613.41,-114.26 2641.5,-107 2644.23,-106.29 2647.03,-105.56 2649.84,-104.8"/>
<polygon fill="#63b8ff" stroke="#63b8ff" points="2490.23,-138.67 2481.25,-144.28 2491.77,-145.5 2490.23,-138.67"/>
</g>
<!-- Node76 -->
<g id="node28" class="node">
<title>Node76</title>
<g id="a_node28"><a xlink:href="d__a__obj__web1_8h.html" target="_top" xlink:title=" ">
<polygon fill="white" stroke="#666666" points="2906,-107 2787,-107 2787,-66 2906,-66 2906,-107"/>
<text text-anchor="start" x="2795" y="-95" font-family="Helvetica,sans-Serif" font-size="10.00">include/rel/d/a/obj</text>
<text text-anchor="start" x="2795" y="-84" font-family="Helvetica,sans-Serif" font-size="10.00">/d_a_obj_web1/d_a_obj</text>
<text text-anchor="middle" x="2846.5" y="-73" font-family="Helvetica,sans-Serif" font-size="10.00">_web1.h</text>
</a>
</g>
</g>
<!-- Node2&#45;&gt;Node76 -->
<g id="edge30" class="edge">
<title>Node2&#45;&gt;Node76</title>
<path fill="none" stroke="#63b8ff" d="M2490.92,-142.7C2618.49,-121.72 2654.73,-132.27 2778.5,-107 2781.15,-106.46 2783.84,-105.87 2786.56,-105.24"/>
<polygon fill="#63b8ff" stroke="#63b8ff" points="2490.72,-139.19 2481.43,-144.29 2491.88,-146.09 2490.72,-139.19"/>
</g>
<!-- Node77 -->
<g id="node29" class="node">
<title>Node77</title>
<g id="a_node29"><a xlink:href="d__a__obj__yobikusa_8h.html" target="_top" xlink:title=" ">
<polygon fill="white" stroke="#666666" points="3029,-107 2924,-107 2924,-66 3029,-66 3029,-107"/>
<text text-anchor="start" x="2932" y="-95" font-family="Helvetica,sans-Serif" font-size="10.00">include/rel/d/a/obj</text>
<text text-anchor="start" x="2932" y="-84" font-family="Helvetica,sans-Serif" font-size="10.00">/d_a_obj_yobikusa/d</text>
<text text-anchor="middle" x="2976.5" y="-73" font-family="Helvetica,sans-Serif" font-size="10.00">_a_obj_yobikusa.h</text>
</a>
</g>
</g>
<!-- Node2&#45;&gt;Node77 -->
<g id="edge31" class="edge">
<title>Node2&#45;&gt;Node77</title>
<path fill="none" stroke="#63b8ff" d="M2491.29,-142.73C2678.9,-115.72 2732.37,-143.5 2915.5,-107 2918.23,-106.46 2921,-105.83 2923.79,-105.15"/>
<polygon fill="#63b8ff" stroke="#63b8ff" points="2490.8,-139.27 2481.42,-144.19 2491.82,-146.19 2490.8,-139.27"/>
</g>
<!-- Node78 -->
<g id="node30" class="node">
<title>Node78</title>
<g id="a_node30"><a xlink:href="d__a__tag__telop_8h.html" target="_top" xlink:title=" ">
<polygon fill="white" stroke="#666666" points="3165.5,-107 3047.5,-107 3047.5,-66 3165.5,-66 3165.5,-107"/>
<text text-anchor="start" x="3055.5" y="-95" font-family="Helvetica,sans-Serif" font-size="10.00">include/rel/d/a/tag</text>
<text text-anchor="start" x="3055.5" y="-84" font-family="Helvetica,sans-Serif" font-size="10.00">/d_a_tag_telop/d_a_tag</text>
<text text-anchor="middle" x="3106.5" y="-73" font-family="Helvetica,sans-Serif" font-size="10.00">_telop.h</text>
</a>
</g>
</g>
<!-- Node2&#45;&gt;Node78 -->
<g id="edge32" class="edge">
<title>Node2&#45;&gt;Node78</title>
<path fill="none" stroke="#63b8ff" d="M2491.19,-142.78C2733.1,-109.93 2800.81,-148.37 3038.5,-107 3041.4,-106.49 3044.36,-105.91 3047.34,-105.27"/>
<polygon fill="#63b8ff" stroke="#63b8ff" points="2490.83,-139.3 2481.41,-144.14 2491.8,-146.23 2490.83,-139.3"/>
</g>
<!-- Node79 -->
<g id="node31" class="node">
<title>Node79</title>
<g id="a_node31"><a xlink:href="c__dylink_8cpp.html" target="_top" xlink:title=" ">
<polygon fill="white" stroke="#666666" points="3279,-96 3184,-96 3184,-77 3279,-77 3279,-96"/>
<text text-anchor="middle" x="3231.5" y="-84" font-family="Helvetica,sans-Serif" font-size="10.00">src/c/c_dylink.cpp</text>
</a>
</g>
</g>
<!-- Node2&#45;&gt;Node79 -->
<g id="edge33" class="edge">
<title>Node2&#45;&gt;Node79</title>
<path fill="none" stroke="#63b8ff" d="M2491.2,-142.81C2793.15,-103.76 2878.4,-164.26 3174.5,-107 3186.51,-104.68 3199.45,-100.4 3209.96,-96.45"/>
<polygon fill="#63b8ff" stroke="#63b8ff" points="2490.86,-139.32 2481.41,-144.1 2491.78,-146.26 2490.86,-139.32"/>
</g>
<!-- Node80 -->
<g id="node32" class="node">
<title>Node80</title>
<g id="a_node32"><a xlink:href="d__a__itembase_8cpp.html" target="_top" xlink:title=" ">
<polygon fill="white" stroke="#666666" points="3425.5,-96 3297.5,-96 3297.5,-77 3425.5,-77 3425.5,-96"/>
<text text-anchor="middle" x="3361.5" y="-84" font-family="Helvetica,sans-Serif" font-size="10.00">src/d/a/d_a_itembase.cpp</text>
</a>
</g>
</g>
<!-- Node2&#45;&gt;Node80 -->
<g id="edge35" class="edge">
<title>Node2&#45;&gt;Node80</title>
<path fill="none" stroke="#63b8ff" d="M2491.2,-142.82C2843.43,-98.14 2940.44,-160.67 3288.5,-107 3303.67,-104.66 3320.22,-100.39 3333.72,-96.43"/>
<polygon fill="#63b8ff" stroke="#63b8ff" points="2490.87,-139.33 2481.4,-144.08 2491.77,-146.27 2490.87,-139.33"/>
</g>
<!-- Node81 -->
<g id="node33" class="node">
<title>Node81</title>
<g id="a_node33"><a xlink:href="d__a__obj_8cpp.html" target="_top" xlink:title=" ">
<polygon fill="white" stroke="#666666" points="3545,-96 3444,-96 3444,-77 3545,-77 3545,-96"/>
<text text-anchor="middle" x="3494.5" y="-84" font-family="Helvetica,sans-Serif" font-size="10.00">src/d/a/d_a_obj.cpp</text>
</a>
</g>
</g>
<!-- Node2&#45;&gt;Node81 -->
<g id="edge36" class="edge">
<title>Node2&#45;&gt;Node81</title>
<path fill="none" stroke="#63b8ff" d="M2491.06,-142.85C2907.91,-91.42 3023.9,-180.08 3434.5,-107 3447.22,-104.74 3460.97,-100.42 3472.08,-96.42"/>
<polygon fill="#63b8ff" stroke="#63b8ff" points="2490.89,-139.34 2481.4,-144.06 2491.76,-146.29 2490.89,-139.34"/>
</g>
<!-- Node82 -->
<g id="node34" class="node">
<title>Node82</title>
<g id="a_node34"><a xlink:href="d__bg__s_8cpp.html" target="_top" xlink:title=" ">
<polygon fill="white" stroke="#666666" points="3667.5,-96 3563.5,-96 3563.5,-77 3667.5,-77 3667.5,-96"/>
<text text-anchor="middle" x="3615.5" y="-84" font-family="Helvetica,sans-Serif" font-size="10.00">src/d/bg/d_bg_s.cpp</text>
</a>
</g>
</g>
<!-- Node2&#45;&gt;Node82 -->
<g id="edge39" class="edge">
<title>Node2&#45;&gt;Node82</title>
<path fill="none" stroke="#63b8ff" d="M2491.06,-142.86C2960.9,-85.72 3091.06,-187.31 3554.5,-107 3567.43,-104.76 3581.4,-100.44 3592.7,-96.44"/>
<polygon fill="#63b8ff" stroke="#63b8ff" points="2490.89,-139.35 2481.4,-144.05 2491.75,-146.3 2490.89,-139.35"/>
</g>
<!-- Node83 -->
<g id="node35" class="node">
<title>Node83</title>
<g id="a_node35"><a xlink:href="d__bg__s__movebg__actor_8cpp.html" target="_top" xlink:title=" ">
<polygon fill="white" stroke="#666666" points="3811.5,-101.5 3685.5,-101.5 3685.5,-71.5 3811.5,-71.5 3811.5,-101.5"/>
<text text-anchor="start" x="3693.5" y="-89.5" font-family="Helvetica,sans-Serif" font-size="10.00">src/d/bg/d_bg_s_movebg</text>
<text text-anchor="middle" x="3748.5" y="-78.5" font-family="Helvetica,sans-Serif" font-size="10.00">_actor.cpp</text>
</a>
</g>
</g>
<!-- Node2&#45;&gt;Node83 -->
<g id="edge40" class="edge">
<title>Node2&#45;&gt;Node83</title>
<path fill="none" stroke="#63b8ff" d="M2491.15,-142.85C3014.78,-79.78 3157.68,-184.03 3676.5,-107 3684.57,-105.8 3693.03,-104.01 3701.2,-102"/>
<polygon fill="#63b8ff" stroke="#63b8ff" points="2490.9,-139.36 2481.4,-144.04 2491.75,-146.3 2490.9,-139.36"/>
</g>
<!-- Node84 -->
<g id="node36" class="node">
<title>Node84</title>
<g id="a_node36"><a xlink:href="d__bg__w_8cpp.html" target="_top" xlink:title=" ">
<polygon fill="white" stroke="#666666" points="3937,-96 3830,-96 3830,-77 3937,-77 3937,-96"/>
<text text-anchor="middle" x="3883.5" y="-84" font-family="Helvetica,sans-Serif" font-size="10.00">src/d/bg/d_bg_w.cpp</text>
</a>
</g>
</g>
<!-- Node2&#45;&gt;Node84 -->
<g id="edge41" class="edge">
<title>Node2&#45;&gt;Node84</title>
<path fill="none" stroke="#63b8ff" d="M2491.17,-142.9C2800.58,-108.36 3531.91,-154.64 3820.5,-107 3833.83,-104.8 3848.26,-100.48 3859.94,-96.47"/>
<polygon fill="#63b8ff" stroke="#63b8ff" points="2490.92,-139.4 2481.4,-144.04 2491.74,-146.35 2490.92,-139.4"/>
</g>
<!-- Node85 -->
<g id="node37" class="node">
<title>Node85</title>
<g id="a_node37"><a xlink:href="d__cc__s_8cpp.html" target="_top" xlink:title=" ">
<polygon fill="white" stroke="#666666" points="4059.5,-96 3955.5,-96 3955.5,-77 4059.5,-77 4059.5,-96"/>
<text text-anchor="middle" x="4007.5" y="-84" font-family="Helvetica,sans-Serif" font-size="10.00">src/d/cc/d_cc_s.cpp</text>
</a>
</g>
</g>
<!-- Node2&#45;&gt;Node85 -->
<g id="edge42" class="edge">
<title>Node2&#45;&gt;Node85</title>
<path fill="none" stroke="#63b8ff" d="M2491.21,-142.89C2828.55,-105.45 3630.5,-160.28 3946.5,-107 3959.44,-104.82 3973.41,-100.51 3984.71,-96.49"/>
<polygon fill="#63b8ff" stroke="#63b8ff" points="2490.93,-139.4 2481.4,-144.03 2491.73,-146.36 2490.93,-139.4"/>
</g>
<!-- Node86 -->
<g id="node38" class="node">
<title>Node86</title>
<g id="a_node38"><a xlink:href="d__com__static_8cpp.html" target="_top" xlink:title=" ">
<polygon fill="white" stroke="#666666" points="4217.5,-96 4077.5,-96 4077.5,-77 4217.5,-77 4217.5,-96"/>
<text text-anchor="middle" x="4147.5" y="-84" font-family="Helvetica,sans-Serif" font-size="10.00">src/d/com/d_com_static.cpp</text>
</a>
</g>
</g>
<!-- Node2&#45;&gt;Node86 -->
<g id="edge44" class="edge">
<title>Node2&#45;&gt;Node86</title>
<path fill="none" stroke="#63b8ff" d="M2491.22,-142.86C3187.95,-61.06 3375.98,-199.22 4068.5,-107 4085.02,-104.8 4103.1,-100.48 4117.79,-96.47"/>
<polygon fill="#63b8ff" stroke="#63b8ff" points="2490.91,-139.37 2481.39,-144.02 2491.74,-146.32 2490.91,-139.37"/>
</g>
<!-- Node87 -->
<g id="node39" class="node">
<title>Node87</title>
<g id="a_node39"><a xlink:href="d__attention_8cpp.html" target="_top" xlink:title=" ">
<polygon fill="white" stroke="#666666" points="4343,-96 4236,-96 4236,-77 4343,-77 4343,-96"/>
<text text-anchor="middle" x="4289.5" y="-84" font-family="Helvetica,sans-Serif" font-size="10.00">src/d/d_attention.cpp</text>
</a>
</g>
</g>
<!-- Node2&#45;&gt;Node87 -->
<g id="edge45" class="edge">
<title>Node2&#45;&gt;Node87</title>
<path fill="none" stroke="#63b8ff" d="M2491.25,-142.89C2890.59,-98.85 3848.79,-168.13 4226.5,-107 4239.95,-104.82 4254.51,-100.46 4266.24,-96.41"/>
<polygon fill="#63b8ff" stroke="#63b8ff" points="2490.93,-139.4 2481.39,-144.02 2491.73,-146.36 2490.93,-139.4"/>
</g>
<!-- Node88 -->
<g id="node40" class="node">
<title>Node88</title>
<g id="a_node40"><a xlink:href="d__cam__param_8cpp.html" target="_top" xlink:title=" ">
<polygon fill="white" stroke="#666666" points="4482,-96 4361,-96 4361,-77 4482,-77 4482,-96"/>
<text text-anchor="middle" x="4421.5" y="-84" font-family="Helvetica,sans-Serif" font-size="10.00">src/d/d_cam_param.cpp</text>
</a>
</g>
</g>
<!-- Node2&#45;&gt;Node88 -->
<g id="edge46" class="edge">
<title>Node2&#45;&gt;Node88</title>
<path fill="none" stroke="#63b8ff" d="M2491.11,-142.91C2918.23,-95.78 3946.29,-167.3 4352.5,-107 4367.15,-104.82 4383.09,-100.46 4395.96,-96.41"/>
<polygon fill="#63b8ff" stroke="#63b8ff" points="2490.93,-139.4 2481.39,-144.02 2491.73,-146.36 2490.93,-139.4"/>
</g>
<!-- Node89 -->
<g id="node41" class="node">
<title>Node89</title>
<g id="a_node41"><a xlink:href="d__camera_8cpp.html" target="_top" xlink:title=" ">
<polygon fill="white" stroke="#666666" points="4602.5,-96 4500.5,-96 4500.5,-77 4602.5,-77 4602.5,-96"/>
<text text-anchor="middle" x="4551.5" y="-84" font-family="Helvetica,sans-Serif" font-size="10.00">src/d/d_camera.cpp</text>
</a>
</g>
</g>
<!-- Node2&#45;&gt;Node89 -->
<g id="edge47" class="edge">
<title>Node2&#45;&gt;Node89</title>
<path fill="none" stroke="#63b8ff" d="M2491.25,-142.89C2949.23,-92.65 4056.09,-180 4491.5,-107 4504.35,-104.84 4518.22,-100.48 4529.39,-96.43"/>
<polygon fill="#63b8ff" stroke="#63b8ff" points="2490.93,-139.41 2481.39,-144.01 2491.72,-146.36 2490.93,-139.41"/>
</g>
<!-- Node90 -->
<g id="node42" class="node">
<title>Node90</title>
<g id="a_node42"><a xlink:href="d__eye__hl_8cpp.html" target="_top" xlink:title=" ">
<polygon fill="white" stroke="#666666" points="4718.5,-96 4620.5,-96 4620.5,-77 4718.5,-77 4718.5,-96"/>
<text text-anchor="middle" x="4669.5" y="-84" font-family="Helvetica,sans-Serif" font-size="10.00">src/d/d_eye_hl.cpp</text>
</a>
</g>
</g>
<!-- Node2&#45;&gt;Node90 -->
<g id="edge49" class="edge">
<title>Node2&#45;&gt;Node90</title>
<path fill="none" stroke="#63b8ff" d="M2491.21,-142.9C2975.71,-89.85 4150.14,-186.5 4611.5,-107 4623.96,-104.85 4637.37,-100.49 4648.15,-96.43"/>
<polygon fill="#63b8ff" stroke="#63b8ff" points="2490.94,-139.41 2481.39,-144.01 2491.72,-146.36 2490.94,-139.41"/>
</g>
<!-- Node91 -->
<g id="node43" class="node">
<title>Node91</title>
<g id="a_node43"><a xlink:href="d__insect_8cpp.html" target="_top" xlink:title=" ">
<polygon fill="white" stroke="#666666" points="4832.5,-96 4736.5,-96 4736.5,-77 4832.5,-77 4832.5,-96"/>
<text text-anchor="middle" x="4784.5" y="-84" font-family="Helvetica,sans-Serif" font-size="10.00">src/d/d_insect.cpp</text>
</a>
</g>
</g>
<!-- Node2&#45;&gt;Node91 -->
<g id="edge50" class="edge">
<title>Node2&#45;&gt;Node91</title>
<path fill="none" stroke="#63b8ff" d="M2491.06,-142.91C3001.13,-87.1 4240.89,-191.96 4727.5,-107 4739.76,-104.86 4752.94,-100.5 4763.53,-96.44"/>
<polygon fill="#63b8ff" stroke="#63b8ff" points="2490.94,-139.41 2481.39,-144.01 2491.72,-146.36 2490.94,-139.41"/>
</g>
<!-- Node92 -->
<g id="node44" class="node">
<title>Node92</title>
<g id="a_node44"><a xlink:href="d__kyeff_8cpp.html" target="_top" xlink:title=" ">
<polygon fill="white" stroke="#666666" points="4940.5,-96 4850.5,-96 4850.5,-77 4940.5,-77 4940.5,-96"/>
<text text-anchor="middle" x="4895.5" y="-84" font-family="Helvetica,sans-Serif" font-size="10.00">src/d/d_kyeff.cpp</text>
</a>
</g>
</g>
<!-- Node2&#45;&gt;Node92 -->
<g id="edge51" class="edge">
<title>Node2&#45;&gt;Node92</title>
<path fill="none" stroke="#63b8ff" d="M2491.31,-142.97C2796.38,-113.98 4587.68,-153.43 4841.5,-107 4853.17,-104.87 4865.66,-100.5 4875.68,-96.44"/>
<polygon fill="#63b8ff" stroke="#63b8ff" points="2490.97,-139.49 2481.39,-144.02 2491.7,-146.45 2490.97,-139.49"/>
</g>
<!-- Node93 -->
<g id="node45" class="node">
<title>Node93</title>
<g id="a_node45"><a xlink:href="d__path_8cpp.html" target="_top" xlink:title=" ">
<polygon fill="white" stroke="#666666" points="5048,-96 4959,-96 4959,-77 5048,-77 5048,-96"/>
<text text-anchor="middle" x="5003.5" y="-84" font-family="Helvetica,sans-Serif" font-size="10.00">src/d/d_path.cpp</text>
</a>
</g>
</g>
<!-- Node2&#45;&gt;Node93 -->
<g id="edge52" class="edge">
<title>Node2&#45;&gt;Node93</title>
<path fill="none" stroke="#63b8ff" d="M2490.88,-143.01C2806.8,-112.69 4683.76,-155.52 4949.5,-107 4961.17,-104.87 4973.66,-100.51 4983.68,-96.45"/>
<polygon fill="#63b8ff" stroke="#63b8ff" points="2490.97,-139.48 2481.39,-144.01 2491.71,-146.45 2490.97,-139.48"/>
</g>
<!-- Node94 -->
<g id="node46" class="node">
<title>Node94</title>
<g id="a_node46"><a xlink:href="d__resorce_8cpp.html" target="_top" xlink:title=" ">
<polygon fill="white" stroke="#666666" points="5168.5,-96 5066.5,-96 5066.5,-77 5168.5,-77 5168.5,-96"/>
<text text-anchor="middle" x="5117.5" y="-84" font-family="Helvetica,sans-Serif" font-size="10.00">src/d/d_resorce.cpp</text>
</a>
</g>
</g>
<!-- Node2&#45;&gt;Node94 -->
<g id="edge53" class="edge">
<title>Node2&#45;&gt;Node94</title>
<path fill="none" stroke="#63b8ff" d="M2490.86,-143.01C2818.82,-111.34 4779.16,-153.1 5057.5,-107 5070.36,-104.87 5084.23,-100.51 5095.39,-96.45"/>
<polygon fill="#63b8ff" stroke="#63b8ff" points="2490.97,-139.48 2481.39,-144.01 2491.71,-146.44 2490.97,-139.48"/>
</g>
<!-- Node95 -->
<g id="node47" class="node">
<title>Node95</title>
<g id="a_node47"><a xlink:href="d__select__cursor_8cpp.html" target="_top" xlink:title=" ">
<polygon fill="white" stroke="#666666" points="5314.5,-96 5186.5,-96 5186.5,-77 5314.5,-77 5314.5,-96"/>
<text text-anchor="middle" x="5250.5" y="-84" font-family="Helvetica,sans-Serif" font-size="10.00">src/d/d_select_cursor.cpp</text>
</a>
</g>
</g>
<!-- Node2&#45;&gt;Node95 -->
<g id="edge54" class="edge">
<title>Node2&#45;&gt;Node95</title>
<path fill="none" stroke="#63b8ff" d="M2491.02,-142.92C3100.52,-76.18 4589.12,-188.24 5177.5,-107 5192.96,-104.86 5209.82,-100.5 5223.44,-96.44"/>
<polygon fill="#63b8ff" stroke="#63b8ff" points="2490.94,-139.4 2481.39,-144 2491.72,-146.36 2490.94,-139.4"/>
</g>
<!-- Node15&#45;&gt;Node12 -->
<g id="edge5" class="edge">
<title>Node15&#45;&gt;Node12</title>
<path fill="none" stroke="#63b8ff" d="M346.38,-68.53C333.32,-54.77 315.42,-35.93 305,-24.95"/>
<polygon fill="#63b8ff" stroke="#63b8ff" points="343.67,-70.76 353.1,-75.6 348.75,-65.94 343.67,-70.76"/>
</g>
<!-- Node15&#45;&gt;Node16 -->
<g id="edge6" class="edge">
<title>Node15&#45;&gt;Node16</title>
<path fill="none" stroke="#63b8ff" d="M378.96,-68.92C392.65,-55.13 411.61,-36.03 422.61,-24.95"/>
<polygon fill="#63b8ff" stroke="#63b8ff" points="376.87,-66.06 372.31,-75.62 381.83,-70.99 376.87,-66.06"/>
</g>
<!-- Node15&#45;&gt;Node17 -->
<g id="edge7" class="edge">
<title>Node15&#45;&gt;Node17</title>
<path fill="none" stroke="#63b8ff" d="M399.49,-72.83C406.15,-70.56 413.03,-68.21 419.5,-66 454.71,-53.99 494.67,-40.4 524.04,-30.42"/>
<polygon fill="#63b8ff" stroke="#63b8ff" points="398.36,-69.52 390.03,-76.07 400.63,-76.14 398.36,-69.52"/>
</g>
<!-- Node40&#45;&gt;Node3 -->
<g id="edge15" class="edge">
<title>Node40&#45;&gt;Node3</title>
<path fill="none" stroke="#63b8ff" d="M162.64,-66.31C133.82,-52.78 96.53,-35.27 74.41,-24.88"/>
<polygon fill="#63b8ff" stroke="#63b8ff" points="160.92,-69.37 171.46,-70.46 163.9,-63.04 160.92,-69.37"/>
</g>
<!-- Node40&#45;&gt;Node12 -->
<g id="edge16" class="edge">
<title>Node40&#45;&gt;Node12</title>
<path fill="none" stroke="#63b8ff" d="M231.59,-64.51C249.33,-51.25 271.33,-34.81 284.62,-24.88"/>
<polygon fill="#63b8ff" stroke="#63b8ff" points="229.9,-61.4 223.98,-70.19 234.09,-67.01 229.9,-61.4"/>
</g>
<!-- Node40&#45;&gt;Node47 -->
<g id="edge17" class="edge">
<title>Node40&#45;&gt;Node47</title>
<path fill="none" stroke="#63b8ff" d="M193.88,-60.73C188.99,-48.15 183.37,-33.67 179.87,-24.68"/>
<polygon fill="#63b8ff" stroke="#63b8ff" points="190.47,-61.63 197.36,-69.69 197,-59.1 190.47,-61.63"/>
</g>
<!-- Node72&#45;&gt;Node12 -->
<g id="edge26" class="edge">
<title>Node72&#45;&gt;Node12</title>
<path fill="none" stroke="#63b8ff" d="M436.5,-67.21C399.29,-53.6 350.12,-35.61 321.05,-24.98"/>
<polygon fill="#63b8ff" stroke="#63b8ff" points="435.12,-70.43 445.71,-70.58 437.52,-63.86 435.12,-70.43"/>
</g>
<!-- Node72&#45;&gt;Node73 -->
<g id="edge27" class="edge">
<title>Node72&#45;&gt;Node73</title>
<path fill="none" stroke="#63b8ff" d="M540.97,-67.39C581.99,-53.75 636.46,-35.63 668.57,-24.96"/>
<polygon fill="#63b8ff" stroke="#63b8ff" points="539.88,-64.06 531.5,-70.54 542.09,-70.7 539.88,-64.06"/>
</g>
</g>
</svg>
        <g id="navigator" transform="translate(0 0)" fill="#404254">
                <rect fill="#f2f5e9" fill-opacity="0.5" stroke="#606060" stroke-width=".5" x="0" y="0" width="60" height="60"/>
                <use id="zoomplus" xlink:href="#zoomPlus" x="17" y="9" onmousedown="handleZoom(evt,'in')"/>
                <use id="zoomminus" xlink:href="#zoomMin" x="42" y="9" onmousedown="handleZoom(evt,'out')"/>
                <use id="reset" xlink:href="#resetDef" x="30" y="36" onmousedown="handleReset()"/>
                <g id="arrowUp" xlink:href="#dirArrow" transform="translate(30 24)" onmousedown="handlePan(0,-1)">
                  <use xlink:href="#rim" fill="#404040">
                        <set attributeName="fill" to="#808080" begin="arrowUp.mouseover" end="arrowUp.mouseout"/>
                  </use>
                  <path fill="none" stroke="white" stroke-width="1.5" d="M0,-3.0v7 M-2.5,-0.5L0,-3.0L2.5,-0.5"/>
                </g>
                <g id="arrowRight" xlink:href="#dirArrow" transform="rotate(90) translate(36 -43)" onmousedown="handlePan(1,0)">
                  <use xlink:href="#rim" fill="#404040">
                        <set attributeName="fill" to="#808080" begin="arrowRight.mouseover" end="arrowRight.mouseout"/>
                  </use>
                  <path fill="none" stroke="white" stroke-width="1.5" d="M0,-3.0v7 M-2.5,-0.5L0,-3.0L2.5,-0.5"/>
                </g>
                <g id="arrowDown" xlink:href="#dirArrow" transform="rotate(180) translate(-30 -48)" onmousedown="handlePan(0,1)">
                  <use xlink:href="#rim" fill="#404040">
                        <set attributeName="fill" to="#808080" begin="arrowDown.mouseover" end="arrowDown.mouseout"/>
                  </use>
                  <path fill="none" stroke="white" stroke-width="1.5" d="M0,-3.0v7 M-2.5,-0.5L0,-3.0L2.5,-0.5"/>
                </g>
                <g id="arrowLeft" xlink:href="#dirArrow" transform="rotate(270) translate(-36 17)" onmousedown="handlePan(-1,0)">
                  <use xlink:href="#rim" fill="#404040">
                        <set attributeName="fill" to="#808080" begin="arrowLeft.mouseover" end="arrowLeft.mouseout"/>
                  </use>
                  <path fill="none" stroke="white" stroke-width="1.5" d="M0,-3.0v7 M-2.5,-0.5L0,-3.0L2.5,-0.5"/>
                </g>
        </g>
        <svg viewBox="0 0 15 15" width="100%" height="30px" preserveAspectRatio="xMaxYMin meet">
         <g id="arrow_out" transform="scale(0.3 0.3)">
          <a xlink:href="f__op__camera__mng_8h__dep__incl_org.svg" target="_base">
           <rect id="button" ry="5" rx="5" y="6" x="6" height="38" width="38"
                fill="#f2f5e9" fill-opacity="0.5" stroke="#606060" stroke-width="1.0"/>
           <path id="arrow"
             d="M 11.500037,31.436501 C 11.940474,20.09759 22.043105,11.32322 32.158766,21.979434 L 37.068811,17.246167 C 37.068811,17.246167 37.088388,32 37.088388,32 L 22.160133,31.978069 C 22.160133,31.978069 26.997745,27.140456 26.997745,27.140456 C 18.528582,18.264221 13.291696,25.230495 11.500037,31.436501 z"
             style="fill:#404040;"/>
          </a>
         </g>
        </svg>
</svg>
