<?xml version="1.0" encoding="UTF-8" standalone="no"?>
<!DOCTYPE svg PUBLIC "-//W3C//DTD SVG 1.1//EN"
 "http://www.w3.org/Graphics/SVG/1.1/DTD/svg11.dtd">
<!-- Generated by graphviz version 9.0.0 (20230911.1827)
 -->
<!-- Title: include/f_op/f_op_kankyo.h Pages: 1 -->
<!--zoomable 216 -->

<svg id="main" version="1.1" xmlns="http://www.w3.org/2000/svg" xmlns:xlink="http://www.w3.org/1999/xlink" xml:space="preserve" onload="init(evt)">
<style type="text/css"><![CDATA[
.node, .edge {opacity: 0.7;}
.node.selected, .edge.selected {opacity: 1;}
.edge:hover path { stroke: red; }
.edge:hover polygon { stroke: red; fill: red; }
]]></style>

<defs>
  <circle id="rim" cx="0" cy="0" r="7"/>
  <circle id="rim2" cx="0" cy="0" r="3.5"/>
  <g id="zoomPlus">
    <use xlink:href="#rim" fill="#404040"><set attributeName="fill" to="#808080" begin="zoomplus.mouseover" end="zoomplus.mouseout"/></use>
    <path d="M-4,0h8M0,-4v8" fill="none" stroke="white" stroke-width="1.5" pointer-events="none"/>
  </g>
  <g id="zoomMin">
    <use xlink:href="#rim" fill="#404040"><set attributeName="fill" to="#808080" begin="zoomminus.mouseover" end="zoomminus.mouseout"/></use>
    <path d="M-4,0h8" fill="none" stroke="white" stroke-width="1.5" pointer-events="none"/>
  </g>
  <g id="arrowUp" transform="translate(30 24)">
    <use xlink:href="#rim"/>
    <path pointer-events="none" fill="none" stroke="white" stroke-width="1.5" d="M0,-3.0v7 M-2.5,-0.5L0,-3.0L2.5,-0.5"/>
  </g>
  <g id="arrowRight" transform="rotate(90) translate(36 -43)">
    <use xlink:href="#rim"/>
    <path pointer-events="none" fill="none" stroke="white" stroke-width="1.5" d="M0,-3.0v7 M-2.5,-0.5L0,-3.0L2.5,-0.5"/>
  </g>
  <g id="arrowDown" transform="rotate(180) translate(-30 -48)">
    <use xlink:href="#rim"/>
    <path pointer-events="none" fill="none" stroke="white" stroke-width="1.5" d="M0,-3.0v7 M-2.5,-0.5L0,-3.0L2.5,-0.5"/>
  </g>
  <g id="arrowLeft" transform="rotate(270) translate(-36 17)">
    <use xlink:href="#rim"/>
    <path pointer-events="none" fill="none" stroke="white" stroke-width="1.5" d="M0,-3.0v7 M-2.5,-0.5L0,-3.0L2.5,-0.5"/>
  </g>
  <g id="resetDef">
    <use xlink:href="#rim2" fill="#404040"><set attributeName="fill" to="#808080" begin="reset.mouseover" end="reset.mouseout"/></use>
  </g>
</defs>
<script type="application/ecmascript">
var viewWidth = 1256;
var viewHeight = 216;
var sectionId = 'dynsection-1';
</script>
<script type="application/ecmascript" xlink:href="svg.min.js"/>
<svg id="graph" class="graph">
<g id="viewport">
<title>include/f_op/f_op_kankyo.h</title>
<!-- Node1 -->
<g id="Node000001" class="node">
<title>Node1</title>
<g id="a_Node000001"><a xlink:title=" ">
<polygon fill="#999999" stroke="#666666" points="417,-207.5 283.25,-207.5 283.25,-188.25 417,-188.25 417,-207.5"/>
<text text-anchor="middle" x="350.12" y="-194" font-family="Helvetica,sans-Serif" font-size="10.00">include/f_op/f_op_kankyo.h</text>
</a>
</g>
</g>
<!-- Node2 -->
<g id="Node000002" class="node">
<title>Node2</title>
<g id="a_Node000002"><a xlink:href="d__envse_8h.html" target="_top" xlink:title=" ">
<polygon fill="white" stroke="#666666" points="102.25,-146.62 0,-146.62 0,-127.38 102.25,-127.38 102.25,-146.62"/>
<text text-anchor="middle" x="51.12" y="-133.12" font-family="Helvetica,sans-Serif" font-size="10.00">include/d/d_envse.h</text>
</a>
</g>
</g>
<!-- Node1&#45;&gt;Node2 -->
<g id="edge1_Node000001_Node000002" class="edge">
<title>Node1&#45;&gt;Node2</title>
<g id="a_edge1_Node000001_Node000002"><a xlink:title=" ">
<path fill="none" stroke="#63b8ff" d="M286.08,-185.79C237.86,-177.23 170.19,-164.77 111.12,-152.25 103.69,-150.67 95.76,-148.88 88.19,-147.1"/>
<polygon fill="#63b8ff" stroke="#63b8ff" points="285.34,-189.21 295.8,-187.51 286.56,-182.32 285.34,-189.21"/>
</a>
</g>
</g>
<!-- Node4 -->
<g id="Node000004" class="node">
<title>Node4</title>
<g id="a_Node000004"><a xlink:href="d__ky__thunder_8h.html" target="_top" xlink:title=" ">
<polygon fill="white" stroke="#666666" points="476.75,-146.62 353.5,-146.62 353.5,-127.38 476.75,-127.38 476.75,-146.62"/>
<text text-anchor="middle" x="415.12" y="-133.12" font-family="Helvetica,sans-Serif" font-size="10.00">include/d/d_ky_thunder.h</text>
</a>
</g>
</g>
<!-- Node1&#45;&gt;Node4 -->
<g id="edge3_Node000001_Node000004" class="edge">
<title>Node1&#45;&gt;Node4</title>
<g id="a_edge3_Node000001_Node000004"><a xlink:title=" ">
<path fill="none" stroke="#63b8ff" d="M368.35,-180.37C380.27,-169.57 395.39,-155.87 405.16,-147.03"/>
<polygon fill="#63b8ff" stroke="#63b8ff" points="366.18,-177.61 361.12,-186.92 370.88,-182.8 366.18,-177.61"/>
</a>
</g>
</g>
<!-- Node6 -->
<g id="Node000006" class="node">
<title>Node6</title>
<g id="a_Node000006"><a xlink:href="d__kyeff_8h.html" target="_top" xlink:title=" ">
<polygon fill="white" stroke="#666666" points="216.25,-146.62 120,-146.62 120,-127.38 216.25,-127.38 216.25,-146.62"/>
<text text-anchor="middle" x="168.12" y="-133.12" font-family="Helvetica,sans-Serif" font-size="10.00">include/d/d_kyeff.h</text>
</a>
</g>
</g>
<!-- Node1&#45;&gt;Node6 -->
<g id="edge5_Node000001_Node000006" class="edge">
<title>Node1&#45;&gt;Node6</title>
<g id="a_edge5_Node000001_Node000006"><a xlink:title=" ">
<path fill="none" stroke="#63b8ff" d="M311.44,-184.36C276.88,-173.18 227.07,-157.07 196.2,-147.08"/>
<polygon fill="#63b8ff" stroke="#63b8ff" points="310.05,-187.59 320.65,-187.34 312.21,-180.93 310.05,-187.59"/>
</a>
</g>
</g>
<!-- Node8 -->
<g id="Node000008" class="node">
<title>Node8</title>
<g id="a_Node000008"><a xlink:href="d__kyeff2_8h.html" target="_top" xlink:title=" ">
<polygon fill="white" stroke="#666666" points="335.88,-146.62 234.38,-146.62 234.38,-127.38 335.88,-127.38 335.88,-146.62"/>
<text text-anchor="middle" x="285.12" y="-133.12" font-family="Helvetica,sans-Serif" font-size="10.00">include/d/d_kyeff2.h</text>
</a>
</g>
</g>
<!-- Node1&#45;&gt;Node8 -->
<g id="edge7_Node000001_Node000008" class="edge">
<title>Node1&#45;&gt;Node8</title>
<g id="a_edge7_Node000001_Node000008"><a xlink:title=" ">
<path fill="none" stroke="#63b8ff" d="M331.9,-180.37C319.98,-169.57 304.86,-155.87 295.09,-147.03"/>
<polygon fill="#63b8ff" stroke="#63b8ff" points="329.37,-182.8 339.13,-186.92 334.07,-177.61 329.37,-182.8"/>
</a>
</g>
</g>
<!-- Node10 -->
<g id="Node000010" class="node">
<title>Node10</title>
<g id="a_Node000010"><a xlink:href="f__op__kankyo__mng_8h.html" target="_top" xlink:title=" ">
<polygon fill="white" stroke="#666666" points="796.25,-152.25 670,-152.25 670,-121.75 796.25,-121.75 796.25,-152.25"/>
<text text-anchor="start" x="678" y="-138.75" font-family="Helvetica,sans-Serif" font-size="10.00">include/f_op/f_op_kankyo</text>
<text text-anchor="middle" x="733.12" y="-127.5" font-family="Helvetica,sans-Serif" font-size="10.00">_mng.h</text>
</a>
</g>
</g>
<!-- Node1&#45;&gt;Node10 -->
<g id="edge9_Node000001_Node000010" class="edge">
<title>Node1&#45;&gt;Node10</title>
<g id="a_edge9_Node000001_Node000010"><a xlink:title=" ">
<path fill="none" stroke="#63b8ff" d="M420.22,-186.1C491.45,-175.15 600.81,-158.34 669.58,-147.77"/>
<polygon fill="#63b8ff" stroke="#63b8ff" points="419.98,-182.6 410.63,-187.57 421.04,-189.51 419.98,-182.6"/>
</a>
</g>
</g>
<!-- Node17 -->
<g id="Node000017" class="node">
<title>Node17</title>
<g id="a_Node000017"><a xlink:href="f__op__kankyo_8cpp.html" target="_top" xlink:title=" ">
<polygon fill="white" stroke="#666666" points="1247.62,-80.12 1120.62,-80.12 1120.62,-60.88 1247.62,-60.88 1247.62,-80.12"/>
<text text-anchor="middle" x="1184.12" y="-66.62" font-family="Helvetica,sans-Serif" font-size="10.00">src/f_op/f_op_kankyo.cpp</text>
</a>
</g>
</g>
<!-- Node1&#45;&gt;Node17 -->
<g id="edge19_Node000001_Node000017" class="edge">
<title>Node1&#45;&gt;Node17</title>
<g id="a_edge19_Node000001_Node000017"><a xlink:title=" ">
<path fill="none" stroke="#63b8ff" d="M428.81,-191.85C519.79,-185.42 673.87,-172.6 805.12,-152.25 932.27,-132.53 1080.97,-97.21 1148.05,-80.6"/>
<polygon fill="#63b8ff" stroke="#63b8ff" points="428.73,-188.35 419,-192.53 429.22,-195.33 428.73,-188.35"/>
</a>
</g>
</g>
<!-- Node3 -->
<g id="Node000003" class="node">
<title>Node3</title>
<g id="a_Node000003"><a xlink:href="d__envse_8cpp.html" target="_top" xlink:title=" ">
<polygon fill="white" stroke="#666666" points="98.88,-80.12 3.38,-80.12 3.38,-60.88 98.88,-60.88 98.88,-80.12"/>
<text text-anchor="middle" x="51.12" y="-66.62" font-family="Helvetica,sans-Serif" font-size="10.00">src/d/d_envse.cpp</text>
</a>
</g>
</g>
<!-- Node2&#45;&gt;Node3 -->
<g id="edge2_Node000002_Node000003" class="edge">
<title>Node2&#45;&gt;Node3</title>
<g id="a_edge2_Node000002_Node000003"><a xlink:title=" ">
<path fill="none" stroke="#63b8ff" d="M51.12,-115.52C51.12,-103.69 51.12,-89.41 51.12,-80.39"/>
<polygon fill="#63b8ff" stroke="#63b8ff" points="47.63,-115.52 51.13,-125.52 54.63,-115.52 47.63,-115.52"/>
</a>
</g>
</g>
<!-- Node5 -->
<g id="Node000005" class="node">
<title>Node5</title>
<g id="a_Node000005"><a xlink:href="d__ky__thunder_8cpp.html" target="_top" xlink:title=" ">
<polygon fill="white" stroke="#666666" points="463.38,-80.12 346.88,-80.12 346.88,-60.88 463.38,-60.88 463.38,-80.12"/>
<text text-anchor="middle" x="405.12" y="-66.62" font-family="Helvetica,sans-Serif" font-size="10.00">src/d/d_ky_thunder.cpp</text>
</a>
</g>
</g>
<!-- Node4&#45;&gt;Node5 -->
<g id="edge4_Node000004_Node000005" class="edge">
<title>Node4&#45;&gt;Node5</title>
<g id="a_edge4_Node000004_Node000005"><a xlink:title=" ">
<path fill="none" stroke="#63b8ff" d="M412.01,-115.9C410.16,-104 407.92,-89.51 406.5,-80.39"/>
<polygon fill="#63b8ff" stroke="#63b8ff" points="408.51,-116.19 413.5,-125.54 415.43,-115.12 408.51,-116.19"/>
</a>
</g>
</g>
<!-- Node7 -->
<g id="Node000007" class="node">
<title>Node7</title>
<g id="a_Node000007"><a xlink:href="d__kyeff_8cpp.html" target="_top" xlink:title=" ">
<polygon fill="white" stroke="#666666" points="212.88,-80.12 123.38,-80.12 123.38,-60.88 212.88,-60.88 212.88,-80.12"/>
<text text-anchor="middle" x="168.12" y="-66.62" font-family="Helvetica,sans-Serif" font-size="10.00">src/d/d_kyeff.cpp</text>
</a>
</g>
</g>
<!-- Node6&#45;&gt;Node7 -->
<g id="edge6_Node000006_Node000007" class="edge">
<title>Node6&#45;&gt;Node7</title>
<g id="a_edge6_Node000006_Node000007"><a xlink:title=" ">
<path fill="none" stroke="#63b8ff" d="M168.12,-115.52C168.12,-103.69 168.12,-89.41 168.12,-80.39"/>
<polygon fill="#63b8ff" stroke="#63b8ff" points="164.63,-115.52 168.13,-125.52 171.63,-115.52 164.63,-115.52"/>
</a>
</g>
</g>
<!-- Node9 -->
<g id="Node000009" class="node">
<title>Node9</title>
<g id="a_Node000009"><a xlink:href="d__kyeff2_8cpp.html" target="_top" xlink:title=" ">
<polygon fill="white" stroke="#666666" points="328.5,-80.12 233.75,-80.12 233.75,-60.88 328.5,-60.88 328.5,-80.12"/>
<text text-anchor="middle" x="281.12" y="-66.62" font-family="Helvetica,sans-Serif" font-size="10.00">src/d/d_kyeff2.cpp</text>
</a>
</g>
</g>
<!-- Node8&#45;&gt;Node9 -->
<g id="edge8_Node000008_Node000009" class="edge">
<title>Node8&#45;&gt;Node9</title>
<g id="a_edge8_Node000008_Node000009"><a xlink:title=" ">
<path fill="none" stroke="#63b8ff" d="M283.88,-115.9C283.14,-104 282.24,-89.51 281.68,-80.39"/>
<polygon fill="#63b8ff" stroke="#63b8ff" points="280.36,-115.76 284.48,-125.52 287.35,-115.32 280.36,-115.76"/>
</a>
</g>
</g>
<!-- Node10&#45;&gt;Node5 -->
<g id="edge14_Node000010_Node000005" class="edge">
<title>Node10&#45;&gt;Node5</title>
<g id="a_edge14_Node000010_Node000005"><a xlink:title=" ">
<path fill="none" stroke="#63b8ff" d="M658.33,-122C606.1,-112.12 534.8,-98.45 472.12,-85.75 464.08,-84.12 455.51,-82.33 447.27,-80.59"/>
<polygon fill="#63b8ff" stroke="#63b8ff" points="657.54,-125.41 668.02,-123.83 658.84,-118.53 657.54,-125.41"/>
</a>
</g>
</g>
<!-- Node11 -->
<g id="Node000011" class="node">
<title>Node11</title>
<g id="a_Node000011"><a xlink:href="d__k__wmark_8h.html" target="_top" xlink:title=" ">
<polygon fill="white" stroke="#666666" points="597,-80.12 481.25,-80.12 481.25,-60.88 597,-60.88 597,-80.12"/>
<text text-anchor="middle" x="539.12" y="-66.62" font-family="Helvetica,sans-Serif" font-size="10.00">include/d/d_k_wmark.h</text>
</a>
</g>
</g>
<!-- Node10&#45;&gt;Node11 -->
<g id="edge10_Node000010_Node000011" class="edge">
<title>Node10&#45;&gt;Node11</title>
<g id="a_edge10_Node000010_Node000011"><a xlink:title=" ">
<path fill="none" stroke="#63b8ff" d="M678.6,-117.87C642.07,-105.73 595.51,-90.25 566.51,-80.6"/>
<polygon fill="#63b8ff" stroke="#63b8ff" points="677.07,-121.05 687.67,-120.89 679.28,-114.41 677.07,-121.05"/>
</a>
</g>
</g>
<!-- Node13 -->
<g id="Node000013" class="node">
<title>Node13</title>
<g id="a_Node000013"><a xlink:href="d__k__wpillar_8h.html" target="_top" xlink:title=" ">
<polygon fill="white" stroke="#666666" points="729.25,-80.12 615,-80.12 615,-60.88 729.25,-60.88 729.25,-80.12"/>
<text text-anchor="middle" x="672.12" y="-66.62" font-family="Helvetica,sans-Serif" font-size="10.00">include/d/d_k_wpillar.h</text>
</a>
</g>
</g>
<!-- Node10&#45;&gt;Node13 -->
<g id="edge12_Node000010_Node000013" class="edge">
<title>Node10&#45;&gt;Node13</title>
<g id="a_edge12_Node000010_Node000013"><a xlink:title=" ">
<path fill="none" stroke="#63b8ff" d="M711.49,-113.12C700.76,-101.78 688.43,-88.74 680.47,-80.32"/>
<polygon fill="#63b8ff" stroke="#63b8ff" points="708.83,-115.4 718.24,-120.26 713.91,-110.59 708.83,-115.4"/>
</a>
</g>
</g>
<!-- Node15 -->
<g id="Node000015" class="node">
<title>Node15</title>
<g id="a_Node000015"><a xlink:href="d__stage_8cpp.html" target="_top" xlink:title=" ">
<polygon fill="white" stroke="#666666" points="840.75,-80.12 747.5,-80.12 747.5,-60.88 840.75,-60.88 840.75,-80.12"/>
<text text-anchor="middle" x="794.12" y="-66.62" font-family="Helvetica,sans-Serif" font-size="10.00">src/d/d_stage.cpp</text>
</a>
</g>
</g>
<!-- Node10&#45;&gt;Node15 -->
<g id="edge15_Node000010_Node000015" class="edge">
<title>Node10&#45;&gt;Node15</title>
<g id="a_edge15_Node000010_Node000015"><a xlink:title=" ">
<path fill="none" stroke="#63b8ff" d="M754.76,-113.12C765.49,-101.78 777.82,-88.74 785.78,-80.32"/>
<polygon fill="#63b8ff" stroke="#63b8ff" points="752.34,-110.59 748.01,-120.26 757.42,-115.4 752.34,-110.59"/>
</a>
</g>
</g>
<!-- Node16 -->
<g id="Node000016" class="node">
<title>Node16</title>
<g id="a_Node000016"><a xlink:href="d__particle__copoly_8cpp.html" target="_top" xlink:title=" ">
<polygon fill="white" stroke="#666666" points="975.75,-85.75 858.5,-85.75 858.5,-55.25 975.75,-55.25 975.75,-85.75"/>
<text text-anchor="start" x="866.5" y="-72.25" font-family="Helvetica,sans-Serif" font-size="10.00">src/d/particle/d_particle</text>
<text text-anchor="middle" x="917.12" y="-61" font-family="Helvetica,sans-Serif" font-size="10.00">_copoly.cpp</text>
</a>
</g>
</g>
<!-- Node10&#45;&gt;Node16 -->
<g id="edge16_Node000010_Node000016" class="edge">
<title>Node10&#45;&gt;Node16</title>
<g id="a_edge16_Node000010_Node000016"><a xlink:title=" ">
<path fill="none" stroke="#63b8ff" d="M785.44,-117.66C813.88,-107.69 848.58,-95.53 875.22,-86.19"/>
<polygon fill="#63b8ff" stroke="#63b8ff" points="784.58,-114.25 776.31,-120.86 786.9,-120.86 784.58,-114.25"/>
</a>
</g>
</g>
<!-- Node10&#45;&gt;Node17 -->
<g id="edge17_Node000010_Node000017" class="edge">
<title>Node10&#45;&gt;Node17</title>
<g id="a_edge17_Node000010_Node000017"><a xlink:title=" ">
<path fill="none" stroke="#63b8ff" d="M808.11,-127.48C884.72,-118.45 1007.01,-103.1 1112.12,-85.75 1121.3,-84.23 1131.1,-82.43 1140.42,-80.61"/>
<polygon fill="#63b8ff" stroke="#63b8ff" points="807.71,-124.01 798.18,-128.65 808.52,-130.96 807.71,-124.01"/>
</a>
</g>
</g>
<!-- Node18 -->
<g id="Node000018" class="node">
<title>Node18</title>
<g id="a_Node000018"><a xlink:href="f__op__kankyo__mng_8cpp.html" target="_top" xlink:title=" ">
<polygon fill="white" stroke="#666666" points="1102.62,-85.75 993.62,-85.75 993.62,-55.25 1102.62,-55.25 1102.62,-85.75"/>
<text text-anchor="start" x="1001.62" y="-72.25" font-family="Helvetica,sans-Serif" font-size="10.00">src/f_op/f_op_kankyo</text>
<text text-anchor="middle" x="1048.12" y="-61" font-family="Helvetica,sans-Serif" font-size="10.00">_mng.cpp</text>
</a>
</g>
</g>
<!-- Node10&#45;&gt;Node18 -->
<g id="edge18_Node000010_Node000018" class="edge">
<title>Node10&#45;&gt;Node18</title>
<g id="a_edge18_Node000010_Node000018"><a xlink:title=" ">
<path fill="none" stroke="#63b8ff" d="M807.73,-121.64C857.94,-111.85 925.59,-98.42 985.12,-85.75 987.76,-85.19 990.45,-84.61 993.17,-84.02"/>
<polygon fill="#63b8ff" stroke="#63b8ff" points="807.28,-118.16 798.14,-123.51 808.62,-125.04 807.28,-118.16"/>
</a>
</g>
</g>
<!-- Node12 -->
<g id="Node000012" class="node">
<title>Node12</title>
<g id="a_Node000012"><a xlink:href="d__k__wmark_8cpp.html" target="_top" xlink:title=" ">
<polygon fill="white" stroke="#666666" points="593.62,-19.25 484.62,-19.25 484.62,0 593.62,0 593.62,-19.25"/>
<text text-anchor="middle" x="539.12" y="-5.75" font-family="Helvetica,sans-Serif" font-size="10.00">src/d/d_k_wmark.cpp</text>
</a>
</g>
</g>
<!-- Node11&#45;&gt;Node12 -->
<g id="edge11_Node000011_Node000012" class="edge">
<title>Node11&#45;&gt;Node12</title>
<g id="a_edge11_Node000011_Node000012"><a xlink:title=" ">
<path fill="none" stroke="#63b8ff" d="M539.12,-49.07C539.12,-39.04 539.12,-27.46 539.12,-19.65"/>
<polygon fill="#63b8ff" stroke="#63b8ff" points="535.63,-49.04 539.13,-59.04 542.63,-49.04 535.63,-49.04"/>
</a>
</g>
</g>
<!-- Node14 -->
<g id="Node000014" class="node">
<title>Node14</title>
<g id="a_Node000014"><a xlink:href="d__k__wpillar_8cpp.html" target="_top" xlink:title=" ">
<polygon fill="white" stroke="#666666" points="725.88,-19.25 618.38,-19.25 618.38,0 725.88,0 725.88,-19.25"/>
<text text-anchor="middle" x="672.12" y="-5.75" font-family="Helvetica,sans-Serif" font-size="10.00">src/d/d_k_wpillar.cpp</text>
</a>
</g>
</g>
<!-- Node13&#45;&gt;Node14 -->
<g id="edge13_Node000013_Node000014" class="edge">
<title>Node13&#45;&gt;Node14</title>
<g id="a_edge13_Node000013_Node000014"><a xlink:title=" ">
<path fill="none" stroke="#63b8ff" d="M672.12,-49.07C672.12,-39.04 672.12,-27.46 672.12,-19.65"/>
<polygon fill="#63b8ff" stroke="#63b8ff" points="668.63,-49.04 672.13,-59.04 675.63,-49.04 668.63,-49.04"/>
</a>
</g>
</g>
</g>
</svg>

<g id="navigator" transform="translate(0 0)" fill="#404254">
  <rect fill="#f2f5e9" fill-opacity="0.5" stroke="#606060" stroke-width=".5" x="0" y="0" width="60" height="60"/>
  <use id="zoomplus" xlink:href="#zoomPlus" x="17" y="9" onmousedown="handleZoom(evt,'in')"/>
  <use id="zoomminus" xlink:href="#zoomMin" x="42" y="9" onmousedown="handleZoom(evt,'out')"/>
  <use id="reset" xlink:href="#resetDef" x="30" y="36" onmousedown="handleReset()"/>
   <use id="arrowup" xlink:href="#arrowUp" x="0" y="0" onmousedown="handlePan(0,-1)"/>
  <use id="arrowright" xlink:href="#arrowRight" x="0" y="0" onmousedown="handlePan(1,0)"/>
  <use id="arrowdown" xlink:href="#arrowDown" x="0" y="0" onmousedown="handlePan(0,1)"/>
  <use id="arrowleft" xlink:href="#arrowLeft" x="0" y="0" onmousedown="handlePan(-1,0)"/>
</g>
<svg viewBox="0 0 15 15" width="100%" height="30px" preserveAspectRatio="xMaxYMin meet">
 <g id="arrow_out" transform="scale(0.3 0.3)">
  <a xlink:href="f__op__kankyo_8h__dep__incl_org.svg" target="_base">
   <rect id="button" ry="5" rx="5" y="6" x="6" height="38" width="38"
        fill="#f2f5e9" fill-opacity="0.5" stroke="#606060" stroke-width="1.0"/>
   <path id="arrow"
     d="M 11.500037,31.436501 C 11.940474,20.09759 22.043105,11.32322 32.158766,21.979434 L 37.068811,17.246167 C 37.068811,17.246167 37.088388,32 37.088388,32 L 22.160133,31.978069 C 22.160133,31.978069 26.997745,27.140456 26.997745,27.140456 C 18.528582,18.264221 13.291696,25.230495 11.500037,31.436501 z"
     style="fill:#404040;"/>
  </a>
 </g>
</svg>

<style type='text/css'>
<![CDATA[
[data-mouse-over-selected='false'] { opacity: 0.7; }
[data-mouse-over-selected='true']  { opacity: 1.0; }
]]>
</style>
<script type="application/ecmascript"><![CDATA[
document.addEventListener('DOMContentLoaded', (event) => {
  highlightEdges();
  highlightAdjacentNodes();
});
]]></script>
</svg>
