<?xml version="1.0" encoding="UTF-8" standalone="no"?>
<!DOCTYPE svg PUBLIC "-//W3C//DTD SVG 1.1//EN"
 "http://www.w3.org/Graphics/SVG/1.1/DTD/svg11.dtd">
<!-- Generated by graphviz version 7.0.5 (20221223.1930)
 -->
<!-- Title: include/f_op/f_op_camera_mng.h Pages: 1 -->
<svg width="5124pt" height="247pt"
 viewBox="0.00 0.00 5124.00 247.00" xmlns="http://www.w3.org/2000/svg" xmlns:xlink="http://www.w3.org/1999/xlink">
<g id="graph0" class="graph" transform="scale(1 1) rotate(0) translate(4 243)">
<title>include/f_op/f_op_camera_mng.h</title>
<!-- Node1 -->
<g id="node1" class="node">
<title>Node1</title>
<g id="a_node1"><a xlink:title=" ">
<polygon fill="#999999" stroke="#666666" points="2573.5,-239 2445.5,-239 2445.5,-209 2573.5,-209 2573.5,-239"/>
<text text-anchor="start" x="2453.5" y="-227" font-family="Helvetica,sans-Serif" font-size="10.00">include/f_op/f_op_camera</text>
<text text-anchor="middle" x="2509.5" y="-216" font-family="Helvetica,sans-Serif" font-size="10.00">_mng.h</text>
</a>
</g>
</g>
<!-- Node2 -->
<g id="node2" class="node">
<title>Node2</title>
<g id="a_node2"><a xlink:href="d__com__inf__game_8h.html" target="_top" xlink:title=" ">
<polygon fill="#fff0f0" stroke="red" points="2350.5,-173 2240.5,-173 2240.5,-143 2350.5,-143 2350.5,-173"/>
<text text-anchor="start" x="2248.5" y="-161" font-family="Helvetica,sans-Serif" font-size="10.00">include/d/com/d_com</text>
<text text-anchor="middle" x="2295.5" y="-150" font-family="Helvetica,sans-Serif" font-size="10.00">_inf_game.h</text>
</a>
</g>
</g>
<!-- Node1&#45;&gt;Node2 -->
<g id="edge1" class="edge">
<title>Node1&#45;&gt;Node2</title>
<path fill="none" stroke="#63b8ff" d="M2450.59,-205.38C2416.94,-195.32 2375.28,-182.86 2343.62,-173.39"/>
<polygon fill="#63b8ff" stroke="#63b8ff" points="2449.17,-208.61 2459.76,-208.12 2451.18,-201.91 2449.17,-208.61"/>
</g>
<!-- Node109 -->
<g id="node48" class="node">
<title>Node109</title>
<g id="a_node48"><a xlink:href="f__op__camera_8h.html" target="_top" xlink:title=" ">
<polygon fill="#fff0f0" stroke="red" points="2504.5,-167.5 2368.5,-167.5 2368.5,-148.5 2504.5,-148.5 2504.5,-167.5"/>
<text text-anchor="middle" x="2436.5" y="-155.5" font-family="Helvetica,sans-Serif" font-size="10.00">include/f_op/f_op_camera.h</text>
</a>
</g>
</g>
<!-- Node1&#45;&gt;Node109 -->
<g id="edge57" class="edge">
<title>Node1&#45;&gt;Node109</title>
<path fill="none" stroke="#63b8ff" d="M2484.72,-201.27C2471.67,-189.84 2456.39,-176.44 2446.59,-167.84"/>
<polygon fill="#63b8ff" stroke="#63b8ff" points="2482.33,-203.84 2492.16,-207.8 2486.95,-198.57 2482.33,-203.84"/>
</g>
<!-- Node110 -->
<g id="node49" class="node">
<title>Node110</title>
<g id="a_node49"><a xlink:href="f__ap__game_8cpp.html" target="_top" xlink:title=" ">
<polygon fill="white" stroke="#666666" points="2644,-167.5 2523,-167.5 2523,-148.5 2644,-148.5 2644,-167.5"/>
<text text-anchor="middle" x="2583.5" y="-155.5" font-family="Helvetica,sans-Serif" font-size="10.00">src/f_ap/f_ap_game.cpp</text>
</a>
</g>
</g>
<!-- Node1&#45;&gt;Node110 -->
<g id="edge58" class="edge">
<title>Node1&#45;&gt;Node110</title>
<path fill="none" stroke="#63b8ff" d="M2534.62,-201.27C2547.84,-189.84 2563.33,-176.44 2573.27,-167.84"/>
<polygon fill="#63b8ff" stroke="#63b8ff" points="2532.34,-198.62 2527.07,-207.81 2536.92,-203.91 2532.34,-198.62"/>
</g>
<!-- Node111 -->
<g id="node50" class="node">
<title>Node111</title>
<g id="a_node50"><a xlink:href="f__op__camera__mng_8cpp.html" target="_top" xlink:title=" ">
<polygon fill="white" stroke="#666666" points="2773,-173 2662,-173 2662,-143 2773,-143 2773,-173"/>
<text text-anchor="start" x="2670" y="-161" font-family="Helvetica,sans-Serif" font-size="10.00">src/f_op/f_op_camera</text>
<text text-anchor="middle" x="2717.5" y="-150" font-family="Helvetica,sans-Serif" font-size="10.00">_mng.cpp</text>
</a>
</g>
</g>
<!-- Node1&#45;&gt;Node111 -->
<g id="edge59" class="edge">
<title>Node1&#45;&gt;Node111</title>
<path fill="none" stroke="#63b8ff" d="M2567.19,-205.25C2599.82,-195.21 2640.09,-182.82 2670.73,-173.39"/>
<polygon fill="#63b8ff" stroke="#63b8ff" points="2566.41,-201.83 2557.89,-208.11 2568.47,-208.52 2566.41,-201.83"/>
</g>
<!-- Node3 -->
<g id="node3" class="node">
<title>Node3</title>
<g id="a_node3"><a xlink:href="d__a__npc_8h.html" target="_top" xlink:title=" ">
<polygon fill="#fff0f0" stroke="red" points="641,-24.5 530,-24.5 530,-5.5 641,-5.5 641,-24.5"/>
<text text-anchor="middle" x="585.5" y="-12.5" font-family="Helvetica,sans-Serif" font-size="10.00">include/d/a/d_a_npc.h</text>
</a>
</g>
</g>
<!-- Node2&#45;&gt;Node3 -->
<g id="edge2" class="edge">
<title>Node2&#45;&gt;Node3</title>
<path fill="none" stroke="#63b8ff" d="M2228.73,-157.19C1924.04,-157.77 677.54,-157.06 612.5,-107 586.64,-87.1 584.63,-43.54 585.05,-24.83"/>
<polygon fill="#63b8ff" stroke="#63b8ff" points="2228.51,-160.69 2238.5,-157.17 2228.5,-153.69 2228.51,-160.69"/>
</g>
<!-- Node9 -->
<g id="node4" class="node">
<title>Node9</title>
<g id="a_node4"><a xlink:href="d__cc__uty_8h.html" target="_top" xlink:title=" ">
<polygon fill="#fff0f0" stroke="red" points="957,-96 838,-96 838,-77 957,-77 957,-96"/>
<text text-anchor="middle" x="897.5" y="-84" font-family="Helvetica,sans-Serif" font-size="10.00">include/d/cc/d_cc_uty.h</text>
</a>
</g>
</g>
<!-- Node2&#45;&gt;Node9 -->
<g id="edge3" class="edge">
<title>Node2&#45;&gt;Node9</title>
<path fill="none" stroke="#63b8ff" d="M2228.68,-156.58C1994.77,-154.8 1213.63,-146 966.5,-107 952.11,-104.73 936.46,-100.46 923.71,-96.5"/>
<polygon fill="#63b8ff" stroke="#63b8ff" points="2228.51,-160.08 2238.54,-156.66 2228.57,-153.08 2228.51,-160.08"/>
</g>
<!-- Node15 -->
<g id="node5" class="node">
<title>Node15</title>
<g id="a_node5"><a xlink:href="d__item_8h.html" target="_top" xlink:title=" ">
<polygon fill="#fff0f0" stroke="red" points="254,-96 159,-96 159,-77 254,-77 254,-96"/>
<text text-anchor="middle" x="206.5" y="-84" font-family="Helvetica,sans-Serif" font-size="10.00">include/d/d_item.h</text>
</a>
</g>
</g>
<!-- Node2&#45;&gt;Node15 -->
<g id="edge4" class="edge">
<title>Node2&#45;&gt;Node15</title>
<path fill="none" stroke="#63b8ff" d="M2228.85,-156.31C1901.7,-152.8 473.77,-135.94 277.5,-107 262.58,-104.8 246.33,-100.48 233.14,-96.47"/>
<polygon fill="#63b8ff" stroke="#63b8ff" points="2228.46,-159.81 2238.5,-156.41 2228.54,-152.81 2228.46,-159.81"/>
</g>
<!-- Node12 -->
<g id="node6" class="node">
<title>Node12</title>
<g id="a_node6"><a xlink:href="d__a__alink_8cpp.html" target="_top" xlink:title=" ">
<polygon fill="white" stroke="#666666" points="379,-24.5 270,-24.5 270,-5.5 379,-5.5 379,-24.5"/>
<text text-anchor="middle" x="324.5" y="-12.5" font-family="Helvetica,sans-Serif" font-size="10.00">src/d/a/d_a_alink.cpp</text>
</a>
</g>
</g>
<!-- Node2&#45;&gt;Node12 -->
<g id="edge31" class="edge">
<title>Node2&#45;&gt;Node12</title>
<path fill="none" stroke="#63b8ff" d="M2228.97,-157.09C1899.76,-157.3 457.55,-155.46 376.5,-107 345.42,-88.42 331.24,-43.74 326.46,-24.76"/>
<polygon fill="#63b8ff" stroke="#63b8ff" points="2228.7,-160.59 2238.69,-157.08 2228.69,-153.59 2228.7,-160.59"/>
</g>
<!-- Node16 -->
<g id="node7" class="node">
<title>Node16</title>
<g id="a_node7"><a xlink:href="d__a__obj__item_8cpp.html" target="_top" xlink:title=" ">
<polygon fill="white" stroke="#666666" points="125,-24.5 0,-24.5 0,-5.5 125,-5.5 125,-24.5"/>
<text text-anchor="middle" x="62.5" y="-12.5" font-family="Helvetica,sans-Serif" font-size="10.00">src/d/a/d_a_obj_item.cpp</text>
</a>
</g>
</g>
<!-- Node2&#45;&gt;Node16 -->
<g id="edge34" class="edge">
<title>Node2&#45;&gt;Node16</title>
<path fill="none" stroke="#63b8ff" d="M2228.61,-156.88C1876.14,-156.05 246.76,-149.92 149.5,-107 109.71,-89.44 79.21,-44.19 67.6,-24.91"/>
<polygon fill="#63b8ff" stroke="#63b8ff" points="2228.6,-160.38 2238.61,-156.9 2228.62,-153.38 2228.6,-160.38"/>
</g>
<!-- Node17 -->
<g id="node8" class="node">
<title>Node17</title>
<g id="a_node8"><a xlink:href="d__com__inf__game_8cpp.html" target="_top" xlink:title=" ">
<polygon fill="white" stroke="#666666" points="251.5,-30 143.5,-30 143.5,0 251.5,0 251.5,-30"/>
<text text-anchor="start" x="151.5" y="-18" font-family="Helvetica,sans-Serif" font-size="10.00">src/d/com/d_com_inf</text>
<text text-anchor="middle" x="197.5" y="-7" font-family="Helvetica,sans-Serif" font-size="10.00">_game.cpp</text>
</a>
</g>
</g>
<!-- Node2&#45;&gt;Node17 -->
<g id="edge40" class="edge">
<title>Node2&#45;&gt;Node17</title>
<path fill="none" stroke="#63b8ff" d="M2228.84,-156.31C1896.46,-152.74 430.6,-135.42 338.5,-107 312.4,-98.95 248.89,-53.87 216.78,-30.33"/>
<polygon fill="#63b8ff" stroke="#63b8ff" points="2228.63,-159.81 2238.66,-156.41 2228.7,-152.81 2228.63,-159.81"/>
</g>
<!-- Node20 -->
<g id="node9" class="node">
<title>Node20</title>
<g id="a_node9"><a xlink:href="d__kantera__icon__meter_8h.html" target="_top" xlink:title=" ">
<polygon fill="#fff0f0" stroke="red" points="1076,-101.5 975,-101.5 975,-71.5 1076,-71.5 1076,-101.5"/>
<text text-anchor="start" x="983" y="-89.5" font-family="Helvetica,sans-Serif" font-size="10.00">include/d/d_kantera</text>
<text text-anchor="middle" x="1025.5" y="-78.5" font-family="Helvetica,sans-Serif" font-size="10.00">_icon_meter.h</text>
</a>
</g>
</g>
<!-- Node2&#45;&gt;Node20 -->
<g id="edge8" class="edge">
<title>Node2&#45;&gt;Node20</title>
<path fill="none" stroke="#63b8ff" d="M2228.78,-156.63C2008.79,-155.05 1307.73,-146.93 1085.5,-107 1078.71,-105.78 1071.63,-103.98 1064.81,-101.96"/>
<polygon fill="#63b8ff" stroke="#63b8ff" points="2228.58,-160.13 2238.61,-156.7 2228.63,-153.13 2228.58,-160.13"/>
</g>
<!-- Node23 -->
<g id="node10" class="node">
<title>Node23</title>
<g id="a_node10"><a xlink:href="d__model_8h.html" target="_top" xlink:title=" ">
<polygon fill="#fff0f0" stroke="red" points="1197,-96 1094,-96 1094,-77 1197,-77 1197,-96"/>
<text text-anchor="middle" x="1145.5" y="-84" font-family="Helvetica,sans-Serif" font-size="10.00">include/d/d_model.h</text>
</a>
</g>
</g>
<!-- Node2&#45;&gt;Node23 -->
<g id="edge9" class="edge">
<title>Node2&#45;&gt;Node23</title>
<path fill="none" stroke="#63b8ff" d="M2228.65,-156.23C2023.4,-153.52 1404.31,-142.51 1206.5,-107 1193.7,-104.7 1179.85,-100.43 1168.6,-96.47"/>
<polygon fill="#63b8ff" stroke="#63b8ff" points="2228.57,-159.73 2238.61,-156.36 2228.66,-152.73 2228.57,-159.73"/>
</g>
<!-- Node25 -->
<g id="node11" class="node">
<title>Node25</title>
<g id="a_node11"><a xlink:href="d__name_8h.html" target="_top" xlink:title=" ">
<polygon fill="#fff0f0" stroke="red" points="1316,-96 1215,-96 1215,-77 1316,-77 1316,-96"/>
<text text-anchor="middle" x="1265.5" y="-84" font-family="Helvetica,sans-Serif" font-size="10.00">include/d/d_name.h</text>
</a>
</g>
</g>
<!-- Node2&#45;&gt;Node25 -->
<g id="edge10" class="edge">
<title>Node2&#45;&gt;Node25</title>
<path fill="none" stroke="#63b8ff" d="M2228.61,-155.84C2038.79,-152.17 1499.28,-139.14 1325.5,-107 1312.9,-104.67 1299.28,-100.4 1288.21,-96.44"/>
<polygon fill="#63b8ff" stroke="#63b8ff" points="2228.49,-159.33 2238.55,-156.02 2228.62,-152.33 2228.49,-159.33"/>
</g>
<!-- Node27 -->
<g id="node12" class="node">
<title>Node27</title>
<g id="a_node12"><a xlink:href="d__file__sel__info_8h.html" target="_top" xlink:title=" ">
<polygon fill="#fff0f0" stroke="red" points="1430.5,-101.5 1334.5,-101.5 1334.5,-71.5 1430.5,-71.5 1430.5,-101.5"/>
<text text-anchor="start" x="1342.5" y="-89.5" font-family="Helvetica,sans-Serif" font-size="10.00">include/d/file/d_file</text>
<text text-anchor="middle" x="1382.5" y="-78.5" font-family="Helvetica,sans-Serif" font-size="10.00">_sel_info.h</text>
</a>
</g>
</g>
<!-- Node2&#45;&gt;Node27 -->
<g id="edge11" class="edge">
<title>Node2&#45;&gt;Node27</title>
<path fill="none" stroke="#63b8ff" d="M2228.75,-155.44C2054.73,-150.99 1590.31,-136.63 1439.5,-107 1433.14,-105.75 1426.51,-103.96 1420.13,-101.97"/>
<polygon fill="#63b8ff" stroke="#63b8ff" points="2228.43,-158.93 2238.51,-155.68 2228.61,-151.93 2228.43,-158.93"/>
</g>
<!-- Node30 -->
<g id="node13" class="node">
<title>Node30</title>
<g id="a_node13"><a xlink:href="d__file__sel__warning_8h.html" target="_top" xlink:title=" ">
<polygon fill="#fff0f0" stroke="red" points="1544.5,-101.5 1448.5,-101.5 1448.5,-71.5 1544.5,-71.5 1544.5,-101.5"/>
<text text-anchor="start" x="1456.5" y="-89.5" font-family="Helvetica,sans-Serif" font-size="10.00">include/d/file/d_file</text>
<text text-anchor="middle" x="1496.5" y="-78.5" font-family="Helvetica,sans-Serif" font-size="10.00">_sel_warning.h</text>
</a>
</g>
</g>
<!-- Node2&#45;&gt;Node30 -->
<g id="edge12" class="edge">
<title>Node2&#45;&gt;Node30</title>
<path fill="none" stroke="#63b8ff" d="M2228.75,-154.74C2071.56,-149.07 1681.7,-132.78 1553.5,-107 1547.14,-105.72 1540.52,-103.92 1534.14,-101.92"/>
<polygon fill="#63b8ff" stroke="#63b8ff" points="2228.47,-158.24 2238.59,-155.1 2228.72,-151.24 2228.47,-158.24"/>
</g>
<!-- Node32 -->
<g id="node14" class="node">
<title>Node32</title>
<g id="a_node14"><a xlink:href="d__meter2_8h.html" target="_top" xlink:title=" ">
<polygon fill="#fff0f0" stroke="red" points="1696.5,-96 1562.5,-96 1562.5,-77 1696.5,-77 1696.5,-96"/>
<text text-anchor="middle" x="1629.5" y="-84" font-family="Helvetica,sans-Serif" font-size="10.00">include/d/meter/d_meter2.h</text>
</a>
</g>
</g>
<!-- Node2&#45;&gt;Node32 -->
<g id="edge13" class="edge">
<title>Node2&#45;&gt;Node32</title>
<path fill="none" stroke="#63b8ff" d="M2229.13,-154.9C2119.6,-150.64 1894.42,-138.55 1706.5,-107 1691,-104.4 1674.03,-100.25 1659.98,-96.44"/>
<polygon fill="#63b8ff" stroke="#63b8ff" points="2228.68,-158.38 2238.8,-155.26 2228.94,-151.39 2228.68,-158.38"/>
</g>
<!-- Node40 -->
<g id="node15" class="node">
<title>Node40</title>
<g id="a_node15"><a xlink:href="d__msg__object_8h.html" target="_top" xlink:title=" ">
<polygon fill="#fff0f0" stroke="red" points="743.5,-101.5 633.5,-101.5 633.5,-71.5 743.5,-71.5 743.5,-101.5"/>
<text text-anchor="start" x="641.5" y="-89.5" font-family="Helvetica,sans-Serif" font-size="10.00">include/d/msg/d_msg</text>
<text text-anchor="middle" x="688.5" y="-78.5" font-family="Helvetica,sans-Serif" font-size="10.00">_object.h</text>
</a>
</g>
</g>
<!-- Node2&#45;&gt;Node40 -->
<g id="edge14" class="edge">
<title>Node2&#45;&gt;Node40</title>
<path fill="none" stroke="#63b8ff" d="M2228.73,-156.98C1971.86,-156.59 1047.4,-151.99 757.5,-107 749.75,-105.8 741.64,-104.01 733.81,-101.99"/>
<polygon fill="#63b8ff" stroke="#63b8ff" points="2228.57,-160.48 2238.58,-157 2228.58,-153.48 2228.57,-160.48"/>
</g>
<!-- Node47 -->
<g id="node16" class="node">
<title>Node47</title>
<g id="a_node16"><a xlink:href="d__demo_8cpp.html" target="_top" xlink:title=" ">
<polygon fill="white" stroke="#666666" points="753.5,-24.5 659.5,-24.5 659.5,-5.5 753.5,-5.5 753.5,-24.5"/>
<text text-anchor="middle" x="706.5" y="-12.5" font-family="Helvetica,sans-Serif" font-size="10.00">src/d/d_demo.cpp</text>
</a>
</g>
</g>
<!-- Node2&#45;&gt;Node47 -->
<g id="edge45" class="edge">
<title>Node2&#45;&gt;Node47</title>
<path fill="none" stroke="#63b8ff" d="M2229.1,-156.27C1921.99,-152.71 652.92,-136.29 624.5,-107 611.81,-93.92 615.58,-81.89 624.5,-66 635.93,-45.65 659.38,-32.6 678.29,-24.96"/>
<polygon fill="#63b8ff" stroke="#63b8ff" points="2228.91,-159.76 2238.95,-156.38 2228.99,-152.76 2228.91,-159.76"/>
</g>
<!-- Node48 -->
<g id="node17" class="node">
<title>Node48</title>
<g id="a_node17"><a xlink:href="d__event_8cpp.html" target="_top" xlink:title=" ">
<polygon fill="white" stroke="#666666" points="893,-24.5 772,-24.5 772,-5.5 893,-5.5 893,-24.5"/>
<text text-anchor="middle" x="832.5" y="-12.5" font-family="Helvetica,sans-Serif" font-size="10.00">src/d/event/d_event.cpp</text>
</a>
</g>
</g>
<!-- Node2&#45;&gt;Node48 -->
<g id="edge54" class="edge">
<title>Node2&#45;&gt;Node48</title>
<path fill="none" stroke="#63b8ff" d="M2228.85,-157.29C1947.13,-158.22 866.17,-158.38 816.5,-107 794.65,-84.4 815.64,-43.06 826.67,-24.93"/>
<polygon fill="#63b8ff" stroke="#63b8ff" points="2228.6,-160.8 2238.59,-157.26 2228.58,-153.8 2228.6,-160.8"/>
</g>
<!-- Node49 -->
<g id="node18" class="node">
<title>Node49</title>
<g id="a_node18"><a xlink:href="d__event__data_8cpp.html" target="_top" xlink:title=" ">
<polygon fill="white" stroke="#666666" points="1014,-30 911,-30 911,0 1014,0 1014,-30"/>
<text text-anchor="start" x="919" y="-18" font-family="Helvetica,sans-Serif" font-size="10.00">src/d/event/d_event</text>
<text text-anchor="middle" x="962.5" y="-7" font-family="Helvetica,sans-Serif" font-size="10.00">_data.cpp</text>
</a>
</g>
</g>
<!-- Node2&#45;&gt;Node49 -->
<g id="edge55" class="edge">
<title>Node2&#45;&gt;Node49</title>
<path fill="none" stroke="#63b8ff" d="M2228.97,-157.27C1949.01,-158.1 878.7,-157.91 829.5,-107 816.84,-93.9 819.13,-80.98 829.5,-66 839.26,-51.9 877.63,-38.38 910.67,-28.95"/>
<polygon fill="#63b8ff" stroke="#63b8ff" points="2228.65,-160.77 2238.64,-157.24 2228.63,-153.77 2228.65,-160.77"/>
</g>
<!-- Node56 -->
<g id="node19" class="node">
<title>Node56</title>
<g id="a_node19"><a xlink:href="d__s__logo_8h.html" target="_top" xlink:title=" ">
<polygon fill="#fff0f0" stroke="red" points="1828,-96 1715,-96 1715,-77 1828,-77 1828,-96"/>
<text text-anchor="middle" x="1771.5" y="-84" font-family="Helvetica,sans-Serif" font-size="10.00">include/d/s/d_s_logo.h</text>
</a>
</g>
</g>
<!-- Node2&#45;&gt;Node56 -->
<g id="edge20" class="edge">
<title>Node2&#45;&gt;Node56</title>
<path fill="none" stroke="#63b8ff" d="M2228.66,-153.45C2138.96,-147.84 1974.99,-134.59 1837.5,-107 1824.26,-104.34 1809.85,-100.23 1797.88,-96.47"/>
<polygon fill="#63b8ff" stroke="#63b8ff" points="2228.32,-156.94 2238.51,-154.05 2228.74,-149.95 2228.32,-156.94"/>
</g>
<!-- Node58 -->
<g id="node20" class="node">
<title>Node58</title>
<g id="a_node20"><a xlink:href="d__s__play_8h.html" target="_top" xlink:title=" ">
<polygon fill="#fff0f0" stroke="red" points="1959,-96 1846,-96 1846,-77 1959,-77 1959,-96"/>
<text text-anchor="middle" x="1902.5" y="-84" font-family="Helvetica,sans-Serif" font-size="10.00">include/d/s/d_s_play.h</text>
</a>
</g>
</g>
<!-- Node2&#45;&gt;Node58 -->
<g id="edge21" class="edge">
<title>Node2&#45;&gt;Node58</title>
<path fill="none" stroke="#63b8ff" d="M2228.98,-149.51C2162.56,-141.41 2057.78,-126.92 1968.5,-107 1955.56,-104.11 1941.43,-100.06 1929.58,-96.4"/>
<polygon fill="#63b8ff" stroke="#63b8ff" points="2228.26,-152.95 2238.61,-150.67 2229.1,-146 2228.26,-152.95"/>
</g>
<!-- Node62 -->
<g id="node21" class="node">
<title>Node62</title>
<g id="a_node21"><a xlink:href="d__msg__scrn__base_8h.html" target="_top" xlink:title=" ">
<polygon fill="#fff0f0" stroke="red" points="2076,-101.5 1977,-101.5 1977,-71.5 2076,-71.5 2076,-101.5"/>
<text text-anchor="start" x="1985" y="-89.5" font-family="Helvetica,sans-Serif" font-size="10.00">include/msg/scrn/d</text>
<text text-anchor="middle" x="2026.5" y="-78.5" font-family="Helvetica,sans-Serif" font-size="10.00">_msg_scrn_base.h</text>
</a>
</g>
</g>
<!-- Node2&#45;&gt;Node62 -->
<g id="edge22" class="edge">
<title>Node2&#45;&gt;Node62</title>
<path fill="none" stroke="#63b8ff" d="M2229.26,-142.75C2187.74,-133.45 2133.22,-120.54 2085.5,-107 2080.1,-105.47 2074.46,-103.75 2068.91,-102"/>
<polygon fill="#63b8ff" stroke="#63b8ff" points="2228.34,-146.13 2238.86,-144.89 2229.86,-139.3 2228.34,-146.13"/>
</g>
<!-- Node66 -->
<g id="node22" class="node">
<title>Node66</title>
<g id="a_node22"><a xlink:href="d__a__b__zant_8h.html" target="_top" xlink:title=" ">
<polygon fill="white" stroke="#666666" points="2215,-101.5 2094,-101.5 2094,-71.5 2215,-71.5 2215,-101.5"/>
<text text-anchor="start" x="2102" y="-89.5" font-family="Helvetica,sans-Serif" font-size="10.00">include/rel/d/a/b/d</text>
<text text-anchor="middle" x="2154.5" y="-78.5" font-family="Helvetica,sans-Serif" font-size="10.00">_a_b_zant/d_a_b_zant.h</text>
</a>
</g>
</g>
<!-- Node2&#45;&gt;Node66 -->
<g id="edge23" class="edge">
<title>Node2&#45;&gt;Node66</title>
<path fill="none" stroke="#63b8ff" d="M2256.16,-137.61C2233.17,-126.28 2204.65,-112.22 2183.68,-101.88"/>
<polygon fill="#63b8ff" stroke="#63b8ff" points="2254.41,-140.65 2264.93,-141.93 2257.5,-134.37 2254.41,-140.65"/>
</g>
<!-- Node67 -->
<g id="node23" class="node">
<title>Node67</title>
<g id="a_node23"><a xlink:href="d__a__skip__2D_8h.html" target="_top" xlink:title=" ">
<polygon fill="white" stroke="#666666" points="2357.5,-101.5 2233.5,-101.5 2233.5,-71.5 2357.5,-71.5 2357.5,-101.5"/>
<text text-anchor="start" x="2241.5" y="-89.5" font-family="Helvetica,sans-Serif" font-size="10.00">include/rel/d/a/d_a</text>
<text text-anchor="middle" x="2295.5" y="-78.5" font-family="Helvetica,sans-Serif" font-size="10.00">_skip_2D/d_a_skip_2D.h</text>
</a>
</g>
</g>
<!-- Node2&#45;&gt;Node67 -->
<g id="edge24" class="edge">
<title>Node2&#45;&gt;Node67</title>
<path fill="none" stroke="#63b8ff" d="M2295.5,-131.26C2295.5,-121.33 2295.5,-110.36 2295.5,-101.88"/>
<polygon fill="#63b8ff" stroke="#63b8ff" points="2292,-131.09 2295.5,-141.09 2299,-131.09 2292,-131.09"/>
</g>
<!-- Node68 -->
<g id="node24" class="node">
<title>Node68</title>
<g id="a_node24"><a xlink:href="d__a__spinner_8h.html" target="_top" xlink:title=" ">
<polygon fill="white" stroke="#666666" points="501.5,-101.5 385.5,-101.5 385.5,-71.5 501.5,-71.5 501.5,-101.5"/>
<text text-anchor="start" x="393.5" y="-89.5" font-family="Helvetica,sans-Serif" font-size="10.00">include/rel/d/a/d_a</text>
<text text-anchor="middle" x="443.5" y="-78.5" font-family="Helvetica,sans-Serif" font-size="10.00">_spinner/d_a_spinner.h</text>
</a>
</g>
</g>
<!-- Node2&#45;&gt;Node68 -->
<g id="edge25" class="edge">
<title>Node2&#45;&gt;Node68</title>
<path fill="none" stroke="#63b8ff" d="M2229.2,-157.23C1948.36,-157.89 855.63,-157.11 515.5,-107 507.3,-105.79 498.7,-103.97 490.41,-101.91"/>
<polygon fill="#63b8ff" stroke="#63b8ff" points="2228.9,-160.73 2238.89,-157.21 2228.88,-153.73 2228.9,-160.73"/>
</g>
<!-- Node69 -->
<g id="node25" class="node">
<title>Node69</title>
<g id="a_node25"><a xlink:href="d__a__player_8cpp.html" target="_top" xlink:title=" ">
<polygon fill="white" stroke="#666666" points="511.5,-24.5 397.5,-24.5 397.5,-5.5 511.5,-5.5 511.5,-24.5"/>
<text text-anchor="middle" x="454.5" y="-12.5" font-family="Helvetica,sans-Serif" font-size="10.00">src/d/a/d_a_player.cpp</text>
</a>
</g>
</g>
<!-- Node2&#45;&gt;Node69 -->
<g id="edge35" class="edge">
<title>Node2&#45;&gt;Node69</title>
<path fill="none" stroke="#63b8ff" d="M2228.97,-157.29C1932.98,-158.29 743.39,-159 585.5,-107 533.16,-89.76 483.03,-44.34 463.31,-24.96"/>
<polygon fill="#63b8ff" stroke="#63b8ff" points="2228.85,-160.79 2238.84,-157.26 2228.82,-153.79 2228.85,-160.79"/>
</g>
<!-- Node70 -->
<g id="node26" class="node">
<title>Node70</title>
<g id="a_node26"><a xlink:href="d__a__obj__yobikusa_8h.html" target="_top" xlink:title=" ">
<polygon fill="white" stroke="#666666" points="2481,-107 2376,-107 2376,-66 2481,-66 2481,-107"/>
<text text-anchor="start" x="2384" y="-95" font-family="Helvetica,sans-Serif" font-size="10.00">include/rel/d/a/obj</text>
<text text-anchor="start" x="2384" y="-84" font-family="Helvetica,sans-Serif" font-size="10.00">/d_a_obj_yobikusa/d</text>
<text text-anchor="middle" x="2428.5" y="-73" font-family="Helvetica,sans-Serif" font-size="10.00">_a_obj_yobikusa.h</text>
</a>
</g>
</g>
<!-- Node2&#45;&gt;Node70 -->
<g id="edge28" class="edge">
<title>Node2&#45;&gt;Node70</title>
<path fill="none" stroke="#63b8ff" d="M2333.15,-137.33C2351.05,-127.97 2372.42,-116.8 2390.39,-107.42"/>
<polygon fill="#63b8ff" stroke="#63b8ff" points="2331.64,-134.17 2324.4,-141.9 2334.88,-140.37 2331.64,-134.17"/>
</g>
<!-- Node71 -->
<g id="node27" class="node">
<title>Node71</title>
<g id="a_node27"><a xlink:href="d__a__tag__telop_8h.html" target="_top" xlink:title=" ">
<polygon fill="white" stroke="#666666" points="2617.5,-107 2499.5,-107 2499.5,-66 2617.5,-66 2617.5,-107"/>
<text text-anchor="start" x="2507.5" y="-95" font-family="Helvetica,sans-Serif" font-size="10.00">include/rel/d/a/tag</text>
<text text-anchor="start" x="2507.5" y="-84" font-family="Helvetica,sans-Serif" font-size="10.00">/d_a_tag_telop/d_a_tag</text>
<text text-anchor="middle" x="2558.5" y="-73" font-family="Helvetica,sans-Serif" font-size="10.00">_telop.h</text>
</a>
</g>
</g>
<!-- Node2&#45;&gt;Node71 -->
<g id="edge29" class="edge">
<title>Node2&#45;&gt;Node71</title>
<path fill="none" stroke="#63b8ff" d="M2361.54,-140.56C2399.36,-131.02 2447.68,-118.63 2490.5,-107 2493.34,-106.23 2496.25,-105.43 2499.19,-104.61"/>
<polygon fill="#63b8ff" stroke="#63b8ff" points="2360.97,-137.09 2352.13,-142.93 2362.68,-143.88 2360.97,-137.09"/>
</g>
<!-- Node72 -->
<g id="node28" class="node">
<title>Node72</title>
<g id="a_node28"><a xlink:href="c__dylink_8cpp.html" target="_top" xlink:title=" ">
<polygon fill="white" stroke="#666666" points="2731,-96 2636,-96 2636,-77 2731,-77 2731,-96"/>
<text text-anchor="middle" x="2683.5" y="-84" font-family="Helvetica,sans-Serif" font-size="10.00">src/c/c_dylink.cpp</text>
</a>
</g>
</g>
<!-- Node2&#45;&gt;Node72 -->
<g id="edge30" class="edge">
<title>Node2&#45;&gt;Node72</title>
<path fill="none" stroke="#63b8ff" d="M2362.18,-142.64C2479.47,-122.9 2513.49,-133.68 2626.5,-107 2638,-104.28 2650.46,-100.17 2660.78,-96.41"/>
<polygon fill="#63b8ff" stroke="#63b8ff" points="2361.7,-139.17 2352.44,-144.32 2362.89,-146.07 2361.7,-139.17"/>
</g>
<!-- Node73 -->
<g id="node29" class="node">
<title>Node73</title>
<g id="a_node29"><a xlink:href="d__a__itembase_8cpp.html" target="_top" xlink:title=" ">
<polygon fill="white" stroke="#666666" points="2877.5,-96 2749.5,-96 2749.5,-77 2877.5,-77 2877.5,-96"/>
<text text-anchor="middle" x="2813.5" y="-84" font-family="Helvetica,sans-Serif" font-size="10.00">src/d/a/d_a_itembase.cpp</text>
</a>
</g>
</g>
<!-- Node2&#45;&gt;Node73 -->
<g id="edge32" class="edge">
<title>Node2&#45;&gt;Node73</title>
<path fill="none" stroke="#63b8ff" d="M2362.13,-142.73C2529.57,-117.63 2576.69,-136.41 2740.5,-107 2755.22,-104.36 2771.31,-100.2 2784.62,-96.4"/>
<polygon fill="#63b8ff" stroke="#63b8ff" points="2361.78,-139.24 2352.42,-144.22 2362.84,-146.16 2361.78,-139.24"/>
</g>
<!-- Node74 -->
<g id="node30" class="node">
<title>Node74</title>
<g id="a_node30"><a xlink:href="d__a__obj_8cpp.html" target="_top" xlink:title=" ">
<polygon fill="white" stroke="#666666" points="2997,-96 2896,-96 2896,-77 2997,-77 2997,-96"/>
<text text-anchor="middle" x="2946.5" y="-84" font-family="Helvetica,sans-Serif" font-size="10.00">src/d/a/d_a_obj.cpp</text>
</a>
</g>
</g>
<!-- Node2&#45;&gt;Node74 -->
<g id="edge33" class="edge">
<title>Node2&#45;&gt;Node74</title>
<path fill="none" stroke="#63b8ff" d="M2362.08,-142.79C2593.96,-111.11 2659.61,-150.92 2886.5,-107 2898.97,-104.59 2912.46,-100.36 2923.49,-96.45"/>
<polygon fill="#63b8ff" stroke="#63b8ff" points="2361.83,-139.29 2352.41,-144.15 2362.8,-146.23 2361.83,-139.29"/>
</g>
<!-- Node75 -->
<g id="node31" class="node">
<title>Node75</title>
<g id="a_node31"><a xlink:href="d__bg__s_8cpp.html" target="_top" xlink:title=" ">
<polygon fill="white" stroke="#666666" points="3119.5,-96 3015.5,-96 3015.5,-77 3119.5,-77 3119.5,-96"/>
<text text-anchor="middle" x="3067.5" y="-84" font-family="Helvetica,sans-Serif" font-size="10.00">src/d/bg/d_bg_s.cpp</text>
</a>
</g>
</g>
<!-- Node2&#45;&gt;Node75 -->
<g id="edge36" class="edge">
<title>Node2&#45;&gt;Node75</title>
<path fill="none" stroke="#63b8ff" d="M2362,-142.83C2646.89,-105.49 2726.88,-158.6 3006.5,-107 3019.29,-104.64 3033.13,-100.36 3044.39,-96.42"/>
<polygon fill="#63b8ff" stroke="#63b8ff" points="2361.85,-139.31 2352.41,-144.11 2362.78,-146.25 2361.85,-139.31"/>
</g>
<!-- Node76 -->
<g id="node32" class="node">
<title>Node76</title>
<g id="a_node32"><a xlink:href="d__bg__s__movebg__actor_8cpp.html" target="_top" xlink:title=" ">
<polygon fill="white" stroke="#666666" points="3263.5,-101.5 3137.5,-101.5 3137.5,-71.5 3263.5,-71.5 3263.5,-101.5"/>
<text text-anchor="start" x="3145.5" y="-89.5" font-family="Helvetica,sans-Serif" font-size="10.00">src/d/bg/d_bg_s_movebg</text>
<text text-anchor="middle" x="3200.5" y="-78.5" font-family="Helvetica,sans-Serif" font-size="10.00">_actor.cpp</text>
</a>
</g>
</g>
<!-- Node2&#45;&gt;Node76 -->
<g id="edge37" class="edge">
<title>Node2&#45;&gt;Node76</title>
<path fill="none" stroke="#63b8ff" d="M2362.27,-142.8C2700.76,-99.63 2794.2,-159.45 3128.5,-107 3136.43,-105.76 3144.75,-103.97 3152.79,-101.98"/>
<polygon fill="#63b8ff" stroke="#63b8ff" points="2361.87,-139.33 2352.4,-144.09 2362.77,-146.27 2361.87,-139.33"/>
</g>
<!-- Node77 -->
<g id="node33" class="node">
<title>Node77</title>
<g id="a_node33"><a xlink:href="d__bg__w_8cpp.html" target="_top" xlink:title=" ">
<polygon fill="white" stroke="#666666" points="3389,-96 3282,-96 3282,-77 3389,-77 3389,-96"/>
<text text-anchor="middle" x="3335.5" y="-84" font-family="Helvetica,sans-Serif" font-size="10.00">src/d/bg/d_bg_w.cpp</text>
</a>
</g>
</g>
<!-- Node2&#45;&gt;Node77 -->
<g id="edge38" class="edge">
<title>Node2&#45;&gt;Node77</title>
<path fill="none" stroke="#63b8ff" d="M2362.27,-142.82C2764.37,-92.96 2875.96,-174.98 3272.5,-107 3285.82,-104.72 3300.24,-100.4 3311.92,-96.4"/>
<polygon fill="#63b8ff" stroke="#63b8ff" points="2361.88,-139.34 2352.4,-144.07 2362.76,-146.29 2361.88,-139.34"/>
</g>
<!-- Node78 -->
<g id="node34" class="node">
<title>Node78</title>
<g id="a_node34"><a xlink:href="d__cc__s_8cpp.html" target="_top" xlink:title=" ">
<polygon fill="white" stroke="#666666" points="3511.5,-96 3407.5,-96 3407.5,-77 3511.5,-77 3511.5,-96"/>
<text text-anchor="middle" x="3459.5" y="-84" font-family="Helvetica,sans-Serif" font-size="10.00">src/d/cc/d_cc_s.cpp</text>
</a>
</g>
</g>
<!-- Node2&#45;&gt;Node78 -->
<g id="edge39" class="edge">
<title>Node2&#45;&gt;Node78</title>
<path fill="none" stroke="#63b8ff" d="M2362.12,-142.85C2819.99,-87.01 2946.93,-185.45 3398.5,-107 3411.43,-104.75 3425.4,-100.44 3436.7,-96.43"/>
<polygon fill="#63b8ff" stroke="#63b8ff" points="2361.89,-139.35 2352.4,-144.05 2362.75,-146.3 2361.89,-139.35"/>
</g>
<!-- Node79 -->
<g id="node35" class="node">
<title>Node79</title>
<g id="a_node35"><a xlink:href="d__com__static_8cpp.html" target="_top" xlink:title=" ">
<polygon fill="white" stroke="#666666" points="3669.5,-96 3529.5,-96 3529.5,-77 3669.5,-77 3669.5,-96"/>
<text text-anchor="middle" x="3599.5" y="-84" font-family="Helvetica,sans-Serif" font-size="10.00">src/d/com/d_com_static.cpp</text>
</a>
</g>
</g>
<!-- Node2&#45;&gt;Node79 -->
<g id="edge41" class="edge">
<title>Node2&#45;&gt;Node79</title>
<path fill="none" stroke="#63b8ff" d="M2362.28,-142.83C2873.87,-80.99 3012.8,-176.73 3520.5,-107 3537.01,-104.73 3555.09,-100.41 3569.78,-96.41"/>
<polygon fill="#63b8ff" stroke="#63b8ff" points="2361.9,-139.35 2352.4,-144.04 2362.75,-146.3 2361.9,-139.35"/>
</g>
<!-- Node80 -->
<g id="node36" class="node">
<title>Node80</title>
<g id="a_node36"><a xlink:href="d__attention_8cpp.html" target="_top" xlink:title=" ">
<polygon fill="white" stroke="#666666" points="3795,-96 3688,-96 3688,-77 3795,-77 3795,-96"/>
<text text-anchor="middle" x="3741.5" y="-84" font-family="Helvetica,sans-Serif" font-size="10.00">src/d/d_attention.cpp</text>
</a>
</g>
</g>
<!-- Node2&#45;&gt;Node80 -->
<g id="edge42" class="edge">
<title>Node2&#45;&gt;Node80</title>
<path fill="none" stroke="#63b8ff" d="M2362.06,-142.91C2668.53,-108.65 3392.73,-154.21 3678.5,-107 3691.83,-104.8 3706.26,-100.48 3717.94,-96.47"/>
<polygon fill="#63b8ff" stroke="#63b8ff" points="2361.92,-139.4 2352.4,-144.04 2362.74,-146.35 2361.92,-139.4"/>
</g>
<!-- Node81 -->
<g id="node37" class="node">
<title>Node81</title>
<g id="a_node37"><a xlink:href="d__cam__param_8cpp.html" target="_top" xlink:title=" ">
<polygon fill="white" stroke="#666666" points="3934,-96 3813,-96 3813,-77 3934,-77 3934,-96"/>
<text text-anchor="middle" x="3873.5" y="-84" font-family="Helvetica,sans-Serif" font-size="10.00">src/d/d_cam_param.cpp</text>
</a>
</g>
</g>
<!-- Node2&#45;&gt;Node81 -->
<g id="edge43" class="edge">
<title>Node2&#45;&gt;Node81</title>
<path fill="none" stroke="#63b8ff" d="M2362.21,-142.85C2999.32,-67.61 3173.03,-202.55 3804.5,-107 3819.02,-104.8 3834.82,-100.49 3847.63,-96.47"/>
<polygon fill="#63b8ff" stroke="#63b8ff" points="2361.91,-139.36 2352.4,-144.03 2362.74,-146.32 2361.91,-139.36"/>
</g>
<!-- Node82 -->
<g id="node38" class="node">
<title>Node82</title>
<g id="a_node38"><a xlink:href="d__camera_8cpp.html" target="_top" xlink:title=" ">
<polygon fill="white" stroke="#666666" points="4054.5,-96 3952.5,-96 3952.5,-77 4054.5,-77 4054.5,-96"/>
<text text-anchor="middle" x="4003.5" y="-84" font-family="Helvetica,sans-Serif" font-size="10.00">src/d/d_camera.cpp</text>
</a>
</g>
</g>
<!-- Node2&#45;&gt;Node82 -->
<g id="edge44" class="edge">
<title>Node2&#45;&gt;Node82</title>
<path fill="none" stroke="#63b8ff" d="M2362.08,-142.91C2727.24,-102.5 3599.95,-165.43 3943.5,-107 3956.35,-104.81 3970.22,-100.45 3981.38,-96.4"/>
<polygon fill="#63b8ff" stroke="#63b8ff" points="2361.93,-139.4 2352.4,-144.03 2362.73,-146.36 2361.93,-139.4"/>
</g>
<!-- Node83 -->
<g id="node39" class="node">
<title>Node83</title>
<g id="a_node39"><a xlink:href="d__eye__hl_8cpp.html" target="_top" xlink:title=" ">
<polygon fill="white" stroke="#666666" points="4170.5,-96 4072.5,-96 4072.5,-77 4170.5,-77 4170.5,-96"/>
<text text-anchor="middle" x="4121.5" y="-84" font-family="Helvetica,sans-Serif" font-size="10.00">src/d/d_eye_hl.cpp</text>
</a>
</g>
</g>
<!-- Node2&#45;&gt;Node83 -->
<g id="edge46" class="edge">
<title>Node2&#45;&gt;Node83</title>
<path fill="none" stroke="#63b8ff" d="M2362.32,-142.88C2754.2,-99.75 3694.03,-171.46 4063.5,-107 4075.95,-104.83 4089.36,-100.46 4100.15,-96.41"/>
<polygon fill="#63b8ff" stroke="#63b8ff" points="2361.93,-139.41 2352.39,-144.02 2362.73,-146.36 2361.93,-139.41"/>
</g>
<!-- Node84 -->
<g id="node40" class="node">
<title>Node84</title>
<g id="a_node40"><a xlink:href="d__kyeff_8cpp.html" target="_top" xlink:title=" ">
<polygon fill="white" stroke="#666666" points="4278.5,-96 4188.5,-96 4188.5,-77 4278.5,-77 4278.5,-96"/>
<text text-anchor="middle" x="4233.5" y="-84" font-family="Helvetica,sans-Serif" font-size="10.00">src/d/d_kyeff.cpp</text>
</a>
</g>
</g>
<!-- Node2&#45;&gt;Node84 -->
<g id="edge47" class="edge">
<title>Node2&#45;&gt;Node84</title>
<path fill="none" stroke="#63b8ff" d="M2362.16,-142.9C2779.62,-97.08 3785.34,-180.01 4179.5,-107 4191.16,-104.84 4203.65,-100.47 4213.68,-96.42"/>
<polygon fill="#63b8ff" stroke="#63b8ff" points="2361.93,-139.41 2352.39,-144.02 2362.73,-146.36 2361.93,-139.41"/>
</g>
<!-- Node85 -->
<g id="node41" class="node">
<title>Node85</title>
<g id="a_node41"><a xlink:href="d__path_8cpp.html" target="_top" xlink:title=" ">
<polygon fill="white" stroke="#666666" points="4386,-96 4297,-96 4297,-77 4386,-77 4386,-96"/>
<text text-anchor="middle" x="4341.5" y="-84" font-family="Helvetica,sans-Serif" font-size="10.00">src/d/d_path.cpp</text>
</a>
</g>
</g>
<!-- Node2&#45;&gt;Node85 -->
<g id="edge48" class="edge">
<title>Node2&#45;&gt;Node85</title>
<path fill="none" stroke="#63b8ff" d="M2362.16,-142.9C2803.52,-94.53 3869.71,-184.15 4287.5,-107 4299.16,-104.85 4311.65,-100.48 4321.68,-96.43"/>
<polygon fill="#63b8ff" stroke="#63b8ff" points="2361.93,-139.41 2352.39,-144.01 2362.73,-146.36 2361.93,-139.41"/>
</g>
<!-- Node86 -->
<g id="node42" class="node">
<title>Node86</title>
<g id="a_node42"><a xlink:href="d__resorce_8cpp.html" target="_top" xlink:title=" ">
<polygon fill="white" stroke="#666666" points="4506.5,-96 4404.5,-96 4404.5,-77 4506.5,-77 4506.5,-96"/>
<text text-anchor="middle" x="4455.5" y="-84" font-family="Helvetica,sans-Serif" font-size="10.00">src/d/d_resorce.cpp</text>
</a>
</g>
</g>
<!-- Node2&#45;&gt;Node86 -->
<g id="edge49" class="edge">
<title>Node2&#45;&gt;Node86</title>
<path fill="none" stroke="#63b8ff" d="M2362.09,-142.91C2827.28,-91.85 3952.8,-181.15 4395.5,-107 4408.35,-104.85 4422.22,-100.48 4433.39,-96.43"/>
<polygon fill="#63b8ff" stroke="#63b8ff" points="2361.93,-139.41 2352.39,-144.01 2362.72,-146.36 2361.93,-139.41"/>
</g>
<!-- Node87 -->
<g id="node43" class="node">
<title>Node87</title>
<g id="a_node43"><a xlink:href="d__simple__model_8cpp.html" target="_top" xlink:title=" ">
<polygon fill="white" stroke="#666666" points="4654.5,-96 4524.5,-96 4524.5,-77 4654.5,-77 4654.5,-96"/>
<text text-anchor="middle" x="4589.5" y="-84" font-family="Helvetica,sans-Serif" font-size="10.00">src/d/d_simple_model.cpp</text>
</a>
</g>
</g>
<!-- Node2&#45;&gt;Node87 -->
<g id="edge50" class="edge">
<title>Node2&#45;&gt;Node87</title>
<path fill="none" stroke="#63b8ff" d="M2362.01,-142.92C2853.66,-88.81 4044.42,-172.03 4515.5,-107 4531.16,-104.84 4548.25,-100.47 4562.06,-96.42"/>
<polygon fill="#63b8ff" stroke="#63b8ff" points="2361.93,-139.4 2352.39,-144.01 2362.72,-146.36 2361.93,-139.4"/>
</g>
<!-- Node88 -->
<g id="node44" class="node">
<title>Node88</title>
<g id="a_node44"><a xlink:href="d__stage_8cpp.html" target="_top" xlink:title=" ">
<polygon fill="white" stroke="#666666" points="4766.5,-96 4672.5,-96 4672.5,-77 4766.5,-77 4766.5,-96"/>
<text text-anchor="middle" x="4719.5" y="-84" font-family="Helvetica,sans-Serif" font-size="10.00">src/d/d_stage.cpp</text>
</a>
</g>
</g>
<!-- Node2&#45;&gt;Node88 -->
<g id="edge51" class="edge">
<title>Node2&#45;&gt;Node88</title>
<path fill="none" stroke="#63b8ff" d="M2362.08,-143C2660.95,-114.49 4414.72,-151.08 4663.5,-107 4675.56,-104.86 4688.51,-100.5 4698.92,-96.44"/>
<polygon fill="#63b8ff" stroke="#63b8ff" points="2361.97,-139.49 2352.39,-144.02 2362.71,-146.45 2361.97,-139.49"/>
</g>
<!-- Node42 -->
<g id="node45" class="node">
<title>Node42</title>
<g id="a_node45"><a xlink:href="d__timer_8cpp.html" target="_top" xlink:title=" ">
<polygon fill="white" stroke="#666666" points="4876.5,-96 4784.5,-96 4784.5,-77 4876.5,-77 4876.5,-96"/>
<text text-anchor="middle" x="4830.5" y="-84" font-family="Helvetica,sans-Serif" font-size="10.00">src/d/d_timer.cpp</text>
</a>
</g>
</g>
<!-- Node2&#45;&gt;Node42 -->
<g id="edge52" class="edge">
<title>Node2&#45;&gt;Node42</title>
<path fill="none" stroke="#63b8ff" d="M2362.15,-142.99C2673.8,-113.22 4514.61,-153.88 4775.5,-107 4787.37,-104.87 4800.08,-100.5 4810.3,-96.44"/>
<polygon fill="#63b8ff" stroke="#63b8ff" points="2361.97,-139.49 2352.39,-144.01 2362.7,-146.45 2361.97,-139.49"/>
</g>
<!-- Node89 -->
<g id="node46" class="node">
<title>Node89</title>
<g id="a_node46"><a xlink:href="d__tresure_8cpp.html" target="_top" xlink:title=" ">
<polygon fill="white" stroke="#666666" points="4994.5,-96 4894.5,-96 4894.5,-77 4994.5,-77 4994.5,-96"/>
<text text-anchor="middle" x="4944.5" y="-84" font-family="Helvetica,sans-Serif" font-size="10.00">src/d/d_tresure.cpp</text>
</a>
</g>
</g>
<!-- Node2&#45;&gt;Node89 -->
<g id="edge53" class="edge">
<title>Node2&#45;&gt;Node89</title>
<path fill="none" stroke="#63b8ff" d="M2362.16,-142.98C2686.2,-111.88 4612.08,-153.01 4885.5,-107 4898.16,-104.87 4911.8,-100.51 4922.77,-96.45"/>
<polygon fill="#63b8ff" stroke="#63b8ff" points="2361.97,-139.48 2352.39,-144.01 2362.7,-146.45 2361.97,-139.48"/>
</g>
<!-- Node90 -->
<g id="node47" class="node">
<title>Node90</title>
<g id="a_node47"><a xlink:href="d__event__lib_8cpp.html" target="_top" xlink:title=" ">
<polygon fill="white" stroke="#666666" points="5116,-101.5 5013,-101.5 5013,-71.5 5116,-71.5 5116,-101.5"/>
<text text-anchor="start" x="5021" y="-89.5" font-family="Helvetica,sans-Serif" font-size="10.00">src/d/event/d_event</text>
<text text-anchor="middle" x="5064.5" y="-78.5" font-family="Helvetica,sans-Serif" font-size="10.00">_lib.cpp</text>
</a>
</g>
</g>
<!-- Node2&#45;&gt;Node90 -->
<g id="edge56" class="edge">
<title>Node2&#45;&gt;Node90</title>
<path fill="none" stroke="#63b8ff" d="M2362.17,-142.98C2699.47,-110.47 4716.92,-153.69 5003.5,-107 5010.63,-105.84 5018.08,-104.01 5025.21,-101.93"/>
<polygon fill="#63b8ff" stroke="#63b8ff" points="2361.97,-139.48 2352.39,-144.01 2362.7,-146.44 2361.97,-139.48"/>
</g>
<!-- Node15&#45;&gt;Node12 -->
<g id="edge5" class="edge">
<title>Node15&#45;&gt;Node12</title>
<path fill="none" stroke="#63b8ff" d="M231.09,-71.02C254.66,-57.13 289.51,-36.61 309.3,-24.95"/>
<polygon fill="#63b8ff" stroke="#63b8ff" points="229.59,-67.84 222.75,-75.93 233.14,-73.87 229.59,-67.84"/>
</g>
<!-- Node15&#45;&gt;Node16 -->
<g id="edge6" class="edge">
<title>Node15&#45;&gt;Node16</title>
<path fill="none" stroke="#63b8ff" d="M177.71,-71.61C148.9,-57.7 105.44,-36.72 80.96,-24.91"/>
<polygon fill="#63b8ff" stroke="#63b8ff" points="176.08,-74.7 186.61,-75.9 179.12,-68.4 176.08,-74.7"/>
</g>
<!-- Node15&#45;&gt;Node17 -->
<g id="edge7" class="edge">
<title>Node15&#45;&gt;Node17</title>
<path fill="none" stroke="#63b8ff" d="M203.9,-65.39C202.44,-54.15 200.66,-40.41 199.35,-30.27"/>
<polygon fill="#63b8ff" stroke="#63b8ff" points="200.41,-65.73 205.17,-75.2 207.35,-64.83 200.41,-65.73"/>
</g>
<!-- Node40&#45;&gt;Node3 -->
<g id="edge15" class="edge">
<title>Node40&#45;&gt;Node3</title>
<path fill="none" stroke="#63b8ff" d="M657.66,-64.69C637.97,-51.41 613.45,-34.86 598.66,-24.88"/>
<polygon fill="#63b8ff" stroke="#63b8ff" points="655.66,-67.56 665.9,-70.25 659.57,-61.76 655.66,-67.56"/>
</g>
<!-- Node40&#45;&gt;Node12 -->
<g id="edge16" class="edge">
<title>Node40&#45;&gt;Node12</title>
<path fill="none" stroke="#63b8ff" d="M622.12,-73.86C561.25,-63.03 468.66,-46.18 388.5,-30 380.7,-28.42 372.37,-26.66 364.4,-24.94"/>
<polygon fill="#63b8ff" stroke="#63b8ff" points="621.16,-77.24 631.61,-75.54 622.38,-70.35 621.16,-77.24"/>
</g>
<!-- Node40&#45;&gt;Node47 -->
<g id="edge17" class="edge">
<title>Node40&#45;&gt;Node47</title>
<path fill="none" stroke="#63b8ff" d="M695.11,-59.96C698.32,-47.57 701.97,-33.49 704.25,-24.68"/>
<polygon fill="#63b8ff" stroke="#63b8ff" points="691.73,-59.08 692.61,-69.63 698.5,-60.83 691.73,-59.08"/>
</g>
<!-- Node40&#45;&gt;Node48 -->
<g id="edge18" class="edge">
<title>Node40&#45;&gt;Node48</title>
<path fill="none" stroke="#63b8ff" d="M728.62,-66.13C756.62,-52.62 792.67,-35.22 814.1,-24.88"/>
<polygon fill="#63b8ff" stroke="#63b8ff" points="727.18,-62.94 719.7,-70.44 730.23,-69.25 727.18,-62.94"/>
</g>
<!-- Node40&#45;&gt;Node49 -->
<g id="edge19" class="edge">
<title>Node40&#45;&gt;Node49</title>
<path fill="none" stroke="#63b8ff" d="M754.85,-68.67C802.8,-56.51 866.66,-40.31 910.84,-29.1"/>
<polygon fill="#63b8ff" stroke="#63b8ff" points="754.25,-65.21 745.42,-71.06 755.97,-72 754.25,-65.21"/>
</g>
<!-- Node68&#45;&gt;Node12 -->
<g id="edge26" class="edge">
<title>Node68&#45;&gt;Node12</title>
<path fill="none" stroke="#63b8ff" d="M409.11,-65.42C386.16,-52.01 357.1,-35.04 339.7,-24.88"/>
<polygon fill="#63b8ff" stroke="#63b8ff" points="407.14,-68.32 417.54,-70.34 410.67,-62.27 407.14,-68.32"/>
</g>
<!-- Node68&#45;&gt;Node69 -->
<g id="edge27" class="edge">
<title>Node68&#45;&gt;Node69</title>
<path fill="none" stroke="#63b8ff" d="M447.54,-59.96C449.5,-47.57 451.73,-33.49 453.13,-24.68"/>
<polygon fill="#63b8ff" stroke="#63b8ff" points="444.12,-59.18 446.02,-69.6 451.04,-60.27 444.12,-59.18"/>
</g>
</g>
</svg>
