<?xml version="1.0" encoding="UTF-8" standalone="no"?>
<!DOCTYPE svg PUBLIC "-//W3C//DTD SVG 1.1//EN"
 "http://www.w3.org/Graphics/SVG/1.1/DTD/svg11.dtd">
<!-- Generated by graphviz version 9.0.0 (20230911.1827)
 -->
<!-- Title: include/f_op/f_op_kankyo_mng.h Pages: 1 -->
<svg width="908pt" height="160pt"
 viewBox="0.00 0.00 908.38 160.25" xmlns="http://www.w3.org/2000/svg" xmlns:xlink="http://www.w3.org/1999/xlink">
<g id="graph0" class="graph" transform="scale(1 1) rotate(0) translate(4 156.25)">
<title>include/f_op/f_op_kankyo_mng.h</title>
<!-- Node1 -->
<g id="Node000001" class="node">
<title>Node1</title>
<g id="a_Node000001"><a xlink:title=" ">
<polygon fill="#999999" stroke="#666666" points="510,-152.25 383.75,-152.25 383.75,-121.75 510,-121.75 510,-152.25"/>
<text text-anchor="start" x="391.75" y="-138.75" font-family="Helvetica,sans-Serif" font-size="10.00">include/f_op/f_op_kankyo</text>
<text text-anchor="middle" x="446.88" y="-127.5" font-family="Helvetica,sans-Serif" font-size="10.00">_mng.h</text>
</a>
</g>
</g>
<!-- Node2 -->
<g id="Node000002" class="node">
<title>Node2</title>
<g id="a_Node000002"><a xlink:href="d__k__wmark_8h.html" target="_top" xlink:title=" ">
<polygon fill="white" stroke="#666666" points="115.75,-80.12 0,-80.12 0,-60.88 115.75,-60.88 115.75,-80.12"/>
<text text-anchor="middle" x="57.88" y="-66.62" font-family="Helvetica,sans-Serif" font-size="10.00">include/d/d_k_wmark.h</text>
</a>
</g>
</g>
<!-- Node1&#45;&gt;Node2 -->
<g id="edge1_Node000001_Node000002" class="edge">
<title>Node1&#45;&gt;Node2</title>
<g id="a_edge1_Node000001_Node000002"><a xlink:title=" ">
<path fill="none" stroke="#63b8ff" d="M372.45,-125.57C307.06,-116.12 209.43,-101.33 124.88,-85.75 116.45,-84.2 107.47,-82.39 98.91,-80.6"/>
<polygon fill="#63b8ff" stroke="#63b8ff" points="371.57,-128.98 381.97,-126.94 372.57,-122.05 371.57,-128.98"/>
</a>
</g>
</g>
<!-- Node4 -->
<g id="Node000004" class="node">
<title>Node4</title>
<g id="a_Node000004"><a xlink:href="d__k__wpillar_8h.html" target="_top" xlink:title=" ">
<polygon fill="white" stroke="#666666" points="248,-80.12 133.75,-80.12 133.75,-60.88 248,-60.88 248,-80.12"/>
<text text-anchor="middle" x="190.88" y="-66.62" font-family="Helvetica,sans-Serif" font-size="10.00">include/d/d_k_wpillar.h</text>
</a>
</g>
</g>
<!-- Node1&#45;&gt;Node4 -->
<g id="edge3_Node000001_Node000004" class="edge">
<title>Node1&#45;&gt;Node4</title>
<g id="a_edge3_Node000001_Node000004"><a xlink:title=" ">
<path fill="none" stroke="#63b8ff" d="M377.39,-118.49C328.78,-106.25 265.83,-90.39 226.92,-80.58"/>
<polygon fill="#63b8ff" stroke="#63b8ff" points="376.44,-121.86 387,-120.91 378.15,-115.08 376.44,-121.86"/>
</a>
</g>
</g>
<!-- Node6 -->
<g id="Node000006" class="node">
<title>Node6</title>
<g id="a_Node000006"><a xlink:href="d__ky__thunder_8cpp.html" target="_top" xlink:title=" ">
<polygon fill="white" stroke="#666666" points="382.12,-80.12 265.62,-80.12 265.62,-60.88 382.12,-60.88 382.12,-80.12"/>
<text text-anchor="middle" x="323.88" y="-66.62" font-family="Helvetica,sans-Serif" font-size="10.00">src/d/d_ky_thunder.cpp</text>
</a>
</g>
</g>
<!-- Node1&#45;&gt;Node6 -->
<g id="edge5_Node000001_Node000006" class="edge">
<title>Node1&#45;&gt;Node6</title>
<g id="a_edge5_Node000001_Node000006"><a xlink:title=" ">
<path fill="none" stroke="#63b8ff" d="M408.95,-116.11C386.28,-104.22 358.56,-89.69 341.06,-80.51"/>
<polygon fill="#63b8ff" stroke="#63b8ff" points="407.14,-119.12 417.62,-120.66 410.39,-112.92 407.14,-119.12"/>
</a>
</g>
</g>
<!-- Node7 -->
<g id="Node000007" class="node">
<title>Node7</title>
<g id="a_Node000007"><a xlink:href="d__stage_8cpp.html" target="_top" xlink:title=" ">
<polygon fill="white" stroke="#666666" points="493.5,-80.12 400.25,-80.12 400.25,-60.88 493.5,-60.88 493.5,-80.12"/>
<text text-anchor="middle" x="446.88" y="-66.62" font-family="Helvetica,sans-Serif" font-size="10.00">src/d/d_stage.cpp</text>
</a>
</g>
</g>
<!-- Node1&#45;&gt;Node7 -->
<g id="edge6_Node000001_Node000007" class="edge">
<title>Node1&#45;&gt;Node7</title>
<g id="a_edge6_Node000001_Node000007"><a xlink:title=" ">
<path fill="none" stroke="#63b8ff" d="M446.88,-110.09C446.88,-99.51 446.88,-88 446.88,-80.32"/>
<polygon fill="#63b8ff" stroke="#63b8ff" points="443.38,-109.85 446.88,-119.85 450.38,-109.85 443.38,-109.85"/>
</a>
</g>
</g>
<!-- Node8 -->
<g id="Node000008" class="node">
<title>Node8</title>
<g id="a_Node000008"><a xlink:href="d__particle__copoly_8cpp.html" target="_top" xlink:title=" ">
<polygon fill="white" stroke="#666666" points="628.5,-85.75 511.25,-85.75 511.25,-55.25 628.5,-55.25 628.5,-85.75"/>
<text text-anchor="start" x="519.25" y="-72.25" font-family="Helvetica,sans-Serif" font-size="10.00">src/d/particle/d_particle</text>
<text text-anchor="middle" x="569.88" y="-61" font-family="Helvetica,sans-Serif" font-size="10.00">_copoly.cpp</text>
</a>
</g>
</g>
<!-- Node1&#45;&gt;Node8 -->
<g id="edge7_Node000001_Node000008" class="edge">
<title>Node1&#45;&gt;Node8</title>
<g id="a_edge7_Node000001_Node000008"><a xlink:title=" ">
<path fill="none" stroke="#63b8ff" d="M484.93,-116.04C503.4,-106.36 525.19,-94.93 542.07,-86.08"/>
<polygon fill="#63b8ff" stroke="#63b8ff" points="483.36,-112.92 476.13,-120.66 486.61,-119.12 483.36,-112.92"/>
</a>
</g>
</g>
<!-- Node9 -->
<g id="Node000009" class="node">
<title>Node9</title>
<g id="a_Node000009"><a xlink:href="f__op__kankyo_8cpp.html" target="_top" xlink:title=" ">
<polygon fill="white" stroke="#666666" points="773.38,-80.12 646.38,-80.12 646.38,-60.88 773.38,-60.88 773.38,-80.12"/>
<text text-anchor="middle" x="709.88" y="-66.62" font-family="Helvetica,sans-Serif" font-size="10.00">src/f_op/f_op_kankyo.cpp</text>
</a>
</g>
</g>
<!-- Node1&#45;&gt;Node9 -->
<g id="edge8_Node000001_Node000009" class="edge">
<title>Node1&#45;&gt;Node9</title>
<g id="a_edge8_Node000001_Node000009"><a xlink:title=" ">
<path fill="none" stroke="#63b8ff" d="M517.95,-118.57C567.93,-106.31 632.78,-90.41 672.85,-80.58"/>
<polygon fill="#63b8ff" stroke="#63b8ff" points="517.23,-115.14 508.35,-120.92 518.9,-121.94 517.23,-115.14"/>
</a>
</g>
</g>
<!-- Node10 -->
<g id="Node000010" class="node">
<title>Node10</title>
<g id="a_Node000010"><a xlink:href="f__op__kankyo__mng_8cpp.html" target="_top" xlink:title=" ">
<polygon fill="white" stroke="#666666" points="900.38,-85.75 791.38,-85.75 791.38,-55.25 900.38,-55.25 900.38,-85.75"/>
<text text-anchor="start" x="799.38" y="-72.25" font-family="Helvetica,sans-Serif" font-size="10.00">src/f_op/f_op_kankyo</text>
<text text-anchor="middle" x="845.88" y="-61" font-family="Helvetica,sans-Serif" font-size="10.00">_mng.cpp</text>
</a>
</g>
</g>
<!-- Node1&#45;&gt;Node10 -->
<g id="edge9_Node000001_Node000010" class="edge">
<title>Node1&#45;&gt;Node10</title>
<g id="a_edge9_Node000001_Node000010"><a xlink:title=" ">
<path fill="none" stroke="#63b8ff" d="M521.34,-126.47C589.6,-117.36 693.37,-102.54 782.88,-85.75 785.52,-85.25 788.22,-84.73 790.95,-84.18"/>
<polygon fill="#63b8ff" stroke="#63b8ff" points="521.23,-122.96 511.78,-127.74 522.15,-129.9 521.23,-122.96"/>
</a>
</g>
</g>
<!-- Node3 -->
<g id="Node000003" class="node">
<title>Node3</title>
<g id="a_Node000003"><a xlink:href="d__k__wmark_8cpp.html" target="_top" xlink:title=" ">
<polygon fill="white" stroke="#666666" points="112.38,-19.25 3.38,-19.25 3.38,0 112.38,0 112.38,-19.25"/>
<text text-anchor="middle" x="57.88" y="-5.75" font-family="Helvetica,sans-Serif" font-size="10.00">src/d/d_k_wmark.cpp</text>
</a>
</g>
</g>
<!-- Node2&#45;&gt;Node3 -->
<g id="edge2_Node000002_Node000003" class="edge">
<title>Node2&#45;&gt;Node3</title>
<g id="a_edge2_Node000002_Node000003"><a xlink:title=" ">
<path fill="none" stroke="#63b8ff" d="M57.88,-49.07C57.88,-39.04 57.88,-27.46 57.88,-19.65"/>
<polygon fill="#63b8ff" stroke="#63b8ff" points="54.38,-49.04 57.88,-59.04 61.38,-49.04 54.38,-49.04"/>
</a>
</g>
</g>
<!-- Node5 -->
<g id="Node000005" class="node">
<title>Node5</title>
<g id="a_Node000005"><a xlink:href="d__k__wpillar_8cpp.html" target="_top" xlink:title=" ">
<polygon fill="white" stroke="#666666" points="244.62,-19.25 137.12,-19.25 137.12,0 244.62,0 244.62,-19.25"/>
<text text-anchor="middle" x="190.88" y="-5.75" font-family="Helvetica,sans-Serif" font-size="10.00">src/d/d_k_wpillar.cpp</text>
</a>
</g>
</g>
<!-- Node4&#45;&gt;Node5 -->
<g id="edge4_Node000004_Node000005" class="edge">
<title>Node4&#45;&gt;Node5</title>
<g id="a_edge4_Node000004_Node000005"><a xlink:title=" ">
<path fill="none" stroke="#63b8ff" d="M190.88,-49.07C190.88,-39.04 190.88,-27.46 190.88,-19.65"/>
<polygon fill="#63b8ff" stroke="#63b8ff" points="187.38,-49.04 190.88,-59.04 194.38,-49.04 187.38,-49.04"/>
</a>
</g>
</g>
</g>
</svg>
