<?xml version="1.0" encoding="UTF-8" standalone="no"?>
<!DOCTYPE svg PUBLIC "-//W3C//DTD SVG 1.1//EN"
 "http://www.w3.org/Graphics/SVG/1.1/DTD/svg11.dtd">
<!-- Generated by graphviz version 9.0.0 (20230911.1827)
 -->
<!-- Title: include/f_op/f_op_scene.h Pages: 1 -->
<svg width="739pt" height="503pt"
 viewBox="0.00 0.00 739.00 503.00" xmlns="http://www.w3.org/2000/svg" xmlns:xlink="http://www.w3.org/1999/xlink">
<g id="graph0" class="graph" transform="scale(1 1) rotate(0) translate(4 499)">
<title>include/f_op/f_op_scene.h</title>
<!-- Node1 -->
<g id="Node000001" class="node">
<title>Node1</title>
<g id="a_Node000001"><a xlink:title=" ">
<polygon fill="#999999" stroke="#666666" points="281.12,-495 151.88,-495 151.88,-475.75 281.12,-475.75 281.12,-495"/>
<text text-anchor="middle" x="216.5" y="-481.5" font-family="Helvetica,sans-Serif" font-size="10.00">include/f_op/f_op_scene.h</text>
</a>
</g>
</g>
<!-- Node2 -->
<g id="Node000002" class="node">
<title>Node2</title>
<g id="a_Node000002"><a xlink:href="f__op__scene__tag_8h.html" target="_top" xlink:title=" ">
<polygon fill="white" stroke="#666666" points="231.62,-439.75 117.38,-439.75 117.38,-420.5 231.62,-420.5 231.62,-439.75"/>
<text text-anchor="middle" x="174.5" y="-426.25" font-family="Helvetica,sans-Serif" font-size="10.00">f_op/f_op_scene_tag.h</text>
</a>
</g>
</g>
<!-- Node1&#45;&gt;Node2 -->
<g id="edge1_Node000001_Node000002" class="edge">
<title>Node1&#45;&gt;Node2</title>
<g id="a_edge1_Node000001_Node000002"><a xlink:title=" ">
<path fill="none" stroke="#63b8ff" d="M209.56,-475.58C203.88,-468.38 195.66,-457.96 188.61,-449.01"/>
<polygon fill="#63b8ff" stroke="#63b8ff" points="191.46,-446.98 182.52,-441.3 185.97,-451.32 191.46,-446.98"/>
</a>
</g>
</g>
<!-- Node3 -->
<g id="Node000003" class="node">
<title>Node3</title>
<g id="a_Node000003"><a xlink:href="f__pc__node_8h.html" target="_top" xlink:title=" ">
<polygon fill="white" stroke="#666666" points="304.62,-384.5 214.38,-384.5 214.38,-365.25 304.62,-365.25 304.62,-384.5"/>
<text text-anchor="middle" x="259.5" y="-371" font-family="Helvetica,sans-Serif" font-size="10.00">f_pc/f_pc_node.h</text>
</a>
</g>
</g>
<!-- Node1&#45;&gt;Node3 -->
<g id="edge27_Node000001_Node000003" class="edge">
<title>Node1&#45;&gt;Node3</title>
<g id="a_edge27_Node000001_Node000003"><a xlink:title=" ">
<path fill="none" stroke="#63b8ff" d="M222.03,-475.41C227.3,-466.59 235.2,-452.6 240.5,-439.75 246.45,-425.32 251.41,-408.37 254.76,-395.55"/>
<polygon fill="#63b8ff" stroke="#63b8ff" points="258.07,-396.77 257.1,-386.22 251.28,-395.07 258.07,-396.77"/>
</a>
</g>
</g>
<!-- Node2&#45;&gt;Node3 -->
<g id="edge2_Node000002_Node000003" class="edge">
<title>Node2&#45;&gt;Node3</title>
<g id="a_edge2_Node000002_Node000003"><a xlink:title=" ">
<path fill="none" stroke="#63b8ff" d="M188.92,-420.09C201.62,-412.14 220.37,-400.39 235.36,-391"/>
<polygon fill="#63b8ff" stroke="#63b8ff" points="237.11,-394.03 243.73,-385.76 233.4,-388.1 237.11,-394.03"/>
</a>
</g>
</g>
<!-- Node19 -->
<g id="Node000019" class="node">
<title>Node19</title>
<g id="a_Node000019"><a xlink:href="c__phase_8h.html" target="_top" xlink:title=" ">
<polygon fill="white" stroke="#666666" points="115,-218.75 0,-218.75 0,-188.25 115,-188.25 115,-218.75"/>
<text text-anchor="start" x="8" y="-205.25" font-family="Helvetica,sans-Serif" font-size="10.00">SSystem/SComponent</text>
<text text-anchor="middle" x="57.5" y="-194" font-family="Helvetica,sans-Serif" font-size="10.00">/c_phase.h</text>
</a>
</g>
</g>
<!-- Node2&#45;&gt;Node19 -->
<g id="edge25_Node000002_Node000019" class="edge">
<title>Node2&#45;&gt;Node19</title>
<g id="a_edge25_Node000002_Node000019"><a xlink:title=" ">
<path fill="none" stroke="#63b8ff" d="M169.77,-420.04C153.04,-387.92 96.28,-278.95 70.47,-229.4"/>
<polygon fill="#63b8ff" stroke="#63b8ff" points="73.6,-227.83 65.87,-220.57 67.39,-231.06 73.6,-227.83"/>
</a>
</g>
</g>
<!-- Node4 -->
<g id="Node000004" class="node">
<title>Node4</title>
<g id="a_Node000004"><a xlink:href="f__pc__base_8h.html" target="_top" xlink:title=" ">
<polygon fill="white" stroke="#666666" points="514.62,-329.25 424.38,-329.25 424.38,-310 514.62,-310 514.62,-329.25"/>
<text text-anchor="middle" x="469.5" y="-315.75" font-family="Helvetica,sans-Serif" font-size="10.00">f_pc/f_pc_base.h</text>
</a>
</g>
</g>
<!-- Node3&#45;&gt;Node4 -->
<g id="edge3_Node000003_Node000004" class="edge">
<title>Node3&#45;&gt;Node4</title>
<g id="a_edge3_Node000003_Node000004"><a xlink:title=" ">
<path fill="none" stroke="#63b8ff" d="M295.12,-364.84C330.27,-355.93 384.19,-342.26 422.76,-332.48"/>
<polygon fill="#63b8ff" stroke="#63b8ff" points="423.4,-335.93 432.23,-330.07 421.68,-329.14 423.4,-335.93"/>
</a>
</g>
</g>
<!-- Node14 -->
<g id="Node000014" class="node">
<title>Node14</title>
<g id="a_Node000014"><a xlink:href="f__pc__layer_8h.html" target="_top" xlink:title=" ">
<polygon fill="white" stroke="#666666" points="585.25,-146.62 495.75,-146.62 495.75,-127.38 585.25,-127.38 585.25,-146.62"/>
<text text-anchor="middle" x="540.5" y="-133.12" font-family="Helvetica,sans-Serif" font-size="10.00">f_pc/f_pc_layer.h</text>
</a>
</g>
</g>
<!-- Node3&#45;&gt;Node14 -->
<g id="edge16_Node000003_Node000014" class="edge">
<title>Node3&#45;&gt;Node14</title>
<g id="a_edge16_Node000003_Node000014"><a xlink:title=" ">
<path fill="none" stroke="#63b8ff" d="M305.11,-370.54C405.88,-362.09 642.09,-335.95 686.5,-274 708.71,-243.03 708.63,-219.28 686.5,-188.25 666.17,-159.75 628.58,-147.25 596.64,-141.84"/>
<polygon fill="#63b8ff" stroke="#63b8ff" points="597.52,-138.44 587.11,-140.43 596.49,-145.36 597.52,-138.44"/>
</a>
</g>
</g>
<!-- Node17 -->
<g id="Node000017" class="node">
<title>Node17</title>
<g id="a_Node000017"><a xlink:href="f__pc__method_8h.html" target="_top" xlink:title=" ">
<polygon fill="white" stroke="#666666" points="310.25,-329.25 208.75,-329.25 208.75,-310 310.25,-310 310.25,-329.25"/>
<text text-anchor="middle" x="259.5" y="-315.75" font-family="Helvetica,sans-Serif" font-size="10.00">f_pc/f_pc_method.h</text>
</a>
</g>
</g>
<!-- Node3&#45;&gt;Node17 -->
<g id="edge21_Node000003_Node000017" class="edge">
<title>Node3&#45;&gt;Node17</title>
<g id="a_edge21_Node000003_Node000017"><a xlink:title=" ">
<path fill="none" stroke="#63b8ff" d="M259.5,-365.08C259.5,-358.57 259.5,-349.42 259.5,-341.12"/>
<polygon fill="#63b8ff" stroke="#63b8ff" points="263,-341.12 259.5,-331.12 256,-341.12 263,-341.12"/>
</a>
</g>
</g>
<!-- Node18 -->
<g id="Node000018" class="node">
<title>Node18</title>
<g id="a_Node000018"><a xlink:href="f__pc__profile_8h.html" target="_top" xlink:title=" ">
<polygon fill="white" stroke="#666666" points="227.88,-213.12 133.12,-213.12 133.12,-193.88 227.88,-193.88 227.88,-213.12"/>
<text text-anchor="middle" x="180.5" y="-199.62" font-family="Helvetica,sans-Serif" font-size="10.00">f_pc/f_pc_profile.h</text>
</a>
</g>
</g>
<!-- Node3&#45;&gt;Node18 -->
<g id="edge23_Node000003_Node000018" class="edge">
<title>Node3&#45;&gt;Node18</title>
<g id="a_edge23_Node000003_Node000018"><a xlink:title=" ">
<path fill="none" stroke="#63b8ff" d="M240.34,-364.77C226.66,-357.22 209.06,-345.16 199.5,-329.25 179.9,-296.64 178.15,-250.87 179.05,-224.8"/>
<polygon fill="#63b8ff" stroke="#63b8ff" points="182.54,-225.11 179.58,-214.94 175.55,-224.74 182.54,-225.11"/>
</a>
</g>
</g>
<!-- Node5 -->
<g id="Node000005" class="node">
<title>Node5</title>
<g id="a_Node000005"><a xlink:href="f__pc__delete__tag_8h.html" target="_top" xlink:title=" ">
<polygon fill="white" stroke="#666666" points="397.62,-274 283.38,-274 283.38,-254.75 397.62,-254.75 397.62,-274"/>
<text text-anchor="middle" x="340.5" y="-260.5" font-family="Helvetica,sans-Serif" font-size="10.00">f_pc/f_pc_delete_tag.h</text>
</a>
</g>
</g>
<!-- Node4&#45;&gt;Node5 -->
<g id="edge4_Node000004_Node000005" class="edge">
<title>Node4&#45;&gt;Node5</title>
<g id="a_edge4_Node000004_Node000005"><a xlink:title=" ">
<path fill="none" stroke="#63b8ff" d="M447.62,-309.59C427.14,-301.14 396.29,-288.4 372.94,-278.77"/>
<polygon fill="#63b8ff" stroke="#63b8ff" points="374.47,-275.61 363.89,-275.03 371.8,-282.08 374.47,-275.61"/>
</a>
</g>
</g>
<!-- Node10 -->
<g id="Node000010" class="node">
<title>Node10</title>
<g id="a_Node000010"><a xlink:href="f__pc__layer__tag_8h.html" target="_top" xlink:title=" ">
<polygon fill="white" stroke="#666666" points="523.62,-274 415.38,-274 415.38,-254.75 523.62,-254.75 523.62,-274"/>
<text text-anchor="middle" x="469.5" y="-260.5" font-family="Helvetica,sans-Serif" font-size="10.00">f_pc/f_pc_layer_tag.h</text>
</a>
</g>
</g>
<!-- Node4&#45;&gt;Node10 -->
<g id="edge9_Node000004_Node000010" class="edge">
<title>Node4&#45;&gt;Node10</title>
<g id="a_edge9_Node000004_Node000010"><a xlink:title=" ">
<path fill="none" stroke="#63b8ff" d="M469.5,-309.83C469.5,-303.32 469.5,-294.17 469.5,-285.87"/>
<polygon fill="#63b8ff" stroke="#63b8ff" points="473,-285.87 469.5,-275.87 466,-285.87 473,-285.87"/>
</a>
</g>
</g>
<!-- Node11 -->
<g id="Node000011" class="node">
<title>Node11</title>
<g id="a_Node000011"><a xlink:href="f__pc__line__tag_8h.html" target="_top" xlink:title=" ">
<polygon fill="white" stroke="#666666" points="539,-213.12 436,-213.12 436,-193.88 539,-193.88 539,-213.12"/>
<text text-anchor="middle" x="487.5" y="-199.62" font-family="Helvetica,sans-Serif" font-size="10.00">f_pc/f_pc_line_tag.h</text>
</a>
</g>
</g>
<!-- Node4&#45;&gt;Node11 -->
<g id="edge11_Node000004_Node000011" class="edge">
<title>Node4&#45;&gt;Node11</title>
<g id="a_edge11_Node000004_Node000011"><a xlink:title=" ">
<path fill="none" stroke="#63b8ff" d="M491.59,-309.55C506.1,-302.28 523.94,-290.55 532.5,-274 542.42,-254.82 525.21,-234.23 509.29,-220.48"/>
<polygon fill="#63b8ff" stroke="#63b8ff" points="511.92,-218.1 501.94,-214.54 507.52,-223.55 511.92,-218.1"/>
</a>
</g>
</g>
<!-- Node12 -->
<g id="Node000012" class="node">
<title>Node12</title>
<g id="a_Node000012"><a xlink:href="f__pc__priority_8h.html" target="_top" xlink:title=" ">
<polygon fill="white" stroke="#666666" points="677.38,-274 579.62,-274 579.62,-254.75 677.38,-254.75 677.38,-274"/>
<text text-anchor="middle" x="628.5" y="-260.5" font-family="Helvetica,sans-Serif" font-size="10.00">f_pc/f_pc_priority.h</text>
</a>
</g>
</g>
<!-- Node4&#45;&gt;Node12 -->
<g id="edge13_Node000004_Node000012" class="edge">
<title>Node4&#45;&gt;Node12</title>
<g id="a_edge13_Node000004_Node000012"><a xlink:title=" ">
<path fill="none" stroke="#63b8ff" d="M496.47,-309.59C522.4,-300.91 561.81,-287.71 590.83,-277.99"/>
<polygon fill="#63b8ff" stroke="#63b8ff" points="591.59,-281.43 599.96,-274.93 589.37,-274.79 591.59,-281.43"/>
</a>
</g>
</g>
<!-- Node6 -->
<g id="Node000006" class="node">
<title>Node6</title>
<g id="a_Node000006"><a xlink:href="c__tag_8h.html" target="_top" xlink:title=" ">
<polygon fill="white" stroke="#666666" points="465,-152.25 350,-152.25 350,-121.75 465,-121.75 465,-152.25"/>
<text text-anchor="start" x="358" y="-138.75" font-family="Helvetica,sans-Serif" font-size="10.00">SSystem/SComponent</text>
<text text-anchor="middle" x="407.5" y="-127.5" font-family="Helvetica,sans-Serif" font-size="10.00">/c_tag.h</text>
</a>
</g>
</g>
<!-- Node5&#45;&gt;Node6 -->
<g id="edge5_Node000005_Node000006" class="edge">
<title>Node5&#45;&gt;Node6</title>
<g id="a_edge5_Node000005_Node000006"><a xlink:title=" ">
<path fill="none" stroke="#63b8ff" d="M345.32,-254.36C355.48,-235.34 379.41,-190.56 394.45,-162.43"/>
<polygon fill="#63b8ff" stroke="#63b8ff" points="397.39,-164.35 399.01,-153.88 391.21,-161.05 397.39,-164.35"/>
</a>
</g>
</g>
<!-- Node7 -->
<g id="Node000007" class="node">
<title>Node7</title>
<g id="a_Node000007"><a xlink:href="c__node_8h.html" target="_top" xlink:title=" ">
<polygon fill="white" stroke="#666666" points="465,-85.75 350,-85.75 350,-55.25 465,-55.25 465,-85.75"/>
<text text-anchor="start" x="358" y="-72.25" font-family="Helvetica,sans-Serif" font-size="10.00">SSystem/SComponent</text>
<text text-anchor="middle" x="407.5" y="-61" font-family="Helvetica,sans-Serif" font-size="10.00">/c_node.h</text>
</a>
</g>
</g>
<!-- Node6&#45;&gt;Node7 -->
<g id="edge6_Node000006_Node000007" class="edge">
<title>Node6&#45;&gt;Node7</title>
<g id="a_edge6_Node000006_Node000007"><a xlink:title=" ">
<path fill="none" stroke="#63b8ff" d="M407.5,-121.36C407.5,-114.27 407.5,-105.54 407.5,-97.38"/>
<polygon fill="#63b8ff" stroke="#63b8ff" points="411,-97.59 407.5,-87.59 404,-97.59 411,-97.59"/>
</a>
</g>
</g>
<!-- Node8 -->
<g id="Node000008" class="node">
<title>Node8</title>
<g id="a_Node000008"><a xlink:href="types_8h.html" target="_top" xlink:title=" ">
<polygon fill="white" stroke="#666666" points="295.75,-80.12 215.25,-80.12 215.25,-60.88 295.75,-60.88 295.75,-80.12"/>
<text text-anchor="middle" x="255.5" y="-66.62" font-family="Helvetica,sans-Serif" font-size="10.00">dolphin/types.h</text>
</a>
</g>
</g>
<!-- Node6&#45;&gt;Node8 -->
<g id="edge7_Node000006_Node000008" class="edge">
<title>Node6&#45;&gt;Node8</title>
<g id="a_edge7_Node000006_Node000008"><a xlink:title=" ">
<path fill="none" stroke="#63b8ff" d="M373.01,-121.36C347.22,-110.42 312.23,-95.57 287.15,-84.93"/>
<polygon fill="#63b8ff" stroke="#63b8ff" points="288.7,-81.79 278.13,-81.1 285.96,-88.23 288.7,-81.79"/>
</a>
</g>
</g>
<!-- Node9 -->
<g id="Node000009" class="node">
<title>Node9</title>
<g id="a_Node000009"><a xlink:href="stddef_8h.html" target="_top" xlink:title=" ">
<polygon fill="white" stroke="#666666" points="280.75,-19.25 230.25,-19.25 230.25,0 280.75,0 280.75,-19.25"/>
<text text-anchor="middle" x="255.5" y="-5.75" font-family="Helvetica,sans-Serif" font-size="10.00">stddef.h</text>
</a>
</g>
</g>
<!-- Node8&#45;&gt;Node9 -->
<g id="edge8_Node000008_Node000009" class="edge">
<title>Node8&#45;&gt;Node9</title>
<g id="a_edge8_Node000008_Node000009"><a xlink:title=" ">
<path fill="none" stroke="#63b8ff" d="M255.5,-60.56C255.5,-52.78 255.5,-41.2 255.5,-31.16"/>
<polygon fill="#63b8ff" stroke="#63b8ff" points="259,-31.16 255.5,-21.16 252,-31.16 259,-31.16"/>
</a>
</g>
</g>
<!-- Node10&#45;&gt;Node6 -->
<g id="edge10_Node000010_Node000006" class="edge">
<title>Node10&#45;&gt;Node6</title>
<g id="a_edge10_Node000010_Node000006"><a xlink:title=" ">
<path fill="none" stroke="#63b8ff" d="M457.85,-254.37C448.02,-246.15 434.33,-233.11 426.5,-218.75 417.18,-201.65 412.41,-180.1 409.98,-163.56"/>
<polygon fill="#63b8ff" stroke="#63b8ff" points="413.5,-163.52 408.78,-154.04 406.55,-164.39 413.5,-163.52"/>
</a>
</g>
</g>
<!-- Node11&#45;&gt;Node6 -->
<g id="edge12_Node000011_Node000006" class="edge">
<title>Node11&#45;&gt;Node6</title>
<g id="a_edge12_Node000011_Node000006"><a xlink:title=" ">
<path fill="none" stroke="#63b8ff" d="M476.38,-193.53C465.6,-184.84 448.83,-171.33 434.54,-159.8"/>
<polygon fill="#63b8ff" stroke="#63b8ff" points="436.76,-157.09 426.78,-153.54 432.36,-162.54 436.76,-157.09"/>
</a>
</g>
</g>
<!-- Node13 -->
<g id="Node000013" class="node">
<title>Node13</title>
<g id="a_Node000013"><a xlink:href="f__pc__method__tag_8h.html" target="_top" xlink:title=" ">
<polygon fill="white" stroke="#666666" points="677.62,-213.12 557.38,-213.12 557.38,-193.88 677.62,-193.88 677.62,-213.12"/>
<text text-anchor="middle" x="617.5" y="-199.62" font-family="Helvetica,sans-Serif" font-size="10.00">f_pc/f_pc_method_tag.h</text>
</a>
</g>
</g>
<!-- Node12&#45;&gt;Node13 -->
<g id="edge14_Node000012_Node000013" class="edge">
<title>Node12&#45;&gt;Node13</title>
<g id="a_edge14_Node000012_Node000013"><a xlink:title=" ">
<path fill="none" stroke="#63b8ff" d="M626.83,-254.43C625.36,-246.57 623.17,-234.82 621.27,-224.7"/>
<polygon fill="#63b8ff" stroke="#63b8ff" points="624.74,-224.2 619.46,-215.01 617.86,-225.49 624.74,-224.2"/>
</a>
</g>
</g>
<!-- Node13&#45;&gt;Node6 -->
<g id="edge15_Node000013_Node000006" class="edge">
<title>Node13&#45;&gt;Node6</title>
<g id="a_edge15_Node000013_Node000006"><a xlink:title=" ">
<path fill="none" stroke="#63b8ff" d="M587.86,-193.4C556.34,-183.71 505.67,-168.15 466.05,-155.98"/>
<polygon fill="#63b8ff" stroke="#63b8ff" points="467.23,-152.68 456.64,-153.09 465.17,-159.38 467.23,-152.68"/>
</a>
</g>
</g>
<!-- Node14&#45;&gt;Node7 -->
<g id="edge18_Node000014_Node000007" class="edge">
<title>Node14&#45;&gt;Node7</title>
<g id="a_edge18_Node000014_Node000007"><a xlink:title=" ">
<path fill="none" stroke="#63b8ff" d="M521.73,-126.9C502.62,-117.63 472.39,-102.97 447.84,-91.06"/>
<polygon fill="#63b8ff" stroke="#63b8ff" points="449.59,-88.02 439.07,-86.81 446.54,-94.32 449.59,-88.02"/>
</a>
</g>
</g>
<!-- Node14&#45;&gt;Node8 -->
<g id="edge20_Node000014_Node000008" class="edge">
<title>Node14&#45;&gt;Node8</title>
<g id="a_edge20_Node000014_Node000008"><a xlink:title=" ">
<path fill="none" stroke="#63b8ff" d="M500.27,-126.9C449.45,-115.4 361.97,-95.59 306.51,-83.04"/>
<polygon fill="#63b8ff" stroke="#63b8ff" points="307.53,-79.69 297,-80.89 305.98,-86.51 307.53,-79.69"/>
</a>
</g>
</g>
<!-- Node15 -->
<g id="Node000015" class="node">
<title>Node15</title>
<g id="a_Node000015"><a xlink:href="c__list_8h.html" target="_top" xlink:title=" ">
<polygon fill="white" stroke="#666666" points="731,-85.75 616,-85.75 616,-55.25 731,-55.25 731,-85.75"/>
<text text-anchor="start" x="624" y="-72.25" font-family="Helvetica,sans-Serif" font-size="10.00">SSystem/SComponent</text>
<text text-anchor="middle" x="673.5" y="-61" font-family="Helvetica,sans-Serif" font-size="10.00">/c_list.h</text>
</a>
</g>
</g>
<!-- Node14&#45;&gt;Node15 -->
<g id="edge17_Node000014_Node000015" class="edge">
<title>Node14&#45;&gt;Node15</title>
<g id="a_edge17_Node000014_Node000015"><a xlink:title=" ">
<path fill="none" stroke="#63b8ff" d="M559.27,-126.9C578.38,-117.63 608.61,-102.97 633.16,-91.06"/>
<polygon fill="#63b8ff" stroke="#63b8ff" points="634.46,-94.32 641.93,-86.81 631.41,-88.02 634.46,-94.32"/>
</a>
</g>
</g>
<!-- Node16 -->
<g id="Node000016" class="node">
<title>Node16</title>
<g id="a_Node000016"><a xlink:href="c__tree_8h.html" target="_top" xlink:title=" ">
<polygon fill="white" stroke="#666666" points="598,-85.75 483,-85.75 483,-55.25 598,-55.25 598,-85.75"/>
<text text-anchor="start" x="491" y="-72.25" font-family="Helvetica,sans-Serif" font-size="10.00">SSystem/SComponent</text>
<text text-anchor="middle" x="540.5" y="-61" font-family="Helvetica,sans-Serif" font-size="10.00">/c_tree.h</text>
</a>
</g>
</g>
<!-- Node14&#45;&gt;Node16 -->
<g id="edge19_Node000014_Node000016" class="edge">
<title>Node14&#45;&gt;Node16</title>
<g id="a_edge19_Node000014_Node000016"><a xlink:title=" ">
<path fill="none" stroke="#63b8ff" d="M540.5,-127.03C540.5,-119.29 540.5,-107.7 540.5,-97.12"/>
<polygon fill="#63b8ff" stroke="#63b8ff" points="544,-97.36 540.5,-87.36 537,-97.36 544,-97.36"/>
</a>
</g>
</g>
<!-- Node17&#45;&gt;Node8 -->
<g id="edge22_Node000017_Node000008" class="edge">
<title>Node17&#45;&gt;Node8</title>
<g id="a_edge22_Node000017_Node000008"><a xlink:title=" ">
<path fill="none" stroke="#63b8ff" d="M259.35,-309.54C258.77,-273.81 256.65,-142.49 255.83,-91.72"/>
<polygon fill="#63b8ff" stroke="#63b8ff" points="259.33,-91.87 255.67,-81.92 252.33,-91.98 259.33,-91.87"/>
</a>
</g>
</g>
<!-- Node18&#45;&gt;Node8 -->
<g id="edge24_Node000018_Node000008" class="edge">
<title>Node18&#45;&gt;Node8</title>
<g id="a_edge24_Node000018_Node000008"><a xlink:title=" ">
<path fill="none" stroke="#63b8ff" d="M185.66,-193.5C197.8,-172.28 228.44,-118.77 244.8,-90.18"/>
<polygon fill="#63b8ff" stroke="#63b8ff" points="247.63,-92.3 249.56,-81.88 241.55,-88.82 247.63,-92.3"/>
</a>
</g>
</g>
<!-- Node19&#45;&gt;Node8 -->
<g id="edge26_Node000019_Node000008" class="edge">
<title>Node19&#45;&gt;Node8</title>
<g id="a_edge26_Node000019_Node000008"><a xlink:title=" ">
<path fill="none" stroke="#63b8ff" d="M79.45,-187.98C117.16,-163.03 193.9,-112.25 232.4,-86.79"/>
<polygon fill="#63b8ff" stroke="#63b8ff" points="234.07,-89.87 240.48,-81.44 230.21,-84.04 234.07,-89.87"/>
</a>
</g>
</g>
</g>
</svg>
