<?xml version="1.0" encoding="UTF-8" standalone="no"?>
<!DOCTYPE svg PUBLIC "-//W3C//DTD SVG 1.1//EN"
 "http://www.w3.org/Graphics/SVG/1.1/DTD/svg11.dtd">
<!-- Generated by graphviz version 9.0.0 (20230911.1827)
 -->
<!-- Title: src/f_pc/f_pc_priority.cpp Pages: 1 -->
<!--zoomable 381 -->

<svg id="main" version="1.1" xmlns="http://www.w3.org/2000/svg" xmlns:xlink="http://www.w3.org/1999/xlink" xml:space="preserve" onload="init(evt)">
<style type="text/css"><![CDATA[
.node, .edge {opacity: 0.7;}
.node.selected, .edge.selected {opacity: 1;}
.edge:hover path { stroke: red; }
.edge:hover polygon { stroke: red; fill: red; }
]]></style>

<defs>
  <circle id="rim" cx="0" cy="0" r="7"/>
  <circle id="rim2" cx="0" cy="0" r="3.5"/>
  <g id="zoomPlus">
    <use xlink:href="#rim" fill="#404040"><set attributeName="fill" to="#808080" begin="zoomplus.mouseover" end="zoomplus.mouseout"/></use>
    <path d="M-4,0h8M0,-4v8" fill="none" stroke="white" stroke-width="1.5" pointer-events="none"/>
  </g>
  <g id="zoomMin">
    <use xlink:href="#rim" fill="#404040"><set attributeName="fill" to="#808080" begin="zoomminus.mouseover" end="zoomminus.mouseout"/></use>
    <path d="M-4,0h8" fill="none" stroke="white" stroke-width="1.5" pointer-events="none"/>
  </g>
  <g id="arrowUp" transform="translate(30 24)">
    <use xlink:href="#rim"/>
    <path pointer-events="none" fill="none" stroke="white" stroke-width="1.5" d="M0,-3.0v7 M-2.5,-0.5L0,-3.0L2.5,-0.5"/>
  </g>
  <g id="arrowRight" transform="rotate(90) translate(36 -43)">
    <use xlink:href="#rim"/>
    <path pointer-events="none" fill="none" stroke="white" stroke-width="1.5" d="M0,-3.0v7 M-2.5,-0.5L0,-3.0L2.5,-0.5"/>
  </g>
  <g id="arrowDown" transform="rotate(180) translate(-30 -48)">
    <use xlink:href="#rim"/>
    <path pointer-events="none" fill="none" stroke="white" stroke-width="1.5" d="M0,-3.0v7 M-2.5,-0.5L0,-3.0L2.5,-0.5"/>
  </g>
  <g id="arrowLeft" transform="rotate(270) translate(-36 17)">
    <use xlink:href="#rim"/>
    <path pointer-events="none" fill="none" stroke="white" stroke-width="1.5" d="M0,-3.0v7 M-2.5,-0.5L0,-3.0L2.5,-0.5"/>
  </g>
  <g id="resetDef">
    <use xlink:href="#rim2" fill="#404040"><set attributeName="fill" to="#808080" begin="reset.mouseover" end="reset.mouseout"/></use>
  </g>
</defs>
<script type="application/ecmascript">
var viewWidth = 663;
var viewHeight = 381;
var sectionId = 'dynsection-0';
</script>
<script type="application/ecmascript" xlink:href="svg.min.js"/>
<svg id="graph" class="graph">
<g id="viewport">
<title>src/f_pc/f_pc_priority.cpp</title>
<!-- Node1 -->
<g id="Node000001" class="node">
<title>Node1</title>
<g id="a_Node000001"><a xlink:title=" ">
<polygon fill="#999999" stroke="#666666" points="438.88,-373.25 314.12,-373.25 314.12,-354 438.88,-354 438.88,-373.25"/>
<text text-anchor="middle" x="376.5" y="-359.75" font-family="Helvetica,sans-Serif" font-size="10.00">src/f_pc/f_pc_priority.cpp</text>
</a>
</g>
</g>
<!-- Node2 -->
<g id="Node000002" class="node">
<title>Node2</title>
<g id="a_Node000002"><a xlink:href="f__pc__priority_8h.html" target="_top" xlink:title=" ">
<polygon fill="white" stroke="#666666" points="425.38,-262.75 327.62,-262.75 327.62,-243.5 425.38,-243.5 425.38,-262.75"/>
<text text-anchor="middle" x="376.5" y="-249.25" font-family="Helvetica,sans-Serif" font-size="10.00">f_pc/f_pc_priority.h</text>
</a>
</g>
</g>
<!-- Node1&#45;&gt;Node2 -->
<g id="edge1_Node000001_Node000002" class="edge">
<title>Node1&#45;&gt;Node2</title>
<g id="a_edge1_Node000001_Node000002"><a xlink:title=" ">
<path fill="none" stroke="#63b8ff" d="M376.5,-353.75C376.5,-336.5 376.5,-298.08 376.5,-274.31"/>
<polygon fill="#63b8ff" stroke="#63b8ff" points="380,-274.64 376.5,-264.64 373,-274.64 380,-274.64"/>
</a>
</g>
</g>
<!-- Node8 -->
<g id="Node000008" class="node">
<title>Node8</title>
<g id="a_Node000008"><a xlink:href="f__pc__base_8h.html" target="_top" xlink:title=" ">
<polygon fill="white" stroke="#666666" points="300.62,-318 210.38,-318 210.38,-298.75 300.62,-298.75 300.62,-318"/>
<text text-anchor="middle" x="255.5" y="-304.5" font-family="Helvetica,sans-Serif" font-size="10.00">f_pc/f_pc_base.h</text>
</a>
</g>
</g>
<!-- Node1&#45;&gt;Node8 -->
<g id="edge7_Node000001_Node000008" class="edge">
<title>Node1&#45;&gt;Node8</title>
<g id="a_edge7_Node000001_Node000008"><a xlink:title=" ">
<path fill="none" stroke="#63b8ff" d="M355.97,-353.59C336.94,-345.22 308.35,-332.63 286.53,-323.03"/>
<polygon fill="#63b8ff" stroke="#63b8ff" points="288.07,-319.89 277.51,-319.06 285.26,-326.29 288.07,-319.89"/>
</a>
</g>
</g>
<!-- Node12 -->
<g id="Node000012" class="node">
<title>Node12</title>
<g id="a_Node000012"><a xlink:href="f__pc__layer_8h.html" target="_top" xlink:title=" ">
<polygon fill="white" stroke="#666666" points="498.25,-146.62 408.75,-146.62 408.75,-127.38 498.25,-127.38 498.25,-146.62"/>
<text text-anchor="middle" x="453.5" y="-133.12" font-family="Helvetica,sans-Serif" font-size="10.00">f_pc/f_pc_layer.h</text>
</a>
</g>
</g>
<!-- Node1&#45;&gt;Node12 -->
<g id="edge15_Node000001_Node000012" class="edge">
<title>Node1&#45;&gt;Node12</title>
<g id="a_edge15_Node000001_Node000012"><a xlink:title=" ">
<path fill="none" stroke="#63b8ff" d="M383.36,-353.56C395.75,-336.69 421.78,-298.87 434.5,-262.75 446.96,-227.38 451.25,-183.54 452.73,-158.37"/>
<polygon fill="#63b8ff" stroke="#63b8ff" points="456.21,-158.72 453.2,-148.56 449.22,-158.38 456.21,-158.72"/>
</a>
</g>
</g>
<!-- Node3 -->
<g id="Node000003" class="node">
<title>Node3</title>
<g id="a_Node000003"><a xlink:href="f__pc__method__tag_8h.html" target="_top" xlink:title=" ">
<polygon fill="white" stroke="#666666" points="420.62,-207.5 300.38,-207.5 300.38,-188.25 420.62,-188.25 420.62,-207.5"/>
<text text-anchor="middle" x="360.5" y="-194" font-family="Helvetica,sans-Serif" font-size="10.00">f_pc/f_pc_method_tag.h</text>
</a>
</g>
</g>
<!-- Node2&#45;&gt;Node3 -->
<g id="edge2_Node000002_Node000003" class="edge">
<title>Node2&#45;&gt;Node3</title>
<g id="a_edge2_Node000002_Node000003"><a xlink:title=" ">
<path fill="none" stroke="#63b8ff" d="M373.86,-243.33C371.86,-236.67 369.02,-227.24 366.48,-218.78"/>
<polygon fill="#63b8ff" stroke="#63b8ff" points="369.86,-217.88 363.64,-209.31 363.16,-219.89 369.86,-217.88"/>
</a>
</g>
</g>
<!-- Node4 -->
<g id="Node000004" class="node">
<title>Node4</title>
<g id="a_Node000004"><a xlink:href="c__tag_8h.html" target="_top" xlink:title=" ">
<polygon fill="white" stroke="#666666" points="311,-152.25 196,-152.25 196,-121.75 311,-121.75 311,-152.25"/>
<text text-anchor="start" x="204" y="-138.75" font-family="Helvetica,sans-Serif" font-size="10.00">SSystem/SComponent</text>
<text text-anchor="middle" x="253.5" y="-127.5" font-family="Helvetica,sans-Serif" font-size="10.00">/c_tag.h</text>
</a>
</g>
</g>
<!-- Node3&#45;&gt;Node4 -->
<g id="edge3_Node000003_Node000004" class="edge">
<title>Node3&#45;&gt;Node4</title>
<g id="a_edge3_Node000003_Node000004"><a xlink:title=" ">
<path fill="none" stroke="#63b8ff" d="M344.25,-187.93C329.85,-180.01 308.29,-168.15 289.8,-157.97"/>
<polygon fill="#63b8ff" stroke="#63b8ff" points="291.69,-155.02 281.24,-153.26 288.31,-161.15 291.69,-155.02"/>
</a>
</g>
</g>
<!-- Node5 -->
<g id="Node000005" class="node">
<title>Node5</title>
<g id="a_Node000005"><a xlink:href="c__node_8h.html" target="_top" xlink:title=" ">
<polygon fill="white" stroke="#666666" points="290,-85.75 175,-85.75 175,-55.25 290,-55.25 290,-85.75"/>
<text text-anchor="start" x="183" y="-72.25" font-family="Helvetica,sans-Serif" font-size="10.00">SSystem/SComponent</text>
<text text-anchor="middle" x="232.5" y="-61" font-family="Helvetica,sans-Serif" font-size="10.00">/c_node.h</text>
</a>
</g>
</g>
<!-- Node4&#45;&gt;Node5 -->
<g id="edge4_Node000004_Node000005" class="edge">
<title>Node4&#45;&gt;Node5</title>
<g id="a_edge4_Node000004_Node000005"><a xlink:title=" ">
<path fill="none" stroke="#63b8ff" d="M248.73,-121.36C246.37,-114.11 243.45,-105.13 240.74,-96.81"/>
<polygon fill="#63b8ff" stroke="#63b8ff" points="244.14,-95.94 237.71,-87.52 237.48,-98.11 244.14,-95.94"/>
</a>
</g>
</g>
<!-- Node6 -->
<g id="Node000006" class="node">
<title>Node6</title>
<g id="a_Node000006"><a xlink:href="types_8h.html" target="_top" xlink:title=" ">
<polygon fill="white" stroke="#666666" points="388.75,-80.12 308.25,-80.12 308.25,-60.88 388.75,-60.88 388.75,-80.12"/>
<text text-anchor="middle" x="348.5" y="-66.62" font-family="Helvetica,sans-Serif" font-size="10.00">dolphin/types.h</text>
</a>
</g>
</g>
<!-- Node4&#45;&gt;Node6 -->
<g id="edge5_Node000004_Node000006" class="edge">
<title>Node4&#45;&gt;Node6</title>
<g id="a_edge5_Node000004_Node000006"><a xlink:title=" ">
<path fill="none" stroke="#63b8ff" d="M275.06,-121.36C290.24,-111.06 310.51,-97.29 325.91,-86.83"/>
<polygon fill="#63b8ff" stroke="#63b8ff" points="327.67,-89.87 333.98,-81.36 323.74,-84.08 327.67,-89.87"/>
</a>
</g>
</g>
<!-- Node7 -->
<g id="Node000007" class="node">
<title>Node7</title>
<g id="a_Node000007"><a xlink:href="stddef_8h.html" target="_top" xlink:title=" ">
<polygon fill="white" stroke="#666666" points="373.75,-19.25 323.25,-19.25 323.25,0 373.75,0 373.75,-19.25"/>
<text text-anchor="middle" x="348.5" y="-5.75" font-family="Helvetica,sans-Serif" font-size="10.00">stddef.h</text>
</a>
</g>
</g>
<!-- Node6&#45;&gt;Node7 -->
<g id="edge6_Node000006_Node000007" class="edge">
<title>Node6&#45;&gt;Node7</title>
<g id="a_edge6_Node000006_Node000007"><a xlink:title=" ">
<path fill="none" stroke="#63b8ff" d="M348.5,-60.56C348.5,-52.78 348.5,-41.2 348.5,-31.16"/>
<polygon fill="#63b8ff" stroke="#63b8ff" points="352,-31.16 348.5,-21.16 345,-31.16 352,-31.16"/>
</a>
</g>
</g>
<!-- Node8&#45;&gt;Node2 -->
<g id="edge14_Node000008_Node000002" class="edge">
<title>Node8&#45;&gt;Node2</title>
<g id="a_edge14_Node000008_Node000002"><a xlink:title=" ">
<path fill="none" stroke="#63b8ff" d="M276.03,-298.34C295.06,-289.97 323.65,-277.38 345.47,-267.78"/>
<polygon fill="#63b8ff" stroke="#63b8ff" points="346.74,-271.04 354.49,-263.81 343.93,-264.64 346.74,-271.04"/>
</a>
</g>
</g>
<!-- Node9 -->
<g id="Node000009" class="node">
<title>Node9</title>
<g id="a_Node000009"><a xlink:href="f__pc__delete__tag_8h.html" target="_top" xlink:title=" ">
<polygon fill="white" stroke="#666666" points="235.62,-207.5 121.38,-207.5 121.38,-188.25 235.62,-188.25 235.62,-207.5"/>
<text text-anchor="middle" x="178.5" y="-194" font-family="Helvetica,sans-Serif" font-size="10.00">f_pc/f_pc_delete_tag.h</text>
</a>
</g>
</g>
<!-- Node8&#45;&gt;Node9 -->
<g id="edge8_Node000008_Node000009" class="edge">
<title>Node8&#45;&gt;Node9</title>
<g id="a_edge8_Node000008_Node000009"><a xlink:title=" ">
<path fill="none" stroke="#63b8ff" d="M235.7,-298.31C221.5,-290.78 203.09,-278.73 192.5,-262.75 183.95,-249.84 180.53,-232.55 179.21,-219.22"/>
<polygon fill="#63b8ff" stroke="#63b8ff" points="182.72,-219.18 178.58,-209.43 175.73,-219.63 182.72,-219.18"/>
</a>
</g>
</g>
<!-- Node10 -->
<g id="Node000010" class="node">
<title>Node10</title>
<g id="a_Node000010"><a xlink:href="f__pc__layer__tag_8h.html" target="_top" xlink:title=" ">
<polygon fill="white" stroke="#666666" points="309.62,-262.75 201.38,-262.75 201.38,-243.5 309.62,-243.5 309.62,-262.75"/>
<text text-anchor="middle" x="255.5" y="-249.25" font-family="Helvetica,sans-Serif" font-size="10.00">f_pc/f_pc_layer_tag.h</text>
</a>
</g>
</g>
<!-- Node8&#45;&gt;Node10 -->
<g id="edge10_Node000008_Node000010" class="edge">
<title>Node8&#45;&gt;Node10</title>
<g id="a_edge10_Node000008_Node000010"><a xlink:title=" ">
<path fill="none" stroke="#63b8ff" d="M255.5,-298.58C255.5,-292.07 255.5,-282.92 255.5,-274.62"/>
<polygon fill="#63b8ff" stroke="#63b8ff" points="259,-274.62 255.5,-264.62 252,-274.62 259,-274.62"/>
</a>
</g>
</g>
<!-- Node11 -->
<g id="Node000011" class="node">
<title>Node11</title>
<g id="a_Node000011"><a xlink:href="f__pc__line__tag_8h.html" target="_top" xlink:title=" ">
<polygon fill="white" stroke="#666666" points="103,-207.5 0,-207.5 0,-188.25 103,-188.25 103,-207.5"/>
<text text-anchor="middle" x="51.5" y="-194" font-family="Helvetica,sans-Serif" font-size="10.00">f_pc/f_pc_line_tag.h</text>
</a>
</g>
</g>
<!-- Node8&#45;&gt;Node11 -->
<g id="edge12_Node000008_Node000011" class="edge">
<title>Node8&#45;&gt;Node11</title>
<g id="a_edge12_Node000008_Node000011"><a xlink:title=" ">
<path fill="none" stroke="#63b8ff" d="M238.46,-298.31C203.06,-279.48 121.31,-236.01 78.6,-213.29"/>
<polygon fill="#63b8ff" stroke="#63b8ff" points="80.45,-210.31 69.97,-208.7 77.16,-216.49 80.45,-210.31"/>
</a>
</g>
</g>
<!-- Node9&#45;&gt;Node4 -->
<g id="edge9_Node000009_Node000004" class="edge">
<title>Node9&#45;&gt;Node4</title>
<g id="a_edge9_Node000009_Node000004"><a xlink:title=" ">
<path fill="none" stroke="#63b8ff" d="M189.89,-187.93C199.52,-180.37 213.71,-169.24 226.24,-159.4"/>
<polygon fill="#63b8ff" stroke="#63b8ff" points="228.09,-162.39 233.8,-153.47 223.77,-156.89 228.09,-162.39"/>
</a>
</g>
</g>
<!-- Node10&#45;&gt;Node4 -->
<g id="edge11_Node000010_Node000004" class="edge">
<title>Node10&#45;&gt;Node4</title>
<g id="a_edge11_Node000010_Node000004"><a xlink:title=" ">
<path fill="none" stroke="#63b8ff" d="M255.34,-243.17C255.05,-226.28 254.4,-189.15 253.95,-163.85"/>
<polygon fill="#63b8ff" stroke="#63b8ff" points="257.46,-163.97 253.78,-154.03 250.46,-164.09 257.46,-163.97"/>
</a>
</g>
</g>
<!-- Node11&#45;&gt;Node4 -->
<g id="edge13_Node000011_Node000004" class="edge">
<title>Node11&#45;&gt;Node4</title>
<g id="a_edge13_Node000011_Node000004"><a xlink:title=" ">
<path fill="none" stroke="#63b8ff" d="M82.62,-187.8C111.71,-179.33 155.96,-166.43 192.14,-155.88"/>
<polygon fill="#63b8ff" stroke="#63b8ff" points="193.01,-159.28 201.63,-153.12 191.05,-152.56 193.01,-159.28"/>
</a>
</g>
</g>
<!-- Node12&#45;&gt;Node5 -->
<g id="edge17_Node000012_Node000005" class="edge">
<title>Node12&#45;&gt;Node5</title>
<g id="a_edge17_Node000012_Node000005"><a xlink:title=" ">
<path fill="none" stroke="#63b8ff" d="M422.3,-126.9C388.99,-117.17 335.36,-101.52 293.58,-89.33"/>
<polygon fill="#63b8ff" stroke="#63b8ff" points="294.73,-86.01 284.15,-86.57 292.76,-92.73 294.73,-86.01"/>
</a>
</g>
</g>
<!-- Node12&#45;&gt;Node6 -->
<g id="edge19_Node000012_Node000006" class="edge">
<title>Node12&#45;&gt;Node6</title>
<g id="a_edge19_Node000012_Node000006"><a xlink:title=" ">
<path fill="none" stroke="#63b8ff" d="M438.9,-127.03C421.84,-116.55 393.33,-99.04 372.89,-86.48"/>
<polygon fill="#63b8ff" stroke="#63b8ff" points="374.96,-83.64 364.6,-81.39 371.29,-89.61 374.96,-83.64"/>
</a>
</g>
</g>
<!-- Node13 -->
<g id="Node000013" class="node">
<title>Node13</title>
<g id="a_Node000013"><a xlink:href="c__list_8h.html" target="_top" xlink:title=" ">
<polygon fill="white" stroke="#666666" points="522,-85.75 407,-85.75 407,-55.25 522,-55.25 522,-85.75"/>
<text text-anchor="start" x="415" y="-72.25" font-family="Helvetica,sans-Serif" font-size="10.00">SSystem/SComponent</text>
<text text-anchor="middle" x="464.5" y="-61" font-family="Helvetica,sans-Serif" font-size="10.00">/c_list.h</text>
</a>
</g>
</g>
<!-- Node12&#45;&gt;Node13 -->
<g id="edge16_Node000012_Node000013" class="edge">
<title>Node12&#45;&gt;Node13</title>
<g id="a_edge16_Node000012_Node000013"><a xlink:title=" ">
<path fill="none" stroke="#63b8ff" d="M455.03,-127.03C456.35,-119.29 458.33,-107.7 460.13,-97.12"/>
<polygon fill="#63b8ff" stroke="#63b8ff" points="463.57,-97.78 461.8,-87.34 456.67,-96.61 463.57,-97.78"/>
</a>
</g>
</g>
<!-- Node14 -->
<g id="Node000014" class="node">
<title>Node14</title>
<g id="a_Node000014"><a xlink:href="c__tree_8h.html" target="_top" xlink:title=" ">
<polygon fill="white" stroke="#666666" points="655,-85.75 540,-85.75 540,-55.25 655,-55.25 655,-85.75"/>
<text text-anchor="start" x="548" y="-72.25" font-family="Helvetica,sans-Serif" font-size="10.00">SSystem/SComponent</text>
<text text-anchor="middle" x="597.5" y="-61" font-family="Helvetica,sans-Serif" font-size="10.00">/c_tree.h</text>
</a>
</g>
</g>
<!-- Node12&#45;&gt;Node14 -->
<g id="edge18_Node000012_Node000014" class="edge">
<title>Node12&#45;&gt;Node14</title>
<g id="a_edge18_Node000012_Node000014"><a xlink:title=" ">
<path fill="none" stroke="#63b8ff" d="M473.83,-126.9C494.7,-117.55 527.82,-102.71 554.54,-90.74"/>
<polygon fill="#63b8ff" stroke="#63b8ff" points="555.72,-94.05 563.41,-86.77 552.86,-87.66 555.72,-94.05"/>
</a>
</g>
</g>
</g>
</svg>

<g id="navigator" transform="translate(0 0)" fill="#404254">
  <rect fill="#f2f5e9" fill-opacity="0.5" stroke="#606060" stroke-width=".5" x="0" y="0" width="60" height="60"/>
  <use id="zoomplus" xlink:href="#zoomPlus" x="17" y="9" onmousedown="handleZoom(evt,'in')"/>
  <use id="zoomminus" xlink:href="#zoomMin" x="42" y="9" onmousedown="handleZoom(evt,'out')"/>
  <use id="reset" xlink:href="#resetDef" x="30" y="36" onmousedown="handleReset()"/>
   <use id="arrowup" xlink:href="#arrowUp" x="0" y="0" onmousedown="handlePan(0,-1)"/>
  <use id="arrowright" xlink:href="#arrowRight" x="0" y="0" onmousedown="handlePan(1,0)"/>
  <use id="arrowdown" xlink:href="#arrowDown" x="0" y="0" onmousedown="handlePan(0,1)"/>
  <use id="arrowleft" xlink:href="#arrowLeft" x="0" y="0" onmousedown="handlePan(-1,0)"/>
</g>
<svg viewBox="0 0 15 15" width="100%" height="30px" preserveAspectRatio="xMaxYMin meet">
 <g id="arrow_out" transform="scale(0.3 0.3)">
  <a xlink:href="f__pc__priority_8cpp__incl_org.svg" target="_base">
   <rect id="button" ry="5" rx="5" y="6" x="6" height="38" width="38"
        fill="#f2f5e9" fill-opacity="0.5" stroke="#606060" stroke-width="1.0"/>
   <path id="arrow"
     d="M 11.500037,31.436501 C 11.940474,20.09759 22.043105,11.32322 32.158766,21.979434 L 37.068811,17.246167 C 37.068811,17.246167 37.088388,32 37.088388,32 L 22.160133,31.978069 C 22.160133,31.978069 26.997745,27.140456 26.997745,27.140456 C 18.528582,18.264221 13.291696,25.230495 11.500037,31.436501 z"
     style="fill:#404040;"/>
  </a>
 </g>
</svg>

<style type='text/css'>
<![CDATA[
[data-mouse-over-selected='false'] { opacity: 0.7; }
[data-mouse-over-selected='true']  { opacity: 1.0; }
]]>
</style>
<script type="application/ecmascript"><![CDATA[
document.addEventListener('DOMContentLoaded', (event) => {
  highlightEdges();
  highlightAdjacentNodes();
});
]]></script>
</svg>
