<?xml version="1.0" encoding="UTF-8" standalone="no"?>
<!DOCTYPE svg PUBLIC "-//W3C//DTD SVG 1.1//EN"
 "http://www.w3.org/Graphics/SVG/1.1/DTD/svg11.dtd">
<!-- Generated by graphviz version 7.0.5 (20221223.1930)
 -->
<!-- Title: src/f_pc/f_pc_line.cpp Pages: 1 -->
<svg width="947pt" height="500pt"
 viewBox="0.00 0.00 947.00 500.00" xmlns="http://www.w3.org/2000/svg" xmlns:xlink="http://www.w3.org/1999/xlink">
<g id="graph0" class="graph" transform="scale(1 1) rotate(0) translate(4 496)">
<title>src/f_pc/f_pc_line.cpp</title>
<!-- Node1 -->
<g id="node1" class="node">
<title>Node1</title>
<g id="a_node1"><a xlink:title=" ">
<polygon fill="#999999" stroke="#666666" points="901,-492 789,-492 789,-473 901,-473 901,-492"/>
<text text-anchor="middle" x="845" y="-480" font-family="Helvetica,sans-Serif" font-size="10.00">src/f_pc/f_pc_line.cpp</text>
</a>
</g>
</g>
<!-- Node2 -->
<g id="node2" class="node">
<title>Node2</title>
<g id="a_node2"><a xlink:href="f__pc__line_8h.html" target="_top" xlink:title=" ">
<polygon fill="white" stroke="#666666" points="887.5,-327 802.5,-327 802.5,-308 887.5,-308 887.5,-327"/>
<text text-anchor="middle" x="845" y="-315" font-family="Helvetica,sans-Serif" font-size="10.00">f_pc/f_pc_line.h</text>
</a>
</g>
</g>
<!-- Node1&#45;&gt;Node2 -->
<g id="edge1" class="edge">
<title>Node1&#45;&gt;Node2</title>
<path fill="none" stroke="#63b8ff" d="M845,-472.74C845,-447.53 845,-374.36 845,-338.62"/>
<polygon fill="#63b8ff" stroke="#63b8ff" points="848.5,-338.82 845,-328.82 841.5,-338.82 848.5,-338.82"/>
</g>
<!-- Node6 -->
<g id="node6" class="node">
<title>Node6</title>
<g id="a_node6"><a xlink:href="f__pc__node_8h.html" target="_top" xlink:title=" ">
<polygon fill="white" stroke="#666666" points="429.5,-437 338.5,-437 338.5,-418 429.5,-418 429.5,-437"/>
<text text-anchor="middle" x="384" y="-425" font-family="Helvetica,sans-Serif" font-size="10.00">f_pc/f_pc_node.h</text>
</a>
</g>
</g>
<!-- Node1&#45;&gt;Node6 -->
<g id="edge5" class="edge">
<title>Node1&#45;&gt;Node6</title>
<path fill="none" stroke="#63b8ff" d="M788.93,-475.05C700.66,-464.91 530.19,-445.31 441.21,-435.08"/>
<polygon fill="#63b8ff" stroke="#63b8ff" points="441.83,-431.63 431.5,-433.96 441.03,-438.58 441.83,-431.63"/>
</g>
<!-- Node19 -->
<g id="node19" class="node">
<title>Node19</title>
<g id="a_node19"><a xlink:href="global_8h.html" target="_top" xlink:title=" ">
<polygon fill="white" stroke="#666666" points="939,-437 889,-437 889,-418 939,-418 939,-437"/>
<text text-anchor="middle" x="914" y="-425" font-family="Helvetica,sans-Serif" font-size="10.00">global.h</text>
</a>
</g>
</g>
<!-- Node1&#45;&gt;Node19 -->
<g id="edge35" class="edge">
<title>Node1&#45;&gt;Node19</title>
<path fill="none" stroke="#63b8ff" d="M856.7,-472.51C866.78,-464.77 881.54,-453.43 893.56,-444.2"/>
<polygon fill="#63b8ff" stroke="#63b8ff" points="895.47,-447.15 901.27,-438.28 891.21,-441.6 895.47,-447.15"/>
</g>
<!-- Node3 -->
<g id="node3" class="node">
<title>Node3</title>
<g id="a_node3"><a xlink:href="c__tree_8h.html" target="_top" xlink:title=" ">
<polygon fill="white" stroke="#666666" points="903,-151 787,-151 787,-121 903,-121 903,-151"/>
<text text-anchor="start" x="795" y="-139" font-family="Helvetica,sans-Serif" font-size="10.00">SSystem/SComponent</text>
<text text-anchor="middle" x="845" y="-128" font-family="Helvetica,sans-Serif" font-size="10.00">/c_tree.h</text>
</a>
</g>
</g>
<!-- Node2&#45;&gt;Node3 -->
<g id="edge2" class="edge">
<title>Node2&#45;&gt;Node3</title>
<path fill="none" stroke="#63b8ff" d="M845,-307.84C845,-281.88 845,-203.97 845,-162.94"/>
<polygon fill="#63b8ff" stroke="#63b8ff" points="848.5,-163 845,-153 841.5,-163 848.5,-163"/>
</g>
<!-- Node4 -->
<g id="node4" class="node">
<title>Node4</title>
<g id="a_node4"><a xlink:href="types_8h.html" target="_top" xlink:title=" ">
<polygon fill="white" stroke="#666666" points="455.5,-85 374.5,-85 374.5,-66 455.5,-66 455.5,-85"/>
<text text-anchor="middle" x="415" y="-73" font-family="Helvetica,sans-Serif" font-size="10.00">dolphin/types.h</text>
</a>
</g>
</g>
<!-- Node3&#45;&gt;Node4 -->
<g id="edge3" class="edge">
<title>Node3&#45;&gt;Node4</title>
<path fill="none" stroke="#63b8ff" d="M786.51,-123.28C781.95,-122.47 777.4,-121.7 773,-121 664.61,-103.75 536.85,-89.26 467.04,-81.84"/>
<polygon fill="#63b8ff" stroke="#63b8ff" points="467.75,-78.4 457.44,-80.83 467.01,-85.36 467.75,-78.4"/>
</g>
<!-- Node5 -->
<g id="node5" class="node">
<title>Node5</title>
<g id="a_node5"><a xlink:href="stddef_8h.html" target="_top" xlink:title=" ">
<polygon fill="white" stroke="#666666" points="483,-30 347,-30 347,0 483,0 483,-30"/>
<text text-anchor="start" x="355" y="-18" font-family="Helvetica,sans-Serif" font-size="10.00">MSL_C/MSL_Common/Src</text>
<text text-anchor="middle" x="415" y="-7" font-family="Helvetica,sans-Serif" font-size="10.00">/stddef.h</text>
</a>
</g>
</g>
<!-- Node4&#45;&gt;Node5 -->
<g id="edge4" class="edge">
<title>Node4&#45;&gt;Node5</title>
<path fill="none" stroke="#63b8ff" d="M415,-65.87C415,-59.4 415,-50.2 415,-41.45"/>
<polygon fill="#63b8ff" stroke="#63b8ff" points="418.5,-41.63 415,-31.63 411.5,-41.63 418.5,-41.63"/>
</g>
<!-- Node7 -->
<g id="node7" class="node">
<title>Node7</title>
<g id="a_node7"><a xlink:href="f__pc__base_8h.html" target="_top" xlink:title=" ">
<polygon fill="white" stroke="#666666" points="429.5,-382 338.5,-382 338.5,-363 429.5,-363 429.5,-382"/>
<text text-anchor="middle" x="384" y="-370" font-family="Helvetica,sans-Serif" font-size="10.00">f_pc/f_pc_base.h</text>
</a>
</g>
</g>
<!-- Node6&#45;&gt;Node7 -->
<g id="edge6" class="edge">
<title>Node6&#45;&gt;Node7</title>
<path fill="none" stroke="#63b8ff" d="M384,-417.75C384,-411.27 384,-402.16 384,-393.9"/>
<polygon fill="#63b8ff" stroke="#63b8ff" points="387.5,-393.96 384,-383.96 380.5,-393.96 387.5,-393.96"/>
</g>
<!-- Node15 -->
<g id="node15" class="node">
<title>Node15</title>
<g id="a_node15"><a xlink:href="f__pc__layer_8h.html" target="_top" xlink:title=" ">
<polygon fill="white" stroke="#666666" points="804,-211.5 714,-211.5 714,-192.5 804,-192.5 804,-211.5"/>
<text text-anchor="middle" x="759" y="-199.5" font-family="Helvetica,sans-Serif" font-size="10.00">f_pc/f_pc_layer.h</text>
</a>
</g>
</g>
<!-- Node6&#45;&gt;Node15 -->
<g id="edge25" class="edge">
<title>Node6&#45;&gt;Node15</title>
<path fill="none" stroke="#63b8ff" d="M429.8,-421.98C509.34,-411.45 671.68,-377.49 747,-272 757.06,-257.92 759.64,-238.17 759.95,-223.41"/>
<polygon fill="#63b8ff" stroke="#63b8ff" points="763.45,-223.44 759.8,-213.5 756.45,-223.55 763.45,-223.44"/>
</g>
<!-- Node17 -->
<g id="node17" class="node">
<title>Node17</title>
<g id="a_node17"><a xlink:href="f__pc__method_8h.html" target="_top" xlink:title=" ">
<polygon fill="white" stroke="#666666" points="102,-327 0,-327 0,-308 102,-308 102,-327"/>
<text text-anchor="middle" x="51" y="-315" font-family="Helvetica,sans-Serif" font-size="10.00">f_pc/f_pc_method.h</text>
</a>
</g>
</g>
<!-- Node6&#45;&gt;Node17 -->
<g id="edge31" class="edge">
<title>Node6&#45;&gt;Node17</title>
<path fill="none" stroke="#63b8ff" d="M338.16,-419.77C296.23,-412.86 232.87,-400.47 180,-382 142.27,-368.82 101.27,-347.28 75.85,-333"/>
<polygon fill="#63b8ff" stroke="#63b8ff" points="77.7,-330.03 67.28,-328.12 74.24,-336.11 77.7,-330.03"/>
</g>
<!-- Node18 -->
<g id="node18" class="node">
<title>Node18</title>
<g id="a_node18"><a xlink:href="f__pc__profile_8h.html" target="_top" xlink:title=" ">
<polygon fill="white" stroke="#666666" points="284.5,-382 189.5,-382 189.5,-363 284.5,-363 284.5,-382"/>
<text text-anchor="middle" x="237" y="-370" font-family="Helvetica,sans-Serif" font-size="10.00">f_pc/f_pc_profile.h</text>
</a>
</g>
</g>
<!-- Node6&#45;&gt;Node18 -->
<g id="edge33" class="edge">
<title>Node6&#45;&gt;Node18</title>
<path fill="none" stroke="#63b8ff" d="M359.06,-417.51C335.16,-408.89 298.86,-395.8 272.05,-386.14"/>
<polygon fill="#63b8ff" stroke="#63b8ff" points="273.59,-382.97 262.99,-382.87 271.21,-389.56 273.59,-382.97"/>
</g>
<!-- Node7&#45;&gt;Node4 -->
<g id="edge7" class="edge">
<title>Node7&#45;&gt;Node4</title>
<path fill="none" stroke="#63b8ff" d="M338.19,-368.55C274.79,-361.7 168,-338.97 168,-263.5 168,-263.5 168,-263.5 168,-201 168,-114.39 290.59,-88.02 363.04,-80"/>
<polygon fill="#63b8ff" stroke="#63b8ff" points="363.11,-83.51 372.71,-79.02 362.4,-76.55 363.11,-83.51"/>
</g>
<!-- Node8 -->
<g id="node8" class="node">
<title>Node8</title>
<g id="a_node8"><a xlink:href="f__pc__delete__tag_8h.html" target="_top" xlink:title=" ">
<polygon fill="white" stroke="#666666" points="311.5,-272 196.5,-272 196.5,-253 311.5,-253 311.5,-272"/>
<text text-anchor="middle" x="254" y="-260" font-family="Helvetica,sans-Serif" font-size="10.00">f_pc/f_pc_delete_tag.h</text>
</a>
</g>
</g>
<!-- Node7&#45;&gt;Node8 -->
<g id="edge8" class="edge">
<title>Node7&#45;&gt;Node8</title>
<path fill="none" stroke="#63b8ff" d="M373.36,-362.66C351.56,-344.55 301.5,-302.96 273.63,-279.81"/>
<polygon fill="#63b8ff" stroke="#63b8ff" points="275.88,-277.13 265.95,-273.43 271.4,-282.51 275.88,-277.13"/>
</g>
<!-- Node11 -->
<g id="node11" class="node">
<title>Node11</title>
<g id="a_node11"><a xlink:href="f__pc__layer__tag_8h.html" target="_top" xlink:title=" ">
<polygon fill="white" stroke="#666666" points="438.5,-272 329.5,-272 329.5,-253 438.5,-253 438.5,-272"/>
<text text-anchor="middle" x="384" y="-260" font-family="Helvetica,sans-Serif" font-size="10.00">f_pc/f_pc_layer_tag.h</text>
</a>
</g>
</g>
<!-- Node7&#45;&gt;Node11 -->
<g id="edge14" class="edge">
<title>Node7&#45;&gt;Node11</title>
<path fill="none" stroke="#63b8ff" d="M384,-362.66C384,-345.57 384,-307.61 384,-283.92"/>
<polygon fill="#63b8ff" stroke="#63b8ff" points="387.5,-283.97 384,-273.97 380.5,-283.97 387.5,-283.97"/>
</g>
<!-- Node12 -->
<g id="node12" class="node">
<title>Node12</title>
<g id="a_node12"><a xlink:href="f__pc__line__tag_8h.html" target="_top" xlink:title=" ">
<polygon fill="white" stroke="#666666" points="561,-272 457,-272 457,-253 561,-253 561,-272"/>
<text text-anchor="middle" x="509" y="-260" font-family="Helvetica,sans-Serif" font-size="10.00">f_pc/f_pc_line_tag.h</text>
</a>
</g>
</g>
<!-- Node7&#45;&gt;Node12 -->
<g id="edge17" class="edge">
<title>Node7&#45;&gt;Node12</title>
<path fill="none" stroke="#63b8ff" d="M394.23,-362.66C415.2,-344.55 463.33,-302.96 490.12,-279.81"/>
<polygon fill="#63b8ff" stroke="#63b8ff" points="492.21,-282.64 497.48,-273.45 487.63,-277.34 492.21,-282.64"/>
</g>
<!-- Node13 -->
<g id="node13" class="node">
<title>Node13</title>
<g id="a_node13"><a xlink:href="f__pc__priority_8h.html" target="_top" xlink:title=" ">
<polygon fill="white" stroke="#666666" points="638,-327 540,-327 540,-308 638,-308 638,-327"/>
<text text-anchor="middle" x="589" y="-315" font-family="Helvetica,sans-Serif" font-size="10.00">f_pc/f_pc_priority.h</text>
</a>
</g>
</g>
<!-- Node7&#45;&gt;Node13 -->
<g id="edge20" class="edge">
<title>Node7&#45;&gt;Node13</title>
<path fill="none" stroke="#63b8ff" d="M418.78,-362.51C453.19,-353.61 506.04,-339.95 543.72,-330.21"/>
<polygon fill="#63b8ff" stroke="#63b8ff" points="544.13,-333.72 552.93,-327.83 542.37,-326.94 544.13,-333.72"/>
</g>
<!-- Node8&#45;&gt;Node4 -->
<g id="edge13" class="edge">
<title>Node8&#45;&gt;Node4</title>
<path fill="none" stroke="#63b8ff" d="M258.45,-252.78C270.69,-229.42 306.78,-164.26 350,-121 361.52,-109.47 376.39,-99.04 389.01,-91.17"/>
<polygon fill="#63b8ff" stroke="#63b8ff" points="390.47,-94.38 397.23,-86.22 386.86,-88.38 390.47,-94.38"/>
</g>
<!-- Node9 -->
<g id="node9" class="node">
<title>Node9</title>
<g id="a_node9"><a xlink:href="c__tag_8h.html" target="_top" xlink:title=" ">
<polygon fill="white" stroke="#666666" points="521,-217 405,-217 405,-187 521,-187 521,-217"/>
<text text-anchor="start" x="413" y="-205" font-family="Helvetica,sans-Serif" font-size="10.00">SSystem/SComponent</text>
<text text-anchor="middle" x="463" y="-194" font-family="Helvetica,sans-Serif" font-size="10.00">/c_tag.h</text>
</a>
</g>
</g>
<!-- Node8&#45;&gt;Node9 -->
<g id="edge9" class="edge">
<title>Node8&#45;&gt;Node9</title>
<path fill="none" stroke="#63b8ff" d="M285.74,-252.62C316.09,-244.12 362.69,-231.08 400.5,-220.49"/>
<polygon fill="#63b8ff" stroke="#63b8ff" points="401.27,-223.91 409.95,-217.85 399.38,-217.17 401.27,-223.91"/>
</g>
<!-- Node9&#45;&gt;Node4 -->
<g id="edge12" class="edge">
<title>Node9&#45;&gt;Node4</title>
<path fill="none" stroke="#63b8ff" d="M455.54,-186.79C450.51,-176.91 443.92,-163.34 439,-151 431.69,-132.68 424.95,-111.17 420.49,-95.99"/>
<polygon fill="#63b8ff" stroke="#63b8ff" points="423.97,-95.45 417.85,-86.81 417.25,-97.39 423.97,-95.45"/>
</g>
<!-- Node10 -->
<g id="node10" class="node">
<title>Node10</title>
<g id="a_node10"><a xlink:href="c__node_8h.html" target="_top" xlink:title=" ">
<polygon fill="white" stroke="#666666" points="597,-151 481,-151 481,-121 597,-121 597,-151"/>
<text text-anchor="start" x="489" y="-139" font-family="Helvetica,sans-Serif" font-size="10.00">SSystem/SComponent</text>
<text text-anchor="middle" x="539" y="-128" font-family="Helvetica,sans-Serif" font-size="10.00">/c_node.h</text>
</a>
</g>
</g>
<!-- Node9&#45;&gt;Node10 -->
<g id="edge10" class="edge">
<title>Node9&#45;&gt;Node10</title>
<path fill="none" stroke="#63b8ff" d="M479.87,-186.8C489.64,-178.57 502.14,-168.04 513.13,-158.78"/>
<polygon fill="#63b8ff" stroke="#63b8ff" points="515.37,-161.48 520.76,-152.36 510.86,-156.12 515.37,-161.48"/>
</g>
<!-- Node10&#45;&gt;Node4 -->
<g id="edge11" class="edge">
<title>Node10&#45;&gt;Node4</title>
<path fill="none" stroke="#63b8ff" d="M508.35,-120.54C488.71,-111.28 463.38,-99.33 444.07,-90.21"/>
<polygon fill="#63b8ff" stroke="#63b8ff" points="445.66,-87.09 435.12,-85.99 442.67,-93.42 445.66,-87.09"/>
</g>
<!-- Node11&#45;&gt;Node4 -->
<g id="edge16" class="edge">
<title>Node11&#45;&gt;Node4</title>
<path fill="none" stroke="#63b8ff" d="M378.42,-252.72C373.26,-244.03 365.95,-230.17 363,-217 353.67,-175.37 345.16,-159.76 363,-121 368.5,-109.06 378.96,-99.13 389.06,-91.7"/>
<polygon fill="#63b8ff" stroke="#63b8ff" points="390.88,-94.7 397.21,-86.21 386.96,-88.89 390.88,-94.7"/>
</g>
<!-- Node11&#45;&gt;Node9 -->
<g id="edge15" class="edge">
<title>Node11&#45;&gt;Node9</title>
<path fill="none" stroke="#63b8ff" d="M396,-252.62C406.14,-245.1 421.09,-234.04 434.29,-224.26"/>
<polygon fill="#63b8ff" stroke="#63b8ff" points="436.33,-227.1 442.28,-218.34 432.16,-221.48 436.33,-227.1"/>
</g>
<!-- Node12&#45;&gt;Node4 -->
<g id="edge19" class="edge">
<title>Node12&#45;&gt;Node4</title>
<path fill="none" stroke="#63b8ff" d="M456.64,-254.19C434.05,-248.15 409.71,-237.13 396,-217 370.68,-179.82 391.19,-124.13 405,-95.3"/>
<polygon fill="#63b8ff" stroke="#63b8ff" points="407.96,-97.2 409.34,-86.69 401.71,-94.05 407.96,-97.2"/>
</g>
<!-- Node12&#45;&gt;Node9 -->
<g id="edge18" class="edge">
<title>Node12&#45;&gt;Node9</title>
<path fill="none" stroke="#63b8ff" d="M502.21,-252.87C496.66,-245.81 488.56,-235.5 481.15,-226.08"/>
<polygon fill="#63b8ff" stroke="#63b8ff" points="483.97,-224 475.03,-218.3 478.46,-228.33 483.97,-224"/>
</g>
<!-- Node13&#45;&gt;Node9 -->
<g id="edge21" class="edge">
<title>Node13&#45;&gt;Node9</title>
<path fill="none" stroke="#63b8ff" d="M588.59,-307.62C587.52,-294.26 583.69,-268.85 570,-253 558.35,-239.5 542.27,-229.41 526.11,-221.96"/>
<polygon fill="#63b8ff" stroke="#63b8ff" points="527.49,-218.74 516.92,-218.03 524.74,-225.18 527.49,-218.74"/>
</g>
<!-- Node14 -->
<g id="node14" class="node">
<title>Node14</title>
<g id="a_node14"><a xlink:href="f__pc__method__tag_8h.html" target="_top" xlink:title=" ">
<polygon fill="white" stroke="#666666" points="738.5,-272 617.5,-272 617.5,-253 738.5,-253 738.5,-272"/>
<text text-anchor="middle" x="678" y="-260" font-family="Helvetica,sans-Serif" font-size="10.00">f_pc/f_pc_method_tag.h</text>
</a>
</g>
</g>
<!-- Node13&#45;&gt;Node14 -->
<g id="edge22" class="edge">
<title>Node13&#45;&gt;Node14</title>
<path fill="none" stroke="#63b8ff" d="M604.1,-307.51C617.6,-299.47 637.65,-287.53 653.46,-278.11"/>
<polygon fill="#63b8ff" stroke="#63b8ff" points="655.02,-281.26 661.82,-273.13 651.44,-275.24 655.02,-281.26"/>
</g>
<!-- Node14&#45;&gt;Node4 -->
<g id="edge24" class="edge">
<title>Node14&#45;&gt;Node4</title>
<path fill="none" stroke="#63b8ff" d="M660.35,-252.57C613.41,-228.77 488.03,-164.64 472,-151 452.87,-134.72 436.1,-111.02 425.8,-94.75"/>
<polygon fill="#63b8ff" stroke="#63b8ff" points="428.99,-93.27 420.78,-86.57 423.02,-96.92 428.99,-93.27"/>
</g>
<!-- Node14&#45;&gt;Node9 -->
<g id="edge23" class="edge">
<title>Node14&#45;&gt;Node9</title>
<path fill="none" stroke="#63b8ff" d="M645.35,-252.62C614.06,-244.1 565.98,-231.02 527.05,-220.43"/>
<polygon fill="#63b8ff" stroke="#63b8ff" points="528.1,-217.09 517.53,-217.84 526.26,-223.84 528.1,-217.09"/>
</g>
<!-- Node15&#45;&gt;Node3 -->
<g id="edge29" class="edge">
<title>Node15&#45;&gt;Node3</title>
<path fill="none" stroke="#63b8ff" d="M770.96,-192.1C782.65,-183.4 800.91,-169.81 816.37,-158.31"/>
<polygon fill="#63b8ff" stroke="#63b8ff" points="818.4,-161.16 824.33,-152.38 814.22,-155.54 818.4,-161.16"/>
</g>
<!-- Node15&#45;&gt;Node4 -->
<g id="edge30" class="edge">
<title>Node15&#45;&gt;Node4</title>
<path fill="none" stroke="#63b8ff" d="M759.82,-192.21C760.84,-175.58 760.4,-139.51 740,-121 701.01,-85.62 548.79,-78.13 467.25,-76.7"/>
<polygon fill="#63b8ff" stroke="#63b8ff" points="467.32,-73.2 457.27,-76.56 467.22,-80.2 467.32,-73.2"/>
</g>
<!-- Node15&#45;&gt;Node10 -->
<g id="edge28" class="edge">
<title>Node15&#45;&gt;Node10</title>
<path fill="none" stroke="#63b8ff" d="M728.41,-192.1C695.25,-182.45 641.46,-166.81 599.66,-154.65"/>
<polygon fill="#63b8ff" stroke="#63b8ff" points="600.8,-151.33 590.22,-151.9 598.84,-158.05 600.8,-151.33"/>
</g>
<!-- Node16 -->
<g id="node16" class="node">
<title>Node16</title>
<g id="a_node16"><a xlink:href="c__list_8h.html" target="_top" xlink:title=" ">
<polygon fill="white" stroke="#666666" points="731,-151 615,-151 615,-121 731,-121 731,-151"/>
<text text-anchor="start" x="623" y="-139" font-family="Helvetica,sans-Serif" font-size="10.00">SSystem/SComponent</text>
<text text-anchor="middle" x="673" y="-128" font-family="Helvetica,sans-Serif" font-size="10.00">/c_list.h</text>
</a>
</g>
</g>
<!-- Node15&#45;&gt;Node16 -->
<g id="edge26" class="edge">
<title>Node15&#45;&gt;Node16</title>
<path fill="none" stroke="#63b8ff" d="M747.04,-192.1C735.35,-183.4 717.09,-169.81 701.63,-158.31"/>
<polygon fill="#63b8ff" stroke="#63b8ff" points="703.78,-155.54 693.67,-152.38 699.6,-161.16 703.78,-155.54"/>
</g>
<!-- Node16&#45;&gt;Node4 -->
<g id="edge27" class="edge">
<title>Node16&#45;&gt;Node4</title>
<path fill="none" stroke="#63b8ff" d="M614.78,-121.8C569.89,-111.62 508.45,-97.69 465.6,-87.97"/>
<polygon fill="#63b8ff" stroke="#63b8ff" points="466.58,-84.61 456.06,-85.81 465.04,-91.43 466.58,-84.61"/>
</g>
<!-- Node17&#45;&gt;Node4 -->
<g id="edge32" class="edge">
<title>Node17&#45;&gt;Node4</title>
<path fill="none" stroke="#63b8ff" d="M50.93,-307.75C51.19,-276.68 56.57,-170.93 116,-121 152.45,-90.37 287.42,-80.81 362.96,-77.83"/>
<polygon fill="#63b8ff" stroke="#63b8ff" points="362.72,-81.34 372.58,-77.48 362.46,-74.35 362.72,-81.34"/>
</g>
<!-- Node18&#45;&gt;Node4 -->
<g id="edge34" class="edge">
<title>Node18&#45;&gt;Node4</title>
<path fill="none" stroke="#63b8ff" d="M217.12,-362.58C186.18,-347.17 130,-312.46 130,-263.5 130,-263.5 130,-263.5 130,-201 130,-100.54 280.53,-80.34 362.79,-76.81"/>
<polygon fill="#63b8ff" stroke="#63b8ff" points="362.78,-80.31 372.65,-76.46 362.54,-73.31 362.78,-80.31"/>
</g>
<!-- Node19&#45;&gt;Node4 -->
<g id="edge36" class="edge">
<title>Node19&#45;&gt;Node4</title>
<path fill="none" stroke="#63b8ff" d="M916.36,-417.61C921.03,-399.25 931,-355.7 931,-318.5 931,-318.5 931,-318.5 931,-201 931,-164.46 939.63,-144.92 912,-121 878.88,-92.33 587.84,-81.19 467.12,-77.77"/>
<polygon fill="#63b8ff" stroke="#63b8ff" points="467.25,-74.27 457.16,-77.5 467.06,-81.27 467.25,-74.27"/>
</g>
</g>
</svg>
