<?xml version="1.0" encoding="UTF-8" standalone="no"?>
<!DOCTYPE svg PUBLIC "-//W3C//DTD SVG 1.1//EN"
 "http://www.w3.org/Graphics/SVG/1.1/DTD/svg11.dtd">
<!-- Generated by graphviz version 7.0.5 (20221223.1930)
 -->
<!-- Title: include/f_pc/f_pc_stdcreate_req.h Pages: 1 -->
<svg width="5122pt" height="379pt"
 viewBox="0.00 0.00 5122.00 379.00" xmlns="http://www.w3.org/2000/svg" xmlns:xlink="http://www.w3.org/1999/xlink">
<g id="graph0" class="graph" transform="scale(1 1) rotate(0) translate(4 375)">
<title>include/f_pc/f_pc_stdcreate_req.h</title>
<!-- Node1 -->
<g id="node1" class="node">
<title>Node1</title>
<g id="a_node1"><a xlink:title=" ">
<polygon fill="#999999" stroke="#666666" points="4829,-371 4692,-371 4692,-341 4829,-341 4829,-371"/>
<text text-anchor="start" x="4700" y="-359" font-family="Helvetica,sans-Serif" font-size="10.00">include/f_pc/f_pc_stdcreate</text>
<text text-anchor="middle" x="4760.5" y="-348" font-family="Helvetica,sans-Serif" font-size="10.00">_req.h</text>
</a>
</g>
</g>
<!-- Node2 -->
<g id="node2" class="node">
<title>Node2</title>
<g id="a_node2"><a xlink:href="f__op__actor__mng_8h.html" target="_top" xlink:title=" ">
<polygon fill="white" stroke="#666666" points="2421.5,-239 2303.5,-239 2303.5,-209 2421.5,-209 2421.5,-239"/>
<text text-anchor="start" x="2311.5" y="-227" font-family="Helvetica,sans-Serif" font-size="10.00">include/f_op/f_op_actor</text>
<text text-anchor="middle" x="2362.5" y="-216" font-family="Helvetica,sans-Serif" font-size="10.00">_mng.h</text>
</a>
</g>
</g>
<!-- Node1&#45;&gt;Node2 -->
<g id="edge1" class="edge">
<title>Node1&#45;&gt;Node2</title>
<path fill="none" stroke="#63b8ff" d="M4680.16,-350.64C4306.96,-330.41 2746.93,-245.84 2421.97,-228.22"/>
<polygon fill="#63b8ff" stroke="#63b8ff" points="4679.95,-354.14 4690.13,-351.18 4680.33,-347.15 4679.95,-354.14"/>
</g>
<!-- Node162 -->
<g id="node42" class="node">
<title>Node162</title>
<g id="a_node42"><a xlink:href="f__pc__manager_8h.html" target="_top" xlink:title=" ">
<polygon fill="#fff0f0" stroke="red" points="4690,-299.5 4549,-299.5 4549,-280.5 4690,-280.5 4690,-299.5"/>
<text text-anchor="middle" x="4619.5" y="-287.5" font-family="Helvetica,sans-Serif" font-size="10.00">include/f_pc/f_pc_manager.h</text>
</a>
</g>
</g>
<!-- Node1&#45;&gt;Node162 -->
<g id="edge49" class="edge">
<title>Node1&#45;&gt;Node162</title>
<path fill="none" stroke="#63b8ff" d="M4718.43,-335.91C4692.23,-324.01 4659.73,-309.26 4639.3,-299.99"/>
<polygon fill="#63b8ff" stroke="#63b8ff" points="4716.93,-339.07 4727.48,-340.01 4719.82,-332.69 4716.93,-339.07"/>
</g>
<!-- Node173 -->
<g id="node47" class="node">
<title>Node173</title>
<g id="a_node47"><a xlink:href="f__op__overlap__req_8cpp.html" target="_top" xlink:title=" ">
<polygon fill="white" stroke="#666666" points="4922.5,-239 4812.5,-239 4812.5,-209 4922.5,-209 4922.5,-239"/>
<text text-anchor="start" x="4820.5" y="-227" font-family="Helvetica,sans-Serif" font-size="10.00">src/f_op/f_op_overlap</text>
<text text-anchor="middle" x="4867.5" y="-216" font-family="Helvetica,sans-Serif" font-size="10.00">_req.cpp</text>
</a>
</g>
</g>
<!-- Node1&#45;&gt;Node173 -->
<g id="edge59" class="edge">
<title>Node1&#45;&gt;Node173</title>
<path fill="none" stroke="#63b8ff" d="M4743.55,-330.86C4733.99,-314.02 4726.05,-291.67 4737.5,-275 4746.57,-261.79 4781.08,-248.86 4812.26,-239.46"/>
<polygon fill="#63b8ff" stroke="#63b8ff" points="4740.5,-332.6 4748.75,-339.25 4746.45,-328.91 4740.5,-332.6"/>
</g>
<!-- Node177 -->
<g id="node48" class="node">
<title>Node177</title>
<g id="a_node48"><a xlink:href="f__op__camera__mng_8cpp.html" target="_top" xlink:title=" ">
<polygon fill="white" stroke="#666666" points="4858,-305 4747,-305 4747,-275 4858,-275 4858,-305"/>
<text text-anchor="start" x="4755" y="-293" font-family="Helvetica,sans-Serif" font-size="10.00">src/f_op/f_op_camera</text>
<text text-anchor="middle" x="4802.5" y="-282" font-family="Helvetica,sans-Serif" font-size="10.00">_mng.cpp</text>
</a>
</g>
</g>
<!-- Node1&#45;&gt;Node177 -->
<g id="edge58" class="edge">
<title>Node1&#45;&gt;Node177</title>
<path fill="none" stroke="#63b8ff" d="M4775.99,-331.39C4781.77,-322.59 4788.15,-312.86 4793.2,-305.16"/>
<polygon fill="#63b8ff" stroke="#63b8ff" points="4773.21,-329.25 4770.65,-339.53 4779.06,-333.09 4773.21,-329.25"/>
</g>
<!-- Node178 -->
<g id="node49" class="node">
<title>Node178</title>
<g id="a_node49"><a xlink:href="f__pc__node__req_8cpp.html" target="_top" xlink:title=" ">
<polygon fill="white" stroke="#666666" points="4976.5,-305 4876.5,-305 4876.5,-275 4976.5,-275 4976.5,-305"/>
<text text-anchor="start" x="4884.5" y="-293" font-family="Helvetica,sans-Serif" font-size="10.00">src/f_pc/f_pc_node</text>
<text text-anchor="middle" x="4926.5" y="-282" font-family="Helvetica,sans-Serif" font-size="10.00">_req.cpp</text>
</a>
</g>
</g>
<!-- Node1&#45;&gt;Node178 -->
<g id="edge60" class="edge">
<title>Node1&#45;&gt;Node178</title>
<path fill="none" stroke="#63b8ff" d="M4808.38,-336.54C4834.05,-326.64 4865.21,-314.63 4889.08,-305.43"/>
<polygon fill="#63b8ff" stroke="#63b8ff" points="4807.24,-333.23 4799.17,-340.09 4809.76,-339.76 4807.24,-333.23"/>
</g>
<!-- Node179 -->
<g id="node50" class="node">
<title>Node179</title>
<g id="a_node50"><a xlink:href="f__pc__stdcreate__req_8cpp.html" target="_top" xlink:title=" ">
<polygon fill="white" stroke="#666666" points="5114,-305 4995,-305 4995,-275 5114,-275 5114,-305"/>
<text text-anchor="start" x="5003" y="-293" font-family="Helvetica,sans-Serif" font-size="10.00">src/f_pc/f_pc_stdcreate</text>
<text text-anchor="middle" x="5054.5" y="-282" font-family="Helvetica,sans-Serif" font-size="10.00">_req.cpp</text>
</a>
</g>
</g>
<!-- Node1&#45;&gt;Node179 -->
<g id="edge61" class="edge">
<title>Node1&#45;&gt;Node179</title>
<path fill="none" stroke="#63b8ff" d="M4838.06,-338.12C4887.16,-327.43 4949.68,-313.82 4994.88,-303.98"/>
<polygon fill="#63b8ff" stroke="#63b8ff" points="4837.35,-334.69 4828.32,-340.24 4838.84,-341.53 4837.35,-334.69"/>
</g>
<!-- Node3 -->
<g id="node3" class="node">
<title>Node3</title>
<g id="a_node3"><a xlink:href="d__a__alink_8h.html" target="_top" xlink:title=" ">
<polygon fill="#fff0f0" stroke="red" points="2594.5,-85 2478.5,-85 2478.5,-66 2594.5,-66 2594.5,-85"/>
<text text-anchor="middle" x="2536.5" y="-73" font-family="Helvetica,sans-Serif" font-size="10.00">include/d/a/d_a_alink.h</text>
</a>
</g>
</g>
<!-- Node2&#45;&gt;Node3 -->
<g id="edge2" class="edge">
<title>Node2&#45;&gt;Node3</title>
<path fill="none" stroke="#63b8ff" d="M2433.02,-222.65C2792.94,-220.68 4409.57,-209.8 4445.5,-173 4458.23,-159.96 4458.2,-145.07 4445.5,-132 4412.44,-97.97 2911.79,-80.42 2594.88,-77.09"/>
<polygon fill="#63b8ff" stroke="#63b8ff" points="2433.24,-219.15 2423.26,-222.7 2433.28,-226.15 2433.24,-219.15"/>
</g>
<!-- Node14 -->
<g id="node4" class="node">
<title>Node14</title>
<g id="a_node4"><a xlink:href="d__a__alink_8cpp.html" target="_top" xlink:title=" ">
<polygon fill="white" stroke="#666666" points="2065,-19 1956,-19 1956,0 2065,0 2065,-19"/>
<text text-anchor="middle" x="2010.5" y="-7" font-family="Helvetica,sans-Serif" font-size="10.00">src/d/a/d_a_alink.cpp</text>
</a>
</g>
</g>
<!-- Node2&#45;&gt;Node14 -->
<g id="edge37" class="edge">
<title>Node2&#45;&gt;Node14</title>
<path fill="none" stroke="#63b8ff" d="M2433.07,-222.66C2795.09,-220.76 4428.22,-210.15 4464.5,-173 4477.23,-159.96 4477.06,-145.2 4464.5,-132 4378.94,-42.1 2420.46,-15.24 2065.43,-11.1"/>
<polygon fill="#63b8ff" stroke="#63b8ff" points="2433.23,-219.16 2423.25,-222.71 2433.26,-226.16 2433.23,-219.16"/>
</g>
<!-- Node132 -->
<g id="node5" class="node">
<title>Node132</title>
<g id="a_node5"><a xlink:href="d__a__obj__item_8h.html" target="_top" xlink:title=" ">
<polygon fill="#fff0f0" stroke="red" points="101,-167.5 0,-167.5 0,-137.5 101,-137.5 101,-167.5"/>
<text text-anchor="start" x="8" y="-155.5" font-family="Helvetica,sans-Serif" font-size="10.00">include/d/a/d_a_obj</text>
<text text-anchor="middle" x="50.5" y="-144.5" font-family="Helvetica,sans-Serif" font-size="10.00">_item.h</text>
</a>
</g>
</g>
<!-- Node2&#45;&gt;Node132 -->
<g id="edge4" class="edge">
<title>Node2&#45;&gt;Node132</title>
<path fill="none" stroke="#63b8ff" d="M2291.52,-222.68C1932.86,-220.87 328.46,-210.74 109.5,-173 102.7,-171.83 95.61,-170.02 88.8,-167.97"/>
<polygon fill="#63b8ff" stroke="#63b8ff" points="2291.47,-226.18 2301.49,-222.73 2291.51,-219.18 2291.47,-226.18"/>
</g>
<!-- Node133 -->
<g id="node6" class="node">
<title>Node133</title>
<g id="a_node6"><a xlink:href="d__a__obj__ss__base_8h.html" target="_top" xlink:title=" ">
<polygon fill="#fff0f0" stroke="red" points="220,-167.5 119,-167.5 119,-137.5 220,-137.5 220,-167.5"/>
<text text-anchor="start" x="127" y="-155.5" font-family="Helvetica,sans-Serif" font-size="10.00">include/d/a/d_a_obj</text>
<text text-anchor="middle" x="169.5" y="-144.5" font-family="Helvetica,sans-Serif" font-size="10.00">_ss_base.h</text>
</a>
</g>
</g>
<!-- Node2&#45;&gt;Node133 -->
<g id="edge5" class="edge">
<title>Node2&#45;&gt;Node133</title>
<path fill="none" stroke="#63b8ff" d="M2291.64,-222.58C1944.89,-220.37 435.15,-208.75 228.5,-173 221.7,-171.82 214.61,-170.02 207.8,-167.97"/>
<polygon fill="#63b8ff" stroke="#63b8ff" points="2291.47,-226.08 2301.49,-222.64 2291.51,-219.08 2291.47,-226.08"/>
</g>
<!-- Node135 -->
<g id="node7" class="node">
<title>Node135</title>
<g id="a_node7"><a xlink:href="d__bomb_8h.html" target="_top" xlink:title=" ">
<polygon fill="white" stroke="#666666" points="339,-162 238,-162 238,-143 339,-143 339,-162"/>
<text text-anchor="middle" x="288.5" y="-150" font-family="Helvetica,sans-Serif" font-size="10.00">include/d/d_bomb.h</text>
</a>
</g>
</g>
<!-- Node2&#45;&gt;Node135 -->
<g id="edge6" class="edge">
<title>Node2&#45;&gt;Node135</title>
<path fill="none" stroke="#63b8ff" d="M2291.8,-222.36C1957.99,-219.17 547.69,-203.97 353.5,-173 339.77,-170.81 324.89,-166.5 312.83,-162.48"/>
<polygon fill="#63b8ff" stroke="#63b8ff" points="2291.67,-225.86 2301.7,-222.45 2291.74,-218.86 2291.67,-225.86"/>
</g>
<!-- Node136 -->
<g id="node8" class="node">
<title>Node136</title>
<g id="a_node8"><a xlink:href="d__bomb_8cpp.html" target="_top" xlink:title=" ">
<polygon fill="white" stroke="#666666" points="412.5,-85 318.5,-85 318.5,-66 412.5,-66 412.5,-85"/>
<text text-anchor="middle" x="365.5" y="-73" font-family="Helvetica,sans-Serif" font-size="10.00">src/d/d_bomb.cpp</text>
</a>
</g>
</g>
<!-- Node2&#45;&gt;Node136 -->
<g id="edge42" class="edge">
<title>Node2&#45;&gt;Node136</title>
<path fill="none" stroke="#63b8ff" d="M2291.85,-222.4C1943.48,-219.29 423.96,-203.97 386.5,-173 360.21,-151.26 362.1,-105.01 364.25,-85.49"/>
<polygon fill="#63b8ff" stroke="#63b8ff" points="2291.71,-225.9 2301.75,-222.49 2291.78,-218.9 2291.71,-225.9"/>
</g>
<!-- Node137 -->
<g id="node9" class="node">
<title>Node137</title>
<g id="a_node9"><a xlink:href="d__door__param2_8h.html" target="_top" xlink:title=" ">
<polygon fill="#fff0f0" stroke="red" points="529,-162 396,-162 396,-143 529,-143 529,-162"/>
<text text-anchor="middle" x="462.5" y="-150" font-family="Helvetica,sans-Serif" font-size="10.00">include/d/d_door_param2.h</text>
</a>
</g>
</g>
<!-- Node2&#45;&gt;Node137 -->
<g id="edge9" class="edge">
<title>Node2&#45;&gt;Node137</title>
<path fill="none" stroke="#63b8ff" d="M2292.07,-223.2C2000.31,-223.72 885.5,-222.35 537.5,-173 521.78,-170.77 504.62,-166.45 490.68,-162.45"/>
<polygon fill="#63b8ff" stroke="#63b8ff" points="2291.81,-226.7 2301.81,-223.19 2291.8,-219.7 2291.81,-226.7"/>
</g>
<!-- Node139 -->
<g id="node10" class="node">
<title>Node139</title>
<g id="a_node10"><a xlink:href="d__a__arrow_8h.html" target="_top" xlink:title=" ">
<polygon fill="white" stroke="#666666" points="648,-167.5 547,-167.5 547,-137.5 648,-137.5 648,-167.5"/>
<text text-anchor="start" x="555" y="-155.5" font-family="Helvetica,sans-Serif" font-size="10.00">include/rel/d/a/d_a</text>
<text text-anchor="middle" x="597.5" y="-144.5" font-family="Helvetica,sans-Serif" font-size="10.00">_arrow/d_a_arrow.h</text>
</a>
</g>
</g>
<!-- Node2&#45;&gt;Node139 -->
<g id="edge10" class="edge">
<title>Node2&#45;&gt;Node139</title>
<path fill="none" stroke="#63b8ff" d="M2291.9,-222.14C1990.44,-218.29 819.02,-201.61 656.5,-173 649.7,-171.8 642.61,-169.99 635.81,-167.93"/>
<polygon fill="#63b8ff" stroke="#63b8ff" points="2291.54,-225.63 2301.59,-222.26 2291.63,-218.63 2291.54,-225.63"/>
</g>
<!-- Node140 -->
<g id="node11" class="node">
<title>Node140</title>
<g id="a_node11"><a xlink:href="d__a__boomerang_8h.html" target="_top" xlink:title=" ">
<polygon fill="white" stroke="#666666" points="815,-167.5 666,-167.5 666,-137.5 815,-137.5 815,-167.5"/>
<text text-anchor="start" x="674" y="-155.5" font-family="Helvetica,sans-Serif" font-size="10.00">include/rel/d/a/d_a</text>
<text text-anchor="middle" x="740.5" y="-144.5" font-family="Helvetica,sans-Serif" font-size="10.00">_boomerang/d_a_boomerang.h</text>
</a>
</g>
</g>
<!-- Node2&#45;&gt;Node140 -->
<g id="edge11" class="edge">
<title>Node2&#45;&gt;Node140</title>
<path fill="none" stroke="#63b8ff" d="M2292.04,-222.41C2030.86,-219.98 1118.18,-209.02 829.5,-173 819.61,-171.77 809.2,-169.96 799.12,-167.93"/>
<polygon fill="#63b8ff" stroke="#63b8ff" points="2291.71,-225.91 2301.74,-222.5 2291.77,-218.91 2291.71,-225.91"/>
</g>
<!-- Node77 -->
<g id="node12" class="node">
<title>Node77</title>
<g id="a_node12"><a xlink:href="d__a__player_8cpp.html" target="_top" xlink:title=" ">
<polygon fill="white" stroke="#666666" points="849.5,-85 735.5,-85 735.5,-66 849.5,-66 849.5,-85"/>
<text text-anchor="middle" x="792.5" y="-73" font-family="Helvetica,sans-Serif" font-size="10.00">src/d/a/d_a_player.cpp</text>
</a>
</g>
</g>
<!-- Node2&#45;&gt;Node77 -->
<g id="edge38" class="edge">
<title>Node2&#45;&gt;Node77</title>
<path fill="none" stroke="#63b8ff" d="M2292.23,-222.37C2004.21,-219.57 926.26,-206.87 862.5,-173 843.76,-163.05 810.15,-107.15 797.5,-85.28"/>
<polygon fill="#63b8ff" stroke="#63b8ff" points="2291.79,-225.87 2301.83,-222.46 2291.86,-218.87 2291.79,-225.87"/>
</g>
<!-- Node141 -->
<g id="node13" class="node">
<title>Node141</title>
<g id="a_node13"><a xlink:href="d__a__canoe_8h.html" target="_top" xlink:title=" ">
<polygon fill="white" stroke="#666666" points="977.5,-167.5 871.5,-167.5 871.5,-137.5 977.5,-137.5 977.5,-167.5"/>
<text text-anchor="start" x="879.5" y="-155.5" font-family="Helvetica,sans-Serif" font-size="10.00">include/rel/d/a/d_a</text>
<text text-anchor="middle" x="924.5" y="-144.5" font-family="Helvetica,sans-Serif" font-size="10.00">_canoe/d_a_canoe.h</text>
</a>
</g>
</g>
<!-- Node2&#45;&gt;Node141 -->
<g id="edge13" class="edge">
<title>Node2&#45;&gt;Node141</title>
<path fill="none" stroke="#63b8ff" d="M2291.85,-222.72C2048.45,-221.4 1245.7,-213.98 991.5,-173 983.97,-171.79 976.08,-169.99 968.48,-167.97"/>
<polygon fill="#63b8ff" stroke="#63b8ff" points="2291.83,-226.22 2301.84,-222.77 2291.86,-219.22 2291.83,-226.22"/>
</g>
<!-- Node142 -->
<g id="node14" class="node">
<title>Node142</title>
<g id="a_node14"><a xlink:href="d__a__crod_8h.html" target="_top" xlink:title=" ">
<polygon fill="white" stroke="#666666" points="1159.5,-90.5 1063.5,-90.5 1063.5,-60.5 1159.5,-60.5 1159.5,-90.5"/>
<text text-anchor="start" x="1071.5" y="-78.5" font-family="Helvetica,sans-Serif" font-size="10.00">include/rel/d/a/d_a</text>
<text text-anchor="middle" x="1111.5" y="-67.5" font-family="Helvetica,sans-Serif" font-size="10.00">_crod/d_a_crod.h</text>
</a>
</g>
</g>
<!-- Node2&#45;&gt;Node142 -->
<g id="edge14" class="edge">
<title>Node2&#45;&gt;Node142</title>
<path fill="none" stroke="#63b8ff" d="M2291.74,-222.99C2024.95,-222.61 1092.86,-218.04 1049.5,-173 1036.86,-159.87 1042.06,-148.64 1049.5,-132 1057.22,-114.72 1073.28,-100.59 1087.11,-90.92"/>
<polygon fill="#63b8ff" stroke="#63b8ff" points="2291.67,-226.49 2301.68,-223 2291.68,-219.49 2291.67,-226.49"/>
</g>
<!-- Node143 -->
<g id="node15" class="node">
<title>Node143</title>
<g id="a_node15"><a xlink:href="d__a__scene__exit_8h.html" target="_top" xlink:title=" ">
<polygon fill="white" stroke="#666666" points="1859,-96 1740,-96 1740,-55 1859,-55 1859,-96"/>
<text text-anchor="start" x="1748" y="-84" font-family="Helvetica,sans-Serif" font-size="10.00">include/rel/d/a/d_a</text>
<text text-anchor="start" x="1748" y="-73" font-family="Helvetica,sans-Serif" font-size="10.00">_scene_exit/d_a_scene</text>
<text text-anchor="middle" x="1799.5" y="-62" font-family="Helvetica,sans-Serif" font-size="10.00">_exit.h</text>
</a>
</g>
</g>
<!-- Node2&#45;&gt;Node143 -->
<g id="edge16" class="edge">
<title>Node2&#45;&gt;Node143</title>
<path fill="none" stroke="#63b8ff" d="M2291.99,-222.96C2027.26,-222.48 1105.39,-217.58 1062.5,-173 1049.86,-159.87 1050.11,-145.36 1062.5,-132 1108.17,-82.76 1572.13,-76.94 1739.61,-76.45"/>
<polygon fill="#63b8ff" stroke="#63b8ff" points="2291.84,-226.46 2301.85,-222.98 2291.85,-219.46 2291.84,-226.46"/>
</g>
<!-- Node144 -->
<g id="node16" class="node">
<title>Node144</title>
<g id="a_node16"><a xlink:href="d__a__tboxSw_8h.html" target="_top" xlink:title=" ">
<polygon fill="white" stroke="#666666" points="1189.5,-167.5 1071.5,-167.5 1071.5,-137.5 1189.5,-137.5 1189.5,-167.5"/>
<text text-anchor="start" x="1079.5" y="-155.5" font-family="Helvetica,sans-Serif" font-size="10.00">include/rel/d/a/d_a</text>
<text text-anchor="middle" x="1130.5" y="-144.5" font-family="Helvetica,sans-Serif" font-size="10.00">_tboxSw/d_a_tboxSw.h</text>
</a>
</g>
</g>
<!-- Node2&#45;&gt;Node144 -->
<g id="edge18" class="edge">
<title>Node2&#45;&gt;Node144</title>
<path fill="none" stroke="#63b8ff" d="M2292.07,-222.15C2073.83,-219.19 1410.82,-207.5 1198.5,-173 1190.86,-171.76 1182.87,-169.95 1175.15,-167.92"/>
<polygon fill="#63b8ff" stroke="#63b8ff" points="2291.79,-225.65 2301.84,-222.28 2291.89,-218.65 2291.79,-225.65"/>
</g>
<!-- Node145 -->
<g id="node17" class="node">
<title>Node145</title>
<g id="a_node17"><a xlink:href="d__a__kytag17_8h.html" target="_top" xlink:title=" ">
<polygon fill="white" stroke="#666666" points="1347.5,-167.5 1207.5,-167.5 1207.5,-137.5 1347.5,-137.5 1347.5,-167.5"/>
<text text-anchor="start" x="1215.5" y="-155.5" font-family="Helvetica,sans-Serif" font-size="10.00">include/rel/d/a/kytag</text>
<text text-anchor="middle" x="1277.5" y="-144.5" font-family="Helvetica,sans-Serif" font-size="10.00">/d_a_kytag17/d_a_kytag17.h</text>
</a>
</g>
</g>
<!-- Node2&#45;&gt;Node145 -->
<g id="edge19" class="edge">
<title>Node2&#45;&gt;Node145</title>
<path fill="none" stroke="#63b8ff" d="M2291.75,-221.25C2093.86,-216.09 1537.37,-199.56 1356.5,-173 1347.83,-171.73 1338.73,-169.93 1329.91,-167.93"/>
<polygon fill="#63b8ff" stroke="#63b8ff" points="2291.54,-224.75 2301.63,-221.51 2291.72,-217.75 2291.54,-224.75"/>
</g>
<!-- Node83 -->
<g id="node18" class="node">
<title>Node83</title>
<g id="a_node18"><a xlink:href="d__a__tag__ajnot_8h.html" target="_top" xlink:title=" ">
<polygon fill="white" stroke="#666666" points="1483.5,-173 1365.5,-173 1365.5,-132 1483.5,-132 1483.5,-173"/>
<text text-anchor="start" x="1373.5" y="-161" font-family="Helvetica,sans-Serif" font-size="10.00">include/rel/d/a/tag</text>
<text text-anchor="start" x="1373.5" y="-150" font-family="Helvetica,sans-Serif" font-size="10.00">/d_a_tag_ajnot/d_a_tag</text>
<text text-anchor="middle" x="1424.5" y="-139" font-family="Helvetica,sans-Serif" font-size="10.00">_ajnot.h</text>
</a>
</g>
</g>
<!-- Node2&#45;&gt;Node83 -->
<g id="edge20" class="edge">
<title>Node2&#45;&gt;Node83</title>
<path fill="none" stroke="#63b8ff" d="M2291.83,-220.96C2112.97,-215.47 1645.65,-199.03 1492.5,-173 1489.59,-172.51 1486.64,-171.93 1483.66,-171.3"/>
<polygon fill="#63b8ff" stroke="#63b8ff" points="2291.58,-224.45 2301.68,-221.26 2291.79,-217.46 2291.58,-224.45"/>
</g>
<!-- Node146 -->
<g id="node19" class="node">
<title>Node146</title>
<g id="a_node19"><a xlink:href="d__a__tag__arena_8h.html" target="_top" xlink:title=" ">
<polygon fill="white" stroke="#666666" points="1623,-173 1502,-173 1502,-132 1623,-132 1623,-173"/>
<text text-anchor="start" x="1510" y="-161" font-family="Helvetica,sans-Serif" font-size="10.00">include/rel/d/a/tag</text>
<text text-anchor="start" x="1510" y="-150" font-family="Helvetica,sans-Serif" font-size="10.00">/d_a_tag_arena/d_a_tag</text>
<text text-anchor="middle" x="1562.5" y="-139" font-family="Helvetica,sans-Serif" font-size="10.00">_arena.h</text>
</a>
</g>
</g>
<!-- Node2&#45;&gt;Node146 -->
<g id="edge21" class="edge">
<title>Node2&#45;&gt;Node146</title>
<path fill="none" stroke="#63b8ff" d="M2291.93,-222.91C2160.98,-221.7 1871.92,-214.11 1632.5,-173 1629.52,-172.49 1626.48,-171.9 1623.42,-171.26"/>
<polygon fill="#63b8ff" stroke="#63b8ff" points="2291.81,-226.41 2301.84,-222.99 2291.87,-219.41 2291.81,-226.41"/>
</g>
<!-- Node84 -->
<g id="node20" class="node">
<title>Node84</title>
<g id="a_node20"><a xlink:href="d__a__tag__assistance_8h.html" target="_top" xlink:title=" ">
<polygon fill="white" stroke="#666666" points="1755.5,-173 1641.5,-173 1641.5,-132 1755.5,-132 1755.5,-173"/>
<text text-anchor="start" x="1649.5" y="-161" font-family="Helvetica,sans-Serif" font-size="10.00">include/rel/d/a/tag</text>
<text text-anchor="start" x="1649.5" y="-150" font-family="Helvetica,sans-Serif" font-size="10.00">/d_a_tag_assistance</text>
<text text-anchor="middle" x="1698.5" y="-139" font-family="Helvetica,sans-Serif" font-size="10.00">/d_a_tag_assistance.h</text>
</a>
</g>
</g>
<!-- Node2&#45;&gt;Node84 -->
<g id="edge22" class="edge">
<title>Node2&#45;&gt;Node84</title>
<path fill="none" stroke="#63b8ff" d="M2292.23,-221.75C2179.84,-218.72 1953.09,-208.36 1764.5,-173 1761.68,-172.47 1758.81,-171.87 1755.92,-171.22"/>
<polygon fill="#63b8ff" stroke="#63b8ff" points="2291.8,-225.24 2301.89,-222 2291.98,-218.24 2291.8,-225.24"/>
</g>
<!-- Node147 -->
<g id="node21" class="node">
<title>Node147</title>
<g id="a_node21"><a xlink:href="d__a__tag__escape_8h.html" target="_top" xlink:title=" ">
<polygon fill="white" stroke="#666666" points="1883.5,-173 1773.5,-173 1773.5,-132 1883.5,-132 1883.5,-173"/>
<text text-anchor="start" x="1781.5" y="-161" font-family="Helvetica,sans-Serif" font-size="10.00">include/rel/d/a/tag</text>
<text text-anchor="start" x="1781.5" y="-150" font-family="Helvetica,sans-Serif" font-size="10.00">/d_a_tag_escape/d_a</text>
<text text-anchor="middle" x="1828.5" y="-139" font-family="Helvetica,sans-Serif" font-size="10.00">_tag_escape.h</text>
</a>
</g>
</g>
<!-- Node2&#45;&gt;Node147 -->
<g id="edge23" class="edge">
<title>Node2&#45;&gt;Node147</title>
<path fill="none" stroke="#63b8ff" d="M2291.88,-219.67C2199.36,-214.36 2032.45,-201.5 1892.5,-173 1889.65,-172.42 1886.75,-171.77 1883.84,-171.06"/>
<polygon fill="#63b8ff" stroke="#63b8ff" points="2291.64,-223.16 2301.82,-220.23 2292.03,-216.17 2291.64,-223.16"/>
</g>
<!-- Node148 -->
<g id="node22" class="node">
<title>Node148</title>
<g id="a_node22"><a xlink:href="d__a__tag__guard_8h.html" target="_top" xlink:title=" ">
<polygon fill="white" stroke="#666666" points="2023,-173 1902,-173 1902,-132 2023,-132 2023,-173"/>
<text text-anchor="start" x="1910" y="-161" font-family="Helvetica,sans-Serif" font-size="10.00">include/rel/d/a/tag</text>
<text text-anchor="start" x="1910" y="-150" font-family="Helvetica,sans-Serif" font-size="10.00">/d_a_tag_guard/d_a_tag</text>
<text text-anchor="middle" x="1962.5" y="-139" font-family="Helvetica,sans-Serif" font-size="10.00">_guard.h</text>
</a>
</g>
</g>
<!-- Node2&#45;&gt;Node148 -->
<g id="edge24" class="edge">
<title>Node2&#45;&gt;Node148</title>
<path fill="none" stroke="#63b8ff" d="M2291.89,-214.94C2224.56,-206.64 2120.51,-192.22 2031.5,-173 2028.82,-172.42 2026.1,-171.8 2023.35,-171.14"/>
<polygon fill="#63b8ff" stroke="#63b8ff" points="2291.35,-218.4 2301.7,-216.14 2292.19,-211.45 2291.35,-218.4"/>
</g>
<!-- Node85 -->
<g id="node23" class="node">
<title>Node85</title>
<g id="a_node23"><a xlink:href="d__a__tag__howl_8h.html" target="_top" xlink:title=" ">
<polygon fill="white" stroke="#666666" points="2158,-173 2041,-173 2041,-132 2158,-132 2158,-173"/>
<text text-anchor="start" x="2049" y="-161" font-family="Helvetica,sans-Serif" font-size="10.00">include/rel/d/a/tag</text>
<text text-anchor="start" x="2049" y="-150" font-family="Helvetica,sans-Serif" font-size="10.00">/d_a_tag_howl/d_a_tag</text>
<text text-anchor="middle" x="2099.5" y="-139" font-family="Helvetica,sans-Serif" font-size="10.00">_howl.h</text>
</a>
</g>
</g>
<!-- Node2&#45;&gt;Node85 -->
<g id="edge25" class="edge">
<title>Node2&#45;&gt;Node85</title>
<path fill="none" stroke="#63b8ff" d="M2293.59,-205.84C2256.21,-196.4 2209.25,-184.34 2167.5,-173 2164.54,-172.2 2161.5,-171.36 2158.44,-170.51"/>
<polygon fill="#63b8ff" stroke="#63b8ff" points="2292.35,-209.13 2302.9,-208.18 2294.06,-202.34 2292.35,-209.13"/>
</g>
<!-- Node149 -->
<g id="node24" class="node">
<title>Node149</title>
<g id="a_node24"><a xlink:href="d__a__tag__instruction_8h.html" target="_top" xlink:title=" ">
<polygon fill="white" stroke="#666666" points="2288.5,-173 2176.5,-173 2176.5,-132 2288.5,-132 2288.5,-173"/>
<text text-anchor="start" x="2184.5" y="-161" font-family="Helvetica,sans-Serif" font-size="10.00">include/rel/d/a/tag</text>
<text text-anchor="start" x="2184.5" y="-150" font-family="Helvetica,sans-Serif" font-size="10.00">/d_a_tag_instruction</text>
<text text-anchor="middle" x="2232.5" y="-139" font-family="Helvetica,sans-Serif" font-size="10.00">/d_a_tag_instruction.h</text>
</a>
</g>
</g>
<!-- Node2&#45;&gt;Node149 -->
<g id="edge26" class="edge">
<title>Node2&#45;&gt;Node149</title>
<path fill="none" stroke="#63b8ff" d="M2325.7,-203.33C2308.2,-193.97 2287.31,-182.8 2269.75,-173.42"/>
<polygon fill="#63b8ff" stroke="#63b8ff" points="2323.76,-206.26 2334.23,-207.89 2327.06,-200.08 2323.76,-206.26"/>
</g>
<!-- Node150 -->
<g id="node25" class="node">
<title>Node150</title>
<g id="a_node25"><a xlink:href="d__a__tag__lv5soup_8h.html" target="_top" xlink:title=" ">
<polygon fill="white" stroke="#666666" points="2418.5,-173 2306.5,-173 2306.5,-132 2418.5,-132 2418.5,-173"/>
<text text-anchor="start" x="2314.5" y="-161" font-family="Helvetica,sans-Serif" font-size="10.00">include/rel/d/a/tag</text>
<text text-anchor="start" x="2314.5" y="-150" font-family="Helvetica,sans-Serif" font-size="10.00">/d_a_tag_lv5soup/d_a</text>
<text text-anchor="middle" x="2362.5" y="-139" font-family="Helvetica,sans-Serif" font-size="10.00">_tag_lv5soup.h</text>
</a>
</g>
</g>
<!-- Node2&#45;&gt;Node150 -->
<g id="edge27" class="edge">
<title>Node2&#45;&gt;Node150</title>
<path fill="none" stroke="#63b8ff" d="M2362.5,-197.36C2362.5,-189.45 2362.5,-180.87 2362.5,-173.42"/>
<polygon fill="#63b8ff" stroke="#63b8ff" points="2359,-197.09 2362.5,-207.09 2366,-197.09 2359,-197.09"/>
</g>
<!-- Node151 -->
<g id="node26" class="node">
<title>Node151</title>
<g id="a_node26"><a xlink:href="d__a__tag__magne_8h.html" target="_top" xlink:title=" ">
<polygon fill="#fff0f0" stroke="red" points="2179.5,-96 2053.5,-96 2053.5,-55 2179.5,-55 2179.5,-96"/>
<text text-anchor="start" x="2061.5" y="-84" font-family="Helvetica,sans-Serif" font-size="10.00">include/rel/d/a/tag</text>
<text text-anchor="start" x="2061.5" y="-73" font-family="Helvetica,sans-Serif" font-size="10.00">/d_a_tag_magne/d_a_tag</text>
<text text-anchor="middle" x="2116.5" y="-62" font-family="Helvetica,sans-Serif" font-size="10.00">_magne.h</text>
</a>
</g>
</g>
<!-- Node2&#45;&gt;Node151 -->
<g id="edge28" class="edge">
<title>Node2&#45;&gt;Node151</title>
<path fill="none" stroke="#63b8ff" d="M2400.95,-202.4C2411.51,-194.69 2421.66,-184.85 2427.5,-173 2435.55,-156.65 2439.2,-145.97 2427.5,-132 2396.56,-95.05 2261.52,-82.67 2179.9,-78.55"/>
<polygon fill="#63b8ff" stroke="#63b8ff" points="2399.27,-199.32 2392.91,-207.79 2403.16,-205.13 2399.27,-199.32"/>
</g>
<!-- Node152 -->
<g id="node27" class="node">
<title>Node152</title>
<g id="a_node27"><a xlink:href="d__a__tag__mmsg_8h.html" target="_top" xlink:title=" ">
<polygon fill="white" stroke="#666666" points="2598.5,-173 2474.5,-173 2474.5,-132 2598.5,-132 2598.5,-173"/>
<text text-anchor="start" x="2482.5" y="-161" font-family="Helvetica,sans-Serif" font-size="10.00">include/rel/d/a/tag</text>
<text text-anchor="start" x="2482.5" y="-150" font-family="Helvetica,sans-Serif" font-size="10.00">/d_a_tag_mmsg/d_a_tag</text>
<text text-anchor="middle" x="2536.5" y="-139" font-family="Helvetica,sans-Serif" font-size="10.00">_mmsg.h</text>
</a>
</g>
</g>
<!-- Node2&#45;&gt;Node152 -->
<g id="edge30" class="edge">
<title>Node2&#45;&gt;Node152</title>
<path fill="none" stroke="#63b8ff" d="M2409.15,-204.37C2433.08,-194.81 2462.26,-183.15 2486.64,-173.42"/>
<polygon fill="#63b8ff" stroke="#63b8ff" points="2407.95,-201.08 2399.96,-208.04 2410.54,-207.58 2407.95,-201.08"/>
</g>
<!-- Node153 -->
<g id="node28" class="node">
<title>Node153</title>
<g id="a_node28"><a xlink:href="d__a__tag__schedule_8h.html" target="_top" xlink:title=" ">
<polygon fill="white" stroke="#666666" points="2724,-173 2617,-173 2617,-132 2724,-132 2724,-173"/>
<text text-anchor="start" x="2625" y="-161" font-family="Helvetica,sans-Serif" font-size="10.00">include/rel/d/a/tag</text>
<text text-anchor="start" x="2625" y="-150" font-family="Helvetica,sans-Serif" font-size="10.00">/d_a_tag_schedule/d</text>
<text text-anchor="middle" x="2670.5" y="-139" font-family="Helvetica,sans-Serif" font-size="10.00">_a_tag_schedule.h</text>
</a>
</g>
</g>
<!-- Node2&#45;&gt;Node153 -->
<g id="edge32" class="edge">
<title>Node2&#45;&gt;Node153</title>
<path fill="none" stroke="#63b8ff" d="M2432.94,-210.54C2482.13,-201.37 2549.17,-187.94 2607.5,-173 2610.49,-172.23 2613.56,-171.41 2616.64,-170.55"/>
<polygon fill="#63b8ff" stroke="#63b8ff" points="2432.47,-207.06 2423.27,-212.33 2433.74,-213.95 2432.47,-207.06"/>
</g>
<!-- Node154 -->
<g id="node29" class="node">
<title>Node154</title>
<g id="a_node29"><a xlink:href="d__a__tag__setBall_8h.html" target="_top" xlink:title=" ">
<polygon fill="white" stroke="#666666" points="2850.5,-173 2742.5,-173 2742.5,-132 2850.5,-132 2850.5,-173"/>
<text text-anchor="start" x="2750.5" y="-161" font-family="Helvetica,sans-Serif" font-size="10.00">include/rel/d/a/tag</text>
<text text-anchor="start" x="2750.5" y="-150" font-family="Helvetica,sans-Serif" font-size="10.00">/d_a_tag_setBall/d_a</text>
<text text-anchor="middle" x="2796.5" y="-139" font-family="Helvetica,sans-Serif" font-size="10.00">_tag_setBall.h</text>
</a>
</g>
</g>
<!-- Node2&#45;&gt;Node154 -->
<g id="edge33" class="edge">
<title>Node2&#45;&gt;Node154</title>
<path fill="none" stroke="#63b8ff" d="M2433.13,-216.88C2508.02,-209.59 2629.5,-195.5 2732.5,-173 2735.68,-172.31 2738.93,-171.53 2742.19,-170.7"/>
<polygon fill="#63b8ff" stroke="#63b8ff" points="2433.1,-213.36 2423.48,-217.8 2433.76,-220.33 2433.1,-213.36"/>
</g>
<!-- Node155 -->
<g id="node30" class="node">
<title>Node155</title>
<g id="a_node30"><a xlink:href="d__a__tag__setrestart_8h.html" target="_top" xlink:title=" ">
<polygon fill="white" stroke="#666666" points="2976.5,-173 2868.5,-173 2868.5,-132 2976.5,-132 2976.5,-173"/>
<text text-anchor="start" x="2876.5" y="-161" font-family="Helvetica,sans-Serif" font-size="10.00">include/rel/d/a/tag</text>
<text text-anchor="start" x="2876.5" y="-150" font-family="Helvetica,sans-Serif" font-size="10.00">/d_a_tag_setrestart</text>
<text text-anchor="middle" x="2922.5" y="-139" font-family="Helvetica,sans-Serif" font-size="10.00">/d_a_tag_setrestart.h</text>
</a>
</g>
</g>
<!-- Node2&#45;&gt;Node155 -->
<g id="edge34" class="edge">
<title>Node2&#45;&gt;Node155</title>
<path fill="none" stroke="#63b8ff" d="M2433.4,-220.32C2530.43,-215.65 2709.64,-203.41 2859.5,-173 2862.31,-172.43 2865.16,-171.79 2868.04,-171.09"/>
<polygon fill="#63b8ff" stroke="#63b8ff" points="2433.32,-216.82 2423.49,-220.79 2433.65,-223.82 2433.32,-216.82"/>
</g>
<!-- Node76 -->
<g id="node31" class="node">
<title>Node76</title>
<g id="a_node31"><a xlink:href="d__a__tag__spinner_8h.html" target="_top" xlink:title=" ">
<polygon fill="white" stroke="#666666" points="3104.5,-173 2994.5,-173 2994.5,-132 3104.5,-132 3104.5,-173"/>
<text text-anchor="start" x="3002.5" y="-161" font-family="Helvetica,sans-Serif" font-size="10.00">include/rel/d/a/tag</text>
<text text-anchor="start" x="3002.5" y="-150" font-family="Helvetica,sans-Serif" font-size="10.00">/d_a_tag_spinner/d_a</text>
<text text-anchor="middle" x="3049.5" y="-139" font-family="Helvetica,sans-Serif" font-size="10.00">_tag_spinner.h</text>
</a>
</g>
</g>
<!-- Node2&#45;&gt;Node76 -->
<g id="edge35" class="edge">
<title>Node2&#45;&gt;Node76</title>
<path fill="none" stroke="#63b8ff" d="M2433.1,-222.27C2549.3,-219.97 2787.69,-210.62 2985.5,-173 2988.35,-172.46 2991.26,-171.84 2994.18,-171.15"/>
<polygon fill="#63b8ff" stroke="#63b8ff" points="2433.35,-218.77 2423.42,-222.45 2433.48,-225.76 2433.35,-218.77"/>
</g>
<!-- Node156 -->
<g id="node32" class="node">
<title>Node156</title>
<g id="a_node32"><a xlink:href="d__a__tag__wara__howl_8h.html" target="_top" xlink:title=" ">
<polygon fill="white" stroke="#666666" points="3236.5,-173 3122.5,-173 3122.5,-132 3236.5,-132 3236.5,-173"/>
<text text-anchor="start" x="3130.5" y="-161" font-family="Helvetica,sans-Serif" font-size="10.00">include/rel/d/a/tag</text>
<text text-anchor="start" x="3130.5" y="-150" font-family="Helvetica,sans-Serif" font-size="10.00">/d_a_tag_wara_howl/d</text>
<text text-anchor="middle" x="3179.5" y="-139" font-family="Helvetica,sans-Serif" font-size="10.00">_a_tag_wara_howl.h</text>
</a>
</g>
</g>
<!-- Node2&#45;&gt;Node156 -->
<g id="edge36" class="edge">
<title>Node2&#45;&gt;Node156</title>
<path fill="none" stroke="#63b8ff" d="M2433.22,-223.47C2567.11,-223.21 2866.33,-217.18 3113.5,-173 3116.32,-172.5 3119.2,-171.91 3122.09,-171.27"/>
<polygon fill="#63b8ff" stroke="#63b8ff" points="2433.45,-219.97 2423.46,-223.47 2433.46,-226.97 2433.45,-219.97"/>
</g>
<!-- Node157 -->
<g id="node33" class="node">
<title>Node157</title>
<g id="a_node33"><a xlink:href="d__bg__s__acch_8cpp.html" target="_top" xlink:title=" ">
<polygon fill="white" stroke="#666666" points="3386,-162 3255,-162 3255,-143 3386,-143 3386,-162"/>
<text text-anchor="middle" x="3320.5" y="-150" font-family="Helvetica,sans-Serif" font-size="10.00">src/d/bg/d_bg_s_acch.cpp</text>
</a>
</g>
</g>
<!-- Node2&#45;&gt;Node157 -->
<g id="edge39" class="edge">
<title>Node2&#45;&gt;Node157</title>
<path fill="none" stroke="#63b8ff" d="M2433.15,-223.72C2583.55,-224.21 2946.12,-219.92 3245.5,-173 3260.92,-170.58 3277.76,-166.35 3291.58,-162.45"/>
<polygon fill="#63b8ff" stroke="#63b8ff" points="2433.36,-220.22 2423.34,-223.68 2433.33,-227.22 2433.36,-220.22"/>
</g>
<!-- Node158 -->
<g id="node34" class="node">
<title>Node158</title>
<g id="a_node34"><a xlink:href="d__bg__s__lin__chk_8cpp.html" target="_top" xlink:title=" ">
<polygon fill="white" stroke="#666666" points="3505,-167.5 3404,-167.5 3404,-137.5 3505,-137.5 3505,-167.5"/>
<text text-anchor="start" x="3412" y="-155.5" font-family="Helvetica,sans-Serif" font-size="10.00">src/d/bg/d_bg_s_lin</text>
<text text-anchor="middle" x="3454.5" y="-144.5" font-family="Helvetica,sans-Serif" font-size="10.00">_chk.cpp</text>
</a>
</g>
</g>
<!-- Node2&#45;&gt;Node158 -->
<g id="edge40" class="edge">
<title>Node2&#45;&gt;Node158</title>
<path fill="none" stroke="#63b8ff" d="M2433.11,-222.02C2634.56,-218.83 3209.42,-206.93 3394.5,-173 3401.29,-171.76 3408.37,-169.94 3415.19,-167.92"/>
<polygon fill="#63b8ff" stroke="#63b8ff" points="2433.27,-218.52 2423.32,-222.17 2433.37,-225.51 2433.27,-218.52"/>
</g>
<!-- Node159 -->
<g id="node35" class="node">
<title>Node159</title>
<g id="a_node35"><a xlink:href="d__cc__d__nonmatching_8cpp.html" target="_top" xlink:title=" ">
<polygon fill="white" stroke="#666666" points="3688,-162 3523,-162 3523,-143 3688,-143 3688,-162"/>
<text text-anchor="middle" x="3605.5" y="-150" font-family="Helvetica,sans-Serif" font-size="10.00">src/d/cc/d_cc_d_nonmatching.cpp</text>
</a>
</g>
</g>
<!-- Node2&#45;&gt;Node159 -->
<g id="edge41" class="edge">
<title>Node2&#45;&gt;Node159</title>
<path fill="none" stroke="#63b8ff" d="M2433.18,-221.46C2649.85,-216.51 3302.85,-199.71 3513.5,-173 3532.29,-170.62 3552.94,-166.39 3569.91,-162.48"/>
<polygon fill="#63b8ff" stroke="#63b8ff" points="2433.4,-217.96 2423.48,-221.68 2433.56,-224.96 2433.4,-217.96"/>
</g>
<!-- Node102 -->
<g id="node36" class="node">
<title>Node102</title>
<g id="a_node36"><a xlink:href="d__insect_8cpp.html" target="_top" xlink:title=" ">
<polygon fill="white" stroke="#666666" points="3802.5,-162 3706.5,-162 3706.5,-143 3802.5,-143 3802.5,-162"/>
<text text-anchor="middle" x="3754.5" y="-150" font-family="Helvetica,sans-Serif" font-size="10.00">src/d/d_insect.cpp</text>
</a>
</g>
</g>
<!-- Node2&#45;&gt;Node102 -->
<g id="edge43" class="edge">
<title>Node2&#45;&gt;Node102</title>
<path fill="none" stroke="#63b8ff" d="M2432.93,-223.02C2671.91,-222.66 3450.61,-217.97 3696.5,-173 3708.83,-170.74 3722.12,-166.43 3732.86,-162.42"/>
<polygon fill="#63b8ff" stroke="#63b8ff" points="2433.14,-219.52 2423.14,-223.03 2433.15,-226.52 2433.14,-219.52"/>
</g>
<!-- Node160 -->
<g id="node37" class="node">
<title>Node160</title>
<g id="a_node37"><a xlink:href="d__jnt__col_8cpp.html" target="_top" xlink:title=" ">
<polygon fill="white" stroke="#666666" points="3918.5,-162 3820.5,-162 3820.5,-143 3918.5,-143 3918.5,-162"/>
<text text-anchor="middle" x="3869.5" y="-150" font-family="Helvetica,sans-Serif" font-size="10.00">src/d/d_jnt_col.cpp</text>
</a>
</g>
</g>
<!-- Node2&#45;&gt;Node160 -->
<g id="edge44" class="edge">
<title>Node2&#45;&gt;Node160</title>
<path fill="none" stroke="#63b8ff" d="M2433,-223.26C2685.27,-223.78 3542.27,-221.83 3811.5,-173 3823.83,-170.76 3837.12,-166.45 3847.86,-162.44"/>
<polygon fill="#63b8ff" stroke="#63b8ff" points="2433.33,-219.76 2423.32,-223.24 2433.31,-226.76 2433.33,-219.76"/>
</g>
<!-- Node49 -->
<g id="node38" class="node">
<title>Node49</title>
<g id="a_node38"><a xlink:href="d__event_8cpp.html" target="_top" xlink:title=" ">
<polygon fill="white" stroke="#666666" points="4058,-162 3937,-162 3937,-143 4058,-143 4058,-162"/>
<text text-anchor="middle" x="3997.5" y="-150" font-family="Helvetica,sans-Serif" font-size="10.00">src/d/event/d_event.cpp</text>
</a>
</g>
</g>
<!-- Node2&#45;&gt;Node49 -->
<g id="edge45" class="edge">
<title>Node2&#45;&gt;Node49</title>
<path fill="none" stroke="#63b8ff" d="M2433.15,-222.99C2698.24,-222.6 3633.43,-217.99 3927.5,-173 3942.22,-170.75 3958.24,-166.43 3971.23,-162.43"/>
<polygon fill="#63b8ff" stroke="#63b8ff" points="2433.29,-219.49 2423.29,-223 2433.3,-226.49 2433.29,-219.49"/>
</g>
<!-- Node111 -->
<g id="node39" class="node">
<title>Node111</title>
<g id="a_node39"><a xlink:href="d__event__lib_8cpp.html" target="_top" xlink:title=" ">
<polygon fill="white" stroke="#666666" points="4179,-167.5 4076,-167.5 4076,-137.5 4179,-137.5 4179,-167.5"/>
<text text-anchor="start" x="4084" y="-155.5" font-family="Helvetica,sans-Serif" font-size="10.00">src/d/event/d_event</text>
<text text-anchor="middle" x="4127.5" y="-144.5" font-family="Helvetica,sans-Serif" font-size="10.00">_lib.cpp</text>
</a>
</g>
</g>
<!-- Node2&#45;&gt;Node111 -->
<g id="edge46" class="edge">
<title>Node2&#45;&gt;Node111</title>
<path fill="none" stroke="#63b8ff" d="M2433.01,-222.1C2734.08,-218.07 3904.04,-200.78 4066.5,-173 4073.51,-171.8 4080.83,-169.98 4087.87,-167.93"/>
<polygon fill="#63b8ff" stroke="#63b8ff" points="2433.29,-218.59 2423.34,-222.22 2433.39,-225.59 2433.29,-218.59"/>
</g>
<!-- Node161 -->
<g id="node40" class="node">
<title>Node161</title>
<g id="a_node40"><a xlink:href="d__shop__item__ctrl_8cpp.html" target="_top" xlink:title=" ">
<polygon fill="white" stroke="#666666" points="4318,-167.5 4197,-167.5 4197,-137.5 4318,-137.5 4318,-167.5"/>
<text text-anchor="start" x="4205" y="-155.5" font-family="Helvetica,sans-Serif" font-size="10.00">src/d/shop/d_shop_item</text>
<text text-anchor="middle" x="4257.5" y="-144.5" font-family="Helvetica,sans-Serif" font-size="10.00">_ctrl.cpp</text>
</a>
</g>
</g>
<!-- Node2&#45;&gt;Node161 -->
<g id="edge47" class="edge">
<title>Node2&#45;&gt;Node161</title>
<path fill="none" stroke="#63b8ff" d="M2432.95,-223.37C2724.81,-224.53 3839.94,-225.36 4187.5,-173 4195.48,-171.8 4203.85,-169.98 4211.91,-167.92"/>
<polygon fill="#63b8ff" stroke="#63b8ff" points="2433.23,-219.87 2423.21,-223.33 2433.2,-226.87 2433.23,-219.87"/>
</g>
<!-- Node123 -->
<g id="node41" class="node">
<title>Node123</title>
<g id="a_node41"><a xlink:href="f__op__actor__mng_8cpp.html" target="_top" xlink:title=" ">
<polygon fill="white" stroke="#666666" points="4437,-167.5 4336,-167.5 4336,-137.5 4437,-137.5 4437,-167.5"/>
<text text-anchor="start" x="4344" y="-155.5" font-family="Helvetica,sans-Serif" font-size="10.00">src/f_op/f_op_actor</text>
<text text-anchor="middle" x="4386.5" y="-144.5" font-family="Helvetica,sans-Serif" font-size="10.00">_mng.cpp</text>
</a>
</g>
</g>
<!-- Node2&#45;&gt;Node123 -->
<g id="edge48" class="edge">
<title>Node2&#45;&gt;Node123</title>
<path fill="none" stroke="#63b8ff" d="M2433.25,-222.41C2762.57,-219.49 4137.33,-205.44 4326.5,-173 4333.41,-171.82 4340.61,-170 4347.53,-167.95"/>
<polygon fill="#63b8ff" stroke="#63b8ff" points="2433.46,-218.91 2423.49,-222.49 2433.52,-225.91 2433.46,-218.91"/>
</g>
<!-- Node3&#45;&gt;Node14 -->
<g id="edge3" class="edge">
<title>Node3&#45;&gt;Node14</title>
<path fill="none" stroke="#63b8ff" d="M2467.02,-66.05C2361.23,-53.17 2161.9,-28.92 2065.49,-17.19"/>
<polygon fill="#63b8ff" stroke="#63b8ff" points="2466.35,-69.49 2476.7,-67.22 2467.19,-62.54 2466.35,-69.49"/>
</g>
<!-- Node135&#45;&gt;Node14 -->
<g id="edge7" class="edge">
<title>Node135&#45;&gt;Node14</title>
<path fill="none" stroke="#63b8ff" d="M286.35,-131.29C285.22,-108.81 287.42,-73.27 309.5,-55 341.95,-28.15 1667.3,-13.82 1955.54,-11.01"/>
<polygon fill="#63b8ff" stroke="#63b8ff" points="282.84,-131.32 287.13,-141 289.82,-130.76 282.84,-131.32"/>
</g>
<!-- Node135&#45;&gt;Node136 -->
<g id="edge8" class="edge">
<title>Node135&#45;&gt;Node136</title>
<path fill="none" stroke="#63b8ff" d="M305.52,-134.92C321.2,-119.65 343.88,-97.56 356.38,-85.39"/>
<polygon fill="#63b8ff" stroke="#63b8ff" points="303.44,-132.06 298.72,-141.55 308.33,-137.08 303.44,-132.06"/>
</g>
<!-- Node140&#45;&gt;Node77 -->
<g id="edge12" class="edge">
<title>Node140&#45;&gt;Node77</title>
<path fill="none" stroke="#63b8ff" d="M757.03,-127.66C767.05,-113.21 779.24,-95.63 786.41,-85.29"/>
<polygon fill="#63b8ff" stroke="#63b8ff" points="754.21,-125.58 751.39,-135.8 759.96,-129.57 754.21,-125.58"/>
</g>
<!-- Node142&#45;&gt;Node14 -->
<g id="edge15" class="edge">
<title>Node142&#45;&gt;Node14</title>
<path fill="none" stroke="#63b8ff" d="M1171.2,-70.25C1336.21,-58.5 1796.78,-25.71 1955.73,-14.4"/>
<polygon fill="#63b8ff" stroke="#63b8ff" points="1171.07,-66.75 1161.34,-70.95 1171.57,-73.73 1171.07,-66.75"/>
</g>
<!-- Node143&#45;&gt;Node14 -->
<g id="edge17" class="edge">
<title>Node143&#45;&gt;Node14</title>
<path fill="none" stroke="#63b8ff" d="M1870.34,-53.01C1908.02,-41.58 1952.33,-28.14 1980.89,-19.48"/>
<polygon fill="#63b8ff" stroke="#63b8ff" points="1869.4,-49.64 1860.85,-55.89 1871.43,-56.34 1869.4,-49.64"/>
</g>
<!-- Node151&#45;&gt;Node14 -->
<g id="edge29" class="edge">
<title>Node151&#45;&gt;Node14</title>
<path fill="none" stroke="#63b8ff" d="M2074.11,-48.9C2056.74,-38.42 2037.78,-26.97 2025.13,-19.33"/>
<polygon fill="#63b8ff" stroke="#63b8ff" points="2071.88,-51.65 2082.25,-53.82 2075.49,-45.65 2071.88,-51.65"/>
</g>
<!-- Node152&#45;&gt;Node3 -->
<g id="edge31" class="edge">
<title>Node152&#45;&gt;Node3</title>
<path fill="none" stroke="#63b8ff" d="M2536.5,-120.53C2536.5,-107.74 2536.5,-93.92 2536.5,-85.24"/>
<polygon fill="#63b8ff" stroke="#63b8ff" points="2533,-120.28 2536.5,-130.28 2540,-120.28 2533,-120.28"/>
</g>
<!-- Node162&#45;&gt;Node2 -->
<g id="edge50" class="edge">
<title>Node162&#45;&gt;Node2</title>
<path fill="none" stroke="#63b8ff" d="M4537.15,-286.66C4175.62,-276.41 2733.33,-235.52 2421.95,-226.69"/>
<polygon fill="#63b8ff" stroke="#63b8ff" points="4536.93,-290.16 4547.03,-286.94 4537.13,-283.16 4536.93,-290.16"/>
</g>
<!-- Node163 -->
<g id="node43" class="node">
<title>Node163</title>
<g id="a_node43"><a xlink:href="f__op__kankyo_8h.html" target="_top" xlink:title=" ">
<polygon fill="#fff0f0" stroke="red" points="4805.5,-162 4671.5,-162 4671.5,-143 4805.5,-143 4805.5,-162"/>
<text text-anchor="middle" x="4738.5" y="-150" font-family="Helvetica,sans-Serif" font-size="10.00">include/f_op/f_op_kankyo.h</text>
</a>
</g>
</g>
<!-- Node162&#45;&gt;Node163 -->
<g id="edge51" class="edge">
<title>Node162&#45;&gt;Node163</title>
<path fill="none" stroke="#63b8ff" d="M4625.51,-269.47C4631.55,-252.18 4642.16,-226.96 4657.5,-209 4675.1,-188.39 4702.08,-171.97 4720.01,-162.49"/>
<polygon fill="#63b8ff" stroke="#63b8ff" points="4622.25,-268.19 4622.46,-278.78 4628.9,-270.37 4622.25,-268.19"/>
</g>
<!-- Node167 -->
<g id="node44" class="node">
<title>Node167</title>
<g id="a_node44"><a xlink:href="f__op__kankyo__mng_8h.html" target="_top" xlink:title=" ">
<polygon fill="#fff0f0" stroke="red" points="4794,-239 4667,-239 4667,-209 4794,-209 4794,-239"/>
<text text-anchor="start" x="4675" y="-227" font-family="Helvetica,sans-Serif" font-size="10.00">include/f_op/f_op_kankyo</text>
<text text-anchor="middle" x="4730.5" y="-216" font-family="Helvetica,sans-Serif" font-size="10.00">_mng.h</text>
</a>
</g>
</g>
<!-- Node162&#45;&gt;Node167 -->
<g id="edge52" class="edge">
<title>Node162&#45;&gt;Node167</title>
<path fill="none" stroke="#63b8ff" d="M4644.81,-274.41C4662.95,-263.94 4687.29,-249.91 4705.39,-239.48"/>
<polygon fill="#63b8ff" stroke="#63b8ff" points="4643.16,-271.32 4636.25,-279.35 4646.66,-277.38 4643.16,-271.32"/>
</g>
<!-- Node168 -->
<g id="node45" class="node">
<title>Node168</title>
<g id="a_node45"><a xlink:href="f__op__scene__mng_8h.html" target="_top" xlink:title=" ">
<polygon fill="#fff0f0" stroke="red" points="4572.5,-239 4450.5,-239 4450.5,-209 4572.5,-209 4572.5,-239"/>
<text text-anchor="start" x="4458.5" y="-227" font-family="Helvetica,sans-Serif" font-size="10.00">include/f_op/f_op_scene</text>
<text text-anchor="middle" x="4511.5" y="-216" font-family="Helvetica,sans-Serif" font-size="10.00">_mng.h</text>
</a>
</g>
</g>
<!-- Node162&#45;&gt;Node168 -->
<g id="edge54" class="edge">
<title>Node162&#45;&gt;Node168</title>
<path fill="none" stroke="#63b8ff" d="M4594.88,-274.41C4577.22,-263.94 4553.54,-249.91 4535.93,-239.48"/>
<polygon fill="#63b8ff" stroke="#63b8ff" points="4592.79,-277.24 4603.18,-279.33 4596.36,-271.22 4592.79,-277.24"/>
</g>
<!-- Node170 -->
<g id="node46" class="node">
<title>Node170</title>
<g id="a_node46"><a xlink:href="f__ap__game_8cpp.html" target="_top" xlink:title=" ">
<polygon fill="white" stroke="#666666" points="4653,-162 4532,-162 4532,-143 4653,-143 4653,-162"/>
<text text-anchor="middle" x="4592.5" y="-150" font-family="Helvetica,sans-Serif" font-size="10.00">src/f_ap/f_ap_game.cpp</text>
</a>
</g>
</g>
<!-- Node162&#45;&gt;Node170 -->
<g id="edge56" class="edge">
<title>Node162&#45;&gt;Node170</title>
<path fill="none" stroke="#63b8ff" d="M4615.51,-268.98C4609.53,-238.99 4598.5,-183.63 4594.24,-162.25"/>
<polygon fill="#63b8ff" stroke="#63b8ff" points="4612.05,-269.5 4617.43,-278.63 4618.91,-268.13 4612.05,-269.5"/>
</g>
<!-- Node162&#45;&gt;Node173 -->
<g id="edge57" class="edge">
<title>Node162&#45;&gt;Node173</title>
<path fill="none" stroke="#63b8ff" d="M4665.15,-277.22C4706.72,-266.49 4768.19,-250.63 4812.47,-239.2"/>
<polygon fill="#63b8ff" stroke="#63b8ff" points="4664.52,-273.77 4655.71,-279.66 4666.27,-280.55 4664.52,-273.77"/>
</g>
<!-- Node167&#45;&gt;Node163 -->
<g id="edge53" class="edge">
<title>Node167&#45;&gt;Node163</title>
<path fill="none" stroke="#63b8ff" d="M4733.44,-197.46C4734.87,-185.07 4736.49,-170.99 4737.5,-162.18"/>
<polygon fill="#63b8ff" stroke="#63b8ff" points="4730,-196.76 4732.33,-207.1 4736.95,-197.56 4730,-196.76"/>
</g>
<!-- Node168&#45;&gt;Node170 -->
<g id="edge55" class="edge">
<title>Node168&#45;&gt;Node170</title>
<path fill="none" stroke="#63b8ff" d="M4536.87,-201.23C4552.26,-188.03 4571.05,-171.9 4582.38,-162.18"/>
<polygon fill="#63b8ff" stroke="#63b8ff" points="4534.74,-198.45 4529.43,-207.61 4539.3,-203.76 4534.74,-198.45"/>
</g>
</g>
</svg>
