<?xml version="1.0" encoding="UTF-8" standalone="no"?>
<!DOCTYPE svg PUBLIC "-//W3C//DTD SVG 1.1//EN"
 "http://www.w3.org/Graphics/SVG/1.1/DTD/svg11.dtd">
<!-- Generated by graphviz version 7.0.5 (20221223.1930)
 -->
<!-- Title: src/f_pc/f_pc_leaf.cpp Pages: 1 -->
<svg width="984pt" height="632pt"
 viewBox="0.00 0.00 984.00 632.00" xmlns="http://www.w3.org/2000/svg" xmlns:xlink="http://www.w3.org/1999/xlink">
<g id="graph0" class="graph" transform="scale(1 1) rotate(0) translate(4 628)">
<title>src/f_pc/f_pc_leaf.cpp</title>
<!-- Node1 -->
<g id="node1" class="node">
<title>Node1</title>
<g id="a_node1"><a xlink:title=" ">
<polygon fill="#999999" stroke="#666666" points="488.5,-624 375.5,-624 375.5,-605 488.5,-605 488.5,-624"/>
<text text-anchor="middle" x="432" y="-612" font-family="Helvetica,sans-Serif" font-size="10.00">src/f_pc/f_pc_leaf.cpp</text>
</a>
</g>
</g>
<!-- Node2 -->
<g id="node2" class="node">
<title>Node2</title>
<g id="a_node2"><a xlink:href="f__pc__leaf_8h.html" target="_top" xlink:title=" ">
<polygon fill="white" stroke="#666666" points="475,-569 389,-569 389,-550 475,-550 475,-569"/>
<text text-anchor="middle" x="432" y="-557" font-family="Helvetica,sans-Serif" font-size="10.00">f_pc/f_pc_leaf.h</text>
</a>
</g>
</g>
<!-- Node1&#45;&gt;Node2 -->
<g id="edge1" class="edge">
<title>Node1&#45;&gt;Node2</title>
<path fill="none" stroke="#63b8ff" d="M432,-604.75C432,-598.27 432,-589.16 432,-580.9"/>
<polygon fill="#63b8ff" stroke="#63b8ff" points="435.5,-580.96 432,-570.96 428.5,-580.96 435.5,-580.96"/>
</g>
<!-- Node3 -->
<g id="node3" class="node">
<title>Node3</title>
<g id="a_node3"><a xlink:href="types_8h.html" target="_top" xlink:title=" ">
<polygon fill="white" stroke="#666666" points="510.5,-85 429.5,-85 429.5,-66 510.5,-66 510.5,-85"/>
<text text-anchor="middle" x="470" y="-73" font-family="Helvetica,sans-Serif" font-size="10.00">dolphin/types.h</text>
</a>
</g>
</g>
<!-- Node1&#45;&gt;Node3 -->
<g id="edge45" class="edge">
<title>Node1&#45;&gt;Node3</title>
<path fill="none" stroke="#63b8ff" d="M375.08,-611.14C257.77,-604.73 0,-581.94 0,-505.5 0,-505.5 0,-505.5 0,-201 0,-140.91 53.15,-143.17 109,-121 163.99,-99.17 331.9,-85.46 417.95,-79.67"/>
<polygon fill="#63b8ff" stroke="#63b8ff" points="418.03,-83.17 427.77,-79.02 417.56,-76.19 418.03,-83.17"/>
</g>
<!-- Node19 -->
<g id="node19" class="node">
<title>Node19</title>
<g id="a_node19"><a xlink:href="dol2asm_8h.html" target="_top" xlink:title=" ">
<polygon fill="white" stroke="#666666" points="554.5,-569 493.5,-569 493.5,-550 554.5,-550 554.5,-569"/>
<text text-anchor="middle" x="524" y="-557" font-family="Helvetica,sans-Serif" font-size="10.00">dol2asm.h</text>
</a>
</g>
</g>
<!-- Node1&#45;&gt;Node19 -->
<g id="edge44" class="edge">
<title>Node1&#45;&gt;Node19</title>
<path fill="none" stroke="#63b8ff" d="M447.61,-604.51C461.7,-596.39 482.69,-584.3 499.1,-574.85"/>
<polygon fill="#63b8ff" stroke="#63b8ff" points="500.39,-578.14 507.31,-570.11 496.9,-572.07 500.39,-578.14"/>
</g>
<!-- Node2&#45;&gt;Node3 -->
<g id="edge2" class="edge">
<title>Node2&#45;&gt;Node3</title>
<path fill="none" stroke="#63b8ff" d="M475.35,-551.38C525.64,-542.99 610.99,-528.38 684,-514 814.31,-488.34 976,-583.31 976,-450.5 976,-450.5 976,-450.5 976,-201 976,-108.24 651.33,-84.2 522.13,-78.31"/>
<polygon fill="#63b8ff" stroke="#63b8ff" points="522.63,-74.83 512.49,-77.89 522.33,-81.82 522.63,-74.83"/>
</g>
<!-- Node5 -->
<g id="node5" class="node">
<title>Node5</title>
<g id="a_node5"><a xlink:href="f__pc__base_8h.html" target="_top" xlink:title=" ">
<polygon fill="white" stroke="#666666" points="477.5,-514 386.5,-514 386.5,-495 477.5,-495 477.5,-514"/>
<text text-anchor="middle" x="432" y="-502" font-family="Helvetica,sans-Serif" font-size="10.00">f_pc/f_pc_base.h</text>
</a>
</g>
</g>
<!-- Node2&#45;&gt;Node5 -->
<g id="edge4" class="edge">
<title>Node2&#45;&gt;Node5</title>
<path fill="none" stroke="#63b8ff" d="M432,-549.75C432,-543.27 432,-534.16 432,-525.9"/>
<polygon fill="#63b8ff" stroke="#63b8ff" points="435.5,-525.96 432,-515.96 428.5,-525.96 435.5,-525.96"/>
</g>
<!-- Node17 -->
<g id="node17" class="node">
<title>Node17</title>
<g id="a_node17"><a xlink:href="f__pc__method_8h.html" target="_top" xlink:title=" ">
<polygon fill="white" stroke="#666666" points="130,-404 28,-404 28,-385 130,-385 130,-404"/>
<text text-anchor="middle" x="79" y="-392" font-family="Helvetica,sans-Serif" font-size="10.00">f_pc/f_pc_method.h</text>
</a>
</g>
</g>
<!-- Node2&#45;&gt;Node17 -->
<g id="edge43" class="edge">
<title>Node2&#45;&gt;Node17</title>
<path fill="none" stroke="#63b8ff" d="M388.51,-552.58C303.24,-540.01 119.06,-507.73 81,-459 71.54,-446.89 71.79,-429.15 73.97,-415.49"/>
<polygon fill="#63b8ff" stroke="#63b8ff" points="77.37,-416.37 76,-405.87 70.52,-414.93 77.37,-416.37"/>
</g>
<!-- Node18 -->
<g id="node18" class="node">
<title>Node18</title>
<g id="a_node18"><a xlink:href="f__pc__draw__priority_8h.html" target="_top" xlink:title=" ">
<polygon fill="white" stroke="#666666" points="947.5,-343.5 822.5,-343.5 822.5,-324.5 947.5,-324.5 947.5,-343.5"/>
<text text-anchor="middle" x="885" y="-331.5" font-family="Helvetica,sans-Serif" font-size="10.00">f_pc/f_pc_draw_priority.h</text>
</a>
</g>
</g>
<!-- Node2&#45;&gt;Node18 -->
<g id="edge41" class="edge">
<title>Node2&#45;&gt;Node18</title>
<path fill="none" stroke="#63b8ff" d="M473.42,-549.57C566.37,-529.27 785.65,-479.79 813,-459 848.56,-431.96 869.64,-381.9 879.07,-354.38"/>
<polygon fill="#63b8ff" stroke="#63b8ff" points="882.29,-355.82 882.04,-345.23 875.63,-353.67 882.29,-355.82"/>
</g>
<!-- Node4 -->
<g id="node4" class="node">
<title>Node4</title>
<g id="a_node4"><a xlink:href="stddef_8h.html" target="_top" xlink:title=" ">
<polygon fill="white" stroke="#666666" points="538,-30 402,-30 402,0 538,0 538,-30"/>
<text text-anchor="start" x="410" y="-18" font-family="Helvetica,sans-Serif" font-size="10.00">MSL_C/MSL_Common/Src</text>
<text text-anchor="middle" x="470" y="-7" font-family="Helvetica,sans-Serif" font-size="10.00">/stddef.h</text>
</a>
</g>
</g>
<!-- Node3&#45;&gt;Node4 -->
<g id="edge3" class="edge">
<title>Node3&#45;&gt;Node4</title>
<path fill="none" stroke="#63b8ff" d="M470,-65.87C470,-59.4 470,-50.2 470,-41.45"/>
<polygon fill="#63b8ff" stroke="#63b8ff" points="473.5,-41.63 470,-31.63 466.5,-41.63 473.5,-41.63"/>
</g>
<!-- Node5&#45;&gt;Node3 -->
<g id="edge16" class="edge">
<title>Node5&#45;&gt;Node3</title>
<path fill="none" stroke="#63b8ff" d="M386.48,-494.58C337.11,-482.53 259.44,-456.25 215,-404 194.39,-379.77 196,-366.81 196,-335 196,-335 196,-335 196,-201 196,-104.51 338.58,-82.44 418.03,-77.64"/>
<polygon fill="#63b8ff" stroke="#63b8ff" points="417.96,-81.15 427.76,-77.13 417.59,-74.16 417.96,-81.15"/>
</g>
<!-- Node6 -->
<g id="node6" class="node">
<title>Node6</title>
<g id="a_node6"><a xlink:href="c__tag_8h.html" target="_top" xlink:title=" ">
<polygon fill="white" stroke="#666666" points="566,-349 450,-349 450,-319 566,-319 566,-349"/>
<text text-anchor="start" x="458" y="-337" font-family="Helvetica,sans-Serif" font-size="10.00">SSystem/SComponent</text>
<text text-anchor="middle" x="508" y="-326" font-family="Helvetica,sans-Serif" font-size="10.00">/c_tag.h</text>
</a>
</g>
</g>
<!-- Node5&#45;&gt;Node6 -->
<g id="edge5" class="edge">
<title>Node5&#45;&gt;Node6</title>
<path fill="none" stroke="#63b8ff" d="M450.01,-494.61C463.32,-487.04 480.69,-474.88 490,-459 507.86,-428.54 510.31,-386.87 509.71,-360.44"/>
<polygon fill="#63b8ff" stroke="#63b8ff" points="513.21,-360.49 509.3,-350.64 506.22,-360.78 513.21,-360.49"/>
</g>
<!-- Node10 -->
<g id="node10" class="node">
<title>Node10</title>
<g id="a_node10"><a xlink:href="f__pc__delete__tag_8h.html" target="_top" xlink:title=" ">
<polygon fill="white" stroke="#666666" points="804.5,-459 689.5,-459 689.5,-440 804.5,-440 804.5,-459"/>
<text text-anchor="middle" x="747" y="-447" font-family="Helvetica,sans-Serif" font-size="10.00">f_pc/f_pc_delete_tag.h</text>
</a>
</g>
</g>
<!-- Node5&#45;&gt;Node10 -->
<g id="edge17" class="edge">
<title>Node5&#45;&gt;Node10</title>
<path fill="none" stroke="#63b8ff" d="M477.8,-495.79C531.78,-486.71 621.81,-471.56 682.74,-461.31"/>
<polygon fill="#63b8ff" stroke="#63b8ff" points="682.99,-464.82 692.27,-459.71 681.83,-457.92 682.99,-464.82"/>
</g>
<!-- Node12 -->
<g id="node12" class="node">
<title>Node12</title>
<g id="a_node12"><a xlink:href="f__pc__layer__tag_8h.html" target="_top" xlink:title=" ">
<polygon fill="white" stroke="#666666" points="671.5,-459 562.5,-459 562.5,-440 671.5,-440 671.5,-459"/>
<text text-anchor="middle" x="617" y="-447" font-family="Helvetica,sans-Serif" font-size="10.00">f_pc/f_pc_layer_tag.h</text>
</a>
</g>
</g>
<!-- Node5&#45;&gt;Node12 -->
<g id="edge25" class="edge">
<title>Node5&#45;&gt;Node12</title>
<path fill="none" stroke="#63b8ff" d="M463.38,-494.51C494.04,-485.73 540.91,-472.3 574.81,-462.59"/>
<polygon fill="#63b8ff" stroke="#63b8ff" points="575.67,-465.98 584.32,-459.86 573.74,-459.25 575.67,-465.98"/>
</g>
<!-- Node13 -->
<g id="node13" class="node">
<title>Node13</title>
<g id="a_node13"><a xlink:href="f__pc__line__tag_8h.html" target="_top" xlink:title=" ">
<polygon fill="white" stroke="#666666" points="328,-404 224,-404 224,-385 328,-385 328,-404"/>
<text text-anchor="middle" x="276" y="-392" font-family="Helvetica,sans-Serif" font-size="10.00">f_pc/f_pc_line_tag.h</text>
</a>
</g>
</g>
<!-- Node5&#45;&gt;Node13 -->
<g id="edge29" class="edge">
<title>Node5&#45;&gt;Node13</title>
<path fill="none" stroke="#63b8ff" d="M419.23,-494.66C392.72,-476.31 331.42,-433.87 298.26,-410.91"/>
<polygon fill="#63b8ff" stroke="#63b8ff" points="300.4,-408.14 290.19,-405.32 296.42,-413.89 300.4,-408.14"/>
</g>
<!-- Node14 -->
<g id="node14" class="node">
<title>Node14</title>
<g id="a_node14"><a xlink:href="f__pc__priority_8h.html" target="_top" xlink:title=" ">
<polygon fill="white" stroke="#666666" points="481,-459 383,-459 383,-440 481,-440 481,-459"/>
<text text-anchor="middle" x="432" y="-447" font-family="Helvetica,sans-Serif" font-size="10.00">f_pc/f_pc_priority.h</text>
</a>
</g>
</g>
<!-- Node5&#45;&gt;Node14 -->
<g id="edge32" class="edge">
<title>Node5&#45;&gt;Node14</title>
<path fill="none" stroke="#63b8ff" d="M432,-494.75C432,-488.27 432,-479.16 432,-470.9"/>
<polygon fill="#63b8ff" stroke="#63b8ff" points="435.5,-470.96 432,-460.96 428.5,-470.96 435.5,-470.96"/>
</g>
<!-- Node16 -->
<g id="node16" class="node">
<title>Node16</title>
<g id="a_node16"><a xlink:href="f__pc__profile_8h.html" target="_top" xlink:title=" ">
<polygon fill="white" stroke="#666666" points="185.5,-459 90.5,-459 90.5,-440 185.5,-440 185.5,-459"/>
<text text-anchor="middle" x="138" y="-447" font-family="Helvetica,sans-Serif" font-size="10.00">f_pc/f_pc_profile.h</text>
</a>
</g>
</g>
<!-- Node5&#45;&gt;Node16 -->
<g id="edge37" class="edge">
<title>Node5&#45;&gt;Node16</title>
<path fill="none" stroke="#63b8ff" d="M386.06,-495.22C334.99,-486.01 252.39,-471.12 196.68,-461.08"/>
<polygon fill="#63b8ff" stroke="#63b8ff" points="197.51,-457.67 187.05,-459.34 196.27,-464.56 197.51,-457.67"/>
</g>
<!-- Node6&#45;&gt;Node3 -->
<g id="edge15" class="edge">
<title>Node6&#45;&gt;Node3</title>
<path fill="none" stroke="#63b8ff" d="M488.25,-318.83C462.88,-299.28 420.09,-261.36 403,-217 385.28,-171.01 426.81,-119.24 452.17,-93.26"/>
<polygon fill="#63b8ff" stroke="#63b8ff" points="454.31,-96.07 458.96,-86.55 449.39,-91.09 454.31,-96.07"/>
</g>
<!-- Node7 -->
<g id="node7" class="node">
<title>Node7</title>
<g id="a_node7"><a xlink:href="c__list_8h.html" target="_top" xlink:title=" ">
<polygon fill="white" stroke="#666666" points="528,-217 412,-217 412,-187 528,-187 528,-217"/>
<text text-anchor="start" x="420" y="-205" font-family="Helvetica,sans-Serif" font-size="10.00">SSystem/SComponent</text>
<text text-anchor="middle" x="470" y="-194" font-family="Helvetica,sans-Serif" font-size="10.00">/c_list.h</text>
</a>
</g>
</g>
<!-- Node6&#45;&gt;Node7 -->
<g id="edge6" class="edge">
<title>Node6&#45;&gt;Node7</title>
<path fill="none" stroke="#63b8ff" d="M503.79,-318.59C497.43,-296.82 485.27,-255.25 477.41,-228.34"/>
<polygon fill="#63b8ff" stroke="#63b8ff" points="480.82,-227.54 474.66,-218.93 474.1,-229.51 480.82,-227.54"/>
</g>
<!-- Node8 -->
<g id="node8" class="node">
<title>Node8</title>
<g id="a_node8"><a xlink:href="c__node_8h.html" target="_top" xlink:title=" ">
<polygon fill="white" stroke="#666666" points="614,-151 498,-151 498,-121 614,-121 614,-151"/>
<text text-anchor="start" x="506" y="-139" font-family="Helvetica,sans-Serif" font-size="10.00">SSystem/SComponent</text>
<text text-anchor="middle" x="556" y="-128" font-family="Helvetica,sans-Serif" font-size="10.00">/c_node.h</text>
</a>
</g>
</g>
<!-- Node6&#45;&gt;Node8 -->
<g id="edge10" class="edge">
<title>Node6&#45;&gt;Node8</title>
<path fill="none" stroke="#63b8ff" d="M511.27,-318.51C514.93,-302.45 521.13,-275.81 527,-253 531.14,-236.92 532.86,-233.08 537,-217 541.68,-198.82 546.57,-178.21 550.21,-162.47"/>
<polygon fill="#63b8ff" stroke="#63b8ff" points="553.56,-163.5 552.39,-152.97 546.74,-161.93 553.56,-163.5"/>
</g>
<!-- Node9 -->
<g id="node9" class="node">
<title>Node9</title>
<g id="a_node9"><a xlink:href="c__tree_8h.html" target="_top" xlink:title=" ">
<polygon fill="white" stroke="#666666" points="652,-283 536,-283 536,-253 652,-253 652,-283"/>
<text text-anchor="start" x="544" y="-271" font-family="Helvetica,sans-Serif" font-size="10.00">SSystem/SComponent</text>
<text text-anchor="middle" x="594" y="-260" font-family="Helvetica,sans-Serif" font-size="10.00">/c_tree.h</text>
</a>
</g>
</g>
<!-- Node6&#45;&gt;Node9 -->
<g id="edge11" class="edge">
<title>Node6&#45;&gt;Node9</title>
<path fill="none" stroke="#63b8ff" d="M527.09,-318.8C538.36,-310.4 552.86,-299.62 565.47,-290.23"/>
<polygon fill="#63b8ff" stroke="#63b8ff" points="567.52,-293.07 573.46,-284.29 563.34,-287.45 567.52,-293.07"/>
</g>
<!-- Node7&#45;&gt;Node3 -->
<g id="edge9" class="edge">
<title>Node7&#45;&gt;Node3</title>
<path fill="none" stroke="#63b8ff" d="M470,-186.72C470,-164.64 470,-122.12 470,-96.83"/>
<polygon fill="#63b8ff" stroke="#63b8ff" points="473.5,-96.9 470,-86.9 466.5,-96.9 473.5,-96.9"/>
</g>
<!-- Node7&#45;&gt;Node8 -->
<g id="edge7" class="edge">
<title>Node7&#45;&gt;Node8</title>
<path fill="none" stroke="#63b8ff" d="M489.09,-186.8C500.36,-178.4 514.86,-167.62 527.47,-158.23"/>
<polygon fill="#63b8ff" stroke="#63b8ff" points="529.52,-161.07 535.46,-152.29 525.34,-155.45 529.52,-161.07"/>
</g>
<!-- Node8&#45;&gt;Node3 -->
<g id="edge8" class="edge">
<title>Node8&#45;&gt;Node3</title>
<path fill="none" stroke="#63b8ff" d="M534.74,-120.54C521.82,-111.75 505.34,-100.54 492.25,-91.63"/>
<polygon fill="#63b8ff" stroke="#63b8ff" points="494.49,-88.93 484.26,-86.2 490.56,-94.72 494.49,-88.93"/>
</g>
<!-- Node9&#45;&gt;Node3 -->
<g id="edge14" class="edge">
<title>Node9&#45;&gt;Node3</title>
<path fill="none" stroke="#63b8ff" d="M603.57,-252.51C620.92,-224.27 653.1,-161.1 623,-121 610.72,-104.64 561.56,-92.33 522.23,-84.85"/>
<polygon fill="#63b8ff" stroke="#63b8ff" points="522.88,-81.41 512.41,-83.05 521.62,-88.3 522.88,-81.41"/>
</g>
<!-- Node9&#45;&gt;Node7 -->
<g id="edge12" class="edge">
<title>Node9&#45;&gt;Node7</title>
<path fill="none" stroke="#63b8ff" d="M566.17,-252.64C548.94,-243.74 526.59,-232.21 507.77,-222.49"/>
<polygon fill="#63b8ff" stroke="#63b8ff" points="509.57,-219.49 499.08,-218.01 506.36,-225.71 509.57,-219.49"/>
</g>
<!-- Node9&#45;&gt;Node8 -->
<g id="edge13" class="edge">
<title>Node9&#45;&gt;Node8</title>
<path fill="none" stroke="#63b8ff" d="M589.79,-252.59C583.43,-230.82 571.27,-189.25 563.41,-162.34"/>
<polygon fill="#63b8ff" stroke="#63b8ff" points="566.82,-161.54 560.66,-152.93 560.1,-163.51 566.82,-161.54"/>
</g>
<!-- Node10&#45;&gt;Node3 -->
<g id="edge19" class="edge">
<title>Node10&#45;&gt;Node3</title>
<path fill="none" stroke="#63b8ff" d="M753.54,-439.61C766.45,-421.13 794,-376.8 794,-335 794,-335 794,-335 794,-201 794,-158.1 776.11,-144.16 740,-121 704.79,-98.42 590.3,-85.85 522.24,-80.2"/>
<polygon fill="#63b8ff" stroke="#63b8ff" points="522.67,-76.73 512.42,-79.41 522.11,-83.7 522.67,-76.73"/>
</g>
<!-- Node10&#45;&gt;Node6 -->
<g id="edge18" class="edge">
<title>Node10&#45;&gt;Node6</title>
<path fill="none" stroke="#63b8ff" d="M719.79,-439.61C695.54,-431.36 659.32,-418.25 629,-404 597.98,-389.42 564.21,-369.83 540.25,-355.25"/>
<polygon fill="#63b8ff" stroke="#63b8ff" points="542.26,-352.38 531.91,-350.13 538.6,-358.34 542.26,-352.38"/>
</g>
<!-- Node11 -->
<g id="node11" class="node">
<title>Node11</title>
<g id="a_node11"><a xlink:href="f__pc__layer_8h.html" target="_top" xlink:title=" ">
<polygon fill="white" stroke="#666666" points="728,-404 638,-404 638,-385 728,-385 728,-404"/>
<text text-anchor="middle" x="683" y="-392" font-family="Helvetica,sans-Serif" font-size="10.00">f_pc/f_pc_layer.h</text>
</a>
</g>
</g>
<!-- Node10&#45;&gt;Node11 -->
<g id="edge20" class="edge">
<title>Node10&#45;&gt;Node11</title>
<path fill="none" stroke="#63b8ff" d="M736.14,-439.51C726.89,-431.85 713.38,-420.66 702.29,-411.47"/>
<polygon fill="#63b8ff" stroke="#63b8ff" points="704.8,-409.01 694.86,-405.32 700.33,-414.4 704.8,-409.01"/>
</g>
<!-- Node11&#45;&gt;Node3 -->
<g id="edge24" class="edge">
<title>Node11&#45;&gt;Node3</title>
<path fill="none" stroke="#63b8ff" d="M687.29,-384.68C696.64,-364.63 718,-313.9 718,-269 718,-269 718,-269 718,-201 718,-114.11 594.91,-87.86 522.17,-79.93"/>
<polygon fill="#63b8ff" stroke="#63b8ff" points="522.76,-76.47 512.46,-78.96 522.06,-83.43 522.76,-76.47"/>
</g>
<!-- Node11&#45;&gt;Node6 -->
<g id="edge22" class="edge">
<title>Node11&#45;&gt;Node6</title>
<path fill="none" stroke="#63b8ff" d="M656.42,-384.62C631.45,-376.27 593.32,-363.52 561.97,-353.04"/>
<polygon fill="#63b8ff" stroke="#63b8ff" points="563.22,-349.77 552.63,-349.92 561.01,-356.41 563.22,-349.77"/>
</g>
<!-- Node11&#45;&gt;Node8 -->
<g id="edge21" class="edge">
<title>Node11&#45;&gt;Node8</title>
<path fill="none" stroke="#63b8ff" d="M683.32,-384.77C683.81,-361.91 682.92,-298.9 661,-253 642.65,-214.58 607.41,-179.72 582.84,-158.46"/>
<polygon fill="#63b8ff" stroke="#63b8ff" points="585.37,-156.02 575.47,-152.24 580.85,-161.37 585.37,-156.02"/>
</g>
<!-- Node11&#45;&gt;Node9 -->
<g id="edge23" class="edge">
<title>Node11&#45;&gt;Node9</title>
<path fill="none" stroke="#63b8ff" d="M676.6,-384.55C662.98,-365.49 630.75,-320.41 610.81,-292.52"/>
<polygon fill="#63b8ff" stroke="#63b8ff" points="613.87,-290.78 605.21,-284.68 608.17,-294.85 613.87,-290.78"/>
</g>
<!-- Node12&#45;&gt;Node3 -->
<g id="edge27" class="edge">
<title>Node12&#45;&gt;Node3</title>
<path fill="none" stroke="#63b8ff" d="M671.92,-439.59C694.88,-433.25 720.1,-422.42 737,-404 758.5,-380.56 756,-366.81 756,-335 756,-335 756,-335 756,-201 756,-100.25 604.94,-80.18 522.39,-76.74"/>
<polygon fill="#63b8ff" stroke="#63b8ff" points="522.6,-73.24 512.49,-76.4 522.36,-80.24 522.6,-73.24"/>
</g>
<!-- Node12&#45;&gt;Node6 -->
<g id="edge26" class="edge">
<title>Node12&#45;&gt;Node6</title>
<path fill="none" stroke="#63b8ff" d="M608.45,-439.59C591.66,-422.11 553.92,-382.82 529.78,-357.68"/>
<polygon fill="#63b8ff" stroke="#63b8ff" points="532.37,-355.32 522.92,-350.53 527.32,-360.17 532.37,-355.32"/>
</g>
<!-- Node12&#45;&gt;Node11 -->
<g id="edge28" class="edge">
<title>Node12&#45;&gt;Node11</title>
<path fill="none" stroke="#63b8ff" d="M628.2,-439.51C637.74,-431.85 651.67,-420.66 663.11,-411.47"/>
<polygon fill="#63b8ff" stroke="#63b8ff" points="665.18,-414.3 670.79,-405.31 660.8,-408.84 665.18,-414.3"/>
</g>
<!-- Node13&#45;&gt;Node3 -->
<g id="edge31" class="edge">
<title>Node13&#45;&gt;Node3</title>
<path fill="none" stroke="#63b8ff" d="M277.9,-384.79C282.14,-364.57 292,-312.8 292,-269 292,-269 292,-269 292,-201 292,-138.33 367.01,-104.56 419.64,-88.58"/>
<polygon fill="#63b8ff" stroke="#63b8ff" points="420.41,-92 429.04,-85.86 418.46,-85.28 420.41,-92"/>
</g>
<!-- Node13&#45;&gt;Node6 -->
<g id="edge30" class="edge">
<title>Node13&#45;&gt;Node6</title>
<path fill="none" stroke="#63b8ff" d="M311.49,-384.55C345.51,-375.97 397.77,-362.79 439.85,-352.18"/>
<polygon fill="#63b8ff" stroke="#63b8ff" points="440.55,-355.62 449.4,-349.78 438.84,-348.83 440.55,-355.62"/>
</g>
<!-- Node14&#45;&gt;Node6 -->
<g id="edge33" class="edge">
<title>Node14&#45;&gt;Node6</title>
<path fill="none" stroke="#63b8ff" d="M442.47,-439.81C452.11,-431.4 466.33,-417.92 476,-404 485.47,-390.36 493.36,-373.46 498.94,-359.81"/>
<polygon fill="#63b8ff" stroke="#63b8ff" points="502.14,-361.24 502.51,-350.65 495.62,-358.69 502.14,-361.24"/>
</g>
<!-- Node15 -->
<g id="node15" class="node">
<title>Node15</title>
<g id="a_node15"><a xlink:href="f__pc__method__tag_8h.html" target="_top" xlink:title=" ">
<polygon fill="white" stroke="#666666" points="467.5,-404 346.5,-404 346.5,-385 467.5,-385 467.5,-404"/>
<text text-anchor="middle" x="407" y="-392" font-family="Helvetica,sans-Serif" font-size="10.00">f_pc/f_pc_method_tag.h</text>
</a>
</g>
</g>
<!-- Node14&#45;&gt;Node15 -->
<g id="edge34" class="edge">
<title>Node14&#45;&gt;Node15</title>
<path fill="none" stroke="#63b8ff" d="M427.87,-439.75C424.67,-432.96 420.11,-423.3 416.07,-414.73"/>
<polygon fill="#63b8ff" stroke="#63b8ff" points="419.3,-413.36 411.86,-405.81 412.96,-416.35 419.3,-413.36"/>
</g>
<!-- Node15&#45;&gt;Node3 -->
<g id="edge36" class="edge">
<title>Node15&#45;&gt;Node3</title>
<path fill="none" stroke="#63b8ff" d="M399.03,-384.56C382.49,-365.07 346,-316.66 346,-269 346,-269 346,-269 346,-201 346,-148.11 402.88,-109.75 439.59,-90.5"/>
<polygon fill="#63b8ff" stroke="#63b8ff" points="441.09,-93.67 448.45,-86.05 437.94,-87.42 441.09,-93.67"/>
</g>
<!-- Node15&#45;&gt;Node6 -->
<g id="edge35" class="edge">
<title>Node15&#45;&gt;Node6</title>
<path fill="none" stroke="#63b8ff" d="M422.34,-384.62C435.81,-376.81 455.91,-365.17 473.25,-355.13"/>
<polygon fill="#63b8ff" stroke="#63b8ff" points="474.86,-358.24 481.76,-350.2 471.35,-352.18 474.86,-358.24"/>
</g>
<!-- Node16&#45;&gt;Node3 -->
<g id="edge38" class="edge">
<title>Node16&#45;&gt;Node3</title>
<path fill="none" stroke="#63b8ff" d="M140.61,-439.76C146.04,-420.85 158,-374.62 158,-335 158,-335 158,-335 158,-201 158,-163.88 154,-145.37 182,-121 216.32,-91.12 344.6,-81.26 417.85,-78.04"/>
<polygon fill="#63b8ff" stroke="#63b8ff" points="417.75,-81.55 427.6,-77.64 417.47,-74.55 417.75,-81.55"/>
</g>
<!-- Node16&#45;&gt;Node17 -->
<g id="edge39" class="edge">
<title>Node16&#45;&gt;Node17</title>
<path fill="none" stroke="#63b8ff" d="M127.99,-439.51C119.63,-432 107.5,-421.1 97.4,-412.03"/>
<polygon fill="#63b8ff" stroke="#63b8ff" points="99.76,-409.45 89.99,-405.37 95.09,-414.66 99.76,-409.45"/>
</g>
<!-- Node17&#45;&gt;Node3 -->
<g id="edge40" class="edge">
<title>Node17&#45;&gt;Node3</title>
<path fill="none" stroke="#63b8ff" d="M81.58,-384.53C87.18,-364.17 100,-312.84 100,-269 100,-269 100,-269 100,-201 100,-160.42 110.55,-143.97 144,-121 187.36,-91.22 337.09,-81.26 417.68,-78.01"/>
<polygon fill="#63b8ff" stroke="#63b8ff" points="417.67,-81.51 427.53,-77.64 417.4,-74.52 417.67,-81.51"/>
</g>
<!-- Node18&#45;&gt;Node3 -->
<g id="edge42" class="edge">
<title>Node18&#45;&gt;Node3</title>
<path fill="none" stroke="#63b8ff" d="M884.83,-324.36C883.68,-291.67 874.86,-174.7 808,-121 765.03,-86.49 605.69,-78.64 522.04,-76.92"/>
<polygon fill="#63b8ff" stroke="#63b8ff" points="522.34,-73.43 512.28,-76.75 522.21,-80.43 522.34,-73.43"/>
</g>
</g>
</svg>
