<?xml version="1.0" encoding="UTF-8" standalone="no"?>
<!DOCTYPE svg PUBLIC "-//W3C//DTD SVG 1.1//EN"
 "http://www.w3.org/Graphics/SVG/1.1/DTD/svg11.dtd">
<!-- Generated by graphviz version 7.0.5 (20221223.1930)
 -->
<!-- Title: include/f_pc/f_pc_layer_iter.h Pages: 1 -->
<svg width="3628pt" height="445pt"
 viewBox="0.00 0.00 3627.50 445.00" xmlns="http://www.w3.org/2000/svg" xmlns:xlink="http://www.w3.org/1999/xlink">
<g id="graph0" class="graph" transform="scale(1 1) rotate(0) translate(4 441)">
<title>include/f_pc/f_pc_layer_iter.h</title>
<!-- Node1 -->
<g id="node1" class="node">
<title>Node1</title>
<g id="a_node1"><a xlink:title=" ">
<polygon fill="#999999" stroke="#666666" points="1685,-437 1569,-437 1569,-407 1685,-407 1685,-437"/>
<text text-anchor="start" x="1577" y="-425" font-family="Helvetica,sans-Serif" font-size="10.00">include/f_pc/f_pc_layer</text>
<text text-anchor="middle" x="1627" y="-414" font-family="Helvetica,sans-Serif" font-size="10.00">_iter.h</text>
</a>
</g>
</g>
<!-- Node2 -->
<g id="node2" class="node">
<title>Node2</title>
<g id="a_node2"><a xlink:href="f__pc__executor_8h.html" target="_top" xlink:title=" ">
<polygon fill="white" stroke="#666666" points="1335,-365.5 1195,-365.5 1195,-346.5 1335,-346.5 1335,-365.5"/>
<text text-anchor="middle" x="1265" y="-353.5" font-family="Helvetica,sans-Serif" font-size="10.00">include/f_pc/f_pc_executor.h</text>
</a>
</g>
</g>
<!-- Node1&#45;&gt;Node2 -->
<g id="edge1" class="edge">
<title>Node1&#45;&gt;Node2</title>
<path fill="none" stroke="#63b8ff" d="M1557.82,-408.77C1487.08,-396.26 1378.88,-377.13 1315.71,-365.97"/>
<polygon fill="#63b8ff" stroke="#63b8ff" points="1556.89,-412.16 1567.35,-410.45 1558.11,-405.27 1556.89,-412.16"/>
</g>
<!-- Node140 -->
<g id="node31" class="node">
<title>Node140</title>
<g id="a_node31"><a xlink:href="f__pc__manager_8h.html" target="_top" xlink:title=" ">
<polygon fill="white" stroke="#666666" points="715.5,-299.5 574.5,-299.5 574.5,-280.5 715.5,-280.5 715.5,-299.5"/>
<text text-anchor="middle" x="645" y="-287.5" font-family="Helvetica,sans-Serif" font-size="10.00">include/f_pc/f_pc_manager.h</text>
</a>
</g>
</g>
<!-- Node1&#45;&gt;Node140 -->
<g id="edge62" class="edge">
<title>Node1&#45;&gt;Node140</title>
<path fill="none" stroke="#63b8ff" d="M1557.48,-413.85C1470.51,-404.75 1317.07,-388.12 1186,-371 1008.77,-347.86 799.65,-315.49 701.38,-299.98"/>
<polygon fill="#63b8ff" stroke="#63b8ff" points="1556.97,-417.32 1567.28,-414.88 1557.69,-410.36 1556.97,-417.32"/>
</g>
<!-- Node110 -->
<g id="node41" class="node">
<title>Node110</title>
<g id="a_node41"><a xlink:href="f__pc__manager_8cpp.html" target="_top" xlink:title=" ">
<polygon fill="white" stroke="#666666" points="2164,-233.5 2030,-233.5 2030,-214.5 2164,-214.5 2164,-233.5"/>
<text text-anchor="middle" x="2097" y="-221.5" font-family="Helvetica,sans-Serif" font-size="10.00">src/f_pc/f_pc_manager.cpp</text>
</a>
</g>
</g>
<!-- Node1&#45;&gt;Node110 -->
<g id="edge66" class="edge">
<title>Node1&#45;&gt;Node110</title>
<path fill="none" stroke="#63b8ff" d="M1640.94,-396.85C1652.47,-378.94 1670.41,-355.26 1692,-341 1752.5,-301.04 1962.18,-253.41 2053.7,-233.95"/>
<polygon fill="#63b8ff" stroke="#63b8ff" points="1637.99,-394.97 1635.72,-405.32 1643.95,-398.64 1637.99,-394.97"/>
</g>
<!-- Node154 -->
<g id="node44" class="node">
<title>Node154</title>
<g id="a_node44"><a xlink:href="f__pc__create__req_8cpp.html" target="_top" xlink:title=" ">
<polygon fill="white" stroke="#666666" points="1514,-305 1408,-305 1408,-275 1514,-275 1514,-305"/>
<text text-anchor="start" x="1416" y="-293" font-family="Helvetica,sans-Serif" font-size="10.00">src/f_pc/f_pc_create</text>
<text text-anchor="middle" x="1461" y="-282" font-family="Helvetica,sans-Serif" font-size="10.00">_req.cpp</text>
</a>
</g>
</g>
<!-- Node1&#45;&gt;Node154 -->
<g id="edge63" class="edge">
<title>Node1&#45;&gt;Node154</title>
<path fill="none" stroke="#63b8ff" d="M1599.68,-399.6C1565.72,-373.01 1508.7,-328.36 1479.48,-305.47"/>
<polygon fill="#63b8ff" stroke="#63b8ff" points="1597.38,-402.25 1607.41,-405.66 1601.69,-396.74 1597.38,-402.25"/>
</g>
<!-- Node155 -->
<g id="node45" class="node">
<title>Node155</title>
<g id="a_node45"><a xlink:href="f__pc__deletor_8cpp.html" target="_top" xlink:title=" ">
<polygon fill="white" stroke="#666666" points="1658,-299.5 1532,-299.5 1532,-280.5 1658,-280.5 1658,-299.5"/>
<text text-anchor="middle" x="1595" y="-287.5" font-family="Helvetica,sans-Serif" font-size="10.00">src/f_pc/f_pc_deletor.cpp</text>
</a>
</g>
</g>
<!-- Node1&#45;&gt;Node155 -->
<g id="edge64" class="edge">
<title>Node1&#45;&gt;Node155</title>
<path fill="none" stroke="#63b8ff" d="M1620.73,-395.51C1613.46,-366.01 1601.89,-319.01 1597.14,-299.71"/>
<polygon fill="#63b8ff" stroke="#63b8ff" points="1617.3,-396.25 1623.09,-405.12 1624.1,-394.57 1617.3,-396.25"/>
</g>
<!-- Node158 -->
<g id="node48" class="node">
<title>Node158</title>
<g id="a_node48"><a xlink:href="f__pc__layer__iter_8cpp.html" target="_top" xlink:title=" ">
<polygon fill="white" stroke="#666666" points="1799.5,-371 1700.5,-371 1700.5,-341 1799.5,-341 1799.5,-371"/>
<text text-anchor="start" x="1708.5" y="-359" font-family="Helvetica,sans-Serif" font-size="10.00">src/f_pc/f_pc_layer</text>
<text text-anchor="middle" x="1750" y="-348" font-family="Helvetica,sans-Serif" font-size="10.00">_iter.cpp</text>
</a>
</g>
</g>
<!-- Node1&#45;&gt;Node158 -->
<g id="edge65" class="edge">
<title>Node1&#45;&gt;Node158</title>
<path fill="none" stroke="#63b8ff" d="M1664.57,-401.45C1683.25,-391.73 1705.41,-380.2 1722.49,-371.31"/>
<polygon fill="#63b8ff" stroke="#63b8ff" points="1663.2,-398.22 1655.95,-405.94 1666.43,-404.43 1663.2,-398.22"/>
</g>
<!-- Node159 -->
<g id="node49" class="node">
<title>Node159</title>
<g id="a_node49"><a xlink:href="f__pc__node_8cpp.html" target="_top" xlink:title=" ">
<polygon fill="white" stroke="#666666" points="1936,-365.5 1818,-365.5 1818,-346.5 1936,-346.5 1936,-365.5"/>
<text text-anchor="middle" x="1877" y="-353.5" font-family="Helvetica,sans-Serif" font-size="10.00">src/f_pc/f_pc_node.cpp</text>
</a>
</g>
</g>
<!-- Node1&#45;&gt;Node159 -->
<g id="edge67" class="edge">
<title>Node1&#45;&gt;Node159</title>
<path fill="none" stroke="#63b8ff" d="M1694.57,-403.7C1742.15,-391.52 1803.92,-375.71 1841.99,-365.96"/>
<polygon fill="#63b8ff" stroke="#63b8ff" points="1693.7,-400.31 1684.88,-406.18 1695.44,-407.09 1693.7,-400.31"/>
</g>
<!-- Node160 -->
<g id="node50" class="node">
<title>Node160</title>
<g id="a_node50"><a xlink:href="f__pc__pause_8cpp.html" target="_top" xlink:title=" ">
<polygon fill="white" stroke="#666666" points="2077.5,-365.5 1954.5,-365.5 1954.5,-346.5 2077.5,-346.5 2077.5,-365.5"/>
<text text-anchor="middle" x="2016" y="-353.5" font-family="Helvetica,sans-Serif" font-size="10.00">src/f_pc/f_pc_pause.cpp</text>
</a>
</g>
</g>
<!-- Node1&#45;&gt;Node160 -->
<g id="edge68" class="edge">
<title>Node1&#45;&gt;Node160</title>
<path fill="none" stroke="#63b8ff" d="M1696.67,-410.84C1761.19,-401.24 1859.73,-386.1 1945,-371 1953.78,-369.44 1963.16,-367.67 1972.12,-365.93"/>
<polygon fill="#63b8ff" stroke="#63b8ff" points="1696.31,-407.35 1686.93,-412.28 1697.33,-414.28 1696.31,-407.35"/>
</g>
<!-- Node3 -->
<g id="node3" class="node">
<title>Node3</title>
<g id="a_node3"><a xlink:href="f__op__actor__mng_8h.html" target="_top" xlink:title=" ">
<polygon fill="#fff0f0" stroke="red" points="2012,-239 1894,-239 1894,-209 2012,-209 2012,-239"/>
<text text-anchor="start" x="1902" y="-227" font-family="Helvetica,sans-Serif" font-size="10.00">include/f_op/f_op_actor</text>
<text text-anchor="middle" x="1953" y="-216" font-family="Helvetica,sans-Serif" font-size="10.00">_mng.h</text>
</a>
</g>
</g>
<!-- Node2&#45;&gt;Node3 -->
<g id="edge2" class="edge">
<title>Node2&#45;&gt;Node3</title>
<path fill="none" stroke="#63b8ff" d="M1280.64,-337.61C1298.98,-318.52 1331.33,-288.74 1366,-275 1460.84,-237.4 1764.35,-228.04 1893.7,-225.74"/>
<polygon fill="#63b8ff" stroke="#63b8ff" points="1278.1,-335.2 1273.84,-344.9 1283.22,-339.98 1278.1,-335.2"/>
</g>
<!-- Node2&#45;&gt;Node140 -->
<g id="edge38" class="edge">
<title>Node2&#45;&gt;Node140</title>
<path fill="none" stroke="#63b8ff" d="M1183.25,-349.15C1078.14,-341.22 890.07,-325.64 730,-305 718.88,-303.57 706.97,-301.77 695.7,-299.95"/>
<polygon fill="#63b8ff" stroke="#63b8ff" points="1182.98,-352.64 1193.21,-349.9 1183.5,-345.66 1182.98,-352.64"/>
</g>
<!-- Node148 -->
<g id="node37" class="node">
<title>Node148</title>
<g id="a_node37"><a xlink:href="f__op__overlap__req_8cpp.html" target="_top" xlink:title=" ">
<polygon fill="white" stroke="#666666" points="795,-239 685,-239 685,-209 795,-209 795,-239"/>
<text text-anchor="start" x="693" y="-227" font-family="Helvetica,sans-Serif" font-size="10.00">src/f_op/f_op_overlap</text>
<text text-anchor="middle" x="740" y="-216" font-family="Helvetica,sans-Serif" font-size="10.00">_req.cpp</text>
</a>
</g>
</g>
<!-- Node2&#45;&gt;Node148 -->
<g id="edge54" class="edge">
<title>Node2&#45;&gt;Node148</title>
<path fill="none" stroke="#63b8ff" d="M1183.25,-351.83C1049.26,-345.9 794.54,-331.3 763,-305 743.69,-288.9 740,-257.73 739.62,-239.41"/>
<polygon fill="#63b8ff" stroke="#63b8ff" points="1183,-355.32 1193.14,-352.26 1183.3,-348.33 1183,-355.32"/>
</g>
<!-- Node150 -->
<g id="node39" class="node">
<title>Node150</title>
<g id="a_node39"><a xlink:href="f__op__scene__pause_8cpp.html" target="_top" xlink:title=" ">
<polygon fill="white" stroke="#666666" points="1137.5,-239 1032.5,-239 1032.5,-209 1137.5,-209 1137.5,-239"/>
<text text-anchor="start" x="1040.5" y="-227" font-family="Helvetica,sans-Serif" font-size="10.00">src/f_op/f_op_scene</text>
<text text-anchor="middle" x="1085" y="-216" font-family="Helvetica,sans-Serif" font-size="10.00">_pause.cpp</text>
</a>
</g>
</g>
<!-- Node2&#45;&gt;Node150 -->
<g id="edge55" class="edge">
<title>Node2&#45;&gt;Node150</title>
<path fill="none" stroke="#63b8ff" d="M1277.8,-336.42C1288.13,-318.91 1298.86,-292.76 1285,-275 1267.05,-252.01 1190.88,-238.02 1137.9,-230.9"/>
<polygon fill="#63b8ff" stroke="#63b8ff" points="1274.89,-334.48 1272.46,-344.79 1280.79,-338.25 1274.89,-334.48"/>
</g>
<!-- Node2&#45;&gt;Node110 -->
<g id="edge60" class="edge">
<title>Node2&#45;&gt;Node110</title>
<path fill="none" stroke="#63b8ff" d="M1292.41,-340.92C1310.7,-331.29 1335.13,-317.96 1356,-305 1375.8,-292.71 1376.98,-282.63 1399,-275 1529.83,-229.68 1883.54,-255.57 2021,-239 2031.66,-237.72 2043.07,-235.87 2053.74,-233.93"/>
<polygon fill="#63b8ff" stroke="#63b8ff" points="1291.01,-337.7 1283.76,-345.44 1294.25,-343.91 1291.01,-337.7"/>
</g>
<!-- Node152 -->
<g id="node42" class="node">
<title>Node152</title>
<g id="a_node42"><a xlink:href="f__op__overlap__mng_8cpp.html" target="_top" xlink:title=" ">
<polygon fill="white" stroke="#666666" points="882,-305 772,-305 772,-275 882,-275 882,-305"/>
<text text-anchor="start" x="780" y="-293" font-family="Helvetica,sans-Serif" font-size="10.00">src/f_op/f_op_overlap</text>
<text text-anchor="middle" x="827" y="-282" font-family="Helvetica,sans-Serif" font-size="10.00">_mng.cpp</text>
</a>
</g>
</g>
<!-- Node2&#45;&gt;Node152 -->
<g id="edge53" class="edge">
<title>Node2&#45;&gt;Node152</title>
<path fill="none" stroke="#63b8ff" d="M1183.4,-346.05C1107.43,-337.26 991.18,-322.62 891,-305 888.2,-304.51 885.34,-303.98 882.45,-303.42"/>
<polygon fill="#63b8ff" stroke="#63b8ff" points="1182.93,-349.52 1193.27,-347.19 1183.73,-342.57 1182.93,-349.52"/>
</g>
<!-- Node153 -->
<g id="node43" class="node">
<title>Node153</title>
<g id="a_node43"><a xlink:href="f__op__scene__req_8cpp.html" target="_top" xlink:title=" ">
<polygon fill="white" stroke="#666666" points="1005.5,-305 900.5,-305 900.5,-275 1005.5,-275 1005.5,-305"/>
<text text-anchor="start" x="908.5" y="-293" font-family="Helvetica,sans-Serif" font-size="10.00">src/f_op/f_op_scene</text>
<text text-anchor="middle" x="953" y="-282" font-family="Helvetica,sans-Serif" font-size="10.00">_req.cpp</text>
</a>
</g>
</g>
<!-- Node2&#45;&gt;Node153 -->
<g id="edge56" class="edge">
<title>Node2&#45;&gt;Node153</title>
<path fill="none" stroke="#63b8ff" d="M1207.33,-343.89C1156.6,-334.01 1080.81,-319.01 1015,-305 1011.98,-304.36 1008.88,-303.69 1005.75,-303"/>
<polygon fill="#63b8ff" stroke="#63b8ff" points="1206.42,-347.27 1216.91,-345.75 1207.76,-340.4 1206.42,-347.27"/>
</g>
<!-- Node2&#45;&gt;Node154 -->
<g id="edge57" class="edge">
<title>Node2&#45;&gt;Node154</title>
<path fill="none" stroke="#63b8ff" d="M1303.12,-342.55C1335.65,-331.93 1382.46,-316.65 1416.66,-305.48"/>
<polygon fill="#63b8ff" stroke="#63b8ff" points="1302.11,-339.2 1293.69,-345.63 1304.28,-345.85 1302.11,-339.2"/>
</g>
<!-- Node2&#45;&gt;Node155 -->
<g id="edge58" class="edge">
<title>Node2&#45;&gt;Node155</title>
<path fill="none" stroke="#63b8ff" d="M1322.2,-343.93C1374.48,-333.8 1453.94,-318.41 1523,-305 1531.38,-303.37 1540.3,-301.64 1548.91,-299.97"/>
<polygon fill="#63b8ff" stroke="#63b8ff" points="1321.78,-340.44 1312.63,-345.78 1323.11,-347.31 1321.78,-340.44"/>
</g>
<!-- Node156 -->
<g id="node46" class="node">
<title>Node156</title>
<g id="a_node46"><a xlink:href="f__pc__executor_8cpp.html" target="_top" xlink:title=" ">
<polygon fill="white" stroke="#666666" points="1158,-299.5 1024,-299.5 1024,-280.5 1158,-280.5 1158,-299.5"/>
<text text-anchor="middle" x="1091" y="-287.5" font-family="Helvetica,sans-Serif" font-size="10.00">src/f_pc/f_pc_executor.cpp</text>
</a>
</g>
</g>
<!-- Node2&#45;&gt;Node156 -->
<g id="edge59" class="edge">
<title>Node2&#45;&gt;Node156</title>
<path fill="none" stroke="#63b8ff" d="M1230.4,-342.27C1196.34,-329.75 1145.22,-310.94 1115.27,-299.93"/>
<polygon fill="#63b8ff" stroke="#63b8ff" points="1228.79,-345.41 1239.39,-345.58 1231.21,-338.84 1228.79,-345.41"/>
</g>
<!-- Node157 -->
<g id="node47" class="node">
<title>Node157</title>
<g id="a_node47"><a xlink:href="f__pc__node__req_8cpp.html" target="_top" xlink:title=" ">
<polygon fill="white" stroke="#666666" points="1276,-305 1176,-305 1176,-275 1276,-275 1276,-305"/>
<text text-anchor="start" x="1184" y="-293" font-family="Helvetica,sans-Serif" font-size="10.00">src/f_pc/f_pc_node</text>
<text text-anchor="middle" x="1226" y="-282" font-family="Helvetica,sans-Serif" font-size="10.00">_req.cpp</text>
</a>
</g>
</g>
<!-- Node2&#45;&gt;Node157 -->
<g id="edge61" class="edge">
<title>Node2&#45;&gt;Node157</title>
<path fill="none" stroke="#63b8ff" d="M1253.65,-336.38C1247.6,-326.44 1240.27,-314.41 1234.67,-305.23"/>
<polygon fill="#63b8ff" stroke="#63b8ff" points="1250.6,-338.09 1258.79,-344.81 1256.57,-334.45 1250.6,-338.09"/>
</g>
<!-- Node4 -->
<g id="node4" class="node">
<title>Node4</title>
<g id="a_node4"><a xlink:href="d__a__alink_8h.html" target="_top" xlink:title=" ">
<polygon fill="#fff0f0" stroke="red" points="1091,-85 975,-85 975,-66 1091,-66 1091,-85"/>
<text text-anchor="middle" x="1033" y="-73" font-family="Helvetica,sans-Serif" font-size="10.00">include/d/a/d_a_alink.h</text>
</a>
</g>
</g>
<!-- Node3&#45;&gt;Node4 -->
<g id="edge3" class="edge">
<title>Node3&#45;&gt;Node4</title>
<path fill="none" stroke="#63b8ff" d="M1882.19,-221.42C1675.1,-216.5 1083.18,-200.12 1052,-173 1026.36,-150.7 1029.1,-104.76 1031.59,-85.41"/>
<polygon fill="#63b8ff" stroke="#63b8ff" points="1881.92,-224.92 1892,-221.65 1882.09,-217.92 1881.92,-224.92"/>
</g>
<!-- Node15 -->
<g id="node5" class="node">
<title>Node15</title>
<g id="a_node5"><a xlink:href="d__a__alink_8cpp.html" target="_top" xlink:title=" ">
<polygon fill="white" stroke="#666666" points="3202.5,-19 3093.5,-19 3093.5,0 3202.5,0 3202.5,-19"/>
<text text-anchor="middle" x="3148" y="-7" font-family="Helvetica,sans-Serif" font-size="10.00">src/d/a/d_a_alink.cpp</text>
</a>
</g>
</g>
<!-- Node3&#45;&gt;Node15 -->
<g id="edge29" class="edge">
<title>Node3&#45;&gt;Node15</title>
<path fill="none" stroke="#63b8ff" d="M2023.55,-209.05C2213.54,-193.07 3221.61,-218.35 3360,-173 3417.06,-154.3 3443.16,-149.2 3471,-96 3479.45,-79.86 3482.97,-68.74 3471,-55 3436.87,-15.85 3285.71,-9.96 3202.83,-9.77"/>
<polygon fill="#63b8ff" stroke="#63b8ff" points="2023.35,-205.55 2013.75,-210.02 2024.04,-212.52 2023.35,-205.55"/>
</g>
<!-- Node116 -->
<g id="node6" class="node">
<title>Node116</title>
<g id="a_node6"><a xlink:href="d__a__obj__item_8h.html" target="_top" xlink:title=" ">
<polygon fill="#fff0f0" stroke="red" points="3619.5,-167.5 3518.5,-167.5 3518.5,-137.5 3619.5,-137.5 3619.5,-167.5"/>
<text text-anchor="start" x="3526.5" y="-155.5" font-family="Helvetica,sans-Serif" font-size="10.00">include/d/a/d_a_obj</text>
<text text-anchor="middle" x="3569" y="-144.5" font-family="Helvetica,sans-Serif" font-size="10.00">_item.h</text>
</a>
</g>
</g>
<!-- Node3&#45;&gt;Node116 -->
<g id="edge5" class="edge">
<title>Node3&#45;&gt;Node116</title>
<path fill="none" stroke="#63b8ff" d="M2023.5,-208.92C2366.7,-172.77 3182.02,-224.25 3504,-173 3511.45,-171.81 3519.23,-170 3526.72,-167.95"/>
<polygon fill="#63b8ff" stroke="#63b8ff" points="2023.3,-205.42 2013.74,-209.99 2024.06,-212.38 2023.3,-205.42"/>
</g>
<!-- Node117 -->
<g id="node7" class="node">
<title>Node117</title>
<g id="a_node7"><a xlink:href="d__a__obj__ss__base_8h.html" target="_top" xlink:title=" ">
<polygon fill="#fff0f0" stroke="red" points="743.5,-167.5 642.5,-167.5 642.5,-137.5 743.5,-137.5 743.5,-167.5"/>
<text text-anchor="start" x="650.5" y="-155.5" font-family="Helvetica,sans-Serif" font-size="10.00">include/d/a/d_a_obj</text>
<text text-anchor="middle" x="693" y="-144.5" font-family="Helvetica,sans-Serif" font-size="10.00">_ss_base.h</text>
</a>
</g>
</g>
<!-- Node3&#45;&gt;Node117 -->
<g id="edge6" class="edge">
<title>Node3&#45;&gt;Node117</title>
<path fill="none" stroke="#63b8ff" d="M1882.54,-222.63C1659.55,-221.04 971.07,-212.96 752,-173 745.31,-171.78 738.35,-169.98 731.64,-167.96"/>
<polygon fill="#63b8ff" stroke="#63b8ff" points="1882.21,-226.12 1892.23,-222.69 1882.26,-219.12 1882.21,-226.12"/>
</g>
<!-- Node119 -->
<g id="node8" class="node">
<title>Node119</title>
<g id="a_node8"><a xlink:href="d__bomb_8h.html" target="_top" xlink:title=" ">
<polygon fill="white" stroke="#666666" points="3092.5,-162 2991.5,-162 2991.5,-143 3092.5,-143 3092.5,-162"/>
<text text-anchor="middle" x="3042" y="-150" font-family="Helvetica,sans-Serif" font-size="10.00">include/d/d_bomb.h</text>
</a>
</g>
</g>
<!-- Node3&#45;&gt;Node119 -->
<g id="edge7" class="edge">
<title>Node3&#45;&gt;Node119</title>
<path fill="none" stroke="#63b8ff" d="M2023.53,-208.86C2445.15,-159.43 2561.24,-242.04 2977,-173 2990.71,-170.72 3005.6,-166.4 3017.65,-162.4"/>
<polygon fill="#63b8ff" stroke="#63b8ff" points="2023.26,-205.36 2013.75,-210.02 2024.09,-212.31 2023.26,-205.36"/>
</g>
<!-- Node120 -->
<g id="node9" class="node">
<title>Node120</title>
<g id="a_node9"><a xlink:href="d__bomb_8cpp.html" target="_top" xlink:title=" ">
<polygon fill="white" stroke="#666666" points="3010,-85 2916,-85 2916,-66 3010,-66 3010,-85"/>
<text text-anchor="middle" x="2963" y="-73" font-family="Helvetica,sans-Serif" font-size="10.00">src/d/d_bomb.cpp</text>
</a>
</g>
</g>
<!-- Node3&#45;&gt;Node120 -->
<g id="edge34" class="edge">
<title>Node3&#45;&gt;Node120</title>
<path fill="none" stroke="#63b8ff" d="M2023.31,-209.15C2162.21,-198.73 2843.13,-228.69 2923,-173 2952.75,-152.25 2960.43,-105.03 2962.37,-85.35"/>
<polygon fill="#63b8ff" stroke="#63b8ff" points="2023.37,-205.63 2013.75,-210.07 2024.04,-212.6 2023.37,-205.63"/>
</g>
<!-- Node121 -->
<g id="node10" class="node">
<title>Node121</title>
<g id="a_node10"><a xlink:href="d__a__arrow_8h.html" target="_top" xlink:title=" ">
<polygon fill="white" stroke="#666666" points="862.5,-167.5 761.5,-167.5 761.5,-137.5 862.5,-137.5 862.5,-167.5"/>
<text text-anchor="start" x="769.5" y="-155.5" font-family="Helvetica,sans-Serif" font-size="10.00">include/rel/d/a/d_a</text>
<text text-anchor="middle" x="812" y="-144.5" font-family="Helvetica,sans-Serif" font-size="10.00">_arrow/d_a_arrow.h</text>
</a>
</g>
</g>
<!-- Node3&#45;&gt;Node121 -->
<g id="edge10" class="edge">
<title>Node3&#45;&gt;Node121</title>
<path fill="none" stroke="#63b8ff" d="M1882.28,-222.2C1674.27,-219.45 1066.89,-208.51 872,-173 865.21,-171.76 858.13,-169.95 851.31,-167.93"/>
<polygon fill="#63b8ff" stroke="#63b8ff" points="1882.09,-225.7 1892.13,-222.33 1882.18,-218.7 1882.09,-225.7"/>
</g>
<!-- Node122 -->
<g id="node11" class="node">
<title>Node122</title>
<g id="a_node11"><a xlink:href="d__a__boomerang_8h.html" target="_top" xlink:title=" ">
<polygon fill="white" stroke="#666666" points="3298.5,-167.5 3149.5,-167.5 3149.5,-137.5 3298.5,-137.5 3298.5,-167.5"/>
<text text-anchor="start" x="3157.5" y="-155.5" font-family="Helvetica,sans-Serif" font-size="10.00">include/rel/d/a/d_a</text>
<text text-anchor="middle" x="3224" y="-144.5" font-family="Helvetica,sans-Serif" font-size="10.00">_boomerang/d_a_boomerang.h</text>
</a>
</g>
</g>
<!-- Node3&#45;&gt;Node122 -->
<g id="edge11" class="edge">
<title>Node3&#45;&gt;Node122</title>
<path fill="none" stroke="#63b8ff" d="M2023.55,-208.86C2514.94,-152.1 2647.15,-233.8 3135,-173 3144.89,-171.77 3155.3,-169.96 3165.38,-167.94"/>
<polygon fill="#63b8ff" stroke="#63b8ff" points="2023.27,-205.37 2013.74,-210.01 2024.08,-212.32 2023.27,-205.37"/>
</g>
<!-- Node73 -->
<g id="node12" class="node">
<title>Node73</title>
<g id="a_node12"><a xlink:href="d__a__player_8cpp.html" target="_top" xlink:title=" ">
<polygon fill="white" stroke="#666666" points="3180,-85 3066,-85 3066,-66 3180,-66 3180,-85"/>
<text text-anchor="middle" x="3123" y="-73" font-family="Helvetica,sans-Serif" font-size="10.00">src/d/a/d_a_player.cpp</text>
</a>
</g>
</g>
<!-- Node3&#45;&gt;Node73 -->
<g id="edge30" class="edge">
<title>Node3&#45;&gt;Node73</title>
<path fill="none" stroke="#63b8ff" d="M2023.51,-209.34C2151.77,-202.56 3057.56,-210.05 3102,-173 3128.21,-151.15 3126.36,-104.96 3124.24,-85.47"/>
<polygon fill="#63b8ff" stroke="#63b8ff" points="2023.46,-205.83 2013.75,-210.07 2023.99,-212.81 2023.46,-205.83"/>
</g>
<!-- Node123 -->
<g id="node13" class="node">
<title>Node123</title>
<g id="a_node13"><a xlink:href="d__a__canoe_8h.html" target="_top" xlink:title=" ">
<polygon fill="white" stroke="#666666" points="1167,-167.5 1061,-167.5 1061,-137.5 1167,-137.5 1167,-167.5"/>
<text text-anchor="start" x="1069" y="-155.5" font-family="Helvetica,sans-Serif" font-size="10.00">include/rel/d/a/d_a</text>
<text text-anchor="middle" x="1114" y="-144.5" font-family="Helvetica,sans-Serif" font-size="10.00">_canoe/d_a_canoe.h</text>
</a>
</g>
</g>
<!-- Node3&#45;&gt;Node123 -->
<g id="edge13" class="edge">
<title>Node3&#45;&gt;Node123</title>
<path fill="none" stroke="#63b8ff" d="M1882.15,-220.62C1716.99,-214.72 1310.31,-198.06 1176,-173 1169.12,-171.72 1161.94,-169.91 1155,-167.91"/>
<polygon fill="#63b8ff" stroke="#63b8ff" points="1881.98,-224.12 1892.1,-220.97 1882.23,-217.12 1881.98,-224.12"/>
</g>
<!-- Node124 -->
<g id="node14" class="node">
<title>Node124</title>
<g id="a_node14"><a xlink:href="d__a__crod_8h.html" target="_top" xlink:title=" ">
<polygon fill="white" stroke="#666666" points="2898,-90.5 2802,-90.5 2802,-60.5 2898,-60.5 2898,-90.5"/>
<text text-anchor="start" x="2810" y="-78.5" font-family="Helvetica,sans-Serif" font-size="10.00">include/rel/d/a/d_a</text>
<text text-anchor="middle" x="2850" y="-67.5" font-family="Helvetica,sans-Serif" font-size="10.00">_crod/d_a_crod.h</text>
</a>
</g>
</g>
<!-- Node3&#45;&gt;Node124 -->
<g id="edge14" class="edge">
<title>Node3&#45;&gt;Node124</title>
<path fill="none" stroke="#63b8ff" d="M2023.67,-209.35C2137.35,-203.41 2873.38,-206.97 2906,-173 2929.88,-148.13 2893.48,-111.19 2869.08,-90.99"/>
<polygon fill="#63b8ff" stroke="#63b8ff" points="2023.46,-205.86 2013.75,-210.1 2023.99,-212.84 2023.46,-205.86"/>
</g>
<!-- Node125 -->
<g id="node15" class="node">
<title>Node125</title>
<g id="a_node15"><a xlink:href="d__a__scene__exit_8h.html" target="_top" xlink:title=" ">
<polygon fill="white" stroke="#666666" points="3317.5,-96 3198.5,-96 3198.5,-55 3317.5,-55 3317.5,-96"/>
<text text-anchor="start" x="3206.5" y="-84" font-family="Helvetica,sans-Serif" font-size="10.00">include/rel/d/a/d_a</text>
<text text-anchor="start" x="3206.5" y="-73" font-family="Helvetica,sans-Serif" font-size="10.00">_scene_exit/d_a_scene</text>
<text text-anchor="middle" x="3258" y="-62" font-family="Helvetica,sans-Serif" font-size="10.00">_exit.h</text>
</a>
</g>
</g>
<!-- Node3&#45;&gt;Node125 -->
<g id="edge16" class="edge">
<title>Node3&#45;&gt;Node125</title>
<path fill="none" stroke="#63b8ff" d="M2023.7,-209.34C2168.26,-202.24 3259.79,-222.58 3308,-173 3329.57,-150.81 3302.99,-117.45 3281.09,-96.34"/>
<polygon fill="#63b8ff" stroke="#63b8ff" points="2023.47,-205.84 2013.75,-210.06 2023.98,-212.82 2023.47,-205.84"/>
</g>
<!-- Node126 -->
<g id="node16" class="node">
<title>Node126</title>
<g id="a_node16"><a xlink:href="d__a__tboxSw_8h.html" target="_top" xlink:title=" ">
<polygon fill="white" stroke="#666666" points="1303,-167.5 1185,-167.5 1185,-137.5 1303,-137.5 1303,-167.5"/>
<text text-anchor="start" x="1193" y="-155.5" font-family="Helvetica,sans-Serif" font-size="10.00">include/rel/d/a/d_a</text>
<text text-anchor="middle" x="1244" y="-144.5" font-family="Helvetica,sans-Serif" font-size="10.00">_tboxSw/d_a_tboxSw.h</text>
</a>
</g>
</g>
<!-- Node3&#45;&gt;Node126 -->
<g id="edge18" class="edge">
<title>Node3&#45;&gt;Node126</title>
<path fill="none" stroke="#63b8ff" d="M1882.29,-222.12C1763.54,-219.62 1516.91,-209.98 1312,-173 1304.75,-171.69 1297.16,-169.92 1289.79,-167.99"/>
<polygon fill="#63b8ff" stroke="#63b8ff" points="1882.14,-225.62 1892.21,-222.32 1882.28,-218.62 1882.14,-225.62"/>
</g>
<!-- Node127 -->
<g id="node17" class="node">
<title>Node127</title>
<g id="a_node17"><a xlink:href="d__a__tag__escape_8h.html" target="_top" xlink:title=" ">
<polygon fill="white" stroke="#666666" points="1431,-173 1321,-173 1321,-132 1431,-132 1431,-173"/>
<text text-anchor="start" x="1329" y="-161" font-family="Helvetica,sans-Serif" font-size="10.00">include/rel/d/a/tag</text>
<text text-anchor="start" x="1329" y="-150" font-family="Helvetica,sans-Serif" font-size="10.00">/d_a_tag_escape/d_a</text>
<text text-anchor="middle" x="1376" y="-139" font-family="Helvetica,sans-Serif" font-size="10.00">_tag_escape.h</text>
</a>
</g>
</g>
<!-- Node3&#45;&gt;Node127 -->
<g id="edge19" class="edge">
<title>Node3&#45;&gt;Node127</title>
<path fill="none" stroke="#63b8ff" d="M1882.18,-220.54C1782.61,-216.08 1595.97,-204.04 1440,-173 1437.15,-172.43 1434.25,-171.79 1431.33,-171.09"/>
<polygon fill="#63b8ff" stroke="#63b8ff" points="1881.93,-224.03 1892.07,-220.97 1882.23,-217.04 1881.93,-224.03"/>
</g>
<!-- Node128 -->
<g id="node18" class="node">
<title>Node128</title>
<g id="a_node18"><a xlink:href="d__a__tag__instruction_8h.html" target="_top" xlink:title=" ">
<polygon fill="white" stroke="#666666" points="1561,-173 1449,-173 1449,-132 1561,-132 1561,-173"/>
<text text-anchor="start" x="1457" y="-161" font-family="Helvetica,sans-Serif" font-size="10.00">include/rel/d/a/tag</text>
<text text-anchor="start" x="1457" y="-150" font-family="Helvetica,sans-Serif" font-size="10.00">/d_a_tag_instruction</text>
<text text-anchor="middle" x="1505" y="-139" font-family="Helvetica,sans-Serif" font-size="10.00">/d_a_tag_instruction.h</text>
</a>
</g>
</g>
<!-- Node3&#45;&gt;Node128 -->
<g id="edge20" class="edge">
<title>Node3&#45;&gt;Node128</title>
<path fill="none" stroke="#63b8ff" d="M1882.75,-217.26C1805.49,-210.16 1677.97,-196.08 1570,-173 1567.12,-172.38 1564.18,-171.7 1561.23,-170.97"/>
<polygon fill="#63b8ff" stroke="#63b8ff" points="1881.99,-220.71 1892.27,-218.12 1882.62,-213.74 1881.99,-220.71"/>
</g>
<!-- Node129 -->
<g id="node19" class="node">
<title>Node129</title>
<g id="a_node19"><a xlink:href="d__a__tag__lv5soup_8h.html" target="_top" xlink:title=" ">
<polygon fill="white" stroke="#666666" points="1691,-173 1579,-173 1579,-132 1691,-132 1691,-173"/>
<text text-anchor="start" x="1587" y="-161" font-family="Helvetica,sans-Serif" font-size="10.00">include/rel/d/a/tag</text>
<text text-anchor="start" x="1587" y="-150" font-family="Helvetica,sans-Serif" font-size="10.00">/d_a_tag_lv5soup/d_a</text>
<text text-anchor="middle" x="1635" y="-139" font-family="Helvetica,sans-Serif" font-size="10.00">_tag_lv5soup.h</text>
</a>
</g>
</g>
<!-- Node3&#45;&gt;Node129 -->
<g id="edge21" class="edge">
<title>Node3&#45;&gt;Node129</title>
<path fill="none" stroke="#63b8ff" d="M1882.38,-210.93C1831.41,-201.76 1761.1,-188.17 1700,-173 1697.14,-172.29 1694.22,-171.53 1691.28,-170.75"/>
<polygon fill="#63b8ff" stroke="#63b8ff" points="1881.65,-214.35 1892.11,-212.66 1882.88,-207.46 1881.65,-214.35"/>
</g>
<!-- Node130 -->
<g id="node20" class="node">
<title>Node130</title>
<g id="a_node20"><a xlink:href="d__a__tag__magne_8h.html" target="_top" xlink:title=" ">
<polygon fill="#fff0f0" stroke="red" points="3462,-96 3336,-96 3336,-55 3462,-55 3462,-96"/>
<text text-anchor="start" x="3344" y="-84" font-family="Helvetica,sans-Serif" font-size="10.00">include/rel/d/a/tag</text>
<text text-anchor="start" x="3344" y="-73" font-family="Helvetica,sans-Serif" font-size="10.00">/d_a_tag_magne/d_a_tag</text>
<text text-anchor="middle" x="3399" y="-62" font-family="Helvetica,sans-Serif" font-size="10.00">_magne.h</text>
</a>
</g>
</g>
<!-- Node3&#45;&gt;Node130 -->
<g id="edge22" class="edge">
<title>Node3&#45;&gt;Node130</title>
<path fill="none" stroke="#63b8ff" d="M2023.36,-209.29C2167.09,-200.96 3262.54,-204.9 3325,-173 3356.96,-156.68 3379.11,-119.48 3390.38,-96.33"/>
<polygon fill="#63b8ff" stroke="#63b8ff" points="2023.44,-205.77 2013.75,-210.05 2023.99,-212.75 2023.44,-205.77"/>
</g>
<!-- Node131 -->
<g id="node21" class="node">
<title>Node131</title>
<g id="a_node21"><a xlink:href="d__a__tag__mmsg_8h.html" target="_top" xlink:title=" ">
<polygon fill="white" stroke="#666666" points="1005,-173 881,-173 881,-132 1005,-132 1005,-173"/>
<text text-anchor="start" x="889" y="-161" font-family="Helvetica,sans-Serif" font-size="10.00">include/rel/d/a/tag</text>
<text text-anchor="start" x="889" y="-150" font-family="Helvetica,sans-Serif" font-size="10.00">/d_a_tag_mmsg/d_a_tag</text>
<text text-anchor="middle" x="943" y="-139" font-family="Helvetica,sans-Serif" font-size="10.00">_mmsg.h</text>
</a>
</g>
</g>
<!-- Node3&#45;&gt;Node131 -->
<g id="edge24" class="edge">
<title>Node3&#45;&gt;Node131</title>
<path fill="none" stroke="#63b8ff" d="M1882.15,-221.02C1694.06,-215.48 1185.25,-198.52 1019,-173 1014.56,-172.32 1010,-171.49 1005.42,-170.56"/>
<polygon fill="#63b8ff" stroke="#63b8ff" points="1881.92,-224.52 1892.02,-221.31 1882.13,-217.52 1881.92,-224.52"/>
</g>
<!-- Node132 -->
<g id="node22" class="node">
<title>Node132</title>
<g id="a_node22"><a xlink:href="d__a__tag__setBall_8h.html" target="_top" xlink:title=" ">
<polygon fill="white" stroke="#666666" points="1817,-173 1709,-173 1709,-132 1817,-132 1817,-173"/>
<text text-anchor="start" x="1717" y="-161" font-family="Helvetica,sans-Serif" font-size="10.00">include/rel/d/a/tag</text>
<text text-anchor="start" x="1717" y="-150" font-family="Helvetica,sans-Serif" font-size="10.00">/d_a_tag_setBall/d_a</text>
<text text-anchor="middle" x="1763" y="-139" font-family="Helvetica,sans-Serif" font-size="10.00">_tag_setBall.h</text>
</a>
</g>
</g>
<!-- Node3&#45;&gt;Node132 -->
<g id="edge26" class="edge">
<title>Node3&#45;&gt;Node132</title>
<path fill="none" stroke="#63b8ff" d="M1903.12,-204.75C1876.79,-195.12 1844.43,-183.29 1817.45,-173.42"/>
<polygon fill="#63b8ff" stroke="#63b8ff" points="1901.62,-207.93 1912.21,-208.08 1904.02,-201.36 1901.62,-207.93"/>
</g>
<!-- Node133 -->
<g id="node23" class="node">
<title>Node133</title>
<g id="a_node23"><a xlink:href="d__a__tag__setrestart_8h.html" target="_top" xlink:title=" ">
<polygon fill="white" stroke="#666666" points="1943,-173 1835,-173 1835,-132 1943,-132 1943,-173"/>
<text text-anchor="start" x="1843" y="-161" font-family="Helvetica,sans-Serif" font-size="10.00">include/rel/d/a/tag</text>
<text text-anchor="start" x="1843" y="-150" font-family="Helvetica,sans-Serif" font-size="10.00">/d_a_tag_setrestart</text>
<text text-anchor="middle" x="1889" y="-139" font-family="Helvetica,sans-Serif" font-size="10.00">/d_a_tag_setrestart.h</text>
</a>
</g>
</g>
<!-- Node3&#45;&gt;Node133 -->
<g id="edge27" class="edge">
<title>Node3&#45;&gt;Node133</title>
<path fill="none" stroke="#63b8ff" d="M1932.18,-200.39C1924.17,-191.69 1915.1,-181.84 1907.34,-173.42"/>
<polygon fill="#63b8ff" stroke="#63b8ff" points="1929.37,-202.5 1938.71,-207.49 1934.51,-197.76 1929.37,-202.5"/>
</g>
<!-- Node134 -->
<g id="node24" class="node">
<title>Node134</title>
<g id="a_node24"><a xlink:href="d__a__tag__wara__howl_8h.html" target="_top" xlink:title=" ">
<polygon fill="white" stroke="#666666" points="2075,-173 1961,-173 1961,-132 2075,-132 2075,-173"/>
<text text-anchor="start" x="1969" y="-161" font-family="Helvetica,sans-Serif" font-size="10.00">include/rel/d/a/tag</text>
<text text-anchor="start" x="1969" y="-150" font-family="Helvetica,sans-Serif" font-size="10.00">/d_a_tag_wara_howl/d</text>
<text text-anchor="middle" x="2018" y="-139" font-family="Helvetica,sans-Serif" font-size="10.00">_a_tag_wara_howl.h</text>
</a>
</g>
</g>
<!-- Node3&#45;&gt;Node134 -->
<g id="edge28" class="edge">
<title>Node3&#45;&gt;Node134</title>
<path fill="none" stroke="#63b8ff" d="M1974.15,-200.39C1982.28,-191.69 1991.5,-181.84 1999.37,-173.42"/>
<polygon fill="#63b8ff" stroke="#63b8ff" points="1971.78,-197.8 1967.5,-207.49 1976.89,-202.58 1971.78,-197.8"/>
</g>
<!-- Node135 -->
<g id="node25" class="node">
<title>Node135</title>
<g id="a_node25"><a xlink:href="d__bg__s__acch_8cpp.html" target="_top" xlink:title=" ">
<polygon fill="white" stroke="#666666" points="2224.5,-162 2093.5,-162 2093.5,-143 2224.5,-143 2224.5,-162"/>
<text text-anchor="middle" x="2159" y="-150" font-family="Helvetica,sans-Serif" font-size="10.00">src/d/bg/d_bg_s_acch.cpp</text>
</a>
</g>
</g>
<!-- Node3&#45;&gt;Node135 -->
<g id="edge31" class="edge">
<title>Node3&#45;&gt;Node135</title>
<path fill="none" stroke="#63b8ff" d="M2006.69,-204.89C2047.12,-191.25 2100.8,-173.13 2132.45,-162.46"/>
<polygon fill="#63b8ff" stroke="#63b8ff" points="2005.72,-201.52 1997.37,-208.03 2007.96,-208.15 2005.72,-201.52"/>
</g>
<!-- Node136 -->
<g id="node26" class="node">
<title>Node136</title>
<g id="a_node26"><a xlink:href="d__bg__s__lin__chk_8cpp.html" target="_top" xlink:title=" ">
<polygon fill="white" stroke="#666666" points="2343.5,-167.5 2242.5,-167.5 2242.5,-137.5 2343.5,-137.5 2343.5,-167.5"/>
<text text-anchor="start" x="2250.5" y="-155.5" font-family="Helvetica,sans-Serif" font-size="10.00">src/d/bg/d_bg_s_lin</text>
<text text-anchor="middle" x="2293" y="-144.5" font-family="Helvetica,sans-Serif" font-size="10.00">_chk.cpp</text>
</a>
</g>
</g>
<!-- Node3&#45;&gt;Node136 -->
<g id="edge32" class="edge">
<title>Node3&#45;&gt;Node136</title>
<path fill="none" stroke="#63b8ff" d="M2023.47,-208.6C2117.35,-191.64 2144.28,-195.27 2234,-173 2239.86,-171.54 2245.98,-169.79 2251.97,-167.94"/>
<polygon fill="#63b8ff" stroke="#63b8ff" points="2023,-205.13 2013.8,-210.38 2024.27,-212.01 2023,-205.13"/>
</g>
<!-- Node137 -->
<g id="node27" class="node">
<title>Node137</title>
<g id="a_node27"><a xlink:href="d__cc__d__nonmatching_8cpp.html" target="_top" xlink:title=" ">
<polygon fill="white" stroke="#666666" points="2526.5,-162 2361.5,-162 2361.5,-143 2526.5,-143 2526.5,-162"/>
<text text-anchor="middle" x="2444" y="-150" font-family="Helvetica,sans-Serif" font-size="10.00">src/d/cc/d_cc_d_nonmatching.cpp</text>
</a>
</g>
</g>
<!-- Node3&#45;&gt;Node137 -->
<g id="edge33" class="edge">
<title>Node3&#45;&gt;Node137</title>
<path fill="none" stroke="#63b8ff" d="M2023.45,-208.72C2169.59,-186.51 2210.04,-196 2353,-173 2370.71,-170.15 2390.17,-166.11 2406.53,-162.44"/>
<polygon fill="#63b8ff" stroke="#63b8ff" points="2023.12,-205.23 2013.77,-210.22 2024.19,-212.15 2023.12,-205.23"/>
</g>
<!-- Node89 -->
<g id="node28" class="node">
<title>Node89</title>
<g id="a_node28"><a xlink:href="d__insect_8cpp.html" target="_top" xlink:title=" ">
<polygon fill="white" stroke="#666666" points="2641,-162 2545,-162 2545,-143 2641,-143 2641,-162"/>
<text text-anchor="middle" x="2593" y="-150" font-family="Helvetica,sans-Serif" font-size="10.00">src/d/d_insect.cpp</text>
</a>
</g>
</g>
<!-- Node3&#45;&gt;Node89 -->
<g id="edge35" class="edge">
<title>Node3&#45;&gt;Node89</title>
<path fill="none" stroke="#63b8ff" d="M2023.54,-208.8C2250.38,-179.09 2314.74,-217.78 2536,-173 2547.89,-170.59 2560.71,-166.36 2571.17,-162.46"/>
<polygon fill="#63b8ff" stroke="#63b8ff" points="2023.2,-205.31 2013.76,-210.11 2024.14,-212.25 2023.2,-205.31"/>
</g>
<!-- Node138 -->
<g id="node29" class="node">
<title>Node138</title>
<g id="a_node29"><a xlink:href="d__jnt__col_8cpp.html" target="_top" xlink:title=" ">
<polygon fill="white" stroke="#666666" points="2757,-162 2659,-162 2659,-143 2757,-143 2757,-162"/>
<text text-anchor="middle" x="2708" y="-150" font-family="Helvetica,sans-Serif" font-size="10.00">src/d/d_jnt_col.cpp</text>
</a>
</g>
</g>
<!-- Node3&#45;&gt;Node138 -->
<g id="edge36" class="edge">
<title>Node3&#45;&gt;Node138</title>
<path fill="none" stroke="#63b8ff" d="M2023.47,-208.83C2300.7,-174.06 2378.69,-225.39 2650,-173 2662.2,-170.64 2675.37,-166.37 2686.06,-162.42"/>
<polygon fill="#63b8ff" stroke="#63b8ff" points="2023.23,-205.33 2013.75,-210.08 2024.12,-212.28 2023.23,-205.33"/>
</g>
<!-- Node50 -->
<g id="node30" class="node">
<title>Node50</title>
<g id="a_node30"><a xlink:href="d__event_8cpp.html" target="_top" xlink:title=" ">
<polygon fill="white" stroke="#666666" points="2896.5,-162 2775.5,-162 2775.5,-143 2896.5,-143 2896.5,-162"/>
<text text-anchor="middle" x="2836" y="-150" font-family="Helvetica,sans-Serif" font-size="10.00">src/d/event/d_event.cpp</text>
</a>
</g>
</g>
<!-- Node3&#45;&gt;Node50 -->
<g id="edge37" class="edge">
<title>Node3&#45;&gt;Node50</title>
<path fill="none" stroke="#63b8ff" d="M2023.53,-208.84C2351.91,-168.75 2442.41,-225.22 2766,-173 2780.57,-170.65 2796.45,-166.37 2809.39,-162.42"/>
<polygon fill="#63b8ff" stroke="#63b8ff" points="2023.24,-205.34 2013.75,-210.05 2024.11,-212.29 2023.24,-205.34"/>
</g>
<!-- Node4&#45;&gt;Node15 -->
<g id="edge4" class="edge">
<title>Node4&#45;&gt;Node15</title>
<path fill="none" stroke="#63b8ff" d="M1102.66,-72.39C1428.85,-62.52 2801.8,-20.98 3093.41,-12.15"/>
<polygon fill="#63b8ff" stroke="#63b8ff" points="1102.9,-68.88 1093.01,-72.68 1103.11,-75.88 1102.9,-68.88"/>
</g>
<!-- Node119&#45;&gt;Node15 -->
<g id="edge8" class="edge">
<title>Node119&#45;&gt;Node15</title>
<path fill="none" stroke="#63b8ff" d="M3040.01,-131.41C3039,-110.34 3040.59,-77.27 3057,-55 3070.15,-37.16 3092.4,-26.1 3111.6,-19.47"/>
<polygon fill="#63b8ff" stroke="#63b8ff" points="3036.51,-131.55 3040.75,-141.26 3043.49,-131.03 3036.51,-131.55"/>
</g>
<!-- Node119&#45;&gt;Node120 -->
<g id="edge9" class="edge">
<title>Node119&#45;&gt;Node120</title>
<path fill="none" stroke="#63b8ff" d="M3024.54,-134.92C3008.45,-119.65 2985.18,-97.56 2972.36,-85.39"/>
<polygon fill="#63b8ff" stroke="#63b8ff" points="3021.87,-137.21 3031.53,-141.56 3026.69,-132.14 3021.87,-137.21"/>
</g>
<!-- Node122&#45;&gt;Node73 -->
<g id="edge12" class="edge">
<title>Node122&#45;&gt;Node73</title>
<path fill="none" stroke="#63b8ff" d="M3195.5,-130.33C3175.44,-115.44 3149.63,-96.27 3134.83,-85.29"/>
<polygon fill="#63b8ff" stroke="#63b8ff" points="3193.2,-132.99 3203.31,-136.14 3197.37,-127.37 3193.2,-132.99"/>
</g>
<!-- Node124&#45;&gt;Node15 -->
<g id="edge15" class="edge">
<title>Node124&#45;&gt;Node15</title>
<path fill="none" stroke="#63b8ff" d="M2900.92,-56.67C2902.97,-56.08 2905,-55.52 2907,-55 2970.18,-38.46 3044.24,-25.75 3093.42,-18.23"/>
<polygon fill="#63b8ff" stroke="#63b8ff" points="2899.94,-53.31 2891.39,-59.57 2901.98,-60.01 2899.94,-53.31"/>
</g>
<!-- Node125&#45;&gt;Node15 -->
<g id="edge17" class="edge">
<title>Node125&#45;&gt;Node15</title>
<path fill="none" stroke="#63b8ff" d="M3214.01,-48.9C3195.98,-38.42 3176.31,-26.97 3163.18,-19.33"/>
<polygon fill="#63b8ff" stroke="#63b8ff" points="3212.09,-51.84 3222.49,-53.84 3215.61,-45.79 3212.09,-51.84"/>
</g>
<!-- Node130&#45;&gt;Node15 -->
<g id="edge23" class="edge">
<title>Node130&#45;&gt;Node15</title>
<path fill="none" stroke="#63b8ff" d="M3324.99,-54.5C3271.02,-40.56 3219.06,-27.76 3185.08,-19.48"/>
<polygon fill="#63b8ff" stroke="#63b8ff" points="3323.78,-57.8 3334.34,-56.92 3325.54,-51.03 3323.78,-57.8"/>
</g>
<!-- Node131&#45;&gt;Node4 -->
<g id="edge25" class="edge">
<title>Node131&#45;&gt;Node4</title>
<path fill="none" stroke="#63b8ff" d="M975.06,-124.78C991.71,-110.91 1010.93,-94.89 1022.52,-85.24"/>
<polygon fill="#63b8ff" stroke="#63b8ff" points="973.25,-121.74 967.81,-130.83 977.73,-127.11 973.25,-121.74"/>
</g>
<!-- Node140&#45;&gt;Node3 -->
<g id="edge39" class="edge">
<title>Node140&#45;&gt;Node3</title>
<path fill="none" stroke="#63b8ff" d="M724.44,-278.74C737.31,-277.32 750.51,-276 763,-275 1196.1,-240.26 1719.94,-228.86 1893.78,-225.89"/>
<polygon fill="#63b8ff" stroke="#63b8ff" points="724.28,-275.23 714.74,-279.84 725.07,-282.19 724.28,-275.23"/>
</g>
<!-- Node141 -->
<g id="node32" class="node">
<title>Node141</title>
<g id="a_node32"><a xlink:href="f__op__kankyo_8h.html" target="_top" xlink:title=" ">
<polygon fill="#fff0f0" stroke="red" points="624,-162 490,-162 490,-143 624,-143 624,-162"/>
<text text-anchor="middle" x="557" y="-150" font-family="Helvetica,sans-Serif" font-size="10.00">include/f_op/f_op_kankyo.h</text>
</a>
</g>
</g>
<!-- Node140&#45;&gt;Node141 -->
<g id="edge40" class="edge">
<title>Node140&#45;&gt;Node141</title>
<path fill="none" stroke="#63b8ff" d="M644.84,-268.97C643.84,-251.87 640.31,-227.22 629,-209 615.84,-187.82 591.5,-171.64 574.79,-162.36"/>
<polygon fill="#63b8ff" stroke="#63b8ff" points="641.33,-268.95 645.14,-278.84 648.33,-268.73 641.33,-268.95"/>
</g>
<!-- Node64 -->
<g id="node33" class="node">
<title>Node64</title>
<g id="a_node33"><a xlink:href="f__op__kankyo_8cpp.html" target="_top" xlink:title=" ">
<polygon fill="white" stroke="#666666" points="574,-85 446,-85 446,-66 574,-66 574,-85"/>
<text text-anchor="middle" x="510" y="-73" font-family="Helvetica,sans-Serif" font-size="10.00">src/f_op/f_op_kankyo.cpp</text>
</a>
</g>
</g>
<!-- Node140&#45;&gt;Node64 -->
<g id="edge47" class="edge">
<title>Node140&#45;&gt;Node64</title>
<path fill="none" stroke="#63b8ff" d="M563.08,-282.82C533.54,-276.23 502.88,-263.44 484,-239 454.92,-201.35 469.66,-178.2 481,-132 485.35,-114.26 496.48,-95.9 503.62,-85.38"/>
<polygon fill="#63b8ff" stroke="#63b8ff" points="562.34,-286.24 572.83,-284.76 563.7,-279.38 562.34,-286.24"/>
</g>
<!-- Node143 -->
<g id="node34" class="node">
<title>Node143</title>
<g id="a_node34"><a xlink:href="f__op__kankyo__mng_8h.html" target="_top" xlink:title=" ">
<polygon fill="#fff0f0" stroke="red" points="620.5,-239 493.5,-239 493.5,-209 620.5,-209 620.5,-239"/>
<text text-anchor="start" x="501.5" y="-227" font-family="Helvetica,sans-Serif" font-size="10.00">include/f_op/f_op_kankyo</text>
<text text-anchor="middle" x="557" y="-216" font-family="Helvetica,sans-Serif" font-size="10.00">_mng.h</text>
</a>
</g>
</g>
<!-- Node140&#45;&gt;Node143 -->
<g id="edge42" class="edge">
<title>Node140&#45;&gt;Node143</title>
<path fill="none" stroke="#63b8ff" d="M623.71,-273.52C609.47,-263.16 590.85,-249.62 576.91,-239.48"/>
<polygon fill="#63b8ff" stroke="#63b8ff" points="621.39,-276.16 631.54,-279.21 625.51,-270.5 621.39,-276.16"/>
</g>
<!-- Node144 -->
<g id="node35" class="node">
<title>Node144</title>
<g id="a_node35"><a xlink:href="f__op__scene__mng_8h.html" target="_top" xlink:title=" ">
<polygon fill="#fff0f0" stroke="red" points="122,-239 0,-239 0,-209 122,-209 122,-239"/>
<text text-anchor="start" x="8" y="-227" font-family="Helvetica,sans-Serif" font-size="10.00">include/f_op/f_op_scene</text>
<text text-anchor="middle" x="61" y="-216" font-family="Helvetica,sans-Serif" font-size="10.00">_mng.h</text>
</a>
</g>
</g>
<!-- Node140&#45;&gt;Node144 -->
<g id="edge44" class="edge">
<title>Node140&#45;&gt;Node144</title>
<path fill="none" stroke="#63b8ff" d="M563.06,-283.15C462.26,-275.44 286.04,-260.33 136,-239 131.54,-238.37 126.94,-237.65 122.32,-236.89"/>
<polygon fill="#63b8ff" stroke="#63b8ff" points="562.63,-286.63 572.86,-283.89 563.15,-279.65 562.63,-286.63"/>
</g>
<!-- Node146 -->
<g id="node36" class="node">
<title>Node146</title>
<g id="a_node36"><a xlink:href="f__ap__game_8cpp.html" target="_top" xlink:title=" ">
<polygon fill="white" stroke="#666666" points="166.5,-162 45.5,-162 45.5,-143 166.5,-143 166.5,-162"/>
<text text-anchor="middle" x="106" y="-150" font-family="Helvetica,sans-Serif" font-size="10.00">src/f_ap/f_ap_game.cpp</text>
</a>
</g>
</g>
<!-- Node140&#45;&gt;Node146 -->
<g id="edge46" class="edge">
<title>Node140&#45;&gt;Node146</title>
<path fill="none" stroke="#63b8ff" d="M562.65,-288.25C444.56,-285.87 234.15,-276.32 169,-239 137.64,-221.04 117.37,-180.46 109.59,-162.43"/>
<polygon fill="#63b8ff" stroke="#63b8ff" points="562.55,-291.75 572.62,-288.44 562.68,-284.75 562.55,-291.75"/>
</g>
<!-- Node140&#45;&gt;Node148 -->
<g id="edge48" class="edge">
<title>Node140&#45;&gt;Node148</title>
<path fill="none" stroke="#63b8ff" d="M667.54,-273.82C682.97,-263.42 703.31,-249.72 718.51,-239.48"/>
<polygon fill="#63b8ff" stroke="#63b8ff" points="665.8,-270.77 659.46,-279.26 669.71,-276.57 665.8,-270.77"/>
</g>
<!-- Node149 -->
<g id="node38" class="node">
<title>Node149</title>
<g id="a_node38"><a xlink:href="f__op__scene_8cpp.html" target="_top" xlink:title=" ">
<polygon fill="white" stroke="#666666" points="301.5,-233.5 178.5,-233.5 178.5,-214.5 301.5,-214.5 301.5,-233.5"/>
<text text-anchor="middle" x="240" y="-221.5" font-family="Helvetica,sans-Serif" font-size="10.00">src/f_op/f_op_scene.cpp</text>
</a>
</g>
</g>
<!-- Node140&#45;&gt;Node149 -->
<g id="edge49" class="edge">
<title>Node140&#45;&gt;Node149</title>
<path fill="none" stroke="#63b8ff" d="M567.06,-278.48C499.06,-269.03 397.8,-254.32 310,-239 301.33,-237.49 292.09,-235.74 283.25,-234"/>
<polygon fill="#63b8ff" stroke="#63b8ff" points="566.22,-281.89 576.61,-279.8 567.18,-274.96 566.22,-281.89"/>
</g>
<!-- Node140&#45;&gt;Node150 -->
<g id="edge50" class="edge">
<title>Node140&#45;&gt;Node150</title>
<path fill="none" stroke="#63b8ff" d="M717.94,-278.39C806.48,-265.51 953.64,-244.11 1032.04,-232.7"/>
<polygon fill="#63b8ff" stroke="#63b8ff" points="717.53,-274.91 708.14,-279.82 718.54,-281.84 717.53,-274.91"/>
</g>
<!-- Node151 -->
<g id="node40" class="node">
<title>Node151</title>
<g id="a_node40"><a xlink:href="f__op__view_8cpp.html" target="_top" xlink:title=" ">
<polygon fill="white" stroke="#666666" points="436.5,-233.5 319.5,-233.5 319.5,-214.5 436.5,-214.5 436.5,-233.5"/>
<text text-anchor="middle" x="378" y="-221.5" font-family="Helvetica,sans-Serif" font-size="10.00">src/f_op/f_op_view.cpp</text>
</a>
</g>
</g>
<!-- Node140&#45;&gt;Node151 -->
<g id="edge51" class="edge">
<title>Node140&#45;&gt;Node151</title>
<path fill="none" stroke="#63b8ff" d="M596.61,-277.4C544.43,-264.89 462.5,-245.25 415.15,-233.91"/>
<polygon fill="#63b8ff" stroke="#63b8ff" points="595.58,-280.75 606.12,-279.68 597.21,-273.95 595.58,-280.75"/>
</g>
<!-- Node140&#45;&gt;Node110 -->
<g id="edge52" class="edge">
<title>Node140&#45;&gt;Node110</title>
<path fill="none" stroke="#63b8ff" d="M722.8,-278.77C736.19,-277.3 749.98,-275.96 763,-275 1320.84,-234.01 1464.76,-297.84 2021,-239 2032.07,-237.83 2043.96,-235.95 2054.96,-233.93"/>
<polygon fill="#63b8ff" stroke="#63b8ff" points="722.72,-275.26 713.18,-279.86 723.51,-282.21 722.72,-275.26"/>
</g>
<!-- Node141&#45;&gt;Node64 -->
<g id="edge41" class="edge">
<title>Node141&#45;&gt;Node64</title>
<path fill="none" stroke="#63b8ff" d="M545.53,-133.2C536.02,-118.02 522.91,-97.11 515.57,-85.39"/>
<polygon fill="#63b8ff" stroke="#63b8ff" points="542.34,-134.7 550.62,-141.32 548.28,-130.99 542.34,-134.7"/>
</g>
<!-- Node143&#45;&gt;Node141 -->
<g id="edge43" class="edge">
<title>Node143&#45;&gt;Node141</title>
<path fill="none" stroke="#63b8ff" d="M557,-197.46C557,-185.07 557,-170.99 557,-162.18"/>
<polygon fill="#63b8ff" stroke="#63b8ff" points="553.5,-197.09 557,-207.09 560.5,-197.09 553.5,-197.09"/>
</g>
<!-- Node144&#45;&gt;Node146 -->
<g id="edge45" class="edge">
<title>Node144&#45;&gt;Node146</title>
<path fill="none" stroke="#63b8ff" d="M76.55,-198.99C84.8,-186.24 94.44,-171.36 100.38,-162.18"/>
<polygon fill="#63b8ff" stroke="#63b8ff" points="73.64,-197.03 71.15,-207.33 79.52,-200.84 73.64,-197.03"/>
</g>
</g>
</svg>
