<?xml version="1.0" encoding="UTF-8" standalone="no"?>
<!DOCTYPE svg PUBLIC "-//W3C//DTD SVG 1.1//EN"
 "http://www.w3.org/Graphics/SVG/1.1/DTD/svg11.dtd">
<!-- Generated by graphviz version 2.44.0 ()
 -->
<!-- Title: include/f_pc/f_pc_line_iter.h Pages: 1 -->
<svg width="1573pt" height="240pt"
 viewBox="0.00 0.00 1572.50 240.00" xmlns="http://www.w3.org/2000/svg" xmlns:xlink="http://www.w3.org/1999/xlink">
<g id="graph0" class="graph" transform="scale(1 1) rotate(0) translate(4 236)">
<title>include/f_pc/f_pc_line_iter.h</title>
<polygon fill="white" stroke="transparent" points="-4,4 -4,-236 1568.5,-236 1568.5,4 -4,4"/>
<!-- Node1 -->
<g id="node1" class="node">
<title>Node1</title>
<g id="a_node1"><a xlink:title=" ">
<polygon fill="#bfbfbf" stroke="black" points="220.5,-201.5 220.5,-231.5 331.5,-231.5 331.5,-201.5 220.5,-201.5"/>
<text text-anchor="start" x="228.5" y="-219.5" font-family="Helvetica,sans-Serif" font-size="10.00">include/f_pc/f_pc_line</text>
<text text-anchor="middle" x="276" y="-208.5" font-family="Helvetica,sans-Serif" font-size="10.00">_iter.h</text>
</a>
</g>
</g>
<!-- Node2 -->
<g id="node2" class="node">
<title>Node2</title>
<g id="a_node2"><a xlink:href="f__pc__line__iter_8cpp.html" target="_top" xlink:title=" ">
<polygon fill="white" stroke="black" points="154,-134.5 154,-164.5 248,-164.5 248,-134.5 154,-134.5"/>
<text text-anchor="start" x="162" y="-152.5" font-family="Helvetica,sans-Serif" font-size="10.00">src/f_pc/f_pc_line</text>
<text text-anchor="middle" x="201" y="-141.5" font-family="Helvetica,sans-Serif" font-size="10.00">_iter.cpp</text>
</a>
</g>
</g>
<!-- Node1&#45;&gt;Node2 -->
<g id="edge1" class="edge">
<title>Node1&#45;&gt;Node2</title>
<path fill="none" stroke="midnightblue" d="M251.88,-194.6C240.56,-184.78 227.36,-173.34 217.24,-164.58"/>
<polygon fill="midnightblue" stroke="midnightblue" points="249.88,-197.49 259.73,-201.4 254.46,-192.2 249.88,-197.49"/>
</g>
<!-- Node3 -->
<g id="node3" class="node">
<title>Node3</title>
<g id="a_node3"><a xlink:href="f__pc__manager_8cpp.html" target="_top" xlink:title=" ">
<polygon fill="white" stroke="black" points="0,-73 0,-92 134,-92 134,-73 0,-73"/>
<text text-anchor="middle" x="67" y="-80" font-family="Helvetica,sans-Serif" font-size="10.00">src/f_pc/f_pc_manager.cpp</text>
</a>
</g>
</g>
<!-- Node1&#45;&gt;Node3 -->
<g id="edge2" class="edge">
<title>Node1&#45;&gt;Node3</title>
<path fill="none" stroke="midnightblue" d="M276.65,-191.27C275.8,-173.19 271.64,-149.1 257,-134 246.55,-123.22 160.66,-103.39 108,-92.05"/>
<polygon fill="midnightblue" stroke="midnightblue" points="273.15,-191.42 276.82,-201.36 280.15,-191.3 273.15,-191.42"/>
</g>
<!-- Node4 -->
<g id="node4" class="node">
<title>Node4</title>
<g id="a_node4"><a xlink:href="f__pc__executor_8h.html" target="_top" xlink:title=" ">
<polygon fill="white" stroke="black" points="514,-140 514,-159 654,-159 654,-140 514,-140"/>
<text text-anchor="middle" x="584" y="-147" font-family="Helvetica,sans-Serif" font-size="10.00">include/f_pc/f_pc_executor.h</text>
</a>
</g>
</g>
<!-- Node1&#45;&gt;Node4 -->
<g id="edge3" class="edge">
<title>Node1&#45;&gt;Node4</title>
<path fill="none" stroke="midnightblue" d="M341.71,-201.63C402.84,-188.73 491.99,-169.92 543.38,-159.07"/>
<polygon fill="midnightblue" stroke="midnightblue" points="340.84,-198.24 331.78,-203.73 342.28,-205.09 340.84,-198.24"/>
</g>
<!-- Node4&#45;&gt;Node3 -->
<g id="edge11" class="edge">
<title>Node4&#45;&gt;Node3</title>
<path fill="none" stroke="midnightblue" d="M503.93,-141.14C415.38,-132.58 268.62,-117.15 143,-98 131.85,-96.3 119.83,-94.15 108.72,-92.04"/>
<polygon fill="midnightblue" stroke="midnightblue" points="503.61,-144.63 513.9,-142.1 504.28,-137.66 503.61,-144.63"/>
</g>
<!-- Node5 -->
<g id="node5" class="node">
<title>Node5</title>
<g id="a_node5"><a xlink:href="f__op__overlap__mng_8cpp.html" target="_top" xlink:title=" ">
<polygon fill="white" stroke="black" points="152,-67.5 152,-97.5 262,-97.5 262,-67.5 152,-67.5"/>
<text text-anchor="start" x="160" y="-85.5" font-family="Helvetica,sans-Serif" font-size="10.00">src/f_op/f_op_overlap</text>
<text text-anchor="middle" x="207" y="-74.5" font-family="Helvetica,sans-Serif" font-size="10.00">_mng.cpp</text>
</a>
</g>
</g>
<!-- Node4&#45;&gt;Node5 -->
<g id="edge4" class="edge">
<title>Node4&#45;&gt;Node5</title>
<path fill="none" stroke="midnightblue" d="M514.17,-138.52C450.6,-129.13 354.22,-114.13 271,-98 268.09,-97.44 265.11,-96.84 262.11,-96.22"/>
<polygon fill="midnightblue" stroke="midnightblue" points="513.69,-141.98 524.09,-139.98 514.71,-135.06 513.69,-141.98"/>
</g>
<!-- Node6 -->
<g id="node6" class="node">
<title>Node6</title>
<g id="a_node6"><a xlink:href="f__op__overlap__req_8cpp.html" target="_top" xlink:title=" ">
<polygon fill="white" stroke="black" points="280,-67.5 280,-97.5 390,-97.5 390,-67.5 280,-67.5"/>
<text text-anchor="start" x="288" y="-85.5" font-family="Helvetica,sans-Serif" font-size="10.00">src/f_op/f_op_overlap</text>
<text text-anchor="middle" x="335" y="-74.5" font-family="Helvetica,sans-Serif" font-size="10.00">_req.cpp</text>
</a>
</g>
</g>
<!-- Node4&#45;&gt;Node6 -->
<g id="edge5" class="edge">
<title>Node4&#45;&gt;Node6</title>
<path fill="none" stroke="midnightblue" d="M541.51,-137.41C499.35,-126.4 434.6,-109.5 388.86,-97.56"/>
<polygon fill="midnightblue" stroke="midnightblue" points="540.63,-140.8 551.19,-139.94 542.4,-134.02 540.63,-140.8"/>
</g>
<!-- Node7 -->
<g id="node7" class="node">
<title>Node7</title>
<g id="a_node7"><a xlink:href="f__op__scene__pause_8cpp.html" target="_top" xlink:title=" ">
<polygon fill="white" stroke="black" points="408.5,-67.5 408.5,-97.5 513.5,-97.5 513.5,-67.5 408.5,-67.5"/>
<text text-anchor="start" x="416.5" y="-85.5" font-family="Helvetica,sans-Serif" font-size="10.00">src/f_op/f_op_scene</text>
<text text-anchor="middle" x="461" y="-74.5" font-family="Helvetica,sans-Serif" font-size="10.00">_pause.cpp</text>
</a>
</g>
</g>
<!-- Node4&#45;&gt;Node7 -->
<g id="edge6" class="edge">
<title>Node4&#45;&gt;Node7</title>
<path fill="none" stroke="midnightblue" d="M558.82,-135.19C538.13,-124.26 508.89,-108.81 487.78,-97.65"/>
<polygon fill="midnightblue" stroke="midnightblue" points="557.19,-138.29 567.67,-139.87 560.46,-132.1 557.19,-138.29"/>
</g>
<!-- Node8 -->
<g id="node8" class="node">
<title>Node8</title>
<g id="a_node8"><a xlink:href="f__op__scene__req_8cpp.html" target="_top" xlink:title=" ">
<polygon fill="white" stroke="black" points="531.5,-67.5 531.5,-97.5 636.5,-97.5 636.5,-67.5 531.5,-67.5"/>
<text text-anchor="start" x="539.5" y="-85.5" font-family="Helvetica,sans-Serif" font-size="10.00">src/f_op/f_op_scene</text>
<text text-anchor="middle" x="584" y="-74.5" font-family="Helvetica,sans-Serif" font-size="10.00">_req.cpp</text>
</a>
</g>
</g>
<!-- Node4&#45;&gt;Node8 -->
<g id="edge7" class="edge">
<title>Node4&#45;&gt;Node8</title>
<path fill="none" stroke="midnightblue" d="M584,-129.41C584,-119.22 584,-106.9 584,-97.59"/>
<polygon fill="midnightblue" stroke="midnightblue" points="580.5,-129.73 584,-139.73 587.5,-129.73 580.5,-129.73"/>
</g>
<!-- Node9 -->
<g id="node9" class="node">
<title>Node9</title>
<g id="a_node9"><a xlink:href="f__pc__create__req_8cpp.html" target="_top" xlink:title=" ">
<polygon fill="white" stroke="black" points="655,-67.5 655,-97.5 761,-97.5 761,-67.5 655,-67.5"/>
<text text-anchor="start" x="663" y="-85.5" font-family="Helvetica,sans-Serif" font-size="10.00">src/f_pc/f_pc_create</text>
<text text-anchor="middle" x="708" y="-74.5" font-family="Helvetica,sans-Serif" font-size="10.00">_req.cpp</text>
</a>
</g>
</g>
<!-- Node4&#45;&gt;Node9 -->
<g id="edge8" class="edge">
<title>Node4&#45;&gt;Node9</title>
<path fill="none" stroke="midnightblue" d="M609.38,-135.19C630.24,-124.26 659.72,-108.81 681,-97.65"/>
<polygon fill="midnightblue" stroke="midnightblue" points="607.7,-132.13 600.47,-139.87 610.95,-138.33 607.7,-132.13"/>
</g>
<!-- Node10 -->
<g id="node10" class="node">
<title>Node10</title>
<g id="a_node10"><a xlink:href="f__pc__deletor_8cpp.html" target="_top" xlink:title=" ">
<polygon fill="white" stroke="black" points="779,-73 779,-92 905,-92 905,-73 779,-73"/>
<text text-anchor="middle" x="842" y="-80" font-family="Helvetica,sans-Serif" font-size="10.00">src/f_pc/f_pc_deletor.cpp</text>
</a>
</g>
</g>
<!-- Node4&#45;&gt;Node10 -->
<g id="edge9" class="edge">
<title>Node4&#45;&gt;Node10</title>
<path fill="none" stroke="midnightblue" d="M627.72,-137.48C678.62,-124.66 761.58,-103.76 807.93,-92.08"/>
<polygon fill="midnightblue" stroke="midnightblue" points="626.84,-134.1 617.99,-139.94 628.55,-140.89 626.84,-134.1"/>
</g>
<!-- Node11 -->
<g id="node11" class="node">
<title>Node11</title>
<g id="a_node11"><a xlink:href="f__pc__executor_8cpp.html" target="_top" xlink:title=" ">
<polygon fill="white" stroke="black" points="923,-73 923,-92 1057,-92 1057,-73 923,-73"/>
<text text-anchor="middle" x="990" y="-80" font-family="Helvetica,sans-Serif" font-size="10.00">src/f_pc/f_pc_executor.cpp</text>
</a>
</g>
</g>
<!-- Node4&#45;&gt;Node11 -->
<g id="edge10" class="edge">
<title>Node4&#45;&gt;Node11</title>
<path fill="none" stroke="midnightblue" d="M654.03,-138.54C720.91,-128.86 824.49,-113.38 914,-98 924.59,-96.18 935.98,-94.08 946.64,-92.06"/>
<polygon fill="midnightblue" stroke="midnightblue" points="653.42,-135.1 644.02,-139.99 654.42,-142.02 653.42,-135.1"/>
</g>
<!-- Node12 -->
<g id="node12" class="node">
<title>Node12</title>
<g id="a_node12"><a xlink:href="f__pc__node__req_8cpp.html" target="_top" xlink:title=" ">
<polygon fill="white" stroke="black" points="1075,-67.5 1075,-97.5 1175,-97.5 1175,-67.5 1075,-67.5"/>
<text text-anchor="start" x="1083" y="-85.5" font-family="Helvetica,sans-Serif" font-size="10.00">src/f_pc/f_pc_node</text>
<text text-anchor="middle" x="1125" y="-74.5" font-family="Helvetica,sans-Serif" font-size="10.00">_req.cpp</text>
</a>
</g>
</g>
<!-- Node4&#45;&gt;Node12 -->
<g id="edge12" class="edge">
<title>Node4&#45;&gt;Node12</title>
<path fill="none" stroke="midnightblue" d="M664.48,-143.44C760.56,-136.63 925.85,-122.45 1066,-98 1068.91,-97.49 1071.89,-96.92 1074.89,-96.31"/>
<polygon fill="midnightblue" stroke="midnightblue" points="663.99,-139.97 654.26,-144.16 664.48,-146.95 663.99,-139.97"/>
</g>
<!-- Node13 -->
<g id="node13" class="node">
<title>Node13</title>
<g id="a_node13"><a xlink:href="f__op__actor__mng_8h.html" target="_top" xlink:title=" ">
<polygon fill="white" stroke="black" points="1193,-67.5 1193,-97.5 1311,-97.5 1311,-67.5 1193,-67.5"/>
<text text-anchor="start" x="1201" y="-85.5" font-family="Helvetica,sans-Serif" font-size="10.00">include/f_op/f_op_actor</text>
<text text-anchor="middle" x="1252" y="-74.5" font-family="Helvetica,sans-Serif" font-size="10.00">_mng.h</text>
</a>
</g>
</g>
<!-- Node4&#45;&gt;Node13 -->
<g id="edge13" class="edge">
<title>Node4&#45;&gt;Node13</title>
<path fill="none" stroke="midnightblue" d="M664.24,-144.97C779.67,-139.16 999.05,-125.39 1184,-98 1186.87,-97.58 1189.79,-97.1 1192.74,-96.6"/>
<polygon fill="midnightblue" stroke="midnightblue" points="663.89,-141.48 654.08,-145.47 664.24,-148.47 663.89,-141.48"/>
</g>
<!-- Node14 -->
<g id="node14" class="node">
<title>Node14</title>
<g id="a_node14"><a xlink:href="d__a__player_8cpp.html" target="_top" xlink:title=" ">
<polygon fill="white" stroke="black" points="953,-6 953,-25 1067,-25 1067,-6 953,-6"/>
<text text-anchor="middle" x="1010" y="-13" font-family="Helvetica,sans-Serif" font-size="10.00">src/d/a/d_a_player.cpp</text>
</a>
</g>
</g>
<!-- Node13&#45;&gt;Node14 -->
<g id="edge14" class="edge">
<title>Node13&#45;&gt;Node14</title>
<path fill="none" stroke="midnightblue" d="M1189.94,-64.83C1142.58,-52.11 1079.27,-35.11 1041.75,-25.03"/>
<polygon fill="midnightblue" stroke="midnightblue" points="1189.22,-68.26 1199.79,-67.48 1191.04,-61.5 1189.22,-68.26"/>
</g>
<!-- Node15 -->
<g id="node15" class="node">
<title>Node15</title>
<g id="a_node15"><a xlink:href="d__bomb_8cpp.html" target="_top" xlink:title=" ">
<polygon fill="white" stroke="black" points="1085,-6 1085,-25 1179,-25 1179,-6 1085,-6"/>
<text text-anchor="middle" x="1132" y="-13" font-family="Helvetica,sans-Serif" font-size="10.00">src/d/d_bomb.cpp</text>
</a>
</g>
</g>
<!-- Node13&#45;&gt;Node15 -->
<g id="edge15" class="edge">
<title>Node13&#45;&gt;Node15</title>
<path fill="none" stroke="midnightblue" d="M1216.87,-62.47C1193.96,-50.06 1165.18,-34.47 1147.71,-25.01"/>
<polygon fill="midnightblue" stroke="midnightblue" points="1215.5,-65.71 1225.96,-67.4 1218.84,-59.56 1215.5,-65.71"/>
</g>
<!-- Node16 -->
<g id="node16" class="node">
<title>Node16</title>
<g id="a_node16"><a xlink:href="d__a__alink_8cpp.html" target="_top" xlink:title=" ">
<polygon fill="white" stroke="black" points="1197.5,-6 1197.5,-25 1306.5,-25 1306.5,-6 1197.5,-6"/>
<text text-anchor="middle" x="1252" y="-13" font-family="Helvetica,sans-Serif" font-size="10.00">src/d/a/d_a_alink.cpp</text>
</a>
</g>
</g>
<!-- Node13&#45;&gt;Node16 -->
<g id="edge16" class="edge">
<title>Node13&#45;&gt;Node16</title>
<path fill="none" stroke="midnightblue" d="M1252,-57.25C1252,-46.02 1252,-33.38 1252,-25.19"/>
<polygon fill="midnightblue" stroke="midnightblue" points="1248.5,-57.4 1252,-67.4 1255.5,-57.4 1248.5,-57.4"/>
</g>
<!-- Node17 -->
<g id="node17" class="node">
<title>Node17</title>
<g id="a_node17"><a xlink:href="d__event_8cpp.html" target="_top" xlink:title=" ">
<polygon fill="white" stroke="black" points="1324.5,-6 1324.5,-25 1445.5,-25 1445.5,-6 1324.5,-6"/>
<text text-anchor="middle" x="1385" y="-13" font-family="Helvetica,sans-Serif" font-size="10.00">src/d/event/d_event.cpp</text>
</a>
</g>
</g>
<!-- Node13&#45;&gt;Node17 -->
<g id="edge17" class="edge">
<title>Node13&#45;&gt;Node17</title>
<path fill="none" stroke="midnightblue" d="M1289.92,-62.97C1315.47,-50.48 1347.97,-34.6 1367.59,-25.01"/>
<polygon fill="midnightblue" stroke="midnightblue" points="1288.31,-59.86 1280.86,-67.4 1291.38,-66.15 1288.31,-59.86"/>
</g>
<!-- Node18 -->
<g id="node18" class="node">
<title>Node18</title>
<g id="a_node18"><a xlink:href="f__op__actor__mng_8cpp.html" target="_top" xlink:title=" ">
<polygon fill="white" stroke="black" points="1463.5,-0.5 1463.5,-30.5 1564.5,-30.5 1564.5,-0.5 1463.5,-0.5"/>
<text text-anchor="start" x="1471.5" y="-18.5" font-family="Helvetica,sans-Serif" font-size="10.00">src/f_op/f_op_actor</text>
<text text-anchor="middle" x="1514" y="-7.5" font-family="Helvetica,sans-Serif" font-size="10.00">_mng.cpp</text>
</a>
</g>
</g>
<!-- Node13&#45;&gt;Node18 -->
<g id="edge18" class="edge">
<title>Node13&#45;&gt;Node18</title>
<path fill="none" stroke="midnightblue" d="M1318.5,-65C1363.52,-53.83 1422.08,-39.3 1463.33,-29.07"/>
<polygon fill="midnightblue" stroke="midnightblue" points="1317.39,-61.67 1308.53,-67.48 1319.08,-68.47 1317.39,-61.67"/>
</g>
</g>
</svg>
