<?xml version="1.0" encoding="UTF-8" standalone="no"?>
<!DOCTYPE svg PUBLIC "-//W3C//DTD SVG 1.1//EN"
 "http://www.w3.org/Graphics/SVG/1.1/DTD/svg11.dtd">
<!-- Generated by graphviz version 2.44.0 ()
 -->
<!-- Title: libs/MSL_C.PPCEABI.bare.H/MSL_Common/Src/float.cpp Pages: 1 -->
<svg width="257pt" height="162pt"
 viewBox="0.00 0.00 257.00 162.00" xmlns="http://www.w3.org/2000/svg" xmlns:xlink="http://www.w3.org/1999/xlink">
<g id="graph0" class="graph" transform="scale(1 1) rotate(0) translate(4 158)">
<title>libs/MSL_C.PPCEABI.bare.H/MSL_Common/Src/float.cpp</title>
<polygon fill="white" stroke="transparent" points="-4,4 -4,-158 253,-158 253,4 -4,4"/>
<!-- Node1 -->
<g id="node1" class="node">
<title>Node1</title>
<g id="a_node1"><a xlink:title=" ">
<polygon fill="#bfbfbf" stroke="black" points="85,-123.5 85,-153.5 234,-153.5 234,-123.5 85,-123.5"/>
<text text-anchor="start" x="93" y="-141.5" font-family="Helvetica,sans-Serif" font-size="10.00">libs/MSL_C.PPCEABI.bare.</text>
<text text-anchor="middle" x="159.5" y="-130.5" font-family="Helvetica,sans-Serif" font-size="10.00">H/MSL_Common/Src/float.cpp</text>
</a>
</g>
</g>
<!-- Node2 -->
<g id="node2" class="node">
<title>Node2</title>
<g id="a_node2"><a xlink:href="float_8h.html" target="_top" xlink:title=" ">
<polygon fill="white" stroke="black" points="0,-56.5 0,-86.5 131,-86.5 131,-56.5 0,-56.5"/>
<text text-anchor="start" x="8" y="-74.5" font-family="Helvetica,sans-Serif" font-size="10.00">MSL_C.PPCEABI.bare.H</text>
<text text-anchor="middle" x="65.5" y="-63.5" font-family="Helvetica,sans-Serif" font-size="10.00">/MSL_Common/Src/float.h</text>
</a>
</g>
</g>
<!-- Node1&#45;&gt;Node2 -->
<g id="edge1" class="edge">
<title>Node1&#45;&gt;Node2</title>
<path fill="none" stroke="midnightblue" d="M139.1,-123.4C126.05,-114.37 108.9,-102.51 94.45,-92.52"/>
<polygon fill="midnightblue" stroke="midnightblue" points="96.07,-89.39 85.86,-86.58 92.09,-95.14 96.07,-89.39"/>
</g>
<!-- Node3 -->
<g id="node3" class="node">
<title>Node3</title>
<g id="a_node3"><a xlink:href="types_8h.html" target="_top" xlink:title=" ">
<polygon fill="white" stroke="black" points="72,-0.5 72,-19.5 153,-19.5 153,-0.5 72,-0.5"/>
<text text-anchor="middle" x="112.5" y="-7.5" font-family="Helvetica,sans-Serif" font-size="10.00">dolphin/types.h</text>
</a>
</g>
</g>
<!-- Node1&#45;&gt;Node3 -->
<g id="edge4" class="edge">
<title>Node1&#45;&gt;Node3</title>
<path fill="none" stroke="midnightblue" d="M157.62,-123.22C155.11,-106.6 149.84,-78.55 140.5,-56 136.41,-46.12 130.26,-35.93 124.76,-27.75"/>
<polygon fill="midnightblue" stroke="midnightblue" points="127.58,-25.68 118.98,-19.5 121.85,-29.7 127.58,-25.68"/>
</g>
<!-- Node4 -->
<g id="node4" class="node">
<title>Node4</title>
<g id="a_node4"><a xlink:href="dol2asm_8h.html" target="_top" xlink:title=" ">
<polygon fill="white" stroke="black" points="188,-62 188,-81 249,-81 249,-62 188,-62"/>
<text text-anchor="middle" x="218.5" y="-69" font-family="Helvetica,sans-Serif" font-size="10.00">dol2asm.h</text>
</a>
</g>
</g>
<!-- Node1&#45;&gt;Node4 -->
<g id="edge3" class="edge">
<title>Node1&#45;&gt;Node4</title>
<path fill="none" stroke="midnightblue" d="M172.3,-123.4C181.59,-113.16 194.18,-99.3 203.87,-88.62"/>
<polygon fill="midnightblue" stroke="midnightblue" points="206.48,-90.95 210.61,-81.19 201.3,-86.25 206.48,-90.95"/>
</g>
<!-- Node2&#45;&gt;Node3 -->
<g id="edge2" class="edge">
<title>Node2&#45;&gt;Node3</title>
<path fill="none" stroke="midnightblue" d="M76.64,-56.4C83.47,-47.75 92.24,-36.64 99.41,-27.58"/>
<polygon fill="midnightblue" stroke="midnightblue" points="102.21,-29.67 105.66,-19.66 96.72,-25.34 102.21,-29.67"/>
</g>
</g>
</svg>
