<?xml version="1.0" encoding="UTF-8" standalone="no"?>
<!DOCTYPE svg PUBLIC "-//W3C//DTD SVG 1.1//EN"
 "http://www.w3.org/Graphics/SVG/1.1/DTD/svg11.dtd">
<!-- Generated by graphviz version 7.0.5 (20221223.1930)
 -->
<!-- Title: include/JSystem/JStudio/JStudio/fvb.h Pages: 1 -->
<svg width="501pt" height="478pt"
 viewBox="0.00 0.00 501.00 478.00" xmlns="http://www.w3.org/2000/svg" xmlns:xlink="http://www.w3.org/1999/xlink">
<g id="graph0" class="graph" transform="scale(1 1) rotate(0) translate(4 474)">
<title>include/JSystem/JStudio/JStudio/fvb.h</title>
<!-- Node1 -->
<g id="node1" class="node">
<title>Node1</title>
<g id="a_node1"><a xlink:title=" ">
<polygon fill="#999999" stroke="#666666" points="451,-470 326,-470 326,-440 451,-440 451,-470"/>
<text text-anchor="start" x="334" y="-458" font-family="Helvetica,sans-Serif" font-size="10.00">include/JSystem/JStudio</text>
<text text-anchor="middle" x="388.5" y="-447" font-family="Helvetica,sans-Serif" font-size="10.00">/JStudio/fvb.h</text>
</a>
</g>
</g>
<!-- Node2 -->
<g id="node2" class="node">
<title>Node2</title>
<g id="a_node2"><a xlink:href="linklist_8h.html" target="_top" xlink:title=" ">
<polygon fill="white" stroke="#666666" points="133,-332.5 0,-332.5 0,-313.5 133,-313.5 133,-332.5"/>
<text text-anchor="middle" x="66.5" y="-320.5" font-family="Helvetica,sans-Serif" font-size="10.00">JSystem/JGadget/linklist.h</text>
</a>
</g>
</g>
<!-- Node1&#45;&gt;Node2 -->
<g id="edge1" class="edge">
<title>Node1&#45;&gt;Node2</title>
<path fill="none" stroke="#63b8ff" d="M335.17,-439.59C303.71,-430.54 263.35,-417.95 228.5,-404 178.79,-384.1 123.34,-355.17 91.91,-338.1"/>
<polygon fill="#63b8ff" stroke="#63b8ff" points="94,-335.25 83.55,-333.52 90.64,-341.39 94,-335.25"/>
</g>
<!-- Node5 -->
<g id="node5" class="node">
<title>Node5</title>
<g id="a_node5"><a xlink:href="fvb-data-parse_8h.html" target="_top" xlink:title=" ">
<polygon fill="white" stroke="#666666" points="365,-404 238,-404 238,-374 365,-374 365,-404"/>
<text text-anchor="start" x="246" y="-392" font-family="Helvetica,sans-Serif" font-size="10.00">JSystem/JStudio/JStudio</text>
<text text-anchor="middle" x="301.5" y="-381" font-family="Helvetica,sans-Serif" font-size="10.00">/fvb&#45;data&#45;parse.h</text>
</a>
</g>
</g>
<!-- Node1&#45;&gt;Node5 -->
<g id="edge4" class="edge">
<title>Node1&#45;&gt;Node5</title>
<path fill="none" stroke="#63b8ff" d="M369.19,-439.8C357.67,-431.32 342.83,-420.4 329.98,-410.95"/>
<polygon fill="#63b8ff" stroke="#63b8ff" points="332.4,-408.39 322.27,-405.28 328.26,-414.03 332.4,-408.39"/>
</g>
<!-- Node10 -->
<g id="node10" class="node">
<title>Node10</title>
<g id="a_node10"><a xlink:href="global_8h.html" target="_top" xlink:title=" ">
<polygon fill="white" stroke="#666666" points="259.5,-145.5 209.5,-145.5 209.5,-126.5 259.5,-126.5 259.5,-145.5"/>
<text text-anchor="middle" x="234.5" y="-133.5" font-family="Helvetica,sans-Serif" font-size="10.00">global.h</text>
</a>
</g>
</g>
<!-- Node1&#45;&gt;Node10 -->
<g id="edge17" class="edge">
<title>Node1&#45;&gt;Node10</title>
<path fill="none" stroke="#63b8ff" d="M397.34,-439.79C410.96,-416.52 435.5,-368.4 435.5,-324 435.5,-324 435.5,-324 435.5,-256 435.5,-224.19 439,-209.49 416.5,-187 377.79,-148.31 312.13,-138.82 271.15,-136.9"/>
<polygon fill="#63b8ff" stroke="#63b8ff" points="271.41,-133.41 261.3,-136.58 271.18,-140.4 271.41,-133.41"/>
</g>
<!-- Node12 -->
<g id="node12" class="node">
<title>Node12</title>
<g id="a_node12"><a xlink:href="object-id_8h.html" target="_top" xlink:title=" ">
<polygon fill="white" stroke="#666666" points="493,-151 366,-151 366,-121 493,-121 493,-151"/>
<text text-anchor="start" x="374" y="-139" font-family="Helvetica,sans-Serif" font-size="10.00">JSystem/JStudio/JStudio</text>
<text text-anchor="middle" x="429.5" y="-128" font-family="Helvetica,sans-Serif" font-size="10.00">/object&#45;id.h</text>
</a>
</g>
</g>
<!-- Node1&#45;&gt;Node12 -->
<g id="edge15" class="edge">
<title>Node1&#45;&gt;Node12</title>
<path fill="none" stroke="#63b8ff" d="M412.31,-439.52C425.01,-430.69 439.93,-418.36 449.5,-404 470.09,-373.11 473.5,-361.12 473.5,-324 473.5,-324 473.5,-324 473.5,-256 473.5,-221.43 456.96,-184.51 444.16,-161.13"/>
<polygon fill="#63b8ff" stroke="#63b8ff" points="447.36,-159.66 439.37,-152.71 441.27,-163.13 447.36,-159.66"/>
</g>
<!-- Node3 -->
<g id="node3" class="node">
<title>Node3</title>
<g id="a_node3"><a xlink:href="types_8h.html" target="_top" xlink:title=" ">
<polygon fill="white" stroke="#666666" points="136,-85 55,-85 55,-66 136,-66 136,-85"/>
<text text-anchor="middle" x="95.5" y="-73" font-family="Helvetica,sans-Serif" font-size="10.00">dolphin/types.h</text>
</a>
</g>
</g>
<!-- Node2&#45;&gt;Node3 -->
<g id="edge2" class="edge">
<title>Node2&#45;&gt;Node3</title>
<path fill="none" stroke="#63b8ff" d="M59.59,-313.03C52.7,-303.48 42.57,-287.6 38.5,-272 35.13,-259.1 36.63,-255.2 38.5,-242 46.36,-186.57 53.24,-173.19 73.5,-121 76.81,-112.47 81.16,-103.36 85.12,-95.62"/>
<polygon fill="#63b8ff" stroke="#63b8ff" points="88.18,-97.31 89.76,-86.83 81.99,-94.04 88.18,-97.31"/>
</g>
<!-- Node4 -->
<g id="node4" class="node">
<title>Node4</title>
<g id="a_node4"><a xlink:href="stddef_8h.html" target="_top" xlink:title=" ">
<polygon fill="white" stroke="#666666" points="163.5,-30 27.5,-30 27.5,0 163.5,0 163.5,-30"/>
<text text-anchor="start" x="35.5" y="-18" font-family="Helvetica,sans-Serif" font-size="10.00">MSL_C/MSL_Common/Src</text>
<text text-anchor="middle" x="95.5" y="-7" font-family="Helvetica,sans-Serif" font-size="10.00">/stddef.h</text>
</a>
</g>
</g>
<!-- Node3&#45;&gt;Node4 -->
<g id="edge3" class="edge">
<title>Node3&#45;&gt;Node4</title>
<path fill="none" stroke="#63b8ff" d="M95.5,-65.87C95.5,-59.4 95.5,-50.2 95.5,-41.45"/>
<polygon fill="#63b8ff" stroke="#63b8ff" points="99,-41.63 95.5,-31.63 92,-41.63 99,-41.63"/>
</g>
<!-- Node6 -->
<g id="node6" class="node">
<title>Node6</title>
<g id="a_node6"><a xlink:href="fvb-data_8h.html" target="_top" xlink:title=" ">
<polygon fill="white" stroke="#666666" points="324,-338 197,-338 197,-308 324,-308 324,-338"/>
<text text-anchor="start" x="205" y="-326" font-family="Helvetica,sans-Serif" font-size="10.00">JSystem/JStudio/JStudio</text>
<text text-anchor="middle" x="260.5" y="-315" font-family="Helvetica,sans-Serif" font-size="10.00">/fvb&#45;data.h</text>
</a>
</g>
</g>
<!-- Node5&#45;&gt;Node6 -->
<g id="edge5" class="edge">
<title>Node5&#45;&gt;Node6</title>
<path fill="none" stroke="#63b8ff" d="M292.4,-373.8C287.52,-366.17 281.37,-356.57 275.78,-347.84"/>
<polygon fill="#63b8ff" stroke="#63b8ff" points="278.73,-345.97 270.39,-339.44 272.84,-349.75 278.73,-345.97"/>
</g>
<!-- Node7 -->
<g id="node7" class="node">
<title>Node7</title>
<g id="a_node7"><a xlink:href="binary_8h.html" target="_top" xlink:title=" ">
<polygon fill="white" stroke="#666666" points="179,-266.5 48,-266.5 48,-247.5 179,-247.5 179,-266.5"/>
<text text-anchor="middle" x="113.5" y="-254.5" font-family="Helvetica,sans-Serif" font-size="10.00">JSystem/JGadget/binary.h</text>
</a>
</g>
</g>
<!-- Node6&#45;&gt;Node7 -->
<g id="edge6" class="edge">
<title>Node6&#45;&gt;Node7</title>
<path fill="none" stroke="#63b8ff" d="M227.51,-307.64C202.7,-296.83 168.93,-282.13 144.59,-271.54"/>
<polygon fill="#63b8ff" stroke="#63b8ff" points="146.09,-268.37 135.53,-267.59 143.3,-274.79 146.09,-268.37"/>
</g>
<!-- Node8 -->
<g id="node8" class="node">
<title>Node8</title>
<g id="a_node8"><a xlink:href="functionvalue_8h.html" target="_top" xlink:title=" ">
<polygon fill="white" stroke="#666666" points="324,-272 197,-272 197,-242 324,-242 324,-272"/>
<text text-anchor="start" x="205" y="-260" font-family="Helvetica,sans-Serif" font-size="10.00">JSystem/JStudio/JStudio</text>
<text text-anchor="middle" x="260.5" y="-249" font-family="Helvetica,sans-Serif" font-size="10.00">/functionvalue.h</text>
</a>
</g>
</g>
<!-- Node6&#45;&gt;Node8 -->
<g id="edge8" class="edge">
<title>Node6&#45;&gt;Node8</title>
<path fill="none" stroke="#63b8ff" d="M260.5,-307.8C260.5,-300.67 260.5,-291.82 260.5,-283.56"/>
<polygon fill="#63b8ff" stroke="#63b8ff" points="264,-283.68 260.5,-273.68 257,-283.68 264,-283.68"/>
</g>
<!-- Node7&#45;&gt;Node3 -->
<g id="edge7" class="edge">
<title>Node7&#45;&gt;Node3</title>
<path fill="none" stroke="#63b8ff" d="M105.62,-247.21C97.76,-237.79 86.19,-222.02 81.5,-206 70.89,-169.74 75.76,-158.34 81.5,-121 82.79,-112.59 85.38,-103.6 87.98,-95.91"/>
<polygon fill="#63b8ff" stroke="#63b8ff" points="91.24,-97.19 91.38,-86.6 84.66,-94.79 91.24,-97.19"/>
</g>
<!-- Node8&#45;&gt;Node3 -->
<g id="edge14" class="edge">
<title>Node8&#45;&gt;Node3</title>
<path fill="none" stroke="#63b8ff" d="M198.09,-241.53C163.68,-232.27 125.71,-219.5 114.5,-206 88.68,-174.92 89.56,-124.53 92.51,-96.65"/>
<polygon fill="#63b8ff" stroke="#63b8ff" points="95.98,-97.13 93.78,-86.77 89.03,-96.25 95.98,-97.13"/>
</g>
<!-- Node9 -->
<g id="node9" class="node">
<title>Node9</title>
<g id="a_node9"><a xlink:href="search_8h.html" target="_top" xlink:title=" ">
<polygon fill="white" stroke="#666666" points="257.5,-206 123.5,-206 123.5,-187 257.5,-187 257.5,-206"/>
<text text-anchor="middle" x="190.5" y="-194" font-family="Helvetica,sans-Serif" font-size="10.00">JSystem/JGadget/search.h</text>
</a>
</g>
</g>
<!-- Node8&#45;&gt;Node9 -->
<g id="edge9" class="edge">
<title>Node8&#45;&gt;Node9</title>
<path fill="none" stroke="#63b8ff" d="M243.2,-241.54C233.03,-233.04 220.16,-222.29 209.68,-213.53"/>
<polygon fill="#63b8ff" stroke="#63b8ff" points="211.96,-210.87 202.04,-207.15 207.47,-216.24 211.96,-210.87"/>
</g>
<!-- Node11 -->
<g id="node11" class="node">
<title>Node11</title>
<g id="a_node11"><a xlink:href="vector_8h.html" target="_top" xlink:title=" ">
<polygon fill="white" stroke="#666666" points="407.5,-206 275.5,-206 275.5,-187 407.5,-187 407.5,-206"/>
<text text-anchor="middle" x="341.5" y="-194" font-family="Helvetica,sans-Serif" font-size="10.00">JSystem/JGadget/vector.h</text>
</a>
</g>
</g>
<!-- Node8&#45;&gt;Node11 -->
<g id="edge12" class="edge">
<title>Node8&#45;&gt;Node11</title>
<path fill="none" stroke="#63b8ff" d="M280.52,-241.54C292.65,-232.78 308.1,-221.63 320.41,-212.73"/>
<polygon fill="#63b8ff" stroke="#63b8ff" points="322.2,-215.75 328.26,-207.06 318.11,-210.08 322.2,-215.75"/>
</g>
<!-- Node9&#45;&gt;Node10 -->
<g id="edge10" class="edge">
<title>Node9&#45;&gt;Node10</title>
<path fill="none" stroke="#63b8ff" d="M196.99,-186.87C203.36,-178.4 213.26,-165.24 221.29,-154.57"/>
<polygon fill="#63b8ff" stroke="#63b8ff" points="223.86,-156.97 227.07,-146.88 218.26,-152.76 223.86,-156.97"/>
</g>
<!-- Node10&#45;&gt;Node3 -->
<g id="edge11" class="edge">
<title>Node10&#45;&gt;Node3</title>
<path fill="none" stroke="#63b8ff" d="M213.39,-126.12C190.53,-116.49 153.8,-101.04 127.42,-89.93"/>
<polygon fill="#63b8ff" stroke="#63b8ff" points="128.78,-86.71 118.2,-86.06 126.06,-93.16 128.78,-86.71"/>
</g>
<!-- Node11&#45;&gt;Node10 -->
<g id="edge13" class="edge">
<title>Node11&#45;&gt;Node10</title>
<path fill="none" stroke="#63b8ff" d="M325.25,-186.62C308.2,-177.29 281.14,-162.5 260.99,-151.49"/>
<polygon fill="#63b8ff" stroke="#63b8ff" points="262.69,-148.42 252.23,-146.69 259.33,-154.56 262.69,-148.42"/>
</g>
<!-- Node12&#45;&gt;Node3 -->
<g id="edge16" class="edge">
<title>Node12&#45;&gt;Node3</title>
<path fill="none" stroke="#63b8ff" d="M365.89,-123.86C302.54,-112.76 206.48,-95.94 147.53,-85.61"/>
<polygon fill="#63b8ff" stroke="#63b8ff" points="148.21,-82.18 137.75,-83.9 147,-89.07 148.21,-82.18"/>
</g>
</g>
</svg>
