<?xml version="1.0" encoding="UTF-8" standalone="no"?>
<!DOCTYPE svg PUBLIC "-//W3C//DTD SVG 1.1//EN"
 "http://www.w3.org/Graphics/SVG/1.1/DTD/svg11.dtd">
<!-- Generated by graphviz version 7.0.5 (20221223.1930)
 -->
<!-- Title: include/dolphin/gx/GXPixel.h Pages: 1 -->
<svg width="6017pt" height="225pt"
 viewBox="0.00 0.00 6016.73 225.00" xmlns="http://www.w3.org/2000/svg" xmlns:xlink="http://www.w3.org/1999/xlink">
<g id="graph0" class="graph" transform="scale(1 1) rotate(0) translate(4 221)">
<title>include/dolphin/gx/GXPixel.h</title>
<!-- Node1 -->
<g id="node1" class="node">
<title>Node1</title>
<g id="a_node1"><a xlink:title=" ">
<polygon fill="#999999" stroke="#666666" points="5728.73,-217 5634.73,-217 5634.73,-187 5728.73,-187 5728.73,-217"/>
<text text-anchor="start" x="5642.73" y="-205" font-family="Helvetica,sans-Serif" font-size="10.00">include/dolphin/gx</text>
<text text-anchor="middle" x="5681.73" y="-194" font-family="Helvetica,sans-Serif" font-size="10.00">/GXPixel.h</text>
</a>
</g>
</g>
<!-- Node2 -->
<g id="node2" class="node">
<title>Node2</title>
<g id="a_node2"><a xlink:href="GX_8h.html" target="_top" xlink:title=" ">
<polygon fill="white" stroke="#666666" points="2932.23,-151 2813.23,-151 2813.23,-132 2932.23,-132 2932.23,-151"/>
<text text-anchor="middle" x="2872.73" y="-139" font-family="Helvetica,sans-Serif" font-size="10.00">include/dolphin/gx/GX.h</text>
</a>
</g>
</g>
<!-- Node1&#45;&gt;Node2 -->
<g id="edge1" class="edge">
<title>Node1&#45;&gt;Node2</title>
<path fill="none" stroke="#63b8ff" d="M5623.13,-199.78C5258.2,-192.18 3300.8,-151.41 2932.5,-143.74"/>
<polygon fill="#63b8ff" stroke="#63b8ff" points="5622.86,-203.27 5632.93,-199.98 5623.01,-196.28 5622.86,-203.27"/>
</g>
<!-- Node7 -->
<g id="node7" class="node">
<title>Node7</title>
<g id="a_node7"><a xlink:href="J3DSys_8cpp.html" target="_top" xlink:title=" ">
<polygon fill="white" stroke="#666666" points="5688.73,-30 5546.73,-30 5546.73,0 5688.73,0 5688.73,-30"/>
<text text-anchor="start" x="5554.73" y="-18" font-family="Helvetica,sans-Serif" font-size="10.00">libs/JSystem/J3DGraphBase</text>
<text text-anchor="middle" x="5617.73" y="-7" font-family="Helvetica,sans-Serif" font-size="10.00">/J3DSys.cpp</text>
</a>
</g>
</g>
<!-- Node1&#45;&gt;Node7 -->
<g id="edge55" class="edge">
<title>Node1&#45;&gt;Node7</title>
<path fill="none" stroke="#63b8ff" d="M5682.49,-175.63C5682.38,-147.53 5679.29,-101.5 5662.73,-66 5656.31,-52.24 5644.81,-39.56 5635.04,-30.41"/>
<polygon fill="#63b8ff" stroke="#63b8ff" points="5679,-175.29 5682.4,-185.32 5686,-175.36 5679,-175.29"/>
</g>
<!-- Node460 -->
<g id="node50" class="node">
<title>Node460</title>
<g id="a_node50"><a xlink:href="GXPixel_8c.html" target="_top" xlink:title=" ">
<polygon fill="white" stroke="#666666" points="5833.73,-151 5709.73,-151 5709.73,-132 5833.73,-132 5833.73,-151"/>
<text text-anchor="middle" x="5771.73" y="-139" font-family="Helvetica,sans-Serif" font-size="10.00">libs/dolphin/gx/GXPixel.c</text>
</a>
</g>
</g>
<!-- Node1&#45;&gt;Node460 -->
<g id="edge56" class="edge">
<title>Node1&#45;&gt;Node460</title>
<path fill="none" stroke="#63b8ff" d="M5713.61,-180.28C5728.88,-170.35 5746.35,-159 5758.12,-151.35"/>
<polygon fill="#63b8ff" stroke="#63b8ff" points="5711.72,-177.33 5705.25,-185.71 5715.54,-183.2 5711.72,-177.33"/>
</g>
<!-- Node3 -->
<g id="node3" class="node">
<title>Node3</title>
<g id="a_node3"><a xlink:href="J3DGD_8h.html" target="_top" xlink:title=" ">
<polygon fill="white" stroke="#666666" points="5845.23,-96 5710.23,-96 5710.23,-66 5845.23,-66 5845.23,-96"/>
<text text-anchor="start" x="5718.23" y="-84" font-family="Helvetica,sans-Serif" font-size="10.00">include/JSystem/J3DGraph</text>
<text text-anchor="middle" x="5777.73" y="-73" font-family="Helvetica,sans-Serif" font-size="10.00">Base/J3DGD.h</text>
</a>
</g>
</g>
<!-- Node2&#45;&gt;Node3 -->
<g id="edge2" class="edge">
<title>Node2&#45;&gt;Node3</title>
<path fill="none" stroke="#63b8ff" d="M2943.86,-140.38C3323.14,-139.59 5110.84,-133.89 5662.73,-96 5677.98,-94.95 5694.31,-93.29 5709.74,-91.48"/>
<polygon fill="#63b8ff" stroke="#63b8ff" points="2944.04,-136.88 2934.04,-140.4 2944.05,-143.88 2944.04,-136.88"/>
</g>
<!-- Node8 -->
<g id="node8" class="node">
<title>Node8</title>
<g id="a_node8"><a xlink:href="J3DShape_8h.html" target="_top" xlink:title=" ">
<polygon fill="#fff0f0" stroke="red" points="151.23,-96 16.23,-96 16.23,-66 151.23,-66 151.23,-96"/>
<text text-anchor="start" x="24.23" y="-84" font-family="Helvetica,sans-Serif" font-size="10.00">include/JSystem/J3DGraph</text>
<text text-anchor="middle" x="83.73" y="-73" font-family="Helvetica,sans-Serif" font-size="10.00">Base/J3DShape.h</text>
</a>
</g>
</g>
<!-- Node2&#45;&gt;Node8 -->
<g id="edge7" class="edge">
<title>Node2&#45;&gt;Node8</title>
<path fill="none" stroke="#63b8ff" d="M2801.6,-140.8C2429.01,-142.16 699.16,-145.63 165.73,-96 161.13,-95.57 156.4,-95.03 151.64,-94.42"/>
<polygon fill="#63b8ff" stroke="#63b8ff" points="2801.5,-144.3 2811.48,-140.76 2801.47,-137.3 2801.5,-144.3"/>
</g>
<!-- Node346 -->
<g id="node9" class="node">
<title>Node346</title>
<g id="a_node9"><a xlink:href="J3DPacket_8cpp.html" target="_top" xlink:title=" ">
<polygon fill="white" stroke="#666666" points="272.73,-30 130.73,-30 130.73,0 272.73,0 272.73,-30"/>
<text text-anchor="start" x="138.73" y="-18" font-family="Helvetica,sans-Serif" font-size="10.00">libs/JSystem/J3DGraphBase</text>
<text text-anchor="middle" x="201.73" y="-7" font-family="Helvetica,sans-Serif" font-size="10.00">/J3DPacket.cpp</text>
</a>
</g>
</g>
<!-- Node2&#45;&gt;Node346 -->
<g id="edge25" class="edge">
<title>Node2&#45;&gt;Node346</title>
<path fill="none" stroke="#63b8ff" d="M2801.7,-140.68C2382.34,-141.57 246.68,-143.74 199.73,-96 182.88,-78.86 189.72,-48.35 195.92,-30.37"/>
<polygon fill="#63b8ff" stroke="#63b8ff" points="2801.52,-144.18 2811.51,-140.66 2801.51,-137.18 2801.52,-144.18"/>
</g>
<!-- Node142 -->
<g id="node10" class="node">
<title>Node142</title>
<g id="a_node10"><a xlink:href="d__drawlist_8cpp.html" target="_top" xlink:title=" ">
<polygon fill="white" stroke="#666666" points="112.73,-24.5 8.73,-24.5 8.73,-5.5 112.73,-5.5 112.73,-24.5"/>
<text text-anchor="middle" x="60.73" y="-12.5" font-family="Helvetica,sans-Serif" font-size="10.00">src/d/d_drawlist.cpp</text>
</a>
</g>
</g>
<!-- Node2&#45;&gt;Node142 -->
<g id="edge52" class="edge">
<title>Node2&#45;&gt;Node142</title>
<path fill="none" stroke="#63b8ff" d="M2801.53,-140.07C2361.66,-137.34 32.02,-121.69 6.73,-96 -15.49,-73.43 24.53,-40.58 47,-24.93"/>
<polygon fill="#63b8ff" stroke="#63b8ff" points="2801.25,-143.57 2811.27,-140.13 2801.29,-136.57 2801.25,-143.57"/>
</g>
<!-- Node388 -->
<g id="node11" class="node">
<title>Node388</title>
<g id="a_node11"><a xlink:href="J3DSys_8h.html" target="_top" xlink:title=" ">
<polygon fill="#fff0f0" stroke="red" points="343.23,-96 208.23,-96 208.23,-66 343.23,-66 343.23,-96"/>
<text text-anchor="start" x="216.23" y="-84" font-family="Helvetica,sans-Serif" font-size="10.00">include/JSystem/J3DGraph</text>
<text text-anchor="middle" x="275.73" y="-73" font-family="Helvetica,sans-Serif" font-size="10.00">Base/J3DSys.h</text>
</a>
</g>
</g>
<!-- Node2&#45;&gt;Node388 -->
<g id="edge10" class="edge">
<title>Node2&#45;&gt;Node388</title>
<path fill="none" stroke="#63b8ff" d="M2801.39,-140.8C2444.06,-142.09 846.63,-144.93 352.73,-96 349.76,-95.71 346.72,-95.36 343.67,-94.97"/>
<polygon fill="#63b8ff" stroke="#63b8ff" points="2801.33,-144.3 2811.32,-140.77 2801.3,-137.3 2801.33,-144.3"/>
</g>
<!-- Node396 -->
<g id="node12" class="node">
<title>Node396</title>
<g id="a_node12"><a xlink:href="jstudio-control_8h.html" target="_top" xlink:title=" ">
<polygon fill="#fff0f0" stroke="red" points="486.23,-96 361.23,-96 361.23,-66 486.23,-66 486.23,-96"/>
<text text-anchor="start" x="369.23" y="-84" font-family="Helvetica,sans-Serif" font-size="10.00">include/JSystem/JStudio</text>
<text text-anchor="middle" x="423.73" y="-73" font-family="Helvetica,sans-Serif" font-size="10.00">/JStudio/jstudio&#45;control.h</text>
</a>
</g>
</g>
<!-- Node2&#45;&gt;Node396 -->
<g id="edge15" class="edge">
<title>Node2&#45;&gt;Node396</title>
<path fill="none" stroke="#63b8ff" d="M2801.54,-140.83C2456.91,-142.18 959.54,-145.06 495.73,-96 492.69,-95.68 489.59,-95.29 486.46,-94.86"/>
<polygon fill="#63b8ff" stroke="#63b8ff" points="2801.33,-144.33 2811.32,-140.79 2801.31,-137.33 2801.33,-144.33"/>
</g>
<!-- Node422 -->
<g id="node13" class="node">
<title>Node422</title>
<g id="a_node13"><a xlink:href="JUTGraphFifo_8h.html" target="_top" xlink:title=" ">
<polygon fill="#fff0f0" stroke="red" points="626.73,-96 504.73,-96 504.73,-66 626.73,-66 626.73,-96"/>
<text text-anchor="start" x="512.73" y="-84" font-family="Helvetica,sans-Serif" font-size="10.00">include/JSystem/JUtility</text>
<text text-anchor="middle" x="565.73" y="-73" font-family="Helvetica,sans-Serif" font-size="10.00">/JUTGraphFifo.h</text>
</a>
</g>
</g>
<!-- Node2&#45;&gt;Node422 -->
<g id="edge16" class="edge">
<title>Node2&#45;&gt;Node422</title>
<path fill="none" stroke="#63b8ff" d="M2801.46,-140.78C2469.21,-141.85 1070.19,-143.39 635.73,-96 632.9,-95.69 630.01,-95.32 627.09,-94.91"/>
<polygon fill="#63b8ff" stroke="#63b8ff" points="2801.33,-144.29 2811.32,-140.75 2801.3,-137.29 2801.33,-144.29"/>
</g>
<!-- Node425 -->
<g id="node14" class="node">
<title>Node425</title>
<g id="a_node14"><a xlink:href="GFGeometry_8h.html" target="_top" xlink:title=" ">
<polygon fill="#fff0f0" stroke="red" points="736.73,-96 644.73,-96 644.73,-66 736.73,-66 736.73,-96"/>
<text text-anchor="start" x="652.73" y="-84" font-family="Helvetica,sans-Serif" font-size="10.00">include/dolphin/gf</text>
<text text-anchor="middle" x="690.73" y="-73" font-family="Helvetica,sans-Serif" font-size="10.00">/GFGeometry.h</text>
</a>
</g>
</g>
<!-- Node2&#45;&gt;Node425 -->
<g id="edge17" class="edge">
<title>Node2&#45;&gt;Node425</title>
<path fill="none" stroke="#63b8ff" d="M2801.59,-139.98C2455.11,-137.3 952.74,-124.13 745.73,-96 742.9,-95.62 740,-95.14 737.09,-94.59"/>
<polygon fill="#63b8ff" stroke="#63b8ff" points="2801.4,-143.47 2811.43,-140.05 2801.45,-136.48 2801.4,-143.47"/>
</g>
<!-- Node427 -->
<g id="node15" class="node">
<title>Node427</title>
<g id="a_node15"><a xlink:href="m__Do__machine__exception_8h.html" target="_top" xlink:title=" ">
<polygon fill="#fff0f0" stroke="red" points="900.73,-96 754.73,-96 754.73,-66 900.73,-66 900.73,-96"/>
<text text-anchor="start" x="762.73" y="-84" font-family="Helvetica,sans-Serif" font-size="10.00">include/m_Do/m_Do_machine</text>
<text text-anchor="middle" x="827.73" y="-73" font-family="Helvetica,sans-Serif" font-size="10.00">_exception.h</text>
</a>
</g>
</g>
<!-- Node2&#45;&gt;Node427 -->
<g id="edge18" class="edge">
<title>Node2&#45;&gt;Node427</title>
<path fill="none" stroke="#63b8ff" d="M2801.71,-140.26C2495.75,-139.04 1288.72,-131.98 910.73,-96 907.53,-95.7 904.27,-95.34 900.97,-94.94"/>
<polygon fill="#63b8ff" stroke="#63b8ff" points="2801.53,-143.76 2811.54,-140.3 2801.56,-136.76 2801.53,-143.76"/>
</g>
<!-- Node428 -->
<g id="node16" class="node">
<title>Node428</title>
<g id="a_node16"><a xlink:href="J2DGrafContext_8cpp.html" target="_top" xlink:title=" ">
<polygon fill="white" stroke="#666666" points="1038.23,-96 919.23,-96 919.23,-66 1038.23,-66 1038.23,-96"/>
<text text-anchor="start" x="927.23" y="-84" font-family="Helvetica,sans-Serif" font-size="10.00">libs/JSystem/J2DGraph</text>
<text text-anchor="middle" x="978.73" y="-73" font-family="Helvetica,sans-Serif" font-size="10.00">/J2DGrafContext.cpp</text>
</a>
</g>
</g>
<!-- Node2&#45;&gt;Node428 -->
<g id="edge19" class="edge">
<title>Node2&#45;&gt;Node428</title>
<path fill="none" stroke="#63b8ff" d="M2801.88,-140.44C2509.63,-139.92 1396.78,-135.36 1047.73,-96 1044.69,-95.66 1041.59,-95.25 1038.47,-94.79"/>
<polygon fill="#63b8ff" stroke="#63b8ff" points="2801.63,-143.94 2811.64,-140.45 2801.64,-136.94 2801.63,-143.94"/>
</g>
<!-- Node429 -->
<g id="node17" class="node">
<title>Node429</title>
<g id="a_node17"><a xlink:href="J2DMatBlock_8cpp.html" target="_top" xlink:title=" ">
<polygon fill="white" stroke="#666666" points="1175.23,-96 1056.23,-96 1056.23,-66 1175.23,-66 1175.23,-96"/>
<text text-anchor="start" x="1064.23" y="-84" font-family="Helvetica,sans-Serif" font-size="10.00">libs/JSystem/J2DGraph</text>
<text text-anchor="middle" x="1115.73" y="-73" font-family="Helvetica,sans-Serif" font-size="10.00">/J2DMatBlock.cpp</text>
</a>
</g>
</g>
<!-- Node2&#45;&gt;Node429 -->
<g id="edge20" class="edge">
<title>Node2&#45;&gt;Node429</title>
<path fill="none" stroke="#63b8ff" d="M2801.74,-140.27C2523.3,-139.13 1505.43,-132.48 1184.73,-96 1181.69,-95.65 1178.59,-95.24 1175.47,-94.78"/>
<polygon fill="#63b8ff" stroke="#63b8ff" points="2801.36,-143.77 2811.37,-140.31 2801.39,-136.77 2801.36,-143.77"/>
</g>
<!-- Node430 -->
<g id="node18" class="node">
<title>Node430</title>
<g id="a_node18"><a xlink:href="J2DOrthoGraph_8cpp.html" target="_top" xlink:title=" ">
<polygon fill="white" stroke="#666666" points="1312.23,-96 1193.23,-96 1193.23,-66 1312.23,-66 1312.23,-96"/>
<text text-anchor="start" x="1201.23" y="-84" font-family="Helvetica,sans-Serif" font-size="10.00">libs/JSystem/J2DGraph</text>
<text text-anchor="middle" x="1252.73" y="-73" font-family="Helvetica,sans-Serif" font-size="10.00">/J2DOrthoGraph.cpp</text>
</a>
</g>
</g>
<!-- Node2&#45;&gt;Node430 -->
<g id="edge21" class="edge">
<title>Node2&#45;&gt;Node430</title>
<path fill="none" stroke="#63b8ff" d="M2801.47,-140.08C2537.29,-138.26 1614.11,-129.6 1321.73,-96 1318.69,-95.65 1315.59,-95.24 1312.47,-94.77"/>
<polygon fill="#63b8ff" stroke="#63b8ff" points="2801.27,-143.58 2811.29,-140.14 2801.32,-136.58 2801.27,-143.58"/>
</g>
<!-- Node371 -->
<g id="node19" class="node">
<title>Node371</title>
<g id="a_node19"><a xlink:href="J2DPane_8cpp.html" target="_top" xlink:title=" ">
<polygon fill="white" stroke="#666666" points="1449.23,-96 1330.23,-96 1330.23,-66 1449.23,-66 1449.23,-96"/>
<text text-anchor="start" x="1338.23" y="-84" font-family="Helvetica,sans-Serif" font-size="10.00">libs/JSystem/J2DGraph</text>
<text text-anchor="middle" x="1389.73" y="-73" font-family="Helvetica,sans-Serif" font-size="10.00">/J2DPane.cpp</text>
</a>
</g>
</g>
<!-- Node2&#45;&gt;Node371 -->
<g id="edge22" class="edge">
<title>Node2&#45;&gt;Node371</title>
<path fill="none" stroke="#63b8ff" d="M2801.63,-139.85C2552.96,-137.33 1723.05,-126.75 1458.73,-96 1455.7,-95.65 1452.59,-95.23 1449.47,-94.76"/>
<polygon fill="#63b8ff" stroke="#63b8ff" points="2801.48,-143.35 2811.51,-139.95 2801.55,-136.35 2801.48,-143.35"/>
</g>
<!-- Node431 -->
<g id="node20" class="node">
<title>Node431</title>
<g id="a_node20"><a xlink:href="J2DPicture_8cpp.html" target="_top" xlink:title=" ">
<polygon fill="white" stroke="#666666" points="1586.23,-96 1467.23,-96 1467.23,-66 1586.23,-66 1586.23,-96"/>
<text text-anchor="start" x="1475.23" y="-84" font-family="Helvetica,sans-Serif" font-size="10.00">libs/JSystem/J2DGraph</text>
<text text-anchor="middle" x="1526.73" y="-73" font-family="Helvetica,sans-Serif" font-size="10.00">/J2DPicture.cpp</text>
</a>
</g>
</g>
<!-- Node2&#45;&gt;Node431 -->
<g id="edge23" class="edge">
<title>Node2&#45;&gt;Node431</title>
<path fill="none" stroke="#63b8ff" d="M2801.57,-139.57C2568.89,-136.29 1832.01,-123.89 1595.73,-96 1592.7,-95.64 1589.6,-95.22 1586.47,-94.75"/>
<polygon fill="#63b8ff" stroke="#63b8ff" points="2801.36,-143.07 2811.41,-139.71 2801.46,-136.07 2801.36,-143.07"/>
</g>
<!-- Node432 -->
<g id="node21" class="node">
<title>Node432</title>
<g id="a_node21"><a xlink:href="J2DTevs_8cpp.html" target="_top" xlink:title=" ">
<polygon fill="white" stroke="#666666" points="1723.23,-96 1604.23,-96 1604.23,-66 1723.23,-66 1723.23,-96"/>
<text text-anchor="start" x="1612.23" y="-84" font-family="Helvetica,sans-Serif" font-size="10.00">libs/JSystem/J2DGraph</text>
<text text-anchor="middle" x="1663.73" y="-73" font-family="Helvetica,sans-Serif" font-size="10.00">/J2DTevs.cpp</text>
</a>
</g>
</g>
<!-- Node2&#45;&gt;Node432 -->
<g id="edge24" class="edge">
<title>Node2&#45;&gt;Node432</title>
<path fill="none" stroke="#63b8ff" d="M2801.3,-139.22C2585.29,-135.11 1941.04,-121.03 1732.73,-96 1729.7,-95.64 1726.6,-95.21 1723.47,-94.73"/>
<polygon fill="#63b8ff" stroke="#63b8ff" points="2801.2,-142.72 2811.27,-139.41 2801.34,-135.72 2801.2,-142.72"/>
</g>
<!-- Node433 -->
<g id="node22" class="node">
<title>Node433</title>
<g id="a_node22"><a xlink:href="J3DShapeDraw_8cpp.html" target="_top" xlink:title=" ">
<polygon fill="white" stroke="#666666" points="1883.73,-96 1741.73,-96 1741.73,-66 1883.73,-66 1883.73,-96"/>
<text text-anchor="start" x="1749.73" y="-84" font-family="Helvetica,sans-Serif" font-size="10.00">libs/JSystem/J3DGraphBase</text>
<text text-anchor="middle" x="1812.73" y="-73" font-family="Helvetica,sans-Serif" font-size="10.00">/J3DShapeDraw.cpp</text>
</a>
</g>
</g>
<!-- Node2&#45;&gt;Node433 -->
<g id="edge26" class="edge">
<title>Node2&#45;&gt;Node433</title>
<path fill="none" stroke="#63b8ff" d="M2801.64,-140.38C2639.81,-139.43 2231.66,-133.2 1892.73,-96 1889.93,-95.69 1887.07,-95.35 1884.2,-94.97"/>
<polygon fill="#63b8ff" stroke="#63b8ff" points="2801.33,-143.88 2811.35,-140.43 2801.37,-136.88 2801.33,-143.88"/>
</g>
<!-- Node434 -->
<g id="node23" class="node">
<title>Node434</title>
<g id="a_node23"><a xlink:href="J3DTexture_8cpp.html" target="_top" xlink:title=" ">
<polygon fill="white" stroke="#666666" points="2043.73,-96 1901.73,-96 1901.73,-66 2043.73,-66 2043.73,-96"/>
<text text-anchor="start" x="1909.73" y="-84" font-family="Helvetica,sans-Serif" font-size="10.00">libs/JSystem/J3DGraphBase</text>
<text text-anchor="middle" x="1972.73" y="-73" font-family="Helvetica,sans-Serif" font-size="10.00">/J3DTexture.cpp</text>
</a>
</g>
</g>
<!-- Node2&#45;&gt;Node434 -->
<g id="edge27" class="edge">
<title>Node2&#45;&gt;Node434</title>
<path fill="none" stroke="#63b8ff" d="M2801.69,-139.49C2659.21,-136.83 2328.56,-127.51 2052.73,-96 2049.93,-95.68 2047.08,-95.32 2044.2,-94.94"/>
<polygon fill="#63b8ff" stroke="#63b8ff" points="2801.28,-142.98 2811.34,-139.66 2801.4,-135.98 2801.28,-142.98"/>
</g>
<!-- Node435 -->
<g id="node24" class="node">
<title>Node435</title>
<g id="a_node24"><a xlink:href="JFWDisplay_8cpp.html" target="_top" xlink:title=" ">
<polygon fill="white" stroke="#666666" points="2191.73,-96 2061.73,-96 2061.73,-66 2191.73,-66 2191.73,-96"/>
<text text-anchor="start" x="2069.73" y="-84" font-family="Helvetica,sans-Serif" font-size="10.00">libs/JSystem/JFramework</text>
<text text-anchor="middle" x="2126.73" y="-73" font-family="Helvetica,sans-Serif" font-size="10.00">/JFWDisplay.cpp</text>
</a>
</g>
</g>
<!-- Node2&#45;&gt;Node435 -->
<g id="edge28" class="edge">
<title>Node2&#45;&gt;Node435</title>
<path fill="none" stroke="#63b8ff" d="M2801.71,-138.62C2678.81,-134.73 2418.71,-123.73 2200.73,-96 2197.88,-95.64 2194.97,-95.23 2192.03,-94.8"/>
<polygon fill="#63b8ff" stroke="#63b8ff" points="2801.55,-142.11 2811.66,-138.92 2801.77,-135.12 2801.55,-142.11"/>
</g>
<!-- Node436 -->
<g id="node25" class="node">
<title>Node436</title>
<g id="a_node25"><a xlink:href="JPABaseShape_8cpp.html" target="_top" xlink:title=" ">
<polygon fill="white" stroke="#666666" points="2323.73,-96 2209.73,-96 2209.73,-66 2323.73,-66 2323.73,-96"/>
<text text-anchor="start" x="2217.73" y="-84" font-family="Helvetica,sans-Serif" font-size="10.00">libs/JSystem/JParticle</text>
<text text-anchor="middle" x="2266.73" y="-73" font-family="Helvetica,sans-Serif" font-size="10.00">/JPABaseShape.cpp</text>
</a>
</g>
</g>
<!-- Node2&#45;&gt;Node436 -->
<g id="edge29" class="edge">
<title>Node2&#45;&gt;Node436</title>
<path fill="none" stroke="#63b8ff" d="M2801.68,-137.52C2698.11,-132.52 2499.81,-120.5 2332.73,-96 2329.83,-95.58 2326.87,-95.1 2323.89,-94.59"/>
<polygon fill="#63b8ff" stroke="#63b8ff" points="2801.25,-141 2811.41,-137.98 2801.58,-134.01 2801.25,-141"/>
</g>
<!-- Node437 -->
<g id="node26" class="node">
<title>Node437</title>
<g id="a_node26"><a xlink:href="JPAChildShape_8cpp.html" target="_top" xlink:title=" ">
<polygon fill="white" stroke="#666666" points="2455.73,-96 2341.73,-96 2341.73,-66 2455.73,-66 2455.73,-96"/>
<text text-anchor="start" x="2349.73" y="-84" font-family="Helvetica,sans-Serif" font-size="10.00">libs/JSystem/JParticle</text>
<text text-anchor="middle" x="2398.73" y="-73" font-family="Helvetica,sans-Serif" font-size="10.00">/JPAChildShape.cpp</text>
</a>
</g>
</g>
<!-- Node2&#45;&gt;Node437 -->
<g id="edge30" class="edge">
<title>Node2&#45;&gt;Node437</title>
<path fill="none" stroke="#63b8ff" d="M2801.72,-134.84C2720.28,-127.86 2582.9,-114.6 2465.73,-96 2462.56,-95.5 2459.32,-94.94 2456.05,-94.36"/>
<polygon fill="#63b8ff" stroke="#63b8ff" points="2801.07,-138.3 2811.33,-135.66 2801.66,-131.32 2801.07,-138.3"/>
</g>
<!-- Node438 -->
<g id="node27" class="node">
<title>Node438</title>
<g id="a_node27"><a xlink:href="JPAEmitterManager_8cpp.html" target="_top" xlink:title=" ">
<polygon fill="white" stroke="#666666" points="2599.23,-96 2474.23,-96 2474.23,-66 2599.23,-66 2599.23,-96"/>
<text text-anchor="start" x="2482.23" y="-84" font-family="Helvetica,sans-Serif" font-size="10.00">libs/JSystem/JParticle</text>
<text text-anchor="middle" x="2536.73" y="-73" font-family="Helvetica,sans-Serif" font-size="10.00">/JPAEmitterManager.cpp</text>
</a>
</g>
</g>
<!-- Node2&#45;&gt;Node438 -->
<g id="edge31" class="edge">
<title>Node2&#45;&gt;Node438</title>
<path fill="none" stroke="#63b8ff" d="M2806,-129.73C2752.58,-120.99 2675.76,-108.16 2608.73,-96 2605.72,-95.45 2602.65,-94.89 2599.54,-94.31"/>
<polygon fill="#63b8ff" stroke="#63b8ff" points="2805.11,-133.13 2815.54,-131.28 2806.24,-126.22 2805.11,-133.13"/>
</g>
<!-- Node439 -->
<g id="node28" class="node">
<title>Node439</title>
<g id="a_node28"><a xlink:href="JPAExTexShape_8cpp.html" target="_top" xlink:title=" ">
<polygon fill="white" stroke="#666666" points="2731.73,-96 2617.73,-96 2617.73,-66 2731.73,-66 2731.73,-96"/>
<text text-anchor="start" x="2625.73" y="-84" font-family="Helvetica,sans-Serif" font-size="10.00">libs/JSystem/JParticle</text>
<text text-anchor="middle" x="2674.73" y="-73" font-family="Helvetica,sans-Serif" font-size="10.00">/JPAExTexShape.cpp</text>
</a>
</g>
</g>
<!-- Node2&#45;&gt;Node439 -->
<g id="edge32" class="edge">
<title>Node2&#45;&gt;Node439</title>
<path fill="none" stroke="#63b8ff" d="M2831.67,-128.37C2800.25,-119.08 2756.81,-106.25 2723.6,-96.44"/>
<polygon fill="#63b8ff" stroke="#63b8ff" points="2830.63,-131.71 2841.21,-131.19 2832.61,-125 2830.63,-131.71"/>
</g>
<!-- Node440 -->
<g id="node29" class="node">
<title>Node440</title>
<g id="a_node29"><a xlink:href="JPAExtraShape_8cpp.html" target="_top" xlink:title=" ">
<polygon fill="white" stroke="#666666" points="2863.73,-96 2749.73,-96 2749.73,-66 2863.73,-66 2863.73,-96"/>
<text text-anchor="start" x="2757.73" y="-84" font-family="Helvetica,sans-Serif" font-size="10.00">libs/JSystem/JParticle</text>
<text text-anchor="middle" x="2806.73" y="-73" font-family="Helvetica,sans-Serif" font-size="10.00">/JPAExtraShape.cpp</text>
</a>
</g>
</g>
<!-- Node2&#45;&gt;Node440 -->
<g id="edge33" class="edge">
<title>Node2&#45;&gt;Node440</title>
<path fill="none" stroke="#63b8ff" d="M2854.11,-124C2844.33,-115.32 2832.44,-104.79 2823.02,-96.44"/>
<polygon fill="#63b8ff" stroke="#63b8ff" points="2851.77,-126.6 2861.57,-130.61 2856.41,-121.36 2851.77,-126.6"/>
</g>
<!-- Node441 -->
<g id="node30" class="node">
<title>Node441</title>
<g id="a_node30"><a xlink:href="JPAResource_8cpp.html" target="_top" xlink:title=" ">
<polygon fill="white" stroke="#666666" points="2995.73,-96 2881.73,-96 2881.73,-66 2995.73,-66 2995.73,-96"/>
<text text-anchor="start" x="2889.73" y="-84" font-family="Helvetica,sans-Serif" font-size="10.00">libs/JSystem/JParticle</text>
<text text-anchor="middle" x="2938.73" y="-73" font-family="Helvetica,sans-Serif" font-size="10.00">/JPAResource.cpp</text>
</a>
</g>
</g>
<!-- Node2&#45;&gt;Node441 -->
<g id="edge34" class="edge">
<title>Node2&#45;&gt;Node441</title>
<path fill="none" stroke="#63b8ff" d="M2891.35,-124C2901.13,-115.32 2913.02,-104.79 2922.44,-96.44"/>
<polygon fill="#63b8ff" stroke="#63b8ff" points="2889.05,-121.36 2883.89,-130.61 2893.69,-126.6 2889.05,-121.36"/>
</g>
<!-- Node442 -->
<g id="node31" class="node">
<title>Node442</title>
<g id="a_node31"><a xlink:href="JUTCacheFont_8cpp.html" target="_top" xlink:title=" ">
<polygon fill="white" stroke="#666666" points="3119.73,-96 3013.73,-96 3013.73,-66 3119.73,-66 3119.73,-96"/>
<text text-anchor="start" x="3021.73" y="-84" font-family="Helvetica,sans-Serif" font-size="10.00">libs/JSystem/JUtility</text>
<text text-anchor="middle" x="3066.73" y="-73" font-family="Helvetica,sans-Serif" font-size="10.00">/JUTCacheFont.cpp</text>
</a>
</g>
</g>
<!-- Node2&#45;&gt;Node442 -->
<g id="edge35" class="edge">
<title>Node2&#45;&gt;Node442</title>
<path fill="none" stroke="#63b8ff" d="M2912.96,-128.37C2943.75,-119.08 2986.31,-106.25 3018.85,-96.44"/>
<polygon fill="#63b8ff" stroke="#63b8ff" points="2912.21,-124.94 2903.64,-131.18 2914.23,-131.64 2912.21,-124.94"/>
</g>
<!-- Node443 -->
<g id="node32" class="node">
<title>Node443</title>
<g id="a_node32"><a xlink:href="JUTPalette_8cpp.html" target="_top" xlink:title=" ">
<polygon fill="white" stroke="#666666" points="3243.73,-96 3137.73,-96 3137.73,-66 3243.73,-66 3243.73,-96"/>
<text text-anchor="start" x="3145.73" y="-84" font-family="Helvetica,sans-Serif" font-size="10.00">libs/JSystem/JUtility</text>
<text text-anchor="middle" x="3190.73" y="-73" font-family="Helvetica,sans-Serif" font-size="10.00">/JUTPalette.cpp</text>
</a>
</g>
</g>
<!-- Node2&#45;&gt;Node443 -->
<g id="edge36" class="edge">
<title>Node2&#45;&gt;Node443</title>
<path fill="none" stroke="#63b8ff" d="M2940.42,-129.68C2992.12,-121.19 3065.09,-108.71 3128.73,-96 3131.54,-95.44 3134.43,-94.85 3137.33,-94.24"/>
<polygon fill="#63b8ff" stroke="#63b8ff" points="2939.86,-126.23 2930.56,-131.29 2940.99,-133.13 2939.86,-126.23"/>
</g>
<!-- Node444 -->
<g id="node33" class="node">
<title>Node444</title>
<g id="a_node33"><a xlink:href="JUTResFont_8cpp.html" target="_top" xlink:title=" ">
<polygon fill="white" stroke="#666666" points="3367.73,-96 3261.73,-96 3261.73,-66 3367.73,-66 3367.73,-96"/>
<text text-anchor="start" x="3269.73" y="-84" font-family="Helvetica,sans-Serif" font-size="10.00">libs/JSystem/JUtility</text>
<text text-anchor="middle" x="3314.73" y="-73" font-family="Helvetica,sans-Serif" font-size="10.00">/JUTResFont.cpp</text>
</a>
</g>
</g>
<!-- Node2&#45;&gt;Node444 -->
<g id="edge37" class="edge">
<title>Node2&#45;&gt;Node444</title>
<path fill="none" stroke="#63b8ff" d="M2943.98,-134.42C3020.58,-127.36 3145.77,-114.29 3252.73,-96 3255.56,-95.52 3258.45,-94.99 3261.37,-94.43"/>
<polygon fill="#63b8ff" stroke="#63b8ff" points="2943.72,-130.93 2934.08,-135.32 2944.36,-137.9 2943.72,-130.93"/>
</g>
<!-- Node445 -->
<g id="node34" class="node">
<title>Node445</title>
<g id="a_node34"><a xlink:href="JUTTexture_8cpp.html" target="_top" xlink:title=" ">
<polygon fill="white" stroke="#666666" points="3491.73,-96 3385.73,-96 3385.73,-66 3491.73,-66 3491.73,-96"/>
<text text-anchor="start" x="3393.73" y="-84" font-family="Helvetica,sans-Serif" font-size="10.00">libs/JSystem/JUtility</text>
<text text-anchor="middle" x="3438.73" y="-73" font-family="Helvetica,sans-Serif" font-size="10.00">/JUTTexture.cpp</text>
</a>
</g>
</g>
<!-- Node2&#45;&gt;Node445 -->
<g id="edge38" class="edge">
<title>Node2&#45;&gt;Node445</title>
<path fill="none" stroke="#63b8ff" d="M2943.62,-137.24C3041.5,-132.06 3223.33,-119.98 3376.73,-96 3379.57,-95.56 3382.46,-95.06 3385.38,-94.52"/>
<polygon fill="#63b8ff" stroke="#63b8ff" points="2943.71,-133.73 2933.91,-137.75 2944.08,-140.72 2943.71,-133.73"/>
</g>
<!-- Node446 -->
<g id="node35" class="node">
<title>Node446</title>
<g id="a_node35"><a xlink:href="JUTVideo_8cpp.html" target="_top" xlink:title=" ">
<polygon fill="white" stroke="#666666" points="3615.73,-96 3509.73,-96 3509.73,-66 3615.73,-66 3615.73,-96"/>
<text text-anchor="start" x="3517.73" y="-84" font-family="Helvetica,sans-Serif" font-size="10.00">libs/JSystem/JUtility</text>
<text text-anchor="middle" x="3562.73" y="-73" font-family="Helvetica,sans-Serif" font-size="10.00">/JUTVideo.cpp</text>
</a>
</g>
</g>
<!-- Node2&#45;&gt;Node446 -->
<g id="edge39" class="edge">
<title>Node2&#45;&gt;Node446</title>
<path fill="none" stroke="#63b8ff" d="M2943.61,-138.97C3060.33,-135.66 3300.07,-125.59 3500.73,-96 3503.57,-95.58 3506.47,-95.1 3509.39,-94.58"/>
<polygon fill="#63b8ff" stroke="#63b8ff" points="2943.78,-135.46 2933.88,-139.23 2943.97,-142.46 2943.78,-135.46"/>
</g>
<!-- Node447 -->
<g id="node36" class="node">
<title>Node447</title>
<g id="a_node36"><a xlink:href="JUTXfb_8cpp.html" target="_top" xlink:title=" ">
<polygon fill="white" stroke="#666666" points="3739.73,-96 3633.73,-96 3633.73,-66 3739.73,-66 3739.73,-96"/>
<text text-anchor="start" x="3641.73" y="-84" font-family="Helvetica,sans-Serif" font-size="10.00">libs/JSystem/JUtility</text>
<text text-anchor="middle" x="3686.73" y="-73" font-family="Helvetica,sans-Serif" font-size="10.00">/JUTXfb.cpp</text>
</a>
</g>
</g>
<!-- Node2&#45;&gt;Node447 -->
<g id="edge40" class="edge">
<title>Node2&#45;&gt;Node447</title>
<path fill="none" stroke="#63b8ff" d="M2943.81,-140.14C3077.71,-138.62 3376.22,-131.17 3624.73,-96 3627.57,-95.6 3630.47,-95.13 3633.4,-94.62"/>
<polygon fill="#63b8ff" stroke="#63b8ff" points="2944,-136.64 2934.04,-140.25 2944.07,-143.64 2944,-136.64"/>
</g>
<!-- Node448 -->
<g id="node37" class="node">
<title>Node448</title>
<g id="a_node37"><a xlink:href="GFLight_8cpp.html" target="_top" xlink:title=" ">
<polygon fill="white" stroke="#666666" points="3891.23,-90.5 3758.23,-90.5 3758.23,-71.5 3891.23,-71.5 3891.23,-90.5"/>
<text text-anchor="middle" x="3824.73" y="-78.5" font-family="Helvetica,sans-Serif" font-size="10.00">libs/dolphin/gf/GFLight.cpp</text>
</a>
</g>
</g>
<!-- Node2&#45;&gt;Node448 -->
<g id="edge41" class="edge">
<title>Node2&#45;&gt;Node448</title>
<path fill="none" stroke="#63b8ff" d="M2943.96,-140.05C3093.55,-138.4 3451.15,-130.81 3748.73,-96 3759.39,-94.75 3770.81,-92.92 3781.47,-90.98"/>
<polygon fill="#63b8ff" stroke="#63b8ff" points="2944.18,-136.54 2934.21,-140.15 2944.25,-143.54 2944.18,-136.54"/>
</g>
<!-- Node449 -->
<g id="node38" class="node">
<title>Node449</title>
<g id="a_node38"><a xlink:href="GFPixel_8cpp.html" target="_top" xlink:title=" ">
<polygon fill="white" stroke="#666666" points="4041.73,-90.5 3909.73,-90.5 3909.73,-71.5 4041.73,-71.5 4041.73,-90.5"/>
<text text-anchor="middle" x="3975.73" y="-78.5" font-family="Helvetica,sans-Serif" font-size="10.00">libs/dolphin/gf/GFPixel.cpp</text>
</a>
</g>
</g>
<!-- Node2&#45;&gt;Node449 -->
<g id="edge42" class="edge">
<title>Node2&#45;&gt;Node449</title>
<path fill="none" stroke="#63b8ff" d="M2944,-140.87C3111.5,-140.99 3543.07,-136.91 3900.73,-96 3911.39,-94.78 3922.81,-92.93 3933.45,-90.97"/>
<polygon fill="#63b8ff" stroke="#63b8ff" points="2944.16,-137.37 2934.15,-140.86 2944.15,-144.37 2944.16,-137.37"/>
</g>
<!-- Node450 -->
<g id="node39" class="node">
<title>Node450</title>
<g id="a_node39"><a xlink:href="GFTev_8cpp.html" target="_top" xlink:title=" ">
<polygon fill="white" stroke="#666666" points="4187.73,-90.5 4059.73,-90.5 4059.73,-71.5 4187.73,-71.5 4187.73,-90.5"/>
<text text-anchor="middle" x="4123.73" y="-78.5" font-family="Helvetica,sans-Serif" font-size="10.00">libs/dolphin/gf/GFTev.cpp</text>
</a>
</g>
</g>
<!-- Node2&#45;&gt;Node450 -->
<g id="edge43" class="edge">
<title>Node2&#45;&gt;Node450</title>
<path fill="none" stroke="#63b8ff" d="M2943.89,-139.23C3164.41,-135.07 3834.48,-120.68 4050.73,-96 4061.24,-94.8 4072.51,-92.93 4082.97,-90.95"/>
<polygon fill="#63b8ff" stroke="#63b8ff" points="2943.94,-135.73 2934,-139.41 2944.07,-142.73 2943.94,-135.73"/>
</g>
<!-- Node451 -->
<g id="node40" class="node">
<title>Node451</title>
<g id="a_node40"><a xlink:href="GXBump_8c.html" target="_top" xlink:title=" ">
<polygon fill="white" stroke="#666666" points="4333.73,-90.5 4205.73,-90.5 4205.73,-71.5 4333.73,-71.5 4333.73,-90.5"/>
<text text-anchor="middle" x="4269.73" y="-78.5" font-family="Helvetica,sans-Serif" font-size="10.00">libs/dolphin/gx/GXBump.c</text>
</a>
</g>
</g>
<!-- Node2&#45;&gt;Node451 -->
<g id="edge44" class="edge">
<title>Node2&#45;&gt;Node451</title>
<path fill="none" stroke="#63b8ff" d="M2943.67,-139.58C3181.68,-136.24 3950.63,-123.56 4196.73,-96 4207.25,-94.82 4218.52,-92.96 4228.98,-90.98"/>
<polygon fill="#63b8ff" stroke="#63b8ff" points="2943.87,-136.07 2933.92,-139.71 2943.97,-143.07 2943.87,-136.07"/>
</g>
<!-- Node452 -->
<g id="node41" class="node">
<title>Node452</title>
<g id="a_node41"><a xlink:href="GXDisplayList_8c.html" target="_top" xlink:title=" ">
<polygon fill="white" stroke="#666666" points="4479.23,-96 4352.23,-96 4352.23,-66 4479.23,-66 4479.23,-96"/>
<text text-anchor="start" x="4360.23" y="-84" font-family="Helvetica,sans-Serif" font-size="10.00">libs/dolphin/gx/GXDisplay</text>
<text text-anchor="middle" x="4415.73" y="-73" font-family="Helvetica,sans-Serif" font-size="10.00">List.c</text>
</a>
</g>
</g>
<!-- Node2&#45;&gt;Node452 -->
<g id="edge45" class="edge">
<title>Node2&#45;&gt;Node452</title>
<path fill="none" stroke="#63b8ff" d="M2943.63,-139.85C3198.37,-137.28 4066.7,-126.45 4342.73,-96 4345.81,-95.66 4348.95,-95.26 4352.12,-94.82"/>
<polygon fill="#63b8ff" stroke="#63b8ff" points="2943.81,-136.35 2933.84,-139.95 2943.88,-143.35 2943.81,-136.35"/>
</g>
<!-- Node453 -->
<g id="node42" class="node">
<title>Node453</title>
<g id="a_node42"><a xlink:href="GXDraw_8c.html" target="_top" xlink:title=" ">
<polygon fill="white" stroke="#666666" points="4622.23,-90.5 4497.23,-90.5 4497.23,-71.5 4622.23,-71.5 4622.23,-90.5"/>
<text text-anchor="middle" x="4559.73" y="-78.5" font-family="Helvetica,sans-Serif" font-size="10.00">libs/dolphin/gx/GXDraw.c</text>
</a>
</g>
</g>
<!-- Node2&#45;&gt;Node453 -->
<g id="edge46" class="edge">
<title>Node2&#45;&gt;Node453</title>
<path fill="none" stroke="#63b8ff" d="M2943.8,-140.12C3214.73,-138.44 4182.81,-130.13 4488.73,-96 4499.09,-94.84 4510.2,-92.97 4520.48,-90.96"/>
<polygon fill="#63b8ff" stroke="#63b8ff" points="2944.06,-136.62 2934.08,-140.18 2944.1,-143.62 2944.06,-136.62"/>
</g>
<!-- Node454 -->
<g id="node43" class="node">
<title>Node454</title>
<g id="a_node43"><a xlink:href="GXFifo_8c.html" target="_top" xlink:title=" ">
<polygon fill="white" stroke="#666666" points="4759.23,-90.5 4640.23,-90.5 4640.23,-71.5 4759.23,-71.5 4759.23,-90.5"/>
<text text-anchor="middle" x="4699.73" y="-78.5" font-family="Helvetica,sans-Serif" font-size="10.00">libs/dolphin/gx/GXFifo.c</text>
</a>
</g>
</g>
<!-- Node2&#45;&gt;Node454 -->
<g id="edge47" class="edge">
<title>Node2&#45;&gt;Node454</title>
<path fill="none" stroke="#63b8ff" d="M2943.81,-140.39C3229.73,-139.68 4296.47,-134.44 4631.73,-96 4641.67,-94.86 4652.31,-92.99 4662.16,-90.98"/>
<polygon fill="#63b8ff" stroke="#63b8ff" points="2943.88,-136.89 2933.89,-140.41 2943.9,-143.89 2943.88,-136.89"/>
</g>
<!-- Node455 -->
<g id="node44" class="node">
<title>Node455</title>
<g id="a_node44"><a xlink:href="GXFrameBuf_8c.html" target="_top" xlink:title=" ">
<polygon fill="white" stroke="#666666" points="4923.73,-90.5 4777.73,-90.5 4777.73,-71.5 4923.73,-71.5 4923.73,-90.5"/>
<text text-anchor="middle" x="4850.73" y="-78.5" font-family="Helvetica,sans-Serif" font-size="10.00">libs/dolphin/gx/GXFrameBuf.c</text>
</a>
</g>
</g>
<!-- Node2&#45;&gt;Node455 -->
<g id="edge48" class="edge">
<title>Node2&#45;&gt;Node455</title>
<path fill="none" stroke="#63b8ff" d="M2943.84,-140.22C3243.49,-138.82 4404.51,-131.18 4768.73,-96 4780.66,-94.85 4793.48,-92.97 4805.35,-90.96"/>
<polygon fill="#63b8ff" stroke="#63b8ff" points="2944.21,-136.72 2934.23,-140.26 2944.25,-143.72 2944.21,-136.72"/>
</g>
<!-- Node456 -->
<g id="node45" class="node">
<title>Node456</title>
<g id="a_node45"><a xlink:href="GXGeometry_8c.html" target="_top" xlink:title=" ">
<polygon fill="white" stroke="#666666" points="5087.23,-90.5 4942.23,-90.5 4942.23,-71.5 5087.23,-71.5 5087.23,-90.5"/>
<text text-anchor="middle" x="5014.73" y="-78.5" font-family="Helvetica,sans-Serif" font-size="10.00">libs/dolphin/gx/GXGeometry.c</text>
</a>
</g>
</g>
<!-- Node2&#45;&gt;Node456 -->
<g id="edge49" class="edge">
<title>Node2&#45;&gt;Node456</title>
<path fill="none" stroke="#63b8ff" d="M2943.67,-140.37C3258.86,-139.59 4534.37,-134.1 4932.73,-96 4944.66,-94.86 4957.48,-92.99 4969.35,-90.98"/>
<polygon fill="#63b8ff" stroke="#63b8ff" points="2943.93,-136.87 2933.94,-140.4 2943.95,-143.87 2943.93,-136.87"/>
</g>
<!-- Node457 -->
<g id="node46" class="node">
<title>Node457</title>
<g id="a_node46"><a xlink:href="GXInit_8c.html" target="_top" xlink:title=" ">
<polygon fill="white" stroke="#666666" points="5221.73,-90.5 5105.73,-90.5 5105.73,-71.5 5221.73,-71.5 5221.73,-90.5"/>
<text text-anchor="middle" x="5163.73" y="-78.5" font-family="Helvetica,sans-Serif" font-size="10.00">libs/dolphin/gx/GXInit.c</text>
</a>
</g>
</g>
<!-- Node2&#45;&gt;Node457 -->
<g id="edge50" class="edge">
<title>Node2&#45;&gt;Node457</title>
<path fill="none" stroke="#63b8ff" d="M2943.87,-140.86C3274.72,-142.24 4665.12,-144.98 5096.73,-96 5106.65,-94.87 5117.27,-92.98 5127.07,-90.94"/>
<polygon fill="#63b8ff" stroke="#63b8ff" points="2944.07,-137.36 2934.06,-140.81 2944.04,-144.36 2944.07,-137.36"/>
</g>
<!-- Node458 -->
<g id="node47" class="node">
<title>Node458</title>
<g id="a_node47"><a xlink:href="GXLight_8c.html" target="_top" xlink:title=" ">
<polygon fill="white" stroke="#666666" points="5365.23,-90.5 5240.23,-90.5 5240.23,-71.5 5365.23,-71.5 5365.23,-90.5"/>
<text text-anchor="middle" x="5302.73" y="-78.5" font-family="Helvetica,sans-Serif" font-size="10.00">libs/dolphin/gx/GXLight.c</text>
</a>
</g>
</g>
<!-- Node2&#45;&gt;Node458 -->
<g id="edge51" class="edge">
<title>Node2&#45;&gt;Node458</title>
<path fill="none" stroke="#63b8ff" d="M2944.17,-140.82C3287.58,-142.1 4771,-144.66 5230.73,-96 5241.37,-94.87 5252.78,-92.98 5263.3,-90.94"/>
<polygon fill="#63b8ff" stroke="#63b8ff" points="2944.2,-137.32 2934.19,-140.78 2944.17,-144.32 2944.2,-137.32"/>
</g>
<!-- Node245 -->
<g id="node48" class="node">
<title>Node245</title>
<g id="a_node48"><a xlink:href="d__kankyo__data_8cpp.html" target="_top" xlink:title=" ">
<polygon fill="white" stroke="#666666" points="5499.73,-96 5383.73,-96 5383.73,-66 5499.73,-66 5499.73,-96"/>
<text text-anchor="start" x="5391.73" y="-84" font-family="Helvetica,sans-Serif" font-size="10.00">src/d/kankyo/d_kankyo</text>
<text text-anchor="middle" x="5441.73" y="-73" font-family="Helvetica,sans-Serif" font-size="10.00">_data.cpp</text>
</a>
</g>
</g>
<!-- Node2&#45;&gt;Node245 -->
<g id="edge53" class="edge">
<title>Node2&#45;&gt;Node245</title>
<path fill="none" stroke="#63b8ff" d="M2943.94,-140.03C3326.34,-137.42 5127.96,-123.73 5374.73,-96 5377.56,-95.68 5380.46,-95.3 5383.37,-94.87"/>
<polygon fill="#63b8ff" stroke="#63b8ff" points="2944.01,-136.53 2934.03,-140.1 2944.06,-143.53 2944.01,-136.53"/>
</g>
<!-- Node459 -->
<g id="node49" class="node">
<title>Node459</title>
<g id="a_node49"><a xlink:href="m__Do__Reset_8cpp.html" target="_top" xlink:title=" ">
<polygon fill="white" stroke="#666666" points="5653.73,-90.5 5517.73,-90.5 5517.73,-71.5 5653.73,-71.5 5653.73,-90.5"/>
<text text-anchor="middle" x="5585.73" y="-78.5" font-family="Helvetica,sans-Serif" font-size="10.00">src/m_Do/m_Do_Reset.cpp</text>
</a>
</g>
</g>
<!-- Node2&#45;&gt;Node459 -->
<g id="edge54" class="edge">
<title>Node2&#45;&gt;Node459</title>
<path fill="none" stroke="#63b8ff" d="M2943.92,-139.99C3338.39,-137.09 5247.55,-121.77 5508.73,-96 5520.09,-94.88 5532.28,-92.99 5543.54,-90.95"/>
<polygon fill="#63b8ff" stroke="#63b8ff" points="2944.19,-136.49 2934.21,-140.06 2944.24,-143.49 2944.19,-136.49"/>
</g>
<!-- Node4 -->
<g id="node4" class="node">
<title>Node4</title>
<g id="a_node4"><a xlink:href="J3DGD_8cpp.html" target="_top" xlink:title=" ">
<polygon fill="white" stroke="#666666" points="5848.73,-30 5706.73,-30 5706.73,0 5848.73,0 5848.73,-30"/>
<text text-anchor="start" x="5714.73" y="-18" font-family="Helvetica,sans-Serif" font-size="10.00">libs/JSystem/J3DGraphBase</text>
<text text-anchor="middle" x="5777.73" y="-7" font-family="Helvetica,sans-Serif" font-size="10.00">/J3DGD.cpp</text>
</a>
</g>
</g>
<!-- Node3&#45;&gt;Node4 -->
<g id="edge3" class="edge">
<title>Node3&#45;&gt;Node4</title>
<path fill="none" stroke="#63b8ff" d="M5777.73,-54.39C5777.73,-46.13 5777.73,-37.28 5777.73,-30.16"/>
<polygon fill="#63b8ff" stroke="#63b8ff" points="5774.23,-54.28 5777.73,-64.28 5781.23,-54.28 5774.23,-54.28"/>
</g>
<!-- Node5 -->
<g id="node5" class="node">
<title>Node5</title>
<g id="a_node5"><a xlink:href="J3DMaterial_8cpp.html" target="_top" xlink:title=" ">
<polygon fill="white" stroke="#666666" points="6008.73,-30 5866.73,-30 5866.73,0 6008.73,0 6008.73,-30"/>
<text text-anchor="start" x="5874.73" y="-18" font-family="Helvetica,sans-Serif" font-size="10.00">libs/JSystem/J3DGraphBase</text>
<text text-anchor="middle" x="5937.73" y="-7" font-family="Helvetica,sans-Serif" font-size="10.00">/J3DMaterial.cpp</text>
</a>
</g>
</g>
<!-- Node3&#45;&gt;Node5 -->
<g id="edge4" class="edge">
<title>Node3&#45;&gt;Node5</title>
<path fill="none" stroke="#63b8ff" d="M5824.21,-61.41C5848.89,-51.54 5878.76,-39.59 5901.67,-30.43"/>
<polygon fill="#63b8ff" stroke="#63b8ff" points="5823.03,-58.11 5815.04,-65.08 5825.63,-64.61 5823.03,-58.11"/>
</g>
<!-- Node6 -->
<g id="node6" class="node">
<title>Node6</title>
<g id="a_node6"><a xlink:href="J3DShapeMtx_8cpp.html" target="_top" xlink:title=" ">
<polygon fill="white" stroke="#666666" points="2969.73,-30 2827.73,-30 2827.73,0 2969.73,0 2969.73,-30"/>
<text text-anchor="start" x="2835.73" y="-18" font-family="Helvetica,sans-Serif" font-size="10.00">libs/JSystem/J3DGraphBase</text>
<text text-anchor="middle" x="2898.73" y="-7" font-family="Helvetica,sans-Serif" font-size="10.00">/J3DShapeMtx.cpp</text>
</a>
</g>
</g>
<!-- Node3&#45;&gt;Node6 -->
<g id="edge5" class="edge">
<title>Node3&#45;&gt;Node6</title>
<path fill="none" stroke="#63b8ff" d="M5698.4,-69.26C5686.46,-67.96 5674.29,-66.81 5662.73,-66 5116.48,-27.91 3347.99,-18 2970.17,-16.29"/>
<polygon fill="#63b8ff" stroke="#63b8ff" points="5697.9,-72.72 5708.23,-70.38 5698.69,-65.77 5697.9,-72.72"/>
</g>
<!-- Node3&#45;&gt;Node7 -->
<g id="edge6" class="edge">
<title>Node3&#45;&gt;Node7</title>
<path fill="none" stroke="#63b8ff" d="M5731.25,-61.41C5706.57,-51.54 5676.7,-39.59 5653.79,-30.43"/>
<polygon fill="#63b8ff" stroke="#63b8ff" points="5729.83,-64.61 5740.42,-65.08 5732.43,-58.11 5729.83,-64.61"/>
</g>
<!-- Node8&#45;&gt;Node346 -->
<g id="edge8" class="edge">
<title>Node8&#45;&gt;Node346</title>
<path fill="none" stroke="#63b8ff" d="M120.27,-60.18C138.08,-50.52 159.11,-39.12 175.34,-30.31"/>
<polygon fill="#63b8ff" stroke="#63b8ff" points="118.66,-57.07 111.54,-64.92 122,-63.22 118.66,-57.07"/>
</g>
<!-- Node8&#45;&gt;Node142 -->
<g id="edge9" class="edge">
<title>Node8&#45;&gt;Node142</title>
<path fill="none" stroke="#63b8ff" d="M74.84,-55.27C70.99,-44.55 66.73,-32.7 63.91,-24.84"/>
<polygon fill="#63b8ff" stroke="#63b8ff" points="71.44,-56.14 78.11,-64.37 78.03,-53.78 71.44,-56.14"/>
</g>
<!-- Node388&#45;&gt;Node6 -->
<g id="edge12" class="edge">
<title>Node388&#45;&gt;Node6</title>
<path fill="none" stroke="#63b8ff" d="M355.01,-65.93C875.62,-16.02 2470.33,-15.37 2827.34,-15.86"/>
<polygon fill="#63b8ff" stroke="#63b8ff" points="354.78,-62.43 345.17,-66.89 355.47,-69.4 354.78,-62.43"/>
</g>
<!-- Node388&#45;&gt;Node7 -->
<g id="edge13" class="edge">
<title>Node388&#45;&gt;Node7</title>
<path fill="none" stroke="#63b8ff" d="M354.87,-66.08C721.82,-39.82 4943.9,-19.16 5546.36,-16.33"/>
<polygon fill="#63b8ff" stroke="#63b8ff" points="354.85,-62.57 345.17,-66.88 355.42,-69.55 354.85,-62.57"/>
</g>
<!-- Node388&#45;&gt;Node346 -->
<g id="edge11" class="edge">
<title>Node388&#45;&gt;Node346</title>
<path fill="none" stroke="#63b8ff" d="M250.78,-58.42C240.1,-49.18 227.92,-38.65 218.36,-30.39"/>
<polygon fill="#63b8ff" stroke="#63b8ff" points="248.31,-60.91 258.16,-64.81 252.89,-55.62 248.31,-60.91"/>
</g>
<!-- Node388&#45;&gt;Node142 -->
<g id="edge14" class="edge">
<title>Node388&#45;&gt;Node142</title>
<path fill="none" stroke="#63b8ff" d="M216.32,-62.32C175.58,-50.19 123.24,-34.61 90.84,-24.96"/>
<polygon fill="#63b8ff" stroke="#63b8ff" points="215.18,-65.63 225.76,-65.13 217.18,-58.92 215.18,-65.63"/>
</g>
</g>
</svg>
