<?xml version="1.0" encoding="UTF-8" standalone="no"?>
<!DOCTYPE svg PUBLIC "-//W3C//DTD SVG 1.1//EN"
 "http://www.w3.org/Graphics/SVG/1.1/DTD/svg11.dtd">
<!-- Generated by graphviz version 7.0.5 (20221223.1930)
 -->
<!-- Title: libs/dolphin/gx/GXTransform.c Pages: 1 -->
<!--zoomable 478 -->
<svg id="main" version="1.1" xmlns="http://www.w3.org/2000/svg" xmlns:xlink="http://www.w3.org/1999/xlink" xml:space="preserve" onload="init(evt)">
<style type="text/css"><![CDATA[
.edge:hover path { stroke: red; }
.edge:hover polygon { stroke: red; fill: red; }
]]></style>
<script type="text/javascript"><![CDATA[
var edges = document.getElementsByTagName('g');
if (edges && edges.length) {
  for (var i=0;i<edges.length;i++) {
    if (edges[i].id.substr(0,4)=='edge') {
      edges[i].setAttribute('class','edge');
    }
  }
}
]]></script>
        <defs>
                <circle id="rim" cx="0" cy="0" r="7"/>
                <circle id="rim2" cx="0" cy="0" r="3.5"/>
                <g id="zoomPlus">
                        <use xlink:href="#rim" fill="#404040">
                                <set attributeName="fill" to="#808080" begin="zoomplus.mouseover" end="zoomplus.mouseout"/>
                        </use>
                        <path d="M-4,0h8M0,-4v8" fill="none" stroke="white" stroke-width="1.5" pointer-events="none"/>
                </g>
                <g id="zoomMin">
                        <use xlink:href="#rim" fill="#404040">
                                <set attributeName="fill" to="#808080" begin="zoomminus.mouseover" end="zoomminus.mouseout"/>
                        </use>
                        <path d="M-4,0h8" fill="none" stroke="white" stroke-width="1.5" pointer-events="none"/>
                </g>
                <g id="dirArrow">
                        <path fill="none" stroke="white" stroke-width="1.5" d="M0,-3.0v7 M-2.5,-0.5L0,-3.0L2.5,-0.5"/>
                </g>
               <g id="resetDef">
                       <use xlink:href="#rim2" fill="#404040">
                               <set attributeName="fill" to="#808080" begin="reset.mouseover" end="reset.mouseout"/>
                       </use>
               </g>
        </defs>

<script type="text/javascript">
var viewWidth = 1631;
var viewHeight = 478;
var sectionId = 'dynsection-0';
</script>
<script xlink:href="svgpan.js"/>
<svg id="graph" class="graph">
<g id="viewport">
<title>libs/dolphin/gx/GXTransform.c</title>
<!-- Node1 -->
<g id="node1" class="node">
<title>Node1</title>
<g id="a_node1"><a xlink:title=" ">
<polygon fill="#999999" stroke="#666666" points="1061,-470 914,-470 914,-451 1061,-451 1061,-470"/>
<text text-anchor="middle" x="987.5" y="-458" font-family="Helvetica,sans-Serif" font-size="10.00">libs/dolphin/gx/GXTransform.c</text>
</a>
</g>
</g>
<!-- Node2 -->
<g id="node2" class="node">
<title>Node2</title>
<g id="a_node2"><a xlink:href="GXTransform_8h.html" target="_top" xlink:title=" ">
<polygon fill="white" stroke="#666666" points="129,-349 0,-349 0,-330 129,-330 129,-349"/>
<text text-anchor="middle" x="64.5" y="-337" font-family="Helvetica,sans-Serif" font-size="10.00">dolphin/gx/GXTransform.h</text>
</a>
</g>
</g>
<!-- Node1&#45;&gt;Node2 -->
<g id="edge1" class="edge">
<title>Node1&#45;&gt;Node2</title>
<path fill="none" stroke="#63b8ff" d="M917.75,-450.51C748.33,-428.66 316.22,-372.95 140.52,-350.3"/>
<polygon fill="#63b8ff" stroke="#63b8ff" points="141.19,-346.86 130.83,-349.05 140.3,-353.8 141.19,-346.86"/>
</g>
<!-- Node10 -->
<g id="node10" class="node">
<title>Node10</title>
<g id="a_node10"><a xlink:href="GX_8h.html" target="_top" xlink:title=" ">
<polygon fill="white" stroke="#666666" points="739,-409.5 654,-409.5 654,-390.5 739,-390.5 739,-409.5"/>
<text text-anchor="middle" x="696.5" y="-397.5" font-family="Helvetica,sans-Serif" font-size="10.00">dolphin/gx/GX.h</text>
</a>
</g>
</g>
<!-- Node1&#45;&gt;Node10 -->
<g id="edge12" class="edge">
<title>Node1&#45;&gt;Node10</title>
<path fill="none" stroke="#63b8ff" d="M932.67,-450.56C884.06,-442.33 811.26,-429.27 748.5,-415 745.53,-414.32 742.46,-413.59 739.39,-412.83"/>
<polygon fill="#63b8ff" stroke="#63b8ff" points="740.32,-409.46 729.77,-410.36 738.58,-416.24 740.32,-409.46"/>
</g>
<!-- Node28 -->
<g id="node28" class="node">
<title>Node28</title>
<g id="a_node28"><a xlink:href="dol2asm_8h.html" target="_top" xlink:title=" ">
<polygon fill="white" stroke="#666666" points="818,-409.5 757,-409.5 757,-390.5 818,-390.5 818,-409.5"/>
<text text-anchor="middle" x="787.5" y="-397.5" font-family="Helvetica,sans-Serif" font-size="10.00">dol2asm.h</text>
</a>
</g>
</g>
<!-- Node1&#45;&gt;Node28 -->
<g id="edge52" class="edge">
<title>Node1&#45;&gt;Node28</title>
<path fill="none" stroke="#63b8ff" d="M952.66,-450.51C920.12,-441.96 870.28,-428.42 827.5,-415 826.12,-414.57 824.71,-414.12 823.29,-413.66"/>
<polygon fill="#63b8ff" stroke="#63b8ff" points="824.41,-410.34 813.82,-410.47 822.18,-416.97 824.41,-410.34"/>
</g>
<!-- Node29 -->
<g id="node29" class="node">
<title>Node29</title>
<g id="a_node29"><a xlink:title=" ">
<polygon fill="#e0e0e0" stroke="#999999" points="979,-415 836,-415 836,-385 979,-385 979,-415"/>
<text text-anchor="start" x="844" y="-403" font-family="Helvetica,sans-Serif" font-size="10.00">asm/dolphin/gx/GXTransform</text>
<text text-anchor="middle" x="907.5" y="-392" font-family="Helvetica,sans-Serif" font-size="10.00">/GXProject.s</text>
</a>
</g>
</g>
<!-- Node1&#45;&gt;Node29 -->
<g id="edge53" class="edge">
<title>Node1&#45;&gt;Node29</title>
<path fill="none" stroke="#63b8ff" d="M975.35,-450.62C964.98,-443.03 949.65,-431.82 936.19,-421.98"/>
<polygon fill="#63b8ff" stroke="#63b8ff" points="938.61,-419.41 928.47,-416.33 934.47,-425.06 938.61,-419.41"/>
</g>
<!-- Node30 -->
<g id="node30" class="node">
<title>Node30</title>
<g id="a_node30"><a xlink:title=" ">
<polygon fill="#e0e0e0" stroke="#999999" points="1140,-415 997,-415 997,-385 1140,-385 1140,-415"/>
<text text-anchor="start" x="1005" y="-403" font-family="Helvetica,sans-Serif" font-size="10.00">asm/dolphin/gx/GXTransform</text>
<text text-anchor="middle" x="1068.5" y="-392" font-family="Helvetica,sans-Serif" font-size="10.00">/GXSetProjectionv.s</text>
</a>
</g>
</g>
<!-- Node1&#45;&gt;Node30 -->
<g id="edge54" class="edge">
<title>Node1&#45;&gt;Node30</title>
<path fill="none" stroke="#63b8ff" d="M999.8,-450.62C1010.3,-443.03 1025.82,-431.82 1039.45,-421.98"/>
<polygon fill="#63b8ff" stroke="#63b8ff" points="1041.22,-425.02 1047.28,-416.33 1037.12,-419.34 1041.22,-425.02"/>
</g>
<!-- Node31 -->
<g id="node31" class="node">
<title>Node31</title>
<g id="a_node31"><a xlink:title=" ">
<polygon fill="#e0e0e0" stroke="#999999" points="1301,-415 1158,-415 1158,-385 1301,-385 1301,-415"/>
<text text-anchor="start" x="1166" y="-403" font-family="Helvetica,sans-Serif" font-size="10.00">asm/dolphin/gx/GXTransform</text>
<text text-anchor="middle" x="1229.5" y="-392" font-family="Helvetica,sans-Serif" font-size="10.00">/GXGetProjectionv.s</text>
</a>
</g>
</g>
<!-- Node1&#45;&gt;Node31 -->
<g id="edge55" class="edge">
<title>Node1&#45;&gt;Node31</title>
<path fill="none" stroke="#63b8ff" d="M1024.52,-450.55C1060.16,-441.94 1114.98,-428.68 1158.97,-418.05"/>
<polygon fill="#63b8ff" stroke="#63b8ff" points="1159.53,-421.51 1168.43,-415.76 1157.89,-414.71 1159.53,-421.51"/>
</g>
<!-- Node32 -->
<g id="node32" class="node">
<title>Node32</title>
<g id="a_node32"><a xlink:title=" ">
<polygon fill="#e0e0e0" stroke="#999999" points="1462,-415 1319,-415 1319,-385 1462,-385 1462,-415"/>
<text text-anchor="start" x="1327" y="-403" font-family="Helvetica,sans-Serif" font-size="10.00">asm/dolphin/gx/GXTransform</text>
<text text-anchor="middle" x="1390.5" y="-392" font-family="Helvetica,sans-Serif" font-size="10.00">/__GXSetViewport.s</text>
</a>
</g>
</g>
<!-- Node1&#45;&gt;Node32 -->
<g id="edge56" class="edge">
<title>Node1&#45;&gt;Node32</title>
<path fill="none" stroke="#63b8ff" d="M1058.18,-450.51C1121.13,-442.34 1216.04,-429.6 1307.44,-415.45"/>
<polygon fill="#63b8ff" stroke="#63b8ff" points="1307.72,-418.95 1317.07,-413.95 1306.65,-412.03 1307.72,-418.95"/>
</g>
<!-- Node33 -->
<g id="node33" class="node">
<title>Node33</title>
<g id="a_node33"><a xlink:title=" ">
<polygon fill="#e0e0e0" stroke="#999999" points="1623,-415 1480,-415 1480,-385 1623,-385 1623,-415"/>
<text text-anchor="start" x="1488" y="-403" font-family="Helvetica,sans-Serif" font-size="10.00">asm/dolphin/gx/GXTransform</text>
<text text-anchor="middle" x="1551.5" y="-392" font-family="Helvetica,sans-Serif" font-size="10.00">/GXGetScissor.s</text>
</a>
</g>
</g>
<!-- Node1&#45;&gt;Node33 -->
<g id="edge57" class="edge">
<title>Node1&#45;&gt;Node33</title>
<path fill="none" stroke="#63b8ff" d="M1061.1,-454.61C1153.82,-448.03 1318.31,-434.97 1468.35,-415.35"/>
<polygon fill="#63b8ff" stroke="#63b8ff" points="1468.63,-418.85 1478.08,-414.07 1467.71,-411.91 1468.63,-418.85"/>
</g>
<!-- Node3 -->
<g id="node3" class="node">
<title>Node3</title>
<g id="a_node3"><a xlink:href="GXEnum_8h.html" target="_top" xlink:title=" ">
<polygon fill="white" stroke="#666666" points="646.5,-239 536.5,-239 536.5,-220 646.5,-220 646.5,-239"/>
<text text-anchor="middle" x="591.5" y="-227" font-family="Helvetica,sans-Serif" font-size="10.00">dolphin/gx/GXEnum.h</text>
</a>
</g>
</g>
<!-- Node2&#45;&gt;Node3 -->
<g id="edge2" class="edge">
<title>Node2&#45;&gt;Node3</title>
<path fill="none" stroke="#63b8ff" d="M79.09,-329.56C105.3,-313.66 159.57,-281.52 180.5,-275 325.06,-229.95 371.36,-255.92 524.78,-239.24"/>
<polygon fill="#63b8ff" stroke="#63b8ff" points="524.96,-242.75 534.51,-238.14 524.17,-235.79 524.96,-242.75"/>
</g>
<!-- Node6 -->
<g id="node6" class="node">
<title>Node6</title>
<g id="a_node6"><a xlink:href="mtx_8h.html" target="_top" xlink:title=" ">
<polygon fill="white" stroke="#666666" points="518.5,-239 426.5,-239 426.5,-220 518.5,-220 518.5,-239"/>
<text text-anchor="middle" x="472.5" y="-227" font-family="Helvetica,sans-Serif" font-size="10.00">dolphin/mtx/mtx.h</text>
</a>
</g>
</g>
<!-- Node2&#45;&gt;Node6 -->
<g id="edge5" class="edge">
<title>Node2&#45;&gt;Node6</title>
<path fill="none" stroke="#63b8ff" d="M71.75,-329.74C84.05,-315.56 110.49,-287.87 139.5,-275 187.5,-253.7 332.76,-240.34 414.68,-234.3"/>
<polygon fill="#63b8ff" stroke="#63b8ff" points="414.82,-237.8 424.54,-233.59 414.31,-230.82 414.82,-237.8"/>
</g>
<!-- Node4 -->
<g id="node4" class="node">
<title>Node4</title>
<g id="a_node4"><a xlink:href="types_8h.html" target="_top" xlink:title=" ">
<polygon fill="white" stroke="#666666" points="690,-74 609,-74 609,-55 690,-55 690,-74"/>
<text text-anchor="middle" x="649.5" y="-62" font-family="Helvetica,sans-Serif" font-size="10.00">dolphin/types.h</text>
</a>
</g>
</g>
<!-- Node3&#45;&gt;Node4 -->
<g id="edge3" class="edge">
<title>Node3&#45;&gt;Node4</title>
<path fill="none" stroke="#63b8ff" d="M620.65,-219.62C637.57,-212.79 657.46,-201.51 667.5,-184 685.55,-152.52 670.66,-108.94 659.33,-84.35"/>
<polygon fill="#63b8ff" stroke="#63b8ff" points="662.57,-83.02 655.02,-75.58 656.29,-86.1 662.57,-83.02"/>
</g>
<!-- Node5 -->
<g id="node5" class="node">
<title>Node5</title>
<g id="a_node5"><a xlink:href="stddef_8h.html" target="_top" xlink:title=" ">
<polygon fill="white" stroke="#666666" points="675,-19 624,-19 624,0 675,0 675,-19"/>
<text text-anchor="middle" x="649.5" y="-7" font-family="Helvetica,sans-Serif" font-size="10.00">stddef.h</text>
</a>
</g>
</g>
<!-- Node4&#45;&gt;Node5 -->
<g id="edge4" class="edge">
<title>Node4&#45;&gt;Node5</title>
<path fill="none" stroke="#63b8ff" d="M649.5,-54.75C649.5,-48.27 649.5,-39.16 649.5,-30.9"/>
<polygon fill="#63b8ff" stroke="#63b8ff" points="653,-30.96 649.5,-20.96 646,-30.96 653,-30.96"/>
</g>
<!-- Node6&#45;&gt;Node4 -->
<g id="edge11" class="edge">
<title>Node6&#45;&gt;Node4</title>
<path fill="none" stroke="#63b8ff" d="M459.84,-219.58C444.19,-207.4 420.96,-184.81 432.5,-165 466.42,-106.78 544.77,-82.38 597.44,-72.32"/>
<polygon fill="#63b8ff" stroke="#63b8ff" points="597.87,-75.8 607.1,-70.6 596.64,-68.91 597.87,-75.8"/>
</g>
<!-- Node7 -->
<g id="node7" class="node">
<title>Node7</title>
<g id="a_node7"><a xlink:href="mtx44_8h.html" target="_top" xlink:title=" ">
<polygon fill="white" stroke="#666666" points="545,-184 442,-184 442,-165 545,-165 545,-184"/>
<text text-anchor="middle" x="493.5" y="-172" font-family="Helvetica,sans-Serif" font-size="10.00">dolphin/mtx/mtx44.h</text>
</a>
</g>
</g>
<!-- Node6&#45;&gt;Node7 -->
<g id="edge6" class="edge">
<title>Node6&#45;&gt;Node7</title>
<path fill="none" stroke="#63b8ff" d="M475.97,-219.75C478.63,-213.04 482.4,-203.52 485.76,-195.02"/>
<polygon fill="#63b8ff" stroke="#63b8ff" points="488.97,-196.44 489.4,-185.85 482.46,-193.86 488.97,-196.44"/>
</g>
<!-- Node8 -->
<g id="node8" class="node">
<title>Node8</title>
<g id="a_node8"><a xlink:href="quat_8h.html" target="_top" xlink:title=" ">
<polygon fill="white" stroke="#666666" points="658,-184 563,-184 563,-165 658,-165 658,-184"/>
<text text-anchor="middle" x="610.5" y="-172" font-family="Helvetica,sans-Serif" font-size="10.00">dolphin/mtx/quat.h</text>
</a>
</g>
</g>
<!-- Node6&#45;&gt;Node8 -->
<g id="edge8" class="edge">
<title>Node6&#45;&gt;Node8</title>
<path fill="none" stroke="#63b8ff" d="M495.91,-219.51C518.15,-210.97 551.83,-198.03 576.92,-188.4"/>
<polygon fill="#63b8ff" stroke="#63b8ff" points="577.94,-191.75 586.02,-184.9 575.43,-185.22 577.94,-191.75"/>
</g>
<!-- Node7&#45;&gt;Node4 -->
<g id="edge7" class="edge">
<title>Node7&#45;&gt;Node4</title>
<path fill="none" stroke="#63b8ff" d="M500.47,-164.75C511.34,-151.56 533.46,-126.37 556.5,-110 574.47,-97.23 596.67,-86.45 614.87,-78.7"/>
<polygon fill="#63b8ff" stroke="#63b8ff" points="616.03,-82.01 623.94,-74.96 613.36,-75.54 616.03,-82.01"/>
</g>
<!-- Node9 -->
<g id="node9" class="node">
<title>Node9</title>
<g id="a_node9"><a xlink:href="vec_8h.html" target="_top" xlink:title=" ">
<polygon fill="white" stroke="#666666" points="657.5,-129 565.5,-129 565.5,-110 657.5,-110 657.5,-129"/>
<text text-anchor="middle" x="611.5" y="-117" font-family="Helvetica,sans-Serif" font-size="10.00">dolphin/mtx/vec.h</text>
</a>
</g>
</g>
<!-- Node8&#45;&gt;Node9 -->
<g id="edge9" class="edge">
<title>Node8&#45;&gt;Node9</title>
<path fill="none" stroke="#63b8ff" d="M610.67,-164.75C610.79,-158.27 610.96,-149.16 611.12,-140.9"/>
<polygon fill="#63b8ff" stroke="#63b8ff" points="614.61,-141.02 611.3,-130.96 607.61,-140.89 614.61,-141.02"/>
</g>
<!-- Node9&#45;&gt;Node4 -->
<g id="edge10" class="edge">
<title>Node9&#45;&gt;Node4</title>
<path fill="none" stroke="#63b8ff" d="M617.77,-109.75C622.86,-102.66 630.2,-92.42 636.53,-83.59"/>
<polygon fill="#63b8ff" stroke="#63b8ff" points="639.22,-85.84 642.21,-75.67 633.54,-81.76 639.22,-85.84"/>
</g>
<!-- Node10&#45;&gt;Node2 -->
<g id="edge51" class="edge">
<title>Node10&#45;&gt;Node2</title>
<path fill="none" stroke="#63b8ff" d="M653.81,-395.39C560.95,-387.48 333.68,-367.83 143.5,-349 142.48,-348.9 141.45,-348.8 140.42,-348.69"/>
<polygon fill="#63b8ff" stroke="#63b8ff" points="140.97,-345.23 130.67,-347.7 140.26,-352.2 140.97,-345.23"/>
</g>
<!-- Node11 -->
<g id="node11" class="node">
<title>Node11</title>
<g id="a_node11"><a xlink:href="GXAttr_8h.html" target="_top" xlink:title=" ">
<polygon fill="white" stroke="#666666" points="287,-349 186,-349 186,-330 287,-330 287,-349"/>
<text text-anchor="middle" x="236.5" y="-337" font-family="Helvetica,sans-Serif" font-size="10.00">dolphin/gx/GXAttr.h</text>
</a>
</g>
</g>
<!-- Node10&#45;&gt;Node11 -->
<g id="edge13" class="edge">
<title>Node10&#45;&gt;Node11</title>
<path fill="none" stroke="#63b8ff" d="M653.74,-393.94C582.39,-385.44 434.26,-367.53 298.74,-349.42"/>
<polygon fill="#63b8ff" stroke="#63b8ff" points="299.22,-345.95 288.84,-348.09 298.29,-352.89 299.22,-345.95"/>
</g>
<!-- Node12 -->
<g id="node12" class="node">
<title>Node12</title>
<g id="a_node12"><a xlink:href="GXBump_8h.html" target="_top" xlink:title=" ">
<polygon fill="white" stroke="#666666" points="560.5,-349 450.5,-349 450.5,-330 560.5,-330 560.5,-349"/>
<text text-anchor="middle" x="505.5" y="-337" font-family="Helvetica,sans-Serif" font-size="10.00">dolphin/gx/GXBump.h</text>
</a>
</g>
</g>
<!-- Node10&#45;&gt;Node12 -->
<g id="edge15" class="edge">
<title>Node10&#45;&gt;Node12</title>
<path fill="none" stroke="#63b8ff" d="M667.49,-390.12C634.96,-380.15 581.99,-363.93 545.53,-352.76"/>
<polygon fill="#63b8ff" stroke="#63b8ff" points="546.82,-349.49 536.23,-349.91 544.77,-356.19 546.82,-349.49"/>
</g>
<!-- Node13 -->
<g id="node13" class="node">
<title>Node13</title>
<g id="a_node13"><a xlink:href="GXDisplayList_8h.html" target="_top" xlink:title=" ">
<polygon fill="white" stroke="#666666" points="1158,-129 1025,-129 1025,-110 1158,-110 1158,-129"/>
<text text-anchor="middle" x="1091.5" y="-117" font-family="Helvetica,sans-Serif" font-size="10.00">dolphin/gx/GXDisplayList.h</text>
</a>
</g>
</g>
<!-- Node10&#45;&gt;Node13 -->
<g id="edge17" class="edge">
<title>Node10&#45;&gt;Node13</title>
<path fill="none" stroke="#63b8ff" d="M727.72,-390.05C734.54,-388.25 741.74,-386.46 748.5,-385 854.34,-362.11 1225.5,-393.78 1225.5,-285.5 1225.5,-285.5 1225.5,-285.5 1225.5,-228.5 1225.5,-179.61 1170.76,-149.1 1131.26,-133.44"/>
<polygon fill="#63b8ff" stroke="#63b8ff" points="1132.58,-130.2 1121.99,-129.95 1130.12,-136.75 1132.58,-130.2"/>
</g>
<!-- Node14 -->
<g id="node14" class="node">
<title>Node14</title>
<g id="a_node14"><a xlink:href="GXFifo_8h.html" target="_top" xlink:title=" ">
<polygon fill="white" stroke="#666666" points="1197,-294 1096,-294 1096,-275 1197,-275 1197,-294"/>
<text text-anchor="middle" x="1146.5" y="-282" font-family="Helvetica,sans-Serif" font-size="10.00">dolphin/gx/GXFifo.h</text>
</a>
</g>
</g>
<!-- Node10&#45;&gt;Node14 -->
<g id="edge19" class="edge">
<title>Node10&#45;&gt;Node14</title>
<path fill="none" stroke="#63b8ff" d="M728.61,-390.06C735.17,-388.31 742.04,-386.55 748.5,-385 824.03,-366.9 844.06,-367.47 919.5,-349 985.27,-332.89 1060.86,-311.08 1106.1,-297.66"/>
<polygon fill="#63b8ff" stroke="#63b8ff" points="1106.88,-301.08 1115.47,-294.87 1104.88,-294.37 1106.88,-301.08"/>
</g>
<!-- Node19 -->
<g id="node19" class="node">
<title>Node19</title>
<g id="a_node19"><a xlink:href="GXFrameBuf_8h.html" target="_top" xlink:title=" ">
<polygon fill="white" stroke="#666666" points="827.5,-294 699.5,-294 699.5,-275 827.5,-275 827.5,-294"/>
<text text-anchor="middle" x="763.5" y="-282" font-family="Helvetica,sans-Serif" font-size="10.00">dolphin/gx/GXFrameBuf.h</text>
</a>
</g>
</g>
<!-- Node10&#45;&gt;Node19 -->
<g id="edge27" class="edge">
<title>Node10&#45;&gt;Node19</title>
<path fill="none" stroke="#63b8ff" d="M729.5,-390.05C770.96,-378.47 837.58,-358.64 844.5,-349 859.81,-327.66 830.84,-309.89 803.38,-298.63"/>
<polygon fill="#63b8ff" stroke="#63b8ff" points="804.64,-295.36 794.05,-295.04 802.13,-301.9 804.64,-295.36"/>
</g>
<!-- Node20 -->
<g id="node20" class="node">
<title>Node20</title>
<g id="a_node20"><a xlink:href="GXGeometry_8h.html" target="_top" xlink:title=" ">
<polygon fill="white" stroke="#666666" points="432,-349 305,-349 305,-330 432,-330 432,-349"/>
<text text-anchor="middle" x="368.5" y="-337" font-family="Helvetica,sans-Serif" font-size="10.00">dolphin/gx/GXGeometry.h</text>
</a>
</g>
</g>
<!-- Node10&#45;&gt;Node20 -->
<g id="edge30" class="edge">
<title>Node10&#45;&gt;Node20</title>
<path fill="none" stroke="#63b8ff" d="M653.62,-391.35C596.49,-381.16 495.07,-363.07 429.86,-351.44"/>
<polygon fill="#63b8ff" stroke="#63b8ff" points="430.87,-348.07 420.41,-349.76 429.64,-354.96 430.87,-348.07"/>
</g>
<!-- Node21 -->
<g id="node21" class="node">
<title>Node21</title>
<g id="a_node21"><a xlink:href="GXLight_8h.html" target="_top" xlink:title=" ">
<polygon fill="white" stroke="#666666" points="953,-294 846,-294 846,-275 953,-275 953,-294"/>
<text text-anchor="middle" x="899.5" y="-282" font-family="Helvetica,sans-Serif" font-size="10.00">dolphin/gx/GXLight.h</text>
</a>
</g>
</g>
<!-- Node10&#45;&gt;Node21 -->
<g id="edge32" class="edge">
<title>Node10&#45;&gt;Node21</title>
<path fill="none" stroke="#63b8ff" d="M727.97,-390.03C774.07,-376.8 855.13,-353.15 860.5,-349 875.22,-337.63 885.7,-319 892.07,-304.86"/>
<polygon fill="#63b8ff" stroke="#63b8ff" points="895.27,-306.27 895.87,-295.69 888.81,-303.58 895.27,-306.27"/>
</g>
<!-- Node22 -->
<g id="node22" class="node">
<title>Node22</title>
<g id="a_node22"><a xlink:href="GXMisc_8h.html" target="_top" xlink:title=" ">
<polygon fill="white" stroke="#666666" points="684.5,-349 578.5,-349 578.5,-330 684.5,-330 684.5,-349"/>
<text text-anchor="middle" x="631.5" y="-337" font-family="Helvetica,sans-Serif" font-size="10.00">dolphin/gx/GXMisc.h</text>
</a>
</g>
</g>
<!-- Node10&#45;&gt;Node22 -->
<g id="edge35" class="edge">
<title>Node10&#45;&gt;Node22</title>
<path fill="none" stroke="#63b8ff" d="M686.63,-390.12C676.89,-381.35 661.78,-367.75 649.84,-357"/>
<polygon fill="#63b8ff" stroke="#63b8ff" points="652.36,-354.57 642.59,-350.48 647.68,-359.77 652.36,-354.57"/>
</g>
<!-- Node23 -->
<g id="node23" class="node">
<title>Node23</title>
<g id="a_node23"><a xlink:href="GXPerf_8h.html" target="_top" xlink:title=" ">
<polygon fill="white" stroke="#666666" points="293,-294 190,-294 190,-275 293,-275 293,-294"/>
<text text-anchor="middle" x="241.5" y="-282" font-family="Helvetica,sans-Serif" font-size="10.00">dolphin/gx/GXPerf.h</text>
</a>
</g>
</g>
<!-- Node10&#45;&gt;Node23 -->
<g id="edge37" class="edge">
<title>Node10&#45;&gt;Node23</title>
<path fill="none" stroke="#63b8ff" d="M653.72,-396.44C532.17,-388.98 192.51,-366.62 176.5,-349 160.33,-331.2 186.47,-312.08 210.26,-299.53"/>
<polygon fill="#63b8ff" stroke="#63b8ff" points="211.78,-302.68 219.17,-295.09 208.65,-296.42 211.78,-302.68"/>
</g>
<!-- Node24 -->
<g id="node24" class="node">
<title>Node24</title>
<g id="a_node24"><a xlink:href="GXPixel_8h.html" target="_top" xlink:title=" ">
<polygon fill="white" stroke="#666666" points="1077.5,-294 971.5,-294 971.5,-275 1077.5,-275 1077.5,-294"/>
<text text-anchor="middle" x="1024.5" y="-282" font-family="Helvetica,sans-Serif" font-size="10.00">dolphin/gx/GXPixel.h</text>
</a>
</g>
</g>
<!-- Node10&#45;&gt;Node24 -->
<g id="edge40" class="edge">
<title>Node10&#45;&gt;Node24</title>
<path fill="none" stroke="#63b8ff" d="M729.79,-390.04C736.01,-388.36 742.45,-386.63 748.5,-385 808.05,-368.98 824.39,-369.65 882.5,-349 923.16,-334.55 968.38,-313.4 996.63,-299.54"/>
<polygon fill="#63b8ff" stroke="#63b8ff" points="998.17,-302.69 1005.58,-295.11 995.07,-296.41 998.17,-302.69"/>
</g>
<!-- Node25 -->
<g id="node25" class="node">
<title>Node25</title>
<g id="a_node25"><a xlink:href="GXTev_8h.html" target="_top" xlink:title=" ">
<polygon fill="white" stroke="#666666" points="681,-294 580,-294 580,-275 681,-275 681,-294"/>
<text text-anchor="middle" x="630.5" y="-282" font-family="Helvetica,sans-Serif" font-size="10.00">dolphin/gx/GXTev.h</text>
</a>
</g>
</g>
<!-- Node10&#45;&gt;Node25 -->
<g id="edge43" class="edge">
<title>Node10&#45;&gt;Node25</title>
<path fill="none" stroke="#63b8ff" d="M725.54,-390.02C762.78,-378.21 823.32,-357.92 829.5,-349 834.31,-342.06 834.78,-336.59 829.5,-330 820.78,-319.11 747.34,-304.76 692.19,-295.34"/>
<polygon fill="#63b8ff" stroke="#63b8ff" points="693.02,-291.93 682.58,-293.71 691.86,-298.83 693.02,-291.93"/>
</g>
<!-- Node26 -->
<g id="node26" class="node">
<title>Node26</title>
<g id="a_node26"><a xlink:href="GXTexture_8h.html" target="_top" xlink:title=" ">
<polygon fill="white" stroke="#666666" points="820,-349 703,-349 703,-330 820,-330 820,-349"/>
<text text-anchor="middle" x="761.5" y="-337" font-family="Helvetica,sans-Serif" font-size="10.00">dolphin/gx/GXTexture.h</text>
</a>
</g>
</g>
<!-- Node10&#45;&gt;Node26 -->
<g id="edge46" class="edge">
<title>Node10&#45;&gt;Node26</title>
<path fill="none" stroke="#63b8ff" d="M706.37,-390.12C716.11,-381.35 731.22,-367.75 743.16,-357"/>
<polygon fill="#63b8ff" stroke="#63b8ff" points="745.32,-359.77 750.41,-350.48 740.64,-354.57 745.32,-359.77"/>
</g>
<!-- Node11&#45;&gt;Node3 -->
<g id="edge14" class="edge">
<title>Node11&#45;&gt;Node3</title>
<path fill="none" stroke="#63b8ff" d="M258.49,-329.6C291.25,-316.54 354.97,-291.9 410.5,-275 453.14,-262.02 502.3,-250.12 538.62,-241.9"/>
<polygon fill="#63b8ff" stroke="#63b8ff" points="538.98,-245.41 547.98,-239.8 537.45,-238.58 538.98,-245.41"/>
</g>
<!-- Node12&#45;&gt;Node3 -->
<g id="edge16" class="edge">
<title>Node12&#45;&gt;Node3</title>
<path fill="none" stroke="#63b8ff" d="M486.71,-329.56C464.41,-317.73 432.08,-295.91 447.5,-275 457.77,-261.08 495.83,-249.67 530.24,-241.89"/>
<polygon fill="#63b8ff" stroke="#63b8ff" points="530.74,-245.36 539.77,-239.82 529.25,-238.52 530.74,-245.36"/>
</g>
<!-- Node13&#45;&gt;Node4 -->
<g id="edge18" class="edge">
<title>Node13&#45;&gt;Node4</title>
<path fill="none" stroke="#63b8ff" d="M1024.85,-110.51C936.47,-99.91 782.3,-81.42 701.81,-71.77"/>
<polygon fill="#63b8ff" stroke="#63b8ff" points="702.33,-68.31 691.99,-70.59 701.5,-75.26 702.33,-68.31"/>
</g>
<!-- Node14&#45;&gt;Node3 -->
<g id="edge23" class="edge">
<title>Node14&#45;&gt;Node3</title>
<path fill="none" stroke="#63b8ff" d="M1095.78,-276.13C1092.64,-275.73 1089.53,-275.35 1086.5,-275 1005.39,-265.62 773.69,-245.79 658.37,-236.08"/>
<polygon fill="#63b8ff" stroke="#63b8ff" points="658.67,-232.6 648.42,-235.25 658.09,-239.57 658.67,-232.6"/>
</g>
<!-- Node15 -->
<g id="node15" class="node">
<title>Node15</title>
<g id="a_node15"><a xlink:href="GXStruct_8h.html" target="_top" xlink:title=" ">
<polygon fill="white" stroke="#666666" points="819,-239 708,-239 708,-220 819,-220 819,-239"/>
<text text-anchor="middle" x="763.5" y="-227" font-family="Helvetica,sans-Serif" font-size="10.00">dolphin/gx/GXStruct.h</text>
</a>
</g>
</g>
<!-- Node14&#45;&gt;Node15 -->
<g id="edge20" class="edge">
<title>Node14&#45;&gt;Node15</title>
<path fill="none" stroke="#63b8ff" d="M1095.76,-276.3C1092.63,-275.86 1089.52,-275.42 1086.5,-275 998.05,-262.64 895.93,-248.61 830.6,-239.67"/>
<polygon fill="#63b8ff" stroke="#63b8ff" points="831.12,-236.21 820.74,-238.32 830.17,-243.14 831.12,-236.21"/>
</g>
<!-- Node17 -->
<g id="node17" class="node">
<title>Node17</title>
<g id="a_node17"><a xlink:href="OSThread_8h.html" target="_top" xlink:title=" ">
<polygon fill="white" stroke="#666666" points="1196.5,-239 1080.5,-239 1080.5,-220 1196.5,-220 1196.5,-239"/>
<text text-anchor="middle" x="1138.5" y="-227" font-family="Helvetica,sans-Serif" font-size="10.00">dolphin/os/OSThread.h</text>
</a>
</g>
</g>
<!-- Node14&#45;&gt;Node17 -->
<g id="edge24" class="edge">
<title>Node14&#45;&gt;Node17</title>
<path fill="none" stroke="#63b8ff" d="M1145.18,-274.75C1144.19,-268.19 1142.79,-258.95 1141.53,-250.6"/>
<polygon fill="#63b8ff" stroke="#63b8ff" points="1145.03,-250.3 1140.08,-240.94 1138.11,-251.35 1145.03,-250.3"/>
</g>
<!-- Node16 -->
<g id="node16" class="node">
<title>Node16</title>
<g id="a_node16"><a xlink:href="global_8h.html" target="_top" xlink:title=" ">
<polygon fill="white" stroke="#666666" points="767.5,-129 717.5,-129 717.5,-110 767.5,-110 767.5,-129"/>
<text text-anchor="middle" x="742.5" y="-117" font-family="Helvetica,sans-Serif" font-size="10.00">global.h</text>
</a>
</g>
</g>
<!-- Node15&#45;&gt;Node16 -->
<g id="edge21" class="edge">
<title>Node15&#45;&gt;Node16</title>
<path fill="none" stroke="#63b8ff" d="M761.78,-219.66C758.44,-202.5 751.01,-164.26 746.41,-140.6"/>
<polygon fill="#63b8ff" stroke="#63b8ff" points="749.88,-140.09 744.53,-130.95 743,-141.43 749.88,-140.09"/>
</g>
<!-- Node16&#45;&gt;Node4 -->
<g id="edge22" class="edge">
<title>Node16&#45;&gt;Node4</title>
<path fill="none" stroke="#63b8ff" d="M726.72,-109.51C712.48,-101.39 691.26,-89.3 674.67,-79.85"/>
<polygon fill="#63b8ff" stroke="#63b8ff" points="676.78,-77.02 666.36,-75.11 673.31,-83.1 676.78,-77.02"/>
</g>
<!-- Node18 -->
<g id="node18" class="node">
<title>Node18</title>
<g id="a_node18"><a xlink:href="OSContext_8h.html" target="_top" xlink:title=" ">
<polygon fill="white" stroke="#666666" points="1054,-184 935,-184 935,-165 1054,-165 1054,-184"/>
<text text-anchor="middle" x="994.5" y="-172" font-family="Helvetica,sans-Serif" font-size="10.00">dolphin/os/OSContext.h</text>
</a>
</g>
</g>
<!-- Node17&#45;&gt;Node18 -->
<g id="edge25" class="edge">
<title>Node17&#45;&gt;Node18</title>
<path fill="none" stroke="#63b8ff" d="M1114.07,-219.51C1090.76,-210.93 1055.41,-197.92 1029.19,-188.27"/>
<polygon fill="#63b8ff" stroke="#63b8ff" points="1030.58,-185.05 1019.99,-184.88 1028.16,-191.62 1030.58,-185.05"/>
</g>
<!-- Node18&#45;&gt;Node4 -->
<g id="edge26" class="edge">
<title>Node18&#45;&gt;Node4</title>
<path fill="none" stroke="#63b8ff" d="M965.97,-164.57C904.37,-145.29 758.81,-99.72 688.65,-77.75"/>
<polygon fill="#63b8ff" stroke="#63b8ff" points="690.09,-74.54 679.5,-74.89 688,-81.22 690.09,-74.54"/>
</g>
<!-- Node19&#45;&gt;Node3 -->
<g id="edge29" class="edge">
<title>Node19&#45;&gt;Node3</title>
<path fill="none" stroke="#63b8ff" d="M734.32,-274.51C705.94,-265.76 662.62,-252.42 631.13,-242.71"/>
<polygon fill="#63b8ff" stroke="#63b8ff" points="632.57,-239.49 621.98,-239.89 630.51,-246.18 632.57,-239.49"/>
</g>
<!-- Node19&#45;&gt;Node15 -->
<g id="edge28" class="edge">
<title>Node19&#45;&gt;Node15</title>
<path fill="none" stroke="#63b8ff" d="M763.5,-274.75C763.5,-268.27 763.5,-259.16 763.5,-250.9"/>
<polygon fill="#63b8ff" stroke="#63b8ff" points="767,-250.96 763.5,-240.96 760,-250.96 767,-250.96"/>
</g>
<!-- Node20&#45;&gt;Node3 -->
<g id="edge31" class="edge">
<title>Node20&#45;&gt;Node3</title>
<path fill="none" stroke="#63b8ff" d="M375.88,-329.76C387.86,-316.12 412.9,-289.78 439.5,-275 467.3,-259.55 501,-248.98 529.6,-242.03"/>
<polygon fill="#63b8ff" stroke="#63b8ff" points="530.27,-245.47 539.22,-239.8 528.68,-238.65 530.27,-245.47"/>
</g>
<!-- Node21&#45;&gt;Node3 -->
<g id="edge34" class="edge">
<title>Node21&#45;&gt;Node3</title>
<path fill="none" stroke="#63b8ff" d="M847.25,-274.51C794.07,-265.36 711.6,-251.17 654.76,-241.39"/>
<polygon fill="#63b8ff" stroke="#63b8ff" points="655.69,-237.99 645.24,-239.75 654.5,-244.89 655.69,-237.99"/>
</g>
<!-- Node21&#45;&gt;Node15 -->
<g id="edge33" class="edge">
<title>Node21&#45;&gt;Node15</title>
<path fill="none" stroke="#63b8ff" d="M876.43,-274.51C854.61,-266.01 821.62,-253.15 796.92,-243.53"/>
<polygon fill="#63b8ff" stroke="#63b8ff" points="798.23,-240.28 787.64,-239.91 795.69,-246.8 798.23,-240.28"/>
</g>
<!-- Node22&#45;&gt;Node3 -->
<g id="edge36" class="edge">
<title>Node22&#45;&gt;Node3</title>
<path fill="none" stroke="#63b8ff" d="M583.35,-329.54C533.74,-319.81 462.54,-304.31 454.5,-294 449.31,-287.34 449.54,-281.83 454.5,-275 464.34,-261.46 501.35,-249.91 534.43,-241.97"/>
<polygon fill="#63b8ff" stroke="#63b8ff" points="535.02,-245.43 543.97,-239.77 533.44,-238.61 535.02,-245.43"/>
</g>
<!-- Node23&#45;&gt;Node3 -->
<g id="edge39" class="edge">
<title>Node23&#45;&gt;Node3</title>
<path fill="none" stroke="#63b8ff" d="M293.14,-275.68C354.62,-266.37 457.42,-250.8 524.84,-240.59"/>
<polygon fill="#63b8ff" stroke="#63b8ff" points="525.31,-244.06 534.68,-239.1 524.27,-237.14 525.31,-244.06"/>
</g>
<!-- Node23&#45;&gt;Node4 -->
<g id="edge38" class="edge">
<title>Node23&#45;&gt;Node4</title>
<path fill="none" stroke="#63b8ff" d="M249.75,-274.68C277.01,-246.1 367.77,-155.29 461.5,-110 504.7,-89.13 558.32,-77.69 597.23,-71.65"/>
<polygon fill="#63b8ff" stroke="#63b8ff" points="597.67,-75.13 607.05,-70.21 596.65,-68.2 597.67,-75.13"/>
</g>
<!-- Node24&#45;&gt;Node3 -->
<g id="edge42" class="edge">
<title>Node24&#45;&gt;Node3</title>
<path fill="none" stroke="#63b8ff" d="M971.07,-276.12C968.17,-275.73 965.3,-275.36 962.5,-275 856.01,-261.31 732.15,-246.73 657.88,-238.12"/>
<polygon fill="#63b8ff" stroke="#63b8ff" points="658.69,-234.69 648.35,-237.02 657.88,-241.64 658.69,-234.69"/>
</g>
<!-- Node24&#45;&gt;Node15 -->
<g id="edge41" class="edge">
<title>Node24&#45;&gt;Node15</title>
<path fill="none" stroke="#63b8ff" d="M980.22,-274.51C935.66,-265.46 866.81,-251.48 818.7,-241.71"/>
<polygon fill="#63b8ff" stroke="#63b8ff" points="819.54,-238.31 809.04,-239.75 818.14,-245.17 819.54,-238.31"/>
</g>
<!-- Node25&#45;&gt;Node3 -->
<g id="edge44" class="edge">
<title>Node25&#45;&gt;Node3</title>
<path fill="none" stroke="#63b8ff" d="M624.06,-274.75C618.84,-267.66 611.31,-257.42 604.81,-248.59"/>
<polygon fill="#63b8ff" stroke="#63b8ff" points="607.72,-246.64 598.98,-240.66 602.08,-250.79 607.72,-246.64"/>
</g>
<!-- Node25&#45;&gt;Node15 -->
<g id="edge45" class="edge">
<title>Node25&#45;&gt;Node15</title>
<path fill="none" stroke="#63b8ff" d="M653.06,-274.51C674.4,-266.01 706.66,-253.15 730.81,-243.53"/>
<polygon fill="#63b8ff" stroke="#63b8ff" points="731.87,-246.87 739.87,-239.92 729.28,-240.37 731.87,-246.87"/>
</g>
<!-- Node27 -->
<g id="node27" class="node">
<title>Node27</title>
<g id="a_node27"><a xlink:href="GXInit_8h.html" target="_top" xlink:title=" ">
<polygon fill="white" stroke="#666666" points="561.5,-294 463.5,-294 463.5,-275 561.5,-275 561.5,-294"/>
<text text-anchor="middle" x="512.5" y="-282" font-family="Helvetica,sans-Serif" font-size="10.00">dolphin/gx/GXInit.h</text>
</a>
</g>
</g>
<!-- Node26&#45;&gt;Node27 -->
<g id="edge47" class="edge">
<title>Node26&#45;&gt;Node27</title>
<path fill="none" stroke="#63b8ff" d="M719.26,-329.51C676.92,-320.5 611.61,-306.6 565.75,-296.83"/>
<polygon fill="#63b8ff" stroke="#63b8ff" points="566.52,-293.42 556.01,-294.76 565.06,-300.27 566.52,-293.42"/>
</g>
<!-- Node27&#45;&gt;Node3 -->
<g id="edge48" class="edge">
<title>Node27&#45;&gt;Node3</title>
<path fill="none" stroke="#63b8ff" d="M525.9,-274.51C537.66,-266.62 555.01,-254.98 568.91,-245.65"/>
<polygon fill="#63b8ff" stroke="#63b8ff" points="570.69,-248.68 577.04,-240.2 566.79,-242.87 570.69,-248.68"/>
</g>
<!-- Node27&#45;&gt;Node6 -->
<g id="edge50" class="edge">
<title>Node27&#45;&gt;Node6</title>
<path fill="none" stroke="#63b8ff" d="M505.89,-274.75C500.54,-267.66 492.82,-257.42 486.15,-248.59"/>
<polygon fill="#63b8ff" stroke="#63b8ff" points="488.98,-246.52 480.16,-240.65 483.39,-250.74 488.98,-246.52"/>
</g>
<!-- Node27&#45;&gt;Node15 -->
<g id="edge49" class="edge">
<title>Node27&#45;&gt;Node15</title>
<path fill="none" stroke="#63b8ff" d="M555.08,-274.51C597.85,-265.48 663.87,-251.54 710.12,-241.77"/>
<polygon fill="#63b8ff" stroke="#63b8ff" points="710.59,-245.25 719.65,-239.76 709.14,-238.4 710.59,-245.25"/>
</g>
</g>
</svg>
        <g id="navigator" transform="translate(0 0)" fill="#404254">
                <rect fill="#f2f5e9" fill-opacity="0.5" stroke="#606060" stroke-width=".5" x="0" y="0" width="60" height="60"/>
                <use id="zoomplus" xlink:href="#zoomPlus" x="17" y="9" onmousedown="handleZoom(evt,'in')"/>
                <use id="zoomminus" xlink:href="#zoomMin" x="42" y="9" onmousedown="handleZoom(evt,'out')"/>
                <use id="reset" xlink:href="#resetDef" x="30" y="36" onmousedown="handleReset()"/>
                <g id="arrowUp" xlink:href="#dirArrow" transform="translate(30 24)" onmousedown="handlePan(0,-1)">
                  <use xlink:href="#rim" fill="#404040">
                        <set attributeName="fill" to="#808080" begin="arrowUp.mouseover" end="arrowUp.mouseout"/>
                  </use>
                  <path fill="none" stroke="white" stroke-width="1.5" d="M0,-3.0v7 M-2.5,-0.5L0,-3.0L2.5,-0.5"/>
                </g>
                <g id="arrowRight" xlink:href="#dirArrow" transform="rotate(90) translate(36 -43)" onmousedown="handlePan(1,0)">
                  <use xlink:href="#rim" fill="#404040">
                        <set attributeName="fill" to="#808080" begin="arrowRight.mouseover" end="arrowRight.mouseout"/>
                  </use>
                  <path fill="none" stroke="white" stroke-width="1.5" d="M0,-3.0v7 M-2.5,-0.5L0,-3.0L2.5,-0.5"/>
                </g>
                <g id="arrowDown" xlink:href="#dirArrow" transform="rotate(180) translate(-30 -48)" onmousedown="handlePan(0,1)">
                  <use xlink:href="#rim" fill="#404040">
                        <set attributeName="fill" to="#808080" begin="arrowDown.mouseover" end="arrowDown.mouseout"/>
                  </use>
                  <path fill="none" stroke="white" stroke-width="1.5" d="M0,-3.0v7 M-2.5,-0.5L0,-3.0L2.5,-0.5"/>
                </g>
                <g id="arrowLeft" xlink:href="#dirArrow" transform="rotate(270) translate(-36 17)" onmousedown="handlePan(-1,0)">
                  <use xlink:href="#rim" fill="#404040">
                        <set attributeName="fill" to="#808080" begin="arrowLeft.mouseover" end="arrowLeft.mouseout"/>
                  </use>
                  <path fill="none" stroke="white" stroke-width="1.5" d="M0,-3.0v7 M-2.5,-0.5L0,-3.0L2.5,-0.5"/>
                </g>
        </g>
        <svg viewBox="0 0 15 15" width="100%" height="30px" preserveAspectRatio="xMaxYMin meet">
         <g id="arrow_out" transform="scale(0.3 0.3)">
          <a xlink:href="GXTransform_8c__incl_org.svg" target="_base">
           <rect id="button" ry="5" rx="5" y="6" x="6" height="38" width="38"
                fill="#f2f5e9" fill-opacity="0.5" stroke="#606060" stroke-width="1.0"/>
           <path id="arrow"
             d="M 11.500037,31.436501 C 11.940474,20.09759 22.043105,11.32322 32.158766,21.979434 L 37.068811,17.246167 C 37.068811,17.246167 37.088388,32 37.088388,32 L 22.160133,31.978069 C 22.160133,31.978069 26.997745,27.140456 26.997745,27.140456 C 18.528582,18.264221 13.291696,25.230495 11.500037,31.436501 z"
             style="fill:#404040;"/>
          </a>
         </g>
        </svg>
</svg>
