<?xml version="1.0" encoding="UTF-8" standalone="no"?>
<!DOCTYPE svg PUBLIC "-//W3C//DTD SVG 1.1//EN"
 "http://www.w3.org/Graphics/SVG/1.1/DTD/svg11.dtd">
<!-- Generated by graphviz version 2.44.0 ()
 -->
<!-- Title: libs/JSystem/J2DGraph/J2DMaterialFactory.cpp Pages: 1 -->
<svg width="7971pt" height="240pt"
 viewBox="0.00 0.00 7970.50 240.00" xmlns="http://www.w3.org/2000/svg" xmlns:xlink="http://www.w3.org/1999/xlink">
<g id="graph0" class="graph" transform="scale(1 1) rotate(0) translate(4 236)">
<title>libs/JSystem/J2DGraph/J2DMaterialFactory.cpp</title>
<polygon fill="white" stroke="transparent" points="-4,4 -4,-236 7966.5,-236 7966.5,4 -4,4"/>
<!-- Node1 -->
<g id="node1" class="node">
<title>Node1</title>
<g id="a_node1"><a xlink:title=" ">
<polygon fill="#bfbfbf" stroke="black" points="4314,-201.5 4314,-231.5 4436,-231.5 4436,-201.5 4314,-201.5"/>
<text text-anchor="start" x="4322" y="-219.5" font-family="Helvetica,sans-Serif" font-size="10.00">libs/JSystem/J2DGraph</text>
<text text-anchor="middle" x="4375" y="-208.5" font-family="Helvetica,sans-Serif" font-size="10.00">/J2DMaterialFactory.cpp</text>
</a>
</g>
</g>
<!-- Node2 -->
<g id="node2" class="node">
<title>Node2</title>
<g id="a_node2"><a xlink:href="J2DMaterialFactory_8h.html" target="_top" xlink:title=" ">
<polygon fill="white" stroke="black" points="224,-123.5 224,-153.5 380,-153.5 380,-123.5 224,-123.5"/>
<text text-anchor="start" x="232" y="-141.5" font-family="Helvetica,sans-Serif" font-size="10.00">JSystem/J2DGraph/J2DMaterial</text>
<text text-anchor="middle" x="302" y="-130.5" font-family="Helvetica,sans-Serif" font-size="10.00">Factory.h</text>
</a>
</g>
</g>
<!-- Node1&#45;&gt;Node2 -->
<g id="edge1" class="edge">
<title>Node1&#45;&gt;Node2</title>
<path fill="none" stroke="midnightblue" d="M4313.66,-215.37C3885.85,-214.38 1342.45,-206.81 570,-165 509.95,-161.75 442.56,-155.33 390.38,-149.74"/>
<polygon fill="midnightblue" stroke="midnightblue" points="390.47,-146.23 380.15,-148.63 389.72,-153.19 390.47,-146.23"/>
</g>
<!-- Node6 -->
<g id="node4" class="node">
<title>Node6</title>
<g id="a_node4"><a xlink:href="types_8h.html" target="_top" xlink:title=" ">
<polygon fill="white" stroke="black" points="206.5,-0.5 206.5,-19.5 287.5,-19.5 287.5,-0.5 206.5,-0.5"/>
<text text-anchor="middle" x="247" y="-7.5" font-family="Helvetica,sans-Serif" font-size="10.00">dolphin/types.h</text>
</a>
</g>
</g>
<!-- Node1&#45;&gt;Node6 -->
<g id="edge9" class="edge">
<title>Node1&#45;&gt;Node6</title>
<path fill="none" stroke="midnightblue" d="M4313.68,-215.65C3832.72,-216.67 682.73,-221.24 604,-165 562.13,-135.09 604.88,-88.51 565,-56 525.09,-23.47 377.22,-14.45 297.96,-11.96"/>
<polygon fill="midnightblue" stroke="midnightblue" points="297.82,-8.45 287.72,-11.66 297.61,-15.45 297.82,-8.45"/>
</g>
<!-- Node63 -->
<g id="node7" class="node">
<title>Node63</title>
<g id="a_node7"><a xlink:href="dol2asm_8h.html" target="_top" xlink:title=" ">
<polygon fill="white" stroke="black" points="612.5,-129 612.5,-148 673.5,-148 673.5,-129 612.5,-129"/>
<text text-anchor="middle" x="643" y="-136" font-family="Helvetica,sans-Serif" font-size="10.00">dol2asm.h</text>
</a>
</g>
</g>
<!-- Node1&#45;&gt;Node63 -->
<g id="edge8" class="edge">
<title>Node1&#45;&gt;Node63</title>
<path fill="none" stroke="midnightblue" d="M4313.87,-215.62C3847.39,-216.39 864.13,-219.17 683,-165 675.47,-162.75 668,-158.63 661.59,-154.36"/>
<polygon fill="midnightblue" stroke="midnightblue" points="663.22,-151.21 653.07,-148.17 659.1,-156.88 663.22,-151.21"/>
</g>
<!-- Node64 -->
<g id="node8" class="node">
<title>Node64</title>
<g id="a_node8"><a xlink:title=" ">
<polygon fill="white" stroke="#bfbfbf" points="692,-112.5 692,-164.5 862,-164.5 862,-112.5 692,-112.5"/>
<text text-anchor="start" x="700" y="-152.5" font-family="Helvetica,sans-Serif" font-size="10.00">asm/JSystem/J2DGraph</text>
<text text-anchor="start" x="700" y="-141.5" font-family="Helvetica,sans-Serif" font-size="10.00">/J2DMaterialFactory/</text>
<text text-anchor="start" x="700" y="-130.5" font-family="Helvetica,sans-Serif" font-size="10.00">__ct__18J2DMaterialFactoryFRC16</text>
<text text-anchor="middle" x="777" y="-119.5" font-family="Helvetica,sans-Serif" font-size="10.00">J2DMaterialBlock.s</text>
</a>
</g>
</g>
<!-- Node1&#45;&gt;Node64 -->
<g id="edge10" class="edge">
<title>Node1&#45;&gt;Node64</title>
<path fill="none" stroke="midnightblue" d="M4313.9,-215.53C3880.12,-215.63 1271.97,-214.24 872.35,-164.78"/>
<polygon fill="midnightblue" stroke="midnightblue" points="872.62,-161.28 862.24,-163.45 871.7,-168.22 872.62,-161.28"/>
</g>
<!-- Node65 -->
<g id="node9" class="node">
<title>Node65</title>
<g id="a_node9"><a xlink:title=" ">
<polygon fill="white" stroke="#bfbfbf" points="880.5,-118 880.5,-159 1041.5,-159 1041.5,-118 880.5,-118"/>
<text text-anchor="start" x="888.5" y="-147" font-family="Helvetica,sans-Serif" font-size="10.00">asm/JSystem/J2DGraph</text>
<text text-anchor="start" x="888.5" y="-136" font-family="Helvetica,sans-Serif" font-size="10.00">/J2DMaterialFactory/countStages</text>
<text text-anchor="middle" x="961" y="-125" font-family="Helvetica,sans-Serif" font-size="10.00">__18J2DMaterialFactoryCFi.s</text>
</a>
</g>
</g>
<!-- Node1&#45;&gt;Node65 -->
<g id="edge11" class="edge">
<title>Node1&#45;&gt;Node65</title>
<path fill="none" stroke="midnightblue" d="M4314,-215.53C3889.66,-215.62 1385.33,-214.04 1051,-165 1044.78,-164.09 1038.38,-162.87 1032,-161.45"/>
<polygon fill="midnightblue" stroke="midnightblue" points="1032.56,-157.99 1022.02,-159.09 1030.94,-164.8 1032.56,-157.99"/>
</g>
<!-- Node66 -->
<g id="node10" class="node">
<title>Node66</title>
<g id="a_node10"><a xlink:title=" ">
<polygon fill="white" stroke="#bfbfbf" points="1059.5,-118 1059.5,-159 1184.5,-159 1184.5,-118 1059.5,-118"/>
<text text-anchor="start" x="1067.5" y="-147" font-family="Helvetica,sans-Serif" font-size="10.00">asm/JSystem/J2DGraph</text>
<text text-anchor="start" x="1067.5" y="-136" font-family="Helvetica,sans-Serif" font-size="10.00">/J2DMaterialFactory/func</text>
<text text-anchor="middle" x="1122" y="-125" font-family="Helvetica,sans-Serif" font-size="10.00">_802F2D1C.s</text>
</a>
</g>
</g>
<!-- Node1&#45;&gt;Node66 -->
<g id="edge12" class="edge">
<title>Node1&#45;&gt;Node66</title>
<path fill="none" stroke="midnightblue" d="M4313.96,-215.72C3900.02,-217.05 1511.57,-222.17 1194,-165 1189.55,-164.2 1185,-163.16 1180.47,-161.96"/>
<polygon fill="midnightblue" stroke="midnightblue" points="1181.19,-158.52 1170.61,-159.1 1179.24,-165.24 1181.19,-158.52"/>
</g>
<!-- Node67 -->
<g id="node11" class="node">
<title>Node67</title>
<g id="a_node11"><a xlink:title=" ">
<polygon fill="white" stroke="#bfbfbf" points="1203,-118 1203,-159 1367,-159 1367,-118 1203,-118"/>
<text text-anchor="start" x="1211" y="-147" font-family="Helvetica,sans-Serif" font-size="10.00">asm/JSystem/J2DGraph</text>
<text text-anchor="start" x="1211" y="-136" font-family="Helvetica,sans-Serif" font-size="10.00">/J2DMaterialFactory/newMatColor</text>
<text text-anchor="middle" x="1285" y="-125" font-family="Helvetica,sans-Serif" font-size="10.00">__18J2DMaterialFactoryCFii.s</text>
</a>
</g>
</g>
<!-- Node1&#45;&gt;Node67 -->
<g id="edge13" class="edge">
<title>Node1&#45;&gt;Node67</title>
<path fill="none" stroke="midnightblue" d="M4314,-215.41C3914.26,-214.71 1676.14,-208.84 1376,-165 1369.71,-164.08 1363.25,-162.86 1356.8,-161.44"/>
<polygon fill="midnightblue" stroke="midnightblue" points="1357.25,-157.95 1346.71,-159.08 1355.65,-164.77 1357.25,-157.95"/>
</g>
<!-- Node68 -->
<g id="node12" class="node">
<title>Node68</title>
<g id="a_node12"><a xlink:title=" ">
<polygon fill="white" stroke="#bfbfbf" points="1385,-118 1385,-159 1573,-159 1573,-118 1385,-118"/>
<text text-anchor="start" x="1393" y="-147" font-family="Helvetica,sans-Serif" font-size="10.00">asm/JSystem/J2DGraph</text>
<text text-anchor="start" x="1393" y="-136" font-family="Helvetica,sans-Serif" font-size="10.00">/J2DMaterialFactory/newColor</text>
<text text-anchor="middle" x="1479" y="-125" font-family="Helvetica,sans-Serif" font-size="10.00">ChanNum__18J2DMaterialFactoryCFi.s</text>
</a>
</g>
</g>
<!-- Node1&#45;&gt;Node68 -->
<g id="edge14" class="edge">
<title>Node1&#45;&gt;Node68</title>
<path fill="none" stroke="midnightblue" d="M4313.96,-215.21C3930.55,-213.28 1861.99,-201.27 1583,-165 1575.35,-164.01 1567.45,-162.66 1559.58,-161.11"/>
<polygon fill="midnightblue" stroke="midnightblue" points="1560.15,-157.66 1549.65,-159.05 1558.73,-164.51 1560.15,-157.66"/>
</g>
<!-- Node69 -->
<g id="node13" class="node">
<title>Node69</title>
<g id="a_node13"><a xlink:title=" ">
<polygon fill="white" stroke="#bfbfbf" points="1591.5,-118 1591.5,-159 1760.5,-159 1760.5,-118 1591.5,-118"/>
<text text-anchor="start" x="1599.5" y="-147" font-family="Helvetica,sans-Serif" font-size="10.00">asm/JSystem/J2DGraph</text>
<text text-anchor="start" x="1599.5" y="-136" font-family="Helvetica,sans-Serif" font-size="10.00">/J2DMaterialFactory/newColor</text>
<text text-anchor="middle" x="1676" y="-125" font-family="Helvetica,sans-Serif" font-size="10.00">Chan__18J2DMaterialFactoryCFii.s</text>
</a>
</g>
</g>
<!-- Node1&#45;&gt;Node69 -->
<g id="edge15" class="edge">
<title>Node1&#45;&gt;Node69</title>
<path fill="none" stroke="midnightblue" d="M4313.92,-215.21C3945.7,-213.37 2028.87,-202.05 1770,-165 1763.36,-164.05 1756.53,-162.78 1749.72,-161.32"/>
<polygon fill="midnightblue" stroke="midnightblue" points="1750.31,-157.86 1739.78,-159.05 1748.75,-164.69 1750.31,-157.86"/>
</g>
<!-- Node70 -->
<g id="node14" class="node">
<title>Node70</title>
<g id="a_node14"><a xlink:title=" ">
<polygon fill="white" stroke="#bfbfbf" points="1778.5,-118 1778.5,-159 1943.5,-159 1943.5,-118 1778.5,-118"/>
<text text-anchor="start" x="1786.5" y="-147" font-family="Helvetica,sans-Serif" font-size="10.00">asm/JSystem/J2DGraph</text>
<text text-anchor="start" x="1786.5" y="-136" font-family="Helvetica,sans-Serif" font-size="10.00">/J2DMaterialFactory/newTexGen</text>
<text text-anchor="middle" x="1861" y="-125" font-family="Helvetica,sans-Serif" font-size="10.00">Num__18J2DMaterialFactoryCFi.s</text>
</a>
</g>
</g>
<!-- Node1&#45;&gt;Node70 -->
<g id="edge16" class="edge">
<title>Node1&#45;&gt;Node70</title>
<path fill="none" stroke="midnightblue" d="M4313.97,-215.14C3961.41,-212.93 2192.6,-200.14 1953,-165 1946.65,-164.07 1940.12,-162.84 1933.6,-161.41"/>
<polygon fill="midnightblue" stroke="midnightblue" points="1933.94,-157.9 1923.4,-159.04 1932.35,-164.72 1933.94,-157.9"/>
</g>
<!-- Node71 -->
<g id="node15" class="node">
<title>Node71</title>
<g id="a_node15"><a xlink:title=" ">
<polygon fill="white" stroke="#bfbfbf" points="1962,-118 1962,-159 2128,-159 2128,-118 1962,-118"/>
<text text-anchor="start" x="1970" y="-147" font-family="Helvetica,sans-Serif" font-size="10.00">asm/JSystem/J2DGraph</text>
<text text-anchor="start" x="1970" y="-136" font-family="Helvetica,sans-Serif" font-size="10.00">/J2DMaterialFactory/newTexCoord</text>
<text text-anchor="middle" x="2045" y="-125" font-family="Helvetica,sans-Serif" font-size="10.00">__18J2DMaterialFactoryCFii.s</text>
</a>
</g>
</g>
<!-- Node1&#45;&gt;Node71 -->
<g id="edge17" class="edge">
<title>Node1&#45;&gt;Node71</title>
<path fill="none" stroke="midnightblue" d="M4313.74,-215.02C3976.9,-212.28 2357.29,-197.5 2137,-165 2130.65,-164.06 2124.12,-162.83 2117.6,-161.4"/>
<polygon fill="midnightblue" stroke="midnightblue" points="2117.94,-157.89 2107.41,-159.03 2116.35,-164.7 2117.94,-157.89"/>
</g>
<!-- Node72 -->
<g id="node16" class="node">
<title>Node72</title>
<g id="a_node16"><a xlink:title=" ">
<polygon fill="white" stroke="#bfbfbf" points="2146,-118 2146,-159 2302,-159 2302,-118 2146,-118"/>
<text text-anchor="start" x="2154" y="-147" font-family="Helvetica,sans-Serif" font-size="10.00">asm/JSystem/J2DGraph</text>
<text text-anchor="start" x="2154" y="-136" font-family="Helvetica,sans-Serif" font-size="10.00">/J2DMaterialFactory/newTexMtx</text>
<text text-anchor="middle" x="2224" y="-125" font-family="Helvetica,sans-Serif" font-size="10.00">__18J2DMaterialFactoryCFii.s</text>
</a>
</g>
</g>
<!-- Node1&#45;&gt;Node72 -->
<g id="edge18" class="edge">
<title>Node1&#45;&gt;Node72</title>
<path fill="none" stroke="midnightblue" d="M4313.84,-214.95C3993.16,-211.96 2512.92,-196.51 2311,-165 2305.12,-164.08 2299.08,-162.88 2293.06,-161.5"/>
<polygon fill="midnightblue" stroke="midnightblue" points="2293.51,-158 2282.97,-159.02 2291.84,-164.8 2293.51,-158"/>
</g>
<!-- Node73 -->
<g id="node17" class="node">
<title>Node73</title>
<g id="a_node17"><a xlink:title=" ">
<polygon fill="white" stroke="#bfbfbf" points="2320,-118 2320,-159 2488,-159 2488,-118 2320,-118"/>
<text text-anchor="start" x="2328" y="-147" font-family="Helvetica,sans-Serif" font-size="10.00">asm/JSystem/J2DGraph</text>
<text text-anchor="start" x="2328" y="-136" font-family="Helvetica,sans-Serif" font-size="10.00">/J2DMaterialFactory/newCull</text>
<text text-anchor="middle" x="2404" y="-125" font-family="Helvetica,sans-Serif" font-size="10.00">Mode__18J2DMaterialFactoryCFi.s</text>
</a>
</g>
</g>
<!-- Node1&#45;&gt;Node73 -->
<g id="edge19" class="edge">
<title>Node1&#45;&gt;Node73</title>
<path fill="none" stroke="midnightblue" d="M4313.65,-215.81C4031.9,-216.93 2860.23,-218.23 2498,-165 2491.42,-164.03 2484.65,-162.76 2477.9,-161.3"/>
<polygon fill="midnightblue" stroke="midnightblue" points="2478.57,-157.87 2468.04,-159.05 2477.01,-164.69 2478.57,-157.87"/>
</g>
<!-- Node74 -->
<g id="node18" class="node">
<title>Node74</title>
<g id="a_node18"><a xlink:title=" ">
<polygon fill="white" stroke="#bfbfbf" points="2506.5,-118 2506.5,-159 2659.5,-159 2659.5,-118 2506.5,-118"/>
<text text-anchor="start" x="2514.5" y="-147" font-family="Helvetica,sans-Serif" font-size="10.00">asm/JSystem/J2DGraph</text>
<text text-anchor="start" x="2514.5" y="-136" font-family="Helvetica,sans-Serif" font-size="10.00">/J2DMaterialFactory/newTexNo</text>
<text text-anchor="middle" x="2583" y="-125" font-family="Helvetica,sans-Serif" font-size="10.00">__18J2DMaterialFactoryCFii.s</text>
</a>
</g>
</g>
<!-- Node1&#45;&gt;Node74 -->
<g id="edge20" class="edge">
<title>Node1&#45;&gt;Node74</title>
<path fill="none" stroke="midnightblue" d="M4313.97,-215.8C4048.8,-216.8 2995.41,-217.31 2669,-165 2663.29,-164.08 2657.42,-162.9 2651.56,-161.54"/>
<polygon fill="midnightblue" stroke="midnightblue" points="2652.3,-158.11 2641.75,-159.1 2650.61,-164.91 2652.3,-158.11"/>
</g>
<!-- Node75 -->
<g id="node19" class="node">
<title>Node75</title>
<g id="a_node19"><a xlink:title=" ">
<polygon fill="white" stroke="#bfbfbf" points="2677.5,-118 2677.5,-159 2834.5,-159 2834.5,-118 2677.5,-118"/>
<text text-anchor="start" x="2685.5" y="-147" font-family="Helvetica,sans-Serif" font-size="10.00">asm/JSystem/J2DGraph</text>
<text text-anchor="start" x="2685.5" y="-136" font-family="Helvetica,sans-Serif" font-size="10.00">/J2DMaterialFactory/newFont</text>
<text text-anchor="middle" x="2756" y="-125" font-family="Helvetica,sans-Serif" font-size="10.00">No__18J2DMaterialFactoryCFi.s</text>
</a>
</g>
</g>
<!-- Node1&#45;&gt;Node75 -->
<g id="edge21" class="edge">
<title>Node1&#45;&gt;Node75</title>
<path fill="none" stroke="midnightblue" d="M4313.67,-215.51C4065.4,-215.24 3134.39,-211.12 2844,-165 2838.16,-164.07 2832.17,-162.88 2826.18,-161.51"/>
<polygon fill="midnightblue" stroke="midnightblue" points="2826.69,-158.03 2816.14,-159.07 2825.03,-164.83 2826.69,-158.03"/>
</g>
<!-- Node76 -->
<g id="node20" class="node">
<title>Node76</title>
<g id="a_node20"><a xlink:title=" ">
<polygon fill="white" stroke="#bfbfbf" points="2852.5,-118 2852.5,-159 3017.5,-159 3017.5,-118 2852.5,-118"/>
<text text-anchor="start" x="2860.5" y="-147" font-family="Helvetica,sans-Serif" font-size="10.00">asm/JSystem/J2DGraph</text>
<text text-anchor="start" x="2860.5" y="-136" font-family="Helvetica,sans-Serif" font-size="10.00">/J2DMaterialFactory/newTevOrder</text>
<text text-anchor="middle" x="2935" y="-125" font-family="Helvetica,sans-Serif" font-size="10.00">__18J2DMaterialFactoryCFii.s</text>
</a>
</g>
</g>
<!-- Node1&#45;&gt;Node76 -->
<g id="edge22" class="edge">
<title>Node1&#45;&gt;Node76</title>
<path fill="none" stroke="midnightblue" d="M4313.76,-215.1C4084.91,-213.3 3280.12,-204.27 3027,-165 3020.77,-164.03 3014.35,-162.79 3007.95,-161.37"/>
<polygon fill="midnightblue" stroke="midnightblue" points="3008.46,-157.9 2997.92,-159.02 3006.86,-164.71 3008.46,-157.9"/>
</g>
<!-- Node77 -->
<g id="node21" class="node">
<title>Node77</title>
<g id="a_node21"><a xlink:title=" ">
<polygon fill="white" stroke="#bfbfbf" points="3036,-118 3036,-159 3200,-159 3200,-118 3036,-118"/>
<text text-anchor="start" x="3044" y="-147" font-family="Helvetica,sans-Serif" font-size="10.00">asm/JSystem/J2DGraph</text>
<text text-anchor="start" x="3044" y="-136" font-family="Helvetica,sans-Serif" font-size="10.00">/J2DMaterialFactory/newTevColor</text>
<text text-anchor="middle" x="3118" y="-125" font-family="Helvetica,sans-Serif" font-size="10.00">__18J2DMaterialFactoryCFii.s</text>
</a>
</g>
</g>
<!-- Node1&#45;&gt;Node77 -->
<g id="edge23" class="edge">
<title>Node1&#45;&gt;Node77</title>
<path fill="none" stroke="midnightblue" d="M4313.96,-214.71C4105.83,-211.71 3424.97,-199.47 3209,-165 3202.94,-164.03 3196.71,-162.8 3190.48,-161.41"/>
<polygon fill="midnightblue" stroke="midnightblue" points="3191.27,-158 3180.73,-159.1 3189.66,-164.81 3191.27,-158"/>
</g>
<!-- Node78 -->
<g id="node22" class="node">
<title>Node78</title>
<g id="a_node22"><a xlink:title=" ">
<polygon fill="white" stroke="#bfbfbf" points="3218,-118 3218,-159 3388,-159 3388,-118 3218,-118"/>
<text text-anchor="start" x="3226" y="-147" font-family="Helvetica,sans-Serif" font-size="10.00">asm/JSystem/J2DGraph</text>
<text text-anchor="start" x="3226" y="-136" font-family="Helvetica,sans-Serif" font-size="10.00">/J2DMaterialFactory/newTevKColor</text>
<text text-anchor="middle" x="3303" y="-125" font-family="Helvetica,sans-Serif" font-size="10.00">__18J2DMaterialFactoryCFii.s</text>
</a>
</g>
</g>
<!-- Node1&#45;&gt;Node78 -->
<g id="edge24" class="edge">
<title>Node1&#45;&gt;Node78</title>
<path fill="none" stroke="midnightblue" d="M4313.77,-214.02C4128.49,-209.29 3575.72,-193.12 3398,-165 3391.69,-164 3385.2,-162.75 3378.71,-161.34"/>
<polygon fill="midnightblue" stroke="midnightblue" points="3379.07,-157.83 3368.54,-159.01 3377.51,-164.66 3379.07,-157.83"/>
</g>
<!-- Node79 -->
<g id="node23" class="node">
<title>Node79</title>
<g id="a_node23"><a xlink:title=" ">
<polygon fill="white" stroke="#bfbfbf" points="3406.5,-118 3406.5,-159 3573.5,-159 3573.5,-118 3406.5,-118"/>
<text text-anchor="start" x="3414.5" y="-147" font-family="Helvetica,sans-Serif" font-size="10.00">asm/JSystem/J2DGraph</text>
<text text-anchor="start" x="3414.5" y="-136" font-family="Helvetica,sans-Serif" font-size="10.00">/J2DMaterialFactory/newTevStage</text>
<text text-anchor="middle" x="3490" y="-125" font-family="Helvetica,sans-Serif" font-size="10.00">Num__18J2DMaterialFactoryCFi.s</text>
</a>
</g>
</g>
<!-- Node1&#45;&gt;Node79 -->
<g id="edge25" class="edge">
<title>Node1&#45;&gt;Node79</title>
<path fill="none" stroke="midnightblue" d="M4313.91,-215.83C4180.35,-215.62 3852.75,-210.1 3583,-165 3576.93,-163.99 3570.69,-162.74 3564.45,-161.34"/>
<polygon fill="midnightblue" stroke="midnightblue" points="3565.2,-157.92 3554.66,-159.04 3563.6,-164.74 3565.2,-157.92"/>
</g>
<!-- Node80 -->
<g id="node24" class="node">
<title>Node80</title>
<g id="a_node24"><a xlink:title=" ">
<polygon fill="white" stroke="#bfbfbf" points="3591.5,-118 3591.5,-159 3758.5,-159 3758.5,-118 3591.5,-118"/>
<text text-anchor="start" x="3599.5" y="-147" font-family="Helvetica,sans-Serif" font-size="10.00">asm/JSystem/J2DGraph</text>
<text text-anchor="start" x="3599.5" y="-136" font-family="Helvetica,sans-Serif" font-size="10.00">/J2DMaterialFactory/newTevStage</text>
<text text-anchor="middle" x="3675" y="-125" font-family="Helvetica,sans-Serif" font-size="10.00">__18J2DMaterialFactoryCFii.s</text>
</a>
</g>
</g>
<!-- Node1&#45;&gt;Node80 -->
<g id="edge26" class="edge">
<title>Node1&#45;&gt;Node80</title>
<path fill="none" stroke="midnightblue" d="M4313.67,-214.2C4203.44,-211.02 3964.85,-200.31 3767,-165 3761.25,-163.97 3755.34,-162.75 3749.43,-161.39"/>
<polygon fill="midnightblue" stroke="midnightblue" points="3750.03,-157.94 3739.49,-159.01 3748.4,-164.75 3750.03,-157.94"/>
</g>
<!-- Node81 -->
<g id="node25" class="node">
<title>Node81</title>
<g id="a_node25"><a xlink:title=" ">
<polygon fill="white" stroke="#bfbfbf" points="3776,-118 3776,-159 3970,-159 3970,-118 3776,-118"/>
<text text-anchor="start" x="3784" y="-147" font-family="Helvetica,sans-Serif" font-size="10.00">asm/JSystem/J2DGraph</text>
<text text-anchor="start" x="3784" y="-136" font-family="Helvetica,sans-Serif" font-size="10.00">/J2DMaterialFactory/newTevSwap</text>
<text text-anchor="middle" x="3873" y="-125" font-family="Helvetica,sans-Serif" font-size="10.00">ModeTable__18J2DMaterialFactoryCFii.s</text>
</a>
</g>
</g>
<!-- Node1&#45;&gt;Node81 -->
<g id="edge27" class="edge">
<title>Node1&#45;&gt;Node81</title>
<path fill="none" stroke="midnightblue" d="M4313.79,-209.72C4235.88,-201.9 4097.32,-186.42 3980,-165 3973.71,-163.85 3967.24,-162.57 3960.74,-161.2"/>
<polygon fill="midnightblue" stroke="midnightblue" points="3961.03,-157.69 3950.52,-159 3959.56,-164.53 3961.03,-157.69"/>
</g>
<!-- Node82 -->
<g id="node26" class="node">
<title>Node82</title>
<g id="a_node26"><a xlink:title=" ">
<polygon fill="white" stroke="#bfbfbf" points="3988.5,-118 3988.5,-159 4179.5,-159 4179.5,-118 3988.5,-118"/>
<text text-anchor="start" x="3996.5" y="-147" font-family="Helvetica,sans-Serif" font-size="10.00">asm/JSystem/J2DGraph</text>
<text text-anchor="start" x="3996.5" y="-136" font-family="Helvetica,sans-Serif" font-size="10.00">/J2DMaterialFactory/newIndTex</text>
<text text-anchor="middle" x="4084" y="-125" font-family="Helvetica,sans-Serif" font-size="10.00">StageNum__18J2DMaterialFactoryCFi.s</text>
</a>
</g>
</g>
<!-- Node1&#45;&gt;Node82 -->
<g id="edge28" class="edge">
<title>Node1&#45;&gt;Node82</title>
<path fill="none" stroke="midnightblue" d="M4321.29,-201.47C4278.49,-190.29 4217.77,-174.44 4168.48,-161.56"/>
<polygon fill="midnightblue" stroke="midnightblue" points="4169.34,-158.17 4158.78,-159.03 4167.57,-164.94 4169.34,-158.17"/>
</g>
<!-- Node83 -->
<g id="node27" class="node">
<title>Node83</title>
<g id="a_node27"><a xlink:title=" ">
<polygon fill="white" stroke="#bfbfbf" points="4198,-118 4198,-159 4368,-159 4368,-118 4198,-118"/>
<text text-anchor="start" x="4206" y="-147" font-family="Helvetica,sans-Serif" font-size="10.00">asm/JSystem/J2DGraph</text>
<text text-anchor="start" x="4206" y="-136" font-family="Helvetica,sans-Serif" font-size="10.00">/J2DMaterialFactory/newIndTex</text>
<text text-anchor="middle" x="4283" y="-125" font-family="Helvetica,sans-Serif" font-size="10.00">Order__18J2DMaterialFactoryCFii.s</text>
</a>
</g>
</g>
<!-- Node1&#45;&gt;Node83 -->
<g id="edge29" class="edge">
<title>Node1&#45;&gt;Node83</title>
<path fill="none" stroke="midnightblue" d="M4357.7,-201.2C4345.57,-191.19 4329.03,-177.52 4314.59,-165.59"/>
<polygon fill="midnightblue" stroke="midnightblue" points="4316.76,-162.85 4306.82,-159.18 4312.3,-168.25 4316.76,-162.85"/>
</g>
<!-- Node84 -->
<g id="node28" class="node">
<title>Node84</title>
<g id="a_node28"><a xlink:title=" ">
<polygon fill="white" stroke="#bfbfbf" points="4386,-118 4386,-159 4548,-159 4548,-118 4386,-118"/>
<text text-anchor="start" x="4394" y="-147" font-family="Helvetica,sans-Serif" font-size="10.00">asm/JSystem/J2DGraph</text>
<text text-anchor="start" x="4394" y="-136" font-family="Helvetica,sans-Serif" font-size="10.00">/J2DMaterialFactory/newIndTex</text>
<text text-anchor="middle" x="4467" y="-125" font-family="Helvetica,sans-Serif" font-size="10.00">Mtx__18J2DMaterialFactoryCFii.s</text>
</a>
</g>
</g>
<!-- Node1&#45;&gt;Node84 -->
<g id="edge30" class="edge">
<title>Node1&#45;&gt;Node84</title>
<path fill="none" stroke="midnightblue" d="M4392.3,-201.2C4404.43,-191.19 4420.97,-177.52 4435.41,-165.59"/>
<polygon fill="midnightblue" stroke="midnightblue" points="4437.7,-168.25 4443.18,-159.18 4433.24,-162.85 4437.7,-168.25"/>
</g>
<!-- Node85 -->
<g id="node29" class="node">
<title>Node85</title>
<g id="a_node29"><a xlink:title=" ">
<polygon fill="white" stroke="#bfbfbf" points="4566,-118 4566,-159 4738,-159 4738,-118 4566,-118"/>
<text text-anchor="start" x="4574" y="-147" font-family="Helvetica,sans-Serif" font-size="10.00">asm/JSystem/J2DGraph</text>
<text text-anchor="start" x="4574" y="-136" font-family="Helvetica,sans-Serif" font-size="10.00">/J2DMaterialFactory/newIndTev</text>
<text text-anchor="middle" x="4652" y="-125" font-family="Helvetica,sans-Serif" font-size="10.00">Stage__18J2DMaterialFactoryCFii.s</text>
</a>
</g>
</g>
<!-- Node1&#45;&gt;Node85 -->
<g id="edge31" class="edge">
<title>Node1&#45;&gt;Node85</title>
<path fill="none" stroke="midnightblue" d="M4426.13,-201.47C4466.7,-190.34 4524.18,-174.57 4571,-161.72"/>
<polygon fill="midnightblue" stroke="midnightblue" points="4572.1,-165.05 4580.82,-159.03 4570.25,-158.3 4572.1,-165.05"/>
</g>
<!-- Node86 -->
<g id="node30" class="node">
<title>Node86</title>
<g id="a_node30"><a xlink:title=" ">
<polygon fill="white" stroke="#bfbfbf" points="4756.5,-118 4756.5,-159 4953.5,-159 4953.5,-118 4756.5,-118"/>
<text text-anchor="start" x="4764.5" y="-147" font-family="Helvetica,sans-Serif" font-size="10.00">asm/JSystem/J2DGraph</text>
<text text-anchor="start" x="4764.5" y="-136" font-family="Helvetica,sans-Serif" font-size="10.00">/J2DMaterialFactory/newIndTex</text>
<text text-anchor="middle" x="4855" y="-125" font-family="Helvetica,sans-Serif" font-size="10.00">CoordScale__18J2DMaterialFactoryCFii.s</text>
</a>
</g>
</g>
<!-- Node1&#45;&gt;Node86 -->
<g id="edge32" class="edge">
<title>Node1&#45;&gt;Node86</title>
<path fill="none" stroke="midnightblue" d="M4436.18,-209.04C4510.14,-200.8 4638.22,-185.18 4747,-165 4753.22,-163.85 4759.61,-162.57 4766.04,-161.22"/>
<polygon fill="midnightblue" stroke="midnightblue" points="4767.11,-164.57 4776.15,-159.05 4765.64,-157.73 4767.11,-164.57"/>
</g>
<!-- Node87 -->
<g id="node31" class="node">
<title>Node87</title>
<g id="a_node31"><a xlink:title=" ">
<polygon fill="white" stroke="#bfbfbf" points="4972,-118 4972,-159 5142,-159 5142,-118 4972,-118"/>
<text text-anchor="start" x="4980" y="-147" font-family="Helvetica,sans-Serif" font-size="10.00">asm/JSystem/J2DGraph</text>
<text text-anchor="start" x="4980" y="-136" font-family="Helvetica,sans-Serif" font-size="10.00">/J2DMaterialFactory/newAlpha</text>
<text text-anchor="middle" x="5057" y="-125" font-family="Helvetica,sans-Serif" font-size="10.00">Comp__18J2DMaterialFactoryCFi.s</text>
</a>
</g>
</g>
<!-- Node1&#45;&gt;Node87 -->
<g id="edge33" class="edge">
<title>Node1&#45;&gt;Node87</title>
<path fill="none" stroke="midnightblue" d="M4436.42,-213.84C4543.91,-210.14 4772.82,-198.68 4963,-165 4968.81,-163.97 4974.79,-162.75 4980.78,-161.4"/>
<polygon fill="midnightblue" stroke="midnightblue" points="4981.9,-164.73 4990.83,-159.04 4980.3,-157.92 4981.9,-164.73"/>
</g>
<!-- Node88 -->
<g id="node32" class="node">
<title>Node88</title>
<g id="a_node32"><a xlink:title=" ">
<polygon fill="white" stroke="#bfbfbf" points="5160.5,-118 5160.5,-159 5309.5,-159 5309.5,-118 5160.5,-118"/>
<text text-anchor="start" x="5168.5" y="-147" font-family="Helvetica,sans-Serif" font-size="10.00">asm/JSystem/J2DGraph</text>
<text text-anchor="start" x="5168.5" y="-136" font-family="Helvetica,sans-Serif" font-size="10.00">/J2DMaterialFactory/newBlend</text>
<text text-anchor="middle" x="5235" y="-125" font-family="Helvetica,sans-Serif" font-size="10.00">__18J2DMaterialFactoryCFi.s</text>
</a>
</g>
</g>
<!-- Node1&#45;&gt;Node88 -->
<g id="edge34" class="edge">
<title>Node1&#45;&gt;Node88</title>
<path fill="none" stroke="midnightblue" d="M4436.2,-216.26C4568.02,-216.87 4888.16,-212.79 5151,-165 5156.12,-164.07 5161.36,-162.93 5166.61,-161.66"/>
<polygon fill="midnightblue" stroke="midnightblue" points="5167.86,-164.96 5176.68,-159.08 5166.12,-158.18 5167.86,-164.96"/>
</g>
<!-- Node89 -->
<g id="node33" class="node">
<title>Node89</title>
<g id="a_node33"><a xlink:title=" ">
<polygon fill="white" stroke="#bfbfbf" points="5327,-118 5327,-159 5477,-159 5477,-118 5327,-118"/>
<text text-anchor="start" x="5335" y="-147" font-family="Helvetica,sans-Serif" font-size="10.00">asm/JSystem/J2DGraph</text>
<text text-anchor="start" x="5335" y="-136" font-family="Helvetica,sans-Serif" font-size="10.00">/J2DMaterialFactory/newDither</text>
<text text-anchor="middle" x="5402" y="-125" font-family="Helvetica,sans-Serif" font-size="10.00">__18J2DMaterialFactoryCFi.s</text>
</a>
</g>
</g>
<!-- Node1&#45;&gt;Node89 -->
<g id="edge35" class="edge">
<title>Node1&#45;&gt;Node89</title>
<path fill="none" stroke="midnightblue" d="M4436.13,-214.18C4617.14,-209.97 5148.42,-195.29 5319,-165 5324.29,-164.06 5329.71,-162.89 5335.13,-161.57"/>
<polygon fill="midnightblue" stroke="midnightblue" points="5336.05,-164.95 5344.85,-159.05 5334.29,-158.17 5336.05,-164.95"/>
</g>
<!-- Node90 -->
<g id="node34" class="node">
<title>Node90</title>
<g id="a_node34"><a xlink:title=" ">
<polygon fill="white" stroke="#bfbfbf" points="5495.5,-112.5 5495.5,-164.5 5674.5,-164.5 5674.5,-112.5 5495.5,-112.5"/>
<text text-anchor="start" x="5503.5" y="-152.5" font-family="Helvetica,sans-Serif" font-size="10.00">asm/JSystem/J2DGraph</text>
<text text-anchor="start" x="5503.5" y="-141.5" font-family="Helvetica,sans-Serif" font-size="10.00">/J2DMaterialFactory/</text>
<text text-anchor="start" x="5503.5" y="-130.5" font-family="Helvetica,sans-Serif" font-size="10.00">__ct__11J2DTevStageFRC15J2DTev</text>
<text text-anchor="middle" x="5585" y="-119.5" font-family="Helvetica,sans-Serif" font-size="10.00">StageInfo.s</text>
</a>
</g>
</g>
<!-- Node1&#45;&gt;Node90 -->
<g id="edge36" class="edge">
<title>Node1&#45;&gt;Node90</title>
<path fill="none" stroke="midnightblue" d="M4436.27,-214.38C4635.06,-210.5 5261.61,-196.17 5485.3,-164.91"/>
<polygon fill="midnightblue" stroke="midnightblue" points="5485.93,-168.36 5495.32,-163.46 5484.92,-161.43 5485.93,-168.36"/>
</g>
<!-- Node91 -->
<g id="node35" class="node">
<title>Node91</title>
<g id="a_node35"><a xlink:title=" ">
<polygon fill="white" stroke="#bfbfbf" points="5692.5,-118 5692.5,-159 5817.5,-159 5817.5,-118 5692.5,-118"/>
<text text-anchor="start" x="5700.5" y="-147" font-family="Helvetica,sans-Serif" font-size="10.00">asm/JSystem/J2DGraph</text>
<text text-anchor="start" x="5700.5" y="-136" font-family="Helvetica,sans-Serif" font-size="10.00">/J2DMaterialFactory/func</text>
<text text-anchor="middle" x="5755" y="-125" font-family="Helvetica,sans-Serif" font-size="10.00">_802F4170.s</text>
</a>
</g>
</g>
<!-- Node1&#45;&gt;Node91 -->
<g id="edge37" class="edge">
<title>Node1&#45;&gt;Node91</title>
<path fill="none" stroke="midnightblue" d="M4436.1,-215.61C4660.74,-215.65 5440.37,-212.28 5684,-165 5688.19,-164.19 5692.47,-163.17 5696.75,-162"/>
<polygon fill="midnightblue" stroke="midnightblue" points="5698.07,-165.26 5706.66,-159.07 5696.08,-158.55 5698.07,-165.26"/>
</g>
<!-- Node92 -->
<g id="node36" class="node">
<title>Node92</title>
<g id="a_node36"><a xlink:title=" ">
<polygon fill="white" stroke="#bfbfbf" points="5835.5,-118 5835.5,-159 5960.5,-159 5960.5,-118 5835.5,-118"/>
<text text-anchor="start" x="5843.5" y="-147" font-family="Helvetica,sans-Serif" font-size="10.00">asm/JSystem/J2DGraph</text>
<text text-anchor="start" x="5843.5" y="-136" font-family="Helvetica,sans-Serif" font-size="10.00">/J2DMaterialFactory/func</text>
<text text-anchor="middle" x="5898" y="-125" font-family="Helvetica,sans-Serif" font-size="10.00">_802F4188.s</text>
</a>
</g>
</g>
<!-- Node1&#45;&gt;Node92 -->
<g id="edge38" class="edge">
<title>Node1&#45;&gt;Node92</title>
<path fill="none" stroke="midnightblue" d="M4436.08,-215.89C4676.03,-217.02 5554.21,-217.4 5827,-165 5831.2,-164.19 5835.48,-163.18 5839.75,-162.02"/>
<polygon fill="midnightblue" stroke="midnightblue" points="5841.07,-165.28 5849.67,-159.09 5839.09,-158.57 5841.07,-165.28"/>
</g>
<!-- Node93 -->
<g id="node37" class="node">
<title>Node93</title>
<g id="a_node37"><a xlink:title=" ">
<polygon fill="white" stroke="#bfbfbf" points="5978.5,-118 5978.5,-159 6103.5,-159 6103.5,-118 5978.5,-118"/>
<text text-anchor="start" x="5986.5" y="-147" font-family="Helvetica,sans-Serif" font-size="10.00">asm/JSystem/J2DGraph</text>
<text text-anchor="start" x="5986.5" y="-136" font-family="Helvetica,sans-Serif" font-size="10.00">/J2DMaterialFactory/func</text>
<text text-anchor="middle" x="6041" y="-125" font-family="Helvetica,sans-Serif" font-size="10.00">_802F41A0.s</text>
</a>
</g>
</g>
<!-- Node1&#45;&gt;Node93 -->
<g id="edge39" class="edge">
<title>Node1&#45;&gt;Node93</title>
<path fill="none" stroke="midnightblue" d="M4436.39,-214.69C4710.73,-210.92 5817.59,-194.03 5970,-165 5974.2,-164.2 5978.48,-163.19 5982.75,-162.04"/>
<polygon fill="midnightblue" stroke="midnightblue" points="5984.07,-165.3 5992.67,-159.12 5982.09,-158.58 5984.07,-165.3"/>
</g>
<!-- Node94 -->
<g id="node38" class="node">
<title>Node94</title>
<g id="a_node38"><a xlink:title=" ">
<polygon fill="white" stroke="#bfbfbf" points="6121.5,-118 6121.5,-159 6246.5,-159 6246.5,-118 6121.5,-118"/>
<text text-anchor="start" x="6129.5" y="-147" font-family="Helvetica,sans-Serif" font-size="10.00">asm/JSystem/J2DGraph</text>
<text text-anchor="start" x="6129.5" y="-136" font-family="Helvetica,sans-Serif" font-size="10.00">/J2DMaterialFactory/func</text>
<text text-anchor="middle" x="6184" y="-125" font-family="Helvetica,sans-Serif" font-size="10.00">_802F41B8.s</text>
</a>
</g>
</g>
<!-- Node1&#45;&gt;Node94 -->
<g id="edge40" class="edge">
<title>Node1&#45;&gt;Node94</title>
<path fill="none" stroke="midnightblue" d="M4436.01,-214.87C4724.62,-211.72 5945.79,-196.63 6113,-165 6117.39,-164.17 6121.87,-163.11 6126.34,-161.89"/>
<polygon fill="midnightblue" stroke="midnightblue" points="6127.47,-165.21 6136.06,-159.01 6125.48,-158.49 6127.47,-165.21"/>
</g>
<!-- Node95 -->
<g id="node39" class="node">
<title>Node95</title>
<g id="a_node39"><a xlink:title=" ">
<polygon fill="white" stroke="#bfbfbf" points="6264.5,-118 6264.5,-159 6389.5,-159 6389.5,-118 6264.5,-118"/>
<text text-anchor="start" x="6272.5" y="-147" font-family="Helvetica,sans-Serif" font-size="10.00">asm/JSystem/J2DGraph</text>
<text text-anchor="start" x="6272.5" y="-136" font-family="Helvetica,sans-Serif" font-size="10.00">/J2DMaterialFactory/func</text>
<text text-anchor="middle" x="6327" y="-125" font-family="Helvetica,sans-Serif" font-size="10.00">_802F41D0.s</text>
</a>
</g>
</g>
<!-- Node1&#45;&gt;Node95 -->
<g id="edge41" class="edge">
<title>Node1&#45;&gt;Node95</title>
<path fill="none" stroke="midnightblue" d="M4436.18,-215.01C4739.43,-212.43 6074.05,-199.21 6256,-165 6260.39,-164.17 6264.87,-163.12 6269.34,-161.9"/>
<polygon fill="midnightblue" stroke="midnightblue" points="6270.47,-165.22 6279.07,-159.02 6268.48,-158.51 6270.47,-165.22"/>
</g>
<!-- Node96 -->
<g id="node40" class="node">
<title>Node96</title>
<g id="a_node40"><a xlink:title=" ">
<polygon fill="white" stroke="#bfbfbf" points="6407.5,-118 6407.5,-159 6532.5,-159 6532.5,-118 6407.5,-118"/>
<text text-anchor="start" x="6415.5" y="-147" font-family="Helvetica,sans-Serif" font-size="10.00">asm/JSystem/J2DGraph</text>
<text text-anchor="start" x="6415.5" y="-136" font-family="Helvetica,sans-Serif" font-size="10.00">/J2DMaterialFactory/func</text>
<text text-anchor="middle" x="6470" y="-125" font-family="Helvetica,sans-Serif" font-size="10.00">_802F41E8.s</text>
</a>
</g>
</g>
<!-- Node1&#45;&gt;Node96 -->
<g id="edge42" class="edge">
<title>Node1&#45;&gt;Node96</title>
<path fill="none" stroke="midnightblue" d="M4436.05,-215.14C4752.84,-213.1 6202.22,-201.8 6399,-165 6403.39,-164.18 6407.87,-163.12 6412.34,-161.91"/>
<polygon fill="midnightblue" stroke="midnightblue" points="6413.47,-165.23 6422.07,-159.04 6411.49,-158.51 6413.47,-165.23"/>
</g>
<!-- Node97 -->
<g id="node41" class="node">
<title>Node97</title>
<g id="a_node41"><a xlink:title=" ">
<polygon fill="white" stroke="#bfbfbf" points="6550.5,-118 6550.5,-159 6675.5,-159 6675.5,-118 6550.5,-118"/>
<text text-anchor="start" x="6558.5" y="-147" font-family="Helvetica,sans-Serif" font-size="10.00">asm/JSystem/J2DGraph</text>
<text text-anchor="start" x="6558.5" y="-136" font-family="Helvetica,sans-Serif" font-size="10.00">/J2DMaterialFactory/func</text>
<text text-anchor="middle" x="6613" y="-125" font-family="Helvetica,sans-Serif" font-size="10.00">_802F4200.s</text>
</a>
</g>
</g>
<!-- Node1&#45;&gt;Node97 -->
<g id="edge43" class="edge">
<title>Node1&#45;&gt;Node97</title>
<path fill="none" stroke="midnightblue" d="M4436.24,-215.24C4766.74,-213.71 6330.43,-204.39 6542,-165 6546.39,-164.18 6550.87,-163.13 6555.34,-161.92"/>
<polygon fill="midnightblue" stroke="midnightblue" points="6556.47,-165.24 6565.07,-159.05 6554.49,-158.52 6556.47,-165.24"/>
</g>
<!-- Node98 -->
<g id="node42" class="node">
<title>Node98</title>
<g id="a_node42"><a xlink:title=" ">
<polygon fill="white" stroke="#bfbfbf" points="6693.5,-118 6693.5,-159 6818.5,-159 6818.5,-118 6693.5,-118"/>
<text text-anchor="start" x="6701.5" y="-147" font-family="Helvetica,sans-Serif" font-size="10.00">asm/JSystem/J2DGraph</text>
<text text-anchor="start" x="6701.5" y="-136" font-family="Helvetica,sans-Serif" font-size="10.00">/J2DMaterialFactory/func</text>
<text text-anchor="middle" x="6756" y="-125" font-family="Helvetica,sans-Serif" font-size="10.00">_802F4218.s</text>
</a>
</g>
</g>
<!-- Node1&#45;&gt;Node98 -->
<g id="edge44" class="edge">
<title>Node1&#45;&gt;Node98</title>
<path fill="none" stroke="midnightblue" d="M4436.02,-215.34C4778.9,-214.28 6458.52,-206.99 6685,-165 6689.39,-164.19 6693.88,-163.14 6698.35,-161.93"/>
<polygon fill="midnightblue" stroke="midnightblue" points="6699.47,-165.24 6708.07,-159.06 6697.49,-158.53 6699.47,-165.24"/>
</g>
<!-- Node99 -->
<g id="node43" class="node">
<title>Node99</title>
<g id="a_node43"><a xlink:title=" ">
<polygon fill="white" stroke="#bfbfbf" points="6836.5,-118 6836.5,-159 6961.5,-159 6961.5,-118 6836.5,-118"/>
<text text-anchor="start" x="6844.5" y="-147" font-family="Helvetica,sans-Serif" font-size="10.00">asm/JSystem/J2DGraph</text>
<text text-anchor="start" x="6844.5" y="-136" font-family="Helvetica,sans-Serif" font-size="10.00">/J2DMaterialFactory/func</text>
<text text-anchor="middle" x="6899" y="-125" font-family="Helvetica,sans-Serif" font-size="10.00">_802F4230.s</text>
</a>
</g>
</g>
<!-- Node1&#45;&gt;Node99 -->
<g id="edge45" class="edge">
<title>Node1&#45;&gt;Node99</title>
<path fill="none" stroke="midnightblue" d="M4436.27,-215.42C4792.23,-214.82 6586.69,-209.58 6828,-165 6832.39,-164.19 6836.88,-163.14 6841.35,-161.93"/>
<polygon fill="midnightblue" stroke="midnightblue" points="6842.47,-165.25 6851.07,-159.07 6840.49,-158.54 6842.47,-165.25"/>
</g>
<!-- Node100 -->
<g id="node44" class="node">
<title>Node100</title>
<g id="a_node44"><a xlink:title=" ">
<polygon fill="white" stroke="#bfbfbf" points="6979.5,-118 6979.5,-159 7104.5,-159 7104.5,-118 6979.5,-118"/>
<text text-anchor="start" x="6987.5" y="-147" font-family="Helvetica,sans-Serif" font-size="10.00">asm/JSystem/J2DGraph</text>
<text text-anchor="start" x="6987.5" y="-136" font-family="Helvetica,sans-Serif" font-size="10.00">/J2DMaterialFactory/func</text>
<text text-anchor="middle" x="7042" y="-125" font-family="Helvetica,sans-Serif" font-size="10.00">_802F4248.s</text>
</a>
</g>
</g>
<!-- Node1&#45;&gt;Node100 -->
<g id="edge46" class="edge">
<title>Node1&#45;&gt;Node100</title>
<path fill="none" stroke="midnightblue" d="M4436.21,-215.5C4804.17,-215.33 6714.77,-212.19 6971,-165 6975.39,-164.19 6979.88,-163.14 6984.35,-161.94"/>
<polygon fill="midnightblue" stroke="midnightblue" points="6985.47,-165.26 6994.08,-159.07 6983.49,-158.54 6985.47,-165.26"/>
</g>
<!-- Node101 -->
<g id="node45" class="node">
<title>Node101</title>
<g id="a_node45"><a xlink:title=" ">
<polygon fill="white" stroke="#bfbfbf" points="7122.5,-118 7122.5,-159 7247.5,-159 7247.5,-118 7122.5,-118"/>
<text text-anchor="start" x="7130.5" y="-147" font-family="Helvetica,sans-Serif" font-size="10.00">asm/JSystem/J2DGraph</text>
<text text-anchor="start" x="7130.5" y="-136" font-family="Helvetica,sans-Serif" font-size="10.00">/J2DMaterialFactory/func</text>
<text text-anchor="middle" x="7185" y="-125" font-family="Helvetica,sans-Serif" font-size="10.00">_802F4260.s</text>
</a>
</g>
</g>
<!-- Node1&#45;&gt;Node101 -->
<g id="edge47" class="edge">
<title>Node1&#45;&gt;Node101</title>
<path fill="none" stroke="midnightblue" d="M4436.16,-215.57C4815.8,-215.82 6842.83,-214.8 7114,-165 7118.39,-164.19 7122.88,-163.15 7127.35,-161.94"/>
<polygon fill="midnightblue" stroke="midnightblue" points="7128.47,-165.26 7137.08,-159.08 7126.5,-158.55 7128.47,-165.26"/>
</g>
<!-- Node102 -->
<g id="node46" class="node">
<title>Node102</title>
<g id="a_node46"><a xlink:title=" ">
<polygon fill="white" stroke="#bfbfbf" points="7265.5,-118 7265.5,-159 7390.5,-159 7390.5,-118 7265.5,-118"/>
<text text-anchor="start" x="7273.5" y="-147" font-family="Helvetica,sans-Serif" font-size="10.00">asm/JSystem/J2DGraph</text>
<text text-anchor="start" x="7273.5" y="-136" font-family="Helvetica,sans-Serif" font-size="10.00">/J2DMaterialFactory/func</text>
<text text-anchor="middle" x="7328" y="-125" font-family="Helvetica,sans-Serif" font-size="10.00">_802F4278.s</text>
</a>
</g>
</g>
<!-- Node1&#45;&gt;Node102 -->
<g id="edge48" class="edge">
<title>Node1&#45;&gt;Node102</title>
<path fill="none" stroke="midnightblue" d="M4436.17,-215.63C4827.3,-216.28 6970.89,-217.41 7257,-165 7261.39,-164.2 7265.88,-163.15 7270.35,-161.95"/>
<polygon fill="midnightblue" stroke="midnightblue" points="7271.47,-165.27 7280.08,-159.09 7269.5,-158.55 7271.47,-165.27"/>
</g>
<!-- Node103 -->
<g id="node47" class="node">
<title>Node103</title>
<g id="a_node47"><a xlink:title=" ">
<polygon fill="white" stroke="#bfbfbf" points="7408.5,-118 7408.5,-159 7533.5,-159 7533.5,-118 7408.5,-118"/>
<text text-anchor="start" x="7416.5" y="-147" font-family="Helvetica,sans-Serif" font-size="10.00">asm/JSystem/J2DGraph</text>
<text text-anchor="start" x="7416.5" y="-136" font-family="Helvetica,sans-Serif" font-size="10.00">/J2DMaterialFactory/func</text>
<text text-anchor="middle" x="7471" y="-125" font-family="Helvetica,sans-Serif" font-size="10.00">_802F4290.s</text>
</a>
</g>
</g>
<!-- Node1&#45;&gt;Node103 -->
<g id="edge49" class="edge">
<title>Node1&#45;&gt;Node103</title>
<path fill="none" stroke="midnightblue" d="M4436.25,-215.68C4838.84,-216.71 7098.95,-220.02 7400,-165 7404.39,-164.2 7408.88,-163.16 7413.35,-161.95"/>
<polygon fill="midnightblue" stroke="midnightblue" points="7414.47,-165.27 7423.08,-159.09 7412.5,-158.55 7414.47,-165.27"/>
</g>
<!-- Node104 -->
<g id="node48" class="node">
<title>Node104</title>
<g id="a_node48"><a xlink:title=" ">
<polygon fill="white" stroke="#bfbfbf" points="7551.5,-118 7551.5,-159 7676.5,-159 7676.5,-118 7551.5,-118"/>
<text text-anchor="start" x="7559.5" y="-147" font-family="Helvetica,sans-Serif" font-size="10.00">asm/JSystem/J2DGraph</text>
<text text-anchor="start" x="7559.5" y="-136" font-family="Helvetica,sans-Serif" font-size="10.00">/J2DMaterialFactory/func</text>
<text text-anchor="middle" x="7614" y="-125" font-family="Helvetica,sans-Serif" font-size="10.00">_802F42A8.s</text>
</a>
</g>
</g>
<!-- Node1&#45;&gt;Node104 -->
<g id="edge50" class="edge">
<title>Node1&#45;&gt;Node104</title>
<path fill="none" stroke="midnightblue" d="M4436.29,-215.09C4863.52,-212.19 7384.55,-193.89 7543,-165 7547.39,-164.2 7551.88,-163.16 7556.35,-161.96"/>
<polygon fill="midnightblue" stroke="midnightblue" points="7557.47,-165.27 7566.08,-159.1 7555.5,-158.56 7557.47,-165.27"/>
</g>
<!-- Node105 -->
<g id="node49" class="node">
<title>Node105</title>
<g id="a_node49"><a xlink:title=" ">
<polygon fill="white" stroke="#bfbfbf" points="7694.5,-118 7694.5,-159 7819.5,-159 7819.5,-118 7694.5,-118"/>
<text text-anchor="start" x="7702.5" y="-147" font-family="Helvetica,sans-Serif" font-size="10.00">asm/JSystem/J2DGraph</text>
<text text-anchor="start" x="7702.5" y="-136" font-family="Helvetica,sans-Serif" font-size="10.00">/J2DMaterialFactory/func</text>
<text text-anchor="middle" x="7757" y="-125" font-family="Helvetica,sans-Serif" font-size="10.00">_802F42C0.s</text>
</a>
</g>
</g>
<!-- Node1&#45;&gt;Node105 -->
<g id="edge51" class="edge">
<title>Node1&#45;&gt;Node105</title>
<path fill="none" stroke="midnightblue" d="M4436.22,-215.14C4874.31,-212.48 7520.03,-195.21 7686,-165 7690.4,-164.2 7694.88,-163.16 7699.35,-161.96"/>
<polygon fill="midnightblue" stroke="midnightblue" points="7700.47,-165.28 7709.08,-159.1 7698.5,-158.56 7700.47,-165.28"/>
</g>
<!-- Node106 -->
<g id="node50" class="node">
<title>Node106</title>
<g id="a_node50"><a xlink:title=" ">
<polygon fill="white" stroke="#bfbfbf" points="7837.5,-118 7837.5,-159 7962.5,-159 7962.5,-118 7837.5,-118"/>
<text text-anchor="start" x="7845.5" y="-147" font-family="Helvetica,sans-Serif" font-size="10.00">asm/JSystem/J2DGraph</text>
<text text-anchor="start" x="7845.5" y="-136" font-family="Helvetica,sans-Serif" font-size="10.00">/J2DMaterialFactory/func</text>
<text text-anchor="middle" x="7900" y="-125" font-family="Helvetica,sans-Serif" font-size="10.00">_802F42D8.s</text>
</a>
</g>
</g>
<!-- Node1&#45;&gt;Node106 -->
<g id="edge52" class="edge">
<title>Node1&#45;&gt;Node106</title>
<path fill="none" stroke="midnightblue" d="M4436.34,-215.18C4885.58,-212.75 7655.53,-196.51 7829,-165 7833.4,-164.2 7837.88,-163.16 7842.35,-161.96"/>
<polygon fill="midnightblue" stroke="midnightblue" points="7843.47,-165.28 7852.08,-159.11 7841.5,-158.56 7843.47,-165.28"/>
</g>
<!-- Node3 -->
<g id="node3" class="node">
<title>Node3</title>
<g id="a_node3"><a xlink:href="J2DManage_8h.html" target="_top" xlink:title=" ">
<polygon fill="white" stroke="red" points="0,-56.5 0,-75.5 164,-75.5 164,-56.5 0,-56.5"/>
<text text-anchor="middle" x="82" y="-63.5" font-family="Helvetica,sans-Serif" font-size="10.00">JSystem/J2DGraph/J2DManage.h</text>
</a>
</g>
</g>
<!-- Node2&#45;&gt;Node3 -->
<g id="edge2" class="edge">
<title>Node2&#45;&gt;Node3</title>
<path fill="none" stroke="midnightblue" d="M258.27,-123.49C217.32,-110.36 156.83,-90.98 118.43,-78.67"/>
<polygon fill="midnightblue" stroke="midnightblue" points="119.29,-75.27 108.7,-75.55 117.15,-81.94 119.29,-75.27"/>
</g>
<!-- Node2&#45;&gt;Node6 -->
<g id="edge7" class="edge">
<title>Node2&#45;&gt;Node6</title>
<path fill="none" stroke="midnightblue" d="M266.02,-123.38C245.91,-113.41 222.63,-97.89 211,-76 202,-59.05 215.62,-39.84 228.61,-26.73"/>
<polygon fill="midnightblue" stroke="midnightblue" points="231.12,-29.18 236.01,-19.78 226.33,-24.08 231.12,-29.18"/>
</g>
<!-- Node7 -->
<g id="node5" class="node">
<title>Node7</title>
<g id="a_node5"><a xlink:href="J2DMaterial_8h.html" target="_top" xlink:title=" ">
<polygon fill="white" stroke="red" points="220,-56.5 220,-75.5 384,-75.5 384,-56.5 220,-56.5"/>
<text text-anchor="middle" x="302" y="-63.5" font-family="Helvetica,sans-Serif" font-size="10.00">JSystem/J2DGraph/J2DMaterial.h</text>
</a>
</g>
</g>
<!-- Node2&#45;&gt;Node7 -->
<g id="edge4" class="edge">
<title>Node2&#45;&gt;Node7</title>
<path fill="none" stroke="midnightblue" d="M302,-123.23C302,-112.5 302,-97.69 302,-85.96"/>
<polygon fill="midnightblue" stroke="midnightblue" points="305.5,-85.89 302,-75.89 298.5,-85.89 305.5,-85.89"/>
</g>
<!-- Node56 -->
<g id="node6" class="node">
<title>Node56</title>
<g id="a_node6"><a xlink:href="JKRArchive_8h.html" target="_top" xlink:title=" ">
<polygon fill="white" stroke="red" points="402.5,-56.5 402.5,-75.5 555.5,-75.5 555.5,-56.5 402.5,-56.5"/>
<text text-anchor="middle" x="479" y="-63.5" font-family="Helvetica,sans-Serif" font-size="10.00">JSystem/JKernel/JKRArchive.h</text>
</a>
</g>
</g>
<!-- Node2&#45;&gt;Node56 -->
<g id="edge6" class="edge">
<title>Node2&#45;&gt;Node56</title>
<path fill="none" stroke="midnightblue" d="M337.39,-123.4C369.8,-110.49 417.29,-91.58 448.17,-79.28"/>
<polygon fill="midnightblue" stroke="midnightblue" points="449.58,-82.49 457.58,-75.53 446.99,-75.98 449.58,-82.49"/>
</g>
<!-- Node3&#45;&gt;Node6 -->
<g id="edge3" class="edge">
<title>Node3&#45;&gt;Node6</title>
<path fill="none" stroke="midnightblue" d="M108.14,-56.44C136.02,-47.32 180.35,-32.81 211.4,-22.65"/>
<polygon fill="midnightblue" stroke="midnightblue" points="212.56,-25.95 220.98,-19.52 210.38,-19.3 212.56,-25.95"/>
</g>
<!-- Node7&#45;&gt;Node6 -->
<g id="edge5" class="edge">
<title>Node7&#45;&gt;Node6</title>
<path fill="none" stroke="midnightblue" d="M292.92,-56.08C284.83,-48.14 272.8,-36.34 263.09,-26.8"/>
<polygon fill="midnightblue" stroke="midnightblue" points="265.5,-24.26 255.91,-19.75 260.6,-29.25 265.5,-24.26"/>
</g>
</g>
</svg>
