<?xml version="1.0" encoding="UTF-8" standalone="no"?>
<!DOCTYPE svg PUBLIC "-//W3C//DTD SVG 1.1//EN"
 "http://www.w3.org/Graphics/SVG/1.1/DTD/svg11.dtd">
<!-- Generated by graphviz version 2.44.0 ()
 -->
<!-- Title: include/JSystem/J2DGraph/J2DMatBlock.h Pages: 1 -->
<svg width="1536pt" height="498pt"
 viewBox="0.00 0.00 1535.81 498.00" xmlns="http://www.w3.org/2000/svg" xmlns:xlink="http://www.w3.org/1999/xlink">
<g id="graph0" class="graph" transform="scale(1 1) rotate(0) translate(4 494)">
<title>include/JSystem/J2DGraph/J2DMatBlock.h</title>
<polygon fill="white" stroke="transparent" points="-4,4 -4,-494 1531.81,-494 1531.81,4 -4,4"/>
<!-- Node1 -->
<g id="node1" class="node">
<title>Node1</title>
<g id="a_node1"><a xlink:title=" ">
<polygon fill="#bfbfbf" stroke="black" points="216.5,-459.5 216.5,-489.5 351.5,-489.5 351.5,-459.5 216.5,-459.5"/>
<text text-anchor="start" x="224.5" y="-477.5" font-family="Helvetica,sans-Serif" font-size="10.00">include/JSystem/J2DGraph</text>
<text text-anchor="middle" x="284" y="-466.5" font-family="Helvetica,sans-Serif" font-size="10.00">/J2DMatBlock.h</text>
</a>
</g>
</g>
<!-- Node2 -->
<g id="node2" class="node">
<title>Node2</title>
<g id="a_node2"><a xlink:href="J2DTevs_8h.html" target="_top" xlink:title=" ">
<polygon fill="white" stroke="black" points="28.5,-291.5 28.5,-310.5 179.5,-310.5 179.5,-291.5 28.5,-291.5"/>
<text text-anchor="middle" x="104" y="-298.5" font-family="Helvetica,sans-Serif" font-size="10.00">JSystem/J2DGraph/J2DTevs.h</text>
</a>
</g>
</g>
<!-- Node1&#45;&gt;Node2 -->
<g id="edge1" class="edge">
<title>Node1&#45;&gt;Node2</title>
<path fill="none" stroke="midnightblue" d="M269.27,-459.47C236,-427.77 155.24,-350.82 120.42,-317.65"/>
<polygon fill="midnightblue" stroke="midnightblue" points="122.64,-314.92 112.98,-310.56 117.81,-319.99 122.64,-314.92"/>
</g>
<!-- Node7 -->
<g id="node7" class="node">
<title>Node7</title>
<g id="a_node7"><a xlink:href="types_8h.html" target="_top" xlink:title=" ">
<polygon fill="white" stroke="black" points="599.5,-0.5 599.5,-19.5 680.5,-19.5 680.5,-0.5 599.5,-0.5"/>
<text text-anchor="middle" x="640" y="-7.5" font-family="Helvetica,sans-Serif" font-size="10.00">dolphin/types.h</text>
</a>
</g>
</g>
<!-- Node1&#45;&gt;Node7 -->
<g id="edge51" class="edge">
<title>Node1&#45;&gt;Node7</title>
<path fill="none" stroke="midnightblue" d="M216.34,-460.04C132.33,-441.34 0,-404.51 0,-358 0,-358 0,-358 0,-132 0,-75.11 49.75,-76.02 103,-56 191.19,-22.84 473.04,-14 589.21,-11.74"/>
<polygon fill="midnightblue" stroke="midnightblue" points="589.33,-15.24 599.26,-11.56 589.2,-8.24 589.33,-15.24"/>
</g>
<!-- Node8 -->
<g id="node8" class="node">
<title>Node8</title>
<g id="a_node8"><a xlink:href="JUTResFont_8h.html" target="_top" xlink:title=" ">
<polygon fill="white" stroke="black" points="670,-403.5 670,-422.5 824,-422.5 824,-403.5 670,-403.5"/>
<text text-anchor="middle" x="747" y="-410.5" font-family="Helvetica,sans-Serif" font-size="10.00">JSystem/JUtility/JUTResFont.h</text>
</a>
</g>
</g>
<!-- Node1&#45;&gt;Node8 -->
<g id="edge13" class="edge">
<title>Node1&#45;&gt;Node8</title>
<path fill="none" stroke="midnightblue" d="M351.82,-464.78C436.71,-453.88 581.72,-435.24 670.49,-423.83"/>
<polygon fill="midnightblue" stroke="midnightblue" points="671.03,-427.29 680.5,-422.55 670.14,-420.35 671.03,-427.29"/>
</g>
<!-- Node18 -->
<g id="node18" class="node">
<title>Node18</title>
<g id="a_node18"><a xlink:href="TColor_8h.html" target="_top" xlink:title=" ">
<polygon fill="white" stroke="black" points="416.5,-291.5 416.5,-310.5 543.5,-310.5 543.5,-291.5 416.5,-291.5"/>
<text text-anchor="middle" x="480" y="-298.5" font-family="Helvetica,sans-Serif" font-size="10.00">JSystem/JUtility/TColor.h</text>
</a>
</g>
</g>
<!-- Node1&#45;&gt;Node18 -->
<g id="edge50" class="edge">
<title>Node1&#45;&gt;Node18</title>
<path fill="none" stroke="midnightblue" d="M300.04,-459.47C336.42,-427.63 424.95,-350.17 462.59,-317.23"/>
<polygon fill="midnightblue" stroke="midnightblue" points="465,-319.78 470.22,-310.56 460.39,-314.51 465,-319.78"/>
</g>
<!-- Node23 -->
<g id="node23" class="node">
<title>Node23</title>
<g id="a_node23"><a xlink:href="JUTTexture_8h.html" target="_top" xlink:title=" ">
<polygon fill="white" stroke="black" points="209.5,-347.5 209.5,-366.5 358.5,-366.5 358.5,-347.5 209.5,-347.5"/>
<text text-anchor="middle" x="284" y="-354.5" font-family="Helvetica,sans-Serif" font-size="10.00">JSystem/JUtility/JUTTexture.h</text>
</a>
</g>
</g>
<!-- Node1&#45;&gt;Node23 -->
<g id="edge45" class="edge">
<title>Node1&#45;&gt;Node23</title>
<path fill="none" stroke="midnightblue" d="M284,-459.34C284,-438.62 284,-400.02 284,-376.9"/>
<polygon fill="midnightblue" stroke="midnightblue" points="287.5,-376.67 284,-366.67 280.5,-376.67 287.5,-376.67"/>
</g>
<!-- Node3 -->
<g id="node3" class="node">
<title>Node3</title>
<g id="a_node3"><a xlink:href="mtxvec_8h.html" target="_top" xlink:title=" ">
<polygon fill="white" stroke="black" points="208,-235.5 208,-254.5 316,-254.5 316,-235.5 208,-235.5"/>
<text text-anchor="middle" x="262" y="-242.5" font-family="Helvetica,sans-Serif" font-size="10.00">dolphin/mtx/mtxvec.h</text>
</a>
</g>
</g>
<!-- Node2&#45;&gt;Node3 -->
<g id="edge2" class="edge">
<title>Node2&#45;&gt;Node3</title>
<path fill="none" stroke="midnightblue" d="M129.04,-291.44C155.62,-282.36 197.81,-267.94 227.52,-257.78"/>
<polygon fill="midnightblue" stroke="midnightblue" points="228.75,-261.06 237.08,-254.52 226.49,-254.44 228.75,-261.06"/>
</g>
<!-- Node2&#45;&gt;Node7 -->
<g id="edge12" class="edge">
<title>Node2&#45;&gt;Node7</title>
<path fill="none" stroke="midnightblue" d="M104,-291.44C104,-272.94 104,-227.81 104,-190 104,-190 104,-190 104,-132 104,-96.58 100.37,-78.17 128,-56 163.46,-27.54 466.98,-15.87 589.26,-12.3"/>
<polygon fill="midnightblue" stroke="midnightblue" points="589.58,-15.79 599.48,-12.01 589.38,-8.8 589.58,-15.79"/>
</g>
<!-- Node4 -->
<g id="node4" class="node">
<title>Node4</title>
<g id="a_node4"><a xlink:href="mtx_8h.html" target="_top" xlink:title=" ">
<polygon fill="white" stroke="black" points="304,-179.5 304,-198.5 396,-198.5 396,-179.5 304,-179.5"/>
<text text-anchor="middle" x="350" y="-186.5" font-family="Helvetica,sans-Serif" font-size="10.00">dolphin/mtx/mtx.h</text>
</a>
</g>
</g>
<!-- Node3&#45;&gt;Node4 -->
<g id="edge3" class="edge">
<title>Node3&#45;&gt;Node4</title>
<path fill="none" stroke="midnightblue" d="M276.14,-235.32C289.87,-226.9 310.94,-213.97 327.06,-204.07"/>
<polygon fill="midnightblue" stroke="midnightblue" points="329.2,-206.87 335.9,-198.65 325.54,-200.9 329.2,-206.87"/>
</g>
<!-- Node6 -->
<g id="node6" class="node">
<title>Node6</title>
<g id="a_node6"><a xlink:href="vec_8h.html" target="_top" xlink:title=" ">
<polygon fill="white" stroke="black" points="258,-62 258,-81 350,-81 350,-62 258,-62"/>
<text text-anchor="middle" x="304" y="-69" font-family="Helvetica,sans-Serif" font-size="10.00">dolphin/mtx/vec.h</text>
</a>
</g>
</g>
<!-- Node3&#45;&gt;Node6 -->
<g id="edge10" class="edge">
<title>Node3&#45;&gt;Node6</title>
<path fill="none" stroke="midnightblue" d="M264.14,-235.26C270.68,-208.54 290.53,-127.52 299.5,-90.86"/>
<polygon fill="midnightblue" stroke="midnightblue" points="302.93,-91.56 301.91,-81.02 296.14,-89.9 302.93,-91.56"/>
</g>
<!-- Node3&#45;&gt;Node7 -->
<g id="edge11" class="edge">
<title>Node3&#45;&gt;Node7</title>
<path fill="none" stroke="midnightblue" d="M257.5,-235.12C243.18,-205.42 202.19,-108.51 249,-56 271.26,-31.03 488.24,-17.93 589.03,-13.15"/>
<polygon fill="midnightblue" stroke="midnightblue" points="589.45,-16.64 599.28,-12.68 589.13,-9.64 589.45,-16.64"/>
</g>
<!-- Node5 -->
<g id="node5" class="node">
<title>Node5</title>
<g id="a_node5"><a xlink:href="quat_8h.html" target="_top" xlink:title=" ">
<polygon fill="white" stroke="black" points="322.5,-123.5 322.5,-142.5 417.5,-142.5 417.5,-123.5 322.5,-123.5"/>
<text text-anchor="middle" x="370" y="-130.5" font-family="Helvetica,sans-Serif" font-size="10.00">dolphin/mtx/quat.h</text>
</a>
</g>
</g>
<!-- Node4&#45;&gt;Node5 -->
<g id="edge4" class="edge">
<title>Node4&#45;&gt;Node5</title>
<path fill="none" stroke="midnightblue" d="M353.3,-179.08C355.98,-171.85 359.85,-161.41 363.19,-152.4"/>
<polygon fill="midnightblue" stroke="midnightblue" points="366.57,-153.34 366.76,-142.75 360,-150.91 366.57,-153.34"/>
</g>
<!-- Node4&#45;&gt;Node6 -->
<g id="edge8" class="edge">
<title>Node4&#45;&gt;Node6</title>
<path fill="none" stroke="midnightblue" d="M340.65,-179.32C332.2,-170.9 320.19,-157.33 314,-143 306.88,-126.52 304.62,-106.06 304,-91.43"/>
<polygon fill="midnightblue" stroke="midnightblue" points="307.49,-91.06 303.79,-81.14 300.49,-91.21 307.49,-91.06"/>
</g>
<!-- Node4&#45;&gt;Node7 -->
<g id="edge9" class="edge">
<title>Node4&#45;&gt;Node7</title>
<path fill="none" stroke="midnightblue" d="M371.89,-179.37C388.71,-171.84 411.58,-159.53 427,-143 456.42,-111.46 436.61,-83.3 470,-56 503.71,-28.45 552.61,-17.63 589.32,-13.45"/>
<polygon fill="midnightblue" stroke="midnightblue" points="589.73,-16.92 599.33,-12.44 589.02,-9.96 589.73,-16.92"/>
</g>
<!-- Node5&#45;&gt;Node6 -->
<g id="edge5" class="edge">
<title>Node5&#45;&gt;Node6</title>
<path fill="none" stroke="midnightblue" d="M360.54,-123.48C350.25,-114.2 333.58,-99.17 321.01,-87.83"/>
<polygon fill="midnightblue" stroke="midnightblue" points="323.21,-85.11 313.44,-81.01 318.52,-90.3 323.21,-85.11"/>
</g>
<!-- Node5&#45;&gt;Node7 -->
<g id="edge7" class="edge">
<title>Node5&#45;&gt;Node7</title>
<path fill="none" stroke="midnightblue" d="M374.46,-123.33C383.19,-107.29 404.12,-73.08 432,-56 480.08,-26.54 544.75,-16.21 589.15,-12.67"/>
<polygon fill="midnightblue" stroke="midnightblue" points="589.41,-16.17 599.14,-11.97 588.92,-9.18 589.41,-16.17"/>
</g>
<!-- Node6&#45;&gt;Node7 -->
<g id="edge6" class="edge">
<title>Node6&#45;&gt;Node7</title>
<path fill="none" stroke="midnightblue" d="M350.1,-62.1C361.2,-60.09 373.02,-57.96 384,-56 455.22,-43.29 537.63,-28.85 589.29,-19.83"/>
<polygon fill="midnightblue" stroke="midnightblue" points="589.95,-23.27 599.2,-18.1 588.74,-16.37 589.95,-23.27"/>
</g>
<!-- Node8&#45;&gt;Node7 -->
<g id="edge44" class="edge">
<title>Node8&#45;&gt;Node7</title>
<path fill="none" stroke="midnightblue" d="M753.81,-403.46C767.28,-385.69 796,-342.98 796,-302 796,-302 796,-302 796,-188 796,-119.86 767.31,-103.03 718,-56 704.04,-42.69 685.42,-31.75 669.87,-24"/>
<polygon fill="midnightblue" stroke="midnightblue" points="671.19,-20.75 660.65,-19.59 668.16,-27.06 671.19,-20.75"/>
</g>
<!-- Node9 -->
<g id="node9" class="node">
<title>Node9</title>
<g id="a_node9"><a xlink:href="JKRHeap_8h.html" target="_top" xlink:title=" ">
<polygon fill="white" stroke="black" points="979.5,-179.5 979.5,-198.5 1122.5,-198.5 1122.5,-179.5 979.5,-179.5"/>
<text text-anchor="middle" x="1051" y="-186.5" font-family="Helvetica,sans-Serif" font-size="10.00">JSystem/JKernel/JKRHeap.h</text>
</a>
</g>
</g>
<!-- Node8&#45;&gt;Node9 -->
<g id="edge14" class="edge">
<title>Node8&#45;&gt;Node9</title>
<path fill="none" stroke="midnightblue" d="M759.11,-403.42C771.82,-394.4 792.37,-379.77 810,-367 892.65,-307.14 990.47,-234.84 1031.43,-204.51"/>
<polygon fill="midnightblue" stroke="midnightblue" points="1033.55,-207.29 1039.5,-198.53 1029.38,-201.67 1033.55,-207.29"/>
</g>
<!-- Node17 -->
<g id="node17" class="node">
<title>Node17</title>
<g id="a_node17"><a xlink:href="JUTFont_8h.html" target="_top" xlink:title=" ">
<polygon fill="white" stroke="black" points="598.5,-347.5 598.5,-366.5 735.5,-366.5 735.5,-347.5 598.5,-347.5"/>
<text text-anchor="middle" x="667" y="-354.5" font-family="Helvetica,sans-Serif" font-size="10.00">JSystem/JUtility/JUTFont.h</text>
</a>
</g>
</g>
<!-- Node8&#45;&gt;Node17 -->
<g id="edge30" class="edge">
<title>Node8&#45;&gt;Node17</title>
<path fill="none" stroke="midnightblue" d="M734.15,-403.32C721.78,-394.98 702.87,-382.21 688.26,-372.35"/>
<polygon fill="midnightblue" stroke="midnightblue" points="690.07,-369.35 679.82,-366.65 686.15,-375.15 690.07,-369.35"/>
</g>
<!-- Node9&#45;&gt;Node7 -->
<g id="edge29" class="edge">
<title>Node9&#45;&gt;Node7</title>
<path fill="none" stroke="midnightblue" d="M1122.63,-183.48C1241.83,-174.28 1472.62,-148.76 1521,-87 1529.5,-76.15 1530.49,-65.99 1521,-56 1492.27,-25.76 874.2,-14.4 690.84,-11.68"/>
<polygon fill="midnightblue" stroke="midnightblue" points="690.71,-8.18 680.66,-11.54 690.6,-15.18 690.71,-8.18"/>
</g>
<!-- Node10 -->
<g id="node10" class="node">
<title>Node10</title>
<g id="a_node10"><a xlink:href="JKRDisposer_8h.html" target="_top" xlink:title=" ">
<polygon fill="white" stroke="black" points="839,-123.5 839,-142.5 997,-142.5 997,-123.5 839,-123.5"/>
<text text-anchor="middle" x="918" y="-130.5" font-family="Helvetica,sans-Serif" font-size="10.00">JSystem/JKernel/JKRDisposer.h</text>
</a>
</g>
</g>
<!-- Node9&#45;&gt;Node10 -->
<g id="edge15" class="edge">
<title>Node9&#45;&gt;Node10</title>
<path fill="none" stroke="midnightblue" d="M1029.93,-179.44C1007.94,-170.52 973.27,-156.44 948.34,-146.32"/>
<polygon fill="midnightblue" stroke="midnightblue" points="949.56,-143.04 938.98,-142.52 946.92,-149.52 949.56,-143.04"/>
</g>
<!-- Node12 -->
<g id="node12" class="node">
<title>Node12</title>
<g id="a_node12"><a xlink:href="OS_8h.html" target="_top" xlink:title=" ">
<polygon fill="white" stroke="black" points="1199,-123.5 1199,-142.5 1285,-142.5 1285,-123.5 1199,-123.5"/>
<text text-anchor="middle" x="1242" y="-130.5" font-family="Helvetica,sans-Serif" font-size="10.00">dolphin/os/OS.h</text>
</a>
</g>
</g>
<!-- Node9&#45;&gt;Node12 -->
<g id="edge19" class="edge">
<title>Node9&#45;&gt;Node12</title>
<path fill="none" stroke="midnightblue" d="M1081.26,-179.44C1113.96,-170.2 1166.18,-155.44 1202.18,-145.26"/>
<polygon fill="midnightblue" stroke="midnightblue" points="1203.21,-148.61 1211.88,-142.52 1201.3,-141.87 1203.21,-148.61"/>
</g>
<!-- Node10&#45;&gt;Node7 -->
<g id="edge18" class="edge">
<title>Node10&#45;&gt;Node7</title>
<path fill="none" stroke="midnightblue" d="M901.48,-123.34C885.1,-114.61 859.43,-100.52 838,-87 817.77,-74.23 815.55,-66.38 794,-56 761.09,-40.14 721.47,-28.72 690.66,-21.35"/>
<polygon fill="midnightblue" stroke="midnightblue" points="691.11,-17.86 680.57,-19.01 689.52,-24.68 691.11,-17.86"/>
</g>
<!-- Node11 -->
<g id="node11" class="node">
<title>Node11</title>
<g id="a_node11"><a xlink:href="JSUList_8h.html" target="_top" xlink:title=" ">
<polygon fill="white" stroke="black" points="846.5,-62 846.5,-81 989.5,-81 989.5,-62 846.5,-62"/>
<text text-anchor="middle" x="918" y="-69" font-family="Helvetica,sans-Serif" font-size="10.00">JSystem/JSupport/JSUList.h</text>
</a>
</g>
</g>
<!-- Node10&#45;&gt;Node11 -->
<g id="edge16" class="edge">
<title>Node10&#45;&gt;Node11</title>
<path fill="none" stroke="midnightblue" d="M918,-123.48C918,-115.08 918,-101.98 918,-91.16"/>
<polygon fill="midnightblue" stroke="midnightblue" points="921.5,-91.01 918,-81.01 914.5,-91.01 921.5,-91.01"/>
</g>
<!-- Node11&#45;&gt;Node7 -->
<g id="edge17" class="edge">
<title>Node11&#45;&gt;Node7</title>
<path fill="none" stroke="midnightblue" d="M878.17,-61.98C828.52,-51.35 743.65,-33.18 689.77,-21.65"/>
<polygon fill="midnightblue" stroke="midnightblue" points="690.27,-18.18 679.76,-19.51 688.8,-25.02 690.27,-18.18"/>
</g>
<!-- Node12&#45;&gt;Node7 -->
<g id="edge22" class="edge">
<title>Node12&#45;&gt;Node7</title>
<path fill="none" stroke="midnightblue" d="M1285.12,-126.73C1310.02,-121.23 1339.41,-109.98 1355,-87 1362.73,-75.6 1364.43,-66.04 1355,-56 1332.27,-31.8 849.88,-16.66 690.56,-12.3"/>
<polygon fill="midnightblue" stroke="midnightblue" points="690.63,-8.81 680.54,-12.03 690.44,-15.8 690.63,-8.81"/>
</g>
<!-- Node13 -->
<g id="node13" class="node">
<title>Node13</title>
<g id="a_node13"><a xlink:href="____va__arg_8h.html" target="_top" xlink:title=" ">
<polygon fill="white" stroke="black" points="1402,-56.5 1402,-86.5 1512,-86.5 1512,-56.5 1402,-56.5"/>
<text text-anchor="start" x="1410" y="-74.5" font-family="Helvetica,sans-Serif" font-size="10.00">Runtime.PPCEABI.H/</text>
<text text-anchor="middle" x="1457" y="-63.5" font-family="Helvetica,sans-Serif" font-size="10.00">__va_arg.h</text>
</a>
</g>
</g>
<!-- Node12&#45;&gt;Node13 -->
<g id="edge20" class="edge">
<title>Node12&#45;&gt;Node13</title>
<path fill="none" stroke="midnightblue" d="M1272.8,-123.48C1304.98,-114.57 1356.3,-100.37 1396.6,-89.22"/>
<polygon fill="midnightblue" stroke="midnightblue" points="1397.62,-92.56 1406.33,-86.52 1395.76,-85.82 1397.62,-92.56"/>
</g>
<!-- Node14 -->
<g id="node14" class="node">
<title>Node14</title>
<g id="a_node14"><a xlink:href="OSError_8h.html" target="_top" xlink:title=" ">
<polygon fill="white" stroke="black" points="1008,-62 1008,-81 1114,-81 1114,-62 1008,-62"/>
<text text-anchor="middle" x="1061" y="-69" font-family="Helvetica,sans-Serif" font-size="10.00">dolphin/os/OSError.h</text>
</a>
</g>
</g>
<!-- Node12&#45;&gt;Node14 -->
<g id="edge23" class="edge">
<title>Node12&#45;&gt;Node14</title>
<path fill="none" stroke="midnightblue" d="M1216.07,-123.48C1184.75,-113.18 1131.91,-95.81 1096.74,-84.25"/>
<polygon fill="midnightblue" stroke="midnightblue" points="1097.48,-80.81 1086.88,-81.01 1095.29,-87.46 1097.48,-80.81"/>
</g>
<!-- Node15 -->
<g id="node15" class="node">
<title>Node15</title>
<g id="a_node15"><a xlink:href="OSLink_8h.html" target="_top" xlink:title=" ">
<polygon fill="white" stroke="black" points="1132,-62 1132,-81 1236,-81 1236,-62 1132,-62"/>
<text text-anchor="middle" x="1184" y="-69" font-family="Helvetica,sans-Serif" font-size="10.00">dolphin/os/OSLink.h</text>
</a>
</g>
</g>
<!-- Node12&#45;&gt;Node15 -->
<g id="edge25" class="edge">
<title>Node12&#45;&gt;Node15</title>
<path fill="none" stroke="midnightblue" d="M1233.69,-123.48C1224.82,-114.37 1210.55,-99.74 1199.58,-88.48"/>
<polygon fill="midnightblue" stroke="midnightblue" points="1201.78,-85.73 1192.29,-81.01 1196.77,-90.61 1201.78,-85.73"/>
</g>
<!-- Node16 -->
<g id="node16" class="node">
<title>Node16</title>
<g id="a_node16"><a xlink:href="dvd_8h.html" target="_top" xlink:title=" ">
<polygon fill="white" stroke="black" points="1254,-62 1254,-81 1346,-81 1346,-62 1254,-62"/>
<text text-anchor="middle" x="1300" y="-69" font-family="Helvetica,sans-Serif" font-size="10.00">dolphin/dvd/dvd.h</text>
</a>
</g>
</g>
<!-- Node12&#45;&gt;Node16 -->
<g id="edge27" class="edge">
<title>Node12&#45;&gt;Node16</title>
<path fill="none" stroke="midnightblue" d="M1250.31,-123.48C1259.18,-114.37 1273.45,-99.74 1284.42,-88.48"/>
<polygon fill="midnightblue" stroke="midnightblue" points="1287.23,-90.61 1291.71,-81.01 1282.22,-85.73 1287.23,-90.61"/>
</g>
<!-- Node13&#45;&gt;Node7 -->
<g id="edge21" class="edge">
<title>Node13&#45;&gt;Node7</title>
<path fill="none" stroke="midnightblue" d="M1401.76,-58.15C1397.12,-57.34 1392.49,-56.6 1388,-56 1127.41,-20.97 812.06,-13.2 690.84,-11.49"/>
<polygon fill="midnightblue" stroke="midnightblue" points="690.79,-7.99 680.74,-11.35 690.7,-14.98 690.79,-7.99"/>
</g>
<!-- Node14&#45;&gt;Node7 -->
<g id="edge24" class="edge">
<title>Node14&#45;&gt;Node7</title>
<path fill="none" stroke="midnightblue" d="M1027.35,-61.95C1018.19,-59.81 1008.25,-57.66 999,-56 889.91,-36.46 760.66,-22.48 690.86,-15.68"/>
<polygon fill="midnightblue" stroke="midnightblue" points="690.88,-12.16 680.59,-14.69 690.21,-19.13 690.88,-12.16"/>
</g>
<!-- Node15&#45;&gt;Node7 -->
<g id="edge26" class="edge">
<title>Node15&#45;&gt;Node7</title>
<path fill="none" stroke="midnightblue" d="M1151.88,-61.97C1142.61,-59.76 1132.45,-57.56 1123,-56 966.53,-30.24 778.93,-18.03 690.65,-13.37"/>
<polygon fill="midnightblue" stroke="midnightblue" points="690.8,-9.88 680.64,-12.86 690.44,-16.87 690.8,-9.88"/>
</g>
<!-- Node16&#45;&gt;Node7 -->
<g id="edge28" class="edge">
<title>Node16&#45;&gt;Node7</title>
<path fill="none" stroke="midnightblue" d="M1271.67,-61.97C1263.17,-59.7 1253.77,-57.47 1245,-56 1041.63,-21.93 795.49,-13.65 690.93,-11.64"/>
<polygon fill="midnightblue" stroke="midnightblue" points="690.73,-8.14 680.66,-11.46 690.6,-15.14 690.73,-8.14"/>
</g>
<!-- Node17&#45;&gt;Node7 -->
<g id="edge43" class="edge">
<title>Node17&#45;&gt;Node7</title>
<path fill="none" stroke="midnightblue" d="M681.62,-347.48C707.34,-331.27 758,-293.34 758,-246 758,-246 758,-246 758,-188 758,-122.41 732.24,-107.79 692,-56 683.07,-44.51 670.86,-33.76 660.51,-25.65"/>
<polygon fill="midnightblue" stroke="midnightblue" points="662.46,-22.74 652.37,-19.5 658.24,-28.32 662.46,-22.74"/>
</g>
<!-- Node17&#45;&gt;Node18 -->
<g id="edge31" class="edge">
<title>Node17&#45;&gt;Node18</title>
<path fill="none" stroke="midnightblue" d="M637.37,-347.44C605.5,-338.24 554.67,-323.56 519.44,-313.39"/>
<polygon fill="midnightblue" stroke="midnightblue" points="520.07,-309.93 509.49,-310.52 518.13,-316.65 520.07,-309.93"/>
</g>
<!-- Node19 -->
<g id="node19" class="node">
<title>Node19</title>
<g id="a_node19"><a xlink:href="GX_8h.html" target="_top" xlink:title=" ">
<polygon fill="white" stroke="black" points="483.5,-235.5 483.5,-254.5 568.5,-254.5 568.5,-235.5 483.5,-235.5"/>
<text text-anchor="middle" x="526" y="-242.5" font-family="Helvetica,sans-Serif" font-size="10.00">dolphin/gx/GX.h</text>
</a>
</g>
</g>
<!-- Node17&#45;&gt;Node19 -->
<g id="edge42" class="edge">
<title>Node17&#45;&gt;Node19</title>
<path fill="none" stroke="midnightblue" d="M655.94,-347.37C631.95,-328.65 574.9,-284.15 545.01,-260.83"/>
<polygon fill="midnightblue" stroke="midnightblue" points="547.05,-257.98 537.01,-254.59 542.74,-263.5 547.05,-257.98"/>
</g>
<!-- Node18&#45;&gt;Node7 -->
<g id="edge41" class="edge">
<title>Node18&#45;&gt;Node7</title>
<path fill="none" stroke="midnightblue" d="M478.76,-291.4C477.52,-282.36 475.7,-267.71 475,-255 473.94,-235.92 474.53,-186.39 476,-179 481.21,-152.77 485.71,-146.75 498,-123 514.38,-91.36 514.99,-79.22 542,-56 559.25,-41.17 582.19,-30.29 601.54,-22.94"/>
<polygon fill="midnightblue" stroke="midnightblue" points="602.79,-26.21 611,-19.51 600.41,-19.63 602.79,-26.21"/>
</g>
<!-- Node18&#45;&gt;Node19 -->
<g id="edge32" class="edge">
<title>Node18&#45;&gt;Node19</title>
<path fill="none" stroke="midnightblue" d="M487.6,-291.08C494.23,-283.3 504.02,-271.8 512.06,-262.37"/>
<polygon fill="midnightblue" stroke="midnightblue" points="514.73,-264.63 518.55,-254.75 509.4,-260.09 514.73,-264.63"/>
</g>
<!-- Node19&#45;&gt;Node4 -->
<g id="edge35" class="edge">
<title>Node19&#45;&gt;Node4</title>
<path fill="none" stroke="midnightblue" d="M498.11,-235.44C468.25,-226.28 420.69,-211.69 387.54,-201.52"/>
<polygon fill="midnightblue" stroke="midnightblue" points="388.34,-198.1 377.76,-198.52 386.29,-204.8 388.34,-198.1"/>
</g>
<!-- Node19&#45;&gt;Node7 -->
<g id="edge38" class="edge">
<title>Node19&#45;&gt;Node7</title>
<path fill="none" stroke="midnightblue" d="M513.26,-235.48C497.39,-223.7 473.34,-201.37 482,-179 509.18,-108.78 581.69,-51.07 618.27,-25.38"/>
<polygon fill="midnightblue" stroke="midnightblue" points="620.48,-28.1 626.74,-19.55 616.52,-22.33 620.48,-28.1"/>
</g>
<!-- Node20 -->
<g id="node20" class="node">
<title>Node20</title>
<g id="a_node20"><a xlink:href="GXDisplayList_8h.html" target="_top" xlink:title=" ">
<polygon fill="white" stroke="black" points="490.5,-179.5 490.5,-198.5 623.5,-198.5 623.5,-179.5 490.5,-179.5"/>
<text text-anchor="middle" x="557" y="-186.5" font-family="Helvetica,sans-Serif" font-size="10.00">dolphin/gx/GXDisplayList.h</text>
</a>
</g>
</g>
<!-- Node19&#45;&gt;Node20 -->
<g id="edge33" class="edge">
<title>Node19&#45;&gt;Node20</title>
<path fill="none" stroke="midnightblue" d="M531.12,-235.08C535.41,-227.61 541.66,-216.72 546.94,-207.52"/>
<polygon fill="midnightblue" stroke="midnightblue" points="550.03,-209.17 551.98,-198.75 543.96,-205.68 550.03,-209.17"/>
</g>
<!-- Node21 -->
<g id="node21" class="node">
<title>Node21</title>
<g id="a_node21"><a xlink:href="mtx44_8h.html" target="_top" xlink:title=" ">
<polygon fill="white" stroke="black" points="588.5,-123.5 588.5,-142.5 691.5,-142.5 691.5,-123.5 588.5,-123.5"/>
<text text-anchor="middle" x="640" y="-130.5" font-family="Helvetica,sans-Serif" font-size="10.00">dolphin/mtx/mtx44.h</text>
</a>
</g>
</g>
<!-- Node19&#45;&gt;Node21 -->
<g id="edge36" class="edge">
<title>Node19&#45;&gt;Node21</title>
<path fill="none" stroke="midnightblue" d="M568.75,-236.8C591.47,-230.68 617.78,-219.45 633,-199 642.84,-185.78 643.77,-166.65 642.73,-152.56"/>
<polygon fill="midnightblue" stroke="midnightblue" points="646.2,-152.11 641.61,-142.56 639.25,-152.89 646.2,-152.11"/>
</g>
<!-- Node22 -->
<g id="node22" class="node">
<title>Node22</title>
<g id="a_node22"><a xlink:href="global_8h.html" target="_top" xlink:title=" ">
<polygon fill="white" stroke="black" points="680,-179.5 680,-198.5 730,-198.5 730,-179.5 680,-179.5"/>
<text text-anchor="middle" x="705" y="-186.5" font-family="Helvetica,sans-Serif" font-size="10.00">global.h</text>
</a>
</g>
</g>
<!-- Node19&#45;&gt;Node22 -->
<g id="edge39" class="edge">
<title>Node19&#45;&gt;Node22</title>
<path fill="none" stroke="midnightblue" d="M554.36,-235.44C585.72,-225.98 636.26,-210.74 670.04,-200.55"/>
<polygon fill="midnightblue" stroke="midnightblue" points="671.38,-203.8 679.95,-197.56 669.36,-197.1 671.38,-203.8"/>
</g>
<!-- Node20&#45;&gt;Node7 -->
<g id="edge34" class="edge">
<title>Node20&#45;&gt;Node7</title>
<path fill="none" stroke="midnightblue" d="M559.58,-179.43C563.46,-166.84 571.29,-142.71 580,-123 595.23,-88.53 616.85,-50.19 629.55,-28.49"/>
<polygon fill="midnightblue" stroke="midnightblue" points="632.63,-30.16 634.71,-19.77 626.61,-26.6 632.63,-30.16"/>
</g>
<!-- Node21&#45;&gt;Node7 -->
<g id="edge37" class="edge">
<title>Node21&#45;&gt;Node7</title>
<path fill="none" stroke="midnightblue" d="M640,-123.3C640,-103.85 640,-56.49 640,-29.9"/>
<polygon fill="midnightblue" stroke="midnightblue" points="643.5,-29.62 640,-19.62 636.5,-29.62 643.5,-29.62"/>
</g>
<!-- Node22&#45;&gt;Node7 -->
<g id="edge40" class="edge">
<title>Node22&#45;&gt;Node7</title>
<path fill="none" stroke="midnightblue" d="M705.64,-179.39C706.32,-166.75 706.63,-142.56 701,-123 690.55,-86.67 666.91,-48.98 652.32,-27.91"/>
<polygon fill="midnightblue" stroke="midnightblue" points="655.14,-25.84 646.5,-19.7 649.43,-29.88 655.14,-25.84"/>
</g>
<!-- Node23&#45;&gt;Node7 -->
<g id="edge49" class="edge">
<title>Node23&#45;&gt;Node7</title>
<path fill="none" stroke="midnightblue" d="M267.99,-347.34C230.85,-325.97 142,-266.8 142,-190 142,-190 142,-190 142,-132 142,-92.52 154.61,-77.07 188,-56 253.61,-14.6 485.34,-10.26 589.1,-10.46"/>
<polygon fill="midnightblue" stroke="midnightblue" points="589.32,-13.96 599.33,-10.5 589.34,-6.96 589.32,-13.96"/>
</g>
<!-- Node24 -->
<g id="node24" class="node">
<title>Node24</title>
<g id="a_node24"><a xlink:href="JUTPalette_8h.html" target="_top" xlink:title=" ">
<polygon fill="white" stroke="black" points="236,-291.5 236,-310.5 384,-310.5 384,-291.5 236,-291.5"/>
<text text-anchor="middle" x="310" y="-298.5" font-family="Helvetica,sans-Serif" font-size="10.00">JSystem/JUtility/JUTPalette.h</text>
</a>
</g>
</g>
<!-- Node23&#45;&gt;Node24 -->
<g id="edge46" class="edge">
<title>Node23&#45;&gt;Node24</title>
<path fill="none" stroke="midnightblue" d="M288.29,-347.08C291.85,-339.69 297.02,-328.95 301.42,-319.81"/>
<polygon fill="midnightblue" stroke="midnightblue" points="304.6,-321.28 305.79,-310.75 298.29,-318.24 304.6,-321.28"/>
</g>
<!-- Node24&#45;&gt;Node7 -->
<g id="edge48" class="edge">
<title>Node24&#45;&gt;Node7</title>
<path fill="none" stroke="midnightblue" d="M264.86,-291.47C242.23,-285.01 216.08,-273.9 199,-255 178.82,-232.67 180,-220.1 180,-190 180,-190 180,-190 180,-132 180,-91.81 194.81,-77.13 229,-56 288.13,-19.45 493.07,-12.45 589.32,-11.2"/>
<polygon fill="midnightblue" stroke="midnightblue" points="589.44,-14.7 599.4,-11.09 589.36,-7.7 589.44,-14.7"/>
</g>
<!-- Node24&#45;&gt;Node19 -->
<g id="edge47" class="edge">
<title>Node24&#45;&gt;Node19</title>
<path fill="none" stroke="midnightblue" d="M344.23,-291.44C381.51,-282.12 441.27,-267.18 482.01,-257"/>
<polygon fill="midnightblue" stroke="midnightblue" points="483.08,-260.34 491.93,-254.52 481.38,-253.55 483.08,-260.34"/>
</g>
</g>
</svg>
