<?xml version="1.0" encoding="UTF-8" standalone="no"?>
<!DOCTYPE svg PUBLIC "-//W3C//DTD SVG 1.1//EN"
 "http://www.w3.org/Graphics/SVG/1.1/DTD/svg11.dtd">
<!-- Generated by graphviz version 2.44.0 ()
 -->
<!-- Title: libs/JSystem/J2DGraph/J2DPrint.cpp Pages: 1 -->
<!--zoomable 184 -->
<svg id="main" version="1.1" xmlns="http://www.w3.org/2000/svg" xmlns:xlink="http://www.w3.org/1999/xlink" xml:space="preserve" onload="init(evt)">
<style type="text/css"><![CDATA[
.edge:hover path { stroke: red; }
.edge:hover polygon { stroke: red; fill: red; }
]]></style>
<script type="text/javascript"><![CDATA[
var edges = document.getElementsByTagName('g');
if (edges && edges.length) {
  for (var i=0;i<edges.length;i++) {
    if (edges[i].id.substr(0,4)=='edge') {
      edges[i].setAttribute('class','edge');
    }
  }
}
]]></script>
        <defs>
                <circle id="rim" cx="0" cy="0" r="7"/>
                <circle id="rim2" cx="0" cy="0" r="3.5"/>
                <g id="zoomPlus">
                        <use xlink:href="#rim" fill="#404040">
                                <set attributeName="fill" to="#808080" begin="zoomplus.mouseover" end="zoomplus.mouseout"/>
                        </use>
                        <path d="M-4,0h8M0,-4v8" fill="none" stroke="white" stroke-width="1.5" pointer-events="none"/>
                </g>
                <g id="zoomMin">
                        <use xlink:href="#rim" fill="#404040">
                                <set attributeName="fill" to="#808080" begin="zoomminus.mouseover" end="zoomminus.mouseout"/>
                        </use>
                        <path d="M-4,0h8" fill="none" stroke="white" stroke-width="1.5" pointer-events="none"/>
                </g>
                <g id="dirArrow">
                        <path fill="none" stroke="white" stroke-width="1.5" d="M0,-3.0v7 M-2.5,-0.5L0,-3.0L2.5,-0.5"/>
                </g>
               <g id="resetDef">
                       <use xlink:href="#rim2" fill="#404040">
                               <set attributeName="fill" to="#808080" begin="reset.mouseover" end="reset.mouseout"/>
                       </use>
               </g>
        </defs>

<script type="text/javascript">
var viewWidth = 2644;
var viewHeight = 184;
var sectionId = 'dynsection-0';
</script>
<script xlink:href="svgpan.js"/>
<svg id="graph" class="graph">
<g id="viewport">
<title>libs/JSystem/J2DGraph/J2DPrint.cpp</title>
<polygon fill="white" stroke="transparent" points="-4,4 -4,-180 2640,-180 2640,4 -4,4"/>
<!-- Node1 -->
<g id="node1" class="node">
<title>Node1</title>
<g id="a_node1"><a xlink:title=" ">
<polygon fill="#bfbfbf" stroke="black" points="1118,-145.5 1118,-175.5 1237,-175.5 1237,-145.5 1118,-145.5"/>
<text text-anchor="start" x="1126" y="-163.5" font-family="Helvetica,sans-Serif" font-size="10.00">libs/JSystem/J2DGraph</text>
<text text-anchor="middle" x="1177.5" y="-152.5" font-family="Helvetica,sans-Serif" font-size="10.00">/J2DPrint.cpp</text>
</a>
</g>
</g>
<!-- Node2 -->
<g id="node2" class="node">
<title>Node2</title>
<g id="a_node2"><a xlink:href="J2DPrint_8h.html" target="_top" xlink:title=" ">
<polygon fill="white" stroke="black" points="0,-73 0,-92 149,-92 149,-73 0,-73"/>
<text text-anchor="middle" x="74.5" y="-80" font-family="Helvetica,sans-Serif" font-size="10.00">JSystem/J2DGraph/J2DPrint.h</text>
</a>
</g>
</g>
<!-- Node1&#45;&gt;Node2 -->
<g id="edge1" class="edge">
<title>Node1&#45;&gt;Node2</title>
<path fill="none" stroke="midnightblue" d="M1117.89,-158.35C929.46,-154.43 348.15,-140.08 162.5,-109 144.18,-105.93 124.27,-100.36 108.02,-95.2"/>
<polygon fill="midnightblue" stroke="midnightblue" points="109.02,-91.85 98.43,-92.07 106.85,-98.5 109.02,-91.85"/>
</g>
<!-- Node3 -->
<g id="node3" class="node">
<title>Node3</title>
<g id="a_node3"><a xlink:href="types_8h.html" target="_top" xlink:title=" ">
<polygon fill="white" stroke="black" points="85,-0.5 85,-19.5 166,-19.5 166,-0.5 85,-0.5"/>
<text text-anchor="middle" x="125.5" y="-7.5" font-family="Helvetica,sans-Serif" font-size="10.00">dolphin/types.h</text>
</a>
</g>
</g>
<!-- Node1&#45;&gt;Node3 -->
<g id="edge4" class="edge">
<title>Node1&#45;&gt;Node3</title>
<path fill="none" stroke="midnightblue" d="M1117.67,-159.4C917.2,-158.66 277.23,-152.86 196.5,-109 195.42,-108.41 157.72,-55.96 137.71,-28.05"/>
<polygon fill="midnightblue" stroke="midnightblue" points="140.35,-25.72 131.68,-19.63 134.66,-29.8 140.35,-25.72"/>
</g>
<!-- Node4 -->
<g id="node4" class="node">
<title>Node4</title>
<g id="a_node4"><a xlink:href="dol2asm_8h.html" target="_top" xlink:title=" ">
<polygon fill="white" stroke="black" points="205,-73 205,-92 266,-92 266,-73 205,-73"/>
<text text-anchor="middle" x="235.5" y="-80" font-family="Helvetica,sans-Serif" font-size="10.00">dol2asm.h</text>
</a>
</g>
</g>
<!-- Node1&#45;&gt;Node4 -->
<g id="edge3" class="edge">
<title>Node1&#45;&gt;Node4</title>
<path fill="none" stroke="midnightblue" d="M1117.97,-160.07C943.03,-161.15 432.9,-159.72 275.5,-109 268.02,-106.59 260.56,-102.43 254.14,-98.17"/>
<polygon fill="midnightblue" stroke="midnightblue" points="255.77,-95.03 245.61,-92.03 251.69,-100.71 255.77,-95.03"/>
</g>
<!-- Node5 -->
<g id="node5" class="node">
<title>Node5</title>
<g id="a_node5"><a xlink:title=" ">
<polygon fill="white" stroke="#bfbfbf" points="284,-62 284,-103 407,-103 407,-62 284,-62"/>
<text text-anchor="start" x="292" y="-91" font-family="Helvetica,sans-Serif" font-size="10.00">asm/JSystem/J2DGraph</text>
<text text-anchor="start" x="292" y="-80" font-family="Helvetica,sans-Serif" font-size="10.00">/J2DPrint/J2DPrint_print</text>
<text text-anchor="middle" x="345.5" y="-69" font-family="Helvetica,sans-Serif" font-size="10.00">_alpha_va.s</text>
</a>
</g>
</g>
<!-- Node1&#45;&gt;Node5 -->
<g id="edge5" class="edge">
<title>Node1&#45;&gt;Node5</title>
<path fill="none" stroke="midnightblue" d="M1117.88,-157.69C962.92,-152.63 550.25,-136.88 416.5,-109 412.39,-108.14 408.19,-107.1 404,-105.93"/>
<polygon fill="midnightblue" stroke="midnightblue" points="404.84,-102.53 394.26,-103.01 402.83,-109.24 404.84,-102.53"/>
</g>
<!-- Node6 -->
<g id="node6" class="node">
<title>Node6</title>
<g id="a_node6"><a xlink:title=" ">
<polygon fill="white" stroke="#bfbfbf" points="425.5,-67.5 425.5,-97.5 559.5,-97.5 559.5,-67.5 425.5,-67.5"/>
<text text-anchor="start" x="433.5" y="-85.5" font-family="Helvetica,sans-Serif" font-size="10.00">asm/JSystem/J2DGraph</text>
<text text-anchor="middle" x="492.5" y="-74.5" font-family="Helvetica,sans-Serif" font-size="10.00">/J2DPrint/func_802F4394.s</text>
</a>
</g>
</g>
<!-- Node1&#45;&gt;Node6 -->
<g id="edge6" class="edge">
<title>Node1&#45;&gt;Node6</title>
<path fill="none" stroke="midnightblue" d="M1117.72,-159.2C1007.97,-157.63 767.46,-149.4 569.5,-109 559.46,-106.95 548.91,-104.01 538.95,-100.84"/>
<polygon fill="midnightblue" stroke="midnightblue" points="539.82,-97.44 529.22,-97.63 537.62,-104.09 539.82,-97.44"/>
</g>
<!-- Node7 -->
<g id="node7" class="node">
<title>Node7</title>
<g id="a_node7"><a xlink:title=" ">
<polygon fill="white" stroke="#bfbfbf" points="578,-67.5 578,-97.5 729,-97.5 729,-67.5 578,-67.5"/>
<text text-anchor="start" x="586" y="-85.5" font-family="Helvetica,sans-Serif" font-size="10.00">asm/JSystem/J2DGraph</text>
<text text-anchor="middle" x="653.5" y="-74.5" font-family="Helvetica,sans-Serif" font-size="10.00">/J2DPrint/__dt__8J2DPrintFv.s</text>
</a>
</g>
</g>
<!-- Node1&#45;&gt;Node7 -->
<g id="edge7" class="edge">
<title>Node1&#45;&gt;Node7</title>
<path fill="none" stroke="midnightblue" d="M1117.68,-155.98C1032.69,-150.23 872.44,-136.57 738.5,-109 727.52,-106.74 715.92,-103.71 704.94,-100.52"/>
<polygon fill="midnightblue" stroke="midnightblue" points="705.64,-97.08 695.06,-97.57 703.64,-103.79 705.64,-97.08"/>
</g>
<!-- Node8 -->
<g id="node8" class="node">
<title>Node8</title>
<g id="a_node8"><a xlink:title=" ">
<polygon fill="white" stroke="#bfbfbf" points="747.5,-67.5 747.5,-97.5 881.5,-97.5 881.5,-67.5 747.5,-67.5"/>
<text text-anchor="start" x="755.5" y="-85.5" font-family="Helvetica,sans-Serif" font-size="10.00">asm/JSystem/J2DGraph</text>
<text text-anchor="middle" x="814.5" y="-74.5" font-family="Helvetica,sans-Serif" font-size="10.00">/J2DPrint/func_802F4468.s</text>
</a>
</g>
</g>
<!-- Node1&#45;&gt;Node8 -->
<g id="edge8" class="edge">
<title>Node1&#45;&gt;Node8</title>
<path fill="none" stroke="midnightblue" d="M1117.81,-151.54C1059.58,-143.17 968.74,-128.5 891.5,-109 882.18,-106.65 872.35,-103.73 862.95,-100.73"/>
<polygon fill="midnightblue" stroke="midnightblue" points="863.94,-97.37 853.35,-97.58 861.76,-104.02 863.94,-97.37"/>
</g>
<!-- Node9 -->
<g id="node9" class="node">
<title>Node9</title>
<g id="a_node9"><a xlink:title=" ">
<polygon fill="white" stroke="#bfbfbf" points="900,-62 900,-103 1023,-103 1023,-62 900,-62"/>
<text text-anchor="start" x="908" y="-91" font-family="Helvetica,sans-Serif" font-size="10.00">asm/JSystem/J2DGraph</text>
<text text-anchor="start" x="908" y="-80" font-family="Helvetica,sans-Serif" font-size="10.00">/J2DPrint/setBuffer_</text>
<text text-anchor="middle" x="961.5" y="-69" font-family="Helvetica,sans-Serif" font-size="10.00">_8J2DPrintFUl.s</text>
</a>
</g>
</g>
<!-- Node1&#45;&gt;Node9 -->
<g id="edge9" class="edge">
<title>Node1&#45;&gt;Node9</title>
<path fill="none" stroke="midnightblue" d="M1136.84,-145.46C1107.75,-135.38 1067.68,-121.44 1032.5,-109 1030.12,-108.16 1027.7,-107.3 1025.26,-106.43"/>
<polygon fill="midnightblue" stroke="midnightblue" points="1026.35,-103.1 1015.75,-103.05 1024,-109.7 1026.35,-103.1"/>
</g>
<!-- Node10 -->
<g id="node10" class="node">
<title>Node10</title>
<g id="a_node10"><a xlink:title=" ">
<polygon fill="white" stroke="#bfbfbf" points="1041,-62 1041,-103 1164,-103 1164,-62 1041,-62"/>
<text text-anchor="start" x="1049" y="-91" font-family="Helvetica,sans-Serif" font-size="10.00">asm/JSystem/J2DGraph</text>
<text text-anchor="start" x="1049" y="-80" font-family="Helvetica,sans-Serif" font-size="10.00">/J2DPrint/setFontSize</text>
<text text-anchor="middle" x="1102.5" y="-69" font-family="Helvetica,sans-Serif" font-size="10.00">__8J2DPrintFv.s</text>
</a>
</g>
</g>
<!-- Node1&#45;&gt;Node10 -->
<g id="edge10" class="edge">
<title>Node1&#45;&gt;Node10</title>
<path fill="none" stroke="midnightblue" d="M1163.39,-145.2C1153.79,-135.47 1140.77,-122.28 1129.23,-110.59"/>
<polygon fill="midnightblue" stroke="midnightblue" points="1131.44,-107.84 1121.92,-103.18 1126.45,-112.76 1131.44,-107.84"/>
</g>
<!-- Node11 -->
<g id="node11" class="node">
<title>Node11</title>
<g id="a_node11"><a xlink:title=" ">
<polygon fill="white" stroke="#bfbfbf" points="1182.5,-62 1182.5,-103 1322.5,-103 1322.5,-62 1182.5,-62"/>
<text text-anchor="start" x="1190.5" y="-91" font-family="Helvetica,sans-Serif" font-size="10.00">asm/JSystem/J2DGraph</text>
<text text-anchor="start" x="1190.5" y="-80" font-family="Helvetica,sans-Serif" font-size="10.00">/J2DPrint/locate__8J2DPrint</text>
<text text-anchor="middle" x="1252.5" y="-69" font-family="Helvetica,sans-Serif" font-size="10.00">Fff.s</text>
</a>
</g>
</g>
<!-- Node1&#45;&gt;Node11 -->
<g id="edge11" class="edge">
<title>Node1&#45;&gt;Node11</title>
<path fill="none" stroke="midnightblue" d="M1191.61,-145.2C1201.21,-135.47 1214.23,-122.28 1225.77,-110.59"/>
<polygon fill="midnightblue" stroke="midnightblue" points="1228.55,-112.76 1233.08,-103.18 1223.56,-107.84 1228.55,-112.76"/>
</g>
<!-- Node12 -->
<g id="node12" class="node">
<title>Node12</title>
<g id="a_node12"><a xlink:title=" ">
<polygon fill="white" stroke="#bfbfbf" points="1341,-62 1341,-103 1484,-103 1484,-62 1341,-62"/>
<text text-anchor="start" x="1349" y="-91" font-family="Helvetica,sans-Serif" font-size="10.00">asm/JSystem/J2DGraph</text>
<text text-anchor="start" x="1349" y="-80" font-family="Helvetica,sans-Serif" font-size="10.00">/J2DPrint/print__8J2DPrintFff</text>
<text text-anchor="middle" x="1412.5" y="-69" font-family="Helvetica,sans-Serif" font-size="10.00">UcPCce.s</text>
</a>
</g>
</g>
<!-- Node1&#45;&gt;Node12 -->
<g id="edge12" class="edge">
<title>Node1&#45;&gt;Node12</title>
<path fill="none" stroke="midnightblue" d="M1220.88,-145.47C1254.94,-134.46 1303.04,-118.9 1342.53,-106.13"/>
<polygon fill="midnightblue" stroke="midnightblue" points="1343.67,-109.44 1352.11,-103.03 1341.52,-102.78 1343.67,-109.44"/>
</g>
<!-- Node13 -->
<g id="node13" class="node">
<title>Node13</title>
<g id="a_node13"><a xlink:title=" ">
<polygon fill="white" stroke="#bfbfbf" points="1502.5,-56.5 1502.5,-108.5 1686.5,-108.5 1686.5,-56.5 1502.5,-56.5"/>
<text text-anchor="start" x="1510.5" y="-96.5" font-family="Helvetica,sans-Serif" font-size="10.00">asm/JSystem/J2DGraph</text>
<text text-anchor="start" x="1510.5" y="-85.5" font-family="Helvetica,sans-Serif" font-size="10.00">/J2DPrint/printReturn</text>
<text text-anchor="start" x="1510.5" y="-74.5" font-family="Helvetica,sans-Serif" font-size="10.00">__8J2DPrintFPCcff18J2DTextBox</text>
<text text-anchor="middle" x="1594.5" y="-63.5" font-family="Helvetica,sans-Serif" font-size="10.00">HBinding18J2DTextBoxVBindingffUc.s</text>
</a>
</g>
</g>
<!-- Node1&#45;&gt;Node13 -->
<g id="edge13" class="edge">
<title>Node1&#45;&gt;Node13</title>
<path fill="none" stroke="midnightblue" d="M1237.19,-151.57C1298.76,-143.03 1397.75,-128.3 1492.35,-109.16"/>
<polygon fill="midnightblue" stroke="midnightblue" points="1493.28,-112.55 1502.38,-107.12 1491.88,-105.69 1493.28,-112.55"/>
</g>
<!-- Node14 -->
<g id="node14" class="node">
<title>Node14</title>
<g id="a_node14"><a xlink:title=" ">
<polygon fill="white" stroke="#bfbfbf" points="1704.5,-62 1704.5,-103 1878.5,-103 1878.5,-62 1704.5,-62"/>
<text text-anchor="start" x="1712.5" y="-91" font-family="Helvetica,sans-Serif" font-size="10.00">asm/JSystem/J2DGraph</text>
<text text-anchor="start" x="1712.5" y="-80" font-family="Helvetica,sans-Serif" font-size="10.00">/J2DPrint/parse__8J2DPrintFPCUcii</text>
<text text-anchor="middle" x="1791.5" y="-69" font-family="Helvetica,sans-Serif" font-size="10.00">PUsRQ28J2DPrint5TSizeUcb.s</text>
</a>
</g>
</g>
<!-- Node1&#45;&gt;Node14 -->
<g id="edge14" class="edge">
<title>Node1&#45;&gt;Node14</title>
<path fill="none" stroke="midnightblue" d="M1237.36,-156.83C1334.27,-151.79 1531.22,-138.62 1695.5,-109 1701.32,-107.95 1707.3,-106.73 1713.29,-105.39"/>
<polygon fill="midnightblue" stroke="midnightblue" points="1714.42,-108.72 1723.37,-103.05 1712.84,-101.9 1714.42,-108.72"/>
</g>
<!-- Node15 -->
<g id="node15" class="node">
<title>Node15</title>
<g id="a_node15"><a xlink:title=" ">
<polygon fill="white" stroke="#bfbfbf" points="1897,-62 1897,-103 2020,-103 2020,-62 1897,-62"/>
<text text-anchor="start" x="1905" y="-91" font-family="Helvetica,sans-Serif" font-size="10.00">asm/JSystem/J2DGraph</text>
<text text-anchor="start" x="1905" y="-80" font-family="Helvetica,sans-Serif" font-size="10.00">/J2DPrint/doCtrlCode</text>
<text text-anchor="middle" x="1958.5" y="-69" font-family="Helvetica,sans-Serif" font-size="10.00">__8J2DPrintFi.s</text>
</a>
</g>
</g>
<!-- Node1&#45;&gt;Node15 -->
<g id="edge15" class="edge">
<title>Node1&#45;&gt;Node15</title>
<path fill="none" stroke="midnightblue" d="M1237.13,-157.36C1384.69,-151.72 1763.87,-135.08 1887.5,-109 1891.42,-108.17 1895.43,-107.18 1899.43,-106.07"/>
<polygon fill="midnightblue" stroke="midnightblue" points="1900.77,-109.32 1909.35,-103.1 1898.76,-102.61 1900.77,-109.32"/>
</g>
<!-- Node16 -->
<g id="node16" class="node">
<title>Node16</title>
<g id="a_node16"><a xlink:title=" ">
<polygon fill="white" stroke="#bfbfbf" points="2038,-62 2038,-103 2167,-103 2167,-62 2038,-62"/>
<text text-anchor="start" x="2046" y="-91" font-family="Helvetica,sans-Serif" font-size="10.00">asm/JSystem/J2DGraph</text>
<text text-anchor="start" x="2046" y="-80" font-family="Helvetica,sans-Serif" font-size="10.00">/J2DPrint/doEscapeCode</text>
<text text-anchor="middle" x="2102.5" y="-69" font-family="Helvetica,sans-Serif" font-size="10.00">__8J2DPrintFPPCUcUc.s</text>
</a>
</g>
</g>
<!-- Node1&#45;&gt;Node16 -->
<g id="edge16" class="edge">
<title>Node1&#45;&gt;Node16</title>
<path fill="none" stroke="midnightblue" d="M1237.15,-158.11C1404.75,-153.86 1877.49,-139.44 2029.5,-109 2033.84,-108.13 2038.27,-107.06 2042.7,-105.86"/>
<polygon fill="midnightblue" stroke="midnightblue" points="2043.73,-109.21 2052.35,-103.05 2041.77,-102.49 2043.73,-109.21"/>
</g>
<!-- Node17 -->
<g id="node17" class="node">
<title>Node17</title>
<g id="a_node17"><a xlink:title=" ">
<polygon fill="white" stroke="#bfbfbf" points="2185.5,-67.5 2185.5,-97.5 2349.5,-97.5 2349.5,-67.5 2185.5,-67.5"/>
<text text-anchor="start" x="2193.5" y="-85.5" font-family="Helvetica,sans-Serif" font-size="10.00">asm/JSystem/J2DGraph</text>
<text text-anchor="middle" x="2267.5" y="-74.5" font-family="Helvetica,sans-Serif" font-size="10.00">/J2DPrint/initchar__8J2DPrintFv.s</text>
</a>
</g>
</g>
<!-- Node1&#45;&gt;Node17 -->
<g id="edge17" class="edge">
<title>Node1&#45;&gt;Node17</title>
<path fill="none" stroke="midnightblue" d="M1237.14,-158.23C1423.6,-153.97 1993.97,-138.8 2176.5,-109 2189.15,-106.93 2202.55,-103.76 2215.07,-100.33"/>
<polygon fill="midnightblue" stroke="midnightblue" points="2216.22,-103.65 2224.89,-97.56 2214.31,-96.91 2216.22,-103.65"/>
</g>
<!-- Node18 -->
<g id="node18" class="node">
<title>Node18</title>
<g id="a_node18"><a xlink:title=" ">
<polygon fill="white" stroke="#bfbfbf" points="2368,-62 2368,-103 2493,-103 2493,-62 2368,-62"/>
<text text-anchor="start" x="2376" y="-91" font-family="Helvetica,sans-Serif" font-size="10.00">asm/JSystem/J2DGraph</text>
<text text-anchor="start" x="2376" y="-80" font-family="Helvetica,sans-Serif" font-size="10.00">/J2DPrint/getNumberS32</text>
<text text-anchor="middle" x="2430.5" y="-69" font-family="Helvetica,sans-Serif" font-size="10.00">__8J2DPrintFPPCUclli.s</text>
</a>
</g>
</g>
<!-- Node1&#45;&gt;Node18 -->
<g id="edge18" class="edge">
<title>Node1&#45;&gt;Node18</title>
<path fill="none" stroke="midnightblue" d="M1237.24,-159.29C1445.73,-158.18 2140.28,-151.32 2358.5,-109 2362.87,-108.15 2367.32,-107.09 2371.77,-105.88"/>
<polygon fill="midnightblue" stroke="midnightblue" points="2372.85,-109.21 2381.46,-103.04 2370.88,-102.5 2372.85,-109.21"/>
</g>
<!-- Node19 -->
<g id="node19" class="node">
<title>Node19</title>
<g id="a_node19"><a xlink:title=" ">
<polygon fill="white" stroke="#bfbfbf" points="2511,-62 2511,-103 2636,-103 2636,-62 2511,-62"/>
<text text-anchor="start" x="2519" y="-91" font-family="Helvetica,sans-Serif" font-size="10.00">asm/JSystem/J2DGraph</text>
<text text-anchor="start" x="2519" y="-80" font-family="Helvetica,sans-Serif" font-size="10.00">/J2DPrint/getNumberF32</text>
<text text-anchor="middle" x="2573.5" y="-69" font-family="Helvetica,sans-Serif" font-size="10.00">__8J2DPrintFPPCUcffi.s</text>
</a>
</g>
</g>
<!-- Node1&#45;&gt;Node19 -->
<g id="edge19" class="edge">
<title>Node1&#45;&gt;Node19</title>
<path fill="none" stroke="midnightblue" d="M1237.03,-159.65C1461.3,-159.82 2255.03,-156.96 2502.5,-109 2506.69,-108.19 2510.97,-107.17 2515.25,-106.01"/>
<polygon fill="midnightblue" stroke="midnightblue" points="2516.57,-109.26 2525.17,-103.07 2514.58,-102.55 2516.57,-109.26"/>
</g>
<!-- Node2&#45;&gt;Node3 -->
<g id="edge2" class="edge">
<title>Node2&#45;&gt;Node3</title>
<path fill="none" stroke="midnightblue" d="M80.75,-72.86C88.78,-61.76 102.9,-42.24 113.13,-28.09"/>
<polygon fill="midnightblue" stroke="midnightblue" points="116.17,-29.87 119.2,-19.72 110.5,-25.77 116.17,-29.87"/>
</g>
</g>
</svg>
        <g id="navigator" transform="translate(0 0)" fill="#404254">
                <rect fill="#f2f5e9" fill-opacity="0.5" stroke="#606060" stroke-width=".5" x="0" y="0" width="60" height="60"/>
                <use id="zoomplus" xlink:href="#zoomPlus" x="17" y="9" onmousedown="handleZoom(evt,'in')"/>
                <use id="zoomminus" xlink:href="#zoomMin" x="42" y="9" onmousedown="handleZoom(evt,'out')"/>
                <use id="reset" xlink:href="#resetDef" x="30" y="36" onmousedown="handleReset()"/>
                <g id="arrowUp" xlink:href="#dirArrow" transform="translate(30 24)" onmousedown="handlePan(0,-1)">
                  <use xlink:href="#rim" fill="#404040">
                        <set attributeName="fill" to="#808080" begin="arrowUp.mouseover" end="arrowUp.mouseout"/>
                  </use>
                  <path fill="none" stroke="white" stroke-width="1.5" d="M0,-3.0v7 M-2.5,-0.5L0,-3.0L2.5,-0.5"/>
                </g>
                <g id="arrowRight" xlink:href="#dirArrow" transform="rotate(90) translate(36 -43)" onmousedown="handlePan(1,0)">
                  <use xlink:href="#rim" fill="#404040">
                        <set attributeName="fill" to="#808080" begin="arrowRight.mouseover" end="arrowRight.mouseout"/>
                  </use>
                  <path fill="none" stroke="white" stroke-width="1.5" d="M0,-3.0v7 M-2.5,-0.5L0,-3.0L2.5,-0.5"/>
                </g>
                <g id="arrowDown" xlink:href="#dirArrow" transform="rotate(180) translate(-30 -48)" onmousedown="handlePan(0,1)">
                  <use xlink:href="#rim" fill="#404040">
                        <set attributeName="fill" to="#808080" begin="arrowDown.mouseover" end="arrowDown.mouseout"/>
                  </use>
                  <path fill="none" stroke="white" stroke-width="1.5" d="M0,-3.0v7 M-2.5,-0.5L0,-3.0L2.5,-0.5"/>
                </g>
                <g id="arrowLeft" xlink:href="#dirArrow" transform="rotate(270) translate(-36 17)" onmousedown="handlePan(-1,0)">
                  <use xlink:href="#rim" fill="#404040">
                        <set attributeName="fill" to="#808080" begin="arrowLeft.mouseover" end="arrowLeft.mouseout"/>
                  </use>
                  <path fill="none" stroke="white" stroke-width="1.5" d="M0,-3.0v7 M-2.5,-0.5L0,-3.0L2.5,-0.5"/>
                </g>
        </g>
        <svg viewBox="0 0 15 15" width="100%" height="30px" preserveAspectRatio="xMaxYMin meet">
         <g id="arrow_out" transform="scale(0.3 0.3)">
          <a xlink:href="J2DPrint_8cpp__incl_org.svg" target="_base">
           <rect id="button" ry="5" rx="5" y="6" x="6" height="38" width="38"
                fill="#f2f5e9" fill-opacity="0.5" stroke="#606060" stroke-width="1.0"/>
           <path id="arrow"
             d="M 11.500037,31.436501 C 11.940474,20.09759 22.043105,11.32322 32.158766,21.979434 L 37.068811,17.246167 C 37.068811,17.246167 37.088388,32 37.088388,32 L 22.160133,31.978069 C 22.160133,31.978069 26.997745,27.140456 26.997745,27.140456 C 18.528582,18.264221 13.291696,25.230495 11.500037,31.436501 z"
             style="fill:#404040;"/>
          </a>
         </g>
        </svg>
</svg>
