<?xml version="1.0" encoding="UTF-8" standalone="no"?>
<!DOCTYPE svg PUBLIC "-//W3C//DTD SVG 1.1//EN"
 "http://www.w3.org/Graphics/SVG/1.1/DTD/svg11.dtd">
<!-- Generated by graphviz version 7.0.5 (20221223.1930)
 -->
<!-- Title: include/JSystem/J2DGraph/J2DScreen.h Pages: 1 -->
<svg width="4433pt" height="357pt"
 viewBox="0.00 0.00 4433.00 357.00" xmlns="http://www.w3.org/2000/svg" xmlns:xlink="http://www.w3.org/1999/xlink">
<g id="graph0" class="graph" transform="scale(1 1) rotate(0) translate(4 353)">
<title>include/JSystem/J2DGraph/J2DScreen.h</title>
<!-- Node1 -->
<g id="node1" class="node">
<title>Node1</title>
<g id="a_node1"><a xlink:title=" ">
<polygon fill="#999999" stroke="#666666" points="2792.5,-349 2657.5,-349 2657.5,-319 2792.5,-319 2792.5,-349"/>
<text text-anchor="start" x="2665.5" y="-337" font-family="Helvetica,sans-Serif" font-size="10.00">include/JSystem/J2DGraph</text>
<text text-anchor="middle" x="2725" y="-326" font-family="Helvetica,sans-Serif" font-size="10.00">/J2DScreen.h</text>
</a>
</g>
</g>
<!-- Node2 -->
<g id="node2" class="node">
<title>Node2</title>
<g id="a_node2"><a xlink:href="d__select__cursor_8h.html" target="_top" xlink:title=" ">
<polygon fill="white" stroke="#666666" points="1053.5,-217 958.5,-217 958.5,-187 1053.5,-187 1053.5,-217"/>
<text text-anchor="start" x="966.5" y="-205" font-family="Helvetica,sans-Serif" font-size="10.00">include/d/d_select</text>
<text text-anchor="middle" x="1006" y="-194" font-family="Helvetica,sans-Serif" font-size="10.00">_cursor.h</text>
</a>
</g>
</g>
<!-- Node1&#45;&gt;Node2 -->
<g id="edge1" class="edge">
<title>Node1&#45;&gt;Node2</title>
<path fill="none" stroke="#63b8ff" d="M2645.75,-332.38C2326.11,-329.67 1145.46,-317.37 1074,-283 1045.09,-269.09 1023.79,-236.5 1013.3,-217.48"/>
<polygon fill="#63b8ff" stroke="#63b8ff" points="2645.66,-335.88 2655.68,-332.47 2645.71,-328.88 2645.66,-335.88"/>
</g>
<!-- Node13 -->
<g id="node13" class="node">
<title>Node13</title>
<g id="a_node13"><a xlink:href="d__menu__collect_8cpp.html" target="_top" xlink:title=" ">
<polygon fill="white" stroke="#666666" points="1781.5,-145.5 1626.5,-145.5 1626.5,-126.5 1781.5,-126.5 1781.5,-145.5"/>
<text text-anchor="middle" x="1704" y="-133.5" font-family="Helvetica,sans-Serif" font-size="10.00">src/d/menu/d_menu_collect.cpp</text>
</a>
</g>
</g>
<!-- Node1&#45;&gt;Node13 -->
<g id="edge37" class="edge">
<title>Node1&#45;&gt;Node13</title>
<path fill="none" stroke="#63b8ff" d="M2646.2,-333.35C2346,-334.28 1288.24,-333.93 1239,-283 1220.14,-263.49 1239.14,-201.46 1256,-187 1317.36,-134.37 1537.84,-161.5 1618,-151 1629.1,-149.55 1640.97,-147.76 1652.23,-145.96"/>
<polygon fill="#63b8ff" stroke="#63b8ff" points="2645.9,-336.85 2655.89,-333.31 2645.88,-329.85 2645.9,-336.85"/>
</g>
<!-- Node19 -->
<g id="node19" class="node">
<title>Node19</title>
<g id="a_node19"><a xlink:href="d__select__icon_8h.html" target="_top" xlink:title=" ">
<polygon fill="white" stroke="#666666" points="1178.5,-283 1083.5,-283 1083.5,-253 1178.5,-253 1178.5,-283"/>
<text text-anchor="start" x="1091.5" y="-271" font-family="Helvetica,sans-Serif" font-size="10.00">include/d/d_select</text>
<text text-anchor="middle" x="1131" y="-260" font-family="Helvetica,sans-Serif" font-size="10.00">_icon.h</text>
</a>
</g>
</g>
<!-- Node1&#45;&gt;Node19 -->
<g id="edge19" class="edge">
<title>Node1&#45;&gt;Node19</title>
<path fill="none" stroke="#63b8ff" d="M2646.11,-332.01C2375.86,-328.37 1488.46,-314.29 1205,-283 1196.42,-282.05 1187.35,-280.66 1178.61,-279.12"/>
<polygon fill="#63b8ff" stroke="#63b8ff" points="2645.81,-335.51 2655.86,-332.14 2645.9,-328.51 2645.81,-335.51"/>
</g>
<!-- Node21 -->
<g id="node21" class="node">
<title>Node21</title>
<g id="a_node21"><a xlink:href="d__a__boomerang_8h.html" target="_top" xlink:title=" ">
<polygon fill="white" stroke="#666666" points="1396.5,-283 1247.5,-283 1247.5,-253 1396.5,-253 1396.5,-283"/>
<text text-anchor="start" x="1255.5" y="-271" font-family="Helvetica,sans-Serif" font-size="10.00">include/rel/d/a/d_a</text>
<text text-anchor="middle" x="1322" y="-260" font-family="Helvetica,sans-Serif" font-size="10.00">_boomerang/d_a_boomerang.h</text>
</a>
</g>
</g>
<!-- Node1&#45;&gt;Node21 -->
<g id="edge22" class="edge">
<title>Node1&#45;&gt;Node21</title>
<path fill="none" stroke="#63b8ff" d="M2645.93,-333.5C2440.72,-334.05 1874.47,-330.72 1406,-283 1402.91,-282.69 1399.76,-282.33 1396.59,-281.94"/>
<polygon fill="#63b8ff" stroke="#63b8ff" points="2645.68,-337 2655.67,-333.47 2645.66,-330 2645.68,-337"/>
</g>
<!-- Node23 -->
<g id="node23" class="node">
<title>Node23</title>
<g id="a_node23"><a xlink:href="J2DAnimation_8cpp.html" target="_top" xlink:title=" ">
<polygon fill="white" stroke="#666666" points="1533.5,-283 1414.5,-283 1414.5,-253 1533.5,-253 1533.5,-283"/>
<text text-anchor="start" x="1422.5" y="-271" font-family="Helvetica,sans-Serif" font-size="10.00">libs/JSystem/J2DGraph</text>
<text text-anchor="middle" x="1474" y="-260" font-family="Helvetica,sans-Serif" font-size="10.00">/J2DAnimation.cpp</text>
</a>
</g>
</g>
<!-- Node1&#45;&gt;Node23 -->
<g id="edge24" class="edge">
<title>Node1&#45;&gt;Node23</title>
<path fill="none" stroke="#63b8ff" d="M2646.02,-331.29C2417.35,-326.07 1757.41,-309.12 1543,-283 1539.97,-282.63 1536.87,-282.2 1533.74,-281.72"/>
<polygon fill="#63b8ff" stroke="#63b8ff" points="2645.64,-334.78 2655.72,-331.51 2645.8,-327.78 2645.64,-334.78"/>
</g>
<!-- Node24 -->
<g id="node24" class="node">
<title>Node24</title>
<g id="a_node24"><a xlink:href="J2DMaterialFactory_8cpp.html" target="_top" xlink:title=" ">
<polygon fill="white" stroke="#666666" points="1674,-283 1552,-283 1552,-253 1674,-253 1674,-283"/>
<text text-anchor="start" x="1560" y="-271" font-family="Helvetica,sans-Serif" font-size="10.00">libs/JSystem/J2DGraph</text>
<text text-anchor="middle" x="1613" y="-260" font-family="Helvetica,sans-Serif" font-size="10.00">/J2DMaterialFactory.cpp</text>
</a>
</g>
</g>
<!-- Node1&#45;&gt;Node24 -->
<g id="edge25" class="edge">
<title>Node1&#45;&gt;Node24</title>
<path fill="none" stroke="#63b8ff" d="M2645.75,-333.15C2471.27,-332.61 2041.03,-326.54 1684,-283 1680.88,-282.62 1677.7,-282.18 1674.49,-281.7"/>
<polygon fill="#63b8ff" stroke="#63b8ff" points="2645.59,-336.65 2655.6,-333.17 2645.61,-329.65 2645.59,-336.65"/>
</g>
<!-- Node25 -->
<g id="node25" class="node">
<title>Node25</title>
<g id="a_node25"><a xlink:href="J2DPane_8cpp.html" target="_top" xlink:title=" ">
<polygon fill="white" stroke="#666666" points="1811.5,-283 1692.5,-283 1692.5,-253 1811.5,-253 1811.5,-283"/>
<text text-anchor="start" x="1700.5" y="-271" font-family="Helvetica,sans-Serif" font-size="10.00">libs/JSystem/J2DGraph</text>
<text text-anchor="middle" x="1752" y="-260" font-family="Helvetica,sans-Serif" font-size="10.00">/J2DPane.cpp</text>
</a>
</g>
</g>
<!-- Node1&#45;&gt;Node25 -->
<g id="edge26" class="edge">
<title>Node1&#45;&gt;Node25</title>
<path fill="none" stroke="#63b8ff" d="M2645.77,-332.47C2488.09,-330.56 2124.05,-321.92 1821,-283 1817.97,-282.61 1814.87,-282.16 1811.75,-281.67"/>
<polygon fill="#63b8ff" stroke="#63b8ff" points="2645.67,-335.97 2655.71,-332.58 2645.75,-328.97 2645.67,-335.97"/>
</g>
<!-- Node26 -->
<g id="node26" class="node">
<title>Node26</title>
<g id="a_node26"><a xlink:href="J2DPicture_8cpp.html" target="_top" xlink:title=" ">
<polygon fill="white" stroke="#666666" points="1948.5,-283 1829.5,-283 1829.5,-253 1948.5,-253 1948.5,-283"/>
<text text-anchor="start" x="1837.5" y="-271" font-family="Helvetica,sans-Serif" font-size="10.00">libs/JSystem/J2DGraph</text>
<text text-anchor="middle" x="1889" y="-260" font-family="Helvetica,sans-Serif" font-size="10.00">/J2DPicture.cpp</text>
</a>
</g>
</g>
<!-- Node1&#45;&gt;Node26 -->
<g id="edge27" class="edge">
<title>Node1&#45;&gt;Node26</title>
<path fill="none" stroke="#63b8ff" d="M2645.85,-331.36C2506.34,-327.69 2207.75,-316.32 1958,-283 1954.97,-282.6 1951.88,-282.14 1948.76,-281.64"/>
<polygon fill="#63b8ff" stroke="#63b8ff" points="2645.64,-334.86 2655.73,-331.61 2645.82,-327.86 2645.64,-334.86"/>
</g>
<!-- Node27 -->
<g id="node27" class="node">
<title>Node27</title>
<g id="a_node27"><a xlink:href="J2DScreen_8cpp.html" target="_top" xlink:title=" ">
<polygon fill="white" stroke="#666666" points="2085.5,-283 1966.5,-283 1966.5,-253 2085.5,-253 2085.5,-283"/>
<text text-anchor="start" x="1974.5" y="-271" font-family="Helvetica,sans-Serif" font-size="10.00">libs/JSystem/J2DGraph</text>
<text text-anchor="middle" x="2026" y="-260" font-family="Helvetica,sans-Serif" font-size="10.00">/J2DScreen.cpp</text>
</a>
</g>
</g>
<!-- Node1&#45;&gt;Node27 -->
<g id="edge28" class="edge">
<title>Node1&#45;&gt;Node27</title>
<path fill="none" stroke="#63b8ff" d="M2645.89,-329.8C2526.19,-324.26 2292.09,-310.71 2095,-283 2091.97,-282.57 2088.88,-282.1 2085.76,-281.59"/>
<polygon fill="#63b8ff" stroke="#63b8ff" points="2645.45,-333.28 2655.6,-330.24 2645.77,-326.29 2645.45,-333.28"/>
</g>
<!-- Node28 -->
<g id="node28" class="node">
<title>Node28</title>
<g id="a_node28"><a xlink:href="Z2LinkMgr_8cpp.html" target="_top" xlink:title=" ">
<polygon fill="white" stroke="#666666" points="2256,-277.5 2104,-277.5 2104,-258.5 2256,-258.5 2256,-277.5"/>
<text text-anchor="middle" x="2180" y="-265.5" font-family="Helvetica,sans-Serif" font-size="10.00">libs/Z2AudioLib/Z2LinkMgr.cpp</text>
</a>
</g>
</g>
<!-- Node1&#45;&gt;Node28 -->
<g id="edge29" class="edge">
<title>Node1&#45;&gt;Node28</title>
<path fill="none" stroke="#63b8ff" d="M2645.8,-325.66C2554.2,-316.86 2398.92,-301.05 2266,-283 2255.06,-281.51 2243.36,-279.74 2232.23,-277.96"/>
<polygon fill="#63b8ff" stroke="#63b8ff" points="2645.41,-329.13 2655.7,-326.6 2646.07,-322.17 2645.41,-329.13"/>
</g>
<!-- Node29 -->
<g id="node29" class="node">
<title>Node29</title>
<g id="a_node29"><a xlink:href="d__bright__check_8cpp.html" target="_top" xlink:title=" ">
<polygon fill="white" stroke="#666666" points="2399.5,-277.5 2274.5,-277.5 2274.5,-258.5 2399.5,-258.5 2399.5,-277.5"/>
<text text-anchor="middle" x="2337" y="-265.5" font-family="Helvetica,sans-Serif" font-size="10.00">src/d/d_bright_check.cpp</text>
</a>
</g>
</g>
<!-- Node1&#45;&gt;Node29 -->
<g id="edge30" class="edge">
<title>Node1&#45;&gt;Node29</title>
<path fill="none" stroke="#63b8ff" d="M2645.87,-321.27C2581.87,-311.59 2489.5,-297.19 2409,-283 2400.22,-281.45 2390.86,-279.7 2381.89,-277.98"/>
<polygon fill="#63b8ff" stroke="#63b8ff" points="2645.17,-324.7 2655.58,-322.73 2646.22,-317.78 2645.17,-324.7"/>
</g>
<!-- Node30 -->
<g id="node30" class="node">
<title>Node30</title>
<g id="a_node30"><a xlink:href="d__drawlist_8cpp.html" target="_top" xlink:title=" ">
<polygon fill="white" stroke="#666666" points="2522,-277.5 2418,-277.5 2418,-258.5 2522,-258.5 2522,-277.5"/>
<text text-anchor="middle" x="2470" y="-265.5" font-family="Helvetica,sans-Serif" font-size="10.00">src/d/d_drawlist.cpp</text>
</a>
</g>
</g>
<!-- Node1&#45;&gt;Node30 -->
<g id="edge31" class="edge">
<title>Node1&#45;&gt;Node30</title>
<path fill="none" stroke="#63b8ff" d="M2656.39,-315.78C2607.81,-303.59 2544.63,-287.73 2505.71,-277.96"/>
<polygon fill="#63b8ff" stroke="#63b8ff" points="2655.44,-319.15 2665.99,-318.19 2657.14,-312.36 2655.44,-319.15"/>
</g>
<!-- Node31 -->
<g id="node31" class="node">
<title>Node31</title>
<g id="a_node31"><a xlink:href="d__gameover_8cpp.html" target="_top" xlink:title=" ">
<polygon fill="white" stroke="#666666" points="2653.5,-277.5 2540.5,-277.5 2540.5,-258.5 2653.5,-258.5 2653.5,-277.5"/>
<text text-anchor="middle" x="2597" y="-265.5" font-family="Helvetica,sans-Serif" font-size="10.00">src/d/d_gameover.cpp</text>
</a>
</g>
</g>
<!-- Node1&#45;&gt;Node31 -->
<g id="edge32" class="edge">
<title>Node1&#45;&gt;Node31</title>
<path fill="none" stroke="#63b8ff" d="M2686.18,-313.59C2662.5,-301.75 2633.36,-287.18 2614.97,-277.99"/>
<polygon fill="#63b8ff" stroke="#63b8ff" points="2684.41,-316.62 2694.92,-317.96 2687.54,-310.36 2684.41,-316.62"/>
</g>
<!-- Node32 -->
<g id="node32" class="node">
<title>Node32</title>
<g id="a_node32"><a xlink:href="d__kantera__icon__meter_8cpp.html" target="_top" xlink:title=" ">
<polygon fill="white" stroke="#666666" points="2778.5,-283 2671.5,-283 2671.5,-253 2778.5,-253 2778.5,-283"/>
<text text-anchor="start" x="2679.5" y="-271" font-family="Helvetica,sans-Serif" font-size="10.00">src/d/d_kantera_icon</text>
<text text-anchor="middle" x="2725" y="-260" font-family="Helvetica,sans-Serif" font-size="10.00">_meter.cpp</text>
</a>
</g>
</g>
<!-- Node1&#45;&gt;Node32 -->
<g id="edge33" class="edge">
<title>Node1&#45;&gt;Node32</title>
<path fill="none" stroke="#63b8ff" d="M2725,-307.39C2725,-299.13 2725,-290.28 2725,-283.16"/>
<polygon fill="#63b8ff" stroke="#63b8ff" points="2721.5,-307.28 2725,-317.28 2728.5,-307.28 2721.5,-307.28"/>
</g>
<!-- Node33 -->
<g id="node33" class="node">
<title>Node33</title>
<g id="a_node33"><a xlink:href="d__scope_8cpp.html" target="_top" xlink:title=" ">
<polygon fill="white" stroke="#666666" points="2893,-277.5 2797,-277.5 2797,-258.5 2893,-258.5 2893,-277.5"/>
<text text-anchor="middle" x="2845" y="-265.5" font-family="Helvetica,sans-Serif" font-size="10.00">src/d/d_scope.cpp</text>
</a>
</g>
</g>
<!-- Node1&#45;&gt;Node33 -->
<g id="edge34" class="edge">
<title>Node1&#45;&gt;Node33</title>
<path fill="none" stroke="#63b8ff" d="M2762,-313.27C2784.08,-301.49 2811.07,-287.1 2828.15,-277.99"/>
<polygon fill="#63b8ff" stroke="#63b8ff" points="2760.44,-310.13 2753.27,-317.92 2763.74,-316.31 2760.44,-310.13"/>
</g>
<!-- Node34 -->
<g id="node34" class="node">
<title>Node34</title>
<g id="a_node34"><a xlink:href="d__file__sel__info_8cpp.html" target="_top" xlink:title=" ">
<polygon fill="white" stroke="#666666" points="3008.5,-283 2911.5,-283 2911.5,-253 3008.5,-253 3008.5,-283"/>
<text text-anchor="start" x="2919.5" y="-271" font-family="Helvetica,sans-Serif" font-size="10.00">src/d/file/d_file_sel</text>
<text text-anchor="middle" x="2960" y="-260" font-family="Helvetica,sans-Serif" font-size="10.00">_info.cpp</text>
</a>
</g>
</g>
<!-- Node1&#45;&gt;Node34 -->
<g id="edge35" class="edge">
<title>Node1&#45;&gt;Node34</title>
<path fill="none" stroke="#63b8ff" d="M2789.12,-315.54C2827.6,-305.06 2875.78,-291.94 2911.17,-282.3"/>
<polygon fill="#63b8ff" stroke="#63b8ff" points="2788.22,-312.15 2779.49,-318.16 2790.06,-318.91 2788.22,-312.15"/>
</g>
<!-- Node35 -->
<g id="node35" class="node">
<title>Node35</title>
<g id="a_node35"><a xlink:href="d__file__sel__warning_8cpp.html" target="_top" xlink:title=" ">
<polygon fill="white" stroke="#666666" points="3123.5,-283 3026.5,-283 3026.5,-253 3123.5,-253 3123.5,-283"/>
<text text-anchor="start" x="3034.5" y="-271" font-family="Helvetica,sans-Serif" font-size="10.00">src/d/file/d_file_sel</text>
<text text-anchor="middle" x="3075" y="-260" font-family="Helvetica,sans-Serif" font-size="10.00">_warning.cpp</text>
</a>
</g>
</g>
<!-- Node1&#45;&gt;Node35 -->
<g id="edge36" class="edge">
<title>Node1&#45;&gt;Node35</title>
<path fill="none" stroke="#63b8ff" d="M2803.89,-321.11C2863.03,-311.82 2945.85,-298 3018,-283 3020.69,-282.44 3023.45,-281.84 3026.23,-281.22"/>
<polygon fill="#63b8ff" stroke="#63b8ff" points="2803.59,-317.62 2794.25,-322.62 2804.67,-324.53 2803.59,-317.62"/>
</g>
<!-- Node36 -->
<g id="node36" class="node">
<title>Node36</title>
<g id="a_node36"><a xlink:href="d__meter2__draw_8cpp.html" target="_top" xlink:title=" ">
<polygon fill="white" stroke="#666666" points="3252,-283 3142,-283 3142,-253 3252,-253 3252,-283"/>
<text text-anchor="start" x="3150" y="-271" font-family="Helvetica,sans-Serif" font-size="10.00">src/d/meter/d_meter2</text>
<text text-anchor="middle" x="3197" y="-260" font-family="Helvetica,sans-Serif" font-size="10.00">_draw.cpp</text>
</a>
</g>
</g>
<!-- Node1&#45;&gt;Node36 -->
<g id="edge38" class="edge">
<title>Node1&#45;&gt;Node36</title>
<path fill="none" stroke="#63b8ff" d="M2804.07,-325.52C2886.5,-317.21 3019.28,-302.36 3133,-283 3135.8,-282.52 3138.67,-282.01 3141.56,-281.46"/>
<polygon fill="#63b8ff" stroke="#63b8ff" points="2803.89,-322.02 2794.29,-326.5 2804.59,-328.99 2803.89,-322.02"/>
</g>
<!-- Node37 -->
<g id="node37" class="node">
<title>Node37</title>
<g id="a_node37"><a xlink:href="d__pane__class_8cpp.html" target="_top" xlink:title=" ">
<polygon fill="white" stroke="#666666" points="3413.5,-277.5 3270.5,-277.5 3270.5,-258.5 3413.5,-258.5 3413.5,-277.5"/>
<text text-anchor="middle" x="3342" y="-265.5" font-family="Helvetica,sans-Serif" font-size="10.00">src/d/pane/d_pane_class.cpp</text>
</a>
</g>
</g>
<!-- Node1&#45;&gt;Node37 -->
<g id="edge39" class="edge">
<title>Node1&#45;&gt;Node37</title>
<path fill="none" stroke="#63b8ff" d="M2804.3,-327.55C2909.11,-319.9 3099.37,-304.47 3261,-283 3271.61,-281.59 3282.96,-279.81 3293.69,-277.99"/>
<polygon fill="#63b8ff" stroke="#63b8ff" points="2804.11,-324.05 2794.39,-328.27 2804.62,-331.04 2804.11,-324.05"/>
</g>
<!-- Node38 -->
<g id="node38" class="node">
<title>Node38</title>
<g id="a_node38"><a xlink:href="d__pane__class__alpha_8cpp.html" target="_top" xlink:title=" ">
<polygon fill="white" stroke="#666666" points="3556.5,-283 3431.5,-283 3431.5,-253 3556.5,-253 3556.5,-283"/>
<text text-anchor="start" x="3439.5" y="-271" font-family="Helvetica,sans-Serif" font-size="10.00">src/d/pane/d_pane_class</text>
<text text-anchor="middle" x="3494" y="-260" font-family="Helvetica,sans-Serif" font-size="10.00">_alpha.cpp</text>
</a>
</g>
</g>
<!-- Node1&#45;&gt;Node38 -->
<g id="edge40" class="edge">
<title>Node1&#45;&gt;Node38</title>
<path fill="none" stroke="#63b8ff" d="M2804.03,-330.51C2933.75,-325.71 3199.74,-312.89 3423,-283 3425.74,-282.63 3428.53,-282.23 3431.35,-281.79"/>
<polygon fill="#63b8ff" stroke="#63b8ff" points="2804.04,-327.01 2794.18,-330.87 2804.3,-334 2804.04,-327.01"/>
</g>
<!-- Node39 -->
<g id="node39" class="node">
<title>Node39</title>
<g id="a_node39"><a xlink:href="d__msg__scrn__arrow_8cpp.html" target="_top" xlink:title=" ">
<polygon fill="white" stroke="#666666" points="3681,-283 3575,-283 3575,-253 3681,-253 3681,-283"/>
<text text-anchor="start" x="3583" y="-271" font-family="Helvetica,sans-Serif" font-size="10.00">src/msg/scrn/d_msg</text>
<text text-anchor="middle" x="3628" y="-260" font-family="Helvetica,sans-Serif" font-size="10.00">_scrn_arrow.cpp</text>
</a>
</g>
</g>
<!-- Node1&#45;&gt;Node39 -->
<g id="edge41" class="edge">
<title>Node1&#45;&gt;Node39</title>
<path fill="none" stroke="#63b8ff" d="M2804.28,-332.57C2953.92,-330.82 3287.95,-322.39 3566,-283 3568.84,-282.6 3571.74,-282.13 3574.67,-281.62"/>
<polygon fill="#63b8ff" stroke="#63b8ff" points="2804.43,-329.07 2794.47,-332.68 2804.51,-336.07 2804.43,-329.07"/>
</g>
<!-- Node40 -->
<g id="node40" class="node">
<title>Node40</title>
<g id="a_node40"><a xlink:href="d__msg__scrn__base_8cpp.html" target="_top" xlink:title=" ">
<polygon fill="white" stroke="#666666" points="3805,-283 3699,-283 3699,-253 3805,-253 3805,-283"/>
<text text-anchor="start" x="3707" y="-271" font-family="Helvetica,sans-Serif" font-size="10.00">src/msg/scrn/d_msg</text>
<text text-anchor="middle" x="3752" y="-260" font-family="Helvetica,sans-Serif" font-size="10.00">_scrn_base.cpp</text>
</a>
</g>
</g>
<!-- Node1&#45;&gt;Node40 -->
<g id="edge42" class="edge">
<title>Node1&#45;&gt;Node40</title>
<path fill="none" stroke="#63b8ff" d="M2803.96,-333.44C2969.21,-333.38 3363.26,-328.02 3690,-283 3692.84,-282.61 3695.75,-282.15 3698.67,-281.65"/>
<polygon fill="#63b8ff" stroke="#63b8ff" points="2804.45,-329.94 2794.45,-333.44 2804.45,-336.94 2804.45,-329.94"/>
</g>
<!-- Node41 -->
<g id="node41" class="node">
<title>Node41</title>
<g id="a_node41"><a xlink:href="d__msg__scrn__boss_8cpp.html" target="_top" xlink:title=" ">
<polygon fill="white" stroke="#666666" points="3929,-283 3823,-283 3823,-253 3929,-253 3929,-283"/>
<text text-anchor="start" x="3831" y="-271" font-family="Helvetica,sans-Serif" font-size="10.00">src/msg/scrn/d_msg</text>
<text text-anchor="middle" x="3876" y="-260" font-family="Helvetica,sans-Serif" font-size="10.00">_scrn_boss.cpp</text>
</a>
</g>
</g>
<!-- Node1&#45;&gt;Node41 -->
<g id="edge43" class="edge">
<title>Node1&#45;&gt;Node41</title>
<path fill="none" stroke="#63b8ff" d="M2804.07,-331.18C3020.37,-325.91 3618.68,-309.33 3814,-283 3816.84,-282.62 3819.75,-282.17 3822.67,-281.67"/>
<polygon fill="#63b8ff" stroke="#63b8ff" points="2804.26,-327.67 2794.35,-331.41 2804.43,-334.67 2804.26,-327.67"/>
</g>
<!-- Node42 -->
<g id="node42" class="node">
<title>Node42</title>
<g id="a_node42"><a xlink:href="d__msg__scrn__explain_8cpp.html" target="_top" xlink:title=" ">
<polygon fill="white" stroke="#666666" points="4053,-283 3947,-283 3947,-253 4053,-253 4053,-283"/>
<text text-anchor="start" x="3955" y="-271" font-family="Helvetica,sans-Serif" font-size="10.00">src/msg/scrn/d_msg</text>
<text text-anchor="middle" x="4000" y="-260" font-family="Helvetica,sans-Serif" font-size="10.00">_scrn_explain.cpp</text>
</a>
</g>
</g>
<!-- Node1&#45;&gt;Node42 -->
<g id="edge44" class="edge">
<title>Node1&#45;&gt;Node42</title>
<path fill="none" stroke="#63b8ff" d="M2804.03,-331.61C3036.86,-327.22 3717.63,-312.18 3938,-283 3940.84,-282.62 3943.75,-282.18 3946.68,-281.68"/>
<polygon fill="#63b8ff" stroke="#63b8ff" points="2804.07,-328.11 2794.14,-331.8 2804.21,-335.11 2804.07,-328.11"/>
</g>
<!-- Node43 -->
<g id="node43" class="node">
<title>Node43</title>
<g id="a_node43"><a xlink:href="d__msg__scrn__place_8cpp.html" target="_top" xlink:title=" ">
<polygon fill="white" stroke="#666666" points="4177,-283 4071,-283 4071,-253 4177,-253 4177,-283"/>
<text text-anchor="start" x="4079" y="-271" font-family="Helvetica,sans-Serif" font-size="10.00">src/msg/scrn/d_msg</text>
<text text-anchor="middle" x="4124" y="-260" font-family="Helvetica,sans-Serif" font-size="10.00">_scrn_place.cpp</text>
</a>
</g>
</g>
<!-- Node1&#45;&gt;Node43 -->
<g id="edge45" class="edge">
<title>Node1&#45;&gt;Node43</title>
<path fill="none" stroke="#63b8ff" d="M2804.32,-331.96C3053.18,-328.38 3816.57,-315.02 4062,-283 4064.84,-282.63 4067.75,-282.19 4070.68,-281.7"/>
<polygon fill="#63b8ff" stroke="#63b8ff" points="2804.32,-328.46 2794.37,-332.1 2804.42,-335.46 2804.32,-328.46"/>
</g>
<!-- Node44 -->
<g id="node44" class="node">
<title>Node44</title>
<g id="a_node44"><a xlink:href="d__msg__scrn__staff_8cpp.html" target="_top" xlink:title=" ">
<polygon fill="white" stroke="#666666" points="4301,-283 4195,-283 4195,-253 4301,-253 4301,-283"/>
<text text-anchor="start" x="4203" y="-271" font-family="Helvetica,sans-Serif" font-size="10.00">src/msg/scrn/d_msg</text>
<text text-anchor="middle" x="4248" y="-260" font-family="Helvetica,sans-Serif" font-size="10.00">_scrn_staff.cpp</text>
</a>
</g>
</g>
<!-- Node1&#45;&gt;Node44 -->
<g id="edge46" class="edge">
<title>Node1&#45;&gt;Node44</title>
<path fill="none" stroke="#63b8ff" d="M2803.95,-332.25C3067.44,-329.45 3915.19,-317.89 4186,-283 4188.85,-282.63 4191.75,-282.2 4194.68,-281.71"/>
<polygon fill="#63b8ff" stroke="#63b8ff" points="2804.07,-328.75 2794.1,-332.36 2804.14,-335.75 2804.07,-328.75"/>
</g>
<!-- Node45 -->
<g id="node45" class="node">
<title>Node45</title>
<g id="a_node45"><a xlink:href="d__msg__scrn__tree_8cpp.html" target="_top" xlink:title=" ">
<polygon fill="white" stroke="#666666" points="4425,-283 4319,-283 4319,-253 4425,-253 4425,-283"/>
<text text-anchor="start" x="4327" y="-271" font-family="Helvetica,sans-Serif" font-size="10.00">src/msg/scrn/d_msg</text>
<text text-anchor="middle" x="4372" y="-260" font-family="Helvetica,sans-Serif" font-size="10.00">_scrn_tree.cpp</text>
</a>
</g>
</g>
<!-- Node1&#45;&gt;Node45 -->
<g id="edge47" class="edge">
<title>Node1&#45;&gt;Node45</title>
<path fill="none" stroke="#63b8ff" d="M2804.02,-332.5C3081.99,-330.42 4013.87,-320.75 4310,-283 4312.85,-282.64 4315.75,-282.2 4318.68,-281.72"/>
<polygon fill="#63b8ff" stroke="#63b8ff" points="2804.33,-329 2794.36,-332.57 2804.38,-336 2804.33,-329"/>
</g>
<!-- Node3 -->
<g id="node3" class="node">
<title>Node3</title>
<g id="a_node3"><a xlink:href="d__name_8h.html" target="_top" xlink:title=" ">
<polygon fill="white" stroke="#666666" points="1608.5,-145.5 1507.5,-145.5 1507.5,-126.5 1608.5,-126.5 1608.5,-145.5"/>
<text text-anchor="middle" x="1558" y="-133.5" font-family="Helvetica,sans-Serif" font-size="10.00">include/d/d_name.h</text>
</a>
</g>
</g>
<!-- Node2&#45;&gt;Node3 -->
<g id="edge2" class="edge">
<title>Node2&#45;&gt;Node3</title>
<path fill="none" stroke="#63b8ff" d="M1065.12,-186.66C1255.87,-156.28 1309.58,-180.6 1498,-151 1506.35,-149.69 1515.26,-147.85 1523.59,-145.94"/>
<polygon fill="#63b8ff" stroke="#63b8ff" points="1064.66,-183.19 1055.35,-188.25 1065.78,-190.1 1064.66,-183.19"/>
</g>
<!-- Node6 -->
<g id="node6" class="node">
<title>Node6</title>
<g id="a_node6"><a xlink:href="d__name_8cpp.html" target="_top" xlink:title=" ">
<polygon fill="white" stroke="#666666" points="1052,-79.5 958,-79.5 958,-60.5 1052,-60.5 1052,-79.5"/>
<text text-anchor="middle" x="1005" y="-67.5" font-family="Helvetica,sans-Serif" font-size="10.00">src/d/d_name.cpp</text>
</a>
</g>
</g>
<!-- Node2&#45;&gt;Node6 -->
<g id="edge10" class="edge">
<title>Node2&#45;&gt;Node6</title>
<path fill="none" stroke="#63b8ff" d="M946.57,-200.95C792.97,-200.21 391.95,-194.12 352,-151 342.94,-141.22 342.94,-130.78 352,-121 392.98,-76.77 814.4,-71.51 957.64,-71"/>
<polygon fill="#63b8ff" stroke="#63b8ff" points="946.53,-204.45 956.55,-200.99 946.56,-197.45 946.53,-204.45"/>
</g>
<!-- Node7 -->
<g id="node7" class="node">
<title>Node7</title>
<g id="a_node7"><a xlink:href="d__menu__dmap_8h.html" target="_top" xlink:title=" ">
<polygon fill="white" stroke="#666666" points="305,-151 185,-151 185,-121 305,-121 305,-151"/>
<text text-anchor="start" x="193" y="-139" font-family="Helvetica,sans-Serif" font-size="10.00">include/d/menu/d_menu</text>
<text text-anchor="middle" x="245" y="-128" font-family="Helvetica,sans-Serif" font-size="10.00">_dmap.h</text>
</a>
</g>
</g>
<!-- Node2&#45;&gt;Node7 -->
<g id="edge6" class="edge">
<title>Node2&#45;&gt;Node7</title>
<path fill="none" stroke="#63b8ff" d="M946.97,-198.98C827.82,-194.4 550.24,-181.19 319,-151 314.59,-150.42 310.05,-149.75 305.49,-149.03"/>
<polygon fill="#63b8ff" stroke="#63b8ff" points="946.7,-202.47 956.82,-199.35 946.96,-195.48 946.7,-202.47"/>
</g>
<!-- Node11 -->
<g id="node11" class="node">
<title>Node11</title>
<g id="a_node11"><a xlink:href="d__select__cursor_8cpp.html" target="_top" xlink:title=" ">
<polygon fill="white" stroke="#666666" points="489,-145.5 361,-145.5 361,-126.5 489,-126.5 489,-145.5"/>
<text text-anchor="middle" x="425" y="-133.5" font-family="Helvetica,sans-Serif" font-size="10.00">src/d/d_select_cursor.cpp</text>
</a>
</g>
</g>
<!-- Node2&#45;&gt;Node11 -->
<g id="edge11" class="edge">
<title>Node2&#45;&gt;Node11</title>
<path fill="none" stroke="#63b8ff" d="M946.83,-196.94C851.86,-190.03 659.65,-174.41 498,-151 488.29,-149.59 477.92,-147.79 468.12,-145.95"/>
<polygon fill="#63b8ff" stroke="#63b8ff" points="946.46,-200.42 956.69,-197.65 946.97,-193.44 946.46,-200.42"/>
</g>
<!-- Node12 -->
<g id="node12" class="node">
<title>Node12</title>
<g id="a_node12"><a xlink:href="d__menu__calibration_8cpp.html" target="_top" xlink:title=" ">
<polygon fill="white" stroke="#666666" points="677,-145.5 507,-145.5 507,-126.5 677,-126.5 677,-145.5"/>
<text text-anchor="middle" x="592" y="-133.5" font-family="Helvetica,sans-Serif" font-size="10.00">src/d/menu/d_menu_calibration.cpp</text>
</a>
</g>
</g>
<!-- Node2&#45;&gt;Node12 -->
<g id="edge12" class="edge">
<title>Node2&#45;&gt;Node12</title>
<path fill="none" stroke="#63b8ff" d="M946.89,-191.86C867.85,-179.64 728.58,-158.11 650.07,-145.98"/>
<polygon fill="#63b8ff" stroke="#63b8ff" points="946.19,-195.3 956.61,-193.36 947.26,-188.38 946.19,-195.3"/>
</g>
<!-- Node2&#45;&gt;Node13 -->
<g id="edge13" class="edge">
<title>Node2&#45;&gt;Node13</title>
<path fill="none" stroke="#63b8ff" d="M1065.2,-186.68C1308.68,-149.71 1375.68,-178.5 1618,-151 1629.72,-149.67 1642.29,-147.85 1654.09,-145.96"/>
<polygon fill="#63b8ff" stroke="#63b8ff" points="1064.69,-183.22 1055.34,-188.21 1065.76,-190.14 1064.69,-183.22"/>
</g>
<!-- Node14 -->
<g id="node14" class="node">
<title>Node14</title>
<g id="a_node14"><a xlink:href="d__menu__insect_8cpp.html" target="_top" xlink:title=" ">
<polygon fill="white" stroke="#666666" points="847,-145.5 695,-145.5 695,-126.5 847,-126.5 847,-145.5"/>
<text text-anchor="middle" x="771" y="-133.5" font-family="Helvetica,sans-Serif" font-size="10.00">src/d/menu/d_menu_insect.cpp</text>
</a>
</g>
</g>
<!-- Node2&#45;&gt;Node14 -->
<g id="edge14" class="edge">
<title>Node2&#45;&gt;Node14</title>
<path fill="none" stroke="#63b8ff" d="M947.31,-185.02C902.05,-172.69 841.12,-156.1 804.02,-145.99"/>
<polygon fill="#63b8ff" stroke="#63b8ff" points="946.13,-188.32 956.7,-187.57 947.97,-181.57 946.13,-188.32"/>
</g>
<!-- Node15 -->
<g id="node15" class="node">
<title>Node15</title>
<g id="a_node15"><a xlink:href="d__menu__map__common_8cpp.html" target="_top" xlink:title=" ">
<polygon fill="white" stroke="#666666" points="992.5,-151 865.5,-151 865.5,-121 992.5,-121 992.5,-151"/>
<text text-anchor="start" x="873.5" y="-139" font-family="Helvetica,sans-Serif" font-size="10.00">src/d/menu/d_menu_map</text>
<text text-anchor="middle" x="929" y="-128" font-family="Helvetica,sans-Serif" font-size="10.00">_common.cpp</text>
</a>
</g>
</g>
<!-- Node2&#45;&gt;Node15 -->
<g id="edge15" class="edge">
<title>Node2&#45;&gt;Node15</title>
<path fill="none" stroke="#63b8ff" d="M980.37,-179.7C969.18,-170.4 956.35,-159.73 946.31,-151.39"/>
<polygon fill="#63b8ff" stroke="#63b8ff" points="977.82,-182.13 987.75,-185.83 982.29,-176.75 977.82,-182.13"/>
</g>
<!-- Node16 -->
<g id="node16" class="node">
<title>Node16</title>
<g id="a_node16"><a xlink:href="d__menu__save_8cpp.html" target="_top" xlink:title=" ">
<polygon fill="white" stroke="#666666" points="1157.5,-145.5 1010.5,-145.5 1010.5,-126.5 1157.5,-126.5 1157.5,-145.5"/>
<text text-anchor="middle" x="1084" y="-133.5" font-family="Helvetica,sans-Serif" font-size="10.00">src/d/menu/d_menu_save.cpp</text>
</a>
</g>
</g>
<!-- Node2&#45;&gt;Node16 -->
<g id="edge16" class="edge">
<title>Node2&#45;&gt;Node16</title>
<path fill="none" stroke="#63b8ff" d="M1032.08,-179.6C1046.1,-168.1 1062.64,-154.52 1073.22,-145.84"/>
<polygon fill="#63b8ff" stroke="#63b8ff" points="1029.99,-176.79 1024.48,-185.84 1034.43,-182.2 1029.99,-176.79"/>
</g>
<!-- Node17 -->
<g id="node17" class="node">
<title>Node17</title>
<g id="a_node17"><a xlink:href="d__menu__skill_8cpp.html" target="_top" xlink:title=" ">
<polygon fill="white" stroke="#666666" points="1318.5,-145.5 1175.5,-145.5 1175.5,-126.5 1318.5,-126.5 1318.5,-145.5"/>
<text text-anchor="middle" x="1247" y="-133.5" font-family="Helvetica,sans-Serif" font-size="10.00">src/d/menu/d_menu_skill.cpp</text>
</a>
</g>
</g>
<!-- Node2&#45;&gt;Node17 -->
<g id="edge17" class="edge">
<title>Node2&#45;&gt;Node17</title>
<path fill="none" stroke="#63b8ff" d="M1064.75,-185.4C1111.31,-173.03 1174.73,-156.19 1213.16,-145.99"/>
<polygon fill="#63b8ff" stroke="#63b8ff" points="1064.13,-181.94 1055.36,-187.89 1065.93,-188.71 1064.13,-181.94"/>
</g>
<!-- Node18 -->
<g id="node18" class="node">
<title>Node18</title>
<g id="a_node18"><a xlink:href="d__shop__system_8cpp.html" target="_top" xlink:title=" ">
<polygon fill="white" stroke="#666666" points="1489,-145.5 1337,-145.5 1337,-126.5 1489,-126.5 1489,-145.5"/>
<text text-anchor="middle" x="1413" y="-133.5" font-family="Helvetica,sans-Serif" font-size="10.00">src/d/shop/d_shop_system.cpp</text>
</a>
</g>
</g>
<!-- Node2&#45;&gt;Node18 -->
<g id="edge18" class="edge">
<title>Node2&#45;&gt;Node18</title>
<path fill="none" stroke="#63b8ff" d="M1065.01,-186.54C1181.11,-164.73 1213.59,-168.16 1328,-151 1338.35,-149.45 1349.4,-147.7 1359.99,-145.97"/>
<polygon fill="#63b8ff" stroke="#63b8ff" points="1064.54,-183.07 1055.37,-188.38 1065.85,-189.94 1064.54,-183.07"/>
</g>
<!-- Node4 -->
<g id="node4" class="node">
<title>Node4</title>
<g id="a_node4"><a xlink:href="d__file__select_8h.html" target="_top" xlink:title=" ">
<polygon fill="white" stroke="#666666" points="1606,-85 1510,-85 1510,-55 1606,-55 1606,-85"/>
<text text-anchor="start" x="1518" y="-73" font-family="Helvetica,sans-Serif" font-size="10.00">include/d/file/d_file</text>
<text text-anchor="middle" x="1558" y="-62" font-family="Helvetica,sans-Serif" font-size="10.00">_select.h</text>
</a>
</g>
</g>
<!-- Node3&#45;&gt;Node4 -->
<g id="edge3" class="edge">
<title>Node3&#45;&gt;Node4</title>
<path fill="none" stroke="#63b8ff" d="M1558,-114.78C1558,-105.17 1558,-93.92 1558,-85.23"/>
<polygon fill="#63b8ff" stroke="#63b8ff" points="1554.5,-114.59 1558,-124.59 1561.5,-114.59 1554.5,-114.59"/>
</g>
<!-- Node3&#45;&gt;Node6 -->
<g id="edge5" class="edge">
<title>Node3&#45;&gt;Node6</title>
<path fill="none" stroke="#63b8ff" d="M1512.03,-123.64C1507.31,-122.67 1502.57,-121.76 1498,-121 1335.5,-93.92 1140.24,-79.37 1052.17,-73.76"/>
<polygon fill="#63b8ff" stroke="#63b8ff" points="1510.94,-126.99 1521.46,-125.7 1512.43,-120.15 1510.94,-126.99"/>
</g>
<!-- Node5 -->
<g id="node5" class="node">
<title>Node5</title>
<g id="a_node5"><a xlink:href="d__file__select_8cpp.html" target="_top" xlink:title=" ">
<polygon fill="white" stroke="#666666" points="1622,-19 1494,-19 1494,0 1622,0 1622,-19"/>
<text text-anchor="middle" x="1558" y="-7" font-family="Helvetica,sans-Serif" font-size="10.00">src/d/file/d_file_select.cpp</text>
</a>
</g>
</g>
<!-- Node4&#45;&gt;Node5 -->
<g id="edge4" class="edge">
<title>Node4&#45;&gt;Node5</title>
<path fill="none" stroke="#63b8ff" d="M1558,-43.3C1558,-34.65 1558,-25.58 1558,-19.18"/>
<polygon fill="#63b8ff" stroke="#63b8ff" points="1554.5,-43.03 1558,-53.03 1561.5,-43.03 1554.5,-43.03"/>
</g>
<!-- Node8 -->
<g id="node8" class="node">
<title>Node8</title>
<g id="a_node8"><a xlink:href="d__menu__dmap_8cpp.html" target="_top" xlink:title=" ">
<polygon fill="white" stroke="#666666" points="150,-79.5 0,-79.5 0,-60.5 150,-60.5 150,-79.5"/>
<text text-anchor="middle" x="75" y="-67.5" font-family="Helvetica,sans-Serif" font-size="10.00">src/d/menu/d_menu_dmap.cpp</text>
</a>
</g>
</g>
<!-- Node7&#45;&gt;Node8 -->
<g id="edge7" class="edge">
<title>Node7&#45;&gt;Node8</title>
<path fill="none" stroke="#63b8ff" d="M196.38,-116.69C164.44,-104.67 124.05,-89.47 98.87,-79.99"/>
<polygon fill="#63b8ff" stroke="#63b8ff" points="194.84,-119.86 205.43,-120.1 197.31,-113.3 194.84,-119.86"/>
</g>
<!-- Node9 -->
<g id="node9" class="node">
<title>Node9</title>
<g id="a_node9"><a xlink:href="d__menu__fishing_8cpp.html" target="_top" xlink:title=" ">
<polygon fill="white" stroke="#666666" points="322,-79.5 168,-79.5 168,-60.5 322,-60.5 322,-79.5"/>
<text text-anchor="middle" x="245" y="-67.5" font-family="Helvetica,sans-Serif" font-size="10.00">src/d/menu/d_menu_fishing.cpp</text>
</a>
</g>
</g>
<!-- Node7&#45;&gt;Node9 -->
<g id="edge8" class="edge">
<title>Node7&#45;&gt;Node9</title>
<path fill="none" stroke="#63b8ff" d="M245,-109.59C245,-99.06 245,-87.53 245,-79.84"/>
<polygon fill="#63b8ff" stroke="#63b8ff" points="241.5,-109.28 245,-119.28 248.5,-109.28 241.5,-109.28"/>
</g>
<!-- Node10 -->
<g id="node10" class="node">
<title>Node10</title>
<g id="a_node10"><a xlink:href="d__menu__window_8cpp.html" target="_top" xlink:title=" ">
<polygon fill="white" stroke="#666666" points="499.5,-79.5 340.5,-79.5 340.5,-60.5 499.5,-60.5 499.5,-79.5"/>
<text text-anchor="middle" x="420" y="-67.5" font-family="Helvetica,sans-Serif" font-size="10.00">src/d/menu/d_menu_window.cpp</text>
</a>
</g>
</g>
<!-- Node7&#45;&gt;Node10 -->
<g id="edge9" class="edge">
<title>Node7&#45;&gt;Node10</title>
<path fill="none" stroke="#63b8ff" d="M295.06,-116.69C327.93,-104.67 369.51,-89.47 395.43,-79.99"/>
<polygon fill="#63b8ff" stroke="#63b8ff" points="293.88,-113.4 285.69,-120.12 296.29,-119.97 293.88,-113.4"/>
</g>
<!-- Node19&#45;&gt;Node2 -->
<g id="edge20" class="edge">
<title>Node19&#45;&gt;Node2</title>
<path fill="none" stroke="#63b8ff" d="M1092.82,-247.45C1073.84,-237.73 1051.31,-226.2 1033.96,-217.31"/>
<polygon fill="#63b8ff" stroke="#63b8ff" points="1091.1,-250.51 1101.6,-251.95 1094.29,-244.27 1091.1,-250.51"/>
</g>
<!-- Node20 -->
<g id="node20" class="node">
<title>Node20</title>
<g id="a_node20"><a xlink:href="d__select__icon_8cpp.html" target="_top" xlink:title=" ">
<polygon fill="white" stroke="#666666" points="1190.5,-211.5 1071.5,-211.5 1071.5,-192.5 1190.5,-192.5 1190.5,-211.5"/>
<text text-anchor="middle" x="1131" y="-199.5" font-family="Helvetica,sans-Serif" font-size="10.00">src/d/d_select_icon.cpp</text>
</a>
</g>
</g>
<!-- Node19&#45;&gt;Node20 -->
<g id="edge21" class="edge">
<title>Node19&#45;&gt;Node20</title>
<path fill="none" stroke="#63b8ff" d="M1131,-241.59C1131,-231.06 1131,-219.53 1131,-211.84"/>
<polygon fill="#63b8ff" stroke="#63b8ff" points="1127.5,-241.28 1131,-251.28 1134.5,-241.28 1127.5,-241.28"/>
</g>
<!-- Node22 -->
<g id="node22" class="node">
<title>Node22</title>
<g id="a_node22"><a xlink:href="d__a__player_8cpp.html" target="_top" xlink:title=" ">
<polygon fill="white" stroke="#666666" points="1379,-211.5 1265,-211.5 1265,-192.5 1379,-192.5 1379,-211.5"/>
<text text-anchor="middle" x="1322" y="-199.5" font-family="Helvetica,sans-Serif" font-size="10.00">src/d/a/d_a_player.cpp</text>
</a>
</g>
</g>
<!-- Node21&#45;&gt;Node22 -->
<g id="edge23" class="edge">
<title>Node21&#45;&gt;Node22</title>
<path fill="none" stroke="#63b8ff" d="M1322,-241.59C1322,-231.06 1322,-219.53 1322,-211.84"/>
<polygon fill="#63b8ff" stroke="#63b8ff" points="1318.5,-241.28 1322,-251.28 1325.5,-241.28 1318.5,-241.28"/>
</g>
</g>
</svg>
