<?xml version="1.0" encoding="UTF-8" standalone="no"?>
<!DOCTYPE svg PUBLIC "-//W3C//DTD SVG 1.1//EN"
 "http://www.w3.org/Graphics/SVG/1.1/DTD/svg11.dtd">
<!-- Generated by graphviz version 7.0.5 (20221223.1930)
 -->
<!-- Title: include/JSystem/J2DGraph/J2DTevs.h Pages: 1 -->
<svg width="426pt" height="379pt"
 viewBox="0.00 0.00 426.00 379.00" xmlns="http://www.w3.org/2000/svg" xmlns:xlink="http://www.w3.org/1999/xlink">
<g id="graph0" class="graph" transform="scale(1 1) rotate(0) translate(4 375)">
<title>include/JSystem/J2DGraph/J2DTevs.h</title>
<!-- Node1 -->
<g id="node1" class="node">
<title>Node1</title>
<g id="a_node1"><a xlink:title=" ">
<polygon fill="#999999" stroke="#666666" points="205.5,-371 70.5,-371 70.5,-341 205.5,-341 205.5,-371"/>
<text text-anchor="start" x="78.5" y="-359" font-family="Helvetica,sans-Serif" font-size="10.00">include/JSystem/J2DGraph</text>
<text text-anchor="middle" x="138" y="-348" font-family="Helvetica,sans-Serif" font-size="10.00">/J2DTevs.h</text>
</a>
</g>
</g>
<!-- Node2 -->
<g id="node2" class="node">
<title>Node2</title>
<g id="a_node2"><a xlink:href="GXEnum_8h.html" target="_top" xlink:title=" ">
<polygon fill="white" stroke="#666666" points="110,-250 0,-250 0,-231 110,-231 110,-250"/>
<text text-anchor="middle" x="55" y="-238" font-family="Helvetica,sans-Serif" font-size="10.00">dolphin/gx/GXEnum.h</text>
</a>
</g>
</g>
<!-- Node1&#45;&gt;Node2 -->
<g id="edge1" class="edge">
<title>Node1&#45;&gt;Node2</title>
<path fill="none" stroke="#63b8ff" d="M127.49,-340.63C112.36,-319.93 84.46,-281.78 68.03,-259.32"/>
<polygon fill="#63b8ff" stroke="#63b8ff" points="71.01,-257.46 62.28,-251.45 65.35,-261.59 71.01,-257.46"/>
</g>
<!-- Node3 -->
<g id="node3" class="node">
<title>Node3</title>
<g id="a_node3"><a xlink:href="types_8h.html" target="_top" xlink:title=" ">
<polygon fill="white" stroke="#666666" points="216.5,-85 135.5,-85 135.5,-66 216.5,-66 216.5,-85"/>
<text text-anchor="middle" x="176" y="-73" font-family="Helvetica,sans-Serif" font-size="10.00">dolphin/types.h</text>
</a>
</g>
</g>
<!-- Node1&#45;&gt;Node3 -->
<g id="edge13" class="edge">
<title>Node1&#45;&gt;Node3</title>
<path fill="none" stroke="#63b8ff" d="M138,-340.67C138,-319.14 138,-277.17 138,-241.5 138,-241.5 138,-241.5 138,-184.5 138,-151.65 153.84,-116.19 165.07,-95.19"/>
<polygon fill="#63b8ff" stroke="#63b8ff" points="168,-97.13 169.82,-86.69 161.88,-93.72 168,-97.13"/>
</g>
<!-- Node5 -->
<g id="node5" class="node">
<title>Node5</title>
<g id="a_node5"><a xlink:href="mtxvec_8h.html" target="_top" xlink:title=" ">
<polygon fill="white" stroke="#666666" points="274,-305 166,-305 166,-286 274,-286 274,-305"/>
<text text-anchor="middle" x="220" y="-293" font-family="Helvetica,sans-Serif" font-size="10.00">dolphin/mtx/mtxvec.h</text>
</a>
</g>
</g>
<!-- Node1&#45;&gt;Node5 -->
<g id="edge4" class="edge">
<title>Node1&#45;&gt;Node5</title>
<path fill="none" stroke="#63b8ff" d="M158.27,-340.54C170.54,-331.78 186.18,-320.63 198.65,-311.73"/>
<polygon fill="#63b8ff" stroke="#63b8ff" points="200.5,-314.71 206.61,-306.05 196.43,-309.01 200.5,-314.71"/>
</g>
<!-- Node2&#45;&gt;Node3 -->
<g id="edge2" class="edge">
<title>Node2&#45;&gt;Node3</title>
<path fill="none" stroke="#63b8ff" d="M58.94,-230.53C68.29,-209.84 93.35,-157.75 124,-121 132.88,-110.35 144.47,-100.16 154.46,-92.23"/>
<polygon fill="#63b8ff" stroke="#63b8ff" points="156.39,-95.16 162.19,-86.29 152.13,-89.6 156.39,-95.16"/>
</g>
<!-- Node4 -->
<g id="node4" class="node">
<title>Node4</title>
<g id="a_node4"><a xlink:href="stddef_8h.html" target="_top" xlink:title=" ">
<polygon fill="white" stroke="#666666" points="244,-30 108,-30 108,0 244,0 244,-30"/>
<text text-anchor="start" x="116" y="-18" font-family="Helvetica,sans-Serif" font-size="10.00">MSL_C/MSL_Common/Src</text>
<text text-anchor="middle" x="176" y="-7" font-family="Helvetica,sans-Serif" font-size="10.00">/stddef.h</text>
</a>
</g>
</g>
<!-- Node3&#45;&gt;Node4 -->
<g id="edge3" class="edge">
<title>Node3&#45;&gt;Node4</title>
<path fill="none" stroke="#63b8ff" d="M176,-65.87C176,-59.4 176,-50.2 176,-41.45"/>
<polygon fill="#63b8ff" stroke="#63b8ff" points="179.5,-41.63 176,-31.63 172.5,-41.63 179.5,-41.63"/>
</g>
<!-- Node6 -->
<g id="node6" class="node">
<title>Node6</title>
<g id="a_node6"><a xlink:href="mtx_8h.html" target="_top" xlink:title=" ">
<polygon fill="white" stroke="#666666" points="266,-250 174,-250 174,-231 266,-231 266,-250"/>
<text text-anchor="middle" x="220" y="-238" font-family="Helvetica,sans-Serif" font-size="10.00">dolphin/mtx/mtx.h</text>
</a>
</g>
</g>
<!-- Node5&#45;&gt;Node6 -->
<g id="edge5" class="edge">
<title>Node5&#45;&gt;Node6</title>
<path fill="none" stroke="#63b8ff" d="M220,-285.75C220,-279.27 220,-270.16 220,-261.9"/>
<polygon fill="#63b8ff" stroke="#63b8ff" points="223.5,-261.96 220,-251.96 216.5,-261.96 223.5,-261.96"/>
</g>
<!-- Node6&#45;&gt;Node3 -->
<g id="edge12" class="edge">
<title>Node6&#45;&gt;Node3</title>
<path fill="none" stroke="#63b8ff" d="M217.63,-230.74C210.8,-205.42 190.91,-131.72 181.31,-96.16"/>
<polygon fill="#63b8ff" stroke="#63b8ff" points="184.76,-95.51 178.77,-86.77 178,-97.33 184.76,-95.51"/>
</g>
<!-- Node7 -->
<g id="node7" class="node">
<title>Node7</title>
<g id="a_node7"><a xlink:href="mtx44_8h.html" target="_top" xlink:title=" ">
<polygon fill="white" stroke="#666666" points="307.5,-140 204.5,-140 204.5,-121 307.5,-121 307.5,-140"/>
<text text-anchor="middle" x="256" y="-128" font-family="Helvetica,sans-Serif" font-size="10.00">dolphin/mtx/mtx44.h</text>
</a>
</g>
</g>
<!-- Node6&#45;&gt;Node7 -->
<g id="edge6" class="edge">
<title>Node6&#45;&gt;Node7</title>
<path fill="none" stroke="#63b8ff" d="M222.38,-230.81C225.8,-218.52 232.4,-195.39 239,-176 241.83,-167.68 245.24,-158.6 248.26,-150.83"/>
<polygon fill="#63b8ff" stroke="#63b8ff" points="251.44,-152.29 251.86,-141.7 244.93,-149.72 251.44,-152.29"/>
</g>
<!-- Node8 -->
<g id="node8" class="node">
<title>Node8</title>
<g id="a_node8"><a xlink:href="quat_8h.html" target="_top" xlink:title=" ">
<polygon fill="white" stroke="#666666" points="343.5,-195 248.5,-195 248.5,-176 343.5,-176 343.5,-195"/>
<text text-anchor="middle" x="296" y="-183" font-family="Helvetica,sans-Serif" font-size="10.00">dolphin/mtx/quat.h</text>
</a>
</g>
</g>
<!-- Node6&#45;&gt;Node8 -->
<g id="edge8" class="edge">
<title>Node6&#45;&gt;Node8</title>
<path fill="none" stroke="#63b8ff" d="M232.89,-230.51C244.1,-222.7 260.57,-211.21 273.88,-201.93"/>
<polygon fill="#63b8ff" stroke="#63b8ff" points="275.86,-204.81 282.06,-196.22 271.85,-199.07 275.86,-204.81"/>
</g>
<!-- Node9 -->
<g id="node9" class="node">
<title>Node9</title>
<g id="a_node9"><a xlink:href="vec_8h.html" target="_top" xlink:title=" ">
<polygon fill="white" stroke="#666666" points="418,-140 326,-140 326,-121 418,-121 418,-140"/>
<text text-anchor="middle" x="372" y="-128" font-family="Helvetica,sans-Serif" font-size="10.00">dolphin/mtx/vec.h</text>
</a>
</g>
</g>
<!-- Node6&#45;&gt;Node9 -->
<g id="edge11" class="edge">
<title>Node6&#45;&gt;Node9</title>
<path fill="none" stroke="#63b8ff" d="M266.22,-234.52C294.47,-229.17 329.4,-218.06 352,-195 363.4,-183.37 368.31,-165.31 370.42,-151.42"/>
<polygon fill="#63b8ff" stroke="#63b8ff" points="373.88,-151.97 371.51,-141.64 366.92,-151.19 373.88,-151.97"/>
</g>
<!-- Node7&#45;&gt;Node3 -->
<g id="edge7" class="edge">
<title>Node7&#45;&gt;Node3</title>
<path fill="none" stroke="#63b8ff" d="M242.43,-120.51C230.52,-112.62 212.95,-100.98 198.87,-91.65"/>
<polygon fill="#63b8ff" stroke="#63b8ff" points="200.9,-88.8 190.63,-86.19 197.04,-94.63 200.9,-88.8"/>
</g>
<!-- Node8&#45;&gt;Node9 -->
<g id="edge9" class="edge">
<title>Node8&#45;&gt;Node9</title>
<path fill="none" stroke="#63b8ff" d="M308.89,-175.51C320.1,-167.7 336.57,-156.21 349.88,-146.93"/>
<polygon fill="#63b8ff" stroke="#63b8ff" points="351.86,-149.81 358.06,-141.22 347.85,-144.07 351.86,-149.81"/>
</g>
<!-- Node9&#45;&gt;Node3 -->
<g id="edge10" class="edge">
<title>Node9&#45;&gt;Node3</title>
<path fill="none" stroke="#63b8ff" d="M338.75,-120.51C305.99,-111.65 255.75,-98.07 219.76,-88.33"/>
<polygon fill="#63b8ff" stroke="#63b8ff" points="221.11,-85.07 210.55,-85.84 219.28,-91.83 221.11,-85.07"/>
</g>
</g>
</svg>
