<?xml version="1.0" encoding="UTF-8" standalone="no"?>
<!DOCTYPE svg PUBLIC "-//W3C//DTD SVG 1.1//EN"
 "http://www.w3.org/Graphics/SVG/1.1/DTD/svg11.dtd">
<!-- Generated by graphviz version 2.44.0 ()
 -->
<!-- Title: include/JSystem/J2DGraph/J2DTextBox.h Pages: 1 -->
<!--zoomable 441 -->
<svg id="main" version="1.1" xmlns="http://www.w3.org/2000/svg" xmlns:xlink="http://www.w3.org/1999/xlink" xml:space="preserve" onload="init(evt)">
<style type="text/css"><![CDATA[
.edge:hover path { stroke: red; }
.edge:hover polygon { stroke: red; fill: red; }
]]></style>
<script type="text/javascript"><![CDATA[
var edges = document.getElementsByTagName('g');
if (edges && edges.length) {
  for (var i=0;i<edges.length;i++) {
    if (edges[i].id.substr(0,4)=='edge') {
      edges[i].setAttribute('class','edge');
    }
  }
}
]]></script>
        <defs>
                <circle id="rim" cx="0" cy="0" r="7"/>
                <circle id="rim2" cx="0" cy="0" r="3.5"/>
                <g id="zoomPlus">
                        <use xlink:href="#rim" fill="#404040">
                                <set attributeName="fill" to="#808080" begin="zoomplus.mouseover" end="zoomplus.mouseout"/>
                        </use>
                        <path d="M-4,0h8M0,-4v8" fill="none" stroke="white" stroke-width="1.5" pointer-events="none"/>
                </g>
                <g id="zoomMin">
                        <use xlink:href="#rim" fill="#404040">
                                <set attributeName="fill" to="#808080" begin="zoomminus.mouseover" end="zoomminus.mouseout"/>
                        </use>
                        <path d="M-4,0h8" fill="none" stroke="white" stroke-width="1.5" pointer-events="none"/>
                </g>
                <g id="dirArrow">
                        <path fill="none" stroke="white" stroke-width="1.5" d="M0,-3.0v7 M-2.5,-0.5L0,-3.0L2.5,-0.5"/>
                </g>
               <g id="resetDef">
                       <use xlink:href="#rim2" fill="#404040">
                               <set attributeName="fill" to="#808080" begin="reset.mouseover" end="reset.mouseout"/>
                       </use>
               </g>
        </defs>

<script type="text/javascript">
var viewWidth = 2963;
var viewHeight = 441;
var sectionId = 'dynsection-1';
</script>
<script xlink:href="svgpan.js"/>
<svg id="graph" class="graph">
<g id="viewport">
<title>include/JSystem/J2DGraph/J2DTextBox.h</title>
<polygon fill="white" stroke="transparent" points="-4,4 -4,-437 2958.79,-437 2958.79,4 -4,4"/>
<!-- Node1 -->
<g id="node1" class="node">
<title>Node1</title>
<g id="a_node1"><a xlink:title=" ">
<polygon fill="#bfbfbf" stroke="black" points="213,-402.5 213,-432.5 348,-432.5 348,-402.5 213,-402.5"/>
<text text-anchor="start" x="221" y="-420.5" font-family="Helvetica,sans-Serif" font-size="10.00">include/JSystem/J2DGraph</text>
<text text-anchor="middle" x="280.5" y="-409.5" font-family="Helvetica,sans-Serif" font-size="10.00">/J2DTextBox.h</text>
</a>
</g>
</g>
<!-- Node2 -->
<g id="node2" class="node">
<title>Node2</title>
<g id="a_node2"><a xlink:href="J2DTextBox_8cpp.html" target="_top" xlink:title=" ">
<polygon fill="white" stroke="black" points="0,-268.5 0,-298.5 119,-298.5 119,-268.5 0,-268.5"/>
<text text-anchor="start" x="8" y="-286.5" font-family="Helvetica,sans-Serif" font-size="10.00">libs/JSystem/J2DGraph</text>
<text text-anchor="middle" x="59.5" y="-275.5" font-family="Helvetica,sans-Serif" font-size="10.00">/J2DTextBox.cpp</text>
</a>
</g>
</g>
<!-- Node1&#45;&gt;Node2 -->
<g id="edge1" class="edge">
<title>Node1&#45;&gt;Node2</title>
<path fill="none" stroke="midnightblue" d="M205.75,-399.48C180.84,-391.7 153.78,-380.82 131.5,-366 104.15,-347.81 80.72,-316.69 68.51,-298.63"/>
<polygon fill="midnightblue" stroke="midnightblue" points="204.96,-402.89 215.54,-402.41 206.97,-396.19 204.96,-402.89"/>
</g>
<!-- Node3 -->
<g id="node3" class="node">
<title>Node3</title>
<g id="a_node3"><a xlink:href="d__pane__class_8h.html" target="_top" xlink:title=" ">
<polygon fill="white" stroke="black" points="556.5,-335.5 556.5,-365.5 670.5,-365.5 670.5,-335.5 556.5,-335.5"/>
<text text-anchor="start" x="564.5" y="-353.5" font-family="Helvetica,sans-Serif" font-size="10.00">include/d/pane/d_pane</text>
<text text-anchor="middle" x="613.5" y="-342.5" font-family="Helvetica,sans-Serif" font-size="10.00">_class.h</text>
</a>
</g>
</g>
<!-- Node1&#45;&gt;Node3 -->
<g id="edge2" class="edge">
<title>Node1&#45;&gt;Node3</title>
<path fill="none" stroke="midnightblue" d="M358.2,-401.33C418.83,-389.5 501.68,-373.33 556.34,-362.66"/>
<polygon fill="midnightblue" stroke="midnightblue" points="357.43,-397.92 348.29,-403.27 358.77,-404.79 357.43,-397.92"/>
</g>
<!-- Node32 -->
<g id="node32" class="node">
<title>Node32</title>
<g id="a_node32"><a xlink:href="J2DPrint_8h.html" target="_top" xlink:title=" ">
<polygon fill="white" stroke="black" points="141,-335.5 141,-365.5 276,-365.5 276,-335.5 141,-335.5"/>
<text text-anchor="start" x="149" y="-353.5" font-family="Helvetica,sans-Serif" font-size="10.00">include/JSystem/J2DGraph</text>
<text text-anchor="middle" x="208.5" y="-342.5" font-family="Helvetica,sans-Serif" font-size="10.00">/J2DPrint.h</text>
</a>
</g>
</g>
<!-- Node1&#45;&gt;Node32 -->
<g id="edge39" class="edge">
<title>Node1&#45;&gt;Node32</title>
<path fill="none" stroke="midnightblue" d="M257.35,-395.6C246.48,-385.78 233.8,-374.34 224.09,-365.58"/>
<polygon fill="midnightblue" stroke="midnightblue" points="255.11,-398.29 264.88,-402.4 259.8,-393.1 255.11,-398.29"/>
</g>
<!-- Node34 -->
<g id="node34" class="node">
<title>Node34</title>
<g id="a_node34"><a xlink:href="J2DTextBoxEx_8h.html" target="_top" xlink:title=" ">
<polygon fill="white" stroke="black" points="274,-268.5 274,-298.5 409,-298.5 409,-268.5 274,-268.5"/>
<text text-anchor="start" x="282" y="-286.5" font-family="Helvetica,sans-Serif" font-size="10.00">include/JSystem/J2DGraph</text>
<text text-anchor="middle" x="341.5" y="-275.5" font-family="Helvetica,sans-Serif" font-size="10.00">/J2DTextBoxEx.h</text>
</a>
</g>
</g>
<!-- Node1&#45;&gt;Node34 -->
<g id="edge44" class="edge">
<title>Node1&#45;&gt;Node34</title>
<path fill="none" stroke="midnightblue" d="M291.31,-393.12C303.98,-365.68 324.59,-321.09 335.02,-298.52"/>
<polygon fill="midnightblue" stroke="midnightblue" points="288.05,-391.83 287.03,-402.37 294.4,-394.76 288.05,-391.83"/>
</g>
<!-- Node4 -->
<g id="node4" class="node">
<title>Node4</title>
<g id="a_node4"><a xlink:href="d__pane__class_8cpp.html" target="_top" xlink:title=" ">
<polygon fill="white" stroke="black" points="542,-274 542,-293 685,-293 685,-274 542,-274"/>
<text text-anchor="middle" x="613.5" y="-281" font-family="Helvetica,sans-Serif" font-size="10.00">src/d/pane/d_pane_class.cpp</text>
</a>
</g>
</g>
<!-- Node3&#45;&gt;Node4 -->
<g id="edge3" class="edge">
<title>Node3&#45;&gt;Node4</title>
<path fill="none" stroke="midnightblue" d="M613.5,-325.25C613.5,-314.02 613.5,-301.38 613.5,-293.19"/>
<polygon fill="midnightblue" stroke="midnightblue" points="610,-325.4 613.5,-335.4 617,-325.4 610,-325.4"/>
</g>
<!-- Node5 -->
<g id="node5" class="node">
<title>Node5</title>
<g id="a_node5"><a xlink:href="d__kantera__icon__meter_8h.html" target="_top" xlink:title=" ">
<polygon fill="white" stroke="black" points="642,-67.5 642,-97.5 743,-97.5 743,-67.5 642,-67.5"/>
<text text-anchor="start" x="650" y="-85.5" font-family="Helvetica,sans-Serif" font-size="10.00">include/d/d_kantera</text>
<text text-anchor="middle" x="692.5" y="-74.5" font-family="Helvetica,sans-Serif" font-size="10.00">_icon_meter.h</text>
</a>
</g>
</g>
<!-- Node3&#45;&gt;Node5 -->
<g id="edge4" class="edge">
<title>Node3&#45;&gt;Node5</title>
<path fill="none" stroke="midnightblue" d="M660.34,-330.53C673.43,-322.8 686.09,-312.44 693.5,-299 730.53,-231.83 707.61,-134.05 697.01,-97.75"/>
<polygon fill="midnightblue" stroke="midnightblue" points="658.38,-327.61 651.27,-335.47 661.73,-333.76 658.38,-327.61"/>
</g>
<!-- Node7 -->
<g id="node7" class="node">
<title>Node7</title>
<g id="a_node7"><a xlink:href="d__select__icon_8h.html" target="_top" xlink:title=" ">
<polygon fill="white" stroke="black" points="429,-268.5 429,-298.5 524,-298.5 524,-268.5 429,-268.5"/>
<text text-anchor="start" x="437" y="-286.5" font-family="Helvetica,sans-Serif" font-size="10.00">include/d/d_select</text>
<text text-anchor="middle" x="476.5" y="-275.5" font-family="Helvetica,sans-Serif" font-size="10.00">_icon.h</text>
</a>
</g>
</g>
<!-- Node3&#45;&gt;Node7 -->
<g id="edge6" class="edge">
<title>Node3&#45;&gt;Node7</title>
<path fill="none" stroke="midnightblue" d="M574.49,-330.99C552.78,-320.69 526.17,-308.07 506.17,-298.58"/>
<polygon fill="midnightblue" stroke="midnightblue" points="573.24,-334.27 583.77,-335.4 576.24,-327.95 573.24,-334.27"/>
</g>
<!-- Node9 -->
<g id="node9" class="node">
<title>Node9</title>
<g id="a_node9"><a xlink:href="d__meter2__info_8h.html" target="_top" xlink:title=" ">
<polygon fill="white" stroke="black" points="1846,-268.5 1846,-298.5 1973,-298.5 1973,-268.5 1846,-268.5"/>
<text text-anchor="start" x="1854" y="-286.5" font-family="Helvetica,sans-Serif" font-size="10.00">include/d/meter/d_meter2</text>
<text text-anchor="middle" x="1909.5" y="-275.5" font-family="Helvetica,sans-Serif" font-size="10.00">_info.h</text>
</a>
</g>
</g>
<!-- Node3&#45;&gt;Node9 -->
<g id="edge8" class="edge">
<title>Node3&#45;&gt;Node9</title>
<path fill="none" stroke="midnightblue" d="M680.86,-346.12C905.38,-334.86 1626.43,-298.7 1845.67,-287.7"/>
<polygon fill="midnightblue" stroke="midnightblue" points="680.67,-342.63 670.86,-346.62 681.02,-349.62 680.67,-342.63"/>
</g>
<!-- Node6 -->
<g id="node6" class="node">
<title>Node6</title>
<g id="a_node6"><a xlink:href="d__kantera__icon__meter_8cpp.html" target="_top" xlink:title=" ">
<polygon fill="white" stroke="black" points="639,-0.5 639,-30.5 746,-30.5 746,-0.5 639,-0.5"/>
<text text-anchor="start" x="647" y="-18.5" font-family="Helvetica,sans-Serif" font-size="10.00">src/d/d_kantera_icon</text>
<text text-anchor="middle" x="692.5" y="-7.5" font-family="Helvetica,sans-Serif" font-size="10.00">_meter.cpp</text>
</a>
</g>
</g>
<!-- Node5&#45;&gt;Node6 -->
<g id="edge5" class="edge">
<title>Node5&#45;&gt;Node6</title>
<path fill="none" stroke="midnightblue" d="M692.5,-57.11C692.5,-48.15 692.5,-38.32 692.5,-30.58"/>
<polygon fill="midnightblue" stroke="midnightblue" points="689,-57.4 692.5,-67.4 696,-57.4 689,-57.4"/>
</g>
<!-- Node8 -->
<g id="node8" class="node">
<title>Node8</title>
<g id="a_node8"><a xlink:href="d__select__icon_8cpp.html" target="_top" xlink:title=" ">
<polygon fill="white" stroke="black" points="418,-207 418,-226 537,-226 537,-207 418,-207"/>
<text text-anchor="middle" x="477.5" y="-214" font-family="Helvetica,sans-Serif" font-size="10.00">src/d/d_select_icon.cpp</text>
</a>
</g>
</g>
<!-- Node7&#45;&gt;Node8 -->
<g id="edge7" class="edge">
<title>Node7&#45;&gt;Node8</title>
<path fill="none" stroke="midnightblue" d="M476.87,-258.25C477.05,-247.02 477.24,-234.38 477.37,-226.19"/>
<polygon fill="midnightblue" stroke="midnightblue" points="473.37,-258.34 476.72,-268.4 480.37,-258.45 473.37,-258.34"/>
</g>
<!-- Node10 -->
<g id="node10" class="node">
<title>Node10</title>
<g id="a_node10"><a xlink:href="d__com__inf__game_8cpp.html" target="_top" xlink:title=" ">
<polygon fill="white" stroke="black" points="2505.5,-0.5 2505.5,-30.5 2613.5,-30.5 2613.5,-0.5 2505.5,-0.5"/>
<text text-anchor="start" x="2513.5" y="-18.5" font-family="Helvetica,sans-Serif" font-size="10.00">src/d/com/d_com_inf</text>
<text text-anchor="middle" x="2559.5" y="-7.5" font-family="Helvetica,sans-Serif" font-size="10.00">_game.cpp</text>
</a>
</g>
</g>
<!-- Node9&#45;&gt;Node10 -->
<g id="edge9" class="edge">
<title>Node9&#45;&gt;Node10</title>
<path fill="none" stroke="midnightblue" d="M1835.51,-279.99C1563.13,-269.48 639.73,-222.13 790.5,-67 821.13,-35.48 2210.98,-19.96 2505.16,-17.02"/>
<polygon fill="midnightblue" stroke="midnightblue" points="1835.56,-283.49 1845.69,-280.37 1835.83,-276.5 1835.56,-283.49"/>
</g>
<!-- Node11 -->
<g id="node11" class="node">
<title>Node11</title>
<g id="a_node11"><a xlink:href="d__item_8cpp.html" target="_top" xlink:title=" ">
<polygon fill="white" stroke="black" points="2777,-6 2777,-25 2866,-25 2866,-6 2777,-6"/>
<text text-anchor="middle" x="2821.5" y="-13" font-family="Helvetica,sans-Serif" font-size="10.00">src/d/d_item.cpp</text>
</a>
</g>
</g>
<!-- Node9&#45;&gt;Node11 -->
<g id="edge10" class="edge">
<title>Node9&#45;&gt;Node11</title>
<path fill="none" stroke="midnightblue" d="M1983.67,-281.19C2200.33,-275.63 2824.68,-246.76 2947.5,-98 2976.69,-62.64 2906.19,-37.38 2859.28,-25.04"/>
<polygon fill="midnightblue" stroke="midnightblue" points="1983.27,-277.7 1973.36,-281.44 1983.44,-284.7 1983.27,-277.7"/>
</g>
<!-- Node12 -->
<g id="node12" class="node">
<title>Node12</title>
<g id="a_node12"><a xlink:href="d__meter2__info_8cpp.html" target="_top" xlink:title=" ">
<polygon fill="white" stroke="black" points="2828.5,-67.5 2828.5,-97.5 2938.5,-97.5 2938.5,-67.5 2828.5,-67.5"/>
<text text-anchor="start" x="2836.5" y="-85.5" font-family="Helvetica,sans-Serif" font-size="10.00">src/d/meter/d_meter2</text>
<text text-anchor="middle" x="2883.5" y="-74.5" font-family="Helvetica,sans-Serif" font-size="10.00">_info.cpp</text>
</a>
</g>
</g>
<!-- Node9&#45;&gt;Node12 -->
<g id="edge11" class="edge">
<title>Node9&#45;&gt;Node12</title>
<path fill="none" stroke="midnightblue" d="M1982.92,-268.2C2137.78,-237.92 2509.12,-164.62 2819.5,-98 2822.4,-97.38 2825.36,-96.73 2828.36,-96.08"/>
<polygon fill="midnightblue" stroke="midnightblue" points="1982.18,-264.78 1973.04,-270.13 1983.53,-271.65 1982.18,-264.78"/>
</g>
<!-- Node13 -->
<g id="node13" class="node">
<title>Node13</title>
<g id="a_node13"><a xlink:href="d__save_8cpp.html" target="_top" xlink:title=" ">
<polygon fill="white" stroke="black" points="800,-73 800,-92 915,-92 915,-73 800,-73"/>
<text text-anchor="middle" x="857.5" y="-80" font-family="Helvetica,sans-Serif" font-size="10.00">src/d/save/d_save.cpp</text>
</a>
</g>
</g>
<!-- Node9&#45;&gt;Node13 -->
<g id="edge12" class="edge">
<title>Node9&#45;&gt;Node13</title>
<path fill="none" stroke="midnightblue" d="M1835.73,-269.41C1671.66,-240.14 1264.23,-166.56 924.5,-98 915.28,-96.14 905.38,-94.05 896.08,-92.04"/>
<polygon fill="midnightblue" stroke="midnightblue" points="1835.25,-272.88 1845.71,-271.19 1836.48,-265.99 1835.25,-272.88"/>
</g>
<!-- Node14 -->
<g id="node14" class="node">
<title>Node14</title>
<g id="a_node14"><a xlink:href="d__a__alink_8h.html" target="_top" xlink:title=" ">
<polygon fill="white" stroke="black" points="1783.5,-207 1783.5,-226 1899.5,-226 1899.5,-207 1783.5,-207"/>
<text text-anchor="middle" x="1841.5" y="-214" font-family="Helvetica,sans-Serif" font-size="10.00">include/d/a/d_a_alink.h</text>
</a>
</g>
</g>
<!-- Node9&#45;&gt;Node14 -->
<g id="edge13" class="edge">
<title>Node9&#45;&gt;Node14</title>
<path fill="none" stroke="midnightblue" d="M1887.36,-261.34C1874.87,-249.4 1859.95,-235.14 1850.6,-226.19"/>
<polygon fill="midnightblue" stroke="midnightblue" points="1885.1,-264.02 1894.75,-268.4 1889.93,-258.96 1885.1,-264.02"/>
</g>
<!-- Node30 -->
<g id="node30" class="node">
<title>Node30</title>
<g id="a_node30"><a xlink:href="d__menu__window_8h.html" target="_top" xlink:title=" ">
<polygon fill="white" stroke="black" points="1917.5,-201.5 1917.5,-231.5 2037.5,-231.5 2037.5,-201.5 1917.5,-201.5"/>
<text text-anchor="start" x="1925.5" y="-219.5" font-family="Helvetica,sans-Serif" font-size="10.00">include/d/menu/d_menu</text>
<text text-anchor="middle" x="1977.5" y="-208.5" font-family="Helvetica,sans-Serif" font-size="10.00">_window.h</text>
</a>
</g>
</g>
<!-- Node9&#45;&gt;Node30 -->
<g id="edge36" class="edge">
<title>Node9&#45;&gt;Node30</title>
<path fill="none" stroke="midnightblue" d="M1925.57,-261.02C1935.05,-251.34 1946.97,-240.17 1957.1,-231.58"/>
<polygon fill="midnightblue" stroke="midnightblue" points="1922.92,-258.73 1918.58,-268.4 1928,-263.55 1922.92,-258.73"/>
</g>
<!-- Node15 -->
<g id="node15" class="node">
<title>Node15</title>
<g id="a_node15"><a xlink:href="d__a__alink_8cpp.html" target="_top" xlink:title=" ">
<polygon fill="white" stroke="black" points="2701,-73 2701,-92 2810,-92 2810,-73 2701,-73"/>
<text text-anchor="middle" x="2755.5" y="-80" font-family="Helvetica,sans-Serif" font-size="10.00">src/d/a/d_a_alink.cpp</text>
</a>
</g>
</g>
<!-- Node14&#45;&gt;Node15 -->
<g id="edge14" class="edge">
<title>Node14&#45;&gt;Node15</title>
<path fill="none" stroke="midnightblue" d="M1854.21,-198.94C1871.24,-177.26 1901.11,-141.18 1916.5,-134 1994.72,-97.5 2606.99,-109.73 2692.5,-98 2702.73,-96.6 2713.74,-94.33 2723.66,-92"/>
<polygon fill="midnightblue" stroke="midnightblue" points="1851.35,-196.92 1847.97,-206.96 1856.87,-201.22 1851.35,-196.92"/>
</g>
<!-- Node16 -->
<g id="node16" class="node">
<title>Node16</title>
<g id="a_node16"><a xlink:href="d__com__inf__game_8h.html" target="_top" xlink:title=" ">
<polygon fill="white" stroke="black" points="1759.5,-134.5 1759.5,-164.5 1869.5,-164.5 1869.5,-134.5 1759.5,-134.5"/>
<text text-anchor="start" x="1767.5" y="-152.5" font-family="Helvetica,sans-Serif" font-size="10.00">include/d/com/d_com</text>
<text text-anchor="middle" x="1814.5" y="-141.5" font-family="Helvetica,sans-Serif" font-size="10.00">_inf_game.h</text>
</a>
</g>
</g>
<!-- Node14&#45;&gt;Node16 -->
<g id="edge15" class="edge">
<title>Node14&#45;&gt;Node16</title>
<path fill="none" stroke="midnightblue" d="M1833.98,-197.39C1829.67,-187.02 1824.35,-174.2 1820.35,-164.59"/>
<polygon fill="midnightblue" stroke="midnightblue" points="1830.79,-198.84 1837.86,-206.73 1837.25,-196.16 1830.79,-198.84"/>
</g>
<!-- Node16&#45;&gt;Node5 -->
<g id="edge35" class="edge">
<title>Node16&#45;&gt;Node5</title>
<path fill="none" stroke="midnightblue" d="M1749.11,-147.49C1586.6,-144.49 1151.47,-133.52 790.5,-98 775.1,-96.48 758.41,-94.24 743.25,-91.97"/>
<polygon fill="midnightblue" stroke="midnightblue" points="1749.35,-150.99 1759.41,-147.67 1749.48,-143.99 1749.35,-150.99"/>
</g>
<!-- Node16&#45;&gt;Node10 -->
<g id="edge20" class="edge">
<title>Node16&#45;&gt;Node10</title>
<path fill="none" stroke="midnightblue" d="M1879.68,-134.53C1880.96,-134.34 1882.24,-134.17 1883.5,-134 1955.98,-124.45 2484.5,-145 2540.5,-98 2560.09,-81.56 2561.72,-49.2 2560.83,-30.59"/>
<polygon fill="midnightblue" stroke="midnightblue" points="1879.06,-131.08 1869.73,-136.12 1880.16,-138 1879.06,-131.08"/>
</g>
<!-- Node16&#45;&gt;Node12 -->
<g id="edge27" class="edge">
<title>Node16&#45;&gt;Node12</title>
<path fill="none" stroke="midnightblue" d="M1879.79,-138.22C1891.97,-136.58 1904.6,-135.08 1916.5,-134 2316.51,-97.69 2421.31,-150.59 2819.5,-98 2822.44,-97.61 2825.44,-97.15 2828.46,-96.64"/>
<polygon fill="midnightblue" stroke="midnightblue" points="1879.13,-134.78 1869.7,-139.61 1880.08,-141.71 1879.13,-134.78"/>
</g>
<!-- Node16&#45;&gt;Node13 -->
<g id="edge29" class="edge">
<title>Node16&#45;&gt;Node13</title>
<path fill="none" stroke="midnightblue" d="M1749.14,-146.12C1571.76,-139.45 1083.98,-119.65 924.5,-98 913.89,-96.56 902.45,-94.34 892.09,-92.07"/>
<polygon fill="midnightblue" stroke="midnightblue" points="1749.24,-149.63 1759.37,-146.5 1749.5,-142.63 1749.24,-149.63"/>
</g>
<!-- Node16&#45;&gt;Node15 -->
<g id="edge21" class="edge">
<title>Node16&#45;&gt;Node15</title>
<path fill="none" stroke="midnightblue" d="M1879.68,-134.51C1880.96,-134.33 1882.24,-134.16 1883.5,-134 2240.57,-88.84 2335.88,-146.56 2692.5,-98 2702.73,-96.61 2713.75,-94.34 2723.66,-92.01"/>
<polygon fill="midnightblue" stroke="midnightblue" points="1879.07,-131.06 1869.73,-136.07 1880.15,-137.98 1879.07,-131.06"/>
</g>
<!-- Node17 -->
<g id="node17" class="node">
<title>Node17</title>
<g id="a_node17"><a xlink:href="d__a__player_8cpp.html" target="_top" xlink:title=" ">
<polygon fill="white" stroke="black" points="933.5,-73 933.5,-92 1047.5,-92 1047.5,-73 933.5,-73"/>
<text text-anchor="middle" x="990.5" y="-80" font-family="Helvetica,sans-Serif" font-size="10.00">src/d/a/d_a_player.cpp</text>
</a>
</g>
</g>
<!-- Node16&#45;&gt;Node17 -->
<g id="edge16" class="edge">
<title>Node16&#45;&gt;Node17</title>
<path fill="none" stroke="midnightblue" d="M1748.71,-147.43C1616.78,-144.54 1310.76,-134.19 1056.5,-98 1046.05,-96.51 1034.79,-94.28 1024.58,-92.01"/>
<polygon fill="midnightblue" stroke="midnightblue" points="1748.97,-150.93 1759.04,-147.64 1749.12,-143.93 1748.97,-150.93"/>
</g>
<!-- Node18 -->
<g id="node18" class="node">
<title>Node18</title>
<g id="a_node18"><a xlink:href="d__bg__s_8cpp.html" target="_top" xlink:title=" ">
<polygon fill="white" stroke="black" points="1065.5,-73 1065.5,-92 1169.5,-92 1169.5,-73 1065.5,-73"/>
<text text-anchor="middle" x="1117.5" y="-80" font-family="Helvetica,sans-Serif" font-size="10.00">src/d/bg/d_bg_s.cpp</text>
</a>
</g>
</g>
<!-- Node16&#45;&gt;Node18 -->
<g id="edge17" class="edge">
<title>Node16&#45;&gt;Node18</title>
<path fill="none" stroke="midnightblue" d="M1749.19,-146.63C1633.52,-142.59 1385.34,-130.6 1178.5,-98 1168.93,-96.49 1158.64,-94.28 1149.29,-92.04"/>
<polygon fill="midnightblue" stroke="midnightblue" points="1749.18,-150.13 1759.29,-146.98 1749.42,-143.14 1749.18,-150.13"/>
</g>
<!-- Node19 -->
<g id="node19" class="node">
<title>Node19</title>
<g id="a_node19"><a xlink:href="d__bg__s__movebg__actor_8cpp.html" target="_top" xlink:title=" ">
<polygon fill="white" stroke="black" points="1187.5,-67.5 1187.5,-97.5 1313.5,-97.5 1313.5,-67.5 1187.5,-67.5"/>
<text text-anchor="start" x="1195.5" y="-85.5" font-family="Helvetica,sans-Serif" font-size="10.00">src/d/bg/d_bg_s_movebg</text>
<text text-anchor="middle" x="1250.5" y="-74.5" font-family="Helvetica,sans-Serif" font-size="10.00">_actor.cpp</text>
</a>
</g>
</g>
<!-- Node16&#45;&gt;Node19 -->
<g id="edge18" class="edge">
<title>Node16&#45;&gt;Node19</title>
<path fill="none" stroke="midnightblue" d="M1749.19,-143.74C1654.88,-136.42 1475.22,-120.82 1323.5,-98 1320.31,-97.52 1317.04,-96.99 1313.74,-96.44"/>
<polygon fill="midnightblue" stroke="midnightblue" points="1749.19,-147.25 1759.43,-144.53 1749.73,-140.27 1749.19,-147.25"/>
</g>
<!-- Node20 -->
<g id="node20" class="node">
<title>Node20</title>
<g id="a_node20"><a xlink:href="d__bg__w_8cpp.html" target="_top" xlink:title=" ">
<polygon fill="white" stroke="black" points="1332,-73 1332,-92 1439,-92 1439,-73 1332,-73"/>
<text text-anchor="middle" x="1385.5" y="-80" font-family="Helvetica,sans-Serif" font-size="10.00">src/d/bg/d_bg_w.cpp</text>
</a>
</g>
</g>
<!-- Node16&#45;&gt;Node20 -->
<g id="edge19" class="edge">
<title>Node16&#45;&gt;Node20</title>
<path fill="none" stroke="midnightblue" d="M1749.16,-141.37C1675.54,-132.9 1552.44,-117.45 1447.5,-98 1438.37,-96.31 1428.56,-94.17 1419.49,-92.05"/>
<polygon fill="midnightblue" stroke="midnightblue" points="1748.89,-144.86 1759.22,-142.52 1749.68,-137.9 1748.89,-144.86"/>
</g>
<!-- Node21 -->
<g id="node21" class="node">
<title>Node21</title>
<g id="a_node21"><a xlink:href="d__resorce_8cpp.html" target="_top" xlink:title=" ">
<polygon fill="white" stroke="black" points="1456.5,-73 1456.5,-92 1558.5,-92 1558.5,-73 1456.5,-73"/>
<text text-anchor="middle" x="1507.5" y="-80" font-family="Helvetica,sans-Serif" font-size="10.00">src/d/d_resorce.cpp</text>
</a>
</g>
</g>
<!-- Node16&#45;&gt;Node21 -->
<g id="edge22" class="edge">
<title>Node16&#45;&gt;Node21</title>
<path fill="none" stroke="midnightblue" d="M1749.44,-135.85C1699.55,-126 1629.05,-111.72 1567.5,-98 1559.24,-96.16 1550.36,-94.07 1542.03,-92.07"/>
<polygon fill="midnightblue" stroke="midnightblue" points="1748.96,-139.32 1759.44,-137.82 1750.31,-132.46 1748.96,-139.32"/>
</g>
<!-- Node22 -->
<g id="node22" class="node">
<title>Node22</title>
<g id="a_node22"><a xlink:href="d__stage_8cpp.html" target="_top" xlink:title=" ">
<polygon fill="white" stroke="black" points="1576.5,-73 1576.5,-92 1670.5,-92 1670.5,-73 1576.5,-73"/>
<text text-anchor="middle" x="1623.5" y="-80" font-family="Helvetica,sans-Serif" font-size="10.00">src/d/d_stage.cpp</text>
</a>
</g>
</g>
<!-- Node16&#45;&gt;Node22 -->
<g id="edge23" class="edge">
<title>Node16&#45;&gt;Node22</title>
<path fill="none" stroke="midnightblue" d="M1763.39,-131.11C1726.24,-118.46 1677.55,-101.89 1648.5,-92.01"/>
<polygon fill="midnightblue" stroke="midnightblue" points="1762.46,-134.49 1773.06,-134.4 1764.72,-127.86 1762.46,-134.49"/>
</g>
<!-- Node23 -->
<g id="node23" class="node">
<title>Node23</title>
<g id="a_node23"><a xlink:href="d__event_8cpp.html" target="_top" xlink:title=" ">
<polygon fill="white" stroke="black" points="1689,-73 1689,-92 1810,-92 1810,-73 1689,-73"/>
<text text-anchor="middle" x="1749.5" y="-80" font-family="Helvetica,sans-Serif" font-size="10.00">src/d/event/d_event.cpp</text>
</a>
</g>
</g>
<!-- Node16&#45;&gt;Node23 -->
<g id="edge24" class="edge">
<title>Node16&#45;&gt;Node23</title>
<path fill="none" stroke="midnightblue" d="M1793,-127C1781.13,-115.13 1767.05,-101.05 1758.19,-92.19"/>
<polygon fill="midnightblue" stroke="midnightblue" points="1790.85,-129.8 1800.4,-134.4 1795.8,-124.85 1790.85,-129.8"/>
</g>
<!-- Node24 -->
<g id="node24" class="node">
<title>Node24</title>
<g id="a_node24"><a xlink:href="d__event__manager_8cpp.html" target="_top" xlink:title=" ">
<polygon fill="white" stroke="black" points="1828,-67.5 1828,-97.5 1931,-97.5 1931,-67.5 1828,-67.5"/>
<text text-anchor="start" x="1836" y="-85.5" font-family="Helvetica,sans-Serif" font-size="10.00">src/d/event/d_event</text>
<text text-anchor="middle" x="1879.5" y="-74.5" font-family="Helvetica,sans-Serif" font-size="10.00">_manager.cpp</text>
</a>
</g>
</g>
<!-- Node16&#45;&gt;Node24 -->
<g id="edge25" class="edge">
<title>Node16&#45;&gt;Node24</title>
<path fill="none" stroke="midnightblue" d="M1835.69,-127.31C1845.44,-117.56 1856.74,-106.26 1865.42,-97.58"/>
<polygon fill="midnightblue" stroke="midnightblue" points="1833.2,-124.85 1828.6,-134.4 1838.15,-129.8 1833.2,-124.85"/>
</g>
<!-- Node25 -->
<g id="node25" class="node">
<title>Node25</title>
<g id="a_node25"><a xlink:href="d__kankyo_8cpp.html" target="_top" xlink:title=" ">
<polygon fill="white" stroke="black" points="1949.5,-73 1949.5,-92 2083.5,-92 2083.5,-73 1949.5,-73"/>
<text text-anchor="middle" x="2016.5" y="-80" font-family="Helvetica,sans-Serif" font-size="10.00">src/d/kankyo/d_kankyo.cpp</text>
</a>
</g>
</g>
<!-- Node16&#45;&gt;Node25 -->
<g id="edge26" class="edge">
<title>Node16&#45;&gt;Node25</title>
<path fill="none" stroke="midnightblue" d="M1868.05,-131.27C1907.41,-118.6 1959.21,-101.93 1990.06,-92.01"/>
<polygon fill="midnightblue" stroke="midnightblue" points="1866.78,-128 1858.33,-134.4 1868.92,-134.66 1866.78,-128"/>
</g>
<!-- Node26 -->
<g id="node26" class="node">
<title>Node26</title>
<g id="a_node26"><a xlink:href="d__msg__flow_8cpp.html" target="_top" xlink:title=" ">
<polygon fill="white" stroke="black" points="2102,-73 2102,-92 2235,-92 2235,-73 2102,-73"/>
<text text-anchor="middle" x="2168.5" y="-80" font-family="Helvetica,sans-Serif" font-size="10.00">src/d/msg/d_msg_flow.cpp</text>
</a>
</g>
</g>
<!-- Node16&#45;&gt;Node26 -->
<g id="edge28" class="edge">
<title>Node16&#45;&gt;Node26</title>
<path fill="none" stroke="midnightblue" d="M1879.71,-134.73C1880.99,-134.48 1882.25,-134.24 1883.5,-134 1976.08,-116.3 1999.76,-114.83 2092.5,-98 2102.81,-96.13 2113.89,-94.05 2124.32,-92.07"/>
<polygon fill="midnightblue" stroke="midnightblue" points="1878.96,-131.31 1869.83,-136.69 1880.32,-138.18 1878.96,-131.31"/>
</g>
<!-- Node27 -->
<g id="node27" class="node">
<title>Node27</title>
<g id="a_node27"><a xlink:href="m__Do__machine__exception_8cpp.html" target="_top" xlink:title=" ">
<polygon fill="white" stroke="black" points="2253,-67.5 2253,-97.5 2382,-97.5 2382,-67.5 2253,-67.5"/>
<text text-anchor="start" x="2261" y="-85.5" font-family="Helvetica,sans-Serif" font-size="10.00">src/m_Do/m_Do_machine</text>
<text text-anchor="middle" x="2317.5" y="-74.5" font-family="Helvetica,sans-Serif" font-size="10.00">_exception.cpp</text>
</a>
</g>
</g>
<!-- Node16&#45;&gt;Node27 -->
<g id="edge30" class="edge">
<title>Node16&#45;&gt;Node27</title>
<path fill="none" stroke="midnightblue" d="M1879.69,-134.61C1880.97,-134.4 1882.24,-134.19 1883.5,-134 2042.85,-109.38 2085.02,-121.73 2244.5,-98 2247.18,-97.6 2249.92,-97.17 2252.68,-96.71"/>
<polygon fill="midnightblue" stroke="midnightblue" points="1879.01,-131.17 1869.77,-136.34 1880.22,-138.07 1879.01,-131.17"/>
</g>
<!-- Node28 -->
<g id="node28" class="node">
<title>Node28</title>
<g id="a_node28"><a xlink:href="m__Do__main_8cpp.html" target="_top" xlink:title=" ">
<polygon fill="white" stroke="black" points="2400,-73 2400,-92 2531,-92 2531,-73 2400,-73"/>
<text text-anchor="middle" x="2465.5" y="-80" font-family="Helvetica,sans-Serif" font-size="10.00">src/m_Do/m_Do_main.cpp</text>
</a>
</g>
</g>
<!-- Node16&#45;&gt;Node28 -->
<g id="edge31" class="edge">
<title>Node16&#45;&gt;Node28</title>
<path fill="none" stroke="midnightblue" d="M1879.68,-134.56C1880.97,-134.36 1882.24,-134.18 1883.5,-134 2107.66,-102.65 2167.13,-127.82 2391.5,-98 2403.05,-96.47 2415.51,-94.24 2426.86,-92"/>
<polygon fill="midnightblue" stroke="midnightblue" points="1879.04,-131.12 1869.74,-136.2 1880.18,-138.02 1879.04,-131.12"/>
</g>
<!-- Node29 -->
<g id="node29" class="node">
<title>Node29</title>
<g id="a_node29"><a xlink:href="d__item_8h.html" target="_top" xlink:title=" ">
<polygon fill="white" stroke="black" points="2588,-73 2588,-92 2683,-92 2683,-73 2588,-73"/>
<text text-anchor="middle" x="2635.5" y="-80" font-family="Helvetica,sans-Serif" font-size="10.00">include/d/d_item.h</text>
</a>
</g>
</g>
<!-- Node16&#45;&gt;Node29 -->
<g id="edge32" class="edge">
<title>Node16&#45;&gt;Node29</title>
<path fill="none" stroke="midnightblue" d="M1879.68,-134.52C1880.96,-134.34 1882.24,-134.16 1883.5,-134 2188.01,-94.3 2269.46,-141.14 2573.5,-98 2583.46,-96.59 2594.17,-94.35 2603.85,-92.04"/>
<polygon fill="midnightblue" stroke="midnightblue" points="1879.06,-131.08 1869.73,-136.11 1880.16,-137.99 1879.06,-131.08"/>
</g>
<!-- Node29&#45;&gt;Node10 -->
<g id="edge33" class="edge">
<title>Node29&#45;&gt;Node10</title>
<path fill="none" stroke="midnightblue" d="M2617.29,-65.93C2604.72,-55.18 2588.15,-41 2575.97,-30.59"/>
<polygon fill="midnightblue" stroke="midnightblue" points="2615.38,-68.89 2625.25,-72.73 2619.93,-63.57 2615.38,-68.89"/>
</g>
<!-- Node29&#45;&gt;Node11 -->
<g id="edge34" class="edge">
<title>Node29&#45;&gt;Node11</title>
<path fill="none" stroke="midnightblue" d="M2670.02,-69.44C2706.92,-56.54 2764.49,-36.42 2796.99,-25.06"/>
<polygon fill="midnightblue" stroke="midnightblue" points="2668.48,-66.27 2660.2,-72.87 2670.79,-72.87 2668.48,-66.27"/>
</g>
<!-- Node30&#45;&gt;Node9 -->
<g id="edge38" class="edge">
<title>Node30&#45;&gt;Node9</title>
<path fill="none" stroke="midnightblue" d="M1961.46,-238.94C1951.98,-248.63 1940.06,-259.79 1929.93,-268.4"/>
<polygon fill="midnightblue" stroke="midnightblue" points="1964.1,-241.24 1968.45,-231.58 1959.03,-236.42 1964.1,-241.24"/>
</g>
<!-- Node31 -->
<g id="node31" class="node">
<title>Node31</title>
<g id="a_node31"><a xlink:href="d__menu__window_8cpp.html" target="_top" xlink:title=" ">
<polygon fill="white" stroke="black" points="1925,-140 1925,-159 2084,-159 2084,-140 1925,-140"/>
<text text-anchor="middle" x="2004.5" y="-147" font-family="Helvetica,sans-Serif" font-size="10.00">src/d/menu/d_menu_window.cpp</text>
</a>
</g>
</g>
<!-- Node30&#45;&gt;Node31 -->
<g id="edge37" class="edge">
<title>Node30&#45;&gt;Node31</title>
<path fill="none" stroke="midnightblue" d="M1987.29,-191.94C1992.02,-180.54 1997.42,-167.55 2000.89,-159.19"/>
<polygon fill="midnightblue" stroke="midnightblue" points="1983.96,-190.82 1983.36,-201.4 1990.43,-193.5 1983.96,-190.82"/>
</g>
<!-- Node32&#45;&gt;Node2 -->
<g id="edge41" class="edge">
<title>Node32&#45;&gt;Node2</title>
<path fill="none" stroke="midnightblue" d="M166.71,-331.27C142.98,-320.92 113.72,-308.15 91.77,-298.58"/>
<polygon fill="midnightblue" stroke="midnightblue" points="165.6,-334.61 176.17,-335.4 168.4,-328.19 165.6,-334.61"/>
</g>
<!-- Node33 -->
<g id="node33" class="node">
<title>Node33</title>
<g id="a_node33"><a xlink:href="J2DPrint_8cpp.html" target="_top" xlink:title=" ">
<polygon fill="white" stroke="black" points="137,-268.5 137,-298.5 256,-298.5 256,-268.5 137,-268.5"/>
<text text-anchor="start" x="145" y="-286.5" font-family="Helvetica,sans-Serif" font-size="10.00">libs/JSystem/J2DGraph</text>
<text text-anchor="middle" x="196.5" y="-275.5" font-family="Helvetica,sans-Serif" font-size="10.00">/J2DPrint.cpp</text>
</a>
</g>
</g>
<!-- Node32&#45;&gt;Node33 -->
<g id="edge40" class="edge">
<title>Node32&#45;&gt;Node33</title>
<path fill="none" stroke="midnightblue" d="M204.05,-325.4C202.38,-316.37 200.54,-306.41 199.1,-298.58"/>
<polygon fill="midnightblue" stroke="midnightblue" points="200.64,-326.2 205.9,-335.4 207.52,-324.93 200.64,-326.2"/>
</g>
<!-- Node32&#45;&gt;Node34 -->
<g id="edge42" class="edge">
<title>Node32&#45;&gt;Node34</title>
<path fill="none" stroke="midnightblue" d="M246.37,-330.99C267.45,-320.69 293.28,-308.07 312.7,-298.58"/>
<polygon fill="midnightblue" stroke="midnightblue" points="244.81,-327.86 237.36,-335.4 247.88,-334.15 244.81,-327.86"/>
</g>
<!-- Node35 -->
<g id="node35" class="node">
<title>Node35</title>
<g id="a_node35"><a xlink:href="J2DTextBoxEx_8cpp.html" target="_top" xlink:title=" ">
<polygon fill="white" stroke="black" points="281,-201.5 281,-231.5 400,-231.5 400,-201.5 281,-201.5"/>
<text text-anchor="start" x="289" y="-219.5" font-family="Helvetica,sans-Serif" font-size="10.00">libs/JSystem/J2DGraph</text>
<text text-anchor="middle" x="340.5" y="-208.5" font-family="Helvetica,sans-Serif" font-size="10.00">/J2DTextBoxEx.cpp</text>
</a>
</g>
</g>
<!-- Node34&#45;&gt;Node35 -->
<g id="edge43" class="edge">
<title>Node34&#45;&gt;Node35</title>
<path fill="none" stroke="midnightblue" d="M341.12,-258.11C340.99,-249.15 340.84,-239.32 340.72,-231.58"/>
<polygon fill="midnightblue" stroke="midnightblue" points="337.63,-258.45 341.28,-268.4 344.63,-258.34 337.63,-258.45"/>
</g>
</g>
</svg>
        <g id="navigator" transform="translate(0 0)" fill="#404254">
                <rect fill="#f2f5e9" fill-opacity="0.5" stroke="#606060" stroke-width=".5" x="0" y="0" width="60" height="60"/>
                <use id="zoomplus" xlink:href="#zoomPlus" x="17" y="9" onmousedown="handleZoom(evt,'in')"/>
                <use id="zoomminus" xlink:href="#zoomMin" x="42" y="9" onmousedown="handleZoom(evt,'out')"/>
                <use id="reset" xlink:href="#resetDef" x="30" y="36" onmousedown="handleReset()"/>
                <g id="arrowUp" xlink:href="#dirArrow" transform="translate(30 24)" onmousedown="handlePan(0,-1)">
                  <use xlink:href="#rim" fill="#404040">
                        <set attributeName="fill" to="#808080" begin="arrowUp.mouseover" end="arrowUp.mouseout"/>
                  </use>
                  <path fill="none" stroke="white" stroke-width="1.5" d="M0,-3.0v7 M-2.5,-0.5L0,-3.0L2.5,-0.5"/>
                </g>
                <g id="arrowRight" xlink:href="#dirArrow" transform="rotate(90) translate(36 -43)" onmousedown="handlePan(1,0)">
                  <use xlink:href="#rim" fill="#404040">
                        <set attributeName="fill" to="#808080" begin="arrowRight.mouseover" end="arrowRight.mouseout"/>
                  </use>
                  <path fill="none" stroke="white" stroke-width="1.5" d="M0,-3.0v7 M-2.5,-0.5L0,-3.0L2.5,-0.5"/>
                </g>
                <g id="arrowDown" xlink:href="#dirArrow" transform="rotate(180) translate(-30 -48)" onmousedown="handlePan(0,1)">
                  <use xlink:href="#rim" fill="#404040">
                        <set attributeName="fill" to="#808080" begin="arrowDown.mouseover" end="arrowDown.mouseout"/>
                  </use>
                  <path fill="none" stroke="white" stroke-width="1.5" d="M0,-3.0v7 M-2.5,-0.5L0,-3.0L2.5,-0.5"/>
                </g>
                <g id="arrowLeft" xlink:href="#dirArrow" transform="rotate(270) translate(-36 17)" onmousedown="handlePan(-1,0)">
                  <use xlink:href="#rim" fill="#404040">
                        <set attributeName="fill" to="#808080" begin="arrowLeft.mouseover" end="arrowLeft.mouseout"/>
                  </use>
                  <path fill="none" stroke="white" stroke-width="1.5" d="M0,-3.0v7 M-2.5,-0.5L0,-3.0L2.5,-0.5"/>
                </g>
        </g>
        <svg viewBox="0 0 15 15" width="100%" height="30px" preserveAspectRatio="xMaxYMin meet">
         <g id="arrow_out" transform="scale(0.3 0.3)">
          <a xlink:href="J2DTextBox_8h__dep__incl_org.svg" target="_base">
           <rect id="button" ry="5" rx="5" y="6" x="6" height="38" width="38"
                fill="#f2f5e9" fill-opacity="0.5" stroke="#606060" stroke-width="1.0"/>
           <path id="arrow"
             d="M 11.500037,31.436501 C 11.940474,20.09759 22.043105,11.32322 32.158766,21.979434 L 37.068811,17.246167 C 37.068811,17.246167 37.088388,32 37.088388,32 L 22.160133,31.978069 C 22.160133,31.978069 26.997745,27.140456 26.997745,27.140456 C 18.528582,18.264221 13.291696,25.230495 11.500037,31.436501 z"
             style="fill:#404040;"/>
          </a>
         </g>
        </svg>
</svg>
