<?xml version="1.0" encoding="UTF-8" standalone="no"?>
<!DOCTYPE svg PUBLIC "-//W3C//DTD SVG 1.1//EN"
 "http://www.w3.org/Graphics/SVG/1.1/DTD/svg11.dtd">
<!-- Generated by graphviz version 2.44.0 ()
 -->
<!-- Title: libs/JSystem/J2DGraph/J2DWindowEx.cpp Pages: 1 -->
<!--zoomable 184 -->
<svg id="main" version="1.1" xmlns="http://www.w3.org/2000/svg" xmlns:xlink="http://www.w3.org/1999/xlink" xml:space="preserve" onload="init(evt)">
<style type="text/css"><![CDATA[
.edge:hover path { stroke: red; }
.edge:hover polygon { stroke: red; fill: red; }
]]></style>
<script type="text/javascript"><![CDATA[
var edges = document.getElementsByTagName('g');
if (edges && edges.length) {
  for (var i=0;i<edges.length;i++) {
    if (edges[i].id.substr(0,4)=='edge') {
      edges[i].setAttribute('class','edge');
    }
  }
}
]]></script>
        <defs>
                <circle id="rim" cx="0" cy="0" r="7"/>
                <circle id="rim2" cx="0" cy="0" r="3.5"/>
                <g id="zoomPlus">
                        <use xlink:href="#rim" fill="#404040">
                                <set attributeName="fill" to="#808080" begin="zoomplus.mouseover" end="zoomplus.mouseout"/>
                        </use>
                        <path d="M-4,0h8M0,-4v8" fill="none" stroke="white" stroke-width="1.5" pointer-events="none"/>
                </g>
                <g id="zoomMin">
                        <use xlink:href="#rim" fill="#404040">
                                <set attributeName="fill" to="#808080" begin="zoomminus.mouseover" end="zoomminus.mouseout"/>
                        </use>
                        <path d="M-4,0h8" fill="none" stroke="white" stroke-width="1.5" pointer-events="none"/>
                </g>
                <g id="dirArrow">
                        <path fill="none" stroke="white" stroke-width="1.5" d="M0,-3.0v7 M-2.5,-0.5L0,-3.0L2.5,-0.5"/>
                </g>
               <g id="resetDef">
                       <use xlink:href="#rim2" fill="#404040">
                               <set attributeName="fill" to="#808080" begin="reset.mouseover" end="reset.mouseout"/>
                       </use>
               </g>
        </defs>

<script type="text/javascript">
var viewWidth = 7702;
var viewHeight = 184;
var sectionId = 'dynsection-0';
</script>
<script xlink:href="svgpan.js"/>
<svg id="graph" class="graph">
<g id="viewport">
<title>libs/JSystem/J2DGraph/J2DWindowEx.cpp</title>
<polygon fill="white" stroke="transparent" points="-4,4 -4,-180 7697.5,-180 7697.5,4 -4,4"/>
<!-- Node1 -->
<g id="node1" class="node">
<title>Node1</title>
<g id="a_node1"><a xlink:title=" ">
<polygon fill="#bfbfbf" stroke="black" points="3592.5,-145.5 3592.5,-175.5 3711.5,-175.5 3711.5,-145.5 3592.5,-145.5"/>
<text text-anchor="start" x="3600.5" y="-163.5" font-family="Helvetica,sans-Serif" font-size="10.00">libs/JSystem/J2DGraph</text>
<text text-anchor="middle" x="3652" y="-152.5" font-family="Helvetica,sans-Serif" font-size="10.00">/J2DWindowEx.cpp</text>
</a>
</g>
</g>
<!-- Node2 -->
<g id="node2" class="node">
<title>Node2</title>
<g id="a_node2"><a xlink:href="J2DWindowEx_8h.html" target="_top" xlink:title=" ">
<polygon fill="white" stroke="black" points="0,-73 0,-92 174,-92 174,-73 0,-73"/>
<text text-anchor="middle" x="87" y="-80" font-family="Helvetica,sans-Serif" font-size="10.00">JSystem/J2DGraph/J2DWindowEx.h</text>
</a>
</g>
</g>
<!-- Node1&#45;&gt;Node2 -->
<g id="edge1" class="edge">
<title>Node1&#45;&gt;Node2</title>
<path fill="none" stroke="midnightblue" d="M3592.28,-159.47C3161.68,-159.12 538.14,-155.11 188,-109 166.27,-106.14 142.47,-100.27 123.44,-94.88"/>
<polygon fill="midnightblue" stroke="midnightblue" points="124.26,-91.48 113.68,-92.05 122.3,-98.2 124.26,-91.48"/>
</g>
<!-- Node3 -->
<g id="node3" class="node">
<title>Node3</title>
<g id="a_node3"><a xlink:href="types_8h.html" target="_top" xlink:title=" ">
<polygon fill="white" stroke="black" points="103.5,-0.5 103.5,-19.5 184.5,-19.5 184.5,-0.5 103.5,-0.5"/>
<text text-anchor="middle" x="144" y="-7.5" font-family="Helvetica,sans-Serif" font-size="10.00">dolphin/types.h</text>
</a>
</g>
</g>
<!-- Node1&#45;&gt;Node3 -->
<g id="edge4" class="edge">
<title>Node1&#45;&gt;Node3</title>
<path fill="none" stroke="midnightblue" d="M3592.47,-159.36C3143.17,-158.18 300.01,-149.18 222,-109 196,-95.61 201.26,-78.85 183,-56 175.25,-46.31 166.2,-35.82 158.77,-27.4"/>
<polygon fill="midnightblue" stroke="midnightblue" points="161.25,-24.92 151.98,-19.79 156.02,-29.58 161.25,-24.92"/>
</g>
<!-- Node4 -->
<g id="node4" class="node">
<title>Node4</title>
<g id="a_node4"><a xlink:href="dol2asm_8h.html" target="_top" xlink:title=" ">
<polygon fill="white" stroke="black" points="230.5,-73 230.5,-92 291.5,-92 291.5,-73 230.5,-73"/>
<text text-anchor="middle" x="261" y="-80" font-family="Helvetica,sans-Serif" font-size="10.00">dol2asm.h</text>
</a>
</g>
</g>
<!-- Node1&#45;&gt;Node4 -->
<g id="edge3" class="edge">
<title>Node1&#45;&gt;Node4</title>
<path fill="none" stroke="midnightblue" d="M3592.4,-159.53C3155.92,-159.61 464.84,-158.13 301,-109 293.47,-106.74 286,-102.63 279.59,-98.35"/>
<polygon fill="midnightblue" stroke="midnightblue" points="281.22,-95.21 271.07,-92.17 277.11,-100.87 281.22,-95.21"/>
</g>
<!-- Node5 -->
<g id="node5" class="node">
<title>Node5</title>
<g id="a_node5"><a xlink:title=" ">
<polygon fill="white" stroke="#bfbfbf" points="309.5,-56.5 309.5,-108.5 520.5,-108.5 520.5,-56.5 309.5,-56.5"/>
<text text-anchor="start" x="317.5" y="-96.5" font-family="Helvetica,sans-Serif" font-size="10.00">asm/JSystem/J2DGraph</text>
<text text-anchor="start" x="317.5" y="-85.5" font-family="Helvetica,sans-Serif" font-size="10.00">/J2DWindowEx/__ct__11J2DWindow</text>
<text text-anchor="start" x="317.5" y="-74.5" font-family="Helvetica,sans-Serif" font-size="10.00">ExFP7J2DPaneP20JSURandomInputStream</text>
<text text-anchor="middle" x="415" y="-63.5" font-family="Helvetica,sans-Serif" font-size="10.00">UlP11J2DMaterial.s</text>
</a>
</g>
</g>
<!-- Node1&#45;&gt;Node5 -->
<g id="edge5" class="edge">
<title>Node1&#45;&gt;Node5</title>
<path fill="none" stroke="midnightblue" d="M3592.48,-159.26C3191.53,-157.56 890.18,-146.26 530.82,-108.91"/>
<polygon fill="midnightblue" stroke="midnightblue" points="531.09,-105.41 520.76,-107.79 530.32,-112.37 531.09,-105.41"/>
</g>
<!-- Node6 -->
<g id="node6" class="node">
<title>Node6</title>
<g id="a_node6"><a xlink:title=" ">
<polygon fill="white" stroke="#bfbfbf" points="538.5,-62 538.5,-103 671.5,-103 671.5,-62 538.5,-62"/>
<text text-anchor="start" x="546.5" y="-91" font-family="Helvetica,sans-Serif" font-size="10.00">asm/JSystem/J2DGraph</text>
<text text-anchor="start" x="546.5" y="-80" font-family="Helvetica,sans-Serif" font-size="10.00">/J2DWindowEx/setMinSize</text>
<text text-anchor="middle" x="605" y="-69" font-family="Helvetica,sans-Serif" font-size="10.00">__11J2DWindowExFv.s</text>
</a>
</g>
</g>
<!-- Node1&#45;&gt;Node6 -->
<g id="edge6" class="edge">
<title>Node1&#45;&gt;Node6</title>
<path fill="none" stroke="midnightblue" d="M3592.49,-159.58C3198.92,-159.99 977.38,-159.99 681,-109 676.2,-108.17 671.28,-107.1 666.38,-105.85"/>
<polygon fill="midnightblue" stroke="midnightblue" points="666.94,-102.38 656.37,-103.09 665.08,-109.12 666.94,-102.38"/>
</g>
<!-- Node7 -->
<g id="node7" class="node">
<title>Node7</title>
<g id="a_node7"><a xlink:title=" ">
<polygon fill="white" stroke="#bfbfbf" points="690,-62 690,-103 866,-103 866,-62 690,-62"/>
<text text-anchor="start" x="698" y="-91" font-family="Helvetica,sans-Serif" font-size="10.00">asm/JSystem/J2DGraph</text>
<text text-anchor="start" x="698" y="-80" font-family="Helvetica,sans-Serif" font-size="10.00">/J2DWindowEx/__dt__11J2DWindow</text>
<text text-anchor="middle" x="778" y="-69" font-family="Helvetica,sans-Serif" font-size="10.00">ExFv.s</text>
</a>
</g>
</g>
<!-- Node1&#45;&gt;Node7 -->
<g id="edge7" class="edge">
<title>Node1&#45;&gt;Node7</title>
<path fill="none" stroke="midnightblue" d="M3592.2,-159.27C3213.2,-157.7 1152.4,-147.42 875,-109 868.16,-108.05 861.12,-106.79 854.09,-105.33"/>
<polygon fill="midnightblue" stroke="midnightblue" points="854.36,-101.8 843.84,-103.06 852.85,-108.64 854.36,-101.8"/>
</g>
<!-- Node8 -->
<g id="node8" class="node">
<title>Node8</title>
<g id="a_node8"><a xlink:title=" ">
<polygon fill="white" stroke="#bfbfbf" points="884,-56.5 884,-108.5 1014,-108.5 1014,-56.5 884,-56.5"/>
<text text-anchor="start" x="892" y="-96.5" font-family="Helvetica,sans-Serif" font-size="10.00">asm/JSystem/J2DGraph</text>
<text text-anchor="start" x="892" y="-85.5" font-family="Helvetica,sans-Serif" font-size="10.00">/J2DWindowEx/drawSelf</text>
<text text-anchor="start" x="892" y="-74.5" font-family="Helvetica,sans-Serif" font-size="10.00">__11J2DWindowExFffPA3</text>
<text text-anchor="middle" x="949" y="-63.5" font-family="Helvetica,sans-Serif" font-size="10.00">_A4_f.s</text>
</a>
</g>
</g>
<!-- Node1&#45;&gt;Node8 -->
<g id="edge8" class="edge">
<title>Node1&#45;&gt;Node8</title>
<path fill="none" stroke="midnightblue" d="M3592.44,-159.45C3225.99,-159.03 1284.35,-154.62 1024,-109 1023.9,-108.98 1023.8,-108.96 1023.7,-108.95"/>
<polygon fill="midnightblue" stroke="midnightblue" points="1024.64,-105.57 1014.14,-106.97 1023.22,-112.42 1024.64,-105.57"/>
</g>
<!-- Node9 -->
<g id="node9" class="node">
<title>Node9</title>
<g id="a_node9"><a xlink:title=" ">
<polygon fill="white" stroke="#bfbfbf" points="1032.5,-67.5 1032.5,-97.5 1193.5,-97.5 1193.5,-67.5 1032.5,-67.5"/>
<text text-anchor="start" x="1040.5" y="-85.5" font-family="Helvetica,sans-Serif" font-size="10.00">asm/JSystem/J2DGraph</text>
<text text-anchor="middle" x="1113" y="-74.5" font-family="Helvetica,sans-Serif" font-size="10.00">/J2DWindowEx/func_803012CC.s</text>
</a>
</g>
</g>
<!-- Node1&#45;&gt;Node9 -->
<g id="edge9" class="edge">
<title>Node1&#45;&gt;Node9</title>
<path fill="none" stroke="midnightblue" d="M3592.31,-159.18C3240.58,-157.18 1445.63,-145.26 1203,-109 1190.2,-107.09 1176.65,-103.89 1164.05,-100.4"/>
<polygon fill="midnightblue" stroke="midnightblue" points="1164.76,-96.97 1154.19,-97.56 1162.82,-103.69 1164.76,-96.97"/>
</g>
<!-- Node10 -->
<g id="node10" class="node">
<title>Node10</title>
<g id="a_node10"><a xlink:title=" ">
<polygon fill="white" stroke="#bfbfbf" points="1212,-67.5 1212,-97.5 1370,-97.5 1370,-67.5 1212,-67.5"/>
<text text-anchor="start" x="1220" y="-85.5" font-family="Helvetica,sans-Serif" font-size="10.00">asm/JSystem/J2DGraph</text>
<text text-anchor="middle" x="1291" y="-74.5" font-family="Helvetica,sans-Serif" font-size="10.00">/J2DWindowEx/func_80301994.s</text>
</a>
</g>
</g>
<!-- Node1&#45;&gt;Node10 -->
<g id="edge10" class="edge">
<title>Node1&#45;&gt;Node10</title>
<path fill="none" stroke="midnightblue" d="M3592.27,-159.1C3255.71,-156.72 1603.1,-143.36 1379,-109 1366.47,-107.08 1353.21,-103.88 1340.9,-100.39"/>
<polygon fill="midnightblue" stroke="midnightblue" points="1341.83,-97.02 1331.25,-97.55 1339.85,-103.73 1341.83,-97.02"/>
</g>
<!-- Node11 -->
<g id="node11" class="node">
<title>Node11</title>
<g id="a_node11"><a xlink:title=" ">
<polygon fill="white" stroke="#bfbfbf" points="1387.5,-62 1387.5,-103 1636.5,-103 1636.5,-62 1387.5,-62"/>
<text text-anchor="start" x="1395.5" y="-91" font-family="Helvetica,sans-Serif" font-size="10.00">asm/JSystem/J2DGraph</text>
<text text-anchor="start" x="1395.5" y="-80" font-family="Helvetica,sans-Serif" font-size="10.00">/J2DWindowEx/drawFrameTexture</text>
<text text-anchor="middle" x="1512" y="-69" font-family="Helvetica,sans-Serif" font-size="10.00">__11J2DWindowExFffffUsUsUsUsP11J2DMaterialb.s</text>
</a>
</g>
</g>
<!-- Node1&#45;&gt;Node11 -->
<g id="edge11" class="edge">
<title>Node1&#45;&gt;Node11</title>
<path fill="none" stroke="midnightblue" d="M3592.42,-159.31C3302.53,-158.18 2037.64,-150.91 1646,-109 1635.54,-107.88 1624.68,-106.38 1613.87,-104.67"/>
<polygon fill="midnightblue" stroke="midnightblue" points="1614.41,-101.21 1603.97,-103.04 1613.27,-108.12 1614.41,-101.21"/>
</g>
<!-- Node12 -->
<g id="node12" class="node">
<title>Node12</title>
<g id="a_node12"><a xlink:title=" ">
<polygon fill="white" stroke="#bfbfbf" points="1654.5,-67.5 1654.5,-97.5 1815.5,-97.5 1815.5,-67.5 1654.5,-67.5"/>
<text text-anchor="start" x="1662.5" y="-85.5" font-family="Helvetica,sans-Serif" font-size="10.00">asm/JSystem/J2DGraph</text>
<text text-anchor="middle" x="1735" y="-74.5" font-family="Helvetica,sans-Serif" font-size="10.00">/J2DWindowEx/func_80301FC8.s</text>
</a>
</g>
</g>
<!-- Node1&#45;&gt;Node12 -->
<g id="edge12" class="edge">
<title>Node1&#45;&gt;Node12</title>
<path fill="none" stroke="midnightblue" d="M3592.27,-159.84C3317.96,-161.1 2177.28,-162.91 1825,-109 1812.33,-107.06 1798.92,-103.9 1786.43,-100.44"/>
<polygon fill="midnightblue" stroke="midnightblue" points="1787.22,-97.03 1776.65,-97.63 1785.29,-103.76 1787.22,-97.03"/>
</g>
<!-- Node13 -->
<g id="node13" class="node">
<title>Node13</title>
<g id="a_node13"><a xlink:title=" ">
<polygon fill="white" stroke="#bfbfbf" points="1834,-67.5 1834,-97.5 1992,-97.5 1992,-67.5 1834,-67.5"/>
<text text-anchor="start" x="1842" y="-85.5" font-family="Helvetica,sans-Serif" font-size="10.00">asm/JSystem/J2DGraph</text>
<text text-anchor="middle" x="1913" y="-74.5" font-family="Helvetica,sans-Serif" font-size="10.00">/J2DWindowEx/func_80302164.s</text>
</a>
</g>
</g>
<!-- Node1&#45;&gt;Node13 -->
<g id="edge13" class="edge">
<title>Node1&#45;&gt;Node13</title>
<path fill="none" stroke="midnightblue" d="M3592.12,-159.66C3334.29,-160.02 2317.55,-158.25 2002,-109 1989.47,-107.04 1976.21,-103.87 1963.86,-100.42"/>
<polygon fill="midnightblue" stroke="midnightblue" points="1964.76,-97.03 1954.18,-97.61 1962.8,-103.76 1964.76,-97.03"/>
</g>
<!-- Node14 -->
<g id="node14" class="node">
<title>Node14</title>
<g id="a_node14"><a xlink:title=" ">
<polygon fill="white" stroke="#bfbfbf" points="2010.5,-62 2010.5,-103 2149.5,-103 2149.5,-62 2010.5,-62"/>
<text text-anchor="start" x="2018.5" y="-91" font-family="Helvetica,sans-Serif" font-size="10.00">asm/JSystem/J2DGraph</text>
<text text-anchor="start" x="2018.5" y="-80" font-family="Helvetica,sans-Serif" font-size="10.00">/J2DWindowEx/setTevOrder</text>
<text text-anchor="middle" x="2080" y="-69" font-family="Helvetica,sans-Serif" font-size="10.00">__11J2DWindowExFb.s</text>
</a>
</g>
</g>
<!-- Node1&#45;&gt;Node14 -->
<g id="edge14" class="edge">
<title>Node1&#45;&gt;Node14</title>
<path fill="none" stroke="midnightblue" d="M3592.15,-159.69C3349.88,-160.13 2441.46,-158.36 2159,-109 2153.98,-108.12 2148.84,-107 2143.71,-105.72"/>
<polygon fill="midnightblue" stroke="midnightblue" points="2144.46,-102.3 2133.89,-103.08 2142.64,-109.06 2144.46,-102.3"/>
</g>
<!-- Node15 -->
<g id="node15" class="node">
<title>Node15</title>
<g id="a_node15"><a xlink:title=" ">
<polygon fill="white" stroke="#bfbfbf" points="2168,-62 2168,-103 2308,-103 2308,-62 2168,-62"/>
<text text-anchor="start" x="2176" y="-91" font-family="Helvetica,sans-Serif" font-size="10.00">asm/JSystem/J2DGraph</text>
<text text-anchor="start" x="2176" y="-80" font-family="Helvetica,sans-Serif" font-size="10.00">/J2DWindowEx/setTevStage</text>
<text text-anchor="middle" x="2238" y="-69" font-family="Helvetica,sans-Serif" font-size="10.00">__11J2DWindowExFb.s</text>
</a>
</g>
</g>
<!-- Node1&#45;&gt;Node15 -->
<g id="edge15" class="edge">
<title>Node1&#45;&gt;Node15</title>
<path fill="none" stroke="midnightblue" d="M3592.46,-159.41C3367.19,-158.75 2567.23,-153.25 2317,-109 2311.98,-108.11 2306.85,-106.98 2301.72,-105.7"/>
<polygon fill="midnightblue" stroke="midnightblue" points="2302.47,-102.28 2291.9,-103.05 2300.65,-109.03 2302.47,-102.28"/>
</g>
<!-- Node16 -->
<g id="node16" class="node">
<title>Node16</title>
<g id="a_node16"><a xlink:title=" ">
<polygon fill="white" stroke="#bfbfbf" points="2326,-56.5 2326,-108.5 2508,-108.5 2508,-56.5 2326,-56.5"/>
<text text-anchor="start" x="2334" y="-96.5" font-family="Helvetica,sans-Serif" font-size="10.00">asm/JSystem/J2DGraph</text>
<text text-anchor="start" x="2334" y="-85.5" font-family="Helvetica,sans-Serif" font-size="10.00">/J2DWindowEx/setStage</text>
<text text-anchor="start" x="2334" y="-74.5" font-family="Helvetica,sans-Serif" font-size="10.00">__11J2DWindowExFP11J2DTevStage</text>
<text text-anchor="middle" x="2417" y="-63.5" font-family="Helvetica,sans-Serif" font-size="10.00">Q211J2DWindowEx10stage_enum.s</text>
</a>
</g>
</g>
<!-- Node1&#45;&gt;Node16 -->
<g id="edge16" class="edge">
<title>Node1&#45;&gt;Node16</title>
<path fill="none" stroke="midnightblue" d="M3592.32,-158.44C3392.55,-154.64 2747.6,-140.34 2518.18,-108.83"/>
<polygon fill="midnightblue" stroke="midnightblue" points="2518.61,-105.36 2508.22,-107.41 2517.63,-112.29 2518.61,-105.36"/>
</g>
<!-- Node17 -->
<g id="node17" class="node">
<title>Node17</title>
<g id="a_node17"><a xlink:title=" ">
<polygon fill="white" stroke="#bfbfbf" points="2526.5,-56.5 2526.5,-108.5 2685.5,-108.5 2685.5,-56.5 2526.5,-56.5"/>
<text text-anchor="start" x="2534.5" y="-96.5" font-family="Helvetica,sans-Serif" font-size="10.00">asm/JSystem/J2DGraph</text>
<text text-anchor="start" x="2534.5" y="-85.5" font-family="Helvetica,sans-Serif" font-size="10.00">/J2DWindowEx/setBlack</text>
<text text-anchor="start" x="2534.5" y="-74.5" font-family="Helvetica,sans-Serif" font-size="10.00">__11J2DWindowExFQ28JUtility6</text>
<text text-anchor="middle" x="2606" y="-63.5" font-family="Helvetica,sans-Serif" font-size="10.00">TColor.s</text>
</a>
</g>
</g>
<!-- Node1&#45;&gt;Node17 -->
<g id="edge17" class="edge">
<title>Node1&#45;&gt;Node17</title>
<path fill="none" stroke="midnightblue" d="M3592.32,-158.12C3414.28,-153.72 2887.89,-138.66 2695.84,-108.91"/>
<polygon fill="midnightblue" stroke="midnightblue" points="2696.29,-105.44 2685.86,-107.3 2695.17,-112.35 2696.29,-105.44"/>
</g>
<!-- Node18 -->
<g id="node18" class="node">
<title>Node18</title>
<g id="a_node18"><a xlink:title=" ">
<polygon fill="white" stroke="#bfbfbf" points="2703.5,-56.5 2703.5,-108.5 2862.5,-108.5 2862.5,-56.5 2703.5,-56.5"/>
<text text-anchor="start" x="2711.5" y="-96.5" font-family="Helvetica,sans-Serif" font-size="10.00">asm/JSystem/J2DGraph</text>
<text text-anchor="start" x="2711.5" y="-85.5" font-family="Helvetica,sans-Serif" font-size="10.00">/J2DWindowEx/setWhite</text>
<text text-anchor="start" x="2711.5" y="-74.5" font-family="Helvetica,sans-Serif" font-size="10.00">__11J2DWindowExFQ28JUtility6</text>
<text text-anchor="middle" x="2783" y="-63.5" font-family="Helvetica,sans-Serif" font-size="10.00">TColor.s</text>
</a>
</g>
</g>
<!-- Node1&#45;&gt;Node18 -->
<g id="edge18" class="edge">
<title>Node1&#45;&gt;Node18</title>
<path fill="none" stroke="midnightblue" d="M3592.29,-159.97C3462.6,-160.07 3145.6,-155.24 2872.95,-108.99"/>
<polygon fill="midnightblue" stroke="midnightblue" points="2873.31,-105.5 2862.87,-107.26 2872.13,-112.4 2873.31,-105.5"/>
</g>
<!-- Node19 -->
<g id="node19" class="node">
<title>Node19</title>
<g id="a_node19"><a xlink:title=" ">
<polygon fill="white" stroke="#bfbfbf" points="2881,-56.5 2881,-108.5 3069,-108.5 3069,-56.5 2881,-56.5"/>
<text text-anchor="start" x="2889" y="-96.5" font-family="Helvetica,sans-Serif" font-size="10.00">asm/JSystem/J2DGraph</text>
<text text-anchor="start" x="2889" y="-85.5" font-family="Helvetica,sans-Serif" font-size="10.00">/J2DWindowEx/setBlackWhite</text>
<text text-anchor="start" x="2889" y="-74.5" font-family="Helvetica,sans-Serif" font-size="10.00">__11J2DWindowExFQ28JUtility6TColor</text>
<text text-anchor="middle" x="2975" y="-63.5" font-family="Helvetica,sans-Serif" font-size="10.00">Q28JUtility6TColor.s</text>
</a>
</g>
</g>
<!-- Node1&#45;&gt;Node19 -->
<g id="edge19" class="edge">
<title>Node1&#45;&gt;Node19</title>
<path fill="none" stroke="midnightblue" d="M3592.23,-157.24C3489.39,-152.68 3272.3,-140.2 3079.3,-108.92"/>
<polygon fill="midnightblue" stroke="midnightblue" points="3079.69,-105.44 3069.25,-107.27 3078.55,-112.35 3079.69,-105.44"/>
</g>
<!-- Node20 -->
<g id="node20" class="node">
<title>Node20</title>
<g id="a_node20"><a xlink:title=" ">
<polygon fill="white" stroke="#bfbfbf" points="3087.5,-56.5 3087.5,-108.5 3288.5,-108.5 3288.5,-56.5 3087.5,-56.5"/>
<text text-anchor="start" x="3095.5" y="-96.5" font-family="Helvetica,sans-Serif" font-size="10.00">asm/JSystem/J2DGraph</text>
<text text-anchor="start" x="3095.5" y="-85.5" font-family="Helvetica,sans-Serif" font-size="10.00">/J2DWindowEx/getBlackWhite</text>
<text text-anchor="start" x="3095.5" y="-74.5" font-family="Helvetica,sans-Serif" font-size="10.00">__11J2DWindowExCFPQ28JUtility6TColor</text>
<text text-anchor="middle" x="3188" y="-63.5" font-family="Helvetica,sans-Serif" font-size="10.00">PQ28JUtility6TColor.s</text>
</a>
</g>
</g>
<!-- Node1&#45;&gt;Node20 -->
<g id="edge20" class="edge">
<title>Node1&#45;&gt;Node20</title>
<path fill="none" stroke="midnightblue" d="M3592.24,-152.57C3523.72,-144.26 3407.86,-129.14 3298.52,-109.03"/>
<polygon fill="midnightblue" stroke="midnightblue" points="3299.11,-105.58 3288.64,-107.19 3297.83,-112.46 3299.11,-105.58"/>
</g>
<!-- Node21 -->
<g id="node21" class="node">
<title>Node21</title>
<g id="a_node21"><a xlink:title=" ">
<polygon fill="white" stroke="#bfbfbf" points="3307,-56.5 3307,-108.5 3501,-108.5 3501,-56.5 3307,-56.5"/>
<text text-anchor="start" x="3315" y="-96.5" font-family="Helvetica,sans-Serif" font-size="10.00">asm/JSystem/J2DGraph</text>
<text text-anchor="start" x="3315" y="-85.5" font-family="Helvetica,sans-Serif" font-size="10.00">/J2DWindowEx/isSetBlackWhite</text>
<text text-anchor="start" x="3315" y="-74.5" font-family="Helvetica,sans-Serif" font-size="10.00">__11J2DWindowExCFQ28JUtility6TColor</text>
<text text-anchor="middle" x="3404" y="-63.5" font-family="Helvetica,sans-Serif" font-size="10.00">Q28JUtility6TColor.s</text>
</a>
</g>
</g>
<!-- Node1&#45;&gt;Node21 -->
<g id="edge21" class="edge">
<title>Node1&#45;&gt;Node21</title>
<path fill="none" stroke="midnightblue" d="M3606.22,-145.47C3575.26,-135.98 3533.3,-123.12 3495.63,-111.58"/>
<polygon fill="midnightblue" stroke="midnightblue" points="3496.23,-108.1 3485.64,-108.52 3494.18,-114.8 3496.23,-108.1"/>
</g>
<!-- Node22 -->
<g id="node22" class="node">
<title>Node22</title>
<g id="a_node22"><a xlink:title=" ">
<polygon fill="white" stroke="#bfbfbf" points="3518.5,-62 3518.5,-103 3643.5,-103 3643.5,-62 3518.5,-62"/>
<text text-anchor="start" x="3526.5" y="-91" font-family="Helvetica,sans-Serif" font-size="10.00">asm/JSystem/J2DGraph</text>
<text text-anchor="start" x="3526.5" y="-80" font-family="Helvetica,sans-Serif" font-size="10.00">/J2DWindowEx/getBlack</text>
<text text-anchor="middle" x="3581" y="-69" font-family="Helvetica,sans-Serif" font-size="10.00">__11J2DWindowExCFv.s</text>
</a>
</g>
</g>
<!-- Node1&#45;&gt;Node22 -->
<g id="edge22" class="edge">
<title>Node1&#45;&gt;Node22</title>
<path fill="none" stroke="midnightblue" d="M3638.65,-145.2C3629.55,-135.47 3617.23,-122.28 3606.31,-110.59"/>
<polygon fill="midnightblue" stroke="midnightblue" points="3608.77,-108.1 3599.39,-103.18 3603.65,-112.88 3608.77,-108.1"/>
</g>
<!-- Node23 -->
<g id="node23" class="node">
<title>Node23</title>
<g id="a_node23"><a xlink:title=" ">
<polygon fill="white" stroke="#bfbfbf" points="3661.5,-62 3661.5,-103 3786.5,-103 3786.5,-62 3661.5,-62"/>
<text text-anchor="start" x="3669.5" y="-91" font-family="Helvetica,sans-Serif" font-size="10.00">asm/JSystem/J2DGraph</text>
<text text-anchor="start" x="3669.5" y="-80" font-family="Helvetica,sans-Serif" font-size="10.00">/J2DWindowEx/getWhite</text>
<text text-anchor="middle" x="3724" y="-69" font-family="Helvetica,sans-Serif" font-size="10.00">__11J2DWindowExCFv.s</text>
</a>
</g>
</g>
<!-- Node1&#45;&gt;Node23 -->
<g id="edge23" class="edge">
<title>Node1&#45;&gt;Node23</title>
<path fill="none" stroke="midnightblue" d="M3665.54,-145.2C3674.77,-135.47 3687.26,-122.28 3698.33,-110.59"/>
<polygon fill="midnightblue" stroke="midnightblue" points="3701.02,-112.85 3705.36,-103.18 3695.94,-108.03 3701.02,-112.85"/>
</g>
<!-- Node24 -->
<g id="node24" class="node">
<title>Node24</title>
<g id="a_node24"><a xlink:title=" ">
<polygon fill="white" stroke="#bfbfbf" points="3805,-62 3805,-103 3931,-103 3931,-62 3805,-62"/>
<text text-anchor="start" x="3813" y="-91" font-family="Helvetica,sans-Serif" font-size="10.00">asm/JSystem/J2DGraph</text>
<text text-anchor="start" x="3813" y="-80" font-family="Helvetica,sans-Serif" font-size="10.00">/J2DWindowEx/setAlpha</text>
<text text-anchor="middle" x="3868" y="-69" font-family="Helvetica,sans-Serif" font-size="10.00">__11J2DWindowExFUc.s</text>
</a>
</g>
</g>
<!-- Node1&#45;&gt;Node24 -->
<g id="edge24" class="edge">
<title>Node1&#45;&gt;Node24</title>
<path fill="none" stroke="midnightblue" d="M3692.05,-145.49C3720.95,-135.38 3760.89,-121.37 3796,-109 3798.41,-108.15 3800.86,-107.29 3803.34,-106.41"/>
<polygon fill="midnightblue" stroke="midnightblue" points="3804.71,-109.64 3812.97,-103.01 3802.38,-103.04 3804.71,-109.64"/>
</g>
<!-- Node25 -->
<g id="node25" class="node">
<title>Node25</title>
<g id="a_node25"><a xlink:title=" ">
<polygon fill="white" stroke="#bfbfbf" points="3949,-62 3949,-103 4133,-103 4133,-62 3949,-62"/>
<text text-anchor="start" x="3957" y="-91" font-family="Helvetica,sans-Serif" font-size="10.00">asm/JSystem/J2DGraph</text>
<text text-anchor="start" x="3957" y="-80" font-family="Helvetica,sans-Serif" font-size="10.00">/J2DWindowEx/setCullBack</text>
<text text-anchor="middle" x="4041" y="-69" font-family="Helvetica,sans-Serif" font-size="10.00">__11J2DWindowExF11_GXCullMode.s</text>
</a>
</g>
</g>
<!-- Node1&#45;&gt;Node25 -->
<g id="edge25" class="edge">
<title>Node1&#45;&gt;Node25</title>
<path fill="none" stroke="midnightblue" d="M3711.54,-150.37C3769.95,-141.11 3861.44,-125.78 3940,-109 3945.31,-107.87 3950.76,-106.65 3956.24,-105.38"/>
<polygon fill="midnightblue" stroke="midnightblue" points="3957.2,-108.75 3966.13,-103.06 3955.6,-101.94 3957.2,-108.75"/>
</g>
<!-- Node26 -->
<g id="node26" class="node">
<title>Node26</title>
<g id="a_node26"><a xlink:title=" ">
<polygon fill="white" stroke="#bfbfbf" points="4151.5,-62 4151.5,-103 4290.5,-103 4290.5,-62 4151.5,-62"/>
<text text-anchor="start" x="4159.5" y="-91" font-family="Helvetica,sans-Serif" font-size="10.00">asm/JSystem/J2DGraph</text>
<text text-anchor="start" x="4159.5" y="-80" font-family="Helvetica,sans-Serif" font-size="10.00">/J2DWindowEx/rewriteAlpha</text>
<text text-anchor="middle" x="4221" y="-69" font-family="Helvetica,sans-Serif" font-size="10.00">__11J2DWindowExFv.s</text>
</a>
</g>
</g>
<!-- Node1&#45;&gt;Node26 -->
<g id="edge26" class="edge">
<title>Node1&#45;&gt;Node26</title>
<path fill="none" stroke="midnightblue" d="M3711.83,-157.37C3804.77,-153.16 3989.06,-141.19 4142,-109 4146.4,-108.07 4150.91,-106.99 4155.42,-105.81"/>
<polygon fill="midnightblue" stroke="midnightblue" points="4156.58,-109.12 4165.29,-103.08 4154.72,-102.38 4156.58,-109.12"/>
</g>
<!-- Node27 -->
<g id="node27" class="node">
<title>Node27</title>
<g id="a_node27"><a xlink:title=" ">
<polygon fill="white" stroke="#bfbfbf" points="4309,-62 4309,-103 4467,-103 4467,-62 4309,-62"/>
<text text-anchor="start" x="4317" y="-91" font-family="Helvetica,sans-Serif" font-size="10.00">asm/JSystem/J2DGraph</text>
<text text-anchor="start" x="4317" y="-80" font-family="Helvetica,sans-Serif" font-size="10.00">/J2DWindowEx/getFrameTexture</text>
<text text-anchor="middle" x="4388" y="-69" font-family="Helvetica,sans-Serif" font-size="10.00">__11J2DWindowExCFUcUc.s</text>
</a>
</g>
</g>
<!-- Node1&#45;&gt;Node27 -->
<g id="edge27" class="edge">
<title>Node1&#45;&gt;Node27</title>
<path fill="none" stroke="midnightblue" d="M3711.93,-158.9C3826.91,-156.86 4086.01,-147.92 4300,-109 4305.38,-108.02 4310.9,-106.85 4316.43,-105.54"/>
<polygon fill="midnightblue" stroke="midnightblue" points="4317.5,-108.89 4326.36,-103.08 4315.81,-102.09 4317.5,-108.89"/>
</g>
<!-- Node28 -->
<g id="node28" class="node">
<title>Node28</title>
<g id="a_node28"><a xlink:title=" ">
<polygon fill="white" stroke="#bfbfbf" points="4485,-62 4485,-103 4655,-103 4655,-62 4485,-62"/>
<text text-anchor="start" x="4493" y="-91" font-family="Helvetica,sans-Serif" font-size="10.00">asm/JSystem/J2DGraph</text>
<text text-anchor="start" x="4493" y="-80" font-family="Helvetica,sans-Serif" font-size="10.00">/J2DWindowEx/getContentsTexture</text>
<text text-anchor="middle" x="4570" y="-69" font-family="Helvetica,sans-Serif" font-size="10.00">__11J2DWindowExCFUc.s</text>
</a>
</g>
</g>
<!-- Node1&#45;&gt;Node28 -->
<g id="edge28" class="edge">
<title>Node1&#45;&gt;Node28</title>
<path fill="none" stroke="midnightblue" d="M3711.67,-159.99C3848.04,-160.2 4192.62,-155.62 4476,-109 4482.13,-107.99 4488.44,-106.75 4494.75,-105.35"/>
<polygon fill="midnightblue" stroke="midnightblue" points="4495.69,-108.73 4504.63,-103.06 4494.1,-101.91 4495.69,-108.73"/>
</g>
<!-- Node29 -->
<g id="node29" class="node">
<title>Node29</title>
<g id="a_node29"><a xlink:title=" ">
<polygon fill="white" stroke="#bfbfbf" points="4673.5,-62 4673.5,-103 4842.5,-103 4842.5,-62 4673.5,-62"/>
<text text-anchor="start" x="4681.5" y="-91" font-family="Helvetica,sans-Serif" font-size="10.00">asm/JSystem/J2DGraph</text>
<text text-anchor="start" x="4681.5" y="-80" font-family="Helvetica,sans-Serif" font-size="10.00">/J2DWindowEx/isUsed_</text>
<text text-anchor="middle" x="4758" y="-69" font-family="Helvetica,sans-Serif" font-size="10.00">_11J2DWindowExFPC7ResTIMG.s</text>
</a>
</g>
</g>
<!-- Node1&#45;&gt;Node29 -->
<g id="edge29" class="edge">
<title>Node1&#45;&gt;Node29</title>
<path fill="none" stroke="midnightblue" d="M3711.74,-158.2C3899.9,-153.86 4478.75,-138.4 4664,-109 4670.25,-108.01 4676.68,-106.76 4683.1,-105.36"/>
<polygon fill="midnightblue" stroke="midnightblue" points="4684.21,-108.69 4693.16,-103.03 4682.63,-101.87 4684.21,-108.69"/>
</g>
<!-- Node30 -->
<g id="node30" class="node">
<title>Node30</title>
<g id="a_node30"><a xlink:title=" ">
<polygon fill="white" stroke="#bfbfbf" points="4860.5,-62 4860.5,-103 5051.5,-103 5051.5,-62 4860.5,-62"/>
<text text-anchor="start" x="4868.5" y="-91" font-family="Helvetica,sans-Serif" font-size="10.00">asm/JSystem/J2DGraph</text>
<text text-anchor="start" x="4868.5" y="-80" font-family="Helvetica,sans-Serif" font-size="10.00">/J2DWindowEx/setAnimation</text>
<text text-anchor="middle" x="4956" y="-69" font-family="Helvetica,sans-Serif" font-size="10.00">__11J2DWindowExFP11J2DAnmColor.s</text>
</a>
</g>
</g>
<!-- Node1&#45;&gt;Node30 -->
<g id="edge30" class="edge">
<title>Node1&#45;&gt;Node30</title>
<path fill="none" stroke="midnightblue" d="M3711.83,-158.55C3922.34,-154.97 4628.14,-140.83 4852,-109 4859.36,-107.95 4866.96,-106.61 4874.54,-105.09"/>
<polygon fill="midnightblue" stroke="midnightblue" points="4875.41,-108.49 4884.47,-103 4873.97,-101.64 4875.41,-108.49"/>
</g>
<!-- Node31 -->
<g id="node31" class="node">
<title>Node31</title>
<g id="a_node31"><a xlink:title=" ">
<polygon fill="white" stroke="#bfbfbf" points="5069.5,-56.5 5069.5,-108.5 5262.5,-108.5 5262.5,-56.5 5069.5,-56.5"/>
<text text-anchor="start" x="5077.5" y="-96.5" font-family="Helvetica,sans-Serif" font-size="10.00">asm/JSystem/J2DGraph</text>
<text text-anchor="start" x="5077.5" y="-85.5" font-family="Helvetica,sans-Serif" font-size="10.00">/J2DWindowEx/setAnimation</text>
<text text-anchor="start" x="5077.5" y="-74.5" font-family="Helvetica,sans-Serif" font-size="10.00">__11J2DWindowExFP19J2DAnmTexture</text>
<text text-anchor="middle" x="5166" y="-63.5" font-family="Helvetica,sans-Serif" font-size="10.00">SRTKey.s</text>
</a>
</g>
</g>
<!-- Node1&#45;&gt;Node31 -->
<g id="edge31" class="edge">
<title>Node1&#45;&gt;Node31</title>
<path fill="none" stroke="midnightblue" d="M3711.53,-158.97C3941.71,-156.68 4774.29,-146.06 5059.54,-109.05"/>
<polygon fill="midnightblue" stroke="midnightblue" points="5060,-112.52 5069.45,-107.73 5059.07,-105.58 5060,-112.52"/>
</g>
<!-- Node32 -->
<g id="node32" class="node">
<title>Node32</title>
<g id="a_node32"><a xlink:title=" ">
<polygon fill="white" stroke="#bfbfbf" points="5280.5,-62 5280.5,-103 5495.5,-103 5495.5,-62 5280.5,-62"/>
<text text-anchor="start" x="5288.5" y="-91" font-family="Helvetica,sans-Serif" font-size="10.00">asm/JSystem/J2DGraph</text>
<text text-anchor="start" x="5288.5" y="-80" font-family="Helvetica,sans-Serif" font-size="10.00">/J2DWindowEx/setAnimation</text>
<text text-anchor="middle" x="5388" y="-69" font-family="Helvetica,sans-Serif" font-size="10.00">__11J2DWindowExFP16J2DAnmTexPattern.s</text>
</a>
</g>
</g>
<!-- Node1&#45;&gt;Node32 -->
<g id="edge32" class="edge">
<title>Node1&#45;&gt;Node32</title>
<path fill="none" stroke="midnightblue" d="M3711.58,-159.12C3965.82,-157.27 4961.18,-147.67 5272,-109 5280.62,-107.93 5289.55,-106.52 5298.45,-104.91"/>
<polygon fill="midnightblue" stroke="midnightblue" points="5299.29,-108.31 5308.46,-103.02 5297.99,-101.43 5299.29,-108.31"/>
</g>
<!-- Node33 -->
<g id="node33" class="node">
<title>Node33</title>
<g id="a_node33"><a xlink:title=" ">
<polygon fill="white" stroke="#bfbfbf" points="5514,-62 5514,-103 5732,-103 5732,-62 5514,-62"/>
<text text-anchor="start" x="5522" y="-91" font-family="Helvetica,sans-Serif" font-size="10.00">asm/JSystem/J2DGraph</text>
<text text-anchor="start" x="5522" y="-80" font-family="Helvetica,sans-Serif" font-size="10.00">/J2DWindowEx/setAnimation</text>
<text text-anchor="middle" x="5623" y="-69" font-family="Helvetica,sans-Serif" font-size="10.00">__11J2DWindowExFP15J2DAnmTevRegKey.s</text>
</a>
</g>
</g>
<!-- Node1&#45;&gt;Node33 -->
<g id="edge33" class="edge">
<title>Node1&#45;&gt;Node33</title>
<path fill="none" stroke="midnightblue" d="M3711.58,-159.36C3987.84,-158.5 5145.76,-152.33 5505,-109 5513.86,-107.93 5523.04,-106.51 5532.19,-104.89"/>
<polygon fill="midnightblue" stroke="midnightblue" points="5532.89,-108.32 5542.09,-103.05 5531.61,-101.44 5532.89,-108.32"/>
</g>
<!-- Node34 -->
<g id="node34" class="node">
<title>Node34</title>
<g id="a_node34"><a xlink:title=" ">
<polygon fill="white" stroke="#bfbfbf" points="5750.5,-62 5750.5,-103 5901.5,-103 5901.5,-62 5750.5,-62"/>
<text text-anchor="start" x="5758.5" y="-91" font-family="Helvetica,sans-Serif" font-size="10.00">asm/JSystem/J2DGraph</text>
<text text-anchor="start" x="5758.5" y="-80" font-family="Helvetica,sans-Serif" font-size="10.00">/J2DWindowEx/isNeedSetAnm</text>
<text text-anchor="middle" x="5826" y="-69" font-family="Helvetica,sans-Serif" font-size="10.00">__11J2DWindowExFUc.s</text>
</a>
</g>
</g>
<!-- Node1&#45;&gt;Node34 -->
<g id="edge34" class="edge">
<title>Node1&#45;&gt;Node34</title>
<path fill="none" stroke="midnightblue" d="M3711.53,-159.01C4031.09,-156.25 5536.23,-141.59 5741,-109 5746.75,-108.08 5752.66,-106.88 5758.55,-105.5"/>
<polygon fill="midnightblue" stroke="midnightblue" points="5759.57,-108.85 5768.41,-103.02 5757.86,-102.07 5759.57,-108.85"/>
</g>
<!-- Node35 -->
<g id="node35" class="node">
<title>Node35</title>
<g id="a_node35"><a xlink:title=" ">
<polygon fill="white" stroke="#bfbfbf" points="5919.5,-62 5919.5,-103 6124.5,-103 6124.5,-62 5919.5,-62"/>
<text text-anchor="start" x="5927.5" y="-91" font-family="Helvetica,sans-Serif" font-size="10.00">asm/JSystem/J2DGraph</text>
<text text-anchor="start" x="5927.5" y="-80" font-family="Helvetica,sans-Serif" font-size="10.00">/J2DWindowEx/setAnimation</text>
<text text-anchor="middle" x="6022" y="-69" font-family="Helvetica,sans-Serif" font-size="10.00">__11J2DWindowExFP14J2DAnmVtxColor.s</text>
</a>
</g>
</g>
<!-- Node1&#45;&gt;Node35 -->
<g id="edge35" class="edge">
<title>Node1&#45;&gt;Node35</title>
<path fill="none" stroke="midnightblue" d="M3711.75,-159.81C4023.64,-161.17 5467.48,-164.32 5911,-109 5919.25,-107.97 5927.78,-106.59 5936.29,-105.01"/>
<polygon fill="midnightblue" stroke="midnightblue" points="5937.09,-108.41 5946.23,-103.06 5935.75,-101.55 5937.09,-108.41"/>
</g>
<!-- Node36 -->
<g id="node36" class="node">
<title>Node36</title>
<g id="a_node36"><a xlink:title=" ">
<polygon fill="white" stroke="#bfbfbf" points="6142.5,-62 6142.5,-103 6361.5,-103 6361.5,-62 6142.5,-62"/>
<text text-anchor="start" x="6150.5" y="-91" font-family="Helvetica,sans-Serif" font-size="10.00">asm/JSystem/J2DGraph</text>
<text text-anchor="start" x="6150.5" y="-80" font-family="Helvetica,sans-Serif" font-size="10.00">/J2DWindowEx/animationPane</text>
<text text-anchor="middle" x="6252" y="-69" font-family="Helvetica,sans-Serif" font-size="10.00">__11J2DWindowExFPC15J2DAnmTransform.s</text>
</a>
</g>
</g>
<!-- Node1&#45;&gt;Node36 -->
<g id="edge36" class="edge">
<title>Node1&#45;&gt;Node36</title>
<path fill="none" stroke="midnightblue" d="M3711.6,-158.97C4065.8,-155.76 5886.86,-137.94 6134,-109 6143.02,-107.94 6152.37,-106.51 6161.67,-104.87"/>
<polygon fill="midnightblue" stroke="midnightblue" points="6162.54,-108.27 6171.73,-103.01 6161.26,-101.38 6162.54,-108.27"/>
</g>
<!-- Node37 -->
<g id="node37" class="node">
<title>Node37</title>
<g id="a_node37"><a xlink:title=" ">
<polygon fill="white" stroke="#bfbfbf" points="6379.5,-62 6379.5,-103 6540.5,-103 6540.5,-62 6379.5,-62"/>
<text text-anchor="start" x="6387.5" y="-91" font-family="Helvetica,sans-Serif" font-size="10.00">asm/JSystem/J2DGraph</text>
<text text-anchor="start" x="6387.5" y="-80" font-family="Helvetica,sans-Serif" font-size="10.00">/J2DWindowEx/getFrameMaterial</text>
<text text-anchor="middle" x="6460" y="-69" font-family="Helvetica,sans-Serif" font-size="10.00">__11J2DWindowExCFUc.s</text>
</a>
</g>
</g>
<!-- Node1&#45;&gt;Node37 -->
<g id="edge37" class="edge">
<title>Node1&#45;&gt;Node37</title>
<path fill="none" stroke="midnightblue" d="M3711.77,-159.32C4086.05,-158.09 6100.12,-149.61 6371,-109 6377.15,-108.08 6383.48,-106.85 6389.79,-105.43"/>
<polygon fill="midnightblue" stroke="midnightblue" points="6390.76,-108.8 6399.66,-103.06 6389.12,-101.99 6390.76,-108.8"/>
</g>
<!-- Node38 -->
<g id="node38" class="node">
<title>Node38</title>
<g id="a_node38"><a xlink:title=" ">
<polygon fill="white" stroke="#bfbfbf" points="6559,-62 6559,-103 6731,-103 6731,-62 6559,-62"/>
<text text-anchor="start" x="6567" y="-91" font-family="Helvetica,sans-Serif" font-size="10.00">asm/JSystem/J2DGraph</text>
<text text-anchor="start" x="6567" y="-80" font-family="Helvetica,sans-Serif" font-size="10.00">/J2DWindowEx/getContentsMaterial</text>
<text text-anchor="middle" x="6645" y="-69" font-family="Helvetica,sans-Serif" font-size="10.00">__11J2DWindowExCFv.s</text>
</a>
</g>
</g>
<!-- Node1&#45;&gt;Node38 -->
<g id="edge38" class="edge">
<title>Node1&#45;&gt;Node38</title>
<path fill="none" stroke="midnightblue" d="M3711.57,-159.34C4099.51,-158.17 6259.9,-149.83 6550,-109 6556.76,-108.05 6563.73,-106.77 6570.67,-105.3"/>
<polygon fill="midnightblue" stroke="midnightblue" points="6571.81,-108.63 6580.79,-103 6570.27,-101.8 6571.81,-108.63"/>
</g>
<!-- Node39 -->
<g id="node39" class="node">
<title>Node39</title>
<g id="a_node39"><a xlink:title=" ">
<polygon fill="white" stroke="#bfbfbf" points="6749,-56.5 6749,-108.5 6943,-108.5 6943,-56.5 6749,-56.5"/>
<text text-anchor="start" x="6757" y="-96.5" font-family="Helvetica,sans-Serif" font-size="10.00">asm/JSystem/J2DGraph</text>
<text text-anchor="start" x="6757" y="-85.5" font-family="Helvetica,sans-Serif" font-size="10.00">/J2DWindowEx/getMaterial</text>
<text text-anchor="start" x="6757" y="-74.5" font-family="Helvetica,sans-Serif" font-size="10.00">__11J2DWindowExCFRQ29J2DWindow9</text>
<text text-anchor="middle" x="6846" y="-63.5" font-family="Helvetica,sans-Serif" font-size="10.00">TMaterial.s</text>
</a>
</g>
</g>
<!-- Node1&#45;&gt;Node39 -->
<g id="edge39" class="edge">
<title>Node1&#45;&gt;Node39</title>
<path fill="none" stroke="midnightblue" d="M3711.53,-159.31C4109.87,-157.96 6383.16,-148.61 6738.63,-108.96"/>
<polygon fill="midnightblue" stroke="midnightblue" points="6739.31,-112.41 6748.82,-107.75 6738.48,-105.46 6739.31,-112.41"/>
</g>
<!-- Node40 -->
<g id="node40" class="node">
<title>Node40</title>
<g id="a_node40"><a xlink:title=" ">
<polygon fill="white" stroke="#bfbfbf" points="6961.5,-62 6961.5,-103 7140.5,-103 7140.5,-62 6961.5,-62"/>
<text text-anchor="start" x="6969.5" y="-91" font-family="Helvetica,sans-Serif" font-size="10.00">asm/JSystem/J2DGraph</text>
<text text-anchor="start" x="6969.5" y="-80" font-family="Helvetica,sans-Serif" font-size="10.00">/J2DWindowEx/draw__11J2DWindow</text>
<text text-anchor="middle" x="7051" y="-69" font-family="Helvetica,sans-Serif" font-size="10.00">ExFffff.s</text>
</a>
</g>
</g>
<!-- Node1&#45;&gt;Node40 -->
<g id="edge40" class="edge">
<title>Node1&#45;&gt;Node40</title>
<path fill="none" stroke="midnightblue" d="M3711.54,-159.44C4129.76,-158.89 6619.26,-153.75 6952,-109 6959.28,-108.02 6966.79,-106.69 6974.27,-105.15"/>
<polygon fill="midnightblue" stroke="midnightblue" points="6975.03,-108.57 6984.06,-103.02 6973.54,-101.73 6975.03,-108.57"/>
</g>
<!-- Node41 -->
<g id="node41" class="node">
<title>Node41</title>
<g id="a_node41"><a xlink:title=" ">
<polygon fill="white" stroke="#bfbfbf" points="7158.5,-62 7158.5,-103 7295.5,-103 7295.5,-62 7158.5,-62"/>
<text text-anchor="start" x="7166.5" y="-91" font-family="Helvetica,sans-Serif" font-size="10.00">asm/JSystem/J2DGraph</text>
<text text-anchor="start" x="7166.5" y="-80" font-family="Helvetica,sans-Serif" font-size="10.00">/J2DWindowEx/setCullBack</text>
<text text-anchor="middle" x="7227" y="-69" font-family="Helvetica,sans-Serif" font-size="10.00">__11J2DWindowExFb.s</text>
</a>
</g>
</g>
<!-- Node1&#45;&gt;Node41 -->
<g id="edge41" class="edge">
<title>Node1&#45;&gt;Node41</title>
<path fill="none" stroke="midnightblue" d="M3711.6,-159.16C4158.57,-156.52 6973.61,-138.76 7150,-109 7154.99,-108.16 7160.1,-107.05 7165.2,-105.77"/>
<polygon fill="midnightblue" stroke="midnightblue" points="7166.21,-109.12 7174.94,-103.11 7164.37,-102.36 7166.21,-109.12"/>
</g>
<!-- Node42 -->
<g id="node42" class="node">
<title>Node42</title>
<g id="a_node42"><a xlink:title=" ">
<polygon fill="white" stroke="#bfbfbf" points="7313.5,-62 7313.5,-103 7484.5,-103 7484.5,-62 7313.5,-62"/>
<text text-anchor="start" x="7321.5" y="-91" font-family="Helvetica,sans-Serif" font-size="10.00">asm/JSystem/J2DGraph</text>
<text text-anchor="start" x="7321.5" y="-80" font-family="Helvetica,sans-Serif" font-size="10.00">/J2DWindowEx/isUsed_</text>
<text text-anchor="middle" x="7399" y="-69" font-family="Helvetica,sans-Serif" font-size="10.00">_11J2DWindowExFPC7ResFONT.s</text>
</a>
</g>
</g>
<!-- Node1&#45;&gt;Node42 -->
<g id="edge42" class="edge">
<title>Node1&#45;&gt;Node42</title>
<path fill="none" stroke="midnightblue" d="M3711.76,-159.58C4155.88,-160.04 6935.3,-160.86 7305,-109 7311.69,-108.06 7318.59,-106.79 7325.46,-105.32"/>
<polygon fill="midnightblue" stroke="midnightblue" points="7326.51,-108.67 7335.48,-103.04 7324.96,-101.85 7326.51,-108.67"/>
</g>
<!-- Node43 -->
<g id="node43" class="node">
<title>Node43</title>
<g id="a_node43"><a xlink:title=" ">
<polygon fill="white" stroke="#bfbfbf" points="7502.5,-62 7502.5,-103 7693.5,-103 7693.5,-62 7502.5,-62"/>
<text text-anchor="start" x="7510.5" y="-91" font-family="Helvetica,sans-Serif" font-size="10.00">asm/JSystem/J2DGraph</text>
<text text-anchor="start" x="7510.5" y="-80" font-family="Helvetica,sans-Serif" font-size="10.00">/J2DWindowEx/setAnimation</text>
<text text-anchor="middle" x="7598" y="-69" font-family="Helvetica,sans-Serif" font-size="10.00">__11J2DWindowExFP10J2DAnmBase.s</text>
</a>
</g>
</g>
<!-- Node1&#45;&gt;Node43 -->
<g id="edge43" class="edge">
<title>Node1&#45;&gt;Node43</title>
<path fill="none" stroke="midnightblue" d="M3711.54,-159.53C4167.86,-159.69 7103.59,-158.77 7494,-109 7501.72,-108.02 7509.69,-106.67 7517.62,-105.11"/>
<polygon fill="midnightblue" stroke="midnightblue" points="7518.56,-108.5 7527.64,-103.04 7517.13,-101.64 7518.56,-108.5"/>
</g>
<!-- Node2&#45;&gt;Node3 -->
<g id="edge2" class="edge">
<title>Node2&#45;&gt;Node3</title>
<path fill="none" stroke="midnightblue" d="M93.99,-72.86C103.05,-61.65 119.04,-41.87 130.5,-27.69"/>
<polygon fill="midnightblue" stroke="midnightblue" points="133.39,-29.69 136.95,-19.72 127.94,-25.29 133.39,-29.69"/>
</g>
</g>
</svg>
        <g id="navigator" transform="translate(0 0)" fill="#404254">
                <rect fill="#f2f5e9" fill-opacity="0.5" stroke="#606060" stroke-width=".5" x="0" y="0" width="60" height="60"/>
                <use id="zoomplus" xlink:href="#zoomPlus" x="17" y="9" onmousedown="handleZoom(evt,'in')"/>
                <use id="zoomminus" xlink:href="#zoomMin" x="42" y="9" onmousedown="handleZoom(evt,'out')"/>
                <use id="reset" xlink:href="#resetDef" x="30" y="36" onmousedown="handleReset()"/>
                <g id="arrowUp" xlink:href="#dirArrow" transform="translate(30 24)" onmousedown="handlePan(0,-1)">
                  <use xlink:href="#rim" fill="#404040">
                        <set attributeName="fill" to="#808080" begin="arrowUp.mouseover" end="arrowUp.mouseout"/>
                  </use>
                  <path fill="none" stroke="white" stroke-width="1.5" d="M0,-3.0v7 M-2.5,-0.5L0,-3.0L2.5,-0.5"/>
                </g>
                <g id="arrowRight" xlink:href="#dirArrow" transform="rotate(90) translate(36 -43)" onmousedown="handlePan(1,0)">
                  <use xlink:href="#rim" fill="#404040">
                        <set attributeName="fill" to="#808080" begin="arrowRight.mouseover" end="arrowRight.mouseout"/>
                  </use>
                  <path fill="none" stroke="white" stroke-width="1.5" d="M0,-3.0v7 M-2.5,-0.5L0,-3.0L2.5,-0.5"/>
                </g>
                <g id="arrowDown" xlink:href="#dirArrow" transform="rotate(180) translate(-30 -48)" onmousedown="handlePan(0,1)">
                  <use xlink:href="#rim" fill="#404040">
                        <set attributeName="fill" to="#808080" begin="arrowDown.mouseover" end="arrowDown.mouseout"/>
                  </use>
                  <path fill="none" stroke="white" stroke-width="1.5" d="M0,-3.0v7 M-2.5,-0.5L0,-3.0L2.5,-0.5"/>
                </g>
                <g id="arrowLeft" xlink:href="#dirArrow" transform="rotate(270) translate(-36 17)" onmousedown="handlePan(-1,0)">
                  <use xlink:href="#rim" fill="#404040">
                        <set attributeName="fill" to="#808080" begin="arrowLeft.mouseover" end="arrowLeft.mouseout"/>
                  </use>
                  <path fill="none" stroke="white" stroke-width="1.5" d="M0,-3.0v7 M-2.5,-0.5L0,-3.0L2.5,-0.5"/>
                </g>
        </g>
        <svg viewBox="0 0 15 15" width="100%" height="30px" preserveAspectRatio="xMaxYMin meet">
         <g id="arrow_out" transform="scale(0.3 0.3)">
          <a xlink:href="J2DWindowEx_8cpp__incl_org.svg" target="_base">
           <rect id="button" ry="5" rx="5" y="6" x="6" height="38" width="38"
                fill="#f2f5e9" fill-opacity="0.5" stroke="#606060" stroke-width="1.0"/>
           <path id="arrow"
             d="M 11.500037,31.436501 C 11.940474,20.09759 22.043105,11.32322 32.158766,21.979434 L 37.068811,17.246167 C 37.068811,17.246167 37.088388,32 37.088388,32 L 22.160133,31.978069 C 22.160133,31.978069 26.997745,27.140456 26.997745,27.140456 C 18.528582,18.264221 13.291696,25.230495 11.500037,31.436501 z"
             style="fill:#404040;"/>
          </a>
         </g>
        </svg>
</svg>
