<?xml version="1.0" encoding="UTF-8" standalone="no"?>
<!DOCTYPE svg PUBLIC "-//W3C//DTD SVG 1.1//EN"
 "http://www.w3.org/Graphics/SVG/1.1/DTD/svg11.dtd">
<!-- Generated by graphviz version 2.50.0 (20220203.2022)
 -->
<!-- Title: include/JSystem/J3DGraphBase/J3DDrawBuffer.h Pages: 1 -->
<svg width="3866pt" height="530pt"
 viewBox="0.00 0.00 3866.00 530.00" xmlns="http://www.w3.org/2000/svg" xmlns:xlink="http://www.w3.org/1999/xlink">
<g id="graph0" class="graph" transform="scale(1 1) rotate(0) translate(4 526)">
<title>include/JSystem/J3DGraphBase/J3DDrawBuffer.h</title>
<polygon fill="white" stroke="transparent" points="-4,4 -4,-526 3862,-526 3862,4 -4,4"/>
<!-- Node1 -->
<g id="node1" class="node">
<title>Node1</title>
<g id="a_node1"><a xlink:title=" ">
<polygon fill="#bfbfbf" stroke="black" points="2003.5,-491.5 2003.5,-521.5 2138.5,-521.5 2138.5,-491.5 2003.5,-491.5"/>
<text text-anchor="start" x="2011.5" y="-509.5" font-family="Helvetica,sans-Serif" font-size="10.00">include/JSystem/J3DGraph</text>
<text text-anchor="middle" x="2071" y="-498.5" font-family="Helvetica,sans-Serif" font-size="10.00">Base/J3DDrawBuffer.h</text>
</a>
</g>
</g>
<!-- Node2 -->
<g id="node2" class="node">
<title>Node2</title>
<g id="a_node2"><a xlink:href="d__drawlist_8h.html" target="_top" xlink:title=" ">
<polygon fill="white" stroke="black" points="2016,-430 2016,-449 2126,-449 2126,-430 2016,-430"/>
<text text-anchor="middle" x="2071" y="-437" font-family="Helvetica,sans-Serif" font-size="10.00">include/d/d_drawlist.h</text>
</a>
</g>
</g>
<!-- Node1&#45;&gt;Node2 -->
<g id="edge1" class="edge">
<title>Node1&#45;&gt;Node2</title>
<path fill="none" stroke="midnightblue" d="M2071,-481.25C2071,-470.02 2071,-457.38 2071,-449.19"/>
<polygon fill="midnightblue" stroke="midnightblue" points="2067.5,-481.4 2071,-491.4 2074.5,-481.4 2067.5,-481.4"/>
</g>
<!-- Node128 -->
<g id="node49" class="node">
<title>Node128</title>
<g id="a_node49"><a xlink:href="d__eye__hl_8h.html" target="_top" xlink:title=" ">
<polygon fill="white" stroke="black" points="1180,-290.5 1180,-309.5 1284,-309.5 1284,-290.5 1180,-290.5"/>
<text text-anchor="middle" x="1232" y="-297.5" font-family="Helvetica,sans-Serif" font-size="10.00">include/d/d_eye_hl.h</text>
</a>
</g>
</g>
<!-- Node1&#45;&gt;Node128 -->
<g id="edge62" class="edge">
<title>Node1&#45;&gt;Node128</title>
<path fill="none" stroke="midnightblue" d="M1993.04,-498.16C1868.82,-485 1619.31,-452.51 1417,-388 1350.72,-366.87 1277.49,-327.1 1246.8,-309.61"/>
<polygon fill="midnightblue" stroke="midnightblue" points="1992.91,-501.67 2003.22,-499.23 1993.64,-494.71 1992.91,-501.67"/>
</g>
<!-- Node129 -->
<g id="node50" class="node">
<title>Node129</title>
<g id="a_node50"><a xlink:href="J3DDrawBuffer_8cpp.html" target="_top" xlink:title=" ">
<polygon fill="white" stroke="black" points="2144,-424.5 2144,-454.5 2286,-454.5 2286,-424.5 2144,-424.5"/>
<text text-anchor="start" x="2152" y="-442.5" font-family="Helvetica,sans-Serif" font-size="10.00">libs/JSystem/J3DGraphBase</text>
<text text-anchor="middle" x="2215" y="-431.5" font-family="Helvetica,sans-Serif" font-size="10.00">/J3DDrawBuffer.cpp</text>
</a>
</g>
</g>
<!-- Node1&#45;&gt;Node129 -->
<g id="edge65" class="edge">
<title>Node1&#45;&gt;Node129</title>
<path fill="none" stroke="midnightblue" d="M2111.39,-487.27C2134.32,-476.92 2162.6,-464.15 2183.82,-454.58"/>
<polygon fill="midnightblue" stroke="midnightblue" points="2109.92,-484.09 2102.25,-491.4 2112.8,-490.47 2109.92,-484.09"/>
</g>
<!-- Node3 -->
<g id="node3" class="node">
<title>Node3</title>
<g id="a_node3"><a xlink:href="d__a__alink_8h.html" target="_top" xlink:title=" ">
<polygon fill="white" stroke="black" points="1330,-218 1330,-237 1446,-237 1446,-218 1330,-218"/>
<text text-anchor="middle" x="1388" y="-225" font-family="Helvetica,sans-Serif" font-size="10.00">include/d/a/d_a_alink.h</text>
</a>
</g>
</g>
<!-- Node2&#45;&gt;Node3 -->
<g id="edge2" class="edge">
<title>Node2&#45;&gt;Node3</title>
<path fill="none" stroke="midnightblue" d="M2005.81,-438.93C1904.2,-438.14 1702.63,-430.67 1538,-388 1466.14,-369.37 1425.62,-383.13 1385,-321 1367.77,-294.64 1378.68,-254.42 1384.74,-237.02"/>
<polygon fill="midnightblue" stroke="midnightblue" points="2005.9,-442.43 2015.92,-438.99 2005.94,-435.43 2005.9,-442.43"/>
</g>
<!-- Node4 -->
<g id="node4" class="node">
<title>Node4</title>
<g id="a_node4"><a xlink:href="d__com__inf__game_8h.html" target="_top" xlink:title=" ">
<polygon fill="white" stroke="red" points="1810,-145.5 1810,-175.5 1920,-175.5 1920,-145.5 1810,-145.5"/>
<text text-anchor="start" x="1818" y="-163.5" font-family="Helvetica,sans-Serif" font-size="10.00">include/d/com/d_com</text>
<text text-anchor="middle" x="1865" y="-152.5" font-family="Helvetica,sans-Serif" font-size="10.00">_inf_game.h</text>
</a>
</g>
</g>
<!-- Node2&#45;&gt;Node4 -->
<g id="edge53" class="edge">
<title>Node2&#45;&gt;Node4</title>
<path fill="none" stroke="midnightblue" d="M2034.37,-426.08C2015.79,-417.99 1994.38,-405.62 1981,-388 1932.3,-323.87 1983.64,-278.34 1938,-212 1927.26,-196.38 1909.98,-184.12 1894.94,-175.58"/>
<polygon fill="midnightblue" stroke="midnightblue" points="2033.19,-429.37 2043.77,-429.92 2035.84,-422.9 2033.19,-429.37"/>
</g>
<!-- Node16 -->
<g id="node9" class="node">
<title>Node16</title>
<g id="a_node9"><a xlink:href="d__kantera__icon__meter_8h.html" target="_top" xlink:title=" ">
<polygon fill="white" stroke="red" points="3604.5,-73 3604.5,-103 3705.5,-103 3705.5,-73 3604.5,-73"/>
<text text-anchor="start" x="3612.5" y="-91" font-family="Helvetica,sans-Serif" font-size="10.00">include/d/d_kantera</text>
<text text-anchor="middle" x="3655" y="-80" font-family="Helvetica,sans-Serif" font-size="10.00">_icon_meter.h</text>
</a>
</g>
</g>
<!-- Node2&#45;&gt;Node16 -->
<g id="edge54" class="edge">
<title>Node2&#45;&gt;Node16</title>
<path fill="none" stroke="midnightblue" d="M2048.68,-424.02C2036.62,-415.05 2022.5,-402.5 2014,-388 1993.98,-353.86 1995,-340.58 1995,-301 1995,-301 1995,-301 1995,-226.5 1995,-48.13 3421.19,-144.44 3596,-109 3603.31,-107.52 3610.97,-105.38 3618.26,-103.05"/>
<polygon fill="midnightblue" stroke="midnightblue" points="2046.8,-426.97 2056.98,-429.89 2050.84,-421.26 2046.8,-426.97"/>
</g>
<!-- Node67 -->
<g id="node37" class="node">
<title>Node67</title>
<g id="a_node37"><a xlink:href="d__a__player_8h.html" target="_top" xlink:title=" ">
<polygon fill="white" stroke="black" points="1547.5,-363 1547.5,-382 1668.5,-382 1668.5,-363 1547.5,-363"/>
<text text-anchor="middle" x="1608" y="-370" font-family="Helvetica,sans-Serif" font-size="10.00">include/d/a/d_a_player.h</text>
</a>
</g>
</g>
<!-- Node2&#45;&gt;Node67 -->
<g id="edge39" class="edge">
<title>Node2&#45;&gt;Node67</title>
<path fill="none" stroke="midnightblue" d="M2005.55,-429.31C1915.79,-416.71 1755.72,-394.24 1668.58,-382.01"/>
<polygon fill="midnightblue" stroke="midnightblue" points="2005.22,-432.8 2015.61,-430.72 2006.19,-425.87 2005.22,-432.8"/>
</g>
<!-- Node100 -->
<g id="node43" class="node">
<title>Node100</title>
<g id="a_node43"><a xlink:href="d__select__cursor_8h.html" target="_top" xlink:title=" ">
<polygon fill="white" stroke="red" points="2023.5,-357.5 2023.5,-387.5 2118.5,-387.5 2118.5,-357.5 2023.5,-357.5"/>
<text text-anchor="start" x="2031.5" y="-375.5" font-family="Helvetica,sans-Serif" font-size="10.00">include/d/d_select</text>
<text text-anchor="middle" x="2071" y="-364.5" font-family="Helvetica,sans-Serif" font-size="10.00">_cursor.h</text>
</a>
</g>
</g>
<!-- Node2&#45;&gt;Node100 -->
<g id="edge55" class="edge">
<title>Node2&#45;&gt;Node100</title>
<path fill="none" stroke="midnightblue" d="M2071,-419.41C2071,-409.22 2071,-396.9 2071,-387.59"/>
<polygon fill="midnightblue" stroke="midnightblue" points="2067.5,-419.73 2071,-429.73 2074.5,-419.73 2067.5,-419.73"/>
</g>
<!-- Node120 -->
<g id="node44" class="node">
<title>Node120</title>
<g id="a_node44"><a xlink:href="d__map__path_8h.html" target="_top" xlink:title=" ">
<polygon fill="white" stroke="red" points="2137,-357.5 2137,-387.5 2247,-387.5 2247,-357.5 2137,-357.5"/>
<text text-anchor="start" x="2145" y="-375.5" font-family="Helvetica,sans-Serif" font-size="10.00">include/d/map/d_map</text>
<text text-anchor="middle" x="2192" y="-364.5" font-family="Helvetica,sans-Serif" font-size="10.00">_path.h</text>
</a>
</g>
</g>
<!-- Node2&#45;&gt;Node120 -->
<g id="edge56" class="edge">
<title>Node2&#45;&gt;Node120</title>
<path fill="none" stroke="midnightblue" d="M2096.31,-424.9C2116.67,-413.97 2145.18,-398.65 2165.77,-387.59"/>
<polygon fill="midnightblue" stroke="midnightblue" points="2094.47,-421.92 2087.32,-429.73 2097.78,-428.08 2094.47,-421.92"/>
</g>
<!-- Node124 -->
<g id="node45" class="node">
<title>Node124</title>
<g id="a_node45"><a xlink:href="d__menu__fmap_8h.html" target="_top" xlink:title=" ">
<polygon fill="white" stroke="red" points="2265,-357.5 2265,-387.5 2385,-387.5 2385,-357.5 2265,-357.5"/>
<text text-anchor="start" x="2273" y="-375.5" font-family="Helvetica,sans-Serif" font-size="10.00">include/d/menu/d_menu</text>
<text text-anchor="middle" x="2325" y="-364.5" font-family="Helvetica,sans-Serif" font-size="10.00">_fmap.h</text>
</a>
</g>
</g>
<!-- Node2&#45;&gt;Node124 -->
<g id="edge57" class="edge">
<title>Node2&#45;&gt;Node124</title>
<path fill="none" stroke="midnightblue" d="M2114.34,-427.41C2157.35,-416.4 2223.4,-399.5 2270.06,-387.56"/>
<polygon fill="midnightblue" stroke="midnightblue" points="2113.29,-424.07 2104.47,-429.94 2115.02,-430.85 2113.29,-424.07"/>
</g>
<!-- Node25 -->
<g id="node46" class="node">
<title>Node25</title>
<g id="a_node46"><a xlink:href="d__menu__window_8h.html" target="_top" xlink:title=" ">
<polygon fill="white" stroke="red" points="2403,-357.5 2403,-387.5 2523,-387.5 2523,-357.5 2403,-357.5"/>
<text text-anchor="start" x="2411" y="-375.5" font-family="Helvetica,sans-Serif" font-size="10.00">include/d/menu/d_menu</text>
<text text-anchor="middle" x="2463" y="-364.5" font-family="Helvetica,sans-Serif" font-size="10.00">_window.h</text>
</a>
</g>
</g>
<!-- Node2&#45;&gt;Node25 -->
<g id="edge58" class="edge">
<title>Node2&#45;&gt;Node25</title>
<path fill="none" stroke="midnightblue" d="M2115.96,-427.81C2122.34,-426.44 2128.82,-425.13 2135,-424 2249.33,-403.14 2279.51,-407.96 2394,-388 2396.89,-387.5 2399.85,-386.96 2402.84,-386.4"/>
<polygon fill="midnightblue" stroke="midnightblue" points="2115.11,-424.41 2106.1,-429.99 2116.62,-431.25 2115.11,-424.41"/>
</g>
<!-- Node126 -->
<g id="node47" class="node">
<title>Node126</title>
<g id="a_node47"><a xlink:href="d__meter2__draw_8h.html" target="_top" xlink:title=" ">
<polygon fill="white" stroke="red" points="3447.5,-145.5 3447.5,-175.5 3574.5,-175.5 3574.5,-145.5 3447.5,-145.5"/>
<text text-anchor="start" x="3455.5" y="-163.5" font-family="Helvetica,sans-Serif" font-size="10.00">include/d/meter/d_meter2</text>
<text text-anchor="middle" x="3511" y="-152.5" font-family="Helvetica,sans-Serif" font-size="10.00">_draw.h</text>
</a>
</g>
</g>
<!-- Node2&#45;&gt;Node126 -->
<g id="edge59" class="edge">
<title>Node2&#45;&gt;Node126</title>
<path fill="none" stroke="midnightblue" d="M2114.05,-427.8C2121.02,-426.34 2128.18,-425 2135,-424 2363.76,-390.36 2425.87,-425.71 2654,-388 2973.23,-335.23 3346.16,-216.36 3469.26,-175.56"/>
<polygon fill="midnightblue" stroke="midnightblue" points="2113.05,-424.43 2104.04,-430 2114.55,-431.27 2113.05,-424.43"/>
</g>
<!-- Node127 -->
<g id="node48" class="node">
<title>Node127</title>
<g id="a_node48"><a xlink:href="d__drawlist_8cpp.html" target="_top" xlink:title=" ">
<polygon fill="white" stroke="black" points="2541,-363 2541,-382 2645,-382 2645,-363 2541,-363"/>
<text text-anchor="middle" x="2593" y="-370" font-family="Helvetica,sans-Serif" font-size="10.00">src/d/d_drawlist.cpp</text>
</a>
</g>
</g>
<!-- Node2&#45;&gt;Node127 -->
<g id="edge61" class="edge">
<title>Node2&#45;&gt;Node127</title>
<path fill="none" stroke="midnightblue" d="M2114.53,-427.83C2121.35,-426.39 2128.35,-425.05 2135,-424 2310,-396.37 2357.15,-416.56 2532,-388 2541.45,-386.46 2551.62,-384.26 2560.88,-382.04"/>
<polygon fill="midnightblue" stroke="midnightblue" points="2113.73,-424.42 2104.72,-429.98 2115.24,-431.26 2113.73,-424.42"/>
</g>
<!-- Node3&#45;&gt;Node4 -->
<g id="edge3" class="edge">
<title>Node3&#45;&gt;Node4</title>
<path fill="none" stroke="midnightblue" d="M1456.11,-217.22C1551.32,-204.24 1722.34,-180.94 1809.97,-169"/>
<polygon fill="midnightblue" stroke="midnightblue" points="1455.45,-213.78 1446.01,-218.59 1456.39,-220.71 1455.45,-213.78"/>
</g>
<!-- Node40 -->
<g id="node18" class="node">
<title>Node40</title>
<g id="a_node18"><a xlink:href="d__a__alink_8cpp.html" target="_top" xlink:title=" ">
<polygon fill="white" stroke="black" points="116.5,-78.5 116.5,-97.5 225.5,-97.5 225.5,-78.5 116.5,-78.5"/>
<text text-anchor="middle" x="171" y="-85.5" font-family="Helvetica,sans-Serif" font-size="10.00">src/d/a/d_a_alink.cpp</text>
</a>
</g>
</g>
<!-- Node3&#45;&gt;Node40 -->
<g id="edge38" class="edge">
<title>Node3&#45;&gt;Node40</title>
<path fill="none" stroke="midnightblue" d="M1319.87,-220.36C1088.51,-199.42 341.4,-130.81 235,-109 221.32,-106.19 206.4,-101.62 194.41,-97.56"/>
<polygon fill="midnightblue" stroke="midnightblue" points="1319.57,-223.85 1329.84,-221.27 1320.2,-216.88 1319.57,-223.85"/>
</g>
<!-- Node5 -->
<g id="node5" class="node">
<title>Node5</title>
<g id="a_node5"><a xlink:href="d__a__npc_8h.html" target="_top" xlink:title=" ">
<polygon fill="white" stroke="red" points="3047.5,-78.5 3047.5,-97.5 3158.5,-97.5 3158.5,-78.5 3047.5,-78.5"/>
<text text-anchor="middle" x="3103" y="-85.5" font-family="Helvetica,sans-Serif" font-size="10.00">include/d/a/d_a_npc.h</text>
</a>
</g>
</g>
<!-- Node4&#45;&gt;Node5 -->
<g id="edge4" class="edge">
<title>Node4&#45;&gt;Node5</title>
<path fill="none" stroke="midnightblue" d="M1930.27,-146.12C1933.21,-145.7 1936.13,-145.33 1939,-145 2424.58,-89.84 2555.98,-189.57 3038,-109 3052.44,-106.59 3068.14,-101.82 3080.49,-97.54"/>
<polygon fill="midnightblue" stroke="midnightblue" points="1929.56,-142.69 1920.21,-147.68 1930.63,-149.61 1929.56,-142.69"/>
</g>
<!-- Node10 -->
<g id="node6" class="node">
<title>Node10</title>
<g id="a_node6"><a xlink:href="d__cc__uty_8h.html" target="_top" xlink:title=" ">
<polygon fill="white" stroke="red" points="3176.5,-78.5 3176.5,-97.5 3295.5,-97.5 3295.5,-78.5 3176.5,-78.5"/>
<text text-anchor="middle" x="3236" y="-85.5" font-family="Helvetica,sans-Serif" font-size="10.00">include/d/cc/d_cc_uty.h</text>
</a>
</g>
</g>
<!-- Node4&#45;&gt;Node10 -->
<g id="edge5" class="edge">
<title>Node4&#45;&gt;Node10</title>
<path fill="none" stroke="midnightblue" d="M1930.27,-146.11C1933.21,-145.69 1936.13,-145.32 1939,-145 2482.07,-84.26 2628.32,-194.8 3168,-109 3183.07,-106.6 3199.49,-101.84 3212.43,-97.56"/>
<polygon fill="midnightblue" stroke="midnightblue" points="1929.56,-142.68 1920.21,-147.65 1930.62,-149.59 1929.56,-142.68"/>
</g>
<!-- Node12 -->
<g id="node7" class="node">
<title>Node12</title>
<g id="a_node7"><a xlink:href="d__item_8h.html" target="_top" xlink:title=" ">
<polygon fill="white" stroke="red" points="3352.5,-78.5 3352.5,-97.5 3447.5,-97.5 3447.5,-78.5 3352.5,-78.5"/>
<text text-anchor="middle" x="3400" y="-85.5" font-family="Helvetica,sans-Serif" font-size="10.00">include/d/d_item.h</text>
</a>
</g>
</g>
<!-- Node4&#45;&gt;Node12 -->
<g id="edge6" class="edge">
<title>Node4&#45;&gt;Node12</title>
<path fill="none" stroke="midnightblue" d="M1930.27,-146.09C1933.21,-145.68 1936.13,-145.32 1939,-145 2248.13,-110.98 3031.43,-161.27 3338,-109 3351.82,-106.64 3366.8,-101.88 3378.57,-97.59"/>
<polygon fill="midnightblue" stroke="midnightblue" points="1929.56,-142.66 1920.2,-147.63 1930.62,-149.58 1929.56,-142.66"/>
</g>
<!-- Node13 -->
<g id="node8" class="node">
<title>Node13</title>
<g id="a_node8"><a xlink:href="d__com__inf__game_8cpp.html" target="_top" xlink:title=" ">
<polygon fill="white" stroke="black" points="3308,-0.5 3308,-30.5 3416,-30.5 3416,-0.5 3308,-0.5"/>
<text text-anchor="start" x="3316" y="-18.5" font-family="Helvetica,sans-Serif" font-size="10.00">src/d/com/d_com_inf</text>
<text text-anchor="middle" x="3362" y="-7.5" font-family="Helvetica,sans-Serif" font-size="10.00">_game.cpp</text>
</a>
</g>
</g>
<!-- Node4&#45;&gt;Node13 -->
<g id="edge24" class="edge">
<title>Node4&#45;&gt;Node13</title>
<path fill="none" stroke="midnightblue" d="M1930.27,-146.1C1933.21,-145.69 1936.13,-145.32 1939,-145 2014.46,-136.67 3239.21,-146.88 3305,-109 3334.91,-91.77 3351.19,-51.91 3358.04,-30.57"/>
<polygon fill="midnightblue" stroke="midnightblue" points="1929.56,-142.66 1920.2,-147.64 1930.62,-149.58 1929.56,-142.66"/>
</g>
<!-- Node4&#45;&gt;Node16 -->
<g id="edge8" class="edge">
<title>Node4&#45;&gt;Node16</title>
<path fill="none" stroke="midnightblue" d="M1930.18,-150.17C1946.72,-148.12 1964.49,-146.21 1981,-145 2339.01,-118.7 3242.48,-171.34 3596,-109 3603.67,-107.65 3611.69,-105.47 3619.26,-103.05"/>
<polygon fill="midnightblue" stroke="midnightblue" points="1929.54,-146.72 1920.06,-151.45 1930.42,-153.67 1929.54,-146.72"/>
</g>
<!-- Node19 -->
<g id="node10" class="node">
<title>Node19</title>
<g id="a_node10"><a xlink:href="d__model_8h.html" target="_top" xlink:title=" ">
<polygon fill="white" stroke="red" points="376.5,-78.5 376.5,-97.5 479.5,-97.5 479.5,-78.5 376.5,-78.5"/>
<text text-anchor="middle" x="428" y="-85.5" font-family="Helvetica,sans-Serif" font-size="10.00">include/d/d_model.h</text>
</a>
</g>
</g>
<!-- Node4&#45;&gt;Node19 -->
<g id="edge9" class="edge">
<title>Node4&#45;&gt;Node19</title>
<path fill="none" stroke="midnightblue" d="M1799.95,-155.83C1742.6,-152.67 1656.77,-148.15 1582,-145 1339.19,-134.78 728.31,-151.28 489,-109 475.39,-106.6 460.65,-101.83 449.07,-97.55"/>
<polygon fill="midnightblue" stroke="midnightblue" points="1799.79,-159.33 1809.97,-156.38 1800.18,-152.34 1799.79,-159.33"/>
</g>
<!-- Node21 -->
<g id="node11" class="node">
<title>Node21</title>
<g id="a_node11"><a xlink:href="d__file__sel__info_8h.html" target="_top" xlink:title=" ">
<polygon fill="white" stroke="red" points="498,-73 498,-103 594,-103 594,-73 498,-73"/>
<text text-anchor="start" x="506" y="-91" font-family="Helvetica,sans-Serif" font-size="10.00">include/d/file/d_file</text>
<text text-anchor="middle" x="546" y="-80" font-family="Helvetica,sans-Serif" font-size="10.00">_sel_info.h</text>
</a>
</g>
</g>
<!-- Node4&#45;&gt;Node21 -->
<g id="edge10" class="edge">
<title>Node4&#45;&gt;Node21</title>
<path fill="none" stroke="midnightblue" d="M1799.95,-155.9C1742.6,-152.8 1656.76,-148.3 1582,-145 1365.62,-135.46 821.3,-146.6 608,-109 600.09,-107.61 591.8,-105.45 583.95,-103.05"/>
<polygon fill="midnightblue" stroke="midnightblue" points="1799.79,-159.4 1809.96,-156.45 1800.17,-152.41 1799.79,-159.4"/>
</g>
<!-- Node23 -->
<g id="node12" class="node">
<title>Node23</title>
<g id="a_node12"><a xlink:href="d__meter2_8h.html" target="_top" xlink:title=" ">
<polygon fill="white" stroke="red" points="3724,-78.5 3724,-97.5 3858,-97.5 3858,-78.5 3724,-78.5"/>
<text text-anchor="middle" x="3791" y="-85.5" font-family="Helvetica,sans-Serif" font-size="10.00">include/d/meter/d_meter2.h</text>
</a>
</g>
</g>
<!-- Node4&#45;&gt;Node23 -->
<g id="edge11" class="edge">
<title>Node4&#45;&gt;Node23</title>
<path fill="none" stroke="midnightblue" d="M1930.21,-159.73C2216.05,-160.42 3359.79,-159.89 3715,-109 3731.75,-106.6 3750.1,-101.83 3764.58,-97.55"/>
<polygon fill="midnightblue" stroke="midnightblue" points="1930.02,-156.23 1920.01,-159.7 1930,-163.23 1930.02,-156.23"/>
</g>
<!-- Node31 -->
<g id="node13" class="node">
<title>Node31</title>
<g id="a_node13"><a xlink:href="d__msg__object_8h.html" target="_top" xlink:title=" ">
<polygon fill="white" stroke="red" points="650,-73 650,-103 760,-103 760,-73 650,-73"/>
<text text-anchor="start" x="658" y="-91" font-family="Helvetica,sans-Serif" font-size="10.00">include/d/msg/d_msg</text>
<text text-anchor="middle" x="705" y="-80" font-family="Helvetica,sans-Serif" font-size="10.00">_object.h</text>
</a>
</g>
</g>
<!-- Node4&#45;&gt;Node31 -->
<g id="edge12" class="edge">
<title>Node4&#45;&gt;Node31</title>
<path fill="none" stroke="midnightblue" d="M1799.94,-156.04C1742.59,-153.02 1656.75,-148.57 1582,-145 1220.72,-127.75 1125.25,-171.46 769,-109 760.86,-107.57 752.31,-105.4 744.21,-103"/>
<polygon fill="midnightblue" stroke="midnightblue" points="1799.79,-159.53 1809.96,-156.57 1800.16,-152.54 1799.79,-159.53"/>
</g>
<!-- Node32 -->
<g id="node14" class="node">
<title>Node32</title>
<g id="a_node14"><a xlink:href="d__kankyo_8cpp.html" target="_top" xlink:title=" ">
<polygon fill="white" stroke="black" points="597,-6 597,-25 731,-25 731,-6 597,-6"/>
<text text-anchor="middle" x="664" y="-13" font-family="Helvetica,sans-Serif" font-size="10.00">src/d/kankyo/d_kankyo.cpp</text>
</a>
</g>
</g>
<!-- Node4&#45;&gt;Node32 -->
<g id="edge35" class="edge">
<title>Node4&#45;&gt;Node32</title>
<path fill="none" stroke="midnightblue" d="M1799.95,-155.93C1742.6,-152.83 1656.76,-148.35 1582,-145 1529.74,-142.66 677.28,-146.69 641,-109 618.39,-85.51 644.2,-43.4 657.3,-25.23"/>
<polygon fill="midnightblue" stroke="midnightblue" points="1799.79,-159.42 1809.96,-156.47 1800.17,-152.43 1799.79,-159.42"/>
</g>
<!-- Node35 -->
<g id="node15" class="node">
<title>Node35</title>
<g id="a_node15"><a xlink:href="d__s__play_8h.html" target="_top" xlink:title=" ">
<polygon fill="white" stroke="red" points="778.5,-78.5 778.5,-97.5 891.5,-97.5 891.5,-78.5 778.5,-78.5"/>
<text text-anchor="middle" x="835" y="-85.5" font-family="Helvetica,sans-Serif" font-size="10.00">include/d/s/d_s_play.h</text>
</a>
</g>
</g>
<!-- Node4&#45;&gt;Node35 -->
<g id="edge14" class="edge">
<title>Node4&#45;&gt;Node35</title>
<path fill="none" stroke="midnightblue" d="M1799.48,-156.12C1583.36,-144.96 906.55,-109.97 901,-109 886.49,-106.46 870.69,-101.74 858.19,-97.53"/>
<polygon fill="midnightblue" stroke="midnightblue" points="1799.55,-159.63 1809.72,-156.65 1799.91,-152.64 1799.55,-159.63"/>
</g>
<!-- Node38 -->
<g id="node16" class="node">
<title>Node38</title>
<g id="a_node16"><a xlink:href="d__a__tag__telop_8h.html" target="_top" xlink:title=" ">
<polygon fill="white" stroke="black" points="910,-67.5 910,-108.5 1028,-108.5 1028,-67.5 910,-67.5"/>
<text text-anchor="start" x="918" y="-96.5" font-family="Helvetica,sans-Serif" font-size="10.00">include/rel/d/a/tag</text>
<text text-anchor="start" x="918" y="-85.5" font-family="Helvetica,sans-Serif" font-size="10.00">/d_a_tag_telop/d_a_tag</text>
<text text-anchor="middle" x="969" y="-74.5" font-family="Helvetica,sans-Serif" font-size="10.00">_telop.h</text>
</a>
</g>
</g>
<!-- Node4&#45;&gt;Node38 -->
<g id="edge15" class="edge">
<title>Node4&#45;&gt;Node38</title>
<path fill="none" stroke="midnightblue" d="M1799.7,-155.92C1610.73,-145.5 1074.35,-115.55 1037,-109 1034.09,-108.49 1031.13,-107.9 1028.15,-107.25"/>
<polygon fill="midnightblue" stroke="midnightblue" points="1799.6,-159.42 1809.78,-156.47 1799.98,-152.43 1799.6,-159.42"/>
</g>
<!-- Node39 -->
<g id="node17" class="node">
<title>Node39</title>
<g id="a_node17"><a xlink:href="c__dylink_8cpp.html" target="_top" xlink:title=" ">
<polygon fill="white" stroke="black" points="1046.5,-78.5 1046.5,-97.5 1141.5,-97.5 1141.5,-78.5 1046.5,-78.5"/>
<text text-anchor="middle" x="1094" y="-85.5" font-family="Helvetica,sans-Serif" font-size="10.00">src/c/c_dylink.cpp</text>
</a>
</g>
</g>
<!-- Node4&#45;&gt;Node39 -->
<g id="edge16" class="edge">
<title>Node4&#45;&gt;Node39</title>
<path fill="none" stroke="midnightblue" d="M1799.29,-155.86C1634.7,-146.58 1213.44,-121.92 1151,-109 1138.47,-106.41 1124.94,-101.74 1114.2,-97.57"/>
<polygon fill="midnightblue" stroke="midnightblue" points="1799.57,-159.38 1809.76,-156.44 1799.97,-152.39 1799.57,-159.38"/>
</g>
<!-- Node4&#45;&gt;Node40 -->
<g id="edge17" class="edge">
<title>Node4&#45;&gt;Node40</title>
<path fill="none" stroke="midnightblue" d="M1799.41,-158.52C1514.41,-154.12 390.81,-135.25 235,-109 220.77,-106.6 205.31,-101.83 193.15,-97.56"/>
<polygon fill="midnightblue" stroke="midnightblue" points="1799.54,-162.02 1809.59,-158.68 1799.65,-155.02 1799.54,-162.02"/>
</g>
<!-- Node41 -->
<g id="node19" class="node">
<title>Node41</title>
<g id="a_node19"><a xlink:href="d__a__itembase_8cpp.html" target="_top" xlink:title=" ">
<polygon fill="white" stroke="black" points="1160,-78.5 1160,-97.5 1288,-97.5 1288,-78.5 1160,-78.5"/>
<text text-anchor="middle" x="1224" y="-85.5" font-family="Helvetica,sans-Serif" font-size="10.00">src/d/a/d_a_itembase.cpp</text>
</a>
</g>
</g>
<!-- Node4&#45;&gt;Node41 -->
<g id="edge18" class="edge">
<title>Node4&#45;&gt;Node41</title>
<path fill="none" stroke="midnightblue" d="M1799.49,-157.48C1693.25,-153.34 1477.1,-141.41 1297,-109 1281.48,-106.21 1264.47,-101.64 1250.78,-97.57"/>
<polygon fill="midnightblue" stroke="midnightblue" points="1799.61,-160.98 1809.73,-157.86 1799.87,-153.99 1799.61,-160.98"/>
</g>
<!-- Node42 -->
<g id="node20" class="node">
<title>Node42</title>
<g id="a_node20"><a xlink:href="d__a__player_8cpp.html" target="_top" xlink:title=" ">
<polygon fill="white" stroke="black" points="244,-78.5 244,-97.5 358,-97.5 358,-78.5 244,-78.5"/>
<text text-anchor="middle" x="301" y="-85.5" font-family="Helvetica,sans-Serif" font-size="10.00">src/d/a/d_a_player.cpp</text>
</a>
</g>
</g>
<!-- Node4&#45;&gt;Node42 -->
<g id="edge19" class="edge">
<title>Node4&#45;&gt;Node42</title>
<path fill="none" stroke="midnightblue" d="M1799.96,-155.77C1742.61,-152.57 1656.77,-148.02 1582,-145 1312.1,-134.09 633.58,-152.55 367,-109 352.35,-106.61 336.41,-101.84 323.86,-97.56"/>
<polygon fill="midnightblue" stroke="midnightblue" points="1799.79,-159.26 1809.97,-156.33 1800.18,-152.28 1799.79,-159.26"/>
</g>
<!-- Node43 -->
<g id="node21" class="node">
<title>Node43</title>
<g id="a_node21"><a xlink:href="d__bg__s_8cpp.html" target="_top" xlink:title=" ">
<polygon fill="white" stroke="black" points="1306,-78.5 1306,-97.5 1410,-97.5 1410,-78.5 1306,-78.5"/>
<text text-anchor="middle" x="1358" y="-85.5" font-family="Helvetica,sans-Serif" font-size="10.00">src/d/bg/d_bg_s.cpp</text>
</a>
</g>
</g>
<!-- Node4&#45;&gt;Node43 -->
<g id="edge20" class="edge">
<title>Node4&#45;&gt;Node43</title>
<path fill="none" stroke="midnightblue" d="M1799.78,-156.29C1712.29,-151.04 1552.47,-138.12 1419,-109 1405.93,-106.15 1391.71,-101.58 1380.29,-97.52"/>
<polygon fill="midnightblue" stroke="midnightblue" points="1799.64,-159.79 1809.83,-156.88 1800.05,-152.8 1799.64,-159.79"/>
</g>
<!-- Node44 -->
<g id="node22" class="node">
<title>Node44</title>
<g id="a_node22"><a xlink:href="d__bg__s__movebg__actor_8cpp.html" target="_top" xlink:title=" ">
<polygon fill="white" stroke="black" points="1428,-73 1428,-103 1554,-103 1554,-73 1428,-73"/>
<text text-anchor="start" x="1436" y="-91" font-family="Helvetica,sans-Serif" font-size="10.00">src/d/bg/d_bg_s_movebg</text>
<text text-anchor="middle" x="1491" y="-80" font-family="Helvetica,sans-Serif" font-size="10.00">_actor.cpp</text>
</a>
</g>
</g>
<!-- Node4&#45;&gt;Node44 -->
<g id="edge21" class="edge">
<title>Node4&#45;&gt;Node44</title>
<path fill="none" stroke="midnightblue" d="M1799.89,-150.64C1738.47,-141.8 1643.99,-126.97 1563,-109 1555.15,-107.26 1546.88,-105.19 1538.85,-103.05"/>
<polygon fill="midnightblue" stroke="midnightblue" points="1799.44,-154.11 1809.83,-152.06 1800.43,-147.18 1799.44,-154.11"/>
</g>
<!-- Node45 -->
<g id="node23" class="node">
<title>Node45</title>
<g id="a_node23"><a xlink:href="d__bg__w_8cpp.html" target="_top" xlink:title=" ">
<polygon fill="white" stroke="black" points="1572.5,-78.5 1572.5,-97.5 1679.5,-97.5 1679.5,-78.5 1572.5,-78.5"/>
<text text-anchor="middle" x="1626" y="-85.5" font-family="Helvetica,sans-Serif" font-size="10.00">src/d/bg/d_bg_w.cpp</text>
</a>
</g>
</g>
<!-- Node4&#45;&gt;Node45 -->
<g id="edge22" class="edge">
<title>Node4&#45;&gt;Node45</title>
<path fill="none" stroke="midnightblue" d="M1804.65,-142.63C1770.62,-133.01 1727.36,-120.59 1689,-109 1676.92,-105.35 1663.59,-101.14 1652.31,-97.53"/>
<polygon fill="midnightblue" stroke="midnightblue" points="1803.87,-146.05 1814.44,-145.4 1805.77,-139.31 1803.87,-146.05"/>
</g>
<!-- Node46 -->
<g id="node24" class="node">
<title>Node46</title>
<g id="a_node24"><a xlink:href="d__cc__s_8cpp.html" target="_top" xlink:title=" ">
<polygon fill="white" stroke="black" points="1698,-78.5 1698,-97.5 1802,-97.5 1802,-78.5 1698,-78.5"/>
<text text-anchor="middle" x="1750" y="-85.5" font-family="Helvetica,sans-Serif" font-size="10.00">src/d/cc/d_cc_s.cpp</text>
</a>
</g>
</g>
<!-- Node4&#45;&gt;Node46 -->
<g id="edge23" class="edge">
<title>Node4&#45;&gt;Node46</title>
<path fill="none" stroke="midnightblue" d="M1833.35,-140.1C1810.6,-126.15 1781.03,-108.02 1763.92,-97.53"/>
<polygon fill="midnightblue" stroke="midnightblue" points="1831.65,-143.16 1842,-145.4 1835.31,-137.19 1831.65,-143.16"/>
</g>
<!-- Node47 -->
<g id="node25" class="node">
<title>Node47</title>
<g id="a_node25"><a xlink:href="d__eye__hl_8cpp.html" target="_top" xlink:title=" ">
<polygon fill="white" stroke="black" points="0,-78.5 0,-97.5 98,-97.5 98,-78.5 0,-78.5"/>
<text text-anchor="middle" x="49" y="-85.5" font-family="Helvetica,sans-Serif" font-size="10.00">src/d/d_eye_hl.cpp</text>
</a>
</g>
</g>
<!-- Node4&#45;&gt;Node47 -->
<g id="edge25" class="edge">
<title>Node4&#45;&gt;Node47</title>
<path fill="none" stroke="midnightblue" d="M1799.7,-158.79C1501.42,-155.42 275.65,-139.76 107,-109 94.01,-106.63 79.99,-101.86 69,-97.58"/>
<polygon fill="midnightblue" stroke="midnightblue" points="1799.88,-162.3 1809.92,-158.91 1799.96,-155.3 1799.88,-162.3"/>
</g>
<!-- Node48 -->
<g id="node26" class="node">
<title>Node48</title>
<g id="a_node26"><a xlink:href="d__kyeff_8cpp.html" target="_top" xlink:title=" ">
<polygon fill="white" stroke="black" points="1820,-78.5 1820,-97.5 1910,-97.5 1910,-78.5 1820,-78.5"/>
<text text-anchor="middle" x="1865" y="-85.5" font-family="Helvetica,sans-Serif" font-size="10.00">src/d/d_kyeff.cpp</text>
</a>
</g>
</g>
<!-- Node4&#45;&gt;Node48 -->
<g id="edge26" class="edge">
<title>Node4&#45;&gt;Node48</title>
<path fill="none" stroke="midnightblue" d="M1865,-135.09C1865,-122.21 1865,-107.2 1865,-97.89"/>
<polygon fill="midnightblue" stroke="midnightblue" points="1861.5,-135.23 1865,-145.23 1868.5,-135.23 1861.5,-135.23"/>
</g>
<!-- Node49 -->
<g id="node27" class="node">
<title>Node49</title>
<g id="a_node27"><a xlink:href="d__resorce_8cpp.html" target="_top" xlink:title=" ">
<polygon fill="white" stroke="black" points="1928,-78.5 1928,-97.5 2030,-97.5 2030,-78.5 1928,-78.5"/>
<text text-anchor="middle" x="1979" y="-85.5" font-family="Helvetica,sans-Serif" font-size="10.00">src/d/d_resorce.cpp</text>
</a>
</g>
</g>
<!-- Node4&#45;&gt;Node49 -->
<g id="edge27" class="edge">
<title>Node4&#45;&gt;Node49</title>
<path fill="none" stroke="midnightblue" d="M1896.37,-140.1C1918.93,-126.15 1948.24,-108.02 1965.2,-97.53"/>
<polygon fill="midnightblue" stroke="midnightblue" points="1894.46,-137.17 1887.8,-145.4 1898.14,-143.12 1894.46,-137.17"/>
</g>
<!-- Node50 -->
<g id="node28" class="node">
<title>Node50</title>
<g id="a_node28"><a xlink:href="d__simple__model_8cpp.html" target="_top" xlink:title=" ">
<polygon fill="white" stroke="black" points="2048,-78.5 2048,-97.5 2178,-97.5 2178,-78.5 2048,-78.5"/>
<text text-anchor="middle" x="2113" y="-85.5" font-family="Helvetica,sans-Serif" font-size="10.00">src/d/d_simple_model.cpp</text>
</a>
</g>
</g>
<!-- Node4&#45;&gt;Node50 -->
<g id="edge28" class="edge">
<title>Node4&#45;&gt;Node50</title>
<path fill="none" stroke="midnightblue" d="M1924.01,-142.72C1974,-128.51 2043.62,-108.72 2082.91,-97.55"/>
<polygon fill="midnightblue" stroke="midnightblue" points="1922.96,-139.39 1914.29,-145.49 1924.87,-146.12 1922.96,-139.39"/>
</g>
<!-- Node51 -->
<g id="node29" class="node">
<title>Node51</title>
<g id="a_node29"><a xlink:href="d__stage_8cpp.html" target="_top" xlink:title=" ">
<polygon fill="white" stroke="black" points="2196,-78.5 2196,-97.5 2290,-97.5 2290,-78.5 2196,-78.5"/>
<text text-anchor="middle" x="2243" y="-85.5" font-family="Helvetica,sans-Serif" font-size="10.00">src/d/d_stage.cpp</text>
</a>
</g>
</g>
<!-- Node4&#45;&gt;Node51 -->
<g id="edge29" class="edge">
<title>Node4&#45;&gt;Node51</title>
<path fill="none" stroke="midnightblue" d="M1930.33,-146.52C1933.25,-145.99 1936.16,-145.48 1939,-145 2048.79,-126.29 2078.91,-135.86 2187,-109 2198.92,-106.04 2211.86,-101.51 2222.3,-97.51"/>
<polygon fill="midnightblue" stroke="midnightblue" points="1929.51,-143.11 1920.3,-148.35 1930.77,-149.99 1929.51,-143.11"/>
</g>
<!-- Node52 -->
<g id="node30" class="node">
<title>Node52</title>
<g id="a_node30"><a xlink:href="d__timer_8cpp.html" target="_top" xlink:title=" ">
<polygon fill="white" stroke="black" points="2308,-78.5 2308,-97.5 2400,-97.5 2400,-78.5 2308,-78.5"/>
<text text-anchor="middle" x="2354" y="-85.5" font-family="Helvetica,sans-Serif" font-size="10.00">src/d/d_timer.cpp</text>
</a>
</g>
</g>
<!-- Node4&#45;&gt;Node52 -->
<g id="edge30" class="edge">
<title>Node4&#45;&gt;Node52</title>
<path fill="none" stroke="midnightblue" d="M1930.3,-146.36C1933.24,-145.88 1936.15,-145.42 1939,-145 2098.07,-121.51 2142.23,-144.75 2299,-109 2310.99,-106.27 2323.93,-101.65 2334.25,-97.54"/>
<polygon fill="midnightblue" stroke="midnightblue" points="1929.52,-142.94 1920.26,-148.08 1930.71,-149.84 1929.52,-142.94"/>
</g>
<!-- Node53 -->
<g id="node31" class="node">
<title>Node53</title>
<g id="a_node31"><a xlink:href="d__tresure_8cpp.html" target="_top" xlink:title=" ">
<polygon fill="white" stroke="black" points="2418,-78.5 2418,-97.5 2518,-97.5 2518,-78.5 2418,-78.5"/>
<text text-anchor="middle" x="2468" y="-85.5" font-family="Helvetica,sans-Serif" font-size="10.00">src/d/d_tresure.cpp</text>
</a>
</g>
</g>
<!-- Node4&#45;&gt;Node53 -->
<g id="edge31" class="edge">
<title>Node4&#45;&gt;Node53</title>
<path fill="none" stroke="midnightblue" d="M1930.29,-146.28C1933.23,-145.82 1936.14,-145.39 1939,-145 2146.6,-116.81 2203.74,-150.96 2409,-109 2421.93,-106.36 2435.93,-101.69 2447.05,-97.53"/>
<polygon fill="midnightblue" stroke="midnightblue" points="1929.53,-142.85 1920.24,-147.94 1930.68,-149.76 1929.53,-142.85"/>
</g>
<!-- Node54 -->
<g id="node32" class="node">
<title>Node54</title>
<g id="a_node32"><a xlink:href="d__event_8cpp.html" target="_top" xlink:title=" ">
<polygon fill="white" stroke="black" points="3465.5,-78.5 3465.5,-97.5 3586.5,-97.5 3586.5,-78.5 3465.5,-78.5"/>
<text text-anchor="middle" x="3526" y="-85.5" font-family="Helvetica,sans-Serif" font-size="10.00">src/d/event/d_event.cpp</text>
</a>
</g>
</g>
<!-- Node4&#45;&gt;Node54 -->
<g id="edge32" class="edge">
<title>Node4&#45;&gt;Node54</title>
<path fill="none" stroke="midnightblue" d="M1930.27,-146.09C1933.21,-145.68 1936.13,-145.31 1939,-145 2274.44,-108.43 3123.51,-160.4 3457,-109 3472.29,-106.64 3488.95,-101.88 3502.07,-97.59"/>
<polygon fill="midnightblue" stroke="midnightblue" points="1929.56,-142.65 1920.2,-147.62 1930.62,-149.57 1929.56,-142.65"/>
</g>
<!-- Node55 -->
<g id="node33" class="node">
<title>Node55</title>
<g id="a_node33"><a xlink:href="d__event__data_8cpp.html" target="_top" xlink:title=" ">
<polygon fill="white" stroke="black" points="2536.5,-73 2536.5,-103 2639.5,-103 2639.5,-73 2536.5,-73"/>
<text text-anchor="start" x="2544.5" y="-91" font-family="Helvetica,sans-Serif" font-size="10.00">src/d/event/d_event</text>
<text text-anchor="middle" x="2588" y="-80" font-family="Helvetica,sans-Serif" font-size="10.00">_data.cpp</text>
</a>
</g>
</g>
<!-- Node4&#45;&gt;Node55 -->
<g id="edge33" class="edge">
<title>Node4&#45;&gt;Node55</title>
<path fill="none" stroke="midnightblue" d="M1930.28,-146.22C1933.22,-145.78 1936.14,-145.37 1939,-145 2198.7,-111.75 2269.84,-158.19 2527,-109 2534.66,-107.53 2542.7,-105.37 2550.32,-103.01"/>
<polygon fill="midnightblue" stroke="midnightblue" points="1929.54,-142.8 1920.23,-147.85 1930.66,-149.71 1929.54,-142.8"/>
</g>
<!-- Node56 -->
<g id="node34" class="node">
<title>Node56</title>
<g id="a_node34"><a xlink:href="d__event__manager_8cpp.html" target="_top" xlink:title=" ">
<polygon fill="white" stroke="black" points="2657.5,-73 2657.5,-103 2760.5,-103 2760.5,-73 2657.5,-73"/>
<text text-anchor="start" x="2665.5" y="-91" font-family="Helvetica,sans-Serif" font-size="10.00">src/d/event/d_event</text>
<text text-anchor="middle" x="2709" y="-80" font-family="Helvetica,sans-Serif" font-size="10.00">_manager.cpp</text>
</a>
</g>
</g>
<!-- Node4&#45;&gt;Node56 -->
<g id="edge34" class="edge">
<title>Node4&#45;&gt;Node56</title>
<path fill="none" stroke="midnightblue" d="M1930.28,-146.18C1933.22,-145.75 1936.14,-145.35 1939,-145 2252.61,-106.52 2338.5,-167.49 2649,-109 2656.55,-107.58 2664.46,-105.44 2671.97,-103.08"/>
<polygon fill="midnightblue" stroke="midnightblue" points="1929.55,-142.76 1920.22,-147.79 1930.65,-149.67 1929.55,-142.76"/>
</g>
<!-- Node57 -->
<g id="node35" class="node">
<title>Node57</title>
<g id="a_node35"><a xlink:href="d__kankyo__wether_8cpp.html" target="_top" xlink:title=" ">
<polygon fill="white" stroke="black" points="2779,-73 2779,-103 2895,-103 2895,-73 2779,-73"/>
<text text-anchor="start" x="2787" y="-91" font-family="Helvetica,sans-Serif" font-size="10.00">src/d/kankyo/d_kankyo</text>
<text text-anchor="middle" x="2837" y="-80" font-family="Helvetica,sans-Serif" font-size="10.00">_wether.cpp</text>
</a>
</g>
</g>
<!-- Node4&#45;&gt;Node57 -->
<g id="edge36" class="edge">
<title>Node4&#45;&gt;Node57</title>
<path fill="none" stroke="midnightblue" d="M1930.27,-146.16C1933.22,-145.73 1936.14,-145.34 1939,-145 2306.09,-101.33 2405.44,-170.34 2770,-109 2778.38,-107.59 2787.19,-105.46 2795.56,-103.1"/>
<polygon fill="midnightblue" stroke="midnightblue" points="1929.55,-142.73 1920.22,-147.74 1930.64,-149.64 1929.55,-142.73"/>
</g>
<!-- Node58 -->
<g id="node36" class="node">
<title>Node58</title>
<g id="a_node36"><a xlink:href="d__map__path__dmap_8cpp.html" target="_top" xlink:title=" ">
<polygon fill="white" stroke="black" points="2913,-73 2913,-103 3029,-103 3029,-73 2913,-73"/>
<text text-anchor="start" x="2921" y="-91" font-family="Helvetica,sans-Serif" font-size="10.00">src/d/map/d_map_path</text>
<text text-anchor="middle" x="2971" y="-80" font-family="Helvetica,sans-Serif" font-size="10.00">_dmap.cpp</text>
</a>
</g>
</g>
<!-- Node4&#45;&gt;Node58 -->
<g id="edge37" class="edge">
<title>Node4&#45;&gt;Node58</title>
<path fill="none" stroke="midnightblue" d="M1930.27,-146.14C1933.21,-145.71 1936.13,-145.33 1939,-145 2365.33,-95.59 2480.55,-178.94 2904,-109 2912.5,-107.6 2921.44,-105.43 2929.92,-103.04"/>
<polygon fill="midnightblue" stroke="midnightblue" points="1929.55,-142.71 1920.21,-147.7 1930.63,-149.62 1929.55,-142.71"/>
</g>
<!-- Node12&#45;&gt;Node13 -->
<g id="edge7" class="edge">
<title>Node12&#45;&gt;Node13</title>
<path fill="none" stroke="midnightblue" d="M3390.47,-69.32C3384.01,-57.34 3375.59,-41.72 3369.59,-30.58"/>
<polygon fill="midnightblue" stroke="midnightblue" points="3387.51,-71.21 3395.34,-78.36 3393.68,-67.89 3387.51,-71.21"/>
</g>
<!-- Node31&#45;&gt;Node32 -->
<g id="edge13" class="edge">
<title>Node31&#45;&gt;Node32</title>
<path fill="none" stroke="midnightblue" d="M691.48,-63.74C683.84,-50.62 674.75,-34.98 669.17,-25.39"/>
<polygon fill="midnightblue" stroke="midnightblue" points="688.65,-65.85 696.7,-72.73 694.7,-62.33 688.65,-65.85"/>
</g>
<!-- Node67&#45;&gt;Node3 -->
<g id="edge40" class="edge">
<title>Node67&#45;&gt;Node3</title>
<path fill="none" stroke="midnightblue" d="M1537.41,-361.85C1486.99,-353.51 1425.02,-339.82 1407,-321 1384.67,-297.67 1385.45,-255.47 1387,-237.26"/>
<polygon fill="midnightblue" stroke="midnightblue" points="1536.9,-365.31 1547.33,-363.45 1538.01,-358.4 1536.9,-365.31"/>
</g>
<!-- Node67&#45;&gt;Node42 -->
<g id="edge52" class="edge">
<title>Node67&#45;&gt;Node42</title>
<path fill="none" stroke="midnightblue" d="M1599.33,-353.76C1589.13,-334.03 1570.78,-301.93 1549,-279 1513.67,-241.8 1503.07,-229.92 1455,-212 999.88,-42.34 843.58,-202.79 367,-109 352.9,-106.23 337.52,-101.66 325.15,-97.59"/>
<polygon fill="midnightblue" stroke="midnightblue" points="1596.28,-355.48 1603.9,-362.83 1602.53,-352.33 1596.28,-355.48"/>
</g>
<!-- Node68 -->
<g id="node38" class="node">
<title>Node68</title>
<g id="a_node38"><a xlink:href="d__bg__s__acch_8h.html" target="_top" xlink:title=" ">
<polygon fill="white" stroke="red" points="1596,-285 1596,-315 1700,-315 1700,-285 1596,-285"/>
<text text-anchor="start" x="1604" y="-303" font-family="Helvetica,sans-Serif" font-size="10.00">include/d/bg/d_bg_s</text>
<text text-anchor="middle" x="1648" y="-292" font-family="Helvetica,sans-Serif" font-size="10.00">_acch.h</text>
</a>
</g>
</g>
<!-- Node67&#45;&gt;Node68 -->
<g id="edge41" class="edge">
<title>Node67&#45;&gt;Node68</title>
<path fill="none" stroke="midnightblue" d="M1618.03,-353.82C1624.83,-341.84 1633.69,-326.22 1640.01,-315.08"/>
<polygon fill="midnightblue" stroke="midnightblue" points="1614.8,-352.43 1612.9,-362.86 1620.88,-355.88 1614.8,-352.43"/>
</g>
<!-- Node95 -->
<g id="node39" class="node">
<title>Node95</title>
<g id="a_node39"><a xlink:href="d__attention_8h.html" target="_top" xlink:title=" ">
<polygon fill="white" stroke="red" points="1718,-290.5 1718,-309.5 1832,-309.5 1832,-290.5 1718,-290.5"/>
<text text-anchor="middle" x="1775" y="-297.5" font-family="Helvetica,sans-Serif" font-size="10.00">include/d/d_attention.h</text>
</a>
</g>
</g>
<!-- Node67&#45;&gt;Node95 -->
<g id="edge42" class="edge">
<title>Node67&#45;&gt;Node95</title>
<path fill="none" stroke="midnightblue" d="M1637.49,-359.05C1671.21,-344.82 1725.53,-321.88 1754.78,-309.53"/>
<polygon fill="midnightblue" stroke="midnightblue" points="1636,-355.88 1628.14,-363 1638.72,-362.33 1636,-355.88"/>
</g>
<!-- Node76 -->
<g id="node40" class="node">
<title>Node76</title>
<g id="a_node40"><a xlink:href="d__event_8h.html" target="_top" xlink:title=" ">
<polygon fill="white" stroke="black" points="1801,-218 1801,-237 1929,-237 1929,-218 1801,-218"/>
<text text-anchor="middle" x="1865" y="-225" font-family="Helvetica,sans-Serif" font-size="10.00">include/d/event/d_event.h</text>
</a>
</g>
</g>
<!-- Node67&#45;&gt;Node76 -->
<g id="edge45" class="edge">
<title>Node67&#45;&gt;Node76</title>
<path fill="none" stroke="midnightblue" d="M1678.72,-364.33C1738.52,-356.84 1818.04,-343.05 1841,-321 1864.69,-298.25 1866.09,-255.36 1865.51,-237.09"/>
<polygon fill="midnightblue" stroke="midnightblue" points="1678.06,-360.88 1668.55,-365.57 1678.9,-367.83 1678.06,-360.88"/>
</g>
<!-- Node98 -->
<g id="node41" class="node">
<title>Node98</title>
<g id="a_node41"><a xlink:href="d__a__crod_8h.html" target="_top" xlink:title=" ">
<polygon fill="white" stroke="black" points="944,-212.5 944,-242.5 1040,-242.5 1040,-212.5 944,-212.5"/>
<text text-anchor="start" x="952" y="-230.5" font-family="Helvetica,sans-Serif" font-size="10.00">include/rel/d/a/d_a</text>
<text text-anchor="middle" x="992" y="-219.5" font-family="Helvetica,sans-Serif" font-size="10.00">_crod/d_a_crod.h</text>
</a>
</g>
</g>
<!-- Node67&#45;&gt;Node98 -->
<g id="edge48" class="edge">
<title>Node67&#45;&gt;Node98</title>
<path fill="none" stroke="midnightblue" d="M1546.72,-361.14C1501.39,-352.64 1438.5,-339.06 1385,-321 1342.41,-306.63 1335.98,-292.16 1293,-279 1205.99,-252.35 1100.25,-238.73 1040.07,-232.65"/>
<polygon fill="midnightblue" stroke="midnightblue" points="1546.23,-364.61 1556.7,-362.98 1547.5,-357.73 1546.23,-364.61"/>
</g>
<!-- Node99 -->
<g id="node42" class="node">
<title>Node99</title>
<g id="a_node42"><a xlink:href="d__a__tag__mmsg_8h.html" target="_top" xlink:title=" ">
<polygon fill="white" stroke="black" points="1416,-279.5 1416,-320.5 1540,-320.5 1540,-279.5 1416,-279.5"/>
<text text-anchor="start" x="1424" y="-308.5" font-family="Helvetica,sans-Serif" font-size="10.00">include/rel/d/a/tag</text>
<text text-anchor="start" x="1424" y="-297.5" font-family="Helvetica,sans-Serif" font-size="10.00">/d_a_tag_mmsg/d_a_tag</text>
<text text-anchor="middle" x="1478" y="-286.5" font-family="Helvetica,sans-Serif" font-size="10.00">_mmsg.h</text>
</a>
</g>
</g>
<!-- Node67&#45;&gt;Node99 -->
<g id="edge50" class="edge">
<title>Node67&#45;&gt;Node99</title>
<path fill="none" stroke="midnightblue" d="M1583.43,-358.17C1563.87,-347.57 1536.22,-332.57 1514.14,-320.6"/>
<polygon fill="midnightblue" stroke="midnightblue" points="1581.86,-361.31 1592.32,-363 1585.2,-355.15 1581.86,-361.31"/>
</g>
<!-- Node95&#45;&gt;Node3 -->
<g id="edge43" class="edge">
<title>Node95&#45;&gt;Node3</title>
<path fill="none" stroke="midnightblue" d="M1740.22,-287.48C1730.22,-284.43 1719.24,-281.35 1709,-279 1618.13,-258.19 1510.82,-243.2 1446.16,-235.19"/>
<polygon fill="midnightblue" stroke="midnightblue" points="1739.24,-290.84 1749.83,-290.48 1741.33,-284.16 1739.24,-290.84"/>
</g>
<!-- Node95&#45;&gt;Node4 -->
<g id="edge44" class="edge">
<title>Node95&#45;&gt;Node4</title>
<path fill="none" stroke="midnightblue" d="M1774.69,-280.11C1775.26,-261.38 1778.53,-232.58 1792,-212 1802.29,-196.27 1819.35,-184.06 1834.4,-175.59"/>
<polygon fill="midnightblue" stroke="midnightblue" points="1771.19,-280.28 1774.63,-290.3 1778.19,-280.33 1771.19,-280.28"/>
</g>
<!-- Node76&#45;&gt;Node4 -->
<g id="edge46" class="edge">
<title>Node76&#45;&gt;Node4</title>
<path fill="none" stroke="midnightblue" d="M1865,-207.41C1865,-197.22 1865,-184.9 1865,-175.59"/>
<polygon fill="midnightblue" stroke="midnightblue" points="1861.5,-207.73 1865,-217.73 1868.5,-207.73 1861.5,-207.73"/>
</g>
<!-- Node76&#45;&gt;Node54 -->
<g id="edge47" class="edge">
<title>Node76&#45;&gt;Node54</title>
<path fill="none" stroke="midnightblue" d="M1883.42,-211.54C1910.42,-189.98 1959.8,-151.99 1981,-145 2136.8,-93.64 3294.87,-134.04 3457,-109 3472.28,-106.64 3488.95,-101.87 3502.07,-97.59"/>
<polygon fill="midnightblue" stroke="midnightblue" points="1881.11,-208.91 1875.51,-217.9 1885.5,-214.37 1881.11,-208.91"/>
</g>
<!-- Node98&#45;&gt;Node40 -->
<g id="edge49" class="edge">
<title>Node98&#45;&gt;Node40</title>
<path fill="none" stroke="midnightblue" d="M933.74,-220.45C806.03,-206.55 492.3,-168.82 235,-109 221.73,-105.92 207.23,-101.47 195.38,-97.56"/>
<polygon fill="midnightblue" stroke="midnightblue" points="933.38,-223.93 943.7,-221.53 934.13,-216.98 933.38,-223.93"/>
</g>
<!-- Node99&#45;&gt;Node3 -->
<g id="edge51" class="edge">
<title>Node99&#45;&gt;Node3</title>
<path fill="none" stroke="midnightblue" d="M1444.76,-272.96C1428.68,-260.36 1410.44,-246.07 1399.07,-237.17"/>
<polygon fill="midnightblue" stroke="midnightblue" points="1442.9,-275.95 1452.93,-279.36 1447.22,-270.44 1442.9,-275.95"/>
</g>
<!-- Node126&#45;&gt;Node23 -->
<g id="edge60" class="edge">
<title>Node126&#45;&gt;Node23</title>
<path fill="none" stroke="midnightblue" d="M3578.5,-143.05C3618.27,-133.3 3669.54,-120.61 3715,-109 3729.41,-105.32 3745.33,-101.15 3758.85,-97.57"/>
<polygon fill="midnightblue" stroke="midnightblue" points="3577.53,-139.69 3568.65,-145.47 3579.2,-146.49 3577.53,-139.69"/>
</g>
<!-- Node128&#45;&gt;Node3 -->
<g id="edge63" class="edge">
<title>Node128&#45;&gt;Node3</title>
<path fill="none" stroke="midnightblue" d="M1259.95,-286.37C1291.48,-272.12 1341.91,-249.33 1369.12,-237.03"/>
<polygon fill="midnightblue" stroke="midnightblue" points="1258.49,-283.19 1250.82,-290.5 1261.37,-289.57 1258.49,-283.19"/>
</g>
<!-- Node128&#45;&gt;Node47 -->
<g id="edge64" class="edge">
<title>Node128&#45;&gt;Node47</title>
<path fill="none" stroke="midnightblue" d="M1169.56,-290.94C1032.77,-273 696.5,-227.24 417,-176 278.35,-150.58 242.76,-146.93 107,-109 95.2,-105.7 82.3,-101.33 71.67,-97.52"/>
<polygon fill="midnightblue" stroke="midnightblue" points="1169.48,-294.46 1179.85,-292.29 1170.38,-287.52 1169.48,-294.46"/>
</g>
</g>
</svg>
