<?xml version="1.0" encoding="UTF-8" standalone="no"?>
<!DOCTYPE svg PUBLIC "-//W3C//DTD SVG 1.1//EN"
 "http://www.w3.org/Graphics/SVG/1.1/DTD/svg11.dtd">
<!-- Generated by graphviz version 7.0.5 (20221223.1930)
 -->
<!-- Title: include/JSystem/J3DGraphBase/J3DMatBlock.h Pages: 1 -->
<!--zoomable 170 -->
<svg id="main" version="1.1" xmlns="http://www.w3.org/2000/svg" xmlns:xlink="http://www.w3.org/1999/xlink" xml:space="preserve" onload="init(evt)">
<style type="text/css"><![CDATA[
.edge:hover path { stroke: red; }
.edge:hover polygon { stroke: red; fill: red; }
]]></style>
<script type="text/javascript"><![CDATA[
var edges = document.getElementsByTagName('g');
if (edges && edges.length) {
  for (var i=0;i<edges.length;i++) {
    if (edges[i].id.substr(0,4)=='edge') {
      edges[i].setAttribute('class','edge');
    }
  }
}
]]></script>
        <defs>
                <circle id="rim" cx="0" cy="0" r="7"/>
                <circle id="rim2" cx="0" cy="0" r="3.5"/>
                <g id="zoomPlus">
                        <use xlink:href="#rim" fill="#404040">
                                <set attributeName="fill" to="#808080" begin="zoomplus.mouseover" end="zoomplus.mouseout"/>
                        </use>
                        <path d="M-4,0h8M0,-4v8" fill="none" stroke="white" stroke-width="1.5" pointer-events="none"/>
                </g>
                <g id="zoomMin">
                        <use xlink:href="#rim" fill="#404040">
                                <set attributeName="fill" to="#808080" begin="zoomminus.mouseover" end="zoomminus.mouseout"/>
                        </use>
                        <path d="M-4,0h8" fill="none" stroke="white" stroke-width="1.5" pointer-events="none"/>
                </g>
                <g id="dirArrow">
                        <path fill="none" stroke="white" stroke-width="1.5" d="M0,-3.0v7 M-2.5,-0.5L0,-3.0L2.5,-0.5"/>
                </g>
               <g id="resetDef">
                       <use xlink:href="#rim2" fill="#404040">
                               <set attributeName="fill" to="#808080" begin="reset.mouseover" end="reset.mouseout"/>
                       </use>
               </g>
        </defs>

<script type="text/javascript">
var viewWidth = 4889;
var viewHeight = 170;
var sectionId = 'dynsection-1';
</script>
<script xlink:href="svgpan.js"/>
<svg id="graph" class="graph">
<g id="viewport">
<title>include/JSystem/J3DGraphBase/J3DMatBlock.h</title>
<!-- Node1 -->
<g id="node1" class="node">
<title>Node1</title>
<g id="a_node1"><a xlink:title=" ">
<polygon fill="#999999" stroke="#666666" points="3863,-162 3728,-162 3728,-132 3863,-132 3863,-162"/>
<text text-anchor="start" x="3736" y="-150" font-family="Helvetica,sans-Serif" font-size="10.00">include/JSystem/J3DGraph</text>
<text text-anchor="middle" x="3795.5" y="-139" font-family="Helvetica,sans-Serif" font-size="10.00">Base/J3DMatBlock.h</text>
</a>
</g>
</g>
<!-- Node2 -->
<g id="node2" class="node">
<title>Node2</title>
<g id="a_node2"><a xlink:href="J3DMaterial_8h.html" target="_top" xlink:title=" ">
<polygon fill="white" stroke="#666666" points="1852,-96 1717,-96 1717,-66 1852,-66 1852,-96"/>
<text text-anchor="start" x="1725" y="-84" font-family="Helvetica,sans-Serif" font-size="10.00">include/JSystem/J3DGraph</text>
<text text-anchor="middle" x="1784.5" y="-73" font-family="Helvetica,sans-Serif" font-size="10.00">Base/J3DMaterial.h</text>
</a>
</g>
</g>
<!-- Node1&#45;&gt;Node2 -->
<g id="edge1" class="edge">
<title>Node1&#45;&gt;Node2</title>
<path fill="none" stroke="#63b8ff" d="M3716.53,-143.49C3391.02,-133.13 2156.12,-93.83 1852.32,-84.16"/>
<polygon fill="#63b8ff" stroke="#63b8ff" points="3716.11,-146.98 3726.21,-143.79 3716.33,-139.98 3716.11,-146.98"/>
</g>
<!-- Node17 -->
<g id="node17" class="node">
<title>Node17</title>
<g id="a_node17"><a xlink:href="d__attention_8cpp.html" target="_top" xlink:title=" ">
<polygon fill="white" stroke="#666666" points="3349,-24.5 3242,-24.5 3242,-5.5 3349,-5.5 3349,-24.5"/>
<text text-anchor="middle" x="3295.5" y="-12.5" font-family="Helvetica,sans-Serif" font-size="10.00">src/d/d_attention.cpp</text>
</a>
</g>
</g>
<!-- Node1&#45;&gt;Node17 -->
<g id="edge52" class="edge">
<title>Node1&#45;&gt;Node17</title>
<path fill="none" stroke="#63b8ff" d="M3729.03,-128.72C3621.26,-100.7 3412.17,-46.33 3329.92,-24.95"/>
<polygon fill="#63b8ff" stroke="#63b8ff" points="3728.06,-132.08 3738.62,-131.21 3729.82,-125.31 3728.06,-132.08"/>
</g>
<!-- Node27 -->
<g id="node27" class="node">
<title>Node27</title>
<g id="a_node27"><a xlink:href="J3DMaterialFactory_8h.html" target="_top" xlink:title=" ">
<polygon fill="white" stroke="#666666" points="311,-96 170,-96 170,-66 311,-66 311,-96"/>
<text text-anchor="start" x="178" y="-84" font-family="Helvetica,sans-Serif" font-size="10.00">include/JSystem/J3DGraph</text>
<text text-anchor="middle" x="240.5" y="-73" font-family="Helvetica,sans-Serif" font-size="10.00">Loader/J3DMaterialFactory.h</text>
</a>
</g>
</g>
<!-- Node1&#45;&gt;Node27 -->
<g id="edge26" class="edge">
<title>Node1&#45;&gt;Node27</title>
<path fill="none" stroke="#63b8ff" d="M3716.41,-145.62C3231.36,-143.16 668.34,-128.73 320.5,-96 317.41,-95.71 314.26,-95.37 311.09,-94.98"/>
<polygon fill="#63b8ff" stroke="#63b8ff" points="3716.28,-149.12 3726.3,-145.67 3716.32,-142.12 3716.28,-149.12"/>
</g>
<!-- Node28 -->
<g id="node28" class="node">
<title>Node28</title>
<g id="a_node28"><a xlink:href="J3DMaterialFactory__v21_8h.html" target="_top" xlink:title=" ">
<polygon fill="white" stroke="#666666" points="491.5,-96 329.5,-96 329.5,-66 491.5,-66 491.5,-96"/>
<text text-anchor="start" x="337.5" y="-84" font-family="Helvetica,sans-Serif" font-size="10.00">include/JSystem/J3DGraph</text>
<text text-anchor="middle" x="410.5" y="-73" font-family="Helvetica,sans-Serif" font-size="10.00">Loader/J3DMaterialFactory_v21.h</text>
</a>
</g>
</g>
<!-- Node1&#45;&gt;Node28 -->
<g id="edge29" class="edge">
<title>Node1&#45;&gt;Node28</title>
<path fill="none" stroke="#63b8ff" d="M3716.06,-144.5C3257.68,-135.83 954.98,-92.29 491.75,-83.54"/>
<polygon fill="#63b8ff" stroke="#63b8ff" points="3715.92,-148 3725.99,-144.69 3716.06,-141 3715.92,-148"/>
</g>
<!-- Node29 -->
<g id="node29" class="node">
<title>Node29</title>
<g id="a_node29"><a xlink:href="d__a__alink_8h.html" target="_top" xlink:title=" ">
<polygon fill="white" stroke="#666666" points="3918.5,-90.5 3802.5,-90.5 3802.5,-71.5 3918.5,-71.5 3918.5,-90.5"/>
<text text-anchor="middle" x="3860.5" y="-78.5" font-family="Helvetica,sans-Serif" font-size="10.00">include/d/a/d_a_alink.h</text>
</a>
</g>
</g>
<!-- Node1&#45;&gt;Node29 -->
<g id="edge32" class="edge">
<title>Node1&#45;&gt;Node29</title>
<path fill="none" stroke="#63b8ff" d="M3817.9,-123.94C3829.44,-112.58 3842.87,-99.36 3851.52,-90.84"/>
<polygon fill="#63b8ff" stroke="#63b8ff" points="3815.67,-121.22 3811,-130.73 3820.59,-126.21 3815.67,-121.22"/>
</g>
<!-- Node39 -->
<g id="node39" class="node">
<title>Node39</title>
<g id="a_node39"><a xlink:href="d__a__midna_8h.html" target="_top" xlink:title=" ">
<polygon fill="white" stroke="#666666" points="3784.5,-96 3678.5,-96 3678.5,-66 3784.5,-66 3784.5,-96"/>
<text text-anchor="start" x="3686.5" y="-84" font-family="Helvetica,sans-Serif" font-size="10.00">include/rel/d/a/d_a</text>
<text text-anchor="middle" x="3731.5" y="-73" font-family="Helvetica,sans-Serif" font-size="10.00">_midna/d_a_midna.h</text>
</a>
</g>
</g>
<!-- Node1&#45;&gt;Node39 -->
<g id="edge44" class="edge">
<title>Node1&#45;&gt;Node39</title>
<path fill="none" stroke="#63b8ff" d="M3773.31,-123.81C3764.14,-114.64 3753.78,-104.28 3745.66,-96.16"/>
<polygon fill="#63b8ff" stroke="#63b8ff" points="3770.68,-126.13 3780.23,-130.73 3775.63,-121.18 3770.68,-126.13"/>
</g>
<!-- Node40 -->
<g id="node40" class="node">
<title>Node40</title>
<g id="a_node40"><a xlink:href="J3DMatBlock_8cpp.html" target="_top" xlink:title=" ">
<polygon fill="white" stroke="#666666" points="4078.5,-96 3936.5,-96 3936.5,-66 4078.5,-66 4078.5,-96"/>
<text text-anchor="start" x="3944.5" y="-84" font-family="Helvetica,sans-Serif" font-size="10.00">libs/JSystem/J3DGraphBase</text>
<text text-anchor="middle" x="4007.5" y="-73" font-family="Helvetica,sans-Serif" font-size="10.00">/J3DMatBlock.cpp</text>
</a>
</g>
</g>
<!-- Node1&#45;&gt;Node40 -->
<g id="edge49" class="edge">
<title>Node1&#45;&gt;Node40</title>
<path fill="none" stroke="#63b8ff" d="M3854.3,-128.25C3887.55,-118.21 3928.6,-105.82 3959.83,-96.39"/>
<polygon fill="#63b8ff" stroke="#63b8ff" points="3853.35,-124.88 3844.79,-131.12 3855.38,-131.58 3853.35,-124.88"/>
</g>
<!-- Node41 -->
<g id="node41" class="node">
<title>Node41</title>
<g id="a_node41"><a xlink:href="J3DShapeMtx_8cpp.html" target="_top" xlink:title=" ">
<polygon fill="white" stroke="#666666" points="4238.5,-96 4096.5,-96 4096.5,-66 4238.5,-66 4238.5,-96"/>
<text text-anchor="start" x="4104.5" y="-84" font-family="Helvetica,sans-Serif" font-size="10.00">libs/JSystem/J3DGraphBase</text>
<text text-anchor="middle" x="4167.5" y="-73" font-family="Helvetica,sans-Serif" font-size="10.00">/J3DShapeMtx.cpp</text>
</a>
</g>
</g>
<!-- Node1&#45;&gt;Node41 -->
<g id="edge50" class="edge">
<title>Node1&#45;&gt;Node41</title>
<path fill="none" stroke="#63b8ff" d="M3874.43,-132.57C3933.19,-122.54 4015.37,-108.49 4087.5,-96 4090.42,-95.49 4093.39,-94.98 4096.4,-94.46"/>
<polygon fill="#63b8ff" stroke="#63b8ff" points="3874.13,-129.07 3864.86,-134.2 3875.3,-135.97 3874.13,-129.07"/>
</g>
<!-- Node42 -->
<g id="node42" class="node">
<title>Node42</title>
<g id="a_node42"><a xlink:href="J3DTevs_8cpp.html" target="_top" xlink:title=" ">
<polygon fill="white" stroke="#666666" points="4398.5,-96 4256.5,-96 4256.5,-66 4398.5,-66 4398.5,-96"/>
<text text-anchor="start" x="4264.5" y="-84" font-family="Helvetica,sans-Serif" font-size="10.00">libs/JSystem/J3DGraphBase</text>
<text text-anchor="middle" x="4327.5" y="-73" font-family="Helvetica,sans-Serif" font-size="10.00">/J3DTevs.cpp</text>
</a>
</g>
</g>
<!-- Node1&#45;&gt;Node42 -->
<g id="edge51" class="edge">
<title>Node1&#45;&gt;Node42</title>
<path fill="none" stroke="#63b8ff" d="M3874.69,-138.77C3965.08,-130.16 4117.27,-114.58 4247.5,-96 4250.29,-95.6 4253.14,-95.18 4256.01,-94.74"/>
<polygon fill="#63b8ff" stroke="#63b8ff" points="3874.57,-135.26 3864.95,-139.69 3875.23,-142.23 3874.57,-135.26"/>
</g>
<!-- Node43 -->
<g id="node43" class="node">
<title>Node43</title>
<g id="a_node43"><a xlink:href="m__Do__lib_8cpp.html" target="_top" xlink:title=" ">
<polygon fill="white" stroke="#666666" points="4536.5,-90.5 4416.5,-90.5 4416.5,-71.5 4536.5,-71.5 4536.5,-90.5"/>
<text text-anchor="middle" x="4476.5" y="-78.5" font-family="Helvetica,sans-Serif" font-size="10.00">src/m_Do/m_Do_lib.cpp</text>
</a>
</g>
</g>
<!-- Node1&#45;&gt;Node43 -->
<g id="edge53" class="edge">
<title>Node1&#45;&gt;Node43</title>
<path fill="none" stroke="#63b8ff" d="M3874.57,-142.54C3991.51,-136.75 4217.25,-122.98 4407.5,-96 4416.94,-94.66 4427.03,-92.84 4436.5,-90.95"/>
<polygon fill="#63b8ff" stroke="#63b8ff" points="3874.59,-139.04 3864.77,-143.02 3874.93,-146.03 3874.59,-139.04"/>
</g>
<!-- Node3 -->
<g id="node3" class="node">
<title>Node3</title>
<g id="a_node3"><a xlink:href="J3DJoint_8cpp.html" target="_top" xlink:title=" ">
<polygon fill="white" stroke="#666666" points="1863.5,-30 1705.5,-30 1705.5,0 1863.5,0 1863.5,-30"/>
<text text-anchor="start" x="1713.5" y="-18" font-family="Helvetica,sans-Serif" font-size="10.00">libs/JSystem/J3DGraphAnimator</text>
<text text-anchor="middle" x="1784.5" y="-7" font-family="Helvetica,sans-Serif" font-size="10.00">/J3DJoint.cpp</text>
</a>
</g>
</g>
<!-- Node2&#45;&gt;Node3 -->
<g id="edge2" class="edge">
<title>Node2&#45;&gt;Node3</title>
<path fill="none" stroke="#63b8ff" d="M1784.5,-54.39C1784.5,-46.13 1784.5,-37.28 1784.5,-30.16"/>
<polygon fill="#63b8ff" stroke="#63b8ff" points="1781,-54.28 1784.5,-64.28 1788,-54.28 1781,-54.28"/>
</g>
<!-- Node4 -->
<g id="node4" class="node">
<title>Node4</title>
<g id="a_node4"><a xlink:href="J3DJointTree_8cpp.html" target="_top" xlink:title=" ">
<polygon fill="white" stroke="#666666" points="2039.5,-30 1881.5,-30 1881.5,0 2039.5,0 2039.5,-30"/>
<text text-anchor="start" x="1889.5" y="-18" font-family="Helvetica,sans-Serif" font-size="10.00">libs/JSystem/J3DGraphAnimator</text>
<text text-anchor="middle" x="1960.5" y="-7" font-family="Helvetica,sans-Serif" font-size="10.00">/J3DJointTree.cpp</text>
</a>
</g>
</g>
<!-- Node2&#45;&gt;Node4 -->
<g id="edge3" class="edge">
<title>Node2&#45;&gt;Node4</title>
<path fill="none" stroke="#63b8ff" d="M1834.54,-61.8C1861.89,-51.86 1895.29,-39.71 1920.83,-30.43"/>
<polygon fill="#63b8ff" stroke="#63b8ff" points="1833.62,-58.41 1825.42,-65.12 1836.01,-64.99 1833.62,-58.41"/>
</g>
<!-- Node5 -->
<g id="node5" class="node">
<title>Node5</title>
<g id="a_node5"><a xlink:href="J3DMaterialAnm_8cpp.html" target="_top" xlink:title=" ">
<polygon fill="white" stroke="#666666" points="2215.5,-30 2057.5,-30 2057.5,0 2215.5,0 2215.5,-30"/>
<text text-anchor="start" x="2065.5" y="-18" font-family="Helvetica,sans-Serif" font-size="10.00">libs/JSystem/J3DGraphAnimator</text>
<text text-anchor="middle" x="2136.5" y="-7" font-family="Helvetica,sans-Serif" font-size="10.00">/J3DMaterialAnm.cpp</text>
</a>
</g>
</g>
<!-- Node2&#45;&gt;Node5 -->
<g id="edge4" class="edge">
<title>Node2&#45;&gt;Node5</title>
<path fill="none" stroke="#63b8ff" d="M1863.64,-65.61C1921.39,-55.11 1999.35,-40.94 2057.15,-30.43"/>
<polygon fill="#63b8ff" stroke="#63b8ff" points="1863.07,-62.16 1853.86,-67.39 1864.32,-69.04 1863.07,-62.16"/>
</g>
<!-- Node6 -->
<g id="node6" class="node">
<title>Node6</title>
<g id="a_node6"><a xlink:href="J3DMaterialAttach_8cpp.html" target="_top" xlink:title=" ">
<polygon fill="white" stroke="#666666" points="2391.5,-30 2233.5,-30 2233.5,0 2391.5,0 2391.5,-30"/>
<text text-anchor="start" x="2241.5" y="-18" font-family="Helvetica,sans-Serif" font-size="10.00">libs/JSystem/J3DGraphAnimator</text>
<text text-anchor="middle" x="2312.5" y="-7" font-family="Helvetica,sans-Serif" font-size="10.00">/J3DMaterialAttach.cpp</text>
</a>
</g>
</g>
<!-- Node2&#45;&gt;Node6 -->
<g id="edge5" class="edge">
<title>Node2&#45;&gt;Node6</title>
<path fill="none" stroke="#63b8ff" d="M1863.71,-72.07C1951.9,-63 2098.61,-47.16 2224.5,-30 2227.41,-29.6 2230.38,-29.19 2233.37,-28.76"/>
<polygon fill="#63b8ff" stroke="#63b8ff" points="1863.55,-68.57 1853.96,-73.07 1864.27,-75.54 1863.55,-68.57"/>
</g>
<!-- Node7 -->
<g id="node7" class="node">
<title>Node7</title>
<g id="a_node7"><a xlink:href="J3DModel_8cpp.html" target="_top" xlink:title=" ">
<polygon fill="white" stroke="#666666" points="2567.5,-30 2409.5,-30 2409.5,0 2567.5,0 2567.5,-30"/>
<text text-anchor="start" x="2417.5" y="-18" font-family="Helvetica,sans-Serif" font-size="10.00">libs/JSystem/J3DGraphAnimator</text>
<text text-anchor="middle" x="2488.5" y="-7" font-family="Helvetica,sans-Serif" font-size="10.00">/J3DModel.cpp</text>
</a>
</g>
</g>
<!-- Node2&#45;&gt;Node7 -->
<g id="edge6" class="edge">
<title>Node2&#45;&gt;Node7</title>
<path fill="none" stroke="#63b8ff" d="M1863.48,-75.54C1980.87,-68.46 2208.22,-53.06 2400.5,-30 2403.42,-29.65 2406.39,-29.27 2409.39,-28.88"/>
<polygon fill="#63b8ff" stroke="#63b8ff" points="1863.41,-72.03 1853.63,-76.12 1863.82,-79.02 1863.41,-72.03"/>
</g>
<!-- Node8 -->
<g id="node8" class="node">
<title>Node8</title>
<g id="a_node8"><a xlink:href="J3DModelData_8cpp.html" target="_top" xlink:title=" ">
<polygon fill="white" stroke="#666666" points="2743.5,-30 2585.5,-30 2585.5,0 2743.5,0 2743.5,-30"/>
<text text-anchor="start" x="2593.5" y="-18" font-family="Helvetica,sans-Serif" font-size="10.00">libs/JSystem/J3DGraphAnimator</text>
<text text-anchor="middle" x="2664.5" y="-7" font-family="Helvetica,sans-Serif" font-size="10.00">/J3DModelData.cpp</text>
</a>
</g>
</g>
<!-- Node2&#45;&gt;Node8 -->
<g id="edge7" class="edge">
<title>Node2&#45;&gt;Node8</title>
<path fill="none" stroke="#63b8ff" d="M1863.72,-77.48C2006.54,-72.39 2316.52,-58.82 2576.5,-30 2579.42,-29.68 2582.39,-29.32 2585.39,-28.95"/>
<polygon fill="#63b8ff" stroke="#63b8ff" points="1863.87,-73.98 1854,-77.83 1864.12,-80.97 1863.87,-73.98"/>
</g>
<!-- Node9 -->
<g id="node9" class="node">
<title>Node9</title>
<g id="a_node9"><a xlink:href="J3DDrawBuffer_8cpp.html" target="_top" xlink:title=" ">
<polygon fill="white" stroke="#666666" points="2903.5,-30 2761.5,-30 2761.5,0 2903.5,0 2903.5,-30"/>
<text text-anchor="start" x="2769.5" y="-18" font-family="Helvetica,sans-Serif" font-size="10.00">libs/JSystem/J3DGraphBase</text>
<text text-anchor="middle" x="2832.5" y="-7" font-family="Helvetica,sans-Serif" font-size="10.00">/J3DDrawBuffer.cpp</text>
</a>
</g>
</g>
<!-- Node2&#45;&gt;Node9 -->
<g id="edge8" class="edge">
<title>Node2&#45;&gt;Node9</title>
<path fill="none" stroke="#63b8ff" d="M1863.24,-79.17C2028.52,-76.73 2423.53,-67.14 2752.5,-30 2755.3,-29.68 2758.15,-29.33 2761.03,-28.95"/>
<polygon fill="#63b8ff" stroke="#63b8ff" points="1863.67,-75.67 1853.72,-79.31 1863.77,-82.67 1863.67,-75.67"/>
</g>
<!-- Node10 -->
<g id="node10" class="node">
<title>Node10</title>
<g id="a_node10"><a xlink:href="J3DMaterial_8cpp.html" target="_top" xlink:title=" ">
<polygon fill="white" stroke="#666666" points="3063.5,-30 2921.5,-30 2921.5,0 3063.5,0 3063.5,-30"/>
<text text-anchor="start" x="2929.5" y="-18" font-family="Helvetica,sans-Serif" font-size="10.00">libs/JSystem/J3DGraphBase</text>
<text text-anchor="middle" x="2992.5" y="-7" font-family="Helvetica,sans-Serif" font-size="10.00">/J3DMaterial.cpp</text>
</a>
</g>
</g>
<!-- Node2&#45;&gt;Node10 -->
<g id="edge9" class="edge">
<title>Node2&#45;&gt;Node10</title>
<path fill="none" stroke="#63b8ff" d="M1863.91,-79.99C2048.52,-79.21 2520.69,-72.79 2912.5,-30 2915.3,-29.69 2918.16,-29.35 2921.04,-28.98"/>
<polygon fill="#63b8ff" stroke="#63b8ff" points="1863.94,-76.49 1853.95,-80.03 1863.96,-83.49 1863.94,-76.49"/>
</g>
<!-- Node11 -->
<g id="node11" class="node">
<title>Node11</title>
<g id="a_node11"><a xlink:href="J3DPacket_8cpp.html" target="_top" xlink:title=" ">
<polygon fill="white" stroke="#666666" points="3223.5,-30 3081.5,-30 3081.5,0 3223.5,0 3223.5,-30"/>
<text text-anchor="start" x="3089.5" y="-18" font-family="Helvetica,sans-Serif" font-size="10.00">libs/JSystem/J3DGraphBase</text>
<text text-anchor="middle" x="3152.5" y="-7" font-family="Helvetica,sans-Serif" font-size="10.00">/J3DPacket.cpp</text>
</a>
</g>
</g>
<!-- Node2&#45;&gt;Node11 -->
<g id="edge10" class="edge">
<title>Node2&#45;&gt;Node11</title>
<path fill="none" stroke="#63b8ff" d="M1863.84,-80.62C2066.02,-81.4 2616.83,-78.49 3072.5,-30 3075.3,-29.7 3078.16,-29.36 3081.04,-29"/>
<polygon fill="#63b8ff" stroke="#63b8ff" points="1863.99,-77.12 1853.98,-80.58 1863.96,-84.12 1863.99,-77.12"/>
</g>
<!-- Node12 -->
<g id="node12" class="node">
<title>Node12</title>
<g id="a_node12"><a xlink:href="J3DMaterialFactory_8cpp.html" target="_top" xlink:title=" ">
<polygon fill="white" stroke="#666666" points="316,-30 167,-30 167,0 316,0 316,-30"/>
<text text-anchor="start" x="175" y="-18" font-family="Helvetica,sans-Serif" font-size="10.00">libs/JSystem/J3DGraphLoader</text>
<text text-anchor="middle" x="241.5" y="-7" font-family="Helvetica,sans-Serif" font-size="10.00">/J3DMaterialFactory.cpp</text>
</a>
</g>
</g>
<!-- Node2&#45;&gt;Node12 -->
<g id="edge11" class="edge">
<title>Node2&#45;&gt;Node12</title>
<path fill="none" stroke="#63b8ff" d="M1705.22,-78.68C1441.6,-74.05 595.83,-57.41 324.5,-30 321.74,-29.72 318.93,-29.41 316.09,-29.06"/>
<polygon fill="#63b8ff" stroke="#63b8ff" points="1705.01,-82.17 1715.07,-78.85 1705.13,-75.17 1705.01,-82.17"/>
</g>
<!-- Node13 -->
<g id="node13" class="node">
<title>Node13</title>
<g id="a_node13"><a xlink:href="J3DMaterialFactory__v21_8cpp.html" target="_top" xlink:title=" ">
<polygon fill="white" stroke="#666666" points="483,-30 334,-30 334,0 483,0 483,-30"/>
<text text-anchor="start" x="342" y="-18" font-family="Helvetica,sans-Serif" font-size="10.00">libs/JSystem/J3DGraphLoader</text>
<text text-anchor="middle" x="408.5" y="-7" font-family="Helvetica,sans-Serif" font-size="10.00">/J3DMaterialFactory_v21.cpp</text>
</a>
</g>
</g>
<!-- Node2&#45;&gt;Node13 -->
<g id="edge12" class="edge">
<title>Node2&#45;&gt;Node13</title>
<path fill="none" stroke="#63b8ff" d="M1705.3,-80.41C1502.84,-80.71 950.05,-76.79 492.5,-30 489.41,-29.68 486.26,-29.33 483.09,-28.93"/>
<polygon fill="#63b8ff" stroke="#63b8ff" points="1705.19,-83.91 1715.18,-80.39 1705.17,-76.91 1705.19,-83.91"/>
</g>
<!-- Node14 -->
<g id="node14" class="node">
<title>Node14</title>
<g id="a_node14"><a xlink:href="J3DModelLoader_8cpp.html" target="_top" xlink:title=" ">
<polygon fill="white" stroke="#666666" points="149,-30 0,-30 0,0 149,0 149,-30"/>
<text text-anchor="start" x="8" y="-18" font-family="Helvetica,sans-Serif" font-size="10.00">libs/JSystem/J3DGraphLoader</text>
<text text-anchor="middle" x="74.5" y="-7" font-family="Helvetica,sans-Serif" font-size="10.00">/J3DModelLoader.cpp</text>
</a>
</g>
</g>
<!-- Node2&#45;&gt;Node14 -->
<g id="edge13" class="edge">
<title>Node2&#45;&gt;Node14</title>
<path fill="none" stroke="#63b8ff" d="M1705.39,-79C1422.7,-75.2 463.13,-60.33 157.5,-30 154.74,-29.73 151.93,-29.42 149.09,-29.08"/>
<polygon fill="#63b8ff" stroke="#63b8ff" points="1705.19,-82.5 1715.23,-79.13 1705.28,-75.5 1705.19,-82.5"/>
</g>
<!-- Node15 -->
<g id="node15" class="node">
<title>Node15</title>
<g id="a_node15"><a xlink:href="d__a__alink_8cpp.html" target="_top" xlink:title=" ">
<polygon fill="white" stroke="#666666" points="3649,-24.5 3540,-24.5 3540,-5.5 3649,-5.5 3649,-24.5"/>
<text text-anchor="middle" x="3594.5" y="-12.5" font-family="Helvetica,sans-Serif" font-size="10.00">src/d/a/d_a_alink.cpp</text>
</a>
</g>
</g>
<!-- Node2&#45;&gt;Node15 -->
<g id="edge14" class="edge">
<title>Node2&#45;&gt;Node15</title>
<path fill="none" stroke="#63b8ff" d="M1863.97,-79.73C2160.52,-78.42 3202.24,-70.92 3531.5,-30 3540.73,-28.85 3550.6,-26.98 3559.72,-24.97"/>
<polygon fill="#63b8ff" stroke="#63b8ff" points="1863.99,-76.23 1854,-79.77 1864.02,-83.23 1863.99,-76.23"/>
</g>
<!-- Node16 -->
<g id="node16" class="node">
<title>Node16</title>
<g id="a_node16"><a xlink:href="d__a__npc_8cpp.html" target="_top" xlink:title=" ">
<polygon fill="white" stroke="#666666" points="605.5,-24.5 501.5,-24.5 501.5,-5.5 605.5,-5.5 605.5,-24.5"/>
<text text-anchor="middle" x="553.5" y="-12.5" font-family="Helvetica,sans-Serif" font-size="10.00">src/d/a/d_a_npc.cpp</text>
</a>
</g>
</g>
<!-- Node2&#45;&gt;Node16 -->
<g id="edge15" class="edge">
<title>Node2&#45;&gt;Node16</title>
<path fill="none" stroke="#63b8ff" d="M1705.15,-78.5C1477.68,-73.9 826.03,-58.55 614.5,-30 605.67,-28.81 596.24,-26.94 587.5,-24.96"/>
<polygon fill="#63b8ff" stroke="#63b8ff" points="1705.05,-82 1715.12,-78.7 1705.19,-75 1705.05,-82"/>
</g>
<!-- Node2&#45;&gt;Node17 -->
<g id="edge16" class="edge">
<title>Node2&#45;&gt;Node17</title>
<path fill="none" stroke="#63b8ff" d="M1863.64,-79.19C2125.8,-76.19 2964.35,-64.13 3232.5,-30 3241.73,-28.83 3251.59,-26.94 3260.71,-24.93"/>
<polygon fill="#63b8ff" stroke="#63b8ff" points="1863.81,-75.69 1853.85,-79.3 1863.89,-82.68 1863.81,-75.69"/>
</g>
<!-- Node18 -->
<g id="node18" class="node">
<title>Node18</title>
<g id="a_node18"><a xlink:href="d__k__wmark_8cpp.html" target="_top" xlink:title=" ">
<polygon fill="white" stroke="#666666" points="733.5,-24.5 623.5,-24.5 623.5,-5.5 733.5,-5.5 733.5,-24.5"/>
<text text-anchor="middle" x="678.5" y="-12.5" font-family="Helvetica,sans-Serif" font-size="10.00">src/d/d_k_wmark.cpp</text>
</a>
</g>
</g>
<!-- Node2&#45;&gt;Node18 -->
<g id="edge17" class="edge">
<title>Node2&#45;&gt;Node18</title>
<path fill="none" stroke="#63b8ff" d="M1705.42,-80.7C1530.84,-81.28 1099.62,-77.29 742.5,-30 733.37,-28.79 723.61,-26.94 714.53,-24.99"/>
<polygon fill="#63b8ff" stroke="#63b8ff" points="1705.3,-84.21 1715.28,-80.67 1705.27,-77.21 1705.3,-84.21"/>
</g>
<!-- Node19 -->
<g id="node19" class="node">
<title>Node19</title>
<g id="a_node19"><a xlink:href="d__k__wpillar_8cpp.html" target="_top" xlink:title=" ">
<polygon fill="white" stroke="#666666" points="859.5,-24.5 751.5,-24.5 751.5,-5.5 859.5,-5.5 859.5,-24.5"/>
<text text-anchor="middle" x="805.5" y="-12.5" font-family="Helvetica,sans-Serif" font-size="10.00">src/d/d_k_wpillar.cpp</text>
</a>
</g>
</g>
<!-- Node2&#45;&gt;Node19 -->
<g id="edge18" class="edge">
<title>Node2&#45;&gt;Node19</title>
<path fill="none" stroke="#63b8ff" d="M1705.54,-80.04C1546.4,-79.16 1176.09,-72.28 868.5,-30 859.51,-28.76 849.9,-26.91 840.97,-24.95"/>
<polygon fill="#63b8ff" stroke="#63b8ff" points="1705.09,-83.54 1715.11,-80.09 1705.13,-76.54 1705.09,-83.54"/>
</g>
<!-- Node20 -->
<g id="node20" class="node">
<title>Node20</title>
<g id="a_node20"><a xlink:href="d__model_8cpp.html" target="_top" xlink:title=" ">
<polygon fill="white" stroke="#666666" points="973.5,-24.5 877.5,-24.5 877.5,-5.5 973.5,-5.5 973.5,-24.5"/>
<text text-anchor="middle" x="925.5" y="-12.5" font-family="Helvetica,sans-Serif" font-size="10.00">src/d/d_model.cpp</text>
</a>
</g>
</g>
<!-- Node2&#45;&gt;Node20 -->
<g id="edge19" class="edge">
<title>Node2&#45;&gt;Node20</title>
<path fill="none" stroke="#63b8ff" d="M1705.38,-79.73C1560.93,-78.22 1245.17,-70.12 982.5,-30 974.34,-28.75 965.64,-26.89 957.55,-24.94"/>
<polygon fill="#63b8ff" stroke="#63b8ff" points="1705.19,-83.23 1715.22,-79.83 1705.25,-76.23 1705.19,-83.23"/>
</g>
<!-- Node21 -->
<g id="node21" class="node">
<title>Node21</title>
<g id="a_node21"><a xlink:href="d__resorce_8cpp.html" target="_top" xlink:title=" ">
<polygon fill="white" stroke="#666666" points="1093.5,-24.5 991.5,-24.5 991.5,-5.5 1093.5,-5.5 1093.5,-24.5"/>
<text text-anchor="middle" x="1042.5" y="-12.5" font-family="Helvetica,sans-Serif" font-size="10.00">src/d/d_resorce.cpp</text>
</a>
</g>
</g>
<!-- Node2&#45;&gt;Node21 -->
<g id="edge20" class="edge">
<title>Node2&#45;&gt;Node21</title>
<path fill="none" stroke="#63b8ff" d="M1705.66,-78.21C1578.19,-74.42 1319.25,-63.03 1102.5,-30 1094.15,-28.73 1085.23,-26.91 1076.9,-25"/>
<polygon fill="#63b8ff" stroke="#63b8ff" points="1705.22,-81.7 1715.32,-78.49 1705.42,-74.7 1705.22,-81.7"/>
</g>
<!-- Node22 -->
<g id="node22" class="node">
<title>Node22</title>
<g id="a_node22"><a xlink:href="d__file__select_8cpp.html" target="_top" xlink:title=" ">
<polygon fill="white" stroke="#666666" points="1239.5,-24.5 1111.5,-24.5 1111.5,-5.5 1239.5,-5.5 1239.5,-24.5"/>
<text text-anchor="middle" x="1175.5" y="-12.5" font-family="Helvetica,sans-Serif" font-size="10.00">src/d/file/d_file_select.cpp</text>
</a>
</g>
</g>
<!-- Node2&#45;&gt;Node22 -->
<g id="edge21" class="edge">
<title>Node2&#45;&gt;Node22</title>
<path fill="none" stroke="#63b8ff" d="M1705.14,-75C1600.26,-67.84 1409.93,-52.95 1248.5,-30 1238.79,-28.62 1228.41,-26.82 1218.62,-24.98"/>
<polygon fill="#63b8ff" stroke="#63b8ff" points="1704.84,-78.49 1715.05,-75.67 1705.31,-71.5 1704.84,-78.49"/>
</g>
<!-- Node23 -->
<g id="node23" class="node">
<title>Node23</title>
<g id="a_node23"><a xlink:href="d__kankyo_8cpp.html" target="_top" xlink:title=" ">
<polygon fill="white" stroke="#666666" points="1391.5,-24.5 1257.5,-24.5 1257.5,-5.5 1391.5,-5.5 1391.5,-24.5"/>
<text text-anchor="middle" x="1324.5" y="-12.5" font-family="Helvetica,sans-Serif" font-size="10.00">src/d/kankyo/d_kankyo.cpp</text>
</a>
</g>
</g>
<!-- Node2&#45;&gt;Node23 -->
<g id="edge22" class="edge">
<title>Node2&#45;&gt;Node23</title>
<path fill="none" stroke="#63b8ff" d="M1705.57,-70.96C1627.82,-61.76 1505.74,-46.53 1400.5,-30 1390.96,-28.5 1380.77,-26.74 1371.06,-24.98"/>
<polygon fill="#63b8ff" stroke="#63b8ff" points="1704.87,-74.4 1715.21,-72.09 1705.69,-67.44 1704.87,-74.4"/>
</g>
<!-- Node24 -->
<g id="node24" class="node">
<title>Node24</title>
<g id="a_node24"><a xlink:href="d__menu__collect_8cpp.html" target="_top" xlink:title=" ">
<polygon fill="white" stroke="#666666" points="3522,-24.5 3367,-24.5 3367,-5.5 3522,-5.5 3522,-24.5"/>
<text text-anchor="middle" x="3444.5" y="-12.5" font-family="Helvetica,sans-Serif" font-size="10.00">src/d/menu/d_menu_collect.cpp</text>
</a>
</g>
</g>
<!-- Node2&#45;&gt;Node24 -->
<g id="edge23" class="edge">
<title>Node2&#45;&gt;Node24</title>
<path fill="none" stroke="#63b8ff" d="M1863.32,-78.83C2139.52,-74.52 3062.75,-58.28 3357.5,-30 3369.99,-28.8 3383.4,-26.93 3395.87,-24.95"/>
<polygon fill="#63b8ff" stroke="#63b8ff" points="1863.67,-75.32 1853.73,-78.98 1863.78,-82.32 1863.67,-75.32"/>
</g>
<!-- Node25 -->
<g id="node25" class="node">
<title>Node25</title>
<g id="a_node25"><a xlink:href="d__particle_8cpp.html" target="_top" xlink:title=" ">
<polygon fill="white" stroke="#666666" points="1545.5,-24.5 1409.5,-24.5 1409.5,-5.5 1545.5,-5.5 1545.5,-24.5"/>
<text text-anchor="middle" x="1477.5" y="-12.5" font-family="Helvetica,sans-Serif" font-size="10.00">src/d/particle/d_particle.cpp</text>
</a>
</g>
</g>
<!-- Node2&#45;&gt;Node25 -->
<g id="edge24" class="edge">
<title>Node2&#45;&gt;Node25</title>
<path fill="none" stroke="#63b8ff" d="M1705.61,-63.55C1646.66,-51.27 1568.33,-34.93 1520.48,-24.96"/>
<polygon fill="#63b8ff" stroke="#63b8ff" points="1704.76,-66.95 1715.27,-65.57 1706.19,-60.1 1704.76,-66.95"/>
</g>
<!-- Node26 -->
<g id="node26" class="node">
<title>Node26</title>
<g id="a_node26"><a xlink:href="m__Do__ext_8cpp.html" target="_top" xlink:title=" ">
<polygon fill="white" stroke="#666666" points="1687,-24.5 1564,-24.5 1564,-5.5 1687,-5.5 1687,-24.5"/>
<text text-anchor="middle" x="1625.5" y="-12.5" font-family="Helvetica,sans-Serif" font-size="10.00">src/m_Do/m_Do_ext.cpp</text>
</a>
</g>
</g>
<!-- Node2&#45;&gt;Node26 -->
<g id="edge25" class="edge">
<title>Node2&#45;&gt;Node26</title>
<path fill="none" stroke="#63b8ff" d="M1738.24,-61.38C1708.49,-49.41 1671.17,-34.38 1647.82,-24.99"/>
<polygon fill="#63b8ff" stroke="#63b8ff" points="1736.83,-64.58 1747.41,-65.07 1739.44,-58.09 1736.83,-64.58"/>
</g>
<!-- Node27&#45;&gt;Node12 -->
<g id="edge27" class="edge">
<title>Node27&#45;&gt;Node12</title>
<path fill="none" stroke="#63b8ff" d="M240.9,-54.39C241.03,-46.13 241.17,-37.28 241.28,-30.16"/>
<polygon fill="#63b8ff" stroke="#63b8ff" points="237.4,-54.23 240.75,-64.28 244.4,-54.34 237.4,-54.23"/>
</g>
<!-- Node27&#45;&gt;Node14 -->
<g id="edge28" class="edge">
<title>Node27&#45;&gt;Node14</title>
<path fill="none" stroke="#63b8ff" d="M192.62,-61.54C166.95,-51.64 135.79,-39.63 111.92,-30.43"/>
<polygon fill="#63b8ff" stroke="#63b8ff" points="191.24,-64.76 201.83,-65.09 193.76,-58.23 191.24,-64.76"/>
</g>
<!-- Node28&#45;&gt;Node13 -->
<g id="edge30" class="edge">
<title>Node28&#45;&gt;Node13</title>
<path fill="none" stroke="#63b8ff" d="M409.7,-54.39C409.44,-46.13 409.17,-37.28 408.94,-30.16"/>
<polygon fill="#63b8ff" stroke="#63b8ff" points="406.2,-54.4 410.01,-64.28 413.19,-54.18 406.2,-54.4"/>
</g>
<!-- Node28&#45;&gt;Node14 -->
<g id="edge31" class="edge">
<title>Node28&#45;&gt;Node14</title>
<path fill="none" stroke="#63b8ff" d="M323.4,-63.41C269.49,-53.14 200.96,-40.09 149.47,-30.28"/>
<polygon fill="#63b8ff" stroke="#63b8ff" points="322.71,-66.84 333.19,-65.27 324.02,-59.96 322.71,-66.84"/>
</g>
<!-- Node29&#45;&gt;Node15 -->
<g id="edge33" class="edge">
<title>Node29&#45;&gt;Node15</title>
<path fill="none" stroke="#63b8ff" d="M3812.29,-68.4C3760.31,-55.89 3678.68,-36.25 3631.51,-24.91"/>
<polygon fill="#63b8ff" stroke="#63b8ff" points="3811.22,-71.74 3821.76,-70.68 3812.86,-64.94 3811.22,-71.74"/>
</g>
<!-- Node29&#45;&gt;Node24 -->
<g id="edge39" class="edge">
<title>Node29&#45;&gt;Node24</title>
<path fill="none" stroke="#63b8ff" d="M3808.7,-68.8C3803.57,-67.81 3798.44,-66.85 3793.5,-66 3677.68,-45.97 3647.75,-47.34 3531.5,-30 3520.91,-28.42 3509.6,-26.66 3498.77,-24.93"/>
<polygon fill="#63b8ff" stroke="#63b8ff" points="3807.86,-72.21 3818.36,-70.74 3809.24,-65.34 3807.86,-72.21"/>
</g>
<!-- Node30 -->
<g id="node30" class="node">
<title>Node30</title>
<g id="a_node30"><a xlink:href="d__a__player_8cpp.html" target="_top" xlink:title=" ">
<polygon fill="white" stroke="#666666" points="3781.5,-24.5 3667.5,-24.5 3667.5,-5.5 3781.5,-5.5 3781.5,-24.5"/>
<text text-anchor="middle" x="3724.5" y="-12.5" font-family="Helvetica,sans-Serif" font-size="10.00">src/d/a/d_a_player.cpp</text>
</a>
</g>
</g>
<!-- Node29&#45;&gt;Node30 -->
<g id="edge34" class="edge">
<title>Node29&#45;&gt;Node30</title>
<path fill="none" stroke="#63b8ff" d="M3831.32,-66.27C3804.66,-53.72 3766.01,-35.54 3743.25,-24.82"/>
<polygon fill="#63b8ff" stroke="#63b8ff" points="3829.68,-69.37 3840.22,-70.46 3832.66,-63.03 3829.68,-69.37"/>
</g>
<!-- Node31 -->
<g id="node31" class="node">
<title>Node31</title>
<g id="a_node31"><a xlink:href="d__com__inf__game_8cpp.html" target="_top" xlink:title=" ">
<polygon fill="white" stroke="#666666" points="4624.5,-30 4516.5,-30 4516.5,0 4624.5,0 4624.5,-30"/>
<text text-anchor="start" x="4524.5" y="-18" font-family="Helvetica,sans-Serif" font-size="10.00">src/d/com/d_com_inf</text>
<text text-anchor="middle" x="4570.5" y="-7" font-family="Helvetica,sans-Serif" font-size="10.00">_game.cpp</text>
</a>
</g>
</g>
<!-- Node29&#45;&gt;Node31 -->
<g id="edge35" class="edge">
<title>Node29&#45;&gt;Node31</title>
<path fill="none" stroke="#63b8ff" d="M3909.85,-68.85C3915.77,-67.76 3921.76,-66.77 3927.5,-66 4183.46,-31.5 4251.76,-66.12 4507.5,-30 4510.38,-29.59 4513.33,-29.12 4516.3,-28.61"/>
<polygon fill="#63b8ff" stroke="#63b8ff" points="3909.23,-65.41 3900.09,-70.76 3910.57,-72.28 3909.23,-65.41"/>
</g>
<!-- Node32 -->
<g id="node32" class="node">
<title>Node32</title>
<g id="a_node32"><a xlink:href="d__camera_8cpp.html" target="_top" xlink:title=" ">
<polygon fill="white" stroke="#666666" points="4744.5,-24.5 4642.5,-24.5 4642.5,-5.5 4744.5,-5.5 4744.5,-24.5"/>
<text text-anchor="middle" x="4693.5" y="-12.5" font-family="Helvetica,sans-Serif" font-size="10.00">src/d/d_camera.cpp</text>
</a>
</g>
</g>
<!-- Node29&#45;&gt;Node32 -->
<g id="edge36" class="edge">
<title>Node29&#45;&gt;Node32</title>
<path fill="none" stroke="#63b8ff" d="M3909.16,-68.91C3915.31,-67.78 3921.53,-66.77 3927.5,-66 4239.1,-25.75 4322.39,-73.87 4633.5,-30 4642.08,-28.79 4651.24,-26.94 4659.75,-24.99"/>
<polygon fill="#63b8ff" stroke="#63b8ff" points="3908.87,-65.4 3899.72,-70.76 3910.21,-72.27 3908.87,-65.4"/>
</g>
<!-- Node33 -->
<g id="node33" class="node">
<title>Node33</title>
<g id="a_node33"><a xlink:href="d__ev__camera_8cpp.html" target="_top" xlink:title=" ">
<polygon fill="white" stroke="#666666" points="4880.5,-24.5 4762.5,-24.5 4762.5,-5.5 4880.5,-5.5 4880.5,-24.5"/>
<text text-anchor="middle" x="4821.5" y="-12.5" font-family="Helvetica,sans-Serif" font-size="10.00">src/d/d_ev_camera.cpp</text>
</a>
</g>
</g>
<!-- Node29&#45;&gt;Node33 -->
<g id="edge37" class="edge">
<title>Node29&#45;&gt;Node33</title>
<path fill="none" stroke="#63b8ff" d="M3908.92,-68.91C3915.15,-67.77 3921.46,-66.76 3927.5,-66 4292.1,-20.27 4388.83,-75.19 4753.5,-30 4763.19,-28.8 4773.55,-26.96 4783.2,-25"/>
<polygon fill="#63b8ff" stroke="#63b8ff" points="3908.51,-65.43 3899.37,-70.78 3909.85,-72.3 3908.51,-65.43"/>
</g>
<!-- Node34 -->
<g id="node34" class="node">
<title>Node34</title>
<g id="a_node34"><a xlink:href="d__event_8cpp.html" target="_top" xlink:title=" ">
<polygon fill="white" stroke="#666666" points="3921,-24.5 3800,-24.5 3800,-5.5 3921,-5.5 3921,-24.5"/>
<text text-anchor="middle" x="3860.5" y="-12.5" font-family="Helvetica,sans-Serif" font-size="10.00">src/d/event/d_event.cpp</text>
</a>
</g>
</g>
<!-- Node29&#45;&gt;Node34 -->
<g id="edge38" class="edge">
<title>Node29&#45;&gt;Node34</title>
<path fill="none" stroke="#63b8ff" d="M3860.5,-59.68C3860.5,-47.94 3860.5,-33.77 3860.5,-24.82"/>
<polygon fill="#63b8ff" stroke="#63b8ff" points="3857,-59.59 3860.5,-69.59 3864,-59.59 3857,-59.59"/>
</g>
<!-- Node35 -->
<g id="node35" class="node">
<title>Node35</title>
<g id="a_node35"><a xlink:href="d__menu__ring_8cpp.html" target="_top" xlink:title=" ">
<polygon fill="white" stroke="#666666" points="4232.5,-24.5 4090.5,-24.5 4090.5,-5.5 4232.5,-5.5 4232.5,-24.5"/>
<text text-anchor="middle" x="4161.5" y="-12.5" font-family="Helvetica,sans-Serif" font-size="10.00">src/d/menu/d_menu_ring.cpp</text>
</a>
</g>
</g>
<!-- Node29&#45;&gt;Node35 -->
<g id="edge40" class="edge">
<title>Node29&#45;&gt;Node35</title>
<path fill="none" stroke="#63b8ff" d="M3913.58,-68.71C3972.32,-56.22 4065.8,-36.35 4119.62,-24.91"/>
<polygon fill="#63b8ff" stroke="#63b8ff" points="3913.2,-65.22 3904.15,-70.72 3914.66,-72.06 3913.2,-65.22"/>
</g>
<!-- Node36 -->
<g id="node36" class="node">
<title>Node36</title>
<g id="a_node36"><a xlink:href="d__meter2__draw_8cpp.html" target="_top" xlink:title=" ">
<polygon fill="white" stroke="#666666" points="4360.5,-30 4250.5,-30 4250.5,0 4360.5,0 4360.5,-30"/>
<text text-anchor="start" x="4258.5" y="-18" font-family="Helvetica,sans-Serif" font-size="10.00">src/d/meter/d_meter2</text>
<text text-anchor="middle" x="4305.5" y="-7" font-family="Helvetica,sans-Serif" font-size="10.00">_draw.cpp</text>
</a>
</g>
</g>
<!-- Node29&#45;&gt;Node36 -->
<g id="edge41" class="edge">
<title>Node29&#45;&gt;Node36</title>
<path fill="none" stroke="#63b8ff" d="M3911.43,-68.85C3916.84,-67.82 3922.28,-66.84 3927.5,-66 4066.17,-43.61 4102.93,-53.04 4241.5,-30 4244.3,-29.53 4247.17,-29.02 4250.06,-28.49"/>
<polygon fill="#63b8ff" stroke="#63b8ff" points="3911.04,-65.36 3901.91,-70.74 3912.4,-72.23 3911.04,-65.36"/>
</g>
<!-- Node37 -->
<g id="node37" class="node">
<title>Node37</title>
<g id="a_node37"><a xlink:href="d__msg__flow_8cpp.html" target="_top" xlink:title=" ">
<polygon fill="white" stroke="#666666" points="4072,-24.5 3939,-24.5 3939,-5.5 4072,-5.5 4072,-24.5"/>
<text text-anchor="middle" x="4005.5" y="-12.5" font-family="Helvetica,sans-Serif" font-size="10.00">src/d/msg/d_msg_flow.cpp</text>
</a>
</g>
</g>
<!-- Node29&#45;&gt;Node37 -->
<g id="edge42" class="edge">
<title>Node29&#45;&gt;Node37</title>
<path fill="none" stroke="#63b8ff" d="M3890.85,-66.6C3919.31,-54.04 3961.03,-35.63 3985.51,-24.82"/>
<polygon fill="#63b8ff" stroke="#63b8ff" points="3889.78,-63.25 3882.05,-70.49 3892.61,-69.65 3889.78,-63.25"/>
</g>
<!-- Node38 -->
<g id="node38" class="node">
<title>Node38</title>
<g id="a_node38"><a xlink:href="f__op__actor_8cpp.html" target="_top" xlink:title=" ">
<polygon fill="white" stroke="#666666" points="4498,-24.5 4379,-24.5 4379,-5.5 4498,-5.5 4498,-24.5"/>
<text text-anchor="middle" x="4438.5" y="-12.5" font-family="Helvetica,sans-Serif" font-size="10.00">src/f_op/f_op_actor.cpp</text>
</a>
</g>
</g>
<!-- Node29&#45;&gt;Node38 -->
<g id="edge43" class="edge">
<title>Node29&#45;&gt;Node38</title>
<path fill="none" stroke="#63b8ff" d="M3910.31,-68.88C3916.09,-67.8 3921.91,-66.81 3927.5,-66 4122.57,-37.79 4174.35,-57.64 4369.5,-30 4378.94,-28.66 4389.03,-26.84 4398.5,-24.95"/>
<polygon fill="#63b8ff" stroke="#63b8ff" points="3909.95,-65.38 3900.81,-70.74 3911.3,-72.25 3909.95,-65.38"/>
</g>
<!-- Node39&#45;&gt;Node15 -->
<g id="edge45" class="edge">
<title>Node39&#45;&gt;Node15</title>
<path fill="none" stroke="#63b8ff" d="M3690.63,-60.91C3665.17,-49.01 3633.59,-34.26 3613.74,-24.99"/>
<polygon fill="#63b8ff" stroke="#63b8ff" points="3688.84,-63.94 3699.38,-65 3691.8,-57.59 3688.84,-63.94"/>
</g>
<!-- Node39&#45;&gt;Node30 -->
<g id="edge46" class="edge">
<title>Node39&#45;&gt;Node30</title>
<path fill="none" stroke="#63b8ff" d="M3728.72,-54.59C3727.57,-44.06 3726.31,-32.53 3725.47,-24.84"/>
<polygon fill="#63b8ff" stroke="#63b8ff" points="3725.22,-54.73 3729.78,-64.29 3732.17,-53.97 3725.22,-54.73"/>
</g>
<!-- Node39&#45;&gt;Node34 -->
<g id="edge47" class="edge">
<title>Node39&#45;&gt;Node34</title>
<path fill="none" stroke="#63b8ff" d="M3770.63,-60.59C3794.49,-48.75 3823.86,-34.18 3842.39,-24.99"/>
<polygon fill="#63b8ff" stroke="#63b8ff" points="3769.21,-57.38 3761.81,-64.96 3772.32,-63.66 3769.21,-57.38"/>
</g>
<!-- Node39&#45;&gt;Node37 -->
<g id="edge48" class="edge">
<title>Node39&#45;&gt;Node37</title>
<path fill="none" stroke="#63b8ff" d="M3796,-64.93C3849.18,-52.51 3922.84,-35.31 3967.16,-24.96"/>
<polygon fill="#63b8ff" stroke="#63b8ff" points="3795.4,-61.48 3786.45,-67.16 3796.99,-68.3 3795.4,-61.48"/>
</g>
</g>
</svg>
        <g id="navigator" transform="translate(0 0)" fill="#404254">
                <rect fill="#f2f5e9" fill-opacity="0.5" stroke="#606060" stroke-width=".5" x="0" y="0" width="60" height="60"/>
                <use id="zoomplus" xlink:href="#zoomPlus" x="17" y="9" onmousedown="handleZoom(evt,'in')"/>
                <use id="zoomminus" xlink:href="#zoomMin" x="42" y="9" onmousedown="handleZoom(evt,'out')"/>
                <use id="reset" xlink:href="#resetDef" x="30" y="36" onmousedown="handleReset()"/>
                <g id="arrowUp" xlink:href="#dirArrow" transform="translate(30 24)" onmousedown="handlePan(0,-1)">
                  <use xlink:href="#rim" fill="#404040">
                        <set attributeName="fill" to="#808080" begin="arrowUp.mouseover" end="arrowUp.mouseout"/>
                  </use>
                  <path fill="none" stroke="white" stroke-width="1.5" d="M0,-3.0v7 M-2.5,-0.5L0,-3.0L2.5,-0.5"/>
                </g>
                <g id="arrowRight" xlink:href="#dirArrow" transform="rotate(90) translate(36 -43)" onmousedown="handlePan(1,0)">
                  <use xlink:href="#rim" fill="#404040">
                        <set attributeName="fill" to="#808080" begin="arrowRight.mouseover" end="arrowRight.mouseout"/>
                  </use>
                  <path fill="none" stroke="white" stroke-width="1.5" d="M0,-3.0v7 M-2.5,-0.5L0,-3.0L2.5,-0.5"/>
                </g>
                <g id="arrowDown" xlink:href="#dirArrow" transform="rotate(180) translate(-30 -48)" onmousedown="handlePan(0,1)">
                  <use xlink:href="#rim" fill="#404040">
                        <set attributeName="fill" to="#808080" begin="arrowDown.mouseover" end="arrowDown.mouseout"/>
                  </use>
                  <path fill="none" stroke="white" stroke-width="1.5" d="M0,-3.0v7 M-2.5,-0.5L0,-3.0L2.5,-0.5"/>
                </g>
                <g id="arrowLeft" xlink:href="#dirArrow" transform="rotate(270) translate(-36 17)" onmousedown="handlePan(-1,0)">
                  <use xlink:href="#rim" fill="#404040">
                        <set attributeName="fill" to="#808080" begin="arrowLeft.mouseover" end="arrowLeft.mouseout"/>
                  </use>
                  <path fill="none" stroke="white" stroke-width="1.5" d="M0,-3.0v7 M-2.5,-0.5L0,-3.0L2.5,-0.5"/>
                </g>
        </g>
        <svg viewBox="0 0 15 15" width="100%" height="30px" preserveAspectRatio="xMaxYMin meet">
         <g id="arrow_out" transform="scale(0.3 0.3)">
          <a xlink:href="J3DMatBlock_8h__dep__incl_org.svg" target="_base">
           <rect id="button" ry="5" rx="5" y="6" x="6" height="38" width="38"
                fill="#f2f5e9" fill-opacity="0.5" stroke="#606060" stroke-width="1.0"/>
           <path id="arrow"
             d="M 11.500037,31.436501 C 11.940474,20.09759 22.043105,11.32322 32.158766,21.979434 L 37.068811,17.246167 C 37.068811,17.246167 37.088388,32 37.088388,32 L 22.160133,31.978069 C 22.160133,31.978069 26.997745,27.140456 26.997745,27.140456 C 18.528582,18.264221 13.291696,25.230495 11.500037,31.436501 z"
             style="fill:#404040;"/>
          </a>
         </g>
        </svg>
</svg>
