<?xml version="1.0" encoding="UTF-8" standalone="no"?>
<!DOCTYPE svg PUBLIC "-//W3C//DTD SVG 1.1//EN"
 "http://www.w3.org/Graphics/SVG/1.1/DTD/svg11.dtd">
<!-- Generated by graphviz version 7.0.5 (20221223.1930)
 -->
<!-- Title: include/JSystem/J3DGraphBase/J3DShapeDraw.h Pages: 1 -->
<svg width="3615pt" height="555pt"
 viewBox="0.00 0.00 3615.33 555.00" xmlns="http://www.w3.org/2000/svg" xmlns:xlink="http://www.w3.org/1999/xlink">
<g id="graph0" class="graph" transform="scale(1 1) rotate(0) translate(4 551)">
<title>include/JSystem/J3DGraphBase/J3DShapeDraw.h</title>
<!-- Node1 -->
<g id="node1" class="node">
<title>Node1</title>
<g id="a_node1"><a xlink:title=" ">
<polygon fill="#999999" stroke="#666666" points="2247.25,-547 2112.25,-547 2112.25,-517 2247.25,-517 2247.25,-547"/>
<text text-anchor="start" x="2120.25" y="-535" font-family="Helvetica,sans-Serif" font-size="10.00">include/JSystem/J3DGraph</text>
<text text-anchor="middle" x="2179.75" y="-524" font-family="Helvetica,sans-Serif" font-size="10.00">Base/J3DShapeDraw.h</text>
</a>
</g>
</g>
<!-- Node2 -->
<g id="node2" class="node">
<title>Node2</title>
<g id="a_node2"><a xlink:href="J3DShape_8h.html" target="_top" xlink:title=" ">
<polygon fill="white" stroke="#666666" points="2169.25,-481 2034.25,-481 2034.25,-451 2169.25,-451 2169.25,-481"/>
<text text-anchor="start" x="2042.25" y="-469" font-family="Helvetica,sans-Serif" font-size="10.00">include/JSystem/J3DGraph</text>
<text text-anchor="middle" x="2101.75" y="-458" font-family="Helvetica,sans-Serif" font-size="10.00">Base/J3DShape.h</text>
</a>
</g>
</g>
<!-- Node1&#45;&gt;Node2 -->
<g id="edge1" class="edge">
<title>Node1&#45;&gt;Node2</title>
<path fill="none" stroke="#63b8ff" d="M2153.79,-509.7C2142.45,-500.4 2129.45,-489.73 2119.28,-481.39"/>
<polygon fill="#63b8ff" stroke="#63b8ff" points="2151.32,-512.2 2161.27,-515.84 2155.76,-506.79 2151.32,-512.2"/>
</g>
<!-- Node334 -->
<g id="node50" class="node">
<title>Node334</title>
<g id="a_node50"><a xlink:href="J3DShapeDraw_8cpp.html" target="_top" xlink:title=" ">
<polygon fill="white" stroke="#666666" points="2329.75,-481 2187.75,-481 2187.75,-451 2329.75,-451 2329.75,-481"/>
<text text-anchor="start" x="2195.75" y="-469" font-family="Helvetica,sans-Serif" font-size="10.00">libs/JSystem/J3DGraphBase</text>
<text text-anchor="middle" x="2258.75" y="-458" font-family="Helvetica,sans-Serif" font-size="10.00">/J3DShapeDraw.cpp</text>
</a>
</g>
</g>
<!-- Node1&#45;&gt;Node334 -->
<g id="edge67" class="edge">
<title>Node1&#45;&gt;Node334</title>
<path fill="none" stroke="#63b8ff" d="M2206.04,-509.7C2217.53,-500.4 2230.69,-489.73 2240.99,-481.39"/>
<polygon fill="#63b8ff" stroke="#63b8ff" points="2204.03,-506.83 2198.46,-515.84 2208.43,-512.27 2204.03,-506.83"/>
</g>
<!-- Node3 -->
<g id="node3" class="node">
<title>Node3</title>
<g id="a_node3"><a xlink:href="J3DModel_8h.html" target="_top" xlink:title=" ">
<polygon fill="white" stroke="#666666" points="1908.25,-283 1773.25,-283 1773.25,-253 1908.25,-253 1908.25,-283"/>
<text text-anchor="start" x="1781.25" y="-271" font-family="Helvetica,sans-Serif" font-size="10.00">include/JSystem/J3DGraph</text>
<text text-anchor="middle" x="1840.75" y="-260" font-family="Helvetica,sans-Serif" font-size="10.00">Animator/J3DModel.h</text>
</a>
</g>
</g>
<!-- Node2&#45;&gt;Node3 -->
<g id="edge2" class="edge">
<title>Node2&#45;&gt;Node3</title>
<path fill="none" stroke="#63b8ff" d="M2025.99,-447.35C1971.85,-430.85 1901.47,-400.75 1859.75,-349 1844.43,-330 1841.1,-300.69 1840.58,-283.32"/>
<polygon fill="#63b8ff" stroke="#63b8ff" points="2024.9,-450.68 2035.48,-450.15 2026.88,-443.97 2024.9,-450.68"/>
</g>
<!-- Node119 -->
<g id="node15" class="node">
<title>Node119</title>
<g id="a_node15"><a xlink:href="d__drawlist_8cpp.html" target="_top" xlink:title=" ">
<polygon fill="white" stroke="#666666" points="385.75,-85 281.75,-85 281.75,-66 385.75,-66 385.75,-85"/>
<text text-anchor="middle" x="333.75" y="-73" font-family="Helvetica,sans-Serif" font-size="10.00">src/d/d_drawlist.cpp</text>
</a>
</g>
</g>
<!-- Node2&#45;&gt;Node119 -->
<g id="edge66" class="edge">
<title>Node2&#45;&gt;Node119</title>
<path fill="none" stroke="#63b8ff" d="M2022.52,-463.88C1659.51,-458.22 172.75,-429.3 172.75,-335 172.75,-335 172.75,-335 172.75,-201 172.75,-164.46 166.84,-147.74 191.75,-121 214.74,-96.33 251.19,-85.25 281.4,-80.31"/>
<polygon fill="#63b8ff" stroke="#63b8ff" points="2022.38,-467.37 2032.43,-464.03 2022.49,-460.38 2022.38,-467.37"/>
</g>
<!-- Node290 -->
<g id="node35" class="node">
<title>Node290</title>
<g id="a_node35"><a xlink:href="J3DPacket_8cpp.html" target="_top" xlink:title=" ">
<polygon fill="white" stroke="#666666" points="1767.75,-217 1625.75,-217 1625.75,-187 1767.75,-187 1767.75,-217"/>
<text text-anchor="start" x="1633.75" y="-205" font-family="Helvetica,sans-Serif" font-size="10.00">libs/JSystem/J3DGraphBase</text>
<text text-anchor="middle" x="1696.75" y="-194" font-family="Helvetica,sans-Serif" font-size="10.00">/J3DPacket.cpp</text>
</a>
</g>
</g>
<!-- Node2&#45;&gt;Node290 -->
<g id="edge63" class="edge">
<title>Node2&#45;&gt;Node290</title>
<path fill="none" stroke="#63b8ff" d="M2022.94,-455.79C1983.48,-448.73 1936.09,-436.4 1897.75,-415 1805.86,-363.7 1730.88,-256.28 1705.77,-217.42"/>
<polygon fill="#63b8ff" stroke="#63b8ff" points="2022.18,-459.21 2032.62,-457.43 2023.35,-452.31 2022.18,-459.21"/>
</g>
<!-- Node292 -->
<g id="node37" class="node">
<title>Node292</title>
<g id="a_node37"><a xlink:href="J3DShapeTable_8h.html" target="_top" xlink:title=" ">
<polygon fill="white" stroke="#666666" points="2169.25,-415 2034.25,-415 2034.25,-385 2169.25,-385 2169.25,-415"/>
<text text-anchor="start" x="2042.25" y="-403" font-family="Helvetica,sans-Serif" font-size="10.00">include/JSystem/J3DGraph</text>
<text text-anchor="middle" x="2101.75" y="-392" font-family="Helvetica,sans-Serif" font-size="10.00">Animator/J3DShapeTable.h</text>
</a>
</g>
</g>
<!-- Node2&#45;&gt;Node292 -->
<g id="edge40" class="edge">
<title>Node2&#45;&gt;Node292</title>
<path fill="none" stroke="#63b8ff" d="M2101.75,-439.39C2101.75,-431.13 2101.75,-422.28 2101.75,-415.16"/>
<polygon fill="#63b8ff" stroke="#63b8ff" points="2098.25,-439.28 2101.75,-449.28 2105.25,-439.28 2098.25,-439.28"/>
</g>
<!-- Node329 -->
<g id="node42" class="node">
<title>Node329</title>
<g id="a_node42"><a xlink:href="J3DMaterial_8h.html" target="_top" xlink:title=" ">
<polygon fill="white" stroke="#666666" points="2765.25,-283 2630.25,-283 2630.25,-253 2765.25,-253 2765.25,-283"/>
<text text-anchor="start" x="2638.25" y="-271" font-family="Helvetica,sans-Serif" font-size="10.00">include/JSystem/J3DGraph</text>
<text text-anchor="middle" x="2697.75" y="-260" font-family="Helvetica,sans-Serif" font-size="10.00">Base/J3DMaterial.h</text>
</a>
</g>
</g>
<!-- Node2&#45;&gt;Node329 -->
<g id="edge48" class="edge">
<title>Node2&#45;&gt;Node329</title>
<path fill="none" stroke="#63b8ff" d="M2137.44,-445.11C2170.09,-427.53 2220.1,-402.08 2265.75,-385 2391.21,-338.05 2543.74,-301.7 2629.9,-282.99"/>
<polygon fill="#63b8ff" stroke="#63b8ff" points="2135.93,-441.95 2128.81,-449.8 2139.27,-448.1 2135.93,-441.95"/>
</g>
<!-- Node332 -->
<g id="node48" class="node">
<title>Node332</title>
<g id="a_node48"><a xlink:href="J3DShape_8cpp.html" target="_top" xlink:title=" ">
<polygon fill="white" stroke="#666666" points="2416.75,-415 2274.75,-415 2274.75,-385 2416.75,-385 2416.75,-415"/>
<text text-anchor="start" x="2282.75" y="-403" font-family="Helvetica,sans-Serif" font-size="10.00">libs/JSystem/J3DGraphBase</text>
<text text-anchor="middle" x="2345.75" y="-392" font-family="Helvetica,sans-Serif" font-size="10.00">/J3DShape.cpp</text>
</a>
</g>
</g>
<!-- Node2&#45;&gt;Node332 -->
<g id="edge64" class="edge">
<title>Node2&#45;&gt;Node332</title>
<path fill="none" stroke="#63b8ff" d="M2167.93,-447.64C2206.46,-437.53 2254.47,-424.94 2290.89,-415.39"/>
<polygon fill="#63b8ff" stroke="#63b8ff" points="2167.06,-444.25 2158.28,-450.17 2168.84,-451.02 2167.06,-444.25"/>
</g>
<!-- Node333 -->
<g id="node49" class="node">
<title>Node333</title>
<g id="a_node49"><a xlink:href="J3DShapeFactory_8cpp.html" target="_top" xlink:title=" ">
<polygon fill="white" stroke="#666666" points="2584.25,-415 2435.25,-415 2435.25,-385 2584.25,-385 2584.25,-415"/>
<text text-anchor="start" x="2443.25" y="-403" font-family="Helvetica,sans-Serif" font-size="10.00">libs/JSystem/J3DGraphLoader</text>
<text text-anchor="middle" x="2509.75" y="-392" font-family="Helvetica,sans-Serif" font-size="10.00">/J3DShapeFactory.cpp</text>
</a>
</g>
</g>
<!-- Node2&#45;&gt;Node333 -->
<g id="edge65" class="edge">
<title>Node2&#45;&gt;Node333</title>
<path fill="none" stroke="#63b8ff" d="M2180.93,-450.68C2290.11,-433 2319.67,-431.57 2425.75,-415 2428.82,-414.52 2431.95,-414.03 2435.11,-413.52"/>
<polygon fill="#63b8ff" stroke="#63b8ff" points="2180.55,-447.2 2171.24,-452.26 2181.68,-454.11 2180.55,-447.2"/>
</g>
<!-- Node4 -->
<g id="node4" class="node">
<title>Node4</title>
<g id="a_node4"><a xlink:href="d__jnt__col_8h.html" target="_top" xlink:title=" ">
<polygon fill="white" stroke="#666666" points="526.25,-211.5 421.25,-211.5 421.25,-192.5 526.25,-192.5 526.25,-211.5"/>
<text text-anchor="middle" x="473.75" y="-199.5" font-family="Helvetica,sans-Serif" font-size="10.00">include/d/d_jnt_col.h</text>
</a>
</g>
</g>
<!-- Node3&#45;&gt;Node4 -->
<g id="edge3" class="edge">
<title>Node3&#45;&gt;Node4</title>
<path fill="none" stroke="#63b8ff" d="M1761.77,-263.3C1510.9,-251.56 736.38,-215.3 526.61,-205.47"/>
<polygon fill="#63b8ff" stroke="#63b8ff" points="1761.3,-266.78 1771.45,-263.76 1761.62,-259.79 1761.3,-266.78"/>
</g>
<!-- Node16 -->
<g id="node10" class="node">
<title>Node16</title>
<g id="a_node10"><a xlink:href="d__simple__model_8h.html" target="_top" xlink:title=" ">
<polygon fill="white" stroke="#666666" points="128.75,-217 30.75,-217 30.75,-187 128.75,-187 128.75,-217"/>
<text text-anchor="start" x="38.75" y="-205" font-family="Helvetica,sans-Serif" font-size="10.00">include/d/d_simple</text>
<text text-anchor="middle" x="79.75" y="-194" font-family="Helvetica,sans-Serif" font-size="10.00">_model.h</text>
</a>
</g>
</g>
<!-- Node3&#45;&gt;Node16 -->
<g id="edge9" class="edge">
<title>Node3&#45;&gt;Node16</title>
<path fill="none" stroke="#63b8ff" d="M1761.85,-264.44C1545.83,-257.38 926.56,-236.86 411.75,-217 311.44,-213.13 194.12,-208.05 129.24,-205.2"/>
<polygon fill="#63b8ff" stroke="#63b8ff" points="1761.44,-267.93 1771.54,-264.75 1761.66,-260.93 1761.44,-267.93"/>
</g>
<!-- Node18 -->
<g id="node12" class="node">
<title>Node18</title>
<g id="a_node12"><a xlink:href="m__Do__ext_8h.html" target="_top" xlink:title=" ">
<polygon fill="#fff0f0" stroke="red" points="1607.75,-211.5 1477.75,-211.5 1477.75,-192.5 1607.75,-192.5 1607.75,-211.5"/>
<text text-anchor="middle" x="1542.75" y="-199.5" font-family="Helvetica,sans-Serif" font-size="10.00">include/m_Do/m_Do_ext.h</text>
</a>
</g>
</g>
<!-- Node3&#45;&gt;Node18 -->
<g id="edge12" class="edge">
<title>Node3&#45;&gt;Node18</title>
<path fill="none" stroke="#63b8ff" d="M1762.36,-250.16C1705.36,-237.92 1630.44,-221.83 1584.48,-211.96"/>
<polygon fill="#63b8ff" stroke="#63b8ff" points="1761.51,-253.56 1772.02,-252.24 1762.98,-246.72 1761.51,-253.56"/>
</g>
<!-- Node288 -->
<g id="node33" class="node">
<title>Node288</title>
<g id="a_node33"><a xlink:href="J3DJoint_8cpp.html" target="_top" xlink:title=" ">
<polygon fill="white" stroke="#666666" points="2103.75,-217 1945.75,-217 1945.75,-187 2103.75,-187 2103.75,-217"/>
<text text-anchor="start" x="1953.75" y="-205" font-family="Helvetica,sans-Serif" font-size="10.00">libs/JSystem/J3DGraphAnimator</text>
<text text-anchor="middle" x="2024.75" y="-194" font-family="Helvetica,sans-Serif" font-size="10.00">/J3DJoint.cpp</text>
</a>
</g>
</g>
<!-- Node3&#45;&gt;Node288 -->
<g id="edge36" class="edge">
<title>Node3&#45;&gt;Node288</title>
<path fill="none" stroke="#63b8ff" d="M1892.68,-248.94C1921.35,-238.97 1956.46,-226.75 1983.28,-217.43"/>
<polygon fill="#63b8ff" stroke="#63b8ff" points="1891.77,-245.55 1883.47,-252.14 1894.07,-252.16 1891.77,-245.55"/>
</g>
<!-- Node289 -->
<g id="node34" class="node">
<title>Node289</title>
<g id="a_node34"><a xlink:href="J3DModel_8cpp.html" target="_top" xlink:title=" ">
<polygon fill="white" stroke="#666666" points="2279.75,-217 2121.75,-217 2121.75,-187 2279.75,-187 2279.75,-217"/>
<text text-anchor="start" x="2129.75" y="-205" font-family="Helvetica,sans-Serif" font-size="10.00">libs/JSystem/J3DGraphAnimator</text>
<text text-anchor="middle" x="2200.75" y="-194" font-family="Helvetica,sans-Serif" font-size="10.00">/J3DModel.cpp</text>
</a>
</g>
</g>
<!-- Node3&#45;&gt;Node289 -->
<g id="edge37" class="edge">
<title>Node3&#45;&gt;Node289</title>
<path fill="none" stroke="#63b8ff" d="M1919.75,-252.96C1979.6,-242.32 2061.48,-227.76 2121.42,-217.1"/>
<polygon fill="#63b8ff" stroke="#63b8ff" points="1919.19,-249.5 1909.95,-254.7 1920.41,-256.39 1919.19,-249.5"/>
</g>
<!-- Node3&#45;&gt;Node290 -->
<g id="edge38" class="edge">
<title>Node3&#45;&gt;Node290</title>
<path fill="none" stroke="#63b8ff" d="M1797.98,-247.99C1775.86,-238.16 1749.32,-226.36 1728.96,-217.31"/>
<polygon fill="#63b8ff" stroke="#63b8ff" points="1796.49,-251.16 1807.05,-252.02 1799.33,-244.76 1796.49,-251.16"/>
</g>
<!-- Node291 -->
<g id="node36" class="node">
<title>Node291</title>
<g id="a_node36"><a xlink:href="J3DShapeMtx_8cpp.html" target="_top" xlink:title=" ">
<polygon fill="white" stroke="#666666" points="1927.75,-217 1785.75,-217 1785.75,-187 1927.75,-187 1927.75,-217"/>
<text text-anchor="start" x="1793.75" y="-205" font-family="Helvetica,sans-Serif" font-size="10.00">libs/JSystem/J3DGraphBase</text>
<text text-anchor="middle" x="1856.75" y="-194" font-family="Helvetica,sans-Serif" font-size="10.00">/J3DShapeMtx.cpp</text>
</a>
</g>
</g>
<!-- Node3&#45;&gt;Node291 -->
<g id="edge39" class="edge">
<title>Node3&#45;&gt;Node291</title>
<path fill="none" stroke="#63b8ff" d="M1847.08,-241.68C1849.17,-233.34 1851.41,-224.37 1853.21,-217.16"/>
<polygon fill="#63b8ff" stroke="#63b8ff" points="1843.7,-240.78 1844.67,-251.33 1850.49,-242.48 1843.7,-240.78"/>
</g>
<!-- Node5 -->
<g id="node5" class="node">
<title>Node5</title>
<g id="a_node5"><a xlink:href="d__a__alink_8h.html" target="_top" xlink:title=" ">
<polygon fill="#fff0f0" stroke="red" points="1482.75,-85 1366.75,-85 1366.75,-66 1482.75,-66 1482.75,-85"/>
<text text-anchor="middle" x="1424.75" y="-73" font-family="Helvetica,sans-Serif" font-size="10.00">include/d/a/d_a_alink.h</text>
</a>
</g>
</g>
<!-- Node4&#45;&gt;Node5 -->
<g id="edge4" class="edge">
<title>Node4&#45;&gt;Node5</title>
<path fill="none" stroke="#63b8ff" d="M499.98,-186.57C516.83,-177.02 538.99,-163.9 557.75,-151 575.48,-138.8 575.62,-128.6 595.75,-121 667.26,-94.01 1189.45,-81.19 1366.35,-77.59"/>
<polygon fill="#63b8ff" stroke="#63b8ff" points="498.58,-183.34 491.57,-191.29 502,-189.45 498.58,-183.34"/>
</g>
<!-- Node14 -->
<g id="node8" class="node">
<title>Node14</title>
<g id="a_node8"><a xlink:href="d__cc__s_8cpp.html" target="_top" xlink:title=" ">
<polygon fill="white" stroke="#666666" points="304.75,-145.5 200.75,-145.5 200.75,-126.5 304.75,-126.5 304.75,-145.5"/>
<text text-anchor="middle" x="252.75" y="-133.5" font-family="Helvetica,sans-Serif" font-size="10.00">src/d/cc/d_cc_s.cpp</text>
</a>
</g>
</g>
<!-- Node4&#45;&gt;Node14 -->
<g id="edge7" class="edge">
<title>Node4&#45;&gt;Node14</title>
<path fill="none" stroke="#63b8ff" d="M432.03,-188.92C388.8,-176.4 322.27,-157.13 283.57,-145.93"/>
<polygon fill="#63b8ff" stroke="#63b8ff" points="430.99,-192.26 441.57,-191.68 432.94,-185.54 430.99,-192.26"/>
</g>
<!-- Node15 -->
<g id="node9" class="node">
<title>Node15</title>
<g id="a_node9"><a xlink:href="d__jnt__col_8cpp.html" target="_top" xlink:title=" ">
<polygon fill="white" stroke="#666666" points="420.75,-145.5 322.75,-145.5 322.75,-126.5 420.75,-126.5 420.75,-145.5"/>
<text text-anchor="middle" x="371.75" y="-133.5" font-family="Helvetica,sans-Serif" font-size="10.00">src/d/d_jnt_col.cpp</text>
</a>
</g>
</g>
<!-- Node4&#45;&gt;Node15 -->
<g id="edge8" class="edge">
<title>Node4&#45;&gt;Node15</title>
<path fill="none" stroke="#63b8ff" d="M449.98,-186.08C430.08,-173.6 402.35,-156.2 385.81,-145.82"/>
<polygon fill="#63b8ff" stroke="#63b8ff" points="447.96,-188.95 458.29,-191.3 451.68,-183.02 447.96,-188.95"/>
</g>
<!-- Node6 -->
<g id="node6" class="node">
<title>Node6</title>
<g id="a_node6"><a xlink:href="d__a__alink_8cpp.html" target="_top" xlink:title=" ">
<polygon fill="white" stroke="#666666" points="2526.25,-24.5 2417.25,-24.5 2417.25,-5.5 2526.25,-5.5 2526.25,-24.5"/>
<text text-anchor="middle" x="2471.75" y="-12.5" font-family="Helvetica,sans-Serif" font-size="10.00">src/d/a/d_a_alink.cpp</text>
</a>
</g>
</g>
<!-- Node5&#45;&gt;Node6 -->
<g id="edge5" class="edge">
<title>Node5&#45;&gt;Node6</title>
<path fill="none" stroke="#63b8ff" d="M1494.15,-70.62C1689.47,-59.71 2241.07,-28.89 2417.06,-19.06"/>
<polygon fill="#63b8ff" stroke="#63b8ff" points="1494.21,-67.11 1484.42,-71.17 1494.6,-74.1 1494.21,-67.11"/>
</g>
<!-- Node8 -->
<g id="node7" class="node">
<title>Node8</title>
<g id="a_node7"><a xlink:href="d__com__inf__game_8cpp.html" target="_top" xlink:title=" ">
<polygon fill="white" stroke="#666666" points="1478.75,-30 1370.75,-30 1370.75,0 1478.75,0 1478.75,-30"/>
<text text-anchor="start" x="1378.75" y="-18" font-family="Helvetica,sans-Serif" font-size="10.00">src/d/com/d_com_inf</text>
<text text-anchor="middle" x="1424.75" y="-7" font-family="Helvetica,sans-Serif" font-size="10.00">_game.cpp</text>
</a>
</g>
</g>
<!-- Node5&#45;&gt;Node8 -->
<g id="edge6" class="edge">
<title>Node5&#45;&gt;Node8</title>
<path fill="none" stroke="#63b8ff" d="M1424.75,-54.51C1424.75,-46.49 1424.75,-37.43 1424.75,-30.11"/>
<polygon fill="#63b8ff" stroke="#63b8ff" points="1421.25,-54.35 1424.75,-64.35 1428.25,-54.35 1421.25,-54.35"/>
</g>
<!-- Node16&#45;&gt;Node8 -->
<g id="edge10" class="edge">
<title>Node16&#45;&gt;Node8</title>
<path fill="none" stroke="#63b8ff" d="M40.29,-180.91C14.45,-165.1 -11.58,-142.26 5.75,-121 93.44,-13.41 1120.87,-13.8 1370.4,-15.5"/>
<polygon fill="#63b8ff" stroke="#63b8ff" points="38.38,-183.85 48.79,-185.85 41.9,-177.79 38.38,-183.85"/>
</g>
<!-- Node17 -->
<g id="node11" class="node">
<title>Node17</title>
<g id="a_node11"><a xlink:href="d__simple__model_8cpp.html" target="_top" xlink:title=" ">
<polygon fill="white" stroke="#666666" points="144.75,-145.5 14.75,-145.5 14.75,-126.5 144.75,-126.5 144.75,-145.5"/>
<text text-anchor="middle" x="79.75" y="-133.5" font-family="Helvetica,sans-Serif" font-size="10.00">src/d/d_simple_model.cpp</text>
</a>
</g>
</g>
<!-- Node16&#45;&gt;Node17 -->
<g id="edge11" class="edge">
<title>Node16&#45;&gt;Node17</title>
<path fill="none" stroke="#63b8ff" d="M79.75,-175.59C79.75,-165.06 79.75,-153.53 79.75,-145.84"/>
<polygon fill="#63b8ff" stroke="#63b8ff" points="76.25,-175.28 79.75,-185.28 83.25,-175.28 76.25,-175.28"/>
</g>
<!-- Node19 -->
<g id="node13" class="node">
<title>Node19</title>
<g id="a_node13"><a xlink:href="d__attention_8h.html" target="_top" xlink:title=" ">
<polygon fill="#fff0f0" stroke="red" points="1481.75,-145.5 1367.75,-145.5 1367.75,-126.5 1481.75,-126.5 1481.75,-145.5"/>
<text text-anchor="middle" x="1424.75" y="-133.5" font-family="Helvetica,sans-Serif" font-size="10.00">include/d/d_attention.h</text>
</a>
</g>
</g>
<!-- Node18&#45;&gt;Node19 -->
<g id="edge13" class="edge">
<title>Node18&#45;&gt;Node19</title>
<path fill="none" stroke="#63b8ff" d="M1516.5,-186.76C1493.41,-174.24 1460.51,-156.39 1441.02,-145.82"/>
<polygon fill="#63b8ff" stroke="#63b8ff" points="1514.55,-189.69 1525.01,-191.38 1517.89,-183.54 1514.55,-189.69"/>
</g>
<!-- Node170 -->
<g id="node14" class="node">
<title>Node170</title>
<g id="a_node14"><a xlink:href="d__drawlist_8h.html" target="_top" xlink:title=" ">
<polygon fill="#fff0f0" stroke="red" points="548.75,-145.5 438.75,-145.5 438.75,-126.5 548.75,-126.5 548.75,-145.5"/>
<text text-anchor="middle" x="493.75" y="-133.5" font-family="Helvetica,sans-Serif" font-size="10.00">include/d/d_drawlist.h</text>
</a>
</g>
</g>
<!-- Node18&#45;&gt;Node170 -->
<g id="edge15" class="edge">
<title>Node18&#45;&gt;Node170</title>
<path fill="none" stroke="#63b8ff" d="M1466.24,-199.13C1304.98,-194.71 918.47,-181.61 595.75,-151 580.63,-149.57 564.3,-147.54 549.24,-145.47"/>
<polygon fill="#63b8ff" stroke="#63b8ff" points="1465.85,-202.62 1475.94,-199.39 1466.04,-195.62 1465.85,-202.62"/>
</g>
<!-- Node213 -->
<g id="node16" class="node">
<title>Node213</title>
<g id="a_node16"><a xlink:href="d__ky__thunder_8h.html" target="_top" xlink:title=" ">
<polygon fill="#fff0f0" stroke="red" points="2112.75,-145.5 1988.75,-145.5 1988.75,-126.5 2112.75,-126.5 2112.75,-145.5"/>
<text text-anchor="middle" x="2050.75" y="-133.5" font-family="Helvetica,sans-Serif" font-size="10.00">include/d/d_ky_thunder.h</text>
</a>
</g>
</g>
<!-- Node18&#45;&gt;Node213 -->
<g id="edge17" class="edge">
<title>Node18&#45;&gt;Node213</title>
<path fill="none" stroke="#63b8ff" d="M1597.34,-190.11C1603.87,-188.98 1610.45,-187.91 1616.75,-187 1776.78,-163.95 1818.78,-174.46 1978.75,-151 1988.33,-149.6 1998.56,-147.79 2008.22,-145.95"/>
<polygon fill="#63b8ff" stroke="#63b8ff" points="1597.18,-186.58 1587.96,-191.8 1598.42,-193.47 1597.18,-186.58"/>
</g>
<!-- Node214 -->
<g id="node17" class="node">
<title>Node214</title>
<g id="a_node17"><a xlink:href="d__resorce_8h.html" target="_top" xlink:title=" ">
<polygon fill="#fff0f0" stroke="red" points="2240.25,-145.5 2131.25,-145.5 2131.25,-126.5 2240.25,-126.5 2240.25,-145.5"/>
<text text-anchor="middle" x="2185.75" y="-133.5" font-family="Helvetica,sans-Serif" font-size="10.00">include/d/d_resorce.h</text>
</a>
</g>
</g>
<!-- Node18&#45;&gt;Node214 -->
<g id="edge18" class="edge">
<title>Node18&#45;&gt;Node214</title>
<path fill="none" stroke="#63b8ff" d="M1596.8,-190.03C1603.5,-188.89 1610.27,-187.84 1616.75,-187 1839.89,-158.04 1899.04,-183.13 2121.75,-151 2130.64,-149.72 2140.14,-147.89 2149.03,-145.98"/>
<polygon fill="#63b8ff" stroke="#63b8ff" points="1596.38,-186.55 1587.15,-191.75 1597.61,-193.44 1596.38,-186.55"/>
</g>
<!-- Node215 -->
<g id="node19" class="node">
<title>Node215</title>
<g id="a_node19"><a xlink:href="d__kankyo_8h.html" target="_top" xlink:title=" ">
<polygon fill="#fff0f0" stroke="red" points="2823.75,-151 2725.75,-151 2725.75,-121 2823.75,-121 2823.75,-151"/>
<text text-anchor="start" x="2733.75" y="-139" font-family="Helvetica,sans-Serif" font-size="10.00">include/d/kankyo/d</text>
<text text-anchor="middle" x="2774.75" y="-128" font-family="Helvetica,sans-Serif" font-size="10.00">_kankyo.h</text>
</a>
</g>
</g>
<!-- Node18&#45;&gt;Node215 -->
<g id="edge20" class="edge">
<title>Node18&#45;&gt;Node215</title>
<path fill="none" stroke="#63b8ff" d="M1595.23,-190.06C1602.44,-188.85 1609.76,-187.78 1616.75,-187 2067.13,-136.74 2183.62,-181.72 2635.75,-151 2665.51,-148.98 2698.77,-145.67 2725.28,-142.77"/>
<polygon fill="#63b8ff" stroke="#63b8ff" points="1594.79,-186.58 1585.56,-191.77 1596.02,-193.47 1594.79,-186.58"/>
</g>
<!-- Node279 -->
<g id="node21" class="node">
<title>Node279</title>
<g id="a_node21"><a xlink:href="m__Do__ext_8cpp.html" target="_top" xlink:title=" ">
<polygon fill="white" stroke="#666666" points="2746.25,-85 2623.25,-85 2623.25,-66 2746.25,-66 2746.25,-85"/>
<text text-anchor="middle" x="2684.75" y="-73" font-family="Helvetica,sans-Serif" font-size="10.00">src/m_Do/m_Do_ext.cpp</text>
</a>
</g>
</g>
<!-- Node18&#45;&gt;Node279 -->
<g id="edge33" class="edge">
<title>Node18&#45;&gt;Node279</title>
<path fill="none" stroke="#63b8ff" d="M1595.23,-190.06C1602.44,-188.86 1609.76,-187.78 1616.75,-187 1725.7,-174.78 2501.23,-192.38 2602.75,-151 2637.13,-136.99 2666.28,-101.76 2678.54,-85.27"/>
<polygon fill="#63b8ff" stroke="#63b8ff" points="1594.79,-186.59 1585.56,-191.78 1596.02,-193.48 1594.79,-186.59"/>
</g>
<!-- Node174 -->
<g id="node22" class="node">
<title>Node174</title>
<g id="a_node22"><a xlink:href="d__a__do_8h.html" target="_top" xlink:title=" ">
<polygon fill="white" stroke="#666666" points="2354.75,-151 2258.75,-151 2258.75,-121 2354.75,-121 2354.75,-151"/>
<text text-anchor="start" x="2266.75" y="-139" font-family="Helvetica,sans-Serif" font-size="10.00">include/rel/d/a/d_a</text>
<text text-anchor="middle" x="2306.75" y="-128" font-family="Helvetica,sans-Serif" font-size="10.00">_do/d_a_do.h</text>
</a>
</g>
</g>
<!-- Node18&#45;&gt;Node174 -->
<g id="edge24" class="edge">
<title>Node18&#45;&gt;Node174</title>
<path fill="none" stroke="#63b8ff" d="M1596.03,-190.07C1602.98,-188.89 1610.02,-187.83 1616.75,-187 1896.01,-152.78 1970.44,-192.17 2248.75,-151 2251.93,-150.53 2255.19,-149.97 2258.46,-149.34"/>
<polygon fill="#63b8ff" stroke="#63b8ff" points="1595.59,-186.59 1586.36,-191.79 1596.81,-193.48 1595.59,-186.59"/>
</g>
<!-- Node280 -->
<g id="node23" class="node">
<title>Node280</title>
<g id="a_node23"><a xlink:href="DynamicLink_8cpp.html" target="_top" xlink:title=" ">
<polygon fill="white" stroke="#666666" points="2480.25,-145.5 2373.25,-145.5 2373.25,-126.5 2480.25,-126.5 2480.25,-145.5"/>
<text text-anchor="middle" x="2426.75" y="-133.5" font-family="Helvetica,sans-Serif" font-size="10.00">src/DynamicLink.cpp</text>
</a>
</g>
</g>
<!-- Node18&#45;&gt;Node280 -->
<g id="edge25" class="edge">
<title>Node18&#45;&gt;Node280</title>
<path fill="none" stroke="#63b8ff" d="M1595.76,-190.05C1602.79,-188.87 1609.93,-187.81 1616.75,-187 1946.84,-148.01 2034.32,-195.21 2363.75,-151 2372.75,-149.79 2382.36,-147.95 2391.29,-145.99"/>
<polygon fill="#63b8ff" stroke="#63b8ff" points="1595.19,-186.6 1585.96,-191.79 1596.42,-193.49 1595.19,-186.6"/>
</g>
<!-- Node109 -->
<g id="node24" class="node">
<title>Node109</title>
<g id="a_node24"><a xlink:href="c__dylink_8cpp.html" target="_top" xlink:title=" ">
<polygon fill="white" stroke="#666666" points="2593.25,-145.5 2498.25,-145.5 2498.25,-126.5 2593.25,-126.5 2593.25,-145.5"/>
<text text-anchor="middle" x="2545.75" y="-133.5" font-family="Helvetica,sans-Serif" font-size="10.00">src/c/c_dylink.cpp</text>
</a>
</g>
</g>
<!-- Node18&#45;&gt;Node109 -->
<g id="edge26" class="edge">
<title>Node18&#45;&gt;Node109</title>
<path fill="none" stroke="#63b8ff" d="M1595.75,-190.01C1602.79,-188.83 1609.93,-187.78 1616.75,-187 2002.56,-142.79 2105.39,-206.38 2489.75,-151 2497.88,-149.83 2506.55,-147.97 2514.58,-145.99"/>
<polygon fill="#63b8ff" stroke="#63b8ff" points="1595.19,-186.55 1585.95,-191.74 1596.41,-193.45 1595.19,-186.55"/>
</g>
<!-- Node281 -->
<g id="node25" class="node">
<title>Node281</title>
<g id="a_node25"><a xlink:href="d__pane__class_8cpp.html" target="_top" xlink:title=" ">
<polygon fill="white" stroke="#666666" points="748.25,-145.5 605.25,-145.5 605.25,-126.5 748.25,-126.5 748.25,-145.5"/>
<text text-anchor="middle" x="676.75" y="-133.5" font-family="Helvetica,sans-Serif" font-size="10.00">src/d/pane/d_pane_class.cpp</text>
</a>
</g>
</g>
<!-- Node18&#45;&gt;Node281 -->
<g id="edge27" class="edge">
<title>Node18&#45;&gt;Node281</title>
<path fill="none" stroke="#63b8ff" d="M1465.83,-198.91C1324.81,-194.45 1015.6,-181.79 756.75,-151 745.69,-149.68 733.84,-147.85 722.73,-145.94"/>
<polygon fill="#63b8ff" stroke="#63b8ff" points="1465.7,-202.4 1475.8,-199.22 1465.92,-195.41 1465.7,-202.4"/>
</g>
<!-- Node282 -->
<g id="node26" class="node">
<title>Node282</title>
<g id="a_node26"><a xlink:href="d__pane__class__alpha_8cpp.html" target="_top" xlink:title=" ">
<polygon fill="white" stroke="#666666" points="891.25,-151 766.25,-151 766.25,-121 891.25,-121 891.25,-151"/>
<text text-anchor="start" x="774.25" y="-139" font-family="Helvetica,sans-Serif" font-size="10.00">src/d/pane/d_pane_class</text>
<text text-anchor="middle" x="828.75" y="-128" font-family="Helvetica,sans-Serif" font-size="10.00">_alpha.cpp</text>
</a>
</g>
</g>
<!-- Node18&#45;&gt;Node282 -->
<g id="edge28" class="edge">
<title>Node18&#45;&gt;Node282</title>
<path fill="none" stroke="#63b8ff" d="M1466.38,-197.96C1345.63,-192.5 1103.4,-178.9 899.75,-151 897.01,-150.62 894.22,-150.21 891.4,-149.77"/>
<polygon fill="#63b8ff" stroke="#63b8ff" points="1466.02,-201.45 1476.17,-198.39 1466.34,-194.45 1466.02,-201.45"/>
</g>
<!-- Node102 -->
<g id="node27" class="node">
<title>Node102</title>
<g id="a_node27"><a xlink:href="f__op__actor__mng_8cpp.html" target="_top" xlink:title=" ">
<polygon fill="white" stroke="#666666" points="1010.25,-151 909.25,-151 909.25,-121 1010.25,-121 1010.25,-151"/>
<text text-anchor="start" x="917.25" y="-139" font-family="Helvetica,sans-Serif" font-size="10.00">src/f_op/f_op_actor</text>
<text text-anchor="middle" x="959.75" y="-128" font-family="Helvetica,sans-Serif" font-size="10.00">_mng.cpp</text>
</a>
</g>
</g>
<!-- Node18&#45;&gt;Node102 -->
<g id="edge29" class="edge">
<title>Node18&#45;&gt;Node102</title>
<path fill="none" stroke="#63b8ff" d="M1465.97,-197C1363.47,-190.89 1176.53,-177.12 1018.75,-151 1016.05,-150.55 1013.29,-150.05 1010.51,-149.51"/>
<polygon fill="#63b8ff" stroke="#63b8ff" points="1465.74,-200.49 1475.92,-197.58 1466.14,-193.5 1465.74,-200.49"/>
</g>
<!-- Node283 -->
<g id="node28" class="node">
<title>Node283</title>
<g id="a_node28"><a xlink:href="m__Do__DVDError_8cpp.html" target="_top" xlink:title=" ">
<polygon fill="white" stroke="#666666" points="1179.25,-145.5 1028.25,-145.5 1028.25,-126.5 1179.25,-126.5 1179.25,-145.5"/>
<text text-anchor="middle" x="1103.75" y="-133.5" font-family="Helvetica,sans-Serif" font-size="10.00">src/m_Do/m_Do_DVDError.cpp</text>
</a>
</g>
</g>
<!-- Node18&#45;&gt;Node283 -->
<g id="edge30" class="edge">
<title>Node18&#45;&gt;Node283</title>
<path fill="none" stroke="#63b8ff" d="M1466.26,-190.71C1394.52,-180.94 1284.26,-165.61 1188.75,-151 1178.55,-149.44 1167.67,-147.7 1157.23,-146"/>
<polygon fill="#63b8ff" stroke="#63b8ff" points="1465.56,-194.15 1475.94,-192.03 1466.5,-187.21 1465.56,-194.15"/>
</g>
<!-- Node284 -->
<g id="node29" class="node">
<title>Node284</title>
<g id="a_node29"><a xlink:href="m__Do__MemCard_8cpp.html" target="_top" xlink:title=" ">
<polygon fill="white" stroke="#666666" points="1349.75,-145.5 1197.75,-145.5 1197.75,-126.5 1349.75,-126.5 1349.75,-145.5"/>
<text text-anchor="middle" x="1273.75" y="-133.5" font-family="Helvetica,sans-Serif" font-size="10.00">src/m_Do/m_Do_MemCard.cpp</text>
</a>
</g>
</g>
<!-- Node18&#45;&gt;Node284 -->
<g id="edge31" class="edge">
<title>Node18&#45;&gt;Node284</title>
<path fill="none" stroke="#63b8ff" d="M1494,-189.4C1441.43,-176.89 1358.88,-157.25 1311.18,-145.91"/>
<polygon fill="#63b8ff" stroke="#63b8ff" points="1493.05,-192.77 1503.59,-191.68 1494.67,-185.96 1493.05,-192.77"/>
</g>
<!-- Node285 -->
<g id="node30" class="node">
<title>Node285</title>
<g id="a_node30"><a xlink:href="m__Do__dvd__thread_8cpp.html" target="_top" xlink:title=" ">
<polygon fill="white" stroke="#666666" points="1657.75,-145.5 1499.75,-145.5 1499.75,-126.5 1657.75,-126.5 1657.75,-145.5"/>
<text text-anchor="middle" x="1578.75" y="-133.5" font-family="Helvetica,sans-Serif" font-size="10.00">src/m_Do/m_Do_dvd_thread.cpp</text>
</a>
</g>
</g>
<!-- Node18&#45;&gt;Node285 -->
<g id="edge32" class="edge">
<title>Node18&#45;&gt;Node285</title>
<path fill="none" stroke="#63b8ff" d="M1553.35,-182.16C1560.1,-170.16 1568.54,-155.15 1573.79,-145.82"/>
<polygon fill="#63b8ff" stroke="#63b8ff" points="1550.35,-180.35 1548.5,-190.78 1556.45,-183.78 1550.35,-180.35"/>
</g>
<!-- Node286 -->
<g id="node31" class="node">
<title>Node286</title>
<g id="a_node31"><a xlink:href="m__Do__machine_8cpp.html" target="_top" xlink:title=" ">
<polygon fill="white" stroke="#666666" points="1823.25,-145.5 1676.25,-145.5 1676.25,-126.5 1823.25,-126.5 1823.25,-145.5"/>
<text text-anchor="middle" x="1749.75" y="-133.5" font-family="Helvetica,sans-Serif" font-size="10.00">src/m_Do/m_Do_machine.cpp</text>
</a>
</g>
</g>
<!-- Node18&#45;&gt;Node286 -->
<g id="edge34" class="edge">
<title>Node18&#45;&gt;Node286</title>
<path fill="none" stroke="#63b8ff" d="M1582.35,-188.76C1622.85,-176.24 1684.79,-157.08 1720.88,-145.93"/>
<polygon fill="#63b8ff" stroke="#63b8ff" points="1581.5,-185.36 1572.98,-191.65 1583.57,-192.04 1581.5,-185.36"/>
</g>
<!-- Node165 -->
<g id="node32" class="node">
<title>Node165</title>
<g id="a_node32"><a xlink:href="m__Do__machine__exception_8cpp.html" target="_top" xlink:title=" ">
<polygon fill="white" stroke="#666666" points="1970.25,-151 1841.25,-151 1841.25,-121 1970.25,-121 1970.25,-151"/>
<text text-anchor="start" x="1849.25" y="-139" font-family="Helvetica,sans-Serif" font-size="10.00">src/m_Do/m_Do_machine</text>
<text text-anchor="middle" x="1905.75" y="-128" font-family="Helvetica,sans-Serif" font-size="10.00">_exception.cpp</text>
</a>
</g>
</g>
<!-- Node18&#45;&gt;Node165 -->
<g id="edge35" class="edge">
<title>Node18&#45;&gt;Node165</title>
<path fill="none" stroke="#63b8ff" d="M1600.51,-189.95C1606,-188.94 1611.48,-187.94 1616.75,-187 1712.13,-169.99 1736.37,-168.01 1831.75,-151 1834.71,-150.47 1837.74,-149.93 1840.79,-149.37"/>
<polygon fill="#63b8ff" stroke="#63b8ff" points="1599.98,-186.49 1590.79,-191.76 1601.26,-193.37 1599.98,-186.49"/>
</g>
<!-- Node19&#45;&gt;Node5 -->
<g id="edge14" class="edge">
<title>Node19&#45;&gt;Node5</title>
<path fill="none" stroke="#63b8ff" d="M1424.75,-115.16C1424.75,-104.95 1424.75,-93.04 1424.75,-85.17"/>
<polygon fill="#63b8ff" stroke="#63b8ff" points="1421.25,-114.85 1424.75,-124.85 1428.25,-114.85 1421.25,-114.85"/>
</g>
<!-- Node170&#45;&gt;Node119 -->
<g id="edge16" class="edge">
<title>Node170&#45;&gt;Node119</title>
<path fill="none" stroke="#63b8ff" d="M458.89,-122.25C428.49,-111.14 385.16,-95.3 358.28,-85.47"/>
<polygon fill="#63b8ff" stroke="#63b8ff" points="457.43,-125.45 468.03,-125.6 459.84,-118.87 457.43,-125.45"/>
</g>
<!-- Node130 -->
<g id="node18" class="node">
<title>Node130</title>
<g id="a_node18"><a xlink:href="d__resorce_8cpp.html" target="_top" xlink:title=" ">
<polygon fill="white" stroke="#666666" points="2420.75,-85 2318.75,-85 2318.75,-66 2420.75,-66 2420.75,-85"/>
<text text-anchor="middle" x="2369.75" y="-73" font-family="Helvetica,sans-Serif" font-size="10.00">src/d/d_resorce.cpp</text>
</a>
</g>
</g>
<!-- Node214&#45;&gt;Node130 -->
<g id="edge19" class="edge">
<title>Node214&#45;&gt;Node130</title>
<path fill="none" stroke="#63b8ff" d="M2224.47,-122.69C2259.49,-111.56 2310.23,-95.42 2341.54,-85.47"/>
<polygon fill="#63b8ff" stroke="#63b8ff" points="2223.61,-119.29 2215.14,-125.66 2225.73,-125.96 2223.61,-119.29"/>
</g>
<!-- Node215&#45;&gt;Node8 -->
<g id="edge21" class="edge">
<title>Node215&#45;&gt;Node8</title>
<path fill="none" stroke="#63b8ff" d="M2774.76,-109.48C2773.3,-94.36 2768.66,-76.23 2755.75,-66 2704.97,-25.78 1722.92,-17.66 1479.15,-16.26"/>
<polygon fill="#63b8ff" stroke="#63b8ff" points="2771.26,-109.43 2775.28,-119.23 2778.25,-109.06 2771.26,-109.43"/>
</g>
<!-- Node127 -->
<g id="node20" class="node">
<title>Node127</title>
<g id="a_node20"><a xlink:href="d__model_8cpp.html" target="_top" xlink:title=" ">
<polygon fill="white" stroke="#666666" points="3225.75,-85 3129.75,-85 3129.75,-66 3225.75,-66 3225.75,-85"/>
<text text-anchor="middle" x="3177.75" y="-73" font-family="Helvetica,sans-Serif" font-size="10.00">src/d/d_model.cpp</text>
</a>
</g>
</g>
<!-- Node215&#45;&gt;Node127 -->
<g id="edge22" class="edge">
<title>Node215&#45;&gt;Node127</title>
<path fill="none" stroke="#63b8ff" d="M2835.09,-126.24C2915.4,-114.58 3055.83,-94.2 3129.5,-83.5"/>
<polygon fill="#63b8ff" stroke="#63b8ff" points="2835.06,-122.71 2825.66,-127.61 2836.06,-129.64 2835.06,-122.71"/>
</g>
<!-- Node215&#45;&gt;Node279 -->
<g id="edge23" class="edge">
<title>Node215&#45;&gt;Node279</title>
<path fill="none" stroke="#63b8ff" d="M2742.87,-114.28C2727.6,-104.35 2710.13,-93 2698.36,-85.35"/>
<polygon fill="#63b8ff" stroke="#63b8ff" points="2740.94,-117.2 2751.23,-119.71 2744.76,-111.33 2740.94,-117.2"/>
</g>
<!-- Node293 -->
<g id="node38" class="node">
<title>Node293</title>
<g id="a_node38"><a xlink:href="J3DModelData_8h.html" target="_top" xlink:title=" ">
<polygon fill="#fff0f0" stroke="red" points="2004.25,-349 1869.25,-349 1869.25,-319 2004.25,-319 2004.25,-349"/>
<text text-anchor="start" x="1877.25" y="-337" font-family="Helvetica,sans-Serif" font-size="10.00">include/JSystem/J3DGraph</text>
<text text-anchor="middle" x="1936.75" y="-326" font-family="Helvetica,sans-Serif" font-size="10.00">Animator/J3DModelData.h</text>
</a>
</g>
</g>
<!-- Node292&#45;&gt;Node293 -->
<g id="edge41" class="edge">
<title>Node292&#45;&gt;Node293</title>
<path fill="none" stroke="#63b8ff" d="M2054.16,-380.54C2028.64,-370.64 1997.67,-358.63 1973.94,-349.43"/>
<polygon fill="#63b8ff" stroke="#63b8ff" points="2052.72,-383.74 2063.31,-384.09 2055.25,-377.21 2052.72,-383.74"/>
</g>
<!-- Node327 -->
<g id="node40" class="node">
<title>Node327</title>
<g id="a_node40"><a xlink:href="J3DJointTree_8cpp.html" target="_top" xlink:title=" ">
<polygon fill="white" stroke="#666666" points="2631.75,-217 2473.75,-217 2473.75,-187 2631.75,-187 2631.75,-217"/>
<text text-anchor="start" x="2481.75" y="-205" font-family="Helvetica,sans-Serif" font-size="10.00">libs/JSystem/J3DGraphAnimator</text>
<text text-anchor="middle" x="2552.75" y="-194" font-family="Helvetica,sans-Serif" font-size="10.00">/J3DJointTree.cpp</text>
</a>
</g>
</g>
<!-- Node292&#45;&gt;Node327 -->
<g id="edge46" class="edge">
<title>Node292&#45;&gt;Node327</title>
<path fill="none" stroke="#63b8ff" d="M2138.7,-379C2154.61,-370.14 2173.29,-359.38 2189.75,-349 2209.46,-336.56 2212.06,-329.73 2232.75,-319 2322.45,-272.48 2435.1,-236.35 2500.01,-217.49"/>
<polygon fill="#63b8ff" stroke="#63b8ff" points="2137.08,-375.9 2130.02,-383.8 2140.47,-382.03 2137.08,-375.9"/>
</g>
<!-- Node328 -->
<g id="node41" class="node">
<title>Node328</title>
<g id="a_node41"><a xlink:href="J3DShapeTable_8cpp.html" target="_top" xlink:title=" ">
<polygon fill="white" stroke="#666666" points="2180.75,-349 2022.75,-349 2022.75,-319 2180.75,-319 2180.75,-349"/>
<text text-anchor="start" x="2030.75" y="-337" font-family="Helvetica,sans-Serif" font-size="10.00">libs/JSystem/J3DGraphAnimator</text>
<text text-anchor="middle" x="2101.75" y="-326" font-family="Helvetica,sans-Serif" font-size="10.00">/J3DShapeTable.cpp</text>
</a>
</g>
</g>
<!-- Node292&#45;&gt;Node328 -->
<g id="edge47" class="edge">
<title>Node292&#45;&gt;Node328</title>
<path fill="none" stroke="#63b8ff" d="M2101.75,-373.39C2101.75,-365.13 2101.75,-356.28 2101.75,-349.16"/>
<polygon fill="#63b8ff" stroke="#63b8ff" points="2098.25,-373.28 2101.75,-383.28 2105.25,-373.28 2098.25,-373.28"/>
</g>
<!-- Node293&#45;&gt;Node3 -->
<g id="edge42" class="edge">
<title>Node293&#45;&gt;Node3</title>
<path fill="none" stroke="#63b8ff" d="M1906.04,-312.52C1891.8,-303.03 1875.22,-291.98 1862.33,-283.39"/>
<polygon fill="#63b8ff" stroke="#63b8ff" points="1903.92,-315.32 1914.19,-317.96 1907.81,-309.5 1903.92,-315.32"/>
</g>
<!-- Node293&#45;&gt;Node127 -->
<g id="edge45" class="edge">
<title>Node293&#45;&gt;Node127</title>
<path fill="none" stroke="#63b8ff" d="M2016.01,-319.04C2234.88,-300.82 3470.23,-343.38 3586.75,-217 3692.74,-102.05 3355.64,-81.14 3226.19,-77.34"/>
<polygon fill="#63b8ff" stroke="#63b8ff" points="2015.82,-315.54 2006.2,-319.99 2016.5,-322.51 2015.82,-315.54"/>
</g>
<!-- Node293&#45;&gt;Node291 -->
<g id="edge44" class="edge">
<title>Node293&#45;&gt;Node291</title>
<path fill="none" stroke="#63b8ff" d="M1934.51,-307.61C1932.1,-291.04 1927.1,-269.49 1916.75,-253 1907.67,-238.53 1892.99,-226.19 1880.43,-217.39"/>
<polygon fill="#63b8ff" stroke="#63b8ff" points="1930.99,-307.65 1935.67,-317.16 1937.94,-306.81 1930.99,-307.65"/>
</g>
<!-- Node321 -->
<g id="node39" class="node">
<title>Node321</title>
<g id="a_node39"><a xlink:href="J3DModelData_8cpp.html" target="_top" xlink:title=" ">
<polygon fill="white" stroke="#666666" points="2455.75,-217 2297.75,-217 2297.75,-187 2455.75,-187 2455.75,-217"/>
<text text-anchor="start" x="2305.75" y="-205" font-family="Helvetica,sans-Serif" font-size="10.00">libs/JSystem/J3DGraphAnimator</text>
<text text-anchor="middle" x="2376.75" y="-194" font-family="Helvetica,sans-Serif" font-size="10.00">/J3DModelData.cpp</text>
</a>
</g>
</g>
<!-- Node293&#45;&gt;Node321 -->
<g id="edge43" class="edge">
<title>Node293&#45;&gt;Node321</title>
<path fill="none" stroke="#63b8ff" d="M1992.51,-315.13C2044.66,-298.56 2124.78,-273.45 2194.75,-253 2237.52,-240.5 2286.22,-227.17 2322.47,-217.42"/>
<polygon fill="#63b8ff" stroke="#63b8ff" points="1991.73,-311.71 1983.27,-318.08 1993.86,-318.38 1991.73,-311.71"/>
</g>
<!-- Node329&#45;&gt;Node6 -->
<g id="edge58" class="edge">
<title>Node329&#45;&gt;Node6</title>
<path fill="none" stroke="#63b8ff" d="M2776.88,-267.04C2946.48,-266.3 3332.93,-259.87 3372.75,-217 3381.82,-207.23 3378.25,-199.14 3372.75,-187 3339.08,-112.7 3310.11,-97.21 3234.75,-66 3169.86,-39.13 2690.85,-22.52 2526.73,-17.56"/>
<polygon fill="#63b8ff" stroke="#63b8ff" points="2777.04,-263.54 2767.05,-267.08 2777.07,-270.54 2777.04,-263.54"/>
</g>
<!-- Node329&#45;&gt;Node130 -->
<g id="edge61" class="edge">
<title>Node329&#45;&gt;Node130</title>
<path fill="none" stroke="#63b8ff" d="M2688.71,-241.96C2675.34,-208.7 2646.99,-150.71 2602.75,-121 2573.69,-101.49 2480.48,-88.27 2421.13,-81.59"/>
<polygon fill="#63b8ff" stroke="#63b8ff" points="2685.41,-243.12 2692.27,-251.19 2691.94,-240.6 2685.41,-243.12"/>
</g>
<!-- Node329&#45;&gt;Node127 -->
<g id="edge60" class="edge">
<title>Node329&#45;&gt;Node127</title>
<path fill="none" stroke="#63b8ff" d="M2776.89,-263.66C2901.47,-257.63 3131.98,-243.08 3158.75,-217 3195.6,-181.11 3184.95,-110.17 3179.79,-85.34"/>
<polygon fill="#63b8ff" stroke="#63b8ff" points="2776.87,-260.16 2767.05,-264.13 2777.21,-267.15 2776.87,-260.16"/>
</g>
<!-- Node329&#45;&gt;Node279 -->
<g id="edge62" class="edge">
<title>Node329&#45;&gt;Node279</title>
<path fill="none" stroke="#63b8ff" d="M2696.01,-241.47C2693.06,-198.31 2687.24,-112.92 2685.35,-85.32"/>
<polygon fill="#63b8ff" stroke="#63b8ff" points="2692.5,-241.43 2696.67,-251.17 2699.48,-240.96 2692.5,-241.43"/>
</g>
<!-- Node329&#45;&gt;Node288 -->
<g id="edge49" class="edge">
<title>Node329&#45;&gt;Node288</title>
<path fill="none" stroke="#63b8ff" d="M2618.79,-262.08C2506.22,-254.64 2293.23,-239.04 2112.75,-217 2109.83,-216.64 2106.86,-216.26 2103.87,-215.86"/>
<polygon fill="#63b8ff" stroke="#63b8ff" points="2618.31,-265.55 2628.52,-262.71 2618.77,-258.57 2618.31,-265.55"/>
</g>
<!-- Node329&#45;&gt;Node289 -->
<g id="edge53" class="edge">
<title>Node329&#45;&gt;Node289</title>
<path fill="none" stroke="#63b8ff" d="M2618.69,-258.19C2536.23,-248.81 2403.26,-233.1 2288.75,-217 2285.84,-216.59 2282.88,-216.17 2279.88,-215.73"/>
<polygon fill="#63b8ff" stroke="#63b8ff" points="2618.15,-261.65 2628.48,-259.3 2618.94,-254.7 2618.15,-261.65"/>
</g>
<!-- Node329&#45;&gt;Node290 -->
<g id="edge57" class="edge">
<title>Node329&#45;&gt;Node290</title>
<path fill="none" stroke="#63b8ff" d="M2618.81,-265.88C2459.24,-262.91 2087.1,-252.45 1776.75,-217 1773.95,-216.68 1771.1,-216.32 1768.22,-215.94"/>
<polygon fill="#63b8ff" stroke="#63b8ff" points="2618.35,-269.37 2628.41,-266.05 2618.48,-262.37 2618.35,-269.37"/>
</g>
<!-- Node329&#45;&gt;Node321 -->
<g id="edge54" class="edge">
<title>Node329&#45;&gt;Node321</title>
<path fill="none" stroke="#63b8ff" d="M2618.93,-251.28C2567.13,-240.96 2499.86,-227.54 2449.36,-217.48"/>
<polygon fill="#63b8ff" stroke="#63b8ff" points="2618.09,-254.69 2628.58,-253.21 2619.46,-247.82 2618.09,-254.69"/>
</g>
<!-- Node329&#45;&gt;Node327 -->
<g id="edge50" class="edge">
<title>Node329&#45;&gt;Node327</title>
<path fill="none" stroke="#63b8ff" d="M2654.72,-248.01C2632.54,-238.22 2605.91,-226.46 2585.43,-217.43"/>
<polygon fill="#63b8ff" stroke="#63b8ff" points="2653.26,-251.19 2663.83,-252.03 2656.09,-244.79 2653.26,-251.19"/>
</g>
<!-- Node319 -->
<g id="node43" class="node">
<title>Node319</title>
<g id="a_node43"><a xlink:href="J3DMaterialAnm_8cpp.html" target="_top" xlink:title=" ">
<polygon fill="white" stroke="#666666" points="3363.75,-217 3205.75,-217 3205.75,-187 3363.75,-187 3363.75,-217"/>
<text text-anchor="start" x="3213.75" y="-205" font-family="Helvetica,sans-Serif" font-size="10.00">libs/JSystem/J3DGraphAnimator</text>
<text text-anchor="middle" x="3284.75" y="-194" font-family="Helvetica,sans-Serif" font-size="10.00">/J3DMaterialAnm.cpp</text>
</a>
</g>
</g>
<!-- Node329&#45;&gt;Node319 -->
<g id="edge51" class="edge">
<title>Node329&#45;&gt;Node319</title>
<path fill="none" stroke="#63b8ff" d="M2776.63,-260.21C2874.26,-251.52 3045.51,-235.4 3191.75,-217 3196.21,-216.44 3200.78,-215.84 3205.39,-215.21"/>
<polygon fill="#63b8ff" stroke="#63b8ff" points="2776.55,-256.7 2766.9,-261.07 2777.16,-263.67 2776.55,-256.7"/>
</g>
<!-- Node320 -->
<g id="node44" class="node">
<title>Node320</title>
<g id="a_node44"><a xlink:href="J3DMaterialAttach_8cpp.html" target="_top" xlink:title=" ">
<polygon fill="white" stroke="#666666" points="3577.75,-217 3419.75,-217 3419.75,-187 3577.75,-187 3577.75,-217"/>
<text text-anchor="start" x="3427.75" y="-205" font-family="Helvetica,sans-Serif" font-size="10.00">libs/JSystem/J3DGraphAnimator</text>
<text text-anchor="middle" x="3498.75" y="-194" font-family="Helvetica,sans-Serif" font-size="10.00">/J3DMaterialAttach.cpp</text>
</a>
</g>
</g>
<!-- Node329&#45;&gt;Node320 -->
<g id="edge52" class="edge">
<title>Node329&#45;&gt;Node320</title>
<path fill="none" stroke="#63b8ff" d="M2776.74,-263.46C2907.74,-257.13 3178.08,-242.14 3405.75,-217 3410.21,-216.51 3414.79,-215.96 3419.41,-215.37"/>
<polygon fill="#63b8ff" stroke="#63b8ff" points="2776.6,-259.96 2766.78,-263.94 2776.94,-266.95 2776.6,-259.96"/>
</g>
<!-- Node330 -->
<g id="node45" class="node">
<title>Node330</title>
<g id="a_node45"><a xlink:href="J3DDrawBuffer_8cpp.html" target="_top" xlink:title=" ">
<polygon fill="white" stroke="#666666" points="2867.75,-217 2725.75,-217 2725.75,-187 2867.75,-187 2867.75,-217"/>
<text text-anchor="start" x="2733.75" y="-205" font-family="Helvetica,sans-Serif" font-size="10.00">libs/JSystem/J3DGraphBase</text>
<text text-anchor="middle" x="2796.75" y="-194" font-family="Helvetica,sans-Serif" font-size="10.00">/J3DDrawBuffer.cpp</text>
</a>
</g>
</g>
<!-- Node329&#45;&gt;Node330 -->
<g id="edge55" class="edge">
<title>Node329&#45;&gt;Node330</title>
<path fill="none" stroke="#63b8ff" d="M2729,-246.8C2743.78,-237.24 2761.08,-226.06 2774.5,-217.39"/>
<polygon fill="#63b8ff" stroke="#63b8ff" points="2727.49,-243.61 2720.99,-251.97 2731.29,-249.48 2727.49,-243.61"/>
</g>
<!-- Node331 -->
<g id="node46" class="node">
<title>Node331</title>
<g id="a_node46"><a xlink:href="J3DMaterial_8cpp.html" target="_top" xlink:title=" ">
<polygon fill="white" stroke="#666666" points="3027.75,-217 2885.75,-217 2885.75,-187 3027.75,-187 3027.75,-217"/>
<text text-anchor="start" x="2893.75" y="-205" font-family="Helvetica,sans-Serif" font-size="10.00">libs/JSystem/J3DGraphBase</text>
<text text-anchor="middle" x="2956.75" y="-194" font-family="Helvetica,sans-Serif" font-size="10.00">/J3DMaterial.cpp</text>
</a>
</g>
</g>
<!-- Node329&#45;&gt;Node331 -->
<g id="edge56" class="edge">
<title>Node329&#45;&gt;Node331</title>
<path fill="none" stroke="#63b8ff" d="M2767.21,-249.84C2808.24,-239.7 2859.61,-227 2898.52,-217.39"/>
<polygon fill="#63b8ff" stroke="#63b8ff" points="2766.54,-246.4 2757.67,-252.19 2768.22,-253.19 2766.54,-246.4"/>
</g>
<!-- Node25 -->
<g id="node47" class="node">
<title>Node25</title>
<g id="a_node47"><a xlink:href="d__a__npc_8cpp.html" target="_top" xlink:title=" ">
<polygon fill="white" stroke="#666666" points="3149.75,-211.5 3045.75,-211.5 3045.75,-192.5 3149.75,-192.5 3149.75,-211.5"/>
<text text-anchor="middle" x="3097.75" y="-199.5" font-family="Helvetica,sans-Serif" font-size="10.00">src/d/a/d_a_npc.cpp</text>
</a>
</g>
</g>
<!-- Node329&#45;&gt;Node25 -->
<g id="edge59" class="edge">
<title>Node329&#45;&gt;Node25</title>
<path fill="none" stroke="#63b8ff" d="M2776.73,-257.15C2845.63,-248.13 2948.14,-233.68 3036.75,-217 3044.55,-215.53 3052.86,-213.76 3060.75,-211.99"/>
<polygon fill="#63b8ff" stroke="#63b8ff" points="2776.51,-253.65 2767.05,-258.41 2777.42,-260.59 2776.51,-253.65"/>
</g>
</g>
</svg>
