<?xml version="1.0" encoding="UTF-8" standalone="no"?>
<!DOCTYPE svg PUBLIC "-//W3C//DTD SVG 1.1//EN"
 "http://www.w3.org/Graphics/SVG/1.1/DTD/svg11.dtd">
<!-- Generated by graphviz version 7.0.5 (20221223.1930)
 -->
<!-- Title: include/JSystem/J3DGraphBase/J3DTexture.h Pages: 1 -->
<svg width="4714pt" height="236pt"
 viewBox="0.00 0.00 4714.00 236.00" xmlns="http://www.w3.org/2000/svg" xmlns:xlink="http://www.w3.org/1999/xlink">
<g id="graph0" class="graph" transform="scale(1 1) rotate(0) translate(4 232)">
<title>include/JSystem/J3DGraphBase/J3DTexture.h</title>
<!-- Node1 -->
<g id="node1" class="node">
<title>Node1</title>
<g id="a_node1"><a xlink:title=" ">
<polygon fill="#999999" stroke="#666666" points="3873,-228 3738,-228 3738,-198 3873,-198 3873,-228"/>
<text text-anchor="start" x="3746" y="-216" font-family="Helvetica,sans-Serif" font-size="10.00">include/JSystem/J3DGraph</text>
<text text-anchor="middle" x="3805.5" y="-205" font-family="Helvetica,sans-Serif" font-size="10.00">Base/J3DTexture.h</text>
</a>
</g>
</g>
<!-- Node2 -->
<g id="node2" class="node">
<title>Node2</title>
<g id="a_node2"><a xlink:href="J3DMatBlock_8h.html" target="_top" xlink:title=" ">
<polygon fill="white" stroke="#666666" points="3689,-162 3554,-162 3554,-132 3689,-132 3689,-162"/>
<text text-anchor="start" x="3562" y="-150" font-family="Helvetica,sans-Serif" font-size="10.00">include/JSystem/J3DGraph</text>
<text text-anchor="middle" x="3621.5" y="-139" font-family="Helvetica,sans-Serif" font-size="10.00">Base/J3DMatBlock.h</text>
</a>
</g>
</g>
<!-- Node1&#45;&gt;Node2 -->
<g id="edge1" class="edge">
<title>Node1&#45;&gt;Node2</title>
<path fill="none" stroke="#63b8ff" d="M3753.57,-193.94C3724.9,-183.97 3689.79,-171.75 3662.97,-162.43"/>
<polygon fill="#63b8ff" stroke="#63b8ff" points="3752.18,-197.16 3762.78,-197.14 3754.48,-190.55 3752.18,-197.16"/>
</g>
<!-- Node3 -->
<g id="node3" class="node">
<title>Node3</title>
<g id="a_node3"><a xlink:href="J3DMaterial_8h.html" target="_top" xlink:title=" ">
<polygon fill="white" stroke="#666666" points="2157,-96 2022,-96 2022,-66 2157,-66 2157,-96"/>
<text text-anchor="start" x="2030" y="-84" font-family="Helvetica,sans-Serif" font-size="10.00">include/JSystem/J3DGraph</text>
<text text-anchor="middle" x="2089.5" y="-73" font-family="Helvetica,sans-Serif" font-size="10.00">Base/J3DMaterial.h</text>
</a>
</g>
</g>
<!-- Node1&#45;&gt;Node3 -->
<g id="edge53" class="edge">
<title>Node1&#45;&gt;Node3</title>
<path fill="none" stroke="#63b8ff" d="M3726.43,-206.01C3435.64,-183.98 2428.31,-107.67 2157.16,-87.13"/>
<polygon fill="#63b8ff" stroke="#63b8ff" points="3725.96,-209.48 3736.19,-206.75 3726.49,-202.5 3725.96,-209.48"/>
</g>
<!-- Node42 -->
<g id="node42" class="node">
<title>Node42</title>
<g id="a_node42"><a xlink:href="J3DTevs_8cpp.html" target="_top" xlink:title=" ">
<polygon fill="white" stroke="#666666" points="4362.5,-96 4220.5,-96 4220.5,-66 4362.5,-66 4362.5,-96"/>
<text text-anchor="start" x="4228.5" y="-84" font-family="Helvetica,sans-Serif" font-size="10.00">libs/JSystem/J3DGraphBase</text>
<text text-anchor="middle" x="4291.5" y="-73" font-family="Helvetica,sans-Serif" font-size="10.00">/J3DTevs.cpp</text>
</a>
</g>
</g>
<!-- Node1&#45;&gt;Node42 -->
<g id="edge56" class="edge">
<title>Node1&#45;&gt;Node42</title>
<path fill="none" stroke="#63b8ff" d="M3768.88,-191.38C3744.26,-174.97 3719.34,-151.59 3737.5,-132 3773.41,-93.26 4159.09,-102.56 4211.5,-96 4214.3,-95.65 4217.15,-95.27 4220.02,-94.86"/>
<polygon fill="#63b8ff" stroke="#63b8ff" points="3766.97,-194.31 3777.29,-196.71 3770.72,-188.4 3766.97,-194.31"/>
</g>
<!-- Node44 -->
<g id="node44" class="node">
<title>Node44</title>
<g id="a_node44"><a xlink:href="J2DAnimation_8cpp.html" target="_top" xlink:title=" ">
<polygon fill="white" stroke="#666666" points="3865,-162 3746,-162 3746,-132 3865,-132 3865,-162"/>
<text text-anchor="start" x="3754" y="-150" font-family="Helvetica,sans-Serif" font-size="10.00">libs/JSystem/J2DGraph</text>
<text text-anchor="middle" x="3805.5" y="-139" font-family="Helvetica,sans-Serif" font-size="10.00">/J2DAnimation.cpp</text>
</a>
</g>
</g>
<!-- Node1&#45;&gt;Node44 -->
<g id="edge54" class="edge">
<title>Node1&#45;&gt;Node44</title>
<path fill="none" stroke="#63b8ff" d="M3805.5,-186.39C3805.5,-178.13 3805.5,-169.28 3805.5,-162.16"/>
<polygon fill="#63b8ff" stroke="#63b8ff" points="3802,-186.28 3805.5,-196.28 3809,-186.28 3802,-186.28"/>
</g>
<!-- Node45 -->
<g id="node45" class="node">
<title>Node45</title>
<g id="a_node45"><a xlink:href="J3DSys_8cpp.html" target="_top" xlink:title=" ">
<polygon fill="white" stroke="#666666" points="4025.5,-162 3883.5,-162 3883.5,-132 4025.5,-132 4025.5,-162"/>
<text text-anchor="start" x="3891.5" y="-150" font-family="Helvetica,sans-Serif" font-size="10.00">libs/JSystem/J3DGraphBase</text>
<text text-anchor="middle" x="3954.5" y="-139" font-family="Helvetica,sans-Serif" font-size="10.00">/J3DSys.cpp</text>
</a>
</g>
</g>
<!-- Node1&#45;&gt;Node45 -->
<g id="edge55" class="edge">
<title>Node1&#45;&gt;Node45</title>
<path fill="none" stroke="#63b8ff" d="M3849.41,-193.14C3872.27,-183.32 3899.78,-171.51 3920.92,-162.43"/>
<polygon fill="#63b8ff" stroke="#63b8ff" points="3848.14,-189.88 3840.33,-197.04 3850.9,-196.31 3848.14,-189.88"/>
</g>
<!-- Node46 -->
<g id="node46" class="node">
<title>Node46</title>
<g id="a_node46"><a xlink:href="J3DTexture_8cpp.html" target="_top" xlink:title=" ">
<polygon fill="white" stroke="#666666" points="4185.5,-162 4043.5,-162 4043.5,-132 4185.5,-132 4185.5,-162"/>
<text text-anchor="start" x="4051.5" y="-150" font-family="Helvetica,sans-Serif" font-size="10.00">libs/JSystem/J3DGraphBase</text>
<text text-anchor="middle" x="4114.5" y="-139" font-family="Helvetica,sans-Serif" font-size="10.00">/J3DTexture.cpp</text>
</a>
</g>
</g>
<!-- Node1&#45;&gt;Node46 -->
<g id="edge57" class="edge">
<title>Node1&#45;&gt;Node46</title>
<path fill="none" stroke="#63b8ff" d="M3884.29,-195.68C3933.78,-185.43 3997.03,-172.33 4044.71,-162.46"/>
<polygon fill="#63b8ff" stroke="#63b8ff" points="3883.88,-192.19 3874.79,-197.65 3885.3,-199.05 3883.88,-192.19"/>
</g>
<!-- Node47 -->
<g id="node47" class="node">
<title>Node47</title>
<g id="a_node47"><a xlink:href="d__eye__hl_8cpp.html" target="_top" xlink:title=" ">
<polygon fill="white" stroke="#666666" points="4301.5,-156.5 4203.5,-156.5 4203.5,-137.5 4301.5,-137.5 4301.5,-156.5"/>
<text text-anchor="middle" x="4252.5" y="-144.5" font-family="Helvetica,sans-Serif" font-size="10.00">src/d/d_eye_hl.cpp</text>
</a>
</g>
</g>
<!-- Node1&#45;&gt;Node47 -->
<g id="edge58" class="edge">
<title>Node1&#45;&gt;Node47</title>
<path fill="none" stroke="#63b8ff" d="M3884.61,-204.39C3963.49,-196.2 4087.92,-181.65 4194.5,-162 4202.14,-160.59 4210.28,-158.81 4217.98,-156.99"/>
<polygon fill="#63b8ff" stroke="#63b8ff" points="3884.41,-200.89 3874.82,-205.39 3885.12,-207.85 3884.41,-200.89"/>
</g>
<!-- Node2&#45;&gt;Node3 -->
<g id="edge2" class="edge">
<title>Node2&#45;&gt;Node3</title>
<path fill="none" stroke="#63b8ff" d="M3542.55,-142.7C3275.29,-131.54 2407.29,-95.28 2157.39,-84.84"/>
<polygon fill="#63b8ff" stroke="#63b8ff" points="3542.05,-146.18 3552.18,-143.1 3542.34,-139.19 3542.05,-146.18"/>
</g>
<!-- Node18 -->
<g id="node18" class="node">
<title>Node18</title>
<g id="a_node18"><a xlink:href="d__attention_8cpp.html" target="_top" xlink:title=" ">
<polygon fill="white" stroke="#666666" points="3348,-24.5 3241,-24.5 3241,-5.5 3348,-5.5 3348,-24.5"/>
<text text-anchor="middle" x="3294.5" y="-12.5" font-family="Helvetica,sans-Serif" font-size="10.00">src/d/d_attention.cpp</text>
</a>
</g>
</g>
<!-- Node2&#45;&gt;Node18 -->
<g id="edge51" class="edge">
<title>Node2&#45;&gt;Node18</title>
<path fill="none" stroke="#63b8ff" d="M3574.63,-127.41C3550.91,-118 3521.67,-106.4 3495.5,-96 3430.58,-70.2 3353.89,-39.66 3316.8,-24.89"/>
<polygon fill="#63b8ff" stroke="#63b8ff" points="3573.11,-130.58 3583.7,-131.01 3575.69,-124.07 3573.11,-130.58"/>
</g>
<!-- Node27 -->
<g id="node27" class="node">
<title>Node27</title>
<g id="a_node27"><a xlink:href="J3DMaterialFactory_8h.html" target="_top" xlink:title=" ">
<polygon fill="white" stroke="#666666" points="311,-96 170,-96 170,-66 311,-66 311,-96"/>
<text text-anchor="start" x="178" y="-84" font-family="Helvetica,sans-Serif" font-size="10.00">include/JSystem/J3DGraph</text>
<text text-anchor="middle" x="240.5" y="-73" font-family="Helvetica,sans-Serif" font-size="10.00">Loader/J3DMaterialFactory.h</text>
</a>
</g>
</g>
<!-- Node2&#45;&gt;Node27 -->
<g id="edge26" class="edge">
<title>Node2&#45;&gt;Node27</title>
<path fill="none" stroke="#63b8ff" d="M3542.28,-145.55C3071.4,-142.78 649.95,-127.12 320.5,-96 317.41,-95.71 314.26,-95.36 311.09,-94.98"/>
<polygon fill="#63b8ff" stroke="#63b8ff" points="3542.16,-149.05 3552.18,-145.61 3542.2,-142.05 3542.16,-149.05"/>
</g>
<!-- Node28 -->
<g id="node28" class="node">
<title>Node28</title>
<g id="a_node28"><a xlink:href="J3DMaterialFactory__v21_8h.html" target="_top" xlink:title=" ">
<polygon fill="white" stroke="#666666" points="491.5,-96 329.5,-96 329.5,-66 491.5,-66 491.5,-96"/>
<text text-anchor="start" x="337.5" y="-84" font-family="Helvetica,sans-Serif" font-size="10.00">include/JSystem/J3DGraph</text>
<text text-anchor="middle" x="410.5" y="-73" font-family="Helvetica,sans-Serif" font-size="10.00">Loader/J3DMaterialFactory_v21.h</text>
</a>
</g>
</g>
<!-- Node2&#45;&gt;Node28 -->
<g id="edge29" class="edge">
<title>Node2&#45;&gt;Node28</title>
<path fill="none" stroke="#63b8ff" d="M3542.34,-144.42C3100.19,-135.61 940,-92.55 491.96,-83.62"/>
<polygon fill="#63b8ff" stroke="#63b8ff" points="3542.11,-147.92 3552.18,-144.62 3542.25,-140.92 3542.11,-147.92"/>
</g>
<!-- Node29 -->
<g id="node29" class="node">
<title>Node29</title>
<g id="a_node29"><a xlink:href="d__a__alink_8h.html" target="_top" xlink:title=" ">
<polygon fill="white" stroke="#666666" points="3744.5,-90.5 3628.5,-90.5 3628.5,-71.5 3744.5,-71.5 3744.5,-90.5"/>
<text text-anchor="middle" x="3686.5" y="-78.5" font-family="Helvetica,sans-Serif" font-size="10.00">include/d/a/d_a_alink.h</text>
</a>
</g>
</g>
<!-- Node2&#45;&gt;Node29 -->
<g id="edge32" class="edge">
<title>Node2&#45;&gt;Node29</title>
<path fill="none" stroke="#63b8ff" d="M3643.9,-123.94C3655.44,-112.58 3668.87,-99.36 3677.52,-90.84"/>
<polygon fill="#63b8ff" stroke="#63b8ff" points="3641.67,-121.22 3637,-130.73 3646.59,-126.21 3641.67,-121.22"/>
</g>
<!-- Node39 -->
<g id="node39" class="node">
<title>Node39</title>
<g id="a_node39"><a xlink:href="d__a__midna_8h.html" target="_top" xlink:title=" ">
<polygon fill="white" stroke="#666666" points="3610.5,-96 3504.5,-96 3504.5,-66 3610.5,-66 3610.5,-96"/>
<text text-anchor="start" x="3512.5" y="-84" font-family="Helvetica,sans-Serif" font-size="10.00">include/rel/d/a/d_a</text>
<text text-anchor="middle" x="3557.5" y="-73" font-family="Helvetica,sans-Serif" font-size="10.00">_midna/d_a_midna.h</text>
</a>
</g>
</g>
<!-- Node2&#45;&gt;Node39 -->
<g id="edge43" class="edge">
<title>Node2&#45;&gt;Node39</title>
<path fill="none" stroke="#63b8ff" d="M3599.31,-123.81C3590.14,-114.64 3579.78,-104.28 3571.66,-96.16"/>
<polygon fill="#63b8ff" stroke="#63b8ff" points="3596.68,-126.13 3606.23,-130.73 3601.63,-121.18 3596.68,-126.13"/>
</g>
<!-- Node40 -->
<g id="node40" class="node">
<title>Node40</title>
<g id="a_node40"><a xlink:href="J3DMatBlock_8cpp.html" target="_top" xlink:title=" ">
<polygon fill="white" stroke="#666666" points="3904.5,-96 3762.5,-96 3762.5,-66 3904.5,-66 3904.5,-96"/>
<text text-anchor="start" x="3770.5" y="-84" font-family="Helvetica,sans-Serif" font-size="10.00">libs/JSystem/J3DGraphBase</text>
<text text-anchor="middle" x="3833.5" y="-73" font-family="Helvetica,sans-Serif" font-size="10.00">/J3DMatBlock.cpp</text>
</a>
</g>
</g>
<!-- Node2&#45;&gt;Node40 -->
<g id="edge48" class="edge">
<title>Node2&#45;&gt;Node40</title>
<path fill="none" stroke="#63b8ff" d="M3680.3,-128.25C3713.55,-118.21 3754.6,-105.82 3785.83,-96.39"/>
<polygon fill="#63b8ff" stroke="#63b8ff" points="3679.35,-124.88 3670.79,-131.12 3681.38,-131.58 3679.35,-124.88"/>
</g>
<!-- Node41 -->
<g id="node41" class="node">
<title>Node41</title>
<g id="a_node41"><a xlink:href="J3DShapeMtx_8cpp.html" target="_top" xlink:title=" ">
<polygon fill="white" stroke="#666666" points="4064.5,-96 3922.5,-96 3922.5,-66 4064.5,-66 4064.5,-96"/>
<text text-anchor="start" x="3930.5" y="-84" font-family="Helvetica,sans-Serif" font-size="10.00">libs/JSystem/J3DGraphBase</text>
<text text-anchor="middle" x="3993.5" y="-73" font-family="Helvetica,sans-Serif" font-size="10.00">/J3DShapeMtx.cpp</text>
</a>
</g>
</g>
<!-- Node2&#45;&gt;Node41 -->
<g id="edge49" class="edge">
<title>Node2&#45;&gt;Node41</title>
<path fill="none" stroke="#63b8ff" d="M3700.75,-132.46C3772.78,-120.15 3873.69,-102.89 3913.5,-96 3916.42,-95.49 3919.39,-94.98 3922.4,-94.46"/>
<polygon fill="#63b8ff" stroke="#63b8ff" points="3700.21,-129 3690.94,-134.14 3701.39,-135.9 3700.21,-129"/>
</g>
<!-- Node2&#45;&gt;Node42 -->
<g id="edge50" class="edge">
<title>Node2&#45;&gt;Node42</title>
<path fill="none" stroke="#63b8ff" d="M3700.47,-132.37C3701.49,-132.25 3702.5,-132.12 3703.5,-132 3928.22,-104.92 3986.84,-123.54 4211.5,-96 4214.3,-95.66 4217.15,-95.28 4220.02,-94.88"/>
<polygon fill="#63b8ff" stroke="#63b8ff" points="3700.38,-128.85 3690.94,-133.67 3701.32,-135.79 3700.38,-128.85"/>
</g>
<!-- Node43 -->
<g id="node43" class="node">
<title>Node43</title>
<g id="a_node43"><a xlink:href="m__Do__lib_8cpp.html" target="_top" xlink:title=" ">
<polygon fill="white" stroke="#666666" points="4202.5,-90.5 4082.5,-90.5 4082.5,-71.5 4202.5,-71.5 4202.5,-90.5"/>
<text text-anchor="middle" x="4142.5" y="-78.5" font-family="Helvetica,sans-Serif" font-size="10.00">src/m_Do/m_Do_lib.cpp</text>
</a>
</g>
</g>
<!-- Node2&#45;&gt;Node43 -->
<g id="edge52" class="edge">
<title>Node2&#45;&gt;Node43</title>
<path fill="none" stroke="#63b8ff" d="M3700.48,-132.41C3701.49,-132.27 3702.5,-132.13 3703.5,-132 3867.26,-110.08 3910.1,-120.46 4073.5,-96 4082.69,-94.62 4092.5,-92.83 4101.76,-90.99"/>
<polygon fill="#63b8ff" stroke="#63b8ff" points="3700.35,-128.89 3690.95,-133.79 3701.35,-135.82 3700.35,-128.89"/>
</g>
<!-- Node4 -->
<g id="node4" class="node">
<title>Node4</title>
<g id="a_node4"><a xlink:href="J3DJoint_8cpp.html" target="_top" xlink:title=" ">
<polygon fill="white" stroke="#666666" points="659.5,-30 501.5,-30 501.5,0 659.5,0 659.5,-30"/>
<text text-anchor="start" x="509.5" y="-18" font-family="Helvetica,sans-Serif" font-size="10.00">libs/JSystem/J3DGraphAnimator</text>
<text text-anchor="middle" x="580.5" y="-7" font-family="Helvetica,sans-Serif" font-size="10.00">/J3DJoint.cpp</text>
</a>
</g>
</g>
<!-- Node3&#45;&gt;Node4 -->
<g id="edge3" class="edge">
<title>Node3&#45;&gt;Node4</title>
<path fill="none" stroke="#63b8ff" d="M2010.12,-80.61C1794.13,-81.54 1177.88,-79.29 668.5,-30 665.57,-29.72 662.6,-29.4 659.6,-29.05"/>
<polygon fill="#63b8ff" stroke="#63b8ff" points="2010.14,-84.11 2020.12,-80.56 2010.11,-77.11 2010.14,-84.11"/>
</g>
<!-- Node5 -->
<g id="node5" class="node">
<title>Node5</title>
<g id="a_node5"><a xlink:href="J3DJointTree_8cpp.html" target="_top" xlink:title=" ">
<polygon fill="white" stroke="#666666" points="835.5,-30 677.5,-30 677.5,0 835.5,0 835.5,-30"/>
<text text-anchor="start" x="685.5" y="-18" font-family="Helvetica,sans-Serif" font-size="10.00">libs/JSystem/J3DGraphAnimator</text>
<text text-anchor="middle" x="756.5" y="-7" font-family="Helvetica,sans-Serif" font-size="10.00">/J3DJointTree.cpp</text>
</a>
</g>
</g>
<!-- Node3&#45;&gt;Node5 -->
<g id="edge4" class="edge">
<title>Node3&#45;&gt;Node5</title>
<path fill="none" stroke="#63b8ff" d="M2010.44,-80.04C1813.16,-79.46 1283.5,-73.58 844.5,-30 841.58,-29.71 838.6,-29.39 835.6,-29.03"/>
<polygon fill="#63b8ff" stroke="#63b8ff" points="2010.31,-83.54 2020.31,-80.07 2010.32,-76.54 2010.31,-83.54"/>
</g>
<!-- Node6 -->
<g id="node6" class="node">
<title>Node6</title>
<g id="a_node6"><a xlink:href="J3DMaterialAnm_8cpp.html" target="_top" xlink:title=" ">
<polygon fill="white" stroke="#666666" points="1011.5,-30 853.5,-30 853.5,0 1011.5,0 1011.5,-30"/>
<text text-anchor="start" x="861.5" y="-18" font-family="Helvetica,sans-Serif" font-size="10.00">libs/JSystem/J3DGraphAnimator</text>
<text text-anchor="middle" x="932.5" y="-7" font-family="Helvetica,sans-Serif" font-size="10.00">/J3DMaterialAnm.cpp</text>
</a>
</g>
</g>
<!-- Node3&#45;&gt;Node6 -->
<g id="edge5" class="edge">
<title>Node3&#45;&gt;Node6</title>
<path fill="none" stroke="#63b8ff" d="M2010.47,-79.3C1832.98,-77.08 1389.44,-67.86 1020.5,-30 1017.58,-29.7 1014.6,-29.37 1011.6,-29.01"/>
<polygon fill="#63b8ff" stroke="#63b8ff" points="2010.21,-82.8 2020.25,-79.42 2010.3,-75.8 2010.21,-82.8"/>
</g>
<!-- Node7 -->
<g id="node7" class="node">
<title>Node7</title>
<g id="a_node7"><a xlink:href="J3DMaterialAttach_8cpp.html" target="_top" xlink:title=" ">
<polygon fill="white" stroke="#666666" points="1187.5,-30 1029.5,-30 1029.5,0 1187.5,0 1187.5,-30"/>
<text text-anchor="start" x="1037.5" y="-18" font-family="Helvetica,sans-Serif" font-size="10.00">libs/JSystem/J3DGraphAnimator</text>
<text text-anchor="middle" x="1108.5" y="-7" font-family="Helvetica,sans-Serif" font-size="10.00">/J3DMaterialAttach.cpp</text>
</a>
</g>
</g>
<!-- Node3&#45;&gt;Node7 -->
<g id="edge6" class="edge">
<title>Node3&#45;&gt;Node7</title>
<path fill="none" stroke="#63b8ff" d="M2010.19,-78.27C1854.03,-74.26 1495.86,-62.11 1196.5,-30 1193.58,-29.69 1190.6,-29.34 1187.6,-28.97"/>
<polygon fill="#63b8ff" stroke="#63b8ff" points="2009.93,-81.76 2020.02,-78.52 2010.11,-74.77 2009.93,-81.76"/>
</g>
<!-- Node8 -->
<g id="node8" class="node">
<title>Node8</title>
<g id="a_node8"><a xlink:href="J3DModel_8cpp.html" target="_top" xlink:title=" ">
<polygon fill="white" stroke="#666666" points="1363.5,-30 1205.5,-30 1205.5,0 1363.5,0 1363.5,-30"/>
<text text-anchor="start" x="1213.5" y="-18" font-family="Helvetica,sans-Serif" font-size="10.00">libs/JSystem/J3DGraphAnimator</text>
<text text-anchor="middle" x="1284.5" y="-7" font-family="Helvetica,sans-Serif" font-size="10.00">/J3DModel.cpp</text>
</a>
</g>
</g>
<!-- Node3&#45;&gt;Node8 -->
<g id="edge7" class="edge">
<title>Node3&#45;&gt;Node8</title>
<path fill="none" stroke="#63b8ff" d="M2010.4,-76.77C1878.05,-70.84 1603.49,-56.38 1372.5,-30 1369.58,-29.67 1366.61,-29.31 1363.61,-28.92"/>
<polygon fill="#63b8ff" stroke="#63b8ff" points="2009.94,-80.25 2020.09,-77.2 2010.25,-73.26 2009.94,-80.25"/>
</g>
<!-- Node9 -->
<g id="node9" class="node">
<title>Node9</title>
<g id="a_node9"><a xlink:href="J3DModelData_8cpp.html" target="_top" xlink:title=" ">
<polygon fill="white" stroke="#666666" points="1539.5,-30 1381.5,-30 1381.5,0 1539.5,0 1539.5,-30"/>
<text text-anchor="start" x="1389.5" y="-18" font-family="Helvetica,sans-Serif" font-size="10.00">libs/JSystem/J3DGraphAnimator</text>
<text text-anchor="middle" x="1460.5" y="-7" font-family="Helvetica,sans-Serif" font-size="10.00">/J3DModelData.cpp</text>
</a>
</g>
</g>
<!-- Node3&#45;&gt;Node9 -->
<g id="edge8" class="edge">
<title>Node3&#45;&gt;Node9</title>
<path fill="none" stroke="#63b8ff" d="M2010.7,-74.35C1905.21,-66.41 1712.39,-50.59 1548.5,-30 1545.58,-29.63 1542.62,-29.24 1539.62,-28.84"/>
<polygon fill="#63b8ff" stroke="#63b8ff" points="2010.13,-77.81 2020.36,-75.07 2010.65,-70.83 2010.13,-77.81"/>
</g>
<!-- Node10 -->
<g id="node10" class="node">
<title>Node10</title>
<g id="a_node10"><a xlink:href="J3DDrawBuffer_8cpp.html" target="_top" xlink:title=" ">
<polygon fill="white" stroke="#666666" points="1699.5,-30 1557.5,-30 1557.5,0 1699.5,0 1699.5,-30"/>
<text text-anchor="start" x="1565.5" y="-18" font-family="Helvetica,sans-Serif" font-size="10.00">libs/JSystem/J3DGraphBase</text>
<text text-anchor="middle" x="1628.5" y="-7" font-family="Helvetica,sans-Serif" font-size="10.00">/J3DDrawBuffer.cpp</text>
</a>
</g>
</g>
<!-- Node3&#45;&gt;Node10 -->
<g id="edge9" class="edge">
<title>Node3&#45;&gt;Node10</title>
<path fill="none" stroke="#63b8ff" d="M2010.52,-70.64C1933.37,-61.25 1812.68,-45.94 1708.5,-30 1705.57,-29.55 1702.59,-29.08 1699.57,-28.6"/>
<polygon fill="#63b8ff" stroke="#63b8ff" points="2009.73,-74.06 2020.08,-71.79 2010.58,-67.12 2009.73,-74.06"/>
</g>
<!-- Node11 -->
<g id="node11" class="node">
<title>Node11</title>
<g id="a_node11"><a xlink:href="J3DMaterial_8cpp.html" target="_top" xlink:title=" ">
<polygon fill="white" stroke="#666666" points="1859.5,-30 1717.5,-30 1717.5,0 1859.5,0 1859.5,-30"/>
<text text-anchor="start" x="1725.5" y="-18" font-family="Helvetica,sans-Serif" font-size="10.00">libs/JSystem/J3DGraphBase</text>
<text text-anchor="middle" x="1788.5" y="-7" font-family="Helvetica,sans-Serif" font-size="10.00">/J3DMaterial.cpp</text>
</a>
</g>
</g>
<!-- Node3&#45;&gt;Node11 -->
<g id="edge10" class="edge">
<title>Node3&#45;&gt;Node11</title>
<path fill="none" stroke="#63b8ff" d="M2010.32,-63.16C1962.47,-52.99 1902.11,-40.16 1856.44,-30.45"/>
<polygon fill="#63b8ff" stroke="#63b8ff" points="2009.58,-66.59 2020.09,-65.24 2011.04,-59.74 2009.58,-66.59"/>
</g>
<!-- Node12 -->
<g id="node12" class="node">
<title>Node12</title>
<g id="a_node12"><a xlink:href="J3DPacket_8cpp.html" target="_top" xlink:title=" ">
<polygon fill="white" stroke="#666666" points="2019.5,-30 1877.5,-30 1877.5,0 2019.5,0 2019.5,-30"/>
<text text-anchor="start" x="1885.5" y="-18" font-family="Helvetica,sans-Serif" font-size="10.00">libs/JSystem/J3DGraphBase</text>
<text text-anchor="middle" x="1948.5" y="-7" font-family="Helvetica,sans-Serif" font-size="10.00">/J3DPacket.cpp</text>
</a>
</g>
</g>
<!-- Node3&#45;&gt;Node12 -->
<g id="edge11" class="edge">
<title>Node3&#45;&gt;Node12</title>
<path fill="none" stroke="#63b8ff" d="M2047.62,-60.99C2025.97,-51.16 1999.97,-39.36 1980.04,-30.31"/>
<polygon fill="#63b8ff" stroke="#63b8ff" points="2045.93,-64.07 2056.48,-65.01 2048.82,-57.69 2045.93,-64.07"/>
</g>
<!-- Node13 -->
<g id="node13" class="node">
<title>Node13</title>
<g id="a_node13"><a xlink:href="J3DMaterialFactory_8cpp.html" target="_top" xlink:title=" ">
<polygon fill="white" stroke="#666666" points="149,-30 0,-30 0,0 149,0 149,-30"/>
<text text-anchor="start" x="8" y="-18" font-family="Helvetica,sans-Serif" font-size="10.00">libs/JSystem/J3DGraphLoader</text>
<text text-anchor="middle" x="74.5" y="-7" font-family="Helvetica,sans-Serif" font-size="10.00">/J3DMaterialFactory.cpp</text>
</a>
</g>
</g>
<!-- Node3&#45;&gt;Node13 -->
<g id="edge12" class="edge">
<title>Node3&#45;&gt;Node13</title>
<path fill="none" stroke="#63b8ff" d="M2010.23,-79.44C1694.51,-76.99 525.95,-65.66 157.5,-30 154.74,-29.73 151.93,-29.43 149.09,-29.09"/>
<polygon fill="#63b8ff" stroke="#63b8ff" points="2010,-82.94 2020.02,-79.52 2010.05,-75.94 2010,-82.94"/>
</g>
<!-- Node14 -->
<g id="node14" class="node">
<title>Node14</title>
<g id="a_node14"><a xlink:href="J3DMaterialFactory__v21_8cpp.html" target="_top" xlink:title=" ">
<polygon fill="white" stroke="#666666" points="483,-30 334,-30 334,0 483,0 483,-30"/>
<text text-anchor="start" x="342" y="-18" font-family="Helvetica,sans-Serif" font-size="10.00">libs/JSystem/J3DGraphLoader</text>
<text text-anchor="middle" x="408.5" y="-7" font-family="Helvetica,sans-Serif" font-size="10.00">/J3DMaterialFactory_v21.cpp</text>
</a>
</g>
</g>
<!-- Node3&#45;&gt;Node14 -->
<g id="edge13" class="edge">
<title>Node3&#45;&gt;Node14</title>
<path fill="none" stroke="#63b8ff" d="M2010.42,-78.93C1731.17,-74.92 792.01,-59.51 492.5,-30 489.41,-29.7 486.26,-29.35 483.09,-28.96"/>
<polygon fill="#63b8ff" stroke="#63b8ff" points="2010.09,-82.42 2020.14,-79.07 2010.19,-75.42 2010.09,-82.42"/>
</g>
<!-- Node15 -->
<g id="node15" class="node">
<title>Node15</title>
<g id="a_node15"><a xlink:href="J3DModelLoader_8cpp.html" target="_top" xlink:title=" ">
<polygon fill="white" stroke="#666666" points="316,-30 167,-30 167,0 316,0 316,-30"/>
<text text-anchor="start" x="175" y="-18" font-family="Helvetica,sans-Serif" font-size="10.00">libs/JSystem/J3DGraphLoader</text>
<text text-anchor="middle" x="241.5" y="-7" font-family="Helvetica,sans-Serif" font-size="10.00">/J3DModelLoader.cpp</text>
</a>
</g>
</g>
<!-- Node3&#45;&gt;Node15 -->
<g id="edge14" class="edge">
<title>Node3&#45;&gt;Node15</title>
<path fill="none" stroke="#63b8ff" d="M2010.72,-79.22C1713.3,-76.06 658.66,-62.76 324.5,-30 321.74,-29.73 318.93,-29.42 316.09,-29.08"/>
<polygon fill="#63b8ff" stroke="#63b8ff" points="2010.27,-82.72 2020.3,-79.32 2010.34,-75.72 2010.27,-82.72"/>
</g>
<!-- Node16 -->
<g id="node16" class="node">
<title>Node16</title>
<g id="a_node16"><a xlink:href="d__a__alink_8cpp.html" target="_top" xlink:title=" ">
<polygon fill="white" stroke="#666666" points="3475,-24.5 3366,-24.5 3366,-5.5 3475,-5.5 3475,-24.5"/>
<text text-anchor="middle" x="3420.5" y="-12.5" font-family="Helvetica,sans-Serif" font-size="10.00">src/d/a/d_a_alink.cpp</text>
</a>
</g>
</g>
<!-- Node3&#45;&gt;Node16 -->
<g id="edge15" class="edge">
<title>Node3&#45;&gt;Node16</title>
<path fill="none" stroke="#63b8ff" d="M2168.73,-78.7C2408.69,-74.47 3125.15,-59.63 3356.5,-30 3365.75,-28.82 3375.64,-26.95 3384.81,-24.97"/>
<polygon fill="#63b8ff" stroke="#63b8ff" points="2168.78,-75.2 2158.84,-78.87 2168.9,-82.2 2168.78,-75.2"/>
</g>
<!-- Node17 -->
<g id="node17" class="node">
<title>Node17</title>
<g id="a_node17"><a xlink:href="d__a__npc_8cpp.html" target="_top" xlink:title=" ">
<polygon fill="white" stroke="#666666" points="2141.5,-24.5 2037.5,-24.5 2037.5,-5.5 2141.5,-5.5 2141.5,-24.5"/>
<text text-anchor="middle" x="2089.5" y="-12.5" font-family="Helvetica,sans-Serif" font-size="10.00">src/d/a/d_a_npc.cpp</text>
</a>
</g>
</g>
<!-- Node3&#45;&gt;Node17 -->
<g id="edge16" class="edge">
<title>Node3&#45;&gt;Node17</title>
<path fill="none" stroke="#63b8ff" d="M2089.5,-54.59C2089.5,-44.06 2089.5,-32.53 2089.5,-24.84"/>
<polygon fill="#63b8ff" stroke="#63b8ff" points="2086,-54.28 2089.5,-64.28 2093,-54.28 2086,-54.28"/>
</g>
<!-- Node3&#45;&gt;Node18 -->
<g id="edge17" class="edge">
<title>Node3&#45;&gt;Node18</title>
<path fill="none" stroke="#63b8ff" d="M2168.5,-78.34C2391.92,-73.36 3025.42,-57.2 3231.5,-30 3240.61,-28.8 3250.35,-26.93 3259.37,-24.95"/>
<polygon fill="#63b8ff" stroke="#63b8ff" points="2168.66,-74.84 2158.74,-78.56 2168.81,-81.84 2168.66,-74.84"/>
</g>
<!-- Node19 -->
<g id="node19" class="node">
<title>Node19</title>
<g id="a_node19"><a xlink:href="d__k__wmark_8cpp.html" target="_top" xlink:title=" ">
<polygon fill="white" stroke="#666666" points="2269.5,-24.5 2159.5,-24.5 2159.5,-5.5 2269.5,-5.5 2269.5,-24.5"/>
<text text-anchor="middle" x="2214.5" y="-12.5" font-family="Helvetica,sans-Serif" font-size="10.00">src/d/d_k_wmark.cpp</text>
</a>
</g>
</g>
<!-- Node3&#45;&gt;Node19 -->
<g id="edge18" class="edge">
<title>Node3&#45;&gt;Node19</title>
<path fill="none" stroke="#63b8ff" d="M2127.73,-60.43C2150.79,-48.62 2179.08,-34.14 2196.95,-24.99"/>
<polygon fill="#63b8ff" stroke="#63b8ff" points="2126.21,-57.27 2118.9,-64.95 2129.4,-63.51 2126.21,-57.27"/>
</g>
<!-- Node20 -->
<g id="node20" class="node">
<title>Node20</title>
<g id="a_node20"><a xlink:href="d__k__wpillar_8cpp.html" target="_top" xlink:title=" ">
<polygon fill="white" stroke="#666666" points="2395.5,-24.5 2287.5,-24.5 2287.5,-5.5 2395.5,-5.5 2395.5,-24.5"/>
<text text-anchor="middle" x="2341.5" y="-12.5" font-family="Helvetica,sans-Serif" font-size="10.00">src/d/d_k_wpillar.cpp</text>
</a>
</g>
</g>
<!-- Node3&#45;&gt;Node20 -->
<g id="edge19" class="edge">
<title>Node3&#45;&gt;Node20</title>
<path fill="none" stroke="#63b8ff" d="M2157.3,-62.78C2205.31,-50.59 2267.75,-34.73 2306.21,-24.96"/>
<polygon fill="#63b8ff" stroke="#63b8ff" points="2156.67,-59.33 2147.83,-65.18 2158.39,-66.12 2156.67,-59.33"/>
</g>
<!-- Node21 -->
<g id="node21" class="node">
<title>Node21</title>
<g id="a_node21"><a xlink:href="d__model_8cpp.html" target="_top" xlink:title=" ">
<polygon fill="white" stroke="#666666" points="2509.5,-24.5 2413.5,-24.5 2413.5,-5.5 2509.5,-5.5 2509.5,-24.5"/>
<text text-anchor="middle" x="2461.5" y="-12.5" font-family="Helvetica,sans-Serif" font-size="10.00">src/d/d_model.cpp</text>
</a>
</g>
</g>
<!-- Node3&#45;&gt;Node21 -->
<g id="edge20" class="edge">
<title>Node3&#45;&gt;Node21</title>
<path fill="none" stroke="#63b8ff" d="M2168.58,-69.31C2232.49,-60.23 2324.62,-46.12 2404.5,-30 2411.79,-28.53 2419.56,-26.76 2426.94,-24.98"/>
<polygon fill="#63b8ff" stroke="#63b8ff" points="2168.3,-65.82 2158.88,-70.68 2169.27,-72.75 2168.3,-65.82"/>
</g>
<!-- Node22 -->
<g id="node22" class="node">
<title>Node22</title>
<g id="a_node22"><a xlink:href="d__resorce_8cpp.html" target="_top" xlink:title=" ">
<polygon fill="white" stroke="#666666" points="2629.5,-24.5 2527.5,-24.5 2527.5,-5.5 2629.5,-5.5 2629.5,-24.5"/>
<text text-anchor="middle" x="2578.5" y="-12.5" font-family="Helvetica,sans-Serif" font-size="10.00">src/d/d_resorce.cpp</text>
</a>
</g>
</g>
<!-- Node3&#45;&gt;Node22 -->
<g id="edge21" class="edge">
<title>Node3&#45;&gt;Node22</title>
<path fill="none" stroke="#63b8ff" d="M2168.75,-73.47C2255.14,-65.73 2397.26,-51.14 2518.5,-30 2526.51,-28.6 2535.05,-26.8 2543.1,-24.96"/>
<polygon fill="#63b8ff" stroke="#63b8ff" points="2168.62,-69.97 2158.96,-74.34 2169.24,-76.94 2168.62,-69.97"/>
</g>
<!-- Node23 -->
<g id="node23" class="node">
<title>Node23</title>
<g id="a_node23"><a xlink:href="d__file__select_8cpp.html" target="_top" xlink:title=" ">
<polygon fill="white" stroke="#666666" points="2775.5,-24.5 2647.5,-24.5 2647.5,-5.5 2775.5,-5.5 2775.5,-24.5"/>
<text text-anchor="middle" x="2711.5" y="-12.5" font-family="Helvetica,sans-Serif" font-size="10.00">src/d/file/d_file_select.cpp</text>
</a>
</g>
</g>
<!-- Node3&#45;&gt;Node23 -->
<g id="edge22" class="edge">
<title>Node3&#45;&gt;Node23</title>
<path fill="none" stroke="#63b8ff" d="M2168.69,-75.25C2275.66,-68.27 2472.08,-53.48 2638.5,-30 2648.21,-28.63 2658.59,-26.84 2668.38,-25"/>
<polygon fill="#63b8ff" stroke="#63b8ff" points="2168.63,-71.75 2158.87,-75.88 2169.08,-78.73 2168.63,-71.75"/>
</g>
<!-- Node24 -->
<g id="node24" class="node">
<title>Node24</title>
<g id="a_node24"><a xlink:href="d__kankyo_8cpp.html" target="_top" xlink:title=" ">
<polygon fill="white" stroke="#666666" points="2927.5,-24.5 2793.5,-24.5 2793.5,-5.5 2927.5,-5.5 2927.5,-24.5"/>
<text text-anchor="middle" x="2860.5" y="-12.5" font-family="Helvetica,sans-Serif" font-size="10.00">src/d/kankyo/d_kankyo.cpp</text>
</a>
</g>
</g>
<!-- Node3&#45;&gt;Node24 -->
<g id="edge23" class="edge">
<title>Node3&#45;&gt;Node24</title>
<path fill="none" stroke="#63b8ff" d="M2168.66,-77.15C2297.95,-71.86 2562.31,-58.37 2784.5,-30 2794.88,-28.67 2805.99,-26.86 2816.42,-24.97"/>
<polygon fill="#63b8ff" stroke="#63b8ff" points="2168.69,-73.65 2158.84,-77.55 2168.97,-80.64 2168.69,-73.65"/>
</g>
<!-- Node25 -->
<g id="node25" class="node">
<title>Node25</title>
<g id="a_node25"><a xlink:href="d__particle_8cpp.html" target="_top" xlink:title=" ">
<polygon fill="white" stroke="#666666" points="3081.5,-24.5 2945.5,-24.5 2945.5,-5.5 3081.5,-5.5 3081.5,-24.5"/>
<text text-anchor="middle" x="3013.5" y="-12.5" font-family="Helvetica,sans-Serif" font-size="10.00">src/d/particle/d_particle.cpp</text>
</a>
</g>
</g>
<!-- Node3&#45;&gt;Node25 -->
<g id="edge24" class="edge">
<title>Node3&#45;&gt;Node25</title>
<path fill="none" stroke="#63b8ff" d="M2168.62,-78.52C2318.81,-75 2655.34,-63.73 2936.5,-30 2947.16,-28.72 2958.57,-26.9 2969.26,-24.99"/>
<polygon fill="#63b8ff" stroke="#63b8ff" points="2168.7,-75.02 2158.78,-78.74 2168.86,-82.01 2168.7,-75.02"/>
</g>
<!-- Node26 -->
<g id="node26" class="node">
<title>Node26</title>
<g id="a_node26"><a xlink:href="m__Do__ext_8cpp.html" target="_top" xlink:title=" ">
<polygon fill="white" stroke="#666666" points="3223,-24.5 3100,-24.5 3100,-5.5 3223,-5.5 3223,-24.5"/>
<text text-anchor="middle" x="3161.5" y="-12.5" font-family="Helvetica,sans-Serif" font-size="10.00">src/m_Do/m_Do_ext.cpp</text>
</a>
</g>
</g>
<!-- Node3&#45;&gt;Node26 -->
<g id="edge25" class="edge">
<title>Node3&#45;&gt;Node26</title>
<path fill="none" stroke="#63b8ff" d="M2168.77,-79.93C2338.48,-78.93 2749.27,-71.94 3090.5,-30 3100.6,-28.76 3111.42,-26.9 3121.49,-24.94"/>
<polygon fill="#63b8ff" stroke="#63b8ff" points="2168.95,-76.43 2158.97,-79.98 2168.99,-83.43 2168.95,-76.43"/>
</g>
<!-- Node27&#45;&gt;Node13 -->
<g id="edge27" class="edge">
<title>Node27&#45;&gt;Node13</title>
<path fill="none" stroke="#63b8ff" d="M192.62,-61.54C166.95,-51.64 135.79,-39.63 111.92,-30.43"/>
<polygon fill="#63b8ff" stroke="#63b8ff" points="191.24,-64.76 201.83,-65.09 193.76,-58.23 191.24,-64.76"/>
</g>
<!-- Node27&#45;&gt;Node15 -->
<g id="edge28" class="edge">
<title>Node27&#45;&gt;Node15</title>
<path fill="none" stroke="#63b8ff" d="M240.9,-54.39C241.03,-46.13 241.17,-37.28 241.28,-30.16"/>
<polygon fill="#63b8ff" stroke="#63b8ff" points="237.4,-54.23 240.75,-64.28 244.4,-54.34 237.4,-54.23"/>
</g>
<!-- Node28&#45;&gt;Node14 -->
<g id="edge30" class="edge">
<title>Node28&#45;&gt;Node14</title>
<path fill="none" stroke="#63b8ff" d="M409.7,-54.39C409.44,-46.13 409.17,-37.28 408.94,-30.16"/>
<polygon fill="#63b8ff" stroke="#63b8ff" points="406.2,-54.4 410.01,-64.28 413.19,-54.18 406.2,-54.4"/>
</g>
<!-- Node28&#45;&gt;Node15 -->
<g id="edge31" class="edge">
<title>Node28&#45;&gt;Node15</title>
<path fill="none" stroke="#63b8ff" d="M362.1,-61.67C335.9,-51.75 304,-39.67 279.59,-30.43"/>
<polygon fill="#63b8ff" stroke="#63b8ff" points="360.57,-64.83 371.16,-65.1 363.05,-58.29 360.57,-64.83"/>
</g>
<!-- Node29&#45;&gt;Node16 -->
<g id="edge33" class="edge">
<title>Node29&#45;&gt;Node16</title>
<path fill="none" stroke="#63b8ff" d="M3638.29,-68.4C3586.31,-55.89 3504.68,-36.25 3457.51,-24.91"/>
<polygon fill="#63b8ff" stroke="#63b8ff" points="3637.22,-71.74 3647.76,-70.68 3638.86,-64.94 3637.22,-71.74"/>
</g>
<!-- Node30 -->
<g id="node30" class="node">
<title>Node30</title>
<g id="a_node30"><a xlink:href="d__a__player_8cpp.html" target="_top" xlink:title=" ">
<polygon fill="white" stroke="#666666" points="3607.5,-24.5 3493.5,-24.5 3493.5,-5.5 3607.5,-5.5 3607.5,-24.5"/>
<text text-anchor="middle" x="3550.5" y="-12.5" font-family="Helvetica,sans-Serif" font-size="10.00">src/d/a/d_a_player.cpp</text>
</a>
</g>
</g>
<!-- Node29&#45;&gt;Node30 -->
<g id="edge34" class="edge">
<title>Node29&#45;&gt;Node30</title>
<path fill="none" stroke="#63b8ff" d="M3657.32,-66.27C3630.66,-53.72 3592.01,-35.54 3569.25,-24.82"/>
<polygon fill="#63b8ff" stroke="#63b8ff" points="3655.68,-69.37 3666.22,-70.46 3658.66,-63.03 3655.68,-69.37"/>
</g>
<!-- Node31 -->
<g id="node31" class="node">
<title>Node31</title>
<g id="a_node31"><a xlink:href="d__com__inf__game_8cpp.html" target="_top" xlink:title=" ">
<polygon fill="white" stroke="#666666" points="4024.5,-30 3916.5,-30 3916.5,0 4024.5,0 4024.5,-30"/>
<text text-anchor="start" x="3924.5" y="-18" font-family="Helvetica,sans-Serif" font-size="10.00">src/d/com/d_com_inf</text>
<text text-anchor="middle" x="3970.5" y="-7" font-family="Helvetica,sans-Serif" font-size="10.00">_game.cpp</text>
</a>
</g>
</g>
<!-- Node29&#45;&gt;Node31 -->
<g id="edge35" class="edge">
<title>Node29&#45;&gt;Node31</title>
<path fill="none" stroke="#63b8ff" d="M3737.24,-68.57C3787.61,-57.21 3864.57,-39.87 3916.16,-28.24"/>
<polygon fill="#63b8ff" stroke="#63b8ff" points="3736.75,-65.09 3727.76,-70.7 3738.29,-71.92 3736.75,-65.09"/>
</g>
<!-- Node32 -->
<g id="node32" class="node">
<title>Node32</title>
<g id="a_node32"><a xlink:href="d__camera_8cpp.html" target="_top" xlink:title=" ">
<polygon fill="white" stroke="#666666" points="4144.5,-24.5 4042.5,-24.5 4042.5,-5.5 4144.5,-5.5 4144.5,-24.5"/>
<text text-anchor="middle" x="4093.5" y="-12.5" font-family="Helvetica,sans-Serif" font-size="10.00">src/d/d_camera.cpp</text>
</a>
</g>
</g>
<!-- Node29&#45;&gt;Node32 -->
<g id="edge36" class="edge">
<title>Node29&#45;&gt;Node32</title>
<path fill="none" stroke="#63b8ff" d="M3738.08,-68.8C3743.28,-67.8 3748.49,-66.84 3753.5,-66 3877.22,-45.15 3910.03,-52.28 4033.5,-30 4041.39,-28.58 4049.81,-26.78 4057.77,-24.96"/>
<polygon fill="#63b8ff" stroke="#63b8ff" points="3737.4,-65.37 3728.28,-70.75 3738.77,-72.23 3737.4,-65.37"/>
</g>
<!-- Node33 -->
<g id="node33" class="node">
<title>Node33</title>
<g id="a_node33"><a xlink:href="d__ev__camera_8cpp.html" target="_top" xlink:title=" ">
<polygon fill="white" stroke="#666666" points="4280.5,-24.5 4162.5,-24.5 4162.5,-5.5 4280.5,-5.5 4280.5,-24.5"/>
<text text-anchor="middle" x="4221.5" y="-12.5" font-family="Helvetica,sans-Serif" font-size="10.00">src/d/d_ev_camera.cpp</text>
</a>
</g>
</g>
<!-- Node29&#45;&gt;Node33 -->
<g id="edge37" class="edge">
<title>Node29&#45;&gt;Node33</title>
<path fill="none" stroke="#63b8ff" d="M3736.98,-68.8C3742.54,-67.76 3748.13,-66.8 3753.5,-66 3930.05,-39.7 3976.91,-56.04 4153.5,-30 4162.68,-28.65 4172.49,-26.84 4181.72,-24.98"/>
<polygon fill="#63b8ff" stroke="#63b8ff" points="3736.31,-65.36 3727.17,-70.72 3737.66,-72.23 3736.31,-65.36"/>
</g>
<!-- Node34 -->
<g id="node34" class="node">
<title>Node34</title>
<g id="a_node34"><a xlink:href="d__event_8cpp.html" target="_top" xlink:title=" ">
<polygon fill="white" stroke="#666666" points="3747,-24.5 3626,-24.5 3626,-5.5 3747,-5.5 3747,-24.5"/>
<text text-anchor="middle" x="3686.5" y="-12.5" font-family="Helvetica,sans-Serif" font-size="10.00">src/d/event/d_event.cpp</text>
</a>
</g>
</g>
<!-- Node29&#45;&gt;Node34 -->
<g id="edge38" class="edge">
<title>Node29&#45;&gt;Node34</title>
<path fill="none" stroke="#63b8ff" d="M3686.5,-59.68C3686.5,-47.94 3686.5,-33.77 3686.5,-24.82"/>
<polygon fill="#63b8ff" stroke="#63b8ff" points="3683,-59.59 3686.5,-69.59 3690,-59.59 3683,-59.59"/>
</g>
<!-- Node35 -->
<g id="node35" class="node">
<title>Node35</title>
<g id="a_node35"><a xlink:href="d__menu__ring_8cpp.html" target="_top" xlink:title=" ">
<polygon fill="white" stroke="#666666" points="4440.5,-24.5 4298.5,-24.5 4298.5,-5.5 4440.5,-5.5 4440.5,-24.5"/>
<text text-anchor="middle" x="4369.5" y="-12.5" font-family="Helvetica,sans-Serif" font-size="10.00">src/d/menu/d_menu_ring.cpp</text>
</a>
</g>
</g>
<!-- Node29&#45;&gt;Node35 -->
<g id="edge39" class="edge">
<title>Node29&#45;&gt;Node35</title>
<path fill="none" stroke="#63b8ff" d="M3736.07,-68.84C3741.93,-67.76 3747.83,-66.78 3753.5,-66 3990.04,-33.5 4052.46,-58.62 4289.5,-30 4300.42,-28.68 4312.11,-26.87 4323.09,-24.98"/>
<polygon fill="#63b8ff" stroke="#63b8ff" points="3735.59,-65.37 3726.44,-70.72 3736.93,-72.24 3735.59,-65.37"/>
</g>
<!-- Node36 -->
<g id="node36" class="node">
<title>Node36</title>
<g id="a_node36"><a xlink:href="d__meter2__draw_8cpp.html" target="_top" xlink:title=" ">
<polygon fill="white" stroke="#666666" points="4568.5,-30 4458.5,-30 4458.5,0 4568.5,0 4568.5,-30"/>
<text text-anchor="start" x="4466.5" y="-18" font-family="Helvetica,sans-Serif" font-size="10.00">src/d/meter/d_meter2</text>
<text text-anchor="middle" x="4513.5" y="-7" font-family="Helvetica,sans-Serif" font-size="10.00">_draw.cpp</text>
</a>
</g>
</g>
<!-- Node29&#45;&gt;Node36 -->
<g id="edge40" class="edge">
<title>Node29&#45;&gt;Node36</title>
<path fill="none" stroke="#63b8ff" d="M3735.16,-68.92C3741.31,-67.79 3747.53,-66.77 3753.5,-66 4060.68,-26.2 4142.51,-71.23 4449.5,-30 4452.32,-29.62 4455.2,-29.18 4458.1,-28.7"/>
<polygon fill="#63b8ff" stroke="#63b8ff" points="3734.87,-65.41 3725.73,-70.76 3736.21,-72.28 3734.87,-65.41"/>
</g>
<!-- Node37 -->
<g id="node37" class="node">
<title>Node37</title>
<g id="a_node37"><a xlink:href="d__msg__flow_8cpp.html" target="_top" xlink:title=" ">
<polygon fill="white" stroke="#666666" points="3898,-24.5 3765,-24.5 3765,-5.5 3898,-5.5 3898,-24.5"/>
<text text-anchor="middle" x="3831.5" y="-12.5" font-family="Helvetica,sans-Serif" font-size="10.00">src/d/msg/d_msg_flow.cpp</text>
</a>
</g>
</g>
<!-- Node29&#45;&gt;Node37 -->
<g id="edge41" class="edge">
<title>Node29&#45;&gt;Node37</title>
<path fill="none" stroke="#63b8ff" d="M3716.85,-66.6C3745.31,-54.04 3787.03,-35.63 3811.51,-24.82"/>
<polygon fill="#63b8ff" stroke="#63b8ff" points="3715.78,-63.25 3708.05,-70.49 3718.61,-69.65 3715.78,-63.25"/>
</g>
<!-- Node38 -->
<g id="node38" class="node">
<title>Node38</title>
<g id="a_node38"><a xlink:href="f__op__actor_8cpp.html" target="_top" xlink:title=" ">
<polygon fill="white" stroke="#666666" points="4706,-24.5 4587,-24.5 4587,-5.5 4706,-5.5 4706,-24.5"/>
<text text-anchor="middle" x="4646.5" y="-12.5" font-family="Helvetica,sans-Serif" font-size="10.00">src/f_op/f_op_actor.cpp</text>
</a>
</g>
</g>
<!-- Node29&#45;&gt;Node38 -->
<g id="edge42" class="edge">
<title>Node29&#45;&gt;Node38</title>
<path fill="none" stroke="#63b8ff" d="M3734.92,-68.91C3741.15,-67.77 3747.46,-66.76 3753.5,-66 4117.22,-20.36 4213.65,-74.58 4577.5,-30 4587.33,-28.8 4597.84,-26.95 4607.63,-24.99"/>
<polygon fill="#63b8ff" stroke="#63b8ff" points="3734.51,-65.43 3725.37,-70.78 3735.85,-72.3 3734.51,-65.43"/>
</g>
<!-- Node39&#45;&gt;Node16 -->
<g id="edge44" class="edge">
<title>Node39&#45;&gt;Node16</title>
<path fill="none" stroke="#63b8ff" d="M3516.63,-60.91C3491.17,-49.01 3459.59,-34.26 3439.74,-24.99"/>
<polygon fill="#63b8ff" stroke="#63b8ff" points="3514.84,-63.94 3525.38,-65 3517.8,-57.59 3514.84,-63.94"/>
</g>
<!-- Node39&#45;&gt;Node30 -->
<g id="edge45" class="edge">
<title>Node39&#45;&gt;Node30</title>
<path fill="none" stroke="#63b8ff" d="M3554.72,-54.59C3553.57,-44.06 3552.31,-32.53 3551.47,-24.84"/>
<polygon fill="#63b8ff" stroke="#63b8ff" points="3551.22,-54.73 3555.78,-64.29 3558.17,-53.97 3551.22,-54.73"/>
</g>
<!-- Node39&#45;&gt;Node34 -->
<g id="edge46" class="edge">
<title>Node39&#45;&gt;Node34</title>
<path fill="none" stroke="#63b8ff" d="M3596.63,-60.59C3620.49,-48.75 3649.86,-34.18 3668.39,-24.99"/>
<polygon fill="#63b8ff" stroke="#63b8ff" points="3595.21,-57.38 3587.81,-64.96 3598.32,-63.66 3595.21,-57.38"/>
</g>
<!-- Node39&#45;&gt;Node37 -->
<g id="edge47" class="edge">
<title>Node39&#45;&gt;Node37</title>
<path fill="none" stroke="#63b8ff" d="M3622,-64.93C3675.18,-52.51 3748.84,-35.31 3793.16,-24.96"/>
<polygon fill="#63b8ff" stroke="#63b8ff" points="3621.4,-61.48 3612.45,-67.16 3622.99,-68.3 3621.4,-61.48"/>
</g>
</g>
</svg>
