<?xml version="1.0" encoding="UTF-8" standalone="no"?>
<!DOCTYPE svg PUBLIC "-//W3C//DTD SVG 1.1//EN"
 "http://www.w3.org/Graphics/SVG/1.1/DTD/svg11.dtd">
<!-- Generated by graphviz version 2.50.0 (20220203.2022)
 -->
<!-- Title: libs/JSystem/J3DGraphBase/J3DTevs.cpp Pages: 1 -->
<svg width="3456pt" height="408pt"
 viewBox="0.00 0.00 3456.00 408.00" xmlns="http://www.w3.org/2000/svg" xmlns:xlink="http://www.w3.org/1999/xlink">
<g id="graph0" class="graph" transform="scale(1 1) rotate(0) translate(4 404)">
<title>libs/JSystem/J3DGraphBase/J3DTevs.cpp</title>
<polygon fill="white" stroke="transparent" points="-4,4 -4,-404 3452,-404 3452,4 -4,4"/>
<!-- Node1 -->
<g id="node1" class="node">
<title>Node1</title>
<g id="a_node1"><a xlink:title=" ">
<polygon fill="#bfbfbf" stroke="black" points="1423,-369.5 1423,-399.5 1565,-399.5 1565,-369.5 1423,-369.5"/>
<text text-anchor="start" x="1431" y="-387.5" font-family="Helvetica,sans-Serif" font-size="10.00">libs/JSystem/J3DGraphBase</text>
<text text-anchor="middle" x="1494" y="-376.5" font-family="Helvetica,sans-Serif" font-size="10.00">/J3DTevs.cpp</text>
</a>
</g>
</g>
<!-- Node2 -->
<g id="node2" class="node">
<title>Node2</title>
<g id="a_node2"><a xlink:href="J3DTevs_8h.html" target="_top" xlink:title=" ">
<polygon fill="white" stroke="black" points="28,-224.5 28,-254.5 152,-254.5 152,-224.5 28,-224.5"/>
<text text-anchor="start" x="36" y="-242.5" font-family="Helvetica,sans-Serif" font-size="10.00">JSystem/J3DGraphBase</text>
<text text-anchor="middle" x="90" y="-231.5" font-family="Helvetica,sans-Serif" font-size="10.00">/J3DTevs.h</text>
</a>
</g>
</g>
<!-- Node1&#45;&gt;Node2 -->
<g id="edge1" class="edge">
<title>Node1&#45;&gt;Node2</title>
<path fill="none" stroke="midnightblue" d="M1422.53,-383.32C1146.06,-382.32 159.51,-375.74 109,-333 89.62,-316.6 86.73,-286.2 87.48,-264.73"/>
<polygon fill="midnightblue" stroke="midnightblue" points="90.97,-264.93 88.1,-254.73 83.99,-264.49 90.97,-264.93"/>
</g>
<!-- Node3 -->
<g id="node3" class="node">
<title>Node3</title>
<g id="a_node3"><a xlink:href="types_8h.html" target="_top" xlink:title=" ">
<polygon fill="white" stroke="black" points="269.5,-0.5 269.5,-19.5 350.5,-19.5 350.5,-0.5 269.5,-0.5"/>
<text text-anchor="middle" x="310" y="-7.5" font-family="Helvetica,sans-Serif" font-size="10.00">dolphin/types.h</text>
</a>
</g>
</g>
<!-- Node1&#45;&gt;Node3 -->
<g id="edge23" class="edge">
<title>Node1&#45;&gt;Node3</title>
<path fill="none" stroke="midnightblue" d="M1422.82,-382.47C1145.04,-378.26 146.21,-361.2 85,-333 34.29,-309.64 0,-296.33 0,-240.5 0,-240.5 0,-240.5 0,-121 0,-66.62 171.59,-32.27 259.45,-18.24"/>
<polygon fill="midnightblue" stroke="midnightblue" points="260.13,-21.68 269.47,-16.67 259.05,-14.76 260.13,-21.68"/>
</g>
<!-- Node4 -->
<g id="node4" class="node">
<title>Node4</title>
<g id="a_node4"><a xlink:href="J3DSys_8h.html" target="_top" xlink:title=" ">
<polygon fill="white" stroke="black" points="118,-297 118,-327 242,-327 242,-297 118,-297"/>
<text text-anchor="start" x="126" y="-315" font-family="Helvetica,sans-Serif" font-size="10.00">JSystem/J3DGraphBase</text>
<text text-anchor="middle" x="180" y="-304" font-family="Helvetica,sans-Serif" font-size="10.00">/J3DSys.h</text>
</a>
</g>
</g>
<!-- Node1&#45;&gt;Node4 -->
<g id="edge3" class="edge">
<title>Node1&#45;&gt;Node4</title>
<path fill="none" stroke="midnightblue" d="M1422.64,-382.79C1193.65,-380.18 479.1,-369.25 251,-333 245.25,-332.09 239.3,-330.87 233.4,-329.48"/>
<polygon fill="midnightblue" stroke="midnightblue" points="234.13,-326.05 223.58,-327 232.42,-332.84 234.13,-326.05"/>
</g>
<!-- Node12 -->
<g id="node12" class="node">
<title>Node12</title>
<g id="a_node12"><a xlink:href="dol2asm_8h.html" target="_top" xlink:title=" ">
<polygon fill="white" stroke="black" points="260.5,-302.5 260.5,-321.5 321.5,-321.5 321.5,-302.5 260.5,-302.5"/>
<text text-anchor="middle" x="291" y="-309.5" font-family="Helvetica,sans-Serif" font-size="10.00">dol2asm.h</text>
</a>
</g>
</g>
<!-- Node1&#45;&gt;Node12 -->
<g id="edge22" class="edge">
<title>Node1&#45;&gt;Node12</title>
<path fill="none" stroke="midnightblue" d="M1422.91,-382.18C1186.42,-377.56 435.23,-360.84 330,-333 324.3,-331.49 318.48,-329.06 313.13,-326.41"/>
<polygon fill="midnightblue" stroke="midnightblue" points="314.6,-323.23 304.14,-321.54 311.26,-329.38 314.6,-323.23"/>
</g>
<!-- Node13 -->
<g id="node13" class="node">
<title>Node13</title>
<g id="a_node13"><a xlink:title=" ">
<polygon fill="white" stroke="#bfbfbf" points="339.5,-297 339.5,-327 524.5,-327 524.5,-297 339.5,-297"/>
<text text-anchor="start" x="347.5" y="-315" font-family="Helvetica,sans-Serif" font-size="10.00">asm/JSystem/J3DGraphBase</text>
<text text-anchor="middle" x="432" y="-304" font-family="Helvetica,sans-Serif" font-size="10.00">/J3DTevs/load__11J3DLightObjCFUl.s</text>
</a>
</g>
</g>
<!-- Node1&#45;&gt;Node13 -->
<g id="edge24" class="edge">
<title>Node1&#45;&gt;Node13</title>
<path fill="none" stroke="midnightblue" d="M1422.94,-383.18C1263.37,-381.72 864.65,-373.91 534,-333 524.99,-331.89 515.58,-330.44 506.28,-328.83"/>
<polygon fill="midnightblue" stroke="midnightblue" points="506.72,-325.35 496.26,-327.03 505.48,-332.24 506.72,-325.35"/>
</g>
<!-- Node14 -->
<g id="node14" class="node">
<title>Node14</title>
<g id="a_node14"><a xlink:title=" ">
<polygon fill="white" stroke="#bfbfbf" points="543,-291.5 543,-332.5 689,-332.5 689,-291.5 543,-291.5"/>
<text text-anchor="start" x="551" y="-320.5" font-family="Helvetica,sans-Serif" font-size="10.00">asm/JSystem/J3DGraphBase</text>
<text text-anchor="start" x="551" y="-309.5" font-family="Helvetica,sans-Serif" font-size="10.00">/J3DTevs/loadTexCoordGens</text>
<text text-anchor="middle" x="616" y="-298.5" font-family="Helvetica,sans-Serif" font-size="10.00">__FUlP11J3DTexCoord.s</text>
</a>
</g>
</g>
<!-- Node1&#45;&gt;Node14 -->
<g id="edge25" class="edge">
<title>Node1&#45;&gt;Node14</title>
<path fill="none" stroke="midnightblue" d="M1422.74,-383.17C1284.64,-381.61 971,-373.63 699.25,-333.05"/>
<polygon fill="midnightblue" stroke="midnightblue" points="699.6,-329.56 689.19,-331.53 698.55,-336.48 699.6,-329.56"/>
</g>
<!-- Node15 -->
<g id="node15" class="node">
<title>Node15</title>
<g id="a_node15"><a xlink:title=" ">
<polygon fill="white" stroke="#bfbfbf" points="707,-291.5 707,-332.5 883,-332.5 883,-291.5 707,-291.5"/>
<text text-anchor="start" x="715" y="-320.5" font-family="Helvetica,sans-Serif" font-size="10.00">asm/JSystem/J3DGraphBase</text>
<text text-anchor="start" x="715" y="-309.5" font-family="Helvetica,sans-Serif" font-size="10.00">/J3DTevs/calcTexMtx__9J3DTexMtx</text>
<text text-anchor="middle" x="795" y="-298.5" font-family="Helvetica,sans-Serif" font-size="10.00">FPA4_Cf.s</text>
</a>
</g>
</g>
<!-- Node1&#45;&gt;Node15 -->
<g id="edge26" class="edge">
<title>Node1&#45;&gt;Node15</title>
<path fill="none" stroke="midnightblue" d="M1422.79,-380.29C1311.69,-374.67 1090.25,-361.03 893.17,-333.08"/>
<polygon fill="midnightblue" stroke="midnightblue" points="893.6,-329.61 883.21,-331.65 892.61,-336.54 893.6,-329.61"/>
</g>
<!-- Node16 -->
<g id="node16" class="node">
<title>Node16</title>
<g id="a_node16"><a xlink:title=" ">
<polygon fill="white" stroke="#bfbfbf" points="901,-291.5 901,-332.5 1047,-332.5 1047,-291.5 901,-291.5"/>
<text text-anchor="start" x="909" y="-320.5" font-family="Helvetica,sans-Serif" font-size="10.00">asm/JSystem/J3DGraphBase</text>
<text text-anchor="start" x="909" y="-309.5" font-family="Helvetica,sans-Serif" font-size="10.00">/J3DTevs/calcPostTexMtx</text>
<text text-anchor="middle" x="974" y="-298.5" font-family="Helvetica,sans-Serif" font-size="10.00">__9J3DTexMtxFPA4_Cf.s</text>
</a>
</g>
</g>
<!-- Node1&#45;&gt;Node16 -->
<g id="edge27" class="edge">
<title>Node1&#45;&gt;Node16</title>
<path fill="none" stroke="midnightblue" d="M1422.85,-377.95C1338.16,-370.75 1192.36,-356.45 1057.33,-332.94"/>
<polygon fill="midnightblue" stroke="midnightblue" points="1057.67,-329.44 1047.22,-331.15 1056.46,-336.34 1057.67,-329.44"/>
</g>
<!-- Node17 -->
<g id="node17" class="node">
<title>Node17</title>
<g id="a_node17"><a xlink:title=" ">
<polygon fill="white" stroke="#bfbfbf" points="1065.5,-297 1065.5,-327 1216.5,-327 1216.5,-297 1065.5,-297"/>
<text text-anchor="start" x="1073.5" y="-315" font-family="Helvetica,sans-Serif" font-size="10.00">asm/JSystem/J3DGraphBase</text>
<text text-anchor="middle" x="1141" y="-304" font-family="Helvetica,sans-Serif" font-size="10.00">/J3DTevs/isTexNoReg__FPv.s</text>
</a>
</g>
</g>
<!-- Node1&#45;&gt;Node17 -->
<g id="edge28" class="edge">
<title>Node1&#45;&gt;Node17</title>
<path fill="none" stroke="midnightblue" d="M1422.73,-370.97C1368.63,-361.24 1292.47,-347.07 1226,-333 1220.39,-331.81 1214.59,-330.54 1208.77,-329.23"/>
<polygon fill="midnightblue" stroke="midnightblue" points="1209.52,-325.81 1198.99,-327.01 1207.97,-332.64 1209.52,-325.81"/>
</g>
<!-- Node18 -->
<g id="node18" class="node">
<title>Node18</title>
<g id="a_node18"><a xlink:title=" ">
<polygon fill="white" stroke="#bfbfbf" points="1234.5,-297 1234.5,-327 1391.5,-327 1391.5,-297 1234.5,-297"/>
<text text-anchor="start" x="1242.5" y="-315" font-family="Helvetica,sans-Serif" font-size="10.00">asm/JSystem/J3DGraphBase</text>
<text text-anchor="middle" x="1313" y="-304" font-family="Helvetica,sans-Serif" font-size="10.00">/J3DTevs/getTexNoReg__FPv.s</text>
</a>
</g>
</g>
<!-- Node1&#45;&gt;Node18 -->
<g id="edge29" class="edge">
<title>Node1&#45;&gt;Node18</title>
<path fill="none" stroke="midnightblue" d="M1457.81,-369.4C1429.32,-358.31 1389.44,-342.78 1358.75,-330.82"/>
<polygon fill="midnightblue" stroke="midnightblue" points="1359.72,-327.44 1349.13,-327.07 1357.18,-333.96 1359.72,-327.44"/>
</g>
<!-- Node19 -->
<g id="node19" class="node">
<title>Node19</title>
<g id="a_node19"><a xlink:title=" ">
<polygon fill="white" stroke="#bfbfbf" points="1410,-297 1410,-327 1578,-327 1578,-297 1410,-297"/>
<text text-anchor="start" x="1418" y="-315" font-family="Helvetica,sans-Serif" font-size="10.00">asm/JSystem/J3DGraphBase</text>
<text text-anchor="middle" x="1494" y="-304" font-family="Helvetica,sans-Serif" font-size="10.00">/J3DTevs/loadTexNo__FUlRCUs.s</text>
</a>
</g>
</g>
<!-- Node1&#45;&gt;Node19 -->
<g id="edge30" class="edge">
<title>Node1&#45;&gt;Node19</title>
<path fill="none" stroke="midnightblue" d="M1494,-369.23C1494,-360.16 1494,-348.16 1494,-337.58"/>
<polygon fill="midnightblue" stroke="midnightblue" points="1497.5,-337.25 1494,-327.25 1490.5,-337.25 1497.5,-337.25"/>
</g>
<!-- Node20 -->
<g id="node20" class="node">
<title>Node20</title>
<g id="a_node20"><a xlink:title=" ">
<polygon fill="white" stroke="#bfbfbf" points="1596,-291.5 1596,-332.5 1752,-332.5 1752,-291.5 1596,-291.5"/>
<text text-anchor="start" x="1604" y="-320.5" font-family="Helvetica,sans-Serif" font-size="10.00">asm/JSystem/J3DGraphBase</text>
<text text-anchor="start" x="1604" y="-309.5" font-family="Helvetica,sans-Serif" font-size="10.00">/J3DTevs/patchTexNo_PtrToIdx</text>
<text text-anchor="middle" x="1674" y="-298.5" font-family="Helvetica,sans-Serif" font-size="10.00">__FUlRCUs.s</text>
</a>
</g>
</g>
<!-- Node1&#45;&gt;Node20 -->
<g id="edge31" class="edge">
<title>Node1&#45;&gt;Node20</title>
<path fill="none" stroke="midnightblue" d="M1529.99,-369.4C1554.13,-359.95 1586.49,-347.27 1614.42,-336.34"/>
<polygon fill="midnightblue" stroke="midnightblue" points="1616.06,-339.45 1624.09,-332.55 1613.51,-332.93 1616.06,-339.45"/>
</g>
<!-- Node21 -->
<g id="node21" class="node">
<title>Node21</title>
<g id="a_node21"><a xlink:title=" ">
<polygon fill="white" stroke="#bfbfbf" points="1770,-291.5 1770,-332.5 1916,-332.5 1916,-291.5 1770,-291.5"/>
<text text-anchor="start" x="1778" y="-320.5" font-family="Helvetica,sans-Serif" font-size="10.00">asm/JSystem/J3DGraphBase</text>
<text text-anchor="start" x="1778" y="-309.5" font-family="Helvetica,sans-Serif" font-size="10.00">/J3DTevs/loadNBTScale_</text>
<text text-anchor="middle" x="1843" y="-298.5" font-family="Helvetica,sans-Serif" font-size="10.00">_FR11J3DNBTScale.s</text>
</a>
</g>
</g>
<!-- Node1&#45;&gt;Node21 -->
<g id="edge32" class="edge">
<title>Node1&#45;&gt;Node21</title>
<path fill="none" stroke="midnightblue" d="M1565.04,-371.11C1616.53,-361.88 1688.06,-348.58 1759.63,-333.25"/>
<polygon fill="midnightblue" stroke="midnightblue" points="1760.69,-336.6 1769.73,-331.07 1759.21,-329.76 1760.69,-336.6"/>
</g>
<!-- Node22 -->
<g id="node22" class="node">
<title>Node22</title>
<g id="a_node22"><a xlink:title=" ">
<polygon fill="white" stroke="#bfbfbf" points="1934,-297 1934,-327 2114,-327 2114,-297 1934,-297"/>
<text text-anchor="start" x="1942" y="-315" font-family="Helvetica,sans-Serif" font-size="10.00">asm/JSystem/J3DGraphBase</text>
<text text-anchor="middle" x="2024" y="-304" font-family="Helvetica,sans-Serif" font-size="10.00">/J3DTevs/makeTexCoordTable__Fv.s</text>
</a>
</g>
</g>
<!-- Node1&#45;&gt;Node22 -->
<g id="edge33" class="edge">
<title>Node1&#45;&gt;Node22</title>
<path fill="none" stroke="midnightblue" d="M1565.18,-376.98C1650.83,-368.72 1798.89,-353.09 1925,-333 1932.61,-331.79 1940.52,-330.4 1948.41,-328.94"/>
<polygon fill="midnightblue" stroke="midnightblue" points="1949.2,-332.35 1958.37,-327.05 1947.89,-325.48 1949.2,-332.35"/>
</g>
<!-- Node23 -->
<g id="node23" class="node">
<title>Node23</title>
<g id="a_node23"><a xlink:title=" ">
<polygon fill="white" stroke="#bfbfbf" points="2132,-297 2132,-327 2316,-327 2316,-297 2132,-297"/>
<text text-anchor="start" x="2140" y="-315" font-family="Helvetica,sans-Serif" font-size="10.00">asm/JSystem/J3DGraphBase</text>
<text text-anchor="middle" x="2224" y="-304" font-family="Helvetica,sans-Serif" font-size="10.00">/J3DTevs/makeAlphaCmpTable__Fv.s</text>
</a>
</g>
</g>
<!-- Node1&#45;&gt;Node23 -->
<g id="edge34" class="edge">
<title>Node1&#45;&gt;Node23</title>
<path fill="none" stroke="midnightblue" d="M1565.04,-380.47C1681.87,-374.89 1921.71,-360.92 2123,-333 2131.49,-331.82 2140.34,-330.38 2149.13,-328.82"/>
<polygon fill="midnightblue" stroke="midnightblue" points="2149.78,-332.26 2158.99,-327.02 2148.52,-325.38 2149.78,-332.26"/>
</g>
<!-- Node24 -->
<g id="node24" class="node">
<title>Node24</title>
<g id="a_node24"><a xlink:title=" ">
<polygon fill="white" stroke="#bfbfbf" points="2334.5,-297 2334.5,-327 2503.5,-327 2503.5,-297 2334.5,-297"/>
<text text-anchor="start" x="2342.5" y="-315" font-family="Helvetica,sans-Serif" font-size="10.00">asm/JSystem/J3DGraphBase</text>
<text text-anchor="middle" x="2419" y="-304" font-family="Helvetica,sans-Serif" font-size="10.00">/J3DTevs/makeZModeTable__Fv.s</text>
</a>
</g>
</g>
<!-- Node1&#45;&gt;Node24 -->
<g id="edge35" class="edge">
<title>Node1&#45;&gt;Node24</title>
<path fill="none" stroke="midnightblue" d="M1565.21,-382.74C1709.32,-380.41 2045.54,-371.01 2325,-333 2332.99,-331.91 2341.32,-330.52 2349.57,-328.98"/>
<polygon fill="midnightblue" stroke="midnightblue" points="2350.41,-332.39 2359.56,-327.04 2349.08,-325.51 2350.41,-332.39"/>
</g>
<!-- Node25 -->
<g id="node25" class="node">
<title>Node25</title>
<g id="a_node25"><a xlink:title=" ">
<polygon fill="white" stroke="#bfbfbf" points="2522,-297 2522,-327 2702,-327 2702,-297 2522,-297"/>
<text text-anchor="start" x="2530" y="-315" font-family="Helvetica,sans-Serif" font-size="10.00">asm/JSystem/J3DGraphBase</text>
<text text-anchor="middle" x="2612" y="-304" font-family="Helvetica,sans-Serif" font-size="10.00">/J3DTevs/makeTevSwapTable__Fv.s</text>
</a>
</g>
</g>
<!-- Node1&#45;&gt;Node25 -->
<g id="edge36" class="edge">
<title>Node1&#45;&gt;Node25</title>
<path fill="none" stroke="midnightblue" d="M1565.04,-383.63C1731.43,-383.14 2159.07,-377.27 2513,-333 2521.72,-331.91 2530.83,-330.48 2539.83,-328.88"/>
<polygon fill="midnightblue" stroke="midnightblue" points="2540.72,-332.28 2549.92,-327.02 2539.45,-325.39 2540.72,-332.28"/>
</g>
<!-- Node26 -->
<g id="node26" class="node">
<title>Node26</title>
<g id="a_node26"><a xlink:title=" ">
<polygon fill="white" stroke="#bfbfbf" points="2720,-291.5 2720,-332.5 2896,-332.5 2896,-291.5 2720,-291.5"/>
<text text-anchor="start" x="2728" y="-320.5" font-family="Helvetica,sans-Serif" font-size="10.00">asm/JSystem/J3DGraphBase</text>
<text text-anchor="start" x="2728" y="-309.5" font-family="Helvetica,sans-Serif" font-size="10.00">/J3DTevs/loadTexMtx__9J3DTexMtx</text>
<text text-anchor="middle" x="2808" y="-298.5" font-family="Helvetica,sans-Serif" font-size="10.00">CFUl.s</text>
</a>
</g>
</g>
<!-- Node1&#45;&gt;Node26 -->
<g id="edge37" class="edge">
<title>Node1&#45;&gt;Node26</title>
<path fill="none" stroke="midnightblue" d="M1565.36,-382.06C1787.77,-377.32 2467.46,-361.02 2709.65,-333.03"/>
<polygon fill="midnightblue" stroke="midnightblue" points="2710.3,-336.47 2719.81,-331.81 2709.47,-329.52 2710.3,-336.47"/>
</g>
<!-- Node27 -->
<g id="node27" class="node">
<title>Node27</title>
<g id="a_node27"><a xlink:title=" ">
<polygon fill="white" stroke="#bfbfbf" points="2914,-291.5 2914,-332.5 3060,-332.5 3060,-291.5 2914,-291.5"/>
<text text-anchor="start" x="2922" y="-320.5" font-family="Helvetica,sans-Serif" font-size="10.00">asm/JSystem/J3DGraphBase</text>
<text text-anchor="start" x="2922" y="-309.5" font-family="Helvetica,sans-Serif" font-size="10.00">/J3DTevs/loadPostTexMtx</text>
<text text-anchor="middle" x="2987" y="-298.5" font-family="Helvetica,sans-Serif" font-size="10.00">__9J3DTexMtxCFUl.s</text>
</a>
</g>
</g>
<!-- Node1&#45;&gt;Node27 -->
<g id="edge38" class="edge">
<title>Node1&#45;&gt;Node27</title>
<path fill="none" stroke="midnightblue" d="M1565.21,-382.87C1810.73,-380.39 2621.87,-369.66 2903.62,-333"/>
<polygon fill="midnightblue" stroke="midnightblue" points="2904.38,-336.43 2913.82,-331.63 2903.45,-329.49 2904.38,-336.43"/>
</g>
<!-- Node28 -->
<g id="node28" class="node">
<title>Node28</title>
<g id="a_node28"><a xlink:title=" ">
<polygon fill="white" stroke="#bfbfbf" points="3078,-291.5 3078,-332.5 3244,-332.5 3244,-291.5 3078,-291.5"/>
<text text-anchor="start" x="3086" y="-320.5" font-family="Helvetica,sans-Serif" font-size="10.00">asm/JSystem/J3DGraphBase</text>
<text text-anchor="start" x="3086" y="-309.5" font-family="Helvetica,sans-Serif" font-size="10.00">/J3DTevs/J3DGDLoadTexMtxImm</text>
<text text-anchor="middle" x="3161" y="-298.5" font-family="Helvetica,sans-Serif" font-size="10.00">__FPA4_fUl13_GXTexMtxType.s</text>
</a>
</g>
</g>
<!-- Node1&#45;&gt;Node28 -->
<g id="edge39" class="edge">
<title>Node1&#45;&gt;Node28</title>
<path fill="none" stroke="midnightblue" d="M1565.02,-382.94C1828.65,-380.6 2751.74,-369.98 3067.79,-333"/>
<polygon fill="midnightblue" stroke="midnightblue" points="3068.36,-336.45 3077.87,-331.78 3067.52,-329.5 3068.36,-336.45"/>
</g>
<!-- Node29 -->
<g id="node29" class="node">
<title>Node29</title>
<g id="a_node29"><a xlink:title=" ">
<polygon fill="white" stroke="#bfbfbf" points="3262,-291.5 3262,-332.5 3448,-332.5 3448,-291.5 3262,-291.5"/>
<text text-anchor="start" x="3270" y="-320.5" font-family="Helvetica,sans-Serif" font-size="10.00">asm/JSystem/J3DGraphBase</text>
<text text-anchor="start" x="3270" y="-309.5" font-family="Helvetica,sans-Serif" font-size="10.00">/J3DTevs/J3DGDLoadPostTexMtxImm</text>
<text text-anchor="middle" x="3355" y="-298.5" font-family="Helvetica,sans-Serif" font-size="10.00">__FPA4_fUl.s</text>
</a>
</g>
</g>
<!-- Node1&#45;&gt;Node29 -->
<g id="edge40" class="edge">
<title>Node1&#45;&gt;Node29</title>
<path fill="none" stroke="midnightblue" d="M1565.32,-383.02C1848.84,-380.88 2897.46,-370.63 3251.96,-332.99"/>
<polygon fill="midnightblue" stroke="midnightblue" points="3252.42,-336.46 3261.99,-331.89 3251.67,-329.5 3252.42,-336.46"/>
</g>
<!-- Node2&#45;&gt;Node3 -->
<g id="edge2" class="edge">
<title>Node2&#45;&gt;Node3</title>
<path fill="none" stroke="midnightblue" d="M90.09,-224.3C91.1,-190.15 98.57,-102.85 147,-56 176.77,-27.21 223.23,-16.48 258.94,-12.66"/>
<polygon fill="midnightblue" stroke="midnightblue" points="259.54,-16.12 269.18,-11.71 258.9,-9.15 259.54,-16.12"/>
</g>
<!-- Node4&#45;&gt;Node3 -->
<g id="edge21" class="edge">
<title>Node4&#45;&gt;Node3</title>
<path fill="none" stroke="midnightblue" d="M177.01,-296.86C169.06,-255.28 151.62,-131.6 207,-56 219.58,-38.83 240.13,-28.12 259.59,-21.49"/>
<polygon fill="midnightblue" stroke="midnightblue" points="260.8,-24.77 269.31,-18.46 258.72,-18.09 260.8,-24.77"/>
</g>
<!-- Node5 -->
<g id="node5" class="node">
<title>Node5</title>
<g id="a_node5"><a xlink:href="GX_8h.html" target="_top" xlink:title=" ">
<polygon fill="white" stroke="black" points="390.5,-230 390.5,-249 475.5,-249 475.5,-230 390.5,-230"/>
<text text-anchor="middle" x="433" y="-237" font-family="Helvetica,sans-Serif" font-size="10.00">dolphin/gx/GX.h</text>
</a>
</g>
</g>
<!-- Node4&#45;&gt;Node5 -->
<g id="edge4" class="edge">
<title>Node4&#45;&gt;Node5</title>
<path fill="none" stroke="midnightblue" d="M229.65,-296.99C236.81,-294.97 244.09,-292.93 251,-291 299.5,-277.44 355.3,-261.98 392.19,-251.77"/>
<polygon fill="midnightblue" stroke="midnightblue" points="393.37,-255.08 402.08,-249.04 391.5,-248.33 393.37,-255.08"/>
</g>
<!-- Node7 -->
<g id="node7" class="node">
<title>Node7</title>
<g id="a_node7"><a xlink:href="mtx_8h.html" target="_top" xlink:title=" ">
<polygon fill="white" stroke="black" points="207,-168.5 207,-187.5 299,-187.5 299,-168.5 207,-168.5"/>
<text text-anchor="middle" x="253" y="-175.5" font-family="Helvetica,sans-Serif" font-size="10.00">dolphin/mtx/mtx.h</text>
</a>
</g>
</g>
<!-- Node4&#45;&gt;Node7 -->
<g id="edge20" class="edge">
<title>Node4&#45;&gt;Node7</title>
<path fill="none" stroke="midnightblue" d="M187.81,-296.87C201.25,-272.58 228.7,-222.94 243.32,-196.5"/>
<polygon fill="midnightblue" stroke="midnightblue" points="246.47,-198.04 248.25,-187.6 240.34,-194.65 246.47,-198.04"/>
</g>
<!-- Node5&#45;&gt;Node3 -->
<g id="edge17" class="edge">
<title>Node5&#45;&gt;Node3</title>
<path fill="none" stroke="midnightblue" d="M452.92,-229.93C470.92,-221.4 497.24,-206.87 515,-188 556.77,-143.64 590.95,-102.86 552,-56 528.19,-27.36 424.62,-16.86 360.94,-13.07"/>
<polygon fill="midnightblue" stroke="midnightblue" points="360.88,-9.56 350.7,-12.5 360.49,-16.55 360.88,-9.56"/>
</g>
<!-- Node6 -->
<g id="node6" class="node">
<title>Node6</title>
<g id="a_node6"><a xlink:href="GXDisplayList_8h.html" target="_top" xlink:title=" ">
<polygon fill="white" stroke="black" points="319.5,-168.5 319.5,-187.5 452.5,-187.5 452.5,-168.5 319.5,-168.5"/>
<text text-anchor="middle" x="386" y="-175.5" font-family="Helvetica,sans-Serif" font-size="10.00">dolphin/gx/GXDisplayList.h</text>
</a>
</g>
</g>
<!-- Node5&#45;&gt;Node6 -->
<g id="edge5" class="edge">
<title>Node5&#45;&gt;Node6</title>
<path fill="none" stroke="midnightblue" d="M426.27,-229.98C419.22,-221.05 407.97,-206.81 399.15,-195.64"/>
<polygon fill="midnightblue" stroke="midnightblue" points="401.67,-193.19 392.72,-187.51 396.17,-197.53 401.67,-193.19"/>
</g>
<!-- Node5&#45;&gt;Node7 -->
<g id="edge7" class="edge">
<title>Node5&#45;&gt;Node7</title>
<path fill="none" stroke="midnightblue" d="M407.21,-229.98C376.07,-219.68 323.52,-202.31 288.55,-190.75"/>
<polygon fill="midnightblue" stroke="midnightblue" points="289.34,-187.32 278.74,-187.51 287.14,-193.97 289.34,-187.32"/>
</g>
<!-- Node8 -->
<g id="node8" class="node">
<title>Node8</title>
<g id="a_node8"><a xlink:href="mtx44_8h.html" target="_top" xlink:title=" ">
<polygon fill="white" stroke="black" points="417.5,-112.5 417.5,-131.5 520.5,-131.5 520.5,-112.5 417.5,-112.5"/>
<text text-anchor="middle" x="469" y="-119.5" font-family="Helvetica,sans-Serif" font-size="10.00">dolphin/mtx/mtx44.h</text>
</a>
</g>
</g>
<!-- Node5&#45;&gt;Node8 -->
<g id="edge16" class="edge">
<title>Node5&#45;&gt;Node8</title>
<path fill="none" stroke="midnightblue" d="M439.28,-229.68C445.85,-219.96 455.92,-203.64 461,-188 465.89,-172.95 467.83,-155.04 468.58,-141.84"/>
<polygon fill="midnightblue" stroke="midnightblue" points="472.09,-141.77 468.98,-131.64 465.09,-141.5 472.09,-141.77"/>
</g>
<!-- Node11 -->
<g id="node11" class="node">
<title>Node11</title>
<g id="a_node11"><a xlink:href="global_8h.html" target="_top" xlink:title=" ">
<polygon fill="white" stroke="black" points="493,-56.5 493,-75.5 543,-75.5 543,-56.5 493,-56.5"/>
<text text-anchor="middle" x="518" y="-63.5" font-family="Helvetica,sans-Serif" font-size="10.00">global.h</text>
</a>
</g>
</g>
<!-- Node5&#45;&gt;Node11 -->
<g id="edge18" class="edge">
<title>Node5&#45;&gt;Node11</title>
<path fill="none" stroke="midnightblue" d="M445.13,-229.97C466.9,-213.82 511.95,-176.38 529,-132 534.83,-116.83 530.8,-98.48 526.07,-85.16"/>
<polygon fill="midnightblue" stroke="midnightblue" points="529.25,-83.69 522.29,-75.7 522.75,-86.28 529.25,-83.69"/>
</g>
<!-- Node6&#45;&gt;Node3 -->
<g id="edge6" class="edge">
<title>Node6&#45;&gt;Node3</title>
<path fill="none" stroke="midnightblue" d="M384.27,-168.44C381.62,-155.87 376.11,-131.76 369,-112 359.71,-86.18 356.96,-79.62 343,-56 337.21,-46.2 329.78,-35.92 323.44,-27.66"/>
<polygon fill="midnightblue" stroke="midnightblue" points="326.05,-25.31 317.11,-19.61 320.54,-29.63 326.05,-25.31"/>
</g>
<!-- Node7&#45;&gt;Node3 -->
<g id="edge15" class="edge">
<title>Node7&#45;&gt;Node3</title>
<path fill="none" stroke="midnightblue" d="M246.1,-168.43C230.28,-147.68 194.5,-93.66 218,-56 227.76,-40.36 244.7,-30.01 261.4,-23.23"/>
<polygon fill="midnightblue" stroke="midnightblue" points="262.98,-26.38 271.15,-19.64 260.56,-19.81 262.98,-26.38"/>
</g>
<!-- Node7&#45;&gt;Node8 -->
<g id="edge8" class="edge">
<title>Node7&#45;&gt;Node8</title>
<path fill="none" stroke="midnightblue" d="M287.23,-168.44C324.51,-159.12 384.27,-144.18 425.01,-134"/>
<polygon fill="midnightblue" stroke="midnightblue" points="426.08,-137.34 434.93,-131.52 424.38,-130.55 426.08,-137.34"/>
</g>
<!-- Node9 -->
<g id="node9" class="node">
<title>Node9</title>
<g id="a_node9"><a xlink:href="quat_8h.html" target="_top" xlink:title=" ">
<polygon fill="white" stroke="black" points="265.5,-112.5 265.5,-131.5 360.5,-131.5 360.5,-112.5 265.5,-112.5"/>
<text text-anchor="middle" x="313" y="-119.5" font-family="Helvetica,sans-Serif" font-size="10.00">dolphin/mtx/quat.h</text>
</a>
</g>
</g>
<!-- Node7&#45;&gt;Node9 -->
<g id="edge10" class="edge">
<title>Node7&#45;&gt;Node9</title>
<path fill="none" stroke="midnightblue" d="M262.64,-168.32C271.51,-160.34 284.87,-148.31 295.61,-138.65"/>
<polygon fill="midnightblue" stroke="midnightblue" points="298.09,-141.13 303.18,-131.83 293.41,-135.92 298.09,-141.13"/>
</g>
<!-- Node10 -->
<g id="node10" class="node">
<title>Node10</title>
<g id="a_node10"><a xlink:href="vec_8h.html" target="_top" xlink:title=" ">
<polygon fill="white" stroke="black" points="227,-56.5 227,-75.5 319,-75.5 319,-56.5 227,-56.5"/>
<text text-anchor="middle" x="273" y="-63.5" font-family="Helvetica,sans-Serif" font-size="10.00">dolphin/mtx/vec.h</text>
</a>
</g>
</g>
<!-- Node7&#45;&gt;Node10 -->
<g id="edge14" class="edge">
<title>Node7&#45;&gt;Node10</title>
<path fill="none" stroke="midnightblue" d="M252.55,-168.48C252.07,-155.96 251.89,-131.91 256,-112 257.9,-102.8 261.41,-92.99 264.75,-84.89"/>
<polygon fill="midnightblue" stroke="midnightblue" points="267.97,-86.28 268.76,-75.72 261.55,-83.48 267.97,-86.28"/>
</g>
<!-- Node8&#45;&gt;Node3 -->
<g id="edge9" class="edge">
<title>Node8&#45;&gt;Node3</title>
<path fill="none" stroke="midnightblue" d="M461.64,-112.07C450.19,-98.61 426.92,-72.87 403,-56 384.15,-42.71 360.77,-31.42 342.17,-23.47"/>
<polygon fill="midnightblue" stroke="midnightblue" points="343.51,-20.23 332.93,-19.62 340.82,-26.7 343.51,-20.23"/>
</g>
<!-- Node9&#45;&gt;Node3 -->
<g id="edge13" class="edge">
<title>Node9&#45;&gt;Node3</title>
<path fill="none" stroke="midnightblue" d="M317.41,-112.21C323.12,-99.76 331.9,-76.24 328,-56 326.21,-46.7 322.52,-36.89 318.94,-28.8"/>
<polygon fill="midnightblue" stroke="midnightblue" points="322.06,-27.21 314.62,-19.66 315.73,-30.2 322.06,-27.21"/>
</g>
<!-- Node9&#45;&gt;Node10 -->
<g id="edge11" class="edge">
<title>Node9&#45;&gt;Node10</title>
<path fill="none" stroke="midnightblue" d="M306.39,-112.08C300.74,-104.46 292.46,-93.26 285.55,-83.94"/>
<polygon fill="midnightblue" stroke="midnightblue" points="288.25,-81.7 279.48,-75.75 282.62,-85.87 288.25,-81.7"/>
</g>
<!-- Node10&#45;&gt;Node3 -->
<g id="edge12" class="edge">
<title>Node10&#45;&gt;Node3</title>
<path fill="none" stroke="midnightblue" d="M279.11,-56.08C284.28,-48.53 291.85,-37.49 298.19,-28.23"/>
<polygon fill="midnightblue" stroke="midnightblue" points="301.24,-29.98 304,-19.75 295.46,-26.02 301.24,-29.98"/>
</g>
<!-- Node11&#45;&gt;Node3 -->
<g id="edge19" class="edge">
<title>Node11&#45;&gt;Node3</title>
<path fill="none" stroke="midnightblue" d="M492.91,-58.49C458.2,-49.47 395.04,-33.08 352.79,-22.11"/>
<polygon fill="midnightblue" stroke="midnightblue" points="353.62,-18.71 343.06,-19.58 351.86,-25.48 353.62,-18.71"/>
</g>
</g>
</svg>
