<?xml version="1.0" encoding="UTF-8" standalone="no"?>
<!DOCTYPE svg PUBLIC "-//W3C//DTD SVG 1.1//EN"
 "http://www.w3.org/Graphics/SVG/1.1/DTD/svg11.dtd">
<!-- Generated by graphviz version 2.44.0 ()
 -->
<!-- Title: libs/JSystem/J3DU/J3DUClipper.cpp Pages: 1 -->
<!--zoomable 330 -->
<svg id="main" version="1.1" xmlns="http://www.w3.org/2000/svg" xmlns:xlink="http://www.w3.org/1999/xlink" xml:space="preserve" onload="init(evt)">
<style type="text/css"><![CDATA[
.edge:hover path { stroke: red; }
.edge:hover polygon { stroke: red; fill: red; }
]]></style>
<script type="text/javascript"><![CDATA[
var edges = document.getElementsByTagName('g');
if (edges && edges.length) {
  for (var i=0;i<edges.length;i++) {
    if (edges[i].id.substr(0,4)=='edge') {
      edges[i].setAttribute('class','edge');
    }
  }
}
]]></script>
        <defs>
                <circle id="rim" cx="0" cy="0" r="7"/>
                <circle id="rim2" cx="0" cy="0" r="3.5"/>
                <g id="zoomPlus">
                        <use xlink:href="#rim" fill="#404040">
                                <set attributeName="fill" to="#808080" begin="zoomplus.mouseover" end="zoomplus.mouseout"/>
                        </use>
                        <path d="M-4,0h8M0,-4v8" fill="none" stroke="white" stroke-width="1.5" pointer-events="none"/>
                </g>
                <g id="zoomMin">
                        <use xlink:href="#rim" fill="#404040">
                                <set attributeName="fill" to="#808080" begin="zoomminus.mouseover" end="zoomminus.mouseout"/>
                        </use>
                        <path d="M-4,0h8" fill="none" stroke="white" stroke-width="1.5" pointer-events="none"/>
                </g>
                <g id="dirArrow">
                        <path fill="none" stroke="white" stroke-width="1.5" d="M0,-3.0v7 M-2.5,-0.5L0,-3.0L2.5,-0.5"/>
                </g>
               <g id="resetDef">
                       <use xlink:href="#rim2" fill="#404040">
                               <set attributeName="fill" to="#808080" begin="reset.mouseover" end="reset.mouseout"/>
                       </use>
               </g>
        </defs>

<script type="text/javascript">
var viewWidth = 801;
var viewHeight = 330;
var sectionId = 'dynsection-0';
</script>
<script xlink:href="svgpan.js"/>
<svg id="graph" class="graph">
<g id="viewport">
<title>libs/JSystem/J3DU/J3DUClipper.cpp</title>
<polygon fill="white" stroke="transparent" points="-4,4 -4,-326 797,-326 797,4 -4,4"/>
<!-- Node1 -->
<g id="node1" class="node">
<title>Node1</title>
<g id="a_node1"><a xlink:title=" ">
<polygon fill="#bfbfbf" stroke="black" points="255,-302.5 255,-321.5 431,-321.5 431,-302.5 255,-302.5"/>
<text text-anchor="middle" x="343" y="-309.5" font-family="Helvetica,sans-Serif" font-size="10.00">libs/JSystem/J3DU/J3DUClipper.cpp</text>
</a>
</g>
</g>
<!-- Node2 -->
<g id="node2" class="node">
<title>Node2</title>
<g id="a_node2"><a xlink:href="J3DUClipper_8h.html" target="_top" xlink:title=" ">
<polygon fill="white" stroke="black" points="28,-112.5 28,-131.5 176,-131.5 176,-112.5 28,-112.5"/>
<text text-anchor="middle" x="102" y="-119.5" font-family="Helvetica,sans-Serif" font-size="10.00">JSystem/J3DU/J3DUClipper.h</text>
</a>
</g>
</g>
<!-- Node1&#45;&gt;Node2 -->
<g id="edge1" class="edge">
<title>Node1&#45;&gt;Node2</title>
<path fill="none" stroke="midnightblue" d="M285.54,-302.47C257.09,-296.06 223.47,-284.97 198,-266 152.95,-232.44 122.33,-171.14 109.21,-140.87"/>
<polygon fill="midnightblue" stroke="midnightblue" points="112.4,-139.43 105.31,-131.56 105.94,-142.13 112.4,-139.43"/>
</g>
<!-- Node4 -->
<g id="node4" class="node">
<title>Node4</title>
<g id="a_node4"><a xlink:href="types_8h.html" target="_top" xlink:title=" ">
<polygon fill="white" stroke="black" points="277.5,-0.5 277.5,-19.5 358.5,-19.5 358.5,-0.5 277.5,-0.5"/>
<text text-anchor="middle" x="318" y="-7.5" font-family="Helvetica,sans-Serif" font-size="10.00">dolphin/types.h</text>
</a>
</g>
</g>
<!-- Node1&#45;&gt;Node4 -->
<g id="edge15" class="edge">
<title>Node1&#45;&gt;Node4</title>
<path fill="none" stroke="midnightblue" d="M292.76,-302.48C197.49,-284.9 0,-240.97 0,-179 0,-179 0,-179 0,-121 0,-65.1 177.71,-31.31 267.44,-17.8"/>
<polygon fill="midnightblue" stroke="midnightblue" points="268.02,-21.26 277.4,-16.33 267,-14.33 268.02,-21.26"/>
</g>
<!-- Node5 -->
<g id="node5" class="node">
<title>Node5</title>
<g id="a_node5"><a xlink:href="dol2asm_8h.html" target="_top" xlink:title=" ">
<polygon fill="white" stroke="black" points="371.5,-235.5 371.5,-254.5 432.5,-254.5 432.5,-235.5 371.5,-235.5"/>
<text text-anchor="middle" x="402" y="-242.5" font-family="Helvetica,sans-Serif" font-size="10.00">dol2asm.h</text>
</a>
</g>
</g>
<!-- Node1&#45;&gt;Node5 -->
<g id="edge5" class="edge">
<title>Node1&#45;&gt;Node5</title>
<path fill="none" stroke="midnightblue" d="M350.96,-302.23C360.25,-292 375.8,-274.86 387.3,-262.19"/>
<polygon fill="midnightblue" stroke="midnightblue" points="390.04,-264.38 394.17,-254.63 384.86,-259.68 390.04,-264.38"/>
</g>
<!-- Node6 -->
<g id="node6" class="node">
<title>Node6</title>
<g id="a_node6"><a xlink:href="mtxvec_8h.html" target="_top" xlink:title=" ">
<polygon fill="white" stroke="black" points="207,-235.5 207,-254.5 315,-254.5 315,-235.5 207,-235.5"/>
<text text-anchor="middle" x="261" y="-242.5" font-family="Helvetica,sans-Serif" font-size="10.00">dolphin/mtx/mtxvec.h</text>
</a>
</g>
</g>
<!-- Node1&#45;&gt;Node6 -->
<g id="edge6" class="edge">
<title>Node1&#45;&gt;Node6</title>
<path fill="none" stroke="midnightblue" d="M331.94,-302.23C318.66,-291.71 296.17,-273.88 280.07,-261.12"/>
<polygon fill="midnightblue" stroke="midnightblue" points="281.89,-258.1 271.88,-254.63 277.55,-263.58 281.89,-258.1"/>
</g>
<!-- Node9 -->
<g id="node9" class="node">
<title>Node9</title>
<g id="a_node9"><a xlink:href="math_8h.html" target="_top" xlink:title=" ">
<polygon fill="white" stroke="black" points="460.5,-168.5 460.5,-187.5 535.5,-187.5 535.5,-168.5 460.5,-168.5"/>
<text text-anchor="middle" x="498" y="-175.5" font-family="Helvetica,sans-Serif" font-size="10.00">msl_c/math.h</text>
</a>
</g>
</g>
<!-- Node1&#45;&gt;Node9 -->
<g id="edge16" class="edge">
<title>Node1&#45;&gt;Node9</title>
<path fill="none" stroke="midnightblue" d="M342.29,-302.35C341.36,-285.15 341.83,-246.4 362,-224 374.08,-210.59 416.19,-197.91 450.39,-189.46"/>
<polygon fill="midnightblue" stroke="midnightblue" points="451.35,-192.83 460.25,-187.08 449.71,-186.02 451.35,-192.83"/>
</g>
<!-- Node10 -->
<g id="node10" class="node">
<title>Node10</title>
<g id="a_node10"><a xlink:title=" ">
<polygon fill="white" stroke="#bfbfbf" points="451,-224.5 451,-265.5 613,-265.5 613,-224.5 451,-224.5"/>
<text text-anchor="start" x="459" y="-253.5" font-family="Helvetica,sans-Serif" font-size="10.00">asm/JSystem/J3DU/J3DUClipper</text>
<text text-anchor="start" x="459" y="-242.5" font-family="Helvetica,sans-Serif" font-size="10.00">/clip__11J3DUClipperCFPA4</text>
<text text-anchor="middle" x="532" y="-231.5" font-family="Helvetica,sans-Serif" font-size="10.00">_Cf3Vecf.s</text>
</a>
</g>
</g>
<!-- Node1&#45;&gt;Node10 -->
<g id="edge18" class="edge">
<title>Node1&#45;&gt;Node10</title>
<path fill="none" stroke="midnightblue" d="M368.1,-302.37C392.77,-293.88 431.52,-280.56 465.15,-268.99"/>
<polygon fill="midnightblue" stroke="midnightblue" points="466.62,-272.19 474.94,-265.63 464.34,-265.57 466.62,-272.19"/>
</g>
<!-- Node11 -->
<g id="node11" class="node">
<title>Node11</title>
<g id="a_node11"><a xlink:title=" ">
<polygon fill="white" stroke="#bfbfbf" points="631,-224.5 631,-265.5 793,-265.5 793,-224.5 631,-224.5"/>
<text text-anchor="start" x="639" y="-253.5" font-family="Helvetica,sans-Serif" font-size="10.00">asm/JSystem/J3DU/J3DUClipper</text>
<text text-anchor="start" x="639" y="-242.5" font-family="Helvetica,sans-Serif" font-size="10.00">/clip__11J3DUClipperCFPA4</text>
<text text-anchor="middle" x="712" y="-231.5" font-family="Helvetica,sans-Serif" font-size="10.00">_CfP3VecP3Vec.s</text>
</a>
</g>
</g>
<!-- Node1&#45;&gt;Node11 -->
<g id="edge19" class="edge">
<title>Node1&#45;&gt;Node11</title>
<path fill="none" stroke="midnightblue" d="M402.23,-302.48C456.62,-294.42 539.67,-281.53 620.74,-266.19"/>
<polygon fill="midnightblue" stroke="midnightblue" points="621.44,-269.62 630.61,-264.31 620.13,-262.75 621.44,-269.62"/>
</g>
<!-- Node3 -->
<g id="node3" class="node">
<title>Node3</title>
<g id="a_node3"><a xlink:href="vec_8h.html" target="_top" xlink:title=" ">
<polygon fill="white" stroke="black" points="196,-56.5 196,-75.5 288,-75.5 288,-56.5 196,-56.5"/>
<text text-anchor="middle" x="242" y="-63.5" font-family="Helvetica,sans-Serif" font-size="10.00">dolphin/mtx/vec.h</text>
</a>
</g>
</g>
<!-- Node2&#45;&gt;Node3 -->
<g id="edge2" class="edge">
<title>Node2&#45;&gt;Node3</title>
<path fill="none" stroke="midnightblue" d="M124.18,-112.44C147.43,-103.48 184.15,-89.31 210.42,-79.18"/>
<polygon fill="midnightblue" stroke="midnightblue" points="211.85,-82.38 219.92,-75.52 209.33,-75.85 211.85,-82.38"/>
</g>
<!-- Node2&#45;&gt;Node4 -->
<g id="edge4" class="edge">
<title>Node2&#45;&gt;Node4</title>
<path fill="none" stroke="midnightblue" d="M111.24,-112.3C126.14,-98.66 156.87,-72.14 187,-56 214.54,-41.25 247.86,-29.88 274,-22.26"/>
<polygon fill="midnightblue" stroke="midnightblue" points="274.98,-25.62 283.65,-19.52 273.07,-18.89 274.98,-25.62"/>
</g>
<!-- Node3&#45;&gt;Node4 -->
<g id="edge3" class="edge">
<title>Node3&#45;&gt;Node4</title>
<path fill="none" stroke="midnightblue" d="M254.21,-56.32C265.78,-48.11 283.38,-35.6 297.16,-25.81"/>
<polygon fill="midnightblue" stroke="midnightblue" points="299.44,-28.48 305.57,-19.83 295.39,-22.77 299.44,-28.48"/>
</g>
<!-- Node6&#45;&gt;Node3 -->
<g id="edge13" class="edge">
<title>Node6&#45;&gt;Node3</title>
<path fill="none" stroke="midnightblue" d="M257.36,-235.47C252.96,-224.66 245.79,-205.34 243,-188 237.23,-152.17 238.79,-109.61 240.42,-85.7"/>
<polygon fill="midnightblue" stroke="midnightblue" points="243.92,-85.82 241.19,-75.58 236.94,-85.29 243.92,-85.82"/>
</g>
<!-- Node6&#45;&gt;Node4 -->
<g id="edge14" class="edge">
<title>Node6&#45;&gt;Node4</title>
<path fill="none" stroke="midnightblue" d="M280.93,-235.46C313.14,-220.28 374.68,-185.11 391,-132 397.6,-110.53 382.44,-59.82 380,-56 371.53,-42.74 357.65,-32.13 345.17,-24.55"/>
<polygon fill="midnightblue" stroke="midnightblue" points="346.85,-21.47 336.42,-19.57 343.38,-27.56 346.85,-21.47"/>
</g>
<!-- Node7 -->
<g id="node7" class="node">
<title>Node7</title>
<g id="a_node7"><a xlink:href="mtx_8h.html" target="_top" xlink:title=" ">
<polygon fill="white" stroke="black" points="252,-168.5 252,-187.5 344,-187.5 344,-168.5 252,-168.5"/>
<text text-anchor="middle" x="298" y="-175.5" font-family="Helvetica,sans-Serif" font-size="10.00">dolphin/mtx/mtx.h</text>
</a>
</g>
</g>
<!-- Node6&#45;&gt;Node7 -->
<g id="edge7" class="edge">
<title>Node6&#45;&gt;Node7</title>
<path fill="none" stroke="midnightblue" d="M265.99,-235.23C271.59,-225.39 280.83,-209.16 287.95,-196.66"/>
<polygon fill="midnightblue" stroke="midnightblue" points="291.18,-198.05 293.09,-187.63 285.1,-194.59 291.18,-198.05"/>
</g>
<!-- Node7&#45;&gt;Node3 -->
<g id="edge11" class="edge">
<title>Node7&#45;&gt;Node3</title>
<path fill="none" stroke="midnightblue" d="M289.17,-168.48C280.81,-159.96 268.47,-146.13 261,-132 253.27,-117.38 248.3,-99.21 245.39,-85.8"/>
<polygon fill="midnightblue" stroke="midnightblue" points="248.79,-84.97 243.41,-75.84 241.93,-86.33 248.79,-84.97"/>
</g>
<!-- Node7&#45;&gt;Node4 -->
<g id="edge12" class="edge">
<title>Node7&#45;&gt;Node4</title>
<path fill="none" stroke="midnightblue" d="M326.02,-168.4C343.17,-161.51 363.75,-149.98 374,-132 394.7,-95.68 358.33,-50.39 335.11,-26.86"/>
<polygon fill="midnightblue" stroke="midnightblue" points="337.43,-24.24 327.83,-19.76 332.54,-29.25 337.43,-24.24"/>
</g>
<!-- Node8 -->
<g id="node8" class="node">
<title>Node8</title>
<g id="a_node8"><a xlink:href="quat_8h.html" target="_top" xlink:title=" ">
<polygon fill="white" stroke="black" points="270.5,-112.5 270.5,-131.5 365.5,-131.5 365.5,-112.5 270.5,-112.5"/>
<text text-anchor="middle" x="318" y="-119.5" font-family="Helvetica,sans-Serif" font-size="10.00">dolphin/mtx/quat.h</text>
</a>
</g>
</g>
<!-- Node7&#45;&gt;Node8 -->
<g id="edge8" class="edge">
<title>Node7&#45;&gt;Node8</title>
<path fill="none" stroke="midnightblue" d="M301.3,-168.08C303.98,-160.85 307.85,-150.41 311.19,-141.4"/>
<polygon fill="midnightblue" stroke="midnightblue" points="314.57,-142.34 314.76,-131.75 308,-139.91 314.57,-142.34"/>
</g>
<!-- Node8&#45;&gt;Node3 -->
<g id="edge9" class="edge">
<title>Node8&#45;&gt;Node3</title>
<path fill="none" stroke="midnightblue" d="M305.79,-112.32C294.22,-104.11 276.62,-91.6 262.84,-81.81"/>
<polygon fill="midnightblue" stroke="midnightblue" points="264.61,-78.77 254.43,-75.83 260.56,-84.48 264.61,-78.77"/>
</g>
<!-- Node8&#45;&gt;Node4 -->
<g id="edge10" class="edge">
<title>Node8&#45;&gt;Node4</title>
<path fill="none" stroke="midnightblue" d="M318,-112.37C318,-94.62 318,-53.67 318,-29.6"/>
<polygon fill="midnightblue" stroke="midnightblue" points="321.5,-29.59 318,-19.59 314.5,-29.59 321.5,-29.59"/>
</g>
<!-- Node9&#45;&gt;Node4 -->
<g id="edge17" class="edge">
<title>Node9&#45;&gt;Node4</title>
<path fill="none" stroke="midnightblue" d="M496.71,-168.32C492.99,-146.34 480.25,-88 446,-56 424.88,-36.27 394.6,-25.11 368.79,-18.84"/>
<polygon fill="midnightblue" stroke="midnightblue" points="369.3,-15.37 358.78,-16.6 367.77,-22.2 369.3,-15.37"/>
</g>
</g>
</svg>
        <g id="navigator" transform="translate(0 0)" fill="#404254">
                <rect fill="#f2f5e9" fill-opacity="0.5" stroke="#606060" stroke-width=".5" x="0" y="0" width="60" height="60"/>
                <use id="zoomplus" xlink:href="#zoomPlus" x="17" y="9" onmousedown="handleZoom(evt,'in')"/>
                <use id="zoomminus" xlink:href="#zoomMin" x="42" y="9" onmousedown="handleZoom(evt,'out')"/>
                <use id="reset" xlink:href="#resetDef" x="30" y="36" onmousedown="handleReset()"/>
                <g id="arrowUp" xlink:href="#dirArrow" transform="translate(30 24)" onmousedown="handlePan(0,-1)">
                  <use xlink:href="#rim" fill="#404040">
                        <set attributeName="fill" to="#808080" begin="arrowUp.mouseover" end="arrowUp.mouseout"/>
                  </use>
                  <path fill="none" stroke="white" stroke-width="1.5" d="M0,-3.0v7 M-2.5,-0.5L0,-3.0L2.5,-0.5"/>
                </g>
                <g id="arrowRight" xlink:href="#dirArrow" transform="rotate(90) translate(36 -43)" onmousedown="handlePan(1,0)">
                  <use xlink:href="#rim" fill="#404040">
                        <set attributeName="fill" to="#808080" begin="arrowRight.mouseover" end="arrowRight.mouseout"/>
                  </use>
                  <path fill="none" stroke="white" stroke-width="1.5" d="M0,-3.0v7 M-2.5,-0.5L0,-3.0L2.5,-0.5"/>
                </g>
                <g id="arrowDown" xlink:href="#dirArrow" transform="rotate(180) translate(-30 -48)" onmousedown="handlePan(0,1)">
                  <use xlink:href="#rim" fill="#404040">
                        <set attributeName="fill" to="#808080" begin="arrowDown.mouseover" end="arrowDown.mouseout"/>
                  </use>
                  <path fill="none" stroke="white" stroke-width="1.5" d="M0,-3.0v7 M-2.5,-0.5L0,-3.0L2.5,-0.5"/>
                </g>
                <g id="arrowLeft" xlink:href="#dirArrow" transform="rotate(270) translate(-36 17)" onmousedown="handlePan(-1,0)">
                  <use xlink:href="#rim" fill="#404040">
                        <set attributeName="fill" to="#808080" begin="arrowLeft.mouseover" end="arrowLeft.mouseout"/>
                  </use>
                  <path fill="none" stroke="white" stroke-width="1.5" d="M0,-3.0v7 M-2.5,-0.5L0,-3.0L2.5,-0.5"/>
                </g>
        </g>
        <svg viewBox="0 0 15 15" width="100%" height="30px" preserveAspectRatio="xMaxYMin meet">
         <g id="arrow_out" transform="scale(0.3 0.3)">
          <a xlink:href="J3DUClipper_8cpp__incl_org.svg" target="_base">
           <rect id="button" ry="5" rx="5" y="6" x="6" height="38" width="38"
                fill="#f2f5e9" fill-opacity="0.5" stroke="#606060" stroke-width="1.0"/>
           <path id="arrow"
             d="M 11.500037,31.436501 C 11.940474,20.09759 22.043105,11.32322 32.158766,21.979434 L 37.068811,17.246167 C 37.068811,17.246167 37.088388,32 37.088388,32 L 22.160133,31.978069 C 22.160133,31.978069 26.997745,27.140456 26.997745,27.140456 C 18.528582,18.264221 13.291696,25.230495 11.500037,31.436501 z"
             style="fill:#404040;"/>
          </a>
         </g>
        </svg>
</svg>
