<?xml version="1.0" encoding="UTF-8" standalone="no"?>
<!DOCTYPE svg PUBLIC "-//W3C//DTD SVG 1.1//EN"
 "http://www.w3.org/Graphics/SVG/1.1/DTD/svg11.dtd">
<!-- Generated by graphviz version 7.0.4 (20221203.1631)
 -->
<!-- Title: libs/JSystem/JAudio2/JAIStreamMgr.cpp Pages: 1 -->
<svg width="2728pt" height="423pt"
 viewBox="0.00 0.00 2728.00 423.00" xmlns="http://www.w3.org/2000/svg" xmlns:xlink="http://www.w3.org/1999/xlink">
<g id="graph0" class="graph" transform="scale(1 1) rotate(0) translate(4 419)">
<title>libs/JSystem/JAudio2/JAIStreamMgr.cpp</title>
<!-- Node1 -->
<g id="node1" class="node">
<title>Node1</title>
<g id="a_node1"><a xlink:title=" ">
<polygon fill="#999999" stroke="#666666" points="1807,-415 1696,-415 1696,-385 1807,-385 1807,-415"/>
<text text-anchor="start" x="1704" y="-403" font-family="Helvetica,sans-Serif" font-size="10.00">libs/JSystem/JAudio2</text>
<text text-anchor="middle" x="1751.5" y="-392" font-family="Helvetica,sans-Serif" font-size="10.00">/JAIStreamMgr.cpp</text>
</a>
</g>
</g>
<!-- Node2 -->
<g id="node2" class="node">
<title>Node2</title>
<g id="a_node2"><a xlink:href="JAIStreamMgr_8h.html" target="_top" xlink:title=" ">
<polygon fill="white" stroke="#666666" points="995,-343.5 852,-343.5 852,-313.5 995,-313.5 995,-343.5"/>
<text text-anchor="start" x="860" y="-331.5" font-family="Helvetica,sans-Serif" font-size="10.00">JSystem/JAudio2/JAIStream</text>
<text text-anchor="middle" x="923.5" y="-320.5" font-family="Helvetica,sans-Serif" font-size="10.00">Mgr.h</text>
</a>
</g>
</g>
<!-- Node1&#45;&gt;Node2 -->
<g id="edge1" class="edge">
<title>Node1&#45;&gt;Node2</title>
<path fill="none" stroke="#63b8ff" d="M1695.77,-396.31C1578.03,-390.32 1295.43,-374.41 1059.5,-349 1042.38,-347.16 1024.1,-344.8 1006.68,-342.37"/>
<polygon fill="#63b8ff" stroke="#63b8ff" points="1007.27,-338.92 996.87,-340.98 1006.28,-345.85 1007.27,-338.92"/>
</g>
<!-- Node6 -->
<g id="node6" class="node">
<title>Node6</title>
<g id="a_node6"><a xlink:href="types_8h.html" target="_top" xlink:title=" ">
<polygon fill="white" stroke="#666666" points="545,-19 464,-19 464,0 545,0 545,-19"/>
<text text-anchor="middle" x="504.5" y="-7" font-family="Helvetica,sans-Serif" font-size="10.00">dolphin/types.h</text>
</a>
</g>
</g>
<!-- Node1&#45;&gt;Node6 -->
<g id="edge29" class="edge">
<title>Node1&#45;&gt;Node6</title>
<path fill="none" stroke="#63b8ff" d="M1695.71,-398.51C1544.94,-396.67 1137.62,-388.09 1092.5,-349 1063.08,-323.51 1073.5,-302.43 1073.5,-263.5 1073.5,-263.5 1073.5,-263.5 1073.5,-135 1073.5,-29.76 697.33,-13.35 556.71,-10.89"/>
<polygon fill="#63b8ff" stroke="#63b8ff" points="556.99,-7.4 546.93,-10.74 556.88,-14.4 556.99,-7.4"/>
</g>
<!-- Node15 -->
<g id="node15" class="node">
<title>Node15</title>
<g id="a_node15"><a xlink:href="dol2asm_8h.html" target="_top" xlink:title=" ">
<polygon fill="white" stroke="#666666" points="1163,-338 1102,-338 1102,-319 1163,-319 1163,-338"/>
<text text-anchor="middle" x="1132.5" y="-326" font-family="Helvetica,sans-Serif" font-size="10.00">dol2asm.h</text>
</a>
</g>
</g>
<!-- Node1&#45;&gt;Node15 -->
<g id="edge28" class="edge">
<title>Node1&#45;&gt;Node15</title>
<path fill="none" stroke="#63b8ff" d="M1695.76,-396.87C1570.31,-391.63 1269.14,-376.53 1171.5,-349 1166.75,-347.66 1161.88,-345.74 1157.27,-343.61"/>
<polygon fill="#63b8ff" stroke="#63b8ff" points="1159,-340.57 1148.5,-339.16 1155.84,-346.81 1159,-340.57"/>
</g>
<!-- Node16 -->
<g id="node16" class="node">
<title>Node16</title>
<g id="a_node16"><a xlink:title=" ">
<polygon fill="#e0e0e0" stroke="#999999" points="1296,-349 1181,-349 1181,-308 1296,-308 1296,-349"/>
<text text-anchor="start" x="1189" y="-337" font-family="Helvetica,sans-Serif" font-size="10.00">asm/JSystem/JAudio2</text>
<text text-anchor="start" x="1189" y="-326" font-family="Helvetica,sans-Serif" font-size="10.00">/JAIStreamMgr/__ct_</text>
<text text-anchor="middle" x="1238.5" y="-315" font-family="Helvetica,sans-Serif" font-size="10.00">_12JAIStreamMgrFb.s</text>
</a>
</g>
</g>
<!-- Node1&#45;&gt;Node16 -->
<g id="edge30" class="edge">
<title>Node1&#45;&gt;Node16</title>
<path fill="none" stroke="#63b8ff" d="M1695.75,-395.83C1612.93,-390.45 1452.44,-377.43 1307.32,-349.18"/>
<polygon fill="#63b8ff" stroke="#63b8ff" points="1308.43,-345.83 1297.94,-347.32 1307.07,-352.7 1308.43,-345.83"/>
</g>
<!-- Node17 -->
<g id="node17" class="node">
<title>Node17</title>
<g id="a_node17"><a xlink:title=" ">
<polygon fill="#e0e0e0" stroke="#999999" points="1478.5,-343.5 1314.5,-343.5 1314.5,-313.5 1478.5,-313.5 1478.5,-343.5"/>
<text text-anchor="start" x="1322.5" y="-331.5" font-family="Helvetica,sans-Serif" font-size="10.00">asm/JSystem/JAudio2</text>
<text text-anchor="middle" x="1396.5" y="-320.5" font-family="Helvetica,sans-Serif" font-size="10.00">/JAIStreamMgr/func_802A3C3C.s</text>
</a>
</g>
</g>
<!-- Node1&#45;&gt;Node17 -->
<g id="edge31" class="edge">
<title>Node1&#45;&gt;Node17</title>
<path fill="none" stroke="#63b8ff" d="M1695.55,-388.8C1642.05,-378.96 1559.18,-363.46 1487.5,-349 1483.17,-348.13 1478.73,-347.22 1474.24,-346.29"/>
<polygon fill="#63b8ff" stroke="#63b8ff" points="1475.04,-342.88 1464.54,-344.26 1473.61,-349.73 1475.04,-342.88"/>
</g>
<!-- Node18 -->
<g id="node18" class="node">
<title>Node18</title>
<g id="a_node18"><a xlink:title=" ">
<polygon fill="#e0e0e0" stroke="#999999" points="1652.5,-349 1496.5,-349 1496.5,-308 1652.5,-308 1652.5,-349"/>
<text text-anchor="start" x="1504.5" y="-337" font-family="Helvetica,sans-Serif" font-size="10.00">asm/JSystem/JAudio2</text>
<text text-anchor="start" x="1504.5" y="-326" font-family="Helvetica,sans-Serif" font-size="10.00">/JAIStreamMgr/freeDeadStream</text>
<text text-anchor="middle" x="1574.5" y="-315" font-family="Helvetica,sans-Serif" font-size="10.00">___12JAIStreamMgrFv.s</text>
</a>
</g>
</g>
<!-- Node1&#45;&gt;Node18 -->
<g id="edge32" class="edge">
<title>Node1&#45;&gt;Node18</title>
<path fill="none" stroke="#63b8ff" d="M1714.83,-384.6C1692.04,-375.65 1662.18,-363.93 1635.87,-353.6"/>
<polygon fill="#63b8ff" stroke="#63b8ff" points="1637.22,-350.37 1626.63,-349.97 1634.66,-356.88 1637.22,-350.37"/>
</g>
<!-- Node19 -->
<g id="node19" class="node">
<title>Node19</title>
<g id="a_node19"><a xlink:title=" ">
<polygon fill="#e0e0e0" stroke="#999999" points="1832,-343.5 1671,-343.5 1671,-313.5 1832,-313.5 1832,-343.5"/>
<text text-anchor="start" x="1679" y="-331.5" font-family="Helvetica,sans-Serif" font-size="10.00">asm/JSystem/JAudio2</text>
<text text-anchor="middle" x="1751.5" y="-320.5" font-family="Helvetica,sans-Serif" font-size="10.00">/JAIStreamMgr/func_802A3E68.s</text>
</a>
</g>
</g>
<!-- Node1&#45;&gt;Node19 -->
<g id="edge33" class="edge">
<title>Node1&#45;&gt;Node19</title>
<path fill="none" stroke="#63b8ff" d="M1751.5,-384.6C1751.5,-376.12 1751.5,-365.14 1751.5,-355.22"/>
<polygon fill="#63b8ff" stroke="#63b8ff" points="1755,-355.4 1751.5,-345.4 1748,-355.4 1755,-355.4"/>
</g>
<!-- Node20 -->
<g id="node20" class="node">
<title>Node20</title>
<g id="a_node20"><a xlink:title=" ">
<polygon fill="#e0e0e0" stroke="#999999" points="1965,-349 1850,-349 1850,-308 1965,-308 1965,-349"/>
<text text-anchor="start" x="1858" y="-337" font-family="Helvetica,sans-Serif" font-size="10.00">asm/JSystem/JAudio2</text>
<text text-anchor="start" x="1858" y="-326" font-family="Helvetica,sans-Serif" font-size="10.00">/JAIStreamMgr/calc_</text>
<text text-anchor="middle" x="1907.5" y="-315" font-family="Helvetica,sans-Serif" font-size="10.00">_12JAIStreamMgrFv.s</text>
</a>
</g>
</g>
<!-- Node1&#45;&gt;Node20 -->
<g id="edge34" class="edge">
<title>Node1&#45;&gt;Node20</title>
<path fill="none" stroke="#63b8ff" d="M1783.82,-384.6C1803.64,-375.77 1829.52,-364.24 1852.48,-354.01"/>
<polygon fill="#63b8ff" stroke="#63b8ff" points="1853.7,-357.3 1861.41,-350.03 1850.86,-350.9 1853.7,-357.3"/>
</g>
<!-- Node21 -->
<g id="node21" class="node">
<title>Node21</title>
<g id="a_node21"><a xlink:title=" ">
<polygon fill="#e0e0e0" stroke="#999999" points="2098,-349 1983,-349 1983,-308 2098,-308 2098,-349"/>
<text text-anchor="start" x="1991" y="-337" font-family="Helvetica,sans-Serif" font-size="10.00">asm/JSystem/JAudio2</text>
<text text-anchor="start" x="1991" y="-326" font-family="Helvetica,sans-Serif" font-size="10.00">/JAIStreamMgr/stop_</text>
<text text-anchor="middle" x="2040.5" y="-315" font-family="Helvetica,sans-Serif" font-size="10.00">_12JAIStreamMgrFv.s</text>
</a>
</g>
</g>
<!-- Node1&#45;&gt;Node21 -->
<g id="edge35" class="edge">
<title>Node1&#45;&gt;Node21</title>
<path fill="none" stroke="#63b8ff" d="M1807.19,-387.59C1849.89,-378.6 1910.51,-365.31 1971.61,-349.68"/>
<polygon fill="#63b8ff" stroke="#63b8ff" points="1972.34,-353.11 1981.15,-347.22 1970.59,-346.33 1972.34,-353.11"/>
</g>
<!-- Node22 -->
<g id="node22" class="node">
<title>Node22</title>
<g id="a_node22"><a xlink:title=" ">
<polygon fill="#e0e0e0" stroke="#999999" points="2235,-349 2116,-349 2116,-308 2235,-308 2235,-349"/>
<text text-anchor="start" x="2124" y="-337" font-family="Helvetica,sans-Serif" font-size="10.00">asm/JSystem/JAudio2</text>
<text text-anchor="start" x="2124" y="-326" font-family="Helvetica,sans-Serif" font-size="10.00">/JAIStreamMgr/stop_</text>
<text text-anchor="middle" x="2175.5" y="-315" font-family="Helvetica,sans-Serif" font-size="10.00">_12JAIStreamMgrFUl.s</text>
</a>
</g>
</g>
<!-- Node1&#45;&gt;Node22 -->
<g id="edge36" class="edge">
<title>Node1&#45;&gt;Node22</title>
<path fill="none" stroke="#63b8ff" d="M1807.42,-393.59C1875.62,-386.45 1994.52,-372.27 2104.58,-349.49"/>
<polygon fill="#63b8ff" stroke="#63b8ff" points="2105,-352.98 2114.06,-347.5 2103.56,-346.13 2105,-352.98"/>
</g>
<!-- Node23 -->
<g id="node23" class="node">
<title>Node23</title>
<g id="a_node23"><a xlink:title=" ">
<polygon fill="#e0e0e0" stroke="#999999" points="2430,-349 2253,-349 2253,-308 2430,-308 2430,-349"/>
<text text-anchor="start" x="2261" y="-337" font-family="Helvetica,sans-Serif" font-size="10.00">asm/JSystem/JAudio2</text>
<text text-anchor="start" x="2261" y="-326" font-family="Helvetica,sans-Serif" font-size="10.00">/JAIStreamMgr/stopSoundID</text>
<text text-anchor="middle" x="2341.5" y="-315" font-family="Helvetica,sans-Serif" font-size="10.00">__12JAIStreamMgrF10JAISoundID.s</text>
</a>
</g>
</g>
<!-- Node1&#45;&gt;Node23 -->
<g id="edge37" class="edge">
<title>Node1&#45;&gt;Node23</title>
<path fill="none" stroke="#63b8ff" d="M1807.17,-395.13C1896.68,-388.52 2078.31,-373.5 2241.53,-349.38"/>
<polygon fill="#63b8ff" stroke="#63b8ff" points="2241.89,-352.86 2251.26,-347.92 2240.85,-345.94 2241.89,-352.86"/>
</g>
<!-- Node24 -->
<g id="node24" class="node">
<title>Node24</title>
<g id="a_node24"><a xlink:title=" ">
<polygon fill="#e0e0e0" stroke="#999999" points="2567,-349 2448,-349 2448,-308 2567,-308 2567,-349"/>
<text text-anchor="start" x="2456" y="-337" font-family="Helvetica,sans-Serif" font-size="10.00">asm/JSystem/JAudio2</text>
<text text-anchor="start" x="2456" y="-326" font-family="Helvetica,sans-Serif" font-size="10.00">/JAIStreamMgr/mixOut</text>
<text text-anchor="middle" x="2507.5" y="-315" font-family="Helvetica,sans-Serif" font-size="10.00">__12JAIStreamMgrFv.s</text>
</a>
</g>
</g>
<!-- Node1&#45;&gt;Node24 -->
<g id="edge38" class="edge">
<title>Node1&#45;&gt;Node24</title>
<path fill="none" stroke="#63b8ff" d="M1807.27,-398.84C1923.17,-397.66 2198.44,-390.52 2436.29,-349.39"/>
<polygon fill="#63b8ff" stroke="#63b8ff" points="2436.85,-352.85 2446.1,-347.67 2435.64,-345.95 2436.85,-352.85"/>
</g>
<!-- Node25 -->
<g id="node25" class="node">
<title>Node25</title>
<g id="a_node25"><a xlink:title=" ">
<polygon fill="#e0e0e0" stroke="#999999" points="2720,-349 2585,-349 2585,-308 2720,-308 2720,-349"/>
<text text-anchor="start" x="2593" y="-337" font-family="Helvetica,sans-Serif" font-size="10.00">asm/JSystem/JAudio2</text>
<text text-anchor="start" x="2593" y="-326" font-family="Helvetica,sans-Serif" font-size="10.00">/JAIStreamMgr/newStream</text>
<text text-anchor="middle" x="2652.5" y="-315" font-family="Helvetica,sans-Serif" font-size="10.00">___12JAIStreamMgrFv.s</text>
</a>
</g>
</g>
<!-- Node1&#45;&gt;Node25 -->
<g id="edge39" class="edge">
<title>Node1&#45;&gt;Node25</title>
<path fill="none" stroke="#63b8ff" d="M1807.42,-399.27C1939.48,-399.13 2280.99,-394.17 2573.42,-349.33"/>
<polygon fill="#63b8ff" stroke="#63b8ff" points="2573.84,-352.81 2583.19,-347.82 2572.77,-345.89 2573.84,-352.81"/>
</g>
<!-- Node3 -->
<g id="node3" class="node">
<title>Node3</title>
<g id="a_node3"><a xlink:href="JAISound_8h.html" target="_top" xlink:title=" ">
<polygon fill="white" stroke="#666666" points="536.5,-272 390.5,-272 390.5,-253 536.5,-253 536.5,-272"/>
<text text-anchor="middle" x="463.5" y="-260" font-family="Helvetica,sans-Serif" font-size="10.00">JSystem/JAudio2/JAISound.h</text>
</a>
</g>
</g>
<!-- Node2&#45;&gt;Node3 -->
<g id="edge2" class="edge">
<title>Node2&#45;&gt;Node3</title>
<path fill="none" stroke="#63b8ff" d="M851.62,-317.5C766.62,-305.67 625.77,-286.08 539.15,-274.03"/>
<polygon fill="#63b8ff" stroke="#63b8ff" points="539.71,-270.57 529.32,-272.66 538.75,-277.5 539.71,-270.57"/>
</g>
<!-- Node2&#45;&gt;Node6 -->
<g id="edge27" class="edge">
<title>Node2&#45;&gt;Node6</title>
<path fill="none" stroke="#63b8ff" d="M913.62,-313.3C899.05,-290.93 873.5,-245.63 873.5,-203 873.5,-203 873.5,-203 873.5,-135 873.5,-98.46 881.68,-79.43 854.5,-55 811.76,-16.59 643.66,-10.58 556.92,-10.11"/>
<polygon fill="#63b8ff" stroke="#63b8ff" points="557.02,-6.61 547.01,-10.08 557,-13.61 557.02,-6.61"/>
</g>
<!-- Node14 -->
<g id="node14" class="node">
<title>Node14</title>
<g id="a_node14"><a xlink:href="JSUList_8h.html" target="_top" xlink:title=" ">
<polygon fill="white" stroke="#666666" points="1045,-272 902,-272 902,-253 1045,-253 1045,-272"/>
<text text-anchor="middle" x="973.5" y="-260" font-family="Helvetica,sans-Serif" font-size="10.00">JSystem/JSupport/JSUList.h</text>
</a>
</g>
</g>
<!-- Node2&#45;&gt;Node14 -->
<g id="edge25" class="edge">
<title>Node2&#45;&gt;Node14</title>
<path fill="none" stroke="#63b8ff" d="M934.6,-313.3C942.01,-303.81 951.81,-291.26 959.73,-281.13"/>
<polygon fill="#63b8ff" stroke="#63b8ff" points="962.26,-283.57 965.66,-273.54 956.74,-279.26 962.26,-283.57"/>
</g>
<!-- Node4 -->
<g id="node4" class="node">
<title>Node4</title>
<g id="a_node4"><a xlink:href="JAIAudience_8h.html" target="_top" xlink:title=" ">
<polygon fill="white" stroke="#666666" points="299,-211.5 140,-211.5 140,-192.5 299,-192.5 299,-211.5"/>
<text text-anchor="middle" x="219.5" y="-199.5" font-family="Helvetica,sans-Serif" font-size="10.00">JSystem/JAudio2/JAIAudience.h</text>
</a>
</g>
</g>
<!-- Node3&#45;&gt;Node4 -->
<g id="edge3" class="edge">
<title>Node3&#45;&gt;Node4</title>
<path fill="none" stroke="#63b8ff" d="M421.15,-252.55C376.79,-242.42 307.64,-225.89 262.9,-214.73"/>
<polygon fill="#63b8ff" stroke="#63b8ff" points="263.82,-211.35 253.27,-212.32 262.11,-218.14 263.82,-211.35"/>
</g>
<!-- Node3&#45;&gt;Node6 -->
<g id="edge22" class="edge">
<title>Node3&#45;&gt;Node6</title>
<path fill="none" stroke="#63b8ff" d="M432.43,-252.61C415.04,-245.87 394.83,-234.67 384.5,-217 377.77,-205.49 383.21,-200.27 384.5,-187 390.31,-127.49 373.77,-102.18 410.5,-55 422.07,-40.13 439.83,-29.99 456.8,-23.2"/>
<polygon fill="#63b8ff" stroke="#63b8ff" points="457.6,-26.63 465.79,-19.91 455.2,-20.06 457.6,-26.63"/>
</g>
<!-- Node7 -->
<g id="node7" class="node">
<title>Node7</title>
<g id="a_node7"><a xlink:href="JGeometry_8h.html" target="_top" xlink:title=" ">
<polygon fill="white" stroke="#666666" points="329,-145.5 216,-145.5 216,-126.5 329,-126.5 329,-145.5"/>
<text text-anchor="middle" x="272.5" y="-133.5" font-family="Helvetica,sans-Serif" font-size="10.00">JSystem/JGeometry.h</text>
</a>
</g>
</g>
<!-- Node3&#45;&gt;Node7 -->
<g id="edge21" class="edge">
<title>Node3&#45;&gt;Node7</title>
<path fill="none" stroke="#63b8ff" d="M431.39,-252.65C408.02,-245.3 376.27,-233.4 351.5,-217 325.27,-199.63 300.76,-172.43 286.2,-154.65"/>
<polygon fill="#63b8ff" stroke="#63b8ff" points="289.1,-152.68 280.13,-147.05 283.63,-157.05 289.1,-152.68"/>
</g>
<!-- Node9 -->
<g id="node9" class="node">
<title>Node9</title>
<g id="a_node9"><a xlink:href="JAISoundHandles_8h.html" target="_top" xlink:title=" ">
<polygon fill="white" stroke="#666666" points="533,-217 394,-217 394,-187 533,-187 533,-217"/>
<text text-anchor="start" x="402" y="-205" font-family="Helvetica,sans-Serif" font-size="10.00">JSystem/JAudio2/JAISound</text>
<text text-anchor="middle" x="463.5" y="-194" font-family="Helvetica,sans-Serif" font-size="10.00">Handles.h</text>
</a>
</g>
</g>
<!-- Node3&#45;&gt;Node9 -->
<g id="edge12" class="edge">
<title>Node3&#45;&gt;Node9</title>
<path fill="none" stroke="#63b8ff" d="M458.54,-252.87C457.15,-246.4 456.57,-237.2 456.8,-228.45"/>
<polygon fill="#63b8ff" stroke="#63b8ff" points="460.28,-228.85 457.52,-218.62 453.3,-228.34 460.28,-228.85"/>
</g>
<!-- Node11 -->
<g id="node11" class="node">
<title>Node11</title>
<g id="a_node11"><a xlink:href="JAISoundParams_8h.html" target="_top" xlink:title=" ">
<polygon fill="white" stroke="#666666" points="675,-151 536,-151 536,-121 675,-121 675,-151"/>
<text text-anchor="start" x="544" y="-139" font-family="Helvetica,sans-Serif" font-size="10.00">JSystem/JAudio2/JAISound</text>
<text text-anchor="middle" x="605.5" y="-128" font-family="Helvetica,sans-Serif" font-size="10.00">Params.h</text>
</a>
</g>
</g>
<!-- Node3&#45;&gt;Node11 -->
<g id="edge17" class="edge">
<title>Node3&#45;&gt;Node11</title>
<path fill="none" stroke="#63b8ff" d="M483.73,-252.59C500.32,-244.69 523.84,-232.09 541.5,-217 560.71,-200.58 578.32,-177.73 590.18,-160.66"/>
<polygon fill="#63b8ff" stroke="#63b8ff" points="592.91,-162.86 595.62,-152.62 587.12,-158.94 592.91,-162.86"/>
</g>
<!-- Node13 -->
<g id="node13" class="node">
<title>Node13</title>
<g id="a_node13"><a xlink:href="global_8h.html" target="_top" xlink:title=" ">
<polygon fill="white" stroke="#666666" points="845.5,-79.5 795.5,-79.5 795.5,-60.5 845.5,-60.5 845.5,-79.5"/>
<text text-anchor="middle" x="820.5" y="-67.5" font-family="Helvetica,sans-Serif" font-size="10.00">global.h</text>
</a>
</g>
</g>
<!-- Node3&#45;&gt;Node13 -->
<g id="edge23" class="edge">
<title>Node3&#45;&gt;Node13</title>
<path fill="none" stroke="#63b8ff" d="M487.04,-252.61C508.78,-244.18 541.8,-230.77 569.5,-217 655.83,-174.1 753.25,-113.82 797.01,-86.07"/>
<polygon fill="#63b8ff" stroke="#63b8ff" points="798.87,-89.03 805.43,-80.71 795.11,-83.13 798.87,-89.03"/>
</g>
<!-- Node4&#45;&gt;Node3 -->
<g id="edge6" class="edge">
<title>Node4&#45;&gt;Node3</title>
<path fill="none" stroke="#63b8ff" d="M261.84,-211.95C306.21,-222.08 375.35,-238.61 420.1,-249.77"/>
<polygon fill="#63b8ff" stroke="#63b8ff" points="419.18,-253.15 429.73,-252.18 420.88,-246.36 419.18,-253.15"/>
</g>
<!-- Node5 -->
<g id="node5" class="node">
<title>Node5</title>
<g id="a_node5"><a xlink:href="JAIAudible_8h.html" target="_top" xlink:title=" ">
<polygon fill="white" stroke="#666666" points="151,-145.5 0,-145.5 0,-126.5 151,-126.5 151,-145.5"/>
<text text-anchor="middle" x="75.5" y="-133.5" font-family="Helvetica,sans-Serif" font-size="10.00">JSystem/JAudio2/JAIAudible.h</text>
</a>
</g>
</g>
<!-- Node4&#45;&gt;Node5 -->
<g id="edge4" class="edge">
<title>Node4&#45;&gt;Node5</title>
<path fill="none" stroke="#63b8ff" d="M199.48,-192.1C175.19,-181.31 134.01,-163 105.82,-150.48"/>
<polygon fill="#63b8ff" stroke="#63b8ff" points="107.3,-147.3 96.74,-146.44 104.45,-153.7 107.3,-147.3"/>
</g>
<!-- Node4&#45;&gt;Node6 -->
<g id="edge11" class="edge">
<title>Node4&#45;&gt;Node6</title>
<path fill="none" stroke="#63b8ff" d="M216.33,-192.32C207.56,-166.56 186.16,-90.21 226.5,-55 259.33,-26.34 381.31,-16.02 452.32,-12.39"/>
<polygon fill="#63b8ff" stroke="#63b8ff" points="452.34,-15.89 462.16,-11.92 452.01,-8.9 452.34,-15.89"/>
</g>
<!-- Node4&#45;&gt;Node7 -->
<g id="edge7" class="edge">
<title>Node4&#45;&gt;Node7</title>
<path fill="none" stroke="#63b8ff" d="M226.87,-192.1C234.86,-182.45 247.82,-166.81 257.89,-154.65"/>
<polygon fill="#63b8ff" stroke="#63b8ff" points="260.55,-156.92 264.23,-146.99 255.15,-152.46 260.55,-156.92"/>
</g>
<!-- Node5&#45;&gt;Node6 -->
<g id="edge5" class="edge">
<title>Node5&#45;&gt;Node6</title>
<path fill="none" stroke="#63b8ff" d="M82.29,-126.16C95.95,-109.11 128.61,-71.85 165.5,-55 215.47,-32.17 370.4,-19.09 452.39,-13.6"/>
<polygon fill="#63b8ff" stroke="#63b8ff" points="452.43,-17.1 462.18,-12.95 451.98,-10.12 452.43,-17.1"/>
</g>
<!-- Node7&#45;&gt;Node6 -->
<g id="edge10" class="edge">
<title>Node7&#45;&gt;Node6</title>
<path fill="none" stroke="#63b8ff" d="M262.82,-126.19C246.68,-110.45 217.79,-77.07 236.5,-55 263.62,-23.01 382.41,-13.99 452.4,-11.46"/>
<polygon fill="#63b8ff" stroke="#63b8ff" points="452.22,-14.97 462.1,-11.15 451.99,-7.98 452.22,-14.97"/>
</g>
<!-- Node8 -->
<g id="node8" class="node">
<title>Node8</title>
<g id="a_node8"><a xlink:href="vec_8h.html" target="_top" xlink:title=" ">
<polygon fill="white" stroke="#666666" points="337.5,-79.5 245.5,-79.5 245.5,-60.5 337.5,-60.5 337.5,-79.5"/>
<text text-anchor="middle" x="291.5" y="-67.5" font-family="Helvetica,sans-Serif" font-size="10.00">dolphin/mtx/vec.h</text>
</a>
</g>
</g>
<!-- Node7&#45;&gt;Node8 -->
<g id="edge8" class="edge">
<title>Node7&#45;&gt;Node8</title>
<path fill="none" stroke="#63b8ff" d="M275.14,-126.1C277.84,-117.03 282.11,-102.64 285.61,-90.85"/>
<polygon fill="#63b8ff" stroke="#63b8ff" points="288.96,-91.86 288.45,-81.27 282.25,-89.86 288.96,-91.86"/>
</g>
<!-- Node8&#45;&gt;Node6 -->
<g id="edge9" class="edge">
<title>Node8&#45;&gt;Node6</title>
<path fill="none" stroke="#63b8ff" d="M323.85,-60.12C360.44,-50.06 420.23,-33.65 460.91,-22.47"/>
<polygon fill="#63b8ff" stroke="#63b8ff" points="461.67,-25.89 470.39,-19.87 459.82,-19.14 461.67,-25.89"/>
</g>
<!-- Node9&#45;&gt;Node3 -->
<g id="edge13" class="edge">
<title>Node9&#45;&gt;Node3</title>
<path fill="none" stroke="#63b8ff" d="M469.37,-217.11C470.31,-224.43 470.49,-233.49 469.94,-241.51"/>
<polygon fill="#63b8ff" stroke="#63b8ff" points="466.48,-241 468.65,-251.37 473.42,-241.91 466.48,-241"/>
</g>
<!-- Node9&#45;&gt;Node6 -->
<g id="edge16" class="edge">
<title>Node9&#45;&gt;Node6</title>
<path fill="none" stroke="#63b8ff" d="M452.55,-186.76C433.01,-159.47 396.52,-98.67 422.5,-55 431.11,-40.52 446.26,-30.47 461.21,-23.62"/>
<polygon fill="#63b8ff" stroke="#63b8ff" points="462.15,-27.02 470.05,-19.97 459.47,-20.56 462.15,-27.02"/>
</g>
<!-- Node10 -->
<g id="node10" class="node">
<title>Node10</title>
<g id="a_node10"><a xlink:href="JUTAssert_8h.html" target="_top" xlink:title=" ">
<polygon fill="white" stroke="#666666" points="577.5,-79.5 431.5,-79.5 431.5,-60.5 577.5,-60.5 577.5,-79.5"/>
<text text-anchor="middle" x="504.5" y="-67.5" font-family="Helvetica,sans-Serif" font-size="10.00">JSystem/JUtility/JUTAssert.h</text>
</a>
</g>
</g>
<!-- Node9&#45;&gt;Node10 -->
<g id="edge14" class="edge">
<title>Node9&#45;&gt;Node10</title>
<path fill="none" stroke="#63b8ff" d="M468.04,-186.59C475.42,-163.19 490.02,-116.9 498.33,-90.56"/>
<polygon fill="#63b8ff" stroke="#63b8ff" points="501.63,-91.74 501.3,-81.15 494.95,-89.64 501.63,-91.74"/>
</g>
<!-- Node10&#45;&gt;Node6 -->
<g id="edge15" class="edge">
<title>Node10&#45;&gt;Node6</title>
<path fill="none" stroke="#63b8ff" d="M504.5,-60.37C504.5,-52.5 504.5,-40.6 504.5,-30.39"/>
<polygon fill="#63b8ff" stroke="#63b8ff" points="508,-30.68 504.5,-20.68 501,-30.68 508,-30.68"/>
</g>
<!-- Node11&#45;&gt;Node6 -->
<g id="edge20" class="edge">
<title>Node11&#45;&gt;Node6</title>
<path fill="none" stroke="#63b8ff" d="M605.5,-120.5C604.79,-103.22 601.25,-74.27 586.5,-55 575.78,-41 559.35,-30.86 544,-23.82"/>
<polygon fill="#63b8ff" stroke="#63b8ff" points="545.6,-20.7 535.02,-20.03 542.87,-27.15 545.6,-20.7"/>
</g>
<!-- Node12 -->
<g id="node12" class="node">
<title>Node12</title>
<g id="a_node12"><a xlink:href="JASSoundParams_8h.html" target="_top" xlink:title=" ">
<polygon fill="white" stroke="#666666" points="777,-85 634,-85 634,-55 777,-55 777,-85"/>
<text text-anchor="start" x="642" y="-73" font-family="Helvetica,sans-Serif" font-size="10.00">JSystem/JAudio2/JASSound</text>
<text text-anchor="middle" x="705.5" y="-62" font-family="Helvetica,sans-Serif" font-size="10.00">Params.h</text>
</a>
</g>
</g>
<!-- Node11&#45;&gt;Node12 -->
<g id="edge18" class="edge">
<title>Node11&#45;&gt;Node12</title>
<path fill="none" stroke="#63b8ff" d="M627.69,-120.8C641.19,-112.16 658.66,-100.98 673.62,-91.4"/>
<polygon fill="#63b8ff" stroke="#63b8ff" points="675.21,-94.54 681.75,-86.2 671.44,-88.64 675.21,-94.54"/>
</g>
<!-- Node12&#45;&gt;Node6 -->
<g id="edge19" class="edge">
<title>Node12&#45;&gt;Node6</title>
<path fill="none" stroke="#63b8ff" d="M655.81,-54.54C622.02,-44.7 577.81,-31.84 545.92,-22.56"/>
<polygon fill="#63b8ff" stroke="#63b8ff" points="547.22,-19.29 536.64,-19.86 545.27,-26.01 547.22,-19.29"/>
</g>
<!-- Node13&#45;&gt;Node6 -->
<g id="edge24" class="edge">
<title>Node13&#45;&gt;Node6</title>
<path fill="none" stroke="#63b8ff" d="M800.41,-60.07C795.59,-58.18 790.42,-56.36 785.5,-55 707.09,-33.4 613.3,-21.18 556.35,-15.2"/>
<polygon fill="#63b8ff" stroke="#63b8ff" points="556.93,-11.75 546.63,-14.21 556.22,-18.71 556.93,-11.75"/>
</g>
<!-- Node14&#45;&gt;Node6 -->
<g id="edge26" class="edge">
<title>Node14&#45;&gt;Node6</title>
<path fill="none" stroke="#63b8ff" d="M972.85,-252.57C969.93,-219.87 955.11,-105.96 887.5,-55 836.56,-16.6 649.17,-10.71 556.75,-10.21"/>
<polygon fill="#63b8ff" stroke="#63b8ff" points="556.95,-6.71 546.94,-10.18 556.93,-13.71 556.95,-6.71"/>
</g>
</g>
</svg>
