<?xml version="1.0" encoding="UTF-8" standalone="no"?>
<!DOCTYPE svg PUBLIC "-//W3C//DTD SVG 1.1//EN"
 "http://www.w3.org/Graphics/SVG/1.1/DTD/svg11.dtd">
<!-- Generated by graphviz version 7.0.5 (20221223.1930)
 -->
<!-- Title: libs/JSystem/JAudio2/JAISeq.cpp Pages: 1 -->
<svg width="3089pt" height="544pt"
 viewBox="0.00 0.00 3088.50 544.00" xmlns="http://www.w3.org/2000/svg" xmlns:xlink="http://www.w3.org/1999/xlink">
<g id="graph0" class="graph" transform="scale(1 1) rotate(0) translate(4 540)">
<title>libs/JSystem/JAudio2/JAISeq.cpp</title>
<!-- Node1 -->
<g id="node1" class="node">
<title>Node1</title>
<g id="a_node1"><a xlink:title=" ">
<polygon fill="#999999" stroke="#666666" points="1946.5,-536 1835.5,-536 1835.5,-506 1946.5,-506 1946.5,-536"/>
<text text-anchor="start" x="1843.5" y="-524" font-family="Helvetica,sans-Serif" font-size="10.00">libs/JSystem/JAudio2</text>
<text text-anchor="middle" x="1891" y="-513" font-family="Helvetica,sans-Serif" font-size="10.00">/JAISeq.cpp</text>
</a>
</g>
</g>
<!-- Node2 -->
<g id="node2" class="node">
<title>Node2</title>
<g id="a_node2"><a xlink:href="JAISeq_8h.html" target="_top" xlink:title=" ">
<polygon fill="white" stroke="#666666" points="912,-459 776,-459 776,-440 912,-440 912,-459"/>
<text text-anchor="middle" x="844" y="-447" font-family="Helvetica,sans-Serif" font-size="10.00">JSystem/JAudio2/JAISeq.h</text>
</a>
</g>
</g>
<!-- Node1&#45;&gt;Node2 -->
<g id="edge1" class="edge">
<title>Node1&#45;&gt;Node2</title>
<path fill="none" stroke="#63b8ff" d="M1835.08,-516.29C1660.8,-504.72 1127.04,-469.29 923.76,-455.79"/>
<polygon fill="#63b8ff" stroke="#63b8ff" points="924.02,-452.3 913.81,-455.13 923.55,-459.29 924.02,-452.3"/>
</g>
<!-- Node52 -->
<g id="node36" class="node">
<title>Node52</title>
<g id="a_node36"><a xlink:href="JAISeqMgr_8h.html" target="_top" xlink:title=" ">
<polygon fill="white" stroke="#666666" points="1352,-459 1200,-459 1200,-440 1352,-440 1352,-459"/>
<text text-anchor="middle" x="1276" y="-447" font-family="Helvetica,sans-Serif" font-size="10.00">JSystem/JAudio2/JAISeqMgr.h</text>
</a>
</g>
</g>
<!-- Node1&#45;&gt;Node52 -->
<g id="edge53" class="edge">
<title>Node1&#45;&gt;Node52</title>
<path fill="none" stroke="#63b8ff" d="M1835.07,-513.68C1727.71,-501.55 1492.06,-474.92 1363.65,-460.4"/>
<polygon fill="#63b8ff" stroke="#63b8ff" points="1364.15,-456.94 1353.82,-459.29 1363.37,-463.9 1364.15,-456.94"/>
</g>
<!-- Node53 -->
<g id="node37" class="node">
<title>Node53</title>
<g id="a_node37"><a xlink:href="JASCriticalSection_8h.html" target="_top" xlink:title=" ">
<polygon fill="white" stroke="#666666" points="1231.5,-195 1086.5,-195 1086.5,-165 1231.5,-165 1231.5,-195"/>
<text text-anchor="start" x="1094.5" y="-183" font-family="Helvetica,sans-Serif" font-size="10.00">JSystem/JAudio2/JASCritical</text>
<text text-anchor="middle" x="1159" y="-172" font-family="Helvetica,sans-Serif" font-size="10.00">Section.h</text>
</a>
</g>
</g>
<!-- Node1&#45;&gt;Node53 -->
<g id="edge58" class="edge">
<title>Node1&#45;&gt;Node53</title>
<path fill="none" stroke="#63b8ff" d="M1835.17,-518.63C1747.29,-515.43 1581.95,-504.82 1536,-470 1442.04,-398.81 1517.43,-298.8 1421,-231 1406.37,-220.71 1313.99,-204.63 1243.02,-193.5"/>
<polygon fill="#63b8ff" stroke="#63b8ff" points="1243.74,-190.07 1233.32,-191.99 1242.67,-196.99 1243.74,-190.07"/>
</g>
<!-- Node54 -->
<g id="node38" class="node">
<title>Node54</title>
<g id="a_node38"><a xlink:href="JAISoundChild_8h.html" target="_top" xlink:title=" ">
<polygon fill="white" stroke="#666666" points="1977.5,-393 1838.5,-393 1838.5,-363 1977.5,-363 1977.5,-393"/>
<text text-anchor="start" x="1846.5" y="-381" font-family="Helvetica,sans-Serif" font-size="10.00">JSystem/JAudio2/JAISound</text>
<text text-anchor="middle" x="1908" y="-370" font-family="Helvetica,sans-Serif" font-size="10.00">Child.h</text>
</a>
</g>
</g>
<!-- Node1&#45;&gt;Node54 -->
<g id="edge60" class="edge">
<title>Node1&#45;&gt;Node54</title>
<path fill="none" stroke="#63b8ff" d="M1835.29,-517.78C1800.66,-513.16 1758.55,-500.97 1736,-470 1725.27,-455.27 1725.06,-443.57 1736,-429 1747.58,-413.58 1788.32,-401.36 1827.25,-392.86"/>
<polygon fill="#63b8ff" stroke="#63b8ff" points="1827.87,-396.31 1836.94,-390.82 1826.43,-389.46 1827.87,-396.31"/>
</g>
<!-- Node55 -->
<g id="node39" class="node">
<title>Node55</title>
<g id="a_node39"><a xlink:href="JAIAudience_8h.html" target="_top" xlink:title=" ">
<polygon fill="white" stroke="#666666" points="648.5,-387.5 489.5,-387.5 489.5,-368.5 648.5,-368.5 648.5,-387.5"/>
<text text-anchor="middle" x="569" y="-375.5" font-family="Helvetica,sans-Serif" font-size="10.00">JSystem/JAudio2/JAIAudience.h</text>
</a>
</g>
</g>
<!-- Node1&#45;&gt;Node55 -->
<g id="edge62" class="edge">
<title>Node1&#45;&gt;Node55</title>
<path fill="none" stroke="#63b8ff" d="M1835.03,-520.35C1637.38,-521.13 972.98,-519.89 767,-470 700.4,-453.87 628.93,-415.01 592.82,-393.66"/>
<polygon fill="#63b8ff" stroke="#63b8ff" points="594.87,-390.81 584.49,-388.67 591.27,-396.81 594.87,-390.81"/>
</g>
<!-- Node56 -->
<g id="node40" class="node">
<title>Node56</title>
<g id="a_node40"><a xlink:href="JKRHeap_8h.html" target="_top" xlink:title=" ">
<polygon fill="white" stroke="#666666" points="1688.5,-459 1545.5,-459 1545.5,-440 1688.5,-440 1688.5,-459"/>
<text text-anchor="middle" x="1617" y="-447" font-family="Helvetica,sans-Serif" font-size="10.00">JSystem/JKernel/JKRHeap.h</text>
</a>
</g>
</g>
<!-- Node1&#45;&gt;Node56 -->
<g id="edge64" class="edge">
<title>Node1&#45;&gt;Node56</title>
<path fill="none" stroke="#63b8ff" d="M1835.22,-505.85C1784.52,-492.99 1710.59,-474.24 1663.14,-462.2"/>
<polygon fill="#63b8ff" stroke="#63b8ff" points="1664.29,-458.88 1653.73,-459.82 1662.57,-465.67 1664.29,-458.88"/>
</g>
<!-- Node58 -->
<g id="node42" class="node">
<title>Node58</title>
<g id="a_node42"><a xlink:href="dol2asm_8h.html" target="_top" xlink:title=" ">
<polygon fill="white" stroke="#666666" points="1806.5,-459 1745.5,-459 1745.5,-440 1806.5,-440 1806.5,-459"/>
<text text-anchor="middle" x="1776" y="-447" font-family="Helvetica,sans-Serif" font-size="10.00">dol2asm.h</text>
</a>
</g>
</g>
<!-- Node1&#45;&gt;Node58 -->
<g id="edge68" class="edge">
<title>Node1&#45;&gt;Node58</title>
<path fill="none" stroke="#63b8ff" d="M1867.17,-505.6C1847.65,-493.8 1820.14,-477.18 1800.46,-465.28"/>
<polygon fill="#63b8ff" stroke="#63b8ff" points="1802.35,-462.34 1791.99,-460.16 1798.73,-468.33 1802.35,-462.34"/>
</g>
<!-- Node59 -->
<g id="node43" class="node">
<title>Node59</title>
<g id="a_node43"><a xlink:title=" ">
<polygon fill="#e0e0e0" stroke="#999999" points="1957.5,-464.5 1824.5,-464.5 1824.5,-434.5 1957.5,-434.5 1957.5,-464.5"/>
<text text-anchor="start" x="1832.5" y="-452.5" font-family="Helvetica,sans-Serif" font-size="10.00">asm/JSystem/JAudio2</text>
<text text-anchor="middle" x="1891" y="-441.5" font-family="Helvetica,sans-Serif" font-size="10.00">/JAISeq/func_802A0A8C.s</text>
</a>
</g>
</g>
<!-- Node1&#45;&gt;Node59 -->
<g id="edge69" class="edge">
<title>Node1&#45;&gt;Node59</title>
<path fill="none" stroke="#63b8ff" d="M1891,-505.6C1891,-497.12 1891,-486.14 1891,-476.22"/>
<polygon fill="#63b8ff" stroke="#63b8ff" points="1894.5,-476.4 1891,-466.4 1887.5,-476.4 1894.5,-476.4"/>
</g>
<!-- Node60 -->
<g id="node44" class="node">
<title>Node60</title>
<g id="a_node44"><a xlink:title=" ">
<polygon fill="#e0e0e0" stroke="#999999" points="2114.5,-470 1975.5,-470 1975.5,-429 2114.5,-429 2114.5,-470"/>
<text text-anchor="start" x="1983.5" y="-458" font-family="Helvetica,sans-Serif" font-size="10.00">asm/JSystem/JAudio2</text>
<text text-anchor="start" x="1983.5" y="-447" font-family="Helvetica,sans-Serif" font-size="10.00">/JAISeq/reserveChildTracks</text>
<text text-anchor="middle" x="2045" y="-436" font-family="Helvetica,sans-Serif" font-size="10.00">___6JAISeqFi.s</text>
</a>
</g>
</g>
<!-- Node1&#45;&gt;Node60 -->
<g id="edge70" class="edge">
<title>Node1&#45;&gt;Node60</title>
<path fill="none" stroke="#63b8ff" d="M1922.91,-505.6C1942.38,-496.81 1967.79,-485.35 1990.38,-475.15"/>
<polygon fill="#63b8ff" stroke="#63b8ff" points="1991.82,-478.34 1999.49,-471.04 1988.94,-471.96 1991.82,-478.34"/>
</g>
<!-- Node61 -->
<g id="node45" class="node">
<title>Node61</title>
<g id="a_node45"><a xlink:title=" ">
<polygon fill="#e0e0e0" stroke="#999999" points="2273,-464.5 2133,-464.5 2133,-434.5 2273,-434.5 2273,-464.5"/>
<text text-anchor="start" x="2141" y="-452.5" font-family="Helvetica,sans-Serif" font-size="10.00">asm/JSystem/JAudio2</text>
<text text-anchor="middle" x="2203" y="-441.5" font-family="Helvetica,sans-Serif" font-size="10.00">/JAISeq/die___6JAISeqFv.s</text>
</a>
</g>
</g>
<!-- Node1&#45;&gt;Node61 -->
<g id="edge71" class="edge">
<title>Node1&#45;&gt;Node61</title>
<path fill="none" stroke="#63b8ff" d="M1946.88,-508.4C1993.93,-498.52 2062.96,-483.78 2123,-470 2126.37,-469.23 2129.83,-468.42 2133.31,-467.6"/>
<polygon fill="#63b8ff" stroke="#63b8ff" points="2134.1,-471.01 2143.02,-465.3 2132.49,-464.2 2134.1,-471.01"/>
</g>
<!-- Node62 -->
<g id="node46" class="node">
<title>Node62</title>
<g id="a_node46"><a xlink:title=" ">
<polygon fill="#e0e0e0" stroke="#999999" points="2421,-464.5 2291,-464.5 2291,-434.5 2421,-434.5 2421,-464.5"/>
<text text-anchor="start" x="2299" y="-452.5" font-family="Helvetica,sans-Serif" font-size="10.00">asm/JSystem/JAudio2</text>
<text text-anchor="middle" x="2356" y="-441.5" font-family="Helvetica,sans-Serif" font-size="10.00">/JAISeq/func_802A1268.s</text>
</a>
</g>
</g>
<!-- Node1&#45;&gt;Node62 -->
<g id="edge72" class="edge">
<title>Node1&#45;&gt;Node62</title>
<path fill="none" stroke="#63b8ff" d="M1946.73,-515.18C2022.9,-508.07 2163.61,-493.07 2282,-470 2285.83,-469.25 2289.76,-468.42 2293.71,-467.53"/>
<polygon fill="#63b8ff" stroke="#63b8ff" points="2294.44,-470.96 2303.37,-465.25 2292.84,-464.14 2294.44,-470.96"/>
</g>
<!-- Node63 -->
<g id="node47" class="node">
<title>Node63</title>
<g id="a_node47"><a xlink:title=" ">
<polygon fill="#e0e0e0" stroke="#999999" points="2567,-470 2439,-470 2439,-429 2567,-429 2567,-470"/>
<text text-anchor="start" x="2447" y="-458" font-family="Helvetica,sans-Serif" font-size="10.00">asm/JSystem/JAudio2</text>
<text text-anchor="start" x="2447" y="-447" font-family="Helvetica,sans-Serif" font-size="10.00">/JAISeq/JAISound_tryDie</text>
<text text-anchor="middle" x="2503" y="-436" font-family="Helvetica,sans-Serif" font-size="10.00">___6JAISeqFv.s</text>
</a>
</g>
</g>
<!-- Node1&#45;&gt;Node63 -->
<g id="edge73" class="edge">
<title>Node1&#45;&gt;Node63</title>
<path fill="none" stroke="#63b8ff" d="M1946.89,-517.92C2043.23,-513.66 2246.81,-501.7 2427.34,-470.32"/>
<polygon fill="#63b8ff" stroke="#63b8ff" points="2427.92,-473.77 2437.16,-468.58 2426.7,-466.88 2427.92,-473.77"/>
</g>
<!-- Node64 -->
<g id="node48" class="node">
<title>Node64</title>
<g id="a_node48"><a xlink:title=" ">
<polygon fill="#e0e0e0" stroke="#999999" points="2775,-470 2585,-470 2585,-429 2775,-429 2775,-470"/>
<text text-anchor="start" x="2593" y="-458" font-family="Helvetica,sans-Serif" font-size="10.00">asm/JSystem/JAudio2</text>
<text text-anchor="start" x="2593" y="-447" font-family="Helvetica,sans-Serif" font-size="10.00">/JAISeq/mixOut___6JAISeqFRC14</text>
<text text-anchor="middle" x="2680" y="-436" font-family="Helvetica,sans-Serif" font-size="10.00">JASSoundParams16JAISoundActivity.s</text>
</a>
</g>
</g>
<!-- Node1&#45;&gt;Node64 -->
<g id="edge74" class="edge">
<title>Node1&#45;&gt;Node64</title>
<path fill="none" stroke="#63b8ff" d="M1946.71,-518.06C2061.87,-513.59 2334.65,-500.62 2573.24,-470.28"/>
<polygon fill="#63b8ff" stroke="#63b8ff" points="2573.6,-473.76 2583.07,-469.02 2572.71,-466.82 2573.6,-473.76"/>
</g>
<!-- Node65 -->
<g id="node49" class="node">
<title>Node65</title>
<g id="a_node49"><a xlink:title=" ">
<polygon fill="#e0e0e0" stroke="#999999" points="2947,-464.5 2793,-464.5 2793,-434.5 2947,-434.5 2947,-464.5"/>
<text text-anchor="start" x="2801" y="-452.5" font-family="Helvetica,sans-Serif" font-size="10.00">asm/JSystem/JAudio2</text>
<text text-anchor="middle" x="2870" y="-441.5" font-family="Helvetica,sans-Serif" font-size="10.00">/JAISeq/getChild__6JAISeqFi.s</text>
</a>
</g>
</g>
<!-- Node1&#45;&gt;Node65 -->
<g id="edge75" class="edge">
<title>Node1&#45;&gt;Node65</title>
<path fill="none" stroke="#63b8ff" d="M1946.96,-520.1C2088.1,-519.66 2469.73,-514.11 2784,-470 2789.64,-469.21 2795.45,-468.24 2801.27,-467.15"/>
<polygon fill="#63b8ff" stroke="#63b8ff" points="2801.8,-470.61 2810.93,-465.24 2800.45,-463.75 2801.8,-470.61"/>
</g>
<!-- Node66 -->
<g id="node50" class="node">
<title>Node66</title>
<g id="a_node50"><a xlink:title=" ">
<polygon fill="#e0e0e0" stroke="#999999" points="3080.5,-470 2965.5,-470 2965.5,-429 3080.5,-429 3080.5,-470"/>
<text text-anchor="start" x="2973.5" y="-458" font-family="Helvetica,sans-Serif" font-size="10.00">asm/JSystem/JAudio2</text>
<text text-anchor="start" x="2973.5" y="-447" font-family="Helvetica,sans-Serif" font-size="10.00">/JAISeq/releaseChild</text>
<text text-anchor="middle" x="3023" y="-436" font-family="Helvetica,sans-Serif" font-size="10.00">__6JAISeqFi.s</text>
</a>
</g>
</g>
<!-- Node1&#45;&gt;Node66 -->
<g id="edge76" class="edge">
<title>Node1&#45;&gt;Node66</title>
<path fill="none" stroke="#63b8ff" d="M1946.76,-519.12C2133.57,-515.9 2737.19,-503.28 2953.84,-470.07"/>
<polygon fill="#63b8ff" stroke="#63b8ff" points="2954.27,-473.54 2963.6,-468.5 2953.17,-466.63 2954.27,-473.54"/>
</g>
<!-- Node3 -->
<g id="node3" class="node">
<title>Node3</title>
<g id="a_node3"><a xlink:href="JAISeqDataMgr_8h.html" target="_top" xlink:title=" ">
<polygon fill="white" stroke="#666666" points="815.5,-393 666.5,-393 666.5,-363 815.5,-363 815.5,-393"/>
<text text-anchor="start" x="674.5" y="-381" font-family="Helvetica,sans-Serif" font-size="10.00">JSystem/JAudio2/JAISeqData</text>
<text text-anchor="middle" x="741" y="-370" font-family="Helvetica,sans-Serif" font-size="10.00">Mgr.h</text>
</a>
</g>
</g>
<!-- Node2&#45;&gt;Node3 -->
<g id="edge2" class="edge">
<title>Node2&#45;&gt;Node3</title>
<path fill="none" stroke="#63b8ff" d="M830.95,-439.7C816.14,-429.7 791.45,-413.04 771.68,-399.7"/>
<polygon fill="#63b8ff" stroke="#63b8ff" points="773.66,-396.81 763.41,-394.12 769.74,-402.62 773.66,-396.81"/>
</g>
<!-- Node16 -->
<g id="node14" class="node">
<title>Node16</title>
<g id="a_node14"><a xlink:href="JASHeapCtrl_8h.html" target="_top" xlink:title=" ">
<polygon fill="white" stroke="#666666" points="1247.5,-387.5 1086.5,-387.5 1086.5,-368.5 1247.5,-368.5 1247.5,-387.5"/>
<text text-anchor="middle" x="1167" y="-375.5" font-family="Helvetica,sans-Serif" font-size="10.00">JSystem/JAudio2/JASHeapCtrl.h</text>
</a>
</g>
</g>
<!-- Node2&#45;&gt;Node16 -->
<g id="edge15" class="edge">
<title>Node2&#45;&gt;Node16</title>
<path fill="none" stroke="#63b8ff" d="M885.57,-439.56C943.99,-426.98 1050.4,-404.09 1114.31,-390.34"/>
<polygon fill="#63b8ff" stroke="#63b8ff" points="1114.82,-393.81 1123.86,-388.28 1113.35,-386.96 1114.82,-393.81"/>
</g>
<!-- Node17 -->
<g id="node15" class="node">
<title>Node17</title>
<g id="a_node15"><a xlink:href="JSUList_8h.html" target="_top" xlink:title=" ">
<polygon fill="white" stroke="#666666" points="975.5,-321.5 832.5,-321.5 832.5,-302.5 975.5,-302.5 975.5,-321.5"/>
<text text-anchor="middle" x="904" y="-309.5" font-family="Helvetica,sans-Serif" font-size="10.00">JSystem/JSupport/JSUList.h</text>
</a>
</g>
</g>
<!-- Node2&#45;&gt;Node17 -->
<g id="edge52" class="edge">
<title>Node2&#45;&gt;Node17</title>
<path fill="none" stroke="#63b8ff" d="M845.43,-439.64C848.23,-423.71 855.29,-389.39 868,-363 873.52,-351.53 881.69,-339.93 888.84,-330.79"/>
<polygon fill="#63b8ff" stroke="#63b8ff" points="891.48,-333.09 895.09,-323.13 886.06,-328.67 891.48,-333.09"/>
</g>
<!-- Node22 -->
<g id="node19" class="node">
<title>Node22</title>
<g id="a_node19"><a xlink:href="JASTrack_8h.html" target="_top" xlink:title=" ">
<polygon fill="white" stroke="#666666" points="447.5,-387.5 300.5,-387.5 300.5,-368.5 447.5,-368.5 447.5,-387.5"/>
<text text-anchor="middle" x="374" y="-375.5" font-family="Helvetica,sans-Serif" font-size="10.00">JSystem/JAudio2/JASTrack.h</text>
</a>
</g>
</g>
<!-- Node2&#45;&gt;Node22 -->
<g id="edge22" class="edge">
<title>Node2&#45;&gt;Node22</title>
<path fill="none" stroke="#63b8ff" d="M783.52,-439.56C697,-426.76 538.2,-403.28 445.82,-389.62"/>
<polygon fill="#63b8ff" stroke="#63b8ff" points="446.52,-386.19 436.12,-388.19 445.5,-393.11 446.52,-386.19"/>
</g>
<!-- Node4 -->
<g id="node4" class="node">
<title>Node4</title>
<g id="a_node4"><a xlink:href="JAISound_8h.html" target="_top" xlink:title=" ">
<polygon fill="white" stroke="#666666" points="814,-321.5 668,-321.5 668,-302.5 814,-302.5 814,-321.5"/>
<text text-anchor="middle" x="741" y="-309.5" font-family="Helvetica,sans-Serif" font-size="10.00">JSystem/JAudio2/JAISound.h</text>
</a>
</g>
</g>
<!-- Node3&#45;&gt;Node4 -->
<g id="edge3" class="edge">
<title>Node3&#45;&gt;Node4</title>
<path fill="none" stroke="#63b8ff" d="M741,-362.8C741,-354.09 741,-342.81 741,-333.18"/>
<polygon fill="#63b8ff" stroke="#63b8ff" points="744.5,-333.36 741,-323.36 737.5,-333.36 744.5,-333.36"/>
</g>
<!-- Node5 -->
<g id="node5" class="node">
<title>Node5</title>
<g id="a_node5"><a xlink:href="JAISoundParams_8h.html" target="_top" xlink:title=" ">
<polygon fill="white" stroke="#666666" points="1677.5,-261 1538.5,-261 1538.5,-231 1677.5,-231 1677.5,-261"/>
<text text-anchor="start" x="1546.5" y="-249" font-family="Helvetica,sans-Serif" font-size="10.00">JSystem/JAudio2/JAISound</text>
<text text-anchor="middle" x="1608" y="-238" font-family="Helvetica,sans-Serif" font-size="10.00">Params.h</text>
</a>
</g>
</g>
<!-- Node4&#45;&gt;Node5 -->
<g id="edge4" class="edge">
<title>Node4&#45;&gt;Node5</title>
<path fill="none" stroke="#63b8ff" d="M788.14,-302.05C799.52,-300.14 811.67,-298.3 823,-297 1087.51,-266.55 1155.35,-278.94 1421,-261 1455.72,-258.66 1494.05,-255.83 1526.92,-253.33"/>
<polygon fill="#63b8ff" stroke="#63b8ff" points="1527.09,-256.83 1536.8,-252.58 1526.56,-249.85 1527.09,-256.83"/>
</g>
<!-- Node9 -->
<g id="node9" class="node">
<title>Node9</title>
<g id="a_node9"><a xlink:href="JAIAudible_8h.html" target="_top" xlink:title=" ">
<polygon fill="white" stroke="#666666" points="748.5,-255.5 597.5,-255.5 597.5,-236.5 748.5,-236.5 748.5,-255.5"/>
<text text-anchor="middle" x="673" y="-243.5" font-family="Helvetica,sans-Serif" font-size="10.00">JSystem/JAudio2/JAIAudible.h</text>
</a>
</g>
</g>
<!-- Node4&#45;&gt;Node9 -->
<g id="edge8" class="edge">
<title>Node4&#45;&gt;Node9</title>
<path fill="none" stroke="#63b8ff" d="M731.54,-302.1C720.99,-292.17 703.68,-275.87 690.61,-263.57"/>
<polygon fill="#63b8ff" stroke="#63b8ff" points="693.16,-261.17 683.48,-256.86 688.36,-266.26 693.16,-261.17"/>
</g>
<!-- Node15 -->
<g id="node13" class="node">
<title>Node15</title>
<g id="a_node13"><a xlink:href="global_8h.html" target="_top" xlink:title=" ">
<polygon fill="white" stroke="#666666" points="817,-255.5 767,-255.5 767,-236.5 817,-236.5 817,-255.5"/>
<text text-anchor="middle" x="792" y="-243.5" font-family="Helvetica,sans-Serif" font-size="10.00">global.h</text>
</a>
</g>
</g>
<!-- Node4&#45;&gt;Node15 -->
<g id="edge13" class="edge">
<title>Node4&#45;&gt;Node15</title>
<path fill="none" stroke="#63b8ff" d="M748.09,-302.1C755.78,-292.45 768.25,-276.81 777.94,-264.65"/>
<polygon fill="#63b8ff" stroke="#63b8ff" points="780.53,-267.01 784.03,-257.01 775.06,-262.65 780.53,-267.01"/>
</g>
<!-- Node6 -->
<g id="node6" class="node">
<title>Node6</title>
<g id="a_node6"><a xlink:href="JASSoundParams_8h.html" target="_top" xlink:title=" ">
<polygon fill="white" stroke="#666666" points="1637.5,-195 1494.5,-195 1494.5,-165 1637.5,-165 1637.5,-195"/>
<text text-anchor="start" x="1502.5" y="-183" font-family="Helvetica,sans-Serif" font-size="10.00">JSystem/JAudio2/JASSound</text>
<text text-anchor="middle" x="1566" y="-172" font-family="Helvetica,sans-Serif" font-size="10.00">Params.h</text>
</a>
</g>
</g>
<!-- Node5&#45;&gt;Node6 -->
<g id="edge5" class="edge">
<title>Node5&#45;&gt;Node6</title>
<path fill="none" stroke="#63b8ff" d="M1598.68,-230.8C1593.62,-223.09 1587.24,-213.37 1581.46,-204.56"/>
<polygon fill="#63b8ff" stroke="#63b8ff" points="1584.54,-202.87 1576.13,-196.43 1578.69,-206.71 1584.54,-202.87"/>
</g>
<!-- Node7 -->
<g id="node7" class="node">
<title>Node7</title>
<g id="a_node7"><a xlink:href="types_8h.html" target="_top" xlink:title=" ">
<polygon fill="white" stroke="#666666" points="834.5,-74 753.5,-74 753.5,-55 834.5,-55 834.5,-74"/>
<text text-anchor="middle" x="794" y="-62" font-family="Helvetica,sans-Serif" font-size="10.00">dolphin/types.h</text>
</a>
</g>
</g>
<!-- Node6&#45;&gt;Node7 -->
<g id="edge6" class="edge">
<title>Node6&#45;&gt;Node7</title>
<path fill="none" stroke="#63b8ff" d="M1596.8,-164.62C1622.48,-150.77 1652.17,-129.16 1634,-110 1606.83,-81.36 1026.08,-69.35 846.46,-66.31"/>
<polygon fill="#63b8ff" stroke="#63b8ff" points="846.54,-62.81 836.49,-66.15 846.43,-69.81 846.54,-62.81"/>
</g>
<!-- Node8 -->
<g id="node8" class="node">
<title>Node8</title>
<g id="a_node8"><a xlink:href="stddef_8h.html" target="_top" xlink:title=" ">
<polygon fill="white" stroke="#666666" points="1289.5,-19 1238.5,-19 1238.5,0 1289.5,0 1289.5,-19"/>
<text text-anchor="middle" x="1264" y="-7" font-family="Helvetica,sans-Serif" font-size="10.00">stddef.h</text>
</a>
</g>
</g>
<!-- Node7&#45;&gt;Node8 -->
<g id="edge7" class="edge">
<title>Node7&#45;&gt;Node8</title>
<path fill="none" stroke="#63b8ff" d="M834.89,-58.89C925.11,-48.71 1140.12,-24.47 1226.82,-14.69"/>
<polygon fill="#63b8ff" stroke="#63b8ff" points="1227.12,-18.18 1236.67,-13.58 1226.34,-11.22 1227.12,-18.18"/>
</g>
<!-- Node10 -->
<g id="node10" class="node">
<title>Node10</title>
<g id="a_node10"><a xlink:href="JGeometry_8h.html" target="_top" xlink:title=" ">
<polygon fill="white" stroke="#666666" points="632.5,-189.5 519.5,-189.5 519.5,-170.5 632.5,-170.5 632.5,-189.5"/>
<text text-anchor="middle" x="576" y="-177.5" font-family="Helvetica,sans-Serif" font-size="10.00">JSystem/JGeometry.h</text>
</a>
</g>
</g>
<!-- Node9&#45;&gt;Node10 -->
<g id="edge9" class="edge">
<title>Node9&#45;&gt;Node10</title>
<path fill="none" stroke="#63b8ff" d="M659.51,-236.1C643.8,-225.74 617.6,-208.45 598.73,-196"/>
<polygon fill="#63b8ff" stroke="#63b8ff" points="600.91,-193.24 590.64,-190.66 597.06,-199.09 600.91,-193.24"/>
</g>
<!-- Node11 -->
<g id="node11" class="node">
<title>Node11</title>
<g id="a_node11"><a xlink:href="vec_8h.html" target="_top" xlink:title=" ">
<polygon fill="white" stroke="#666666" points="639,-129 547,-129 547,-110 639,-110 639,-129"/>
<text text-anchor="middle" x="593" y="-117" font-family="Helvetica,sans-Serif" font-size="10.00">dolphin/mtx/vec.h</text>
</a>
</g>
</g>
<!-- Node10&#45;&gt;Node11 -->
<g id="edge10" class="edge">
<title>Node10&#45;&gt;Node11</title>
<path fill="none" stroke="#63b8ff" d="M578.51,-170.37C580.82,-162.42 584.33,-150.33 587.32,-140.05"/>
<polygon fill="#63b8ff" stroke="#63b8ff" points="590.63,-141.2 590.06,-130.62 583.91,-139.25 590.63,-141.2"/>
</g>
<!-- Node12 -->
<g id="node12" class="node">
<title>Node12</title>
<g id="a_node12"><a xlink:href="math_8h.html" target="_top" xlink:title=" ">
<polygon fill="#fff0f0" stroke="red" points="529,-129 483,-129 483,-110 529,-110 529,-129"/>
<text text-anchor="middle" x="506" y="-117" font-family="Helvetica,sans-Serif" font-size="10.00">math.h</text>
</a>
</g>
</g>
<!-- Node10&#45;&gt;Node12 -->
<g id="edge12" class="edge">
<title>Node10&#45;&gt;Node12</title>
<path fill="none" stroke="#63b8ff" d="M565.37,-170.12C554.78,-161.27 538.29,-147.48 525.37,-136.69"/>
<polygon fill="#63b8ff" stroke="#63b8ff" points="527.81,-134.17 517.89,-130.44 523.32,-139.54 527.81,-134.17"/>
</g>
<!-- Node11&#45;&gt;Node7 -->
<g id="edge11" class="edge">
<title>Node11&#45;&gt;Node7</title>
<path fill="none" stroke="#63b8ff" d="M627.1,-109.51C660.69,-100.65 712.21,-87.07 749.12,-77.33"/>
<polygon fill="#63b8ff" stroke="#63b8ff" points="749.83,-80.77 758.61,-74.83 748.05,-74 749.83,-80.77"/>
</g>
<!-- Node15&#45;&gt;Node7 -->
<g id="edge14" class="edge">
<title>Node15&#45;&gt;Node7</title>
<path fill="none" stroke="#63b8ff" d="M776.08,-236.11C740.18,-214.9 658.52,-159.41 691,-110 702.55,-92.43 722.66,-81.77 742.07,-75.31"/>
<polygon fill="#63b8ff" stroke="#63b8ff" points="742.99,-78.69 751.58,-72.48 741,-71.98 742.99,-78.69"/>
</g>
<!-- Node16&#45;&gt;Node17 -->
<g id="edge16" class="edge">
<title>Node16&#45;&gt;Node17</title>
<path fill="none" stroke="#63b8ff" d="M1130.15,-368.03C1083.5,-356.68 1003.02,-337.1 951.71,-324.61"/>
<polygon fill="#63b8ff" stroke="#63b8ff" points="952.61,-321.23 942.07,-322.26 950.96,-328.03 952.61,-321.23"/>
</g>
<!-- Node18 -->
<g id="node16" class="node">
<title>Node18</title>
<g id="a_node16"><a xlink:href="OSInterrupt_8h.html" target="_top" xlink:title=" ">
<polygon fill="white" stroke="#666666" points="855,-129 733,-129 733,-110 855,-110 855,-129"/>
<text text-anchor="middle" x="794" y="-117" font-family="Helvetica,sans-Serif" font-size="10.00">dolphin/os/OSInterrupt.h</text>
</a>
</g>
</g>
<!-- Node16&#45;&gt;Node18 -->
<g id="edge18" class="edge">
<title>Node16&#45;&gt;Node18</title>
<path fill="none" stroke="#63b8ff" d="M1154.16,-368.17C1099.46,-330.56 885.5,-183.42 815.96,-135.6"/>
<polygon fill="#63b8ff" stroke="#63b8ff" points="818.26,-132.93 808.03,-130.15 814.29,-138.7 818.26,-132.93"/>
</g>
<!-- Node19 -->
<g id="node17" class="node">
<title>Node19</title>
<g id="a_node17"><a xlink:href="OSMutex_8h.html" target="_top" xlink:title=" ">
<polygon fill="white" stroke="#666666" points="1874,-129 1762,-129 1762,-110 1874,-110 1874,-129"/>
<text text-anchor="middle" x="1818" y="-117" font-family="Helvetica,sans-Serif" font-size="10.00">dolphin/os/OSMutex.h</text>
</a>
</g>
</g>
<!-- Node16&#45;&gt;Node19 -->
<g id="edge20" class="edge">
<title>Node16&#45;&gt;Node19</title>
<path fill="none" stroke="#63b8ff" d="M1248,-370.34C1390.13,-357.15 1676.64,-323.46 1753,-261 1789.19,-231.4 1776.08,-207.3 1796,-165 1799.95,-156.62 1804.46,-147.43 1808.36,-139.59"/>
<polygon fill="#63b8ff" stroke="#63b8ff" points="1811.48,-141.18 1812.84,-130.67 1805.23,-138.04 1811.48,-141.18"/>
</g>
<!-- Node17&#45;&gt;Node7 -->
<g id="edge17" class="edge">
<title>Node17&#45;&gt;Node7</title>
<path fill="none" stroke="#63b8ff" d="M895.38,-302.09C881.04,-287.27 851.35,-256.67 826,-231 780.95,-185.38 748.53,-188.23 724,-129 715.06,-107.41 737.74,-90.18 759.62,-79.15"/>
<polygon fill="#63b8ff" stroke="#63b8ff" points="760.88,-82.43 768.45,-75.03 757.91,-76.09 760.88,-82.43"/>
</g>
<!-- Node18&#45;&gt;Node7 -->
<g id="edge19" class="edge">
<title>Node18&#45;&gt;Node7</title>
<path fill="none" stroke="#63b8ff" d="M794,-109.75C794,-103.27 794,-94.16 794,-85.9"/>
<polygon fill="#63b8ff" stroke="#63b8ff" points="797.5,-85.96 794,-75.96 790.5,-85.96 797.5,-85.96"/>
</g>
<!-- Node20 -->
<g id="node18" class="node">
<title>Node20</title>
<g id="a_node18"><a xlink:href="OSThread_8h.html" target="_top" xlink:title=" ">
<polygon fill="#fff0f0" stroke="red" points="1706,-74 1590,-74 1590,-55 1706,-55 1706,-74"/>
<text text-anchor="middle" x="1648" y="-62" font-family="Helvetica,sans-Serif" font-size="10.00">dolphin/os/OSThread.h</text>
</a>
</g>
</g>
<!-- Node19&#45;&gt;Node20 -->
<g id="edge21" class="edge">
<title>Node19&#45;&gt;Node20</title>
<path fill="none" stroke="#63b8ff" d="M1789.16,-109.51C1761.24,-100.8 1718.67,-87.53 1687.58,-77.84"/>
<polygon fill="#63b8ff" stroke="#63b8ff" points="1688.73,-74.53 1678.14,-74.9 1686.65,-81.21 1688.73,-74.53"/>
</g>
<!-- Node23 -->
<g id="node20" class="node">
<title>Node23</title>
<g id="a_node20"><a xlink:href="JASGadget_8h.html" target="_top" xlink:title=" ">
<polygon fill="white" stroke="#666666" points="1451,-321.5 1297,-321.5 1297,-302.5 1451,-302.5 1451,-321.5"/>
<text text-anchor="middle" x="1374" y="-309.5" font-family="Helvetica,sans-Serif" font-size="10.00">JSystem/JAudio2/JASGadget.h</text>
</a>
</g>
</g>
<!-- Node22&#45;&gt;Node23 -->
<g id="edge23" class="edge">
<title>Node22&#45;&gt;Node23</title>
<path fill="none" stroke="#63b8ff" d="M435.85,-368.03C450.31,-366.16 465.68,-364.34 480,-363 774.35,-335.37 1124.76,-321.2 1285.48,-315.74"/>
<polygon fill="#63b8ff" stroke="#63b8ff" points="1285.33,-319.24 1295.21,-315.41 1285.1,-312.25 1285.33,-319.24"/>
</g>
<!-- Node47 -->
<g id="node31" class="node">
<title>Node47</title>
<g id="a_node31"><a xlink:href="JASOscillator_8h.html" target="_top" xlink:title=" ">
<polygon fill="white" stroke="#666666" points="322,-321.5 158,-321.5 158,-302.5 322,-302.5 322,-321.5"/>
<text text-anchor="middle" x="240" y="-309.5" font-family="Helvetica,sans-Serif" font-size="10.00">JSystem/JAudio2/JASOscillator.h</text>
</a>
</g>
</g>
<!-- Node22&#45;&gt;Node47 -->
<g id="edge43" class="edge">
<title>Node22&#45;&gt;Node47</title>
<path fill="none" stroke="#63b8ff" d="M355.37,-368.1C332.87,-357.35 294.78,-339.16 268.56,-326.64"/>
<polygon fill="#63b8ff" stroke="#63b8ff" points="270.37,-323.63 259.84,-322.48 267.35,-329.94 270.37,-323.63"/>
</g>
<!-- Node48 -->
<g id="node32" class="node">
<title>Node48</title>
<g id="a_node32"><a xlink:href="JASRegisterParam_8h.html" target="_top" xlink:title=" ">
<polygon fill="white" stroke="#666666" points="424.5,-195 273.5,-195 273.5,-165 424.5,-165 424.5,-195"/>
<text text-anchor="start" x="281.5" y="-183" font-family="Helvetica,sans-Serif" font-size="10.00">JSystem/JAudio2/JASRegister</text>
<text text-anchor="middle" x="349" y="-172" font-family="Helvetica,sans-Serif" font-size="10.00">Param.h</text>
</a>
</g>
</g>
<!-- Node22&#45;&gt;Node48 -->
<g id="edge45" class="edge">
<title>Node22&#45;&gt;Node48</title>
<path fill="none" stroke="#63b8ff" d="M372.86,-368.07C369.24,-339.66 357.89,-250.66 352.25,-206.45"/>
<polygon fill="#63b8ff" stroke="#63b8ff" points="355.75,-206.23 351.01,-196.75 348.8,-207.12 355.75,-206.23"/>
</g>
<!-- Node49 -->
<g id="node33" class="node">
<title>Node49</title>
<g id="a_node33"><a xlink:href="JASSeqCtrl_8h.html" target="_top" xlink:title=" ">
<polygon fill="white" stroke="#666666" points="533.5,-321.5 378.5,-321.5 378.5,-302.5 533.5,-302.5 533.5,-321.5"/>
<text text-anchor="middle" x="456" y="-309.5" font-family="Helvetica,sans-Serif" font-size="10.00">JSystem/JAudio2/JASSeqCtrl.h</text>
</a>
</g>
</g>
<!-- Node22&#45;&gt;Node49 -->
<g id="edge47" class="edge">
<title>Node22&#45;&gt;Node49</title>
<path fill="none" stroke="#63b8ff" d="M385.4,-368.1C398.38,-357.98 419.82,-341.24 435.67,-328.87"/>
<polygon fill="#63b8ff" stroke="#63b8ff" points="437.77,-331.67 443.5,-322.75 433.47,-326.15 437.77,-331.67"/>
</g>
<!-- Node51 -->
<g id="node35" class="node">
<title>Node51</title>
<g id="a_node35"><a xlink:href="JASTrackPort_8h.html" target="_top" xlink:title=" ">
<polygon fill="white" stroke="#666666" points="140,-327 0,-327 0,-297 140,-297 140,-327"/>
<text text-anchor="start" x="8" y="-315" font-family="Helvetica,sans-Serif" font-size="10.00">JSystem/JAudio2/JASTrack</text>
<text text-anchor="middle" x="70" y="-304" font-family="Helvetica,sans-Serif" font-size="10.00">Port.h</text>
</a>
</g>
</g>
<!-- Node22&#45;&gt;Node51 -->
<g id="edge50" class="edge">
<title>Node22&#45;&gt;Node51</title>
<path fill="none" stroke="#63b8ff" d="M331.41,-368.03C284.43,-358.14 207.8,-342.01 149.62,-329.76"/>
<polygon fill="#63b8ff" stroke="#63b8ff" points="150.6,-326.39 140.1,-327.76 149.16,-333.24 150.6,-326.39"/>
</g>
<!-- Node24 -->
<g id="node21" class="node">
<title>Node24</title>
<g id="a_node21"><a xlink:href="JUTAssert_8h.html" target="_top" xlink:title=" ">
<polygon fill="white" stroke="#666666" points="1412,-255.5 1266,-255.5 1266,-236.5 1412,-236.5 1412,-255.5"/>
<text text-anchor="middle" x="1339" y="-243.5" font-family="Helvetica,sans-Serif" font-size="10.00">JSystem/JUtility/JUTAssert.h</text>
</a>
</g>
</g>
<!-- Node23&#45;&gt;Node24 -->
<g id="edge24" class="edge">
<title>Node23&#45;&gt;Node24</title>
<path fill="none" stroke="#63b8ff" d="M1369.13,-302.1C1364.01,-292.74 1355.81,-277.73 1349.25,-265.74"/>
<polygon fill="#63b8ff" stroke="#63b8ff" points="1352.42,-264.25 1344.55,-257.15 1346.28,-267.6 1352.42,-264.25"/>
</g>
<!-- Node45 -->
<g id="node29" class="node">
<title>Node45</title>
<g id="a_node29"><a xlink:href="string_8h.html" target="_top" xlink:title=" ">
<polygon fill="white" stroke="#666666" points="1744,-255.5 1696,-255.5 1696,-236.5 1744,-236.5 1744,-255.5"/>
<text text-anchor="middle" x="1720" y="-243.5" font-family="Helvetica,sans-Serif" font-size="10.00">string.h</text>
</a>
</g>
</g>
<!-- Node23&#45;&gt;Node45 -->
<g id="edge40" class="edge">
<title>Node23&#45;&gt;Node45</title>
<path fill="none" stroke="#63b8ff" d="M1432.34,-302.01C1519.26,-288.56 1673.91,-264.41 1686,-261 1687.35,-260.62 1688.71,-260.2 1690.09,-259.76"/>
<polygon fill="#63b8ff" stroke="#63b8ff" points="1690.9,-263.19 1699.08,-256.46 1688.48,-256.62 1690.9,-263.19"/>
</g>
<!-- Node24&#45;&gt;Node7 -->
<g id="edge25" class="edge">
<title>Node24&#45;&gt;Node7</title>
<path fill="none" stroke="#63b8ff" d="M1353.03,-236.08C1378.52,-220.15 1434.47,-186.5 1485,-165 1537.13,-142.82 1638.94,-151.15 1600,-110 1574.06,-82.59 1021.02,-69.8 846.37,-66.43"/>
<polygon fill="#63b8ff" stroke="#63b8ff" points="846.52,-62.94 836.45,-66.25 846.39,-69.93 846.52,-62.94"/>
</g>
<!-- Node25 -->
<g id="node22" class="node">
<title>Node25</title>
<g id="a_node22"><a xlink:href="OS_8h.html" target="_top" xlink:title=" ">
<polygon fill="#fff0f0" stroke="red" points="1354,-189.5 1268,-189.5 1268,-170.5 1354,-170.5 1354,-189.5"/>
<text text-anchor="middle" x="1311" y="-177.5" font-family="Helvetica,sans-Serif" font-size="10.00">dolphin/os/OS.h</text>
</a>
</g>
</g>
<!-- Node24&#45;&gt;Node25 -->
<g id="edge26" class="edge">
<title>Node24&#45;&gt;Node25</title>
<path fill="none" stroke="#63b8ff" d="M1335.11,-236.1C1331.05,-226.84 1324.58,-212.04 1319.36,-200.11"/>
<polygon fill="#63b8ff" stroke="#63b8ff" points="1322.68,-198.97 1315.47,-191.21 1316.27,-201.77 1322.68,-198.97"/>
</g>
<!-- Node25&#45;&gt;Node18 -->
<g id="edge37" class="edge">
<title>Node25&#45;&gt;Node18</title>
<path fill="none" stroke="#63b8ff" d="M1269.07,-170.02C1259.54,-168.17 1249.45,-166.38 1240,-165 1077.46,-141.25 1032.8,-146.86 866.58,-129.25"/>
<polygon fill="#63b8ff" stroke="#63b8ff" points="867.27,-125.8 856.95,-128.21 866.52,-132.76 867.27,-125.8"/>
</g>
<!-- Node25&#45;&gt;Node19 -->
<g id="edge38" class="edge">
<title>Node25&#45;&gt;Node19</title>
<path fill="none" stroke="#63b8ff" d="M1354.23,-174.01C1442.6,-163.82 1644.53,-140.52 1750.4,-128.3"/>
<polygon fill="#63b8ff" stroke="#63b8ff" points="1750.54,-131.81 1760.08,-127.18 1749.74,-124.85 1750.54,-131.81"/>
</g>
<!-- Node25&#45;&gt;Node20 -->
<g id="edge39" class="edge">
<title>Node25&#45;&gt;Node20</title>
<path fill="none" stroke="#63b8ff" d="M1354.37,-175.41C1424.6,-168.96 1559.46,-153.71 1600,-129 1617.49,-118.34 1630.82,-98.74 1638.94,-84.12"/>
<polygon fill="#63b8ff" stroke="#63b8ff" points="1641.92,-85.98 1643.42,-75.49 1635.71,-82.75 1641.92,-85.98"/>
</g>
<!-- Node26 -->
<g id="node23" class="node">
<title>Node26</title>
<g id="a_node23"><a xlink:href="____va__arg_8h.html" target="_top" xlink:title=" ">
<polygon fill="white" stroke="#666666" points="937,-129 873,-129 873,-110 937,-110 937,-129"/>
<text text-anchor="middle" x="905" y="-117" font-family="Helvetica,sans-Serif" font-size="10.00">__va_arg.h</text>
</a>
</g>
</g>
<!-- Node25&#45;&gt;Node26 -->
<g id="edge27" class="edge">
<title>Node25&#45;&gt;Node26</title>
<path fill="none" stroke="#63b8ff" d="M1268.29,-170.05C1258.99,-168.25 1249.18,-166.47 1240,-165 1113.56,-144.82 1077.83,-150.06 948.33,-129.25"/>
<polygon fill="#63b8ff" stroke="#63b8ff" points="949.11,-125.83 938.68,-127.68 947.98,-132.74 949.11,-125.83"/>
</g>
<!-- Node27 -->
<g id="node24" class="node">
<title>Node27</title>
<g id="a_node24"><a xlink:href="dvd_8h.html" target="_top" xlink:title=" ">
<polygon fill="white" stroke="#666666" points="1047,-129 955,-129 955,-110 1047,-110 1047,-129"/>
<text text-anchor="middle" x="1001" y="-117" font-family="Helvetica,sans-Serif" font-size="10.00">dolphin/dvd/dvd.h</text>
</a>
</g>
</g>
<!-- Node25&#45;&gt;Node27 -->
<g id="edge29" class="edge">
<title>Node25&#45;&gt;Node27</title>
<path fill="none" stroke="#63b8ff" d="M1267.84,-170.41C1258.65,-168.61 1249.01,-166.73 1240,-165 1178.02,-153.12 1106.92,-139.94 1058.49,-131.03"/>
<polygon fill="#63b8ff" stroke="#63b8ff" points="1059.25,-127.61 1048.78,-129.24 1057.98,-134.49 1059.25,-127.61"/>
</g>
<!-- Node28 -->
<g id="node25" class="node">
<title>Node28</title>
<g id="a_node25"><a xlink:href="OSAlarm_8h.html" target="_top" xlink:title=" ">
<polygon fill="#fff0f0" stroke="red" points="1430.5,-129 1319.5,-129 1319.5,-110 1430.5,-110 1430.5,-129"/>
<text text-anchor="middle" x="1375" y="-117" font-family="Helvetica,sans-Serif" font-size="10.00">dolphin/os/OSAlarm.h</text>
</a>
</g>
</g>
<!-- Node25&#45;&gt;Node28 -->
<g id="edge31" class="edge">
<title>Node25&#45;&gt;Node28</title>
<path fill="none" stroke="#63b8ff" d="M1320.72,-170.12C1330.31,-161.35 1345.19,-147.75 1356.94,-137"/>
<polygon fill="#63b8ff" stroke="#63b8ff" points="1359.05,-139.82 1364.07,-130.49 1354.33,-134.65 1359.05,-139.82"/>
</g>
<!-- Node31 -->
<g id="node26" class="node">
<title>Node31</title>
<g id="a_node26"><a xlink:href="OSAlloc_8h.html" target="_top" xlink:title=" ">
<polygon fill="white" stroke="#666666" points="1172.5,-129 1065.5,-129 1065.5,-110 1172.5,-110 1172.5,-129"/>
<text text-anchor="middle" x="1119" y="-117" font-family="Helvetica,sans-Serif" font-size="10.00">dolphin/os/OSAlloc.h</text>
</a>
</g>
</g>
<!-- Node25&#45;&gt;Node31 -->
<g id="edge32" class="edge">
<title>Node25&#45;&gt;Node31</title>
<path fill="none" stroke="#63b8ff" d="M1281.84,-170.12C1249.14,-160.15 1195.89,-143.93 1159.24,-132.76"/>
<polygon fill="#63b8ff" stroke="#63b8ff" points="1160.47,-129.48 1149.88,-129.91 1158.43,-136.17 1160.47,-129.48"/>
</g>
<!-- Node32 -->
<g id="node27" class="node">
<title>Node32</title>
<g id="a_node27"><a xlink:href="OSArena_8h.html" target="_top" xlink:title=" ">
<polygon fill="white" stroke="#666666" points="1301.5,-129 1190.5,-129 1190.5,-110 1301.5,-110 1301.5,-129"/>
<text text-anchor="middle" x="1246" y="-117" font-family="Helvetica,sans-Serif" font-size="10.00">dolphin/os/OSArena.h</text>
</a>
</g>
</g>
<!-- Node25&#45;&gt;Node32 -->
<g id="edge34" class="edge">
<title>Node25&#45;&gt;Node32</title>
<path fill="none" stroke="#63b8ff" d="M1301.13,-170.12C1291.39,-161.35 1276.28,-147.75 1264.34,-137"/>
<polygon fill="#63b8ff" stroke="#63b8ff" points="1266.86,-134.57 1257.09,-130.48 1262.18,-139.77 1266.86,-134.57"/>
</g>
<!-- Node33 -->
<g id="node28" class="node">
<title>Node33</title>
<g id="a_node28"><a xlink:href="OSAudioSystem_8h.html" target="_top" xlink:title=" ">
<polygon fill="white" stroke="#666666" points="1591.5,-129 1448.5,-129 1448.5,-110 1591.5,-110 1591.5,-129"/>
<text text-anchor="middle" x="1520" y="-117" font-family="Helvetica,sans-Serif" font-size="10.00">dolphin/os/OSAudioSystem.h</text>
</a>
</g>
</g>
<!-- Node25&#45;&gt;Node33 -->
<g id="edge36" class="edge">
<title>Node25&#45;&gt;Node33</title>
<path fill="none" stroke="#63b8ff" d="M1342.74,-170.12C1378.57,-160.09 1437.06,-143.72 1476.97,-132.54"/>
<polygon fill="#63b8ff" stroke="#63b8ff" points="1477.81,-135.94 1486.5,-129.88 1475.93,-129.2 1477.81,-135.94"/>
</g>
<!-- Node26&#45;&gt;Node7 -->
<g id="edge28" class="edge">
<title>Node26&#45;&gt;Node7</title>
<path fill="none" stroke="#63b8ff" d="M886.17,-109.51C868.84,-101.24 842.89,-88.84 822.93,-79.31"/>
<polygon fill="#63b8ff" stroke="#63b8ff" points="824.45,-76.16 813.92,-75.01 821.43,-82.48 824.45,-76.16"/>
</g>
<!-- Node27&#45;&gt;Node7 -->
<g id="edge30" class="edge">
<title>Node27&#45;&gt;Node7</title>
<path fill="none" stroke="#63b8ff" d="M965.89,-109.51C931.14,-100.61 877.77,-86.95 839.73,-77.21"/>
<polygon fill="#63b8ff" stroke="#63b8ff" points="840.96,-73.91 830.41,-74.82 839.23,-80.69 840.96,-73.91"/>
</g>
<!-- Node31&#45;&gt;Node7 -->
<g id="edge33" class="edge">
<title>Node31&#45;&gt;Node7</title>
<path fill="none" stroke="#63b8ff" d="M1065.33,-109.75C1004.53,-99.83 906.1,-83.78 845.99,-73.98"/>
<polygon fill="#63b8ff" stroke="#63b8ff" points="846.8,-70.56 836.36,-72.41 845.67,-77.47 846.8,-70.56"/>
</g>
<!-- Node32&#45;&gt;Node7 -->
<g id="edge35" class="edge">
<title>Node32&#45;&gt;Node7</title>
<path fill="none" stroke="#63b8ff" d="M1190.34,-111.16C1187.18,-110.76 1184.05,-110.37 1181,-110 1061.37,-95.3 920.75,-79.5 846.34,-71.26"/>
<polygon fill="#63b8ff" stroke="#63b8ff" points="846.81,-67.79 836.48,-70.17 846.04,-74.75 846.81,-67.79"/>
</g>
<!-- Node45&#45;&gt;Node8 -->
<g id="edge41" class="edge">
<title>Node45&#45;&gt;Node8</title>
<path fill="none" stroke="#63b8ff" d="M1723.23,-236.36C1733.73,-206.57 1763.55,-107.18 1715,-55 1687,-24.91 1404.18,-14.29 1301.23,-11.41"/>
<polygon fill="#63b8ff" stroke="#63b8ff" points="1301.47,-7.91 1291.38,-11.14 1301.29,-14.91 1301.47,-7.91"/>
</g>
<!-- Node46 -->
<g id="node30" class="node">
<title>Node46</title>
<g id="a_node30"><a xlink:href="extras_8h.html" target="_top" xlink:title=" ">
<polygon fill="white" stroke="#666666" points="1706,-189.5 1656,-189.5 1656,-170.5 1706,-170.5 1706,-189.5"/>
<text text-anchor="middle" x="1681" y="-177.5" font-family="Helvetica,sans-Serif" font-size="10.00">extras.h</text>
</a>
</g>
</g>
<!-- Node45&#45;&gt;Node46 -->
<g id="edge42" class="edge">
<title>Node45&#45;&gt;Node46</title>
<path fill="none" stroke="#63b8ff" d="M1714.58,-236.1C1708.81,-226.64 1699.54,-211.42 1692.2,-199.37"/>
<polygon fill="#63b8ff" stroke="#63b8ff" points="1695.36,-197.83 1687.16,-191.12 1689.38,-201.48 1695.36,-197.83"/>
</g>
<!-- Node47&#45;&gt;Node7 -->
<g id="edge44" class="edge">
<title>Node47&#45;&gt;Node7</title>
<path fill="none" stroke="#63b8ff" d="M238.72,-302.27C235.61,-277.64 230.25,-206.76 264,-165 323.57,-91.29 620.44,-71.93 741.98,-67.06"/>
<polygon fill="#63b8ff" stroke="#63b8ff" points="741.81,-70.57 751.67,-66.69 741.55,-63.58 741.81,-70.57"/>
</g>
<!-- Node48&#45;&gt;Node7 -->
<g id="edge46" class="edge">
<title>Node48&#45;&gt;Node7</title>
<path fill="none" stroke="#63b8ff" d="M363.12,-164.6C380,-148.36 409.91,-122.58 441,-110 494.39,-88.4 657.3,-74.66 741.85,-68.78"/>
<polygon fill="#63b8ff" stroke="#63b8ff" points="741.99,-72.28 751.73,-68.11 741.52,-65.3 741.99,-72.28"/>
</g>
<!-- Node50 -->
<g id="node34" class="node">
<title>Node50</title>
<g id="a_node34"><a xlink:href="JASSeqReader_8h.html" target="_top" xlink:title=" ">
<polygon fill="white" stroke="#666666" points="541,-255.5 371,-255.5 371,-236.5 541,-236.5 541,-255.5"/>
<text text-anchor="middle" x="456" y="-243.5" font-family="Helvetica,sans-Serif" font-size="10.00">JSystem/JAudio2/JASSeqReader.h</text>
</a>
</g>
</g>
<!-- Node49&#45;&gt;Node50 -->
<g id="edge48" class="edge">
<title>Node49&#45;&gt;Node50</title>
<path fill="none" stroke="#63b8ff" d="M456,-302.1C456,-293.12 456,-278.95 456,-267.22"/>
<polygon fill="#63b8ff" stroke="#63b8ff" points="459.5,-267.34 456,-257.34 452.5,-267.34 459.5,-267.34"/>
</g>
<!-- Node50&#45;&gt;Node7 -->
<g id="edge49" class="edge">
<title>Node50&#45;&gt;Node7</title>
<path fill="none" stroke="#63b8ff" d="M454,-236.22C449.11,-212.2 439.32,-144.87 474,-110 510.52,-73.28 660.87,-66.38 741.82,-65.39"/>
<polygon fill="#63b8ff" stroke="#63b8ff" points="741.75,-68.89 751.72,-65.29 741.69,-61.89 741.75,-68.89"/>
</g>
<!-- Node51&#45;&gt;Node7 -->
<g id="edge51" class="edge">
<title>Node51&#45;&gt;Node7</title>
<path fill="none" stroke="#63b8ff" d="M81.64,-296.75C114.31,-257.99 211.59,-150.81 320,-110 396.05,-81.37 634.91,-70.47 741.61,-66.95"/>
<polygon fill="#63b8ff" stroke="#63b8ff" points="741.64,-70.45 751.53,-66.63 741.42,-63.46 741.64,-70.45"/>
</g>
<!-- Node52&#45;&gt;Node3 -->
<g id="edge54" class="edge">
<title>Node52&#45;&gt;Node3</title>
<path fill="none" stroke="#63b8ff" d="M1206.88,-439.52C1109.72,-426.9 932.84,-403.92 827.21,-390.2"/>
<polygon fill="#63b8ff" stroke="#63b8ff" points="827.82,-386.75 817.45,-388.93 826.92,-393.69 827.82,-386.75"/>
</g>
<!-- Node52&#45;&gt;Node17 -->
<g id="edge56" class="edge">
<title>Node52&#45;&gt;Node17</title>
<path fill="none" stroke="#63b8ff" d="M1199.69,-448.47C1101.43,-446.61 938.78,-436.79 901,-393 886.91,-376.67 891,-350.74 896.42,-332.85"/>
<polygon fill="#63b8ff" stroke="#63b8ff" points="899.72,-333.99 899.67,-323.4 893.11,-331.71 899.72,-333.99"/>
</g>
<!-- Node52&#45;&gt;Node23 -->
<g id="edge55" class="edge">
<title>Node52&#45;&gt;Node23</title>
<path fill="none" stroke="#63b8ff" d="M1282.43,-439.61C1298.35,-417.59 1339.86,-360.21 1361.09,-330.86"/>
<polygon fill="#63b8ff" stroke="#63b8ff" points="1363.76,-333.13 1366.79,-322.97 1358.09,-329.03 1363.76,-333.13"/>
</g>
<!-- Node52&#45;&gt;Node24 -->
<g id="edge57" class="edge">
<title>Node52&#45;&gt;Node24</title>
<path fill="none" stroke="#63b8ff" d="M1274.66,-439.76C1271.37,-415.66 1264.77,-346.72 1288,-297 1294.33,-283.45 1306.03,-271.56 1316.62,-262.78"/>
<polygon fill="#63b8ff" stroke="#63b8ff" points="1318.53,-265.73 1324.29,-256.83 1314.24,-260.2 1318.53,-265.73"/>
</g>
<!-- Node53&#45;&gt;Node18 -->
<g id="edge59" class="edge">
<title>Node53&#45;&gt;Node18</title>
<path fill="none" stroke="#63b8ff" d="M1086.01,-167.3C1020.46,-156.8 925,-141.5 861.27,-131.28"/>
<polygon fill="#63b8ff" stroke="#63b8ff" points="862.07,-127.87 851.64,-129.74 860.96,-134.78 862.07,-127.87"/>
</g>
<!-- Node54&#45;&gt;Node5 -->
<g id="edge61" class="edge">
<title>Node54&#45;&gt;Node5</title>
<path fill="none" stroke="#63b8ff" d="M1874.75,-362.59C1820.35,-339.02 1712.33,-292.21 1651.77,-265.97"/>
<polygon fill="#63b8ff" stroke="#63b8ff" points="1653.36,-262.84 1642.79,-262.08 1650.57,-269.26 1653.36,-262.84"/>
</g>
<!-- Node55&#45;&gt;Node10 -->
<g id="edge63" class="edge">
<title>Node55&#45;&gt;Node10</title>
<path fill="none" stroke="#63b8ff" d="M569.32,-368.07C570.37,-338.54 573.77,-243.56 575.27,-201.44"/>
<polygon fill="#63b8ff" stroke="#63b8ff" points="578.77,-201.61 575.63,-191.5 571.77,-201.36 578.77,-201.61"/>
</g>
<!-- Node56&#45;&gt;Node19 -->
<g id="edge67" class="edge">
<title>Node56&#45;&gt;Node19</title>
<path fill="none" stroke="#63b8ff" d="M1656.99,-439.5C1713.52,-424.15 1810,-387.1 1810,-313 1810,-313 1810,-313 1810,-245 1810,-208.1 1813.54,-165.17 1815.91,-140.58"/>
<polygon fill="#63b8ff" stroke="#63b8ff" points="1819.38,-141.05 1816.9,-130.75 1812.42,-140.35 1819.38,-141.05"/>
</g>
<!-- Node57 -->
<g id="node41" class="node">
<title>Node57</title>
<g id="a_node41"><a xlink:href="JKRDisposer_8h.html" target="_top" xlink:title=" ">
<polygon fill="white" stroke="#666666" points="1068,-387.5 910,-387.5 910,-368.5 1068,-368.5 1068,-387.5"/>
<text text-anchor="middle" x="989" y="-375.5" font-family="Helvetica,sans-Serif" font-size="10.00">JSystem/JKernel/JKRDisposer.h</text>
</a>
</g>
</g>
<!-- Node56&#45;&gt;Node57 -->
<g id="edge65" class="edge">
<title>Node56&#45;&gt;Node57</title>
<path fill="none" stroke="#63b8ff" d="M1545.23,-442.4C1441.63,-433.3 1244.27,-414.88 1077,-393 1069.48,-392.02 1061.61,-390.89 1053.8,-389.73"/>
<polygon fill="#63b8ff" stroke="#63b8ff" points="1054.36,-386.27 1043.94,-388.22 1053.3,-393.19 1054.36,-386.27"/>
</g>
<!-- Node57&#45;&gt;Node17 -->
<g id="edge66" class="edge">
<title>Node57&#45;&gt;Node17</title>
<path fill="none" stroke="#63b8ff" d="M977.18,-368.1C963.61,-357.88 941.09,-340.93 924.61,-328.52"/>
<polygon fill="#63b8ff" stroke="#63b8ff" points="927.02,-325.95 916.93,-322.73 922.81,-331.54 927.02,-325.95"/>
</g>
</g>
</svg>
