<?xml version="1.0" encoding="UTF-8" standalone="no"?>
<!DOCTYPE svg PUBLIC "-//W3C//DTD SVG 1.1//EN"
 "http://www.w3.org/Graphics/SVG/1.1/DTD/svg11.dtd">
<!-- Generated by graphviz version 9.0.0 (20230911.1827)
 -->
<!-- Title: include/JSystem/JAudio2/JASAudioThread.h Pages: 1 -->
<svg width="657pt" height="105pt"
 viewBox="0.00 0.00 656.62 105.00" xmlns="http://www.w3.org/2000/svg" xmlns:xlink="http://www.w3.org/1999/xlink">
<g id="graph0" class="graph" transform="scale(1 1) rotate(0) translate(4 101)">
<title>include/JSystem/JAudio2/JASAudioThread.h</title>
<!-- Node1 -->
<g id="Node000001" class="node">
<title>Node1</title>
<g id="a_Node000001"><a xlink:title=" ">
<polygon fill="#999999" stroke="#666666" points="378.38,-97 252.12,-97 252.12,-66.5 378.38,-66.5 378.38,-97"/>
<text text-anchor="start" x="260.12" y="-83.5" font-family="Helvetica,sans-Serif" font-size="10.00">include/JSystem/JAudio2</text>
<text text-anchor="middle" x="315.25" y="-72.25" font-family="Helvetica,sans-Serif" font-size="10.00">/JASAudioThread.h</text>
</a>
</g>
</g>
<!-- Node2 -->
<g id="Node000002" class="node">
<title>Node2</title>
<g id="a_Node000002"><a xlink:href="JASAiCtrl_8cpp.html" target="_top" xlink:title=" ">
<polygon fill="white" stroke="#666666" points="110.5,-30.5 0,-30.5 0,0 110.5,0 110.5,-30.5"/>
<text text-anchor="start" x="8" y="-17" font-family="Helvetica,sans-Serif" font-size="10.00">libs/JSystem/JAudio2</text>
<text text-anchor="middle" x="55.25" y="-5.75" font-family="Helvetica,sans-Serif" font-size="10.00">/JASAiCtrl.cpp</text>
</a>
</g>
</g>
<!-- Node1&#45;&gt;Node2 -->
<g id="edge1_Node000001_Node000002" class="edge">
<title>Node1&#45;&gt;Node2</title>
<g id="a_edge1_Node000001_Node000002"><a xlink:title=" ">
<path fill="none" stroke="#63b8ff" d="M244.9,-63.3C202.76,-52.84 149.95,-39.74 110.76,-30.02"/>
<polygon fill="#63b8ff" stroke="#63b8ff" points="243.91,-66.66 254.46,-65.67 245.59,-59.86 243.91,-66.66"/>
</a>
</g>
</g>
<!-- Node3 -->
<g id="Node000003" class="node">
<title>Node3</title>
<g id="a_Node000003"><a xlink:href="JASAudioReseter_8cpp.html" target="_top" xlink:title=" ">
<polygon fill="white" stroke="#666666" points="242.38,-30.5 128.12,-30.5 128.12,0 242.38,0 242.38,-30.5"/>
<text text-anchor="start" x="136.12" y="-17" font-family="Helvetica,sans-Serif" font-size="10.00">libs/JSystem/JAudio2</text>
<text text-anchor="middle" x="185.25" y="-5.75" font-family="Helvetica,sans-Serif" font-size="10.00">/JASAudioReseter.cpp</text>
</a>
</g>
</g>
<!-- Node1&#45;&gt;Node3 -->
<g id="edge2_Node000001_Node000003" class="edge">
<title>Node1&#45;&gt;Node3</title>
<g id="a_edge2_Node000001_Node000003"><a xlink:title=" ">
<path fill="none" stroke="#63b8ff" d="M275.57,-61.06C255.93,-51.32 232.64,-39.76 214.63,-30.83"/>
<polygon fill="#63b8ff" stroke="#63b8ff" points="273.88,-64.13 284.4,-65.44 276.99,-57.86 273.88,-64.13"/>
</a>
</g>
</g>
<!-- Node4 -->
<g id="Node000004" class="node">
<title>Node4</title>
<g id="a_Node000004"><a xlink:href="JASAudioThread_8cpp.html" target="_top" xlink:title=" ">
<polygon fill="white" stroke="#666666" points="370.5,-30.5 260,-30.5 260,0 370.5,0 370.5,-30.5"/>
<text text-anchor="start" x="268" y="-17" font-family="Helvetica,sans-Serif" font-size="10.00">libs/JSystem/JAudio2</text>
<text text-anchor="middle" x="315.25" y="-5.75" font-family="Helvetica,sans-Serif" font-size="10.00">/JASAudioThread.cpp</text>
</a>
</g>
</g>
<!-- Node1&#45;&gt;Node4 -->
<g id="edge3_Node000001_Node000004" class="edge">
<title>Node1&#45;&gt;Node4</title>
<g id="a_edge3_Node000001_Node000004"><a xlink:title=" ">
<path fill="none" stroke="#63b8ff" d="M315.25,-54.81C315.25,-46.64 315.25,-37.91 315.25,-30.83"/>
<polygon fill="#63b8ff" stroke="#63b8ff" points="311.75,-54.6 315.25,-64.6 318.75,-54.6 311.75,-54.6"/>
</a>
</g>
</g>
<!-- Node5 -->
<g id="Node000005" class="node">
<title>Node5</title>
<g id="a_Node000005"><a xlink:href="JAUInitializer_8cpp.html" target="_top" xlink:title=" ">
<polygon fill="white" stroke="#666666" points="499.5,-30.5 389,-30.5 389,0 499.5,0 499.5,-30.5"/>
<text text-anchor="start" x="397" y="-17" font-family="Helvetica,sans-Serif" font-size="10.00">libs/JSystem/JAudio2</text>
<text text-anchor="middle" x="444.25" y="-5.75" font-family="Helvetica,sans-Serif" font-size="10.00">/JAUInitializer.cpp</text>
</a>
</g>
</g>
<!-- Node1&#45;&gt;Node5 -->
<g id="edge4_Node000001_Node000005" class="edge">
<title>Node1&#45;&gt;Node5</title>
<g id="a_edge4_Node000001_Node000005"><a xlink:title=" ">
<path fill="none" stroke="#63b8ff" d="M354.63,-61.06C374.11,-51.32 397.22,-39.76 415.09,-30.83"/>
<polygon fill="#63b8ff" stroke="#63b8ff" points="353.25,-57.83 345.88,-65.44 356.39,-64.1 353.25,-57.83"/>
</a>
</g>
</g>
<!-- Node6 -->
<g id="Node000006" class="node">
<title>Node6</title>
<g id="a_Node000006"><a xlink:href="m__Do__main_8cpp.html" target="_top" xlink:title=" ">
<polygon fill="white" stroke="#666666" points="648.62,-24.88 517.88,-24.88 517.88,-5.63 648.62,-5.63 648.62,-24.88"/>
<text text-anchor="middle" x="583.25" y="-11.38" font-family="Helvetica,sans-Serif" font-size="10.00">src/m_Do/m_Do_main.cpp</text>
</a>
</g>
</g>
<!-- Node1&#45;&gt;Node6 -->
<g id="edge5_Node000001_Node000006" class="edge">
<title>Node1&#45;&gt;Node6</title>
<g id="a_edge5_Node000001_Node000006"><a xlink:title=" ">
<path fill="none" stroke="#63b8ff" d="M387.35,-63.4C438.32,-51.13 504.6,-35.18 545.52,-25.33"/>
<polygon fill="#63b8ff" stroke="#63b8ff" points="386.77,-59.94 377.87,-65.68 388.41,-66.74 386.77,-59.94"/>
</a>
</g>
</g>
</g>
</svg>
