<?xml version="1.0" encoding="UTF-8" standalone="no"?>
<!DOCTYPE svg PUBLIC "-//W3C//DTD SVG 1.1//EN"
 "http://www.w3.org/Graphics/SVG/1.1/DTD/svg11.dtd">
<!-- Generated by graphviz version 7.0.5 (20221223.1930)
 -->
<!-- Title: include/JSystem/JAudio2/JASBankTable.h Pages: 1 -->
<!--zoomable 478 -->
<svg id="main" version="1.1" xmlns="http://www.w3.org/2000/svg" xmlns:xlink="http://www.w3.org/1999/xlink" xml:space="preserve" onload="init(evt)">
<style type="text/css"><![CDATA[
.edge:hover path { stroke: red; }
.edge:hover polygon { stroke: red; fill: red; }
]]></style>
<script type="text/javascript"><![CDATA[
var edges = document.getElementsByTagName('g');
if (edges && edges.length) {
  for (var i=0;i<edges.length;i++) {
    if (edges[i].id.substr(0,4)=='edge') {
      edges[i].setAttribute('class','edge');
    }
  }
}
]]></script>
        <defs>
                <circle id="rim" cx="0" cy="0" r="7"/>
                <circle id="rim2" cx="0" cy="0" r="3.5"/>
                <g id="zoomPlus">
                        <use xlink:href="#rim" fill="#404040">
                                <set attributeName="fill" to="#808080" begin="zoomplus.mouseover" end="zoomplus.mouseout"/>
                        </use>
                        <path d="M-4,0h8M0,-4v8" fill="none" stroke="white" stroke-width="1.5" pointer-events="none"/>
                </g>
                <g id="zoomMin">
                        <use xlink:href="#rim" fill="#404040">
                                <set attributeName="fill" to="#808080" begin="zoomminus.mouseover" end="zoomminus.mouseout"/>
                        </use>
                        <path d="M-4,0h8" fill="none" stroke="white" stroke-width="1.5" pointer-events="none"/>
                </g>
                <g id="dirArrow">
                        <path fill="none" stroke="white" stroke-width="1.5" d="M0,-3.0v7 M-2.5,-0.5L0,-3.0L2.5,-0.5"/>
                </g>
               <g id="resetDef">
                       <use xlink:href="#rim2" fill="#404040">
                               <set attributeName="fill" to="#808080" begin="reset.mouseover" end="reset.mouseout"/>
                       </use>
               </g>
        </defs>

<script type="text/javascript">
var viewWidth = 1926;
var viewHeight = 478;
var sectionId = 'dynsection-0';
</script>
<script xlink:href="svgpan.js"/>
<svg id="graph" class="graph">
<g id="viewport">
<title>include/JSystem/JAudio2/JASBankTable.h</title>
<!-- Node1 -->
<g id="node1" class="node">
<title>Node1</title>
<g id="a_node1"><a xlink:title=" ">
<polygon fill="#999999" stroke="#666666" points="1514.5,-470 1387.5,-470 1387.5,-440 1514.5,-440 1514.5,-470"/>
<text text-anchor="start" x="1395.5" y="-458" font-family="Helvetica,sans-Serif" font-size="10.00">include/JSystem/JAudio2</text>
<text text-anchor="middle" x="1451" y="-447" font-family="Helvetica,sans-Serif" font-size="10.00">/JASBankTable.h</text>
</a>
</g>
</g>
<!-- Node2 -->
<g id="node2" class="node">
<title>Node2</title>
<g id="a_node2"><a xlink:href="JASBankList_8h.html" target="_top" xlink:title=" ">
<polygon fill="white" stroke="#666666" points="1917.5,-129 1756.5,-129 1756.5,-110 1917.5,-110 1917.5,-129"/>
<text text-anchor="middle" x="1837" y="-117" font-family="Helvetica,sans-Serif" font-size="10.00">JSystem/JAudio2/JASBankList.h</text>
</a>
</g>
</g>
<!-- Node1&#45;&gt;Node2 -->
<g id="edge1" class="edge">
<title>Node1&#45;&gt;Node2</title>
<path fill="none" stroke="#63b8ff" d="M1514.79,-446.56C1615.74,-432.99 1801,-399.99 1801,-340.5 1801,-340.5 1801,-340.5 1801,-228.5 1801,-195.98 1815.87,-160.65 1826.5,-139.56"/>
<polygon fill="#63b8ff" stroke="#63b8ff" points="1829.57,-141.23 1831.14,-130.75 1823.38,-137.96 1829.57,-141.23"/>
</g>
<!-- Node5 -->
<g id="node5" class="node">
<title>Node5</title>
<g id="a_node5"><a xlink:href="JASGadget_8h.html" target="_top" xlink:title=" ">
<polygon fill="white" stroke="#666666" points="1476,-404 1322,-404 1322,-385 1476,-385 1476,-404"/>
<text text-anchor="middle" x="1399" y="-392" font-family="Helvetica,sans-Serif" font-size="10.00">JSystem/JAudio2/JASGadget.h</text>
</a>
</g>
</g>
<!-- Node1&#45;&gt;Node5 -->
<g id="edge4" class="edge">
<title>Node1&#45;&gt;Node5</title>
<path fill="none" stroke="#63b8ff" d="M1438.15,-439.54C1430.9,-431.39 1421.81,-421.16 1414.21,-412.61"/>
<polygon fill="#63b8ff" stroke="#63b8ff" points="1416.98,-410.46 1407.72,-405.31 1411.74,-415.11 1416.98,-410.46"/>
</g>
<!-- Node3 -->
<g id="node3" class="node">
<title>Node3</title>
<g id="a_node3"><a xlink:href="types_8h.html" target="_top" xlink:title=" ">
<polygon fill="white" stroke="#666666" points="1112.5,-74 1031.5,-74 1031.5,-55 1112.5,-55 1112.5,-74"/>
<text text-anchor="middle" x="1072" y="-62" font-family="Helvetica,sans-Serif" font-size="10.00">dolphin/types.h</text>
</a>
</g>
</g>
<!-- Node2&#45;&gt;Node3 -->
<g id="edge2" class="edge">
<title>Node2&#45;&gt;Node3</title>
<path fill="none" stroke="#63b8ff" d="M1756.16,-111.14C1751.37,-110.74 1746.62,-110.36 1742,-110 1511.89,-92.07 1236.95,-75.25 1124.17,-68.56"/>
<polygon fill="#63b8ff" stroke="#63b8ff" points="1124.51,-65.07 1114.32,-67.97 1124.1,-72.06 1124.51,-65.07"/>
</g>
<!-- Node4 -->
<g id="node4" class="node">
<title>Node4</title>
<g id="a_node4"><a xlink:href="stddef_8h.html" target="_top" xlink:title=" ">
<polygon fill="white" stroke="#666666" points="561.5,-19 510.5,-19 510.5,0 561.5,0 561.5,-19"/>
<text text-anchor="middle" x="536" y="-7" font-family="Helvetica,sans-Serif" font-size="10.00">stddef.h</text>
</a>
</g>
</g>
<!-- Node3&#45;&gt;Node4 -->
<g id="edge3" class="edge">
<title>Node3&#45;&gt;Node4</title>
<path fill="none" stroke="#63b8ff" d="M1031.27,-59.47C930.43,-49.5 670.27,-23.78 573.23,-14.18"/>
<polygon fill="#63b8ff" stroke="#63b8ff" points="573.76,-10.72 563.46,-13.22 573.07,-17.68 573.76,-10.72"/>
</g>
<!-- Node6 -->
<g id="node6" class="node">
<title>Node6</title>
<g id="a_node6"><a xlink:href="JUTAssert_8h.html" target="_top" xlink:title=" ">
<polygon fill="white" stroke="#666666" points="1472,-349 1326,-349 1326,-330 1472,-330 1472,-349"/>
<text text-anchor="middle" x="1399" y="-337" font-family="Helvetica,sans-Serif" font-size="10.00">JSystem/JUtility/JUTAssert.h</text>
</a>
</g>
</g>
<!-- Node5&#45;&gt;Node6 -->
<g id="edge5" class="edge">
<title>Node5&#45;&gt;Node6</title>
<path fill="none" stroke="#63b8ff" d="M1399,-384.75C1399,-378.27 1399,-369.16 1399,-360.9"/>
<polygon fill="#63b8ff" stroke="#63b8ff" points="1402.5,-360.96 1399,-350.96 1395.5,-360.96 1402.5,-360.96"/>
</g>
<!-- Node31 -->
<g id="node31" class="node">
<title>Node31</title>
<g id="a_node31"><a xlink:href="string_8h.html" target="_top" xlink:title=" ">
<polygon fill="white" stroke="#666666" points="485,-349 437,-349 437,-330 485,-330 485,-349"/>
<text text-anchor="middle" x="461" y="-337" font-family="Helvetica,sans-Serif" font-size="10.00">string.h</text>
</a>
</g>
</g>
<!-- Node5&#45;&gt;Node31 -->
<g id="edge53" class="edge">
<title>Node5&#45;&gt;Node31</title>
<path fill="none" stroke="#63b8ff" d="M1321.84,-389.14C1129.35,-378.26 633.57,-350.25 496.55,-342.51"/>
<polygon fill="#63b8ff" stroke="#63b8ff" points="496.83,-339.02 486.65,-341.95 496.44,-346.01 496.83,-339.02"/>
</g>
<!-- Node6&#45;&gt;Node3 -->
<g id="edge6" class="edge">
<title>Node6&#45;&gt;Node3</title>
<path fill="none" stroke="#63b8ff" d="M1471.2,-329.55C1568.05,-315.49 1728,-284.15 1728,-230.5 1728,-230.5 1728,-230.5 1728,-173.5 1728,-144.04 1732,-128.41 1709,-110 1663.76,-73.79 1267.49,-67.04 1123.78,-65.79"/>
<polygon fill="#63b8ff" stroke="#63b8ff" points="1124.21,-62.29 1114.18,-65.71 1124.15,-69.29 1124.21,-62.29"/>
</g>
<!-- Node7 -->
<g id="node7" class="node">
<title>Node7</title>
<g id="a_node7"><a xlink:href="OS_8h.html" target="_top" xlink:title=" ">
<polygon fill="white" stroke="#666666" points="1039,-294 953,-294 953,-275 1039,-275 1039,-294"/>
<text text-anchor="middle" x="996" y="-282" font-family="Helvetica,sans-Serif" font-size="10.00">dolphin/os/OS.h</text>
</a>
</g>
</g>
<!-- Node6&#45;&gt;Node7 -->
<g id="edge7" class="edge">
<title>Node6&#45;&gt;Node7</title>
<path fill="none" stroke="#63b8ff" d="M1330.64,-329.51C1251.66,-319.12 1123.29,-302.24 1050.65,-292.69"/>
<polygon fill="#63b8ff" stroke="#63b8ff" points="1051.36,-289.25 1040.99,-291.42 1050.44,-296.19 1051.36,-289.25"/>
</g>
<!-- Node8 -->
<g id="node8" class="node">
<title>Node8</title>
<g id="a_node8"><a xlink:href="____va__arg_8h.html" target="_top" xlink:title=" ">
<polygon fill="white" stroke="#666666" points="1596,-184 1532,-184 1532,-165 1596,-165 1596,-184"/>
<text text-anchor="middle" x="1564" y="-172" font-family="Helvetica,sans-Serif" font-size="10.00">__va_arg.h</text>
</a>
</g>
</g>
<!-- Node7&#45;&gt;Node8 -->
<g id="edge8" class="edge">
<title>Node7&#45;&gt;Node8</title>
<path fill="none" stroke="#63b8ff" d="M1039.3,-283.51C1146.32,-282.93 1420.52,-277.61 1502,-239 1523.04,-229.03 1540.85,-208.7 1551.9,-193.72"/>
<polygon fill="#63b8ff" stroke="#63b8ff" points="1554.7,-195.83 1557.57,-185.63 1548.96,-191.82 1554.7,-195.83"/>
</g>
<!-- Node9 -->
<g id="node9" class="node">
<title>Node9</title>
<g id="a_node9"><a xlink:href="dvd_8h.html" target="_top" xlink:title=" ">
<polygon fill="white" stroke="#666666" points="1700,-129 1608,-129 1608,-110 1700,-110 1700,-129"/>
<text text-anchor="middle" x="1654" y="-117" font-family="Helvetica,sans-Serif" font-size="10.00">dolphin/dvd/dvd.h</text>
</a>
</g>
</g>
<!-- Node7&#45;&gt;Node9 -->
<g id="edge10" class="edge">
<title>Node7&#45;&gt;Node9</title>
<path fill="none" stroke="#63b8ff" d="M1039.01,-283.98C1180.8,-285.13 1626.92,-285.02 1670,-239 1695.21,-212.07 1677.71,-165.43 1664.65,-139.42"/>
<polygon fill="#63b8ff" stroke="#63b8ff" points="1667.79,-137.87 1660.01,-130.69 1661.61,-141.16 1667.79,-137.87"/>
</g>
<!-- Node10 -->
<g id="node10" class="node">
<title>Node10</title>
<g id="a_node10"><a xlink:href="OSAlarm_8h.html" target="_top" xlink:title=" ">
<polygon fill="white" stroke="#666666" points="220.5,-239 109.5,-239 109.5,-220 220.5,-220 220.5,-239"/>
<text text-anchor="middle" x="165" y="-227" font-family="Helvetica,sans-Serif" font-size="10.00">dolphin/os/OSAlarm.h</text>
</a>
</g>
</g>
<!-- Node7&#45;&gt;Node10 -->
<g id="edge12" class="edge">
<title>Node7&#45;&gt;Node10</title>
<path fill="none" stroke="#63b8ff" d="M952.6,-281.91C836.22,-277.45 507.52,-263.49 235,-239 233.99,-238.91 232.96,-238.81 231.94,-238.72"/>
<polygon fill="#63b8ff" stroke="#63b8ff" points="232.56,-235.26 222.26,-237.74 231.85,-242.23 232.56,-235.26"/>
</g>
<!-- Node11 -->
<g id="node11" class="node">
<title>Node11</title>
<g id="a_node11"><a xlink:href="OSError_8h.html" target="_top" xlink:title=" ">
<polygon fill="white" stroke="#666666" points="134,-184 28,-184 28,-165 134,-165 134,-184"/>
<text text-anchor="middle" x="81" y="-172" font-family="Helvetica,sans-Serif" font-size="10.00">dolphin/os/OSError.h</text>
</a>
</g>
</g>
<!-- Node7&#45;&gt;Node11 -->
<g id="edge26" class="edge">
<title>Node7&#45;&gt;Node11</title>
<path fill="none" stroke="#63b8ff" d="M952.53,-282.73C777.73,-279.44 133.88,-265.56 100,-239 86.97,-228.79 82.59,-210 81.24,-195.5"/>
<polygon fill="#63b8ff" stroke="#63b8ff" points="84.75,-195.52 80.78,-185.7 77.76,-195.85 84.75,-195.52"/>
</g>
<!-- Node12 -->
<g id="node12" class="node">
<title>Node12</title>
<g id="a_node12"><a xlink:href="OSTime_8h.html" target="_top" xlink:title=" ">
<polygon fill="white" stroke="#666666" points="259.5,-184 152.5,-184 152.5,-165 259.5,-165 259.5,-184"/>
<text text-anchor="middle" x="206" y="-172" font-family="Helvetica,sans-Serif" font-size="10.00">dolphin/os/OSTime.h</text>
</a>
</g>
</g>
<!-- Node7&#45;&gt;Node12 -->
<g id="edge52" class="edge">
<title>Node7&#45;&gt;Node12</title>
<path fill="none" stroke="#63b8ff" d="M952.62,-282.55C806.08,-279.11 335.21,-266.04 273,-239 250.57,-229.25 231.08,-208.57 218.99,-193.44"/>
<polygon fill="#63b8ff" stroke="#63b8ff" points="221.92,-191.52 213.07,-185.69 216.35,-195.76 221.92,-191.52"/>
</g>
<!-- Node13 -->
<g id="node13" class="node">
<title>Node13</title>
<g id="a_node13"><a xlink:href="OSAlloc_8h.html" target="_top" xlink:title=" ">
<polygon fill="white" stroke="#666666" points="379.5,-129 272.5,-129 272.5,-110 379.5,-110 379.5,-129"/>
<text text-anchor="middle" x="326" y="-117" font-family="Helvetica,sans-Serif" font-size="10.00">dolphin/os/OSAlloc.h</text>
</a>
</g>
</g>
<!-- Node7&#45;&gt;Node13 -->
<g id="edge17" class="edge">
<title>Node7&#45;&gt;Node13</title>
<path fill="none" stroke="#63b8ff" d="M952.55,-282.87C814.51,-280.53 392.03,-270.83 340,-239 309.28,-220.21 299.78,-200.28 307,-165 308.79,-156.26 312.36,-147.12 315.93,-139.41"/>
<polygon fill="#63b8ff" stroke="#63b8ff" points="318.94,-141.22 320.27,-130.71 312.67,-138.09 318.94,-141.22"/>
</g>
<!-- Node14 -->
<g id="node14" class="node">
<title>Node14</title>
<g id="a_node14"><a xlink:href="OSArena_8h.html" target="_top" xlink:title=" ">
<polygon fill="white" stroke="#666666" points="427.5,-184 316.5,-184 316.5,-165 427.5,-165 427.5,-184"/>
<text text-anchor="middle" x="372" y="-172" font-family="Helvetica,sans-Serif" font-size="10.00">dolphin/os/OSArena.h</text>
</a>
</g>
</g>
<!-- Node7&#45;&gt;Node14 -->
<g id="edge19" class="edge">
<title>Node7&#45;&gt;Node14</title>
<path fill="none" stroke="#63b8ff" d="M952.79,-283.86C814.61,-284.54 390.11,-283.03 349,-239 337.17,-226.33 346.68,-207.11 356.82,-193.13"/>
<polygon fill="#63b8ff" stroke="#63b8ff" points="359.3,-195.64 362.76,-185.63 353.81,-191.3 359.3,-195.64"/>
</g>
<!-- Node15 -->
<g id="node15" class="node">
<title>Node15</title>
<g id="a_node15"><a xlink:href="OSAudioSystem_8h.html" target="_top" xlink:title=" ">
<polygon fill="white" stroke="#666666" points="534.5,-239 391.5,-239 391.5,-220 534.5,-220 534.5,-239"/>
<text text-anchor="middle" x="463" y="-227" font-family="Helvetica,sans-Serif" font-size="10.00">dolphin/os/OSAudioSystem.h</text>
</a>
</g>
</g>
<!-- Node7&#45;&gt;Node15 -->
<g id="edge21" class="edge">
<title>Node7&#45;&gt;Node15</title>
<path fill="none" stroke="#63b8ff" d="M952.58,-279.35C873.77,-271.79 701.67,-255.17 546.12,-239.31"/>
<polygon fill="#63b8ff" stroke="#63b8ff" points="546.77,-235.86 536.46,-238.33 546.05,-242.82 546.77,-235.86"/>
</g>
<!-- Node16 -->
<g id="node16" class="node">
<title>Node16</title>
<g id="a_node16"><a xlink:href="OSCache_8h.html" target="_top" xlink:title=" ">
<polygon fill="white" stroke="#666666" points="573.5,-129 460.5,-129 460.5,-110 573.5,-110 573.5,-129"/>
<text text-anchor="middle" x="517" y="-117" font-family="Helvetica,sans-Serif" font-size="10.00">dolphin/os/OSCache.h</text>
</a>
</g>
</g>
<!-- Node7&#45;&gt;Node16 -->
<g id="edge22" class="edge">
<title>Node7&#45;&gt;Node16</title>
<path fill="none" stroke="#63b8ff" d="M952.66,-283.68C819.14,-283.8 420.72,-280.62 382,-239 376.25,-232.82 378.02,-227.45 382,-220 395.61,-194.57 412.63,-200.91 436,-184 457.54,-168.41 481.4,-149.49 497.62,-136.38"/>
<polygon fill="#63b8ff" stroke="#63b8ff" points="499.47,-139.38 505.03,-130.35 495.06,-133.95 499.47,-139.38"/>
</g>
<!-- Node17 -->
<g id="node17" class="node">
<title>Node17</title>
<g id="a_node17"><a xlink:href="OSContext_8h.html" target="_top" xlink:title=" ">
<polygon fill="white" stroke="#666666" points="1043.5,-129 924.5,-129 924.5,-110 1043.5,-110 1043.5,-129"/>
<text text-anchor="middle" x="984" y="-117" font-family="Helvetica,sans-Serif" font-size="10.00">dolphin/os/OSContext.h</text>
</a>
</g>
</g>
<!-- Node7&#45;&gt;Node17 -->
<g id="edge24" class="edge">
<title>Node7&#45;&gt;Node17</title>
<path fill="none" stroke="#63b8ff" d="M1002.1,-274.8C1007.75,-266.17 1015.75,-252.35 1019,-239 1021,-230.79 1020.42,-228.32 1019,-220 1014.05,-191.01 1001.54,-159.24 992.9,-139.58"/>
<polygon fill="#63b8ff" stroke="#63b8ff" points="996.17,-138.33 988.86,-130.66 989.8,-141.21 996.17,-138.33"/>
</g>
<!-- Node18 -->
<g id="node18" class="node">
<title>Node18</title>
<g id="a_node18"><a xlink:href="OSExec_8h.html" target="_top" xlink:title=" ">
<polygon fill="white" stroke="#666666" points="659.5,-239 552.5,-239 552.5,-220 659.5,-220 659.5,-239"/>
<text text-anchor="middle" x="606" y="-227" font-family="Helvetica,sans-Serif" font-size="10.00">dolphin/os/OSExec.h</text>
</a>
</g>
</g>
<!-- Node7&#45;&gt;Node18 -->
<g id="edge27" class="edge">
<title>Node7&#45;&gt;Node18</title>
<path fill="none" stroke="#63b8ff" d="M952.77,-277.63C884.44,-268.34 751.03,-250.21 671.08,-239.34"/>
<polygon fill="#63b8ff" stroke="#63b8ff" points="671.57,-235.88 661.19,-238 670.63,-242.81 671.57,-235.88"/>
</g>
<!-- Node19 -->
<g id="node19" class="node">
<title>Node19</title>
<g id="a_node19"><a xlink:href="OSFont_8h.html" target="_top" xlink:title=" ">
<polygon fill="white" stroke="#666666" points="786.5,-184 681.5,-184 681.5,-165 786.5,-165 786.5,-184"/>
<text text-anchor="middle" x="734" y="-172" font-family="Helvetica,sans-Serif" font-size="10.00">dolphin/os/OSFont.h</text>
</a>
</g>
</g>
<!-- Node7&#45;&gt;Node19 -->
<g id="edge29" class="edge">
<title>Node7&#45;&gt;Node19</title>
<path fill="none" stroke="#63b8ff" d="M952.53,-283.42C879.74,-282.26 738.11,-275.27 707,-239 695.47,-225.55 706.27,-206.45 717.45,-192.72"/>
<polygon fill="#63b8ff" stroke="#63b8ff" points="719.97,-195.15 723.98,-185.34 714.73,-190.51 719.97,-195.15"/>
</g>
<!-- Node20 -->
<g id="node20" class="node">
<title>Node20</title>
<g id="a_node20"><a xlink:href="OSInterrupt_8h.html" target="_top" xlink:title=" ">
<polygon fill="white" stroke="#666666" points="1187,-184 1065,-184 1065,-165 1187,-165 1187,-184"/>
<text text-anchor="middle" x="1126" y="-172" font-family="Helvetica,sans-Serif" font-size="10.00">dolphin/os/OSInterrupt.h</text>
</a>
</g>
</g>
<!-- Node7&#45;&gt;Node20 -->
<g id="edge31" class="edge">
<title>Node7&#45;&gt;Node20</title>
<path fill="none" stroke="#63b8ff" d="M1039.15,-280.04C1091.71,-274.82 1175.85,-262.9 1195,-239 1210.32,-219.88 1183.78,-201.29 1159.3,-189.22"/>
<polygon fill="#63b8ff" stroke="#63b8ff" points="1160.98,-186.14 1150.44,-185.1 1158.03,-192.49 1160.98,-186.14"/>
</g>
<!-- Node21 -->
<g id="node21" class="node">
<title>Node21</title>
<g id="a_node21"><a xlink:href="OSLink_8h.html" target="_top" xlink:title=" ">
<polygon fill="white" stroke="#666666" points="1346,-239 1242,-239 1242,-220 1346,-220 1346,-239"/>
<text text-anchor="middle" x="1294" y="-227" font-family="Helvetica,sans-Serif" font-size="10.00">dolphin/os/OSLink.h</text>
</a>
</g>
</g>
<!-- Node7&#45;&gt;Node21 -->
<g id="edge33" class="edge">
<title>Node7&#45;&gt;Node21</title>
<path fill="none" stroke="#63b8ff" d="M1039.33,-275.79C1090.18,-266.75 1174.86,-251.69 1232.49,-241.44"/>
<polygon fill="#63b8ff" stroke="#63b8ff" points="1232.92,-244.92 1242.15,-239.72 1231.69,-238.03 1232.92,-244.92"/>
</g>
<!-- Node22 -->
<g id="node22" class="node">
<title>Node22</title>
<g id="a_node22"><a xlink:href="OSMemory_8h.html" target="_top" xlink:title=" ">
<polygon fill="white" stroke="#666666" points="1186,-239 1066,-239 1066,-220 1186,-220 1186,-239"/>
<text text-anchor="middle" x="1126" y="-227" font-family="Helvetica,sans-Serif" font-size="10.00">dolphin/os/OSMemory.h</text>
</a>
</g>
</g>
<!-- Node7&#45;&gt;Node22 -->
<g id="edge35" class="edge">
<title>Node7&#45;&gt;Node22</title>
<path fill="none" stroke="#63b8ff" d="M1018.05,-274.51C1038.81,-266.04 1070.16,-253.27 1093.73,-243.66"/>
<polygon fill="#63b8ff" stroke="#63b8ff" points="1094.93,-246.95 1102.87,-239.93 1092.29,-240.46 1094.93,-246.95"/>
</g>
<!-- Node23 -->
<g id="node23" class="node">
<title>Node23</title>
<g id="a_node23"><a xlink:href="OSMessage_8h.html" target="_top" xlink:title=" ">
<polygon fill="white" stroke="#666666" points="841.5,-239 716.5,-239 716.5,-220 841.5,-220 841.5,-239"/>
<text text-anchor="middle" x="779" y="-227" font-family="Helvetica,sans-Serif" font-size="10.00">dolphin/os/OSMessage.h</text>
</a>
</g>
</g>
<!-- Node7&#45;&gt;Node23 -->
<g id="edge37" class="edge">
<title>Node7&#45;&gt;Node23</title>
<path fill="none" stroke="#63b8ff" d="M959.19,-274.51C922.68,-265.59 866.58,-251.89 826.68,-242.15"/>
<polygon fill="#63b8ff" stroke="#63b8ff" points="827.64,-238.78 817.1,-239.81 825.98,-245.58 827.64,-238.78"/>
</g>
<!-- Node24 -->
<g id="node24" class="node">
<title>Node24</title>
<g id="a_node24"><a xlink:href="OSThread_8h.html" target="_top" xlink:title=" ">
<polygon fill="white" stroke="#666666" points="968,-184 852,-184 852,-165 968,-165 968,-184"/>
<text text-anchor="middle" x="910" y="-172" font-family="Helvetica,sans-Serif" font-size="10.00">dolphin/os/OSThread.h</text>
</a>
</g>
</g>
<!-- Node7&#45;&gt;Node24 -->
<g id="edge51" class="edge">
<title>Node7&#45;&gt;Node24</title>
<path fill="none" stroke="#63b8ff" d="M952.68,-277.18C929.62,-271.37 903.18,-260.25 889,-239 879.76,-225.15 887.46,-206.88 896.03,-193.5"/>
<polygon fill="#63b8ff" stroke="#63b8ff" points="898.69,-195.79 901.61,-185.61 892.98,-191.75 898.69,-195.79"/>
</g>
<!-- Node25 -->
<g id="node25" class="node">
<title>Node25</title>
<g id="a_node25"><a xlink:href="OSMutex_8h.html" target="_top" xlink:title=" ">
<polygon fill="white" stroke="#666666" points="1010,-239 898,-239 898,-220 1010,-220 1010,-239"/>
<text text-anchor="middle" x="954" y="-227" font-family="Helvetica,sans-Serif" font-size="10.00">dolphin/os/OSMutex.h</text>
</a>
</g>
</g>
<!-- Node7&#45;&gt;Node25 -->
<g id="edge40" class="edge">
<title>Node7&#45;&gt;Node25</title>
<path fill="none" stroke="#63b8ff" d="M989.06,-274.75C983.38,-267.58 975.16,-257.2 968.11,-248.3"/>
<polygon fill="#63b8ff" stroke="#63b8ff" points="970.98,-246.29 962.03,-240.63 965.49,-250.64 970.98,-246.29"/>
</g>
<!-- Node26 -->
<g id="node26" class="node">
<title>Node26</title>
<g id="a_node26"><a xlink:href="OSReboot_8h.html" target="_top" xlink:title=" ">
<polygon fill="white" stroke="#666666" points="1372,-184 1256,-184 1256,-165 1372,-165 1372,-184"/>
<text text-anchor="middle" x="1314" y="-172" font-family="Helvetica,sans-Serif" font-size="10.00">dolphin/os/OSReboot.h</text>
</a>
</g>
</g>
<!-- Node7&#45;&gt;Node26 -->
<g id="edge42" class="edge">
<title>Node7&#45;&gt;Node26</title>
<path fill="none" stroke="#63b8ff" d="M1039.42,-281.29C1130.4,-276.21 1334.39,-262.32 1355,-239 1368.08,-224.2 1351.62,-204.86 1335.82,-191.43"/>
<polygon fill="#63b8ff" stroke="#63b8ff" points="1338.02,-188.71 1328.02,-185.23 1333.67,-194.19 1338.02,-188.71"/>
</g>
<!-- Node27 -->
<g id="node27" class="node">
<title>Node27</title>
<g id="a_node27"><a xlink:href="OSReset_8h.html" target="_top" xlink:title=" ">
<polygon fill="white" stroke="#666666" points="1287.5,-129 1176.5,-129 1176.5,-110 1287.5,-110 1287.5,-129"/>
<text text-anchor="middle" x="1232" y="-117" font-family="Helvetica,sans-Serif" font-size="10.00">dolphin/os/OSReset.h</text>
</a>
</g>
</g>
<!-- Node7&#45;&gt;Node27 -->
<g id="edge44" class="edge">
<title>Node7&#45;&gt;Node27</title>
<path fill="none" stroke="#63b8ff" d="M1039.4,-281.27C1133.2,-276.03 1348.31,-261.66 1372,-239 1395.94,-216.1 1400.79,-191.57 1381,-165 1370.4,-150.78 1331.43,-139.43 1296,-131.75"/>
<polygon fill="#63b8ff" stroke="#63b8ff" points="1297.14,-128.42 1286.63,-129.8 1295.71,-135.27 1297.14,-128.42"/>
</g>
<!-- Node28 -->
<g id="node28" class="node">
<title>Node28</title>
<g id="a_node28"><a xlink:href="OSResetSW_8h.html" target="_top" xlink:title=" ">
<polygon fill="white" stroke="#666666" points="1432.5,-129 1305.5,-129 1305.5,-110 1432.5,-110 1432.5,-129"/>
<text text-anchor="middle" x="1369" y="-117" font-family="Helvetica,sans-Serif" font-size="10.00">dolphin/os/OSResetSW.h</text>
</a>
</g>
</g>
<!-- Node7&#45;&gt;Node28 -->
<g id="edge46" class="edge">
<title>Node7&#45;&gt;Node28</title>
<path fill="none" stroke="#63b8ff" d="M1039.44,-281.66C1137.47,-277.1 1369.3,-263.77 1394,-239 1417.3,-215.64 1409.88,-196.48 1400,-165 1396.95,-155.27 1390.93,-145.81 1385,-138.13"/>
<polygon fill="#63b8ff" stroke="#63b8ff" points="1387.84,-136.07 1378.74,-130.64 1382.47,-140.56 1387.84,-136.07"/>
</g>
<!-- Node29 -->
<g id="node29" class="node">
<title>Node29</title>
<g id="a_node29"><a xlink:href="OSRtc_8h.html" target="_top" xlink:title=" ">
<polygon fill="white" stroke="#666666" points="1551.5,-129 1450.5,-129 1450.5,-110 1551.5,-110 1551.5,-129"/>
<text text-anchor="middle" x="1501" y="-117" font-family="Helvetica,sans-Serif" font-size="10.00">dolphin/os/OSRtc.h</text>
</a>
</g>
</g>
<!-- Node7&#45;&gt;Node29 -->
<g id="edge48" class="edge">
<title>Node7&#45;&gt;Node29</title>
<path fill="none" stroke="#63b8ff" d="M1039.34,-283.29C1133.21,-282.14 1351.92,-275.49 1415,-239 1454.49,-216.16 1480.87,-167.12 1493.12,-139.83"/>
<polygon fill="#63b8ff" stroke="#63b8ff" points="1496.32,-141.26 1497.03,-130.69 1489.88,-138.5 1496.32,-141.26"/>
</g>
<!-- Node30 -->
<g id="node30" class="node">
<title>Node30</title>
<g id="a_node30"><a xlink:href="OSSync_8h.html" target="_top" xlink:title=" ">
<polygon fill="white" stroke="#666666" points="1661.5,-239 1554.5,-239 1554.5,-220 1661.5,-220 1661.5,-239"/>
<text text-anchor="middle" x="1608" y="-227" font-family="Helvetica,sans-Serif" font-size="10.00">dolphin/os/OSSync.h</text>
</a>
</g>
</g>
<!-- Node7&#45;&gt;Node30 -->
<g id="edge50" class="edge">
<title>Node7&#45;&gt;Node30</title>
<path fill="none" stroke="#63b8ff" d="M1039.43,-280.58C1131.7,-274.24 1354.08,-258.22 1540,-239 1541.01,-238.9 1542.03,-238.79 1543.05,-238.68"/>
<polygon fill="#63b8ff" stroke="#63b8ff" points="1543.15,-242.19 1552.7,-237.61 1542.37,-235.23 1543.15,-242.19"/>
</g>
<!-- Node8&#45;&gt;Node3 -->
<g id="edge9" class="edge">
<title>Node8&#45;&gt;Node3</title>
<path fill="none" stroke="#63b8ff" d="M1566.59,-164.71C1570.04,-151 1574.17,-124.57 1560,-110 1530.08,-79.23 1244.15,-69.32 1124.37,-66.5"/>
<polygon fill="#63b8ff" stroke="#63b8ff" points="1124.56,-63.01 1114.49,-66.28 1124.41,-70 1124.56,-63.01"/>
</g>
<!-- Node9&#45;&gt;Node3 -->
<g id="edge11" class="edge">
<title>Node9&#45;&gt;Node3</title>
<path fill="none" stroke="#63b8ff" d="M1607.52,-111.65C1602.96,-111.06 1598.39,-110.5 1594,-110 1422.4,-90.55 1218.18,-75.47 1124.14,-68.98"/>
<polygon fill="#63b8ff" stroke="#63b8ff" points="1124.41,-65.49 1114.2,-68.3 1123.93,-72.47 1124.41,-65.49"/>
</g>
<!-- Node10&#45;&gt;Node11 -->
<g id="edge13" class="edge">
<title>Node10&#45;&gt;Node11</title>
<path fill="none" stroke="#63b8ff" d="M150.75,-219.51C138.12,-211.54 119.44,-199.75 104.59,-190.38"/>
<polygon fill="#63b8ff" stroke="#63b8ff" points="106.64,-187.54 96.32,-185.17 102.91,-193.46 106.64,-187.54"/>
</g>
<!-- Node10&#45;&gt;Node12 -->
<g id="edge15" class="edge">
<title>Node10&#45;&gt;Node12</title>
<path fill="none" stroke="#63b8ff" d="M171.77,-219.75C177.32,-212.58 185.34,-202.2 192.23,-193.3"/>
<polygon fill="#63b8ff" stroke="#63b8ff" points="194.81,-195.69 198.16,-185.64 189.27,-191.41 194.81,-195.69"/>
</g>
<!-- Node11&#45;&gt;Node3 -->
<g id="edge14" class="edge">
<title>Node11&#45;&gt;Node3</title>
<path fill="none" stroke="#63b8ff" d="M97.48,-164.51C125.01,-150 182.53,-121.85 235,-110 385.51,-76.01 861.03,-67.8 1019.81,-65.98"/>
<polygon fill="#63b8ff" stroke="#63b8ff" points="1019.65,-69.48 1029.61,-65.87 1019.57,-62.48 1019.65,-69.48"/>
</g>
<!-- Node12&#45;&gt;Node3 -->
<g id="edge16" class="edge">
<title>Node12&#45;&gt;Node3</title>
<path fill="none" stroke="#63b8ff" d="M210.88,-164.53C219.32,-150.04 238.15,-121.91 263,-110 330.89,-77.45 851.13,-68.22 1019.56,-66.07"/>
<polygon fill="#63b8ff" stroke="#63b8ff" points="1019.6,-69.57 1029.56,-65.95 1019.51,-62.57 1019.6,-69.57"/>
</g>
<!-- Node13&#45;&gt;Node3 -->
<g id="edge18" class="edge">
<title>Node13&#45;&gt;Node3</title>
<path fill="none" stroke="#63b8ff" d="M379.75,-112.79C389.8,-111.8 400.21,-110.82 410,-110 636.99,-90.89 908.31,-74.75 1020.03,-68.4"/>
<polygon fill="#63b8ff" stroke="#63b8ff" points="1019.99,-71.9 1029.77,-67.84 1019.59,-64.91 1019.99,-71.9"/>
</g>
<!-- Node14&#45;&gt;Node3 -->
<g id="edge20" class="edge">
<title>Node14&#45;&gt;Node3</title>
<path fill="none" stroke="#63b8ff" d="M379.66,-164.54C392.64,-150.07 420.54,-121.97 451,-110 554.03,-69.53 889.71,-65.33 1019.81,-65.27"/>
<polygon fill="#63b8ff" stroke="#63b8ff" points="1019.5,-68.77 1029.51,-65.28 1019.51,-61.77 1019.5,-68.77"/>
</g>
<!-- Node16&#45;&gt;Node3 -->
<g id="edge23" class="edge">
<title>Node16&#45;&gt;Node3</title>
<path fill="none" stroke="#63b8ff" d="M573.91,-111.93C580.01,-111.26 586.13,-110.6 592,-110 747.56,-93.98 931.77,-77.64 1019.92,-69.98"/>
<polygon fill="#63b8ff" stroke="#63b8ff" points="1020.03,-73.48 1029.69,-69.13 1019.43,-66.51 1020.03,-73.48"/>
</g>
<!-- Node17&#45;&gt;Node3 -->
<g id="edge25" class="edge">
<title>Node17&#45;&gt;Node3</title>
<path fill="none" stroke="#63b8ff" d="M998.93,-109.51C1012.28,-101.47 1032.11,-89.53 1047.74,-80.11"/>
<polygon fill="#63b8ff" stroke="#63b8ff" points="1049.24,-83.3 1056,-75.14 1045.62,-77.3 1049.24,-83.3"/>
</g>
<!-- Node18&#45;&gt;Node3 -->
<g id="edge28" class="edge">
<title>Node18&#45;&gt;Node3</title>
<path fill="none" stroke="#63b8ff" d="M612.73,-219.76C623.69,-206.1 646.73,-179.75 672,-165 784.81,-99.16 940.09,-76.63 1019.94,-69.11"/>
<polygon fill="#63b8ff" stroke="#63b8ff" points="1020,-72.62 1029.65,-68.25 1019.38,-65.65 1020,-72.62"/>
</g>
<!-- Node19&#45;&gt;Node3 -->
<g id="edge30" class="edge">
<title>Node19&#45;&gt;Node3</title>
<path fill="none" stroke="#63b8ff" d="M758.14,-164.5C792.69,-151.74 858.33,-127.95 915,-110 952.52,-98.11 995.56,-86.02 1027.08,-77.45"/>
<polygon fill="#63b8ff" stroke="#63b8ff" points="1027.93,-80.84 1036.67,-74.85 1026.11,-74.08 1027.93,-80.84"/>
</g>
<!-- Node20&#45;&gt;Node3 -->
<g id="edge32" class="edge">
<title>Node20&#45;&gt;Node3</title>
<path fill="none" stroke="#63b8ff" d="M1119.15,-164.68C1112.6,-155.96 1102.76,-142.08 1096,-129 1088.7,-114.88 1082.43,-98.01 1078.13,-85.21"/>
<polygon fill="#63b8ff" stroke="#63b8ff" points="1081.51,-84.29 1075.11,-75.84 1074.85,-86.44 1081.51,-84.29"/>
</g>
<!-- Node21&#45;&gt;Node3 -->
<g id="edge34" class="edge">
<title>Node21&#45;&gt;Node3</title>
<path fill="none" stroke="#63b8ff" d="M1280.87,-219.58C1262.24,-207.01 1226.94,-183.56 1196,-165 1167.68,-148.01 1157.01,-149.35 1131,-129 1113.64,-115.42 1096.84,-96.59 1085.63,-82.97"/>
<polygon fill="#63b8ff" stroke="#63b8ff" points="1088.47,-80.91 1079.48,-75.3 1083,-85.29 1088.47,-80.91"/>
</g>
<!-- Node22&#45;&gt;Node20 -->
<g id="edge36" class="edge">
<title>Node22&#45;&gt;Node20</title>
<path fill="none" stroke="#63b8ff" d="M1126,-219.75C1126,-213.27 1126,-204.16 1126,-195.9"/>
<polygon fill="#63b8ff" stroke="#63b8ff" points="1129.5,-195.96 1126,-185.96 1122.5,-195.96 1129.5,-195.96"/>
</g>
<!-- Node23&#45;&gt;Node24 -->
<g id="edge38" class="edge">
<title>Node23&#45;&gt;Node24</title>
<path fill="none" stroke="#63b8ff" d="M801.22,-219.51C822.14,-211.04 853.73,-198.27 877.48,-188.66"/>
<polygon fill="#63b8ff" stroke="#63b8ff" points="878.75,-191.92 886.7,-184.93 876.12,-185.43 878.75,-191.92"/>
</g>
<!-- Node24&#45;&gt;Node17 -->
<g id="edge39" class="edge">
<title>Node24&#45;&gt;Node17</title>
<path fill="none" stroke="#63b8ff" d="M922.55,-164.51C933.46,-156.7 949.5,-145.21 962.46,-135.93"/>
<polygon fill="#63b8ff" stroke="#63b8ff" points="964.31,-138.91 970.4,-130.24 960.23,-133.22 964.31,-138.91"/>
</g>
<!-- Node25&#45;&gt;Node24 -->
<g id="edge41" class="edge">
<title>Node25&#45;&gt;Node24</title>
<path fill="none" stroke="#63b8ff" d="M946.73,-219.75C940.72,-212.5 931.99,-201.98 924.54,-193.02"/>
<polygon fill="#63b8ff" stroke="#63b8ff" points="927.47,-191.07 918.39,-185.61 922.08,-195.54 927.47,-191.07"/>
</g>
<!-- Node26&#45;&gt;Node3 -->
<g id="edge43" class="edge">
<title>Node26&#45;&gt;Node3</title>
<path fill="none" stroke="#63b8ff" d="M1272.88,-164.51C1242.72,-157.1 1201.23,-145.18 1167,-129 1139.33,-115.92 1110.51,-95.54 1091.97,-81.42"/>
<polygon fill="#63b8ff" stroke="#63b8ff" points="1094.28,-78.78 1084.24,-75.41 1089.99,-84.31 1094.28,-78.78"/>
</g>
<!-- Node27&#45;&gt;Node3 -->
<g id="edge45" class="edge">
<title>Node27&#45;&gt;Node3</title>
<path fill="none" stroke="#63b8ff" d="M1204.86,-109.51C1178.69,-100.84 1138.86,-87.65 1109.64,-77.97"/>
<polygon fill="#63b8ff" stroke="#63b8ff" points="1111.04,-74.74 1100.44,-74.92 1108.84,-81.39 1111.04,-74.74"/>
</g>
<!-- Node28&#45;&gt;Node3 -->
<g id="edge47" class="edge">
<title>Node28&#45;&gt;Node3</title>
<path fill="none" stroke="#63b8ff" d="M1318.62,-109.51C1264.39,-99.83 1178.55,-84.51 1123.78,-74.74"/>
<polygon fill="#63b8ff" stroke="#63b8ff" points="1124.54,-71.32 1114.08,-73.01 1123.31,-78.21 1124.54,-71.32"/>
</g>
<!-- Node29&#45;&gt;Node3 -->
<g id="edge49" class="edge">
<title>Node29&#45;&gt;Node3</title>
<path fill="none" stroke="#63b8ff" d="M1450.27,-111.24C1447.13,-110.81 1444.03,-110.4 1441,-110 1328.27,-95.22 1195.93,-79.71 1124.36,-71.47"/>
<polygon fill="#63b8ff" stroke="#63b8ff" points="1124.83,-68 1114.49,-70.33 1124.03,-74.95 1124.83,-68"/>
</g>
<!-- Node31&#45;&gt;Node4 -->
<g id="edge54" class="edge">
<title>Node31&#45;&gt;Node4</title>
<path fill="none" stroke="#63b8ff" d="M436.54,-338.07C341.23,-335.73 0,-321.02 0,-230.5 0,-230.5 0,-230.5 0,-118.5 0,-16.53 377.52,-9.65 498.9,-10.07"/>
<polygon fill="#63b8ff" stroke="#63b8ff" points="498.61,-13.57 508.63,-10.12 498.65,-6.57 498.61,-13.57"/>
</g>
<!-- Node32 -->
<g id="node32" class="node">
<title>Node32</title>
<g id="a_node32"><a xlink:href="extras_8h.html" target="_top" xlink:title=" ">
<polygon fill="white" stroke="#666666" points="486,-294 436,-294 436,-275 486,-275 486,-294"/>
<text text-anchor="middle" x="461" y="-282" font-family="Helvetica,sans-Serif" font-size="10.00">extras.h</text>
</a>
</g>
</g>
<!-- Node31&#45;&gt;Node32 -->
<g id="edge55" class="edge">
<title>Node31&#45;&gt;Node32</title>
<path fill="none" stroke="#63b8ff" d="M461,-329.75C461,-323.27 461,-314.16 461,-305.9"/>
<polygon fill="#63b8ff" stroke="#63b8ff" points="464.5,-305.96 461,-295.96 457.5,-305.96 464.5,-305.96"/>
</g>
</g>
</svg>
        <g id="navigator" transform="translate(0 0)" fill="#404254">
                <rect fill="#f2f5e9" fill-opacity="0.5" stroke="#606060" stroke-width=".5" x="0" y="0" width="60" height="60"/>
                <use id="zoomplus" xlink:href="#zoomPlus" x="17" y="9" onmousedown="handleZoom(evt,'in')"/>
                <use id="zoomminus" xlink:href="#zoomMin" x="42" y="9" onmousedown="handleZoom(evt,'out')"/>
                <use id="reset" xlink:href="#resetDef" x="30" y="36" onmousedown="handleReset()"/>
                <g id="arrowUp" xlink:href="#dirArrow" transform="translate(30 24)" onmousedown="handlePan(0,-1)">
                  <use xlink:href="#rim" fill="#404040">
                        <set attributeName="fill" to="#808080" begin="arrowUp.mouseover" end="arrowUp.mouseout"/>
                  </use>
                  <path fill="none" stroke="white" stroke-width="1.5" d="M0,-3.0v7 M-2.5,-0.5L0,-3.0L2.5,-0.5"/>
                </g>
                <g id="arrowRight" xlink:href="#dirArrow" transform="rotate(90) translate(36 -43)" onmousedown="handlePan(1,0)">
                  <use xlink:href="#rim" fill="#404040">
                        <set attributeName="fill" to="#808080" begin="arrowRight.mouseover" end="arrowRight.mouseout"/>
                  </use>
                  <path fill="none" stroke="white" stroke-width="1.5" d="M0,-3.0v7 M-2.5,-0.5L0,-3.0L2.5,-0.5"/>
                </g>
                <g id="arrowDown" xlink:href="#dirArrow" transform="rotate(180) translate(-30 -48)" onmousedown="handlePan(0,1)">
                  <use xlink:href="#rim" fill="#404040">
                        <set attributeName="fill" to="#808080" begin="arrowDown.mouseover" end="arrowDown.mouseout"/>
                  </use>
                  <path fill="none" stroke="white" stroke-width="1.5" d="M0,-3.0v7 M-2.5,-0.5L0,-3.0L2.5,-0.5"/>
                </g>
                <g id="arrowLeft" xlink:href="#dirArrow" transform="rotate(270) translate(-36 17)" onmousedown="handlePan(-1,0)">
                  <use xlink:href="#rim" fill="#404040">
                        <set attributeName="fill" to="#808080" begin="arrowLeft.mouseover" end="arrowLeft.mouseout"/>
                  </use>
                  <path fill="none" stroke="white" stroke-width="1.5" d="M0,-3.0v7 M-2.5,-0.5L0,-3.0L2.5,-0.5"/>
                </g>
        </g>
        <svg viewBox="0 0 15 15" width="100%" height="30px" preserveAspectRatio="xMaxYMin meet">
         <g id="arrow_out" transform="scale(0.3 0.3)">
          <a xlink:href="JASBankTable_8h__incl_org.svg" target="_base">
           <rect id="button" ry="5" rx="5" y="6" x="6" height="38" width="38"
                fill="#f2f5e9" fill-opacity="0.5" stroke="#606060" stroke-width="1.0"/>
           <path id="arrow"
             d="M 11.500037,31.436501 C 11.940474,20.09759 22.043105,11.32322 32.158766,21.979434 L 37.068811,17.246167 C 37.068811,17.246167 37.088388,32 37.088388,32 L 22.160133,31.978069 C 22.160133,31.978069 26.997745,27.140456 26.997745,27.140456 C 18.528582,18.264221 13.291696,25.230495 11.500037,31.436501 z"
             style="fill:#404040;"/>
          </a>
         </g>
        </svg>
</svg>
