<?xml version="1.0" encoding="UTF-8" standalone="no"?>
<!DOCTYPE svg PUBLIC "-//W3C//DTD SVG 1.1//EN"
 "http://www.w3.org/Graphics/SVG/1.1/DTD/svg11.dtd">
<!-- Generated by graphviz version 7.0.5 (20221223.1930)
 -->
<!-- Title: libs/JSystem/JAudio2/JASWaveArcLoader.cpp Pages: 1 -->
<!--zoomable 544 -->
<svg id="main" version="1.1" xmlns="http://www.w3.org/2000/svg" xmlns:xlink="http://www.w3.org/1999/xlink" xml:space="preserve" onload="init(evt)">
<style type="text/css"><![CDATA[
.edge:hover path { stroke: red; }
.edge:hover polygon { stroke: red; fill: red; }
]]></style>
<script type="text/javascript"><![CDATA[
var edges = document.getElementsByTagName('g');
if (edges && edges.length) {
  for (var i=0;i<edges.length;i++) {
    if (edges[i].id.substr(0,4)=='edge') {
      edges[i].setAttribute('class','edge');
    }
  }
}
]]></script>
        <defs>
                <circle id="rim" cx="0" cy="0" r="7"/>
                <circle id="rim2" cx="0" cy="0" r="3.5"/>
                <g id="zoomPlus">
                        <use xlink:href="#rim" fill="#404040">
                                <set attributeName="fill" to="#808080" begin="zoomplus.mouseover" end="zoomplus.mouseout"/>
                        </use>
                        <path d="M-4,0h8M0,-4v8" fill="none" stroke="white" stroke-width="1.5" pointer-events="none"/>
                </g>
                <g id="zoomMin">
                        <use xlink:href="#rim" fill="#404040">
                                <set attributeName="fill" to="#808080" begin="zoomminus.mouseover" end="zoomminus.mouseout"/>
                        </use>
                        <path d="M-4,0h8" fill="none" stroke="white" stroke-width="1.5" pointer-events="none"/>
                </g>
                <g id="dirArrow">
                        <path fill="none" stroke="white" stroke-width="1.5" d="M0,-3.0v7 M-2.5,-0.5L0,-3.0L2.5,-0.5"/>
                </g>
               <g id="resetDef">
                       <use xlink:href="#rim2" fill="#404040">
                               <set attributeName="fill" to="#808080" begin="reset.mouseover" end="reset.mouseout"/>
                       </use>
               </g>
        </defs>

<script type="text/javascript">
var viewWidth = 1586;
var viewHeight = 544;
var sectionId = 'dynsection-0';
</script>
<script xlink:href="svgpan.js"/>
<svg id="graph" class="graph">
<g id="viewport">
<title>libs/JSystem/JAudio2/JASWaveArcLoader.cpp</title>
<!-- Node1 -->
<g id="node1" class="node">
<title>Node1</title>
<g id="a_node1"><a xlink:title=" ">
<polygon fill="#999999" stroke="#666666" points="1197.5,-536 1071.5,-536 1071.5,-506 1197.5,-506 1197.5,-536"/>
<text text-anchor="start" x="1079.5" y="-524" font-family="Helvetica,sans-Serif" font-size="10.00">libs/JSystem/JAudio2</text>
<text text-anchor="middle" x="1134.5" y="-513" font-family="Helvetica,sans-Serif" font-size="10.00">/JASWaveArcLoader.cpp</text>
</a>
</g>
</g>
<!-- Node2 -->
<g id="node2" class="node">
<title>Node2</title>
<g id="a_node2"><a xlink:href="JASWaveArcLoader_8h.html" target="_top" xlink:title=" ">
<polygon fill="white" stroke="#666666" points="155,-338 0,-338 0,-308 155,-308 155,-338"/>
<text text-anchor="start" x="8" y="-326" font-family="Helvetica,sans-Serif" font-size="10.00">JSystem/JAudio2/JASWaveArc</text>
<text text-anchor="middle" x="77.5" y="-315" font-family="Helvetica,sans-Serif" font-size="10.00">Loader.h</text>
</a>
</g>
</g>
<!-- Node1&#45;&gt;Node2 -->
<g id="edge1" class="edge">
<title>Node1&#45;&gt;Node2</title>
<path fill="none" stroke="#63b8ff" d="M1071.37,-516.14C980.31,-509.94 807.05,-495.76 661.5,-470 466.89,-435.56 241.12,-372.33 136.42,-341.64"/>
<polygon fill="#63b8ff" stroke="#63b8ff" points="137.5,-338.31 126.91,-338.85 135.52,-345.03 137.5,-338.31"/>
</g>
<!-- Node10 -->
<g id="node10" class="node">
<title>Node10</title>
<g id="a_node10"><a xlink:href="JASDvdThread_8h.html" target="_top" xlink:title=" ">
<polygon fill="white" stroke="#666666" points="1070.5,-393 900.5,-393 900.5,-374 1070.5,-374 1070.5,-393"/>
<text text-anchor="middle" x="985.5" y="-381" font-family="Helvetica,sans-Serif" font-size="10.00">JSystem/JAudio2/JASDvdThread.h</text>
</a>
</g>
</g>
<!-- Node1&#45;&gt;Node10 -->
<g id="edge11" class="edge">
<title>Node1&#45;&gt;Node10</title>
<path fill="none" stroke="#63b8ff" d="M1118.84,-505.76C1090.94,-480.39 1032.82,-427.53 1003.4,-400.77"/>
<polygon fill="#63b8ff" stroke="#63b8ff" points="1006.12,-398.52 996.37,-394.38 1001.41,-403.7 1006.12,-398.52"/>
</g>
<!-- Node11 -->
<g id="node11" class="node">
<title>Node11</title>
<g id="a_node11"><a xlink:href="JASTaskThread_8h.html" target="_top" xlink:title=" ">
<polygon fill="white" stroke="#666666" points="844.5,-459 670.5,-459 670.5,-440 844.5,-440 844.5,-459"/>
<text text-anchor="middle" x="757.5" y="-447" font-family="Helvetica,sans-Serif" font-size="10.00">JSystem/JAudio2/JASTaskThread.h</text>
</a>
</g>
</g>
<!-- Node1&#45;&gt;Node11 -->
<g id="edge13" class="edge">
<title>Node1&#45;&gt;Node11</title>
<path fill="none" stroke="#63b8ff" d="M1071.16,-508.74C1015.19,-498.74 931.38,-483.64 858.5,-470 844.3,-467.34 828.99,-464.42 814.7,-461.66"/>
<polygon fill="#63b8ff" stroke="#63b8ff" points="815.45,-458.24 804.97,-459.78 814.12,-465.12 815.45,-458.24"/>
</g>
<!-- Node17 -->
<g id="node17" class="node">
<title>Node17</title>
<g id="a_node17"><a xlink:href="JKRDvdAramRipper_8h.html" target="_top" xlink:title=" ">
<polygon fill="white" stroke="#666666" points="1019,-272 866,-272 866,-242 1019,-242 1019,-272"/>
<text text-anchor="start" x="874" y="-260" font-family="Helvetica,sans-Serif" font-size="10.00">JSystem/JKernel/JKRDvdAram</text>
<text text-anchor="middle" x="942.5" y="-249" font-family="Helvetica,sans-Serif" font-size="10.00">Ripper.h</text>
</a>
</g>
</g>
<!-- Node1&#45;&gt;Node17 -->
<g id="edge30" class="edge">
<title>Node1&#45;&gt;Node17</title>
<path fill="none" stroke="#63b8ff" d="M1071.06,-506.57C1012.8,-490.5 929.88,-457.26 891.5,-393 869.57,-356.28 899.56,-308.51 921.98,-280.75"/>
<polygon fill="#63b8ff" stroke="#63b8ff" points="924.48,-283.21 928.24,-273.3 919.12,-278.71 924.48,-283.21"/>
</g>
<!-- Node20 -->
<g id="node20" class="node">
<title>Node20</title>
<g id="a_node20"><a xlink:href="string_8h.html" target="_top" xlink:title=" ">
<polygon fill="white" stroke="#666666" points="1309.5,-151 1225.5,-151 1225.5,-132 1309.5,-132 1309.5,-151"/>
<text text-anchor="middle" x="1267.5" y="-139" font-family="Helvetica,sans-Serif" font-size="10.00">MSL_C/string.h</text>
</a>
</g>
</g>
<!-- Node1&#45;&gt;Node20 -->
<g id="edge36" class="edge">
<title>Node1&#45;&gt;Node20</title>
<path fill="none" stroke="#63b8ff" d="M1168.51,-505.62C1210.52,-485.32 1276.5,-443.96 1276.5,-384.5 1276.5,-384.5 1276.5,-384.5 1276.5,-256 1276.5,-223.13 1272.7,-185.07 1270.04,-162.44"/>
<polygon fill="#63b8ff" stroke="#63b8ff" points="1273.55,-162.31 1268.86,-152.81 1266.6,-163.17 1273.55,-162.31"/>
</g>
<!-- Node24 -->
<g id="node24" class="node">
<title>Node24</title>
<g id="a_node24"><a xlink:href="dvd_8h.html" target="_top" xlink:title=" ">
<polygon fill="white" stroke="#666666" points="1180.5,-393 1088.5,-393 1088.5,-374 1180.5,-374 1180.5,-393"/>
<text text-anchor="middle" x="1134.5" y="-381" font-family="Helvetica,sans-Serif" font-size="10.00">dolphin/dvd/dvd.h</text>
</a>
</g>
</g>
<!-- Node1&#45;&gt;Node24 -->
<g id="edge42" class="edge">
<title>Node1&#45;&gt;Node24</title>
<path fill="none" stroke="#63b8ff" d="M1134.5,-505.76C1134.5,-481.59 1134.5,-432.48 1134.5,-404.75"/>
<polygon fill="#63b8ff" stroke="#63b8ff" points="1138,-404.88 1134.5,-394.88 1131,-404.88 1138,-404.88"/>
</g>
<!-- Node25 -->
<g id="node25" class="node">
<title>Node25</title>
<g id="a_node25"><a xlink:href="global_8h.html" target="_top" xlink:title=" ">
<polygon fill="white" stroke="#666666" points="1248.5,-393 1198.5,-393 1198.5,-374 1248.5,-374 1248.5,-393"/>
<text text-anchor="middle" x="1223.5" y="-381" font-family="Helvetica,sans-Serif" font-size="10.00">global.h</text>
</a>
</g>
</g>
<!-- Node1&#45;&gt;Node25 -->
<g id="edge44" class="edge">
<title>Node1&#45;&gt;Node25</title>
<path fill="none" stroke="#63b8ff" d="M1143.86,-505.76C1160.09,-481.04 1193.45,-430.25 1211.41,-402.9"/>
<polygon fill="#63b8ff" stroke="#63b8ff" points="1214.28,-404.91 1216.85,-394.63 1208.43,-401.07 1214.28,-404.91"/>
</g>
<!-- Node26 -->
<g id="node26" class="node">
<title>Node26</title>
<g id="a_node26"><a xlink:title=" ">
<polygon fill="#e0e0e0" stroke="#999999" points="1432.5,-470 1304.5,-470 1304.5,-429 1432.5,-429 1432.5,-470"/>
<text text-anchor="start" x="1312.5" y="-458" font-family="Helvetica,sans-Serif" font-size="10.00">asm/JSystem/JAudio2</text>
<text text-anchor="start" x="1312.5" y="-447" font-family="Helvetica,sans-Serif" font-size="10.00">/JASWaveArcLoader/_</text>
<text text-anchor="middle" x="1368.5" y="-436" font-family="Helvetica,sans-Serif" font-size="10.00">_dt__10JASWaveArcFv.s</text>
</a>
</g>
</g>
<!-- Node1&#45;&gt;Node26 -->
<g id="edge46" class="edge">
<title>Node1&#45;&gt;Node26</title>
<path fill="none" stroke="#63b8ff" d="M1183.27,-505.52C1215.07,-496.07 1257.21,-483.55 1293.27,-472.85"/>
<polygon fill="#63b8ff" stroke="#63b8ff" points="1294.2,-476.22 1302.79,-470.02 1292.21,-469.51 1294.2,-476.22"/>
</g>
<!-- Node27 -->
<g id="node27" class="node">
<title>Node27</title>
<g id="a_node27"><a xlink:title=" ">
<polygon fill="#e0e0e0" stroke="#999999" points="1578,-470 1451,-470 1451,-429 1578,-429 1578,-470"/>
<text text-anchor="start" x="1459" y="-458" font-family="Helvetica,sans-Serif" font-size="10.00">asm/JSystem/JAudio2</text>
<text text-anchor="start" x="1459" y="-447" font-family="Helvetica,sans-Serif" font-size="10.00">/JASWaveArcLoader/_</text>
<text text-anchor="middle" x="1514.5" y="-436" font-family="Helvetica,sans-Serif" font-size="10.00">_dt__11JASDisposerFv.s</text>
</a>
</g>
</g>
<!-- Node1&#45;&gt;Node27 -->
<g id="edge47" class="edge">
<title>Node1&#45;&gt;Node27</title>
<path fill="none" stroke="#63b8ff" d="M1197.76,-511.58C1257.57,-503.19 1350.04,-489.13 1439.69,-470.28"/>
<polygon fill="#63b8ff" stroke="#63b8ff" points="1440.36,-473.71 1449.41,-468.21 1438.9,-466.87 1440.36,-473.71"/>
</g>
<!-- Node3 -->
<g id="node3" class="node">
<title>Node3</title>
<g id="a_node3"><a xlink:href="JSUList_8h.html" target="_top" xlink:title=" ">
<polygon fill="white" stroke="#666666" points="362,-206 219,-206 219,-187 362,-187 362,-206"/>
<text text-anchor="middle" x="290.5" y="-194" font-family="Helvetica,sans-Serif" font-size="10.00">JSystem/JSupport/JSUList.h</text>
</a>
</g>
</g>
<!-- Node2&#45;&gt;Node3 -->
<g id="edge2" class="edge">
<title>Node2&#45;&gt;Node3</title>
<path fill="none" stroke="#63b8ff" d="M74.14,-307.62C70.93,-289.92 68.64,-259.99 84.5,-242 100.9,-223.41 157.65,-212.03 207.44,-205.44"/>
<polygon fill="#63b8ff" stroke="#63b8ff" points="207.62,-208.94 217.1,-204.21 206.74,-202 207.62,-208.94"/>
</g>
<!-- Node4 -->
<g id="node4" class="node">
<title>Node4</title>
<g id="a_node4"><a xlink:href="types_8h.html" target="_top" xlink:title=" ">
<polygon fill="white" stroke="#666666" points="807,-90.5 726,-90.5 726,-71.5 807,-71.5 807,-90.5"/>
<text text-anchor="middle" x="766.5" y="-78.5" font-family="Helvetica,sans-Serif" font-size="10.00">dolphin/types.h</text>
</a>
</g>
</g>
<!-- Node2&#45;&gt;Node4 -->
<g id="edge10" class="edge">
<title>Node2&#45;&gt;Node4</title>
<path fill="none" stroke="#63b8ff" d="M70.87,-307.62C64.05,-290.45 56.14,-261.61 69.5,-242 149.48,-124.65 231.17,-164.13 369.5,-132 491.31,-103.71 638.11,-90.48 714.52,-85.12"/>
<polygon fill="#63b8ff" stroke="#63b8ff" points="714.47,-88.64 724.21,-84.46 714,-81.65 714.47,-88.64"/>
</g>
<!-- Node6 -->
<g id="node6" class="node">
<title>Node6</title>
<g id="a_node6"><a xlink:href="dol2asm_8h.html" target="_top" xlink:title=" ">
<polygon fill="white" stroke="#666666" points="155,-266.5 94,-266.5 94,-247.5 155,-247.5 155,-266.5"/>
<text text-anchor="middle" x="124.5" y="-254.5" font-family="Helvetica,sans-Serif" font-size="10.00">dol2asm.h</text>
</a>
</g>
</g>
<!-- Node2&#45;&gt;Node6 -->
<g id="edge5" class="edge">
<title>Node2&#45;&gt;Node6</title>
<path fill="none" stroke="#63b8ff" d="M87.93,-307.8C94.83,-298.41 103.93,-286.02 111.32,-275.95"/>
<polygon fill="#63b8ff" stroke="#63b8ff" points="114.01,-278.2 117.11,-268.06 108.37,-274.05 114.01,-278.2"/>
</g>
<!-- Node7 -->
<g id="node7" class="node">
<title>Node7</title>
<g id="a_node7"><a xlink:href="OSMutex_8h.html" target="_top" xlink:title=" ">
<polygon fill="white" stroke="#666666" points="499.5,-266.5 387.5,-266.5 387.5,-247.5 499.5,-247.5 499.5,-266.5"/>
<text text-anchor="middle" x="443.5" y="-254.5" font-family="Helvetica,sans-Serif" font-size="10.00">dolphin/os/OSMutex.h</text>
</a>
</g>
</g>
<!-- Node2&#45;&gt;Node7 -->
<g id="edge6" class="edge">
<title>Node2&#45;&gt;Node7</title>
<path fill="none" stroke="#63b8ff" d="M155.32,-310.11C216.2,-300.56 302.92,-286.41 378.5,-272 383.03,-271.14 387.73,-270.2 392.43,-269.24"/>
<polygon fill="#63b8ff" stroke="#63b8ff" points="392.78,-272.74 401.86,-267.27 391.35,-265.89 392.78,-272.74"/>
</g>
<!-- Node3&#45;&gt;Node4 -->
<g id="edge3" class="edge">
<title>Node3&#45;&gt;Node4</title>
<path fill="none" stroke="#63b8ff" d="M304.82,-186.72C328.29,-172.77 376.8,-145.71 421.5,-132 522.28,-101.09 645.62,-89.09 714.18,-84.58"/>
<polygon fill="#63b8ff" stroke="#63b8ff" points="714.24,-88.09 724,-83.97 713.8,-81.1 714.24,-88.09"/>
</g>
<!-- Node5 -->
<g id="node5" class="node">
<title>Node5</title>
<g id="a_node5"><a xlink:href="stddef_8h.html" target="_top" xlink:title=" ">
<polygon fill="white" stroke="#666666" points="1258.5,-30 1122.5,-30 1122.5,0 1258.5,0 1258.5,-30"/>
<text text-anchor="start" x="1130.5" y="-18" font-family="Helvetica,sans-Serif" font-size="10.00">MSL_C/MSL_Common/Src</text>
<text text-anchor="middle" x="1190.5" y="-7" font-family="Helvetica,sans-Serif" font-size="10.00">/stddef.h</text>
</a>
</g>
</g>
<!-- Node4&#45;&gt;Node5 -->
<g id="edge4" class="edge">
<title>Node4&#45;&gt;Node5</title>
<path fill="none" stroke="#63b8ff" d="M807.15,-73.86C876.92,-63.33 1020.64,-41.64 1110.92,-28.01"/>
<polygon fill="#63b8ff" stroke="#63b8ff" points="1111.34,-31.49 1120.71,-26.53 1110.3,-24.57 1111.34,-31.49"/>
</g>
<!-- Node8 -->
<g id="node8" class="node">
<title>Node8</title>
<g id="a_node8"><a xlink:href="OSThread_8h.html" target="_top" xlink:title=" ">
<polygon fill="white" stroke="#666666" points="642.5,-206 526.5,-206 526.5,-187 642.5,-187 642.5,-206"/>
<text text-anchor="middle" x="584.5" y="-194" font-family="Helvetica,sans-Serif" font-size="10.00">dolphin/os/OSThread.h</text>
</a>
</g>
</g>
<!-- Node7&#45;&gt;Node8 -->
<g id="edge7" class="edge">
<title>Node7&#45;&gt;Node8</title>
<path fill="none" stroke="#63b8ff" d="M464.91,-247.12C488.21,-237.45 525.69,-221.9 552.48,-210.78"/>
<polygon fill="#63b8ff" stroke="#63b8ff" points="553.59,-214.11 561.49,-207.05 550.91,-207.65 553.59,-214.11"/>
</g>
<!-- Node9 -->
<g id="node9" class="node">
<title>Node9</title>
<g id="a_node9"><a xlink:href="OSContext_8h.html" target="_top" xlink:title=" ">
<polygon fill="white" stroke="#666666" points="646,-151 527,-151 527,-132 646,-132 646,-151"/>
<text text-anchor="middle" x="586.5" y="-139" font-family="Helvetica,sans-Serif" font-size="10.00">dolphin/os/OSContext.h</text>
</a>
</g>
</g>
<!-- Node8&#45;&gt;Node9 -->
<g id="edge8" class="edge">
<title>Node8&#45;&gt;Node9</title>
<path fill="none" stroke="#63b8ff" d="M584.83,-186.75C585.07,-180.27 585.42,-171.16 585.73,-162.9"/>
<polygon fill="#63b8ff" stroke="#63b8ff" points="589.23,-163.08 586.11,-152.95 582.23,-162.82 589.23,-163.08"/>
</g>
<!-- Node9&#45;&gt;Node4 -->
<g id="edge9" class="edge">
<title>Node9&#45;&gt;Node4</title>
<path fill="none" stroke="#63b8ff" d="M613.84,-131.62C644.37,-121.69 693.99,-105.57 728.33,-94.4"/>
<polygon fill="#63b8ff" stroke="#63b8ff" points="729.04,-97.86 737.47,-91.44 726.87,-91.2 729.04,-97.86"/>
</g>
<!-- Node10&#45;&gt;Node4 -->
<g id="edge12" class="edge">
<title>Node10&#45;&gt;Node4</title>
<path fill="none" stroke="#63b8ff" d="M1002.21,-373.7C1032.98,-356.16 1095.5,-313.67 1095.5,-258 1095.5,-258 1095.5,-258 1095.5,-195.5 1095.5,-157.28 1070.92,-150.54 1037.5,-132 968.42,-93.67 875.71,-83.99 818.59,-81.94"/>
<polygon fill="#63b8ff" stroke="#63b8ff" points="818.92,-78.45 808.82,-81.66 818.72,-85.44 818.92,-78.45"/>
</g>
<!-- Node11&#45;&gt;Node4 -->
<g id="edge29" class="edge">
<title>Node11&#45;&gt;Node4</title>
<path fill="none" stroke="#63b8ff" d="M767.88,-439.69C788.9,-420.8 834.5,-374.07 834.5,-324 834.5,-324 834.5,-324 834.5,-256 834.5,-224.26 794.74,-139.32 776.03,-101.1"/>
<polygon fill="#63b8ff" stroke="#63b8ff" points="779.2,-99.62 771.63,-92.21 772.92,-102.72 779.2,-99.62"/>
</g>
<!-- Node12 -->
<g id="node12" class="node">
<title>Node12</title>
<g id="a_node12"><a xlink:href="JKRThread_8h.html" target="_top" xlink:title=" ">
<polygon fill="white" stroke="#666666" points="643.5,-393 493.5,-393 493.5,-374 643.5,-374 643.5,-393"/>
<text text-anchor="middle" x="568.5" y="-381" font-family="Helvetica,sans-Serif" font-size="10.00">JSystem/JKernel/JKRThread.h</text>
</a>
</g>
</g>
<!-- Node11&#45;&gt;Node12 -->
<g id="edge14" class="edge">
<title>Node11&#45;&gt;Node12</title>
<path fill="none" stroke="#63b8ff" d="M731.22,-439.6C698.59,-428.55 642.72,-409.63 605.7,-397.1"/>
<polygon fill="#63b8ff" stroke="#63b8ff" points="606.89,-393.8 596.29,-393.91 604.64,-400.43 606.89,-393.8"/>
</g>
<!-- Node12&#45;&gt;Node3 -->
<g id="edge22" class="edge">
<title>Node12&#45;&gt;Node3</title>
<path fill="none" stroke="#63b8ff" d="M493.15,-377.05C440.62,-371.45 369.64,-360.24 310.5,-338 257.85,-318.2 230.02,-321.06 202.5,-272 195.98,-260.37 195.52,-253.36 202.5,-242 211.53,-227.31 227.09,-217.29 242.63,-210.54"/>
<polygon fill="#63b8ff" stroke="#63b8ff" points="243.85,-213.82 251.9,-206.92 241.31,-207.3 243.85,-213.82"/>
</g>
<!-- Node12&#45;&gt;Node4 -->
<g id="edge28" class="edge">
<title>Node12&#45;&gt;Node4</title>
<path fill="none" stroke="#63b8ff" d="M628.25,-373.57C649.49,-367.25 671.36,-356.45 684.5,-338 723.45,-283.3 667.56,-250.46 689.5,-187 701.68,-151.77 730.11,-118.37 748.81,-99.05"/>
<polygon fill="#63b8ff" stroke="#63b8ff" points="751.21,-101.6 755.79,-92.05 746.25,-96.66 751.21,-101.6"/>
</g>
<!-- Node12&#45;&gt;Node8 -->
<g id="edge25" class="edge">
<title>Node12&#45;&gt;Node8</title>
<path fill="none" stroke="#63b8ff" d="M561.1,-373.65C554.49,-365.13 545.3,-351.58 541.5,-338 537.91,-325.16 539.04,-321.1 541.5,-308 547.81,-274.39 564.04,-237.86 574.66,-216.36"/>
<polygon fill="#63b8ff" stroke="#63b8ff" points="577.66,-218.18 579.06,-207.68 571.42,-215.01 577.66,-218.18"/>
</g>
<!-- Node13 -->
<g id="node13" class="node">
<title>Node13</title>
<g id="a_node13"><a xlink:href="JKRDisposer_8h.html" target="_top" xlink:title=" ">
<polygon fill="white" stroke="#666666" points="369.5,-266.5 211.5,-266.5 211.5,-247.5 369.5,-247.5 369.5,-266.5"/>
<text text-anchor="middle" x="290.5" y="-254.5" font-family="Helvetica,sans-Serif" font-size="10.00">JSystem/JKernel/JKRDisposer.h</text>
</a>
</g>
</g>
<!-- Node12&#45;&gt;Node13 -->
<g id="edge15" class="edge">
<title>Node12&#45;&gt;Node13</title>
<path fill="none" stroke="#63b8ff" d="M493.06,-374.17C436.87,-366.79 365.85,-354.6 341.5,-338 319.85,-323.24 305.42,-295.93 297.59,-277.37"/>
<polygon fill="#63b8ff" stroke="#63b8ff" points="300.94,-276.33 294.03,-268.31 294.42,-278.89 300.94,-276.33"/>
</g>
<!-- Node14 -->
<g id="node14" class="node">
<title>Node14</title>
<g id="a_node14"><a xlink:href="JKRHeap_8h.html" target="_top" xlink:title=" ">
<polygon fill="white" stroke="#666666" points="494,-332.5 351,-332.5 351,-313.5 494,-313.5 494,-332.5"/>
<text text-anchor="middle" x="422.5" y="-320.5" font-family="Helvetica,sans-Serif" font-size="10.00">JSystem/JKernel/JKRHeap.h</text>
</a>
</g>
</g>
<!-- Node12&#45;&gt;Node14 -->
<g id="edge18" class="edge">
<title>Node12&#45;&gt;Node14</title>
<path fill="none" stroke="#63b8ff" d="M546.33,-373.62C522.1,-363.91 483.05,-348.26 455.28,-337.14"/>
<polygon fill="#63b8ff" stroke="#63b8ff" points="456.87,-334 446.29,-333.53 454.27,-340.5 456.87,-334"/>
</g>
<!-- Node15 -->
<g id="node15" class="node">
<title>Node15</title>
<g id="a_node15"><a xlink:href="OSMessage_8h.html" target="_top" xlink:title=" ">
<polygon fill="white" stroke="#666666" points="676,-332.5 551,-332.5 551,-313.5 676,-313.5 676,-332.5"/>
<text text-anchor="middle" x="613.5" y="-320.5" font-family="Helvetica,sans-Serif" font-size="10.00">dolphin/os/OSMessage.h</text>
</a>
</g>
</g>
<!-- Node12&#45;&gt;Node15 -->
<g id="edge23" class="edge">
<title>Node12&#45;&gt;Node15</title>
<path fill="none" stroke="#63b8ff" d="M575.14,-373.87C581.65,-365.4 591.78,-352.24 599.99,-341.57"/>
<polygon fill="#63b8ff" stroke="#63b8ff" points="602.59,-343.93 605.91,-333.87 597.04,-339.66 602.59,-343.93"/>
</g>
<!-- Node16 -->
<g id="node16" class="node">
<title>Node16</title>
<g id="a_node16"><a xlink:href="OSTime_8h.html" target="_top" xlink:title=" ">
<polygon fill="white" stroke="#666666" points="806,-206 699,-206 699,-187 806,-187 806,-206"/>
<text text-anchor="middle" x="752.5" y="-194" font-family="Helvetica,sans-Serif" font-size="10.00">dolphin/os/OSTime.h</text>
</a>
</g>
</g>
<!-- Node12&#45;&gt;Node16 -->
<g id="edge26" class="edge">
<title>Node12&#45;&gt;Node16</title>
<path fill="none" stroke="#63b8ff" d="M643.77,-375.72C670.64,-369.66 699.04,-358.48 718.5,-338 749.96,-304.89 753.87,-247.85 753.51,-217.63"/>
<polygon fill="#63b8ff" stroke="#63b8ff" points="757.02,-217.87 753.2,-207.99 750.02,-218.09 757.02,-217.87"/>
</g>
<!-- Node13&#45;&gt;Node3 -->
<g id="edge16" class="edge">
<title>Node13&#45;&gt;Node3</title>
<path fill="none" stroke="#63b8ff" d="M290.5,-247.37C290.5,-239.5 290.5,-227.6 290.5,-217.39"/>
<polygon fill="#63b8ff" stroke="#63b8ff" points="294,-217.68 290.5,-207.68 287,-217.68 294,-217.68"/>
</g>
<!-- Node13&#45;&gt;Node4 -->
<g id="edge17" class="edge">
<title>Node13&#45;&gt;Node4</title>
<path fill="none" stroke="#63b8ff" d="M305,-247.04C321.06,-237.09 347.71,-220.52 370.5,-206 421.45,-173.55 428.31,-154.16 484.5,-132 561.1,-101.8 656.59,-89.75 714.49,-85"/>
<polygon fill="#63b8ff" stroke="#63b8ff" points="714.69,-88.5 724.39,-84.24 714.15,-81.52 714.69,-88.5"/>
</g>
<!-- Node14&#45;&gt;Node4 -->
<g id="edge21" class="edge">
<title>Node14&#45;&gt;Node4</title>
<path fill="none" stroke="#63b8ff" d="M452.05,-313.01C471.6,-305.4 495.87,-292.41 508.5,-272 541.31,-218.98 476.46,-178.94 517.5,-132 542.79,-103.07 649.05,-90.36 714.32,-85.19"/>
<polygon fill="#63b8ff" stroke="#63b8ff" points="714.38,-88.69 724.09,-84.45 713.86,-81.71 714.38,-88.69"/>
</g>
<!-- Node14&#45;&gt;Node7 -->
<g id="edge20" class="edge">
<title>Node14&#45;&gt;Node7</title>
<path fill="none" stroke="#63b8ff" d="M425.42,-313.1C428.43,-303.93 433.22,-289.34 437.11,-277.48"/>
<polygon fill="#63b8ff" stroke="#63b8ff" points="440.34,-278.85 440.13,-268.26 433.69,-276.67 440.34,-278.85"/>
</g>
<!-- Node14&#45;&gt;Node13 -->
<g id="edge19" class="edge">
<title>Node14&#45;&gt;Node13</title>
<path fill="none" stroke="#63b8ff" d="M404.15,-313.1C382.08,-302.4 344.8,-284.33 318.98,-271.81"/>
<polygon fill="#63b8ff" stroke="#63b8ff" points="320.59,-268.7 310.06,-267.48 317.53,-275 320.59,-268.7"/>
</g>
<!-- Node15&#45;&gt;Node8 -->
<g id="edge24" class="edge">
<title>Node15&#45;&gt;Node8</title>
<path fill="none" stroke="#63b8ff" d="M611.41,-313.05C606.77,-293.13 595.5,-244.74 589.12,-217.32"/>
<polygon fill="#63b8ff" stroke="#63b8ff" points="592.59,-216.79 586.91,-207.85 585.77,-218.38 592.59,-216.79"/>
</g>
<!-- Node16&#45;&gt;Node4 -->
<g id="edge27" class="edge">
<title>Node16&#45;&gt;Node4</title>
<path fill="none" stroke="#63b8ff" d="M753.6,-186.59C755.83,-168.53 760.93,-127.17 764.01,-102.21"/>
<polygon fill="#63b8ff" stroke="#63b8ff" points="767.47,-102.72 765.22,-92.37 760.52,-101.86 767.47,-102.72"/>
</g>
<!-- Node17&#45;&gt;Node3 -->
<g id="edge34" class="edge">
<title>Node17&#45;&gt;Node3</title>
<path fill="none" stroke="#63b8ff" d="M865.79,-249.12C742.44,-238.05 500.97,-216.38 373.64,-204.96"/>
<polygon fill="#63b8ff" stroke="#63b8ff" points="374.21,-201.5 363.94,-204.09 373.59,-208.47 374.21,-201.5"/>
</g>
<!-- Node17&#45;&gt;Node4 -->
<g id="edge35" class="edge">
<title>Node17&#45;&gt;Node4</title>
<path fill="none" stroke="#63b8ff" d="M991.6,-241.7C1008.9,-234.04 1026.51,-222.64 1036.5,-206 1049.66,-184.1 1027.47,-141.42 1016.5,-132 987.36,-106.97 882.8,-92.89 818.5,-86.43"/>
<polygon fill="#63b8ff" stroke="#63b8ff" points="819.17,-82.98 808.88,-85.49 818.49,-89.94 819.17,-82.98"/>
</g>
<!-- Node18 -->
<g id="node18" class="node">
<title>Node18</title>
<g id="a_node18"><a xlink:href="JKRDvdRipper_8h.html" target="_top" xlink:title=" ">
<polygon fill="white" stroke="#666666" points="1028,-206 863,-206 863,-187 1028,-187 1028,-206"/>
<text text-anchor="middle" x="945.5" y="-194" font-family="Helvetica,sans-Serif" font-size="10.00">JSystem/JKernel/JKRDvdRipper.h</text>
</a>
</g>
</g>
<!-- Node17&#45;&gt;Node18 -->
<g id="edge31" class="edge">
<title>Node17&#45;&gt;Node18</title>
<path fill="none" stroke="#63b8ff" d="M943.24,-241.54C943.62,-234.26 944.07,-225.31 944.48,-217.39"/>
<polygon fill="#63b8ff" stroke="#63b8ff" points="947.96,-217.85 944.98,-207.69 940.97,-217.49 947.96,-217.85"/>
</g>
<!-- Node18&#45;&gt;Node4 -->
<g id="edge33" class="edge">
<title>Node18&#45;&gt;Node4</title>
<path fill="none" stroke="#63b8ff" d="M962.71,-186.58C983.98,-174.39 1015.51,-151.81 999.5,-132 977.21,-104.42 880.27,-91.35 818.66,-85.73"/>
<polygon fill="#63b8ff" stroke="#63b8ff" points="819,-82.25 808.73,-84.87 818.39,-89.22 819,-82.25"/>
</g>
<!-- Node19 -->
<g id="node19" class="node">
<title>Node19</title>
<g id="a_node19"><a xlink:href="JKRCompression_8h.html" target="_top" xlink:title=" ">
<polygon fill="white" stroke="#666666" points="991,-151 814,-151 814,-132 991,-132 991,-151"/>
<text text-anchor="middle" x="902.5" y="-139" font-family="Helvetica,sans-Serif" font-size="10.00">JSystem/JKernel/JKRCompression.h</text>
</a>
</g>
</g>
<!-- Node18&#45;&gt;Node19 -->
<g id="edge32" class="edge">
<title>Node18&#45;&gt;Node19</title>
<path fill="none" stroke="#63b8ff" d="M938.4,-186.75C932.58,-179.58 924.17,-169.2 916.94,-160.3"/>
<polygon fill="#63b8ff" stroke="#63b8ff" points="919.73,-158.18 910.71,-152.62 914.29,-162.59 919.73,-158.18"/>
</g>
<!-- Node21 -->
<g id="node21" class="node">
<title>Node21</title>
<g id="a_node21"><a xlink:href="extras_8h.html" target="_top" xlink:title=" ">
<polygon fill="white" stroke="#666666" points="1104.5,-96 968.5,-96 968.5,-66 1104.5,-66 1104.5,-96"/>
<text text-anchor="start" x="976.5" y="-84" font-family="Helvetica,sans-Serif" font-size="10.00">MSL_C/MSL_Common/Src</text>
<text text-anchor="middle" x="1036.5" y="-73" font-family="Helvetica,sans-Serif" font-size="10.00">/extras.h</text>
</a>
</g>
</g>
<!-- Node20&#45;&gt;Node21 -->
<g id="edge37" class="edge">
<title>Node20&#45;&gt;Node21</title>
<path fill="none" stroke="#63b8ff" d="M1232.16,-131.55C1198.29,-122.97 1146.25,-109.79 1104.36,-99.18"/>
<polygon fill="#63b8ff" stroke="#63b8ff" points="1105.41,-95.84 1094.86,-96.78 1103.69,-102.63 1105.41,-95.84"/>
</g>
<!-- Node22 -->
<g id="node22" class="node">
<title>Node22</title>
<g id="a_node22"><a xlink:href="mem_8h.html" target="_top" xlink:title=" ">
<polygon fill="white" stroke="#666666" points="1412.5,-96 1276.5,-96 1276.5,-66 1412.5,-66 1412.5,-96"/>
<text text-anchor="start" x="1284.5" y="-84" font-family="Helvetica,sans-Serif" font-size="10.00">MSL_C/MSL_Common/Src</text>
<text text-anchor="middle" x="1344.5" y="-73" font-family="Helvetica,sans-Serif" font-size="10.00">/mem.h</text>
</a>
</g>
</g>
<!-- Node20&#45;&gt;Node22 -->
<g id="edge38" class="edge">
<title>Node20&#45;&gt;Node22</title>
<path fill="none" stroke="#63b8ff" d="M1279.19,-131.62C1289.08,-124.1 1303.65,-113.04 1316.51,-103.26"/>
<polygon fill="#63b8ff" stroke="#63b8ff" points="1318.44,-106.19 1324.29,-97.36 1314.21,-100.62 1318.44,-106.19"/>
</g>
<!-- Node23 -->
<g id="node23" class="node">
<title>Node23</title>
<g id="a_node23"><a xlink:href="MSL__Common_2Src_2string_8h.html" target="_top" xlink:title=" ">
<polygon fill="white" stroke="#666666" points="1258.5,-96 1122.5,-96 1122.5,-66 1258.5,-66 1258.5,-96"/>
<text text-anchor="start" x="1130.5" y="-84" font-family="Helvetica,sans-Serif" font-size="10.00">MSL_C/MSL_Common/Src</text>
<text text-anchor="middle" x="1190.5" y="-73" font-family="Helvetica,sans-Serif" font-size="10.00">/string.h</text>
</a>
</g>
</g>
<!-- Node20&#45;&gt;Node23 -->
<g id="edge40" class="edge">
<title>Node20&#45;&gt;Node23</title>
<path fill="none" stroke="#63b8ff" d="M1255.81,-131.62C1245.92,-124.1 1231.35,-113.04 1218.49,-103.26"/>
<polygon fill="#63b8ff" stroke="#63b8ff" points="1220.79,-100.62 1210.71,-97.36 1216.56,-106.19 1220.79,-100.62"/>
</g>
<!-- Node22&#45;&gt;Node5 -->
<g id="edge39" class="edge">
<title>Node22&#45;&gt;Node5</title>
<path fill="none" stroke="#63b8ff" d="M1309.94,-65.64C1288.02,-56.53 1259.43,-44.65 1235.72,-34.79"/>
<polygon fill="#63b8ff" stroke="#63b8ff" points="1237.19,-31.61 1226.61,-31.01 1234.5,-38.08 1237.19,-31.61"/>
</g>
<!-- Node23&#45;&gt;Node5 -->
<g id="edge41" class="edge">
<title>Node23&#45;&gt;Node5</title>
<path fill="none" stroke="#63b8ff" d="M1190.5,-65.8C1190.5,-58.67 1190.5,-49.82 1190.5,-41.56"/>
<polygon fill="#63b8ff" stroke="#63b8ff" points="1194,-41.68 1190.5,-31.68 1187,-41.68 1194,-41.68"/>
</g>
<!-- Node24&#45;&gt;Node4 -->
<g id="edge43" class="edge">
<title>Node24&#45;&gt;Node4</title>
<path fill="none" stroke="#63b8ff" d="M1134.5,-373.75C1134.5,-353.42 1134.5,-301.45 1134.5,-258 1134.5,-258 1134.5,-258 1134.5,-195.5 1134.5,-154.79 1104.88,-150.26 1068.5,-132 987.79,-91.5 881.17,-82.73 818.59,-81.42"/>
<polygon fill="#63b8ff" stroke="#63b8ff" points="819,-77.93 808.95,-81.28 818.9,-84.93 819,-77.93"/>
</g>
<!-- Node25&#45;&gt;Node4 -->
<g id="edge45" class="edge">
<title>Node25&#45;&gt;Node4</title>
<path fill="none" stroke="#63b8ff" d="M1219.33,-373.67C1210.25,-353.59 1189.5,-302.81 1189.5,-258 1189.5,-258 1189.5,-258 1189.5,-195.5 1189.5,-119.59 932.14,-93.04 818.91,-85.04"/>
<polygon fill="#63b8ff" stroke="#63b8ff" points="819.17,-81.55 808.95,-84.36 818.69,-88.53 819.17,-81.55"/>
</g>
</g>
</svg>
        <g id="navigator" transform="translate(0 0)" fill="#404254">
                <rect fill="#f2f5e9" fill-opacity="0.5" stroke="#606060" stroke-width=".5" x="0" y="0" width="60" height="60"/>
                <use id="zoomplus" xlink:href="#zoomPlus" x="17" y="9" onmousedown="handleZoom(evt,'in')"/>
                <use id="zoomminus" xlink:href="#zoomMin" x="42" y="9" onmousedown="handleZoom(evt,'out')"/>
                <use id="reset" xlink:href="#resetDef" x="30" y="36" onmousedown="handleReset()"/>
                <g id="arrowUp" xlink:href="#dirArrow" transform="translate(30 24)" onmousedown="handlePan(0,-1)">
                  <use xlink:href="#rim" fill="#404040">
                        <set attributeName="fill" to="#808080" begin="arrowUp.mouseover" end="arrowUp.mouseout"/>
                  </use>
                  <path fill="none" stroke="white" stroke-width="1.5" d="M0,-3.0v7 M-2.5,-0.5L0,-3.0L2.5,-0.5"/>
                </g>
                <g id="arrowRight" xlink:href="#dirArrow" transform="rotate(90) translate(36 -43)" onmousedown="handlePan(1,0)">
                  <use xlink:href="#rim" fill="#404040">
                        <set attributeName="fill" to="#808080" begin="arrowRight.mouseover" end="arrowRight.mouseout"/>
                  </use>
                  <path fill="none" stroke="white" stroke-width="1.5" d="M0,-3.0v7 M-2.5,-0.5L0,-3.0L2.5,-0.5"/>
                </g>
                <g id="arrowDown" xlink:href="#dirArrow" transform="rotate(180) translate(-30 -48)" onmousedown="handlePan(0,1)">
                  <use xlink:href="#rim" fill="#404040">
                        <set attributeName="fill" to="#808080" begin="arrowDown.mouseover" end="arrowDown.mouseout"/>
                  </use>
                  <path fill="none" stroke="white" stroke-width="1.5" d="M0,-3.0v7 M-2.5,-0.5L0,-3.0L2.5,-0.5"/>
                </g>
                <g id="arrowLeft" xlink:href="#dirArrow" transform="rotate(270) translate(-36 17)" onmousedown="handlePan(-1,0)">
                  <use xlink:href="#rim" fill="#404040">
                        <set attributeName="fill" to="#808080" begin="arrowLeft.mouseover" end="arrowLeft.mouseout"/>
                  </use>
                  <path fill="none" stroke="white" stroke-width="1.5" d="M0,-3.0v7 M-2.5,-0.5L0,-3.0L2.5,-0.5"/>
                </g>
        </g>
        <svg viewBox="0 0 15 15" width="100%" height="30px" preserveAspectRatio="xMaxYMin meet">
         <g id="arrow_out" transform="scale(0.3 0.3)">
          <a xlink:href="JASWaveArcLoader_8cpp__incl_org.svg" target="_base">
           <rect id="button" ry="5" rx="5" y="6" x="6" height="38" width="38"
                fill="#f2f5e9" fill-opacity="0.5" stroke="#606060" stroke-width="1.0"/>
           <path id="arrow"
             d="M 11.500037,31.436501 C 11.940474,20.09759 22.043105,11.32322 32.158766,21.979434 L 37.068811,17.246167 C 37.068811,17.246167 37.088388,32 37.088388,32 L 22.160133,31.978069 C 22.160133,31.978069 26.997745,27.140456 26.997745,27.140456 C 18.528582,18.264221 13.291696,25.230495 11.500037,31.436501 z"
             style="fill:#404040;"/>
          </a>
         </g>
        </svg>
</svg>
