<?xml version="1.0" encoding="UTF-8" standalone="no"?>
<!DOCTYPE svg PUBLIC "-//W3C//DTD SVG 1.1//EN"
 "http://www.w3.org/Graphics/SVG/1.1/DTD/svg11.dtd">
<!-- Generated by graphviz version 7.0.5 (20221223.1930)
 -->
<!-- Title: include/JSystem/JKernel/JKRAramBlock.h Pages: 1 -->
<svg width="1511pt" height="236pt"
 viewBox="0.00 0.00 1511.00 236.00" xmlns="http://www.w3.org/2000/svg" xmlns:xlink="http://www.w3.org/1999/xlink">
<g id="graph0" class="graph" transform="scale(1 1) rotate(0) translate(4 232)">
<title>include/JSystem/JKernel/JKRAramBlock.h</title>
<!-- Node1 -->
<g id="node1" class="node">
<title>Node1</title>
<g id="a_node1"><a xlink:title=" ">
<polygon fill="#999999" stroke="#666666" points="795,-228 670,-228 670,-198 795,-198 795,-228"/>
<text text-anchor="start" x="678" y="-216" font-family="Helvetica,sans-Serif" font-size="10.00">include/JSystem/JKernel</text>
<text text-anchor="middle" x="732.5" y="-205" font-family="Helvetica,sans-Serif" font-size="10.00">/JKRAramBlock.h</text>
</a>
</g>
</g>
<!-- Node2 -->
<g id="node2" class="node">
<title>Node2</title>
<g id="a_node2"><a xlink:href="JKRAramArchive_8h.html" target="_top" xlink:title=" ">
<polygon fill="white" stroke="#666666" points="1279,-162 1154,-162 1154,-132 1279,-132 1279,-162"/>
<text text-anchor="start" x="1162" y="-150" font-family="Helvetica,sans-Serif" font-size="10.00">include/JSystem/JKernel</text>
<text text-anchor="middle" x="1216.5" y="-139" font-family="Helvetica,sans-Serif" font-size="10.00">/JKRAramArchive.h</text>
</a>
</g>
</g>
<!-- Node1&#45;&gt;Node2 -->
<g id="edge1" class="edge">
<title>Node1&#45;&gt;Node2</title>
<path fill="none" stroke="#63b8ff" d="M806.52,-202.21C901.51,-189.65 1064.67,-168.08 1153.83,-156.29"/>
<polygon fill="#63b8ff" stroke="#63b8ff" points="806.23,-198.72 796.78,-203.5 807.15,-205.66 806.23,-198.72"/>
</g>
<!-- Node6 -->
<g id="node6" class="node">
<title>Node6</title>
<g id="a_node6"><a xlink:href="JKRAramHeap_8h.html" target="_top" xlink:title=" ">
<polygon fill="white" stroke="#666666" points="728,-162 603,-162 603,-132 728,-132 728,-162"/>
<text text-anchor="start" x="611" y="-150" font-family="Helvetica,sans-Serif" font-size="10.00">include/JSystem/JKernel</text>
<text text-anchor="middle" x="665.5" y="-139" font-family="Helvetica,sans-Serif" font-size="10.00">/JKRAramHeap.h</text>
</a>
</g>
</g>
<!-- Node1&#45;&gt;Node6 -->
<g id="edge5" class="edge">
<title>Node1&#45;&gt;Node6</title>
<path fill="none" stroke="#63b8ff" d="M709.56,-190.09C699.89,-180.85 688.91,-170.36 680.33,-162.16"/>
<polygon fill="#63b8ff" stroke="#63b8ff" points="706.89,-192.37 716.54,-196.75 711.72,-187.31 706.89,-192.37"/>
</g>
<!-- Node9 -->
<g id="node9" class="node">
<title>Node9</title>
<g id="a_node9"><a xlink:href="JKRAram_8cpp.html" target="_top" xlink:title=" ">
<polygon fill="white" stroke="#666666" points="109,-30 0,-30 0,0 109,0 109,-30"/>
<text text-anchor="start" x="8" y="-18" font-family="Helvetica,sans-Serif" font-size="10.00">libs/JSystem/JKernel</text>
<text text-anchor="middle" x="54.5" y="-7" font-family="Helvetica,sans-Serif" font-size="10.00">/JKRAram.cpp</text>
</a>
</g>
</g>
<!-- Node1&#45;&gt;Node9 -->
<g id="edge21" class="edge">
<title>Node1&#45;&gt;Node9</title>
<path fill="none" stroke="#63b8ff" d="M662.51,-194.82C575.9,-173.25 424.13,-134.38 295.5,-96 224.53,-74.82 142.92,-46.99 95.2,-30.35"/>
<polygon fill="#63b8ff" stroke="#63b8ff" points="661.5,-198.18 672.04,-197.19 663.18,-191.38 661.5,-198.18"/>
</g>
<!-- Node18 -->
<g id="node18" class="node">
<title>Node18</title>
<g id="a_node18"><a xlink:href="JKRAramBlock_8cpp.html" target="_top" xlink:title=" ">
<polygon fill="white" stroke="#666666" points="855,-96 746,-96 746,-66 855,-66 855,-96"/>
<text text-anchor="start" x="754" y="-84" font-family="Helvetica,sans-Serif" font-size="10.00">libs/JSystem/JKernel</text>
<text text-anchor="middle" x="800.5" y="-73" font-family="Helvetica,sans-Serif" font-size="10.00">/JKRAramBlock.cpp</text>
</a>
</g>
</g>
<!-- Node1&#45;&gt;Node18 -->
<g id="edge22" class="edge">
<title>Node1&#45;&gt;Node18</title>
<path fill="none" stroke="#63b8ff" d="M745.34,-187.46C759.38,-160.61 781.42,-118.48 792.93,-96.47"/>
<polygon fill="#63b8ff" stroke="#63b8ff" points="742.27,-185.77 740.74,-196.25 748.47,-189.01 742.27,-185.77"/>
</g>
<!-- Node3 -->
<g id="node3" class="node">
<title>Node3</title>
<g id="a_node3"><a xlink:href="JKRAramArchive_8cpp.html" target="_top" xlink:title=" ">
<polygon fill="white" stroke="#666666" points="1503,-30 1390,-30 1390,0 1503,0 1503,-30"/>
<text text-anchor="start" x="1398" y="-18" font-family="Helvetica,sans-Serif" font-size="10.00">libs/JSystem/JKernel</text>
<text text-anchor="middle" x="1446.5" y="-7" font-family="Helvetica,sans-Serif" font-size="10.00">/JKRAramArchive.cpp</text>
</a>
</g>
</g>
<!-- Node2&#45;&gt;Node3 -->
<g id="edge2" class="edge">
<title>Node2&#45;&gt;Node3</title>
<path fill="none" stroke="#63b8ff" d="M1228.5,-121.6C1238.48,-103.73 1254.31,-80.21 1274.5,-66 1293.19,-52.85 1347.13,-38.31 1389.67,-28.32"/>
<polygon fill="#63b8ff" stroke="#63b8ff" points="1225.5,-119.8 1223.89,-130.27 1231.68,-123.09 1225.5,-119.8"/>
</g>
<!-- Node4 -->
<g id="node4" class="node">
<title>Node4</title>
<g id="a_node4"><a xlink:href="JKRArchivePub_8cpp.html" target="_top" xlink:title=" ">
<polygon fill="white" stroke="#666666" points="1392,-96 1283,-96 1283,-66 1392,-66 1392,-96"/>
<text text-anchor="start" x="1291" y="-84" font-family="Helvetica,sans-Serif" font-size="10.00">libs/JSystem/JKernel</text>
<text text-anchor="middle" x="1337.5" y="-73" font-family="Helvetica,sans-Serif" font-size="10.00">/JKRArchivePub.cpp</text>
</a>
</g>
</g>
<!-- Node2&#45;&gt;Node4 -->
<g id="edge3" class="edge">
<title>Node2&#45;&gt;Node4</title>
<path fill="none" stroke="#63b8ff" d="M1253.71,-126.32C1272.03,-116.63 1293.72,-105.16 1310.44,-96.31"/>
<polygon fill="#63b8ff" stroke="#63b8ff" points="1252.2,-123.16 1244.99,-130.93 1255.47,-129.35 1252.2,-123.16"/>
</g>
<!-- Node5 -->
<g id="node5" class="node">
<title>Node5</title>
<g id="a_node5"><a xlink:href="d__stage_8cpp.html" target="_top" xlink:title=" ">
<polygon fill="white" stroke="#666666" points="1226.5,-90.5 1132.5,-90.5 1132.5,-71.5 1226.5,-71.5 1226.5,-90.5"/>
<text text-anchor="middle" x="1179.5" y="-78.5" font-family="Helvetica,sans-Serif" font-size="10.00">src/d/d_stage.cpp</text>
</a>
</g>
</g>
<!-- Node2&#45;&gt;Node5 -->
<g id="edge4" class="edge">
<title>Node2&#45;&gt;Node5</title>
<path fill="none" stroke="#63b8ff" d="M1202.59,-121.94C1196.3,-111.06 1189.25,-98.86 1184.61,-90.84"/>
<polygon fill="#63b8ff" stroke="#63b8ff" points="1199.5,-123.58 1207.53,-130.49 1205.56,-120.08 1199.5,-123.58"/>
</g>
<!-- Node7 -->
<g id="node7" class="node">
<title>Node7</title>
<g id="a_node7"><a xlink:href="JKRAram_8h.html" target="_top" xlink:title=" ">
<polygon fill="white" stroke="#666666" points="728,-96 603,-96 603,-66 728,-66 728,-96"/>
<text text-anchor="start" x="611" y="-84" font-family="Helvetica,sans-Serif" font-size="10.00">include/JSystem/JKernel</text>
<text text-anchor="middle" x="665.5" y="-73" font-family="Helvetica,sans-Serif" font-size="10.00">/JKRAram.h</text>
</a>
</g>
</g>
<!-- Node6&#45;&gt;Node7 -->
<g id="edge6" class="edge">
<title>Node6&#45;&gt;Node7</title>
<path fill="none" stroke="#63b8ff" d="M665.5,-120.39C665.5,-112.13 665.5,-103.28 665.5,-96.16"/>
<polygon fill="#63b8ff" stroke="#63b8ff" points="662,-120.28 665.5,-130.28 669,-120.28 662,-120.28"/>
</g>
<!-- Node6&#45;&gt;Node9 -->
<g id="edge18" class="edge">
<title>Node6&#45;&gt;Node9</title>
<path fill="none" stroke="#63b8ff" d="M591.6,-130.48C486.46,-108.37 287.66,-66.44 118.5,-30 115.5,-29.35 112.42,-28.69 109.31,-28.01"/>
<polygon fill="#63b8ff" stroke="#63b8ff" points="590.73,-133.88 601.23,-132.51 592.17,-127.03 590.73,-133.88"/>
</g>
<!-- Node6&#45;&gt;Node18 -->
<g id="edge19" class="edge">
<title>Node6&#45;&gt;Node18</title>
<path fill="none" stroke="#63b8ff" d="M706.16,-126.72C726.78,-116.95 751.39,-105.28 770.3,-96.31"/>
<polygon fill="#63b8ff" stroke="#63b8ff" points="704.7,-123.54 697.16,-130.99 707.7,-129.87 704.7,-123.54"/>
</g>
<!-- Node19 -->
<g id="node19" class="node">
<title>Node19</title>
<g id="a_node19"><a xlink:href="JKRAramHeap_8cpp.html" target="_top" xlink:title=" ">
<polygon fill="white" stroke="#666666" points="585,-96 476,-96 476,-66 585,-66 585,-96"/>
<text text-anchor="start" x="484" y="-84" font-family="Helvetica,sans-Serif" font-size="10.00">libs/JSystem/JKernel</text>
<text text-anchor="middle" x="530.5" y="-73" font-family="Helvetica,sans-Serif" font-size="10.00">/JKRAramHeap.cpp</text>
</a>
</g>
</g>
<!-- Node6&#45;&gt;Node19 -->
<g id="edge20" class="edge">
<title>Node6&#45;&gt;Node19</title>
<path fill="none" stroke="#63b8ff" d="M624.84,-126.72C604.22,-116.95 579.61,-105.28 560.7,-96.31"/>
<polygon fill="#63b8ff" stroke="#63b8ff" points="623.3,-129.87 633.84,-130.99 626.3,-123.54 623.3,-129.87"/>
</g>
<!-- Node7&#45;&gt;Node3 -->
<g id="edge9" class="edge">
<title>Node7&#45;&gt;Node3</title>
<path fill="none" stroke="#63b8ff" d="M739.33,-65.91C1023.92,-31.51 1101.01,-67.81 1381.5,-30 1384.13,-29.65 1386.81,-29.24 1389.52,-28.8"/>
<polygon fill="#63b8ff" stroke="#63b8ff" points="739.25,-62.4 729.75,-67.09 740.1,-69.35 739.25,-62.4"/>
</g>
<!-- Node8 -->
<g id="node8" class="node">
<title>Node8</title>
<g id="a_node8"><a xlink:href="JFWSystem_8cpp.html" target="_top" xlink:title=" ">
<polygon fill="white" stroke="#666666" points="257.5,-30 127.5,-30 127.5,0 257.5,0 257.5,-30"/>
<text text-anchor="start" x="135.5" y="-18" font-family="Helvetica,sans-Serif" font-size="10.00">libs/JSystem/JFramework</text>
<text text-anchor="middle" x="192.5" y="-7" font-family="Helvetica,sans-Serif" font-size="10.00">/JFWSystem.cpp</text>
</a>
</g>
</g>
<!-- Node7&#45;&gt;Node8 -->
<g id="edge7" class="edge">
<title>Node7&#45;&gt;Node8</title>
<path fill="none" stroke="#63b8ff" d="M591.67,-65.81C447.04,-44.38 407.58,-51.08 266.5,-30 263.66,-29.57 260.75,-29.12 257.82,-28.64"/>
<polygon fill="#63b8ff" stroke="#63b8ff" points="590.82,-69.23 601.23,-67.25 591.86,-62.3 590.82,-69.23"/>
</g>
<!-- Node7&#45;&gt;Node9 -->
<g id="edge8" class="edge">
<title>Node7&#45;&gt;Node9</title>
<path fill="none" stroke="#63b8ff" d="M591.34,-65.84C381.67,-38.54 324.3,-60.16 118.5,-30 115.46,-29.55 112.35,-29.05 109.22,-28.5"/>
<polygon fill="#63b8ff" stroke="#63b8ff" points="590.87,-69.31 601.24,-67.15 591.79,-62.37 590.87,-69.31"/>
</g>
<!-- Node10 -->
<g id="node10" class="node">
<title>Node10</title>
<g id="a_node10"><a xlink:href="JKRAramPiece_8cpp.html" target="_top" xlink:title=" ">
<polygon fill="white" stroke="#666666" points="385,-30 276,-30 276,0 385,0 385,-30"/>
<text text-anchor="start" x="284" y="-18" font-family="Helvetica,sans-Serif" font-size="10.00">libs/JSystem/JKernel</text>
<text text-anchor="middle" x="330.5" y="-7" font-family="Helvetica,sans-Serif" font-size="10.00">/JKRAramPiece.cpp</text>
</a>
</g>
</g>
<!-- Node7&#45;&gt;Node10 -->
<g id="edge10" class="edge">
<title>Node7&#45;&gt;Node10</title>
<path fill="none" stroke="#63b8ff" d="M591.54,-65.66C502.85,-49.23 478.59,-47.1 393.5,-30 390.86,-29.47 388.17,-28.92 385.45,-28.35"/>
<polygon fill="#63b8ff" stroke="#63b8ff" points="590.72,-69.06 601.19,-67.45 592,-62.18 590.72,-69.06"/>
</g>
<!-- Node11 -->
<g id="node11" class="node">
<title>Node11</title>
<g id="a_node11"><a xlink:href="JKRCompArchive_8cpp.html" target="_top" xlink:title=" ">
<polygon fill="white" stroke="#666666" points="518,-30 403,-30 403,0 518,0 518,-30"/>
<text text-anchor="start" x="411" y="-18" font-family="Helvetica,sans-Serif" font-size="10.00">libs/JSystem/JKernel</text>
<text text-anchor="middle" x="460.5" y="-7" font-family="Helvetica,sans-Serif" font-size="10.00">/JKRCompArchive.cpp</text>
</a>
</g>
</g>
<!-- Node7&#45;&gt;Node11 -->
<g id="edge11" class="edge">
<title>Node7&#45;&gt;Node11</title>
<path fill="none" stroke="#63b8ff" d="M608.65,-62.25C576.49,-52.21 536.8,-39.82 506.59,-30.39"/>
<polygon fill="#63b8ff" stroke="#63b8ff" points="607.2,-65.47 617.79,-65.11 609.29,-58.79 607.2,-65.47"/>
</g>
<!-- Node12 -->
<g id="node12" class="node">
<title>Node12</title>
<g id="a_node12"><a xlink:href="JKRDvdAramRipper_8cpp.html" target="_top" xlink:title=" ">
<polygon fill="white" stroke="#666666" points="661,-30 536,-30 536,0 661,0 661,-30"/>
<text text-anchor="start" x="544" y="-18" font-family="Helvetica,sans-Serif" font-size="10.00">libs/JSystem/JKernel</text>
<text text-anchor="middle" x="598.5" y="-7" font-family="Helvetica,sans-Serif" font-size="10.00">/JKRDvdAramRipper.cpp</text>
</a>
</g>
</g>
<!-- Node7&#45;&gt;Node12 -->
<g id="edge12" class="edge">
<title>Node7&#45;&gt;Node12</title>
<path fill="none" stroke="#63b8ff" d="M642.56,-58.09C632.89,-48.85 621.91,-38.36 613.33,-30.16"/>
<polygon fill="#63b8ff" stroke="#63b8ff" points="639.89,-60.37 649.54,-64.75 644.72,-55.31 639.89,-60.37"/>
</g>
<!-- Node13 -->
<g id="node13" class="node">
<title>Node13</title>
<g id="a_node13"><a xlink:href="JUTCacheFont_8cpp.html" target="_top" xlink:title=" ">
<polygon fill="white" stroke="#666666" points="785.5,-30 679.5,-30 679.5,0 785.5,0 785.5,-30"/>
<text text-anchor="start" x="687.5" y="-18" font-family="Helvetica,sans-Serif" font-size="10.00">libs/JSystem/JUtility</text>
<text text-anchor="middle" x="732.5" y="-7" font-family="Helvetica,sans-Serif" font-size="10.00">/JUTCacheFont.cpp</text>
</a>
</g>
</g>
<!-- Node7&#45;&gt;Node13 -->
<g id="edge13" class="edge">
<title>Node7&#45;&gt;Node13</title>
<path fill="none" stroke="#63b8ff" d="M688.44,-58.09C698.11,-48.85 709.09,-38.36 717.67,-30.16"/>
<polygon fill="#63b8ff" stroke="#63b8ff" points="686.28,-55.31 681.46,-64.75 691.11,-60.37 686.28,-55.31"/>
</g>
<!-- Node14 -->
<g id="node14" class="node">
<title>Node14</title>
<g id="a_node14"><a xlink:href="d__s__logo_8cpp.html" target="_top" xlink:title=" ">
<polygon fill="white" stroke="#666666" points="911,-24.5 804,-24.5 804,-5.5 911,-5.5 911,-24.5"/>
<text text-anchor="middle" x="857.5" y="-12.5" font-family="Helvetica,sans-Serif" font-size="10.00">src/d/s/d_s_logo.cpp</text>
</a>
</g>
</g>
<!-- Node7&#45;&gt;Node14 -->
<g id="edge14" class="edge">
<title>Node7&#45;&gt;Node14</title>
<path fill="none" stroke="#63b8ff" d="M719.48,-62.01C755.7,-49.93 801.85,-34.55 830.54,-24.99"/>
<polygon fill="#63b8ff" stroke="#63b8ff" points="718.4,-58.68 710.02,-65.16 720.62,-65.32 718.4,-58.68"/>
</g>
<!-- Node15 -->
<g id="node15" class="node">
<title>Node15</title>
<g id="a_node15"><a xlink:href="m__Do__machine_8cpp.html" target="_top" xlink:title=" ">
<polygon fill="white" stroke="#666666" points="1076,-24.5 929,-24.5 929,-5.5 1076,-5.5 1076,-24.5"/>
<text text-anchor="middle" x="1002.5" y="-12.5" font-family="Helvetica,sans-Serif" font-size="10.00">src/m_Do/m_Do_machine.cpp</text>
</a>
</g>
</g>
<!-- Node7&#45;&gt;Node15 -->
<g id="edge15" class="edge">
<title>Node7&#45;&gt;Node15</title>
<path fill="none" stroke="#63b8ff" d="M739.3,-65.66C820.88,-50.05 903.81,-34.47 954.61,-24.95"/>
<polygon fill="#63b8ff" stroke="#63b8ff" points="738.97,-62.16 729.81,-67.48 740.29,-69.04 738.97,-62.16"/>
</g>
<!-- Node16 -->
<g id="node16" class="node">
<title>Node16</title>
<g id="a_node16"><a xlink:href="m__Do__machine__exception_8cpp.html" target="_top" xlink:title=" ">
<polygon fill="white" stroke="#666666" points="1223,-30 1094,-30 1094,0 1223,0 1223,-30"/>
<text text-anchor="start" x="1102" y="-18" font-family="Helvetica,sans-Serif" font-size="10.00">src/m_Do/m_Do_machine</text>
<text text-anchor="middle" x="1158.5" y="-7" font-family="Helvetica,sans-Serif" font-size="10.00">_exception.cpp</text>
</a>
</g>
</g>
<!-- Node7&#45;&gt;Node16 -->
<g id="edge16" class="edge">
<title>Node7&#45;&gt;Node16</title>
<path fill="none" stroke="#63b8ff" d="M739.54,-65.8C893.26,-43.57 935.27,-52.13 1085.5,-30 1088.18,-29.6 1090.91,-29.18 1093.67,-28.73"/>
<polygon fill="#63b8ff" stroke="#63b8ff" points="739.15,-62.32 729.77,-67.23 740.17,-69.24 739.15,-62.32"/>
</g>
<!-- Node17 -->
<g id="node17" class="node">
<title>Node17</title>
<g id="a_node17"><a xlink:href="m__Do__main_8cpp.html" target="_top" xlink:title=" ">
<polygon fill="white" stroke="#666666" points="1372,-24.5 1241,-24.5 1241,-5.5 1372,-5.5 1372,-24.5"/>
<text text-anchor="middle" x="1306.5" y="-12.5" font-family="Helvetica,sans-Serif" font-size="10.00">src/m_Do/m_Do_main.cpp</text>
</a>
</g>
</g>
<!-- Node7&#45;&gt;Node17 -->
<g id="edge17" class="edge">
<title>Node7&#45;&gt;Node17</title>
<path fill="none" stroke="#63b8ff" d="M739.47,-65.87C958.11,-37.6 1017.41,-58.07 1232.5,-30 1242.61,-28.68 1253.43,-26.86 1263.59,-24.98"/>
<polygon fill="#63b8ff" stroke="#63b8ff" points="739.22,-62.37 729.76,-67.14 740.13,-69.31 739.22,-62.37"/>
</g>
</g>
</svg>
