<?xml version="1.0" encoding="UTF-8" standalone="no"?>
<!DOCTYPE svg PUBLIC "-//W3C//DTD SVG 1.1//EN"
 "http://www.w3.org/Graphics/SVG/1.1/DTD/svg11.dtd">
<!-- Generated by graphviz version 9.0.0 (20230911.1827)
 -->
<!-- Title: include/JSystem/JKernel/JKRAramPiece.h Pages: 1 -->
<svg width="460pt" height="315pt"
 viewBox="0.00 0.00 460.00 314.75" xmlns="http://www.w3.org/2000/svg" xmlns:xlink="http://www.w3.org/1999/xlink">

<svg id="main" version="1.1" xmlns="http://www.w3.org/2000/svg" xmlns:xlink="http://www.w3.org/1999/xlink" xml:space="preserve" onload="init(evt)">
<style type="text/css"><![CDATA[
.node, .edge {opacity: 0.7;}
.node.selected, .edge.selected {opacity: 1;}
.edge:hover path { stroke: red; }
.edge:hover polygon { stroke: red; fill: red; }
]]></style>
<script type="application/ecmascript" xlink:href="svg.min.js"/>
<svg id="graph" class="graph">
<g id="graph0" class="graph" transform="scale(1 1) rotate(0) translate(4 310.75)">
<title>include/JSystem/JKernel/JKRAramPiece.h</title>
<!-- Node1 -->
<g id="Node000001" class="node">
<title>Node1</title>
<g id="a_Node000001"><a xlink:title=" ">
<polygon fill="#999999" stroke="#666666" points="277.38,-306.75 153.38,-306.75 153.38,-276.25 277.38,-276.25 277.38,-306.75"/>
<text text-anchor="start" x="161.38" y="-293.25" font-family="Helvetica,sans-Serif" font-size="10.00">include/JSystem/JKernel</text>
<text text-anchor="middle" x="215.38" y="-282" font-family="Helvetica,sans-Serif" font-size="10.00">/JKRAramPiece.h</text>
</a>
</g>
</g>
<!-- Node2 -->
<g id="Node000002" class="node">
<title>Node2</title>
<g id="a_Node000002"><a xlink:href="JSUList_8h.html" target="_top" xlink:title=" ">
<polygon fill="white" stroke="#666666" points="142.75,-185 0,-185 0,-165.75 142.75,-165.75 142.75,-185"/>
<text text-anchor="middle" x="71.38" y="-171.5" font-family="Helvetica,sans-Serif" font-size="10.00">JSystem/JSupport/JSUList.h</text>
</a>
</g>
</g>
<!-- Node1&#45;&gt;Node2 -->
<g id="edge1_Node000001_Node000002" class="edge">
<title>Node1&#45;&gt;Node2</title>
<g id="a_edge1_Node000001_Node000002"><a xlink:title=" ">
<path fill="none" stroke="#63b8ff" d="M196.84,-275.81C169.8,-254.38 119.7,-214.67 91.68,-192.47"/>
<polygon fill="#63b8ff" stroke="#63b8ff" points="93.97,-189.81 83.96,-186.35 89.62,-195.3 93.97,-189.81"/>
</a>
</g>
</g>
<!-- Node5 -->
<g id="Node000005" class="node">
<title>Node5</title>
<g id="a_Node000005"><a xlink:href="arq_8h.html" target="_top" xlink:title=" ">
<polygon fill="white" stroke="#666666" points="194.75,-129.75 124,-129.75 124,-110.5 194.75,-110.5 194.75,-129.75"/>
<text text-anchor="middle" x="159.38" y="-116.25" font-family="Helvetica,sans-Serif" font-size="10.00">dolphin/arq.h</text>
</a>
</g>
</g>
<!-- Node1&#45;&gt;Node5 -->
<g id="edge4_Node000001_Node000005" class="edge">
<title>Node1&#45;&gt;Node5</title>
<g id="a_edge4_Node000001_Node000005"><a xlink:title=" ">
<path fill="none" stroke="#63b8ff" d="M206.71,-275.96C201.15,-266.14 194.11,-252.74 189.38,-240.25 176.57,-206.44 167.57,-165.17 162.95,-141.14"/>
<polygon fill="#63b8ff" stroke="#63b8ff" points="166.42,-140.69 161.16,-131.49 159.54,-141.96 166.42,-140.69"/>
</a>
</g>
</g>
<!-- Node6 -->
<g id="Node000006" class="node">
<title>Node6</title>
<g id="a_Node000006"><a xlink:href="OSMessage_8h.html" target="_top" xlink:title=" ">
<polygon fill="white" stroke="#666666" points="322.75,-240.25 198,-240.25 198,-221 322.75,-221 322.75,-240.25"/>
<text text-anchor="middle" x="260.38" y="-226.75" font-family="Helvetica,sans-Serif" font-size="10.00">dolphin/os/OSMessage.h</text>
</a>
</g>
</g>
<!-- Node1&#45;&gt;Node6 -->
<g id="edge6_Node000001_Node000006" class="edge">
<title>Node1&#45;&gt;Node6</title>
<g id="a_edge6_Node000001_Node000006"><a xlink:title=" ">
<path fill="none" stroke="#63b8ff" d="M226.5,-275.95C232.56,-268.02 240.12,-258.13 246.55,-249.71"/>
<polygon fill="#63b8ff" stroke="#63b8ff" points="249.23,-251.97 252.52,-241.9 243.67,-247.72 249.23,-251.97"/>
</a>
</g>
</g>
<!-- Node9 -->
<g id="Node000009" class="node">
<title>Node9</title>
<g id="a_Node000009"><a xlink:href="OSMutex_8h.html" target="_top" xlink:title=" ">
<polygon fill="white" stroke="#666666" points="452,-240.25 340.75,-240.25 340.75,-221 452,-221 452,-240.25"/>
<text text-anchor="middle" x="396.38" y="-226.75" font-family="Helvetica,sans-Serif" font-size="10.00">dolphin/os/OSMutex.h</text>
</a>
</g>
</g>
<!-- Node1&#45;&gt;Node9 -->
<g id="edge10_Node000001_Node000009" class="edge">
<title>Node1&#45;&gt;Node9</title>
<g id="a_edge10_Node000001_Node000009"><a xlink:title=" ">
<path fill="none" stroke="#63b8ff" d="M260.58,-275.8C290.44,-266.08 329.16,-253.49 357.61,-244.23"/>
<polygon fill="#63b8ff" stroke="#63b8ff" points="358.48,-247.63 366.91,-241.21 356.32,-240.97 358.48,-247.63"/>
</a>
</g>
</g>
<!-- Node3 -->
<g id="Node000003" class="node">
<title>Node3</title>
<g id="a_Node000003"><a xlink:href="types_8h.html" target="_top" xlink:title=" ">
<polygon fill="white" stroke="#666666" points="199.62,-74.5 119.12,-74.5 119.12,-55.25 199.62,-55.25 199.62,-74.5"/>
<text text-anchor="middle" x="159.38" y="-61" font-family="Helvetica,sans-Serif" font-size="10.00">dolphin/types.h</text>
</a>
</g>
</g>
<!-- Node2&#45;&gt;Node3 -->
<g id="edge2_Node000002_Node000003" class="edge">
<title>Node2&#45;&gt;Node3</title>
<g id="a_edge2_Node000002_Node000003"><a xlink:title=" ">
<path fill="none" stroke="#63b8ff" d="M76.89,-165.34C84.8,-152.64 100.1,-128.97 115.38,-110.5 123.32,-100.89 132.96,-90.95 141.2,-82.89"/>
<polygon fill="#63b8ff" stroke="#63b8ff" points="143.54,-85.49 148.34,-76.04 138.7,-80.44 143.54,-85.49"/>
</a>
</g>
</g>
<!-- Node4 -->
<g id="Node000004" class="node">
<title>Node4</title>
<g id="a_Node000004"><a xlink:href="stddef_8h.html" target="_top" xlink:title=" ">
<polygon fill="white" stroke="#666666" points="184.62,-19.25 134.12,-19.25 134.12,0 184.62,0 184.62,-19.25"/>
<text text-anchor="middle" x="159.38" y="-5.75" font-family="Helvetica,sans-Serif" font-size="10.00">stddef.h</text>
</a>
</g>
</g>
<!-- Node3&#45;&gt;Node4 -->
<g id="edge3_Node000003_Node000004" class="edge">
<title>Node3&#45;&gt;Node4</title>
<g id="a_edge3_Node000003_Node000004"><a xlink:title=" ">
<path fill="none" stroke="#63b8ff" d="M159.38,-55.08C159.38,-48.57 159.38,-39.42 159.38,-31.12"/>
<polygon fill="#63b8ff" stroke="#63b8ff" points="162.88,-31.12 159.38,-21.12 155.88,-31.12 162.88,-31.12"/>
</a>
</g>
</g>
<!-- Node5&#45;&gt;Node3 -->
<g id="edge5_Node000005_Node000003" class="edge">
<title>Node5&#45;&gt;Node3</title>
<g id="a_edge5_Node000005_Node000003"><a xlink:title=" ">
<path fill="none" stroke="#63b8ff" d="M159.38,-110.33C159.38,-103.82 159.38,-94.67 159.38,-86.37"/>
<polygon fill="#63b8ff" stroke="#63b8ff" points="162.88,-86.37 159.38,-76.37 155.88,-86.37 162.88,-86.37"/>
</a>
</g>
</g>
<!-- Node7 -->
<g id="Node000007" class="node">
<title>Node7</title>
<g id="a_Node000007"><a xlink:href="OSThread_8h.html" target="_top" xlink:title=" ">
<polygon fill="white" stroke="#666666" points="328.88,-185 213.88,-185 213.88,-165.75 328.88,-165.75 328.88,-185"/>
<text text-anchor="middle" x="271.38" y="-171.5" font-family="Helvetica,sans-Serif" font-size="10.00">dolphin/os/OSThread.h</text>
</a>
</g>
</g>
<!-- Node6&#45;&gt;Node7 -->
<g id="edge7_Node000006_Node000007" class="edge">
<title>Node6&#45;&gt;Node7</title>
<g id="a_edge7_Node000006_Node000007"><a xlink:title=" ">
<path fill="none" stroke="#63b8ff" d="M262.19,-220.83C263.55,-214.24 265.47,-204.96 267.2,-196.57"/>
<polygon fill="#63b8ff" stroke="#63b8ff" points="270.62,-197.34 269.21,-186.84 263.76,-195.93 270.62,-197.34"/>
</a>
</g>
</g>
<!-- Node8 -->
<g id="Node000008" class="node">
<title>Node8</title>
<g id="a_Node000008"><a xlink:href="OSContext_8h.html" target="_top" xlink:title=" ">
<polygon fill="white" stroke="#666666" points="330.38,-129.75 212.38,-129.75 212.38,-110.5 330.38,-110.5 330.38,-129.75"/>
<text text-anchor="middle" x="271.38" y="-116.25" font-family="Helvetica,sans-Serif" font-size="10.00">dolphin/os/OSContext.h</text>
</a>
</g>
</g>
<!-- Node7&#45;&gt;Node8 -->
<g id="edge8_Node000007_Node000008" class="edge">
<title>Node7&#45;&gt;Node8</title>
<g id="a_edge8_Node000007_Node000008"><a xlink:title=" ">
<path fill="none" stroke="#63b8ff" d="M271.38,-165.58C271.38,-159.07 271.38,-149.92 271.38,-141.62"/>
<polygon fill="#63b8ff" stroke="#63b8ff" points="274.88,-141.62 271.38,-131.62 267.88,-141.62 274.88,-141.62"/>
</a>
</g>
</g>
<!-- Node8&#45;&gt;Node3 -->
<g id="edge9_Node000008_Node000003" class="edge">
<title>Node8&#45;&gt;Node3</title>
<g id="a_edge9_Node000008_Node000003"><a xlink:title=" ">
<path fill="none" stroke="#63b8ff" d="M252.38,-110.09C234.92,-101.79 208.78,-89.36 188.65,-79.79"/>
<polygon fill="#63b8ff" stroke="#63b8ff" points="190.37,-76.74 179.83,-75.6 187.36,-83.06 190.37,-76.74"/>
</a>
</g>
</g>
<!-- Node9&#45;&gt;Node7 -->
<g id="edge11_Node000009_Node000007" class="edge">
<title>Node9&#45;&gt;Node7</title>
<g id="a_edge11_Node000009_Node000007"><a xlink:title=" ">
<path fill="none" stroke="#63b8ff" d="M375.17,-220.59C355.42,-212.18 325.7,-199.52 303.12,-189.9"/>
<polygon fill="#63b8ff" stroke="#63b8ff" points="304.65,-186.74 294.08,-186.05 301.9,-193.18 304.65,-186.74"/>
</a>
</g>
</g>
</g>
</svg>
</svg>

<style type='text/css'>
<![CDATA[
[data-mouse-over-selected='false'] { opacity: 0.7; }
[data-mouse-over-selected='true']  { opacity: 1.0; }
]]>
</style>
<script type="application/ecmascript"><![CDATA[
document.addEventListener('DOMContentLoaded', (event) => {
  highlightEdges();
  highlightAdjacentNodes();
});
]]></script>
</svg>
