<?xml version="1.0" encoding="UTF-8" standalone="no"?>
<!DOCTYPE svg PUBLIC "-//W3C//DTD SVG 1.1//EN"
 "http://www.w3.org/Graphics/SVG/1.1/DTD/svg11.dtd">
<!-- Generated by graphviz version 2.44.0 ()
 -->
<!-- Title: include/JSystem/JKernel/JKRAssertHeap.h Pages: 1 -->
<svg width="1223pt" height="631pt"
 viewBox="0.00 0.00 1222.50 631.00" xmlns="http://www.w3.org/2000/svg" xmlns:xlink="http://www.w3.org/1999/xlink">
<g id="graph0" class="graph" transform="scale(1 1) rotate(0) translate(4 627)">
<title>include/JSystem/JKernel/JKRAssertHeap.h</title>
<polygon fill="white" stroke="transparent" points="-4,4 -4,-627 1218.5,-627 1218.5,4 -4,4"/>
<!-- Node1 -->
<g id="node1" class="node">
<title>Node1</title>
<g id="a_node1"><a xlink:title=" ">
<polygon fill="#bfbfbf" stroke="black" points="221,-592.5 221,-622.5 346,-622.5 346,-592.5 221,-592.5"/>
<text text-anchor="start" x="229" y="-610.5" font-family="Helvetica,sans-Serif" font-size="10.00">include/JSystem/JKernel</text>
<text text-anchor="middle" x="283.5" y="-599.5" font-family="Helvetica,sans-Serif" font-size="10.00">/JKRAssertHeap.h</text>
</a>
</g>
</g>
<!-- Node2 -->
<g id="node2" class="node">
<title>Node2</title>
<g id="a_node2"><a xlink:href="m__Do__ext_8cpp.html" target="_top" xlink:title=" ">
<polygon fill="white" stroke="black" points="49,-464 49,-483 172,-483 172,-464 49,-464"/>
<text text-anchor="middle" x="110.5" y="-471" font-family="Helvetica,sans-Serif" font-size="10.00">src/m_Do/m_Do_ext.cpp</text>
</a>
</g>
</g>
<!-- Node1&#45;&gt;Node2 -->
<g id="edge1" class="edge">
<title>Node1&#45;&gt;Node2</title>
<path fill="none" stroke="midnightblue" d="M253.26,-586.76C239.68,-577.66 223.58,-566.57 209.5,-556 175.85,-530.74 137.92,-498.36 120.38,-483.14"/>
<polygon fill="midnightblue" stroke="midnightblue" points="251.5,-589.79 261.77,-592.41 255.38,-583.96 251.5,-589.79"/>
</g>
<!-- Node3 -->
<g id="node3" class="node">
<title>Node3</title>
<g id="a_node3"><a xlink:href="JKRAssertHeap_8cpp.html" target="_top" xlink:title=" ">
<polygon fill="white" stroke="black" points="367,-525.5 367,-555.5 476,-555.5 476,-525.5 367,-525.5"/>
<text text-anchor="start" x="375" y="-543.5" font-family="Helvetica,sans-Serif" font-size="10.00">libs/JSystem/JKernel</text>
<text text-anchor="middle" x="421.5" y="-532.5" font-family="Helvetica,sans-Serif" font-size="10.00">/JKRAssertHeap.cpp</text>
</a>
</g>
</g>
<!-- Node1&#45;&gt;Node3 -->
<g id="edge2" class="edge">
<title>Node1&#45;&gt;Node3</title>
<path fill="none" stroke="midnightblue" d="M322.5,-588.13C344.43,-577.8 371.37,-565.11 391.61,-555.58"/>
<polygon fill="midnightblue" stroke="midnightblue" points="321,-584.97 313.44,-592.4 323.98,-591.3 321,-584.97"/>
</g>
<!-- Node4 -->
<g id="node4" class="node">
<title>Node4</title>
<g id="a_node4"><a xlink:href="m__Do__ext_8h.html" target="_top" xlink:title=" ">
<polygon fill="white" stroke="black" points="218.5,-531 218.5,-550 348.5,-550 348.5,-531 218.5,-531"/>
<text text-anchor="middle" x="283.5" y="-538" font-family="Helvetica,sans-Serif" font-size="10.00">include/m_Do/m_Do_ext.h</text>
</a>
</g>
</g>
<!-- Node1&#45;&gt;Node4 -->
<g id="edge3" class="edge">
<title>Node1&#45;&gt;Node4</title>
<path fill="none" stroke="midnightblue" d="M283.5,-582.25C283.5,-571.02 283.5,-558.38 283.5,-550.19"/>
<polygon fill="midnightblue" stroke="midnightblue" points="280,-582.4 283.5,-592.4 287,-582.4 280,-582.4"/>
</g>
<!-- Node4&#45;&gt;Node2 -->
<g id="edge7" class="edge">
<title>Node4&#45;&gt;Node2</title>
<path fill="none" stroke="midnightblue" d="M250.95,-527.27C216.62,-514.37 163.4,-494.38 133.29,-483.06"/>
<polygon fill="midnightblue" stroke="midnightblue" points="249.93,-530.63 260.53,-530.87 252.4,-524.07 249.93,-530.63"/>
</g>
<!-- Node5 -->
<g id="node5" class="node">
<title>Node5</title>
<g id="a_node5"><a xlink:href="d__stage_8cpp.html" target="_top" xlink:title=" ">
<polygon fill="white" stroke="black" points="356.5,-464 356.5,-483 450.5,-483 450.5,-464 356.5,-464"/>
<text text-anchor="middle" x="403.5" y="-471" font-family="Helvetica,sans-Serif" font-size="10.00">src/d/d_stage.cpp</text>
</a>
</g>
</g>
<!-- Node4&#45;&gt;Node5 -->
<g id="edge4" class="edge">
<title>Node4&#45;&gt;Node5</title>
<path fill="none" stroke="midnightblue" d="M308.5,-525.96C332.29,-513.07 367.37,-494.07 387.57,-483.13"/>
<polygon fill="midnightblue" stroke="midnightblue" points="306.81,-522.89 299.68,-530.73 310.14,-529.05 306.81,-522.89"/>
</g>
<!-- Node6 -->
<g id="node6" class="node">
<title>Node6</title>
<g id="a_node6"><a xlink:href="f__op__actor__mng_8cpp.html" target="_top" xlink:title=" ">
<polygon fill="white" stroke="black" points="469,-458.5 469,-488.5 570,-488.5 570,-458.5 469,-458.5"/>
<text text-anchor="start" x="477" y="-476.5" font-family="Helvetica,sans-Serif" font-size="10.00">src/f_op/f_op_actor</text>
<text text-anchor="middle" x="519.5" y="-465.5" font-family="Helvetica,sans-Serif" font-size="10.00">_mng.cpp</text>
</a>
</g>
</g>
<!-- Node4&#45;&gt;Node6 -->
<g id="edge5" class="edge">
<title>Node4&#45;&gt;Node6</title>
<path fill="none" stroke="midnightblue" d="M324.54,-528.2C364.54,-517.18 425.48,-500.39 468.57,-488.53"/>
<polygon fill="midnightblue" stroke="midnightblue" points="323.55,-524.84 314.84,-530.87 325.41,-531.59 323.55,-524.84"/>
</g>
<!-- Node7 -->
<g id="node7" class="node">
<title>Node7</title>
<g id="a_node7"><a xlink:href="m__Do__dvd__thread_8cpp.html" target="_top" xlink:title=" ">
<polygon fill="white" stroke="black" points="588.5,-464 588.5,-483 746.5,-483 746.5,-464 588.5,-464"/>
<text text-anchor="middle" x="667.5" y="-471" font-family="Helvetica,sans-Serif" font-size="10.00">src/m_Do/m_Do_dvd_thread.cpp</text>
</a>
</g>
</g>
<!-- Node4&#45;&gt;Node7 -->
<g id="edge6" class="edge">
<title>Node4&#45;&gt;Node7</title>
<path fill="none" stroke="midnightblue" d="M335.61,-529.07C342.95,-527.66 350.41,-526.27 357.5,-525 455.89,-507.39 480.85,-505.13 579.5,-489 591.27,-487.08 603.92,-485 615.85,-483.03"/>
<polygon fill="midnightblue" stroke="midnightblue" points="334.87,-525.64 325.72,-530.98 336.2,-532.52 334.87,-525.64"/>
</g>
<!-- Node8 -->
<g id="node8" class="node">
<title>Node8</title>
<g id="a_node8"><a xlink:href="d__attention_8h.html" target="_top" xlink:title=" ">
<polygon fill="white" stroke="black" points="301.5,-341 301.5,-360 415.5,-360 415.5,-341 301.5,-341"/>
<text text-anchor="middle" x="358.5" y="-348" font-family="Helvetica,sans-Serif" font-size="10.00">include/d/d_attention.h</text>
</a>
</g>
</g>
<!-- Node4&#45;&gt;Node8 -->
<g id="edge8" class="edge">
<title>Node4&#45;&gt;Node8</title>
<path fill="none" stroke="midnightblue" d="M256.33,-525.8C242.58,-517.27 227.2,-504.88 219.5,-489 213.49,-476.6 215.45,-471.17 219.5,-458 228.33,-429.25 234.87,-421.81 257.5,-402 279.92,-382.37 311.32,-368.25 333.14,-360.01"/>
<polygon fill="midnightblue" stroke="midnightblue" points="254.63,-528.86 265.04,-530.85 258.15,-522.81 254.63,-528.86"/>
</g>
<!-- Node14 -->
<g id="node14" class="node">
<title>Node14</title>
<g id="a_node14"><a xlink:href="d__resorce_8h.html" target="_top" xlink:title=" ">
<polygon fill="white" stroke="black" points="229,-464 229,-483 338,-483 338,-464 229,-464"/>
<text text-anchor="middle" x="283.5" y="-471" font-family="Helvetica,sans-Serif" font-size="10.00">include/d/d_resorce.h</text>
</a>
</g>
</g>
<!-- Node4&#45;&gt;Node14 -->
<g id="edge15" class="edge">
<title>Node4&#45;&gt;Node14</title>
<path fill="none" stroke="midnightblue" d="M283.5,-520.54C283.5,-508.17 283.5,-492.62 283.5,-483.13"/>
<polygon fill="midnightblue" stroke="midnightblue" points="280,-520.73 283.5,-530.73 287,-520.73 280,-520.73"/>
</g>
<!-- Node9 -->
<g id="node9" class="node">
<title>Node9</title>
<g id="a_node9"><a xlink:href="d__attention_8cpp.html" target="_top" xlink:title=" ">
<polygon fill="white" stroke="black" points="305,-274 305,-293 412,-293 412,-274 305,-274"/>
<text text-anchor="middle" x="358.5" y="-281" font-family="Helvetica,sans-Serif" font-size="10.00">src/d/d_attention.cpp</text>
</a>
</g>
</g>
<!-- Node8&#45;&gt;Node9 -->
<g id="edge9" class="edge">
<title>Node8&#45;&gt;Node9</title>
<path fill="none" stroke="midnightblue" d="M358.5,-330.54C358.5,-318.17 358.5,-302.62 358.5,-293.13"/>
<polygon fill="midnightblue" stroke="midnightblue" points="355,-330.73 358.5,-340.73 362,-330.73 355,-330.73"/>
</g>
<!-- Node10 -->
<g id="node10" class="node">
<title>Node10</title>
<g id="a_node10"><a xlink:href="d__a__alink_8h.html" target="_top" xlink:title=" ">
<polygon fill="white" stroke="black" points="342.5,-140 342.5,-159 458.5,-159 458.5,-140 342.5,-140"/>
<text text-anchor="middle" x="400.5" y="-147" font-family="Helvetica,sans-Serif" font-size="10.00">include/d/a/d_a_alink.h</text>
</a>
</g>
</g>
<!-- Node8&#45;&gt;Node10 -->
<g id="edge10" class="edge">
<title>Node8&#45;&gt;Node10</title>
<path fill="none" stroke="midnightblue" d="M331.63,-335.63C318.11,-327.07 303.04,-314.71 295.5,-299 289.54,-286.58 290.59,-280.87 295.5,-268 314.43,-218.42 364.97,-176.5 388.34,-159.11"/>
<polygon fill="midnightblue" stroke="midnightblue" points="330.23,-338.87 340.62,-340.94 333.79,-332.84 330.23,-338.87"/>
</g>
<!-- Node12 -->
<g id="node12" class="node">
<title>Node12</title>
<g id="a_node12"><a xlink:href="d__com__inf__game_8h.html" target="_top" xlink:title=" ">
<polygon fill="white" stroke="black" points="517.5,-67.5 517.5,-97.5 627.5,-97.5 627.5,-67.5 517.5,-67.5"/>
<text text-anchor="start" x="525.5" y="-85.5" font-family="Helvetica,sans-Serif" font-size="10.00">include/d/com/d_com</text>
<text text-anchor="middle" x="572.5" y="-74.5" font-family="Helvetica,sans-Serif" font-size="10.00">_inf_game.h</text>
</a>
</g>
</g>
<!-- Node8&#45;&gt;Node12 -->
<g id="edge14" class="edge">
<title>Node8&#45;&gt;Node12</title>
<path fill="none" stroke="midnightblue" d="M379.36,-334.78C392,-325.33 408.03,-312.36 420.5,-299 453.53,-263.6 535.73,-139.6 563.31,-97.56"/>
<polygon fill="midnightblue" stroke="midnightblue" points="377.24,-332 371.23,-340.73 381.37,-337.65 377.24,-332"/>
</g>
<!-- Node11 -->
<g id="node11" class="node">
<title>Node11</title>
<g id="a_node11"><a xlink:href="d__a__alink_8cpp.html" target="_top" xlink:title=" ">
<polygon fill="white" stroke="black" points="346,-73 346,-92 455,-92 455,-73 346,-73"/>
<text text-anchor="middle" x="400.5" y="-80" font-family="Helvetica,sans-Serif" font-size="10.00">src/d/a/d_a_alink.cpp</text>
</a>
</g>
</g>
<!-- Node10&#45;&gt;Node11 -->
<g id="edge11" class="edge">
<title>Node10&#45;&gt;Node11</title>
<path fill="none" stroke="midnightblue" d="M400.5,-129.54C400.5,-117.17 400.5,-101.62 400.5,-92.13"/>
<polygon fill="midnightblue" stroke="midnightblue" points="397,-129.73 400.5,-139.73 404,-129.73 397,-129.73"/>
</g>
<!-- Node10&#45;&gt;Node12 -->
<g id="edge12" class="edge">
<title>Node10&#45;&gt;Node12</title>
<path fill="none" stroke="midnightblue" d="M433.04,-136.2C462.19,-125.19 504.91,-109.04 535.38,-97.53"/>
<polygon fill="midnightblue" stroke="midnightblue" points="431.46,-133.06 423.34,-139.87 433.93,-139.61 431.46,-133.06"/>
</g>
<!-- Node13 -->
<g id="node13" class="node">
<title>Node13</title>
<g id="a_node13"><a xlink:href="d__com__inf__game_8cpp.html" target="_top" xlink:title=" ">
<polygon fill="white" stroke="black" points="325.5,-0.5 325.5,-30.5 433.5,-30.5 433.5,-0.5 325.5,-0.5"/>
<text text-anchor="start" x="333.5" y="-18.5" font-family="Helvetica,sans-Serif" font-size="10.00">src/d/com/d_com_inf</text>
<text text-anchor="middle" x="379.5" y="-7.5" font-family="Helvetica,sans-Serif" font-size="10.00">_game.cpp</text>
</a>
</g>
</g>
<!-- Node12&#45;&gt;Node13 -->
<g id="edge13" class="edge">
<title>Node12&#45;&gt;Node13</title>
<path fill="none" stroke="midnightblue" d="M520.81,-64.09C489.66,-53.6 450.49,-40.41 421.3,-30.58"/>
<polygon fill="midnightblue" stroke="midnightblue" points="520.03,-67.52 530.62,-67.4 522.26,-60.89 520.03,-67.52"/>
</g>
<!-- Node14&#45;&gt;Node12 -->
<g id="edge37" class="edge">
<title>Node14&#45;&gt;Node12</title>
<path fill="none" stroke="midnightblue" d="M328.22,-461.76C334.67,-460.38 341.24,-459.08 347.5,-458 515.56,-428.9 940.35,-387.89 1109.5,-366 1156.22,-359.95 1214.5,-398.61 1214.5,-351.5 1214.5,-351.5 1214.5,-351.5 1214.5,-215.5 1214.5,-96.09 783,-83.75 627.51,-83.18"/>
<polygon fill="midnightblue" stroke="midnightblue" points="327.26,-458.38 318.25,-463.95 328.76,-465.22 327.26,-458.38"/>
</g>
<!-- Node15 -->
<g id="node15" class="node">
<title>Node15</title>
<g id="a_node15"><a xlink:href="d__resorce_8cpp.html" target="_top" xlink:title=" ">
<polygon fill="white" stroke="black" points="266.5,-402.5 266.5,-421.5 368.5,-421.5 368.5,-402.5 266.5,-402.5"/>
<text text-anchor="middle" x="317.5" y="-409.5" font-family="Helvetica,sans-Serif" font-size="10.00">src/d/d_resorce.cpp</text>
</a>
</g>
</g>
<!-- Node14&#45;&gt;Node15 -->
<g id="edge16" class="edge">
<title>Node14&#45;&gt;Node15</title>
<path fill="none" stroke="midnightblue" d="M293.4,-455.17C299.72,-444.11 307.64,-430.25 312.64,-421.51"/>
<polygon fill="midnightblue" stroke="midnightblue" points="290.29,-453.56 288.37,-463.98 296.37,-457.03 290.29,-453.56"/>
</g>
<!-- Node16 -->
<g id="node16" class="node">
<title>Node16</title>
<g id="a_node16"><a xlink:href="d__a__player_8h.html" target="_top" xlink:title=" ">
<polygon fill="white" stroke="black" points="461,-402.5 461,-421.5 582,-421.5 582,-402.5 461,-402.5"/>
<text text-anchor="middle" x="521.5" y="-409.5" font-family="Helvetica,sans-Serif" font-size="10.00">include/d/a/d_a_player.h</text>
</a>
</g>
</g>
<!-- Node14&#45;&gt;Node16 -->
<g id="edge17" class="edge">
<title>Node14&#45;&gt;Node16</title>
<path fill="none" stroke="midnightblue" d="M327.34,-461.54C373.54,-449.99 445.34,-432.04 487.46,-421.51"/>
<polygon fill="midnightblue" stroke="midnightblue" points="326.45,-458.15 317.6,-463.98 328.15,-464.95 326.45,-458.15"/>
</g>
<!-- Node30 -->
<g id="node30" class="node">
<title>Node30</title>
<g id="a_node30"><a xlink:href="d__meter2__info_8h.html" target="_top" xlink:title=" ">
<polygon fill="white" stroke="black" points="121,-201.5 121,-231.5 248,-231.5 248,-201.5 121,-201.5"/>
<text text-anchor="start" x="129" y="-219.5" font-family="Helvetica,sans-Serif" font-size="10.00">include/d/meter/d_meter2</text>
<text text-anchor="middle" x="184.5" y="-208.5" font-family="Helvetica,sans-Serif" font-size="10.00">_info.h</text>
</a>
</g>
</g>
<!-- Node14&#45;&gt;Node30 -->
<g id="edge38" class="edge">
<title>Node14&#45;&gt;Node30</title>
<path fill="none" stroke="midnightblue" d="M273.67,-454.83C268.54,-445.26 262.33,-433.15 257.5,-422 227.2,-352.14 199.27,-265.2 188.83,-231.63"/>
<polygon fill="midnightblue" stroke="midnightblue" points="270.67,-456.63 278.53,-463.73 276.81,-453.28 270.67,-456.63"/>
</g>
<!-- Node16&#45;&gt;Node8 -->
<g id="edge33" class="edge">
<title>Node16&#45;&gt;Node8</title>
<path fill="none" stroke="midnightblue" d="M488.44,-398.93C456.76,-387.37 409.75,-370.21 381.81,-360.01"/>
<polygon fill="midnightblue" stroke="midnightblue" points="487.55,-402.33 498.15,-402.48 489.95,-395.76 487.55,-402.33"/>
</g>
<!-- Node16&#45;&gt;Node10 -->
<g id="edge19" class="edge">
<title>Node16&#45;&gt;Node10</title>
<path fill="none" stroke="midnightblue" d="M511.78,-393.44C507.3,-385.18 501.99,-375.15 497.5,-366 458.62,-286.82 416.63,-188.64 404.18,-159.22"/>
<polygon fill="midnightblue" stroke="midnightblue" points="508.85,-395.37 516.73,-402.46 514.99,-392.01 508.85,-395.37"/>
</g>
<!-- Node17 -->
<g id="node17" class="node">
<title>Node17</title>
<g id="a_node17"><a xlink:href="d__a__player_8cpp.html" target="_top" xlink:title=" ">
<polygon fill="white" stroke="black" points="506.5,-341 506.5,-360 620.5,-360 620.5,-341 506.5,-341"/>
<text text-anchor="middle" x="563.5" y="-348" font-family="Helvetica,sans-Serif" font-size="10.00">src/d/a/d_a_player.cpp</text>
</a>
</g>
</g>
<!-- Node16&#45;&gt;Node17 -->
<g id="edge18" class="edge">
<title>Node16&#45;&gt;Node17</title>
<path fill="none" stroke="midnightblue" d="M533.5,-394.01C541.34,-382.89 551.26,-368.84 557.49,-360.01"/>
<polygon fill="midnightblue" stroke="midnightblue" points="530.43,-392.29 527.52,-402.48 536.14,-396.32 530.43,-392.29"/>
</g>
<!-- Node18 -->
<g id="node18" class="node">
<title>Node18</title>
<g id="a_node18"><a xlink:href="d__bg__s__acch_8h.html" target="_top" xlink:title=" ">
<polygon fill="white" stroke="black" points="638.5,-335.5 638.5,-365.5 742.5,-365.5 742.5,-335.5 638.5,-335.5"/>
<text text-anchor="start" x="646.5" y="-353.5" font-family="Helvetica,sans-Serif" font-size="10.00">include/d/bg/d_bg_s</text>
<text text-anchor="middle" x="690.5" y="-342.5" font-family="Helvetica,sans-Serif" font-size="10.00">_acch.h</text>
</a>
</g>
</g>
<!-- Node16&#45;&gt;Node18 -->
<g id="edge20" class="edge">
<title>Node16&#45;&gt;Node18</title>
<path fill="none" stroke="midnightblue" d="M555.29,-399.1C582.79,-389.42 621.66,-375.74 650.67,-365.52"/>
<polygon fill="midnightblue" stroke="midnightblue" points="553.98,-395.85 545.71,-402.48 556.31,-402.46 553.98,-395.85"/>
</g>
<!-- Node28 -->
<g id="node28" class="node">
<title>Node28</title>
<g id="a_node28"><a xlink:href="d__event_8h.html" target="_top" xlink:title=" ">
<polygon fill="white" stroke="black" points="972.5,-341 972.5,-360 1100.5,-360 1100.5,-341 972.5,-341"/>
<text text-anchor="middle" x="1036.5" y="-348" font-family="Helvetica,sans-Serif" font-size="10.00">include/d/event/d_event.h</text>
</a>
</g>
</g>
<!-- Node16&#45;&gt;Node28 -->
<g id="edge34" class="edge">
<title>Node16&#45;&gt;Node28</title>
<path fill="none" stroke="midnightblue" d="M592.14,-402.84C692.58,-391.23 875.21,-370.13 972.11,-358.94"/>
<polygon fill="midnightblue" stroke="midnightblue" points="591.62,-399.37 582.09,-404 592.43,-406.33 591.62,-399.37"/>
</g>
<!-- Node19 -->
<g id="node19" class="node">
<title>Node19</title>
<g id="a_node19"><a xlink:href="d__bg__s__acch_8cpp.html" target="_top" xlink:title=" ">
<polygon fill="white" stroke="black" points="758,-274 758,-293 889,-293 889,-274 758,-274"/>
<text text-anchor="middle" x="823.5" y="-281" font-family="Helvetica,sans-Serif" font-size="10.00">src/d/bg/d_bg_s_acch.cpp</text>
</a>
</g>
</g>
<!-- Node18&#45;&gt;Node19 -->
<g id="edge21" class="edge">
<title>Node18&#45;&gt;Node19</title>
<path fill="none" stroke="midnightblue" d="M728.42,-330.97C753.97,-318.48 786.47,-302.6 806.09,-293.01"/>
<polygon fill="midnightblue" stroke="midnightblue" points="726.81,-327.86 719.36,-335.4 729.88,-334.15 726.81,-327.86"/>
</g>
<!-- Node20 -->
<g id="node20" class="node">
<title>Node20</title>
<g id="a_node20"><a xlink:href="d__bg__w_8h.html" target="_top" xlink:title=" ">
<polygon fill="white" stroke="black" points="627,-274 627,-293 740,-293 740,-274 627,-274"/>
<text text-anchor="middle" x="683.5" y="-281" font-family="Helvetica,sans-Serif" font-size="10.00">include/d/bg/d_bg_w.h</text>
</a>
</g>
</g>
<!-- Node18&#45;&gt;Node20 -->
<g id="edge22" class="edge">
<title>Node18&#45;&gt;Node20</title>
<path fill="none" stroke="midnightblue" d="M687.89,-325.25C686.68,-314.02 685.32,-301.38 684.44,-293.19"/>
<polygon fill="midnightblue" stroke="midnightblue" points="684.43,-325.83 688.98,-335.4 691.39,-325.08 684.43,-325.83"/>
</g>
<!-- Node24 -->
<g id="node24" class="node">
<title>Node24</title>
<g id="a_node24"><a xlink:href="d__bomb_8h.html" target="_top" xlink:title=" ">
<polygon fill="white" stroke="black" points="907,-274 907,-293 1008,-293 1008,-274 907,-274"/>
<text text-anchor="middle" x="957.5" y="-281" font-family="Helvetica,sans-Serif" font-size="10.00">include/d/d_bomb.h</text>
</a>
</g>
</g>
<!-- Node18&#45;&gt;Node24 -->
<g id="edge28" class="edge">
<title>Node18&#45;&gt;Node24</title>
<path fill="none" stroke="midnightblue" d="M752.58,-334.48C793.93,-324.46 849.48,-310.98 898.5,-299 906.39,-297.07 914.87,-294.99 922.87,-293.03"/>
<polygon fill="midnightblue" stroke="midnightblue" points="751.55,-331.12 742.65,-336.88 753.2,-337.93 751.55,-331.12"/>
</g>
<!-- Node26 -->
<g id="node26" class="node">
<title>Node26</title>
<g id="a_node26"><a xlink:href="d__particle__copoly_8h.html" target="_top" xlink:title=" ">
<polygon fill="white" stroke="black" points="506.5,-268.5 506.5,-298.5 608.5,-298.5 608.5,-268.5 506.5,-268.5"/>
<text text-anchor="start" x="514.5" y="-286.5" font-family="Helvetica,sans-Serif" font-size="10.00">include/d/particle</text>
<text text-anchor="middle" x="557.5" y="-275.5" font-family="Helvetica,sans-Serif" font-size="10.00">/d_particle_copoly.h</text>
</a>
</g>
</g>
<!-- Node18&#45;&gt;Node26 -->
<g id="edge30" class="edge">
<title>Node18&#45;&gt;Node26</title>
<path fill="none" stroke="midnightblue" d="M652.63,-330.99C631.55,-320.69 605.72,-308.07 586.3,-298.58"/>
<polygon fill="midnightblue" stroke="midnightblue" points="651.12,-334.15 661.64,-335.4 654.19,-327.86 651.12,-334.15"/>
</g>
<!-- Node21 -->
<g id="node21" class="node">
<title>Node21</title>
<g id="a_node21"><a xlink:href="d__bg__w_8cpp.html" target="_top" xlink:title=" ">
<polygon fill="white" stroke="black" points="772,-207 772,-226 879,-226 879,-207 772,-207"/>
<text text-anchor="middle" x="825.5" y="-214" font-family="Helvetica,sans-Serif" font-size="10.00">src/d/bg/d_bg_w.cpp</text>
</a>
</g>
</g>
<!-- Node20&#45;&gt;Node21 -->
<g id="edge23" class="edge">
<title>Node20&#45;&gt;Node21</title>
<path fill="none" stroke="midnightblue" d="M711.65,-269.61C739.78,-256.74 782.23,-237.31 806.57,-226.17"/>
<polygon fill="midnightblue" stroke="midnightblue" points="709.99,-266.52 702.36,-273.87 712.91,-272.89 709.99,-266.52"/>
</g>
<!-- Node22 -->
<g id="node22" class="node">
<title>Node22</title>
<g id="a_node22"><a xlink:href="d__bg__s_8h.html" target="_top" xlink:title=" ">
<polygon fill="white" stroke="black" points="643,-207 643,-226 754,-226 754,-207 643,-207"/>
<text text-anchor="middle" x="698.5" y="-214" font-family="Helvetica,sans-Serif" font-size="10.00">include/d/bg/d_bg_s.h</text>
</a>
</g>
</g>
<!-- Node20&#45;&gt;Node22 -->
<g id="edge24" class="edge">
<title>Node20&#45;&gt;Node22</title>
<path fill="none" stroke="midnightblue" d="M687.79,-263.91C690.66,-251.49 694.3,-235.72 696.51,-226.13"/>
<polygon fill="midnightblue" stroke="midnightblue" points="684.36,-263.2 685.52,-273.73 691.18,-264.78 684.36,-263.2"/>
</g>
<!-- Node22&#45;&gt;Node10 -->
<g id="edge26" class="edge">
<title>Node22&#45;&gt;Node10</title>
<path fill="none" stroke="midnightblue" d="M650.28,-204.71C644.62,-203.45 638.93,-202.2 633.5,-201 565.59,-186.07 486.46,-168.98 440.09,-159.01"/>
<polygon fill="midnightblue" stroke="midnightblue" points="649.84,-208.2 660.36,-206.95 651.36,-201.36 649.84,-208.2"/>
</g>
<!-- Node22&#45;&gt;Node12 -->
<g id="edge27" class="edge">
<title>Node22&#45;&gt;Node12</title>
<path fill="none" stroke="midnightblue" d="M678.37,-200.54C666.03,-190.96 650.21,-177.95 637.5,-165 616.07,-143.18 594.61,-114.65 582.49,-97.78"/>
<polygon fill="midnightblue" stroke="midnightblue" points="676.57,-203.57 686.65,-206.85 680.82,-198.01 676.57,-203.57"/>
</g>
<!-- Node23 -->
<g id="node23" class="node">
<title>Node23</title>
<g id="a_node23"><a xlink:href="d__bg__s_8cpp.html" target="_top" xlink:title=" ">
<polygon fill="white" stroke="black" points="646.5,-140 646.5,-159 750.5,-159 750.5,-140 646.5,-140"/>
<text text-anchor="middle" x="698.5" y="-147" font-family="Helvetica,sans-Serif" font-size="10.00">src/d/bg/d_bg_s.cpp</text>
</a>
</g>
</g>
<!-- Node22&#45;&gt;Node23 -->
<g id="edge25" class="edge">
<title>Node22&#45;&gt;Node23</title>
<path fill="none" stroke="midnightblue" d="M698.5,-196.54C698.5,-184.17 698.5,-168.62 698.5,-159.13"/>
<polygon fill="midnightblue" stroke="midnightblue" points="695,-196.73 698.5,-206.73 702,-196.73 695,-196.73"/>
</g>
<!-- Node25 -->
<g id="node25" class="node">
<title>Node25</title>
<g id="a_node25"><a xlink:href="d__bomb_8cpp.html" target="_top" xlink:title=" ">
<polygon fill="white" stroke="black" points="910.5,-207 910.5,-226 1004.5,-226 1004.5,-207 910.5,-207"/>
<text text-anchor="middle" x="957.5" y="-214" font-family="Helvetica,sans-Serif" font-size="10.00">src/d/d_bomb.cpp</text>
</a>
</g>
</g>
<!-- Node24&#45;&gt;Node25 -->
<g id="edge29" class="edge">
<title>Node24&#45;&gt;Node25</title>
<path fill="none" stroke="midnightblue" d="M957.5,-263.54C957.5,-251.17 957.5,-235.62 957.5,-226.13"/>
<polygon fill="midnightblue" stroke="midnightblue" points="954,-263.73 957.5,-273.73 961,-263.73 954,-263.73"/>
</g>
<!-- Node26&#45;&gt;Node10 -->
<g id="edge32" class="edge">
<title>Node26&#45;&gt;Node10</title>
<path fill="none" stroke="midnightblue" d="M532.84,-261.77C497.82,-232.33 435.22,-179.69 410.73,-159.1"/>
<polygon fill="midnightblue" stroke="midnightblue" points="530.79,-264.62 540.7,-268.37 535.3,-259.26 530.79,-264.62"/>
</g>
<!-- Node27 -->
<g id="node27" class="node">
<title>Node27</title>
<g id="a_node27"><a xlink:href="d__particle__copoly_8cpp.html" target="_top" xlink:title=" ">
<polygon fill="white" stroke="black" points="506.5,-201.5 506.5,-231.5 624.5,-231.5 624.5,-201.5 506.5,-201.5"/>
<text text-anchor="start" x="514.5" y="-219.5" font-family="Helvetica,sans-Serif" font-size="10.00">src/d/particle/d_particle</text>
<text text-anchor="middle" x="565.5" y="-208.5" font-family="Helvetica,sans-Serif" font-size="10.00">_copoly.cpp</text>
</a>
</g>
</g>
<!-- Node26&#45;&gt;Node27 -->
<g id="edge31" class="edge">
<title>Node26&#45;&gt;Node27</title>
<path fill="none" stroke="midnightblue" d="M560.47,-258.4C561.58,-249.37 562.8,-239.41 563.77,-231.58"/>
<polygon fill="midnightblue" stroke="midnightblue" points="556.98,-258.04 559.24,-268.4 563.93,-258.9 556.98,-258.04"/>
</g>
<!-- Node28&#45;&gt;Node12 -->
<g id="edge36" class="edge">
<title>Node28&#45;&gt;Node12</title>
<path fill="none" stroke="midnightblue" d="M1039.49,-330.88C1043.35,-299.82 1046.11,-237.29 1013.5,-201 962,-143.69 734.19,-105.64 627.71,-90.66"/>
<polygon fill="midnightblue" stroke="midnightblue" points="1036.03,-330.39 1038.09,-340.79 1042.96,-331.38 1036.03,-330.39"/>
</g>
<!-- Node29 -->
<g id="node29" class="node">
<title>Node29</title>
<g id="a_node29"><a xlink:href="d__event_8cpp.html" target="_top" xlink:title=" ">
<polygon fill="white" stroke="black" points="1065,-274 1065,-293 1186,-293 1186,-274 1065,-274"/>
<text text-anchor="middle" x="1125.5" y="-281" font-family="Helvetica,sans-Serif" font-size="10.00">src/d/event/d_event.cpp</text>
</a>
</g>
</g>
<!-- Node28&#45;&gt;Node29 -->
<g id="edge35" class="edge">
<title>Node28&#45;&gt;Node29</title>
<path fill="none" stroke="midnightblue" d="M1056.95,-334.57C1074.51,-321.74 1099.23,-303.69 1113.69,-293.13"/>
<polygon fill="midnightblue" stroke="midnightblue" points="1054.51,-332.01 1048.5,-340.73 1058.64,-337.66 1054.51,-332.01"/>
</g>
<!-- Node30&#45;&gt;Node10 -->
<g id="edge41" class="edge">
<title>Node30&#45;&gt;Node10</title>
<path fill="none" stroke="midnightblue" d="M240.69,-198.59C282.88,-185.9 338.88,-169.04 372.16,-159.03"/>
<polygon fill="midnightblue" stroke="midnightblue" points="239.67,-195.24 231.1,-201.48 241.69,-201.95 239.67,-195.24"/>
</g>
<!-- Node30&#45;&gt;Node13 -->
<g id="edge39" class="edge">
<title>Node30&#45;&gt;Node13</title>
<path fill="none" stroke="midnightblue" d="M186.25,-190.86C188.51,-173.61 193.68,-150.75 205.5,-134 241.02,-83.67 305.47,-48.58 345.18,-30.55"/>
<polygon fill="midnightblue" stroke="midnightblue" points="182.72,-190.95 185.14,-201.26 189.68,-191.69 182.72,-190.95"/>
</g>
<!-- Node31 -->
<g id="node31" class="node">
<title>Node31</title>
<g id="a_node31"><a xlink:href="d__meter2__info_8cpp.html" target="_top" xlink:title=" ">
<polygon fill="white" stroke="black" points="214.5,-134.5 214.5,-164.5 324.5,-164.5 324.5,-134.5 214.5,-134.5"/>
<text text-anchor="start" x="222.5" y="-152.5" font-family="Helvetica,sans-Serif" font-size="10.00">src/d/meter/d_meter2</text>
<text text-anchor="middle" x="269.5" y="-141.5" font-family="Helvetica,sans-Serif" font-size="10.00">_info.cpp</text>
</a>
</g>
</g>
<!-- Node30&#45;&gt;Node31 -->
<g id="edge40" class="edge">
<title>Node30&#45;&gt;Node31</title>
<path fill="none" stroke="midnightblue" d="M211.09,-195.17C224.09,-185.23 239.4,-173.51 251.09,-164.58"/>
<polygon fill="midnightblue" stroke="midnightblue" points="208.76,-192.54 202.94,-201.4 213.01,-198.1 208.76,-192.54"/>
</g>
<!-- Node32 -->
<g id="node32" class="node">
<title>Node32</title>
<g id="a_node32"><a xlink:href="d__menu__window_8h.html" target="_top" xlink:title=" ">
<polygon fill="white" stroke="black" points="38.5,-134.5 38.5,-164.5 158.5,-164.5 158.5,-134.5 38.5,-134.5"/>
<text text-anchor="start" x="46.5" y="-152.5" font-family="Helvetica,sans-Serif" font-size="10.00">include/d/menu/d_menu</text>
<text text-anchor="middle" x="98.5" y="-141.5" font-family="Helvetica,sans-Serif" font-size="10.00">_window.h</text>
</a>
</g>
</g>
<!-- Node30&#45;&gt;Node32 -->
<g id="edge42" class="edge">
<title>Node30&#45;&gt;Node32</title>
<path fill="none" stroke="midnightblue" d="M151.68,-195.45C137.68,-185.45 122.2,-173.6 111.45,-164.58"/>
<polygon fill="midnightblue" stroke="midnightblue" points="149.96,-198.52 160.16,-201.4 153.98,-192.79 149.96,-198.52"/>
</g>
<!-- Node32&#45;&gt;Node30 -->
<g id="edge44" class="edge">
<title>Node32&#45;&gt;Node30</title>
<path fill="none" stroke="midnightblue" d="M131.27,-170.52C145.28,-180.51 160.76,-192.37 171.52,-201.4"/>
<polygon fill="midnightblue" stroke="midnightblue" points="133,-167.45 122.8,-164.58 128.98,-173.18 133,-167.45"/>
</g>
<!-- Node33 -->
<g id="node33" class="node">
<title>Node33</title>
<g id="a_node33"><a xlink:href="d__menu__window_8cpp.html" target="_top" xlink:title=" ">
<polygon fill="white" stroke="black" points="0,-73 0,-92 159,-92 159,-73 0,-73"/>
<text text-anchor="middle" x="79.5" y="-80" font-family="Helvetica,sans-Serif" font-size="10.00">src/d/menu/d_menu_window.cpp</text>
</a>
</g>
</g>
<!-- Node32&#45;&gt;Node33 -->
<g id="edge43" class="edge">
<title>Node32&#45;&gt;Node33</title>
<path fill="none" stroke="midnightblue" d="M91.51,-124.6C88.2,-113.28 84.46,-100.46 82.04,-92.19"/>
<polygon fill="midnightblue" stroke="midnightblue" points="88.21,-125.78 94.38,-134.4 94.93,-123.82 88.21,-125.78"/>
</g>
</g>
</svg>
