<?xml version="1.0" encoding="UTF-8" standalone="no"?>
<!DOCTYPE svg PUBLIC "-//W3C//DTD SVG 1.1//EN"
 "http://www.w3.org/Graphics/SVG/1.1/DTD/svg11.dtd">
<!-- Generated by graphviz version 2.44.0 ()
 -->
<!-- Title: libs/JSystem/JKernel/JKRDvdFile.cpp Pages: 1 -->
<svg width="795pt" height="319pt"
 viewBox="0.00 0.00 795.07 319.00" xmlns="http://www.w3.org/2000/svg" xmlns:xlink="http://www.w3.org/1999/xlink">
<g id="graph0" class="graph" transform="scale(1 1) rotate(0) translate(4 315)">
<title>libs/JSystem/JKernel/JKRDvdFile.cpp</title>
<polygon fill="white" stroke="transparent" points="-4,4 -4,-315 791.07,-315 791.07,4 -4,4"/>
<!-- Node1 -->
<g id="node1" class="node">
<title>Node1</title>
<g id="a_node1"><a xlink:title=" ">
<polygon fill="#bfbfbf" stroke="black" points="409,-280.5 409,-310.5 518,-310.5 518,-280.5 409,-280.5"/>
<text text-anchor="start" x="417" y="-298.5" font-family="Helvetica,sans-Serif" font-size="10.00">libs/JSystem/JKernel</text>
<text text-anchor="middle" x="463.5" y="-287.5" font-family="Helvetica,sans-Serif" font-size="10.00">/JKRDvdFile.cpp</text>
</a>
</g>
</g>
<!-- Node2 -->
<g id="node2" class="node">
<title>Node2</title>
<g id="a_node2"><a xlink:href="JKRDvdFile_8h.html" target="_top" xlink:title=" ">
<polygon fill="white" stroke="black" points="213,-224.5 213,-243.5 366,-243.5 366,-224.5 213,-224.5"/>
<text text-anchor="middle" x="289.5" y="-231.5" font-family="Helvetica,sans-Serif" font-size="10.00">JSystem/JKernel/JKRDvdFile.h</text>
</a>
</g>
</g>
<!-- Node1&#45;&gt;Node2 -->
<g id="edge1" class="edge">
<title>Node1&#45;&gt;Node2</title>
<path fill="none" stroke="midnightblue" d="M422.26,-280.4C392.33,-270.16 352.29,-256.47 324.03,-246.81"/>
<polygon fill="midnightblue" stroke="midnightblue" points="325.16,-243.49 314.56,-243.57 322.89,-250.12 325.16,-243.49"/>
</g>
<!-- Node9 -->
<g id="node9" class="node">
<title>Node9</title>
<g id="a_node9"><a xlink:href="JUTException_8h.html" target="_top" xlink:title=" ">
<polygon fill="white" stroke="black" points="355,-168.5 355,-187.5 514,-187.5 514,-168.5 355,-168.5"/>
<text text-anchor="middle" x="434.5" y="-175.5" font-family="Helvetica,sans-Serif" font-size="10.00">JSystem/JUtility/JUTException.h</text>
</a>
</g>
</g>
<!-- Node1&#45;&gt;Node9 -->
<g id="edge14" class="edge">
<title>Node1&#45;&gt;Node9</title>
<path fill="none" stroke="midnightblue" d="M459.94,-280.34C454.72,-259.53 444.96,-220.66 439.17,-197.58"/>
<polygon fill="midnightblue" stroke="midnightblue" points="442.51,-196.52 436.68,-187.67 435.72,-198.22 442.51,-196.52"/>
</g>
<!-- Node13 -->
<g id="node13" class="node">
<title>Node13</title>
<g id="a_node13"><a xlink:href="dol2asm_8h.html" target="_top" xlink:title=" ">
<polygon fill="white" stroke="black" points="463,-224.5 463,-243.5 524,-243.5 524,-224.5 463,-224.5"/>
<text text-anchor="middle" x="493.5" y="-231.5" font-family="Helvetica,sans-Serif" font-size="10.00">dol2asm.h</text>
</a>
</g>
</g>
<!-- Node1&#45;&gt;Node13 -->
<g id="edge23" class="edge">
<title>Node1&#45;&gt;Node13</title>
<path fill="none" stroke="midnightblue" d="M470.61,-280.4C474.79,-272.11 480.11,-261.55 484.57,-252.71"/>
<polygon fill="midnightblue" stroke="midnightblue" points="487.76,-254.16 489.13,-243.66 481.51,-251.01 487.76,-254.16"/>
</g>
<!-- Node14 -->
<g id="node14" class="node">
<title>Node14</title>
<g id="a_node14"><a xlink:href="global_8h.html" target="_top" xlink:title=" ">
<polygon fill="white" stroke="black" points="651.5,-168.5 651.5,-187.5 701.5,-187.5 701.5,-168.5 651.5,-168.5"/>
<text text-anchor="middle" x="676.5" y="-175.5" font-family="Helvetica,sans-Serif" font-size="10.00">global.h</text>
</a>
</g>
</g>
<!-- Node1&#45;&gt;Node14 -->
<g id="edge24" class="edge">
<title>Node1&#45;&gt;Node14</title>
<path fill="none" stroke="midnightblue" d="M489.62,-280.34C531.06,-257.86 611.34,-214.33 651.85,-192.37"/>
<polygon fill="midnightblue" stroke="midnightblue" points="653.66,-195.37 660.78,-187.52 650.32,-189.21 653.66,-195.37"/>
</g>
<!-- Node3 -->
<g id="node3" class="node">
<title>Node3</title>
<g id="a_node3"><a xlink:href="JKRFile_8h.html" target="_top" xlink:title=" ">
<polygon fill="white" stroke="black" points="83.5,-168.5 83.5,-187.5 219.5,-187.5 219.5,-168.5 83.5,-168.5"/>
<text text-anchor="middle" x="151.5" y="-175.5" font-family="Helvetica,sans-Serif" font-size="10.00">JSystem/JKernel/JKRFile.h</text>
</a>
</g>
</g>
<!-- Node2&#45;&gt;Node3 -->
<g id="edge2" class="edge">
<title>Node2&#45;&gt;Node3</title>
<path fill="none" stroke="midnightblue" d="M267.63,-224.44C244.72,-215.48 208.52,-201.31 182.63,-191.18"/>
<polygon fill="midnightblue" stroke="midnightblue" points="183.85,-187.9 173.26,-187.52 181.3,-194.42 183.85,-187.9"/>
</g>
<!-- Node6 -->
<g id="node6" class="node">
<title>Node6</title>
<g id="a_node6"><a xlink:href="types_8h.html" target="_top" xlink:title=" ">
<polygon fill="white" stroke="black" points="355,-0.5 355,-19.5 436,-19.5 436,-0.5 355,-0.5"/>
<text text-anchor="middle" x="395.5" y="-7.5" font-family="Helvetica,sans-Serif" font-size="10.00">dolphin/types.h</text>
</a>
</g>
</g>
<!-- Node2&#45;&gt;Node6 -->
<g id="edge13" class="edge">
<title>Node2&#45;&gt;Node6</title>
<path fill="none" stroke="midnightblue" d="M284.54,-224.25C269.58,-196.61 228.28,-109.81 266.5,-56 284.18,-31.11 316.68,-19.88 344.64,-14.85"/>
<polygon fill="midnightblue" stroke="midnightblue" points="345.36,-18.28 354.7,-13.27 344.28,-11.37 345.36,-18.28"/>
</g>
<!-- Node7 -->
<g id="node7" class="node">
<title>Node7</title>
<g id="a_node7"><a xlink:href="dvd_8h.html" target="_top" xlink:title=" ">
<polygon fill="white" stroke="black" points="275.5,-56.5 275.5,-75.5 367.5,-75.5 367.5,-56.5 275.5,-56.5"/>
<text text-anchor="middle" x="321.5" y="-63.5" font-family="Helvetica,sans-Serif" font-size="10.00">dolphin/dvd/dvd.h</text>
</a>
</g>
</g>
<!-- Node2&#45;&gt;Node7 -->
<g id="edge8" class="edge">
<title>Node2&#45;&gt;Node7</title>
<path fill="none" stroke="midnightblue" d="M290.62,-224.44C293.3,-204.57 300.49,-153.84 309.5,-112 311.4,-103.2 313.91,-93.54 316.15,-85.43"/>
<polygon fill="midnightblue" stroke="midnightblue" points="319.59,-86.14 318.95,-75.57 312.86,-84.23 319.59,-86.14"/>
</g>
<!-- Node8 -->
<g id="node8" class="node">
<title>Node8</title>
<g id="a_node8"><a xlink:href="OS_8h.html" target="_top" xlink:title=" ">
<polygon fill="white" stroke="black" points="318.5,-112.5 318.5,-131.5 404.5,-131.5 404.5,-112.5 318.5,-112.5"/>
<text text-anchor="middle" x="361.5" y="-119.5" font-family="Helvetica,sans-Serif" font-size="10.00">dolphin/os/OS.h</text>
</a>
</g>
</g>
<!-- Node2&#45;&gt;Node8 -->
<g id="edge10" class="edge">
<title>Node2&#45;&gt;Node8</title>
<path fill="none" stroke="midnightblue" d="M295.15,-224.37C307.03,-206.22 334.79,-163.8 350.38,-139.99"/>
<polygon fill="midnightblue" stroke="midnightblue" points="353.33,-141.88 355.88,-131.59 347.47,-138.04 353.33,-141.88"/>
</g>
<!-- Node4 -->
<g id="node4" class="node">
<title>Node4</title>
<g id="a_node4"><a xlink:href="JKRDisposer_8h.html" target="_top" xlink:title=" ">
<polygon fill="white" stroke="black" points="23.5,-112.5 23.5,-131.5 181.5,-131.5 181.5,-112.5 23.5,-112.5"/>
<text text-anchor="middle" x="102.5" y="-119.5" font-family="Helvetica,sans-Serif" font-size="10.00">JSystem/JKernel/JKRDisposer.h</text>
</a>
</g>
</g>
<!-- Node3&#45;&gt;Node4 -->
<g id="edge3" class="edge">
<title>Node3&#45;&gt;Node4</title>
<path fill="none" stroke="midnightblue" d="M143.41,-168.08C136.34,-160.3 125.91,-148.8 117.35,-139.37"/>
<polygon fill="midnightblue" stroke="midnightblue" points="119.75,-136.8 110.44,-131.75 114.57,-141.51 119.75,-136.8"/>
</g>
<!-- Node3&#45;&gt;Node6 -->
<g id="edge7" class="edge">
<title>Node3&#45;&gt;Node6</title>
<path fill="none" stroke="midnightblue" d="M159.82,-168.46C168.11,-159.71 180.96,-145.52 190.5,-132 212.88,-100.29 202.92,-79.9 233.5,-56 265.28,-31.16 309.96,-20.02 344.35,-15.04"/>
<polygon fill="midnightblue" stroke="midnightblue" points="345.21,-18.45 354.67,-13.68 344.3,-11.51 345.21,-18.45"/>
</g>
<!-- Node5 -->
<g id="node5" class="node">
<title>Node5</title>
<g id="a_node5"><a xlink:href="JSUList_8h.html" target="_top" xlink:title=" ">
<polygon fill="white" stroke="black" points="0,-56.5 0,-75.5 143,-75.5 143,-56.5 0,-56.5"/>
<text text-anchor="middle" x="71.5" y="-63.5" font-family="Helvetica,sans-Serif" font-size="10.00">JSystem/JSupport/JSUList.h</text>
</a>
</g>
</g>
<!-- Node4&#45;&gt;Node5 -->
<g id="edge4" class="edge">
<title>Node4&#45;&gt;Node5</title>
<path fill="none" stroke="midnightblue" d="M97.38,-112.08C93.09,-104.61 86.84,-93.72 81.56,-84.52"/>
<polygon fill="midnightblue" stroke="midnightblue" points="84.54,-82.68 76.52,-75.75 78.47,-86.17 84.54,-82.68"/>
</g>
<!-- Node4&#45;&gt;Node6 -->
<g id="edge6" class="edge">
<title>Node4&#45;&gt;Node6</title>
<path fill="none" stroke="midnightblue" d="M112.04,-112.4C128.07,-98.4 161.98,-70.79 195.5,-56 243.83,-34.67 303.34,-22.95 344.83,-16.86"/>
<polygon fill="midnightblue" stroke="midnightblue" points="345.56,-20.29 354.97,-15.43 344.58,-13.36 345.56,-20.29"/>
</g>
<!-- Node5&#45;&gt;Node6 -->
<g id="edge5" class="edge">
<title>Node5&#45;&gt;Node6</title>
<path fill="none" stroke="midnightblue" d="M122.84,-56.44C183.56,-46.32 284.02,-29.58 344.57,-19.49"/>
<polygon fill="midnightblue" stroke="midnightblue" points="345.37,-22.9 354.66,-17.81 344.22,-16 345.37,-22.9"/>
</g>
<!-- Node7&#45;&gt;Node6 -->
<g id="edge9" class="edge">
<title>Node7&#45;&gt;Node6</title>
<path fill="none" stroke="midnightblue" d="M333.39,-56.32C344.65,-48.11 361.79,-35.6 375.21,-25.81"/>
<polygon fill="midnightblue" stroke="midnightblue" points="377.38,-28.56 383.39,-19.83 373.25,-22.9 377.38,-28.56"/>
</g>
<!-- Node8&#45;&gt;Node6 -->
<g id="edge11" class="edge">
<title>Node8&#45;&gt;Node6</title>
<path fill="none" stroke="midnightblue" d="M364.47,-112.4C367.57,-103.37 372.52,-88.73 376.5,-76 381.38,-60.4 386.56,-42.56 390.28,-29.53"/>
<polygon fill="midnightblue" stroke="midnightblue" points="393.66,-30.44 393.02,-19.86 386.93,-28.53 393.66,-30.44"/>
</g>
<!-- Node8&#45;&gt;Node7 -->
<g id="edge12" class="edge">
<title>Node8&#45;&gt;Node7</title>
<path fill="none" stroke="midnightblue" d="M354.89,-112.08C349.24,-104.46 340.96,-93.26 334.05,-83.94"/>
<polygon fill="midnightblue" stroke="midnightblue" points="336.75,-81.7 327.98,-75.75 331.12,-85.87 336.75,-81.7"/>
</g>
<!-- Node9&#45;&gt;Node6 -->
<g id="edge22" class="edge">
<title>Node9&#45;&gt;Node6</title>
<path fill="none" stroke="midnightblue" d="M432.4,-168.08C426.26,-141.95 408.24,-65.21 399.86,-29.58"/>
<polygon fill="midnightblue" stroke="midnightblue" points="403.21,-28.5 397.51,-19.57 396.39,-30.1 403.21,-28.5"/>
</g>
<!-- Node9&#45;&gt;Node8 -->
<g id="edge21" class="edge">
<title>Node9&#45;&gt;Node8</title>
<path fill="none" stroke="midnightblue" d="M422.77,-168.32C411.66,-160.11 394.76,-147.6 381.52,-137.81"/>
<polygon fill="midnightblue" stroke="midnightblue" points="383.56,-134.97 373.44,-131.83 379.4,-140.59 383.56,-134.97"/>
</g>
<!-- Node10 -->
<g id="node10" class="node">
<title>Node10</title>
<g id="a_node10"><a xlink:href="GX_8h.html" target="_top" xlink:title=" ">
<polygon fill="white" stroke="black" points="493,-112.5 493,-131.5 578,-131.5 578,-112.5 493,-112.5"/>
<text text-anchor="middle" x="535.5" y="-119.5" font-family="Helvetica,sans-Serif" font-size="10.00">dolphin/gx/GX.h</text>
</a>
</g>
</g>
<!-- Node9&#45;&gt;Node10 -->
<g id="edge15" class="edge">
<title>Node9&#45;&gt;Node10</title>
<path fill="none" stroke="midnightblue" d="M450.73,-168.32C466.85,-159.7 491.8,-146.36 510.46,-136.39"/>
<polygon fill="midnightblue" stroke="midnightblue" points="512.14,-139.46 519.31,-131.65 508.84,-133.28 512.14,-139.46"/>
</g>
<!-- Node10&#45;&gt;Node6 -->
<g id="edge20" class="edge">
<title>Node10&#45;&gt;Node6</title>
<path fill="none" stroke="midnightblue" d="M524.51,-112.37C500.69,-93.65 444.06,-49.15 414.38,-25.83"/>
<polygon fill="midnightblue" stroke="midnightblue" points="416.46,-23.02 406.43,-19.59 412.14,-28.52 416.46,-23.02"/>
</g>
<!-- Node11 -->
<g id="node11" class="node">
<title>Node11</title>
<g id="a_node11"><a xlink:href="GXDisplayList_8h.html" target="_top" xlink:title=" ">
<polygon fill="white" stroke="black" points="500,-56.5 500,-75.5 633,-75.5 633,-56.5 500,-56.5"/>
<text text-anchor="middle" x="566.5" y="-63.5" font-family="Helvetica,sans-Serif" font-size="10.00">dolphin/gx/GXDisplayList.h</text>
</a>
</g>
</g>
<!-- Node10&#45;&gt;Node11 -->
<g id="edge16" class="edge">
<title>Node10&#45;&gt;Node11</title>
<path fill="none" stroke="midnightblue" d="M540.62,-112.08C544.91,-104.61 551.16,-93.72 556.44,-84.52"/>
<polygon fill="midnightblue" stroke="midnightblue" points="559.53,-86.17 561.48,-75.75 553.46,-82.68 559.53,-86.17"/>
</g>
<!-- Node12 -->
<g id="node12" class="node">
<title>Node12</title>
<g id="a_node12"><a xlink:href="GXTexture_8h.html" target="_top" xlink:title=" ">
<polygon fill="white" stroke="black" points="651,-56.5 651,-75.5 768,-75.5 768,-56.5 651,-56.5"/>
<text text-anchor="middle" x="709.5" y="-63.5" font-family="Helvetica,sans-Serif" font-size="10.00">dolphin/gx/GXTexture.h</text>
</a>
</g>
</g>
<!-- Node10&#45;&gt;Node12 -->
<g id="edge18" class="edge">
<title>Node10&#45;&gt;Node12</title>
<path fill="none" stroke="midnightblue" d="M563.07,-112.44C592.6,-103.28 639.62,-88.69 672.38,-78.52"/>
<polygon fill="midnightblue" stroke="midnightblue" points="673.54,-81.82 682.06,-75.52 671.47,-75.14 673.54,-81.82"/>
</g>
<!-- Node11&#45;&gt;Node6 -->
<g id="edge17" class="edge">
<title>Node11&#45;&gt;Node6</title>
<path fill="none" stroke="midnightblue" d="M539.4,-56.44C510.51,-47.32 464.58,-32.81 432.39,-22.65"/>
<polygon fill="midnightblue" stroke="midnightblue" points="433.06,-19.19 422.47,-19.52 430.95,-25.87 433.06,-19.19"/>
</g>
<!-- Node12&#45;&gt;Node6 -->
<g id="edge19" class="edge">
<title>Node12&#45;&gt;Node6</title>
<path fill="none" stroke="midnightblue" d="M659.75,-56.44C601.34,-46.4 505.02,-29.83 446.21,-19.72"/>
<polygon fill="midnightblue" stroke="midnightblue" points="446.48,-16.22 436.03,-17.97 445.3,-23.12 446.48,-16.22"/>
</g>
<!-- Node14&#45;&gt;Node6 -->
<g id="edge25" class="edge">
<title>Node14&#45;&gt;Node6</title>
<path fill="none" stroke="midnightblue" d="M693.27,-168.49C730.53,-148.51 814.14,-97.21 777.5,-56 755.86,-31.66 545.34,-18.28 446.4,-13.3"/>
<polygon fill="midnightblue" stroke="midnightblue" points="446.49,-9.8 436.33,-12.8 446.14,-16.79 446.49,-9.8"/>
</g>
</g>
</svg>
