<?xml version="1.0" encoding="UTF-8" standalone="no"?>
<!DOCTYPE svg PUBLIC "-//W3C//DTD SVG 1.1//EN"
 "http://www.w3.org/Graphics/SVG/1.1/DTD/svg11.dtd">
<!-- Generated by graphviz version 7.0.5 (20221223.1930)
 -->
<!-- Title: libs/JSystem/JKernel/JKRDisposer.cpp Pages: 1 -->
<svg width="2000pt" height="445pt"
 viewBox="0.00 0.00 2000.00 445.00" xmlns="http://www.w3.org/2000/svg" xmlns:xlink="http://www.w3.org/1999/xlink">
<g id="graph0" class="graph" transform="scale(1 1) rotate(0) translate(4 441)">
<title>libs/JSystem/JKernel/JKRDisposer.cpp</title>
<!-- Node1 -->
<g id="node1" class="node">
<title>Node1</title>
<g id="a_node1"><a xlink:title=" ">
<polygon fill="#999999" stroke="#666666" points="314,-437 205,-437 205,-407 314,-407 314,-437"/>
<text text-anchor="start" x="213" y="-425" font-family="Helvetica,sans-Serif" font-size="10.00">libs/JSystem/JKernel</text>
<text text-anchor="middle" x="259.5" y="-414" font-family="Helvetica,sans-Serif" font-size="10.00">/JKRDisposer.cpp</text>
</a>
</g>
</g>
<!-- Node2 -->
<g id="node2" class="node">
<title>Node2</title>
<g id="a_node2"><a xlink:href="JKRDisposer_8h.html" target="_top" xlink:title=" ">
<polygon fill="white" stroke="#666666" points="181.5,-316 23.5,-316 23.5,-297 181.5,-297 181.5,-316"/>
<text text-anchor="middle" x="102.5" y="-304" font-family="Helvetica,sans-Serif" font-size="10.00">JSystem/JKernel/JKRDisposer.h</text>
</a>
</g>
</g>
<!-- Node1&#45;&gt;Node2 -->
<g id="edge1" class="edge">
<title>Node1&#45;&gt;Node2</title>
<path fill="none" stroke="#63b8ff" d="M239.62,-406.63C209.96,-385.19 154.38,-345.01 123.88,-322.96"/>
<polygon fill="#63b8ff" stroke="#63b8ff" points="125.96,-320.14 115.8,-317.12 121.86,-325.81 125.96,-320.14"/>
</g>
<!-- Node4 -->
<g id="node4" class="node">
<title>Node4</title>
<g id="a_node4"><a xlink:href="types_8h.html" target="_top" xlink:title=" ">
<polygon fill="white" stroke="#666666" points="1065,-85 984,-85 984,-66 1065,-66 1065,-85"/>
<text text-anchor="middle" x="1024.5" y="-73" font-family="Helvetica,sans-Serif" font-size="10.00">dolphin/types.h</text>
</a>
</g>
</g>
<!-- Node1&#45;&gt;Node4 -->
<g id="edge59" class="edge">
<title>Node1&#45;&gt;Node4</title>
<path fill="none" stroke="#63b8ff" d="M248.65,-406.83C233.95,-386.18 209.5,-346.04 209.5,-307.5 209.5,-307.5 209.5,-307.5 209.5,-195.5 209.5,-155.62 224.87,-140.78 259.5,-121 321.06,-85.85 810.38,-78.38 972.52,-76.87"/>
<polygon fill="#63b8ff" stroke="#63b8ff" points="972.13,-80.37 982.1,-76.78 972.07,-73.37 972.13,-80.37"/>
</g>
<!-- Node6 -->
<g id="node6" class="node">
<title>Node6</title>
<g id="a_node6"><a xlink:href="JKRHeap_8h.html" target="_top" xlink:title=" ">
<polygon fill="white" stroke="#666666" points="381,-371 238,-371 238,-352 381,-352 381,-371"/>
<text text-anchor="middle" x="309.5" y="-359" font-family="Helvetica,sans-Serif" font-size="10.00">JSystem/JKernel/JKRHeap.h</text>
</a>
</g>
</g>
<!-- Node1&#45;&gt;Node6 -->
<g id="edge6" class="edge">
<title>Node1&#45;&gt;Node6</title>
<path fill="none" stroke="#63b8ff" d="M271.86,-406.54C278.75,-398.48 287.38,-388.38 294.64,-379.89"/>
<polygon fill="#63b8ff" stroke="#63b8ff" points="297.27,-382.2 301.1,-372.33 291.94,-377.65 297.27,-382.2"/>
</g>
<!-- Node31 -->
<g id="node31" class="node">
<title>Node31</title>
<g id="a_node31"><a xlink:href="dol2asm_8h.html" target="_top" xlink:title=" ">
<polygon fill="white" stroke="#666666" points="460,-371 399,-371 399,-352 460,-352 460,-371"/>
<text text-anchor="middle" x="429.5" y="-359" font-family="Helvetica,sans-Serif" font-size="10.00">dol2asm.h</text>
</a>
</g>
</g>
<!-- Node1&#45;&gt;Node31 -->
<g id="edge58" class="edge">
<title>Node1&#45;&gt;Node31</title>
<path fill="none" stroke="#63b8ff" d="M301.52,-406.54C329.48,-396.92 365.86,-384.4 392.69,-375.17"/>
<polygon fill="#63b8ff" stroke="#63b8ff" points="393.8,-378.49 402.11,-371.92 391.52,-371.87 393.8,-378.49"/>
</g>
<!-- Node3 -->
<g id="node3" class="node">
<title>Node3</title>
<g id="a_node3"><a xlink:href="JSUList_8h.html" target="_top" xlink:title=" ">
<polygon fill="white" stroke="#666666" points="143,-145.5 0,-145.5 0,-126.5 143,-126.5 143,-145.5"/>
<text text-anchor="middle" x="71.5" y="-133.5" font-family="Helvetica,sans-Serif" font-size="10.00">JSystem/JSupport/JSUList.h</text>
</a>
</g>
</g>
<!-- Node2&#45;&gt;Node3 -->
<g id="edge2" class="edge">
<title>Node2&#45;&gt;Node3</title>
<path fill="none" stroke="#63b8ff" d="M100.92,-296.91C96.17,-271.12 81.95,-193.82 75.17,-156.97"/>
<polygon fill="#63b8ff" stroke="#63b8ff" points="78.64,-156.46 73.39,-147.26 71.76,-157.73 78.64,-156.46"/>
</g>
<!-- Node2&#45;&gt;Node4 -->
<g id="edge5" class="edge">
<title>Node2&#45;&gt;Node4</title>
<path fill="none" stroke="#63b8ff" d="M103.78,-296.92C108.82,-266.54 130.34,-163.58 195.5,-121 260.3,-78.66 800.14,-76.04 972.1,-76.3"/>
<polygon fill="#63b8ff" stroke="#63b8ff" points="972.08,-79.8 982.08,-76.32 972.09,-72.8 972.08,-79.8"/>
</g>
<!-- Node3&#45;&gt;Node4 -->
<g id="edge3" class="edge">
<title>Node3&#45;&gt;Node4</title>
<path fill="none" stroke="#63b8ff" d="M120.49,-126.07C132.56,-124.13 145.47,-122.28 157.5,-121 465.49,-88.13 837.72,-79.36 972.57,-77.17"/>
<polygon fill="#63b8ff" stroke="#63b8ff" points="972.29,-80.68 982.23,-77.02 972.18,-73.68 972.29,-80.68"/>
</g>
<!-- Node5 -->
<g id="node5" class="node">
<title>Node5</title>
<g id="a_node5"><a xlink:href="stddef_8h.html" target="_top" xlink:title=" ">
<polygon fill="white" stroke="#666666" points="1092.5,-30 956.5,-30 956.5,0 1092.5,0 1092.5,-30"/>
<text text-anchor="start" x="964.5" y="-18" font-family="Helvetica,sans-Serif" font-size="10.00">MSL_C/MSL_Common/Src</text>
<text text-anchor="middle" x="1024.5" y="-7" font-family="Helvetica,sans-Serif" font-size="10.00">/stddef.h</text>
</a>
</g>
</g>
<!-- Node4&#45;&gt;Node5 -->
<g id="edge4" class="edge">
<title>Node4&#45;&gt;Node5</title>
<path fill="none" stroke="#63b8ff" d="M1024.5,-65.87C1024.5,-59.4 1024.5,-50.2 1024.5,-41.45"/>
<polygon fill="#63b8ff" stroke="#63b8ff" points="1028,-41.63 1024.5,-31.63 1021,-41.63 1028,-41.63"/>
</g>
<!-- Node6&#45;&gt;Node2 -->
<g id="edge7" class="edge">
<title>Node6&#45;&gt;Node2</title>
<path fill="none" stroke="#63b8ff" d="M274.39,-351.51C239.64,-342.61 186.27,-328.95 148.23,-319.21"/>
<polygon fill="#63b8ff" stroke="#63b8ff" points="149.46,-315.91 138.91,-316.82 147.73,-322.69 149.46,-315.91"/>
</g>
<!-- Node6&#45;&gt;Node4 -->
<g id="edge57" class="edge">
<title>Node6&#45;&gt;Node4</title>
<path fill="none" stroke="#63b8ff" d="M300.08,-351.68C282.74,-334.42 247.5,-294.23 247.5,-252.5 247.5,-252.5 247.5,-252.5 247.5,-195.5 247.5,-152.42 271.08,-140.49 309.5,-121 368.15,-91.25 817.88,-80.28 972.49,-77.37"/>
<polygon fill="#63b8ff" stroke="#63b8ff" points="972.52,-80.87 982.45,-77.19 972.39,-73.87 972.52,-80.87"/>
</g>
<!-- Node7 -->
<g id="node7" class="node">
<title>Node7</title>
<g id="a_node7"><a xlink:href="OS_8h.html" target="_top" xlink:title=" ">
<polygon fill="white" stroke="#666666" points="1182.5,-316 1096.5,-316 1096.5,-297 1182.5,-297 1182.5,-316"/>
<text text-anchor="middle" x="1139.5" y="-304" font-family="Helvetica,sans-Serif" font-size="10.00">dolphin/os/OS.h</text>
</a>
</g>
</g>
<!-- Node6&#45;&gt;Node7 -->
<g id="edge8" class="edge">
<title>Node6&#45;&gt;Node7</title>
<path fill="none" stroke="#63b8ff" d="M381.44,-352.7C384.16,-352.45 386.86,-352.22 389.5,-352 649.55,-330.48 961.15,-315.42 1084.94,-309.86"/>
<polygon fill="#63b8ff" stroke="#63b8ff" points="1084.98,-313.37 1094.82,-309.42 1084.67,-306.37 1084.98,-313.37"/>
</g>
<!-- Node8 -->
<g id="node8" class="node">
<title>Node8</title>
<g id="a_node8"><a xlink:href="____va__arg_8h.html" target="_top" xlink:title=" ">
<polygon fill="white" stroke="#666666" points="1483.5,-151 1373.5,-151 1373.5,-121 1483.5,-121 1483.5,-151"/>
<text text-anchor="start" x="1381.5" y="-139" font-family="Helvetica,sans-Serif" font-size="10.00">Runtime.PPCEABI.H/</text>
<text text-anchor="middle" x="1428.5" y="-128" font-family="Helvetica,sans-Serif" font-size="10.00">__va_arg.h</text>
</a>
</g>
</g>
<!-- Node7&#45;&gt;Node8 -->
<g id="edge9" class="edge">
<title>Node7&#45;&gt;Node8</title>
<path fill="none" stroke="#63b8ff" d="M1182.88,-303.59C1251.51,-299.76 1381.01,-288.95 1416.5,-261 1443.56,-239.69 1443.22,-221.24 1439.5,-187 1438.62,-178.9 1436.96,-170.2 1435.19,-162.35"/>
<polygon fill="#63b8ff" stroke="#63b8ff" points="1438.63,-161.67 1432.87,-152.77 1431.82,-163.32 1438.63,-161.67"/>
</g>
<!-- Node9 -->
<g id="node9" class="node">
<title>Node9</title>
<g id="a_node9"><a xlink:href="dvd_8h.html" target="_top" xlink:title=" ">
<polygon fill="white" stroke="#666666" points="1593.5,-145.5 1501.5,-145.5 1501.5,-126.5 1593.5,-126.5 1593.5,-145.5"/>
<text text-anchor="middle" x="1547.5" y="-133.5" font-family="Helvetica,sans-Serif" font-size="10.00">dolphin/dvd/dvd.h</text>
</a>
</g>
</g>
<!-- Node7&#45;&gt;Node9 -->
<g id="edge11" class="edge">
<title>Node7&#45;&gt;Node9</title>
<path fill="none" stroke="#63b8ff" d="M1182.85,-302.76C1255.02,-297.59 1396.14,-284.73 1439.5,-261 1485.26,-235.95 1520.72,-183.48 1537.27,-155.5"/>
<polygon fill="#63b8ff" stroke="#63b8ff" points="1540.16,-157.5 1542.09,-147.08 1534.08,-154.02 1540.16,-157.5"/>
</g>
<!-- Node10 -->
<g id="node10" class="node">
<title>Node10</title>
<g id="a_node10"><a xlink:href="OSAlarm_8h.html" target="_top" xlink:title=" ">
<polygon fill="white" stroke="#666666" points="1153,-261 1042,-261 1042,-242 1153,-242 1153,-261"/>
<text text-anchor="middle" x="1097.5" y="-249" font-family="Helvetica,sans-Serif" font-size="10.00">dolphin/os/OSAlarm.h</text>
</a>
</g>
</g>
<!-- Node7&#45;&gt;Node10 -->
<g id="edge13" class="edge">
<title>Node7&#45;&gt;Node10</title>
<path fill="none" stroke="#63b8ff" d="M1132.56,-296.75C1126.88,-289.58 1118.66,-279.2 1111.61,-270.3"/>
<polygon fill="#63b8ff" stroke="#63b8ff" points="1114.48,-268.29 1105.53,-262.63 1108.99,-272.64 1114.48,-268.29"/>
</g>
<!-- Node11 -->
<g id="node11" class="node">
<title>Node11</title>
<g id="a_node11"><a xlink:href="OSTime_8h.html" target="_top" xlink:title=" ">
<polygon fill="white" stroke="#666666" points="1252,-206 1145,-206 1145,-187 1252,-187 1252,-206"/>
<text text-anchor="middle" x="1198.5" y="-194" font-family="Helvetica,sans-Serif" font-size="10.00">dolphin/os/OSTime.h</text>
</a>
</g>
</g>
<!-- Node7&#45;&gt;Node11 -->
<g id="edge56" class="edge">
<title>Node7&#45;&gt;Node11</title>
<path fill="none" stroke="#63b8ff" d="M1182.92,-301.5C1233.23,-295.86 1311.56,-283.63 1329.5,-261 1352.32,-232.21 1307,-215.65 1263.56,-206.7"/>
<polygon fill="#63b8ff" stroke="#63b8ff" points="1264.27,-203.27 1253.79,-204.82 1262.95,-210.15 1264.27,-203.27"/>
</g>
<!-- Node12 -->
<g id="node12" class="node">
<title>Node12</title>
<g id="a_node12"><a xlink:href="OSError_8h.html" target="_top" xlink:title=" ">
<polygon fill="white" stroke="#666666" points="954.5,-206 848.5,-206 848.5,-187 954.5,-187 954.5,-206"/>
<text text-anchor="middle" x="901.5" y="-194" font-family="Helvetica,sans-Serif" font-size="10.00">dolphin/os/OSError.h</text>
</a>
</g>
</g>
<!-- Node7&#45;&gt;Node12 -->
<g id="edge28" class="edge">
<title>Node7&#45;&gt;Node12</title>
<path fill="none" stroke="#63b8ff" d="M1117.21,-296.66C1095.45,-287.94 1061.49,-274.04 1032.5,-261 996.44,-244.78 955.53,-224.67 929.17,-211.48"/>
<polygon fill="#63b8ff" stroke="#63b8ff" points="931.01,-208.49 920.5,-207.13 927.87,-214.75 931.01,-208.49"/>
</g>
<!-- Node13 -->
<g id="node13" class="node">
<title>Node13</title>
<g id="a_node13"><a xlink:href="OSContext_8h.html" target="_top" xlink:title=" ">
<polygon fill="white" stroke="#666666" points="832,-145.5 713,-145.5 713,-126.5 832,-126.5 832,-145.5"/>
<text text-anchor="middle" x="772.5" y="-133.5" font-family="Helvetica,sans-Serif" font-size="10.00">dolphin/os/OSContext.h</text>
</a>
</g>
</g>
<!-- Node7&#45;&gt;Node13 -->
<g id="edge27" class="edge">
<title>Node7&#45;&gt;Node13</title>
<path fill="none" stroke="#63b8ff" d="M1096.38,-304.53C987.84,-301.64 710.02,-291.33 682.5,-261 649.5,-224.63 710.92,-176.22 747.73,-152.05"/>
<polygon fill="#63b8ff" stroke="#63b8ff" points="749.53,-155.05 756.08,-146.73 745.77,-149.15 749.53,-155.05"/>
</g>
<!-- Node14 -->
<g id="node14" class="node">
<title>Node14</title>
<g id="a_node14"><a xlink:href="OSAlloc_8h.html" target="_top" xlink:title=" ">
<polygon fill="white" stroke="#666666" points="1675,-206 1568,-206 1568,-187 1675,-187 1675,-206"/>
<text text-anchor="middle" x="1621.5" y="-194" font-family="Helvetica,sans-Serif" font-size="10.00">dolphin/os/OSAlloc.h</text>
</a>
</g>
</g>
<!-- Node7&#45;&gt;Node14 -->
<g id="edge19" class="edge">
<title>Node7&#45;&gt;Node14</title>
<path fill="none" stroke="#63b8ff" d="M1182.9,-304.29C1275.28,-301.17 1488.26,-290.85 1553.5,-261 1575.91,-250.75 1595.76,-230.16 1608.15,-215.2"/>
<polygon fill="#63b8ff" stroke="#63b8ff" points="1610.75,-217.54 1614.22,-207.53 1605.26,-213.2 1610.75,-217.54"/>
</g>
<!-- Node15 -->
<g id="node15" class="node">
<title>Node15</title>
<g id="a_node15"><a xlink:href="OSArena_8h.html" target="_top" xlink:title=" ">
<polygon fill="white" stroke="#666666" points="1761,-145.5 1650,-145.5 1650,-126.5 1761,-126.5 1761,-145.5"/>
<text text-anchor="middle" x="1705.5" y="-133.5" font-family="Helvetica,sans-Serif" font-size="10.00">dolphin/os/OSArena.h</text>
</a>
</g>
</g>
<!-- Node7&#45;&gt;Node15 -->
<g id="edge21" class="edge">
<title>Node7&#45;&gt;Node15</title>
<path fill="none" stroke="#63b8ff" d="M1182.75,-303.31C1278.89,-298.09 1507.67,-283.63 1581.5,-261 1630.74,-245.91 1650.62,-245.64 1683.5,-206 1695.16,-191.94 1700.68,-171.61 1703.26,-156.66"/>
<polygon fill="#63b8ff" stroke="#63b8ff" points="1706.67,-157.51 1704.6,-147.12 1699.74,-156.53 1706.67,-157.51"/>
</g>
<!-- Node16 -->
<g id="node16" class="node">
<title>Node16</title>
<g id="a_node16"><a xlink:href="OSAudioSystem_8h.html" target="_top" xlink:title=" ">
<polygon fill="white" stroke="#666666" points="1861,-261 1718,-261 1718,-242 1861,-242 1861,-261"/>
<text text-anchor="middle" x="1789.5" y="-249" font-family="Helvetica,sans-Serif" font-size="10.00">dolphin/os/OSAudioSystem.h</text>
</a>
</g>
</g>
<!-- Node7&#45;&gt;Node16 -->
<g id="edge23" class="edge">
<title>Node7&#45;&gt;Node16</title>
<path fill="none" stroke="#63b8ff" d="M1182.69,-302.39C1277.17,-295.51 1509.3,-278.26 1703.5,-261 1704.51,-260.91 1705.53,-260.82 1706.56,-260.73"/>
<polygon fill="#63b8ff" stroke="#63b8ff" points="1706.57,-264.24 1716.21,-259.84 1705.93,-257.27 1706.57,-264.24"/>
</g>
<!-- Node17 -->
<g id="node17" class="node">
<title>Node17</title>
<g id="a_node17"><a xlink:href="OSCache_8h.html" target="_top" xlink:title=" ">
<polygon fill="white" stroke="#666666" points="1992,-261 1879,-261 1879,-242 1992,-242 1992,-261"/>
<text text-anchor="middle" x="1935.5" y="-249" font-family="Helvetica,sans-Serif" font-size="10.00">dolphin/os/OSCache.h</text>
</a>
</g>
</g>
<!-- Node7&#45;&gt;Node17 -->
<g id="edge25" class="edge">
<title>Node7&#45;&gt;Node17</title>
<path fill="none" stroke="#63b8ff" d="M1182.78,-303.88C1294.25,-299.48 1600.58,-286.03 1867.18,-261.15"/>
<polygon fill="#63b8ff" stroke="#63b8ff" points="1867.51,-264.63 1877.14,-260.21 1866.85,-257.66 1867.51,-264.63"/>
</g>
<!-- Node18 -->
<g id="node18" class="node">
<title>Node18</title>
<g id="a_node18"><a xlink:href="OSExec_8h.html" target="_top" xlink:title=" ">
<polygon fill="white" stroke="#666666" points="383,-261 276,-261 276,-242 383,-242 383,-261"/>
<text text-anchor="middle" x="329.5" y="-249" font-family="Helvetica,sans-Serif" font-size="10.00">dolphin/os/OSExec.h</text>
</a>
</g>
</g>
<!-- Node7&#45;&gt;Node18 -->
<g id="edge29" class="edge">
<title>Node7&#45;&gt;Node18</title>
<path fill="none" stroke="#63b8ff" d="M1096.35,-303.89C982.14,-299.4 662.54,-285.49 397.5,-261 396.49,-260.91 395.47,-260.81 394.45,-260.71"/>
<polygon fill="#63b8ff" stroke="#63b8ff" points="395.1,-257.26 384.79,-259.7 394.38,-264.22 395.1,-257.26"/>
</g>
<!-- Node19 -->
<g id="node19" class="node">
<title>Node19</title>
<g id="a_node19"><a xlink:href="OSFont_8h.html" target="_top" xlink:title=" ">
<polygon fill="white" stroke="#666666" points="442,-145.5 337,-145.5 337,-126.5 442,-126.5 442,-145.5"/>
<text text-anchor="middle" x="389.5" y="-133.5" font-family="Helvetica,sans-Serif" font-size="10.00">dolphin/os/OSFont.h</text>
</a>
</g>
</g>
<!-- Node7&#45;&gt;Node19 -->
<g id="edge31" class="edge">
<title>Node7&#45;&gt;Node19</title>
<path fill="none" stroke="#63b8ff" d="M1096.28,-305.74C964.16,-306.01 567.28,-303.2 446.5,-261 406.11,-246.89 387.31,-243.92 367.5,-206 358.98,-189.68 367.4,-169.45 376.18,-155.12"/>
<polygon fill="#63b8ff" stroke="#63b8ff" points="378.88,-157.39 381.55,-147.13 373.07,-153.48 378.88,-157.39"/>
</g>
<!-- Node20 -->
<g id="node20" class="node">
<title>Node20</title>
<g id="a_node20"><a xlink:href="OSInterrupt_8h.html" target="_top" xlink:title=" ">
<polygon fill="white" stroke="#666666" points="658.5,-206 536.5,-206 536.5,-187 658.5,-187 658.5,-206"/>
<text text-anchor="middle" x="597.5" y="-194" font-family="Helvetica,sans-Serif" font-size="10.00">dolphin/os/OSInterrupt.h</text>
</a>
</g>
</g>
<!-- Node7&#45;&gt;Node20 -->
<g id="edge33" class="edge">
<title>Node7&#45;&gt;Node20</title>
<path fill="none" stroke="#63b8ff" d="M1096.2,-305.79C991.28,-305.83 726.38,-301.77 649.5,-261 630.66,-251.01 616.07,-230.99 607.21,-216.09"/>
<polygon fill="#63b8ff" stroke="#63b8ff" points="610.45,-214.71 602.52,-207.68 604.33,-218.12 610.45,-214.71"/>
</g>
<!-- Node21 -->
<g id="node21" class="node">
<title>Node21</title>
<g id="a_node21"><a xlink:href="OSLink_8h.html" target="_top" xlink:title=" ">
<polygon fill="white" stroke="#666666" points="480.5,-206 376.5,-206 376.5,-187 480.5,-187 480.5,-206"/>
<text text-anchor="middle" x="428.5" y="-194" font-family="Helvetica,sans-Serif" font-size="10.00">dolphin/os/OSLink.h</text>
</a>
</g>
</g>
<!-- Node7&#45;&gt;Node21 -->
<g id="edge35" class="edge">
<title>Node7&#45;&gt;Node21</title>
<path fill="none" stroke="#63b8ff" d="M1096.07,-304.89C956.01,-302.61 522.22,-293.01 468.5,-261 452.07,-251.21 441.33,-231.77 435.16,-216.97"/>
<polygon fill="#63b8ff" stroke="#63b8ff" points="438.5,-215.91 431.7,-207.78 431.95,-218.37 438.5,-215.91"/>
</g>
<!-- Node22 -->
<g id="node22" class="node">
<title>Node22</title>
<g id="a_node22"><a xlink:href="OSMemory_8h.html" target="_top" xlink:title=" ">
<polygon fill="white" stroke="#666666" points="597.5,-261 477.5,-261 477.5,-242 597.5,-242 597.5,-261"/>
<text text-anchor="middle" x="537.5" y="-249" font-family="Helvetica,sans-Serif" font-size="10.00">dolphin/os/OSMemory.h</text>
</a>
</g>
</g>
<!-- Node7&#45;&gt;Node22 -->
<g id="edge37" class="edge">
<title>Node7&#45;&gt;Node22</title>
<path fill="none" stroke="#63b8ff" d="M1096.34,-302.31C1006.2,-295.54 791.37,-278.91 611.5,-261 610.66,-260.92 609.81,-260.83 608.95,-260.74"/>
<polygon fill="#63b8ff" stroke="#63b8ff" points="609.47,-257.28 599.16,-259.72 608.75,-264.24 609.47,-257.28"/>
</g>
<!-- Node23 -->
<g id="node23" class="node">
<title>Node23</title>
<g id="a_node23"><a xlink:href="OSMessage_8h.html" target="_top" xlink:title=" ">
<polygon fill="white" stroke="#666666" points="947,-261 822,-261 822,-242 947,-242 947,-261"/>
<text text-anchor="middle" x="884.5" y="-249" font-family="Helvetica,sans-Serif" font-size="10.00">dolphin/os/OSMessage.h</text>
</a>
</g>
</g>
<!-- Node7&#45;&gt;Node23 -->
<g id="edge40" class="edge">
<title>Node7&#45;&gt;Node23</title>
<path fill="none" stroke="#63b8ff" d="M1096.24,-296.51C1052.79,-287.48 985.71,-273.54 938.73,-263.77"/>
<polygon fill="#63b8ff" stroke="#63b8ff" points="939.53,-260.36 929.03,-261.75 938.1,-267.22 939.53,-260.36"/>
</g>
<!-- Node24 -->
<g id="node24" class="node">
<title>Node24</title>
<g id="a_node24"><a xlink:href="OSThread_8h.html" target="_top" xlink:title=" ">
<polygon fill="white" stroke="#666666" points="830.5,-206 714.5,-206 714.5,-187 830.5,-187 830.5,-206"/>
<text text-anchor="middle" x="772.5" y="-194" font-family="Helvetica,sans-Serif" font-size="10.00">dolphin/os/OSThread.h</text>
</a>
</g>
</g>
<!-- Node7&#45;&gt;Node24 -->
<g id="edge55" class="edge">
<title>Node7&#45;&gt;Node24</title>
<path fill="none" stroke="#63b8ff" d="M1100.77,-296.53C1069.99,-288.8 1026.17,-276.46 989.5,-261 973.55,-254.28 971.61,-248.33 955.5,-242 917.33,-227.01 872.63,-216.03 836.97,-208.73"/>
<polygon fill="#63b8ff" stroke="#63b8ff" points="837.7,-205.3 827.21,-206.78 836.33,-212.17 837.7,-205.3"/>
</g>
<!-- Node25 -->
<g id="node25" class="node">
<title>Node25</title>
<g id="a_node25"><a xlink:href="OSMutex_8h.html" target="_top" xlink:title=" ">
<polygon fill="white" stroke="#666666" points="803.5,-261 691.5,-261 691.5,-242 803.5,-242 803.5,-261"/>
<text text-anchor="middle" x="747.5" y="-249" font-family="Helvetica,sans-Serif" font-size="10.00">dolphin/os/OSMutex.h</text>
</a>
</g>
</g>
<!-- Node7&#45;&gt;Node25 -->
<g id="edge43" class="edge">
<title>Node7&#45;&gt;Node25</title>
<path fill="none" stroke="#63b8ff" d="M1096.05,-299.63C1027.89,-290.41 895.33,-272.49 814.77,-261.6"/>
<polygon fill="#63b8ff" stroke="#63b8ff" points="815.64,-258.18 805.26,-260.31 814.7,-265.12 815.64,-258.18"/>
</g>
<!-- Node26 -->
<g id="node26" class="node">
<title>Node26</title>
<g id="a_node26"><a xlink:href="OSReboot_8h.html" target="_top" xlink:title=" ">
<polygon fill="white" stroke="#666666" points="1088.5,-206 972.5,-206 972.5,-187 1088.5,-187 1088.5,-206"/>
<text text-anchor="middle" x="1030.5" y="-194" font-family="Helvetica,sans-Serif" font-size="10.00">dolphin/os/OSReboot.h</text>
</a>
</g>
</g>
<!-- Node7&#45;&gt;Node26 -->
<g id="edge45" class="edge">
<title>Node7&#45;&gt;Node26</title>
<path fill="none" stroke="#63b8ff" d="M1147.4,-296.55C1157.89,-283.53 1173.73,-259.07 1161.5,-242 1152.08,-228.86 1116.34,-217.23 1084.57,-209.16"/>
<polygon fill="#63b8ff" stroke="#63b8ff" points="1085.56,-205.8 1075.01,-206.82 1083.89,-212.6 1085.56,-205.8"/>
</g>
<!-- Node27 -->
<g id="node27" class="node">
<title>Node27</title>
<g id="a_node27"><a xlink:href="OSReset_8h.html" target="_top" xlink:title=" ">
<polygon fill="white" stroke="#666666" points="1321,-261 1210,-261 1210,-242 1321,-242 1321,-261"/>
<text text-anchor="middle" x="1265.5" y="-249" font-family="Helvetica,sans-Serif" font-size="10.00">dolphin/os/OSReset.h</text>
</a>
</g>
</g>
<!-- Node7&#45;&gt;Node27 -->
<g id="edge47" class="edge">
<title>Node7&#45;&gt;Node27</title>
<path fill="none" stroke="#63b8ff" d="M1160.87,-296.51C1180.91,-288.08 1211.1,-275.38 1233.91,-265.79"/>
<polygon fill="#63b8ff" stroke="#63b8ff" points="1235.19,-269.05 1243.05,-261.94 1232.47,-262.6 1235.19,-269.05"/>
</g>
<!-- Node28 -->
<g id="node28" class="node">
<title>Node28</title>
<g id="a_node28"><a xlink:href="OSResetSW_8h.html" target="_top" xlink:title=" ">
<polygon fill="white" stroke="#666666" points="1397,-206 1270,-206 1270,-187 1397,-187 1397,-206"/>
<text text-anchor="middle" x="1333.5" y="-194" font-family="Helvetica,sans-Serif" font-size="10.00">dolphin/os/OSResetSW.h</text>
</a>
</g>
</g>
<!-- Node7&#45;&gt;Node28 -->
<g id="edge49" class="edge">
<title>Node7&#45;&gt;Node28</title>
<path fill="none" stroke="#63b8ff" d="M1182.69,-302.5C1237.44,-297.69 1327.18,-286.12 1347.5,-261 1357.69,-248.39 1352.05,-229.95 1345.12,-216.18"/>
<polygon fill="#63b8ff" stroke="#63b8ff" points="1348.28,-214.65 1340.32,-207.66 1342.18,-218.09 1348.28,-214.65"/>
</g>
<!-- Node29 -->
<g id="node29" class="node">
<title>Node29</title>
<g id="a_node29"><a xlink:href="OSRtc_8h.html" target="_top" xlink:title=" ">
<polygon fill="white" stroke="#666666" points="1230,-145.5 1129,-145.5 1129,-126.5 1230,-126.5 1230,-145.5"/>
<text text-anchor="middle" x="1179.5" y="-133.5" font-family="Helvetica,sans-Serif" font-size="10.00">dolphin/os/OSRtc.h</text>
</a>
</g>
</g>
<!-- Node7&#45;&gt;Node29 -->
<g id="edge51" class="edge">
<title>Node7&#45;&gt;Node29</title>
<path fill="none" stroke="#63b8ff" d="M1182.64,-305.94C1230.58,-304.51 1308.59,-296.26 1364.5,-261 1390.29,-244.73 1395.9,-234.94 1405.5,-206 1408.16,-197.99 1410.8,-193.57 1405.5,-187 1357.8,-127.92 1312.55,-167.77 1238.5,-151 1234.96,-150.2 1231.3,-149.36 1227.62,-148.5"/>
<polygon fill="#63b8ff" stroke="#63b8ff" points="1228.62,-145.14 1218.08,-146.27 1227.02,-151.96 1228.62,-145.14"/>
</g>
<!-- Node30 -->
<g id="node30" class="node">
<title>Node30</title>
<g id="a_node30"><a xlink:href="OSSync_8h.html" target="_top" xlink:title=" ">
<polygon fill="white" stroke="#666666" points="1355,-145.5 1248,-145.5 1248,-126.5 1355,-126.5 1355,-145.5"/>
<text text-anchor="middle" x="1301.5" y="-133.5" font-family="Helvetica,sans-Serif" font-size="10.00">dolphin/os/OSSync.h</text>
</a>
</g>
</g>
<!-- Node7&#45;&gt;Node30 -->
<g id="edge53" class="edge">
<title>Node7&#45;&gt;Node30</title>
<path fill="none" stroke="#63b8ff" d="M1182.83,-302.26C1245.57,-296.85 1357.78,-284.19 1390.5,-261 1419.59,-240.38 1441.28,-216.67 1421.5,-187 1412.41,-173.37 1375.04,-159.12 1344.39,-149.34"/>
<polygon fill="#63b8ff" stroke="#63b8ff" points="1345.5,-146.01 1334.91,-146.39 1343.42,-152.7 1345.5,-146.01"/>
</g>
<!-- Node8&#45;&gt;Node4 -->
<g id="edge10" class="edge">
<title>Node8&#45;&gt;Node4</title>
<path fill="none" stroke="#63b8ff" d="M1373.24,-122.78C1369.95,-122.15 1366.68,-121.55 1363.5,-121 1262.32,-103.49 1143.08,-89.33 1076.4,-81.98"/>
<polygon fill="#63b8ff" stroke="#63b8ff" points="1077.19,-78.55 1066.87,-80.94 1076.43,-85.5 1077.19,-78.55"/>
</g>
<!-- Node9&#45;&gt;Node4 -->
<g id="edge12" class="edge">
<title>Node9&#45;&gt;Node4</title>
<path fill="none" stroke="#63b8ff" d="M1515.69,-126.02C1508.14,-124.13 1500.07,-122.32 1492.5,-121 1342.97,-95.02 1163.74,-83.3 1076.86,-78.84"/>
<polygon fill="#63b8ff" stroke="#63b8ff" points="1077.15,-75.35 1066.98,-78.34 1076.8,-82.34 1077.15,-75.35"/>
</g>
<!-- Node10&#45;&gt;Node11 -->
<g id="edge14" class="edge">
<title>Node10&#45;&gt;Node11</title>
<path fill="none" stroke="#63b8ff" d="M1114.63,-241.51C1130.25,-233.31 1153.58,-221.07 1171.67,-211.58"/>
<polygon fill="#63b8ff" stroke="#63b8ff" points="1173.05,-214.81 1180.28,-207.06 1169.8,-208.61 1173.05,-214.81"/>
</g>
<!-- Node10&#45;&gt;Node12 -->
<g id="edge16" class="edge">
<title>Node10&#45;&gt;Node12</title>
<path fill="none" stroke="#63b8ff" d="M1064.25,-241.51C1031.49,-232.65 981.25,-219.07 945.26,-209.33"/>
<polygon fill="#63b8ff" stroke="#63b8ff" points="946.61,-206.07 936.05,-206.84 944.78,-212.83 946.61,-206.07"/>
</g>
<!-- Node11&#45;&gt;Node4 -->
<g id="edge15" class="edge">
<title>Node11&#45;&gt;Node4</title>
<path fill="none" stroke="#63b8ff" d="M1163.44,-186.5C1140.15,-179.39 1109.7,-167.83 1086.5,-151 1065.27,-135.6 1046.91,-111.34 1035.79,-94.71"/>
<polygon fill="#63b8ff" stroke="#63b8ff" points="1038.75,-92.84 1030.4,-86.33 1032.87,-96.63 1038.75,-92.84"/>
</g>
<!-- Node12&#45;&gt;Node13 -->
<g id="edge17" class="edge">
<title>Node12&#45;&gt;Node13</title>
<path fill="none" stroke="#63b8ff" d="M881.91,-186.62C860.79,-177.04 826.91,-161.68 802.45,-150.58"/>
<polygon fill="#63b8ff" stroke="#63b8ff" points="804.21,-147.54 793.66,-146.59 801.32,-153.91 804.21,-147.54"/>
</g>
<!-- Node13&#45;&gt;Node4 -->
<g id="edge18" class="edge">
<title>Node13&#45;&gt;Node4</title>
<path fill="none" stroke="#63b8ff" d="M811.05,-126.05C854.96,-115.86 926.83,-99.17 974.88,-88.02"/>
<polygon fill="#63b8ff" stroke="#63b8ff" points="975.53,-91.46 984.48,-85.79 973.95,-84.64 975.53,-91.46"/>
</g>
<!-- Node14&#45;&gt;Node4 -->
<g id="edge20" class="edge">
<title>Node14&#45;&gt;Node4</title>
<path fill="none" stroke="#63b8ff" d="M1622.22,-186.7C1622.99,-170.8 1622.02,-137.4 1602.5,-121 1562.73,-87.57 1211.09,-79.12 1076.55,-77.1"/>
<polygon fill="#63b8ff" stroke="#63b8ff" points="1076.91,-73.6 1066.86,-76.96 1076.81,-80.6 1076.91,-73.6"/>
</g>
<!-- Node15&#45;&gt;Node4 -->
<g id="edge22" class="edge">
<title>Node15&#45;&gt;Node4</title>
<path fill="none" stroke="#63b8ff" d="M1665.3,-126.07C1655.58,-124.16 1645.2,-122.32 1635.5,-121 1429.8,-93.05 1182.59,-81.85 1076.74,-78.11"/>
<polygon fill="#63b8ff" stroke="#63b8ff" points="1077.07,-74.62 1066.95,-77.77 1076.83,-81.61 1077.07,-74.62"/>
</g>
<!-- Node16&#45;&gt;Node4 -->
<g id="edge24" class="edge">
<title>Node16&#45;&gt;Node4</title>
<path fill="none" stroke="#63b8ff" d="M1791.41,-241.57C1795.91,-217.81 1804.32,-152.7 1769.5,-121 1718.56,-74.62 1238.07,-74.59 1076.91,-75.91"/>
<polygon fill="#63b8ff" stroke="#63b8ff" points="1076.9,-72.41 1066.93,-75.99 1076.96,-79.41 1076.9,-72.41"/>
</g>
<!-- Node17&#45;&gt;Node4 -->
<g id="edge26" class="edge">
<title>Node17&#45;&gt;Node4</title>
<path fill="none" stroke="#63b8ff" d="M1929.4,-241.74C1911.74,-217.25 1857.77,-148.07 1793.5,-121 1727.83,-93.34 1238.47,-80.89 1076.44,-77.5"/>
<polygon fill="#63b8ff" stroke="#63b8ff" points="1076.93,-74.01 1066.86,-77.3 1076.79,-81.01 1076.93,-74.01"/>
</g>
<!-- Node18&#45;&gt;Node4 -->
<g id="edge30" class="edge">
<title>Node18&#45;&gt;Node4</title>
<path fill="none" stroke="#63b8ff" d="M325.81,-241.81C316.62,-218.66 295.65,-154.94 327.5,-121 349.52,-97.53 814.42,-82.38 972.45,-77.9"/>
<polygon fill="#63b8ff" stroke="#63b8ff" points="972.32,-81.4 982.22,-77.62 972.12,-74.4 972.32,-81.4"/>
</g>
<!-- Node19&#45;&gt;Node4 -->
<g id="edge32" class="edge">
<title>Node19&#45;&gt;Node4</title>
<path fill="none" stroke="#63b8ff" d="M428.32,-126.01C437.52,-124.12 447.32,-122.31 456.5,-121 645.35,-93.99 872.03,-82.42 972.36,-78.36"/>
<polygon fill="#63b8ff" stroke="#63b8ff" points="972.3,-81.86 982.16,-77.97 972.02,-74.87 972.3,-81.86"/>
</g>
<!-- Node20&#45;&gt;Node13 -->
<g id="edge34" class="edge">
<title>Node20&#45;&gt;Node13</title>
<path fill="none" stroke="#63b8ff" d="M624.08,-186.62C653.63,-176.74 701.59,-160.71 734.96,-149.55"/>
<polygon fill="#63b8ff" stroke="#63b8ff" points="735.86,-152.94 744.24,-146.45 733.64,-146.3 735.86,-152.94"/>
</g>
<!-- Node21&#45;&gt;Node4 -->
<g id="edge36" class="edge">
<title>Node21&#45;&gt;Node4</title>
<path fill="none" stroke="#63b8ff" d="M433.25,-186.65C442.55,-170.34 464.84,-135.87 494.5,-121 577.29,-79.48 855.79,-75.71 972.43,-76.02"/>
<polygon fill="#63b8ff" stroke="#63b8ff" points="972.33,-79.52 982.35,-76.06 972.36,-72.52 972.33,-79.52"/>
</g>
<!-- Node22&#45;&gt;Node4 -->
<g id="edge38" class="edge">
<title>Node22&#45;&gt;Node4</title>
<path fill="none" stroke="#63b8ff" d="M532.58,-241.83C525.87,-228.75 515.93,-203.69 527.5,-187 575.08,-118.34 622.52,-141.53 703.5,-121 796.56,-97.41 908.17,-85.5 972.26,-80.18"/>
<polygon fill="#63b8ff" stroke="#63b8ff" points="972.47,-83.67 982.15,-79.38 971.9,-76.69 972.47,-83.67"/>
</g>
<!-- Node22&#45;&gt;Node20 -->
<g id="edge39" class="edge">
<title>Node22&#45;&gt;Node20</title>
<path fill="none" stroke="#63b8ff" d="M547.68,-241.51C556.26,-233.93 568.77,-222.88 579.1,-213.75"/>
<polygon fill="#63b8ff" stroke="#63b8ff" points="581.16,-216.6 586.34,-207.36 576.53,-211.36 581.16,-216.6"/>
</g>
<!-- Node23&#45;&gt;Node24 -->
<g id="edge41" class="edge">
<title>Node23&#45;&gt;Node24</title>
<path fill="none" stroke="#63b8ff" d="M865.5,-241.51C847.94,-233.2 821.58,-220.73 801.41,-211.18"/>
<polygon fill="#63b8ff" stroke="#63b8ff" points="803.12,-208.12 792.59,-207.01 800.13,-214.45 803.12,-208.12"/>
</g>
<!-- Node24&#45;&gt;Node13 -->
<g id="edge42" class="edge">
<title>Node24&#45;&gt;Node13</title>
<path fill="none" stroke="#63b8ff" d="M772.5,-186.87C772.5,-179 772.5,-167.1 772.5,-156.89"/>
<polygon fill="#63b8ff" stroke="#63b8ff" points="776,-157.18 772.5,-147.18 769,-157.18 776,-157.18"/>
</g>
<!-- Node25&#45;&gt;Node24 -->
<g id="edge44" class="edge">
<title>Node25&#45;&gt;Node24</title>
<path fill="none" stroke="#63b8ff" d="M751.63,-241.75C754.83,-234.96 759.39,-225.3 763.43,-216.73"/>
<polygon fill="#63b8ff" stroke="#63b8ff" points="766.54,-218.35 767.64,-207.81 760.2,-215.36 766.54,-218.35"/>
</g>
<!-- Node26&#45;&gt;Node4 -->
<g id="edge46" class="edge">
<title>Node26&#45;&gt;Node4</title>
<path fill="none" stroke="#63b8ff" d="M1025.18,-186.68C1020.27,-177.97 1013.31,-164.09 1010.5,-151 1006.49,-132.32 1011.54,-110.86 1016.65,-95.79"/>
<polygon fill="#63b8ff" stroke="#63b8ff" points="1019.84,-97.26 1020.07,-86.66 1013.28,-94.8 1019.84,-97.26"/>
</g>
<!-- Node27&#45;&gt;Node4 -->
<g id="edge48" class="edge">
<title>Node27&#45;&gt;Node4</title>
<path fill="none" stroke="#63b8ff" d="M1231.7,-241.51C1204.9,-233.78 1166.85,-221.44 1135.5,-206 1115.65,-196.23 1066.28,-168.31 1052.5,-151 1039.6,-134.81 1032.21,-112.05 1028.3,-95.96"/>
<polygon fill="#63b8ff" stroke="#63b8ff" points="1031.82,-95.68 1026.27,-86.65 1024.98,-97.17 1031.82,-95.68"/>
</g>
<!-- Node28&#45;&gt;Node4 -->
<g id="edge50" class="edge">
<title>Node28&#45;&gt;Node4</title>
<path fill="none" stroke="#63b8ff" d="M1273.42,-186.54C1219.88,-177.92 1146.01,-164.27 1119.5,-151 1101.48,-141.98 1101.21,-133.62 1085.5,-121 1072.88,-110.87 1058.25,-100.16 1046.48,-91.79"/>
<polygon fill="#63b8ff" stroke="#63b8ff" points="1048.8,-89.14 1038.61,-86.24 1044.77,-94.86 1048.8,-89.14"/>
</g>
<!-- Node29&#45;&gt;Node4 -->
<g id="edge52" class="edge">
<title>Node29&#45;&gt;Node4</title>
<path fill="none" stroke="#63b8ff" d="M1155.96,-126.12C1130.13,-116.37 1088.41,-100.62 1058.91,-89.49"/>
<polygon fill="#63b8ff" stroke="#63b8ff" points="1060.27,-86.26 1049.68,-86 1057.8,-92.81 1060.27,-86.26"/>
</g>
<!-- Node30&#45;&gt;Node4 -->
<g id="edge54" class="edge">
<title>Node30&#45;&gt;Node4</title>
<path fill="none" stroke="#63b8ff" d="M1261.53,-126.03C1253.89,-124.34 1245.95,-122.6 1238.5,-121 1183.16,-109.1 1119.65,-95.96 1076.29,-87.06"/>
<polygon fill="#63b8ff" stroke="#63b8ff" points="1077.14,-83.67 1066.64,-85.09 1075.74,-90.52 1077.14,-83.67"/>
</g>
</g>
</svg>
