<?xml version="1.0" encoding="UTF-8" standalone="no"?>
<!DOCTYPE svg PUBLIC "-//W3C//DTD SVG 1.1//EN"
 "http://www.w3.org/Graphics/SVG/1.1/DTD/svg11.dtd">
<!-- Generated by graphviz version 2.44.0 ()
 -->
<!-- Title: libs/JSystem/JKernel/JKRDvdRipper.cpp Pages: 1 -->
<!--zoomable 408 -->
<svg id="main" version="1.1" xmlns="http://www.w3.org/2000/svg" xmlns:xlink="http://www.w3.org/1999/xlink" xml:space="preserve" onload="init(evt)">
<style type="text/css"><![CDATA[
.edge:hover path { stroke: red; }
.edge:hover polygon { stroke: red; fill: red; }
]]></style>
<script type="text/javascript"><![CDATA[
var edges = document.getElementsByTagName('g');
if (edges && edges.length) {
  for (var i=0;i<edges.length;i++) {
    if (edges[i].id.substr(0,4)=='edge') {
      edges[i].setAttribute('class','edge');
    }
  }
}
]]></script>
        <defs>
                <circle id="rim" cx="0" cy="0" r="7"/>
                <circle id="rim2" cx="0" cy="0" r="3.5"/>
                <g id="zoomPlus">
                        <use xlink:href="#rim" fill="#404040">
                                <set attributeName="fill" to="#808080" begin="zoomplus.mouseover" end="zoomplus.mouseout"/>
                        </use>
                        <path d="M-4,0h8M0,-4v8" fill="none" stroke="white" stroke-width="1.5" pointer-events="none"/>
                </g>
                <g id="zoomMin">
                        <use xlink:href="#rim" fill="#404040">
                                <set attributeName="fill" to="#808080" begin="zoomminus.mouseover" end="zoomminus.mouseout"/>
                        </use>
                        <path d="M-4,0h8" fill="none" stroke="white" stroke-width="1.5" pointer-events="none"/>
                </g>
                <g id="dirArrow">
                        <path fill="none" stroke="white" stroke-width="1.5" d="M0,-3.0v7 M-2.5,-0.5L0,-3.0L2.5,-0.5"/>
                </g>
               <g id="resetDef">
                       <use xlink:href="#rim2" fill="#404040">
                               <set attributeName="fill" to="#808080" begin="reset.mouseover" end="reset.mouseout"/>
                       </use>
               </g>
        </defs>

<script type="text/javascript">
var viewWidth = 2157;
var viewHeight = 408;
var sectionId = 'dynsection-0';
</script>
<script xlink:href="svgpan.js"/>
<svg id="graph" class="graph">
<g id="viewport">
<title>libs/JSystem/JKernel/JKRDvdRipper.cpp</title>
<polygon fill="white" stroke="transparent" points="-4,4 -4,-404 2153,-404 2153,4 -4,4"/>
<!-- Node1 -->
<g id="node1" class="node">
<title>Node1</title>
<g id="a_node1"><a xlink:title=" ">
<polygon fill="#bfbfbf" stroke="black" points="1088,-369.5 1088,-399.5 1197,-399.5 1197,-369.5 1088,-369.5"/>
<text text-anchor="start" x="1096" y="-387.5" font-family="Helvetica,sans-Serif" font-size="10.00">libs/JSystem/JKernel</text>
<text text-anchor="middle" x="1142.5" y="-376.5" font-family="Helvetica,sans-Serif" font-size="10.00">/JKRDvdRipper.cpp</text>
</a>
</g>
</g>
<!-- Node2 -->
<g id="node2" class="node">
<title>Node2</title>
<g id="a_node2"><a xlink:href="JKRDvdRipper_8h.html" target="_top" xlink:title=" ">
<polygon fill="white" stroke="black" points="302,-297 302,-316 467,-316 467,-297 302,-297"/>
<text text-anchor="middle" x="384.5" y="-304" font-family="Helvetica,sans-Serif" font-size="10.00">JSystem/JKernel/JKRDvdRipper.h</text>
</a>
</g>
</g>
<!-- Node1&#45;&gt;Node2 -->
<g id="edge1" class="edge">
<title>Node1&#45;&gt;Node2</title>
<path fill="none" stroke="midnightblue" d="M1087.69,-382.65C973.93,-380.17 704.24,-370.47 481.5,-333 461.45,-329.63 439.52,-324.03 421.59,-318.93"/>
<polygon fill="midnightblue" stroke="midnightblue" points="422.39,-315.52 411.81,-316.09 420.43,-322.24 422.39,-315.52"/>
</g>
<!-- Node8 -->
<g id="node8" class="node">
<title>Node8</title>
<g id="a_node8"><a xlink:href="types_8h.html" target="_top" xlink:title=" ">
<polygon fill="white" stroke="black" points="268,-0.5 268,-19.5 349,-19.5 349,-0.5 268,-0.5"/>
<text text-anchor="middle" x="308.5" y="-7.5" font-family="Helvetica,sans-Serif" font-size="10.00">dolphin/types.h</text>
</a>
</g>
</g>
<!-- Node1&#45;&gt;Node8 -->
<g id="edge18" class="edge">
<title>Node1&#45;&gt;Node8</title>
<path fill="none" stroke="midnightblue" d="M1087.82,-382.79C943.03,-380.4 557.88,-370.54 515.5,-333 482.22,-303.52 495.5,-279.45 495.5,-235 495.5,-235 495.5,-235 495.5,-121 495.5,-57.53 414.47,-29.96 359.09,-18.52"/>
<polygon fill="midnightblue" stroke="midnightblue" points="359.56,-15.05 349.08,-16.57 358.22,-21.92 359.56,-15.05"/>
</g>
<!-- Node11 -->
<g id="node11" class="node">
<title>Node11</title>
<g id="a_node11"><a xlink:href="dol2asm_8h.html" target="_top" xlink:title=" ">
<polygon fill="white" stroke="black" points="524,-297 524,-316 585,-316 585,-297 524,-297"/>
<text text-anchor="middle" x="554.5" y="-304" font-family="Helvetica,sans-Serif" font-size="10.00">dol2asm.h</text>
</a>
</g>
</g>
<!-- Node1&#45;&gt;Node11 -->
<g id="edge17" class="edge">
<title>Node1&#45;&gt;Node11</title>
<path fill="none" stroke="midnightblue" d="M1087.83,-381.73C967.81,-377.32 684.78,-363.9 594.5,-333 587.17,-330.49 579.83,-326.38 573.47,-322.19"/>
<polygon fill="midnightblue" stroke="midnightblue" points="575.16,-319.1 564.98,-316.16 571.11,-324.81 575.16,-319.1"/>
</g>
<!-- Node12 -->
<g id="node12" class="node">
<title>Node12</title>
<g id="a_node12"><a xlink:title=" ">
<polygon fill="white" stroke="#bfbfbf" points="603,-291.5 603,-321.5 766,-321.5 766,-291.5 603,-291.5"/>
<text text-anchor="start" x="611" y="-309.5" font-family="Helvetica,sans-Serif" font-size="10.00">asm/JSystem/JKernel</text>
<text text-anchor="middle" x="684.5" y="-298.5" font-family="Helvetica,sans-Serif" font-size="10.00">/JKRDvdRipper/func_802D9B98.s</text>
</a>
</g>
</g>
<!-- Node1&#45;&gt;Node12 -->
<g id="edge19" class="edge">
<title>Node1&#45;&gt;Node12</title>
<path fill="none" stroke="midnightblue" d="M1087.69,-378.32C1015.61,-370.97 885.22,-355.81 775.5,-333 763.83,-330.57 751.45,-327.47 739.71,-324.27"/>
<polygon fill="midnightblue" stroke="midnightblue" points="740.6,-320.88 730.03,-321.57 738.72,-327.63 740.6,-320.88"/>
</g>
<!-- Node13 -->
<g id="node13" class="node">
<title>Node13</title>
<g id="a_node13"><a xlink:title=" ">
<polygon fill="white" stroke="#bfbfbf" points="784,-291.5 784,-321.5 947,-321.5 947,-291.5 784,-291.5"/>
<text text-anchor="start" x="792" y="-309.5" font-family="Helvetica,sans-Serif" font-size="10.00">asm/JSystem/JKernel</text>
<text text-anchor="middle" x="865.5" y="-298.5" font-family="Helvetica,sans-Serif" font-size="10.00">/JKRDvdRipper/func_802D9C54.s</text>
</a>
</g>
</g>
<!-- Node1&#45;&gt;Node13 -->
<g id="edge20" class="edge">
<title>Node1&#45;&gt;Node13</title>
<path fill="none" stroke="midnightblue" d="M1090.36,-369.46C1053.05,-359.39 1001.66,-345.46 956.5,-333 946.43,-330.22 935.74,-327.25 925.37,-324.35"/>
<polygon fill="midnightblue" stroke="midnightblue" points="926.12,-320.93 915.54,-321.6 924.23,-327.67 926.12,-320.93"/>
</g>
<!-- Node14 -->
<g id="node14" class="node">
<title>Node14</title>
<g id="a_node14"><a xlink:title=" ">
<polygon fill="white" stroke="#bfbfbf" points="965,-291.5 965,-321.5 1128,-321.5 1128,-291.5 965,-291.5"/>
<text text-anchor="start" x="973" y="-309.5" font-family="Helvetica,sans-Serif" font-size="10.00">asm/JSystem/JKernel</text>
<text text-anchor="middle" x="1046.5" y="-298.5" font-family="Helvetica,sans-Serif" font-size="10.00">/JKRDvdRipper/func_802D9D10.s</text>
</a>
</g>
</g>
<!-- Node1&#45;&gt;Node14 -->
<g id="edge21" class="edge">
<title>Node1&#45;&gt;Node14</title>
<path fill="none" stroke="midnightblue" d="M1124.44,-369.2C1109.83,-357.63 1089.05,-341.18 1072.62,-328.17"/>
<polygon fill="midnightblue" stroke="midnightblue" points="1074.49,-325.19 1064.48,-321.73 1070.14,-330.68 1074.49,-325.19"/>
</g>
<!-- Node15 -->
<g id="node15" class="node">
<title>Node15</title>
<g id="a_node15"><a xlink:title=" ">
<polygon fill="white" stroke="#bfbfbf" points="1146.5,-280.5 1146.5,-332.5 1332.5,-332.5 1332.5,-280.5 1146.5,-280.5"/>
<text text-anchor="start" x="1154.5" y="-320.5" font-family="Helvetica,sans-Serif" font-size="10.00">asm/JSystem/JKernel</text>
<text text-anchor="start" x="1154.5" y="-309.5" font-family="Helvetica,sans-Serif" font-size="10.00">/JKRDvdRipper/JKRDecompress</text>
<text text-anchor="start" x="1154.5" y="-298.5" font-family="Helvetica,sans-Serif" font-size="10.00">FromDVD__FP10JKRDvdFilePvUlUlUl</text>
<text text-anchor="middle" x="1239.5" y="-287.5" font-family="Helvetica,sans-Serif" font-size="10.00">UlPUl.s</text>
</a>
</g>
</g>
<!-- Node1&#45;&gt;Node15 -->
<g id="edge22" class="edge">
<title>Node1&#45;&gt;Node15</title>
<path fill="none" stroke="midnightblue" d="M1160.74,-369.2C1171.65,-360.66 1185.96,-349.45 1199.38,-338.93"/>
<polygon fill="midnightblue" stroke="midnightblue" points="1201.87,-341.43 1207.59,-332.5 1197.56,-335.92 1201.87,-341.43"/>
</g>
<!-- Node16 -->
<g id="node16" class="node">
<title>Node16</title>
<g id="a_node16"><a xlink:title=" ">
<polygon fill="white" stroke="#bfbfbf" points="1350.5,-286 1350.5,-327 1490.5,-327 1490.5,-286 1350.5,-286"/>
<text text-anchor="start" x="1358.5" y="-315" font-family="Helvetica,sans-Serif" font-size="10.00">asm/JSystem/JKernel</text>
<text text-anchor="start" x="1358.5" y="-304" font-family="Helvetica,sans-Serif" font-size="10.00">/JKRDvdRipper/decompSZS</text>
<text text-anchor="middle" x="1420.5" y="-293" font-family="Helvetica,sans-Serif" font-size="10.00">_subroutine__FPUcPUc.s</text>
</a>
</g>
</g>
<!-- Node1&#45;&gt;Node16 -->
<g id="edge23" class="edge">
<title>Node1&#45;&gt;Node16</title>
<path fill="none" stroke="midnightblue" d="M1197.23,-370.61C1237.35,-360.91 1293.03,-346.96 1341.5,-333 1344.78,-332.05 1348.14,-331.06 1351.52,-330.05"/>
<polygon fill="midnightblue" stroke="midnightblue" points="1352.56,-333.39 1361.1,-327.12 1350.51,-326.7 1352.56,-333.39"/>
</g>
<!-- Node17 -->
<g id="node17" class="node">
<title>Node17</title>
<g id="a_node17"><a xlink:title=" ">
<polygon fill="white" stroke="#bfbfbf" points="1509,-291.5 1509,-321.5 1676,-321.5 1676,-291.5 1509,-291.5"/>
<text text-anchor="start" x="1517" y="-309.5" font-family="Helvetica,sans-Serif" font-size="10.00">asm/JSystem/JKernel</text>
<text text-anchor="middle" x="1592.5" y="-298.5" font-family="Helvetica,sans-Serif" font-size="10.00">/JKRDvdRipper/firstSrcData__Fv.s</text>
</a>
</g>
</g>
<!-- Node1&#45;&gt;Node17 -->
<g id="edge24" class="edge">
<title>Node1&#45;&gt;Node17</title>
<path fill="none" stroke="midnightblue" d="M1197,-377.97C1267.34,-370.34 1393.3,-354.98 1499.5,-333 1511.41,-330.53 1524.05,-327.42 1536.05,-324.21"/>
<polygon fill="midnightblue" stroke="midnightblue" points="1537.22,-327.52 1545.95,-321.51 1535.38,-320.77 1537.22,-327.52"/>
</g>
<!-- Node18 -->
<g id="node18" class="node">
<title>Node18</title>
<g id="a_node18"><a xlink:title=" ">
<polygon fill="white" stroke="#bfbfbf" points="1694.5,-286 1694.5,-327 1834.5,-327 1834.5,-286 1694.5,-286"/>
<text text-anchor="start" x="1702.5" y="-315" font-family="Helvetica,sans-Serif" font-size="10.00">asm/JSystem/JKernel</text>
<text text-anchor="start" x="1702.5" y="-304" font-family="Helvetica,sans-Serif" font-size="10.00">/JKRDvdRipper/nextSrcData</text>
<text text-anchor="middle" x="1764.5" y="-293" font-family="Helvetica,sans-Serif" font-size="10.00">__FPUc.s</text>
</a>
</g>
</g>
<!-- Node1&#45;&gt;Node18 -->
<g id="edge25" class="edge">
<title>Node1&#45;&gt;Node18</title>
<path fill="none" stroke="midnightblue" d="M1197.03,-382.37C1295.53,-379.47 1509.29,-369.18 1685.5,-333 1690.11,-332.05 1694.83,-330.93 1699.56,-329.7"/>
<polygon fill="midnightblue" stroke="midnightblue" points="1700.53,-333.06 1709.23,-327.03 1698.66,-326.32 1700.53,-333.06"/>
</g>
<!-- Node19 -->
<g id="node19" class="node">
<title>Node19</title>
<g id="a_node19"><a xlink:title=" ">
<polygon fill="white" stroke="#bfbfbf" points="1853,-286 1853,-327 1968,-327 1968,-286 1853,-286"/>
<text text-anchor="start" x="1861" y="-315" font-family="Helvetica,sans-Serif" font-size="10.00">asm/JSystem/JKernel</text>
<text text-anchor="start" x="1861" y="-304" font-family="Helvetica,sans-Serif" font-size="10.00">/JKRDvdRipper/__sinit</text>
<text text-anchor="middle" x="1910.5" y="-293" font-family="Helvetica,sans-Serif" font-size="10.00">_JKRDvdRipper_cpp.s</text>
</a>
</g>
</g>
<!-- Node1&#45;&gt;Node19 -->
<g id="edge26" class="edge">
<title>Node1&#45;&gt;Node19</title>
<path fill="none" stroke="midnightblue" d="M1197.19,-381.62C1339.81,-376.39 1720.49,-360.22 1843.5,-333 1847.12,-332.2 1850.79,-331.24 1854.48,-330.17"/>
<polygon fill="midnightblue" stroke="midnightblue" points="1855.69,-333.46 1864.18,-327.12 1853.59,-326.78 1855.69,-333.46"/>
</g>
<!-- Node20 -->
<g id="node20" class="node">
<title>Node20</title>
<g id="a_node20"><a xlink:title=" ">
<polygon fill="white" stroke="#bfbfbf" points="1986,-291.5 1986,-321.5 2149,-321.5 2149,-291.5 1986,-291.5"/>
<text text-anchor="start" x="1994" y="-309.5" font-family="Helvetica,sans-Serif" font-size="10.00">asm/JSystem/JKernel</text>
<text text-anchor="middle" x="2067.5" y="-298.5" font-family="Helvetica,sans-Serif" font-size="10.00">/JKRDvdRipper/func_802DA820.s</text>
</a>
</g>
</g>
<!-- Node1&#45;&gt;Node20 -->
<g id="edge27" class="edge">
<title>Node1&#45;&gt;Node20</title>
<path fill="none" stroke="midnightblue" d="M1197.18,-384.25C1331.23,-385.2 1686.49,-382.43 1977.5,-333 1989.88,-330.9 2002.99,-327.74 2015.27,-324.35"/>
<polygon fill="midnightblue" stroke="midnightblue" points="2016.24,-327.71 2024.9,-321.6 2014.32,-320.98 2016.24,-327.71"/>
</g>
<!-- Node3 -->
<g id="node3" class="node">
<title>Node3</title>
<g id="a_node3"><a xlink:href="JKRDecomp_8h.html" target="_top" xlink:title=" ">
<polygon fill="white" stroke="black" points="250.5,-224.5 250.5,-243.5 406.5,-243.5 406.5,-224.5 250.5,-224.5"/>
<text text-anchor="middle" x="328.5" y="-231.5" font-family="Helvetica,sans-Serif" font-size="10.00">JSystem/JKernel/JKRDecomp.h</text>
</a>
</g>
</g>
<!-- Node2&#45;&gt;Node3 -->
<g id="edge2" class="edge">
<title>Node2&#45;&gt;Node3</title>
<path fill="none" stroke="midnightblue" d="M377.63,-296.86C368.73,-285.65 353.02,-265.87 341.76,-251.69"/>
<polygon fill="midnightblue" stroke="midnightblue" points="344.38,-249.37 335.42,-243.72 338.9,-253.72 344.38,-249.37"/>
</g>
<!-- Node2&#45;&gt;Node8 -->
<g id="edge16" class="edge">
<title>Node2&#45;&gt;Node8</title>
<path fill="none" stroke="midnightblue" d="M393.75,-296.98C413.39,-277.91 457.5,-229.46 457.5,-179 457.5,-179 457.5,-179 457.5,-121 457.5,-67.94 395.59,-37.58 351.58,-22.7"/>
<polygon fill="midnightblue" stroke="midnightblue" points="352.53,-19.33 341.94,-19.59 350.38,-25.99 352.53,-19.33"/>
</g>
<!-- Node4 -->
<g id="node4" class="node">
<title>Node4</title>
<g id="a_node4"><a xlink:href="JKRCompression_8h.html" target="_top" xlink:title=" ">
<polygon fill="white" stroke="black" points="0,-168.5 0,-187.5 177,-187.5 177,-168.5 0,-168.5"/>
<text text-anchor="middle" x="88.5" y="-175.5" font-family="Helvetica,sans-Serif" font-size="10.00">JSystem/JKernel/JKRCompression.h</text>
</a>
</g>
</g>
<!-- Node3&#45;&gt;Node4 -->
<g id="edge3" class="edge">
<title>Node3&#45;&gt;Node4</title>
<path fill="none" stroke="midnightblue" d="M290.47,-224.44C248.69,-215.04 181.52,-199.93 136.23,-189.74"/>
<polygon fill="midnightblue" stroke="midnightblue" points="136.88,-186.3 126.35,-187.52 135.34,-193.13 136.88,-186.3"/>
</g>
<!-- Node5 -->
<g id="node5" class="node">
<title>Node5</title>
<g id="a_node5"><a xlink:href="JKRThread_8h.html" target="_top" xlink:title=" ">
<polygon fill="white" stroke="black" points="194.5,-168.5 194.5,-187.5 344.5,-187.5 344.5,-168.5 194.5,-168.5"/>
<text text-anchor="middle" x="269.5" y="-175.5" font-family="Helvetica,sans-Serif" font-size="10.00">JSystem/JKernel/JKRThread.h</text>
</a>
</g>
</g>
<!-- Node3&#45;&gt;Node5 -->
<g id="edge4" class="edge">
<title>Node3&#45;&gt;Node5</title>
<path fill="none" stroke="midnightblue" d="M319.02,-224.32C310.3,-216.34 297.16,-204.31 286.6,-194.65"/>
<polygon fill="midnightblue" stroke="midnightblue" points="288.89,-192 279.15,-187.83 284.17,-197.17 288.89,-192"/>
</g>
<!-- Node3&#45;&gt;Node8 -->
<g id="edge15" class="edge">
<title>Node3&#45;&gt;Node8</title>
<path fill="none" stroke="midnightblue" d="M337.45,-224.4C363.92,-197.89 437.74,-115.66 400.5,-56 390.74,-40.36 373.8,-30.01 357.1,-23.23"/>
<polygon fill="midnightblue" stroke="midnightblue" points="357.94,-19.81 347.35,-19.64 355.52,-26.38 357.94,-19.81"/>
</g>
<!-- Node6 -->
<g id="node6" class="node">
<title>Node6</title>
<g id="a_node6"><a xlink:href="JKRDisposer_8h.html" target="_top" xlink:title=" ">
<polygon fill="white" stroke="black" points="47.5,-112.5 47.5,-131.5 205.5,-131.5 205.5,-112.5 47.5,-112.5"/>
<text text-anchor="middle" x="126.5" y="-119.5" font-family="Helvetica,sans-Serif" font-size="10.00">JSystem/JKernel/JKRDisposer.h</text>
</a>
</g>
</g>
<!-- Node5&#45;&gt;Node6 -->
<g id="edge5" class="edge">
<title>Node5&#45;&gt;Node6</title>
<path fill="none" stroke="midnightblue" d="M246.84,-168.44C223.1,-159.48 185.59,-145.31 158.76,-135.18"/>
<polygon fill="midnightblue" stroke="midnightblue" points="159.64,-131.77 149.05,-131.52 157.17,-138.32 159.64,-131.77"/>
</g>
<!-- Node7 -->
<g id="node7" class="node">
<title>Node7</title>
<g id="a_node7"><a xlink:href="JSUList_8h.html" target="_top" xlink:title=" ">
<polygon fill="white" stroke="black" points="24,-56.5 24,-75.5 167,-75.5 167,-56.5 24,-56.5"/>
<text text-anchor="middle" x="95.5" y="-63.5" font-family="Helvetica,sans-Serif" font-size="10.00">JSystem/JSupport/JSUList.h</text>
</a>
</g>
</g>
<!-- Node5&#45;&gt;Node7 -->
<g id="edge9" class="edge">
<title>Node5&#45;&gt;Node7</title>
<path fill="none" stroke="midnightblue" d="M203.49,-168.46C139.01,-159.44 49.04,-144.79 38.5,-132 23.63,-113.96 47.96,-93.81 69.28,-80.8"/>
<polygon fill="midnightblue" stroke="midnightblue" points="71.22,-83.72 78.12,-75.68 67.71,-77.66 71.22,-83.72"/>
</g>
<!-- Node5&#45;&gt;Node8 -->
<g id="edge14" class="edge">
<title>Node5&#45;&gt;Node8</title>
<path fill="none" stroke="midnightblue" d="M264.28,-168.17C257.55,-155.67 247.3,-132.1 252.5,-112 260.83,-79.81 281.87,-46.93 295.66,-27.77"/>
<polygon fill="midnightblue" stroke="midnightblue" points="298.62,-29.65 301.76,-19.53 292.99,-25.49 298.62,-29.65"/>
</g>
<!-- Node9 -->
<g id="node9" class="node">
<title>Node9</title>
<g id="a_node9"><a xlink:href="OS_8h.html" target="_top" xlink:title=" ">
<polygon fill="white" stroke="black" points="261.5,-112.5 261.5,-131.5 347.5,-131.5 347.5,-112.5 261.5,-112.5"/>
<text text-anchor="middle" x="304.5" y="-119.5" font-family="Helvetica,sans-Serif" font-size="10.00">dolphin/os/OS.h</text>
</a>
</g>
</g>
<!-- Node5&#45;&gt;Node9 -->
<g id="edge10" class="edge">
<title>Node5&#45;&gt;Node9</title>
<path fill="none" stroke="midnightblue" d="M275.28,-168.08C280.17,-160.53 287.33,-149.49 293.33,-140.23"/>
<polygon fill="midnightblue" stroke="midnightblue" points="296.33,-142.05 298.83,-131.75 290.45,-138.24 296.33,-142.05"/>
</g>
<!-- Node6&#45;&gt;Node7 -->
<g id="edge6" class="edge">
<title>Node6&#45;&gt;Node7</title>
<path fill="none" stroke="midnightblue" d="M121.38,-112.08C117.09,-104.61 110.84,-93.72 105.56,-84.52"/>
<polygon fill="midnightblue" stroke="midnightblue" points="108.54,-82.68 100.52,-75.75 102.47,-86.17 108.54,-82.68"/>
</g>
<!-- Node6&#45;&gt;Node8 -->
<g id="edge8" class="edge">
<title>Node6&#45;&gt;Node8</title>
<path fill="none" stroke="midnightblue" d="M137.61,-112.46C154.71,-99.49 188.73,-74.4 219.5,-56 239.31,-44.15 262.62,-32.44 280.42,-23.94"/>
<polygon fill="midnightblue" stroke="midnightblue" points="282.13,-27 289.68,-19.56 279.14,-20.67 282.13,-27"/>
</g>
<!-- Node7&#45;&gt;Node8 -->
<g id="edge7" class="edge">
<title>Node7&#45;&gt;Node8</title>
<path fill="none" stroke="midnightblue" d="M129.25,-56.44C166.02,-47.12 224.95,-32.18 265.12,-22"/>
<polygon fill="midnightblue" stroke="midnightblue" points="266.07,-25.37 274.91,-19.52 264.35,-18.58 266.07,-25.37"/>
</g>
<!-- Node9&#45;&gt;Node8 -->
<g id="edge11" class="edge">
<title>Node9&#45;&gt;Node8</title>
<path fill="none" stroke="midnightblue" d="M300.31,-112.19C294.9,-99.72 286.61,-76.18 290.5,-56 292.29,-46.7 295.98,-36.89 299.56,-28.8"/>
<polygon fill="midnightblue" stroke="midnightblue" points="302.77,-30.2 303.88,-19.66 296.44,-27.21 302.77,-30.2"/>
</g>
<!-- Node10 -->
<g id="node10" class="node">
<title>Node10</title>
<g id="a_node10"><a xlink:href="dvd_8h.html" target="_top" xlink:title=" ">
<polygon fill="white" stroke="black" points="299.5,-56.5 299.5,-75.5 391.5,-75.5 391.5,-56.5 299.5,-56.5"/>
<text text-anchor="middle" x="345.5" y="-63.5" font-family="Helvetica,sans-Serif" font-size="10.00">dolphin/dvd/dvd.h</text>
</a>
</g>
</g>
<!-- Node9&#45;&gt;Node10 -->
<g id="edge12" class="edge">
<title>Node9&#45;&gt;Node10</title>
<path fill="none" stroke="midnightblue" d="M311.27,-112.08C317.06,-104.46 325.56,-93.26 332.64,-83.94"/>
<polygon fill="midnightblue" stroke="midnightblue" points="335.6,-85.83 338.86,-75.75 330.02,-81.6 335.6,-85.83"/>
</g>
<!-- Node10&#45;&gt;Node8 -->
<g id="edge13" class="edge">
<title>Node10&#45;&gt;Node8</title>
<path fill="none" stroke="midnightblue" d="M339.39,-56.08C334.22,-48.53 326.65,-37.49 320.31,-28.23"/>
<polygon fill="midnightblue" stroke="midnightblue" points="323.04,-26.02 314.5,-19.75 317.26,-29.98 323.04,-26.02"/>
</g>
</g>
</svg>
        <g id="navigator" transform="translate(0 0)" fill="#404254">
                <rect fill="#f2f5e9" fill-opacity="0.5" stroke="#606060" stroke-width=".5" x="0" y="0" width="60" height="60"/>
                <use id="zoomplus" xlink:href="#zoomPlus" x="17" y="9" onmousedown="handleZoom(evt,'in')"/>
                <use id="zoomminus" xlink:href="#zoomMin" x="42" y="9" onmousedown="handleZoom(evt,'out')"/>
                <use id="reset" xlink:href="#resetDef" x="30" y="36" onmousedown="handleReset()"/>
                <g id="arrowUp" xlink:href="#dirArrow" transform="translate(30 24)" onmousedown="handlePan(0,-1)">
                  <use xlink:href="#rim" fill="#404040">
                        <set attributeName="fill" to="#808080" begin="arrowUp.mouseover" end="arrowUp.mouseout"/>
                  </use>
                  <path fill="none" stroke="white" stroke-width="1.5" d="M0,-3.0v7 M-2.5,-0.5L0,-3.0L2.5,-0.5"/>
                </g>
                <g id="arrowRight" xlink:href="#dirArrow" transform="rotate(90) translate(36 -43)" onmousedown="handlePan(1,0)">
                  <use xlink:href="#rim" fill="#404040">
                        <set attributeName="fill" to="#808080" begin="arrowRight.mouseover" end="arrowRight.mouseout"/>
                  </use>
                  <path fill="none" stroke="white" stroke-width="1.5" d="M0,-3.0v7 M-2.5,-0.5L0,-3.0L2.5,-0.5"/>
                </g>
                <g id="arrowDown" xlink:href="#dirArrow" transform="rotate(180) translate(-30 -48)" onmousedown="handlePan(0,1)">
                  <use xlink:href="#rim" fill="#404040">
                        <set attributeName="fill" to="#808080" begin="arrowDown.mouseover" end="arrowDown.mouseout"/>
                  </use>
                  <path fill="none" stroke="white" stroke-width="1.5" d="M0,-3.0v7 M-2.5,-0.5L0,-3.0L2.5,-0.5"/>
                </g>
                <g id="arrowLeft" xlink:href="#dirArrow" transform="rotate(270) translate(-36 17)" onmousedown="handlePan(-1,0)">
                  <use xlink:href="#rim" fill="#404040">
                        <set attributeName="fill" to="#808080" begin="arrowLeft.mouseover" end="arrowLeft.mouseout"/>
                  </use>
                  <path fill="none" stroke="white" stroke-width="1.5" d="M0,-3.0v7 M-2.5,-0.5L0,-3.0L2.5,-0.5"/>
                </g>
        </g>
        <svg viewBox="0 0 15 15" width="100%" height="30px" preserveAspectRatio="xMaxYMin meet">
         <g id="arrow_out" transform="scale(0.3 0.3)">
          <a xlink:href="JKRDvdRipper_8cpp__incl_org.svg" target="_base">
           <rect id="button" ry="5" rx="5" y="6" x="6" height="38" width="38"
                fill="#f2f5e9" fill-opacity="0.5" stroke="#606060" stroke-width="1.0"/>
           <path id="arrow"
             d="M 11.500037,31.436501 C 11.940474,20.09759 22.043105,11.32322 32.158766,21.979434 L 37.068811,17.246167 C 37.068811,17.246167 37.088388,32 37.088388,32 L 22.160133,31.978069 C 22.160133,31.978069 26.997745,27.140456 26.997745,27.140456 C 18.528582,18.264221 13.291696,25.230495 11.500037,31.436501 z"
             style="fill:#404040;"/>
          </a>
         </g>
        </svg>
</svg>
