<?xml version="1.0" encoding="UTF-8" standalone="no"?>
<!DOCTYPE svg PUBLIC "-//W3C//DTD SVG 1.1//EN"
 "http://www.w3.org/Graphics/SVG/1.1/DTD/svg11.dtd">
<!-- Generated by graphviz version 7.0.5 (20221223.1930)
 -->
<!-- Title: libs/JSystem/JKernel/JKRDecomp.cpp Pages: 1 -->
<!--zoomable 511 -->
<svg id="main" version="1.1" xmlns="http://www.w3.org/2000/svg" xmlns:xlink="http://www.w3.org/1999/xlink" xml:space="preserve" onload="init(evt)">
<style type="text/css"><![CDATA[
.edge:hover path { stroke: red; }
.edge:hover polygon { stroke: red; fill: red; }
]]></style>
<script type="text/javascript"><![CDATA[
var edges = document.getElementsByTagName('g');
if (edges && edges.length) {
  for (var i=0;i<edges.length;i++) {
    if (edges[i].id.substr(0,4)=='edge') {
      edges[i].setAttribute('class','edge');
    }
  }
}
]]></script>
        <defs>
                <circle id="rim" cx="0" cy="0" r="7"/>
                <circle id="rim2" cx="0" cy="0" r="3.5"/>
                <g id="zoomPlus">
                        <use xlink:href="#rim" fill="#404040">
                                <set attributeName="fill" to="#808080" begin="zoomplus.mouseover" end="zoomplus.mouseout"/>
                        </use>
                        <path d="M-4,0h8M0,-4v8" fill="none" stroke="white" stroke-width="1.5" pointer-events="none"/>
                </g>
                <g id="zoomMin">
                        <use xlink:href="#rim" fill="#404040">
                                <set attributeName="fill" to="#808080" begin="zoomminus.mouseover" end="zoomminus.mouseout"/>
                        </use>
                        <path d="M-4,0h8" fill="none" stroke="white" stroke-width="1.5" pointer-events="none"/>
                </g>
                <g id="dirArrow">
                        <path fill="none" stroke="white" stroke-width="1.5" d="M0,-3.0v7 M-2.5,-0.5L0,-3.0L2.5,-0.5"/>
                </g>
               <g id="resetDef">
                       <use xlink:href="#rim2" fill="#404040">
                               <set attributeName="fill" to="#808080" begin="reset.mouseover" end="reset.mouseout"/>
                       </use>
               </g>
        </defs>

<script type="text/javascript">
var viewWidth = 1143;
var viewHeight = 511;
var sectionId = 'dynsection-0';
</script>
<script xlink:href="svgpan.js"/>
<svg id="graph" class="graph">
<g id="viewport">
<title>libs/JSystem/JKernel/JKRDecomp.cpp</title>
<!-- Node1 -->
<g id="node1" class="node">
<title>Node1</title>
<g id="a_node1"><a xlink:title=" ">
<polygon fill="#999999" stroke="#666666" points="783.26,-503 674.26,-503 674.26,-473 783.26,-473 783.26,-503"/>
<text text-anchor="start" x="682.26" y="-491" font-family="Helvetica,sans-Serif" font-size="10.00">libs/JSystem/JKernel</text>
<text text-anchor="middle" x="728.76" y="-480" font-family="Helvetica,sans-Serif" font-size="10.00">/JKRDecomp.cpp</text>
</a>
</g>
</g>
<!-- Node2 -->
<g id="node2" class="node">
<title>Node2</title>
<g id="a_node2"><a xlink:href="JKRDecomp_8h.html" target="_top" xlink:title=" ">
<polygon fill="white" stroke="#666666" points="598.76,-426 442.76,-426 442.76,-407 598.76,-407 598.76,-426"/>
<text text-anchor="middle" x="520.76" y="-414" font-family="Helvetica,sans-Serif" font-size="10.00">JSystem/JKernel/JKRDecomp.h</text>
</a>
</g>
</g>
<!-- Node1&#45;&gt;Node2 -->
<g id="edge1" class="edge">
<title>Node1&#45;&gt;Node2</title>
<path fill="none" stroke="#63b8ff" d="M685.41,-472.52C647.76,-459.93 593.79,-441.9 558.04,-429.96"/>
<polygon fill="#63b8ff" stroke="#63b8ff" points="559.6,-426.79 549,-426.94 557.38,-433.42 559.6,-426.79"/>
</g>
<!-- Node9 -->
<g id="node9" class="node">
<title>Node9</title>
<g id="a_node9"><a xlink:href="JKRHeap_8h.html" target="_top" xlink:title=" ">
<polygon fill="white" stroke="#666666" points="807.26,-305 664.26,-305 664.26,-286 807.26,-286 807.26,-305"/>
<text text-anchor="middle" x="735.76" y="-293" font-family="Helvetica,sans-Serif" font-size="10.00">JSystem/JKernel/JKRHeap.h</text>
</a>
</g>
</g>
<!-- Node1&#45;&gt;Node9 -->
<g id="edge39" class="edge">
<title>Node1&#45;&gt;Node9</title>
<path fill="none" stroke="#63b8ff" d="M729.2,-472.9C730.01,-446.85 731.85,-389.4 733.76,-341 734.08,-333.08 734.46,-324.37 734.81,-316.77"/>
<polygon fill="#63b8ff" stroke="#63b8ff" points="738.3,-317.03 735.27,-306.88 731.31,-316.7 738.3,-317.03"/>
</g>
<!-- Node15 -->
<g id="node15" class="node">
<title>Node15</title>
<g id="a_node15"><a xlink:href="JKRAramPiece_8h.html" target="_top" xlink:title=" ">
<polygon fill="white" stroke="#666666" points="1031.76,-305 863.76,-305 863.76,-286 1031.76,-286 1031.76,-305"/>
<text text-anchor="middle" x="947.76" y="-293" font-family="Helvetica,sans-Serif" font-size="10.00">JSystem/JKernel/JKRAramPiece.h</text>
</a>
</g>
</g>
<!-- Node1&#45;&gt;Node15 -->
<g id="edge24" class="edge">
<title>Node1&#45;&gt;Node15</title>
<path fill="none" stroke="#63b8ff" d="M731.78,-472.8C736.52,-453.43 747.35,-418.56 767.76,-396 806.74,-352.92 868.88,-324.41 909,-309.35"/>
<polygon fill="#63b8ff" stroke="#63b8ff" points="910.07,-312.68 918.27,-305.97 907.68,-306.1 910.07,-312.68"/>
</g>
<!-- Node17 -->
<g id="node17" class="node">
<title>Node17</title>
<g id="a_node17"><a xlink:href="JKRArchive_8h.html" target="_top" xlink:title=" ">
<polygon fill="white" stroke="#666666" points="154.26,-360 1.26,-360 1.26,-341 154.26,-341 154.26,-360"/>
<text text-anchor="middle" x="77.76" y="-348" font-family="Helvetica,sans-Serif" font-size="10.00">JSystem/JKernel/JKRArchive.h</text>
</a>
</g>
</g>
<!-- Node1&#45;&gt;Node17 -->
<g id="edge31" class="edge">
<title>Node1&#45;&gt;Node17</title>
<path fill="none" stroke="#63b8ff" d="M673.92,-478.84C614.52,-469.74 517.1,-454.05 433.76,-437 321.03,-413.94 189.72,-380.74 122.47,-363.27"/>
<polygon fill="#63b8ff" stroke="#63b8ff" points="123.49,-359.92 112.93,-360.78 121.72,-366.69 123.49,-359.92"/>
</g>
<!-- Node20 -->
<g id="node20" class="node">
<title>Node20</title>
<g id="a_node20"><a xlink:href="dol2asm_8h.html" target="_top" xlink:title=" ">
<polygon fill="white" stroke="#666666" points="837.26,-426 776.26,-426 776.26,-407 837.26,-407 837.26,-426"/>
<text text-anchor="middle" x="806.76" y="-414" font-family="Helvetica,sans-Serif" font-size="10.00">dol2asm.h</text>
</a>
</g>
</g>
<!-- Node1&#45;&gt;Node20 -->
<g id="edge40" class="edge">
<title>Node1&#45;&gt;Node20</title>
<path fill="none" stroke="#63b8ff" d="M744.93,-472.6C757.69,-461.23 775.49,-445.37 788.71,-433.58"/>
<polygon fill="#63b8ff" stroke="#63b8ff" points="790.76,-436.45 795.89,-427.19 786.1,-431.23 790.76,-436.45"/>
</g>
<!-- Node21 -->
<g id="node21" class="node">
<title>Node21</title>
<g id="a_node21"><a xlink:title=" ">
<polygon fill="#e0e0e0" stroke="#999999" points="1014.26,-437 855.26,-437 855.26,-396 1014.26,-396 1014.26,-437"/>
<text text-anchor="start" x="863.26" y="-425" font-family="Helvetica,sans-Serif" font-size="10.00">asm/JSystem/JKernel</text>
<text text-anchor="start" x="863.26" y="-414" font-family="Helvetica,sans-Serif" font-size="10.00">/JKRDecomp/decodeSZS</text>
<text text-anchor="middle" x="934.76" y="-403" font-family="Helvetica,sans-Serif" font-size="10.00">__9JKRDecompFPUcPUcUlUl.s</text>
</a>
</g>
</g>
<!-- Node1&#45;&gt;Node21 -->
<g id="edge41" class="edge">
<title>Node1&#45;&gt;Node21</title>
<path fill="none" stroke="#63b8ff" d="M771.7,-472.52C798.7,-463.41 834.17,-451.44 865.13,-440.99"/>
<polygon fill="#63b8ff" stroke="#63b8ff" points="866.08,-444.37 874.44,-437.85 863.84,-437.73 866.08,-444.37"/>
</g>
<!-- Node3 -->
<g id="node3" class="node">
<title>Node3</title>
<g id="a_node3"><a xlink:href="JKRCompression_8h.html" target="_top" xlink:title=" ">
<polygon fill="white" stroke="#666666" points="192.26,-305 15.26,-305 15.26,-286 192.26,-286 192.26,-305"/>
<text text-anchor="middle" x="103.76" y="-293" font-family="Helvetica,sans-Serif" font-size="10.00">JSystem/JKernel/JKRCompression.h</text>
</a>
</g>
</g>
<!-- Node2&#45;&gt;Node3 -->
<g id="edge2" class="edge">
<title>Node2&#45;&gt;Node3</title>
<path fill="none" stroke="#63b8ff" d="M442.46,-409.9C377.58,-403.33 283.85,-389.34 206.76,-360 175.86,-348.24 144.02,-326.93 124.08,-312.27"/>
<polygon fill="#63b8ff" stroke="#63b8ff" points="126.36,-309.6 116.26,-306.39 122.15,-315.2 126.36,-309.6"/>
</g>
<!-- Node4 -->
<g id="node4" class="node">
<title>Node4</title>
<g id="a_node4"><a xlink:href="JKRThread_8h.html" target="_top" xlink:title=" ">
<polygon fill="white" stroke="#666666" points="638.76,-360 488.76,-360 488.76,-341 638.76,-341 638.76,-360"/>
<text text-anchor="middle" x="563.76" y="-348" font-family="Helvetica,sans-Serif" font-size="10.00">JSystem/JKernel/JKRThread.h</text>
</a>
</g>
</g>
<!-- Node2&#45;&gt;Node4 -->
<g id="edge3" class="edge">
<title>Node2&#45;&gt;Node4</title>
<path fill="none" stroke="#63b8ff" d="M526.74,-406.6C533.1,-397.14 543.32,-381.92 551.42,-369.87"/>
<polygon fill="#63b8ff" stroke="#63b8ff" points="554.32,-371.83 556.99,-361.58 548.51,-367.93 554.32,-371.83"/>
</g>
<!-- Node7 -->
<g id="node7" class="node">
<title>Node7</title>
<g id="a_node7"><a xlink:href="types_8h.html" target="_top" xlink:title=" ">
<polygon fill="white" stroke="#666666" points="570.26,-85 489.26,-85 489.26,-66 570.26,-66 570.26,-85"/>
<text text-anchor="middle" x="529.76" y="-73" font-family="Helvetica,sans-Serif" font-size="10.00">dolphin/types.h</text>
</a>
</g>
</g>
<!-- Node2&#45;&gt;Node7 -->
<g id="edge23" class="edge">
<title>Node2&#45;&gt;Node7</title>
<path fill="none" stroke="#63b8ff" d="M471.56,-406.53C386.45,-389.6 220.76,-349.8 220.76,-296.5 220.76,-296.5 220.76,-296.5 220.76,-184.5 220.76,-154.91 218.31,-140.27 240.76,-121 275.41,-91.27 404.05,-81.35 477.49,-78.08"/>
<polygon fill="#63b8ff" stroke="#63b8ff" points="477.42,-81.58 487.27,-77.67 477.13,-74.59 477.42,-81.58"/>
</g>
<!-- Node5 -->
<g id="node5" class="node">
<title>Node5</title>
<g id="a_node5"><a xlink:href="JKRDisposer_8h.html" target="_top" xlink:title=" ">
<polygon fill="white" stroke="#666666" points="569.76,-250 411.76,-250 411.76,-231 569.76,-231 569.76,-250"/>
<text text-anchor="middle" x="490.76" y="-238" font-family="Helvetica,sans-Serif" font-size="10.00">JSystem/JKernel/JKRDisposer.h</text>
</a>
</g>
</g>
<!-- Node4&#45;&gt;Node5 -->
<g id="edge4" class="edge">
<title>Node4&#45;&gt;Node5</title>
<path fill="none" stroke="#63b8ff" d="M557.79,-340.66C545.92,-323.1 519.14,-283.48 503.26,-259.98"/>
<polygon fill="#63b8ff" stroke="#63b8ff" points="506.17,-258.04 497.67,-251.71 500.37,-261.96 506.17,-258.04"/>
</g>
<!-- Node6 -->
<g id="node6" class="node">
<title>Node6</title>
<g id="a_node6"><a xlink:href="JSUList_8h.html" target="_top" xlink:title=" ">
<polygon fill="white" stroke="#666666" points="501.26,-195 358.26,-195 358.26,-176 501.26,-176 501.26,-195"/>
<text text-anchor="middle" x="429.76" y="-183" font-family="Helvetica,sans-Serif" font-size="10.00">JSystem/JSupport/JSUList.h</text>
</a>
</g>
</g>
<!-- Node4&#45;&gt;Node6 -->
<g id="edge16" class="edge">
<title>Node4&#45;&gt;Node6</title>
<path fill="none" stroke="#63b8ff" d="M549.6,-340.63C529.92,-328.31 493.2,-305.37 461.76,-286 435.61,-269.88 417.8,-276.79 402.76,-250 394.37,-235.04 403.82,-216.94 413.77,-203.9"/>
<polygon fill="#63b8ff" stroke="#63b8ff" points="416.17,-206.49 419.89,-196.58 410.8,-202 416.17,-206.49"/>
</g>
<!-- Node4&#45;&gt;Node7 -->
<g id="edge22" class="edge">
<title>Node4&#45;&gt;Node7</title>
<path fill="none" stroke="#63b8ff" d="M568.64,-340.56C578.04,-322.43 597.76,-279.83 597.76,-241.5 597.76,-241.5 597.76,-241.5 597.76,-184.5 597.76,-147.44 568.74,-112.71 548.62,-93.08"/>
<polygon fill="#63b8ff" stroke="#63b8ff" points="551.19,-90.7 541.5,-86.43 546.42,-95.81 551.19,-90.7"/>
</g>
<!-- Node4&#45;&gt;Node9 -->
<g id="edge9" class="edge">
<title>Node4&#45;&gt;Node9</title>
<path fill="none" stroke="#63b8ff" d="M592.94,-340.51C621.32,-331.76 664.64,-318.42 696.13,-308.71"/>
<polygon fill="#63b8ff" stroke="#63b8ff" points="696.76,-312.18 705.28,-305.89 694.7,-305.49 696.76,-312.18"/>
</g>
<!-- Node11 -->
<g id="node11" class="node">
<title>Node11</title>
<g id="a_node11"><a xlink:href="OSThread_8h.html" target="_top" xlink:title=" ">
<polygon fill="white" stroke="#666666" points="856.76,-195 740.76,-195 740.76,-176 856.76,-176 856.76,-195"/>
<text text-anchor="middle" x="798.76" y="-183" font-family="Helvetica,sans-Serif" font-size="10.00">dolphin/os/OSThread.h</text>
</a>
</g>
</g>
<!-- Node4&#45;&gt;Node11 -->
<g id="edge19" class="edge">
<title>Node4&#45;&gt;Node11</title>
<path fill="none" stroke="#63b8ff" d="M575.81,-340.72C603.13,-320.85 672.01,-271.05 730.76,-231 745.54,-220.93 762.34,-209.93 775.55,-201.38"/>
<polygon fill="#63b8ff" stroke="#63b8ff" points="777.08,-204.56 783.59,-196.2 773.28,-198.68 777.08,-204.56"/>
</g>
<!-- Node13 -->
<g id="node13" class="node">
<title>Node13</title>
<g id="a_node13"><a xlink:href="OSMessage_8h.html" target="_top" xlink:title=" ">
<polygon fill="white" stroke="#666666" points="995.26,-250 870.26,-250 870.26,-231 995.26,-231 995.26,-250"/>
<text text-anchor="middle" x="932.76" y="-238" font-family="Helvetica,sans-Serif" font-size="10.00">dolphin/os/OSMessage.h</text>
</a>
</g>
</g>
<!-- Node4&#45;&gt;Node13 -->
<g id="edge17" class="edge">
<title>Node4&#45;&gt;Node13</title>
<path fill="none" stroke="#63b8ff" d="M639.01,-342.77C690.21,-336.64 758.9,-325.3 816.76,-305 826.16,-301.7 876.04,-273.74 907.26,-256.04"/>
<polygon fill="#63b8ff" stroke="#63b8ff" points="908.76,-259.21 915.73,-251.23 905.31,-253.12 908.76,-259.21"/>
</g>
<!-- Node14 -->
<g id="node14" class="node">
<title>Node14</title>
<g id="a_node14"><a xlink:href="OSTime_8h.html" target="_top" xlink:title=" ">
<polygon fill="white" stroke="#666666" points="356.26,-140 249.26,-140 249.26,-121 356.26,-121 356.26,-140"/>
<text text-anchor="middle" x="302.76" y="-128" font-family="Helvetica,sans-Serif" font-size="10.00">dolphin/os/OSTime.h</text>
</a>
</g>
</g>
<!-- Node4&#45;&gt;Node14 -->
<g id="edge20" class="edge">
<title>Node4&#45;&gt;Node14</title>
<path fill="none" stroke="#63b8ff" d="M488.5,-348.46C413.07,-345.64 304.4,-336.11 277.76,-305 239.72,-260.57 272.89,-185.06 291.79,-150.18"/>
<polygon fill="#63b8ff" stroke="#63b8ff" points="294.71,-152.12 296.57,-141.69 288.61,-148.69 294.71,-152.12"/>
</g>
<!-- Node5&#45;&gt;Node6 -->
<g id="edge5" class="edge">
<title>Node5&#45;&gt;Node6</title>
<path fill="none" stroke="#63b8ff" d="M480.42,-230.51C471.69,-222.93 458.97,-211.88 448.47,-202.75"/>
<polygon fill="#63b8ff" stroke="#63b8ff" points="450.95,-200.27 441.1,-196.35 446.36,-205.55 450.95,-200.27"/>
</g>
<!-- Node5&#45;&gt;Node7 -->
<g id="edge8" class="edge">
<title>Node5&#45;&gt;Node7</title>
<path fill="none" stroke="#63b8ff" d="M495.63,-230.57C500.21,-221.77 506.93,-207.82 510.76,-195 520.84,-161.31 525.89,-120.55 528.16,-96.67"/>
<polygon fill="#63b8ff" stroke="#63b8ff" points="531.64,-97.07 529.02,-86.81 524.66,-96.47 531.64,-97.07"/>
</g>
<!-- Node6&#45;&gt;Node7 -->
<g id="edge6" class="edge">
<title>Node6&#45;&gt;Node7</title>
<path fill="none" stroke="#63b8ff" d="M437.95,-175.66C454.5,-157.78 492.22,-117.05 513.81,-93.73"/>
<polygon fill="#63b8ff" stroke="#63b8ff" points="516.21,-96.29 520.44,-86.57 511.08,-91.53 516.21,-96.29"/>
</g>
<!-- Node8 -->
<g id="node8" class="node">
<title>Node8</title>
<g id="a_node8"><a xlink:href="stddef_8h.html" target="_top" xlink:title=" ">
<polygon fill="white" stroke="#666666" points="597.76,-30 461.76,-30 461.76,0 597.76,0 597.76,-30"/>
<text text-anchor="start" x="469.76" y="-18" font-family="Helvetica,sans-Serif" font-size="10.00">MSL_C/MSL_Common/Src</text>
<text text-anchor="middle" x="529.76" y="-7" font-family="Helvetica,sans-Serif" font-size="10.00">/stddef.h</text>
</a>
</g>
</g>
<!-- Node7&#45;&gt;Node8 -->
<g id="edge7" class="edge">
<title>Node7&#45;&gt;Node8</title>
<path fill="none" stroke="#63b8ff" d="M529.76,-65.87C529.76,-59.4 529.76,-50.2 529.76,-41.45"/>
<polygon fill="#63b8ff" stroke="#63b8ff" points="533.26,-41.63 529.76,-31.63 526.26,-41.63 533.26,-41.63"/>
</g>
<!-- Node9&#45;&gt;Node5 -->
<g id="edge10" class="edge">
<title>Node9&#45;&gt;Node5</title>
<path fill="none" stroke="#63b8ff" d="M694.2,-285.51C652.54,-276.5 588.28,-262.6 543.15,-252.83"/>
<polygon fill="#63b8ff" stroke="#63b8ff" points="544.11,-249.46 533.6,-250.77 542.63,-256.3 544.11,-249.46"/>
</g>
<!-- Node9&#45;&gt;Node7 -->
<g id="edge15" class="edge">
<title>Node9&#45;&gt;Node7</title>
<path fill="none" stroke="#63b8ff" d="M731.45,-285.88C717.46,-258.65 670.86,-173.22 611.76,-121 597.37,-108.28 578.71,-97.79 562.82,-90.2"/>
<polygon fill="#63b8ff" stroke="#63b8ff" points="564.28,-87.02 553.73,-86.04 561.37,-93.38 564.28,-87.02"/>
</g>
<!-- Node10 -->
<g id="node10" class="node">
<title>Node10</title>
<g id="a_node10"><a xlink:href="OSMutex_8h.html" target="_top" xlink:title=" ">
<polygon fill="white" stroke="#666666" points="851.76,-250 739.76,-250 739.76,-231 851.76,-231 851.76,-250"/>
<text text-anchor="middle" x="795.76" y="-238" font-family="Helvetica,sans-Serif" font-size="10.00">dolphin/os/OSMutex.h</text>
</a>
</g>
</g>
<!-- Node9&#45;&gt;Node10 -->
<g id="edge11" class="edge">
<title>Node9&#45;&gt;Node10</title>
<path fill="none" stroke="#63b8ff" d="M745.94,-285.51C754.53,-277.93 767.03,-266.88 777.37,-257.75"/>
<polygon fill="#63b8ff" stroke="#63b8ff" points="779.42,-260.6 784.6,-251.36 774.79,-255.36 779.42,-260.6"/>
</g>
<!-- Node10&#45;&gt;Node11 -->
<g id="edge12" class="edge">
<title>Node10&#45;&gt;Node11</title>
<path fill="none" stroke="#63b8ff" d="M796.26,-230.75C796.63,-224.27 797.14,-215.16 797.61,-206.9"/>
<polygon fill="#63b8ff" stroke="#63b8ff" points="801.1,-207.13 798.17,-196.95 794.11,-206.74 801.1,-207.13"/>
</g>
<!-- Node12 -->
<g id="node12" class="node">
<title>Node12</title>
<g id="a_node12"><a xlink:href="OSContext_8h.html" target="_top" xlink:title=" ">
<polygon fill="white" stroke="#666666" points="859.26,-140 740.26,-140 740.26,-121 859.26,-121 859.26,-140"/>
<text text-anchor="middle" x="799.76" y="-128" font-family="Helvetica,sans-Serif" font-size="10.00">dolphin/os/OSContext.h</text>
</a>
</g>
</g>
<!-- Node11&#45;&gt;Node12 -->
<g id="edge13" class="edge">
<title>Node11&#45;&gt;Node12</title>
<path fill="none" stroke="#63b8ff" d="M798.93,-175.75C799.05,-169.27 799.22,-160.16 799.38,-151.9"/>
<polygon fill="#63b8ff" stroke="#63b8ff" points="802.88,-152.02 799.57,-141.96 795.88,-151.89 802.88,-152.02"/>
</g>
<!-- Node12&#45;&gt;Node7 -->
<g id="edge14" class="edge">
<title>Node12&#45;&gt;Node7</title>
<path fill="none" stroke="#63b8ff" d="M753.96,-120.51C706.23,-111.14 631.56,-96.48 581.67,-86.69"/>
<polygon fill="#63b8ff" stroke="#63b8ff" points="582.46,-83.28 571.97,-84.78 581.11,-90.15 582.46,-83.28"/>
</g>
<!-- Node13&#45;&gt;Node11 -->
<g id="edge18" class="edge">
<title>Node13&#45;&gt;Node11</title>
<path fill="none" stroke="#63b8ff" d="M910.03,-230.51C888.54,-222.01 856.03,-209.15 831.7,-199.53"/>
<polygon fill="#63b8ff" stroke="#63b8ff" points="833.15,-196.34 822.57,-195.91 830.58,-202.85 833.15,-196.34"/>
</g>
<!-- Node14&#45;&gt;Node7 -->
<g id="edge21" class="edge">
<title>Node14&#45;&gt;Node7</title>
<path fill="none" stroke="#63b8ff" d="M341.27,-120.51C379.62,-111.55 438.66,-97.77 480.42,-88.02"/>
<polygon fill="#63b8ff" stroke="#63b8ff" points="481.03,-91.47 489.97,-85.79 479.44,-84.66 481.03,-91.47"/>
</g>
<!-- Node15&#45;&gt;Node6 -->
<g id="edge25" class="edge">
<title>Node15&#45;&gt;Node6</title>
<path fill="none" stroke="#63b8ff" d="M903.69,-285.54C859.84,-276.6 790.63,-262.45 730.76,-250 643.82,-231.91 542.83,-210.53 482.72,-197.77"/>
<polygon fill="#63b8ff" stroke="#63b8ff" points="483.61,-194.38 473.11,-195.72 482.16,-201.23 483.61,-194.38"/>
</g>
<!-- Node15&#45;&gt;Node7 -->
<g id="edge30" class="edge">
<title>Node15&#45;&gt;Node7</title>
<path fill="none" stroke="#63b8ff" d="M966.41,-285.51C986.92,-274.27 1015.61,-253.73 1004.76,-231 971.28,-160.84 940.21,-151.65 868.76,-121 818.28,-99.34 663.58,-85.74 581.76,-79.87"/>
<polygon fill="#63b8ff" stroke="#63b8ff" points="582.2,-76.39 571.98,-79.18 581.71,-83.37 582.2,-76.39"/>
</g>
<!-- Node15&#45;&gt;Node10 -->
<g id="edge29" class="edge">
<title>Node15&#45;&gt;Node10</title>
<path fill="none" stroke="#63b8ff" d="M921.98,-285.51C897.34,-276.92 859.95,-263.88 832.26,-254.22"/>
<polygon fill="#63b8ff" stroke="#63b8ff" points="833.45,-250.93 822.85,-250.94 831.14,-257.54 833.45,-250.93"/>
</g>
<!-- Node15&#45;&gt;Node13 -->
<g id="edge28" class="edge">
<title>Node15&#45;&gt;Node13</title>
<path fill="none" stroke="#63b8ff" d="M945.29,-285.75C943.41,-279.11 940.75,-269.73 938.37,-261.31"/>
<polygon fill="#63b8ff" stroke="#63b8ff" points="941.8,-260.57 935.71,-251.9 935.06,-262.47 941.8,-260.57"/>
</g>
<!-- Node16 -->
<g id="node16" class="node">
<title>Node16</title>
<g id="a_node16"><a xlink:href="arq_8h.html" target="_top" xlink:title=" ">
<polygon fill="white" stroke="#666666" points="1135.26,-140 1052.26,-140 1052.26,-121 1135.26,-121 1135.26,-140"/>
<text text-anchor="middle" x="1093.76" y="-128" font-family="Helvetica,sans-Serif" font-size="10.00">dolphin/ar/arq.h</text>
</a>
</g>
</g>
<!-- Node15&#45;&gt;Node16 -->
<g id="edge26" class="edge">
<title>Node15&#45;&gt;Node16</title>
<path fill="none" stroke="#63b8ff" d="M977.18,-285.64C996.43,-278.58 1021.03,-267.03 1037.76,-250 1065.58,-221.68 1081.49,-176.93 1088.81,-151.29"/>
<polygon fill="#63b8ff" stroke="#63b8ff" points="1092.13,-152.42 1091.33,-141.86 1085.36,-150.62 1092.13,-152.42"/>
</g>
<!-- Node16&#45;&gt;Node7 -->
<g id="edge27" class="edge">
<title>Node16&#45;&gt;Node7</title>
<path fill="none" stroke="#63b8ff" d="M1051.91,-122.85C1047.15,-122.18 1042.35,-121.55 1037.76,-121 871.69,-101.14 674.08,-86.36 581.92,-79.97"/>
<polygon fill="#63b8ff" stroke="#63b8ff" points="582.41,-76.5 572.19,-79.31 581.93,-83.48 582.41,-76.5"/>
</g>
<!-- Node17&#45;&gt;Node3 -->
<g id="edge32" class="edge">
<title>Node17&#45;&gt;Node3</title>
<path fill="none" stroke="#63b8ff" d="M82.06,-340.75C85.39,-333.96 90.13,-324.3 94.33,-315.73"/>
<polygon fill="#63b8ff" stroke="#63b8ff" points="97.45,-317.32 98.71,-306.8 91.16,-314.24 97.45,-317.32"/>
</g>
<!-- Node18 -->
<g id="node18" class="node">
<title>Node18</title>
<g id="a_node18"><a xlink:href="JKRFileLoader_8h.html" target="_top" xlink:title=" ">
<polygon fill="white" stroke="#666666" points="452.76,-305 286.76,-305 286.76,-286 452.76,-286 452.76,-305"/>
<text text-anchor="middle" x="369.76" y="-293" font-family="Helvetica,sans-Serif" font-size="10.00">JSystem/JKernel/JKRFileLoader.h</text>
</a>
</g>
</g>
<!-- Node17&#45;&gt;Node18 -->
<g id="edge33" class="edge">
<title>Node17&#45;&gt;Node18</title>
<path fill="none" stroke="#63b8ff" d="M127.3,-340.51C177.58,-331.38 255.49,-317.24 309.36,-307.46"/>
<polygon fill="#63b8ff" stroke="#63b8ff" points="309.77,-310.95 318.99,-305.72 308.52,-304.06 309.77,-310.95"/>
</g>
<!-- Node19 -->
<g id="node19" class="node">
<title>Node19</title>
<g id="a_node19"><a xlink:href="global_8h.html" target="_top" xlink:title=" ">
<polygon fill="white" stroke="#666666" points="101.76,-195 51.76,-195 51.76,-176 101.76,-176 101.76,-195"/>
<text text-anchor="middle" x="76.76" y="-183" font-family="Helvetica,sans-Serif" font-size="10.00">global.h</text>
</a>
</g>
</g>
<!-- Node17&#45;&gt;Node19 -->
<g id="edge37" class="edge">
<title>Node17&#45;&gt;Node19</title>
<path fill="none" stroke="#63b8ff" d="M50.83,-340.53C34.63,-333.58 15.35,-322.2 5.76,-305 -15.12,-267.55 27.8,-224.61 55.59,-202.12"/>
<polygon fill="#63b8ff" stroke="#63b8ff" points="57.39,-205.15 63.12,-196.24 53.08,-199.63 57.39,-205.15"/>
</g>
<!-- Node18&#45;&gt;Node5 -->
<g id="edge34" class="edge">
<title>Node18&#45;&gt;Node5</title>
<path fill="none" stroke="#63b8ff" d="M390.29,-285.51C409.44,-277.12 438.26,-264.5 460.13,-254.92"/>
<polygon fill="#63b8ff" stroke="#63b8ff" points="461.4,-258.18 469.16,-250.97 458.59,-251.77 461.4,-258.18"/>
</g>
<!-- Node18&#45;&gt;Node6 -->
<g id="edge35" class="edge">
<title>Node18&#45;&gt;Node6</title>
<path fill="none" stroke="#63b8ff" d="M367.41,-285.72C364.47,-272.92 360.84,-248.72 369.76,-231 376.12,-218.37 387.95,-208.42 399.44,-201.17"/>
<polygon fill="#63b8ff" stroke="#63b8ff" points="401.07,-204.27 407.98,-196.24 397.57,-198.2 401.07,-204.27"/>
</g>
<!-- Node18&#45;&gt;Node7 -->
<g id="edge36" class="edge">
<title>Node18&#45;&gt;Node7</title>
<path fill="none" stroke="#63b8ff" d="M364.61,-285.75C353.18,-265.09 328.35,-212.3 349.76,-176 377.72,-128.61 437.23,-102.22 480.19,-88.72"/>
<polygon fill="#63b8ff" stroke="#63b8ff" points="480.97,-92.14 489.55,-85.92 478.96,-85.43 480.97,-92.14"/>
</g>
<!-- Node19&#45;&gt;Node7 -->
<g id="edge38" class="edge">
<title>Node19&#45;&gt;Node7</title>
<path fill="none" stroke="#63b8ff" d="M90.96,-175.68C114.22,-161.67 162.31,-134.54 206.76,-121 299.61,-92.72 412.97,-82.36 477.73,-78.6"/>
<polygon fill="#63b8ff" stroke="#63b8ff" points="477.54,-82.12 487.34,-78.08 477.16,-75.13 477.54,-82.12"/>
</g>
</g>
</svg>
        <g id="navigator" transform="translate(0 0)" fill="#404254">
                <rect fill="#f2f5e9" fill-opacity="0.5" stroke="#606060" stroke-width=".5" x="0" y="0" width="60" height="60"/>
                <use id="zoomplus" xlink:href="#zoomPlus" x="17" y="9" onmousedown="handleZoom(evt,'in')"/>
                <use id="zoomminus" xlink:href="#zoomMin" x="42" y="9" onmousedown="handleZoom(evt,'out')"/>
                <use id="reset" xlink:href="#resetDef" x="30" y="36" onmousedown="handleReset()"/>
                <g id="arrowUp" xlink:href="#dirArrow" transform="translate(30 24)" onmousedown="handlePan(0,-1)">
                  <use xlink:href="#rim" fill="#404040">
                        <set attributeName="fill" to="#808080" begin="arrowUp.mouseover" end="arrowUp.mouseout"/>
                  </use>
                  <path fill="none" stroke="white" stroke-width="1.5" d="M0,-3.0v7 M-2.5,-0.5L0,-3.0L2.5,-0.5"/>
                </g>
                <g id="arrowRight" xlink:href="#dirArrow" transform="rotate(90) translate(36 -43)" onmousedown="handlePan(1,0)">
                  <use xlink:href="#rim" fill="#404040">
                        <set attributeName="fill" to="#808080" begin="arrowRight.mouseover" end="arrowRight.mouseout"/>
                  </use>
                  <path fill="none" stroke="white" stroke-width="1.5" d="M0,-3.0v7 M-2.5,-0.5L0,-3.0L2.5,-0.5"/>
                </g>
                <g id="arrowDown" xlink:href="#dirArrow" transform="rotate(180) translate(-30 -48)" onmousedown="handlePan(0,1)">
                  <use xlink:href="#rim" fill="#404040">
                        <set attributeName="fill" to="#808080" begin="arrowDown.mouseover" end="arrowDown.mouseout"/>
                  </use>
                  <path fill="none" stroke="white" stroke-width="1.5" d="M0,-3.0v7 M-2.5,-0.5L0,-3.0L2.5,-0.5"/>
                </g>
                <g id="arrowLeft" xlink:href="#dirArrow" transform="rotate(270) translate(-36 17)" onmousedown="handlePan(-1,0)">
                  <use xlink:href="#rim" fill="#404040">
                        <set attributeName="fill" to="#808080" begin="arrowLeft.mouseover" end="arrowLeft.mouseout"/>
                  </use>
                  <path fill="none" stroke="white" stroke-width="1.5" d="M0,-3.0v7 M-2.5,-0.5L0,-3.0L2.5,-0.5"/>
                </g>
        </g>
        <svg viewBox="0 0 15 15" width="100%" height="30px" preserveAspectRatio="xMaxYMin meet">
         <g id="arrow_out" transform="scale(0.3 0.3)">
          <a xlink:href="JKRDecomp_8cpp__incl_org.svg" target="_base">
           <rect id="button" ry="5" rx="5" y="6" x="6" height="38" width="38"
                fill="#f2f5e9" fill-opacity="0.5" stroke="#606060" stroke-width="1.0"/>
           <path id="arrow"
             d="M 11.500037,31.436501 C 11.940474,20.09759 22.043105,11.32322 32.158766,21.979434 L 37.068811,17.246167 C 37.068811,17.246167 37.088388,32 37.088388,32 L 22.160133,31.978069 C 22.160133,31.978069 26.997745,27.140456 26.997745,27.140456 C 18.528582,18.264221 13.291696,25.230495 11.500037,31.436501 z"
             style="fill:#404040;"/>
          </a>
         </g>
        </svg>
</svg>
