<?xml version="1.0" encoding="UTF-8" standalone="no"?>
<!DOCTYPE svg PUBLIC "-//W3C//DTD SVG 1.1//EN"
 "http://www.w3.org/Graphics/SVG/1.1/DTD/svg11.dtd">
<!-- Generated by graphviz version 7.0.5 (20221223.1930)
 -->
<!-- Title: include/JSystem/JKernel/JKRHeap.h Pages: 1 -->
<svg width="365pt" height="324pt"
 viewBox="0.00 0.00 365.00 324.00" xmlns="http://www.w3.org/2000/svg" xmlns:xlink="http://www.w3.org/1999/xlink">
<g id="graph0" class="graph" transform="scale(1 1) rotate(0) translate(4 320)">
<title>include/JSystem/JKernel/JKRHeap.h</title>
<!-- Node1 -->
<g id="node1" class="node">
<title>Node1</title>
<g id="a_node1"><a xlink:title=" ">
<polygon fill="#999999" stroke="#666666" points="272,-316 147,-316 147,-286 272,-286 272,-316"/>
<text text-anchor="start" x="155" y="-304" font-family="Helvetica,sans-Serif" font-size="10.00">include/JSystem/JKernel</text>
<text text-anchor="middle" x="209.5" y="-293" font-family="Helvetica,sans-Serif" font-size="10.00">/JKRHeap.h</text>
</a>
</g>
</g>
<!-- Node2 -->
<g id="node2" class="node">
<title>Node2</title>
<g id="a_node2"><a xlink:href="JKRDisposer_8h.html" target="_top" xlink:title=" ">
<polygon fill="white" stroke="#666666" points="181.5,-195 23.5,-195 23.5,-176 181.5,-176 181.5,-195"/>
<text text-anchor="middle" x="102.5" y="-183" font-family="Helvetica,sans-Serif" font-size="10.00">JSystem/JKernel/JKRDisposer.h</text>
</a>
</g>
</g>
<!-- Node1&#45;&gt;Node2 -->
<g id="edge1" class="edge">
<title>Node1&#45;&gt;Node2</title>
<path fill="none" stroke="#63b8ff" d="M195.95,-285.63C176.18,-264.65 139.5,-225.75 118.45,-203.42"/>
<polygon fill="#63b8ff" stroke="#63b8ff" points="121.17,-201.21 111.77,-196.33 116.08,-206.01 121.17,-201.21"/>
</g>
<!-- Node4 -->
<g id="node4" class="node">
<title>Node4</title>
<g id="a_node4"><a xlink:href="types_8h.html" target="_top" xlink:title=" ">
<polygon fill="white" stroke="#666666" points="231,-85 150,-85 150,-66 231,-66 231,-85"/>
<text text-anchor="middle" x="190.5" y="-73" font-family="Helvetica,sans-Serif" font-size="10.00">dolphin/types.h</text>
</a>
</g>
</g>
<!-- Node1&#45;&gt;Node4 -->
<g id="edge10" class="edge">
<title>Node1&#45;&gt;Node4</title>
<path fill="none" stroke="#63b8ff" d="M208.28,-285.68C205,-247.1 195.97,-140.9 192.2,-96.46"/>
<polygon fill="#63b8ff" stroke="#63b8ff" points="195.71,-96.41 191.37,-86.74 188.73,-97 195.71,-96.41"/>
</g>
<!-- Node6 -->
<g id="node6" class="node">
<title>Node6</title>
<g id="a_node6"><a xlink:href="OSMutex_8h.html" target="_top" xlink:title=" ">
<polygon fill="white" stroke="#666666" points="350.5,-250 238.5,-250 238.5,-231 350.5,-231 350.5,-250"/>
<text text-anchor="middle" x="294.5" y="-238" font-family="Helvetica,sans-Serif" font-size="10.00">dolphin/os/OSMutex.h</text>
</a>
</g>
</g>
<!-- Node1&#45;&gt;Node6 -->
<g id="edge6" class="edge">
<title>Node1&#45;&gt;Node6</title>
<path fill="none" stroke="#63b8ff" d="M230.51,-285.54C243.36,-276.7 259.77,-265.4 272.75,-256.47"/>
<polygon fill="#63b8ff" stroke="#63b8ff" points="274.39,-259.59 280.65,-251.03 270.43,-253.82 274.39,-259.59"/>
</g>
<!-- Node3 -->
<g id="node3" class="node">
<title>Node3</title>
<g id="a_node3"><a xlink:href="JSUList_8h.html" target="_top" xlink:title=" ">
<polygon fill="white" stroke="#666666" points="143,-140 0,-140 0,-121 143,-121 143,-140"/>
<text text-anchor="middle" x="71.5" y="-128" font-family="Helvetica,sans-Serif" font-size="10.00">JSystem/JSupport/JSUList.h</text>
</a>
</g>
</g>
<!-- Node2&#45;&gt;Node3 -->
<g id="edge2" class="edge">
<title>Node2&#45;&gt;Node3</title>
<path fill="none" stroke="#63b8ff" d="M97.38,-175.75C93.32,-168.81 87.51,-158.86 82.41,-150.16"/>
<polygon fill="#63b8ff" stroke="#63b8ff" points="85.56,-148.61 77.49,-141.75 79.52,-152.15 85.56,-148.61"/>
</g>
<!-- Node2&#45;&gt;Node4 -->
<g id="edge5" class="edge">
<title>Node2&#45;&gt;Node4</title>
<path fill="none" stroke="#63b8ff" d="M113.85,-175.75C124.37,-167.31 140.06,-153.8 151.5,-140 163.11,-125.99 173.73,-108.21 180.95,-95.03"/>
<polygon fill="#63b8ff" stroke="#63b8ff" points="183.85,-97.04 185.45,-86.56 177.67,-93.75 183.85,-97.04"/>
</g>
<!-- Node3&#45;&gt;Node4 -->
<g id="edge3" class="edge">
<title>Node3&#45;&gt;Node4</title>
<path fill="none" stroke="#63b8ff" d="M91.69,-120.51C110.52,-112.12 138.87,-99.5 160.37,-89.92"/>
<polygon fill="#63b8ff" stroke="#63b8ff" points="161.52,-93.24 169.23,-85.97 158.67,-86.85 161.52,-93.24"/>
</g>
<!-- Node5 -->
<g id="node5" class="node">
<title>Node5</title>
<g id="a_node5"><a xlink:href="stddef_8h.html" target="_top" xlink:title=" ">
<polygon fill="white" stroke="#666666" points="258.5,-30 122.5,-30 122.5,0 258.5,0 258.5,-30"/>
<text text-anchor="start" x="130.5" y="-18" font-family="Helvetica,sans-Serif" font-size="10.00">MSL_C/MSL_Common/Src</text>
<text text-anchor="middle" x="190.5" y="-7" font-family="Helvetica,sans-Serif" font-size="10.00">/stddef.h</text>
</a>
</g>
</g>
<!-- Node4&#45;&gt;Node5 -->
<g id="edge4" class="edge">
<title>Node4&#45;&gt;Node5</title>
<path fill="none" stroke="#63b8ff" d="M190.5,-65.87C190.5,-59.4 190.5,-50.2 190.5,-41.45"/>
<polygon fill="#63b8ff" stroke="#63b8ff" points="194,-41.63 190.5,-31.63 187,-41.63 194,-41.63"/>
</g>
<!-- Node7 -->
<g id="node7" class="node">
<title>Node7</title>
<g id="a_node7"><a xlink:href="OSThread_8h.html" target="_top" xlink:title=" ">
<polygon fill="white" stroke="#666666" points="354.5,-195 238.5,-195 238.5,-176 354.5,-176 354.5,-195"/>
<text text-anchor="middle" x="296.5" y="-183" font-family="Helvetica,sans-Serif" font-size="10.00">dolphin/os/OSThread.h</text>
</a>
</g>
</g>
<!-- Node6&#45;&gt;Node7 -->
<g id="edge7" class="edge">
<title>Node6&#45;&gt;Node7</title>
<path fill="none" stroke="#63b8ff" d="M294.83,-230.75C295.07,-224.27 295.42,-215.16 295.73,-206.9"/>
<polygon fill="#63b8ff" stroke="#63b8ff" points="299.23,-207.08 296.11,-196.95 292.23,-206.82 299.23,-207.08"/>
</g>
<!-- Node8 -->
<g id="node8" class="node">
<title>Node8</title>
<g id="a_node8"><a xlink:href="OSContext_8h.html" target="_top" xlink:title=" ">
<polygon fill="white" stroke="#666666" points="357,-140 238,-140 238,-121 357,-121 357,-140"/>
<text text-anchor="middle" x="297.5" y="-128" font-family="Helvetica,sans-Serif" font-size="10.00">dolphin/os/OSContext.h</text>
</a>
</g>
</g>
<!-- Node7&#45;&gt;Node8 -->
<g id="edge8" class="edge">
<title>Node7&#45;&gt;Node8</title>
<path fill="none" stroke="#63b8ff" d="M296.67,-175.75C296.79,-169.27 296.96,-160.16 297.12,-151.9"/>
<polygon fill="#63b8ff" stroke="#63b8ff" points="300.61,-152.02 297.3,-141.96 293.61,-151.89 300.61,-152.02"/>
</g>
<!-- Node8&#45;&gt;Node4 -->
<g id="edge9" class="edge">
<title>Node8&#45;&gt;Node4</title>
<path fill="none" stroke="#63b8ff" d="M279.35,-120.51C262.72,-112.27 237.86,-99.96 218.65,-90.45"/>
<polygon fill="#63b8ff" stroke="#63b8ff" points="220.25,-87.33 209.74,-86.03 217.15,-93.6 220.25,-87.33"/>
</g>
</g>
</svg>
