<?xml version="1.0" encoding="UTF-8" standalone="no"?>
<!DOCTYPE svg PUBLIC "-//W3C//DTD SVG 1.1//EN"
 "http://www.w3.org/Graphics/SVG/1.1/DTD/svg11.dtd">
<!-- Generated by graphviz version 2.44.0 ()
 -->
<!-- Title: include/JSystem/JKernel/JKRMemArchive.h Pages: 1 -->
<!--zoomable 375 -->
<svg id="main" version="1.1" xmlns="http://www.w3.org/2000/svg" xmlns:xlink="http://www.w3.org/1999/xlink" xml:space="preserve" onload="init(evt)">
<style type="text/css"><![CDATA[
.edge:hover path { stroke: red; }
.edge:hover polygon { stroke: red; fill: red; }
]]></style>
<script type="text/javascript"><![CDATA[
var edges = document.getElementsByTagName('g');
if (edges && edges.length) {
  for (var i=0;i<edges.length;i++) {
    if (edges[i].id.substr(0,4)=='edge') {
      edges[i].setAttribute('class','edge');
    }
  }
}
]]></script>
        <defs>
                <circle id="rim" cx="0" cy="0" r="7"/>
                <circle id="rim2" cx="0" cy="0" r="3.5"/>
                <g id="zoomPlus">
                        <use xlink:href="#rim" fill="#404040">
                                <set attributeName="fill" to="#808080" begin="zoomplus.mouseover" end="zoomplus.mouseout"/>
                        </use>
                        <path d="M-4,0h8M0,-4v8" fill="none" stroke="white" stroke-width="1.5" pointer-events="none"/>
                </g>
                <g id="zoomMin">
                        <use xlink:href="#rim" fill="#404040">
                                <set attributeName="fill" to="#808080" begin="zoomminus.mouseover" end="zoomminus.mouseout"/>
                        </use>
                        <path d="M-4,0h8" fill="none" stroke="white" stroke-width="1.5" pointer-events="none"/>
                </g>
                <g id="dirArrow">
                        <path fill="none" stroke="white" stroke-width="1.5" d="M0,-3.0v7 M-2.5,-0.5L0,-3.0L2.5,-0.5"/>
                </g>
               <g id="resetDef">
                       <use xlink:href="#rim2" fill="#404040">
                               <set attributeName="fill" to="#808080" begin="reset.mouseover" end="reset.mouseout"/>
                       </use>
               </g>
        </defs>

<script type="text/javascript">
var viewWidth = 616;
var viewHeight = 375;
var sectionId = 'dynsection-0';
</script>
<script xlink:href="svgpan.js"/>
<svg id="graph" class="graph">
<g id="viewport">
<title>include/JSystem/JKernel/JKRMemArchive.h</title>
<polygon fill="white" stroke="transparent" points="-4,4 -4,-371 611.55,-371 611.55,4 -4,4"/>
<!-- Node1 -->
<g id="node1" class="node">
<title>Node1</title>
<g id="a_node1"><a xlink:title=" ">
<polygon fill="#bfbfbf" stroke="black" points="470.05,-336.5 470.05,-366.5 595.05,-366.5 595.05,-336.5 470.05,-336.5"/>
<text text-anchor="start" x="478.05" y="-354.5" font-family="Helvetica,sans-Serif" font-size="10.00">include/JSystem/JKernel</text>
<text text-anchor="middle" x="532.55" y="-343.5" font-family="Helvetica,sans-Serif" font-size="10.00">/JKRMemArchive.h</text>
</a>
</g>
</g>
<!-- Node2 -->
<g id="node2" class="node">
<title>Node2</title>
<g id="a_node2"><a xlink:href="JKRArchive_8h.html" target="_top" xlink:title=" ">
<polygon fill="white" stroke="black" points="382.05,-280.5 382.05,-299.5 535.05,-299.5 535.05,-280.5 382.05,-280.5"/>
<text text-anchor="middle" x="458.55" y="-287.5" font-family="Helvetica,sans-Serif" font-size="10.00">JSystem/JKernel/JKRArchive.h</text>
</a>
</g>
</g>
<!-- Node1&#45;&gt;Node2 -->
<g id="edge1" class="edge">
<title>Node1&#45;&gt;Node2</title>
<path fill="none" stroke="midnightblue" d="M515.02,-336.4C503.71,-327.31 489.01,-315.49 477.45,-306.19"/>
<polygon fill="midnightblue" stroke="midnightblue" points="479.31,-303.2 469.32,-299.66 474.92,-308.65 479.31,-303.2"/>
</g>
<!-- Node8 -->
<g id="node8" class="node">
<title>Node8</title>
<g id="a_node8"><a xlink:href="types_8h.html" target="_top" xlink:title=" ">
<polygon fill="white" stroke="black" points="284.05,-0.5 284.05,-19.5 365.05,-19.5 365.05,-0.5 284.05,-0.5"/>
<text text-anchor="middle" x="324.55" y="-7.5" font-family="Helvetica,sans-Serif" font-size="10.00">dolphin/types.h</text>
</a>
</g>
</g>
<!-- Node1&#45;&gt;Node8 -->
<g id="edge23" class="edge">
<title>Node1&#45;&gt;Node8</title>
<path fill="none" stroke="midnightblue" d="M549.57,-336.38C571.7,-316.33 607.55,-277.32 607.55,-235 607.55,-235 607.55,-235 607.55,-121 607.55,-71.71 456.55,-35.74 375.15,-19.92"/>
<polygon fill="midnightblue" stroke="midnightblue" points="375.58,-16.44 365.1,-18.01 374.27,-23.32 375.58,-16.44"/>
</g>
<!-- Node3 -->
<g id="node3" class="node">
<title>Node3</title>
<g id="a_node3"><a xlink:href="JKRCompression_8h.html" target="_top" xlink:title=" ">
<polygon fill="white" stroke="black" points="180.05,-168.5 180.05,-187.5 357.05,-187.5 357.05,-168.5 180.05,-168.5"/>
<text text-anchor="middle" x="268.55" y="-175.5" font-family="Helvetica,sans-Serif" font-size="10.00">JSystem/JKernel/JKRCompression.h</text>
</a>
</g>
</g>
<!-- Node2&#45;&gt;Node3 -->
<g id="edge2" class="edge">
<title>Node2&#45;&gt;Node3</title>
<path fill="none" stroke="midnightblue" d="M443.65,-280.37C410.76,-261.33 331.8,-215.62 292.13,-192.65"/>
<polygon fill="midnightblue" stroke="midnightblue" points="293.8,-189.57 283.39,-187.59 290.3,-195.63 293.8,-189.57"/>
</g>
<!-- Node4 -->
<g id="node4" class="node">
<title>Node4</title>
<g id="a_node4"><a xlink:href="JKRDecomp_8h.html" target="_top" xlink:title=" ">
<polygon fill="white" stroke="black" points="118.55,-224.5 118.55,-243.5 274.55,-243.5 274.55,-224.5 118.55,-224.5"/>
<text text-anchor="middle" x="196.55" y="-231.5" font-family="Helvetica,sans-Serif" font-size="10.00">JSystem/JKernel/JKRDecomp.h</text>
</a>
</g>
</g>
<!-- Node2&#45;&gt;Node4 -->
<g id="edge3" class="edge">
<title>Node2&#45;&gt;Node4</title>
<path fill="none" stroke="midnightblue" d="M417.04,-280.44C371.14,-270.98 297.17,-255.74 247.73,-245.55"/>
<polygon fill="midnightblue" stroke="midnightblue" points="248.38,-242.11 237.88,-243.52 246.96,-248.96 248.38,-242.11"/>
</g>
<!-- Node11 -->
<g id="node11" class="node">
<title>Node11</title>
<g id="a_node11"><a xlink:href="JKRFileLoader_8h.html" target="_top" xlink:title=" ">
<polygon fill="white" stroke="black" points="375.55,-168.5 375.55,-187.5 541.55,-187.5 541.55,-168.5 375.55,-168.5"/>
<text text-anchor="middle" x="458.55" y="-175.5" font-family="Helvetica,sans-Serif" font-size="10.00">JSystem/JKernel/JKRFileLoader.h</text>
</a>
</g>
</g>
<!-- Node2&#45;&gt;Node11 -->
<g id="edge17" class="edge">
<title>Node2&#45;&gt;Node11</title>
<path fill="none" stroke="midnightblue" d="M458.55,-280.37C458.55,-262.62 458.55,-221.67 458.55,-197.6"/>
<polygon fill="midnightblue" stroke="midnightblue" points="462.06,-197.59 458.55,-187.59 455.06,-197.59 462.06,-197.59"/>
</g>
<!-- Node12 -->
<g id="node12" class="node">
<title>Node12</title>
<g id="a_node12"><a xlink:href="global_8h.html" target="_top" xlink:title=" ">
<polygon fill="white" stroke="black" points="508.55,-224.5 508.55,-243.5 558.55,-243.5 558.55,-224.5 508.55,-224.5"/>
<text text-anchor="middle" x="533.55" y="-231.5" font-family="Helvetica,sans-Serif" font-size="10.00">global.h</text>
</a>
</g>
</g>
<!-- Node2&#45;&gt;Node12 -->
<g id="edge21" class="edge">
<title>Node2&#45;&gt;Node12</title>
<path fill="none" stroke="midnightblue" d="M470.61,-280.32C482.02,-272.11 499.39,-259.6 512.99,-249.81"/>
<polygon fill="midnightblue" stroke="midnightblue" points="515.22,-252.52 521.29,-243.83 511.13,-246.84 515.22,-252.52"/>
</g>
<!-- Node4&#45;&gt;Node3 -->
<g id="edge4" class="edge">
<title>Node4&#45;&gt;Node3</title>
<path fill="none" stroke="midnightblue" d="M208.12,-224.32C218.98,-216.18 235.44,-203.84 248.44,-194.09"/>
<polygon fill="midnightblue" stroke="midnightblue" points="250.88,-196.63 256.78,-187.83 246.68,-191.03 250.88,-196.63"/>
</g>
<!-- Node5 -->
<g id="node5" class="node">
<title>Node5</title>
<g id="a_node5"><a xlink:href="JKRThread_8h.html" target="_top" xlink:title=" ">
<polygon fill="white" stroke="black" points="12.55,-168.5 12.55,-187.5 162.55,-187.5 162.55,-168.5 12.55,-168.5"/>
<text text-anchor="middle" x="87.55" y="-175.5" font-family="Helvetica,sans-Serif" font-size="10.00">JSystem/JKernel/JKRThread.h</text>
</a>
</g>
</g>
<!-- Node4&#45;&gt;Node5 -->
<g id="edge5" class="edge">
<title>Node4&#45;&gt;Node5</title>
<path fill="none" stroke="midnightblue" d="M179.04,-224.32C161.48,-215.62 134.22,-202.12 114.02,-192.11"/>
<polygon fill="midnightblue" stroke="midnightblue" points="115.54,-188.96 105.02,-187.65 112.43,-195.23 115.54,-188.96"/>
</g>
<!-- Node4&#45;&gt;Node8 -->
<g id="edge16" class="edge">
<title>Node4&#45;&gt;Node8</title>
<path fill="none" stroke="midnightblue" d="M118.42,-224.65C71.46,-217.84 18.07,-206.29 3.55,-188 -1.97,-181.04 0.39,-176.31 3.55,-168 27.34,-105.65 45.69,-89.24 103.55,-56 156.43,-25.63 226.75,-15.56 273.73,-12.32"/>
<polygon fill="midnightblue" stroke="midnightblue" points="274.2,-15.8 283.97,-11.7 273.78,-8.82 274.2,-15.8"/>
</g>
<!-- Node6 -->
<g id="node6" class="node">
<title>Node6</title>
<g id="a_node6"><a xlink:href="JKRDisposer_8h.html" target="_top" xlink:title=" ">
<polygon fill="white" stroke="black" points="245.55,-112.5 245.55,-131.5 403.55,-131.5 403.55,-112.5 245.55,-112.5"/>
<text text-anchor="middle" x="324.55" y="-119.5" font-family="Helvetica,sans-Serif" font-size="10.00">JSystem/JKernel/JKRDisposer.h</text>
</a>
</g>
</g>
<!-- Node5&#45;&gt;Node6 -->
<g id="edge6" class="edge">
<title>Node5&#45;&gt;Node6</title>
<path fill="none" stroke="midnightblue" d="M125.11,-168.44C166.37,-159.04 232.7,-143.93 277.42,-133.74"/>
<polygon fill="midnightblue" stroke="midnightblue" points="278.2,-137.15 287.18,-131.52 276.65,-130.33 278.2,-137.15"/>
</g>
<!-- Node7 -->
<g id="node7" class="node">
<title>Node7</title>
<g id="a_node7"><a xlink:href="JSUList_8h.html" target="_top" xlink:title=" ">
<polygon fill="white" stroke="black" points="253.05,-56.5 253.05,-75.5 396.05,-75.5 396.05,-56.5 253.05,-56.5"/>
<text text-anchor="middle" x="324.55" y="-63.5" font-family="Helvetica,sans-Serif" font-size="10.00">JSystem/JSupport/JSUList.h</text>
</a>
</g>
</g>
<!-- Node5&#45;&gt;Node7 -->
<g id="edge10" class="edge">
<title>Node5&#45;&gt;Node7</title>
<path fill="none" stroke="midnightblue" d="M110.8,-168.35C133.46,-159.74 168.76,-145.84 198.55,-132 215.86,-123.96 219.61,-120.79 236.55,-112 257.37,-101.2 281.05,-89.1 298.59,-80.17"/>
<polygon fill="midnightblue" stroke="midnightblue" points="300.33,-83.22 307.65,-75.57 297.15,-76.98 300.33,-83.22"/>
</g>
<!-- Node5&#45;&gt;Node8 -->
<g id="edge15" class="edge">
<title>Node5&#45;&gt;Node8</title>
<path fill="none" stroke="midnightblue" d="M87.12,-168.42C86.51,-145.65 88.36,-83.52 124.55,-56 167.7,-23.19 230.29,-13.49 273.92,-11.02"/>
<polygon fill="midnightblue" stroke="midnightblue" points="274.2,-14.51 284.03,-10.56 273.88,-7.52 274.2,-14.51"/>
</g>
<!-- Node9 -->
<g id="node9" class="node">
<title>Node9</title>
<g id="a_node9"><a xlink:href="OS_8h.html" target="_top" xlink:title=" ">
<polygon fill="white" stroke="black" points="103.55,-112.5 103.55,-131.5 189.55,-131.5 189.55,-112.5 103.55,-112.5"/>
<text text-anchor="middle" x="146.55" y="-119.5" font-family="Helvetica,sans-Serif" font-size="10.00">dolphin/os/OS.h</text>
</a>
</g>
</g>
<!-- Node5&#45;&gt;Node9 -->
<g id="edge11" class="edge">
<title>Node5&#45;&gt;Node9</title>
<path fill="none" stroke="midnightblue" d="M97.03,-168.32C105.76,-160.34 118.9,-148.31 129.45,-138.65"/>
<polygon fill="midnightblue" stroke="midnightblue" points="131.89,-141.17 136.9,-131.83 127.16,-136 131.89,-141.17"/>
</g>
<!-- Node6&#45;&gt;Node7 -->
<g id="edge7" class="edge">
<title>Node6&#45;&gt;Node7</title>
<path fill="none" stroke="midnightblue" d="M324.55,-112.08C324.55,-105.01 324.55,-94.86 324.55,-85.99"/>
<polygon fill="midnightblue" stroke="midnightblue" points="328.06,-85.75 324.55,-75.75 321.06,-85.75 328.06,-85.75"/>
</g>
<!-- Node6&#45;&gt;Node8 -->
<g id="edge9" class="edge">
<title>Node6&#45;&gt;Node8</title>
<path fill="none" stroke="midnightblue" d="M355.58,-112.44C373.59,-105.69 394.79,-94.3 405.55,-76 419.3,-52.65 388.99,-34.31 361.62,-23.15"/>
<polygon fill="midnightblue" stroke="midnightblue" points="362.72,-19.83 352.13,-19.51 360.21,-26.36 362.72,-19.83"/>
</g>
<!-- Node7&#45;&gt;Node8 -->
<g id="edge8" class="edge">
<title>Node7&#45;&gt;Node8</title>
<path fill="none" stroke="midnightblue" d="M324.55,-56.08C324.55,-49.01 324.55,-38.86 324.55,-29.99"/>
<polygon fill="midnightblue" stroke="midnightblue" points="328.06,-29.75 324.55,-19.75 321.06,-29.75 328.06,-29.75"/>
</g>
<!-- Node9&#45;&gt;Node8 -->
<g id="edge12" class="edge">
<title>Node9&#45;&gt;Node8</title>
<path fill="none" stroke="midnightblue" d="M140.93,-112.41C132.88,-98.92 120.41,-72.6 133.55,-56 150.77,-34.26 223.32,-21.97 273.87,-15.91"/>
<polygon fill="midnightblue" stroke="midnightblue" points="274.45,-19.36 283.98,-14.74 273.65,-12.41 274.45,-19.36"/>
</g>
<!-- Node10 -->
<g id="node10" class="node">
<title>Node10</title>
<g id="a_node10"><a xlink:href="dvd_8h.html" target="_top" xlink:title=" ">
<polygon fill="white" stroke="black" points="142.55,-56.5 142.55,-75.5 234.55,-75.5 234.55,-56.5 142.55,-56.5"/>
<text text-anchor="middle" x="188.55" y="-63.5" font-family="Helvetica,sans-Serif" font-size="10.00">dolphin/dvd/dvd.h</text>
</a>
</g>
</g>
<!-- Node9&#45;&gt;Node10 -->
<g id="edge13" class="edge">
<title>Node9&#45;&gt;Node10</title>
<path fill="none" stroke="midnightblue" d="M153.49,-112.08C159.48,-104.38 168.31,-93.03 175.6,-83.65"/>
<polygon fill="midnightblue" stroke="midnightblue" points="178.37,-85.79 181.75,-75.75 172.85,-81.5 178.37,-85.79"/>
</g>
<!-- Node10&#45;&gt;Node8 -->
<g id="edge14" class="edge">
<title>Node10&#45;&gt;Node8</title>
<path fill="none" stroke="midnightblue" d="M210.1,-56.44C232.59,-47.52 268.04,-33.44 293.53,-23.32"/>
<polygon fill="midnightblue" stroke="midnightblue" points="295.1,-26.46 303.11,-19.52 292.52,-19.95 295.1,-26.46"/>
</g>
<!-- Node11&#45;&gt;Node6 -->
<g id="edge18" class="edge">
<title>Node11&#45;&gt;Node6</title>
<path fill="none" stroke="midnightblue" d="M437.32,-168.44C415.17,-159.52 380.24,-145.44 355.12,-135.32"/>
<polygon fill="midnightblue" stroke="midnightblue" points="356.27,-132.01 345.69,-131.52 353.66,-138.5 356.27,-132.01"/>
</g>
<!-- Node11&#45;&gt;Node7 -->
<g id="edge19" class="edge">
<title>Node11&#45;&gt;Node7</title>
<path fill="none" stroke="midnightblue" d="M454.25,-168.42C447.13,-154.95 431.78,-128.65 412.55,-112 396.47,-98.07 375.31,-87.07 357.78,-79.44"/>
<polygon fill="midnightblue" stroke="midnightblue" points="359.04,-76.17 348.46,-75.55 356.34,-82.63 359.04,-76.17"/>
</g>
<!-- Node11&#45;&gt;Node8 -->
<g id="edge20" class="edge">
<title>Node11&#45;&gt;Node8</title>
<path fill="none" stroke="midnightblue" d="M458.15,-168.24C456.7,-146.57 450.12,-89.82 420.55,-56 407,-40.49 386.95,-29.95 368.68,-22.98"/>
<polygon fill="midnightblue" stroke="midnightblue" points="369.64,-19.61 359.05,-19.57 367.31,-26.21 369.64,-19.61"/>
</g>
<!-- Node12&#45;&gt;Node8 -->
<g id="edge22" class="edge">
<title>Node12&#45;&gt;Node8</title>
<path fill="none" stroke="midnightblue" d="M539.26,-224.35C546.87,-211.67 558.5,-187.43 550.55,-168 524.15,-103.42 498.83,-94.37 440.55,-56 418,-41.15 389.82,-30.07 366.88,-22.63"/>
<polygon fill="midnightblue" stroke="midnightblue" points="367.66,-19.2 357.07,-19.56 365.57,-25.89 367.66,-19.2"/>
</g>
</g>
</svg>
        <g id="navigator" transform="translate(0 0)" fill="#404254">
                <rect fill="#f2f5e9" fill-opacity="0.5" stroke="#606060" stroke-width=".5" x="0" y="0" width="60" height="60"/>
                <use id="zoomplus" xlink:href="#zoomPlus" x="17" y="9" onmousedown="handleZoom(evt,'in')"/>
                <use id="zoomminus" xlink:href="#zoomMin" x="42" y="9" onmousedown="handleZoom(evt,'out')"/>
                <use id="reset" xlink:href="#resetDef" x="30" y="36" onmousedown="handleReset()"/>
                <g id="arrowUp" xlink:href="#dirArrow" transform="translate(30 24)" onmousedown="handlePan(0,-1)">
                  <use xlink:href="#rim" fill="#404040">
                        <set attributeName="fill" to="#808080" begin="arrowUp.mouseover" end="arrowUp.mouseout"/>
                  </use>
                  <path fill="none" stroke="white" stroke-width="1.5" d="M0,-3.0v7 M-2.5,-0.5L0,-3.0L2.5,-0.5"/>
                </g>
                <g id="arrowRight" xlink:href="#dirArrow" transform="rotate(90) translate(36 -43)" onmousedown="handlePan(1,0)">
                  <use xlink:href="#rim" fill="#404040">
                        <set attributeName="fill" to="#808080" begin="arrowRight.mouseover" end="arrowRight.mouseout"/>
                  </use>
                  <path fill="none" stroke="white" stroke-width="1.5" d="M0,-3.0v7 M-2.5,-0.5L0,-3.0L2.5,-0.5"/>
                </g>
                <g id="arrowDown" xlink:href="#dirArrow" transform="rotate(180) translate(-30 -48)" onmousedown="handlePan(0,1)">
                  <use xlink:href="#rim" fill="#404040">
                        <set attributeName="fill" to="#808080" begin="arrowDown.mouseover" end="arrowDown.mouseout"/>
                  </use>
                  <path fill="none" stroke="white" stroke-width="1.5" d="M0,-3.0v7 M-2.5,-0.5L0,-3.0L2.5,-0.5"/>
                </g>
                <g id="arrowLeft" xlink:href="#dirArrow" transform="rotate(270) translate(-36 17)" onmousedown="handlePan(-1,0)">
                  <use xlink:href="#rim" fill="#404040">
                        <set attributeName="fill" to="#808080" begin="arrowLeft.mouseover" end="arrowLeft.mouseout"/>
                  </use>
                  <path fill="none" stroke="white" stroke-width="1.5" d="M0,-3.0v7 M-2.5,-0.5L0,-3.0L2.5,-0.5"/>
                </g>
        </g>
        <svg viewBox="0 0 15 15" width="100%" height="30px" preserveAspectRatio="xMaxYMin meet">
         <g id="arrow_out" transform="scale(0.3 0.3)">
          <a xlink:href="JKRMemArchive_8h__incl_org.svg" target="_base">
           <rect id="button" ry="5" rx="5" y="6" x="6" height="38" width="38"
                fill="#f2f5e9" fill-opacity="0.5" stroke="#606060" stroke-width="1.0"/>
           <path id="arrow"
             d="M 11.500037,31.436501 C 11.940474,20.09759 22.043105,11.32322 32.158766,21.979434 L 37.068811,17.246167 C 37.068811,17.246167 37.088388,32 37.088388,32 L 22.160133,31.978069 C 22.160133,31.978069 26.997745,27.140456 26.997745,27.140456 C 18.528582,18.264221 13.291696,25.230495 11.500037,31.436501 z"
             style="fill:#404040;"/>
          </a>
         </g>
        </svg>
</svg>
