<?xml version="1.0" encoding="UTF-8" standalone="no"?>
<!DOCTYPE svg PUBLIC "-//W3C//DTD SVG 1.1//EN"
 "http://www.w3.org/Graphics/SVG/1.1/DTD/svg11.dtd">
<!-- Generated by graphviz version 2.44.0 ()
 -->
<!-- Title: libs/JSystem/JKernel/JKRMemArchive.cpp Pages: 1 -->
<svg width="1373pt" height="464pt"
 viewBox="0.00 0.00 1373.00 464.00" xmlns="http://www.w3.org/2000/svg" xmlns:xlink="http://www.w3.org/1999/xlink">
<g id="graph0" class="graph" transform="scale(1 1) rotate(0) translate(4 460)">
<title>libs/JSystem/JKernel/JKRMemArchive.cpp</title>
<polygon fill="white" stroke="transparent" points="-4,4 -4,-460 1369,-460 1369,4 -4,4"/>
<!-- Node1 -->
<g id="node1" class="node">
<title>Node1</title>
<g id="a_node1"><a xlink:title=" ">
<polygon fill="#bfbfbf" stroke="black" points="750.5,-425.5 750.5,-455.5 861.5,-455.5 861.5,-425.5 750.5,-425.5"/>
<text text-anchor="start" x="758.5" y="-443.5" font-family="Helvetica,sans-Serif" font-size="10.00">libs/JSystem/JKernel</text>
<text text-anchor="middle" x="806" y="-432.5" font-family="Helvetica,sans-Serif" font-size="10.00">/JKRMemArchive.cpp</text>
</a>
</g>
</g>
<!-- Node2 -->
<g id="node2" class="node">
<title>Node2</title>
<g id="a_node2"><a xlink:href="JKRMemArchive_8h.html" target="_top" xlink:title=" ">
<polygon fill="white" stroke="black" points="184.5,-353 184.5,-372 359.5,-372 359.5,-353 184.5,-353"/>
<text text-anchor="middle" x="272" y="-360" font-family="Helvetica,sans-Serif" font-size="10.00">JSystem/JKernel/JKRMemArchive.h</text>
</a>
</g>
</g>
<!-- Node1&#45;&gt;Node2 -->
<g id="edge1" class="edge">
<title>Node1&#45;&gt;Node2</title>
<path fill="none" stroke="midnightblue" d="M750.36,-431.58C652.41,-417.64 449.42,-388.75 342.07,-373.47"/>
<polygon fill="midnightblue" stroke="midnightblue" points="342.38,-369.98 331.98,-372.04 341.39,-376.91 342.38,-369.98"/>
</g>
<!-- Node9 -->
<g id="node9" class="node">
<title>Node9</title>
<g id="a_node9"><a xlink:href="types_8h.html" target="_top" xlink:title=" ">
<polygon fill="white" stroke="black" points="658.5,-0.5 658.5,-19.5 739.5,-19.5 739.5,-0.5 658.5,-0.5"/>
<text text-anchor="middle" x="699" y="-7.5" font-family="Helvetica,sans-Serif" font-size="10.00">dolphin/types.h</text>
</a>
</g>
</g>
<!-- Node1&#45;&gt;Node9 -->
<g id="edge42" class="edge">
<title>Node1&#45;&gt;Node9</title>
<path fill="none" stroke="midnightblue" d="M786.12,-425.33C755.18,-401.44 699,-349.95 699,-291 699,-291 699,-291 699,-121 699,-88.95 699,-51.64 699,-29.75"/>
<polygon fill="midnightblue" stroke="midnightblue" points="702.5,-29.56 699,-19.56 695.5,-29.56 702.5,-29.56"/>
</g>
<!-- Node14 -->
<g id="node14" class="node">
<title>Node14</title>
<g id="a_node14"><a xlink:href="JKRDvdRipper_8h.html" target="_top" xlink:title=" ">
<polygon fill="white" stroke="black" points="505.5,-280.5 505.5,-299.5 670.5,-299.5 670.5,-280.5 505.5,-280.5"/>
<text text-anchor="middle" x="588" y="-287.5" font-family="Helvetica,sans-Serif" font-size="10.00">JSystem/JKernel/JKRDvdRipper.h</text>
</a>
</g>
</g>
<!-- Node1&#45;&gt;Node14 -->
<g id="edge25" class="edge">
<title>Node1&#45;&gt;Node14</title>
<path fill="none" stroke="midnightblue" d="M760.76,-425.44C737.06,-416.92 708.22,-404.65 685,-389 650.61,-365.82 618.34,-329.13 601.07,-307.83"/>
<polygon fill="midnightblue" stroke="midnightblue" points="603.59,-305.38 594.63,-299.73 598.11,-309.74 603.59,-305.38"/>
</g>
<!-- Node15 -->
<g id="node15" class="node">
<title>Node15</title>
<g id="a_node15"><a xlink:href="JKRHeap_8h.html" target="_top" xlink:title=" ">
<polygon fill="white" stroke="black" points="727.5,-168.5 727.5,-187.5 870.5,-187.5 870.5,-168.5 727.5,-168.5"/>
<text text-anchor="middle" x="799" y="-175.5" font-family="Helvetica,sans-Serif" font-size="10.00">JSystem/JKernel/JKRHeap.h</text>
</a>
</g>
</g>
<!-- Node1&#45;&gt;Node15 -->
<g id="edge28" class="edge">
<title>Node1&#45;&gt;Node15</title>
<path fill="none" stroke="midnightblue" d="M800.9,-425.13C797.63,-415.14 793.69,-401.44 792,-389 782.11,-316.34 786.35,-297.12 792,-224 792.68,-215.22 794.09,-205.56 795.47,-197.45"/>
<polygon fill="midnightblue" stroke="midnightblue" points="798.92,-198.04 797.26,-187.58 792.03,-196.8 798.92,-198.04"/>
</g>
<!-- Node16 -->
<g id="node16" class="node">
<title>Node16</title>
<g id="a_node16"><a xlink:href="JUTException_8h.html" target="_top" xlink:title=" ">
<polygon fill="white" stroke="black" points="888.5,-168.5 888.5,-187.5 1047.5,-187.5 1047.5,-168.5 888.5,-168.5"/>
<text text-anchor="middle" x="968" y="-175.5" font-family="Helvetica,sans-Serif" font-size="10.00">JSystem/JUtility/JUTException.h</text>
</a>
</g>
</g>
<!-- Node1&#45;&gt;Node16 -->
<g id="edge32" class="edge">
<title>Node1&#45;&gt;Node16</title>
<path fill="none" stroke="midnightblue" d="M805.25,-425.34C804.73,-404.66 805.95,-365.46 820,-336 850.06,-273 914.78,-218.53 947.77,-193.55"/>
<polygon fill="midnightblue" stroke="midnightblue" points="949.87,-196.35 955.81,-187.58 945.69,-190.73 949.87,-196.35"/>
</g>
<!-- Node20 -->
<g id="node20" class="node">
<title>Node20</title>
<g id="a_node20"><a xlink:href="dol2asm_8h.html" target="_top" xlink:title=" ">
<polygon fill="white" stroke="black" points="872.5,-353 872.5,-372 933.5,-372 933.5,-353 872.5,-353"/>
<text text-anchor="middle" x="903" y="-360" font-family="Helvetica,sans-Serif" font-size="10.00">dol2asm.h</text>
</a>
</g>
</g>
<!-- Node1&#45;&gt;Node20 -->
<g id="edge41" class="edge">
<title>Node1&#45;&gt;Node20</title>
<path fill="none" stroke="midnightblue" d="M824.24,-425.2C841.26,-411.88 866.54,-392.07 883.84,-378.51"/>
<polygon fill="midnightblue" stroke="midnightblue" points="886.36,-380.99 892.07,-372.06 882.04,-375.48 886.36,-380.99"/>
</g>
<!-- Node21 -->
<g id="node21" class="node">
<title>Node21</title>
<g id="a_node21"><a xlink:href="msl__c_2string_8h.html" target="_top" xlink:title=" ">
<polygon fill="white" stroke="black" points="1056.5,-280.5 1056.5,-299.5 1133.5,-299.5 1133.5,-280.5 1056.5,-280.5"/>
<text text-anchor="middle" x="1095" y="-287.5" font-family="Helvetica,sans-Serif" font-size="10.00">msl_c/string.h</text>
</a>
</g>
</g>
<!-- Node1&#45;&gt;Node21 -->
<g id="edge43" class="edge">
<title>Node1&#45;&gt;Node21</title>
<path fill="none" stroke="midnightblue" d="M809.78,-425.19C816.58,-402.44 833.12,-358.33 864,-336 892.5,-315.39 987.14,-302.15 1046.07,-295.69"/>
<polygon fill="midnightblue" stroke="midnightblue" points="1046.71,-299.14 1056.28,-294.59 1045.96,-292.18 1046.71,-299.14"/>
</g>
<!-- Node22 -->
<g id="node22" class="node">
<title>Node22</title>
<g id="a_node22"><a xlink:title=" ">
<polygon fill="white" stroke="#bfbfbf" points="951.5,-336.5 951.5,-388.5 1156.5,-388.5 1156.5,-336.5 951.5,-336.5"/>
<text text-anchor="start" x="959.5" y="-376.5" font-family="Helvetica,sans-Serif" font-size="10.00">asm/JSystem/JKernel</text>
<text text-anchor="start" x="959.5" y="-365.5" font-family="Helvetica,sans-Serif" font-size="10.00">/JKRMemArchive/open</text>
<text text-anchor="start" x="959.5" y="-354.5" font-family="Helvetica,sans-Serif" font-size="10.00">__13JKRMemArchiveFlQ210JKRArchive15</text>
<text text-anchor="middle" x="1054" y="-343.5" font-family="Helvetica,sans-Serif" font-size="10.00">EMountDirection.s</text>
</a>
</g>
</g>
<!-- Node1&#45;&gt;Node22 -->
<g id="edge45" class="edge">
<title>Node1&#45;&gt;Node22</title>
<path fill="none" stroke="midnightblue" d="M851.78,-425.47C882.74,-415.98 924.7,-403.12 962.37,-391.58"/>
<polygon fill="midnightblue" stroke="midnightblue" points="963.82,-394.8 972.36,-388.52 961.77,-388.1 963.82,-394.8"/>
</g>
<!-- Node23 -->
<g id="node23" class="node">
<title>Node23</title>
<g id="a_node23"><a xlink:title=" ">
<polygon fill="white" stroke="#bfbfbf" points="1175,-336.5 1175,-388.5 1365,-388.5 1365,-336.5 1175,-336.5"/>
<text text-anchor="start" x="1183" y="-376.5" font-family="Helvetica,sans-Serif" font-size="10.00">asm/JSystem/JKernel</text>
<text text-anchor="start" x="1183" y="-365.5" font-family="Helvetica,sans-Serif" font-size="10.00">/JKRMemArchive/open</text>
<text text-anchor="start" x="1183" y="-354.5" font-family="Helvetica,sans-Serif" font-size="10.00">__13JKRMemArchiveFPvUl15JKRMem</text>
<text text-anchor="middle" x="1270" y="-343.5" font-family="Helvetica,sans-Serif" font-size="10.00">BreakFlag.s</text>
</a>
</g>
</g>
<!-- Node1&#45;&gt;Node23 -->
<g id="edge46" class="edge">
<title>Node1&#45;&gt;Node23</title>
<path fill="none" stroke="midnightblue" d="M861.79,-433.45C930.79,-425.57 1051.98,-410.44 1165.01,-389.11"/>
<polygon fill="midnightblue" stroke="midnightblue" points="1165.7,-392.54 1174.87,-387.23 1164.39,-385.67 1165.7,-392.54"/>
</g>
<!-- Node3 -->
<g id="node3" class="node">
<title>Node3</title>
<g id="a_node3"><a xlink:href="JKRArchive_8h.html" target="_top" xlink:title=" ">
<polygon fill="white" stroke="black" points="195.5,-280.5 195.5,-299.5 348.5,-299.5 348.5,-280.5 195.5,-280.5"/>
<text text-anchor="middle" x="272" y="-287.5" font-family="Helvetica,sans-Serif" font-size="10.00">JSystem/JKernel/JKRArchive.h</text>
</a>
</g>
</g>
<!-- Node2&#45;&gt;Node3 -->
<g id="edge2" class="edge">
<title>Node2&#45;&gt;Node3</title>
<path fill="none" stroke="midnightblue" d="M272,-352.86C272,-342.18 272,-323.72 272,-309.73"/>
<polygon fill="midnightblue" stroke="midnightblue" points="275.5,-309.72 272,-299.72 268.5,-309.72 275.5,-309.72"/>
</g>
<!-- Node2&#45;&gt;Node9 -->
<g id="edge24" class="edge">
<title>Node2&#45;&gt;Node9</title>
<path fill="none" stroke="midnightblue" d="M184.44,-356.44C104.93,-346.55 0,-317.81 0,-235 0,-235 0,-235 0,-121 0,-55.34 487.57,-22.63 648.29,-13.63"/>
<polygon fill="midnightblue" stroke="midnightblue" points="648.61,-17.12 658.4,-13.07 648.22,-10.13 648.61,-17.12"/>
</g>
<!-- Node4 -->
<g id="node4" class="node">
<title>Node4</title>
<g id="a_node4"><a xlink:href="JKRCompression_8h.html" target="_top" xlink:title=" ">
<polygon fill="white" stroke="black" points="250.5,-168.5 250.5,-187.5 427.5,-187.5 427.5,-168.5 250.5,-168.5"/>
<text text-anchor="middle" x="339" y="-175.5" font-family="Helvetica,sans-Serif" font-size="10.00">JSystem/JKernel/JKRCompression.h</text>
</a>
</g>
</g>
<!-- Node3&#45;&gt;Node4 -->
<g id="edge3" class="edge">
<title>Node3&#45;&gt;Node4</title>
<path fill="none" stroke="midnightblue" d="M277.26,-280.37C288.27,-262.3 313.92,-220.18 328.46,-196.31"/>
<polygon fill="midnightblue" stroke="midnightblue" points="331.55,-197.95 333.77,-187.59 325.58,-194.31 331.55,-197.95"/>
</g>
<!-- Node5 -->
<g id="node5" class="node">
<title>Node5</title>
<g id="a_node5"><a xlink:href="JKRDecomp_8h.html" target="_top" xlink:title=" ">
<polygon fill="white" stroke="black" points="442,-224.5 442,-243.5 598,-243.5 598,-224.5 442,-224.5"/>
<text text-anchor="middle" x="520" y="-231.5" font-family="Helvetica,sans-Serif" font-size="10.00">JSystem/JKernel/JKRDecomp.h</text>
</a>
</g>
</g>
<!-- Node3&#45;&gt;Node5 -->
<g id="edge4" class="edge">
<title>Node3&#45;&gt;Node5</title>
<path fill="none" stroke="midnightblue" d="M311.3,-280.44C354.56,-271.02 424.17,-255.87 470.97,-245.68"/>
<polygon fill="midnightblue" stroke="midnightblue" points="471.86,-249.06 480.89,-243.52 470.37,-242.22 471.86,-249.06"/>
</g>
<!-- Node12 -->
<g id="node12" class="node">
<title>Node12</title>
<g id="a_node12"><a xlink:href="JKRFileLoader_8h.html" target="_top" xlink:title=" ">
<polygon fill="white" stroke="black" points="66,-168.5 66,-187.5 232,-187.5 232,-168.5 66,-168.5"/>
<text text-anchor="middle" x="149" y="-175.5" font-family="Helvetica,sans-Serif" font-size="10.00">JSystem/JKernel/JKRFileLoader.h</text>
</a>
</g>
</g>
<!-- Node3&#45;&gt;Node12 -->
<g id="edge18" class="edge">
<title>Node3&#45;&gt;Node12</title>
<path fill="none" stroke="midnightblue" d="M262.35,-280.37C241.6,-261.81 192.51,-217.91 166.26,-194.44"/>
<polygon fill="midnightblue" stroke="midnightblue" points="168.39,-191.65 158.61,-187.59 163.73,-196.87 168.39,-191.65"/>
</g>
<!-- Node13 -->
<g id="node13" class="node">
<title>Node13</title>
<g id="a_node13"><a xlink:href="global_8h.html" target="_top" xlink:title=" ">
<polygon fill="white" stroke="black" points="53,-224.5 53,-243.5 103,-243.5 103,-224.5 53,-224.5"/>
<text text-anchor="middle" x="78" y="-231.5" font-family="Helvetica,sans-Serif" font-size="10.00">global.h</text>
</a>
</g>
</g>
<!-- Node3&#45;&gt;Node13 -->
<g id="edge22" class="edge">
<title>Node3&#45;&gt;Node13</title>
<path fill="none" stroke="midnightblue" d="M241.26,-280.44C206.3,-270.71 149.34,-254.86 112.78,-244.68"/>
<polygon fill="midnightblue" stroke="midnightblue" points="113.62,-241.28 103.04,-241.97 111.74,-248.02 113.62,-241.28"/>
</g>
<!-- Node5&#45;&gt;Node4 -->
<g id="edge5" class="edge">
<title>Node5&#45;&gt;Node4</title>
<path fill="none" stroke="midnightblue" d="M491.32,-224.44C460.47,-215.24 411.27,-200.56 377.17,-190.39"/>
<polygon fill="midnightblue" stroke="midnightblue" points="378.13,-187.02 367.55,-187.52 376.13,-193.73 378.13,-187.02"/>
</g>
<!-- Node6 -->
<g id="node6" class="node">
<title>Node6</title>
<g id="a_node6"><a xlink:href="JKRThread_8h.html" target="_top" xlink:title=" ">
<polygon fill="white" stroke="black" points="445,-168.5 445,-187.5 595,-187.5 595,-168.5 445,-168.5"/>
<text text-anchor="middle" x="520" y="-175.5" font-family="Helvetica,sans-Serif" font-size="10.00">JSystem/JKernel/JKRThread.h</text>
</a>
</g>
</g>
<!-- Node5&#45;&gt;Node6 -->
<g id="edge6" class="edge">
<title>Node5&#45;&gt;Node6</title>
<path fill="none" stroke="midnightblue" d="M520,-224.08C520,-217.01 520,-206.86 520,-197.99"/>
<polygon fill="midnightblue" stroke="midnightblue" points="523.5,-197.75 520,-187.75 516.5,-197.75 523.5,-197.75"/>
</g>
<!-- Node5&#45;&gt;Node9 -->
<g id="edge17" class="edge">
<title>Node5&#45;&gt;Node9</title>
<path fill="none" stroke="midnightblue" d="M547.35,-224.44C565.74,-217.38 589.24,-205.63 604,-188 643.6,-140.69 612.87,-107.4 647,-56 654.84,-44.19 666.6,-33.65 676.95,-25.75"/>
<polygon fill="midnightblue" stroke="midnightblue" points="679.16,-28.47 685.2,-19.76 675.05,-22.8 679.16,-28.47"/>
</g>
<!-- Node7 -->
<g id="node7" class="node">
<title>Node7</title>
<g id="a_node7"><a xlink:href="JKRDisposer_8h.html" target="_top" xlink:title=" ">
<polygon fill="white" stroke="black" points="437,-112.5 437,-131.5 595,-131.5 595,-112.5 437,-112.5"/>
<text text-anchor="middle" x="516" y="-119.5" font-family="Helvetica,sans-Serif" font-size="10.00">JSystem/JKernel/JKRDisposer.h</text>
</a>
</g>
</g>
<!-- Node6&#45;&gt;Node7 -->
<g id="edge7" class="edge">
<title>Node6&#45;&gt;Node7</title>
<path fill="none" stroke="midnightblue" d="M519.34,-168.08C518.82,-161.01 518.06,-150.86 517.41,-141.99"/>
<polygon fill="midnightblue" stroke="midnightblue" points="520.88,-141.47 516.65,-131.75 513.9,-141.98 520.88,-141.47"/>
</g>
<!-- Node8 -->
<g id="node8" class="node">
<title>Node8</title>
<g id="a_node8"><a xlink:href="JSUList_8h.html" target="_top" xlink:title=" ">
<polygon fill="white" stroke="black" points="403.5,-56.5 403.5,-75.5 546.5,-75.5 546.5,-56.5 403.5,-56.5"/>
<text text-anchor="middle" x="475" y="-63.5" font-family="Helvetica,sans-Serif" font-size="10.00">JSystem/JSupport/JSUList.h</text>
</a>
</g>
</g>
<!-- Node6&#45;&gt;Node8 -->
<g id="edge11" class="edge">
<title>Node6&#45;&gt;Node8</title>
<path fill="none" stroke="midnightblue" d="M481.15,-168.36C461.62,-161.85 439.67,-150.7 428,-132 416.82,-114.09 435.36,-94.6 452.34,-81.68"/>
<polygon fill="midnightblue" stroke="midnightblue" points="454.81,-84.23 460.91,-75.57 450.74,-78.53 454.81,-84.23"/>
</g>
<!-- Node6&#45;&gt;Node9 -->
<g id="edge16" class="edge">
<title>Node6&#45;&gt;Node9</title>
<path fill="none" stroke="midnightblue" d="M487.24,-168.44C466.15,-161.53 439.36,-149.95 421,-132 395.37,-106.94 370.58,-83.13 394,-56 426.22,-18.68 570.02,-11.77 648.12,-10.83"/>
<polygon fill="midnightblue" stroke="midnightblue" points="648.26,-14.33 658.23,-10.73 648.19,-7.33 648.26,-14.33"/>
</g>
<!-- Node10 -->
<g id="node10" class="node">
<title>Node10</title>
<g id="a_node10"><a xlink:href="OS_8h.html" target="_top" xlink:title=" ">
<polygon fill="white" stroke="black" points="756,-112.5 756,-131.5 842,-131.5 842,-112.5 756,-112.5"/>
<text text-anchor="middle" x="799" y="-119.5" font-family="Helvetica,sans-Serif" font-size="10.00">dolphin/os/OS.h</text>
</a>
</g>
</g>
<!-- Node6&#45;&gt;Node10 -->
<g id="edge12" class="edge">
<title>Node6&#45;&gt;Node10</title>
<path fill="none" stroke="midnightblue" d="M564.21,-168.44C613.58,-158.89 693.44,-143.43 746.09,-133.24"/>
<polygon fill="midnightblue" stroke="midnightblue" points="746.76,-136.68 755.92,-131.34 745.43,-129.8 746.76,-136.68"/>
</g>
<!-- Node7&#45;&gt;Node8 -->
<g id="edge8" class="edge">
<title>Node7&#45;&gt;Node8</title>
<path fill="none" stroke="midnightblue" d="M509.23,-112.08C503.44,-104.46 494.94,-93.26 487.86,-83.94"/>
<polygon fill="midnightblue" stroke="midnightblue" points="490.48,-81.6 481.64,-75.75 484.9,-85.83 490.48,-81.6"/>
</g>
<!-- Node7&#45;&gt;Node9 -->
<g id="edge10" class="edge">
<title>Node7&#45;&gt;Node9</title>
<path fill="none" stroke="midnightblue" d="M527.1,-112.44C544.18,-99.45 578.19,-74.33 609,-56 629.01,-44.09 652.59,-32.38 670.59,-23.89"/>
<polygon fill="midnightblue" stroke="midnightblue" points="672.37,-26.92 679.96,-19.53 669.42,-20.58 672.37,-26.92"/>
</g>
<!-- Node8&#45;&gt;Node9 -->
<g id="edge9" class="edge">
<title>Node8&#45;&gt;Node9</title>
<path fill="none" stroke="midnightblue" d="M510.49,-56.44C549.32,-47.08 611.66,-32.06 653.92,-21.87"/>
<polygon fill="midnightblue" stroke="midnightblue" points="654.77,-25.26 663.67,-19.52 653.13,-18.46 654.77,-25.26"/>
</g>
<!-- Node10&#45;&gt;Node9 -->
<g id="edge13" class="edge">
<title>Node10&#45;&gt;Node9</title>
<path fill="none" stroke="midnightblue" d="M808.13,-112.44C820.87,-99.45 841.02,-74.34 828,-56 810.32,-31.11 777.82,-19.88 749.86,-14.85"/>
<polygon fill="midnightblue" stroke="midnightblue" points="750.22,-11.37 739.8,-13.27 749.14,-18.28 750.22,-11.37"/>
</g>
<!-- Node11 -->
<g id="node11" class="node">
<title>Node11</title>
<g id="a_node11"><a xlink:href="dvd_8h.html" target="_top" xlink:title=" ">
<polygon fill="white" stroke="black" points="727,-56.5 727,-75.5 819,-75.5 819,-56.5 727,-56.5"/>
<text text-anchor="middle" x="773" y="-63.5" font-family="Helvetica,sans-Serif" font-size="10.00">dolphin/dvd/dvd.h</text>
</a>
</g>
</g>
<!-- Node10&#45;&gt;Node11 -->
<g id="edge14" class="edge">
<title>Node10&#45;&gt;Node11</title>
<path fill="none" stroke="midnightblue" d="M794.71,-112.08C791.15,-104.69 785.98,-93.95 781.58,-84.81"/>
<polygon fill="midnightblue" stroke="midnightblue" points="784.71,-83.24 777.21,-75.75 778.4,-86.28 784.71,-83.24"/>
</g>
<!-- Node11&#45;&gt;Node9 -->
<g id="edge15" class="edge">
<title>Node11&#45;&gt;Node9</title>
<path fill="none" stroke="midnightblue" d="M761.11,-56.32C749.85,-48.11 732.71,-35.6 719.29,-25.81"/>
<polygon fill="midnightblue" stroke="midnightblue" points="721.25,-22.9 711.11,-19.83 717.12,-28.56 721.25,-22.9"/>
</g>
<!-- Node12&#45;&gt;Node7 -->
<g id="edge19" class="edge">
<title>Node12&#45;&gt;Node7</title>
<path fill="none" stroke="midnightblue" d="M207.15,-168.44C272.65,-158.81 378.96,-143.16 448.19,-132.98"/>
<polygon fill="midnightblue" stroke="midnightblue" points="448.74,-136.43 458.12,-131.52 447.72,-129.51 448.74,-136.43"/>
</g>
<!-- Node12&#45;&gt;Node8 -->
<g id="edge20" class="edge">
<title>Node12&#45;&gt;Node8</title>
<path fill="none" stroke="midnightblue" d="M174.31,-168.46C232.08,-148.97 373.76,-101.16 439.91,-78.84"/>
<polygon fill="midnightblue" stroke="midnightblue" points="441.13,-82.12 449.48,-75.61 438.89,-75.49 441.13,-82.12"/>
</g>
<!-- Node12&#45;&gt;Node9 -->
<g id="edge21" class="edge">
<title>Node12&#45;&gt;Node9</title>
<path fill="none" stroke="midnightblue" d="M161.9,-168.23C195.97,-145.52 291.9,-84.61 381,-56 472.28,-26.7 584.38,-16.46 648.17,-12.89"/>
<polygon fill="midnightblue" stroke="midnightblue" points="648.56,-16.38 658.36,-12.36 648.19,-9.38 648.56,-16.38"/>
</g>
<!-- Node13&#45;&gt;Node9 -->
<g id="edge23" class="edge">
<title>Node13&#45;&gt;Node9</title>
<path fill="none" stroke="midnightblue" d="M70.75,-224.35C60.7,-211.24 45.04,-185.96 57,-168 128.55,-60.55 200.17,-88.91 325,-56 438.01,-26.2 575.5,-16.08 648.22,-12.68"/>
<polygon fill="midnightblue" stroke="midnightblue" points="648.63,-16.17 658.47,-12.23 648.32,-9.17 648.63,-16.17"/>
</g>
<!-- Node14&#45;&gt;Node5 -->
<g id="edge26" class="edge">
<title>Node14&#45;&gt;Node5</title>
<path fill="none" stroke="midnightblue" d="M577.07,-280.32C566.83,-272.18 551.28,-259.84 539,-250.09"/>
<polygon fill="midnightblue" stroke="midnightblue" points="541.13,-247.31 531.12,-243.83 536.78,-252.79 541.13,-247.31"/>
</g>
<!-- Node14&#45;&gt;Node9 -->
<g id="edge27" class="edge">
<title>Node14&#45;&gt;Node9</title>
<path fill="none" stroke="midnightblue" d="M599.09,-280.33C619.51,-263.29 661,-223.24 661,-179 661,-179 661,-179 661,-121 661,-86.81 677.6,-49.76 688.86,-28.57"/>
<polygon fill="midnightblue" stroke="midnightblue" points="691.95,-30.22 693.72,-19.77 685.82,-26.83 691.95,-30.22"/>
</g>
<!-- Node15&#45;&gt;Node7 -->
<g id="edge29" class="edge">
<title>Node15&#45;&gt;Node7</title>
<path fill="none" stroke="midnightblue" d="M754.16,-168.44C704.38,-158.94 624.02,-143.61 570.61,-133.42"/>
<polygon fill="midnightblue" stroke="midnightblue" points="571.11,-129.95 560.63,-131.52 569.8,-136.83 571.11,-129.95"/>
</g>
<!-- Node15&#45;&gt;Node9 -->
<g id="edge31" class="edge">
<title>Node15&#45;&gt;Node9</title>
<path fill="none" stroke="midnightblue" d="M814.78,-168.47C827.2,-160.77 843.61,-148.18 851,-132 858.86,-114.81 855.74,-70.02 844,-56 821.02,-28.56 781.62,-17.57 749.68,-13.3"/>
<polygon fill="midnightblue" stroke="midnightblue" points="749.94,-9.8 739.6,-12.13 749.14,-16.76 749.94,-9.8"/>
</g>
<!-- Node15&#45;&gt;Node10 -->
<g id="edge30" class="edge">
<title>Node15&#45;&gt;Node10</title>
<path fill="none" stroke="midnightblue" d="M799,-168.08C799,-161.01 799,-150.86 799,-141.99"/>
<polygon fill="midnightblue" stroke="midnightblue" points="802.5,-141.75 799,-131.75 795.5,-141.75 802.5,-141.75"/>
</g>
<!-- Node16&#45;&gt;Node9 -->
<g id="edge40" class="edge">
<title>Node16&#45;&gt;Node9</title>
<path fill="none" stroke="midnightblue" d="M963.03,-168.46C949.67,-146.29 910.73,-86.58 862,-56 827.97,-34.65 783.75,-23.26 749.95,-17.29"/>
<polygon fill="midnightblue" stroke="midnightblue" points="750.26,-13.8 739.82,-15.61 749.11,-20.7 750.26,-13.8"/>
</g>
<!-- Node16&#45;&gt;Node10 -->
<g id="edge39" class="edge">
<title>Node16&#45;&gt;Node10</title>
<path fill="none" stroke="midnightblue" d="M941.22,-168.44C912.67,-159.32 867.27,-144.81 835.46,-134.65"/>
<polygon fill="midnightblue" stroke="midnightblue" points="836.24,-131.23 825.65,-131.52 834.11,-137.89 836.24,-131.23"/>
</g>
<!-- Node17 -->
<g id="node17" class="node">
<title>Node17</title>
<g id="a_node17"><a xlink:href="GX_8h.html" target="_top" xlink:title=" ">
<polygon fill="white" stroke="black" points="982.5,-112.5 982.5,-131.5 1067.5,-131.5 1067.5,-112.5 982.5,-112.5"/>
<text text-anchor="middle" x="1025" y="-119.5" font-family="Helvetica,sans-Serif" font-size="10.00">dolphin/gx/GX.h</text>
</a>
</g>
</g>
<!-- Node16&#45;&gt;Node17 -->
<g id="edge33" class="edge">
<title>Node16&#45;&gt;Node17</title>
<path fill="none" stroke="midnightblue" d="M977.16,-168.32C985.5,-160.42 998.03,-148.55 1008.18,-138.94"/>
<polygon fill="midnightblue" stroke="midnightblue" points="1010.82,-141.25 1015.68,-131.83 1006.01,-136.17 1010.82,-141.25"/>
</g>
<!-- Node17&#45;&gt;Node9 -->
<g id="edge38" class="edge">
<title>Node17&#45;&gt;Node9</title>
<path fill="none" stroke="midnightblue" d="M1016.12,-112.25C1001.16,-98.04 969.38,-70.13 937,-56 876.01,-29.38 799.48,-18.48 749.93,-14.03"/>
<polygon fill="midnightblue" stroke="midnightblue" points="750.04,-10.53 739.78,-13.18 749.45,-17.5 750.04,-10.53"/>
</g>
<!-- Node18 -->
<g id="node18" class="node">
<title>Node18</title>
<g id="a_node18"><a xlink:href="GXDisplayList_8h.html" target="_top" xlink:title=" ">
<polygon fill="white" stroke="black" points="989.5,-56.5 989.5,-75.5 1122.5,-75.5 1122.5,-56.5 989.5,-56.5"/>
<text text-anchor="middle" x="1056" y="-63.5" font-family="Helvetica,sans-Serif" font-size="10.00">dolphin/gx/GXDisplayList.h</text>
</a>
</g>
</g>
<!-- Node17&#45;&gt;Node18 -->
<g id="edge34" class="edge">
<title>Node17&#45;&gt;Node18</title>
<path fill="none" stroke="midnightblue" d="M1030.12,-112.08C1034.41,-104.61 1040.66,-93.72 1045.94,-84.52"/>
<polygon fill="midnightblue" stroke="midnightblue" points="1049.03,-86.17 1050.98,-75.75 1042.96,-82.68 1049.03,-86.17"/>
</g>
<!-- Node19 -->
<g id="node19" class="node">
<title>Node19</title>
<g id="a_node19"><a xlink:href="GXTexture_8h.html" target="_top" xlink:title=" ">
<polygon fill="white" stroke="black" points="1140.5,-56.5 1140.5,-75.5 1257.5,-75.5 1257.5,-56.5 1140.5,-56.5"/>
<text text-anchor="middle" x="1199" y="-63.5" font-family="Helvetica,sans-Serif" font-size="10.00">dolphin/gx/GXTexture.h</text>
</a>
</g>
</g>
<!-- Node17&#45;&gt;Node19 -->
<g id="edge36" class="edge">
<title>Node17&#45;&gt;Node19</title>
<path fill="none" stroke="midnightblue" d="M1052.57,-112.44C1082.1,-103.28 1129.12,-88.69 1161.88,-78.52"/>
<polygon fill="midnightblue" stroke="midnightblue" points="1163.04,-81.82 1171.56,-75.52 1160.97,-75.14 1163.04,-81.82"/>
</g>
<!-- Node18&#45;&gt;Node9 -->
<g id="edge35" class="edge">
<title>Node18&#45;&gt;Node9</title>
<path fill="none" stroke="midnightblue" d="M999.43,-56.44C930.75,-46.06 815.95,-28.69 749.92,-18.7"/>
<polygon fill="midnightblue" stroke="midnightblue" points="750.17,-15.2 739.76,-17.16 749.12,-22.12 750.17,-15.2"/>
</g>
<!-- Node19&#45;&gt;Node9 -->
<g id="edge37" class="edge">
<title>Node19&#45;&gt;Node9</title>
<path fill="none" stroke="midnightblue" d="M1140.19,-57C1137.42,-56.65 1134.68,-56.32 1132,-56 994.1,-39.58 831.08,-23.55 750.05,-15.81"/>
<polygon fill="midnightblue" stroke="midnightblue" points="749.93,-12.28 739.64,-14.81 749.26,-19.25 749.93,-12.28"/>
</g>
<!-- Node21&#45;&gt;Node9 -->
<g id="edge44" class="edge">
<title>Node21&#45;&gt;Node9</title>
<path fill="none" stroke="midnightblue" d="M1133.65,-284.2C1189.46,-274.86 1286,-248.64 1286,-179 1286,-179 1286,-179 1286,-121 1286,-90.9 1290.35,-74.99 1267,-56 1227.35,-23.76 881.58,-14.25 749.76,-11.78"/>
<polygon fill="midnightblue" stroke="midnightblue" points="749.59,-8.27 739.53,-11.59 749.46,-15.27 749.59,-8.27"/>
</g>
</g>
</svg>
