<?xml version="1.0" encoding="UTF-8" standalone="no"?>
<!DOCTYPE svg PUBLIC "-//W3C//DTD SVG 1.1//EN"
 "http://www.w3.org/Graphics/SVG/1.1/DTD/svg11.dtd">
<!-- Generated by graphviz version 7.0.5 (20221223.1930)
 -->
<!-- Title: libs/JSystem/JKernel/JKRSolidHeap.cpp Pages: 1 -->
<!--zoomable 434 -->
<svg id="main" version="1.1" xmlns="http://www.w3.org/2000/svg" xmlns:xlink="http://www.w3.org/1999/xlink" xml:space="preserve" onload="init(evt)">
<style type="text/css"><![CDATA[
.edge:hover path { stroke: red; }
.edge:hover polygon { stroke: red; fill: red; }
]]></style>
<script type="text/javascript"><![CDATA[
var edges = document.getElementsByTagName('g');
if (edges && edges.length) {
  for (var i=0;i<edges.length;i++) {
    if (edges[i].id.substr(0,4)=='edge') {
      edges[i].setAttribute('class','edge');
    }
  }
}
]]></script>
        <defs>
                <circle id="rim" cx="0" cy="0" r="7"/>
                <circle id="rim2" cx="0" cy="0" r="3.5"/>
                <g id="zoomPlus">
                        <use xlink:href="#rim" fill="#404040">
                                <set attributeName="fill" to="#808080" begin="zoomplus.mouseover" end="zoomplus.mouseout"/>
                        </use>
                        <path d="M-4,0h8M0,-4v8" fill="none" stroke="white" stroke-width="1.5" pointer-events="none"/>
                </g>
                <g id="zoomMin">
                        <use xlink:href="#rim" fill="#404040">
                                <set attributeName="fill" to="#808080" begin="zoomminus.mouseover" end="zoomminus.mouseout"/>
                        </use>
                        <path d="M-4,0h8" fill="none" stroke="white" stroke-width="1.5" pointer-events="none"/>
                </g>
                <g id="dirArrow">
                        <path fill="none" stroke="white" stroke-width="1.5" d="M0,-3.0v7 M-2.5,-0.5L0,-3.0L2.5,-0.5"/>
                </g>
               <g id="resetDef">
                       <use xlink:href="#rim2" fill="#404040">
                               <set attributeName="fill" to="#808080" begin="reset.mouseover" end="reset.mouseout"/>
                       </use>
               </g>
        </defs>

<script type="text/javascript">
var viewWidth = 2420;
var viewHeight = 434;
var sectionId = 'dynsection-0';
</script>
<script xlink:href="svgpan.js"/>
<svg id="graph" class="graph">
<g id="viewport">
<title>libs/JSystem/JKernel/JKRSolidHeap.cpp</title>
<!-- Node1 -->
<g id="node1" class="node">
<title>Node1</title>
<g id="a_node1"><a xlink:title=" ">
<polygon fill="#999999" stroke="#666666" points="2094,-426 1985,-426 1985,-396 2094,-396 2094,-426"/>
<text text-anchor="start" x="1993" y="-414" font-family="Helvetica,sans-Serif" font-size="10.00">libs/JSystem/JKernel</text>
<text text-anchor="middle" x="2039.5" y="-403" font-family="Helvetica,sans-Serif" font-size="10.00">/JKRSolidHeap.cpp</text>
</a>
</g>
</g>
<!-- Node2 -->
<g id="node2" class="node">
<title>Node2</title>
<g id="a_node2"><a xlink:href="JKRSolidHeap_8h.html" target="_top" xlink:title=" ">
<polygon fill="white" stroke="#666666" points="1865.5,-360 1731.5,-360 1731.5,-330 1865.5,-330 1865.5,-360"/>
<text text-anchor="start" x="1739.5" y="-348" font-family="Helvetica,sans-Serif" font-size="10.00">JSystem/JKernel/JKRSolid</text>
<text text-anchor="middle" x="1798.5" y="-337" font-family="Helvetica,sans-Serif" font-size="10.00">Heap.h</text>
</a>
</g>
</g>
<!-- Node1&#45;&gt;Node2 -->
<g id="edge1" class="edge">
<title>Node1&#45;&gt;Node2</title>
<path fill="none" stroke="#63b8ff" d="M1985.11,-395.56C1949.1,-385.99 1901.68,-373.4 1863.65,-363.3"/>
<polygon fill="#63b8ff" stroke="#63b8ff" points="1864.71,-359.96 1854.15,-360.78 1862.92,-366.73 1864.71,-359.96"/>
</g>
<!-- Node11 -->
<g id="node11" class="node">
<title>Node11</title>
<g id="a_node11"><a xlink:href="JUTAssert_8h.html" target="_top" xlink:title=" ">
<polygon fill="white" stroke="#666666" points="2029.5,-354.5 1883.5,-354.5 1883.5,-335.5 2029.5,-335.5 2029.5,-354.5"/>
<text text-anchor="middle" x="1956.5" y="-342.5" font-family="Helvetica,sans-Serif" font-size="10.00">JSystem/JUtility/JUTAssert.h</text>
</a>
</g>
</g>
<!-- Node1&#45;&gt;Node11 -->
<g id="edge11" class="edge">
<title>Node1&#45;&gt;Node11</title>
<path fill="none" stroke="#63b8ff" d="M2021.08,-395.8C2008.01,-385.72 1990.47,-372.19 1976.97,-361.78"/>
<polygon fill="#63b8ff" stroke="#63b8ff" points="1979.22,-359.1 1969.17,-355.77 1974.95,-364.65 1979.22,-359.1"/>
</g>
<!-- Node33 -->
<g id="node33" class="node">
<title>Node33</title>
<g id="a_node33"><a xlink:href="JUTConsole_8h.html" target="_top" xlink:title=" ">
<polygon fill="white" stroke="#666666" points="2199.5,-354.5 2047.5,-354.5 2047.5,-335.5 2199.5,-335.5 2199.5,-354.5"/>
<text text-anchor="middle" x="2123.5" y="-342.5" font-family="Helvetica,sans-Serif" font-size="10.00">JSystem/JUtility/JUTConsole.h</text>
</a>
</g>
</g>
<!-- Node1&#45;&gt;Node33 -->
<g id="edge56" class="edge">
<title>Node1&#45;&gt;Node33</title>
<path fill="none" stroke="#63b8ff" d="M2058.14,-395.8C2071.37,-385.72 2089.12,-372.19 2102.79,-361.78"/>
<polygon fill="#63b8ff" stroke="#63b8ff" points="2104.85,-364.61 2110.69,-355.76 2100.61,-359.04 2104.85,-364.61"/>
</g>
<!-- Node38 -->
<g id="node38" class="node">
<title>Node38</title>
<g id="a_node38"><a xlink:href="global_8h.html" target="_top" xlink:title=" ">
<polygon fill="white" stroke="#666666" points="2241.5,-129 2191.5,-129 2191.5,-110 2241.5,-110 2241.5,-129"/>
<text text-anchor="middle" x="2216.5" y="-117" font-family="Helvetica,sans-Serif" font-size="10.00">global.h</text>
</a>
</g>
</g>
<!-- Node1&#45;&gt;Node38 -->
<g id="edge70" class="edge">
<title>Node1&#45;&gt;Node38</title>
<path fill="none" stroke="#63b8ff" d="M2094.39,-403.25C2197.87,-389 2411.5,-351.56 2411.5,-285.5 2411.5,-285.5 2411.5,-285.5 2411.5,-228.5 2411.5,-156.96 2309.83,-132.43 2253.31,-124.31"/>
<polygon fill="#63b8ff" stroke="#63b8ff" points="2253.87,-120.85 2243.49,-123.02 2252.95,-127.79 2253.87,-120.85"/>
</g>
<!-- Node3 -->
<g id="node3" class="node">
<title>Node3</title>
<g id="a_node3"><a xlink:href="JKRHeap_8h.html" target="_top" xlink:title=" ">
<polygon fill="white" stroke="#666666" points="1870,-294 1727,-294 1727,-275 1870,-275 1870,-294"/>
<text text-anchor="middle" x="1798.5" y="-282" font-family="Helvetica,sans-Serif" font-size="10.00">JSystem/JKernel/JKRHeap.h</text>
</a>
</g>
</g>
<!-- Node2&#45;&gt;Node3 -->
<g id="edge2" class="edge">
<title>Node2&#45;&gt;Node3</title>
<path fill="none" stroke="#63b8ff" d="M1798.5,-329.54C1798.5,-322.34 1798.5,-313.53 1798.5,-305.68"/>
<polygon fill="#63b8ff" stroke="#63b8ff" points="1802,-305.69 1798.5,-295.69 1795,-305.69 1802,-305.69"/>
</g>
<!-- Node4 -->
<g id="node4" class="node">
<title>Node4</title>
<g id="a_node4"><a xlink:href="JKRDisposer_8h.html" target="_top" xlink:title=" ">
<polygon fill="white" stroke="#666666" points="1951.5,-239 1793.5,-239 1793.5,-220 1951.5,-220 1951.5,-239"/>
<text text-anchor="middle" x="1872.5" y="-227" font-family="Helvetica,sans-Serif" font-size="10.00">JSystem/JKernel/JKRDisposer.h</text>
</a>
</g>
</g>
<!-- Node3&#45;&gt;Node4 -->
<g id="edge3" class="edge">
<title>Node3&#45;&gt;Node4</title>
<path fill="none" stroke="#63b8ff" d="M1811.05,-274.51C1821.96,-266.7 1838,-255.21 1850.96,-245.93"/>
<polygon fill="#63b8ff" stroke="#63b8ff" points="1852.81,-248.91 1858.9,-240.24 1848.73,-243.22 1852.81,-248.91"/>
</g>
<!-- Node8 -->
<g id="node8" class="node">
<title>Node8</title>
<g id="a_node8"><a xlink:href="OSMutex_8h.html" target="_top" xlink:title=" ">
<polygon fill="white" stroke="#666666" points="1737.5,-239 1625.5,-239 1625.5,-220 1737.5,-220 1737.5,-239"/>
<text text-anchor="middle" x="1681.5" y="-227" font-family="Helvetica,sans-Serif" font-size="10.00">dolphin/os/OSMutex.h</text>
</a>
</g>
</g>
<!-- Node3&#45;&gt;Node8 -->
<g id="edge7" class="edge">
<title>Node3&#45;&gt;Node8</title>
<path fill="none" stroke="#63b8ff" d="M1778.65,-274.51C1760.22,-266.16 1732.52,-253.61 1711.41,-244.05"/>
<polygon fill="#63b8ff" stroke="#63b8ff" points="1712.99,-240.92 1702.43,-239.98 1710.1,-247.3 1712.99,-240.92"/>
</g>
<!-- Node5 -->
<g id="node5" class="node">
<title>Node5</title>
<g id="a_node5"><a xlink:href="JSUList_8h.html" target="_top" xlink:title=" ">
<polygon fill="white" stroke="#666666" points="1940,-129 1797,-129 1797,-110 1940,-110 1940,-129"/>
<text text-anchor="middle" x="1868.5" y="-117" font-family="Helvetica,sans-Serif" font-size="10.00">JSystem/JSupport/JSUList.h</text>
</a>
</g>
</g>
<!-- Node4&#45;&gt;Node5 -->
<g id="edge4" class="edge">
<title>Node4&#45;&gt;Node5</title>
<path fill="none" stroke="#63b8ff" d="M1872.17,-219.66C1871.54,-202.57 1870.13,-164.61 1869.26,-140.92"/>
<polygon fill="#63b8ff" stroke="#63b8ff" points="1872.76,-140.84 1868.89,-130.97 1865.76,-141.1 1872.76,-140.84"/>
</g>
<!-- Node6 -->
<g id="node6" class="node">
<title>Node6</title>
<g id="a_node6"><a xlink:href="types_8h.html" target="_top" xlink:title=" ">
<polygon fill="white" stroke="#666666" points="1159,-74 1078,-74 1078,-55 1159,-55 1159,-74"/>
<text text-anchor="middle" x="1118.5" y="-62" font-family="Helvetica,sans-Serif" font-size="10.00">dolphin/types.h</text>
</a>
</g>
</g>
<!-- Node5&#45;&gt;Node6 -->
<g id="edge5" class="edge">
<title>Node5&#45;&gt;Node6</title>
<path fill="none" stroke="#63b8ff" d="M1796.59,-113.42C1646.22,-102.79 1301.66,-78.44 1170.5,-69.17"/>
<polygon fill="#63b8ff" stroke="#63b8ff" points="1170.95,-65.7 1160.73,-68.48 1170.45,-72.68 1170.95,-65.7"/>
</g>
<!-- Node7 -->
<g id="node7" class="node">
<title>Node7</title>
<g id="a_node7"><a xlink:href="stddef_8h.html" target="_top" xlink:title=" ">
<polygon fill="white" stroke="#666666" points="1719,-19 1668,-19 1668,0 1719,0 1719,-19"/>
<text text-anchor="middle" x="1693.5" y="-7" font-family="Helvetica,sans-Serif" font-size="10.00">stddef.h</text>
</a>
</g>
</g>
<!-- Node6&#45;&gt;Node7 -->
<g id="edge6" class="edge">
<title>Node6&#45;&gt;Node7</title>
<path fill="none" stroke="#63b8ff" d="M1159.39,-59.73C1266.38,-49.87 1553.37,-23.42 1656.2,-13.94"/>
<polygon fill="#63b8ff" stroke="#63b8ff" points="1656.38,-17.44 1666.02,-13.03 1655.74,-10.47 1656.38,-17.44"/>
</g>
<!-- Node9 -->
<g id="node9" class="node">
<title>Node9</title>
<g id="a_node9"><a xlink:href="OSThread_8h.html" target="_top" xlink:title=" ">
<polygon fill="white" stroke="#666666" points="1350.5,-184 1234.5,-184 1234.5,-165 1350.5,-165 1350.5,-184"/>
<text text-anchor="middle" x="1292.5" y="-172" font-family="Helvetica,sans-Serif" font-size="10.00">dolphin/os/OSThread.h</text>
</a>
</g>
</g>
<!-- Node8&#45;&gt;Node9 -->
<g id="edge8" class="edge">
<title>Node8&#45;&gt;Node9</title>
<path fill="none" stroke="#63b8ff" d="M1625.35,-220.85C1555.81,-211.37 1437.33,-195.23 1362.09,-184.98"/>
<polygon fill="#63b8ff" stroke="#63b8ff" points="1362.74,-181.54 1352.36,-183.66 1361.79,-188.47 1362.74,-181.54"/>
</g>
<!-- Node10 -->
<g id="node10" class="node">
<title>Node10</title>
<g id="a_node10"><a xlink:href="OSContext_8h.html" target="_top" xlink:title=" ">
<polygon fill="white" stroke="#666666" points="1343,-129 1224,-129 1224,-110 1343,-110 1343,-129"/>
<text text-anchor="middle" x="1283.5" y="-117" font-family="Helvetica,sans-Serif" font-size="10.00">dolphin/os/OSContext.h</text>
</a>
</g>
</g>
<!-- Node9&#45;&gt;Node10 -->
<g id="edge9" class="edge">
<title>Node9&#45;&gt;Node10</title>
<path fill="none" stroke="#63b8ff" d="M1291.01,-164.75C1289.9,-158.19 1288.33,-148.95 1286.91,-140.6"/>
<polygon fill="#63b8ff" stroke="#63b8ff" points="1290.4,-140.21 1285.27,-130.93 1283.5,-141.38 1290.4,-140.21"/>
</g>
<!-- Node10&#45;&gt;Node6 -->
<g id="edge10" class="edge">
<title>Node10&#45;&gt;Node6</title>
<path fill="none" stroke="#63b8ff" d="M1255.51,-109.51C1228.41,-100.8 1187.09,-87.53 1156.92,-77.84"/>
<polygon fill="#63b8ff" stroke="#63b8ff" points="1158.38,-74.64 1147.79,-74.91 1156.24,-81.3 1158.38,-74.64"/>
</g>
<!-- Node11&#45;&gt;Node6 -->
<g id="edge12" class="edge">
<title>Node11&#45;&gt;Node6</title>
<path fill="none" stroke="#63b8ff" d="M1959.92,-335.07C1972.68,-300.1 2013.45,-171.47 1948.5,-110 1920.2,-83.22 1348.65,-69.95 1170.83,-66.46"/>
<polygon fill="#63b8ff" stroke="#63b8ff" points="1171.03,-62.96 1160.97,-66.27 1170.9,-69.96 1171.03,-62.96"/>
</g>
<!-- Node12 -->
<g id="node12" class="node">
<title>Node12</title>
<g id="a_node12"><a xlink:href="OS_8h.html" target="_top" xlink:title=" ">
<polygon fill="white" stroke="#666666" points="946.5,-294 860.5,-294 860.5,-275 946.5,-275 946.5,-294"/>
<text text-anchor="middle" x="903.5" y="-282" font-family="Helvetica,sans-Serif" font-size="10.00">dolphin/os/OS.h</text>
</a>
</g>
</g>
<!-- Node11&#45;&gt;Node12 -->
<g id="edge13" class="edge">
<title>Node11&#45;&gt;Node12</title>
<path fill="none" stroke="#63b8ff" d="M1909.81,-335C1898.3,-333.07 1885.99,-331.24 1874.5,-330 1526.96,-292.51 1106.11,-286.56 958.13,-285.65"/>
<polygon fill="#63b8ff" stroke="#63b8ff" points="958.25,-282.15 948.23,-285.59 958.21,-289.15 958.25,-282.15"/>
</g>
<!-- Node12&#45;&gt;Node8 -->
<g id="edge44" class="edge">
<title>Node12&#45;&gt;Node8</title>
<path fill="none" stroke="#63b8ff" d="M946.92,-281.78C1056.65,-277.22 1354.17,-263.54 1613.84,-239.08"/>
<polygon fill="#63b8ff" stroke="#63b8ff" points="1613.87,-242.6 1623.49,-238.17 1613.21,-235.63 1613.87,-242.6"/>
</g>
<!-- Node12&#45;&gt;Node9 -->
<g id="edge54" class="edge">
<title>Node12&#45;&gt;Node9</title>
<path fill="none" stroke="#63b8ff" d="M946.94,-281.65C1043.16,-277.11 1267.54,-263.94 1290.5,-239 1301.13,-227.45 1300.56,-209.12 1297.96,-195.11"/>
<polygon fill="#63b8ff" stroke="#63b8ff" points="1301.43,-194.6 1295.72,-185.67 1294.62,-196.21 1301.43,-194.6"/>
</g>
<!-- Node12&#45;&gt;Node10 -->
<g id="edge30" class="edge">
<title>Node12&#45;&gt;Node10</title>
<path fill="none" stroke="#63b8ff" d="M946.77,-277.41C985.89,-270.96 1044.55,-258.89 1092.5,-239 1159.42,-211.23 1229.74,-161.41 1263.33,-136.13"/>
<polygon fill="#63b8ff" stroke="#63b8ff" points="1265.12,-139.16 1270.96,-130.32 1260.88,-133.59 1265.12,-139.16"/>
</g>
<!-- Node13 -->
<g id="node13" class="node">
<title>Node13</title>
<g id="a_node13"><a xlink:href="____va__arg_8h.html" target="_top" xlink:title=" ">
<polygon fill="white" stroke="#666666" points="2071.5,-239 2007.5,-239 2007.5,-220 2071.5,-220 2071.5,-239"/>
<text text-anchor="middle" x="2039.5" y="-227" font-family="Helvetica,sans-Serif" font-size="10.00">__va_arg.h</text>
</a>
</g>
</g>
<!-- Node12&#45;&gt;Node13 -->
<g id="edge14" class="edge">
<title>Node12&#45;&gt;Node13</title>
<path fill="none" stroke="#63b8ff" d="M946.85,-282.69C1091.04,-279.77 1567.63,-268.37 1960.5,-239 1972.06,-238.14 1984.53,-236.92 1996.08,-235.69"/>
<polygon fill="#63b8ff" stroke="#63b8ff" points="1996.2,-239.19 2005.75,-234.62 1995.43,-232.24 1996.2,-239.19"/>
</g>
<!-- Node14 -->
<g id="node14" class="node">
<title>Node14</title>
<g id="a_node14"><a xlink:href="dvd_8h.html" target="_top" xlink:title=" ">
<polygon fill="white" stroke="#666666" points="1629.5,-129 1537.5,-129 1537.5,-110 1629.5,-110 1629.5,-129"/>
<text text-anchor="middle" x="1583.5" y="-117" font-family="Helvetica,sans-Serif" font-size="10.00">dolphin/dvd/dvd.h</text>
</a>
</g>
</g>
<!-- Node12&#45;&gt;Node14 -->
<g id="edge16" class="edge">
<title>Node12&#45;&gt;Node14</title>
<path fill="none" stroke="#63b8ff" d="M946.89,-282.85C1115.44,-280.1 1718.75,-268.26 1746.5,-239 1790.45,-192.67 1688.85,-152.16 1626.92,-132.73"/>
<polygon fill="#63b8ff" stroke="#63b8ff" points="1628.27,-129.48 1617.68,-129.9 1626.22,-136.17 1628.27,-129.48"/>
</g>
<!-- Node15 -->
<g id="node15" class="node">
<title>Node15</title>
<g id="a_node15"><a xlink:href="OSAlarm_8h.html" target="_top" xlink:title=" ">
<polygon fill="white" stroke="#666666" points="1062,-239 951,-239 951,-220 1062,-220 1062,-239"/>
<text text-anchor="middle" x="1006.5" y="-227" font-family="Helvetica,sans-Serif" font-size="10.00">dolphin/os/OSAlarm.h</text>
</a>
</g>
</g>
<!-- Node12&#45;&gt;Node15 -->
<g id="edge18" class="edge">
<title>Node12&#45;&gt;Node15</title>
<path fill="none" stroke="#63b8ff" d="M920.97,-274.51C936.9,-266.31 960.69,-254.07 979.14,-244.58"/>
<polygon fill="#63b8ff" stroke="#63b8ff" points="980.65,-247.74 987.94,-240.05 977.45,-241.51 980.65,-247.74"/>
</g>
<!-- Node16 -->
<g id="node16" class="node">
<title>Node16</title>
<g id="a_node16"><a xlink:href="OSError_8h.html" target="_top" xlink:title=" ">
<polygon fill="white" stroke="#666666" points="1153.5,-184 1047.5,-184 1047.5,-165 1153.5,-165 1153.5,-184"/>
<text text-anchor="middle" x="1100.5" y="-172" font-family="Helvetica,sans-Serif" font-size="10.00">dolphin/os/OSError.h</text>
</a>
</g>
</g>
<!-- Node12&#45;&gt;Node16 -->
<g id="edge31" class="edge">
<title>Node12&#45;&gt;Node16</title>
<path fill="none" stroke="#63b8ff" d="M946.81,-281.86C983.51,-278.35 1035.58,-268.11 1070.5,-239 1083.83,-227.89 1091.61,-209.51 1095.89,-195.37"/>
<polygon fill="#63b8ff" stroke="#63b8ff" points="1099.25,-196.36 1098.42,-185.8 1092.48,-194.57 1099.25,-196.36"/>
</g>
<!-- Node17 -->
<g id="node17" class="node">
<title>Node17</title>
<g id="a_node17"><a xlink:href="OSTime_8h.html" target="_top" xlink:title=" ">
<polygon fill="white" stroke="#666666" points="1029,-184 922,-184 922,-165 1029,-165 1029,-184"/>
<text text-anchor="middle" x="975.5" y="-172" font-family="Helvetica,sans-Serif" font-size="10.00">dolphin/os/OSTime.h</text>
</a>
</g>
</g>
<!-- Node12&#45;&gt;Node17 -->
<g id="edge55" class="edge">
<title>Node12&#45;&gt;Node17</title>
<path fill="none" stroke="#63b8ff" d="M908.36,-274.68C915.31,-262.23 928.67,-238.93 941.5,-220 947.63,-210.96 954.93,-201.29 961.18,-193.27"/>
<polygon fill="#63b8ff" stroke="#63b8ff" points="963.75,-195.68 967.22,-185.67 958.26,-191.33 963.75,-195.68"/>
</g>
<!-- Node18 -->
<g id="node18" class="node">
<title>Node18</title>
<g id="a_node18"><a xlink:href="OSAlloc_8h.html" target="_top" xlink:title=" ">
<polygon fill="white" stroke="#666666" points="107,-129 0,-129 0,-110 107,-110 107,-129"/>
<text text-anchor="middle" x="53.5" y="-117" font-family="Helvetica,sans-Serif" font-size="10.00">dolphin/os/OSAlloc.h</text>
</a>
</g>
</g>
<!-- Node12&#45;&gt;Node18 -->
<g id="edge23" class="edge">
<title>Node12&#45;&gt;Node18</title>
<path fill="none" stroke="#63b8ff" d="M860.07,-283.28C723.31,-282.2 302.95,-275.9 172.5,-239 122.56,-224.88 101.46,-224.88 69.5,-184 59.84,-171.65 55.95,-154.17 54.41,-140.68"/>
<polygon fill="#63b8ff" stroke="#63b8ff" points="57.9,-140.48 53.66,-130.77 50.92,-141.01 57.9,-140.48"/>
</g>
<!-- Node19 -->
<g id="node19" class="node">
<title>Node19</title>
<g id="a_node19"><a xlink:href="OSArena_8h.html" target="_top" xlink:title=" ">
<polygon fill="white" stroke="#666666" points="190,-184 79,-184 79,-165 190,-165 190,-184"/>
<text text-anchor="middle" x="134.5" y="-172" font-family="Helvetica,sans-Serif" font-size="10.00">dolphin/os/OSArena.h</text>
</a>
</g>
</g>
<!-- Node12&#45;&gt;Node19 -->
<g id="edge25" class="edge">
<title>Node12&#45;&gt;Node19</title>
<path fill="none" stroke="#63b8ff" d="M860.09,-282.4C716.81,-278.54 264.7,-264.46 204.5,-239 181.44,-229.25 161,-208.56 148.25,-193.44"/>
<polygon fill="#63b8ff" stroke="#63b8ff" points="150.98,-191.25 141.98,-185.66 145.53,-195.64 150.98,-191.25"/>
</g>
<!-- Node20 -->
<g id="node20" class="node">
<title>Node20</title>
<g id="a_node20"><a xlink:href="OSAudioSystem_8h.html" target="_top" xlink:title=" ">
<polygon fill="white" stroke="#666666" points="1482,-239 1339,-239 1339,-220 1482,-220 1482,-239"/>
<text text-anchor="middle" x="1410.5" y="-227" font-family="Helvetica,sans-Serif" font-size="10.00">dolphin/os/OSAudioSystem.h</text>
</a>
</g>
</g>
<!-- Node12&#45;&gt;Node20 -->
<g id="edge27" class="edge">
<title>Node12&#45;&gt;Node20</title>
<path fill="none" stroke="#63b8ff" d="M946.73,-278.98C1031.03,-270.17 1218.66,-250.55 1327.67,-239.16"/>
<polygon fill="#63b8ff" stroke="#63b8ff" points="1327.85,-242.66 1337.43,-238.14 1327.12,-235.7 1327.85,-242.66"/>
</g>
<!-- Node21 -->
<g id="node21" class="node">
<title>Node21</title>
<g id="a_node21"><a xlink:href="OSCache_8h.html" target="_top" xlink:title=" ">
<polygon fill="white" stroke="#666666" points="417,-129 304,-129 304,-110 417,-110 417,-129"/>
<text text-anchor="middle" x="360.5" y="-117" font-family="Helvetica,sans-Serif" font-size="10.00">dolphin/os/OSCache.h</text>
</a>
</g>
</g>
<!-- Node12&#45;&gt;Node21 -->
<g id="edge28" class="edge">
<title>Node12&#45;&gt;Node21</title>
<path fill="none" stroke="#63b8ff" d="M860.16,-283.91C769.76,-283.87 555.01,-279.13 380.5,-239 314.14,-223.74 276.05,-240.13 237.5,-184 218.99,-157.05 254.9,-140.8 292.62,-131.5"/>
<polygon fill="#63b8ff" stroke="#63b8ff" points="293.35,-134.93 302.31,-129.29 291.78,-128.1 293.35,-134.93"/>
</g>
<!-- Node22 -->
<g id="node22" class="node">
<title>Node22</title>
<g id="a_node22"><a xlink:href="OSExec_8h.html" target="_top" xlink:title=" ">
<polygon fill="white" stroke="#666666" points="354,-184 247,-184 247,-165 354,-165 354,-184"/>
<text text-anchor="middle" x="300.5" y="-172" font-family="Helvetica,sans-Serif" font-size="10.00">dolphin/os/OSExec.h</text>
</a>
</g>
</g>
<!-- Node12&#45;&gt;Node22 -->
<g id="edge32" class="edge">
<title>Node12&#45;&gt;Node22</title>
<path fill="none" stroke="#63b8ff" d="M860.14,-281.36C759.47,-276.08 512.42,-261.23 432.5,-239 392.45,-227.86 349.72,-205.05 324.07,-190.02"/>
<polygon fill="#63b8ff" stroke="#63b8ff" points="326.17,-187.2 315.79,-185.08 322.58,-193.21 326.17,-187.2"/>
</g>
<!-- Node23 -->
<g id="node23" class="node">
<title>Node23</title>
<g id="a_node23"><a xlink:href="OSFont_8h.html" target="_top" xlink:title=" ">
<polygon fill="white" stroke="#666666" points="477,-184 372,-184 372,-165 477,-165 477,-184"/>
<text text-anchor="middle" x="424.5" y="-172" font-family="Helvetica,sans-Serif" font-size="10.00">dolphin/os/OSFont.h</text>
</a>
</g>
</g>
<!-- Node12&#45;&gt;Node23 -->
<g id="edge34" class="edge">
<title>Node12&#45;&gt;Node23</title>
<path fill="none" stroke="#63b8ff" d="M860.2,-281.77C753.27,-277.14 482.94,-263.16 450.5,-239 436.75,-228.76 430.25,-209.98 427.18,-195.49"/>
<polygon fill="#63b8ff" stroke="#63b8ff" points="430.64,-194.95 425.53,-185.67 423.74,-196.11 430.64,-194.95"/>
</g>
<!-- Node24 -->
<g id="node24" class="node">
<title>Node24</title>
<g id="a_node24"><a xlink:href="OSInterrupt_8h.html" target="_top" xlink:title=" ">
<polygon fill="white" stroke="#666666" points="617.5,-184 495.5,-184 495.5,-165 617.5,-165 617.5,-184"/>
<text text-anchor="middle" x="556.5" y="-172" font-family="Helvetica,sans-Serif" font-size="10.00">dolphin/os/OSInterrupt.h</text>
</a>
</g>
</g>
<!-- Node12&#45;&gt;Node24 -->
<g id="edge36" class="edge">
<title>Node12&#45;&gt;Node24</title>
<path fill="none" stroke="#63b8ff" d="M860.45,-283.45C805.02,-281.86 706.88,-273.79 631.5,-239 607.64,-227.99 585.34,-207.24 571.36,-192.46"/>
<polygon fill="#63b8ff" stroke="#63b8ff" points="574.14,-190.31 564.81,-185.28 568.97,-195.03 574.14,-190.31"/>
</g>
<!-- Node25 -->
<g id="node25" class="node">
<title>Node25</title>
<g id="a_node25"><a xlink:href="OSLink_8h.html" target="_top" xlink:title=" ">
<polygon fill="white" stroke="#666666" points="697.5,-129 593.5,-129 593.5,-110 697.5,-110 697.5,-129"/>
<text text-anchor="middle" x="645.5" y="-117" font-family="Helvetica,sans-Serif" font-size="10.00">dolphin/os/OSLink.h</text>
</a>
</g>
</g>
<!-- Node12&#45;&gt;Node25 -->
<g id="edge38" class="edge">
<title>Node12&#45;&gt;Node25</title>
<path fill="none" stroke="#63b8ff" d="M860.45,-277.94C806.18,-268.54 713.99,-244.26 664.5,-184 654.32,-171.61 649.6,-153.89 647.4,-140.32"/>
<polygon fill="#63b8ff" stroke="#63b8ff" points="650.92,-140.28 646.2,-130.79 643.98,-141.15 650.92,-140.28"/>
</g>
<!-- Node26 -->
<g id="node26" class="node">
<title>Node26</title>
<g id="a_node26"><a xlink:href="OSMemory_8h.html" target="_top" xlink:title=" ">
<polygon fill="white" stroke="#666666" points="579.5,-239 459.5,-239 459.5,-220 579.5,-220 579.5,-239"/>
<text text-anchor="middle" x="519.5" y="-227" font-family="Helvetica,sans-Serif" font-size="10.00">dolphin/os/OSMemory.h</text>
</a>
</g>
</g>
<!-- Node12&#45;&gt;Node26 -->
<g id="edge40" class="edge">
<title>Node12&#45;&gt;Node26</title>
<path fill="none" stroke="#63b8ff" d="M860.2,-277.52C794.86,-268.51 670.32,-251.32 591.28,-240.41"/>
<polygon fill="#63b8ff" stroke="#63b8ff" points="591.84,-236.95 581.46,-239.05 590.88,-243.89 591.84,-236.95"/>
</g>
<!-- Node27 -->
<g id="node27" class="node">
<title>Node27</title>
<g id="a_node27"><a xlink:href="OSMessage_8h.html" target="_top" xlink:title=" ">
<polygon fill="white" stroke="#666666" points="1282,-239 1157,-239 1157,-220 1282,-220 1282,-239"/>
<text text-anchor="middle" x="1219.5" y="-227" font-family="Helvetica,sans-Serif" font-size="10.00">dolphin/os/OSMessage.h</text>
</a>
</g>
</g>
<!-- Node12&#45;&gt;Node27 -->
<g id="edge42" class="edge">
<title>Node12&#45;&gt;Node27</title>
<path fill="none" stroke="#63b8ff" d="M946.78,-276.24C1000.48,-267.23 1092.56,-251.79 1154.7,-241.37"/>
<polygon fill="#63b8ff" stroke="#63b8ff" points="1155.16,-244.84 1164.44,-239.73 1154,-237.94 1155.16,-244.84"/>
</g>
<!-- Node28 -->
<g id="node28" class="node">
<title>Node28</title>
<g id="a_node28"><a xlink:href="OSReboot_8h.html" target="_top" xlink:title=" ">
<polygon fill="white" stroke="#666666" points="789.5,-184 673.5,-184 673.5,-165 789.5,-165 789.5,-184"/>
<text text-anchor="middle" x="731.5" y="-172" font-family="Helvetica,sans-Serif" font-size="10.00">dolphin/os/OSReboot.h</text>
</a>
</g>
</g>
<!-- Node12&#45;&gt;Node28 -->
<g id="edge45" class="edge">
<title>Node12&#45;&gt;Node28</title>
<path fill="none" stroke="#63b8ff" d="M872.75,-274.63C849.97,-267.21 818.81,-255.22 794.5,-239 775.4,-226.25 757.34,-207.04 745.5,-193.09"/>
<polygon fill="#63b8ff" stroke="#63b8ff" points="748.38,-191.08 739.32,-185.59 742.97,-195.53 748.38,-191.08"/>
</g>
<!-- Node29 -->
<g id="node29" class="node">
<title>Node29</title>
<g id="a_node29"><a xlink:href="OSReset_8h.html" target="_top" xlink:title=" ">
<polygon fill="white" stroke="#666666" points="865,-129 754,-129 754,-110 865,-110 865,-129"/>
<text text-anchor="middle" x="809.5" y="-117" font-family="Helvetica,sans-Serif" font-size="10.00">dolphin/os/OSReset.h</text>
</a>
</g>
</g>
<!-- Node12&#45;&gt;Node29 -->
<g id="edge47" class="edge">
<title>Node12&#45;&gt;Node29</title>
<path fill="none" stroke="#63b8ff" d="M894.3,-274.58C885.81,-266.02 873.24,-252.43 864.5,-239 843.22,-206.32 825.71,-164.08 816.51,-139.86"/>
<polygon fill="#63b8ff" stroke="#63b8ff" points="819.87,-138.85 813.11,-130.69 813.3,-141.28 819.87,-138.85"/>
</g>
<!-- Node30 -->
<g id="node30" class="node">
<title>Node30</title>
<g id="a_node30"><a xlink:href="OSResetSW_8h.html" target="_top" xlink:title=" ">
<polygon fill="white" stroke="#666666" points="1010,-129 883,-129 883,-110 1010,-110 1010,-129"/>
<text text-anchor="middle" x="946.5" y="-117" font-family="Helvetica,sans-Serif" font-size="10.00">dolphin/os/OSResetSW.h</text>
</a>
</g>
</g>
<!-- Node12&#45;&gt;Node30 -->
<g id="edge49" class="edge">
<title>Node12&#45;&gt;Node30</title>
<path fill="none" stroke="#63b8ff" d="M894.17,-274.63C886.14,-266.31 875.15,-253.06 870.5,-239 864.09,-219.61 874.07,-173.41 879.5,-165 887.93,-151.95 901.68,-141.84 914.55,-134.57"/>
<polygon fill="#63b8ff" stroke="#63b8ff" points="915.96,-137.78 923.21,-130.06 912.72,-131.58 915.96,-137.78"/>
</g>
<!-- Node31 -->
<g id="node31" class="node">
<title>Node31</title>
<g id="a_node31"><a xlink:href="OSRtc_8h.html" target="_top" xlink:title=" ">
<polygon fill="white" stroke="#666666" points="1129,-129 1028,-129 1028,-110 1129,-110 1129,-129"/>
<text text-anchor="middle" x="1078.5" y="-117" font-family="Helvetica,sans-Serif" font-size="10.00">dolphin/os/OSRtc.h</text>
</a>
</g>
</g>
<!-- Node12&#45;&gt;Node31 -->
<g id="edge51" class="edge">
<title>Node12&#45;&gt;Node31</title>
<path fill="none" stroke="#63b8ff" d="M901.06,-274.51C895.77,-252.86 885.76,-197.24 912.5,-165 925.98,-148.75 975.29,-136.87 1016.69,-129.49"/>
<polygon fill="#63b8ff" stroke="#63b8ff" points="1017.09,-132.97 1026.35,-127.83 1015.91,-126.07 1017.09,-132.97"/>
</g>
<!-- Node32 -->
<g id="node32" class="node">
<title>Node32</title>
<g id="a_node32"><a xlink:href="OSSync_8h.html" target="_top" xlink:title=" ">
<polygon fill="white" stroke="#666666" points="1607,-239 1500,-239 1500,-220 1607,-220 1607,-239"/>
<text text-anchor="middle" x="1553.5" y="-227" font-family="Helvetica,sans-Serif" font-size="10.00">dolphin/os/OSSync.h</text>
</a>
</g>
</g>
<!-- Node12&#45;&gt;Node32 -->
<g id="edge53" class="edge">
<title>Node12&#45;&gt;Node32</title>
<path fill="none" stroke="#63b8ff" d="M946.66,-281.09C1042.19,-275.58 1278.96,-260.9 1488.36,-239.16"/>
<polygon fill="#63b8ff" stroke="#63b8ff" points="1488.48,-242.67 1498.06,-238.14 1487.75,-235.71 1488.48,-242.67"/>
</g>
<!-- Node13&#45;&gt;Node6 -->
<g id="edge15" class="edge">
<title>Node13&#45;&gt;Node6</title>
<path fill="none" stroke="#63b8ff" d="M2038.68,-219.71C2036.05,-197 2025.59,-136.29 1987.5,-110 1920.4,-63.68 1348.4,-63.84 1170.85,-65.02"/>
<polygon fill="#63b8ff" stroke="#63b8ff" points="1170.98,-61.52 1161,-65.09 1171.03,-68.52 1170.98,-61.52"/>
</g>
<!-- Node14&#45;&gt;Node6 -->
<g id="edge17" class="edge">
<title>Node14&#45;&gt;Node6</title>
<path fill="none" stroke="#63b8ff" d="M1537.21,-113.22C1449.98,-103.28 1261.8,-81.83 1170.41,-71.42"/>
<polygon fill="#63b8ff" stroke="#63b8ff" points="1171.07,-67.97 1160.73,-70.31 1170.27,-74.92 1171.07,-67.97"/>
</g>
<!-- Node15&#45;&gt;Node16 -->
<g id="edge19" class="edge">
<title>Node15&#45;&gt;Node16</title>
<path fill="none" stroke="#63b8ff" d="M1022.45,-219.51C1036.85,-211.39 1058.29,-199.3 1075.06,-189.85"/>
<polygon fill="#63b8ff" stroke="#63b8ff" points="1076.48,-193.06 1083.47,-185.1 1073.04,-186.96 1076.48,-193.06"/>
</g>
<!-- Node15&#45;&gt;Node17 -->
<g id="edge21" class="edge">
<title>Node15&#45;&gt;Node17</title>
<path fill="none" stroke="#63b8ff" d="M1001.38,-219.75C997.32,-212.81 991.51,-202.86 986.41,-194.16"/>
<polygon fill="#63b8ff" stroke="#63b8ff" points="989.56,-192.61 981.49,-185.75 983.52,-196.15 989.56,-192.61"/>
</g>
<!-- Node16&#45;&gt;Node6 -->
<g id="edge20" class="edge">
<title>Node16&#45;&gt;Node6</title>
<path fill="none" stroke="#63b8ff" d="M1126.72,-164.59C1142.77,-157.62 1161.99,-146.18 1171.5,-129 1181.65,-110.66 1162.99,-92.59 1145.08,-80.44"/>
<polygon fill="#63b8ff" stroke="#63b8ff" points="1147,-77.52 1136.68,-75.15 1143.27,-83.44 1147,-77.52"/>
</g>
<!-- Node17&#45;&gt;Node6 -->
<g id="edge22" class="edge">
<title>Node17&#45;&gt;Node6</title>
<path fill="none" stroke="#63b8ff" d="M1029.42,-165.81C1071.25,-158.6 1124.28,-146.34 1137.5,-129 1147.62,-115.73 1140.17,-97.11 1131.82,-83.47"/>
<polygon fill="#63b8ff" stroke="#63b8ff" points="1134.88,-81.75 1126.38,-75.43 1129.08,-85.67 1134.88,-81.75"/>
</g>
<!-- Node18&#45;&gt;Node6 -->
<g id="edge24" class="edge">
<title>Node18&#45;&gt;Node6</title>
<path fill="none" stroke="#63b8ff" d="M107.16,-115.62C138.47,-113.95 178.72,-111.83 214.5,-110 538.48,-93.47 927.82,-74.66 1066.41,-68"/>
<polygon fill="#63b8ff" stroke="#63b8ff" points="1066.17,-71.51 1075.99,-67.54 1065.83,-64.52 1066.17,-71.51"/>
</g>
<!-- Node19&#45;&gt;Node6 -->
<g id="edge26" class="edge">
<title>Node19&#45;&gt;Node6</title>
<path fill="none" stroke="#63b8ff" d="M151.67,-164.52C180.34,-150.03 240.2,-121.91 294.5,-110 442.63,-77.52 909.27,-68.33 1066.33,-66.12"/>
<polygon fill="#63b8ff" stroke="#63b8ff" points="1066.06,-69.62 1076.01,-65.99 1065.97,-62.62 1066.06,-69.62"/>
</g>
<!-- Node21&#45;&gt;Node6 -->
<g id="edge29" class="edge">
<title>Node21&#45;&gt;Node6</title>
<path fill="none" stroke="#63b8ff" d="M417.15,-113.16C429.46,-112.06 442.41,-110.95 454.5,-110 682.27,-92.07 954.36,-75.29 1066.39,-68.58"/>
<polygon fill="#63b8ff" stroke="#63b8ff" points="1066.39,-72.08 1076.16,-67.99 1065.97,-65.1 1066.39,-72.08"/>
</g>
<!-- Node22&#45;&gt;Node6 -->
<g id="edge33" class="edge">
<title>Node22&#45;&gt;Node6</title>
<path fill="none" stroke="#63b8ff" d="M323.9,-164.52C362.1,-150.28 440.53,-122.83 509.5,-110 713.18,-72.1 960.78,-66.13 1066.55,-65.43"/>
<polygon fill="#63b8ff" stroke="#63b8ff" points="1066.35,-68.93 1076.33,-65.38 1066.31,-61.93 1066.35,-68.93"/>
</g>
<!-- Node23&#45;&gt;Node6 -->
<g id="edge35" class="edge">
<title>Node23&#45;&gt;Node6</title>
<path fill="none" stroke="#63b8ff" d="M439.51,-164.64C464.62,-150.32 517.14,-122.44 565.5,-110 659.39,-85.85 947.54,-72.17 1066.4,-67.42"/>
<polygon fill="#63b8ff" stroke="#63b8ff" points="1066.33,-70.93 1076.19,-67.03 1066.06,-63.93 1066.33,-70.93"/>
</g>
<!-- Node24&#45;&gt;Node6 -->
<g id="edge37" class="edge">
<title>Node24&#45;&gt;Node6</title>
<path fill="none" stroke="#63b8ff" d="M557.54,-164.77C559.74,-150.64 566.25,-123.01 584.5,-110 623.16,-82.44 939.69,-70.54 1066.37,-66.85"/>
<polygon fill="#63b8ff" stroke="#63b8ff" points="1066.26,-70.35 1076.15,-66.57 1066.06,-63.35 1066.26,-70.35"/>
</g>
<!-- Node25&#45;&gt;Node6 -->
<g id="edge39" class="edge">
<title>Node25&#45;&gt;Node6</title>
<path fill="none" stroke="#63b8ff" d="M697.73,-111.68C702.38,-111.1 707.03,-110.53 711.5,-110 838.89,-94.83 988.96,-78.93 1066.4,-70.87"/>
<polygon fill="#63b8ff" stroke="#63b8ff" points="1066.65,-74.37 1076.24,-69.85 1065.93,-67.4 1066.65,-74.37"/>
</g>
<!-- Node26&#45;&gt;Node24 -->
<g id="edge41" class="edge">
<title>Node26&#45;&gt;Node24</title>
<path fill="none" stroke="#63b8ff" d="M525.61,-219.75C530.51,-212.73 537.55,-202.64 543.67,-193.87"/>
<polygon fill="#63b8ff" stroke="#63b8ff" points="546.54,-195.89 549.39,-185.68 540.8,-191.88 546.54,-195.89"/>
</g>
<!-- Node27&#45;&gt;Node9 -->
<g id="edge43" class="edge">
<title>Node27&#45;&gt;Node9</title>
<path fill="none" stroke="#63b8ff" d="M1231.88,-219.51C1242.65,-211.7 1258.47,-200.21 1271.25,-190.93"/>
<polygon fill="#63b8ff" stroke="#63b8ff" points="1273.04,-193.95 1279.07,-185.25 1268.93,-188.29 1273.04,-193.95"/>
</g>
<!-- Node28&#45;&gt;Node6 -->
<g id="edge46" class="edge">
<title>Node28&#45;&gt;Node6</title>
<path fill="none" stroke="#63b8ff" d="M730.39,-164.58C729.21,-150.69 729.26,-124.02 744.5,-110 767.77,-88.6 969.31,-74.14 1066.5,-68.34"/>
<polygon fill="#63b8ff" stroke="#63b8ff" points="1066.53,-71.85 1076.31,-67.77 1066.12,-64.86 1066.53,-71.85"/>
</g>
<!-- Node29&#45;&gt;Node6 -->
<g id="edge48" class="edge">
<title>Node29&#45;&gt;Node6</title>
<path fill="none" stroke="#63b8ff" d="M861.92,-109.51C918.94,-99.73 1009.55,-84.19 1066.44,-74.43"/>
<polygon fill="#63b8ff" stroke="#63b8ff" points="1066.94,-77.9 1076.2,-72.76 1065.75,-71 1066.94,-77.9"/>
</g>
<!-- Node30&#45;&gt;Node6 -->
<g id="edge50" class="edge">
<title>Node30&#45;&gt;Node6</title>
<path fill="none" stroke="#63b8ff" d="M975.68,-109.51C1004.06,-100.76 1047.38,-87.42 1078.87,-77.71"/>
<polygon fill="#63b8ff" stroke="#63b8ff" points="1079.49,-81.18 1088.02,-74.89 1077.43,-74.49 1079.49,-81.18"/>
</g>
<!-- Node31&#45;&gt;Node6 -->
<g id="edge52" class="edge">
<title>Node31&#45;&gt;Node6</title>
<path fill="none" stroke="#63b8ff" d="M1085.11,-109.75C1090.46,-102.66 1098.18,-92.42 1104.85,-83.59"/>
<polygon fill="#63b8ff" stroke="#63b8ff" points="1107.61,-85.74 1110.84,-75.65 1102.02,-81.52 1107.61,-85.74"/>
</g>
<!-- Node33&#45;&gt;Node4 -->
<g id="edge59" class="edge">
<title>Node33&#45;&gt;Node4</title>
<path fill="none" stroke="#63b8ff" d="M2103.8,-335.09C2060,-315.29 1954.28,-267.48 1902.33,-243.99"/>
<polygon fill="#63b8ff" stroke="#63b8ff" points="1904.04,-240.92 1893.48,-239.99 1901.15,-247.3 1904.04,-240.92"/>
</g>
<!-- Node33&#45;&gt;Node6 -->
<g id="edge69" class="edge">
<title>Node33&#45;&gt;Node6</title>
<path fill="none" stroke="#63b8ff" d="M2199.87,-340.56C2273.39,-332.66 2373.5,-307.72 2373.5,-230.5 2373.5,-230.5 2373.5,-230.5 2373.5,-173.5 2373.5,-111.98 2309.99,-125.69 2250.5,-110 2145.51,-82.3 1379.27,-69.28 1170.76,-66.22"/>
<polygon fill="#63b8ff" stroke="#63b8ff" points="1170.82,-62.72 1160.77,-66.08 1170.72,-69.72 1170.82,-62.72"/>
</g>
<!-- Node33&#45;&gt;Node13 -->
<g id="edge68" class="edge">
<title>Node33&#45;&gt;Node13</title>
<path fill="none" stroke="#63b8ff" d="M2116.71,-335.19C2109.06,-325.24 2096.29,-308.53 2085.5,-294 2074.11,-278.65 2061.37,-261.03 2052.19,-248.25"/>
<polygon fill="#63b8ff" stroke="#63b8ff" points="2055.24,-246.49 2046.57,-240.4 2049.55,-250.57 2055.24,-246.49"/>
</g>
<!-- Node34 -->
<g id="node34" class="node">
<title>Node34</title>
<g id="a_node34"><a xlink:href="linklist_8h.html" target="_top" xlink:title=" ">
<polygon fill="white" stroke="#666666" points="2173,-129 2040,-129 2040,-110 2173,-110 2173,-129"/>
<text text-anchor="middle" x="2106.5" y="-117" font-family="Helvetica,sans-Serif" font-size="10.00">JSystem/JGadget/linklist.h</text>
</a>
</g>
</g>
<!-- Node33&#45;&gt;Node34 -->
<g id="edge57" class="edge">
<title>Node33&#45;&gt;Node34</title>
<path fill="none" stroke="#63b8ff" d="M2122.53,-335.16C2121.46,-325.17 2119.72,-308.43 2118.5,-294 2113.8,-238.47 2109.64,-172.82 2107.68,-140.52"/>
<polygon fill="#63b8ff" stroke="#63b8ff" points="2111.19,-140.46 2107.1,-130.68 2104.2,-140.87 2111.19,-140.46"/>
</g>
<!-- Node35 -->
<g id="node35" class="node">
<title>Node35</title>
<g id="a_node35"><a xlink:href="JUTFont_8h.html" target="_top" xlink:title=" ">
<polygon fill="white" stroke="#666666" points="2265,-294 2128,-294 2128,-275 2265,-275 2265,-294"/>
<text text-anchor="middle" x="2196.5" y="-282" font-family="Helvetica,sans-Serif" font-size="10.00">JSystem/JUtility/JUTFont.h</text>
</a>
</g>
</g>
<!-- Node33&#45;&gt;Node35 -->
<g id="edge60" class="edge">
<title>Node33&#45;&gt;Node35</title>
<path fill="none" stroke="#63b8ff" d="M2134.59,-335.12C2145.74,-326.18 2163.16,-312.22 2176.69,-301.37"/>
<polygon fill="#63b8ff" stroke="#63b8ff" points="2178.51,-304.4 2184.13,-295.41 2174.14,-298.94 2178.51,-304.4"/>
</g>
<!-- Node34&#45;&gt;Node6 -->
<g id="edge58" class="edge">
<title>Node34&#45;&gt;Node6</title>
<path fill="none" stroke="#63b8ff" d="M2039.78,-111.2C2034.95,-110.76 2030.15,-110.36 2025.5,-110 1700.6,-85 1309.1,-71.36 1170.33,-67.03"/>
<polygon fill="#63b8ff" stroke="#63b8ff" points="1170.85,-63.55 1160.74,-66.74 1170.63,-70.55 1170.85,-63.55"/>
</g>
<!-- Node36 -->
<g id="node36" class="node">
<title>Node36</title>
<g id="a_node36"><a xlink:href="TColor_8h.html" target="_top" xlink:title=" ">
<polygon fill="white" stroke="#666666" points="2255,-239 2128,-239 2128,-220 2255,-220 2255,-239"/>
<text text-anchor="middle" x="2191.5" y="-227" font-family="Helvetica,sans-Serif" font-size="10.00">JSystem/JUtility/TColor.h</text>
</a>
</g>
</g>
<!-- Node35&#45;&gt;Node36 -->
<g id="edge61" class="edge">
<title>Node35&#45;&gt;Node36</title>
<path fill="none" stroke="#63b8ff" d="M2195.67,-274.75C2195.06,-268.27 2194.2,-259.16 2193.42,-250.9"/>
<polygon fill="#63b8ff" stroke="#63b8ff" points="2196.91,-250.58 2192.49,-240.95 2189.94,-251.23 2196.91,-250.58"/>
</g>
<!-- Node39 -->
<g id="node39" class="node">
<title>Node39</title>
<g id="a_node39"><a xlink:href="string_8h.html" target="_top" xlink:title=" ">
<polygon fill="white" stroke="#666666" points="2321.5,-239 2273.5,-239 2273.5,-220 2321.5,-220 2321.5,-239"/>
<text text-anchor="middle" x="2297.5" y="-227" font-family="Helvetica,sans-Serif" font-size="10.00">string.h</text>
</a>
</g>
</g>
<!-- Node35&#45;&gt;Node39 -->
<g id="edge65" class="edge">
<title>Node35&#45;&gt;Node39</title>
<path fill="none" stroke="#63b8ff" d="M2213.63,-274.51C2229.25,-266.31 2252.58,-254.07 2270.67,-244.58"/>
<polygon fill="#63b8ff" stroke="#63b8ff" points="2272.05,-247.81 2279.28,-240.06 2268.8,-241.61 2272.05,-247.81"/>
</g>
<!-- Node37 -->
<g id="node37" class="node">
<title>Node37</title>
<g id="a_node37"><a xlink:href="GXStruct_8h.html" target="_top" xlink:title=" ">
<polygon fill="white" stroke="#666666" points="2239,-184 2128,-184 2128,-165 2239,-165 2239,-184"/>
<text text-anchor="middle" x="2183.5" y="-172" font-family="Helvetica,sans-Serif" font-size="10.00">dolphin/gx/GXStruct.h</text>
</a>
</g>
</g>
<!-- Node36&#45;&gt;Node37 -->
<g id="edge62" class="edge">
<title>Node36&#45;&gt;Node37</title>
<path fill="none" stroke="#63b8ff" d="M2190.18,-219.75C2189.19,-213.19 2187.79,-203.95 2186.53,-195.6"/>
<polygon fill="#63b8ff" stroke="#63b8ff" points="2190.03,-195.3 2185.08,-185.94 2183.11,-196.35 2190.03,-195.3"/>
</g>
<!-- Node37&#45;&gt;Node38 -->
<g id="edge63" class="edge">
<title>Node37&#45;&gt;Node38</title>
<path fill="none" stroke="#63b8ff" d="M2188.95,-164.75C2193.27,-157.81 2199.46,-147.86 2204.88,-139.16"/>
<polygon fill="#63b8ff" stroke="#63b8ff" points="2207.82,-141.07 2210.13,-130.73 2201.88,-137.37 2207.82,-141.07"/>
</g>
<!-- Node38&#45;&gt;Node6 -->
<g id="edge64" class="edge">
<title>Node38&#45;&gt;Node6</title>
<path fill="none" stroke="#63b8ff" d="M2191.38,-111.77C2188.08,-111.07 2184.72,-110.45 2181.5,-110 1982.85,-82 1356,-69.48 1170.62,-66.33"/>
<polygon fill="#63b8ff" stroke="#63b8ff" points="1170.88,-62.83 1160.83,-66.16 1170.77,-69.83 1170.88,-62.83"/>
</g>
<!-- Node39&#45;&gt;Node7 -->
<g id="edge66" class="edge">
<title>Node39&#45;&gt;Node7</title>
<path fill="none" stroke="#63b8ff" d="M2304.14,-219.57C2312.61,-207 2325.19,-183.55 2316.5,-165 2300.3,-130.42 2285.12,-126.12 2250.5,-110 2068.78,-25.39 1822.86,-12.45 1730.55,-10.68"/>
<polygon fill="#63b8ff" stroke="#63b8ff" points="1730.88,-7.18 1720.82,-10.53 1730.77,-14.18 1730.88,-7.18"/>
</g>
<!-- Node40 -->
<g id="node40" class="node">
<title>Node40</title>
<g id="a_node40"><a xlink:href="extras_8h.html" target="_top" xlink:title=" ">
<polygon fill="white" stroke="#666666" points="2307.5,-184 2257.5,-184 2257.5,-165 2307.5,-165 2307.5,-184"/>
<text text-anchor="middle" x="2282.5" y="-172" font-family="Helvetica,sans-Serif" font-size="10.00">extras.h</text>
</a>
</g>
</g>
<!-- Node39&#45;&gt;Node40 -->
<g id="edge67" class="edge">
<title>Node39&#45;&gt;Node40</title>
<path fill="none" stroke="#63b8ff" d="M2295.02,-219.75C2293.15,-213.11 2290.49,-203.73 2288.11,-195.31"/>
<polygon fill="#63b8ff" stroke="#63b8ff" points="2291.53,-194.57 2285.44,-185.9 2284.8,-196.47 2291.53,-194.57"/>
</g>
</g>
</svg>
        <g id="navigator" transform="translate(0 0)" fill="#404254">
                <rect fill="#f2f5e9" fill-opacity="0.5" stroke="#606060" stroke-width=".5" x="0" y="0" width="60" height="60"/>
                <use id="zoomplus" xlink:href="#zoomPlus" x="17" y="9" onmousedown="handleZoom(evt,'in')"/>
                <use id="zoomminus" xlink:href="#zoomMin" x="42" y="9" onmousedown="handleZoom(evt,'out')"/>
                <use id="reset" xlink:href="#resetDef" x="30" y="36" onmousedown="handleReset()"/>
                <g id="arrowUp" xlink:href="#dirArrow" transform="translate(30 24)" onmousedown="handlePan(0,-1)">
                  <use xlink:href="#rim" fill="#404040">
                        <set attributeName="fill" to="#808080" begin="arrowUp.mouseover" end="arrowUp.mouseout"/>
                  </use>
                  <path fill="none" stroke="white" stroke-width="1.5" d="M0,-3.0v7 M-2.5,-0.5L0,-3.0L2.5,-0.5"/>
                </g>
                <g id="arrowRight" xlink:href="#dirArrow" transform="rotate(90) translate(36 -43)" onmousedown="handlePan(1,0)">
                  <use xlink:href="#rim" fill="#404040">
                        <set attributeName="fill" to="#808080" begin="arrowRight.mouseover" end="arrowRight.mouseout"/>
                  </use>
                  <path fill="none" stroke="white" stroke-width="1.5" d="M0,-3.0v7 M-2.5,-0.5L0,-3.0L2.5,-0.5"/>
                </g>
                <g id="arrowDown" xlink:href="#dirArrow" transform="rotate(180) translate(-30 -48)" onmousedown="handlePan(0,1)">
                  <use xlink:href="#rim" fill="#404040">
                        <set attributeName="fill" to="#808080" begin="arrowDown.mouseover" end="arrowDown.mouseout"/>
                  </use>
                  <path fill="none" stroke="white" stroke-width="1.5" d="M0,-3.0v7 M-2.5,-0.5L0,-3.0L2.5,-0.5"/>
                </g>
                <g id="arrowLeft" xlink:href="#dirArrow" transform="rotate(270) translate(-36 17)" onmousedown="handlePan(-1,0)">
                  <use xlink:href="#rim" fill="#404040">
                        <set attributeName="fill" to="#808080" begin="arrowLeft.mouseover" end="arrowLeft.mouseout"/>
                  </use>
                  <path fill="none" stroke="white" stroke-width="1.5" d="M0,-3.0v7 M-2.5,-0.5L0,-3.0L2.5,-0.5"/>
                </g>
        </g>
        <svg viewBox="0 0 15 15" width="100%" height="30px" preserveAspectRatio="xMaxYMin meet">
         <g id="arrow_out" transform="scale(0.3 0.3)">
          <a xlink:href="JKRSolidHeap_8cpp__incl_org.svg" target="_base">
           <rect id="button" ry="5" rx="5" y="6" x="6" height="38" width="38"
                fill="#f2f5e9" fill-opacity="0.5" stroke="#606060" stroke-width="1.0"/>
           <path id="arrow"
             d="M 11.500037,31.436501 C 11.940474,20.09759 22.043105,11.32322 32.158766,21.979434 L 37.068811,17.246167 C 37.068811,17.246167 37.088388,32 37.088388,32 L 22.160133,31.978069 C 22.160133,31.978069 26.997745,27.140456 26.997745,27.140456 C 18.528582,18.264221 13.291696,25.230495 11.500037,31.436501 z"
             style="fill:#404040;"/>
          </a>
         </g>
        </svg>
</svg>
