<?xml version="1.0" encoding="UTF-8" standalone="no"?>
<!DOCTYPE svg PUBLIC "-//W3C//DTD SVG 1.1//EN"
 "http://www.w3.org/Graphics/SVG/1.1/DTD/svg11.dtd">
<!-- Generated by graphviz version 7.0.5 (20221223.1930)
 -->
<!-- Title: include/JSystem/JMath/JMATrigonometric.h Pages: 1 -->
<svg width="2821pt" height="170pt"
 viewBox="0.00 0.00 2820.50 170.00" xmlns="http://www.w3.org/2000/svg" xmlns:xlink="http://www.w3.org/1999/xlink">
<g id="graph0" class="graph" transform="scale(1 1) rotate(0) translate(4 166)">
<title>include/JSystem/JMath/JMATrigonometric.h</title>
<!-- Node1 -->
<g id="node1" class="node">
<title>Node1</title>
<g id="a_node1"><a xlink:title=" ">
<polygon fill="#999999" stroke="#666666" points="1538,-162 1419,-162 1419,-132 1538,-132 1538,-162"/>
<text text-anchor="start" x="1427" y="-150" font-family="Helvetica,sans-Serif" font-size="10.00">include/JSystem/JMath</text>
<text text-anchor="middle" x="1478.5" y="-139" font-family="Helvetica,sans-Serif" font-size="10.00">/JMATrigonometric.h</text>
</a>
</g>
</g>
<!-- Node2 -->
<g id="node2" class="node">
<title>Node2</title>
<g id="a_node2"><a xlink:href="c__math_8h.html" target="_top" xlink:title=" ">
<polygon fill="white" stroke="#666666" points="1450,-96 1301,-96 1301,-66 1450,-66 1450,-96"/>
<text text-anchor="start" x="1309" y="-84" font-family="Helvetica,sans-Serif" font-size="10.00">include/SSystem/SComponent</text>
<text text-anchor="middle" x="1375.5" y="-73" font-family="Helvetica,sans-Serif" font-size="10.00">/c_math.h</text>
</a>
</g>
</g>
<!-- Node1&#45;&gt;Node2 -->
<g id="edge1" class="edge">
<title>Node1&#45;&gt;Node2</title>
<path fill="none" stroke="#63b8ff" d="M1445.73,-125.64C1430.37,-116.09 1412.44,-104.95 1398.54,-96.31"/>
<polygon fill="#63b8ff" stroke="#63b8ff" points="1443.76,-128.53 1454.1,-130.84 1447.45,-122.59 1443.76,-128.53"/>
</g>
<!-- Node11 -->
<g id="node11" class="node">
<title>Node11</title>
<g id="a_node11"><a xlink:href="d__bg__w_8cpp.html" target="_top" xlink:title=" ">
<polygon fill="white" stroke="#666666" points="107,-24.5 0,-24.5 0,-5.5 107,-5.5 107,-24.5"/>
<text text-anchor="middle" x="53.5" y="-12.5" font-family="Helvetica,sans-Serif" font-size="10.00">src/d/bg/d_bg_w.cpp</text>
</a>
</g>
</g>
<!-- Node1&#45;&gt;Node11 -->
<g id="edge24" class="edge">
<title>Node1&#45;&gt;Node11</title>
<path fill="none" stroke="#63b8ff" d="M1407.4,-143.3C1204.7,-134.88 606.94,-105.03 116.5,-30 107.86,-28.68 98.64,-26.86 89.99,-24.98"/>
<polygon fill="#63b8ff" stroke="#63b8ff" points="1407.11,-146.79 1417.24,-143.7 1407.4,-139.8 1407.11,-146.79"/>
</g>
<!-- Node21 -->
<g id="node21" class="node">
<title>Node21</title>
<g id="a_node21"><a xlink:href="m__Do__lib_8cpp.html" target="_top" xlink:title=" ">
<polygon fill="white" stroke="#666666" points="2812.5,-24.5 2692.5,-24.5 2692.5,-5.5 2812.5,-5.5 2812.5,-24.5"/>
<text text-anchor="middle" x="2752.5" y="-12.5" font-family="Helvetica,sans-Serif" font-size="10.00">src/m_Do/m_Do_lib.cpp</text>
</a>
</g>
</g>
<!-- Node1&#45;&gt;Node21 -->
<g id="edge25" class="edge">
<title>Node1&#45;&gt;Node21</title>
<path fill="none" stroke="#63b8ff" d="M1477.09,-120.49C1477.61,-102.31 1481.69,-78.89 1497.5,-66 1548.59,-24.35 2618.02,-37.58 2683.5,-30 2693.58,-28.83 2704.37,-26.95 2714.36,-24.94"/>
<polygon fill="#63b8ff" stroke="#63b8ff" points="1473.59,-120.3 1477.17,-130.27 1480.59,-120.24 1473.59,-120.3"/>
</g>
<!-- Node23 -->
<g id="node23" class="node">
<title>Node23</title>
<g id="a_node23"><a xlink:href="JPADynamicsBlock_8cpp.html" target="_top" xlink:title=" ">
<polygon fill="white" stroke="#666666" points="1630.5,-96 1506.5,-96 1506.5,-66 1630.5,-66 1630.5,-96"/>
<text text-anchor="start" x="1514.5" y="-84" font-family="Helvetica,sans-Serif" font-size="10.00">libs/JSystem/JParticle</text>
<text text-anchor="middle" x="1568.5" y="-73" font-family="Helvetica,sans-Serif" font-size="10.00">/JPADynamicsBlock.cpp</text>
</a>
</g>
</g>
<!-- Node1&#45;&gt;Node23 -->
<g id="edge22" class="edge">
<title>Node1&#45;&gt;Node23</title>
<path fill="none" stroke="#63b8ff" d="M1507.68,-125.25C1520.94,-115.82 1536.3,-104.9 1548.27,-96.39"/>
<polygon fill="#63b8ff" stroke="#63b8ff" points="1505.83,-122.27 1499.71,-130.92 1509.89,-127.98 1505.83,-122.27"/>
</g>
<!-- Node24 -->
<g id="node24" class="node">
<title>Node24</title>
<g id="a_node24"><a xlink:href="JPAExtraShape_8cpp.html" target="_top" xlink:title=" ">
<polygon fill="white" stroke="#666666" points="1762.5,-96 1648.5,-96 1648.5,-66 1762.5,-66 1762.5,-96"/>
<text text-anchor="start" x="1656.5" y="-84" font-family="Helvetica,sans-Serif" font-size="10.00">libs/JSystem/JParticle</text>
<text text-anchor="middle" x="1705.5" y="-73" font-family="Helvetica,sans-Serif" font-size="10.00">/JPAExtraShape.cpp</text>
</a>
</g>
</g>
<!-- Node1&#45;&gt;Node24 -->
<g id="edge23" class="edge">
<title>Node1&#45;&gt;Node24</title>
<path fill="none" stroke="#63b8ff" d="M1540.53,-128.51C1576.3,-118.43 1620.73,-105.9 1654.46,-96.39"/>
<polygon fill="#63b8ff" stroke="#63b8ff" points="1539.86,-125.06 1531.18,-131.15 1541.76,-131.8 1539.86,-125.06"/>
</g>
<!-- Node3 -->
<g id="node3" class="node">
<title>Node3</title>
<g id="a_node3"><a xlink:href="c__lib_8cpp.html" target="_top" xlink:title=" ">
<polygon fill="white" stroke="#666666" points="259.5,-30 125.5,-30 125.5,0 259.5,0 259.5,-30"/>
<text text-anchor="start" x="133.5" y="-18" font-family="Helvetica,sans-Serif" font-size="10.00">libs/SSystem/SComponent</text>
<text text-anchor="middle" x="192.5" y="-7" font-family="Helvetica,sans-Serif" font-size="10.00">/c_lib.cpp</text>
</a>
</g>
</g>
<!-- Node2&#45;&gt;Node3 -->
<g id="edge2" class="edge">
<title>Node2&#45;&gt;Node3</title>
<path fill="none" stroke="#63b8ff" d="M1289.35,-80.12C1102.67,-79.49 647.16,-73.22 268.5,-30 265.7,-29.68 262.85,-29.32 259.97,-28.93"/>
<polygon fill="#63b8ff" stroke="#63b8ff" points="1289.19,-83.62 1299.2,-80.14 1289.21,-76.62 1289.19,-83.62"/>
</g>
<!-- Node4 -->
<g id="node4" class="node">
<title>Node4</title>
<g id="a_node4"><a xlink:href="c__m3d_8cpp.html" target="_top" xlink:title=" ">
<polygon fill="white" stroke="#666666" points="411.5,-30 277.5,-30 277.5,0 411.5,0 411.5,-30"/>
<text text-anchor="start" x="285.5" y="-18" font-family="Helvetica,sans-Serif" font-size="10.00">libs/SSystem/SComponent</text>
<text text-anchor="middle" x="344.5" y="-7" font-family="Helvetica,sans-Serif" font-size="10.00">/c_m3d.cpp</text>
</a>
</g>
</g>
<!-- Node2&#45;&gt;Node4 -->
<g id="edge3" class="edge">
<title>Node2&#45;&gt;Node4</title>
<path fill="none" stroke="#63b8ff" d="M1289.15,-79.23C1121.25,-76.9 739.28,-67.55 420.5,-30 417.7,-29.67 414.85,-29.3 411.98,-28.9"/>
<polygon fill="#63b8ff" stroke="#63b8ff" points="1289.06,-82.73 1299.11,-79.36 1289.15,-75.73 1289.06,-82.73"/>
</g>
<!-- Node5 -->
<g id="node5" class="node">
<title>Node5</title>
<g id="a_node5"><a xlink:href="c__math_8cpp.html" target="_top" xlink:title=" ">
<polygon fill="white" stroke="#666666" points="563.5,-30 429.5,-30 429.5,0 563.5,0 563.5,-30"/>
<text text-anchor="start" x="437.5" y="-18" font-family="Helvetica,sans-Serif" font-size="10.00">libs/SSystem/SComponent</text>
<text text-anchor="middle" x="496.5" y="-7" font-family="Helvetica,sans-Serif" font-size="10.00">/c_math.cpp</text>
</a>
</g>
</g>
<!-- Node2&#45;&gt;Node5 -->
<g id="edge4" class="edge">
<title>Node2&#45;&gt;Node5</title>
<path fill="none" stroke="#63b8ff" d="M1289.6,-78.03C1142.34,-73.9 832.43,-61.92 572.5,-30 569.7,-29.66 566.85,-29.28 563.98,-28.86"/>
<polygon fill="#63b8ff" stroke="#63b8ff" points="1289.17,-81.52 1299.26,-78.3 1289.36,-74.52 1289.17,-81.52"/>
</g>
<!-- Node6 -->
<g id="node6" class="node">
<title>Node6</title>
<g id="a_node6"><a xlink:href="c__xyz_8cpp.html" target="_top" xlink:title=" ">
<polygon fill="white" stroke="#666666" points="715.5,-30 581.5,-30 581.5,0 715.5,0 715.5,-30"/>
<text text-anchor="start" x="589.5" y="-18" font-family="Helvetica,sans-Serif" font-size="10.00">libs/SSystem/SComponent</text>
<text text-anchor="middle" x="648.5" y="-7" font-family="Helvetica,sans-Serif" font-size="10.00">/c_xyz.cpp</text>
</a>
</g>
</g>
<!-- Node2&#45;&gt;Node6 -->
<g id="edge5" class="edge">
<title>Node2&#45;&gt;Node6</title>
<path fill="none" stroke="#63b8ff" d="M1289.18,-76.27C1164.23,-70.22 925.88,-56.21 724.5,-30 721.71,-29.64 718.86,-29.24 715.99,-28.81"/>
<polygon fill="#63b8ff" stroke="#63b8ff" points="1288.88,-79.76 1299.03,-76.74 1289.21,-72.77 1288.88,-79.76"/>
</g>
<!-- Node7 -->
<g id="node7" class="node">
<title>Node7</title>
<g id="a_node7"><a xlink:href="d__a__alink_8cpp.html" target="_top" xlink:title=" ">
<polygon fill="white" stroke="#666666" points="843,-24.5 734,-24.5 734,-5.5 843,-5.5 843,-24.5"/>
<text text-anchor="middle" x="788.5" y="-12.5" font-family="Helvetica,sans-Serif" font-size="10.00">src/d/a/d_a_alink.cpp</text>
</a>
</g>
</g>
<!-- Node2&#45;&gt;Node7 -->
<g id="edge6" class="edge">
<title>Node2&#45;&gt;Node7</title>
<path fill="none" stroke="#63b8ff" d="M1289.29,-74.94C1185.3,-68.11 1005.37,-53.94 852.5,-30 843.85,-28.65 834.61,-26.84 825.92,-24.97"/>
<polygon fill="#63b8ff" stroke="#63b8ff" points="1288.95,-78.43 1299.15,-75.58 1289.4,-71.44 1288.95,-78.43"/>
</g>
<!-- Node8 -->
<g id="node8" class="node">
<title>Node8</title>
<g id="a_node8"><a xlink:href="d__a__npc_8cpp.html" target="_top" xlink:title=" ">
<polygon fill="white" stroke="#666666" points="965.5,-24.5 861.5,-24.5 861.5,-5.5 965.5,-5.5 965.5,-24.5"/>
<text text-anchor="middle" x="913.5" y="-12.5" font-family="Helvetica,sans-Serif" font-size="10.00">src/d/a/d_a_npc.cpp</text>
</a>
</g>
</g>
<!-- Node2&#45;&gt;Node8 -->
<g id="edge7" class="edge">
<title>Node2&#45;&gt;Node8</title>
<path fill="none" stroke="#63b8ff" d="M1289.32,-71.81C1207.86,-63.47 1082.38,-49.06 974.5,-30 966.48,-28.58 957.92,-26.79 949.83,-24.97"/>
<polygon fill="#63b8ff" stroke="#63b8ff" points="1288.71,-75.27 1299.01,-72.8 1289.41,-68.3 1288.71,-75.27"/>
</g>
<!-- Node9 -->
<g id="node9" class="node">
<title>Node9</title>
<g id="a_node9"><a xlink:href="d__a__obj__item_8cpp.html" target="_top" xlink:title=" ">
<polygon fill="white" stroke="#666666" points="1109,-24.5 984,-24.5 984,-5.5 1109,-5.5 1109,-24.5"/>
<text text-anchor="middle" x="1046.5" y="-12.5" font-family="Helvetica,sans-Serif" font-size="10.00">src/d/a/d_a_obj_item.cpp</text>
</a>
</g>
</g>
<!-- Node2&#45;&gt;Node9 -->
<g id="edge8" class="edge">
<title>Node2&#45;&gt;Node9</title>
<path fill="none" stroke="#63b8ff" d="M1290.13,-63.39C1227.06,-51.12 1143.63,-34.89 1092.57,-24.96"/>
<polygon fill="#63b8ff" stroke="#63b8ff" points="1289.29,-66.79 1299.77,-65.27 1290.62,-59.92 1289.29,-66.79"/>
</g>
<!-- Node10 -->
<g id="node10" class="node">
<title>Node10</title>
<g id="a_node10"><a xlink:href="d__a__player_8cpp.html" target="_top" xlink:title=" ">
<polygon fill="white" stroke="#666666" points="1241.5,-24.5 1127.5,-24.5 1127.5,-5.5 1241.5,-5.5 1241.5,-24.5"/>
<text text-anchor="middle" x="1184.5" y="-12.5" font-family="Helvetica,sans-Serif" font-size="10.00">src/d/a/d_a_player.cpp</text>
</a>
</g>
</g>
<!-- Node2&#45;&gt;Node10 -->
<g id="edge9" class="edge">
<title>Node2&#45;&gt;Node10</title>
<path fill="none" stroke="#63b8ff" d="M1321.8,-62.01C1285.77,-49.93 1239.86,-34.55 1211.32,-24.99"/>
<polygon fill="#63b8ff" stroke="#63b8ff" points="1320.61,-65.3 1331.2,-65.16 1322.83,-58.66 1320.61,-65.3"/>
</g>
<!-- Node2&#45;&gt;Node11 -->
<g id="edge10" class="edge">
<title>Node2&#45;&gt;Node11</title>
<path fill="none" stroke="#63b8ff" d="M1289.5,-78.59C1044.18,-74.25 344.05,-59.56 116.5,-30 107.39,-28.82 97.65,-26.95 88.62,-24.97"/>
<polygon fill="#63b8ff" stroke="#63b8ff" points="1289.26,-82.09 1299.32,-78.76 1289.39,-75.09 1289.26,-82.09"/>
</g>
<!-- Node12 -->
<g id="node12" class="node">
<title>Node12</title>
<g id="a_node12"><a xlink:href="d__cc__mass__s_8cpp.html" target="_top" xlink:title=" ">
<polygon fill="white" stroke="#666666" points="1365,-30 1260,-30 1260,0 1365,0 1365,-30"/>
<text text-anchor="start" x="1268" y="-18" font-family="Helvetica,sans-Serif" font-size="10.00">src/d/cc/d_cc_mass</text>
<text text-anchor="middle" x="1312.5" y="-7" font-family="Helvetica,sans-Serif" font-size="10.00">_s.cpp</text>
</a>
</g>
</g>
<!-- Node2&#45;&gt;Node12 -->
<g id="edge11" class="edge">
<title>Node2&#45;&gt;Node12</title>
<path fill="none" stroke="#63b8ff" d="M1353.65,-57.81C1344.63,-48.64 1334.43,-38.28 1326.44,-30.16"/>
<polygon fill="#63b8ff" stroke="#63b8ff" points="1350.95,-60.05 1360.46,-64.72 1355.94,-55.14 1350.95,-60.05"/>
</g>
<!-- Node13 -->
<g id="node13" class="node">
<title>Node13</title>
<g id="a_node13"><a xlink:href="d__cc__uty_8cpp.html" target="_top" xlink:title=" ">
<polygon fill="white" stroke="#666666" points="1495.5,-24.5 1383.5,-24.5 1383.5,-5.5 1495.5,-5.5 1495.5,-24.5"/>
<text text-anchor="middle" x="1439.5" y="-12.5" font-family="Helvetica,sans-Serif" font-size="10.00">src/d/cc/d_cc_uty.cpp</text>
</a>
</g>
</g>
<!-- Node2&#45;&gt;Node13 -->
<g id="edge12" class="edge">
<title>Node2&#45;&gt;Node13</title>
<path fill="none" stroke="#63b8ff" d="M1397.56,-57.94C1408.92,-46.58 1422.14,-33.36 1430.66,-24.84"/>
<polygon fill="#63b8ff" stroke="#63b8ff" points="1395.37,-55.18 1390.77,-64.73 1400.32,-60.13 1395.37,-55.18"/>
</g>
<!-- Node14 -->
<g id="node14" class="node">
<title>Node14</title>
<g id="a_node14"><a xlink:href="d__cam__param_8cpp.html" target="_top" xlink:title=" ">
<polygon fill="white" stroke="#666666" points="1635,-24.5 1514,-24.5 1514,-5.5 1635,-5.5 1635,-24.5"/>
<text text-anchor="middle" x="1574.5" y="-12.5" font-family="Helvetica,sans-Serif" font-size="10.00">src/d/d_cam_param.cpp</text>
</a>
</g>
</g>
<!-- Node2&#45;&gt;Node14 -->
<g id="edge13" class="edge">
<title>Node2&#45;&gt;Node14</title>
<path fill="none" stroke="#63b8ff" d="M1430.96,-62.16C1468.57,-50.07 1516.7,-34.59 1546.56,-24.99"/>
<polygon fill="#63b8ff" stroke="#63b8ff" points="1430.05,-58.78 1421.6,-65.17 1432.19,-65.44 1430.05,-58.78"/>
</g>
<!-- Node15 -->
<g id="node15" class="node">
<title>Node15</title>
<g id="a_node15"><a xlink:href="d__event__manager_8cpp.html" target="_top" xlink:title=" ">
<polygon fill="white" stroke="#666666" points="1756,-30 1653,-30 1653,0 1756,0 1756,-30"/>
<text text-anchor="start" x="1661" y="-18" font-family="Helvetica,sans-Serif" font-size="10.00">src/d/event/d_event</text>
<text text-anchor="middle" x="1704.5" y="-7" font-family="Helvetica,sans-Serif" font-size="10.00">_manager.cpp</text>
</a>
</g>
</g>
<!-- Node2&#45;&gt;Node15 -->
<g id="edge14" class="edge">
<title>Node2&#45;&gt;Node15</title>
<path fill="none" stroke="#63b8ff" d="M1461.5,-65.04C1514.4,-55.59 1583.52,-42.78 1644.5,-30 1647.22,-29.43 1650.01,-28.83 1652.82,-28.22"/>
<polygon fill="#63b8ff" stroke="#63b8ff" points="1461.19,-61.54 1451.96,-66.74 1462.42,-68.43 1461.19,-61.54"/>
</g>
<!-- Node16 -->
<g id="node16" class="node">
<title>Node16</title>
<g id="a_node16"><a xlink:href="d__kankyo_8cpp.html" target="_top" xlink:title=" ">
<polygon fill="white" stroke="#666666" points="1908.5,-24.5 1774.5,-24.5 1774.5,-5.5 1908.5,-5.5 1908.5,-24.5"/>
<text text-anchor="middle" x="1841.5" y="-12.5" font-family="Helvetica,sans-Serif" font-size="10.00">src/d/kankyo/d_kankyo.cpp</text>
</a>
</g>
</g>
<!-- Node2&#45;&gt;Node16 -->
<g id="edge15" class="edge">
<title>Node2&#45;&gt;Node16</title>
<path fill="none" stroke="#63b8ff" d="M1461.43,-66.43C1462.46,-66.28 1463.48,-66.14 1464.5,-66 1597.96,-47.53 1632.29,-50.21 1765.5,-30 1775.18,-28.53 1785.52,-26.76 1795.36,-24.98"/>
<polygon fill="#63b8ff" stroke="#63b8ff" points="1461.15,-62.93 1451.75,-67.82 1462.15,-69.86 1461.15,-62.93"/>
</g>
<!-- Node17 -->
<g id="node17" class="node">
<title>Node17</title>
<g id="a_node17"><a xlink:href="d__msg__flow_8cpp.html" target="_top" xlink:title=" ">
<polygon fill="white" stroke="#666666" points="2060,-24.5 1927,-24.5 1927,-5.5 2060,-5.5 2060,-24.5"/>
<text text-anchor="middle" x="1993.5" y="-12.5" font-family="Helvetica,sans-Serif" font-size="10.00">src/d/msg/d_msg_flow.cpp</text>
</a>
</g>
</g>
<!-- Node2&#45;&gt;Node17 -->
<g id="edge16" class="edge">
<title>Node2&#45;&gt;Node17</title>
<path fill="none" stroke="#63b8ff" d="M1461.42,-66.37C1462.46,-66.24 1463.48,-66.12 1464.5,-66 1665.07,-42.29 1717.26,-56.33 1917.5,-30 1927.74,-28.65 1938.7,-26.85 1949.01,-24.99"/>
<polygon fill="#63b8ff" stroke="#63b8ff" points="1461.19,-62.87 1451.73,-67.63 1462.09,-69.81 1461.19,-62.87"/>
</g>
<!-- Node18 -->
<g id="node18" class="node">
<title>Node18</title>
<g id="a_node18"><a xlink:href="d__shop__system_8cpp.html" target="_top" xlink:title=" ">
<polygon fill="white" stroke="#666666" points="2230.5,-24.5 2078.5,-24.5 2078.5,-5.5 2230.5,-5.5 2230.5,-24.5"/>
<text text-anchor="middle" x="2154.5" y="-12.5" font-family="Helvetica,sans-Serif" font-size="10.00">src/d/shop/d_shop_system.cpp</text>
</a>
</g>
</g>
<!-- Node2&#45;&gt;Node18 -->
<g id="edge17" class="edge">
<title>Node2&#45;&gt;Node18</title>
<path fill="none" stroke="#63b8ff" d="M1461.42,-66.34C1462.45,-66.22 1463.48,-66.11 1464.5,-66 1732.3,-37.04 1801.8,-59.93 2069.5,-30 2081.24,-28.69 2093.83,-26.85 2105.63,-24.94"/>
<polygon fill="#63b8ff" stroke="#63b8ff" points="1461.22,-62.84 1451.71,-67.53 1462.07,-69.79 1461.22,-62.84"/>
</g>
<!-- Node19 -->
<g id="node19" class="node">
<title>Node19</title>
<g id="a_node19"><a xlink:href="f__op__actor__mng_8cpp.html" target="_top" xlink:title=" ">
<polygon fill="white" stroke="#666666" points="2350,-30 2249,-30 2249,0 2350,0 2350,-30"/>
<text text-anchor="start" x="2257" y="-18" font-family="Helvetica,sans-Serif" font-size="10.00">src/f_op/f_op_actor</text>
<text text-anchor="middle" x="2299.5" y="-7" font-family="Helvetica,sans-Serif" font-size="10.00">_mng.cpp</text>
</a>
</g>
</g>
<!-- Node2&#45;&gt;Node19 -->
<g id="edge18" class="edge">
<title>Node2&#45;&gt;Node19</title>
<path fill="none" stroke="#63b8ff" d="M1461.42,-66.32C1462.45,-66.21 1463.48,-66.1 1464.5,-66 1807.55,-31.16 1897.95,-77.37 2239.5,-30 2242.47,-29.59 2245.5,-29.1 2248.56,-28.56"/>
<polygon fill="#63b8ff" stroke="#63b8ff" points="1461.23,-62.82 1451.71,-67.46 1462.05,-69.77 1461.23,-62.82"/>
</g>
<!-- Node20 -->
<g id="node20" class="node">
<title>Node20</title>
<g id="a_node20"><a xlink:href="f__op__msg__mng_8cpp.html" target="_top" xlink:title=" ">
<polygon fill="white" stroke="#666666" points="2508.5,-24.5 2368.5,-24.5 2368.5,-5.5 2508.5,-5.5 2508.5,-24.5"/>
<text text-anchor="middle" x="2438.5" y="-12.5" font-family="Helvetica,sans-Serif" font-size="10.00">src/f_op/f_op_msg_mng.cpp</text>
</a>
</g>
</g>
<!-- Node2&#45;&gt;Node20 -->
<g id="edge19" class="edge">
<title>Node2&#45;&gt;Node20</title>
<path fill="none" stroke="#63b8ff" d="M1461.42,-66.31C1462.45,-66.21 1463.48,-66.1 1464.5,-66 1860.68,-27 1963.71,-72.83 2359.5,-30 2370.72,-28.79 2382.74,-26.94 2393.95,-24.98"/>
<polygon fill="#63b8ff" stroke="#63b8ff" points="1461.24,-62.81 1451.7,-67.43 1462.04,-69.76 1461.24,-62.81"/>
</g>
<!-- Node2&#45;&gt;Node21 -->
<g id="edge20" class="edge">
<title>Node2&#45;&gt;Node21</title>
<path fill="none" stroke="#63b8ff" d="M1461.42,-66.3C1462.45,-66.19 1463.48,-66.1 1464.5,-66 2004.18,-15.79 2145.06,-92.11 2683.5,-30 2693.58,-28.84 2704.37,-26.96 2714.36,-24.95"/>
<polygon fill="#63b8ff" stroke="#63b8ff" points="1461.25,-62.79 1451.7,-67.38 1462.03,-69.75 1461.25,-62.79"/>
</g>
<!-- Node22 -->
<g id="node22" class="node">
<title>Node22</title>
<g id="a_node22"><a xlink:href="m__Do__machine_8cpp.html" target="_top" xlink:title=" ">
<polygon fill="white" stroke="#666666" points="2674,-24.5 2527,-24.5 2527,-5.5 2674,-5.5 2674,-24.5"/>
<text text-anchor="middle" x="2600.5" y="-12.5" font-family="Helvetica,sans-Serif" font-size="10.00">src/m_Do/m_Do_machine.cpp</text>
</a>
</g>
</g>
<!-- Node2&#45;&gt;Node22 -->
<g id="edge21" class="edge">
<title>Node2&#45;&gt;Node22</title>
<path fill="none" stroke="#63b8ff" d="M1461.42,-66.3C1462.45,-66.2 1463.48,-66.1 1464.5,-66 1930.66,-21.53 2051.6,-77.05 2517.5,-30 2529.42,-28.8 2542.22,-26.93 2554.12,-24.94"/>
<polygon fill="#63b8ff" stroke="#63b8ff" points="1461.25,-62.8 1451.7,-67.4 1462.03,-69.76 1461.25,-62.8"/>
</g>
</g>
</svg>
