<?xml version="1.0" encoding="UTF-8" standalone="no"?>
<!DOCTYPE svg PUBLIC "-//W3C//DTD SVG 1.1//EN"
 "http://www.w3.org/Graphics/SVG/1.1/DTD/svg11.dtd">
<!-- Generated by graphviz version 9.0.0 (20230911.1827)
 -->
<!-- Title: libs/JSystem/JMessage/control.cpp Pages: 1 -->
<svg width="681pt" height="581pt"
 viewBox="0.00 0.00 680.62 580.75" xmlns="http://www.w3.org/2000/svg" xmlns:xlink="http://www.w3.org/1999/xlink">
<g id="graph0" class="graph" transform="scale(1 1) rotate(0) translate(4 576.75)">
<title>libs/JSystem/JMessage/control.cpp</title>
<!-- Node1 -->
<g id="Node000001" class="node">
<title>Node1</title>
<g id="a_Node000001"><a xlink:title=" ">
<polygon fill="#999999" stroke="#666666" points="570.25,-572.75 450,-572.75 450,-542.25 570.25,-542.25 570.25,-572.75"/>
<text text-anchor="start" x="458" y="-559.25" font-family="Helvetica,sans-Serif" font-size="10.00">libs/JSystem/JMessage</text>
<text text-anchor="middle" x="510.12" y="-548" font-family="Helvetica,sans-Serif" font-size="10.00">/control.cpp</text>
</a>
</g>
</g>
<!-- Node2 -->
<g id="Node000002" class="node">
<title>Node2</title>
<g id="a_Node000002"><a xlink:href="JMessage_2control_8h.html" target="_top" xlink:title=" ">
<polygon fill="white" stroke="#666666" points="497.12,-495 355.12,-495 355.12,-475.75 497.12,-475.75 497.12,-495"/>
<text text-anchor="middle" x="426.12" y="-481.5" font-family="Helvetica,sans-Serif" font-size="10.00">JSystem/JMessage/control.h</text>
</a>
</g>
</g>
<!-- Node1&#45;&gt;Node2 -->
<g id="edge1_Node000001_Node000002" class="edge">
<title>Node1&#45;&gt;Node2</title>
<g id="a_edge1_Node000001_Node000002"><a xlink:title=" ">
<path fill="none" stroke="#63b8ff" d="M492.72,-541.97C478.84,-530.39 459.44,-514.19 445.15,-502.26"/>
<polygon fill="#63b8ff" stroke="#63b8ff" points="447.7,-499.82 437.78,-496.1 443.21,-505.2 447.7,-499.82"/>
</a>
</g>
</g>
<!-- Node16 -->
<g id="Node000016" class="node">
<title>Node16</title>
<g id="a_Node000016"><a xlink:title=" ">
<polygon fill="#e0e0e0" stroke="#999999" points="672.62,-506.25 515.62,-506.25 515.62,-464.5 672.62,-464.5 672.62,-506.25"/>
<text text-anchor="start" x="523.62" y="-492.75" font-family="Helvetica,sans-Serif" font-size="10.00">asm/JSystem/JMessage</text>
<text text-anchor="start" x="523.62" y="-481.5" font-family="Helvetica,sans-Serif" font-size="10.00">/control/render__Q28JMessage8</text>
<text text-anchor="middle" x="594.12" y="-470.25" font-family="Helvetica,sans-Serif" font-size="10.00">TControlFv.s</text>
</a>
</g>
</g>
<!-- Node1&#45;&gt;Node16 -->
<g id="edge20_Node000001_Node000016" class="edge">
<title>Node1&#45;&gt;Node16</title>
<g id="a_edge20_Node000001_Node000016"><a xlink:title=" ">
<path fill="none" stroke="#63b8ff" d="M527.53,-541.97C537.26,-533.85 549.7,-523.46 561.19,-513.87"/>
<polygon fill="#63b8ff" stroke="#63b8ff" points="563.14,-516.8 568.57,-507.71 558.65,-511.43 563.14,-516.8"/>
</a>
</g>
</g>
<!-- Node3 -->
<g id="Node000003" class="node">
<title>Node3</title>
<g id="a_Node000003"><a xlink:href="processor_8h.html" target="_top" xlink:title=" ">
<polygon fill="white" stroke="#666666" points="450.88,-428.5 295.38,-428.5 295.38,-409.25 450.88,-409.25 450.88,-428.5"/>
<text text-anchor="middle" x="373.12" y="-415" font-family="Helvetica,sans-Serif" font-size="10.00">JSystem/JMessage/processor.h</text>
</a>
</g>
</g>
<!-- Node2&#45;&gt;Node3 -->
<g id="edge2_Node000002_Node000003" class="edge">
<title>Node2&#45;&gt;Node3</title>
<g id="a_edge2_Node000002_Node000003"><a xlink:title=" ">
<path fill="none" stroke="#63b8ff" d="M418.76,-475.41C410.77,-465.68 397.81,-449.91 387.74,-437.66"/>
<polygon fill="#63b8ff" stroke="#63b8ff" points="390.45,-435.44 381.39,-429.94 385.04,-439.88 390.45,-435.44"/>
</a>
</g>
</g>
<!-- Node6 -->
<g id="Node000006" class="node">
<title>Node6</title>
<g id="a_Node000006"><a xlink:href="types_8h.html" target="_top" xlink:title=" ">
<polygon fill="white" stroke="#666666" points="255.38,-74.5 174.88,-74.5 174.88,-55.25 255.38,-55.25 255.38,-74.5"/>
<text text-anchor="middle" x="215.12" y="-61" font-family="Helvetica,sans-Serif" font-size="10.00">dolphin/types.h</text>
</a>
</g>
</g>
<!-- Node2&#45;&gt;Node6 -->
<g id="edge19_Node000002_Node000006" class="edge">
<title>Node2&#45;&gt;Node6</title>
<g id="a_edge19_Node000002_Node000006"><a xlink:title=" ">
<path fill="none" stroke="#63b8ff" d="M446.75,-475.36C481.06,-458.81 546.12,-420.1 546.12,-364.62 546.12,-364.62 546.12,-364.62 546.12,-174.38 546.12,-116.32 359.95,-84.32 266.86,-71.94"/>
<polygon fill="#63b8ff" stroke="#63b8ff" points="267.58,-68.51 257.21,-70.69 266.68,-75.45 267.58,-68.51"/>
</a>
</g>
</g>
<!-- Node4 -->
<g id="Node000004" class="node">
<title>Node4</title>
<g id="a_Node000004"><a xlink:href="resource_8h.html" target="_top" xlink:title=" ">
<polygon fill="white" stroke="#666666" points="380.25,-373.25 230,-373.25 230,-354 380.25,-354 380.25,-373.25"/>
<text text-anchor="middle" x="305.12" y="-359.75" font-family="Helvetica,sans-Serif" font-size="10.00">JSystem/JMessage/resource.h</text>
</a>
</g>
</g>
<!-- Node3&#45;&gt;Node4 -->
<g id="edge3_Node000003_Node000004" class="edge">
<title>Node3&#45;&gt;Node4</title>
<g id="a_edge3_Node000003_Node000004"><a xlink:title=" ">
<path fill="none" stroke="#63b8ff" d="M361.59,-408.84C351.66,-401.07 337.11,-389.67 325.27,-380.4"/>
<polygon fill="#63b8ff" stroke="#63b8ff" points="327.71,-377.87 317.68,-374.46 323.4,-383.38 327.71,-377.87"/>
</a>
</g>
</g>
<!-- Node5 -->
<g id="Node000005" class="node">
<title>Node5</title>
<g id="a_Node000005"><a xlink:href="linklist_8h.html" target="_top" xlink:title=" ">
<polygon fill="white" stroke="#666666" points="132.25,-129.75 0,-129.75 0,-110.5 132.25,-110.5 132.25,-129.75"/>
<text text-anchor="middle" x="66.12" y="-116.25" font-family="Helvetica,sans-Serif" font-size="10.00">JSystem/JGadget/linklist.h</text>
</a>
</g>
</g>
<!-- Node4&#45;&gt;Node5 -->
<g id="edge4_Node000004_Node000005" class="edge">
<title>Node4&#45;&gt;Node5</title>
<g id="a_edge4_Node000004_Node000005"><a xlink:title=" ">
<path fill="none" stroke="#63b8ff" d="M229.57,-357.66C171.11,-352.1 96.9,-340.7 77.12,-318 33.3,-267.69 49.83,-179.87 60.22,-140.82"/>
<polygon fill="#63b8ff" stroke="#63b8ff" points="63.52,-141.99 62.88,-131.42 56.79,-140.08 63.52,-141.99"/>
</a>
</g>
</g>
<!-- Node8 -->
<g id="Node000008" class="node">
<title>Node8</title>
<g id="a_Node000008"><a xlink:href="data_8h.html" target="_top" xlink:title=" ">
<polygon fill="white" stroke="#666666" points="217.88,-312.38 86.38,-312.38 86.38,-293.12 217.88,-293.12 217.88,-312.38"/>
<text text-anchor="middle" x="152.12" y="-298.88" font-family="Helvetica,sans-Serif" font-size="10.00">JSystem/JMessage/data.h</text>
</a>
</g>
</g>
<!-- Node4&#45;&gt;Node8 -->
<g id="edge7_Node000004_Node000008" class="edge">
<title>Node4&#45;&gt;Node8</title>
<g id="a_edge7_Node000004_Node000008"><a xlink:title=" ">
<path fill="none" stroke="#63b8ff" d="M281.55,-353.55C256.06,-343.74 215.18,-328.01 186.19,-316.86"/>
<polygon fill="#63b8ff" stroke="#63b8ff" points="187.73,-313.7 177.14,-313.37 185.21,-320.23 187.73,-313.7"/>
</a>
</g>
</g>
<!-- Node10 -->
<g id="Node000010" class="node">
<title>Node10</title>
<g id="a_Node000010"><a xlink:href="locale_8h.html" target="_top" xlink:title=" ">
<polygon fill="white" stroke="#666666" points="374.25,-312.38 236,-312.38 236,-293.12 374.25,-293.12 374.25,-312.38"/>
<text text-anchor="middle" x="305.12" y="-298.88" font-family="Helvetica,sans-Serif" font-size="10.00">JSystem/JMessage/locale.h</text>
</a>
</g>
</g>
<!-- Node4&#45;&gt;Node10 -->
<g id="edge10_Node000004_Node000010" class="edge">
<title>Node4&#45;&gt;Node10</title>
<g id="a_edge10_Node000004_Node000010"><a xlink:title=" ">
<path fill="none" stroke="#63b8ff" d="M305.12,-353.68C305.12,-345.9 305.12,-334.33 305.12,-324.28"/>
<polygon fill="#63b8ff" stroke="#63b8ff" points="308.63,-324.29 305.13,-314.29 301.63,-324.29 308.63,-324.29"/>
</a>
</g>
</g>
<!-- Node11 -->
<g id="Node000011" class="node">
<title>Node11</title>
<g id="a_Node000011"><a xlink:href="fvb-data_8h.html" target="_top" xlink:title=" ">
<polygon fill="white" stroke="#666666" points="518.25,-318 392,-318 392,-287.5 518.25,-287.5 518.25,-318"/>
<text text-anchor="start" x="400" y="-304.5" font-family="Helvetica,sans-Serif" font-size="10.00">JSystem/JStudio/JStudio</text>
<text text-anchor="middle" x="455.12" y="-293.25" font-family="Helvetica,sans-Serif" font-size="10.00">/fvb&#45;data.h</text>
</a>
</g>
</g>
<!-- Node4&#45;&gt;Node11 -->
<g id="edge11_Node000004_Node000011" class="edge">
<title>Node4&#45;&gt;Node11</title>
<g id="a_edge11_Node000004_Node000011"><a xlink:title=" ">
<path fill="none" stroke="#63b8ff" d="M328.23,-353.55C349.18,-345.33 380.72,-332.95 407.11,-322.6"/>
<polygon fill="#63b8ff" stroke="#63b8ff" points="408.25,-325.91 416.28,-319 405.69,-319.39 408.25,-325.91"/>
</a>
</g>
</g>
<!-- Node5&#45;&gt;Node6 -->
<g id="edge5_Node000005_Node000006" class="edge">
<title>Node5&#45;&gt;Node6</title>
<g id="a_edge5_Node000005_Node000006"><a xlink:title=" ">
<path fill="none" stroke="#63b8ff" d="M91.4,-110.09C115.48,-101.49 151.98,-88.44 179.11,-78.75"/>
<polygon fill="#63b8ff" stroke="#63b8ff" points="180.06,-82.12 188.3,-75.46 177.71,-75.53 180.06,-82.12"/>
</a>
</g>
</g>
<!-- Node7 -->
<g id="Node000007" class="node">
<title>Node7</title>
<g id="a_Node000007"><a xlink:href="stddef_8h.html" target="_top" xlink:title=" ">
<polygon fill="white" stroke="#666666" points="240.38,-19.25 189.88,-19.25 189.88,0 240.38,0 240.38,-19.25"/>
<text text-anchor="middle" x="215.12" y="-5.75" font-family="Helvetica,sans-Serif" font-size="10.00">stddef.h</text>
</a>
</g>
</g>
<!-- Node6&#45;&gt;Node7 -->
<g id="edge6_Node000006_Node000007" class="edge">
<title>Node6&#45;&gt;Node7</title>
<g id="a_edge6_Node000006_Node000007"><a xlink:title=" ">
<path fill="none" stroke="#63b8ff" d="M215.12,-55.08C215.12,-48.57 215.12,-39.42 215.12,-31.12"/>
<polygon fill="#63b8ff" stroke="#63b8ff" points="218.63,-31.12 215.13,-21.12 211.63,-31.12 218.63,-31.12"/>
</a>
</g>
</g>
<!-- Node9 -->
<g id="Node000009" class="node">
<title>Node9</title>
<g id="a_Node000009"><a xlink:href="binary_8h.html" target="_top" xlink:title=" ">
<polygon fill="white" stroke="#666666" points="233.12,-245.88 103.12,-245.88 103.12,-226.62 233.12,-226.62 233.12,-245.88"/>
<text text-anchor="middle" x="168.12" y="-232.38" font-family="Helvetica,sans-Serif" font-size="10.00">JSystem/JGadget/binary.h</text>
</a>
</g>
</g>
<!-- Node8&#45;&gt;Node9 -->
<g id="edge8_Node000008_Node000009" class="edge">
<title>Node8&#45;&gt;Node9</title>
<g id="a_edge8_Node000008_Node000009"><a xlink:title=" ">
<path fill="none" stroke="#63b8ff" d="M154.35,-292.78C156.62,-283.64 160.21,-269.14 163.16,-257.25"/>
<polygon fill="#63b8ff" stroke="#63b8ff" points="166.54,-258.16 165.55,-247.61 159.75,-256.47 166.54,-258.16"/>
</a>
</g>
</g>
<!-- Node9&#45;&gt;Node6 -->
<g id="edge9_Node000009_Node000006" class="edge">
<title>Node9&#45;&gt;Node6</title>
<g id="a_edge9_Node000009_Node000006"><a xlink:title=" ">
<path fill="none" stroke="#63b8ff" d="M170.57,-226.25C174.16,-212.99 181.12,-187.45 187.12,-165.75 194.8,-138.01 203.81,-105.98 209.49,-85.83"/>
<polygon fill="#63b8ff" stroke="#63b8ff" points="212.8,-86.99 212.15,-76.41 206.06,-85.09 212.8,-86.99"/>
</a>
</g>
</g>
<!-- Node11&#45;&gt;Node9 -->
<g id="edge12_Node000011_Node000009" class="edge">
<title>Node11&#45;&gt;Node9</title>
<g id="a_edge12_Node000011_Node000009"><a xlink:title=" ">
<path fill="none" stroke="#63b8ff" d="M391.79,-287.52C339.98,-275.87 267.65,-259.62 219.42,-248.78"/>
<polygon fill="#63b8ff" stroke="#63b8ff" points="220.31,-245.39 209.78,-246.61 218.77,-252.22 220.31,-245.39"/>
</a>
</g>
</g>
<!-- Node12 -->
<g id="Node000012" class="node">
<title>Node12</title>
<g id="a_Node000012"><a xlink:href="functionvalue_8h.html" target="_top" xlink:title=" ">
<polygon fill="white" stroke="#666666" points="468.25,-251.5 342,-251.5 342,-221 468.25,-221 468.25,-251.5"/>
<text text-anchor="start" x="350" y="-238" font-family="Helvetica,sans-Serif" font-size="10.00">JSystem/JStudio/JStudio</text>
<text text-anchor="middle" x="405.12" y="-226.75" font-family="Helvetica,sans-Serif" font-size="10.00">/functionvalue.h</text>
</a>
</g>
</g>
<!-- Node11&#45;&gt;Node12 -->
<g id="edge13_Node000011_Node000012" class="edge">
<title>Node11&#45;&gt;Node12</title>
<g id="a_edge13_Node000011_Node000012"><a xlink:title=" ">
<path fill="none" stroke="#63b8ff" d="M443.78,-287.11C437.77,-279.36 430.24,-269.65 423.43,-260.86"/>
<polygon fill="#63b8ff" stroke="#63b8ff" points="426.25,-258.78 417.35,-253.02 420.71,-263.07 426.25,-258.78"/>
</a>
</g>
</g>
<!-- Node13 -->
<g id="Node000013" class="node">
<title>Node13</title>
<g id="a_Node000013"><a xlink:href="search_8h.html" target="_top" xlink:title=" ">
<polygon fill="white" stroke="#666666" points="330,-185 196.25,-185 196.25,-165.75 330,-165.75 330,-185"/>
<text text-anchor="middle" x="263.12" y="-171.5" font-family="Helvetica,sans-Serif" font-size="10.00">JSystem/JGadget/search.h</text>
</a>
</g>
</g>
<!-- Node12&#45;&gt;Node13 -->
<g id="edge14_Node000012_Node000013" class="edge">
<title>Node12&#45;&gt;Node13</title>
<g id="a_edge14_Node000012_Node000013"><a xlink:title=" ">
<path fill="none" stroke="#63b8ff" d="M369.66,-220.55C346.89,-211.1 317.55,-198.94 295.43,-189.77"/>
<polygon fill="#63b8ff" stroke="#63b8ff" points="296.88,-186.58 286.3,-185.98 294.2,-193.05 296.88,-186.58"/>
</a>
</g>
</g>
<!-- Node14 -->
<g id="Node000014" class="node">
<title>Node14</title>
<g id="a_Node000014"><a xlink:href="global_8h.html" target="_top" xlink:title=" ">
<polygon fill="white" stroke="#666666" points="287.62,-129.75 238.62,-129.75 238.62,-110.5 287.62,-110.5 287.62,-129.75"/>
<text text-anchor="middle" x="263.12" y="-116.25" font-family="Helvetica,sans-Serif" font-size="10.00">global.h</text>
</a>
</g>
</g>
<!-- Node12&#45;&gt;Node14 -->
<g id="edge18_Node000012_Node000014" class="edge">
<title>Node12&#45;&gt;Node14</title>
<g id="a_edge18_Node000012_Node000014"><a xlink:title=" ">
<path fill="none" stroke="#63b8ff" d="M393.27,-220.52C380.8,-205.6 360.11,-182.41 339.12,-165.75 324.56,-154.19 306.7,-143.55 291.96,-135.56"/>
<polygon fill="#63b8ff" stroke="#63b8ff" points="293.68,-132.51 283.2,-130.94 290.41,-138.7 293.68,-132.51"/>
</a>
</g>
</g>
<!-- Node15 -->
<g id="Node000015" class="node">
<title>Node15</title>
<g id="a_Node000015"><a xlink:href="vector_8h.html" target="_top" xlink:title=" ">
<polygon fill="white" stroke="#666666" points="517.88,-185 386.38,-185 386.38,-165.75 517.88,-165.75 517.88,-185"/>
<text text-anchor="middle" x="452.12" y="-171.5" font-family="Helvetica,sans-Serif" font-size="10.00">JSystem/JGadget/vector.h</text>
</a>
</g>
</g>
<!-- Node12&#45;&gt;Node15 -->
<g id="edge17_Node000012_Node000015" class="edge">
<title>Node12&#45;&gt;Node15</title>
<g id="a_edge17_Node000012_Node000015"><a xlink:title=" ">
<path fill="none" stroke="#63b8ff" d="M416.74,-220.7C423.14,-212.68 431.14,-202.67 437.91,-194.19"/>
<polygon fill="#63b8ff" stroke="#63b8ff" points="440.43,-196.63 443.94,-186.63 434.96,-192.27 440.43,-196.63"/>
</a>
</g>
</g>
<!-- Node13&#45;&gt;Node14 -->
<g id="edge15_Node000013_Node000014" class="edge">
<title>Node13&#45;&gt;Node14</title>
<g id="a_edge15_Node000013_Node000014"><a xlink:title=" ">
<path fill="none" stroke="#63b8ff" d="M263.12,-165.58C263.12,-159.07 263.12,-149.92 263.12,-141.62"/>
<polygon fill="#63b8ff" stroke="#63b8ff" points="266.63,-141.62 263.13,-131.62 259.63,-141.62 266.63,-141.62"/>
</a>
</g>
</g>
<!-- Node14&#45;&gt;Node6 -->
<g id="edge16_Node000014_Node000006" class="edge">
<title>Node14&#45;&gt;Node6</title>
<g id="a_edge16_Node000014_Node000006"><a xlink:title=" ">
<path fill="none" stroke="#63b8ff" d="M255.2,-110.33C248.57,-102.98 238.91,-92.26 230.74,-83.19"/>
<polygon fill="#63b8ff" stroke="#63b8ff" points="233.53,-81.07 224.24,-75.98 228.33,-85.75 233.53,-81.07"/>
</a>
</g>
</g>
</g>
</svg>
