<?xml version="1.0" encoding="UTF-8" standalone="no"?>
<!DOCTYPE svg PUBLIC "-//W3C//DTD SVG 1.1//EN"
 "http://www.w3.org/Graphics/SVG/1.1/DTD/svg11.dtd">
<!-- Generated by graphviz version 7.0.4 (20221203.1631)
 -->
<!-- Title: include/JSystem/JSupport/JSUFileStream.h Pages: 1 -->
<svg width="523pt" height="280pt"
 viewBox="0.00 0.00 523.00 280.00" xmlns="http://www.w3.org/2000/svg" xmlns:xlink="http://www.w3.org/1999/xlink">
<g id="graph0" class="graph" transform="scale(1 1) rotate(0) translate(4 276)">
<title>include/JSystem/JSupport/JSUFileStream.h</title>
<!-- Node1 -->
<g id="node1" class="node">
<title>Node1</title>
<g id="a_node1"><a xlink:title=" ">
<polygon fill="#999999" stroke="#666666" points="313,-272 182,-272 182,-242 313,-242 313,-272"/>
<text text-anchor="start" x="190" y="-260" font-family="Helvetica,sans-Serif" font-size="10.00">include/JSystem/JSupport</text>
<text text-anchor="middle" x="247.5" y="-249" font-family="Helvetica,sans-Serif" font-size="10.00">/JSUFileStream.h</text>
</a>
</g>
</g>
<!-- Node2 -->
<g id="node2" class="node">
<title>Node2</title>
<g id="a_node2"><a xlink:href="JKRFile_8h.html" target="_top" xlink:title=" ">
<polygon fill="white" stroke="#666666" points="219.5,-200.5 83.5,-200.5 83.5,-181.5 219.5,-181.5 219.5,-200.5"/>
<text text-anchor="middle" x="151.5" y="-188.5" font-family="Helvetica,sans-Serif" font-size="10.00">JSystem/JKernel/JKRFile.h</text>
</a>
</g>
</g>
<!-- Node1&#45;&gt;Node2 -->
<g id="edge1" class="edge">
<title>Node1&#45;&gt;Node2</title>
<path fill="none" stroke="#63b8ff" d="M226.19,-241.8C210.79,-231.53 190,-217.67 174.27,-207.18"/>
<polygon fill="#63b8ff" stroke="#63b8ff" points="176.29,-204.32 166.03,-201.68 172.4,-210.14 176.29,-204.32"/>
</g>
<!-- Node5 -->
<g id="node5" class="node">
<title>Node5</title>
<g id="a_node5"><a xlink:href="types_8h.html" target="_top" xlink:title=" ">
<polygon fill="white" stroke="#666666" points="288,-19 207,-19 207,0 288,0 288,-19"/>
<text text-anchor="middle" x="247.5" y="-7" font-family="Helvetica,sans-Serif" font-size="10.00">dolphin/types.h</text>
</a>
</g>
</g>
<!-- Node1&#45;&gt;Node5 -->
<g id="edge13" class="edge">
<title>Node1&#45;&gt;Node5</title>
<path fill="none" stroke="#63b8ff" d="M247.5,-241.74C247.5,-200.12 247.5,-78.71 247.5,-30.53"/>
<polygon fill="#63b8ff" stroke="#63b8ff" points="251,-30.76 247.5,-20.76 244,-30.76 251,-30.76"/>
</g>
<!-- Node6 -->
<g id="node6" class="node">
<title>Node6</title>
<g id="a_node6"><a xlink:href="JSURandomInputStream_8h.html" target="_top" xlink:title=" ">
<polygon fill="white" stroke="#666666" points="431,-206 276,-206 276,-176 431,-176 431,-206"/>
<text text-anchor="start" x="284" y="-194" font-family="Helvetica,sans-Serif" font-size="10.00">JSystem/JSupport/JSURandom</text>
<text text-anchor="middle" x="353.5" y="-183" font-family="Helvetica,sans-Serif" font-size="10.00">InputStream.h</text>
</a>
</g>
</g>
<!-- Node1&#45;&gt;Node6 -->
<g id="edge7" class="edge">
<title>Node1&#45;&gt;Node6</title>
<path fill="none" stroke="#63b8ff" d="M271.29,-241.64C285.75,-232.91 304.42,-221.63 320.32,-212.04"/>
<polygon fill="#63b8ff" stroke="#63b8ff" points="321.74,-215.26 328.5,-207.1 318.13,-209.27 321.74,-215.26"/>
</g>
<!-- Node3 -->
<g id="node3" class="node">
<title>Node3</title>
<g id="a_node3"><a xlink:href="JKRDisposer_8h.html" target="_top" xlink:title=" ">
<polygon fill="white" stroke="#666666" points="181.5,-134.5 23.5,-134.5 23.5,-115.5 181.5,-115.5 181.5,-134.5"/>
<text text-anchor="middle" x="102.5" y="-122.5" font-family="Helvetica,sans-Serif" font-size="10.00">JSystem/JKernel/JKRDisposer.h</text>
</a>
</g>
</g>
<!-- Node2&#45;&gt;Node3 -->
<g id="edge2" class="edge">
<title>Node2&#45;&gt;Node3</title>
<path fill="none" stroke="#63b8ff" d="M144.69,-181.1C137.3,-171.45 125.32,-155.81 116.01,-143.65"/>
<polygon fill="#63b8ff" stroke="#63b8ff" points="119.03,-141.84 110.18,-136.03 113.48,-146.09 119.03,-141.84"/>
</g>
<!-- Node2&#45;&gt;Node5 -->
<g id="edge6" class="edge">
<title>Node2&#45;&gt;Node5</title>
<path fill="none" stroke="#63b8ff" d="M159.4,-181.27C167.84,-171.66 181.24,-155.5 190.5,-140 212.58,-103.05 231.14,-56 240.65,-30"/>
<polygon fill="#63b8ff" stroke="#63b8ff" points="243.88,-31.37 243.96,-20.77 237.29,-29.01 243.88,-31.37"/>
</g>
<!-- Node4 -->
<g id="node4" class="node">
<title>Node4</title>
<g id="a_node4"><a xlink:href="JSUList_8h.html" target="_top" xlink:title=" ">
<polygon fill="white" stroke="#666666" points="143,-74 0,-74 0,-55 143,-55 143,-74"/>
<text text-anchor="middle" x="71.5" y="-62" font-family="Helvetica,sans-Serif" font-size="10.00">JSystem/JSupport/JSUList.h</text>
</a>
</g>
</g>
<!-- Node3&#45;&gt;Node4 -->
<g id="edge3" class="edge">
<title>Node3&#45;&gt;Node4</title>
<path fill="none" stroke="#63b8ff" d="M97.93,-115.37C93.58,-107.16 86.89,-94.54 81.33,-84.05"/>
<polygon fill="#63b8ff" stroke="#63b8ff" points="84.58,-82.7 76.8,-75.5 78.39,-85.98 84.58,-82.7"/>
</g>
<!-- Node3&#45;&gt;Node5 -->
<g id="edge5" class="edge">
<title>Node3&#45;&gt;Node5</title>
<path fill="none" stroke="#63b8ff" d="M113.88,-115.09C138.34,-95.95 196.21,-50.65 227.15,-26.43"/>
<polygon fill="#63b8ff" stroke="#63b8ff" points="229.27,-29.22 234.98,-20.3 224.95,-23.71 229.27,-29.22"/>
</g>
<!-- Node4&#45;&gt;Node5 -->
<g id="edge4" class="edge">
<title>Node4&#45;&gt;Node5</title>
<path fill="none" stroke="#63b8ff" d="M101.36,-54.51C130.39,-45.76 174.72,-32.42 206.94,-22.71"/>
<polygon fill="#63b8ff" stroke="#63b8ff" points="207.78,-26.12 216.34,-19.88 205.76,-19.41 207.78,-26.12"/>
</g>
<!-- Node6&#45;&gt;Node5 -->
<g id="edge12" class="edge">
<title>Node6&#45;&gt;Node5</title>
<path fill="none" stroke="#63b8ff" d="M336.48,-175.52C326.24,-166.16 313.49,-153.29 304.5,-140 280.25,-104.17 262.39,-56.35 253.6,-30"/>
<polygon fill="#63b8ff" stroke="#63b8ff" points="256.99,-29.1 250.59,-20.66 250.33,-31.25 256.99,-29.1"/>
</g>
<!-- Node7 -->
<g id="node7" class="node">
<title>Node7</title>
<g id="a_node7"><a xlink:href="JSUInputStream_8h.html" target="_top" xlink:title=" ">
<polygon fill="white" stroke="#666666" points="455,-140 314,-140 314,-110 455,-110 455,-140"/>
<text text-anchor="start" x="322" y="-128" font-family="Helvetica,sans-Serif" font-size="10.00">JSystem/JSupport/JSUInput</text>
<text text-anchor="middle" x="384.5" y="-117" font-family="Helvetica,sans-Serif" font-size="10.00">Stream.h</text>
</a>
</g>
</g>
<!-- Node6&#45;&gt;Node7 -->
<g id="edge8" class="edge">
<title>Node6&#45;&gt;Node7</title>
<path fill="none" stroke="#63b8ff" d="M360.38,-175.8C363.99,-168.34 368.52,-158.99 372.67,-150.41"/>
<polygon fill="#63b8ff" stroke="#63b8ff" points="375.77,-152.05 376.98,-141.53 369.47,-149 375.77,-152.05"/>
</g>
<!-- Node7&#45;&gt;Node5 -->
<g id="edge11" class="edge">
<title>Node7&#45;&gt;Node5</title>
<path fill="none" stroke="#63b8ff" d="M367.15,-109.63C341.5,-88.37 293.62,-48.71 266.86,-26.54"/>
<polygon fill="#63b8ff" stroke="#63b8ff" points="269.14,-23.88 259.2,-20.2 264.67,-29.27 269.14,-23.88"/>
</g>
<!-- Node8 -->
<g id="node8" class="node">
<title>Node8</title>
<g id="a_node8"><a xlink:href="JSUIosBase_8h.html" target="_top" xlink:title=" ">
<polygon fill="white" stroke="#666666" points="515,-74 352,-74 352,-55 515,-55 515,-74"/>
<text text-anchor="middle" x="433.5" y="-62" font-family="Helvetica,sans-Serif" font-size="10.00">JSystem/JSupport/JSUIosBase.h</text>
</a>
</g>
</g>
<!-- Node7&#45;&gt;Node8 -->
<g id="edge9" class="edge">
<title>Node7&#45;&gt;Node8</title>
<path fill="none" stroke="#63b8ff" d="M396.61,-109.54C403.37,-101.48 411.82,-91.38 418.94,-82.89"/>
<polygon fill="#63b8ff" stroke="#63b8ff" points="421.52,-85.25 425.26,-75.34 416.16,-80.75 421.52,-85.25"/>
</g>
<!-- Node8&#45;&gt;Node5 -->
<g id="edge10" class="edge">
<title>Node8&#45;&gt;Node5</title>
<path fill="none" stroke="#63b8ff" d="M401.95,-54.51C371.13,-45.73 324,-32.3 289.91,-22.59"/>
<polygon fill="#63b8ff" stroke="#63b8ff" points="290.93,-19.24 280.35,-19.86 289.01,-25.97 290.93,-19.24"/>
</g>
</g>
</svg>
