<?xml version="1.0" encoding="UTF-8" standalone="no"?>
<!DOCTYPE svg PUBLIC "-//W3C//DTD SVG 1.1//EN"
 "http://www.w3.org/Graphics/SVG/1.1/DTD/svg11.dtd">
<!-- Generated by graphviz version 2.50.0 (20220203.2022)
 -->
<!-- Title: include/JSystem/JUtility/JUTConsole.h Pages: 1 -->
<!--zoomable 453 -->
<svg id="main" version="1.1" xmlns="http://www.w3.org/2000/svg" xmlns:xlink="http://www.w3.org/1999/xlink" xml:space="preserve" onload="init(evt)">
<style type="text/css"><![CDATA[
.edge:hover path { stroke: red; }
.edge:hover polygon { stroke: red; fill: red; }
]]></style>
<script type="text/javascript"><![CDATA[
var edges = document.getElementsByTagName('g');
if (edges && edges.length) {
  for (var i=0;i<edges.length;i++) {
    if (edges[i].id.substr(0,4)=='edge') {
      edges[i].setAttribute('class','edge');
    }
  }
}
]]></script>
        <defs>
                <circle id="rim" cx="0" cy="0" r="7"/>
                <circle id="rim2" cx="0" cy="0" r="3.5"/>
                <g id="zoomPlus">
                        <use xlink:href="#rim" fill="#404040">
                                <set attributeName="fill" to="#808080" begin="zoomplus.mouseover" end="zoomplus.mouseout"/>
                        </use>
                        <path d="M-4,0h8M0,-4v8" fill="none" stroke="white" stroke-width="1.5" pointer-events="none"/>
                </g>
                <g id="zoomMin">
                        <use xlink:href="#rim" fill="#404040">
                                <set attributeName="fill" to="#808080" begin="zoomminus.mouseover" end="zoomminus.mouseout"/>
                        </use>
                        <path d="M-4,0h8" fill="none" stroke="white" stroke-width="1.5" pointer-events="none"/>
                </g>
                <g id="dirArrow">
                        <path fill="none" stroke="white" stroke-width="1.5" d="M0,-3.0v7 M-2.5,-0.5L0,-3.0L2.5,-0.5"/>
                </g>
               <g id="resetDef">
                       <use xlink:href="#rim2" fill="#404040">
                               <set attributeName="fill" to="#808080" begin="reset.mouseover" end="reset.mouseout"/>
                       </use>
               </g>
        </defs>

<script type="text/javascript">
var viewWidth = 949;
var viewHeight = 453;
var sectionId = 'dynsection-0';
</script>
<script xlink:href="svgpan.js"/>
<svg id="graph" class="graph">
<g id="viewport">
<title>include/JSystem/JUtility/JUTConsole.h</title>
<polygon fill="white" stroke="transparent" points="-4,4 -4,-449 945,-449 945,4 -4,4"/>
<!-- Node1 -->
<g id="node1" class="node">
<title>Node1</title>
<g id="a_node1"><a xlink:title=" ">
<polygon fill="#bfbfbf" stroke="black" points="172,-414.5 172,-444.5 294,-444.5 294,-414.5 172,-414.5"/>
<text text-anchor="start" x="180" y="-432.5" font-family="Helvetica,sans-Serif" font-size="10.00">include/JSystem/JUtility</text>
<text text-anchor="middle" x="233" y="-421.5" font-family="Helvetica,sans-Serif" font-size="10.00">/JUTConsole.h</text>
</a>
</g>
</g>
<!-- Node2 -->
<g id="node2" class="node">
<title>Node2</title>
<g id="a_node2"><a xlink:href="linklist_8h.html" target="_top" xlink:title=" ">
<polygon fill="white" stroke="black" points="28.5,-224.5 28.5,-243.5 161.5,-243.5 161.5,-224.5 28.5,-224.5"/>
<text text-anchor="middle" x="95" y="-231.5" font-family="Helvetica,sans-Serif" font-size="10.00">JSystem/JGadget/linklist.h</text>
</a>
</g>
</g>
<!-- Node1&#45;&gt;Node2 -->
<g id="edge1" class="edge">
<title>Node1&#45;&gt;Node2</title>
<path fill="none" stroke="midnightblue" d="M214.1,-414.41C202.24,-404.96 187.15,-391.77 176,-378 143.05,-337.3 115.71,-281.45 102.87,-253.1"/>
<polygon fill="midnightblue" stroke="midnightblue" points="105.94,-251.38 98.68,-243.67 99.54,-254.23 105.94,-251.38"/>
</g>
<!-- Node3 -->
<g id="node3" class="node">
<title>Node3</title>
<g id="a_node3"><a xlink:href="types_8h.html" target="_top" xlink:title=" ">
<polygon fill="white" stroke="black" points="446.5,-0.5 446.5,-19.5 527.5,-19.5 527.5,-0.5 446.5,-0.5"/>
<text text-anchor="middle" x="487" y="-7.5" font-family="Helvetica,sans-Serif" font-size="10.00">dolphin/types.h</text>
</a>
</g>
</g>
<!-- Node1&#45;&gt;Node3 -->
<g id="edge33" class="edge">
<title>Node1&#45;&gt;Node3</title>
<path fill="none" stroke="midnightblue" d="M171.78,-420.58C102.75,-407.81 0,-375.54 0,-296.5 0,-296.5 0,-296.5 0,-121 0,-32.27 311.51,-15.11 436.25,-11.79"/>
<polygon fill="midnightblue" stroke="midnightblue" points="436.41,-15.29 446.32,-11.54 436.23,-8.29 436.41,-15.29"/>
</g>
<!-- Node4 -->
<g id="node4" class="node">
<title>Node4</title>
<g id="a_node4"><a xlink:href="JKRDisposer_8h.html" target="_top" xlink:title=" ">
<polygon fill="white" stroke="black" points="103,-112.5 103,-131.5 261,-131.5 261,-112.5 103,-112.5"/>
<text text-anchor="middle" x="182" y="-119.5" font-family="Helvetica,sans-Serif" font-size="10.00">JSystem/JKernel/JKRDisposer.h</text>
</a>
</g>
</g>
<!-- Node1&#45;&gt;Node4 -->
<g id="edge3" class="edge">
<title>Node1&#45;&gt;Node4</title>
<path fill="none" stroke="midnightblue" d="M225.11,-414.34C212.7,-390.7 190,-341.33 190,-296.5 190,-296.5 190,-296.5 190,-233 190,-200.86 186.56,-163.58 184.19,-141.72"/>
<polygon fill="midnightblue" stroke="midnightblue" points="187.64,-141.09 183.05,-131.54 180.69,-141.87 187.64,-141.09"/>
</g>
<!-- Node6 -->
<g id="node6" class="node">
<title>Node6</title>
<g id="a_node6"><a xlink:href="JUTFont_8h.html" target="_top" xlink:title=" ">
<polygon fill="white" stroke="black" points="305.5,-353 305.5,-372 442.5,-372 442.5,-353 305.5,-353"/>
<text text-anchor="middle" x="374" y="-360" font-family="Helvetica,sans-Serif" font-size="10.00">JSystem/JUtility/JUTFont.h</text>
</a>
</g>
</g>
<!-- Node1&#45;&gt;Node6 -->
<g id="edge7" class="edge">
<title>Node1&#45;&gt;Node6</title>
<path fill="none" stroke="midnightblue" d="M263.59,-414.4C288.23,-403.04 322.55,-387.22 346.36,-376.24"/>
<polygon fill="midnightblue" stroke="midnightblue" points="347.93,-379.37 355.55,-372.01 345,-373.02 347.93,-379.37"/>
</g>
<!-- Node7 -->
<g id="node7" class="node">
<title>Node7</title>
<g id="a_node7"><a xlink:href="TColor_8h.html" target="_top" xlink:title=" ">
<polygon fill="white" stroke="black" points="218.5,-286 218.5,-305 345.5,-305 345.5,-286 218.5,-286"/>
<text text-anchor="middle" x="282" y="-293" font-family="Helvetica,sans-Serif" font-size="10.00">JSystem/JUtility/TColor.h</text>
</a>
</g>
</g>
<!-- Node1&#45;&gt;Node7 -->
<g id="edge30" class="edge">
<title>Node1&#45;&gt;Node7</title>
<path fill="none" stroke="midnightblue" d="M238.24,-414.37C247.18,-390.29 265.36,-341.31 275.24,-314.7"/>
<polygon fill="midnightblue" stroke="midnightblue" points="278.61,-315.69 278.81,-305.1 272.05,-313.25 278.61,-315.69"/>
</g>
<!-- Node16 -->
<g id="node16" class="node">
<title>Node16</title>
<g id="a_node16"><a xlink:href="____va__arg_8h.html" target="_top" xlink:title=" ">
<polygon fill="white" stroke="black" points="669,-347.5 669,-377.5 779,-377.5 779,-347.5 669,-347.5"/>
<text text-anchor="start" x="677" y="-365.5" font-family="Helvetica,sans-Serif" font-size="10.00">Runtime.PPCEABI.H/</text>
<text text-anchor="middle" x="724" y="-354.5" font-family="Helvetica,sans-Serif" font-size="10.00">__va_arg.h</text>
</a>
</g>
</g>
<!-- Node1&#45;&gt;Node16 -->
<g id="edge31" class="edge">
<title>Node1&#45;&gt;Node16</title>
<path fill="none" stroke="midnightblue" d="M294.19,-420.4C387.21,-408.09 563.4,-384.76 658.76,-372.14"/>
<polygon fill="midnightblue" stroke="midnightblue" points="659.4,-375.58 668.86,-370.8 658.48,-368.64 659.4,-375.58"/>
</g>
<!-- Node2&#45;&gt;Node3 -->
<g id="edge2" class="edge">
<title>Node2&#45;&gt;Node3</title>
<path fill="none" stroke="midnightblue" d="M91.73,-224.48C81.41,-196.01 52.89,-103.34 99,-56 122.13,-32.25 336.38,-18.52 436.23,-13.37"/>
<polygon fill="midnightblue" stroke="midnightblue" points="436.57,-16.85 446.38,-12.85 436.22,-9.86 436.57,-16.85"/>
</g>
<!-- Node4&#45;&gt;Node3 -->
<g id="edge6" class="edge">
<title>Node4&#45;&gt;Node3</title>
<path fill="none" stroke="midnightblue" d="M158.49,-112.32C130,-100.53 88.13,-78.37 108,-56 129.46,-31.84 338.33,-18.37 436.5,-13.33"/>
<polygon fill="midnightblue" stroke="midnightblue" points="436.68,-16.82 446.49,-12.82 436.33,-9.83 436.68,-16.82"/>
</g>
<!-- Node5 -->
<g id="node5" class="node">
<title>Node5</title>
<g id="a_node5"><a xlink:href="JSUList_8h.html" target="_top" xlink:title=" ">
<polygon fill="white" stroke="black" points="117.5,-56.5 117.5,-75.5 260.5,-75.5 260.5,-56.5 117.5,-56.5"/>
<text text-anchor="middle" x="189" y="-63.5" font-family="Helvetica,sans-Serif" font-size="10.00">JSystem/JSupport/JSUList.h</text>
</a>
</g>
</g>
<!-- Node4&#45;&gt;Node5 -->
<g id="edge4" class="edge">
<title>Node4&#45;&gt;Node5</title>
<path fill="none" stroke="midnightblue" d="M183.16,-112.08C184.08,-104.93 185.42,-94.64 186.58,-85.69"/>
<polygon fill="midnightblue" stroke="midnightblue" points="190.05,-86.12 187.87,-75.75 183.11,-85.22 190.05,-86.12"/>
</g>
<!-- Node5&#45;&gt;Node3 -->
<g id="edge5" class="edge">
<title>Node5&#45;&gt;Node3</title>
<path fill="none" stroke="midnightblue" d="M236.22,-56.44C290.76,-46.56 380.15,-30.36 436.17,-20.21"/>
<polygon fill="midnightblue" stroke="midnightblue" points="437.01,-23.62 446.23,-18.39 435.76,-16.73 437.01,-23.62"/>
</g>
<!-- Node6&#45;&gt;Node3 -->
<g id="edge29" class="edge">
<title>Node6&#45;&gt;Node3</title>
<path fill="none" stroke="midnightblue" d="M371.75,-352.81C361.86,-313.88 323.69,-155.42 346,-112 368.61,-68 420.26,-38.88 454.38,-23.66"/>
<polygon fill="midnightblue" stroke="midnightblue" points="456.12,-26.72 463.92,-19.56 453.35,-20.29 456.12,-26.72"/>
</g>
<!-- Node6&#45;&gt;Node7 -->
<g id="edge8" class="edge">
<title>Node6&#45;&gt;Node7</title>
<path fill="none" stroke="midnightblue" d="M361.59,-352.73C346.42,-342.01 320.52,-323.72 302.4,-310.91"/>
<polygon fill="midnightblue" stroke="midnightblue" points="304.4,-308.04 294.21,-305.13 300.36,-313.76 304.4,-308.04"/>
</g>
<!-- Node8 -->
<g id="node8" class="node">
<title>Node8</title>
<g id="a_node8"><a xlink:href="GX_8h.html" target="_top" xlink:title=" ">
<polygon fill="white" stroke="black" points="482.5,-224.5 482.5,-243.5 567.5,-243.5 567.5,-224.5 482.5,-224.5"/>
<text text-anchor="middle" x="525" y="-231.5" font-family="Helvetica,sans-Serif" font-size="10.00">dolphin/gx/GX.h</text>
</a>
</g>
</g>
<!-- Node6&#45;&gt;Node8 -->
<g id="edge28" class="edge">
<title>Node6&#45;&gt;Node8</title>
<path fill="none" stroke="midnightblue" d="M384.38,-352.81C409.7,-331.59 474.91,-276.96 506.84,-250.22"/>
<polygon fill="midnightblue" stroke="midnightblue" points="509.13,-252.86 514.55,-243.76 504.64,-247.49 509.13,-252.86"/>
</g>
<!-- Node15 -->
<g id="node15" class="node">
<title>Node15</title>
<g id="a_node15"><a xlink:href="MSL__Common_2Src_2string_8h.html" target="_top" xlink:title=" ">
<polygon fill="white" stroke="black" points="685,-280.5 685,-310.5 821,-310.5 821,-280.5 685,-280.5"/>
<text text-anchor="start" x="693" y="-298.5" font-family="Helvetica,sans-Serif" font-size="10.00">MSL_C/MSL_Common/Src</text>
<text text-anchor="middle" x="753" y="-287.5" font-family="Helvetica,sans-Serif" font-size="10.00">/string.h</text>
</a>
</g>
</g>
<!-- Node6&#45;&gt;Node15 -->
<g id="edge26" class="edge">
<title>Node6&#45;&gt;Node15</title>
<path fill="none" stroke="midnightblue" d="M423.94,-352.94C487.9,-341.97 599.46,-322.83 674.75,-309.92"/>
<polygon fill="midnightblue" stroke="midnightblue" points="675.4,-313.36 684.67,-308.22 674.22,-306.46 675.4,-313.36"/>
</g>
<!-- Node7&#45;&gt;Node3 -->
<g id="edge25" class="edge">
<title>Node7&#45;&gt;Node3</title>
<path fill="none" stroke="midnightblue" d="M282.89,-285.82C284.77,-266.59 289,-218.98 289,-179 289,-179 289,-179 289,-121 289,-90.2 290.16,-76.65 313,-56 346.53,-25.68 397.84,-15.27 436.06,-11.94"/>
<polygon fill="midnightblue" stroke="midnightblue" points="436.75,-15.4 446.47,-11.18 436.24,-8.42 436.75,-15.4"/>
</g>
<!-- Node7&#45;&gt;Node8 -->
<g id="edge9" class="edge">
<title>Node7&#45;&gt;Node8</title>
<path fill="none" stroke="midnightblue" d="M316.82,-285.98C359.85,-275.44 433.17,-257.49 480.31,-245.94"/>
<polygon fill="midnightblue" stroke="midnightblue" points="481.37,-249.29 490.25,-243.51 479.7,-242.49 481.37,-249.29"/>
</g>
<!-- Node8&#45;&gt;Node3 -->
<g id="edge22" class="edge">
<title>Node8&#45;&gt;Node3</title>
<path fill="none" stroke="midnightblue" d="M567.74,-227.34C611.79,-220.52 676.08,-207.51 691,-188 696.4,-180.94 691.63,-176.87 691,-168 687.43,-117.71 707.55,-92.71 673,-56 654.72,-36.57 586.19,-23.81 537.64,-17"/>
<polygon fill="midnightblue" stroke="midnightblue" points="537.99,-13.51 527.61,-15.63 537.05,-20.45 537.99,-13.51"/>
</g>
<!-- Node9 -->
<g id="node9" class="node">
<title>Node9</title>
<g id="a_node9"><a xlink:href="GXDisplayList_8h.html" target="_top" xlink:title=" ">
<polygon fill="white" stroke="black" points="741.5,-56.5 741.5,-75.5 874.5,-75.5 874.5,-56.5 741.5,-56.5"/>
<text text-anchor="middle" x="808" y="-63.5" font-family="Helvetica,sans-Serif" font-size="10.00">dolphin/gx/GXDisplayList.h</text>
</a>
</g>
</g>
<!-- Node8&#45;&gt;Node9 -->
<g id="edge10" class="edge">
<title>Node8&#45;&gt;Node9</title>
<path fill="none" stroke="midnightblue" d="M567.77,-232.77C611.81,-230.55 680.67,-221.41 729,-188 766.53,-162.06 790.61,-111.91 801.4,-85.04"/>
<polygon fill="midnightblue" stroke="midnightblue" points="804.68,-86.27 805,-75.68 798.15,-83.76 804.68,-86.27"/>
</g>
<!-- Node10 -->
<g id="node10" class="node">
<title>Node10</title>
<g id="a_node10"><a xlink:href="mtx_8h.html" target="_top" xlink:title=" ">
<polygon fill="white" stroke="black" points="479,-168.5 479,-187.5 571,-187.5 571,-168.5 479,-168.5"/>
<text text-anchor="middle" x="525" y="-175.5" font-family="Helvetica,sans-Serif" font-size="10.00">dolphin/mtx/mtx.h</text>
</a>
</g>
</g>
<!-- Node8&#45;&gt;Node10 -->
<g id="edge12" class="edge">
<title>Node8&#45;&gt;Node10</title>
<path fill="none" stroke="midnightblue" d="M525,-224.08C525,-217.01 525,-206.86 525,-197.99"/>
<polygon fill="midnightblue" stroke="midnightblue" points="528.5,-197.75 525,-187.75 521.5,-197.75 528.5,-197.75"/>
</g>
<!-- Node11 -->
<g id="node11" class="node">
<title>Node11</title>
<g id="a_node11"><a xlink:href="mtx44_8h.html" target="_top" xlink:title=" ">
<polygon fill="white" stroke="black" points="355.5,-112.5 355.5,-131.5 458.5,-131.5 458.5,-112.5 355.5,-112.5"/>
<text text-anchor="middle" x="407" y="-119.5" font-family="Helvetica,sans-Serif" font-size="10.00">dolphin/mtx/mtx44.h</text>
</a>
</g>
</g>
<!-- Node8&#45;&gt;Node11 -->
<g id="edge21" class="edge">
<title>Node8&#45;&gt;Node11</title>
<path fill="none" stroke="midnightblue" d="M513.73,-224.4C502.38,-215.6 484.53,-201.36 470,-188 452.75,-172.15 434.23,-152.72 421.77,-139.25"/>
<polygon fill="midnightblue" stroke="midnightblue" points="424.2,-136.72 414.85,-131.72 419.04,-141.46 424.2,-136.72"/>
</g>
<!-- Node14 -->
<g id="node14" class="node">
<title>Node14</title>
<g id="a_node14"><a xlink:href="global_8h.html" target="_top" xlink:title=" ">
<polygon fill="white" stroke="black" points="632,-168.5 632,-187.5 682,-187.5 682,-168.5 632,-168.5"/>
<text text-anchor="middle" x="657" y="-175.5" font-family="Helvetica,sans-Serif" font-size="10.00">global.h</text>
</a>
</g>
</g>
<!-- Node8&#45;&gt;Node14 -->
<g id="edge23" class="edge">
<title>Node8&#45;&gt;Node14</title>
<path fill="none" stroke="midnightblue" d="M545.92,-224.44C567.74,-215.52 602.15,-201.44 626.89,-191.32"/>
<polygon fill="midnightblue" stroke="midnightblue" points="628.25,-194.54 636.18,-187.52 625.6,-188.06 628.25,-194.54"/>
</g>
<!-- Node9&#45;&gt;Node3 -->
<g id="edge11" class="edge">
<title>Node9&#45;&gt;Node3</title>
<path fill="none" stroke="midnightblue" d="M757.14,-56.44C697.14,-46.35 598,-29.67 537.96,-19.57"/>
<polygon fill="midnightblue" stroke="midnightblue" points="538.39,-16.1 527.95,-17.89 537.23,-23 538.39,-16.1"/>
</g>
<!-- Node10&#45;&gt;Node3 -->
<g id="edge20" class="edge">
<title>Node10&#45;&gt;Node3</title>
<path fill="none" stroke="midnightblue" d="M520.56,-168.27C516.21,-159.36 509.72,-145.05 506,-132 495.93,-96.68 490.8,-53.93 488.53,-29.86"/>
<polygon fill="midnightblue" stroke="midnightblue" points="491.99,-29.32 487.63,-19.66 485.02,-29.93 491.99,-29.32"/>
</g>
<!-- Node10&#45;&gt;Node11 -->
<g id="edge13" class="edge">
<title>Node10&#45;&gt;Node11</title>
<path fill="none" stroke="midnightblue" d="M506.3,-168.44C487.06,-159.64 456.85,-145.81 434.8,-135.72"/>
<polygon fill="midnightblue" stroke="midnightblue" points="436.16,-132.5 425.61,-131.52 433.25,-138.86 436.16,-132.5"/>
</g>
<!-- Node12 -->
<g id="node12" class="node">
<title>Node12</title>
<g id="a_node12"><a xlink:href="quat_8h.html" target="_top" xlink:title=" ">
<polygon fill="white" stroke="black" points="515.5,-112.5 515.5,-131.5 610.5,-131.5 610.5,-112.5 515.5,-112.5"/>
<text text-anchor="middle" x="563" y="-119.5" font-family="Helvetica,sans-Serif" font-size="10.00">dolphin/mtx/quat.h</text>
</a>
</g>
</g>
<!-- Node10&#45;&gt;Node12 -->
<g id="edge15" class="edge">
<title>Node10&#45;&gt;Node12</title>
<path fill="none" stroke="midnightblue" d="M531.27,-168.08C536.64,-160.46 544.52,-149.26 551.08,-139.94"/>
<polygon fill="midnightblue" stroke="midnightblue" points="553.95,-141.94 556.84,-131.75 548.22,-137.91 553.95,-141.94"/>
</g>
<!-- Node13 -->
<g id="node13" class="node">
<title>Node13</title>
<g id="a_node13"><a xlink:href="vec_8h.html" target="_top" xlink:title=" ">
<polygon fill="white" stroke="black" points="553,-56.5 553,-75.5 645,-75.5 645,-56.5 553,-56.5"/>
<text text-anchor="middle" x="599" y="-63.5" font-family="Helvetica,sans-Serif" font-size="10.00">dolphin/mtx/vec.h</text>
</a>
</g>
</g>
<!-- Node10&#45;&gt;Node13 -->
<g id="edge19" class="edge">
<title>Node10&#45;&gt;Node13</title>
<path fill="none" stroke="midnightblue" d="M565.15,-168.43C584.97,-161.95 607.14,-150.83 619,-132 628.31,-117.23 620.19,-97.83 611.67,-84.09"/>
<polygon fill="midnightblue" stroke="midnightblue" points="614.43,-81.91 605.92,-75.6 608.63,-85.84 614.43,-81.91"/>
</g>
<!-- Node11&#45;&gt;Node3 -->
<g id="edge14" class="edge">
<title>Node11&#45;&gt;Node3</title>
<path fill="none" stroke="midnightblue" d="M413.28,-112.37C426.48,-94.22 457.33,-51.8 474.64,-27.99"/>
<polygon fill="midnightblue" stroke="midnightblue" points="477.7,-29.74 480.75,-19.59 472.04,-25.62 477.7,-29.74"/>
</g>
<!-- Node12&#45;&gt;Node3 -->
<g id="edge18" class="edge">
<title>Node12&#45;&gt;Node3</title>
<path fill="none" stroke="midnightblue" d="M557.04,-112.37C544.49,-94.22 515.19,-51.8 498.74,-27.99"/>
<polygon fill="midnightblue" stroke="midnightblue" points="501.5,-25.83 492.94,-19.59 495.74,-29.81 501.5,-25.83"/>
</g>
<!-- Node12&#45;&gt;Node13 -->
<g id="edge16" class="edge">
<title>Node12&#45;&gt;Node13</title>
<path fill="none" stroke="midnightblue" d="M568.94,-112.08C573.98,-104.53 581.34,-93.49 587.51,-84.23"/>
<polygon fill="midnightblue" stroke="midnightblue" points="590.53,-86.01 593.17,-75.75 584.71,-82.13 590.53,-86.01"/>
</g>
<!-- Node13&#45;&gt;Node3 -->
<g id="edge17" class="edge">
<title>Node13&#45;&gt;Node3</title>
<path fill="none" stroke="midnightblue" d="M581.01,-56.32C562.96,-47.62 534.95,-34.12 514.2,-24.11"/>
<polygon fill="midnightblue" stroke="midnightblue" points="515.48,-20.84 504.95,-19.65 512.44,-27.15 515.48,-20.84"/>
</g>
<!-- Node14&#45;&gt;Node3 -->
<g id="edge24" class="edge">
<title>Node14&#45;&gt;Node3</title>
<path fill="none" stroke="midnightblue" d="M659.96,-168.22C666.67,-146.53 680.49,-89.7 654,-56 639.58,-37.66 581.13,-25 537.42,-17.89"/>
<polygon fill="midnightblue" stroke="midnightblue" points="537.93,-14.43 527.5,-16.33 536.84,-21.34 537.93,-14.43"/>
</g>
<!-- Node15&#45;&gt;Node3 -->
<g id="edge27" class="edge">
<title>Node15&#45;&gt;Node3</title>
<path fill="none" stroke="midnightblue" d="M799.64,-280.45C843.67,-263.96 903,-231.92 903,-179 903,-179 903,-179 903,-121 903,-90.9 907.03,-75.38 884,-56 857.99,-34.11 638.96,-19.35 537.82,-13.64"/>
<polygon fill="midnightblue" stroke="midnightblue" points="537.72,-10.13 527.54,-13.07 537.33,-17.12 537.72,-10.13"/>
</g>
<!-- Node16&#45;&gt;Node3 -->
<g id="edge32" class="edge">
<title>Node16&#45;&gt;Node3</title>
<path fill="none" stroke="midnightblue" d="M779.04,-353.75C843.33,-341.24 941,-309.9 941,-235 941,-235 941,-235 941,-121 941,-87.98 932.51,-74.27 905,-56 845.96,-16.8 636,-11.18 538.03,-10.75"/>
<polygon fill="midnightblue" stroke="midnightblue" points="537.79,-7.25 527.78,-10.72 537.77,-14.25 537.79,-7.25"/>
</g>
</g>
</svg>
        <g id="navigator" transform="translate(0 0)" fill="#404254">
                <rect fill="#f2f5e9" fill-opacity="0.5" stroke="#606060" stroke-width=".5" x="0" y="0" width="60" height="60"/>
                <use id="zoomplus" xlink:href="#zoomPlus" x="17" y="9" onmousedown="handleZoom(evt,'in')"/>
                <use id="zoomminus" xlink:href="#zoomMin" x="42" y="9" onmousedown="handleZoom(evt,'out')"/>
                <use id="reset" xlink:href="#resetDef" x="30" y="36" onmousedown="handleReset()"/>
                <g id="arrowUp" xlink:href="#dirArrow" transform="translate(30 24)" onmousedown="handlePan(0,-1)">
                  <use xlink:href="#rim" fill="#404040">
                        <set attributeName="fill" to="#808080" begin="arrowUp.mouseover" end="arrowUp.mouseout"/>
                  </use>
                  <path fill="none" stroke="white" stroke-width="1.5" d="M0,-3.0v7 M-2.5,-0.5L0,-3.0L2.5,-0.5"/>
                </g>
                <g id="arrowRight" xlink:href="#dirArrow" transform="rotate(90) translate(36 -43)" onmousedown="handlePan(1,0)">
                  <use xlink:href="#rim" fill="#404040">
                        <set attributeName="fill" to="#808080" begin="arrowRight.mouseover" end="arrowRight.mouseout"/>
                  </use>
                  <path fill="none" stroke="white" stroke-width="1.5" d="M0,-3.0v7 M-2.5,-0.5L0,-3.0L2.5,-0.5"/>
                </g>
                <g id="arrowDown" xlink:href="#dirArrow" transform="rotate(180) translate(-30 -48)" onmousedown="handlePan(0,1)">
                  <use xlink:href="#rim" fill="#404040">
                        <set attributeName="fill" to="#808080" begin="arrowDown.mouseover" end="arrowDown.mouseout"/>
                  </use>
                  <path fill="none" stroke="white" stroke-width="1.5" d="M0,-3.0v7 M-2.5,-0.5L0,-3.0L2.5,-0.5"/>
                </g>
                <g id="arrowLeft" xlink:href="#dirArrow" transform="rotate(270) translate(-36 17)" onmousedown="handlePan(-1,0)">
                  <use xlink:href="#rim" fill="#404040">
                        <set attributeName="fill" to="#808080" begin="arrowLeft.mouseover" end="arrowLeft.mouseout"/>
                  </use>
                  <path fill="none" stroke="white" stroke-width="1.5" d="M0,-3.0v7 M-2.5,-0.5L0,-3.0L2.5,-0.5"/>
                </g>
        </g>
        <svg viewBox="0 0 15 15" width="100%" height="30px" preserveAspectRatio="xMaxYMin meet">
         <g id="arrow_out" transform="scale(0.3 0.3)">
          <a xlink:href="JUTConsole_8h__incl_org.svg" target="_base">
           <rect id="button" ry="5" rx="5" y="6" x="6" height="38" width="38"
                fill="#f2f5e9" fill-opacity="0.5" stroke="#606060" stroke-width="1.0"/>
           <path id="arrow"
             d="M 11.500037,31.436501 C 11.940474,20.09759 22.043105,11.32322 32.158766,21.979434 L 37.068811,17.246167 C 37.068811,17.246167 37.088388,32 37.088388,32 L 22.160133,31.978069 C 22.160133,31.978069 26.997745,27.140456 26.997745,27.140456 C 18.528582,18.264221 13.291696,25.230495 11.500037,31.436501 z"
             style="fill:#404040;"/>
          </a>
         </g>
        </svg>
</svg>
