<?xml version="1.0" encoding="UTF-8" standalone="no"?>
<!DOCTYPE svg PUBLIC "-//W3C//DTD SVG 1.1//EN"
 "http://www.w3.org/Graphics/SVG/1.1/DTD/svg11.dtd">
<!-- Generated by graphviz version 7.0.5 (20221223.1930)
 -->
<!-- Title: libs/JSystem/JUtility/JUTDirectPrint.cpp Pages: 1 -->
<!--zoomable 423 -->
<svg id="main" version="1.1" xmlns="http://www.w3.org/2000/svg" xmlns:xlink="http://www.w3.org/1999/xlink" xml:space="preserve" onload="init(evt)">
<style type="text/css"><![CDATA[
.edge:hover path { stroke: red; }
.edge:hover polygon { stroke: red; fill: red; }
]]></style>
<script type="text/javascript"><![CDATA[
var edges = document.getElementsByTagName('g');
if (edges && edges.length) {
  for (var i=0;i<edges.length;i++) {
    if (edges[i].id.substr(0,4)=='edge') {
      edges[i].setAttribute('class','edge');
    }
  }
}
]]></script>
        <defs>
                <circle id="rim" cx="0" cy="0" r="7"/>
                <circle id="rim2" cx="0" cy="0" r="3.5"/>
                <g id="zoomPlus">
                        <use xlink:href="#rim" fill="#404040">
                                <set attributeName="fill" to="#808080" begin="zoomplus.mouseover" end="zoomplus.mouseout"/>
                        </use>
                        <path d="M-4,0h8M0,-4v8" fill="none" stroke="white" stroke-width="1.5" pointer-events="none"/>
                </g>
                <g id="zoomMin">
                        <use xlink:href="#rim" fill="#404040">
                                <set attributeName="fill" to="#808080" begin="zoomminus.mouseover" end="zoomminus.mouseout"/>
                        </use>
                        <path d="M-4,0h8" fill="none" stroke="white" stroke-width="1.5" pointer-events="none"/>
                </g>
                <g id="dirArrow">
                        <path fill="none" stroke="white" stroke-width="1.5" d="M0,-3.0v7 M-2.5,-0.5L0,-3.0L2.5,-0.5"/>
                </g>
               <g id="resetDef">
                       <use xlink:href="#rim2" fill="#404040">
                               <set attributeName="fill" to="#808080" begin="reset.mouseover" end="reset.mouseout"/>
                       </use>
               </g>
        </defs>

<script type="text/javascript">
var viewWidth = 1118;
var viewHeight = 423;
var sectionId = 'dynsection-0';
</script>
<script xlink:href="svgpan.js"/>
<svg id="graph" class="graph">
<g id="viewport">
<title>libs/JSystem/JUtility/JUTDirectPrint.cpp</title>
<!-- Node1 -->
<g id="node1" class="node">
<title>Node1</title>
<g id="a_node1"><a xlink:title=" ">
<polygon fill="#999999" stroke="#666666" points="382.88,-415 276.88,-415 276.88,-385 382.88,-385 382.88,-415"/>
<text text-anchor="start" x="284.88" y="-403" font-family="Helvetica,sans-Serif" font-size="10.00">libs/JSystem/JUtility</text>
<text text-anchor="middle" x="329.88" y="-392" font-family="Helvetica,sans-Serif" font-size="10.00">/JUTDirectPrint.cpp</text>
</a>
</g>
</g>
<!-- Node2 -->
<g id="node2" class="node">
<title>Node2</title>
<g id="a_node2"><a xlink:href="JUTDirectPrint_8h.html" target="_top" xlink:title=" ">
<polygon fill="white" stroke="#666666" points="263.38,-343.5 128.38,-343.5 128.38,-313.5 263.38,-313.5 263.38,-343.5"/>
<text text-anchor="start" x="136.38" y="-331.5" font-family="Helvetica,sans-Serif" font-size="10.00">JSystem/JUtility/JUTDirect</text>
<text text-anchor="middle" x="195.88" y="-320.5" font-family="Helvetica,sans-Serif" font-size="10.00">Print.h</text>
</a>
</g>
</g>
<!-- Node1&#45;&gt;Node2 -->
<g id="edge1" class="edge">
<title>Node1&#45;&gt;Node2</title>
<path fill="none" stroke="#63b8ff" d="M302.11,-384.6C282.35,-374.35 255.55,-360.45 233.82,-349.18"/>
<polygon fill="#63b8ff" stroke="#63b8ff" points="235.44,-346.08 224.95,-344.58 232.22,-352.29 235.44,-346.08"/>
</g>
<!-- Node7 -->
<g id="node7" class="node">
<title>Node7</title>
<g id="a_node7"><a xlink:href="global_8h.html" target="_top" xlink:title=" ">
<polygon fill="white" stroke="#666666" points="91.88,-140 41.88,-140 41.88,-121 91.88,-121 91.88,-140"/>
<text text-anchor="middle" x="66.88" y="-128" font-family="Helvetica,sans-Serif" font-size="10.00">global.h</text>
</a>
</g>
</g>
<!-- Node1&#45;&gt;Node7 -->
<g id="edge29" class="edge">
<title>Node1&#45;&gt;Node7</title>
<path fill="none" stroke="#63b8ff" d="M276.69,-393.62C232.46,-387.5 168.91,-374.78 118.88,-349 72.68,-325.2 59.66,-315.27 30.88,-272 6.64,-235.55 -10.48,-215.26 8.88,-176 15.04,-163.5 26.59,-153.53 37.77,-146.23"/>
<polygon fill="#63b8ff" stroke="#63b8ff" points="39.27,-149.41 46.06,-141.28 35.68,-143.4 39.27,-149.41"/>
</g>
<!-- Node8 -->
<g id="node8" class="node">
<title>Node8</title>
<g id="a_node8"><a xlink:href="____va__arg_8h.html" target="_top" xlink:title=" ">
<polygon fill="white" stroke="#666666" points="333.88,-206 223.88,-206 223.88,-176 333.88,-176 333.88,-206"/>
<text text-anchor="start" x="231.88" y="-194" font-family="Helvetica,sans-Serif" font-size="10.00">Runtime.PPCEABI.H/</text>
<text text-anchor="middle" x="278.88" y="-183" font-family="Helvetica,sans-Serif" font-size="10.00">__va_arg.h</text>
</a>
</g>
</g>
<!-- Node1&#45;&gt;Node8 -->
<g id="edge25" class="edge">
<title>Node1&#45;&gt;Node8</title>
<path fill="none" stroke="#63b8ff" d="M325.68,-384.6C322.81,-374.63 318.98,-361.05 315.88,-349 303.97,-302.8 291.52,-248.55 284.53,-217.43"/>
<polygon fill="#63b8ff" stroke="#63b8ff" points="287.98,-216.81 282.38,-207.81 281.15,-218.34 287.98,-216.81"/>
</g>
<!-- Node9 -->
<g id="node9" class="node">
<title>Node9</title>
<g id="a_node9"><a xlink:href="stdio_8h.html" target="_top" xlink:title=" ">
<polygon fill="white" stroke="#666666" points="543.38,-338 462.38,-338 462.38,-319 543.38,-319 543.38,-338"/>
<text text-anchor="middle" x="502.88" y="-326" font-family="Helvetica,sans-Serif" font-size="10.00">MSL_C/stdio.h</text>
</a>
</g>
</g>
<!-- Node1&#45;&gt;Node9 -->
<g id="edge12" class="edge">
<title>Node1&#45;&gt;Node9</title>
<path fill="none" stroke="#63b8ff" d="M365.72,-384.6C396.35,-372.3 440.06,-354.74 469.85,-342.77"/>
<polygon fill="#63b8ff" stroke="#63b8ff" points="471.15,-346.02 479.12,-339.04 468.54,-339.52 471.15,-346.02"/>
</g>
<!-- Node16 -->
<g id="node16" class="node">
<title>Node16</title>
<g id="a_node16"><a xlink:href="dol2asm_8h.html" target="_top" xlink:title=" ">
<polygon fill="white" stroke="#666666" points="622.38,-338 561.38,-338 561.38,-319 622.38,-319 622.38,-338"/>
<text text-anchor="middle" x="591.88" y="-326" font-family="Helvetica,sans-Serif" font-size="10.00">dol2asm.h</text>
</a>
</g>
</g>
<!-- Node1&#45;&gt;Node16 -->
<g id="edge26" class="edge">
<title>Node1&#45;&gt;Node16</title>
<path fill="none" stroke="#63b8ff" d="M383.16,-390.81C428.99,-382.88 496.44,-369.1 552.88,-349 557.25,-347.44 561.76,-345.52 566.09,-343.48"/>
<polygon fill="#63b8ff" stroke="#63b8ff" points="567.59,-346.65 574.97,-339.05 564.46,-340.39 567.59,-346.65"/>
</g>
<!-- Node17 -->
<g id="node17" class="node">
<title>Node17</title>
<g id="a_node17"><a xlink:href="OSCache_8h.html" target="_top" xlink:title=" ">
<polygon fill="white" stroke="#666666" points="407.38,-140 294.38,-140 294.38,-121 407.38,-121 407.38,-140"/>
<text text-anchor="middle" x="350.88" y="-128" font-family="Helvetica,sans-Serif" font-size="10.00">dolphin/os/OSCache.h</text>
</a>
</g>
</g>
<!-- Node1&#45;&gt;Node17 -->
<g id="edge27" class="edge">
<title>Node1&#45;&gt;Node17</title>
<path fill="none" stroke="#63b8ff" d="M331.01,-384.62C334.52,-339.9 345.25,-203.2 349.3,-151.55"/>
<polygon fill="#63b8ff" stroke="#63b8ff" points="352.77,-152.11 350.06,-141.87 345.79,-151.56 352.77,-152.11"/>
</g>
<!-- Node18 -->
<g id="node18" class="node">
<title>Node18</title>
<g id="a_node18"><a xlink:title=" ">
<polygon fill="#e0e0e0" stroke="#999999" points="768.88,-349 640.88,-349 640.88,-308 768.88,-308 768.88,-349"/>
<text text-anchor="start" x="648.88" y="-337" font-family="Helvetica,sans-Serif" font-size="10.00">asm/JSystem/JUtility</text>
<text text-anchor="start" x="648.88" y="-326" font-family="Helvetica,sans-Serif" font-size="10.00">/JUTDirectPrint/drawChar</text>
<text text-anchor="middle" x="704.88" y="-315" font-family="Helvetica,sans-Serif" font-size="10.00">__14JUTDirectPrintFiii.s</text>
</a>
</g>
</g>
<!-- Node1&#45;&gt;Node18 -->
<g id="edge30" class="edge">
<title>Node1&#45;&gt;Node18</title>
<path fill="none" stroke="#63b8ff" d="M383.36,-391.75C441.59,-383.49 537.64,-368.84 629.32,-349.45"/>
<polygon fill="#63b8ff" stroke="#63b8ff" points="629.95,-352.9 638.99,-347.38 628.48,-346.05 629.95,-352.9"/>
</g>
<!-- Node3 -->
<g id="node3" class="node">
<title>Node3</title>
<g id="a_node3"><a xlink:href="TColor_8h.html" target="_top" xlink:title=" ">
<polygon fill="white" stroke="#666666" points="167.38,-266.5 40.38,-266.5 40.38,-247.5 167.38,-247.5 167.38,-266.5"/>
<text text-anchor="middle" x="103.88" y="-254.5" font-family="Helvetica,sans-Serif" font-size="10.00">JSystem/JUtility/TColor.h</text>
</a>
</g>
</g>
<!-- Node2&#45;&gt;Node3 -->
<g id="edge2" class="edge">
<title>Node2&#45;&gt;Node3</title>
<path fill="none" stroke="#63b8ff" d="M176.82,-313.1C161.56,-301.58 140.2,-285.44 124.54,-273.61"/>
<polygon fill="#63b8ff" stroke="#63b8ff" points="126.93,-271.03 116.84,-267.79 122.71,-276.61 126.93,-271.03"/>
</g>
<!-- Node5 -->
<g id="node5" class="node">
<title>Node5</title>
<g id="a_node5"><a xlink:href="types_8h.html" target="_top" xlink:title=" ">
<polygon fill="white" stroke="#666666" points="236.38,-85 155.38,-85 155.38,-66 236.38,-66 236.38,-85"/>
<text text-anchor="middle" x="195.88" y="-73" font-family="Helvetica,sans-Serif" font-size="10.00">dolphin/types.h</text>
</a>
</g>
</g>
<!-- Node2&#45;&gt;Node5 -->
<g id="edge11" class="edge">
<title>Node2&#45;&gt;Node5</title>
<path fill="none" stroke="#63b8ff" d="M195.88,-313.29C195.88,-271.02 195.88,-145.99 195.88,-96.76"/>
<polygon fill="#63b8ff" stroke="#63b8ff" points="199.38,-97 195.88,-87 192.38,-97 199.38,-97"/>
</g>
<!-- Node2&#45;&gt;Node8 -->
<g id="edge9" class="edge">
<title>Node2&#45;&gt;Node8</title>
<path fill="none" stroke="#63b8ff" d="M204.6,-313.26C218.76,-290.14 246.9,-244.2 264.19,-215.98"/>
<polygon fill="#63b8ff" stroke="#63b8ff" points="266.99,-218.11 269.23,-207.75 261.02,-214.45 266.99,-218.11"/>
</g>
<!-- Node4 -->
<g id="node4" class="node">
<title>Node4</title>
<g id="a_node4"><a xlink:href="GXStruct_8h.html" target="_top" xlink:title=" ">
<polygon fill="white" stroke="#666666" points="129.38,-200.5 18.38,-200.5 18.38,-181.5 129.38,-181.5 129.38,-200.5"/>
<text text-anchor="middle" x="73.88" y="-188.5" font-family="Helvetica,sans-Serif" font-size="10.00">dolphin/gx/GXStruct.h</text>
</a>
</g>
</g>
<!-- Node3&#45;&gt;Node4 -->
<g id="edge3" class="edge">
<title>Node3&#45;&gt;Node4</title>
<path fill="none" stroke="#63b8ff" d="M99.71,-247.1C95.36,-237.84 88.43,-223.04 82.83,-211.11"/>
<polygon fill="#63b8ff" stroke="#63b8ff" points="86.07,-209.76 78.66,-202.19 79.73,-212.73 86.07,-209.76"/>
</g>
<!-- Node3&#45;&gt;Node5 -->
<g id="edge8" class="edge">
<title>Node3&#45;&gt;Node5</title>
<path fill="none" stroke="#63b8ff" d="M110.64,-247.09C117.89,-237.32 129.49,-221.03 137.88,-206 158.92,-168.3 178.33,-121.53 188.49,-95.78"/>
<polygon fill="#63b8ff" stroke="#63b8ff" points="191.67,-97.24 192.04,-86.65 185.15,-94.7 191.67,-97.24"/>
</g>
<!-- Node4&#45;&gt;Node5 -->
<g id="edge4" class="edge">
<title>Node4&#45;&gt;Node5</title>
<path fill="none" stroke="#63b8ff" d="M82.31,-181.3C95.28,-168.02 121.01,-142.01 143.88,-121 154.36,-111.38 166.41,-101.02 176.27,-92.72"/>
<polygon fill="#63b8ff" stroke="#63b8ff" points="178.34,-95.55 183.77,-86.46 173.85,-90.18 178.34,-95.55"/>
</g>
<!-- Node4&#45;&gt;Node7 -->
<g id="edge6" class="edge">
<title>Node4&#45;&gt;Node7</title>
<path fill="none" stroke="#63b8ff" d="M72.84,-181.37C71.9,-173.5 70.48,-161.6 69.26,-151.39"/>
<polygon fill="#63b8ff" stroke="#63b8ff" points="72.76,-151.18 68.09,-141.67 65.81,-152.02 72.76,-151.18"/>
</g>
<!-- Node6 -->
<g id="node6" class="node">
<title>Node6</title>
<g id="a_node6"><a xlink:href="stddef_8h.html" target="_top" xlink:title=" ">
<polygon fill="white" stroke="#666666" points="367.88,-30 231.88,-30 231.88,0 367.88,0 367.88,-30"/>
<text text-anchor="start" x="239.88" y="-18" font-family="Helvetica,sans-Serif" font-size="10.00">MSL_C/MSL_Common/Src</text>
<text text-anchor="middle" x="299.88" y="-7" font-family="Helvetica,sans-Serif" font-size="10.00">/stddef.h</text>
</a>
</g>
</g>
<!-- Node5&#45;&gt;Node6 -->
<g id="edge5" class="edge">
<title>Node5&#45;&gt;Node6</title>
<path fill="none" stroke="#63b8ff" d="M211.67,-65.62C225.61,-57.78 246.43,-46.06 264.34,-35.99"/>
<polygon fill="#63b8ff" stroke="#63b8ff" points="265.89,-39.13 272.89,-31.18 262.46,-33.03 265.89,-39.13"/>
</g>
<!-- Node7&#45;&gt;Node5 -->
<g id="edge7" class="edge">
<title>Node7&#45;&gt;Node5</title>
<path fill="none" stroke="#63b8ff" d="M88.76,-120.51C109.36,-112.04 140.47,-99.27 163.86,-89.66"/>
<polygon fill="#63b8ff" stroke="#63b8ff" points="165,-92.97 172.92,-85.93 162.34,-86.5 165,-92.97"/>
</g>
<!-- Node8&#45;&gt;Node5 -->
<g id="edge10" class="edge">
<title>Node8&#45;&gt;Node5</title>
<path fill="none" stroke="#63b8ff" d="M268.37,-175.63C253.23,-154.93 225.33,-116.78 208.91,-94.32"/>
<polygon fill="#63b8ff" stroke="#63b8ff" points="211.88,-92.46 203.15,-86.45 206.23,-96.59 211.88,-92.46"/>
</g>
<!-- Node10 -->
<g id="node10" class="node">
<title>Node10</title>
<g id="a_node10"><a xlink:href="FILE__POS_8h.html" target="_top" xlink:title=" ">
<polygon fill="white" stroke="#666666" points="801.88,-272 665.88,-272 665.88,-242 801.88,-242 801.88,-272"/>
<text text-anchor="start" x="673.88" y="-260" font-family="Helvetica,sans-Serif" font-size="10.00">MSL_C/MSL_Common/Src</text>
<text text-anchor="middle" x="733.88" y="-249" font-family="Helvetica,sans-Serif" font-size="10.00">/FILE_POS.h</text>
</a>
</g>
</g>
<!-- Node9&#45;&gt;Node10 -->
<g id="edge13" class="edge">
<title>Node9&#45;&gt;Node10</title>
<path fill="none" stroke="#63b8ff" d="M524.11,-318.66C532.94,-315.14 543.33,-311.17 552.88,-308 589.45,-295.85 630.84,-284.26 664.8,-275.31"/>
<polygon fill="#63b8ff" stroke="#63b8ff" points="665.3,-278.79 674.08,-272.88 663.52,-272.02 665.3,-278.79"/>
</g>
<!-- Node12 -->
<g id="node12" class="node">
<title>Node12</title>
<g id="a_node12"><a xlink:href="char__io_8h.html" target="_top" xlink:title=" ">
<polygon fill="white" stroke="#666666" points="955.88,-272 819.88,-272 819.88,-242 955.88,-242 955.88,-272"/>
<text text-anchor="start" x="827.88" y="-260" font-family="Helvetica,sans-Serif" font-size="10.00">MSL_C/MSL_Common/Src</text>
<text text-anchor="middle" x="887.88" y="-249" font-family="Helvetica,sans-Serif" font-size="10.00">/char_io.h</text>
</a>
</g>
</g>
<!-- Node9&#45;&gt;Node12 -->
<g id="edge16" class="edge">
<title>Node9&#45;&gt;Node12</title>
<path fill="none" stroke="#63b8ff" d="M522.48,-318.63C531.56,-314.84 542.6,-310.68 552.88,-308 661.4,-279.68 694.51,-289.67 808.21,-272.35"/>
<polygon fill="#63b8ff" stroke="#63b8ff" points="808.64,-275.83 817.97,-270.82 807.55,-268.91 808.64,-275.83"/>
</g>
<!-- Node13 -->
<g id="node13" class="node">
<title>Node13</title>
<g id="a_node13"><a xlink:href="direct__io_8h.html" target="_top" xlink:title=" ">
<polygon fill="white" stroke="#666666" points="1109.88,-272 973.88,-272 973.88,-242 1109.88,-242 1109.88,-272"/>
<text text-anchor="start" x="981.88" y="-260" font-family="Helvetica,sans-Serif" font-size="10.00">MSL_C/MSL_Common/Src</text>
<text text-anchor="middle" x="1041.88" y="-249" font-family="Helvetica,sans-Serif" font-size="10.00">/direct_io.h</text>
</a>
</g>
</g>
<!-- Node9&#45;&gt;Node13 -->
<g id="edge18" class="edge">
<title>Node9&#45;&gt;Node13</title>
<path fill="none" stroke="#63b8ff" d="M521.94,-318.59C531.1,-314.69 542.35,-310.46 552.88,-308 728.28,-267.02 780.62,-295.28 962.2,-272.25"/>
<polygon fill="#63b8ff" stroke="#63b8ff" points="962.53,-275.74 972,-270.97 961.63,-268.8 962.53,-275.74"/>
</g>
<!-- Node14 -->
<g id="node14" class="node">
<title>Node14</title>
<g id="a_node14"><a xlink:href="file__io_8h.html" target="_top" xlink:title=" ">
<polygon fill="white" stroke="#666666" points="647.88,-272 511.88,-272 511.88,-242 647.88,-242 647.88,-272"/>
<text text-anchor="start" x="519.88" y="-260" font-family="Helvetica,sans-Serif" font-size="10.00">MSL_C/MSL_Common/Src</text>
<text text-anchor="middle" x="579.88" y="-249" font-family="Helvetica,sans-Serif" font-size="10.00">/file_io.h</text>
</a>
</g>
</g>
<!-- Node9&#45;&gt;Node14 -->
<g id="edge20" class="edge">
<title>Node9&#45;&gt;Node14</title>
<path fill="none" stroke="#63b8ff" d="M512.63,-318.7C523.46,-308.93 541.33,-292.8 555.92,-279.62"/>
<polygon fill="#63b8ff" stroke="#63b8ff" points="557.86,-282.59 562.94,-273.29 553.17,-277.39 557.86,-282.59"/>
</g>
<!-- Node15 -->
<g id="node15" class="node">
<title>Node15</title>
<g id="a_node15"><a xlink:href="printf_8h.html" target="_top" xlink:title=" ">
<polygon fill="white" stroke="#666666" points="493.88,-272 357.88,-272 357.88,-242 493.88,-242 493.88,-272"/>
<text text-anchor="start" x="365.88" y="-260" font-family="Helvetica,sans-Serif" font-size="10.00">MSL_C/MSL_Common/Src</text>
<text text-anchor="middle" x="425.88" y="-249" font-family="Helvetica,sans-Serif" font-size="10.00">/printf.h</text>
</a>
</g>
</g>
<!-- Node9&#45;&gt;Node15 -->
<g id="edge22" class="edge">
<title>Node9&#45;&gt;Node15</title>
<path fill="none" stroke="#63b8ff" d="M493.13,-318.7C482.3,-308.93 464.43,-292.8 449.83,-279.62"/>
<polygon fill="#63b8ff" stroke="#63b8ff" points="452.58,-277.39 442.82,-273.29 447.89,-282.59 452.58,-277.39"/>
</g>
<!-- Node11 -->
<g id="node11" class="node">
<title>Node11</title>
<g id="a_node11"><a xlink:href="ansi__files_8h.html" target="_top" xlink:title=" ">
<polygon fill="white" stroke="#666666" points="724.88,-206 588.88,-206 588.88,-176 724.88,-176 724.88,-206"/>
<text text-anchor="start" x="596.88" y="-194" font-family="Helvetica,sans-Serif" font-size="10.00">MSL_C/MSL_Common/Src</text>
<text text-anchor="middle" x="656.88" y="-183" font-family="Helvetica,sans-Serif" font-size="10.00">/ansi_files.h</text>
</a>
</g>
</g>
<!-- Node10&#45;&gt;Node11 -->
<g id="edge14" class="edge">
<title>Node10&#45;&gt;Node11</title>
<path fill="none" stroke="#63b8ff" d="M716.79,-241.8C706.79,-233.49 693.97,-222.83 682.75,-213.5"/>
<polygon fill="#63b8ff" stroke="#63b8ff" points="685.28,-211.05 675.35,-207.35 680.8,-216.44 685.28,-211.05"/>
</g>
<!-- Node11&#45;&gt;Node6 -->
<g id="edge15" class="edge">
<title>Node11&#45;&gt;Node6</title>
<path fill="none" stroke="#63b8ff" d="M627.36,-175.61C563.35,-144.42 411.74,-70.52 339.49,-35.31"/>
<polygon fill="#63b8ff" stroke="#63b8ff" points="341.31,-32.3 330.79,-31.07 338.25,-38.59 341.31,-32.3"/>
</g>
<!-- Node12&#45;&gt;Node11 -->
<g id="edge17" class="edge">
<title>Node12&#45;&gt;Node11</title>
<path fill="none" stroke="#63b8ff" d="M835.75,-241.56C801.38,-232.04 756.17,-219.51 719.8,-209.43"/>
<polygon fill="#63b8ff" stroke="#63b8ff" points="720.85,-206.09 710.28,-206.79 718.98,-212.84 720.85,-206.09"/>
</g>
<!-- Node13&#45;&gt;Node11 -->
<g id="edge19" class="edge">
<title>Node13&#45;&gt;Node11</title>
<path fill="none" stroke="#63b8ff" d="M973.46,-243.49C970.56,-242.98 967.69,-242.48 964.88,-242 887.35,-228.66 798.68,-214.37 736.44,-204.49"/>
<polygon fill="#63b8ff" stroke="#63b8ff" points="737.06,-201.05 726.64,-202.94 735.96,-207.96 737.06,-201.05"/>
</g>
<!-- Node14&#45;&gt;Node11 -->
<g id="edge21" class="edge">
<title>Node14&#45;&gt;Node11</title>
<path fill="none" stroke="#63b8ff" d="M596.97,-241.8C606.97,-233.49 619.79,-222.83 631.01,-213.5"/>
<polygon fill="#63b8ff" stroke="#63b8ff" points="632.95,-216.44 638.41,-207.35 628.48,-211.05 632.95,-216.44"/>
</g>
<!-- Node15&#45;&gt;Node8 -->
<g id="edge24" class="edge">
<title>Node15&#45;&gt;Node8</title>
<path fill="none" stroke="#63b8ff" d="M392.89,-241.64C372.06,-232.57 344.92,-220.75 322.35,-210.93"/>
<polygon fill="#63b8ff" stroke="#63b8ff" points="323.97,-207.81 313.4,-207.03 321.17,-214.23 323.97,-207.81"/>
</g>
<!-- Node15&#45;&gt;Node11 -->
<g id="edge23" class="edge">
<title>Node15&#45;&gt;Node11</title>
<path fill="none" stroke="#63b8ff" d="M478.01,-241.56C512.38,-232.04 557.59,-219.51 593.96,-209.43"/>
<polygon fill="#63b8ff" stroke="#63b8ff" points="594.78,-212.84 603.48,-206.79 592.91,-206.09 594.78,-212.84"/>
</g>
<!-- Node17&#45;&gt;Node5 -->
<g id="edge28" class="edge">
<title>Node17&#45;&gt;Node5</title>
<path fill="none" stroke="#63b8ff" d="M324.58,-120.51C299.35,-111.88 260.99,-98.76 232.72,-89.1"/>
<polygon fill="#63b8ff" stroke="#63b8ff" points="234.07,-85.86 223.47,-85.94 231.8,-92.48 234.07,-85.86"/>
</g>
</g>
</svg>
        <g id="navigator" transform="translate(0 0)" fill="#404254">
                <rect fill="#f2f5e9" fill-opacity="0.5" stroke="#606060" stroke-width=".5" x="0" y="0" width="60" height="60"/>
                <use id="zoomplus" xlink:href="#zoomPlus" x="17" y="9" onmousedown="handleZoom(evt,'in')"/>
                <use id="zoomminus" xlink:href="#zoomMin" x="42" y="9" onmousedown="handleZoom(evt,'out')"/>
                <use id="reset" xlink:href="#resetDef" x="30" y="36" onmousedown="handleReset()"/>
                <g id="arrowUp" xlink:href="#dirArrow" transform="translate(30 24)" onmousedown="handlePan(0,-1)">
                  <use xlink:href="#rim" fill="#404040">
                        <set attributeName="fill" to="#808080" begin="arrowUp.mouseover" end="arrowUp.mouseout"/>
                  </use>
                  <path fill="none" stroke="white" stroke-width="1.5" d="M0,-3.0v7 M-2.5,-0.5L0,-3.0L2.5,-0.5"/>
                </g>
                <g id="arrowRight" xlink:href="#dirArrow" transform="rotate(90) translate(36 -43)" onmousedown="handlePan(1,0)">
                  <use xlink:href="#rim" fill="#404040">
                        <set attributeName="fill" to="#808080" begin="arrowRight.mouseover" end="arrowRight.mouseout"/>
                  </use>
                  <path fill="none" stroke="white" stroke-width="1.5" d="M0,-3.0v7 M-2.5,-0.5L0,-3.0L2.5,-0.5"/>
                </g>
                <g id="arrowDown" xlink:href="#dirArrow" transform="rotate(180) translate(-30 -48)" onmousedown="handlePan(0,1)">
                  <use xlink:href="#rim" fill="#404040">
                        <set attributeName="fill" to="#808080" begin="arrowDown.mouseover" end="arrowDown.mouseout"/>
                  </use>
                  <path fill="none" stroke="white" stroke-width="1.5" d="M0,-3.0v7 M-2.5,-0.5L0,-3.0L2.5,-0.5"/>
                </g>
                <g id="arrowLeft" xlink:href="#dirArrow" transform="rotate(270) translate(-36 17)" onmousedown="handlePan(-1,0)">
                  <use xlink:href="#rim" fill="#404040">
                        <set attributeName="fill" to="#808080" begin="arrowLeft.mouseover" end="arrowLeft.mouseout"/>
                  </use>
                  <path fill="none" stroke="white" stroke-width="1.5" d="M0,-3.0v7 M-2.5,-0.5L0,-3.0L2.5,-0.5"/>
                </g>
        </g>
        <svg viewBox="0 0 15 15" width="100%" height="30px" preserveAspectRatio="xMaxYMin meet">
         <g id="arrow_out" transform="scale(0.3 0.3)">
          <a xlink:href="JUTDirectPrint_8cpp__incl_org.svg" target="_base">
           <rect id="button" ry="5" rx="5" y="6" x="6" height="38" width="38"
                fill="#f2f5e9" fill-opacity="0.5" stroke="#606060" stroke-width="1.0"/>
           <path id="arrow"
             d="M 11.500037,31.436501 C 11.940474,20.09759 22.043105,11.32322 32.158766,21.979434 L 37.068811,17.246167 C 37.068811,17.246167 37.088388,32 37.088388,32 L 22.160133,31.978069 C 22.160133,31.978069 26.997745,27.140456 26.997745,27.140456 C 18.528582,18.264221 13.291696,25.230495 11.500037,31.436501 z"
             style="fill:#404040;"/>
          </a>
         </g>
        </svg>
</svg>
