<?xml version="1.0" encoding="UTF-8" standalone="no"?>
<!DOCTYPE svg PUBLIC "-//W3C//DTD SVG 1.1//EN"
 "http://www.w3.org/Graphics/SVG/1.1/DTD/svg11.dtd">
<!-- Generated by graphviz version 2.44.0 ()
 -->
<!-- Title: libs/JSystem/JUtility/JUTDirectPrint.cpp Pages: 1 -->
<!--zoomable 184 -->
<svg id="main" version="1.1" xmlns="http://www.w3.org/2000/svg" xmlns:xlink="http://www.w3.org/1999/xlink" xml:space="preserve" onload="init(evt)">
<style type="text/css"><![CDATA[
.edge:hover path { stroke: red; }
.edge:hover polygon { stroke: red; fill: red; }
]]></style>
<script type="text/javascript"><![CDATA[
var edges = document.getElementsByTagName('g');
if (edges && edges.length) {
  for (var i=0;i<edges.length;i++) {
    if (edges[i].id.substr(0,4)=='edge') {
      edges[i].setAttribute('class','edge');
    }
  }
}
]]></script>
        <defs>
                <circle id="rim" cx="0" cy="0" r="7"/>
                <circle id="rim2" cx="0" cy="0" r="3.5"/>
                <g id="zoomPlus">
                        <use xlink:href="#rim" fill="#404040">
                                <set attributeName="fill" to="#808080" begin="zoomplus.mouseover" end="zoomplus.mouseout"/>
                        </use>
                        <path d="M-4,0h8M0,-4v8" fill="none" stroke="white" stroke-width="1.5" pointer-events="none"/>
                </g>
                <g id="zoomMin">
                        <use xlink:href="#rim" fill="#404040">
                                <set attributeName="fill" to="#808080" begin="zoomminus.mouseover" end="zoomminus.mouseout"/>
                        </use>
                        <path d="M-4,0h8" fill="none" stroke="white" stroke-width="1.5" pointer-events="none"/>
                </g>
                <g id="dirArrow">
                        <path fill="none" stroke="white" stroke-width="1.5" d="M0,-3.0v7 M-2.5,-0.5L0,-3.0L2.5,-0.5"/>
                </g>
               <g id="resetDef">
                       <use xlink:href="#rim2" fill="#404040">
                               <set attributeName="fill" to="#808080" begin="reset.mouseover" end="reset.mouseout"/>
                       </use>
               </g>
        </defs>

<script type="text/javascript">
var viewWidth = 1965;
var viewHeight = 184;
var sectionId = 'dynsection-0';
</script>
<script xlink:href="svgpan.js"/>
<svg id="graph" class="graph">
<g id="viewport">
<title>libs/JSystem/JUtility/JUTDirectPrint.cpp</title>
<polygon fill="white" stroke="transparent" points="-4,4 -4,-180 1960.5,-180 1960.5,4 -4,4"/>
<!-- Node1 -->
<g id="node1" class="node">
<title>Node1</title>
<g id="a_node1"><a xlink:title=" ">
<polygon fill="#bfbfbf" stroke="black" points="703.5,-145.5 703.5,-175.5 809.5,-175.5 809.5,-145.5 703.5,-145.5"/>
<text text-anchor="start" x="711.5" y="-163.5" font-family="Helvetica,sans-Serif" font-size="10.00">libs/JSystem/JUtility</text>
<text text-anchor="middle" x="756.5" y="-152.5" font-family="Helvetica,sans-Serif" font-size="10.00">/JUTDirectPrint.cpp</text>
</a>
</g>
</g>
<!-- Node2 -->
<g id="node2" class="node">
<title>Node2</title>
<g id="a_node2"><a xlink:href="JUTDirectPrint_8h.html" target="_top" xlink:title=" ">
<polygon fill="white" stroke="black" points="0,-67.5 0,-97.5 135,-97.5 135,-67.5 0,-67.5"/>
<text text-anchor="start" x="8" y="-85.5" font-family="Helvetica,sans-Serif" font-size="10.00">JSystem/JUtility/JUTDirect</text>
<text text-anchor="middle" x="67.5" y="-74.5" font-family="Helvetica,sans-Serif" font-size="10.00">Print.h</text>
</a>
</g>
</g>
<!-- Node1&#45;&gt;Node2 -->
<g id="edge1" class="edge">
<title>Node1&#45;&gt;Node2</title>
<path fill="none" stroke="midnightblue" d="M703.19,-158.96C596.89,-157.03 351.39,-148.3 149.5,-109 138.63,-106.88 127.17,-103.85 116.37,-100.61"/>
<polygon fill="midnightblue" stroke="midnightblue" points="117.26,-97.22 106.68,-97.59 115.19,-103.91 117.26,-97.22"/>
</g>
<!-- Node3 -->
<g id="node3" class="node">
<title>Node3</title>
<g id="a_node3"><a xlink:href="types_8h.html" target="_top" xlink:title=" ">
<polygon fill="white" stroke="black" points="75,-0.5 75,-19.5 156,-19.5 156,-0.5 75,-0.5"/>
<text text-anchor="middle" x="115.5" y="-7.5" font-family="Helvetica,sans-Serif" font-size="10.00">dolphin/types.h</text>
</a>
</g>
</g>
<!-- Node1&#45;&gt;Node3 -->
<g id="edge4" class="edge">
<title>Node1&#45;&gt;Node3</title>
<path fill="none" stroke="midnightblue" d="M703.1,-157.37C569.4,-151.66 227.81,-134.73 183.5,-109 179.33,-106.58 145.3,-55.91 127.02,-28.4"/>
<polygon fill="midnightblue" stroke="midnightblue" points="129.73,-26.16 121.28,-19.76 123.9,-30.03 129.73,-26.16"/>
</g>
<!-- Node4 -->
<g id="node4" class="node">
<title>Node4</title>
<g id="a_node4"><a xlink:href="dol2asm_8h.html" target="_top" xlink:title=" ">
<polygon fill="white" stroke="black" points="192,-73 192,-92 253,-92 253,-73 192,-73"/>
<text text-anchor="middle" x="222.5" y="-80" font-family="Helvetica,sans-Serif" font-size="10.00">dol2asm.h</text>
</a>
</g>
</g>
<!-- Node1&#45;&gt;Node4 -->
<g id="edge3" class="edge">
<title>Node1&#45;&gt;Node4</title>
<path fill="none" stroke="midnightblue" d="M703.5,-157.18C593.27,-151.84 342.91,-136.97 262.5,-109 255.18,-106.46 247.84,-102.34 241.48,-98.15"/>
<polygon fill="midnightblue" stroke="midnightblue" points="243.17,-95.05 232.99,-92.13 239.13,-100.77 243.17,-95.05"/>
</g>
<!-- Node5 -->
<g id="node5" class="node">
<title>Node5</title>
<g id="a_node5"><a xlink:title=" ">
<polygon fill="white" stroke="#bfbfbf" points="271,-62 271,-103 392,-103 392,-62 271,-62"/>
<text text-anchor="start" x="279" y="-91" font-family="Helvetica,sans-Serif" font-size="10.00">asm/JSystem/JUtility</text>
<text text-anchor="start" x="279" y="-80" font-family="Helvetica,sans-Serif" font-size="10.00">/JUTDirectPrint/__ct</text>
<text text-anchor="middle" x="331.5" y="-69" font-family="Helvetica,sans-Serif" font-size="10.00">__14JUTDirectPrintFv.s</text>
</a>
</g>
</g>
<!-- Node1&#45;&gt;Node5 -->
<g id="edge5" class="edge">
<title>Node1&#45;&gt;Node5</title>
<path fill="none" stroke="midnightblue" d="M703.21,-155.4C633.18,-149.22 506.73,-135.35 401.5,-109 397.97,-108.12 394.36,-107.12 390.75,-106.04"/>
<polygon fill="midnightblue" stroke="midnightblue" points="391.79,-102.7 381.2,-103.03 389.68,-109.37 391.79,-102.7"/>
</g>
<!-- Node6 -->
<g id="node6" class="node">
<title>Node6</title>
<g id="a_node6"><a xlink:title=" ">
<polygon fill="white" stroke="#bfbfbf" points="410,-62 410,-103 531,-103 531,-62 410,-62"/>
<text text-anchor="start" x="418" y="-91" font-family="Helvetica,sans-Serif" font-size="10.00">asm/JSystem/JUtility</text>
<text text-anchor="start" x="418" y="-80" font-family="Helvetica,sans-Serif" font-size="10.00">/JUTDirectPrint/start</text>
<text text-anchor="middle" x="470.5" y="-69" font-family="Helvetica,sans-Serif" font-size="10.00">__14JUTDirectPrintFv.s</text>
</a>
</g>
</g>
<!-- Node1&#45;&gt;Node6 -->
<g id="edge6" class="edge">
<title>Node1&#45;&gt;Node6</title>
<path fill="none" stroke="midnightblue" d="M703.22,-148.9C659.21,-139.7 595.31,-125.33 540.5,-109 537.56,-108.12 534.56,-107.19 531.54,-106.22"/>
<polygon fill="midnightblue" stroke="midnightblue" points="532.47,-102.84 521.87,-103.01 530.26,-109.48 532.47,-102.84"/>
</g>
<!-- Node7 -->
<g id="node7" class="node">
<title>Node7</title>
<g id="a_node7"><a xlink:title=" ">
<polygon fill="white" stroke="#bfbfbf" points="549,-62 549,-103 674,-103 674,-62 549,-62"/>
<text text-anchor="start" x="557" y="-91" font-family="Helvetica,sans-Serif" font-size="10.00">asm/JSystem/JUtility</text>
<text text-anchor="start" x="557" y="-80" font-family="Helvetica,sans-Serif" font-size="10.00">/JUTDirectPrint/erase</text>
<text text-anchor="middle" x="611.5" y="-69" font-family="Helvetica,sans-Serif" font-size="10.00">__14JUTDirectPrintFiiii.s</text>
</a>
</g>
</g>
<!-- Node1&#45;&gt;Node7 -->
<g id="edge7" class="edge">
<title>Node1&#45;&gt;Node7</title>
<path fill="none" stroke="midnightblue" d="M729.57,-145.38C709.54,-134.89 681.71,-120.3 658.1,-107.92"/>
<polygon fill="midnightblue" stroke="midnightblue" points="659.43,-104.67 648.95,-103.13 656.18,-110.87 659.43,-104.67"/>
</g>
<!-- Node8 -->
<g id="node8" class="node">
<title>Node8</title>
<g id="a_node8"><a xlink:title=" ">
<polygon fill="white" stroke="#bfbfbf" points="692.5,-62 692.5,-103 820.5,-103 820.5,-62 692.5,-62"/>
<text text-anchor="start" x="700.5" y="-91" font-family="Helvetica,sans-Serif" font-size="10.00">asm/JSystem/JUtility</text>
<text text-anchor="start" x="700.5" y="-80" font-family="Helvetica,sans-Serif" font-size="10.00">/JUTDirectPrint/drawChar</text>
<text text-anchor="middle" x="756.5" y="-69" font-family="Helvetica,sans-Serif" font-size="10.00">__14JUTDirectPrintFiii.s</text>
</a>
</g>
</g>
<!-- Node1&#45;&gt;Node8 -->
<g id="edge8" class="edge">
<title>Node1&#45;&gt;Node8</title>
<path fill="none" stroke="midnightblue" d="M756.5,-145.2C756.5,-136.21 756.5,-124.27 756.5,-113.29"/>
<polygon fill="midnightblue" stroke="midnightblue" points="760,-113.18 756.5,-103.18 753,-113.18 760,-113.18"/>
</g>
<!-- Node9 -->
<g id="node9" class="node">
<title>Node9</title>
<g id="a_node9"><a xlink:title=" ">
<polygon fill="white" stroke="#bfbfbf" points="839,-62 839,-103 1018,-103 1018,-62 839,-62"/>
<text text-anchor="start" x="847" y="-91" font-family="Helvetica,sans-Serif" font-size="10.00">asm/JSystem/JUtility</text>
<text text-anchor="start" x="847" y="-80" font-family="Helvetica,sans-Serif" font-size="10.00">/JUTDirectPrint/changeFrame</text>
<text text-anchor="middle" x="928.5" y="-69" font-family="Helvetica,sans-Serif" font-size="10.00">Buffer__14JUTDirectPrintFPvUsUs.s</text>
</a>
</g>
</g>
<!-- Node1&#45;&gt;Node9 -->
<g id="edge9" class="edge">
<title>Node1&#45;&gt;Node9</title>
<path fill="none" stroke="midnightblue" d="M788.45,-145.38C812.63,-134.7 846.39,-119.78 874.71,-107.27"/>
<polygon fill="midnightblue" stroke="midnightblue" points="876.35,-110.37 884.08,-103.13 873.52,-103.97 876.35,-110.37"/>
</g>
<!-- Node10 -->
<g id="node10" class="node">
<title>Node10</title>
<g id="a_node10"><a xlink:title=" ">
<polygon fill="white" stroke="#bfbfbf" points="1036.5,-56.5 1036.5,-108.5 1206.5,-108.5 1206.5,-56.5 1036.5,-56.5"/>
<text text-anchor="start" x="1044.5" y="-96.5" font-family="Helvetica,sans-Serif" font-size="10.00">asm/JSystem/JUtility</text>
<text text-anchor="start" x="1044.5" y="-85.5" font-family="Helvetica,sans-Serif" font-size="10.00">/JUTDirectPrint/printSub</text>
<text text-anchor="start" x="1044.5" y="-74.5" font-family="Helvetica,sans-Serif" font-size="10.00">__14JUTDirectPrintFUsUsPCcP16</text>
<text text-anchor="middle" x="1121.5" y="-63.5" font-family="Helvetica,sans-Serif" font-size="10.00">__va_list_structb.s</text>
</a>
</g>
</g>
<!-- Node1&#45;&gt;Node10 -->
<g id="edge10" class="edge">
<title>Node1&#45;&gt;Node10</title>
<path fill="none" stroke="midnightblue" d="M809.73,-150.89C862.42,-142.07 945.57,-127.36 1026.42,-109.18"/>
<polygon fill="midnightblue" stroke="midnightblue" points="1027.29,-112.57 1036.27,-106.94 1025.74,-105.74 1027.29,-112.57"/>
</g>
<!-- Node11 -->
<g id="node11" class="node">
<title>Node11</title>
<g id="a_node11"><a xlink:title=" ">
<polygon fill="white" stroke="#bfbfbf" points="1225,-62 1225,-103 1378,-103 1378,-62 1225,-62"/>
<text text-anchor="start" x="1233" y="-91" font-family="Helvetica,sans-Serif" font-size="10.00">asm/JSystem/JUtility</text>
<text text-anchor="start" x="1233" y="-80" font-family="Helvetica,sans-Serif" font-size="10.00">/JUTDirectPrint/drawString</text>
<text text-anchor="middle" x="1301.5" y="-69" font-family="Helvetica,sans-Serif" font-size="10.00">__14JUTDirectPrintFUsUsPc.s</text>
</a>
</g>
</g>
<!-- Node1&#45;&gt;Node11 -->
<g id="edge11" class="edge">
<title>Node1&#45;&gt;Node11</title>
<path fill="none" stroke="midnightblue" d="M809.63,-156.74C895.62,-151.59 1070.31,-138.27 1215.5,-109 1220.43,-108.01 1225.49,-106.86 1230.56,-105.61"/>
<polygon fill="midnightblue" stroke="midnightblue" points="1231.49,-108.98 1240.29,-103.1 1229.74,-102.2 1231.49,-108.98"/>
</g>
<!-- Node12 -->
<g id="node12" class="node">
<title>Node12</title>
<g id="a_node12"><a xlink:title=" ">
<polygon fill="white" stroke="#bfbfbf" points="1396,-62 1396,-103 1569,-103 1569,-62 1396,-62"/>
<text text-anchor="start" x="1404" y="-91" font-family="Helvetica,sans-Serif" font-size="10.00">asm/JSystem/JUtility</text>
<text text-anchor="start" x="1404" y="-80" font-family="Helvetica,sans-Serif" font-size="10.00">/JUTDirectPrint/drawString</text>
<text text-anchor="middle" x="1482.5" y="-69" font-family="Helvetica,sans-Serif" font-size="10.00">_f__14JUTDirectPrintFUsUsPCce.s</text>
</a>
</g>
</g>
<!-- Node1&#45;&gt;Node12 -->
<g id="edge12" class="edge">
<title>Node1&#45;&gt;Node12</title>
<path fill="none" stroke="midnightblue" d="M809.68,-158.51C918.78,-155.76 1175.51,-145.62 1387.5,-109 1393.57,-107.95 1399.82,-106.69 1406.08,-105.3"/>
<polygon fill="midnightblue" stroke="midnightblue" points="1406.94,-108.69 1415.89,-103.02 1405.35,-101.87 1406.94,-108.69"/>
</g>
<!-- Node13 -->
<g id="node13" class="node">
<title>Node13</title>
<g id="a_node13"><a xlink:title=" ">
<polygon fill="white" stroke="#bfbfbf" points="1587,-62 1587,-103 1784,-103 1784,-62 1587,-62"/>
<text text-anchor="start" x="1595" y="-91" font-family="Helvetica,sans-Serif" font-size="10.00">asm/JSystem/JUtility</text>
<text text-anchor="start" x="1595" y="-80" font-family="Helvetica,sans-Serif" font-size="10.00">/JUTDirectPrint/setCharColor</text>
<text text-anchor="middle" x="1685.5" y="-69" font-family="Helvetica,sans-Serif" font-size="10.00">__14JUTDirectPrintFQ28JUtility6TColor.s</text>
</a>
</g>
</g>
<!-- Node1&#45;&gt;Node13 -->
<g id="edge13" class="edge">
<title>Node1&#45;&gt;Node13</title>
<path fill="none" stroke="midnightblue" d="M809.72,-159.4C941.04,-158.47 1290.71,-151.81 1578.5,-109 1585.79,-107.92 1593.31,-106.58 1600.83,-105.09"/>
<polygon fill="midnightblue" stroke="midnightblue" points="1601.61,-108.5 1610.7,-103.05 1600.2,-101.65 1601.61,-108.5"/>
</g>
<!-- Node14 -->
<g id="node14" class="node">
<title>Node14</title>
<g id="a_node14"><a xlink:title=" ">
<polygon fill="white" stroke="#bfbfbf" points="1802.5,-62 1802.5,-103 1956.5,-103 1956.5,-62 1802.5,-62"/>
<text text-anchor="start" x="1810.5" y="-91" font-family="Helvetica,sans-Serif" font-size="10.00">asm/JSystem/JUtility</text>
<text text-anchor="start" x="1810.5" y="-80" font-family="Helvetica,sans-Serif" font-size="10.00">/JUTDirectPrint/setCharColor</text>
<text text-anchor="middle" x="1879.5" y="-69" font-family="Helvetica,sans-Serif" font-size="10.00">__14JUTDirectPrintFUcUcUc.s</text>
</a>
</g>
</g>
<!-- Node1&#45;&gt;Node14 -->
<g id="edge14" class="edge">
<title>Node1&#45;&gt;Node14</title>
<path fill="none" stroke="midnightblue" d="M809.53,-158.59C993.17,-155.2 1601.25,-141.69 1793.5,-109 1798.97,-108.07 1804.58,-106.9 1810.19,-105.59"/>
<polygon fill="midnightblue" stroke="midnightblue" points="1811.4,-108.89 1820.26,-103.07 1809.71,-102.1 1811.4,-108.89"/>
</g>
<!-- Node2&#45;&gt;Node3 -->
<g id="edge2" class="edge">
<title>Node2&#45;&gt;Node3</title>
<path fill="none" stroke="midnightblue" d="M77.21,-67.23C84.9,-55.95 95.65,-40.15 103.81,-28.17"/>
<polygon fill="midnightblue" stroke="midnightblue" points="106.71,-30.13 109.45,-19.89 100.92,-26.19 106.71,-30.13"/>
</g>
</g>
</svg>
        <g id="navigator" transform="translate(0 0)" fill="#404254">
                <rect fill="#f2f5e9" fill-opacity="0.5" stroke="#606060" stroke-width=".5" x="0" y="0" width="60" height="60"/>
                <use id="zoomplus" xlink:href="#zoomPlus" x="17" y="9" onmousedown="handleZoom(evt,'in')"/>
                <use id="zoomminus" xlink:href="#zoomMin" x="42" y="9" onmousedown="handleZoom(evt,'out')"/>
                <use id="reset" xlink:href="#resetDef" x="30" y="36" onmousedown="handleReset()"/>
                <g id="arrowUp" xlink:href="#dirArrow" transform="translate(30 24)" onmousedown="handlePan(0,-1)">
                  <use xlink:href="#rim" fill="#404040">
                        <set attributeName="fill" to="#808080" begin="arrowUp.mouseover" end="arrowUp.mouseout"/>
                  </use>
                  <path fill="none" stroke="white" stroke-width="1.5" d="M0,-3.0v7 M-2.5,-0.5L0,-3.0L2.5,-0.5"/>
                </g>
                <g id="arrowRight" xlink:href="#dirArrow" transform="rotate(90) translate(36 -43)" onmousedown="handlePan(1,0)">
                  <use xlink:href="#rim" fill="#404040">
                        <set attributeName="fill" to="#808080" begin="arrowRight.mouseover" end="arrowRight.mouseout"/>
                  </use>
                  <path fill="none" stroke="white" stroke-width="1.5" d="M0,-3.0v7 M-2.5,-0.5L0,-3.0L2.5,-0.5"/>
                </g>
                <g id="arrowDown" xlink:href="#dirArrow" transform="rotate(180) translate(-30 -48)" onmousedown="handlePan(0,1)">
                  <use xlink:href="#rim" fill="#404040">
                        <set attributeName="fill" to="#808080" begin="arrowDown.mouseover" end="arrowDown.mouseout"/>
                  </use>
                  <path fill="none" stroke="white" stroke-width="1.5" d="M0,-3.0v7 M-2.5,-0.5L0,-3.0L2.5,-0.5"/>
                </g>
                <g id="arrowLeft" xlink:href="#dirArrow" transform="rotate(270) translate(-36 17)" onmousedown="handlePan(-1,0)">
                  <use xlink:href="#rim" fill="#404040">
                        <set attributeName="fill" to="#808080" begin="arrowLeft.mouseover" end="arrowLeft.mouseout"/>
                  </use>
                  <path fill="none" stroke="white" stroke-width="1.5" d="M0,-3.0v7 M-2.5,-0.5L0,-3.0L2.5,-0.5"/>
                </g>
        </g>
        <svg viewBox="0 0 15 15" width="100%" height="30px" preserveAspectRatio="xMaxYMin meet">
         <g id="arrow_out" transform="scale(0.3 0.3)">
          <a xlink:href="JUTDirectPrint_8cpp__incl_org.svg" target="_base">
           <rect id="button" ry="5" rx="5" y="6" x="6" height="38" width="38"
                fill="#f2f5e9" fill-opacity="0.5" stroke="#606060" stroke-width="1.0"/>
           <path id="arrow"
             d="M 11.500037,31.436501 C 11.940474,20.09759 22.043105,11.32322 32.158766,21.979434 L 37.068811,17.246167 C 37.068811,17.246167 37.088388,32 37.088388,32 L 22.160133,31.978069 C 22.160133,31.978069 26.997745,27.140456 26.997745,27.140456 C 18.528582,18.264221 13.291696,25.230495 11.500037,31.436501 z"
             style="fill:#404040;"/>
          </a>
         </g>
        </svg>
</svg>
