<?xml version="1.0" encoding="UTF-8" standalone="no"?>
<!DOCTYPE svg PUBLIC "-//W3C//DTD SVG 1.1//EN"
 "http://www.w3.org/Graphics/SVG/1.1/DTD/svg11.dtd">
<!-- Generated by graphviz version 9.0.0 (20230911.1827)
 -->
<!-- Title: include/JSystem/JUtility/JUTDirectPrint.h Pages: 1 -->
<svg width="311pt" height="315pt"
 viewBox="0.00 0.00 311.12 314.75" xmlns="http://www.w3.org/2000/svg" xmlns:xlink="http://www.w3.org/1999/xlink">
<g id="graph0" class="graph" transform="scale(1 1) rotate(0) translate(4 310.75)">
<title>include/JSystem/JUtility/JUTDirectPrint.h</title>
<!-- Node1 -->
<g id="Node000001" class="node">
<title>Node1</title>
<g id="a_Node000001"><a xlink:title=" ">
<polygon fill="#999999" stroke="#666666" points="264,-306.75 143,-306.75 143,-276.25 264,-276.25 264,-306.75"/>
<text text-anchor="start" x="151" y="-293.25" font-family="Helvetica,sans-Serif" font-size="10.00">include/JSystem/JUtility</text>
<text text-anchor="middle" x="203.5" y="-282" font-family="Helvetica,sans-Serif" font-size="10.00">/JUTDirectPrint.h</text>
</a>
</g>
</g>
<!-- Node2 -->
<g id="Node000002" class="node">
<title>Node2</title>
<g id="a_Node000002"><a xlink:href="TColor_8h.html" target="_top" xlink:title=" ">
<polygon fill="white" stroke="#666666" points="221.62,-240.25 95.38,-240.25 95.38,-221 221.62,-221 221.62,-240.25"/>
<text text-anchor="middle" x="158.5" y="-226.75" font-family="Helvetica,sans-Serif" font-size="10.00">JSystem/JUtility/TColor.h</text>
</a>
</g>
</g>
<!-- Node1&#45;&gt;Node2 -->
<g id="edge1_Node000001_Node000002" class="edge">
<title>Node1&#45;&gt;Node2</title>
<g id="a_edge1_Node000001_Node000002"><a xlink:title=" ">
<path fill="none" stroke="#63b8ff" d="M192.38,-275.95C186.32,-268.02 178.76,-258.13 172.32,-249.71"/>
<polygon fill="#63b8ff" stroke="#63b8ff" points="175.21,-247.72 166.36,-241.9 169.65,-251.97 175.21,-247.72"/>
</a>
</g>
</g>
<!-- Node9 -->
<g id="Node000009" class="node">
<title>Node9</title>
<g id="a_Node000009"><a xlink:href="____va__arg_8h.html" target="_top" xlink:title=" ">
<polygon fill="white" stroke="#666666" points="303.12,-185 239.88,-185 239.88,-165.75 303.12,-165.75 303.12,-185"/>
<text text-anchor="middle" x="271.5" y="-171.5" font-family="Helvetica,sans-Serif" font-size="10.00">__va_arg.h</text>
</a>
</g>
</g>
<!-- Node1&#45;&gt;Node9 -->
<g id="edge10_Node000001_Node000009" class="edge">
<title>Node1&#45;&gt;Node9</title>
<g id="a_edge10_Node000001_Node000009"><a xlink:title=" ">
<path fill="none" stroke="#63b8ff" d="M212.11,-276.05C224.34,-255.53 246.73,-217.95 260.25,-195.25"/>
<polygon fill="#63b8ff" stroke="#63b8ff" points="263.21,-197.13 265.32,-186.75 257.19,-193.55 263.21,-197.13"/>
</a>
</g>
</g>
<!-- Node3 -->
<g id="Node000003" class="node">
<title>Node3</title>
<g id="a_Node000003"><a xlink:href="GXStruct_8h.html" target="_top" xlink:title=" ">
<polygon fill="white" stroke="#666666" points="206.75,-185 96.25,-185 96.25,-165.75 206.75,-165.75 206.75,-185"/>
<text text-anchor="middle" x="151.5" y="-171.5" font-family="Helvetica,sans-Serif" font-size="10.00">dolphin/gx/GXStruct.h</text>
</a>
</g>
</g>
<!-- Node2&#45;&gt;Node3 -->
<g id="edge2_Node000002_Node000003" class="edge">
<title>Node2&#45;&gt;Node3</title>
<g id="a_edge2_Node000002_Node000003"><a xlink:title=" ">
<path fill="none" stroke="#63b8ff" d="M157.34,-220.83C156.48,-214.24 155.26,-204.96 154.16,-196.57"/>
<polygon fill="#63b8ff" stroke="#63b8ff" points="157.65,-196.32 152.88,-186.86 150.71,-197.23 157.65,-196.32"/>
</a>
</g>
</g>
<!-- Node4 -->
<g id="Node000004" class="node">
<title>Node4</title>
<g id="a_Node000004"><a xlink:href="global_8h.html" target="_top" xlink:title=" ">
<polygon fill="white" stroke="#666666" points="49,-129.75 0,-129.75 0,-110.5 49,-110.5 49,-129.75"/>
<text text-anchor="middle" x="24.5" y="-116.25" font-family="Helvetica,sans-Serif" font-size="10.00">global.h</text>
</a>
</g>
</g>
<!-- Node3&#45;&gt;Node4 -->
<g id="edge3_Node000003_Node000004" class="edge">
<title>Node3&#45;&gt;Node4</title>
<g id="a_edge3_Node000003_Node000004"><a xlink:title=" ">
<path fill="none" stroke="#63b8ff" d="M129.96,-165.34C109.89,-156.93 79.7,-144.27 56.75,-134.65"/>
<polygon fill="#63b8ff" stroke="#63b8ff" points="58.12,-131.43 47.55,-130.79 55.41,-137.88 58.12,-131.43"/>
</a>
</g>
</g>
<!-- Node7 -->
<g id="Node000007" class="node">
<title>Node7</title>
<g id="a_Node000007"><a xlink:href="GXEnum_8h.html" target="_top" xlink:title=" ">
<polygon fill="white" stroke="#666666" points="176,-129.75 67,-129.75 67,-110.5 176,-110.5 176,-129.75"/>
<text text-anchor="middle" x="121.5" y="-116.25" font-family="Helvetica,sans-Serif" font-size="10.00">dolphin/gx/GXEnum.h</text>
</a>
</g>
</g>
<!-- Node3&#45;&gt;Node7 -->
<g id="edge6_Node000003_Node000007" class="edge">
<title>Node3&#45;&gt;Node7</title>
<g id="a_edge6_Node000003_Node000007"><a xlink:title=" ">
<path fill="none" stroke="#63b8ff" d="M146.55,-165.58C142.62,-158.61 136.99,-148.62 132.06,-139.87"/>
<polygon fill="#63b8ff" stroke="#63b8ff" points="135.26,-138.42 127.3,-131.43 129.16,-141.86 135.26,-138.42"/>
</a>
</g>
</g>
<!-- Node8 -->
<g id="Node000008" class="node">
<title>Node8</title>
<g id="a_Node000008"><a xlink:href="vi_8h.html" target="_top" xlink:title=" ">
<polygon fill="white" stroke="#666666" points="258.88,-129.75 194.12,-129.75 194.12,-110.5 258.88,-110.5 258.88,-129.75"/>
<text text-anchor="middle" x="226.5" y="-116.25" font-family="Helvetica,sans-Serif" font-size="10.00">dolphin/vi.h</text>
</a>
</g>
</g>
<!-- Node3&#45;&gt;Node8 -->
<g id="edge8_Node000003_Node000008" class="edge">
<title>Node3&#45;&gt;Node8</title>
<g id="a_edge8_Node000003_Node000008"><a xlink:title=" ">
<path fill="none" stroke="#63b8ff" d="M164.22,-165.34C175.21,-157.54 191.34,-146.09 204.43,-136.79"/>
<polygon fill="#63b8ff" stroke="#63b8ff" points="206.35,-139.72 212.48,-131.08 202.3,-134.01 206.35,-139.72"/>
</a>
</g>
</g>
<!-- Node5 -->
<g id="Node000005" class="node">
<title>Node5</title>
<g id="a_Node000005"><a xlink:href="types_8h.html" target="_top" xlink:title=" ">
<polygon fill="white" stroke="#666666" points="213.75,-74.5 133.25,-74.5 133.25,-55.25 213.75,-55.25 213.75,-74.5"/>
<text text-anchor="middle" x="173.5" y="-61" font-family="Helvetica,sans-Serif" font-size="10.00">dolphin/types.h</text>
</a>
</g>
</g>
<!-- Node4&#45;&gt;Node5 -->
<g id="edge4_Node000004_Node000005" class="edge">
<title>Node4&#45;&gt;Node5</title>
<g id="a_edge4_Node000004_Node000005"><a xlink:title=" ">
<path fill="none" stroke="#63b8ff" d="M49.44,-110.21C73.47,-101.62 110.08,-88.54 137.32,-78.81"/>
<polygon fill="#63b8ff" stroke="#63b8ff" points="138.32,-82.17 146.55,-75.5 135.96,-75.57 138.32,-82.17"/>
</a>
</g>
</g>
<!-- Node6 -->
<g id="Node000006" class="node">
<title>Node6</title>
<g id="a_Node000006"><a xlink:href="stddef_8h.html" target="_top" xlink:title=" ">
<polygon fill="white" stroke="#666666" points="198.75,-19.25 148.25,-19.25 148.25,0 198.75,0 198.75,-19.25"/>
<text text-anchor="middle" x="173.5" y="-5.75" font-family="Helvetica,sans-Serif" font-size="10.00">stddef.h</text>
</a>
</g>
</g>
<!-- Node5&#45;&gt;Node6 -->
<g id="edge5_Node000005_Node000006" class="edge">
<title>Node5&#45;&gt;Node6</title>
<g id="a_edge5_Node000005_Node000006"><a xlink:title=" ">
<path fill="none" stroke="#63b8ff" d="M173.5,-55.08C173.5,-48.57 173.5,-39.42 173.5,-31.12"/>
<polygon fill="#63b8ff" stroke="#63b8ff" points="177,-31.12 173.5,-21.12 170,-31.12 177,-31.12"/>
</a>
</g>
</g>
<!-- Node7&#45;&gt;Node5 -->
<g id="edge7_Node000007_Node000005" class="edge">
<title>Node7&#45;&gt;Node5</title>
<g id="a_edge7_Node000007_Node000005"><a xlink:title=" ">
<path fill="none" stroke="#63b8ff" d="M130.09,-110.33C137.34,-102.9 147.95,-92.04 156.87,-82.91"/>
<polygon fill="#63b8ff" stroke="#63b8ff" points="159.19,-85.54 163.67,-75.94 154.18,-80.65 159.19,-85.54"/>
</a>
</g>
</g>
<!-- Node8&#45;&gt;Node5 -->
<g id="edge9_Node000008_Node000005" class="edge">
<title>Node8&#45;&gt;Node5</title>
<g id="a_edge9_Node000008_Node000005"><a xlink:title=" ">
<path fill="none" stroke="#63b8ff" d="M217.75,-110.33C210.35,-102.9 199.54,-92.04 190.45,-82.91"/>
<polygon fill="#63b8ff" stroke="#63b8ff" points="193.04,-80.55 183.51,-75.93 188.08,-85.49 193.04,-80.55"/>
</a>
</g>
</g>
<!-- Node9&#45;&gt;Node5 -->
<g id="edge11_Node000009_Node000005" class="edge">
<title>Node9&#45;&gt;Node5</title>
<g id="a_edge11_Node000009_Node000005"><a xlink:title=" ">
<path fill="none" stroke="#63b8ff" d="M273.53,-165.65C276.08,-152.47 278.84,-127.25 267.5,-110.5 257.45,-95.65 241.06,-85.61 224.76,-78.88"/>
<polygon fill="#63b8ff" stroke="#63b8ff" points="226.14,-75.66 215.55,-75.44 223.7,-82.22 226.14,-75.66"/>
</a>
</g>
</g>
</g>
</svg>
