<?xml version="1.0" encoding="UTF-8" standalone="no"?>
<!DOCTYPE svg PUBLIC "-//W3C//DTD SVG 1.1//EN"
 "http://www.w3.org/Graphics/SVG/1.1/DTD/svg11.dtd">
<!-- Generated by graphviz version 7.0.5 (20221223.1930)
 -->
<!-- Title: libs/JSystem/JUtility/JUTDbPrint.cpp Pages: 1 -->
<!--zoomable 445 -->
<svg id="main" version="1.1" xmlns="http://www.w3.org/2000/svg" xmlns:xlink="http://www.w3.org/1999/xlink" xml:space="preserve" onload="init(evt)">
<style type="text/css"><![CDATA[
.edge:hover path { stroke: red; }
.edge:hover polygon { stroke: red; fill: red; }
]]></style>
<script type="text/javascript"><![CDATA[
var edges = document.getElementsByTagName('g');
if (edges && edges.length) {
  for (var i=0;i<edges.length;i++) {
    if (edges[i].id.substr(0,4)=='edge') {
      edges[i].setAttribute('class','edge');
    }
  }
}
]]></script>
        <defs>
                <circle id="rim" cx="0" cy="0" r="7"/>
                <circle id="rim2" cx="0" cy="0" r="3.5"/>
                <g id="zoomPlus">
                        <use xlink:href="#rim" fill="#404040">
                                <set attributeName="fill" to="#808080" begin="zoomplus.mouseover" end="zoomplus.mouseout"/>
                        </use>
                        <path d="M-4,0h8M0,-4v8" fill="none" stroke="white" stroke-width="1.5" pointer-events="none"/>
                </g>
                <g id="zoomMin">
                        <use xlink:href="#rim" fill="#404040">
                                <set attributeName="fill" to="#808080" begin="zoomminus.mouseover" end="zoomminus.mouseout"/>
                        </use>
                        <path d="M-4,0h8" fill="none" stroke="white" stroke-width="1.5" pointer-events="none"/>
                </g>
                <g id="dirArrow">
                        <path fill="none" stroke="white" stroke-width="1.5" d="M0,-3.0v7 M-2.5,-0.5L0,-3.0L2.5,-0.5"/>
                </g>
               <g id="resetDef">
                       <use xlink:href="#rim2" fill="#404040">
                               <set attributeName="fill" to="#808080" begin="reset.mouseover" end="reset.mouseout"/>
                       </use>
               </g>
        </defs>

<script type="text/javascript">
var viewWidth = 1358;
var viewHeight = 445;
var sectionId = 'dynsection-0';
</script>
<script xlink:href="svgpan.js"/>
<svg id="graph" class="graph">
<g id="viewport">
<title>libs/JSystem/JUtility/JUTDbPrint.cpp</title>
<!-- Node1 -->
<g id="node1" class="node">
<title>Node1</title>
<g id="a_node1"><a xlink:title=" ">
<polygon fill="#999999" stroke="#666666" points="952,-437 846,-437 846,-407 952,-407 952,-437"/>
<text text-anchor="start" x="854" y="-425" font-family="Helvetica,sans-Serif" font-size="10.00">libs/JSystem/JUtility</text>
<text text-anchor="middle" x="899" y="-414" font-family="Helvetica,sans-Serif" font-size="10.00">/JUTDbPrint.cpp</text>
</a>
</g>
</g>
<!-- Node2 -->
<g id="node2" class="node">
<title>Node2</title>
<g id="a_node2"><a xlink:href="JUTDbPrint_8h.html" target="_top" xlink:title=" ">
<polygon fill="white" stroke="#666666" points="1116.5,-365.5 967.5,-365.5 967.5,-346.5 1116.5,-346.5 1116.5,-365.5"/>
<text text-anchor="middle" x="1042" y="-353.5" font-family="Helvetica,sans-Serif" font-size="10.00">JSystem/JUtility/JUTDbPrint.h</text>
</a>
</g>
</g>
<!-- Node1&#45;&gt;Node2 -->
<g id="edge1" class="edge">
<title>Node1&#45;&gt;Node2</title>
<path fill="none" stroke="#63b8ff" d="M931.09,-406.64C955.12,-395.88 987.78,-381.27 1011.43,-370.68"/>
<polygon fill="#63b8ff" stroke="#63b8ff" points="1012.84,-373.88 1020.54,-366.6 1009.98,-367.49 1012.84,-373.88"/>
</g>
<!-- Node11 -->
<g id="node11" class="node">
<title>Node11</title>
<g id="a_node11"><a xlink:href="J2DOrthoGraph_8h.html" target="_top" xlink:title=" ">
<polygon fill="white" stroke="#666666" points="544,-371 398,-371 398,-341 544,-341 544,-371"/>
<text text-anchor="start" x="406" y="-359" font-family="Helvetica,sans-Serif" font-size="10.00">JSystem/J2DGraph/J2DOrtho</text>
<text text-anchor="middle" x="471" y="-348" font-family="Helvetica,sans-Serif" font-size="10.00">Graph.h</text>
</a>
</g>
</g>
<!-- Node1&#45;&gt;Node11 -->
<g id="edge11" class="edge">
<title>Node1&#45;&gt;Node11</title>
<path fill="none" stroke="#63b8ff" d="M845.66,-413.02C772.96,-402.15 641.96,-382.56 555.73,-369.67"/>
<polygon fill="#63b8ff" stroke="#63b8ff" points="556.3,-366.22 545.9,-368.2 555.27,-373.14 556.3,-366.22"/>
</g>
<!-- Node21 -->
<g id="node21" class="node">
<title>Node21</title>
<g id="a_node21"><a xlink:href="JKRHeap_8h.html" target="_top" xlink:title=" ">
<polygon fill="white" stroke="#666666" points="795.5,-299.5 652.5,-299.5 652.5,-280.5 795.5,-280.5 795.5,-299.5"/>
<text text-anchor="middle" x="724" y="-287.5" font-family="Helvetica,sans-Serif" font-size="10.00">JSystem/JKernel/JKRHeap.h</text>
</a>
</g>
</g>
<!-- Node1&#45;&gt;Node21 -->
<g id="edge27" class="edge">
<title>Node1&#45;&gt;Node21</title>
<path fill="none" stroke="#63b8ff" d="M879.6,-406.59C846.4,-381.92 778.94,-331.81 744.79,-306.45"/>
<polygon fill="#63b8ff" stroke="#63b8ff" points="747.05,-303.76 736.94,-300.61 742.88,-309.38 747.05,-303.76"/>
</g>
<!-- Node27 -->
<g id="node27" class="node">
<title>Node27</title>
<g id="a_node27"><a xlink:href="JUTVideo_8h.html" target="_top" xlink:title=" ">
<polygon fill="white" stroke="#666666" points="970,-299.5 828,-299.5 828,-280.5 970,-280.5 970,-299.5"/>
<text text-anchor="middle" x="899" y="-287.5" font-family="Helvetica,sans-Serif" font-size="10.00">JSystem/JUtility/JUTVideo.h</text>
</a>
</g>
</g>
<!-- Node1&#45;&gt;Node27 -->
<g id="edge35" class="edge">
<title>Node1&#45;&gt;Node27</title>
<path fill="none" stroke="#63b8ff" d="M899,-406.59C899,-383.3 899,-337.32 899,-310.91"/>
<polygon fill="#63b8ff" stroke="#63b8ff" points="902.5,-311.22 899,-301.22 895.5,-311.22 902.5,-311.22"/>
</g>
<!-- Node31 -->
<g id="node31" class="node">
<title>Node31</title>
<g id="a_node31"><a xlink:href="stdio_8h.html" target="_top" xlink:title=" ">
<polygon fill="white" stroke="#666666" points="1207.5,-239 1162.5,-239 1162.5,-220 1207.5,-220 1207.5,-239"/>
<text text-anchor="middle" x="1185" y="-227" font-family="Helvetica,sans-Serif" font-size="10.00">stdio.h</text>
</a>
</g>
</g>
<!-- Node1&#45;&gt;Node31 -->
<g id="edge43" class="edge">
<title>Node1&#45;&gt;Node31</title>
<path fill="none" stroke="#63b8ff" d="M952.32,-414.96C1010.87,-407.37 1100.04,-392.64 1126,-371 1163.16,-340.02 1177.34,-281.6 1182.4,-250.76"/>
<polygon fill="#63b8ff" stroke="#63b8ff" points="1185.86,-251.29 1183.84,-240.89 1178.94,-250.28 1185.86,-251.29"/>
</g>
<!-- Node3 -->
<g id="node3" class="node">
<title>Node3</title>
<g id="a_node3"><a xlink:href="JUTFont_8h.html" target="_top" xlink:title=" ">
<polygon fill="white" stroke="#666666" points="1125.5,-299.5 988.5,-299.5 988.5,-280.5 1125.5,-280.5 1125.5,-299.5"/>
<text text-anchor="middle" x="1057" y="-287.5" font-family="Helvetica,sans-Serif" font-size="10.00">JSystem/JUtility/JUTFont.h</text>
</a>
</g>
</g>
<!-- Node2&#45;&gt;Node3 -->
<g id="edge2" class="edge">
<title>Node2&#45;&gt;Node3</title>
<path fill="none" stroke="#63b8ff" d="M1044.09,-346.1C1046.21,-337.03 1049.58,-322.64 1052.35,-310.85"/>
<polygon fill="#63b8ff" stroke="#63b8ff" points="1055.71,-311.83 1054.59,-301.3 1048.9,-310.23 1055.71,-311.83"/>
</g>
<!-- Node4 -->
<g id="node4" class="node">
<title>Node4</title>
<g id="a_node4"><a xlink:href="TColor_8h.html" target="_top" xlink:title=" ">
<polygon fill="white" stroke="#666666" points="649.5,-239 522.5,-239 522.5,-220 649.5,-220 649.5,-239"/>
<text text-anchor="middle" x="586" y="-227" font-family="Helvetica,sans-Serif" font-size="10.00">JSystem/JUtility/TColor.h</text>
</a>
</g>
</g>
<!-- Node3&#45;&gt;Node4 -->
<g id="edge3" class="edge">
<title>Node3&#45;&gt;Node4</title>
<path fill="none" stroke="#63b8ff" d="M1010.06,-280.06C999.84,-278.26 989.07,-276.47 979,-275 840.97,-254.87 803.1,-255.24 661.02,-239.22"/>
<polygon fill="#63b8ff" stroke="#63b8ff" points="661.53,-235.75 651.2,-238.1 660.74,-242.71 661.53,-235.75"/>
</g>
<!-- Node9 -->
<g id="node9" class="node">
<title>Node9</title>
<g id="a_node9"><a xlink:href="string_8h.html" target="_top" xlink:title=" ">
<polygon fill="white" stroke="#666666" points="1104,-239 1056,-239 1056,-220 1104,-220 1104,-239"/>
<text text-anchor="middle" x="1080" y="-227" font-family="Helvetica,sans-Serif" font-size="10.00">string.h</text>
</a>
</g>
</g>
<!-- Node3&#45;&gt;Node9 -->
<g id="edge8" class="edge">
<title>Node3&#45;&gt;Node9</title>
<path fill="none" stroke="#63b8ff" d="M1060.39,-280.37C1063.55,-272.33 1068.37,-260.07 1072.44,-249.72"/>
<polygon fill="#63b8ff" stroke="#63b8ff" points="1075.64,-251.16 1076.04,-240.58 1069.12,-248.6 1075.64,-251.16"/>
</g>
<!-- Node5 -->
<g id="node5" class="node">
<title>Node5</title>
<g id="a_node5"><a xlink:href="GXStruct_8h.html" target="_top" xlink:title=" ">
<polygon fill="white" stroke="#666666" points="644.5,-184 533.5,-184 533.5,-165 644.5,-165 644.5,-184"/>
<text text-anchor="middle" x="589" y="-172" font-family="Helvetica,sans-Serif" font-size="10.00">dolphin/gx/GXStruct.h</text>
</a>
</g>
</g>
<!-- Node4&#45;&gt;Node5 -->
<g id="edge4" class="edge">
<title>Node4&#45;&gt;Node5</title>
<path fill="none" stroke="#63b8ff" d="M586.5,-219.75C586.86,-213.27 587.38,-204.16 587.85,-195.9"/>
<polygon fill="#63b8ff" stroke="#63b8ff" points="591.34,-196.13 588.41,-185.95 584.35,-195.74 591.34,-196.13"/>
</g>
<!-- Node6 -->
<g id="node6" class="node">
<title>Node6</title>
<g id="a_node6"><a xlink:href="global_8h.html" target="_top" xlink:title=" ">
<polygon fill="white" stroke="#666666" points="599,-129 549,-129 549,-110 599,-110 599,-129"/>
<text text-anchor="middle" x="574" y="-117" font-family="Helvetica,sans-Serif" font-size="10.00">global.h</text>
</a>
</g>
</g>
<!-- Node5&#45;&gt;Node6 -->
<g id="edge5" class="edge">
<title>Node5&#45;&gt;Node6</title>
<path fill="none" stroke="#63b8ff" d="M586.52,-164.75C584.65,-158.11 581.99,-148.73 579.61,-140.31"/>
<polygon fill="#63b8ff" stroke="#63b8ff" points="583.03,-139.57 576.94,-130.9 576.3,-141.47 583.03,-139.57"/>
</g>
<!-- Node7 -->
<g id="node7" class="node">
<title>Node7</title>
<g id="a_node7"><a xlink:href="types_8h.html" target="_top" xlink:title=" ">
<polygon fill="white" stroke="#666666" points="614.5,-74 533.5,-74 533.5,-55 614.5,-55 614.5,-74"/>
<text text-anchor="middle" x="574" y="-62" font-family="Helvetica,sans-Serif" font-size="10.00">dolphin/types.h</text>
</a>
</g>
</g>
<!-- Node6&#45;&gt;Node7 -->
<g id="edge6" class="edge">
<title>Node6&#45;&gt;Node7</title>
<path fill="none" stroke="#63b8ff" d="M574,-109.75C574,-103.27 574,-94.16 574,-85.9"/>
<polygon fill="#63b8ff" stroke="#63b8ff" points="577.5,-85.96 574,-75.96 570.5,-85.96 577.5,-85.96"/>
</g>
<!-- Node8 -->
<g id="node8" class="node">
<title>Node8</title>
<g id="a_node8"><a xlink:href="stddef_8h.html" target="_top" xlink:title=" ">
<polygon fill="white" stroke="#666666" points="1091.5,-19 1040.5,-19 1040.5,0 1091.5,0 1091.5,-19"/>
<text text-anchor="middle" x="1066" y="-7" font-family="Helvetica,sans-Serif" font-size="10.00">stddef.h</text>
</a>
</g>
</g>
<!-- Node7&#45;&gt;Node8 -->
<g id="edge7" class="edge">
<title>Node7&#45;&gt;Node8</title>
<path fill="none" stroke="#63b8ff" d="M614.68,-59.12C708.43,-49.02 938.55,-24.23 1028.81,-14.51"/>
<polygon fill="#63b8ff" stroke="#63b8ff" points="1029.02,-18 1038.59,-13.45 1028.27,-11.04 1029.02,-18"/>
</g>
<!-- Node9&#45;&gt;Node8 -->
<g id="edge9" class="edge">
<title>Node9&#45;&gt;Node8</title>
<path fill="none" stroke="#63b8ff" d="M1079.43,-219.68C1077.37,-187.57 1070.23,-76.33 1067.28,-30.49"/>
<polygon fill="#63b8ff" stroke="#63b8ff" points="1070.79,-30.45 1066.65,-20.7 1063.8,-30.9 1070.79,-30.45"/>
</g>
<!-- Node10 -->
<g id="node10" class="node">
<title>Node10</title>
<g id="a_node10"><a xlink:href="extras_8h.html" target="_top" xlink:title=" ">
<polygon fill="white" stroke="#666666" points="1144,-184 1094,-184 1094,-165 1144,-165 1144,-184"/>
<text text-anchor="middle" x="1119" y="-172" font-family="Helvetica,sans-Serif" font-size="10.00">extras.h</text>
</a>
</g>
</g>
<!-- Node9&#45;&gt;Node10 -->
<g id="edge10" class="edge">
<title>Node9&#45;&gt;Node10</title>
<path fill="none" stroke="#63b8ff" d="M1086.44,-219.75C1091.66,-212.66 1099.19,-202.42 1105.69,-193.59"/>
<polygon fill="#63b8ff" stroke="#63b8ff" points="1108.42,-195.79 1111.52,-185.66 1102.78,-191.64 1108.42,-195.79"/>
</g>
<!-- Node12 -->
<g id="node12" class="node">
<title>Node12</title>
<g id="a_node12"><a xlink:href="J2DGrafContext_8h.html" target="_top" xlink:title=" ">
<polygon fill="white" stroke="#666666" points="388,-305 248,-305 248,-275 388,-275 388,-305"/>
<text text-anchor="start" x="256" y="-293" font-family="Helvetica,sans-Serif" font-size="10.00">JSystem/J2DGraph/J2DGraf</text>
<text text-anchor="middle" x="318" y="-282" font-family="Helvetica,sans-Serif" font-size="10.00">Context.h</text>
</a>
</g>
</g>
<!-- Node11&#45;&gt;Node12 -->
<g id="edge12" class="edge">
<title>Node11&#45;&gt;Node12</title>
<path fill="none" stroke="#63b8ff" d="M436.66,-340.64C414.89,-331.53 386.49,-319.65 362.93,-309.79"/>
<polygon fill="#63b8ff" stroke="#63b8ff" points="364.46,-306.64 353.88,-306.01 361.76,-313.1 364.46,-306.64"/>
</g>
<!-- Node12&#45;&gt;Node4 -->
<g id="edge19" class="edge">
<title>Node12&#45;&gt;Node4</title>
<path fill="none" stroke="#63b8ff" d="M384.25,-274.54C430.49,-264.44 491.34,-251.16 534.08,-241.83"/>
<polygon fill="#63b8ff" stroke="#63b8ff" points="534.58,-245.31 543.6,-239.75 533.09,-238.47 534.58,-245.31"/>
</g>
<!-- Node12&#45;&gt;Node7 -->
<g id="edge26" class="edge">
<title>Node12&#45;&gt;Node7</title>
<path fill="none" stroke="#63b8ff" d="M319.29,-274.66C322.34,-249.16 332.22,-195.75 363,-165 408.89,-119.15 479.95,-91.73 526.72,-77.62"/>
<polygon fill="#63b8ff" stroke="#63b8ff" points="527.4,-81.06 536.02,-74.9 525.44,-74.35 527.4,-81.06"/>
</g>
<!-- Node13 -->
<g id="node13" class="node">
<title>Node13</title>
<g id="a_node13"><a xlink:href="JGeometry_8h.html" target="_top" xlink:title=" ">
<polygon fill="white" stroke="#666666" points="148.5,-239 35.5,-239 35.5,-220 148.5,-220 148.5,-239"/>
<text text-anchor="middle" x="92" y="-227" font-family="Helvetica,sans-Serif" font-size="10.00">JSystem/JGeometry.h</text>
</a>
</g>
</g>
<!-- Node12&#45;&gt;Node13 -->
<g id="edge13" class="edge">
<title>Node12&#45;&gt;Node13</title>
<path fill="none" stroke="#63b8ff" d="M262.13,-274.54C223.8,-264.62 173.56,-251.61 137.64,-242.31"/>
<polygon fill="#63b8ff" stroke="#63b8ff" points="138.53,-238.93 127.97,-239.81 136.78,-245.71 138.53,-238.93"/>
</g>
<!-- Node18 -->
<g id="node18" class="node">
<title>Node18</title>
<g id="a_node18"><a xlink:href="mtx_8h.html" target="_top" xlink:title=" ">
<polygon fill="white" stroke="#666666" points="290,-239 198,-239 198,-220 290,-220 290,-239"/>
<text text-anchor="middle" x="244" y="-227" font-family="Helvetica,sans-Serif" font-size="10.00">dolphin/mtx/mtx.h</text>
</a>
</g>
</g>
<!-- Node12&#45;&gt;Node18 -->
<g id="edge20" class="edge">
<title>Node12&#45;&gt;Node18</title>
<path fill="none" stroke="#63b8ff" d="M299.71,-274.54C288.85,-265.96 275.08,-255.07 263.94,-246.26"/>
<polygon fill="#63b8ff" stroke="#63b8ff" points="266.18,-243.57 256.16,-240.11 261.84,-249.06 266.18,-243.57"/>
</g>
<!-- Node14 -->
<g id="node14" class="node">
<title>Node14</title>
<g id="a_node14"><a xlink:href="vec_8h.html" target="_top" xlink:title=" ">
<polygon fill="white" stroke="#666666" points="156,-129 64,-129 64,-110 156,-110 156,-129"/>
<text text-anchor="middle" x="110" y="-117" font-family="Helvetica,sans-Serif" font-size="10.00">dolphin/mtx/vec.h</text>
</a>
</g>
</g>
<!-- Node13&#45;&gt;Node14 -->
<g id="edge14" class="edge">
<title>Node13&#45;&gt;Node14</title>
<path fill="none" stroke="#63b8ff" d="M93.47,-219.66C96.33,-202.5 102.71,-164.26 106.65,-140.6"/>
<polygon fill="#63b8ff" stroke="#63b8ff" points="110.07,-141.39 108.26,-130.95 103.16,-140.24 110.07,-141.39"/>
</g>
<!-- Node15 -->
<g id="node15" class="node">
<title>Node15</title>
<g id="a_node15"><a xlink:href="math_8h.html" target="_top" xlink:title=" ">
<polygon fill="white" stroke="#666666" points="58,-184 12,-184 12,-165 58,-165 58,-184"/>
<text text-anchor="middle" x="35" y="-172" font-family="Helvetica,sans-Serif" font-size="10.00">math.h</text>
</a>
</g>
</g>
<!-- Node13&#45;&gt;Node15 -->
<g id="edge16" class="edge">
<title>Node13&#45;&gt;Node15</title>
<path fill="none" stroke="#63b8ff" d="M82.33,-219.51C74.26,-212 62.53,-201.1 52.78,-192.03"/>
<polygon fill="#63b8ff" stroke="#63b8ff" points="55.34,-189.63 45.63,-185.39 50.57,-194.76 55.34,-189.63"/>
</g>
<!-- Node14&#45;&gt;Node7 -->
<g id="edge15" class="edge">
<title>Node14&#45;&gt;Node7</title>
<path fill="none" stroke="#63b8ff" d="M156.49,-111.16C159.37,-110.76 162.22,-110.37 165,-110 292.81,-93.18 443.7,-77.96 521.59,-70.44"/>
<polygon fill="#63b8ff" stroke="#63b8ff" points="521.87,-73.93 531.49,-69.49 521.2,-66.96 521.87,-73.93"/>
</g>
<!-- Node16 -->
<g id="node16" class="node">
<title>Node16</title>
<g id="a_node16"><a xlink:href="float_8h.html" target="_top" xlink:title=" ">
<polygon fill="white" stroke="#666666" points="46,-129 4,-129 4,-110 46,-110 46,-129"/>
<text text-anchor="middle" x="25" y="-117" font-family="Helvetica,sans-Serif" font-size="10.00">float.h</text>
</a>
</g>
</g>
<!-- Node15&#45;&gt;Node16 -->
<g id="edge17" class="edge">
<title>Node15&#45;&gt;Node16</title>
<path fill="none" stroke="#63b8ff" d="M33.35,-164.75C32.11,-158.19 30.37,-148.95 28.79,-140.6"/>
<polygon fill="#63b8ff" stroke="#63b8ff" points="32.26,-140.11 26.97,-130.93 25.38,-141.4 32.26,-140.11"/>
</g>
<!-- Node17 -->
<g id="node17" class="node">
<title>Node17</title>
<g id="a_node17"><a xlink:href="fdlibm_8h.html" target="_top" xlink:title=" ">
<polygon fill="white" stroke="#666666" points="50,-74 0,-74 0,-55 50,-55 50,-74"/>
<text text-anchor="middle" x="25" y="-62" font-family="Helvetica,sans-Serif" font-size="10.00">fdlibm.h</text>
</a>
</g>
</g>
<!-- Node16&#45;&gt;Node17 -->
<g id="edge18" class="edge">
<title>Node16&#45;&gt;Node17</title>
<path fill="none" stroke="#63b8ff" d="M25,-109.75C25,-103.27 25,-94.16 25,-85.9"/>
<polygon fill="#63b8ff" stroke="#63b8ff" points="28.5,-85.96 25,-75.96 21.5,-85.96 28.5,-85.96"/>
</g>
<!-- Node18&#45;&gt;Node7 -->
<g id="edge25" class="edge">
<title>Node18&#45;&gt;Node7</title>
<path fill="none" stroke="#63b8ff" d="M247.63,-219.57C257.28,-197.05 285.9,-137.76 330,-110 361.31,-90.3 460.49,-77 522.34,-70.38"/>
<polygon fill="#63b8ff" stroke="#63b8ff" points="522.35,-73.9 531.93,-69.38 521.62,-66.94 522.35,-73.9"/>
</g>
<!-- Node19 -->
<g id="node19" class="node">
<title>Node19</title>
<g id="a_node19"><a xlink:href="mtx44_8h.html" target="_top" xlink:title=" ">
<polygon fill="white" stroke="#666666" points="277.5,-129 174.5,-129 174.5,-110 277.5,-110 277.5,-129"/>
<text text-anchor="middle" x="226" y="-117" font-family="Helvetica,sans-Serif" font-size="10.00">dolphin/mtx/mtx44.h</text>
</a>
</g>
</g>
<!-- Node18&#45;&gt;Node19 -->
<g id="edge21" class="edge">
<title>Node18&#45;&gt;Node19</title>
<path fill="none" stroke="#63b8ff" d="M242.53,-219.66C239.67,-202.5 233.29,-164.26 229.35,-140.6"/>
<polygon fill="#63b8ff" stroke="#63b8ff" points="232.84,-140.24 227.74,-130.95 225.93,-141.39 232.84,-140.24"/>
</g>
<!-- Node20 -->
<g id="node20" class="node">
<title>Node20</title>
<g id="a_node20"><a xlink:href="quat_8h.html" target="_top" xlink:title=" ">
<polygon fill="white" stroke="#666666" points="215.5,-184 120.5,-184 120.5,-165 215.5,-165 215.5,-184"/>
<text text-anchor="middle" x="168" y="-172" font-family="Helvetica,sans-Serif" font-size="10.00">dolphin/mtx/quat.h</text>
</a>
</g>
</g>
<!-- Node18&#45;&gt;Node20 -->
<g id="edge23" class="edge">
<title>Node18&#45;&gt;Node20</title>
<path fill="none" stroke="#63b8ff" d="M231.11,-219.51C219.9,-211.7 203.43,-200.21 190.12,-190.93"/>
<polygon fill="#63b8ff" stroke="#63b8ff" points="192.15,-188.07 181.94,-185.22 188.14,-193.81 192.15,-188.07"/>
</g>
<!-- Node19&#45;&gt;Node7 -->
<g id="edge22" class="edge">
<title>Node19&#45;&gt;Node7</title>
<path fill="none" stroke="#63b8ff" d="M277.72,-110.62C343.36,-100.63 455.95,-83.48 521.81,-73.45"/>
<polygon fill="#63b8ff" stroke="#63b8ff" points="522.3,-76.92 531.65,-71.95 521.24,-69.99 522.3,-76.92"/>
</g>
<!-- Node20&#45;&gt;Node14 -->
<g id="edge24" class="edge">
<title>Node20&#45;&gt;Node14</title>
<path fill="none" stroke="#63b8ff" d="M158.16,-164.51C149.95,-157 138.02,-146.1 128.09,-137.03"/>
<polygon fill="#63b8ff" stroke="#63b8ff" points="130.55,-134.54 120.81,-130.38 125.83,-139.71 130.55,-134.54"/>
</g>
<!-- Node22 -->
<g id="node22" class="node">
<title>Node22</title>
<g id="a_node22"><a xlink:href="JKRDisposer_8h.html" target="_top" xlink:title=" ">
<polygon fill="white" stroke="#666666" points="504,-239 346,-239 346,-220 504,-220 504,-239"/>
<text text-anchor="middle" x="425" y="-227" font-family="Helvetica,sans-Serif" font-size="10.00">JSystem/JKernel/JKRDisposer.h</text>
</a>
</g>
</g>
<!-- Node21&#45;&gt;Node22 -->
<g id="edge28" class="edge">
<title>Node21&#45;&gt;Node22</title>
<path fill="none" stroke="#63b8ff" d="M678.26,-280.05C625.5,-269.73 538.73,-252.75 481.72,-241.6"/>
<polygon fill="#63b8ff" stroke="#63b8ff" points="482.7,-238.22 472.22,-239.74 481.36,-245.09 482.7,-238.22"/>
</g>
<!-- Node24 -->
<g id="node24" class="node">
<title>Node24</title>
<g id="a_node24"><a xlink:href="OSMutex_8h.html" target="_top" xlink:title=" ">
<polygon fill="white" stroke="#666666" points="780,-239 668,-239 668,-220 780,-220 780,-239"/>
<text text-anchor="middle" x="724" y="-227" font-family="Helvetica,sans-Serif" font-size="10.00">dolphin/os/OSMutex.h</text>
</a>
</g>
</g>
<!-- Node21&#45;&gt;Node24 -->
<g id="edge31" class="edge">
<title>Node21&#45;&gt;Node24</title>
<path fill="none" stroke="#63b8ff" d="M724,-280.37C724,-272.5 724,-260.6 724,-250.39"/>
<polygon fill="#63b8ff" stroke="#63b8ff" points="727.5,-250.68 724,-240.68 720.5,-250.68 727.5,-250.68"/>
</g>
<!-- Node23 -->
<g id="node23" class="node">
<title>Node23</title>
<g id="a_node23"><a xlink:href="JSUList_8h.html" target="_top" xlink:title=" ">
<polygon fill="white" stroke="#666666" points="515.5,-184 372.5,-184 372.5,-165 515.5,-165 515.5,-184"/>
<text text-anchor="middle" x="444" y="-172" font-family="Helvetica,sans-Serif" font-size="10.00">JSystem/JSupport/JSUList.h</text>
</a>
</g>
</g>
<!-- Node22&#45;&gt;Node23 -->
<g id="edge29" class="edge">
<title>Node22&#45;&gt;Node23</title>
<path fill="none" stroke="#63b8ff" d="M428.14,-219.75C430.54,-213.04 433.96,-203.52 437,-195.02"/>
<polygon fill="#63b8ff" stroke="#63b8ff" points="440.2,-196.46 440.28,-185.87 433.61,-194.1 440.2,-196.46"/>
</g>
<!-- Node23&#45;&gt;Node7 -->
<g id="edge30" class="edge">
<title>Node23&#45;&gt;Node7</title>
<path fill="none" stroke="#63b8ff" d="M454.64,-164.66C476.44,-146.55 526.5,-104.96 554.37,-81.81"/>
<polygon fill="#63b8ff" stroke="#63b8ff" points="556.6,-84.51 562.05,-75.43 552.12,-79.13 556.6,-84.51"/>
</g>
<!-- Node25 -->
<g id="node25" class="node">
<title>Node25</title>
<g id="a_node25"><a xlink:href="OSThread_8h.html" target="_top" xlink:title=" ">
<polygon fill="white" stroke="#666666" points="782,-184 666,-184 666,-165 782,-165 782,-184"/>
<text text-anchor="middle" x="724" y="-172" font-family="Helvetica,sans-Serif" font-size="10.00">dolphin/os/OSThread.h</text>
</a>
</g>
</g>
<!-- Node24&#45;&gt;Node25 -->
<g id="edge32" class="edge">
<title>Node24&#45;&gt;Node25</title>
<path fill="none" stroke="#63b8ff" d="M724,-219.75C724,-213.27 724,-204.16 724,-195.9"/>
<polygon fill="#63b8ff" stroke="#63b8ff" points="727.5,-195.96 724,-185.96 720.5,-195.96 727.5,-195.96"/>
</g>
<!-- Node26 -->
<g id="node26" class="node">
<title>Node26</title>
<g id="a_node26"><a xlink:href="OSContext_8h.html" target="_top" xlink:title=" ">
<polygon fill="white" stroke="#666666" points="736.5,-129 617.5,-129 617.5,-110 736.5,-110 736.5,-129"/>
<text text-anchor="middle" x="677" y="-117" font-family="Helvetica,sans-Serif" font-size="10.00">dolphin/os/OSContext.h</text>
</a>
</g>
</g>
<!-- Node25&#45;&gt;Node26 -->
<g id="edge33" class="edge">
<title>Node25&#45;&gt;Node26</title>
<path fill="none" stroke="#63b8ff" d="M716.24,-164.75C709.81,-157.5 700.49,-146.98 692.54,-138.02"/>
<polygon fill="#63b8ff" stroke="#63b8ff" points="695.19,-135.73 685.93,-130.57 689.95,-140.38 695.19,-135.73"/>
</g>
<!-- Node26&#45;&gt;Node7 -->
<g id="edge34" class="edge">
<title>Node26&#45;&gt;Node7</title>
<path fill="none" stroke="#63b8ff" d="M659.53,-109.51C643.6,-101.31 619.81,-89.07 601.36,-79.58"/>
<polygon fill="#63b8ff" stroke="#63b8ff" points="603.05,-76.51 592.56,-75.05 599.85,-82.74 603.05,-76.51"/>
</g>
<!-- Node27&#45;&gt;Node5 -->
<g id="edge36" class="edge">
<title>Node27&#45;&gt;Node5</title>
<path fill="none" stroke="#63b8ff" d="M887.83,-280.15C868.72,-265.45 828,-236.01 789,-220 746.38,-202.5 695.69,-191.32 656.01,-184.54"/>
<polygon fill="#63b8ff" stroke="#63b8ff" points="656.79,-181.12 646.35,-182.95 655.65,-188.03 656.79,-181.12"/>
</g>
<!-- Node28 -->
<g id="node28" class="node">
<title>Node28</title>
<g id="a_node28"><a xlink:href="OSMessage_8h.html" target="_top" xlink:title=" ">
<polygon fill="white" stroke="#666666" points="961.5,-239 836.5,-239 836.5,-220 961.5,-220 961.5,-239"/>
<text text-anchor="middle" x="899" y="-227" font-family="Helvetica,sans-Serif" font-size="10.00">dolphin/os/OSMessage.h</text>
</a>
</g>
</g>
<!-- Node27&#45;&gt;Node28 -->
<g id="edge37" class="edge">
<title>Node27&#45;&gt;Node28</title>
<path fill="none" stroke="#63b8ff" d="M899,-280.37C899,-272.5 899,-260.6 899,-250.39"/>
<polygon fill="#63b8ff" stroke="#63b8ff" points="902.5,-250.68 899,-240.68 895.5,-250.68 902.5,-250.68"/>
</g>
<!-- Node29 -->
<g id="node29" class="node">
<title>Node29</title>
<g id="a_node29"><a xlink:href="OSTime_8h.html" target="_top" xlink:title=" ">
<polygon fill="white" stroke="#666666" points="861.5,-129 754.5,-129 754.5,-110 861.5,-110 861.5,-129"/>
<text text-anchor="middle" x="808" y="-117" font-family="Helvetica,sans-Serif" font-size="10.00">dolphin/os/OSTime.h</text>
</a>
</g>
</g>
<!-- Node27&#45;&gt;Node29 -->
<g id="edge39" class="edge">
<title>Node27&#45;&gt;Node29</title>
<path fill="none" stroke="#63b8ff" d="M921.42,-280.18C947.62,-268.45 985.66,-246.12 971,-220 945.47,-174.51 889.75,-147.35 850.59,-133.17"/>
<polygon fill="#63b8ff" stroke="#63b8ff" points="851.8,-129.89 841.21,-129.93 849.52,-136.5 851.8,-129.89"/>
</g>
<!-- Node30 -->
<g id="node30" class="node">
<title>Node30</title>
<g id="a_node30"><a xlink:href="vi_8h.html" target="_top" xlink:title=" ">
<polygon fill="white" stroke="#666666" points="956,-129 880,-129 880,-110 956,-110 956,-129"/>
<text text-anchor="middle" x="918" y="-117" font-family="Helvetica,sans-Serif" font-size="10.00">dolphin/vi/vi.h</text>
</a>
</g>
</g>
<!-- Node27&#45;&gt;Node30 -->
<g id="edge41" class="edge">
<title>Node27&#45;&gt;Node30</title>
<path fill="none" stroke="#63b8ff" d="M942.22,-280.06C964.77,-272.96 990.42,-260.51 1004,-239 1021.56,-211.19 1021.1,-193.1 1004,-165 995.12,-150.41 979.76,-140.4 964.44,-133.62"/>
<polygon fill="#63b8ff" stroke="#63b8ff" points="965.92,-130.44 955.34,-129.99 963.33,-136.94 965.92,-130.44"/>
</g>
<!-- Node28&#45;&gt;Node25 -->
<g id="edge38" class="edge">
<title>Node28&#45;&gt;Node25</title>
<path fill="none" stroke="#63b8ff" d="M869.31,-219.51C840.44,-210.76 796.36,-197.42 764.33,-187.71"/>
<polygon fill="#63b8ff" stroke="#63b8ff" points="765.57,-184.43 754.99,-184.88 763.54,-191.13 765.57,-184.43"/>
</g>
<!-- Node29&#45;&gt;Node7 -->
<g id="edge40" class="edge">
<title>Node29&#45;&gt;Node7</title>
<path fill="none" stroke="#63b8ff" d="M768.31,-109.51C728.69,-100.54 667.66,-86.71 624.59,-76.96"/>
<polygon fill="#63b8ff" stroke="#63b8ff" points="625.5,-73.58 614.97,-74.78 623.95,-80.4 625.5,-73.58"/>
</g>
<!-- Node30&#45;&gt;Node7 -->
<g id="edge42" class="edge">
<title>Node30&#45;&gt;Node7</title>
<path fill="none" stroke="#63b8ff" d="M879.54,-111.45C876.65,-110.95 873.78,-110.46 871,-110 785.4,-95.85 685.59,-81.29 626.22,-72.84"/>
<polygon fill="#63b8ff" stroke="#63b8ff" points="626.79,-69.38 616.4,-71.44 625.8,-76.31 626.79,-69.38"/>
</g>
<!-- Node31&#45;&gt;Node10 -->
<g id="edge53" class="edge">
<title>Node31&#45;&gt;Node10</title>
<path fill="none" stroke="#63b8ff" d="M1173.8,-219.51C1164.26,-211.85 1150.33,-200.66 1138.89,-191.47"/>
<polygon fill="#63b8ff" stroke="#63b8ff" points="1141.2,-188.84 1131.21,-185.31 1136.82,-194.3 1141.2,-188.84"/>
</g>
<!-- Node32 -->
<g id="node32" class="node">
<title>Node32</title>
<g id="a_node32"><a xlink:href="char__io_8h.html" target="_top" xlink:title=" ">
<polygon fill="white" stroke="#666666" points="1282,-184 1226,-184 1226,-165 1282,-165 1282,-184"/>
<text text-anchor="middle" x="1254" y="-172" font-family="Helvetica,sans-Serif" font-size="10.00">char_io.h</text>
</a>
</g>
</g>
<!-- Node31&#45;&gt;Node32 -->
<g id="edge44" class="edge">
<title>Node31&#45;&gt;Node32</title>
<path fill="none" stroke="#63b8ff" d="M1196.7,-219.51C1206.78,-211.77 1221.54,-200.43 1233.56,-191.2"/>
<polygon fill="#63b8ff" stroke="#63b8ff" points="1235.47,-194.15 1241.27,-185.28 1231.21,-188.6 1235.47,-194.15"/>
</g>
<!-- Node34 -->
<g id="node34" class="node">
<title>Node34</title>
<g id="a_node34"><a xlink:href="file__io_8h.html" target="_top" xlink:title=" ">
<polygon fill="white" stroke="#666666" points="1349.5,-184 1300.5,-184 1300.5,-165 1349.5,-165 1349.5,-184"/>
<text text-anchor="middle" x="1325" y="-172" font-family="Helvetica,sans-Serif" font-size="10.00">file_io.h</text>
</a>
</g>
</g>
<!-- Node31&#45;&gt;Node34 -->
<g id="edge47" class="edge">
<title>Node31&#45;&gt;Node34</title>
<path fill="none" stroke="#63b8ff" d="M1207.81,-219.87C1230.31,-211.35 1265.01,-198.21 1290.81,-188.44"/>
<polygon fill="#63b8ff" stroke="#63b8ff" points="1291.74,-191.83 1299.85,-185.02 1289.26,-185.29 1291.74,-191.83"/>
</g>
<!-- Node35 -->
<g id="node35" class="node">
<title>Node35</title>
<g id="a_node35"><a xlink:href="printf_8h.html" target="_top" xlink:title=" ">
<polygon fill="white" stroke="#666666" points="1208,-184 1162,-184 1162,-165 1208,-165 1208,-184"/>
<text text-anchor="middle" x="1185" y="-172" font-family="Helvetica,sans-Serif" font-size="10.00">printf.h</text>
</a>
</g>
</g>
<!-- Node31&#45;&gt;Node35 -->
<g id="edge49" class="edge">
<title>Node31&#45;&gt;Node35</title>
<path fill="none" stroke="#63b8ff" d="M1185,-219.75C1185,-213.27 1185,-204.16 1185,-195.9"/>
<polygon fill="#63b8ff" stroke="#63b8ff" points="1188.5,-195.96 1185,-185.96 1181.5,-195.96 1188.5,-195.96"/>
</g>
<!-- Node33 -->
<g id="node33" class="node">
<title>Node33</title>
<g id="a_node33"><a xlink:href="ansi__files_8h.html" target="_top" xlink:title=" ">
<polygon fill="white" stroke="#666666" points="1251.5,-129 1186.5,-129 1186.5,-110 1251.5,-110 1251.5,-129"/>
<text text-anchor="middle" x="1219" y="-117" font-family="Helvetica,sans-Serif" font-size="10.00">ansi_files.h</text>
</a>
</g>
</g>
<!-- Node32&#45;&gt;Node33 -->
<g id="edge45" class="edge">
<title>Node32&#45;&gt;Node33</title>
<path fill="none" stroke="#63b8ff" d="M1248.22,-164.75C1243.59,-157.73 1236.93,-147.64 1231.13,-138.87"/>
<polygon fill="#63b8ff" stroke="#63b8ff" points="1234.17,-137.12 1225.74,-130.71 1228.33,-140.98 1234.17,-137.12"/>
</g>
<!-- Node33&#45;&gt;Node8 -->
<g id="edge46" class="edge">
<title>Node33&#45;&gt;Node8</title>
<path fill="none" stroke="#63b8ff" d="M1206.48,-109.66C1180.48,-91.31 1120.35,-48.87 1087.83,-25.91"/>
<polygon fill="#63b8ff" stroke="#63b8ff" points="1090.12,-23.24 1079.93,-20.33 1086.08,-28.96 1090.12,-23.24"/>
</g>
<!-- Node34&#45;&gt;Node33 -->
<g id="edge48" class="edge">
<title>Node34&#45;&gt;Node33</title>
<path fill="none" stroke="#63b8ff" d="M1307.02,-164.51C1290.55,-156.27 1265.91,-143.96 1246.89,-134.45"/>
<polygon fill="#63b8ff" stroke="#63b8ff" points="1248.58,-131.38 1238.07,-130.03 1245.45,-137.64 1248.58,-131.38"/>
</g>
<!-- Node35&#45;&gt;Node33 -->
<g id="edge50" class="edge">
<title>Node35&#45;&gt;Node33</title>
<path fill="none" stroke="#63b8ff" d="M1190.61,-164.75C1195.12,-157.73 1201.59,-147.64 1207.21,-138.87"/>
<polygon fill="#63b8ff" stroke="#63b8ff" points="1209.99,-141.02 1212.45,-130.72 1204.1,-137.24 1209.99,-141.02"/>
</g>
<!-- Node36 -->
<g id="node36" class="node">
<title>Node36</title>
<g id="a_node36"><a xlink:href="____va__arg_8h.html" target="_top" xlink:title=" ">
<polygon fill="white" stroke="#666666" points="1038,-129 974,-129 974,-110 1038,-110 1038,-129"/>
<text text-anchor="middle" x="1006" y="-117" font-family="Helvetica,sans-Serif" font-size="10.00">__va_arg.h</text>
</a>
</g>
</g>
<!-- Node35&#45;&gt;Node36 -->
<g id="edge51" class="edge">
<title>Node35&#45;&gt;Node36</title>
<path fill="none" stroke="#63b8ff" d="M1161.6,-166.57C1132.61,-157.99 1082.72,-143.22 1047.25,-132.71"/>
<polygon fill="#63b8ff" stroke="#63b8ff" points="1048.32,-129.38 1037.74,-129.9 1046.33,-136.09 1048.32,-129.38"/>
</g>
<!-- Node36&#45;&gt;Node7 -->
<g id="edge52" class="edge">
<title>Node36&#45;&gt;Node7</title>
<path fill="none" stroke="#63b8ff" d="M973.82,-111.54C970.85,-110.98 967.87,-110.46 965,-110 844.21,-90.65 701.1,-76.6 625.99,-69.9"/>
<polygon fill="#63b8ff" stroke="#63b8ff" points="626.75,-66.45 616.48,-69.06 626.14,-73.42 626.75,-66.45"/>
</g>
</g>
</svg>
        <g id="navigator" transform="translate(0 0)" fill="#404254">
                <rect fill="#f2f5e9" fill-opacity="0.5" stroke="#606060" stroke-width=".5" x="0" y="0" width="60" height="60"/>
                <use id="zoomplus" xlink:href="#zoomPlus" x="17" y="9" onmousedown="handleZoom(evt,'in')"/>
                <use id="zoomminus" xlink:href="#zoomMin" x="42" y="9" onmousedown="handleZoom(evt,'out')"/>
                <use id="reset" xlink:href="#resetDef" x="30" y="36" onmousedown="handleReset()"/>
                <g id="arrowUp" xlink:href="#dirArrow" transform="translate(30 24)" onmousedown="handlePan(0,-1)">
                  <use xlink:href="#rim" fill="#404040">
                        <set attributeName="fill" to="#808080" begin="arrowUp.mouseover" end="arrowUp.mouseout"/>
                  </use>
                  <path fill="none" stroke="white" stroke-width="1.5" d="M0,-3.0v7 M-2.5,-0.5L0,-3.0L2.5,-0.5"/>
                </g>
                <g id="arrowRight" xlink:href="#dirArrow" transform="rotate(90) translate(36 -43)" onmousedown="handlePan(1,0)">
                  <use xlink:href="#rim" fill="#404040">
                        <set attributeName="fill" to="#808080" begin="arrowRight.mouseover" end="arrowRight.mouseout"/>
                  </use>
                  <path fill="none" stroke="white" stroke-width="1.5" d="M0,-3.0v7 M-2.5,-0.5L0,-3.0L2.5,-0.5"/>
                </g>
                <g id="arrowDown" xlink:href="#dirArrow" transform="rotate(180) translate(-30 -48)" onmousedown="handlePan(0,1)">
                  <use xlink:href="#rim" fill="#404040">
                        <set attributeName="fill" to="#808080" begin="arrowDown.mouseover" end="arrowDown.mouseout"/>
                  </use>
                  <path fill="none" stroke="white" stroke-width="1.5" d="M0,-3.0v7 M-2.5,-0.5L0,-3.0L2.5,-0.5"/>
                </g>
                <g id="arrowLeft" xlink:href="#dirArrow" transform="rotate(270) translate(-36 17)" onmousedown="handlePan(-1,0)">
                  <use xlink:href="#rim" fill="#404040">
                        <set attributeName="fill" to="#808080" begin="arrowLeft.mouseover" end="arrowLeft.mouseout"/>
                  </use>
                  <path fill="none" stroke="white" stroke-width="1.5" d="M0,-3.0v7 M-2.5,-0.5L0,-3.0L2.5,-0.5"/>
                </g>
        </g>
        <svg viewBox="0 0 15 15" width="100%" height="30px" preserveAspectRatio="xMaxYMin meet">
         <g id="arrow_out" transform="scale(0.3 0.3)">
          <a xlink:href="JUTDbPrint_8cpp__incl_org.svg" target="_base">
           <rect id="button" ry="5" rx="5" y="6" x="6" height="38" width="38"
                fill="#f2f5e9" fill-opacity="0.5" stroke="#606060" stroke-width="1.0"/>
           <path id="arrow"
             d="M 11.500037,31.436501 C 11.940474,20.09759 22.043105,11.32322 32.158766,21.979434 L 37.068811,17.246167 C 37.068811,17.246167 37.088388,32 37.088388,32 L 22.160133,31.978069 C 22.160133,31.978069 26.997745,27.140456 26.997745,27.140456 C 18.528582,18.264221 13.291696,25.230495 11.500037,31.436501 z"
             style="fill:#404040;"/>
          </a>
         </g>
        </svg>
</svg>
