<?xml version="1.0" encoding="UTF-8" standalone="no"?>
<!DOCTYPE svg PUBLIC "-//W3C//DTD SVG 1.1//EN"
 "http://www.w3.org/Graphics/SVG/1.1/DTD/svg11.dtd">
<!-- Generated by graphviz version 7.0.5 (20221223.1930)
 -->
<!-- Title: include/JSystem/JUtility/JUTTexture.h Pages: 1 -->
<svg width="4116pt" height="302pt"
 viewBox="0.00 0.00 4116.00 302.00" xmlns="http://www.w3.org/2000/svg" xmlns:xlink="http://www.w3.org/1999/xlink">
<g id="graph0" class="graph" transform="scale(1 1) rotate(0) translate(4 298)">
<title>include/JSystem/JUtility/JUTTexture.h</title>
<!-- Node1 -->
<g id="node1" class="node">
<title>Node1</title>
<g id="a_node1"><a xlink:title=" ">
<polygon fill="#999999" stroke="#666666" points="3280,-294 3158,-294 3158,-264 3280,-264 3280,-294"/>
<text text-anchor="start" x="3166" y="-282" font-family="Helvetica,sans-Serif" font-size="10.00">include/JSystem/JUtility</text>
<text text-anchor="middle" x="3219" y="-271" font-family="Helvetica,sans-Serif" font-size="10.00">/JUTTexture.h</text>
</a>
</g>
</g>
<!-- Node2 -->
<g id="node2" class="node">
<title>Node2</title>
<g id="a_node2"><a xlink:href="J3DTexture_8h.html" target="_top" xlink:title=" ">
<polygon fill="white" stroke="#666666" points="1235.5,-228 1100.5,-228 1100.5,-198 1235.5,-198 1235.5,-228"/>
<text text-anchor="start" x="1108.5" y="-216" font-family="Helvetica,sans-Serif" font-size="10.00">include/JSystem/J3DGraph</text>
<text text-anchor="middle" x="1168" y="-205" font-family="Helvetica,sans-Serif" font-size="10.00">Base/J3DTexture.h</text>
</a>
</g>
</g>
<!-- Node1&#45;&gt;Node2 -->
<g id="edge1" class="edge">
<title>Node1&#45;&gt;Node2</title>
<path fill="none" stroke="#63b8ff" d="M3146.19,-275.73C2826.05,-265.74 1545.67,-225.78 1235.79,-216.12"/>
<polygon fill="#63b8ff" stroke="#63b8ff" points="3146,-279.22 3156.1,-276.04 3146.22,-272.23 3146,-279.22"/>
</g>
<!-- Node34 -->
<g id="node32" class="node">
<title>Node34</title>
<g id="a_node32"><a xlink:href="d__eye__hl_8cpp.html" target="_top" xlink:title=" ">
<polygon fill="white" stroke="#666666" points="2555,-156.5 2457,-156.5 2457,-137.5 2555,-137.5 2555,-156.5"/>
<text text-anchor="middle" x="2506" y="-144.5" font-family="Helvetica,sans-Serif" font-size="10.00">src/d/d_eye_hl.cpp</text>
</a>
</g>
</g>
<!-- Node1&#45;&gt;Node34 -->
<g id="edge48" class="edge">
<title>Node1&#45;&gt;Node34</title>
<path fill="none" stroke="#63b8ff" d="M3146.35,-274.9C3016.95,-268.8 2751.82,-253.59 2663,-228 2605.97,-211.57 2545.21,-174.1 2519.13,-156.91"/>
<polygon fill="#63b8ff" stroke="#63b8ff" points="3146.02,-278.39 3156.17,-275.35 3146.35,-271.39 3146.02,-278.39"/>
</g>
<!-- Node35 -->
<g id="node33" class="node">
<title>Node35</title>
<g id="a_node33"><a xlink:href="JPATexture_8h.html" target="_top" xlink:title=" ">
<polygon fill="white" stroke="#666666" points="2802,-228 2672,-228 2672,-198 2802,-198 2802,-228"/>
<text text-anchor="start" x="2680" y="-216" font-family="Helvetica,sans-Serif" font-size="10.00">include/JSystem/JParticle</text>
<text text-anchor="middle" x="2737" y="-205" font-family="Helvetica,sans-Serif" font-size="10.00">/JPATexture.h</text>
</a>
</g>
</g>
<!-- Node1&#45;&gt;Node35 -->
<g id="edge35" class="edge">
<title>Node1&#45;&gt;Node35</title>
<path fill="none" stroke="#63b8ff" d="M3146.24,-270.53C3064.48,-261.8 2927.89,-246.2 2811,-228 2808.16,-227.56 2805.26,-227.09 2802.33,-226.6"/>
<polygon fill="#63b8ff" stroke="#63b8ff" points="3145.84,-274 3156.15,-271.58 3146.58,-267.04 3145.84,-274"/>
</g>
<!-- Node44 -->
<g id="node42" class="node">
<title>Node44</title>
<g id="a_node42"><a xlink:href="J2DMatBlock_8cpp.html" target="_top" xlink:title=" ">
<polygon fill="white" stroke="#666666" points="2939.5,-228 2820.5,-228 2820.5,-198 2939.5,-198 2939.5,-228"/>
<text text-anchor="start" x="2828.5" y="-216" font-family="Helvetica,sans-Serif" font-size="10.00">libs/JSystem/J2DGraph</text>
<text text-anchor="middle" x="2880" y="-205" font-family="Helvetica,sans-Serif" font-size="10.00">/J2DMatBlock.cpp</text>
</a>
</g>
</g>
<!-- Node1&#45;&gt;Node44 -->
<g id="edge44" class="edge">
<title>Node1&#45;&gt;Node44</title>
<path fill="none" stroke="#63b8ff" d="M3146.28,-265C3091.67,-255.14 3015.07,-241.09 2948,-228 2945.28,-227.47 2942.5,-226.92 2939.69,-226.36"/>
<polygon fill="#63b8ff" stroke="#63b8ff" points="3145.63,-268.44 3156.09,-266.77 3146.87,-261.55 3145.63,-268.44"/>
</g>
<!-- Node45 -->
<g id="node43" class="node">
<title>Node45</title>
<g id="a_node43"><a xlink:href="J2DPicture_8cpp.html" target="_top" xlink:title=" ">
<polygon fill="white" stroke="#666666" points="3076.5,-228 2957.5,-228 2957.5,-198 3076.5,-198 3076.5,-228"/>
<text text-anchor="start" x="2965.5" y="-216" font-family="Helvetica,sans-Serif" font-size="10.00">libs/JSystem/J2DGraph</text>
<text text-anchor="middle" x="3017" y="-205" font-family="Helvetica,sans-Serif" font-size="10.00">/J2DPicture.cpp</text>
</a>
</g>
</g>
<!-- Node1&#45;&gt;Node45 -->
<g id="edge45" class="edge">
<title>Node1&#45;&gt;Node45</title>
<path fill="none" stroke="#63b8ff" d="M3162.56,-260.12C3130.95,-250.1 3092.05,-237.78 3062.42,-228.39"/>
<polygon fill="#63b8ff" stroke="#63b8ff" points="3161.38,-263.42 3171.97,-263.1 3163.5,-256.74 3161.38,-263.42"/>
</g>
<!-- Node46 -->
<g id="node44" class="node">
<title>Node46</title>
<g id="a_node44"><a xlink:href="J2DPictureEx_8cpp.html" target="_top" xlink:title=" ">
<polygon fill="white" stroke="#666666" points="3213.5,-228 3094.5,-228 3094.5,-198 3213.5,-198 3213.5,-228"/>
<text text-anchor="start" x="3102.5" y="-216" font-family="Helvetica,sans-Serif" font-size="10.00">libs/JSystem/J2DGraph</text>
<text text-anchor="middle" x="3154" y="-205" font-family="Helvetica,sans-Serif" font-size="10.00">/J2DPictureEx.cpp</text>
</a>
</g>
</g>
<!-- Node1&#45;&gt;Node46 -->
<g id="edge46" class="edge">
<title>Node1&#45;&gt;Node46</title>
<path fill="none" stroke="#63b8ff" d="M3196.46,-255.81C3187.15,-246.64 3176.62,-236.28 3168.39,-228.16"/>
<polygon fill="#63b8ff" stroke="#63b8ff" points="3193.91,-258.21 3203.5,-262.73 3198.83,-253.22 3193.91,-258.21"/>
</g>
<!-- Node47 -->
<g id="node45" class="node">
<title>Node47</title>
<g id="a_node45"><a xlink:href="JUTTexture_8cpp.html" target="_top" xlink:title=" ">
<polygon fill="white" stroke="#666666" points="3338,-228 3232,-228 3232,-198 3338,-198 3338,-228"/>
<text text-anchor="start" x="3240" y="-216" font-family="Helvetica,sans-Serif" font-size="10.00">libs/JSystem/JUtility</text>
<text text-anchor="middle" x="3285" y="-205" font-family="Helvetica,sans-Serif" font-size="10.00">/JUTTexture.cpp</text>
</a>
</g>
</g>
<!-- Node1&#45;&gt;Node47 -->
<g id="edge47" class="edge">
<title>Node1&#45;&gt;Node47</title>
<path fill="none" stroke="#63b8ff" d="M3241.89,-255.81C3251.34,-246.64 3262.03,-236.28 3270.39,-228.16"/>
<polygon fill="#63b8ff" stroke="#63b8ff" points="3239.48,-253.27 3234.73,-262.74 3244.35,-258.29 3239.48,-253.27"/>
</g>
<!-- Node48 -->
<g id="node46" class="node">
<title>Node48</title>
<g id="a_node46"><a xlink:href="d__scope_8cpp.html" target="_top" xlink:title=" ">
<polygon fill="white" stroke="#666666" points="3452,-222.5 3356,-222.5 3356,-203.5 3452,-203.5 3452,-222.5"/>
<text text-anchor="middle" x="3404" y="-210.5" font-family="Helvetica,sans-Serif" font-size="10.00">src/d/d_scope.cpp</text>
</a>
</g>
</g>
<!-- Node1&#45;&gt;Node48 -->
<g id="edge49" class="edge">
<title>Node1&#45;&gt;Node48</title>
<path fill="none" stroke="#63b8ff" d="M3271.01,-260.01C3305.91,-247.93 3350.38,-232.55 3378.03,-222.99"/>
<polygon fill="#63b8ff" stroke="#63b8ff" points="3270.25,-256.57 3261.95,-263.14 3272.54,-263.18 3270.25,-256.57"/>
</g>
<!-- Node49 -->
<g id="node47" class="node">
<title>Node49</title>
<g id="a_node47"><a xlink:href="d__map__path_8cpp.html" target="_top" xlink:title=" ">
<polygon fill="white" stroke="#666666" points="3604,-222.5 3470,-222.5 3470,-203.5 3604,-203.5 3604,-222.5"/>
<text text-anchor="middle" x="3537" y="-210.5" font-family="Helvetica,sans-Serif" font-size="10.00">src/d/map/d_map_path.cpp</text>
</a>
</g>
</g>
<!-- Node1&#45;&gt;Node49 -->
<g id="edge50" class="edge">
<title>Node1&#45;&gt;Node49</title>
<path fill="none" stroke="#63b8ff" d="M3291.58,-263.39C3353.57,-250.92 3440.72,-233.38 3492.76,-222.9"/>
<polygon fill="#63b8ff" stroke="#63b8ff" points="3290.91,-259.96 3281.8,-265.36 3292.29,-266.82 3290.91,-259.96"/>
</g>
<!-- Node50 -->
<g id="node48" class="node">
<title>Node50</title>
<g id="a_node48"><a xlink:href="m__Do__MemCardRWmng_8cpp.html" target="_top" xlink:title=" ">
<polygon fill="white" stroke="#666666" points="3809.5,-222.5 3622.5,-222.5 3622.5,-203.5 3809.5,-203.5 3809.5,-222.5"/>
<text text-anchor="middle" x="3716" y="-210.5" font-family="Helvetica,sans-Serif" font-size="10.00">src/m_Do/m_Do_MemCardRWmng.cpp</text>
</a>
</g>
</g>
<!-- Node1&#45;&gt;Node50 -->
<g id="edge51" class="edge">
<title>Node1&#45;&gt;Node50</title>
<path fill="none" stroke="#63b8ff" d="M3291.73,-268.97C3370.82,-259.1 3500.93,-242.73 3613,-228 3625.17,-226.4 3638.14,-224.66 3650.63,-222.97"/>
<polygon fill="#63b8ff" stroke="#63b8ff" points="3291.43,-265.48 3281.94,-270.19 3292.3,-272.42 3291.43,-265.48"/>
</g>
<!-- Node51 -->
<g id="node49" class="node">
<title>Node51</title>
<g id="a_node49"><a xlink:href="m__Do__graphic_8cpp.html" target="_top" xlink:title=" ">
<polygon fill="white" stroke="#666666" points="3970,-222.5 3828,-222.5 3828,-203.5 3970,-203.5 3970,-222.5"/>
<text text-anchor="middle" x="3899" y="-210.5" font-family="Helvetica,sans-Serif" font-size="10.00">src/m_Do/m_Do_graphic.cpp</text>
</a>
</g>
</g>
<!-- Node1&#45;&gt;Node51 -->
<g id="edge52" class="edge">
<title>Node1&#45;&gt;Node51</title>
<path fill="none" stroke="#63b8ff" d="M3291.32,-274.08C3404.28,-267.49 3629.32,-252.45 3819,-228 3829.63,-226.63 3841,-224.84 3851.73,-223"/>
<polygon fill="#63b8ff" stroke="#63b8ff" points="3291.38,-270.57 3281.6,-274.65 3291.78,-277.56 3291.38,-270.57"/>
</g>
<!-- Node52 -->
<g id="node50" class="node">
<title>Node52</title>
<g id="a_node50"><a xlink:href="m__Do__lib_8cpp.html" target="_top" xlink:title=" ">
<polygon fill="white" stroke="#666666" points="4108,-222.5 3988,-222.5 3988,-203.5 4108,-203.5 4108,-222.5"/>
<text text-anchor="middle" x="4048" y="-210.5" font-family="Helvetica,sans-Serif" font-size="10.00">src/m_Do/m_Do_lib.cpp</text>
</a>
</g>
</g>
<!-- Node1&#45;&gt;Node52 -->
<g id="edge53" class="edge">
<title>Node1&#45;&gt;Node52</title>
<path fill="none" stroke="#63b8ff" d="M3291.79,-276.46C3427.5,-272.88 3728.12,-261.55 3979,-228 3988.57,-226.72 3998.81,-224.9 4008.38,-222.99"/>
<polygon fill="#63b8ff" stroke="#63b8ff" points="3291.77,-272.96 3281.87,-276.72 3291.95,-279.96 3291.77,-272.96"/>
</g>
<!-- Node3 -->
<g id="node3" class="node">
<title>Node3</title>
<g id="a_node3"><a xlink:href="J3DMatBlock_8h.html" target="_top" xlink:title=" ">
<polygon fill="white" stroke="#666666" points="2294.5,-162 2159.5,-162 2159.5,-132 2294.5,-132 2294.5,-162"/>
<text text-anchor="start" x="2167.5" y="-150" font-family="Helvetica,sans-Serif" font-size="10.00">include/JSystem/J3DGraph</text>
<text text-anchor="middle" x="2227" y="-139" font-family="Helvetica,sans-Serif" font-size="10.00">Base/J3DMatBlock.h</text>
</a>
</g>
</g>
<!-- Node2&#45;&gt;Node3 -->
<g id="edge2" class="edge">
<title>Node2&#45;&gt;Node3</title>
<path fill="none" stroke="#63b8ff" d="M1247.15,-207.22C1447.38,-195.12 1971.47,-163.44 2159.03,-152.11"/>
<polygon fill="#63b8ff" stroke="#63b8ff" points="1247.14,-203.71 1237.37,-207.81 1247.56,-210.7 1247.14,-203.71"/>
</g>
<!-- Node4 -->
<g id="node4" class="node">
<title>Node4</title>
<g id="a_node4"><a xlink:href="J3DMaterial_8h.html" target="_top" xlink:title=" ">
<polygon fill="white" stroke="#666666" points="1316.5,-96 1181.5,-96 1181.5,-66 1316.5,-66 1316.5,-96"/>
<text text-anchor="start" x="1189.5" y="-84" font-family="Helvetica,sans-Serif" font-size="10.00">include/JSystem/J3DGraph</text>
<text text-anchor="middle" x="1249" y="-73" font-family="Helvetica,sans-Serif" font-size="10.00">Base/J3DMaterial.h</text>
</a>
</g>
</g>
<!-- Node2&#45;&gt;Node4 -->
<g id="edge28" class="edge">
<title>Node2&#45;&gt;Node4</title>
<path fill="none" stroke="#63b8ff" d="M1182.85,-188.17C1199.55,-161.36 1226.15,-118.67 1239.98,-96.47"/>
<polygon fill="#63b8ff" stroke="#63b8ff" points="1180.1,-185.97 1177.78,-196.31 1186.04,-189.67 1180.1,-185.97"/>
</g>
<!-- Node17 -->
<g id="node17" class="node">
<title>Node17</title>
<g id="a_node17"><a xlink:href="d__resorce_8cpp.html" target="_top" xlink:title=" ">
<polygon fill="white" stroke="#666666" points="102,-24.5 0,-24.5 0,-5.5 102,-5.5 102,-24.5"/>
<text text-anchor="middle" x="51" y="-12.5" font-family="Helvetica,sans-Serif" font-size="10.00">src/d/d_resorce.cpp</text>
</a>
</g>
</g>
<!-- Node2&#45;&gt;Node17 -->
<g id="edge34" class="edge">
<title>Node2&#45;&gt;Node17</title>
<path fill="none" stroke="#63b8ff" d="M1169.13,-186.23C1168.41,-168.28 1164.2,-145.27 1149,-132 974.41,20.44 339.68,-67.75 111,-30 102.87,-28.66 94.21,-26.86 86.06,-24.99"/>
<polygon fill="#63b8ff" stroke="#63b8ff" points="1165.63,-186.16 1169.16,-196.15 1172.63,-186.14 1165.63,-186.16"/>
</g>
<!-- Node30 -->
<g id="node28" class="node">
<title>Node30</title>
<g id="a_node28"><a xlink:href="J2DAnimation_8cpp.html" target="_top" xlink:title=" ">
<polygon fill="white" stroke="#666666" points="659.5,-162 540.5,-162 540.5,-132 659.5,-132 659.5,-162"/>
<text text-anchor="start" x="548.5" y="-150" font-family="Helvetica,sans-Serif" font-size="10.00">libs/JSystem/J2DGraph</text>
<text text-anchor="middle" x="600" y="-139" font-family="Helvetica,sans-Serif" font-size="10.00">/J2DAnimation.cpp</text>
</a>
</g>
</g>
<!-- Node2&#45;&gt;Node30 -->
<g id="edge29" class="edge">
<title>Node2&#45;&gt;Node30</title>
<path fill="none" stroke="#63b8ff" d="M1088.98,-206.54C990.34,-199.17 816.61,-184.31 669,-162 665.98,-161.54 662.89,-161.04 659.77,-160.51"/>
<polygon fill="#63b8ff" stroke="#63b8ff" points="1088.6,-210.02 1098.83,-207.27 1089.11,-203.04 1088.6,-210.02"/>
</g>
<!-- Node31 -->
<g id="node29" class="node">
<title>Node31</title>
<g id="a_node29"><a xlink:href="J3DSys_8cpp.html" target="_top" xlink:title=" ">
<polygon fill="white" stroke="#666666" points="820,-162 678,-162 678,-132 820,-132 820,-162"/>
<text text-anchor="start" x="686" y="-150" font-family="Helvetica,sans-Serif" font-size="10.00">libs/JSystem/J3DGraphBase</text>
<text text-anchor="middle" x="749" y="-139" font-family="Helvetica,sans-Serif" font-size="10.00">/J3DSys.cpp</text>
</a>
</g>
</g>
<!-- Node2&#45;&gt;Node31 -->
<g id="edge30" class="edge">
<title>Node2&#45;&gt;Node31</title>
<path fill="none" stroke="#63b8ff" d="M1088.9,-200.94C1020.13,-191.19 917.88,-176.33 829,-162 826.08,-161.53 823.09,-161.04 820.08,-160.54"/>
<polygon fill="#63b8ff" stroke="#63b8ff" points="1088.17,-204.38 1098.56,-202.31 1089.15,-197.45 1088.17,-204.38"/>
</g>
<!-- Node32 -->
<g id="node30" class="node">
<title>Node32</title>
<g id="a_node30"><a xlink:href="J3DTevs_8cpp.html" target="_top" xlink:title=" ">
<polygon fill="white" stroke="#666666" points="980,-162 838,-162 838,-132 980,-132 980,-162"/>
<text text-anchor="start" x="846" y="-150" font-family="Helvetica,sans-Serif" font-size="10.00">libs/JSystem/J3DGraphBase</text>
<text text-anchor="middle" x="909" y="-139" font-family="Helvetica,sans-Serif" font-size="10.00">/J3DTevs.cpp</text>
</a>
</g>
</g>
<!-- Node2&#45;&gt;Node32 -->
<g id="edge31" class="edge">
<title>Node2&#45;&gt;Node32</title>
<path fill="none" stroke="#63b8ff" d="M1098.54,-194.84C1057.51,-184.7 1006.14,-172 967.23,-162.39"/>
<polygon fill="#63b8ff" stroke="#63b8ff" points="1097.54,-198.19 1108.08,-197.19 1099.21,-191.4 1097.54,-198.19"/>
</g>
<!-- Node33 -->
<g id="node31" class="node">
<title>Node33</title>
<g id="a_node31"><a xlink:href="J3DTexture_8cpp.html" target="_top" xlink:title=" ">
<polygon fill="white" stroke="#666666" points="1140,-162 998,-162 998,-132 1140,-132 1140,-162"/>
<text text-anchor="start" x="1006" y="-150" font-family="Helvetica,sans-Serif" font-size="10.00">libs/JSystem/J3DGraphBase</text>
<text text-anchor="middle" x="1069" y="-139" font-family="Helvetica,sans-Serif" font-size="10.00">/J3DTexture.cpp</text>
</a>
</g>
</g>
<!-- Node2&#45;&gt;Node33 -->
<g id="edge32" class="edge">
<title>Node2&#45;&gt;Node33</title>
<path fill="none" stroke="#63b8ff" d="M1136.75,-191.8C1121.97,-182.24 1104.67,-171.06 1091.25,-162.39"/>
<polygon fill="#63b8ff" stroke="#63b8ff" points="1134.46,-194.48 1144.76,-196.97 1138.26,-188.61 1134.46,-194.48"/>
</g>
<!-- Node2&#45;&gt;Node34 -->
<g id="edge33" class="edge">
<title>Node2&#45;&gt;Node34</title>
<path fill="none" stroke="#63b8ff" d="M1247.33,-209.18C1432.35,-202.47 1906.81,-184.38 2303,-162 2355.55,-159.03 2415.7,-154.78 2456.8,-151.74"/>
<polygon fill="#63b8ff" stroke="#63b8ff" points="1247.21,-205.69 1237.35,-209.55 1247.47,-212.68 1247.21,-205.69"/>
</g>
<!-- Node3&#45;&gt;Node4 -->
<g id="edge3" class="edge">
<title>Node3&#45;&gt;Node4</title>
<path fill="none" stroke="#63b8ff" d="M2147.6,-140.8C1960.06,-128.53 1492.28,-97.92 1316.87,-86.44"/>
<polygon fill="#63b8ff" stroke="#63b8ff" points="2147.29,-144.29 2157.5,-141.45 2147.75,-137.31 2147.29,-144.29"/>
</g>
<!-- Node19 -->
<g id="node19" class="node">
<title>Node19</title>
<g id="a_node19"><a xlink:href="d__a__alink_8h.html" target="_top" xlink:title=" ">
<polygon fill="#fff0f0" stroke="red" points="2211,-90.5 2095,-90.5 2095,-71.5 2211,-71.5 2211,-90.5"/>
<text text-anchor="middle" x="2153" y="-78.5" font-family="Helvetica,sans-Serif" font-size="10.00">include/d/a/d_a_alink.h</text>
</a>
</g>
</g>
<!-- Node3&#45;&gt;Node19 -->
<g id="edge18" class="edge">
<title>Node3&#45;&gt;Node19</title>
<path fill="none" stroke="#63b8ff" d="M2201.88,-124.27C2188.66,-112.84 2173.17,-99.44 2163.23,-90.84"/>
<polygon fill="#63b8ff" stroke="#63b8ff" points="2199.58,-126.91 2209.43,-130.81 2204.16,-121.62 2199.58,-126.91"/>
</g>
<!-- Node27 -->
<g id="node25" class="node">
<title>Node27</title>
<g id="a_node25"><a xlink:href="J3DMatBlock_8cpp.html" target="_top" xlink:title=" ">
<polygon fill="white" stroke="#666666" points="2371,-96 2229,-96 2229,-66 2371,-66 2371,-96"/>
<text text-anchor="start" x="2237" y="-84" font-family="Helvetica,sans-Serif" font-size="10.00">libs/JSystem/J3DGraphBase</text>
<text text-anchor="middle" x="2300" y="-73" font-family="Helvetica,sans-Serif" font-size="10.00">/J3DMatBlock.cpp</text>
</a>
</g>
</g>
<!-- Node3&#45;&gt;Node27 -->
<g id="edge25" class="edge">
<title>Node3&#45;&gt;Node27</title>
<path fill="none" stroke="#63b8ff" d="M2251.61,-124.42C2262.15,-115.18 2274.17,-104.65 2283.59,-96.39"/>
<polygon fill="#63b8ff" stroke="#63b8ff" points="2249.55,-121.57 2244.34,-130.8 2254.17,-126.84 2249.55,-121.57"/>
</g>
<!-- Node28 -->
<g id="node26" class="node">
<title>Node28</title>
<g id="a_node26"><a xlink:href="d__attention_8cpp.html" target="_top" xlink:title=" ">
<polygon fill="white" stroke="#666666" points="2496.5,-90.5 2389.5,-90.5 2389.5,-71.5 2496.5,-71.5 2496.5,-90.5"/>
<text text-anchor="middle" x="2443" y="-78.5" font-family="Helvetica,sans-Serif" font-size="10.00">src/d/d_attention.cpp</text>
</a>
</g>
</g>
<!-- Node3&#45;&gt;Node28 -->
<g id="edge26" class="edge">
<title>Node3&#45;&gt;Node28</title>
<path fill="none" stroke="#63b8ff" d="M2286.68,-128.32C2327.61,-116.19 2380.2,-100.61 2412.75,-90.96"/>
<polygon fill="#63b8ff" stroke="#63b8ff" points="2285.79,-124.93 2277.2,-131.13 2287.78,-131.64 2285.79,-124.93"/>
</g>
<!-- Node29 -->
<g id="node27" class="node">
<title>Node29</title>
<g id="a_node27"><a xlink:href="d__kankyo_8cpp.html" target="_top" xlink:title=" ">
<polygon fill="white" stroke="#666666" points="2649,-90.5 2515,-90.5 2515,-71.5 2649,-71.5 2649,-90.5"/>
<text text-anchor="middle" x="2582" y="-78.5" font-family="Helvetica,sans-Serif" font-size="10.00">src/d/kankyo/d_kankyo.cpp</text>
</a>
</g>
</g>
<!-- Node3&#45;&gt;Node29 -->
<g id="edge27" class="edge">
<title>Node3&#45;&gt;Node29</title>
<path fill="none" stroke="#63b8ff" d="M2306.18,-131.8C2361.81,-121.81 2437.96,-108.12 2505,-96 2513.96,-94.38 2523.5,-92.65 2532.71,-90.98"/>
<polygon fill="#63b8ff" stroke="#63b8ff" points="2305.7,-128.33 2296.47,-133.54 2306.94,-135.22 2305.7,-128.33"/>
</g>
<!-- Node5 -->
<g id="node5" class="node">
<title>Node5</title>
<g id="a_node5"><a xlink:href="J3DJoint_8cpp.html" target="_top" xlink:title=" ">
<polygon fill="white" stroke="#666666" points="976,-30 818,-30 818,0 976,0 976,-30"/>
<text text-anchor="start" x="826" y="-18" font-family="Helvetica,sans-Serif" font-size="10.00">libs/JSystem/J3DGraphAnimator</text>
<text text-anchor="middle" x="897" y="-7" font-family="Helvetica,sans-Serif" font-size="10.00">/J3DJoint.cpp</text>
</a>
</g>
</g>
<!-- Node4&#45;&gt;Node5 -->
<g id="edge4" class="edge">
<title>Node4&#45;&gt;Node5</title>
<path fill="none" stroke="#63b8ff" d="M1169.86,-65.61C1112.11,-55.11 1034.15,-40.94 976.35,-30.43"/>
<polygon fill="#63b8ff" stroke="#63b8ff" points="1169.18,-69.04 1179.64,-67.39 1170.43,-62.16 1169.18,-69.04"/>
</g>
<!-- Node6 -->
<g id="node6" class="node">
<title>Node6</title>
<g id="a_node6"><a xlink:href="J3DJointTree_8cpp.html" target="_top" xlink:title=" ">
<polygon fill="white" stroke="#666666" points="1152,-30 994,-30 994,0 1152,0 1152,-30"/>
<text text-anchor="start" x="1002" y="-18" font-family="Helvetica,sans-Serif" font-size="10.00">libs/JSystem/J3DGraphAnimator</text>
<text text-anchor="middle" x="1073" y="-7" font-family="Helvetica,sans-Serif" font-size="10.00">/J3DJointTree.cpp</text>
</a>
</g>
</g>
<!-- Node4&#45;&gt;Node6 -->
<g id="edge5" class="edge">
<title>Node4&#45;&gt;Node6</title>
<path fill="none" stroke="#63b8ff" d="M1198.96,-61.8C1171.61,-51.86 1138.21,-39.71 1112.67,-30.43"/>
<polygon fill="#63b8ff" stroke="#63b8ff" points="1197.49,-64.99 1208.08,-65.12 1199.88,-58.41 1197.49,-64.99"/>
</g>
<!-- Node7 -->
<g id="node7" class="node">
<title>Node7</title>
<g id="a_node7"><a xlink:href="J3DMaterialAnm_8cpp.html" target="_top" xlink:title=" ">
<polygon fill="white" stroke="#666666" points="1328,-30 1170,-30 1170,0 1328,0 1328,-30"/>
<text text-anchor="start" x="1178" y="-18" font-family="Helvetica,sans-Serif" font-size="10.00">libs/JSystem/J3DGraphAnimator</text>
<text text-anchor="middle" x="1249" y="-7" font-family="Helvetica,sans-Serif" font-size="10.00">/J3DMaterialAnm.cpp</text>
</a>
</g>
</g>
<!-- Node4&#45;&gt;Node7 -->
<g id="edge6" class="edge">
<title>Node4&#45;&gt;Node7</title>
<path fill="none" stroke="#63b8ff" d="M1249,-54.39C1249,-46.13 1249,-37.28 1249,-30.16"/>
<polygon fill="#63b8ff" stroke="#63b8ff" points="1245.5,-54.28 1249,-64.28 1252.5,-54.28 1245.5,-54.28"/>
</g>
<!-- Node8 -->
<g id="node8" class="node">
<title>Node8</title>
<g id="a_node8"><a xlink:href="J3DMaterialAttach_8cpp.html" target="_top" xlink:title=" ">
<polygon fill="white" stroke="#666666" points="1504,-30 1346,-30 1346,0 1504,0 1504,-30"/>
<text text-anchor="start" x="1354" y="-18" font-family="Helvetica,sans-Serif" font-size="10.00">libs/JSystem/J3DGraphAnimator</text>
<text text-anchor="middle" x="1425" y="-7" font-family="Helvetica,sans-Serif" font-size="10.00">/J3DMaterialAttach.cpp</text>
</a>
</g>
</g>
<!-- Node4&#45;&gt;Node8 -->
<g id="edge7" class="edge">
<title>Node4&#45;&gt;Node8</title>
<path fill="none" stroke="#63b8ff" d="M1299.04,-61.8C1326.39,-51.86 1359.79,-39.71 1385.33,-30.43"/>
<polygon fill="#63b8ff" stroke="#63b8ff" points="1298.12,-58.41 1289.92,-65.12 1300.51,-64.99 1298.12,-58.41"/>
</g>
<!-- Node9 -->
<g id="node9" class="node">
<title>Node9</title>
<g id="a_node9"><a xlink:href="J3DModel_8cpp.html" target="_top" xlink:title=" ">
<polygon fill="white" stroke="#666666" points="1680,-30 1522,-30 1522,0 1680,0 1680,-30"/>
<text text-anchor="start" x="1530" y="-18" font-family="Helvetica,sans-Serif" font-size="10.00">libs/JSystem/J3DGraphAnimator</text>
<text text-anchor="middle" x="1601" y="-7" font-family="Helvetica,sans-Serif" font-size="10.00">/J3DModel.cpp</text>
</a>
</g>
</g>
<!-- Node4&#45;&gt;Node9 -->
<g id="edge8" class="edge">
<title>Node4&#45;&gt;Node9</title>
<path fill="none" stroke="#63b8ff" d="M1328.14,-65.61C1385.89,-55.11 1463.85,-40.94 1521.65,-30.43"/>
<polygon fill="#63b8ff" stroke="#63b8ff" points="1327.57,-62.16 1318.36,-67.39 1328.82,-69.04 1327.57,-62.16"/>
</g>
<!-- Node10 -->
<g id="node10" class="node">
<title>Node10</title>
<g id="a_node10"><a xlink:href="J3DModelData_8cpp.html" target="_top" xlink:title=" ">
<polygon fill="white" stroke="#666666" points="1856,-30 1698,-30 1698,0 1856,0 1856,-30"/>
<text text-anchor="start" x="1706" y="-18" font-family="Helvetica,sans-Serif" font-size="10.00">libs/JSystem/J3DGraphAnimator</text>
<text text-anchor="middle" x="1777" y="-7" font-family="Helvetica,sans-Serif" font-size="10.00">/J3DModelData.cpp</text>
</a>
</g>
</g>
<!-- Node4&#45;&gt;Node10 -->
<g id="edge9" class="edge">
<title>Node4&#45;&gt;Node10</title>
<path fill="none" stroke="#63b8ff" d="M1328.21,-72.07C1416.4,-63 1563.11,-47.16 1689,-30 1691.91,-29.6 1694.88,-29.19 1697.87,-28.76"/>
<polygon fill="#63b8ff" stroke="#63b8ff" points="1328.05,-68.57 1318.46,-73.07 1328.77,-75.54 1328.05,-68.57"/>
</g>
<!-- Node11 -->
<g id="node11" class="node">
<title>Node11</title>
<g id="a_node11"><a xlink:href="J3DDrawBuffer_8cpp.html" target="_top" xlink:title=" ">
<polygon fill="white" stroke="#666666" points="2016,-30 1874,-30 1874,0 2016,0 2016,-30"/>
<text text-anchor="start" x="1882" y="-18" font-family="Helvetica,sans-Serif" font-size="10.00">libs/JSystem/J3DGraphBase</text>
<text text-anchor="middle" x="1945" y="-7" font-family="Helvetica,sans-Serif" font-size="10.00">/J3DDrawBuffer.cpp</text>
</a>
</g>
</g>
<!-- Node4&#45;&gt;Node11 -->
<g id="edge10" class="edge">
<title>Node4&#45;&gt;Node11</title>
<path fill="none" stroke="#63b8ff" d="M1328.03,-75.92C1445.48,-69.34 1672.9,-54.55 1865,-30 1867.8,-29.64 1870.65,-29.26 1873.52,-28.85"/>
<polygon fill="#63b8ff" stroke="#63b8ff" points="1327.97,-72.42 1318.18,-76.47 1328.35,-79.41 1327.97,-72.42"/>
</g>
<!-- Node12 -->
<g id="node12" class="node">
<title>Node12</title>
<g id="a_node12"><a xlink:href="J3DMaterial_8cpp.html" target="_top" xlink:title=" ">
<polygon fill="white" stroke="#666666" points="262,-30 120,-30 120,0 262,0 262,-30"/>
<text text-anchor="start" x="128" y="-18" font-family="Helvetica,sans-Serif" font-size="10.00">libs/JSystem/J3DGraphBase</text>
<text text-anchor="middle" x="191" y="-7" font-family="Helvetica,sans-Serif" font-size="10.00">/J3DMaterial.cpp</text>
</a>
</g>
</g>
<!-- Node4&#45;&gt;Node12 -->
<g id="edge11" class="edge">
<title>Node4&#45;&gt;Node12</title>
<path fill="none" stroke="#63b8ff" d="M1170.03,-66.33C1169.02,-66.22 1168.01,-66.11 1167,-66 770.64,-24.38 667.28,-72.44 271,-30 268.2,-29.7 265.34,-29.36 262.46,-28.99"/>
<polygon fill="#63b8ff" stroke="#63b8ff" points="1169.22,-69.76 1179.58,-67.52 1170.09,-62.81 1169.22,-69.76"/>
</g>
<!-- Node13 -->
<g id="node13" class="node">
<title>Node13</title>
<g id="a_node13"><a xlink:href="J3DPacket_8cpp.html" target="_top" xlink:title=" ">
<polygon fill="white" stroke="#666666" points="422,-30 280,-30 280,0 422,0 422,-30"/>
<text text-anchor="start" x="288" y="-18" font-family="Helvetica,sans-Serif" font-size="10.00">libs/JSystem/J3DGraphBase</text>
<text text-anchor="middle" x="351" y="-7" font-family="Helvetica,sans-Serif" font-size="10.00">/J3DPacket.cpp</text>
</a>
</g>
</g>
<!-- Node4&#45;&gt;Node13 -->
<g id="edge12" class="edge">
<title>Node4&#45;&gt;Node13</title>
<path fill="none" stroke="#63b8ff" d="M1170.03,-66.34C1169.02,-66.22 1168,-66.11 1167,-66 841.44,-30.38 756.48,-66.3 431,-30 428.2,-29.69 425.34,-29.34 422.47,-28.96"/>
<polygon fill="#63b8ff" stroke="#63b8ff" points="1169.21,-69.77 1179.57,-67.56 1170.1,-62.82 1169.21,-69.77"/>
</g>
<!-- Node14 -->
<g id="node14" class="node">
<title>Node14</title>
<g id="a_node14"><a xlink:href="d__a__alink_8cpp.html" target="_top" xlink:title=" ">
<polygon fill="white" stroke="#666666" points="2143.5,-24.5 2034.5,-24.5 2034.5,-5.5 2143.5,-5.5 2143.5,-24.5"/>
<text text-anchor="middle" x="2089" y="-12.5" font-family="Helvetica,sans-Serif" font-size="10.00">src/d/a/d_a_alink.cpp</text>
</a>
</g>
</g>
<!-- Node4&#45;&gt;Node14 -->
<g id="edge13" class="edge">
<title>Node4&#45;&gt;Node14</title>
<path fill="none" stroke="#63b8ff" d="M1328.31,-78.84C1469.2,-75.89 1772.1,-65.6 2025,-30 2034.01,-28.73 2043.64,-26.89 2052.62,-24.95"/>
<polygon fill="#63b8ff" stroke="#63b8ff" points="1328.26,-75.34 1318.33,-79.04 1328.4,-82.33 1328.26,-75.34"/>
</g>
<!-- Node15 -->
<g id="node15" class="node">
<title>Node15</title>
<g id="a_node15"><a xlink:href="d__a__npc_8cpp.html" target="_top" xlink:title=" ">
<polygon fill="white" stroke="#666666" points="544,-24.5 440,-24.5 440,-5.5 544,-5.5 544,-24.5"/>
<text text-anchor="middle" x="492" y="-12.5" font-family="Helvetica,sans-Serif" font-size="10.00">src/d/a/d_a_npc.cpp</text>
</a>
</g>
</g>
<!-- Node4&#45;&gt;Node15 -->
<g id="edge14" class="edge">
<title>Node4&#45;&gt;Node15</title>
<path fill="none" stroke="#63b8ff" d="M1170.03,-66.36C1169.02,-66.23 1168,-66.11 1167,-66 895.41,-34.95 823.6,-68.71 553,-30 544.29,-28.75 534.98,-26.89 526.33,-24.94"/>
<polygon fill="#63b8ff" stroke="#63b8ff" points="1169.2,-69.78 1179.57,-67.61 1170.11,-62.84 1169.2,-69.78"/>
</g>
<!-- Node16 -->
<g id="node16" class="node">
<title>Node16</title>
<g id="a_node16"><a xlink:href="d__model_8cpp.html" target="_top" xlink:title=" ">
<polygon fill="white" stroke="#666666" points="658,-24.5 562,-24.5 562,-5.5 658,-5.5 658,-24.5"/>
<text text-anchor="middle" x="610" y="-12.5" font-family="Helvetica,sans-Serif" font-size="10.00">src/d/d_model.cpp</text>
</a>
</g>
</g>
<!-- Node4&#45;&gt;Node16 -->
<g id="edge15" class="edge">
<title>Node4&#45;&gt;Node16</title>
<path fill="none" stroke="#63b8ff" d="M1170.03,-66.38C1169.01,-66.25 1168,-66.12 1167,-66 945.82,-39.22 887.08,-64.7 667,-30 658.95,-28.73 650.36,-26.89 642.36,-24.95"/>
<polygon fill="#63b8ff" stroke="#63b8ff" points="1169.18,-69.79 1179.56,-67.67 1170.13,-62.86 1169.18,-69.79"/>
</g>
<!-- Node4&#45;&gt;Node17 -->
<g id="edge16" class="edge">
<title>Node4&#45;&gt;Node17</title>
<path fill="none" stroke="#63b8ff" d="M1170.04,-66.32C1169.02,-66.21 1168.01,-66.1 1167,-66 699.82,-18.37 576.54,-91.65 111,-30 102.2,-28.83 92.8,-26.95 84.11,-24.94"/>
<polygon fill="#63b8ff" stroke="#63b8ff" points="1169.23,-69.75 1179.58,-67.49 1170.08,-62.8 1169.23,-69.75"/>
</g>
<!-- Node18 -->
<g id="node18" class="node">
<title>Node18</title>
<g id="a_node18"><a xlink:href="m__Do__ext_8cpp.html" target="_top" xlink:title=" ">
<polygon fill="white" stroke="#666666" points="799.5,-24.5 676.5,-24.5 676.5,-5.5 799.5,-5.5 799.5,-24.5"/>
<text text-anchor="middle" x="738" y="-12.5" font-family="Helvetica,sans-Serif" font-size="10.00">src/m_Do/m_Do_ext.cpp</text>
</a>
</g>
</g>
<!-- Node4&#45;&gt;Node18 -->
<g id="edge17" class="edge">
<title>Node4&#45;&gt;Node18</title>
<path fill="none" stroke="#63b8ff" d="M1170.02,-66.42C1169.01,-66.27 1168,-66.14 1167,-66 1008.53,-44.53 967.18,-53.49 809,-30 799.56,-28.6 789.46,-26.79 779.93,-24.95"/>
<polygon fill="#63b8ff" stroke="#63b8ff" points="1169.14,-69.82 1179.54,-67.81 1170.16,-62.9 1169.14,-69.82"/>
</g>
<!-- Node19&#45;&gt;Node14 -->
<g id="edge19" class="edge">
<title>Node19&#45;&gt;Node14</title>
<path fill="none" stroke="#63b8ff" d="M2135.98,-62.98C2123.7,-50.7 2107.63,-34.63 2097.82,-24.82"/>
<polygon fill="#63b8ff" stroke="#63b8ff" points="2133.48,-65.43 2143.03,-70.03 2138.43,-60.48 2133.48,-65.43"/>
</g>
<!-- Node20 -->
<g id="node20" class="node">
<title>Node20</title>
<g id="a_node20"><a xlink:href="d__a__player_8cpp.html" target="_top" xlink:title=" ">
<polygon fill="white" stroke="#666666" points="2404,-24.5 2290,-24.5 2290,-5.5 2404,-5.5 2404,-24.5"/>
<text text-anchor="middle" x="2347" y="-12.5" font-family="Helvetica,sans-Serif" font-size="10.00">src/d/a/d_a_player.cpp</text>
</a>
</g>
</g>
<!-- Node19&#45;&gt;Node20 -->
<g id="edge20" class="edge">
<title>Node19&#45;&gt;Node20</title>
<path fill="none" stroke="#63b8ff" d="M2190.6,-67.6C2228.56,-55.07 2286.26,-36.04 2319.94,-24.93"/>
<polygon fill="#63b8ff" stroke="#63b8ff" points="2189.81,-64.17 2181.41,-70.63 2192.01,-70.82 2189.81,-64.17"/>
</g>
<!-- Node21 -->
<g id="node21" class="node">
<title>Node21</title>
<g id="a_node21"><a xlink:href="d__com__inf__game_8cpp.html" target="_top" xlink:title=" ">
<polygon fill="white" stroke="#666666" points="2530,-30 2422,-30 2422,0 2530,0 2530,-30"/>
<text text-anchor="start" x="2430" y="-18" font-family="Helvetica,sans-Serif" font-size="10.00">src/d/com/d_com_inf</text>
<text text-anchor="middle" x="2476" y="-7" font-family="Helvetica,sans-Serif" font-size="10.00">_game.cpp</text>
</a>
</g>
</g>
<!-- Node19&#45;&gt;Node21 -->
<g id="edge21" class="edge">
<title>Node19&#45;&gt;Node21</title>
<path fill="none" stroke="#63b8ff" d="M2206.08,-68.8C2210.78,-67.84 2215.48,-66.89 2220,-66 2305.6,-49.08 2327.51,-47.47 2413,-30 2415.85,-29.42 2418.78,-28.81 2421.73,-28.18"/>
<polygon fill="#63b8ff" stroke="#63b8ff" points="2205.72,-65.3 2196.63,-70.74 2207.13,-72.16 2205.72,-65.3"/>
</g>
<!-- Node22 -->
<g id="node22" class="node">
<title>Node22</title>
<g id="a_node22"><a xlink:href="d__camera_8cpp.html" target="_top" xlink:title=" ">
<polygon fill="white" stroke="#666666" points="2650,-24.5 2548,-24.5 2548,-5.5 2650,-5.5 2650,-24.5"/>
<text text-anchor="middle" x="2599" y="-12.5" font-family="Helvetica,sans-Serif" font-size="10.00">src/d/d_camera.cpp</text>
</a>
</g>
</g>
<!-- Node19&#45;&gt;Node22 -->
<g id="edge22" class="edge">
<title>Node19&#45;&gt;Node22</title>
<path fill="none" stroke="#63b8ff" d="M2203.93,-68.84C2209.34,-67.81 2214.78,-66.84 2220,-66 2360.87,-43.38 2398.4,-54.25 2539,-30 2547.01,-28.62 2555.55,-26.82 2563.61,-24.98"/>
<polygon fill="#63b8ff" stroke="#63b8ff" points="2203.54,-65.35 2194.41,-70.73 2204.89,-72.22 2203.54,-65.35"/>
</g>
<!-- Node23 -->
<g id="node23" class="node">
<title>Node23</title>
<g id="a_node23"><a xlink:href="d__event_8cpp.html" target="_top" xlink:title=" ">
<polygon fill="white" stroke="#666666" points="2789.5,-24.5 2668.5,-24.5 2668.5,-5.5 2789.5,-5.5 2789.5,-24.5"/>
<text text-anchor="middle" x="2729" y="-12.5" font-family="Helvetica,sans-Serif" font-size="10.00">src/d/event/d_event.cpp</text>
</a>
</g>
</g>
<!-- Node19&#45;&gt;Node23 -->
<g id="edge23" class="edge">
<title>Node19&#45;&gt;Node23</title>
<path fill="none" stroke="#63b8ff" d="M2202.81,-68.88C2208.59,-67.8 2214.41,-66.81 2220,-66 2413.74,-37.93 2465.14,-57.24 2659,-30 2668.57,-28.65 2678.81,-26.83 2688.42,-24.94"/>
<polygon fill="#63b8ff" stroke="#63b8ff" points="2202.45,-65.38 2193.31,-70.74 2203.8,-72.25 2202.45,-65.38"/>
</g>
<!-- Node24 -->
<g id="node24" class="node">
<title>Node24</title>
<g id="a_node24"><a xlink:href="d__meter2__draw_8cpp.html" target="_top" xlink:title=" ">
<polygon fill="white" stroke="#666666" points="2272,-30 2162,-30 2162,0 2272,0 2272,-30"/>
<text text-anchor="start" x="2170" y="-18" font-family="Helvetica,sans-Serif" font-size="10.00">src/d/meter/d_meter2</text>
<text text-anchor="middle" x="2217" y="-7" font-family="Helvetica,sans-Serif" font-size="10.00">_draw.cpp</text>
</a>
</g>
</g>
<!-- Node19&#45;&gt;Node24 -->
<g id="edge24" class="edge">
<title>Node19&#45;&gt;Node24</title>
<path fill="none" stroke="#63b8ff" d="M2169.75,-63.25C2180.01,-52.99 2193,-40 2202.77,-30.23"/>
<polygon fill="#63b8ff" stroke="#63b8ff" points="2167.57,-60.48 2162.97,-70.03 2172.52,-65.43 2167.57,-60.48"/>
</g>
<!-- Node36 -->
<g id="node34" class="node">
<title>Node36</title>
<g id="a_node34"><a xlink:href="JPAResourceManager_8h.html" target="_top" xlink:title=" ">
<polygon fill="white" stroke="#666666" points="2990,-162 2860,-162 2860,-132 2990,-132 2990,-162"/>
<text text-anchor="start" x="2868" y="-150" font-family="Helvetica,sans-Serif" font-size="10.00">include/JSystem/JParticle</text>
<text text-anchor="middle" x="2925" y="-139" font-family="Helvetica,sans-Serif" font-size="10.00">/JPAResourceManager.h</text>
</a>
</g>
</g>
<!-- Node35&#45;&gt;Node36 -->
<g id="edge36" class="edge">
<title>Node35&#45;&gt;Node36</title>
<path fill="none" stroke="#63b8ff" d="M2790.06,-193.94C2819.35,-183.97 2855.23,-171.75 2882.63,-162.43"/>
<polygon fill="#63b8ff" stroke="#63b8ff" points="2788.96,-190.61 2780.62,-197.15 2791.22,-197.24 2788.96,-190.61"/>
</g>
<!-- Node43 -->
<g id="node41" class="node">
<title>Node43</title>
<g id="a_node41"><a xlink:href="JPATexture_8cpp.html" target="_top" xlink:title=" ">
<polygon fill="white" stroke="#666666" points="3122,-162 3008,-162 3008,-132 3122,-132 3122,-162"/>
<text text-anchor="start" x="3016" y="-150" font-family="Helvetica,sans-Serif" font-size="10.00">libs/JSystem/JParticle</text>
<text text-anchor="middle" x="3065" y="-139" font-family="Helvetica,sans-Serif" font-size="10.00">/JPATexture.cpp</text>
</a>
</g>
</g>
<!-- Node35&#45;&gt;Node43 -->
<g id="edge43" class="edge">
<title>Node35&#45;&gt;Node43</title>
<path fill="none" stroke="#63b8ff" d="M2813.58,-197.47C2884.26,-184.04 2980.96,-165.64 2999,-162 3001.87,-161.42 3004.81,-160.82 3007.78,-160.21"/>
<polygon fill="#63b8ff" stroke="#63b8ff" points="2813.13,-193.99 2803.96,-199.3 2814.44,-200.87 2813.13,-193.99"/>
</g>
<!-- Node37 -->
<g id="node35" class="node">
<title>Node37</title>
<g id="a_node35"><a xlink:href="JPABaseShape_8cpp.html" target="_top" xlink:title=" ">
<polygon fill="white" stroke="#666666" points="2781,-96 2667,-96 2667,-66 2781,-66 2781,-96"/>
<text text-anchor="start" x="2675" y="-84" font-family="Helvetica,sans-Serif" font-size="10.00">libs/JSystem/JParticle</text>
<text text-anchor="middle" x="2724" y="-73" font-family="Helvetica,sans-Serif" font-size="10.00">/JPABaseShape.cpp</text>
</a>
</g>
</g>
<!-- Node36&#45;&gt;Node37 -->
<g id="edge37" class="edge">
<title>Node36&#45;&gt;Node37</title>
<path fill="none" stroke="#63b8ff" d="M2868.84,-128.12C2837.39,-118.1 2798.68,-105.78 2769.19,-96.39"/>
<polygon fill="#63b8ff" stroke="#63b8ff" points="2867.61,-131.4 2878.2,-131.1 2869.73,-124.73 2867.61,-131.4"/>
</g>
<!-- Node38 -->
<g id="node36" class="node">
<title>Node38</title>
<g id="a_node36"><a xlink:href="JPAEmitter_8cpp.html" target="_top" xlink:title=" ">
<polygon fill="white" stroke="#666666" points="2913,-96 2799,-96 2799,-66 2913,-66 2913,-96"/>
<text text-anchor="start" x="2807" y="-84" font-family="Helvetica,sans-Serif" font-size="10.00">libs/JSystem/JParticle</text>
<text text-anchor="middle" x="2856" y="-73" font-family="Helvetica,sans-Serif" font-size="10.00">/JPAEmitter.cpp</text>
</a>
</g>
</g>
<!-- Node36&#45;&gt;Node38 -->
<g id="edge38" class="edge">
<title>Node36&#45;&gt;Node38</title>
<path fill="none" stroke="#63b8ff" d="M2901.38,-124.09C2891.41,-114.85 2880.11,-104.36 2871.27,-96.16"/>
<polygon fill="#63b8ff" stroke="#63b8ff" points="2898.87,-126.53 2908.58,-130.77 2903.63,-121.4 2898.87,-126.53"/>
</g>
<!-- Node39 -->
<g id="node37" class="node">
<title>Node39</title>
<g id="a_node37"><a xlink:href="JPAEmitterManager_8cpp.html" target="_top" xlink:title=" ">
<polygon fill="white" stroke="#666666" points="3056.5,-96 2931.5,-96 2931.5,-66 3056.5,-66 3056.5,-96"/>
<text text-anchor="start" x="2939.5" y="-84" font-family="Helvetica,sans-Serif" font-size="10.00">libs/JSystem/JParticle</text>
<text text-anchor="middle" x="2994" y="-73" font-family="Helvetica,sans-Serif" font-size="10.00">/JPAEmitterManager.cpp</text>
</a>
</g>
</g>
<!-- Node36&#45;&gt;Node39 -->
<g id="edge39" class="edge">
<title>Node36&#45;&gt;Node39</title>
<path fill="none" stroke="#63b8ff" d="M2948.62,-124.09C2958.59,-114.85 2969.89,-104.36 2978.73,-96.16"/>
<polygon fill="#63b8ff" stroke="#63b8ff" points="2946.37,-121.4 2941.42,-130.77 2951.13,-126.53 2946.37,-121.4"/>
</g>
<!-- Node40 -->
<g id="node38" class="node">
<title>Node40</title>
<g id="a_node38"><a xlink:href="JPAExTexShape_8cpp.html" target="_top" xlink:title=" ">
<polygon fill="white" stroke="#666666" points="3189,-96 3075,-96 3075,-66 3189,-66 3189,-96"/>
<text text-anchor="start" x="3083" y="-84" font-family="Helvetica,sans-Serif" font-size="10.00">libs/JSystem/JParticle</text>
<text text-anchor="middle" x="3132" y="-73" font-family="Helvetica,sans-Serif" font-size="10.00">/JPAExTexShape.cpp</text>
</a>
</g>
</g>
<!-- Node36&#45;&gt;Node40 -->
<g id="edge40" class="edge">
<title>Node36&#45;&gt;Node40</title>
<path fill="none" stroke="#63b8ff" d="M2982.41,-128.25C3014.88,-118.21 3054.96,-105.82 3085.46,-96.39"/>
<polygon fill="#63b8ff" stroke="#63b8ff" points="2981.68,-124.81 2973.16,-131.11 2983.75,-131.5 2981.68,-124.81"/>
</g>
<!-- Node41 -->
<g id="node39" class="node">
<title>Node41</title>
<g id="a_node39"><a xlink:href="JPAExtraShape_8cpp.html" target="_top" xlink:title=" ">
<polygon fill="white" stroke="#666666" points="3321,-96 3207,-96 3207,-66 3321,-66 3321,-96"/>
<text text-anchor="start" x="3215" y="-84" font-family="Helvetica,sans-Serif" font-size="10.00">libs/JSystem/JParticle</text>
<text text-anchor="middle" x="3264" y="-73" font-family="Helvetica,sans-Serif" font-size="10.00">/JPAExtraShape.cpp</text>
</a>
</g>
</g>
<!-- Node36&#45;&gt;Node41 -->
<g id="edge41" class="edge">
<title>Node36&#45;&gt;Node41</title>
<path fill="none" stroke="#63b8ff" d="M3001.67,-131.52C3089.28,-115.44 3113.34,-112.63 3198,-96 3200.87,-95.44 3203.81,-94.85 3206.78,-94.25"/>
<polygon fill="#63b8ff" stroke="#63b8ff" points="3001.05,-128.07 2991.85,-133.33 3002.32,-134.96 3001.05,-128.07"/>
</g>
<!-- Node42 -->
<g id="node40" class="node">
<title>Node42</title>
<g id="a_node40"><a xlink:href="JPAResourceManager_8cpp.html" target="_top" xlink:title=" ">
<polygon fill="white" stroke="#666666" points="3474.5,-96 3339.5,-96 3339.5,-66 3474.5,-66 3474.5,-96"/>
<text text-anchor="start" x="3347.5" y="-84" font-family="Helvetica,sans-Serif" font-size="10.00">libs/JSystem/JParticle</text>
<text text-anchor="middle" x="3407" y="-73" font-family="Helvetica,sans-Serif" font-size="10.00">/JPAResourceManager.cpp</text>
</a>
</g>
</g>
<!-- Node36&#45;&gt;Node42 -->
<g id="edge42" class="edge">
<title>Node36&#45;&gt;Node42</title>
<path fill="none" stroke="#63b8ff" d="M3001.47,-131.71C3147.3,-110.56 3187.13,-116.73 3330,-96 3332.96,-95.57 3335.98,-95.11 3339.02,-94.63"/>
<polygon fill="#63b8ff" stroke="#63b8ff" points="3001.2,-128.21 2991.82,-133.13 3002.22,-135.14 3001.2,-128.21"/>
</g>
</g>
</svg>
