<?xml version="1.0" encoding="UTF-8" standalone="no"?>
<!DOCTYPE svg PUBLIC "-//W3C//DTD SVG 1.1//EN"
 "http://www.w3.org/Graphics/SVG/1.1/DTD/svg11.dtd">
<!-- Generated by graphviz version 2.50.0 (20220203.2022)
 -->
<!-- Title: libs/JSystem/JUtility/JUTTexture.cpp Pages: 1 -->
<!--zoomable 464 -->
<svg id="main" version="1.1" xmlns="http://www.w3.org/2000/svg" xmlns:xlink="http://www.w3.org/1999/xlink" xml:space="preserve" onload="init(evt)">
<style type="text/css"><![CDATA[
.edge:hover path { stroke: red; }
.edge:hover polygon { stroke: red; fill: red; }
]]></style>
<script type="text/javascript"><![CDATA[
var edges = document.getElementsByTagName('g');
if (edges && edges.length) {
  for (var i=0;i<edges.length;i++) {
    if (edges[i].id.substr(0,4)=='edge') {
      edges[i].setAttribute('class','edge');
    }
  }
}
]]></script>
        <defs>
                <circle id="rim" cx="0" cy="0" r="7"/>
                <circle id="rim2" cx="0" cy="0" r="3.5"/>
                <g id="zoomPlus">
                        <use xlink:href="#rim" fill="#404040">
                                <set attributeName="fill" to="#808080" begin="zoomplus.mouseover" end="zoomplus.mouseout"/>
                        </use>
                        <path d="M-4,0h8M0,-4v8" fill="none" stroke="white" stroke-width="1.5" pointer-events="none"/>
                </g>
                <g id="zoomMin">
                        <use xlink:href="#rim" fill="#404040">
                                <set attributeName="fill" to="#808080" begin="zoomminus.mouseover" end="zoomminus.mouseout"/>
                        </use>
                        <path d="M-4,0h8" fill="none" stroke="white" stroke-width="1.5" pointer-events="none"/>
                </g>
                <g id="dirArrow">
                        <path fill="none" stroke="white" stroke-width="1.5" d="M0,-3.0v7 M-2.5,-0.5L0,-3.0L2.5,-0.5"/>
                </g>
               <g id="resetDef">
                       <use xlink:href="#rim2" fill="#404040">
                               <set attributeName="fill" to="#808080" begin="reset.mouseover" end="reset.mouseout"/>
                       </use>
               </g>
        </defs>

<script type="text/javascript">
var viewWidth = 1224;
var viewHeight = 464;
var sectionId = 'dynsection-0';
</script>
<script xlink:href="svgpan.js"/>
<svg id="graph" class="graph">
<g id="viewport">
<title>libs/JSystem/JUtility/JUTTexture.cpp</title>
<polygon fill="white" stroke="transparent" points="-4,4 -4,-460 1219.5,-460 1219.5,4 -4,4"/>
<!-- Node1 -->
<g id="node1" class="node">
<title>Node1</title>
<g id="a_node1"><a xlink:title=" ">
<polygon fill="#bfbfbf" stroke="black" points="587,-425.5 587,-455.5 693,-455.5 693,-425.5 587,-425.5"/>
<text text-anchor="start" x="595" y="-443.5" font-family="Helvetica,sans-Serif" font-size="10.00">libs/JSystem/JUtility</text>
<text text-anchor="middle" x="640" y="-432.5" font-family="Helvetica,sans-Serif" font-size="10.00">/JUTTexture.cpp</text>
</a>
</g>
</g>
<!-- Node2 -->
<g id="node2" class="node">
<title>Node2</title>
<g id="a_node2"><a xlink:href="JUTTexture_8h.html" target="_top" xlink:title=" ">
<polygon fill="white" stroke="black" points="305.5,-353 305.5,-372 454.5,-372 454.5,-353 305.5,-353"/>
<text text-anchor="middle" x="380" y="-360" font-family="Helvetica,sans-Serif" font-size="10.00">JSystem/JUtility/JUTTexture.h</text>
</a>
</g>
</g>
<!-- Node1&#45;&gt;Node2 -->
<g id="edge1" class="edge">
<title>Node1&#45;&gt;Node2</title>
<path fill="none" stroke="midnightblue" d="M590.25,-425.44C554.97,-415.42 506.53,-401.56 464,-389 448.8,-384.51 432.08,-379.46 417.6,-375.05"/>
<polygon fill="midnightblue" stroke="midnightblue" points="418.55,-371.68 407.97,-372.11 416.51,-378.38 418.55,-371.68"/>
</g>
<!-- Node6 -->
<g id="node6" class="node">
<title>Node6</title>
<g id="a_node6"><a xlink:href="types_8h.html" target="_top" xlink:title=" ">
<polygon fill="white" stroke="black" points="248.5,-0.5 248.5,-19.5 329.5,-19.5 329.5,-0.5 248.5,-0.5"/>
<text text-anchor="middle" x="289" y="-7.5" font-family="Helvetica,sans-Serif" font-size="10.00">dolphin/types.h</text>
</a>
</g>
</g>
<!-- Node1&#45;&gt;Node6 -->
<g id="edge22" class="edge">
<title>Node1&#45;&gt;Node6</title>
<path fill="none" stroke="midnightblue" d="M586.81,-438.48C433.23,-434.11 0,-411.12 0,-291 0,-291 0,-291 0,-121 0,-72.38 43.77,-76.19 88,-56 136.39,-33.91 196.4,-22.3 238.19,-16.45"/>
<polygon fill="midnightblue" stroke="midnightblue" points="238.7,-19.91 248.14,-15.11 237.77,-12.97 238.7,-19.91"/>
</g>
<!-- Node12 -->
<g id="node12" class="node">
<title>Node12</title>
<g id="a_node12"><a xlink:href="dol2asm_8h.html" target="_top" xlink:title=" ">
<polygon fill="white" stroke="black" points="472.5,-353 472.5,-372 533.5,-372 533.5,-353 472.5,-353"/>
<text text-anchor="middle" x="503" y="-360" font-family="Helvetica,sans-Serif" font-size="10.00">dol2asm.h</text>
</a>
</g>
</g>
<!-- Node1&#45;&gt;Node12 -->
<g id="edge21" class="edge">
<title>Node1&#45;&gt;Node12</title>
<path fill="none" stroke="midnightblue" d="M611.21,-425.34C591.72,-415.56 565.52,-402.01 543,-389 536.92,-385.49 530.44,-381.48 524.52,-377.71"/>
<polygon fill="midnightblue" stroke="midnightblue" points="526.09,-374.55 515.79,-372.06 522.29,-380.43 526.09,-374.55"/>
</g>
<!-- Node13 -->
<g id="node13" class="node">
<title>Node13</title>
<g id="a_node13"><a xlink:title=" ">
<polygon fill="white" stroke="#bfbfbf" points="552,-342 552,-383 728,-383 728,-342 552,-342"/>
<text text-anchor="start" x="560" y="-371" font-family="Helvetica,sans-Serif" font-size="10.00">asm/JSystem/JUtility</text>
<text text-anchor="start" x="560" y="-360" font-family="Helvetica,sans-Serif" font-size="10.00">/JUTTexture/storeTIMG</text>
<text text-anchor="middle" x="640" y="-349" font-family="Helvetica,sans-Serif" font-size="10.00">__10JUTTextureFPC7ResTIMGUc.s</text>
</a>
</g>
</g>
<!-- Node1&#45;&gt;Node13 -->
<g id="edge23" class="edge">
<title>Node1&#45;&gt;Node13</title>
<path fill="none" stroke="midnightblue" d="M640,-425.2C640,-416.21 640,-404.27 640,-393.29"/>
<polygon fill="midnightblue" stroke="midnightblue" points="643.5,-393.18 640,-383.18 636.5,-393.18 643.5,-393.18"/>
</g>
<!-- Node14 -->
<g id="node14" class="node">
<title>Node14</title>
<g id="a_node14"><a xlink:title=" ">
<polygon fill="white" stroke="#bfbfbf" points="746.5,-336.5 746.5,-388.5 919.5,-388.5 919.5,-336.5 746.5,-336.5"/>
<text text-anchor="start" x="754.5" y="-376.5" font-family="Helvetica,sans-Serif" font-size="10.00">asm/JSystem/JUtility</text>
<text text-anchor="start" x="754.5" y="-365.5" font-family="Helvetica,sans-Serif" font-size="10.00">/JUTTexture/storeTIMG</text>
<text text-anchor="start" x="754.5" y="-354.5" font-family="Helvetica,sans-Serif" font-size="10.00">__10JUTTextureFPC7ResTIMGP10</text>
<text text-anchor="middle" x="833" y="-343.5" font-family="Helvetica,sans-Serif" font-size="10.00">JUTPalette7_GXTlut.s</text>
</a>
</g>
</g>
<!-- Node1&#45;&gt;Node14 -->
<g id="edge24" class="edge">
<title>Node1&#45;&gt;Node14</title>
<path fill="none" stroke="midnightblue" d="M675.85,-425.38C699.36,-416.13 730.93,-403.69 759.62,-392.4"/>
<polygon fill="midnightblue" stroke="midnightblue" points="761.2,-395.54 769.22,-388.62 758.63,-389.02 761.2,-395.54"/>
</g>
<!-- Node15 -->
<g id="node15" class="node">
<title>Node15</title>
<g id="a_node15"><a xlink:title=" ">
<polygon fill="white" stroke="#bfbfbf" points="937.5,-342 937.5,-383 1054.5,-383 1054.5,-342 937.5,-342"/>
<text text-anchor="start" x="945.5" y="-371" font-family="Helvetica,sans-Serif" font-size="10.00">asm/JSystem/JUtility</text>
<text text-anchor="start" x="945.5" y="-360" font-family="Helvetica,sans-Serif" font-size="10.00">/JUTTexture/initTexObj</text>
<text text-anchor="middle" x="996" y="-349" font-family="Helvetica,sans-Serif" font-size="10.00">__10JUTTextureFv.s</text>
</a>
</g>
</g>
<!-- Node1&#45;&gt;Node15 -->
<g id="edge25" class="edge">
<title>Node1&#45;&gt;Node15</title>
<path fill="none" stroke="midnightblue" d="M693.14,-433.31C751.63,-425.78 848.09,-411.25 929,-389 932.12,-388.14 935.3,-387.2 938.49,-386.19"/>
<polygon fill="midnightblue" stroke="midnightblue" points="939.67,-389.48 948.06,-383 937.46,-382.84 939.67,-389.48"/>
</g>
<!-- Node16 -->
<g id="node16" class="node">
<title>Node16</title>
<g id="a_node16"><a xlink:title=" ">
<polygon fill="white" stroke="#bfbfbf" points="1072.5,-342 1072.5,-383 1215.5,-383 1215.5,-342 1072.5,-342"/>
<text text-anchor="start" x="1080.5" y="-371" font-family="Helvetica,sans-Serif" font-size="10.00">asm/JSystem/JUtility</text>
<text text-anchor="start" x="1080.5" y="-360" font-family="Helvetica,sans-Serif" font-size="10.00">/JUTTexture/initTexObj</text>
<text text-anchor="middle" x="1144" y="-349" font-family="Helvetica,sans-Serif" font-size="10.00">__10JUTTextureF7_GXTlut.s</text>
</a>
</g>
</g>
<!-- Node1&#45;&gt;Node16 -->
<g id="edge26" class="edge">
<title>Node1&#45;&gt;Node16</title>
<path fill="none" stroke="midnightblue" d="M693.08,-436.43C773.9,-431.02 932.33,-417.56 1064,-389 1068.37,-388.05 1072.83,-386.97 1077.31,-385.79"/>
<polygon fill="midnightblue" stroke="midnightblue" points="1078.4,-389.12 1087.11,-383.08 1076.54,-382.37 1078.4,-389.12"/>
</g>
<!-- Node3 -->
<g id="node3" class="node">
<title>Node3</title>
<g id="a_node3"><a xlink:href="JUTPalette_8h.html" target="_top" xlink:title=" ">
<polygon fill="white" stroke="black" points="306,-280.5 306,-299.5 454,-299.5 454,-280.5 306,-280.5"/>
<text text-anchor="middle" x="380" y="-287.5" font-family="Helvetica,sans-Serif" font-size="10.00">JSystem/JUtility/JUTPalette.h</text>
</a>
</g>
</g>
<!-- Node2&#45;&gt;Node3 -->
<g id="edge2" class="edge">
<title>Node2&#45;&gt;Node3</title>
<path fill="none" stroke="midnightblue" d="M380,-352.86C380,-342.18 380,-323.72 380,-309.73"/>
<polygon fill="midnightblue" stroke="midnightblue" points="383.5,-309.72 380,-299.72 376.5,-309.72 383.5,-309.72"/>
</g>
<!-- Node2&#45;&gt;Node6 -->
<g id="edge20" class="edge">
<title>Node2&#45;&gt;Node6</title>
<path fill="none" stroke="midnightblue" d="M400,-352.98C436,-336.15 508,-294.99 508,-235 508,-235 508,-235 508,-121 508,-46.08 404.39,-22.18 339.71,-14.56"/>
<polygon fill="midnightblue" stroke="midnightblue" points="340,-11.08 329.68,-13.48 339.24,-18.03 340,-11.08"/>
</g>
<!-- Node4 -->
<g id="node4" class="node">
<title>Node4</title>
<g id="a_node4"><a xlink:href="GX_8h.html" target="_top" xlink:title=" ">
<polygon fill="white" stroke="black" points="293.5,-224.5 293.5,-243.5 378.5,-243.5 378.5,-224.5 293.5,-224.5"/>
<text text-anchor="middle" x="336" y="-231.5" font-family="Helvetica,sans-Serif" font-size="10.00">dolphin/gx/GX.h</text>
</a>
</g>
</g>
<!-- Node3&#45;&gt;Node4 -->
<g id="edge3" class="edge">
<title>Node3&#45;&gt;Node4</title>
<path fill="none" stroke="midnightblue" d="M372.73,-280.08C366.46,-272.38 357.21,-261.03 349.57,-251.65"/>
<polygon fill="midnightblue" stroke="midnightblue" points="352.16,-249.29 343.13,-243.75 346.73,-253.71 352.16,-249.29"/>
</g>
<!-- Node3&#45;&gt;Node6 -->
<g id="edge19" class="edge">
<title>Node3&#45;&gt;Node6</title>
<path fill="none" stroke="midnightblue" d="M394.46,-280.44C419.9,-264.16 470,-226.13 470,-179 470,-179 470,-179 470,-121 470,-87.54 458.16,-76.87 432,-56 405.61,-34.95 369.25,-23.68 339.8,-17.68"/>
<polygon fill="midnightblue" stroke="midnightblue" points="340.18,-14.19 329.7,-15.77 338.88,-21.07 340.18,-14.19"/>
</g>
<!-- Node5 -->
<g id="node5" class="node">
<title>Node5</title>
<g id="a_node5"><a xlink:href="GXDisplayList_8h.html" target="_top" xlink:title=" ">
<polygon fill="white" stroke="black" points="40.5,-168.5 40.5,-187.5 173.5,-187.5 173.5,-168.5 40.5,-168.5"/>
<text text-anchor="middle" x="107" y="-175.5" font-family="Helvetica,sans-Serif" font-size="10.00">dolphin/gx/GXDisplayList.h</text>
</a>
</g>
</g>
<!-- Node4&#45;&gt;Node5 -->
<g id="edge4" class="edge">
<title>Node4&#45;&gt;Node5</title>
<path fill="none" stroke="midnightblue" d="M299.71,-224.44C260.02,-215.08 196.29,-200.06 153.09,-189.87"/>
<polygon fill="midnightblue" stroke="midnightblue" points="153.65,-186.41 143.12,-187.52 152.05,-193.22 153.65,-186.41"/>
</g>
<!-- Node4&#45;&gt;Node6 -->
<g id="edge16" class="edge">
<title>Node4&#45;&gt;Node6</title>
<path fill="none" stroke="midnightblue" d="M347.92,-224.32C358.38,-216.09 373.25,-202.82 382,-188 412.63,-136.1 447.59,-105.35 413,-56 396.45,-32.39 366.18,-21.12 339.69,-15.76"/>
<polygon fill="midnightblue" stroke="midnightblue" points="340.22,-12.3 329.76,-13.98 338.99,-19.19 340.22,-12.3"/>
</g>
<!-- Node7 -->
<g id="node7" class="node">
<title>Node7</title>
<g id="a_node7"><a xlink:href="mtx_8h.html" target="_top" xlink:title=" ">
<polygon fill="white" stroke="black" points="265,-168.5 265,-187.5 357,-187.5 357,-168.5 265,-168.5"/>
<text text-anchor="middle" x="311" y="-175.5" font-family="Helvetica,sans-Serif" font-size="10.00">dolphin/mtx/mtx.h</text>
</a>
</g>
</g>
<!-- Node4&#45;&gt;Node7 -->
<g id="edge6" class="edge">
<title>Node4&#45;&gt;Node7</title>
<path fill="none" stroke="midnightblue" d="M331.87,-224.08C328.49,-216.77 323.58,-206.18 319.38,-197.1"/>
<polygon fill="midnightblue" stroke="midnightblue" points="322.43,-195.36 315.05,-187.75 316.08,-198.3 322.43,-195.36"/>
</g>
<!-- Node8 -->
<g id="node8" class="node">
<title>Node8</title>
<g id="a_node8"><a xlink:href="mtx44_8h.html" target="_top" xlink:title=" ">
<polygon fill="white" stroke="black" points="66.5,-112.5 66.5,-131.5 169.5,-131.5 169.5,-112.5 66.5,-112.5"/>
<text text-anchor="middle" x="118" y="-119.5" font-family="Helvetica,sans-Serif" font-size="10.00">dolphin/mtx/mtx44.h</text>
</a>
</g>
</g>
<!-- Node4&#45;&gt;Node8 -->
<g id="edge15" class="edge">
<title>Node4&#45;&gt;Node8</title>
<path fill="none" stroke="midnightblue" d="M318.89,-224.37C280.93,-205.21 189.42,-159.04 144.19,-136.22"/>
<polygon fill="midnightblue" stroke="midnightblue" points="145.53,-132.97 135.03,-131.59 142.38,-139.22 145.53,-132.97"/>
</g>
<!-- Node11 -->
<g id="node11" class="node">
<title>Node11</title>
<g id="a_node11"><a xlink:href="global_8h.html" target="_top" xlink:title=" ">
<polygon fill="white" stroke="black" points="354,-56.5 354,-75.5 404,-75.5 404,-56.5 354,-56.5"/>
<text text-anchor="middle" x="379" y="-63.5" font-family="Helvetica,sans-Serif" font-size="10.00">global.h</text>
</a>
</g>
</g>
<!-- Node4&#45;&gt;Node11 -->
<g id="edge17" class="edge">
<title>Node4&#45;&gt;Node11</title>
<path fill="none" stroke="midnightblue" d="M343.6,-224.4C350.7,-215.82 360.95,-201.95 366,-188 378.49,-153.52 380.02,-110.16 379.71,-85.82"/>
<polygon fill="midnightblue" stroke="midnightblue" points="383.2,-85.43 379.45,-75.52 376.2,-85.61 383.2,-85.43"/>
</g>
<!-- Node5&#45;&gt;Node6 -->
<g id="edge5" class="edge">
<title>Node5&#45;&gt;Node6</title>
<path fill="none" stroke="midnightblue" d="M91.96,-168.43C72.93,-156.43 44.08,-133.63 57,-112 94.64,-48.98 181.99,-25.2 238.12,-16.28"/>
<polygon fill="midnightblue" stroke="midnightblue" points="238.84,-19.71 248.21,-14.78 237.81,-12.79 238.84,-19.71"/>
</g>
<!-- Node7&#45;&gt;Node6 -->
<g id="edge14" class="edge">
<title>Node7&#45;&gt;Node6</title>
<path fill="none" stroke="midnightblue" d="M311.79,-168.36C313.37,-148.32 316.1,-97.26 307,-56 304.96,-46.76 301.24,-36.95 297.71,-28.85"/>
<polygon fill="midnightblue" stroke="midnightblue" points="300.84,-27.3 293.47,-19.69 294.49,-30.24 300.84,-27.3"/>
</g>
<!-- Node7&#45;&gt;Node8 -->
<g id="edge7" class="edge">
<title>Node7&#45;&gt;Node8</title>
<path fill="none" stroke="midnightblue" d="M280.42,-168.44C247.39,-159.2 194.61,-144.44 158.23,-134.26"/>
<polygon fill="midnightblue" stroke="midnightblue" points="159.01,-130.84 148.44,-131.52 157.13,-137.58 159.01,-130.84"/>
</g>
<!-- Node9 -->
<g id="node9" class="node">
<title>Node9</title>
<g id="a_node9"><a xlink:href="quat_8h.html" target="_top" xlink:title=" ">
<polygon fill="white" stroke="black" points="187.5,-112.5 187.5,-131.5 282.5,-131.5 282.5,-112.5 187.5,-112.5"/>
<text text-anchor="middle" x="235" y="-119.5" font-family="Helvetica,sans-Serif" font-size="10.00">dolphin/mtx/quat.h</text>
</a>
</g>
</g>
<!-- Node7&#45;&gt;Node9 -->
<g id="edge9" class="edge">
<title>Node7&#45;&gt;Node9</title>
<path fill="none" stroke="midnightblue" d="M298.79,-168.32C287.22,-160.11 269.62,-147.6 255.84,-137.81"/>
<polygon fill="midnightblue" stroke="midnightblue" points="257.61,-134.77 247.43,-131.83 253.56,-140.48 257.61,-134.77"/>
</g>
<!-- Node10 -->
<g id="node10" class="node">
<title>Node10</title>
<g id="a_node10"><a xlink:href="vec_8h.html" target="_top" xlink:title=" ">
<polygon fill="white" stroke="black" points="206,-56.5 206,-75.5 298,-75.5 298,-56.5 206,-56.5"/>
<text text-anchor="middle" x="252" y="-63.5" font-family="Helvetica,sans-Serif" font-size="10.00">dolphin/mtx/vec.h</text>
</a>
</g>
</g>
<!-- Node7&#45;&gt;Node10 -->
<g id="edge13" class="edge">
<title>Node7&#45;&gt;Node10</title>
<path fill="none" stroke="midnightblue" d="M309.48,-168.13C307.01,-155.17 301.31,-130.59 291,-112 285.13,-101.42 276.48,-91.11 268.82,-83.04"/>
<polygon fill="midnightblue" stroke="midnightblue" points="271.15,-80.42 261.62,-75.78 266.18,-85.34 271.15,-80.42"/>
</g>
<!-- Node8&#45;&gt;Node6 -->
<g id="edge8" class="edge">
<title>Node8&#45;&gt;Node6</title>
<path fill="none" stroke="midnightblue" d="M126.15,-112.06C138.79,-98.57 164.37,-72.81 190,-56 210.39,-42.62 235.41,-31.29 255.2,-23.34"/>
<polygon fill="midnightblue" stroke="midnightblue" points="256.69,-26.52 264.73,-19.61 254.14,-20 256.69,-26.52"/>
</g>
<!-- Node9&#45;&gt;Node6 -->
<g id="edge12" class="edge">
<title>Node9&#45;&gt;Node6</title>
<path fill="none" stroke="midnightblue" d="M223.65,-112.49C208.39,-99.99 184.54,-75.96 197,-56 206.76,-40.36 223.7,-30.01 240.4,-23.23"/>
<polygon fill="midnightblue" stroke="midnightblue" points="241.98,-26.38 250.15,-19.64 239.56,-19.81 241.98,-26.38"/>
</g>
<!-- Node9&#45;&gt;Node10 -->
<g id="edge10" class="edge">
<title>Node9&#45;&gt;Node10</title>
<path fill="none" stroke="midnightblue" d="M237.81,-112.08C240.08,-104.85 243.37,-94.41 246.21,-85.4"/>
<polygon fill="midnightblue" stroke="midnightblue" points="249.58,-86.34 249.25,-75.75 242.9,-84.24 249.58,-86.34"/>
</g>
<!-- Node10&#45;&gt;Node6 -->
<g id="edge11" class="edge">
<title>Node10&#45;&gt;Node6</title>
<path fill="none" stroke="midnightblue" d="M258.11,-56.08C263.28,-48.53 270.85,-37.49 277.19,-28.23"/>
<polygon fill="midnightblue" stroke="midnightblue" points="280.24,-29.98 283,-19.75 274.46,-26.02 280.24,-29.98"/>
</g>
<!-- Node11&#45;&gt;Node6 -->
<g id="edge18" class="edge">
<title>Node11&#45;&gt;Node6</title>
<path fill="none" stroke="midnightblue" d="M364.54,-56.32C350.5,-47.9 328.95,-34.97 312.46,-25.07"/>
<polygon fill="midnightblue" stroke="midnightblue" points="313.8,-21.8 303.42,-19.65 310.2,-27.8 313.8,-21.8"/>
</g>
</g>
</svg>
        <g id="navigator" transform="translate(0 0)" fill="#404254">
                <rect fill="#f2f5e9" fill-opacity="0.5" stroke="#606060" stroke-width=".5" x="0" y="0" width="60" height="60"/>
                <use id="zoomplus" xlink:href="#zoomPlus" x="17" y="9" onmousedown="handleZoom(evt,'in')"/>
                <use id="zoomminus" xlink:href="#zoomMin" x="42" y="9" onmousedown="handleZoom(evt,'out')"/>
                <use id="reset" xlink:href="#resetDef" x="30" y="36" onmousedown="handleReset()"/>
                <g id="arrowUp" xlink:href="#dirArrow" transform="translate(30 24)" onmousedown="handlePan(0,-1)">
                  <use xlink:href="#rim" fill="#404040">
                        <set attributeName="fill" to="#808080" begin="arrowUp.mouseover" end="arrowUp.mouseout"/>
                  </use>
                  <path fill="none" stroke="white" stroke-width="1.5" d="M0,-3.0v7 M-2.5,-0.5L0,-3.0L2.5,-0.5"/>
                </g>
                <g id="arrowRight" xlink:href="#dirArrow" transform="rotate(90) translate(36 -43)" onmousedown="handlePan(1,0)">
                  <use xlink:href="#rim" fill="#404040">
                        <set attributeName="fill" to="#808080" begin="arrowRight.mouseover" end="arrowRight.mouseout"/>
                  </use>
                  <path fill="none" stroke="white" stroke-width="1.5" d="M0,-3.0v7 M-2.5,-0.5L0,-3.0L2.5,-0.5"/>
                </g>
                <g id="arrowDown" xlink:href="#dirArrow" transform="rotate(180) translate(-30 -48)" onmousedown="handlePan(0,1)">
                  <use xlink:href="#rim" fill="#404040">
                        <set attributeName="fill" to="#808080" begin="arrowDown.mouseover" end="arrowDown.mouseout"/>
                  </use>
                  <path fill="none" stroke="white" stroke-width="1.5" d="M0,-3.0v7 M-2.5,-0.5L0,-3.0L2.5,-0.5"/>
                </g>
                <g id="arrowLeft" xlink:href="#dirArrow" transform="rotate(270) translate(-36 17)" onmousedown="handlePan(-1,0)">
                  <use xlink:href="#rim" fill="#404040">
                        <set attributeName="fill" to="#808080" begin="arrowLeft.mouseover" end="arrowLeft.mouseout"/>
                  </use>
                  <path fill="none" stroke="white" stroke-width="1.5" d="M0,-3.0v7 M-2.5,-0.5L0,-3.0L2.5,-0.5"/>
                </g>
        </g>
        <svg viewBox="0 0 15 15" width="100%" height="30px" preserveAspectRatio="xMaxYMin meet">
         <g id="arrow_out" transform="scale(0.3 0.3)">
          <a xlink:href="JUTTexture_8cpp__incl_org.svg" target="_base">
           <rect id="button" ry="5" rx="5" y="6" x="6" height="38" width="38"
                fill="#f2f5e9" fill-opacity="0.5" stroke="#606060" stroke-width="1.0"/>
           <path id="arrow"
             d="M 11.500037,31.436501 C 11.940474,20.09759 22.043105,11.32322 32.158766,21.979434 L 37.068811,17.246167 C 37.068811,17.246167 37.088388,32 37.088388,32 L 22.160133,31.978069 C 22.160133,31.978069 26.997745,27.140456 26.997745,27.140456 C 18.528582,18.264221 13.291696,25.230495 11.500037,31.436501 z"
             style="fill:#404040;"/>
          </a>
         </g>
        </svg>
</svg>
