<?xml version="1.0" encoding="UTF-8" standalone="no"?>
<!DOCTYPE svg PUBLIC "-//W3C//DTD SVG 1.1//EN"
 "http://www.w3.org/Graphics/SVG/1.1/DTD/svg11.dtd">
<!-- Generated by graphviz version 9.0.0 (20230911.1827)
 -->
<!-- Title: include/JSystem/JUtility/JUTVideo.h Pages: 1 -->
<!--zoomable 371 -->

<svg id="main" version="1.1" xmlns="http://www.w3.org/2000/svg" xmlns:xlink="http://www.w3.org/1999/xlink" xml:space="preserve" onload="init(evt)">
<style type="text/css"><![CDATA[
.node, .edge {opacity: 0.7;}
.node.selected, .edge.selected {opacity: 1;}
.edge:hover path { stroke: red; }
.edge:hover polygon { stroke: red; fill: red; }
]]></style>

<defs>
  <circle id="rim" cx="0" cy="0" r="7"/>
  <circle id="rim2" cx="0" cy="0" r="3.5"/>
  <g id="zoomPlus">
    <use xlink:href="#rim" fill="#404040"><set attributeName="fill" to="#808080" begin="zoomplus.mouseover" end="zoomplus.mouseout"/></use>
    <path d="M-4,0h8M0,-4v8" fill="none" stroke="white" stroke-width="1.5" pointer-events="none"/>
  </g>
  <g id="zoomMin">
    <use xlink:href="#rim" fill="#404040"><set attributeName="fill" to="#808080" begin="zoomminus.mouseover" end="zoomminus.mouseout"/></use>
    <path d="M-4,0h8" fill="none" stroke="white" stroke-width="1.5" pointer-events="none"/>
  </g>
  <g id="arrowUp" transform="translate(30 24)">
    <use xlink:href="#rim"/>
    <path pointer-events="none" fill="none" stroke="white" stroke-width="1.5" d="M0,-3.0v7 M-2.5,-0.5L0,-3.0L2.5,-0.5"/>
  </g>
  <g id="arrowRight" transform="rotate(90) translate(36 -43)">
    <use xlink:href="#rim"/>
    <path pointer-events="none" fill="none" stroke="white" stroke-width="1.5" d="M0,-3.0v7 M-2.5,-0.5L0,-3.0L2.5,-0.5"/>
  </g>
  <g id="arrowDown" transform="rotate(180) translate(-30 -48)">
    <use xlink:href="#rim"/>
    <path pointer-events="none" fill="none" stroke="white" stroke-width="1.5" d="M0,-3.0v7 M-2.5,-0.5L0,-3.0L2.5,-0.5"/>
  </g>
  <g id="arrowLeft" transform="rotate(270) translate(-36 17)">
    <use xlink:href="#rim"/>
    <path pointer-events="none" fill="none" stroke="white" stroke-width="1.5" d="M0,-3.0v7 M-2.5,-0.5L0,-3.0L2.5,-0.5"/>
  </g>
  <g id="resetDef">
    <use xlink:href="#rim2" fill="#404040"><set attributeName="fill" to="#808080" begin="reset.mouseover" end="reset.mouseout"/></use>
  </g>
</defs>
<script type="application/ecmascript">
var viewWidth = 4383;
var viewHeight = 371;
var sectionId = 'dynsection-1';
</script>
<script type="application/ecmascript" xlink:href="svg.min.js"/>
<svg id="graph" class="graph">
<g id="viewport">
<title>include/JSystem/JUtility/JUTVideo.h</title>
<!-- Node1 -->
<g id="Node000001" class="node">
<title>Node1</title>
<g id="a_Node000001"><a xlink:title=" ">
<polygon fill="#999999" stroke="#666666" points="3677.6,-363 3556.6,-363 3556.6,-332.5 3677.6,-332.5 3677.6,-363"/>
<text text-anchor="start" x="3564.6" y="-349.5" font-family="Helvetica,sans-Serif" font-size="10.00">include/JSystem/JUtility</text>
<text text-anchor="middle" x="3617.1" y="-338.25" font-family="Helvetica,sans-Serif" font-size="10.00">/JUTVideo.h</text>
</a>
</g>
</g>
<!-- Node2 -->
<g id="Node000002" class="node">
<title>Node2</title>
<g id="a_Node000002"><a xlink:href="JUTXfb_8h.html" target="_top" xlink:title=" ">
<polygon fill="white" stroke="#666666" points="3399.6,-296.5 3278.6,-296.5 3278.6,-266 3399.6,-266 3399.6,-296.5"/>
<text text-anchor="start" x="3286.6" y="-283" font-family="Helvetica,sans-Serif" font-size="10.00">include/JSystem/JUtility</text>
<text text-anchor="middle" x="3339.1" y="-271.75" font-family="Helvetica,sans-Serif" font-size="10.00">/JUTXfb.h</text>
</a>
</g>
</g>
<!-- Node1&#45;&gt;Node2 -->
<g id="edge1_Node000001_Node000002" class="edge">
<title>Node1&#45;&gt;Node2</title>
<g id="a_edge1_Node000001_Node000002"><a xlink:title=" ">
<path fill="none" stroke="#63b8ff" d="M3545.24,-330.08C3500.07,-319.6 3442.47,-306.23 3399.64,-296.3"/>
<polygon fill="#63b8ff" stroke="#63b8ff" points="3544.43,-333.48 3554.96,-332.33 3546.01,-326.66 3544.43,-333.48"/>
</a>
</g>
</g>
<!-- Node41 -->
<g id="Node000041" class="node">
<title>Node41</title>
<g id="a_Node000041"><a xlink:href="JUTVideo_8cpp.html" target="_top" xlink:title=" ">
<polygon fill="white" stroke="#666666" points="3248.73,-230 3143.48,-230 3143.48,-199.5 3248.73,-199.5 3248.73,-230"/>
<text text-anchor="start" x="3151.48" y="-216.5" font-family="Helvetica,sans-Serif" font-size="10.00">libs/JSystem/JUtility</text>
<text text-anchor="middle" x="3196.1" y="-205.25" font-family="Helvetica,sans-Serif" font-size="10.00">/JUTVideo.cpp</text>
</a>
</g>
</g>
<!-- Node1&#45;&gt;Node41 -->
<g id="edge51_Node000001_Node000041" class="edge">
<title>Node1&#45;&gt;Node41</title>
<g id="a_edge51_Node000001_Node000041"><a xlink:title=" ">
<path fill="none" stroke="#63b8ff" d="M3544.66,-342.07C3457.03,-335.43 3315.5,-321.23 3269.1,-296.5 3239.91,-280.95 3216.52,-248.92 3204.63,-230.22"/>
<polygon fill="#63b8ff" stroke="#63b8ff" points="3544.38,-345.56 3554.61,-342.81 3544.9,-338.58 3544.38,-345.56"/>
</a>
</g>
</g>
<!-- Node44 -->
<g id="Node000044" class="node">
<title>Node44</title>
<g id="a_Node000044"><a xlink:href="JFWSystem_8cpp.html" target="_top" xlink:title=" ">
<polygon fill="white" stroke="#666666" points="3546.73,-296.5 3417.48,-296.5 3417.48,-266 3546.73,-266 3546.73,-296.5"/>
<text text-anchor="start" x="3425.48" y="-283" font-family="Helvetica,sans-Serif" font-size="10.00">libs/JSystem/JFramework</text>
<text text-anchor="middle" x="3482.1" y="-271.75" font-family="Helvetica,sans-Serif" font-size="10.00">/JFWSystem.cpp</text>
</a>
</g>
</g>
<!-- Node1&#45;&gt;Node44 -->
<g id="edge47_Node000001_Node000044" class="edge">
<title>Node1&#45;&gt;Node44</title>
<g id="a_edge47_Node000001_Node000044"><a xlink:title=" ">
<path fill="none" stroke="#63b8ff" d="M3576.18,-327.2C3555.73,-317.43 3531.4,-305.81 3512.61,-296.83"/>
<polygon fill="#63b8ff" stroke="#63b8ff" points="3574.57,-330.31 3585.1,-331.46 3577.59,-323.99 3574.57,-330.31"/>
</a>
</g>
</g>
<!-- Node45 -->
<g id="Node000045" class="node">
<title>Node45</title>
<g id="a_Node000045"><a xlink:href="JUTConsole_8cpp.html" target="_top" xlink:title=" ">
<polygon fill="white" stroke="#666666" points="3669.73,-296.5 3564.48,-296.5 3564.48,-266 3669.73,-266 3669.73,-296.5"/>
<text text-anchor="start" x="3572.48" y="-283" font-family="Helvetica,sans-Serif" font-size="10.00">libs/JSystem/JUtility</text>
<text text-anchor="middle" x="3617.1" y="-271.75" font-family="Helvetica,sans-Serif" font-size="10.00">/JUTConsole.cpp</text>
</a>
</g>
</g>
<!-- Node1&#45;&gt;Node45 -->
<g id="edge48_Node000001_Node000045" class="edge">
<title>Node1&#45;&gt;Node45</title>
<g id="a_edge48_Node000001_Node000045"><a xlink:title=" ">
<path fill="none" stroke="#63b8ff" d="M3617.1,-320.81C3617.1,-312.64 3617.1,-303.91 3617.1,-296.83"/>
<polygon fill="#63b8ff" stroke="#63b8ff" points="3613.6,-320.6 3617.1,-330.6 3620.6,-320.6 3613.6,-320.6"/>
</a>
</g>
</g>
<!-- Node46 -->
<g id="Node000046" class="node">
<title>Node46</title>
<g id="a_Node000046"><a xlink:href="JUTDbPrint_8cpp.html" target="_top" xlink:title=" ">
<polygon fill="white" stroke="#666666" points="3792.73,-296.5 3687.48,-296.5 3687.48,-266 3792.73,-266 3792.73,-296.5"/>
<text text-anchor="start" x="3695.48" y="-283" font-family="Helvetica,sans-Serif" font-size="10.00">libs/JSystem/JUtility</text>
<text text-anchor="middle" x="3740.1" y="-271.75" font-family="Helvetica,sans-Serif" font-size="10.00">/JUTDbPrint.cpp</text>
</a>
</g>
</g>
<!-- Node1&#45;&gt;Node46 -->
<g id="edge49_Node000001_Node000046" class="edge">
<title>Node1&#45;&gt;Node46</title>
<g id="a_edge49_Node000001_Node000046"><a xlink:title=" ">
<path fill="none" stroke="#63b8ff" d="M3655.16,-326.79C3673.63,-317.11 3695.42,-305.68 3712.3,-296.83"/>
<polygon fill="#63b8ff" stroke="#63b8ff" points="3653.58,-323.67 3646.35,-331.41 3656.83,-329.87 3653.58,-323.67"/>
</a>
</g>
</g>
<!-- Node47 -->
<g id="Node000047" class="node">
<title>Node47</title>
<g id="a_Node000047"><a xlink:href="JUTProcBar_8cpp.html" target="_top" xlink:title=" ">
<polygon fill="white" stroke="#666666" points="3915.73,-296.5 3810.48,-296.5 3810.48,-266 3915.73,-266 3915.73,-296.5"/>
<text text-anchor="start" x="3818.48" y="-283" font-family="Helvetica,sans-Serif" font-size="10.00">libs/JSystem/JUtility</text>
<text text-anchor="middle" x="3863.1" y="-271.75" font-family="Helvetica,sans-Serif" font-size="10.00">/JUTProcBar.cpp</text>
</a>
</g>
</g>
<!-- Node1&#45;&gt;Node47 -->
<g id="edge50_Node000001_Node000047" class="edge">
<title>Node1&#45;&gt;Node47</title>
<g id="a_edge50_Node000001_Node000047"><a xlink:title=" ">
<path fill="none" stroke="#63b8ff" d="M3684.13,-329.18C3723.77,-318.78 3773.27,-305.8 3810.16,-296.13"/>
<polygon fill="#63b8ff" stroke="#63b8ff" points="3683.48,-325.73 3674.69,-331.65 3685.25,-332.5 3683.48,-325.73"/>
</a>
</g>
</g>
<!-- Node48 -->
<g id="Node000048" class="node">
<title>Node48</title>
<g id="a_Node000048"><a xlink:href="m__Do__machine_8cpp.html" target="_top" xlink:title=" ">
<polygon fill="white" stroke="#666666" points="4080.35,-290.88 3933.85,-290.88 3933.85,-271.62 4080.35,-271.62 4080.35,-290.88"/>
<text text-anchor="middle" x="4007.1" y="-277.38" font-family="Helvetica,sans-Serif" font-size="10.00">src/m_Do/m_Do_machine.cpp</text>
</a>
</g>
</g>
<!-- Node1&#45;&gt;Node48 -->
<g id="edge52_Node000001_Node000048" class="edge">
<title>Node1&#45;&gt;Node48</title>
<g id="a_edge52_Node000001_Node000048"><a xlink:title=" ">
<path fill="none" stroke="#63b8ff" d="M3689.21,-335.2C3751.65,-325.15 3844.38,-310.1 3925.1,-296.5 3934.93,-294.84 3945.42,-293.05 3955.5,-291.3"/>
<polygon fill="#63b8ff" stroke="#63b8ff" points="3688.72,-331.74 3679.4,-336.78 3689.83,-338.65 3688.72,-331.74"/>
</a>
</g>
</g>
<!-- Node3 -->
<g id="Node000003" class="node">
<title>Node3</title>
<g id="a_Node000003"><a xlink:href="JFWDisplay_8h.html" target="_top" xlink:title=" ">
<polygon fill="white" stroke="#666666" points="3411.6,-230 3266.6,-230 3266.6,-199.5 3411.6,-199.5 3411.6,-230"/>
<text text-anchor="start" x="3274.6" y="-216.5" font-family="Helvetica,sans-Serif" font-size="10.00">include/JSystem/JFramework</text>
<text text-anchor="middle" x="3339.1" y="-205.25" font-family="Helvetica,sans-Serif" font-size="10.00">/JFWDisplay.h</text>
</a>
</g>
</g>
<!-- Node2&#45;&gt;Node3 -->
<g id="edge2_Node000002_Node000003" class="edge">
<title>Node2&#45;&gt;Node3</title>
<g id="a_edge2_Node000002_Node000003"><a xlink:title=" ">
<path fill="none" stroke="#63b8ff" d="M3339.1,-254.31C3339.1,-246.14 3339.1,-237.41 3339.1,-230.33"/>
<polygon fill="#63b8ff" stroke="#63b8ff" points="3335.6,-254.1 3339.1,-264.1 3342.6,-254.1 3335.6,-254.1"/>
</a>
</g>
</g>
<!-- Node2&#45;&gt;Node41 -->
<g id="edge44_Node000002_Node000041" class="edge">
<title>Node2&#45;&gt;Node41</title>
<g id="a_edge44_Node000002_Node000041"><a xlink:title=" ">
<path fill="none" stroke="#63b8ff" d="M3296.35,-260.97C3274.56,-251.14 3248.51,-239.39 3228.42,-230.33"/>
<polygon fill="#63b8ff" stroke="#63b8ff" points="3294.72,-264.07 3305.27,-264.99 3297.6,-257.69 3294.72,-264.07"/>
</a>
</g>
</g>
<!-- Node42 -->
<g id="Node000042" class="node">
<title>Node42</title>
<g id="a_Node000042"><a xlink:href="JUTXfb_8cpp.html" target="_top" xlink:title=" ">
<polygon fill="white" stroke="#666666" points="3534.73,-230 3429.48,-230 3429.48,-199.5 3534.73,-199.5 3534.73,-230"/>
<text text-anchor="start" x="3437.48" y="-216.5" font-family="Helvetica,sans-Serif" font-size="10.00">libs/JSystem/JUtility</text>
<text text-anchor="middle" x="3482.1" y="-205.25" font-family="Helvetica,sans-Serif" font-size="10.00">/JUTXfb.cpp</text>
</a>
</g>
</g>
<!-- Node2&#45;&gt;Node42 -->
<g id="edge45_Node000002_Node000042" class="edge">
<title>Node2&#45;&gt;Node42</title>
<g id="a_edge45_Node000002_Node000042"><a xlink:title=" ">
<path fill="none" stroke="#63b8ff" d="M3381.86,-260.97C3403.64,-251.14 3429.69,-239.39 3449.78,-230.33"/>
<polygon fill="#63b8ff" stroke="#63b8ff" points="3380.61,-257.69 3372.93,-264.99 3383.48,-264.07 3380.61,-257.69"/>
</a>
</g>
</g>
<!-- Node43 -->
<g id="Node000043" class="node">
<title>Node43</title>
<g id="a_Node000043"><a xlink:href="m__Do__Reset_8cpp.html" target="_top" xlink:title=" ">
<polygon fill="white" stroke="#666666" points="3687.73,-224.38 3552.48,-224.38 3552.48,-205.12 3687.73,-205.12 3687.73,-224.38"/>
<text text-anchor="middle" x="3620.1" y="-210.88" font-family="Helvetica,sans-Serif" font-size="10.00">src/m_Do/m_Do_Reset.cpp</text>
</a>
</g>
</g>
<!-- Node2&#45;&gt;Node43 -->
<g id="edge46_Node000002_Node000043" class="edge">
<title>Node2&#45;&gt;Node43</title>
<g id="a_edge46_Node000002_Node000043"><a xlink:title=" ">
<path fill="none" stroke="#63b8ff" d="M3411.28,-263.68C3465.11,-251.33 3536.63,-234.91 3580.46,-224.85"/>
<polygon fill="#63b8ff" stroke="#63b8ff" points="3410.51,-260.27 3401.55,-265.92 3412.08,-267.09 3410.51,-260.27"/>
</a>
</g>
</g>
<!-- Node4 -->
<g id="Node000004" class="node">
<title>Node4</title>
<g id="a_Node000004"><a xlink:href="m__Do__graphic_8h.html" target="_top" xlink:title=" ">
<polygon fill="white" stroke="#666666" points="2341.1,-157.88 2193.1,-157.88 2193.1,-138.62 2341.1,-138.62 2341.1,-157.88"/>
<text text-anchor="middle" x="2267.1" y="-144.38" font-family="Helvetica,sans-Serif" font-size="10.00">include/m_Do/m_Do_graphic.h</text>
</a>
</g>
</g>
<!-- Node3&#45;&gt;Node4 -->
<g id="edge3_Node000003_Node000004" class="edge">
<title>Node3&#45;&gt;Node4</title>
<g id="a_edge3_Node000003_Node000004"><a xlink:title=" ">
<path fill="none" stroke="#63b8ff" d="M3255.03,-199.24C2908.23,-160.81 2504.77,-151.97 2341.32,-149.89"/>
<polygon fill="#63b8ff" stroke="#63b8ff" points="3254.47,-202.7 3264.8,-200.34 3255.25,-195.75 3254.47,-202.7"/>
</a>
</g>
</g>
<!-- Node30 -->
<g id="Node000030" class="node">
<title>Node30</title>
<g id="a_Node000030"><a xlink:href="d__ovlp__fade_8cpp.html" target="_top" xlink:title=" ">
<polygon fill="white" stroke="#666666" points="4375.23,-91.38 4242.98,-91.38 4242.98,-72.12 4375.23,-72.12 4375.23,-91.38"/>
<text text-anchor="middle" x="4309.1" y="-77.88" font-family="Helvetica,sans-Serif" font-size="10.00">src/d/ovlp/d_ovlp_fade.cpp</text>
</a>
</g>
</g>
<!-- Node3&#45;&gt;Node30 -->
<g id="edge43_Node000003_Node000030" class="edge">
<title>Node3&#45;&gt;Node30</title>
<g id="a_edge43_Node000003_Node000030"><a xlink:title=" ">
<path fill="none" stroke="#63b8ff" d="M3337.67,-187.74C3338.21,-169.46 3342.33,-146.03 3358.1,-133 3395.44,-102.15 4180.96,-102.26 4229.1,-97 4240.6,-95.74 4252.94,-93.83 4264.4,-91.81"/>
<polygon fill="#63b8ff" stroke="#63b8ff" points="3334.17,-187.63 3337.74,-197.6 3341.17,-187.58 3334.17,-187.63"/>
</a>
</g>
</g>
<!-- Node40 -->
<g id="Node000040" class="node">
<title>Node40</title>
<g id="a_Node000040"><a xlink:href="JFWDisplay_8cpp.html" target="_top" xlink:title=" ">
<polygon fill="white" stroke="#666666" points="3496.73,-163.5 3367.48,-163.5 3367.48,-133 3496.73,-133 3496.73,-163.5"/>
<text text-anchor="start" x="3375.48" y="-150" font-family="Helvetica,sans-Serif" font-size="10.00">libs/JSystem/JFramework</text>
<text text-anchor="middle" x="3432.1" y="-138.75" font-family="Helvetica,sans-Serif" font-size="10.00">/JFWDisplay.cpp</text>
</a>
</g>
</g>
<!-- Node3&#45;&gt;Node40 -->
<g id="edge42_Node000003_Node000040" class="edge">
<title>Node3&#45;&gt;Node40</title>
<g id="a_edge42_Node000003_Node000040"><a xlink:title=" ">
<path fill="none" stroke="#63b8ff" d="M3369.64,-192.57C3383.21,-183.16 3398.85,-172.31 3411.08,-163.83"/>
<polygon fill="#63b8ff" stroke="#63b8ff" points="3367.67,-189.68 3361.45,-198.25 3371.66,-195.43 3367.67,-189.68"/>
</a>
</g>
</g>
<!-- Node5 -->
<g id="Node000005" class="node">
<title>Node5</title>
<g id="a_Node000005"><a xlink:href="d__menu__window_8h.html" target="_top" xlink:title=" ">
<polygon fill="white" stroke="#666666" points="4148.85,-97 4029.35,-97 4029.35,-66.5 4148.85,-66.5 4148.85,-97"/>
<text text-anchor="start" x="4037.35" y="-83.5" font-family="Helvetica,sans-Serif" font-size="10.00">include/d/menu/d_menu</text>
<text text-anchor="middle" x="4089.1" y="-72.25" font-family="Helvetica,sans-Serif" font-size="10.00">_window.h</text>
</a>
</g>
</g>
<!-- Node4&#45;&gt;Node5 -->
<g id="edge4_Node000004_Node000005" class="edge">
<title>Node4&#45;&gt;Node5</title>
<g id="a_edge4_Node000004_Node000005"><a xlink:title=" ">
<path fill="none" stroke="#63b8ff" d="M2352.52,-146.78C2657.42,-144.8 3691.48,-135.34 4020.1,-97 4023.02,-96.66 4025.99,-96.26 4028.99,-95.81"/>
<polygon fill="#63b8ff" stroke="#63b8ff" points="2352.61,-143.28 2342.63,-146.84 2352.66,-150.28 2352.61,-143.28"/>
</a>
</g>
</g>
<!-- Node6 -->
<g id="Node000006" class="node">
<title>Node6</title>
<g id="a_Node000006"><a xlink:href="d__menu__collect_8cpp.html" target="_top" xlink:title=" ">
<polygon fill="white" stroke="#666666" points="1925.1,-24.88 1771.1,-24.88 1771.1,-5.63 1925.1,-5.63 1925.1,-24.88"/>
<text text-anchor="middle" x="1848.1" y="-11.38" font-family="Helvetica,sans-Serif" font-size="10.00">src/d/menu/d_menu_collect.cpp</text>
</a>
</g>
</g>
<!-- Node4&#45;&gt;Node6 -->
<g id="edge20_Node000004_Node000006" class="edge">
<title>Node4&#45;&gt;Node6</title>
<g id="a_edge20_Node000004_Node000006"><a xlink:title=" ">
<path fill="none" stroke="#63b8ff" d="M2181.27,-146.97C1773.02,-145.43 45.81,-136.58 7.1,-97 -2.38,-87.31 -2.35,-76.22 7.1,-66.5 38.33,-34.41 1425.19,-20 1770.75,-16.9"/>
<polygon fill="#63b8ff" stroke="#63b8ff" points="2181.15,-150.47 2191.16,-147.01 2181.18,-143.47 2181.15,-150.47"/>
</a>
</g>
</g>
<!-- Node7 -->
<g id="Node000007" class="node">
<title>Node7</title>
<g id="a_Node000007"><a xlink:href="d__menu__option_8cpp.html" target="_top" xlink:title=" ">
<polygon fill="white" stroke="#666666" points="4208.98,-24.88 4057.23,-24.88 4057.23,-5.63 4208.98,-5.63 4208.98,-24.88"/>
<text text-anchor="middle" x="4133.1" y="-11.38" font-family="Helvetica,sans-Serif" font-size="10.00">src/d/menu/d_menu_option.cpp</text>
</a>
</g>
</g>
<!-- Node4&#45;&gt;Node7 -->
<g id="edge25_Node000004_Node000007" class="edge">
<title>Node4&#45;&gt;Node7</title>
<g id="a_edge25_Node000004_Node000007"><a xlink:title=" ">
<path fill="none" stroke="#63b8ff" d="M2352.73,-145.77C2719.76,-139.34 4142.14,-113.39 4158.1,-97 4177.66,-76.92 4154.12,-41.85 4140.9,-25.34"/>
<polygon fill="#63b8ff" stroke="#63b8ff" points="2352.86,-142.27 2342.92,-145.94 2352.98,-149.27 2352.86,-142.27"/>
</a>
</g>
</g>
<!-- Node8 -->
<g id="Node000008" class="node">
<title>Node8</title>
<g id="a_Node000008"><a xlink:href="d__menu__ring_8cpp.html" target="_top" xlink:title=" ">
<polygon fill="white" stroke="#666666" points="4368.73,-24.88 4227.48,-24.88 4227.48,-5.63 4368.73,-5.63 4368.73,-24.88"/>
<text text-anchor="middle" x="4298.1" y="-11.38" font-family="Helvetica,sans-Serif" font-size="10.00">src/d/menu/d_menu_ring.cpp</text>
</a>
</g>
</g>
<!-- Node4&#45;&gt;Node8 -->
<g id="edge26_Node000004_Node000008" class="edge">
<title>Node4&#45;&gt;Node8</title>
<g id="a_edge26_Node000004_Node000008"><a xlink:title=" ">
<path fill="none" stroke="#63b8ff" d="M2352.85,-146.3C2712.8,-142.14 4087.22,-124.53 4175.1,-97 4199.36,-89.4 4260.23,-44.82 4286.13,-25.35"/>
<polygon fill="#63b8ff" stroke="#63b8ff" points="2352.96,-142.8 2343,-146.41 2353.04,-149.8 2352.96,-142.8"/>
</a>
</g>
</g>
<!-- Node11 -->
<g id="Node000011" class="node">
<title>Node11</title>
<g id="a_Node000011"><a xlink:href="d__com__inf__game_8cpp.html" target="_top" xlink:title=" ">
<polygon fill="white" stroke="#666666" points="123.85,-97 16.35,-97 16.35,-66.5 123.85,-66.5 123.85,-97"/>
<text text-anchor="start" x="24.35" y="-83.5" font-family="Helvetica,sans-Serif" font-size="10.00">src/d/com/d_com_inf</text>
<text text-anchor="middle" x="70.1" y="-72.25" font-family="Helvetica,sans-Serif" font-size="10.00">_game.cpp</text>
</a>
</g>
</g>
<!-- Node4&#45;&gt;Node11 -->
<g id="edge10_Node000004_Node000011" class="edge">
<title>Node4&#45;&gt;Node11</title>
<g id="a_edge10_Node000004_Node000011"><a xlink:title=" ">
<path fill="none" stroke="#63b8ff" d="M2181.37,-147.51C1835.21,-148.19 539.6,-147.25 133.1,-97 130.21,-96.64 127.25,-96.21 124.28,-95.72"/>
<polygon fill="#63b8ff" stroke="#63b8ff" points="2181.29,-151.01 2191.29,-147.49 2181.28,-144.01 2181.29,-151.01"/>
</a>
</g>
</g>
<!-- Node12 -->
<g id="Node000012" class="node">
<title>Node12</title>
<g id="a_Node000012"><a xlink:href="d__camera_8cpp.html" target="_top" xlink:title=" ">
<polygon fill="white" stroke="#666666" points="243.85,-91.38 142.35,-91.38 142.35,-72.12 243.85,-72.12 243.85,-91.38"/>
<text text-anchor="middle" x="193.1" y="-77.88" font-family="Helvetica,sans-Serif" font-size="10.00">src/d/d_camera.cpp</text>
</a>
</g>
</g>
<!-- Node4&#45;&gt;Node12 -->
<g id="edge11_Node000004_Node000012" class="edge">
<title>Node4&#45;&gt;Node12</title>
<g id="a_edge11_Node000004_Node000012"><a xlink:title=" ">
<path fill="none" stroke="#63b8ff" d="M2181.2,-147.53C1847.06,-148.25 633.65,-147.26 252.1,-97 243.33,-95.84 233.96,-93.91 225.33,-91.84"/>
<polygon fill="#63b8ff" stroke="#63b8ff" points="2181.21,-151.03 2191.2,-147.51 2181.19,-144.03 2181.21,-151.03"/>
</a>
</g>
</g>
<!-- Node13 -->
<g id="Node000013" class="node">
<title>Node13</title>
<g id="a_Node000013"><a xlink:href="d__demo_8cpp.html" target="_top" xlink:title=" ">
<polygon fill="white" stroke="#666666" points="354.73,-91.38 261.48,-91.38 261.48,-72.12 354.73,-72.12 354.73,-91.38"/>
<text text-anchor="middle" x="308.1" y="-77.88" font-family="Helvetica,sans-Serif" font-size="10.00">src/d/d_demo.cpp</text>
</a>
</g>
</g>
<!-- Node4&#45;&gt;Node13 -->
<g id="edge12_Node000004_Node000013" class="edge">
<title>Node4&#45;&gt;Node13</title>
<g id="a_edge12_Node000004_Node000013"><a xlink:title=" ">
<path fill="none" stroke="#63b8ff" d="M2181.6,-147.57C1859.79,-148.37 721.59,-147.5 363.1,-97 354.9,-95.84 346.15,-93.91 338.11,-91.84"/>
<polygon fill="#63b8ff" stroke="#63b8ff" points="2181.19,-151.07 2191.19,-147.54 2181.18,-144.07 2181.19,-151.07"/>
</a>
</g>
</g>
<!-- Node14 -->
<g id="Node000014" class="node">
<title>Node14</title>
<g id="a_Node000014"><a xlink:href="d__drawlist_8cpp.html" target="_top" xlink:title=" ">
<polygon fill="white" stroke="#666666" points="475.6,-91.38 372.6,-91.38 372.6,-72.12 475.6,-72.12 475.6,-91.38"/>
<text text-anchor="middle" x="424.1" y="-77.88" font-family="Helvetica,sans-Serif" font-size="10.00">src/d/d_drawlist.cpp</text>
</a>
</g>
</g>
<!-- Node4&#45;&gt;Node14 -->
<g id="edge13_Node000004_Node000014" class="edge">
<title>Node4&#45;&gt;Node14</title>
<g id="a_edge13_Node000004_Node000014"><a xlink:title=" ">
<path fill="none" stroke="#63b8ff" d="M2181.75,-147.12C1873.6,-146.29 819.17,-140.28 485.1,-97 476.04,-95.83 466.36,-93.89 457.44,-91.81"/>
<polygon fill="#63b8ff" stroke="#63b8ff" points="2181.3,-150.62 2191.31,-147.14 2181.32,-143.62 2181.3,-150.62"/>
</a>
</g>
</g>
<!-- Node15 -->
<g id="Node000015" class="node">
<title>Node15</title>
<g id="a_Node000015"><a xlink:href="d__gameover_8cpp.html" target="_top" xlink:title=" ">
<polygon fill="white" stroke="#666666" points="606.1,-91.38 494.1,-91.38 494.1,-72.12 606.1,-72.12 606.1,-91.38"/>
<text text-anchor="middle" x="550.1" y="-77.88" font-family="Helvetica,sans-Serif" font-size="10.00">src/d/d_gameover.cpp</text>
</a>
</g>
</g>
<!-- Node4&#45;&gt;Node15 -->
<g id="edge14_Node000004_Node000015" class="edge">
<title>Node4&#45;&gt;Node15</title>
<g id="a_edge14_Node000004_Node000015"><a xlink:title=" ">
<path fill="none" stroke="#63b8ff" d="M2181.19,-146.74C1887.2,-144.67 922.63,-135.05 615.1,-97 605.58,-95.82 595.41,-93.91 586,-91.86"/>
<polygon fill="#63b8ff" stroke="#63b8ff" points="2181.07,-150.24 2191.1,-146.81 2181.12,-143.24 2181.07,-150.24"/>
</a>
</g>
</g>
<!-- Node16 -->
<g id="Node000016" class="node">
<title>Node16</title>
<g id="a_Node000016"><a xlink:href="d__resorce_8cpp.html" target="_top" xlink:title=" ">
<polygon fill="white" stroke="#666666" points="725.85,-91.38 624.35,-91.38 624.35,-72.12 725.85,-72.12 725.85,-91.38"/>
<text text-anchor="middle" x="675.1" y="-77.88" font-family="Helvetica,sans-Serif" font-size="10.00">src/d/d_resorce.cpp</text>
</a>
</g>
</g>
<!-- Node4&#45;&gt;Node16 -->
<g id="edge15_Node000004_Node000016" class="edge">
<title>Node4&#45;&gt;Node16</title>
<g id="a_edge15_Node000004_Node000016"><a xlink:title=" ">
<path fill="none" stroke="#63b8ff" d="M2181.78,-146.7C1902.59,-144.55 1018.02,-134.85 735.1,-97 726.29,-95.82 716.89,-93.91 708.2,-91.86"/>
<polygon fill="#63b8ff" stroke="#63b8ff" points="2181.5,-150.2 2191.52,-146.77 2181.55,-143.2 2181.5,-150.2"/>
</a>
</g>
</g>
<!-- Node17 -->
<g id="Node000017" class="node">
<title>Node17</title>
<g id="a_Node000017"><a xlink:href="d__event_8cpp.html" target="_top" xlink:title=" ">
<polygon fill="white" stroke="#666666" points="864.23,-91.38 743.98,-91.38 743.98,-72.12 864.23,-72.12 864.23,-91.38"/>
<text text-anchor="middle" x="804.1" y="-77.88" font-family="Helvetica,sans-Serif" font-size="10.00">src/d/event/d_event.cpp</text>
</a>
</g>
</g>
<!-- Node4&#45;&gt;Node17 -->
<g id="edge16_Node000004_Node000017" class="edge">
<title>Node4&#45;&gt;Node17</title>
<g id="a_edge16_Node000004_Node000017"><a xlink:title=" ">
<path fill="none" stroke="#63b8ff" d="M2181.58,-146.05C1919.26,-142.06 1128.37,-127.74 873.1,-97 863.02,-95.79 852.22,-93.86 842.24,-91.81"/>
<polygon fill="#63b8ff" stroke="#63b8ff" points="2181.36,-149.54 2191.41,-146.19 2181.46,-142.54 2181.36,-149.54"/>
</a>
</g>
</g>
<!-- Node18 -->
<g id="Node000018" class="node">
<title>Node18</title>
<g id="a_Node000018"><a xlink:href="d__event__data_8cpp.html" target="_top" xlink:title=" ">
<polygon fill="white" stroke="#666666" points="984.23,-97 881.98,-97 881.98,-66.5 984.23,-66.5 984.23,-97"/>
<text text-anchor="start" x="889.98" y="-83.5" font-family="Helvetica,sans-Serif" font-size="10.00">src/d/event/d_event</text>
<text text-anchor="middle" x="933.1" y="-72.25" font-family="Helvetica,sans-Serif" font-size="10.00">_data.cpp</text>
</a>
</g>
</g>
<!-- Node4&#45;&gt;Node18 -->
<g id="edge17_Node000004_Node000018" class="edge">
<title>Node4&#45;&gt;Node18</title>
<g id="a_edge17_Node000004_Node000018"><a xlink:title=" ">
<path fill="none" stroke="#63b8ff" d="M2181.36,-146.03C1934.25,-142.18 1223.55,-128.61 993.1,-97 990.34,-96.62 987.53,-96.17 984.69,-95.67"/>
<polygon fill="#63b8ff" stroke="#63b8ff" points="2181.21,-149.53 2191.26,-146.19 2181.32,-142.53 2181.21,-149.53"/>
</a>
</g>
</g>
<!-- Node19 -->
<g id="Node000019" class="node">
<title>Node19</title>
<g id="a_Node000019"><a xlink:href="d__file__select_8cpp.html" target="_top" xlink:title=" ">
<polygon fill="white" stroke="#666666" points="1129.98,-91.38 1002.23,-91.38 1002.23,-72.12 1129.98,-72.12 1129.98,-91.38"/>
<text text-anchor="middle" x="1066.1" y="-77.88" font-family="Helvetica,sans-Serif" font-size="10.00">src/d/file/d_file_select.cpp</text>
</a>
</g>
</g>
<!-- Node4&#45;&gt;Node19 -->
<g id="edge18_Node000004_Node000019" class="edge">
<title>Node4&#45;&gt;Node19</title>
<g id="a_edge18_Node000004_Node000019"><a xlink:title=" ">
<path fill="none" stroke="#63b8ff" d="M2181.38,-147.75C1992.44,-147.92 1526.14,-143.14 1139.1,-97 1128.59,-95.75 1117.32,-93.83 1106.86,-91.81"/>
<polygon fill="#63b8ff" stroke="#63b8ff" points="2181.38,-151.25 2191.37,-147.74 2181.37,-144.25 2181.38,-151.25"/>
</a>
</g>
</g>
<!-- Node20 -->
<g id="Node000020" class="node">
<title>Node20</title>
<g id="a_Node000020"><a xlink:href="d__kankyo_8cpp.html" target="_top" xlink:title=" ">
<polygon fill="white" stroke="#666666" points="1281.98,-91.38 1148.23,-91.38 1148.23,-72.12 1281.98,-72.12 1281.98,-91.38"/>
<text text-anchor="middle" x="1215.1" y="-77.88" font-family="Helvetica,sans-Serif" font-size="10.00">src/d/kankyo/d_kankyo.cpp</text>
</a>
</g>
</g>
<!-- Node4&#45;&gt;Node20 -->
<g id="edge19_Node000004_Node000020" class="edge">
<title>Node4&#45;&gt;Node20</title>
<g id="a_edge19_Node000004_Node000020"><a xlink:title=" ">
<path fill="none" stroke="#63b8ff" d="M2181.36,-146.69C2011.07,-144.72 1618.44,-135.94 1291.1,-97 1280.3,-95.72 1268.73,-93.82 1257.95,-91.82"/>
<polygon fill="#63b8ff" stroke="#63b8ff" points="2181.19,-150.18 2191.23,-146.79 2181.26,-143.18 2181.19,-150.18"/>
</a>
</g>
</g>
<!-- Node21 -->
<g id="Node000021" class="node">
<title>Node21</title>
<g id="a_Node000021"><a xlink:href="d__menu__fishing_8cpp.html" target="_top" xlink:title=" ">
<polygon fill="white" stroke="#666666" points="1453.73,-91.38 1300.48,-91.38 1300.48,-72.12 1453.73,-72.12 1453.73,-91.38"/>
<text text-anchor="middle" x="1377.1" y="-77.88" font-family="Helvetica,sans-Serif" font-size="10.00">src/d/menu/d_menu_fishing.cpp</text>
</a>
</g>
</g>
<!-- Node4&#45;&gt;Node21 -->
<g id="edge21_Node000004_Node000021" class="edge">
<title>Node4&#45;&gt;Node21</title>
<g id="a_edge21_Node000004_Node000021"><a xlink:title=" ">
<path fill="none" stroke="#63b8ff" d="M2181.44,-144.76C2034.21,-139.84 1723.8,-126.67 1463.1,-97 1451.22,-95.65 1438.48,-93.77 1426.55,-91.83"/>
<polygon fill="#63b8ff" stroke="#63b8ff" points="2180.99,-148.25 2191.1,-145.08 2181.22,-141.25 2180.99,-148.25"/>
</a>
</g>
</g>
<!-- Node22 -->
<g id="Node000022" class="node">
<title>Node22</title>
<g id="a_Node000022"><a xlink:href="d__menu__insect_8cpp.html" target="_top" xlink:title=" ">
<polygon fill="white" stroke="#666666" points="1623.98,-91.38 1472.23,-91.38 1472.23,-72.12 1623.98,-72.12 1623.98,-91.38"/>
<text text-anchor="middle" x="1548.1" y="-77.88" font-family="Helvetica,sans-Serif" font-size="10.00">src/d/menu/d_menu_insect.cpp</text>
</a>
</g>
</g>
<!-- Node4&#45;&gt;Node22 -->
<g id="edge22_Node000004_Node000022" class="edge">
<title>Node4&#45;&gt;Node22</title>
<g id="a_edge22_Node000004_Node000022"><a xlink:title=" ">
<path fill="none" stroke="#63b8ff" d="M2181.24,-142.82C2059.13,-135.98 1828.44,-121.07 1633.1,-97 1621.67,-95.59 1609.42,-93.74 1597.89,-91.84"/>
<polygon fill="#63b8ff" stroke="#63b8ff" points="2181.02,-146.31 2191.2,-143.37 2181.41,-139.32 2181.02,-146.31"/>
</a>
</g>
</g>
<!-- Node23 -->
<g id="Node000023" class="node">
<title>Node23</title>
<g id="a_Node000023"><a xlink:href="d__menu__item__explain_8cpp.html" target="_top" xlink:title=" ">
<polygon fill="white" stroke="#666666" points="1768.23,-97 1641.98,-97 1641.98,-66.5 1768.23,-66.5 1768.23,-97"/>
<text text-anchor="start" x="1649.98" y="-83.5" font-family="Helvetica,sans-Serif" font-size="10.00">src/d/menu/d_menu_item</text>
<text text-anchor="middle" x="1705.1" y="-72.25" font-family="Helvetica,sans-Serif" font-size="10.00">_explain.cpp</text>
</a>
</g>
</g>
<!-- Node4&#45;&gt;Node23 -->
<g id="edge23_Node000004_Node000023" class="edge">
<title>Node4&#45;&gt;Node23</title>
<g id="a_edge23_Node000004_Node000023"><a xlink:title=" ">
<path fill="none" stroke="#63b8ff" d="M2181.63,-140.91C2083.61,-133.09 1918.24,-118.16 1777.1,-97 1774.33,-96.58 1771.5,-96.14 1768.65,-95.66"/>
<polygon fill="#63b8ff" stroke="#63b8ff" points="2181.2,-144.39 2191.44,-141.69 2181.75,-137.41 2181.2,-144.39"/>
</a>
</g>
</g>
<!-- Node24 -->
<g id="Node000024" class="node">
<title>Node24</title>
<g id="a_Node000024"><a xlink:href="d__menu__letter_8cpp.html" target="_top" xlink:title=" ">
<polygon fill="white" stroke="#666666" points="1933.73,-91.38 1786.48,-91.38 1786.48,-72.12 1933.73,-72.12 1933.73,-91.38"/>
<text text-anchor="middle" x="1860.1" y="-77.88" font-family="Helvetica,sans-Serif" font-size="10.00">src/d/menu/d_menu_letter.cpp</text>
</a>
</g>
</g>
<!-- Node4&#45;&gt;Node24 -->
<g id="edge24_Node000004_Node000024" class="edge">
<title>Node4&#45;&gt;Node24</title>
<g id="a_edge24_Node000004_Node000024"><a xlink:title=" ">
<path fill="none" stroke="#63b8ff" d="M2195.4,-136.47C2129.71,-126.51 2029.8,-111.16 1943.1,-97 1933.14,-95.37 1922.53,-93.59 1912.32,-91.85"/>
<polygon fill="#63b8ff" stroke="#63b8ff" points="2194.54,-139.88 2204.95,-137.92 2195.58,-132.96 2194.54,-139.88"/>
</a>
</g>
</g>
<!-- Node25 -->
<g id="Node000025" class="node">
<title>Node25</title>
<g id="a_Node000025"><a xlink:href="d__menu__save_8cpp.html" target="_top" xlink:title=" ">
<polygon fill="white" stroke="#666666" points="2098.35,-91.38 1951.85,-91.38 1951.85,-72.12 2098.35,-72.12 2098.35,-91.38"/>
<text text-anchor="middle" x="2025.1" y="-77.88" font-family="Helvetica,sans-Serif" font-size="10.00">src/d/menu/d_menu_save.cpp</text>
</a>
</g>
</g>
<!-- Node4&#45;&gt;Node25 -->
<g id="edge27_Node000004_Node000025" class="edge">
<title>Node4&#45;&gt;Node25</title>
<g id="a_edge27_Node000004_Node000025"><a xlink:title=" ">
<path fill="none" stroke="#63b8ff" d="M2222.11,-135.26C2174.89,-122.67 2101.7,-103.17 2059.09,-91.81"/>
<polygon fill="#63b8ff" stroke="#63b8ff" points="2220.91,-138.56 2231.48,-137.76 2222.72,-131.8 2220.91,-138.56"/>
</a>
</g>
</g>
<!-- Node26 -->
<g id="Node000026" class="node">
<title>Node26</title>
<g id="a_Node000026"><a xlink:href="d__menu__skill_8cpp.html" target="_top" xlink:title=" ">
<polygon fill="white" stroke="#666666" points="2259.48,-91.38 2116.73,-91.38 2116.73,-72.12 2259.48,-72.12 2259.48,-91.38"/>
<text text-anchor="middle" x="2188.1" y="-77.88" font-family="Helvetica,sans-Serif" font-size="10.00">src/d/menu/d_menu_skill.cpp</text>
</a>
</g>
</g>
<!-- Node4&#45;&gt;Node26 -->
<g id="edge28_Node000004_Node000026" class="edge">
<title>Node4&#45;&gt;Node26</title>
<g id="a_edge28_Node000004_Node000026"><a xlink:title=" ">
<path fill="none" stroke="#63b8ff" d="M2247.45,-131.21C2232.25,-118.8 2211.75,-102.05 2199.25,-91.85"/>
<polygon fill="#63b8ff" stroke="#63b8ff" points="2244.98,-133.71 2254.94,-137.32 2249.41,-128.29 2244.98,-133.71"/>
</a>
</g>
</g>
<!-- Node27 -->
<g id="Node000027" class="node">
<title>Node27</title>
<g id="a_Node000027"><a xlink:href="d__msg__class_8cpp.html" target="_top" xlink:title=" ">
<polygon fill="white" stroke="#666666" points="2416.23,-91.38 2277.98,-91.38 2277.98,-72.12 2416.23,-72.12 2416.23,-91.38"/>
<text text-anchor="middle" x="2347.1" y="-77.88" font-family="Helvetica,sans-Serif" font-size="10.00">src/d/msg/d_msg_class.cpp</text>
</a>
</g>
</g>
<!-- Node4&#45;&gt;Node27 -->
<g id="edge29_Node000004_Node000027" class="edge">
<title>Node4&#45;&gt;Node27</title>
<g id="a_edge29_Node000004_Node000027"><a xlink:title=" ">
<path fill="none" stroke="#63b8ff" d="M2287,-131.21C2302.39,-118.8 2323.16,-102.05 2335.81,-91.85"/>
<polygon fill="#63b8ff" stroke="#63b8ff" points="2284.99,-128.33 2279.4,-137.33 2289.38,-133.78 2284.99,-128.33"/>
</a>
</g>
</g>
<!-- Node28 -->
<g id="Node000028" class="node">
<title>Node28</title>
<g id="a_Node000028"><a xlink:href="d__msg__flow_8cpp.html" target="_top" xlink:title=" ">
<polygon fill="white" stroke="#666666" points="2566.23,-91.38 2433.98,-91.38 2433.98,-72.12 2566.23,-72.12 2566.23,-91.38"/>
<text text-anchor="middle" x="2500.1" y="-77.88" font-family="Helvetica,sans-Serif" font-size="10.00">src/d/msg/d_msg_flow.cpp</text>
</a>
</g>
</g>
<!-- Node4&#45;&gt;Node28 -->
<g id="edge30_Node000004_Node000028" class="edge">
<title>Node4&#45;&gt;Node28</title>
<g id="a_edge30_Node000004_Node000028"><a xlink:title=" ">
<path fill="none" stroke="#63b8ff" d="M2310.99,-135.1C2356.48,-122.51 2426.52,-103.12 2467.38,-91.81"/>
<polygon fill="#63b8ff" stroke="#63b8ff" points="2310.15,-131.7 2301.45,-137.74 2312.02,-138.45 2310.15,-131.7"/>
</a>
</g>
</g>
<!-- Node29 -->
<g id="Node000029" class="node">
<title>Node29</title>
<g id="a_Node000029"><a xlink:href="d__msg__scrn__howl_8cpp.html" target="_top" xlink:title=" ">
<polygon fill="white" stroke="#666666" points="2699.98,-97 2584.23,-97 2584.23,-66.5 2699.98,-66.5 2699.98,-97"/>
<text text-anchor="start" x="2592.23" y="-83.5" font-family="Helvetica,sans-Serif" font-size="10.00">src/d/msg/d_msg_scrn</text>
<text text-anchor="middle" x="2642.1" y="-72.25" font-family="Helvetica,sans-Serif" font-size="10.00">_howl.cpp</text>
</a>
</g>
</g>
<!-- Node4&#45;&gt;Node29 -->
<g id="edge31_Node000004_Node000029" class="edge">
<title>Node4&#45;&gt;Node29</title>
<g id="a_edge31_Node000004_Node000029"><a xlink:title=" ">
<path fill="none" stroke="#63b8ff" d="M2339.63,-136.42C2402.16,-126.84 2494.77,-112.09 2575.1,-97 2578.02,-96.45 2581.01,-95.87 2584.03,-95.28"/>
<polygon fill="#63b8ff" stroke="#63b8ff" points="2339.17,-132.95 2329.82,-137.92 2340.23,-139.87 2339.17,-132.95"/>
</a>
</g>
</g>
<!-- Node4&#45;&gt;Node30 -->
<g id="edge32_Node000004_Node000030" class="edge">
<title>Node4&#45;&gt;Node30</title>
<g id="a_edge32_Node000004_Node000030"><a xlink:title=" ">
<path fill="none" stroke="#63b8ff" d="M2352.79,-145.82C2706.25,-139.8 4041.14,-116.04 4229.1,-97 4240.75,-95.82 4253.26,-93.91 4264.84,-91.86"/>
<polygon fill="#63b8ff" stroke="#63b8ff" points="2352.83,-142.32 2342.9,-145.99 2352.95,-149.32 2352.83,-142.32"/>
</a>
</g>
</g>
<!-- Node31 -->
<g id="Node000031" class="node">
<title>Node31</title>
<g id="a_Node000031"><a xlink:href="d__ovlp__fade2_8cpp.html" target="_top" xlink:title=" ">
<polygon fill="white" stroke="#666666" points="2855.85,-91.38 2718.35,-91.38 2718.35,-72.12 2855.85,-72.12 2855.85,-91.38"/>
<text text-anchor="middle" x="2787.1" y="-77.88" font-family="Helvetica,sans-Serif" font-size="10.00">src/d/ovlp/d_ovlp_fade2.cpp</text>
</a>
</g>
</g>
<!-- Node4&#45;&gt;Node31 -->
<g id="edge33_Node000004_Node000031" class="edge">
<title>Node4&#45;&gt;Node31</title>
<g id="a_edge33_Node000004_Node000031"><a xlink:title=" ">
<path fill="none" stroke="#63b8ff" d="M2353.01,-139.22C2442.24,-130.47 2585.78,-115.25 2709.1,-97 2719.18,-95.51 2729.95,-93.69 2740.16,-91.85"/>
<polygon fill="#63b8ff" stroke="#63b8ff" points="2352.72,-135.73 2343.1,-140.18 2353.39,-142.7 2352.72,-135.73"/>
</a>
</g>
</g>
<!-- Node32 -->
<g id="Node000032" class="node">
<title>Node32</title>
<g id="a_Node000032"><a xlink:href="d__ovlp__fade3_8cpp.html" target="_top" xlink:title=" ">
<polygon fill="white" stroke="#666666" points="3011.85,-91.38 2874.35,-91.38 2874.35,-72.12 3011.85,-72.12 3011.85,-91.38"/>
<text text-anchor="middle" x="2943.1" y="-77.88" font-family="Helvetica,sans-Serif" font-size="10.00">src/d/ovlp/d_ovlp_fade3.cpp</text>
</a>
</g>
</g>
<!-- Node4&#45;&gt;Node32 -->
<g id="edge34_Node000004_Node000032" class="edge">
<title>Node4&#45;&gt;Node32</title>
<g id="a_edge34_Node000004_Node000032"><a xlink:title=" ">
<path fill="none" stroke="#63b8ff" d="M2352.76,-142.67C2469.11,-135.85 2683.45,-121.17 2865.1,-97 2875.61,-95.6 2886.85,-93.76 2897.44,-91.86"/>
<polygon fill="#63b8ff" stroke="#63b8ff" points="2352.76,-139.16 2342.98,-143.24 2353.16,-146.15 2352.76,-139.16"/>
</a>
</g>
</g>
<!-- Node33 -->
<g id="Node000033" class="node">
<title>Node33</title>
<g id="a_Node000033"><a xlink:href="d__pane__class_8cpp.html" target="_top" xlink:title=" ">
<polygon fill="white" stroke="#666666" points="3172.48,-91.38 3029.73,-91.38 3029.73,-72.12 3172.48,-72.12 3172.48,-91.38"/>
<text text-anchor="middle" x="3101.1" y="-77.88" font-family="Helvetica,sans-Serif" font-size="10.00">src/d/pane/d_pane_class.cpp</text>
</a>
</g>
</g>
<!-- Node4&#45;&gt;Node33 -->
<g id="edge35_Node000004_Node000033" class="edge">
<title>Node4&#45;&gt;Node33</title>
<g id="a_edge35_Node000004_Node000033"><a xlink:title=" ">
<path fill="none" stroke="#63b8ff" d="M2352.94,-144.6C2493.18,-139.57 2779.96,-126.42 3021.1,-97 3032.16,-95.65 3044.02,-93.78 3055.12,-91.83"/>
<polygon fill="#63b8ff" stroke="#63b8ff" points="2352.85,-141.1 2342.98,-144.95 2353.1,-148.09 2352.85,-141.1"/>
</a>
</g>
</g>
<!-- Node34 -->
<g id="Node000034" class="node">
<title>Node34</title>
<g id="a_Node000034"><a xlink:href="d__particle_8cpp.html" target="_top" xlink:title=" ">
<polygon fill="white" stroke="#666666" points="3325.73,-91.38 3190.48,-91.38 3190.48,-72.12 3325.73,-72.12 3325.73,-91.38"/>
<text text-anchor="middle" x="3258.1" y="-77.88" font-family="Helvetica,sans-Serif" font-size="10.00">src/d/particle/d_particle.cpp</text>
</a>
</g>
</g>
<!-- Node4&#45;&gt;Node34 -->
<g id="edge36_Node000004_Node000034" class="edge">
<title>Node4&#45;&gt;Node34</title>
<g id="a_edge36_Node000004_Node000034"><a xlink:title=" ">
<path fill="none" stroke="#63b8ff" d="M2352.75,-146.19C2514.97,-143.39 2877.91,-133.24 3181.1,-97 3191.9,-95.71 3203.47,-93.83 3214.27,-91.86"/>
<polygon fill="#63b8ff" stroke="#63b8ff" points="2352.88,-142.69 2342.94,-146.36 2353,-149.69 2352.88,-142.69"/>
</a>
</g>
</g>
<!-- Node35 -->
<g id="Node000035" class="node">
<title>Node35</title>
<g id="a_Node000035"><a xlink:href="d__s__logo_8cpp.html" target="_top" xlink:title=" ">
<polygon fill="white" stroke="#666666" points="3450.1,-91.38 3344.1,-91.38 3344.1,-72.12 3450.1,-72.12 3450.1,-91.38"/>
<text text-anchor="middle" x="3397.1" y="-77.88" font-family="Helvetica,sans-Serif" font-size="10.00">src/d/s/d_s_logo.cpp</text>
</a>
</g>
</g>
<!-- Node4&#45;&gt;Node35 -->
<g id="edge37_Node000004_Node000035" class="edge">
<title>Node4&#45;&gt;Node35</title>
<g id="a_edge37_Node000004_Node000035"><a xlink:title=" ">
<path fill="none" stroke="#63b8ff" d="M2352.7,-145.2C2571.27,-139.65 3145.97,-122.97 3335.1,-97 3344.07,-95.77 3353.66,-93.86 3362.54,-91.84"/>
<polygon fill="#63b8ff" stroke="#63b8ff" points="2352.74,-141.7 2342.83,-145.45 2352.92,-148.7 2352.74,-141.7"/>
</a>
</g>
</g>
<!-- Node36 -->
<g id="Node000036" class="node">
<title>Node36</title>
<g id="a_Node000036"><a xlink:href="d__s__name_8cpp.html" target="_top" xlink:title=" ">
<polygon fill="white" stroke="#666666" points="3580.1,-91.38 3468.1,-91.38 3468.1,-72.12 3580.1,-72.12 3580.1,-91.38"/>
<text text-anchor="middle" x="3524.1" y="-77.88" font-family="Helvetica,sans-Serif" font-size="10.00">src/d/s/d_s_name.cpp</text>
</a>
</g>
</g>
<!-- Node4&#45;&gt;Node36 -->
<g id="edge38_Node000004_Node000036" class="edge">
<title>Node4&#45;&gt;Node36</title>
<g id="a_edge38_Node000004_Node000036"><a xlink:title=" ">
<path fill="none" stroke="#63b8ff" d="M2352.58,-145.58C2588.41,-140.65 3244.88,-124.78 3459.1,-97 3468.5,-95.78 3478.54,-93.88 3487.86,-91.86"/>
<polygon fill="#63b8ff" stroke="#63b8ff" points="2352.78,-142.07 2342.85,-145.78 2352.92,-149.07 2352.78,-142.07"/>
</a>
</g>
</g>
<!-- Node37 -->
<g id="Node000037" class="node">
<title>Node37</title>
<g id="a_Node000037"><a xlink:href="d__s__play_8cpp.html" target="_top" xlink:title=" ">
<polygon fill="white" stroke="#666666" points="3703.73,-91.38 3598.48,-91.38 3598.48,-72.12 3703.73,-72.12 3703.73,-91.38"/>
<text text-anchor="middle" x="3651.1" y="-77.88" font-family="Helvetica,sans-Serif" font-size="10.00">src/d/s/d_s_play.cpp</text>
</a>
</g>
</g>
<!-- Node4&#45;&gt;Node37 -->
<g id="edge39_Node000004_Node000037" class="edge">
<title>Node4&#45;&gt;Node37</title>
<g id="a_edge39_Node000004_Node000037"><a xlink:title=" ">
<path fill="none" stroke="#63b8ff" d="M2352.55,-146.1C2605.66,-142.36 3348.75,-128.9 3589.1,-97 3598.19,-95.79 3607.9,-93.87 3616.88,-91.83"/>
<polygon fill="#63b8ff" stroke="#63b8ff" points="2352.69,-142.6 2342.75,-146.24 2352.8,-149.6 2352.69,-142.6"/>
</a>
</g>
</g>
<!-- Node38 -->
<g id="Node000038" class="node">
<title>Node38</title>
<g id="a_Node000038"><a xlink:href="m__Do__graphic_8cpp.html" target="_top" xlink:title=" ">
<polygon fill="white" stroke="#666666" points="3862.73,-91.38 3721.48,-91.38 3721.48,-72.12 3862.73,-72.12 3862.73,-91.38"/>
<text text-anchor="middle" x="3792.1" y="-77.88" font-family="Helvetica,sans-Serif" font-size="10.00">src/m_Do/m_Do_graphic.cpp</text>
</a>
</g>
</g>
<!-- Node4&#45;&gt;Node38 -->
<g id="edge40_Node000004_Node000038" class="edge">
<title>Node4&#45;&gt;Node38</title>
<g id="a_edge40_Node000004_Node000038"><a xlink:title=" ">
<path fill="none" stroke="#63b8ff" d="M2352.56,-145.89C2621.26,-141.38 3446.86,-125.49 3713.1,-97 3724.46,-95.78 3736.65,-93.89 3747.97,-91.87"/>
<polygon fill="#63b8ff" stroke="#63b8ff" points="2352.78,-142.39 2342.84,-146.06 2352.9,-149.39 2352.78,-142.39"/>
</a>
</g>
</g>
<!-- Node39 -->
<g id="Node000039" class="node">
<title>Node39</title>
<g id="a_Node000039"><a xlink:href="m__Do__main_8cpp.html" target="_top" xlink:title=" ">
<polygon fill="white" stroke="#666666" points="4011.48,-91.38 3880.73,-91.38 3880.73,-72.12 4011.48,-72.12 4011.48,-91.38"/>
<text text-anchor="middle" x="3946.1" y="-77.88" font-family="Helvetica,sans-Serif" font-size="10.00">src/m_Do/m_Do_main.cpp</text>
</a>
</g>
</g>
<!-- Node4&#45;&gt;Node39 -->
<g id="edge41_Node000004_Node000039" class="edge">
<title>Node4&#45;&gt;Node39</title>
<g id="a_edge41_Node000004_Node000039"><a xlink:title=" ">
<path fill="none" stroke="#63b8ff" d="M2352.5,-146.37C2640.33,-143.11 3573.56,-130.2 3872.1,-97 3882.89,-95.8 3894.47,-93.88 3905.18,-91.83"/>
<polygon fill="#63b8ff" stroke="#63b8ff" points="2352.79,-142.86 2342.83,-146.48 2352.87,-149.86 2352.79,-142.86"/>
</a>
</g>
</g>
<!-- Node5&#45;&gt;Node6 -->
<g id="edge5_Node000005_Node000006" class="edge">
<title>Node5&#45;&gt;Node6</title>
<g id="a_edge5_Node000005_Node000006"><a xlink:title=" ">
<path fill="none" stroke="#63b8ff" d="M4017.85,-66.43C3579.06,-18.83 2259.12,-16.1 1925.39,-16.17"/>
<polygon fill="#63b8ff" stroke="#63b8ff" points="4017.16,-69.88 4027.49,-67.5 4017.94,-62.92 4017.16,-69.88"/>
</a>
</g>
</g>
<!-- Node5&#45;&gt;Node7 -->
<g id="edge6_Node000005_Node000007" class="edge">
<title>Node5&#45;&gt;Node7</title>
<g id="a_edge6_Node000005_Node000007"><a xlink:title=" ">
<path fill="none" stroke="#63b8ff" d="M4105.39,-56.87C4112.97,-45.77 4121.51,-33.24 4127.08,-25.07"/>
<polygon fill="#63b8ff" stroke="#63b8ff" points="4102.68,-54.63 4099.94,-64.86 4108.46,-58.58 4102.68,-54.63"/>
</a>
</g>
</g>
<!-- Node5&#45;&gt;Node8 -->
<g id="edge7_Node000005_Node000008" class="edge">
<title>Node5&#45;&gt;Node8</title>
<g id="a_edge7_Node000005_Node000008"><a xlink:title=" ">
<path fill="none" stroke="#63b8ff" d="M4147.59,-62.7C4187.02,-50.53 4237.37,-34.99 4268.68,-25.33"/>
<polygon fill="#63b8ff" stroke="#63b8ff" points="4146.76,-59.29 4138.23,-65.59 4148.82,-65.98 4146.76,-59.29"/>
</a>
</g>
</g>
<!-- Node9 -->
<g id="Node000009" class="node">
<title>Node9</title>
<g id="a_Node000009"><a xlink:href="d__menu__window_8cpp.html" target="_top" xlink:title=" ">
<polygon fill="white" stroke="#666666" points="3917.35,-24.88 3758.85,-24.88 3758.85,-5.63 3917.35,-5.63 3917.35,-24.88"/>
<text text-anchor="middle" x="3838.1" y="-11.38" font-family="Helvetica,sans-Serif" font-size="10.00">src/d/menu/d_menu_window.cpp</text>
</a>
</g>
</g>
<!-- Node5&#45;&gt;Node9 -->
<g id="edge8_Node000005_Node000009" class="edge">
<title>Node5&#45;&gt;Node9</title>
<g id="a_edge8_Node000005_Node000009"><a xlink:title=" ">
<path fill="none" stroke="#63b8ff" d="M4020.97,-63.24C3973.31,-51 3911.6,-35.14 3873.44,-25.33"/>
<polygon fill="#63b8ff" stroke="#63b8ff" points="4019.81,-66.56 4030.37,-65.66 4021.55,-59.78 4019.81,-66.56"/>
</a>
</g>
</g>
<!-- Node10 -->
<g id="Node000010" class="node">
<title>Node10</title>
<g id="a_Node000010"><a xlink:href="d__meter__map_8cpp.html" target="_top" xlink:title=" ">
<polygon fill="white" stroke="#666666" points="4038.98,-30.5 3935.23,-30.5 3935.23,0 4038.98,0 4038.98,-30.5"/>
<text text-anchor="start" x="3943.23" y="-17" font-family="Helvetica,sans-Serif" font-size="10.00">src/d/meter/d_meter</text>
<text text-anchor="middle" x="3987.1" y="-5.75" font-family="Helvetica,sans-Serif" font-size="10.00">_map.cpp</text>
</a>
</g>
</g>
<!-- Node5&#45;&gt;Node10 -->
<g id="edge9_Node000005_Node000010" class="edge">
<title>Node5&#45;&gt;Node10</title>
<g id="a_edge9_Node000005_Node000010"><a xlink:title=" ">
<path fill="none" stroke="#63b8ff" d="M4056.47,-60.11C4041.39,-50.58 4023.83,-39.48 4010.15,-30.83"/>
<polygon fill="#63b8ff" stroke="#63b8ff" points="4054.35,-62.92 4064.68,-65.31 4058.09,-57 4054.35,-62.92"/>
</a>
</g>
</g>
</g>
</svg>

<g id="navigator" transform="translate(0 0)" fill="#404254">
  <rect fill="#f2f5e9" fill-opacity="0.5" stroke="#606060" stroke-width=".5" x="0" y="0" width="60" height="60"/>
  <use id="zoomplus" xlink:href="#zoomPlus" x="17" y="9" onmousedown="handleZoom(evt,'in')"/>
  <use id="zoomminus" xlink:href="#zoomMin" x="42" y="9" onmousedown="handleZoom(evt,'out')"/>
  <use id="reset" xlink:href="#resetDef" x="30" y="36" onmousedown="handleReset()"/>
   <use id="arrowup" xlink:href="#arrowUp" x="0" y="0" onmousedown="handlePan(0,-1)"/>
  <use id="arrowright" xlink:href="#arrowRight" x="0" y="0" onmousedown="handlePan(1,0)"/>
  <use id="arrowdown" xlink:href="#arrowDown" x="0" y="0" onmousedown="handlePan(0,1)"/>
  <use id="arrowleft" xlink:href="#arrowLeft" x="0" y="0" onmousedown="handlePan(-1,0)"/>
</g>
<svg viewBox="0 0 15 15" width="100%" height="30px" preserveAspectRatio="xMaxYMin meet">
 <g id="arrow_out" transform="scale(0.3 0.3)">
  <a xlink:href="JUTVideo_8h__dep__incl_org.svg" target="_base">
   <rect id="button" ry="5" rx="5" y="6" x="6" height="38" width="38"
        fill="#f2f5e9" fill-opacity="0.5" stroke="#606060" stroke-width="1.0"/>
   <path id="arrow"
     d="M 11.500037,31.436501 C 11.940474,20.09759 22.043105,11.32322 32.158766,21.979434 L 37.068811,17.246167 C 37.068811,17.246167 37.088388,32 37.088388,32 L 22.160133,31.978069 C 22.160133,31.978069 26.997745,27.140456 26.997745,27.140456 C 18.528582,18.264221 13.291696,25.230495 11.500037,31.436501 z"
     style="fill:#404040;"/>
  </a>
 </g>
</svg>

<style type='text/css'>
<![CDATA[
[data-mouse-over-selected='false'] { opacity: 0.7; }
[data-mouse-over-selected='true']  { opacity: 1.0; }
]]>
</style>
<script type="application/ecmascript"><![CDATA[
document.addEventListener('DOMContentLoaded', (event) => {
  highlightEdges();
  highlightAdjacentNodes();
});
]]></script>
</svg>
