<?xml version="1.0" encoding="UTF-8" standalone="no"?>
<!DOCTYPE svg PUBLIC "-//W3C//DTD SVG 1.1//EN"
 "http://www.w3.org/Graphics/SVG/1.1/DTD/svg11.dtd">
<!-- Generated by graphviz version 2.44.0 ()
 -->
<!-- Title: libs/JSystem/JUtility/JUTXfb.cpp Pages: 1 -->
<!--zoomable 531 -->
<svg id="main" version="1.1" xmlns="http://www.w3.org/2000/svg" xmlns:xlink="http://www.w3.org/1999/xlink" xml:space="preserve" onload="init(evt)">
<style type="text/css"><![CDATA[
.edge:hover path { stroke: red; }
.edge:hover polygon { stroke: red; fill: red; }
]]></style>
<script type="text/javascript"><![CDATA[
var edges = document.getElementsByTagName('g');
if (edges && edges.length) {
  for (var i=0;i<edges.length;i++) {
    if (edges[i].id.substr(0,4)=='edge') {
      edges[i].setAttribute('class','edge');
    }
  }
}
]]></script>
        <defs>
                <circle id="rim" cx="0" cy="0" r="7"/>
                <circle id="rim2" cx="0" cy="0" r="3.5"/>
                <g id="zoomPlus">
                        <use xlink:href="#rim" fill="#404040">
                                <set attributeName="fill" to="#808080" begin="zoomplus.mouseover" end="zoomplus.mouseout"/>
                        </use>
                        <path d="M-4,0h8M0,-4v8" fill="none" stroke="white" stroke-width="1.5" pointer-events="none"/>
                </g>
                <g id="zoomMin">
                        <use xlink:href="#rim" fill="#404040">
                                <set attributeName="fill" to="#808080" begin="zoomminus.mouseover" end="zoomminus.mouseout"/>
                        </use>
                        <path d="M-4,0h8" fill="none" stroke="white" stroke-width="1.5" pointer-events="none"/>
                </g>
                <g id="dirArrow">
                        <path fill="none" stroke="white" stroke-width="1.5" d="M0,-3.0v7 M-2.5,-0.5L0,-3.0L2.5,-0.5"/>
                </g>
               <g id="resetDef">
                       <use xlink:href="#rim2" fill="#404040">
                               <set attributeName="fill" to="#808080" begin="reset.mouseover" end="reset.mouseout"/>
                       </use>
               </g>
        </defs>

<script type="text/javascript">
var viewWidth = 1285;
var viewHeight = 531;
var sectionId = 'dynsection-0';
</script>
<script xlink:href="svgpan.js"/>
<svg id="graph" class="graph">
<g id="viewport">
<title>libs/JSystem/JUtility/JUTXfb.cpp</title>
<polygon fill="white" stroke="transparent" points="-4,4 -4,-527 1281,-527 1281,4 -4,4"/>
<!-- Node1 -->
<g id="node1" class="node">
<title>Node1</title>
<g id="a_node1"><a xlink:title=" ">
<polygon fill="#bfbfbf" stroke="black" points="802,-492.5 802,-522.5 908,-522.5 908,-492.5 802,-492.5"/>
<text text-anchor="start" x="810" y="-510.5" font-family="Helvetica,sans-Serif" font-size="10.00">libs/JSystem/JUtility</text>
<text text-anchor="middle" x="855" y="-499.5" font-family="Helvetica,sans-Serif" font-size="10.00">/JUTXfb.cpp</text>
</a>
</g>
</g>
<!-- Node2 -->
<g id="node2" class="node">
<title>Node2</title>
<g id="a_node2"><a xlink:href="JUTXfb_8h.html" target="_top" xlink:title=" ">
<polygon fill="white" stroke="black" points="641,-420 641,-439 773,-439 773,-420 641,-420"/>
<text text-anchor="middle" x="707" y="-427" font-family="Helvetica,sans-Serif" font-size="10.00">JSystem/JUtility/JUTXfb.h</text>
</a>
</g>
</g>
<!-- Node1&#45;&gt;Node2 -->
<g id="edge1" class="edge">
<title>Node1&#45;&gt;Node2</title>
<path fill="none" stroke="midnightblue" d="M827.51,-492.38C800.41,-478.47 759.31,-457.36 732.81,-443.75"/>
<polygon fill="midnightblue" stroke="midnightblue" points="734.25,-440.56 723.76,-439.11 731.06,-446.79 734.25,-440.56"/>
</g>
<!-- Node6 -->
<g id="node6" class="node">
<title>Node6</title>
<g id="a_node6"><a xlink:href="types_8h.html" target="_top" xlink:title=" ">
<polygon fill="white" stroke="black" points="721.5,-0.5 721.5,-19.5 802.5,-19.5 802.5,-0.5 721.5,-0.5"/>
<text text-anchor="middle" x="762" y="-7.5" font-family="Helvetica,sans-Serif" font-size="10.00">dolphin/types.h</text>
</a>
</g>
</g>
<!-- Node1&#45;&gt;Node6 -->
<g id="edge42" class="edge">
<title>Node1&#45;&gt;Node6</title>
<path fill="none" stroke="midnightblue" d="M801.84,-502.92C615.04,-489.66 0,-439.78 0,-358 0,-358 0,-358 0,-132 0,-91.32 15.73,-76.26 51,-56 107.81,-23.36 557.63,-13.92 710.99,-11.64"/>
<polygon fill="midnightblue" stroke="midnightblue" points="711.13,-15.14 721.08,-11.49 711.03,-8.14 711.13,-15.14"/>
</g>
<!-- Node13 -->
<g id="node13" class="node">
<title>Node13</title>
<g id="a_node13"><a xlink:href="GX_8h.html" target="_top" xlink:title=" ">
<polygon fill="white" stroke="black" points="874.5,-235.5 874.5,-254.5 959.5,-254.5 959.5,-235.5 874.5,-235.5"/>
<text text-anchor="middle" x="917" y="-242.5" font-family="Helvetica,sans-Serif" font-size="10.00">dolphin/gx/GX.h</text>
</a>
</g>
</g>
<!-- Node1&#45;&gt;Node13 -->
<g id="edge41" class="edge">
<title>Node1&#45;&gt;Node13</title>
<path fill="none" stroke="midnightblue" d="M853.15,-492.34C849.13,-456.67 842.31,-360.96 874,-291 879.26,-279.39 888.79,-268.93 897.55,-261.02"/>
<polygon fill="midnightblue" stroke="midnightblue" points="899.86,-263.65 905.23,-254.52 895.34,-258.31 899.86,-263.65"/>
</g>
<!-- Node21 -->
<g id="node21" class="node">
<title>Node21</title>
<g id="a_node21"><a xlink:href="dol2asm_8h.html" target="_top" xlink:title=" ">
<polygon fill="white" stroke="black" points="883.5,-420 883.5,-439 944.5,-439 944.5,-420 883.5,-420"/>
<text text-anchor="middle" x="914" y="-427" font-family="Helvetica,sans-Serif" font-size="10.00">dol2asm.h</text>
</a>
</g>
</g>
<!-- Node1&#45;&gt;Node21 -->
<g id="edge40" class="edge">
<title>Node1&#45;&gt;Node21</title>
<path fill="none" stroke="midnightblue" d="M866.1,-492.2C876.06,-479.37 890.7,-460.52 901.17,-447.03"/>
<polygon fill="midnightblue" stroke="midnightblue" points="903.98,-449.11 907.35,-439.06 898.46,-444.82 903.98,-449.11"/>
</g>
<!-- Node22 -->
<g id="node22" class="node">
<title>Node22</title>
<g id="a_node22"><a xlink:title=" ">
<polygon fill="white" stroke="#bfbfbf" points="963,-403.5 963,-455.5 1185,-455.5 1185,-403.5 963,-403.5"/>
<text text-anchor="start" x="971" y="-443.5" font-family="Helvetica,sans-Serif" font-size="10.00">asm/JSystem/JUtility</text>
<text text-anchor="start" x="971" y="-432.5" font-family="Helvetica,sans-Serif" font-size="10.00">/JUTXfb/__ct__6JUTXfbFPC16</text>
<text text-anchor="start" x="971" y="-421.5" font-family="Helvetica,sans-Serif" font-size="10.00">_GXRenderModeObjP7JKRHeapQ26JUTXfb10</text>
<text text-anchor="middle" x="1074" y="-410.5" font-family="Helvetica,sans-Serif" font-size="10.00">EXfbNumber.s</text>
</a>
</g>
</g>
<!-- Node1&#45;&gt;Node22 -->
<g id="edge43" class="edge">
<title>Node1&#45;&gt;Node22</title>
<path fill="none" stroke="midnightblue" d="M895.42,-492.47C922.53,-483.06 959.19,-470.34 992.24,-458.87"/>
<polygon fill="midnightblue" stroke="midnightblue" points="993.61,-462.1 1001.91,-455.52 991.31,-455.49 993.61,-462.1"/>
</g>
<!-- Node3 -->
<g id="node3" class="node">
<title>Node3</title>
<g id="a_node3"><a xlink:href="JKRHeap_8h.html" target="_top" xlink:title=" ">
<polygon fill="white" stroke="black" points="253.5,-179.5 253.5,-198.5 396.5,-198.5 396.5,-179.5 253.5,-179.5"/>
<text text-anchor="middle" x="325" y="-186.5" font-family="Helvetica,sans-Serif" font-size="10.00">JSystem/JKernel/JKRHeap.h</text>
</a>
</g>
</g>
<!-- Node2&#45;&gt;Node3 -->
<g id="edge2" class="edge">
<title>Node2&#45;&gt;Node3</title>
<path fill="none" stroke="midnightblue" d="M692.95,-419.73C635.5,-383.86 418.11,-248.13 347.39,-203.98"/>
<polygon fill="midnightblue" stroke="midnightblue" points="349.11,-200.93 338.77,-198.6 345.4,-206.86 349.11,-200.93"/>
</g>
<!-- Node2&#45;&gt;Node6 -->
<g id="edge39" class="edge">
<title>Node2&#45;&gt;Node6</title>
<path fill="none" stroke="midnightblue" d="M640.72,-422.9C471.72,-407.75 38,-362.91 38,-302 38,-302 38,-302 38,-132 38,-87.55 63.29,-75.96 103,-56 156.79,-28.96 565.76,-16 711.01,-12.22"/>
<polygon fill="midnightblue" stroke="midnightblue" points="711.51,-15.71 721.41,-11.95 711.33,-8.71 711.51,-15.71"/>
</g>
<!-- Node12 -->
<g id="node12" class="node">
<title>Node12</title>
<g id="a_node12"><a xlink:href="JUTVideo_8h.html" target="_top" xlink:title=" ">
<polygon fill="white" stroke="black" points="685,-347.5 685,-366.5 827,-366.5 827,-347.5 685,-347.5"/>
<text text-anchor="middle" x="756" y="-354.5" font-family="Helvetica,sans-Serif" font-size="10.00">JSystem/JUtility/JUTVideo.h</text>
</a>
</g>
</g>
<!-- Node2&#45;&gt;Node12 -->
<g id="edge18" class="edge">
<title>Node2&#45;&gt;Node12</title>
<path fill="none" stroke="midnightblue" d="M713.01,-419.86C720.72,-408.76 734.29,-389.24 744.12,-375.09"/>
<polygon fill="midnightblue" stroke="midnightblue" points="747.11,-376.92 749.94,-366.72 741.36,-372.93 747.11,-376.92"/>
</g>
<!-- Node4 -->
<g id="node4" class="node">
<title>Node4</title>
<g id="a_node4"><a xlink:href="JKRDisposer_8h.html" target="_top" xlink:title=" ">
<polygon fill="white" stroke="black" points="135,-123.5 135,-142.5 293,-142.5 293,-123.5 135,-123.5"/>
<text text-anchor="middle" x="214" y="-130.5" font-family="Helvetica,sans-Serif" font-size="10.00">JSystem/JKernel/JKRDisposer.h</text>
</a>
</g>
</g>
<!-- Node3&#45;&gt;Node4 -->
<g id="edge3" class="edge">
<title>Node3&#45;&gt;Node4</title>
<path fill="none" stroke="midnightblue" d="M307.17,-179.32C289.28,-170.62 261.52,-157.12 240.95,-147.11"/>
<polygon fill="midnightblue" stroke="midnightblue" points="242.31,-143.88 231.79,-142.65 239.25,-150.18 242.31,-143.88"/>
</g>
<!-- Node3&#45;&gt;Node6 -->
<g id="edge17" class="edge">
<title>Node3&#45;&gt;Node6</title>
<path fill="none" stroke="midnightblue" d="M253.24,-180.85C203.15,-174.25 142.42,-162.46 126,-143 101.05,-113.43 96.62,-84.3 123,-56 162.76,-13.34 566.34,-10.38 710.86,-10.7"/>
<polygon fill="midnightblue" stroke="midnightblue" points="711.21,-14.2 721.22,-10.73 711.23,-7.2 711.21,-14.2"/>
</g>
<!-- Node7 -->
<g id="node7" class="node">
<title>Node7</title>
<g id="a_node7"><a xlink:href="OS_8h.html" target="_top" xlink:title=" ">
<polygon fill="white" stroke="black" points="480,-123.5 480,-142.5 566,-142.5 566,-123.5 480,-123.5"/>
<text text-anchor="middle" x="523" y="-130.5" font-family="Helvetica,sans-Serif" font-size="10.00">dolphin/os/OS.h</text>
</a>
</g>
</g>
<!-- Node3&#45;&gt;Node7 -->
<g id="edge7" class="edge">
<title>Node3&#45;&gt;Node7</title>
<path fill="none" stroke="midnightblue" d="M356.37,-179.44C390.26,-170.2 444.4,-155.44 481.72,-145.26"/>
<polygon fill="midnightblue" stroke="midnightblue" points="483.05,-148.52 491.77,-142.52 481.2,-141.77 483.05,-148.52"/>
</g>
<!-- Node5 -->
<g id="node5" class="node">
<title>Node5</title>
<g id="a_node5"><a xlink:href="JSUList_8h.html" target="_top" xlink:title=" ">
<polygon fill="white" stroke="black" points="142.5,-62 142.5,-81 285.5,-81 285.5,-62 142.5,-62"/>
<text text-anchor="middle" x="214" y="-69" font-family="Helvetica,sans-Serif" font-size="10.00">JSystem/JSupport/JSUList.h</text>
</a>
</g>
</g>
<!-- Node4&#45;&gt;Node5 -->
<g id="edge4" class="edge">
<title>Node4&#45;&gt;Node5</title>
<path fill="none" stroke="midnightblue" d="M214,-123.48C214,-115.08 214,-101.98 214,-91.16"/>
<polygon fill="midnightblue" stroke="midnightblue" points="217.5,-91.01 214,-81.01 210.5,-91.01 217.5,-91.01"/>
</g>
<!-- Node4&#45;&gt;Node6 -->
<g id="edge6" class="edge">
<title>Node4&#45;&gt;Node6</title>
<path fill="none" stroke="midnightblue" d="M182.98,-123.44C164.97,-116.69 143.77,-105.3 133,-87 126.01,-75.13 123.61,-66.08 133,-56 172.07,-14.03 568.47,-10.62 711.16,-10.76"/>
<polygon fill="midnightblue" stroke="midnightblue" points="711.38,-14.26 721.39,-10.78 711.39,-7.26 711.38,-14.26"/>
</g>
<!-- Node5&#45;&gt;Node6 -->
<g id="edge5" class="edge">
<title>Node5&#45;&gt;Node6</title>
<path fill="none" stroke="midnightblue" d="M261.22,-61.93C273.8,-59.81 287.39,-57.67 300,-56 448.97,-36.21 626.04,-21.38 711.24,-14.78"/>
<polygon fill="midnightblue" stroke="midnightblue" points="711.71,-18.25 721.41,-13.99 711.17,-11.27 711.71,-18.25"/>
</g>
<!-- Node7&#45;&gt;Node6 -->
<g id="edge10" class="edge">
<title>Node7&#45;&gt;Node6</title>
<path fill="none" stroke="midnightblue" d="M479.89,-129.22C411.07,-123.26 288.42,-105.5 333,-56 357.91,-28.34 602.93,-16.5 711.11,-12.59"/>
<polygon fill="midnightblue" stroke="midnightblue" points="711.27,-16.09 721.14,-12.24 711.02,-9.09 711.27,-16.09"/>
</g>
<!-- Node8 -->
<g id="node8" class="node">
<title>Node8</title>
<g id="a_node8"><a xlink:href="____va__arg_8h.html" target="_top" xlink:title=" ">
<polygon fill="white" stroke="black" points="342,-56.5 342,-86.5 452,-86.5 452,-56.5 342,-56.5"/>
<text text-anchor="start" x="350" y="-74.5" font-family="Helvetica,sans-Serif" font-size="10.00">Runtime.PPCEABI.H/</text>
<text text-anchor="middle" x="397" y="-63.5" font-family="Helvetica,sans-Serif" font-size="10.00">__va_arg.h</text>
</a>
</g>
</g>
<!-- Node7&#45;&gt;Node8 -->
<g id="edge8" class="edge">
<title>Node7&#45;&gt;Node8</title>
<path fill="none" stroke="midnightblue" d="M504.95,-123.48C487.01,-115 458.91,-101.74 435.89,-90.86"/>
<polygon fill="midnightblue" stroke="midnightblue" points="437.23,-87.63 426.7,-86.52 434.24,-93.96 437.23,-87.63"/>
</g>
<!-- Node9 -->
<g id="node9" class="node">
<title>Node9</title>
<g id="a_node9"><a xlink:href="OSError_8h.html" target="_top" xlink:title=" ">
<polygon fill="white" stroke="black" points="470,-62 470,-81 576,-81 576,-62 470,-62"/>
<text text-anchor="middle" x="523" y="-69" font-family="Helvetica,sans-Serif" font-size="10.00">dolphin/os/OSError.h</text>
</a>
</g>
</g>
<!-- Node7&#45;&gt;Node9 -->
<g id="edge11" class="edge">
<title>Node7&#45;&gt;Node9</title>
<path fill="none" stroke="midnightblue" d="M523,-123.48C523,-115.08 523,-101.98 523,-91.16"/>
<polygon fill="midnightblue" stroke="midnightblue" points="526.5,-91.01 523,-81.01 519.5,-91.01 526.5,-91.01"/>
</g>
<!-- Node10 -->
<g id="node10" class="node">
<title>Node10</title>
<g id="a_node10"><a xlink:href="OSLink_8h.html" target="_top" xlink:title=" ">
<polygon fill="white" stroke="black" points="594,-62 594,-81 698,-81 698,-62 594,-62"/>
<text text-anchor="middle" x="646" y="-69" font-family="Helvetica,sans-Serif" font-size="10.00">dolphin/os/OSLink.h</text>
</a>
</g>
</g>
<!-- Node7&#45;&gt;Node10 -->
<g id="edge13" class="edge">
<title>Node7&#45;&gt;Node10</title>
<path fill="none" stroke="midnightblue" d="M540.62,-123.48C561.17,-113.53 595.36,-96.99 619.21,-85.46"/>
<polygon fill="midnightblue" stroke="midnightblue" points="620.93,-88.51 628.41,-81.01 617.88,-82.21 620.93,-88.51"/>
</g>
<!-- Node11 -->
<g id="node11" class="node">
<title>Node11</title>
<g id="a_node11"><a xlink:href="dvd_8h.html" target="_top" xlink:title=" ">
<polygon fill="white" stroke="black" points="716,-62 716,-81 808,-81 808,-62 716,-62"/>
<text text-anchor="middle" x="762" y="-69" font-family="Helvetica,sans-Serif" font-size="10.00">dolphin/dvd/dvd.h</text>
</a>
</g>
</g>
<!-- Node7&#45;&gt;Node11 -->
<g id="edge15" class="edge">
<title>Node7&#45;&gt;Node11</title>
<path fill="none" stroke="midnightblue" d="M558.66,-123.48C595.77,-114.57 655.52,-100.08 707,-87 711.32,-85.9 715.82,-84.74 720.31,-83.58"/>
<polygon fill="midnightblue" stroke="midnightblue" points="721.25,-86.95 730.03,-81.03 719.47,-80.18 721.25,-86.95"/>
</g>
<!-- Node8&#45;&gt;Node6 -->
<g id="edge9" class="edge">
<title>Node8&#45;&gt;Node6</title>
<path fill="none" stroke="midnightblue" d="M452.1,-57.74C455.11,-57.13 458.09,-56.55 461,-56 548.63,-39.55 651.51,-25.23 711.47,-17.39"/>
<polygon fill="midnightblue" stroke="midnightblue" points="711.97,-20.85 721.43,-16.09 711.06,-13.91 711.97,-20.85"/>
</g>
<!-- Node9&#45;&gt;Node6 -->
<g id="edge12" class="edge">
<title>Node9&#45;&gt;Node6</title>
<path fill="none" stroke="midnightblue" d="M557.24,-61.98C599.57,-51.44 671.68,-33.49 718.05,-21.94"/>
<polygon fill="midnightblue" stroke="midnightblue" points="718.96,-25.32 727.82,-19.51 717.27,-18.53 718.96,-25.32"/>
</g>
<!-- Node10&#45;&gt;Node6 -->
<g id="edge14" class="edge">
<title>Node10&#45;&gt;Node6</title>
<path fill="none" stroke="midnightblue" d="M662.62,-61.98C681.92,-52.08 713.96,-35.64 736.43,-24.12"/>
<polygon fill="midnightblue" stroke="midnightblue" points="738.11,-27.19 745.41,-19.51 734.92,-20.96 738.11,-27.19"/>
</g>
<!-- Node11&#45;&gt;Node6 -->
<g id="edge16" class="edge">
<title>Node11&#45;&gt;Node6</title>
<path fill="none" stroke="midnightblue" d="M762,-61.98C762,-53.58 762,-40.48 762,-29.66"/>
<polygon fill="midnightblue" stroke="midnightblue" points="765.5,-29.51 762,-19.51 758.5,-29.51 765.5,-29.51"/>
</g>
<!-- Node12&#45;&gt;Node6 -->
<g id="edge35" class="edge">
<title>Node12&#45;&gt;Node6</title>
<path fill="none" stroke="midnightblue" d="M758.72,-347.3C768.99,-313.99 805.33,-191.22 817,-87 818.53,-73.31 822.9,-68.45 817,-56 810.87,-43.07 799.01,-32.62 787.86,-25.05"/>
<polygon fill="midnightblue" stroke="midnightblue" points="789.53,-21.97 779.2,-19.61 785.81,-27.9 789.53,-21.97"/>
</g>
<!-- Node12&#45;&gt;Node7 -->
<g id="edge34" class="edge">
<title>Node12&#45;&gt;Node7</title>
<path fill="none" stroke="midnightblue" d="M746.87,-347.3C711.7,-313.8 584.8,-192.88 539.34,-149.57"/>
<polygon fill="midnightblue" stroke="midnightblue" points="541.73,-147.01 532.07,-142.64 536.9,-152.07 541.73,-147.01"/>
</g>
<!-- Node12&#45;&gt;Node13 -->
<g id="edge19" class="edge">
<title>Node12&#45;&gt;Node13</title>
<path fill="none" stroke="midnightblue" d="M766.44,-347.38C782.18,-334.52 813.13,-309.81 841,-291 857.74,-279.7 877.36,-268.12 892.48,-259.54"/>
<polygon fill="midnightblue" stroke="midnightblue" points="894.24,-262.56 901.24,-254.61 890.81,-256.46 894.24,-262.56"/>
</g>
<!-- Node20 -->
<g id="node20" class="node">
<title>Node20</title>
<g id="a_node20"><a xlink:href="vi_8h.html" target="_top" xlink:title=" ">
<polygon fill="white" stroke="black" points="883,-291.5 883,-310.5 959,-310.5 959,-291.5 883,-291.5"/>
<text text-anchor="middle" x="921" y="-298.5" font-family="Helvetica,sans-Serif" font-size="10.00">dolphin/vi/vi.h</text>
</a>
</g>
</g>
<!-- Node12&#45;&gt;Node20 -->
<g id="edge36" class="edge">
<title>Node12&#45;&gt;Node20</title>
<path fill="none" stroke="midnightblue" d="M782.14,-347.44C810.02,-338.32 854.35,-323.81 885.4,-313.65"/>
<polygon fill="midnightblue" stroke="midnightblue" points="886.56,-316.95 894.98,-310.52 884.38,-310.3 886.56,-316.95"/>
</g>
<!-- Node13&#45;&gt;Node6 -->
<g id="edge31" class="edge">
<title>Node13&#45;&gt;Node6</title>
<path fill="none" stroke="midnightblue" d="M885.98,-235.44C867.97,-228.69 846.77,-217.3 836,-199 803.62,-143.96 883.33,-110.47 850,-56 840.49,-40.46 823.74,-30.07 807.38,-23.23"/>
<polygon fill="midnightblue" stroke="midnightblue" points="808.44,-19.89 797.85,-19.6 805.95,-26.43 808.44,-19.89"/>
</g>
<!-- Node14 -->
<g id="node14" class="node">
<title>Node14</title>
<g id="a_node14"><a xlink:href="GXDisplayList_8h.html" target="_top" xlink:title=" ">
<polygon fill="white" stroke="black" points="845.5,-179.5 845.5,-198.5 978.5,-198.5 978.5,-179.5 845.5,-179.5"/>
<text text-anchor="middle" x="912" y="-186.5" font-family="Helvetica,sans-Serif" font-size="10.00">dolphin/gx/GXDisplayList.h</text>
</a>
</g>
</g>
<!-- Node13&#45;&gt;Node14 -->
<g id="edge20" class="edge">
<title>Node13&#45;&gt;Node14</title>
<path fill="none" stroke="midnightblue" d="M916.17,-235.08C915.52,-228.01 914.58,-217.86 913.76,-208.99"/>
<polygon fill="midnightblue" stroke="midnightblue" points="917.22,-208.39 912.81,-198.75 910.25,-209.03 917.22,-208.39"/>
</g>
<!-- Node15 -->
<g id="node15" class="node">
<title>Node15</title>
<g id="a_node15"><a xlink:href="mtx_8h.html" target="_top" xlink:title=" ">
<polygon fill="white" stroke="black" points="997,-179.5 997,-198.5 1089,-198.5 1089,-179.5 997,-179.5"/>
<text text-anchor="middle" x="1043" y="-186.5" font-family="Helvetica,sans-Serif" font-size="10.00">dolphin/mtx/mtx.h</text>
</a>
</g>
</g>
<!-- Node13&#45;&gt;Node15 -->
<g id="edge22" class="edge">
<title>Node13&#45;&gt;Node15</title>
<path fill="none" stroke="midnightblue" d="M936.97,-235.44C957.61,-226.6 990.06,-212.69 1013.63,-202.59"/>
<polygon fill="midnightblue" stroke="midnightblue" points="1015.32,-205.67 1023.13,-198.52 1012.56,-199.24 1015.32,-205.67"/>
</g>
<!-- Node18 -->
<g id="node18" class="node">
<title>Node18</title>
<g id="a_node18"><a xlink:href="mtx44_8h.html" target="_top" xlink:title=" ">
<polygon fill="white" stroke="black" points="1107.5,-179.5 1107.5,-198.5 1210.5,-198.5 1210.5,-179.5 1107.5,-179.5"/>
<text text-anchor="middle" x="1159" y="-186.5" font-family="Helvetica,sans-Serif" font-size="10.00">dolphin/mtx/mtx44.h</text>
</a>
</g>
</g>
<!-- Node13&#45;&gt;Node18 -->
<g id="edge29" class="edge">
<title>Node13&#45;&gt;Node18</title>
<path fill="none" stroke="midnightblue" d="M955.35,-235.44C997.47,-226.04 1065.21,-210.93 1110.87,-200.74"/>
<polygon fill="midnightblue" stroke="midnightblue" points="1111.84,-204.11 1120.83,-198.52 1110.31,-197.28 1111.84,-204.11"/>
</g>
<!-- Node19 -->
<g id="node19" class="node">
<title>Node19</title>
<g id="a_node19"><a xlink:href="global_8h.html" target="_top" xlink:title=" ">
<polygon fill="white" stroke="black" points="1193,-123.5 1193,-142.5 1243,-142.5 1243,-123.5 1193,-123.5"/>
<text text-anchor="middle" x="1218" y="-130.5" font-family="Helvetica,sans-Serif" font-size="10.00">global.h</text>
</a>
</g>
</g>
<!-- Node13&#45;&gt;Node19 -->
<g id="edge32" class="edge">
<title>Node13&#45;&gt;Node19</title>
<path fill="none" stroke="midnightblue" d="M959.72,-244.18C1034.9,-243.49 1186.03,-237.24 1219,-199 1229.8,-186.47 1227.9,-166.97 1224.31,-152.59"/>
<polygon fill="midnightblue" stroke="midnightblue" points="1227.6,-151.4 1221.41,-142.8 1220.89,-153.38 1227.6,-151.4"/>
</g>
<!-- Node14&#45;&gt;Node6 -->
<g id="edge21" class="edge">
<title>Node14&#45;&gt;Node6</title>
<path fill="none" stroke="midnightblue" d="M913.13,-179.38C915.64,-156.38 919.2,-92.76 888,-56 869.21,-33.86 838.72,-22.61 812.44,-16.9"/>
<polygon fill="midnightblue" stroke="midnightblue" points="813.09,-13.46 802.6,-14.97 811.74,-20.33 813.09,-13.46"/>
</g>
<!-- Node15&#45;&gt;Node6 -->
<g id="edge28" class="edge">
<title>Node15&#45;&gt;Node6</title>
<path fill="none" stroke="midnightblue" d="M1024.13,-179.43C1008.19,-171.55 985.39,-158.72 969,-143 935.46,-110.83 948.33,-83.68 911,-56 882.33,-34.74 843.59,-23.44 812.79,-17.48"/>
<polygon fill="midnightblue" stroke="midnightblue" points="813.14,-13.99 802.68,-15.66 811.9,-20.88 813.14,-13.99"/>
</g>
<!-- Node16 -->
<g id="node16" class="node">
<title>Node16</title>
<g id="a_node16"><a xlink:href="quat_8h.html" target="_top" xlink:title=" ">
<polygon fill="white" stroke="black" points="978.5,-123.5 978.5,-142.5 1073.5,-142.5 1073.5,-123.5 978.5,-123.5"/>
<text text-anchor="middle" x="1026" y="-130.5" font-family="Helvetica,sans-Serif" font-size="10.00">dolphin/mtx/quat.h</text>
</a>
</g>
</g>
<!-- Node15&#45;&gt;Node16 -->
<g id="edge23" class="edge">
<title>Node15&#45;&gt;Node16</title>
<path fill="none" stroke="midnightblue" d="M1040.19,-179.08C1037.92,-171.85 1034.63,-161.41 1031.79,-152.4"/>
<polygon fill="midnightblue" stroke="midnightblue" points="1035.1,-151.24 1028.75,-142.75 1028.42,-153.34 1035.1,-151.24"/>
</g>
<!-- Node17 -->
<g id="node17" class="node">
<title>Node17</title>
<g id="a_node17"><a xlink:href="vec_8h.html" target="_top" xlink:title=" ">
<polygon fill="white" stroke="black" points="1016,-62 1016,-81 1108,-81 1108,-62 1016,-62"/>
<text text-anchor="middle" x="1062" y="-69" font-family="Helvetica,sans-Serif" font-size="10.00">dolphin/mtx/vec.h</text>
</a>
</g>
</g>
<!-- Node15&#45;&gt;Node17 -->
<g id="edge27" class="edge">
<title>Node15&#45;&gt;Node17</title>
<path fill="none" stroke="midnightblue" d="M1053.99,-179.37C1063.45,-171.17 1076.44,-157.92 1082,-143 1088.58,-125.37 1080.88,-104.59 1073.21,-90.17"/>
<polygon fill="midnightblue" stroke="midnightblue" points="1076.12,-88.22 1068.08,-81.33 1070.07,-91.73 1076.12,-88.22"/>
</g>
<!-- Node16&#45;&gt;Node6 -->
<g id="edge26" class="edge">
<title>Node16&#45;&gt;Node6</title>
<path fill="none" stroke="midnightblue" d="M1021.53,-123.34C1012.79,-107.33 991.82,-73.17 964,-56 917.86,-27.53 855.93,-16.99 812.85,-13.13"/>
<polygon fill="midnightblue" stroke="midnightblue" points="813.12,-9.64 802.87,-12.33 812.56,-16.62 813.12,-9.64"/>
</g>
<!-- Node16&#45;&gt;Node17 -->
<g id="edge24" class="edge">
<title>Node16&#45;&gt;Node17</title>
<path fill="none" stroke="midnightblue" d="M1031.16,-123.48C1036.45,-114.73 1044.84,-100.87 1051.53,-89.81"/>
<polygon fill="midnightblue" stroke="midnightblue" points="1054.67,-91.38 1056.85,-81.01 1048.68,-87.75 1054.67,-91.38"/>
</g>
<!-- Node17&#45;&gt;Node6 -->
<g id="edge25" class="edge">
<title>Node17&#45;&gt;Node6</title>
<path fill="none" stroke="midnightblue" d="M1028.12,-61.99C1019.61,-59.94 1010.49,-57.82 1002,-56 936.99,-42.06 861.55,-28.31 812.86,-19.75"/>
<polygon fill="midnightblue" stroke="midnightblue" points="813.35,-16.28 802.9,-18 812.14,-23.18 813.35,-16.28"/>
</g>
<!-- Node18&#45;&gt;Node6 -->
<g id="edge30" class="edge">
<title>Node18&#45;&gt;Node6</title>
<path fill="none" stroke="midnightblue" d="M1159.18,-179.19C1159.14,-155.14 1155.44,-88.01 1117,-56 1071.87,-18.42 899.77,-11.8 812.86,-10.91"/>
<polygon fill="midnightblue" stroke="midnightblue" points="812.73,-7.41 802.7,-10.83 812.67,-14.41 812.73,-7.41"/>
</g>
<!-- Node19&#45;&gt;Node6 -->
<g id="edge33" class="edge">
<title>Node19&#45;&gt;Node6</title>
<path fill="none" stroke="midnightblue" d="M1214.58,-123.08C1207.76,-106.64 1190.78,-71.77 1164,-56 1105.67,-21.65 907.24,-13.52 812.78,-11.59"/>
<polygon fill="midnightblue" stroke="midnightblue" points="812.67,-8.09 802.61,-11.4 812.54,-15.09 812.67,-8.09"/>
</g>
<!-- Node20&#45;&gt;Node6 -->
<g id="edge38" class="edge">
<title>Node20&#45;&gt;Node6</title>
<path fill="none" stroke="midnightblue" d="M959.1,-296.4C1050.94,-286.66 1277,-255.98 1277,-190 1277,-190 1277,-190 1277,-132 1277,-81.98 1239.62,-76.51 1194,-56 1127,-25.87 911.71,-15.54 812.7,-12.32"/>
<polygon fill="midnightblue" stroke="midnightblue" points="812.74,-8.82 802.63,-12 812.52,-15.81 812.74,-8.82"/>
</g>
<!-- Node20&#45;&gt;Node13 -->
<g id="edge37" class="edge">
<title>Node20&#45;&gt;Node13</title>
<path fill="none" stroke="midnightblue" d="M920.34,-291.08C919.82,-284.01 919.06,-273.86 918.41,-264.99"/>
<polygon fill="midnightblue" stroke="midnightblue" points="921.88,-264.47 917.65,-254.75 914.9,-264.98 921.88,-264.47"/>
</g>
</g>
</svg>
        <g id="navigator" transform="translate(0 0)" fill="#404254">
                <rect fill="#f2f5e9" fill-opacity="0.5" stroke="#606060" stroke-width=".5" x="0" y="0" width="60" height="60"/>
                <use id="zoomplus" xlink:href="#zoomPlus" x="17" y="9" onmousedown="handleZoom(evt,'in')"/>
                <use id="zoomminus" xlink:href="#zoomMin" x="42" y="9" onmousedown="handleZoom(evt,'out')"/>
                <use id="reset" xlink:href="#resetDef" x="30" y="36" onmousedown="handleReset()"/>
                <g id="arrowUp" xlink:href="#dirArrow" transform="translate(30 24)" onmousedown="handlePan(0,-1)">
                  <use xlink:href="#rim" fill="#404040">
                        <set attributeName="fill" to="#808080" begin="arrowUp.mouseover" end="arrowUp.mouseout"/>
                  </use>
                  <path fill="none" stroke="white" stroke-width="1.5" d="M0,-3.0v7 M-2.5,-0.5L0,-3.0L2.5,-0.5"/>
                </g>
                <g id="arrowRight" xlink:href="#dirArrow" transform="rotate(90) translate(36 -43)" onmousedown="handlePan(1,0)">
                  <use xlink:href="#rim" fill="#404040">
                        <set attributeName="fill" to="#808080" begin="arrowRight.mouseover" end="arrowRight.mouseout"/>
                  </use>
                  <path fill="none" stroke="white" stroke-width="1.5" d="M0,-3.0v7 M-2.5,-0.5L0,-3.0L2.5,-0.5"/>
                </g>
                <g id="arrowDown" xlink:href="#dirArrow" transform="rotate(180) translate(-30 -48)" onmousedown="handlePan(0,1)">
                  <use xlink:href="#rim" fill="#404040">
                        <set attributeName="fill" to="#808080" begin="arrowDown.mouseover" end="arrowDown.mouseout"/>
                  </use>
                  <path fill="none" stroke="white" stroke-width="1.5" d="M0,-3.0v7 M-2.5,-0.5L0,-3.0L2.5,-0.5"/>
                </g>
                <g id="arrowLeft" xlink:href="#dirArrow" transform="rotate(270) translate(-36 17)" onmousedown="handlePan(-1,0)">
                  <use xlink:href="#rim" fill="#404040">
                        <set attributeName="fill" to="#808080" begin="arrowLeft.mouseover" end="arrowLeft.mouseout"/>
                  </use>
                  <path fill="none" stroke="white" stroke-width="1.5" d="M0,-3.0v7 M-2.5,-0.5L0,-3.0L2.5,-0.5"/>
                </g>
        </g>
        <svg viewBox="0 0 15 15" width="100%" height="30px" preserveAspectRatio="xMaxYMin meet">
         <g id="arrow_out" transform="scale(0.3 0.3)">
          <a xlink:href="JUTXfb_8cpp__incl_org.svg" target="_base">
           <rect id="button" ry="5" rx="5" y="6" x="6" height="38" width="38"
                fill="#f2f5e9" fill-opacity="0.5" stroke="#606060" stroke-width="1.0"/>
           <path id="arrow"
             d="M 11.500037,31.436501 C 11.940474,20.09759 22.043105,11.32322 32.158766,21.979434 L 37.068811,17.246167 C 37.068811,17.246167 37.088388,32 37.088388,32 L 22.160133,31.978069 C 22.160133,31.978069 26.997745,27.140456 26.997745,27.140456 C 18.528582,18.264221 13.291696,25.230495 11.500037,31.436501 z"
             style="fill:#404040;"/>
          </a>
         </g>
        </svg>
</svg>
