<?xml version="1.0" encoding="UTF-8" standalone="no"?>
<!DOCTYPE svg PUBLIC "-//W3C//DTD SVG 1.1//EN"
 "http://www.w3.org/Graphics/SVG/1.1/DTD/svg11.dtd">
<!-- Generated by graphviz version 7.0.5 (20221223.1930)
 -->
<!-- Title: include/JSystem/JGadget/linklist.h Pages: 1 -->
<svg width="3543pt" height="368pt"
 viewBox="0.00 0.00 3543.00 368.00" xmlns="http://www.w3.org/2000/svg" xmlns:xlink="http://www.w3.org/1999/xlink">
<g id="graph0" class="graph" transform="scale(1 1) rotate(0) translate(4 364)">
<title>include/JSystem/JGadget/linklist.h</title>
<!-- Node1 -->
<g id="node1" class="node">
<title>Node1</title>
<g id="a_node1"><a xlink:title=" ">
<polygon fill="#999999" stroke="#666666" points="1647.5,-360 1519.5,-360 1519.5,-330 1647.5,-330 1647.5,-360"/>
<text text-anchor="start" x="1527.5" y="-348" font-family="Helvetica,sans-Serif" font-size="10.00">include/JSystem/JGadget</text>
<text text-anchor="middle" x="1583.5" y="-337" font-family="Helvetica,sans-Serif" font-size="10.00">/linklist.h</text>
</a>
</g>
</g>
<!-- Node2 -->
<g id="node2" class="node">
<title>Node2</title>
<g id="a_node2"><a xlink:href="resource_8h.html" target="_top" xlink:title=" ">
<polygon fill="white" stroke="#666666" points="974,-294 837,-294 837,-264 974,-264 974,-294"/>
<text text-anchor="start" x="845" y="-282" font-family="Helvetica,sans-Serif" font-size="10.00">include/JSystem/JMessage</text>
<text text-anchor="middle" x="905.5" y="-271" font-family="Helvetica,sans-Serif" font-size="10.00">/resource.h</text>
</a>
</g>
</g>
<!-- Node1&#45;&gt;Node2 -->
<g id="edge1" class="edge">
<title>Node1&#45;&gt;Node2</title>
<path fill="none" stroke="#63b8ff" d="M1507.86,-336.86C1375.16,-324.33 1102.35,-298.58 974.49,-286.51"/>
<polygon fill="#63b8ff" stroke="#63b8ff" points="1507.31,-340.32 1517.6,-337.78 1507.97,-333.35 1507.31,-340.32"/>
</g>
<!-- Node50 -->
<g id="node28" class="node">
<title>Node50</title>
<g id="a_node28"><a xlink:href="ctb_8h.html" target="_top" xlink:title=" ">
<polygon fill="white" stroke="#666666" points="1541,-294 1416,-294 1416,-264 1541,-264 1541,-294"/>
<text text-anchor="start" x="1424" y="-282" font-family="Helvetica,sans-Serif" font-size="10.00">include/JSystem/JStudio</text>
<text text-anchor="middle" x="1478.5" y="-271" font-family="Helvetica,sans-Serif" font-size="10.00">/JStudio/ctb.h</text>
</a>
</g>
</g>
<!-- Node1&#45;&gt;Node50 -->
<g id="edge35" class="edge">
<title>Node1&#45;&gt;Node50</title>
<path fill="none" stroke="#63b8ff" d="M1550.54,-323.91C1534.79,-314.31 1516.29,-303.03 1501.99,-294.31"/>
<polygon fill="#63b8ff" stroke="#63b8ff" points="1548.28,-326.63 1558.64,-328.85 1551.93,-320.66 1548.28,-326.63"/>
</g>
<!-- Node82 -->
<g id="node33" class="node">
<title>Node82</title>
<g id="a_node33"><a xlink:href="fvb_8h.html" target="_top" xlink:title=" ">
<polygon fill="white" stroke="#666666" points="1718,-294 1593,-294 1593,-264 1718,-264 1718,-294"/>
<text text-anchor="start" x="1601" y="-282" font-family="Helvetica,sans-Serif" font-size="10.00">include/JSystem/JStudio</text>
<text text-anchor="middle" x="1655.5" y="-271" font-family="Helvetica,sans-Serif" font-size="10.00">/JStudio/fvb.h</text>
</a>
</g>
</g>
<!-- Node1&#45;&gt;Node82 -->
<g id="edge41" class="edge">
<title>Node1&#45;&gt;Node82</title>
<path fill="none" stroke="#63b8ff" d="M1607.78,-322.42C1618.17,-313.18 1630.02,-302.65 1639.32,-294.39"/>
<polygon fill="#63b8ff" stroke="#63b8ff" points="1605.76,-319.53 1600.61,-328.79 1610.41,-324.76 1605.76,-319.53"/>
</g>
<!-- Node84 -->
<g id="node35" class="node">
<title>Node84</title>
<g id="a_node35"><a xlink:href="stb_8h.html" target="_top" xlink:title=" ">
<polygon fill="white" stroke="#666666" points="1277,-294 1152,-294 1152,-264 1277,-264 1277,-294"/>
<text text-anchor="start" x="1160" y="-282" font-family="Helvetica,sans-Serif" font-size="10.00">include/JSystem/JStudio</text>
<text text-anchor="middle" x="1214.5" y="-271" font-family="Helvetica,sans-Serif" font-size="10.00">/JStudio/stb.h</text>
</a>
</g>
</g>
<!-- Node1&#45;&gt;Node84 -->
<g id="edge45" class="edge">
<title>Node1&#45;&gt;Node84</title>
<path fill="none" stroke="#63b8ff" d="M1508.17,-330.93C1440.17,-319.14 1341.28,-301.99 1277.42,-290.91"/>
<polygon fill="#63b8ff" stroke="#63b8ff" points="1507.28,-334.33 1517.73,-332.59 1508.48,-327.44 1507.28,-334.33"/>
</g>
<!-- Node86 -->
<g id="node37" class="node">
<title>Node86</title>
<g id="a_node37"><a xlink:href="JUTConsole_8h.html" target="_top" xlink:title=" ">
<polygon fill="white" stroke="#666666" points="2601.5,-294 2479.5,-294 2479.5,-264 2601.5,-264 2601.5,-294"/>
<text text-anchor="start" x="2487.5" y="-282" font-family="Helvetica,sans-Serif" font-size="10.00">include/JSystem/JUtility</text>
<text text-anchor="middle" x="2540.5" y="-271" font-family="Helvetica,sans-Serif" font-size="10.00">/JUTConsole.h</text>
</a>
</g>
</g>
<!-- Node1&#45;&gt;Node86 -->
<g id="edge50" class="edge">
<title>Node1&#45;&gt;Node86</title>
<path fill="none" stroke="#63b8ff" d="M1659.22,-338.94C1843.27,-326.63 2311.3,-295.33 2479.3,-284.09"/>
<polygon fill="#63b8ff" stroke="#63b8ff" points="1659.03,-335.44 1649.29,-339.6 1659.5,-342.43 1659.03,-335.44"/>
</g>
<!-- Node99 -->
<g id="node50" class="node">
<title>Node99</title>
<g id="a_node50"><a xlink:href="linklist_8cpp.html" target="_top" xlink:title=" ">
<polygon fill="white" stroke="#666666" points="2733,-294 2620,-294 2620,-264 2733,-264 2733,-294"/>
<text text-anchor="start" x="2628" y="-282" font-family="Helvetica,sans-Serif" font-size="10.00">libs/JSystem/JGadget</text>
<text text-anchor="middle" x="2676.5" y="-271" font-family="Helvetica,sans-Serif" font-size="10.00">/linklist.cpp</text>
</a>
</g>
</g>
<!-- Node1&#45;&gt;Node99 -->
<g id="edge64" class="edge">
<title>Node1&#45;&gt;Node99</title>
<path fill="none" stroke="#63b8ff" d="M1659.15,-344.45C1829.69,-344.58 2256.82,-339.82 2610.5,-294 2613.52,-293.61 2616.61,-293.15 2619.72,-292.65"/>
<polygon fill="#63b8ff" stroke="#63b8ff" points="1659.33,-340.95 1649.32,-344.44 1659.32,-347.95 1659.33,-340.95"/>
</g>
<!-- Node3 -->
<g id="node3" class="node">
<title>Node3</title>
<g id="a_node3"><a xlink:href="JMessage_2control_8h.html" target="_top" xlink:title=" ">
<polygon fill="white" stroke="#666666" points="944,-162 807,-162 807,-132 944,-132 944,-162"/>
<text text-anchor="start" x="815" y="-150" font-family="Helvetica,sans-Serif" font-size="10.00">include/JSystem/JMessage</text>
<text text-anchor="middle" x="875.5" y="-139" font-family="Helvetica,sans-Serif" font-size="10.00">/control.h</text>
</a>
</g>
</g>
<!-- Node2&#45;&gt;Node3 -->
<g id="edge2" class="edge">
<title>Node2&#45;&gt;Node3</title>
<path fill="none" stroke="#63b8ff" d="M899.59,-252.38C893.38,-225.49 883.85,-184.18 878.84,-162.47"/>
<polygon fill="#63b8ff" stroke="#63b8ff" points="896.18,-253.16 901.83,-262.12 903,-251.59 896.18,-253.16"/>
</g>
<!-- Node9 -->
<g id="node7" class="node">
<title>Node9</title>
<g id="a_node7"><a xlink:href="d__msg__object_8h.html" target="_top" xlink:title=" ">
<polygon fill="#fff0f0" stroke="red" points="1107.5,-96 997.5,-96 997.5,-66 1107.5,-66 1107.5,-96"/>
<text text-anchor="start" x="1005.5" y="-84" font-family="Helvetica,sans-Serif" font-size="10.00">include/d/msg/d_msg</text>
<text text-anchor="middle" x="1052.5" y="-73" font-family="Helvetica,sans-Serif" font-size="10.00">_object.h</text>
</a>
</g>
</g>
<!-- Node2&#45;&gt;Node9 -->
<g id="edge31" class="edge">
<title>Node2&#45;&gt;Node9</title>
<path fill="none" stroke="#63b8ff" d="M933.43,-256.39C943.22,-248.09 953.91,-238.16 962.5,-228 999.59,-184.1 1031.91,-123.41 1045.57,-96.2"/>
<polygon fill="#63b8ff" stroke="#63b8ff" points="931.44,-253.5 925.94,-262.55 935.89,-258.9 931.44,-253.5"/>
</g>
<!-- Node36 -->
<g id="node24" class="node">
<title>Node36</title>
<g id="a_node24"><a xlink:href="processor_8cpp.html" target="_top" xlink:title=" ">
<polygon fill="white" stroke="#666666" points="936,-96 815,-96 815,-66 936,-66 936,-96"/>
<text text-anchor="start" x="823" y="-84" font-family="Helvetica,sans-Serif" font-size="10.00">libs/JSystem/JMessage</text>
<text text-anchor="middle" x="875.5" y="-73" font-family="Helvetica,sans-Serif" font-size="10.00">/processor.cpp</text>
</a>
</g>
</g>
<!-- Node2&#45;&gt;Node36 -->
<g id="edge33" class="edge">
<title>Node2&#45;&gt;Node36</title>
<path fill="none" stroke="#63b8ff" d="M924.23,-254.42C945.46,-224.62 974.42,-172.37 952.5,-132 943.83,-116.03 927.61,-104.37 912.29,-96.35"/>
<polygon fill="#63b8ff" stroke="#63b8ff" points="921.46,-252.28 918.32,-262.4 927.09,-256.45 921.46,-252.28"/>
</g>
<!-- Node37 -->
<g id="node25" class="node">
<title>Node37</title>
<g id="a_node25"><a xlink:href="processor_8h.html" target="_top" xlink:title=" ">
<polygon fill="white" stroke="#666666" points="877,-228 740,-228 740,-198 877,-198 877,-228"/>
<text text-anchor="start" x="748" y="-216" font-family="Helvetica,sans-Serif" font-size="10.00">include/JSystem/JMessage</text>
<text text-anchor="middle" x="808.5" y="-205" font-family="Helvetica,sans-Serif" font-size="10.00">/processor.h</text>
</a>
</g>
</g>
<!-- Node2&#45;&gt;Node37 -->
<g id="edge26" class="edge">
<title>Node2&#45;&gt;Node37</title>
<path fill="none" stroke="#63b8ff" d="M874.47,-257.52C860.08,-248.03 843.33,-236.98 830.3,-228.39"/>
<polygon fill="#63b8ff" stroke="#63b8ff" points="872.43,-260.38 882.71,-262.96 876.29,-254.53 872.43,-260.38"/>
</g>
<!-- Node38 -->
<g id="node26" class="node">
<title>Node38</title>
<g id="a_node26"><a xlink:href="d__msg__string__base_8h.html" target="_top" xlink:title=" ">
<polygon fill="#fff0f0" stroke="red" points="582.5,-228 472.5,-228 472.5,-198 582.5,-198 582.5,-228"/>
<text text-anchor="start" x="480.5" y="-216" font-family="Helvetica,sans-Serif" font-size="10.00">include/d/msg/d_msg</text>
<text text-anchor="middle" x="527.5" y="-205" font-family="Helvetica,sans-Serif" font-size="10.00">_string_base.h</text>
</a>
</g>
</g>
<!-- Node2&#45;&gt;Node38 -->
<g id="edge32" class="edge">
<title>Node2&#45;&gt;Node38</title>
<path fill="none" stroke="#63b8ff" d="M825.55,-266.56C761.96,-257.16 670.81,-242.98 591.5,-228 588.71,-227.47 585.85,-226.91 582.96,-226.34"/>
<polygon fill="#63b8ff" stroke="#63b8ff" points="824.8,-269.99 835.2,-267.99 825.82,-263.07 824.8,-269.99"/>
</g>
<!-- Node49 -->
<g id="node27" class="node">
<title>Node49</title>
<g id="a_node27"><a xlink:href="resource_8cpp.html" target="_top" xlink:title=" ">
<polygon fill="white" stroke="#666666" points="722,-228 601,-228 601,-198 722,-198 722,-228"/>
<text text-anchor="start" x="609" y="-216" font-family="Helvetica,sans-Serif" font-size="10.00">libs/JSystem/JMessage</text>
<text text-anchor="middle" x="661.5" y="-205" font-family="Helvetica,sans-Serif" font-size="10.00">/resource.cpp</text>
</a>
</g>
</g>
<!-- Node2&#45;&gt;Node49 -->
<g id="edge34" class="edge">
<title>Node2&#45;&gt;Node49</title>
<path fill="none" stroke="#63b8ff" d="M839.32,-260.64C800.79,-250.53 752.78,-237.94 716.36,-228.39"/>
<polygon fill="#63b8ff" stroke="#63b8ff" points="838.41,-264.02 848.97,-263.17 840.19,-257.25 838.41,-264.02"/>
</g>
<!-- Node4 -->
<g id="node4" class="node">
<title>Node4</title>
<g id="a_node4"><a xlink:href="d__msg__class_8h.html" target="_top" xlink:title=" ">
<polygon fill="#fff0f0" stroke="red" points="795.5,-96 685.5,-96 685.5,-66 795.5,-66 795.5,-96"/>
<text text-anchor="start" x="693.5" y="-84" font-family="Helvetica,sans-Serif" font-size="10.00">include/d/msg/d_msg</text>
<text text-anchor="middle" x="740.5" y="-73" font-family="Helvetica,sans-Serif" font-size="10.00">_class.h</text>
</a>
</g>
</g>
<!-- Node3&#45;&gt;Node4 -->
<g id="edge3" class="edge">
<title>Node3&#45;&gt;Node4</title>
<path fill="none" stroke="#63b8ff" d="M834.84,-126.72C814.22,-116.95 789.61,-105.28 770.7,-96.31"/>
<polygon fill="#63b8ff" stroke="#63b8ff" points="833.3,-129.87 843.84,-130.99 836.3,-123.54 833.3,-129.87"/>
</g>
<!-- Node3&#45;&gt;Node9 -->
<g id="edge6" class="edge">
<title>Node3&#45;&gt;Node9</title>
<path fill="none" stroke="#63b8ff" d="M925.82,-127.8C953.33,-117.86 986.92,-105.71 1012.6,-96.43"/>
<polygon fill="#63b8ff" stroke="#63b8ff" points="924.86,-124.43 916.65,-131.12 927.24,-131.01 924.86,-124.43"/>
</g>
<!-- Node35 -->
<g id="node23" class="node">
<title>Node35</title>
<g id="a_node23"><a xlink:href="JMessage_2control_8cpp.html" target="_top" xlink:title=" ">
<polygon fill="white" stroke="#666666" points="667,-96 546,-96 546,-66 667,-66 667,-96"/>
<text text-anchor="start" x="554" y="-84" font-family="Helvetica,sans-Serif" font-size="10.00">libs/JSystem/JMessage</text>
<text text-anchor="middle" x="606.5" y="-73" font-family="Helvetica,sans-Serif" font-size="10.00">/control.cpp</text>
</a>
</g>
</g>
<!-- Node3&#45;&gt;Node35 -->
<g id="edge24" class="edge">
<title>Node3&#45;&gt;Node35</title>
<path fill="none" stroke="#63b8ff" d="M803.63,-128.9C760.97,-118.75 707.48,-106.02 666.98,-96.39"/>
<polygon fill="#63b8ff" stroke="#63b8ff" points="802.78,-132.3 813.32,-131.21 804.4,-125.49 802.78,-132.3"/>
</g>
<!-- Node3&#45;&gt;Node36 -->
<g id="edge25" class="edge">
<title>Node3&#45;&gt;Node36</title>
<path fill="none" stroke="#63b8ff" d="M875.5,-120.39C875.5,-112.13 875.5,-103.28 875.5,-96.16"/>
<polygon fill="#63b8ff" stroke="#63b8ff" points="872,-120.28 875.5,-130.28 879,-120.28 872,-120.28"/>
</g>
<!-- Node7 -->
<g id="node5" class="node">
<title>Node7</title>
<g id="a_node5"><a xlink:href="d__msg__class_8cpp.html" target="_top" xlink:title=" ">
<polygon fill="white" stroke="#666666" points="139,-24.5 0,-24.5 0,-5.5 139,-5.5 139,-24.5"/>
<text text-anchor="middle" x="69.5" y="-12.5" font-family="Helvetica,sans-Serif" font-size="10.00">src/d/msg/d_msg_class.cpp</text>
</a>
</g>
</g>
<!-- Node4&#45;&gt;Node7 -->
<g id="edge4" class="edge">
<title>Node4&#45;&gt;Node7</title>
<path fill="none" stroke="#63b8ff" d="M674.05,-65.97C441.07,-33.98 377.89,-58.08 148.5,-30 137.72,-28.68 126.17,-26.86 115.33,-24.98"/>
<polygon fill="#63b8ff" stroke="#63b8ff" points="673.39,-69.42 683.78,-67.33 674.36,-62.48 673.39,-69.42"/>
</g>
<!-- Node8 -->
<g id="node6" class="node">
<title>Node8</title>
<g id="a_node6"><a xlink:href="d__msg__object_8cpp.html" target="_top" xlink:title=" ">
<polygon fill="white" stroke="#666666" points="299.5,-24.5 157.5,-24.5 157.5,-5.5 299.5,-5.5 299.5,-24.5"/>
<text text-anchor="middle" x="228.5" y="-12.5" font-family="Helvetica,sans-Serif" font-size="10.00">src/d/msg/d_msg_object.cpp</text>
</a>
</g>
</g>
<!-- Node4&#45;&gt;Node8 -->
<g id="edge5" class="edge">
<title>Node4&#45;&gt;Node8</title>
<path fill="none" stroke="#63b8ff" d="M673.89,-65.89C511.59,-41.2 467.24,-51.64 308.5,-30 298.02,-28.57 286.82,-26.78 276.21,-24.96"/>
<polygon fill="#63b8ff" stroke="#63b8ff" points="673.35,-69.35 683.77,-67.42 674.42,-62.44 673.35,-69.35"/>
</g>
<!-- Node9&#45;&gt;Node7 -->
<g id="edge18" class="edge">
<title>Node9&#45;&gt;Node7</title>
<path fill="none" stroke="#63b8ff" d="M985.82,-70.47C972.17,-68.77 957.89,-67.17 944.5,-66 591.7,-35.21 500.49,-68.98 148.5,-30 137.29,-28.76 125.26,-26.9 114.06,-24.94"/>
<polygon fill="#63b8ff" stroke="#63b8ff" points="985.23,-73.92 995.6,-71.72 986.12,-66.98 985.23,-73.92"/>
</g>
<!-- Node9&#45;&gt;Node8 -->
<g id="edge20" class="edge">
<title>Node9&#45;&gt;Node8</title>
<path fill="none" stroke="#63b8ff" d="M985.81,-70.59C972.16,-68.88 957.88,-67.24 944.5,-66 662.6,-39.78 589.75,-62.46 308.5,-30 297.43,-28.72 285.58,-26.9 274.48,-24.99"/>
<polygon fill="#63b8ff" stroke="#63b8ff" points="985.22,-74.04 995.59,-71.84 986.11,-67.1 985.22,-74.04"/>
</g>
<!-- Node10 -->
<g id="node8" class="node">
<title>Node10</title>
<g id="a_node8"><a xlink:href="d__timer_8h.html" target="_top" xlink:title=" ">
<polygon fill="#fff0f0" stroke="red" points="1244.5,-24.5 1146.5,-24.5 1146.5,-5.5 1244.5,-5.5 1244.5,-24.5"/>
<text text-anchor="middle" x="1195.5" y="-12.5" font-family="Helvetica,sans-Serif" font-size="10.00">include/d/d_timer.h</text>
</a>
</g>
</g>
<!-- Node9&#45;&gt;Node10 -->
<g id="edge7" class="edge">
<title>Node9&#45;&gt;Node10</title>
<path fill="none" stroke="#63b8ff" d="M1094.81,-61.06C1121.45,-49.14 1154.61,-34.3 1175.42,-24.99"/>
<polygon fill="#63b8ff" stroke="#63b8ff" points="1093.67,-57.74 1085.97,-65.02 1096.53,-64.13 1093.67,-57.74"/>
</g>
<!-- Node14 -->
<g id="node9" class="node">
<title>Node14</title>
<g id="a_node9"><a xlink:href="d__a__alink_8cpp.html" target="_top" xlink:title=" ">
<polygon fill="white" stroke="#666666" points="2196,-24.5 2087,-24.5 2087,-5.5 2196,-5.5 2196,-24.5"/>
<text text-anchor="middle" x="2141.5" y="-12.5" font-family="Helvetica,sans-Serif" font-size="10.00">src/d/a/d_a_alink.cpp</text>
</a>
</g>
</g>
<!-- Node9&#45;&gt;Node14 -->
<g id="edge8" class="edge">
<title>Node9&#45;&gt;Node14</title>
<path fill="none" stroke="#63b8ff" d="M1119.07,-70.58C1133.38,-68.82 1148.42,-67.17 1162.5,-66 1568.52,-32.25 1674.46,-82.4 2078.5,-30 2087.61,-28.82 2097.35,-26.96 2106.38,-24.97"/>
<polygon fill="#63b8ff" stroke="#63b8ff" points="1118.78,-67.09 1109.3,-71.81 1119.66,-74.03 1118.78,-67.09"/>
</g>
<!-- Node15 -->
<g id="node10" class="node">
<title>Node15</title>
<g id="a_node10"><a xlink:href="d__a__npc_8cpp.html" target="_top" xlink:title=" ">
<polygon fill="white" stroke="#666666" points="1366.5,-24.5 1262.5,-24.5 1262.5,-5.5 1366.5,-5.5 1366.5,-24.5"/>
<text text-anchor="middle" x="1314.5" y="-12.5" font-family="Helvetica,sans-Serif" font-size="10.00">src/d/a/d_a_npc.cpp</text>
</a>
</g>
</g>
<!-- Node9&#45;&gt;Node15 -->
<g id="edge9" class="edge">
<title>Node9&#45;&gt;Node15</title>
<path fill="none" stroke="#63b8ff" d="M1118.87,-63.79C1169.29,-51.47 1236.76,-34.99 1277.85,-24.95"/>
<polygon fill="#63b8ff" stroke="#63b8ff" points="1118.1,-60.37 1109.21,-66.15 1119.76,-67.17 1118.1,-60.37"/>
</g>
<!-- Node16 -->
<g id="node11" class="node">
<title>Node16</title>
<g id="a_node11"><a xlink:href="d__demo_8cpp.html" target="_top" xlink:title=" ">
<polygon fill="white" stroke="#666666" points="1478.5,-24.5 1384.5,-24.5 1384.5,-5.5 1478.5,-5.5 1478.5,-24.5"/>
<text text-anchor="middle" x="1431.5" y="-12.5" font-family="Helvetica,sans-Serif" font-size="10.00">src/d/d_demo.cpp</text>
</a>
</g>
</g>
<!-- Node9&#45;&gt;Node16 -->
<g id="edge10" class="edge">
<title>Node9&#45;&gt;Node16</title>
<path fill="none" stroke="#63b8ff" d="M1119.32,-71.47C1184.86,-62.68 1287.48,-47.78 1375.5,-30 1382.77,-28.53 1390.51,-26.74 1397.85,-24.94"/>
<polygon fill="#63b8ff" stroke="#63b8ff" points="1118.88,-68 1109.42,-72.79 1119.8,-74.94 1118.88,-68"/>
</g>
<!-- Node17 -->
<g id="node12" class="node">
<title>Node17</title>
<g id="a_node12"><a xlink:href="d__event_8cpp.html" target="_top" xlink:title=" ">
<polygon fill="white" stroke="#666666" points="1618,-24.5 1497,-24.5 1497,-5.5 1618,-5.5 1618,-24.5"/>
<text text-anchor="middle" x="1557.5" y="-12.5" font-family="Helvetica,sans-Serif" font-size="10.00">src/d/event/d_event.cpp</text>
</a>
</g>
</g>
<!-- Node9&#45;&gt;Node17 -->
<g id="edge11" class="edge">
<title>Node9&#45;&gt;Node17</title>
<path fill="none" stroke="#63b8ff" d="M1119.15,-71.34C1133.45,-69.53 1148.47,-67.67 1162.5,-66 1306.81,-48.83 1343.89,-52.27 1487.5,-30 1496.69,-28.58 1506.5,-26.78 1515.78,-24.96"/>
<polygon fill="#63b8ff" stroke="#63b8ff" points="1118.85,-67.85 1109.38,-72.58 1119.74,-74.79 1118.85,-67.85"/>
</g>
<!-- Node18 -->
<g id="node13" class="node">
<title>Node18</title>
<g id="a_node13"><a xlink:href="d__event__data_8cpp.html" target="_top" xlink:title=" ">
<polygon fill="white" stroke="#666666" points="1739,-30 1636,-30 1636,0 1739,0 1739,-30"/>
<text text-anchor="start" x="1644" y="-18" font-family="Helvetica,sans-Serif" font-size="10.00">src/d/event/d_event</text>
<text text-anchor="middle" x="1687.5" y="-7" font-family="Helvetica,sans-Serif" font-size="10.00">_data.cpp</text>
</a>
</g>
</g>
<!-- Node9&#45;&gt;Node18 -->
<g id="edge12" class="edge">
<title>Node9&#45;&gt;Node18</title>
<path fill="none" stroke="#63b8ff" d="M1119.11,-70.99C1133.41,-69.2 1148.45,-67.44 1162.5,-66 1368.71,-44.91 1422.64,-61.64 1627.5,-30 1630.14,-29.59 1632.84,-29.13 1635.56,-28.63"/>
<polygon fill="#63b8ff" stroke="#63b8ff" points="1118.82,-67.5 1109.34,-72.23 1119.7,-74.44 1118.82,-67.5"/>
</g>
<!-- Node19 -->
<g id="node14" class="node">
<title>Node19</title>
<g id="a_node14"><a xlink:href="d__kankyo_8cpp.html" target="_top" xlink:title=" ">
<polygon fill="white" stroke="#666666" points="1891.5,-24.5 1757.5,-24.5 1757.5,-5.5 1891.5,-5.5 1891.5,-24.5"/>
<text text-anchor="middle" x="1824.5" y="-12.5" font-family="Helvetica,sans-Serif" font-size="10.00">src/d/kankyo/d_kankyo.cpp</text>
</a>
</g>
</g>
<!-- Node9&#45;&gt;Node19 -->
<g id="edge13" class="edge">
<title>Node9&#45;&gt;Node19</title>
<path fill="none" stroke="#63b8ff" d="M1119.09,-70.82C1133.4,-69.04 1148.44,-67.33 1162.5,-66 1422.28,-41.51 1489.5,-61.69 1748.5,-30 1759.02,-28.71 1770.29,-26.89 1780.83,-24.98"/>
<polygon fill="#63b8ff" stroke="#63b8ff" points="1118.8,-67.32 1109.32,-72.05 1119.68,-74.27 1118.8,-67.32"/>
</g>
<!-- Node20 -->
<g id="node15" class="node">
<title>Node20</title>
<g id="a_node15"><a xlink:href="d__menu__window_8cpp.html" target="_top" xlink:title=" ">
<polygon fill="white" stroke="#666666" points="2069,-24.5 1910,-24.5 1910,-5.5 2069,-5.5 2069,-24.5"/>
<text text-anchor="middle" x="1989.5" y="-12.5" font-family="Helvetica,sans-Serif" font-size="10.00">src/d/menu/d_menu_window.cpp</text>
</a>
</g>
</g>
<!-- Node9&#45;&gt;Node20 -->
<g id="edge14" class="edge">
<title>Node9&#45;&gt;Node20</title>
<path fill="none" stroke="#63b8ff" d="M1119.08,-70.68C1133.38,-68.92 1148.43,-67.24 1162.5,-66 1489.63,-37.25 1573.83,-63.56 1900.5,-30 1912.95,-28.72 1926.31,-26.87 1938.79,-24.94"/>
<polygon fill="#63b8ff" stroke="#63b8ff" points="1118.79,-67.19 1109.31,-71.92 1119.67,-74.13 1118.79,-67.19"/>
</g>
<!-- Node21 -->
<g id="node16" class="node">
<title>Node21</title>
<g id="a_node16"><a xlink:href="d__meter2__draw_8cpp.html" target="_top" xlink:title=" ">
<polygon fill="white" stroke="#666666" points="427.5,-30 317.5,-30 317.5,0 427.5,0 427.5,-30"/>
<text text-anchor="start" x="325.5" y="-18" font-family="Helvetica,sans-Serif" font-size="10.00">src/d/meter/d_meter2</text>
<text text-anchor="middle" x="372.5" y="-7" font-family="Helvetica,sans-Serif" font-size="10.00">_draw.cpp</text>
</a>
</g>
</g>
<!-- Node9&#45;&gt;Node21 -->
<g id="edge15" class="edge">
<title>Node9&#45;&gt;Node21</title>
<path fill="none" stroke="#63b8ff" d="M985.79,-70.74C972.15,-69.01 957.87,-67.34 944.5,-66 719.28,-43.44 660.53,-62.27 436.5,-30 433.69,-29.59 430.81,-29.13 427.91,-28.64"/>
<polygon fill="#63b8ff" stroke="#63b8ff" points="985.21,-74.19 995.57,-71.99 986.1,-67.25 985.21,-74.19"/>
</g>
<!-- Node22 -->
<g id="node17" class="node">
<title>Node22</title>
<g id="a_node17"><a xlink:href="d__meter2__info_8cpp.html" target="_top" xlink:title=" ">
<polygon fill="white" stroke="#666666" points="555.5,-30 445.5,-30 445.5,0 555.5,0 555.5,-30"/>
<text text-anchor="start" x="453.5" y="-18" font-family="Helvetica,sans-Serif" font-size="10.00">src/d/meter/d_meter2</text>
<text text-anchor="middle" x="500.5" y="-7" font-family="Helvetica,sans-Serif" font-size="10.00">_info.cpp</text>
</a>
</g>
</g>
<!-- Node9&#45;&gt;Node22 -->
<g id="edge16" class="edge">
<title>Node9&#45;&gt;Node22</title>
<path fill="none" stroke="#63b8ff" d="M985.77,-70.98C972.13,-69.24 957.86,-67.5 944.5,-66 775.91,-47.09 732.11,-56.17 564.5,-30 561.69,-29.56 558.82,-29.07 555.93,-28.55"/>
<polygon fill="#63b8ff" stroke="#63b8ff" points="985.18,-74.44 995.55,-72.25 986.08,-67.49 985.18,-74.44"/>
</g>
<!-- Node23 -->
<g id="node18" class="node">
<title>Node23</title>
<g id="a_node18"><a xlink:href="d__meter__map_8cpp.html" target="_top" xlink:title=" ">
<polygon fill="white" stroke="#666666" points="677.5,-30 573.5,-30 573.5,0 677.5,0 677.5,-30"/>
<text text-anchor="start" x="581.5" y="-18" font-family="Helvetica,sans-Serif" font-size="10.00">src/d/meter/d_meter</text>
<text text-anchor="middle" x="625.5" y="-7" font-family="Helvetica,sans-Serif" font-size="10.00">_map.cpp</text>
</a>
</g>
</g>
<!-- Node9&#45;&gt;Node23 -->
<g id="edge17" class="edge">
<title>Node9&#45;&gt;Node23</title>
<path fill="none" stroke="#63b8ff" d="M986.08,-71.26C888.62,-58.37 715.25,-35.25 686.5,-30 683.61,-29.47 680.66,-28.9 677.68,-28.3"/>
<polygon fill="#63b8ff" stroke="#63b8ff" points="985.42,-74.7 995.79,-72.54 986.33,-67.76 985.42,-74.7"/>
</g>
<!-- Node24 -->
<g id="node19" class="node">
<title>Node24</title>
<g id="a_node19"><a xlink:href="d__msg__flow_8cpp.html" target="_top" xlink:title=" ">
<polygon fill="white" stroke="#666666" points="829,-24.5 696,-24.5 696,-5.5 829,-5.5 829,-24.5"/>
<text text-anchor="middle" x="762.5" y="-12.5" font-family="Helvetica,sans-Serif" font-size="10.00">src/d/msg/d_msg_flow.cpp</text>
</a>
</g>
</g>
<!-- Node9&#45;&gt;Node24 -->
<g id="edge19" class="edge">
<title>Node9&#45;&gt;Node24</title>
<path fill="none" stroke="#63b8ff" d="M986.3,-65.39C929.86,-52.93 850.52,-35.43 803.04,-24.95"/>
<polygon fill="#63b8ff" stroke="#63b8ff" points="985.27,-68.75 995.79,-67.49 986.78,-61.91 985.27,-68.75"/>
</g>
<!-- Node25 -->
<g id="node20" class="node">
<title>Node25</title>
<g id="a_node20"><a xlink:href="d__msg__out__font_8cpp.html" target="_top" xlink:title=" ">
<polygon fill="white" stroke="#666666" points="958,-30 847,-30 847,0 958,0 958,-30"/>
<text text-anchor="start" x="855" y="-18" font-family="Helvetica,sans-Serif" font-size="10.00">src/d/msg/d_msg_out</text>
<text text-anchor="middle" x="902.5" y="-7" font-family="Helvetica,sans-Serif" font-size="10.00">_font.cpp</text>
</a>
</g>
</g>
<!-- Node9&#45;&gt;Node25 -->
<g id="edge21" class="edge">
<title>Node9&#45;&gt;Node25</title>
<path fill="none" stroke="#63b8ff" d="M1008.3,-61.14C985.29,-51.32 957.59,-39.51 936.31,-30.43"/>
<polygon fill="#63b8ff" stroke="#63b8ff" points="1006.87,-64.34 1017.44,-65.04 1009.62,-57.9 1006.87,-64.34"/>
</g>
<!-- Node26 -->
<g id="node21" class="node">
<title>Node26</title>
<g id="a_node21"><a xlink:href="d__s__play_8cpp.html" target="_top" xlink:title=" ">
<polygon fill="white" stroke="#666666" points="2737.5,-24.5 2631.5,-24.5 2631.5,-5.5 2737.5,-5.5 2737.5,-24.5"/>
<text text-anchor="middle" x="2684.5" y="-12.5" font-family="Helvetica,sans-Serif" font-size="10.00">src/d/s/d_s_play.cpp</text>
</a>
</g>
</g>
<!-- Node9&#45;&gt;Node26 -->
<g id="edge22" class="edge">
<title>Node9&#45;&gt;Node26</title>
<path fill="none" stroke="#63b8ff" d="M1119.23,-77.38C1388.08,-66.84 2388.89,-27.59 2631.35,-18.08"/>
<polygon fill="#63b8ff" stroke="#63b8ff" points="1119.1,-73.89 1109.25,-77.77 1119.38,-80.88 1119.1,-73.89"/>
</g>
<!-- Node27 -->
<g id="node22" class="node">
<title>Node27</title>
<g id="a_node22"><a xlink:href="d__shop__system_8cpp.html" target="_top" xlink:title=" ">
<polygon fill="white" stroke="#666666" points="1128.5,-24.5 976.5,-24.5 976.5,-5.5 1128.5,-5.5 1128.5,-24.5"/>
<text text-anchor="middle" x="1052.5" y="-12.5" font-family="Helvetica,sans-Serif" font-size="10.00">src/d/shop/d_shop_system.cpp</text>
</a>
</g>
</g>
<!-- Node9&#45;&gt;Node27 -->
<g id="edge23" class="edge">
<title>Node9&#45;&gt;Node27</title>
<path fill="none" stroke="#63b8ff" d="M1052.5,-54.59C1052.5,-44.06 1052.5,-32.53 1052.5,-24.84"/>
<polygon fill="#63b8ff" stroke="#63b8ff" points="1049,-54.28 1052.5,-64.28 1056,-54.28 1049,-54.28"/>
</g>
<!-- Node37&#45;&gt;Node3 -->
<g id="edge27" class="edge">
<title>Node37&#45;&gt;Node3</title>
<path fill="none" stroke="#63b8ff" d="M831.44,-190.09C841.11,-180.85 852.09,-170.36 860.67,-162.16"/>
<polygon fill="#63b8ff" stroke="#63b8ff" points="829.28,-187.31 824.46,-196.75 834.11,-192.37 829.28,-187.31"/>
</g>
<!-- Node37&#45;&gt;Node4 -->
<g id="edge28" class="edge">
<title>Node37&#45;&gt;Node4</title>
<path fill="none" stroke="#63b8ff" d="M795.66,-187.46C781.62,-160.61 759.58,-118.48 748.07,-96.47"/>
<polygon fill="#63b8ff" stroke="#63b8ff" points="792.53,-189.01 800.26,-196.25 798.73,-185.77 792.53,-189.01"/>
</g>
<!-- Node37&#45;&gt;Node35 -->
<g id="edge29" class="edge">
<title>Node37&#45;&gt;Node35</title>
<path fill="none" stroke="#63b8ff" d="M776.57,-191.45C735.42,-164.97 664.92,-119.6 628.99,-96.47"/>
<polygon fill="#63b8ff" stroke="#63b8ff" points="774.53,-194.3 784.84,-196.77 778.32,-188.42 774.53,-194.3"/>
</g>
<!-- Node37&#45;&gt;Node36 -->
<g id="edge30" class="edge">
<title>Node37&#45;&gt;Node36</title>
<path fill="none" stroke="#63b8ff" d="M797.64,-187.25C792.1,-170.68 788.26,-148.89 797.5,-132 806.22,-116.05 822.44,-104.44 837.84,-96.45"/>
<polygon fill="#63b8ff" stroke="#63b8ff" points="794.27,-188.23 801.08,-196.35 800.82,-185.76 794.27,-188.23"/>
</g>
<!-- Node51 -->
<g id="node29" class="node">
<title>Node51</title>
<g id="a_node29"><a xlink:href="jstudio-control_8h.html" target="_top" xlink:title=" ">
<polygon fill="#fff0f0" stroke="red" points="1406,-228 1281,-228 1281,-198 1406,-198 1406,-228"/>
<text text-anchor="start" x="1289" y="-216" font-family="Helvetica,sans-Serif" font-size="10.00">include/JSystem/JStudio</text>
<text text-anchor="middle" x="1343.5" y="-205" font-family="Helvetica,sans-Serif" font-size="10.00">/JStudio/jstudio&#45;control.h</text>
</a>
</g>
</g>
<!-- Node50&#45;&gt;Node51 -->
<g id="edge36" class="edge">
<title>Node50&#45;&gt;Node51</title>
<path fill="none" stroke="#63b8ff" d="M1437.84,-258.72C1417.22,-248.95 1392.61,-237.28 1373.7,-228.31"/>
<polygon fill="#63b8ff" stroke="#63b8ff" points="1436.3,-261.87 1446.84,-262.99 1439.3,-255.54 1436.3,-261.87"/>
</g>
<!-- Node52 -->
<g id="node30" class="node">
<title>Node52</title>
<g id="a_node30"><a xlink:href="jstudio-object_8h.html" target="_top" xlink:title=" ">
<polygon fill="#fff0f0" stroke="red" points="1368,-162 1243,-162 1243,-132 1368,-132 1368,-162"/>
<text text-anchor="start" x="1251" y="-150" font-family="Helvetica,sans-Serif" font-size="10.00">include/JSystem/JStudio</text>
<text text-anchor="middle" x="1305.5" y="-139" font-family="Helvetica,sans-Serif" font-size="10.00">/JStudio/jstudio&#45;object.h</text>
</a>
</g>
</g>
<!-- Node50&#45;&gt;Node52 -->
<g id="edge38" class="edge">
<title>Node50&#45;&gt;Node52</title>
<path fill="none" stroke="#63b8ff" d="M1404.3,-269.65C1352.16,-262.08 1288.9,-248.85 1272.5,-228 1256.71,-207.92 1276.45,-179.23 1291.48,-162.22"/>
<polygon fill="#63b8ff" stroke="#63b8ff" points="1403.69,-273.1 1414.08,-271.02 1404.66,-266.17 1403.69,-273.1"/>
</g>
<!-- Node80 -->
<g id="node31" class="node">
<title>Node80</title>
<g id="a_node31"><a xlink:href="ctb-data_8cpp.html" target="_top" xlink:title=" ">
<polygon fill="white" stroke="#666666" points="1533,-228 1424,-228 1424,-198 1533,-198 1533,-228"/>
<text text-anchor="start" x="1432" y="-216" font-family="Helvetica,sans-Serif" font-size="10.00">libs/JSystem/JStudio</text>
<text text-anchor="middle" x="1478.5" y="-205" font-family="Helvetica,sans-Serif" font-size="10.00">/JStudio/ctb&#45;data.cpp</text>
</a>
</g>
</g>
<!-- Node50&#45;&gt;Node80 -->
<g id="edge39" class="edge">
<title>Node50&#45;&gt;Node80</title>
<path fill="none" stroke="#63b8ff" d="M1478.5,-252.39C1478.5,-244.13 1478.5,-235.28 1478.5,-228.16"/>
<polygon fill="#63b8ff" stroke="#63b8ff" points="1475,-252.28 1478.5,-262.28 1482,-252.28 1475,-252.28"/>
</g>
<!-- Node81 -->
<g id="node32" class="node">
<title>Node81</title>
<g id="a_node32"><a xlink:href="ctb_8cpp.html" target="_top" xlink:title=" ">
<polygon fill="white" stroke="#666666" points="1660,-228 1551,-228 1551,-198 1660,-198 1660,-228"/>
<text text-anchor="start" x="1559" y="-216" font-family="Helvetica,sans-Serif" font-size="10.00">libs/JSystem/JStudio</text>
<text text-anchor="middle" x="1605.5" y="-205" font-family="Helvetica,sans-Serif" font-size="10.00">/JStudio/ctb.cpp</text>
</a>
</g>
</g>
<!-- Node50&#45;&gt;Node81 -->
<g id="edge40" class="edge">
<title>Node50&#45;&gt;Node81</title>
<path fill="none" stroke="#63b8ff" d="M1517.02,-258.59C1536.36,-248.84 1559.38,-237.24 1577.09,-228.31"/>
<polygon fill="#63b8ff" stroke="#63b8ff" points="1515.71,-255.33 1508.35,-262.96 1518.86,-261.58 1515.71,-255.33"/>
</g>
<!-- Node51&#45;&gt;Node52 -->
<g id="edge37" class="edge">
<title>Node51&#45;&gt;Node52</title>
<path fill="none" stroke="#63b8ff" d="M1329.32,-188.11C1324.13,-179.38 1318.43,-169.78 1313.91,-162.16"/>
<polygon fill="#63b8ff" stroke="#63b8ff" points="1326.18,-189.68 1334.29,-196.49 1332.2,-186.11 1326.18,-189.68"/>
</g>
<!-- Node82&#45;&gt;Node51 -->
<g id="edge42" class="edge">
<title>Node82&#45;&gt;Node51</title>
<path fill="none" stroke="#63b8ff" d="M1581.64,-262.85C1528.31,-251.91 1457.06,-237.29 1406.43,-226.91"/>
<polygon fill="#63b8ff" stroke="#63b8ff" points="1580.76,-266.24 1591.25,-264.82 1582.16,-259.38 1580.76,-266.24"/>
</g>
<!-- Node82&#45;&gt;Node52 -->
<g id="edge43" class="edge">
<title>Node82&#45;&gt;Node52</title>
<path fill="none" stroke="#63b8ff" d="M1669.11,-253.67C1676.88,-236.2 1682.7,-213.14 1669.5,-198 1631.19,-154.07 1462.08,-147.38 1368.44,-147.15"/>
<polygon fill="#63b8ff" stroke="#63b8ff" points="1666.12,-251.84 1664.85,-262.36 1672.4,-254.93 1666.12,-251.84"/>
</g>
<!-- Node83 -->
<g id="node34" class="node">
<title>Node83</title>
<g id="a_node34"><a xlink:href="fvb_8cpp.html" target="_top" xlink:title=" ">
<polygon fill="white" stroke="#666666" points="1826,-228 1717,-228 1717,-198 1826,-198 1826,-228"/>
<text text-anchor="start" x="1725" y="-216" font-family="Helvetica,sans-Serif" font-size="10.00">libs/JSystem/JStudio</text>
<text text-anchor="middle" x="1771.5" y="-205" font-family="Helvetica,sans-Serif" font-size="10.00">/JStudio/fvb.cpp</text>
</a>
</g>
</g>
<!-- Node82&#45;&gt;Node83 -->
<g id="edge44" class="edge">
<title>Node82&#45;&gt;Node83</title>
<path fill="none" stroke="#63b8ff" d="M1691.42,-258.18C1708.93,-248.52 1729.6,-237.12 1745.55,-228.31"/>
<polygon fill="#63b8ff" stroke="#63b8ff" points="1689.92,-255.01 1682.86,-262.91 1693.3,-261.14 1689.92,-255.01"/>
</g>
<!-- Node84&#45;&gt;Node14 -->
<g id="edge49" class="edge">
<title>Node84&#45;&gt;Node14</title>
<path fill="none" stroke="#63b8ff" d="M1209.36,-252.73C1204.27,-219.65 1201.38,-162.3 1234.5,-132 1373.88,-4.47 1892.29,-61.86 2078.5,-30 2086.78,-28.58 2095.62,-26.79 2103.98,-24.97"/>
<polygon fill="#63b8ff" stroke="#63b8ff" points="1205.85,-252.99 1211.01,-262.24 1212.75,-251.79 1205.85,-252.99"/>
</g>
<!-- Node84&#45;&gt;Node51 -->
<g id="edge46" class="edge">
<title>Node84&#45;&gt;Node51</title>
<path fill="none" stroke="#63b8ff" d="M1253.63,-258.59C1273.27,-248.84 1296.66,-237.24 1314.65,-228.31"/>
<polygon fill="#63b8ff" stroke="#63b8ff" points="1252.21,-255.38 1244.81,-262.96 1255.32,-261.66 1252.21,-255.38"/>
</g>
<!-- Node84&#45;&gt;Node52 -->
<g id="edge47" class="edge">
<title>Node84&#45;&gt;Node52</title>
<path fill="none" stroke="#63b8ff" d="M1217.92,-252.39C1221.13,-235.72 1227.19,-214.16 1238.5,-198 1248.82,-183.25 1264.86,-171.06 1278.66,-162.41"/>
<polygon fill="#63b8ff" stroke="#63b8ff" points="1214.51,-251.58 1216.31,-262.03 1221.41,-252.74 1214.51,-251.58"/>
</g>
<!-- Node85 -->
<g id="node36" class="node">
<title>Node85</title>
<g id="a_node36"><a xlink:href="stb_8cpp.html" target="_top" xlink:title=" ">
<polygon fill="white" stroke="#666666" points="1148,-228 1039,-228 1039,-198 1148,-198 1148,-228"/>
<text text-anchor="start" x="1047" y="-216" font-family="Helvetica,sans-Serif" font-size="10.00">libs/JSystem/JStudio</text>
<text text-anchor="middle" x="1093.5" y="-205" font-family="Helvetica,sans-Serif" font-size="10.00">/JStudio/stb.cpp</text>
</a>
</g>
</g>
<!-- Node84&#45;&gt;Node85 -->
<g id="edge48" class="edge">
<title>Node84&#45;&gt;Node85</title>
<path fill="none" stroke="#63b8ff" d="M1177.29,-258.32C1158.97,-248.63 1137.28,-237.16 1120.56,-228.31"/>
<polygon fill="#63b8ff" stroke="#63b8ff" points="1175.53,-261.35 1186.01,-262.93 1178.8,-255.16 1175.53,-261.35"/>
</g>
<!-- Node86&#45;&gt;Node26 -->
<g id="edge59" class="edge">
<title>Node86&#45;&gt;Node26</title>
<path fill="none" stroke="#63b8ff" d="M2613.23,-264.29C2700.11,-257.73 3048.57,-264.62 3082.5,-228 3191.84,-109.98 2869.17,-44.83 2737.62,-23.72"/>
<polygon fill="#63b8ff" stroke="#63b8ff" points="2613.11,-260.78 2603.5,-265.26 2613.8,-267.75 2613.11,-260.78"/>
</g>
<!-- Node87 -->
<g id="node38" class="node">
<title>Node87</title>
<g id="a_node38"><a xlink:href="JFWDisplay_8cpp.html" target="_top" xlink:title=" ">
<polygon fill="white" stroke="#666666" points="3259.5,-228 3129.5,-228 3129.5,-198 3259.5,-198 3259.5,-228"/>
<text text-anchor="start" x="3137.5" y="-216" font-family="Helvetica,sans-Serif" font-size="10.00">libs/JSystem/JFramework</text>
<text text-anchor="middle" x="3194.5" y="-205" font-family="Helvetica,sans-Serif" font-size="10.00">/JFWDisplay.cpp</text>
</a>
</g>
</g>
<!-- Node86&#45;&gt;Node87 -->
<g id="edge51" class="edge">
<title>Node86&#45;&gt;Node87</title>
<path fill="none" stroke="#63b8ff" d="M2613.08,-263.93C2836.02,-234.9 2896.23,-255.19 3115.5,-228 3119.92,-227.45 3124.48,-226.82 3129.05,-226.14"/>
<polygon fill="#63b8ff" stroke="#63b8ff" points="2612.95,-260.41 2603.5,-265.19 2613.87,-267.35 2612.95,-260.41"/>
</g>
<!-- Node88 -->
<g id="node39" class="node">
<title>Node88</title>
<g id="a_node39"><a xlink:href="JFWSystem_8cpp.html" target="_top" xlink:title=" ">
<polygon fill="white" stroke="#666666" points="3407.5,-228 3277.5,-228 3277.5,-198 3407.5,-198 3407.5,-228"/>
<text text-anchor="start" x="3285.5" y="-216" font-family="Helvetica,sans-Serif" font-size="10.00">libs/JSystem/JFramework</text>
<text text-anchor="middle" x="3342.5" y="-205" font-family="Helvetica,sans-Serif" font-size="10.00">/JFWSystem.cpp</text>
</a>
</g>
</g>
<!-- Node86&#45;&gt;Node88 -->
<g id="edge52" class="edge">
<title>Node86&#45;&gt;Node88</title>
<path fill="none" stroke="#63b8ff" d="M2613.29,-263.93C2903.64,-228.52 2981.88,-262.81 3268.5,-228 3271.36,-227.65 3274.27,-227.26 3277.2,-226.84"/>
<polygon fill="#63b8ff" stroke="#63b8ff" points="2612.98,-260.44 2603.49,-265.14 2613.84,-267.39 2612.98,-260.44"/>
</g>
<!-- Node89 -->
<g id="node40" class="node">
<title>Node89</title>
<g id="a_node40"><a xlink:href="JKRSolidHeap_8cpp.html" target="_top" xlink:title=" ">
<polygon fill="white" stroke="#666666" points="3535,-228 3426,-228 3426,-198 3535,-198 3535,-228"/>
<text text-anchor="start" x="3434" y="-216" font-family="Helvetica,sans-Serif" font-size="10.00">libs/JSystem/JKernel</text>
<text text-anchor="middle" x="3480.5" y="-205" font-family="Helvetica,sans-Serif" font-size="10.00">/JKRSolidHeap.cpp</text>
</a>
</g>
</g>
<!-- Node86&#45;&gt;Node89 -->
<g id="edge53" class="edge">
<title>Node86&#45;&gt;Node89</title>
<path fill="none" stroke="#63b8ff" d="M2613.39,-263.94C2969.08,-222.34 3065.12,-273.95 3416.5,-228 3419.55,-227.6 3422.66,-227.13 3425.8,-226.61"/>
<polygon fill="#63b8ff" stroke="#63b8ff" points="2613,-260.46 2603.49,-265.11 2613.83,-267.41 2613,-260.46"/>
</g>
<!-- Node90 -->
<g id="node41" class="node">
<title>Node90</title>
<g id="a_node41"><a xlink:href="JKRThread_8cpp.html" target="_top" xlink:title=" ">
<polygon fill="white" stroke="#666666" points="1953,-228 1844,-228 1844,-198 1953,-198 1953,-228"/>
<text text-anchor="start" x="1852" y="-216" font-family="Helvetica,sans-Serif" font-size="10.00">libs/JSystem/JKernel</text>
<text text-anchor="middle" x="1898.5" y="-205" font-family="Helvetica,sans-Serif" font-size="10.00">/JKRThread.cpp</text>
</a>
</g>
</g>
<!-- Node86&#45;&gt;Node90 -->
<g id="edge54" class="edge">
<title>Node86&#45;&gt;Node90</title>
<path fill="none" stroke="#63b8ff" d="M2467.75,-274.72C2357.83,-269.09 2143.07,-255.44 1962.5,-228 1959.46,-227.54 1956.36,-227.02 1953.23,-226.46"/>
<polygon fill="#63b8ff" stroke="#63b8ff" points="2467.35,-278.21 2477.51,-275.22 2467.7,-271.22 2467.35,-278.21"/>
</g>
<!-- Node91 -->
<g id="node42" class="node">
<title>Node91</title>
<g id="a_node42"><a xlink:href="JUTConsole_8cpp.html" target="_top" xlink:title=" ">
<polygon fill="white" stroke="#666666" points="2077.5,-228 1971.5,-228 1971.5,-198 2077.5,-198 2077.5,-228"/>
<text text-anchor="start" x="1979.5" y="-216" font-family="Helvetica,sans-Serif" font-size="10.00">libs/JSystem/JUtility</text>
<text text-anchor="middle" x="2024.5" y="-205" font-family="Helvetica,sans-Serif" font-size="10.00">/JUTConsole.cpp</text>
</a>
</g>
</g>
<!-- Node86&#45;&gt;Node91 -->
<g id="edge55" class="edge">
<title>Node86&#45;&gt;Node91</title>
<path fill="none" stroke="#63b8ff" d="M2467.82,-272.53C2377.88,-265.18 2220.24,-250.39 2086.5,-228 2083.67,-227.53 2080.78,-227 2077.86,-226.45"/>
<polygon fill="#63b8ff" stroke="#63b8ff" points="2467.49,-276.01 2477.74,-273.33 2468.06,-269.04 2467.49,-276.01"/>
</g>
<!-- Node92 -->
<g id="node43" class="node">
<title>Node92</title>
<g id="a_node43"><a xlink:href="JUTException_8cpp.html" target="_top" xlink:title=" ">
<polygon fill="white" stroke="#666666" points="2201.5,-228 2095.5,-228 2095.5,-198 2201.5,-198 2201.5,-228"/>
<text text-anchor="start" x="2103.5" y="-216" font-family="Helvetica,sans-Serif" font-size="10.00">libs/JSystem/JUtility</text>
<text text-anchor="middle" x="2148.5" y="-205" font-family="Helvetica,sans-Serif" font-size="10.00">/JUTException.cpp</text>
</a>
</g>
</g>
<!-- Node86&#45;&gt;Node92 -->
<g id="edge56" class="edge">
<title>Node86&#45;&gt;Node92</title>
<path fill="none" stroke="#63b8ff" d="M2467.88,-268.52C2400.85,-259.41 2298.65,-244.61 2210.5,-228 2207.68,-227.47 2204.79,-226.9 2201.88,-226.31"/>
<polygon fill="#63b8ff" stroke="#63b8ff" points="2467.27,-271.97 2477.65,-269.84 2468.21,-265.03 2467.27,-271.97"/>
</g>
<!-- Node93 -->
<g id="node44" class="node">
<title>Node93</title>
<g id="a_node44"><a xlink:href="JUTResFont_8cpp.html" target="_top" xlink:title=" ">
<polygon fill="white" stroke="#666666" points="2325.5,-228 2219.5,-228 2219.5,-198 2325.5,-198 2325.5,-228"/>
<text text-anchor="start" x="2227.5" y="-216" font-family="Helvetica,sans-Serif" font-size="10.00">libs/JSystem/JUtility</text>
<text text-anchor="middle" x="2272.5" y="-205" font-family="Helvetica,sans-Serif" font-size="10.00">/JUTResFont.cpp</text>
</a>
</g>
</g>
<!-- Node86&#45;&gt;Node93 -->
<g id="edge57" class="edge">
<title>Node86&#45;&gt;Node93</title>
<path fill="none" stroke="#63b8ff" d="M2468.87,-260.89C2423.93,-250.16 2366.95,-236.55 2325.95,-226.76"/>
<polygon fill="#63b8ff" stroke="#63b8ff" points="2468.01,-264.29 2478.55,-263.21 2469.64,-257.48 2468.01,-264.29"/>
</g>
<!-- Node94 -->
<g id="node45" class="node">
<title>Node94</title>
<g id="a_node45"><a xlink:href="DynamicLink_8cpp.html" target="_top" xlink:title=" ">
<polygon fill="white" stroke="#666666" points="2451,-222.5 2344,-222.5 2344,-203.5 2451,-203.5 2451,-222.5"/>
<text text-anchor="middle" x="2397.5" y="-210.5" font-family="Helvetica,sans-Serif" font-size="10.00">src/DynamicLink.cpp</text>
</a>
</g>
</g>
<!-- Node86&#45;&gt;Node94 -->
<g id="edge58" class="edge">
<title>Node86&#45;&gt;Node94</title>
<path fill="none" stroke="#63b8ff" d="M2498.19,-259.06C2471.55,-247.14 2438.39,-232.3 2417.58,-222.99"/>
<polygon fill="#63b8ff" stroke="#63b8ff" points="2496.47,-262.13 2507.03,-263.02 2499.33,-255.74 2496.47,-262.13"/>
</g>
<!-- Node95 -->
<g id="node46" class="node">
<title>Node95</title>
<g id="a_node46"><a xlink:href="m__Do__graphic_8cpp.html" target="_top" xlink:title=" ">
<polygon fill="white" stroke="#666666" points="2611.5,-222.5 2469.5,-222.5 2469.5,-203.5 2611.5,-203.5 2611.5,-222.5"/>
<text text-anchor="middle" x="2540.5" y="-210.5" font-family="Helvetica,sans-Serif" font-size="10.00">src/m_Do/m_Do_graphic.cpp</text>
</a>
</g>
</g>
<!-- Node86&#45;&gt;Node95 -->
<g id="edge60" class="edge">
<title>Node86&#45;&gt;Node95</title>
<path fill="none" stroke="#63b8ff" d="M2540.5,-252.59C2540.5,-242.06 2540.5,-230.53 2540.5,-222.84"/>
<polygon fill="#63b8ff" stroke="#63b8ff" points="2537,-252.28 2540.5,-262.28 2544,-252.28 2537,-252.28"/>
</g>
<!-- Node96 -->
<g id="node47" class="node">
<title>Node96</title>
<g id="a_node47"><a xlink:href="m__Do__machine_8cpp.html" target="_top" xlink:title=" ">
<polygon fill="white" stroke="#666666" points="2777,-222.5 2630,-222.5 2630,-203.5 2777,-203.5 2777,-222.5"/>
<text text-anchor="middle" x="2703.5" y="-210.5" font-family="Helvetica,sans-Serif" font-size="10.00">src/m_Do/m_Do_machine.cpp</text>
</a>
</g>
</g>
<!-- Node86&#45;&gt;Node96 -->
<g id="edge61" class="edge">
<title>Node86&#45;&gt;Node96</title>
<path fill="none" stroke="#63b8ff" d="M2587.52,-259.54C2618.08,-247.54 2656.57,-232.43 2680.61,-222.99"/>
<polygon fill="#63b8ff" stroke="#63b8ff" points="2586.52,-256.17 2578.49,-263.08 2589.08,-262.69 2586.52,-256.17"/>
</g>
<!-- Node97 -->
<g id="node48" class="node">
<title>Node97</title>
<g id="a_node48"><a xlink:href="m__Do__machine__exception_8cpp.html" target="_top" xlink:title=" ">
<polygon fill="white" stroke="#666666" points="2924,-228 2795,-228 2795,-198 2924,-198 2924,-228"/>
<text text-anchor="start" x="2803" y="-216" font-family="Helvetica,sans-Serif" font-size="10.00">src/m_Do/m_Do_machine</text>
<text text-anchor="middle" x="2859.5" y="-205" font-family="Helvetica,sans-Serif" font-size="10.00">_exception.cpp</text>
</a>
</g>
</g>
<!-- Node86&#45;&gt;Node97 -->
<g id="edge62" class="edge">
<title>Node86&#45;&gt;Node97</title>
<path fill="none" stroke="#63b8ff" d="M2612.64,-263.53C2667.36,-252.55 2741.92,-237.59 2794.74,-226.99"/>
<polygon fill="#63b8ff" stroke="#63b8ff" points="2612.23,-260.04 2603.11,-265.44 2613.61,-266.9 2612.23,-260.04"/>
</g>
<!-- Node98 -->
<g id="node49" class="node">
<title>Node98</title>
<g id="a_node49"><a xlink:href="m__Do__main_8cpp.html" target="_top" xlink:title=" ">
<polygon fill="white" stroke="#666666" points="3073,-222.5 2942,-222.5 2942,-203.5 3073,-203.5 3073,-222.5"/>
<text text-anchor="middle" x="3007.5" y="-210.5" font-family="Helvetica,sans-Serif" font-size="10.00">src/m_Do/m_Do_main.cpp</text>
</a>
</g>
</g>
<!-- Node86&#45;&gt;Node98 -->
<g id="edge63" class="edge">
<title>Node86&#45;&gt;Node98</title>
<path fill="none" stroke="#63b8ff" d="M2613.01,-263.87C2755.78,-242.41 2794.71,-248.86 2933.5,-228 2943.07,-226.56 2953.29,-224.79 2962.98,-222.99"/>
<polygon fill="#63b8ff" stroke="#63b8ff" points="2612.49,-260.41 2603.13,-265.38 2613.54,-267.33 2612.49,-260.41"/>
</g>
</g>
</svg>
