<?xml version="1.0" encoding="UTF-8" standalone="no"?>
<!DOCTYPE svg PUBLIC "-//W3C//DTD SVG 1.1//EN"
 "http://www.w3.org/Graphics/SVG/1.1/DTD/svg11.dtd">
<!-- Generated by graphviz version 3.0.0 (20220413.0106)
 -->
<!-- Title: include/m_Do/m_Do_printf.h Pages: 1 -->
<svg width="1098pt" height="408pt"
 viewBox="0.00 0.00 1097.64 408.00" xmlns="http://www.w3.org/2000/svg" xmlns:xlink="http://www.w3.org/1999/xlink">
<g id="graph0" class="graph" transform="scale(1 1) rotate(0) translate(4 404)">
<title>include/m_Do/m_Do_printf.h</title>
<polygon fill="white" stroke="transparent" points="-4,4 -4,-404 1093.64,-404 1093.64,4 -4,4"/>
<!-- Node1 -->
<g id="node1" class="node">
<title>Node1</title>
<g id="a_node1"><a xlink:title=" ">
<polygon fill="#bfbfbf" stroke="black" points="228.5,-380.5 228.5,-399.5 367.5,-399.5 367.5,-380.5 228.5,-380.5"/>
<text text-anchor="middle" x="298" y="-387.5" font-family="Helvetica,sans-Serif" font-size="10.00">include/m_Do/m_Do_printf.h</text>
</a>
</g>
</g>
<!-- Node2 -->
<g id="node2" class="node">
<title>Node2</title>
<g id="a_node2"><a xlink:href="char__io_8h.html" target="_top" xlink:title=" ">
<polygon fill="white" stroke="black" points="38,-313.5 38,-343.5 174,-343.5 174,-313.5 38,-313.5"/>
<text text-anchor="start" x="46" y="-331.5" font-family="Helvetica,sans-Serif" font-size="10.00">MSL_C/MSL_Common/Src</text>
<text text-anchor="middle" x="106" y="-320.5" font-family="Helvetica,sans-Serif" font-size="10.00">/char_io.h</text>
</a>
</g>
</g>
<!-- Node1&#45;&gt;Node2 -->
<g id="edge1" class="edge">
<title>Node1&#45;&gt;Node2</title>
<path fill="none" stroke="midnightblue" d="M270.49,-380.48C242.06,-371.66 196.9,-357.67 161.08,-346.57"/>
<polygon fill="midnightblue" stroke="midnightblue" points="161.84,-343.14 151.25,-343.52 159.77,-349.83 161.84,-343.14"/>
</g>
<!-- Node4 -->
<g id="node4" class="node">
<title>Node4</title>
<g id="a_node4"><a xlink:href="types_8h.html" target="_top" xlink:title=" ">
<polygon fill="white" stroke="black" points="503.5,-0.5 503.5,-19.5 584.5,-19.5 584.5,-0.5 503.5,-0.5"/>
<text text-anchor="middle" x="544" y="-7.5" font-family="Helvetica,sans-Serif" font-size="10.00">dolphin/types.h</text>
</a>
</g>
</g>
<!-- Node1&#45;&gt;Node4 -->
<g id="edge9" class="edge">
<title>Node1&#45;&gt;Node4</title>
<path fill="none" stroke="midnightblue" d="M284.65,-380.32C258.27,-361.98 202,-316.54 202,-262.5 202,-262.5 202,-262.5 202,-137.5 202,-89.17 231.73,-79.43 274,-56 310.82,-35.59 425.98,-21.88 493.42,-15.37"/>
<polygon fill="midnightblue" stroke="midnightblue" points="493.79,-18.85 503.41,-14.42 493.13,-11.88 493.79,-18.85"/>
</g>
<!-- Node5 -->
<g id="node5" class="node">
<title>Node5</title>
<g id="a_node5"><a xlink:href="printf_8h.html" target="_top" xlink:title=" ">
<polygon fill="white" stroke="black" points="230,-123.5 230,-153.5 366,-153.5 366,-123.5 230,-123.5"/>
<text text-anchor="start" x="238" y="-141.5" font-family="Helvetica,sans-Serif" font-size="10.00">MSL_C/MSL_Common/Src</text>
<text text-anchor="middle" x="298" y="-130.5" font-family="Helvetica,sans-Serif" font-size="10.00">/printf.h</text>
</a>
</g>
</g>
<!-- Node1&#45;&gt;Node5 -->
<g id="edge4" class="edge">
<title>Node1&#45;&gt;Node5</title>
<path fill="none" stroke="midnightblue" d="M298,-380.41C298,-346.02 298,-217.51 298,-163.57"/>
<polygon fill="midnightblue" stroke="midnightblue" points="301.5,-163.54 298,-153.54 294.5,-163.54 301.5,-163.54"/>
</g>
<!-- Node6 -->
<g id="node6" class="node">
<title>Node6</title>
<g id="a_node6"><a xlink:href="____va__arg_8h.html" target="_top" xlink:title=" ">
<polygon fill="white" stroke="black" points="294,-56.5 294,-86.5 404,-86.5 404,-56.5 294,-56.5"/>
<text text-anchor="start" x="302" y="-74.5" font-family="Helvetica,sans-Serif" font-size="10.00">Runtime.PPCEABI.H/</text>
<text text-anchor="middle" x="349" y="-63.5" font-family="Helvetica,sans-Serif" font-size="10.00">__va_arg.h</text>
</a>
</g>
</g>
<!-- Node1&#45;&gt;Node6 -->
<g id="edge8" class="edge">
<title>Node1&#45;&gt;Node6</title>
<path fill="none" stroke="midnightblue" d="M311.35,-380.32C337.73,-361.98 394,-316.54 394,-262.5 394,-262.5 394,-262.5 394,-199 394,-161.14 375.88,-120.39 362.64,-95.67"/>
<polygon fill="midnightblue" stroke="midnightblue" points="365.58,-93.76 357.68,-86.71 359.46,-97.16 365.58,-93.76"/>
</g>
<!-- Node7 -->
<g id="node7" class="node">
<title>Node7</title>
<g id="a_node7"><a xlink:href="m__Do__main_8h.html" target="_top" xlink:title=" ">
<polygon fill="white" stroke="black" points="454,-319 454,-338 558,-338 558,-319 454,-319"/>
<text text-anchor="middle" x="506" y="-326" font-family="Helvetica,sans-Serif" font-size="10.00">m_Do/m_Do_main.h</text>
</a>
</g>
</g>
<!-- Node1&#45;&gt;Node7 -->
<g id="edge10" class="edge">
<title>Node1&#45;&gt;Node7</title>
<path fill="none" stroke="midnightblue" d="M327.8,-380.48C364.25,-370.05 426.08,-352.36 466.47,-340.81"/>
<polygon fill="midnightblue" stroke="midnightblue" points="467.6,-344.12 476.25,-338.01 465.68,-337.39 467.6,-344.12"/>
</g>
<!-- Node3 -->
<g id="node3" class="node">
<title>Node3</title>
<g id="a_node3"><a xlink:href="ansi__files_8h.html" target="_top" xlink:title=" ">
<polygon fill="white" stroke="black" points="0,-246.5 0,-276.5 136,-276.5 136,-246.5 0,-246.5"/>
<text text-anchor="start" x="8" y="-264.5" font-family="Helvetica,sans-Serif" font-size="10.00">MSL_C/MSL_Common/Src</text>
<text text-anchor="middle" x="68" y="-253.5" font-family="Helvetica,sans-Serif" font-size="10.00">/ansi_files.h</text>
</a>
</g>
</g>
<!-- Node2&#45;&gt;Node3 -->
<g id="edge2" class="edge">
<title>Node2&#45;&gt;Node3</title>
<path fill="none" stroke="midnightblue" d="M97.75,-313.4C92.97,-305.22 86.84,-294.73 81.38,-285.39"/>
<polygon fill="midnightblue" stroke="midnightblue" points="84.3,-283.44 76.23,-276.58 78.25,-286.98 84.3,-283.44"/>
</g>
<!-- Node2&#45;&gt;Node4 -->
<g id="edge3" class="edge">
<title>Node2&#45;&gt;Node4</title>
<path fill="none" stroke="midnightblue" d="M119.72,-313.13C128.14,-303.57 138.53,-290.36 145,-277 160.18,-245.67 164,-235.82 164,-201 164,-201 164,-201 164,-137.5 164,-99.74 159.24,-80.47 188,-56 232.91,-17.78 406.07,-11.48 493.24,-10.79"/>
<polygon fill="midnightblue" stroke="midnightblue" points="493.46,-14.29 503.43,-10.73 493.41,-7.29 493.46,-14.29"/>
</g>
<!-- Node5&#45;&gt;Node4 -->
<g id="edge7" class="edge">
<title>Node5&#45;&gt;Node4</title>
<path fill="none" stroke="midnightblue" d="M289.75,-123.34C280.59,-105.52 269.04,-74.97 285,-56 311.09,-24.98 425.67,-15.34 493.38,-12.35"/>
<polygon fill="midnightblue" stroke="midnightblue" points="493.57,-15.84 503.42,-11.94 493.28,-8.85 493.57,-15.84"/>
</g>
<!-- Node5&#45;&gt;Node6 -->
<g id="edge5" class="edge">
<title>Node5&#45;&gt;Node6</title>
<path fill="none" stroke="midnightblue" d="M309.07,-123.4C315.68,-114.96 324.23,-104.07 331.72,-94.52"/>
<polygon fill="midnightblue" stroke="midnightblue" points="334.54,-96.6 337.96,-86.58 329.03,-92.28 334.54,-96.6"/>
</g>
<!-- Node6&#45;&gt;Node4 -->
<g id="edge6" class="edge">
<title>Node6&#45;&gt;Node4</title>
<path fill="none" stroke="midnightblue" d="M395.21,-56.4C429.05,-46.07 474.42,-32.23 506.13,-22.56"/>
<polygon fill="midnightblue" stroke="midnightblue" points="507.37,-25.84 515.91,-19.57 505.32,-19.14 507.37,-25.84"/>
</g>
<!-- Node7&#45;&gt;Node4 -->
<g id="edge29" class="edge">
<title>Node7&#45;&gt;Node4</title>
<path fill="none" stroke="midnightblue" d="M492.59,-318.7C479.97,-309.71 461.47,-294.6 451,-277 433.2,-247.07 432,-235.82 432,-201 432,-201 432,-201 432,-137.5 432,-96.34 448.22,-86.38 476,-56 487.72,-43.18 503.82,-32.31 517.42,-24.47"/>
<polygon fill="midnightblue" stroke="midnightblue" points="519.29,-27.44 526.34,-19.54 515.9,-21.31 519.29,-27.44"/>
</g>
<!-- Node8 -->
<g id="node8" class="node">
<title>Node8</title>
<g id="a_node8"><a xlink:href="JKRExpHeap_8h.html" target="_top" xlink:title=" ">
<polygon fill="white" stroke="black" points="459.5,-252 459.5,-271 618.5,-271 618.5,-252 459.5,-252"/>
<text text-anchor="middle" x="539" y="-259" font-family="Helvetica,sans-Serif" font-size="10.00">JSystem/JKernel/JKRExpHeap.h</text>
</a>
</g>
</g>
<!-- Node7&#45;&gt;Node8 -->
<g id="edge11" class="edge">
<title>Node7&#45;&gt;Node8</title>
<path fill="none" stroke="midnightblue" d="M510.45,-318.73C515.45,-308.89 523.69,-292.66 530.03,-280.16"/>
<polygon fill="midnightblue" stroke="midnightblue" points="533.21,-281.63 534.62,-271.13 526.97,-278.46 533.21,-281.63"/>
</g>
<!-- Node15 -->
<g id="node15" class="node">
<title>Node15</title>
<g id="a_node15"><a xlink:href="dvd_8h.html" target="_top" xlink:title=" ">
<polygon fill="white" stroke="black" points="498,-62 498,-81 590,-81 590,-62 498,-62"/>
<text text-anchor="middle" x="544" y="-69" font-family="Helvetica,sans-Serif" font-size="10.00">dolphin/dvd/dvd.h</text>
</a>
</g>
</g>
<!-- Node7&#45;&gt;Node15 -->
<g id="edge28" class="edge">
<title>Node7&#45;&gt;Node15</title>
<path fill="none" stroke="midnightblue" d="M558.2,-319.67C583.79,-312.91 612.4,-300.35 628,-277 670.63,-213.22 595.48,-124.37 560.48,-88.48"/>
<polygon fill="midnightblue" stroke="midnightblue" points="562.84,-85.88 553.3,-81.28 557.89,-90.83 562.84,-85.88"/>
</g>
<!-- Node8&#45;&gt;Node4 -->
<g id="edge27" class="edge">
<title>Node8&#45;&gt;Node4</title>
<path fill="none" stroke="midnightblue" d="M532.97,-251.91C513.49,-222.99 455.35,-127.01 489,-56 495.13,-43.07 506.99,-32.62 518.14,-25.05"/>
<polygon fill="midnightblue" stroke="midnightblue" points="520.19,-27.9 526.8,-19.61 516.47,-21.97 520.19,-27.9"/>
</g>
<!-- Node9 -->
<g id="node9" class="node">
<title>Node9</title>
<g id="a_node9"><a xlink:href="JKRHeap_8h.html" target="_top" xlink:title=" ">
<polygon fill="white" stroke="black" points="752.5,-190.5 752.5,-209.5 895.5,-209.5 895.5,-190.5 752.5,-190.5"/>
<text text-anchor="middle" x="824" y="-197.5" font-family="Helvetica,sans-Serif" font-size="10.00">JSystem/JKernel/JKRHeap.h</text>
</a>
</g>
</g>
<!-- Node8&#45;&gt;Node9 -->
<g id="edge12" class="edge">
<title>Node8&#45;&gt;Node9</title>
<path fill="none" stroke="midnightblue" d="M579.83,-251.98C630.84,-241.33 718.1,-223.11 773.32,-211.58"/>
<polygon fill="midnightblue" stroke="midnightblue" points="774.17,-214.98 783.24,-209.51 772.74,-208.13 774.17,-214.98"/>
</g>
<!-- Node9&#45;&gt;Node4 -->
<g id="edge26" class="edge">
<title>Node9&#45;&gt;Node4</title>
<path fill="none" stroke="midnightblue" d="M833.33,-190.23C857.85,-166.16 919.81,-98.02 883,-56 864.33,-34.68 684.92,-20.13 594.94,-14.11"/>
<polygon fill="midnightblue" stroke="midnightblue" points="594.89,-10.6 584.69,-13.44 594.43,-17.59 594.89,-10.6"/>
</g>
<!-- Node10 -->
<g id="node10" class="node">
<title>Node10</title>
<g id="a_node10"><a xlink:href="JKRDisposer_8h.html" target="_top" xlink:title=" ">
<polygon fill="white" stroke="black" points="930,-129 930,-148 1088,-148 1088,-129 930,-129"/>
<text text-anchor="middle" x="1009" y="-136" font-family="Helvetica,sans-Serif" font-size="10.00">JSystem/JKernel/JKRDisposer.h</text>
</a>
</g>
</g>
<!-- Node9&#45;&gt;Node10 -->
<g id="edge13" class="edge">
<title>Node9&#45;&gt;Node10</title>
<path fill="none" stroke="midnightblue" d="M850.51,-190.48C882.65,-180.14 936.99,-162.66 972.93,-151.1"/>
<polygon fill="midnightblue" stroke="midnightblue" points="974.1,-154.4 982.54,-148.01 971.95,-147.74 974.1,-154.4"/>
</g>
<!-- Node12 -->
<g id="node12" class="node">
<title>Node12</title>
<g id="a_node12"><a xlink:href="OS_8h.html" target="_top" xlink:title=" ">
<polygon fill="white" stroke="black" points="686,-129 686,-148 772,-148 772,-129 686,-129"/>
<text text-anchor="middle" x="729" y="-136" font-family="Helvetica,sans-Serif" font-size="10.00">dolphin/os/OS.h</text>
</a>
</g>
</g>
<!-- Node9&#45;&gt;Node12 -->
<g id="edge17" class="edge">
<title>Node9&#45;&gt;Node12</title>
<path fill="none" stroke="midnightblue" d="M810.39,-190.48C794.94,-180.8 769.51,-164.87 751.18,-153.39"/>
<polygon fill="midnightblue" stroke="midnightblue" points="752.92,-150.35 742.59,-148.01 749.2,-156.28 752.92,-150.35"/>
</g>
<!-- Node10&#45;&gt;Node4 -->
<g id="edge16" class="edge">
<title>Node10&#45;&gt;Node4</title>
<path fill="none" stroke="midnightblue" d="M1027.04,-128.9C1056.01,-114 1107.33,-82.44 1083,-56 1050.34,-20.5 722.88,-13 594.88,-11.42"/>
<polygon fill="midnightblue" stroke="midnightblue" points="594.61,-7.92 584.57,-11.3 594.53,-14.91 594.61,-7.92"/>
</g>
<!-- Node11 -->
<g id="node11" class="node">
<title>Node11</title>
<g id="a_node11"><a xlink:href="JSUList_8h.html" target="_top" xlink:title=" ">
<polygon fill="white" stroke="black" points="930.5,-62 930.5,-81 1073.5,-81 1073.5,-62 930.5,-62"/>
<text text-anchor="middle" x="1002" y="-69" font-family="Helvetica,sans-Serif" font-size="10.00">JSystem/JSupport/JSUList.h</text>
</a>
</g>
</g>
<!-- Node10&#45;&gt;Node11 -->
<g id="edge14" class="edge">
<title>Node10&#45;&gt;Node11</title>
<path fill="none" stroke="midnightblue" d="M1008.06,-128.73C1007.03,-119.18 1005.35,-103.62 1004.02,-91.28"/>
<polygon fill="midnightblue" stroke="midnightblue" points="1007.48,-90.7 1002.93,-81.13 1000.52,-91.44 1007.48,-90.7"/>
</g>
<!-- Node11&#45;&gt;Node4 -->
<g id="edge15" class="edge">
<title>Node11&#45;&gt;Node4</title>
<path fill="none" stroke="midnightblue" d="M953.85,-61.97C941.53,-59.9 928.29,-57.78 916,-56 801.4,-39.42 666.32,-24.14 594.65,-16.37"/>
<polygon fill="midnightblue" stroke="midnightblue" points="594.86,-12.87 584.54,-15.28 594.11,-19.83 594.86,-12.87"/>
</g>
<!-- Node12&#45;&gt;Node4 -->
<g id="edge19" class="edge">
<title>Node12&#45;&gt;Node4</title>
<path fill="none" stroke="midnightblue" d="M731.09,-128.65C734.39,-112.2 738.79,-76.7 721,-56 704.67,-37 641.04,-24.31 594.74,-17.38"/>
<polygon fill="midnightblue" stroke="midnightblue" points="594.96,-13.87 584.56,-15.9 593.95,-20.8 594.96,-13.87"/>
</g>
<!-- Node12&#45;&gt;Node6 -->
<g id="edge18" class="edge">
<title>Node12&#45;&gt;Node6</title>
<path fill="none" stroke="midnightblue" d="M685.78,-130.11C619.41,-118.75 491.95,-96.95 414.28,-83.67"/>
<polygon fill="midnightblue" stroke="midnightblue" points="414.58,-80.17 404.13,-81.93 413.4,-87.07 414.58,-80.17"/>
</g>
<!-- Node13 -->
<g id="node13" class="node">
<title>Node13</title>
<g id="a_node13"><a xlink:href="OSError_8h.html" target="_top" xlink:title=" ">
<polygon fill="white" stroke="black" points="768,-62 768,-81 874,-81 874,-62 768,-62"/>
<text text-anchor="middle" x="821" y="-69" font-family="Helvetica,sans-Serif" font-size="10.00">dolphin/os/OSError.h</text>
</a>
</g>
</g>
<!-- Node12&#45;&gt;Node13 -->
<g id="edge20" class="edge">
<title>Node12&#45;&gt;Node13</title>
<path fill="none" stroke="midnightblue" d="M741.41,-128.73C756.58,-118.01 782.48,-99.72 800.6,-86.91"/>
<polygon fill="midnightblue" stroke="midnightblue" points="802.64,-89.76 808.79,-81.13 798.6,-84.04 802.64,-89.76"/>
</g>
<!-- Node14 -->
<g id="node14" class="node">
<title>Node14</title>
<g id="a_node14"><a xlink:href="OSLink_8h.html" target="_top" xlink:title=" ">
<polygon fill="white" stroke="black" points="608,-62 608,-81 712,-81 712,-62 608,-62"/>
<text text-anchor="middle" x="660" y="-69" font-family="Helvetica,sans-Serif" font-size="10.00">dolphin/os/OSLink.h</text>
</a>
</g>
</g>
<!-- Node12&#45;&gt;Node14 -->
<g id="edge22" class="edge">
<title>Node12&#45;&gt;Node14</title>
<path fill="none" stroke="midnightblue" d="M719.69,-128.73C708.73,-118.4 690.29,-101.04 676.81,-88.33"/>
<polygon fill="midnightblue" stroke="midnightblue" points="678.84,-85.44 669.16,-81.13 674.04,-90.53 678.84,-85.44"/>
</g>
<!-- Node12&#45;&gt;Node15 -->
<g id="edge24" class="edge">
<title>Node12&#45;&gt;Node15</title>
<path fill="none" stroke="midnightblue" d="M704.43,-128.87C672,-117.47 614.73,-97.35 578.12,-84.49"/>
<polygon fill="midnightblue" stroke="midnightblue" points="578.97,-81.08 568.37,-81.06 576.65,-87.68 578.97,-81.08"/>
</g>
<!-- Node13&#45;&gt;Node4 -->
<g id="edge21" class="edge">
<title>Node13&#45;&gt;Node4</title>
<path fill="none" stroke="midnightblue" d="M781.68,-61.98C772.59,-60.01 762.96,-57.93 754,-56 699.16,-44.19 636.26,-30.72 593.7,-21.62"/>
<polygon fill="midnightblue" stroke="midnightblue" points="594.38,-18.19 583.87,-19.52 592.92,-25.03 594.38,-18.19"/>
</g>
<!-- Node14&#45;&gt;Node4 -->
<g id="edge23" class="edge">
<title>Node14&#45;&gt;Node4</title>
<path fill="none" stroke="midnightblue" d="M643.38,-61.98C624.08,-52.08 592.04,-35.64 569.57,-24.12"/>
<polygon fill="midnightblue" stroke="midnightblue" points="571.08,-20.96 560.59,-19.51 567.89,-27.19 571.08,-20.96"/>
</g>
<!-- Node15&#45;&gt;Node4 -->
<g id="edge25" class="edge">
<title>Node15&#45;&gt;Node4</title>
<path fill="none" stroke="midnightblue" d="M544,-61.98C544,-53.58 544,-40.48 544,-29.66"/>
<polygon fill="midnightblue" stroke="midnightblue" points="547.5,-29.51 544,-19.51 540.5,-29.51 547.5,-29.51"/>
</g>
</g>
</svg>
