<?xml version="1.0" encoding="UTF-8" standalone="no"?>
<!DOCTYPE svg PUBLIC "-//W3C//DTD SVG 1.1//EN"
 "http://www.w3.org/Graphics/SVG/1.1/DTD/svg11.dtd">
<!-- Generated by graphviz version 7.0.5 (20221223.1930)
 -->
<!-- Title: include/m_Do/m_Do_main.h Pages: 1 -->
<svg width="2177pt" height="489pt"
 viewBox="0.00 0.00 2177.00 489.00" xmlns="http://www.w3.org/2000/svg" xmlns:xlink="http://www.w3.org/1999/xlink">
<g id="graph0" class="graph" transform="scale(1 1) rotate(0) translate(4 485)">
<title>include/m_Do/m_Do_main.h</title>
<!-- Node1 -->
<g id="node1" class="node">
<title>Node1</title>
<g id="a_node1"><a xlink:title=" ">
<polygon fill="#999999" stroke="#666666" points="641,-481 503,-481 503,-462 641,-462 641,-481"/>
<text text-anchor="middle" x="572" y="-469" font-family="Helvetica,sans-Serif" font-size="10.00">include/m_Do/m_Do_main.h</text>
</a>
</g>
</g>
<!-- Node2 -->
<g id="node2" class="node">
<title>Node2</title>
<g id="a_node2"><a xlink:href="JKRExpHeap_8h.html" target="_top" xlink:title=" ">
<polygon fill="white" stroke="#666666" points="651.5,-426 492.5,-426 492.5,-407 651.5,-407 651.5,-426"/>
<text text-anchor="middle" x="572" y="-414" font-family="Helvetica,sans-Serif" font-size="10.00">JSystem/JKernel/JKRExpHeap.h</text>
</a>
</g>
</g>
<!-- Node1&#45;&gt;Node2 -->
<g id="edge1" class="edge">
<title>Node1&#45;&gt;Node2</title>
<path fill="none" stroke="#63b8ff" d="M572,-461.75C572,-455.27 572,-446.16 572,-437.9"/>
<polygon fill="#63b8ff" stroke="#63b8ff" points="575.5,-437.96 572,-427.96 568.5,-437.96 575.5,-437.96"/>
</g>
<!-- Node6 -->
<g id="node6" class="node">
<title>Node6</title>
<g id="a_node6"><a xlink:href="types_8h.html" target="_top" xlink:title=" ">
<polygon fill="white" stroke="#666666" points="1322.5,-85 1241.5,-85 1241.5,-66 1322.5,-66 1322.5,-85"/>
<text text-anchor="middle" x="1282" y="-73" font-family="Helvetica,sans-Serif" font-size="10.00">dolphin/types.h</text>
</a>
</g>
</g>
<!-- Node1&#45;&gt;Node6 -->
<g id="edge60" class="edge">
<title>Node1&#45;&gt;Node6</title>
<path fill="none" stroke="#63b8ff" d="M502.72,-464.59C350.43,-450.67 0,-413.12 0,-362.5 0,-362.5 0,-362.5 0,-195.5 0,-139.72 48.35,-139.42 101,-121 208.33,-83.45 1015.29,-77.56 1229.78,-76.66"/>
<polygon fill="#63b8ff" stroke="#63b8ff" points="1229.51,-80.16 1239.49,-76.62 1229.48,-73.16 1229.51,-80.16"/>
</g>
<!-- Node10 -->
<g id="node10" class="node">
<title>Node10</title>
<g id="a_node10"><a xlink:href="dvd_8h.html" target="_top" xlink:title=" ">
<polygon fill="white" stroke="#666666" points="2141,-261 2049,-261 2049,-242 2141,-242 2141,-261"/>
<text text-anchor="middle" x="2095" y="-249" font-family="Helvetica,sans-Serif" font-size="10.00">dolphin/dvd/dvd.h</text>
</a>
</g>
</g>
<!-- Node1&#45;&gt;Node10 -->
<g id="edge59" class="edge">
<title>Node1&#45;&gt;Node10</title>
<path fill="none" stroke="#63b8ff" d="M641.28,-467.19C808.03,-458.5 1244.54,-431.4 1604,-371 1772.87,-342.63 1969.8,-288.59 2053.73,-264.55"/>
<polygon fill="#63b8ff" stroke="#63b8ff" points="2054.48,-267.98 2063.12,-261.85 2052.54,-261.25 2054.48,-267.98"/>
</g>
<!-- Node3 -->
<g id="node3" class="node">
<title>Node3</title>
<g id="a_node3"><a xlink:href="JKRHeap_8h.html" target="_top" xlink:title=" ">
<polygon fill="white" stroke="#666666" points="1595.5,-371 1452.5,-371 1452.5,-352 1595.5,-352 1595.5,-371"/>
<text text-anchor="middle" x="1524" y="-359" font-family="Helvetica,sans-Serif" font-size="10.00">JSystem/JKernel/JKRHeap.h</text>
</a>
</g>
</g>
<!-- Node2&#45;&gt;Node3 -->
<g id="edge2" class="edge">
<title>Node2&#45;&gt;Node3</title>
<path fill="none" stroke="#63b8ff" d="M651.94,-411.05C830.39,-401.12 1259.72,-377.21 1441,-367.12"/>
<polygon fill="#63b8ff" stroke="#63b8ff" points="1441.02,-370.63 1450.81,-366.57 1440.63,-363.64 1441.02,-370.63"/>
</g>
<!-- Node2&#45;&gt;Node6 -->
<g id="edge58" class="edge">
<title>Node2&#45;&gt;Node6</title>
<path fill="none" stroke="#63b8ff" d="M492.05,-415.69C343.09,-413.89 38,-399.01 38,-307.5 38,-307.5 38,-307.5 38,-195.5 38,-73.75 994.36,-74.02 1230.01,-75.93"/>
<polygon fill="#63b8ff" stroke="#63b8ff" points="1229.77,-79.43 1239.8,-76.01 1229.83,-72.43 1229.77,-79.43"/>
</g>
<!-- Node4 -->
<g id="node4" class="node">
<title>Node4</title>
<g id="a_node4"><a xlink:href="JKRDisposer_8h.html" target="_top" xlink:title=" ">
<polygon fill="white" stroke="#666666" points="2072,-206 1914,-206 1914,-187 2072,-187 2072,-206"/>
<text text-anchor="middle" x="1993" y="-194" font-family="Helvetica,sans-Serif" font-size="10.00">JSystem/JKernel/JKRDisposer.h</text>
</a>
</g>
</g>
<!-- Node3&#45;&gt;Node4 -->
<g id="edge3" class="edge">
<title>Node3&#45;&gt;Node4</title>
<path fill="none" stroke="#63b8ff" d="M1561.93,-351.51C1625.18,-336.05 1755.73,-302.07 1862,-261 1899.5,-246.5 1940.98,-225.5 1967.01,-211.68"/>
<polygon fill="#63b8ff" stroke="#63b8ff" points="1968.35,-214.94 1975.51,-207.13 1965.04,-208.77 1968.35,-214.94"/>
</g>
<!-- Node3&#45;&gt;Node6 -->
<g id="edge57" class="edge">
<title>Node3&#45;&gt;Node6</title>
<path fill="none" stroke="#63b8ff" d="M1595.8,-355.92C1763.92,-344.23 2169,-310.09 2169,-252.5 2169,-252.5 2169,-252.5 2169,-195.5 2169,-154.08 2149.55,-140.49 2113,-121 2044.53,-84.49 1505.77,-77.92 1334.25,-76.75"/>
<polygon fill="#63b8ff" stroke="#63b8ff" points="1334.32,-73.25 1324.3,-76.69 1334.28,-80.25 1334.32,-73.25"/>
</g>
<!-- Node8 -->
<g id="node8" class="node">
<title>Node8</title>
<g id="a_node8"><a xlink:href="OS_8h.html" target="_top" xlink:title=" ">
<polygon fill="white" stroke="#666666" points="1153,-316 1067,-316 1067,-297 1153,-297 1153,-316"/>
<text text-anchor="middle" x="1110" y="-304" font-family="Helvetica,sans-Serif" font-size="10.00">dolphin/os/OS.h</text>
</a>
</g>
</g>
<!-- Node3&#45;&gt;Node8 -->
<g id="edge8" class="edge">
<title>Node3&#45;&gt;Node8</title>
<path fill="none" stroke="#63b8ff" d="M1453.77,-351.51C1372.09,-341.05 1238.99,-324.01 1164.64,-314.49"/>
<polygon fill="#63b8ff" stroke="#63b8ff" points="1165.09,-311.02 1154.73,-313.23 1164.2,-317.97 1165.09,-311.02"/>
</g>
<!-- Node5 -->
<g id="node5" class="node">
<title>Node5</title>
<g id="a_node5"><a xlink:href="JSUList_8h.html" target="_top" xlink:title=" ">
<polygon fill="white" stroke="#666666" points="2064.5,-145.5 1921.5,-145.5 1921.5,-126.5 2064.5,-126.5 2064.5,-145.5"/>
<text text-anchor="middle" x="1993" y="-133.5" font-family="Helvetica,sans-Serif" font-size="10.00">JSystem/JSupport/JSUList.h</text>
</a>
</g>
</g>
<!-- Node4&#45;&gt;Node5 -->
<g id="edge4" class="edge">
<title>Node4&#45;&gt;Node5</title>
<path fill="none" stroke="#63b8ff" d="M1993,-186.87C1993,-179 1993,-167.1 1993,-156.89"/>
<polygon fill="#63b8ff" stroke="#63b8ff" points="1996.5,-157.18 1993,-147.18 1989.5,-157.18 1996.5,-157.18"/>
</g>
<!-- Node4&#45;&gt;Node6 -->
<g id="edge7" class="edge">
<title>Node4&#45;&gt;Node6</title>
<path fill="none" stroke="#63b8ff" d="M2024.86,-186.56C2042.38,-179.83 2062.61,-168.67 2073,-151 2079.76,-139.51 2082.16,-130.69 2073,-121 2047.6,-94.13 1506.65,-81 1334.27,-77.49"/>
<polygon fill="#63b8ff" stroke="#63b8ff" points="1334.57,-73.99 1324.5,-77.29 1334.43,-80.99 1334.57,-73.99"/>
</g>
<!-- Node5&#45;&gt;Node6 -->
<g id="edge5" class="edge">
<title>Node5&#45;&gt;Node6</title>
<path fill="none" stroke="#63b8ff" d="M1946,-126.05C1934.89,-124.17 1923.05,-122.34 1912,-121 1698.28,-95.05 1441.8,-82.73 1333.87,-78.4"/>
<polygon fill="#63b8ff" stroke="#63b8ff" points="1334.32,-74.91 1324.19,-78.01 1334.04,-81.91 1334.32,-74.91"/>
</g>
<!-- Node7 -->
<g id="node7" class="node">
<title>Node7</title>
<g id="a_node7"><a xlink:href="stddef_8h.html" target="_top" xlink:title=" ">
<polygon fill="white" stroke="#666666" points="1350,-30 1214,-30 1214,0 1350,0 1350,-30"/>
<text text-anchor="start" x="1222" y="-18" font-family="Helvetica,sans-Serif" font-size="10.00">MSL_C/MSL_Common/Src</text>
<text text-anchor="middle" x="1282" y="-7" font-family="Helvetica,sans-Serif" font-size="10.00">/stddef.h</text>
</a>
</g>
</g>
<!-- Node6&#45;&gt;Node7 -->
<g id="edge6" class="edge">
<title>Node6&#45;&gt;Node7</title>
<path fill="none" stroke="#63b8ff" d="M1282,-65.87C1282,-59.4 1282,-50.2 1282,-41.45"/>
<polygon fill="#63b8ff" stroke="#63b8ff" points="1285.5,-41.63 1282,-31.63 1278.5,-41.63 1285.5,-41.63"/>
</g>
<!-- Node9 -->
<g id="node9" class="node">
<title>Node9</title>
<g id="a_node9"><a xlink:href="____va__arg_8h.html" target="_top" xlink:title=" ">
<polygon fill="white" stroke="#666666" points="1903,-151 1793,-151 1793,-121 1903,-121 1903,-151"/>
<text text-anchor="start" x="1801" y="-139" font-family="Helvetica,sans-Serif" font-size="10.00">Runtime.PPCEABI.H/</text>
<text text-anchor="middle" x="1848" y="-128" font-family="Helvetica,sans-Serif" font-size="10.00">__va_arg.h</text>
</a>
</g>
</g>
<!-- Node8&#45;&gt;Node9 -->
<g id="edge9" class="edge">
<title>Node8&#45;&gt;Node9</title>
<path fill="none" stroke="#63b8ff" d="M1153.35,-304.73C1275.1,-302.18 1618.29,-292.36 1726,-261 1775.45,-246.6 1795.65,-246.07 1828,-206 1837.88,-193.77 1842.88,-176.85 1845.41,-162.83"/>
<polygon fill="#63b8ff" stroke="#63b8ff" points="1848.87,-163.34 1846.84,-152.94 1841.94,-162.33 1848.87,-163.34"/>
</g>
<!-- Node8&#45;&gt;Node10 -->
<g id="edge11" class="edge">
<title>Node8&#45;&gt;Node10</title>
<path fill="none" stroke="#63b8ff" d="M1153.28,-303.17C1311.41,-294.66 1858.09,-265.25 2037.48,-255.6"/>
<polygon fill="#63b8ff" stroke="#63b8ff" points="2037.45,-259.1 2047.24,-255.07 2037.07,-252.11 2037.45,-259.1"/>
</g>
<!-- Node11 -->
<g id="node11" class="node">
<title>Node11</title>
<g id="a_node11"><a xlink:href="OSAlarm_8h.html" target="_top" xlink:title=" ">
<polygon fill="white" stroke="#666666" points="908.5,-261 797.5,-261 797.5,-242 908.5,-242 908.5,-261"/>
<text text-anchor="middle" x="853" y="-249" font-family="Helvetica,sans-Serif" font-size="10.00">dolphin/os/OSAlarm.h</text>
</a>
</g>
</g>
<!-- Node8&#45;&gt;Node11 -->
<g id="edge13" class="edge">
<title>Node8&#45;&gt;Node11</title>
<path fill="none" stroke="#63b8ff" d="M1066.69,-296.57C1022.86,-287.53 954.95,-273.52 907.48,-263.74"/>
<polygon fill="#63b8ff" stroke="#63b8ff" points="908.47,-260.37 897.97,-261.77 907.05,-267.22 908.47,-260.37"/>
</g>
<!-- Node12 -->
<g id="node12" class="node">
<title>Node12</title>
<g id="a_node12"><a xlink:href="OSTime_8h.html" target="_top" xlink:title=" ">
<polygon fill="white" stroke="#666666" points="953.5,-206 846.5,-206 846.5,-187 953.5,-187 953.5,-206"/>
<text text-anchor="middle" x="900" y="-194" font-family="Helvetica,sans-Serif" font-size="10.00">dolphin/os/OSTime.h</text>
</a>
</g>
</g>
<!-- Node8&#45;&gt;Node12 -->
<g id="edge56" class="edge">
<title>Node8&#45;&gt;Node12</title>
<path fill="none" stroke="#63b8ff" d="M1066.8,-299.72C1034.35,-293.85 989.85,-282.45 956,-261 937.62,-249.35 921.76,-229.94 911.67,-215.64"/>
<polygon fill="#63b8ff" stroke="#63b8ff" points="914.72,-213.9 906.22,-207.56 908.91,-217.81 914.72,-213.9"/>
</g>
<!-- Node13 -->
<g id="node13" class="node">
<title>Node13</title>
<g id="a_node13"><a xlink:href="OSError_8h.html" target="_top" xlink:title=" ">
<polygon fill="white" stroke="#666666" points="664,-206 558,-206 558,-187 664,-187 664,-206"/>
<text text-anchor="middle" x="611" y="-194" font-family="Helvetica,sans-Serif" font-size="10.00">dolphin/os/OSError.h</text>
</a>
</g>
</g>
<!-- Node8&#45;&gt;Node13 -->
<g id="edge28" class="edge">
<title>Node8&#45;&gt;Node13</title>
<path fill="none" stroke="#63b8ff" d="M1066.78,-306.12C966.01,-306.82 718.82,-303.98 650,-261 633.89,-250.94 623.44,-231.55 617.45,-216.82"/>
<polygon fill="#63b8ff" stroke="#63b8ff" points="620.83,-215.89 614.1,-207.71 614.26,-218.3 620.83,-215.89"/>
</g>
<!-- Node14 -->
<g id="node14" class="node">
<title>Node14</title>
<g id="a_node14"><a xlink:href="OSContext_8h.html" target="_top" xlink:title=" ">
<polygon fill="white" stroke="#666666" points="500.5,-145.5 381.5,-145.5 381.5,-126.5 500.5,-126.5 500.5,-145.5"/>
<text text-anchor="middle" x="441" y="-133.5" font-family="Helvetica,sans-Serif" font-size="10.00">dolphin/os/OSContext.h</text>
</a>
</g>
</g>
<!-- Node8&#45;&gt;Node14 -->
<g id="edge27" class="edge">
<title>Node8&#45;&gt;Node14</title>
<path fill="none" stroke="#63b8ff" d="M1066.99,-304.29C927.19,-300.13 491.28,-285.34 433,-261 393.41,-244.46 351.37,-225.15 371,-187 379.08,-171.29 394.64,-159.42 409.04,-151.2"/>
<polygon fill="#63b8ff" stroke="#63b8ff" points="410.64,-154.32 417.86,-146.56 407.38,-148.12 410.64,-154.32"/>
</g>
<!-- Node15 -->
<g id="node15" class="node">
<title>Node15</title>
<g id="a_node15"><a xlink:href="OSAlloc_8h.html" target="_top" xlink:title=" ">
<polygon fill="white" stroke="#666666" points="789.5,-206 682.5,-206 682.5,-187 789.5,-187 789.5,-206"/>
<text text-anchor="middle" x="736" y="-194" font-family="Helvetica,sans-Serif" font-size="10.00">dolphin/os/OSAlloc.h</text>
</a>
</g>
</g>
<!-- Node8&#45;&gt;Node15 -->
<g id="edge19" class="edge">
<title>Node8&#45;&gt;Node15</title>
<path fill="none" stroke="#63b8ff" d="M1066.66,-304.46C958.99,-301.44 686.08,-290.88 659,-261 641.31,-241.47 671.8,-222.74 699.48,-210.74"/>
<polygon fill="#63b8ff" stroke="#63b8ff" points="700.53,-214.1 708.45,-207.07 697.87,-207.62 700.53,-214.1"/>
</g>
<!-- Node16 -->
<g id="node16" class="node">
<title>Node16</title>
<g id="a_node16"><a xlink:href="OSArena_8h.html" target="_top" xlink:title=" ">
<polygon fill="white" stroke="#666666" points="779.5,-261 668.5,-261 668.5,-242 779.5,-242 779.5,-261"/>
<text text-anchor="middle" x="724" y="-249" font-family="Helvetica,sans-Serif" font-size="10.00">dolphin/os/OSArena.h</text>
</a>
</g>
</g>
<!-- Node8&#45;&gt;Node16 -->
<g id="edge21" class="edge">
<title>Node8&#45;&gt;Node16</title>
<path fill="none" stroke="#63b8ff" d="M1066.84,-299.57C999.9,-290.38 870.51,-272.62 791.25,-261.73"/>
<polygon fill="#63b8ff" stroke="#63b8ff" points="791.81,-258.28 781.43,-260.39 790.86,-265.21 791.81,-258.28"/>
</g>
<!-- Node17 -->
<g id="node17" class="node">
<title>Node17</title>
<g id="a_node17"><a xlink:href="OSAudioSystem_8h.html" target="_top" xlink:title=" ">
<polygon fill="white" stroke="#666666" points="1108.5,-261 965.5,-261 965.5,-242 1108.5,-242 1108.5,-261"/>
<text text-anchor="middle" x="1037" y="-249" font-family="Helvetica,sans-Serif" font-size="10.00">dolphin/os/OSAudioSystem.h</text>
</a>
</g>
</g>
<!-- Node8&#45;&gt;Node17 -->
<g id="edge23" class="edge">
<title>Node8&#45;&gt;Node17</title>
<path fill="none" stroke="#63b8ff" d="M1097.62,-296.51C1086.85,-288.7 1071.03,-277.21 1058.25,-267.93"/>
<polygon fill="#63b8ff" stroke="#63b8ff" points="1060.57,-265.29 1050.43,-262.25 1056.46,-270.95 1060.57,-265.29"/>
</g>
<!-- Node18 -->
<g id="node18" class="node">
<title>Node18</title>
<g id="a_node18"><a xlink:href="OSCache_8h.html" target="_top" xlink:title=" ">
<polygon fill="white" stroke="#666666" points="1239.5,-261 1126.5,-261 1126.5,-242 1239.5,-242 1239.5,-261"/>
<text text-anchor="middle" x="1183" y="-249" font-family="Helvetica,sans-Serif" font-size="10.00">dolphin/os/OSCache.h</text>
</a>
</g>
</g>
<!-- Node8&#45;&gt;Node18 -->
<g id="edge25" class="edge">
<title>Node8&#45;&gt;Node18</title>
<path fill="none" stroke="#63b8ff" d="M1122.38,-296.51C1133.15,-288.7 1148.97,-277.21 1161.75,-267.93"/>
<polygon fill="#63b8ff" stroke="#63b8ff" points="1163.54,-270.95 1169.57,-262.25 1159.43,-265.29 1163.54,-270.95"/>
</g>
<!-- Node19 -->
<g id="node19" class="node">
<title>Node19</title>
<g id="a_node19"><a xlink:href="OSExec_8h.html" target="_top" xlink:title=" ">
<polygon fill="white" stroke="#666666" points="1150.5,-145.5 1043.5,-145.5 1043.5,-126.5 1150.5,-126.5 1150.5,-145.5"/>
<text text-anchor="middle" x="1097" y="-133.5" font-family="Helvetica,sans-Serif" font-size="10.00">dolphin/os/OSExec.h</text>
</a>
</g>
</g>
<!-- Node8&#45;&gt;Node19 -->
<g id="edge29" class="edge">
<title>Node8&#45;&gt;Node19</title>
<path fill="none" stroke="#63b8ff" d="M1153.29,-302.27C1201.1,-296.7 1268.77,-281.73 1248,-242 1223.84,-195.77 1169.02,-165.78 1132.51,-150.13"/>
<polygon fill="#63b8ff" stroke="#63b8ff" points="1134.26,-147.07 1123.68,-146.49 1131.59,-153.54 1134.26,-147.07"/>
</g>
<!-- Node20 -->
<g id="node20" class="node">
<title>Node20</title>
<g id="a_node20"><a xlink:href="OSFont_8h.html" target="_top" xlink:title=" ">
<polygon fill="white" stroke="#666666" points="1273.5,-145.5 1168.5,-145.5 1168.5,-126.5 1273.5,-126.5 1273.5,-145.5"/>
<text text-anchor="middle" x="1221" y="-133.5" font-family="Helvetica,sans-Serif" font-size="10.00">dolphin/os/OSFont.h</text>
</a>
</g>
</g>
<!-- Node8&#45;&gt;Node20 -->
<g id="edge31" class="edge">
<title>Node8&#45;&gt;Node20</title>
<path fill="none" stroke="#63b8ff" d="M1153.46,-298.86C1194.16,-291.65 1250.66,-278.74 1264,-261 1288.65,-228.22 1257.38,-180.23 1236.64,-154.63"/>
<polygon fill="#63b8ff" stroke="#63b8ff" points="1239.44,-152.53 1230.32,-147.15 1234.1,-157.05 1239.44,-152.53"/>
</g>
<!-- Node21 -->
<g id="node21" class="node">
<title>Node21</title>
<g id="a_node21"><a xlink:href="OSInterrupt_8h.html" target="_top" xlink:title=" ">
<polygon fill="white" stroke="#666666" points="502,-206 380,-206 380,-187 502,-187 502,-206"/>
<text text-anchor="middle" x="441" y="-194" font-family="Helvetica,sans-Serif" font-size="10.00">dolphin/os/OSInterrupt.h</text>
</a>
</g>
</g>
<!-- Node8&#45;&gt;Node21 -->
<g id="edge33" class="edge">
<title>Node8&#45;&gt;Node21</title>
<path fill="none" stroke="#63b8ff" d="M1066.69,-305.84C926.07,-306.49 488.79,-304.96 445,-261 433.91,-249.86 433.91,-231.48 436.1,-217.36"/>
<polygon fill="#63b8ff" stroke="#63b8ff" points="439.48,-218.31 438.06,-207.81 432.62,-216.9 439.48,-218.31"/>
</g>
<!-- Node22 -->
<g id="node22" class="node">
<title>Node22</title>
<g id="a_node22"><a xlink:href="OSLink_8h.html" target="_top" xlink:title=" ">
<polygon fill="white" stroke="#666666" points="1396,-145.5 1292,-145.5 1292,-126.5 1396,-126.5 1396,-145.5"/>
<text text-anchor="middle" x="1344" y="-133.5" font-family="Helvetica,sans-Serif" font-size="10.00">dolphin/os/OSLink.h</text>
</a>
</g>
</g>
<!-- Node8&#45;&gt;Node22 -->
<g id="edge35" class="edge">
<title>Node8&#45;&gt;Node22</title>
<path fill="none" stroke="#63b8ff" d="M1153.31,-304.1C1191.04,-300.78 1245.31,-290.68 1282,-261 1315.43,-233.96 1332.39,-184.28 1339.59,-156.72"/>
<polygon fill="#63b8ff" stroke="#63b8ff" points="1342.94,-157.79 1341.88,-147.25 1336.13,-156.14 1342.94,-157.79"/>
</g>
<!-- Node23 -->
<g id="node23" class="node">
<title>Node23</title>
<g id="a_node23"><a xlink:href="OSMemory_8h.html" target="_top" xlink:title=" ">
<polygon fill="white" stroke="#666666" points="574,-261 454,-261 454,-242 574,-242 574,-261"/>
<text text-anchor="middle" x="514" y="-249" font-family="Helvetica,sans-Serif" font-size="10.00">dolphin/os/OSMemory.h</text>
</a>
</g>
</g>
<!-- Node8&#45;&gt;Node23 -->
<g id="edge37" class="edge">
<title>Node8&#45;&gt;Node23</title>
<path fill="none" stroke="#63b8ff" d="M1066.65,-302.24C977.14,-295.4 765.38,-278.74 588,-261 587.16,-260.92 586.31,-260.83 585.45,-260.74"/>
<polygon fill="#63b8ff" stroke="#63b8ff" points="585.98,-257.28 575.66,-259.72 585.25,-264.24 585.98,-257.28"/>
</g>
<!-- Node24 -->
<g id="node24" class="node">
<title>Node24</title>
<g id="a_node24"><a xlink:href="OSMessage_8h.html" target="_top" xlink:title=" ">
<polygon fill="white" stroke="#666666" points="191.5,-261 66.5,-261 66.5,-242 191.5,-242 191.5,-261"/>
<text text-anchor="middle" x="129" y="-249" font-family="Helvetica,sans-Serif" font-size="10.00">dolphin/os/OSMessage.h</text>
</a>
</g>
</g>
<!-- Node8&#45;&gt;Node24 -->
<g id="edge40" class="edge">
<title>Node8&#45;&gt;Node24</title>
<path fill="none" stroke="#63b8ff" d="M1066.87,-304.44C937.7,-301.04 542.44,-289.01 203.09,-261.11"/>
<polygon fill="#63b8ff" stroke="#63b8ff" points="203.57,-257.63 193.31,-260.3 202.99,-264.61 203.57,-257.63"/>
</g>
<!-- Node25 -->
<g id="node25" class="node">
<title>Node25</title>
<g id="a_node25"><a xlink:href="OSThread_8h.html" target="_top" xlink:title=" ">
<polygon fill="white" stroke="#666666" points="324,-206 208,-206 208,-187 324,-187 324,-206"/>
<text text-anchor="middle" x="266" y="-194" font-family="Helvetica,sans-Serif" font-size="10.00">dolphin/os/OSThread.h</text>
</a>
</g>
</g>
<!-- Node8&#45;&gt;Node25 -->
<g id="edge55" class="edge">
<title>Node8&#45;&gt;Node25</title>
<path fill="none" stroke="#63b8ff" d="M1066.69,-305.52C929.31,-305.18 504.71,-300.86 374,-261 356.37,-255.62 314.74,-229.53 288.62,-212.51"/>
<polygon fill="#63b8ff" stroke="#63b8ff" points="290.68,-209.67 280.4,-207.11 286.83,-215.52 290.68,-209.67"/>
</g>
<!-- Node26 -->
<g id="node26" class="node">
<title>Node26</title>
<g id="a_node26"><a xlink:href="OSMutex_8h.html" target="_top" xlink:title=" ">
<polygon fill="white" stroke="#666666" points="322,-261 210,-261 210,-242 322,-242 322,-261"/>
<text text-anchor="middle" x="266" y="-249" font-family="Helvetica,sans-Serif" font-size="10.00">dolphin/os/OSMutex.h</text>
</a>
</g>
</g>
<!-- Node8&#45;&gt;Node26 -->
<g id="edge43" class="edge">
<title>Node8&#45;&gt;Node26</title>
<path fill="none" stroke="#63b8ff" d="M1066.71,-303.97C949.1,-299.62 613.84,-285.83 336,-261 335.15,-260.92 334.3,-260.85 333.45,-260.77"/>
<polygon fill="#63b8ff" stroke="#63b8ff" points="333.94,-257.3 323.64,-259.78 333.24,-264.26 333.94,-257.3"/>
</g>
<!-- Node27 -->
<g id="node27" class="node">
<title>Node27</title>
<g id="a_node27"><a xlink:href="OSReboot_8h.html" target="_top" xlink:title=" ">
<polygon fill="white" stroke="#666666" points="1488,-206 1372,-206 1372,-187 1488,-187 1488,-206"/>
<text text-anchor="middle" x="1430" y="-194" font-family="Helvetica,sans-Serif" font-size="10.00">dolphin/os/OSReboot.h</text>
</a>
</g>
</g>
<!-- Node8&#45;&gt;Node27 -->
<g id="edge45" class="edge">
<title>Node8&#45;&gt;Node27</title>
<path fill="none" stroke="#63b8ff" d="M1153.4,-304.72C1204.68,-302.26 1291.44,-293.17 1358,-261 1381.11,-249.83 1402.48,-229.11 1415.83,-214.38"/>
<polygon fill="#63b8ff" stroke="#63b8ff" points="1418.11,-217.09 1422.06,-207.26 1412.84,-212.49 1418.11,-217.09"/>
</g>
<!-- Node28 -->
<g id="node28" class="node">
<title>Node28</title>
<g id="a_node28"><a xlink:href="OSReset_8h.html" target="_top" xlink:title=" ">
<polygon fill="white" stroke="#666666" points="1617.5,-206 1506.5,-206 1506.5,-187 1617.5,-187 1617.5,-206"/>
<text text-anchor="middle" x="1562" y="-194" font-family="Helvetica,sans-Serif" font-size="10.00">dolphin/os/OSReset.h</text>
</a>
</g>
</g>
<!-- Node8&#45;&gt;Node28 -->
<g id="edge47" class="edge">
<title>Node8&#45;&gt;Node28</title>
<path fill="none" stroke="#63b8ff" d="M1153.23,-301.12C1208.17,-294.96 1305.67,-282.09 1387,-261 1438.66,-247.61 1496.49,-225.07 1531.03,-210.76"/>
<polygon fill="#63b8ff" stroke="#63b8ff" points="1532.12,-214.1 1540,-207.01 1529.42,-207.64 1532.12,-214.1"/>
</g>
<!-- Node29 -->
<g id="node29" class="node">
<title>Node29</title>
<g id="a_node29"><a xlink:href="OSResetSW_8h.html" target="_top" xlink:title=" ">
<polygon fill="white" stroke="#666666" points="1617.5,-145.5 1490.5,-145.5 1490.5,-126.5 1617.5,-126.5 1617.5,-145.5"/>
<text text-anchor="middle" x="1554" y="-133.5" font-family="Helvetica,sans-Serif" font-size="10.00">dolphin/os/OSResetSW.h</text>
</a>
</g>
</g>
<!-- Node8&#45;&gt;Node29 -->
<g id="edge49" class="edge">
<title>Node8&#45;&gt;Node29</title>
<path fill="none" stroke="#63b8ff" d="M1153.21,-304.23C1266.81,-299.88 1569.01,-281.29 1626,-206 1642.24,-184.55 1612.24,-163.72 1586.15,-150.66"/>
<polygon fill="#63b8ff" stroke="#63b8ff" points="1587.99,-147.66 1577.45,-146.53 1584.99,-153.98 1587.99,-147.66"/>
</g>
<!-- Node30 -->
<g id="node30" class="node">
<title>Node30</title>
<g id="a_node30"><a xlink:href="OSRtc_8h.html" target="_top" xlink:title=" ">
<polygon fill="white" stroke="#666666" points="1736.5,-145.5 1635.5,-145.5 1635.5,-126.5 1736.5,-126.5 1736.5,-145.5"/>
<text text-anchor="middle" x="1686" y="-133.5" font-family="Helvetica,sans-Serif" font-size="10.00">dolphin/os/OSRtc.h</text>
</a>
</g>
</g>
<!-- Node8&#45;&gt;Node30 -->
<g id="edge51" class="edge">
<title>Node8&#45;&gt;Node30</title>
<path fill="none" stroke="#63b8ff" d="M1153.35,-303.83C1250.89,-299.66 1484.85,-287.17 1559,-261 1601.08,-246.15 1611.8,-237.91 1643,-206 1657.47,-191.2 1669.47,-170.72 1677.08,-155.92"/>
<polygon fill="#63b8ff" stroke="#63b8ff" points="1680.07,-157.77 1681.35,-147.26 1673.79,-154.68 1680.07,-157.77"/>
</g>
<!-- Node31 -->
<g id="node31" class="node">
<title>Node31</title>
<g id="a_node31"><a xlink:href="OSSync_8h.html" target="_top" xlink:title=" ">
<polygon fill="white" stroke="#666666" points="1819.5,-206 1712.5,-206 1712.5,-187 1819.5,-187 1819.5,-206"/>
<text text-anchor="middle" x="1766" y="-194" font-family="Helvetica,sans-Serif" font-size="10.00">dolphin/os/OSSync.h</text>
</a>
</g>
</g>
<!-- Node8&#45;&gt;Node31 -->
<g id="edge53" class="edge">
<title>Node8&#45;&gt;Node31</title>
<path fill="none" stroke="#63b8ff" d="M1153.12,-305.9C1271.69,-306.43 1600.26,-303.87 1698,-261 1720.57,-251.1 1740.39,-230.44 1752.72,-215.37"/>
<polygon fill="#63b8ff" stroke="#63b8ff" points="1755.37,-217.67 1758.77,-207.63 1749.85,-213.36 1755.37,-217.67"/>
</g>
<!-- Node9&#45;&gt;Node6 -->
<g id="edge10" class="edge">
<title>Node9&#45;&gt;Node6</title>
<path fill="none" stroke="#63b8ff" d="M1792.73,-123.22C1788.1,-122.41 1783.48,-121.65 1779,-121 1617.63,-97.48 1424.84,-84.49 1334.1,-79.26"/>
<polygon fill="#63b8ff" stroke="#63b8ff" points="1334.46,-75.77 1324.28,-78.7 1334.06,-82.76 1334.46,-75.77"/>
</g>
<!-- Node10&#45;&gt;Node6 -->
<g id="edge12" class="edge">
<title>Node10&#45;&gt;Node6</title>
<path fill="none" stroke="#63b8ff" d="M2098.19,-241.74C2106.07,-218.42 2123.53,-154.32 2091,-121 2064.53,-93.88 1509.11,-80.88 1334.23,-77.45"/>
<polygon fill="#63b8ff" stroke="#63b8ff" points="1334.37,-73.95 1324.31,-77.26 1334.24,-80.95 1334.37,-73.95"/>
</g>
<!-- Node11&#45;&gt;Node12 -->
<g id="edge14" class="edge">
<title>Node11&#45;&gt;Node12</title>
<path fill="none" stroke="#63b8ff" d="M860.76,-241.75C867.19,-234.5 876.51,-223.98 884.46,-215.02"/>
<polygon fill="#63b8ff" stroke="#63b8ff" points="887.05,-217.38 891.07,-207.57 881.81,-212.73 887.05,-217.38"/>
</g>
<!-- Node11&#45;&gt;Node13 -->
<g id="edge16" class="edge">
<title>Node11&#45;&gt;Node13</title>
<path fill="none" stroke="#63b8ff" d="M811.95,-241.51C770.89,-232.52 707.59,-218.65 663.03,-208.9"/>
<polygon fill="#63b8ff" stroke="#63b8ff" points="663.84,-205.49 653.33,-206.77 662.35,-212.33 663.84,-205.49"/>
</g>
<!-- Node12&#45;&gt;Node6 -->
<g id="edge15" class="edge">
<title>Node12&#45;&gt;Node6</title>
<path fill="none" stroke="#63b8ff" d="M904.64,-186.55C913.54,-170.4 934.67,-136.62 963,-121 1007.87,-96.27 1151.94,-84.14 1230.21,-79.25"/>
<polygon fill="#63b8ff" stroke="#63b8ff" points="1229.98,-82.77 1239.75,-78.67 1229.56,-75.78 1229.98,-82.77"/>
</g>
<!-- Node13&#45;&gt;Node14 -->
<g id="edge17" class="edge">
<title>Node13&#45;&gt;Node14</title>
<path fill="none" stroke="#63b8ff" d="M585.18,-186.62C556.6,-176.78 510.29,-160.84 477.89,-149.69"/>
<polygon fill="#63b8ff" stroke="#63b8ff" points="479.09,-146.41 468.49,-146.46 476.81,-153.02 479.09,-146.41"/>
</g>
<!-- Node14&#45;&gt;Node6 -->
<g id="edge18" class="edge">
<title>Node14&#45;&gt;Node6</title>
<path fill="none" stroke="#63b8ff" d="M483.69,-126.07C494.21,-124.13 505.48,-122.28 516,-121 783.09,-88.45 1105.56,-79.56 1229.76,-77.26"/>
<polygon fill="#63b8ff" stroke="#63b8ff" points="1229.7,-80.76 1239.63,-77.08 1229.57,-73.76 1229.7,-80.76"/>
</g>
<!-- Node15&#45;&gt;Node6 -->
<g id="edge20" class="edge">
<title>Node15&#45;&gt;Node6</title>
<path fill="none" stroke="#63b8ff" d="M740.98,-186.67C750.7,-170.4 773.9,-135.98 804,-121 877.61,-84.36 1121.7,-77.76 1229.76,-76.67"/>
<polygon fill="#63b8ff" stroke="#63b8ff" points="1229.53,-80.17 1239.5,-76.58 1229.47,-73.17 1229.53,-80.17"/>
</g>
<!-- Node16&#45;&gt;Node6 -->
<g id="edge22" class="edge">
<title>Node16&#45;&gt;Node6</title>
<path fill="none" stroke="#63b8ff" d="M739.14,-241.66C754.19,-232.82 777.85,-218.74 798,-206 855.72,-169.51 861.97,-144.75 926,-121 1028.89,-82.83 1158.78,-76.12 1229.77,-75.65"/>
<polygon fill="#63b8ff" stroke="#63b8ff" points="1229.56,-79.15 1239.55,-75.63 1229.55,-72.15 1229.56,-79.15"/>
</g>
<!-- Node17&#45;&gt;Node6 -->
<g id="edge24" class="edge">
<title>Node17&#45;&gt;Node6</title>
<path fill="none" stroke="#63b8ff" d="M1031.96,-241.69C1019.6,-218.79 990.9,-156.66 1021,-121 1047.17,-89.99 1161.36,-80.59 1229.73,-77.74"/>
<polygon fill="#63b8ff" stroke="#63b8ff" points="1229.74,-81.24 1239.6,-77.36 1229.48,-74.25 1229.74,-81.24"/>
</g>
<!-- Node18&#45;&gt;Node6 -->
<g id="edge26" class="edge">
<title>Node18&#45;&gt;Node6</title>
<path fill="none" stroke="#63b8ff" d="M1156.82,-241.59C1103.4,-222.05 990.46,-173.05 1034,-121 1058.46,-91.76 1164.56,-81.71 1229.8,-78.27"/>
<polygon fill="#63b8ff" stroke="#63b8ff" points="1229.76,-81.78 1239.57,-77.79 1229.42,-74.79 1229.76,-81.78"/>
</g>
<!-- Node19&#45;&gt;Node6 -->
<g id="edge30" class="edge">
<title>Node19&#45;&gt;Node6</title>
<path fill="none" stroke="#63b8ff" d="M1125.1,-126.12C1156.47,-116.19 1207.48,-100.07 1242.77,-88.9"/>
<polygon fill="#63b8ff" stroke="#63b8ff" points="1243.72,-92.28 1252.19,-85.92 1241.61,-85.6 1243.72,-92.28"/>
</g>
<!-- Node20&#45;&gt;Node6 -->
<g id="edge32" class="edge">
<title>Node20&#45;&gt;Node6</title>
<path fill="none" stroke="#63b8ff" d="M1230.26,-126.12C1239.31,-117.44 1253.31,-104.02 1264.46,-93.32"/>
<polygon fill="#63b8ff" stroke="#63b8ff" points="1266.76,-95.96 1271.56,-86.52 1261.92,-90.91 1266.76,-95.96"/>
</g>
<!-- Node21&#45;&gt;Node14 -->
<g id="edge34" class="edge">
<title>Node21&#45;&gt;Node14</title>
<path fill="none" stroke="#63b8ff" d="M441,-186.87C441,-179 441,-167.1 441,-156.89"/>
<polygon fill="#63b8ff" stroke="#63b8ff" points="444.5,-157.18 441,-147.18 437.5,-157.18 444.5,-157.18"/>
</g>
<!-- Node22&#45;&gt;Node6 -->
<g id="edge36" class="edge">
<title>Node22&#45;&gt;Node6</title>
<path fill="none" stroke="#63b8ff" d="M1334.58,-126.12C1325.39,-117.44 1311.16,-104.02 1299.83,-93.32"/>
<polygon fill="#63b8ff" stroke="#63b8ff" points="1302.28,-90.82 1292.61,-86.51 1297.48,-95.92 1302.28,-90.82"/>
</g>
<!-- Node23&#45;&gt;Node6 -->
<g id="edge38" class="edge">
<title>Node23&#45;&gt;Node6</title>
<path fill="none" stroke="#63b8ff" d="M516.48,-241.72C520.81,-228.02 531.03,-201.61 549,-187 626.57,-123.96 665.88,-140.05 764,-121 932.25,-88.33 1135.88,-79.64 1229.85,-77.33"/>
<polygon fill="#63b8ff" stroke="#63b8ff" points="1229.87,-80.84 1239.78,-77.11 1229.71,-73.84 1229.87,-80.84"/>
</g>
<!-- Node23&#45;&gt;Node21 -->
<g id="edge39" class="edge">
<title>Node23&#45;&gt;Node21</title>
<path fill="none" stroke="#63b8ff" d="M501.62,-241.51C490.85,-233.7 475.03,-222.21 462.25,-212.93"/>
<polygon fill="#63b8ff" stroke="#63b8ff" points="464.57,-210.29 454.43,-207.25 460.46,-215.95 464.57,-210.29"/>
</g>
<!-- Node24&#45;&gt;Node25 -->
<g id="edge41" class="edge">
<title>Node24&#45;&gt;Node25</title>
<path fill="none" stroke="#63b8ff" d="M152.24,-241.51C174.32,-232.97 207.75,-220.03 232.67,-210.4"/>
<polygon fill="#63b8ff" stroke="#63b8ff" points="233.63,-213.78 241.69,-206.9 231.1,-207.25 233.63,-213.78"/>
</g>
<!-- Node25&#45;&gt;Node14 -->
<g id="edge42" class="edge">
<title>Node25&#45;&gt;Node14</title>
<path fill="none" stroke="#63b8ff" d="M292.58,-186.62C322.13,-176.74 370.09,-160.71 403.46,-149.55"/>
<polygon fill="#63b8ff" stroke="#63b8ff" points="404.36,-152.94 412.74,-146.45 402.14,-146.3 404.36,-152.94"/>
</g>
<!-- Node26&#45;&gt;Node25 -->
<g id="edge44" class="edge">
<title>Node26&#45;&gt;Node25</title>
<path fill="none" stroke="#63b8ff" d="M266,-241.75C266,-235.27 266,-226.16 266,-217.9"/>
<polygon fill="#63b8ff" stroke="#63b8ff" points="269.5,-217.96 266,-207.96 262.5,-217.96 269.5,-217.96"/>
</g>
<!-- Node27&#45;&gt;Node6 -->
<g id="edge46" class="edge">
<title>Node27&#45;&gt;Node6</title>
<path fill="none" stroke="#63b8ff" d="M1429.48,-186.9C1428.11,-171.6 1423.11,-139.54 1405,-121 1386.15,-101.7 1358.3,-90.73 1333.87,-84.52"/>
<polygon fill="#63b8ff" stroke="#63b8ff" points="1334.94,-81.17 1324.41,-82.32 1333.36,-87.99 1334.94,-81.17"/>
</g>
<!-- Node28&#45;&gt;Node6 -->
<g id="edge48" class="edge">
<title>Node28&#45;&gt;Node6</title>
<path fill="none" stroke="#63b8ff" d="M1545.52,-186.53C1529.13,-177.58 1503.28,-163.43 1481,-151 1457.36,-137.82 1452.87,-131.68 1428,-121 1396.4,-107.44 1359.32,-96.19 1330.44,-88.39"/>
<polygon fill="#63b8ff" stroke="#63b8ff" points="1331.42,-85.04 1320.86,-85.86 1329.63,-91.8 1331.42,-85.04"/>
</g>
<!-- Node29&#45;&gt;Node6 -->
<g id="edge50" class="edge">
<title>Node29&#45;&gt;Node6</title>
<path fill="none" stroke="#63b8ff" d="M1512.39,-126.05C1464.42,-115.73 1385.53,-98.77 1333.67,-87.61"/>
<polygon fill="#63b8ff" stroke="#63b8ff" points="1334.71,-84.26 1324.19,-85.57 1333.23,-91.1 1334.71,-84.26"/>
</g>
<!-- Node30&#45;&gt;Node6 -->
<g id="edge52" class="edge">
<title>Node30&#45;&gt;Node6</title>
<path fill="none" stroke="#63b8ff" d="M1650.27,-126.04C1642.31,-124.22 1633.89,-122.43 1626,-121 1523.21,-102.41 1401.78,-88.58 1334.16,-81.6"/>
<polygon fill="#63b8ff" stroke="#63b8ff" points="1334.79,-78.14 1324.49,-80.61 1334.08,-85.11 1334.79,-78.14"/>
</g>
<!-- Node31&#45;&gt;Node6 -->
<g id="edge54" class="edge">
<title>Node31&#45;&gt;Node6</title>
<path fill="none" stroke="#63b8ff" d="M1766.44,-186.71C1766.69,-170.83 1764.7,-137.45 1745,-121 1713.99,-95.1 1448.51,-82.5 1334.11,-78.23"/>
<polygon fill="#63b8ff" stroke="#63b8ff" points="1334.5,-74.74 1324.38,-77.88 1334.25,-81.74 1334.5,-74.74"/>
</g>
</g>
</svg>
