<?xml version="1.0" encoding="UTF-8" standalone="no"?>
<!DOCTYPE svg PUBLIC "-//W3C//DTD SVG 1.1//EN"
 "http://www.w3.org/Graphics/SVG/1.1/DTD/svg11.dtd">
<!-- Generated by graphviz version 9.0.0 (20230911.1827)
 -->
<!-- Title: include/m_Do/m_Do_hostIO.h Pages: 1 -->
<!--zoomable 183 -->

<svg id="main" version="1.1" xmlns="http://www.w3.org/2000/svg" xmlns:xlink="http://www.w3.org/1999/xlink" xml:space="preserve" onload="init(evt)">
<style type="text/css"><![CDATA[
.node, .edge {opacity: 0.7;}
.node.selected, .edge.selected {opacity: 1;}
.edge:hover path { stroke: red; }
.edge:hover polygon { stroke: red; fill: red; }
]]></style>

<defs>
  <circle id="rim" cx="0" cy="0" r="7"/>
  <circle id="rim2" cx="0" cy="0" r="3.5"/>
  <g id="zoomPlus">
    <use xlink:href="#rim" fill="#404040"><set attributeName="fill" to="#808080" begin="zoomplus.mouseover" end="zoomplus.mouseout"/></use>
    <path d="M-4,0h8M0,-4v8" fill="none" stroke="white" stroke-width="1.5" pointer-events="none"/>
  </g>
  <g id="zoomMin">
    <use xlink:href="#rim" fill="#404040"><set attributeName="fill" to="#808080" begin="zoomminus.mouseover" end="zoomminus.mouseout"/></use>
    <path d="M-4,0h8" fill="none" stroke="white" stroke-width="1.5" pointer-events="none"/>
  </g>
  <g id="arrowUp" transform="translate(30 24)">
    <use xlink:href="#rim"/>
    <path pointer-events="none" fill="none" stroke="white" stroke-width="1.5" d="M0,-3.0v7 M-2.5,-0.5L0,-3.0L2.5,-0.5"/>
  </g>
  <g id="arrowRight" transform="rotate(90) translate(36 -43)">
    <use xlink:href="#rim"/>
    <path pointer-events="none" fill="none" stroke="white" stroke-width="1.5" d="M0,-3.0v7 M-2.5,-0.5L0,-3.0L2.5,-0.5"/>
  </g>
  <g id="arrowDown" transform="rotate(180) translate(-30 -48)">
    <use xlink:href="#rim"/>
    <path pointer-events="none" fill="none" stroke="white" stroke-width="1.5" d="M0,-3.0v7 M-2.5,-0.5L0,-3.0L2.5,-0.5"/>
  </g>
  <g id="arrowLeft" transform="rotate(270) translate(-36 17)">
    <use xlink:href="#rim"/>
    <path pointer-events="none" fill="none" stroke="white" stroke-width="1.5" d="M0,-3.0v7 M-2.5,-0.5L0,-3.0L2.5,-0.5"/>
  </g>
  <g id="resetDef">
    <use xlink:href="#rim2" fill="#404040"><set attributeName="fill" to="#808080" begin="reset.mouseover" end="reset.mouseout"/></use>
  </g>
</defs>
<script type="application/ecmascript">
var viewWidth = 2549;
var viewHeight = 183;
var sectionId = 'dynsection-0';
</script>
<script type="application/ecmascript" xlink:href="svg.min.js"/>
<svg id="graph" class="graph">
<g id="viewport">
<title>include/m_Do/m_Do_hostIO.h</title>
<!-- Node1 -->
<g id="Node000001" class="node">
<title>Node1</title>
<g id="a_Node000001"><a xlink:title=" ">
<polygon fill="#999999" stroke="#666666" points="1331.88,-174.75 1186.12,-174.75 1186.12,-155.5 1331.88,-155.5 1331.88,-174.75"/>
<text text-anchor="middle" x="1259" y="-161.25" font-family="Helvetica,sans-Serif" font-size="10.00">include/m_Do/m_Do_hostIO.h</text>
</a>
</g>
</g>
<!-- Node2 -->
<g id="Node000002" class="node">
<title>Node2</title>
<g id="a_Node000002"><a xlink:href="d__gameover_8h.html" target="_top" xlink:title=" ">
<polygon fill="white" stroke="#666666" points="180.38,-108.25 61.62,-108.25 61.62,-89 180.38,-89 180.38,-108.25"/>
<text text-anchor="middle" x="121" y="-94.75" font-family="Helvetica,sans-Serif" font-size="10.00">include/d/d_gameover.h</text>
</a>
</g>
</g>
<!-- Node1&#45;&gt;Node2 -->
<g id="edge1_Node000001_Node000002" class="edge">
<title>Node1&#45;&gt;Node2</title>
<g id="a_edge1_Node000001_Node000002"><a xlink:title=" ">
<path fill="none" stroke="#63b8ff" d="M1174.32,-163.24C956.02,-160.54 378.02,-150.59 189,-119.5 174.68,-117.14 159.11,-112.74 146.49,-108.67"/>
<polygon fill="#63b8ff" stroke="#63b8ff" points="1174.13,-166.74 1184.17,-163.36 1174.22,-159.74 1174.13,-166.74"/>
</a>
</g>
</g>
<!-- Node5 -->
<g id="Node000005" class="node">
<title>Node5</title>
<g id="a_Node000005"><a xlink:href="d__a__myna_8h.html" target="_top" xlink:title=" ">
<polygon fill="white" stroke="#666666" points="297.62,-113.88 198.38,-113.88 198.38,-83.38 297.62,-83.38 297.62,-113.88"/>
<text text-anchor="start" x="206.38" y="-100.38" font-family="Helvetica,sans-Serif" font-size="10.00">include/rel/d/a/d_a</text>
<text text-anchor="middle" x="248" y="-89.12" font-family="Helvetica,sans-Serif" font-size="10.00">_myna/d_a_myna.h</text>
</a>
</g>
</g>
<!-- Node1&#45;&gt;Node5 -->
<g id="edge4_Node000001_Node000005" class="edge">
<title>Node1&#45;&gt;Node5</title>
<g id="a_edge4_Node000001_Node000005"><a xlink:title=" ">
<path fill="none" stroke="#63b8ff" d="M1174.41,-163.23C973.3,-160.6 471.09,-150.99 306,-119.5 299.41,-118.24 292.56,-116.4 285.96,-114.34"/>
<polygon fill="#63b8ff" stroke="#63b8ff" points="1174.22,-166.72 1184.27,-163.35 1174.31,-159.72 1174.22,-166.72"/>
</a>
</g>
</g>
<!-- Node6 -->
<g id="Node000006" class="node">
<title>Node6</title>
<g id="a_Node000006"><a xlink:href="d__a__tbox_8h.html" target="_top" xlink:title=" ">
<polygon fill="white" stroke="#666666" points="410.75,-113.88 315.25,-113.88 315.25,-83.38 410.75,-83.38 410.75,-113.88"/>
<text text-anchor="start" x="323.25" y="-100.38" font-family="Helvetica,sans-Serif" font-size="10.00">include/rel/d/a/d_a</text>
<text text-anchor="middle" x="363" y="-89.12" font-family="Helvetica,sans-Serif" font-size="10.00">_tbox/d_a_tbox.h</text>
</a>
</g>
</g>
<!-- Node1&#45;&gt;Node6 -->
<g id="edge5_Node000001_Node000006" class="edge">
<title>Node1&#45;&gt;Node6</title>
<g id="a_edge5_Node000001_Node000006"><a xlink:title=" ">
<path fill="none" stroke="#63b8ff" d="M1174.21,-162.65C990.84,-158.96 562.48,-147.54 420,-119.5 413.52,-118.23 406.78,-116.37 400.3,-114.31"/>
<polygon fill="#63b8ff" stroke="#63b8ff" points="1174.08,-166.15 1184.15,-162.84 1174.22,-159.15 1174.08,-166.15"/>
</a>
</g>
</g>
<!-- Node8 -->
<g id="Node000008" class="node">
<title>Node8</title>
<g id="a_Node000008"><a xlink:href="d__a__obj__barDesk_8h.html" target="_top" xlink:title=" ">
<polygon fill="white" stroke="#666666" points="541.38,-119.5 428.62,-119.5 428.62,-77.75 541.38,-77.75 541.38,-119.5"/>
<text text-anchor="start" x="436.62" y="-106" font-family="Helvetica,sans-Serif" font-size="10.00">include/rel/d/a/obj</text>
<text text-anchor="start" x="436.62" y="-94.75" font-family="Helvetica,sans-Serif" font-size="10.00">/d_a_obj_barDesk/d_a</text>
<text text-anchor="middle" x="485" y="-83.5" font-family="Helvetica,sans-Serif" font-size="10.00">_obj_barDesk.h</text>
</a>
</g>
</g>
<!-- Node1&#45;&gt;Node8 -->
<g id="edge7_Node000001_Node000008" class="edge">
<title>Node1&#45;&gt;Node8</title>
<g id="a_edge7_Node000001_Node000008"><a xlink:title=" ">
<path fill="none" stroke="#63b8ff" d="M1174.39,-165.03C1040.84,-165.06 773.47,-159.46 551,-119.5 547.94,-118.95 544.82,-118.31 541.68,-117.59"/>
<polygon fill="#63b8ff" stroke="#63b8ff" points="1174.21,-168.53 1184.21,-165.01 1174.2,-161.53 1174.21,-168.53"/>
</a>
</g>
</g>
<!-- Node9 -->
<g id="Node000009" class="node">
<title>Node9</title>
<g id="a_Node000009"><a xlink:href="d__a__obj__bsGate_8h.html" target="_top" xlink:title=" ">
<polygon fill="white" stroke="#666666" points="668.12,-119.5 559.88,-119.5 559.88,-77.75 668.12,-77.75 668.12,-119.5"/>
<text text-anchor="start" x="567.88" y="-106" font-family="Helvetica,sans-Serif" font-size="10.00">include/rel/d/a/obj</text>
<text text-anchor="start" x="567.88" y="-94.75" font-family="Helvetica,sans-Serif" font-size="10.00">/d_a_obj_bsGate/d_a</text>
<text text-anchor="middle" x="614" y="-83.5" font-family="Helvetica,sans-Serif" font-size="10.00">_obj_bsGate.h</text>
</a>
</g>
</g>
<!-- Node1&#45;&gt;Node9 -->
<g id="edge8_Node000001_Node000009" class="edge">
<title>Node1&#45;&gt;Node9</title>
<g id="a_edge8_Node000001_Node000009"><a xlink:title=" ">
<path fill="none" stroke="#63b8ff" d="M1174.29,-163.68C1060.28,-161.71 851.59,-153.27 677,-119.5 674.18,-118.96 671.32,-118.33 668.44,-117.64"/>
<polygon fill="#63b8ff" stroke="#63b8ff" points="1174.13,-167.18 1184.19,-163.84 1174.24,-160.18 1174.13,-167.18"/>
</a>
</g>
</g>
<!-- Node10 -->
<g id="Node000010" class="node">
<title>Node10</title>
<g id="a_Node000010"><a xlink:href="d__a__obj__fireWood_8h.html" target="_top" xlink:title=" ">
<polygon fill="white" stroke="#666666" points="789.88,-119.5 686.12,-119.5 686.12,-77.75 789.88,-77.75 789.88,-119.5"/>
<text text-anchor="start" x="694.12" y="-106" font-family="Helvetica,sans-Serif" font-size="10.00">include/rel/d/a/obj</text>
<text text-anchor="start" x="694.12" y="-94.75" font-family="Helvetica,sans-Serif" font-size="10.00">/d_a_obj_fireWood/d</text>
<text text-anchor="middle" x="738" y="-83.5" font-family="Helvetica,sans-Serif" font-size="10.00">_a_obj_fireWood.h</text>
</a>
</g>
</g>
<!-- Node1&#45;&gt;Node10 -->
<g id="edge9_Node000001_Node000010" class="edge">
<title>Node1&#45;&gt;Node10</title>
<g id="a_edge9_Node000001_Node000010"><a xlink:title=" ">
<path fill="none" stroke="#63b8ff" d="M1174.45,-161.45C1081.54,-157.23 928.31,-146.5 799,-119.5 796.06,-118.89 793.05,-118.18 790.04,-117.41"/>
<polygon fill="#63b8ff" stroke="#63b8ff" points="1174.1,-164.93 1184.25,-161.88 1174.41,-157.94 1174.1,-164.93"/>
</a>
</g>
</g>
<!-- Node11 -->
<g id="Node000011" class="node">
<title>Node11</title>
<g id="a_Node000011"><a xlink:href="d__a__obj__hsTarget_8h.html" target="_top" xlink:title=" ">
<polygon fill="white" stroke="#666666" points="912.25,-119.5 807.75,-119.5 807.75,-77.75 912.25,-77.75 912.25,-119.5"/>
<text text-anchor="start" x="815.75" y="-106" font-family="Helvetica,sans-Serif" font-size="10.00">include/rel/d/a/obj</text>
<text text-anchor="start" x="815.75" y="-94.75" font-family="Helvetica,sans-Serif" font-size="10.00">/d_a_obj_hsTarget/d</text>
<text text-anchor="middle" x="860" y="-83.5" font-family="Helvetica,sans-Serif" font-size="10.00">_a_obj_hsTarget.h</text>
</a>
</g>
</g>
<!-- Node1&#45;&gt;Node11 -->
<g id="edge10_Node000001_Node000011" class="edge">
<title>Node1&#45;&gt;Node11</title>
<g id="a_edge10_Node000001_Node000011"><a xlink:title=" ">
<path fill="none" stroke="#63b8ff" d="M1174.53,-157.16C1105.92,-150.49 1006.96,-138.58 922,-119.5 918.91,-118.81 915.76,-118.03 912.59,-117.19"/>
<polygon fill="#63b8ff" stroke="#63b8ff" points="1173.9,-160.61 1184.19,-158.08 1174.57,-153.64 1173.9,-160.61"/>
</a>
</g>
</g>
<!-- Node12 -->
<g id="Node000012" class="node">
<title>Node12</title>
<g id="a_Node000012"><a xlink:href="d__a__obj__lv1Candle00_8h.html" target="_top" xlink:title=" ">
<polygon fill="white" stroke="#666666" points="1049.38,-119.5 930.62,-119.5 930.62,-77.75 1049.38,-77.75 1049.38,-119.5"/>
<text text-anchor="start" x="938.62" y="-106" font-family="Helvetica,sans-Serif" font-size="10.00">include/rel/d/a/obj</text>
<text text-anchor="start" x="938.62" y="-94.75" font-family="Helvetica,sans-Serif" font-size="10.00">/d_a_obj_lv1Candle00</text>
<text text-anchor="middle" x="990" y="-83.5" font-family="Helvetica,sans-Serif" font-size="10.00">/d_a_obj_lv1Candle00.h</text>
</a>
</g>
</g>
<!-- Node1&#45;&gt;Node12 -->
<g id="edge11_Node000001_Node000012" class="edge">
<title>Node1&#45;&gt;Node12</title>
<g id="a_edge11_Node000001_Node000012"><a xlink:title=" ">
<path fill="none" stroke="#63b8ff" d="M1203.54,-152.7C1163.28,-144.17 1107.58,-131.9 1059,-119.5 1055.98,-118.73 1052.89,-117.92 1049.78,-117.09"/>
<polygon fill="#63b8ff" stroke="#63b8ff" points="1202.74,-156.11 1213.25,-154.74 1204.18,-149.26 1202.74,-156.11"/>
</a>
</g>
</g>
<!-- Node13 -->
<g id="Node000013" class="node">
<title>Node13</title>
<g id="a_Node000013"><a xlink:href="d__a__obj__lv1Candle01_8h.html" target="_top" xlink:title=" ">
<polygon fill="white" stroke="#666666" points="1186.38,-119.5 1067.62,-119.5 1067.62,-77.75 1186.38,-77.75 1186.38,-119.5"/>
<text text-anchor="start" x="1075.62" y="-106" font-family="Helvetica,sans-Serif" font-size="10.00">include/rel/d/a/obj</text>
<text text-anchor="start" x="1075.62" y="-94.75" font-family="Helvetica,sans-Serif" font-size="10.00">/d_a_obj_lv1Candle01</text>
<text text-anchor="middle" x="1127" y="-83.5" font-family="Helvetica,sans-Serif" font-size="10.00">/d_a_obj_lv1Candle01.h</text>
</a>
</g>
</g>
<!-- Node1&#45;&gt;Node13 -->
<g id="edge12_Node000001_Node000013" class="edge">
<title>Node1&#45;&gt;Node13</title>
<g id="a_edge12_Node000001_Node000013"><a xlink:title=" ">
<path fill="none" stroke="#63b8ff" d="M1230.2,-150.05C1212.19,-141.25 1188.68,-129.76 1168.65,-119.98"/>
<polygon fill="#63b8ff" stroke="#63b8ff" points="1228.49,-153.11 1239.01,-154.36 1231.56,-146.82 1228.49,-153.11"/>
</a>
</g>
</g>
<!-- Node14 -->
<g id="Node000014" class="node">
<title>Node14</title>
<g id="a_Node000014"><a xlink:href="d__a__obj__lv2Candle_8h.html" target="_top" xlink:title=" ">
<polygon fill="white" stroke="#666666" points="1313.5,-41.75 1204.5,-41.75 1204.5,0 1313.5,0 1313.5,-41.75"/>
<text text-anchor="start" x="1212.5" y="-28.25" font-family="Helvetica,sans-Serif" font-size="10.00">include/rel/d/a/obj</text>
<text text-anchor="start" x="1212.5" y="-17" font-family="Helvetica,sans-Serif" font-size="10.00">/d_a_obj_lv2Candle/d</text>
<text text-anchor="middle" x="1259" y="-5.75" font-family="Helvetica,sans-Serif" font-size="10.00">_a_obj_lv2Candle.h</text>
</a>
</g>
</g>
<!-- Node1&#45;&gt;Node14 -->
<g id="edge13_Node000001_Node000014" class="edge">
<title>Node1&#45;&gt;Node14</title>
<g id="a_edge13_Node000001_Node000014"><a xlink:title=" ">
<path fill="none" stroke="#63b8ff" d="M1245.41,-145.84C1240.48,-138.12 1235.51,-128.78 1233,-119.5 1228.16,-101.59 1228.99,-95.87 1233,-77.75 1235.75,-65.32 1241.56,-52.37 1246.99,-42.07"/>
<polygon fill="#63b8ff" stroke="#63b8ff" points="1242.45,-147.71 1251.01,-153.95 1248.21,-143.73 1242.45,-147.71"/>
</a>
</g>
</g>
<!-- Node15 -->
<g id="Node000015" class="node">
<title>Node15</title>
<g id="a_Node000015"><a xlink:href="d__a__obj__lv4CandleTag_8h.html" target="_top" xlink:title=" ">
<polygon fill="white" stroke="#666666" points="1366.38,-119.5 1241.62,-119.5 1241.62,-77.75 1366.38,-77.75 1366.38,-119.5"/>
<text text-anchor="start" x="1249.62" y="-106" font-family="Helvetica,sans-Serif" font-size="10.00">include/rel/d/a/obj</text>
<text text-anchor="start" x="1249.62" y="-94.75" font-family="Helvetica,sans-Serif" font-size="10.00">/d_a_obj_lv4CandleTag</text>
<text text-anchor="middle" x="1304" y="-83.5" font-family="Helvetica,sans-Serif" font-size="10.00">/d_a_obj_lv4CandleTag.h</text>
</a>
</g>
</g>
<!-- Node1&#45;&gt;Node15 -->
<g id="edge14_Node000001_Node000015" class="edge">
<title>Node1&#45;&gt;Node15</title>
<g id="a_edge14_Node000001_Node000015"><a xlink:title=" ">
<path fill="none" stroke="#63b8ff" d="M1271.72,-145.89C1277.37,-137.8 1284.03,-128.25 1289.84,-119.93"/>
<polygon fill="#63b8ff" stroke="#63b8ff" points="1268.97,-143.71 1266.12,-153.92 1274.72,-147.72 1268.97,-143.71"/>
</a>
</g>
</g>
<!-- Node16 -->
<g id="Node000016" class="node">
<title>Node16</title>
<g id="a_Node000016"><a xlink:href="d__a__obj__lv4Gate_8h.html" target="_top" xlink:title=" ">
<polygon fill="white" stroke="#666666" points="1495.25,-119.5 1384.75,-119.5 1384.75,-77.75 1495.25,-77.75 1495.25,-119.5"/>
<text text-anchor="start" x="1392.75" y="-106" font-family="Helvetica,sans-Serif" font-size="10.00">include/rel/d/a/obj</text>
<text text-anchor="start" x="1392.75" y="-94.75" font-family="Helvetica,sans-Serif" font-size="10.00">/d_a_obj_lv4Gate/d_a</text>
<text text-anchor="middle" x="1440" y="-83.5" font-family="Helvetica,sans-Serif" font-size="10.00">_obj_lv4Gate.h</text>
</a>
</g>
</g>
<!-- Node1&#45;&gt;Node16 -->
<g id="edge16_Node000001_Node000016" class="edge">
<title>Node1&#45;&gt;Node16</title>
<g id="a_edge16_Node000001_Node000016"><a xlink:title=" ">
<path fill="none" stroke="#63b8ff" d="M1295.23,-151.21C1320.75,-142.12 1355.4,-129.77 1384.4,-119.44"/>
<polygon fill="#63b8ff" stroke="#63b8ff" points="1294.22,-147.86 1285.97,-154.51 1296.57,-154.45 1294.22,-147.86"/>
</a>
</g>
</g>
<!-- Node17 -->
<g id="Node000017" class="node">
<title>Node17</title>
<g id="a_Node000017"><a xlink:href="d__a__obj__lv4HsTarget_8h.html" target="_top" xlink:title=" ">
<polygon fill="white" stroke="#666666" points="1632.38,-119.5 1513.62,-119.5 1513.62,-77.75 1632.38,-77.75 1632.38,-119.5"/>
<text text-anchor="start" x="1521.62" y="-106" font-family="Helvetica,sans-Serif" font-size="10.00">include/rel/d/a/obj</text>
<text text-anchor="start" x="1521.62" y="-94.75" font-family="Helvetica,sans-Serif" font-size="10.00">/d_a_obj_lv4HsTarget</text>
<text text-anchor="middle" x="1573" y="-83.5" font-family="Helvetica,sans-Serif" font-size="10.00">/d_a_obj_lv4HsTarget.h</text>
</a>
</g>
</g>
<!-- Node1&#45;&gt;Node17 -->
<g id="edge17_Node000001_Node000017" class="edge">
<title>Node1&#45;&gt;Node17</title>
<g id="a_edge17_Node000001_Node000017"><a xlink:title=" ">
<path fill="none" stroke="#63b8ff" d="M1329.65,-153.18C1378.81,-145.1 1445.72,-133.17 1504,-119.5 1507.03,-118.79 1510.13,-118.03 1513.26,-117.23"/>
<polygon fill="#63b8ff" stroke="#63b8ff" points="1329.3,-149.7 1320,-154.76 1330.43,-156.6 1329.3,-149.7"/>
</a>
</g>
</g>
<!-- Node18 -->
<g id="Node000018" class="node">
<title>Node18</title>
<g id="a_Node000018"><a xlink:href="d__a__obj__lv4PoGate_8h.html" target="_top" xlink:title=" ">
<polygon fill="white" stroke="#666666" points="1762,-119.5 1650,-119.5 1650,-77.75 1762,-77.75 1762,-119.5"/>
<text text-anchor="start" x="1658" y="-106" font-family="Helvetica,sans-Serif" font-size="10.00">include/rel/d/a/obj</text>
<text text-anchor="start" x="1658" y="-94.75" font-family="Helvetica,sans-Serif" font-size="10.00">/d_a_obj_lv4PoGate/d</text>
<text text-anchor="middle" x="1706" y="-83.5" font-family="Helvetica,sans-Serif" font-size="10.00">_a_obj_lv4PoGate.h</text>
</a>
</g>
</g>
<!-- Node1&#45;&gt;Node18 -->
<g id="edge18_Node000001_Node000018" class="edge">
<title>Node1&#45;&gt;Node18</title>
<g id="a_edge18_Node000001_Node000018"><a xlink:title=" ">
<path fill="none" stroke="#63b8ff" d="M1343.34,-158.66C1421.21,-152.59 1539.78,-140.71 1641,-119.5 1643.89,-118.9 1646.83,-118.22 1649.79,-117.49"/>
<polygon fill="#63b8ff" stroke="#63b8ff" points="1343.36,-155.15 1333.66,-159.4 1343.9,-162.13 1343.36,-155.15"/>
</a>
</g>
</g>
<!-- Node19 -->
<g id="Node000019" class="node">
<title>Node19</title>
<g id="a_Node000019"><a xlink:href="d__a__obj__snowEffTag_8h.html" target="_top" xlink:title=" ">
<polygon fill="white" stroke="#666666" points="1896.25,-119.5 1779.75,-119.5 1779.75,-77.75 1896.25,-77.75 1896.25,-119.5"/>
<text text-anchor="start" x="1787.75" y="-106" font-family="Helvetica,sans-Serif" font-size="10.00">include/rel/d/a/obj</text>
<text text-anchor="start" x="1787.75" y="-94.75" font-family="Helvetica,sans-Serif" font-size="10.00">/d_a_obj_snowEffTag</text>
<text text-anchor="middle" x="1838" y="-83.5" font-family="Helvetica,sans-Serif" font-size="10.00">/d_a_obj_snowEffTag.h</text>
</a>
</g>
</g>
<!-- Node1&#45;&gt;Node19 -->
<g id="edge19_Node000001_Node000019" class="edge">
<title>Node1&#45;&gt;Node19</title>
<g id="a_edge19_Node000001_Node000019"><a xlink:title=" ">
<path fill="none" stroke="#63b8ff" d="M1343.59,-161.96C1445.7,-158.16 1622.23,-147.75 1771,-119.5 1773.74,-118.98 1776.53,-118.39 1779.34,-117.75"/>
<polygon fill="#63b8ff" stroke="#63b8ff" points="1343.51,-158.46 1333.64,-162.32 1343.76,-165.46 1343.51,-158.46"/>
</a>
</g>
</g>
<!-- Node20 -->
<g id="Node000020" class="node">
<title>Node20</title>
<g id="a_Node000020"><a xlink:href="d__a__obj__zrTurara_8h.html" target="_top" xlink:title=" ">
<polygon fill="white" stroke="#666666" points="2015.75,-119.5 1914.25,-119.5 1914.25,-77.75 2015.75,-77.75 2015.75,-119.5"/>
<text text-anchor="start" x="1922.25" y="-106" font-family="Helvetica,sans-Serif" font-size="10.00">include/rel/d/a/obj</text>
<text text-anchor="start" x="1922.25" y="-94.75" font-family="Helvetica,sans-Serif" font-size="10.00">/d_a_obj_zrTurara/d</text>
<text text-anchor="middle" x="1965" y="-83.5" font-family="Helvetica,sans-Serif" font-size="10.00">_a_obj_zrTurara.h</text>
</a>
</g>
</g>
<!-- Node1&#45;&gt;Node20 -->
<g id="edge20_Node000001_Node000020" class="edge">
<title>Node1&#45;&gt;Node20</title>
<g id="a_edge20_Node000001_Node000020"><a xlink:title=" ">
<path fill="none" stroke="#63b8ff" d="M1343.24,-165C1467.41,-164.78 1706.32,-158.62 1905,-119.5 1907.91,-118.93 1910.87,-118.25 1913.84,-117.51"/>
<polygon fill="#63b8ff" stroke="#63b8ff" points="1343.47,-161.5 1333.47,-165 1343.47,-168.5 1343.47,-161.5"/>
</a>
</g>
</g>
<!-- Node21 -->
<g id="Node000021" class="node">
<title>Node21</title>
<g id="a_Node000021"><a xlink:href="d__a__obj__zrTuraraRock_8h.html" target="_top" xlink:title=" ">
<polygon fill="white" stroke="#666666" points="2156.62,-119.5 2033.38,-119.5 2033.38,-77.75 2156.62,-77.75 2156.62,-119.5"/>
<text text-anchor="start" x="2041.38" y="-106" font-family="Helvetica,sans-Serif" font-size="10.00">include/rel/d/a/obj</text>
<text text-anchor="start" x="2041.38" y="-94.75" font-family="Helvetica,sans-Serif" font-size="10.00">/d_a_obj_zrTuraraRock</text>
<text text-anchor="middle" x="2095" y="-83.5" font-family="Helvetica,sans-Serif" font-size="10.00">/d_a_obj_zrTuraraRock.h</text>
</a>
</g>
</g>
<!-- Node1&#45;&gt;Node21 -->
<g id="edge21_Node000001_Node000021" class="edge">
<title>Node1&#45;&gt;Node21</title>
<g id="a_edge21_Node000001_Node000021"><a xlink:title=" ">
<path fill="none" stroke="#63b8ff" d="M1343.67,-161.53C1514.71,-155.89 1896.12,-141.28 2025,-119.5 2027.62,-119.06 2030.27,-118.55 2032.95,-118"/>
<polygon fill="#63b8ff" stroke="#63b8ff" points="1343.61,-158.03 1333.73,-161.85 1343.84,-165.02 1343.61,-158.03"/>
</a>
</g>
</g>
<!-- Node22 -->
<g id="Node000022" class="node">
<title>Node22</title>
<g id="a_Node000022"><a xlink:href="d__a__tag__CstaSw_8h.html" target="_top" xlink:title=" ">
<polygon fill="white" stroke="#666666" points="2287,-119.5 2175,-119.5 2175,-77.75 2287,-77.75 2287,-119.5"/>
<text text-anchor="start" x="2183" y="-106" font-family="Helvetica,sans-Serif" font-size="10.00">include/rel/d/a/tag</text>
<text text-anchor="start" x="2183" y="-94.75" font-family="Helvetica,sans-Serif" font-size="10.00">/d_a_tag_CstaSw/d_a</text>
<text text-anchor="middle" x="2231" y="-83.5" font-family="Helvetica,sans-Serif" font-size="10.00">_tag_CstaSw.h</text>
</a>
</g>
</g>
<!-- Node1&#45;&gt;Node22 -->
<g id="edge22_Node000001_Node000022" class="edge">
<title>Node1&#45;&gt;Node22</title>
<g id="a_edge22_Node000001_Node000022"><a xlink:title=" ">
<path fill="none" stroke="#63b8ff" d="M1343.58,-162.63C1537.52,-158.78 2009.54,-146.83 2166,-119.5 2168.91,-118.99 2171.86,-118.39 2174.84,-117.73"/>
<polygon fill="#63b8ff" stroke="#63b8ff" points="1343.77,-159.13 1333.84,-162.83 1343.91,-166.13 1343.77,-159.13"/>
</a>
</g>
</g>
<!-- Node23 -->
<g id="Node000023" class="node">
<title>Node23</title>
<g id="a_Node000023"><a xlink:href="d__a__tag__lv6CstaSw_8h.html" target="_top" xlink:title=" ">
<polygon fill="white" stroke="#666666" points="2419.12,-119.5 2304.88,-119.5 2304.88,-77.75 2419.12,-77.75 2419.12,-119.5"/>
<text text-anchor="start" x="2312.88" y="-106" font-family="Helvetica,sans-Serif" font-size="10.00">include/rel/d/a/tag</text>
<text text-anchor="start" x="2312.88" y="-94.75" font-family="Helvetica,sans-Serif" font-size="10.00">/d_a_tag_lv6CstaSw/d</text>
<text text-anchor="middle" x="2362" y="-83.5" font-family="Helvetica,sans-Serif" font-size="10.00">_a_tag_lv6CstaSw.h</text>
</a>
</g>
</g>
<!-- Node1&#45;&gt;Node23 -->
<g id="edge23_Node000001_Node000023" class="edge">
<title>Node1&#45;&gt;Node23</title>
<g id="a_edge23_Node000001_Node000023"><a xlink:title=" ">
<path fill="none" stroke="#63b8ff" d="M1343.69,-163.2C1557.25,-160.43 2113.69,-150.37 2296,-119.5 2298.83,-119.02 2301.71,-118.46 2304.61,-117.83"/>
<polygon fill="#63b8ff" stroke="#63b8ff" points="1343.72,-159.7 1333.77,-163.32 1343.81,-166.7 1343.72,-159.7"/>
</a>
</g>
</g>
<!-- Node24 -->
<g id="Node000024" class="node">
<title>Node24</title>
<g id="a_Node000024"><a xlink:href="d__a__tag__poFire_8h.html" target="_top" xlink:title=" ">
<polygon fill="white" stroke="#666666" points="2541.25,-119.5 2436.75,-119.5 2436.75,-77.75 2541.25,-77.75 2541.25,-119.5"/>
<text text-anchor="start" x="2444.75" y="-106" font-family="Helvetica,sans-Serif" font-size="10.00">include/rel/d/a/tag</text>
<text text-anchor="start" x="2444.75" y="-94.75" font-family="Helvetica,sans-Serif" font-size="10.00">/d_a_tag_poFire/d_a</text>
<text text-anchor="middle" x="2489" y="-83.5" font-family="Helvetica,sans-Serif" font-size="10.00">_tag_poFire.h</text>
</a>
</g>
</g>
<!-- Node1&#45;&gt;Node24 -->
<g id="edge24_Node000001_Node000024" class="edge">
<title>Node1&#45;&gt;Node24</title>
<g id="a_edge24_Node000001_Node000024"><a xlink:title=" ">
<path fill="none" stroke="#63b8ff" d="M1343.75,-163.93C1576.09,-162.89 2219.7,-156.66 2428,-119.5 2430.74,-119.01 2433.53,-118.43 2436.33,-117.77"/>
<polygon fill="#63b8ff" stroke="#63b8ff" points="1343.84,-160.42 1333.85,-163.97 1343.87,-167.42 1343.84,-160.42"/>
</a>
</g>
</g>
<!-- Node3 -->
<g id="Node000003" class="node">
<title>Node3</title>
<g id="a_Node000003"><a xlink:href="d__gameover_8cpp.html" target="_top" xlink:title=" ">
<polygon fill="white" stroke="#666666" points="112,-30.5 0,-30.5 0,-11.25 112,-11.25 112,-30.5"/>
<text text-anchor="middle" x="56" y="-17" font-family="Helvetica,sans-Serif" font-size="10.00">src/d/d_gameover.cpp</text>
</a>
</g>
</g>
<!-- Node2&#45;&gt;Node3 -->
<g id="edge2_Node000002_Node000003" class="edge">
<title>Node2&#45;&gt;Node3</title>
<g id="a_edge2_Node000002_Node000003"><a xlink:title=" ">
<path fill="none" stroke="#63b8ff" d="M105.89,-80.02C92.69,-64.63 74.06,-42.92 63.7,-30.85"/>
<polygon fill="#63b8ff" stroke="#63b8ff" points="103.13,-82.18 112.3,-87.49 108.45,-77.62 103.13,-82.18"/>
</a>
</g>
</g>
<!-- Node4 -->
<g id="Node000004" class="node">
<title>Node4</title>
<g id="a_Node000004"><a xlink:href="d__event__data_8cpp.html" target="_top" xlink:title=" ">
<polygon fill="white" stroke="#666666" points="232.12,-36.12 129.88,-36.12 129.88,-5.62 232.12,-5.62 232.12,-36.12"/>
<text text-anchor="start" x="137.88" y="-22.62" font-family="Helvetica,sans-Serif" font-size="10.00">src/d/event/d_event</text>
<text text-anchor="middle" x="181" y="-11.38" font-family="Helvetica,sans-Serif" font-size="10.00">_data.cpp</text>
</a>
</g>
</g>
<!-- Node2&#45;&gt;Node4 -->
<g id="edge3_Node000002_Node000004" class="edge">
<title>Node2&#45;&gt;Node4</title>
<g id="a_edge3_Node000002_Node000004"><a xlink:title=" ">
<path fill="none" stroke="#63b8ff" d="M135.27,-79.61C145.68,-66.47 159.62,-48.86 169.36,-36.56"/>
<polygon fill="#63b8ff" stroke="#63b8ff" points="132.52,-77.44 129.06,-87.45 138.01,-81.79 132.52,-77.44"/>
</a>
</g>
</g>
<!-- Node7 -->
<g id="Node000007" class="node">
<title>Node7</title>
<g id="a_Node000007"><a xlink:href="d__a__alink_8cpp.html" target="_top" xlink:title=" ">
<polygon fill="white" stroke="#666666" points="417.12,-30.5 308.88,-30.5 308.88,-11.25 417.12,-11.25 417.12,-30.5"/>
<text text-anchor="middle" x="363" y="-17" font-family="Helvetica,sans-Serif" font-size="10.00">src/d/a/d_a_alink.cpp</text>
</a>
</g>
</g>
<!-- Node6&#45;&gt;Node7 -->
<g id="edge6_Node000006_Node000007" class="edge">
<title>Node6&#45;&gt;Node7</title>
<g id="a_edge6_Node000006_Node000007"><a xlink:title=" ">
<path fill="none" stroke="#63b8ff" d="M363,-71.85C363,-57.6 363,-40.79 363,-30.75"/>
<polygon fill="#63b8ff" stroke="#63b8ff" points="359.5,-71.51 363,-81.51 366.5,-71.51 359.5,-71.51"/>
</a>
</g>
</g>
<!-- Node15&#45;&gt;Node14 -->
<g id="edge15_Node000015_Node000014" class="edge">
<title>Node15&#45;&gt;Node14</title>
<g id="a_edge15_Node000015_Node000014"><a xlink:title=" ">
<path fill="none" stroke="#63b8ff" d="M1286.21,-67.68C1281.14,-59.14 1275.74,-50.05 1271.09,-42.23"/>
<polygon fill="#63b8ff" stroke="#63b8ff" points="1283.05,-69.21 1291.17,-76.02 1289.07,-65.64 1283.05,-69.21"/>
</a>
</g>
</g>
</g>
</svg>

<g id="navigator" transform="translate(0 0)" fill="#404254">
  <rect fill="#f2f5e9" fill-opacity="0.5" stroke="#606060" stroke-width=".5" x="0" y="0" width="60" height="60"/>
  <use id="zoomplus" xlink:href="#zoomPlus" x="17" y="9" onmousedown="handleZoom(evt,'in')"/>
  <use id="zoomminus" xlink:href="#zoomMin" x="42" y="9" onmousedown="handleZoom(evt,'out')"/>
  <use id="reset" xlink:href="#resetDef" x="30" y="36" onmousedown="handleReset()"/>
   <use id="arrowup" xlink:href="#arrowUp" x="0" y="0" onmousedown="handlePan(0,-1)"/>
  <use id="arrowright" xlink:href="#arrowRight" x="0" y="0" onmousedown="handlePan(1,0)"/>
  <use id="arrowdown" xlink:href="#arrowDown" x="0" y="0" onmousedown="handlePan(0,1)"/>
  <use id="arrowleft" xlink:href="#arrowLeft" x="0" y="0" onmousedown="handlePan(-1,0)"/>
</g>
<svg viewBox="0 0 15 15" width="100%" height="30px" preserveAspectRatio="xMaxYMin meet">
 <g id="arrow_out" transform="scale(0.3 0.3)">
  <a xlink:href="m__Do__hostIO_8h__dep__incl_org.svg" target="_base">
   <rect id="button" ry="5" rx="5" y="6" x="6" height="38" width="38"
        fill="#f2f5e9" fill-opacity="0.5" stroke="#606060" stroke-width="1.0"/>
   <path id="arrow"
     d="M 11.500037,31.436501 C 11.940474,20.09759 22.043105,11.32322 32.158766,21.979434 L 37.068811,17.246167 C 37.068811,17.246167 37.088388,32 37.088388,32 L 22.160133,31.978069 C 22.160133,31.978069 26.997745,27.140456 26.997745,27.140456 C 18.528582,18.264221 13.291696,25.230495 11.500037,31.436501 z"
     style="fill:#404040;"/>
  </a>
 </g>
</svg>

<style type='text/css'>
<![CDATA[
[data-mouse-over-selected='false'] { opacity: 0.7; }
[data-mouse-over-selected='true']  { opacity: 1.0; }
]]>
</style>
<script type="application/ecmascript"><![CDATA[
document.addEventListener('DOMContentLoaded', (event) => {
  highlightEdges();
  highlightAdjacentNodes();
});
]]></script>
</svg>
