<?xml version="1.0" encoding="UTF-8" standalone="no"?>
<!DOCTYPE svg PUBLIC "-//W3C//DTD SVG 1.1//EN"
 "http://www.w3.org/Graphics/SVG/1.1/DTD/svg11.dtd">
<!-- Generated by graphviz version 7.0.5 (20221223.1930)
 -->
<!-- Title: include/dolphin/mtx/mtx.h Pages: 1 -->
<svg width="263pt" height="258pt"
 viewBox="0.00 0.00 263.00 258.00" xmlns="http://www.w3.org/2000/svg" xmlns:xlink="http://www.w3.org/1999/xlink">
<g id="graph0" class="graph" transform="scale(1 1) rotate(0) translate(4 254)">
<title>include/dolphin/mtx/mtx.h</title>
<!-- Node1 -->
<g id="node1" class="node">
<title>Node1</title>
<g id="a_node1"><a xlink:title=" ">
<polygon fill="#999999" stroke="#666666" points="181.5,-250 81.5,-250 81.5,-220 181.5,-220 181.5,-250"/>
<text text-anchor="start" x="89.5" y="-238" font-family="Helvetica,sans-Serif" font-size="10.00">include/dolphin/mtx</text>
<text text-anchor="middle" x="131.5" y="-227" font-family="Helvetica,sans-Serif" font-size="10.00">/mtx.h</text>
</a>
</g>
</g>
<!-- Node2 -->
<g id="node2" class="node">
<title>Node2</title>
<g id="a_node2"><a xlink:href="mtx44_8h.html" target="_top" xlink:title=" ">
<polygon fill="white" stroke="#666666" points="103,-129 0,-129 0,-110 103,-110 103,-129"/>
<text text-anchor="middle" x="51.5" y="-117" font-family="Helvetica,sans-Serif" font-size="10.00">dolphin/mtx/mtx44.h</text>
</a>
</g>
</g>
<!-- Node1&#45;&gt;Node2 -->
<g id="edge1" class="edge">
<title>Node1&#45;&gt;Node2</title>
<path fill="none" stroke="#63b8ff" d="M121.37,-219.63C106.85,-199.03 80.13,-161.12 64.28,-138.63"/>
<polygon fill="#63b8ff" stroke="#63b8ff" points="67.15,-136.62 58.52,-130.47 61.43,-140.66 67.15,-136.62"/>
</g>
<!-- Node3 -->
<g id="node3" class="node">
<title>Node3</title>
<g id="a_node3"><a xlink:href="types_8h.html" target="_top" xlink:title=" ">
<polygon fill="white" stroke="#666666" points="172,-74 91,-74 91,-55 172,-55 172,-74"/>
<text text-anchor="middle" x="131.5" y="-62" font-family="Helvetica,sans-Serif" font-size="10.00">dolphin/types.h</text>
</a>
</g>
</g>
<!-- Node1&#45;&gt;Node3 -->
<g id="edge7" class="edge">
<title>Node1&#45;&gt;Node3</title>
<path fill="none" stroke="#63b8ff" d="M131.5,-219.63C131.5,-189.57 131.5,-119.97 131.5,-85.54"/>
<polygon fill="#63b8ff" stroke="#63b8ff" points="135,-85.73 131.5,-75.73 128,-85.73 135,-85.73"/>
</g>
<!-- Node5 -->
<g id="node5" class="node">
<title>Node5</title>
<g id="a_node5"><a xlink:href="quat_8h.html" target="_top" xlink:title=" ">
<polygon fill="white" stroke="#666666" points="255,-184 160,-184 160,-165 255,-165 255,-184"/>
<text text-anchor="middle" x="207.5" y="-172" font-family="Helvetica,sans-Serif" font-size="10.00">dolphin/mtx/quat.h</text>
</a>
</g>
</g>
<!-- Node1&#45;&gt;Node5 -->
<g id="edge4" class="edge">
<title>Node1&#45;&gt;Node5</title>
<path fill="none" stroke="#63b8ff" d="M150.29,-219.54C161.55,-210.87 175.87,-199.85 187.37,-191"/>
<polygon fill="#63b8ff" stroke="#63b8ff" points="189.24,-193.97 195.03,-185.1 184.97,-188.42 189.24,-193.97"/>
</g>
<!-- Node2&#45;&gt;Node3 -->
<g id="edge2" class="edge">
<title>Node2&#45;&gt;Node3</title>
<path fill="none" stroke="#63b8ff" d="M65.07,-109.51C76.98,-101.62 94.55,-89.98 108.63,-80.65"/>
<polygon fill="#63b8ff" stroke="#63b8ff" points="110.46,-83.63 116.87,-75.19 106.6,-77.8 110.46,-83.63"/>
</g>
<!-- Node4 -->
<g id="node4" class="node">
<title>Node4</title>
<g id="a_node4"><a xlink:href="stddef_8h.html" target="_top" xlink:title=" ">
<polygon fill="white" stroke="#666666" points="157,-19 106,-19 106,0 157,0 157,-19"/>
<text text-anchor="middle" x="131.5" y="-7" font-family="Helvetica,sans-Serif" font-size="10.00">stddef.h</text>
</a>
</g>
</g>
<!-- Node3&#45;&gt;Node4 -->
<g id="edge3" class="edge">
<title>Node3&#45;&gt;Node4</title>
<path fill="none" stroke="#63b8ff" d="M131.5,-54.75C131.5,-48.27 131.5,-39.16 131.5,-30.9"/>
<polygon fill="#63b8ff" stroke="#63b8ff" points="135,-30.96 131.5,-20.96 128,-30.96 135,-30.96"/>
</g>
<!-- Node6 -->
<g id="node6" class="node">
<title>Node6</title>
<g id="a_node6"><a xlink:href="vec_8h.html" target="_top" xlink:title=" ">
<polygon fill="white" stroke="#666666" points="252.5,-129 160.5,-129 160.5,-110 252.5,-110 252.5,-129"/>
<text text-anchor="middle" x="206.5" y="-117" font-family="Helvetica,sans-Serif" font-size="10.00">dolphin/mtx/vec.h</text>
</a>
</g>
</g>
<!-- Node5&#45;&gt;Node6 -->
<g id="edge5" class="edge">
<title>Node5&#45;&gt;Node6</title>
<path fill="none" stroke="#63b8ff" d="M207.33,-164.75C207.21,-158.27 207.04,-149.16 206.88,-140.9"/>
<polygon fill="#63b8ff" stroke="#63b8ff" points="210.39,-140.89 206.7,-130.96 203.39,-141.02 210.39,-140.89"/>
</g>
<!-- Node6&#45;&gt;Node3 -->
<g id="edge6" class="edge">
<title>Node6&#45;&gt;Node3</title>
<path fill="none" stroke="#63b8ff" d="M193.78,-109.51C182.72,-101.7 166.46,-90.21 153.33,-80.93"/>
<polygon fill="#63b8ff" stroke="#63b8ff" points="155.46,-78.14 145.27,-75.23 151.42,-83.86 155.46,-78.14"/>
</g>
</g>
</svg>
