<?xml version="1.0" encoding="UTF-8" standalone="no"?>
<!DOCTYPE svg PUBLIC "-//W3C//DTD SVG 1.1//EN"
 "http://www.w3.org/Graphics/SVG/1.1/DTD/svg11.dtd">
<!-- Generated by graphviz version 2.50.0 (20220203.2022)
 -->
<!-- Title: libs/TRK_MINNOW_DOLPHIN/MetroTRK/Portable/mutex_TRK.cpp Pages: 1 -->
<svg width="290pt" height="173pt"
 viewBox="0.00 0.00 289.50 173.00" xmlns="http://www.w3.org/2000/svg" xmlns:xlink="http://www.w3.org/1999/xlink">
<g id="graph0" class="graph" transform="scale(1 1) rotate(0) translate(4 169)">
<title>libs/TRK_MINNOW_DOLPHIN/MetroTRK/Portable/mutex_TRK.cpp</title>
<polygon fill="white" stroke="transparent" points="-4,4 -4,-169 285.5,-169 285.5,4 -4,4"/>
<!-- Node1 -->
<g id="node1" class="node">
<title>Node1</title>
<g id="a_node1"><a xlink:title=" ">
<polygon fill="#bfbfbf" stroke="black" points="116,-123.5 116,-164.5 268,-164.5 268,-123.5 116,-123.5"/>
<text text-anchor="start" x="124" y="-152.5" font-family="Helvetica,sans-Serif" font-size="10.00">libs/TRK_MINNOW_DOLPHIN</text>
<text text-anchor="start" x="124" y="-141.5" font-family="Helvetica,sans-Serif" font-size="10.00">/MetroTRK/Portable/mutex</text>
<text text-anchor="middle" x="192" y="-130.5" font-family="Helvetica,sans-Serif" font-size="10.00">_TRK.cpp</text>
</a>
</g>
</g>
<!-- Node2 -->
<g id="node2" class="node">
<title>Node2</title>
<g id="a_node2"><a xlink:href="mutex__TRK_8h.html" target="_top" xlink:title=" ">
<polygon fill="white" stroke="black" points="0,-56.5 0,-86.5 164,-86.5 164,-56.5 0,-56.5"/>
<text text-anchor="start" x="8" y="-74.5" font-family="Helvetica,sans-Serif" font-size="10.00">TRK_MINNOW_DOLPHIN</text>
<text text-anchor="middle" x="82" y="-63.5" font-family="Helvetica,sans-Serif" font-size="10.00">/MetroTRK/Portable/mutex_TRK.h</text>
</a>
</g>
</g>
<!-- Node1&#45;&gt;Node2 -->
<g id="edge1" class="edge">
<title>Node1&#45;&gt;Node2</title>
<path fill="none" stroke="midnightblue" d="M161.36,-123.36C146.16,-113.62 127.85,-101.89 112.65,-92.15"/>
<polygon fill="midnightblue" stroke="midnightblue" points="114.42,-89.12 104.11,-86.67 110.64,-95.01 114.42,-89.12"/>
</g>
<!-- Node3 -->
<g id="node3" class="node">
<title>Node3</title>
<g id="a_node3"><a xlink:href="types_8h.html" target="_top" xlink:title=" ">
<polygon fill="white" stroke="black" points="96.5,-0.5 96.5,-19.5 177.5,-19.5 177.5,-0.5 96.5,-0.5"/>
<text text-anchor="middle" x="137" y="-7.5" font-family="Helvetica,sans-Serif" font-size="10.00">dolphin/types.h</text>
</a>
</g>
</g>
<!-- Node1&#45;&gt;Node3 -->
<g id="edge4" class="edge">
<title>Node1&#45;&gt;Node3</title>
<path fill="none" stroke="midnightblue" d="M190.28,-123.16C188.1,-104.96 183.31,-77.63 173,-56 168.01,-45.54 160.18,-35.34 153.08,-27.3"/>
<polygon fill="midnightblue" stroke="midnightblue" points="155.48,-24.74 146.11,-19.79 150.35,-29.5 155.48,-24.74"/>
</g>
<!-- Node4 -->
<g id="node4" class="node">
<title>Node4</title>
<g id="a_node4"><a xlink:href="dol2asm_8h.html" target="_top" xlink:title=" ">
<polygon fill="white" stroke="black" points="220.5,-62 220.5,-81 281.5,-81 281.5,-62 220.5,-62"/>
<text text-anchor="middle" x="251" y="-69" font-family="Helvetica,sans-Serif" font-size="10.00">dol2asm.h</text>
</a>
</g>
</g>
<!-- Node1&#45;&gt;Node4 -->
<g id="edge3" class="edge">
<title>Node1&#45;&gt;Node4</title>
<path fill="none" stroke="midnightblue" d="M208.43,-123.36C217.49,-112.54 228.61,-99.26 237.21,-88.98"/>
<polygon fill="midnightblue" stroke="midnightblue" points="240.01,-91.09 243.74,-81.17 234.64,-86.6 240.01,-91.09"/>
</g>
<!-- Node2&#45;&gt;Node3 -->
<g id="edge2" class="edge">
<title>Node2&#45;&gt;Node3</title>
<path fill="none" stroke="midnightblue" d="M95.03,-56.4C103.19,-47.58 113.72,-36.18 122.19,-27.02"/>
<polygon fill="midnightblue" stroke="midnightblue" points="124.78,-29.38 129,-19.66 119.64,-24.63 124.78,-29.38"/>
</g>
</g>
</svg>
