<?xml version="1.0" encoding="UTF-8" standalone="no"?>
<!DOCTYPE svg PUBLIC "-//W3C//DTD SVG 1.1//EN"
 "http://www.w3.org/Graphics/SVG/1.1/DTD/svg11.dtd">
<!-- Generated by graphviz version 2.50.0 (20220203.2022)
 -->
<!-- Title: libs/TRK_MINNOW_DOLPHIN/MetroTRK/Portable/nubevent.cpp Pages: 1 -->
<svg width="1150pt" height="173pt"
 viewBox="0.00 0.00 1149.50 173.00" xmlns="http://www.w3.org/2000/svg" xmlns:xlink="http://www.w3.org/1999/xlink">
<g id="graph0" class="graph" transform="scale(1 1) rotate(0) translate(4 169)">
<title>libs/TRK_MINNOW_DOLPHIN/MetroTRK/Portable/nubevent.cpp</title>
<polygon fill="white" stroke="transparent" points="-4,4 -4,-169 1145.5,-169 1145.5,4 -4,4"/>
<!-- Node1 -->
<g id="node1" class="node">
<title>Node1</title>
<g id="a_node1"><a xlink:title=" ">
<polygon fill="#bfbfbf" stroke="black" points="372.5,-134.5 372.5,-164.5 536.5,-164.5 536.5,-134.5 372.5,-134.5"/>
<text text-anchor="start" x="380.5" y="-152.5" font-family="Helvetica,sans-Serif" font-size="10.00">libs/TRK_MINNOW_DOLPHIN</text>
<text text-anchor="middle" x="454.5" y="-141.5" font-family="Helvetica,sans-Serif" font-size="10.00">/MetroTRK/Portable/nubevent.cpp</text>
</a>
</g>
</g>
<!-- Node2 -->
<g id="node2" class="node">
<title>Node2</title>
<g id="a_node2"><a xlink:href="nubevent_8h.html" target="_top" xlink:title=" ">
<polygon fill="white" stroke="black" points="0,-62 0,-92 153,-92 153,-62 0,-62"/>
<text text-anchor="start" x="8" y="-80" font-family="Helvetica,sans-Serif" font-size="10.00">TRK_MINNOW_DOLPHIN</text>
<text text-anchor="middle" x="76.5" y="-69" font-family="Helvetica,sans-Serif" font-size="10.00">/MetroTRK/Portable/nubevent.h</text>
</a>
</g>
</g>
<!-- Node1&#45;&gt;Node2 -->
<g id="edge1" class="edge">
<title>Node1&#45;&gt;Node2</title>
<path fill="none" stroke="midnightblue" d="M372.37,-134.99C314.89,-125.31 236.36,-111.62 167.5,-98 161.36,-96.78 154.99,-95.48 148.61,-94.14"/>
<polygon fill="midnightblue" stroke="midnightblue" points="149.1,-90.67 138.59,-92.01 147.65,-97.51 149.1,-90.67"/>
</g>
<!-- Node3 -->
<g id="node3" class="node">
<title>Node3</title>
<g id="a_node3"><a xlink:href="types_8h.html" target="_top" xlink:title=" ">
<polygon fill="white" stroke="black" points="88,-0.5 88,-19.5 169,-19.5 169,-0.5 88,-0.5"/>
<text text-anchor="middle" x="128.5" y="-7.5" font-family="Helvetica,sans-Serif" font-size="10.00">dolphin/types.h</text>
</a>
</g>
</g>
<!-- Node1&#45;&gt;Node3 -->
<g id="edge4" class="edge">
<title>Node1&#45;&gt;Node3</title>
<path fill="none" stroke="midnightblue" d="M372.36,-145.89C320.28,-141.04 253.23,-128.65 201.5,-98 193.79,-93.44 160.26,-51.53 141.43,-27.58"/>
<polygon fill="midnightblue" stroke="midnightblue" points="144.16,-25.39 135.24,-19.68 138.65,-29.71 144.16,-25.39"/>
</g>
<!-- Node4 -->
<g id="node4" class="node">
<title>Node4</title>
<g id="a_node4"><a xlink:href="dol2asm_8h.html" target="_top" xlink:title=" ">
<polygon fill="white" stroke="black" points="210,-67.5 210,-86.5 271,-86.5 271,-67.5 210,-67.5"/>
<text text-anchor="middle" x="240.5" y="-74.5" font-family="Helvetica,sans-Serif" font-size="10.00">dol2asm.h</text>
</a>
</g>
</g>
<!-- Node1&#45;&gt;Node4 -->
<g id="edge3" class="edge">
<title>Node1&#45;&gt;Node4</title>
<path fill="none" stroke="midnightblue" d="M396.42,-134.46C362.17,-125.5 318.29,-112.79 280.5,-98 275.48,-96.03 270.24,-93.66 265.26,-91.25"/>
<polygon fill="midnightblue" stroke="midnightblue" points="266.66,-88.04 256.16,-86.66 263.51,-94.29 266.66,-88.04"/>
</g>
<!-- Node5 -->
<g id="node5" class="node">
<title>Node5</title>
<g id="a_node5"><a xlink:title=" ">
<polygon fill="white" stroke="#bfbfbf" points="289.5,-56.5 289.5,-97.5 445.5,-97.5 445.5,-56.5 289.5,-56.5"/>
<text text-anchor="start" x="297.5" y="-85.5" font-family="Helvetica,sans-Serif" font-size="10.00">asm/TRK_MINNOW_DOLPHIN</text>
<text text-anchor="start" x="297.5" y="-74.5" font-family="Helvetica,sans-Serif" font-size="10.00">/MetroTRK/Portable/nubevent</text>
<text text-anchor="middle" x="367.5" y="-63.5" font-family="Helvetica,sans-Serif" font-size="10.00">/TRKDestructEvent.s</text>
</a>
</g>
</g>
<!-- Node1&#45;&gt;Node5 -->
<g id="edge5" class="edge">
<title>Node1&#45;&gt;Node5</title>
<path fill="none" stroke="midnightblue" d="M436.89,-134.23C426.22,-125.59 412.28,-114.29 399.7,-104.09"/>
<polygon fill="midnightblue" stroke="midnightblue" points="401.65,-101.17 391.67,-97.59 397.24,-106.6 401.65,-101.17"/>
</g>
<!-- Node6 -->
<g id="node6" class="node">
<title>Node6</title>
<g id="a_node6"><a xlink:title=" ">
<polygon fill="white" stroke="#bfbfbf" points="463.5,-56.5 463.5,-97.5 619.5,-97.5 619.5,-56.5 463.5,-56.5"/>
<text text-anchor="start" x="471.5" y="-85.5" font-family="Helvetica,sans-Serif" font-size="10.00">asm/TRK_MINNOW_DOLPHIN</text>
<text text-anchor="start" x="471.5" y="-74.5" font-family="Helvetica,sans-Serif" font-size="10.00">/MetroTRK/Portable/nubevent</text>
<text text-anchor="middle" x="541.5" y="-63.5" font-family="Helvetica,sans-Serif" font-size="10.00">/TRKConstructEvent.s</text>
</a>
</g>
</g>
<!-- Node1&#45;&gt;Node6 -->
<g id="edge6" class="edge">
<title>Node1&#45;&gt;Node6</title>
<path fill="none" stroke="midnightblue" d="M472.11,-134.23C482.78,-125.59 496.72,-114.29 509.3,-104.09"/>
<polygon fill="midnightblue" stroke="midnightblue" points="511.76,-106.6 517.33,-97.59 507.35,-101.17 511.76,-106.6"/>
</g>
<!-- Node7 -->
<g id="node7" class="node">
<title>Node7</title>
<g id="a_node7"><a xlink:title=" ">
<polygon fill="white" stroke="#bfbfbf" points="637.5,-56.5 637.5,-97.5 793.5,-97.5 793.5,-56.5 637.5,-56.5"/>
<text text-anchor="start" x="645.5" y="-85.5" font-family="Helvetica,sans-Serif" font-size="10.00">asm/TRK_MINNOW_DOLPHIN</text>
<text text-anchor="start" x="645.5" y="-74.5" font-family="Helvetica,sans-Serif" font-size="10.00">/MetroTRK/Portable/nubevent</text>
<text text-anchor="middle" x="715.5" y="-63.5" font-family="Helvetica,sans-Serif" font-size="10.00">/TRKPostEvent.s</text>
</a>
</g>
</g>
<!-- Node1&#45;&gt;Node7 -->
<g id="edge7" class="edge">
<title>Node1&#45;&gt;Node7</title>
<path fill="none" stroke="midnightblue" d="M506.38,-134.49C542.57,-124.71 591.64,-111.46 633.14,-100.25"/>
<polygon fill="midnightblue" stroke="midnightblue" points="634.23,-103.58 642.97,-97.59 632.4,-96.82 634.23,-103.58"/>
</g>
<!-- Node8 -->
<g id="node8" class="node">
<title>Node8</title>
<g id="a_node8"><a xlink:title=" ">
<polygon fill="white" stroke="#bfbfbf" points="811.5,-56.5 811.5,-97.5 967.5,-97.5 967.5,-56.5 811.5,-56.5"/>
<text text-anchor="start" x="819.5" y="-85.5" font-family="Helvetica,sans-Serif" font-size="10.00">asm/TRK_MINNOW_DOLPHIN</text>
<text text-anchor="start" x="819.5" y="-74.5" font-family="Helvetica,sans-Serif" font-size="10.00">/MetroTRK/Portable/nubevent</text>
<text text-anchor="middle" x="889.5" y="-63.5" font-family="Helvetica,sans-Serif" font-size="10.00">/TRKGetNextEvent.s</text>
</a>
</g>
</g>
<!-- Node1&#45;&gt;Node8 -->
<g id="edge8" class="edge">
<title>Node1&#45;&gt;Node8</title>
<path fill="none" stroke="midnightblue" d="M536.73,-138.5C605.09,-129.74 705.13,-115.89 801.4,-98.14"/>
<polygon fill="midnightblue" stroke="midnightblue" points="802.12,-101.56 811.31,-96.29 800.84,-94.68 802.12,-101.56"/>
</g>
<!-- Node9 -->
<g id="node9" class="node">
<title>Node9</title>
<g id="a_node9"><a xlink:title=" ">
<polygon fill="white" stroke="#bfbfbf" points="985.5,-56.5 985.5,-97.5 1141.5,-97.5 1141.5,-56.5 985.5,-56.5"/>
<text text-anchor="start" x="993.5" y="-85.5" font-family="Helvetica,sans-Serif" font-size="10.00">asm/TRK_MINNOW_DOLPHIN</text>
<text text-anchor="start" x="993.5" y="-74.5" font-family="Helvetica,sans-Serif" font-size="10.00">/MetroTRK/Portable/nubevent</text>
<text text-anchor="middle" x="1063.5" y="-63.5" font-family="Helvetica,sans-Serif" font-size="10.00">/TRKInitializeEventQueue.s</text>
</a>
</g>
</g>
<!-- Node1&#45;&gt;Node9 -->
<g id="edge9" class="edge">
<title>Node1&#45;&gt;Node9</title>
<path fill="none" stroke="midnightblue" d="M536.75,-143.85C637.84,-137.39 814.71,-123.68 975.28,-98.09"/>
<polygon fill="midnightblue" stroke="midnightblue" points="976.02,-101.52 985.34,-96.47 974.91,-94.61 976.02,-101.52"/>
</g>
<!-- Node2&#45;&gt;Node3 -->
<g id="edge2" class="edge">
<title>Node2&#45;&gt;Node3</title>
<path fill="none" stroke="midnightblue" d="M87.78,-61.9C95.81,-51.86 106.63,-38.34 115.1,-27.75"/>
<polygon fill="midnightblue" stroke="midnightblue" points="118.03,-29.69 121.54,-19.69 112.56,-25.32 118.03,-29.69"/>
</g>
</g>
</svg>
