<?xml version="1.0" encoding="UTF-8" standalone="no"?>
<!DOCTYPE svg PUBLIC "-//W3C//DTD SVG 1.1//EN"
 "http://www.w3.org/Graphics/SVG/1.1/DTD/svg11.dtd">
<!-- Generated by graphviz version 7.0.5 (20221223.1930)
 -->
<!-- Title: libs/JSystem/JStudio/JStudio_JAudio2/object&#45;sound.cpp Pages: 1 -->
<svg width="4898pt" height="456pt"
 viewBox="0.00 0.00 4897.50 456.00" xmlns="http://www.w3.org/2000/svg" xmlns:xlink="http://www.w3.org/1999/xlink">
<g id="graph0" class="graph" transform="scale(1 1) rotate(0) translate(4 452)">
<title>libs/JSystem/JStudio/JStudio_JAudio2/object&#45;sound.cpp</title>
<!-- Node1 -->
<g id="node1" class="node">
<title>Node1</title>
<g id="a_node1"><a xlink:title=" ">
<polygon fill="#999999" stroke="#666666" points="2574.5,-448 2452.5,-448 2452.5,-407 2574.5,-407 2574.5,-448"/>
<text text-anchor="start" x="2460.5" y="-436" font-family="Helvetica,sans-Serif" font-size="10.00">libs/JSystem/JStudio</text>
<text text-anchor="start" x="2460.5" y="-425" font-family="Helvetica,sans-Serif" font-size="10.00">/JStudio_JAudio2/object</text>
<text text-anchor="middle" x="2513.5" y="-414" font-family="Helvetica,sans-Serif" font-size="10.00">&#45;sound.cpp</text>
</a>
</g>
</g>
<!-- Node2 -->
<g id="node2" class="node">
<title>Node2</title>
<g id="a_node2"><a xlink:href="object-sound_8h.html" target="_top" xlink:title=" ">
<polygon fill="white" stroke="#666666" points="436,-354.5 309,-354.5 309,-324.5 436,-324.5 436,-354.5"/>
<text text-anchor="start" x="317" y="-342.5" font-family="Helvetica,sans-Serif" font-size="10.00">JSystem/JStudio/JStudio</text>
<text text-anchor="middle" x="372.5" y="-331.5" font-family="Helvetica,sans-Serif" font-size="10.00">_JAudio2/object&#45;sound.h</text>
</a>
</g>
</g>
<!-- Node1&#45;&gt;Node2 -->
<g id="edge1" class="edge">
<title>Node1&#45;&gt;Node2</title>
<path fill="none" stroke="#63b8ff" d="M2452.11,-426.21C2130.26,-424.53 644.71,-414.46 444.5,-371 432.96,-368.49 420.95,-364.17 410.12,-359.55"/>
<polygon fill="#63b8ff" stroke="#63b8ff" points="411.68,-356.42 401.12,-355.51 408.81,-362.8 411.68,-356.42"/>
</g>
<!-- Node3 -->
<g id="node3" class="node">
<title>Node3</title>
<g id="a_node3"><a xlink:href="dol2asm_8h.html" target="_top" xlink:title=" ">
<polygon fill="white" stroke="#666666" points="515,-349 454,-349 454,-330 515,-330 515,-349"/>
<text text-anchor="middle" x="484.5" y="-337" font-family="Helvetica,sans-Serif" font-size="10.00">dol2asm.h</text>
</a>
</g>
</g>
<!-- Node1&#45;&gt;Node3 -->
<g id="edge2" class="edge">
<title>Node1&#45;&gt;Node3</title>
<path fill="none" stroke="#63b8ff" d="M2452.23,-425.87C2127.22,-422.39 616.32,-404.44 523.5,-371 515.24,-368.02 507.37,-362.57 500.88,-357.09"/>
<polygon fill="#63b8ff" stroke="#63b8ff" points="503.32,-354.57 493.6,-350.35 498.56,-359.71 503.32,-354.57"/>
</g>
<!-- Node4 -->
<g id="node4" class="node">
<title>Node4</title>
<g id="a_node4"><a xlink:href="JStudio_2JStudio__JAudio2_2control_8h.html" target="_top" xlink:title=" ">
<polygon fill="white" stroke="#666666" points="660,-354.5 533,-354.5 533,-324.5 660,-324.5 660,-354.5"/>
<text text-anchor="start" x="541" y="-342.5" font-family="Helvetica,sans-Serif" font-size="10.00">JSystem/JStudio/JStudio</text>
<text text-anchor="middle" x="596.5" y="-331.5" font-family="Helvetica,sans-Serif" font-size="10.00">_JAudio2/control.h</text>
</a>
</g>
</g>
<!-- Node1&#45;&gt;Node4 -->
<g id="edge3" class="edge">
<title>Node1&#45;&gt;Node4</title>
<path fill="none" stroke="#63b8ff" d="M2452.25,-425.98C2152.41,-423.26 846.67,-409.3 669.5,-371 657.82,-368.47 645.65,-364.14 634.67,-359.53"/>
<polygon fill="#63b8ff" stroke="#63b8ff" points="636.09,-356.33 625.53,-355.48 633.26,-362.73 636.09,-356.33"/>
</g>
<!-- Node85 -->
<g id="node24" class="node">
<title>Node85</title>
<g id="a_node24"><a xlink:title=" ">
<polygon fill="#e0e0e0" stroke="#999999" points="802.5,-360 678.5,-360 678.5,-319 802.5,-319 802.5,-360"/>
<text text-anchor="start" x="686.5" y="-348" font-family="Helvetica,sans-Serif" font-size="10.00">asm/JSystem/JStudio</text>
<text text-anchor="start" x="686.5" y="-337" font-family="Helvetica,sans-Serif" font-size="10.00">/JStudio_JAudio2/object</text>
<text text-anchor="middle" x="740.5" y="-326" font-family="Helvetica,sans-Serif" font-size="10.00">&#45;sound/func_8028D728.s</text>
</a>
</g>
</g>
<!-- Node1&#45;&gt;Node85 -->
<g id="edge29" class="edge">
<title>Node1&#45;&gt;Node85</title>
<path fill="none" stroke="#63b8ff" d="M2452.29,-425.85C2166.89,-422.65 973.91,-407.18 811.5,-371 804.54,-369.45 797.41,-367.23 790.48,-364.68"/>
<polygon fill="#63b8ff" stroke="#63b8ff" points="791.8,-361.44 781.21,-361.02 789.22,-367.95 791.8,-361.44"/>
</g>
<!-- Node86 -->
<g id="node25" class="node">
<title>Node86</title>
<g id="a_node25"><a xlink:title=" ">
<polygon fill="#e0e0e0" stroke="#999999" points="944.5,-360 820.5,-360 820.5,-319 944.5,-319 944.5,-360"/>
<text text-anchor="start" x="828.5" y="-348" font-family="Helvetica,sans-Serif" font-size="10.00">asm/JSystem/JStudio</text>
<text text-anchor="start" x="828.5" y="-337" font-family="Helvetica,sans-Serif" font-size="10.00">/JStudio_JAudio2/object</text>
<text text-anchor="middle" x="882.5" y="-326" font-family="Helvetica,sans-Serif" font-size="10.00">&#45;sound/func_8028D750.s</text>
</a>
</g>
</g>
<!-- Node1&#45;&gt;Node86 -->
<g id="edge30" class="edge">
<title>Node1&#45;&gt;Node86</title>
<path fill="none" stroke="#63b8ff" d="M2452.05,-425.65C2181.27,-421.74 1101.34,-404.16 953.5,-371 946.54,-369.44 939.41,-367.21 932.48,-364.66"/>
<polygon fill="#63b8ff" stroke="#63b8ff" points="933.8,-361.42 923.22,-360.99 931.23,-367.93 933.8,-361.42"/>
</g>
<!-- Node87 -->
<g id="node26" class="node">
<title>Node87</title>
<g id="a_node26"><a xlink:title=" ">
<polygon fill="#e0e0e0" stroke="#999999" points="1086.5,-360 962.5,-360 962.5,-319 1086.5,-319 1086.5,-360"/>
<text text-anchor="start" x="970.5" y="-348" font-family="Helvetica,sans-Serif" font-size="10.00">asm/JSystem/JStudio</text>
<text text-anchor="start" x="970.5" y="-337" font-family="Helvetica,sans-Serif" font-size="10.00">/JStudio_JAudio2/object</text>
<text text-anchor="middle" x="1024.5" y="-326" font-family="Helvetica,sans-Serif" font-size="10.00">&#45;sound/func_8028D778.s</text>
</a>
</g>
</g>
<!-- Node1&#45;&gt;Node87 -->
<g id="edge31" class="edge">
<title>Node1&#45;&gt;Node87</title>
<path fill="none" stroke="#63b8ff" d="M2452.21,-425.4C2197.52,-420.65 1229.85,-400.81 1096.5,-371 1089.37,-369.41 1082.06,-367.14 1074.96,-364.54"/>
<polygon fill="#63b8ff" stroke="#63b8ff" points="1076.39,-361.35 1065.8,-360.96 1073.84,-367.86 1076.39,-361.35"/>
</g>
<!-- Node88 -->
<g id="node27" class="node">
<title>Node88</title>
<g id="a_node27"><a xlink:title=" ">
<polygon fill="#e0e0e0" stroke="#999999" points="1230,-360 1105,-360 1105,-319 1230,-319 1230,-360"/>
<text text-anchor="start" x="1113" y="-348" font-family="Helvetica,sans-Serif" font-size="10.00">asm/JSystem/JStudio</text>
<text text-anchor="start" x="1113" y="-337" font-family="Helvetica,sans-Serif" font-size="10.00">/JStudio_JAudio2/object</text>
<text text-anchor="middle" x="1167.5" y="-326" font-family="Helvetica,sans-Serif" font-size="10.00">&#45;sound/func_8028D7A0.s</text>
</a>
</g>
</g>
<!-- Node1&#45;&gt;Node88 -->
<g id="edge32" class="edge">
<title>Node1&#45;&gt;Node88</title>
<path fill="none" stroke="#63b8ff" d="M2452.04,-426.71C2230.63,-427.02 1474.48,-424.07 1239.5,-371 1232.38,-369.39 1225.07,-367.11 1217.97,-364.52"/>
<polygon fill="#63b8ff" stroke="#63b8ff" points="1219.4,-361.32 1208.81,-360.93 1216.84,-367.83 1219.4,-361.32"/>
</g>
<!-- Node89 -->
<g id="node28" class="node">
<title>Node89</title>
<g id="a_node28"><a xlink:title=" ">
<polygon fill="#e0e0e0" stroke="#999999" points="1372.5,-360 1248.5,-360 1248.5,-319 1372.5,-319 1372.5,-360"/>
<text text-anchor="start" x="1256.5" y="-348" font-family="Helvetica,sans-Serif" font-size="10.00">asm/JSystem/JStudio</text>
<text text-anchor="start" x="1256.5" y="-337" font-family="Helvetica,sans-Serif" font-size="10.00">/JStudio_JAudio2/object</text>
<text text-anchor="middle" x="1310.5" y="-326" font-family="Helvetica,sans-Serif" font-size="10.00">&#45;sound/func_8028D800.s</text>
</a>
</g>
</g>
<!-- Node1&#45;&gt;Node89 -->
<g id="edge33" class="edge">
<title>Node1&#45;&gt;Node89</title>
<path fill="none" stroke="#63b8ff" d="M2452.27,-426.36C2247.48,-425.43 1587.82,-418.73 1381.5,-371 1374.64,-369.41 1367.6,-367.19 1360.76,-364.67"/>
<polygon fill="#63b8ff" stroke="#63b8ff" points="1362.2,-361.47 1351.61,-361.05 1359.63,-367.98 1362.2,-361.47"/>
</g>
<!-- Node90 -->
<g id="node29" class="node">
<title>Node90</title>
<g id="a_node29"><a xlink:title=" ">
<polygon fill="#e0e0e0" stroke="#999999" points="1514.5,-360 1390.5,-360 1390.5,-319 1514.5,-319 1514.5,-360"/>
<text text-anchor="start" x="1398.5" y="-348" font-family="Helvetica,sans-Serif" font-size="10.00">asm/JSystem/JStudio</text>
<text text-anchor="start" x="1398.5" y="-337" font-family="Helvetica,sans-Serif" font-size="10.00">/JStudio_JAudio2/object</text>
<text text-anchor="middle" x="1452.5" y="-326" font-family="Helvetica,sans-Serif" font-size="10.00">&#45;sound/func_8028D828.s</text>
</a>
</g>
</g>
<!-- Node1&#45;&gt;Node90 -->
<g id="edge34" class="edge">
<title>Node1&#45;&gt;Node90</title>
<path fill="none" stroke="#63b8ff" d="M2452.22,-425.85C2264.82,-423.44 1701.34,-412.8 1523.5,-371 1516.64,-369.39 1509.61,-367.15 1502.77,-364.62"/>
<polygon fill="#63b8ff" stroke="#63b8ff" points="1504.21,-361.43 1493.63,-361 1501.63,-367.94 1504.21,-361.43"/>
</g>
<!-- Node91 -->
<g id="node30" class="node">
<title>Node91</title>
<g id="a_node30"><a xlink:title=" ">
<polygon fill="#e0e0e0" stroke="#999999" points="1690.5,-365.5 1532.5,-365.5 1532.5,-313.5 1690.5,-313.5 1690.5,-365.5"/>
<text text-anchor="start" x="1540.5" y="-353.5" font-family="Helvetica,sans-Serif" font-size="10.00">asm/JSystem/JStudio</text>
<text text-anchor="start" x="1540.5" y="-342.5" font-family="Helvetica,sans-Serif" font-size="10.00">/JStudio_JAudio2/object</text>
<text text-anchor="start" x="1540.5" y="-331.5" font-family="Helvetica,sans-Serif" font-size="10.00">&#45;sound/__dt__Q215JStudio</text>
<text text-anchor="middle" x="1611.5" y="-320.5" font-family="Helvetica,sans-Serif" font-size="10.00">_JAudio214TAdaptor_soundFv.s</text>
</a>
</g>
</g>
<!-- Node1&#45;&gt;Node91 -->
<g id="edge35" class="edge">
<title>Node1&#45;&gt;Node91</title>
<path fill="none" stroke="#63b8ff" d="M2452.13,-424.43C2288.31,-418.55 1843.42,-400.3 1699.5,-371 1696.38,-370.36 1693.22,-369.65 1690.04,-368.86"/>
<polygon fill="#63b8ff" stroke="#63b8ff" points="1691.25,-365.56 1680.68,-366.36 1689.44,-372.32 1691.25,-365.56"/>
</g>
<!-- Node92 -->
<g id="node31" class="node">
<title>Node92</title>
<g id="a_node31"><a xlink:title=" ">
<polygon fill="#e0e0e0" stroke="#999999" points="1882.5,-371 1708.5,-371 1708.5,-308 1882.5,-308 1882.5,-371"/>
<text text-anchor="start" x="1716.5" y="-359" font-family="Helvetica,sans-Serif" font-size="10.00">asm/JSystem/JStudio</text>
<text text-anchor="start" x="1716.5" y="-348" font-family="Helvetica,sans-Serif" font-size="10.00">/JStudio_JAudio2/object</text>
<text text-anchor="start" x="1716.5" y="-337" font-family="Helvetica,sans-Serif" font-size="10.00">&#45;sound/adaptor_do_prepare</text>
<text text-anchor="start" x="1716.5" y="-326" font-family="Helvetica,sans-Serif" font-size="10.00">__Q215JStudio_JAudio214TAdaptor</text>
<text text-anchor="middle" x="1795.5" y="-315" font-family="Helvetica,sans-Serif" font-size="10.00">_soundFv.s</text>
</a>
</g>
</g>
<!-- Node1&#45;&gt;Node92 -->
<g id="edge36" class="edge">
<title>Node1&#45;&gt;Node92</title>
<path fill="none" stroke="#63b8ff" d="M2452.39,-425.46C2342.16,-422.63 2102.85,-412.12 1894.1,-371.36"/>
<polygon fill="#63b8ff" stroke="#63b8ff" points="1894.9,-367.95 1884.41,-369.44 1893.54,-374.82 1894.9,-367.95"/>
</g>
<!-- Node93 -->
<g id="node32" class="node">
<title>Node93</title>
<g id="a_node32"><a xlink:title=" ">
<polygon fill="#e0e0e0" stroke="#999999" points="2074.5,-371 1900.5,-371 1900.5,-308 2074.5,-308 2074.5,-371"/>
<text text-anchor="start" x="1908.5" y="-359" font-family="Helvetica,sans-Serif" font-size="10.00">asm/JSystem/JStudio</text>
<text text-anchor="start" x="1908.5" y="-348" font-family="Helvetica,sans-Serif" font-size="10.00">/JStudio_JAudio2/object</text>
<text text-anchor="start" x="1908.5" y="-337" font-family="Helvetica,sans-Serif" font-size="10.00">&#45;sound/adaptor_do_update</text>
<text text-anchor="start" x="1908.5" y="-326" font-family="Helvetica,sans-Serif" font-size="10.00">__Q215JStudio_JAudio214TAdaptor</text>
<text text-anchor="middle" x="1987.5" y="-315" font-family="Helvetica,sans-Serif" font-size="10.00">_soundFUl.s</text>
</a>
</g>
</g>
<!-- Node1&#45;&gt;Node93 -->
<g id="edge37" class="edge">
<title>Node1&#45;&gt;Node93</title>
<path fill="none" stroke="#63b8ff" d="M2452.18,-421.98C2370.6,-415.22 2221.87,-400.27 2085.84,-371.13"/>
<polygon fill="#63b8ff" stroke="#63b8ff" points="2086.81,-367.76 2076.3,-369.05 2085.32,-374.6 2086.81,-367.76"/>
</g>
<!-- Node94 -->
<g id="node33" class="node">
<title>Node94</title>
<g id="a_node33"><a xlink:title=" ">
<polygon fill="#e0e0e0" stroke="#999999" points="2218,-360 2093,-360 2093,-319 2218,-319 2218,-360"/>
<text text-anchor="start" x="2101" y="-348" font-family="Helvetica,sans-Serif" font-size="10.00">asm/JSystem/JStudio</text>
<text text-anchor="start" x="2101" y="-337" font-family="Helvetica,sans-Serif" font-size="10.00">/JStudio_JAudio2/object</text>
<text text-anchor="middle" x="2155.5" y="-326" font-family="Helvetica,sans-Serif" font-size="10.00">&#45;sound/func_8028DC20.s</text>
</a>
</g>
</g>
<!-- Node1&#45;&gt;Node94 -->
<g id="edge38" class="edge">
<title>Node1&#45;&gt;Node94</title>
<path fill="none" stroke="#63b8ff" d="M2452.06,-418.38C2393.52,-409.75 2303.33,-394.14 2227.5,-371 2221.34,-369.12 2215,-366.89 2208.75,-364.51"/>
<polygon fill="#63b8ff" stroke="#63b8ff" points="2210.35,-361.38 2199.77,-360.94 2207.77,-367.89 2210.35,-361.38"/>
</g>
<!-- Node95 -->
<g id="node34" class="node">
<title>Node95</title>
<g id="a_node34"><a xlink:title=" ">
<polygon fill="#e0e0e0" stroke="#999999" points="2361,-360 2236,-360 2236,-319 2361,-319 2361,-360"/>
<text text-anchor="start" x="2244" y="-348" font-family="Helvetica,sans-Serif" font-size="10.00">asm/JSystem/JStudio</text>
<text text-anchor="start" x="2244" y="-337" font-family="Helvetica,sans-Serif" font-size="10.00">/JStudio_JAudio2/object</text>
<text text-anchor="middle" x="2298.5" y="-326" font-family="Helvetica,sans-Serif" font-size="10.00">&#45;sound/func_8028DC54.s</text>
</a>
</g>
</g>
<!-- Node1&#45;&gt;Node95 -->
<g id="edge39" class="edge">
<title>Node1&#45;&gt;Node95</title>
<path fill="none" stroke="#63b8ff" d="M2461.05,-406.58C2433.94,-396.18 2400.36,-383.12 2370.5,-371 2365.57,-369 2360.46,-366.9 2355.35,-364.77"/>
<polygon fill="#63b8ff" stroke="#63b8ff" points="2356.86,-361.61 2346.29,-360.98 2354.16,-368.07 2356.86,-361.61"/>
</g>
<!-- Node96 -->
<g id="node35" class="node">
<title>Node96</title>
<g id="a_node35"><a xlink:title=" ">
<polygon fill="#e0e0e0" stroke="#999999" points="2504,-360 2379,-360 2379,-319 2504,-319 2504,-360"/>
<text text-anchor="start" x="2387" y="-348" font-family="Helvetica,sans-Serif" font-size="10.00">asm/JSystem/JStudio</text>
<text text-anchor="start" x="2387" y="-337" font-family="Helvetica,sans-Serif" font-size="10.00">/JStudio_JAudio2/object</text>
<text text-anchor="middle" x="2441.5" y="-326" font-family="Helvetica,sans-Serif" font-size="10.00">&#45;sound/func_8028DC88.s</text>
</a>
</g>
</g>
<!-- Node1&#45;&gt;Node96 -->
<g id="edge40" class="edge">
<title>Node1&#45;&gt;Node96</title>
<path fill="none" stroke="#63b8ff" d="M2496.8,-406.55C2487.44,-395.37 2475.61,-381.24 2465.29,-368.92"/>
<polygon fill="#63b8ff" stroke="#63b8ff" points="2468.18,-366.92 2459.08,-361.5 2462.82,-371.41 2468.18,-366.92"/>
</g>
<!-- Node97 -->
<g id="node36" class="node">
<title>Node97</title>
<g id="a_node36"><a xlink:title=" ">
<polygon fill="#e0e0e0" stroke="#999999" points="2649,-360 2522,-360 2522,-319 2649,-319 2649,-360"/>
<text text-anchor="start" x="2530" y="-348" font-family="Helvetica,sans-Serif" font-size="10.00">asm/JSystem/JStudio</text>
<text text-anchor="start" x="2530" y="-337" font-family="Helvetica,sans-Serif" font-size="10.00">/JStudio_JAudio2/object</text>
<text text-anchor="middle" x="2585.5" y="-326" font-family="Helvetica,sans-Serif" font-size="10.00">&#45;sound/func_8028DCD0.s</text>
</a>
</g>
</g>
<!-- Node1&#45;&gt;Node97 -->
<g id="edge41" class="edge">
<title>Node1&#45;&gt;Node97</title>
<path fill="none" stroke="#63b8ff" d="M2530.2,-406.55C2539.56,-395.37 2551.39,-381.24 2561.71,-368.92"/>
<polygon fill="#63b8ff" stroke="#63b8ff" points="2564.18,-371.41 2567.92,-361.5 2558.82,-366.92 2564.18,-371.41"/>
</g>
<!-- Node98 -->
<g id="node37" class="node">
<title>Node98</title>
<g id="a_node37"><a xlink:title=" ">
<polygon fill="#e0e0e0" stroke="#999999" points="2792,-360 2667,-360 2667,-319 2792,-319 2792,-360"/>
<text text-anchor="start" x="2675" y="-348" font-family="Helvetica,sans-Serif" font-size="10.00">asm/JSystem/JStudio</text>
<text text-anchor="start" x="2675" y="-337" font-family="Helvetica,sans-Serif" font-size="10.00">/JStudio_JAudio2/object</text>
<text text-anchor="middle" x="2729.5" y="-326" font-family="Helvetica,sans-Serif" font-size="10.00">&#45;sound/func_8028DD00.s</text>
</a>
</g>
</g>
<!-- Node1&#45;&gt;Node98 -->
<g id="edge42" class="edge">
<title>Node1&#45;&gt;Node98</title>
<path fill="none" stroke="#63b8ff" d="M2567.07,-406.58C2594.52,-396.23 2628.41,-383.22 2658.5,-371 2663.37,-369.02 2668.41,-366.94 2673.46,-364.82"/>
<polygon fill="#63b8ff" stroke="#63b8ff" points="2674.54,-368.16 2682.39,-361.05 2671.81,-361.72 2674.54,-368.16"/>
</g>
<!-- Node99 -->
<g id="node38" class="node">
<title>Node99</title>
<g id="a_node38"><a xlink:title=" ">
<polygon fill="#e0e0e0" stroke="#999999" points="2935,-360 2810,-360 2810,-319 2935,-319 2935,-360"/>
<text text-anchor="start" x="2818" y="-348" font-family="Helvetica,sans-Serif" font-size="10.00">asm/JSystem/JStudio</text>
<text text-anchor="start" x="2818" y="-337" font-family="Helvetica,sans-Serif" font-size="10.00">/JStudio_JAudio2/object</text>
<text text-anchor="middle" x="2872.5" y="-326" font-family="Helvetica,sans-Serif" font-size="10.00">&#45;sound/func_8028DD48.s</text>
</a>
</g>
</g>
<!-- Node1&#45;&gt;Node99 -->
<g id="edge43" class="edge">
<title>Node1&#45;&gt;Node99</title>
<path fill="none" stroke="#63b8ff" d="M2574.83,-418.59C2633.78,-410.08 2724.96,-394.51 2801.5,-371 2807.58,-369.13 2813.84,-366.91 2820.01,-364.53"/>
<polygon fill="#63b8ff" stroke="#63b8ff" points="2820.88,-367.95 2828.85,-360.97 2818.27,-361.46 2820.88,-367.95"/>
</g>
<!-- Node100 -->
<g id="node39" class="node">
<title>Node100</title>
<g id="a_node39"><a xlink:title=" ">
<polygon fill="#e0e0e0" stroke="#999999" points="3080,-360 2953,-360 2953,-319 3080,-319 3080,-360"/>
<text text-anchor="start" x="2961" y="-348" font-family="Helvetica,sans-Serif" font-size="10.00">asm/JSystem/JStudio</text>
<text text-anchor="start" x="2961" y="-337" font-family="Helvetica,sans-Serif" font-size="10.00">/JStudio_JAudio2/object</text>
<text text-anchor="middle" x="3016.5" y="-326" font-family="Helvetica,sans-Serif" font-size="10.00">&#45;sound/func_8028DDB4.s</text>
</a>
</g>
</g>
<!-- Node1&#45;&gt;Node100 -->
<g id="edge44" class="edge">
<title>Node1&#45;&gt;Node100</title>
<path fill="none" stroke="#63b8ff" d="M2574.83,-423.85C2659.35,-419.03 2815.79,-405.85 2944.5,-371 2951.12,-369.21 2957.93,-366.93 2964.6,-364.44"/>
<polygon fill="#63b8ff" stroke="#63b8ff" points="2965.49,-367.85 2973.51,-360.93 2962.93,-361.34 2965.49,-367.85"/>
</g>
<!-- Node101 -->
<g id="node40" class="node">
<title>Node101</title>
<g id="a_node40"><a xlink:title=" ">
<polygon fill="#e0e0e0" stroke="#999999" points="3223,-360 3098,-360 3098,-319 3223,-319 3223,-360"/>
<text text-anchor="start" x="3106" y="-348" font-family="Helvetica,sans-Serif" font-size="10.00">asm/JSystem/JStudio</text>
<text text-anchor="start" x="3106" y="-337" font-family="Helvetica,sans-Serif" font-size="10.00">/JStudio_JAudio2/object</text>
<text text-anchor="middle" x="3160.5" y="-326" font-family="Helvetica,sans-Serif" font-size="10.00">&#45;sound/func_8028DE34.s</text>
</a>
</g>
</g>
<!-- Node1&#45;&gt;Node101 -->
<g id="edge45" class="edge">
<title>Node1&#45;&gt;Node101</title>
<path fill="none" stroke="#63b8ff" d="M2574.68,-426.76C2681.07,-425.86 2906.3,-417.95 3089.5,-371 3096.15,-369.3 3102.98,-367.05 3109.65,-364.56"/>
<polygon fill="#63b8ff" stroke="#63b8ff" points="3110.55,-367.97 3118.55,-361.02 3107.97,-361.46 3110.55,-367.97"/>
</g>
<!-- Node102 -->
<g id="node41" class="node">
<title>Node102</title>
<g id="a_node41"><a xlink:title=" ">
<polygon fill="#e0e0e0" stroke="#999999" points="3366,-360 3241,-360 3241,-319 3366,-319 3366,-360"/>
<text text-anchor="start" x="3249" y="-348" font-family="Helvetica,sans-Serif" font-size="10.00">asm/JSystem/JStudio</text>
<text text-anchor="start" x="3249" y="-337" font-family="Helvetica,sans-Serif" font-size="10.00">/JStudio_JAudio2/object</text>
<text text-anchor="middle" x="3303.5" y="-326" font-family="Helvetica,sans-Serif" font-size="10.00">&#45;sound/func_8028DE50.s</text>
</a>
</g>
</g>
<!-- Node1&#45;&gt;Node102 -->
<g id="edge46" class="edge">
<title>Node1&#45;&gt;Node102</title>
<path fill="none" stroke="#63b8ff" d="M2574.82,-424.35C2725.08,-418.67 3108.42,-401.55 3232.5,-371 3239.25,-369.34 3246.18,-367.1 3252.94,-364.58"/>
<polygon fill="#63b8ff" stroke="#63b8ff" points="3253.96,-367.94 3261.96,-361 3251.38,-361.44 3253.96,-367.94"/>
</g>
<!-- Node103 -->
<g id="node42" class="node">
<title>Node103</title>
<g id="a_node42"><a xlink:title=" ">
<polygon fill="#e0e0e0" stroke="#999999" points="3510.5,-360 3384.5,-360 3384.5,-319 3510.5,-319 3510.5,-360"/>
<text text-anchor="start" x="3392.5" y="-348" font-family="Helvetica,sans-Serif" font-size="10.00">asm/JSystem/JStudio</text>
<text text-anchor="start" x="3392.5" y="-337" font-family="Helvetica,sans-Serif" font-size="10.00">/JStudio_JAudio2/object</text>
<text text-anchor="middle" x="3447.5" y="-326" font-family="Helvetica,sans-Serif" font-size="10.00">&#45;sound/func_8028DE6C.s</text>
</a>
</g>
</g>
<!-- Node1&#45;&gt;Node103 -->
<g id="edge47" class="edge">
<title>Node1&#45;&gt;Node103</title>
<path fill="none" stroke="#63b8ff" d="M2574.88,-425.22C2745.54,-421.23 3223.1,-407.09 3375.5,-371 3382.44,-369.36 3389.55,-367.11 3396.49,-364.56"/>
<polygon fill="#63b8ff" stroke="#63b8ff" points="3397.74,-367.83 3405.77,-360.93 3395.19,-361.32 3397.74,-367.83"/>
</g>
<!-- Node104 -->
<g id="node43" class="node">
<title>Node104</title>
<g id="a_node43"><a xlink:title=" ">
<polygon fill="#e0e0e0" stroke="#999999" points="3654,-360 3529,-360 3529,-319 3654,-319 3654,-360"/>
<text text-anchor="start" x="3537" y="-348" font-family="Helvetica,sans-Serif" font-size="10.00">asm/JSystem/JStudio</text>
<text text-anchor="start" x="3537" y="-337" font-family="Helvetica,sans-Serif" font-size="10.00">/JStudio_JAudio2/object</text>
<text text-anchor="middle" x="3591.5" y="-326" font-family="Helvetica,sans-Serif" font-size="10.00">&#45;sound/func_8028DE88.s</text>
</a>
</g>
</g>
<!-- Node1&#45;&gt;Node104 -->
<g id="edge48" class="edge">
<title>Node1&#45;&gt;Node104</title>
<path fill="none" stroke="#63b8ff" d="M2574.75,-425.88C2764.13,-423.52 3338.35,-413.02 3519.5,-371 3526.44,-369.39 3533.57,-367.16 3540.5,-364.63"/>
<polygon fill="#63b8ff" stroke="#63b8ff" points="3541.75,-367.9 3549.79,-361 3539.2,-361.38 3541.75,-367.9"/>
</g>
<!-- Node105 -->
<g id="node44" class="node">
<title>Node105</title>
<g id="a_node44"><a xlink:title=" ">
<polygon fill="#e0e0e0" stroke="#999999" points="3798.5,-360 3672.5,-360 3672.5,-319 3798.5,-319 3798.5,-360"/>
<text text-anchor="start" x="3680.5" y="-348" font-family="Helvetica,sans-Serif" font-size="10.00">asm/JSystem/JStudio</text>
<text text-anchor="start" x="3680.5" y="-337" font-family="Helvetica,sans-Serif" font-size="10.00">/JStudio_JAudio2/object</text>
<text text-anchor="middle" x="3735.5" y="-326" font-family="Helvetica,sans-Serif" font-size="10.00">&#45;sound/func_8028DEB0.s</text>
</a>
</g>
</g>
<!-- Node1&#45;&gt;Node105 -->
<g id="edge49" class="edge">
<title>Node1&#45;&gt;Node105</title>
<path fill="none" stroke="#63b8ff" d="M2574.97,-426.37C2782.15,-425.5 3453.53,-418.94 3663.5,-371 3670.45,-369.41 3677.57,-367.2 3684.51,-364.67"/>
<polygon fill="#63b8ff" stroke="#63b8ff" points="3685.76,-367.94 3693.8,-361.05 3683.21,-361.42 3685.76,-367.94"/>
</g>
<!-- Node106 -->
<g id="node45" class="node">
<title>Node106</title>
<g id="a_node45"><a xlink:title=" ">
<polygon fill="#e0e0e0" stroke="#999999" points="3944.5,-360 3816.5,-360 3816.5,-319 3944.5,-319 3944.5,-360"/>
<text text-anchor="start" x="3824.5" y="-348" font-family="Helvetica,sans-Serif" font-size="10.00">asm/JSystem/JStudio</text>
<text text-anchor="start" x="3824.5" y="-337" font-family="Helvetica,sans-Serif" font-size="10.00">/JStudio_JAudio2/object</text>
<text text-anchor="middle" x="3880.5" y="-326" font-family="Helvetica,sans-Serif" font-size="10.00">&#45;sound/func_8028DECC.s</text>
</a>
</g>
</g>
<!-- Node1&#45;&gt;Node106 -->
<g id="edge50" class="edge">
<title>Node1&#45;&gt;Node106</title>
<path fill="none" stroke="#63b8ff" d="M2574.76,-426.72C2798.12,-427.08 3568.27,-424.32 3807.5,-371 3814.71,-369.39 3822.11,-367.11 3829.31,-364.52"/>
<polygon fill="#63b8ff" stroke="#63b8ff" points="3830.55,-367.79 3838.61,-360.92 3828.02,-361.26 3830.55,-367.79"/>
</g>
<!-- Node107 -->
<g id="node46" class="node">
<title>Node107</title>
<g id="a_node46"><a xlink:title=" ">
<polygon fill="#e0e0e0" stroke="#999999" points="4144,-365.5 3963,-365.5 3963,-313.5 4144,-313.5 4144,-365.5"/>
<text text-anchor="start" x="3971" y="-353.5" font-family="Helvetica,sans-Serif" font-size="10.00">asm/JSystem/JStudio</text>
<text text-anchor="start" x="3971" y="-342.5" font-family="Helvetica,sans-Serif" font-size="10.00">/JStudio_JAudio2/object</text>
<text text-anchor="start" x="3971" y="-331.5" font-family="Helvetica,sans-Serif" font-size="10.00">&#45;sound/prepareSound___Q215JStudio</text>
<text text-anchor="middle" x="4053.5" y="-320.5" font-family="Helvetica,sans-Serif" font-size="10.00">_JAudio214TAdaptor_soundFv.s</text>
</a>
</g>
</g>
<!-- Node1&#45;&gt;Node107 -->
<g id="edge51" class="edge">
<title>Node1&#45;&gt;Node107</title>
<path fill="none" stroke="#63b8ff" d="M2574.82,-426.23C2813.7,-424.88 3682.14,-416.82 3953.5,-371 3957.64,-370.3 3961.84,-369.48 3966.07,-368.57"/>
<polygon fill="#63b8ff" stroke="#63b8ff" points="3966.86,-371.97 3975.8,-366.29 3965.27,-365.16 3966.86,-371.97"/>
</g>
<!-- Node108 -->
<g id="node47" class="node">
<title>Node108</title>
<g id="a_node47"><a xlink:title=" ">
<polygon fill="#e0e0e0" stroke="#999999" points="4341,-371 4162,-371 4162,-308 4341,-308 4341,-371"/>
<text text-anchor="start" x="4170" y="-359" font-family="Helvetica,sans-Serif" font-size="10.00">asm/JSystem/JStudio</text>
<text text-anchor="start" x="4170" y="-348" font-family="Helvetica,sans-Serif" font-size="10.00">/JStudio_JAudio2/object</text>
<text text-anchor="start" x="4170" y="-337" font-family="Helvetica,sans-Serif" font-size="10.00">&#45;sound/beginSound_fadeIn</text>
<text text-anchor="start" x="4170" y="-326" font-family="Helvetica,sans-Serif" font-size="10.00">___Q215JStudio_JAudio214TAdaptor</text>
<text text-anchor="middle" x="4251.5" y="-315" font-family="Helvetica,sans-Serif" font-size="10.00">_soundFv.s</text>
</a>
</g>
</g>
<!-- Node1&#45;&gt;Node108 -->
<g id="edge52" class="edge">
<title>Node1&#45;&gt;Node108</title>
<path fill="none" stroke="#63b8ff" d="M2574.78,-426.62C2831.07,-426.77 3818.66,-423.96 4150.69,-371.27"/>
<polygon fill="#63b8ff" stroke="#63b8ff" points="4150.95,-374.78 4160.25,-369.7 4149.82,-367.87 4150.95,-374.78"/>
</g>
<!-- Node109 -->
<g id="node48" class="node">
<title>Node109</title>
<g id="a_node48"><a xlink:title=" ">
<polygon fill="#e0e0e0" stroke="#999999" points="4538,-371 4359,-371 4359,-308 4538,-308 4538,-371"/>
<text text-anchor="start" x="4367" y="-359" font-family="Helvetica,sans-Serif" font-size="10.00">asm/JSystem/JStudio</text>
<text text-anchor="start" x="4367" y="-348" font-family="Helvetica,sans-Serif" font-size="10.00">/JStudio_JAudio2/object</text>
<text text-anchor="start" x="4367" y="-337" font-family="Helvetica,sans-Serif" font-size="10.00">&#45;sound/endSound_fadeOut</text>
<text text-anchor="start" x="4367" y="-326" font-family="Helvetica,sans-Serif" font-size="10.00">___Q215JStudio_JAudio214TAdaptor</text>
<text text-anchor="middle" x="4448.5" y="-315" font-family="Helvetica,sans-Serif" font-size="10.00">_soundFUl.s</text>
</a>
</g>
</g>
<!-- Node1&#45;&gt;Node109 -->
<g id="edge53" class="edge">
<title>Node1&#45;&gt;Node109</title>
<path fill="none" stroke="#63b8ff" d="M2574.98,-426.88C2850.53,-428.23 3974.28,-430.06 4347.39,-371.32"/>
<polygon fill="#63b8ff" stroke="#63b8ff" points="4347.94,-374.77 4357.25,-369.71 4346.82,-367.86 4347.94,-374.77"/>
</g>
<!-- Node110 -->
<g id="node49" class="node">
<title>Node110</title>
<g id="a_node49"><a xlink:title=" ">
<polygon fill="#e0e0e0" stroke="#999999" points="4747,-371 4556,-371 4556,-308 4747,-308 4747,-371"/>
<text text-anchor="start" x="4564" y="-359" font-family="Helvetica,sans-Serif" font-size="10.00">asm/JSystem/JStudio</text>
<text text-anchor="start" x="4564" y="-348" font-family="Helvetica,sans-Serif" font-size="10.00">/JStudio_JAudio2/object</text>
<text text-anchor="start" x="4564" y="-337" font-family="Helvetica,sans-Serif" font-size="10.00">&#45;sound/__dt__Q315JStudio</text>
<text text-anchor="start" x="4564" y="-326" font-family="Helvetica,sans-Serif" font-size="10.00">_JAudio214TAdaptor_sound13TVVOSet</text>
<text text-anchor="middle" x="4651.5" y="-315" font-family="Helvetica,sans-Serif" font-size="10.00">Value_Fv.s</text>
</a>
</g>
</g>
<!-- Node1&#45;&gt;Node110 -->
<g id="edge54" class="edge">
<title>Node1&#45;&gt;Node110</title>
<path fill="none" stroke="#63b8ff" d="M2574.82,-425.77C2887.71,-421.91 4300.74,-402.96 4544.33,-371.2"/>
<polygon fill="#63b8ff" stroke="#63b8ff" points="4544.76,-374.68 4554.16,-369.8 4543.77,-367.75 4544.76,-374.68"/>
</g>
<!-- Node111 -->
<g id="node50" class="node">
<title>Node111</title>
<g id="a_node50"><a xlink:title=" ">
<polygon fill="#e0e0e0" stroke="#999999" points="4889.5,-360 4765.5,-360 4765.5,-319 4889.5,-319 4889.5,-360"/>
<text text-anchor="start" x="4773.5" y="-348" font-family="Helvetica,sans-Serif" font-size="10.00">asm/JSystem/JStudio</text>
<text text-anchor="start" x="4773.5" y="-337" font-family="Helvetica,sans-Serif" font-size="10.00">/JStudio_JAudio2/object</text>
<text text-anchor="middle" x="4827.5" y="-326" font-family="Helvetica,sans-Serif" font-size="10.00">&#45;sound/func_8028E0F4.s</text>
</a>
</g>
</g>
<!-- Node1&#45;&gt;Node111 -->
<g id="edge55" class="edge">
<title>Node1&#45;&gt;Node111</title>
<path fill="none" stroke="#63b8ff" d="M2574.99,-426.37C2913.07,-425.47 4538.46,-418.67 4756.5,-371 4763.64,-369.44 4770.95,-367.16 4778.04,-364.55"/>
<polygon fill="#63b8ff" stroke="#63b8ff" points="4779.17,-367.86 4787.17,-360.92 4776.59,-361.36 4779.17,-367.86"/>
</g>
<!-- Node5 -->
<g id="node5" class="node">
<title>Node5</title>
<g id="a_node5"><a xlink:href="JAISoundHandles_8h.html" target="_top" xlink:title=" ">
<polygon fill="white" stroke="#666666" points="434,-272 295,-272 295,-242 434,-242 434,-272"/>
<text text-anchor="start" x="303" y="-260" font-family="Helvetica,sans-Serif" font-size="10.00">JSystem/JAudio2/JAISound</text>
<text text-anchor="middle" x="364.5" y="-249" font-family="Helvetica,sans-Serif" font-size="10.00">Handles.h</text>
</a>
</g>
</g>
<!-- Node4&#45;&gt;Node5 -->
<g id="edge4" class="edge">
<title>Node4&#45;&gt;Node5</title>
<path fill="none" stroke="#63b8ff" d="M563.68,-324.04C551.2,-318.74 536.79,-312.85 523.5,-308 491.43,-296.28 455.14,-284.74 425.33,-275.71"/>
<polygon fill="#63b8ff" stroke="#63b8ff" points="426.7,-272.47 416.11,-272.93 424.68,-279.17 426.7,-272.47"/>
</g>
<!-- Node43 -->
<g id="node13" class="node">
<title>Node43</title>
<g id="a_node13"><a xlink:href="JAISoundStarter_8h.html" target="_top" xlink:title=" ">
<polygon fill="white" stroke="#666666" points="591,-272 452,-272 452,-242 591,-242 591,-272"/>
<text text-anchor="start" x="460" y="-260" font-family="Helvetica,sans-Serif" font-size="10.00">JSystem/JAudio2/JAISound</text>
<text text-anchor="middle" x="521.5" y="-249" font-family="Helvetica,sans-Serif" font-size="10.00">Starter.h</text>
</a>
</g>
</g>
<!-- Node4&#45;&gt;Node43 -->
<g id="edge13" class="edge">
<title>Node4&#45;&gt;Node43</title>
<path fill="none" stroke="#63b8ff" d="M583.09,-324.11C571.79,-311.97 555.42,-294.4 542.39,-280.43"/>
<polygon fill="#63b8ff" stroke="#63b8ff" points="545.2,-278.31 535.82,-273.37 540.08,-283.08 545.2,-278.31"/>
</g>
<!-- Node47 -->
<g id="node16" class="node">
<title>Node47</title>
<g id="a_node16"><a xlink:href="JSGSystem_8h.html" target="_top" xlink:title=" ">
<polygon fill="white" stroke="#666666" points="927.5,-266.5 775.5,-266.5 775.5,-247.5 927.5,-247.5 927.5,-266.5"/>
<text text-anchor="middle" x="851.5" y="-254.5" font-family="Helvetica,sans-Serif" font-size="10.00">JSystem/JStage/JSGSystem.h</text>
</a>
</g>
</g>
<!-- Node4&#45;&gt;Node47 -->
<g id="edge18" class="edge">
<title>Node4&#45;&gt;Node47</title>
<path fill="none" stroke="#63b8ff" d="M628.5,-324.09C641.13,-318.68 655.87,-312.7 669.5,-308 713.86,-292.71 765.53,-278.88 802.46,-269.66"/>
<polygon fill="#63b8ff" stroke="#63b8ff" points="803.09,-273.11 811.96,-267.32 801.41,-266.32 803.09,-273.11"/>
</g>
<!-- Node53 -->
<g id="node19" class="node">
<title>Node53</title>
<g id="a_node19"><a xlink:href="jstudio-object_8h.html" target="_top" xlink:title=" ">
<polygon fill="white" stroke="#666666" points="736,-272 609,-272 609,-242 736,-242 736,-272"/>
<text text-anchor="start" x="617" y="-260" font-family="Helvetica,sans-Serif" font-size="10.00">JSystem/JStudio/JStudio</text>
<text text-anchor="middle" x="672.5" y="-249" font-family="Helvetica,sans-Serif" font-size="10.00">/jstudio&#45;object.h</text>
</a>
</g>
</g>
<!-- Node4&#45;&gt;Node53 -->
<g id="edge21" class="edge">
<title>Node4&#45;&gt;Node53</title>
<path fill="none" stroke="#63b8ff" d="M610.09,-324.11C621.54,-311.97 638.13,-294.4 651.33,-280.43"/>
<polygon fill="#63b8ff" stroke="#63b8ff" points="653.67,-283.04 657.99,-273.37 648.58,-278.24 653.67,-283.04"/>
</g>
<!-- Node6 -->
<g id="node6" class="node">
<title>Node6</title>
<g id="a_node6"><a xlink:href="JAISound_8h.html" target="_top" xlink:title=" ">
<polygon fill="white" stroke="#666666" points="388.5,-200.5 242.5,-200.5 242.5,-181.5 388.5,-181.5 388.5,-200.5"/>
<text text-anchor="middle" x="315.5" y="-188.5" font-family="Helvetica,sans-Serif" font-size="10.00">JSystem/JAudio2/JAISound.h</text>
</a>
</g>
</g>
<!-- Node5&#45;&gt;Node6 -->
<g id="edge5" class="edge">
<title>Node5&#45;&gt;Node6</title>
<path fill="none" stroke="#63b8ff" d="M353.63,-241.8C346.44,-232.41 336.95,-220.02 329.24,-209.95"/>
<polygon fill="#63b8ff" stroke="#63b8ff" points="332.05,-207.86 323.19,-202.05 326.49,-212.11 332.05,-207.86"/>
</g>
<!-- Node18 -->
<g id="node11" class="node">
<title>Node18</title>
<g id="a_node11"><a xlink:href="JUTAssert_8h.html" target="_top" xlink:title=" ">
<polygon fill="white" stroke="#666666" points="510.5,-134.5 364.5,-134.5 364.5,-115.5 510.5,-115.5 510.5,-134.5"/>
<text text-anchor="middle" x="437.5" y="-122.5" font-family="Helvetica,sans-Serif" font-size="10.00">JSystem/JUtility/JUTAssert.h</text>
</a>
</g>
</g>
<!-- Node5&#45;&gt;Node18 -->
<g id="edge10" class="edge">
<title>Node5&#45;&gt;Node18</title>
<path fill="none" stroke="#63b8ff" d="M374.5,-241.85C381.3,-231.99 390.32,-218.43 397.5,-206 409.24,-185.65 421.08,-161.42 428.79,-144.99"/>
<polygon fill="#63b8ff" stroke="#63b8ff" points="431.95,-146.5 432.98,-135.96 425.6,-143.55 431.95,-146.5"/>
</g>
<!-- Node7 -->
<g id="node7" class="node">
<title>Node7</title>
<g id="a_node7"><a xlink:href="JAISoundParams_8h.html" target="_top" xlink:title=" ">
<polygon fill="#fff0f0" stroke="red" points="139,-140 0,-140 0,-110 139,-110 139,-140"/>
<text text-anchor="start" x="8" y="-128" font-family="Helvetica,sans-Serif" font-size="10.00">JSystem/JAudio2/JAISound</text>
<text text-anchor="middle" x="69.5" y="-117" font-family="Helvetica,sans-Serif" font-size="10.00">Params.h</text>
</a>
</g>
</g>
<!-- Node6&#45;&gt;Node7 -->
<g id="edge6" class="edge">
<title>Node6&#45;&gt;Node7</title>
<path fill="none" stroke="#63b8ff" d="M281.04,-181.03C243.58,-171.29 182.81,-155.48 136,-143.3"/>
<polygon fill="#63b8ff" stroke="#63b8ff" points="137.05,-139.96 126.49,-140.83 135.29,-146.73 137.05,-139.96"/>
</g>
<!-- Node11 -->
<g id="node8" class="node">
<title>Node11</title>
<g id="a_node8"><a xlink:href="JAIAudible_8h.html" target="_top" xlink:title=" ">
<polygon fill="#fff0f0" stroke="red" points="308,-134.5 157,-134.5 157,-115.5 308,-115.5 308,-134.5"/>
<text text-anchor="middle" x="232.5" y="-122.5" font-family="Helvetica,sans-Serif" font-size="10.00">JSystem/JAudio2/JAIAudible.h</text>
</a>
</g>
</g>
<!-- Node6&#45;&gt;Node11 -->
<g id="edge7" class="edge">
<title>Node6&#45;&gt;Node11</title>
<path fill="none" stroke="#63b8ff" d="M303.96,-181.1C290.7,-170.88 268.72,-153.93 252.62,-141.52"/>
<polygon fill="#63b8ff" stroke="#63b8ff" points="255.2,-139.08 245.14,-135.75 250.92,-144.63 255.2,-139.08"/>
</g>
<!-- Node17 -->
<g id="node9" class="node">
<title>Node17</title>
<g id="a_node9"><a xlink:href="global_8h.html" target="_top" xlink:title=" ">
<polygon fill="white" stroke="#666666" points="361.5,-74 311.5,-74 311.5,-55 361.5,-55 361.5,-74"/>
<text text-anchor="middle" x="336.5" y="-62" font-family="Helvetica,sans-Serif" font-size="10.00">global.h</text>
</a>
</g>
</g>
<!-- Node6&#45;&gt;Node17 -->
<g id="edge8" class="edge">
<title>Node6&#45;&gt;Node17</title>
<path fill="none" stroke="#63b8ff" d="M317.01,-181.05C320.36,-161.22 328.46,-113.18 333.09,-85.69"/>
<polygon fill="#63b8ff" stroke="#63b8ff" points="336.54,-86.31 334.75,-75.87 329.64,-85.14 336.54,-86.31"/>
</g>
<!-- Node9 -->
<g id="node10" class="node">
<title>Node9</title>
<g id="a_node10"><a xlink:href="types_8h.html" target="_top" xlink:title=" ">
<polygon fill="#fff0f0" stroke="red" points="529,-19 448,-19 448,0 529,0 529,-19"/>
<text text-anchor="middle" x="488.5" y="-7" font-family="Helvetica,sans-Serif" font-size="10.00">dolphin/types.h</text>
</a>
</g>
</g>
<!-- Node17&#45;&gt;Node9 -->
<g id="edge9" class="edge">
<title>Node17&#45;&gt;Node9</title>
<path fill="none" stroke="#63b8ff" d="M361.94,-54.63C386.64,-46.02 424.37,-32.86 452.21,-23.15"/>
<polygon fill="#63b8ff" stroke="#63b8ff" points="453,-26.58 461.29,-19.99 450.7,-19.97 453,-26.58"/>
</g>
<!-- Node18&#45;&gt;Node9 -->
<g id="edge11" class="edge">
<title>Node18&#45;&gt;Node9</title>
<path fill="none" stroke="#63b8ff" d="M428.63,-115.15C416.23,-101.66 396.51,-75.39 408.5,-55 416.86,-40.78 431.6,-30.77 446.16,-23.9"/>
<polygon fill="#63b8ff" stroke="#63b8ff" points="447.42,-27.17 455.25,-20.03 444.68,-20.73 447.42,-27.17"/>
</g>
<!-- Node19 -->
<g id="node12" class="node">
<title>Node19</title>
<g id="a_node12"><a xlink:href="OS_8h.html" target="_top" xlink:title=" ">
<polygon fill="#fff0f0" stroke="red" points="503.5,-74 417.5,-74 417.5,-55 503.5,-55 503.5,-74"/>
<text text-anchor="middle" x="460.5" y="-62" font-family="Helvetica,sans-Serif" font-size="10.00">dolphin/os/OS.h</text>
</a>
</g>
</g>
<!-- Node18&#45;&gt;Node19 -->
<g id="edge12" class="edge">
<title>Node18&#45;&gt;Node19</title>
<path fill="none" stroke="#63b8ff" d="M440.89,-115.37C444.05,-107.33 448.87,-95.07 452.94,-84.72"/>
<polygon fill="#63b8ff" stroke="#63b8ff" points="456.14,-86.16 456.54,-75.58 449.62,-83.6 456.14,-86.16"/>
</g>
<!-- Node43&#45;&gt;Node6 -->
<g id="edge14" class="edge">
<title>Node43&#45;&gt;Node6</title>
<path fill="none" stroke="#63b8ff" d="M475.01,-241.56C438.98,-230.36 389.57,-215.01 355.34,-204.38"/>
<polygon fill="#63b8ff" stroke="#63b8ff" points="356.38,-201.04 345.79,-201.41 354.31,-207.72 356.38,-201.04"/>
</g>
<!-- Node44 -->
<g id="node14" class="node">
<title>Node44</title>
<g id="a_node14"><a xlink:href="JASGadget_8h.html" target="_top" xlink:title=" ">
<polygon fill="white" stroke="#666666" points="598.5,-200.5 444.5,-200.5 444.5,-181.5 598.5,-181.5 598.5,-200.5"/>
<text text-anchor="middle" x="521.5" y="-188.5" font-family="Helvetica,sans-Serif" font-size="10.00">JSystem/JAudio2/JASGadget.h</text>
</a>
</g>
</g>
<!-- Node43&#45;&gt;Node44 -->
<g id="edge15" class="edge">
<title>Node43&#45;&gt;Node44</title>
<path fill="none" stroke="#63b8ff" d="M521.5,-241.8C521.5,-233.09 521.5,-221.81 521.5,-212.18"/>
<polygon fill="#63b8ff" stroke="#63b8ff" points="525,-212.36 521.5,-202.36 518,-212.36 525,-212.36"/>
</g>
<!-- Node44&#45;&gt;Node18 -->
<g id="edge16" class="edge">
<title>Node44&#45;&gt;Node18</title>
<path fill="none" stroke="#63b8ff" d="M509.82,-181.1C496.4,-170.88 474.15,-153.93 457.87,-141.52"/>
<polygon fill="#63b8ff" stroke="#63b8ff" points="460.36,-139.02 450.28,-135.74 456.12,-144.59 460.36,-139.02"/>
</g>
<!-- Node45 -->
<g id="node15" class="node">
<title>Node45</title>
<g id="a_node15"><a xlink:href="string_8h.html" target="_top" xlink:title=" ">
<polygon fill="#fff0f0" stroke="red" points="576.5,-134.5 528.5,-134.5 528.5,-115.5 576.5,-115.5 576.5,-134.5"/>
<text text-anchor="middle" x="552.5" y="-122.5" font-family="Helvetica,sans-Serif" font-size="10.00">string.h</text>
</a>
</g>
</g>
<!-- Node44&#45;&gt;Node45 -->
<g id="edge17" class="edge">
<title>Node44&#45;&gt;Node45</title>
<path fill="none" stroke="#63b8ff" d="M525.81,-181.1C530.3,-171.84 537.47,-157.04 543.25,-145.11"/>
<polygon fill="#63b8ff" stroke="#63b8ff" points="546.36,-146.71 547.57,-136.19 540.06,-143.66 546.36,-146.71"/>
</g>
<!-- Node48 -->
<g id="node17" class="node">
<title>Node48</title>
<g id="a_node17"><a xlink:href="JSGObject_8h.html" target="_top" xlink:title=" ">
<polygon fill="white" stroke="#666666" points="947,-200.5 800,-200.5 800,-181.5 947,-181.5 947,-200.5"/>
<text text-anchor="middle" x="873.5" y="-188.5" font-family="Helvetica,sans-Serif" font-size="10.00">JSystem/JStage/JSGObject.h</text>
</a>
</g>
</g>
<!-- Node47&#45;&gt;Node48 -->
<g id="edge19" class="edge">
<title>Node47&#45;&gt;Node48</title>
<path fill="none" stroke="#63b8ff" d="M854.56,-247.1C857.71,-237.93 862.73,-223.34 866.8,-211.48"/>
<polygon fill="#63b8ff" stroke="#63b8ff" points="870.03,-212.85 869.97,-202.25 863.41,-210.57 870.03,-212.85"/>
</g>
<!-- Node49 -->
<g id="node18" class="node">
<title>Node49</title>
<g id="a_node18"><a xlink:href="mtxvec_8h.html" target="_top" xlink:title=" ">
<polygon fill="#fff0f0" stroke="red" points="927.5,-134.5 819.5,-134.5 819.5,-115.5 927.5,-115.5 927.5,-134.5"/>
<text text-anchor="middle" x="873.5" y="-122.5" font-family="Helvetica,sans-Serif" font-size="10.00">dolphin/mtx/mtxvec.h</text>
</a>
</g>
</g>
<!-- Node48&#45;&gt;Node49 -->
<g id="edge20" class="edge">
<title>Node48&#45;&gt;Node49</title>
<path fill="none" stroke="#63b8ff" d="M873.5,-181.1C873.5,-172.12 873.5,-157.95 873.5,-146.22"/>
<polygon fill="#63b8ff" stroke="#63b8ff" points="877,-146.34 873.5,-136.34 870,-146.34 877,-146.34"/>
</g>
<!-- Node54 -->
<g id="node20" class="node">
<title>Node54</title>
<g id="a_node20"><a xlink:href="ctb_8h.html" target="_top" xlink:title=" ">
<polygon fill="#fff0f0" stroke="red" points="761,-140 634,-140 634,-110 761,-110 761,-140"/>
<text text-anchor="start" x="642" y="-128" font-family="Helvetica,sans-Serif" font-size="10.00">JSystem/JStudio/JStudio</text>
<text text-anchor="middle" x="697.5" y="-117" font-family="Helvetica,sans-Serif" font-size="10.00">/ctb.h</text>
</a>
</g>
</g>
<!-- Node53&#45;&gt;Node54 -->
<g id="edge22" class="edge">
<title>Node53&#45;&gt;Node54</title>
<path fill="none" stroke="#63b8ff" d="M661.3,-241.59C650.15,-225.38 635.97,-198.39 645.5,-176 650.14,-165.11 658.44,-155.45 667.06,-147.59"/>
<polygon fill="#63b8ff" stroke="#63b8ff" points="669.11,-150.44 674.51,-141.33 664.61,-145.08 669.11,-150.44"/>
</g>
<!-- Node58 -->
<g id="node23" class="node">
<title>Node58</title>
<g id="a_node23"><a xlink:href="jstudio-control_8h.html" target="_top" xlink:title=" ">
<polygon fill="#fff0f0" stroke="red" points="782,-206 655,-206 655,-176 782,-176 782,-206"/>
<text text-anchor="start" x="663" y="-194" font-family="Helvetica,sans-Serif" font-size="10.00">JSystem/JStudio/JStudio</text>
<text text-anchor="middle" x="718.5" y="-183" font-family="Helvetica,sans-Serif" font-size="10.00">/jstudio&#45;control.h</text>
</a>
</g>
</g>
<!-- Node53&#45;&gt;Node58 -->
<g id="edge27" class="edge">
<title>Node53&#45;&gt;Node58</title>
<path fill="none" stroke="#63b8ff" d="M682.71,-241.8C688.31,-234.01 695.39,-224.16 701.77,-215.28"/>
<polygon fill="#63b8ff" stroke="#63b8ff" points="704.44,-217.56 707.44,-207.39 698.76,-213.47 704.44,-217.56"/>
</g>
<!-- Node55 -->
<g id="node21" class="node">
<title>Node55</title>
<g id="a_node21"><a xlink:href="binary_8h.html" target="_top" xlink:title=" ">
<polygon fill="white" stroke="#666666" points="653,-74 522,-74 522,-55 653,-55 653,-74"/>
<text text-anchor="middle" x="587.5" y="-62" font-family="Helvetica,sans-Serif" font-size="10.00">JSystem/JGadget/binary.h</text>
</a>
</g>
</g>
<!-- Node54&#45;&gt;Node55 -->
<g id="edge23" class="edge">
<title>Node54&#45;&gt;Node55</title>
<path fill="none" stroke="#63b8ff" d="M670.31,-109.54C653.13,-100.4 631.05,-88.66 614,-79.6"/>
<polygon fill="#63b8ff" stroke="#63b8ff" points="615.94,-76.66 605.47,-75.06 612.66,-82.84 615.94,-76.66"/>
</g>
<!-- Node56 -->
<g id="node22" class="node">
<title>Node56</title>
<g id="a_node22"><a xlink:href="linklist_8h.html" target="_top" xlink:title=" ">
<polygon fill="white" stroke="#666666" points="804,-74 671,-74 671,-55 804,-55 804,-74"/>
<text text-anchor="middle" x="737.5" y="-62" font-family="Helvetica,sans-Serif" font-size="10.00">JSystem/JGadget/linklist.h</text>
</a>
</g>
</g>
<!-- Node54&#45;&gt;Node56 -->
<g id="edge25" class="edge">
<title>Node54&#45;&gt;Node56</title>
<path fill="none" stroke="#63b8ff" d="M707.39,-109.54C712.78,-101.65 719.51,-91.81 725.24,-83.44"/>
<polygon fill="#63b8ff" stroke="#63b8ff" points="727.96,-85.65 730.71,-75.42 722.18,-81.7 727.96,-85.65"/>
</g>
<!-- Node55&#45;&gt;Node9 -->
<g id="edge24" class="edge">
<title>Node55&#45;&gt;Node9</title>
<path fill="none" stroke="#63b8ff" d="M570.71,-54.51C555.4,-46.31 532.53,-34.07 514.8,-24.58"/>
<polygon fill="#63b8ff" stroke="#63b8ff" points="516.85,-21.71 506.38,-20.07 513.54,-27.88 516.85,-21.71"/>
</g>
<!-- Node56&#45;&gt;Node9 -->
<g id="edge26" class="edge">
<title>Node56&#45;&gt;Node9</title>
<path fill="none" stroke="#63b8ff" d="M695.26,-54.51C652.54,-45.42 586.42,-31.34 540.5,-21.57"/>
<polygon fill="#63b8ff" stroke="#63b8ff" points="541.28,-18.16 530.77,-19.5 539.82,-25 541.28,-18.16"/>
</g>
<!-- Node58&#45;&gt;Node54 -->
<g id="edge28" class="edge">
<title>Node58&#45;&gt;Node54</title>
<path fill="none" stroke="#63b8ff" d="M713.84,-175.8C711.45,-168.5 708.46,-159.41 705.7,-150.99"/>
<polygon fill="#63b8ff" stroke="#63b8ff" points="709.06,-150.01 702.62,-141.6 702.41,-152.19 709.06,-150.01"/>
</g>
</g>
</svg>
