<?xml version="1.0" encoding="UTF-8" standalone="no"?>
<!DOCTYPE svg PUBLIC "-//W3C//DTD SVG 1.1//EN"
 "http://www.w3.org/Graphics/SVG/1.1/DTD/svg11.dtd">
<!-- Generated by graphviz version 7.0.4 (20221203.1631)
 -->
<!-- Title: libs/dolphin/os/OSAudioSystem.c Pages: 1 -->
<svg width="622pt" height="148pt"
 viewBox="0.00 0.00 621.50 148.00" xmlns="http://www.w3.org/2000/svg" xmlns:xlink="http://www.w3.org/1999/xlink">
<g id="graph0" class="graph" transform="scale(1 1) rotate(0) translate(4 144)">
<title>libs/dolphin/os/OSAudioSystem.c</title>
<!-- Node1 -->
<g id="node1" class="node">
<title>Node1</title>
<g id="a_node1"><a xlink:title=" ">
<polygon fill="#999999" stroke="#666666" points="311,-140 150,-140 150,-121 311,-121 311,-140"/>
<text text-anchor="middle" x="230.5" y="-128" font-family="Helvetica,sans-Serif" font-size="10.00">libs/dolphin/os/OSAudioSystem.c</text>
</a>
</g>
</g>
<!-- Node2 -->
<g id="node2" class="node">
<title>Node2</title>
<g id="a_node2"><a xlink:href="OSAudioSystem_8h.html" target="_top" xlink:title=" ">
<polygon fill="white" stroke="#666666" points="143,-79.5 0,-79.5 0,-60.5 143,-60.5 143,-79.5"/>
<text text-anchor="middle" x="71.5" y="-67.5" font-family="Helvetica,sans-Serif" font-size="10.00">dolphin/os/OSAudioSystem.h</text>
</a>
</g>
</g>
<!-- Node1&#45;&gt;Node2 -->
<g id="edge1" class="edge">
<title>Node1&#45;&gt;Node2</title>
<path fill="none" stroke="#63b8ff" d="M206.35,-120.62C179.74,-110.82 136.69,-94.98 106.4,-83.84"/>
<polygon fill="#63b8ff" stroke="#63b8ff" points="107.89,-80.66 97.3,-80.49 105.47,-87.23 107.89,-80.66"/>
</g>
<!-- Node3 -->
<g id="node3" class="node">
<title>Node3</title>
<g id="a_node3"><a xlink:href="types_8h.html" target="_top" xlink:title=" ">
<polygon fill="white" stroke="#666666" points="162,-19 81,-19 81,0 162,0 162,-19"/>
<text text-anchor="middle" x="121.5" y="-7" font-family="Helvetica,sans-Serif" font-size="10.00">dolphin/types.h</text>
</a>
</g>
</g>
<!-- Node1&#45;&gt;Node3 -->
<g id="edge4" class="edge">
<title>Node1&#45;&gt;Node3</title>
<path fill="none" stroke="#63b8ff" d="M222.31,-120.56C204.23,-100.82 160.66,-53.25 137.16,-27.6"/>
<polygon fill="#63b8ff" stroke="#63b8ff" points="139.85,-25.35 130.51,-20.34 134.69,-30.08 139.85,-25.35"/>
</g>
<!-- Node4 -->
<g id="node4" class="node">
<title>Node4</title>
<g id="a_node4"><a xlink:href="dol2asm_8h.html" target="_top" xlink:title=" ">
<polygon fill="white" stroke="#666666" points="261,-79.5 200,-79.5 200,-60.5 261,-60.5 261,-79.5"/>
<text text-anchor="middle" x="230.5" y="-67.5" font-family="Helvetica,sans-Serif" font-size="10.00">dol2asm.h</text>
</a>
</g>
</g>
<!-- Node1&#45;&gt;Node4 -->
<g id="edge3" class="edge">
<title>Node1&#45;&gt;Node4</title>
<path fill="none" stroke="#63b8ff" d="M230.5,-120.87C230.5,-113 230.5,-101.1 230.5,-90.89"/>
<polygon fill="#63b8ff" stroke="#63b8ff" points="234,-91.18 230.5,-81.18 227,-91.18 234,-91.18"/>
</g>
<!-- Node5 -->
<g id="node5" class="node">
<title>Node5</title>
<g id="a_node5"><a xlink:title=" ">
<polygon fill="#e0e0e0" stroke="#999999" points="437.5,-85 279.5,-85 279.5,-55 437.5,-55 437.5,-85"/>
<text text-anchor="start" x="287.5" y="-73" font-family="Helvetica,sans-Serif" font-size="10.00">asm/dolphin/os/OSAudioSystem</text>
<text text-anchor="middle" x="358.5" y="-62" font-family="Helvetica,sans-Serif" font-size="10.00">/__OSInitAudioSystem.s</text>
</a>
</g>
</g>
<!-- Node1&#45;&gt;Node5 -->
<g id="edge5" class="edge">
<title>Node1&#45;&gt;Node5</title>
<path fill="none" stroke="#63b8ff" d="M249.94,-120.62C267.57,-112.56 294.15,-100.41 316.6,-90.15"/>
<polygon fill="#63b8ff" stroke="#63b8ff" points="317.89,-93.41 325.53,-86.07 314.98,-87.04 317.89,-93.41"/>
</g>
<!-- Node6 -->
<g id="node6" class="node">
<title>Node6</title>
<g id="a_node6"><a xlink:title=" ">
<polygon fill="#e0e0e0" stroke="#999999" points="613.5,-85 455.5,-85 455.5,-55 613.5,-55 613.5,-85"/>
<text text-anchor="start" x="463.5" y="-73" font-family="Helvetica,sans-Serif" font-size="10.00">asm/dolphin/os/OSAudioSystem</text>
<text text-anchor="middle" x="534.5" y="-62" font-family="Helvetica,sans-Serif" font-size="10.00">/__OSStopAudioSystem.s</text>
</a>
</g>
</g>
<!-- Node1&#45;&gt;Node6 -->
<g id="edge6" class="edge">
<title>Node1&#45;&gt;Node6</title>
<path fill="none" stroke="#63b8ff" d="M277,-120.55C322.36,-111.82 392.45,-98.33 448.06,-87.63"/>
<polygon fill="#63b8ff" stroke="#63b8ff" points="448.69,-91.08 457.85,-85.75 447.37,-84.2 448.69,-91.08"/>
</g>
<!-- Node2&#45;&gt;Node3 -->
<g id="edge2" class="edge">
<title>Node2&#45;&gt;Node3</title>
<path fill="none" stroke="#63b8ff" d="M78.88,-60.37C86.19,-51.81 97.59,-38.47 106.76,-27.74"/>
<polygon fill="#63b8ff" stroke="#63b8ff" points="109.27,-30.19 113.11,-20.32 103.95,-25.65 109.27,-30.19"/>
</g>
</g>
</svg>
