<?xml version="1.0" encoding="UTF-8" standalone="no"?>
<!DOCTYPE svg PUBLIC "-//W3C//DTD SVG 1.1//EN"
 "http://www.w3.org/Graphics/SVG/1.1/DTD/svg11.dtd">
<!-- Generated by graphviz version 7.0.5 (20221223.1930)
 -->
<!-- Title: libs/dolphin/os/OSAudioSystem.c Pages: 1 -->
<!--zoomable 379 -->
<svg id="main" version="1.1" xmlns="http://www.w3.org/2000/svg" xmlns:xlink="http://www.w3.org/1999/xlink" xml:space="preserve" onload="init(evt)">
<style type="text/css"><![CDATA[
.edge:hover path { stroke: red; }
.edge:hover polygon { stroke: red; fill: red; }
]]></style>
<script type="text/javascript"><![CDATA[
var edges = document.getElementsByTagName('g');
if (edges && edges.length) {
  for (var i=0;i<edges.length;i++) {
    if (edges[i].id.substr(0,4)=='edge') {
      edges[i].setAttribute('class','edge');
    }
  }
}
]]></script>
        <defs>
                <circle id="rim" cx="0" cy="0" r="7"/>
                <circle id="rim2" cx="0" cy="0" r="3.5"/>
                <g id="zoomPlus">
                        <use xlink:href="#rim" fill="#404040">
                                <set attributeName="fill" to="#808080" begin="zoomplus.mouseover" end="zoomplus.mouseout"/>
                        </use>
                        <path d="M-4,0h8M0,-4v8" fill="none" stroke="white" stroke-width="1.5" pointer-events="none"/>
                </g>
                <g id="zoomMin">
                        <use xlink:href="#rim" fill="#404040">
                                <set attributeName="fill" to="#808080" begin="zoomminus.mouseover" end="zoomminus.mouseout"/>
                        </use>
                        <path d="M-4,0h8" fill="none" stroke="white" stroke-width="1.5" pointer-events="none"/>
                </g>
                <g id="dirArrow">
                        <path fill="none" stroke="white" stroke-width="1.5" d="M0,-3.0v7 M-2.5,-0.5L0,-3.0L2.5,-0.5"/>
                </g>
               <g id="resetDef">
                       <use xlink:href="#rim2" fill="#404040">
                               <set attributeName="fill" to="#808080" begin="reset.mouseover" end="reset.mouseout"/>
                       </use>
               </g>
        </defs>

<script type="text/javascript">
var viewWidth = 1863;
var viewHeight = 379;
var sectionId = 'dynsection-0';
</script>
<script xlink:href="svgpan.js"/>
<svg id="graph" class="graph">
<g id="viewport">
<title>libs/dolphin/os/OSAudioSystem.c</title>
<!-- Node1 -->
<g id="node1" class="node">
<title>Node1</title>
<g id="a_node1"><a xlink:title=" ">
<polygon fill="#999999" stroke="#666666" points="1003,-371 842,-371 842,-352 1003,-352 1003,-371"/>
<text text-anchor="middle" x="922.5" y="-359" font-family="Helvetica,sans-Serif" font-size="10.00">libs/dolphin/os/OSAudioSystem.c</text>
</a>
</g>
</g>
<!-- Node2 -->
<g id="node2" class="node">
<title>Node2</title>
<g id="a_node2"><a xlink:href="OSAudioSystem_8h.html" target="_top" xlink:title=" ">
<polygon fill="white" stroke="#666666" points="143,-195 0,-195 0,-176 143,-176 143,-195"/>
<text text-anchor="middle" x="71.5" y="-183" font-family="Helvetica,sans-Serif" font-size="10.00">dolphin/os/OSAudioSystem.h</text>
</a>
</g>
</g>
<!-- Node1&#45;&gt;Node2 -->
<g id="edge1" class="edge">
<title>Node1&#45;&gt;Node2</title>
<path fill="none" stroke="#63b8ff" d="M878.54,-351.51C735.53,-322.27 283.74,-229.9 126.27,-197.7"/>
<polygon fill="#63b8ff" stroke="#63b8ff" points="127.43,-194.36 116.94,-195.79 126.03,-201.22 127.43,-194.36"/>
</g>
<!-- Node4 -->
<g id="node4" class="node">
<title>Node4</title>
<g id="a_node4"><a xlink:href="dol2asm_8h.html" target="_top" xlink:title=" ">
<polygon fill="white" stroke="#666666" points="1048,-310.5 987,-310.5 987,-291.5 1048,-291.5 1048,-310.5"/>
<text text-anchor="middle" x="1017.5" y="-298.5" font-family="Helvetica,sans-Serif" font-size="10.00">dol2asm.h</text>
</a>
</g>
</g>
<!-- Node1&#45;&gt;Node4 -->
<g id="edge3" class="edge">
<title>Node1&#45;&gt;Node4</title>
<path fill="none" stroke="#63b8ff" d="M936.93,-351.62C951.85,-342.42 975.43,-327.91 993.23,-316.94"/>
<polygon fill="#63b8ff" stroke="#63b8ff" points="994.97,-319.99 1001.65,-311.76 991.3,-314.03 994.97,-319.99"/>
</g>
<!-- Node5 -->
<g id="node5" class="node">
<title>Node5</title>
<g id="a_node5"><a xlink:href="dsp_8h.html" target="_top" xlink:title=" ">
<polygon fill="white" stroke="#666666" points="968.5,-310.5 876.5,-310.5 876.5,-291.5 968.5,-291.5 968.5,-310.5"/>
<text text-anchor="middle" x="922.5" y="-298.5" font-family="Helvetica,sans-Serif" font-size="10.00">dolphin/dsp/dsp.h</text>
</a>
</g>
</g>
<!-- Node1&#45;&gt;Node5 -->
<g id="edge4" class="edge">
<title>Node1&#45;&gt;Node5</title>
<path fill="none" stroke="#63b8ff" d="M922.5,-351.87C922.5,-344 922.5,-332.1 922.5,-321.89"/>
<polygon fill="#63b8ff" stroke="#63b8ff" points="926,-322.18 922.5,-312.18 919,-322.18 926,-322.18"/>
</g>
<!-- Node6 -->
<g id="node6" class="node">
<title>Node6</title>
<g id="a_node6"><a xlink:href="OS_8h.html" target="_top" xlink:title=" ">
<polygon fill="white" stroke="#666666" points="965.5,-250 879.5,-250 879.5,-231 965.5,-231 965.5,-250"/>
<text text-anchor="middle" x="922.5" y="-238" font-family="Helvetica,sans-Serif" font-size="10.00">dolphin/os/OS.h</text>
</a>
</g>
</g>
<!-- Node1&#45;&gt;Node6 -->
<g id="edge53" class="edge">
<title>Node1&#45;&gt;Node6</title>
<path fill="none" stroke="#63b8ff" d="M904.5,-351.57C891.57,-344.05 875.12,-331.96 867.5,-316 861.76,-303.97 861.76,-298.03 867.5,-286 873.33,-273.78 884.34,-263.83 894.99,-256.46"/>
<polygon fill="#63b8ff" stroke="#63b8ff" points="896.65,-259.55 903.23,-251.24 892.9,-253.64 896.65,-259.55"/>
</g>
<!-- Node29 -->
<g id="node29" class="node">
<title>Node29</title>
<g id="a_node29"><a xlink:title=" ">
<polygon fill="#e0e0e0" stroke="#999999" points="1224.5,-316 1066.5,-316 1066.5,-286 1224.5,-286 1224.5,-316"/>
<text text-anchor="start" x="1074.5" y="-304" font-family="Helvetica,sans-Serif" font-size="10.00">asm/dolphin/os/OSAudioSystem</text>
<text text-anchor="middle" x="1145.5" y="-293" font-family="Helvetica,sans-Serif" font-size="10.00">/__OSStopAudioSystem.s</text>
</a>
</g>
</g>
<!-- Node1&#45;&gt;Node29 -->
<g id="edge54" class="edge">
<title>Node1&#45;&gt;Node29</title>
<path fill="none" stroke="#63b8ff" d="M956.37,-351.62C988.89,-343.08 1038.9,-329.96 1079.33,-319.36"/>
<polygon fill="#63b8ff" stroke="#63b8ff" points="1080.21,-322.75 1088.99,-316.82 1078.43,-315.98 1080.21,-322.75"/>
</g>
<!-- Node3 -->
<g id="node3" class="node">
<title>Node3</title>
<g id="a_node3"><a xlink:href="types_8h.html" target="_top" xlink:title=" ">
<polygon fill="white" stroke="#666666" points="1139,-19 1058,-19 1058,0 1139,0 1139,-19"/>
<text text-anchor="middle" x="1098.5" y="-7" font-family="Helvetica,sans-Serif" font-size="10.00">dolphin/types.h</text>
</a>
</g>
</g>
<!-- Node2&#45;&gt;Node3 -->
<g id="edge2" class="edge">
<title>Node2&#45;&gt;Node3</title>
<path fill="none" stroke="#63b8ff" d="M74.37,-175.84C79.27,-162.29 90.52,-136.09 108.5,-121 173.45,-66.49 204.47,-72.18 287.5,-55 433.5,-24.79 891.64,-14.13 1046.65,-11.33"/>
<polygon fill="#63b8ff" stroke="#63b8ff" points="1046.26,-14.84 1056.19,-11.16 1046.13,-7.84 1046.26,-14.84"/>
</g>
<!-- Node5&#45;&gt;Node6 -->
<g id="edge5" class="edge">
<title>Node5&#45;&gt;Node6</title>
<path fill="none" stroke="#63b8ff" d="M922.5,-291.37C922.5,-283.5 922.5,-271.6 922.5,-261.39"/>
<polygon fill="#63b8ff" stroke="#63b8ff" points="926,-261.68 922.5,-251.68 919,-261.68 926,-261.68"/>
</g>
<!-- Node6&#45;&gt;Node2 -->
<g id="edge20" class="edge">
<title>Node6&#45;&gt;Node2</title>
<path fill="none" stroke="#63b8ff" d="M879.32,-237.6C762.77,-232.34 432.04,-216.54 157.5,-195 156.49,-194.92 155.46,-194.84 154.44,-194.76"/>
<polygon fill="#63b8ff" stroke="#63b8ff" points="155.04,-191.29 144.78,-193.94 154.45,-198.27 155.04,-191.29"/>
</g>
<!-- Node7 -->
<g id="node7" class="node">
<title>Node7</title>
<g id="a_node7"><a xlink:href="____va__arg_8h.html" target="_top" xlink:title=" ">
<polygon fill="white" stroke="#666666" points="1744.5,-85 1634.5,-85 1634.5,-55 1744.5,-55 1744.5,-85"/>
<text text-anchor="start" x="1642.5" y="-73" font-family="Helvetica,sans-Serif" font-size="10.00">Runtime.PPCEABI.H/</text>
<text text-anchor="middle" x="1689.5" y="-62" font-family="Helvetica,sans-Serif" font-size="10.00">__va_arg.h</text>
</a>
</g>
</g>
<!-- Node6&#45;&gt;Node7 -->
<g id="edge6" class="edge">
<title>Node6&#45;&gt;Node7</title>
<path fill="none" stroke="#63b8ff" d="M965.71,-238.63C1079.85,-235.92 1387.21,-225.9 1483.5,-195 1554.22,-172.31 1626.14,-121.26 1663.44,-92.24"/>
<polygon fill="#63b8ff" stroke="#63b8ff" points="1665.28,-95.24 1670.96,-86.3 1660.94,-89.74 1665.28,-95.24"/>
</g>
<!-- Node8 -->
<g id="node8" class="node">
<title>Node8</title>
<g id="a_node8"><a xlink:href="dvd_8h.html" target="_top" xlink:title=" ">
<polygon fill="white" stroke="#666666" points="1854.5,-79.5 1762.5,-79.5 1762.5,-60.5 1854.5,-60.5 1854.5,-79.5"/>
<text text-anchor="middle" x="1808.5" y="-67.5" font-family="Helvetica,sans-Serif" font-size="10.00">dolphin/dvd/dvd.h</text>
</a>
</g>
</g>
<!-- Node6&#45;&gt;Node8 -->
<g id="edge8" class="edge">
<title>Node6&#45;&gt;Node8</title>
<path fill="none" stroke="#63b8ff" d="M965.59,-238.12C1084.16,-234.03 1413.41,-220.64 1518.5,-195 1621.09,-169.97 1733.69,-112.28 1782.99,-85.35"/>
<polygon fill="#63b8ff" stroke="#63b8ff" points="1784.41,-88.56 1791.47,-80.67 1781.02,-82.43 1784.41,-88.56"/>
</g>
<!-- Node9 -->
<g id="node9" class="node">
<title>Node9</title>
<g id="a_node9"><a xlink:href="OSAlarm_8h.html" target="_top" xlink:title=" ">
<polygon fill="white" stroke="#666666" points="311,-195 200,-195 200,-176 311,-176 311,-195"/>
<text text-anchor="middle" x="255.5" y="-183" font-family="Helvetica,sans-Serif" font-size="10.00">dolphin/os/OSAlarm.h</text>
</a>
</g>
</g>
<!-- Node6&#45;&gt;Node9 -->
<g id="edge10" class="edge">
<title>Node6&#45;&gt;Node9</title>
<path fill="none" stroke="#63b8ff" d="M879.36,-236.97C781.01,-231.06 532.64,-215.28 325.5,-195 324.49,-194.9 323.47,-194.8 322.44,-194.7"/>
<polygon fill="#63b8ff" stroke="#63b8ff" points="323.08,-191.24 312.76,-193.67 322.34,-198.2 323.08,-191.24"/>
</g>
<!-- Node10 -->
<g id="node10" class="node">
<title>Node10</title>
<g id="a_node10"><a xlink:href="OSTime_8h.html" target="_top" xlink:title=" ">
<polygon fill="white" stroke="#666666" points="225,-140 118,-140 118,-121 225,-121 225,-140"/>
<text text-anchor="middle" x="171.5" y="-128" font-family="Helvetica,sans-Serif" font-size="10.00">dolphin/os/OSTime.h</text>
</a>
</g>
</g>
<!-- Node6&#45;&gt;Node10 -->
<g id="edge52" class="edge">
<title>Node6&#45;&gt;Node10</title>
<path fill="none" stroke="#63b8ff" d="M879.12,-238.23C725.87,-233.55 217.59,-216.48 190.5,-195 177.53,-184.72 173.14,-165.94 171.78,-151.46"/>
<polygon fill="#63b8ff" stroke="#63b8ff" points="175.28,-151.49 171.3,-141.68 168.29,-151.84 175.28,-151.49"/>
</g>
<!-- Node11 -->
<g id="node11" class="node">
<title>Node11</title>
<g id="a_node11"><a xlink:href="OSError_8h.html" target="_top" xlink:title=" ">
<polygon fill="white" stroke="#666666" points="349.5,-140 243.5,-140 243.5,-121 349.5,-121 349.5,-140"/>
<text text-anchor="middle" x="296.5" y="-128" font-family="Helvetica,sans-Serif" font-size="10.00">dolphin/os/OSError.h</text>
</a>
</g>
</g>
<!-- Node6&#45;&gt;Node11 -->
<g id="edge24" class="edge">
<title>Node6&#45;&gt;Node11</title>
<path fill="none" stroke="#63b8ff" d="M879.02,-239.74C764.22,-239.79 455.55,-236 363.5,-195 341.16,-185.05 321.65,-164.4 309.53,-149.35"/>
<polygon fill="#63b8ff" stroke="#63b8ff" points="312.47,-147.43 303.6,-141.63 306.92,-151.69 312.47,-147.43"/>
</g>
<!-- Node12 -->
<g id="node12" class="node">
<title>Node12</title>
<g id="a_node12"><a xlink:href="OSContext_8h.html" target="_top" xlink:title=" ">
<polygon fill="white" stroke="#666666" points="526,-79.5 407,-79.5 407,-60.5 526,-60.5 526,-79.5"/>
<text text-anchor="middle" x="466.5" y="-67.5" font-family="Helvetica,sans-Serif" font-size="10.00">dolphin/os/OSContext.h</text>
</a>
</g>
</g>
<!-- Node6&#45;&gt;Node12 -->
<g id="edge23" class="edge">
<title>Node6&#45;&gt;Node12</title>
<path fill="none" stroke="#63b8ff" d="M879.36,-237.98C765.47,-233.64 462.86,-219.88 425.5,-195 396.1,-175.42 380.34,-152.41 396.5,-121 404.58,-105.29 420.14,-93.42 434.54,-85.2"/>
<polygon fill="#63b8ff" stroke="#63b8ff" points="436.14,-88.32 443.36,-80.56 432.88,-82.12 436.14,-88.32"/>
</g>
<!-- Node13 -->
<g id="node13" class="node">
<title>Node13</title>
<g id="a_node13"><a xlink:href="OSAlloc_8h.html" target="_top" xlink:title=" ">
<polygon fill="white" stroke="#666666" points="825,-140 718,-140 718,-121 825,-121 825,-140"/>
<text text-anchor="middle" x="771.5" y="-128" font-family="Helvetica,sans-Serif" font-size="10.00">dolphin/os/OSAlloc.h</text>
</a>
</g>
</g>
<!-- Node6&#45;&gt;Node13 -->
<g id="edge16" class="edge">
<title>Node6&#45;&gt;Node13</title>
<path fill="none" stroke="#63b8ff" d="M919.45,-230.88C914.27,-217.4 902.53,-191.29 884.5,-176 866.85,-161.03 843.56,-150.72 822.71,-143.82"/>
<polygon fill="#63b8ff" stroke="#63b8ff" points="823.79,-140.49 813.2,-140.87 821.71,-147.17 823.79,-140.49"/>
</g>
<!-- Node14 -->
<g id="node14" class="node">
<title>Node14</title>
<g id="a_node14"><a xlink:href="OSArena_8h.html" target="_top" xlink:title=" ">
<polygon fill="white" stroke="#666666" points="906,-79.5 795,-79.5 795,-60.5 906,-60.5 906,-79.5"/>
<text text-anchor="middle" x="850.5" y="-67.5" font-family="Helvetica,sans-Serif" font-size="10.00">dolphin/os/OSArena.h</text>
</a>
</g>
</g>
<!-- Node6&#45;&gt;Node14 -->
<g id="edge18" class="edge">
<title>Node6&#45;&gt;Node14</title>
<path fill="none" stroke="#63b8ff" d="M921.51,-230.8C919.77,-218.09 915.38,-194.01 905.5,-176 895.06,-156.97 883.38,-158.78 872.5,-140 863.53,-124.52 857.73,-104.93 854.35,-90.58"/>
<polygon fill="#63b8ff" stroke="#63b8ff" points="857.83,-90.08 852.31,-81.03 850.98,-91.55 857.83,-90.08"/>
</g>
<!-- Node15 -->
<g id="node15" class="node">
<title>Node15</title>
<g id="a_node15"><a xlink:href="OSCache_8h.html" target="_top" xlink:title=" ">
<polygon fill="white" stroke="#666666" points="995,-140 882,-140 882,-121 995,-121 995,-140"/>
<text text-anchor="middle" x="938.5" y="-128" font-family="Helvetica,sans-Serif" font-size="10.00">dolphin/os/OSCache.h</text>
</a>
</g>
</g>
<!-- Node6&#45;&gt;Node15 -->
<g id="edge21" class="edge">
<title>Node6&#45;&gt;Node15</title>
<path fill="none" stroke="#63b8ff" d="M931.83,-230.63C939.86,-222.31 950.85,-209.06 955.5,-195 960.43,-180.08 955.14,-162.84 949.2,-150.1"/>
<polygon fill="#63b8ff" stroke="#63b8ff" points="952.47,-148.81 944.75,-141.56 946.27,-152.05 952.47,-148.81"/>
</g>
<!-- Node16 -->
<g id="node16" class="node">
<title>Node16</title>
<g id="a_node16"><a xlink:href="OSExec_8h.html" target="_top" xlink:title=" ">
<polygon fill="white" stroke="#666666" points="1070,-79.5 963,-79.5 963,-60.5 1070,-60.5 1070,-79.5"/>
<text text-anchor="middle" x="1016.5" y="-67.5" font-family="Helvetica,sans-Serif" font-size="10.00">dolphin/os/OSExec.h</text>
</a>
</g>
</g>
<!-- Node6&#45;&gt;Node16 -->
<g id="edge25" class="edge">
<title>Node6&#45;&gt;Node16</title>
<path fill="none" stroke="#63b8ff" d="M933.31,-230.62C943.33,-222.09 958.35,-208.52 969.5,-195 987.94,-172.65 994.04,-167.02 1004.5,-140 1010.62,-124.2 1013.63,-105.16 1015.11,-91.08"/>
<polygon fill="#63b8ff" stroke="#63b8ff" points="1018.58,-91.56 1015.95,-81.3 1011.6,-90.96 1018.58,-91.56"/>
</g>
<!-- Node17 -->
<g id="node17" class="node">
<title>Node17</title>
<g id="a_node17"><a xlink:href="OSFont_8h.html" target="_top" xlink:title=" ">
<polygon fill="white" stroke="#666666" points="1157,-140 1052,-140 1052,-121 1157,-121 1157,-140"/>
<text text-anchor="middle" x="1104.5" y="-128" font-family="Helvetica,sans-Serif" font-size="10.00">dolphin/os/OSFont.h</text>
</a>
</g>
</g>
<!-- Node6&#45;&gt;Node17 -->
<g id="edge27" class="edge">
<title>Node6&#45;&gt;Node17</title>
<path fill="none" stroke="#63b8ff" d="M955.32,-230.55C979.23,-223.16 1011.81,-211.25 1037.5,-195 1057.72,-182.21 1077.15,-162.74 1089.82,-148.73"/>
<polygon fill="#63b8ff" stroke="#63b8ff" points="1092.14,-151.4 1096.12,-141.58 1086.89,-146.77 1092.14,-151.4"/>
</g>
<!-- Node18 -->
<g id="node18" class="node">
<title>Node18</title>
<g id="a_node18"><a xlink:href="OSInterrupt_8h.html" target="_top" xlink:title=" ">
<polygon fill="white" stroke="#666666" points="527.5,-140 405.5,-140 405.5,-121 527.5,-121 527.5,-140"/>
<text text-anchor="middle" x="466.5" y="-128" font-family="Helvetica,sans-Serif" font-size="10.00">dolphin/os/OSInterrupt.h</text>
</a>
</g>
</g>
<!-- Node6&#45;&gt;Node18 -->
<g id="edge29" class="edge">
<title>Node6&#45;&gt;Node18</title>
<path fill="none" stroke="#63b8ff" d="M879.38,-238.81C765.66,-236.56 464.22,-227.55 434.5,-195 421.95,-181.26 435.27,-161.69 448.35,-147.91"/>
<polygon fill="#63b8ff" stroke="#63b8ff" points="450.46,-150.75 455.15,-141.25 445.56,-145.75 450.46,-150.75"/>
</g>
<!-- Node19 -->
<g id="node19" class="node">
<title>Node19</title>
<g id="a_node19"><a xlink:href="OSLink_8h.html" target="_top" xlink:title=" ">
<polygon fill="white" stroke="#666666" points="1230.5,-79.5 1126.5,-79.5 1126.5,-60.5 1230.5,-60.5 1230.5,-79.5"/>
<text text-anchor="middle" x="1178.5" y="-67.5" font-family="Helvetica,sans-Serif" font-size="10.00">dolphin/os/OSLink.h</text>
</a>
</g>
</g>
<!-- Node6&#45;&gt;Node19 -->
<g id="edge31" class="edge">
<title>Node6&#45;&gt;Node19</title>
<path fill="none" stroke="#63b8ff" d="M955.8,-230.63C1016.38,-213.76 1140.76,-175.58 1166.5,-140 1176.75,-125.83 1179.27,-105.79 1179.51,-90.96"/>
<polygon fill="#63b8ff" stroke="#63b8ff" points="1183.01,-90.98 1179.3,-81.06 1176.01,-91.13 1183.01,-90.98"/>
</g>
<!-- Node20 -->
<g id="node20" class="node">
<title>Node20</title>
<g id="a_node20"><a xlink:href="OSMemory_8h.html" target="_top" xlink:title=" ">
<polygon fill="white" stroke="#666666" points="563.5,-195 443.5,-195 443.5,-176 563.5,-176 563.5,-195"/>
<text text-anchor="middle" x="503.5" y="-183" font-family="Helvetica,sans-Serif" font-size="10.00">dolphin/os/OSMemory.h</text>
</a>
</g>
</g>
<!-- Node6&#45;&gt;Node20 -->
<g id="edge33" class="edge">
<title>Node6&#45;&gt;Node20</title>
<path fill="none" stroke="#63b8ff" d="M879.24,-234.03C807.4,-224.94 662.78,-206.65 575.41,-195.6"/>
<polygon fill="#63b8ff" stroke="#63b8ff" points="575.86,-192.12 565.5,-194.34 574.98,-199.07 575.86,-192.12"/>
</g>
<!-- Node21 -->
<g id="node21" class="node">
<title>Node21</title>
<g id="a_node21"><a xlink:href="OSMessage_8h.html" target="_top" xlink:title=" ">
<polygon fill="white" stroke="#666666" points="745,-195 620,-195 620,-176 745,-176 745,-195"/>
<text text-anchor="middle" x="682.5" y="-183" font-family="Helvetica,sans-Serif" font-size="10.00">dolphin/os/OSMessage.h</text>
</a>
</g>
</g>
<!-- Node6&#45;&gt;Node21 -->
<g id="edge36" class="edge">
<title>Node6&#45;&gt;Node21</title>
<path fill="none" stroke="#63b8ff" d="M881.79,-230.51C841.07,-221.52 778.29,-207.65 734.1,-197.9"/>
<polygon fill="#63b8ff" stroke="#63b8ff" points="735.01,-194.51 724.49,-195.77 733.5,-201.35 735.01,-194.51"/>
</g>
<!-- Node22 -->
<g id="node22" class="node">
<title>Node22</title>
<g id="a_node22"><a xlink:href="OSThread_8h.html" target="_top" xlink:title=" ">
<polygon fill="white" stroke="#666666" points="699.5,-140 583.5,-140 583.5,-121 699.5,-121 699.5,-140"/>
<text text-anchor="middle" x="641.5" y="-128" font-family="Helvetica,sans-Serif" font-size="10.00">dolphin/os/OSThread.h</text>
</a>
</g>
</g>
<!-- Node6&#45;&gt;Node22 -->
<g id="edge51" class="edge">
<title>Node6&#45;&gt;Node22</title>
<path fill="none" stroke="#63b8ff" d="M879.3,-239.98C801.98,-239.83 644.79,-234.52 610.5,-195 598.5,-181.16 611.04,-161.87 623.58,-148.19"/>
<polygon fill="#63b8ff" stroke="#63b8ff" points="625.95,-150.77 630.49,-141.2 620.97,-145.84 625.95,-150.77"/>
</g>
<!-- Node23 -->
<g id="node23" class="node">
<title>Node23</title>
<g id="a_node23"><a xlink:href="OSMutex_8h.html" target="_top" xlink:title=" ">
<polygon fill="white" stroke="#666666" points="875.5,-195 763.5,-195 763.5,-176 875.5,-176 875.5,-195"/>
<text text-anchor="middle" x="819.5" y="-183" font-family="Helvetica,sans-Serif" font-size="10.00">dolphin/os/OSMutex.h</text>
</a>
</g>
</g>
<!-- Node6&#45;&gt;Node23 -->
<g id="edge39" class="edge">
<title>Node6&#45;&gt;Node23</title>
<path fill="none" stroke="#63b8ff" d="M905.03,-230.51C889.1,-222.31 865.31,-210.07 846.86,-200.58"/>
<polygon fill="#63b8ff" stroke="#63b8ff" points="848.55,-197.51 838.06,-196.05 845.35,-203.74 848.55,-197.51"/>
</g>
<!-- Node24 -->
<g id="node24" class="node">
<title>Node24</title>
<g id="a_node24"><a xlink:href="OSReboot_8h.html" target="_top" xlink:title=" ">
<polygon fill="white" stroke="#666666" points="1243.5,-195 1127.5,-195 1127.5,-176 1243.5,-176 1243.5,-195"/>
<text text-anchor="middle" x="1185.5" y="-183" font-family="Helvetica,sans-Serif" font-size="10.00">dolphin/os/OSReboot.h</text>
</a>
</g>
</g>
<!-- Node6&#45;&gt;Node24 -->
<g id="edge41" class="edge">
<title>Node6&#45;&gt;Node24</title>
<path fill="none" stroke="#63b8ff" d="M965.93,-230.75C1010.87,-221.69 1081.2,-207.52 1130.11,-197.66"/>
<polygon fill="#63b8ff" stroke="#63b8ff" points="1130.53,-201.15 1139.64,-195.74 1129.15,-194.29 1130.53,-201.15"/>
</g>
<!-- Node25 -->
<g id="node25" class="node">
<title>Node25</title>
<g id="a_node25"><a xlink:href="OSReset_8h.html" target="_top" xlink:title=" ">
<polygon fill="white" stroke="#666666" points="1373,-195 1262,-195 1262,-176 1373,-176 1373,-195"/>
<text text-anchor="middle" x="1317.5" y="-183" font-family="Helvetica,sans-Serif" font-size="10.00">dolphin/os/OSReset.h</text>
</a>
</g>
</g>
<!-- Node6&#45;&gt;Node25 -->
<g id="edge43" class="edge">
<title>Node6&#45;&gt;Node25</title>
<path fill="none" stroke="#63b8ff" d="M965.9,-233.68C1034.71,-224.44 1169.35,-206.38 1250.58,-195.48"/>
<polygon fill="#63b8ff" stroke="#63b8ff" points="1250.73,-198.99 1260.18,-194.19 1249.8,-192.05 1250.73,-198.99"/>
</g>
<!-- Node26 -->
<g id="node26" class="node">
<title>Node26</title>
<g id="a_node26"><a xlink:href="OSResetSW_8h.html" target="_top" xlink:title=" ">
<polygon fill="white" stroke="#666666" points="1452,-79.5 1325,-79.5 1325,-60.5 1452,-60.5 1452,-79.5"/>
<text text-anchor="middle" x="1388.5" y="-67.5" font-family="Helvetica,sans-Serif" font-size="10.00">dolphin/os/OSResetSW.h</text>
</a>
</g>
</g>
<!-- Node6&#45;&gt;Node26 -->
<g id="edge45" class="edge">
<title>Node6&#45;&gt;Node26</title>
<path fill="none" stroke="#63b8ff" d="M965.82,-238.47C1074.86,-235.45 1354.06,-224.84 1382.5,-195 1408.93,-167.26 1401.55,-118.25 1394.57,-90.89"/>
<polygon fill="#63b8ff" stroke="#63b8ff" points="1397.99,-90.13 1391.92,-81.45 1391.25,-92.03 1397.99,-90.13"/>
</g>
<!-- Node27 -->
<g id="node27" class="node">
<title>Node27</title>
<g id="a_node27"><a xlink:href="OSRtc_8h.html" target="_top" xlink:title=" ">
<polygon fill="white" stroke="#666666" points="1531,-140 1430,-140 1430,-121 1531,-121 1531,-140"/>
<text text-anchor="middle" x="1480.5" y="-128" font-family="Helvetica,sans-Serif" font-size="10.00">dolphin/os/OSRtc.h</text>
</a>
</g>
</g>
<!-- Node6&#45;&gt;Node27 -->
<g id="edge47" class="edge">
<title>Node6&#45;&gt;Node27</title>
<path fill="none" stroke="#63b8ff" d="M965.79,-239.28C1070.75,-238.15 1335.99,-231.65 1415.5,-195 1437.36,-184.92 1456.25,-164.3 1467.95,-149.28"/>
<polygon fill="#63b8ff" stroke="#63b8ff" points="1470.5,-151.72 1473.65,-141.61 1464.88,-147.55 1470.5,-151.72"/>
</g>
<!-- Node28 -->
<g id="node28" class="node">
<title>Node28</title>
<g id="a_node28"><a xlink:href="OSSync_8h.html" target="_top" xlink:title=" ">
<polygon fill="white" stroke="#666666" points="1616,-79.5 1509,-79.5 1509,-60.5 1616,-60.5 1616,-79.5"/>
<text text-anchor="middle" x="1562.5" y="-67.5" font-family="Helvetica,sans-Serif" font-size="10.00">dolphin/os/OSSync.h</text>
</a>
</g>
</g>
<!-- Node6&#45;&gt;Node28 -->
<g id="edge49" class="edge">
<title>Node6&#45;&gt;Node28</title>
<path fill="none" stroke="#63b8ff" d="M965.62,-238.16C1073.68,-234.41 1353.73,-222.3 1442.5,-195 1490.24,-180.32 1508.94,-178.71 1540.5,-140 1552.05,-125.84 1557.57,-105.52 1560.19,-90.6"/>
<polygon fill="#63b8ff" stroke="#63b8ff" points="1563.6,-91.49 1561.56,-81.09 1556.67,-90.49 1563.6,-91.49"/>
</g>
<!-- Node7&#45;&gt;Node3 -->
<g id="edge7" class="edge">
<title>Node7&#45;&gt;Node3</title>
<path fill="none" stroke="#63b8ff" d="M1634.08,-56.41C1631.18,-55.9 1628.31,-55.42 1625.5,-55 1452.71,-28.92 1245.58,-17.02 1150.66,-12.64"/>
<polygon fill="#63b8ff" stroke="#63b8ff" points="1151.04,-9.15 1140.89,-12.19 1150.72,-16.14 1151.04,-9.15"/>
</g>
<!-- Node8&#45;&gt;Node3 -->
<g id="edge9" class="edge">
<title>Node8&#45;&gt;Node3</title>
<path fill="none" stroke="#63b8ff" d="M1777.29,-60.01C1769.57,-58.08 1761.28,-56.24 1753.5,-55 1531.21,-19.46 1262.03,-12.27 1150.64,-10.84"/>
<polygon fill="#63b8ff" stroke="#63b8ff" points="1150.97,-7.35 1140.93,-10.73 1150.89,-14.34 1150.97,-7.35"/>
</g>
<!-- Node9&#45;&gt;Node10 -->
<g id="edge11" class="edge">
<title>Node9&#45;&gt;Node10</title>
<path fill="none" stroke="#63b8ff" d="M241.25,-175.51C228.62,-167.54 209.94,-155.75 195.09,-146.38"/>
<polygon fill="#63b8ff" stroke="#63b8ff" points="197.14,-143.54 186.82,-141.17 193.41,-149.46 197.14,-143.54"/>
</g>
<!-- Node9&#45;&gt;Node11 -->
<g id="edge13" class="edge">
<title>Node9&#45;&gt;Node11</title>
<path fill="none" stroke="#63b8ff" d="M262.27,-175.75C267.82,-168.58 275.84,-158.2 282.73,-149.3"/>
<polygon fill="#63b8ff" stroke="#63b8ff" points="285.31,-151.69 288.66,-141.64 279.77,-147.41 285.31,-151.69"/>
</g>
<!-- Node10&#45;&gt;Node3 -->
<g id="edge12" class="edge">
<title>Node10&#45;&gt;Node3</title>
<path fill="none" stroke="#63b8ff" d="M192.52,-120.55C231.89,-104.25 319.82,-70.01 397.5,-55 521.82,-30.97 905.71,-16.65 1046.26,-12.09"/>
<polygon fill="#63b8ff" stroke="#63b8ff" points="1046.13,-15.6 1056.01,-11.78 1045.9,-8.6 1046.13,-15.6"/>
</g>
<!-- Node11&#45;&gt;Node12 -->
<g id="edge14" class="edge">
<title>Node11&#45;&gt;Node12</title>
<path fill="none" stroke="#63b8ff" d="M322.32,-120.62C350.9,-110.78 397.21,-94.84 429.61,-83.69"/>
<polygon fill="#63b8ff" stroke="#63b8ff" points="430.69,-87.02 439.01,-80.46 428.41,-80.41 430.69,-87.02"/>
</g>
<!-- Node12&#45;&gt;Node3 -->
<g id="edge15" class="edge">
<title>Node12&#45;&gt;Node3</title>
<path fill="none" stroke="#63b8ff" d="M510.4,-60.01C520.58,-58.15 531.39,-56.34 541.5,-55 726.31,-30.44 947.56,-17.67 1046.38,-12.84"/>
<polygon fill="#63b8ff" stroke="#63b8ff" points="1046.48,-16.34 1056.3,-12.36 1046.14,-9.35 1046.48,-16.34"/>
</g>
<!-- Node13&#45;&gt;Node3 -->
<g id="edge17" class="edge">
<title>Node13&#45;&gt;Node3</title>
<path fill="none" stroke="#63b8ff" d="M770.21,-120.64C768.47,-104.95 767.43,-72.28 785.5,-55 821.94,-20.15 967.27,-12.4 1046.44,-10.8"/>
<polygon fill="#63b8ff" stroke="#63b8ff" points="1046.17,-14.31 1056.11,-10.64 1046.05,-7.31 1046.17,-14.31"/>
</g>
<!-- Node14&#45;&gt;Node3 -->
<g id="edge19" class="edge">
<title>Node14&#45;&gt;Node3</title>
<path fill="none" stroke="#63b8ff" d="M888.44,-60.05C931.56,-49.88 1002.08,-33.24 1049.37,-22.09"/>
<polygon fill="#63b8ff" stroke="#63b8ff" points="1050.17,-25.5 1059.1,-19.8 1048.56,-18.68 1050.17,-25.5"/>
</g>
<!-- Node15&#45;&gt;Node3 -->
<g id="edge22" class="edge">
<title>Node15&#45;&gt;Node3</title>
<path fill="none" stroke="#63b8ff" d="M937.76,-120.89C936.94,-105.6 937.53,-73.54 954.5,-55 977.87,-29.47 1015.53,-18.45 1046.47,-13.75"/>
<polygon fill="#63b8ff" stroke="#63b8ff" points="1046.57,-17.27 1056.03,-12.49 1045.66,-10.33 1046.57,-17.27"/>
</g>
<!-- Node16&#45;&gt;Node3 -->
<g id="edge26" class="edge">
<title>Node16&#45;&gt;Node3</title>
<path fill="none" stroke="#63b8ff" d="M1028.95,-60.12C1041.6,-51.1 1061.43,-36.95 1076.69,-26.06"/>
<polygon fill="#63b8ff" stroke="#63b8ff" points="1078.59,-29 1084.7,-20.35 1074.52,-23.31 1078.59,-29"/>
</g>
<!-- Node17&#45;&gt;Node3 -->
<g id="edge28" class="edge">
<title>Node17&#45;&gt;Node3</title>
<path fill="none" stroke="#63b8ff" d="M1104.05,-120.56C1103.09,-101.51 1100.82,-56.56 1099.5,-30.37"/>
<polygon fill="#63b8ff" stroke="#63b8ff" points="1103.02,-30.55 1099.02,-20.74 1096.02,-30.9 1103.02,-30.55"/>
</g>
<!-- Node18&#45;&gt;Node12 -->
<g id="edge30" class="edge">
<title>Node18&#45;&gt;Node12</title>
<path fill="none" stroke="#63b8ff" d="M466.5,-120.87C466.5,-113 466.5,-101.1 466.5,-90.89"/>
<polygon fill="#63b8ff" stroke="#63b8ff" points="470,-91.18 466.5,-81.18 463,-91.18 470,-91.18"/>
</g>
<!-- Node19&#45;&gt;Node3 -->
<g id="edge32" class="edge">
<title>Node19&#45;&gt;Node3</title>
<path fill="none" stroke="#63b8ff" d="M1166.35,-60.12C1154.02,-51.1 1134.67,-36.95 1119.78,-26.06"/>
<polygon fill="#63b8ff" stroke="#63b8ff" points="1122.12,-23.44 1111.99,-20.36 1117.99,-29.09 1122.12,-23.44"/>
</g>
<!-- Node20&#45;&gt;Node3 -->
<g id="edge34" class="edge">
<title>Node20&#45;&gt;Node3</title>
<path fill="none" stroke="#63b8ff" d="M510.96,-175.9C523.05,-162.45 548.24,-136.37 574.5,-121 728.9,-30.62 947.25,-13.68 1046.17,-10.84"/>
<polygon fill="#63b8ff" stroke="#63b8ff" points="1046.21,-14.34 1056.12,-10.59 1046.04,-7.34 1046.21,-14.34"/>
</g>
<!-- Node20&#45;&gt;Node18 -->
<g id="edge35" class="edge">
<title>Node20&#45;&gt;Node18</title>
<path fill="none" stroke="#63b8ff" d="M497.39,-175.75C492.49,-168.73 485.45,-158.64 479.33,-149.87"/>
<polygon fill="#63b8ff" stroke="#63b8ff" points="482.2,-147.88 473.61,-141.68 476.46,-151.89 482.2,-147.88"/>
</g>
<!-- Node21&#45;&gt;Node22 -->
<g id="edge37" class="edge">
<title>Node21&#45;&gt;Node22</title>
<path fill="none" stroke="#63b8ff" d="M675.73,-175.75C670.18,-168.58 662.16,-158.2 655.27,-149.3"/>
<polygon fill="#63b8ff" stroke="#63b8ff" points="658.23,-147.41 649.34,-141.64 652.69,-151.69 658.23,-147.41"/>
</g>
<!-- Node22&#45;&gt;Node12 -->
<g id="edge38" class="edge">
<title>Node22&#45;&gt;Node12</title>
<path fill="none" stroke="#63b8ff" d="M614.92,-120.62C585.37,-110.74 537.41,-94.71 504.04,-83.55"/>
<polygon fill="#63b8ff" stroke="#63b8ff" points="505.36,-80.3 494.76,-80.45 503.14,-86.94 505.36,-80.3"/>
</g>
<!-- Node23&#45;&gt;Node22 -->
<g id="edge40" class="edge">
<title>Node23&#45;&gt;Node22</title>
<path fill="none" stroke="#63b8ff" d="M789.3,-175.51C759.94,-166.76 715.1,-153.42 682.52,-143.71"/>
<polygon fill="#63b8ff" stroke="#63b8ff" points="683.58,-140.38 673,-140.88 681.58,-147.09 683.58,-140.38"/>
</g>
<!-- Node24&#45;&gt;Node3 -->
<g id="edge42" class="edge">
<title>Node24&#45;&gt;Node3</title>
<path fill="none" stroke="#63b8ff" d="M1194.92,-175.6C1217.14,-153.52 1268.88,-95.08 1239.5,-55 1219.23,-27.34 1181.71,-16.43 1150.48,-12.32"/>
<polygon fill="#63b8ff" stroke="#63b8ff" points="1151.12,-8.87 1140.8,-11.26 1150.36,-15.83 1151.12,-8.87"/>
</g>
<!-- Node25&#45;&gt;Node3 -->
<g id="edge44" class="edge">
<title>Node25&#45;&gt;Node3</title>
<path fill="none" stroke="#63b8ff" d="M1316.04,-175.74C1311.68,-152.39 1296.57,-88.24 1257.5,-55 1227.68,-29.64 1184.43,-18.67 1150.56,-13.96"/>
<polygon fill="#63b8ff" stroke="#63b8ff" points="1151.33,-10.52 1140.97,-12.77 1150.47,-17.47 1151.33,-10.52"/>
</g>
<!-- Node26&#45;&gt;Node3 -->
<g id="edge46" class="edge">
<title>Node26&#45;&gt;Node3</title>
<path fill="none" stroke="#63b8ff" d="M1344.14,-60.05C1292,-49.53 1205.59,-32.1 1150.39,-20.97"/>
<polygon fill="#63b8ff" stroke="#63b8ff" points="1151.09,-17.54 1140.59,-18.99 1149.7,-24.4 1151.09,-17.54"/>
</g>
<!-- Node27&#45;&gt;Node3 -->
<g id="edge48" class="edge">
<title>Node27&#45;&gt;Node3</title>
<path fill="none" stroke="#63b8ff" d="M1481.16,-120.54C1481.78,-104.68 1480.54,-71.75 1461.5,-55 1416.45,-15.36 1240.04,-10 1150.8,-9.9"/>
<polygon fill="#63b8ff" stroke="#63b8ff" points="1150.84,-6.4 1140.84,-9.92 1150.85,-13.4 1150.84,-6.4"/>
</g>
<!-- Node28&#45;&gt;Node3 -->
<g id="edge50" class="edge">
<title>Node28&#45;&gt;Node3</title>
<path fill="none" stroke="#63b8ff" d="M1521.98,-60.03C1512.96,-58.21 1503.43,-56.42 1494.5,-55 1371.83,-35.52 1226.45,-21.48 1150.55,-14.83"/>
<polygon fill="#63b8ff" stroke="#63b8ff" points="1151.2,-11.37 1140.93,-13.99 1150.59,-18.34 1151.2,-11.37"/>
</g>
</g>
</svg>
        <g id="navigator" transform="translate(0 0)" fill="#404254">
                <rect fill="#f2f5e9" fill-opacity="0.5" stroke="#606060" stroke-width=".5" x="0" y="0" width="60" height="60"/>
                <use id="zoomplus" xlink:href="#zoomPlus" x="17" y="9" onmousedown="handleZoom(evt,'in')"/>
                <use id="zoomminus" xlink:href="#zoomMin" x="42" y="9" onmousedown="handleZoom(evt,'out')"/>
                <use id="reset" xlink:href="#resetDef" x="30" y="36" onmousedown="handleReset()"/>
                <g id="arrowUp" xlink:href="#dirArrow" transform="translate(30 24)" onmousedown="handlePan(0,-1)">
                  <use xlink:href="#rim" fill="#404040">
                        <set attributeName="fill" to="#808080" begin="arrowUp.mouseover" end="arrowUp.mouseout"/>
                  </use>
                  <path fill="none" stroke="white" stroke-width="1.5" d="M0,-3.0v7 M-2.5,-0.5L0,-3.0L2.5,-0.5"/>
                </g>
                <g id="arrowRight" xlink:href="#dirArrow" transform="rotate(90) translate(36 -43)" onmousedown="handlePan(1,0)">
                  <use xlink:href="#rim" fill="#404040">
                        <set attributeName="fill" to="#808080" begin="arrowRight.mouseover" end="arrowRight.mouseout"/>
                  </use>
                  <path fill="none" stroke="white" stroke-width="1.5" d="M0,-3.0v7 M-2.5,-0.5L0,-3.0L2.5,-0.5"/>
                </g>
                <g id="arrowDown" xlink:href="#dirArrow" transform="rotate(180) translate(-30 -48)" onmousedown="handlePan(0,1)">
                  <use xlink:href="#rim" fill="#404040">
                        <set attributeName="fill" to="#808080" begin="arrowDown.mouseover" end="arrowDown.mouseout"/>
                  </use>
                  <path fill="none" stroke="white" stroke-width="1.5" d="M0,-3.0v7 M-2.5,-0.5L0,-3.0L2.5,-0.5"/>
                </g>
                <g id="arrowLeft" xlink:href="#dirArrow" transform="rotate(270) translate(-36 17)" onmousedown="handlePan(-1,0)">
                  <use xlink:href="#rim" fill="#404040">
                        <set attributeName="fill" to="#808080" begin="arrowLeft.mouseover" end="arrowLeft.mouseout"/>
                  </use>
                  <path fill="none" stroke="white" stroke-width="1.5" d="M0,-3.0v7 M-2.5,-0.5L0,-3.0L2.5,-0.5"/>
                </g>
        </g>
        <svg viewBox="0 0 15 15" width="100%" height="30px" preserveAspectRatio="xMaxYMin meet">
         <g id="arrow_out" transform="scale(0.3 0.3)">
          <a xlink:href="OSAudioSystem_8c__incl_org.svg" target="_base">
           <rect id="button" ry="5" rx="5" y="6" x="6" height="38" width="38"
                fill="#f2f5e9" fill-opacity="0.5" stroke="#606060" stroke-width="1.0"/>
           <path id="arrow"
             d="M 11.500037,31.436501 C 11.940474,20.09759 22.043105,11.32322 32.158766,21.979434 L 37.068811,17.246167 C 37.068811,17.246167 37.088388,32 37.088388,32 L 22.160133,31.978069 C 22.160133,31.978069 26.997745,27.140456 26.997745,27.140456 C 18.528582,18.264221 13.291696,25.230495 11.500037,31.436501 z"
             style="fill:#404040;"/>
          </a>
         </g>
        </svg>
</svg>
