<?xml version="1.0" encoding="UTF-8" standalone="no"?>
<!DOCTYPE svg PUBLIC "-//W3C//DTD SVG 1.1//EN"
 "http://www.w3.org/Graphics/SVG/1.1/DTD/svg11.dtd">
<!-- Generated by graphviz version 7.0.5 (20221223.1930)
 -->
<!-- Title: include/dolphin/os/OSContext.h Pages: 1 -->
<svg width="6060pt" height="302pt"
 viewBox="0.00 0.00 6060.05 302.00" xmlns="http://www.w3.org/2000/svg" xmlns:xlink="http://www.w3.org/1999/xlink">
<g id="graph0" class="graph" transform="scale(1 1) rotate(0) translate(4 298)">
<title>include/dolphin/os/OSContext.h</title>
<!-- Node1 -->
<g id="node1" class="node">
<title>Node1</title>
<g id="a_node1"><a xlink:title=" ">
<polygon fill="#999999" stroke="#666666" points="3260.05,-294 3165.05,-294 3165.05,-264 3260.05,-264 3260.05,-294"/>
<text text-anchor="start" x="3173.05" y="-282" font-family="Helvetica,sans-Serif" font-size="10.00">include/dolphin/os</text>
<text text-anchor="middle" x="3212.55" y="-271" font-family="Helvetica,sans-Serif" font-size="10.00">/OSContext.h</text>
</a>
</g>
</g>
<!-- Node2 -->
<g id="node2" class="node">
<title>Node2</title>
<g id="a_node2"><a xlink:href="OS_8h.html" target="_top" xlink:title=" ">
<polygon fill="#fff0f0" stroke="red" points="3158.05,-162 3039.05,-162 3039.05,-143 3158.05,-143 3158.05,-162"/>
<text text-anchor="middle" x="3098.55" y="-150" font-family="Helvetica,sans-Serif" font-size="10.00">include/dolphin/os/OS.h</text>
</a>
</g>
</g>
<!-- Node1&#45;&gt;Node2 -->
<g id="edge1" class="edge">
<title>Node1&#45;&gt;Node2</title>
<path fill="none" stroke="#63b8ff" d="M3197.64,-253.98C3186.74,-237.37 3171.05,-215.24 3154.55,-198 3141.33,-184.18 3123.75,-170.89 3111.84,-162.48"/>
<polygon fill="#63b8ff" stroke="#63b8ff" points="3194.59,-255.73 3202.94,-262.25 3200.48,-251.94 3194.59,-255.73"/>
</g>
<!-- Node503 -->
<g id="node45" class="node">
<title>Node503</title>
<g id="a_node45"><a xlink:href="OSContext_8c.html" target="_top" xlink:title=" ">
<polygon fill="white" stroke="#666666" points="6052.05,-96 5915.05,-96 5915.05,-77 6052.05,-77 6052.05,-96"/>
<text text-anchor="middle" x="5983.55" y="-84" font-family="Helvetica,sans-Serif" font-size="10.00">libs/dolphin/os/OSContext.c</text>
</a>
</g>
</g>
<!-- Node1&#45;&gt;Node503 -->
<g id="edge55" class="edge">
<title>Node1&#45;&gt;Node503</title>
<path fill="none" stroke="#63b8ff" d="M3211.5,-252.48C3212.26,-234.29 3216.64,-210.86 3232.55,-198 3346.78,-105.6 5729.46,-122.62 5875.55,-107 5897.62,-104.64 5921.97,-100.39 5941.95,-96.46"/>
<polygon fill="#63b8ff" stroke="#63b8ff" points="3208,-252.24 3211.44,-262.26 3215,-252.28 3208,-252.24"/>
</g>
<!-- Node517 -->
<g id="node48" class="node">
<title>Node517</title>
<g id="a_node48"><a xlink:href="OSThread_8h.html" target="_top" xlink:title=" ">
<polygon fill="#fff0f0" stroke="red" points="3146.05,-228 3051.05,-228 3051.05,-198 3146.05,-198 3146.05,-228"/>
<text text-anchor="start" x="3059.05" y="-216" font-family="Helvetica,sans-Serif" font-size="10.00">include/dolphin/os</text>
<text text-anchor="middle" x="3098.55" y="-205" font-family="Helvetica,sans-Serif" font-size="10.00">/OSThread.h</text>
</a>
</g>
</g>
<!-- Node1&#45;&gt;Node517 -->
<g id="edge51" class="edge">
<title>Node1&#45;&gt;Node517</title>
<path fill="none" stroke="#63b8ff" d="M3177.25,-258.18C3160.04,-248.52 3139.72,-237.12 3124.05,-228.31"/>
<polygon fill="#63b8ff" stroke="#63b8ff" points="3175.21,-261.05 3185.64,-262.9 3178.64,-254.95 3175.21,-261.05"/>
</g>
<!-- Node704 -->
<g id="node49" class="node">
<title>Node704</title>
<g id="a_node49"><a xlink:href="osdsp__task_8cpp.html" target="_top" xlink:title=" ">
<polygon fill="white" stroke="#666666" points="3352.05,-228 3241.05,-228 3241.05,-198 3352.05,-198 3352.05,-228"/>
<text text-anchor="start" x="3249.05" y="-216" font-family="Helvetica,sans-Serif" font-size="10.00">libs/JSystem/JAudio2</text>
<text text-anchor="middle" x="3296.55" y="-205" font-family="Helvetica,sans-Serif" font-size="10.00">/osdsp_task.cpp</text>
</a>
</g>
</g>
<!-- Node1&#45;&gt;Node704 -->
<g id="edge53" class="edge">
<title>Node1&#45;&gt;Node704</title>
<path fill="none" stroke="#63b8ff" d="M3240.14,-256.97C3252.44,-247.61 3266.61,-236.81 3277.67,-228.39"/>
<polygon fill="#63b8ff" stroke="#63b8ff" points="3238.23,-254.03 3232.39,-262.88 3242.47,-259.6 3238.23,-254.03"/>
</g>
<!-- Node705 -->
<g id="node50" class="node">
<title>Node705</title>
<g id="a_node50"><a xlink:href="dvdlow_8c.html" target="_top" xlink:title=" ">
<polygon fill="white" stroke="#666666" points="3495.05,-222.5 3370.05,-222.5 3370.05,-203.5 3495.05,-203.5 3495.05,-222.5"/>
<text text-anchor="middle" x="3432.55" y="-210.5" font-family="Helvetica,sans-Serif" font-size="10.00">libs/dolphin/dvd/dvdlow.c</text>
</a>
</g>
</g>
<!-- Node1&#45;&gt;Node705 -->
<g id="edge54" class="edge">
<title>Node1&#45;&gt;Node705</title>
<path fill="none" stroke="#63b8ff" d="M3271.21,-260.93C3313.23,-248.71 3368.13,-232.74 3401.83,-222.93"/>
<polygon fill="#63b8ff" stroke="#63b8ff" points="3270.36,-257.54 3261.74,-263.69 3272.32,-264.26 3270.36,-257.54"/>
</g>
<!-- Node3 -->
<g id="node3" class="node">
<title>Node3</title>
<g id="a_node3"><a xlink:href="JUTAssert_8h.html" target="_top" xlink:title=" ">
<polygon fill="#fff0f0" stroke="red" points="5820.55,-101.5 5698.55,-101.5 5698.55,-71.5 5820.55,-71.5 5820.55,-101.5"/>
<text text-anchor="start" x="5706.55" y="-89.5" font-family="Helvetica,sans-Serif" font-size="10.00">include/JSystem/JUtility</text>
<text text-anchor="middle" x="5759.55" y="-78.5" font-family="Helvetica,sans-Serif" font-size="10.00">/JUTAssert.h</text>
</a>
</g>
</g>
<!-- Node2&#45;&gt;Node3 -->
<g id="edge2" class="edge">
<title>Node2&#45;&gt;Node3</title>
<path fill="none" stroke="#63b8ff" d="M3169.77,-144.83C3179.43,-144.1 3189.23,-143.46 3198.55,-143 3475.01,-129.27 5415.57,-146.47 5689.55,-107 5697.66,-105.83 5706.17,-104 5714.35,-101.91"/>
<polygon fill="#63b8ff" stroke="#63b8ff" points="3169.72,-141.32 3160.03,-145.59 3170.27,-148.3 3169.72,-141.32"/>
</g>
<!-- Node453 -->
<g id="node4" class="node">
<title>Node453</title>
<g id="a_node4"><a xlink:href="JFWDisplay_8cpp.html" target="_top" xlink:title=" ">
<polygon fill="white" stroke="#666666" points="4306.55,-30 4176.55,-30 4176.55,0 4306.55,0 4306.55,-30"/>
<text text-anchor="start" x="4184.55" y="-18" font-family="Helvetica,sans-Serif" font-size="10.00">libs/JSystem/JFramework</text>
<text text-anchor="middle" x="4241.55" y="-7" font-family="Helvetica,sans-Serif" font-size="10.00">/JFWDisplay.cpp</text>
</a>
</g>
</g>
<!-- Node2&#45;&gt;Node453 -->
<g id="edge21" class="edge">
<title>Node2&#45;&gt;Node453</title>
<path fill="none" stroke="#63b8ff" d="M3027.31,-151.15C2568.68,-148.8 49.81,-134.66 22.55,-107 9.76,-94.02 9.74,-78.96 22.55,-66 60.69,-27.4 3646.08,-17.41 4176.33,-16.15"/>
<polygon fill="#63b8ff" stroke="#63b8ff" points="3027.18,-154.65 3037.2,-151.2 3027.21,-147.65 3027.18,-154.65"/>
</g>
<!-- Node457 -->
<g id="node5" class="node">
<title>Node457</title>
<g id="a_node5"><a xlink:href="JKRDvdArchive_8cpp.html" target="_top" xlink:title=" ">
<polygon fill="white" stroke="#666666" points="5814.05,-30 5705.05,-30 5705.05,0 5814.05,0 5814.05,-30"/>
<text text-anchor="start" x="5713.05" y="-18" font-family="Helvetica,sans-Serif" font-size="10.00">libs/JSystem/JKernel</text>
<text text-anchor="middle" x="5759.55" y="-7" font-family="Helvetica,sans-Serif" font-size="10.00">/JKRDvdArchive.cpp</text>
</a>
</g>
</g>
<!-- Node2&#45;&gt;Node457 -->
<g id="edge23" class="edge">
<title>Node2&#45;&gt;Node457</title>
<path fill="none" stroke="#63b8ff" d="M3169.77,-144.82C3179.43,-144.1 3189.23,-143.46 3198.55,-143 3235.05,-141.2 5803.88,-133.02 5829.55,-107 5842.34,-94.03 5837.89,-82.2 5829.55,-66 5821.55,-50.46 5806.24,-38.68 5791.98,-30.47"/>
<polygon fill="#63b8ff" stroke="#63b8ff" points="3169.72,-141.31 3160.03,-145.59 3170.27,-148.29 3169.72,-141.31"/>
</g>
<!-- Node460 -->
<g id="node6" class="node">
<title>Node460</title>
<g id="a_node6"><a xlink:href="JKRHeap_8cpp.html" target="_top" xlink:title=" ">
<polygon fill="white" stroke="#666666" points="5941.05,-30 5832.05,-30 5832.05,0 5941.05,0 5941.05,-30"/>
<text text-anchor="start" x="5840.05" y="-18" font-family="Helvetica,sans-Serif" font-size="10.00">libs/JSystem/JKernel</text>
<text text-anchor="middle" x="5886.55" y="-7" font-family="Helvetica,sans-Serif" font-size="10.00">/JKRHeap.cpp</text>
</a>
</g>
</g>
<!-- Node2&#45;&gt;Node460 -->
<g id="edge24" class="edge">
<title>Node2&#45;&gt;Node460</title>
<path fill="none" stroke="#63b8ff" d="M3169.77,-144.82C3179.43,-144.1 3189.23,-143.46 3198.55,-143 3272.05,-139.38 5786.39,-147.93 5847.55,-107 5873.4,-89.7 5882.19,-51.37 5885.12,-30.4"/>
<polygon fill="#63b8ff" stroke="#63b8ff" points="3169.72,-141.31 3160.03,-145.58 3170.27,-148.29 3169.72,-141.31"/>
</g>
<!-- Node467 -->
<g id="node7" class="node">
<title>Node467</title>
<g id="a_node7"><a xlink:href="JUTConsole_8cpp.html" target="_top" xlink:title=" ">
<polygon fill="white" stroke="#666666" points="1398.55,-30 1292.55,-30 1292.55,0 1398.55,0 1398.55,-30"/>
<text text-anchor="start" x="1300.55" y="-18" font-family="Helvetica,sans-Serif" font-size="10.00">libs/JSystem/JUtility</text>
<text text-anchor="middle" x="1345.55" y="-7" font-family="Helvetica,sans-Serif" font-size="10.00">/JUTConsole.cpp</text>
</a>
</g>
</g>
<!-- Node2&#45;&gt;Node467 -->
<g id="edge27" class="edge">
<title>Node2&#45;&gt;Node467</title>
<path fill="none" stroke="#63b8ff" d="M3027.38,-151.15C2567.78,-148.83 36.93,-134.78 9.55,-107 -3.24,-94.02 -3.09,-79.12 9.55,-66 54.76,-19.06 1049.22,-16 1292.3,-15.95"/>
<polygon fill="#63b8ff" stroke="#63b8ff" points="3027.27,-154.65 3037.29,-151.2 3027.3,-147.65 3027.27,-154.65"/>
</g>
<!-- Node469 -->
<g id="node8" class="node">
<title>Node469</title>
<g id="a_node8"><a xlink:href="dolphin__trk__glue_8h.html" target="_top" xlink:title=" ">
<polygon fill="#fff0f0" stroke="red" points="149.55,-107 31.55,-107 31.55,-66 149.55,-66 149.55,-107"/>
<text text-anchor="start" x="39.55" y="-95" font-family="Helvetica,sans-Serif" font-size="10.00">include/TRK_MINNOW</text>
<text text-anchor="start" x="39.55" y="-84" font-family="Helvetica,sans-Serif" font-size="10.00">_DOLPHIN/Os/dolphin</text>
<text text-anchor="middle" x="90.55" y="-73" font-family="Helvetica,sans-Serif" font-size="10.00">/dolphin_trk_glue.h</text>
</a>
</g>
</g>
<!-- Node2&#45;&gt;Node469 -->
<g id="edge7" class="edge">
<title>Node2&#45;&gt;Node469</title>
<path fill="none" stroke="#63b8ff" d="M3027.37,-151.55C2606.3,-151.68 449.95,-150.21 158.55,-107 155.63,-106.57 152.66,-106.05 149.68,-105.45"/>
<polygon fill="#63b8ff" stroke="#63b8ff" points="3027.23,-155.05 3037.23,-151.54 3027.23,-148.05 3027.23,-155.05"/>
</g>
<!-- Node471 -->
<g id="node9" class="node">
<title>Node471</title>
<g id="a_node9"><a xlink:href="J2DAnimation_8cpp.html" target="_top" xlink:title=" ">
<polygon fill="white" stroke="#666666" points="287.05,-101.5 168.05,-101.5 168.05,-71.5 287.05,-71.5 287.05,-101.5"/>
<text text-anchor="start" x="176.05" y="-89.5" font-family="Helvetica,sans-Serif" font-size="10.00">libs/JSystem/J2DGraph</text>
<text text-anchor="middle" x="227.55" y="-78.5" font-family="Helvetica,sans-Serif" font-size="10.00">/J2DAnimation.cpp</text>
</a>
</g>
</g>
<!-- Node2&#45;&gt;Node471 -->
<g id="edge8" class="edge">
<title>Node2&#45;&gt;Node471</title>
<path fill="none" stroke="#63b8ff" d="M3027.48,-151.47C2618.5,-151.17 573.6,-147.64 296.55,-107 288.54,-105.83 280.15,-103.99 272.09,-101.91"/>
<polygon fill="#63b8ff" stroke="#63b8ff" points="3027.3,-154.97 3037.3,-151.48 3027.3,-147.97 3027.3,-154.97"/>
</g>
<!-- Node472 -->
<g id="node10" class="node">
<title>Node472</title>
<g id="a_node10"><a xlink:href="J3DModel_8cpp.html" target="_top" xlink:title=" ">
<polygon fill="white" stroke="#666666" points="463.55,-101.5 305.55,-101.5 305.55,-71.5 463.55,-71.5 463.55,-101.5"/>
<text text-anchor="start" x="313.55" y="-89.5" font-family="Helvetica,sans-Serif" font-size="10.00">libs/JSystem/J3DGraphAnimator</text>
<text text-anchor="middle" x="384.55" y="-78.5" font-family="Helvetica,sans-Serif" font-size="10.00">/J3DModel.cpp</text>
</a>
</g>
</g>
<!-- Node2&#45;&gt;Node472 -->
<g id="edge9" class="edge">
<title>Node2&#45;&gt;Node472</title>
<path fill="none" stroke="#63b8ff" d="M3027.31,-151.15C2633.6,-149.09 732.14,-137.64 472.55,-107 462.6,-105.83 452.13,-104.02 442.01,-101.97"/>
<polygon fill="#63b8ff" stroke="#63b8ff" points="3027.26,-154.65 3037.28,-151.2 3027.3,-147.65 3027.26,-154.65"/>
</g>
<!-- Node473 -->
<g id="node11" class="node">
<title>Node473</title>
<g id="a_node11"><a xlink:href="J3DModelData_8cpp.html" target="_top" xlink:title=" ">
<polygon fill="white" stroke="#666666" points="639.55,-101.5 481.55,-101.5 481.55,-71.5 639.55,-71.5 639.55,-101.5"/>
<text text-anchor="start" x="489.55" y="-89.5" font-family="Helvetica,sans-Serif" font-size="10.00">libs/JSystem/J3DGraphAnimator</text>
<text text-anchor="middle" x="560.55" y="-78.5" font-family="Helvetica,sans-Serif" font-size="10.00">/J3DModelData.cpp</text>
</a>
</g>
</g>
<!-- Node2&#45;&gt;Node473 -->
<g id="edge10" class="edge">
<title>Node2&#45;&gt;Node473</title>
<path fill="none" stroke="#63b8ff" d="M3027.28,-151.06C2649.55,-148.59 889.69,-135.62 648.55,-107 638.6,-105.82 628.13,-104.01 618.01,-101.96"/>
<polygon fill="#63b8ff" stroke="#63b8ff" points="3027.04,-154.55 3037.06,-151.12 3027.08,-147.55 3027.04,-154.55"/>
</g>
<!-- Node474 -->
<g id="node12" class="node">
<title>Node474</title>
<g id="a_node12"><a xlink:href="J3DSkinDeform_8cpp.html" target="_top" xlink:title=" ">
<polygon fill="white" stroke="#666666" points="815.55,-101.5 657.55,-101.5 657.55,-71.5 815.55,-71.5 815.55,-101.5"/>
<text text-anchor="start" x="665.55" y="-89.5" font-family="Helvetica,sans-Serif" font-size="10.00">libs/JSystem/J3DGraphAnimator</text>
<text text-anchor="middle" x="736.55" y="-78.5" font-family="Helvetica,sans-Serif" font-size="10.00">/J3DSkinDeform.cpp</text>
</a>
</g>
</g>
<!-- Node2&#45;&gt;Node474 -->
<g id="edge11" class="edge">
<title>Node2&#45;&gt;Node474</title>
<path fill="none" stroke="#63b8ff" d="M3027.23,-150.95C2666.07,-148.04 1047.27,-133.59 824.55,-107 814.6,-105.81 804.13,-104 794.02,-101.95"/>
<polygon fill="#63b8ff" stroke="#63b8ff" points="3027.01,-154.45 3037.04,-151.03 3027.07,-147.45 3027.01,-154.45"/>
</g>
<!-- Node475 -->
<g id="node13" class="node">
<title>Node475</title>
<g id="a_node13"><a xlink:href="J3DMatBlock_8cpp.html" target="_top" xlink:title=" ">
<polygon fill="white" stroke="#666666" points="975.55,-101.5 833.55,-101.5 833.55,-71.5 975.55,-71.5 975.55,-101.5"/>
<text text-anchor="start" x="841.55" y="-89.5" font-family="Helvetica,sans-Serif" font-size="10.00">libs/JSystem/J3DGraphBase</text>
<text text-anchor="middle" x="904.55" y="-78.5" font-family="Helvetica,sans-Serif" font-size="10.00">/J3DMatBlock.cpp</text>
</a>
</g>
</g>
<!-- Node2&#45;&gt;Node475 -->
<g id="edge12" class="edge">
<title>Node2&#45;&gt;Node475</title>
<path fill="none" stroke="#63b8ff" d="M3027.28,-150.92C2681.88,-148 1190.31,-133.92 984.55,-107 975.48,-105.81 965.94,-104 956.74,-101.95"/>
<polygon fill="#63b8ff" stroke="#63b8ff" points="3027.06,-154.42 3037.09,-151.01 3027.12,-147.42 3027.06,-154.42"/>
</g>
<!-- Node476 -->
<g id="node14" class="node">
<title>Node476</title>
<g id="a_node14"><a xlink:href="J3DShape_8cpp.html" target="_top" xlink:title=" ">
<polygon fill="white" stroke="#666666" points="1135.55,-101.5 993.55,-101.5 993.55,-71.5 1135.55,-71.5 1135.55,-101.5"/>
<text text-anchor="start" x="1001.55" y="-89.5" font-family="Helvetica,sans-Serif" font-size="10.00">libs/JSystem/J3DGraphBase</text>
<text text-anchor="middle" x="1064.55" y="-78.5" font-family="Helvetica,sans-Serif" font-size="10.00">/J3DShape.cpp</text>
</a>
</g>
</g>
<!-- Node2&#45;&gt;Node476 -->
<g id="edge13" class="edge">
<title>Node2&#45;&gt;Node476</title>
<path fill="none" stroke="#63b8ff" d="M3027.4,-150.79C2698.53,-147.4 1333.7,-131.91 1144.55,-107 1135.48,-105.81 1125.94,-103.99 1116.74,-101.94"/>
<polygon fill="#63b8ff" stroke="#63b8ff" points="3027.11,-154.29 3037.14,-150.89 3027.18,-147.29 3027.11,-154.29"/>
</g>
<!-- Node477 -->
<g id="node15" class="node">
<title>Node477</title>
<g id="a_node15"><a xlink:href="J3DSys_8cpp.html" target="_top" xlink:title=" ">
<polygon fill="white" stroke="#666666" points="1295.55,-101.5 1153.55,-101.5 1153.55,-71.5 1295.55,-71.5 1295.55,-101.5"/>
<text text-anchor="start" x="1161.55" y="-89.5" font-family="Helvetica,sans-Serif" font-size="10.00">libs/JSystem/J3DGraphBase</text>
<text text-anchor="middle" x="1224.55" y="-78.5" font-family="Helvetica,sans-Serif" font-size="10.00">/J3DSys.cpp</text>
</a>
</g>
</g>
<!-- Node2&#45;&gt;Node477 -->
<g id="edge14" class="edge">
<title>Node2&#45;&gt;Node477</title>
<path fill="none" stroke="#63b8ff" d="M3027.41,-151.77C2737.75,-152.55 1646.28,-152.35 1304.55,-107 1295.48,-105.8 1285.94,-103.98 1276.74,-101.92"/>
<polygon fill="#63b8ff" stroke="#63b8ff" points="3027.08,-155.27 3037.07,-151.74 3027.06,-148.27 3027.08,-155.27"/>
</g>
<!-- Node478 -->
<g id="node16" class="node">
<title>Node478</title>
<g id="a_node16"><a xlink:href="J3DClusterLoader_8cpp.html" target="_top" xlink:title=" ">
<polygon fill="white" stroke="#666666" points="1463.05,-101.5 1314.05,-101.5 1314.05,-71.5 1463.05,-71.5 1463.05,-101.5"/>
<text text-anchor="start" x="1322.05" y="-89.5" font-family="Helvetica,sans-Serif" font-size="10.00">libs/JSystem/J3DGraphLoader</text>
<text text-anchor="middle" x="1388.55" y="-78.5" font-family="Helvetica,sans-Serif" font-size="10.00">/J3DClusterLoader.cpp</text>
</a>
</g>
</g>
<!-- Node2&#45;&gt;Node478 -->
<g id="edge15" class="edge">
<title>Node2&#45;&gt;Node478</title>
<path fill="none" stroke="#63b8ff" d="M3027.41,-151.48C2755.13,-151.09 1779.05,-146.91 1471.55,-107 1462.3,-105.8 1452.58,-104.01 1443.17,-101.99"/>
<polygon fill="#63b8ff" stroke="#63b8ff" points="3027.18,-154.98 3037.19,-151.49 3027.19,-147.98 3027.18,-154.98"/>
</g>
<!-- Node479 -->
<g id="node17" class="node">
<title>Node479</title>
<g id="a_node17"><a xlink:href="J3DShapeFactory_8cpp.html" target="_top" xlink:title=" ">
<polygon fill="white" stroke="#666666" points="1630.05,-101.5 1481.05,-101.5 1481.05,-71.5 1630.05,-71.5 1630.05,-101.5"/>
<text text-anchor="start" x="1489.05" y="-89.5" font-family="Helvetica,sans-Serif" font-size="10.00">libs/JSystem/J3DGraphLoader</text>
<text text-anchor="middle" x="1555.55" y="-78.5" font-family="Helvetica,sans-Serif" font-size="10.00">/J3DShapeFactory.cpp</text>
</a>
</g>
</g>
<!-- Node2&#45;&gt;Node479 -->
<g id="edge16" class="edge">
<title>Node2&#45;&gt;Node479</title>
<path fill="none" stroke="#63b8ff" d="M3027.65,-151.22C2773.95,-149.92 1911.86,-142.9 1638.55,-107 1629.3,-105.79 1619.58,-103.99 1610.18,-101.97"/>
<polygon fill="#63b8ff" stroke="#63b8ff" points="3027.38,-154.72 3037.4,-151.27 3027.41,-147.72 3027.38,-154.72"/>
</g>
<!-- Node423 -->
<g id="node18" class="node">
<title>Node423</title>
<g id="a_node18"><a xlink:href="JASAudioThread_8cpp.html" target="_top" xlink:title=" ">
<polygon fill="white" stroke="#666666" points="1759.05,-101.5 1648.05,-101.5 1648.05,-71.5 1759.05,-71.5 1759.05,-101.5"/>
<text text-anchor="start" x="1656.05" y="-89.5" font-family="Helvetica,sans-Serif" font-size="10.00">libs/JSystem/JAudio2</text>
<text text-anchor="middle" x="1703.55" y="-78.5" font-family="Helvetica,sans-Serif" font-size="10.00">/JASAudioThread.cpp</text>
</a>
</g>
</g>
<!-- Node2&#45;&gt;Node423 -->
<g id="edge17" class="edge">
<title>Node2&#45;&gt;Node423</title>
<path fill="none" stroke="#63b8ff" d="M3027.51,-151.58C2788.27,-151.45 2013.27,-147.81 1767.55,-107 1760.33,-105.8 1752.79,-104.01 1745.52,-101.99"/>
<polygon fill="#63b8ff" stroke="#63b8ff" points="3027.31,-155.08 3037.31,-151.58 3027.31,-148.08 3027.31,-155.08"/>
</g>
<!-- Node480 -->
<g id="node19" class="node">
<title>Node480</title>
<g id="a_node19"><a xlink:href="JASProbe_8cpp.html" target="_top" xlink:title=" ">
<polygon fill="white" stroke="#666666" points="1888.05,-101.5 1777.05,-101.5 1777.05,-71.5 1888.05,-71.5 1888.05,-101.5"/>
<text text-anchor="start" x="1785.05" y="-89.5" font-family="Helvetica,sans-Serif" font-size="10.00">libs/JSystem/JAudio2</text>
<text text-anchor="middle" x="1832.55" y="-78.5" font-family="Helvetica,sans-Serif" font-size="10.00">/JASProbe.cpp</text>
</a>
</g>
</g>
<!-- Node2&#45;&gt;Node480 -->
<g id="edge18" class="edge">
<title>Node2&#45;&gt;Node480</title>
<path fill="none" stroke="#63b8ff" d="M3027.3,-151.28C2803.43,-150.19 2116.05,-143.86 1896.55,-107 1889.33,-105.79 1881.79,-103.99 1874.52,-101.97"/>
<polygon fill="#63b8ff" stroke="#63b8ff" points="3027.02,-154.77 3037.04,-151.32 3027.05,-147.77 3027.02,-154.77"/>
</g>
<!-- Node481 -->
<g id="node20" class="node">
<title>Node481</title>
<g id="a_node20"><a xlink:href="dsptask_8cpp.html" target="_top" xlink:title=" ">
<polygon fill="white" stroke="#666666" points="2017.05,-101.5 1906.05,-101.5 1906.05,-71.5 2017.05,-71.5 2017.05,-101.5"/>
<text text-anchor="start" x="1914.05" y="-89.5" font-family="Helvetica,sans-Serif" font-size="10.00">libs/JSystem/JAudio2</text>
<text text-anchor="middle" x="1961.55" y="-78.5" font-family="Helvetica,sans-Serif" font-size="10.00">/dsptask.cpp</text>
</a>
</g>
</g>
<!-- Node2&#45;&gt;Node481 -->
<g id="edge19" class="edge">
<title>Node2&#45;&gt;Node481</title>
<path fill="none" stroke="#63b8ff" d="M3027.3,-150.9C2819.9,-148.79 2219.02,-139.93 2025.55,-107 2018.33,-105.77 2010.79,-103.97 2003.53,-101.94"/>
<polygon fill="#63b8ff" stroke="#63b8ff" points="3027.09,-154.4 3037.12,-151 3027.16,-147.4 3027.09,-154.4"/>
</g>
<!-- Node482 -->
<g id="node21" class="node">
<title>Node482</title>
<g id="a_node21"><a xlink:href="osdsp_8cpp.html" target="_top" xlink:title=" ">
<polygon fill="white" stroke="#666666" points="2146.05,-101.5 2035.05,-101.5 2035.05,-71.5 2146.05,-71.5 2146.05,-101.5"/>
<text text-anchor="start" x="2043.05" y="-89.5" font-family="Helvetica,sans-Serif" font-size="10.00">libs/JSystem/JAudio2</text>
<text text-anchor="middle" x="2090.55" y="-78.5" font-family="Helvetica,sans-Serif" font-size="10.00">/osdsp.cpp</text>
</a>
</g>
</g>
<!-- Node2&#45;&gt;Node482 -->
<g id="edge20" class="edge">
<title>Node2&#45;&gt;Node482</title>
<path fill="none" stroke="#63b8ff" d="M3027.21,-150.43C2837.23,-147.22 2322.1,-136.01 2154.55,-107 2147.34,-105.75 2139.8,-103.94 2132.53,-101.91"/>
<polygon fill="#63b8ff" stroke="#63b8ff" points="3027.14,-153.93 3037.19,-150.6 3027.25,-146.93 3027.14,-153.93"/>
</g>
<!-- Node483 -->
<g id="node22" class="node">
<title>Node483</title>
<g id="a_node22"><a xlink:href="JKRAramPiece_8cpp.html" target="_top" xlink:title=" ">
<polygon fill="white" stroke="#666666" points="2273.05,-101.5 2164.05,-101.5 2164.05,-71.5 2273.05,-71.5 2273.05,-101.5"/>
<text text-anchor="start" x="2172.05" y="-89.5" font-family="Helvetica,sans-Serif" font-size="10.00">libs/JSystem/JKernel</text>
<text text-anchor="middle" x="2218.55" y="-78.5" font-family="Helvetica,sans-Serif" font-size="10.00">/JKRAramPiece.cpp</text>
</a>
</g>
</g>
<!-- Node2&#45;&gt;Node483 -->
<g id="edge22" class="edge">
<title>Node2&#45;&gt;Node483</title>
<path fill="none" stroke="#63b8ff" d="M3027.17,-149.82C2855.75,-145.41 2424.58,-132.13 2282.55,-107 2275.46,-105.75 2268.05,-103.95 2260.89,-101.96"/>
<polygon fill="#63b8ff" stroke="#63b8ff" points="3026.97,-153.31 3037.05,-150.07 3027.15,-146.31 3026.97,-153.31"/>
</g>
<!-- Node484 -->
<g id="node23" class="node">
<title>Node484</title>
<g id="a_node23"><a xlink:href="JPAChildShape_8cpp.html" target="_top" xlink:title=" ">
<polygon fill="white" stroke="#666666" points="2405.55,-101.5 2291.55,-101.5 2291.55,-71.5 2405.55,-71.5 2405.55,-101.5"/>
<text text-anchor="start" x="2299.55" y="-89.5" font-family="Helvetica,sans-Serif" font-size="10.00">libs/JSystem/JParticle</text>
<text text-anchor="middle" x="2348.55" y="-78.5" font-family="Helvetica,sans-Serif" font-size="10.00">/JPAChildShape.cpp</text>
</a>
</g>
</g>
<!-- Node2&#45;&gt;Node484 -->
<g id="edge25" class="edge">
<title>Node2&#45;&gt;Node484</title>
<path fill="none" stroke="#63b8ff" d="M3027.73,-152.05C2902.86,-151.87 2635.81,-146.38 2414.55,-107 2407.37,-105.72 2399.87,-103.95 2392.6,-101.98"/>
<polygon fill="#63b8ff" stroke="#63b8ff" points="3027.49,-155.55 3037.49,-152.05 3027.49,-148.55 3027.49,-155.55"/>
</g>
<!-- Node485 -->
<g id="node24" class="node">
<title>Node485</title>
<g id="a_node24"><a xlink:href="JPAExtraShape_8cpp.html" target="_top" xlink:title=" ">
<polygon fill="white" stroke="#666666" points="2537.55,-101.5 2423.55,-101.5 2423.55,-71.5 2537.55,-71.5 2537.55,-101.5"/>
<text text-anchor="start" x="2431.55" y="-89.5" font-family="Helvetica,sans-Serif" font-size="10.00">libs/JSystem/JParticle</text>
<text text-anchor="middle" x="2480.55" y="-78.5" font-family="Helvetica,sans-Serif" font-size="10.00">/JPAExtraShape.cpp</text>
</a>
</g>
</g>
<!-- Node2&#45;&gt;Node485 -->
<g id="edge26" class="edge">
<title>Node2&#45;&gt;Node485</title>
<path fill="none" stroke="#63b8ff" d="M3027.32,-150.45C2921.57,-147.84 2717.15,-138.73 2546.55,-107 2539.5,-105.69 2532.13,-103.92 2524.98,-101.98"/>
<polygon fill="#63b8ff" stroke="#63b8ff" points="3027.2,-153.95 3037.28,-150.68 3027.36,-146.95 3027.2,-153.95"/>
</g>
<!-- Node486 -->
<g id="node25" class="node">
<title>Node486</title>
<g id="a_node25"><a xlink:href="JUTException_8cpp.html" target="_top" xlink:title=" ">
<polygon fill="white" stroke="#666666" points="2661.55,-101.5 2555.55,-101.5 2555.55,-71.5 2661.55,-71.5 2661.55,-101.5"/>
<text text-anchor="start" x="2563.55" y="-89.5" font-family="Helvetica,sans-Serif" font-size="10.00">libs/JSystem/JUtility</text>
<text text-anchor="middle" x="2608.55" y="-78.5" font-family="Helvetica,sans-Serif" font-size="10.00">/JUTException.cpp</text>
</a>
</g>
</g>
<!-- Node2&#45;&gt;Node486 -->
<g id="edge28" class="edge">
<title>Node2&#45;&gt;Node486</title>
<path fill="none" stroke="#63b8ff" d="M3027.39,-148.48C2941.9,-143.85 2794.52,-132.67 2670.55,-107 2664.03,-105.65 2657.22,-103.89 2650.6,-101.97"/>
<polygon fill="#63b8ff" stroke="#63b8ff" points="3027.09,-151.97 3037.26,-149 3027.46,-144.98 3027.09,-151.97"/>
</g>
<!-- Node487 -->
<g id="node26" class="node">
<title>Node487</title>
<g id="a_node26"><a xlink:href="JUTPalette_8cpp.html" target="_top" xlink:title=" ">
<polygon fill="white" stroke="#666666" points="2785.55,-101.5 2679.55,-101.5 2679.55,-71.5 2785.55,-71.5 2785.55,-101.5"/>
<text text-anchor="start" x="2687.55" y="-89.5" font-family="Helvetica,sans-Serif" font-size="10.00">libs/JSystem/JUtility</text>
<text text-anchor="middle" x="2732.55" y="-78.5" font-family="Helvetica,sans-Serif" font-size="10.00">/JUTPalette.cpp</text>
</a>
</g>
</g>
<!-- Node2&#45;&gt;Node487 -->
<g id="edge29" class="edge">
<title>Node2&#45;&gt;Node487</title>
<path fill="none" stroke="#63b8ff" d="M3027.4,-144.33C2965.41,-137.32 2873.35,-125.04 2794.55,-107 2788.28,-105.56 2781.73,-103.8 2775.33,-101.93"/>
<polygon fill="#63b8ff" stroke="#63b8ff" points="3026.78,-147.78 3037.11,-145.41 3027.55,-140.83 3026.78,-147.78"/>
</g>
<!-- Node488 -->
<g id="node27" class="node">
<title>Node488</title>
<g id="a_node27"><a xlink:href="uart__console__io__gcn_8c.html" target="_top" xlink:title=" ">
<polygon fill="white" stroke="#666666" points="2937.55,-101.5 2803.55,-101.5 2803.55,-71.5 2937.55,-71.5 2937.55,-101.5"/>
<text text-anchor="start" x="2811.55" y="-89.5" font-family="Helvetica,sans-Serif" font-size="10.00">libs/MSL_C/PPC_EABI</text>
<text text-anchor="middle" x="2870.55" y="-78.5" font-family="Helvetica,sans-Serif" font-size="10.00">/Src/uart_console_io_gcn.c</text>
</a>
</g>
</g>
<!-- Node2&#45;&gt;Node488 -->
<g id="edge30" class="edge">
<title>Node2&#45;&gt;Node488</title>
<path fill="none" stroke="#63b8ff" d="M3056.17,-139.6C3018.27,-128.96 2962.6,-113.34 2922.12,-101.98"/>
<polygon fill="#63b8ff" stroke="#63b8ff" points="3054.81,-142.86 3065.39,-142.19 3056.71,-136.12 3054.81,-142.86"/>
</g>
<!-- Node489 -->
<g id="node28" class="node">
<title>Node489</title>
<g id="a_node28"><a xlink:href="GCN__Mem__Alloc_8c.html" target="_top" xlink:title=" ">
<polygon fill="white" stroke="#666666" points="3081.05,-101.5 2956.05,-101.5 2956.05,-71.5 3081.05,-71.5 3081.05,-101.5"/>
<text text-anchor="start" x="2964.05" y="-89.5" font-family="Helvetica,sans-Serif" font-size="10.00">libs/Runtime.PPCEABI.H</text>
<text text-anchor="middle" x="3018.55" y="-78.5" font-family="Helvetica,sans-Serif" font-size="10.00">/GCN_Mem_Alloc.c</text>
</a>
</g>
</g>
<!-- Node2&#45;&gt;Node489 -->
<g id="edge31" class="edge">
<title>Node2&#45;&gt;Node489</title>
<path fill="none" stroke="#63b8ff" d="M3078.44,-135.42C3065.6,-125.14 3049.08,-111.93 3036.64,-101.98"/>
<polygon fill="#63b8ff" stroke="#63b8ff" points="3076.25,-138.14 3086.24,-141.66 3080.62,-132.68 3076.25,-138.14"/>
</g>
<!-- Node377 -->
<g id="node29" class="node">
<title>Node377</title>
<g id="a_node29"><a xlink:href="Z2AudioMgr_8cpp.html" target="_top" xlink:title=" ">
<polygon fill="white" stroke="#666666" points="3257.55,-96 3099.55,-96 3099.55,-77 3257.55,-77 3257.55,-96"/>
<text text-anchor="middle" x="3178.55" y="-84" font-family="Helvetica,sans-Serif" font-size="10.00">libs/Z2AudioLib/Z2AudioMgr.cpp</text>
</a>
</g>
</g>
<!-- Node2&#45;&gt;Node377 -->
<g id="edge32" class="edge">
<title>Node2&#45;&gt;Node377</title>
<path fill="none" stroke="#63b8ff" d="M3118.5,-135.54C3133.99,-123.14 3154.9,-106.42 3167.52,-96.32"/>
<polygon fill="#63b8ff" stroke="#63b8ff" points="3116.47,-132.68 3110.85,-141.66 3120.85,-138.14 3116.47,-132.68"/>
</g>
<!-- Node141 -->
<g id="node30" class="node">
<title>Node141</title>
<g id="a_node30"><a xlink:href="Z2LinkMgr_8cpp.html" target="_top" xlink:title=" ">
<polygon fill="white" stroke="#666666" points="3427.55,-96 3275.55,-96 3275.55,-77 3427.55,-77 3427.55,-96"/>
<text text-anchor="middle" x="3351.55" y="-84" font-family="Helvetica,sans-Serif" font-size="10.00">libs/Z2AudioLib/Z2LinkMgr.cpp</text>
</a>
</g>
</g>
<!-- Node2&#45;&gt;Node141 -->
<g id="edge33" class="edge">
<title>Node2&#45;&gt;Node141</title>
<path fill="none" stroke="#63b8ff" d="M3145.02,-139.74C3194.49,-127.23 3271.67,-107.71 3316.34,-96.41"/>
<polygon fill="#63b8ff" stroke="#63b8ff" points="3144.3,-136.32 3135.46,-142.16 3146.01,-143.1 3144.3,-136.32"/>
</g>
<!-- Node380 -->
<g id="node31" class="node">
<title>Node380</title>
<g id="a_node31"><a xlink:href="Z2WolfHowlMgr_8cpp.html" target="_top" xlink:title=" ">
<polygon fill="white" stroke="#666666" points="3585.55,-101.5 3445.55,-101.5 3445.55,-71.5 3585.55,-71.5 3585.55,-101.5"/>
<text text-anchor="start" x="3453.55" y="-89.5" font-family="Helvetica,sans-Serif" font-size="10.00">libs/Z2AudioLib/Z2WolfHowl</text>
<text text-anchor="middle" x="3515.55" y="-78.5" font-family="Helvetica,sans-Serif" font-size="10.00">Mgr.cpp</text>
</a>
</g>
</g>
<!-- Node2&#45;&gt;Node380 -->
<g id="edge34" class="edge">
<title>Node2&#45;&gt;Node380</title>
<path fill="none" stroke="#63b8ff" d="M3169.5,-144.48C3238.14,-137.14 3344.95,-124.28 3436.55,-107 3444.32,-105.53 3452.47,-103.78 3460.47,-101.92"/>
<polygon fill="#63b8ff" stroke="#63b8ff" points="3169.48,-140.96 3159.9,-145.49 3170.21,-147.92 3169.48,-140.96"/>
</g>
<!-- Node490 -->
<g id="node32" class="node">
<title>Node490</title>
<g id="a_node32"><a xlink:href="ai_8c.html" target="_top" xlink:title=" ">
<polygon fill="white" stroke="#666666" points="3697.55,-96 3603.55,-96 3603.55,-77 3697.55,-77 3697.55,-96"/>
<text text-anchor="middle" x="3650.55" y="-84" font-family="Helvetica,sans-Serif" font-size="10.00">libs/dolphin/ai/ai.c</text>
</a>
</g>
</g>
<!-- Node2&#45;&gt;Node490 -->
<g id="edge35" class="edge">
<title>Node2&#45;&gt;Node490</title>
<path fill="none" stroke="#63b8ff" d="M3169.74,-145.34C3304.47,-133.65 3584.29,-109.21 3594.55,-107 3606.12,-104.51 3618.6,-100.32 3628.83,-96.46"/>
<polygon fill="#63b8ff" stroke="#63b8ff" points="3169.5,-141.85 3159.84,-146.2 3170.11,-148.82 3169.5,-141.85"/>
</g>
<!-- Node491 -->
<g id="node33" class="node">
<title>Node491</title>
<g id="a_node33"><a xlink:href="ar_8c.html" target="_top" xlink:title=" ">
<polygon fill="white" stroke="#666666" points="3811.05,-96 3716.05,-96 3716.05,-77 3811.05,-77 3811.05,-96"/>
<text text-anchor="middle" x="3763.55" y="-84" font-family="Helvetica,sans-Serif" font-size="10.00">libs/dolphin/ar/ar.c</text>
</a>
</g>
</g>
<!-- Node2&#45;&gt;Node491 -->
<g id="edge36" class="edge">
<title>Node2&#45;&gt;Node491</title>
<path fill="none" stroke="#63b8ff" d="M3169.61,-145.34C3179.33,-144.53 3189.18,-143.73 3198.55,-143 3424.21,-125.41 3484.72,-152.01 3706.55,-107 3718.44,-104.59 3731.26,-100.36 3741.72,-96.45"/>
<polygon fill="#63b8ff" stroke="#63b8ff" points="3169.47,-141.84 3159.8,-146.16 3170.05,-148.81 3169.47,-141.84"/>
</g>
<!-- Node492 -->
<g id="node34" class="node">
<title>Node492</title>
<g id="a_node34"><a xlink:href="CARDBios_8c.html" target="_top" xlink:title=" ">
<polygon fill="white" stroke="#666666" points="3973.55,-96 3829.55,-96 3829.55,-77 3973.55,-77 3973.55,-96"/>
<text text-anchor="middle" x="3901.55" y="-84" font-family="Helvetica,sans-Serif" font-size="10.00">libs/dolphin/card/CARDBios.c</text>
</a>
</g>
</g>
<!-- Node2&#45;&gt;Node492 -->
<g id="edge37" class="edge">
<title>Node2&#45;&gt;Node492</title>
<path fill="none" stroke="#63b8ff" d="M3169.79,-145.21C3179.45,-144.42 3189.24,-143.66 3198.55,-143 3474.75,-123.27 3546.63,-147.57 3820.55,-107 3837.14,-104.54 3855.33,-100.31 3870.26,-96.41"/>
<polygon fill="#63b8ff" stroke="#63b8ff" points="3169.73,-141.7 3160.05,-146.01 3170.31,-148.68 3169.73,-141.7"/>
</g>
<!-- Node493 -->
<g id="node35" class="node">
<title>Node493</title>
<g id="a_node35"><a xlink:href="CARDUnlock_8c.html" target="_top" xlink:title=" ">
<polygon fill="white" stroke="#666666" points="4147.05,-96 3992.05,-96 3992.05,-77 4147.05,-77 4147.05,-96"/>
<text text-anchor="middle" x="4069.55" y="-84" font-family="Helvetica,sans-Serif" font-size="10.00">libs/dolphin/card/CARDUnlock.c</text>
</a>
</g>
</g>
<!-- Node2&#45;&gt;Node493 -->
<g id="edge38" class="edge">
<title>Node2&#45;&gt;Node493</title>
<path fill="none" stroke="#63b8ff" d="M3169.78,-145.1C3179.45,-144.34 3189.24,-143.61 3198.55,-143 3546.61,-120.22 3636.82,-153.32 3982.55,-107 4000.34,-104.62 4019.88,-100.39 4035.92,-96.48"/>
<polygon fill="#63b8ff" stroke="#63b8ff" points="3169.73,-141.6 3160.05,-145.9 3170.3,-148.57 3169.73,-141.6"/>
</g>
<!-- Node494 -->
<g id="node36" class="node">
<title>Node494</title>
<g id="a_node36"><a xlink:href="db_8c.html" target="_top" xlink:title=" ">
<polygon fill="white" stroke="#666666" points="4265.55,-96 4165.55,-96 4165.55,-77 4265.55,-77 4265.55,-96"/>
<text text-anchor="middle" x="4215.55" y="-84" font-family="Helvetica,sans-Serif" font-size="10.00">libs/dolphin/db/db.c</text>
</a>
</g>
</g>
<!-- Node2&#45;&gt;Node494 -->
<g id="edge39" class="edge">
<title>Node2&#45;&gt;Node494</title>
<path fill="none" stroke="#63b8ff" d="M3169.78,-145.03C3179.44,-144.27 3189.23,-143.57 3198.55,-143 3411.19,-129.97 3946.89,-144.8 4156.55,-107 4169.07,-104.74 4182.59,-100.42 4193.52,-96.42"/>
<polygon fill="#63b8ff" stroke="#63b8ff" points="3169.73,-141.52 3160.04,-145.82 3170.29,-148.5 3169.73,-141.52"/>
</g>
<!-- Node495 -->
<g id="node37" class="node">
<title>Node495</title>
<g id="a_node37"><a xlink:href="dvd_8c.html" target="_top" xlink:title=" ">
<polygon fill="white" stroke="#666666" points="4393.55,-96 4283.55,-96 4283.55,-77 4393.55,-77 4393.55,-96"/>
<text text-anchor="middle" x="4338.55" y="-84" font-family="Helvetica,sans-Serif" font-size="10.00">libs/dolphin/dvd/dvd.c</text>
</a>
</g>
</g>
<!-- Node2&#45;&gt;Node495 -->
<g id="edge40" class="edge">
<title>Node2&#45;&gt;Node495</title>
<path fill="none" stroke="#63b8ff" d="M3169.78,-144.99C3179.44,-144.24 3189.23,-143.55 3198.55,-143 3437.37,-128.86 4038.54,-146.2 4274.55,-107 4288.07,-104.75 4302.72,-100.44 4314.59,-96.43"/>
<polygon fill="#63b8ff" stroke="#63b8ff" points="3169.73,-141.49 3160.04,-145.78 3170.29,-148.46 3169.73,-141.49"/>
</g>
<!-- Node496 -->
<g id="node38" class="node">
<title>Node496</title>
<g id="a_node38"><a xlink:href="dvdfs_8c.html" target="_top" xlink:title=" ">
<polygon fill="white" stroke="#666666" points="4531.05,-96 4412.05,-96 4412.05,-77 4531.05,-77 4531.05,-96"/>
<text text-anchor="middle" x="4471.55" y="-84" font-family="Helvetica,sans-Serif" font-size="10.00">libs/dolphin/dvd/dvdfs.c</text>
</a>
</g>
</g>
<!-- Node2&#45;&gt;Node496 -->
<g id="edge41" class="edge">
<title>Node2&#45;&gt;Node496</title>
<path fill="none" stroke="#63b8ff" d="M3169.78,-144.96C3179.44,-144.22 3189.23,-143.53 3198.55,-143 3465.78,-127.66 4137.98,-147.7 4402.55,-107 4417.07,-104.77 4432.86,-100.45 4445.67,-96.44"/>
<polygon fill="#63b8ff" stroke="#63b8ff" points="3169.72,-141.46 3160.04,-145.74 3170.28,-148.43 3169.72,-141.46"/>
</g>
<!-- Node497 -->
<g id="node39" class="node">
<title>Node497</title>
<g id="a_node39"><a xlink:href="fstload_8c.html" target="_top" xlink:title=" ">
<polygon fill="white" stroke="#666666" points="4673.55,-96 4549.55,-96 4549.55,-77 4673.55,-77 4673.55,-96"/>
<text text-anchor="middle" x="4611.55" y="-84" font-family="Helvetica,sans-Serif" font-size="10.00">libs/dolphin/dvd/fstload.c</text>
</a>
</g>
</g>
<!-- Node2&#45;&gt;Node497 -->
<g id="edge42" class="edge">
<title>Node2&#45;&gt;Node497</title>
<path fill="none" stroke="#63b8ff" d="M3169.77,-144.94C3179.44,-144.19 3189.23,-143.52 3198.55,-143 3496.41,-126.36 4245.45,-150.82 4540.55,-107 4555.47,-104.78 4571.72,-100.47 4584.9,-96.46"/>
<polygon fill="#63b8ff" stroke="#63b8ff" points="3169.72,-141.43 3160.03,-145.71 3170.28,-148.41 3169.72,-141.43"/>
</g>
<!-- Node498 -->
<g id="node40" class="node">
<title>Node498</title>
<g id="a_node40"><a xlink:href="EXIBios_8c.html" target="_top" xlink:title=" ">
<polygon fill="white" stroke="#666666" points="4817.55,-96 4691.55,-96 4691.55,-77 4817.55,-77 4817.55,-96"/>
<text text-anchor="middle" x="4754.55" y="-84" font-family="Helvetica,sans-Serif" font-size="10.00">libs/dolphin/exi/EXIBios.c</text>
</a>
</g>
</g>
<!-- Node2&#45;&gt;Node498 -->
<g id="edge43" class="edge">
<title>Node2&#45;&gt;Node498</title>
<path fill="none" stroke="#63b8ff" d="M3169.77,-144.91C3179.44,-144.18 3189.23,-143.51 3198.55,-143 3527.93,-125.02 4356.1,-154.46 4682.55,-107 4697.67,-104.8 4714.15,-100.49 4727.52,-96.47"/>
<polygon fill="#63b8ff" stroke="#63b8ff" points="3169.72,-141.41 3160.03,-145.69 3170.28,-148.38 3169.72,-141.41"/>
</g>
<!-- Node499 -->
<g id="node41" class="node">
<title>Node499</title>
<g id="a_node41"><a xlink:href="EXIUart_8c.html" target="_top" xlink:title=" ">
<polygon fill="white" stroke="#666666" points="4961.05,-96 4836.05,-96 4836.05,-77 4961.05,-77 4961.05,-96"/>
<text text-anchor="middle" x="4898.55" y="-84" font-family="Helvetica,sans-Serif" font-size="10.00">libs/dolphin/exi/EXIUart.c</text>
</a>
</g>
</g>
<!-- Node2&#45;&gt;Node499 -->
<g id="edge44" class="edge">
<title>Node2&#45;&gt;Node499</title>
<path fill="none" stroke="#63b8ff" d="M3169.77,-144.9C3179.44,-144.16 3189.23,-143.5 3198.55,-143 3559.9,-123.67 4468.39,-158.68 4826.55,-107 4841.67,-104.82 4858.15,-100.5 4871.52,-96.49"/>
<polygon fill="#63b8ff" stroke="#63b8ff" points="3169.72,-141.39 3160.03,-145.67 3170.28,-148.37 3169.72,-141.39"/>
</g>
<!-- Node500 -->
<g id="node42" class="node">
<title>Node500</title>
<g id="a_node42"><a xlink:href="OS_8c.html" target="_top" xlink:title=" ">
<polygon fill="white" stroke="#666666" points="5083.55,-96 4979.55,-96 4979.55,-77 5083.55,-77 5083.55,-96"/>
<text text-anchor="middle" x="5031.55" y="-84" font-family="Helvetica,sans-Serif" font-size="10.00">libs/dolphin/os/OS.c</text>
</a>
</g>
</g>
<!-- Node2&#45;&gt;Node500 -->
<g id="edge45" class="edge">
<title>Node2&#45;&gt;Node500</title>
<path fill="none" stroke="#63b8ff" d="M3169.77,-144.88C3179.44,-144.15 3189.23,-143.49 3198.55,-143 3591.86,-122.31 4582.03,-171.64 4970.55,-107 4983.6,-104.83 4997.7,-100.46 5009.05,-96.41"/>
<polygon fill="#63b8ff" stroke="#63b8ff" points="3169.72,-141.37 3160.03,-145.65 3170.28,-148.35 3169.72,-141.37"/>
</g>
<!-- Node501 -->
<g id="node43" class="node">
<title>Node501</title>
<g id="a_node43"><a xlink:href="OSAlarm_8c.html" target="_top" xlink:title=" ">
<polygon fill="white" stroke="#666666" points="5231.05,-96 5102.05,-96 5102.05,-77 5231.05,-77 5231.05,-96"/>
<text text-anchor="middle" x="5166.55" y="-84" font-family="Helvetica,sans-Serif" font-size="10.00">libs/dolphin/os/OSAlarm.c</text>
</a>
</g>
</g>
<!-- Node2&#45;&gt;Node501 -->
<g id="edge46" class="edge">
<title>Node2&#45;&gt;Node501</title>
<path fill="none" stroke="#63b8ff" d="M3169.77,-144.87C3179.44,-144.14 3189.23,-143.48 3198.55,-143 3618.95,-121.16 4675.6,-165.05 5092.55,-107 5108.21,-104.82 5125.3,-100.45 5139.11,-96.4"/>
<polygon fill="#63b8ff" stroke="#63b8ff" points="3169.72,-141.36 3160.03,-145.64 3170.27,-148.34 3169.72,-141.36"/>
</g>
<!-- Node502 -->
<g id="node44" class="node">
<title>Node502</title>
<g id="a_node44"><a xlink:href="OSCache_8c.html" target="_top" xlink:title=" ">
<polygon fill="white" stroke="#666666" points="5380.05,-96 5249.05,-96 5249.05,-77 5380.05,-77 5380.05,-96"/>
<text text-anchor="middle" x="5314.55" y="-84" font-family="Helvetica,sans-Serif" font-size="10.00">libs/dolphin/os/OSCache.c</text>
</a>
</g>
</g>
<!-- Node2&#45;&gt;Node502 -->
<g id="edge47" class="edge">
<title>Node2&#45;&gt;Node502</title>
<path fill="none" stroke="#63b8ff" d="M3169.77,-144.86C3179.43,-144.13 3189.23,-143.48 3198.55,-143 3651.8,-119.77 4790.99,-169.27 5240.55,-107 5256.21,-104.83 5273.3,-100.46 5287.11,-96.41"/>
<polygon fill="#63b8ff" stroke="#63b8ff" points="3169.72,-141.35 3160.03,-145.62 3170.27,-148.33 3169.72,-141.35"/>
</g>
<!-- Node2&#45;&gt;Node503 -->
<g id="edge48" class="edge">
<title>Node2&#45;&gt;Node503</title>
<path fill="none" stroke="#63b8ff" d="M3169.77,-144.82C3179.43,-144.1 3189.23,-143.46 3198.55,-143 3798.32,-113.55 5304.52,-180.1 5900.55,-107 5918.03,-104.86 5937.19,-100.49 5952.7,-96.43"/>
<polygon fill="#63b8ff" stroke="#63b8ff" points="3169.72,-141.31 3160.03,-145.58 3170.27,-148.29 3169.72,-141.31"/>
</g>
<!-- Node504 -->
<g id="node46" class="node">
<title>Node504</title>
<g id="a_node46"><a xlink:href="OSError_8c.html" target="_top" xlink:title=" ">
<polygon fill="white" stroke="#666666" points="5522.55,-96 5398.55,-96 5398.55,-77 5522.55,-77 5522.55,-96"/>
<text text-anchor="middle" x="5460.55" y="-84" font-family="Helvetica,sans-Serif" font-size="10.00">libs/dolphin/os/OSError.c</text>
</a>
</g>
</g>
<!-- Node2&#45;&gt;Node504 -->
<g id="edge49" class="edge">
<title>Node2&#45;&gt;Node504</title>
<path fill="none" stroke="#63b8ff" d="M3169.77,-144.85C3179.43,-144.12 3189.23,-143.47 3198.55,-143 3684.88,-118.36 4907.51,-176.03 5389.55,-107 5404.6,-104.84 5421.01,-100.48 5434.25,-96.42"/>
<polygon fill="#63b8ff" stroke="#63b8ff" points="3169.72,-141.34 3160.03,-145.61 3170.27,-148.32 3169.72,-141.34"/>
</g>
<!-- Node505 -->
<g id="node47" class="node">
<title>Node505</title>
<g id="a_node47"><a xlink:href="OSInterrupt_8c.html" target="_top" xlink:title=" ">
<polygon fill="white" stroke="#666666" points="5680.55,-96 5540.55,-96 5540.55,-77 5680.55,-77 5680.55,-96"/>
<text text-anchor="middle" x="5610.55" y="-84" font-family="Helvetica,sans-Serif" font-size="10.00">libs/dolphin/os/OSInterrupt.c</text>
</a>
</g>
</g>
<!-- Node2&#45;&gt;Node505 -->
<g id="edge50" class="edge">
<title>Node2&#45;&gt;Node505</title>
<path fill="none" stroke="#63b8ff" d="M3169.77,-144.84C3179.43,-144.11 3189.23,-143.47 3198.55,-143 3716.4,-117.03 5017.33,-173.55 5531.55,-107 5548.22,-104.84 5566.46,-100.48 5581.21,-96.42"/>
<polygon fill="#63b8ff" stroke="#63b8ff" points="3169.72,-141.33 3160.03,-145.6 3170.27,-148.31 3169.72,-141.33"/>
</g>
<!-- Node3&#45;&gt;Node453 -->
<g id="edge3" class="edge">
<title>Node3&#45;&gt;Node453</title>
<path fill="none" stroke="#63b8ff" d="M5702.66,-68.45C5698.25,-67.5 5693.84,-66.66 5689.55,-66 5417.49,-24.02 4552.16,-17.27 4306.91,-16.2"/>
<polygon fill="#63b8ff" stroke="#63b8ff" points="5701.56,-71.79 5712.1,-70.68 5703.17,-64.98 5701.56,-71.79"/>
</g>
<!-- Node3&#45;&gt;Node457 -->
<g id="edge4" class="edge">
<title>Node3&#45;&gt;Node457</title>
<path fill="none" stroke="#63b8ff" d="M5759.55,-59.76C5759.55,-49.83 5759.55,-38.86 5759.55,-30.38"/>
<polygon fill="#63b8ff" stroke="#63b8ff" points="5756.05,-59.59 5759.55,-69.59 5763.05,-59.59 5756.05,-59.59"/>
</g>
<!-- Node3&#45;&gt;Node460 -->
<g id="edge5" class="edge">
<title>Node3&#45;&gt;Node460</title>
<path fill="none" stroke="#63b8ff" d="M5795.82,-65.65C5816.38,-54.4 5841.63,-40.58 5860.27,-30.38"/>
<polygon fill="#63b8ff" stroke="#63b8ff" points="5794.28,-62.5 5787.19,-70.37 5797.64,-68.64 5794.28,-62.5"/>
</g>
<!-- Node3&#45;&gt;Node467 -->
<g id="edge6" class="edge">
<title>Node3&#45;&gt;Node467</title>
<path fill="none" stroke="#63b8ff" d="M5703.49,-68.51C5698.8,-67.51 5694.11,-66.65 5689.55,-66 5466.71,-34.23 1881.21,-18.23 1399.02,-16.22"/>
<polygon fill="#63b8ff" stroke="#63b8ff" points="5702.34,-71.84 5712.88,-70.72 5703.94,-65.03 5702.34,-71.84"/>
</g>
<!-- Node517&#45;&gt;Node2 -->
<g id="edge52" class="edge">
<title>Node517&#45;&gt;Node2</title>
<path fill="none" stroke="#63b8ff" d="M3098.55,-186.3C3098.55,-177.65 3098.55,-168.58 3098.55,-162.18"/>
<polygon fill="#63b8ff" stroke="#63b8ff" points="3095.05,-186.03 3098.55,-196.03 3102.05,-186.03 3095.05,-186.03"/>
</g>
</g>
</svg>
