<?xml version="1.0" encoding="UTF-8" standalone="no"?>
<!DOCTYPE svg PUBLIC "-//W3C//DTD SVG 1.1//EN"
 "http://www.w3.org/Graphics/SVG/1.1/DTD/svg11.dtd">
<!-- Generated by graphviz version 7.0.5 (20221223.1930)
 -->
<!-- Title: include/dolphin/os/OSExec.h Pages: 1 -->
<svg width="6372pt" height="236pt"
 viewBox="0.00 0.00 6372.05 236.00" xmlns="http://www.w3.org/2000/svg" xmlns:xlink="http://www.w3.org/1999/xlink">
<g id="graph0" class="graph" transform="scale(1 1) rotate(0) translate(4 232)">
<title>include/dolphin/os/OSExec.h</title>
<!-- Node1 -->
<g id="node1" class="node">
<title>Node1</title>
<g id="a_node1"><a xlink:title=" ">
<polygon fill="#999999" stroke="#666666" points="4872.05,-228 4777.05,-228 4777.05,-198 4872.05,-198 4872.05,-228"/>
<text text-anchor="start" x="4785.05" y="-216" font-family="Helvetica,sans-Serif" font-size="10.00">include/dolphin/os</text>
<text text-anchor="middle" x="4824.55" y="-205" font-family="Helvetica,sans-Serif" font-size="10.00">/OSExec.h</text>
</a>
</g>
</g>
<!-- Node2 -->
<g id="node2" class="node">
<title>Node2</title>
<g id="a_node2"><a xlink:href="OS_8h.html" target="_top" xlink:title=" ">
<polygon fill="#fff0f0" stroke="red" points="3320.05,-162 3201.05,-162 3201.05,-143 3320.05,-143 3320.05,-162"/>
<text text-anchor="middle" x="3260.55" y="-150" font-family="Helvetica,sans-Serif" font-size="10.00">include/dolphin/os/OS.h</text>
</a>
</g>
</g>
<!-- Node1&#45;&gt;Node2 -->
<g id="edge1" class="edge">
<title>Node1&#45;&gt;Node2</title>
<path fill="none" stroke="#63b8ff" d="M4765.68,-209.8C4518.87,-200.57 3568.97,-165.04 3320.38,-155.74"/>
<polygon fill="#63b8ff" stroke="#63b8ff" points="4765.26,-213.28 4775.38,-210.16 4765.52,-206.29 4765.26,-213.28"/>
</g>
<!-- Node638 -->
<g id="node49" class="node">
<title>Node638</title>
<g id="a_node49"><a xlink:href="OSExec_8c.html" target="_top" xlink:title=" ">
<polygon fill="white" stroke="#666666" points="6364.05,-96 6239.05,-96 6239.05,-77 6364.05,-77 6364.05,-96"/>
<text text-anchor="middle" x="6301.55" y="-84" font-family="Helvetica,sans-Serif" font-size="10.00">libs/dolphin/os/OSExec.c</text>
</a>
</g>
</g>
<!-- Node1&#45;&gt;Node638 -->
<g id="edge53" class="edge">
<title>Node1&#45;&gt;Node638</title>
<path fill="none" stroke="#63b8ff" d="M4824.5,-186.42C4825.95,-171.29 4830.58,-153.15 4843.55,-143 4903.99,-95.7 6148.52,-117.49 6224.55,-107 6240.67,-104.78 6258.29,-100.46 6272.6,-96.45"/>
<polygon fill="#63b8ff" stroke="#63b8ff" points="4821.01,-186.03 4824,-196.19 4828.01,-186.39 4821.01,-186.03"/>
</g>
<!-- Node652 -->
<g id="node50" class="node">
<title>Node652</title>
<g id="a_node50"><a xlink:href="OSReboot_8c.html" target="_top" xlink:title=" ">
<polygon fill="white" stroke="#666666" points="4986.55,-162 4852.55,-162 4852.55,-143 4986.55,-143 4986.55,-162"/>
<text text-anchor="middle" x="4919.55" y="-150" font-family="Helvetica,sans-Serif" font-size="10.00">libs/dolphin/os/OSReboot.c</text>
</a>
</g>
</g>
<!-- Node1&#45;&gt;Node652 -->
<g id="edge54" class="edge">
<title>Node1&#45;&gt;Node652</title>
<path fill="none" stroke="#63b8ff" d="M4857.74,-191.56C4873.97,-181.57 4892.65,-170.07 4905.19,-162.35"/>
<polygon fill="#63b8ff" stroke="#63b8ff" points="4856.01,-188.52 4849.33,-196.75 4859.68,-194.48 4856.01,-188.52"/>
</g>
<!-- Node3 -->
<g id="node3" class="node">
<title>Node3</title>
<g id="a_node3"><a xlink:href="JUTAssert_8h.html" target="_top" xlink:title=" ">
<polygon fill="#fff0f0" stroke="red" points="6144.55,-101.5 6022.55,-101.5 6022.55,-71.5 6144.55,-71.5 6144.55,-101.5"/>
<text text-anchor="start" x="6030.55" y="-89.5" font-family="Helvetica,sans-Serif" font-size="10.00">include/JSystem/JUtility</text>
<text text-anchor="middle" x="6083.55" y="-78.5" font-family="Helvetica,sans-Serif" font-size="10.00">/JUTAssert.h</text>
</a>
</g>
</g>
<!-- Node2&#45;&gt;Node3 -->
<g id="edge2" class="edge">
<title>Node2&#45;&gt;Node3</title>
<path fill="none" stroke="#63b8ff" d="M3331.68,-151.44C3736.51,-150.93 5741.56,-146.42 6013.55,-107 6021.54,-105.84 6029.91,-104.04 6037.97,-102"/>
<polygon fill="#63b8ff" stroke="#63b8ff" points="3331.96,-147.94 3321.97,-151.45 3331.97,-154.94 3331.96,-147.94"/>
</g>
<!-- Node575 -->
<g id="node4" class="node">
<title>Node575</title>
<g id="a_node4"><a xlink:href="JFWDisplay_8cpp.html" target="_top" xlink:title=" ">
<polygon fill="white" stroke="#666666" points="4549.55,-30 4419.55,-30 4419.55,0 4549.55,0 4549.55,-30"/>
<text text-anchor="start" x="4427.55" y="-18" font-family="Helvetica,sans-Serif" font-size="10.00">libs/JSystem/JFramework</text>
<text text-anchor="middle" x="4484.55" y="-7" font-family="Helvetica,sans-Serif" font-size="10.00">/JFWDisplay.cpp</text>
</a>
</g>
</g>
<!-- Node2&#45;&gt;Node575 -->
<g id="edge24" class="edge">
<title>Node2&#45;&gt;Node575</title>
<path fill="none" stroke="#63b8ff" d="M3189.35,-151.2C2716.82,-149.13 51.34,-136.18 22.55,-107 9.76,-94.03 9.74,-78.96 22.55,-66 62.99,-25.11 3870.8,-17.05 4419.08,-16.1"/>
<polygon fill="#63b8ff" stroke="#63b8ff" points="3189.23,-154.7 3199.24,-151.24 3189.26,-147.7 3189.23,-154.7"/>
</g>
<!-- Node592 -->
<g id="node5" class="node">
<title>Node592</title>
<g id="a_node5"><a xlink:href="JKRDvdArchive_8cpp.html" target="_top" xlink:title=" ">
<polygon fill="white" stroke="#666666" points="6138.05,-30 6029.05,-30 6029.05,0 6138.05,0 6138.05,-30"/>
<text text-anchor="start" x="6037.05" y="-18" font-family="Helvetica,sans-Serif" font-size="10.00">libs/JSystem/JKernel</text>
<text text-anchor="middle" x="6083.55" y="-7" font-family="Helvetica,sans-Serif" font-size="10.00">/JKRDvdArchive.cpp</text>
</a>
</g>
</g>
<!-- Node2&#45;&gt;Node592 -->
<g id="edge26" class="edge">
<title>Node2&#45;&gt;Node592</title>
<path fill="none" stroke="#63b8ff" d="M3331.72,-151.08C3773.92,-148.41 6128.01,-132.94 6153.55,-107 6166.34,-94.02 6161.89,-82.2 6153.55,-66 6145.56,-50.46 6130.25,-38.68 6115.98,-30.47"/>
<polygon fill="#63b8ff" stroke="#63b8ff" points="3331.9,-147.58 3321.92,-151.14 3331.94,-154.58 3331.9,-147.58"/>
</g>
<!-- Node595 -->
<g id="node6" class="node">
<title>Node595</title>
<g id="a_node6"><a xlink:href="JKRHeap_8cpp.html" target="_top" xlink:title=" ">
<polygon fill="white" stroke="#666666" points="6265.05,-30 6156.05,-30 6156.05,0 6265.05,0 6265.05,-30"/>
<text text-anchor="start" x="6164.05" y="-18" font-family="Helvetica,sans-Serif" font-size="10.00">libs/JSystem/JKernel</text>
<text text-anchor="middle" x="6210.55" y="-7" font-family="Helvetica,sans-Serif" font-size="10.00">/JKRHeap.cpp</text>
</a>
</g>
</g>
<!-- Node2&#45;&gt;Node595 -->
<g id="edge27" class="edge">
<title>Node2&#45;&gt;Node595</title>
<path fill="none" stroke="#63b8ff" d="M3331.68,-150.94C3774.97,-147.37 6141.12,-127.41 6171.55,-107 6197.39,-89.68 6206.19,-51.36 6209.13,-30.39"/>
<polygon fill="#63b8ff" stroke="#63b8ff" points="3331.83,-147.44 3321.86,-151.02 3331.88,-154.44 3331.83,-147.44"/>
</g>
<!-- Node581 -->
<g id="node7" class="node">
<title>Node581</title>
<g id="a_node7"><a xlink:href="JUTConsole_8cpp.html" target="_top" xlink:title=" ">
<polygon fill="white" stroke="#666666" points="1479.55,-30 1373.55,-30 1373.55,0 1479.55,0 1479.55,-30"/>
<text text-anchor="start" x="1381.55" y="-18" font-family="Helvetica,sans-Serif" font-size="10.00">libs/JSystem/JUtility</text>
<text text-anchor="middle" x="1426.55" y="-7" font-family="Helvetica,sans-Serif" font-size="10.00">/JUTConsole.cpp</text>
</a>
</g>
</g>
<!-- Node2&#45;&gt;Node581 -->
<g id="edge30" class="edge">
<title>Node2&#45;&gt;Node581</title>
<path fill="none" stroke="#63b8ff" d="M3189.44,-151.21C2716.05,-149.16 38.46,-136.31 9.55,-107 -3.24,-94.03 -3.1,-79.11 9.55,-66 57.74,-16.08 1120.51,-15.31 1373.06,-15.83"/>
<polygon fill="#63b8ff" stroke="#63b8ff" points="3189.34,-154.7 3199.35,-151.25 3189.37,-147.7 3189.34,-154.7"/>
</g>
<!-- Node598 -->
<g id="node8" class="node">
<title>Node598</title>
<g id="a_node8"><a xlink:href="dolphin__trk__glue_8h.html" target="_top" xlink:title=" ">
<polygon fill="#fff0f0" stroke="red" points="149.55,-107 31.55,-107 31.55,-66 149.55,-66 149.55,-107"/>
<text text-anchor="start" x="39.55" y="-95" font-family="Helvetica,sans-Serif" font-size="10.00">include/TRK_MINNOW</text>
<text text-anchor="start" x="39.55" y="-84" font-family="Helvetica,sans-Serif" font-size="10.00">_DOLPHIN/Os/dolphin</text>
<text text-anchor="middle" x="90.55" y="-73" font-family="Helvetica,sans-Serif" font-size="10.00">/dolphin_trk_glue.h</text>
</a>
</g>
</g>
<!-- Node2&#45;&gt;Node598 -->
<g id="edge7" class="edge">
<title>Node2&#45;&gt;Node598</title>
<path fill="none" stroke="#63b8ff" d="M3189.31,-151.61C2754.53,-152.12 466.93,-152.6 158.55,-107 155.64,-106.57 152.67,-106.05 149.69,-105.46"/>
<polygon fill="#63b8ff" stroke="#63b8ff" points="3189.23,-155.11 3199.22,-151.6 3189.22,-148.11 3189.23,-155.11"/>
</g>
<!-- Node600 -->
<g id="node9" class="node">
<title>Node600</title>
<g id="a_node9"><a xlink:href="J2DAnimation_8cpp.html" target="_top" xlink:title=" ">
<polygon fill="white" stroke="#666666" points="287.05,-101.5 168.05,-101.5 168.05,-71.5 287.05,-71.5 287.05,-101.5"/>
<text text-anchor="start" x="176.05" y="-89.5" font-family="Helvetica,sans-Serif" font-size="10.00">libs/JSystem/J2DGraph</text>
<text text-anchor="middle" x="227.55" y="-78.5" font-family="Helvetica,sans-Serif" font-size="10.00">/J2DAnimation.cpp</text>
</a>
</g>
</g>
<!-- Node2&#45;&gt;Node600 -->
<g id="edge8" class="edge">
<title>Node2&#45;&gt;Node600</title>
<path fill="none" stroke="#63b8ff" d="M3189.14,-151.54C2765.47,-151.63 590.5,-149.99 296.55,-107 288.55,-105.83 280.16,-104 272.1,-101.91"/>
<polygon fill="#63b8ff" stroke="#63b8ff" points="3189.07,-155.04 3199.06,-151.54 3189.06,-148.04 3189.07,-155.04"/>
</g>
<!-- Node601 -->
<g id="node10" class="node">
<title>Node601</title>
<g id="a_node10"><a xlink:href="J3DModel_8cpp.html" target="_top" xlink:title=" ">
<polygon fill="white" stroke="#666666" points="463.55,-101.5 305.55,-101.5 305.55,-71.5 463.55,-71.5 463.55,-101.5"/>
<text text-anchor="start" x="313.55" y="-89.5" font-family="Helvetica,sans-Serif" font-size="10.00">libs/JSystem/J3DGraphAnimator</text>
<text text-anchor="middle" x="384.55" y="-78.5" font-family="Helvetica,sans-Serif" font-size="10.00">/J3DModel.cpp</text>
</a>
</g>
</g>
<!-- Node2&#45;&gt;Node601 -->
<g id="edge9" class="edge">
<title>Node2&#45;&gt;Node601</title>
<path fill="none" stroke="#63b8ff" d="M3189.54,-151.23C2782.02,-149.53 749.2,-139.52 472.55,-107 462.61,-105.83 452.13,-104.03 442.02,-101.98"/>
<polygon fill="#63b8ff" stroke="#63b8ff" points="3189.31,-154.72 3199.33,-151.27 3189.34,-147.72 3189.31,-154.72"/>
</g>
<!-- Node602 -->
<g id="node11" class="node">
<title>Node602</title>
<g id="a_node11"><a xlink:href="J3DModelData_8cpp.html" target="_top" xlink:title=" ">
<polygon fill="white" stroke="#666666" points="639.55,-101.5 481.55,-101.5 481.55,-71.5 639.55,-71.5 639.55,-101.5"/>
<text text-anchor="start" x="489.55" y="-89.5" font-family="Helvetica,sans-Serif" font-size="10.00">libs/JSystem/J3DGraphAnimator</text>
<text text-anchor="middle" x="560.55" y="-78.5" font-family="Helvetica,sans-Serif" font-size="10.00">/J3DModelData.cpp</text>
</a>
</g>
</g>
<!-- Node2&#45;&gt;Node602 -->
<g id="edge10" class="edge">
<title>Node2&#45;&gt;Node602</title>
<path fill="none" stroke="#63b8ff" d="M3189.38,-151.14C2797.06,-149.06 906.69,-137.48 648.55,-107 638.61,-105.83 628.13,-104.02 618.02,-101.97"/>
<polygon fill="#63b8ff" stroke="#63b8ff" points="3189.29,-154.64 3199.31,-151.19 3189.33,-147.64 3189.29,-154.64"/>
</g>
<!-- Node603 -->
<g id="node12" class="node">
<title>Node603</title>
<g id="a_node12"><a xlink:href="J3DSkinDeform_8cpp.html" target="_top" xlink:title=" ">
<polygon fill="white" stroke="#666666" points="815.55,-101.5 657.55,-101.5 657.55,-71.5 815.55,-71.5 815.55,-101.5"/>
<text text-anchor="start" x="665.55" y="-89.5" font-family="Helvetica,sans-Serif" font-size="10.00">libs/JSystem/J3DGraphAnimator</text>
<text text-anchor="middle" x="736.55" y="-78.5" font-family="Helvetica,sans-Serif" font-size="10.00">/J3DSkinDeform.cpp</text>
</a>
</g>
</g>
<!-- Node2&#45;&gt;Node603 -->
<g id="edge11" class="edge">
<title>Node2&#45;&gt;Node603</title>
<path fill="none" stroke="#63b8ff" d="M3189.39,-151.05C2813.18,-148.55 1064.25,-135.46 824.55,-107 814.61,-105.82 804.14,-104.01 794.02,-101.96"/>
<polygon fill="#63b8ff" stroke="#63b8ff" points="3189.1,-154.55 3199.12,-151.11 3189.15,-147.55 3189.1,-154.55"/>
</g>
<!-- Node604 -->
<g id="node13" class="node">
<title>Node604</title>
<g id="a_node13"><a xlink:href="J3DGD_8cpp.html" target="_top" xlink:title=" ">
<polygon fill="white" stroke="#666666" points="975.55,-101.5 833.55,-101.5 833.55,-71.5 975.55,-71.5 975.55,-101.5"/>
<text text-anchor="start" x="841.55" y="-89.5" font-family="Helvetica,sans-Serif" font-size="10.00">libs/JSystem/J3DGraphBase</text>
<text text-anchor="middle" x="904.55" y="-78.5" font-family="Helvetica,sans-Serif" font-size="10.00">/J3DGD.cpp</text>
</a>
</g>
</g>
<!-- Node2&#45;&gt;Node604 -->
<g id="edge12" class="edge">
<title>Node2&#45;&gt;Node604</title>
<path fill="none" stroke="#63b8ff" d="M3189.46,-151.04C2828.52,-148.57 1207.24,-135.96 984.55,-107 975.48,-105.82 965.94,-104.01 956.74,-101.96"/>
<polygon fill="#63b8ff" stroke="#63b8ff" points="3189.23,-154.54 3199.26,-151.11 3189.28,-147.54 3189.23,-154.54"/>
</g>
<!-- Node605 -->
<g id="node14" class="node">
<title>Node605</title>
<g id="a_node14"><a xlink:href="J3DMatBlock_8cpp.html" target="_top" xlink:title=" ">
<polygon fill="white" stroke="#666666" points="1135.55,-101.5 993.55,-101.5 993.55,-71.5 1135.55,-71.5 1135.55,-101.5"/>
<text text-anchor="start" x="1001.55" y="-89.5" font-family="Helvetica,sans-Serif" font-size="10.00">libs/JSystem/J3DGraphBase</text>
<text text-anchor="middle" x="1064.55" y="-78.5" font-family="Helvetica,sans-Serif" font-size="10.00">/J3DMatBlock.cpp</text>
</a>
</g>
</g>
<!-- Node2&#45;&gt;Node605 -->
<g id="edge13" class="edge">
<title>Node2&#45;&gt;Node605</title>
<path fill="none" stroke="#63b8ff" d="M3189.5,-150.93C2844.31,-148.01 1350.57,-133.95 1144.55,-107 1135.48,-105.81 1125.95,-104 1116.74,-101.95"/>
<polygon fill="#63b8ff" stroke="#63b8ff" points="3189.27,-154.42 3199.3,-151.01 3189.33,-147.42 3189.27,-154.42"/>
</g>
<!-- Node606 -->
<g id="node15" class="node">
<title>Node606</title>
<g id="a_node15"><a xlink:href="J3DShape_8cpp.html" target="_top" xlink:title=" ">
<polygon fill="white" stroke="#666666" points="1295.55,-101.5 1153.55,-101.5 1153.55,-71.5 1295.55,-71.5 1295.55,-101.5"/>
<text text-anchor="start" x="1161.55" y="-89.5" font-family="Helvetica,sans-Serif" font-size="10.00">libs/JSystem/J3DGraphBase</text>
<text text-anchor="middle" x="1224.55" y="-78.5" font-family="Helvetica,sans-Serif" font-size="10.00">/J3DShape.cpp</text>
</a>
</g>
</g>
<!-- Node2&#45;&gt;Node606 -->
<g id="edge14" class="edge">
<title>Node2&#45;&gt;Node606</title>
<path fill="none" stroke="#63b8ff" d="M3189.33,-150.79C2860.13,-147.4 1493.9,-131.93 1304.55,-107 1295.48,-105.81 1285.95,-103.99 1276.75,-101.94"/>
<polygon fill="#63b8ff" stroke="#63b8ff" points="3189.05,-154.29 3199.09,-150.89 3189.12,-147.29 3189.05,-154.29"/>
</g>
<!-- Node607 -->
<g id="node16" class="node">
<title>Node607</title>
<g id="a_node16"><a xlink:href="J3DSys_8cpp.html" target="_top" xlink:title=" ">
<polygon fill="white" stroke="#666666" points="1455.55,-101.5 1313.55,-101.5 1313.55,-71.5 1455.55,-71.5 1455.55,-101.5"/>
<text text-anchor="start" x="1321.55" y="-89.5" font-family="Helvetica,sans-Serif" font-size="10.00">libs/JSystem/J3DGraphBase</text>
<text text-anchor="middle" x="1384.55" y="-78.5" font-family="Helvetica,sans-Serif" font-size="10.00">/J3DSys.cpp</text>
</a>
</g>
</g>
<!-- Node2&#45;&gt;Node607 -->
<g id="edge15" class="edge">
<title>Node2&#45;&gt;Node607</title>
<path fill="none" stroke="#63b8ff" d="M3189.82,-151.77C2900.57,-152.56 1806.85,-152.42 1464.55,-107 1455.48,-105.8 1445.95,-103.98 1436.75,-101.92"/>
<polygon fill="#63b8ff" stroke="#63b8ff" points="3189.48,-155.27 3199.47,-151.74 3189.46,-148.27 3189.48,-155.27"/>
</g>
<!-- Node608 -->
<g id="node17" class="node">
<title>Node608</title>
<g id="a_node17"><a xlink:href="J3DClusterLoader_8cpp.html" target="_top" xlink:title=" ">
<polygon fill="white" stroke="#666666" points="1623.05,-101.5 1474.05,-101.5 1474.05,-71.5 1623.05,-71.5 1623.05,-101.5"/>
<text text-anchor="start" x="1482.05" y="-89.5" font-family="Helvetica,sans-Serif" font-size="10.00">libs/JSystem/J3DGraphLoader</text>
<text text-anchor="middle" x="1548.55" y="-78.5" font-family="Helvetica,sans-Serif" font-size="10.00">/J3DClusterLoader.cpp</text>
</a>
</g>
</g>
<!-- Node2&#45;&gt;Node608 -->
<g id="edge16" class="edge">
<title>Node2&#45;&gt;Node608</title>
<path fill="none" stroke="#63b8ff" d="M3189.33,-151.48C2916.71,-151.11 1939.44,-146.95 1631.55,-107 1622.31,-105.8 1612.58,-104.01 1603.18,-101.99"/>
<polygon fill="#63b8ff" stroke="#63b8ff" points="3189.12,-154.98 3199.12,-151.49 3189.13,-147.98 3189.12,-154.98"/>
</g>
<!-- Node609 -->
<g id="node18" class="node">
<title>Node609</title>
<g id="a_node18"><a xlink:href="J3DModelLoader_8cpp.html" target="_top" xlink:title=" ">
<polygon fill="white" stroke="#666666" points="1790.05,-101.5 1641.05,-101.5 1641.05,-71.5 1790.05,-71.5 1790.05,-101.5"/>
<text text-anchor="start" x="1649.05" y="-89.5" font-family="Helvetica,sans-Serif" font-size="10.00">libs/JSystem/J3DGraphLoader</text>
<text text-anchor="middle" x="1715.55" y="-78.5" font-family="Helvetica,sans-Serif" font-size="10.00">/J3DModelLoader.cpp</text>
</a>
</g>
</g>
<!-- Node2&#45;&gt;Node609 -->
<g id="edge17" class="edge">
<title>Node2&#45;&gt;Node609</title>
<path fill="none" stroke="#63b8ff" d="M3189.56,-151.22C2935.51,-149.93 2072.24,-142.95 1798.55,-107 1789.31,-105.79 1779.59,-103.99 1770.18,-101.97"/>
<polygon fill="#63b8ff" stroke="#63b8ff" points="3189.3,-154.72 3199.32,-151.27 3189.34,-147.72 3189.3,-154.72"/>
</g>
<!-- Node610 -->
<g id="node19" class="node">
<title>Node610</title>
<g id="a_node19"><a xlink:href="J3DShapeFactory_8cpp.html" target="_top" xlink:title=" ">
<polygon fill="white" stroke="#666666" points="1957.05,-101.5 1808.05,-101.5 1808.05,-71.5 1957.05,-71.5 1957.05,-101.5"/>
<text text-anchor="start" x="1816.05" y="-89.5" font-family="Helvetica,sans-Serif" font-size="10.00">libs/JSystem/J3DGraphLoader</text>
<text text-anchor="middle" x="1882.55" y="-78.5" font-family="Helvetica,sans-Serif" font-size="10.00">/J3DShapeFactory.cpp</text>
</a>
</g>
</g>
<!-- Node2&#45;&gt;Node610 -->
<g id="edge18" class="edge">
<title>Node2&#45;&gt;Node610</title>
<path fill="none" stroke="#63b8ff" d="M3189.17,-150.89C2954,-148.6 2204.98,-138.92 1965.55,-107 1956.31,-105.77 1946.59,-103.96 1937.19,-101.94"/>
<polygon fill="#63b8ff" stroke="#63b8ff" points="3189.09,-154.39 3199.12,-150.99 3189.15,-147.39 3189.09,-154.39"/>
</g>
<!-- Node507 -->
<g id="node20" class="node">
<title>Node507</title>
<g id="a_node20"><a xlink:href="JASAudioThread_8cpp.html" target="_top" xlink:title=" ">
<polygon fill="white" stroke="#666666" points="2086.05,-101.5 1975.05,-101.5 1975.05,-71.5 2086.05,-71.5 2086.05,-101.5"/>
<text text-anchor="start" x="1983.05" y="-89.5" font-family="Helvetica,sans-Serif" font-size="10.00">libs/JSystem/JAudio2</text>
<text text-anchor="middle" x="2030.55" y="-78.5" font-family="Helvetica,sans-Serif" font-size="10.00">/JASAudioThread.cpp</text>
</a>
</g>
</g>
<!-- Node2&#45;&gt;Node507 -->
<g id="edge19" class="edge">
<title>Node2&#45;&gt;Node507</title>
<path fill="none" stroke="#63b8ff" d="M3189.22,-151.18C2969.77,-149.81 2306.75,-142.76 2094.55,-107 2087.34,-105.78 2079.8,-103.99 2072.53,-101.96"/>
<polygon fill="#63b8ff" stroke="#63b8ff" points="3189.04,-154.68 3199.06,-151.24 3189.08,-147.68 3189.04,-154.68"/>
</g>
<!-- Node611 -->
<g id="node21" class="node">
<title>Node611</title>
<g id="a_node21"><a xlink:href="JASProbe_8cpp.html" target="_top" xlink:title=" ">
<polygon fill="white" stroke="#666666" points="2215.05,-101.5 2104.05,-101.5 2104.05,-71.5 2215.05,-71.5 2215.05,-101.5"/>
<text text-anchor="start" x="2112.05" y="-89.5" font-family="Helvetica,sans-Serif" font-size="10.00">libs/JSystem/JAudio2</text>
<text text-anchor="middle" x="2159.55" y="-78.5" font-family="Helvetica,sans-Serif" font-size="10.00">/JASProbe.cpp</text>
</a>
</g>
</g>
<!-- Node2&#45;&gt;Node611 -->
<g id="edge20" class="edge">
<title>Node2&#45;&gt;Node611</title>
<path fill="none" stroke="#63b8ff" d="M3189.28,-150.78C2986.62,-148.37 2409.77,-138.84 2223.55,-107 2216.34,-105.77 2208.8,-103.96 2201.53,-101.94"/>
<polygon fill="#63b8ff" stroke="#63b8ff" points="3189.1,-154.28 3199.14,-150.9 3189.18,-147.28 3189.1,-154.28"/>
</g>
<!-- Node612 -->
<g id="node22" class="node">
<title>Node612</title>
<g id="a_node22"><a xlink:href="JASTaskThread_8cpp.html" target="_top" xlink:title=" ">
<polygon fill="white" stroke="#666666" points="2344.05,-101.5 2233.05,-101.5 2233.05,-71.5 2344.05,-71.5 2344.05,-101.5"/>
<text text-anchor="start" x="2241.05" y="-89.5" font-family="Helvetica,sans-Serif" font-size="10.00">libs/JSystem/JAudio2</text>
<text text-anchor="middle" x="2288.55" y="-78.5" font-family="Helvetica,sans-Serif" font-size="10.00">/JASTaskThread.cpp</text>
</a>
</g>
</g>
<!-- Node2&#45;&gt;Node612 -->
<g id="edge21" class="edge">
<title>Node2&#45;&gt;Node612</title>
<path fill="none" stroke="#63b8ff" d="M3189.38,-150.28C3004.61,-146.74 2512.96,-134.92 2352.55,-107 2345.46,-105.76 2338.05,-103.98 2330.89,-101.99"/>
<polygon fill="#63b8ff" stroke="#63b8ff" points="3189.26,-153.78 3199.32,-150.47 3189.39,-146.78 3189.26,-153.78"/>
</g>
<!-- Node613 -->
<g id="node23" class="node">
<title>Node613</title>
<g id="a_node23"><a xlink:href="dsptask_8cpp.html" target="_top" xlink:title=" ">
<polygon fill="white" stroke="#666666" points="2473.05,-101.5 2362.05,-101.5 2362.05,-71.5 2473.05,-71.5 2473.05,-101.5"/>
<text text-anchor="start" x="2370.05" y="-89.5" font-family="Helvetica,sans-Serif" font-size="10.00">libs/JSystem/JAudio2</text>
<text text-anchor="middle" x="2417.55" y="-78.5" font-family="Helvetica,sans-Serif" font-size="10.00">/dsptask.cpp</text>
</a>
</g>
</g>
<!-- Node2&#45;&gt;Node613 -->
<g id="edge22" class="edge">
<title>Node2&#45;&gt;Node613</title>
<path fill="none" stroke="#63b8ff" d="M3189.24,-149.6C3023.5,-144.84 2616.27,-131.01 2481.55,-107 2474.46,-105.74 2467.05,-103.94 2459.9,-101.95"/>
<polygon fill="#63b8ff" stroke="#63b8ff" points="3189.14,-153.1 3199.23,-149.89 3189.34,-146.1 3189.14,-153.1"/>
</g>
<!-- Node614 -->
<g id="node24" class="node">
<title>Node614</title>
<g id="a_node24"><a xlink:href="osdsp_8cpp.html" target="_top" xlink:title=" ">
<polygon fill="white" stroke="#666666" points="2602.05,-101.5 2491.05,-101.5 2491.05,-71.5 2602.05,-71.5 2602.05,-101.5"/>
<text text-anchor="start" x="2499.05" y="-89.5" font-family="Helvetica,sans-Serif" font-size="10.00">libs/JSystem/JAudio2</text>
<text text-anchor="middle" x="2546.55" y="-78.5" font-family="Helvetica,sans-Serif" font-size="10.00">/osdsp.cpp</text>
</a>
</g>
</g>
<!-- Node2&#45;&gt;Node614 -->
<g id="edge23" class="edge">
<title>Node2&#45;&gt;Node614</title>
<path fill="none" stroke="#63b8ff" d="M3189.62,-151.89C3069.44,-151.39 2818.54,-145.29 2610.55,-107 2603.59,-105.72 2596.3,-103.94 2589.25,-101.97"/>
<polygon fill="#63b8ff" stroke="#63b8ff" points="3189.32,-155.39 3199.33,-151.92 3189.34,-148.39 3189.32,-155.39"/>
</g>
<!-- Node615 -->
<g id="node25" class="node">
<title>Node615</title>
<g id="a_node25"><a xlink:href="JKRAramPiece_8cpp.html" target="_top" xlink:title=" ">
<polygon fill="white" stroke="#666666" points="2729.05,-101.5 2620.05,-101.5 2620.05,-71.5 2729.05,-71.5 2729.05,-101.5"/>
<text text-anchor="start" x="2628.05" y="-89.5" font-family="Helvetica,sans-Serif" font-size="10.00">libs/JSystem/JKernel</text>
<text text-anchor="middle" x="2674.55" y="-78.5" font-family="Helvetica,sans-Serif" font-size="10.00">/JKRAramPiece.cpp</text>
</a>
</g>
</g>
<!-- Node2&#45;&gt;Node615 -->
<g id="edge25" class="edge">
<title>Node2&#45;&gt;Node615</title>
<path fill="none" stroke="#63b8ff" d="M3189.62,-150.18C3088.6,-147.22 2897.86,-137.7 2738.55,-107 2731.71,-105.68 2724.56,-103.91 2717.62,-101.97"/>
<polygon fill="#63b8ff" stroke="#63b8ff" points="3189.29,-153.67 3199.38,-150.45 3189.48,-146.67 3189.29,-153.67"/>
</g>
<!-- Node616 -->
<g id="node26" class="node">
<title>Node616</title>
<g id="a_node26"><a xlink:href="JPAChildShape_8cpp.html" target="_top" xlink:title=" ">
<polygon fill="white" stroke="#666666" points="2861.55,-101.5 2747.55,-101.5 2747.55,-71.5 2861.55,-71.5 2861.55,-101.5"/>
<text text-anchor="start" x="2755.55" y="-89.5" font-family="Helvetica,sans-Serif" font-size="10.00">libs/JSystem/JParticle</text>
<text text-anchor="middle" x="2804.55" y="-78.5" font-family="Helvetica,sans-Serif" font-size="10.00">/JPAChildShape.cpp</text>
</a>
</g>
</g>
<!-- Node2&#45;&gt;Node616 -->
<g id="edge28" class="edge">
<title>Node2&#45;&gt;Node616</title>
<path fill="none" stroke="#63b8ff" d="M3189.36,-147.1C3110.73,-141.39 2980.67,-129.37 2870.55,-107 2863.76,-105.62 2856.66,-103.86 2849.74,-101.97"/>
<polygon fill="#63b8ff" stroke="#63b8ff" points="3188.85,-150.58 3199.07,-147.8 3189.35,-143.59 3188.85,-150.58"/>
</g>
<!-- Node617 -->
<g id="node27" class="node">
<title>Node617</title>
<g id="a_node27"><a xlink:href="JPAExtraShape_8cpp.html" target="_top" xlink:title=" ">
<polygon fill="white" stroke="#666666" points="2993.55,-101.5 2879.55,-101.5 2879.55,-71.5 2993.55,-71.5 2993.55,-101.5"/>
<text text-anchor="start" x="2887.55" y="-89.5" font-family="Helvetica,sans-Serif" font-size="10.00">libs/JSystem/JParticle</text>
<text text-anchor="middle" x="2936.55" y="-78.5" font-family="Helvetica,sans-Serif" font-size="10.00">/JPAExtraShape.cpp</text>
</a>
</g>
</g>
<!-- Node2&#45;&gt;Node617 -->
<g id="edge29" class="edge">
<title>Node2&#45;&gt;Node617</title>
<path fill="none" stroke="#63b8ff" d="M3189.6,-141.54C3137.52,-133.68 3065.24,-121.61 3002.55,-107 2996.15,-105.51 2989.46,-103.76 2982.89,-101.93"/>
<polygon fill="#63b8ff" stroke="#63b8ff" points="3188.82,-144.96 3199.23,-142.98 3189.85,-138.04 3188.82,-144.96"/>
</g>
<!-- Node582 -->
<g id="node28" class="node">
<title>Node582</title>
<g id="a_node28"><a xlink:href="JUTException_8cpp.html" target="_top" xlink:title=" ">
<polygon fill="white" stroke="#666666" points="3117.55,-101.5 3011.55,-101.5 3011.55,-71.5 3117.55,-71.5 3117.55,-101.5"/>
<text text-anchor="start" x="3019.55" y="-89.5" font-family="Helvetica,sans-Serif" font-size="10.00">libs/JSystem/JUtility</text>
<text text-anchor="middle" x="3064.55" y="-78.5" font-family="Helvetica,sans-Serif" font-size="10.00">/JUTException.cpp</text>
</a>
</g>
</g>
<!-- Node2&#45;&gt;Node582 -->
<g id="edge31" class="edge">
<title>Node2&#45;&gt;Node582</title>
<path fill="none" stroke="#63b8ff" d="M3222.43,-139.05C3189.9,-128.43 3143.09,-113.15 3108.89,-101.98"/>
<polygon fill="#63b8ff" stroke="#63b8ff" points="3221.27,-142.35 3231.86,-142.13 3223.44,-135.7 3221.27,-142.35"/>
</g>
<!-- Node618 -->
<g id="node29" class="node">
<title>Node618</title>
<g id="a_node29"><a xlink:href="JUTPalette_8cpp.html" target="_top" xlink:title=" ">
<polygon fill="white" stroke="#666666" points="3241.55,-101.5 3135.55,-101.5 3135.55,-71.5 3241.55,-71.5 3241.55,-101.5"/>
<text text-anchor="start" x="3143.55" y="-89.5" font-family="Helvetica,sans-Serif" font-size="10.00">libs/JSystem/JUtility</text>
<text text-anchor="middle" x="3188.55" y="-78.5" font-family="Helvetica,sans-Serif" font-size="10.00">/JUTPalette.cpp</text>
</a>
</g>
</g>
<!-- Node2&#45;&gt;Node618 -->
<g id="edge32" class="edge">
<title>Node2&#45;&gt;Node618</title>
<path fill="none" stroke="#63b8ff" d="M3242.12,-135.12C3230.61,-124.88 3215.92,-111.83 3204.84,-101.98"/>
<polygon fill="#63b8ff" stroke="#63b8ff" points="3239.61,-137.57 3249.41,-141.6 3244.26,-132.34 3239.61,-137.57"/>
</g>
<!-- Node619 -->
<g id="node30" class="node">
<title>Node619</title>
<g id="a_node30"><a xlink:href="uart__console__io__gcn_8c.html" target="_top" xlink:title=" ">
<polygon fill="white" stroke="#666666" points="3405.55,-107 3259.55,-107 3259.55,-66 3405.55,-66 3405.55,-107"/>
<text text-anchor="start" x="3267.55" y="-95" font-family="Helvetica,sans-Serif" font-size="10.00">libs/PowerPC_EABI_Support</text>
<text text-anchor="start" x="3267.55" y="-84" font-family="Helvetica,sans-Serif" font-size="10.00">/MSL/MSL_C/PPC_EABI/Src</text>
<text text-anchor="middle" x="3332.55" y="-73" font-family="Helvetica,sans-Serif" font-size="10.00">/uart_console_io_gcn.c</text>
</a>
</g>
</g>
<!-- Node2&#45;&gt;Node619 -->
<g id="edge33" class="edge">
<title>Node2&#45;&gt;Node619</title>
<path fill="none" stroke="#63b8ff" d="M3278.9,-135.19C3288.42,-126.73 3300.14,-116.31 3310.19,-107.38"/>
<polygon fill="#63b8ff" stroke="#63b8ff" points="3276.84,-132.34 3271.7,-141.6 3281.5,-137.57 3276.84,-132.34"/>
</g>
<!-- Node620 -->
<g id="node31" class="node">
<title>Node620</title>
<g id="a_node31"><a xlink:href="GCN__Mem__Alloc_8c.html" target="_top" xlink:title=" ">
<polygon fill="white" stroke="#666666" points="3583.55,-101.5 3423.55,-101.5 3423.55,-71.5 3583.55,-71.5 3583.55,-101.5"/>
<text text-anchor="start" x="3431.55" y="-89.5" font-family="Helvetica,sans-Serif" font-size="10.00">libs/PowerPC_EABI_Support</text>
<text text-anchor="middle" x="3503.55" y="-78.5" font-family="Helvetica,sans-Serif" font-size="10.00">/Runtime/Src/GCN_Mem_Alloc.c</text>
</a>
</g>
</g>
<!-- Node2&#45;&gt;Node620 -->
<g id="edge34" class="edge">
<title>Node2&#45;&gt;Node620</title>
<path fill="none" stroke="#63b8ff" d="M3305.73,-139.6C3346.16,-128.95 3405.56,-113.31 3448.71,-101.95"/>
<polygon fill="#63b8ff" stroke="#63b8ff" points="3304.84,-136.22 3296.06,-142.15 3306.62,-142.99 3304.84,-136.22"/>
</g>
<!-- Node461 -->
<g id="node32" class="node">
<title>Node461</title>
<g id="a_node32"><a xlink:href="Z2AudioMgr_8cpp.html" target="_top" xlink:title=" ">
<polygon fill="white" stroke="#666666" points="3759.55,-96 3601.55,-96 3601.55,-77 3759.55,-77 3759.55,-96"/>
<text text-anchor="middle" x="3680.55" y="-84" font-family="Helvetica,sans-Serif" font-size="10.00">libs/Z2AudioLib/Z2AudioMgr.cpp</text>
</a>
</g>
</g>
<!-- Node2&#45;&gt;Node461 -->
<g id="edge35" class="edge">
<title>Node2&#45;&gt;Node461</title>
<path fill="none" stroke="#63b8ff" d="M3331.79,-143.72C3399.2,-135.95 3503.11,-122.88 3592.55,-107 3609.35,-104.02 3627.79,-100.04 3643.44,-96.46"/>
<polygon fill="#63b8ff" stroke="#63b8ff" points="3331.51,-140.23 3321.97,-144.85 3332.3,-147.19 3331.51,-140.23"/>
</g>
<!-- Node174 -->
<g id="node33" class="node">
<title>Node174</title>
<g id="a_node33"><a xlink:href="Z2LinkMgr_8cpp.html" target="_top" xlink:title=" ">
<polygon fill="white" stroke="#666666" points="3929.55,-96 3777.55,-96 3777.55,-77 3929.55,-77 3929.55,-96"/>
<text text-anchor="middle" x="3853.55" y="-84" font-family="Helvetica,sans-Serif" font-size="10.00">libs/Z2AudioLib/Z2LinkMgr.cpp</text>
</a>
</g>
</g>
<!-- Node2&#45;&gt;Node174 -->
<g id="edge36" class="edge">
<title>Node2&#45;&gt;Node174</title>
<path fill="none" stroke="#63b8ff" d="M3331.62,-148.38C3430.19,-143.34 3613.77,-131.41 3768.55,-107 3785.45,-104.33 3803.99,-100.22 3819.44,-96.46"/>
<polygon fill="#63b8ff" stroke="#63b8ff" points="3331.64,-144.87 3321.83,-148.87 3331.99,-151.86 3331.64,-144.87"/>
</g>
<!-- Node465 -->
<g id="node34" class="node">
<title>Node465</title>
<g id="a_node34"><a xlink:href="Z2WolfHowlMgr_8cpp.html" target="_top" xlink:title=" ">
<polygon fill="white" stroke="#666666" points="4087.55,-101.5 3947.55,-101.5 3947.55,-71.5 4087.55,-71.5 4087.55,-101.5"/>
<text text-anchor="start" x="3955.55" y="-89.5" font-family="Helvetica,sans-Serif" font-size="10.00">libs/Z2AudioLib/Z2WolfHowl</text>
<text text-anchor="middle" x="4017.55" y="-78.5" font-family="Helvetica,sans-Serif" font-size="10.00">Mgr.cpp</text>
</a>
</g>
</g>
<!-- Node2&#45;&gt;Node465 -->
<g id="edge37" class="edge">
<title>Node2&#45;&gt;Node465</title>
<path fill="none" stroke="#63b8ff" d="M3331.53,-150.95C3455.45,-149.08 3718.97,-141.03 3938.55,-107 3947.07,-105.68 3956.01,-103.88 3964.7,-101.91"/>
<polygon fill="#63b8ff" stroke="#63b8ff" points="3331.81,-147.45 3321.86,-151.09 3331.9,-154.44 3331.81,-147.45"/>
</g>
<!-- Node621 -->
<g id="node35" class="node">
<title>Node621</title>
<g id="a_node35"><a xlink:href="ai_8c.html" target="_top" xlink:title=" ">
<polygon fill="white" stroke="#666666" points="4199.55,-96 4105.55,-96 4105.55,-77 4199.55,-77 4199.55,-96"/>
<text text-anchor="middle" x="4152.55" y="-84" font-family="Helvetica,sans-Serif" font-size="10.00">libs/dolphin/ai/ai.c</text>
</a>
</g>
</g>
<!-- Node2&#45;&gt;Node621 -->
<g id="edge38" class="edge">
<title>Node2&#45;&gt;Node621</title>
<path fill="none" stroke="#63b8ff" d="M3331.6,-150.29C3505.88,-146.89 3950.97,-135.62 4096.55,-107 4108.37,-104.68 4121.08,-100.4 4131.41,-96.45"/>
<polygon fill="#63b8ff" stroke="#63b8ff" points="3331.71,-146.78 3321.78,-150.47 3331.84,-153.78 3331.71,-146.78"/>
</g>
<!-- Node622 -->
<g id="node36" class="node">
<title>Node622</title>
<g id="a_node36"><a xlink:href="ar_8c.html" target="_top" xlink:title=" ">
<polygon fill="white" stroke="#666666" points="4313.05,-96 4218.05,-96 4218.05,-77 4313.05,-77 4313.05,-96"/>
<text text-anchor="middle" x="4265.55" y="-84" font-family="Helvetica,sans-Serif" font-size="10.00">libs/dolphin/ar/ar.c</text>
</a>
</g>
</g>
<!-- Node2&#45;&gt;Node622 -->
<g id="edge39" class="edge">
<title>Node2&#45;&gt;Node622</title>
<path fill="none" stroke="#63b8ff" d="M3331.63,-150.76C3522.05,-148.36 4040.62,-138.99 4208.55,-107 4220.57,-104.71 4233.51,-100.44 4244.02,-96.48"/>
<polygon fill="#63b8ff" stroke="#63b8ff" points="3331.84,-147.26 3321.89,-150.88 3331.93,-154.26 3331.84,-147.26"/>
</g>
<!-- Node623 -->
<g id="node37" class="node">
<title>Node623</title>
<g id="a_node37"><a xlink:href="CARDBios_8c.html" target="_top" xlink:title=" ">
<polygon fill="white" stroke="#666666" points="4475.55,-96 4331.55,-96 4331.55,-77 4475.55,-77 4475.55,-96"/>
<text text-anchor="middle" x="4403.55" y="-84" font-family="Helvetica,sans-Serif" font-size="10.00">libs/dolphin/card/CARDBios.c</text>
</a>
</g>
</g>
<!-- Node2&#45;&gt;Node623 -->
<g id="edge40" class="edge">
<title>Node2&#45;&gt;Node623</title>
<path fill="none" stroke="#63b8ff" d="M3331.63,-150.29C3537.14,-146.53 4129.55,-133.61 4321.55,-107 4338.51,-104.65 4357.1,-100.37 4372.28,-96.43"/>
<polygon fill="#63b8ff" stroke="#63b8ff" points="3331.85,-146.79 3321.91,-150.47 3331.97,-153.79 3331.85,-146.79"/>
</g>
<!-- Node624 -->
<g id="node38" class="node">
<title>Node624</title>
<g id="a_node38"><a xlink:href="CARDUnlock_8c.html" target="_top" xlink:title=" ">
<polygon fill="white" stroke="#666666" points="4649.05,-96 4494.05,-96 4494.05,-77 4649.05,-77 4649.05,-96"/>
<text text-anchor="middle" x="4571.55" y="-84" font-family="Helvetica,sans-Serif" font-size="10.00">libs/dolphin/card/CARDUnlock.c</text>
</a>
</g>
</g>
<!-- Node2&#45;&gt;Node624 -->
<g id="edge41" class="edge">
<title>Node2&#45;&gt;Node624</title>
<path fill="none" stroke="#63b8ff" d="M3331.82,-150.63C3558.23,-147.61 4259.39,-136.07 4484.55,-107 4502.51,-104.68 4522.23,-100.41 4538.35,-96.45"/>
<polygon fill="#63b8ff" stroke="#63b8ff" points="3331.92,-147.13 3321.96,-150.76 3332.01,-154.13 3331.92,-147.13"/>
</g>
<!-- Node625 -->
<g id="node39" class="node">
<title>Node625</title>
<g id="a_node39"><a xlink:href="db_8c.html" target="_top" xlink:title=" ">
<polygon fill="white" stroke="#666666" points="4767.55,-96 4667.55,-96 4667.55,-77 4767.55,-77 4767.55,-96"/>
<text text-anchor="middle" x="4717.55" y="-84" font-family="Helvetica,sans-Serif" font-size="10.00">libs/dolphin/db/db.c</text>
</a>
</g>
</g>
<!-- Node2&#45;&gt;Node625 -->
<g id="edge42" class="edge">
<title>Node2&#45;&gt;Node625</title>
<path fill="none" stroke="#63b8ff" d="M3331.79,-151.88C3579.01,-152.78 4398.87,-152.21 4657.55,-107 4670.28,-104.77 4684.03,-100.46 4695.14,-96.45"/>
<polygon fill="#63b8ff" stroke="#63b8ff" points="3331.99,-148.38 3321.97,-151.84 3331.96,-155.38 3331.99,-148.38"/>
</g>
<!-- Node626 -->
<g id="node40" class="node">
<title>Node626</title>
<g id="a_node40"><a xlink:href="dvd_8c.html" target="_top" xlink:title=" ">
<polygon fill="white" stroke="#666666" points="4895.55,-96 4785.55,-96 4785.55,-77 4895.55,-77 4895.55,-96"/>
<text text-anchor="middle" x="4840.55" y="-84" font-family="Helvetica,sans-Serif" font-size="10.00">libs/dolphin/dvd/dvd.c</text>
</a>
</g>
</g>
<!-- Node2&#45;&gt;Node626 -->
<g id="edge43" class="edge">
<title>Node2&#45;&gt;Node626</title>
<path fill="none" stroke="#63b8ff" d="M3331.65,-151.92C3592.04,-153.06 4493.16,-153.48 4776.55,-107 4790.08,-104.78 4804.73,-100.47 4816.6,-96.46"/>
<polygon fill="#63b8ff" stroke="#63b8ff" points="3332,-148.42 3321.98,-151.87 3331.96,-155.42 3332,-148.42"/>
</g>
<!-- Node627 -->
<g id="node41" class="node">
<title>Node627</title>
<g id="a_node41"><a xlink:href="dvdfs_8c.html" target="_top" xlink:title=" ">
<polygon fill="white" stroke="#666666" points="5033.05,-96 4914.05,-96 4914.05,-77 5033.05,-77 5033.05,-96"/>
<text text-anchor="middle" x="4973.55" y="-84" font-family="Helvetica,sans-Serif" font-size="10.00">libs/dolphin/dvd/dvdfs.c</text>
</a>
</g>
</g>
<!-- Node2&#45;&gt;Node627 -->
<g id="edge44" class="edge">
<title>Node2&#45;&gt;Node627</title>
<path fill="none" stroke="#63b8ff" d="M3331.57,-151.92C3605.62,-153.18 4594.46,-154.26 4904.55,-107 4919.07,-104.79 4934.87,-100.47 4947.68,-96.46"/>
<polygon fill="#63b8ff" stroke="#63b8ff" points="3331.74,-148.42 3321.72,-151.87 3331.7,-155.42 3331.74,-148.42"/>
</g>
<!-- Node628 -->
<g id="node42" class="node">
<title>Node628</title>
<g id="a_node42"><a xlink:href="fstload_8c.html" target="_top" xlink:title=" ">
<polygon fill="white" stroke="#666666" points="5175.55,-96 5051.55,-96 5051.55,-77 5175.55,-77 5175.55,-96"/>
<text text-anchor="middle" x="5113.55" y="-84" font-family="Helvetica,sans-Serif" font-size="10.00">libs/dolphin/dvd/fstload.c</text>
</a>
</g>
</g>
<!-- Node2&#45;&gt;Node628 -->
<g id="edge45" class="edge">
<title>Node2&#45;&gt;Node628</title>
<path fill="none" stroke="#63b8ff" d="M3331.2,-150.75C3640.99,-147.33 4871.5,-132.24 5042.55,-107 5057.48,-104.8 5073.73,-100.48 5086.91,-96.47"/>
<polygon fill="#63b8ff" stroke="#63b8ff" points="3331.62,-147.25 3321.66,-150.86 3331.69,-154.25 3331.62,-147.25"/>
</g>
<!-- Node629 -->
<g id="node43" class="node">
<title>Node629</title>
<g id="a_node43"><a xlink:href="EXIBios_8c.html" target="_top" xlink:title=" ">
<polygon fill="white" stroke="#666666" points="5319.55,-96 5193.55,-96 5193.55,-77 5319.55,-77 5319.55,-96"/>
<text text-anchor="middle" x="5256.55" y="-84" font-family="Helvetica,sans-Serif" font-size="10.00">libs/dolphin/exi/EXIBios.c</text>
</a>
</g>
</g>
<!-- Node2&#45;&gt;Node629 -->
<g id="edge46" class="edge">
<title>Node2&#45;&gt;Node629</title>
<path fill="none" stroke="#63b8ff" d="M3331.7,-150.87C3657.46,-147.85 4998.84,-133.89 5184.55,-107 5199.68,-104.81 5216.16,-100.5 5229.53,-96.48"/>
<polygon fill="#63b8ff" stroke="#63b8ff" points="3332.02,-147.37 3322.06,-150.96 3332.09,-154.37 3332.02,-147.37"/>
</g>
<!-- Node630 -->
<g id="node44" class="node">
<title>Node630</title>
<g id="a_node44"><a xlink:href="EXIUart_8c.html" target="_top" xlink:title=" ">
<polygon fill="white" stroke="#666666" points="5463.05,-96 5338.05,-96 5338.05,-77 5463.05,-77 5463.05,-96"/>
<text text-anchor="middle" x="5400.55" y="-84" font-family="Helvetica,sans-Serif" font-size="10.00">libs/dolphin/exi/EXIUart.c</text>
</a>
</g>
</g>
<!-- Node2&#45;&gt;Node630 -->
<g id="edge47" class="edge">
<title>Node2&#45;&gt;Node630</title>
<path fill="none" stroke="#63b8ff" d="M3331.93,-150.99C3672.94,-148.43 5127.95,-135.88 5328.55,-107 5343.68,-104.82 5360.16,-100.51 5373.53,-96.49"/>
<polygon fill="#63b8ff" stroke="#63b8ff" points="3332,-147.49 3322.02,-151.07 3332.05,-154.49 3332,-147.49"/>
</g>
<!-- Node631 -->
<g id="node45" class="node">
<title>Node631</title>
<g id="a_node45"><a xlink:href="GXFifo_8c.html" target="_top" xlink:title=" ">
<polygon fill="white" stroke="#666666" points="5600.05,-96 5481.05,-96 5481.05,-77 5600.05,-77 5600.05,-96"/>
<text text-anchor="middle" x="5540.55" y="-84" font-family="Helvetica,sans-Serif" font-size="10.00">libs/dolphin/gx/GXFifo.c</text>
</a>
</g>
</g>
<!-- Node2&#45;&gt;Node631 -->
<g id="edge48" class="edge">
<title>Node2&#45;&gt;Node631</title>
<path fill="none" stroke="#63b8ff" d="M3331.66,-151.16C3686.5,-149.34 5257.15,-139.49 5472.55,-107 5487,-104.82 5502.71,-100.45 5515.39,-96.4"/>
<polygon fill="#63b8ff" stroke="#63b8ff" points="3331.78,-147.66 3321.8,-151.21 3331.82,-154.66 3331.78,-147.66"/>
</g>
<!-- Node632 -->
<g id="node46" class="node">
<title>Node632</title>
<g id="a_node46"><a xlink:href="GXInit_8c.html" target="_top" xlink:title=" ">
<polygon fill="white" stroke="#666666" points="5734.55,-96 5618.55,-96 5618.55,-77 5734.55,-77 5734.55,-96"/>
<text text-anchor="middle" x="5676.55" y="-84" font-family="Helvetica,sans-Serif" font-size="10.00">libs/dolphin/gx/GXInit.c</text>
</a>
</g>
</g>
<!-- Node2&#45;&gt;Node632 -->
<g id="edge49" class="edge">
<title>Node2&#45;&gt;Node632</title>
<path fill="none" stroke="#63b8ff" d="M3331.57,-151.27C3699.4,-149.94 5379.94,-141.96 5609.55,-107 5623.81,-104.83 5639.29,-100.46 5651.77,-96.41"/>
<polygon fill="#63b8ff" stroke="#63b8ff" points="3331.81,-147.77 3321.82,-151.31 3331.83,-154.77 3331.81,-147.77"/>
</g>
<!-- Node633 -->
<g id="node47" class="node">
<title>Node633</title>
<g id="a_node47"><a xlink:href="OS_8c.html" target="_top" xlink:title=" ">
<polygon fill="white" stroke="#666666" points="5856.55,-96 5752.55,-96 5752.55,-77 5856.55,-77 5856.55,-96"/>
<text text-anchor="middle" x="5804.55" y="-84" font-family="Helvetica,sans-Serif" font-size="10.00">libs/dolphin/os/OS.c</text>
</a>
</g>
</g>
<!-- Node2&#45;&gt;Node633 -->
<g id="edge50" class="edge">
<title>Node2&#45;&gt;Node633</title>
<path fill="none" stroke="#63b8ff" d="M3331.9,-151.46C3713.03,-151.07 5500.54,-147.13 5743.55,-107 5756.61,-104.84 5770.71,-100.48 5782.06,-96.42"/>
<polygon fill="#63b8ff" stroke="#63b8ff" points="3332.03,-147.96 3322.03,-151.47 3332.03,-154.96 3332.03,-147.96"/>
</g>
<!-- Node634 -->
<g id="node48" class="node">
<title>Node634</title>
<g id="a_node48"><a xlink:href="OSAlarm_8c.html" target="_top" xlink:title=" ">
<polygon fill="white" stroke="#666666" points="6004.05,-96 5875.05,-96 5875.05,-77 6004.05,-77 6004.05,-96"/>
<text text-anchor="middle" x="5939.55" y="-84" font-family="Helvetica,sans-Serif" font-size="10.00">libs/dolphin/os/OSAlarm.c</text>
</a>
</g>
</g>
<!-- Node2&#45;&gt;Node634 -->
<g id="edge51" class="edge">
<title>Node2&#45;&gt;Node634</title>
<path fill="none" stroke="#63b8ff" d="M3331.87,-151.31C3723.95,-150.1 5608.83,-142.49 5865.55,-107 5881.21,-104.84 5898.31,-100.47 5912.11,-96.42"/>
<polygon fill="#63b8ff" stroke="#63b8ff" points="3331.94,-147.81 3321.95,-151.34 3331.96,-154.81 3331.94,-147.81"/>
</g>
<!-- Node2&#45;&gt;Node638 -->
<g id="edge52" class="edge">
<title>Node2&#45;&gt;Node638</title>
<path fill="none" stroke="#63b8ff" d="M3331.96,-150.9C3769.72,-147.15 6076.83,-126.54 6224.55,-107 6240.82,-104.85 6258.6,-100.48 6272.98,-96.43"/>
<polygon fill="#63b8ff" stroke="#63b8ff" points="3331.94,-147.4 3321.97,-150.98 3332,-154.4 3331.94,-147.4"/>
</g>
<!-- Node3&#45;&gt;Node575 -->
<g id="edge3" class="edge">
<title>Node3&#45;&gt;Node575</title>
<path fill="none" stroke="#63b8ff" d="M6026.67,-68.44C6022.26,-67.49 6017.85,-66.66 6013.55,-66 5724.78,-21.71 4803.13,-16.62 4549.63,-16.06"/>
<polygon fill="#63b8ff" stroke="#63b8ff" points="6025.57,-71.78 6036.11,-70.67 6027.18,-64.97 6025.57,-71.78"/>
</g>
<!-- Node3&#45;&gt;Node592 -->
<g id="edge4" class="edge">
<title>Node3&#45;&gt;Node592</title>
<path fill="none" stroke="#63b8ff" d="M6083.55,-59.76C6083.55,-49.83 6083.55,-38.86 6083.55,-30.38"/>
<polygon fill="#63b8ff" stroke="#63b8ff" points="6080.05,-59.59 6083.55,-69.59 6087.05,-59.59 6080.05,-59.59"/>
</g>
<!-- Node3&#45;&gt;Node595 -->
<g id="edge5" class="edge">
<title>Node3&#45;&gt;Node595</title>
<path fill="none" stroke="#63b8ff" d="M6119.83,-65.65C6140.38,-54.4 6165.63,-40.58 6184.27,-30.38"/>
<polygon fill="#63b8ff" stroke="#63b8ff" points="6118.29,-62.5 6111.2,-70.37 6121.65,-68.64 6118.29,-62.5"/>
</g>
<!-- Node3&#45;&gt;Node581 -->
<g id="edge6" class="edge">
<title>Node3&#45;&gt;Node581</title>
<path fill="none" stroke="#63b8ff" d="M6027.5,-68.51C6022.81,-67.51 6018.12,-66.65 6013.55,-66 5777.75,-32.46 1976.31,-17.94 1479.87,-16.18"/>
<polygon fill="#63b8ff" stroke="#63b8ff" points="6026.35,-71.84 6036.88,-70.72 6027.95,-65.02 6026.35,-71.84"/>
</g>
</g>
</svg>
