<?xml version="1.0" encoding="UTF-8" standalone="no"?>
<!DOCTYPE svg PUBLIC "-//W3C//DTD SVG 1.1//EN"
 "http://www.w3.org/Graphics/SVG/1.1/DTD/svg11.dtd">
<!-- Generated by graphviz version 7.0.5 (20221223.1930)
 -->
<!-- Title: libs/dolphin/os/OSReset.c Pages: 1 -->
<!--zoomable 379 -->
<svg id="main" version="1.1" xmlns="http://www.w3.org/2000/svg" xmlns:xlink="http://www.w3.org/1999/xlink" xml:space="preserve" onload="init(evt)">
<style type="text/css"><![CDATA[
.edge:hover path { stroke: red; }
.edge:hover polygon { stroke: red; fill: red; }
]]></style>
<script type="text/javascript"><![CDATA[
var edges = document.getElementsByTagName('g');
if (edges && edges.length) {
  for (var i=0;i<edges.length;i++) {
    if (edges[i].id.substr(0,4)=='edge') {
      edges[i].setAttribute('class','edge');
    }
  }
}
]]></script>
        <defs>
                <circle id="rim" cx="0" cy="0" r="7"/>
                <circle id="rim2" cx="0" cy="0" r="3.5"/>
                <g id="zoomPlus">
                        <use xlink:href="#rim" fill="#404040">
                                <set attributeName="fill" to="#808080" begin="zoomplus.mouseover" end="zoomplus.mouseout"/>
                        </use>
                        <path d="M-4,0h8M0,-4v8" fill="none" stroke="white" stroke-width="1.5" pointer-events="none"/>
                </g>
                <g id="zoomMin">
                        <use xlink:href="#rim" fill="#404040">
                                <set attributeName="fill" to="#808080" begin="zoomminus.mouseover" end="zoomminus.mouseout"/>
                        </use>
                        <path d="M-4,0h8" fill="none" stroke="white" stroke-width="1.5" pointer-events="none"/>
                </g>
                <g id="dirArrow">
                        <path fill="none" stroke="white" stroke-width="1.5" d="M0,-3.0v7 M-2.5,-0.5L0,-3.0L2.5,-0.5"/>
                </g>
               <g id="resetDef">
                       <use xlink:href="#rim2" fill="#404040">
                               <set attributeName="fill" to="#808080" begin="reset.mouseover" end="reset.mouseout"/>
                       </use>
               </g>
        </defs>

<script type="text/javascript">
var viewWidth = 1783;
var viewHeight = 379;
var sectionId = 'dynsection-0';
</script>
<script xlink:href="svgpan.js"/>
<svg id="graph" class="graph">
<g id="viewport">
<title>libs/dolphin/os/OSReset.c</title>
<!-- Node1 -->
<g id="node1" class="node">
<title>Node1</title>
<g id="a_node1"><a xlink:title=" ">
<polygon fill="#999999" stroke="#666666" points="623,-371 494,-371 494,-352 623,-352 623,-371"/>
<text text-anchor="middle" x="558.5" y="-359" font-family="Helvetica,sans-Serif" font-size="10.00">libs/dolphin/os/OSReset.c</text>
</a>
</g>
</g>
<!-- Node2 -->
<g id="node2" class="node">
<title>Node2</title>
<g id="a_node2"><a xlink:href="OSReset_8h.html" target="_top" xlink:title=" ">
<polygon fill="white" stroke="#666666" points="111,-261 0,-261 0,-242 111,-242 111,-261"/>
<text text-anchor="middle" x="55.5" y="-249" font-family="Helvetica,sans-Serif" font-size="10.00">dolphin/os/OSReset.h</text>
</a>
</g>
</g>
<!-- Node1&#45;&gt;Node2 -->
<g id="edge1" class="edge">
<title>Node1&#45;&gt;Node2</title>
<path fill="none" stroke="#63b8ff" d="M516.91,-351.57C425.8,-332.01 208.73,-285.4 108.23,-263.82"/>
<polygon fill="#63b8ff" stroke="#63b8ff" points="109.13,-260.44 98.62,-261.76 107.66,-267.28 109.13,-260.44"/>
</g>
<!-- Node5 -->
<g id="node5" class="node">
<title>Node5</title>
<g id="a_node5"><a xlink:href="dol2asm_8h.html" target="_top" xlink:title=" ">
<polygon fill="white" stroke="#666666" points="589,-316 528,-316 528,-297 589,-297 589,-316"/>
<text text-anchor="middle" x="558.5" y="-304" font-family="Helvetica,sans-Serif" font-size="10.00">dol2asm.h</text>
</a>
</g>
</g>
<!-- Node1&#45;&gt;Node5 -->
<g id="edge4" class="edge">
<title>Node1&#45;&gt;Node5</title>
<path fill="none" stroke="#63b8ff" d="M558.5,-351.75C558.5,-345.27 558.5,-336.16 558.5,-327.9"/>
<polygon fill="#63b8ff" stroke="#63b8ff" points="562,-327.96 558.5,-317.96 555,-327.96 562,-327.96"/>
</g>
<!-- Node6 -->
<g id="node6" class="node">
<title>Node6</title>
<g id="a_node6"><a xlink:href="OS_8h.html" target="_top" xlink:title=" ">
<polygon fill="white" stroke="#666666" points="823.5,-316 737.5,-316 737.5,-297 823.5,-297 823.5,-316"/>
<text text-anchor="middle" x="780.5" y="-304" font-family="Helvetica,sans-Serif" font-size="10.00">dolphin/os/OS.h</text>
</a>
</g>
</g>
<!-- Node1&#45;&gt;Node6 -->
<g id="edge5" class="edge">
<title>Node1&#45;&gt;Node6</title>
<path fill="none" stroke="#63b8ff" d="M596.16,-351.51C633.59,-342.57 691.15,-328.83 731.98,-319.08"/>
<polygon fill="#63b8ff" stroke="#63b8ff" points="732.64,-322.52 741.55,-316.8 731.02,-315.72 732.64,-322.52"/>
</g>
<!-- Node3 -->
<g id="node3" class="node">
<title>Node3</title>
<g id="a_node3"><a xlink:href="types_8h.html" target="_top" xlink:title=" ">
<polygon fill="white" stroke="#666666" points="876,-85 795,-85 795,-66 876,-66 876,-85"/>
<text text-anchor="middle" x="835.5" y="-73" font-family="Helvetica,sans-Serif" font-size="10.00">dolphin/types.h</text>
</a>
</g>
</g>
<!-- Node2&#45;&gt;Node3 -->
<g id="edge2" class="edge">
<title>Node2&#45;&gt;Node3</title>
<path fill="none" stroke="#63b8ff" d="M56.62,-241.61C60.19,-217.37 73.73,-150.03 116.5,-121 171.33,-83.79 628.21,-77.69 783.82,-76.69"/>
<polygon fill="#63b8ff" stroke="#63b8ff" points="783.44,-80.2 793.42,-76.64 783.4,-73.2 783.44,-80.2"/>
</g>
<!-- Node4 -->
<g id="node4" class="node">
<title>Node4</title>
<g id="a_node4"><a xlink:href="stddef_8h.html" target="_top" xlink:title=" ">
<polygon fill="white" stroke="#666666" points="903.5,-30 767.5,-30 767.5,0 903.5,0 903.5,-30"/>
<text text-anchor="start" x="775.5" y="-18" font-family="Helvetica,sans-Serif" font-size="10.00">MSL_C/MSL_Common/Src</text>
<text text-anchor="middle" x="835.5" y="-7" font-family="Helvetica,sans-Serif" font-size="10.00">/stddef.h</text>
</a>
</g>
</g>
<!-- Node3&#45;&gt;Node4 -->
<g id="edge3" class="edge">
<title>Node3&#45;&gt;Node4</title>
<path fill="none" stroke="#63b8ff" d="M835.5,-65.87C835.5,-59.4 835.5,-50.2 835.5,-41.45"/>
<polygon fill="#63b8ff" stroke="#63b8ff" points="839,-41.63 835.5,-31.63 832,-41.63 839,-41.63"/>
</g>
<!-- Node6&#45;&gt;Node2 -->
<g id="edge43" class="edge">
<title>Node6&#45;&gt;Node2</title>
<path fill="none" stroke="#63b8ff" d="M737.13,-303.35C632.06,-297.97 355.56,-282.77 125.5,-261 124.49,-260.9 123.47,-260.81 122.44,-260.7"/>
<polygon fill="#63b8ff" stroke="#63b8ff" points="123.07,-257.25 112.76,-259.7 122.34,-264.21 123.07,-257.25"/>
</g>
<!-- Node7 -->
<g id="node7" class="node">
<title>Node7</title>
<g id="a_node7"><a xlink:href="____va__arg_8h.html" target="_top" xlink:title=" ">
<polygon fill="white" stroke="#666666" points="1774.5,-151 1664.5,-151 1664.5,-121 1774.5,-121 1774.5,-151"/>
<text text-anchor="start" x="1672.5" y="-139" font-family="Helvetica,sans-Serif" font-size="10.00">Runtime.PPCEABI.H/</text>
<text text-anchor="middle" x="1719.5" y="-128" font-family="Helvetica,sans-Serif" font-size="10.00">__va_arg.h</text>
</a>
</g>
</g>
<!-- Node6&#45;&gt;Node7 -->
<g id="edge6" class="edge">
<title>Node6&#45;&gt;Node7</title>
<path fill="none" stroke="#63b8ff" d="M823.96,-304.53C977.89,-300.9 1491.55,-286.93 1560.5,-261 1618.11,-239.34 1671.58,-188.95 1699.43,-159.5"/>
<polygon fill="#63b8ff" stroke="#63b8ff" points="1701.96,-161.91 1706.2,-152.2 1696.83,-157.16 1701.96,-161.91"/>
</g>
<!-- Node8 -->
<g id="node8" class="node">
<title>Node8</title>
<g id="a_node8"><a xlink:href="dvd_8h.html" target="_top" xlink:title=" ">
<polygon fill="white" stroke="#666666" points="217.5,-145.5 125.5,-145.5 125.5,-126.5 217.5,-126.5 217.5,-145.5"/>
<text text-anchor="middle" x="171.5" y="-133.5" font-family="Helvetica,sans-Serif" font-size="10.00">dolphin/dvd/dvd.h</text>
</a>
</g>
</g>
<!-- Node6&#45;&gt;Node8 -->
<g id="edge8" class="edge">
<title>Node6&#45;&gt;Node8</title>
<path fill="none" stroke="#63b8ff" d="M737.32,-303.05C617.63,-296.09 287.37,-275.8 240.5,-261 194.34,-246.43 170.58,-247.99 146.5,-206 137.13,-189.66 146.92,-169.17 156.87,-154.78"/>
<polygon fill="#63b8ff" stroke="#63b8ff" points="159.42,-157.22 162.64,-147.13 153.82,-153.01 159.42,-157.22"/>
</g>
<!-- Node9 -->
<g id="node9" class="node">
<title>Node9</title>
<g id="a_node9"><a xlink:href="OSAlarm_8h.html" target="_top" xlink:title=" ">
<polygon fill="white" stroke="#666666" points="389,-261 278,-261 278,-242 389,-242 389,-261"/>
<text text-anchor="middle" x="333.5" y="-249" font-family="Helvetica,sans-Serif" font-size="10.00">dolphin/os/OSAlarm.h</text>
</a>
</g>
</g>
<!-- Node6&#45;&gt;Node9 -->
<g id="edge10" class="edge">
<title>Node6&#45;&gt;Node9</title>
<path fill="none" stroke="#63b8ff" d="M737.23,-300.37C658.99,-291.09 493.49,-271.47 400.51,-260.45"/>
<polygon fill="#63b8ff" stroke="#63b8ff" points="401.11,-256.99 390.77,-259.29 400.29,-263.94 401.11,-256.99"/>
</g>
<!-- Node10 -->
<g id="node10" class="node">
<title>Node10</title>
<g id="a_node10"><a xlink:href="OSError_8h.html" target="_top" xlink:title=" ">
<polygon fill="white" stroke="#666666" points="261.5,-206 155.5,-206 155.5,-187 261.5,-187 261.5,-206"/>
<text text-anchor="middle" x="208.5" y="-194" font-family="Helvetica,sans-Serif" font-size="10.00">dolphin/os/OSError.h</text>
</a>
</g>
</g>
<!-- Node6&#45;&gt;Node10 -->
<g id="edge25" class="edge">
<title>Node6&#45;&gt;Node10</title>
<path fill="none" stroke="#63b8ff" d="M737.24,-303.5C621.42,-297.91 310.22,-281.17 268.5,-261 247.86,-251.03 230.68,-230.7 220.07,-215.72"/>
<polygon fill="#63b8ff" stroke="#63b8ff" points="223.13,-214 214.65,-207.65 217.32,-217.9 223.13,-214"/>
</g>
<!-- Node11 -->
<g id="node11" class="node">
<title>Node11</title>
<g id="a_node11"><a xlink:href="OSTime_8h.html" target="_top" xlink:title=" ">
<polygon fill="white" stroke="#666666" points="387,-206 280,-206 280,-187 387,-187 387,-206"/>
<text text-anchor="middle" x="333.5" y="-194" font-family="Helvetica,sans-Serif" font-size="10.00">dolphin/os/OSTime.h</text>
</a>
</g>
</g>
<!-- Node6&#45;&gt;Node11 -->
<g id="edge51" class="edge">
<title>Node6&#45;&gt;Node11</title>
<path fill="none" stroke="#63b8ff" d="M737.09,-302.5C678.42,-297.66 570.97,-286.01 482.5,-261 438.35,-248.52 389.96,-226.15 360.66,-211.57"/>
<polygon fill="#63b8ff" stroke="#63b8ff" points="362.27,-208.47 351.77,-207.08 359.12,-214.71 362.27,-208.47"/>
</g>
<!-- Node12 -->
<g id="node12" class="node">
<title>Node12</title>
<g id="a_node12"><a xlink:href="OSAlloc_8h.html" target="_top" xlink:title=" ">
<polygon fill="white" stroke="#666666" points="512,-206 405,-206 405,-187 512,-187 512,-206"/>
<text text-anchor="middle" x="458.5" y="-194" font-family="Helvetica,sans-Serif" font-size="10.00">dolphin/os/OSAlloc.h</text>
</a>
</g>
</g>
<!-- Node6&#45;&gt;Node12 -->
<g id="edge15" class="edge">
<title>Node6&#45;&gt;Node12</title>
<path fill="none" stroke="#63b8ff" d="M737.14,-302.31C670.22,-296.75 545.5,-283.65 507.5,-261 489.77,-250.43 476.15,-230.81 467.82,-216.17"/>
<polygon fill="#63b8ff" stroke="#63b8ff" points="470.99,-214.69 463.21,-207.51 464.81,-217.98 470.99,-214.69"/>
</g>
<!-- Node13 -->
<g id="node13" class="node">
<title>Node13</title>
<g id="a_node13"><a xlink:href="OSArena_8h.html" target="_top" xlink:title=" ">
<polygon fill="white" stroke="#666666" points="597,-145.5 486,-145.5 486,-126.5 597,-126.5 597,-145.5"/>
<text text-anchor="middle" x="541.5" y="-133.5" font-family="Helvetica,sans-Serif" font-size="10.00">dolphin/os/OSArena.h</text>
</a>
</g>
</g>
<!-- Node6&#45;&gt;Node13 -->
<g id="edge17" class="edge">
<title>Node6&#45;&gt;Node13</title>
<path fill="none" stroke="#63b8ff" d="M737.09,-301.28C684.06,-295.26 598.53,-282.49 575.5,-261 546.47,-233.92 541.37,-184.62 540.96,-157.05"/>
<polygon fill="#63b8ff" stroke="#63b8ff" points="544.45,-157.29 541.03,-147.27 537.45,-157.24 544.45,-157.29"/>
</g>
<!-- Node14 -->
<g id="node14" class="node">
<title>Node14</title>
<g id="a_node14"><a xlink:href="OSAudioSystem_8h.html" target="_top" xlink:title=" ">
<polygon fill="white" stroke="#666666" points="712,-206 569,-206 569,-187 712,-187 712,-206"/>
<text text-anchor="middle" x="640.5" y="-194" font-family="Helvetica,sans-Serif" font-size="10.00">dolphin/os/OSAudioSystem.h</text>
</a>
</g>
</g>
<!-- Node6&#45;&gt;Node14 -->
<g id="edge19" class="edge">
<title>Node6&#45;&gt;Node14</title>
<path fill="none" stroke="#63b8ff" d="M737.32,-301.93C685.26,-296.62 602.38,-284.62 583.5,-261 569.59,-243.6 591.69,-224.73 612.3,-212.12"/>
<polygon fill="#63b8ff" stroke="#63b8ff" points="613.89,-215.24 620.82,-207.22 610.4,-209.17 613.89,-215.24"/>
</g>
<!-- Node15 -->
<g id="node15" class="node">
<title>Node15</title>
<g id="a_node15"><a xlink:href="OSCache_8h.html" target="_top" xlink:title=" ">
<polygon fill="white" stroke="#666666" points="767,-145.5 654,-145.5 654,-126.5 767,-126.5 767,-145.5"/>
<text text-anchor="middle" x="710.5" y="-133.5" font-family="Helvetica,sans-Serif" font-size="10.00">dolphin/os/OSCache.h</text>
</a>
</g>
</g>
<!-- Node6&#45;&gt;Node15 -->
<g id="edge21" class="edge">
<title>Node6&#45;&gt;Node15</title>
<path fill="none" stroke="#63b8ff" d="M737.08,-299.71C693.6,-292.92 631.11,-280.1 616.5,-261 611.37,-254.29 611.6,-248.88 616.5,-242 644.87,-202.16 692.13,-245.84 720.5,-206 730.79,-191.54 726.02,-171.01 720.05,-156.11"/>
<polygon fill="#63b8ff" stroke="#63b8ff" points="723.42,-155.05 716.12,-147.38 717.04,-157.93 723.42,-155.05"/>
</g>
<!-- Node16 -->
<g id="node16" class="node">
<title>Node16</title>
<g id="a_node16"><a xlink:href="OSContext_8h.html" target="_top" xlink:title=" ">
<polygon fill="white" stroke="#666666" points="1066,-145.5 947,-145.5 947,-126.5 1066,-126.5 1066,-145.5"/>
<text text-anchor="middle" x="1006.5" y="-133.5" font-family="Helvetica,sans-Serif" font-size="10.00">dolphin/os/OSContext.h</text>
</a>
</g>
</g>
<!-- Node6&#45;&gt;Node16 -->
<g id="edge23" class="edge">
<title>Node6&#45;&gt;Node16</title>
<path fill="none" stroke="#63b8ff" d="M823.87,-305.96C901.05,-305.76 1057.38,-300.35 1091.5,-261 1123.07,-224.59 1064.88,-176.2 1029.99,-152.05"/>
<polygon fill="#63b8ff" stroke="#63b8ff" points="1032.37,-149.43 1022.12,-146.75 1028.46,-155.24 1032.37,-149.43"/>
</g>
<!-- Node17 -->
<g id="node17" class="node">
<title>Node17</title>
<g id="a_node17"><a xlink:href="OSExec_8h.html" target="_top" xlink:title=" ">
<polygon fill="white" stroke="#666666" points="733,-261 626,-261 626,-242 733,-242 733,-261"/>
<text text-anchor="middle" x="679.5" y="-249" font-family="Helvetica,sans-Serif" font-size="10.00">dolphin/os/OSExec.h</text>
</a>
</g>
</g>
<!-- Node6&#45;&gt;Node17 -->
<g id="edge26" class="edge">
<title>Node6&#45;&gt;Node17</title>
<path fill="none" stroke="#63b8ff" d="M763.37,-296.51C747.75,-288.31 724.42,-276.07 706.33,-266.58"/>
<polygon fill="#63b8ff" stroke="#63b8ff" points="708.2,-263.61 697.72,-262.06 704.95,-269.81 708.2,-263.61"/>
</g>
<!-- Node18 -->
<g id="node18" class="node">
<title>Node18</title>
<g id="a_node18"><a xlink:href="OSFont_8h.html" target="_top" xlink:title=" ">
<polygon fill="white" stroke="#666666" points="929,-145.5 824,-145.5 824,-126.5 929,-126.5 929,-145.5"/>
<text text-anchor="middle" x="876.5" y="-133.5" font-family="Helvetica,sans-Serif" font-size="10.00">dolphin/os/OSFont.h</text>
</a>
</g>
</g>
<!-- Node6&#45;&gt;Node18 -->
<g id="edge28" class="edge">
<title>Node6&#45;&gt;Node18</title>
<path fill="none" stroke="#63b8ff" d="M781.99,-296.5C784.31,-283.85 789.49,-260.3 798.5,-242 815.14,-208.21 842.96,-174.13 860.49,-154.32"/>
<polygon fill="#63b8ff" stroke="#63b8ff" points="863.06,-156.7 867.16,-146.93 857.86,-152.01 863.06,-156.7"/>
</g>
<!-- Node19 -->
<g id="node19" class="node">
<title>Node19</title>
<g id="a_node19"><a xlink:href="OSInterrupt_8h.html" target="_top" xlink:title=" ">
<polygon fill="white" stroke="#666666" points="1260.5,-206 1138.5,-206 1138.5,-187 1260.5,-187 1260.5,-206"/>
<text text-anchor="middle" x="1199.5" y="-194" font-family="Helvetica,sans-Serif" font-size="10.00">dolphin/os/OSInterrupt.h</text>
</a>
</g>
</g>
<!-- Node6&#45;&gt;Node19 -->
<g id="edge30" class="edge">
<title>Node6&#45;&gt;Node19</title>
<path fill="none" stroke="#63b8ff" d="M823.62,-304.81C937.34,-302.56 1238.78,-293.55 1268.5,-261 1285.29,-242.61 1257.39,-223.53 1232.21,-211.15"/>
<polygon fill="#63b8ff" stroke="#63b8ff" points="1234,-208.12 1223.45,-207.07 1231.04,-214.47 1234,-208.12"/>
</g>
<!-- Node20 -->
<g id="node20" class="node">
<title>Node20</title>
<g id="a_node20"><a xlink:href="OSLink_8h.html" target="_top" xlink:title=" ">
<polygon fill="white" stroke="#666666" points="1419.5,-261 1315.5,-261 1315.5,-242 1419.5,-242 1419.5,-261"/>
<text text-anchor="middle" x="1367.5" y="-249" font-family="Helvetica,sans-Serif" font-size="10.00">dolphin/os/OSLink.h</text>
</a>
</g>
</g>
<!-- Node6&#45;&gt;Node20 -->
<g id="edge32" class="edge">
<title>Node6&#45;&gt;Node20</title>
<path fill="none" stroke="#63b8ff" d="M823.79,-302.43C913.17,-295.96 1124.58,-279.94 1301.5,-261 1302.34,-260.91 1303.19,-260.82 1304.04,-260.73"/>
<polygon fill="#63b8ff" stroke="#63b8ff" points="1304.25,-264.22 1313.78,-259.61 1303.45,-257.27 1304.25,-264.22"/>
</g>
<!-- Node21 -->
<g id="node21" class="node">
<title>Node21</title>
<g id="a_node21"><a xlink:href="OSMemory_8h.html" target="_top" xlink:title=" ">
<polygon fill="white" stroke="#666666" points="1259.5,-261 1139.5,-261 1139.5,-242 1259.5,-242 1259.5,-261"/>
<text text-anchor="middle" x="1199.5" y="-249" font-family="Helvetica,sans-Serif" font-size="10.00">dolphin/os/OSMemory.h</text>
</a>
</g>
</g>
<!-- Node6&#45;&gt;Node21 -->
<g id="edge34" class="edge">
<title>Node6&#45;&gt;Node21</title>
<path fill="none" stroke="#63b8ff" d="M823.76,-300.03C895.6,-290.94 1040.22,-272.65 1127.59,-261.6"/>
<polygon fill="#63b8ff" stroke="#63b8ff" points="1128.02,-265.07 1137.5,-260.34 1127.14,-258.12 1128.02,-265.07"/>
</g>
<!-- Node22 -->
<g id="node22" class="node">
<title>Node22</title>
<g id="a_node22"><a xlink:href="OSMessage_8h.html" target="_top" xlink:title=" ">
<polygon fill="white" stroke="#666666" points="1083,-261 958,-261 958,-242 1083,-242 1083,-261"/>
<text text-anchor="middle" x="1020.5" y="-249" font-family="Helvetica,sans-Serif" font-size="10.00">dolphin/os/OSMessage.h</text>
</a>
</g>
</g>
<!-- Node6&#45;&gt;Node22 -->
<g id="edge36" class="edge">
<title>Node6&#45;&gt;Node22</title>
<path fill="none" stroke="#63b8ff" d="M821.21,-296.51C861.93,-287.52 924.71,-273.65 968.9,-263.9"/>
<polygon fill="#63b8ff" stroke="#63b8ff" points="969.5,-267.35 978.51,-261.77 967.99,-260.51 969.5,-267.35"/>
</g>
<!-- Node23 -->
<g id="node23" class="node">
<title>Node23</title>
<g id="a_node23"><a xlink:href="OSThread_8h.html" target="_top" xlink:title=" ">
<polygon fill="white" stroke="#666666" points="1038.5,-206 922.5,-206 922.5,-187 1038.5,-187 1038.5,-206"/>
<text text-anchor="middle" x="980.5" y="-194" font-family="Helvetica,sans-Serif" font-size="10.00">dolphin/os/OSThread.h</text>
</a>
</g>
</g>
<!-- Node6&#45;&gt;Node23 -->
<g id="edge50" class="edge">
<title>Node6&#45;&gt;Node23</title>
<path fill="none" stroke="#63b8ff" d="M783.36,-296.65C788.28,-282.85 799.68,-256.3 818.5,-242 845.08,-221.8 880.27,-210.77 911.06,-204.75"/>
<polygon fill="#63b8ff" stroke="#63b8ff" points="911.47,-208.23 920.69,-203.01 910.23,-201.34 911.47,-208.23"/>
</g>
<!-- Node24 -->
<g id="node24" class="node">
<title>Node24</title>
<g id="a_node24"><a xlink:href="OSMutex_8h.html" target="_top" xlink:title=" ">
<polygon fill="white" stroke="#666666" points="939.5,-261 827.5,-261 827.5,-242 939.5,-242 939.5,-261"/>
<text text-anchor="middle" x="883.5" y="-249" font-family="Helvetica,sans-Serif" font-size="10.00">dolphin/os/OSMutex.h</text>
</a>
</g>
</g>
<!-- Node6&#45;&gt;Node24 -->
<g id="edge39" class="edge">
<title>Node6&#45;&gt;Node24</title>
<path fill="none" stroke="#63b8ff" d="M797.97,-296.51C813.9,-288.31 837.69,-276.07 856.14,-266.58"/>
<polygon fill="#63b8ff" stroke="#63b8ff" points="857.65,-269.74 864.94,-262.05 854.45,-263.51 857.65,-269.74"/>
</g>
<!-- Node25 -->
<g id="node25" class="node">
<title>Node25</title>
<g id="a_node25"><a xlink:href="OSReboot_8h.html" target="_top" xlink:title=" ">
<polygon fill="white" stroke="#666666" points="1432.5,-206 1316.5,-206 1316.5,-187 1432.5,-187 1432.5,-206"/>
<text text-anchor="middle" x="1374.5" y="-194" font-family="Helvetica,sans-Serif" font-size="10.00">dolphin/os/OSReboot.h</text>
</a>
</g>
</g>
<!-- Node6&#45;&gt;Node25 -->
<g id="edge41" class="edge">
<title>Node6&#45;&gt;Node25</title>
<path fill="none" stroke="#63b8ff" d="M823.78,-305.86C962.17,-306.57 1387.33,-305.1 1428.5,-261 1443.61,-244.82 1421.38,-225.3 1401.04,-212.22"/>
<polygon fill="#63b8ff" stroke="#63b8ff" points="1403.04,-209.33 1392.67,-207.13 1399.41,-215.32 1403.04,-209.33"/>
</g>
<!-- Node26 -->
<g id="node26" class="node">
<title>Node26</title>
<g id="a_node26"><a xlink:href="OSResetSW_8h.html" target="_top" xlink:title=" ">
<polygon fill="white" stroke="#666666" points="1482,-145.5 1355,-145.5 1355,-126.5 1482,-126.5 1482,-145.5"/>
<text text-anchor="middle" x="1418.5" y="-133.5" font-family="Helvetica,sans-Serif" font-size="10.00">dolphin/os/OSResetSW.h</text>
</a>
</g>
</g>
<!-- Node6&#45;&gt;Node26 -->
<g id="edge44" class="edge">
<title>Node6&#45;&gt;Node26</title>
<path fill="none" stroke="#63b8ff" d="M823.92,-305.94C964.89,-306.93 1403.11,-306.32 1445.5,-261 1472.74,-231.88 1447.97,-181.96 1431.12,-155.2"/>
<polygon fill="#63b8ff" stroke="#63b8ff" points="1434.22,-153.56 1425.79,-147.14 1428.38,-157.41 1434.22,-153.56"/>
</g>
<!-- Node27 -->
<g id="node27" class="node">
<title>Node27</title>
<g id="a_node27"><a xlink:href="OSRtc_8h.html" target="_top" xlink:title=" ">
<polygon fill="white" stroke="#666666" points="1590,-206 1489,-206 1489,-187 1590,-187 1590,-206"/>
<text text-anchor="middle" x="1539.5" y="-194" font-family="Helvetica,sans-Serif" font-size="10.00">dolphin/os/OSRtc.h</text>
</a>
</g>
</g>
<!-- Node6&#45;&gt;Node27 -->
<g id="edge46" class="edge">
<title>Node6&#45;&gt;Node27</title>
<path fill="none" stroke="#63b8ff" d="M823.93,-305.1C970.57,-303.43 1441.48,-295.41 1499.5,-261 1515.95,-251.25 1526.68,-231.81 1532.85,-216.99"/>
<polygon fill="#63b8ff" stroke="#63b8ff" points="1536.07,-218.38 1536.31,-207.79 1529.51,-215.92 1536.07,-218.38"/>
</g>
<!-- Node28 -->
<g id="node28" class="node">
<title>Node28</title>
<g id="a_node28"><a xlink:href="OSSync_8h.html" target="_top" xlink:title=" ">
<polygon fill="white" stroke="#666666" points="1646,-145.5 1539,-145.5 1539,-126.5 1646,-126.5 1646,-145.5"/>
<text text-anchor="middle" x="1592.5" y="-133.5" font-family="Helvetica,sans-Serif" font-size="10.00">dolphin/os/OSSync.h</text>
</a>
</g>
</g>
<!-- Node6&#45;&gt;Node28 -->
<g id="edge48" class="edge">
<title>Node6&#45;&gt;Node28</title>
<path fill="none" stroke="#63b8ff" d="M823.92,-304.33C972.92,-300.12 1457.79,-284.71 1523.5,-261 1562.38,-246.97 1579.82,-242.87 1598.5,-206 1606.31,-190.58 1603.46,-170.72 1599.46,-156.27"/>
<polygon fill="#63b8ff" stroke="#63b8ff" points="1602.89,-155.51 1596.49,-147.06 1596.22,-157.65 1602.89,-155.51"/>
</g>
<!-- Node7&#45;&gt;Node3 -->
<g id="edge7" class="edge">
<title>Node7&#45;&gt;Node3</title>
<path fill="none" stroke="#63b8ff" d="M1664.29,-122.49C1660.98,-121.93 1657.7,-121.43 1654.5,-121 1366.46,-82.4 1017.15,-77.06 887.34,-76.49"/>
<polygon fill="#63b8ff" stroke="#63b8ff" points="887.72,-72.99 877.7,-76.45 887.69,-79.99 887.72,-72.99"/>
</g>
<!-- Node8&#45;&gt;Node3 -->
<g id="edge9" class="edge">
<title>Node8&#45;&gt;Node3</title>
<path fill="none" stroke="#63b8ff" d="M217.8,-130.11C244.58,-127.33 278.93,-123.84 309.5,-121 482.94,-104.87 688.8,-88.16 783.32,-80.62"/>
<polygon fill="#63b8ff" stroke="#63b8ff" points="783.36,-84.13 793.05,-79.85 782.8,-77.15 783.36,-84.13"/>
</g>
<!-- Node9&#45;&gt;Node10 -->
<g id="edge11" class="edge">
<title>Node9&#45;&gt;Node10</title>
<path fill="none" stroke="#63b8ff" d="M312.3,-241.51C292.42,-233.08 262.47,-220.38 239.84,-210.79"/>
<polygon fill="#63b8ff" stroke="#63b8ff" points="241.36,-207.63 230.78,-206.95 238.63,-214.07 241.36,-207.63"/>
</g>
<!-- Node9&#45;&gt;Node11 -->
<g id="edge13" class="edge">
<title>Node9&#45;&gt;Node11</title>
<path fill="none" stroke="#63b8ff" d="M333.5,-241.75C333.5,-235.27 333.5,-226.16 333.5,-217.9"/>
<polygon fill="#63b8ff" stroke="#63b8ff" points="337,-217.96 333.5,-207.96 330,-217.96 337,-217.96"/>
</g>
<!-- Node10&#45;&gt;Node3 -->
<g id="edge12" class="edge">
<title>Node10&#45;&gt;Node3</title>
<path fill="none" stroke="#63b8ff" d="M225.8,-186.59C257.91,-170.51 329.29,-136.82 393.5,-121 531.39,-87.02 699.6,-78.9 783.17,-77.02"/>
<polygon fill="#63b8ff" stroke="#63b8ff" points="783.19,-80.52 793.12,-76.82 783.05,-73.52 783.19,-80.52"/>
</g>
<!-- Node11&#45;&gt;Node3 -->
<g id="edge14" class="edge">
<title>Node11&#45;&gt;Node3</title>
<path fill="none" stroke="#63b8ff" d="M344.64,-186.53C365.42,-170.34 412.11,-136.5 457.5,-121 569.09,-82.89 708.78,-76.29 783.18,-75.79"/>
<polygon fill="#63b8ff" stroke="#63b8ff" points="783.04,-79.29 793.03,-75.76 783.02,-72.29 783.04,-79.29"/>
</g>
<!-- Node12&#45;&gt;Node3 -->
<g id="edge16" class="edge">
<title>Node12&#45;&gt;Node3</title>
<path fill="none" stroke="#63b8ff" d="M457.71,-186.55C456.86,-170.72 457.64,-137.83 476.5,-121 520.73,-81.53 694.94,-76.08 783.38,-75.93"/>
<polygon fill="#63b8ff" stroke="#63b8ff" points="783.24,-79.43 793.24,-75.94 783.25,-72.43 783.24,-79.43"/>
</g>
<!-- Node13&#45;&gt;Node3 -->
<g id="edge18" class="edge">
<title>Node13&#45;&gt;Node3</title>
<path fill="none" stroke="#63b8ff" d="M586.31,-126.03C594.68,-124.36 603.36,-122.62 611.5,-121 670.47,-109.25 738.18,-95.8 783.58,-86.8"/>
<polygon fill="#63b8ff" stroke="#63b8ff" points="784.01,-90.28 793.14,-84.9 782.65,-83.41 784.01,-90.28"/>
</g>
<!-- Node14&#45;&gt;Node3 -->
<g id="edge20" class="edge">
<title>Node14&#45;&gt;Node3</title>
<path fill="none" stroke="#63b8ff" d="M638.01,-186.96C634.14,-171.76 628.69,-139.86 644.5,-121 662.11,-100 733.08,-87.82 783.35,-81.66"/>
<polygon fill="#63b8ff" stroke="#63b8ff" points="783.66,-85.15 793.19,-80.51 782.85,-78.2 783.66,-85.15"/>
</g>
<!-- Node15&#45;&gt;Node3 -->
<g id="edge22" class="edge">
<title>Node15&#45;&gt;Node3</title>
<path fill="none" stroke="#63b8ff" d="M729.48,-126.12C749.86,-116.58 782.48,-101.31 806.16,-90.23"/>
<polygon fill="#63b8ff" stroke="#63b8ff" points="807.39,-93.52 814.97,-86.11 804.42,-87.18 807.39,-93.52"/>
</g>
<!-- Node16&#45;&gt;Node3 -->
<g id="edge24" class="edge">
<title>Node16&#45;&gt;Node3</title>
<path fill="none" stroke="#63b8ff" d="M980.53,-126.12C951.78,-116.28 905.2,-100.34 872.61,-89.19"/>
<polygon fill="#63b8ff" stroke="#63b8ff" points="873.74,-85.88 863.15,-85.96 871.48,-92.51 873.74,-85.88"/>
</g>
<!-- Node17&#45;&gt;Node3 -->
<g id="edge27" class="edge">
<title>Node17&#45;&gt;Node3</title>
<path fill="none" stroke="#63b8ff" d="M693.23,-241.54C705.53,-233.15 723.73,-219.87 737.5,-206 773.13,-170.14 806.92,-120.99 823.97,-94.75"/>
<polygon fill="#63b8ff" stroke="#63b8ff" points="826.76,-96.89 829.21,-86.58 820.87,-93.11 826.76,-96.89"/>
</g>
<!-- Node18&#45;&gt;Node3 -->
<g id="edge29" class="edge">
<title>Node18&#45;&gt;Node3</title>
<path fill="none" stroke="#63b8ff" d="M870.45,-126.37C864.58,-117.99 855.48,-105.01 848.04,-94.39"/>
<polygon fill="#63b8ff" stroke="#63b8ff" points="851.05,-92.59 842.44,-86.41 845.32,-96.6 851.05,-92.59"/>
</g>
<!-- Node19&#45;&gt;Node3 -->
<g id="edge31" class="edge">
<title>Node19&#45;&gt;Node3</title>
<path fill="none" stroke="#63b8ff" d="M1187.81,-186.58C1166.51,-170.77 1119.41,-137.94 1074.5,-121 1012.72,-97.69 937.18,-86.25 887.78,-80.88"/>
<polygon fill="#63b8ff" stroke="#63b8ff" points="888.24,-77.41 877.93,-79.86 887.52,-84.37 888.24,-77.41"/>
</g>
<!-- Node20&#45;&gt;Node3 -->
<g id="edge33" class="edge">
<title>Node20&#45;&gt;Node3</title>
<path fill="none" stroke="#63b8ff" d="M1355.22,-241.59C1337.04,-228.63 1301.66,-204.25 1269.5,-187 1204.6,-152.19 1188.22,-141.57 1117.5,-121 1039.14,-98.21 944.92,-86.32 887.66,-80.75"/>
<polygon fill="#63b8ff" stroke="#63b8ff" points="888.16,-77.28 877.87,-79.82 887.5,-84.25 888.16,-77.28"/>
</g>
<!-- Node21&#45;&gt;Node19 -->
<g id="edge35" class="edge">
<title>Node21&#45;&gt;Node19</title>
<path fill="none" stroke="#63b8ff" d="M1199.5,-241.75C1199.5,-235.27 1199.5,-226.16 1199.5,-217.9"/>
<polygon fill="#63b8ff" stroke="#63b8ff" points="1203,-217.96 1199.5,-207.96 1196,-217.96 1203,-217.96"/>
</g>
<!-- Node22&#45;&gt;Node23 -->
<g id="edge37" class="edge">
<title>Node22&#45;&gt;Node23</title>
<path fill="none" stroke="#63b8ff" d="M1013.89,-241.75C1008.54,-234.66 1000.82,-224.42 994.15,-215.59"/>
<polygon fill="#63b8ff" stroke="#63b8ff" points="996.98,-213.52 988.16,-207.65 991.39,-217.74 996.98,-213.52"/>
</g>
<!-- Node23&#45;&gt;Node16 -->
<g id="edge38" class="edge">
<title>Node23&#45;&gt;Node16</title>
<path fill="none" stroke="#63b8ff" d="M984.34,-186.87C987.95,-178.75 993.47,-166.31 998.11,-155.89"/>
<polygon fill="#63b8ff" stroke="#63b8ff" points="1001.17,-157.61 1002.03,-147.05 994.77,-154.77 1001.17,-157.61"/>
</g>
<!-- Node24&#45;&gt;Node23 -->
<g id="edge40" class="edge">
<title>Node24&#45;&gt;Node23</title>
<path fill="none" stroke="#63b8ff" d="M899.95,-241.51C914.82,-233.39 936.94,-221.3 954.25,-211.85"/>
<polygon fill="#63b8ff" stroke="#63b8ff" points="955.86,-214.95 962.96,-207.08 952.51,-208.81 955.86,-214.95"/>
</g>
<!-- Node25&#45;&gt;Node3 -->
<g id="edge42" class="edge">
<title>Node25&#45;&gt;Node3</title>
<path fill="none" stroke="#63b8ff" d="M1369.08,-186.67C1358.56,-170.4 1333.62,-135.98 1302.5,-121 1230.36,-86.26 993.53,-78.64 887.56,-76.97"/>
<polygon fill="#63b8ff" stroke="#63b8ff" points="887.78,-73.47 877.73,-76.82 887.67,-80.47 887.78,-73.47"/>
</g>
<!-- Node26&#45;&gt;Node3 -->
<g id="edge45" class="edge">
<title>Node26&#45;&gt;Node3</title>
<path fill="none" stroke="#63b8ff" d="M1372.41,-126.02C1361.95,-124.18 1350.86,-122.38 1340.5,-121 1175.86,-99.02 979.51,-85.26 887.68,-79.55"/>
<polygon fill="#63b8ff" stroke="#63b8ff" points="887.93,-76.06 877.73,-78.94 887.5,-83.04 887.93,-76.06"/>
</g>
<!-- Node27&#45;&gt;Node3 -->
<g id="edge47" class="edge">
<title>Node27&#45;&gt;Node3</title>
<path fill="none" stroke="#63b8ff" d="M1536.66,-186.67C1530.9,-170.4 1516.17,-135.99 1490.5,-121 1438.99,-90.93 1033.76,-80.28 887.73,-77.4"/>
<polygon fill="#63b8ff" stroke="#63b8ff" points="888.03,-73.9 877.96,-77.21 887.89,-80.9 888.03,-73.9"/>
</g>
<!-- Node28&#45;&gt;Node3 -->
<g id="edge49" class="edge">
<title>Node28&#45;&gt;Node3</title>
<path fill="none" stroke="#63b8ff" d="M1553.82,-126.07C1544.28,-124.14 1534.06,-122.29 1524.5,-121 1288.19,-89.2 1003.12,-79.95 887.74,-77.41"/>
<polygon fill="#63b8ff" stroke="#63b8ff" points="888.05,-73.91 877.98,-77.2 887.9,-80.91 888.05,-73.91"/>
</g>
</g>
</svg>
        <g id="navigator" transform="translate(0 0)" fill="#404254">
                <rect fill="#f2f5e9" fill-opacity="0.5" stroke="#606060" stroke-width=".5" x="0" y="0" width="60" height="60"/>
                <use id="zoomplus" xlink:href="#zoomPlus" x="17" y="9" onmousedown="handleZoom(evt,'in')"/>
                <use id="zoomminus" xlink:href="#zoomMin" x="42" y="9" onmousedown="handleZoom(evt,'out')"/>
                <use id="reset" xlink:href="#resetDef" x="30" y="36" onmousedown="handleReset()"/>
                <g id="arrowUp" xlink:href="#dirArrow" transform="translate(30 24)" onmousedown="handlePan(0,-1)">
                  <use xlink:href="#rim" fill="#404040">
                        <set attributeName="fill" to="#808080" begin="arrowUp.mouseover" end="arrowUp.mouseout"/>
                  </use>
                  <path fill="none" stroke="white" stroke-width="1.5" d="M0,-3.0v7 M-2.5,-0.5L0,-3.0L2.5,-0.5"/>
                </g>
                <g id="arrowRight" xlink:href="#dirArrow" transform="rotate(90) translate(36 -43)" onmousedown="handlePan(1,0)">
                  <use xlink:href="#rim" fill="#404040">
                        <set attributeName="fill" to="#808080" begin="arrowRight.mouseover" end="arrowRight.mouseout"/>
                  </use>
                  <path fill="none" stroke="white" stroke-width="1.5" d="M0,-3.0v7 M-2.5,-0.5L0,-3.0L2.5,-0.5"/>
                </g>
                <g id="arrowDown" xlink:href="#dirArrow" transform="rotate(180) translate(-30 -48)" onmousedown="handlePan(0,1)">
                  <use xlink:href="#rim" fill="#404040">
                        <set attributeName="fill" to="#808080" begin="arrowDown.mouseover" end="arrowDown.mouseout"/>
                  </use>
                  <path fill="none" stroke="white" stroke-width="1.5" d="M0,-3.0v7 M-2.5,-0.5L0,-3.0L2.5,-0.5"/>
                </g>
                <g id="arrowLeft" xlink:href="#dirArrow" transform="rotate(270) translate(-36 17)" onmousedown="handlePan(-1,0)">
                  <use xlink:href="#rim" fill="#404040">
                        <set attributeName="fill" to="#808080" begin="arrowLeft.mouseover" end="arrowLeft.mouseout"/>
                  </use>
                  <path fill="none" stroke="white" stroke-width="1.5" d="M0,-3.0v7 M-2.5,-0.5L0,-3.0L2.5,-0.5"/>
                </g>
        </g>
        <svg viewBox="0 0 15 15" width="100%" height="30px" preserveAspectRatio="xMaxYMin meet">
         <g id="arrow_out" transform="scale(0.3 0.3)">
          <a xlink:href="OSReset_8c__incl_org.svg" target="_base">
           <rect id="button" ry="5" rx="5" y="6" x="6" height="38" width="38"
                fill="#f2f5e9" fill-opacity="0.5" stroke="#606060" stroke-width="1.0"/>
           <path id="arrow"
             d="M 11.500037,31.436501 C 11.940474,20.09759 22.043105,11.32322 32.158766,21.979434 L 37.068811,17.246167 C 37.068811,17.246167 37.088388,32 37.088388,32 L 22.160133,31.978069 C 22.160133,31.978069 26.997745,27.140456 26.997745,27.140456 C 18.528582,18.264221 13.291696,25.230495 11.500037,31.436501 z"
             style="fill:#404040;"/>
          </a>
         </g>
        </svg>
</svg>
