<?xml version="1.0" encoding="UTF-8" standalone="no"?>
<!DOCTYPE svg PUBLIC "-//W3C//DTD SVG 1.1//EN"
 "http://www.w3.org/Graphics/SVG/1.1/DTD/svg11.dtd">
<!-- Generated by graphviz version 9.0.0 (20230911.1827)
 -->
<!-- Title: libs/dolphin/os/OSRtc.c Pages: 1 -->
<svg width="248pt" height="193pt"
 viewBox="0.00 0.00 247.50 193.00" xmlns="http://www.w3.org/2000/svg" xmlns:xlink="http://www.w3.org/1999/xlink">

<svg id="main" version="1.1" xmlns="http://www.w3.org/2000/svg" xmlns:xlink="http://www.w3.org/1999/xlink" xml:space="preserve" onload="init(evt)">
<style type="text/css"><![CDATA[
.node, .edge {opacity: 0.7;}
.node.selected, .edge.selected {opacity: 1;}
.edge:hover path { stroke: red; }
.edge:hover polygon { stroke: red; fill: red; }
]]></style>
<script type="application/ecmascript" xlink:href="svg.min.js"/>
<svg id="graph" class="graph">
<g id="graph0" class="graph" transform="scale(1 1) rotate(0) translate(4 189)">
<title>libs/dolphin/os/OSRtc.c</title>
<!-- Node1 -->
<g id="Node000001" class="node">
<title>Node1</title>
<g id="a_Node000001"><a xlink:title=" ">
<polygon fill="#999999" stroke="#666666" points="173,-185 55,-185 55,-165.75 173,-165.75 173,-185"/>
<text text-anchor="middle" x="114" y="-171.5" font-family="Helvetica,sans-Serif" font-size="10.00">libs/dolphin/os/OSRtc.c</text>
</a>
</g>
</g>
<!-- Node2 -->
<g id="Node000002" class="node">
<title>Node2</title>
<g id="a_Node000002"><a xlink:href="OSRtc_8h.html" target="_top" xlink:title=" ">
<polygon fill="white" stroke="#666666" points="100,-129.75 0,-129.75 0,-110.5 100,-110.5 100,-129.75"/>
<text text-anchor="middle" x="50" y="-116.25" font-family="Helvetica,sans-Serif" font-size="10.00">dolphin/os/OSRtc.h</text>
</a>
</g>
</g>
<!-- Node1&#45;&gt;Node2 -->
<g id="edge1_Node000001_Node000002" class="edge">
<title>Node1&#45;&gt;Node2</title>
<g id="a_edge1_Node000001_Node000002"><a xlink:title=" ">
<path fill="none" stroke="#63b8ff" d="M103.14,-165.34C93.89,-157.65 80.38,-146.4 69.29,-137.18"/>
<polygon fill="#63b8ff" stroke="#63b8ff" points="71.79,-134.7 61.86,-130.99 67.31,-140.08 71.79,-134.7"/>
</a>
</g>
</g>
<!-- Node5 -->
<g id="Node000005" class="node">
<title>Node5</title>
<g id="a_Node000005"><a xlink:href="OSInterrupt_8h.html" target="_top" xlink:title=" ">
<polygon fill="white" stroke="#666666" points="239.5,-129.75 118.5,-129.75 118.5,-110.5 239.5,-110.5 239.5,-129.75"/>
<text text-anchor="middle" x="179" y="-116.25" font-family="Helvetica,sans-Serif" font-size="10.00">dolphin/os/OSInterrupt.h</text>
</a>
</g>
</g>
<!-- Node1&#45;&gt;Node5 -->
<g id="edge4_Node000001_Node000005" class="edge">
<title>Node1&#45;&gt;Node5</title>
<g id="a_edge4_Node000001_Node000005"><a xlink:title=" ">
<path fill="none" stroke="#63b8ff" d="M125.03,-165.34C134.42,-157.65 148.15,-146.4 159.41,-137.18"/>
<polygon fill="#63b8ff" stroke="#63b8ff" points="161.45,-140.03 166.97,-130.98 157.01,-134.61 161.45,-140.03"/>
</a>
</g>
</g>
<!-- Node3 -->
<g id="Node000003" class="node">
<title>Node3</title>
<g id="a_Node000003"><a xlink:href="types_8h.html" target="_top" xlink:title=" ">
<polygon fill="white" stroke="#666666" points="154.25,-74.5 73.75,-74.5 73.75,-55.25 154.25,-55.25 154.25,-74.5"/>
<text text-anchor="middle" x="114" y="-61" font-family="Helvetica,sans-Serif" font-size="10.00">dolphin/types.h</text>
</a>
</g>
</g>
<!-- Node2&#45;&gt;Node3 -->
<g id="edge2_Node000002_Node000003" class="edge">
<title>Node2&#45;&gt;Node3</title>
<g id="a_edge2_Node000002_Node000003"><a xlink:title=" ">
<path fill="none" stroke="#63b8ff" d="M60.86,-110.09C70.11,-102.4 83.62,-91.15 94.71,-81.93"/>
<polygon fill="#63b8ff" stroke="#63b8ff" points="96.69,-84.83 102.14,-75.74 92.21,-79.45 96.69,-84.83"/>
</a>
</g>
</g>
<!-- Node4 -->
<g id="Node000004" class="node">
<title>Node4</title>
<g id="a_Node000004"><a xlink:href="stddef_8h.html" target="_top" xlink:title=" ">
<polygon fill="white" stroke="#666666" points="139.25,-19.25 88.75,-19.25 88.75,0 139.25,0 139.25,-19.25"/>
<text text-anchor="middle" x="114" y="-5.75" font-family="Helvetica,sans-Serif" font-size="10.00">stddef.h</text>
</a>
</g>
</g>
<!-- Node3&#45;&gt;Node4 -->
<g id="edge3_Node000003_Node000004" class="edge">
<title>Node3&#45;&gt;Node4</title>
<g id="a_edge3_Node000003_Node000004"><a xlink:title=" ">
<path fill="none" stroke="#63b8ff" d="M114,-55.08C114,-48.57 114,-39.42 114,-31.12"/>
<polygon fill="#63b8ff" stroke="#63b8ff" points="117.5,-31.12 114,-21.12 110.5,-31.12 117.5,-31.12"/>
</a>
</g>
</g>
<!-- Node5&#45;&gt;Node3 -->
<g id="edge5_Node000005_Node000003" class="edge">
<title>Node5&#45;&gt;Node3</title>
<g id="a_edge5_Node000005_Node000003"><a xlink:title=" ">
<path fill="none" stroke="#63b8ff" d="M167.97,-110.09C158.58,-102.4 144.85,-91.15 133.59,-81.93"/>
<polygon fill="#63b8ff" stroke="#63b8ff" points="135.99,-79.36 126.03,-75.73 131.55,-84.78 135.99,-79.36"/>
</a>
</g>
</g>
</g>
</svg>
</svg>

<style type='text/css'>
<![CDATA[
[data-mouse-over-selected='false'] { opacity: 0.7; }
[data-mouse-over-selected='true']  { opacity: 1.0; }
]]>
</style>
<script type="application/ecmascript"><![CDATA[
document.addEventListener('DOMContentLoaded', (event) => {
  highlightEdges();
  highlightAdjacentNodes();
});
]]></script>
</svg>
