<?xml version="1.0" encoding="UTF-8" standalone="no"?>
<!DOCTYPE svg PUBLIC "-//W3C//DTD SVG 1.1//EN"
 "http://www.w3.org/Graphics/SVG/1.1/DTD/svg11.dtd">
<!-- Generated by graphviz version 9.0.0 (20230911.1827)
 -->
<!-- Title: libs/PowerPC_EABI_Support/MSL/MSL_C/MSL_Common/Include/printf.h Pages: 1 -->
<!--zoomable 338 -->

<svg id="main" version="1.1" xmlns="http://www.w3.org/2000/svg" xmlns:xlink="http://www.w3.org/1999/xlink" xml:space="preserve" onload="init(evt)">
<style type="text/css"><![CDATA[
.node, .edge {opacity: 0.7;}
.node.selected, .edge.selected {opacity: 1;}
.edge:hover path { stroke: red; }
.edge:hover polygon { stroke: red; fill: red; }
]]></style>

<defs>
  <circle id="rim" cx="0" cy="0" r="7"/>
  <circle id="rim2" cx="0" cy="0" r="3.5"/>
  <g id="zoomPlus">
    <use xlink:href="#rim" fill="#404040"><set attributeName="fill" to="#808080" begin="zoomplus.mouseover" end="zoomplus.mouseout"/></use>
    <path d="M-4,0h8M0,-4v8" fill="none" stroke="white" stroke-width="1.5" pointer-events="none"/>
  </g>
  <g id="zoomMin">
    <use xlink:href="#rim" fill="#404040"><set attributeName="fill" to="#808080" begin="zoomminus.mouseover" end="zoomminus.mouseout"/></use>
    <path d="M-4,0h8" fill="none" stroke="white" stroke-width="1.5" pointer-events="none"/>
  </g>
  <g id="arrowUp" transform="translate(30 24)">
    <use xlink:href="#rim"/>
    <path pointer-events="none" fill="none" stroke="white" stroke-width="1.5" d="M0,-3.0v7 M-2.5,-0.5L0,-3.0L2.5,-0.5"/>
  </g>
  <g id="arrowRight" transform="rotate(90) translate(36 -43)">
    <use xlink:href="#rim"/>
    <path pointer-events="none" fill="none" stroke="white" stroke-width="1.5" d="M0,-3.0v7 M-2.5,-0.5L0,-3.0L2.5,-0.5"/>
  </g>
  <g id="arrowDown" transform="rotate(180) translate(-30 -48)">
    <use xlink:href="#rim"/>
    <path pointer-events="none" fill="none" stroke="white" stroke-width="1.5" d="M0,-3.0v7 M-2.5,-0.5L0,-3.0L2.5,-0.5"/>
  </g>
  <g id="arrowLeft" transform="rotate(270) translate(-36 17)">
    <use xlink:href="#rim"/>
    <path pointer-events="none" fill="none" stroke="white" stroke-width="1.5" d="M0,-3.0v7 M-2.5,-0.5L0,-3.0L2.5,-0.5"/>
  </g>
  <g id="resetDef">
    <use xlink:href="#rim2" fill="#404040"><set attributeName="fill" to="#808080" begin="reset.mouseover" end="reset.mouseout"/></use>
  </g>
</defs>
<script type="application/ecmascript">
var viewWidth = 4688;
var viewHeight = 338;
var sectionId = 'dynsection-1';
</script>
<script type="application/ecmascript" xlink:href="svg.min.js"/>
<svg id="graph" class="graph">
<g id="viewport">
<title>libs/PowerPC_EABI_Support/MSL/MSL_C/MSL_Common/Include/printf.h</title>
<!-- Node1 -->
<g id="Node000001" class="node">
<title>Node1</title>
<g id="a_Node000001"><a xlink:title=" ">
<polygon fill="#999999" stroke="#666666" points="2172.5,-330.25 1993.75,-330.25 1993.75,-288.5 2172.5,-288.5 2172.5,-330.25"/>
<text text-anchor="start" x="2001.75" y="-316.75" font-family="Helvetica,sans-Serif" font-size="10.00">libs/PowerPC_EABI_Support</text>
<text text-anchor="start" x="2001.75" y="-305.5" font-family="Helvetica,sans-Serif" font-size="10.00">/MSL/MSL_C/MSL_Common/Include</text>
<text text-anchor="middle" x="2083.12" y="-294.25" font-family="Helvetica,sans-Serif" font-size="10.00">/printf.h</text>
</a>
</g>
</g>
<!-- Node2 -->
<g id="Node000002" class="node">
<title>Node2</title>
<g id="a_Node000002"><a xlink:href="stdio_8h.html" target="_top" xlink:title=" ">
<polygon fill="white" stroke="#666666" points="2172.5,-252.5 1993.75,-252.5 1993.75,-210.75 2172.5,-210.75 2172.5,-252.5"/>
<text text-anchor="start" x="2001.75" y="-239" font-family="Helvetica,sans-Serif" font-size="10.00">libs/PowerPC_EABI_Support</text>
<text text-anchor="start" x="2001.75" y="-227.75" font-family="Helvetica,sans-Serif" font-size="10.00">/MSL/MSL_C/MSL_Common/Include</text>
<text text-anchor="middle" x="2083.12" y="-216.5" font-family="Helvetica,sans-Serif" font-size="10.00">/stdio.h</text>
</a>
</g>
</g>
<!-- Node1&#45;&gt;Node2 -->
<g id="edge1_Node000001_Node000002" class="edge">
<title>Node1&#45;&gt;Node2</title>
<g id="a_edge1_Node000001_Node000002"><a xlink:title=" ">
<path fill="none" stroke="#63b8ff" d="M2083.12,-276.75C2083.12,-268.71 2083.12,-260.29 2083.12,-252.98"/>
<polygon fill="#63b8ff" stroke="#63b8ff" points="2079.63,-276.56 2083.13,-286.56 2086.63,-276.56 2079.63,-276.56"/>
</a>
</g>
</g>
<!-- Node19 -->
<g id="Node000019" class="node">
<title>Node19</title>
<g id="a_Node000019"><a xlink:href="printf_8c.html" target="_top" xlink:title=" ">
<polygon fill="white" stroke="#666666" points="162.25,-174.75 0,-174.75 0,-133 162.25,-133 162.25,-174.75"/>
<text text-anchor="start" x="8" y="-161.25" font-family="Helvetica,sans-Serif" font-size="10.00">libs/PowerPC_EABI_Support</text>
<text text-anchor="start" x="8" y="-150" font-family="Helvetica,sans-Serif" font-size="10.00">/MSL/MSL_C/MSL_Common/Src</text>
<text text-anchor="middle" x="81.12" y="-138.75" font-family="Helvetica,sans-Serif" font-size="10.00">/printf.c</text>
</a>
</g>
</g>
<!-- Node1&#45;&gt;Node19 -->
<g id="edge44_Node000001_Node000019" class="edge">
<title>Node1&#45;&gt;Node19</title>
<g id="a_edge44_Node000001_Node000019"><a xlink:title=" ">
<path fill="none" stroke="#63b8ff" d="M1982.44,-306.48C1697.17,-300 859.64,-273.33 172.12,-174.75 168.92,-174.29 165.67,-173.78 162.38,-173.23"/>
<polygon fill="#63b8ff" stroke="#63b8ff" points="1981.98,-309.97 1992.06,-306.69 1982.14,-302.97 1981.98,-309.97"/>
</a>
</g>
</g>
<!-- Node43 -->
<g id="Node000043" class="node">
<title>Node43</title>
<g id="a_Node000043"><a xlink:href="OSExec_8c.html" target="_top" xlink:title=" ">
<polygon fill="white" stroke="#666666" points="2314.12,-241.25 2190.12,-241.25 2190.12,-222 2314.12,-222 2314.12,-241.25"/>
<text text-anchor="middle" x="2252.12" y="-227.75" font-family="Helvetica,sans-Serif" font-size="10.00">libs/dolphin/os/OSExec.c</text>
</a>
</g>
</g>
<!-- Node1&#45;&gt;Node43 -->
<g id="edge45_Node000001_Node000043" class="edge">
<title>Node1&#45;&gt;Node43</title>
<g id="a_edge45_Node000001_Node000043"><a xlink:title=" ">
<path fill="none" stroke="#63b8ff" d="M2138.54,-283.53C2170.52,-269.2 2208.82,-252.04 2231.77,-241.75"/>
<polygon fill="#63b8ff" stroke="#63b8ff" points="2137.49,-280.17 2129.8,-287.46 2140.35,-286.56 2137.49,-280.17"/>
</a>
</g>
</g>
<!-- Node3 -->
<g id="Node000003" class="node">
<title>Node3</title>
<g id="a_Node000003"><a xlink:href="J2DPrint_8cpp.html" target="_top" xlink:title=" ">
<polygon fill="white" stroke="#666666" points="299.5,-169.12 180.75,-169.12 180.75,-138.62 299.5,-138.62 299.5,-169.12"/>
<text text-anchor="start" x="188.75" y="-155.62" font-family="Helvetica,sans-Serif" font-size="10.00">libs/JSystem/J2DGraph</text>
<text text-anchor="middle" x="240.12" y="-144.38" font-family="Helvetica,sans-Serif" font-size="10.00">/J2DPrint.cpp</text>
</a>
</g>
</g>
<!-- Node2&#45;&gt;Node3 -->
<g id="edge2_Node000002_Node000003" class="edge">
<title>Node2&#45;&gt;Node3</title>
<g id="a_edge2_Node000002_Node000003"><a xlink:title=" ">
<path fill="none" stroke="#63b8ff" d="M1981.98,-228.91C1630.42,-222.74 474,-200.68 309.12,-174.75 301.24,-173.51 292.99,-171.65 285.04,-169.55"/>
<polygon fill="#63b8ff" stroke="#63b8ff" points="1981.82,-232.41 1991.88,-229.08 1981.95,-225.41 1981.82,-232.41"/>
</a>
</g>
</g>
<!-- Node4 -->
<g id="Node000004" class="node">
<title>Node4</title>
<g id="a_Node000004"><a xlink:href="JASReport_8cpp.html" target="_top" xlink:title=" ">
<polygon fill="white" stroke="#666666" points="428.38,-169.12 317.88,-169.12 317.88,-138.62 428.38,-138.62 428.38,-169.12"/>
<text text-anchor="start" x="325.88" y="-155.62" font-family="Helvetica,sans-Serif" font-size="10.00">libs/JSystem/JAudio2</text>
<text text-anchor="middle" x="373.12" y="-144.38" font-family="Helvetica,sans-Serif" font-size="10.00">/JASReport.cpp</text>
</a>
</g>
</g>
<!-- Node2&#45;&gt;Node4 -->
<g id="edge3_Node000002_Node000004" class="edge">
<title>Node2&#45;&gt;Node4</title>
<g id="a_edge3_Node000002_Node000004"><a xlink:title=" ">
<path fill="none" stroke="#63b8ff" d="M1982.21,-228.77C1647.82,-222.39 588.74,-200.39 437.12,-174.75 429.78,-173.51 422.11,-171.65 414.74,-169.55"/>
<polygon fill="#63b8ff" stroke="#63b8ff" points="1981.74,-232.26 1991.8,-228.95 1981.87,-225.26 1981.74,-232.26"/>
</a>
</g>
</g>
<!-- Node5 -->
<g id="Node000005" class="node">
<title>Node5</title>
<g id="a_Node000005"><a xlink:href="JKRThread_8cpp.html" target="_top" xlink:title=" ">
<polygon fill="white" stroke="#666666" points="554.25,-169.12 446,-169.12 446,-138.62 554.25,-138.62 554.25,-169.12"/>
<text text-anchor="start" x="454" y="-155.62" font-family="Helvetica,sans-Serif" font-size="10.00">libs/JSystem/JKernel</text>
<text text-anchor="middle" x="500.12" y="-144.38" font-family="Helvetica,sans-Serif" font-size="10.00">/JKRThread.cpp</text>
</a>
</g>
</g>
<!-- Node2&#45;&gt;Node5 -->
<g id="edge4_Node000002_Node000005" class="edge">
<title>Node2&#45;&gt;Node5</title>
<g id="a_edge4_Node000002_Node000005"><a xlink:title=" ">
<path fill="none" stroke="#63b8ff" d="M1981.96,-228.48C1664.65,-221.54 701.88,-198.74 563.12,-174.75 555.89,-173.5 548.34,-171.63 541.08,-169.53"/>
<polygon fill="#63b8ff" stroke="#63b8ff" points="1981.83,-231.98 1991.91,-228.7 1981.99,-224.98 1981.83,-231.98"/>
</a>
</g>
</g>
<!-- Node6 -->
<g id="Node000006" class="node">
<title>Node6</title>
<g id="a_Node000006"><a xlink:href="JUTAssert_8cpp.html" target="_top" xlink:title=" ">
<polygon fill="white" stroke="#666666" points="677.75,-169.12 572.5,-169.12 572.5,-138.62 677.75,-138.62 677.75,-169.12"/>
<text text-anchor="start" x="580.5" y="-155.62" font-family="Helvetica,sans-Serif" font-size="10.00">libs/JSystem/JUtility</text>
<text text-anchor="middle" x="625.12" y="-144.38" font-family="Helvetica,sans-Serif" font-size="10.00">/JUTAssert.cpp</text>
</a>
</g>
</g>
<!-- Node2&#45;&gt;Node6 -->
<g id="edge5_Node000002_Node000006" class="edge">
<title>Node2&#45;&gt;Node6</title>
<g id="a_edge5_Node000002_Node000006"><a xlink:title=" ">
<path fill="none" stroke="#63b8ff" d="M1982.35,-230.18C1705.12,-228.39 935.18,-219.42 686.12,-174.75 679.22,-173.51 672.02,-171.68 665.08,-169.62"/>
<polygon fill="#63b8ff" stroke="#63b8ff" points="1982.06,-233.68 1992.08,-230.24 1982.1,-226.68 1982.06,-233.68"/>
</a>
</g>
</g>
<!-- Node7 -->
<g id="Node000007" class="node">
<title>Node7</title>
<g id="a_Node000007"><a xlink:href="JUTConsole_8cpp.html" target="_top" xlink:title=" ">
<polygon fill="white" stroke="#666666" points="800.75,-169.12 695.5,-169.12 695.5,-138.62 800.75,-138.62 800.75,-169.12"/>
<text text-anchor="start" x="703.5" y="-155.62" font-family="Helvetica,sans-Serif" font-size="10.00">libs/JSystem/JUtility</text>
<text text-anchor="middle" x="748.12" y="-144.38" font-family="Helvetica,sans-Serif" font-size="10.00">/JUTConsole.cpp</text>
</a>
</g>
</g>
<!-- Node2&#45;&gt;Node7 -->
<g id="edge6_Node000002_Node000007" class="edge">
<title>Node2&#45;&gt;Node7</title>
<g id="a_edge6_Node000002_Node000007"><a xlink:title=" ">
<path fill="none" stroke="#63b8ff" d="M1982.22,-229.72C1722.13,-226.83 1033.57,-215.45 809.12,-174.75 802.22,-173.5 795.02,-171.66 788.09,-169.6"/>
<polygon fill="#63b8ff" stroke="#63b8ff" points="1981.98,-233.22 1992.02,-229.83 1982.06,-226.22 1981.98,-233.22"/>
</a>
</g>
</g>
<!-- Node8 -->
<g id="Node000008" class="node">
<title>Node8</title>
<g id="a_Node000008"><a xlink:href="JUTDbPrint_8cpp.html" target="_top" xlink:title=" ">
<polygon fill="white" stroke="#666666" points="923.75,-169.12 818.5,-169.12 818.5,-138.62 923.75,-138.62 923.75,-169.12"/>
<text text-anchor="start" x="826.5" y="-155.62" font-family="Helvetica,sans-Serif" font-size="10.00">libs/JSystem/JUtility</text>
<text text-anchor="middle" x="871.12" y="-144.38" font-family="Helvetica,sans-Serif" font-size="10.00">/JUTDbPrint.cpp</text>
</a>
</g>
</g>
<!-- Node2&#45;&gt;Node8 -->
<g id="edge7_Node000002_Node000008" class="edge">
<title>Node2&#45;&gt;Node8</title>
<g id="a_edge7_Node000002_Node000008"><a xlink:title=" ">
<path fill="none" stroke="#63b8ff" d="M1982.21,-229.17C1740.2,-225.12 1132.11,-211.5 932.12,-174.75 925.22,-173.48 918.02,-171.63 911.09,-169.57"/>
<polygon fill="#63b8ff" stroke="#63b8ff" points="1981.88,-232.66 1991.94,-229.33 1982,-225.66 1981.88,-232.66"/>
</a>
</g>
</g>
<!-- Node9 -->
<g id="Node000009" class="node">
<title>Node9</title>
<g id="a_Node000009"><a xlink:href="JUTDirectPrint_8cpp.html" target="_top" xlink:title=" ">
<polygon fill="white" stroke="#666666" points="1046.75,-169.12 941.5,-169.12 941.5,-138.62 1046.75,-138.62 1046.75,-169.12"/>
<text text-anchor="start" x="949.5" y="-155.62" font-family="Helvetica,sans-Serif" font-size="10.00">libs/JSystem/JUtility</text>
<text text-anchor="middle" x="994.12" y="-144.38" font-family="Helvetica,sans-Serif" font-size="10.00">/JUTDirectPrint.cpp</text>
</a>
</g>
</g>
<!-- Node2&#45;&gt;Node9 -->
<g id="edge8_Node000002_Node000009" class="edge">
<title>Node2&#45;&gt;Node9</title>
<g id="a_edge8_Node000002_Node000009"><a xlink:title=" ">
<path fill="none" stroke="#63b8ff" d="M1981.96,-228.48C1758.9,-223.19 1230.73,-207.55 1055.12,-174.75 1048.23,-173.46 1041.03,-171.6 1034.1,-169.53"/>
<polygon fill="#63b8ff" stroke="#63b8ff" points="1981.72,-231.97 1991.8,-228.71 1981.88,-224.97 1981.72,-231.97"/>
</a>
</g>
</g>
<!-- Node10 -->
<g id="Node000010" class="node">
<title>Node10</title>
<g id="a_Node000010"><a xlink:href="JUTException_8cpp.html" target="_top" xlink:title=" ">
<polygon fill="white" stroke="#666666" points="1169.75,-169.12 1064.5,-169.12 1064.5,-138.62 1169.75,-138.62 1169.75,-169.12"/>
<text text-anchor="start" x="1072.5" y="-155.62" font-family="Helvetica,sans-Serif" font-size="10.00">libs/JSystem/JUtility</text>
<text text-anchor="middle" x="1117.12" y="-144.38" font-family="Helvetica,sans-Serif" font-size="10.00">/JUTException.cpp</text>
</a>
</g>
</g>
<!-- Node2&#45;&gt;Node10 -->
<g id="edge9_Node000002_Node000010" class="edge">
<title>Node2&#45;&gt;Node10</title>
<g id="a_edge9_Node000002_Node000010"><a xlink:title=" ">
<path fill="none" stroke="#63b8ff" d="M1982.14,-227.54C1779.66,-220.84 1330.51,-203.23 1179.12,-174.75 1172.24,-173.45 1165.05,-171.62 1158.11,-169.58"/>
<polygon fill="#63b8ff" stroke="#63b8ff" points="1981.73,-231.03 1991.84,-227.86 1981.96,-224.04 1981.73,-231.03"/>
</a>
</g>
</g>
<!-- Node11 -->
<g id="Node000011" class="node">
<title>Node11</title>
<g id="a_Node000011"><a xlink:href="bitset_8h.html" target="_top" xlink:title=" ">
<polygon fill="white" stroke="#666666" points="1344.25,-174.75 1188,-174.75 1188,-133 1344.25,-133 1344.25,-174.75"/>
<text text-anchor="start" x="1196" y="-161.25" font-family="Helvetica,sans-Serif" font-size="10.00">libs/PowerPC_EABI_Support</text>
<text text-anchor="start" x="1196" y="-150" font-family="Helvetica,sans-Serif" font-size="10.00">/MSL/MSL_C++/MSL_Common</text>
<text text-anchor="middle" x="1266.12" y="-138.75" font-family="Helvetica,sans-Serif" font-size="10.00">/Include/bitset.h</text>
</a>
</g>
</g>
<!-- Node2&#45;&gt;Node11 -->
<g id="edge10_Node000002_Node000011" class="edge">
<title>Node2&#45;&gt;Node11</title>
<g id="a_edge10_Node000002_Node000011"><a xlink:title=" ">
<path fill="none" stroke="#63b8ff" d="M1982.26,-227.18C1841.77,-221.4 1579.48,-207.04 1358.12,-174.75 1353.6,-174.09 1348.96,-173.34 1344.29,-172.52"/>
<polygon fill="#63b8ff" stroke="#63b8ff" points="1981.76,-230.66 1991.89,-227.57 1982.04,-223.67 1981.76,-230.66"/>
</a>
</g>
</g>
<!-- Node16 -->
<g id="Node000016" class="node">
<title>Node16</title>
<g id="a_Node000016"><a xlink:href="Z2AudioMgr_8cpp.html" target="_top" xlink:title=" ">
<polygon fill="white" stroke="#666666" points="1450.62,-24.88 1293.62,-24.88 1293.62,-5.63 1450.62,-5.63 1450.62,-24.88"/>
<text text-anchor="middle" x="1372.12" y="-11.38" font-family="Helvetica,sans-Serif" font-size="10.00">libs/Z2AudioLib/Z2AudioMgr.cpp</text>
</a>
</g>
</g>
<!-- Node2&#45;&gt;Node16 -->
<g id="edge20_Node000002_Node000016" class="edge">
<title>Node2&#45;&gt;Node16</title>
<g id="a_edge20_Node000002_Node000016"><a xlink:title=" ">
<path fill="none" stroke="#63b8ff" d="M1982.14,-229.4C1800.31,-226.21 1432.77,-214.81 1391.12,-174.75 1348.78,-134.02 1363.54,-52.05 1369.86,-25.08"/>
<polygon fill="#63b8ff" stroke="#63b8ff" points="1982.01,-232.9 1992.07,-229.57 1982.13,-225.9 1982.01,-232.9"/>
</a>
</g>
</g>
<!-- Node2&#45;&gt;Node19 -->
<g id="edge19_Node000002_Node000019" class="edge">
<title>Node2&#45;&gt;Node19</title>
<g id="a_edge19_Node000002_Node000019"><a xlink:title=" ">
<path fill="none" stroke="#63b8ff" d="M1982.12,-228.77C1613.35,-221.85 351.82,-196.81 172.12,-174.75 168.91,-174.36 165.65,-173.9 162.36,-173.4"/>
<polygon fill="#63b8ff" stroke="#63b8ff" points="1981.97,-232.27 1992.04,-228.96 1982.1,-225.27 1981.97,-232.27"/>
</a>
</g>
</g>
<!-- Node20 -->
<g id="Node000020" class="node">
<title>Node20</title>
<g id="a_Node000020"><a xlink:href="DynamicLink_8cpp.html" target="_top" xlink:title=" ">
<polygon fill="white" stroke="#666666" points="1506.5,-163.5 1399.75,-163.5 1399.75,-144.25 1506.5,-144.25 1506.5,-163.5"/>
<text text-anchor="middle" x="1453.12" y="-150" font-family="Helvetica,sans-Serif" font-size="10.00">src/DynamicLink.cpp</text>
</a>
</g>
</g>
<!-- Node2&#45;&gt;Node20 -->
<g id="edge21_Node000002_Node000020" class="edge">
<title>Node2&#45;&gt;Node20</title>
<g id="a_edge21_Node000002_Node000020"><a xlink:title=" ">
<path fill="none" stroke="#63b8ff" d="M1982.54,-227.17C1868.26,-221.76 1676.64,-208.19 1515.12,-174.75 1502.4,-172.11 1488.59,-167.84 1477.25,-163.92"/>
<polygon fill="#63b8ff" stroke="#63b8ff" points="1982.04,-230.65 1992.19,-227.62 1982.36,-223.66 1982.04,-230.65"/>
</a>
</g>
</g>
<!-- Node21 -->
<g id="Node000021" class="node">
<title>Node21</title>
<g id="a_Node000021"><a xlink:href="d__com__inf__game_8cpp.html" target="_top" xlink:title=" ">
<polygon fill="white" stroke="#666666" points="1631.88,-169.12 1524.38,-169.12 1524.38,-138.62 1631.88,-138.62 1631.88,-169.12"/>
<text text-anchor="start" x="1532.38" y="-155.62" font-family="Helvetica,sans-Serif" font-size="10.00">src/d/com/d_com_inf</text>
<text text-anchor="middle" x="1578.12" y="-144.38" font-family="Helvetica,sans-Serif" font-size="10.00">_game.cpp</text>
</a>
</g>
</g>
<!-- Node2&#45;&gt;Node21 -->
<g id="edge22_Node000002_Node000021" class="edge">
<title>Node2&#45;&gt;Node21</title>
<g id="a_edge22_Node000002_Node000021"><a xlink:title=" ">
<path fill="none" stroke="#63b8ff" d="M1982.11,-223.06C1891.95,-215.08 1756.69,-200.07 1641.12,-174.75 1634.63,-173.33 1627.84,-171.53 1621.23,-169.6"/>
<polygon fill="#63b8ff" stroke="#63b8ff" points="1981.66,-226.53 1991.92,-223.92 1982.26,-219.56 1981.66,-226.53"/>
</a>
</g>
</g>
<!-- Node22 -->
<g id="Node000022" class="node">
<title>Node22</title>
<g id="a_Node000022"><a xlink:href="d__com__static_8cpp.html" target="_top" xlink:title=" ">
<polygon fill="white" stroke="#666666" points="1788.62,-163.5 1649.62,-163.5 1649.62,-144.25 1788.62,-144.25 1788.62,-163.5"/>
<text text-anchor="middle" x="1719.12" y="-150" font-family="Helvetica,sans-Serif" font-size="10.00">src/d/com/d_com_static.cpp</text>
</a>
</g>
</g>
<!-- Node2&#45;&gt;Node22 -->
<g id="edge23_Node000002_Node000022" class="edge">
<title>Node2&#45;&gt;Node22</title>
<g id="a_edge23_Node000002_Node000022"><a xlink:title=" ">
<path fill="none" stroke="#63b8ff" d="M1982.19,-212.35C1927.3,-202.05 1858.31,-188.51 1797.12,-174.75 1782.54,-171.47 1766.52,-167.46 1752.81,-163.9"/>
<polygon fill="#63b8ff" stroke="#63b8ff" points="1981.36,-215.75 1991.84,-214.15 1982.65,-208.87 1981.36,-215.75"/>
</a>
</g>
</g>
<!-- Node23 -->
<g id="Node000023" class="node">
<title>Node23</title>
<g id="a_Node000023"><a xlink:href="d__name_8cpp.html" target="_top" xlink:title=" ">
<polygon fill="white" stroke="#666666" points="1899.75,-163.5 1806.5,-163.5 1806.5,-144.25 1899.75,-144.25 1899.75,-163.5"/>
<text text-anchor="middle" x="1853.12" y="-150" font-family="Helvetica,sans-Serif" font-size="10.00">src/d/d_name.cpp</text>
</a>
</g>
</g>
<!-- Node2&#45;&gt;Node23 -->
<g id="edge24_Node000002_Node000023" class="edge">
<title>Node2&#45;&gt;Node23</title>
<g id="a_edge24_Node000002_Node000023"><a xlink:title=" ">
<path fill="none" stroke="#63b8ff" d="M2007.03,-207.02C1976.24,-197.28 1940.4,-185.73 1908.12,-174.75 1898.13,-171.35 1887.18,-167.43 1877.7,-163.98"/>
<polygon fill="#63b8ff" stroke="#63b8ff" points="2005.66,-210.25 2016.25,-209.92 2007.77,-203.58 2005.66,-210.25"/>
</a>
</g>
</g>
<!-- Node24 -->
<g id="Node000024" class="node">
<title>Node24</title>
<g id="a_Node000024"><a xlink:href="d__resorce_8cpp.html" target="_top" xlink:title=" ">
<polygon fill="white" stroke="#666666" points="2018.88,-163.5 1917.38,-163.5 1917.38,-144.25 2018.88,-144.25 2018.88,-163.5"/>
<text text-anchor="middle" x="1968.12" y="-150" font-family="Helvetica,sans-Serif" font-size="10.00">src/d/d_resorce.cpp</text>
</a>
</g>
</g>
<!-- Node2&#45;&gt;Node24 -->
<g id="edge25_Node000002_Node000024" class="edge">
<title>Node2&#45;&gt;Node24</title>
<g id="a_edge25_Node000002_Node000024"><a xlink:title=" ">
<path fill="none" stroke="#63b8ff" d="M2042.85,-204.1C2021.64,-190.13 1996.99,-173.89 1981.98,-164"/>
<polygon fill="#63b8ff" stroke="#63b8ff" points="2040.77,-206.91 2051.04,-209.49 2044.62,-201.07 2040.77,-206.91"/>
</a>
</g>
</g>
<!-- Node25 -->
<g id="Node000025" class="node">
<title>Node25</title>
<g id="a_Node000025"><a xlink:href="d__stage_8cpp.html" target="_top" xlink:title=" ">
<polygon fill="white" stroke="#666666" points="2129.75,-163.5 2036.5,-163.5 2036.5,-144.25 2129.75,-144.25 2129.75,-163.5"/>
<text text-anchor="middle" x="2083.12" y="-150" font-family="Helvetica,sans-Serif" font-size="10.00">src/d/d_stage.cpp</text>
</a>
</g>
</g>
<!-- Node2&#45;&gt;Node25 -->
<g id="edge26_Node000002_Node000025" class="edge">
<title>Node2&#45;&gt;Node25</title>
<g id="a_edge26_Node000002_Node000025"><a xlink:title=" ">
<path fill="none" stroke="#63b8ff" d="M2083.12,-199.11C2083.12,-186.41 2083.12,-172.73 2083.12,-164"/>
<polygon fill="#63b8ff" stroke="#63b8ff" points="2079.63,-198.81 2083.13,-208.81 2086.63,-198.81 2079.63,-198.81"/>
</a>
</g>
</g>
<!-- Node26 -->
<g id="Node000026" class="node">
<title>Node26</title>
<g id="a_Node000026"><a xlink:href="d__event__manager_8cpp.html" target="_top" xlink:title=" ">
<polygon fill="white" stroke="#666666" points="2250.25,-169.12 2148,-169.12 2148,-138.62 2250.25,-138.62 2250.25,-169.12"/>
<text text-anchor="start" x="2156" y="-155.62" font-family="Helvetica,sans-Serif" font-size="10.00">src/d/event/d_event</text>
<text text-anchor="middle" x="2199.12" y="-144.38" font-family="Helvetica,sans-Serif" font-size="10.00">_manager.cpp</text>
</a>
</g>
</g>
<!-- Node2&#45;&gt;Node26 -->
<g id="edge27_Node000002_Node000026" class="edge">
<title>Node2&#45;&gt;Node26</title>
<g id="a_edge27_Node000002_Node000026"><a xlink:title=" ">
<path fill="none" stroke="#63b8ff" d="M2123.8,-204.06C2141.6,-192.44 2161.79,-179.26 2176.78,-169.46"/>
<polygon fill="#63b8ff" stroke="#63b8ff" points="2121.94,-201.1 2115.48,-209.5 2125.76,-206.96 2121.94,-201.1"/>
</a>
</g>
</g>
<!-- Node27 -->
<g id="Node000027" class="node">
<title>Node27</title>
<g id="a_Node000027"><a xlink:href="d__file__sel__info_8cpp.html" target="_top" xlink:title=" ">
<polygon fill="white" stroke="#666666" points="2364.25,-169.12 2268,-169.12 2268,-138.62 2364.25,-138.62 2364.25,-169.12"/>
<text text-anchor="start" x="2276" y="-155.62" font-family="Helvetica,sans-Serif" font-size="10.00">src/d/file/d_file_sel</text>
<text text-anchor="middle" x="2316.12" y="-144.38" font-family="Helvetica,sans-Serif" font-size="10.00">_info.cpp</text>
</a>
</g>
</g>
<!-- Node2&#45;&gt;Node27 -->
<g id="edge28_Node000002_Node000027" class="edge">
<title>Node2&#45;&gt;Node27</title>
<g id="a_edge28_Node000002_Node000027"><a xlink:title=" ">
<path fill="none" stroke="#63b8ff" d="M2159.21,-206.98C2190.26,-197.2 2226.48,-185.62 2259.12,-174.75 2264.1,-173.09 2269.3,-171.33 2274.46,-169.56"/>
<polygon fill="#63b8ff" stroke="#63b8ff" points="2158.39,-203.57 2149.9,-209.91 2160.49,-210.25 2158.39,-203.57"/>
</a>
</g>
</g>
<!-- Node28 -->
<g id="Node000028" class="node">
<title>Node28</title>
<g id="a_Node000028"><a xlink:href="d__menu__fmap_8cpp.html" target="_top" xlink:title=" ">
<polygon fill="white" stroke="#666666" points="2529.75,-163.5 2382.5,-163.5 2382.5,-144.25 2529.75,-144.25 2529.75,-163.5"/>
<text text-anchor="middle" x="2456.12" y="-150" font-family="Helvetica,sans-Serif" font-size="10.00">src/d/menu/d_menu_fmap.cpp</text>
</a>
</g>
</g>
<!-- Node2&#45;&gt;Node28 -->
<g id="edge29_Node000002_Node000028" class="edge">
<title>Node2&#45;&gt;Node28</title>
<g id="a_edge29_Node000002_Node000028"><a xlink:title=" ">
<path fill="none" stroke="#63b8ff" d="M2183.99,-210.21C2268.24,-193.99 2291.7,-192.12 2373.12,-174.75 2388.49,-171.47 2405.36,-167.5 2419.85,-163.97"/>
<polygon fill="#63b8ff" stroke="#63b8ff" points="2183.47,-206.75 2174.32,-212.09 2184.81,-213.62 2183.47,-206.75"/>
</a>
</g>
</g>
<!-- Node29 -->
<g id="Node000029" class="node">
<title>Node29</title>
<g id="a_Node000029"><a xlink:href="d__menu__insect_8cpp.html" target="_top" xlink:title=" ">
<polygon fill="white" stroke="#666666" points="2700,-163.5 2548.25,-163.5 2548.25,-144.25 2700,-144.25 2700,-163.5"/>
<text text-anchor="middle" x="2624.12" y="-150" font-family="Helvetica,sans-Serif" font-size="10.00">src/d/menu/d_menu_insect.cpp</text>
</a>
</g>
</g>
<!-- Node2&#45;&gt;Node29 -->
<g id="edge30_Node000002_Node000029" class="edge">
<title>Node2&#45;&gt;Node29</title>
<g id="a_edge30_Node000002_Node000029"><a xlink:title=" ">
<path fill="none" stroke="#63b8ff" d="M2183.81,-210.43C2341.19,-187.44 2384.93,-200.42 2539.12,-174.75 2556.02,-171.94 2574.56,-167.74 2590,-163.92"/>
<polygon fill="#63b8ff" stroke="#63b8ff" points="2183.66,-206.91 2174.28,-211.85 2184.69,-213.84 2183.66,-206.91"/>
</a>
</g>
</g>
<!-- Node30 -->
<g id="Node000030" class="node">
<title>Node30</title>
<g id="a_Node000030"><a xlink:href="d__menu__item__explain_8cpp.html" target="_top" xlink:title=" ">
<polygon fill="white" stroke="#666666" points="2844.25,-169.12 2718,-169.12 2718,-138.62 2844.25,-138.62 2844.25,-169.12"/>
<text text-anchor="start" x="2726" y="-155.62" font-family="Helvetica,sans-Serif" font-size="10.00">src/d/menu/d_menu_item</text>
<text text-anchor="middle" x="2781.12" y="-144.38" font-family="Helvetica,sans-Serif" font-size="10.00">_explain.cpp</text>
</a>
</g>
</g>
<!-- Node2&#45;&gt;Node30 -->
<g id="edge31_Node000002_Node000030" class="edge">
<title>Node2&#45;&gt;Node30</title>
<g id="a_edge31_Node000002_Node000030"><a xlink:title=" ">
<path fill="none" stroke="#63b8ff" d="M2183.96,-210.47C2416.24,-180.38 2480.88,-213.63 2709.12,-174.75 2716.92,-173.42 2725.09,-171.6 2733.01,-169.59"/>
<polygon fill="#63b8ff" stroke="#63b8ff" points="2183.72,-206.97 2174.27,-211.75 2184.64,-213.91 2183.72,-206.97"/>
</a>
</g>
</g>
<!-- Node31 -->
<g id="Node000031" class="node">
<title>Node31</title>
<g id="a_Node000031"><a xlink:href="d__menu__letter_8cpp.html" target="_top" xlink:title=" ">
<polygon fill="white" stroke="#666666" points="3009.75,-163.5 2862.5,-163.5 2862.5,-144.25 3009.75,-144.25 3009.75,-163.5"/>
<text text-anchor="middle" x="2936.12" y="-150" font-family="Helvetica,sans-Serif" font-size="10.00">src/d/menu/d_menu_letter.cpp</text>
</a>
</g>
</g>
<!-- Node2&#45;&gt;Node31 -->
<g id="edge32_Node000002_Node000031" class="edge">
<title>Node2&#45;&gt;Node31</title>
<g id="a_edge32_Node000002_Node000031"><a xlink:title=" ">
<path fill="none" stroke="#63b8ff" d="M2183.83,-210.51C2479.79,-174.01 2560.75,-217.23 2853.12,-174.75 2870.13,-172.28 2888.77,-167.97 2904.07,-163.99"/>
<polygon fill="#63b8ff" stroke="#63b8ff" points="2183.75,-206.99 2174.26,-211.71 2184.62,-213.94 2183.75,-206.99"/>
</a>
</g>
</g>
<!-- Node32 -->
<g id="Node000032" class="node">
<title>Node32</title>
<g id="a_Node000032"><a xlink:href="d__menu__save_8cpp.html" target="_top" xlink:title=" ">
<polygon fill="white" stroke="#666666" points="3174.38,-163.5 3027.88,-163.5 3027.88,-144.25 3174.38,-144.25 3174.38,-163.5"/>
<text text-anchor="middle" x="3101.12" y="-150" font-family="Helvetica,sans-Serif" font-size="10.00">src/d/menu/d_menu_save.cpp</text>
</a>
</g>
</g>
<!-- Node2&#45;&gt;Node32 -->
<g id="edge33_Node000002_Node000032" class="edge">
<title>Node2&#45;&gt;Node32</title>
<g id="a_edge33_Node000002_Node000032"><a xlink:title=" ">
<path fill="none" stroke="#63b8ff" d="M2184.03,-210.5C2553.17,-166.78 2653.7,-226.38 3019.12,-174.75 3036.09,-172.35 3054.68,-167.99 3069.86,-163.97"/>
<polygon fill="#63b8ff" stroke="#63b8ff" points="2183.77,-207.01 2174.26,-211.68 2184.6,-213.96 2183.77,-207.01"/>
</a>
</g>
</g>
<!-- Node33 -->
<g id="Node000033" class="node">
<title>Node33</title>
<g id="a_Node000033"><a xlink:href="d__msg__class_8cpp.html" target="_top" xlink:title=" ">
<polygon fill="white" stroke="#666666" points="3330.25,-163.5 3192,-163.5 3192,-144.25 3330.25,-144.25 3330.25,-163.5"/>
<text text-anchor="middle" x="3261.12" y="-150" font-family="Helvetica,sans-Serif" font-size="10.00">src/d/msg/d_msg_class.cpp</text>
</a>
</g>
</g>
<!-- Node2&#45;&gt;Node33 -->
<g id="edge34_Node000002_Node000033" class="edge">
<title>Node2&#45;&gt;Node33</title>
<g id="a_edge34_Node000002_Node000033"><a xlink:title=" ">
<path fill="none" stroke="#63b8ff" d="M2183.91,-210.53C2625.63,-159.6 2745.7,-237.6 3183.12,-174.75 3199.45,-172.4 3217.29,-168 3231.79,-163.93"/>
<polygon fill="#63b8ff" stroke="#63b8ff" points="2183.78,-207.02 2174.25,-211.66 2184.59,-213.97 2183.78,-207.02"/>
</a>
</g>
</g>
<!-- Node34 -->
<g id="Node000034" class="node">
<title>Node34</title>
<g id="a_Node000034"><a xlink:href="d__msg__object_8cpp.html" target="_top" xlink:title=" ">
<polygon fill="white" stroke="#666666" points="3489.75,-163.5 3348.5,-163.5 3348.5,-144.25 3489.75,-144.25 3489.75,-163.5"/>
<text text-anchor="middle" x="3419.12" y="-150" font-family="Helvetica,sans-Serif" font-size="10.00">src/d/msg/d_msg_object.cpp</text>
</a>
</g>
</g>
<!-- Node2&#45;&gt;Node34 -->
<g id="edge35_Node000002_Node000034" class="edge">
<title>Node2&#45;&gt;Node34</title>
<g id="a_edge35_Node000002_Node000034"><a xlink:title=" ">
<path fill="none" stroke="#63b8ff" d="M2184.11,-210.51C2694.62,-152.73 2832.79,-244.71 3339.12,-174.75 3355.85,-172.44 3374.16,-168.04 3389.03,-163.96"/>
<polygon fill="#63b8ff" stroke="#63b8ff" points="2183.79,-207.03 2174.25,-211.65 2184.59,-213.98 2183.79,-207.03"/>
</a>
</g>
</g>
<!-- Node35 -->
<g id="Node000035" class="node">
<title>Node35</title>
<g id="a_Node000035"><a xlink:href="d__msg__scrn__explain_8cpp.html" target="_top" xlink:title=" ">
<polygon fill="white" stroke="#666666" points="3624,-169.12 3508.25,-169.12 3508.25,-138.62 3624,-138.62 3624,-169.12"/>
<text text-anchor="start" x="3516.25" y="-155.62" font-family="Helvetica,sans-Serif" font-size="10.00">src/d/msg/d_msg_scrn</text>
<text text-anchor="middle" x="3566.12" y="-144.38" font-family="Helvetica,sans-Serif" font-size="10.00">_explain.cpp</text>
</a>
</g>
</g>
<!-- Node2&#45;&gt;Node35 -->
<g id="edge36_Node000002_Node000035" class="edge">
<title>Node2&#45;&gt;Node35</title>
<g id="a_edge36_Node000002_Node000035"><a xlink:title=" ">
<path fill="none" stroke="#63b8ff" d="M2183.94,-210.54C2765.35,-145.81 2924.09,-266.28 3499.12,-174.75 3506.79,-173.53 3514.82,-171.68 3522.53,-169.58"/>
<polygon fill="#63b8ff" stroke="#63b8ff" points="2183.8,-207.04 2174.25,-211.63 2184.58,-213.99 2183.8,-207.04"/>
</a>
</g>
</g>
<!-- Node36 -->
<g id="Node000036" class="node">
<title>Node36</title>
<g id="a_Node000036"><a xlink:href="d__msg__unit_8cpp.html" target="_top" xlink:title=" ">
<polygon fill="white" stroke="#666666" points="3772.5,-163.5 3641.75,-163.5 3641.75,-144.25 3772.5,-144.25 3772.5,-163.5"/>
<text text-anchor="middle" x="3707.12" y="-150" font-family="Helvetica,sans-Serif" font-size="10.00">src/d/msg/d_msg_unit.cpp</text>
</a>
</g>
</g>
<!-- Node2&#45;&gt;Node36 -->
<g id="edge37_Node000002_Node000036" class="edge">
<title>Node2&#45;&gt;Node36</title>
<g id="a_edge37_Node000002_Node000036"><a xlink:title=" ">
<path fill="none" stroke="#63b8ff" d="M2184.12,-210.52C2824.61,-139.82 2997.98,-266.58 3633.12,-174.75 3648.79,-172.48 3665.88,-168.03 3679.69,-163.91"/>
<polygon fill="#63b8ff" stroke="#63b8ff" points="2183.8,-207.04 2174.25,-211.63 2184.58,-213.99 2183.8,-207.04"/>
</a>
</g>
</g>
<!-- Node37 -->
<g id="Node000037" class="node">
<title>Node37</title>
<g id="a_Node000037"><a xlink:href="d__particle_8cpp.html" target="_top" xlink:title=" ">
<polygon fill="white" stroke="#666666" points="3925.75,-163.5 3790.5,-163.5 3790.5,-144.25 3925.75,-144.25 3925.75,-163.5"/>
<text text-anchor="middle" x="3858.12" y="-150" font-family="Helvetica,sans-Serif" font-size="10.00">src/d/particle/d_particle.cpp</text>
</a>
</g>
</g>
<!-- Node2&#45;&gt;Node37 -->
<g id="edge38_Node000002_Node000037" class="edge">
<title>Node2&#45;&gt;Node37</title>
<g id="a_edge38_Node000002_Node000037"><a xlink:title=" ">
<path fill="none" stroke="#63b8ff" d="M2183.97,-210.54C2890.01,-133.22 3080.25,-271.77 3781.12,-174.75 3797.4,-172.5 3815.18,-168.04 3829.55,-163.92"/>
<polygon fill="#63b8ff" stroke="#63b8ff" points="2183.8,-207.04 2174.25,-211.62 2184.57,-214 2183.8,-207.04"/>
</a>
</g>
</g>
<!-- Node38 -->
<g id="Node000038" class="node">
<title>Node38</title>
<g id="a_Node000038"><a xlink:href="d__s__room_8cpp.html" target="_top" xlink:title=" ">
<polygon fill="white" stroke="#666666" points="4054,-163.5 3944.25,-163.5 3944.25,-144.25 4054,-144.25 4054,-163.5"/>
<text text-anchor="middle" x="3999.12" y="-150" font-family="Helvetica,sans-Serif" font-size="10.00">src/d/s/d_s_room.cpp</text>
</a>
</g>
</g>
<!-- Node2&#45;&gt;Node38 -->
<g id="edge39_Node000002_Node000038" class="edge">
<title>Node2&#45;&gt;Node38</title>
<g id="a_edge39_Node000002_Node000038"><a xlink:title=" ">
<path fill="none" stroke="#63b8ff" d="M2183.91,-210.59C2586.78,-169.11 3553.87,-236.6 3935.12,-174.75 3948.79,-172.53 3963.58,-168.08 3975.5,-163.95"/>
<polygon fill="#63b8ff" stroke="#63b8ff" points="2183.82,-207.08 2174.25,-211.62 2184.57,-214.04 2183.82,-207.08"/>
</a>
</g>
</g>
<!-- Node39 -->
<g id="Node000039" class="node">
<title>Node39</title>
<g id="a_Node000039"><a xlink:href="d__save_8cpp.html" target="_top" xlink:title=" ">
<polygon fill="white" stroke="#666666" points="4186.25,-163.5 4072,-163.5 4072,-144.25 4186.25,-144.25 4186.25,-163.5"/>
<text text-anchor="middle" x="4129.12" y="-150" font-family="Helvetica,sans-Serif" font-size="10.00">src/d/save/d_save.cpp</text>
</a>
</g>
</g>
<!-- Node2&#45;&gt;Node39 -->
<g id="edge40_Node000002_Node000039" class="edge">
<title>Node2&#45;&gt;Node39</title>
<g id="a_edge40_Node000002_Node000039"><a xlink:title=" ">
<path fill="none" stroke="#63b8ff" d="M2184.07,-210.57C2615.37,-166.29 3653.53,-239.09 4063.12,-174.75 4077.19,-172.54 4092.44,-168.09 4104.74,-163.96"/>
<polygon fill="#63b8ff" stroke="#63b8ff" points="2183.82,-207.08 2174.25,-211.61 2184.56,-214.04 2183.82,-207.08"/>
</a>
</g>
</g>
<!-- Node40 -->
<g id="Node000040" class="node">
<title>Node40</title>
<g id="a_Node000040"><a xlink:href="m__Do__MemCardRWmng_8cpp.html" target="_top" xlink:title=" ">
<polygon fill="white" stroke="#666666" points="4390.25,-163.5 4204,-163.5 4204,-144.25 4390.25,-144.25 4390.25,-163.5"/>
<text text-anchor="middle" x="4297.12" y="-150" font-family="Helvetica,sans-Serif" font-size="10.00">src/m_Do/m_Do_MemCardRWmng.cpp</text>
</a>
</g>
</g>
<!-- Node2&#45;&gt;Node40 -->
<g id="edge41_Node000002_Node000040" class="edge">
<title>Node2&#45;&gt;Node40</title>
<g id="a_edge41_Node000002_Node000040"><a xlink:title=" ">
<path fill="none" stroke="#63b8ff" d="M2183.89,-210.56C3073.02,-114.66 3308.51,-268.33 4195.12,-174.75 4216.48,-172.5 4240.02,-168.04 4259.1,-163.92"/>
<polygon fill="#63b8ff" stroke="#63b8ff" points="2183.81,-207.05 2174.25,-211.61 2184.57,-214.01 2183.81,-207.05"/>
</a>
</g>
</g>
<!-- Node41 -->
<g id="Node000041" class="node">
<title>Node41</title>
<g id="a_Node000041"><a xlink:href="m__Do__ext_8cpp.html" target="_top" xlink:title=" ">
<polygon fill="white" stroke="#666666" points="4530.38,-163.5 4407.88,-163.5 4407.88,-144.25 4530.38,-144.25 4530.38,-163.5"/>
<text text-anchor="middle" x="4469.12" y="-150" font-family="Helvetica,sans-Serif" font-size="10.00">src/m_Do/m_Do_ext.cpp</text>
</a>
</g>
</g>
<!-- Node2&#45;&gt;Node41 -->
<g id="edge42_Node000002_Node000041" class="edge">
<title>Node2&#45;&gt;Node41</title>
<g id="a_edge42_Node000002_Node000041"><a xlink:title=" ">
<path fill="none" stroke="#63b8ff" d="M2184.19,-210.56C2689.93,-158.88 3915.14,-246.14 4399.12,-174.75 4414,-172.56 4430.17,-168.11 4443.22,-163.97"/>
<polygon fill="#63b8ff" stroke="#63b8ff" points="2183.83,-207.08 2174.25,-211.61 2184.56,-214.04 2183.83,-207.08"/>
</a>
</g>
</g>
<!-- Node42 -->
<g id="Node000042" class="node">
<title>Node42</title>
<g id="a_Node000042"><a xlink:href="m__Do__printf_8cpp.html" target="_top" xlink:title=" ">
<polygon fill="white" stroke="#666666" points="4679.88,-163.5 4548.38,-163.5 4548.38,-144.25 4679.88,-144.25 4679.88,-163.5"/>
<text text-anchor="middle" x="4614.12" y="-150" font-family="Helvetica,sans-Serif" font-size="10.00">src/m_Do/m_Do_printf.cpp</text>
</a>
</g>
</g>
<!-- Node2&#45;&gt;Node42 -->
<g id="edge43_Node000002_Node000042" class="edge">
<title>Node2&#45;&gt;Node42</title>
<g id="a_edge43_Node000002_Node000042"><a xlink:title=" ">
<path fill="none" stroke="#63b8ff" d="M2184.11,-210.56C2720.77,-155.72 4023.66,-245.9 4539.12,-174.75 4555,-172.56 4572.33,-168.11 4586.32,-163.98"/>
<polygon fill="#63b8ff" stroke="#63b8ff" points="2183.83,-207.07 2174.25,-211.6 2184.56,-214.04 2183.83,-207.07"/>
</a>
</g>
</g>
<!-- Node12 -->
<g id="Node000012" class="node">
<title>Node12</title>
<g id="a_Node000012"><a xlink:href="JAUSectionHeap_8h.html" target="_top" xlink:title=" ">
<polygon fill="white" stroke="#666666" points="1139.25,-97 1013,-97 1013,-66.5 1139.25,-66.5 1139.25,-97"/>
<text text-anchor="start" x="1021" y="-83.5" font-family="Helvetica,sans-Serif" font-size="10.00">include/JSystem/JAudio2</text>
<text text-anchor="middle" x="1076.12" y="-72.25" font-family="Helvetica,sans-Serif" font-size="10.00">/JAUSectionHeap.h</text>
</a>
</g>
</g>
<!-- Node11&#45;&gt;Node12 -->
<g id="edge11_Node000011_Node000012" class="edge">
<title>Node11&#45;&gt;Node12</title>
<g id="a_edge11_Node000011_Node000012"><a xlink:title=" ">
<path fill="none" stroke="#63b8ff" d="M1200.58,-128.68C1172.4,-118.28 1140.38,-106.46 1115.87,-97.42"/>
<polygon fill="#63b8ff" stroke="#63b8ff" points="1199.16,-131.89 1209.75,-132.07 1201.58,-125.32 1199.16,-131.89"/>
</a>
</g>
</g>
<!-- Node18 -->
<g id="Node000018" class="node">
<title>Node18</title>
<g id="a_Node000018"><a xlink:href="JAUStreamAramMgr_8h.html" target="_top" xlink:title=" ">
<polygon fill="white" stroke="#666666" points="1337.25,-97 1211,-97 1211,-66.5 1337.25,-66.5 1337.25,-97"/>
<text text-anchor="start" x="1219" y="-83.5" font-family="Helvetica,sans-Serif" font-size="10.00">include/JSystem/JAudio2</text>
<text text-anchor="middle" x="1274.12" y="-72.25" font-family="Helvetica,sans-Serif" font-size="10.00">/JAUStreamAramMgr.h</text>
</a>
</g>
</g>
<!-- Node11&#45;&gt;Node18 -->
<g id="edge17_Node000011_Node000018" class="edge">
<title>Node11&#45;&gt;Node18</title>
<g id="a_edge17_Node000011_Node000018"><a xlink:title=" ">
<path fill="none" stroke="#63b8ff" d="M1269.71,-121.42C1270.68,-112.97 1271.67,-104.23 1272.48,-97.2"/>
<polygon fill="#63b8ff" stroke="#63b8ff" points="1266.27,-120.76 1268.61,-131.09 1273.22,-121.55 1266.27,-120.76"/>
</a>
</g>
</g>
<!-- Node13 -->
<g id="Node000013" class="node">
<title>Node13</title>
<g id="a_Node000013"><a xlink:href="JAUAudioArcLoader_8cpp.html" target="_top" xlink:title=" ">
<polygon fill="white" stroke="#666666" points="810.25,-30.5 684,-30.5 684,0 810.25,0 810.25,-30.5"/>
<text text-anchor="start" x="692" y="-17" font-family="Helvetica,sans-Serif" font-size="10.00">libs/JSystem/JAudio2</text>
<text text-anchor="middle" x="747.12" y="-5.75" font-family="Helvetica,sans-Serif" font-size="10.00">/JAUAudioArcLoader.cpp</text>
</a>
</g>
</g>
<!-- Node12&#45;&gt;Node13 -->
<g id="edge12_Node000012_Node000013" class="edge">
<title>Node12&#45;&gt;Node13</title>
<g id="a_edge12_Node000012_Node000013"><a xlink:title=" ">
<path fill="none" stroke="#63b8ff" d="M1001.48,-66.12C943.92,-54.83 865.2,-39.4 810.64,-28.7"/>
<polygon fill="#63b8ff" stroke="#63b8ff" points="1000.72,-69.53 1011.21,-68.02 1002.07,-62.66 1000.72,-69.53"/>
</a>
</g>
</g>
<!-- Node14 -->
<g id="Node000014" class="node">
<title>Node14</title>
<g id="a_Node000014"><a xlink:href="JAUSectionHeap_8cpp.html" target="_top" xlink:title=" ">
<polygon fill="white" stroke="#666666" points="941.5,-30.5 828.75,-30.5 828.75,0 941.5,0 941.5,-30.5"/>
<text text-anchor="start" x="836.75" y="-17" font-family="Helvetica,sans-Serif" font-size="10.00">libs/JSystem/JAudio2</text>
<text text-anchor="middle" x="885.12" y="-5.75" font-family="Helvetica,sans-Serif" font-size="10.00">/JAUSectionHeap.cpp</text>
</a>
</g>
</g>
<!-- Node12&#45;&gt;Node14 -->
<g id="edge13_Node000012_Node000014" class="edge">
<title>Node12&#45;&gt;Node14</title>
<g id="a_edge13_Node000012_Node000014"><a xlink:title=" ">
<path fill="none" stroke="#63b8ff" d="M1022.21,-62.54C992.61,-52.55 956.4,-40.32 928.62,-30.94"/>
<polygon fill="#63b8ff" stroke="#63b8ff" points="1020.76,-65.75 1031.35,-65.63 1023,-59.11 1020.76,-65.75"/>
</a>
</g>
</g>
<!-- Node15 -->
<g id="Node000015" class="node">
<title>Node15</title>
<g id="a_Node000015"><a xlink:href="Z2AudioArcLoader_8cpp.html" target="_top" xlink:title=" ">
<polygon fill="white" stroke="#666666" points="1096.88,-30.5 959.38,-30.5 959.38,0 1096.88,0 1096.88,-30.5"/>
<text text-anchor="start" x="967.38" y="-17" font-family="Helvetica,sans-Serif" font-size="10.00">libs/Z2AudioLib/Z2AudioArc</text>
<text text-anchor="middle" x="1028.12" y="-5.75" font-family="Helvetica,sans-Serif" font-size="10.00">Loader.cpp</text>
</a>
</g>
</g>
<!-- Node12&#45;&gt;Node15 -->
<g id="edge14_Node000012_Node000015" class="edge">
<title>Node12&#45;&gt;Node15</title>
<g id="a_edge14_Node000012_Node000015"><a xlink:title=" ">
<path fill="none" stroke="#63b8ff" d="M1058.5,-57.07C1051.96,-48.28 1044.74,-38.57 1038.97,-30.83"/>
<polygon fill="#63b8ff" stroke="#63b8ff" points="1055.55,-58.97 1064.33,-64.9 1061.17,-54.79 1055.55,-58.97"/>
</a>
</g>
</g>
<!-- Node12&#45;&gt;Node16 -->
<g id="edge15_Node000012_Node000016" class="edge">
<title>Node12&#45;&gt;Node16</title>
<g id="a_edge15_Node000012_Node000016"><a xlink:title=" ">
<path fill="none" stroke="#63b8ff" d="M1150.74,-64.49C1207.7,-52.08 1284.06,-35.44 1330.59,-25.3"/>
<polygon fill="#63b8ff" stroke="#63b8ff" points="1150.13,-61.04 1141.1,-66.59 1151.62,-67.88 1150.13,-61.04"/>
</a>
</g>
</g>
<!-- Node17 -->
<g id="Node000017" class="node">
<title>Node17</title>
<g id="a_Node000017"><a xlink:href="Z2SoundMgr_8cpp.html" target="_top" xlink:title=" ">
<polygon fill="white" stroke="#666666" points="1275.12,-24.88 1115.12,-24.88 1115.12,-5.63 1275.12,-5.63 1275.12,-24.88"/>
<text text-anchor="middle" x="1195.12" y="-11.38" font-family="Helvetica,sans-Serif" font-size="10.00">libs/Z2AudioLib/Z2SoundMgr.cpp</text>
</a>
</g>
</g>
<!-- Node12&#45;&gt;Node17 -->
<g id="edge16_Node000012_Node000017" class="edge">
<title>Node12&#45;&gt;Node17</title>
<g id="a_edge16_Node000012_Node000017"><a xlink:title=" ">
<path fill="none" stroke="#63b8ff" d="M1113.11,-60.7C1134.99,-48.84 1161.64,-34.4 1178.5,-25.26"/>
<polygon fill="#63b8ff" stroke="#63b8ff" points="1111.58,-57.55 1104.46,-65.39 1114.92,-63.7 1111.58,-57.55"/>
</a>
</g>
</g>
<!-- Node18&#45;&gt;Node16 -->
<g id="edge18_Node000018_Node000016" class="edge">
<title>Node18&#45;&gt;Node16</title>
<g id="a_edge18_Node000018_Node000016"><a xlink:title=" ">
<path fill="none" stroke="#63b8ff" d="M1305.81,-59.9C1323.59,-48.19 1344.87,-34.19 1358.44,-25.26"/>
<polygon fill="#63b8ff" stroke="#63b8ff" points="1304.06,-56.86 1297.63,-65.28 1307.9,-62.71 1304.06,-56.86"/>
</a>
</g>
</g>
</g>
</svg>

<g id="navigator" transform="translate(0 0)" fill="#404254">
  <rect fill="#f2f5e9" fill-opacity="0.5" stroke="#606060" stroke-width=".5" x="0" y="0" width="60" height="60"/>
  <use id="zoomplus" xlink:href="#zoomPlus" x="17" y="9" onmousedown="handleZoom(evt,'in')"/>
  <use id="zoomminus" xlink:href="#zoomMin" x="42" y="9" onmousedown="handleZoom(evt,'out')"/>
  <use id="reset" xlink:href="#resetDef" x="30" y="36" onmousedown="handleReset()"/>
   <use id="arrowup" xlink:href="#arrowUp" x="0" y="0" onmousedown="handlePan(0,-1)"/>
  <use id="arrowright" xlink:href="#arrowRight" x="0" y="0" onmousedown="handlePan(1,0)"/>
  <use id="arrowdown" xlink:href="#arrowDown" x="0" y="0" onmousedown="handlePan(0,1)"/>
  <use id="arrowleft" xlink:href="#arrowLeft" x="0" y="0" onmousedown="handlePan(-1,0)"/>
</g>
<svg viewBox="0 0 15 15" width="100%" height="30px" preserveAspectRatio="xMaxYMin meet">
 <g id="arrow_out" transform="scale(0.3 0.3)">
  <a xlink:href="printf_8h__dep__incl_org.svg" target="_base">
   <rect id="button" ry="5" rx="5" y="6" x="6" height="38" width="38"
        fill="#f2f5e9" fill-opacity="0.5" stroke="#606060" stroke-width="1.0"/>
   <path id="arrow"
     d="M 11.500037,31.436501 C 11.940474,20.09759 22.043105,11.32322 32.158766,21.979434 L 37.068811,17.246167 C 37.068811,17.246167 37.088388,32 37.088388,32 L 22.160133,31.978069 C 22.160133,31.978069 26.997745,27.140456 26.997745,27.140456 C 18.528582,18.264221 13.291696,25.230495 11.500037,31.436501 z"
     style="fill:#404040;"/>
  </a>
 </g>
</svg>

<style type='text/css'>
<![CDATA[
[data-mouse-over-selected='false'] { opacity: 0.7; }
[data-mouse-over-selected='true']  { opacity: 1.0; }
]]>
</style>
<script type="application/ecmascript"><![CDATA[
document.addEventListener('DOMContentLoaded', (event) => {
  highlightEdges();
  highlightAdjacentNodes();
});
]]></script>
</svg>
