<?xml version="1.0" encoding="UTF-8" standalone="no"?>
<!DOCTYPE svg PUBLIC "-//W3C//DTD SVG 1.1//EN"
 "http://www.w3.org/Graphics/SVG/1.1/DTD/svg11.dtd">
<!-- Generated by graphviz version 7.0.4 (20221203.1631)
 -->
<!-- Title: include/JSystem/JMessage/resource.h Pages: 1 -->
<svg width="549pt" height="335pt"
 viewBox="0.00 0.00 548.55 335.00" xmlns="http://www.w3.org/2000/svg" xmlns:xlink="http://www.w3.org/1999/xlink">
<g id="graph0" class="graph" transform="scale(1 1) rotate(0) translate(4 331)">
<title>include/JSystem/JMessage/resource.h</title>
<!-- Node1 -->
<g id="node1" class="node">
<title>Node1</title>
<g id="a_node1"><a xlink:title=" ">
<polygon fill="#999999" stroke="#666666" points="157.05,-327 20.05,-327 20.05,-297 157.05,-297 157.05,-327"/>
<text text-anchor="start" x="28.05" y="-315" font-family="Helvetica,sans-Serif" font-size="10.00">include/JSystem/JMessage</text>
<text text-anchor="middle" x="88.55" y="-304" font-family="Helvetica,sans-Serif" font-size="10.00">/resource.h</text>
</a>
</g>
</g>
<!-- Node2 -->
<g id="node2" class="node">
<title>Node2</title>
<g id="a_node2"><a xlink:href="types_8h.html" target="_top" xlink:title=" ">
<polygon fill="white" stroke="#666666" points="231.05,-19 150.05,-19 150.05,0 231.05,0 231.05,-19"/>
<text text-anchor="middle" x="190.55" y="-7" font-family="Helvetica,sans-Serif" font-size="10.00">dolphin/types.h</text>
</a>
</g>
</g>
<!-- Node1&#45;&gt;Node2 -->
<g id="edge1" class="edge">
<title>Node1&#45;&gt;Node2</title>
<path fill="none" stroke="#63b8ff" d="M70.32,-296.77C44.54,-274.89 0.55,-230.33 0.55,-181 0.55,-181 0.55,-181 0.55,-118.5 0.55,-89.04 -1.65,-75.45 19.55,-55 51.17,-24.51 100.91,-14.2 138.62,-11.04"/>
<polygon fill="#63b8ff" stroke="#63b8ff" points="138.65,-14.55 148.39,-10.38 138.17,-7.57 138.65,-14.55"/>
</g>
<!-- Node3 -->
<g id="node3" class="node">
<title>Node3</title>
<g id="a_node3"><a xlink:href="linklist_8h.html" target="_top" xlink:title=" ">
<polygon fill="white" stroke="#666666" points="162.05,-74 29.05,-74 29.05,-55 162.05,-55 162.05,-74"/>
<text text-anchor="middle" x="95.55" y="-62" font-family="Helvetica,sans-Serif" font-size="10.00">JSystem/JGadget/linklist.h</text>
</a>
</g>
</g>
<!-- Node1&#45;&gt;Node3 -->
<g id="edge2" class="edge">
<title>Node1&#45;&gt;Node3</title>
<path fill="none" stroke="#63b8ff" d="M88.96,-296.74C90.14,-255.12 93.61,-133.71 94.98,-85.53"/>
<polygon fill="#63b8ff" stroke="#63b8ff" points="98.47,-85.86 95.26,-75.76 91.47,-85.66 98.47,-85.86"/>
</g>
<!-- Node4 -->
<g id="node4" class="node">
<title>Node4</title>
<g id="a_node4"><a xlink:href="fvb-data_8h.html" target="_top" xlink:title=" ">
<polygon fill="white" stroke="#666666" points="246.05,-261 119.05,-261 119.05,-231 246.05,-231 246.05,-261"/>
<text text-anchor="start" x="127.05" y="-249" font-family="Helvetica,sans-Serif" font-size="10.00">JSystem/JStudio/JStudio</text>
<text text-anchor="middle" x="182.55" y="-238" font-family="Helvetica,sans-Serif" font-size="10.00">/fvb&#45;data.h</text>
</a>
</g>
</g>
<!-- Node1&#45;&gt;Node4 -->
<g id="edge4" class="edge">
<title>Node1&#45;&gt;Node4</title>
<path fill="none" stroke="#63b8ff" d="M109.41,-296.8C121.98,-288.24 138.21,-277.19 152.18,-267.68"/>
<polygon fill="#63b8ff" stroke="#63b8ff" points="153.88,-270.76 160.17,-262.24 149.94,-264.97 153.88,-270.76"/>
</g>
<!-- Node3&#45;&gt;Node2 -->
<g id="edge3" class="edge">
<title>Node3&#45;&gt;Node2</title>
<path fill="none" stroke="#63b8ff" d="M111.67,-54.51C126.22,-46.39 147.89,-34.3 164.84,-24.85"/>
<polygon fill="#63b8ff" stroke="#63b8ff" points="166.32,-28.02 173.35,-20.1 162.91,-21.91 166.32,-28.02"/>
</g>
<!-- Node5 -->
<g id="node5" class="node">
<title>Node5</title>
<g id="a_node5"><a xlink:href="binary_8h.html" target="_top" xlink:title=" ">
<polygon fill="white" stroke="#666666" points="248.05,-189.5 117.05,-189.5 117.05,-170.5 248.05,-170.5 248.05,-189.5"/>
<text text-anchor="middle" x="182.55" y="-177.5" font-family="Helvetica,sans-Serif" font-size="10.00">JSystem/JGadget/binary.h</text>
</a>
</g>
</g>
<!-- Node4&#45;&gt;Node5 -->
<g id="edge5" class="edge">
<title>Node4&#45;&gt;Node5</title>
<path fill="none" stroke="#63b8ff" d="M182.55,-230.8C182.55,-222.09 182.55,-210.81 182.55,-201.18"/>
<polygon fill="#63b8ff" stroke="#63b8ff" points="186.05,-201.36 182.55,-191.36 179.05,-201.36 186.05,-201.36"/>
</g>
<!-- Node6 -->
<g id="node6" class="node">
<title>Node6</title>
<g id="a_node6"><a xlink:href="functionvalue_8h.html" target="_top" xlink:title=" ">
<polygon fill="white" stroke="#666666" points="393.05,-195 266.05,-195 266.05,-165 393.05,-165 393.05,-195"/>
<text text-anchor="start" x="274.05" y="-183" font-family="Helvetica,sans-Serif" font-size="10.00">JSystem/JStudio/JStudio</text>
<text text-anchor="middle" x="329.55" y="-172" font-family="Helvetica,sans-Serif" font-size="10.00">/functionvalue.h</text>
</a>
</g>
</g>
<!-- Node4&#45;&gt;Node6 -->
<g id="edge7" class="edge">
<title>Node4&#45;&gt;Node6</title>
<path fill="none" stroke="#63b8ff" d="M215.54,-230.64C236.37,-221.57 263.5,-209.75 286.08,-199.93"/>
<polygon fill="#63b8ff" stroke="#63b8ff" points="287.26,-203.23 295.03,-196.03 284.46,-196.81 287.26,-203.23"/>
</g>
<!-- Node5&#45;&gt;Node2 -->
<g id="edge6" class="edge">
<title>Node5&#45;&gt;Node2</title>
<path fill="none" stroke="#63b8ff" d="M182.96,-170.41C184.18,-144.62 187.85,-67.32 189.6,-30.47"/>
<polygon fill="#63b8ff" stroke="#63b8ff" points="193.08,-30.94 190.06,-20.78 186.09,-30.61 193.08,-30.94"/>
</g>
<!-- Node6&#45;&gt;Node2 -->
<g id="edge13" class="edge">
<title>Node6&#45;&gt;Node2</title>
<path fill="none" stroke="#63b8ff" d="M296.89,-164.64C280.47,-156.14 261.2,-144.08 247.55,-129 220.82,-99.48 204.05,-55.16 196.08,-29.92"/>
<polygon fill="#63b8ff" stroke="#63b8ff" points="199.53,-29.24 193.3,-20.67 192.82,-31.25 199.53,-29.24"/>
</g>
<!-- Node7 -->
<g id="node7" class="node">
<title>Node7</title>
<g id="a_node7"><a xlink:href="search_8h.html" target="_top" xlink:title=" ">
<polygon fill="white" stroke="#666666" points="390.55,-129 256.55,-129 256.55,-110 390.55,-110 390.55,-129"/>
<text text-anchor="middle" x="323.55" y="-117" font-family="Helvetica,sans-Serif" font-size="10.00">JSystem/JGadget/search.h</text>
</a>
</g>
</g>
<!-- Node6&#45;&gt;Node7 -->
<g id="edge8" class="edge">
<title>Node6&#45;&gt;Node7</title>
<path fill="none" stroke="#63b8ff" d="M328.07,-164.54C327.32,-157.26 326.4,-148.31 325.59,-140.39"/>
<polygon fill="#63b8ff" stroke="#63b8ff" points="329.1,-140.27 324.6,-130.68 322.13,-140.99 329.1,-140.27"/>
</g>
<!-- Node9 -->
<g id="node9" class="node">
<title>Node9</title>
<g id="a_node9"><a xlink:href="vector_8h.html" target="_top" xlink:title=" ">
<polygon fill="white" stroke="#666666" points="540.55,-129 408.55,-129 408.55,-110 540.55,-110 540.55,-129"/>
<text text-anchor="middle" x="474.55" y="-117" font-family="Helvetica,sans-Serif" font-size="10.00">JSystem/JGadget/vector.h</text>
</a>
</g>
</g>
<!-- Node6&#45;&gt;Node9 -->
<g id="edge11" class="edge">
<title>Node6&#45;&gt;Node9</title>
<path fill="none" stroke="#63b8ff" d="M365.39,-164.54C388.89,-155.06 419.35,-142.77 442.13,-133.58"/>
<polygon fill="#63b8ff" stroke="#63b8ff" points="443.26,-136.9 451.22,-129.91 440.64,-130.41 443.26,-136.9"/>
</g>
<!-- Node8 -->
<g id="node8" class="node">
<title>Node8</title>
<g id="a_node8"><a xlink:href="global_8h.html" target="_top" xlink:title=" ">
<polygon fill="white" stroke="#666666" points="348.55,-74 298.55,-74 298.55,-55 348.55,-55 348.55,-74"/>
<text text-anchor="middle" x="323.55" y="-62" font-family="Helvetica,sans-Serif" font-size="10.00">global.h</text>
</a>
</g>
</g>
<!-- Node7&#45;&gt;Node8 -->
<g id="edge9" class="edge">
<title>Node7&#45;&gt;Node8</title>
<path fill="none" stroke="#63b8ff" d="M323.55,-109.75C323.55,-103.27 323.55,-94.16 323.55,-85.9"/>
<polygon fill="#63b8ff" stroke="#63b8ff" points="327.05,-85.96 323.55,-75.96 320.05,-85.96 327.05,-85.96"/>
</g>
<!-- Node8&#45;&gt;Node2 -->
<g id="edge10" class="edge">
<title>Node8&#45;&gt;Node2</title>
<path fill="none" stroke="#63b8ff" d="M300.99,-54.51C279.65,-46.01 247.39,-33.15 223.24,-23.53"/>
<polygon fill="#63b8ff" stroke="#63b8ff" points="224.77,-20.37 214.19,-19.92 222.18,-26.87 224.77,-20.37"/>
</g>
<!-- Node9&#45;&gt;Node8 -->
<g id="edge12" class="edge">
<title>Node9&#45;&gt;Node8</title>
<path fill="none" stroke="#63b8ff" d="M448.94,-109.51C424.46,-100.92 387.32,-87.88 359.8,-78.22"/>
<polygon fill="#63b8ff" stroke="#63b8ff" points="361.06,-74.96 350.47,-74.95 358.74,-81.56 361.06,-74.96"/>
</g>
</g>
</svg>
