<?xml version="1.0" encoding="UTF-8" standalone="no"?>
<!DOCTYPE svg PUBLIC "-//W3C//DTD SVG 1.1//EN"
 "http://www.w3.org/Graphics/SVG/1.1/DTD/svg11.dtd">
<!-- Generated by graphviz version 9.0.0 (20230911.1827)
 -->
<!-- Title: libs/PowerPC_EABI_Support/MSL/MSL_C/MSL_Common/Src/string.c Pages: 1 -->
<svg width="170pt" height="160pt"
 viewBox="0.00 0.00 170.25 160.25" xmlns="http://www.w3.org/2000/svg" xmlns:xlink="http://www.w3.org/1999/xlink">
<g id="graph0" class="graph" transform="scale(1 1) rotate(0) translate(4 156.25)">
<title>libs/PowerPC_EABI_Support/MSL/MSL_C/MSL_Common/Src/string.c</title>
<!-- Node1 -->
<g id="Node000001" class="node">
<title>Node1</title>
<g id="a_Node000001"><a xlink:title=" ">
<polygon fill="#999999" stroke="#666666" points="162.25,-152.25 0,-152.25 0,-110.5 162.25,-110.5 162.25,-152.25"/>
<text text-anchor="start" x="8" y="-138.75" font-family="Helvetica,sans-Serif" font-size="10.00">libs/PowerPC_EABI_Support</text>
<text text-anchor="start" x="8" y="-127.5" font-family="Helvetica,sans-Serif" font-size="10.00">/MSL/MSL_C/MSL_Common/Src</text>
<text text-anchor="middle" x="81.12" y="-116.25" font-family="Helvetica,sans-Serif" font-size="10.00">/string.c</text>
</a>
</g>
</g>
<!-- Node2 -->
<g id="Node000002" class="node">
<title>Node2</title>
<g id="a_Node000002"><a xlink:href="string_8h.html" target="_top" xlink:title=" ">
<polygon fill="white" stroke="#666666" points="104.88,-74.5 57.38,-74.5 57.38,-55.25 104.88,-55.25 104.88,-74.5"/>
<text text-anchor="middle" x="81.12" y="-61" font-family="Helvetica,sans-Serif" font-size="10.00">string.h</text>
</a>
</g>
</g>
<!-- Node1&#45;&gt;Node2 -->
<g id="edge1_Node000001_Node000002" class="edge">
<title>Node1&#45;&gt;Node2</title>
<g id="a_edge1_Node000001_Node000002"><a xlink:title=" ">
<path fill="none" stroke="#63b8ff" d="M81.12,-110.32C81.12,-102.65 81.12,-93.89 81.12,-86.2"/>
<polygon fill="#63b8ff" stroke="#63b8ff" points="84.63,-86.46 81.13,-76.46 77.63,-86.46 84.63,-86.46"/>
</a>
</g>
</g>
<!-- Node3 -->
<g id="Node000003" class="node">
<title>Node3</title>
<g id="a_Node000003"><a xlink:href="stddef_8h.html" target="_top" xlink:title=" ">
<polygon fill="white" stroke="#666666" points="72.38,-19.25 21.88,-19.25 21.88,0 72.38,0 72.38,-19.25"/>
<text text-anchor="middle" x="47.12" y="-5.75" font-family="Helvetica,sans-Serif" font-size="10.00">stddef.h</text>
</a>
</g>
</g>
<!-- Node2&#45;&gt;Node3 -->
<g id="edge2_Node000002_Node000003" class="edge">
<title>Node2&#45;&gt;Node3</title>
<g id="a_edge2_Node000002_Node000003"><a xlink:title=" ">
<path fill="none" stroke="#63b8ff" d="M75.51,-55.08C71.01,-48.03 64.54,-37.9 58.91,-29.08"/>
<polygon fill="#63b8ff" stroke="#63b8ff" points="62.01,-27.43 53.68,-20.88 56.11,-31.2 62.01,-27.43"/>
</a>
</g>
</g>
<!-- Node4 -->
<g id="Node000004" class="node">
<title>Node4</title>
<g id="a_Node000004"><a xlink:href="extras_8h.html" target="_top" xlink:title=" ">
<polygon fill="white" stroke="#666666" points="140,-19.25 90.25,-19.25 90.25,0 140,0 140,-19.25"/>
<text text-anchor="middle" x="115.12" y="-5.75" font-family="Helvetica,sans-Serif" font-size="10.00">extras.h</text>
</a>
</g>
</g>
<!-- Node2&#45;&gt;Node4 -->
<g id="edge3_Node000002_Node000004" class="edge">
<title>Node2&#45;&gt;Node4</title>
<g id="a_edge3_Node000002_Node000004"><a xlink:title=" ">
<path fill="none" stroke="#63b8ff" d="M86.74,-55.08C91.24,-48.03 97.71,-37.9 103.34,-29.08"/>
<polygon fill="#63b8ff" stroke="#63b8ff" points="106.14,-31.2 108.57,-20.88 100.24,-27.43 106.14,-31.2"/>
</a>
</g>
</g>
</g>
</svg>
