<?xml version="1.0" encoding="UTF-8" standalone="no"?>
<!DOCTYPE svg PUBLIC "-//W3C//DTD SVG 1.1//EN"
 "http://www.w3.org/Graphics/SVG/1.1/DTD/svg11.dtd">
<!-- Generated by graphviz version 2.44.0 ()
 -->
<!-- Title: mDoDvdThd_toMainRam_c Pages: 1 -->
<!--zoomable 409 -->
<svg id="main" version="1.1" xmlns="http://www.w3.org/2000/svg" xmlns:xlink="http://www.w3.org/1999/xlink" xml:space="preserve" onload="init(evt)">
<style type="text/css"><![CDATA[
.edge:hover path { stroke: red; }
.edge:hover polygon { stroke: red; fill: red; }
]]></style>
<script type="text/javascript"><![CDATA[
var edges = document.getElementsByTagName('g');
if (edges && edges.length) {
  for (var i=0;i<edges.length;i++) {
    if (edges[i].id.substr(0,4)=='edge') {
      edges[i].setAttribute('class','edge');
    }
  }
}
]]></script>
        <defs>
                <circle id="rim" cx="0" cy="0" r="7"/>
                <circle id="rim2" cx="0" cy="0" r="3.5"/>
                <g id="zoomPlus">
                        <use xlink:href="#rim" fill="#404040">
                                <set attributeName="fill" to="#808080" begin="zoomplus.mouseover" end="zoomplus.mouseout"/>
                        </use>
                        <path d="M-4,0h8M0,-4v8" fill="none" stroke="white" stroke-width="1.5" pointer-events="none"/>
                </g>
                <g id="zoomMin">
                        <use xlink:href="#rim" fill="#404040">
                                <set attributeName="fill" to="#808080" begin="zoomminus.mouseover" end="zoomminus.mouseout"/>
                        </use>
                        <path d="M-4,0h8" fill="none" stroke="white" stroke-width="1.5" pointer-events="none"/>
                </g>
                <g id="dirArrow">
                        <path fill="none" stroke="white" stroke-width="1.5" d="M0,-3.0v7 M-2.5,-0.5L0,-3.0L2.5,-0.5"/>
                </g>
               <g id="resetDef">
                       <use xlink:href="#rim2" fill="#404040">
                               <set attributeName="fill" to="#808080" begin="reset.mouseover" end="reset.mouseout"/>
                       </use>
               </g>
        </defs>

<script type="text/javascript">
var viewWidth = 569;
var viewHeight = 409;
var sectionId = 'dynsection-1';
</script>
<script xlink:href="svgpan.js"/>
<svg id="graph" class="graph">
<g id="viewport">
<title>mDoDvdThd_toMainRam_c</title>
<polygon fill="white" stroke="transparent" points="-4,4 -4,-405 565,-405 565,4 -4,4"/>
<!-- Node1 -->
<g id="node1" class="node">
<title>Node1</title>
<g id="a_node1"><a xlink:title=" ">
<polygon fill="#bfbfbf" stroke="black" points="108,-0.5 108,-19.5 244,-19.5 244,-0.5 108,-0.5"/>
<text text-anchor="middle" x="176" y="-7.5" font-family="Helvetica,sans-Serif" font-size="10.00">mDoDvdThd_toMainRam_c</text>
</a>
</g>
</g>
<!-- Node2 -->
<g id="node2" class="node">
<title>Node2</title>
<g id="a_node2"><a xlink:href="classmDoDvdThd__command__c.html" target="_top" xlink:title=" ">
<polygon fill="white" stroke="black" points="73.5,-74 73.5,-93 202.5,-93 202.5,-74 73.5,-74"/>
<text text-anchor="middle" x="138" y="-81" font-family="Helvetica,sans-Serif" font-size="10.00">mDoDvdThd_command_c</text>
</a>
</g>
</g>
<!-- Node2&#45;&gt;Node1 -->
<g id="edge1" class="edge">
<title>Node2&#45;&gt;Node1</title>
<path fill="none" stroke="midnightblue" d="M147.38,-64.84C154.98,-50.55 165.36,-31.02 171.3,-19.84"/>
<polygon fill="midnightblue" stroke="midnightblue" points="144.26,-63.26 142.66,-73.73 150.44,-66.54 144.26,-63.26"/>
</g>
<!-- Node3 -->
<g id="node3" class="node">
<title>Node3</title>
<g id="a_node3"><a xlink:href="structnode__class.html" target="_top" xlink:title=" ">
<polygon fill="white" stroke="black" points="0,-148.5 0,-167.5 66,-167.5 66,-148.5 0,-148.5"/>
<text text-anchor="middle" x="33" y="-155.5" font-family="Helvetica,sans-Serif" font-size="10.00">node_class</text>
</a>
</g>
</g>
<!-- Node3&#45;&gt;Node2 -->
<g id="edge2" class="edge">
<title>Node3&#45;&gt;Node2</title>
<path fill="none" stroke="midnightblue" d="M53.87,-142.59C75.28,-127.8 107.89,-105.29 125.56,-93.09"/>
<polygon fill="midnightblue" stroke="midnightblue" points="51.7,-139.84 45.46,-148.4 55.67,-145.6 51.7,-139.84"/>
</g>
<!-- Node3&#45;&gt;Node3 -->
<g id="edge3" class="edge">
<title>Node3&#45;&gt;Node3</title>
<path fill="none" stroke="#9a32cd" stroke-dasharray="5,2" d="M76.65,-163.25C81.13,-162.22 84,-160.47 84,-158 84,-153.95 76.28,-151.83 66.35,-151.64"/>
<polygon fill="#9a32cd" stroke="#9a32cd" points="75.92,-159.81 66.35,-164.36 76.67,-166.77 75.92,-159.81"/>
<text text-anchor="middle" x="114" y="-161" font-family="Helvetica,sans-Serif" font-size="10.00"> mpNextNode</text>
<text text-anchor="middle" x="114" y="-150" font-family="Helvetica,sans-Serif" font-size="10.00">mpPrevNode</text>
</g>
<!-- Node4 -->
<g id="node4" class="node">
<title>Node4</title>
<g id="a_node4"><a xlink:href="structJKRHeap.html" target="_top" xlink:title=" ">
<polygon fill="white" stroke="black" points="263.5,-74 263.5,-93 322.5,-93 322.5,-74 263.5,-74"/>
<text text-anchor="middle" x="293" y="-81" font-family="Helvetica,sans-Serif" font-size="10.00">JKRHeap</text>
</a>
</g>
</g>
<!-- Node4&#45;&gt;Node1 -->
<g id="edge4" class="edge">
<title>Node4&#45;&gt;Node1</title>
<path fill="none" stroke="#9a32cd" stroke-dasharray="5,2" d="M269.92,-68.4C246.16,-53.87 209.89,-31.71 190.1,-19.62"/>
<polygon fill="#9a32cd" stroke="#9a32cd" points="268.3,-71.5 278.65,-73.73 271.95,-65.53 268.3,-71.5"/>
<text text-anchor="middle" x="256" y="-41" font-family="Helvetica,sans-Serif" font-size="10.00"> mHeap</text>
</g>
<!-- Node4&#45;&gt;Node4 -->
<g id="edge12" class="edge">
<title>Node4&#45;&gt;Node4</title>
<path fill="none" stroke="#9a32cd" stroke-dasharray="5,2" d="M332.67,-89.95C337.41,-88.77 340.5,-86.62 340.5,-83.5 340.5,-78.5 332.58,-76 322.69,-76"/>
<polygon fill="#9a32cd" stroke="#9a32cd" points="332.26,-86.47 322.69,-91 333,-93.43 332.26,-86.47"/>
<text text-anchor="middle" x="372" y="-92" font-family="Helvetica,sans-Serif" font-size="10.00"> sCurrentHeap</text>
<text text-anchor="middle" x="372" y="-81" font-family="Helvetica,sans-Serif" font-size="10.00">sRootHeap</text>
<text text-anchor="middle" x="372" y="-70" font-family="Helvetica,sans-Serif" font-size="10.00">sSystemHeap</text>
</g>
<!-- Node5 -->
<g id="node5" class="node">
<title>Node5</title>
<g id="a_node5"><a xlink:href="structJKRDisposer.html" target="_top" xlink:title=" ">
<polygon fill="white" stroke="black" points="289,-0.5 289,-19.5 363,-19.5 363,-0.5 289,-0.5"/>
<text text-anchor="middle" x="326" y="-7.5" font-family="Helvetica,sans-Serif" font-size="10.00">JKRDisposer</text>
</a>
</g>
</g>
<!-- Node4&#45;&gt;Node5 -->
<g id="edge6" class="edge">
<title>Node4&#45;&gt;Node5</title>
<path fill="none" stroke="#9a32cd" stroke-dasharray="5,2" d="M301.34,-64.43C307.92,-50.18 316.81,-30.92 321.92,-19.84"/>
<polygon fill="#9a32cd" stroke="#9a32cd" points="298.06,-63.19 297.05,-73.73 304.41,-66.12 298.06,-63.19"/>
<text text-anchor="middle" x="330" y="-41" font-family="Helvetica,sans-Serif" font-size="10.00"> mHeap</text>
</g>
<!-- Node5&#45;&gt;Node4 -->
<g id="edge5" class="edge">
<title>Node5&#45;&gt;Node4</title>
<path fill="none" stroke="midnightblue" d="M312.91,-27.94C310.75,-31.17 308.68,-34.61 307,-38 301.19,-49.76 297.12,-64.46 294.93,-73.66"/>
<polygon fill="midnightblue" stroke="midnightblue" points="315.93,-29.73 318.94,-19.57 310.25,-25.63 315.93,-29.73"/>
</g>
<!-- Node6 -->
<g id="node6" class="node">
<title>Node6</title>
<g id="a_node6"><a xlink:href="structJSULink.html" target="_top" xlink:title=" ">
<polygon fill="white" stroke="black" points="433,-263.5 433,-282.5 561,-282.5 561,-263.5 433,-263.5"/>
<text text-anchor="middle" x="497" y="-270.5" font-family="Helvetica,sans-Serif" font-size="10.00">JSULink&lt; JKRDisposer &gt;</text>
</a>
</g>
</g>
<!-- Node6&#45;&gt;Node5 -->
<g id="edge7" class="edge">
<title>Node6&#45;&gt;Node5</title>
<path fill="none" stroke="#9a32cd" stroke-dasharray="5,2" d="M496.61,-253.34C496.33,-238.37 496,-216.84 496,-198 496,-198 496,-198 496,-82.5 496,-25.35 413.35,-13.13 363.31,-10.98"/>
<polygon fill="#9a32cd" stroke="#9a32cd" points="493.11,-253.41 496.81,-263.34 500.11,-253.27 493.11,-253.41"/>
<text text-anchor="middle" x="511" y="-155.5" font-family="Helvetica,sans-Serif" font-size="10.00"> mLink</text>
</g>
<!-- Node7 -->
<g id="node7" class="node">
<title>Node7</title>
<g id="a_node7"><a xlink:href="structJSUPtrLink.html" target="_top" xlink:title=" ">
<polygon fill="white" stroke="black" points="336,-380.5 336,-399.5 404,-399.5 404,-380.5 336,-380.5"/>
<text text-anchor="middle" x="370" y="-387.5" font-family="Helvetica,sans-Serif" font-size="10.00">JSUPtrLink</text>
</a>
</g>
</g>
<!-- Node7&#45;&gt;Node6 -->
<g id="edge8" class="edge">
<title>Node7&#45;&gt;Node6</title>
<path fill="none" stroke="midnightblue" d="M387.08,-373.53C414.12,-349.05 465.91,-302.15 487.34,-282.74"/>
<polygon fill="midnightblue" stroke="midnightblue" points="384.61,-371.05 379.55,-380.36 389.31,-376.24 384.61,-371.05"/>
</g>
<!-- Node7&#45;&gt;Node7 -->
<g id="edge9" class="edge">
<title>Node7&#45;&gt;Node7</title>
<path fill="none" stroke="#9a32cd" stroke-dasharray="5,2" d="M414.15,-396.27C418.92,-395.07 422,-392.98 422,-390 422,-385.23 414.13,-382.74 404.01,-382.52"/>
<polygon fill="#9a32cd" stroke="#9a32cd" points="413.52,-392.82 404.01,-397.48 414.35,-399.77 413.52,-392.82"/>
<text text-anchor="middle" x="437.5" y="-393" font-family="Helvetica,sans-Serif" font-size="10.00"> mNext</text>
<text text-anchor="middle" x="437.5" y="-382" font-family="Helvetica,sans-Serif" font-size="10.00">mPrev</text>
</g>
<!-- Node8 -->
<g id="node8" class="node">
<title>Node8</title>
<g id="a_node8"><a xlink:href="structJSUPtrList.html" target="_top" xlink:title=" ">
<polygon fill="white" stroke="black" points="278.5,-301.5 278.5,-320.5 343.5,-320.5 343.5,-301.5 278.5,-301.5"/>
<text text-anchor="middle" x="311" y="-308.5" font-family="Helvetica,sans-Serif" font-size="10.00">JSUPtrList</text>
</a>
</g>
</g>
<!-- Node7&#45;&gt;Node8 -->
<g id="edge11" class="edge">
<title>Node7&#45;&gt;Node8</title>
<path fill="none" stroke="#9a32cd" stroke-dasharray="5,2" d="M326.07,-382.82C313.31,-378.75 300.74,-372.05 293,-361 284.16,-348.38 295,-330.91 303.28,-320.6"/>
<polygon fill="#9a32cd" stroke="#9a32cd" points="325.22,-386.21 335.79,-385.44 327.05,-379.45 325.22,-386.21"/>
<text text-anchor="middle" x="310" y="-353" font-family="Helvetica,sans-Serif" font-size="10.00"> mHead</text>
<text text-anchor="middle" x="310" y="-342" font-family="Helvetica,sans-Serif" font-size="10.00">mTail</text>
</g>
<!-- Node11 -->
<g id="node11" class="node">
<title>Node11</title>
<g id="a_node11"><a xlink:href="structJSULink.html" target="_top" xlink:title=" ">
<polygon fill="white" stroke="black" points="344.5,-263.5 344.5,-282.5 427.5,-282.5 427.5,-263.5 344.5,-263.5"/>
<text text-anchor="middle" x="386" y="-270.5" font-family="Helvetica,sans-Serif" font-size="10.00">JSULink&lt; A0 &gt;</text>
</a>
</g>
</g>
<!-- Node7&#45;&gt;Node11 -->
<g id="edge17" class="edge">
<title>Node7&#45;&gt;Node11</title>
<path fill="none" stroke="midnightblue" d="M375.83,-370.42C376.66,-367.3 377.42,-364.07 378,-361 383.3,-332.67 385.14,-298.47 385.74,-282.72"/>
<polygon fill="midnightblue" stroke="midnightblue" points="372.4,-369.69 372.95,-380.27 379.12,-371.66 372.4,-369.69"/>
</g>
<!-- Node8&#45;&gt;Node7 -->
<g id="edge10" class="edge">
<title>Node8&#45;&gt;Node7</title>
<path fill="none" stroke="#9a32cd" stroke-dasharray="5,2" d="M323.86,-328.79C336.08,-344.73 353.94,-368.04 363.46,-380.47"/>
<polygon fill="#9a32cd" stroke="#9a32cd" points="326.61,-326.62 317.75,-320.81 321.05,-330.88 326.61,-326.62"/>
<text text-anchor="middle" x="361" y="-347.5" font-family="Helvetica,sans-Serif" font-size="10.00"> mList</text>
</g>
<!-- Node10 -->
<g id="node10" class="node">
<title>Node10</title>
<g id="a_node10"><a xlink:href="structJSUList.html" target="_top" xlink:title=" ">
<polygon fill="white" stroke="black" points="283.5,-225.5 283.5,-244.5 364.5,-244.5 364.5,-225.5 283.5,-225.5"/>
<text text-anchor="middle" x="324" y="-232.5" font-family="Helvetica,sans-Serif" font-size="10.00">JSUList&lt; A0 &gt;</text>
</a>
</g>
</g>
<!-- Node8&#45;&gt;Node10 -->
<g id="edge15" class="edge">
<title>Node8&#45;&gt;Node10</title>
<path fill="none" stroke="midnightblue" d="M314.33,-291.07C316.94,-276.18 320.47,-256.11 322.46,-244.77"/>
<polygon fill="midnightblue" stroke="midnightblue" points="310.83,-290.77 312.54,-301.22 317.72,-291.98 310.83,-290.77"/>
</g>
<!-- Node13 -->
<g id="node13" class="node">
<title>Node13</title>
<g id="a_node13"><a xlink:href="structJSUList.html" target="_top" xlink:title=" ">
<polygon fill="white" stroke="black" points="155,-187.5 155,-206.5 281,-206.5 281,-187.5 155,-187.5"/>
<text text-anchor="middle" x="218" y="-194.5" font-family="Helvetica,sans-Serif" font-size="10.00">JSUList&lt; JKRDisposer &gt;</text>
</a>
</g>
</g>
<!-- Node8&#45;&gt;Node13 -->
<g id="edge20" class="edge">
<title>Node8&#45;&gt;Node13</title>
<path fill="none" stroke="midnightblue" d="M297.12,-293.29C277.07,-269.14 240.72,-225.36 225.26,-206.75"/>
<polygon fill="midnightblue" stroke="midnightblue" points="294.62,-295.75 303.7,-301.21 300.01,-291.28 294.62,-295.75"/>
</g>
<!-- Node9 -->
<g id="node9" class="node">
<title>Node9</title>
<g id="a_node9"><a xlink:href="classJSUTree.html" target="_top" xlink:title=" ">
<polygon fill="white" stroke="black" points="340,-148.5 340,-167.5 454,-167.5 454,-148.5 340,-148.5"/>
<text text-anchor="middle" x="397" y="-155.5" font-family="Helvetica,sans-Serif" font-size="10.00">JSUTree&lt; JKRHeap &gt;</text>
</a>
</g>
</g>
<!-- Node9&#45;&gt;Node4 -->
<g id="edge13" class="edge">
<title>Node9&#45;&gt;Node4</title>
<path fill="none" stroke="#9a32cd" stroke-dasharray="5,2" d="M376.33,-142.59C355.12,-127.8 322.83,-105.29 305.32,-93.09"/>
<polygon fill="#9a32cd" stroke="#9a32cd" points="374.46,-145.55 384.66,-148.4 378.46,-139.81 374.46,-145.55"/>
<text text-anchor="middle" x="380" y="-121" font-family="Helvetica,sans-Serif" font-size="10.00"> mChildTree</text>
</g>
<!-- Node10&#45;&gt;Node9 -->
<g id="edge14" class="edge">
<title>Node10&#45;&gt;Node9</title>
<path fill="none" stroke="midnightblue" d="M339.49,-218.09C354.53,-202.63 376.79,-179.77 388.72,-167.5"/>
<polygon fill="midnightblue" stroke="midnightblue" points="336.84,-215.79 332.37,-225.4 341.86,-220.67 336.84,-215.79"/>
</g>
<!-- Node11&#45;&gt;Node9 -->
<g id="edge16" class="edge">
<title>Node11&#45;&gt;Node9</title>
<path fill="none" stroke="midnightblue" d="M387.84,-253.12C390.26,-228.26 394.41,-185.61 396.17,-167.52"/>
<polygon fill="midnightblue" stroke="midnightblue" points="384.35,-252.84 386.86,-263.13 391.32,-253.52 384.35,-252.84"/>
</g>
<!-- Node12 -->
<g id="node12" class="node">
<title>Node12</title>
<g id="a_node12"><a xlink:href="structOSMutex.html" target="_top" xlink:title=" ">
<polygon fill="white" stroke="black" points="264.5,-148.5 264.5,-167.5 321.5,-167.5 321.5,-148.5 264.5,-148.5"/>
<text text-anchor="middle" x="293" y="-155.5" font-family="Helvetica,sans-Serif" font-size="10.00">OSMutex</text>
</a>
</g>
</g>
<!-- Node12&#45;&gt;Node4 -->
<g id="edge18" class="edge">
<title>Node12&#45;&gt;Node4</title>
<path fill="none" stroke="#9a32cd" stroke-dasharray="5,2" d="M293,-138.03C293,-123.48 293,-104.09 293,-93.09"/>
<polygon fill="#9a32cd" stroke="#9a32cd" points="289.5,-138.4 293,-148.4 296.5,-138.4 289.5,-138.4"/>
<text text-anchor="middle" x="311.5" y="-121" font-family="Helvetica,sans-Serif" font-size="10.00"> mMutex</text>
</g>
<!-- Node13&#45;&gt;Node4 -->
<g id="edge19" class="edge">
<title>Node13&#45;&gt;Node4</title>
<path fill="none" stroke="#9a32cd" stroke-dasharray="5,2" d="M197.1,-180.68C193.81,-177.23 190.87,-173.3 189,-169 185.1,-160.03 184.19,-155.51 189,-147 204.87,-118.95 238.92,-102.1 263.75,-93.09"/>
<polygon fill="#9a32cd" stroke="#9a32cd" points="194.84,-183.35 204.63,-187.41 199.51,-178.13 194.84,-183.35"/>
<text text-anchor="middle" x="222" y="-155.5" font-family="Helvetica,sans-Serif" font-size="10.00"> mDisposerList</text>
</g>
</g>
</svg>
        <g id="navigator" transform="translate(0 0)" fill="#404254">
                <rect fill="#f2f5e9" fill-opacity="0.5" stroke="#606060" stroke-width=".5" x="0" y="0" width="60" height="60"/>
                <use id="zoomplus" xlink:href="#zoomPlus" x="17" y="9" onmousedown="handleZoom(evt,'in')"/>
                <use id="zoomminus" xlink:href="#zoomMin" x="42" y="9" onmousedown="handleZoom(evt,'out')"/>
                <use id="reset" xlink:href="#resetDef" x="30" y="36" onmousedown="handleReset()"/>
                <g id="arrowUp" xlink:href="#dirArrow" transform="translate(30 24)" onmousedown="handlePan(0,-1)">
                  <use xlink:href="#rim" fill="#404040">
                        <set attributeName="fill" to="#808080" begin="arrowUp.mouseover" end="arrowUp.mouseout"/>
                  </use>
                  <path fill="none" stroke="white" stroke-width="1.5" d="M0,-3.0v7 M-2.5,-0.5L0,-3.0L2.5,-0.5"/>
                </g>
                <g id="arrowRight" xlink:href="#dirArrow" transform="rotate(90) translate(36 -43)" onmousedown="handlePan(1,0)">
                  <use xlink:href="#rim" fill="#404040">
                        <set attributeName="fill" to="#808080" begin="arrowRight.mouseover" end="arrowRight.mouseout"/>
                  </use>
                  <path fill="none" stroke="white" stroke-width="1.5" d="M0,-3.0v7 M-2.5,-0.5L0,-3.0L2.5,-0.5"/>
                </g>
                <g id="arrowDown" xlink:href="#dirArrow" transform="rotate(180) translate(-30 -48)" onmousedown="handlePan(0,1)">
                  <use xlink:href="#rim" fill="#404040">
                        <set attributeName="fill" to="#808080" begin="arrowDown.mouseover" end="arrowDown.mouseout"/>
                  </use>
                  <path fill="none" stroke="white" stroke-width="1.5" d="M0,-3.0v7 M-2.5,-0.5L0,-3.0L2.5,-0.5"/>
                </g>
                <g id="arrowLeft" xlink:href="#dirArrow" transform="rotate(270) translate(-36 17)" onmousedown="handlePan(-1,0)">
                  <use xlink:href="#rim" fill="#404040">
                        <set attributeName="fill" to="#808080" begin="arrowLeft.mouseover" end="arrowLeft.mouseout"/>
                  </use>
                  <path fill="none" stroke="white" stroke-width="1.5" d="M0,-3.0v7 M-2.5,-0.5L0,-3.0L2.5,-0.5"/>
                </g>
        </g>
        <svg viewBox="0 0 15 15" width="100%" height="30px" preserveAspectRatio="xMaxYMin meet">
         <g id="arrow_out" transform="scale(0.3 0.3)">
          <a xlink:href="structmDoDvdThd__toMainRam__c__coll__graph_org.svg" target="_base">
           <rect id="button" ry="5" rx="5" y="6" x="6" height="38" width="38"
                fill="#f2f5e9" fill-opacity="0.5" stroke="#606060" stroke-width="1.0"/>
           <path id="arrow"
             d="M 11.500037,31.436501 C 11.940474,20.09759 22.043105,11.32322 32.158766,21.979434 L 37.068811,17.246167 C 37.068811,17.246167 37.088388,32 37.088388,32 L 22.160133,31.978069 C 22.160133,31.978069 26.997745,27.140456 26.997745,27.140456 C 18.528582,18.264221 13.291696,25.230495 11.500037,31.436501 z"
             style="fill:#404040;"/>
          </a>
         </g>
        </svg>
</svg>
