<?xml version="1.0" encoding="UTF-8" standalone="no"?>
<!DOCTYPE svg PUBLIC "-//W3C//DTD SVG 1.1//EN"
 "http://www.w3.org/Graphics/SVG/1.1/DTD/svg11.dtd">
<!-- Generated by graphviz version 7.0.4 (20221203.1631)
 -->
<!-- Title: J2DScreen Pages: 1 -->
<svg width="1144pt" height="510pt"
 viewBox="0.00 0.00 1144.00 509.50" xmlns="http://www.w3.org/2000/svg" xmlns:xlink="http://www.w3.org/1999/xlink">
<g id="graph0" class="graph" transform="scale(1 1) rotate(0) translate(4 505.5)">
<title>J2DScreen</title>
<!-- Node1 -->
<g id="node1" class="node">
<title>Node1</title>
<g id="a_node1"><a xlink:title=" ">
<polygon fill="#999999" stroke="#666666" points="1136,-197 1071,-197 1071,-178 1136,-178 1136,-197"/>
<text text-anchor="middle" x="1103.5" y="-185" font-family="Helvetica,sans-Serif" font-size="10.00">J2DScreen</text>
</a>
</g>
</g>
<!-- Node2 -->
<g id="node2" class="node">
<title>Node2</title>
<g id="a_node2"><a xlink:href="structJ2DPane.html" target="_top" xlink:title=" ">
<polygon fill="white" stroke="#666666" points="949.5,-420 893.5,-420 893.5,-401 949.5,-401 949.5,-420"/>
<text text-anchor="middle" x="921.5" y="-408" font-family="Helvetica,sans-Serif" font-size="10.00">J2DPane</text>
</a>
</g>
</g>
<!-- Node2&#45;&gt;Node1 -->
<g id="edge1" class="edge">
<title>Node2&#45;&gt;Node1</title>
<path fill="none" stroke="#63b8ff" d="M951.53,-395.07C980.73,-378.25 1025.29,-348.81 1053,-312.5 1081.46,-275.2 1095.75,-219.42 1100.57,-197.17"/>
<polygon fill="#63b8ff" stroke="#63b8ff" points="949.85,-392 942.85,-399.95 953.28,-398.11 949.85,-392"/>
</g>
<!-- Node3 -->
<g id="node3" class="node">
<title>Node3</title>
<g id="a_node3"><a xlink:href="structJGeometry_1_1TBox2.html" target="_top" xlink:title=" ">
<polygon fill="white" stroke="#666666" points="767,-489 641,-489 641,-470 767,-470 767,-489"/>
<text text-anchor="middle" x="704" y="-477" font-family="Helvetica,sans-Serif" font-size="10.00">JGeometry::TBox2&lt; f32 &gt;</text>
</a>
</g>
</g>
<!-- Node3&#45;&gt;Node2 -->
<g id="edge2" class="edge">
<title>Node3&#45;&gt;Node2</title>
<path fill="none" stroke="#9a32cd" stroke-dasharray="5,2" d="M755.05,-466.68C784.65,-458.74 822.73,-447.91 856,-436.5 869.93,-431.72 885.24,-425.59 897.44,-420.49"/>
<polygon fill="#9a32cd" stroke="#9a32cd" points="754.37,-463.23 745.61,-469.18 756.17,-470 754.37,-463.23"/>
<text text-anchor="middle" x="820.5" y="-493.5" font-family="Helvetica,sans-Serif" font-size="10.00"> mBounds</text>
<text text-anchor="middle" x="820.5" y="-482.5" font-family="Helvetica,sans-Serif" font-size="10.00">mClipRect</text>
<text text-anchor="middle" x="820.5" y="-471.5" font-family="Helvetica,sans-Serif" font-size="10.00">mGlobalBounds</text>
<text text-anchor="middle" x="820.5" y="-460.5" font-family="Helvetica,sans-Serif" font-size="10.00">static_mBounds</text>
</g>
<!-- Node4 -->
<g id="node4" class="node">
<title>Node4</title>
<g id="a_node4"><a xlink:href="structJGeometry_1_1TBox.html" target="_top" xlink:title=" ">
<polygon fill="white" stroke="#666666" points="535,-500.5 407,-500.5 407,-470.5 535,-470.5 535,-500.5"/>
<text text-anchor="start" x="415" y="-488.5" font-family="Helvetica,sans-Serif" font-size="10.00">JGeometry::TBox&lt; TVec2</text>
<text text-anchor="middle" x="471" y="-477.5" font-family="Helvetica,sans-Serif" font-size="10.00">&lt; T &gt; &gt;</text>
</a>
</g>
</g>
<!-- Node4&#45;&gt;Node3 -->
<g id="edge3" class="edge">
<title>Node4&#45;&gt;Node3</title>
<path fill="none" stroke="#63b8ff" d="M546.8,-483.56C577.07,-482.77 611.62,-481.87 640.51,-481.12"/>
<polygon fill="#63b8ff" stroke="#63b8ff" points="546.85,-480.05 536.94,-483.81 547.03,-487.05 546.85,-480.05"/>
</g>
<!-- Node5 -->
<g id="node5" class="node">
<title>Node5</title>
<g id="a_node5"><a xlink:href="classJSUTree.html" target="_top" xlink:title=" ">
<polygon fill="white" stroke="#666666" points="760,-439 648,-439 648,-420 760,-420 760,-439"/>
<text text-anchor="middle" x="704" y="-427" font-family="Helvetica,sans-Serif" font-size="10.00">JSUTree&lt; J2DPane &gt;</text>
</a>
</g>
</g>
<!-- Node5&#45;&gt;Node2 -->
<g id="edge4" class="edge">
<title>Node5&#45;&gt;Node2</title>
<path fill="none" stroke="#9a32cd" stroke-dasharray="5,2" d="M771.75,-423.61C812.62,-420.01 862.73,-415.59 893.11,-412.91"/>
<polygon fill="#9a32cd" stroke="#9a32cd" points="771.66,-420.11 762,-424.47 772.27,-427.08 771.66,-420.11"/>
<text text-anchor="middle" x="820.5" y="-424.5" font-family="Helvetica,sans-Serif" font-size="10.00"> mPaneTree</text>
</g>
<!-- Node6 -->
<g id="node6" class="node">
<title>Node6</title>
<g id="a_node6"><a xlink:href="classJSUList.html" target="_top" xlink:title=" ">
<polygon fill="white" stroke="#666666" points="389,-458 314,-458 314,-439 389,-439 389,-458"/>
<text text-anchor="middle" x="351.5" y="-446" font-family="Helvetica,sans-Serif" font-size="10.00">JSUList&lt; T &gt;</text>
</a>
</g>
</g>
<!-- Node6&#45;&gt;Node5 -->
<g id="edge5" class="edge">
<title>Node6&#45;&gt;Node5</title>
<path fill="none" stroke="#63b8ff" d="M400.82,-445.88C465.45,-442.38 579.79,-436.18 647.76,-432.49"/>
<polygon fill="#63b8ff" stroke="#63b8ff" points="400.65,-442.38 390.86,-446.42 401.03,-449.37 400.65,-442.38"/>
</g>
<!-- Node7 -->
<g id="node7" class="node">
<title>Node7</title>
<g id="a_node7"><a xlink:href="structJSUPtrList.html" target="_top" xlink:title=" ">
<polygon fill="white" stroke="#666666" points="83.5,-436 18.5,-436 18.5,-417 83.5,-417 83.5,-436"/>
<text text-anchor="middle" x="51" y="-424" font-family="Helvetica,sans-Serif" font-size="10.00">JSUPtrList</text>
</a>
</g>
</g>
<!-- Node7&#45;&gt;Node6 -->
<g id="edge6" class="edge">
<title>Node7&#45;&gt;Node6</title>
<path fill="none" stroke="#63b8ff" d="M95.18,-431.02C124.9,-434.02 165.31,-437.87 201,-440.5 239.36,-443.33 283.34,-445.56 313.61,-446.94"/>
<polygon fill="#63b8ff" stroke="#63b8ff" points="95.75,-427.56 85.45,-430.03 95.04,-434.52 95.75,-427.56"/>
</g>
<!-- Node8 -->
<g id="node8" class="node">
<title>Node8</title>
<g id="a_node8"><a xlink:href="structJSUPtrLink.html" target="_top" xlink:title=" ">
<polygon fill="white" stroke="#666666" points="282.5,-391 214.5,-391 214.5,-372 282.5,-372 282.5,-391"/>
<text text-anchor="middle" x="248.5" y="-379" font-family="Helvetica,sans-Serif" font-size="10.00">JSUPtrLink</text>
</a>
</g>
</g>
<!-- Node7&#45;&gt;Node8 -->
<g id="edge8" class="edge">
<title>Node7&#45;&gt;Node8</title>
<path fill="none" stroke="#9a32cd" stroke-dasharray="5,2" d="M95.09,-421.21C120.84,-417.57 154.06,-412.03 183,-404.5 196.35,-401.03 210.84,-395.98 222.7,-391.5"/>
<polygon fill="#9a32cd" stroke="#9a32cd" points="94.76,-417.72 85.33,-422.55 95.71,-424.66 94.76,-417.72"/>
<text text-anchor="middle" x="151.5" y="-419.5" font-family="Helvetica,sans-Serif" font-size="10.00"> mList</text>
</g>
<!-- Node8&#45;&gt;Node7 -->
<g id="edge7" class="edge">
<title>Node8&#45;&gt;Node7</title>
<path fill="none" stroke="#9a32cd" stroke-dasharray="5,2" d="M202.95,-375.82C178.04,-374.13 146.73,-374.49 120,-382.5 97.37,-389.28 75.16,-406.11 62.56,-416.88"/>
<polygon fill="#9a32cd" stroke="#9a32cd" points="202.49,-379.3 212.75,-376.63 203.07,-372.32 202.49,-379.3"/>
<text text-anchor="middle" x="151.5" y="-396.5" font-family="Helvetica,sans-Serif" font-size="10.00"> mHead</text>
<text text-anchor="middle" x="151.5" y="-385.5" font-family="Helvetica,sans-Serif" font-size="10.00">mTail</text>
</g>
<!-- Node8&#45;&gt;Node8 -->
<g id="edge9" class="edge">
<title>Node8&#45;&gt;Node8</title>
<path fill="none" stroke="#9a32cd" stroke-dasharray="5,2" d="M231.28,-402.43C233.44,-406.29 239.18,-409 248.5,-409 265.55,-409 270.61,-399.94 263.69,-391.37"/>
<polygon fill="#9a32cd" stroke="#9a32cd" points="234.68,-403.32 233.04,-392.86 227.79,-402.06 234.68,-403.32"/>
<text text-anchor="middle" x="248.5" y="-423" font-family="Helvetica,sans-Serif" font-size="10.00"> mNext</text>
<text text-anchor="middle" x="248.5" y="-412" font-family="Helvetica,sans-Serif" font-size="10.00">mPrev</text>
</g>
<!-- Node9 -->
<g id="node9" class="node">
<title>Node9</title>
<g id="a_node9"><a xlink:href="structJSULink.html" target="_top" xlink:title=" ">
<polygon fill="white" stroke="#666666" points="512.5,-397 429.5,-397 429.5,-378 512.5,-378 512.5,-397"/>
<text text-anchor="middle" x="471" y="-385" font-family="Helvetica,sans-Serif" font-size="10.00">JSULink&lt; A0 &gt;</text>
</a>
</g>
</g>
<!-- Node8&#45;&gt;Node9 -->
<g id="edge11" class="edge">
<title>Node8&#45;&gt;Node9</title>
<path fill="none" stroke="#63b8ff" d="M294.38,-382.72C333.85,-383.8 390.81,-385.35 429.05,-386.39"/>
<polygon fill="#63b8ff" stroke="#63b8ff" points="294.59,-379.23 284.5,-382.45 294.4,-386.22 294.59,-379.23"/>
</g>
<!-- Node9&#45;&gt;Node5 -->
<g id="edge10" class="edge">
<title>Node9&#45;&gt;Node5</title>
<path fill="none" stroke="#63b8ff" d="M523.89,-397.94C533.56,-399.83 543.58,-401.75 553,-403.5 584.31,-409.31 619.38,-415.41 647.73,-420.24"/>
<polygon fill="#63b8ff" stroke="#63b8ff" points="524.73,-394.53 514.24,-396.04 523.38,-401.4 524.73,-394.53"/>
</g>
<!-- Node10 -->
<g id="node10" class="node">
<title>Node10</title>
<g id="a_node10"><a xlink:href="structJ2DAnmTransform.html" target="_top" xlink:title=" ">
<polygon fill="white" stroke="#666666" points="753,-402 655,-402 655,-383 753,-383 753,-402"/>
<text text-anchor="middle" x="704" y="-390" font-family="Helvetica,sans-Serif" font-size="10.00">J2DAnmTransform</text>
</a>
</g>
</g>
<!-- Node10&#45;&gt;Node2 -->
<g id="edge12" class="edge">
<title>Node10&#45;&gt;Node2</title>
<path fill="none" stroke="#9a32cd" stroke-dasharray="5,2" d="M764.63,-390.83C792.49,-390.78 826.04,-391.76 856,-395.5 868.32,-397.04 881.73,-399.95 893.11,-402.8"/>
<polygon fill="#9a32cd" stroke="#9a32cd" points="764.96,-387.33 754.98,-390.89 765,-394.33 764.96,-387.33"/>
<text text-anchor="middle" x="820.5" y="-398.5" font-family="Helvetica,sans-Serif" font-size="10.00"> mTransform</text>
</g>
<!-- Node11 -->
<g id="node11" class="node">
<title>Node11</title>
<g id="a_node11"><a xlink:href="structJ2DAnmBase.html" target="_top" xlink:title=" ">
<polygon fill="white" stroke="#666666" points="509.5,-348 432.5,-348 432.5,-329 509.5,-329 509.5,-348"/>
<text text-anchor="middle" x="471" y="-336" font-family="Helvetica,sans-Serif" font-size="10.00">J2DAnmBase</text>
</a>
</g>
</g>
<!-- Node11&#45;&gt;Node10 -->
<g id="edge13" class="edge">
<title>Node11&#45;&gt;Node10</title>
<path fill="none" stroke="#63b8ff" d="M502.39,-353.4C512.74,-358.5 524.38,-364.23 535,-369.5 543.01,-373.47 544.4,-376.04 553,-378.5 586.07,-387.95 624.74,-391.39 654.54,-392.49"/>
<polygon fill="#63b8ff" stroke="#63b8ff" points="504.04,-350.32 493.52,-349.05 500.95,-356.6 504.04,-350.32"/>
</g>
<!-- Node33 -->
<g id="node33" class="node">
<title>Node33</title>
<g id="a_node33"><a xlink:href="structJ2DMaterial_1_1J2DMaterialAnmPointer.html" target="_top" xlink:title=" ">
<polygon fill="white" stroke="#666666" points="766.5,-356.5 641.5,-356.5 641.5,-326.5 766.5,-326.5 766.5,-356.5"/>
<text text-anchor="start" x="649.5" y="-344.5" font-family="Helvetica,sans-Serif" font-size="10.00">J2DMaterial::J2DMaterial</text>
<text text-anchor="middle" x="704" y="-333.5" font-family="Helvetica,sans-Serif" font-size="10.00">AnmPointer</text>
</a>
</g>
</g>
<!-- Node11&#45;&gt;Node33 -->
<g id="edge37" class="edge">
<title>Node11&#45;&gt;Node33</title>
<path fill="none" stroke="#9a32cd" stroke-dasharray="5,2" d="M521.13,-335.46C550.67,-334.06 589,-333.02 623,-334.5 628.85,-334.76 634.93,-335.12 641.02,-335.54"/>
<polygon fill="#9a32cd" stroke="#9a32cd" points="521.19,-331.95 511.38,-335.95 521.54,-338.94 521.19,-331.95"/>
<text text-anchor="middle" x="588" y="-370.5" font-family="Helvetica,sans-Serif" font-size="10.00"> field_0x0</text>
<text text-anchor="middle" x="588" y="-359.5" font-family="Helvetica,sans-Serif" font-size="10.00">field_0x4</text>
<text text-anchor="middle" x="588" y="-348.5" font-family="Helvetica,sans-Serif" font-size="10.00">field_0x8</text>
<text text-anchor="middle" x="588" y="-337.5" font-family="Helvetica,sans-Serif" font-size="10.00">field_0xc</text>
</g>
<!-- Node12 -->
<g id="node12" class="node">
<title>Node12</title>
<g id="a_node12"><a xlink:href="classJ2DDataManage.html" target="_top" xlink:title=" ">
<polygon fill="white" stroke="#666666" points="966,-175 877,-175 877,-156 966,-156 966,-175"/>
<text text-anchor="middle" x="921.5" y="-163" font-family="Helvetica,sans-Serif" font-size="10.00">J2DDataManage</text>
</a>
</g>
</g>
<!-- Node12&#45;&gt;Node1 -->
<g id="edge14" class="edge">
<title>Node12&#45;&gt;Node1</title>
<path fill="none" stroke="#9a32cd" stroke-dasharray="5,2" d="M977.85,-169.27C1001.13,-171.19 1028.45,-173.9 1053,-177.5 1058.73,-178.34 1064.79,-179.41 1070.64,-180.54"/>
<polygon fill="#9a32cd" stroke="#9a32cd" points="978.19,-165.78 967.95,-168.48 977.64,-172.76 978.19,-165.78"/>
<text text-anchor="middle" x="1020" y="-180.5" font-family="Helvetica,sans-Serif" font-size="10.00"> mDataManage</text>
</g>
<!-- Node13 -->
<g id="node13" class="node">
<title>Node13</title>
<g id="a_node13"><a xlink:href="structJ2DataManageLink.html" target="_top" xlink:title=" ">
<polygon fill="white" stroke="#666666" points="754.5,-56 653.5,-56 653.5,-37 754.5,-37 754.5,-56"/>
<text text-anchor="middle" x="704" y="-44" font-family="Helvetica,sans-Serif" font-size="10.00">J2DataManageLink</text>
</a>
</g>
</g>
<!-- Node13&#45;&gt;Node12 -->
<g id="edge15" class="edge">
<title>Node13&#45;&gt;Node12</title>
<path fill="none" stroke="#9a32cd" stroke-dasharray="5,2" d="M765.92,-53.05C796.39,-59.23 831.82,-71.22 856,-94.5 873.01,-110.88 857.97,-127.16 874,-144.5 878.21,-149.05 883.59,-152.69 889.19,-155.56"/>
<polygon fill="#9a32cd" stroke="#9a32cd" points="766.91,-49.67 756.44,-51.3 765.64,-56.56 766.91,-49.67"/>
<text text-anchor="middle" x="820.5" y="-97.5" font-family="Helvetica,sans-Serif" font-size="10.00"> mList</text>
</g>
<!-- Node13&#45;&gt;Node13 -->
<g id="edge16" class="edge">
<title>Node13&#45;&gt;Node13</title>
<path fill="none" stroke="#9a32cd" stroke-dasharray="5,2" d="M683.41,-67.43C685.99,-71.29 692.85,-74 704,-74 724.39,-74 730.44,-64.94 722.16,-56.37"/>
<polygon fill="#9a32cd" stroke="#9a32cd" points="686.79,-68.36 685.51,-57.85 679.95,-66.86 686.79,-68.36"/>
<text text-anchor="middle" x="704" y="-77" font-family="Helvetica,sans-Serif" font-size="10.00"> mNext</text>
</g>
<!-- Node14 -->
<g id="node14" class="node">
<title>Node14</title>
<g id="a_node14"><a xlink:href="classJ2DMaterial.html" target="_top" xlink:title=" ">
<polygon fill="white" stroke="#666666" points="955.5,-214 887.5,-214 887.5,-195 955.5,-195 955.5,-214"/>
<text text-anchor="middle" x="921.5" y="-202" font-family="Helvetica,sans-Serif" font-size="10.00">J2DMaterial</text>
</a>
</g>
</g>
<!-- Node14&#45;&gt;Node1 -->
<g id="edge17" class="edge">
<title>Node14&#45;&gt;Node1</title>
<path fill="none" stroke="#9a32cd" stroke-dasharray="5,2" d="M967.27,-200.27C999.44,-197.23 1042.04,-193.21 1070.75,-190.5"/>
<polygon fill="#9a32cd" stroke="#9a32cd" points="967.07,-196.78 957.44,-201.2 967.73,-203.74 967.07,-196.78"/>
<text text-anchor="middle" x="1020" y="-200.5" font-family="Helvetica,sans-Serif" font-size="10.00"> mMaterials</text>
</g>
<!-- Node15 -->
<g id="node15" class="node">
<title>Node15</title>
<g id="a_node15"><a xlink:href="classJ2DColorBlock.html" target="_top" xlink:title=" ">
<polygon fill="white" stroke="#666666" points="744.5,-270 663.5,-270 663.5,-251 744.5,-251 744.5,-270"/>
<text text-anchor="middle" x="704" y="-258" font-family="Helvetica,sans-Serif" font-size="10.00">J2DColorBlock</text>
</a>
</g>
</g>
<!-- Node15&#45;&gt;Node14 -->
<g id="edge18" class="edge">
<title>Node15&#45;&gt;Node14</title>
<path fill="none" stroke="#9a32cd" stroke-dasharray="5,2" d="M756.21,-252.78C785.72,-247.72 823.32,-240.24 856,-230.5 870.58,-226.16 886.43,-219.79 898.77,-214.44"/>
<polygon fill="#9a32cd" stroke="#9a32cd" points="755.7,-249.31 746.41,-254.41 756.85,-256.22 755.7,-249.31"/>
<text text-anchor="middle" x="820.5" y="-249.5" font-family="Helvetica,sans-Serif" font-size="10.00"> mColorBlock</text>
</g>
<!-- Node16 -->
<g id="node16" class="node">
<title>Node16</title>
<g id="a_node16"><a xlink:href="structJUtility_1_1TColor.html" target="_top" xlink:title=" ">
<polygon fill="white" stroke="#666666" points="511,-302 431,-302 431,-283 511,-283 511,-302"/>
<text text-anchor="middle" x="471" y="-290" font-family="Helvetica,sans-Serif" font-size="10.00">JUtility::TColor</text>
</a>
</g>
</g>
<!-- Node16&#45;&gt;Node1 -->
<g id="edge42" class="edge">
<title>Node16&#45;&gt;Node1</title>
<path fill="none" stroke="#9a32cd" stroke-dasharray="5,2" d="M522.5,-292.66C581.41,-292.29 681.61,-289.95 767,-279.5 807.06,-274.6 816.63,-270.37 856,-261.5 944.02,-241.66 968.43,-243.92 1053,-212.5 1064.19,-208.34 1076.15,-202.35 1085.52,-197.27"/>
<polygon fill="#9a32cd" stroke="#9a32cd" points="522.79,-289.15 512.8,-292.7 522.82,-296.15 522.79,-289.15"/>
<text text-anchor="middle" x="820.5" y="-279.5" font-family="Helvetica,sans-Serif" font-size="10.00"> mColor</text>
</g>
<!-- Node16&#45;&gt;Node15 -->
<g id="edge19" class="edge">
<title>Node16&#45;&gt;Node15</title>
<path fill="none" stroke="#9a32cd" stroke-dasharray="5,2" d="M520.19,-280C530.93,-277.55 542.31,-275.21 553,-273.5 590.04,-267.58 632.69,-264.21 663.02,-262.4"/>
<polygon fill="#9a32cd" stroke="#9a32cd" points="519.68,-276.52 510.75,-282.22 521.29,-283.33 519.68,-276.52"/>
<text text-anchor="middle" x="588" y="-276.5" font-family="Helvetica,sans-Serif" font-size="10.00"> mMatColor</text>
</g>
<!-- Node17 -->
<g id="node17" class="node">
<title>Node17</title>
<g id="a_node17"><a xlink:href="struct__GXColor.html" target="_top" xlink:title=" ">
<polygon fill="white" stroke="#666666" points="275,-302 222,-302 222,-283 275,-283 275,-302"/>
<text text-anchor="middle" x="248.5" y="-290" font-family="Helvetica,sans-Serif" font-size="10.00">GXColor</text>
</a>
</g>
</g>
<!-- Node17&#45;&gt;Node16 -->
<g id="edge20" class="edge">
<title>Node17&#45;&gt;Node16</title>
<path fill="none" stroke="#63b8ff" d="M286.58,-292.5C326.55,-292.5 389.9,-292.5 430.71,-292.5"/>
<polygon fill="#63b8ff" stroke="#63b8ff" points="286.74,-289 276.74,-292.5 286.74,-296 286.74,-289"/>
</g>
<!-- Node18 -->
<g id="node18" class="node">
<title>Node18</title>
<g id="a_node18"><a xlink:href="classJ2DColorChan.html" target="_top" xlink:title=" ">
<polygon fill="white" stroke="#666666" points="510.5,-251 431.5,-251 431.5,-232 510.5,-232 510.5,-251"/>
<text text-anchor="middle" x="471" y="-239" font-family="Helvetica,sans-Serif" font-size="10.00">J2DColorChan</text>
</a>
</g>
</g>
<!-- Node18&#45;&gt;Node15 -->
<g id="edge21" class="edge">
<title>Node18&#45;&gt;Node15</title>
<path fill="none" stroke="#9a32cd" stroke-dasharray="5,2" d="M522.23,-237.29C551.7,-235.71 589.6,-235.19 623,-239.5 639.66,-241.65 657.8,-246.22 672.59,-250.55"/>
<polygon fill="#9a32cd" stroke="#9a32cd" points="522.25,-233.79 512.48,-237.88 522.67,-240.77 522.25,-233.79"/>
<text text-anchor="middle" x="588" y="-242.5" font-family="Helvetica,sans-Serif" font-size="10.00"> mColorChan</text>
</g>
<!-- Node19 -->
<g id="node19" class="node">
<title>Node19</title>
<g id="a_node19"><a xlink:href="structJ2DColorChanInfo.html" target="_top" xlink:title=" ">
<polygon fill="white" stroke="#666666" points="296,-251 201,-251 201,-232 296,-232 296,-251"/>
<text text-anchor="middle" x="248.5" y="-239" font-family="Helvetica,sans-Serif" font-size="10.00">J2DColorChanInfo</text>
</a>
</g>
</g>
<!-- Node19&#45;&gt;Node18 -->
<g id="edge22" class="edge">
<title>Node19&#45;&gt;Node18</title>
<path fill="none" stroke="#9a32cd" stroke-dasharray="5,2" d="M307.7,-241.5C346.65,-241.5 396.84,-241.5 431.03,-241.5"/>
<polygon fill="#9a32cd" stroke="#9a32cd" points="307.78,-238 297.78,-241.5 307.78,-245 307.78,-238"/>
<text text-anchor="middle" x="351.5" y="-244.5" font-family="Helvetica,sans-Serif" font-size="10.00"> mColorChanInfo</text>
</g>
<!-- Node20 -->
<g id="node20" class="node">
<title>Node20</title>
<g id="a_node20"><a xlink:href="classJ2DTexGenBlock.html" target="_top" xlink:title=" ">
<polygon fill="white" stroke="#666666" points="750,-233 658,-233 658,-214 750,-214 750,-233"/>
<text text-anchor="middle" x="704" y="-221" font-family="Helvetica,sans-Serif" font-size="10.00">J2DTexGenBlock</text>
</a>
</g>
</g>
<!-- Node20&#45;&gt;Node14 -->
<g id="edge23" class="edge">
<title>Node20&#45;&gt;Node14</title>
<path fill="none" stroke="#9a32cd" stroke-dasharray="5,2" d="M761.87,-218.49C801.75,-214.97 853.71,-210.39 887.09,-207.45"/>
<polygon fill="#9a32cd" stroke="#9a32cd" points="761.6,-215 751.95,-219.36 762.22,-221.97 761.6,-215"/>
<text text-anchor="middle" x="820.5" y="-218.5" font-family="Helvetica,sans-Serif" font-size="10.00"> mTexGenBlock</text>
</g>
<!-- Node21 -->
<g id="node21" class="node">
<title>Node21</title>
<g id="a_node21"><a xlink:href="classJ2DTexCoord.html" target="_top" xlink:title=" ">
<polygon fill="white" stroke="#666666" points="508.5,-214 433.5,-214 433.5,-195 508.5,-195 508.5,-214"/>
<text text-anchor="middle" x="471" y="-202" font-family="Helvetica,sans-Serif" font-size="10.00">J2DTexCoord</text>
</a>
</g>
</g>
<!-- Node21&#45;&gt;Node20 -->
<g id="edge24" class="edge">
<title>Node21&#45;&gt;Node20</title>
<path fill="none" stroke="#9a32cd" stroke-dasharray="5,2" d="M520.3,-208.47C560.71,-211.8 617.95,-216.5 657.54,-219.76"/>
<polygon fill="#9a32cd" stroke="#9a32cd" points="520.62,-204.99 510.37,-207.66 520.05,-211.96 520.62,-204.99"/>
<text text-anchor="middle" x="588" y="-219.5" font-family="Helvetica,sans-Serif" font-size="10.00"> mTexGenCoord</text>
</g>
<!-- Node22 -->
<g id="node22" class="node">
<title>Node22</title>
<g id="a_node22"><a xlink:href="structJ2DTexCoordInfo.html" target="_top" xlink:title=" ">
<polygon fill="white" stroke="#666666" points="294.5,-214 202.5,-214 202.5,-195 294.5,-195 294.5,-214"/>
<text text-anchor="middle" x="248.5" y="-202" font-family="Helvetica,sans-Serif" font-size="10.00">J2DTexCoordInfo</text>
</a>
</g>
</g>
<!-- Node22&#45;&gt;Node21 -->
<g id="edge25" class="edge">
<title>Node22&#45;&gt;Node21</title>
<path fill="none" stroke="#9a32cd" stroke-dasharray="5,2" d="M306.35,-204.5C346.24,-204.5 398.44,-204.5 433.04,-204.5"/>
<polygon fill="#9a32cd" stroke="#9a32cd" points="306.43,-201 296.43,-204.5 306.43,-208 306.43,-201"/>
<text text-anchor="middle" x="351.5" y="-207.5" font-family="Helvetica,sans-Serif" font-size="10.00"> mTexCoordInfo</text>
</g>
<!-- Node23 -->
<g id="node23" class="node">
<title>Node23</title>
<g id="a_node23"><a xlink:href="classJ2DTexMtx.html" target="_top" xlink:title=" ">
<polygon fill="white" stroke="#666666" points="503.5,-177 438.5,-177 438.5,-158 503.5,-158 503.5,-177"/>
<text text-anchor="middle" x="471" y="-165" font-family="Helvetica,sans-Serif" font-size="10.00">J2DTexMtx</text>
</a>
</g>
</g>
<!-- Node23&#45;&gt;Node20 -->
<g id="edge26" class="edge">
<title>Node23&#45;&gt;Node20</title>
<path fill="none" stroke="#9a32cd" stroke-dasharray="5,2" d="M514.92,-171.71C545.68,-175.62 587.74,-182.82 623,-195.5 631.61,-198.6 632.55,-201.98 641,-205.5 648.24,-208.52 656.16,-211.23 663.84,-213.58"/>
<polygon fill="#9a32cd" stroke="#9a32cd" points="515.57,-168.26 505.22,-170.55 514.74,-175.21 515.57,-168.26"/>
<text text-anchor="middle" x="588" y="-198.5" font-family="Helvetica,sans-Serif" font-size="10.00"> mTexMtx</text>
</g>
<!-- Node24 -->
<g id="node24" class="node">
<title>Node24</title>
<g id="a_node24"><a xlink:href="structJ2DTexMtxInfo.html" target="_top" xlink:title=" ">
<polygon fill="white" stroke="#666666" points="289.5,-177 207.5,-177 207.5,-158 289.5,-158 289.5,-177"/>
<text text-anchor="middle" x="248.5" y="-165" font-family="Helvetica,sans-Serif" font-size="10.00">J2DTexMtxInfo</text>
</a>
</g>
</g>
<!-- Node24&#45;&gt;Node23 -->
<g id="edge27" class="edge">
<title>Node24&#45;&gt;Node23</title>
<path fill="none" stroke="#9a32cd" stroke-dasharray="5,2" d="M301.43,-167.5C343.79,-167.5 402.27,-167.5 438.04,-167.5"/>
<polygon fill="#9a32cd" stroke="#9a32cd" points="301.46,-164 291.46,-167.5 301.46,-171 301.46,-164"/>
<text text-anchor="middle" x="351.5" y="-170.5" font-family="Helvetica,sans-Serif" font-size="10.00"> mInfo</text>
</g>
<!-- Node25 -->
<g id="node25" class="node">
<title>Node25</title>
<g id="a_node25"><a xlink:href="structVec.html" target="_top" xlink:title=" ">
<polygon fill="white" stroke="#666666" points="68,-196 34,-196 34,-177 68,-177 68,-196"/>
<text text-anchor="middle" x="51" y="-184" font-family="Helvetica,sans-Serif" font-size="10.00">Vec</text>
</a>
</g>
</g>
<!-- Node25&#45;&gt;Node24 -->
<g id="edge28" class="edge">
<title>Node25&#45;&gt;Node24</title>
<path fill="none" stroke="#9a32cd" stroke-dasharray="5,2" d="M79.46,-183.83C112.71,-180.6 168.98,-175.13 207.16,-171.42"/>
<polygon fill="#9a32cd" stroke="#9a32cd" points="79.45,-180.32 69.84,-184.77 80.13,-187.28 79.45,-180.32"/>
<text text-anchor="middle" x="151.5" y="-182.5" font-family="Helvetica,sans-Serif" font-size="10.00"> mCenter</text>
</g>
<!-- Node26 -->
<g id="node26" class="node">
<title>Node26</title>
<g id="a_node26"><a xlink:href="structJ2DTextureSRTInfo.html" target="_top" xlink:title=" ">
<polygon fill="white" stroke="#666666" points="102,-159 0,-159 0,-140 102,-140 102,-159"/>
<text text-anchor="middle" x="51" y="-147" font-family="Helvetica,sans-Serif" font-size="10.00">J2DTextureSRTInfo</text>
</a>
</g>
</g>
<!-- Node26&#45;&gt;Node24 -->
<g id="edge29" class="edge">
<title>Node26&#45;&gt;Node24</title>
<path fill="none" stroke="#9a32cd" stroke-dasharray="5,2" d="M113.45,-149.06C135.46,-149.51 160.4,-150.73 183,-153.5 190.85,-154.46 199.15,-155.92 207.09,-157.54"/>
<polygon fill="#9a32cd" stroke="#9a32cd" points="113.81,-145.56 103.75,-148.91 113.7,-152.56 113.81,-145.56"/>
<text text-anchor="middle" x="151.5" y="-156.5" font-family="Helvetica,sans-Serif" font-size="10.00"> mTexSRTInfo</text>
</g>
<!-- Node27 -->
<g id="node27" class="node">
<title>Node27</title>
<g id="a_node27"><a xlink:href="structJ2DTevBlock.html" target="_top" xlink:title=" ">
<polygon fill="white" stroke="#666666" points="741.5,-196 666.5,-196 666.5,-177 741.5,-177 741.5,-196"/>
<text text-anchor="middle" x="704" y="-184" font-family="Helvetica,sans-Serif" font-size="10.00">J2DTevBlock</text>
</a>
</g>
</g>
<!-- Node27&#45;&gt;Node14 -->
<g id="edge30" class="edge">
<title>Node27&#45;&gt;Node14</title>
<path fill="none" stroke="#9a32cd" stroke-dasharray="5,2" d="M753.1,-184.91C782.86,-184.55 821.78,-185.23 856,-189.5 866.27,-190.78 877.29,-193.02 887.26,-195.37"/>
<polygon fill="#9a32cd" stroke="#9a32cd" points="753.22,-181.41 743.28,-185.07 753.34,-188.4 753.22,-181.41"/>
<text text-anchor="middle" x="820.5" y="-192.5" font-family="Helvetica,sans-Serif" font-size="10.00"> mTevBlock</text>
</g>
<!-- Node28 -->
<g id="node28" class="node">
<title>Node28</title>
<g id="a_node28"><a xlink:href="structJ2DIndBlock.html" target="_top" xlink:title=" ">
<polygon fill="white" stroke="#666666" points="740,-159 668,-159 668,-140 740,-140 740,-159"/>
<text text-anchor="middle" x="704" y="-147" font-family="Helvetica,sans-Serif" font-size="10.00">J2DIndBlock</text>
</a>
</g>
</g>
<!-- Node28&#45;&gt;Node14 -->
<g id="edge31" class="edge">
<title>Node28&#45;&gt;Node14</title>
<path fill="none" stroke="#9a32cd" stroke-dasharray="5,2" d="M751.64,-149.04C782.44,-150.31 823.04,-155.05 856,-169.5 865.54,-173.68 865.12,-179.05 874,-184.5 880.14,-188.27 887.12,-191.68 893.77,-194.57"/>
<polygon fill="#9a32cd" stroke="#9a32cd" points="751.97,-145.55 741.87,-148.76 751.76,-152.55 751.97,-145.55"/>
<text text-anchor="middle" x="820.5" y="-172.5" font-family="Helvetica,sans-Serif" font-size="10.00"> mIndBlock</text>
</g>
<!-- Node29 -->
<g id="node29" class="node">
<title>Node29</title>
<g id="a_node29"><a xlink:href="classJ2DPEBlock.html" target="_top" xlink:title=" ">
<polygon fill="white" stroke="#666666" points="739.5,-122 668.5,-122 668.5,-103 739.5,-103 739.5,-122"/>
<text text-anchor="middle" x="704" y="-110" font-family="Helvetica,sans-Serif" font-size="10.00">J2DPEBlock</text>
</a>
</g>
</g>
<!-- Node29&#45;&gt;Node14 -->
<g id="edge32" class="edge">
<title>Node29&#45;&gt;Node14</title>
<path fill="none" stroke="#9a32cd" stroke-dasharray="5,2" d="M750.94,-108.35C783.67,-107.9 826.85,-112.69 856,-136.5 873.65,-150.91 858.28,-168.01 874,-184.5 878,-188.7 883.03,-192.06 888.29,-194.74"/>
<polygon fill="#9a32cd" stroke="#9a32cd" points="751.24,-104.84 741.36,-108.66 751.47,-111.84 751.24,-104.84"/>
<text text-anchor="middle" x="820.5" y="-139.5" font-family="Helvetica,sans-Serif" font-size="10.00"> mPEBlock</text>
</g>
<!-- Node30 -->
<g id="node30" class="node">
<title>Node30</title>
<g id="a_node30"><a xlink:href="structJ2DAlphaComp.html" target="_top" xlink:title=" ">
<polygon fill="white" stroke="#666666" points="513,-131 429,-131 429,-112 513,-112 513,-131"/>
<text text-anchor="middle" x="471" y="-119" font-family="Helvetica,sans-Serif" font-size="10.00">J2DAlphaComp</text>
</a>
</g>
</g>
<!-- Node30&#45;&gt;Node29 -->
<g id="edge33" class="edge">
<title>Node30&#45;&gt;Node29</title>
<path fill="none" stroke="#9a32cd" stroke-dasharray="5,2" d="M524.63,-119.45C568.58,-117.74 630,-115.34 668.1,-113.86"/>
<polygon fill="#9a32cd" stroke="#9a32cd" points="524.67,-115.95 514.81,-119.83 524.94,-122.94 524.67,-115.95"/>
<text text-anchor="middle" x="588" y="-120.5" font-family="Helvetica,sans-Serif" font-size="10.00"> mAlphaComp</text>
</g>
<!-- Node31 -->
<g id="node31" class="node">
<title>Node31</title>
<g id="a_node31"><a xlink:href="structJ2DBlend.html" target="_top" xlink:title=" ">
<polygon fill="white" stroke="#666666" points="500.5,-94 441.5,-94 441.5,-75 500.5,-75 500.5,-94"/>
<text text-anchor="middle" x="471" y="-82" font-family="Helvetica,sans-Serif" font-size="10.00">J2DBlend</text>
</a>
</g>
</g>
<!-- Node31&#45;&gt;Node29 -->
<g id="edge34" class="edge">
<title>Node31&#45;&gt;Node29</title>
<path fill="none" stroke="#9a32cd" stroke-dasharray="5,2" d="M512.42,-88.3C542.86,-91.28 585.6,-95.72 623,-100.5 637.91,-102.41 654.33,-104.82 668.39,-106.97"/>
<polygon fill="#9a32cd" stroke="#9a32cd" points="512.79,-84.82 502.5,-87.34 512.11,-91.79 512.79,-84.82"/>
<text text-anchor="middle" x="588" y="-103.5" font-family="Helvetica,sans-Serif" font-size="10.00"> mBlend</text>
</g>
<!-- Node32 -->
<g id="node32" class="node">
<title>Node32</title>
<g id="a_node32"><a xlink:href="structJ2DBlendInfo.html" target="_top" xlink:title=" ">
<polygon fill="white" stroke="#666666" points="286,-94 211,-94 211,-75 286,-75 286,-94"/>
<text text-anchor="middle" x="248.5" y="-82" font-family="Helvetica,sans-Serif" font-size="10.00">J2DBlendInfo</text>
</a>
</g>
</g>
<!-- Node32&#45;&gt;Node31 -->
<g id="edge35" class="edge">
<title>Node32&#45;&gt;Node31</title>
<path fill="none" stroke="#9a32cd" stroke-dasharray="5,2" d="M297.65,-84.5C341.44,-84.5 404.62,-84.5 441.08,-84.5"/>
<polygon fill="#9a32cd" stroke="#9a32cd" points="297.92,-81 287.92,-84.5 297.92,-88 297.92,-81"/>
<text text-anchor="middle" x="351.5" y="-87.5" font-family="Helvetica,sans-Serif" font-size="10.00"> mBlendInfo</text>
</g>
<!-- Node33&#45;&gt;Node14 -->
<g id="edge36" class="edge">
<title>Node33&#45;&gt;Node14</title>
<path fill="none" stroke="#9a32cd" stroke-dasharray="5,2" d="M778.02,-340.33C804.51,-336.87 833.43,-329.27 856,-313.5 892.05,-288.31 911.14,-235.95 917.77,-214.25"/>
<polygon fill="#9a32cd" stroke="#9a32cd" points="777.9,-336.82 768.35,-341.41 778.68,-343.78 777.9,-336.82"/>
<text text-anchor="middle" x="820.5" y="-341.5" font-family="Helvetica,sans-Serif" font-size="10.00"> mAnmPointer</text>
</g>
<!-- Node34 -->
<g id="node34" class="node">
<title>Node34</title>
<g id="a_node34"><a xlink:href="structJ2DResReference.html" target="_top" xlink:title=" ">
<polygon fill="white" stroke="#666666" points="969,-135 874,-135 874,-116 969,-116 969,-135"/>
<text text-anchor="middle" x="921.5" y="-123" font-family="Helvetica,sans-Serif" font-size="10.00">J2DResReference</text>
</a>
</g>
</g>
<!-- Node34&#45;&gt;Node1 -->
<g id="edge38" class="edge">
<title>Node34&#45;&gt;Node1</title>
<path fill="none" stroke="#9a32cd" stroke-dasharray="5,2" d="M980.52,-126.23C1003.91,-128.36 1030.6,-133.18 1053,-143.5 1070.13,-151.39 1085.62,-167.23 1094.55,-177.59"/>
<polygon fill="#9a32cd" stroke="#9a32cd" points="981.08,-122.77 970.85,-125.51 980.56,-129.75 981.08,-122.77"/>
<text text-anchor="middle" x="1020" y="-157.5" font-family="Helvetica,sans-Serif" font-size="10.00"> mFontRes</text>
<text text-anchor="middle" x="1020" y="-146.5" font-family="Helvetica,sans-Serif" font-size="10.00">mTexRes</text>
</g>
<!-- Node35 -->
<g id="node35" class="node">
<title>Node35</title>
<g id="a_node35"><a xlink:href="structJUTNameTab.html" target="_top" xlink:title=" ">
<polygon fill="white" stroke="#666666" points="960.5,-68 882.5,-68 882.5,-49 960.5,-49 960.5,-68"/>
<text text-anchor="middle" x="921.5" y="-56" font-family="Helvetica,sans-Serif" font-size="10.00">JUTNameTab</text>
</a>
</g>
</g>
<!-- Node35&#45;&gt;Node1 -->
<g id="edge39" class="edge">
<title>Node35&#45;&gt;Node1</title>
<path fill="none" stroke="#9a32cd" stroke-dasharray="5,2" d="M971.72,-70.72C997.91,-79.03 1029.48,-92.1 1053,-111.5 1075.6,-130.13 1091.49,-161.81 1098.49,-177.74"/>
<polygon fill="#9a32cd" stroke="#9a32cd" points="972.89,-67.41 962.31,-67.88 970.87,-74.12 972.89,-67.41"/>
<text text-anchor="middle" x="1020" y="-114.5" font-family="Helvetica,sans-Serif" font-size="10.00"> mNameTable</text>
</g>
<!-- Node36 -->
<g id="node36" class="node">
<title>Node36</title>
<g id="a_node36"><a xlink:href="structResNTAB.html" target="_top" xlink:title=" ">
<polygon fill="white" stroke="#666666" points="734.5,-19 673.5,-19 673.5,0 734.5,0 734.5,-19"/>
<text text-anchor="middle" x="704" y="-7" font-family="Helvetica,sans-Serif" font-size="10.00">ResNTAB</text>
</a>
</g>
</g>
<!-- Node36&#45;&gt;Node35 -->
<g id="edge40" class="edge">
<title>Node36&#45;&gt;Node35</title>
<path fill="none" stroke="#9a32cd" stroke-dasharray="5,2" d="M745.8,-16.07C776.33,-21.3 819.03,-29.25 856,-38.5 867.49,-41.37 879.95,-45.09 890.83,-48.54"/>
<polygon fill="#9a32cd" stroke="#9a32cd" points="746.66,-12.67 736.22,-14.46 745.5,-19.57 746.66,-12.67"/>
<text text-anchor="middle" x="820.5" y="-41.5" font-family="Helvetica,sans-Serif" font-size="10.00"> mNameTable</text>
</g>
<!-- Node37 -->
<g id="node37" class="node">
<title>Node37</title>
<g id="a_node37"><a xlink:href="structResNTAB_1_1Entry.html" target="_top" xlink:title=" ">
<polygon fill="white" stroke="#666666" points="514.5,-19 427.5,-19 427.5,0 514.5,0 514.5,-19"/>
<text text-anchor="middle" x="471" y="-7" font-family="Helvetica,sans-Serif" font-size="10.00">ResNTAB::Entry</text>
</a>
</g>
</g>
<!-- Node37&#45;&gt;Node36 -->
<g id="edge41" class="edge">
<title>Node37&#45;&gt;Node36</title>
<path fill="none" stroke="#9a32cd" stroke-dasharray="5,2" d="M526.15,-9.5C572.02,-9.5 636.07,-9.5 673.17,-9.5"/>
<polygon fill="#9a32cd" stroke="#9a32cd" points="526.42,-6 516.42,-9.5 526.42,-13 526.42,-6"/>
<text text-anchor="middle" x="588" y="-12.5" font-family="Helvetica,sans-Serif" font-size="10.00"> mEntries</text>
</g>
</g>
</svg>
