<?xml version="1.0" encoding="UTF-8" standalone="no"?>
<!DOCTYPE svg PUBLIC "-//W3C//DTD SVG 1.1//EN"
 "http://www.w3.org/Graphics/SVG/1.1/DTD/svg11.dtd">
<!-- Generated by graphviz version 2.50.0 (20220203.2022)
 -->
<!-- Title: cBgS_LinChk Pages: 1 -->
<svg width="431pt" height="298pt"
 viewBox="0.00 0.00 431.00 298.00" xmlns="http://www.w3.org/2000/svg" xmlns:xlink="http://www.w3.org/1999/xlink">
<g id="graph0" class="graph" transform="scale(1 1) rotate(0) translate(4 294)">
<title>cBgS_LinChk</title>
<polygon fill="white" stroke="transparent" points="-4,4 -4,-294 427,-294 427,4 -4,4"/>
<!-- Node1 -->
<g id="node1" class="node">
<title>Node1</title>
<g id="a_node1"><a xlink:title=" ">
<polygon fill="#bfbfbf" stroke="black" points="219.5,-0.5 219.5,-19.5 296.5,-19.5 296.5,-0.5 219.5,-0.5"/>
<text text-anchor="middle" x="258" y="-7.5" font-family="Helvetica,sans-Serif" font-size="10.00">cBgS_LinChk</text>
</a>
</g>
</g>
<!-- Node2 -->
<g id="node2" class="node">
<title>Node2</title>
<g id="a_node2"><a xlink:href="classcBgS__Chk.html" target="_top" xlink:title=" ">
<polygon fill="white" stroke="black" points="98.5,-67.5 98.5,-86.5 161.5,-86.5 161.5,-67.5 98.5,-67.5"/>
<text text-anchor="middle" x="130" y="-74.5" font-family="Helvetica,sans-Serif" font-size="10.00">cBgS_Chk</text>
</a>
</g>
</g>
<!-- Node2&#45;&gt;Node1 -->
<g id="edge1" class="edge">
<title>Node2&#45;&gt;Node1</title>
<path fill="none" stroke="midnightblue" d="M156.05,-62.77C181.4,-49.9 219.19,-30.71 240.93,-19.67"/>
<polygon fill="midnightblue" stroke="midnightblue" points="154.33,-59.72 147,-67.37 157.5,-65.96 154.33,-59.72"/>
</g>
<!-- Node3 -->
<g id="node3" class="node">
<title>Node3</title>
<g id="a_node3"><a xlink:href="structcBgS__PolyPassChk.html" target="_top" xlink:title=" ">
<polygon fill="white" stroke="black" points="0,-179.5 0,-198.5 104,-198.5 104,-179.5 0,-179.5"/>
<text text-anchor="middle" x="52" y="-186.5" font-family="Helvetica,sans-Serif" font-size="10.00">cBgS_PolyPassChk</text>
</a>
</g>
</g>
<!-- Node3&#45;&gt;Node2 -->
<g id="edge2" class="edge">
<title>Node3&#45;&gt;Node2</title>
<path fill="none" stroke="#9a32cd" stroke-dasharray="5,2" d="M50.58,-169.13C50.22,-150.82 52.5,-123.22 67,-105 74.78,-95.22 86.78,-88.93 98.22,-84.9"/>
<polygon fill="#9a32cd" stroke="#9a32cd" points="47.09,-169.33 51.06,-179.16 54.08,-169 47.09,-169.33"/>
<text text-anchor="middle" x="102" y="-113.5" font-family="Helvetica,sans-Serif" font-size="10.00"> mPolyPassChk</text>
</g>
<!-- Node4 -->
<g id="node4" class="node">
<title>Node4</title>
<g id="a_node4"><a xlink:href="structcBgS__GrpPassChk.html" target="_top" xlink:title=" ">
<polygon fill="white" stroke="black" points="122.5,-179.5 122.5,-198.5 223.5,-198.5 223.5,-179.5 122.5,-179.5"/>
<text text-anchor="middle" x="173" y="-186.5" font-family="Helvetica,sans-Serif" font-size="10.00">cBgS_GrpPassChk</text>
</a>
</g>
</g>
<!-- Node4&#45;&gt;Node2 -->
<g id="edge3" class="edge">
<title>Node4&#45;&gt;Node2</title>
<path fill="none" stroke="#9a32cd" stroke-dasharray="5,2" d="M165.96,-170C156.58,-146 140.35,-104.47 133.36,-86.59"/>
<polygon fill="#9a32cd" stroke="#9a32cd" points="162.73,-171.33 169.63,-179.37 169.24,-168.78 162.73,-171.33"/>
<text text-anchor="middle" x="181.5" y="-113.5" font-family="Helvetica,sans-Serif" font-size="10.00"> mGrpPassChk</text>
</g>
<!-- Node5 -->
<g id="node5" class="node">
<title>Node5</title>
<g id="a_node5"><a xlink:href="structcBgS__PolyInfo.html" target="_top" xlink:title=" ">
<polygon fill="white" stroke="black" points="179.5,-67.5 179.5,-86.5 260.5,-86.5 260.5,-67.5 179.5,-67.5"/>
<text text-anchor="middle" x="220" y="-74.5" font-family="Helvetica,sans-Serif" font-size="10.00">cBgS_PolyInfo</text>
</a>
</g>
</g>
<!-- Node5&#45;&gt;Node1 -->
<g id="edge4" class="edge">
<title>Node5&#45;&gt;Node1</title>
<path fill="none" stroke="midnightblue" d="M230.21,-58.53C237.57,-45.95 247.18,-29.51 252.96,-19.63"/>
<polygon fill="midnightblue" stroke="midnightblue" points="227.15,-56.83 225.12,-67.23 233.19,-60.37 227.15,-56.83"/>
</g>
<!-- Node6 -->
<g id="node6" class="node">
<title>Node6</title>
<g id="a_node6"><a xlink:href="structcM3dGLin.html" target="_top" xlink:title=" ">
<polygon fill="white" stroke="black" points="361,-67.5 361,-86.5 423,-86.5 423,-67.5 361,-67.5"/>
<text text-anchor="middle" x="392" y="-74.5" font-family="Helvetica,sans-Serif" font-size="10.00">cM3dGLin</text>
</a>
</g>
</g>
<!-- Node6&#45;&gt;Node1 -->
<g id="edge5" class="edge">
<title>Node6&#45;&gt;Node1</title>
<path fill="none" stroke="#9a32cd" stroke-dasharray="5,2" d="M365.08,-62.94C338.54,-50.07 298.73,-30.76 275.87,-19.67"/>
<polygon fill="#9a32cd" stroke="#9a32cd" points="363.68,-66.15 374.21,-67.37 366.74,-59.85 363.68,-66.15"/>
<text text-anchor="middle" x="348.5" y="-41" font-family="Helvetica,sans-Serif" font-size="10.00"> mLinP</text>
</g>
<!-- Node7 -->
<g id="node7" class="node">
<title>Node7</title>
<g id="a_node7"><a xlink:href="structcXyz.html" target="_top" xlink:title=" ">
<polygon fill="white" stroke="black" points="310,-179.5 310,-198.5 348,-198.5 348,-179.5 310,-179.5"/>
<text text-anchor="middle" x="329" y="-186.5" font-family="Helvetica,sans-Serif" font-size="10.00">cXyz</text>
</a>
</g>
</g>
<!-- Node7&#45;&gt;Node1 -->
<g id="edge9" class="edge">
<title>Node7&#45;&gt;Node1</title>
<path fill="none" stroke="#9a32cd" stroke-dasharray="5,2" d="M321.71,-169.84C306.67,-132.32 272.63,-47.48 261.56,-19.87"/>
<polygon fill="#9a32cd" stroke="#9a32cd" points="318.6,-171.48 325.58,-179.46 325.1,-168.88 318.6,-171.48"/>
<text text-anchor="middle" x="310" y="-74.5" font-family="Helvetica,sans-Serif" font-size="10.00"> field_0x40</text>
</g>
<!-- Node7&#45;&gt;Node6 -->
<g id="edge6" class="edge">
<title>Node7&#45;&gt;Node6</title>
<path fill="none" stroke="#9a32cd" stroke-dasharray="5,2" d="M338.94,-170.64C352.63,-146.74 376.75,-104.63 387.08,-86.59"/>
<polygon fill="#9a32cd" stroke="#9a32cd" points="335.88,-168.95 333.94,-179.37 341.95,-172.43 335.88,-168.95"/>
<text text-anchor="middle" x="390" y="-119" font-family="Helvetica,sans-Serif" font-size="10.00"> mEnd</text>
<text text-anchor="middle" x="390" y="-108" font-family="Helvetica,sans-Serif" font-size="10.00">mStart</text>
</g>
<!-- Node7&#45;&gt;Node7 -->
<g id="edge8" class="edge">
<title>Node7&#45;&gt;Node7</title>
<path fill="none" stroke="#9a32cd" stroke-dasharray="5,2" d="M351.87,-200.62C359.7,-200.71 366,-196.83 366,-189 366,-177.98 353.53,-174.8 341.89,-179.44"/>
<polygon fill="#9a32cd" stroke="#9a32cd" points="352.4,-197.16 341.89,-198.56 350.98,-204.01 352.4,-197.16"/>
<text text-anchor="middle" x="387.5" y="-225" font-family="Helvetica,sans-Serif" font-size="10.00"> BaseX</text>
<text text-anchor="middle" x="387.5" y="-214" font-family="Helvetica,sans-Serif" font-size="10.00">BaseXY</text>
<text text-anchor="middle" x="387.5" y="-203" font-family="Helvetica,sans-Serif" font-size="10.00">BaseXYZ</text>
<text text-anchor="middle" x="387.5" y="-192" font-family="Helvetica,sans-Serif" font-size="10.00">BaseXZ</text>
<text text-anchor="middle" x="387.5" y="-181" font-family="Helvetica,sans-Serif" font-size="10.00">BaseY</text>
<text text-anchor="middle" x="387.5" y="-170" font-family="Helvetica,sans-Serif" font-size="10.00">BaseYZ</text>
<text text-anchor="middle" x="387.5" y="-159" font-family="Helvetica,sans-Serif" font-size="10.00">BaseZ</text>
<text text-anchor="middle" x="387.5" y="-148" font-family="Helvetica,sans-Serif" font-size="10.00">Zero</text>
</g>
<!-- Node8 -->
<g id="node8" class="node">
<title>Node8</title>
<g id="a_node8"><a xlink:href="structVec.html" target="_top" xlink:title=" ">
<polygon fill="white" stroke="black" points="312,-270.5 312,-289.5 346,-289.5 346,-270.5 312,-270.5"/>
<text text-anchor="middle" x="329" y="-277.5" font-family="Helvetica,sans-Serif" font-size="10.00">Vec</text>
</a>
</g>
</g>
<!-- Node8&#45;&gt;Node7 -->
<g id="edge7" class="edge">
<title>Node8&#45;&gt;Node7</title>
<path fill="none" stroke="midnightblue" d="M329,-260.35C329,-241.38 329,-212.83 329,-198.64"/>
<polygon fill="midnightblue" stroke="midnightblue" points="325.5,-260.47 329,-270.47 332.5,-260.47 325.5,-260.47"/>
</g>
</g>
</svg>
