<?xml version="1.0" encoding="UTF-8" standalone="no"?>
<!DOCTYPE svg PUBLIC "-//W3C//DTD SVG 1.1//EN"
 "http://www.w3.org/Graphics/SVG/1.1/DTD/svg11.dtd">
<!-- Generated by graphviz version 7.0.5 (20221223.1930)
 -->
<!-- Title: JSULink&lt; A0 &gt; Pages: 1 -->
<svg width="384pt" height="192pt"
 viewBox="0.00 0.00 384.00 192.00" xmlns="http://www.w3.org/2000/svg" xmlns:xlink="http://www.w3.org/1999/xlink">
<g id="graph0" class="graph" transform="scale(1 1) rotate(0) translate(4 188)">
<title>JSULink&lt; A0 &gt;</title>
<!-- Node1 -->
<g id="node1" class="node">
<title>Node1</title>
<g id="a_node1"><a xlink:title=" ">
<polygon fill="#999999" stroke="#666666" points="229.5,-129 146.5,-129 146.5,-110 229.5,-110 229.5,-129"/>
<text text-anchor="middle" x="188" y="-117" font-family="Helvetica,sans-Serif" font-size="10.00">JSULink&lt; A0 &gt;</text>
</a>
</g>
</g>
<!-- Node3 -->
<g id="node3" class="node">
<title>Node3</title>
<g id="a_node3"><a xlink:href="classJSUTree.html" target="_top" xlink:title=" ">
<polygon fill="white" stroke="#666666" points="114,-74 0,-74 0,-55 114,-55 114,-74"/>
<text text-anchor="middle" x="57" y="-62" font-family="Helvetica,sans-Serif" font-size="10.00">JSUTree&lt; JASHeap &gt;</text>
</a>
</g>
</g>
<!-- Node1&#45;&gt;Node3 -->
<g id="edge2" class="edge">
<title>Node1&#45;&gt;Node3</title>
<path fill="none" stroke="#63b8ff" d="M155.11,-105.19C131.27,-95.55 99.7,-82.78 78.89,-74.36"/>
<polygon fill="#63b8ff" stroke="#63b8ff" points="153.79,-108.44 164.37,-108.94 156.42,-101.95 153.79,-108.44"/>
</g>
<!-- Node5 -->
<g id="node5" class="node">
<title>Node5</title>
<g id="a_node5"><a xlink:href="classJSUTree.html" target="_top" xlink:title=" ">
<polygon fill="white" stroke="#666666" points="244,-74 132,-74 132,-55 244,-55 244,-74"/>
<text text-anchor="middle" x="188" y="-62" font-family="Helvetica,sans-Serif" font-size="10.00">JSUTree&lt; J2DPane &gt;</text>
</a>
</g>
</g>
<!-- Node1&#45;&gt;Node5 -->
<g id="edge4" class="edge">
<title>Node1&#45;&gt;Node5</title>
<path fill="none" stroke="#63b8ff" d="M188,-98.35C188,-90.1 188,-80.97 188,-74.44"/>
<polygon fill="#63b8ff" stroke="#63b8ff" points="184.5,-98.23 188,-108.23 191.5,-98.23 184.5,-98.23"/>
</g>
<!-- Node6 -->
<g id="node6" class="node">
<title>Node6</title>
<g id="a_node6"><a xlink:href="classJSUTree.html" target="_top" xlink:title=" ">
<polygon fill="white" stroke="#666666" points="376,-74 262,-74 262,-55 376,-55 376,-74"/>
<text text-anchor="middle" x="319" y="-62" font-family="Helvetica,sans-Serif" font-size="10.00">JSUTree&lt; JKRHeap &gt;</text>
</a>
</g>
</g>
<!-- Node1&#45;&gt;Node6 -->
<g id="edge5" class="edge">
<title>Node1&#45;&gt;Node6</title>
<path fill="none" stroke="#63b8ff" d="M220.89,-105.19C244.73,-95.55 276.3,-82.78 297.11,-74.36"/>
<polygon fill="#63b8ff" stroke="#63b8ff" points="219.58,-101.95 211.63,-108.94 222.21,-108.44 219.58,-101.95"/>
</g>
<!-- Node2 -->
<g id="node2" class="node">
<title>Node2</title>
<g id="a_node2"><a xlink:href="structJSUPtrLink.html" target="_top" xlink:title=" ">
<polygon fill="white" stroke="#666666" points="222,-184 154,-184 154,-165 222,-165 222,-184"/>
<text text-anchor="middle" x="188" y="-172" font-family="Helvetica,sans-Serif" font-size="10.00">JSUPtrLink</text>
</a>
</g>
</g>
<!-- Node2&#45;&gt;Node1 -->
<g id="edge1" class="edge">
<title>Node2&#45;&gt;Node1</title>
<path fill="none" stroke="#63b8ff" d="M188,-153.35C188,-145.1 188,-135.97 188,-129.44"/>
<polygon fill="#63b8ff" stroke="#63b8ff" points="184.5,-153.23 188,-163.23 191.5,-153.23 184.5,-153.23"/>
</g>
<!-- Node4 -->
<g id="node4" class="node">
<title>Node4</title>
<g id="a_node4"><a xlink:href="structJASHeap.html" target="_top" xlink:title=" ">
<polygon fill="white" stroke="#666666" points="86.5,-19 27.5,-19 27.5,0 86.5,0 86.5,-19"/>
<text text-anchor="middle" x="57" y="-7" font-family="Helvetica,sans-Serif" font-size="10.00">JASHeap</text>
</a>
</g>
</g>
<!-- Node3&#45;&gt;Node4 -->
<g id="edge3" class="edge">
<title>Node3&#45;&gt;Node4</title>
<path fill="none" stroke="#63b8ff" d="M57,-43.35C57,-35.1 57,-25.97 57,-19.44"/>
<polygon fill="#63b8ff" stroke="#63b8ff" points="53.5,-43.23 57,-53.23 60.5,-43.23 53.5,-43.23"/>
</g>
</g>
</svg>
