<?xml version="1.0" encoding="UTF-8" standalone="no"?>
<!DOCTYPE svg PUBLIC "-//W3C//DTD SVG 1.1//EN"
 "http://www.w3.org/Graphics/SVG/1.1/DTD/svg11.dtd">
<!-- Generated by graphviz version 2.44.0 ()
 -->
<!-- Title: dKankyo_vrkumo_Packet Pages: 1 -->
<svg width="295pt" height="300pt"
 viewBox="0.00 0.00 294.50 300.00" xmlns="http://www.w3.org/2000/svg" xmlns:xlink="http://www.w3.org/1999/xlink">
<g id="graph0" class="graph" transform="scale(1 1) rotate(0) translate(4 296)">
<title>dKankyo_vrkumo_Packet</title>
<polygon fill="white" stroke="transparent" points="-4,4 -4,-296 290.5,-296 290.5,4 -4,4"/>
<!-- Node1 -->
<g id="node1" class="node">
<title>Node1</title>
<g id="a_node1"><a xlink:title=" ">
<polygon fill="#bfbfbf" stroke="black" points="54.5,-0.5 54.5,-19.5 182.5,-19.5 182.5,-0.5 54.5,-0.5"/>
<text text-anchor="middle" x="118.5" y="-7.5" font-family="Helvetica,sans-Serif" font-size="10.00">dKankyo_vrkumo_Packet</text>
</a>
</g>
</g>
<!-- Node2 -->
<g id="node2" class="node">
<title>Node2</title>
<g id="a_node2"><a xlink:href="structJ3DPacket.html" target="_top" xlink:title=" ">
<polygon fill="white" stroke="black" points="0,-68.5 0,-87.5 65,-87.5 65,-68.5 0,-68.5"/>
<text text-anchor="middle" x="32.5" y="-75.5" font-family="Helvetica,sans-Serif" font-size="10.00">J3DPacket</text>
</a>
</g>
</g>
<!-- Node2&#45;&gt;Node1 -->
<g id="edge1" class="edge">
<title>Node2&#45;&gt;Node1</title>
<path fill="none" stroke="midnightblue" d="M51.92,-62.1C68.98,-49 93.22,-30.4 107.25,-19.63"/>
<polygon fill="midnightblue" stroke="midnightblue" points="49.55,-59.51 43.74,-68.37 53.81,-65.06 49.55,-59.51"/>
</g>
<!-- Node2&#45;&gt;Node2 -->
<g id="edge2" class="edge">
<title>Node2&#45;&gt;Node2</title>
<path fill="none" stroke="#9a32cd" stroke-dasharray="5,2" d="M75.14,-83.38C79.91,-82.37 83,-80.57 83,-78 83,-73.88 75.1,-71.76 65.04,-71.63"/>
<polygon fill="#9a32cd" stroke="#9a32cd" points="74.66,-79.91 65.04,-84.37 75.34,-86.88 74.66,-79.91"/>
<text text-anchor="middle" x="115" y="-81" font-family="Helvetica,sans-Serif" font-size="10.00"> mpFirstChild</text>
<text text-anchor="middle" x="115" y="-70" font-family="Helvetica,sans-Serif" font-size="10.00">mpNextSibling</text>
</g>
<!-- Node3 -->
<g id="node3" class="node">
<title>Node3</title>
<g id="a_node3"><a xlink:href="structVRKUMO__EFF.html" target="_top" xlink:title=" ">
<polygon fill="white" stroke="black" points="165,-68.5 165,-87.5 248,-87.5 248,-68.5 165,-68.5"/>
<text text-anchor="middle" x="206.5" y="-75.5" font-family="Helvetica,sans-Serif" font-size="10.00">VRKUMO_EFF</text>
</a>
</g>
</g>
<!-- Node3&#45;&gt;Node1 -->
<g id="edge3" class="edge">
<title>Node3&#45;&gt;Node1</title>
<path fill="none" stroke="#9a32cd" stroke-dasharray="5,2" d="M186.63,-62.1C169.17,-49 144.37,-30.4 130.01,-19.63"/>
<polygon fill="#9a32cd" stroke="#9a32cd" points="184.9,-65.17 195,-68.37 189.1,-59.57 184.9,-65.17"/>
<text text-anchor="middle" x="190.5" y="-41" font-family="Helvetica,sans-Serif" font-size="10.00"> field_0x18</text>
</g>
<!-- Node4 -->
<g id="node4" class="node">
<title>Node4</title>
<g id="a_node4"><a xlink:href="structcXyz.html" target="_top" xlink:title=" ">
<polygon fill="white" stroke="black" points="187.5,-181.5 187.5,-200.5 225.5,-200.5 225.5,-181.5 187.5,-181.5"/>
<text text-anchor="middle" x="206.5" y="-188.5" font-family="Helvetica,sans-Serif" font-size="10.00">cXyz</text>
</a>
</g>
</g>
<!-- Node4&#45;&gt;Node3 -->
<g id="edge4" class="edge">
<title>Node4&#45;&gt;Node3</title>
<path fill="none" stroke="#9a32cd" stroke-dasharray="5,2" d="M206.5,-171.18C206.5,-146.87 206.5,-105.55 206.5,-87.67"/>
<polygon fill="#9a32cd" stroke="#9a32cd" points="203,-171.29 206.5,-181.29 210,-171.29 203,-171.29"/>
<text text-anchor="middle" x="229.5" y="-121" font-family="Helvetica,sans-Serif" font-size="10.00"> field_0x04</text>
<text text-anchor="middle" x="229.5" y="-110" font-family="Helvetica,sans-Serif" font-size="10.00">field_0x10</text>
</g>
<!-- Node4&#45;&gt;Node4 -->
<g id="edge6" class="edge">
<title>Node4&#45;&gt;Node4</title>
<path fill="none" stroke="#9a32cd" stroke-dasharray="5,2" d="M229.37,-202.62C237.2,-202.71 243.5,-198.83 243.5,-191 243.5,-179.98 231.03,-176.8 219.39,-181.44"/>
<polygon fill="#9a32cd" stroke="#9a32cd" points="229.9,-199.16 219.39,-200.56 228.48,-206.01 229.9,-199.16"/>
<text text-anchor="middle" x="265" y="-227" font-family="Helvetica,sans-Serif" font-size="10.00"> BaseX</text>
<text text-anchor="middle" x="265" y="-216" font-family="Helvetica,sans-Serif" font-size="10.00">BaseXY</text>
<text text-anchor="middle" x="265" y="-205" font-family="Helvetica,sans-Serif" font-size="10.00">BaseXYZ</text>
<text text-anchor="middle" x="265" y="-194" font-family="Helvetica,sans-Serif" font-size="10.00">BaseXZ</text>
<text text-anchor="middle" x="265" y="-183" font-family="Helvetica,sans-Serif" font-size="10.00">BaseY</text>
<text text-anchor="middle" x="265" y="-172" font-family="Helvetica,sans-Serif" font-size="10.00">BaseYZ</text>
<text text-anchor="middle" x="265" y="-161" font-family="Helvetica,sans-Serif" font-size="10.00">BaseZ</text>
<text text-anchor="middle" x="265" y="-150" font-family="Helvetica,sans-Serif" font-size="10.00">Zero</text>
</g>
<!-- Node5 -->
<g id="node5" class="node">
<title>Node5</title>
<g id="a_node5"><a xlink:href="structVec.html" target="_top" xlink:title=" ">
<polygon fill="white" stroke="black" points="189.5,-272.5 189.5,-291.5 223.5,-291.5 223.5,-272.5 189.5,-272.5"/>
<text text-anchor="middle" x="206.5" y="-279.5" font-family="Helvetica,sans-Serif" font-size="10.00">Vec</text>
</a>
</g>
</g>
<!-- Node5&#45;&gt;Node4 -->
<g id="edge5" class="edge">
<title>Node5&#45;&gt;Node4</title>
<path fill="none" stroke="midnightblue" d="M206.5,-262.35C206.5,-243.38 206.5,-214.83 206.5,-200.64"/>
<polygon fill="midnightblue" stroke="midnightblue" points="203,-262.47 206.5,-272.47 210,-262.47 203,-262.47"/>
</g>
</g>
</svg>
