<?xml version="1.0" encoding="UTF-8" standalone="no"?>
<!DOCTYPE svg PUBLIC "-//W3C//DTD SVG 1.1//EN"
 "http://www.w3.org/Graphics/SVG/1.1/DTD/svg11.dtd">
<!-- Generated by graphviz version 7.0.4 (20221203.1631)
 -->
<!-- Title: JStudio_JAudio2::TCreateObject Pages: 1 -->
<svg width="351pt" height="173pt"
 viewBox="0.00 0.00 351.00 173.00" xmlns="http://www.w3.org/2000/svg" xmlns:xlink="http://www.w3.org/1999/xlink">
<g id="graph0" class="graph" transform="scale(1 1) rotate(0) translate(4 169)">
<title>JStudio_JAudio2::TCreateObject</title>
<!-- Node1 -->
<g id="node1" class="node">
<title>Node1</title>
<g id="a_node1"><a xlink:title=" ">
<polygon fill="#999999" stroke="#666666" points="246.5,-30 117.5,-30 117.5,0 246.5,0 246.5,-30"/>
<text text-anchor="start" x="125.5" y="-18" font-family="Helvetica,sans-Serif" font-size="10.00">JStudio_JAudio2::TCreate</text>
<text text-anchor="middle" x="182" y="-7" font-family="Helvetica,sans-Serif" font-size="10.00">Object</text>
</a>
</g>
</g>
<!-- Node2 -->
<g id="node2" class="node">
<title>Node2</title>
<g id="a_node2"><a xlink:href="structJStudio_1_1TCreateObject.html" target="_top" xlink:title=" ">
<polygon fill="white" stroke="#666666" points="119.5,-96 2.5,-96 2.5,-77 119.5,-77 119.5,-96"/>
<text text-anchor="middle" x="61" y="-84" font-family="Helvetica,sans-Serif" font-size="10.00">JStudio::TCreateObject</text>
</a>
</g>
</g>
<!-- Node2&#45;&gt;Node1 -->
<g id="edge1" class="edge">
<title>Node2&#45;&gt;Node1</title>
<path fill="none" stroke="#63b8ff" d="M86.06,-71.11C106.89,-59.14 136.38,-42.21 157.15,-30.27"/>
<polygon fill="#63b8ff" stroke="#63b8ff" points="84.57,-67.93 77.64,-75.94 88.05,-74 84.57,-67.93"/>
</g>
<!-- Node3 -->
<g id="node3" class="node">
<title>Node3</title>
<g id="a_node3"><a xlink:href="structJGadget_1_1TLinkListNode.html" target="_top" xlink:title=" ">
<polygon fill="white" stroke="#666666" points="122,-163.5 0,-163.5 0,-144.5 122,-144.5 122,-163.5"/>
<text text-anchor="middle" x="61" y="-151.5" font-family="Helvetica,sans-Serif" font-size="10.00">JGadget::TLinkListNode</text>
</a>
</g>
</g>
<!-- Node3&#45;&gt;Node2 -->
<g id="edge2" class="edge">
<title>Node3&#45;&gt;Node2</title>
<path fill="none" stroke="#9a32cd" stroke-dasharray="5,2" d="M61,-132.74C61,-120.48 61,-105.47 61,-96.19"/>
<polygon fill="#9a32cd" stroke="#9a32cd" points="57.5,-132.65 61,-142.65 64.5,-132.65 57.5,-132.65"/>
<text text-anchor="middle" x="78" y="-117" font-family="Helvetica,sans-Serif" font-size="10.00"> mNode</text>
</g>
<!-- Node3&#45;&gt;Node3 -->
<g id="edge3" class="edge">
<title>Node3&#45;&gt;Node3</title>
<path fill="none" stroke="#9a32cd" stroke-dasharray="5,2" d="M133.51,-158.36C137.58,-157.3 140,-155.85 140,-154 140,-150.8 132.75,-148.79 122.28,-147.96"/>
<polygon fill="#9a32cd" stroke="#9a32cd" points="133.15,-154.87 123.78,-159.82 134.18,-161.8 133.15,-154.87"/>
<text text-anchor="middle" x="155.5" y="-157" font-family="Helvetica,sans-Serif" font-size="10.00"> mNext</text>
<text text-anchor="middle" x="155.5" y="-146" font-family="Helvetica,sans-Serif" font-size="10.00">mPrev</text>
</g>
<!-- Node4 -->
<g id="node4" class="node">
<title>Node4</title>
<g id="a_node4"><a xlink:href="structJAISoundStarter.html" target="_top" xlink:title=" ">
<polygon fill="white" stroke="#666666" points="226.5,-96 137.5,-96 137.5,-77 226.5,-77 226.5,-96"/>
<text text-anchor="middle" x="182" y="-84" font-family="Helvetica,sans-Serif" font-size="10.00">JAISoundStarter</text>
</a>
</g>
</g>
<!-- Node4&#45;&gt;Node1 -->
<g id="edge4" class="edge">
<title>Node4&#45;&gt;Node1</title>
<path fill="none" stroke="#9a32cd" stroke-dasharray="5,2" d="M182,-65.39C182,-54.15 182,-40.41 182,-30.27"/>
<polygon fill="#9a32cd" stroke="#9a32cd" points="178.5,-65.18 182,-75.18 185.5,-65.18 178.5,-65.18"/>
<text text-anchor="middle" x="224.5" y="-51" font-family="Helvetica,sans-Serif" font-size="10.00"> pJAISoundStarter_</text>
</g>
<!-- Node5 -->
<g id="node5" class="node">
<title>Node5</title>
<g id="a_node5"><a xlink:href="structJStage_1_1TSystem.html" target="_top" xlink:title=" ">
<polygon fill="white" stroke="#666666" points="335.5,-96 244.5,-96 244.5,-77 335.5,-77 335.5,-96"/>
<text text-anchor="middle" x="290" y="-84" font-family="Helvetica,sans-Serif" font-size="10.00">JStage::TSystem</text>
</a>
</g>
</g>
<!-- Node5&#45;&gt;Node1 -->
<g id="edge5" class="edge">
<title>Node5&#45;&gt;Node1</title>
<path fill="none" stroke="#9a32cd" stroke-dasharray="5,2" d="M282.02,-66.34C278.52,-59.8 273.85,-52.91 268,-48 259.21,-40.63 248.57,-34.87 237.8,-30.4"/>
<polygon fill="#9a32cd" stroke="#9a32cd" points="278.76,-67.65 286.17,-75.22 285.1,-64.68 278.76,-67.65"/>
<text text-anchor="middle" x="310" y="-51" font-family="Helvetica,sans-Serif" font-size="10.00"> pJSGSystem_</text>
</g>
<!-- Node6 -->
<g id="node6" class="node">
<title>Node6</title>
<g id="a_node6"><a xlink:href="structJStage_1_1TObject.html" target="_top" xlink:title=" ">
<polygon fill="white" stroke="#666666" points="333,-163.5 247,-163.5 247,-144.5 333,-144.5 333,-163.5"/>
<text text-anchor="middle" x="290" y="-151.5" font-family="Helvetica,sans-Serif" font-size="10.00">JStage::TObject</text>
</a>
</g>
</g>
<!-- Node6&#45;&gt;Node5 -->
<g id="edge6" class="edge">
<title>Node6&#45;&gt;Node5</title>
<path fill="none" stroke="#63b8ff" d="M290,-132.74C290,-120.48 290,-105.47 290,-96.19"/>
<polygon fill="#63b8ff" stroke="#63b8ff" points="286.5,-132.65 290,-142.65 293.5,-132.65 286.5,-132.65"/>
</g>
</g>
</svg>
