<?xml version="1.0" encoding="UTF-8" standalone="no"?>
<!DOCTYPE svg PUBLIC "-//W3C//DTD SVG 1.1//EN"
 "http://www.w3.org/Graphics/SVG/1.1/DTD/svg11.dtd">
<!-- Generated by graphviz version 7.0.4 (20221203.1631)
 -->
<!-- Title: Z2SpeechMgr2 Pages: 1 -->
<svg width="973pt" height="431pt"
 viewBox="0.00 0.00 973.00 431.00" xmlns="http://www.w3.org/2000/svg" xmlns:xlink="http://www.w3.org/1999/xlink">
<g id="graph0" class="graph" transform="scale(1 1) rotate(0) translate(4 427)">
<title>Z2SpeechMgr2</title>
<!-- Node1 -->
<g id="node1" class="node">
<title>Node1</title>
<g id="a_node1"><a xlink:title=" ">
<polygon fill="#999999" stroke="#666666" points="965,-388 882,-388 882,-369 965,-369 965,-388"/>
<text text-anchor="middle" x="923.5" y="-376" font-family="Helvetica,sans-Serif" font-size="10.00">Z2SpeechMgr2</text>
</a>
</g>
</g>
<!-- Node2 -->
<g id="node2" class="node">
<title>Node2</title>
<g id="a_node2"><a xlink:href="structJAISoundHandle.html" target="_top" xlink:title=" ">
<polygon fill="white" stroke="#666666" points="785.5,-309 695.5,-309 695.5,-290 785.5,-290 785.5,-309"/>
<text text-anchor="middle" x="740.5" y="-297" font-family="Helvetica,sans-Serif" font-size="10.00">JAISoundHandle</text>
</a>
</g>
</g>
<!-- Node2&#45;&gt;Node1 -->
<g id="edge1" class="edge">
<title>Node2&#45;&gt;Node1</title>
<path fill="none" stroke="#9a32cd" stroke-dasharray="5,2" d="M777.15,-313.77C801.7,-323.74 835,-337.53 864,-350.5 876.85,-356.24 891.1,-363.06 902.32,-368.52"/>
<polygon fill="#9a32cd" stroke="#9a32cd" points="778.52,-310.55 767.93,-310.05 775.89,-317.04 778.52,-310.55"/>
<text text-anchor="middle" x="840.5" y="-364.5" font-family="Helvetica,sans-Serif" font-size="10.00"> field_0x0</text>
<text text-anchor="middle" x="840.5" y="-353.5" font-family="Helvetica,sans-Serif" font-size="10.00">field_0x4</text>
</g>
<!-- Node3 -->
<g id="node3" class="node">
<title>Node3</title>
<g id="a_node3"><a xlink:href="structJAISound.html" target="_top" xlink:title=" ">
<polygon fill="white" stroke="#666666" points="953,-190 894,-190 894,-171 953,-171 953,-190"/>
<text text-anchor="middle" x="923.5" y="-178" font-family="Helvetica,sans-Serif" font-size="10.00">JAISound</text>
</a>
</g>
</g>
<!-- Node2&#45;&gt;Node3 -->
<g id="edge3" class="edge">
<title>Node2&#45;&gt;Node3</title>
<path fill="none" stroke="#9a32cd" stroke-dasharray="5,2" d="M797.36,-299.25C819.71,-296.78 844.68,-290.8 864,-277.5 895.75,-255.64 913.17,-210.4 919.6,-190.39"/>
<polygon fill="#9a32cd" stroke="#9a32cd" points="797.12,-295.76 787.46,-300.11 797.73,-302.73 797.12,-295.76"/>
<text text-anchor="middle" x="840.5" y="-299.5" font-family="Helvetica,sans-Serif" font-size="10.00"> handle_</text>
</g>
<!-- Node3&#45;&gt;Node2 -->
<g id="edge2" class="edge">
<title>Node3&#45;&gt;Node2</title>
<path fill="none" stroke="#9a32cd" stroke-dasharray="5,2" d="M906.04,-198.32C894.87,-209.8 879.39,-224.56 864,-235.5 831.73,-258.44 790.17,-278.4 764.7,-289.68"/>
<polygon fill="#9a32cd" stroke="#9a32cd" points="908.27,-201.06 912.63,-191.4 903.2,-196.23 908.27,-201.06"/>
<text text-anchor="middle" x="840.5" y="-266.5" font-family="Helvetica,sans-Serif" font-size="10.00"> sound_</text>
</g>
<!-- Node4 -->
<g id="node4" class="node">
<title>Node4</title>
<g id="a_node4"><a xlink:href="structJAIAudible.html" target="_top" xlink:title=" ">
<polygon fill="white" stroke="#666666" points="772.5,-246 708.5,-246 708.5,-227 772.5,-227 772.5,-246"/>
<text text-anchor="middle" x="740.5" y="-234" font-family="Helvetica,sans-Serif" font-size="10.00">JAIAudible</text>
</a>
</g>
</g>
<!-- Node4&#45;&gt;Node3 -->
<g id="edge4" class="edge">
<title>Node4&#45;&gt;Node3</title>
<path fill="none" stroke="#9a32cd" stroke-dasharray="5,2" d="M784.05,-228.04C807.86,-222.81 837.91,-215.41 864,-206.5 877.15,-202.01 891.4,-195.7 902.55,-190.43"/>
<polygon fill="#9a32cd" stroke="#9a32cd" points="783.43,-224.59 774.38,-230.1 784.89,-231.43 783.43,-224.59"/>
<text text-anchor="middle" x="840.5" y="-223.5" font-family="Helvetica,sans-Serif" font-size="10.00"> audible_</text>
</g>
<!-- Node5 -->
<g id="node5" class="node">
<title>Node5</title>
<g id="a_node5"><a xlink:href="structJAIAudience.html" target="_top" xlink:title=" ">
<polygon fill="white" stroke="#666666" points="776.5,-209 704.5,-209 704.5,-190 776.5,-190 776.5,-209"/>
<text text-anchor="middle" x="740.5" y="-197" font-family="Helvetica,sans-Serif" font-size="10.00">JAIAudience</text>
</a>
</g>
</g>
<!-- Node5&#45;&gt;Node3 -->
<g id="edge5" class="edge">
<title>Node5&#45;&gt;Node3</title>
<path fill="none" stroke="#9a32cd" stroke-dasharray="5,2" d="M788.12,-194.61C821.41,-191.11 865.13,-186.52 893.52,-183.54"/>
<polygon fill="#9a32cd" stroke="#9a32cd" points="787.91,-191.11 778.33,-195.63 788.64,-198.07 787.91,-191.11"/>
<text text-anchor="middle" x="840.5" y="-194.5" font-family="Helvetica,sans-Serif" font-size="10.00"> audience_</text>
</g>
<!-- Node6 -->
<g id="node6" class="node">
<title>Node6</title>
<g id="a_node6"><a xlink:href="structJAISoundID.html" target="_top" xlink:title=" ">
<polygon fill="white" stroke="#666666" points="775,-172 706,-172 706,-153 775,-153 775,-172"/>
<text text-anchor="middle" x="740.5" y="-160" font-family="Helvetica,sans-Serif" font-size="10.00">JAISoundID</text>
</a>
</g>
</g>
<!-- Node6&#45;&gt;Node3 -->
<g id="edge6" class="edge">
<title>Node6&#45;&gt;Node3</title>
<path fill="none" stroke="#9a32cd" stroke-dasharray="5,2" d="M786.73,-160.55C809.94,-160.23 838.6,-160.88 864,-164.5 873.8,-165.9 884.29,-168.43 893.64,-171.07"/>
<polygon fill="#9a32cd" stroke="#9a32cd" points="786.91,-157.04 776.99,-160.75 787.06,-164.04 786.91,-157.04"/>
<text text-anchor="middle" x="840.5" y="-167.5" font-family="Helvetica,sans-Serif" font-size="10.00"> soundID</text>
</g>
<!-- Node7 -->
<g id="node7" class="node">
<title>Node7</title>
<g id="a_node7"><a xlink:href="structJAISoundStatus__.html" target="_top" xlink:title=" ">
<polygon fill="white" stroke="#666666" points="787,-135 694,-135 694,-116 787,-116 787,-135"/>
<text text-anchor="middle" x="740.5" y="-123" font-family="Helvetica,sans-Serif" font-size="10.00">JAISoundStatus_</text>
</a>
</g>
</g>
<!-- Node7&#45;&gt;Node3 -->
<g id="edge7" class="edge">
<title>Node7&#45;&gt;Node3</title>
<path fill="none" stroke="#9a32cd" stroke-dasharray="5,2" d="M798.64,-131C819.62,-134.12 843.29,-138.98 864,-146.5 880.34,-152.43 897.34,-162.87 908.78,-170.62"/>
<polygon fill="#9a32cd" stroke="#9a32cd" points="799.18,-127.54 788.79,-129.64 798.22,-134.47 799.18,-127.54"/>
<text text-anchor="middle" x="840.5" y="-149.5" font-family="Helvetica,sans-Serif" font-size="10.00"> status_</text>
</g>
<!-- Node8 -->
<g id="node8" class="node">
<title>Node8</title>
<g id="a_node8"><a xlink:href="structJAISoundFader.html" target="_top" xlink:title=" ">
<polygon fill="white" stroke="#666666" points="452,-97 368,-97 368,-78 452,-78 452,-97"/>
<text text-anchor="middle" x="410" y="-85" font-family="Helvetica,sans-Serif" font-size="10.00">JAISoundFader</text>
</a>
</g>
</g>
<!-- Node8&#45;&gt;Node3 -->
<g id="edge8" class="edge">
<title>Node8&#45;&gt;Node3</title>
<path fill="none" stroke="#9a32cd" stroke-dasharray="5,2" d="M463.78,-85.05C539.02,-82.69 681.08,-82.43 799,-106.5 829.17,-112.66 837.44,-114.92 864,-130.5 883.36,-141.86 902.5,-159.84 913.38,-170.86"/>
<polygon fill="#9a32cd" stroke="#9a32cd" points="463.68,-81.55 453.8,-85.39 463.92,-88.55 463.68,-81.55"/>
<text text-anchor="middle" x="640.5" y="-91.5" font-family="Helvetica,sans-Serif" font-size="10.00"> fader</text>
</g>
<!-- Node9 -->
<g id="node9" class="node">
<title>Node9</title>
<g id="a_node9"><a xlink:href="structJAISoundParamsTransition_1_1TTransition.html" target="_top" xlink:title=" ">
<polygon fill="white" stroke="#666666" points="136,-63.5 0,-63.5 0,-33.5 136,-33.5 136,-63.5"/>
<text text-anchor="start" x="8" y="-51.5" font-family="Helvetica,sans-Serif" font-size="10.00">JAISoundParamsTransition</text>
<text text-anchor="middle" x="68" y="-40.5" font-family="Helvetica,sans-Serif" font-size="10.00">::TTransition</text>
</a>
</g>
</g>
<!-- Node9&#45;&gt;Node8 -->
<g id="edge9" class="edge">
<title>Node9&#45;&gt;Node8</title>
<path fill="none" stroke="#9a32cd" stroke-dasharray="5,2" d="M147.39,-64.51C149.61,-64.86 151.82,-65.19 154,-65.5 229,-76.2 317.21,-82.41 367.77,-85.36"/>
<polygon fill="#9a32cd" stroke="#9a32cd" points="148.09,-61.08 137.65,-62.9 146.94,-67.99 148.09,-61.08"/>
<text text-anchor="middle" x="175" y="-74.5" font-family="Helvetica,sans-Serif" font-size="10.00"> field_0x4</text>
</g>
<!-- Node14 -->
<g id="node14" class="node">
<title>Node14</title>
<g id="a_node14"><a xlink:href="structJAISoundParamsTransition.html" target="_top" xlink:title=" ">
<polygon fill="white" stroke="#666666" points="350,-19 214,-19 214,0 350,0 350,-19"/>
<text text-anchor="middle" x="282" y="-7" font-family="Helvetica,sans-Serif" font-size="10.00">JAISoundParamsTransition</text>
</a>
</g>
</g>
<!-- Node9&#45;&gt;Node14 -->
<g id="edge15" class="edge">
<title>Node9&#45;&gt;Node14</title>
<path fill="none" stroke="#9a32cd" stroke-dasharray="5,2" d="M105.68,-28.12C120.26,-21.1 137.48,-14.09 154,-10.5 173.07,-6.35 194.13,-4.95 213.53,-4.9"/>
<polygon fill="#9a32cd" stroke="#9a32cd" points="104.3,-24.9 96.93,-32.51 107.44,-31.15 104.3,-24.9"/>
<text text-anchor="middle" x="175" y="-57.5" font-family="Helvetica,sans-Serif" font-size="10.00"> mDolby</text>
<text text-anchor="middle" x="175" y="-46.5" font-family="Helvetica,sans-Serif" font-size="10.00">mFxMix</text>
<text text-anchor="middle" x="175" y="-35.5" font-family="Helvetica,sans-Serif" font-size="10.00">mPan</text>
<text text-anchor="middle" x="175" y="-24.5" font-family="Helvetica,sans-Serif" font-size="10.00">mPitch</text>
<text text-anchor="middle" x="175" y="-13.5" font-family="Helvetica,sans-Serif" font-size="10.00">mVolume</text>
</g>
<!-- Node10 -->
<g id="node10" class="node">
<title>Node10</title>
<g id="a_node10"><a xlink:href="structJAISoundParams.html" target="_top" xlink:title=" ">
<polygon fill="white" stroke="#666666" points="787,-59 694,-59 694,-40 787,-40 787,-59"/>
<text text-anchor="middle" x="740.5" y="-47" font-family="Helvetica,sans-Serif" font-size="10.00">JAISoundParams</text>
</a>
</g>
</g>
<!-- Node10&#45;&gt;Node3 -->
<g id="edge10" class="edge">
<title>Node10&#45;&gt;Node3</title>
<path fill="none" stroke="#9a32cd" stroke-dasharray="5,2" d="M798.68,-44.3C820.8,-45.02 845.24,-49.44 864,-62.5 902.1,-89.02 916.56,-147.68 920.91,-170.83"/>
<polygon fill="#9a32cd" stroke="#9a32cd" points="798.9,-40.8 788.88,-44.24 798.86,-47.8 798.9,-40.8"/>
<text text-anchor="middle" x="840.5" y="-65.5" font-family="Helvetica,sans-Serif" font-size="10.00"> params</text>
</g>
<!-- Node11 -->
<g id="node11" class="node">
<title>Node11</title>
<g id="a_node11"><a xlink:href="structJAISoundParamsProperty.html" target="_top" xlink:title=" ">
<polygon fill="white" stroke="#666666" points="599,-59 470,-59 470,-40 599,-40 599,-59"/>
<text text-anchor="middle" x="534.5" y="-47" font-family="Helvetica,sans-Serif" font-size="10.00">JAISoundParamsProperty</text>
</a>
</g>
</g>
<!-- Node11&#45;&gt;Node10 -->
<g id="edge11" class="edge">
<title>Node11&#45;&gt;Node10</title>
<path fill="none" stroke="#9a32cd" stroke-dasharray="5,2" d="M610.78,-49.5C638.53,-49.5 669.13,-49.5 693.53,-49.5"/>
<polygon fill="#9a32cd" stroke="#9a32cd" points="611,-46 601,-49.5 611,-53 611,-46"/>
<text text-anchor="middle" x="640.5" y="-52.5" font-family="Helvetica,sans-Serif" font-size="10.00"> mProperty</text>
</g>
<!-- Node12 -->
<g id="node12" class="node">
<title>Node12</title>
<g id="a_node12"><a xlink:href="structJAISoundParamsMove.html" target="_top" xlink:title=" ">
<polygon fill="white" stroke="#666666" points="593,-22 476,-22 476,-3 593,-3 593,-22"/>
<text text-anchor="middle" x="534.5" y="-10" font-family="Helvetica,sans-Serif" font-size="10.00">JAISoundParamsMove</text>
</a>
</g>
</g>
<!-- Node12&#45;&gt;Node10 -->
<g id="edge12" class="edge">
<title>Node12&#45;&gt;Node10</title>
<path fill="none" stroke="#9a32cd" stroke-dasharray="5,2" d="M604.57,-23.98C623.83,-27.27 644.74,-30.94 664,-34.5 673.59,-36.27 683.85,-38.26 693.62,-40.18"/>
<polygon fill="#9a32cd" stroke="#9a32cd" points="605.39,-20.57 594.94,-22.34 604.21,-27.47 605.39,-20.57"/>
<text text-anchor="middle" x="640.5" y="-37.5" font-family="Helvetica,sans-Serif" font-size="10.00"> mMove</text>
</g>
<!-- Node13 -->
<g id="node13" class="node">
<title>Node13</title>
<g id="a_node13"><a xlink:href="structJASSoundParams.html" target="_top" xlink:title=" ">
<polygon fill="white" stroke="#666666" points="330.5,-56 233.5,-56 233.5,-37 330.5,-37 330.5,-56"/>
<text text-anchor="middle" x="282" y="-44" font-family="Helvetica,sans-Serif" font-size="10.00">JASSoundParams</text>
</a>
</g>
</g>
<!-- Node13&#45;&gt;Node12 -->
<g id="edge13" class="edge">
<title>Node13&#45;&gt;Node12</title>
<path fill="none" stroke="#9a32cd" stroke-dasharray="5,2" d="M341.86,-39.08C374.35,-34.93 415.43,-29.57 452,-24.5 459.65,-23.44 467.7,-22.29 475.64,-21.14"/>
<polygon fill="#9a32cd" stroke="#9a32cd" points="341.72,-35.57 332.24,-40.31 342.61,-42.52 341.72,-35.57"/>
<text text-anchor="middle" x="410" y="-39.5" font-family="Helvetica,sans-Serif" font-size="10.00"> mParams</text>
</g>
<!-- Node14&#45;&gt;Node12 -->
<g id="edge14" class="edge">
<title>Node14&#45;&gt;Node12</title>
<path fill="none" stroke="#9a32cd" stroke-dasharray="5,2" d="M361.7,-10.44C398.63,-10.88 441.85,-11.4 475.7,-11.81"/>
<polygon fill="#9a32cd" stroke="#9a32cd" points="362.01,-6.95 351.97,-10.33 361.93,-13.95 362.01,-6.95"/>
<text text-anchor="middle" x="410" y="-14.5" font-family="Helvetica,sans-Serif" font-size="10.00"> mTransition</text>
</g>
<!-- Node15 -->
<g id="node15" class="node">
<title>Node15</title>
<g id="a_node15"><a xlink:href="structJMath_1_1TRandom__fast__.html" target="_top" xlink:title=" ">
<polygon fill="white" stroke="#666666" points="799,-423 682,-423 682,-404 799,-404 799,-423"/>
<text text-anchor="middle" x="740.5" y="-411" font-family="Helvetica,sans-Serif" font-size="10.00">JMath::TRandom_fast_</text>
</a>
</g>
</g>
<!-- Node15&#45;&gt;Node1 -->
<g id="edge16" class="edge">
<title>Node15&#45;&gt;Node1</title>
<path fill="none" stroke="#9a32cd" stroke-dasharray="5,2" d="M810.51,-401.62C827.99,-398.47 846.71,-394.97 864,-391.5 869.71,-390.35 875.72,-389.09 881.63,-387.81"/>
<polygon fill="#9a32cd" stroke="#9a32cd" points="809.95,-398.16 800.73,-403.37 811.19,-405.05 809.95,-398.16"/>
<text text-anchor="middle" x="840.5" y="-402.5" font-family="Helvetica,sans-Serif" font-size="10.00"> random</text>
</g>
<!-- Node16 -->
<g id="node16" class="node">
<title>Node16</title>
<g id="a_node16"><a xlink:href="structZ2SpeechStarter.html" target="_top" xlink:title=" ">
<polygon fill="white" stroke="#666666" points="785.5,-386 695.5,-386 695.5,-367 785.5,-367 785.5,-386"/>
<text text-anchor="middle" x="740.5" y="-374" font-family="Helvetica,sans-Serif" font-size="10.00">Z2SpeechStarter</text>
</a>
</g>
</g>
<!-- Node16&#45;&gt;Node1 -->
<g id="edge17" class="edge">
<title>Node16&#45;&gt;Node1</title>
<path fill="none" stroke="#9a32cd" stroke-dasharray="5,2" d="M797.14,-377.11C824.47,-377.42 856.79,-377.77 881.77,-378.05"/>
<polygon fill="#9a32cd" stroke="#9a32cd" points="797.33,-373.62 787.29,-377.01 797.25,-380.62 797.33,-373.62"/>
<text text-anchor="middle" x="840.5" y="-380.5" font-family="Helvetica,sans-Serif" font-size="10.00"> mSpeech</text>
</g>
<!-- Node17 -->
<g id="node17" class="node">
<title>Node17</title>
<g id="a_node17"><a xlink:href="structZ2SoundStarter.html" target="_top" xlink:title=" ">
<polygon fill="white" stroke="#666666" points="577,-386 492,-386 492,-367 577,-367 577,-386"/>
<text text-anchor="middle" x="534.5" y="-374" font-family="Helvetica,sans-Serif" font-size="10.00">Z2SoundStarter</text>
</a>
</g>
</g>
<!-- Node17&#45;&gt;Node16 -->
<g id="edge18" class="edge">
<title>Node17&#45;&gt;Node16</title>
<path fill="none" stroke="#63b8ff" d="M588.6,-376.5C621.77,-376.5 663.97,-376.5 695.31,-376.5"/>
<polygon fill="#63b8ff" stroke="#63b8ff" points="588.79,-373 578.79,-376.5 588.79,-380 588.79,-373"/>
</g>
<!-- Node18 -->
<g id="node18" class="node">
<title>Node18</title>
<g id="a_node18"><a xlink:href="structJAISoundStarter.html" target="_top" xlink:title=" ">
<polygon fill="white" stroke="#666666" points="326.5,-386 237.5,-386 237.5,-367 326.5,-367 326.5,-386"/>
<text text-anchor="middle" x="282" y="-374" font-family="Helvetica,sans-Serif" font-size="10.00">JAISoundStarter</text>
</a>
</g>
</g>
<!-- Node18&#45;&gt;Node17 -->
<g id="edge19" class="edge">
<title>Node18&#45;&gt;Node17</title>
<path fill="none" stroke="#63b8ff" d="M338.26,-376.5C384.56,-376.5 449.66,-376.5 491.72,-376.5"/>
<polygon fill="#63b8ff" stroke="#63b8ff" points="338.43,-373 328.43,-376.5 338.43,-380 338.43,-373"/>
</g>
</g>
</svg>
