<?xml version="1.0" encoding="UTF-8" standalone="no"?>
<!DOCTYPE svg PUBLIC "-//W3C//DTD SVG 1.1//EN"
 "http://www.w3.org/Graphics/SVG/1.1/DTD/svg11.dtd">
<!-- Generated by graphviz version 2.44.0 ()
 -->
<!-- Title: J3DMaterialAnm Pages: 1 -->
<svg width="547pt" height="374pt"
 viewBox="0.00 0.00 546.50 374.00" xmlns="http://www.w3.org/2000/svg" xmlns:xlink="http://www.w3.org/1999/xlink">
<g id="graph0" class="graph" transform="scale(1 1) rotate(0) translate(4 370)">
<title>J3DMaterialAnm</title>
<polygon fill="white" stroke="transparent" points="-4,4 -4,-370 542.5,-370 542.5,4 -4,4"/>
<!-- Node1 -->
<g id="node1" class="node">
<title>Node1</title>
<g id="a_node1"><a xlink:title=" ">
<polygon fill="#bfbfbf" stroke="black" points="221,-0.5 221,-19.5 310,-19.5 310,-0.5 221,-0.5"/>
<text text-anchor="middle" x="265.5" y="-7.5" font-family="Helvetica,sans-Serif" font-size="10.00">J3DMaterialAnm</text>
</a>
</g>
</g>
<!-- Node2 -->
<g id="node2" class="node">
<title>Node2</title>
<g id="a_node2"><a xlink:href="structJ3DTexNoAnm.html" target="_top" xlink:title=" ">
<polygon fill="white" stroke="black" points="10,-67.5 10,-86.5 93,-86.5 93,-67.5 10,-67.5"/>
<text text-anchor="middle" x="51.5" y="-74.5" font-family="Helvetica,sans-Serif" font-size="10.00">J3DTexNoAnm</text>
</a>
</g>
</g>
<!-- Node2&#45;&gt;Node1 -->
<g id="edge1" class="edge">
<title>Node2&#45;&gt;Node1</title>
<path fill="none" stroke="#9a32cd" stroke-dasharray="5,2" d="M71.57,-61.54C83.73,-53.44 99.87,-43.83 115.5,-38 149.59,-25.29 190.33,-18.44 220.75,-14.83"/>
<polygon fill="#9a32cd" stroke="#9a32cd" points="69.37,-58.8 63.12,-67.35 73.34,-64.57 69.37,-58.8"/>
<text text-anchor="middle" x="145.5" y="-41" font-family="Helvetica,sans-Serif" font-size="10.00"> mTexNoAnm</text>
</g>
<!-- Node3 -->
<g id="node3" class="node">
<title>Node3</title>
<g id="a_node3"><a xlink:href="structJ3DAnmTexPattern.html" target="_top" xlink:title=" ">
<polygon fill="white" stroke="black" points="0,-134.5 0,-153.5 101,-153.5 101,-134.5 0,-134.5"/>
<text text-anchor="middle" x="50.5" y="-141.5" font-family="Helvetica,sans-Serif" font-size="10.00">J3DAnmTexPattern</text>
</a>
</g>
</g>
<!-- Node3&#45;&gt;Node2 -->
<g id="edge2" class="edge">
<title>Node3&#45;&gt;Node2</title>
<path fill="none" stroke="#9a32cd" stroke-dasharray="5,2" d="M50.79,-124.04C50.98,-111.67 51.22,-96.12 51.37,-86.63"/>
<polygon fill="#9a32cd" stroke="#9a32cd" points="47.29,-124.18 50.63,-134.23 54.29,-124.29 47.29,-124.18"/>
<text text-anchor="middle" x="91" y="-108" font-family="Helvetica,sans-Serif" font-size="10.00"> mAnmTexPattern</text>
</g>
<!-- Node4 -->
<g id="node4" class="node">
<title>Node4</title>
<g id="a_node4"><a xlink:href="classJ3DAnmBase.html" target="_top" xlink:title=" ">
<polygon fill="white" stroke="black" points="248,-212.5 248,-231.5 325,-231.5 325,-212.5 248,-212.5"/>
<text text-anchor="middle" x="286.5" y="-219.5" font-family="Helvetica,sans-Serif" font-size="10.00">J3DAnmBase</text>
</a>
</g>
</g>
<!-- Node4&#45;&gt;Node3 -->
<g id="edge3" class="edge">
<title>Node4&#45;&gt;Node3</title>
<path fill="none" stroke="midnightblue" d="M237.89,-210.46C223.48,-206.35 207.97,-200.94 194.5,-194 180.43,-186.75 180.77,-178.85 166.5,-172 154.06,-166.03 123.04,-158.94 96.22,-153.53"/>
<polygon fill="midnightblue" stroke="midnightblue" points="237.09,-213.86 247.65,-213.09 238.91,-207.1 237.09,-213.86"/>
</g>
<!-- Node9 -->
<g id="node9" class="node">
<title>Node9</title>
<g id="a_node9"><a xlink:href="structJ3DAnmColor.html" target="_top" xlink:title=" ">
<polygon fill="white" stroke="black" points="119,-134.5 119,-153.5 196,-153.5 196,-134.5 119,-134.5"/>
<text text-anchor="middle" x="157.5" y="-141.5" font-family="Helvetica,sans-Serif" font-size="10.00">J3DAnmColor</text>
</a>
</g>
</g>
<!-- Node4&#45;&gt;Node9 -->
<g id="edge9" class="edge">
<title>Node4&#45;&gt;Node9</title>
<path fill="none" stroke="midnightblue" d="M280.98,-202.84C276.92,-192.38 270.35,-179.8 260.5,-172 255.26,-167.85 223.12,-159.79 196.12,-153.55"/>
<polygon fill="midnightblue" stroke="midnightblue" points="277.69,-204.02 284.25,-212.34 284.31,-201.75 277.69,-204.02"/>
</g>
<!-- Node11 -->
<g id="node11" class="node">
<title>Node11</title>
<g id="a_node11"><a xlink:href="structJ3DAnmTextureSRTKey.html" target="_top" xlink:title=" ">
<polygon fill="white" stroke="black" points="214.5,-134.5 214.5,-153.5 336.5,-153.5 336.5,-134.5 214.5,-134.5"/>
<text text-anchor="middle" x="275.5" y="-141.5" font-family="Helvetica,sans-Serif" font-size="10.00">J3DAnmTextureSRTKey</text>
</a>
</g>
</g>
<!-- Node4&#45;&gt;Node11 -->
<g id="edge13" class="edge">
<title>Node4&#45;&gt;Node11</title>
<path fill="none" stroke="midnightblue" d="M287.57,-202.24C287.73,-193.05 287.37,-181.87 285.5,-172 284.31,-165.71 281.81,-158.96 279.61,-153.79"/>
<polygon fill="midnightblue" stroke="midnightblue" points="284.08,-202.11 287.19,-212.23 291.07,-202.38 284.08,-202.11"/>
</g>
<!-- Node13 -->
<g id="node13" class="node">
<title>Node13</title>
<g id="a_node13"><a xlink:href="structJ3DAnmTevRegKey.html" target="_top" xlink:title=" ">
<polygon fill="white" stroke="black" points="354.5,-134.5 354.5,-153.5 458.5,-153.5 458.5,-134.5 354.5,-134.5"/>
<text text-anchor="middle" x="406.5" y="-141.5" font-family="Helvetica,sans-Serif" font-size="10.00">J3DAnmTevRegKey</text>
</a>
</g>
</g>
<!-- Node4&#45;&gt;Node13 -->
<g id="edge17" class="edge">
<title>Node4&#45;&gt;Node13</title>
<path fill="none" stroke="midnightblue" d="M308.96,-206.77C333.63,-191.15 372.47,-166.56 392.9,-153.62"/>
<polygon fill="midnightblue" stroke="midnightblue" points="306.84,-203.97 300.27,-212.28 310.59,-209.89 306.84,-203.97"/>
</g>
<!-- Node5 -->
<g id="node5" class="node">
<title>Node5</title>
<g id="a_node5"><a xlink:href="structJUTNameTab.html" target="_top" xlink:title=" ">
<polygon fill="white" stroke="black" points="80.5,-212.5 80.5,-231.5 158.5,-231.5 158.5,-212.5 80.5,-212.5"/>
<text text-anchor="middle" x="119.5" y="-219.5" font-family="Helvetica,sans-Serif" font-size="10.00">JUTNameTab</text>
</a>
</g>
</g>
<!-- Node5&#45;&gt;Node3 -->
<g id="edge4" class="edge">
<title>Node5&#45;&gt;Node3</title>
<path fill="none" stroke="#9a32cd" stroke-dasharray="5,2" d="M98.16,-206.21C93.42,-202.49 88.6,-198.31 84.5,-194 72.37,-181.24 61.36,-163.82 55.33,-153.56"/>
<polygon fill="#9a32cd" stroke="#9a32cd" points="96.3,-209.19 106.41,-212.37 100.49,-203.58 96.3,-209.19"/>
<text text-anchor="middle" x="107.5" y="-180.5" font-family="Helvetica,sans-Serif" font-size="10.00"> field_0x1c</text>
</g>
<!-- Node5&#45;&gt;Node9 -->
<g id="edge10" class="edge">
<title>Node5&#45;&gt;Node9</title>
<path fill="none" stroke="#9a32cd" stroke-dasharray="5,2" d="M128.44,-203.12C136.24,-187.53 147.21,-165.59 153.19,-153.62"/>
<polygon fill="#9a32cd" stroke="#9a32cd" points="125.2,-201.77 123.86,-212.28 131.46,-204.9 125.2,-201.77"/>
<text text-anchor="middle" x="166.5" y="-180.5" font-family="Helvetica,sans-Serif" font-size="10.00"> field_0x1c</text>
</g>
<!-- Node5&#45;&gt;Node11 -->
<g id="edge14" class="edge">
<title>Node5&#45;&gt;Node11</title>
<path fill="none" stroke="#9a32cd" stroke-dasharray="5,2" d="M155.12,-209C166.88,-204.68 179.91,-199.5 191.5,-194 217.58,-181.61 246.3,-163.91 262.49,-153.52"/>
<polygon fill="#9a32cd" stroke="#9a32cd" points="153.83,-205.74 145.6,-212.41 156.19,-212.33 153.83,-205.74"/>
<text text-anchor="middle" x="254.5" y="-186" font-family="Helvetica,sans-Serif" font-size="10.00"> field_0x30</text>
<text text-anchor="middle" x="254.5" y="-175" font-family="Helvetica,sans-Serif" font-size="10.00">field_0x64</text>
</g>
<!-- Node6 -->
<g id="node6" class="node">
<title>Node6</title>
<g id="a_node6"><a xlink:href="structResNTAB.html" target="_top" xlink:title=" ">
<polygon fill="white" stroke="black" points="89,-279.5 89,-298.5 150,-298.5 150,-279.5 89,-279.5"/>
<text text-anchor="middle" x="119.5" y="-286.5" font-family="Helvetica,sans-Serif" font-size="10.00">ResNTAB</text>
</a>
</g>
</g>
<!-- Node6&#45;&gt;Node5 -->
<g id="edge5" class="edge">
<title>Node6&#45;&gt;Node5</title>
<path fill="none" stroke="#9a32cd" stroke-dasharray="5,2" d="M119.5,-269.04C119.5,-256.67 119.5,-241.12 119.5,-231.63"/>
<polygon fill="#9a32cd" stroke="#9a32cd" points="116,-269.23 119.5,-279.23 123,-269.23 116,-269.23"/>
<text text-anchor="middle" x="153" y="-253" font-family="Helvetica,sans-Serif" font-size="10.00"> mpNameTable</text>
</g>
<!-- Node7 -->
<g id="node7" class="node">
<title>Node7</title>
<g id="a_node7"><a xlink:href="structResNTAB_1_1Entry.html" target="_top" xlink:title=" ">
<polygon fill="white" stroke="black" points="76,-346.5 76,-365.5 163,-365.5 163,-346.5 76,-346.5"/>
<text text-anchor="middle" x="119.5" y="-353.5" font-family="Helvetica,sans-Serif" font-size="10.00">ResNTAB::Entry</text>
</a>
</g>
</g>
<!-- Node7&#45;&gt;Node6 -->
<g id="edge6" class="edge">
<title>Node7&#45;&gt;Node6</title>
<path fill="none" stroke="#9a32cd" stroke-dasharray="5,2" d="M119.5,-336.04C119.5,-323.67 119.5,-308.12 119.5,-298.63"/>
<polygon fill="#9a32cd" stroke="#9a32cd" points="116,-336.23 119.5,-346.23 123,-336.23 116,-336.23"/>
<text text-anchor="middle" x="140" y="-320" font-family="Helvetica,sans-Serif" font-size="10.00"> mEntries</text>
</g>
<!-- Node8 -->
<g id="node8" class="node">
<title>Node8</title>
<g id="a_node8"><a xlink:href="structJ3DMatColorAnm.html" target="_top" xlink:title=" ">
<polygon fill="white" stroke="black" points="111,-67.5 111,-86.5 204,-86.5 204,-67.5 111,-67.5"/>
<text text-anchor="middle" x="157.5" y="-74.5" font-family="Helvetica,sans-Serif" font-size="10.00">J3DMatColorAnm</text>
</a>
</g>
</g>
<!-- Node8&#45;&gt;Node1 -->
<g id="edge7" class="edge">
<title>Node8&#45;&gt;Node1</title>
<path fill="none" stroke="#9a32cd" stroke-dasharray="5,2" d="M169.41,-59.31C175.35,-51.96 183.07,-43.71 191.5,-38 203.5,-29.87 218.25,-23.84 231.42,-19.57"/>
<polygon fill="#9a32cd" stroke="#9a32cd" points="166.58,-57.25 163.31,-67.33 172.15,-61.49 166.58,-57.25"/>
<text text-anchor="middle" x="226.5" y="-41" font-family="Helvetica,sans-Serif" font-size="10.00"> mMatColorAnm</text>
</g>
<!-- Node9&#45;&gt;Node8 -->
<g id="edge8" class="edge">
<title>Node9&#45;&gt;Node8</title>
<path fill="none" stroke="#9a32cd" stroke-dasharray="5,2" d="M157.5,-124.04C157.5,-111.67 157.5,-96.12 157.5,-86.63"/>
<polygon fill="#9a32cd" stroke="#9a32cd" points="154,-124.23 157.5,-134.23 161,-124.23 154,-124.23"/>
<text text-anchor="middle" x="184.5" y="-108" font-family="Helvetica,sans-Serif" font-size="10.00"> mAnmColor</text>
</g>
<!-- Node10 -->
<g id="node10" class="node">
<title>Node10</title>
<g id="a_node10"><a xlink:href="structJ3DTexMtxAnm.html" target="_top" xlink:title=" ">
<polygon fill="white" stroke="black" points="222.5,-67.5 222.5,-86.5 308.5,-86.5 308.5,-67.5 222.5,-67.5"/>
<text text-anchor="middle" x="265.5" y="-74.5" font-family="Helvetica,sans-Serif" font-size="10.00">J3DTexMtxAnm</text>
</a>
</g>
</g>
<!-- Node10&#45;&gt;Node1 -->
<g id="edge11" class="edge">
<title>Node10&#45;&gt;Node1</title>
<path fill="none" stroke="#9a32cd" stroke-dasharray="5,2" d="M265.5,-57.04C265.5,-44.67 265.5,-29.12 265.5,-19.63"/>
<polygon fill="#9a32cd" stroke="#9a32cd" points="262,-57.23 265.5,-67.23 269,-57.23 262,-57.23"/>
<text text-anchor="middle" x="297" y="-41" font-family="Helvetica,sans-Serif" font-size="10.00"> mTexMtxAnm</text>
</g>
<!-- Node11&#45;&gt;Node10 -->
<g id="edge12" class="edge">
<title>Node11&#45;&gt;Node10</title>
<path fill="none" stroke="#9a32cd" stroke-dasharray="5,2" d="M272.58,-124.04C270.68,-111.67 268.29,-96.12 266.83,-86.63"/>
<polygon fill="#9a32cd" stroke="#9a32cd" points="269.17,-124.88 274.15,-134.23 276.09,-123.82 269.17,-124.88"/>
<text text-anchor="middle" x="309.5" y="-108" font-family="Helvetica,sans-Serif" font-size="10.00"> mAnmTransform</text>
</g>
<!-- Node12 -->
<g id="node12" class="node">
<title>Node12</title>
<g id="a_node12"><a xlink:href="structJ3DTevKColorAnm.html" target="_top" xlink:title=" ">
<polygon fill="white" stroke="black" points="438.5,-67.5 438.5,-86.5 538.5,-86.5 538.5,-67.5 438.5,-67.5"/>
<text text-anchor="middle" x="488.5" y="-74.5" font-family="Helvetica,sans-Serif" font-size="10.00">J3DTevKColorAnm</text>
</a>
</g>
</g>
<!-- Node12&#45;&gt;Node1 -->
<g id="edge15" class="edge">
<title>Node12&#45;&gt;Node1</title>
<path fill="none" stroke="#9a32cd" stroke-dasharray="5,2" d="M467.45,-61.79C454.44,-53.64 437.11,-43.9 420.5,-38 384.59,-25.26 341.79,-18.38 310.27,-14.77"/>
<polygon fill="#9a32cd" stroke="#9a32cd" points="465.78,-64.88 476.08,-67.36 469.57,-58.99 465.78,-64.88"/>
<text text-anchor="middle" x="483" y="-41" font-family="Helvetica,sans-Serif" font-size="10.00"> mTevKColorAnm</text>
</g>
<!-- Node13&#45;&gt;Node12 -->
<g id="edge16" class="edge">
<title>Node13&#45;&gt;Node12</title>
<path fill="none" stroke="#9a32cd" stroke-dasharray="5,2" d="M437.53,-130.12C445.13,-126.2 452.96,-121.45 459.5,-116 469.57,-107.6 478.26,-95.1 483.43,-86.75"/>
<polygon fill="#9a32cd" stroke="#9a32cd" points="435.95,-126.99 428.46,-134.49 438.99,-133.3 435.95,-126.99"/>
<text text-anchor="middle" x="503" y="-108" font-family="Helvetica,sans-Serif" font-size="10.00"> mAnmTevReg</text>
</g>
<!-- Node14 -->
<g id="node14" class="node">
<title>Node14</title>
<g id="a_node14"><a xlink:href="structJ3DTevColorAnm.html" target="_top" xlink:title=" ">
<polygon fill="white" stroke="black" points="327,-67.5 327,-86.5 420,-86.5 420,-67.5 327,-67.5"/>
<text text-anchor="middle" x="373.5" y="-74.5" font-family="Helvetica,sans-Serif" font-size="10.00">J3DTevColorAnm</text>
</a>
</g>
</g>
<!-- Node13&#45;&gt;Node14 -->
<g id="edge19" class="edge">
<title>Node13&#45;&gt;Node14</title>
<path fill="none" stroke="#9a32cd" stroke-dasharray="5,2" d="M397.44,-125.16C391.08,-112.63 382.85,-96.41 377.88,-86.63"/>
<polygon fill="#9a32cd" stroke="#9a32cd" points="394.4,-126.9 402.05,-134.23 400.64,-123.73 394.4,-126.9"/>
<text text-anchor="middle" x="425" y="-108" font-family="Helvetica,sans-Serif" font-size="10.00"> mAnmTevReg</text>
</g>
<!-- Node14&#45;&gt;Node1 -->
<g id="edge18" class="edge">
<title>Node14&#45;&gt;Node1</title>
<path fill="none" stroke="#9a32cd" stroke-dasharray="5,2" d="M358.94,-60.03C351.56,-52.61 342.13,-44.11 332.5,-38 320.32,-30.28 305.56,-24.04 293,-19.52"/>
<polygon fill="#9a32cd" stroke="#9a32cd" points="356.62,-62.67 366.06,-67.49 361.68,-57.84 356.62,-62.67"/>
<text text-anchor="middle" x="381.5" y="-41" font-family="Helvetica,sans-Serif" font-size="10.00"> mTevColorAnm</text>
</g>
</g>
</svg>
