<?xml version="1.0" encoding="UTF-8" standalone="no"?>
<!DOCTYPE svg PUBLIC "-//W3C//DTD SVG 1.1//EN"
 "http://www.w3.org/Graphics/SVG/1.1/DTD/svg11.dtd">
<!-- Generated by graphviz version 2.44.0 ()
 -->
<!-- Title: dBgS_SplGrpChk Pages: 1 -->
<svg width="391pt" height="287pt"
 viewBox="0.00 0.00 390.50 287.00" xmlns="http://www.w3.org/2000/svg" xmlns:xlink="http://www.w3.org/1999/xlink">
<g id="graph0" class="graph" transform="scale(1 1) rotate(0) translate(4 283)">
<title>dBgS_SplGrpChk</title>
<polygon fill="white" stroke="transparent" points="-4,4 -4,-283 386.5,-283 386.5,4 -4,4"/>
<!-- Node1 -->
<g id="node1" class="node">
<title>Node1</title>
<g id="a_node1"><a xlink:title=" ">
<polygon fill="#bfbfbf" stroke="black" points="143,-0.5 143,-19.5 236,-19.5 236,-0.5 143,-0.5"/>
<text text-anchor="middle" x="189.5" y="-7.5" font-family="Helvetica,sans-Serif" font-size="10.00">dBgS_SplGrpChk</text>
</a>
</g>
</g>
<!-- Node2 -->
<g id="node2" class="node">
<title>Node2</title>
<g id="a_node2"><a xlink:href="structcBgS__Chk.html" target="_top" xlink:title=" ">
<polygon fill="white" stroke="black" points="22,-101.5 22,-120.5 85,-120.5 85,-101.5 22,-101.5"/>
<text text-anchor="middle" x="53.5" y="-108.5" font-family="Helvetica,sans-Serif" font-size="10.00">cBgS_Chk</text>
</a>
</g>
</g>
<!-- Node2&#45;&gt;Node1 -->
<g id="edge1" class="edge">
<title>Node2&#45;&gt;Node1</title>
<path fill="none" stroke="#9a32cd" stroke-dasharray="5,2" d="M59.58,-91.93C66.01,-75.52 77.7,-51.85 95.5,-38 109.03,-27.47 126.52,-21.05 142.73,-17.13"/>
<polygon fill="#9a32cd" stroke="#9a32cd" points="56.24,-90.88 56.11,-101.48 62.81,-93.27 56.24,-90.88"/>
<text text-anchor="middle" x="118.5" y="-41" font-family="Helvetica,sans-Serif" font-size="10.00"> field_0x10</text>
</g>
<!-- Node3 -->
<g id="node3" class="node">
<title>Node3</title>
<g id="a_node3"><a xlink:href="structdBgS__Chk.html" target="_top" xlink:title=" ">
<polygon fill="white" stroke="black" points="103,-101.5 103,-120.5 166,-120.5 166,-101.5 103,-101.5"/>
<text text-anchor="middle" x="134.5" y="-108.5" font-family="Helvetica,sans-Serif" font-size="10.00">dBgS_Chk</text>
</a>
</g>
</g>
<!-- Node3&#45;&gt;Node1 -->
<g id="edge2" class="edge">
<title>Node3&#45;&gt;Node1</title>
<path fill="none" stroke="#9a32cd" stroke-dasharray="5,2" d="M134.99,-90.83C136.22,-75.4 139.91,-53.75 150.5,-38 155.74,-30.21 164.05,-24 171.65,-19.51"/>
<polygon fill="#9a32cd" stroke="#9a32cd" points="131.47,-91.06 134.45,-101.23 138.46,-91.42 131.47,-91.06"/>
<text text-anchor="middle" x="173.5" y="-41" font-family="Helvetica,sans-Serif" font-size="10.00"> field_0x24</text>
</g>
<!-- Node4 -->
<g id="node4" class="node">
<title>Node4</title>
<g id="a_node4"><a xlink:href="classdBgS__GrpPassChk.html" target="_top" xlink:title=" ">
<polygon fill="white" stroke="black" points="0,-202.5 0,-221.5 101,-221.5 101,-202.5 0,-202.5"/>
<text text-anchor="middle" x="50.5" y="-209.5" font-family="Helvetica,sans-Serif" font-size="10.00">dBgS_GrpPassChk</text>
</a>
</g>
</g>
<!-- Node4&#45;&gt;Node3 -->
<g id="edge3" class="edge">
<title>Node4&#45;&gt;Node3</title>
<path fill="none" stroke="#9a32cd" stroke-dasharray="5,2" d="M58.18,-192.7C61.43,-186.11 65.61,-178.86 70.5,-173 78.82,-163.04 83.88,-163.72 93.5,-155 105.88,-143.77 119.01,-129.54 126.98,-120.59"/>
<polygon fill="#9a32cd" stroke="#9a32cd" points="54.8,-191.67 53.86,-202.22 61.18,-194.56 54.8,-191.67"/>
<text text-anchor="middle" x="112" y="-176" font-family="Helvetica,sans-Serif" font-size="10.00"> mGrpPassChkInfo</text>
</g>
<!-- Node5 -->
<g id="node5" class="node">
<title>Node5</title>
<g id="a_node5"><a xlink:href="structcBgS__GrpPassChk.html" target="_top" xlink:title=" ">
<polygon fill="white" stroke="black" points="0,-259.5 0,-278.5 101,-278.5 101,-259.5 0,-259.5"/>
<text text-anchor="middle" x="50.5" y="-266.5" font-family="Helvetica,sans-Serif" font-size="10.00">cBgS_GrpPassChk</text>
</a>
</g>
</g>
<!-- Node5&#45;&gt;Node4 -->
<g id="edge4" class="edge">
<title>Node5&#45;&gt;Node4</title>
<path fill="none" stroke="midnightblue" d="M50.5,-249.12C50.5,-239.82 50.5,-229.06 50.5,-221.71"/>
<polygon fill="midnightblue" stroke="midnightblue" points="47,-249.41 50.5,-259.41 54,-249.41 47,-249.41"/>
</g>
<!-- Node6 -->
<g id="node6" class="node">
<title>Node6</title>
<g id="a_node6"><a xlink:href="structdBgS__PolyPassChk.html" target="_top" xlink:title=" ">
<polygon fill="white" stroke="black" points="119.5,-202.5 119.5,-221.5 223.5,-221.5 223.5,-202.5 119.5,-202.5"/>
<text text-anchor="middle" x="171.5" y="-209.5" font-family="Helvetica,sans-Serif" font-size="10.00">dBgS_PolyPassChk</text>
</a>
</g>
</g>
<!-- Node6&#45;&gt;Node3 -->
<g id="edge5" class="edge">
<title>Node6&#45;&gt;Node3</title>
<path fill="none" stroke="#9a32cd" stroke-dasharray="5,2" d="M164.63,-192.62C156.61,-171.17 143.7,-136.61 137.72,-120.62"/>
<polygon fill="#9a32cd" stroke="#9a32cd" points="161.44,-194.07 168.22,-202.21 167.99,-191.62 161.44,-194.07"/>
<text text-anchor="middle" x="204.5" y="-176" font-family="Helvetica,sans-Serif" font-size="10.00"> mPolyPassChkInfo</text>
</g>
<!-- Node7 -->
<g id="node7" class="node">
<title>Node7</title>
<g id="a_node7"><a xlink:href="structcBgS__PolyPassChk.html" target="_top" xlink:title=" ">
<polygon fill="white" stroke="black" points="119.5,-259.5 119.5,-278.5 223.5,-278.5 223.5,-259.5 119.5,-259.5"/>
<text text-anchor="middle" x="171.5" y="-266.5" font-family="Helvetica,sans-Serif" font-size="10.00">cBgS_PolyPassChk</text>
</a>
</g>
</g>
<!-- Node7&#45;&gt;Node6 -->
<g id="edge6" class="edge">
<title>Node7&#45;&gt;Node6</title>
<path fill="none" stroke="midnightblue" d="M171.5,-249.12C171.5,-239.82 171.5,-229.06 171.5,-221.71"/>
<polygon fill="midnightblue" stroke="midnightblue" points="168,-249.41 171.5,-259.41 175,-249.41 168,-249.41"/>
</g>
<!-- Node8 -->
<g id="node8" class="node">
<title>Node8</title>
<g id="a_node8"><a xlink:href="structcBgS__PolyInfo.html" target="_top" xlink:title=" ">
<polygon fill="white" stroke="black" points="184,-101.5 184,-120.5 265,-120.5 265,-101.5 184,-101.5"/>
<text text-anchor="middle" x="224.5" y="-108.5" font-family="Helvetica,sans-Serif" font-size="10.00">cBgS_PolyInfo</text>
</a>
</g>
</g>
<!-- Node8&#45;&gt;Node1 -->
<g id="edge7" class="edge">
<title>Node8&#45;&gt;Node1</title>
<path fill="none" stroke="#9a32cd" stroke-dasharray="5,2" d="M218,-91.62C210.42,-70.17 198.2,-35.61 192.55,-19.62"/>
<polygon fill="#9a32cd" stroke="#9a32cd" points="214.76,-92.95 221.39,-101.21 221.36,-90.62 214.76,-92.95"/>
<text text-anchor="middle" x="226.5" y="-41" font-family="Helvetica,sans-Serif" font-size="10.00"> field_0x00</text>
</g>
<!-- Node9 -->
<g id="node9" class="node">
<title>Node9</title>
<g id="a_node9"><a xlink:href="structcXyz.html" target="_top" xlink:title=" ">
<polygon fill="white" stroke="black" points="283.5,-101.5 283.5,-120.5 321.5,-120.5 321.5,-101.5 283.5,-101.5"/>
<text text-anchor="middle" x="302.5" y="-108.5" font-family="Helvetica,sans-Serif" font-size="10.00">cXyz</text>
</a>
</g>
</g>
<!-- Node9&#45;&gt;Node1 -->
<g id="edge8" class="edge">
<title>Node9&#45;&gt;Node1</title>
<path fill="none" stroke="#9a32cd" stroke-dasharray="5,2" d="M294,-91.89C285.66,-75.83 271.59,-52.72 253.5,-38 243.49,-29.85 230.67,-23.8 219.13,-19.51"/>
<polygon fill="#9a32cd" stroke="#9a32cd" points="291.06,-93.84 298.63,-101.26 297.34,-90.74 291.06,-93.84"/>
<text text-anchor="middle" x="287.5" y="-41" font-family="Helvetica,sans-Serif" font-size="10.00"> m_ground</text>
</g>
<!-- Node9&#45;&gt;Node9 -->
<g id="edge10" class="edge">
<title>Node9&#45;&gt;Node9</title>
<path fill="none" stroke="#9a32cd" stroke-dasharray="5,2" d="M324.05,-123.32C332.48,-123.91 339.5,-119.8 339.5,-111 339.5,-98.88 326.2,-95.66 314.25,-101.34"/>
<polygon fill="#9a32cd" stroke="#9a32cd" points="324.81,-119.9 314.25,-120.66 322.98,-126.65 324.81,-119.9"/>
<text text-anchor="middle" x="361" y="-147" font-family="Helvetica,sans-Serif" font-size="10.00"> BaseX</text>
<text text-anchor="middle" x="361" y="-136" font-family="Helvetica,sans-Serif" font-size="10.00">BaseXY</text>
<text text-anchor="middle" x="361" y="-125" font-family="Helvetica,sans-Serif" font-size="10.00">BaseXYZ</text>
<text text-anchor="middle" x="361" y="-114" font-family="Helvetica,sans-Serif" font-size="10.00">BaseXZ</text>
<text text-anchor="middle" x="361" y="-103" font-family="Helvetica,sans-Serif" font-size="10.00">BaseY</text>
<text text-anchor="middle" x="361" y="-92" font-family="Helvetica,sans-Serif" font-size="10.00">BaseYZ</text>
<text text-anchor="middle" x="361" y="-81" font-family="Helvetica,sans-Serif" font-size="10.00">BaseZ</text>
<text text-anchor="middle" x="361" y="-70" font-family="Helvetica,sans-Serif" font-size="10.00">Zero</text>
</g>
<!-- Node10 -->
<g id="node10" class="node">
<title>Node10</title>
<g id="a_node10"><a xlink:href="structVec.html" target="_top" xlink:title=" ">
<polygon fill="white" stroke="black" points="285.5,-202.5 285.5,-221.5 319.5,-221.5 319.5,-202.5 285.5,-202.5"/>
<text text-anchor="middle" x="302.5" y="-209.5" font-family="Helvetica,sans-Serif" font-size="10.00">Vec</text>
</a>
</g>
</g>
<!-- Node10&#45;&gt;Node9 -->
<g id="edge9" class="edge">
<title>Node10&#45;&gt;Node9</title>
<path fill="none" stroke="midnightblue" d="M302.5,-192.03C302.5,-170.54 302.5,-136.47 302.5,-120.62"/>
<polygon fill="midnightblue" stroke="midnightblue" points="299,-192.21 302.5,-202.21 306,-192.21 299,-192.21"/>
</g>
</g>
</svg>
