<?xml version="1.0" encoding="UTF-8" standalone="no"?>
<!DOCTYPE svg PUBLIC "-//W3C//DTD SVG 1.1//EN"
 "http://www.w3.org/Graphics/SVG/1.1/DTD/svg11.dtd">
<!-- Generated by graphviz version 2.50.0 (20220203.2022)
 -->
<!-- Title: J3DAnmColorFull Pages: 1 -->
<svg width="210pt" height="286pt"
 viewBox="0.00 0.00 209.50 286.00" xmlns="http://www.w3.org/2000/svg" xmlns:xlink="http://www.w3.org/1999/xlink">
<g id="graph0" class="graph" transform="scale(1 1) rotate(0) translate(4 282)">
<title>J3DAnmColorFull</title>
<polygon fill="white" stroke="transparent" points="-4,4 -4,-282 205.5,-282 205.5,4 -4,4"/>
<!-- Node1 -->
<g id="node1" class="node">
<title>Node1</title>
<g id="a_node1"><a xlink:title=" ">
<polygon fill="#bfbfbf" stroke="black" points="8.5,-0.5 8.5,-19.5 100.5,-19.5 100.5,-0.5 8.5,-0.5"/>
<text text-anchor="middle" x="54.5" y="-7.5" font-family="Helvetica,sans-Serif" font-size="10.00">J3DAnmColorFull</text>
</a>
</g>
</g>
<!-- Node2 -->
<g id="node2" class="node">
<title>Node2</title>
<g id="a_node2"><a xlink:href="classJ3DAnmColor.html" target="_top" xlink:title=" ">
<polygon fill="white" stroke="black" points="16,-57.5 16,-76.5 93,-76.5 93,-57.5 16,-57.5"/>
<text text-anchor="middle" x="54.5" y="-64.5" font-family="Helvetica,sans-Serif" font-size="10.00">J3DAnmColor</text>
</a>
</g>
</g>
<!-- Node2&#45;&gt;Node1 -->
<g id="edge1" class="edge">
<title>Node2&#45;&gt;Node1</title>
<path fill="none" stroke="midnightblue" d="M54.5,-47.12C54.5,-37.82 54.5,-27.06 54.5,-19.71"/>
<polygon fill="midnightblue" stroke="midnightblue" points="51,-47.41 54.5,-57.41 58,-47.41 51,-47.41"/>
</g>
<!-- Node3 -->
<g id="node3" class="node">
<title>Node3</title>
<g id="a_node3"><a xlink:href="classJ3DAnmBase.html" target="_top" xlink:title=" ">
<polygon fill="white" stroke="black" points="0,-124.5 0,-143.5 77,-143.5 77,-124.5 0,-124.5"/>
<text text-anchor="middle" x="38.5" y="-131.5" font-family="Helvetica,sans-Serif" font-size="10.00">J3DAnmBase</text>
</a>
</g>
</g>
<!-- Node3&#45;&gt;Node2 -->
<g id="edge2" class="edge">
<title>Node3&#45;&gt;Node2</title>
<path fill="none" stroke="midnightblue" d="M43.07,-114.41C46.13,-101.99 50.02,-86.22 52.38,-76.63"/>
<polygon fill="midnightblue" stroke="midnightblue" points="39.65,-113.69 40.66,-124.23 46.45,-115.36 39.65,-113.69"/>
</g>
<!-- Node4 -->
<g id="node4" class="node">
<title>Node4</title>
<g id="a_node4"><a xlink:href="structJUTNameTab.html" target="_top" xlink:title=" ">
<polygon fill="white" stroke="black" points="95.5,-124.5 95.5,-143.5 173.5,-143.5 173.5,-124.5 95.5,-124.5"/>
<text text-anchor="middle" x="134.5" y="-131.5" font-family="Helvetica,sans-Serif" font-size="10.00">JUTNameTab</text>
</a>
</g>
</g>
<!-- Node4&#45;&gt;Node2 -->
<g id="edge3" class="edge">
<title>Node4&#45;&gt;Node2</title>
<path fill="none" stroke="#9a32cd" stroke-dasharray="5,2" d="M115.69,-117.71C99.92,-104.91 77.99,-87.09 65.12,-76.63"/>
<polygon fill="#9a32cd" stroke="#9a32cd" points="113.74,-120.64 123.71,-124.23 118.16,-115.21 113.74,-120.64"/>
<text text-anchor="middle" x="121.5" y="-98" font-family="Helvetica,sans-Serif" font-size="10.00"> field_0x1c</text>
</g>
<!-- Node5 -->
<g id="node5" class="node">
<title>Node5</title>
<g id="a_node5"><a xlink:href="structResNTAB.html" target="_top" xlink:title=" ">
<polygon fill="white" stroke="black" points="104,-191.5 104,-210.5 165,-210.5 165,-191.5 104,-191.5"/>
<text text-anchor="middle" x="134.5" y="-198.5" font-family="Helvetica,sans-Serif" font-size="10.00">ResNTAB</text>
</a>
</g>
</g>
<!-- Node5&#45;&gt;Node4 -->
<g id="edge4" class="edge">
<title>Node5&#45;&gt;Node4</title>
<path fill="none" stroke="#9a32cd" stroke-dasharray="5,2" d="M134.5,-181.04C134.5,-168.67 134.5,-153.12 134.5,-143.63"/>
<polygon fill="#9a32cd" stroke="#9a32cd" points="131,-181.23 134.5,-191.23 138,-181.23 131,-181.23"/>
<text text-anchor="middle" x="168" y="-165" font-family="Helvetica,sans-Serif" font-size="10.00"> mpNameTable</text>
</g>
<!-- Node6 -->
<g id="node6" class="node">
<title>Node6</title>
<g id="a_node6"><a xlink:href="structResNTAB_1_1Entry.html" target="_top" xlink:title=" ">
<polygon fill="white" stroke="black" points="91,-258.5 91,-277.5 178,-277.5 178,-258.5 91,-258.5"/>
<text text-anchor="middle" x="134.5" y="-265.5" font-family="Helvetica,sans-Serif" font-size="10.00">ResNTAB::Entry</text>
</a>
</g>
</g>
<!-- Node6&#45;&gt;Node5 -->
<g id="edge5" class="edge">
<title>Node6&#45;&gt;Node5</title>
<path fill="none" stroke="#9a32cd" stroke-dasharray="5,2" d="M134.5,-248.04C134.5,-235.67 134.5,-220.12 134.5,-210.63"/>
<polygon fill="#9a32cd" stroke="#9a32cd" points="131,-248.23 134.5,-258.23 138,-248.23 131,-248.23"/>
<text text-anchor="middle" x="155" y="-232" font-family="Helvetica,sans-Serif" font-size="10.00"> mEntries</text>
</g>
</g>
</svg>
