<?xml version="1.0" encoding="UTF-8" standalone="no"?>
<!DOCTYPE svg PUBLIC "-//W3C//DTD SVG 1.1//EN"
 "http://www.w3.org/Graphics/SVG/1.1/DTD/svg11.dtd">
<!-- Generated by graphviz version 2.50.0 (20220203.2022)
 -->
<!-- Title: J3DMaterialTable Pages: 1 -->
<svg width="2023pt" height="809pt"
 viewBox="0.00 0.00 2023.00 809.00" xmlns="http://www.w3.org/2000/svg" xmlns:xlink="http://www.w3.org/1999/xlink">
<g id="graph0" class="graph" transform="scale(1 1) rotate(0) translate(4 805)">
<title>J3DMaterialTable</title>
<polygon fill="white" stroke="transparent" points="-4,4 -4,-805 2019,-805 2019,4 -4,4"/>
<!-- Node1 -->
<g id="node1" class="node">
<title>Node1</title>
<g id="a_node1"><a xlink:title=" ">
<polygon fill="#bfbfbf" stroke="black" points="1376.5,-38.5 1376.5,-57.5 1468.5,-57.5 1468.5,-38.5 1376.5,-38.5"/>
<text text-anchor="middle" x="1422.5" y="-45.5" font-family="Helvetica,sans-Serif" font-size="10.00">J3DMaterialTable</text>
</a>
</g>
</g>
<!-- Node2 -->
<g id="node2" class="node">
<title>Node2</title>
<g id="a_node2"><a xlink:href="structJ3DMaterial.html" target="_top" xlink:title=" ">
<polygon fill="white" stroke="black" points="1154.5,-265.5 1154.5,-284.5 1222.5,-284.5 1222.5,-265.5 1154.5,-265.5"/>
<text text-anchor="middle" x="1188.5" y="-272.5" font-family="Helvetica,sans-Serif" font-size="10.00">J3DMaterial</text>
</a>
</g>
</g>
<!-- Node2&#45;&gt;Node1 -->
<g id="edge1" class="edge">
<title>Node2&#45;&gt;Node1</title>
<path fill="none" stroke="#9a32cd" stroke-dasharray="5,2" d="M1206.85,-258.03C1252.64,-213.22 1375.71,-92.8 1411.57,-57.72"/>
<polygon fill="#9a32cd" stroke="#9a32cd" points="1204.17,-255.75 1199.47,-265.25 1209.06,-260.75 1204.17,-255.75"/>
<text text-anchor="middle" x="1304" y="-210" font-family="Helvetica,sans-Serif" font-size="10.00"> mMaterialNodePointer</text>
</g>
<!-- Node2&#45;&gt;Node2 -->
<g id="edge2" class="edge">
<title>Node2&#45;&gt;Node2</title>
<path fill="none" stroke="#9a32cd" stroke-dasharray="5,2" d="M1169.98,-294.4C1171.22,-299.31 1177.39,-303 1188.5,-303 1206.27,-303 1211.41,-293.57 1203.91,-284.76"/>
<polygon fill="#9a32cd" stroke="#9a32cd" points="1173.35,-295.35 1173.09,-284.76 1166.69,-293.2 1173.35,-295.35"/>
<text text-anchor="middle" x="1188.5" y="-317" font-family="Helvetica,sans-Serif" font-size="10.00"> mNext</text>
<text text-anchor="middle" x="1188.5" y="-306" font-family="Helvetica,sans-Serif" font-size="10.00">mpOrigMaterial</text>
</g>
<!-- Node3 -->
<g id="node3" class="node">
<title>Node3</title>
<g id="a_node3"><a xlink:href="structJ3DShape.html" target="_top" xlink:title=" ">
<polygon fill="white" stroke="black" points="1391.5,-564.5 1391.5,-583.5 1453.5,-583.5 1453.5,-564.5 1391.5,-564.5"/>
<text text-anchor="middle" x="1422.5" y="-571.5" font-family="Helvetica,sans-Serif" font-size="10.00">J3DShape</text>
</a>
</g>
</g>
<!-- Node2&#45;&gt;Node3 -->
<g id="edge4" class="edge">
<title>Node2&#45;&gt;Node3</title>
<path fill="none" stroke="#9a32cd" stroke-dasharray="5,2" d="M1207.74,-291.15C1220.02,-301.18 1237.01,-313.55 1254,-321 1295.59,-339.24 1323.81,-308.08 1354,-342 1383.37,-375 1349.67,-501.88 1372,-540 1378.27,-550.71 1389.41,-558.81 1399.53,-564.41"/>
<polygon fill="#9a32cd" stroke="#9a32cd" points="1209.96,-288.43 1200.06,-284.66 1205.44,-293.78 1209.96,-288.43"/>
<text text-anchor="middle" x="1304" y="-345" font-family="Helvetica,sans-Serif" font-size="10.00"> mMaterial</text>
</g>
<!-- Node14 -->
<g id="node14" class="node">
<title>Node14</title>
<g id="a_node14"><a xlink:href="structJ3DJoint.html" target="_top" xlink:title=" ">
<polygon fill="white" stroke="black" points="1395,-418.5 1395,-437.5 1450,-437.5 1450,-418.5 1395,-418.5"/>
<text text-anchor="middle" x="1422.5" y="-425.5" font-family="Helvetica,sans-Serif" font-size="10.00">J3DJoint</text>
</a>
</g>
</g>
<!-- Node2&#45;&gt;Node14 -->
<g id="edge32" class="edge">
<title>Node2&#45;&gt;Node14</title>
<path fill="none" stroke="#9a32cd" stroke-dasharray="5,2" d="M1230.26,-263.02C1265.87,-255.12 1317.44,-250.11 1354,-274 1405.32,-307.54 1417.86,-389.68 1420.72,-418.12"/>
<polygon fill="#9a32cd" stroke="#9a32cd" points="1229.13,-259.69 1220.21,-265.42 1230.75,-266.5 1229.13,-259.69"/>
<text text-anchor="middle" x="1304" y="-277" font-family="Helvetica,sans-Serif" font-size="10.00"> mMesh</text>
</g>
<!-- Node3&#45;&gt;Node2 -->
<g id="edge3" class="edge">
<title>Node3&#45;&gt;Node2</title>
<path fill="none" stroke="#9a32cd" stroke-dasharray="5,2" d="M1391.17,-559.15C1383.75,-554.09 1376.62,-547.71 1372,-540 1353.38,-508.93 1378.09,-405.05 1354,-378 1323.67,-343.95 1292.66,-379.19 1254,-355 1225.27,-337.02 1203.65,-301.66 1194.42,-284.62"/>
<polygon fill="#9a32cd" stroke="#9a32cd" points="1389.52,-562.25 1399.88,-564.49 1393.18,-556.28 1389.52,-562.25"/>
<text text-anchor="middle" x="1304" y="-381" font-family="Helvetica,sans-Serif" font-size="10.00"> mShape</text>
</g>
<!-- Node4 -->
<g id="node4" class="node">
<title>Node4</title>
<g id="a_node4"><a xlink:href="structVec.html" target="_top" xlink:title=" ">
<polygon fill="white" stroke="black" points="969.5,-490.5 969.5,-509.5 1003.5,-509.5 1003.5,-490.5 969.5,-490.5"/>
<text text-anchor="middle" x="986.5" y="-497.5" font-family="Helvetica,sans-Serif" font-size="10.00">Vec</text>
</a>
</g>
</g>
<!-- Node4&#45;&gt;Node3 -->
<g id="edge5" class="edge">
<title>Node4&#45;&gt;Node3</title>
<path fill="none" stroke="#9a32cd" stroke-dasharray="5,2" d="M1013.03,-510.4C1025.11,-515.26 1039.75,-521.04 1053,-526 1091.83,-540.54 1100.59,-547.68 1141,-557 1190.26,-568.36 1203.57,-566.5 1254,-570 1301.88,-573.32 1357.62,-574.02 1391.2,-574.1"/>
<polygon fill="#9a32cd" stroke="#9a32cd" points="1014.17,-507.09 1003.58,-506.59 1011.54,-513.58 1014.17,-507.09"/>
<text text-anchor="middle" x="1188.5" y="-582" font-family="Helvetica,sans-Serif" font-size="10.00"> mMax</text>
<text text-anchor="middle" x="1188.5" y="-571" font-family="Helvetica,sans-Serif" font-size="10.00">mMin</text>
</g>
<!-- Node4&#45;&gt;Node14 -->
<g id="edge31" class="edge">
<title>Node4&#45;&gt;Node14</title>
<path fill="none" stroke="#9a32cd" stroke-dasharray="5,2" d="M1013.69,-491.71C1044.03,-482.41 1095.65,-467.51 1141,-459 1233.21,-441.69 1344.43,-432.93 1394.62,-429.62"/>
<polygon fill="#9a32cd" stroke="#9a32cd" points="1012.41,-488.44 1003.89,-494.74 1014.48,-495.13 1012.41,-488.44"/>
<text text-anchor="middle" x="1188.5" y="-473" font-family="Helvetica,sans-Serif" font-size="10.00"> mMax</text>
<text text-anchor="middle" x="1188.5" y="-462" font-family="Helvetica,sans-Serif" font-size="10.00">mMin</text>
</g>
<!-- Node22 -->
<g id="node22" class="node">
<title>Node22</title>
<g id="a_node22"><a xlink:href="structJ3DTransformInfo.html" target="_top" xlink:title=" ">
<polygon fill="white" stroke="black" points="1141,-490.5 1141,-509.5 1236,-509.5 1236,-490.5 1141,-490.5"/>
<text text-anchor="middle" x="1188.5" y="-497.5" font-family="Helvetica,sans-Serif" font-size="10.00">J3DTransformInfo</text>
</a>
</g>
</g>
<!-- Node4&#45;&gt;Node22 -->
<g id="edge29" class="edge">
<title>Node4&#45;&gt;Node22</title>
<path fill="none" stroke="#9a32cd" stroke-dasharray="5,2" d="M1013.94,-500C1046.25,-500 1101.49,-500 1140.97,-500"/>
<polygon fill="#9a32cd" stroke="#9a32cd" points="1013.53,-496.5 1003.53,-500 1013.53,-503.5 1013.53,-496.5"/>
<text text-anchor="middle" x="1088" y="-514" font-family="Helvetica,sans-Serif" font-size="10.00"> mScale</text>
<text text-anchor="middle" x="1088" y="-503" font-family="Helvetica,sans-Serif" font-size="10.00">mTranslate</text>
</g>
<!-- Node5 -->
<g id="node5" class="node">
<title>Node5</title>
<g id="a_node5"><a xlink:href="struct__GXVtxDescList.html" target="_top" xlink:title=" ">
<polygon fill="white" stroke="black" points="1144,-738.5 1144,-757.5 1233,-757.5 1233,-738.5 1144,-738.5"/>
<text text-anchor="middle" x="1188.5" y="-745.5" font-family="Helvetica,sans-Serif" font-size="10.00">_GXVtxDescList</text>
</a>
</g>
</g>
<!-- Node5&#45;&gt;Node3 -->
<g id="edge6" class="edge">
<title>Node5&#45;&gt;Node3</title>
<path fill="none" stroke="#9a32cd" stroke-dasharray="5,2" d="M1243.69,-754.65C1279.9,-755.86 1325.88,-750.63 1354,-722 1394.56,-680.7 1335.99,-638.32 1372,-593 1376.87,-586.87 1383.96,-582.72 1391.26,-579.91"/>
<polygon fill="#9a32cd" stroke="#9a32cd" points="1243.44,-751.13 1233.27,-754.11 1243.08,-758.12 1243.44,-751.13"/>
<text text-anchor="middle" x="1304" y="-757" font-family="Helvetica,sans-Serif" font-size="10.00"> mVtxDesc</text>
</g>
<!-- Node6 -->
<g id="node6" class="node">
<title>Node6</title>
<g id="a_node6"><a xlink:href="struct__GXAttr.html" target="_top" xlink:title=" ">
<polygon fill="white" stroke="black" points="960.5,-734.5 960.5,-753.5 1012.5,-753.5 1012.5,-734.5 960.5,-734.5"/>
<text text-anchor="middle" x="986.5" y="-741.5" font-family="Helvetica,sans-Serif" font-size="10.00">_GXAttr</text>
</a>
</g>
</g>
<!-- Node6&#45;&gt;Node5 -->
<g id="edge7" class="edge">
<title>Node6&#45;&gt;Node5</title>
<path fill="none" stroke="#9a32cd" stroke-dasharray="5,2" d="M1023.15,-744.71C1056.88,-745.39 1107.6,-746.4 1143.76,-747.13"/>
<polygon fill="#9a32cd" stroke="#9a32cd" points="1022.9,-741.21 1012.83,-744.51 1022.76,-748.21 1022.9,-741.21"/>
<text text-anchor="middle" x="1088" y="-749" font-family="Helvetica,sans-Serif" font-size="10.00"> attr</text>
</g>
<!-- Node7 -->
<g id="node7" class="node">
<title>Node7</title>
<g id="a_node7"><a xlink:href="structJ3DShapeMtx.html" target="_top" xlink:title=" ">
<polygon fill="white" stroke="black" points="1150,-662.5 1150,-681.5 1227,-681.5 1227,-662.5 1150,-662.5"/>
<text text-anchor="middle" x="1188.5" y="-669.5" font-family="Helvetica,sans-Serif" font-size="10.00">J3DShapeMtx</text>
</a>
</g>
</g>
<!-- Node7&#45;&gt;Node3 -->
<g id="edge8" class="edge">
<title>Node7&#45;&gt;Node3</title>
<path fill="none" stroke="#9a32cd" stroke-dasharray="5,2" d="M1237.31,-672.86C1273.18,-671.06 1321.5,-663.09 1354,-636 1369.91,-622.73 1357.13,-607.43 1372,-593 1377.42,-587.74 1384.44,-583.9 1391.49,-581.12"/>
<polygon fill="#9a32cd" stroke="#9a32cd" points="1236.94,-669.37 1227.08,-673.23 1237.2,-676.37 1236.94,-669.37"/>
<text text-anchor="middle" x="1304" y="-674" font-family="Helvetica,sans-Serif" font-size="10.00"> mShapeMtx</text>
</g>
<!-- Node8 -->
<g id="node8" class="node">
<title>Node8</title>
<g id="a_node8"><a xlink:href="structJ3DShapeDraw.html" target="_top" xlink:title=" ">
<polygon fill="white" stroke="black" points="1146.5,-624.5 1146.5,-643.5 1230.5,-643.5 1230.5,-624.5 1146.5,-624.5"/>
<text text-anchor="middle" x="1188.5" y="-631.5" font-family="Helvetica,sans-Serif" font-size="10.00">J3DShapeDraw</text>
</a>
</g>
</g>
<!-- Node8&#45;&gt;Node3 -->
<g id="edge9" class="edge">
<title>Node8&#45;&gt;Node3</title>
<path fill="none" stroke="#9a32cd" stroke-dasharray="5,2" d="M1240.97,-624.47C1273.61,-618 1316.59,-608.7 1354,-598 1368.47,-593.86 1384.34,-588.27 1397.06,-583.53"/>
<polygon fill="#9a32cd" stroke="#9a32cd" points="1239.9,-621.12 1230.76,-626.47 1241.24,-627.99 1239.9,-621.12"/>
<text text-anchor="middle" x="1304" y="-624" font-family="Helvetica,sans-Serif" font-size="10.00"> mShapeDraw</text>
</g>
<!-- Node9 -->
<g id="node9" class="node">
<title>Node9</title>
<g id="a_node9"><a xlink:href="classJ3DCurrentMtx.html" target="_top" xlink:title=" ">
<polygon fill="white" stroke="black" points="946,-388.5 946,-407.5 1027,-407.5 1027,-388.5 946,-388.5"/>
<text text-anchor="middle" x="986.5" y="-395.5" font-family="Helvetica,sans-Serif" font-size="10.00">J3DCurrentMtx</text>
</a>
</g>
</g>
<!-- Node9&#45;&gt;Node2 -->
<g id="edge56" class="edge">
<title>Node9&#45;&gt;Node2</title>
<path fill="none" stroke="#9a32cd" stroke-dasharray="5,2" d="M1027.88,-385.49C1067.06,-373.31 1120.93,-356.41 1123,-355 1150.83,-335.97 1172.73,-301.43 1182.28,-284.66"/>
<polygon fill="#9a32cd" stroke="#9a32cd" points="1026.78,-382.17 1018.27,-388.48 1028.86,-388.85 1026.78,-382.17"/>
<text text-anchor="middle" x="1088" y="-380" font-family="Helvetica,sans-Serif" font-size="10.00"> mCurrentMtx</text>
</g>
<!-- Node9&#45;&gt;Node3 -->
<g id="edge10" class="edge">
<title>Node9&#45;&gt;Node3</title>
<path fill="none" stroke="#9a32cd" stroke-dasharray="5,2" d="M1037.26,-399.27C1127.2,-402.67 1311.49,-415.08 1354,-460 1381.44,-489 1348.02,-516.09 1372,-548 1377.37,-555.14 1385.27,-560.51 1393.19,-564.45"/>
<polygon fill="#9a32cd" stroke="#9a32cd" points="1037.15,-395.76 1027.03,-398.91 1036.9,-402.76 1037.15,-395.76"/>
<text text-anchor="middle" x="1188.5" y="-420" font-family="Helvetica,sans-Serif" font-size="10.00"> mCurrentMtx</text>
</g>
<!-- Node10 -->
<g id="node10" class="node">
<title>Node10</title>
<g id="a_node10"><a xlink:href="classJ3DCurrentMtxInfo.html" target="_top" xlink:title=" ">
<polygon fill="white" stroke="black" points="726,-388.5 726,-407.5 824,-407.5 824,-388.5 726,-388.5"/>
<text text-anchor="middle" x="775" y="-395.5" font-family="Helvetica,sans-Serif" font-size="10.00">J3DCurrentMtxInfo</text>
</a>
</g>
</g>
<!-- Node10&#45;&gt;Node9 -->
<g id="edge11" class="edge">
<title>Node10&#45;&gt;Node9</title>
<path fill="none" stroke="midnightblue" d="M834.3,-398C869.81,-398 914.25,-398 945.74,-398"/>
<polygon fill="midnightblue" stroke="midnightblue" points="834.06,-394.5 824.06,-398 834.06,-401.5 834.06,-394.5"/>
</g>
<!-- Node11 -->
<g id="node11" class="node">
<title>Node11</title>
<g id="a_node11"><a xlink:href="structJ3DVertexData.html" target="_top" xlink:title=" ">
<polygon fill="white" stroke="black" points="1147.5,-700.5 1147.5,-719.5 1229.5,-719.5 1229.5,-700.5 1147.5,-700.5"/>
<text text-anchor="middle" x="1188.5" y="-707.5" font-family="Helvetica,sans-Serif" font-size="10.00">J3DVertexData</text>
</a>
</g>
</g>
<!-- Node11&#45;&gt;Node3 -->
<g id="edge12" class="edge">
<title>Node11&#45;&gt;Node3</title>
<path fill="none" stroke="#9a32cd" stroke-dasharray="5,2" d="M1239.91,-708.89C1282.13,-706.87 1337.99,-701.28 1354,-686 1384.45,-656.93 1344.95,-625.26 1372,-593 1377.03,-587 1384.17,-582.9 1391.48,-580.08"/>
<polygon fill="#9a32cd" stroke="#9a32cd" points="1239.62,-705.4 1229.77,-709.32 1239.91,-712.39 1239.62,-705.4"/>
<text text-anchor="middle" x="1304" y="-710" font-family="Helvetica,sans-Serif" font-size="10.00"> mVertexData</text>
</g>
<!-- Node12 -->
<g id="node12" class="node">
<title>Node12</title>
<g id="a_node12"><a xlink:href="struct__GXColor.html" target="_top" xlink:title=" ">
<polygon fill="white" stroke="black" points="957,-696.5 957,-715.5 1016,-715.5 1016,-696.5 957,-696.5"/>
<text text-anchor="middle" x="986.5" y="-703.5" font-family="Helvetica,sans-Serif" font-size="10.00">_GXColor</text>
</a>
</g>
</g>
<!-- Node12&#45;&gt;Node11 -->
<g id="edge13" class="edge">
<title>Node12&#45;&gt;Node11</title>
<path fill="none" stroke="#9a32cd" stroke-dasharray="5,2" d="M1026.4,-706.78C1061.17,-707.47 1111.92,-708.49 1147.14,-709.19"/>
<polygon fill="#9a32cd" stroke="#9a32cd" points="1026.22,-703.27 1016.16,-706.57 1026.08,-710.27 1026.22,-703.27"/>
<text text-anchor="middle" x="1088" y="-711" font-family="Helvetica,sans-Serif" font-size="10.00"> mVtxColorArray</text>
</g>
<!-- Node13 -->
<g id="node13" class="node">
<title>Node13</title>
<g id="a_node13"><a xlink:href="structJ3DDrawMtxData.html" target="_top" xlink:title=" ">
<polygon fill="white" stroke="black" points="1142.5,-528.5 1142.5,-547.5 1234.5,-547.5 1234.5,-528.5 1142.5,-528.5"/>
<text text-anchor="middle" x="1188.5" y="-535.5" font-family="Helvetica,sans-Serif" font-size="10.00">J3DDrawMtxData</text>
</a>
</g>
</g>
<!-- Node13&#45;&gt;Node3 -->
<g id="edge14" class="edge">
<title>Node13&#45;&gt;Node3</title>
<path fill="none" stroke="#9a32cd" stroke-dasharray="5,2" d="M1244.76,-543.77C1276.78,-547.44 1317.79,-552.68 1354,-559 1366.3,-561.15 1379.74,-564.03 1391.38,-566.69"/>
<polygon fill="#9a32cd" stroke="#9a32cd" points="1245.03,-540.28 1234.7,-542.64 1244.25,-547.24 1245.03,-540.28"/>
<text text-anchor="middle" x="1304" y="-562" font-family="Helvetica,sans-Serif" font-size="10.00"> mDrawMtxData</text>
</g>
<!-- Node17 -->
<g id="node17" class="node">
<title>Node17</title>
<g id="a_node17"><a xlink:href="structJ3DJointTree.html" target="_top" xlink:title=" ">
<polygon fill="white" stroke="black" points="1595,-517.5 1595,-536.5 1669,-536.5 1669,-517.5 1595,-517.5"/>
<text text-anchor="middle" x="1632" y="-524.5" font-family="Helvetica,sans-Serif" font-size="10.00">J3DJointTree</text>
</a>
</g>
</g>
<!-- Node13&#45;&gt;Node17 -->
<g id="edge23" class="edge">
<title>Node13&#45;&gt;Node17</title>
<path fill="none" stroke="#9a32cd" stroke-dasharray="5,2" d="M1244.87,-536.62C1336.57,-534.34 1517.53,-529.83 1594.72,-527.9"/>
<polygon fill="#9a32cd" stroke="#9a32cd" points="1244.58,-533.13 1234.67,-536.87 1244.76,-540.12 1244.58,-533.13"/>
<text text-anchor="middle" x="1422.5" y="-536" font-family="Helvetica,sans-Serif" font-size="10.00"> mDrawMtxData</text>
</g>
<!-- Node14&#45;&gt;Node2 -->
<g id="edge15" class="edge">
<title>Node14&#45;&gt;Node2</title>
<path fill="none" stroke="#9a32cd" stroke-dasharray="5,2" d="M1415.9,-408.5C1407.21,-381.89 1387.85,-334.7 1354,-310 1348.68,-306.12 1269.08,-290.31 1222.6,-281.32"/>
<polygon fill="#9a32cd" stroke="#9a32cd" points="1412.61,-409.69 1418.9,-418.22 1419.3,-407.63 1412.61,-409.69"/>
<text text-anchor="middle" x="1304" y="-313" font-family="Helvetica,sans-Serif" font-size="10.00"> mJoint</text>
</g>
<!-- Node14&#45;&gt;Node14 -->
<g id="edge27" class="edge">
<title>Node14&#45;&gt;Node14</title>
<path fill="none" stroke="#9a32cd" stroke-dasharray="5,2" d="M1402.13,-447.4C1403.49,-452.31 1410.28,-456 1422.5,-456 1442.05,-456 1447.7,-446.57 1439.45,-437.76"/>
<polygon fill="#9a32cd" stroke="#9a32cd" points="1405.51,-448.35 1405.55,-437.76 1398.91,-446.01 1405.51,-448.35"/>
<text text-anchor="middle" x="1422.5" y="-481" font-family="Helvetica,sans-Serif" font-size="10.00"> mCallBack</text>
<text text-anchor="middle" x="1422.5" y="-470" font-family="Helvetica,sans-Serif" font-size="10.00">mChild</text>
<text text-anchor="middle" x="1422.5" y="-459" font-family="Helvetica,sans-Serif" font-size="10.00">mYounger</text>
</g>
<!-- Node15 -->
<g id="node15" class="node">
<title>Node15</title>
<g id="a_node15"><a xlink:href="structJ3DMtxCalc.html" target="_top" xlink:title=" ">
<polygon fill="white" stroke="black" points="1946,-451.5 1946,-470.5 2015,-470.5 2015,-451.5 1946,-451.5"/>
<text text-anchor="middle" x="1980.5" y="-458.5" font-family="Helvetica,sans-Serif" font-size="10.00">J3DMtxCalc</text>
</a>
</g>
</g>
<!-- Node14&#45;&gt;Node15 -->
<g id="edge17" class="edge">
<title>Node14&#45;&gt;Node15</title>
<path fill="none" stroke="#9a32cd" stroke-dasharray="5,2" d="M1460.46,-430.19C1562.59,-436.26 1847.6,-453.17 1945.77,-459"/>
<polygon fill="#9a32cd" stroke="#9a32cd" points="1460.51,-426.69 1450.32,-429.59 1460.09,-433.68 1460.51,-426.69"/>
<text text-anchor="middle" x="1726" y="-450" font-family="Helvetica,sans-Serif" font-size="10.00"> mJoint</text>
</g>
<!-- Node14&#45;&gt;Node17 -->
<g id="edge21" class="edge">
<title>Node14&#45;&gt;Node17</title>
<path fill="none" stroke="#9a32cd" stroke-dasharray="5,2" d="M1452.46,-442.03C1464.3,-447.58 1478.2,-453.84 1491,-459 1528.55,-474.13 1540.99,-470.51 1577,-489 1592.5,-496.96 1608.63,-508.86 1619.18,-517.22"/>
<polygon fill="#9a32cd" stroke="#9a32cd" points="1453.61,-438.7 1443.07,-437.59 1450.61,-445.03 1453.61,-438.7"/>
<text text-anchor="middle" x="1534" y="-503" font-family="Helvetica,sans-Serif" font-size="10.00"> mJointNodePointer</text>
<text text-anchor="middle" x="1534" y="-492" font-family="Helvetica,sans-Serif" font-size="10.00">mRootNode</text>
</g>
<!-- Node15&#45;&gt;Node14 -->
<g id="edge16" class="edge">
<title>Node15&#45;&gt;Node14</title>
<path fill="none" stroke="#9a32cd" stroke-dasharray="5,2" d="M1957.62,-446C1948.76,-440.54 1938.23,-434.79 1928,-431 1858.93,-405.41 1838.36,-407.69 1765,-401 1647.73,-390.3 1507.57,-412.3 1450.09,-422.82"/>
<polygon fill="#9a32cd" stroke="#9a32cd" points="1955.85,-449.03 1966.15,-451.49 1959.63,-443.14 1955.85,-449.03"/>
<text text-anchor="middle" x="1726" y="-415" font-family="Helvetica,sans-Serif" font-size="10.00"> mCurrentMtxCalc</text>
<text text-anchor="middle" x="1726" y="-404" font-family="Helvetica,sans-Serif" font-size="10.00">mMtxCalc</text>
</g>
<!-- Node15&#45;&gt;Node17 -->
<g id="edge22" class="edge">
<title>Node15&#45;&gt;Node17</title>
<path fill="none" stroke="#9a32cd" stroke-dasharray="5,2" d="M1956.93,-475.93C1948.2,-481.1 1937.94,-486.47 1928,-490 1838.75,-521.7 1725.88,-526.97 1669.1,-527.41"/>
<polygon fill="#9a32cd" stroke="#9a32cd" points="1959.04,-478.74 1965.7,-470.51 1955.35,-472.79 1959.04,-478.74"/>
<text text-anchor="middle" x="1820.5" y="-523" font-family="Helvetica,sans-Serif" font-size="10.00"> mBasicMtxCalc</text>
</g>
<!-- Node16 -->
<g id="node16" class="node">
<title>Node16</title>
<g id="a_node16"><a xlink:href="classJ3DMtxBuffer.html" target="_top" xlink:title=" ">
<polygon fill="white" stroke="black" points="1783,-473.5 1783,-492.5 1858,-492.5 1858,-473.5 1783,-473.5"/>
<text text-anchor="middle" x="1820.5" y="-480.5" font-family="Helvetica,sans-Serif" font-size="10.00">J3DMtxBuffer</text>
</a>
</g>
</g>
<!-- Node16&#45;&gt;Node15 -->
<g id="edge18" class="edge">
<title>Node16&#45;&gt;Node15</title>
<path fill="none" stroke="#9a32cd" stroke-dasharray="5,2" d="M1868.11,-476.51C1893.02,-473.04 1923.12,-468.85 1945.75,-465.7"/>
<polygon fill="#9a32cd" stroke="#9a32cd" points="1867.57,-473.05 1858.15,-477.9 1868.53,-479.98 1867.57,-473.05"/>
<text text-anchor="middle" x="1902" y="-478" font-family="Helvetica,sans-Serif" font-size="10.00"> mMtxBuffer</text>
</g>
<!-- Node17&#45;&gt;Node16 -->
<g id="edge19" class="edge">
<title>Node17&#45;&gt;Node16</title>
<path fill="none" stroke="#9a32cd" stroke-dasharray="5,2" d="M1661.86,-513.16C1669.86,-509.76 1678.65,-506.4 1687,-504 1718.79,-494.86 1756.08,-489.4 1782.99,-486.35"/>
<polygon fill="#9a32cd" stroke="#9a32cd" points="1660.3,-510.03 1652.58,-517.28 1663.14,-516.43 1660.3,-510.03"/>
<text text-anchor="middle" x="1726" y="-507" font-family="Helvetica,sans-Serif" font-size="10.00"> mJointTree</text>
</g>
<!-- Node18 -->
<g id="node18" class="node">
<title>Node18</title>
<g id="a_node18"><a xlink:href="structJ3DModelHierarchy.html" target="_top" xlink:title=" ">
<polygon fill="white" stroke="black" points="1372,-602.5 1372,-621.5 1473,-621.5 1473,-602.5 1372,-602.5"/>
<text text-anchor="middle" x="1422.5" y="-609.5" font-family="Helvetica,sans-Serif" font-size="10.00">J3DModelHierarchy</text>
</a>
</g>
</g>
<!-- Node18&#45;&gt;Node17 -->
<g id="edge20" class="edge">
<title>Node18&#45;&gt;Node17</title>
<path fill="none" stroke="#9a32cd" stroke-dasharray="5,2" d="M1458.15,-598.85C1463.14,-596.91 1468.21,-594.92 1473,-593 1521.57,-573.54 1578.03,-549.64 1608.58,-536.61"/>
<polygon fill="#9a32cd" stroke="#9a32cd" points="1456.81,-595.61 1448.74,-602.48 1459.33,-602.14 1456.81,-595.61"/>
<text text-anchor="middle" x="1534" y="-587" font-family="Helvetica,sans-Serif" font-size="10.00"> mHierarchy</text>
</g>
<!-- Node19 -->
<g id="node19" class="node">
<title>Node19</title>
<g id="a_node19"><a xlink:href="structJUTNameTab.html" target="_top" xlink:title=" ">
<polygon fill="white" stroke="black" points="328,-239.5 328,-258.5 406,-258.5 406,-239.5 328,-239.5"/>
<text text-anchor="middle" x="367" y="-246.5" font-family="Helvetica,sans-Serif" font-size="10.00">JUTNameTab</text>
</a>
</g>
</g>
<!-- Node19&#45;&gt;Node1 -->
<g id="edge59" class="edge">
<title>Node19&#45;&gt;Node1</title>
<path fill="none" stroke="#9a32cd" stroke-dasharray="5,2" d="M379.42,-230.54C410.8,-180.85 499.25,-48 548,-48 548,-48 548,-48 1189.5,-48 1254.35,-48 1329.39,-48 1376.16,-48"/>
<polygon fill="#9a32cd" stroke="#9a32cd" points="376.27,-228.97 373.93,-239.31 382.2,-232.69 376.27,-228.97"/>
<text text-anchor="middle" x="881.5" y="-62" font-family="Helvetica,sans-Serif" font-size="10.00"> mMaterialName</text>
<text text-anchor="middle" x="881.5" y="-51" font-family="Helvetica,sans-Serif" font-size="10.00">mTextureName</text>
</g>
<!-- Node19&#45;&gt;Node17 -->
<g id="edge24" class="edge">
<title>Node19&#45;&gt;Node17</title>
<path fill="none" stroke="#9a32cd" stroke-dasharray="5,2" d="M370.15,-268.86C381.24,-366.38 435.88,-790 548,-790 548,-790 548,-790 1423.5,-790 1555.23,-790 1616.29,-584.12 1628.62,-536.67"/>
<polygon fill="#9a32cd" stroke="#9a32cd" points="373.62,-268.4 369.04,-258.85 366.66,-269.18 373.62,-268.4"/>
<text text-anchor="middle" x="986.5" y="-793" font-family="Helvetica,sans-Serif" font-size="10.00"> mJointName</text>
</g>
<!-- Node31 -->
<g id="node31" class="node">
<title>Node31</title>
<g id="a_node31"><a xlink:href="classJ3DAnmColor.html" target="_top" xlink:title=" ">
<polygon fill="white" stroke="black" points="510.5,-152.5 510.5,-171.5 587.5,-171.5 587.5,-152.5 510.5,-152.5"/>
<text text-anchor="middle" x="549" y="-159.5" font-family="Helvetica,sans-Serif" font-size="10.00">J3DAnmColor</text>
</a>
</g>
</g>
<!-- Node19&#45;&gt;Node31 -->
<g id="edge42" class="edge">
<title>Node19&#45;&gt;Node31</title>
<path fill="none" stroke="#9a32cd" stroke-dasharray="5,2" d="M386.19,-232.92C396.72,-224.17 410.52,-213.6 424,-206 451.46,-190.51 485.34,-178.94 510.75,-171.56"/>
<polygon fill="#9a32cd" stroke="#9a32cd" points="383.85,-230.31 378.51,-239.46 388.39,-235.64 383.85,-230.31"/>
<text text-anchor="middle" x="447" y="-209" font-family="Helvetica,sans-Serif" font-size="10.00"> field_0x1c</text>
</g>
<!-- Node34 -->
<g id="node34" class="node">
<title>Node34</title>
<g id="a_node34"><a xlink:href="structJ3DAnmTextureSRTKey.html" target="_top" xlink:title=" ">
<polygon fill="white" stroke="black" points="488,-190.5 488,-209.5 610,-209.5 610,-190.5 488,-190.5"/>
<text text-anchor="middle" x="549" y="-197.5" font-family="Helvetica,sans-Serif" font-size="10.00">J3DAnmTextureSRTKey</text>
</a>
</g>
</g>
<!-- Node19&#45;&gt;Node34 -->
<g id="edge46" class="edge">
<title>Node19&#45;&gt;Node34</title>
<path fill="none" stroke="#9a32cd" stroke-dasharray="5,2" d="M412.82,-236.8C443.77,-228.37 484.36,-217.32 512.96,-209.54"/>
<polygon fill="#9a32cd" stroke="#9a32cd" points="411.86,-233.43 403.13,-239.44 413.7,-240.19 411.86,-233.43"/>
<text text-anchor="middle" x="447" y="-247" font-family="Helvetica,sans-Serif" font-size="10.00"> field_0x30</text>
<text text-anchor="middle" x="447" y="-236" font-family="Helvetica,sans-Serif" font-size="10.00">field_0x64</text>
</g>
<!-- Node36 -->
<g id="node36" class="node">
<title>Node36</title>
<g id="a_node36"><a xlink:href="structJ3DAnmTexPattern.html" target="_top" xlink:title=" ">
<polygon fill="white" stroke="black" points="498.5,-228.5 498.5,-247.5 599.5,-247.5 599.5,-228.5 498.5,-228.5"/>
<text text-anchor="middle" x="549" y="-235.5" font-family="Helvetica,sans-Serif" font-size="10.00">J3DAnmTexPattern</text>
</a>
</g>
</g>
<!-- Node19&#45;&gt;Node36 -->
<g id="edge50" class="edge">
<title>Node19&#45;&gt;Node36</title>
<path fill="none" stroke="#9a32cd" stroke-dasharray="5,2" d="M395.25,-262.68C404.18,-266.48 414.31,-270.09 424,-272 444.06,-275.96 449.99,-276.17 470,-272 492.42,-267.33 516.28,-255.85 531.62,-247.52"/>
<polygon fill="#9a32cd" stroke="#9a32cd" points="396.66,-259.47 386.1,-258.55 393.78,-265.85 396.66,-259.47"/>
<text text-anchor="middle" x="447" y="-278" font-family="Helvetica,sans-Serif" font-size="10.00"> field_0x1c</text>
</g>
<!-- Node20 -->
<g id="node20" class="node">
<title>Node20</title>
<g id="a_node20"><a xlink:href="structResNTAB.html" target="_top" xlink:title=" ">
<polygon fill="white" stroke="black" points="164,-239.5 164,-258.5 225,-258.5 225,-239.5 164,-239.5"/>
<text text-anchor="middle" x="194.5" y="-246.5" font-family="Helvetica,sans-Serif" font-size="10.00">ResNTAB</text>
</a>
</g>
</g>
<!-- Node20&#45;&gt;Node19 -->
<g id="edge25" class="edge">
<title>Node20&#45;&gt;Node19</title>
<path fill="none" stroke="#9a32cd" stroke-dasharray="5,2" d="M235.42,-249C263.36,-249 300.47,-249 327.98,-249"/>
<polygon fill="#9a32cd" stroke="#9a32cd" points="235.2,-245.5 225.2,-249 235.2,-252.5 235.2,-245.5"/>
<text text-anchor="middle" x="276.5" y="-252" font-family="Helvetica,sans-Serif" font-size="10.00"> mpNameTable</text>
</g>
<!-- Node21 -->
<g id="node21" class="node">
<title>Node21</title>
<g id="a_node21"><a xlink:href="structResNTAB_1_1Entry.html" target="_top" xlink:title=" ">
<polygon fill="white" stroke="black" points="0,-239.5 0,-258.5 87,-258.5 87,-239.5 0,-239.5"/>
<text text-anchor="middle" x="43.5" y="-246.5" font-family="Helvetica,sans-Serif" font-size="10.00">ResNTAB::Entry</text>
</a>
</g>
</g>
<!-- Node21&#45;&gt;Node20 -->
<g id="edge26" class="edge">
<title>Node21&#45;&gt;Node20</title>
<path fill="none" stroke="#9a32cd" stroke-dasharray="5,2" d="M97.49,-249C119.68,-249 144.65,-249 163.56,-249"/>
<polygon fill="#9a32cd" stroke="#9a32cd" points="97.2,-245.5 87.2,-249 97.2,-252.5 97.2,-245.5"/>
<text text-anchor="middle" x="125.5" y="-252" font-family="Helvetica,sans-Serif" font-size="10.00"> mEntries</text>
</g>
<!-- Node22&#45;&gt;Node14 -->
<g id="edge28" class="edge">
<title>Node22&#45;&gt;Node14</title>
<path fill="none" stroke="#9a32cd" stroke-dasharray="5,2" d="M1246.34,-491.53C1278.54,-485.75 1319.22,-476.8 1354,-464 1372.94,-457.03 1393.19,-445.64 1406.51,-437.54"/>
<polygon fill="#9a32cd" stroke="#9a32cd" points="1245.45,-488.13 1236.2,-493.29 1246.65,-495.03 1245.45,-488.13"/>
<text text-anchor="middle" x="1304" y="-492" font-family="Helvetica,sans-Serif" font-size="10.00"> mTransformInfo</text>
</g>
<!-- Node23 -->
<g id="node23" class="node">
<title>Node23</title>
<g id="a_node23"><a xlink:href="structSVec.html" target="_top" xlink:title=" ">
<polygon fill="white" stroke="black" points="966,-607.5 966,-626.5 1007,-626.5 1007,-607.5 966,-607.5"/>
<text text-anchor="middle" x="986.5" y="-614.5" font-family="Helvetica,sans-Serif" font-size="10.00">SVec</text>
</a>
</g>
</g>
<!-- Node23&#45;&gt;Node22 -->
<g id="edge30" class="edge">
<title>Node23&#45;&gt;Node22</title>
<path fill="none" stroke="#9a32cd" stroke-dasharray="5,2" d="M1009.17,-601.39C1038.24,-580.86 1091.9,-544.44 1141,-519 1147.5,-515.63 1154.75,-512.43 1161.54,-509.64"/>
<polygon fill="#9a32cd" stroke="#9a32cd" points="1007.09,-598.57 1000.97,-607.22 1011.15,-604.28 1007.09,-598.57"/>
<text text-anchor="middle" x="1088" y="-572" font-family="Helvetica,sans-Serif" font-size="10.00"> mRotation</text>
</g>
<!-- Node24 -->
<g id="node24" class="node">
<title>Node24</title>
<g id="a_node24"><a xlink:href="structJ3DColorBlock.html" target="_top" xlink:title=" ">
<polygon fill="white" stroke="black" points="946,-193.5 946,-212.5 1027,-212.5 1027,-193.5 946,-193.5"/>
<text text-anchor="middle" x="986.5" y="-200.5" font-family="Helvetica,sans-Serif" font-size="10.00">J3DColorBlock</text>
</a>
</g>
</g>
<!-- Node24&#45;&gt;Node2 -->
<g id="edge33" class="edge">
<title>Node24&#45;&gt;Node2</title>
<path fill="none" stroke="#9a32cd" stroke-dasharray="5,2" d="M1037.28,-209.62C1063.48,-214.19 1095.74,-221.55 1123,-233 1142.71,-241.28 1162.98,-255.61 1175.41,-265.2"/>
<polygon fill="#9a32cd" stroke="#9a32cd" points="1037.63,-206.13 1027.19,-207.95 1036.48,-213.04 1037.63,-206.13"/>
<text text-anchor="middle" x="1088" y="-236" font-family="Helvetica,sans-Serif" font-size="10.00"> mColorBlock</text>
</g>
<!-- Node25 -->
<g id="node25" class="node">
<title>Node25</title>
<g id="a_node25"><a xlink:href="structJ3DTexGenBlock.html" target="_top" xlink:title=" ">
<polygon fill="white" stroke="black" points="940.5,-155.5 940.5,-174.5 1032.5,-174.5 1032.5,-155.5 940.5,-155.5"/>
<text text-anchor="middle" x="986.5" y="-162.5" font-family="Helvetica,sans-Serif" font-size="10.00">J3DTexGenBlock</text>
</a>
</g>
</g>
<!-- Node25&#45;&gt;Node2 -->
<g id="edge34" class="edge">
<title>Node25&#45;&gt;Node2</title>
<path fill="none" stroke="#9a32cd" stroke-dasharray="5,2" d="M1042.73,-169.86C1068.62,-174.11 1098.98,-182.08 1123,-197 1151.21,-214.53 1172.92,-248.69 1182.36,-265.37"/>
<polygon fill="#9a32cd" stroke="#9a32cd" points="1043.09,-166.38 1032.68,-168.36 1042.06,-173.3 1043.09,-166.38"/>
<text text-anchor="middle" x="1088" y="-200" font-family="Helvetica,sans-Serif" font-size="10.00"> mTexGenBlock</text>
</g>
<!-- Node26 -->
<g id="node26" class="node">
<title>Node26</title>
<g id="a_node26"><a xlink:href="structJ3DTevBlock.html" target="_top" xlink:title=" ">
<polygon fill="white" stroke="black" points="949,-345.5 949,-364.5 1024,-364.5 1024,-345.5 949,-345.5"/>
<text text-anchor="middle" x="986.5" y="-352.5" font-family="Helvetica,sans-Serif" font-size="10.00">J3DTevBlock</text>
</a>
</g>
</g>
<!-- Node26&#45;&gt;Node2 -->
<g id="edge35" class="edge">
<title>Node26&#45;&gt;Node2</title>
<path fill="none" stroke="#9a32cd" stroke-dasharray="5,2" d="M1034.08,-345.63C1060.8,-339.36 1094.58,-329.87 1123,-317 1142.48,-308.18 1162.8,-293.98 1175.31,-284.57"/>
<polygon fill="#9a32cd" stroke="#9a32cd" points="1033.18,-342.25 1024.21,-347.88 1034.74,-349.07 1033.18,-342.25"/>
<text text-anchor="middle" x="1088" y="-343" font-family="Helvetica,sans-Serif" font-size="10.00"> mTevBlock</text>
</g>
<!-- Node27 -->
<g id="node27" class="node">
<title>Node27</title>
<g id="a_node27"><a xlink:href="classJ3DIndBlock.html" target="_top" xlink:title=" ">
<polygon fill="white" stroke="black" points="950.5,-269.5 950.5,-288.5 1022.5,-288.5 1022.5,-269.5 950.5,-269.5"/>
<text text-anchor="middle" x="986.5" y="-276.5" font-family="Helvetica,sans-Serif" font-size="10.00">J3DIndBlock</text>
</a>
</g>
</g>
<!-- Node27&#45;&gt;Node2 -->
<g id="edge36" class="edge">
<title>Node27&#45;&gt;Node2</title>
<path fill="none" stroke="#9a32cd" stroke-dasharray="5,2" d="M1032.91,-276.69C1039.65,-276.42 1046.5,-276.17 1053,-276 1087.55,-275.08 1127.1,-274.89 1154.33,-274.89"/>
<polygon fill="#9a32cd" stroke="#9a32cd" points="1032.34,-273.22 1022.5,-277.15 1032.65,-280.21 1032.34,-273.22"/>
<text text-anchor="middle" x="1088" y="-279" font-family="Helvetica,sans-Serif" font-size="10.00"> mIndBlock</text>
</g>
<!-- Node28 -->
<g id="node28" class="node">
<title>Node28</title>
<g id="a_node28"><a xlink:href="structJ3DPEBlock.html" target="_top" xlink:title=" ">
<polygon fill="white" stroke="black" points="951,-231.5 951,-250.5 1022,-250.5 1022,-231.5 951,-231.5"/>
<text text-anchor="middle" x="986.5" y="-238.5" font-family="Helvetica,sans-Serif" font-size="10.00">J3DPEBlock</text>
</a>
</g>
</g>
<!-- Node28&#45;&gt;Node2 -->
<g id="edge37" class="edge">
<title>Node28&#45;&gt;Node2</title>
<path fill="none" stroke="#9a32cd" stroke-dasharray="5,2" d="M1032.32,-245.69C1058.81,-248.77 1092.95,-253.3 1123,-259 1133.2,-260.94 1144.2,-263.49 1154.18,-265.99"/>
<polygon fill="#9a32cd" stroke="#9a32cd" points="1032.53,-242.19 1022.2,-244.53 1031.74,-249.14 1032.53,-242.19"/>
<text text-anchor="middle" x="1088" y="-262" font-family="Helvetica,sans-Serif" font-size="10.00"> mPEBlock</text>
</g>
<!-- Node29 -->
<g id="node29" class="node">
<title>Node29</title>
<g id="a_node29"><a xlink:href="structJ3DMaterialAnm.html" target="_top" xlink:title=" ">
<polygon fill="white" stroke="black" points="942,-117.5 942,-136.5 1031,-136.5 1031,-117.5 942,-117.5"/>
<text text-anchor="middle" x="986.5" y="-124.5" font-family="Helvetica,sans-Serif" font-size="10.00">J3DMaterialAnm</text>
</a>
</g>
</g>
<!-- Node29&#45;&gt;Node2 -->
<g id="edge38" class="edge">
<title>Node29&#45;&gt;Node2</title>
<path fill="none" stroke="#9a32cd" stroke-dasharray="5,2" d="M1041.04,-128.58C1067.89,-131.77 1099.6,-139.42 1123,-157 1160.71,-185.32 1179.07,-242.42 1185.13,-265.24"/>
<polygon fill="#9a32cd" stroke="#9a32cd" points="1041.31,-125.09 1031.01,-127.57 1040.6,-132.06 1041.31,-125.09"/>
<text text-anchor="middle" x="1088" y="-160" font-family="Helvetica,sans-Serif" font-size="10.00"> mMaterialAnm</text>
</g>
<!-- Node30 -->
<g id="node30" class="node">
<title>Node30</title>
<g id="a_node30"><a xlink:href="structJ3DMatColorAnm.html" target="_top" xlink:title=" ">
<polygon fill="white" stroke="black" points="728.5,-152.5 728.5,-171.5 821.5,-171.5 821.5,-152.5 728.5,-152.5"/>
<text text-anchor="middle" x="775" y="-159.5" font-family="Helvetica,sans-Serif" font-size="10.00">J3DMatColorAnm</text>
</a>
</g>
</g>
<!-- Node30&#45;&gt;Node29 -->
<g id="edge39" class="edge">
<title>Node30&#45;&gt;Node29</title>
<path fill="none" stroke="#9a32cd" stroke-dasharray="5,2" d="M831.71,-153.41C858.44,-149.2 890.9,-143.99 920,-139 927.06,-137.79 934.55,-136.46 941.84,-135.14"/>
<polygon fill="#9a32cd" stroke="#9a32cd" points="831.1,-149.96 821.77,-154.96 832.19,-156.87 831.1,-149.96"/>
<text text-anchor="middle" x="881.5" y="-154" font-family="Helvetica,sans-Serif" font-size="10.00"> mMatColorAnm</text>
</g>
<!-- Node31&#45;&gt;Node30 -->
<g id="edge40" class="edge">
<title>Node31&#45;&gt;Node30</title>
<path fill="none" stroke="#9a32cd" stroke-dasharray="5,2" d="M598.2,-162C636.76,-162 690.47,-162 728.35,-162"/>
<polygon fill="#9a32cd" stroke="#9a32cd" points="597.75,-158.5 587.75,-162 597.75,-165.5 597.75,-158.5"/>
<text text-anchor="middle" x="667.5" y="-165" font-family="Helvetica,sans-Serif" font-size="10.00"> mAnmColor</text>
</g>
<!-- Node32 -->
<g id="node32" class="node">
<title>Node32</title>
<g id="a_node32"><a xlink:href="classJ3DAnmBase.html" target="_top" xlink:title=" ">
<polygon fill="white" stroke="black" points="328.5,-135.5 328.5,-154.5 405.5,-154.5 405.5,-135.5 328.5,-135.5"/>
<text text-anchor="middle" x="367" y="-142.5" font-family="Helvetica,sans-Serif" font-size="10.00">J3DAnmBase</text>
</a>
</g>
</g>
<!-- Node32&#45;&gt;Node31 -->
<g id="edge41" class="edge">
<title>Node32&#45;&gt;Node31</title>
<path fill="none" stroke="midnightblue" d="M416.17,-143.57C433.22,-143.57 452.5,-144.14 470,-146 483.2,-147.4 497.46,-150.01 510.14,-152.71"/>
<polygon fill="midnightblue" stroke="midnightblue" points="415.86,-140.07 405.88,-143.64 415.91,-147.07 415.86,-140.07"/>
</g>
<!-- Node32&#45;&gt;Node34 -->
<g id="edge45" class="edge">
<title>Node32&#45;&gt;Node34</title>
<path fill="none" stroke="midnightblue" d="M415.53,-154.43C432.97,-158.59 452.68,-164.12 470,-171 478.5,-174.38 479.6,-177.38 488,-181 496.13,-184.5 505.12,-187.69 513.61,-190.41"/>
<polygon fill="midnightblue" stroke="midnightblue" points="416.08,-150.97 405.55,-152.14 414.52,-157.79 416.08,-150.97"/>
</g>
<!-- Node32&#45;&gt;Node36 -->
<g id="edge49" class="edge">
<title>Node32&#45;&gt;Node36</title>
<path fill="none" stroke="midnightblue" d="M381.15,-162.57C391.49,-175.23 406.97,-191.83 424,-202 446.61,-215.51 474.59,-224.2 498.24,-229.65"/>
<polygon fill="midnightblue" stroke="midnightblue" points="383.78,-160.25 374.85,-154.55 378.27,-164.58 383.78,-160.25"/>
</g>
<!-- Node38 -->
<g id="node38" class="node">
<title>Node38</title>
<g id="a_node38"><a xlink:href="structJ3DAnmTevRegKey.html" target="_top" xlink:title=" ">
<polygon fill="white" stroke="black" points="497,-97.5 497,-116.5 601,-116.5 601,-97.5 497,-97.5"/>
<text text-anchor="middle" x="549" y="-104.5" font-family="Helvetica,sans-Serif" font-size="10.00">J3DAnmTevRegKey</text>
</a>
</g>
</g>
<!-- Node32&#45;&gt;Node38 -->
<g id="edge53" class="edge">
<title>Node32&#45;&gt;Node38</title>
<path fill="none" stroke="midnightblue" d="M415.75,-134.92C442.79,-129.21 476.42,-122.11 502.99,-116.5"/>
<polygon fill="midnightblue" stroke="midnightblue" points="414.8,-131.54 405.73,-137.03 416.24,-138.39 414.8,-131.54"/>
</g>
<!-- Node33 -->
<g id="node33" class="node">
<title>Node33</title>
<g id="a_node33"><a xlink:href="structJ3DTexMtxAnm.html" target="_top" xlink:title=" ">
<polygon fill="white" stroke="black" points="732,-190.5 732,-209.5 818,-209.5 818,-190.5 732,-190.5"/>
<text text-anchor="middle" x="775" y="-197.5" font-family="Helvetica,sans-Serif" font-size="10.00">J3DTexMtxAnm</text>
</a>
</g>
</g>
<!-- Node33&#45;&gt;Node29 -->
<g id="edge43" class="edge">
<title>Node33&#45;&gt;Node29</title>
<path fill="none" stroke="#9a32cd" stroke-dasharray="5,2" d="M828.43,-195.32C857.07,-190.94 892.25,-182.44 920,-166 930.29,-159.9 928.19,-152.84 938,-146 943.24,-142.34 949.3,-139.24 955.29,-136.67"/>
<polygon fill="#9a32cd" stroke="#9a32cd" points="827.62,-191.9 818.21,-196.76 828.59,-198.83 827.62,-191.9"/>
<text text-anchor="middle" x="881.5" y="-195" font-family="Helvetica,sans-Serif" font-size="10.00"> mTexMtxAnm</text>
</g>
<!-- Node34&#45;&gt;Node33 -->
<g id="edge44" class="edge">
<title>Node34&#45;&gt;Node33</title>
<path fill="none" stroke="#9a32cd" stroke-dasharray="5,2" d="M620.17,-200C656.83,-200 700.48,-200 731.9,-200"/>
<polygon fill="#9a32cd" stroke="#9a32cd" points="620.03,-196.5 610.03,-200 620.03,-203.5 620.03,-196.5"/>
<text text-anchor="middle" x="667.5" y="-203" font-family="Helvetica,sans-Serif" font-size="10.00"> mAnmTransform</text>
</g>
<!-- Node35 -->
<g id="node35" class="node">
<title>Node35</title>
<g id="a_node35"><a xlink:href="structJ3DTexNoAnm.html" target="_top" xlink:title=" ">
<polygon fill="white" stroke="black" points="733.5,-228.5 733.5,-247.5 816.5,-247.5 816.5,-228.5 733.5,-228.5"/>
<text text-anchor="middle" x="775" y="-235.5" font-family="Helvetica,sans-Serif" font-size="10.00">J3DTexNoAnm</text>
</a>
</g>
</g>
<!-- Node35&#45;&gt;Node29 -->
<g id="edge47" class="edge">
<title>Node35&#45;&gt;Node29</title>
<path fill="none" stroke="#9a32cd" stroke-dasharray="5,2" d="M826.85,-239.41C857.45,-237.54 895.16,-230.05 920,-207 940.72,-187.77 918.97,-166.9 938,-146 941.47,-142.19 945.8,-139.13 950.43,-136.68"/>
<polygon fill="#9a32cd" stroke="#9a32cd" points="826.61,-235.91 816.77,-239.84 826.91,-242.91 826.61,-235.91"/>
<text text-anchor="middle" x="881.5" y="-240" font-family="Helvetica,sans-Serif" font-size="10.00"> mTexNoAnm</text>
</g>
<!-- Node36&#45;&gt;Node35 -->
<g id="edge48" class="edge">
<title>Node36&#45;&gt;Node35</title>
<path fill="none" stroke="#9a32cd" stroke-dasharray="5,2" d="M609.91,-238C648.98,-238 698.93,-238 733.4,-238"/>
<polygon fill="#9a32cd" stroke="#9a32cd" points="609.71,-234.5 599.71,-238 609.71,-241.5 609.71,-234.5"/>
<text text-anchor="middle" x="667.5" y="-241" font-family="Helvetica,sans-Serif" font-size="10.00"> mAnmTexPattern</text>
</g>
<!-- Node37 -->
<g id="node37" class="node">
<title>Node37</title>
<g id="a_node37"><a xlink:href="structJ3DTevColorAnm.html" target="_top" xlink:title=" ">
<polygon fill="white" stroke="black" points="728.5,-114.5 728.5,-133.5 821.5,-133.5 821.5,-114.5 728.5,-114.5"/>
<text text-anchor="middle" x="775" y="-121.5" font-family="Helvetica,sans-Serif" font-size="10.00">J3DTevColorAnm</text>
</a>
</g>
</g>
<!-- Node37&#45;&gt;Node29 -->
<g id="edge51" class="edge">
<title>Node37&#45;&gt;Node29</title>
<path fill="none" stroke="#9a32cd" stroke-dasharray="5,2" d="M832.07,-124.8C866.45,-125.3 909.82,-125.92 941.67,-126.37"/>
<polygon fill="#9a32cd" stroke="#9a32cd" points="831.77,-121.3 821.72,-124.65 831.67,-128.3 831.77,-121.3"/>
<text text-anchor="middle" x="881.5" y="-129" font-family="Helvetica,sans-Serif" font-size="10.00"> mTevColorAnm</text>
</g>
<!-- Node38&#45;&gt;Node37 -->
<g id="edge52" class="edge">
<title>Node38&#45;&gt;Node37</title>
<path fill="none" stroke="#9a32cd" stroke-dasharray="5,2" d="M611.28,-111.65C648.29,-114.46 694.67,-117.98 728.43,-120.54"/>
<polygon fill="#9a32cd" stroke="#9a32cd" points="611.35,-108.15 601.11,-110.88 610.82,-115.13 611.35,-108.15"/>
<text text-anchor="middle" x="667.5" y="-121" font-family="Helvetica,sans-Serif" font-size="10.00"> mAnmTevReg</text>
</g>
<!-- Node39 -->
<g id="node39" class="node">
<title>Node39</title>
<g id="a_node39"><a xlink:href="structJ3DTevKColorAnm.html" target="_top" xlink:title=" ">
<polygon fill="white" stroke="black" points="725,-76.5 725,-95.5 825,-95.5 825,-76.5 725,-76.5"/>
<text text-anchor="middle" x="775" y="-83.5" font-family="Helvetica,sans-Serif" font-size="10.00">J3DTevKColorAnm</text>
</a>
</g>
</g>
<!-- Node38&#45;&gt;Node39 -->
<g id="edge55" class="edge">
<title>Node38&#45;&gt;Node39</title>
<path fill="none" stroke="#9a32cd" stroke-dasharray="5,2" d="M611.28,-98.84C616.93,-98.18 622.57,-97.55 628,-97 660.24,-93.72 696.58,-90.98 724.94,-89.05"/>
<polygon fill="#9a32cd" stroke="#9a32cd" points="610.65,-95.39 601.14,-100.05 611.49,-102.34 610.65,-95.39"/>
<text text-anchor="middle" x="667.5" y="-100" font-family="Helvetica,sans-Serif" font-size="10.00"> mAnmTevReg</text>
</g>
<!-- Node39&#45;&gt;Node29 -->
<g id="edge54" class="edge">
<title>Node39&#45;&gt;Node29</title>
<path fill="none" stroke="#9a32cd" stroke-dasharray="5,2" d="M835.35,-93.98C861.44,-97.88 892.37,-103.02 920,-109 930.95,-111.37 942.79,-114.46 953.36,-117.41"/>
<polygon fill="#9a32cd" stroke="#9a32cd" points="835.64,-90.49 825.24,-92.5 834.62,-97.41 835.64,-90.49"/>
<text text-anchor="middle" x="881.5" y="-112" font-family="Helvetica,sans-Serif" font-size="10.00"> mTevKColorAnm</text>
</g>
<!-- Node40 -->
<g id="node40" class="node">
<title>Node40</title>
<g id="a_node40"><a xlink:href="structJ3DDisplayListObj.html" target="_top" xlink:title=" ">
<polygon fill="white" stroke="black" points="938,-307.5 938,-326.5 1035,-326.5 1035,-307.5 938,-307.5"/>
<text text-anchor="middle" x="986.5" y="-314.5" font-family="Helvetica,sans-Serif" font-size="10.00">J3DDisplayListObj</text>
</a>
</g>
</g>
<!-- Node40&#45;&gt;Node2 -->
<g id="edge57" class="edge">
<title>Node40&#45;&gt;Node2</title>
<path fill="none" stroke="#9a32cd" stroke-dasharray="5,2" d="M1042.72,-305.4C1078.58,-297.87 1124.11,-288.31 1154.45,-281.94"/>
<polygon fill="#9a32cd" stroke="#9a32cd" points="1041.95,-301.99 1032.88,-307.47 1043.39,-308.84 1041.95,-301.99"/>
<text text-anchor="middle" x="1088" y="-305" font-family="Helvetica,sans-Serif" font-size="10.00"> mSharedDLObj</text>
</g>
<!-- Node41 -->
<g id="node41" class="node">
<title>Node41</title>
<g id="a_node41"><a xlink:href="structGDLObj.html" target="_top" xlink:title=" ">
<polygon fill="white" stroke="black" points="749,-307.5 749,-326.5 801,-326.5 801,-307.5 749,-307.5"/>
<text text-anchor="middle" x="775" y="-314.5" font-family="Helvetica,sans-Serif" font-size="10.00">GDLObj</text>
</a>
</g>
</g>
<!-- Node41&#45;&gt;Node40 -->
<g id="edge58" class="edge">
<title>Node41&#45;&gt;Node40</title>
<path fill="none" stroke="#9a32cd" stroke-dasharray="5,2" d="M811.43,-317C846.18,-317 899.41,-317 937.85,-317"/>
<polygon fill="#9a32cd" stroke="#9a32cd" points="811.27,-313.5 801.27,-317 811.27,-320.5 811.27,-313.5"/>
<text text-anchor="middle" x="881.5" y="-320" font-family="Helvetica,sans-Serif" font-size="10.00"> sGDLObj</text>
</g>
<!-- Node42 -->
<g id="node42" class="node">
<title>Node42</title>
<g id="a_node42"><a xlink:href="structJ3DTexture.html" target="_top" xlink:title=" ">
<polygon fill="white" stroke="black" points="1155.5,-0.5 1155.5,-19.5 1221.5,-19.5 1221.5,-0.5 1155.5,-0.5"/>
<text text-anchor="middle" x="1188.5" y="-7.5" font-family="Helvetica,sans-Serif" font-size="10.00">J3DTexture</text>
</a>
</g>
</g>
<!-- Node42&#45;&gt;Node1 -->
<g id="edge60" class="edge">
<title>Node42&#45;&gt;Node1</title>
<path fill="none" stroke="#9a32cd" stroke-dasharray="5,2" d="M1232.08,-10.16C1265.57,-11.05 1313.23,-14.02 1354,-23 1369.99,-26.52 1387.29,-32.99 1400.37,-38.46"/>
<polygon fill="#9a32cd" stroke="#9a32cd" points="1231.8,-6.65 1221.73,-9.94 1231.65,-13.65 1231.8,-6.65"/>
<text text-anchor="middle" x="1304" y="-26" font-family="Helvetica,sans-Serif" font-size="10.00"> mTexture</text>
</g>
<!-- Node43 -->
<g id="node43" class="node">
<title>Node43</title>
<g id="a_node43"><a xlink:href="structResTIMG.html" target="_top" xlink:title=" ">
<polygon fill="white" stroke="black" points="957,-0.5 957,-19.5 1016,-19.5 1016,-0.5 957,-0.5"/>
<text text-anchor="middle" x="986.5" y="-7.5" font-family="Helvetica,sans-Serif" font-size="10.00">ResTIMG</text>
</a>
</g>
</g>
<!-- Node43&#45;&gt;Node42 -->
<g id="edge61" class="edge">
<title>Node43&#45;&gt;Node42</title>
<path fill="none" stroke="#9a32cd" stroke-dasharray="5,2" d="M1026.21,-10C1063.76,-10 1120.07,-10 1155.25,-10"/>
<polygon fill="#9a32cd" stroke="#9a32cd" points="1026.16,-6.5 1016.16,-10 1026.16,-13.5 1026.16,-6.5"/>
<text text-anchor="middle" x="1088" y="-13" font-family="Helvetica,sans-Serif" font-size="10.00"> mpRes</text>
</g>
</g>
</svg>
