<?xml version="1.0" encoding="UTF-8" standalone="no"?>
<!DOCTYPE svg PUBLIC "-//W3C//DTD SVG 1.1//EN"
 "http://www.w3.org/Graphics/SVG/1.1/DTD/svg11.dtd">
<!-- Generated by graphviz version 7.0.5 (20221223.1930)
 -->
<!-- Title: J2DWindowEx Pages: 1 -->
<!--zoomable 708 -->
<svg id="main" version="1.1" xmlns="http://www.w3.org/2000/svg" xmlns:xlink="http://www.w3.org/1999/xlink" xml:space="preserve" onload="init(evt)">
<style type="text/css"><![CDATA[
.edge:hover path { stroke: red; }
.edge:hover polygon { stroke: red; fill: red; }
]]></style>
<script type="text/javascript"><![CDATA[
var edges = document.getElementsByTagName('g');
if (edges && edges.length) {
  for (var i=0;i<edges.length;i++) {
    if (edges[i].id.substr(0,4)=='edge') {
      edges[i].setAttribute('class','edge');
    }
  }
}
]]></script>
        <defs>
                <circle id="rim" cx="0" cy="0" r="7"/>
                <circle id="rim2" cx="0" cy="0" r="3.5"/>
                <g id="zoomPlus">
                        <use xlink:href="#rim" fill="#404040">
                                <set attributeName="fill" to="#808080" begin="zoomplus.mouseover" end="zoomplus.mouseout"/>
                        </use>
                        <path d="M-4,0h8M0,-4v8" fill="none" stroke="white" stroke-width="1.5" pointer-events="none"/>
                </g>
                <g id="zoomMin">
                        <use xlink:href="#rim" fill="#404040">
                                <set attributeName="fill" to="#808080" begin="zoomminus.mouseover" end="zoomminus.mouseout"/>
                        </use>
                        <path d="M-4,0h8" fill="none" stroke="white" stroke-width="1.5" pointer-events="none"/>
                </g>
                <g id="dirArrow">
                        <path fill="none" stroke="white" stroke-width="1.5" d="M0,-3.0v7 M-2.5,-0.5L0,-3.0L2.5,-0.5"/>
                </g>
               <g id="resetDef">
                       <use xlink:href="#rim2" fill="#404040">
                               <set attributeName="fill" to="#808080" begin="reset.mouseover" end="reset.mouseout"/>
                       </use>
               </g>
        </defs>

<script type="text/javascript">
var viewWidth = 1365;
var viewHeight = 708;
var sectionId = 'dynsection-1';
</script>
<script xlink:href="svgpan.js"/>
<svg id="graph" class="graph">
<g id="viewport">
<title>J2DWindowEx</title>
<!-- Node1 -->
<g id="node1" class="node">
<title>Node1</title>
<g id="a_node1"><a xlink:title=" ">
<polygon fill="#999999" stroke="#666666" points="1357,-132 1278,-132 1278,-113 1357,-113 1357,-132"/>
<text text-anchor="middle" x="1317.5" y="-120" font-family="Helvetica,sans-Serif" font-size="10.00">J2DWindowEx</text>
</a>
</g>
</g>
<!-- Node2 -->
<g id="node2" class="node">
<title>Node2</title>
<g id="a_node2"><a xlink:href="classJ2DWindow.html" target="_top" xlink:title=" ">
<polygon fill="white" stroke="#666666" points="1157,-483 1089,-483 1089,-464 1157,-464 1157,-483"/>
<text text-anchor="middle" x="1123" y="-471" font-family="Helvetica,sans-Serif" font-size="10.00">J2DWindow</text>
</a>
</g>
</g>
<!-- Node2&#45;&gt;Node1 -->
<g id="edge1" class="edge">
<title>Node2&#45;&gt;Node1</title>
<path fill="none" stroke="#63b8ff" d="M1134.74,-453.92C1170.5,-388.71 1284.82,-180.26 1311.09,-132.37"/>
<polygon fill="#63b8ff" stroke="#63b8ff" points="1131.82,-451.97 1130.08,-462.42 1137.95,-455.33 1131.82,-451.97"/>
</g>
<!-- Node3 -->
<g id="node3" class="node">
<title>Node3</title>
<g id="a_node3"><a xlink:href="structJ2DPane.html" target="_top" xlink:title=" ">
<polygon fill="white" stroke="#666666" points="944,-386 888,-386 888,-367 944,-367 944,-386"/>
<text text-anchor="middle" x="916" y="-374" font-family="Helvetica,sans-Serif" font-size="10.00">J2DPane</text>
</a>
</g>
</g>
<!-- Node3&#45;&gt;Node2 -->
<g id="edge2" class="edge">
<title>Node3&#45;&gt;Node2</title>
<path fill="none" stroke="#63b8ff" d="M955.81,-377.27C988.7,-379.54 1035.97,-386.77 1071,-408.5 1093.18,-422.26 1109.6,-449.31 1117.24,-463.8"/>
<polygon fill="#63b8ff" stroke="#63b8ff" points="956.08,-373.78 945.9,-376.72 955.7,-380.77 956.08,-373.78"/>
</g>
<!-- Node4 -->
<g id="node4" class="node">
<title>Node4</title>
<g id="a_node4"><a xlink:href="structJGeometry_1_1TBox2.html" target="_top" xlink:title=" ">
<polygon fill="white" stroke="#666666" points="709,-502 583,-502 583,-483 709,-483 709,-502"/>
<text text-anchor="middle" x="646" y="-490" font-family="Helvetica,sans-Serif" font-size="10.00">JGeometry::TBox2&lt; f32 &gt;</text>
</a>
</g>
</g>
<!-- Node4&#45;&gt;Node2 -->
<g id="edge21" class="edge">
<title>Node4&#45;&gt;Node2</title>
<path fill="none" stroke="#9a32cd" stroke-dasharray="5,2" d="M720.74,-503.02C722.85,-503.2 724.94,-503.36 727,-503.5 861.14,-512.68 1020.76,-490.34 1088.72,-479.27"/>
<polygon fill="#9a32cd" stroke="#9a32cd" points="721.16,-499.54 710.87,-502.06 720.49,-506.51 721.16,-499.54"/>
<text text-anchor="middle" x="916" y="-506.5" font-family="Helvetica,sans-Serif" font-size="10.00"> field_0x114</text>
</g>
<!-- Node4&#45;&gt;Node3 -->
<g id="edge3" class="edge">
<title>Node4&#45;&gt;Node3</title>
<path fill="none" stroke="#9a32cd" stroke-dasharray="5,2" d="M680.14,-478.16C735.35,-454.26 844.79,-406.89 892.21,-386.37"/>
<polygon fill="#9a32cd" stroke="#9a32cd" points="679.03,-474.82 671.24,-482.01 681.81,-481.25 679.03,-474.82"/>
<text text-anchor="middle" x="789.5" y="-491.5" font-family="Helvetica,sans-Serif" font-size="10.00"> mBounds</text>
<text text-anchor="middle" x="789.5" y="-480.5" font-family="Helvetica,sans-Serif" font-size="10.00">mClipRect</text>
<text text-anchor="middle" x="789.5" y="-469.5" font-family="Helvetica,sans-Serif" font-size="10.00">mGlobalBounds</text>
<text text-anchor="middle" x="789.5" y="-458.5" font-family="Helvetica,sans-Serif" font-size="10.00">static_mBounds</text>
</g>
<!-- Node5 -->
<g id="node5" class="node">
<title>Node5</title>
<g id="a_node5"><a xlink:href="structJGeometry_1_1TBox.html" target="_top" xlink:title=" ">
<polygon fill="white" stroke="#666666" points="477,-507.5 349,-507.5 349,-477.5 477,-477.5 477,-507.5"/>
<text text-anchor="start" x="357" y="-495.5" font-family="Helvetica,sans-Serif" font-size="10.00">JGeometry::TBox&lt; TVec2</text>
<text text-anchor="middle" x="413" y="-484.5" font-family="Helvetica,sans-Serif" font-size="10.00">&lt; T &gt; &gt;</text>
</a>
</g>
</g>
<!-- Node5&#45;&gt;Node4 -->
<g id="edge4" class="edge">
<title>Node5&#45;&gt;Node4</title>
<path fill="none" stroke="#63b8ff" d="M488.8,-492.5C519.07,-492.5 553.62,-492.5 582.51,-492.5"/>
<polygon fill="#63b8ff" stroke="#63b8ff" points="488.94,-489 478.94,-492.5 488.94,-496 488.94,-489"/>
</g>
<!-- Node6 -->
<g id="node6" class="node">
<title>Node6</title>
<g id="a_node6"><a xlink:href="classJSUTree.html" target="_top" xlink:title=" ">
<polygon fill="white" stroke="#666666" points="702,-395 590,-395 590,-376 702,-376 702,-395"/>
<text text-anchor="middle" x="646" y="-383" font-family="Helvetica,sans-Serif" font-size="10.00">JSUTree&lt; J2DPane &gt;</text>
</a>
</g>
</g>
<!-- Node6&#45;&gt;Node3 -->
<g id="edge5" class="edge">
<title>Node6&#45;&gt;Node3</title>
<path fill="none" stroke="#9a32cd" stroke-dasharray="5,2" d="M713.48,-383.27C769.6,-381.38 847.11,-378.78 887.71,-377.42"/>
<polygon fill="#9a32cd" stroke="#9a32cd" points="713.59,-379.76 703.72,-383.6 713.83,-386.76 713.59,-379.76"/>
<text text-anchor="middle" x="789.5" y="-386.5" font-family="Helvetica,sans-Serif" font-size="10.00"> mPaneTree</text>
</g>
<!-- Node7 -->
<g id="node7" class="node">
<title>Node7</title>
<g id="a_node7"><a xlink:href="classJSUList.html" target="_top" xlink:title=" ">
<polygon fill="white" stroke="#666666" points="330,-357 255,-357 255,-338 330,-338 330,-357"/>
<text text-anchor="middle" x="292.5" y="-345" font-family="Helvetica,sans-Serif" font-size="10.00">JSUList&lt; T &gt;</text>
</a>
</g>
</g>
<!-- Node7&#45;&gt;Node6 -->
<g id="edge6" class="edge">
<title>Node7&#45;&gt;Node6</title>
<path fill="none" stroke="#63b8ff" d="M341.3,-352.28C378.56,-356.04 431.58,-361.47 478,-366.5 515.28,-370.54 557.21,-375.31 589.73,-379.06"/>
<polygon fill="#63b8ff" stroke="#63b8ff" points="342.07,-348.84 331.77,-351.32 341.37,-355.81 342.07,-348.84"/>
</g>
<!-- Node8 -->
<g id="node8" class="node">
<title>Node8</title>
<g id="a_node8"><a xlink:href="structJSUPtrList.html" target="_top" xlink:title=" ">
<polygon fill="white" stroke="#666666" points="65,-390 0,-390 0,-371 65,-371 65,-390"/>
<text text-anchor="middle" x="32.5" y="-378" font-family="Helvetica,sans-Serif" font-size="10.00">JSUPtrList</text>
</a>
</g>
</g>
<!-- Node8&#45;&gt;Node7 -->
<g id="edge7" class="edge">
<title>Node8&#45;&gt;Node7</title>
<path fill="none" stroke="#63b8ff" d="M76.8,-374.37C94.8,-371.86 115.9,-368.98 135,-366.5 175.99,-361.19 223.07,-355.53 254.8,-351.79"/>
<polygon fill="#63b8ff" stroke="#63b8ff" points="76.4,-370.89 66.98,-375.74 77.37,-377.82 76.4,-370.89"/>
</g>
<!-- Node9 -->
<g id="node9" class="node">
<title>Node9</title>
<g id="a_node9"><a xlink:href="structJSUPtrLink.html" target="_top" xlink:title=" ">
<polygon fill="white" stroke="#666666" points="220,-395 152,-395 152,-376 220,-376 220,-395"/>
<text text-anchor="middle" x="186" y="-383" font-family="Helvetica,sans-Serif" font-size="10.00">JSUPtrLink</text>
</a>
</g>
</g>
<!-- Node8&#45;&gt;Node9 -->
<g id="edge9" class="edge">
<title>Node8&#45;&gt;Node9</title>
<path fill="none" stroke="#9a32cd" stroke-dasharray="5,2" d="M76.77,-379.58C78.88,-379.55 80.96,-379.52 83,-379.5 98.11,-379.35 101.9,-378.84 117,-379.5 128.37,-380 140.77,-380.97 151.84,-381.98"/>
<polygon fill="#9a32cd" stroke="#9a32cd" points="76.91,-376.07 66.97,-379.74 77.02,-383.07 76.91,-376.07"/>
<text text-anchor="middle" x="100" y="-382.5" font-family="Helvetica,sans-Serif" font-size="10.00"> mList</text>
</g>
<!-- Node9&#45;&gt;Node8 -->
<g id="edge8" class="edge">
<title>Node9&#45;&gt;Node8</title>
<path fill="none" stroke="#9a32cd" stroke-dasharray="5,2" d="M140.55,-392.16C122.63,-393.91 101.8,-394.75 83,-392.5 77.21,-391.81 71.11,-390.67 65.25,-389.37"/>
<polygon fill="#9a32cd" stroke="#9a32cd" points="140.79,-395.66 150.34,-391.07 140.02,-388.7 140.79,-395.66"/>
<text text-anchor="middle" x="100" y="-408.5" font-family="Helvetica,sans-Serif" font-size="10.00"> mHead</text>
<text text-anchor="middle" x="100" y="-397.5" font-family="Helvetica,sans-Serif" font-size="10.00">mTail</text>
</g>
<!-- Node9&#45;&gt;Node9 -->
<g id="edge10" class="edge">
<title>Node9&#45;&gt;Node9</title>
<path fill="none" stroke="#9a32cd" stroke-dasharray="5,2" d="M170.91,-406.76C172.94,-410.44 177.97,-413 186,-413 201.12,-413 205.61,-403.94 199.46,-395.37"/>
<polygon fill="#9a32cd" stroke="#9a32cd" points="174.37,-407.26 172.32,-396.87 167.44,-406.27 174.37,-407.26"/>
<text text-anchor="middle" x="186" y="-427" font-family="Helvetica,sans-Serif" font-size="10.00"> mNext</text>
<text text-anchor="middle" x="186" y="-416" font-family="Helvetica,sans-Serif" font-size="10.00">mPrev</text>
</g>
<!-- Node10 -->
<g id="node10" class="node">
<title>Node10</title>
<g id="a_node10"><a xlink:href="classJSULink.html" target="_top" xlink:title=" ">
<polygon fill="white" stroke="#666666" points="451.5,-395 374.5,-395 374.5,-376 451.5,-376 451.5,-395"/>
<text text-anchor="middle" x="413" y="-383" font-family="Helvetica,sans-Serif" font-size="10.00">JSULink&lt; T &gt;</text>
</a>
</g>
</g>
<!-- Node9&#45;&gt;Node10 -->
<g id="edge12" class="edge">
<title>Node9&#45;&gt;Node10</title>
<path fill="none" stroke="#63b8ff" d="M231.66,-385.5C273.33,-385.5 334.83,-385.5 374.15,-385.5"/>
<polygon fill="#63b8ff" stroke="#63b8ff" points="231.71,-382 221.71,-385.5 231.71,-389 231.71,-382"/>
</g>
<!-- Node10&#45;&gt;Node6 -->
<g id="edge11" class="edge">
<title>Node10&#45;&gt;Node6</title>
<path fill="none" stroke="#63b8ff" d="M462.94,-385.5C500.1,-385.5 551.21,-385.5 589.81,-385.5"/>
<polygon fill="#63b8ff" stroke="#63b8ff" points="463.4,-382 453.4,-385.5 463.4,-389 463.4,-382"/>
</g>
<!-- Node11 -->
<g id="node11" class="node">
<title>Node11</title>
<g id="a_node11"><a xlink:href="structJ2DAnmTransform.html" target="_top" xlink:title=" ">
<polygon fill="white" stroke="#666666" points="695,-341 597,-341 597,-322 695,-322 695,-341"/>
<text text-anchor="middle" x="646" y="-329" font-family="Helvetica,sans-Serif" font-size="10.00">J2DAnmTransform</text>
</a>
</g>
</g>
<!-- Node11&#45;&gt;Node3 -->
<g id="edge13" class="edge">
<title>Node11&#45;&gt;Node3</title>
<path fill="none" stroke="#9a32cd" stroke-dasharray="5,2" d="M706.54,-320.91C748.32,-315.86 804.91,-313.87 852,-329.5 874.02,-336.81 894.57,-355.14 905.9,-366.63"/>
<polygon fill="#9a32cd" stroke="#9a32cd" points="706.13,-317.43 696.67,-322.2 707.04,-324.37 706.13,-317.43"/>
<text text-anchor="middle" x="789.5" y="-332.5" font-family="Helvetica,sans-Serif" font-size="10.00"> mTransform</text>
</g>
<!-- Node12 -->
<g id="node12" class="node">
<title>Node12</title>
<g id="a_node12"><a xlink:href="structJ2DAnmBase.html" target="_top" xlink:title=" ">
<polygon fill="white" stroke="#666666" points="451.5,-89 374.5,-89 374.5,-70 451.5,-70 451.5,-89"/>
<text text-anchor="middle" x="413" y="-77" font-family="Helvetica,sans-Serif" font-size="10.00">J2DAnmBase</text>
</a>
</g>
</g>
<!-- Node12&#45;&gt;Node11 -->
<g id="edge14" class="edge">
<title>Node12&#45;&gt;Node11</title>
<path fill="none" stroke="#63b8ff" d="M432.87,-96.91C446.32,-109.86 464.37,-128.35 478,-146.5 487.57,-159.24 484.79,-166.18 496,-177.5 521.1,-202.85 544.51,-189.3 565,-218.5 589.44,-253.32 554.59,-280.84 583,-312.5 586.83,-316.77 591.6,-320.1 596.78,-322.68"/>
<polygon fill="#63b8ff" stroke="#63b8ff" points="435.55,-94.63 425.88,-90.3 430.74,-99.72 435.55,-94.63"/>
</g>
<!-- Node37 -->
<g id="node37" class="node">
<title>Node37</title>
<g id="a_node37"><a xlink:href="structJ2DMaterial_1_1J2DMaterialAnmPointer.html" target="_top" xlink:title=" ">
<polygon fill="white" stroke="#666666" points="852,-118.5 727,-118.5 727,-88.5 852,-88.5 852,-118.5"/>
<text text-anchor="start" x="735" y="-106.5" font-family="Helvetica,sans-Serif" font-size="10.00">J2DMaterial::J2DMaterial</text>
<text text-anchor="middle" x="789.5" y="-95.5" font-family="Helvetica,sans-Serif" font-size="10.00">AnmPointer</text>
</a>
</g>
</g>
<!-- Node12&#45;&gt;Node37 -->
<g id="edge43" class="edge">
<title>Node12&#45;&gt;Node37</title>
<path fill="none" stroke="#9a32cd" stroke-dasharray="5,2" d="M463.16,-82.65C530.86,-86.99 652.79,-94.8 726.62,-99.53"/>
<polygon fill="#9a32cd" stroke="#9a32cd" points="463.68,-79.18 453.48,-82.03 463.24,-86.16 463.68,-79.18"/>
<text text-anchor="middle" x="530.5" y="-125.5" font-family="Helvetica,sans-Serif" font-size="10.00"> field_0x0</text>
<text text-anchor="middle" x="530.5" y="-114.5" font-family="Helvetica,sans-Serif" font-size="10.00">field_0x4</text>
<text text-anchor="middle" x="530.5" y="-103.5" font-family="Helvetica,sans-Serif" font-size="10.00">field_0x8</text>
<text text-anchor="middle" x="530.5" y="-92.5" font-family="Helvetica,sans-Serif" font-size="10.00">field_0xc</text>
</g>
<!-- Node38 -->
<g id="node38" class="node">
<title>Node38</title>
<g id="a_node38"><a xlink:href="structJ2DAnmVisibilityFull.html" target="_top" xlink:title=" ">
<polygon fill="white" stroke="#666666" points="699,-32 593,-32 593,-13 699,-13 699,-32"/>
<text text-anchor="middle" x="646" y="-20" font-family="Helvetica,sans-Serif" font-size="10.00">J2DAnmVisibilityFull</text>
</a>
</g>
</g>
<!-- Node12&#45;&gt;Node38 -->
<g id="edge45" class="edge">
<title>Node12&#45;&gt;Node38</title>
<path fill="none" stroke="#63b8ff" d="M448.22,-65.49C462.77,-59.93 480.03,-53.83 496,-49.5 527.71,-40.89 563.98,-34.25 592.8,-29.71"/>
<polygon fill="#63b8ff" stroke="#63b8ff" points="447.14,-62.16 439.1,-69.05 449.69,-68.68 447.14,-62.16"/>
</g>
<!-- Node40 -->
<g id="node40" class="node">
<title>Node40</title>
<g id="a_node40"><a xlink:href="structJ2DAnmVtxColor.html" target="_top" xlink:title=" ">
<polygon fill="white" stroke="#666666" points="1071,-73 980,-73 980,-54 1071,-54 1071,-73"/>
<text text-anchor="middle" x="1025.5" y="-61" font-family="Helvetica,sans-Serif" font-size="10.00">J2DAnmVtxColor</text>
</a>
</g>
</g>
<!-- Node12&#45;&gt;Node40 -->
<g id="edge48" class="edge">
<title>Node12&#45;&gt;Node40</title>
<path fill="none" stroke="#63b8ff" d="M463.04,-78.21C578.92,-75.18 868.28,-67.59 979.74,-64.67"/>
<polygon fill="#63b8ff" stroke="#63b8ff" points="463.15,-74.71 453.24,-78.47 463.33,-81.71 463.15,-74.71"/>
</g>
<!-- Node13 -->
<g id="node13" class="node">
<title>Node13</title>
<g id="a_node13"><a xlink:href="classJUTTexture.html" target="_top" xlink:title=" ">
<polygon fill="white" stroke="#666666" points="950,-593 882,-593 882,-574 950,-574 950,-593"/>
<text text-anchor="middle" x="916" y="-581" font-family="Helvetica,sans-Serif" font-size="10.00">JUTTexture</text>
</a>
</g>
</g>
<!-- Node13&#45;&gt;Node2 -->
<g id="edge15" class="edge">
<title>Node13&#45;&gt;Node2</title>
<path fill="none" stroke="#9a32cd" stroke-dasharray="5,2" d="M961.46,-577.95C994.02,-572.2 1038.09,-560.77 1071,-538.5 1092.38,-524.03 1108.91,-497.77 1116.84,-483.46"/>
<polygon fill="#9a32cd" stroke="#9a32cd" points="961.26,-574.43 951.96,-579.51 962.39,-581.34 961.26,-574.43"/>
<text text-anchor="middle" x="1025.5" y="-621.5" font-family="Helvetica,sans-Serif" font-size="10.00"> field_0x100</text>
<text text-anchor="middle" x="1025.5" y="-610.5" font-family="Helvetica,sans-Serif" font-size="10.00">field_0x104</text>
<text text-anchor="middle" x="1025.5" y="-599.5" font-family="Helvetica,sans-Serif" font-size="10.00">field_0x108</text>
<text text-anchor="middle" x="1025.5" y="-588.5" font-family="Helvetica,sans-Serif" font-size="10.00">field_0x10c</text>
<text text-anchor="middle" x="1025.5" y="-577.5" font-family="Helvetica,sans-Serif" font-size="10.00">field_0x110</text>
</g>
<!-- Node14 -->
<g id="node14" class="node">
<title>Node14</title>
<g id="a_node14"><a xlink:href="struct__GXTexObj.html" target="_top" xlink:title=" ">
<polygon fill="white" stroke="#666666" points="679.5,-602 612.5,-602 612.5,-583 679.5,-583 679.5,-602"/>
<text text-anchor="middle" x="646" y="-590" font-family="Helvetica,sans-Serif" font-size="10.00">_GXTexObj</text>
</a>
</g>
</g>
<!-- Node14&#45;&gt;Node13 -->
<g id="edge16" class="edge">
<title>Node14&#45;&gt;Node13</title>
<path fill="none" stroke="#9a32cd" stroke-dasharray="5,2" d="M691.05,-591.02C744.61,-589.22 833.8,-586.23 881.87,-584.61"/>
<polygon fill="#9a32cd" stroke="#9a32cd" points="691.25,-587.51 681.37,-591.35 691.49,-594.51 691.25,-587.51"/>
<text text-anchor="middle" x="789.5" y="-593.5" font-family="Helvetica,sans-Serif" font-size="10.00"> mTexObj</text>
</g>
<!-- Node15 -->
<g id="node15" class="node">
<title>Node15</title>
<g id="a_node15"><a xlink:href="structResTIMG.html" target="_top" xlink:title=" ">
<polygon fill="white" stroke="#666666" points="675.5,-565 616.5,-565 616.5,-546 675.5,-546 675.5,-565"/>
<text text-anchor="middle" x="646" y="-553" font-family="Helvetica,sans-Serif" font-size="10.00">ResTIMG</text>
</a>
</g>
</g>
<!-- Node15&#45;&gt;Node13 -->
<g id="edge17" class="edge">
<title>Node15&#45;&gt;Node13</title>
<path fill="none" stroke="#9a32cd" stroke-dasharray="5,2" d="M687.21,-557.33C728.65,-559.51 795.04,-563.88 852,-571.5 861.71,-572.8 872.19,-574.62 881.76,-576.46"/>
<polygon fill="#9a32cd" stroke="#9a32cd" points="687.64,-553.84 677.47,-556.83 687.28,-560.83 687.64,-553.84"/>
<text text-anchor="middle" x="789.5" y="-574.5" font-family="Helvetica,sans-Serif" font-size="10.00"> mTexInfo</text>
</g>
<!-- Node16 -->
<g id="node16" class="node">
<title>Node16</title>
<g id="a_node16"><a xlink:href="classJUTPalette.html" target="_top" xlink:title=" ">
<polygon fill="white" stroke="#666666" points="679,-656 613,-656 613,-637 679,-637 679,-656"/>
<text text-anchor="middle" x="646" y="-644" font-family="Helvetica,sans-Serif" font-size="10.00">JUTPalette</text>
</a>
</g>
</g>
<!-- Node16&#45;&gt;Node2 -->
<g id="edge22" class="edge">
<title>Node16&#45;&gt;Node2</title>
<path fill="none" stroke="#9a32cd" stroke-dasharray="5,2" d="M688.11,-659.62C770.55,-683.16 957.84,-722.29 1071,-633.5 1119.17,-595.71 1122.63,-512.25 1122.32,-483.48"/>
<polygon fill="#9a32cd" stroke="#9a32cd" points="689.22,-656.3 678.64,-656.85 687.25,-663.02 689.22,-656.3"/>
<text text-anchor="middle" x="916" y="-691.5" font-family="Helvetica,sans-Serif" font-size="10.00"> mPalette</text>
</g>
<!-- Node16&#45;&gt;Node13 -->
<g id="edge18" class="edge">
<title>Node16&#45;&gt;Node13</title>
<path fill="none" stroke="#9a32cd" stroke-dasharray="5,2" d="M690.22,-635.17C702.1,-632.19 715.02,-629.1 727,-626.5 782.21,-614.53 797.19,-617.18 852,-603.5 863.36,-600.66 875.66,-596.91 886.36,-593.43"/>
<polygon fill="#9a32cd" stroke="#9a32cd" points="689.5,-631.74 680.67,-637.59 691.22,-638.52 689.5,-631.74"/>
<text text-anchor="middle" x="789.5" y="-640.5" font-family="Helvetica,sans-Serif" font-size="10.00"> field_0x2c</text>
<text text-anchor="middle" x="789.5" y="-629.5" font-family="Helvetica,sans-Serif" font-size="10.00">mEmbPalette</text>
</g>
<!-- Node17 -->
<g id="node17" class="node">
<title>Node17</title>
<g id="a_node17"><a xlink:href="struct__GXTlutObj.html" target="_top" xlink:title=" ">
<polygon fill="white" stroke="#666666" points="447,-674 379,-674 379,-655 447,-655 447,-674"/>
<text text-anchor="middle" x="413" y="-662" font-family="Helvetica,sans-Serif" font-size="10.00">_GXTlutObj</text>
</a>
</g>
</g>
<!-- Node17&#45;&gt;Node16 -->
<g id="edge19" class="edge">
<title>Node17&#45;&gt;Node16</title>
<path fill="none" stroke="#9a32cd" stroke-dasharray="5,2" d="M458.32,-661.05C503.49,-657.53 572.46,-652.15 612.71,-649.02"/>
<polygon fill="#9a32cd" stroke="#9a32cd" points="458.3,-657.54 448.61,-661.8 458.85,-664.52 458.3,-657.54"/>
<text text-anchor="middle" x="530.5" y="-660.5" font-family="Helvetica,sans-Serif" font-size="10.00"> mTlutObj</text>
</g>
<!-- Node18 -->
<g id="node18" class="node">
<title>Node18</title>
<g id="a_node18"><a xlink:href="structResTLUT.html" target="_top" xlink:title=" ">
<polygon fill="white" stroke="#666666" points="442.5,-637 383.5,-637 383.5,-618 442.5,-618 442.5,-637"/>
<text text-anchor="middle" x="413" y="-625" font-family="Helvetica,sans-Serif" font-size="10.00">ResTLUT</text>
</a>
</g>
</g>
<!-- Node18&#45;&gt;Node16 -->
<g id="edge20" class="edge">
<title>Node18&#45;&gt;Node16</title>
<path fill="none" stroke="#9a32cd" stroke-dasharray="5,2" d="M454.39,-630.15C484.82,-632.21 527.55,-635.26 565,-638.5 580.71,-639.86 598.14,-641.58 612.71,-643.07"/>
<polygon fill="#9a32cd" stroke="#9a32cd" points="454.69,-626.66 444.48,-629.48 454.22,-633.64 454.69,-626.66"/>
<text text-anchor="middle" x="530.5" y="-641.5" font-family="Helvetica,sans-Serif" font-size="10.00"> mColorTable</text>
</g>
<!-- Node19 -->
<g id="node19" class="node">
<title>Node19</title>
<g id="a_node19"><a xlink:href="structJUtility_1_1TColor.html" target="_top" xlink:title=" ">
<polygon fill="white" stroke="#666666" points="686,-432 606,-432 606,-413 686,-413 686,-432"/>
<text text-anchor="middle" x="646" y="-420" font-family="Helvetica,sans-Serif" font-size="10.00">JUtility::TColor</text>
</a>
</g>
</g>
<!-- Node19&#45;&gt;Node2 -->
<g id="edge23" class="edge">
<title>Node19&#45;&gt;Node2</title>
<path fill="none" stroke="#9a32cd" stroke-dasharray="5,2" d="M697.55,-418.93C760.06,-415.48 869.53,-412.6 962,-426.5 1010.53,-433.79 1064.94,-452.03 1096.16,-463.53"/>
<polygon fill="#9a32cd" stroke="#9a32cd" points="697.36,-415.44 687.58,-419.51 697.77,-422.42 697.36,-415.44"/>
<text text-anchor="middle" x="916" y="-484.5" font-family="Helvetica,sans-Serif" font-size="10.00"> field_0x128</text>
<text text-anchor="middle" x="916" y="-473.5" font-family="Helvetica,sans-Serif" font-size="10.00">field_0x12C</text>
<text text-anchor="middle" x="916" y="-462.5" font-family="Helvetica,sans-Serif" font-size="10.00">field_0x130</text>
<text text-anchor="middle" x="916" y="-451.5" font-family="Helvetica,sans-Serif" font-size="10.00">field_0x134</text>
<text text-anchor="middle" x="916" y="-440.5" font-family="Helvetica,sans-Serif" font-size="10.00">mBlack</text>
<text text-anchor="middle" x="916" y="-429.5" font-family="Helvetica,sans-Serif" font-size="10.00">mWhite</text>
</g>
<!-- Node22 -->
<g id="node22" class="node">
<title>Node22</title>
<g id="a_node22"><a xlink:href="classJ2DColorBlock.html" target="_top" xlink:title=" ">
<polygon fill="white" stroke="#666666" points="956.5,-304 875.5,-304 875.5,-285 956.5,-285 956.5,-304"/>
<text text-anchor="middle" x="916" y="-292" font-family="Helvetica,sans-Serif" font-size="10.00">J2DColorBlock</text>
</a>
</g>
</g>
<!-- Node19&#45;&gt;Node22 -->
<g id="edge27" class="edge">
<title>Node19&#45;&gt;Node22</title>
<path fill="none" stroke="#9a32cd" stroke-dasharray="5,2" d="M696.84,-411.5C701.23,-409.3 705.37,-406.67 709,-403.5 723.38,-390.94 711.97,-376.27 727,-364.5 771.55,-329.64 800.12,-363.06 852,-340.5 872.62,-331.54 892.99,-314.85 904.76,-304.23"/>
<polygon fill="#9a32cd" stroke="#9a32cd" points="695.59,-408.23 687.69,-415.3 698.27,-414.7 695.59,-408.23"/>
<text text-anchor="middle" x="789.5" y="-367.5" font-family="Helvetica,sans-Serif" font-size="10.00"> mMatColor</text>
</g>
<!-- Node20 -->
<g id="node20" class="node">
<title>Node20</title>
<g id="a_node20"><a xlink:href="struct__GXColor.html" target="_top" xlink:title=" ">
<polygon fill="white" stroke="#666666" points="439.5,-432 386.5,-432 386.5,-413 439.5,-413 439.5,-432"/>
<text text-anchor="middle" x="413" y="-420" font-family="Helvetica,sans-Serif" font-size="10.00">GXColor</text>
</a>
</g>
</g>
<!-- Node20&#45;&gt;Node19 -->
<g id="edge24" class="edge">
<title>Node20&#45;&gt;Node19</title>
<path fill="none" stroke="#63b8ff" d="M451.07,-422.5C493.45,-422.5 562.55,-422.5 605.81,-422.5"/>
<polygon fill="#63b8ff" stroke="#63b8ff" points="451.12,-419 441.12,-422.5 451.12,-426 451.12,-419"/>
</g>
<!-- Node21 -->
<g id="node21" class="node">
<title>Node21</title>
<g id="a_node21"><a xlink:href="classJ2DMaterial.html" target="_top" xlink:title=" ">
<polygon fill="white" stroke="#666666" points="1157,-193 1089,-193 1089,-174 1157,-174 1157,-193"/>
<text text-anchor="middle" x="1123" y="-181" font-family="Helvetica,sans-Serif" font-size="10.00">J2DMaterial</text>
</a>
</g>
</g>
<!-- Node21&#45;&gt;Node1 -->
<g id="edge25" class="edge">
<title>Node21&#45;&gt;Node1</title>
<path fill="none" stroke="#9a32cd" stroke-dasharray="5,2" d="M1165.98,-170.2C1201.87,-158.82 1252.72,-142.71 1285.16,-132.43"/>
<polygon fill="#9a32cd" stroke="#9a32cd" points="1165.28,-166.75 1156.8,-173.11 1167.39,-173.42 1165.28,-166.75"/>
<text text-anchor="middle" x="1217.5" y="-181.5" font-family="Helvetica,sans-Serif" font-size="10.00"> mContentsMaterial</text>
<text text-anchor="middle" x="1217.5" y="-170.5" font-family="Helvetica,sans-Serif" font-size="10.00">mFrameMaterial</text>
</g>
<!-- Node22&#45;&gt;Node21 -->
<g id="edge26" class="edge">
<title>Node22&#45;&gt;Node21</title>
<path fill="none" stroke="#9a32cd" stroke-dasharray="5,2" d="M968.1,-295.93C1000.16,-294.46 1040.96,-288.02 1071,-267.5 1097.91,-249.12 1113.05,-211.41 1119.01,-193.44"/>
<polygon fill="#9a32cd" stroke="#9a32cd" points="968.13,-292.43 958.23,-296.22 968.33,-299.42 968.13,-292.43"/>
<text text-anchor="middle" x="1025.5" y="-298.5" font-family="Helvetica,sans-Serif" font-size="10.00"> mColorBlock</text>
</g>
<!-- Node23 -->
<g id="node23" class="node">
<title>Node23</title>
<g id="a_node23"><a xlink:href="classJ2DColorChan.html" target="_top" xlink:title=" ">
<polygon fill="white" stroke="#666666" points="685.5,-304 606.5,-304 606.5,-285 685.5,-285 685.5,-304"/>
<text text-anchor="middle" x="646" y="-292" font-family="Helvetica,sans-Serif" font-size="10.00">J2DColorChan</text>
</a>
</g>
</g>
<!-- Node23&#45;&gt;Node22 -->
<g id="edge28" class="edge">
<title>Node23&#45;&gt;Node22</title>
<path fill="none" stroke="#9a32cd" stroke-dasharray="5,2" d="M697.48,-294.5C748.97,-294.5 827.82,-294.5 875.11,-294.5"/>
<polygon fill="#9a32cd" stroke="#9a32cd" points="697.48,-291 687.48,-294.5 697.48,-298 697.48,-291"/>
<text text-anchor="middle" x="789.5" y="-297.5" font-family="Helvetica,sans-Serif" font-size="10.00"> mColorChan</text>
</g>
<!-- Node24 -->
<g id="node24" class="node">
<title>Node24</title>
<g id="a_node24"><a xlink:href="classJ2DTexGenBlock.html" target="_top" xlink:title=" ">
<polygon fill="white" stroke="#666666" points="962,-230 870,-230 870,-211 962,-211 962,-230"/>
<text text-anchor="middle" x="916" y="-218" font-family="Helvetica,sans-Serif" font-size="10.00">J2DTexGenBlock</text>
</a>
</g>
</g>
<!-- Node24&#45;&gt;Node21 -->
<g id="edge29" class="edge">
<title>Node24&#45;&gt;Node21</title>
<path fill="none" stroke="#9a32cd" stroke-dasharray="5,2" d="M973.65,-213.69C1002.87,-209.76 1039.01,-204.25 1071,-197.5 1076.75,-196.29 1082.81,-194.8 1088.67,-193.26"/>
<polygon fill="#9a32cd" stroke="#9a32cd" points="973.36,-210.2 963.9,-214.97 974.27,-217.14 973.36,-210.2"/>
<text text-anchor="middle" x="1025.5" y="-215.5" font-family="Helvetica,sans-Serif" font-size="10.00"> mTexGenBlock</text>
</g>
<!-- Node25 -->
<g id="node25" class="node">
<title>Node25</title>
<g id="a_node25"><a xlink:href="classJ2DTexCoord.html" target="_top" xlink:title=" ">
<polygon fill="white" stroke="#666666" points="683.5,-230 608.5,-230 608.5,-211 683.5,-211 683.5,-230"/>
<text text-anchor="middle" x="646" y="-218" font-family="Helvetica,sans-Serif" font-size="10.00">J2DTexCoord</text>
</a>
</g>
</g>
<!-- Node25&#45;&gt;Node24 -->
<g id="edge30" class="edge">
<title>Node25&#45;&gt;Node24</title>
<path fill="none" stroke="#9a32cd" stroke-dasharray="5,2" d="M695.37,-220.5C744.97,-220.5 821.53,-220.5 869.91,-220.5"/>
<polygon fill="#9a32cd" stroke="#9a32cd" points="695.5,-217 685.5,-220.5 695.5,-224 695.5,-217"/>
<text text-anchor="middle" x="789.5" y="-223.5" font-family="Helvetica,sans-Serif" font-size="10.00"> mTexGenCoord</text>
</g>
<!-- Node26 -->
<g id="node26" class="node">
<title>Node26</title>
<g id="a_node26"><a xlink:href="structJ2DTexCoordInfo.html" target="_top" xlink:title=" ">
<polygon fill="white" stroke="#666666" points="459,-234 367,-234 367,-215 459,-215 459,-234"/>
<text text-anchor="middle" x="413" y="-222" font-family="Helvetica,sans-Serif" font-size="10.00">J2DTexCoordInfo</text>
</a>
</g>
</g>
<!-- Node26&#45;&gt;Node25 -->
<g id="edge31" class="edge">
<title>Node26&#45;&gt;Node25</title>
<path fill="none" stroke="#9a32cd" stroke-dasharray="5,2" d="M470.74,-223.52C513.57,-222.78 571.09,-221.78 608.11,-221.14"/>
<polygon fill="#9a32cd" stroke="#9a32cd" points="470.81,-220.02 460.88,-223.69 470.93,-227.01 470.81,-220.02"/>
<text text-anchor="middle" x="530.5" y="-226.5" font-family="Helvetica,sans-Serif" font-size="10.00"> mTexCoordInfo</text>
</g>
<!-- Node27 -->
<g id="node27" class="node">
<title>Node27</title>
<g id="a_node27"><a xlink:href="classJ2DTexMtx.html" target="_top" xlink:title=" ">
<polygon fill="white" stroke="#666666" points="678.5,-267 613.5,-267 613.5,-248 678.5,-248 678.5,-267"/>
<text text-anchor="middle" x="646" y="-255" font-family="Helvetica,sans-Serif" font-size="10.00">J2DTexMtx</text>
</a>
</g>
</g>
<!-- Node27&#45;&gt;Node24 -->
<g id="edge32" class="edge">
<title>Node27&#45;&gt;Node24</title>
<path fill="none" stroke="#9a32cd" stroke-dasharray="5,2" d="M690.07,-253.56C731.66,-249.49 796.34,-242.48 852,-233.5 857.73,-232.57 863.74,-231.49 869.66,-230.35"/>
<polygon fill="#9a32cd" stroke="#9a32cd" points="689.85,-250.06 680.23,-254.5 690.52,-257.03 689.85,-250.06"/>
<text text-anchor="middle" x="789.5" y="-252.5" font-family="Helvetica,sans-Serif" font-size="10.00"> mTexMtx</text>
</g>
<!-- Node28 -->
<g id="node28" class="node">
<title>Node28</title>
<g id="a_node28"><a xlink:href="structJ2DTexMtxInfo.html" target="_top" xlink:title=" ">
<polygon fill="white" stroke="#666666" points="454,-271 372,-271 372,-252 454,-252 454,-271"/>
<text text-anchor="middle" x="413" y="-259" font-family="Helvetica,sans-Serif" font-size="10.00">J2DTexMtxInfo</text>
</a>
</g>
</g>
<!-- Node28&#45;&gt;Node27 -->
<g id="edge33" class="edge">
<title>Node28&#45;&gt;Node27</title>
<path fill="none" stroke="#9a32cd" stroke-dasharray="5,2" d="M465.57,-260.61C510.72,-259.83 574.91,-258.71 613.02,-258.05"/>
<polygon fill="#9a32cd" stroke="#9a32cd" points="465.69,-257.1 455.75,-260.78 465.81,-264.1 465.69,-257.1"/>
<text text-anchor="middle" x="530.5" y="-263.5" font-family="Helvetica,sans-Serif" font-size="10.00"> mInfo</text>
</g>
<!-- Node29 -->
<g id="node29" class="node">
<title>Node29</title>
<g id="a_node29"><a xlink:href="structVec.html" target="_top" xlink:title=" ">
<polygon fill="white" stroke="#666666" points="203,-290 169,-290 169,-271 203,-271 203,-290"/>
<text text-anchor="middle" x="186" y="-278" font-family="Helvetica,sans-Serif" font-size="10.00">Vec</text>
</a>
</g>
</g>
<!-- Node29&#45;&gt;Node28 -->
<g id="edge34" class="edge">
<title>Node29&#45;&gt;Node28</title>
<path fill="none" stroke="#9a32cd" stroke-dasharray="5,2" d="M214.48,-278.18C253.82,-274.86 326.43,-268.73 371.81,-264.89"/>
<polygon fill="#9a32cd" stroke="#9a32cd" points="214.36,-274.68 204.69,-279.01 214.95,-281.65 214.36,-274.68"/>
<text text-anchor="middle" x="292.5" y="-277.5" font-family="Helvetica,sans-Serif" font-size="10.00"> mCenter</text>
</g>
<!-- Node30 -->
<g id="node30" class="node">
<title>Node30</title>
<g id="a_node30"><a xlink:href="structJ2DTextureSRTInfo.html" target="_top" xlink:title=" ">
<polygon fill="white" stroke="#666666" points="237,-253 135,-253 135,-234 237,-234 237,-253"/>
<text text-anchor="middle" x="186" y="-241" font-family="Helvetica,sans-Serif" font-size="10.00">J2DTextureSRTInfo</text>
</a>
</g>
</g>
<!-- Node30&#45;&gt;Node28 -->
<g id="edge35" class="edge">
<title>Node30&#45;&gt;Node28</title>
<path fill="none" stroke="#9a32cd" stroke-dasharray="5,2" d="M248.69,-243.32C273.94,-243.75 303.42,-244.87 330,-247.5 343.65,-248.85 358.47,-251.13 371.7,-253.45"/>
<polygon fill="#9a32cd" stroke="#9a32cd" points="248.96,-239.83 238.92,-243.2 248.87,-246.83 248.96,-239.83"/>
<text text-anchor="middle" x="292.5" y="-250.5" font-family="Helvetica,sans-Serif" font-size="10.00"> mTexSRTInfo</text>
</g>
<!-- Node31 -->
<g id="node31" class="node">
<title>Node31</title>
<g id="a_node31"><a xlink:href="classJ2DTevBlock.html" target="_top" xlink:title=" ">
<polygon fill="white" stroke="#666666" points="953.5,-108 878.5,-108 878.5,-89 953.5,-89 953.5,-108"/>
<text text-anchor="middle" x="916" y="-96" font-family="Helvetica,sans-Serif" font-size="10.00">J2DTevBlock</text>
</a>
</g>
</g>
<!-- Node31&#45;&gt;Node21 -->
<g id="edge36" class="edge">
<title>Node31&#45;&gt;Node21</title>
<path fill="none" stroke="#9a32cd" stroke-dasharray="5,2" d="M965.26,-96.06C997.19,-96.53 1038.93,-101.27 1071,-119.5 1093.48,-132.28 1109.77,-159.23 1117.31,-173.75"/>
<polygon fill="#9a32cd" stroke="#9a32cd" points="965.49,-92.56 955.49,-96.06 965.49,-99.56 965.49,-92.56"/>
<text text-anchor="middle" x="1025.5" y="-122.5" font-family="Helvetica,sans-Serif" font-size="10.00"> mTevBlock</text>
</g>
<!-- Node32 -->
<g id="node32" class="node">
<title>Node32</title>
<g id="a_node32"><a xlink:href="classJ2DIndBlock.html" target="_top" xlink:title=" ">
<polygon fill="white" stroke="#666666" points="952,-267 880,-267 880,-248 952,-248 952,-267"/>
<text text-anchor="middle" x="916" y="-255" font-family="Helvetica,sans-Serif" font-size="10.00">J2DIndBlock</text>
</a>
</g>
</g>
<!-- Node32&#45;&gt;Node21 -->
<g id="edge37" class="edge">
<title>Node32&#45;&gt;Node21</title>
<path fill="none" stroke="#9a32cd" stroke-dasharray="5,2" d="M963.41,-254.72C995.05,-251.36 1037.18,-243.93 1071,-227.5 1088.25,-219.12 1104.33,-203.42 1113.66,-193.22"/>
<polygon fill="#9a32cd" stroke="#9a32cd" points="963.39,-251.21 953.77,-255.64 964.06,-258.18 963.39,-251.21"/>
<text text-anchor="middle" x="1025.5" y="-255.5" font-family="Helvetica,sans-Serif" font-size="10.00"> mIndBlock</text>
</g>
<!-- Node33 -->
<g id="node33" class="node">
<title>Node33</title>
<g id="a_node33"><a xlink:href="classJ2DPEBlock.html" target="_top" xlink:title=" ">
<polygon fill="white" stroke="#666666" points="951.5,-193 880.5,-193 880.5,-174 951.5,-174 951.5,-193"/>
<text text-anchor="middle" x="916" y="-181" font-family="Helvetica,sans-Serif" font-size="10.00">J2DPEBlock</text>
</a>
</g>
</g>
<!-- Node33&#45;&gt;Node21 -->
<g id="edge38" class="edge">
<title>Node33&#45;&gt;Node21</title>
<path fill="none" stroke="#9a32cd" stroke-dasharray="5,2" d="M963.1,-183.5C1001.29,-183.5 1054.64,-183.5 1088.76,-183.5"/>
<polygon fill="#9a32cd" stroke="#9a32cd" points="963.29,-180 953.29,-183.5 963.29,-187 963.29,-180"/>
<text text-anchor="middle" x="1025.5" y="-186.5" font-family="Helvetica,sans-Serif" font-size="10.00"> mPEBlock</text>
</g>
<!-- Node34 -->
<g id="node34" class="node">
<title>Node34</title>
<g id="a_node34"><a xlink:href="structJ2DAlphaComp.html" target="_top" xlink:title=" ">
<polygon fill="white" stroke="#666666" points="688,-156 604,-156 604,-137 688,-137 688,-156"/>
<text text-anchor="middle" x="646" y="-144" font-family="Helvetica,sans-Serif" font-size="10.00">J2DAlphaComp</text>
</a>
</g>
</g>
<!-- Node34&#45;&gt;Node33 -->
<g id="edge39" class="edge">
<title>Node34&#45;&gt;Node33</title>
<path fill="none" stroke="#9a32cd" stroke-dasharray="5,2" d="M699.67,-150.3C741.23,-153.75 800.57,-159.65 852,-168.5 861.2,-170.08 871.05,-172.21 880.17,-174.37"/>
<polygon fill="#9a32cd" stroke="#9a32cd" points="700.2,-146.83 689.95,-149.52 699.64,-153.81 700.2,-146.83"/>
<text text-anchor="middle" x="789.5" y="-171.5" font-family="Helvetica,sans-Serif" font-size="10.00"> mAlphaComp</text>
</g>
<!-- Node35 -->
<g id="node35" class="node">
<title>Node35</title>
<g id="a_node35"><a xlink:href="structJ2DBlend.html" target="_top" xlink:title=" ">
<polygon fill="white" stroke="#666666" points="675.5,-193 616.5,-193 616.5,-174 675.5,-174 675.5,-193"/>
<text text-anchor="middle" x="646" y="-181" font-family="Helvetica,sans-Serif" font-size="10.00">J2DBlend</text>
</a>
</g>
</g>
<!-- Node35&#45;&gt;Node33 -->
<g id="edge40" class="edge">
<title>Node35&#45;&gt;Node33</title>
<path fill="none" stroke="#9a32cd" stroke-dasharray="5,2" d="M687.14,-183.5C739.62,-183.5 830.66,-183.5 880.29,-183.5"/>
<polygon fill="#9a32cd" stroke="#9a32cd" points="687.45,-180 677.45,-183.5 687.45,-187 687.45,-180"/>
<text text-anchor="middle" x="789.5" y="-186.5" font-family="Helvetica,sans-Serif" font-size="10.00"> mBlend</text>
</g>
<!-- Node36 -->
<g id="node36" class="node">
<title>Node36</title>
<g id="a_node36"><a xlink:href="structJ2DBlendInfo.html" target="_top" xlink:title=" ">
<polygon fill="white" stroke="#666666" points="450.5,-175 375.5,-175 375.5,-156 450.5,-156 450.5,-175"/>
<text text-anchor="middle" x="413" y="-163" font-family="Helvetica,sans-Serif" font-size="10.00">J2DBlendInfo</text>
</a>
</g>
</g>
<!-- Node36&#45;&gt;Node35 -->
<g id="edge41" class="edge">
<title>Node36&#45;&gt;Node35</title>
<path fill="none" stroke="#9a32cd" stroke-dasharray="5,2" d="M462.18,-169.25C508.76,-172.88 577.76,-178.26 616.3,-181.26"/>
<polygon fill="#9a32cd" stroke="#9a32cd" points="462.61,-165.78 452.37,-168.49 462.06,-172.76 462.61,-165.78"/>
<text text-anchor="middle" x="530.5" y="-180.5" font-family="Helvetica,sans-Serif" font-size="10.00"> mBlendInfo</text>
</g>
<!-- Node37&#45;&gt;Node21 -->
<g id="edge42" class="edge">
<title>Node37&#45;&gt;Node21</title>
<path fill="none" stroke="#9a32cd" stroke-dasharray="5,2" d="M863.42,-121.1C933.5,-138.01 1036.27,-162.81 1088.64,-175.45"/>
<polygon fill="#9a32cd" stroke="#9a32cd" points="864.48,-117.75 853.94,-118.81 862.83,-124.56 864.48,-117.75"/>
<text text-anchor="middle" x="916" y="-146.5" font-family="Helvetica,sans-Serif" font-size="10.00"> mAnmPointer</text>
</g>
<!-- Node38&#45;&gt;Node1 -->
<g id="edge44" class="edge">
<title>Node38&#45;&gt;Node1</title>
<path fill="none" stroke="#9a32cd" stroke-dasharray="5,2" d="M710.61,-18.91C793.97,-15.39 944.45,-13.15 1071,-33.5 1157.62,-47.43 1179.33,-56 1260,-90.5 1274.51,-96.71 1290.05,-105.69 1301.15,-112.57"/>
<polygon fill="#9a32cd" stroke="#9a32cd" points="710.65,-15.4 700.81,-19.34 710.96,-22.39 710.65,-15.4"/>
<text text-anchor="middle" x="1025.5" y="-36.5" font-family="Helvetica,sans-Serif" font-size="10.00"> mAnmVisibilityFull</text>
</g>
<!-- Node39 -->
<g id="node39" class="node">
<title>Node39</title>
<g id="a_node39"><a xlink:href="structJ3DAnmVisibilityFullTable.html" target="_top" xlink:title=" ">
<polygon fill="white" stroke="#666666" points="478,-19 348,-19 348,0 478,0 478,-19"/>
<text text-anchor="middle" x="413" y="-7" font-family="Helvetica,sans-Serif" font-size="10.00">J3DAnmVisibilityFullTable</text>
</a>
</g>
</g>
<!-- Node39&#45;&gt;Node38 -->
<g id="edge46" class="edge">
<title>Node39&#45;&gt;Node38</title>
<path fill="none" stroke="#9a32cd" stroke-dasharray="5,2" d="M489.62,-7.9C513.74,-7.95 540.52,-8.59 565,-10.5 573.96,-11.2 583.44,-12.3 592.62,-13.55"/>
<polygon fill="#9a32cd" stroke="#9a32cd" points="489.88,-4.39 479.89,-7.91 489.9,-11.39 489.88,-4.39"/>
<text text-anchor="middle" x="530.5" y="-13.5" font-family="Helvetica,sans-Serif" font-size="10.00"> mTable</text>
</g>
<!-- Node40&#45;&gt;Node1 -->
<g id="edge47" class="edge">
<title>Node40&#45;&gt;Node1</title>
<path fill="none" stroke="#9a32cd" stroke-dasharray="5,2" d="M1082.56,-74.91C1140,-86.59 1227.8,-104.45 1277.9,-114.65"/>
<polygon fill="#9a32cd" stroke="#9a32cd" points="1083.47,-71.52 1072.98,-72.96 1082.08,-78.38 1083.47,-71.52"/>
<text text-anchor="middle" x="1123" y="-92.5" font-family="Helvetica,sans-Serif" font-size="10.00"> mAnmVtxColor</text>
</g>
</g>
</svg>
        <g id="navigator" transform="translate(0 0)" fill="#404254">
                <rect fill="#f2f5e9" fill-opacity="0.5" stroke="#606060" stroke-width=".5" x="0" y="0" width="60" height="60"/>
                <use id="zoomplus" xlink:href="#zoomPlus" x="17" y="9" onmousedown="handleZoom(evt,'in')"/>
                <use id="zoomminus" xlink:href="#zoomMin" x="42" y="9" onmousedown="handleZoom(evt,'out')"/>
                <use id="reset" xlink:href="#resetDef" x="30" y="36" onmousedown="handleReset()"/>
                <g id="arrowUp" xlink:href="#dirArrow" transform="translate(30 24)" onmousedown="handlePan(0,-1)">
                  <use xlink:href="#rim" fill="#404040">
                        <set attributeName="fill" to="#808080" begin="arrowUp.mouseover" end="arrowUp.mouseout"/>
                  </use>
                  <path fill="none" stroke="white" stroke-width="1.5" d="M0,-3.0v7 M-2.5,-0.5L0,-3.0L2.5,-0.5"/>
                </g>
                <g id="arrowRight" xlink:href="#dirArrow" transform="rotate(90) translate(36 -43)" onmousedown="handlePan(1,0)">
                  <use xlink:href="#rim" fill="#404040">
                        <set attributeName="fill" to="#808080" begin="arrowRight.mouseover" end="arrowRight.mouseout"/>
                  </use>
                  <path fill="none" stroke="white" stroke-width="1.5" d="M0,-3.0v7 M-2.5,-0.5L0,-3.0L2.5,-0.5"/>
                </g>
                <g id="arrowDown" xlink:href="#dirArrow" transform="rotate(180) translate(-30 -48)" onmousedown="handlePan(0,1)">
                  <use xlink:href="#rim" fill="#404040">
                        <set attributeName="fill" to="#808080" begin="arrowDown.mouseover" end="arrowDown.mouseout"/>
                  </use>
                  <path fill="none" stroke="white" stroke-width="1.5" d="M0,-3.0v7 M-2.5,-0.5L0,-3.0L2.5,-0.5"/>
                </g>
                <g id="arrowLeft" xlink:href="#dirArrow" transform="rotate(270) translate(-36 17)" onmousedown="handlePan(-1,0)">
                  <use xlink:href="#rim" fill="#404040">
                        <set attributeName="fill" to="#808080" begin="arrowLeft.mouseover" end="arrowLeft.mouseout"/>
                  </use>
                  <path fill="none" stroke="white" stroke-width="1.5" d="M0,-3.0v7 M-2.5,-0.5L0,-3.0L2.5,-0.5"/>
                </g>
        </g>
        <svg viewBox="0 0 15 15" width="100%" height="30px" preserveAspectRatio="xMaxYMin meet">
         <g id="arrow_out" transform="scale(0.3 0.3)">
          <a xlink:href="structJ2DWindowEx__coll__graph_org.svg" target="_base">
           <rect id="button" ry="5" rx="5" y="6" x="6" height="38" width="38"
                fill="#f2f5e9" fill-opacity="0.5" stroke="#606060" stroke-width="1.0"/>
           <path id="arrow"
             d="M 11.500037,31.436501 C 11.940474,20.09759 22.043105,11.32322 32.158766,21.979434 L 37.068811,17.246167 C 37.068811,17.246167 37.088388,32 37.088388,32 L 22.160133,31.978069 C 22.160133,31.978069 26.997745,27.140456 26.997745,27.140456 C 18.528582,18.264221 13.291696,25.230495 11.500037,31.436501 z"
             style="fill:#404040;"/>
          </a>
         </g>
        </svg>
</svg>
