<?xml version="1.0" encoding="UTF-8" standalone="no"?>
<!DOCTYPE svg PUBLIC "-//W3C//DTD SVG 1.1//EN"
 "http://www.w3.org/Graphics/SVG/1.1/DTD/svg11.dtd">
<!-- Generated by graphviz version 7.0.4 (20221203.1631)
 -->
<!-- Title: J2DPane Pages: 1 -->
<svg width="381pt" height="347pt"
 viewBox="0.00 0.00 381.00 347.00" xmlns="http://www.w3.org/2000/svg" xmlns:xlink="http://www.w3.org/1999/xlink">
<g id="graph0" class="graph" transform="scale(1 1) rotate(0) translate(4 343)">
<title>J2DPane</title>
<!-- Node1 -->
<g id="node1" class="node">
<title>Node1</title>
<g id="a_node1"><a xlink:title=" ">
<polygon fill="#999999" stroke="#666666" points="229,-19 173,-19 173,0 229,0 229,-19"/>
<text text-anchor="middle" x="201" y="-7" font-family="Helvetica,sans-Serif" font-size="10.00">J2DPane</text>
</a>
</g>
</g>
<!-- Node2 -->
<g id="node2" class="node">
<title>Node2</title>
<g id="a_node2"><a xlink:href="structJGeometry_1_1TBox2.html" target="_top" xlink:title=" ">
<polygon fill="white" stroke="#666666" points="127,-118 1,-118 1,-99 127,-99 127,-118"/>
<text text-anchor="middle" x="64" y="-106" font-family="Helvetica,sans-Serif" font-size="10.00">JGeometry::TBox2&lt; f32 &gt;</text>
</a>
</g>
</g>
<!-- Node2&#45;&gt;Node1 -->
<g id="edge1" class="edge">
<title>Node2&#45;&gt;Node1</title>
<path fill="none" stroke="#9a32cd" stroke-dasharray="5,2" d="M75.73,-89.61C86.94,-73.78 105.18,-51.08 126,-37 140.07,-27.49 157.93,-21 172.7,-16.82"/>
<polygon fill="#9a32cd" stroke="#9a32cd" points="73.02,-87.37 70.28,-97.6 78.81,-91.31 73.02,-87.37"/>
<text text-anchor="middle" x="161.5" y="-73" font-family="Helvetica,sans-Serif" font-size="10.00"> mBounds</text>
<text text-anchor="middle" x="161.5" y="-62" font-family="Helvetica,sans-Serif" font-size="10.00">mClipRect</text>
<text text-anchor="middle" x="161.5" y="-51" font-family="Helvetica,sans-Serif" font-size="10.00">mGlobalBounds</text>
<text text-anchor="middle" x="161.5" y="-40" font-family="Helvetica,sans-Serif" font-size="10.00">static_mBounds</text>
</g>
<!-- Node3 -->
<g id="node3" class="node">
<title>Node3</title>
<g id="a_node3"><a xlink:href="structJGeometry_1_1TBox.html" target="_top" xlink:title=" ">
<polygon fill="white" stroke="#666666" points="128,-185 0,-185 0,-155 128,-155 128,-185"/>
<text text-anchor="start" x="8" y="-173" font-family="Helvetica,sans-Serif" font-size="10.00">JGeometry::TBox&lt; TVec2</text>
<text text-anchor="middle" x="64" y="-162" font-family="Helvetica,sans-Serif" font-size="10.00">&lt; T &gt; &gt;</text>
</a>
</g>
</g>
<!-- Node3&#45;&gt;Node2 -->
<g id="edge2" class="edge">
<title>Node3&#45;&gt;Node2</title>
<path fill="none" stroke="#63b8ff" d="M64,-143.13C64,-134.29 64,-124.99 64,-118.42"/>
<polygon fill="#63b8ff" stroke="#63b8ff" points="60.5,-143.08 64,-153.08 67.5,-143.08 60.5,-143.08"/>
</g>
<!-- Node4 -->
<g id="node4" class="node">
<title>Node4</title>
<g id="a_node4"><a xlink:href="classJSUTree.html" target="_top" xlink:title=" ">
<polygon fill="white" stroke="#666666" points="257,-118 145,-118 145,-99 257,-99 257,-118"/>
<text text-anchor="middle" x="201" y="-106" font-family="Helvetica,sans-Serif" font-size="10.00">JSUTree&lt; J2DPane &gt;</text>
</a>
</g>
</g>
<!-- Node4&#45;&gt;Node1 -->
<g id="edge3" class="edge">
<title>Node4&#45;&gt;Node1</title>
<path fill="none" stroke="#9a32cd" stroke-dasharray="5,2" d="M201,-87.16C201,-66.27 201,-34.72 201,-19.43"/>
<polygon fill="#9a32cd" stroke="#9a32cd" points="197.5,-87.03 201,-97.03 204.5,-87.03 197.5,-87.03"/>
<text text-anchor="middle" x="227.5" y="-56.5" font-family="Helvetica,sans-Serif" font-size="10.00"> mPaneTree</text>
</g>
<!-- Node5 -->
<g id="node5" class="node">
<title>Node5</title>
<g id="a_node5"><a xlink:href="classJSUList.html" target="_top" xlink:title=" ">
<polygon fill="white" stroke="#666666" points="193.5,-222 118.5,-222 118.5,-203 193.5,-203 193.5,-222"/>
<text text-anchor="middle" x="156" y="-210" font-family="Helvetica,sans-Serif" font-size="10.00">JSUList&lt; T &gt;</text>
</a>
</g>
</g>
<!-- Node5&#45;&gt;Node4 -->
<g id="edge4" class="edge">
<title>Node5&#45;&gt;Node4</title>
<path fill="none" stroke="#63b8ff" d="M161.56,-191.9C164.94,-180.86 169.64,-166.94 175,-155 180.96,-141.72 189.63,-127.27 195.29,-118.29"/>
<polygon fill="#63b8ff" stroke="#63b8ff" points="158.22,-190.85 158.76,-201.43 164.94,-192.82 158.22,-190.85"/>
</g>
<!-- Node6 -->
<g id="node6" class="node">
<title>Node6</title>
<g id="a_node6"><a xlink:href="structJSUPtrList.html" target="_top" xlink:title=" ">
<polygon fill="white" stroke="#666666" points="221.5,-339 156.5,-339 156.5,-320 221.5,-320 221.5,-339"/>
<text text-anchor="middle" x="189" y="-327" font-family="Helvetica,sans-Serif" font-size="10.00">JSUPtrList</text>
</a>
</g>
</g>
<!-- Node6&#45;&gt;Node5 -->
<g id="edge5" class="edge">
<title>Node6&#45;&gt;Node5</title>
<path fill="none" stroke="#63b8ff" d="M181.44,-309.19C180.58,-306.78 179.74,-304.34 179,-302 169.87,-273.25 161.62,-238.43 157.98,-222.38"/>
<polygon fill="#63b8ff" stroke="#63b8ff" points="178.09,-310.21 184.89,-318.33 184.64,-307.74 178.09,-310.21"/>
</g>
<!-- Node7 -->
<g id="node7" class="node">
<title>Node7</title>
<g id="a_node7"><a xlink:href="structJSUPtrLink.html" target="_top" xlink:title=" ">
<polygon fill="white" stroke="#666666" points="260,-260.5 192,-260.5 192,-241.5 260,-241.5 260,-260.5"/>
<text text-anchor="middle" x="226" y="-248.5" font-family="Helvetica,sans-Serif" font-size="10.00">JSUPtrLink</text>
</a>
</g>
</g>
<!-- Node6&#45;&gt;Node7 -->
<g id="edge7" class="edge">
<title>Node6&#45;&gt;Node7</title>
<path fill="none" stroke="#9a32cd" stroke-dasharray="5,2" d="M183.21,-308.52C181.67,-299.36 181.5,-288.64 186,-280 190.31,-271.73 198.3,-265.4 206.01,-260.86"/>
<polygon fill="#9a32cd" stroke="#9a32cd" points="179.8,-309.3 185.51,-318.23 186.62,-307.69 179.8,-309.3"/>
<text text-anchor="middle" x="200" y="-288.5" font-family="Helvetica,sans-Serif" font-size="10.00"> mList</text>
</g>
<!-- Node7&#45;&gt;Node6 -->
<g id="edge6" class="edge">
<title>Node7&#45;&gt;Node6</title>
<path fill="none" stroke="#9a32cd" stroke-dasharray="5,2" d="M225.83,-271.91C225.01,-281.49 222.93,-292.85 218,-302 214.25,-308.96 207.94,-315.06 202.16,-319.64"/>
<polygon fill="#9a32cd" stroke="#9a32cd" points="229.31,-272.33 226.24,-262.2 222.32,-272.04 229.31,-272.33"/>
<text text-anchor="middle" x="242" y="-294" font-family="Helvetica,sans-Serif" font-size="10.00"> mHead</text>
<text text-anchor="middle" x="242" y="-283" font-family="Helvetica,sans-Serif" font-size="10.00">mTail</text>
</g>
<!-- Node7&#45;&gt;Node7 -->
<g id="edge8" class="edge">
<title>Node7&#45;&gt;Node7</title>
<path fill="none" stroke="#9a32cd" stroke-dasharray="5,2" d="M271.19,-256.76C275.37,-255.57 278,-253.65 278,-251 278,-246.41 270.13,-244.01 260.01,-243.8"/>
<polygon fill="#9a32cd" stroke="#9a32cd" points="270.98,-253.26 261.51,-258.01 271.87,-260.2 270.98,-253.26"/>
<text text-anchor="middle" x="293.5" y="-254" font-family="Helvetica,sans-Serif" font-size="10.00"> mNext</text>
<text text-anchor="middle" x="293.5" y="-243" font-family="Helvetica,sans-Serif" font-size="10.00">mPrev</text>
</g>
<!-- Node8 -->
<g id="node8" class="node">
<title>Node8</title>
<g id="a_node8"><a xlink:href="structJSULink.html" target="_top" xlink:title=" ">
<polygon fill="white" stroke="#666666" points="267.5,-179.5 184.5,-179.5 184.5,-160.5 267.5,-160.5 267.5,-179.5"/>
<text text-anchor="middle" x="226" y="-167.5" font-family="Helvetica,sans-Serif" font-size="10.00">JSULink&lt; A0 &gt;</text>
</a>
</g>
</g>
<!-- Node7&#45;&gt;Node8 -->
<g id="edge10" class="edge">
<title>Node7&#45;&gt;Node8</title>
<path fill="none" stroke="#63b8ff" d="M226,-229.75C226,-213.49 226,-191.49 226,-179.56"/>
<polygon fill="#63b8ff" stroke="#63b8ff" points="222.5,-229.73 226,-239.73 229.5,-229.73 222.5,-229.73"/>
</g>
<!-- Node8&#45;&gt;Node4 -->
<g id="edge9" class="edge">
<title>Node8&#45;&gt;Node4</title>
<path fill="none" stroke="#63b8ff" d="M217.95,-149.84C213.5,-139.24 208.18,-126.59 204.7,-118.32"/>
<polygon fill="#63b8ff" stroke="#63b8ff" points="214.62,-150.96 221.72,-158.83 221.08,-148.25 214.62,-150.96"/>
</g>
<!-- Node9 -->
<g id="node9" class="node">
<title>Node9</title>
<g id="a_node9"><a xlink:href="structJ2DAnmTransform.html" target="_top" xlink:title=" ">
<polygon fill="white" stroke="#666666" points="373,-118 275,-118 275,-99 373,-99 373,-118"/>
<text text-anchor="middle" x="324" y="-106" font-family="Helvetica,sans-Serif" font-size="10.00">J2DAnmTransform</text>
</a>
</g>
</g>
<!-- Node9&#45;&gt;Node1 -->
<g id="edge11" class="edge">
<title>Node9&#45;&gt;Node1</title>
<path fill="none" stroke="#9a32cd" stroke-dasharray="5,2" d="M310.53,-89.62C298.19,-74.17 278.72,-52 258,-37 248.1,-29.83 235.95,-23.86 225.42,-19.42"/>
<polygon fill="#9a32cd" stroke="#9a32cd" points="307.73,-91.73 316.63,-97.48 313.26,-87.43 307.73,-91.73"/>
<text text-anchor="middle" x="330.5" y="-56.5" font-family="Helvetica,sans-Serif" font-size="10.00"> mTransform</text>
</g>
<!-- Node10 -->
<g id="node10" class="node">
<title>Node10</title>
<g id="a_node10"><a xlink:href="structJ2DAnmBase.html" target="_top" xlink:title=" ">
<polygon fill="white" stroke="#666666" points="362.5,-179.5 285.5,-179.5 285.5,-160.5 362.5,-160.5 362.5,-179.5"/>
<text text-anchor="middle" x="324" y="-167.5" font-family="Helvetica,sans-Serif" font-size="10.00">J2DAnmBase</text>
</a>
</g>
</g>
<!-- Node10&#45;&gt;Node9 -->
<g id="edge12" class="edge">
<title>Node10&#45;&gt;Node9</title>
<path fill="none" stroke="#63b8ff" d="M324,-148.82C324,-138.44 324,-126.33 324,-118.32"/>
<polygon fill="#63b8ff" stroke="#63b8ff" points="320.5,-148.71 324,-158.71 327.5,-148.71 320.5,-148.71"/>
</g>
</g>
</svg>
