<?xml version="1.0" encoding="UTF-8" standalone="no"?>
<!DOCTYPE svg PUBLIC "-//W3C//DTD SVG 1.1//EN"
 "http://www.w3.org/Graphics/SVG/1.1/DTD/svg11.dtd">
<!-- Generated by graphviz version 9.0.0 (20230911.1827)
 -->
<!-- Title: kankyo_process_profile_definition Pages: 1 -->
<svg width="270pt" height="249pt"
 viewBox="0.00 0.00 269.75 249.25" xmlns="http://www.w3.org/2000/svg" xmlns:xlink="http://www.w3.org/1999/xlink">
<g id="graph0" class="graph" transform="scale(1 1) rotate(0) translate(4 245.25)">
<title>kankyo_process_profile_definition</title>
<!-- Node1 -->
<g id="Node000001" class="node">
<title>Node1</title>
<g id="a_Node000001"><a xlink:title=" ">
<polygon fill="#999999" stroke="#666666" points="218,-30.5 100.75,-30.5 100.75,0 218,0 218,-30.5"/>
<text text-anchor="start" x="108.75" y="-17" font-family="Helvetica,sans-Serif" font-size="10.00">kankyo_process_profile</text>
<text text-anchor="middle" x="159.38" y="-5.75" font-family="Helvetica,sans-Serif" font-size="10.00">_definition</text>
</a>
</g>
</g>
<!-- Node2 -->
<g id="Node000002" class="node">
<title>Node2</title>
<g id="a_Node000002"><a xlink:href="structleaf__process__profile__definition.html" target="_top" xlink:title=" ">
<polygon fill="white" stroke="#666666" points="166.5,-108.25 64.25,-108.25 64.25,-77.75 166.5,-77.75 166.5,-108.25"/>
<text text-anchor="start" x="72.25" y="-94.75" font-family="Helvetica,sans-Serif" font-size="10.00">leaf_process_profile</text>
<text text-anchor="middle" x="115.38" y="-83.5" font-family="Helvetica,sans-Serif" font-size="10.00">_definition</text>
</a>
</g>
</g>
<!-- Node2&#45;&gt;Node1 -->
<g id="edge1_Node000001_Node000002" class="edge">
<title>Node2&#45;&gt;Node1</title>
<g id="a_edge1_Node000001_Node000002"><a xlink:title=" ">
<path fill="none" stroke="#9a32cd" stroke-dasharray="5,2" d="M129.64,-67.45C136.66,-55.35 144.9,-41.17 150.92,-30.81"/>
<polygon fill="#9a32cd" stroke="#9a32cd" points="126.62,-65.68 124.62,-76.09 132.67,-69.2 126.62,-65.68"/>
</a>
</g>
<text text-anchor="middle" x="152" y="-50.25" font-family="Helvetica,sans-Serif" font-size="10.00" fill="grey"> base</text>
</g>
<!-- Node3 -->
<g id="Node000003" class="node">
<title>Node3</title>
<g id="a_Node000003"><a xlink:href="structprocess__profile__definition.html" target="_top" xlink:title=" ">
<polygon fill="white" stroke="#666666" points="124.75,-174.75 0,-174.75 0,-155.5 124.75,-155.5 124.75,-174.75"/>
<text text-anchor="middle" x="62.38" y="-161.25" font-family="Helvetica,sans-Serif" font-size="10.00">process_profile_definition</text>
</a>
</g>
</g>
<!-- Node3&#45;&gt;Node2 -->
<g id="edge2_Node000002_Node000003" class="edge">
<title>Node3&#45;&gt;Node2</title>
<g id="a_edge2_Node000002_Node000003"><a xlink:title=" ">
<path fill="none" stroke="#9a32cd" stroke-dasharray="5,2" d="M65.66,-144.17C67.31,-138.06 69.75,-131.56 73.38,-126.25 78.04,-119.42 84.62,-113.4 91.19,-108.48"/>
<polygon fill="#9a32cd" stroke="#9a32cd" points="62.32,-143.04 63.7,-153.54 69.17,-144.47 62.32,-143.04"/>
</a>
</g>
<text text-anchor="middle" x="89.88" y="-128" font-family="Helvetica,sans-Serif" font-size="10.00" fill="grey"> mBase</text>
</g>
<!-- Node4 -->
<g id="Node000004" class="node">
<title>Node4</title>
<g id="a_Node000004"><a xlink:href="structprocess__method__class.html" target="_top" xlink:title=" ">
<polygon fill="white" stroke="#666666" points="189.62,-241.25 73.12,-241.25 73.12,-222 189.62,-222 189.62,-241.25"/>
<text text-anchor="middle" x="131.38" y="-227.75" font-family="Helvetica,sans-Serif" font-size="10.00">process_method_class</text>
</a>
</g>
</g>
<!-- Node4&#45;&gt;Node3 -->
<g id="edge3_Node000003_Node000004" class="edge">
<title>Node4&#45;&gt;Node3</title>
<g id="a_edge3_Node000003_Node000004"><a xlink:title=" ">
<path fill="none" stroke="#9a32cd" stroke-dasharray="5,2" d="M113.41,-213.83C100.13,-201.41 82.56,-185 71.89,-175.02"/>
<polygon fill="#9a32cd" stroke="#9a32cd" points="110.98,-216.35 120.68,-220.62 115.76,-211.24 110.98,-216.35"/>
</a>
</g>
<text text-anchor="middle" x="129.12" y="-194.5" font-family="Helvetica,sans-Serif" font-size="10.00" fill="grey"> sub_method</text>
</g>
<!-- Node5 -->
<g id="Node000005" class="node">
<title>Node5</title>
<g id="a_Node000005"><a xlink:href="structleafdraw__method__class.html" target="_top" xlink:title=" ">
<polygon fill="white" stroke="#666666" points="261.75,-174.75 143,-174.75 143,-155.5 261.75,-155.5 261.75,-174.75"/>
<text text-anchor="middle" x="202.38" y="-161.25" font-family="Helvetica,sans-Serif" font-size="10.00">leafdraw_method_class</text>
</a>
</g>
</g>
<!-- Node4&#45;&gt;Node5 -->
<g id="edge5_Node000005_Node000004" class="edge">
<title>Node4&#45;&gt;Node5</title>
<g id="a_edge5_Node000005_Node000004"><a xlink:title=" ">
<path fill="none" stroke="#9a32cd" stroke-dasharray="5,2" d="M150.01,-214.19C153.78,-210.83 157.72,-207.31 161.38,-204 172.15,-194.24 184.37,-182.92 192.65,-175.21"/>
<polygon fill="#9a32cd" stroke="#9a32cd" points="147.99,-211.3 142.83,-220.55 152.63,-216.54 147.99,-211.3"/>
</a>
</g>
<text text-anchor="middle" x="188.88" y="-194.5" font-family="Helvetica,sans-Serif" font-size="10.00" fill="grey"> mBase</text>
</g>
<!-- Node5&#45;&gt;Node1 -->
<g id="edge6_Node000001_Node000005" class="edge">
<title>Node5&#45;&gt;Node1</title>
<g id="a_edge6_Node000001_Node000005"><a xlink:title=" ">
<path fill="none" stroke="#9a32cd" stroke-dasharray="5,2" d="M196.68,-144.54C187.91,-114.39 171.31,-57.3 163.56,-30.64"/>
<polygon fill="#9a32cd" stroke="#9a32cd" points="193.24,-145.24 199.39,-153.86 199.96,-143.28 193.24,-145.24"/>
</a>
</g>
<text text-anchor="middle" x="213.12" y="-89.12" font-family="Helvetica,sans-Serif" font-size="10.00" fill="grey"> sub_method</text>
</g>
<!-- Node5&#45;&gt;Node2 -->
<g id="edge4_Node000002_Node000005" class="edge">
<title>Node5&#45;&gt;Node2</title>
<g id="a_edge4_Node000002_Node000005"><a xlink:title=" ">
<path fill="none" stroke="#9a32cd" stroke-dasharray="5,2" d="M151.95,-150.61C144.96,-147.16 138.32,-142.86 132.88,-137.5 124.98,-129.74 120.54,-117.95 118.1,-108.6"/>
<polygon fill="#9a32cd" stroke="#9a32cd" points="150.38,-153.74 160.95,-154.48 153.14,-147.31 150.38,-153.74"/>
</a>
</g>
<text text-anchor="middle" x="161.12" y="-128" font-family="Helvetica,sans-Serif" font-size="10.00" fill="grey"> sub_method</text>
</g>
</g>
</svg>
