<?xml version="1.0" encoding="UTF-8" standalone="no"?>
<!DOCTYPE svg PUBLIC "-//W3C//DTD SVG 1.1//EN"
 "http://www.w3.org/Graphics/SVG/1.1/DTD/svg11.dtd">
<!-- Generated by graphviz version 2.44.0 ()
 -->
<!-- Title: J2DWindow::TMaterial Pages: 1 -->
<svg width="275pt" height="284pt"
 viewBox="0.00 0.00 275.00 284.00" xmlns="http://www.w3.org/2000/svg" xmlns:xlink="http://www.w3.org/1999/xlink">
<g id="graph0" class="graph" transform="scale(1 1) rotate(0) translate(4 280)">
<title>J2DWindow::TMaterial</title>
<polygon fill="white" stroke="transparent" points="-4,4 -4,-280 271,-280 271,4 -4,4"/>
<!-- Node1 -->
<g id="node1" class="node">
<title>Node1</title>
<g id="a_node1"><a xlink:title=" ">
<polygon fill="#bfbfbf" stroke="black" points="96,-0.5 96,-19.5 209,-19.5 209,-0.5 96,-0.5"/>
<text text-anchor="middle" x="152.5" y="-7.5" font-family="Helvetica,sans-Serif" font-size="10.00">J2DWindow::TMaterial</text>
</a>
</g>
</g>
<!-- Node2 -->
<g id="node2" class="node">
<title>Node2</title>
<g id="a_node2"><a xlink:href="classJUTTexture.html" target="_top" xlink:title=" ">
<polygon fill="white" stroke="black" points="118.5,-111.5 118.5,-130.5 186.5,-130.5 186.5,-111.5 118.5,-111.5"/>
<text text-anchor="middle" x="152.5" y="-118.5" font-family="Helvetica,sans-Serif" font-size="10.00">JUTTexture</text>
</a>
</g>
</g>
<!-- Node2&#45;&gt;Node1 -->
<g id="edge1" class="edge">
<title>Node2&#45;&gt;Node1</title>
<path fill="none" stroke="#9a32cd" stroke-dasharray="5,2" d="M152.5,-101.19C152.5,-77.28 152.5,-36.99 152.5,-19.51"/>
<polygon fill="#9a32cd" stroke="#9a32cd" points="149,-101.45 152.5,-111.45 156,-101.45 149,-101.45"/>
<text text-anchor="middle" x="174" y="-85" font-family="Helvetica,sans-Serif" font-size="10.00"> field_0x0</text>
<text text-anchor="middle" x="174" y="-74" font-family="Helvetica,sans-Serif" font-size="10.00">field_0x10</text>
<text text-anchor="middle" x="174" y="-63" font-family="Helvetica,sans-Serif" font-size="10.00">field_0x4</text>
<text text-anchor="middle" x="174" y="-52" font-family="Helvetica,sans-Serif" font-size="10.00">field_0x8</text>
<text text-anchor="middle" x="174" y="-41" font-family="Helvetica,sans-Serif" font-size="10.00">field_0xc</text>
</g>
<!-- Node3 -->
<g id="node3" class="node">
<title>Node3</title>
<g id="a_node3"><a xlink:href="classJUTPalette.html" target="_top" xlink:title=" ">
<polygon fill="white" stroke="black" points="37.5,-189.5 37.5,-208.5 103.5,-208.5 103.5,-189.5 37.5,-189.5"/>
<text text-anchor="middle" x="70.5" y="-196.5" font-family="Helvetica,sans-Serif" font-size="10.00">JUTPalette</text>
</a>
</g>
</g>
<!-- Node3&#45;&gt;Node2 -->
<g id="edge2" class="edge">
<title>Node3&#45;&gt;Node2</title>
<path fill="none" stroke="#9a32cd" stroke-dasharray="5,2" d="M74.02,-179.4C76.76,-169.33 81.49,-157.29 89.5,-149 97.6,-140.61 108.73,-134.69 119.39,-130.57"/>
<polygon fill="#9a32cd" stroke="#9a32cd" points="70.58,-178.75 71.77,-189.28 77.41,-180.31 70.58,-178.75"/>
<text text-anchor="middle" x="119" y="-163" font-family="Helvetica,sans-Serif" font-size="10.00"> field_0x2c</text>
<text text-anchor="middle" x="119" y="-152" font-family="Helvetica,sans-Serif" font-size="10.00">mEmbPalette</text>
</g>
<!-- Node4 -->
<g id="node4" class="node">
<title>Node4</title>
<g id="a_node4"><a xlink:href="structResTLUT.html" target="_top" xlink:title=" ">
<polygon fill="white" stroke="black" points="0,-256.5 0,-275.5 59,-275.5 59,-256.5 0,-256.5"/>
<text text-anchor="middle" x="29.5" y="-263.5" font-family="Helvetica,sans-Serif" font-size="10.00">ResTLUT</text>
</a>
</g>
</g>
<!-- Node4&#45;&gt;Node3 -->
<g id="edge3" class="edge">
<title>Node4&#45;&gt;Node3</title>
<path fill="none" stroke="#9a32cd" stroke-dasharray="5,2" d="M27.24,-245.81C27.32,-239.48 28.36,-232.62 31.5,-227 35.91,-219.09 43.73,-212.99 51.22,-208.61"/>
<polygon fill="#9a32cd" stroke="#9a32cd" points="23.78,-246.49 27.88,-256.25 30.76,-246.06 23.78,-246.49"/>
<text text-anchor="middle" x="60.5" y="-230" font-family="Helvetica,sans-Serif" font-size="10.00"> mColorTable</text>
</g>
<!-- Node5 -->
<g id="node5" class="node">
<title>Node5</title>
<g id="a_node5"><a xlink:href="struct__GXTlutObj.html" target="_top" xlink:title=" ">
<polygon fill="white" stroke="black" points="77.5,-256.5 77.5,-275.5 145.5,-275.5 145.5,-256.5 77.5,-256.5"/>
<text text-anchor="middle" x="111.5" y="-263.5" font-family="Helvetica,sans-Serif" font-size="10.00">_GXTlutObj</text>
</a>
</g>
</g>
<!-- Node5&#45;&gt;Node3 -->
<g id="edge4" class="edge">
<title>Node5&#45;&gt;Node3</title>
<path fill="none" stroke="#9a32cd" stroke-dasharray="5,2" d="M101.9,-247.68C98.16,-241.13 93.75,-233.64 89.5,-227 85.55,-220.82 80.8,-214.07 77.04,-208.86"/>
<polygon fill="#9a32cd" stroke="#9a32cd" points="98.86,-249.42 106.82,-256.42 104.97,-245.99 98.86,-249.42"/>
<text text-anchor="middle" x="117" y="-230" font-family="Helvetica,sans-Serif" font-size="10.00"> mTlutObj</text>
</g>
<!-- Node6 -->
<g id="node6" class="node">
<title>Node6</title>
<g id="a_node6"><a xlink:href="structResTIMG.html" target="_top" xlink:title=" ">
<polygon fill="white" stroke="black" points="123,-189.5 123,-208.5 182,-208.5 182,-189.5 123,-189.5"/>
<text text-anchor="middle" x="152.5" y="-196.5" font-family="Helvetica,sans-Serif" font-size="10.00">ResTIMG</text>
</a>
</g>
</g>
<!-- Node6&#45;&gt;Node2 -->
<g id="edge5" class="edge">
<title>Node6&#45;&gt;Node2</title>
<path fill="none" stroke="#9a32cd" stroke-dasharray="5,2" d="M152.5,-179.22C152.5,-163.7 152.5,-142.36 152.5,-130.62"/>
<polygon fill="#9a32cd" stroke="#9a32cd" points="149,-179.28 152.5,-189.28 156,-179.28 149,-179.28"/>
<text text-anchor="middle" x="174" y="-157.5" font-family="Helvetica,sans-Serif" font-size="10.00"> mTexInfo</text>
</g>
<!-- Node7 -->
<g id="node7" class="node">
<title>Node7</title>
<g id="a_node7"><a xlink:href="struct__GXTexObj.html" target="_top" xlink:title=" ">
<polygon fill="white" stroke="black" points="200,-189.5 200,-208.5 267,-208.5 267,-189.5 200,-189.5"/>
<text text-anchor="middle" x="233.5" y="-196.5" font-family="Helvetica,sans-Serif" font-size="10.00">_GXTexObj</text>
</a>
</g>
</g>
<!-- Node7&#45;&gt;Node2 -->
<g id="edge6" class="edge">
<title>Node7&#45;&gt;Node2</title>
<path fill="none" stroke="#9a32cd" stroke-dasharray="5,2" d="M223.94,-180.42C217.87,-170.37 209.33,-158.02 199.5,-149 191.32,-141.49 180.7,-135.17 171.62,-130.53"/>
<polygon fill="#9a32cd" stroke="#9a32cd" points="220.94,-182.23 228.96,-189.16 227.01,-178.74 220.94,-182.23"/>
<text text-anchor="middle" x="237.5" y="-157.5" font-family="Helvetica,sans-Serif" font-size="10.00"> mTexObj</text>
</g>
</g>
</svg>
