<?xml version="1.0" encoding="UTF-8" standalone="no"?>
<!DOCTYPE svg PUBLIC "-//W3C//DTD SVG 1.1//EN"
 "http://www.w3.org/Graphics/SVG/1.1/DTD/svg11.dtd">
<!-- Generated by graphviz version 2.44.0 ()
 -->
<!-- Title: CPaneMgr Pages: 1 -->
<svg width="1589pt" height="493pt"
 viewBox="0.00 0.00 1589.00 493.00" xmlns="http://www.w3.org/2000/svg" xmlns:xlink="http://www.w3.org/1999/xlink">
<g id="graph0" class="graph" transform="scale(1 1) rotate(0) translate(4 489)">
<title>CPaneMgr</title>
<polygon fill="white" stroke="transparent" points="-4,4 -4,-489 1585,-489 1585,4 -4,4"/>
<!-- Node1 -->
<g id="node1" class="node">
<title>Node1</title>
<g id="a_node1"><a xlink:title=" ">
<polygon fill="#bfbfbf" stroke="black" points="1519,-274.5 1519,-293.5 1581,-293.5 1581,-274.5 1519,-274.5"/>
<text text-anchor="middle" x="1550" y="-281.5" font-family="Helvetica,sans-Serif" font-size="10.00">CPaneMgr</text>
</a>
</g>
</g>
<!-- Node2 -->
<g id="node2" class="node">
<title>Node2</title>
<g id="a_node2"><a xlink:href="structCPaneMgrAlpha.html" target="_top" xlink:title=" ">
<polygon fill="white" stroke="black" points="1312,-312.5 1312,-331.5 1399,-331.5 1399,-312.5 1312,-312.5"/>
<text text-anchor="middle" x="1355.5" y="-319.5" font-family="Helvetica,sans-Serif" font-size="10.00">CPaneMgrAlpha</text>
</a>
</g>
</g>
<!-- Node2&#45;&gt;Node1 -->
<g id="edge1" class="edge">
<title>Node2&#45;&gt;Node1</title>
<path fill="none" stroke="midnightblue" d="M1409.32,-314.77C1436.81,-310.62 1470.88,-304.87 1501,-298 1506.84,-296.67 1513.02,-295.04 1518.93,-293.37"/>
<polygon fill="midnightblue" stroke="midnightblue" points="1408.5,-311.36 1399.12,-316.28 1409.53,-318.28 1408.5,-311.36"/>
</g>
<!-- Node3 -->
<g id="node3" class="node">
<title>Node3</title>
<g id="a_node3"><a xlink:href="structJKRExpHeap.html" target="_top" xlink:title=" ">
<polygon fill="white" stroke="black" points="1133,-319.5 1133,-338.5 1207,-338.5 1207,-319.5 1133,-319.5"/>
<text text-anchor="middle" x="1170" y="-326.5" font-family="Helvetica,sans-Serif" font-size="10.00">JKRExpHeap</text>
</a>
</g>
</g>
<!-- Node3&#45;&gt;Node2 -->
<g id="edge2" class="edge">
<title>Node3&#45;&gt;Node2</title>
<path fill="none" stroke="#9a32cd" stroke-dasharray="5,2" d="M1217.55,-327.22C1246.57,-326.12 1283.63,-324.7 1311.88,-323.63"/>
<polygon fill="#9a32cd" stroke="#9a32cd" points="1217.11,-323.74 1207.25,-327.62 1217.38,-330.73 1217.11,-323.74"/>
<text text-anchor="middle" x="1249.5" y="-330" font-family="Helvetica,sans-Serif" font-size="10.00"> heap</text>
</g>
<!-- Node4 -->
<g id="node4" class="node">
<title>Node4</title>
<g id="a_node4"><a xlink:href="structJKRHeap.html" target="_top" xlink:title=" ">
<polygon fill="white" stroke="black" points="929.5,-375.5 929.5,-394.5 988.5,-394.5 988.5,-375.5 929.5,-375.5"/>
<text text-anchor="middle" x="959" y="-382.5" font-family="Helvetica,sans-Serif" font-size="10.00">JKRHeap</text>
</a>
</g>
</g>
<!-- Node4&#45;&gt;Node3 -->
<g id="edge3" class="edge">
<title>Node4&#45;&gt;Node3</title>
<path fill="none" stroke="midnightblue" d="M998.83,-383.53C1030.83,-381.32 1076.97,-375.79 1115,-362 1130.29,-356.46 1145.95,-346.29 1156.44,-338.7"/>
<polygon fill="midnightblue" stroke="midnightblue" points="998.32,-380.06 988.55,-384.16 998.74,-387.05 998.32,-380.06"/>
</g>
<!-- Node4&#45;&gt;Node4 -->
<g id="edge11" class="edge">
<title>Node4&#45;&gt;Node4</title>
<path fill="none" stroke="#9a32cd" stroke-dasharray="5,2" d="M937.05,-404.03C938.25,-409.13 945.56,-413 959,-413 979.97,-413 986.04,-403.57 977.19,-394.76"/>
<polygon fill="#9a32cd" stroke="#9a32cd" points="940.3,-405.34 940.81,-394.76 933.81,-402.71 940.3,-405.34"/>
<text text-anchor="middle" x="959" y="-438" font-family="Helvetica,sans-Serif" font-size="10.00"> sCurrentHeap</text>
<text text-anchor="middle" x="959" y="-427" font-family="Helvetica,sans-Serif" font-size="10.00">sRootHeap</text>
<text text-anchor="middle" x="959" y="-416" font-family="Helvetica,sans-Serif" font-size="10.00">sSystemHeap</text>
</g>
<!-- Node5 -->
<g id="node5" class="node">
<title>Node5</title>
<g id="a_node5"><a xlink:href="structJKRDisposer.html" target="_top" xlink:title=" ">
<polygon fill="white" stroke="black" points="1133,-425.5 1133,-444.5 1207,-444.5 1207,-425.5 1133,-425.5"/>
<text text-anchor="middle" x="1170" y="-432.5" font-family="Helvetica,sans-Serif" font-size="10.00">JKRDisposer</text>
</a>
</g>
</g>
<!-- Node4&#45;&gt;Node5 -->
<g id="edge5" class="edge">
<title>Node4&#45;&gt;Node5</title>
<path fill="none" stroke="#9a32cd" stroke-dasharray="5,2" d="M998.83,-387.35C1030.65,-390.08 1076.54,-395.87 1115,-408 1128.4,-412.22 1142.56,-419.42 1153.02,-425.33"/>
<polygon fill="#9a32cd" stroke="#9a32cd" points="998.85,-383.84 988.6,-386.54 998.3,-390.82 998.85,-383.84"/>
<text text-anchor="middle" x="1079" y="-411" font-family="Helvetica,sans-Serif" font-size="10.00"> mHeap</text>
</g>
<!-- Node5&#45;&gt;Node4 -->
<g id="edge4" class="edge">
<title>Node5&#45;&gt;Node4</title>
<path fill="none" stroke="midnightblue" d="M1122.62,-433.16C1098.55,-431.38 1068.85,-427.87 1043,-421 1019.62,-414.78 994.34,-403.02 977.9,-394.63"/>
<polygon fill="midnightblue" stroke="midnightblue" points="1122.69,-436.67 1132.9,-433.84 1123.16,-429.69 1122.69,-436.67"/>
</g>
<!-- Node6 -->
<g id="node6" class="node">
<title>Node6</title>
<g id="a_node6"><a xlink:href="structJSULink.html" target="_top" xlink:title=" ">
<polygon fill="white" stroke="black" points="224,-440.5 224,-459.5 352,-459.5 352,-440.5 224,-440.5"/>
<text text-anchor="middle" x="288" y="-447.5" font-family="Helvetica,sans-Serif" font-size="10.00">JSULink&lt; JKRDisposer &gt;</text>
</a>
</g>
</g>
<!-- Node6&#45;&gt;Node5 -->
<g id="edge6" class="edge">
<title>Node6&#45;&gt;Node5</title>
<path fill="none" stroke="#9a32cd" stroke-dasharray="5,2" d="M362.24,-459.46C420.58,-466.17 504.38,-474 578,-474 578,-474 578,-474 960,-474 1024.04,-474 1097.27,-456.09 1137.83,-444.54"/>
<polygon fill="#9a32cd" stroke="#9a32cd" points="362.36,-455.94 352.02,-458.26 361.54,-462.9 362.36,-455.94"/>
<text text-anchor="middle" x="723" y="-477" font-family="Helvetica,sans-Serif" font-size="10.00"> mLink</text>
</g>
<!-- Node7 -->
<g id="node7" class="node">
<title>Node7</title>
<g id="a_node7"><a xlink:href="structJSUPtrLink.html" target="_top" xlink:title=" ">
<polygon fill="white" stroke="black" points="0,-375.5 0,-394.5 68,-394.5 68,-375.5 0,-375.5"/>
<text text-anchor="middle" x="34" y="-382.5" font-family="Helvetica,sans-Serif" font-size="10.00">JSUPtrLink</text>
</a>
</g>
</g>
<!-- Node7&#45;&gt;Node6 -->
<g id="edge7" class="edge">
<title>Node7&#45;&gt;Node6</title>
<path fill="none" stroke="midnightblue" d="M71.75,-397.67C76.52,-399.2 81.36,-400.68 86,-402 139.13,-417.17 201.07,-431.46 242,-440.44"/>
<polygon fill="midnightblue" stroke="midnightblue" points="72.72,-394.31 62.12,-394.53 70.54,-400.96 72.72,-394.31"/>
</g>
<!-- Node7&#45;&gt;Node7 -->
<g id="edge8" class="edge">
<title>Node7&#45;&gt;Node7</title>
<path fill="none" stroke="#9a32cd" stroke-dasharray="5,2" d="M21.48,-404.77C22.46,-409.5 26.64,-413 34,-413 46.09,-413 49.58,-403.57 44.48,-394.76"/>
<polygon fill="#9a32cd" stroke="#9a32cd" points="24.95,-405.25 23.52,-394.76 18.09,-403.86 24.95,-405.25"/>
<text text-anchor="middle" x="34" y="-427" font-family="Helvetica,sans-Serif" font-size="10.00"> mNext</text>
<text text-anchor="middle" x="34" y="-416" font-family="Helvetica,sans-Serif" font-size="10.00">mPrev</text>
</g>
<!-- Node8 -->
<g id="node8" class="node">
<title>Node8</title>
<g id="a_node8"><a xlink:href="structJSUPtrList.html" target="_top" xlink:title=" ">
<polygon fill="white" stroke="black" points="139.5,-377.5 139.5,-396.5 204.5,-396.5 204.5,-377.5 139.5,-377.5"/>
<text text-anchor="middle" x="172" y="-384.5" font-family="Helvetica,sans-Serif" font-size="10.00">JSUPtrList</text>
</a>
</g>
</g>
<!-- Node7&#45;&gt;Node8 -->
<g id="edge10" class="edge">
<title>Node7&#45;&gt;Node8</title>
<path fill="none" stroke="#9a32cd" stroke-dasharray="5,2" d="M58.71,-370.6C67.03,-366.3 76.65,-362.17 86,-360 100.72,-356.59 105.33,-356.36 120,-360 133.61,-363.38 147.59,-371.14 157.46,-377.48"/>
<polygon fill="#9a32cd" stroke="#9a32cd" points="57.02,-367.53 49.94,-375.41 60.39,-373.67 57.02,-367.53"/>
<text text-anchor="middle" x="103" y="-374" font-family="Helvetica,sans-Serif" font-size="10.00"> mHead</text>
<text text-anchor="middle" x="103" y="-363" font-family="Helvetica,sans-Serif" font-size="10.00">mTail</text>
</g>
<!-- Node11 -->
<g id="node11" class="node">
<title>Node11</title>
<g id="a_node11"><a xlink:href="structJSULink.html" target="_top" xlink:title=" ">
<polygon fill="white" stroke="black" points="392.5,-302.5 392.5,-321.5 475.5,-321.5 475.5,-302.5 392.5,-302.5"/>
<text text-anchor="middle" x="434" y="-309.5" font-family="Helvetica,sans-Serif" font-size="10.00">JSULink&lt; A0 &gt;</text>
</a>
</g>
</g>
<!-- Node7&#45;&gt;Node11 -->
<g id="edge16" class="edge">
<title>Node7&#45;&gt;Node11</title>
<path fill="none" stroke="midnightblue" d="M55.74,-369.63C64.62,-363.79 75.39,-357.67 86,-354 192.23,-317.22 326.42,-311.68 392.48,-311.42"/>
<polygon fill="midnightblue" stroke="midnightblue" points="53.48,-366.93 47.24,-375.49 57.46,-372.69 53.48,-366.93"/>
</g>
<!-- Node8&#45;&gt;Node7 -->
<g id="edge9" class="edge">
<title>Node8&#45;&gt;Node7</title>
<path fill="none" stroke="#9a32cd" stroke-dasharray="5,2" d="M128.99,-386.57C115.28,-386.41 99.99,-386.22 86,-386 80.24,-385.91 74.12,-385.8 68.19,-385.69"/>
<polygon fill="#9a32cd" stroke="#9a32cd" points="129.07,-390.07 139.11,-386.68 129.15,-383.07 129.07,-390.07"/>
<text text-anchor="middle" x="103" y="-390" font-family="Helvetica,sans-Serif" font-size="10.00"> mList</text>
</g>
<!-- Node10 -->
<g id="node10" class="node">
<title>Node10</title>
<g id="a_node10"><a xlink:href="structJSUList.html" target="_top" xlink:title=" ">
<polygon fill="white" stroke="black" points="393.5,-352.5 393.5,-371.5 474.5,-371.5 474.5,-352.5 393.5,-352.5"/>
<text text-anchor="middle" x="434" y="-359.5" font-family="Helvetica,sans-Serif" font-size="10.00">JSUList&lt; A0 &gt;</text>
</a>
</g>
</g>
<!-- Node8&#45;&gt;Node10 -->
<g id="edge14" class="edge">
<title>Node8&#45;&gt;Node10</title>
<path fill="none" stroke="midnightblue" d="M214.59,-383C263.69,-378.28 344.76,-370.49 393.1,-365.84"/>
<polygon fill="midnightblue" stroke="midnightblue" points="214.24,-379.52 204.62,-383.96 214.91,-386.49 214.24,-379.52"/>
</g>
<!-- Node13 -->
<g id="node13" class="node">
<title>Node13</title>
<g id="a_node13"><a xlink:href="structJSUList.html" target="_top" xlink:title=" ">
<polygon fill="white" stroke="black" points="516,-410.5 516,-429.5 642,-429.5 642,-410.5 516,-410.5"/>
<text text-anchor="middle" x="579" y="-417.5" font-family="Helvetica,sans-Serif" font-size="10.00">JSUList&lt; JKRDisposer &gt;</text>
</a>
</g>
</g>
<!-- Node8&#45;&gt;Node13 -->
<g id="edge19" class="edge">
<title>Node8&#45;&gt;Node13</title>
<path fill="none" stroke="midnightblue" d="M214.77,-390.4C286.25,-396.23 432.39,-408.14 515.87,-414.94"/>
<polygon fill="midnightblue" stroke="midnightblue" points="215.03,-386.91 204.78,-389.59 214.46,-393.89 215.03,-386.91"/>
</g>
<!-- Node9 -->
<g id="node9" class="node">
<title>Node9</title>
<g id="a_node9"><a xlink:href="classJSUTree.html" target="_top" xlink:title=" ">
<polygon fill="white" stroke="black" points="666,-332.5 666,-351.5 780,-351.5 780,-332.5 666,-332.5"/>
<text text-anchor="middle" x="723" y="-339.5" font-family="Helvetica,sans-Serif" font-size="10.00">JSUTree&lt; JKRHeap &gt;</text>
</a>
</g>
</g>
<!-- Node9&#45;&gt;Node4 -->
<g id="edge12" class="edge">
<title>Node9&#45;&gt;Node4</title>
<path fill="none" stroke="#9a32cd" stroke-dasharray="5,2" d="M789.97,-352.2C816.46,-356.48 847.23,-361.69 875,-367 893.1,-370.46 913.32,-374.83 929.26,-378.4"/>
<polygon fill="#9a32cd" stroke="#9a32cd" points="790.48,-348.73 780.05,-350.6 789.37,-355.64 790.48,-348.73"/>
<text text-anchor="middle" x="839.5" y="-370" font-family="Helvetica,sans-Serif" font-size="10.00"> mChildTree</text>
</g>
<!-- Node10&#45;&gt;Node9 -->
<g id="edge13" class="edge">
<title>Node10&#45;&gt;Node9</title>
<path fill="none" stroke="midnightblue" d="M484.91,-358.73C526.84,-355.95 588.34,-351.83 642,-348 649.64,-347.46 657.69,-346.87 665.62,-346.28"/>
<polygon fill="midnightblue" stroke="midnightblue" points="484.44,-355.25 474.69,-359.4 484.9,-362.24 484.44,-355.25"/>
</g>
<!-- Node21 -->
<g id="node21" class="node">
<title>Node21</title>
<g id="a_node21"><a xlink:href="classJSUTree.html" target="_top" xlink:title=" ">
<polygon fill="white" stroke="black" points="667,-253.5 667,-272.5 779,-272.5 779,-253.5 667,-253.5"/>
<text text-anchor="middle" x="723" y="-260.5" font-family="Helvetica,sans-Serif" font-size="10.00">JSUTree&lt; J2DPane &gt;</text>
</a>
</g>
</g>
<!-- Node10&#45;&gt;Node21 -->
<g id="edge29" class="edge">
<title>Node10&#45;&gt;Node21</title>
<path fill="none" stroke="midnightblue" d="M484.54,-355.53C528.58,-348.01 593.33,-332.52 642,-302 652.13,-295.65 649.92,-288.43 660,-282 665.98,-278.19 672.77,-275.1 679.61,-272.61"/>
<polygon fill="midnightblue" stroke="midnightblue" points="483.95,-352.08 474.65,-357.14 485.08,-358.98 483.95,-352.08"/>
</g>
<!-- Node11&#45;&gt;Node9 -->
<g id="edge15" class="edge">
<title>Node11&#45;&gt;Node9</title>
<path fill="none" stroke="midnightblue" d="M485.55,-317.28C536.06,-322.56 613.54,-330.66 665.92,-336.14"/>
<polygon fill="midnightblue" stroke="midnightblue" points="485.82,-313.79 475.51,-316.23 485.09,-320.76 485.82,-313.79"/>
</g>
<!-- Node11&#45;&gt;Node21 -->
<g id="edge30" class="edge">
<title>Node11&#45;&gt;Node21</title>
<path fill="none" stroke="midnightblue" d="M485.61,-303.36C536.46,-294.68 614.59,-281.34 666.96,-272.4"/>
<polygon fill="midnightblue" stroke="midnightblue" points="484.78,-299.95 475.51,-305.08 485.96,-306.85 484.78,-299.95"/>
</g>
<!-- Node12 -->
<g id="node12" class="node">
<title>Node12</title>
<g id="a_node12"><a xlink:href="structOSMutex.html" target="_top" xlink:title=" ">
<polygon fill="white" stroke="black" points="694.5,-370.5 694.5,-389.5 751.5,-389.5 751.5,-370.5 694.5,-370.5"/>
<text text-anchor="middle" x="723" y="-377.5" font-family="Helvetica,sans-Serif" font-size="10.00">OSMutex</text>
</a>
</g>
</g>
<!-- Node12&#45;&gt;Node4 -->
<g id="edge17" class="edge">
<title>Node12&#45;&gt;Node4</title>
<path fill="none" stroke="#9a32cd" stroke-dasharray="5,2" d="M761.79,-380.81C808.52,-381.81 887.03,-383.48 929.18,-384.38"/>
<polygon fill="#9a32cd" stroke="#9a32cd" points="761.83,-377.31 751.76,-380.59 761.68,-384.31 761.83,-377.31"/>
<text text-anchor="middle" x="839.5" y="-387" font-family="Helvetica,sans-Serif" font-size="10.00"> mMutex</text>
</g>
<!-- Node13&#45;&gt;Node4 -->
<g id="edge18" class="edge">
<title>Node13&#45;&gt;Node4</title>
<path fill="none" stroke="#9a32cd" stroke-dasharray="5,2" d="M652.14,-416.8C711.98,-413.69 799.22,-408.07 875,-399 893.14,-396.83 913.35,-393.44 929.29,-390.54"/>
<polygon fill="#9a32cd" stroke="#9a32cd" points="651.84,-413.31 642.03,-417.32 652.2,-420.3 651.84,-413.31"/>
<text text-anchor="middle" x="723" y="-419" font-family="Helvetica,sans-Serif" font-size="10.00"> mDisposerList</text>
</g>
<!-- Node14 -->
<g id="node14" class="node">
<title>Node14</title>
<g id="a_node14"><a xlink:href="classJKRExpHeap_1_1CMemBlock.html" target="_top" xlink:title=" ">
<polygon fill="white" stroke="black" points="893,-297.5 893,-316.5 1025,-316.5 1025,-297.5 893,-297.5"/>
<text text-anchor="middle" x="959" y="-304.5" font-family="Helvetica,sans-Serif" font-size="10.00">JKRExpHeap::CMemBlock</text>
</a>
</g>
</g>
<!-- Node14&#45;&gt;Node3 -->
<g id="edge20" class="edge">
<title>Node14&#45;&gt;Node3</title>
<path fill="none" stroke="#9a32cd" stroke-dasharray="5,2" d="M1035.35,-310.37C1060.73,-312.03 1089.16,-314.47 1115,-318 1120.78,-318.79 1126.88,-319.83 1132.8,-320.95"/>
<polygon fill="#9a32cd" stroke="#9a32cd" points="1035.25,-306.86 1025.05,-309.73 1034.81,-313.85 1035.25,-306.86"/>
<text text-anchor="middle" x="1079" y="-354" font-family="Helvetica,sans-Serif" font-size="10.00"> mHeadFreeList</text>
<text text-anchor="middle" x="1079" y="-343" font-family="Helvetica,sans-Serif" font-size="10.00">mHeadUsedList</text>
<text text-anchor="middle" x="1079" y="-332" font-family="Helvetica,sans-Serif" font-size="10.00">mTailFreeList</text>
<text text-anchor="middle" x="1079" y="-321" font-family="Helvetica,sans-Serif" font-size="10.00">mTailUsedList</text>
</g>
<!-- Node14&#45;&gt;Node14 -->
<g id="edge21" class="edge">
<title>Node14&#45;&gt;Node14</title>
<path fill="none" stroke="#9a32cd" stroke-dasharray="5,2" d="M937.05,-326.03C938.25,-331.13 945.56,-335 959,-335 979.97,-335 986.04,-325.57 977.19,-316.76"/>
<polygon fill="#9a32cd" stroke="#9a32cd" points="940.3,-327.34 940.81,-316.76 933.81,-324.71 940.3,-327.34"/>
<text text-anchor="middle" x="959" y="-349" font-family="Helvetica,sans-Serif" font-size="10.00"> mNext</text>
<text text-anchor="middle" x="959" y="-338" font-family="Helvetica,sans-Serif" font-size="10.00">mPrev</text>
</g>
<!-- Node15 -->
<g id="node15" class="node">
<title>Node15</title>
<g id="a_node15"><a xlink:href="structJ2DWindow.html" target="_top" xlink:title=" ">
<polygon fill="white" stroke="black" points="1136,-143.5 1136,-162.5 1204,-162.5 1204,-143.5 1136,-143.5"/>
<text text-anchor="middle" x="1170" y="-150.5" font-family="Helvetica,sans-Serif" font-size="10.00">J2DWindow</text>
</a>
</g>
</g>
<!-- Node15&#45;&gt;Node2 -->
<g id="edge22" class="edge">
<title>Node15&#45;&gt;Node2</title>
<path fill="none" stroke="#9a32cd" stroke-dasharray="5,2" d="M1189.1,-169.67C1226.94,-204.52 1313.45,-284.19 1343.77,-312.11"/>
<polygon fill="#9a32cd" stroke="#9a32cd" points="1191.12,-166.77 1181.39,-162.57 1186.38,-171.92 1191.12,-166.77"/>
<text text-anchor="middle" x="1249.5" y="-251" font-family="Helvetica,sans-Serif" font-size="10.00"> mWindow</text>
</g>
<!-- Node16 -->
<g id="node16" class="node">
<title>Node16</title>
<g id="a_node16"><a xlink:href="structJ2DPane.html" target="_top" xlink:title=" ">
<polygon fill="white" stroke="black" points="931,-76.5 931,-95.5 987,-95.5 987,-76.5 931,-76.5"/>
<text text-anchor="middle" x="959" y="-83.5" font-family="Helvetica,sans-Serif" font-size="10.00">J2DPane</text>
</a>
</g>
</g>
<!-- Node16&#45;&gt;Node15 -->
<g id="edge23" class="edge">
<title>Node16&#45;&gt;Node15</title>
<path fill="none" stroke="midnightblue" d="M997.28,-91.5C1029.27,-96.96 1076.19,-106.74 1115,-122 1129.29,-127.62 1144.34,-136.54 1154.91,-143.37"/>
<polygon fill="midnightblue" stroke="midnightblue" points="997.48,-87.99 987.04,-89.82 996.34,-94.89 997.48,-87.99"/>
</g>
<!-- Node17 -->
<g id="node17" class="node">
<title>Node17</title>
<g id="a_node17"><a xlink:href="structJGeometry_1_1TBox2.html" target="_top" xlink:title=" ">
<polygon fill="white" stroke="black" points="660,-52.5 660,-71.5 786,-71.5 786,-52.5 660,-52.5"/>
<text text-anchor="middle" x="723" y="-59.5" font-family="Helvetica,sans-Serif" font-size="10.00">JGeometry::TBox2&lt; f32 &gt;</text>
</a>
</g>
</g>
<!-- Node17&#45;&gt;Node15 -->
<g id="edge31" class="edge">
<title>Node17&#45;&gt;Node15</title>
<path fill="none" stroke="#9a32cd" stroke-dasharray="5,2" d="M795.92,-51.3C857.47,-44.33 948.07,-39.3 1025,-56 1067.95,-65.32 1079.11,-71.62 1115,-97 1133.97,-110.41 1151.82,-131.08 1161.5,-143.2"/>
<polygon fill="#9a32cd" stroke="#9a32cd" points="795.44,-47.83 785.92,-52.48 796.26,-54.78 795.44,-47.83"/>
<text text-anchor="middle" x="959" y="-59" font-family="Helvetica,sans-Serif" font-size="10.00"> field_0x114</text>
</g>
<!-- Node17&#45;&gt;Node16 -->
<g id="edge24" class="edge">
<title>Node17&#45;&gt;Node16</title>
<path fill="none" stroke="#9a32cd" stroke-dasharray="5,2" d="M796.38,-63.81C821.35,-64.97 849.46,-66.88 875,-70 893.79,-72.3 914.72,-76.34 930.86,-79.79"/>
<polygon fill="#9a32cd" stroke="#9a32cd" points="796.39,-60.31 786.25,-63.37 796.09,-67.3 796.39,-60.31"/>
<text text-anchor="middle" x="839.5" y="-106" font-family="Helvetica,sans-Serif" font-size="10.00"> mBounds</text>
<text text-anchor="middle" x="839.5" y="-95" font-family="Helvetica,sans-Serif" font-size="10.00">mClipRect</text>
<text text-anchor="middle" x="839.5" y="-84" font-family="Helvetica,sans-Serif" font-size="10.00">mGlobalBounds</text>
<text text-anchor="middle" x="839.5" y="-73" font-family="Helvetica,sans-Serif" font-size="10.00">static_mBounds</text>
</g>
<!-- Node18 -->
<g id="node18" class="node">
<title>Node18</title>
<g id="a_node18"><a xlink:href="structJGeometry_1_1TBox.html" target="_top" xlink:title=" ">
<polygon fill="white" stroke="black" points="370,-47 370,-77 498,-77 498,-47 370,-47"/>
<text text-anchor="start" x="378" y="-65" font-family="Helvetica,sans-Serif" font-size="10.00">JGeometry::TBox&lt; TVec2</text>
<text text-anchor="middle" x="434" y="-54" font-family="Helvetica,sans-Serif" font-size="10.00">&lt; T &gt; &gt;</text>
</a>
</g>
</g>
<!-- Node18&#45;&gt;Node17 -->
<g id="edge25" class="edge">
<title>Node18&#45;&gt;Node17</title>
<path fill="none" stroke="midnightblue" d="M508.43,-62C555.27,-62 615.32,-62 659.81,-62"/>
<polygon fill="midnightblue" stroke="midnightblue" points="508.34,-58.5 498.34,-62 508.34,-65.5 508.34,-58.5"/>
</g>
<!-- Node19 -->
<g id="node19" class="node">
<title>Node19</title>
<g id="a_node19"><a xlink:href="structJ2DAnmTransform.html" target="_top" xlink:title=" ">
<polygon fill="white" stroke="black" points="674,-0.5 674,-19.5 772,-19.5 772,-0.5 674,-0.5"/>
<text text-anchor="middle" x="723" y="-7.5" font-family="Helvetica,sans-Serif" font-size="10.00">J2DAnmTransform</text>
</a>
</g>
</g>
<!-- Node19&#45;&gt;Node16 -->
<g id="edge26" class="edge">
<title>Node19&#45;&gt;Node16</title>
<path fill="none" stroke="#9a32cd" stroke-dasharray="5,2" d="M776.83,-21.93C806.09,-29.05 842.92,-38.86 875,-50 897.11,-57.67 921.6,-68.61 938.21,-76.41"/>
<polygon fill="#9a32cd" stroke="#9a32cd" points="777.36,-18.46 766.82,-19.53 775.73,-25.26 777.36,-18.46"/>
<text text-anchor="middle" x="839.5" y="-53" font-family="Helvetica,sans-Serif" font-size="10.00"> mTransform</text>
</g>
<!-- Node20 -->
<g id="node20" class="node">
<title>Node20</title>
<g id="a_node20"><a xlink:href="structJ2DAnmBase.html" target="_top" xlink:title=" ">
<polygon fill="white" stroke="black" points="395.5,-0.5 395.5,-19.5 472.5,-19.5 472.5,-0.5 395.5,-0.5"/>
<text text-anchor="middle" x="434" y="-7.5" font-family="Helvetica,sans-Serif" font-size="10.00">J2DAnmBase</text>
</a>
</g>
</g>
<!-- Node20&#45;&gt;Node19 -->
<g id="edge27" class="edge">
<title>Node20&#45;&gt;Node19</title>
<path fill="none" stroke="midnightblue" d="M482.67,-10C535.67,-10 620.79,-10 673.94,-10"/>
<polygon fill="midnightblue" stroke="midnightblue" points="482.52,-6.5 472.52,-10 482.52,-13.5 482.52,-6.5"/>
</g>
<!-- Node21&#45;&gt;Node16 -->
<g id="edge28" class="edge">
<title>Node21&#45;&gt;Node16</title>
<path fill="none" stroke="#9a32cd" stroke-dasharray="5,2" d="M789.52,-266.83C819.19,-265.03 852.56,-257.52 875,-236 901.62,-210.47 875.74,-187.59 893,-155 906.17,-130.13 930.75,-107.7 945.62,-95.54"/>
<polygon fill="#9a32cd" stroke="#9a32cd" points="789.06,-263.34 779.2,-267.24 789.34,-270.34 789.06,-263.34"/>
<text text-anchor="middle" x="839.5" y="-269" font-family="Helvetica,sans-Serif" font-size="10.00"> mPaneTree</text>
</g>
<!-- Node22 -->
<g id="node22" class="node">
<title>Node22</title>
<g id="a_node22"><a xlink:href="structJUtility_1_1TColor.html" target="_top" xlink:title=" ">
<polygon fill="white" stroke="black" points="919,-259.5 919,-278.5 999,-278.5 999,-259.5 919,-259.5"/>
<text text-anchor="middle" x="959" y="-266.5" font-family="Helvetica,sans-Serif" font-size="10.00">JUtility::TColor</text>
</a>
</g>
</g>
<!-- Node22&#45;&gt;Node1 -->
<g id="edge42" class="edge">
<title>Node22&#45;&gt;Node1</title>
<path fill="none" stroke="#9a32cd" stroke-dasharray="5,2" d="M1009.29,-270.26C1127.24,-273.26 1423.06,-280.79 1518.68,-283.23"/>
<polygon fill="#9a32cd" stroke="#9a32cd" points="1009.19,-266.75 999.1,-270 1009.01,-273.75 1009.19,-266.75"/>
<text text-anchor="middle" x="1249.5" y="-291" font-family="Helvetica,sans-Serif" font-size="10.00"> mInitBlack</text>
<text text-anchor="middle" x="1249.5" y="-280" font-family="Helvetica,sans-Serif" font-size="10.00">mInitWhite</text>
</g>
<!-- Node22&#45;&gt;Node15 -->
<g id="edge32" class="edge">
<title>Node22&#45;&gt;Node15</title>
<path fill="none" stroke="#9a32cd" stroke-dasharray="5,2" d="M977.39,-252.34C993.35,-237.83 1018.2,-217.12 1043,-204 1072.69,-188.29 1083.98,-193.89 1115,-181 1127.87,-175.65 1141.83,-168.37 1152.33,-162.58"/>
<polygon fill="#9a32cd" stroke="#9a32cd" points="974.85,-249.92 969.9,-259.29 979.61,-255.05 974.85,-249.92"/>
<text text-anchor="middle" x="1079" y="-262" font-family="Helvetica,sans-Serif" font-size="10.00"> field_0x128</text>
<text text-anchor="middle" x="1079" y="-251" font-family="Helvetica,sans-Serif" font-size="10.00">field_0x12C</text>
<text text-anchor="middle" x="1079" y="-240" font-family="Helvetica,sans-Serif" font-size="10.00">field_0x130</text>
<text text-anchor="middle" x="1079" y="-229" font-family="Helvetica,sans-Serif" font-size="10.00">field_0x134</text>
<text text-anchor="middle" x="1079" y="-218" font-family="Helvetica,sans-Serif" font-size="10.00">mBlack</text>
<text text-anchor="middle" x="1079" y="-207" font-family="Helvetica,sans-Serif" font-size="10.00">mWhite</text>
</g>
<!-- Node23 -->
<g id="node23" class="node">
<title>Node23</title>
<g id="a_node23"><a xlink:href="struct__GXColor.html" target="_top" xlink:title=" ">
<polygon fill="white" stroke="black" points="696.5,-291.5 696.5,-310.5 749.5,-310.5 749.5,-291.5 696.5,-291.5"/>
<text text-anchor="middle" x="723" y="-298.5" font-family="Helvetica,sans-Serif" font-size="10.00">GXColor</text>
</a>
</g>
</g>
<!-- Node23&#45;&gt;Node22 -->
<g id="edge33" class="edge">
<title>Node23&#45;&gt;Node22</title>
<path fill="none" stroke="midnightblue" d="M759.94,-296.09C802.85,-290.22 874.38,-280.44 918.72,-274.37"/>
<polygon fill="midnightblue" stroke="midnightblue" points="759.37,-292.63 749.94,-297.45 760.32,-299.57 759.37,-292.63"/>
</g>
<!-- Node24 -->
<g id="node24" class="node">
<title>Node24</title>
<g id="a_node24"><a xlink:href="classJUTPalette.html" target="_top" xlink:title=" ">
<polygon fill="white" stroke="black" points="401,-143.5 401,-162.5 467,-162.5 467,-143.5 401,-143.5"/>
<text text-anchor="middle" x="434" y="-150.5" font-family="Helvetica,sans-Serif" font-size="10.00">JUTPalette</text>
</a>
</g>
</g>
<!-- Node24&#45;&gt;Node15 -->
<g id="edge34" class="edge">
<title>Node24&#45;&gt;Node15</title>
<path fill="none" stroke="#9a32cd" stroke-dasharray="5,2" d="M477.18,-153C609.85,-153 1016.95,-153 1135.99,-153"/>
<polygon fill="#9a32cd" stroke="#9a32cd" points="477.01,-149.5 467.01,-153 477.01,-156.5 477.01,-149.5"/>
<text text-anchor="middle" x="839.5" y="-156" font-family="Helvetica,sans-Serif" font-size="10.00"> mPalette</text>
</g>
<!-- Node28 -->
<g id="node28" class="node">
<title>Node28</title>
<g id="a_node28"><a xlink:href="classJUTTexture.html" target="_top" xlink:title=" ">
<polygon fill="white" stroke="black" points="689,-185.5 689,-204.5 757,-204.5 757,-185.5 689,-185.5"/>
<text text-anchor="middle" x="723" y="-192.5" font-family="Helvetica,sans-Serif" font-size="10.00">JUTTexture</text>
</a>
</g>
</g>
<!-- Node24&#45;&gt;Node28 -->
<g id="edge39" class="edge">
<title>Node24&#45;&gt;Node28</title>
<path fill="none" stroke="#9a32cd" stroke-dasharray="5,2" d="M477.25,-155.76C519.25,-158.91 585.41,-164.97 642,-175 657.51,-177.75 674.46,-181.83 688.75,-185.59"/>
<polygon fill="#9a32cd" stroke="#9a32cd" points="477.34,-152.26 467.11,-155.02 476.83,-159.24 477.34,-152.26"/>
<text text-anchor="middle" x="579" y="-189" font-family="Helvetica,sans-Serif" font-size="10.00"> field_0x2c</text>
<text text-anchor="middle" x="579" y="-178" font-family="Helvetica,sans-Serif" font-size="10.00">mEmbPalette</text>
</g>
<!-- Node25 -->
<g id="node25" class="node">
<title>Node25</title>
<g id="a_node25"><a xlink:href="structResTLUT.html" target="_top" xlink:title=" ">
<polygon fill="white" stroke="black" points="142.5,-124.5 142.5,-143.5 201.5,-143.5 201.5,-124.5 142.5,-124.5"/>
<text text-anchor="middle" x="172" y="-131.5" font-family="Helvetica,sans-Serif" font-size="10.00">ResTLUT</text>
</a>
</g>
</g>
<!-- Node25&#45;&gt;Node24 -->
<g id="edge35" class="edge">
<title>Node25&#45;&gt;Node24</title>
<path fill="none" stroke="#9a32cd" stroke-dasharray="5,2" d="M211.76,-133.49C248.09,-133.38 303.85,-134.19 352,-139 368.19,-140.62 386.02,-143.57 400.82,-146.35"/>
<polygon fill="#9a32cd" stroke="#9a32cd" points="211.58,-129.99 201.6,-133.54 211.62,-136.99 211.58,-129.99"/>
<text text-anchor="middle" x="288" y="-142" font-family="Helvetica,sans-Serif" font-size="10.00"> mColorTable</text>
</g>
<!-- Node26 -->
<g id="node26" class="node">
<title>Node26</title>
<g id="a_node26"><a xlink:href="struct__GXTlutObj.html" target="_top" xlink:title=" ">
<polygon fill="white" stroke="black" points="138,-162.5 138,-181.5 206,-181.5 206,-162.5 138,-162.5"/>
<text text-anchor="middle" x="172" y="-169.5" font-family="Helvetica,sans-Serif" font-size="10.00">_GXTlutObj</text>
</a>
</g>
</g>
<!-- Node26&#45;&gt;Node24 -->
<g id="edge36" class="edge">
<title>Node26&#45;&gt;Node24</title>
<path fill="none" stroke="#9a32cd" stroke-dasharray="5,2" d="M216.44,-168.83C268.46,-165.02 354.38,-158.75 400.82,-155.35"/>
<polygon fill="#9a32cd" stroke="#9a32cd" points="215.91,-165.35 206.19,-169.57 216.42,-172.34 215.91,-165.35"/>
<text text-anchor="middle" x="288" y="-171" font-family="Helvetica,sans-Serif" font-size="10.00"> mTlutObj</text>
</g>
<!-- Node27 -->
<g id="node27" class="node">
<title>Node27</title>
<g id="a_node27"><a xlink:href="structJ2DWindow_1_1TMaterial.html" target="_top" xlink:title=" ">
<polygon fill="white" stroke="black" points="902.5,-164.5 902.5,-183.5 1015.5,-183.5 1015.5,-164.5 902.5,-164.5"/>
<text text-anchor="middle" x="959" y="-171.5" font-family="Helvetica,sans-Serif" font-size="10.00">J2DWindow::TMaterial</text>
</a>
</g>
</g>
<!-- Node27&#45;&gt;Node15 -->
<g id="edge37" class="edge">
<title>Node27&#45;&gt;Node15</title>
<path fill="none" stroke="#9a32cd" stroke-dasharray="5,2" d="M1025.85,-167.38C1062.47,-163.7 1106.46,-159.28 1135.92,-156.32"/>
<polygon fill="#9a32cd" stroke="#9a32cd" points="1025.33,-163.92 1015.73,-168.4 1026.03,-170.88 1025.33,-163.92"/>
<text text-anchor="middle" x="1079" y="-169" font-family="Helvetica,sans-Serif" font-size="10.00"> mMaterial</text>
</g>
<!-- Node28&#45;&gt;Node27 -->
<g id="edge38" class="edge">
<title>Node28&#45;&gt;Node27</title>
<path fill="none" stroke="#9a32cd" stroke-dasharray="5,2" d="M767.42,-186.36C779.24,-184.29 792.08,-182.31 804,-181 836.46,-177.44 872.95,-175.68 902.27,-174.82"/>
<polygon fill="#9a32cd" stroke="#9a32cd" points="766.56,-182.96 757.34,-188.18 767.8,-189.85 766.56,-182.96"/>
<text text-anchor="middle" x="839.5" y="-228" font-family="Helvetica,sans-Serif" font-size="10.00"> field_0x0</text>
<text text-anchor="middle" x="839.5" y="-217" font-family="Helvetica,sans-Serif" font-size="10.00">field_0x10</text>
<text text-anchor="middle" x="839.5" y="-206" font-family="Helvetica,sans-Serif" font-size="10.00">field_0x4</text>
<text text-anchor="middle" x="839.5" y="-195" font-family="Helvetica,sans-Serif" font-size="10.00">field_0x8</text>
<text text-anchor="middle" x="839.5" y="-184" font-family="Helvetica,sans-Serif" font-size="10.00">field_0xc</text>
</g>
<!-- Node29 -->
<g id="node29" class="node">
<title>Node29</title>
<g id="a_node29"><a xlink:href="structResTIMG.html" target="_top" xlink:title=" ">
<polygon fill="white" stroke="black" points="404.5,-242.5 404.5,-261.5 463.5,-261.5 463.5,-242.5 404.5,-242.5"/>
<text text-anchor="middle" x="434" y="-249.5" font-family="Helvetica,sans-Serif" font-size="10.00">ResTIMG</text>
</a>
</g>
</g>
<!-- Node29&#45;&gt;Node28 -->
<g id="edge40" class="edge">
<title>Node29&#45;&gt;Node28</title>
<path fill="none" stroke="#9a32cd" stroke-dasharray="5,2" d="M473.89,-249.23C515.84,-245.66 584.38,-238.17 642,-224 661.94,-219.1 683.81,-210.97 699.64,-204.56"/>
<polygon fill="#9a32cd" stroke="#9a32cd" points="473.5,-245.75 463.82,-250.05 474.07,-252.73 473.5,-245.75"/>
<text text-anchor="middle" x="579" y="-248" font-family="Helvetica,sans-Serif" font-size="10.00"> mTexInfo</text>
</g>
<!-- Node30 -->
<g id="node30" class="node">
<title>Node30</title>
<g id="a_node30"><a xlink:href="struct__GXTexObj.html" target="_top" xlink:title=" ">
<polygon fill="white" stroke="black" points="400.5,-204.5 400.5,-223.5 467.5,-223.5 467.5,-204.5 400.5,-204.5"/>
<text text-anchor="middle" x="434" y="-211.5" font-family="Helvetica,sans-Serif" font-size="10.00">_GXTexObj</text>
</a>
</g>
</g>
<!-- Node30&#45;&gt;Node28 -->
<g id="edge41" class="edge">
<title>Node30&#45;&gt;Node28</title>
<path fill="none" stroke="#9a32cd" stroke-dasharray="5,2" d="M477.88,-211.16C535.54,-207.34 636.82,-200.64 688.95,-197.19"/>
<polygon fill="#9a32cd" stroke="#9a32cd" points="477.39,-207.69 467.64,-211.84 477.85,-214.67 477.39,-207.69"/>
<text text-anchor="middle" x="579" y="-212" font-family="Helvetica,sans-Serif" font-size="10.00"> mTexObj</text>
</g>
<!-- Node31 -->
<g id="node31" class="node">
<title>Node31</title>
<g id="a_node31"><a xlink:href="structJGeometry_1_1TVec2.html" target="_top" xlink:title=" ">
<polygon fill="white" stroke="black" points="1292,-193.5 1292,-212.5 1419,-212.5 1419,-193.5 1292,-193.5"/>
<text text-anchor="middle" x="1355.5" y="-200.5" font-family="Helvetica,sans-Serif" font-size="10.00">JGeometry::TVec2&lt; f32 &gt;</text>
</a>
</g>
</g>
<!-- Node31&#45;&gt;Node1 -->
<g id="edge43" class="edge">
<title>Node31&#45;&gt;Node1</title>
<path fill="none" stroke="#9a32cd" stroke-dasharray="5,2" d="M1405.46,-191.88C1435.01,-187.83 1472.35,-187.65 1501,-204 1528.01,-219.42 1541.5,-256.71 1546.56,-274.39"/>
<polygon fill="#9a32cd" stroke="#9a32cd" points="1404.7,-188.45 1395.36,-193.45 1405.78,-195.37 1404.7,-188.45"/>
<text text-anchor="middle" x="1469" y="-262" font-family="Helvetica,sans-Serif" font-size="10.00"> mGlobalPos</text>
<text text-anchor="middle" x="1469" y="-251" font-family="Helvetica,sans-Serif" font-size="10.00">mInitPos</text>
<text text-anchor="middle" x="1469" y="-240" font-family="Helvetica,sans-Serif" font-size="10.00">mInitScale</text>
<text text-anchor="middle" x="1469" y="-229" font-family="Helvetica,sans-Serif" font-size="10.00">mInitSize</text>
<text text-anchor="middle" x="1469" y="-218" font-family="Helvetica,sans-Serif" font-size="10.00">mInitTrans</text>
<text text-anchor="middle" x="1469" y="-207" font-family="Helvetica,sans-Serif" font-size="10.00">mRotateOffset</text>
</g>
</g>
</svg>
