<?xml version="1.0" encoding="UTF-8" standalone="no"?>
<!DOCTYPE svg PUBLIC "-//W3C//DTD SVG 1.1//EN"
 "http://www.w3.org/Graphics/SVG/1.1/DTD/svg11.dtd">
<!-- Generated by graphviz version 9.0.0 (20230911.1827)
 -->
<!-- Title: libs/PowerPC_EABI_Support/MetroTRK/trk.h Pages: 1 -->
<svg width="2226pt" height="338pt"
 viewBox="0.00 0.00 2226.05 338.25" xmlns="http://www.w3.org/2000/svg" xmlns:xlink="http://www.w3.org/1999/xlink">
<g id="graph0" class="graph" transform="scale(1 1) rotate(0) translate(4 334.25)">
<title>libs/PowerPC_EABI_Support/MetroTRK/trk.h</title>
<!-- Node1 -->
<g id="Node000001" class="node">
<title>Node1</title>
<g id="a_Node000001"><a xlink:title=" ">
<polygon fill="#999999" stroke="#666666" points="1340.18,-330.25 1198.18,-330.25 1198.18,-299.75 1340.18,-299.75 1340.18,-330.25"/>
<text text-anchor="start" x="1206.18" y="-316.75" font-family="Helvetica,sans-Serif" font-size="10.00">libs/PowerPC_EABI_Support</text>
<text text-anchor="middle" x="1269.18" y="-305.5" font-family="Helvetica,sans-Serif" font-size="10.00">/MetroTRK/trk.h</text>
</a>
</g>
</g>
<!-- Node2 -->
<g id="Node000002" class="node">
<title>Node2</title>
<g id="a_Node000002"><a xlink:href="main__TRK_8h.html" target="_top" xlink:title=" ">
<polygon fill="white" stroke="#666666" points="181.43,-263.75 28.93,-263.75 28.93,-222 181.43,-222 181.43,-263.75"/>
<text text-anchor="start" x="36.93" y="-250.25" font-family="Helvetica,sans-Serif" font-size="10.00">include/TRK_MINNOW</text>
<text text-anchor="start" x="36.93" y="-239" font-family="Helvetica,sans-Serif" font-size="10.00">_DOLPHIN/MetroTRK/Portable</text>
<text text-anchor="middle" x="105.18" y="-227.75" font-family="Helvetica,sans-Serif" font-size="10.00">/main_TRK.h</text>
</a>
</g>
</g>
<!-- Node1&#45;&gt;Node2 -->
<g id="edge1_Node000001_Node000002" class="edge">
<title>Node1&#45;&gt;Node2</title>
<g id="a_edge1_Node000001_Node000002"><a xlink:title=" ">
<path fill="none" stroke="#63b8ff" d="M1186.62,-311.96C969.57,-306.31 386.51,-289.16 195.18,-263.75 190.74,-263.16 186.19,-262.46 181.62,-261.68"/>
<polygon fill="#63b8ff" stroke="#63b8ff" points="1186.31,-315.45 1196.4,-312.21 1186.49,-308.46 1186.31,-315.45"/>
</a>
</g>
</g>
<!-- Node5 -->
<g id="Node000005" class="node">
<title>Node5</title>
<g id="a_Node000005"><a xlink:href="msgbuf_8h.html" target="_top" xlink:title=" ">
<polygon fill="white" stroke="#666666" points="1014.43,-263.75 861.93,-263.75 861.93,-222 1014.43,-222 1014.43,-263.75"/>
<text text-anchor="start" x="869.93" y="-250.25" font-family="Helvetica,sans-Serif" font-size="10.00">include/TRK_MINNOW</text>
<text text-anchor="start" x="869.93" y="-239" font-family="Helvetica,sans-Serif" font-size="10.00">_DOLPHIN/MetroTRK/Portable</text>
<text text-anchor="middle" x="938.18" y="-227.75" font-family="Helvetica,sans-Serif" font-size="10.00">/msgbuf.h</text>
</a>
</g>
</g>
<!-- Node1&#45;&gt;Node5 -->
<g id="edge4_Node000001_Node000005" class="edge">
<title>Node1&#45;&gt;Node5</title>
<g id="a_edge4_Node000001_Node000005"><a xlink:title=" ">
<path fill="none" stroke="#63b8ff" d="M1188.74,-296.96C1135.78,-285.74 1066.85,-271.14 1014.7,-260.09"/>
<polygon fill="#63b8ff" stroke="#63b8ff" points="1187.8,-300.34 1198.31,-298.99 1189.25,-293.49 1187.8,-300.34"/>
</a>
</g>
</g>
<!-- Node6 -->
<g id="Node000006" class="node">
<title>Node6</title>
<g id="a_Node000006"><a xlink:href="msghndlr_8h.html" target="_top" xlink:title=" ">
<polygon fill="white" stroke="#666666" points="844.43,-186 691.93,-186 691.93,-144.25 844.43,-144.25 844.43,-186"/>
<text text-anchor="start" x="699.93" y="-172.5" font-family="Helvetica,sans-Serif" font-size="10.00">include/TRK_MINNOW</text>
<text text-anchor="start" x="699.93" y="-161.25" font-family="Helvetica,sans-Serif" font-size="10.00">_DOLPHIN/MetroTRK/Portable</text>
<text text-anchor="middle" x="768.18" y="-150" font-family="Helvetica,sans-Serif" font-size="10.00">/msghndlr.h</text>
</a>
</g>
</g>
<!-- Node1&#45;&gt;Node6 -->
<g id="edge25_Node000001_Node000006" class="edge">
<title>Node1&#45;&gt;Node6</title>
<g id="a_edge25_Node000001_Node000006"><a xlink:title=" ">
<path fill="none" stroke="#63b8ff" d="M1186.52,-311C1082.1,-306.02 909.25,-293.46 853.18,-263.75 819.62,-245.97 793.33,-209.12 779.33,-186.12"/>
<polygon fill="#63b8ff" stroke="#63b8ff" points="1186.3,-314.49 1196.45,-311.46 1186.62,-307.5 1186.3,-314.49"/>
</a>
</g>
</g>
<!-- Node7 -->
<g id="Node000007" class="node">
<title>Node7</title>
<g id="a_Node000007"><a xlink:href="mslsupp_8c.html" target="_top" xlink:title=" ">
<polygon fill="white" stroke="#666666" points="449.05,-102.62 297.3,-102.62 297.3,-72.12 449.05,-72.12 449.05,-102.62"/>
<text text-anchor="start" x="305.3" y="-89.12" font-family="Helvetica,sans-Serif" font-size="10.00">libs/TRK_MINNOW_DOLPHIN</text>
<text text-anchor="middle" x="373.18" y="-77.88" font-family="Helvetica,sans-Serif" font-size="10.00">/MetroTRK/Export/mslsupp.c</text>
</a>
</g>
</g>
<!-- Node1&#45;&gt;Node7 -->
<g id="edge42_Node000001_Node000007" class="edge">
<title>Node1&#45;&gt;Node7</title>
<g id="a_edge42_Node000001_Node000007"><a xlink:title=" ">
<path fill="none" stroke="#63b8ff" d="M1186.58,-313.78C914.38,-312.67 60.59,-305.82 20.18,-263.75 -69.89,-169.98 168.18,-118.8 296.93,-98.64"/>
<polygon fill="#63b8ff" stroke="#63b8ff" points="1186.41,-317.28 1196.43,-313.82 1186.44,-310.28 1186.41,-317.28"/>
</a>
</g>
</g>
<!-- Node8 -->
<g id="Node000008" class="node">
<title>Node8</title>
<g id="a_Node000008"><a xlink:href="dispatch_8c.html" target="_top" xlink:title=" ">
<polygon fill="white" stroke="#666666" points="816.05,-102.62 664.3,-102.62 664.3,-72.12 816.05,-72.12 816.05,-102.62"/>
<text text-anchor="start" x="672.3" y="-89.12" font-family="Helvetica,sans-Serif" font-size="10.00">libs/TRK_MINNOW_DOLPHIN</text>
<text text-anchor="middle" x="740.18" y="-77.88" font-family="Helvetica,sans-Serif" font-size="10.00">/MetroTRK/Portable/dispatch.c</text>
</a>
</g>
</g>
<!-- Node1&#45;&gt;Node8 -->
<g id="edge43_Node000001_Node000008" class="edge">
<title>Node1&#45;&gt;Node8</title>
<g id="a_edge43_Node000001_Node000008"><a xlink:title=" ">
<path fill="none" stroke="#63b8ff" d="M1186.55,-312.73C989.99,-309.19 499,-297.19 338.18,-263.75 313.92,-258.71 143.32,-206.35 129.18,-186 118.59,-170.76 116.67,-157.96 129.18,-144.25 138.1,-134.47 501.9,-106.16 663.82,-94.02"/>
<polygon fill="#63b8ff" stroke="#63b8ff" points="1186.36,-316.23 1196.42,-312.9 1186.49,-309.23 1186.36,-316.23"/>
</a>
</g>
</g>
<!-- Node9 -->
<g id="Node000009" class="node">
<title>Node9</title>
<g id="a_Node000009"><a xlink:href="msghndlr_8c.html" target="_top" xlink:title=" ">
<polygon fill="white" stroke="#666666" points="1471.43,-102.62 1318.93,-102.62 1318.93,-72.12 1471.43,-72.12 1471.43,-102.62"/>
<text text-anchor="start" x="1326.93" y="-89.12" font-family="Helvetica,sans-Serif" font-size="10.00">libs/TRK_MINNOW_DOLPHIN</text>
<text text-anchor="middle" x="1395.18" y="-77.88" font-family="Helvetica,sans-Serif" font-size="10.00">/MetroTRK/Portable/msghndlr.c</text>
</a>
</g>
</g>
<!-- Node1&#45;&gt;Node9 -->
<g id="edge47_Node000001_Node000009" class="edge">
<title>Node1&#45;&gt;Node9</title>
<g id="a_edge47_Node000001_Node000009"><a xlink:title=" ">
<path fill="none" stroke="#63b8ff" d="M1319.24,-294.61C1361.91,-274.8 1419.37,-239.32 1439.18,-186 1445.64,-168.61 1445.25,-161.78 1439.18,-144.25 1433.6,-128.15 1421.25,-113.17 1411.05,-102.78"/>
<polygon fill="#63b8ff" stroke="#63b8ff" points="1317.82,-291.42 1310.12,-298.7 1320.68,-297.8 1317.82,-291.42"/>
</a>
</g>
</g>
<!-- Node10 -->
<g id="Node000010" class="node">
<title>Node10</title>
<g id="a_Node000010"><a xlink:href="nubevent_8h.html" target="_top" xlink:title=" ">
<polygon fill="white" stroke="#666666" points="1090.43,-186 937.93,-186 937.93,-144.25 1090.43,-144.25 1090.43,-186"/>
<text text-anchor="start" x="945.93" y="-172.5" font-family="Helvetica,sans-Serif" font-size="10.00">include/TRK_MINNOW</text>
<text text-anchor="start" x="945.93" y="-161.25" font-family="Helvetica,sans-Serif" font-size="10.00">_DOLPHIN/MetroTRK/Portable</text>
<text text-anchor="middle" x="1014.18" y="-150" font-family="Helvetica,sans-Serif" font-size="10.00">/nubevent.h</text>
</a>
</g>
</g>
<!-- Node1&#45;&gt;Node10 -->
<g id="edge26_Node000001_Node000010" class="edge">
<title>Node1&#45;&gt;Node10</title>
<g id="a_edge26_Node000001_Node000010"><a xlink:title=" ">
<path fill="none" stroke="#63b8ff" d="M1229.13,-294.41C1211.22,-285.4 1189.96,-274.38 1171.18,-263.75 1126.49,-238.45 1076.33,-206.64 1045,-186.34"/>
<polygon fill="#63b8ff" stroke="#63b8ff" points="1227.38,-297.44 1237.9,-298.78 1230.51,-291.18 1227.38,-297.44"/>
</a>
</g>
</g>
<!-- Node11 -->
<g id="Node000011" class="node">
<title>Node11</title>
<g id="a_Node000011"><a xlink:href="targimpl_8h.html" target="_top" xlink:title=" ">
<polygon fill="white" stroke="#666666" points="1709.05,-108.25 1587.3,-108.25 1587.3,-66.5 1709.05,-66.5 1709.05,-108.25"/>
<text text-anchor="start" x="1595.3" y="-94.75" font-family="Helvetica,sans-Serif" font-size="10.00">include/TRK_MINNOW</text>
<text text-anchor="start" x="1595.3" y="-83.5" font-family="Helvetica,sans-Serif" font-size="10.00">_DOLPHIN/ppc/Generic</text>
<text text-anchor="middle" x="1648.18" y="-72.25" font-family="Helvetica,sans-Serif" font-size="10.00">/targimpl.h</text>
</a>
</g>
</g>
<!-- Node1&#45;&gt;Node11 -->
<g id="edge41_Node000001_Node000011" class="edge">
<title>Node1&#45;&gt;Node11</title>
<g id="a_edge41_Node000001_Node000011"><a xlink:title=" ">
<path fill="none" stroke="#63b8ff" d="M1351.94,-308.4C1444.53,-301.14 1588,-286.63 1637.18,-263.75 1683.9,-242.02 1702.27,-233.09 1723.18,-186 1730.71,-169.04 1731.5,-160.83 1723.18,-144.25 1715.75,-129.45 1702.33,-117.57 1688.88,-108.64"/>
<polygon fill="#63b8ff" stroke="#63b8ff" points="1351.84,-304.89 1342.14,-309.15 1352.38,-311.87 1351.84,-304.89"/>
</a>
</g>
</g>
<!-- Node12 -->
<g id="Node000012" class="node">
<title>Node12</title>
<g id="a_Node000012"><a xlink:href="mainloop_8c.html" target="_top" xlink:title=" ">
<polygon fill="white" stroke="#666666" points="1724.05,-30.5 1572.3,-30.5 1572.3,0 1724.05,0 1724.05,-30.5"/>
<text text-anchor="start" x="1580.3" y="-17" font-family="Helvetica,sans-Serif" font-size="10.00">libs/TRK_MINNOW_DOLPHIN</text>
<text text-anchor="middle" x="1648.18" y="-5.75" font-family="Helvetica,sans-Serif" font-size="10.00">/MetroTRK/Portable/mainloop.c</text>
</a>
</g>
</g>
<!-- Node1&#45;&gt;Node12 -->
<g id="edge44_Node000001_Node000012" class="edge">
<title>Node1&#45;&gt;Node12</title>
<g id="a_edge44_Node000001_Node000012"><a xlink:title=" ">
<path fill="none" stroke="#63b8ff" d="M1351.88,-311.73C1456.27,-307.55 1628.8,-295.88 1683.18,-263.75 1733.68,-233.91 1746.89,-202.39 1739.18,-144.25 1734.47,-108.77 1738.57,-95.92 1718.18,-66.5 1707.78,-51.5 1691.4,-39.38 1677.09,-30.81"/>
<polygon fill="#63b8ff" stroke="#63b8ff" points="1351.8,-308.23 1341.95,-312.11 1352.07,-315.23 1351.8,-308.23"/>
</a>
</g>
</g>
<!-- Node15 -->
<g id="Node000015" class="node">
<title>Node15</title>
<g id="a_Node000015"><a xlink:href="targimpl_8c.html" target="_top" xlink:title=" ">
<polygon fill="white" stroke="#666666" points="1894.05,-30.5 1742.3,-30.5 1742.3,0 1894.05,0 1894.05,-30.5"/>
<text text-anchor="start" x="1750.3" y="-17" font-family="Helvetica,sans-Serif" font-size="10.00">libs/TRK_MINNOW_DOLPHIN</text>
<text text-anchor="middle" x="1818.18" y="-5.75" font-family="Helvetica,sans-Serif" font-size="10.00">/ppc/Generic/targimpl.c</text>
</a>
</g>
</g>
<!-- Node1&#45;&gt;Node15 -->
<g id="edge53_Node000001_Node000015" class="edge">
<title>Node1&#45;&gt;Node15</title>
<g id="a_edge53_Node000001_Node000015"><a xlink:title=" ">
<path fill="none" stroke="#63b8ff" d="M1351.66,-314.34C1465.27,-313.22 1662.35,-305.14 1719.18,-263.75 1798.3,-206.12 1814.26,-74.78 1817.42,-30.86"/>
<polygon fill="#63b8ff" stroke="#63b8ff" points="1351.74,-310.84 1341.77,-314.42 1351.8,-317.84 1351.74,-310.84"/>
</a>
</g>
</g>
<!-- Node17 -->
<g id="Node000017" class="node">
<title>Node17</title>
<g id="a_Node000017"><a xlink:href="serpoll_8c.html" target="_top" xlink:title=" ">
<polygon fill="white" stroke="#666666" points="986.05,-102.62 834.3,-102.62 834.3,-72.12 986.05,-72.12 986.05,-102.62"/>
<text text-anchor="start" x="842.3" y="-89.12" font-family="Helvetica,sans-Serif" font-size="10.00">libs/TRK_MINNOW_DOLPHIN</text>
<text text-anchor="middle" x="910.18" y="-77.88" font-family="Helvetica,sans-Serif" font-size="10.00">/MetroTRK/Portable/serpoll.c</text>
</a>
</g>
</g>
<!-- Node1&#45;&gt;Node17 -->
<g id="edge50_Node000001_Node000017" class="edge">
<title>Node1&#45;&gt;Node17</title>
<g id="a_edge50_Node000001_Node000017"><a xlink:title=" ">
<path fill="none" stroke="#63b8ff" d="M1186.57,-309.76C1071.93,-303.09 870.93,-288.3 802.18,-263.75 742.68,-242.5 713.25,-241.56 683.18,-186 674.35,-169.68 671.73,-158.85 683.18,-144.25 684.49,-142.58 781.55,-119.1 848.32,-103.12"/>
<polygon fill="#63b8ff" stroke="#63b8ff" points="1186.04,-313.24 1196.22,-310.31 1186.44,-306.25 1186.04,-313.24"/>
</a>
</g>
</g>
<!-- Node18 -->
<g id="Node000018" class="node">
<title>Node18</title>
<g id="a_Node000018"><a xlink:href="msgbuf_8c.html" target="_top" xlink:title=" ">
<polygon fill="white" stroke="#666666" points="636.05,-180.38 484.3,-180.38 484.3,-149.88 636.05,-149.88 636.05,-180.38"/>
<text text-anchor="start" x="492.3" y="-166.88" font-family="Helvetica,sans-Serif" font-size="10.00">libs/TRK_MINNOW_DOLPHIN</text>
<text text-anchor="middle" x="560.18" y="-155.62" font-family="Helvetica,sans-Serif" font-size="10.00">/MetroTRK/Portable/msgbuf.c</text>
</a>
</g>
</g>
<!-- Node1&#45;&gt;Node18 -->
<g id="edge46_Node000001_Node000018" class="edge">
<title>Node1&#45;&gt;Node18</title>
<g id="a_edge46_Node000001_Node000018"><a xlink:title=" ">
<path fill="none" stroke="#63b8ff" d="M1186.84,-314.65C1040.68,-314.61 742.57,-308.78 650.18,-263.75 612.05,-245.17 582.24,-202.86 568.48,-180.54"/>
<polygon fill="#63b8ff" stroke="#63b8ff" points="1186.44,-318.15 1196.44,-314.64 1186.43,-311.15 1186.44,-318.15"/>
</a>
</g>
</g>
<!-- Node19 -->
<g id="Node000019" class="node">
<title>Node19</title>
<g id="a_Node000019"><a xlink:href="notify_8c.html" target="_top" xlink:title=" ">
<polygon fill="white" stroke="#666666" points="1260.05,-180.38 1108.3,-180.38 1108.3,-149.88 1260.05,-149.88 1260.05,-180.38"/>
<text text-anchor="start" x="1116.3" y="-166.88" font-family="Helvetica,sans-Serif" font-size="10.00">libs/TRK_MINNOW_DOLPHIN</text>
<text text-anchor="middle" x="1184.18" y="-155.62" font-family="Helvetica,sans-Serif" font-size="10.00">/MetroTRK/Portable/notify.c</text>
</a>
</g>
</g>
<!-- Node1&#45;&gt;Node19 -->
<g id="edge49_Node000001_Node000019" class="edge">
<title>Node1&#45;&gt;Node19</title>
<g id="a_edge49_Node000001_Node000019"><a xlink:title=" ">
<path fill="none" stroke="#63b8ff" d="M1216.56,-294.12C1203.71,-286.63 1191.56,-276.68 1184.18,-263.75 1169.31,-237.69 1175,-201 1179.93,-180.83"/>
<polygon fill="#63b8ff" stroke="#63b8ff" points="1214.64,-297.06 1225.11,-298.67 1217.92,-290.88 1214.64,-297.06"/>
</a>
</g>
</g>
<!-- Node20 -->
<g id="Node000020" class="node">
<title>Node20</title>
<g id="a_Node000020"><a xlink:href="support_8c.html" target="_top" xlink:title=" ">
<polygon fill="white" stroke="#666666" points="1430.05,-180.38 1278.3,-180.38 1278.3,-149.88 1430.05,-149.88 1430.05,-180.38"/>
<text text-anchor="start" x="1286.3" y="-166.88" font-family="Helvetica,sans-Serif" font-size="10.00">libs/TRK_MINNOW_DOLPHIN</text>
<text text-anchor="middle" x="1354.18" y="-155.62" font-family="Helvetica,sans-Serif" font-size="10.00">/MetroTRK/Portable/support.c</text>
</a>
</g>
</g>
<!-- Node1&#45;&gt;Node20 -->
<g id="edge51_Node000001_Node000020" class="edge">
<title>Node1&#45;&gt;Node20</title>
<g id="a_edge51_Node000001_Node000020"><a xlink:title=" ">
<path fill="none" stroke="#63b8ff" d="M1321.8,-294.12C1334.64,-286.63 1346.8,-276.68 1354.18,-263.75 1369.04,-237.69 1363.35,-201 1358.43,-180.83"/>
<polygon fill="#63b8ff" stroke="#63b8ff" points="1320.43,-290.88 1313.25,-298.67 1323.72,-297.06 1320.43,-290.88"/>
</a>
</g>
</g>
<!-- Node21 -->
<g id="Node000021" class="node">
<title>Node21</title>
<g id="a_Node000021"><a xlink:href="nubinit_8h.html" target="_top" xlink:title=" ">
<polygon fill="white" stroke="#666666" points="499.43,-263.75 346.93,-263.75 346.93,-222 499.43,-222 499.43,-263.75"/>
<text text-anchor="start" x="354.93" y="-250.25" font-family="Helvetica,sans-Serif" font-size="10.00">include/TRK_MINNOW</text>
<text text-anchor="start" x="354.93" y="-239" font-family="Helvetica,sans-Serif" font-size="10.00">_DOLPHIN/MetroTRK/Portable</text>
<text text-anchor="middle" x="423.18" y="-227.75" font-family="Helvetica,sans-Serif" font-size="10.00">/nubinit.h</text>
</a>
</g>
</g>
<!-- Node1&#45;&gt;Node21 -->
<g id="edge27_Node000001_Node000021" class="edge">
<title>Node1&#45;&gt;Node21</title>
<g id="a_edge27_Node000001_Node000021"><a xlink:title=" ">
<path fill="none" stroke="#63b8ff" d="M1186.68,-309.44C1057.12,-301.95 798.15,-285.66 579.18,-263.75 553.23,-261.15 524.94,-257.73 499.65,-254.46"/>
<polygon fill="#63b8ff" stroke="#63b8ff" points="1186.35,-312.92 1196.54,-310 1186.75,-305.94 1186.35,-312.92"/>
</a>
</g>
</g>
<!-- Node23 -->
<g id="Node000023" class="node">
<title>Node23</title>
<g id="a_Node000023"><a xlink:href="support_8h.html" target="_top" xlink:title=" ">
<polygon fill="white" stroke="#666666" points="1345.43,-263.75 1192.93,-263.75 1192.93,-222 1345.43,-222 1345.43,-263.75"/>
<text text-anchor="start" x="1200.93" y="-250.25" font-family="Helvetica,sans-Serif" font-size="10.00">include/TRK_MINNOW</text>
<text text-anchor="start" x="1200.93" y="-239" font-family="Helvetica,sans-Serif" font-size="10.00">_DOLPHIN/MetroTRK/Portable</text>
<text text-anchor="middle" x="1269.18" y="-227.75" font-family="Helvetica,sans-Serif" font-size="10.00">/support.h</text>
</a>
</g>
</g>
<!-- Node1&#45;&gt;Node23 -->
<g id="edge31_Node000001_Node000023" class="edge">
<title>Node1&#45;&gt;Node23</title>
<g id="a_edge31_Node000001_Node000023"><a xlink:title=" ">
<path fill="none" stroke="#63b8ff" d="M1269.18,-288.22C1269.18,-280.31 1269.18,-271.73 1269.18,-264.24"/>
<polygon fill="#63b8ff" stroke="#63b8ff" points="1265.68,-287.96 1269.18,-297.96 1272.68,-287.96 1265.68,-287.96"/>
</a>
</g>
</g>
<!-- Node24 -->
<g id="Node000024" class="node">
<title>Node24</title>
<g id="a_Node000024"><a xlink:href="dolphin__trk__glue_8h.html" target="_top" xlink:title=" ">
<polygon fill="white" stroke="#666666" points="1603.8,-263.75 1486.55,-263.75 1486.55,-222 1603.8,-222 1603.8,-263.75"/>
<text text-anchor="start" x="1494.55" y="-250.25" font-family="Helvetica,sans-Serif" font-size="10.00">include/TRK_MINNOW</text>
<text text-anchor="start" x="1494.55" y="-239" font-family="Helvetica,sans-Serif" font-size="10.00">_DOLPHIN/Os/dolphin</text>
<text text-anchor="middle" x="1545.18" y="-227.75" font-family="Helvetica,sans-Serif" font-size="10.00">/dolphin_trk_glue.h</text>
</a>
</g>
</g>
<!-- Node1&#45;&gt;Node24 -->
<g id="edge34_Node000001_Node000024" class="edge">
<title>Node1&#45;&gt;Node24</title>
<g id="a_edge34_Node000001_Node000024"><a xlink:title=" ">
<path fill="none" stroke="#63b8ff" d="M1340.82,-296.7C1379.73,-287.19 1428.66,-275.06 1472.18,-263.75 1476.76,-262.56 1481.49,-261.31 1486.24,-260.05"/>
<polygon fill="#63b8ff" stroke="#63b8ff" points="1340.48,-293.18 1331.59,-298.95 1342.13,-299.98 1340.48,-293.18"/>
</a>
</g>
</g>
<!-- Node25 -->
<g id="Node000025" class="node">
<title>Node25</title>
<g id="a_Node000025"><a xlink:href="dolphin__trk__glue_8c.html" target="_top" xlink:title=" ">
<polygon fill="white" stroke="#666666" points="1714.05,-186 1562.3,-186 1562.3,-144.25 1714.05,-144.25 1714.05,-186"/>
<text text-anchor="start" x="1570.3" y="-172.5" font-family="Helvetica,sans-Serif" font-size="10.00">libs/TRK_MINNOW_DOLPHIN</text>
<text text-anchor="start" x="1570.3" y="-161.25" font-family="Helvetica,sans-Serif" font-size="10.00">/Os/dolphin/dolphin_trk</text>
<text text-anchor="middle" x="1638.18" y="-150" font-family="Helvetica,sans-Serif" font-size="10.00">_glue.c</text>
</a>
</g>
</g>
<!-- Node1&#45;&gt;Node25 -->
<g id="edge52_Node000001_Node000025" class="edge">
<title>Node1&#45;&gt;Node25</title>
<g id="a_edge52_Node000001_Node000025"><a xlink:title=" ">
<path fill="none" stroke="#63b8ff" d="M1351.91,-312.2C1441.23,-308.53 1575.78,-297.39 1613.18,-263.75 1634.9,-244.21 1638.92,-208.62 1639.09,-186.23"/>
<polygon fill="#63b8ff" stroke="#63b8ff" points="1351.81,-308.7 1341.95,-312.59 1352.07,-315.7 1351.81,-308.7"/>
</a>
</g>
</g>
<!-- Node26 -->
<g id="Node000026" class="node">
<title>Node26</title>
<g id="a_Node000026"><a xlink:href="targcont_8h.html" target="_top" xlink:title=" ">
<polygon fill="white" stroke="#666666" points="1963.8,-108.25 1846.55,-108.25 1846.55,-66.5 1963.8,-66.5 1963.8,-108.25"/>
<text text-anchor="start" x="1854.55" y="-94.75" font-family="Helvetica,sans-Serif" font-size="10.00">include/TRK_MINNOW</text>
<text text-anchor="start" x="1854.55" y="-83.5" font-family="Helvetica,sans-Serif" font-size="10.00">_DOLPHIN/Os/dolphin</text>
<text text-anchor="middle" x="1905.18" y="-72.25" font-family="Helvetica,sans-Serif" font-size="10.00">/targcont.h</text>
</a>
</g>
</g>
<!-- Node1&#45;&gt;Node26 -->
<g id="edge38_Node000001_Node000026" class="edge">
<title>Node1&#45;&gt;Node26</title>
<g id="a_edge38_Node000001_Node000026"><a xlink:title=" ">
<path fill="none" stroke="#63b8ff" d="M1351.71,-311.31C1498.77,-305.83 1794.34,-291.5 1832.18,-263.75 1883.38,-226.21 1898.85,-145.96 1903.38,-108.46"/>
<polygon fill="#63b8ff" stroke="#63b8ff" points="1351.9,-307.8 1342.04,-311.66 1352.16,-314.79 1351.9,-307.8"/>
</a>
</g>
</g>
<!-- Node27 -->
<g id="Node000027" class="node">
<title>Node27</title>
<g id="a_Node000027"><a xlink:href="msg_8c.html" target="_top" xlink:title=" ">
<polygon fill="white" stroke="#666666" points="2036.05,-258.12 1884.3,-258.12 1884.3,-227.62 2036.05,-227.62 2036.05,-258.12"/>
<text text-anchor="start" x="1892.3" y="-244.62" font-family="Helvetica,sans-Serif" font-size="10.00">libs/TRK_MINNOW_DOLPHIN</text>
<text text-anchor="middle" x="1960.18" y="-233.38" font-family="Helvetica,sans-Serif" font-size="10.00">/MetroTRK/Portable/msg.c</text>
</a>
</g>
</g>
<!-- Node1&#45;&gt;Node27 -->
<g id="edge45_Node000001_Node000027" class="edge">
<title>Node1&#45;&gt;Node27</title>
<g id="a_edge45_Node000001_Node000027"><a xlink:title=" ">
<path fill="none" stroke="#63b8ff" d="M1351.58,-310.61C1467.75,-305.03 1686.09,-291.64 1870.18,-263.75 1879.51,-262.34 1889.33,-260.52 1898.9,-258.56"/>
<polygon fill="#63b8ff" stroke="#63b8ff" points="1351.65,-307.1 1341.83,-311.07 1351.98,-314.09 1351.65,-307.1"/>
</a>
</g>
</g>
<!-- Node28 -->
<g id="Node000028" class="node">
<title>Node28</title>
<g id="a_Node000028"><a xlink:href="mutex__TRK_8c.html" target="_top" xlink:title=" ">
<polygon fill="white" stroke="#666666" points="2218.05,-258.12 2054.3,-258.12 2054.3,-227.62 2218.05,-227.62 2218.05,-258.12"/>
<text text-anchor="start" x="2062.3" y="-244.62" font-family="Helvetica,sans-Serif" font-size="10.00">libs/TRK_MINNOW_DOLPHIN</text>
<text text-anchor="middle" x="2136.18" y="-233.38" font-family="Helvetica,sans-Serif" font-size="10.00">/MetroTRK/Portable/mutex_TRK.c</text>
</a>
</g>
</g>
<!-- Node1&#45;&gt;Node28 -->
<g id="edge48_Node000001_Node000028" class="edge">
<title>Node1&#45;&gt;Node28</title>
<g id="a_edge48_Node000001_Node000028"><a xlink:title=" ">
<path fill="none" stroke="#63b8ff" d="M1351.63,-312.73C1493.83,-309.62 1794.13,-299.09 2045.18,-263.75 2054.79,-262.4 2064.89,-260.59 2074.73,-258.61"/>
<polygon fill="#63b8ff" stroke="#63b8ff" points="1351.86,-309.22 1341.94,-312.93 1352.01,-316.22 1351.86,-309.22"/>
</a>
</g>
</g>
<!-- Node3 -->
<g id="Node000003" class="node">
<title>Node3</title>
<g id="a_Node000003"><a xlink:href="main__TRK_8c.html" target="_top" xlink:title=" ">
<polygon fill="white" stroke="#666666" points="296.43,-180.38 137.93,-180.38 137.93,-149.88 296.43,-149.88 296.43,-180.38"/>
<text text-anchor="start" x="145.93" y="-166.88" font-family="Helvetica,sans-Serif" font-size="10.00">libs/TRK_MINNOW_DOLPHIN</text>
<text text-anchor="middle" x="217.18" y="-155.62" font-family="Helvetica,sans-Serif" font-size="10.00">/MetroTRK/Portable/main_TRK.c</text>
</a>
</g>
</g>
<!-- Node2&#45;&gt;Node3 -->
<g id="edge2_Node000002_Node000003" class="edge">
<title>Node2&#45;&gt;Node3</title>
<g id="a_edge2_Node000002_Node000003"><a xlink:title=" ">
<path fill="none" stroke="#63b8ff" d="M144.45,-215.31C161.63,-203.69 181.13,-190.51 195.61,-180.71"/>
<polygon fill="#63b8ff" stroke="#63b8ff" points="142.77,-212.23 136.45,-220.73 146.69,-218.02 142.77,-212.23"/>
</a>
</g>
</g>
<!-- Node4 -->
<g id="Node000004" class="node">
<title>Node4</title>
<g id="a_Node000004"><a xlink:href="dolphin__trk_8c.html" target="_top" xlink:title=" ">
<polygon fill="white" stroke="#666666" points="1384.05,-30.5 1232.3,-30.5 1232.3,0 1384.05,0 1384.05,-30.5"/>
<text text-anchor="start" x="1240.3" y="-17" font-family="Helvetica,sans-Serif" font-size="10.00">libs/TRK_MINNOW_DOLPHIN</text>
<text text-anchor="middle" x="1308.18" y="-5.75" font-family="Helvetica,sans-Serif" font-size="10.00">/Os/dolphin/dolphin_trk.c</text>
</a>
</g>
</g>
<!-- Node2&#45;&gt;Node4 -->
<g id="edge3_Node000002_Node000004" class="edge">
<title>Node2&#45;&gt;Node4</title>
<g id="a_edge3_Node000002_Node000004"><a xlink:title=" ">
<path fill="none" stroke="#63b8ff" d="M101.57,-210.47C100.87,-189.78 103.33,-163.12 117.18,-144.25 166.58,-76.95 207.04,-86.18 288.18,-66.5 467.05,-23.11 1026.71,-17.05 1231.84,-16.31"/>
<polygon fill="#63b8ff" stroke="#63b8ff" points="98.08,-210.59 102.2,-220.35 105.06,-210.15 98.08,-210.59"/>
</a>
</g>
</g>
<!-- Node5&#45;&gt;Node6 -->
<g id="edge5_Node000005_Node000006" class="edge">
<title>Node5&#45;&gt;Node6</title>
<g id="a_edge5_Node000005_Node000006"><a xlink:title=" ">
<path fill="none" stroke="#63b8ff" d="M882.33,-216.99C860.14,-207.1 834.93,-195.87 813.86,-186.48"/>
<polygon fill="#63b8ff" stroke="#63b8ff" points="880.68,-220.09 891.24,-220.96 883.53,-213.69 880.68,-220.09"/>
</a>
</g>
</g>
<!-- Node5&#45;&gt;Node8 -->
<g id="edge20_Node000005_Node000008" class="edge">
<title>Node5&#45;&gt;Node8</title>
<g id="a_edge20_Node000005_Node000008"><a xlink:title=" ">
<path fill="none" stroke="#63b8ff" d="M917.73,-212.73C901.91,-191.73 878.49,-163.77 853.18,-144.25 830.65,-126.88 801.86,-112.74 778.98,-103.03"/>
<polygon fill="#63b8ff" stroke="#63b8ff" points="914.79,-214.64 923.55,-220.61 920.43,-210.49 914.79,-214.64"/>
</a>
</g>
</g>
<!-- Node5&#45;&gt;Node10 -->
<g id="edge9_Node000005_Node000010" class="edge">
<title>Node5&#45;&gt;Node10</title>
<g id="a_edge9_Node000005_Node000010"><a xlink:title=" ">
<path fill="none" stroke="#63b8ff" d="M966.56,-213.59C975.59,-204.59 985.4,-194.81 993.76,-186.48"/>
<polygon fill="#63b8ff" stroke="#63b8ff" points="964.23,-210.97 959.62,-220.51 969.17,-215.93 964.23,-210.97"/>
</a>
</g>
</g>
<!-- Node5&#45;&gt;Node17 -->
<g id="edge23_Node000005_Node000017" class="edge">
<title>Node5&#45;&gt;Node17</title>
<g id="a_edge23_Node000005_Node000017"><a xlink:title=" ">
<path fill="none" stroke="#63b8ff" d="M932.47,-210.57C926.48,-177.72 917.32,-127.51 912.84,-102.94"/>
<polygon fill="#63b8ff" stroke="#63b8ff" points="929.01,-211.11 934.25,-220.32 935.89,-209.85 929.01,-211.11"/>
</a>
</g>
</g>
<!-- Node5&#45;&gt;Node18 -->
<g id="edge21_Node000005_Node000018" class="edge">
<title>Node5&#45;&gt;Node18</title>
<g id="a_edge21_Node000005_Node000018"><a xlink:title=" ">
<path fill="none" stroke="#63b8ff" d="M850.51,-224.31C784.74,-211.13 695.73,-193.29 633.67,-180.85"/>
<polygon fill="#63b8ff" stroke="#63b8ff" points="849.71,-227.72 860.2,-226.25 851.08,-220.85 849.71,-227.72"/>
</a>
</g>
</g>
<!-- Node5&#45;&gt;Node19 -->
<g id="edge22_Node000005_Node000019" class="edge">
<title>Node5&#45;&gt;Node19</title>
<g id="a_edge22_Node000005_Node000019"><a xlink:title=" ">
<path fill="none" stroke="#63b8ff" d="M1015.09,-218.19C1054.79,-205.97 1101.98,-191.43 1136.41,-180.83"/>
<polygon fill="#63b8ff" stroke="#63b8ff" points="1014.08,-214.84 1005.55,-221.13 1016.14,-221.53 1014.08,-214.84"/>
</a>
</g>
</g>
<!-- Node5&#45;&gt;Node20 -->
<g id="edge24_Node000005_Node000020" class="edge">
<title>Node5&#45;&gt;Node20</title>
<g id="a_edge24_Node000005_Node000020"><a xlink:title=" ">
<path fill="none" stroke="#63b8ff" d="M1026,-228.58C1092.87,-218.09 1187.08,-202.51 1269.18,-186 1277.05,-184.42 1285.31,-182.64 1293.45,-180.81"/>
<polygon fill="#63b8ff" stroke="#63b8ff" points="1025.51,-225.11 1016.17,-230.12 1026.59,-232.03 1025.51,-225.11"/>
</a>
</g>
</g>
<!-- Node6&#45;&gt;Node7 -->
<g id="edge6_Node000006_Node000007" class="edge">
<title>Node6&#45;&gt;Node7</title>
<g id="a_edge6_Node000006_Node000007"><a xlink:title=" ">
<path fill="none" stroke="#63b8ff" d="M680.66,-147.34C611.32,-134.04 515.43,-115.65 449.26,-102.96"/>
<polygon fill="#63b8ff" stroke="#63b8ff" points="679.58,-150.7 690.06,-149.14 680.9,-143.82 679.58,-150.7"/>
</a>
</g>
</g>
<!-- Node6&#45;&gt;Node8 -->
<g id="edge7_Node000006_Node000008" class="edge">
<title>Node6&#45;&gt;Node8</title>
<g id="a_edge7_Node000006_Node000008"><a xlink:title=" ">
<path fill="none" stroke="#63b8ff" d="M756.76,-133.23C752.85,-122.67 748.67,-111.35 745.48,-102.73"/>
<polygon fill="#63b8ff" stroke="#63b8ff" points="753.4,-134.24 760.15,-142.41 759.97,-131.81 753.4,-134.24"/>
</a>
</g>
</g>
<!-- Node6&#45;&gt;Node9 -->
<g id="edge8_Node000006_Node000009" class="edge">
<title>Node6&#45;&gt;Node9</title>
<g id="a_edge8_Node000006_Node000009"><a xlink:title=" ">
<path fill="none" stroke="#63b8ff" d="M855.88,-153.24C879.66,-150.31 905.41,-147.14 929.18,-144.25 1066.28,-127.57 1226.12,-108.48 1318.48,-97.49"/>
<polygon fill="#63b8ff" stroke="#63b8ff" points="855.74,-149.73 846.25,-154.43 856.6,-156.68 855.74,-149.73"/>
</a>
</g>
</g>
<!-- Node10&#45;&gt;Node9 -->
<g id="edge17_Node000010_Node000009" class="edge">
<title>Node10&#45;&gt;Node9</title>
<g id="a_edge17_Node000010_Node000009"><a xlink:title=" ">
<path fill="none" stroke="#63b8ff" d="M1101.78,-143.74C1181.11,-127.14 1261.46,-112.2 1318.64,-101.89"/>
<polygon fill="#63b8ff" stroke="#63b8ff" points="1101.15,-140.3 1092.08,-145.78 1102.59,-147.15 1101.15,-140.3"/>
</a>
</g>
</g>
<!-- Node10&#45;&gt;Node11 -->
<g id="edge10_Node000010_Node000011" class="edge">
<title>Node10&#45;&gt;Node11</title>
<g id="a_edge10_Node000010_Node000011"><a xlink:title=" ">
<path fill="none" stroke="#63b8ff" d="M1101.73,-143.94C1268.99,-117.22 1314.68,-125.86 1480.18,-108.25 1515.66,-104.48 1555.31,-99.81 1587.17,-95.94"/>
<polygon fill="#63b8ff" stroke="#63b8ff" points="1101.34,-140.46 1092.03,-145.51 1102.46,-147.37 1101.34,-140.46"/>
</a>
</g>
</g>
<!-- Node10&#45;&gt;Node12 -->
<g id="edge16_Node000010_Node000012" class="edge">
<title>Node10&#45;&gt;Node12</title>
<g id="a_edge16_Node000010_Node000012"><a xlink:title=" ">
<path fill="none" stroke="#63b8ff" d="M1076.99,-139.8C1136.28,-117.7 1228.09,-85.72 1310.18,-66.5 1420.77,-40.61 1450.94,-47.89 1563.18,-30.5 1566.14,-30.04 1569.15,-29.57 1572.19,-29.08"/>
<polygon fill="#63b8ff" stroke="#63b8ff" points="1075.86,-136.48 1067.73,-143.27 1078.32,-143.04 1075.86,-136.48"/>
</a>
</g>
</g>
<!-- Node16 -->
<g id="Node000016" class="node">
<title>Node16</title>
<g id="a_Node000016"><a xlink:href="nubevent_8c.html" target="_top" xlink:title=" ">
<polygon fill="white" stroke="#666666" points="1156.43,-102.62 1003.93,-102.62 1003.93,-72.12 1156.43,-72.12 1156.43,-102.62"/>
<text text-anchor="start" x="1011.93" y="-89.12" font-family="Helvetica,sans-Serif" font-size="10.00">libs/TRK_MINNOW_DOLPHIN</text>
<text text-anchor="middle" x="1080.18" y="-77.88" font-family="Helvetica,sans-Serif" font-size="10.00">/MetroTRK/Portable/nubevent.c</text>
</a>
</g>
</g>
<!-- Node10&#45;&gt;Node16 -->
<g id="edge18_Node000010_Node000016" class="edge">
<title>Node10&#45;&gt;Node16</title>
<g id="a_edge18_Node000010_Node000016"><a xlink:title=" ">
<path fill="none" stroke="#63b8ff" d="M1039.36,-135.22C1049.05,-124.11 1059.68,-111.9 1067.67,-102.73"/>
<polygon fill="#63b8ff" stroke="#63b8ff" points="1036.79,-132.85 1032.86,-142.68 1042.07,-137.44 1036.79,-132.85"/>
</a>
</g>
</g>
<!-- Node10&#45;&gt;Node17 -->
<g id="edge19_Node000010_Node000017" class="edge">
<title>Node10&#45;&gt;Node17</title>
<g id="a_edge19_Node000010_Node000017"><a xlink:title=" ">
<path fill="none" stroke="#63b8ff" d="M977.27,-137.24C961.42,-125.7 943.53,-112.67 930.21,-102.96"/>
<polygon fill="#63b8ff" stroke="#63b8ff" points="974.94,-139.88 985.08,-142.93 979.06,-134.22 974.94,-139.88"/>
</a>
</g>
</g>
<!-- Node11&#45;&gt;Node4 -->
<g id="edge12_Node000011_Node000004" class="edge">
<title>Node11&#45;&gt;Node4</title>
<g id="a_edge12_Node000011_Node000004"><a xlink:title=" ">
<path fill="none" stroke="#63b8ff" d="M1575.74,-71.43C1517.82,-59.49 1437.07,-42.83 1379.46,-30.95"/>
<polygon fill="#63b8ff" stroke="#63b8ff" points="1575.02,-74.86 1585.52,-73.45 1576.43,-68 1575.02,-74.86"/>
</a>
</g>
</g>
<!-- Node11&#45;&gt;Node12 -->
<g id="edge11_Node000011_Node000012" class="edge">
<title>Node11&#45;&gt;Node12</title>
<g id="a_edge11_Node000011_Node000012"><a xlink:title=" ">
<path fill="none" stroke="#63b8ff" d="M1648.18,-54.63C1648.18,-46.27 1648.18,-37.65 1648.18,-30.7"/>
<polygon fill="#63b8ff" stroke="#63b8ff" points="1644.68,-54.58 1648.18,-64.58 1651.68,-54.58 1644.68,-54.58"/>
</a>
</g>
</g>
<!-- Node13 -->
<g id="Node000013" class="node">
<title>Node13</title>
<g id="a_Node000013"><a xlink:href="targcont_8c.html" target="_top" xlink:title=" ">
<polygon fill="white" stroke="#666666" points="2064.05,-30.5 1912.3,-30.5 1912.3,0 2064.05,0 2064.05,-30.5"/>
<text text-anchor="start" x="1920.3" y="-17" font-family="Helvetica,sans-Serif" font-size="10.00">libs/TRK_MINNOW_DOLPHIN</text>
<text text-anchor="middle" x="1988.18" y="-5.75" font-family="Helvetica,sans-Serif" font-size="10.00">/Os/dolphin/targcont.c</text>
</a>
</g>
</g>
<!-- Node11&#45;&gt;Node13 -->
<g id="edge13_Node000011_Node000013" class="edge">
<title>Node11&#45;&gt;Node13</title>
<g id="a_edge13_Node000011_Node000013"><a xlink:title=" ">
<path fill="none" stroke="#63b8ff" d="M1720.62,-71.43C1778.54,-59.49 1859.29,-42.83 1916.9,-30.95"/>
<polygon fill="#63b8ff" stroke="#63b8ff" points="1719.93,-68 1710.84,-73.45 1721.34,-74.86 1719.93,-68"/>
</a>
</g>
</g>
<!-- Node14 -->
<g id="Node000014" class="node">
<title>Node14</title>
<g id="a_Node000014"><a xlink:href="mpc__7xx__603e_8c.html" target="_top" xlink:title=" ">
<polygon fill="white" stroke="#666666" points="1554.05,-30.5 1402.3,-30.5 1402.3,0 1554.05,0 1554.05,-30.5"/>
<text text-anchor="start" x="1410.3" y="-17" font-family="Helvetica,sans-Serif" font-size="10.00">libs/TRK_MINNOW_DOLPHIN</text>
<text text-anchor="middle" x="1478.18" y="-5.75" font-family="Helvetica,sans-Serif" font-size="10.00">/ppc/Generic/mpc_7xx_603e.c</text>
</a>
</g>
</g>
<!-- Node11&#45;&gt;Node14 -->
<g id="edge14_Node000011_Node000014" class="edge">
<title>Node11&#45;&gt;Node14</title>
<g id="a_edge14_Node000011_Node000014"><a xlink:title=" ">
<path fill="none" stroke="#63b8ff" d="M1588.53,-61.77C1563.56,-51.47 1535.38,-39.84 1513.74,-30.92"/>
<polygon fill="#63b8ff" stroke="#63b8ff" points="1587.03,-64.94 1597.61,-65.51 1589.7,-58.47 1587.03,-64.94"/>
</a>
</g>
</g>
<!-- Node11&#45;&gt;Node15 -->
<g id="edge15_Node000011_Node000015" class="edge">
<title>Node11&#45;&gt;Node15</title>
<g id="a_edge15_Node000011_Node000015"><a xlink:title=" ">
<path fill="none" stroke="#63b8ff" d="M1707.83,-61.77C1732.8,-51.47 1760.98,-39.84 1782.62,-30.92"/>
<polygon fill="#63b8ff" stroke="#63b8ff" points="1706.66,-58.47 1698.75,-65.51 1709.33,-64.94 1706.66,-58.47"/>
</a>
</g>
</g>
<!-- Node21&#45;&gt;Node3 -->
<g id="edge28_Node000021_Node000003" class="edge">
<title>Node21&#45;&gt;Node3</title>
<g id="a_edge28_Node000021_Node000003"><a xlink:title=" ">
<path fill="none" stroke="#63b8ff" d="M357.5,-217.72C324.52,-205.6 285.64,-191.3 257.18,-180.83"/>
<polygon fill="#63b8ff" stroke="#63b8ff" points="355.96,-220.89 366.55,-221.05 358.38,-214.32 355.96,-220.89"/>
</a>
</g>
</g>
<!-- Node21&#45;&gt;Node18 -->
<g id="edge29_Node000021_Node000018" class="edge">
<title>Node21&#45;&gt;Node18</title>
<g id="a_edge29_Node000021_Node000018"><a xlink:title=" ">
<path fill="none" stroke="#63b8ff" d="M469.77,-216.12C491.13,-204.3 515.67,-190.73 533.79,-180.71"/>
<polygon fill="#63b8ff" stroke="#63b8ff" points="468.27,-212.94 461.22,-220.84 471.66,-219.07 468.27,-212.94"/>
</a>
</g>
</g>
<!-- Node22 -->
<g id="Node000022" class="node">
<title>Node22</title>
<g id="a_Node000022"><a xlink:href="nubinit_8c.html" target="_top" xlink:title=" ">
<polygon fill="white" stroke="#666666" points="466.05,-180.38 314.3,-180.38 314.3,-149.88 466.05,-149.88 466.05,-180.38"/>
<text text-anchor="start" x="322.3" y="-166.88" font-family="Helvetica,sans-Serif" font-size="10.00">libs/TRK_MINNOW_DOLPHIN</text>
<text text-anchor="middle" x="390.18" y="-155.62" font-family="Helvetica,sans-Serif" font-size="10.00">/MetroTRK/Portable/nubinit.c</text>
</a>
</g>
</g>
<!-- Node21&#45;&gt;Node22 -->
<g id="edge30_Node000021_Node000022" class="edge">
<title>Node21&#45;&gt;Node22</title>
<g id="a_edge30_Node000021_Node000022"><a xlink:title=" ">
<path fill="none" stroke="#63b8ff" d="M409.87,-211.32C405.22,-200.66 400.23,-189.19 396.43,-180.48"/>
<polygon fill="#63b8ff" stroke="#63b8ff" points="406.53,-212.42 413.73,-220.19 412.95,-209.62 406.53,-212.42"/>
</a>
</g>
</g>
<!-- Node23&#45;&gt;Node19 -->
<g id="edge32_Node000023_Node000019" class="edge">
<title>Node23&#45;&gt;Node19</title>
<g id="a_edge32_Node000023_Node000019"><a xlink:title=" ">
<path fill="none" stroke="#63b8ff" d="M1237.92,-214.01C1225.24,-202.72 1211.13,-190.14 1200.55,-180.71"/>
<polygon fill="#63b8ff" stroke="#63b8ff" points="1235.48,-216.53 1245.27,-220.57 1240.13,-211.3 1235.48,-216.53"/>
</a>
</g>
</g>
<!-- Node23&#45;&gt;Node20 -->
<g id="edge33_Node000023_Node000020" class="edge">
<title>Node23&#45;&gt;Node20</title>
<g id="a_edge33_Node000023_Node000020"><a xlink:title=" ">
<path fill="none" stroke="#63b8ff" d="M1300.44,-214.01C1313.12,-202.72 1327.23,-190.14 1337.81,-180.71"/>
<polygon fill="#63b8ff" stroke="#63b8ff" points="1298.22,-211.3 1293.09,-220.57 1302.88,-216.53 1298.22,-211.3"/>
</a>
</g>
</g>
<!-- Node24&#45;&gt;Node4 -->
<g id="edge36_Node000024_Node000004" class="edge">
<title>Node24&#45;&gt;Node4</title>
<g id="a_edge36_Node000024_Node000004"><a xlink:title=" ">
<path fill="none" stroke="#63b8ff" d="M1542.04,-210.36C1536.45,-171.14 1521.19,-104.71 1480.18,-66.5 1465.5,-52.82 1421.94,-40.17 1382.33,-30.98"/>
<polygon fill="#63b8ff" stroke="#63b8ff" points="1538.54,-210.61 1543.29,-220.09 1545.49,-209.72 1538.54,-210.61"/>
</a>
</g>
</g>
<!-- Node24&#45;&gt;Node9 -->
<g id="edge35_Node000024_Node000009" class="edge">
<title>Node24&#45;&gt;Node9</title>
<g id="a_edge35_Node000024_Node000009"><a xlink:title=" ">
<path fill="none" stroke="#63b8ff" d="M1526.56,-212.38C1512.91,-191.99 1493.16,-164.93 1472.18,-144.25 1456.06,-128.36 1435.14,-113.48 1419.18,-103.07"/>
<polygon fill="#63b8ff" stroke="#63b8ff" points="1523.5,-214.09 1531.92,-220.52 1529.35,-210.25 1523.5,-214.09"/>
</a>
</g>
</g>
<!-- Node24&#45;&gt;Node25 -->
<g id="edge37_Node000024_Node000025" class="edge">
<title>Node24&#45;&gt;Node25</title>
<g id="a_edge37_Node000024_Node000025"><a xlink:title=" ">
<path fill="none" stroke="#63b8ff" d="M1578.89,-214.41C1590.22,-205.19 1602.65,-195.06 1613.19,-186.48"/>
<polygon fill="#63b8ff" stroke="#63b8ff" points="1576.82,-211.59 1571.27,-220.62 1581.24,-217.02 1576.82,-211.59"/>
</a>
</g>
</g>
<!-- Node26&#45;&gt;Node12 -->
<g id="edge39_Node000026_Node000012" class="edge">
<title>Node26&#45;&gt;Node12</title>
<g id="a_edge39_Node000026_Node000012"><a xlink:title=" ">
<path fill="none" stroke="#63b8ff" d="M1835.24,-67.29C1793.3,-55.85 1740.76,-41.51 1702.05,-30.95"/>
<polygon fill="#63b8ff" stroke="#63b8ff" points="1834.19,-70.63 1844.76,-69.89 1836.03,-63.88 1834.19,-70.63"/>
</a>
</g>
</g>
<!-- Node26&#45;&gt;Node13 -->
<g id="edge40_Node000026_Node000013" class="edge">
<title>Node26&#45;&gt;Node13</title>
<g id="a_edge40_Node000026_Node000013"><a xlink:title=" ">
<path fill="none" stroke="#63b8ff" d="M1937.93,-58.7C1949.16,-49.21 1961.29,-38.97 1970.82,-30.92"/>
<polygon fill="#63b8ff" stroke="#63b8ff" points="1935.72,-55.99 1930.34,-65.12 1940.24,-61.33 1935.72,-55.99"/>
</a>
</g>
</g>
</g>
</svg>
