<?xml version="1.0" encoding="UTF-8" standalone="no"?>
<!DOCTYPE svg PUBLIC "-//W3C//DTD SVG 1.1//EN"
 "http://www.w3.org/Graphics/SVG/1.1/DTD/svg11.dtd">
<!-- Generated by graphviz version 2.44.0 ()
 -->
<!-- Title: include/Z2AudioLib/Z2Audience.h Pages: 1 -->
<svg width="859pt" height="341pt"
 viewBox="0.00 0.00 858.99 341.00" xmlns="http://www.w3.org/2000/svg" xmlns:xlink="http://www.w3.org/1999/xlink">
<g id="graph0" class="graph" transform="scale(1 1) rotate(0) translate(4 337)">
<title>include/Z2AudioLib/Z2Audience.h</title>
<polygon fill="white" stroke="transparent" points="-4,4 -4,-337 854.99,-337 854.99,4 -4,4"/>
<!-- Node1 -->
<g id="node1" class="node">
<title>Node1</title>
<g id="a_node1"><a xlink:title=" ">
<polygon fill="#bfbfbf" stroke="black" points="387,-302.5 387,-332.5 487,-332.5 487,-302.5 387,-302.5"/>
<text text-anchor="start" x="395" y="-320.5" font-family="Helvetica,sans-Serif" font-size="10.00">include/Z2AudioLib</text>
<text text-anchor="middle" x="437" y="-309.5" font-family="Helvetica,sans-Serif" font-size="10.00">/Z2Audience.h</text>
</a>
</g>
</g>
<!-- Node2 -->
<g id="node2" class="node">
<title>Node2</title>
<g id="a_node2"><a xlink:href="JAIAudience_8h.html" target="_top" xlink:title=" ">
<polygon fill="white" stroke="black" points="288.5,-246.5 288.5,-265.5 447.5,-265.5 447.5,-246.5 288.5,-246.5"/>
<text text-anchor="middle" x="368" y="-253.5" font-family="Helvetica,sans-Serif" font-size="10.00">JSystem/JAudio2/JAIAudience.h</text>
</a>
</g>
</g>
<!-- Node1&#45;&gt;Node2 -->
<g id="edge1" class="edge">
<title>Node1&#45;&gt;Node2</title>
<path fill="none" stroke="midnightblue" d="M420.65,-302.4C410.1,-293.31 396.4,-281.49 385.62,-272.19"/>
<polygon fill="midnightblue" stroke="midnightblue" points="387.9,-269.54 378.04,-265.66 383.33,-274.84 387.9,-269.54"/>
</g>
<!-- Node4 -->
<g id="node4" class="node">
<title>Node4</title>
<g id="a_node4"><a xlink:href="types_8h.html" target="_top" xlink:title=" ">
<polygon fill="white" stroke="black" points="425.5,-0.5 425.5,-19.5 506.5,-19.5 506.5,-0.5 425.5,-0.5"/>
<text text-anchor="middle" x="466" y="-7.5" font-family="Helvetica,sans-Serif" font-size="10.00">dolphin/types.h</text>
</a>
</g>
</g>
<!-- Node1&#45;&gt;Node4 -->
<g id="edge34" class="edge">
<title>Node1&#45;&gt;Node4</title>
<path fill="none" stroke="midnightblue" d="M386.87,-313.83C272.08,-306.35 0,-280.26 0,-201 0,-201 0,-201 0,-137.5 0,-89.46 28.47,-78.34 71,-56 129.61,-25.2 322.23,-15.29 415.07,-12.26"/>
<polygon fill="midnightblue" stroke="midnightblue" points="415.46,-15.75 425.35,-11.94 415.24,-8.75 415.46,-15.75"/>
</g>
<!-- Node10 -->
<g id="node10" class="node">
<title>Node10</title>
<g id="a_node10"><a xlink:href="JGeometry_8h.html" target="_top" xlink:title=" ">
<polygon fill="white" stroke="black" points="514.5,-129 514.5,-148 627.5,-148 627.5,-129 514.5,-129"/>
<text text-anchor="middle" x="571" y="-136" font-family="Helvetica,sans-Serif" font-size="10.00">JSystem/JGeometry.h</text>
</a>
</g>
</g>
<!-- Node1&#45;&gt;Node10 -->
<g id="edge24" class="edge">
<title>Node1&#45;&gt;Node10</title>
<path fill="none" stroke="midnightblue" d="M447.74,-302.31C472.14,-270.08 531.67,-191.45 558.05,-156.6"/>
<polygon fill="midnightblue" stroke="midnightblue" points="561.04,-158.46 564.28,-148.37 555.46,-154.23 561.04,-158.46"/>
</g>
<!-- Node13 -->
<g id="node13" class="node">
<title>Node13</title>
<g id="a_node13"><a xlink:href="mtxvec_8h.html" target="_top" xlink:title=" ">
<polygon fill="white" stroke="black" points="649,-246.5 649,-265.5 757,-265.5 757,-246.5 649,-246.5"/>
<text text-anchor="middle" x="703" y="-253.5" font-family="Helvetica,sans-Serif" font-size="10.00">dolphin/mtx/mtxvec.h</text>
</a>
</g>
</g>
<!-- Node1&#45;&gt;Node13 -->
<g id="edge25" class="edge">
<title>Node1&#45;&gt;Node13</title>
<path fill="none" stroke="midnightblue" d="M487.03,-305.31C535.12,-294.55 607.31,-278.4 654.78,-267.79"/>
<polygon fill="midnightblue" stroke="midnightblue" points="655.82,-271.14 664.82,-265.54 654.29,-264.31 655.82,-271.14"/>
</g>
<!-- Node3 -->
<g id="node3" class="node">
<title>Node3</title>
<g id="a_node3"><a xlink:href="JAIAudible_8h.html" target="_top" xlink:title=" ">
<polygon fill="white" stroke="black" points="105.5,-190.5 105.5,-209.5 256.5,-209.5 256.5,-190.5 105.5,-190.5"/>
<text text-anchor="middle" x="181" y="-197.5" font-family="Helvetica,sans-Serif" font-size="10.00">JSystem/JAudio2/JAIAudible.h</text>
</a>
</g>
</g>
<!-- Node2&#45;&gt;Node3 -->
<g id="edge2" class="edge">
<title>Node2&#45;&gt;Node3</title>
<path fill="none" stroke="midnightblue" d="M338.37,-246.44C306.5,-237.24 255.67,-222.56 220.44,-212.39"/>
<polygon fill="midnightblue" stroke="midnightblue" points="221.07,-208.93 210.49,-209.52 219.13,-215.65 221.07,-208.93"/>
</g>
<!-- Node2&#45;&gt;Node4 -->
<g id="edge23" class="edge">
<title>Node2&#45;&gt;Node4</title>
<path fill="none" stroke="midnightblue" d="M288.33,-252.87C217.1,-249.09 120.3,-238.65 96,-210 51.73,-157.8 50.62,-107.24 96,-56 116.83,-32.49 318.93,-18.75 415.33,-13.49"/>
<polygon fill="midnightblue" stroke="midnightblue" points="415.63,-16.98 425.43,-12.95 415.26,-9.99 415.63,-16.98"/>
</g>
<!-- Node5 -->
<g id="node5" class="node">
<title>Node5</title>
<g id="a_node5"><a xlink:href="JAISound_8h.html" target="_top" xlink:title=" ">
<polygon fill="white" stroke="black" points="295,-190.5 295,-209.5 441,-209.5 441,-190.5 295,-190.5"/>
<text text-anchor="middle" x="368" y="-197.5" font-family="Helvetica,sans-Serif" font-size="10.00">JSystem/JAudio2/JAISound.h</text>
</a>
</g>
</g>
<!-- Node2&#45;&gt;Node5 -->
<g id="edge4" class="edge">
<title>Node2&#45;&gt;Node5</title>
<path fill="none" stroke="midnightblue" d="M362.83,-246.08C361.32,-238.93 360.89,-228.64 361.54,-219.69"/>
<polygon fill="midnightblue" stroke="midnightblue" points="365.02,-220.13 362.87,-209.75 358.08,-219.2 365.02,-220.13"/>
</g>
<!-- Node2&#45;&gt;Node10 -->
<g id="edge22" class="edge">
<title>Node2&#45;&gt;Node10</title>
<path fill="none" stroke="midnightblue" d="M383.79,-246.49C400.35,-237.53 427.1,-222.95 450,-210 484.19,-190.66 523.41,-167.66 547.7,-153.31"/>
<polygon fill="midnightblue" stroke="midnightblue" points="549.72,-156.19 556.54,-148.09 546.15,-150.16 549.72,-156.19"/>
</g>
<!-- Node3&#45;&gt;Node4 -->
<g id="edge3" class="edge">
<title>Node3&#45;&gt;Node4</title>
<path fill="none" stroke="midnightblue" d="M163.7,-190.5C150.22,-182.89 132.29,-170.42 123,-154 101.48,-115.97 86.13,-88.81 115,-56 134.51,-33.83 322.75,-19.58 415.23,-13.85"/>
<polygon fill="midnightblue" stroke="midnightblue" points="415.44,-17.35 425.21,-13.25 415.02,-10.36 415.44,-17.35"/>
</g>
<!-- Node5&#45;&gt;Node2 -->
<g id="edge5" class="edge">
<title>Node5&#45;&gt;Node2</title>
<path fill="none" stroke="midnightblue" d="M373.13,-209.75C374.66,-216.86 375.1,-227.14 374.47,-236.1"/>
<polygon fill="midnightblue" stroke="midnightblue" points="370.99,-235.71 373.17,-246.08 377.93,-236.62 370.99,-235.71"/>
</g>
<!-- Node5&#45;&gt;Node4 -->
<g id="edge19" class="edge">
<title>Node5&#45;&gt;Node4</title>
<path fill="none" stroke="midnightblue" d="M294.8,-191.88C240.53,-185.14 172.57,-173.16 152,-154 119.54,-123.76 103.8,-89.41 133,-56 169.02,-14.78 331.19,-9.81 415.2,-10.1"/>
<polygon fill="midnightblue" stroke="midnightblue" points="415.26,-13.6 425.28,-10.16 415.3,-6.6 415.26,-13.6"/>
</g>
<!-- Node6 -->
<g id="node6" class="node">
<title>Node6</title>
<g id="a_node6"><a xlink:href="JAISoundHandles_8h.html" target="_top" xlink:title=" ">
<polygon fill="white" stroke="black" points="161.5,-123.5 161.5,-153.5 300.5,-153.5 300.5,-123.5 161.5,-123.5"/>
<text text-anchor="start" x="169.5" y="-141.5" font-family="Helvetica,sans-Serif" font-size="10.00">JSystem/JAudio2/JAISound</text>
<text text-anchor="middle" x="231" y="-130.5" font-family="Helvetica,sans-Serif" font-size="10.00">Handles.h</text>
</a>
</g>
</g>
<!-- Node5&#45;&gt;Node6 -->
<g id="edge6" class="edge">
<title>Node5&#45;&gt;Node6</title>
<path fill="none" stroke="midnightblue" d="M343.47,-190.48C322.02,-181.96 290.83,-168.62 266.67,-157.72"/>
<polygon fill="midnightblue" stroke="midnightblue" points="268.01,-154.48 257.46,-153.52 265.11,-160.85 268.01,-154.48"/>
</g>
<!-- Node8 -->
<g id="node8" class="node">
<title>Node8</title>
<g id="a_node8"><a xlink:href="JAISoundParams_8h.html" target="_top" xlink:title=" ">
<polygon fill="white" stroke="black" points="318.5,-123.5 318.5,-153.5 457.5,-153.5 457.5,-123.5 318.5,-123.5"/>
<text text-anchor="start" x="326.5" y="-141.5" font-family="Helvetica,sans-Serif" font-size="10.00">JSystem/JAudio2/JAISound</text>
<text text-anchor="middle" x="388" y="-130.5" font-family="Helvetica,sans-Serif" font-size="10.00">Params.h</text>
</a>
</g>
</g>
<!-- Node5&#45;&gt;Node8 -->
<g id="edge11" class="edge">
<title>Node5&#45;&gt;Node8</title>
<path fill="none" stroke="midnightblue" d="M370.87,-190.48C373.27,-183.32 376.82,-172.75 380.07,-163.08"/>
<polygon fill="midnightblue" stroke="midnightblue" points="383.42,-164.12 383.29,-153.52 376.78,-161.89 383.42,-164.12"/>
</g>
<!-- Node5&#45;&gt;Node10 -->
<g id="edge15" class="edge">
<title>Node5&#45;&gt;Node10</title>
<path fill="none" stroke="midnightblue" d="M397.08,-190.48C432.58,-180.07 492.75,-162.44 532.17,-150.88"/>
<polygon fill="midnightblue" stroke="midnightblue" points="533.36,-154.18 541.97,-148.01 531.39,-147.46 533.36,-154.18"/>
</g>
<!-- Node12 -->
<g id="node12" class="node">
<title>Node12</title>
<g id="a_node12"><a xlink:href="global_8h.html" target="_top" xlink:title=" ">
<polygon fill="white" stroke="black" points="544,-62 544,-81 594,-81 594,-62 544,-62"/>
<text text-anchor="middle" x="569" y="-69" font-family="Helvetica,sans-Serif" font-size="10.00">global.h</text>
</a>
</g>
</g>
<!-- Node5&#45;&gt;Node12 -->
<g id="edge20" class="edge">
<title>Node5&#45;&gt;Node12</title>
<path fill="none" stroke="midnightblue" d="M390.58,-190.45C410.96,-182.31 441.44,-169.1 466,-154 484.86,-142.41 487.64,-136.75 505,-123 520.15,-111.01 537.34,-97.44 550.08,-87.4"/>
<polygon fill="midnightblue" stroke="midnightblue" points="552.43,-90 558.12,-81.07 548.1,-84.51 552.43,-90"/>
</g>
<!-- Node6&#45;&gt;Node4 -->
<g id="edge10" class="edge">
<title>Node6&#45;&gt;Node4</title>
<path fill="none" stroke="midnightblue" d="M249.9,-123.29C263.16,-113.25 281.26,-99.43 297,-87 314.1,-73.49 315.95,-66.59 335,-56 361.81,-41.09 394.43,-29.86 420.41,-22.36"/>
<polygon fill="midnightblue" stroke="midnightblue" points="421.69,-25.63 430.38,-19.56 419.8,-18.89 421.69,-25.63"/>
</g>
<!-- Node6&#45;&gt;Node5 -->
<g id="edge7" class="edge">
<title>Node6&#45;&gt;Node5</title>
<path fill="none" stroke="midnightblue" d="M269.12,-153.52C293.19,-163.42 323.44,-176.58 344.19,-186.2"/>
<polygon fill="midnightblue" stroke="midnightblue" points="342.73,-189.38 353.27,-190.48 345.71,-183.05 342.73,-189.38"/>
</g>
<!-- Node7 -->
<g id="node7" class="node">
<title>Node7</title>
<g id="a_node7"><a xlink:href="JUTAssert_8h.html" target="_top" xlink:title=" ">
<polygon fill="white" stroke="black" points="142,-62 142,-81 288,-81 288,-62 142,-62"/>
<text text-anchor="middle" x="215" y="-69" font-family="Helvetica,sans-Serif" font-size="10.00">JSystem/JUtility/JUTAssert.h</text>
</a>
</g>
</g>
<!-- Node6&#45;&gt;Node7 -->
<g id="edge8" class="edge">
<title>Node6&#45;&gt;Node7</title>
<path fill="none" stroke="midnightblue" d="M227.53,-123.4C225.21,-113.96 222.13,-101.45 219.6,-91.19"/>
<polygon fill="midnightblue" stroke="midnightblue" points="222.93,-90.07 217.14,-81.19 216.13,-91.74 222.93,-90.07"/>
</g>
<!-- Node7&#45;&gt;Node4 -->
<g id="edge9" class="edge">
<title>Node7&#45;&gt;Node4</title>
<path fill="none" stroke="midnightblue" d="M250.96,-61.98C295.51,-51.42 371.46,-33.41 420.15,-21.87"/>
<polygon fill="midnightblue" stroke="midnightblue" points="421.18,-25.22 430.1,-19.51 419.57,-18.41 421.18,-25.22"/>
</g>
<!-- Node8&#45;&gt;Node4 -->
<g id="edge14" class="edge">
<title>Node8&#45;&gt;Node4</title>
<path fill="none" stroke="midnightblue" d="M447.34,-123.44C466.17,-115.87 484.94,-104.38 496,-87 507.95,-68.22 493.98,-43.9 481.37,-27.9"/>
<polygon fill="midnightblue" stroke="midnightblue" points="483.8,-25.34 474.68,-19.95 478.44,-29.85 483.8,-25.34"/>
</g>
<!-- Node9 -->
<g id="node9" class="node">
<title>Node9</title>
<g id="a_node9"><a xlink:href="JASSoundParams_8h.html" target="_top" xlink:title=" ">
<polygon fill="white" stroke="black" points="344.5,-56.5 344.5,-86.5 487.5,-86.5 487.5,-56.5 344.5,-56.5"/>
<text text-anchor="start" x="352.5" y="-74.5" font-family="Helvetica,sans-Serif" font-size="10.00">JSystem/JAudio2/JASSound</text>
<text text-anchor="middle" x="416" y="-63.5" font-family="Helvetica,sans-Serif" font-size="10.00">Params.h</text>
</a>
</g>
</g>
<!-- Node8&#45;&gt;Node9 -->
<g id="edge12" class="edge">
<title>Node8&#45;&gt;Node9</title>
<path fill="none" stroke="midnightblue" d="M394.08,-123.4C397.52,-115.39 401.93,-105.16 405.89,-95.98"/>
<polygon fill="midnightblue" stroke="midnightblue" points="409.19,-97.15 409.94,-86.58 402.77,-94.38 409.19,-97.15"/>
</g>
<!-- Node9&#45;&gt;Node4 -->
<g id="edge13" class="edge">
<title>Node9&#45;&gt;Node4</title>
<path fill="none" stroke="midnightblue" d="M427.85,-56.4C435.11,-47.75 444.45,-36.64 452.07,-27.58"/>
<polygon fill="midnightblue" stroke="midnightblue" points="454.97,-29.57 458.72,-19.66 449.61,-25.06 454.97,-29.57"/>
</g>
<!-- Node10&#45;&gt;Node4 -->
<g id="edge18" class="edge">
<title>Node10&#45;&gt;Node4</title>
<path fill="none" stroke="midnightblue" d="M579.43,-128.95C593.83,-113.31 620.03,-79.52 603,-56 583.41,-28.95 547.03,-17.87 516.68,-13.46"/>
<polygon fill="midnightblue" stroke="midnightblue" points="517.01,-9.98 506.65,-12.21 516.14,-16.92 517.01,-9.98"/>
</g>
<!-- Node11 -->
<g id="node11" class="node">
<title>Node11</title>
<g id="a_node11"><a xlink:href="vec_8h.html" target="_top" xlink:title=" ">
<polygon fill="white" stroke="black" points="650,-62 650,-81 742,-81 742,-62 650,-62"/>
<text text-anchor="middle" x="696" y="-69" font-family="Helvetica,sans-Serif" font-size="10.00">dolphin/mtx/vec.h</text>
</a>
</g>
</g>
<!-- Node10&#45;&gt;Node11 -->
<g id="edge16" class="edge">
<title>Node10&#45;&gt;Node11</title>
<path fill="none" stroke="midnightblue" d="M587.6,-128.87C608.71,-117.89 645.38,-98.82 670.16,-85.94"/>
<polygon fill="midnightblue" stroke="midnightblue" points="672.07,-88.89 679.33,-81.17 668.85,-82.68 672.07,-88.89"/>
</g>
<!-- Node11&#45;&gt;Node4 -->
<g id="edge17" class="edge">
<title>Node11&#45;&gt;Node4</title>
<path fill="none" stroke="midnightblue" d="M663.05,-61.98C622.4,-51.46 553.21,-33.56 508.58,-22.01"/>
<polygon fill="midnightblue" stroke="midnightblue" points="509.45,-18.63 498.89,-19.51 507.7,-25.4 509.45,-18.63"/>
</g>
<!-- Node12&#45;&gt;Node4 -->
<g id="edge21" class="edge">
<title>Node12&#45;&gt;Node4</title>
<path fill="none" stroke="midnightblue" d="M554.24,-61.98C537.34,-52.21 509.42,-36.08 489.51,-24.58"/>
<polygon fill="midnightblue" stroke="midnightblue" points="491.14,-21.48 480.73,-19.51 487.64,-27.54 491.14,-21.48"/>
</g>
<!-- Node13&#45;&gt;Node4 -->
<g id="edge33" class="edge">
<title>Node13&#45;&gt;Node4</title>
<path fill="none" stroke="midnightblue" d="M732.98,-246.5C754.63,-239.29 783.68,-227.35 805,-210 828.72,-190.7 835.67,-183.13 845,-154 859.16,-109.81 847.19,-82.36 809,-56 762.68,-24.03 600.32,-14.75 516.67,-12.07"/>
<polygon fill="midnightblue" stroke="midnightblue" points="516.73,-8.58 506.63,-11.77 516.52,-15.57 516.73,-8.58"/>
</g>
<!-- Node13&#45;&gt;Node11 -->
<g id="edge32" class="edge">
<title>Node13&#45;&gt;Node11</title>
<path fill="none" stroke="midnightblue" d="M701.01,-246.43C699.03,-237.42 696.13,-222.8 695,-210 691.27,-167.74 693.2,-117.9 694.73,-91.36"/>
<polygon fill="midnightblue" stroke="midnightblue" points="698.23,-91.41 695.36,-81.21 691.25,-90.97 698.23,-91.41"/>
</g>
<!-- Node14 -->
<g id="node14" class="node">
<title>Node14</title>
<g id="a_node14"><a xlink:href="mtx_8h.html" target="_top" xlink:title=" ">
<polygon fill="white" stroke="black" points="704,-190.5 704,-209.5 796,-209.5 796,-190.5 704,-190.5"/>
<text text-anchor="middle" x="750" y="-197.5" font-family="Helvetica,sans-Serif" font-size="10.00">dolphin/mtx/mtx.h</text>
</a>
</g>
</g>
<!-- Node13&#45;&gt;Node14 -->
<g id="edge26" class="edge">
<title>Node13&#45;&gt;Node14</title>
<path fill="none" stroke="midnightblue" d="M710.76,-246.08C717.54,-238.3 727.54,-226.8 735.76,-217.37"/>
<polygon fill="midnightblue" stroke="midnightblue" points="738.46,-219.59 742.38,-209.75 733.18,-215 738.46,-219.59"/>
</g>
<!-- Node14&#45;&gt;Node4 -->
<g id="edge31" class="edge">
<title>Node14&#45;&gt;Node4</title>
<path fill="none" stroke="midnightblue" d="M778.02,-190.4C795.17,-183.51 815.75,-171.98 826,-154 850.42,-111.16 816.59,-80.84 774,-56 731.37,-31.14 592.77,-18.85 516.86,-13.84"/>
<polygon fill="midnightblue" stroke="midnightblue" points="516.78,-10.33 506.58,-13.18 516.33,-17.32 516.78,-10.33"/>
</g>
<!-- Node14&#45;&gt;Node11 -->
<g id="edge30" class="edge">
<title>Node14&#45;&gt;Node11</title>
<path fill="none" stroke="midnightblue" d="M740.59,-190.28C732.07,-181.83 719.82,-168.23 713,-154 703.36,-133.88 699.16,-108.39 697.35,-91.32"/>
<polygon fill="midnightblue" stroke="midnightblue" points="700.81,-90.67 696.44,-81.02 693.83,-91.29 700.81,-90.67"/>
</g>
<!-- Node15 -->
<g id="node15" class="node">
<title>Node15</title>
<g id="a_node15"><a xlink:href="quat_8h.html" target="_top" xlink:title=" ">
<polygon fill="white" stroke="black" points="722.5,-129 722.5,-148 817.5,-148 817.5,-129 722.5,-129"/>
<text text-anchor="middle" x="770" y="-136" font-family="Helvetica,sans-Serif" font-size="10.00">dolphin/mtx/quat.h</text>
</a>
</g>
</g>
<!-- Node14&#45;&gt;Node15 -->
<g id="edge27" class="edge">
<title>Node14&#45;&gt;Node15</title>
<path fill="none" stroke="midnightblue" d="M752.87,-190.48C755.72,-181.99 760.18,-168.7 763.84,-157.82"/>
<polygon fill="midnightblue" stroke="midnightblue" points="767.27,-158.6 767.14,-148.01 760.64,-156.37 767.27,-158.6"/>
</g>
<!-- Node15&#45;&gt;Node4 -->
<g id="edge29" class="edge">
<title>Node15&#45;&gt;Node4</title>
<path fill="none" stroke="midnightblue" d="M770.83,-128.85C771.91,-112.1 771.64,-75.2 751,-56 717.87,-25.19 589.62,-15.46 516.97,-12.39"/>
<polygon fill="midnightblue" stroke="midnightblue" points="516.8,-8.88 506.67,-11.99 516.52,-15.88 516.8,-8.88"/>
</g>
<!-- Node15&#45;&gt;Node11 -->
<g id="edge28" class="edge">
<title>Node15&#45;&gt;Node11</title>
<path fill="none" stroke="midnightblue" d="M760.02,-128.73C748.15,-118.31 728.11,-100.71 713.62,-87.97"/>
<polygon fill="midnightblue" stroke="midnightblue" points="715.64,-85.1 705.82,-81.13 711.03,-90.36 715.64,-85.1"/>
</g>
</g>
</svg>
