<?xml version="1.0" encoding="UTF-8" standalone="no"?>
<!DOCTYPE svg PUBLIC "-//W3C//DTD SVG 1.1//EN"
 "http://www.w3.org/Graphics/SVG/1.1/DTD/svg11.dtd">
<!-- Generated by graphviz version 2.44.0 ()
 -->
<!-- Title: include/Z2AudioLib/Z2SeqMgr.h Pages: 1 -->
<svg width="777pt" height="229pt"
 viewBox="0.00 0.00 777.00 229.00" xmlns="http://www.w3.org/2000/svg" xmlns:xlink="http://www.w3.org/1999/xlink">
<g id="graph0" class="graph" transform="scale(1 1) rotate(0) translate(4 225)">
<title>include/Z2AudioLib/Z2SeqMgr.h</title>
<polygon fill="white" stroke="transparent" points="-4,4 -4,-225 773,-225 773,4 -4,4"/>
<!-- Node1 -->
<g id="node1" class="node">
<title>Node1</title>
<g id="a_node1"><a xlink:title=" ">
<polygon fill="#bfbfbf" stroke="black" points="189,-190.5 189,-220.5 289,-220.5 289,-190.5 189,-190.5"/>
<text text-anchor="start" x="197" y="-208.5" font-family="Helvetica,sans-Serif" font-size="10.00">include/Z2AudioLib</text>
<text text-anchor="middle" x="239" y="-197.5" font-family="Helvetica,sans-Serif" font-size="10.00">/Z2SeqMgr.h</text>
</a>
</g>
</g>
<!-- Node2 -->
<g id="node2" class="node">
<title>Node2</title>
<g id="a_node2"><a xlink:href="Z2SeqMgr_8cpp.html" target="_top" xlink:title=" ">
<polygon fill="white" stroke="black" points="0,-129 0,-148 150,-148 150,-129 0,-129"/>
<text text-anchor="middle" x="75" y="-136" font-family="Helvetica,sans-Serif" font-size="10.00">libs/Z2AudioLib/Z2SeqMgr.cpp</text>
</a>
</g>
</g>
<!-- Node1&#45;&gt;Node2 -->
<g id="edge1" class="edge">
<title>Node1&#45;&gt;Node2</title>
<path fill="none" stroke="midnightblue" d="M193.89,-186.62C162.15,-174.04 121.09,-157.77 96.46,-148.01"/>
<polygon fill="midnightblue" stroke="midnightblue" points="192.83,-189.97 203.41,-190.4 195.41,-183.46 192.83,-189.97"/>
</g>
<!-- Node3 -->
<g id="node3" class="node">
<title>Node3</title>
<g id="a_node3"><a xlink:href="Z2SoundObjMgr_8cpp.html" target="_top" xlink:title=" ">
<polygon fill="white" stroke="black" points="168.5,-123.5 168.5,-153.5 309.5,-153.5 309.5,-123.5 168.5,-123.5"/>
<text text-anchor="start" x="176.5" y="-141.5" font-family="Helvetica,sans-Serif" font-size="10.00">libs/Z2AudioLib/Z2SoundObj</text>
<text text-anchor="middle" x="239" y="-130.5" font-family="Helvetica,sans-Serif" font-size="10.00">Mgr.cpp</text>
</a>
</g>
</g>
<!-- Node1&#45;&gt;Node3 -->
<g id="edge2" class="edge">
<title>Node1&#45;&gt;Node3</title>
<path fill="none" stroke="midnightblue" d="M239,-180.11C239,-171.15 239,-161.32 239,-153.58"/>
<polygon fill="midnightblue" stroke="midnightblue" points="235.5,-180.4 239,-190.4 242.5,-180.4 235.5,-180.4"/>
</g>
<!-- Node4 -->
<g id="node4" class="node">
<title>Node4</title>
<g id="a_node4"><a xlink:href="Z2AudioMgr_8h.html" target="_top" xlink:title=" ">
<polygon fill="white" stroke="black" points="328,-123.5 328,-153.5 428,-153.5 428,-123.5 328,-123.5"/>
<text text-anchor="start" x="336" y="-141.5" font-family="Helvetica,sans-Serif" font-size="10.00">include/Z2AudioLib</text>
<text text-anchor="middle" x="378" y="-130.5" font-family="Helvetica,sans-Serif" font-size="10.00">/Z2AudioMgr.h</text>
</a>
</g>
</g>
<!-- Node1&#45;&gt;Node4 -->
<g id="edge3" class="edge">
<title>Node1&#45;&gt;Node4</title>
<path fill="none" stroke="midnightblue" d="M278.28,-186.13C300.37,-175.8 327.51,-163.11 347.9,-153.58"/>
<polygon fill="midnightblue" stroke="midnightblue" points="276.74,-182.99 269.16,-190.4 279.7,-189.33 276.74,-182.99"/>
</g>
<!-- Node5 -->
<g id="node5" class="node">
<title>Node5</title>
<g id="a_node5"><a xlink:href="d__a__alink_8cpp.html" target="_top" xlink:title=" ">
<polygon fill="white" stroke="black" points="310.5,-0.5 310.5,-19.5 419.5,-19.5 419.5,-0.5 310.5,-0.5"/>
<text text-anchor="middle" x="365" y="-7.5" font-family="Helvetica,sans-Serif" font-size="10.00">src/d/a/d_a_alink.cpp</text>
</a>
</g>
</g>
<!-- Node4&#45;&gt;Node5 -->
<g id="edge4" class="edge">
<title>Node4&#45;&gt;Node5</title>
<path fill="none" stroke="midnightblue" d="M317.66,-122.3C263.13,-108.42 191.05,-89.67 189,-87 153.93,-41.33 246.64,-22.68 310.44,-15.38"/>
<polygon fill="midnightblue" stroke="midnightblue" points="317.06,-125.76 327.62,-124.83 318.79,-118.97 317.06,-125.76"/>
</g>
<!-- Node6 -->
<g id="node6" class="node">
<title>Node6</title>
<g id="a_node6"><a xlink:href="d__meter__map_8cpp.html" target="_top" xlink:title=" ">
<polygon fill="white" stroke="black" points="198,-56.5 198,-86.5 302,-86.5 302,-56.5 198,-56.5"/>
<text text-anchor="start" x="206" y="-74.5" font-family="Helvetica,sans-Serif" font-size="10.00">src/d/meter/d_meter</text>
<text text-anchor="middle" x="250" y="-63.5" font-family="Helvetica,sans-Serif" font-size="10.00">_map.cpp</text>
</a>
</g>
</g>
<!-- Node4&#45;&gt;Node6 -->
<g id="edge5" class="edge">
<title>Node4&#45;&gt;Node6</title>
<path fill="none" stroke="midnightblue" d="M341.28,-118.85C321.04,-108.58 296.33,-96.03 277.72,-86.58"/>
<polygon fill="midnightblue" stroke="midnightblue" points="339.72,-121.99 350.23,-123.4 342.89,-115.75 339.72,-121.99"/>
</g>
<!-- Node7 -->
<g id="node7" class="node">
<title>Node7</title>
<g id="a_node7"><a xlink:href="d__save_8cpp.html" target="_top" xlink:title=" ">
<polygon fill="white" stroke="black" points="320.5,-62 320.5,-81 435.5,-81 435.5,-62 320.5,-62"/>
<text text-anchor="middle" x="378" y="-69" font-family="Helvetica,sans-Serif" font-size="10.00">src/d/save/d_save.cpp</text>
</a>
</g>
</g>
<!-- Node4&#45;&gt;Node7 -->
<g id="edge6" class="edge">
<title>Node4&#45;&gt;Node7</title>
<path fill="none" stroke="midnightblue" d="M378,-113.25C378,-102.02 378,-89.38 378,-81.19"/>
<polygon fill="midnightblue" stroke="midnightblue" points="374.5,-113.4 378,-123.4 381.5,-113.4 374.5,-113.4"/>
</g>
<!-- Node8 -->
<g id="node8" class="node">
<title>Node8</title>
<g id="a_node8"><a xlink:href="Z2AudioMgr_8cpp.html" target="_top" xlink:title=" ">
<polygon fill="white" stroke="black" points="453,-62 453,-81 611,-81 611,-62 453,-62"/>
<text text-anchor="middle" x="532" y="-69" font-family="Helvetica,sans-Serif" font-size="10.00">libs/Z2AudioLib/Z2AudioMgr.cpp</text>
</a>
</g>
</g>
<!-- Node4&#45;&gt;Node8 -->
<g id="edge7" class="edge">
<title>Node4&#45;&gt;Node8</title>
<path fill="none" stroke="midnightblue" d="M420.74,-119.46C450.5,-106.9 488.82,-90.72 511.84,-81.01"/>
<polygon fill="midnightblue" stroke="midnightblue" points="419.27,-116.28 411.42,-123.4 421.99,-122.73 419.27,-116.28"/>
</g>
<!-- Node9 -->
<g id="node9" class="node">
<title>Node9</title>
<g id="a_node9"><a xlink:href="m__Do__audio_8h.html" target="_top" xlink:title=" ">
<polygon fill="white" stroke="black" points="629,-62 629,-81 769,-81 769,-62 629,-62"/>
<text text-anchor="middle" x="699" y="-69" font-family="Helvetica,sans-Serif" font-size="10.00">include/m_Do/m_Do_audio.h</text>
</a>
</g>
</g>
<!-- Node4&#45;&gt;Node9 -->
<g id="edge8" class="edge">
<title>Node4&#45;&gt;Node9</title>
<path fill="none" stroke="midnightblue" d="M438.07,-125.34C501.83,-112.42 600.94,-92.36 656.87,-81.03"/>
<polygon fill="midnightblue" stroke="midnightblue" points="437.26,-121.93 428.16,-127.34 438.65,-128.79 437.26,-121.93"/>
</g>
<!-- Node9&#45;&gt;Node5 -->
<g id="edge9" class="edge">
<title>Node9&#45;&gt;Node5</title>
<path fill="none" stroke="midnightblue" d="M642.71,-60.12C635.08,-58.73 627.35,-57.32 620,-56 548.33,-43.1 465.25,-28.5 413.9,-19.53"/>
<polygon fill="midnightblue" stroke="midnightblue" points="642.17,-63.58 652.64,-61.94 643.43,-56.69 642.17,-63.58"/>
</g>
<!-- Node10 -->
<g id="node10" class="node">
<title>Node10</title>
<g id="a_node10"><a xlink:href="m__Do__audio_8cpp.html" target="_top" xlink:title=" ">
<polygon fill="white" stroke="black" points="632,-0.5 632,-19.5 766,-19.5 766,-0.5 632,-0.5"/>
<text text-anchor="middle" x="699" y="-7.5" font-family="Helvetica,sans-Serif" font-size="10.00">src/m_Do/m_Do_audio.cpp</text>
</a>
</g>
</g>
<!-- Node9&#45;&gt;Node10 -->
<g id="edge10" class="edge">
<title>Node9&#45;&gt;Node10</title>
<path fill="none" stroke="midnightblue" d="M699,-51.82C699,-41 699,-27.9 699,-19.51"/>
<polygon fill="midnightblue" stroke="midnightblue" points="695.5,-51.98 699,-61.98 702.5,-51.98 695.5,-51.98"/>
</g>
</g>
</svg>
