<?xml version="1.0" encoding="UTF-8" standalone="no"?>
<!DOCTYPE svg PUBLIC "-//W3C//DTD SVG 1.1//EN"
 "http://www.w3.org/Graphics/SVG/1.1/DTD/svg11.dtd">
<!-- Generated by graphviz version 7.0.5 (20221223.1930)
 -->
<!-- Title: include/Z2AudioLib/Z2SeMgr.h Pages: 1 -->
<svg width="3726pt" height="313pt"
 viewBox="0.00 0.00 3726.00 313.00" xmlns="http://www.w3.org/2000/svg" xmlns:xlink="http://www.w3.org/1999/xlink">
<g id="graph0" class="graph" transform="scale(1 1) rotate(0) translate(4 309)">
<title>include/Z2AudioLib/Z2SeMgr.h</title>
<!-- Node1 -->
<g id="node1" class="node">
<title>Node1</title>
<g id="a_node1"><a xlink:title=" ">
<polygon fill="#999999" stroke="#666666" points="2544.5,-305 2444.5,-305 2444.5,-275 2544.5,-275 2544.5,-305"/>
<text text-anchor="start" x="2452.5" y="-293" font-family="Helvetica,sans-Serif" font-size="10.00">include/Z2AudioLib</text>
<text text-anchor="middle" x="2494.5" y="-282" font-family="Helvetica,sans-Serif" font-size="10.00">/Z2SeMgr.h</text>
</a>
</g>
</g>
<!-- Node2 -->
<g id="node2" class="node">
<title>Node2</title>
<g id="a_node2"><a xlink:href="Z2AudioMgr_8h.html" target="_top" xlink:title=" ">
<polygon fill="white" stroke="#666666" points="808.5,-239 708.5,-239 708.5,-209 808.5,-209 808.5,-239"/>
<text text-anchor="start" x="716.5" y="-227" font-family="Helvetica,sans-Serif" font-size="10.00">include/Z2AudioLib</text>
<text text-anchor="middle" x="758.5" y="-216" font-family="Helvetica,sans-Serif" font-size="10.00">/Z2AudioMgr.h</text>
</a>
</g>
</g>
<!-- Node1&#45;&gt;Node2 -->
<g id="edge1" class="edge">
<title>Node1&#45;&gt;Node2</title>
<path fill="none" stroke="#63b8ff" d="M2432.94,-286.85C2238.9,-280.04 1622.69,-258.32 1112.5,-239 1004.33,-234.9 877.57,-229.82 808.91,-227.05"/>
<polygon fill="#63b8ff" stroke="#63b8ff" points="2432.67,-290.34 2442.79,-287.19 2432.91,-283.34 2432.67,-290.34"/>
</g>
<!-- Node337 -->
<g id="node23" class="node">
<title>Node337</title>
<g id="a_node23"><a xlink:href="Z2EnvSeMgr_8h.html" target="_top" xlink:title=" ">
<polygon fill="white" stroke="#666666" points="1221.5,-239 1121.5,-239 1121.5,-209 1221.5,-209 1221.5,-239"/>
<text text-anchor="start" x="1129.5" y="-227" font-family="Helvetica,sans-Serif" font-size="10.00">include/Z2AudioLib</text>
<text text-anchor="middle" x="1171.5" y="-216" font-family="Helvetica,sans-Serif" font-size="10.00">/Z2EnvSeMgr.h</text>
</a>
</g>
</g>
<!-- Node1&#45;&gt;Node337 -->
<g id="edge23" class="edge">
<title>Node1&#45;&gt;Node337</title>
<path fill="none" stroke="#63b8ff" d="M2432.99,-286.02C2207.41,-275.11 1427.88,-237.4 1221.8,-227.43"/>
<polygon fill="#63b8ff" stroke="#63b8ff" points="2432.58,-289.51 2442.74,-286.5 2432.92,-282.52 2432.58,-289.51"/>
</g>
<!-- Node339 -->
<g id="node26" class="node">
<title>Node339</title>
<g id="a_node26"><a xlink:href="d__cc__d_8h.html" target="_top" xlink:title=" ">
<polygon fill="white" stroke="#666666" points="2550,-233.5 2439,-233.5 2439,-214.5 2550,-214.5 2550,-233.5"/>
<text text-anchor="middle" x="2494.5" y="-221.5" font-family="Helvetica,sans-Serif" font-size="10.00">include/d/cc/d_cc_d.h</text>
</a>
</g>
</g>
<!-- Node1&#45;&gt;Node339 -->
<g id="edge28" class="edge">
<title>Node1&#45;&gt;Node339</title>
<path fill="none" stroke="#63b8ff" d="M2494.5,-263.59C2494.5,-253.06 2494.5,-241.53 2494.5,-233.84"/>
<polygon fill="#63b8ff" stroke="#63b8ff" points="2491,-263.28 2494.5,-273.28 2498,-263.28 2491,-263.28"/>
</g>
<!-- Node340 -->
<g id="node49" class="node">
<title>Node340</title>
<g id="a_node49"><a xlink:href="Z2SceneMgr_8cpp.html" target="_top" xlink:title=" ">
<polygon fill="white" stroke="#666666" points="2729,-233.5 2568,-233.5 2568,-214.5 2729,-214.5 2729,-233.5"/>
<text text-anchor="middle" x="2648.5" y="-221.5" font-family="Helvetica,sans-Serif" font-size="10.00">libs/Z2AudioLib/Z2SceneMgr.cpp</text>
</a>
</g>
</g>
<!-- Node1&#45;&gt;Node340 -->
<g id="edge64" class="edge">
<title>Node1&#45;&gt;Node340</title>
<path fill="none" stroke="#63b8ff" d="M2539.68,-270.22C2568.43,-258.27 2604.36,-243.34 2626.88,-233.99"/>
<polygon fill="#63b8ff" stroke="#63b8ff" points="2538.35,-266.99 2530.46,-274.06 2541.04,-273.45 2538.35,-266.99"/>
</g>
<!-- Node341 -->
<g id="node50" class="node">
<title>Node341</title>
<g id="a_node50"><a xlink:href="Z2SeMgr_8cpp.html" target="_top" xlink:title=" ">
<polygon fill="white" stroke="#666666" points="2892,-233.5 2747,-233.5 2747,-214.5 2892,-214.5 2892,-233.5"/>
<text text-anchor="middle" x="2819.5" y="-221.5" font-family="Helvetica,sans-Serif" font-size="10.00">libs/Z2AudioLib/Z2SeMgr.cpp</text>
</a>
</g>
</g>
<!-- Node1&#45;&gt;Node341 -->
<g id="edge65" class="edge">
<title>Node1&#45;&gt;Node341</title>
<path fill="none" stroke="#63b8ff" d="M2555.97,-276.89C2619.46,-264.39 2717.04,-245.18 2773.95,-233.97"/>
<polygon fill="#63b8ff" stroke="#63b8ff" points="2555.54,-273.41 2546.41,-278.78 2556.9,-280.28 2555.54,-273.41"/>
</g>
<!-- Node3 -->
<g id="node3" class="node">
<title>Node3</title>
<g id="a_node3"><a xlink:href="m__Do__audio_8h.html" target="_top" xlink:title=" ">
<polygon fill="white" stroke="#666666" points="996.5,-162 856.5,-162 856.5,-143 996.5,-143 996.5,-162"/>
<text text-anchor="middle" x="926.5" y="-150" font-family="Helvetica,sans-Serif" font-size="10.00">include/m_Do/m_Do_audio.h</text>
</a>
</g>
</g>
<!-- Node2&#45;&gt;Node3 -->
<g id="edge2" class="edge">
<title>Node2&#45;&gt;Node3</title>
<path fill="none" stroke="#63b8ff" d="M803.59,-204.34C836.49,-190.74 879.59,-172.91 905.04,-162.38"/>
<polygon fill="#63b8ff" stroke="#63b8ff" points="802.61,-200.96 794.71,-208.02 805.29,-207.43 802.61,-200.96"/>
</g>
<!-- Node151 -->
<g id="node8" class="node">
<title>Node151</title>
<g id="a_node8"><a xlink:href="d__event__manager_8cpp.html" target="_top" xlink:title=" ">
<polygon fill="white" stroke="#666666" points="103,-96 0,-96 0,-66 103,-66 103,-96"/>
<text text-anchor="start" x="8" y="-84" font-family="Helvetica,sans-Serif" font-size="10.00">src/d/event/d_event</text>
<text text-anchor="middle" x="51.5" y="-73" font-family="Helvetica,sans-Serif" font-size="10.00">_manager.cpp</text>
</a>
</g>
</g>
<!-- Node2&#45;&gt;Node151 -->
<g id="edge19" class="edge">
<title>Node2&#45;&gt;Node151</title>
<path fill="none" stroke="#63b8ff" d="M697.03,-222.19C640.84,-219.04 557.04,-208.12 493.5,-173 471.76,-160.98 477.72,-143.11 455.5,-132 318.02,-63.23 263.09,-121.52 111.5,-96 108.86,-95.56 106.17,-95.07 103.45,-94.54"/>
<polygon fill="#63b8ff" stroke="#63b8ff" points="696.57,-225.67 706.73,-222.66 696.91,-218.68 696.57,-225.67"/>
</g>
<!-- Node336 -->
<g id="node19" class="node">
<title>Node336</title>
<g id="a_node19"><a xlink:href="Z2AudioMgr_8cpp.html" target="_top" xlink:title=" ">
<polygon fill="white" stroke="#666666" points="660.5,-162 502.5,-162 502.5,-143 660.5,-143 660.5,-162"/>
<text text-anchor="middle" x="581.5" y="-150" font-family="Helvetica,sans-Serif" font-size="10.00">libs/Z2AudioLib/Z2AudioMgr.cpp</text>
</a>
</g>
</g>
<!-- Node2&#45;&gt;Node336 -->
<g id="edge18" class="edge">
<title>Node2&#45;&gt;Node336</title>
<path fill="none" stroke="#63b8ff" d="M711.47,-204.53C676.87,-190.95 631.33,-173.07 604.37,-162.48"/>
<polygon fill="#63b8ff" stroke="#63b8ff" points="709.83,-207.65 720.42,-208.05 712.39,-201.13 709.83,-207.65"/>
</g>
<!-- Node46 -->
<g id="node20" class="node">
<title>Node46</title>
<g id="a_node20"><a xlink:href="d__menu__window_8cpp.html" target="_top" xlink:title=" ">
<polygon fill="white" stroke="#666666" points="838,-162 679,-162 679,-143 838,-143 838,-162"/>
<text text-anchor="middle" x="758.5" y="-150" font-family="Helvetica,sans-Serif" font-size="10.00">src/d/menu/d_menu_window.cpp</text>
</a>
</g>
</g>
<!-- Node2&#45;&gt;Node46 -->
<g id="edge20" class="edge">
<title>Node2&#45;&gt;Node46</title>
<path fill="none" stroke="#63b8ff" d="M758.5,-197.46C758.5,-185.07 758.5,-170.99 758.5,-162.18"/>
<polygon fill="#63b8ff" stroke="#63b8ff" points="755,-197.09 758.5,-207.09 762,-197.09 755,-197.09"/>
</g>
<!-- Node47 -->
<g id="node21" class="node">
<title>Node47</title>
<g id="a_node21"><a xlink:href="d__meter__map_8cpp.html" target="_top" xlink:title=" ">
<polygon fill="white" stroke="#666666" points="446.5,-167.5 342.5,-167.5 342.5,-137.5 446.5,-137.5 446.5,-167.5"/>
<text text-anchor="start" x="350.5" y="-155.5" font-family="Helvetica,sans-Serif" font-size="10.00">src/d/meter/d_meter</text>
<text text-anchor="middle" x="394.5" y="-144.5" font-family="Helvetica,sans-Serif" font-size="10.00">_map.cpp</text>
</a>
</g>
</g>
<!-- Node2&#45;&gt;Node47 -->
<g id="edge21" class="edge">
<title>Node2&#45;&gt;Node47</title>
<path fill="none" stroke="#63b8ff" d="M696.77,-214.87C636.21,-206.37 541.42,-191.67 460.5,-173 454.1,-171.52 447.4,-169.78 440.83,-167.95"/>
<polygon fill="#63b8ff" stroke="#63b8ff" points="696.16,-218.32 706.54,-216.23 697.12,-211.38 696.16,-218.32"/>
</g>
<!-- Node172 -->
<g id="node22" class="node">
<title>Node172</title>
<g id="a_node22"><a xlink:href="d__save_8cpp.html" target="_top" xlink:title=" ">
<polygon fill="white" stroke="#666666" points="1785,-90.5 1670,-90.5 1670,-71.5 1785,-71.5 1785,-90.5"/>
<text text-anchor="middle" x="1727.5" y="-78.5" font-family="Helvetica,sans-Serif" font-size="10.00">src/d/save/d_save.cpp</text>
</a>
</g>
</g>
<!-- Node2&#45;&gt;Node172 -->
<g id="edge22" class="edge">
<title>Node2&#45;&gt;Node172</title>
<path fill="none" stroke="#63b8ff" d="M820.01,-215.69C870.83,-208.44 944.3,-195.15 1005.5,-173 1041.59,-159.94 1044.6,-142.55 1081.5,-132 1329.4,-61.14 1404.98,-130.46 1660.5,-96 1669.92,-94.73 1680,-92.89 1689.4,-90.95"/>
<polygon fill="#63b8ff" stroke="#63b8ff" points="819.81,-212.18 810.38,-217.02 820.77,-219.12 819.81,-212.18"/>
</g>
<!-- Node4 -->
<g id="node4" class="node">
<title>Node4</title>
<g id="a_node4"><a xlink:href="m__Do__ext_8h.html" target="_top" xlink:title=" ">
<polygon fill="#fff0f0" stroke="red" points="1107.5,-90.5 977.5,-90.5 977.5,-71.5 1107.5,-71.5 1107.5,-90.5"/>
<text text-anchor="middle" x="1042.5" y="-78.5" font-family="Helvetica,sans-Serif" font-size="10.00">include/m_Do/m_Do_ext.h</text>
</a>
</g>
</g>
<!-- Node3&#45;&gt;Node4 -->
<g id="edge3" class="edge">
<title>Node3&#45;&gt;Node4</title>
<path fill="none" stroke="#63b8ff" d="M950.98,-136.83C974.15,-122.95 1008.19,-102.56 1027.56,-90.95"/>
<polygon fill="#63b8ff" stroke="#63b8ff" points="949.27,-133.78 942.49,-141.92 952.87,-139.78 949.27,-133.78"/>
</g>
<!-- Node9 -->
<g id="node6" class="node">
<title>Node9</title>
<g id="a_node6"><a xlink:href="d__com__inf__game_8cpp.html" target="_top" xlink:title=" ">
<polygon fill="white" stroke="#666666" points="2062.5,-96 1954.5,-96 1954.5,-66 2062.5,-66 2062.5,-96"/>
<text text-anchor="start" x="1962.5" y="-84" font-family="Helvetica,sans-Serif" font-size="10.00">src/d/com/d_com_inf</text>
<text text-anchor="middle" x="2008.5" y="-73" font-family="Helvetica,sans-Serif" font-size="10.00">_game.cpp</text>
</a>
</g>
</g>
<!-- Node3&#45;&gt;Node9 -->
<g id="edge5" class="edge">
<title>Node3&#45;&gt;Node9</title>
<path fill="none" stroke="#63b8ff" d="M999.46,-141.05C1025.32,-137.68 1054.66,-134.24 1081.5,-132 1464.5,-99.99 1564.42,-145.88 1945.5,-96 1948.39,-95.62 1951.34,-95.18 1954.31,-94.68"/>
<polygon fill="#63b8ff" stroke="#63b8ff" points="999.18,-137.55 989.72,-142.34 1000.1,-144.49 999.18,-137.55"/>
</g>
<!-- Node141 -->
<g id="node7" class="node">
<title>Node141</title>
<g id="a_node7"><a xlink:href="d__name_8cpp.html" target="_top" xlink:title=" ">
<polygon fill="white" stroke="#666666" points="1219.5,-90.5 1125.5,-90.5 1125.5,-71.5 1219.5,-71.5 1219.5,-90.5"/>
<text text-anchor="middle" x="1172.5" y="-78.5" font-family="Helvetica,sans-Serif" font-size="10.00">src/d/d_name.cpp</text>
</a>
</g>
</g>
<!-- Node3&#45;&gt;Node141 -->
<g id="edge6" class="edge">
<title>Node3&#45;&gt;Node141</title>
<path fill="none" stroke="#63b8ff" d="M969.01,-139.49C1017.95,-125.66 1097.21,-103.27 1140.96,-90.91"/>
<polygon fill="#63b8ff" stroke="#63b8ff" points="968.28,-136.06 959.61,-142.14 970.19,-142.79 968.28,-136.06"/>
</g>
<!-- Node3&#45;&gt;Node151 -->
<g id="edge7" class="edge">
<title>Node3&#45;&gt;Node151</title>
<path fill="none" stroke="#63b8ff" d="M884.78,-139.74C872.54,-136.73 859.06,-133.82 846.5,-132 522.83,-85.06 435.4,-141.34 111.5,-96 108.85,-95.63 106.15,-95.2 103.43,-94.72"/>
<polygon fill="#63b8ff" stroke="#63b8ff" points="883.59,-143.05 894.15,-142.14 885.33,-136.27 883.59,-143.05"/>
</g>
<!-- Node45 -->
<g id="node9" class="node">
<title>Node45</title>
<g id="a_node9"><a xlink:href="d__kankyo_8cpp.html" target="_top" xlink:title=" ">
<polygon fill="white" stroke="#666666" points="1371.5,-90.5 1237.5,-90.5 1237.5,-71.5 1371.5,-71.5 1371.5,-90.5"/>
<text text-anchor="middle" x="1304.5" y="-78.5" font-family="Helvetica,sans-Serif" font-size="10.00">src/d/kankyo/d_kankyo.cpp</text>
</a>
</g>
</g>
<!-- Node3&#45;&gt;Node45 -->
<g id="edge8" class="edge">
<title>Node3&#45;&gt;Node45</title>
<path fill="none" stroke="#63b8ff" d="M973.88,-139.94C985.8,-137.19 998.59,-134.36 1010.5,-132 1106.82,-112.89 1131.76,-112.9 1228.5,-96 1237.62,-94.41 1247.34,-92.66 1256.69,-90.95"/>
<polygon fill="#63b8ff" stroke="#63b8ff" points="973.19,-136.51 964.25,-142.2 974.78,-143.32 973.19,-136.51"/>
</g>
<!-- Node155 -->
<g id="node10" class="node">
<title>Node155</title>
<g id="a_node10"><a xlink:href="d__kankyo__wether_8cpp.html" target="_top" xlink:title=" ">
<polygon fill="white" stroke="#666666" points="1505.5,-96 1389.5,-96 1389.5,-66 1505.5,-66 1505.5,-96"/>
<text text-anchor="start" x="1397.5" y="-84" font-family="Helvetica,sans-Serif" font-size="10.00">src/d/kankyo/d_kankyo</text>
<text text-anchor="middle" x="1447.5" y="-73" font-family="Helvetica,sans-Serif" font-size="10.00">_wether.cpp</text>
</a>
</g>
</g>
<!-- Node3&#45;&gt;Node155 -->
<g id="edge9" class="edge">
<title>Node3&#45;&gt;Node155</title>
<path fill="none" stroke="#63b8ff" d="M971.73,-139.85C984.23,-136.95 997.83,-134.08 1010.5,-132 1173.54,-105.26 1217.17,-120.93 1380.5,-96 1383.32,-95.57 1386.2,-95.1 1389.1,-94.59"/>
<polygon fill="#63b8ff" stroke="#63b8ff" points="971.01,-136.43 962.1,-142.16 972.64,-143.24 971.01,-136.43"/>
</g>
<!-- Node42 -->
<g id="node11" class="node">
<title>Node42</title>
<g id="a_node11"><a xlink:href="d__meter2_8cpp.html" target="_top" xlink:title=" ">
<polygon fill="white" stroke="#666666" points="1651.5,-90.5 1523.5,-90.5 1523.5,-71.5 1651.5,-71.5 1651.5,-90.5"/>
<text text-anchor="middle" x="1587.5" y="-78.5" font-family="Helvetica,sans-Serif" font-size="10.00">src/d/meter/d_meter2.cpp</text>
</a>
</g>
</g>
<!-- Node3&#45;&gt;Node42 -->
<g id="edge10" class="edge">
<title>Node3&#45;&gt;Node42</title>
<path fill="none" stroke="#63b8ff" d="M970.64,-139.88C983.42,-136.89 997.45,-133.97 1010.5,-132 1232.56,-98.51 1291.84,-125.2 1514.5,-96 1524.48,-94.69 1535.16,-92.88 1545.18,-90.99"/>
<polygon fill="#63b8ff" stroke="#63b8ff" points="970.16,-136.4 961.26,-142.15 971.8,-143.21 970.16,-136.4"/>
</g>
<!-- Node13 -->
<g id="node12" class="node">
<title>Node13</title>
<g id="a_node12"><a xlink:href="d__msg__flow_8cpp.html" target="_top" xlink:title=" ">
<polygon fill="white" stroke="#666666" points="1936,-90.5 1803,-90.5 1803,-71.5 1936,-71.5 1936,-90.5"/>
<text text-anchor="middle" x="1869.5" y="-78.5" font-family="Helvetica,sans-Serif" font-size="10.00">src/d/msg/d_msg_flow.cpp</text>
</a>
</g>
</g>
<!-- Node3&#45;&gt;Node13 -->
<g id="edge11" class="edge">
<title>Node3&#45;&gt;Node13</title>
<path fill="none" stroke="#63b8ff" d="M1000.49,-141.05C1026.1,-137.73 1055.02,-134.33 1081.5,-132 1397.57,-104.18 1479.4,-133.19 1794.5,-96 1805.02,-94.76 1816.29,-92.92 1826.82,-90.99"/>
<polygon fill="#63b8ff" stroke="#63b8ff" points="1000.32,-137.54 990.86,-142.31 1001.23,-144.48 1000.32,-137.54"/>
</g>
<!-- Node169 -->
<g id="node13" class="node">
<title>Node169</title>
<g id="a_node13"><a xlink:href="d__s__logo_8cpp.html" target="_top" xlink:title=" ">
<polygon fill="white" stroke="#666666" points="228,-90.5 121,-90.5 121,-71.5 228,-71.5 228,-90.5"/>
<text text-anchor="middle" x="174.5" y="-78.5" font-family="Helvetica,sans-Serif" font-size="10.00">src/d/s/d_s_logo.cpp</text>
</a>
</g>
</g>
<!-- Node3&#45;&gt;Node169 -->
<g id="edge12" class="edge">
<title>Node3&#45;&gt;Node169</title>
<path fill="none" stroke="#63b8ff" d="M884.77,-139.82C872.53,-136.81 859.06,-133.88 846.5,-132 577.93,-91.68 505.41,-134.04 236.5,-96 227.76,-94.76 218.43,-92.93 209.73,-91"/>
<polygon fill="#63b8ff" stroke="#63b8ff" points="883.58,-143.13 894.14,-142.22 885.32,-136.35 883.58,-143.13"/>
</g>
<!-- Node170 -->
<g id="node14" class="node">
<title>Node170</title>
<g id="a_node14"><a xlink:href="d__s__name_8cpp.html" target="_top" xlink:title=" ">
<polygon fill="white" stroke="#666666" points="359,-90.5 246,-90.5 246,-71.5 359,-71.5 359,-90.5"/>
<text text-anchor="middle" x="302.5" y="-78.5" font-family="Helvetica,sans-Serif" font-size="10.00">src/d/s/d_s_name.cpp</text>
</a>
</g>
</g>
<!-- Node3&#45;&gt;Node170 -->
<g id="edge13" class="edge">
<title>Node3&#45;&gt;Node170</title>
<path fill="none" stroke="#63b8ff" d="M883.75,-139.71C871.77,-136.78 858.7,-133.93 846.5,-132 636.08,-98.66 579.4,-126.17 368.5,-96 359.34,-94.69 349.55,-92.85 340.39,-90.94"/>
<polygon fill="#63b8ff" stroke="#63b8ff" points="882.8,-143.08 893.35,-142.14 884.52,-136.29 882.8,-143.08"/>
</g>
<!-- Node51 -->
<g id="node15" class="node">
<title>Node51</title>
<g id="a_node15"><a xlink:href="d__s__play_8cpp.html" target="_top" xlink:title=" ">
<polygon fill="white" stroke="#666666" points="483.5,-90.5 377.5,-90.5 377.5,-71.5 483.5,-71.5 483.5,-90.5"/>
<text text-anchor="middle" x="430.5" y="-78.5" font-family="Helvetica,sans-Serif" font-size="10.00">src/d/s/d_s_play.cpp</text>
</a>
</g>
</g>
<!-- Node3&#45;&gt;Node51 -->
<g id="edge14" class="edge">
<title>Node3&#45;&gt;Node51</title>
<path fill="none" stroke="#63b8ff" d="M883.08,-139.76C871.28,-136.89 858.46,-134.06 846.5,-132 690.64,-105.21 648.58,-121.46 492.5,-96 484.11,-94.63 475.16,-92.82 466.75,-90.96"/>
<polygon fill="#63b8ff" stroke="#63b8ff" points="882,-143.1 892.55,-142.14 883.7,-136.31 882,-143.1"/>
</g>
<!-- Node18 -->
<g id="node16" class="node">
<title>Node18</title>
<g id="a_node16"><a xlink:href="d__shop__system_8cpp.html" target="_top" xlink:title=" ">
<polygon fill="white" stroke="#666666" points="653.5,-90.5 501.5,-90.5 501.5,-71.5 653.5,-71.5 653.5,-90.5"/>
<text text-anchor="middle" x="577.5" y="-78.5" font-family="Helvetica,sans-Serif" font-size="10.00">src/d/shop/d_shop_system.cpp</text>
</a>
</g>
</g>
<!-- Node3&#45;&gt;Node18 -->
<g id="edge15" class="edge">
<title>Node3&#45;&gt;Node18</title>
<path fill="none" stroke="#63b8ff" d="M880.7,-139.87C869.54,-137.17 857.61,-134.39 846.5,-132 771.84,-115.98 684.88,-100.36 630.5,-90.96"/>
<polygon fill="#63b8ff" stroke="#63b8ff" points="879.53,-143.19 890.08,-142.18 881.2,-136.39 879.53,-143.19"/>
</g>
<!-- Node335 -->
<g id="node17" class="node">
<title>Node335</title>
<g id="a_node17"><a xlink:href="m__Do__Reset_8cpp.html" target="_top" xlink:title=" ">
<polygon fill="white" stroke="#666666" points="807.5,-90.5 671.5,-90.5 671.5,-71.5 807.5,-71.5 807.5,-90.5"/>
<text text-anchor="middle" x="739.5" y="-78.5" font-family="Helvetica,sans-Serif" font-size="10.00">src/m_Do/m_Do_Reset.cpp</text>
</a>
</g>
</g>
<!-- Node3&#45;&gt;Node335 -->
<g id="edge16" class="edge">
<title>Node3&#45;&gt;Node335</title>
<path fill="none" stroke="#63b8ff" d="M892.05,-138.69C854.71,-124.82 796.1,-103.04 763.47,-90.91"/>
<polygon fill="#63b8ff" stroke="#63b8ff" points="890.42,-141.83 901.02,-142.03 892.86,-135.26 890.42,-141.83"/>
</g>
<!-- Node178 -->
<g id="node18" class="node">
<title>Node178</title>
<g id="a_node18"><a xlink:href="m__Do__audio_8cpp.html" target="_top" xlink:title=" ">
<polygon fill="white" stroke="#666666" points="959.5,-90.5 825.5,-90.5 825.5,-71.5 959.5,-71.5 959.5,-90.5"/>
<text text-anchor="middle" x="892.5" y="-78.5" font-family="Helvetica,sans-Serif" font-size="10.00">src/m_Do/m_Do_audio.cpp</text>
</a>
</g>
</g>
<!-- Node3&#45;&gt;Node178 -->
<g id="edge17" class="edge">
<title>Node3&#45;&gt;Node178</title>
<path fill="none" stroke="#63b8ff" d="M917.22,-132.53C910.6,-118.99 901.99,-101.41 896.88,-90.95"/>
<polygon fill="#63b8ff" stroke="#63b8ff" points="913.99,-133.89 921.53,-141.34 920.28,-130.82 913.99,-133.89"/>
</g>
<!-- Node190 -->
<g id="node5" class="node">
<title>Node190</title>
<g id="a_node5"><a xlink:href="d__a__do_8h.html" target="_top" xlink:title=" ">
<polygon fill="white" stroke="#666666" points="3192.5,-30 3096.5,-30 3096.5,0 3192.5,0 3192.5,-30"/>
<text text-anchor="start" x="3104.5" y="-18" font-family="Helvetica,sans-Serif" font-size="10.00">include/rel/d/a/d_a</text>
<text text-anchor="middle" x="3144.5" y="-7" font-family="Helvetica,sans-Serif" font-size="10.00">_do/d_a_do.h</text>
</a>
</g>
</g>
<!-- Node4&#45;&gt;Node190 -->
<g id="edge4" class="edge">
<title>Node4&#45;&gt;Node190</title>
<path fill="none" stroke="#63b8ff" d="M1094.71,-69.03C1102,-67.82 1109.42,-66.75 1116.5,-66 1518.16,-23.34 2828.14,-16.99 3096.29,-16.13"/>
<polygon fill="#63b8ff" stroke="#63b8ff" points="1094.15,-65.57 1084.91,-70.77 1095.37,-72.47 1094.15,-65.57"/>
</g>
<!-- Node337&#45;&gt;Node3 -->
<g id="edge24" class="edge">
<title>Node337&#45;&gt;Node3</title>
<path fill="none" stroke="#63b8ff" d="M1110.05,-205.57C1061.63,-191.83 996.12,-173.25 957.88,-162.4"/>
<polygon fill="#63b8ff" stroke="#63b8ff" points="1109,-208.91 1119.58,-208.27 1110.91,-202.17 1109,-208.91"/>
</g>
<!-- Node337&#45;&gt;Node155 -->
<g id="edge27" class="edge">
<title>Node337&#45;&gt;Node155</title>
<path fill="none" stroke="#63b8ff" d="M1115.12,-203.47C1101.79,-196.07 1089.23,-186.14 1081.5,-173 1072.26,-157.29 1069.41,-145.63 1081.5,-132 1125.9,-81.93 1314.46,-106.85 1380.5,-96 1383.31,-95.54 1386.19,-95.04 1389.09,-94.51"/>
<polygon fill="#63b8ff" stroke="#63b8ff" points="1113.53,-206.59 1124.03,-207.97 1116.68,-200.34 1113.53,-206.59"/>
</g>
<!-- Node338 -->
<g id="node24" class="node">
<title>Node338</title>
<g id="a_node24"><a xlink:href="Z2EnvSeMgr_8cpp.html" target="_top" xlink:title=" ">
<polygon fill="white" stroke="#666666" points="1252,-162 1091,-162 1091,-143 1252,-143 1252,-162"/>
<text text-anchor="middle" x="1171.5" y="-150" font-family="Helvetica,sans-Serif" font-size="10.00">libs/Z2AudioLib/Z2EnvSeMgr.cpp</text>
</a>
</g>
</g>
<!-- Node337&#45;&gt;Node338 -->
<g id="edge25" class="edge">
<title>Node337&#45;&gt;Node338</title>
<path fill="none" stroke="#63b8ff" d="M1171.5,-197.46C1171.5,-185.07 1171.5,-170.99 1171.5,-162.18"/>
<polygon fill="#63b8ff" stroke="#63b8ff" points="1168,-197.09 1171.5,-207.09 1175,-197.09 1168,-197.09"/>
</g>
<!-- Node139 -->
<g id="node25" class="node">
<title>Node139</title>
<g id="a_node25"><a xlink:href="d__kyeff_8cpp.html" target="_top" xlink:title=" ">
<polygon fill="white" stroke="#666666" points="1360.5,-162 1270.5,-162 1270.5,-143 1360.5,-143 1360.5,-162"/>
<text text-anchor="middle" x="1315.5" y="-150" font-family="Helvetica,sans-Serif" font-size="10.00">src/d/d_kyeff.cpp</text>
</a>
</g>
</g>
<!-- Node337&#45;&gt;Node139 -->
<g id="edge26" class="edge">
<title>Node337&#45;&gt;Node139</title>
<path fill="none" stroke="#63b8ff" d="M1211.62,-203.63C1239.62,-190.12 1275.67,-172.72 1297.1,-162.38"/>
<polygon fill="#63b8ff" stroke="#63b8ff" points="1210.18,-200.44 1202.7,-207.94 1213.23,-206.75 1210.18,-200.44"/>
</g>
<!-- Node339&#45;&gt;Node190 -->
<g id="edge51" class="edge">
<title>Node339&#45;&gt;Node190</title>
<path fill="none" stroke="#63b8ff" d="M2542.37,-211.85C2548.12,-210.76 2553.93,-209.77 2559.5,-209 2621.92,-200.34 3079.69,-216.27 3125.5,-173 3165.22,-135.48 3154.67,-61.42 3148,-30.3"/>
<polygon fill="#63b8ff" stroke="#63b8ff" points="2542.05,-208.34 2532.94,-213.75 2543.43,-215.21 2542.05,-208.34"/>
</g>
<!-- Node6 -->
<g id="node27" class="node">
<title>Node6</title>
<g id="a_node27"><a xlink:href="d__a__alink_8h.html" target="_top" xlink:title=" ">
<polygon fill="#fff0f0" stroke="red" points="2948.5,-162 2832.5,-162 2832.5,-143 2948.5,-143 2948.5,-162"/>
<text text-anchor="middle" x="2890.5" y="-150" font-family="Helvetica,sans-Serif" font-size="10.00">include/d/a/d_a_alink.h</text>
</a>
</g>
</g>
<!-- Node339&#45;&gt;Node6 -->
<g id="edge29" class="edge">
<title>Node339&#45;&gt;Node6</title>
<path fill="none" stroke="#63b8ff" d="M2545.15,-211.7C2549.99,-210.74 2554.83,-209.82 2559.5,-209 2676.13,-188.52 2707.67,-197.61 2823.5,-173 2836.65,-170.21 2851,-166.17 2863.02,-162.49"/>
<polygon fill="#63b8ff" stroke="#63b8ff" points="2544.51,-208.26 2535.42,-213.7 2545.92,-215.11 2544.51,-208.26"/>
</g>
<!-- Node238 -->
<g id="node32" class="node">
<title>Node238</title>
<g id="a_node32"><a xlink:href="d__a__item__static_8h.html" target="_top" xlink:title=" ">
<polygon fill="#fff0f0" stroke="red" points="3280,-96 3173,-96 3173,-66 3280,-66 3280,-96"/>
<text text-anchor="start" x="3181" y="-84" font-family="Helvetica,sans-Serif" font-size="10.00">include/d/a/d_a_item</text>
<text text-anchor="middle" x="3226.5" y="-73" font-family="Helvetica,sans-Serif" font-size="10.00">_static.h</text>
</a>
</g>
</g>
<!-- Node339&#45;&gt;Node238 -->
<g id="edge36" class="edge">
<title>Node339&#45;&gt;Node238</title>
<path fill="none" stroke="#63b8ff" d="M2542.36,-211.83C2548.12,-210.74 2553.92,-209.76 2559.5,-209 2691.62,-190.91 3041.13,-236.29 3158.5,-173 3189.92,-156.06 3210.9,-117.58 3220.5,-96.49"/>
<polygon fill="#63b8ff" stroke="#63b8ff" points="2542.05,-208.32 2532.93,-213.73 2543.43,-215.19 2542.05,-208.32"/>
</g>
<!-- Node243 -->
<g id="node33" class="node">
<title>Node243</title>
<g id="a_node33"><a xlink:href="d__a__itembase_8h.html" target="_top" xlink:title=" ">
<polygon fill="#fff0f0" stroke="red" points="3718,-162 3583,-162 3583,-143 3718,-143 3718,-162"/>
<text text-anchor="middle" x="3650.5" y="-150" font-family="Helvetica,sans-Serif" font-size="10.00">include/d/a/d_a_itembase.h</text>
</a>
</g>
</g>
<!-- Node339&#45;&gt;Node243 -->
<g id="edge38" class="edge">
<title>Node339&#45;&gt;Node243</title>
<path fill="none" stroke="#63b8ff" d="M2541.91,-211.78C2547.81,-210.68 2553.78,-209.71 2559.5,-209 3007,-153.31 3127.07,-236.71 3573.5,-173 3589.47,-170.72 3606.93,-166.45 3621.18,-162.49"/>
<polygon fill="#63b8ff" stroke="#63b8ff" points="2541.35,-208.32 2532.23,-213.71 2542.72,-215.18 2541.35,-208.32"/>
</g>
<!-- Node233 -->
<g id="node34" class="node">
<title>Node233</title>
<g id="a_node34"><a xlink:href="d__bomb_8h.html" target="_top" xlink:title=" ">
<polygon fill="#fff0f0" stroke="red" points="2130,-162 2029,-162 2029,-143 2130,-143 2130,-162"/>
<text text-anchor="middle" x="2079.5" y="-150" font-family="Helvetica,sans-Serif" font-size="10.00">include/d/d_bomb.h</text>
</a>
</g>
</g>
<!-- Node339&#45;&gt;Node233 -->
<g id="edge40" class="edge">
<title>Node339&#45;&gt;Node233</title>
<path fill="none" stroke="#63b8ff" d="M2427.47,-217.08C2355.62,-209.91 2238.51,-195.88 2139.5,-173 2127.55,-170.24 2114.57,-166.16 2103.75,-162.45"/>
<polygon fill="#63b8ff" stroke="#63b8ff" points="2426.81,-220.53 2437.1,-218.02 2427.49,-213.56 2426.81,-220.53"/>
</g>
<!-- Node25 -->
<g id="node35" class="node">
<title>Node25</title>
<g id="a_node35"><a xlink:href="d__a__b__oh_8h.html" target="_top" xlink:title=" ">
<polygon fill="white" stroke="#666666" points="3316.5,-167.5 3210.5,-167.5 3210.5,-137.5 3316.5,-137.5 3316.5,-167.5"/>
<text text-anchor="start" x="3218.5" y="-155.5" font-family="Helvetica,sans-Serif" font-size="10.00">include/rel/d/a/b/d</text>
<text text-anchor="middle" x="3263.5" y="-144.5" font-family="Helvetica,sans-Serif" font-size="10.00">_a_b_oh/d_a_b_oh.h</text>
</a>
</g>
</g>
<!-- Node339&#45;&gt;Node25 -->
<g id="edge42" class="edge">
<title>Node339&#45;&gt;Node25</title>
<path fill="none" stroke="#63b8ff" d="M2542.36,-211.81C2548.11,-210.73 2553.92,-209.75 2559.5,-209 2840.51,-171.03 2917.02,-220.93 3196.5,-173 3203.9,-171.73 3211.65,-169.93 3219.14,-167.94"/>
<polygon fill="#63b8ff" stroke="#63b8ff" points="2542.05,-208.3 2532.93,-213.7 2543.42,-215.17 2542.05,-208.3"/>
</g>
<!-- Node188 -->
<g id="node36" class="node">
<title>Node188</title>
<g id="a_node36"><a xlink:href="d__a__arrow_8h.html" target="_top" xlink:title=" ">
<polygon fill="white" stroke="#666666" points="3436,-167.5 3335,-167.5 3335,-137.5 3436,-137.5 3436,-167.5"/>
<text text-anchor="start" x="3343" y="-155.5" font-family="Helvetica,sans-Serif" font-size="10.00">include/rel/d/a/d_a</text>
<text text-anchor="middle" x="3385.5" y="-144.5" font-family="Helvetica,sans-Serif" font-size="10.00">_arrow/d_a_arrow.h</text>
</a>
</g>
</g>
<!-- Node339&#45;&gt;Node188 -->
<g id="edge43" class="edge">
<title>Node339&#45;&gt;Node188</title>
<path fill="none" stroke="#63b8ff" d="M2542.14,-211.8C2547.96,-210.71 2553.85,-209.74 2559.5,-209 2897.46,-164.97 2990.22,-234.22 3325.5,-173 3332.29,-171.76 3339.37,-169.95 3346.19,-167.92"/>
<polygon fill="#63b8ff" stroke="#63b8ff" points="2541.7,-208.32 2532.58,-213.71 2543.07,-215.18 2541.7,-208.32"/>
</g>
<!-- Node252 -->
<g id="node37" class="node">
<title>Node252</title>
<g id="a_node37"><a xlink:href="d__a__bg__obj_8h.html" target="_top" xlink:title=" ">
<polygon fill="white" stroke="#666666" points="3564.5,-167.5 3454.5,-167.5 3454.5,-137.5 3564.5,-137.5 3564.5,-167.5"/>
<text text-anchor="start" x="3462.5" y="-155.5" font-family="Helvetica,sans-Serif" font-size="10.00">include/rel/d/a/d_a</text>
<text text-anchor="middle" x="3509.5" y="-144.5" font-family="Helvetica,sans-Serif" font-size="10.00">_bg_obj/d_a_bg_obj.h</text>
</a>
</g>
</g>
<!-- Node339&#45;&gt;Node252 -->
<g id="edge44" class="edge">
<title>Node339&#45;&gt;Node252</title>
<path fill="none" stroke="#63b8ff" d="M2541.92,-211.8C2547.81,-210.7 2553.78,-209.73 2559.5,-209 2950.46,-159.33 3056.96,-238.97 3445.5,-173 3452.71,-171.78 3460.25,-169.97 3467.52,-167.95"/>
<polygon fill="#63b8ff" stroke="#63b8ff" points="2541.35,-208.35 2532.24,-213.75 2542.73,-215.21 2541.35,-208.35"/>
</g>
<!-- Node262 -->
<g id="node38" class="node">
<title>Node262</title>
<g id="a_node38"><a xlink:href="d__a__boomerang_8h.html" target="_top" xlink:title=" ">
<polygon fill="white" stroke="#666666" points="3116,-167.5 2967,-167.5 2967,-137.5 3116,-137.5 3116,-167.5"/>
<text text-anchor="start" x="2975" y="-155.5" font-family="Helvetica,sans-Serif" font-size="10.00">include/rel/d/a/d_a</text>
<text text-anchor="middle" x="3041.5" y="-144.5" font-family="Helvetica,sans-Serif" font-size="10.00">_boomerang/d_a_boomerang.h</text>
</a>
</g>
</g>
<!-- Node339&#45;&gt;Node262 -->
<g id="edge45" class="edge">
<title>Node339&#45;&gt;Node262</title>
<path fill="none" stroke="#63b8ff" d="M2543.46,-211.79C2548.86,-210.75 2554.28,-209.79 2559.5,-209 2735.09,-182.25 2782.13,-201.15 2957.5,-173 2966.07,-171.62 2975.07,-169.87 2983.87,-167.98"/>
<polygon fill="#63b8ff" stroke="#63b8ff" points="2543.1,-208.29 2533.99,-213.7 2544.49,-215.15 2543.1,-208.29"/>
</g>
<!-- Node263 -->
<g id="node39" class="node">
<title>Node263</title>
<g id="a_node39"><a xlink:href="d__a__canoe_8h.html" target="_top" xlink:title=" ">
<polygon fill="white" stroke="#666666" points="1484.5,-167.5 1378.5,-167.5 1378.5,-137.5 1484.5,-137.5 1484.5,-167.5"/>
<text text-anchor="start" x="1386.5" y="-155.5" font-family="Helvetica,sans-Serif" font-size="10.00">include/rel/d/a/d_a</text>
<text text-anchor="middle" x="1431.5" y="-144.5" font-family="Helvetica,sans-Serif" font-size="10.00">_canoe/d_a_canoe.h</text>
</a>
</g>
</g>
<!-- Node339&#45;&gt;Node263 -->
<g id="edge47" class="edge">
<title>Node339&#45;&gt;Node263</title>
<path fill="none" stroke="#63b8ff" d="M2427.22,-221.83C2233.1,-218.1 1674.41,-204.82 1494.5,-173 1487.51,-171.76 1480.21,-169.98 1473.16,-167.99"/>
<polygon fill="#63b8ff" stroke="#63b8ff" points="2427.08,-225.33 2437.14,-222.02 2427.21,-218.33 2427.08,-225.33"/>
</g>
<!-- Node189 -->
<g id="node40" class="node">
<title>Node189</title>
<g id="a_node40"><a xlink:href="d__a__crod_8h.html" target="_top" xlink:title=" ">
<polygon fill="white" stroke="#666666" points="2814.5,-167.5 2718.5,-167.5 2718.5,-137.5 2814.5,-137.5 2814.5,-167.5"/>
<text text-anchor="start" x="2726.5" y="-155.5" font-family="Helvetica,sans-Serif" font-size="10.00">include/rel/d/a/d_a</text>
<text text-anchor="middle" x="2766.5" y="-144.5" font-family="Helvetica,sans-Serif" font-size="10.00">_crod/d_a_crod.h</text>
</a>
</g>
</g>
<!-- Node339&#45;&gt;Node189 -->
<g id="edge48" class="edge">
<title>Node339&#45;&gt;Node189</title>
<path fill="none" stroke="#63b8ff" d="M2546.29,-211.59C2599.7,-199.71 2679.32,-181.65 2709.5,-173 2714.83,-171.47 2720.39,-169.74 2725.87,-167.96"/>
<polygon fill="#63b8ff" stroke="#63b8ff" points="2545.8,-208.11 2536.8,-213.7 2547.32,-214.95 2545.8,-208.11"/>
</g>
<!-- Node313 -->
<g id="node41" class="node">
<title>Node313</title>
<g id="a_node41"><a xlink:href="d__a__cstatue_8h.html" target="_top" xlink:title=" ">
<polygon fill="white" stroke="#666666" points="1740.5,-167.5 1622.5,-167.5 1622.5,-137.5 1740.5,-137.5 1740.5,-167.5"/>
<text text-anchor="start" x="1630.5" y="-155.5" font-family="Helvetica,sans-Serif" font-size="10.00">include/rel/d/a/d_a</text>
<text text-anchor="middle" x="1681.5" y="-144.5" font-family="Helvetica,sans-Serif" font-size="10.00">_cstatue/d_a_cstatue.h</text>
</a>
</g>
</g>
<!-- Node339&#45;&gt;Node313 -->
<g id="edge50" class="edge">
<title>Node339&#45;&gt;Node313</title>
<path fill="none" stroke="#63b8ff" d="M2427.46,-223.24C2296.26,-222.68 1996.78,-216.25 1749.5,-173 1742.12,-171.71 1734.4,-169.93 1726.91,-167.96"/>
<polygon fill="#63b8ff" stroke="#63b8ff" points="2427.35,-226.74 2437.36,-223.27 2427.38,-219.74 2427.35,-226.74"/>
</g>
<!-- Node191 -->
<g id="node42" class="node">
<title>Node191</title>
<g id="a_node42"><a xlink:href="d__a__horse_8h.html" target="_top" xlink:title=" ">
<polygon fill="#fff0f0" stroke="red" points="1604,-167.5 1503,-167.5 1503,-137.5 1604,-137.5 1604,-167.5"/>
<text text-anchor="start" x="1511" y="-155.5" font-family="Helvetica,sans-Serif" font-size="10.00">include/rel/d/a/d_a</text>
<text text-anchor="middle" x="1553.5" y="-144.5" font-family="Helvetica,sans-Serif" font-size="10.00">_horse/d_a_horse.h</text>
</a>
</g>
</g>
<!-- Node339&#45;&gt;Node191 -->
<g id="edge52" class="edge">
<title>Node339&#45;&gt;Node191</title>
<path fill="none" stroke="#63b8ff" d="M2427.36,-221.42C2249.54,-216.9 1769.4,-202.25 1613.5,-173 1606.83,-171.75 1599.86,-169.96 1593.15,-167.97"/>
<polygon fill="#63b8ff" stroke="#63b8ff" points="2427.03,-224.92 2437.11,-221.67 2427.2,-217.92 2427.03,-224.92"/>
</g>
<!-- Node314 -->
<g id="node43" class="node">
<title>Node314</title>
<g id="a_node43"><a xlink:href="d__a__mg__rod_8h.html" target="_top" xlink:title=" ">
<polygon fill="white" stroke="#666666" points="2010.5,-167.5 1892.5,-167.5 1892.5,-137.5 2010.5,-137.5 2010.5,-167.5"/>
<text text-anchor="start" x="1900.5" y="-155.5" font-family="Helvetica,sans-Serif" font-size="10.00">include/rel/d/a/d_a</text>
<text text-anchor="middle" x="1951.5" y="-144.5" font-family="Helvetica,sans-Serif" font-size="10.00">_mg_rod/d_a_mg_rod.h</text>
</a>
</g>
</g>
<!-- Node339&#45;&gt;Node314 -->
<g id="edge55" class="edge">
<title>Node339&#45;&gt;Node314</title>
<path fill="none" stroke="#63b8ff" d="M2427.17,-219.52C2334.8,-213.92 2163.88,-200.61 2020.5,-173 2013.29,-171.61 2005.74,-169.83 1998.38,-167.9"/>
<polygon fill="#63b8ff" stroke="#63b8ff" points="2426.89,-223 2437.08,-220.1 2427.3,-216.02 2426.89,-223"/>
</g>
<!-- Node318 -->
<g id="node44" class="node">
<title>Node318</title>
<g id="a_node44"><a xlink:href="d__a__obj__carry_8h.html" target="_top" xlink:title=" ">
<polygon fill="#fff0f0" stroke="red" points="1874.5,-173 1758.5,-173 1758.5,-132 1874.5,-132 1874.5,-173"/>
<text text-anchor="start" x="1766.5" y="-161" font-family="Helvetica,sans-Serif" font-size="10.00">include/rel/d/a/obj</text>
<text text-anchor="start" x="1766.5" y="-150" font-family="Helvetica,sans-Serif" font-size="10.00">/d_a_obj_carry/d_a_obj</text>
<text text-anchor="middle" x="1816.5" y="-139" font-family="Helvetica,sans-Serif" font-size="10.00">_carry.h</text>
</a>
</g>
</g>
<!-- Node339&#45;&gt;Node318 -->
<g id="edge57" class="edge">
<title>Node339&#45;&gt;Node318</title>
<path fill="none" stroke="#63b8ff" d="M2427.62,-221.92C2314.61,-219.13 2079.05,-209.08 1883.5,-173 1880.64,-172.47 1877.73,-171.87 1874.8,-171.22"/>
<polygon fill="#63b8ff" stroke="#63b8ff" points="2427.23,-225.41 2437.31,-222.15 2427.4,-218.42 2427.23,-225.41"/>
</g>
<!-- Node258 -->
<g id="node45" class="node">
<title>Node258</title>
<g id="a_node45"><a xlink:href="d__a__obj__swhang_8h.html" target="_top" xlink:title=" ">
<polygon fill="white" stroke="#666666" points="2259,-173 2148,-173 2148,-132 2259,-132 2259,-173"/>
<text text-anchor="start" x="2156" y="-161" font-family="Helvetica,sans-Serif" font-size="10.00">include/rel/d/a/obj</text>
<text text-anchor="start" x="2156" y="-150" font-family="Helvetica,sans-Serif" font-size="10.00">/d_a_obj_swhang/d_a</text>
<text text-anchor="middle" x="2203.5" y="-139" font-family="Helvetica,sans-Serif" font-size="10.00">_obj_swhang.h</text>
</a>
</g>
</g>
<!-- Node339&#45;&gt;Node258 -->
<g id="edge60" class="edge">
<title>Node339&#45;&gt;Node258</title>
<path fill="none" stroke="#63b8ff" d="M2438.03,-211.71C2392.15,-202.25 2325.86,-187.93 2268.5,-173 2265.54,-172.23 2262.5,-171.41 2259.45,-170.57"/>
<polygon fill="#63b8ff" stroke="#63b8ff" points="2437.26,-215.13 2447.76,-213.71 2438.67,-208.27 2437.26,-215.13"/>
</g>
<!-- Node290 -->
<g id="node46" class="node">
<title>Node290</title>
<g id="a_node46"><a xlink:href="d__a__obj__swpropeller_8h.html" target="_top" xlink:title=" ">
<polygon fill="white" stroke="#666666" points="2393.5,-173 2277.5,-173 2277.5,-132 2393.5,-132 2393.5,-173"/>
<text text-anchor="start" x="2285.5" y="-161" font-family="Helvetica,sans-Serif" font-size="10.00">include/rel/d/a/obj</text>
<text text-anchor="start" x="2285.5" y="-150" font-family="Helvetica,sans-Serif" font-size="10.00">/d_a_obj_swpropeller</text>
<text text-anchor="middle" x="2335.5" y="-139" font-family="Helvetica,sans-Serif" font-size="10.00">/d_a_obj_swpropeller.h</text>
</a>
</g>
</g>
<!-- Node339&#45;&gt;Node290 -->
<g id="edge61" class="edge">
<title>Node339&#45;&gt;Node290</title>
<path fill="none" stroke="#63b8ff" d="M2463.67,-209.52C2440.26,-199.29 2407.69,-185.06 2381.25,-173.5"/>
<polygon fill="#63b8ff" stroke="#63b8ff" points="2462.09,-212.65 2472.65,-213.45 2464.89,-206.24 2462.09,-212.65"/>
</g>
<!-- Node309 -->
<g id="node47" class="node">
<title>Node309</title>
<g id="a_node47"><a xlink:href="d__cc__d__nonmatching_8cpp.html" target="_top" xlink:title=" ">
<polygon fill="white" stroke="#666666" points="2577,-162 2412,-162 2412,-143 2577,-143 2577,-162"/>
<text text-anchor="middle" x="2494.5" y="-150" font-family="Helvetica,sans-Serif" font-size="10.00">src/d/cc/d_cc_d_nonmatching.cpp</text>
</a>
</g>
</g>
<!-- Node339&#45;&gt;Node309 -->
<g id="edge62" class="edge">
<title>Node339&#45;&gt;Node309</title>
<path fill="none" stroke="#63b8ff" d="M2494.5,-202.8C2494.5,-189.44 2494.5,-172.59 2494.5,-162.45"/>
<polygon fill="#63b8ff" stroke="#63b8ff" points="2491,-202.68 2494.5,-212.68 2498,-202.68 2491,-202.68"/>
</g>
<!-- Node324 -->
<g id="node48" class="node">
<title>Node324</title>
<g id="a_node48"><a xlink:href="d__cc__mass__s_8cpp.html" target="_top" xlink:title=" ">
<polygon fill="white" stroke="#666666" points="2700,-167.5 2595,-167.5 2595,-137.5 2700,-137.5 2700,-167.5"/>
<text text-anchor="start" x="2603" y="-155.5" font-family="Helvetica,sans-Serif" font-size="10.00">src/d/cc/d_cc_mass</text>
<text text-anchor="middle" x="2647.5" y="-144.5" font-family="Helvetica,sans-Serif" font-size="10.00">_s.cpp</text>
</a>
</g>
</g>
<!-- Node339&#45;&gt;Node324 -->
<g id="edge63" class="edge">
<title>Node339&#45;&gt;Node324</title>
<path fill="none" stroke="#63b8ff" d="M2524.66,-209.3C2550.93,-197.37 2588.89,-180.13 2615.64,-167.97"/>
<polygon fill="#63b8ff" stroke="#63b8ff" points="2523.22,-206.11 2515.57,-213.43 2526.12,-212.48 2523.22,-206.11"/>
</g>
<!-- Node6&#45;&gt;Node9 -->
<g id="edge32" class="edge">
<title>Node6&#45;&gt;Node9</title>
<path fill="none" stroke="#63b8ff" d="M2854.35,-139.29C2844.46,-136.42 2833.66,-133.7 2823.5,-132 2493.91,-76.93 2403.77,-139.86 2072.5,-96 2069.34,-95.58 2066.11,-95.09 2062.86,-94.54"/>
<polygon fill="#63b8ff" stroke="#63b8ff" points="2853.02,-142.55 2863.61,-142.12 2855.07,-135.85 2853.02,-142.55"/>
</g>
<!-- Node6&#45;&gt;Node13 -->
<g id="edge35" class="edge">
<title>Node6&#45;&gt;Node13</title>
<path fill="none" stroke="#63b8ff" d="M2854.36,-139.25C2844.46,-136.37 2833.66,-133.66 2823.5,-132 2438.07,-68.97 2333.62,-139.48 1945.5,-96 1934.7,-94.79 1923.13,-92.94 1912.35,-90.99"/>
<polygon fill="#63b8ff" stroke="#63b8ff" points="2853.03,-142.5 2863.62,-142.08 2855.08,-135.81 2853.03,-142.5"/>
</g>
<!-- Node7 -->
<g id="node28" class="node">
<title>Node7</title>
<g id="a_node28"><a xlink:href="d__a__alink_8cpp.html" target="_top" xlink:title=" ">
<polygon fill="white" stroke="#666666" points="2190,-90.5 2081,-90.5 2081,-71.5 2190,-71.5 2190,-90.5"/>
<text text-anchor="middle" x="2135.5" y="-78.5" font-family="Helvetica,sans-Serif" font-size="10.00">src/d/a/d_a_alink.cpp</text>
</a>
</g>
</g>
<!-- Node6&#45;&gt;Node7 -->
<g id="edge30" class="edge">
<title>Node6&#45;&gt;Node7</title>
<path fill="none" stroke="#63b8ff" d="M2853.5,-139.22C2843.83,-136.43 2833.36,-133.77 2823.5,-132 2590.71,-90.15 2307.62,-83.11 2190.39,-82.08"/>
<polygon fill="#63b8ff" stroke="#63b8ff" points="2852.36,-142.53 2862.94,-142.08 2854.38,-135.83 2852.36,-142.53"/>
</g>
<!-- Node8 -->
<g id="node29" class="node">
<title>Node8</title>
<g id="a_node29"><a xlink:href="d__a__player_8cpp.html" target="_top" xlink:title=" ">
<polygon fill="white" stroke="#666666" points="3086.5,-90.5 2972.5,-90.5 2972.5,-71.5 3086.5,-71.5 3086.5,-90.5"/>
<text text-anchor="middle" x="3029.5" y="-78.5" font-family="Helvetica,sans-Serif" font-size="10.00">src/d/a/d_a_player.cpp</text>
</a>
</g>
</g>
<!-- Node6&#45;&gt;Node8 -->
<g id="edge31" class="edge">
<title>Node6&#45;&gt;Node8</title>
<path fill="none" stroke="#63b8ff" d="M2918.65,-137.42C2946.47,-123.52 2988.15,-102.67 3011.68,-90.91"/>
<polygon fill="#63b8ff" stroke="#63b8ff" points="2917.12,-134.28 2909.74,-141.88 2920.25,-140.54 2917.12,-134.28"/>
</g>
<!-- Node10 -->
<g id="node30" class="node">
<title>Node10</title>
<g id="a_node30"><a xlink:href="d__camera_8cpp.html" target="_top" xlink:title=" ">
<polygon fill="white" stroke="#666666" points="2947.5,-90.5 2845.5,-90.5 2845.5,-71.5 2947.5,-71.5 2947.5,-90.5"/>
<text text-anchor="middle" x="2896.5" y="-78.5" font-family="Helvetica,sans-Serif" font-size="10.00">src/d/d_camera.cpp</text>
</a>
</g>
</g>
<!-- Node6&#45;&gt;Node10 -->
<g id="edge33" class="edge">
<title>Node6&#45;&gt;Node10</title>
<path fill="none" stroke="#63b8ff" d="M2892.24,-131.3C2893.4,-117.94 2894.85,-101.09 2895.73,-90.95"/>
<polygon fill="#63b8ff" stroke="#63b8ff" points="2888.76,-130.93 2891.39,-141.19 2895.74,-131.53 2888.76,-130.93"/>
</g>
<!-- Node11 -->
<g id="node31" class="node">
<title>Node11</title>
<g id="a_node31"><a xlink:href="d__event_8cpp.html" target="_top" xlink:title=" ">
<polygon fill="white" stroke="#666666" points="2827,-90.5 2706,-90.5 2706,-71.5 2827,-71.5 2827,-90.5"/>
<text text-anchor="middle" x="2766.5" y="-78.5" font-family="Helvetica,sans-Serif" font-size="10.00">src/d/event/d_event.cpp</text>
</a>
</g>
</g>
<!-- Node6&#45;&gt;Node11 -->
<g id="edge34" class="edge">
<title>Node6&#45;&gt;Node11</title>
<path fill="none" stroke="#63b8ff" d="M2864.72,-137.05C2839.92,-123.15 2803.2,-102.57 2782.4,-90.91"/>
<polygon fill="#63b8ff" stroke="#63b8ff" points="2862.79,-139.98 2873.22,-141.82 2866.21,-133.87 2862.79,-139.98"/>
</g>
<!-- Node238&#45;&gt;Node190 -->
<g id="edge37" class="edge">
<title>Node238&#45;&gt;Node190</title>
<path fill="none" stroke="#63b8ff" d="M3199.56,-58.97C3187.56,-49.61 3173.73,-38.81 3162.93,-30.39"/>
<polygon fill="#63b8ff" stroke="#63b8ff" points="3197.07,-61.47 3207.11,-64.87 3201.38,-55.95 3197.07,-61.47"/>
</g>
<!-- Node243&#45;&gt;Node238 -->
<g id="edge39" class="edge">
<title>Node243&#45;&gt;Node238</title>
<path fill="none" stroke="#63b8ff" d="M3607.37,-139.73C3596.37,-136.96 3584.54,-134.19 3573.5,-132 3470.51,-111.6 3348.76,-95.99 3280.3,-87.98"/>
<polygon fill="#63b8ff" stroke="#63b8ff" points="3606.43,-143.1 3616.99,-142.21 3608.17,-136.32 3606.43,-143.1"/>
</g>
<!-- Node233&#45;&gt;Node7 -->
<g id="edge41" class="edge">
<title>Node233&#45;&gt;Node7</title>
<path fill="none" stroke="#63b8ff" d="M2093.81,-133.73C2104.84,-120.06 2119.61,-101.72 2128.29,-90.95"/>
<polygon fill="#63b8ff" stroke="#63b8ff" points="2091.09,-131.54 2087.54,-141.52 2096.54,-135.93 2091.09,-131.54"/>
</g>
<!-- Node262&#45;&gt;Node8 -->
<g id="edge46" class="edge">
<title>Node262&#45;&gt;Node8</title>
<path fill="none" stroke="#63b8ff" d="M3037.09,-125.96C3034.95,-113.57 3032.52,-99.49 3031,-90.68"/>
<polygon fill="#63b8ff" stroke="#63b8ff" points="3033.61,-126.35 3038.76,-135.61 3040.5,-125.16 3033.61,-126.35"/>
</g>
<!-- Node189&#45;&gt;Node7 -->
<g id="edge49" class="edge">
<title>Node189&#45;&gt;Node7</title>
<path fill="none" stroke="#63b8ff" d="M2717.5,-133.9C2714.81,-133.2 2712.13,-132.56 2709.5,-132 2521.84,-92.34 2293.27,-84.04 2190.36,-82.37"/>
<polygon fill="#63b8ff" stroke="#63b8ff" points="2716.5,-137.26 2727.08,-136.67 2718.44,-130.53 2716.5,-137.26"/>
</g>
<!-- Node191&#45;&gt;Node42 -->
<g id="edge54" class="edge">
<title>Node191&#45;&gt;Node42</title>
<path fill="none" stroke="#63b8ff" d="M1565.43,-127.11C1571.63,-114.44 1578.81,-99.77 1583.25,-90.68"/>
<polygon fill="#63b8ff" stroke="#63b8ff" points="1562.46,-125.22 1561.21,-135.74 1568.75,-128.3 1562.46,-125.22"/>
</g>
<!-- Node191&#45;&gt;Node7 -->
<g id="edge53" class="edge">
<title>Node191&#45;&gt;Node7</title>
<path fill="none" stroke="#63b8ff" d="M1604.46,-134.04C1607.5,-133.28 1610.53,-132.59 1613.5,-132 1813.76,-92.17 1869.52,-125.89 2071.5,-96 2080.39,-94.68 2089.89,-92.85 2098.77,-90.94"/>
<polygon fill="#63b8ff" stroke="#63b8ff" points="1603.67,-130.63 1594.96,-136.66 1605.53,-137.38 1603.67,-130.63"/>
</g>
<!-- Node314&#45;&gt;Node7 -->
<g id="edge56" class="edge">
<title>Node314&#45;&gt;Node7</title>
<path fill="none" stroke="#63b8ff" d="M2000.39,-133.03C2036.36,-119.45 2083.69,-101.57 2111.73,-90.98"/>
<polygon fill="#63b8ff" stroke="#63b8ff" points="1999.16,-129.76 1991.04,-136.56 2001.63,-136.31 1999.16,-129.76"/>
</g>
<!-- Node318&#45;&gt;Node172 -->
<g id="edge59" class="edge">
<title>Node318&#45;&gt;Node172</title>
<path fill="none" stroke="#63b8ff" d="M1782.41,-124.88C1766.97,-112.82 1749.76,-99.38 1738.79,-90.82"/>
<polygon fill="#63b8ff" stroke="#63b8ff" points="1780.01,-127.44 1790.04,-130.84 1784.31,-121.93 1780.01,-127.44"/>
</g>
<!-- Node318&#45;&gt;Node7 -->
<g id="edge58" class="edge">
<title>Node318&#45;&gt;Node7</title>
<path fill="none" stroke="#63b8ff" d="M1886.03,-131.5C1968.16,-112.14 1991.66,-112.37 2071.5,-96 2079.19,-94.42 2087.38,-92.68 2095.25,-90.97"/>
<polygon fill="#63b8ff" stroke="#63b8ff" points="1885.27,-128.08 1876.35,-133.81 1886.89,-134.89 1885.27,-128.08"/>
</g>
</g>
</svg>
