<?xml version="1.0" encoding="UTF-8" standalone="no"?>
<!DOCTYPE svg PUBLIC "-//W3C//DTD SVG 1.1//EN"
 "http://www.w3.org/Graphics/SVG/1.1/DTD/svg11.dtd">
<!-- Generated by graphviz version 2.50.0 (20220203.2022)
 -->
<!-- Title: include/Z2AudioLib/Z2SeMgr.h Pages: 1 -->
<svg width="1837pt" height="240pt"
 viewBox="0.00 0.00 1837.00 240.00" xmlns="http://www.w3.org/2000/svg" xmlns:xlink="http://www.w3.org/1999/xlink">
<g id="graph0" class="graph" transform="scale(1 1) rotate(0) translate(4 236)">
<title>include/Z2AudioLib/Z2SeMgr.h</title>
<polygon fill="white" stroke="transparent" points="-4,4 -4,-236 1833,-236 1833,4 -4,4"/>
<!-- Node1 -->
<g id="node1" class="node">
<title>Node1</title>
<g id="a_node1"><a xlink:title=" ">
<polygon fill="#bfbfbf" stroke="black" points="1360.5,-201.5 1360.5,-231.5 1460.5,-231.5 1460.5,-201.5 1360.5,-201.5"/>
<text text-anchor="start" x="1368.5" y="-219.5" font-family="Helvetica,sans-Serif" font-size="10.00">include/Z2AudioLib</text>
<text text-anchor="middle" x="1410.5" y="-208.5" font-family="Helvetica,sans-Serif" font-size="10.00">/Z2SeMgr.h</text>
</a>
</g>
</g>
<!-- Node2 -->
<g id="node2" class="node">
<title>Node2</title>
<g id="a_node2"><a xlink:href="Z2AudioMgr_8h.html" target="_top" xlink:title=" ">
<polygon fill="white" stroke="black" points="1360.5,-134.5 1360.5,-164.5 1460.5,-164.5 1460.5,-134.5 1360.5,-134.5"/>
<text text-anchor="start" x="1368.5" y="-152.5" font-family="Helvetica,sans-Serif" font-size="10.00">include/Z2AudioLib</text>
<text text-anchor="middle" x="1410.5" y="-141.5" font-family="Helvetica,sans-Serif" font-size="10.00">/Z2AudioMgr.h</text>
</a>
</g>
</g>
<!-- Node1&#45;&gt;Node2 -->
<g id="edge1" class="edge">
<title>Node1&#45;&gt;Node2</title>
<path fill="none" stroke="midnightblue" d="M1410.5,-191.11C1410.5,-182.15 1410.5,-172.32 1410.5,-164.58"/>
<polygon fill="midnightblue" stroke="midnightblue" points="1407,-191.4 1410.5,-201.4 1414,-191.4 1407,-191.4"/>
</g>
<!-- Node19 -->
<g id="node19" class="node">
<title>Node19</title>
<g id="a_node19"><a xlink:href="Z2EnvSeMgr_8h.html" target="_top" xlink:title=" ">
<polygon fill="white" stroke="black" points="304.5,-67.5 304.5,-97.5 404.5,-97.5 404.5,-67.5 304.5,-67.5"/>
<text text-anchor="start" x="312.5" y="-85.5" font-family="Helvetica,sans-Serif" font-size="10.00">include/Z2AudioLib</text>
<text text-anchor="middle" x="354.5" y="-74.5" font-family="Helvetica,sans-Serif" font-size="10.00">/Z2EnvSeMgr.h</text>
</a>
</g>
</g>
<!-- Node1&#45;&gt;Node19 -->
<g id="edge19" class="edge">
<title>Node1&#45;&gt;Node19</title>
<path fill="none" stroke="midnightblue" d="M1350.22,-207.97C1160.76,-184.28 579.5,-111.62 404.72,-89.78"/>
<polygon fill="midnightblue" stroke="midnightblue" points="1349.92,-211.45 1360.28,-209.22 1350.79,-204.51 1349.92,-211.45"/>
</g>
<!-- Node22 -->
<g id="node22" class="node">
<title>Node22</title>
<g id="a_node22"><a xlink:href="Z2SeMgr_8cpp.html" target="_top" xlink:title=" ">
<polygon fill="white" stroke="black" points="1479,-140 1479,-159 1624,-159 1624,-140 1479,-140"/>
<text text-anchor="middle" x="1551.5" y="-147" font-family="Helvetica,sans-Serif" font-size="10.00">libs/Z2AudioLib/Z2SeMgr.cpp</text>
</a>
</g>
</g>
<!-- Node1&#45;&gt;Node22 -->
<g id="edge24" class="edge">
<title>Node1&#45;&gt;Node22</title>
<path fill="none" stroke="midnightblue" d="M1450.35,-197.13C1477.48,-184.62 1512.15,-168.64 1533.05,-159.01"/>
<polygon fill="midnightblue" stroke="midnightblue" points="1448.71,-194.03 1441.09,-201.4 1451.64,-200.39 1448.71,-194.03"/>
</g>
<!-- Node3 -->
<g id="node3" class="node">
<title>Node3</title>
<g id="a_node3"><a xlink:href="m__Do__audio_8h.html" target="_top" xlink:title=" ">
<polygon fill="white" stroke="black" points="997.5,-73 997.5,-92 1137.5,-92 1137.5,-73 997.5,-73"/>
<text text-anchor="middle" x="1067.5" y="-80" font-family="Helvetica,sans-Serif" font-size="10.00">include/m_Do/m_Do_audio.h</text>
</a>
</g>
</g>
<!-- Node2&#45;&gt;Node3 -->
<g id="edge2" class="edge">
<title>Node2&#45;&gt;Node3</title>
<path fill="none" stroke="midnightblue" d="M1350.12,-137.06C1282.15,-124.18 1173.28,-103.55 1112.41,-92.01"/>
<polygon fill="midnightblue" stroke="midnightblue" points="1349.78,-140.56 1360.26,-138.98 1351.08,-133.68 1349.78,-140.56"/>
</g>
<!-- Node4 -->
<g id="node4" class="node">
<title>Node4</title>
<g id="a_node4"><a xlink:href="d__a__alink_8cpp.html" target="_top" xlink:title=" ">
<polygon fill="white" stroke="black" points="1720,-6 1720,-25 1829,-25 1829,-6 1720,-6"/>
<text text-anchor="middle" x="1774.5" y="-13" font-family="Helvetica,sans-Serif" font-size="10.00">src/d/a/d_a_alink.cpp</text>
</a>
</g>
</g>
<!-- Node2&#45;&gt;Node4 -->
<g id="edge15" class="edge">
<title>Node2&#45;&gt;Node4</title>
<path fill="none" stroke="midnightblue" d="M1470.19,-134.06C1470.3,-134.04 1470.4,-134.02 1470.5,-134 1533.29,-122.48 1708.09,-140.75 1755.5,-98 1776.43,-79.13 1776.55,-42.05 1775.38,-25.2"/>
<polygon fill="midnightblue" stroke="midnightblue" points="1469.63,-130.6 1460.5,-135.98 1470.99,-137.47 1469.63,-130.6"/>
</g>
<!-- Node15 -->
<g id="node15" class="node">
<title>Node15</title>
<g id="a_node15"><a xlink:href="Z2AudioMgr_8cpp.html" target="_top" xlink:title=" ">
<polygon fill="white" stroke="black" points="1155.5,-73 1155.5,-92 1313.5,-92 1313.5,-73 1155.5,-73"/>
<text text-anchor="middle" x="1234.5" y="-80" font-family="Helvetica,sans-Serif" font-size="10.00">libs/Z2AudioLib/Z2AudioMgr.cpp</text>
</a>
</g>
</g>
<!-- Node2&#45;&gt;Node15 -->
<g id="edge14" class="edge">
<title>Node2&#45;&gt;Node15</title>
<path fill="none" stroke="midnightblue" d="M1362.53,-130.78C1328.4,-118.18 1284.07,-101.81 1257.53,-92.01"/>
<polygon fill="midnightblue" stroke="midnightblue" points="1361.72,-134.21 1372.31,-134.4 1364.14,-127.65 1361.72,-134.21"/>
</g>
<!-- Node16 -->
<g id="node16" class="node">
<title>Node16</title>
<g id="a_node16"><a xlink:href="d__menu__window_8cpp.html" target="_top" xlink:title=" ">
<polygon fill="white" stroke="black" points="1331,-73 1331,-92 1490,-92 1490,-73 1331,-73"/>
<text text-anchor="middle" x="1410.5" y="-80" font-family="Helvetica,sans-Serif" font-size="10.00">src/d/menu/d_menu_window.cpp</text>
</a>
</g>
</g>
<!-- Node2&#45;&gt;Node16 -->
<g id="edge16" class="edge">
<title>Node2&#45;&gt;Node16</title>
<path fill="none" stroke="midnightblue" d="M1410.5,-124.25C1410.5,-113.02 1410.5,-100.38 1410.5,-92.19"/>
<polygon fill="midnightblue" stroke="midnightblue" points="1407,-124.4 1410.5,-134.4 1414,-124.4 1407,-124.4"/>
</g>
<!-- Node17 -->
<g id="node17" class="node">
<title>Node17</title>
<g id="a_node17"><a xlink:href="d__meter__map_8cpp.html" target="_top" xlink:title=" ">
<polygon fill="white" stroke="black" points="1508.5,-67.5 1508.5,-97.5 1612.5,-97.5 1612.5,-67.5 1508.5,-67.5"/>
<text text-anchor="start" x="1516.5" y="-85.5" font-family="Helvetica,sans-Serif" font-size="10.00">src/d/meter/d_meter</text>
<text text-anchor="middle" x="1560.5" y="-74.5" font-family="Helvetica,sans-Serif" font-size="10.00">_map.cpp</text>
</a>
</g>
</g>
<!-- Node2&#45;&gt;Node17 -->
<g id="edge17" class="edge">
<title>Node2&#45;&gt;Node17</title>
<path fill="none" stroke="midnightblue" d="M1452.25,-130.41C1476.2,-120.03 1505.82,-107.2 1528.02,-97.58"/>
<polygon fill="midnightblue" stroke="midnightblue" points="1450.83,-127.21 1443.05,-134.4 1453.61,-133.63 1450.83,-127.21"/>
</g>
<!-- Node18 -->
<g id="node18" class="node">
<title>Node18</title>
<g id="a_node18"><a xlink:href="d__save_8cpp.html" target="_top" xlink:title=" ">
<polygon fill="white" stroke="black" points="1631,-73 1631,-92 1746,-92 1746,-73 1631,-73"/>
<text text-anchor="middle" x="1688.5" y="-80" font-family="Helvetica,sans-Serif" font-size="10.00">src/d/save/d_save.cpp</text>
</a>
</g>
</g>
<!-- Node2&#45;&gt;Node18 -->
<g id="edge18" class="edge">
<title>Node2&#45;&gt;Node18</title>
<path fill="none" stroke="midnightblue" d="M1470.2,-134.07C1470.3,-134.05 1470.4,-134.02 1470.5,-134 1533.82,-119.01 1607.61,-102.02 1651.06,-92.06"/>
<polygon fill="midnightblue" stroke="midnightblue" points="1469.5,-130.64 1460.58,-136.36 1471.12,-137.45 1469.5,-130.64"/>
</g>
<!-- Node3&#45;&gt;Node4 -->
<g id="edge3" class="edge">
<title>Node3&#45;&gt;Node4</title>
<path fill="none" stroke="midnightblue" d="M1118.63,-71.21C1127.88,-69.6 1137.45,-68.11 1146.5,-67 1396.23,-36.23 1462.52,-67.34 1711.5,-31 1721.5,-29.54 1732.25,-27.32 1741.99,-25.04"/>
<polygon fill="midnightblue" stroke="midnightblue" points="1117.99,-67.77 1108.77,-72.98 1119.23,-74.66 1117.99,-67.77"/>
</g>
<!-- Node5 -->
<g id="node5" class="node">
<title>Node5</title>
<g id="a_node5"><a xlink:href="d__com__inf__game_8cpp.html" target="_top" xlink:title=" ">
<polygon fill="white" stroke="black" points="1171.5,-0.5 1171.5,-30.5 1279.5,-30.5 1279.5,-0.5 1171.5,-0.5"/>
<text text-anchor="start" x="1179.5" y="-18.5" font-family="Helvetica,sans-Serif" font-size="10.00">src/d/com/d_com_inf</text>
<text text-anchor="middle" x="1225.5" y="-7.5" font-family="Helvetica,sans-Serif" font-size="10.00">_game.cpp</text>
</a>
</g>
</g>
<!-- Node3&#45;&gt;Node5 -->
<g id="edge4" class="edge">
<title>Node3&#45;&gt;Node5</title>
<path fill="none" stroke="midnightblue" d="M1097.74,-69.06C1124.51,-58.05 1163.53,-41.99 1191.4,-30.53"/>
<polygon fill="midnightblue" stroke="midnightblue" points="1096.4,-65.83 1088.48,-72.87 1099.06,-72.3 1096.4,-65.83"/>
</g>
<!-- Node6 -->
<g id="node6" class="node">
<title>Node6</title>
<g id="a_node6"><a xlink:href="d__kankyo_8cpp.html" target="_top" xlink:title=" ">
<polygon fill="white" stroke="black" points="287.5,-6 287.5,-25 421.5,-25 421.5,-6 287.5,-6"/>
<text text-anchor="middle" x="354.5" y="-13" font-family="Helvetica,sans-Serif" font-size="10.00">src/d/kankyo/d_kankyo.cpp</text>
</a>
</g>
</g>
<!-- Node3&#45;&gt;Node6 -->
<g id="edge5" class="edge">
<title>Node3&#45;&gt;Node6</title>
<path fill="none" stroke="midnightblue" d="M987.19,-77.96C866.1,-71.98 629.74,-57.82 430.5,-31 418.79,-29.42 406.14,-27.22 394.6,-25"/>
<polygon fill="midnightblue" stroke="midnightblue" points="987.32,-81.47 997.48,-78.46 987.67,-74.48 987.32,-81.47"/>
</g>
<!-- Node7 -->
<g id="node7" class="node">
<title>Node7</title>
<g id="a_node7"><a xlink:href="d__kankyo__wether_8cpp.html" target="_top" xlink:title=" ">
<polygon fill="white" stroke="black" points="439.5,-0.5 439.5,-30.5 555.5,-30.5 555.5,-0.5 439.5,-0.5"/>
<text text-anchor="start" x="447.5" y="-18.5" font-family="Helvetica,sans-Serif" font-size="10.00">src/d/kankyo/d_kankyo</text>
<text text-anchor="middle" x="497.5" y="-7.5" font-family="Helvetica,sans-Serif" font-size="10.00">_wether.cpp</text>
</a>
</g>
</g>
<!-- Node3&#45;&gt;Node7 -->
<g id="edge6" class="edge">
<title>Node3&#45;&gt;Node7</title>
<path fill="none" stroke="midnightblue" d="M987.21,-76.25C887.62,-69.1 712.85,-54.42 564.5,-31 561.56,-30.54 558.56,-30.02 555.53,-29.48"/>
<polygon fill="midnightblue" stroke="midnightblue" points="986.98,-79.74 997.2,-76.96 987.47,-72.76 986.98,-79.74"/>
</g>
<!-- Node8 -->
<g id="node8" class="node">
<title>Node8</title>
<g id="a_node8"><a xlink:href="d__meter2_8cpp.html" target="_top" xlink:title=" ">
<polygon fill="white" stroke="black" points="1297.5,-6 1297.5,-25 1425.5,-25 1425.5,-6 1297.5,-6"/>
<text text-anchor="middle" x="1361.5" y="-13" font-family="Helvetica,sans-Serif" font-size="10.00">src/d/meter/d_meter2.cpp</text>
</a>
</g>
</g>
<!-- Node3&#45;&gt;Node8 -->
<g id="edge7" class="edge">
<title>Node3&#45;&gt;Node8</title>
<path fill="none" stroke="midnightblue" d="M1116.24,-70.72C1174.13,-57.92 1269.53,-36.83 1322.68,-25.08"/>
<polygon fill="midnightblue" stroke="midnightblue" points="1115.25,-67.36 1106.24,-72.94 1116.76,-74.19 1115.25,-67.36"/>
</g>
<!-- Node9 -->
<g id="node9" class="node">
<title>Node9</title>
<g id="a_node9"><a xlink:href="d__msg__flow_8cpp.html" target="_top" xlink:title=" ">
<polygon fill="white" stroke="black" points="1444,-6 1444,-25 1577,-25 1577,-6 1444,-6"/>
<text text-anchor="middle" x="1510.5" y="-13" font-family="Helvetica,sans-Serif" font-size="10.00">src/d/msg/d_msg_flow.cpp</text>
</a>
</g>
</g>
<!-- Node3&#45;&gt;Node9 -->
<g id="edge8" class="edge">
<title>Node3&#45;&gt;Node9</title>
<path fill="none" stroke="midnightblue" d="M1121.4,-71.18C1129.79,-69.7 1138.37,-68.25 1146.5,-67 1273.99,-47.35 1307.08,-51.1 1434.5,-31 1445.51,-29.26 1457.37,-27.13 1468.37,-25.04"/>
<polygon fill="midnightblue" stroke="midnightblue" points="1120.52,-67.78 1111.3,-73 1121.76,-74.67 1120.52,-67.78"/>
</g>
<!-- Node10 -->
<g id="node10" class="node">
<title>Node10</title>
<g id="a_node10"><a xlink:href="d__s__logo_8cpp.html" target="_top" xlink:title=" ">
<polygon fill="white" stroke="black" points="1595,-6 1595,-25 1702,-25 1702,-6 1595,-6"/>
<text text-anchor="middle" x="1648.5" y="-13" font-family="Helvetica,sans-Serif" font-size="10.00">src/d/s/d_s_logo.cpp</text>
</a>
</g>
</g>
<!-- Node3&#45;&gt;Node10 -->
<g id="edge9" class="edge">
<title>Node3&#45;&gt;Node10</title>
<path fill="none" stroke="midnightblue" d="M1119.56,-71.18C1128.52,-69.63 1137.76,-68.16 1146.5,-67 1341.01,-41.26 1392.66,-61.42 1586.5,-31 1596.22,-29.47 1606.67,-27.26 1616.18,-25.01"/>
<polygon fill="midnightblue" stroke="midnightblue" points="1118.83,-67.76 1109.61,-72.97 1120.07,-74.65 1118.83,-67.76"/>
</g>
<!-- Node11 -->
<g id="node11" class="node">
<title>Node11</title>
<g id="a_node11"><a xlink:href="d__s__play_8cpp.html" target="_top" xlink:title=" ">
<polygon fill="white" stroke="black" points="573.5,-6 573.5,-25 679.5,-25 679.5,-6 573.5,-6"/>
<text text-anchor="middle" x="626.5" y="-13" font-family="Helvetica,sans-Serif" font-size="10.00">src/d/s/d_s_play.cpp</text>
</a>
</g>
</g>
<!-- Node3&#45;&gt;Node11 -->
<g id="edge10" class="edge">
<title>Node3&#45;&gt;Node11</title>
<path fill="none" stroke="midnightblue" d="M987.22,-73.1C910.26,-64.5 790.98,-49.77 688.5,-31 679.26,-29.31 669.32,-27.14 660.16,-25"/>
<polygon fill="midnightblue" stroke="midnightblue" points="987,-76.6 997.33,-74.22 987.77,-69.64 987,-76.6"/>
</g>
<!-- Node12 -->
<g id="node12" class="node">
<title>Node12</title>
<g id="a_node12"><a xlink:href="d__shop__system_8cpp.html" target="_top" xlink:title=" ">
<polygon fill="white" stroke="black" points="697.5,-6 697.5,-25 849.5,-25 849.5,-6 697.5,-6"/>
<text text-anchor="middle" x="773.5" y="-13" font-family="Helvetica,sans-Serif" font-size="10.00">src/d/shop/d_shop_system.cpp</text>
</a>
</g>
</g>
<!-- Node3&#45;&gt;Node12 -->
<g id="edge11" class="edge">
<title>Node3&#45;&gt;Node12</title>
<path fill="none" stroke="midnightblue" d="M1018.76,-70.72C960.87,-57.92 865.47,-36.83 812.32,-25.08"/>
<polygon fill="midnightblue" stroke="midnightblue" points="1018.24,-74.19 1028.76,-72.94 1019.75,-67.36 1018.24,-74.19"/>
</g>
<!-- Node13 -->
<g id="node13" class="node">
<title>Node13</title>
<g id="a_node13"><a xlink:href="f__pc__manager_8cpp.html" target="_top" xlink:title=" ">
<polygon fill="white" stroke="black" points="867.5,-6 867.5,-25 1001.5,-25 1001.5,-6 867.5,-6"/>
<text text-anchor="middle" x="934.5" y="-13" font-family="Helvetica,sans-Serif" font-size="10.00">src/f_pc/f_pc_manager.cpp</text>
</a>
</g>
</g>
<!-- Node3&#45;&gt;Node13 -->
<g id="edge12" class="edge">
<title>Node3&#45;&gt;Node13</title>
<path fill="none" stroke="midnightblue" d="M1040.78,-68.44C1014.44,-55.57 974.93,-36.26 952.23,-25.17"/>
<polygon fill="midnightblue" stroke="midnightblue" points="1039.32,-71.62 1049.84,-72.87 1042.39,-65.33 1039.32,-71.62"/>
</g>
<!-- Node14 -->
<g id="node14" class="node">
<title>Node14</title>
<g id="a_node14"><a xlink:href="m__Do__audio_8cpp.html" target="_top" xlink:title=" ">
<polygon fill="white" stroke="black" points="1019.5,-6 1019.5,-25 1153.5,-25 1153.5,-6 1019.5,-6"/>
<text text-anchor="middle" x="1086.5" y="-13" font-family="Helvetica,sans-Serif" font-size="10.00">src/m_Do/m_Do_audio.cpp</text>
</a>
</g>
</g>
<!-- Node3&#45;&gt;Node14 -->
<g id="edge13" class="edge">
<title>Node3&#45;&gt;Node14</title>
<path fill="none" stroke="midnightblue" d="M1072.93,-62.91C1076.56,-50.49 1081.18,-34.72 1083.98,-25.13"/>
<polygon fill="midnightblue" stroke="midnightblue" points="1069.51,-62.15 1070.06,-72.73 1076.23,-64.12 1069.51,-62.15"/>
</g>
<!-- Node19&#45;&gt;Node6 -->
<g id="edge22" class="edge">
<title>Node19&#45;&gt;Node6</title>
<path fill="none" stroke="midnightblue" d="M354.5,-57.25C354.5,-46.02 354.5,-33.38 354.5,-25.19"/>
<polygon fill="midnightblue" stroke="midnightblue" points="351,-57.4 354.5,-67.4 358,-57.4 351,-57.4"/>
</g>
<!-- Node19&#45;&gt;Node7 -->
<g id="edge23" class="edge">
<title>Node19&#45;&gt;Node7</title>
<path fill="none" stroke="midnightblue" d="M394.91,-63.13C417.63,-52.8 445.56,-40.11 466.53,-30.58"/>
<polygon fill="midnightblue" stroke="midnightblue" points="393.18,-60.07 385.53,-67.4 396.08,-66.44 393.18,-60.07"/>
</g>
<!-- Node20 -->
<g id="node20" class="node">
<title>Node20</title>
<g id="a_node20"><a xlink:href="Z2EnvSeMgr_8cpp.html" target="_top" xlink:title=" ">
<polygon fill="white" stroke="black" points="0,-6 0,-25 161,-25 161,-6 0,-6"/>
<text text-anchor="middle" x="80.5" y="-13" font-family="Helvetica,sans-Serif" font-size="10.00">libs/Z2AudioLib/Z2EnvSeMgr.cpp</text>
</a>
</g>
</g>
<!-- Node19&#45;&gt;Node20 -->
<g id="edge20" class="edge">
<title>Node19&#45;&gt;Node20</title>
<path fill="none" stroke="midnightblue" d="M294.38,-67.24C239.99,-54.33 161.69,-35.76 116.46,-25.03"/>
<polygon fill="midnightblue" stroke="midnightblue" points="293.71,-70.68 304.24,-69.58 295.32,-63.86 293.71,-70.68"/>
</g>
<!-- Node21 -->
<g id="node21" class="node">
<title>Node21</title>
<g id="a_node21"><a xlink:href="d__kyeff_8cpp.html" target="_top" xlink:title=" ">
<polygon fill="white" stroke="black" points="179.5,-6 179.5,-25 269.5,-25 269.5,-6 179.5,-6"/>
<text text-anchor="middle" x="224.5" y="-13" font-family="Helvetica,sans-Serif" font-size="10.00">src/d/d_kyeff.cpp</text>
</a>
</g>
</g>
<!-- Node19&#45;&gt;Node21 -->
<g id="edge21" class="edge">
<title>Node19&#45;&gt;Node21</title>
<path fill="none" stroke="midnightblue" d="M317.11,-62.8C292.18,-50.34 260.61,-34.56 241.51,-25.01"/>
<polygon fill="midnightblue" stroke="midnightblue" points="315.78,-66.05 326.29,-67.4 318.91,-59.79 315.78,-66.05"/>
</g>
</g>
</svg>
