<?xml version="1.0" encoding="UTF-8" standalone="no"?>
<!DOCTYPE svg PUBLIC "-//W3C//DTD SVG 1.1//EN"
 "http://www.w3.org/Graphics/SVG/1.1/DTD/svg11.dtd">
<!-- Generated by graphviz version 7.0.4 (20221203.1631)
 -->
<!-- Title: libs/Z2AudioLib/Z2SoundStarter.cpp Pages: 1 -->
<!--zoomable 478 -->
<svg id="main" version="1.1" xmlns="http://www.w3.org/2000/svg" xmlns:xlink="http://www.w3.org/1999/xlink" xml:space="preserve" onload="init(evt)">
<style type="text/css"><![CDATA[
.edge:hover path { stroke: red; }
.edge:hover polygon { stroke: red; fill: red; }
]]></style>
<script type="text/javascript"><![CDATA[
var edges = document.getElementsByTagName('g');
if (edges && edges.length) {
  for (var i=0;i<edges.length;i++) {
    if (edges[i].id.substr(0,4)=='edge') {
      edges[i].setAttribute('class','edge');
    }
  }
}
]]></script>
        <defs>
                <circle id="rim" cx="0" cy="0" r="7"/>
                <circle id="rim2" cx="0" cy="0" r="3.5"/>
                <g id="zoomPlus">
                        <use xlink:href="#rim" fill="#404040">
                                <set attributeName="fill" to="#808080" begin="zoomplus.mouseover" end="zoomplus.mouseout"/>
                        </use>
                        <path d="M-4,0h8M0,-4v8" fill="none" stroke="white" stroke-width="1.5" pointer-events="none"/>
                </g>
                <g id="zoomMin">
                        <use xlink:href="#rim" fill="#404040">
                                <set attributeName="fill" to="#808080" begin="zoomminus.mouseover" end="zoomminus.mouseout"/>
                        </use>
                        <path d="M-4,0h8" fill="none" stroke="white" stroke-width="1.5" pointer-events="none"/>
                </g>
                <g id="dirArrow">
                        <path fill="none" stroke="white" stroke-width="1.5" d="M0,-3.0v7 M-2.5,-0.5L0,-3.0L2.5,-0.5"/>
                </g>
               <g id="resetDef">
                       <use xlink:href="#rim2" fill="#404040">
                               <set attributeName="fill" to="#808080" begin="reset.mouseover" end="reset.mouseout"/>
                       </use>
               </g>
        </defs>

<script type="text/javascript">
var viewWidth = 2064;
var viewHeight = 478;
var sectionId = 'dynsection-0';
</script>
<script xlink:href="svgpan.js"/>
<svg id="graph" class="graph">
<g id="viewport">
<title>libs/Z2AudioLib/Z2SoundStarter.cpp</title>
<!-- Node1 -->
<g id="node1" class="node">
<title>Node1</title>
<g id="a_node1"><a xlink:title=" ">
<polygon fill="#999999" stroke="#666666" points="1303.5,-470 1130.5,-470 1130.5,-451 1303.5,-451 1303.5,-470"/>
<text text-anchor="middle" x="1217" y="-458" font-family="Helvetica,sans-Serif" font-size="10.00">libs/Z2AudioLib/Z2SoundStarter.cpp</text>
</a>
</g>
</g>
<!-- Node2 -->
<g id="node2" class="node">
<title>Node2</title>
<g id="a_node2"><a xlink:href="Z2SoundStarter_8h.html" target="_top" xlink:title=" ">
<polygon fill="white" stroke="#666666" points="461.5,-404 316.5,-404 316.5,-385 461.5,-385 461.5,-404"/>
<text text-anchor="middle" x="389" y="-392" font-family="Helvetica,sans-Serif" font-size="10.00">Z2AudioLib/Z2SoundStarter.h</text>
</a>
</g>
</g>
<!-- Node1&#45;&gt;Node2 -->
<g id="edge1" class="edge">
<title>Node1&#45;&gt;Node2</title>
<path fill="none" stroke="#63b8ff" d="M1130.34,-452.8C970.37,-440.44 630.65,-414.18 472.83,-401.98"/>
<polygon fill="#63b8ff" stroke="#63b8ff" points="473.53,-398.52 463.29,-401.24 472.99,-405.5 473.53,-398.52"/>
</g>
<!-- Node6 -->
<g id="node6" class="node">
<title>Node6</title>
<g id="a_node6"><a xlink:href="types_8h.html" target="_top" xlink:title=" ">
<polygon fill="white" stroke="#666666" points="533.5,-19 452.5,-19 452.5,0 533.5,0 533.5,-19"/>
<text text-anchor="middle" x="493" y="-7" font-family="Helvetica,sans-Serif" font-size="10.00">dolphin/types.h</text>
</a>
</g>
</g>
<!-- Node1&#45;&gt;Node6 -->
<g id="edge30" class="edge">
<title>Node1&#45;&gt;Node6</title>
<path fill="none" stroke="#63b8ff" d="M1130.17,-459.32C1040.75,-457.26 909.47,-448.4 873,-415 842.46,-387.03 853,-365.41 853,-324 853,-324 853,-324 853,-135 853,-87.75 824.41,-77.74 783,-55 743,-33.04 616.95,-20.02 544.88,-14.18"/>
<polygon fill="#63b8ff" stroke="#63b8ff" points="545.55,-10.73 535.31,-13.43 545,-17.71 545.55,-10.73"/>
</g>
<!-- Node15 -->
<g id="node15" class="node">
<title>Node15</title>
<g id="a_node15"><a xlink:href="dol2asm_8h.html" target="_top" xlink:title=" ">
<polygon fill="white" stroke="#666666" points="942.5,-404 881.5,-404 881.5,-385 942.5,-385 942.5,-404"/>
<text text-anchor="middle" x="912" y="-392" font-family="Helvetica,sans-Serif" font-size="10.00">dol2asm.h</text>
</a>
</g>
</g>
<!-- Node1&#45;&gt;Node15 -->
<g id="edge29" class="edge">
<title>Node1&#45;&gt;Node15</title>
<path fill="none" stroke="#63b8ff" d="M1130.18,-451.29C1077.71,-444.77 1009.98,-433.57 952,-415 947.28,-413.49 942.42,-411.51 937.78,-409.4"/>
<polygon fill="#63b8ff" stroke="#63b8ff" points="939.4,-406.3 928.88,-405.03 936.32,-412.58 939.4,-406.3"/>
</g>
<!-- Node16 -->
<g id="node16" class="node">
<title>Node16</title>
<g id="a_node16"><a xlink:title=" ">
<polygon fill="#e0e0e0" stroke="#999999" points="1119.5,-409.5 960.5,-409.5 960.5,-379.5 1119.5,-379.5 1119.5,-409.5"/>
<text text-anchor="start" x="968.5" y="-397.5" font-family="Helvetica,sans-Serif" font-size="10.00">asm/Z2AudioLib/Z2SoundStarter</text>
<text text-anchor="middle" x="1040" y="-386.5" font-family="Helvetica,sans-Serif" font-size="10.00">/__ct__14Z2SoundStarterFb.s</text>
</a>
</g>
</g>
<!-- Node1&#45;&gt;Node16 -->
<g id="edge31" class="edge">
<title>Node1&#45;&gt;Node16</title>
<path fill="none" stroke="#63b8ff" d="M1192.39,-450.6C1166.16,-441.12 1123.9,-425.84 1090.53,-413.77"/>
<polygon fill="#63b8ff" stroke="#63b8ff" points="1092.06,-410.6 1081.46,-410.49 1089.68,-417.18 1092.06,-410.6"/>
</g>
<!-- Node17 -->
<g id="node17" class="node">
<title>Node17</title>
<g id="a_node17"><a xlink:title=" ">
<polygon fill="#e0e0e0" stroke="#999999" points="1296.5,-409.5 1137.5,-409.5 1137.5,-379.5 1296.5,-379.5 1296.5,-409.5"/>
<text text-anchor="start" x="1145.5" y="-397.5" font-family="Helvetica,sans-Serif" font-size="10.00">asm/Z2AudioLib/Z2SoundStarter</text>
<text text-anchor="middle" x="1217" y="-386.5" font-family="Helvetica,sans-Serif" font-size="10.00">/func_802AABF4.s</text>
</a>
</g>
</g>
<!-- Node1&#45;&gt;Node17 -->
<g id="edge32" class="edge">
<title>Node1&#45;&gt;Node17</title>
<path fill="none" stroke="#63b8ff" d="M1217,-450.6C1217,-442.91 1217,-431.42 1217,-420.92"/>
<polygon fill="#63b8ff" stroke="#63b8ff" points="1220.5,-421.25 1217,-411.25 1213.5,-421.25 1220.5,-421.25"/>
</g>
<!-- Node18 -->
<g id="node18" class="node">
<title>Node18</title>
<g id="a_node18"><a xlink:title=" ">
<polygon fill="#e0e0e0" stroke="#999999" points="1473.5,-409.5 1314.5,-409.5 1314.5,-379.5 1473.5,-379.5 1473.5,-409.5"/>
<text text-anchor="start" x="1322.5" y="-397.5" font-family="Helvetica,sans-Serif" font-size="10.00">asm/Z2AudioLib/Z2SoundStarter</text>
<text text-anchor="middle" x="1394" y="-386.5" font-family="Helvetica,sans-Serif" font-size="10.00">/func_802AAC3C.s</text>
</a>
</g>
</g>
<!-- Node1&#45;&gt;Node18 -->
<g id="edge33" class="edge">
<title>Node1&#45;&gt;Node18</title>
<path fill="none" stroke="#63b8ff" d="M1241.61,-450.6C1267.84,-441.12 1310.1,-425.84 1343.47,-413.77"/>
<polygon fill="#63b8ff" stroke="#63b8ff" points="1344.32,-417.18 1352.54,-410.49 1341.94,-410.6 1344.32,-417.18"/>
</g>
<!-- Node19 -->
<g id="node19" class="node">
<title>Node19</title>
<g id="a_node19"><a xlink:title=" ">
<polygon fill="#e0e0e0" stroke="#999999" points="1676,-415 1492,-415 1492,-374 1676,-374 1676,-415"/>
<text text-anchor="start" x="1500" y="-403" font-family="Helvetica,sans-Serif" font-size="10.00">asm/Z2AudioLib/Z2SoundStarter</text>
<text text-anchor="start" x="1500" y="-392" font-family="Helvetica,sans-Serif" font-size="10.00">/setPortData__14Z2SoundStarterFP14</text>
<text text-anchor="middle" x="1584" y="-381" font-family="Helvetica,sans-Serif" font-size="10.00">JAISoundHandleUlUsSc.s</text>
</a>
</g>
</g>
<!-- Node1&#45;&gt;Node19 -->
<g id="edge34" class="edge">
<title>Node1&#45;&gt;Node19</title>
<path fill="none" stroke="#63b8ff" d="M1273.12,-450.53C1324.58,-442.21 1403.2,-429.26 1480.63,-415.41"/>
<polygon fill="#63b8ff" stroke="#63b8ff" points="1480.84,-418.93 1490.06,-413.71 1479.6,-412.04 1480.84,-418.93"/>
</g>
<!-- Node20 -->
<g id="node20" class="node">
<title>Node20</title>
<g id="a_node20"><a xlink:title=" ">
<polygon fill="#e0e0e0" stroke="#999999" points="1878,-415 1694,-415 1694,-374 1878,-374 1878,-415"/>
<text text-anchor="start" x="1702" y="-403" font-family="Helvetica,sans-Serif" font-size="10.00">asm/Z2AudioLib/Z2SoundStarter</text>
<text text-anchor="start" x="1702" y="-392" font-family="Helvetica,sans-Serif" font-size="10.00">/getPortData__14Z2SoundStarterFP14</text>
<text text-anchor="middle" x="1786" y="-381" font-family="Helvetica,sans-Serif" font-size="10.00">JAISoundHandleUlSc.s</text>
</a>
</g>
</g>
<!-- Node1&#45;&gt;Node20 -->
<g id="edge35" class="edge">
<title>Node1&#45;&gt;Node20</title>
<path fill="none" stroke="#63b8ff" d="M1303.98,-453.74C1395.69,-447.09 1544.61,-434.69 1682.42,-415.3"/>
<polygon fill="#63b8ff" stroke="#63b8ff" points="1682.69,-418.8 1692.09,-413.92 1681.7,-411.87 1682.69,-418.8"/>
</g>
<!-- Node21 -->
<g id="node21" class="node">
<title>Node21</title>
<g id="a_node21"><a xlink:title=" ">
<polygon fill="#e0e0e0" stroke="#999999" points="2055.5,-409.5 1896.5,-409.5 1896.5,-379.5 2055.5,-379.5 2055.5,-409.5"/>
<text text-anchor="start" x="1904.5" y="-397.5" font-family="Helvetica,sans-Serif" font-size="10.00">asm/Z2AudioLib/Z2SoundStarter</text>
<text text-anchor="middle" x="1976" y="-386.5" font-family="Helvetica,sans-Serif" font-size="10.00">/__dt__14Z2SoundStarterFv.s</text>
</a>
</g>
</g>
<!-- Node1&#45;&gt;Node21 -->
<g id="edge36" class="edge">
<title>Node1&#45;&gt;Node21</title>
<path fill="none" stroke="#63b8ff" d="M1303.89,-457.87C1432.07,-454.52 1679.1,-444.51 1887,-415 1892.87,-414.17 1898.93,-413.16 1905,-412.05"/>
<polygon fill="#63b8ff" stroke="#63b8ff" points="1905.26,-415.56 1914.41,-410.23 1903.93,-408.69 1905.26,-415.56"/>
</g>
<!-- Node3 -->
<g id="node3" class="node">
<title>Node3</title>
<g id="a_node3"><a xlink:href="JAISound_8h.html" target="_top" xlink:title=" ">
<polygon fill="white" stroke="#666666" points="511,-272 365,-272 365,-253 511,-253 511,-272"/>
<text text-anchor="middle" x="438" y="-260" font-family="Helvetica,sans-Serif" font-size="10.00">JSystem/JAudio2/JAISound.h</text>
</a>
</g>
</g>
<!-- Node2&#45;&gt;Node3 -->
<g id="edge2" class="edge">
<title>Node2&#45;&gt;Node3</title>
<path fill="none" stroke="#63b8ff" d="M394.59,-384.79C401.22,-374.13 412.22,-355.34 419,-338 425.99,-320.13 431.12,-298.84 434.27,-283.6"/>
<polygon fill="#63b8ff" stroke="#63b8ff" points="437.68,-284.41 436.17,-273.92 430.81,-283.06 437.68,-284.41"/>
</g>
<!-- Node2&#45;&gt;Node6 -->
<g id="edge28" class="edge">
<title>Node2&#45;&gt;Node6</title>
<path fill="none" stroke="#63b8ff" d="M317.65,-384.51C205.35,-368.34 0,-329.72 0,-263.5 0,-263.5 0,-263.5 0,-135 0,-96.19 3.59,-77.79 35,-55 67.28,-31.58 327.86,-17.62 440.94,-12.61"/>
<polygon fill="#63b8ff" stroke="#63b8ff" points="441.03,-16.11 450.87,-12.18 440.72,-9.12 441.03,-16.11"/>
</g>
<!-- Node14 -->
<g id="node14" class="node">
<title>Node14</title>
<g id="a_node14"><a xlink:href="JAISoundStarter_8h.html" target="_top" xlink:title=" ">
<polygon fill="white" stroke="#666666" points="409.5,-338 270.5,-338 270.5,-308 409.5,-308 409.5,-338"/>
<text text-anchor="start" x="278.5" y="-326" font-family="Helvetica,sans-Serif" font-size="10.00">JSystem/JAudio2/JAISound</text>
<text text-anchor="middle" x="340" y="-315" font-family="Helvetica,sans-Serif" font-size="10.00">Starter.h</text>
</a>
</g>
</g>
<!-- Node2&#45;&gt;Node14 -->
<g id="edge25" class="edge">
<title>Node2&#45;&gt;Node14</title>
<path fill="none" stroke="#63b8ff" d="M382.79,-384.7C376.23,-375.38 365.59,-360.29 356.56,-347.49"/>
<polygon fill="#63b8ff" stroke="#63b8ff" points="359.56,-345.67 350.94,-339.51 353.84,-349.7 359.56,-345.67"/>
</g>
<!-- Node4 -->
<g id="node4" class="node">
<title>Node4</title>
<g id="a_node4"><a xlink:href="JAIAudience_8h.html" target="_top" xlink:title=" ">
<polygon fill="white" stroke="#666666" points="625.5,-211.5 466.5,-211.5 466.5,-192.5 625.5,-192.5 625.5,-211.5"/>
<text text-anchor="middle" x="546" y="-199.5" font-family="Helvetica,sans-Serif" font-size="10.00">JSystem/JAudio2/JAIAudience.h</text>
</a>
</g>
</g>
<!-- Node3&#45;&gt;Node4 -->
<g id="edge3" class="edge">
<title>Node3&#45;&gt;Node4</title>
<path fill="none" stroke="#63b8ff" d="M449.39,-252.62C464.85,-243.17 492.4,-228.09 514.23,-217.03"/>
<polygon fill="#63b8ff" stroke="#63b8ff" points="515.66,-220.23 523.06,-212.64 512.55,-213.96 515.66,-220.23"/>
</g>
<!-- Node3&#45;&gt;Node6 -->
<g id="edge22" class="edge">
<title>Node3&#45;&gt;Node6</title>
<path fill="none" stroke="#63b8ff" d="M511.28,-253.05C557.67,-246.34 618.41,-235.02 670,-217 729.68,-196.16 763.27,-205.09 796,-151 854.82,-53.79 646.08,-23.08 544.91,-14.02"/>
<polygon fill="#63b8ff" stroke="#63b8ff" points="545.48,-10.56 535.22,-13.19 544.89,-17.53 545.48,-10.56"/>
</g>
<!-- Node7 -->
<g id="node7" class="node">
<title>Node7</title>
<g id="a_node7"><a xlink:href="JGeometry_8h.html" target="_top" xlink:title=" ">
<polygon fill="white" stroke="#666666" points="786.5,-145.5 673.5,-145.5 673.5,-126.5 786.5,-126.5 786.5,-145.5"/>
<text text-anchor="middle" x="730" y="-133.5" font-family="Helvetica,sans-Serif" font-size="10.00">JSystem/JGeometry.h</text>
</a>
</g>
</g>
<!-- Node3&#45;&gt;Node7 -->
<g id="edge21" class="edge">
<title>Node3&#45;&gt;Node7</title>
<path fill="none" stroke="#63b8ff" d="M511.46,-253.41C549.77,-247.12 596.53,-236.11 635,-217 666.88,-201.16 697.16,-172.48 714.63,-154.1"/>
<polygon fill="#63b8ff" stroke="#63b8ff" points="717.08,-156.61 721.31,-146.9 711.95,-151.85 717.08,-156.61"/>
</g>
<!-- Node9 -->
<g id="node9" class="node">
<title>Node9</title>
<g id="a_node9"><a xlink:href="JAISoundHandles_8h.html" target="_top" xlink:title=" ">
<polygon fill="white" stroke="#666666" points="326.5,-217 187.5,-217 187.5,-187 326.5,-187 326.5,-217"/>
<text text-anchor="start" x="195.5" y="-205" font-family="Helvetica,sans-Serif" font-size="10.00">JSystem/JAudio2/JAISound</text>
<text text-anchor="middle" x="257" y="-194" font-family="Helvetica,sans-Serif" font-size="10.00">Handles.h</text>
</a>
</g>
</g>
<!-- Node3&#45;&gt;Node9 -->
<g id="edge12" class="edge">
<title>Node3&#45;&gt;Node9</title>
<path fill="none" stroke="#63b8ff" d="M405.5,-252.62C377.91,-244.27 338.06,-231.52 306.53,-221.04"/>
<polygon fill="#63b8ff" stroke="#63b8ff" points="307.79,-217.77 297.2,-217.92 305.57,-224.41 307.79,-217.77"/>
</g>
<!-- Node11 -->
<g id="node11" class="node">
<title>Node11</title>
<g id="a_node11"><a xlink:href="JAISoundParams_8h.html" target="_top" xlink:title=" ">
<polygon fill="white" stroke="#666666" points="409.5,-151 270.5,-151 270.5,-121 409.5,-121 409.5,-151"/>
<text text-anchor="start" x="278.5" y="-139" font-family="Helvetica,sans-Serif" font-size="10.00">JSystem/JAudio2/JAISound</text>
<text text-anchor="middle" x="340" y="-128" font-family="Helvetica,sans-Serif" font-size="10.00">Params.h</text>
</a>
</g>
</g>
<!-- Node3&#45;&gt;Node11 -->
<g id="edge17" class="edge">
<title>Node3&#45;&gt;Node11</title>
<path fill="none" stroke="#63b8ff" d="M430.95,-252.55C415.89,-233.41 380.15,-188.01 358.23,-160.16"/>
<polygon fill="#63b8ff" stroke="#63b8ff" points="361.24,-158.33 352.31,-152.63 355.74,-162.66 361.24,-158.33"/>
</g>
<!-- Node13 -->
<g id="node13" class="node">
<title>Node13</title>
<g id="a_node13"><a xlink:href="global_8h.html" target="_top" xlink:title=" ">
<polygon fill="white" stroke="#666666" points="518,-79.5 468,-79.5 468,-60.5 518,-60.5 518,-79.5"/>
<text text-anchor="middle" x="493" y="-67.5" font-family="Helvetica,sans-Serif" font-size="10.00">global.h</text>
</a>
</g>
</g>
<!-- Node3&#45;&gt;Node13 -->
<g id="edge23" class="edge">
<title>Node3&#45;&gt;Node13</title>
<path fill="none" stroke="#63b8ff" d="M440.25,-252.76C443.87,-238.82 451.25,-210.7 458,-187 467.68,-153.05 479.71,-113.75 486.85,-90.72"/>
<polygon fill="#63b8ff" stroke="#63b8ff" points="490.11,-92.03 489.73,-81.44 483.42,-89.95 490.11,-92.03"/>
</g>
<!-- Node4&#45;&gt;Node3 -->
<g id="edge6" class="edge">
<title>Node4&#45;&gt;Node3</title>
<path fill="none" stroke="#63b8ff" d="M534.47,-211.97C518.94,-221.45 491.37,-236.53 469.57,-247.57"/>
<polygon fill="#63b8ff" stroke="#63b8ff" points="468.17,-244.36 460.77,-251.94 471.28,-250.63 468.17,-244.36"/>
</g>
<!-- Node5 -->
<g id="node5" class="node">
<title>Node5</title>
<g id="a_node5"><a xlink:href="JAIAudible_8h.html" target="_top" xlink:title=" ">
<polygon fill="white" stroke="#666666" points="655.5,-145.5 504.5,-145.5 504.5,-126.5 655.5,-126.5 655.5,-145.5"/>
<text text-anchor="middle" x="580" y="-133.5" font-family="Helvetica,sans-Serif" font-size="10.00">JSystem/JAudio2/JAIAudible.h</text>
</a>
</g>
</g>
<!-- Node4&#45;&gt;Node5 -->
<g id="edge4" class="edge">
<title>Node4&#45;&gt;Node5</title>
<path fill="none" stroke="#63b8ff" d="M550.73,-192.1C555.7,-182.74 563.67,-167.73 570.05,-155.74"/>
<polygon fill="#63b8ff" stroke="#63b8ff" points="573,-157.63 574.6,-147.16 566.82,-154.35 573,-157.63"/>
</g>
<!-- Node4&#45;&gt;Node6 -->
<g id="edge11" class="edge">
<title>Node4&#45;&gt;Node6</title>
<path fill="none" stroke="#63b8ff" d="M532.43,-192.17C520.29,-183.39 503.33,-168.69 496,-151 490.9,-138.68 491.36,-133.5 496,-121 503.35,-101.21 519.65,-104.79 527,-85 531.64,-72.5 531.27,-67.63 527,-55 523.59,-44.92 516.88,-35.32 510.31,-27.64"/>
<polygon fill="#63b8ff" stroke="#63b8ff" points="512.99,-25.38 503.63,-20.42 507.86,-30.14 512.99,-25.38"/>
</g>
<!-- Node4&#45;&gt;Node7 -->
<g id="edge7" class="edge">
<title>Node4&#45;&gt;Node7</title>
<path fill="none" stroke="#63b8ff" d="M571.58,-192.1C603.35,-181.05 657.75,-162.13 693.79,-149.6"/>
<polygon fill="#63b8ff" stroke="#63b8ff" points="694.61,-153.01 702.91,-146.42 692.31,-146.4 694.61,-153.01"/>
</g>
<!-- Node5&#45;&gt;Node6 -->
<g id="edge5" class="edge">
<title>Node5&#45;&gt;Node6</title>
<path fill="none" stroke="#63b8ff" d="M579.83,-126.22C579.11,-110.53 575.69,-77.22 560,-55 550.98,-42.22 537.02,-32.1 524.17,-24.76"/>
<polygon fill="#63b8ff" stroke="#63b8ff" points="526.03,-21.79 515.56,-20.19 522.75,-27.97 526.03,-21.79"/>
</g>
<!-- Node7&#45;&gt;Node6 -->
<g id="edge10" class="edge">
<title>Node7&#45;&gt;Node6</title>
<path fill="none" stroke="#63b8ff" d="M730.98,-126.1C732.25,-109.59 732.37,-74.18 713,-55 689.75,-31.98 602.34,-20.01 544.94,-14.5"/>
<polygon fill="#63b8ff" stroke="#63b8ff" points="545.32,-11.02 535.05,-13.59 544.68,-17.99 545.32,-11.02"/>
</g>
<!-- Node8 -->
<g id="node8" class="node">
<title>Node8</title>
<g id="a_node8"><a xlink:href="vec_8h.html" target="_top" xlink:title=" ">
<polygon fill="white" stroke="#666666" points="704,-79.5 612,-79.5 612,-60.5 704,-60.5 704,-79.5"/>
<text text-anchor="middle" x="658" y="-67.5" font-family="Helvetica,sans-Serif" font-size="10.00">dolphin/mtx/vec.h</text>
</a>
</g>
</g>
<!-- Node7&#45;&gt;Node8 -->
<g id="edge8" class="edge">
<title>Node7&#45;&gt;Node8</title>
<path fill="none" stroke="#63b8ff" d="M719.99,-126.1C708.7,-116.07 690.13,-99.56 676.25,-87.22"/>
<polygon fill="#63b8ff" stroke="#63b8ff" points="678.86,-84.86 669.06,-80.83 674.21,-90.09 678.86,-84.86"/>
</g>
<!-- Node8&#45;&gt;Node6 -->
<g id="edge9" class="edge">
<title>Node8&#45;&gt;Node6</title>
<path fill="none" stroke="#63b8ff" d="M632.94,-60.12C605.2,-50.28 560.25,-34.34 528.81,-23.19"/>
<polygon fill="#63b8ff" stroke="#63b8ff" points="530.32,-20.02 519.72,-19.97 527.98,-26.61 530.32,-20.02"/>
</g>
<!-- Node9&#45;&gt;Node3 -->
<g id="edge13" class="edge">
<title>Node9&#45;&gt;Node3</title>
<path fill="none" stroke="#63b8ff" d="M307.59,-217.44C338.75,-227.12 377.72,-239.75 404.97,-249"/>
<polygon fill="#63b8ff" stroke="#63b8ff" points="403.49,-252.19 414.09,-252.12 405.76,-245.57 403.49,-252.19"/>
</g>
<!-- Node9&#45;&gt;Node6 -->
<g id="edge16" class="edge">
<title>Node9&#45;&gt;Node6</title>
<path fill="none" stroke="#63b8ff" d="M254.98,-186.58C251.72,-156.7 249.11,-88.07 288,-55 310.68,-35.71 388.01,-22.91 440.94,-16.18"/>
<polygon fill="#63b8ff" stroke="#63b8ff" points="441.16,-19.68 450.66,-14.98 440.3,-12.73 441.16,-19.68"/>
</g>
<!-- Node10 -->
<g id="node10" class="node">
<title>Node10</title>
<g id="a_node10"><a xlink:href="JUTAssert_8h.html" target="_top" xlink:title=" ">
<polygon fill="white" stroke="#666666" points="212,-79.5 66,-79.5 66,-60.5 212,-60.5 212,-79.5"/>
<text text-anchor="middle" x="139" y="-67.5" font-family="Helvetica,sans-Serif" font-size="10.00">JSystem/JUtility/JUTAssert.h</text>
</a>
</g>
</g>
<!-- Node9&#45;&gt;Node10 -->
<g id="edge14" class="edge">
<title>Node9&#45;&gt;Node10</title>
<path fill="none" stroke="#63b8ff" d="M243.92,-186.59C222.01,-162.45 177.98,-113.95 154.53,-88.11"/>
<polygon fill="#63b8ff" stroke="#63b8ff" points="157.23,-85.88 147.92,-80.83 152.05,-90.59 157.23,-85.88"/>
</g>
<!-- Node10&#45;&gt;Node6 -->
<g id="edge15" class="edge">
<title>Node10&#45;&gt;Node6</title>
<path fill="none" stroke="#63b8ff" d="M193.15,-60.05C260.53,-48.92 374.77,-30.04 441.09,-19.08"/>
<polygon fill="#63b8ff" stroke="#63b8ff" points="441.31,-22.59 450.61,-17.51 440.17,-15.68 441.31,-22.59"/>
</g>
<!-- Node11&#45;&gt;Node6 -->
<g id="edge20" class="edge">
<title>Node11&#45;&gt;Node6</title>
<path fill="none" stroke="#63b8ff" d="M323.02,-120.74C305.07,-103.95 281.47,-75.73 298,-55 315.56,-32.98 389.18,-21 440.75,-15.17"/>
<polygon fill="#63b8ff" stroke="#63b8ff" points="440.96,-18.67 450.53,-14.12 440.21,-11.71 440.96,-18.67"/>
</g>
<!-- Node12 -->
<g id="node12" class="node">
<title>Node12</title>
<g id="a_node12"><a xlink:href="JASSoundParams_8h.html" target="_top" xlink:title=" ">
<polygon fill="white" stroke="#666666" points="449.5,-85 306.5,-85 306.5,-55 449.5,-55 449.5,-85"/>
<text text-anchor="start" x="314.5" y="-73" font-family="Helvetica,sans-Serif" font-size="10.00">JSystem/JAudio2/JASSound</text>
<text text-anchor="middle" x="378" y="-62" font-family="Helvetica,sans-Serif" font-size="10.00">Params.h</text>
</a>
</g>
</g>
<!-- Node11&#45;&gt;Node12 -->
<g id="edge18" class="edge">
<title>Node11&#45;&gt;Node12</title>
<path fill="none" stroke="#63b8ff" d="M348.43,-120.8C352.96,-113.17 358.66,-103.57 363.84,-94.84"/>
<polygon fill="#63b8ff" stroke="#63b8ff" points="366.72,-96.85 368.82,-86.47 360.7,-93.28 366.72,-96.85"/>
</g>
<!-- Node12&#45;&gt;Node6 -->
<g id="edge19" class="edge">
<title>Node12&#45;&gt;Node6</title>
<path fill="none" stroke="#63b8ff" d="M406.43,-54.54C424.47,-45.36 447.69,-33.55 465.54,-24.47"/>
<polygon fill="#63b8ff" stroke="#63b8ff" points="466.93,-27.69 474.26,-20.03 463.76,-21.45 466.93,-27.69"/>
</g>
<!-- Node13&#45;&gt;Node6 -->
<g id="edge24" class="edge">
<title>Node13&#45;&gt;Node6</title>
<path fill="none" stroke="#63b8ff" d="M493,-60.37C493,-52.5 493,-40.6 493,-30.39"/>
<polygon fill="#63b8ff" stroke="#63b8ff" points="496.5,-30.68 493,-20.68 489.5,-30.68 496.5,-30.68"/>
</g>
<!-- Node14&#45;&gt;Node3 -->
<g id="edge27" class="edge">
<title>Node14&#45;&gt;Node3</title>
<path fill="none" stroke="#63b8ff" d="M364.22,-307.54C379.24,-298.58 398.46,-287.1 413.52,-278.11"/>
<polygon fill="#63b8ff" stroke="#63b8ff" points="415.09,-281.25 421.88,-273.12 411.5,-275.24 415.09,-281.25"/>
</g>
<!-- Node14&#45;&gt;Node6 -->
<g id="edge26" class="edge">
<title>Node14&#45;&gt;Node6</title>
<path fill="none" stroke="#63b8ff" d="M270.34,-309.01C181.15,-290.35 38,-252.66 38,-203 38,-203 38,-203 38,-135 38,-98.46 29.52,-79.09 57,-55 85.36,-30.14 331.33,-17.09 440.82,-12.48"/>
<polygon fill="#63b8ff" stroke="#63b8ff" points="440.87,-15.98 450.71,-12.07 440.58,-8.98 440.87,-15.98"/>
</g>
</g>
</svg>
        <g id="navigator" transform="translate(0 0)" fill="#404254">
                <rect fill="#f2f5e9" fill-opacity="0.5" stroke="#606060" stroke-width=".5" x="0" y="0" width="60" height="60"/>
                <use id="zoomplus" xlink:href="#zoomPlus" x="17" y="9" onmousedown="handleZoom(evt,'in')"/>
                <use id="zoomminus" xlink:href="#zoomMin" x="42" y="9" onmousedown="handleZoom(evt,'out')"/>
                <use id="reset" xlink:href="#resetDef" x="30" y="36" onmousedown="handleReset()"/>
                <g id="arrowUp" xlink:href="#dirArrow" transform="translate(30 24)" onmousedown="handlePan(0,-1)">
                  <use xlink:href="#rim" fill="#404040">
                        <set attributeName="fill" to="#808080" begin="arrowUp.mouseover" end="arrowUp.mouseout"/>
                  </use>
                  <path fill="none" stroke="white" stroke-width="1.5" d="M0,-3.0v7 M-2.5,-0.5L0,-3.0L2.5,-0.5"/>
                </g>
                <g id="arrowRight" xlink:href="#dirArrow" transform="rotate(90) translate(36 -43)" onmousedown="handlePan(1,0)">
                  <use xlink:href="#rim" fill="#404040">
                        <set attributeName="fill" to="#808080" begin="arrowRight.mouseover" end="arrowRight.mouseout"/>
                  </use>
                  <path fill="none" stroke="white" stroke-width="1.5" d="M0,-3.0v7 M-2.5,-0.5L0,-3.0L2.5,-0.5"/>
                </g>
                <g id="arrowDown" xlink:href="#dirArrow" transform="rotate(180) translate(-30 -48)" onmousedown="handlePan(0,1)">
                  <use xlink:href="#rim" fill="#404040">
                        <set attributeName="fill" to="#808080" begin="arrowDown.mouseover" end="arrowDown.mouseout"/>
                  </use>
                  <path fill="none" stroke="white" stroke-width="1.5" d="M0,-3.0v7 M-2.5,-0.5L0,-3.0L2.5,-0.5"/>
                </g>
                <g id="arrowLeft" xlink:href="#dirArrow" transform="rotate(270) translate(-36 17)" onmousedown="handlePan(-1,0)">
                  <use xlink:href="#rim" fill="#404040">
                        <set attributeName="fill" to="#808080" begin="arrowLeft.mouseover" end="arrowLeft.mouseout"/>
                  </use>
                  <path fill="none" stroke="white" stroke-width="1.5" d="M0,-3.0v7 M-2.5,-0.5L0,-3.0L2.5,-0.5"/>
                </g>
        </g>
        <svg viewBox="0 0 15 15" width="100%" height="30px" preserveAspectRatio="xMaxYMin meet">
         <g id="arrow_out" transform="scale(0.3 0.3)">
          <a xlink:href="Z2SoundStarter_8cpp__incl_org.svg" target="_base">
           <rect id="button" ry="5" rx="5" y="6" x="6" height="38" width="38"
                fill="#f2f5e9" fill-opacity="0.5" stroke="#606060" stroke-width="1.0"/>
           <path id="arrow"
             d="M 11.500037,31.436501 C 11.940474,20.09759 22.043105,11.32322 32.158766,21.979434 L 37.068811,17.246167 C 37.068811,17.246167 37.088388,32 37.088388,32 L 22.160133,31.978069 C 22.160133,31.978069 26.997745,27.140456 26.997745,27.140456 C 18.528582,18.264221 13.291696,25.230495 11.500037,31.436501 z"
             style="fill:#404040;"/>
          </a>
         </g>
        </svg>
</svg>
