<?xml version="1.0" encoding="UTF-8" standalone="no"?>
<!DOCTYPE svg PUBLIC "-//W3C//DTD SVG 1.1//EN"
 "http://www.w3.org/Graphics/SVG/1.1/DTD/svg11.dtd">
<!-- Generated by graphviz version 7.0.5 (20221223.1930)
 -->
<!-- Title: include/Z2AudioLib/Z2SoundObject.h Pages: 1 -->
<svg width="2318pt" height="588pt"
 viewBox="0.00 0.00 2318.00 588.00" xmlns="http://www.w3.org/2000/svg" xmlns:xlink="http://www.w3.org/1999/xlink">
<g id="graph0" class="graph" transform="scale(1 1) rotate(0) translate(4 584)">
<title>include/Z2AudioLib/Z2SoundObject.h</title>
<!-- Node1 -->
<g id="node1" class="node">
<title>Node1</title>
<g id="a_node1"><a xlink:title=" ">
<polygon fill="#999999" stroke="#666666" points="2300,-580 2200,-580 2200,-550 2300,-550 2300,-580"/>
<text text-anchor="start" x="2208" y="-568" font-family="Helvetica,sans-Serif" font-size="10.00">include/Z2AudioLib</text>
<text text-anchor="middle" x="2250" y="-557" font-family="Helvetica,sans-Serif" font-size="10.00">/Z2SoundObject.h</text>
</a>
</g>
</g>
<!-- Node2 -->
<g id="node2" class="node">
<title>Node2</title>
<g id="a_node2"><a xlink:href="Z2SoundHandles_8h.html" target="_top" xlink:title=" ">
<polygon fill="white" stroke="#666666" points="2274,-514 2122,-514 2122,-495 2274,-495 2274,-514"/>
<text text-anchor="middle" x="2198" y="-502" font-family="Helvetica,sans-Serif" font-size="10.00">Z2AudioLib/Z2SoundHandles.h</text>
</a>
</g>
</g>
<!-- Node1&#45;&gt;Node2 -->
<g id="edge1" class="edge">
<title>Node1&#45;&gt;Node2</title>
<path fill="none" stroke="#63b8ff" d="M2237.15,-549.54C2229.9,-541.39 2220.81,-531.16 2213.21,-522.61"/>
<polygon fill="#63b8ff" stroke="#63b8ff" points="2215.98,-520.46 2206.72,-515.31 2210.74,-525.11 2215.98,-520.46"/>
</g>
<!-- Node7 -->
<g id="node7" class="node">
<title>Node7</title>
<g id="a_node7"><a xlink:href="types_8h.html" target="_top" xlink:title=" ">
<polygon fill="white" stroke="#666666" points="1288.5,-90.5 1207.5,-90.5 1207.5,-71.5 1288.5,-71.5 1288.5,-90.5"/>
<text text-anchor="middle" x="1248" y="-78.5" font-family="Helvetica,sans-Serif" font-size="10.00">dolphin/types.h</text>
</a>
</g>
</g>
<!-- Node1&#45;&gt;Node7 -->
<g id="edge70" class="edge">
<title>Node1&#45;&gt;Node7</title>
<path fill="none" stroke="#63b8ff" d="M2262.72,-549.77C2280.34,-528.56 2310,-486.65 2310,-445 2310,-445 2310,-445 2310,-206.5 2310,-154.92 2269.02,-150.85 2221,-132 2135.17,-98.3 1489.59,-85.73 1300.12,-82.75"/>
<polygon fill="#63b8ff" stroke="#63b8ff" points="1300.4,-79.25 1290.35,-82.6 1300.29,-86.25 1300.4,-79.25"/>
</g>
<!-- Node3 -->
<g id="node3" class="node">
<title>Node3</title>
<g id="a_node3"><a xlink:href="JAISoundHandles_8h.html" target="_top" xlink:title=" ">
<polygon fill="white" stroke="#666666" points="1751.5,-459 1612.5,-459 1612.5,-429 1751.5,-429 1751.5,-459"/>
<text text-anchor="start" x="1620.5" y="-447" font-family="Helvetica,sans-Serif" font-size="10.00">JSystem/JAudio2/JAISound</text>
<text text-anchor="middle" x="1682" y="-436" font-family="Helvetica,sans-Serif" font-size="10.00">Handles.h</text>
</a>
</g>
</g>
<!-- Node2&#45;&gt;Node3 -->
<g id="edge2" class="edge">
<title>Node2&#45;&gt;Node3</title>
<path fill="none" stroke="#63b8ff" d="M2121.58,-494.84C2025.52,-483.95 1861.31,-465.33 1763.09,-454.19"/>
<polygon fill="#63b8ff" stroke="#63b8ff" points="1763.58,-450.73 1753.25,-453.08 1762.79,-457.68 1763.58,-450.73"/>
</g>
<!-- Node2&#45;&gt;Node7 -->
<g id="edge69" class="edge">
<title>Node2&#45;&gt;Node7</title>
<path fill="none" stroke="#63b8ff" d="M2208.6,-494.53C2229.06,-476.15 2272,-431.94 2272,-384.5 2272,-384.5 2272,-384.5 2272,-206.5 2272,-147.09 2217.34,-150.85 2161,-132 2079.43,-104.7 1481.54,-87.79 1300.07,-83.24"/>
<polygon fill="#63b8ff" stroke="#63b8ff" points="1300.33,-79.75 1290.25,-83 1300.16,-86.74 1300.33,-79.75"/>
</g>
<!-- Node42 -->
<g id="node42" class="node">
<title>Node42</title>
<g id="a_node42"><a xlink:href="JSUList_8h.html" target="_top" xlink:title=" ">
<polygon fill="white" stroke="#666666" points="2243.5,-393 2100.5,-393 2100.5,-374 2243.5,-374 2243.5,-393"/>
<text text-anchor="middle" x="2172" y="-381" font-family="Helvetica,sans-Serif" font-size="10.00">JSystem/JSupport/JSUList.h</text>
</a>
</g>
</g>
<!-- Node2&#45;&gt;Node42 -->
<g id="edge67" class="edge">
<title>Node2&#45;&gt;Node42</title>
<path fill="none" stroke="#63b8ff" d="M2196.05,-494.56C2191.88,-475.51 2182.06,-430.56 2176.34,-404.37"/>
<polygon fill="#63b8ff" stroke="#63b8ff" points="2179.78,-403.73 2174.23,-394.7 2172.94,-405.22 2179.78,-403.73"/>
</g>
<!-- Node4 -->
<g id="node4" class="node">
<title>Node4</title>
<g id="a_node4"><a xlink:href="JAISound_8h.html" target="_top" xlink:title=" ">
<polygon fill="white" stroke="#666666" points="500,-338 354,-338 354,-319 500,-319 500,-338"/>
<text text-anchor="middle" x="427" y="-326" font-family="Helvetica,sans-Serif" font-size="10.00">JSystem/JAudio2/JAISound.h</text>
</a>
</g>
</g>
<!-- Node3&#45;&gt;Node4 -->
<g id="edge3" class="edge">
<title>Node3&#45;&gt;Node4</title>
<path fill="none" stroke="#63b8ff" d="M1612.29,-436.7C1397.31,-417.25 745.05,-358.26 511.4,-337.13"/>
<polygon fill="#63b8ff" stroke="#63b8ff" points="512.04,-333.68 501.77,-336.26 511.41,-340.65 512.04,-333.68"/>
</g>
<!-- Node17 -->
<g id="node17" class="node">
<title>Node17</title>
<g id="a_node17"><a xlink:href="JUTAssert_8h.html" target="_top" xlink:title=" ">
<polygon fill="white" stroke="#666666" points="1755,-393 1609,-393 1609,-374 1755,-374 1755,-393"/>
<text text-anchor="middle" x="1682" y="-381" font-family="Helvetica,sans-Serif" font-size="10.00">JSystem/JUtility/JUTAssert.h</text>
</a>
</g>
</g>
<!-- Node3&#45;&gt;Node17 -->
<g id="edge19" class="edge">
<title>Node3&#45;&gt;Node17</title>
<path fill="none" stroke="#63b8ff" d="M1682,-428.54C1682,-421.34 1682,-412.53 1682,-404.68"/>
<polygon fill="#63b8ff" stroke="#63b8ff" points="1685.5,-404.69 1682,-394.69 1678.5,-404.69 1685.5,-404.69"/>
</g>
<!-- Node5 -->
<g id="node5" class="node">
<title>Node5</title>
<g id="a_node5"><a xlink:href="JAISoundParams_8h.html" target="_top" xlink:title=" ">
<polygon fill="white" stroke="#666666" points="447.5,-283 308.5,-283 308.5,-253 447.5,-253 447.5,-283"/>
<text text-anchor="start" x="316.5" y="-271" font-family="Helvetica,sans-Serif" font-size="10.00">JSystem/JAudio2/JAISound</text>
<text text-anchor="middle" x="378" y="-260" font-family="Helvetica,sans-Serif" font-size="10.00">Params.h</text>
</a>
</g>
</g>
<!-- Node4&#45;&gt;Node5 -->
<g id="edge4" class="edge">
<title>Node4&#45;&gt;Node5</title>
<path fill="none" stroke="#63b8ff" d="M419.77,-318.87C413.8,-311.74 405.04,-301.28 397.09,-291.79"/>
<polygon fill="#63b8ff" stroke="#63b8ff" points="399.9,-289.69 390.79,-284.27 394.53,-294.19 399.9,-289.69"/>
</g>
<!-- Node9 -->
<g id="node9" class="node">
<title>Node9</title>
<g id="a_node9"><a xlink:href="JAIAudible_8h.html" target="_top" xlink:title=" ">
<polygon fill="white" stroke="#666666" points="271.5,-277.5 120.5,-277.5 120.5,-258.5 271.5,-258.5 271.5,-277.5"/>
<text text-anchor="middle" x="196" y="-265.5" font-family="Helvetica,sans-Serif" font-size="10.00">JSystem/JAudio2/JAIAudible.h</text>
</a>
</g>
</g>
<!-- Node4&#45;&gt;Node9 -->
<g id="edge8" class="edge">
<title>Node4&#45;&gt;Node9</title>
<path fill="none" stroke="#63b8ff" d="M391.66,-318.55C351.67,-308.42 286.37,-291.89 242.32,-280.73"/>
<polygon fill="#63b8ff" stroke="#63b8ff" points="243.35,-277.38 232.8,-278.32 241.63,-284.17 243.35,-277.38"/>
</g>
<!-- Node16 -->
<g id="node16" class="node">
<title>Node16</title>
<g id="a_node16"><a xlink:href="global_8h.html" target="_top" xlink:title=" ">
<polygon fill="white" stroke="#666666" points="502,-217 452,-217 452,-198 502,-198 502,-217"/>
<text text-anchor="middle" x="477" y="-205" font-family="Helvetica,sans-Serif" font-size="10.00">global.h</text>
</a>
</g>
</g>
<!-- Node4&#45;&gt;Node16 -->
<g id="edge17" class="edge">
<title>Node4&#45;&gt;Node16</title>
<path fill="none" stroke="#63b8ff" d="M433.85,-318.76C440.34,-310.11 449.98,-296.27 456,-283 464.07,-265.22 469.75,-243.62 473.14,-228.27"/>
<polygon fill="#63b8ff" stroke="#63b8ff" points="476.56,-229.04 475.16,-218.54 469.7,-227.62 476.56,-229.04"/>
</g>
<!-- Node6 -->
<g id="node6" class="node">
<title>Node6</title>
<g id="a_node6"><a xlink:href="JASSoundParams_8h.html" target="_top" xlink:title=" ">
<polygon fill="white" stroke="#666666" points="449.5,-162 306.5,-162 306.5,-132 449.5,-132 449.5,-162"/>
<text text-anchor="start" x="314.5" y="-150" font-family="Helvetica,sans-Serif" font-size="10.00">JSystem/JAudio2/JASSound</text>
<text text-anchor="middle" x="378" y="-139" font-family="Helvetica,sans-Serif" font-size="10.00">Params.h</text>
</a>
</g>
</g>
<!-- Node5&#45;&gt;Node6 -->
<g id="edge5" class="edge">
<title>Node5&#45;&gt;Node6</title>
<path fill="none" stroke="#63b8ff" d="M378,-252.88C378,-233.39 378,-197.92 378,-173.67"/>
<polygon fill="#63b8ff" stroke="#63b8ff" points="381.5,-173.98 378,-163.98 374.5,-173.98 381.5,-173.98"/>
</g>
<!-- Node6&#45;&gt;Node7 -->
<g id="edge6" class="edge">
<title>Node6&#45;&gt;Node7</title>
<path fill="none" stroke="#63b8ff" d="M449.72,-133.79C454.55,-133.13 459.34,-132.53 464,-132 738.67,-100.96 1069.82,-87.73 1195.87,-83.56"/>
<polygon fill="#63b8ff" stroke="#63b8ff" points="1195.67,-87.07 1205.55,-83.25 1195.45,-80.08 1195.67,-87.07"/>
</g>
<!-- Node8 -->
<g id="node8" class="node">
<title>Node8</title>
<g id="a_node8"><a xlink:href="stddef_8h.html" target="_top" xlink:title=" ">
<polygon fill="white" stroke="#666666" points="1316,-30 1180,-30 1180,0 1316,0 1316,-30"/>
<text text-anchor="start" x="1188" y="-18" font-family="Helvetica,sans-Serif" font-size="10.00">MSL_C/MSL_Common/Src</text>
<text text-anchor="middle" x="1248" y="-7" font-family="Helvetica,sans-Serif" font-size="10.00">/stddef.h</text>
</a>
</g>
</g>
<!-- Node7&#45;&gt;Node8 -->
<g id="edge7" class="edge">
<title>Node7&#45;&gt;Node8</title>
<path fill="none" stroke="#63b8ff" d="M1248,-71.1C1248,-63.41 1248,-51.92 1248,-41.42"/>
<polygon fill="#63b8ff" stroke="#63b8ff" points="1251.5,-41.75 1248,-31.75 1244.5,-41.75 1251.5,-41.75"/>
</g>
<!-- Node10 -->
<g id="node10" class="node">
<title>Node10</title>
<g id="a_node10"><a xlink:href="JGeometry_8h.html" target="_top" xlink:title=" ">
<polygon fill="white" stroke="#666666" points="213.5,-217 100.5,-217 100.5,-198 213.5,-198 213.5,-217"/>
<text text-anchor="middle" x="157" y="-205" font-family="Helvetica,sans-Serif" font-size="10.00">JSystem/JGeometry.h</text>
</a>
</g>
</g>
<!-- Node9&#45;&gt;Node10 -->
<g id="edge9" class="edge">
<title>Node9&#45;&gt;Node10</title>
<path fill="none" stroke="#63b8ff" d="M190.25,-258.37C184.72,-250.07 176.18,-237.28 169.15,-226.72"/>
<polygon fill="#63b8ff" stroke="#63b8ff" points="172.08,-224.81 163.62,-218.43 166.25,-228.69 172.08,-224.81"/>
</g>
<!-- Node11 -->
<g id="node11" class="node">
<title>Node11</title>
<g id="a_node11"><a xlink:href="vec_8h.html" target="_top" xlink:title=" ">
<polygon fill="white" stroke="#666666" points="288,-156.5 196,-156.5 196,-137.5 288,-137.5 288,-156.5"/>
<text text-anchor="middle" x="242" y="-144.5" font-family="Helvetica,sans-Serif" font-size="10.00">dolphin/mtx/vec.h</text>
</a>
</g>
</g>
<!-- Node10&#45;&gt;Node11 -->
<g id="edge10" class="edge">
<title>Node10&#45;&gt;Node11</title>
<path fill="none" stroke="#63b8ff" d="M169.91,-197.62C183.14,-188.51 203.97,-174.18 219.84,-163.25"/>
<polygon fill="#63b8ff" stroke="#63b8ff" points="221.47,-166.38 227.72,-157.83 217.5,-160.61 221.47,-166.38"/>
</g>
<!-- Node12 -->
<g id="node12" class="node">
<title>Node12</title>
<g id="a_node12"><a xlink:href="float_8h.html" target="_top" xlink:title=" ">
<polygon fill="white" stroke="#666666" points="78,-156.5 0,-156.5 0,-137.5 78,-137.5 78,-156.5"/>
<text text-anchor="middle" x="39" y="-144.5" font-family="Helvetica,sans-Serif" font-size="10.00">MSL_C/float.h</text>
</a>
</g>
</g>
<!-- Node10&#45;&gt;Node12 -->
<g id="edge12" class="edge">
<title>Node10&#45;&gt;Node12</title>
<path fill="none" stroke="#63b8ff" d="M139.08,-197.62C120.02,-188.17 89.6,-173.09 67.3,-162.03"/>
<polygon fill="#63b8ff" stroke="#63b8ff" points="68.96,-158.95 58.45,-157.64 65.85,-165.22 68.96,-158.95"/>
</g>
<!-- Node15 -->
<g id="node15" class="node">
<title>Node15</title>
<g id="a_node15"><a xlink:href="math_8h.html" target="_top" xlink:title=" ">
<polygon fill="white" stroke="#666666" points="178,-156.5 96,-156.5 96,-137.5 178,-137.5 178,-156.5"/>
<text text-anchor="middle" x="137" y="-144.5" font-family="Helvetica,sans-Serif" font-size="10.00">MSL_C/math.h</text>
</a>
</g>
</g>
<!-- Node10&#45;&gt;Node15 -->
<g id="edge15" class="edge">
<title>Node10&#45;&gt;Node15</title>
<path fill="none" stroke="#63b8ff" d="M154.05,-197.87C151.33,-189.92 147.2,-177.83 143.68,-167.55"/>
<polygon fill="#63b8ff" stroke="#63b8ff" points="147,-166.43 140.45,-158.1 140.38,-168.69 147,-166.43"/>
</g>
<!-- Node11&#45;&gt;Node7 -->
<g id="edge11" class="edge">
<title>Node11&#45;&gt;Node7</title>
<path fill="none" stroke="#63b8ff" d="M272.62,-137.07C280.5,-135.09 289.01,-133.21 297,-132 472.66,-105.29 1023.73,-88.19 1196,-83.39"/>
<polygon fill="#63b8ff" stroke="#63b8ff" points="1195.86,-86.89 1205.75,-83.12 1195.66,-79.89 1195.86,-86.89"/>
</g>
<!-- Node13 -->
<g id="node13" class="node">
<title>Node13</title>
<g id="a_node13"><a xlink:href="MSL__Common_2Src_2float_8h.html" target="_top" xlink:title=" ">
<polygon fill="white" stroke="#666666" points="156,-96 20,-96 20,-66 156,-66 156,-96"/>
<text text-anchor="start" x="28" y="-84" font-family="Helvetica,sans-Serif" font-size="10.00">MSL_C/MSL_Common/Src</text>
<text text-anchor="middle" x="88" y="-73" font-family="Helvetica,sans-Serif" font-size="10.00">/float.h</text>
</a>
</g>
</g>
<!-- Node12&#45;&gt;Node13 -->
<g id="edge13" class="edge">
<title>Node12&#45;&gt;Node13</title>
<path fill="none" stroke="#63b8ff" d="M45.81,-137.1C52.14,-128.84 61.84,-116.17 70.34,-105.06"/>
<polygon fill="#63b8ff" stroke="#63b8ff" points="72.88,-107.5 76.18,-97.44 67.32,-103.25 72.88,-107.5"/>
</g>
<!-- Node14 -->
<g id="node14" class="node">
<title>Node14</title>
<g id="a_node14"><a xlink:href="fdlibm_8h.html" target="_top" xlink:title=" ">
<polygon fill="white" stroke="#666666" points="113,-24.5 63,-24.5 63,-5.5 113,-5.5 113,-24.5"/>
<text text-anchor="middle" x="88" y="-12.5" font-family="Helvetica,sans-Serif" font-size="10.00">fdlibm.h</text>
</a>
</g>
</g>
<!-- Node13&#45;&gt;Node14 -->
<g id="edge14" class="edge">
<title>Node13&#45;&gt;Node14</title>
<path fill="none" stroke="#63b8ff" d="M88,-65.8C88,-57.09 88,-45.81 88,-36.18"/>
<polygon fill="#63b8ff" stroke="#63b8ff" points="91.5,-36.36 88,-26.36 84.5,-36.36 91.5,-36.36"/>
</g>
<!-- Node15&#45;&gt;Node13 -->
<g id="edge16" class="edge">
<title>Node15&#45;&gt;Node13</title>
<path fill="none" stroke="#63b8ff" d="M130.19,-137.1C123.86,-128.84 114.16,-116.17 105.66,-105.06"/>
<polygon fill="#63b8ff" stroke="#63b8ff" points="108.68,-103.25 99.82,-97.44 103.12,-107.5 108.68,-103.25"/>
</g>
<!-- Node16&#45;&gt;Node7 -->
<g id="edge18" class="edge">
<title>Node16&#45;&gt;Node7</title>
<path fill="none" stroke="#63b8ff" d="M476.39,-197.67C475.83,-181.71 477.23,-148.23 497,-132 550.78,-87.84 1035.02,-82.55 1196.13,-82.02"/>
<polygon fill="#63b8ff" stroke="#63b8ff" points="1195.66,-85.52 1205.65,-81.99 1195.64,-78.52 1195.66,-85.52"/>
</g>
<!-- Node17&#45;&gt;Node7 -->
<g id="edge20" class="edge">
<title>Node17&#45;&gt;Node7</title>
<path fill="none" stroke="#63b8ff" d="M1755.37,-381.42C1897.39,-377.34 2196,-358.16 2196,-269 2196,-269 2196,-269 2196,-206.5 2196,-115.36 1498.26,-88.97 1299.98,-83.31"/>
<polygon fill="#63b8ff" stroke="#63b8ff" points="1300.34,-79.81 1290.25,-83.03 1300.15,-86.81 1300.34,-79.81"/>
</g>
<!-- Node18 -->
<g id="node18" class="node">
<title>Node18</title>
<g id="a_node18"><a xlink:href="OS_8h.html" target="_top" xlink:title=" ">
<polygon fill="white" stroke="#666666" points="1417,-338 1331,-338 1331,-319 1417,-319 1417,-338"/>
<text text-anchor="middle" x="1374" y="-326" font-family="Helvetica,sans-Serif" font-size="10.00">dolphin/os/OS.h</text>
</a>
</g>
</g>
<!-- Node17&#45;&gt;Node18 -->
<g id="edge21" class="edge">
<title>Node17&#45;&gt;Node18</title>
<path fill="none" stroke="#63b8ff" d="M1629.75,-373.51C1573.71,-363.87 1485.14,-348.62 1428.32,-338.85"/>
<polygon fill="#63b8ff" stroke="#63b8ff" points="1428.99,-335.41 1418.54,-337.16 1427.8,-342.31 1428.99,-335.41"/>
</g>
<!-- Node19 -->
<g id="node19" class="node">
<title>Node19</title>
<g id="a_node19"><a xlink:href="____va__arg_8h.html" target="_top" xlink:title=" ">
<polygon fill="white" stroke="#666666" points="1699,-162 1589,-162 1589,-132 1699,-132 1699,-162"/>
<text text-anchor="start" x="1597" y="-150" font-family="Helvetica,sans-Serif" font-size="10.00">Runtime.PPCEABI.H/</text>
<text text-anchor="middle" x="1644" y="-139" font-family="Helvetica,sans-Serif" font-size="10.00">__va_arg.h</text>
</a>
</g>
</g>
<!-- Node18&#45;&gt;Node19 -->
<g id="edge22" class="edge">
<title>Node18&#45;&gt;Node19</title>
<path fill="none" stroke="#63b8ff" d="M1417.46,-324.61C1477.09,-319.77 1579.97,-307.98 1607,-283 1637.43,-254.88 1643.74,-204.33 1644.56,-173.7"/>
<polygon fill="#63b8ff" stroke="#63b8ff" points="1648.06,-173.83 1644.62,-163.8 1641.06,-173.78 1648.06,-173.83"/>
</g>
<!-- Node20 -->
<g id="node20" class="node">
<title>Node20</title>
<g id="a_node20"><a xlink:href="dvd_8h.html" target="_top" xlink:title=" ">
<polygon fill="white" stroke="#666666" points="1760,-217 1668,-217 1668,-198 1760,-198 1760,-217"/>
<text text-anchor="middle" x="1714" y="-205" font-family="Helvetica,sans-Serif" font-size="10.00">dolphin/dvd/dvd.h</text>
</a>
</g>
</g>
<!-- Node18&#45;&gt;Node20 -->
<g id="edge24" class="edge">
<title>Node18&#45;&gt;Node20</title>
<path fill="none" stroke="#63b8ff" d="M1417.26,-328.35C1472.32,-327.68 1568.9,-320.57 1641,-283 1666.64,-269.64 1688.69,-243.97 1701.66,-226.53"/>
<polygon fill="#63b8ff" stroke="#63b8ff" points="1704.36,-228.78 1707.32,-218.61 1698.66,-224.71 1704.36,-228.78"/>
</g>
<!-- Node21 -->
<g id="node21" class="node">
<title>Node21</title>
<g id="a_node21"><a xlink:href="OSAlarm_8h.html" target="_top" xlink:title=" ">
<polygon fill="white" stroke="#666666" points="2129.5,-277.5 2018.5,-277.5 2018.5,-258.5 2129.5,-258.5 2129.5,-277.5"/>
<text text-anchor="middle" x="2074" y="-265.5" font-family="Helvetica,sans-Serif" font-size="10.00">dolphin/os/OSAlarm.h</text>
</a>
</g>
</g>
<!-- Node18&#45;&gt;Node21 -->
<g id="edge26" class="edge">
<title>Node18&#45;&gt;Node21</title>
<path fill="none" stroke="#63b8ff" d="M1417.35,-326.33C1519.8,-323.16 1784.77,-312.54 2004,-283 2010.06,-282.18 2016.39,-281.16 2022.66,-280.04"/>
<polygon fill="#63b8ff" stroke="#63b8ff" points="2023.13,-283.51 2032.31,-278.23 2021.84,-276.63 2023.13,-283.51"/>
</g>
<!-- Node22 -->
<g id="node22" class="node">
<title>Node22</title>
<g id="a_node22"><a xlink:href="OSError_8h.html" target="_top" xlink:title=" ">
<polygon fill="white" stroke="#666666" points="2022,-217 1916,-217 1916,-198 2022,-198 2022,-217"/>
<text text-anchor="middle" x="1969" y="-205" font-family="Helvetica,sans-Serif" font-size="10.00">dolphin/os/OSError.h</text>
</a>
</g>
</g>
<!-- Node18&#45;&gt;Node22 -->
<g id="edge40" class="edge">
<title>Node18&#45;&gt;Node22</title>
<path fill="none" stroke="#63b8ff" d="M1417.45,-327.58C1548.41,-327.37 1932.59,-323.31 1970,-283 1983.45,-268.5 1980.48,-244.75 1975.9,-227.97"/>
<polygon fill="#63b8ff" stroke="#63b8ff" points="1979.31,-227.13 1972.96,-218.65 1972.64,-229.24 1979.31,-227.13"/>
</g>
<!-- Node23 -->
<g id="node23" class="node">
<title>Node23</title>
<g id="a_node23"><a xlink:href="OSTime_8h.html" target="_top" xlink:title=" ">
<polygon fill="white" stroke="#666666" points="2147.5,-217 2040.5,-217 2040.5,-198 2147.5,-198 2147.5,-217"/>
<text text-anchor="middle" x="2094" y="-205" font-family="Helvetica,sans-Serif" font-size="10.00">dolphin/os/OSTime.h</text>
</a>
</g>
</g>
<!-- Node18&#45;&gt;Node23 -->
<g id="edge66" class="edge">
<title>Node18&#45;&gt;Node23</title>
<path fill="none" stroke="#63b8ff" d="M1417.32,-326.6C1575.37,-323.12 2113.13,-309.37 2138,-283 2154.49,-265.52 2133.19,-240.8 2114.89,-224.71"/>
<polygon fill="#63b8ff" stroke="#63b8ff" points="2117.16,-222.04 2107.23,-218.33 2112.68,-227.42 2117.16,-222.04"/>
</g>
<!-- Node24 -->
<g id="node24" class="node">
<title>Node24</title>
<g id="a_node24"><a xlink:href="OSAlloc_8h.html" target="_top" xlink:title=" ">
<polygon fill="white" stroke="#666666" points="613.5,-156.5 506.5,-156.5 506.5,-137.5 613.5,-137.5 613.5,-156.5"/>
<text text-anchor="middle" x="560" y="-144.5" font-family="Helvetica,sans-Serif" font-size="10.00">dolphin/os/OSAlloc.h</text>
</a>
</g>
</g>
<!-- Node18&#45;&gt;Node24 -->
<g id="edge31" class="edge">
<title>Node18&#45;&gt;Node24</title>
<path fill="none" stroke="#63b8ff" d="M1330.72,-326.5C1170.14,-322.59 616.31,-307.4 588,-283 554.84,-254.42 554.77,-197.78 557.43,-167.76"/>
<polygon fill="#63b8ff" stroke="#63b8ff" points="560.87,-168.51 558.49,-158.18 553.91,-167.74 560.87,-168.51"/>
</g>
<!-- Node25 -->
<g id="node25" class="node">
<title>Node25</title>
<g id="a_node25"><a xlink:href="OSArena_8h.html" target="_top" xlink:title=" ">
<polygon fill="white" stroke="#666666" points="742.5,-156.5 631.5,-156.5 631.5,-137.5 742.5,-137.5 742.5,-156.5"/>
<text text-anchor="middle" x="687" y="-144.5" font-family="Helvetica,sans-Serif" font-size="10.00">dolphin/os/OSArena.h</text>
</a>
</g>
</g>
<!-- Node18&#45;&gt;Node25 -->
<g id="edge33" class="edge">
<title>Node18&#45;&gt;Node25</title>
<path fill="none" stroke="#63b8ff" d="M1330.5,-326.63C1171.14,-323.21 627.16,-309.65 602,-283 566.2,-245.08 629.05,-189.9 664.8,-163.38"/>
<polygon fill="#63b8ff" stroke="#63b8ff" points="666.77,-166.27 672.83,-157.58 662.67,-160.59 666.77,-166.27"/>
</g>
<!-- Node26 -->
<g id="node26" class="node">
<title>Node26</title>
<g id="a_node26"><a xlink:href="OSAudioSystem_8h.html" target="_top" xlink:title=" ">
<polygon fill="white" stroke="#666666" points="1836.5,-277.5 1693.5,-277.5 1693.5,-258.5 1836.5,-258.5 1836.5,-277.5"/>
<text text-anchor="middle" x="1765" y="-265.5" font-family="Helvetica,sans-Serif" font-size="10.00">dolphin/os/OSAudioSystem.h</text>
</a>
</g>
</g>
<!-- Node18&#45;&gt;Node26 -->
<g id="edge35" class="edge">
<title>Node18&#45;&gt;Node26</title>
<path fill="none" stroke="#63b8ff" d="M1417.47,-321.39C1476.67,-313.01 1585.92,-297.37 1679,-283 1685.69,-281.97 1692.67,-280.87 1699.63,-279.76"/>
<polygon fill="#63b8ff" stroke="#63b8ff" points="1700.08,-283.23 1709.39,-278.19 1698.96,-276.32 1700.08,-283.23"/>
</g>
<!-- Node27 -->
<g id="node27" class="node">
<title>Node27</title>
<g id="a_node27"><a xlink:href="OSCache_8h.html" target="_top" xlink:title=" ">
<polygon fill="white" stroke="#666666" points="724.5,-277.5 611.5,-277.5 611.5,-258.5 724.5,-258.5 724.5,-277.5"/>
<text text-anchor="middle" x="668" y="-265.5" font-family="Helvetica,sans-Serif" font-size="10.00">dolphin/os/OSCache.h</text>
</a>
</g>
</g>
<!-- Node18&#45;&gt;Node27 -->
<g id="edge36" class="edge">
<title>Node18&#45;&gt;Node27</title>
<path fill="none" stroke="#63b8ff" d="M1330.7,-326.33C1227.72,-323.13 960.29,-312.45 739,-283 732.85,-282.18 726.43,-281.16 720.08,-280.04"/>
<polygon fill="#63b8ff" stroke="#63b8ff" points="720.74,-276.6 710.27,-278.22 719.46,-283.48 720.74,-276.6"/>
</g>
<!-- Node28 -->
<g id="node28" class="node">
<title>Node28</title>
<g id="a_node28"><a xlink:href="OSContext_8h.html" target="_top" xlink:title=" ">
<polygon fill="white" stroke="#666666" points="918.5,-156.5 799.5,-156.5 799.5,-137.5 918.5,-137.5 918.5,-156.5"/>
<text text-anchor="middle" x="859" y="-144.5" font-family="Helvetica,sans-Serif" font-size="10.00">dolphin/os/OSContext.h</text>
</a>
</g>
</g>
<!-- Node18&#45;&gt;Node28 -->
<g id="edge38" class="edge">
<title>Node18&#45;&gt;Node28</title>
<path fill="none" stroke="#63b8ff" d="M1330.58,-327.62C1198.76,-327.52 809.84,-323.75 772,-283 746.29,-255.32 753.08,-230.7 772,-198 781.9,-180.89 800.11,-169.13 817.32,-161.33"/>
<polygon fill="#63b8ff" stroke="#63b8ff" points="818.53,-164.62 826.43,-157.56 815.85,-158.15 818.53,-164.62"/>
</g>
<!-- Node29 -->
<g id="node29" class="node">
<title>Node29</title>
<g id="a_node29"><a xlink:href="OSExec_8h.html" target="_top" xlink:title=" ">
<polygon fill="white" stroke="#666666" points="1022.5,-217 915.5,-217 915.5,-198 1022.5,-198 1022.5,-217"/>
<text text-anchor="middle" x="969" y="-205" font-family="Helvetica,sans-Serif" font-size="10.00">dolphin/os/OSExec.h</text>
</a>
</g>
</g>
<!-- Node18&#45;&gt;Node29 -->
<g id="edge41" class="edge">
<title>Node18&#45;&gt;Node29</title>
<path fill="none" stroke="#63b8ff" d="M1330.71,-324.69C1280.32,-320.29 1195.29,-309.36 1127,-283 1103.53,-273.94 1101.41,-264.43 1079,-253 1055.09,-240.81 1027.02,-229.5 1005.23,-221.33"/>
<polygon fill="#63b8ff" stroke="#63b8ff" points="1006.47,-218.06 995.87,-217.89 1004.05,-224.63 1006.47,-218.06"/>
</g>
<!-- Node30 -->
<g id="node30" class="node">
<title>Node30</title>
<g id="a_node30"><a xlink:href="OSFont_8h.html" target="_top" xlink:title=" ">
<polygon fill="white" stroke="#666666" points="1128.5,-156.5 1023.5,-156.5 1023.5,-137.5 1128.5,-137.5 1128.5,-156.5"/>
<text text-anchor="middle" x="1076" y="-144.5" font-family="Helvetica,sans-Serif" font-size="10.00">dolphin/os/OSFont.h</text>
</a>
</g>
</g>
<!-- Node18&#45;&gt;Node30 -->
<g id="edge43" class="edge">
<title>Node18&#45;&gt;Node30</title>
<path fill="none" stroke="#63b8ff" d="M1330.85,-323.37C1287.5,-318.07 1219.47,-306.58 1165,-283 1159.1,-280.45 1072.98,-222.69 1070,-217 1061.99,-201.68 1064.87,-181.81 1068.93,-167.33"/>
<polygon fill="#63b8ff" stroke="#63b8ff" points="1072.17,-168.68 1071.94,-158.09 1065.52,-166.51 1072.17,-168.68"/>
</g>
<!-- Node31 -->
<g id="node31" class="node">
<title>Node31</title>
<g id="a_node31"><a xlink:href="OSInterrupt_8h.html" target="_top" xlink:title=" ">
<polygon fill="white" stroke="#666666" points="1201,-217 1079,-217 1079,-198 1201,-198 1201,-217"/>
<text text-anchor="middle" x="1140" y="-205" font-family="Helvetica,sans-Serif" font-size="10.00">dolphin/os/OSInterrupt.h</text>
</a>
</g>
</g>
<!-- Node18&#45;&gt;Node31 -->
<g id="edge45" class="edge">
<title>Node18&#45;&gt;Node31</title>
<path fill="none" stroke="#63b8ff" d="M1330.69,-324.45C1293,-320.04 1238.24,-309.28 1198,-283 1176.61,-269.03 1159.77,-244.46 1149.86,-227.37"/>
<polygon fill="#63b8ff" stroke="#63b8ff" points="1153,-225.8 1145.11,-218.73 1146.86,-229.18 1153,-225.8"/>
</g>
<!-- Node32 -->
<g id="node32" class="node">
<title>Node32</title>
<g id="a_node32"><a xlink:href="OSLink_8h.html" target="_top" xlink:title=" ">
<polygon fill="white" stroke="#666666" points="1323,-217 1219,-217 1219,-198 1323,-198 1323,-217"/>
<text text-anchor="middle" x="1271" y="-205" font-family="Helvetica,sans-Serif" font-size="10.00">dolphin/os/OSLink.h</text>
</a>
</g>
</g>
<!-- Node18&#45;&gt;Node32 -->
<g id="edge47" class="edge">
<title>Node18&#45;&gt;Node32</title>
<path fill="none" stroke="#63b8ff" d="M1371.2,-318.86C1366.07,-304.07 1354.02,-273.5 1336,-253 1325.46,-241 1311.01,-230.69 1298.41,-223.02"/>
<polygon fill="#63b8ff" stroke="#63b8ff" points="1300.53,-220.21 1290.12,-218.22 1297.01,-226.26 1300.53,-220.21"/>
</g>
<!-- Node33 -->
<g id="node33" class="node">
<title>Node33</title>
<g id="a_node33"><a xlink:href="OSMemory_8h.html" target="_top" xlink:title=" ">
<polygon fill="white" stroke="#666666" points="1327,-277.5 1207,-277.5 1207,-258.5 1327,-258.5 1327,-277.5"/>
<text text-anchor="middle" x="1267" y="-265.5" font-family="Helvetica,sans-Serif" font-size="10.00">dolphin/os/OSMemory.h</text>
</a>
</g>
</g>
<!-- Node18&#45;&gt;Node33 -->
<g id="edge49" class="edge">
<title>Node18&#45;&gt;Node33</title>
<path fill="none" stroke="#63b8ff" d="M1357.75,-318.62C1340.7,-309.29 1313.64,-294.5 1293.49,-283.49"/>
<polygon fill="#63b8ff" stroke="#63b8ff" points="1295.19,-280.42 1284.73,-278.69 1291.83,-286.56 1295.19,-280.42"/>
</g>
<!-- Node34 -->
<g id="node34" class="node">
<title>Node34</title>
<g id="a_node34"><a xlink:href="OSMessage_8h.html" target="_top" xlink:title=" ">
<polygon fill="white" stroke="#666666" points="906.5,-277.5 781.5,-277.5 781.5,-258.5 906.5,-258.5 906.5,-277.5"/>
<text text-anchor="middle" x="844" y="-265.5" font-family="Helvetica,sans-Serif" font-size="10.00">dolphin/os/OSMessage.h</text>
</a>
</g>
</g>
<!-- Node18&#45;&gt;Node34 -->
<g id="edge51" class="edge">
<title>Node18&#45;&gt;Node34</title>
<path fill="none" stroke="#63b8ff" d="M1330.58,-324.66C1249.05,-319.03 1067.59,-305.05 916,-283 910.01,-282.13 903.77,-281.1 897.57,-280"/>
<polygon fill="#63b8ff" stroke="#63b8ff" points="898.48,-276.61 888.01,-278.24 897.21,-283.49 898.48,-276.61"/>
</g>
<!-- Node35 -->
<g id="node35" class="node">
<title>Node35</title>
<g id="a_node35"><a xlink:href="OSThread_8h.html" target="_top" xlink:title=" ">
<polygon fill="white" stroke="#666666" points="897,-217 781,-217 781,-198 897,-198 897,-217"/>
<text text-anchor="middle" x="839" y="-205" font-family="Helvetica,sans-Serif" font-size="10.00">dolphin/os/OSThread.h</text>
</a>
</g>
</g>
<!-- Node18&#45;&gt;Node35 -->
<g id="edge65" class="edge">
<title>Node18&#45;&gt;Node35</title>
<path fill="none" stroke="#63b8ff" d="M1330.51,-324.05C1259.62,-317.91 1122.68,-303.76 1079,-283 1061.1,-274.49 1063.63,-262.06 1046,-253 1022.22,-240.78 958.6,-228.07 908.12,-219.38"/>
<polygon fill="#63b8ff" stroke="#63b8ff" points="908.85,-215.96 898.4,-217.74 907.68,-222.86 908.85,-215.96"/>
</g>
<!-- Node36 -->
<g id="node36" class="node">
<title>Node36</title>
<g id="a_node36"><a xlink:href="OSMutex_8h.html" target="_top" xlink:title=" ">
<polygon fill="white" stroke="#666666" points="1037,-277.5 925,-277.5 925,-258.5 1037,-258.5 1037,-277.5"/>
<text text-anchor="middle" x="981" y="-265.5" font-family="Helvetica,sans-Serif" font-size="10.00">dolphin/os/OSMutex.h</text>
</a>
</g>
</g>
<!-- Node18&#45;&gt;Node36 -->
<g id="edge54" class="edge">
<title>Node18&#45;&gt;Node36</title>
<path fill="none" stroke="#63b8ff" d="M1330.51,-322.36C1268.36,-314.81 1150.63,-299.81 1051,-283 1045.78,-282.12 1040.34,-281.14 1034.92,-280.12"/>
<polygon fill="#63b8ff" stroke="#63b8ff" points="1035.83,-276.74 1025.35,-278.29 1034.51,-283.61 1035.83,-276.74"/>
</g>
<!-- Node37 -->
<g id="node37" class="node">
<title>Node37</title>
<g id="a_node37"><a xlink:href="OSReboot_8h.html" target="_top" xlink:title=" ">
<polygon fill="white" stroke="#666666" points="1457,-217 1341,-217 1341,-198 1457,-198 1457,-217"/>
<text text-anchor="middle" x="1399" y="-205" font-family="Helvetica,sans-Serif" font-size="10.00">dolphin/os/OSReboot.h</text>
</a>
</g>
</g>
<!-- Node18&#45;&gt;Node37 -->
<g id="edge56" class="edge">
<title>Node18&#45;&gt;Node37</title>
<path fill="none" stroke="#63b8ff" d="M1375.88,-318.56C1379.88,-299.51 1389.32,-254.56 1394.82,-228.37"/>
<polygon fill="#63b8ff" stroke="#63b8ff" points="1398.23,-229.21 1396.86,-218.71 1391.37,-227.77 1398.23,-229.21"/>
</g>
<!-- Node38 -->
<g id="node38" class="node">
<title>Node38</title>
<g id="a_node38"><a xlink:href="OSReset_8h.html" target="_top" xlink:title=" ">
<polygon fill="white" stroke="#666666" points="1387.5,-156.5 1276.5,-156.5 1276.5,-137.5 1387.5,-137.5 1387.5,-156.5"/>
<text text-anchor="middle" x="1332" y="-144.5" font-family="Helvetica,sans-Serif" font-size="10.00">dolphin/os/OSReset.h</text>
</a>
</g>
</g>
<!-- Node18&#45;&gt;Node38 -->
<g id="edge58" class="edge">
<title>Node18&#45;&gt;Node38</title>
<path fill="none" stroke="#63b8ff" d="M1383.44,-318.76C1410.03,-293.69 1482.51,-221.79 1466,-198 1455.78,-183.28 1414.47,-169.26 1380.38,-159.83"/>
<polygon fill="#63b8ff" stroke="#63b8ff" points="1381.65,-156.55 1371.08,-157.33 1379.83,-163.31 1381.65,-156.55"/>
</g>
<!-- Node39 -->
<g id="node39" class="node">
<title>Node39</title>
<g id="a_node39"><a xlink:href="OSResetSW_8h.html" target="_top" xlink:title=" ">
<polygon fill="white" stroke="#666666" points="1532.5,-156.5 1405.5,-156.5 1405.5,-137.5 1532.5,-137.5 1532.5,-156.5"/>
<text text-anchor="middle" x="1469" y="-144.5" font-family="Helvetica,sans-Serif" font-size="10.00">dolphin/os/OSResetSW.h</text>
</a>
</g>
</g>
<!-- Node18&#45;&gt;Node39 -->
<g id="edge60" class="edge">
<title>Node18&#45;&gt;Node39</title>
<path fill="none" stroke="#63b8ff" d="M1394.62,-318.65C1410.49,-311.03 1432.14,-298.77 1447,-283 1475.01,-253.26 1487.18,-238.53 1482,-198 1480.7,-187.85 1477.98,-176.81 1475.36,-167.69"/>
<polygon fill="#63b8ff" stroke="#63b8ff" points="1478.71,-166.7 1472.43,-158.17 1472.02,-168.75 1478.71,-166.7"/>
</g>
<!-- Node40 -->
<g id="node40" class="node">
<title>Node40</title>
<g id="a_node40"><a xlink:href="OSRtc_8h.html" target="_top" xlink:title=" ">
<polygon fill="white" stroke="#666666" points="1598.5,-277.5 1497.5,-277.5 1497.5,-258.5 1598.5,-258.5 1598.5,-277.5"/>
<text text-anchor="middle" x="1548" y="-265.5" font-family="Helvetica,sans-Serif" font-size="10.00">dolphin/os/OSRtc.h</text>
</a>
</g>
</g>
<!-- Node18&#45;&gt;Node40 -->
<g id="edge62" class="edge">
<title>Node18&#45;&gt;Node40</title>
<path fill="none" stroke="#63b8ff" d="M1400.43,-318.62C1429.81,-308.74 1477.49,-292.71 1510.67,-281.55"/>
<polygon fill="#63b8ff" stroke="#63b8ff" points="1511.53,-284.96 1519.89,-278.45 1509.3,-278.32 1511.53,-284.96"/>
</g>
<!-- Node41 -->
<g id="node41" class="node">
<title>Node41</title>
<g id="a_node41"><a xlink:href="OSSync_8h.html" target="_top" xlink:title=" ">
<polygon fill="white" stroke="#666666" points="1961.5,-277.5 1854.5,-277.5 1854.5,-258.5 1961.5,-258.5 1961.5,-277.5"/>
<text text-anchor="middle" x="1908" y="-265.5" font-family="Helvetica,sans-Serif" font-size="10.00">dolphin/os/OSSync.h</text>
</a>
</g>
</g>
<!-- Node18&#45;&gt;Node41 -->
<g id="edge64" class="edge">
<title>Node18&#45;&gt;Node41</title>
<path fill="none" stroke="#63b8ff" d="M1417.41,-325.21C1500.71,-320.42 1688.62,-307.67 1845,-283 1849.93,-282.22 1855.05,-281.29 1860.14,-280.29"/>
<polygon fill="#63b8ff" stroke="#63b8ff" points="1860.61,-283.76 1869.69,-278.3 1859.18,-276.91 1860.61,-283.76"/>
</g>
<!-- Node19&#45;&gt;Node7 -->
<g id="edge23" class="edge">
<title>Node19&#45;&gt;Node7</title>
<path fill="none" stroke="#63b8ff" d="M1588.68,-134.53C1584.06,-133.65 1579.45,-132.79 1575,-132 1478.19,-114.79 1364.6,-98.23 1299.98,-89.16"/>
<polygon fill="#63b8ff" stroke="#63b8ff" points="1300.78,-85.73 1290.39,-87.81 1299.81,-92.66 1300.78,-85.73"/>
</g>
<!-- Node20&#45;&gt;Node7 -->
<g id="edge25" class="edge">
<title>Node20&#45;&gt;Node7</title>
<path fill="none" stroke="#63b8ff" d="M1716.44,-197.72C1720.17,-182.15 1725.19,-149.67 1708,-132 1679.98,-103.19 1414.65,-88.87 1300.17,-83.99"/>
<polygon fill="#63b8ff" stroke="#63b8ff" points="1300.57,-80.5 1290.43,-83.58 1300.28,-87.5 1300.57,-80.5"/>
</g>
<!-- Node21&#45;&gt;Node22 -->
<g id="edge27" class="edge">
<title>Node21&#45;&gt;Node22</title>
<path fill="none" stroke="#63b8ff" d="M2058.05,-258.12C2041.32,-248.79 2014.77,-234 1995,-222.99"/>
<polygon fill="#63b8ff" stroke="#63b8ff" points="1996.86,-220.01 1986.42,-218.21 1993.45,-226.13 1996.86,-220.01"/>
</g>
<!-- Node21&#45;&gt;Node23 -->
<g id="edge29" class="edge">
<title>Node21&#45;&gt;Node23</title>
<path fill="none" stroke="#63b8ff" d="M2076.95,-258.37C2079.67,-250.42 2083.8,-238.33 2087.32,-228.05"/>
<polygon fill="#63b8ff" stroke="#63b8ff" points="2090.62,-229.19 2090.55,-218.6 2084,-226.93 2090.62,-229.19"/>
</g>
<!-- Node22&#45;&gt;Node7 -->
<g id="edge28" class="edge">
<title>Node22&#45;&gt;Node7</title>
<path fill="none" stroke="#63b8ff" d="M1945.46,-197.52C1902.79,-181.64 1809.52,-148.68 1728,-132 1574.42,-100.58 1388.94,-88.38 1300.22,-84.09"/>
<polygon fill="#63b8ff" stroke="#63b8ff" points="1300.53,-80.6 1290.38,-83.63 1300.2,-87.59 1300.53,-80.6"/>
</g>
<!-- Node23&#45;&gt;Node7 -->
<g id="edge30" class="edge">
<title>Node23&#45;&gt;Node7</title>
<path fill="none" stroke="#63b8ff" d="M2065.01,-197.56C2012.51,-181.74 1897.94,-148.87 1799,-132 1617.25,-101 1398.28,-88.38 1300.09,-84"/>
<polygon fill="#63b8ff" stroke="#63b8ff" points="1300.38,-80.51 1290.23,-83.57 1300.07,-87.51 1300.38,-80.51"/>
</g>
<!-- Node24&#45;&gt;Node7 -->
<g id="edge32" class="edge">
<title>Node24&#45;&gt;Node7</title>
<path fill="none" stroke="#63b8ff" d="M595.57,-137.06C604.18,-135.15 613.38,-133.31 622,-132 833.16,-99.89 1087.74,-87.65 1195.62,-83.66"/>
<polygon fill="#63b8ff" stroke="#63b8ff" points="1195.74,-87.16 1205.61,-83.31 1195.49,-80.17 1195.74,-87.16"/>
</g>
<!-- Node25&#45;&gt;Node7 -->
<g id="edge34" class="edge">
<title>Node25&#45;&gt;Node7</title>
<path fill="none" stroke="#63b8ff" d="M728.34,-137.05C737.73,-135.21 747.69,-133.4 757,-132 916.1,-108.05 1105.96,-92.33 1195.86,-85.66"/>
<polygon fill="#63b8ff" stroke="#63b8ff" points="1195.87,-89.17 1205.59,-84.94 1195.36,-82.19 1195.87,-89.17"/>
</g>
<!-- Node27&#45;&gt;Node7 -->
<g id="edge37" class="edge">
<title>Node27&#45;&gt;Node7</title>
<path fill="none" stroke="#63b8ff" d="M674.63,-258.15C695.48,-230.6 760.04,-147.31 790,-132 859.86,-96.31 1091.54,-85.96 1196.06,-83.07"/>
<polygon fill="#63b8ff" stroke="#63b8ff" points="1195.84,-86.58 1205.75,-82.81 1195.66,-79.58 1195.84,-86.58"/>
</g>
<!-- Node28&#45;&gt;Node7 -->
<g id="edge39" class="edge">
<title>Node28&#45;&gt;Node7</title>
<path fill="none" stroke="#63b8ff" d="M913.5,-137.03C988.42,-124.71 1122.32,-102.68 1195.94,-90.57"/>
<polygon fill="#63b8ff" stroke="#63b8ff" points="1196.43,-94.03 1205.73,-88.96 1195.29,-87.13 1196.43,-94.03"/>
</g>
<!-- Node29&#45;&gt;Node7 -->
<g id="edge42" class="edge">
<title>Node29&#45;&gt;Node7</title>
<path fill="none" stroke="#63b8ff" d="M971.77,-197.52C977.15,-181.63 990.62,-148.66 1014,-132 1067.83,-93.65 1145.14,-83.66 1195.95,-81.59"/>
<polygon fill="#63b8ff" stroke="#63b8ff" points="1195.91,-85.09 1205.8,-81.28 1195.7,-78.09 1195.91,-85.09"/>
</g>
<!-- Node30&#45;&gt;Node7 -->
<g id="edge44" class="edge">
<title>Node30&#45;&gt;Node7</title>
<path fill="none" stroke="#63b8ff" d="M1099.92,-137.1C1129.36,-126.15 1179.58,-107.46 1213.27,-94.92"/>
<polygon fill="#63b8ff" stroke="#63b8ff" points="1214.44,-98.22 1222.59,-91.45 1212,-91.66 1214.44,-98.22"/>
</g>
<!-- Node31&#45;&gt;Node7 -->
<g id="edge46" class="edge">
<title>Node31&#45;&gt;Node7</title>
<path fill="none" stroke="#63b8ff" d="M1147.77,-197.55C1165.59,-177 1209.69,-126.16 1233,-99.29"/>
<polygon fill="#63b8ff" stroke="#63b8ff" points="1235.4,-101.86 1239.31,-92.02 1230.11,-97.28 1235.4,-101.86"/>
</g>
<!-- Node32&#45;&gt;Node7 -->
<g id="edge48" class="edge">
<title>Node32&#45;&gt;Node7</title>
<path fill="none" stroke="#63b8ff" d="M1260.21,-197.55C1251.26,-189.36 1239.19,-176.36 1234,-162 1226.75,-141.94 1232.96,-117.65 1239.25,-101.14"/>
<polygon fill="#63b8ff" stroke="#63b8ff" points="1242.42,-102.63 1243.07,-92.05 1235.97,-99.92 1242.42,-102.63"/>
</g>
<!-- Node33&#45;&gt;Node31 -->
<g id="edge50" class="edge">
<title>Node33&#45;&gt;Node31</title>
<path fill="none" stroke="#63b8ff" d="M1247.71,-258.12C1227.01,-248.58 1193.87,-233.31 1169.81,-222.23"/>
<polygon fill="#63b8ff" stroke="#63b8ff" points="1171.39,-219.11 1160.84,-218.1 1168.46,-225.46 1171.39,-219.11"/>
</g>
<!-- Node34&#45;&gt;Node35 -->
<g id="edge52" class="edge">
<title>Node34&#45;&gt;Node35</title>
<path fill="none" stroke="#63b8ff" d="M843.26,-258.37C842.59,-250.5 841.57,-238.6 840.7,-228.39"/>
<polygon fill="#63b8ff" stroke="#63b8ff" points="844.21,-228.34 839.87,-218.68 837.23,-228.94 844.21,-228.34"/>
</g>
<!-- Node35&#45;&gt;Node28 -->
<g id="edge53" class="edge">
<title>Node35&#45;&gt;Node28</title>
<path fill="none" stroke="#63b8ff" d="M841.95,-197.87C844.67,-189.92 848.8,-177.83 852.32,-167.55"/>
<polygon fill="#63b8ff" stroke="#63b8ff" points="855.62,-168.69 855.55,-158.1 849,-166.43 855.62,-168.69"/>
</g>
<!-- Node36&#45;&gt;Node35 -->
<g id="edge55" class="edge">
<title>Node36&#45;&gt;Node35</title>
<path fill="none" stroke="#63b8ff" d="M959.43,-258.12C935.98,-248.45 898.23,-232.9 871.24,-221.78"/>
<polygon fill="#63b8ff" stroke="#63b8ff" points="872.75,-218.62 862.17,-218.05 870.08,-225.09 872.75,-218.62"/>
</g>
<!-- Node37&#45;&gt;Node7 -->
<g id="edge57" class="edge">
<title>Node37&#45;&gt;Node7</title>
<path fill="none" stroke="#63b8ff" d="M1340.71,-199.73C1314.78,-193.81 1285.9,-182.73 1267,-162 1252.22,-145.79 1248.33,-120.21 1247.59,-102.35"/>
<polygon fill="#63b8ff" stroke="#63b8ff" points="1251.1,-102.44 1247.51,-92.47 1244.1,-102.5 1251.1,-102.44"/>
</g>
<!-- Node38&#45;&gt;Node7 -->
<g id="edge59" class="edge">
<title>Node38&#45;&gt;Node7</title>
<path fill="none" stroke="#63b8ff" d="M1320.32,-137.1C1306.9,-126.88 1284.65,-109.93 1268.37,-97.52"/>
<polygon fill="#63b8ff" stroke="#63b8ff" points="1270.86,-95.02 1260.78,-91.74 1266.62,-100.59 1270.86,-95.02"/>
</g>
<!-- Node39&#45;&gt;Node7 -->
<g id="edge61" class="edge">
<title>Node39&#45;&gt;Node7</title>
<path fill="none" stroke="#63b8ff" d="M1438.27,-137.1C1399.62,-125.91 1333.09,-106.64 1289.83,-94.11"/>
<polygon fill="#63b8ff" stroke="#63b8ff" points="1290.86,-90.77 1280.28,-91.35 1288.91,-97.49 1290.86,-90.77"/>
</g>
<!-- Node40&#45;&gt;Node7 -->
<g id="edge63" class="edge">
<title>Node40&#45;&gt;Node7</title>
<path fill="none" stroke="#63b8ff" d="M1550.88,-258.05C1557.93,-234.16 1573.28,-168.3 1541,-132 1509.85,-96.97 1375.35,-86.48 1299.88,-83.34"/>
<polygon fill="#63b8ff" stroke="#63b8ff" points="1300.38,-79.86 1290.25,-82.97 1300.11,-86.85 1300.38,-79.86"/>
</g>
<!-- Node42&#45;&gt;Node7 -->
<g id="edge68" class="edge">
<title>Node42&#45;&gt;Node7</title>
<path fill="none" stroke="#63b8ff" d="M2180.88,-373.7C2198.03,-355.72 2234,-312.78 2234,-269 2234,-269 2234,-269 2234,-206.5 2234,-128.86 2151.21,-151.24 2076,-132 1928.15,-94.17 1457.57,-84.71 1299.99,-82.57"/>
<polygon fill="#63b8ff" stroke="#63b8ff" points="1300.31,-79.08 1290.27,-82.44 1300.22,-86.08 1300.31,-79.08"/>
</g>
</g>
</svg>
