<?xml version="1.0" encoding="UTF-8" standalone="no"?>
<!DOCTYPE svg PUBLIC "-//W3C//DTD SVG 1.1//EN"
 "http://www.w3.org/Graphics/SVG/1.1/DTD/svg11.dtd">
<!-- Generated by graphviz version 7.0.4 (20221203.1631)
 -->
<!-- Title: include/Z2AudioLib/Z2SoundStarter.h Pages: 1 -->
<svg width="2360pt" height="621pt"
 viewBox="0.00 0.00 2360.39 621.00" xmlns="http://www.w3.org/2000/svg" xmlns:xlink="http://www.w3.org/1999/xlink">
<g id="graph0" class="graph" transform="scale(1 1) rotate(0) translate(4 617)">
<title>include/Z2AudioLib/Z2SoundStarter.h</title>
<!-- Node1 -->
<g id="node1" class="node">
<title>Node1</title>
<g id="a_node1"><a xlink:title=" ">
<polygon fill="#999999" stroke="#666666" points="1627.04,-613 1527.04,-613 1527.04,-583 1627.04,-583 1627.04,-613"/>
<text text-anchor="start" x="1535.04" y="-601" font-family="Helvetica,sans-Serif" font-size="10.00">include/Z2AudioLib</text>
<text text-anchor="middle" x="1577.04" y="-590" font-family="Helvetica,sans-Serif" font-size="10.00">/Z2SoundStarter.h</text>
</a>
</g>
</g>
<!-- Node2 -->
<g id="node2" class="node">
<title>Node2</title>
<g id="a_node2"><a xlink:href="Z2AudioMgr_8h.html" target="_top" xlink:title=" ">
<polygon fill="white" stroke="#666666" points="1646.04,-349 1546.04,-349 1546.04,-319 1646.04,-319 1646.04,-349"/>
<text text-anchor="start" x="1554.04" y="-337" font-family="Helvetica,sans-Serif" font-size="10.00">include/Z2AudioLib</text>
<text text-anchor="middle" x="1596.04" y="-326" font-family="Helvetica,sans-Serif" font-size="10.00">/Z2AudioMgr.h</text>
</a>
</g>
</g>
<!-- Node1&#45;&gt;Node2 -->
<g id="edge1" class="edge">
<title>Node1&#45;&gt;Node2</title>
<path fill="none" stroke="#63b8ff" d="M1564.98,-572.24C1561.74,-564.36 1558.67,-555.49 1557.04,-547 1542.74,-472.77 1575.29,-383.69 1589.66,-349.41"/>
<polygon fill="#63b8ff" stroke="#63b8ff" points="1561.69,-573.46 1568.95,-581.19 1568.09,-570.63 1561.69,-573.46"/>
</g>
<!-- Node246 -->
<g id="node34" class="node">
<title>Node246</title>
<g id="a_node34"><a xlink:href="Z2SoundObject_8h.html" target="_top" xlink:title=" ">
<polygon fill="white" stroke="#666666" points="459.04,-547 359.04,-547 359.04,-517 459.04,-517 459.04,-547"/>
<text text-anchor="start" x="367.04" y="-535" font-family="Helvetica,sans-Serif" font-size="10.00">include/Z2AudioLib</text>
<text text-anchor="middle" x="409.04" y="-524" font-family="Helvetica,sans-Serif" font-size="10.00">/Z2SoundObject.h</text>
</a>
</g>
</g>
<!-- Node1&#45;&gt;Node246 -->
<g id="edge45" class="edge">
<title>Node1&#45;&gt;Node246</title>
<path fill="none" stroke="#63b8ff" d="M1515.38,-593.62C1309.4,-582.33 647.53,-546.07 459.37,-535.76"/>
<polygon fill="#63b8ff" stroke="#63b8ff" points="1515.17,-597.11 1525.34,-594.17 1515.55,-590.13 1515.17,-597.11"/>
</g>
<!-- Node255 -->
<g id="node48" class="node">
<title>Node255</title>
<g id="a_node48"><a xlink:href="Z2SpeechMgr2_8h.html" target="_top" xlink:title=" ">
<polygon fill="white" stroke="#666666" points="1666.04,-547 1566.04,-547 1566.04,-517 1666.04,-517 1666.04,-547"/>
<text text-anchor="start" x="1574.04" y="-535" font-family="Helvetica,sans-Serif" font-size="10.00">include/Z2AudioLib</text>
<text text-anchor="middle" x="1616.04" y="-524" font-family="Helvetica,sans-Serif" font-size="10.00">/Z2SpeechMgr2.h</text>
</a>
</g>
</g>
<!-- Node1&#45;&gt;Node255 -->
<g id="edge66" class="edge">
<title>Node1&#45;&gt;Node255</title>
<path fill="none" stroke="#63b8ff" d="M1591.6,-573.11C1596.92,-564.38 1602.77,-554.78 1607.41,-547.16"/>
<polygon fill="#63b8ff" stroke="#63b8ff" points="1588.7,-571.14 1586.48,-581.5 1594.68,-574.79 1588.7,-571.14"/>
</g>
<!-- Node257 -->
<g id="node50" class="node">
<title>Node257</title>
<g id="a_node50"><a xlink:href="Z2SoundStarter_8cpp.html" target="_top" xlink:title=" ">
<polygon fill="white" stroke="#666666" points="1857.54,-541.5 1684.54,-541.5 1684.54,-522.5 1857.54,-522.5 1857.54,-541.5"/>
<text text-anchor="middle" x="1771.04" y="-529.5" font-family="Helvetica,sans-Serif" font-size="10.00">libs/Z2AudioLib/Z2SoundStarter.cpp</text>
</a>
</g>
</g>
<!-- Node1&#45;&gt;Node257 -->
<g id="edge69" class="edge">
<title>Node1&#45;&gt;Node257</title>
<path fill="none" stroke="#63b8ff" d="M1631.11,-579.16C1667.77,-567.07 1714.69,-551.59 1743.8,-541.99"/>
<polygon fill="#63b8ff" stroke="#63b8ff" points="1630.42,-575.71 1622.02,-582.16 1632.61,-582.35 1630.42,-575.71"/>
</g>
<!-- Node3 -->
<g id="node3" class="node">
<title>Node3</title>
<g id="a_node3"><a xlink:href="m__Do__audio_8h.html" target="_top" xlink:title=" ">
<polygon fill="white" stroke="#666666" points="1666.04,-277.5 1526.04,-277.5 1526.04,-258.5 1666.04,-258.5 1666.04,-277.5"/>
<text text-anchor="middle" x="1596.04" y="-265.5" font-family="Helvetica,sans-Serif" font-size="10.00">include/m_Do/m_Do_audio.h</text>
</a>
</g>
</g>
<!-- Node2&#45;&gt;Node3 -->
<g id="edge2" class="edge">
<title>Node2&#45;&gt;Node3</title>
<path fill="none" stroke="#63b8ff" d="M1596.04,-307.59C1596.04,-297.06 1596.04,-285.53 1596.04,-277.84"/>
<polygon fill="#63b8ff" stroke="#63b8ff" points="1592.54,-307.28 1596.04,-317.28 1599.54,-307.28 1592.54,-307.28"/>
</g>
<!-- Node17 -->
<g id="node7" class="node">
<title>Node17</title>
<g id="a_node7"><a xlink:href="d__a__alink_8cpp.html" target="_top" xlink:title=" ">
<polygon fill="white" stroke="#666666" points="517.54,-19 408.54,-19 408.54,0 517.54,0 517.54,-19"/>
<text text-anchor="middle" x="463.04" y="-7" font-family="Helvetica,sans-Serif" font-size="10.00">src/d/a/d_a_alink.cpp</text>
</a>
</g>
</g>
<!-- Node2&#45;&gt;Node17 -->
<g id="edge40" class="edge">
<title>Node2&#45;&gt;Node17</title>
<path fill="none" stroke="#63b8ff" d="M1657.94,-332.35C1758.42,-330.16 1962.75,-320.94 2131.04,-283 2232.13,-260.21 2350.04,-306.62 2350.04,-203 2350.04,-203 2350.04,-203 2350.04,-135 2350.04,-98.46 2359.44,-78 2331.04,-55 2294.89,-25.72 823.07,-13.18 518.03,-10.89"/>
<polygon fill="#63b8ff" stroke="#63b8ff" points="1657.94,-328.85 1648.01,-332.55 1658.08,-335.85 1657.94,-328.85"/>
</g>
<!-- Node40 -->
<g id="node16" class="node">
<title>Node40</title>
<g id="a_node16"><a xlink:href="d__menu__window_8cpp.html" target="_top" xlink:title=" ">
<polygon fill="white" stroke="#666666" points="2321.54,-79.5 2162.54,-79.5 2162.54,-60.5 2321.54,-60.5 2321.54,-79.5"/>
<text text-anchor="middle" x="2242.04" y="-67.5" font-family="Helvetica,sans-Serif" font-size="10.00">src/d/menu/d_menu_window.cpp</text>
</a>
</g>
</g>
<!-- Node2&#45;&gt;Node40 -->
<g id="edge42" class="edge">
<title>Node2&#45;&gt;Node40</title>
<path fill="none" stroke="#63b8ff" d="M1657.19,-330.62C1799.48,-323.72 2146.52,-298.72 2223.04,-217 2259.73,-177.82 2249.01,-104.67 2243.97,-79.65"/>
<polygon fill="#63b8ff" stroke="#63b8ff" points="1657.42,-327.1 1647.6,-331.07 1657.75,-334.09 1657.42,-327.1"/>
</g>
<!-- Node94 -->
<g id="node23" class="node">
<title>Node94</title>
<g id="a_node23"><a xlink:href="d__event__manager_8cpp.html" target="_top" xlink:title=" ">
<polygon fill="white" stroke="#666666" points="2213.54,-217 2110.54,-217 2110.54,-187 2213.54,-187 2213.54,-217"/>
<text text-anchor="start" x="2118.54" y="-205" font-family="Helvetica,sans-Serif" font-size="10.00">src/d/event/d_event</text>
<text text-anchor="middle" x="2162.04" y="-194" font-family="Helvetica,sans-Serif" font-size="10.00">_manager.cpp</text>
</a>
</g>
</g>
<!-- Node2&#45;&gt;Node94 -->
<g id="edge41" class="edge">
<title>Node2&#45;&gt;Node94</title>
<path fill="none" stroke="#63b8ff" d="M1629.72,-312.76C1643.93,-303.94 1660.51,-293.29 1675.04,-283 1692.6,-270.56 1693.07,-261 1713.04,-253 1871.75,-189.42 1927.02,-242.78 2096.04,-217 2100.67,-216.29 2105.47,-215.47 2110.26,-214.57"/>
<polygon fill="#63b8ff" stroke="#63b8ff" points="1628.29,-309.53 1621.61,-317.74 1631.96,-315.49 1628.29,-309.53"/>
</g>
<!-- Node245 -->
<g id="node31" class="node">
<title>Node245</title>
<g id="a_node31"><a xlink:href="Z2AudioMgr_8cpp.html" target="_top" xlink:title=" ">
<polygon fill="white" stroke="#666666" points="1880.04,-277.5 1722.04,-277.5 1722.04,-258.5 1880.04,-258.5 1880.04,-277.5"/>
<text text-anchor="middle" x="1801.04" y="-265.5" font-family="Helvetica,sans-Serif" font-size="10.00">libs/Z2AudioLib/Z2AudioMgr.cpp</text>
</a>
</g>
</g>
<!-- Node2&#45;&gt;Node245 -->
<g id="edge39" class="edge">
<title>Node2&#45;&gt;Node245</title>
<path fill="none" stroke="#63b8ff" d="M1652.93,-315.24C1691.74,-303.12 1741.51,-287.59 1772.33,-277.96"/>
<polygon fill="#63b8ff" stroke="#63b8ff" points="1652.25,-311.79 1643.75,-318.11 1654.34,-318.47 1652.25,-311.79"/>
</g>
<!-- Node41 -->
<g id="node32" class="node">
<title>Node41</title>
<g id="a_node32"><a xlink:href="d__meter__map_8cpp.html" target="_top" xlink:title=" ">
<polygon fill="white" stroke="#666666" points="1374.04,-283 1270.04,-283 1270.04,-253 1374.04,-253 1374.04,-283"/>
<text text-anchor="start" x="1278.04" y="-271" font-family="Helvetica,sans-Serif" font-size="10.00">src/d/meter/d_meter</text>
<text text-anchor="middle" x="1322.04" y="-260" font-family="Helvetica,sans-Serif" font-size="10.00">_map.cpp</text>
</a>
</g>
</g>
<!-- Node2&#45;&gt;Node41 -->
<g id="edge43" class="edge">
<title>Node2&#45;&gt;Node41</title>
<path fill="none" stroke="#63b8ff" d="M1534.86,-318.71C1486.63,-307.44 1420.08,-291.9 1374.31,-281.21"/>
<polygon fill="#63b8ff" stroke="#63b8ff" points="1533.78,-322.05 1544.31,-320.92 1535.37,-315.23 1533.78,-322.05"/>
</g>
<!-- Node42 -->
<g id="node33" class="node">
<title>Node42</title>
<g id="a_node33"><a xlink:href="d__save_8cpp.html" target="_top" xlink:title=" ">
<polygon fill="white" stroke="#666666" points="1507.54,-277.5 1392.54,-277.5 1392.54,-258.5 1507.54,-258.5 1507.54,-277.5"/>
<text text-anchor="middle" x="1450.04" y="-265.5" font-family="Helvetica,sans-Serif" font-size="10.00">src/d/save/d_save.cpp</text>
</a>
</g>
</g>
<!-- Node2&#45;&gt;Node42 -->
<g id="edge44" class="edge">
<title>Node2&#45;&gt;Node42</title>
<path fill="none" stroke="#63b8ff" d="M1552.84,-314.06C1525.65,-302.14 1491.79,-287.3 1470.54,-277.99"/>
<polygon fill="#63b8ff" stroke="#63b8ff" points="1551.33,-317.22 1561.89,-318.03 1554.14,-310.81 1551.33,-317.22"/>
</g>
<!-- Node4 -->
<g id="node4" class="node">
<title>Node4</title>
<g id="a_node4"><a xlink:href="m__Do__ext_8h.html" target="_top" xlink:title=" ">
<polygon fill="#fff0f0" stroke="red" points="1661.04,-211.5 1531.04,-211.5 1531.04,-192.5 1661.04,-192.5 1661.04,-211.5"/>
<text text-anchor="middle" x="1596.04" y="-199.5" font-family="Helvetica,sans-Serif" font-size="10.00">include/m_Do/m_Do_ext.h</text>
</a>
</g>
</g>
<!-- Node3&#45;&gt;Node4 -->
<g id="edge3" class="edge">
<title>Node3&#45;&gt;Node4</title>
<path fill="none" stroke="#63b8ff" d="M1596.04,-246.68C1596.04,-234.94 1596.04,-220.77 1596.04,-211.82"/>
<polygon fill="#63b8ff" stroke="#63b8ff" points="1592.54,-246.59 1596.04,-256.59 1599.54,-246.59 1592.54,-246.59"/>
</g>
<!-- Node3&#45;&gt;Node17 -->
<g id="edge24" class="edge">
<title>Node3&#45;&gt;Node17</title>
<path fill="none" stroke="#63b8ff" d="M1540.11,-256.21C1532.06,-254.95 1523.86,-253.82 1516.04,-253 1461.64,-247.27 570.25,-256.15 532.04,-217 481.75,-165.47 564.46,-118.24 530.04,-55 520.83,-38.07 502.08,-26.47 486.75,-19.36"/>
<polygon fill="#63b8ff" stroke="#63b8ff" points="1539.41,-259.64 1549.85,-257.82 1540.55,-252.74 1539.41,-259.64"/>
</g>
<!-- Node22 -->
<g id="node12" class="node">
<title>Node22</title>
<g id="a_node12"><a xlink:href="d__com__inf__game_8cpp.html" target="_top" xlink:title=" ">
<polygon fill="white" stroke="#666666" points="1542.04,-85 1434.04,-85 1434.04,-55 1542.04,-55 1542.04,-85"/>
<text text-anchor="start" x="1442.04" y="-73" font-family="Helvetica,sans-Serif" font-size="10.00">src/d/com/d_com_inf</text>
<text text-anchor="middle" x="1488.04" y="-62" font-family="Helvetica,sans-Serif" font-size="10.00">_game.cpp</text>
</a>
</g>
</g>
<!-- Node3&#45;&gt;Node22 -->
<g id="edge25" class="edge">
<title>Node3&#45;&gt;Node22</title>
<path fill="none" stroke="#63b8ff" d="M1629.96,-253.12C1645.12,-245.01 1661.47,-233.13 1670.04,-217 1682.63,-193.3 1658.07,-125.26 1654.04,-121 1646.07,-112.59 1587.62,-96.2 1542.3,-84.48"/>
<polygon fill="#63b8ff" stroke="#63b8ff" points="1628.54,-249.92 1621.12,-257.48 1631.64,-256.2 1628.54,-249.92"/>
</g>
<!-- Node52 -->
<g id="node13" class="node">
<title>Node52</title>
<g id="a_node13"><a xlink:href="d__kankyo_8cpp.html" target="_top" xlink:title=" ">
<polygon fill="white" stroke="#666666" points="1694.04,-79.5 1560.04,-79.5 1560.04,-60.5 1694.04,-60.5 1694.04,-79.5"/>
<text text-anchor="middle" x="1627.04" y="-67.5" font-family="Helvetica,sans-Serif" font-size="10.00">src/d/kankyo/d_kankyo.cpp</text>
</a>
</g>
</g>
<!-- Node3&#45;&gt;Node52 -->
<g id="edge28" class="edge">
<title>Node3&#45;&gt;Node52</title>
<path fill="none" stroke="#63b8ff" d="M1651.71,-254.3C1671.38,-246.85 1691.47,-235.17 1703.04,-217 1725.95,-181.01 1723.29,-158.56 1703.04,-121 1692.25,-100.98 1669.55,-87.66 1651.76,-79.84"/>
<polygon fill="#63b8ff" stroke="#63b8ff" points="1650.64,-250.97 1642.32,-257.53 1652.91,-257.59 1650.64,-250.97"/>
</g>
<!-- Node96 -->
<g id="node14" class="node">
<title>Node96</title>
<g id="a_node14"><a xlink:href="d__kankyo__wether_8cpp.html" target="_top" xlink:title=" ">
<polygon fill="white" stroke="#666666" points="1828.04,-85 1712.04,-85 1712.04,-55 1828.04,-55 1828.04,-85"/>
<text text-anchor="start" x="1720.04" y="-73" font-family="Helvetica,sans-Serif" font-size="10.00">src/d/kankyo/d_kankyo</text>
<text text-anchor="middle" x="1770.04" y="-62" font-family="Helvetica,sans-Serif" font-size="10.00">_wether.cpp</text>
</a>
</g>
</g>
<!-- Node3&#45;&gt;Node96 -->
<g id="edge29" class="edge">
<title>Node3&#45;&gt;Node96</title>
<path fill="none" stroke="#63b8ff" d="M1657.08,-254.79C1680.43,-247.36 1705.61,-235.57 1723.04,-217 1758.57,-179.13 1767.24,-114.24 1769.36,-85.47"/>
<polygon fill="#63b8ff" stroke="#63b8ff" points="1656.22,-251.4 1647.62,-257.58 1658.2,-258.11 1656.22,-251.4"/>
</g>
<!-- Node43 -->
<g id="node17" class="node">
<title>Node43</title>
<g id="a_node17"><a xlink:href="d__meter2_8cpp.html" target="_top" xlink:title=" ">
<polygon fill="white" stroke="#666666" points="1974.04,-79.5 1846.04,-79.5 1846.04,-60.5 1974.04,-60.5 1974.04,-79.5"/>
<text text-anchor="middle" x="1910.04" y="-67.5" font-family="Helvetica,sans-Serif" font-size="10.00">src/d/meter/d_meter2.cpp</text>
</a>
</g>
</g>
<!-- Node3&#45;&gt;Node43 -->
<g id="edge30" class="edge">
<title>Node3&#45;&gt;Node43</title>
<path fill="none" stroke="#63b8ff" d="M1654.14,-256C1659.84,-254.97 1665.55,-253.95 1671.04,-253 1720.93,-244.35 1861.38,-253.92 1896.04,-217 1932.64,-178.02 1918.61,-104.74 1912.39,-79.67"/>
<polygon fill="#63b8ff" stroke="#63b8ff" points="1653.91,-252.48 1644.71,-257.73 1655.17,-259.37 1653.91,-252.48"/>
</g>
<!-- Node11 -->
<g id="node18" class="node">
<title>Node11</title>
<g id="a_node18"><a xlink:href="d__shop__system_8cpp.html" target="_top" xlink:title=" ">
<polygon fill="white" stroke="#666666" points="2144.04,-79.5 1992.04,-79.5 1992.04,-60.5 2144.04,-60.5 2144.04,-79.5"/>
<text text-anchor="middle" x="2068.04" y="-67.5" font-family="Helvetica,sans-Serif" font-size="10.00">src/d/shop/d_shop_system.cpp</text>
</a>
</g>
</g>
<!-- Node3&#45;&gt;Node11 -->
<g id="edge35" class="edge">
<title>Node3&#45;&gt;Node11</title>
<path fill="none" stroke="#63b8ff" d="M1653.63,-256.01C1659.5,-254.96 1665.39,-253.94 1671.04,-253 1780.48,-234.82 1811.49,-247.88 1918.04,-217 1987.22,-196.95 2026.08,-210.92 2066.04,-151 2080.69,-129.04 2074.69,-95.61 2070.63,-79.83"/>
<polygon fill="#63b8ff" stroke="#63b8ff" points="1653.1,-252.55 1643.89,-257.78 1654.35,-259.44 1653.1,-252.55"/>
</g>
<!-- Node31 -->
<g id="node22" class="node">
<title>Node31</title>
<g id="a_node22"><a xlink:href="d__name_8cpp.html" target="_top" xlink:title=" ">
<polygon fill="white" stroke="#666666" points="1887.04,-211.5 1793.04,-211.5 1793.04,-192.5 1887.04,-192.5 1887.04,-211.5"/>
<text text-anchor="middle" x="1840.04" y="-199.5" font-family="Helvetica,sans-Serif" font-size="10.00">src/d/d_name.cpp</text>
</a>
</g>
</g>
<!-- Node3&#45;&gt;Node31 -->
<g id="edge26" class="edge">
<title>Node3&#45;&gt;Node31</title>
<path fill="none" stroke="#63b8ff" d="M1641.16,-255.16C1688.88,-242.65 1763.09,-223.18 1806.09,-211.91"/>
<polygon fill="#63b8ff" stroke="#63b8ff" points="1640.47,-251.73 1631.69,-257.65 1642.25,-258.5 1640.47,-251.73"/>
</g>
<!-- Node3&#45;&gt;Node94 -->
<g id="edge27" class="edge">
<title>Node3&#45;&gt;Node94</title>
<path fill="none" stroke="#63b8ff" d="M1656.95,-256.27C1664.71,-255.07 1672.55,-253.95 1680.04,-253 1864.16,-229.73 1912.48,-244.31 2096.04,-217 2100.67,-216.31 2105.47,-215.49 2110.27,-214.61"/>
<polygon fill="#63b8ff" stroke="#63b8ff" points="1656.51,-252.79 1647.19,-257.82 1657.61,-259.71 1656.51,-252.79"/>
</g>
<!-- Node10 -->
<g id="node24" class="node">
<title>Node10</title>
<g id="a_node24"><a xlink:href="d__msg__flow_8cpp.html" target="_top" xlink:title=" ">
<polygon fill="white" stroke="#666666" points="674.54,-211.5 541.54,-211.5 541.54,-192.5 674.54,-192.5 674.54,-211.5"/>
<text text-anchor="middle" x="608.04" y="-199.5" font-family="Helvetica,sans-Serif" font-size="10.00">src/d/msg/d_msg_flow.cpp</text>
</a>
</g>
</g>
<!-- Node3&#45;&gt;Node10 -->
<g id="edge31" class="edge">
<title>Node3&#45;&gt;Node10</title>
<path fill="none" stroke="#63b8ff" d="M1539.81,-256.21C1531.86,-254.96 1523.76,-253.84 1516.04,-253 1147.64,-212.98 1051.21,-259.1 683.04,-217 672.38,-215.78 660.96,-213.93 650.32,-211.97"/>
<polygon fill="#63b8ff" stroke="#63b8ff" points="1538.99,-259.62 1549.42,-257.8 1540.13,-252.72 1538.99,-259.62"/>
</g>
<!-- Node59 -->
<g id="node25" class="node">
<title>Node59</title>
<g id="a_node25"><a xlink:href="d__s__logo_8cpp.html" target="_top" xlink:title=" ">
<polygon fill="white" stroke="#666666" points="799.54,-211.5 692.54,-211.5 692.54,-192.5 799.54,-192.5 799.54,-211.5"/>
<text text-anchor="middle" x="746.04" y="-199.5" font-family="Helvetica,sans-Serif" font-size="10.00">src/d/s/d_s_logo.cpp</text>
</a>
</g>
</g>
<!-- Node3&#45;&gt;Node59 -->
<g id="edge32" class="edge">
<title>Node3&#45;&gt;Node59</title>
<path fill="none" stroke="#63b8ff" d="M1539.24,-256.18C1531.47,-254.96 1523.57,-253.85 1516.04,-253 1202.94,-217.78 1120.19,-259.86 808.04,-217 799.19,-215.78 789.73,-213.94 780.93,-211.98"/>
<polygon fill="#63b8ff" stroke="#63b8ff" points="1538.56,-259.61 1549,-257.79 1539.7,-252.71 1538.56,-259.61"/>
</g>
<!-- Node101 -->
<g id="node26" class="node">
<title>Node101</title>
<g id="a_node26"><a xlink:href="d__s__name_8cpp.html" target="_top" xlink:title=" ">
<polygon fill="white" stroke="#666666" points="930.54,-211.5 817.54,-211.5 817.54,-192.5 930.54,-192.5 930.54,-211.5"/>
<text text-anchor="middle" x="874.04" y="-199.5" font-family="Helvetica,sans-Serif" font-size="10.00">src/d/s/d_s_name.cpp</text>
</a>
</g>
</g>
<!-- Node3&#45;&gt;Node101 -->
<g id="edge33" class="edge">
<title>Node3&#45;&gt;Node101</title>
<path fill="none" stroke="#63b8ff" d="M1538.94,-256.21C1531.26,-255 1523.47,-253.88 1516.04,-253 1261.32,-222.85 1194.18,-251.71 940.04,-217 930.76,-215.73 920.83,-213.89 911.57,-211.96"/>
<polygon fill="#63b8ff" stroke="#63b8ff" points="1538.13,-259.63 1548.56,-257.81 1539.27,-252.72 1538.13,-259.63"/>
</g>
<!-- Node24 -->
<g id="node27" class="node">
<title>Node24</title>
<g id="a_node27"><a xlink:href="d__s__play_8cpp.html" target="_top" xlink:title=" ">
<polygon fill="white" stroke="#666666" points="1055.04,-211.5 949.04,-211.5 949.04,-192.5 1055.04,-192.5 1055.04,-211.5"/>
<text text-anchor="middle" x="1002.04" y="-199.5" font-family="Helvetica,sans-Serif" font-size="10.00">src/d/s/d_s_play.cpp</text>
</a>
</g>
</g>
<!-- Node3&#45;&gt;Node24 -->
<g id="edge34" class="edge">
<title>Node3&#45;&gt;Node24</title>
<path fill="none" stroke="#63b8ff" d="M1538.08,-256.2C1530.68,-255.01 1523.19,-253.91 1516.04,-253 1316.12,-227.6 1263.28,-247.27 1064.04,-217 1055.42,-215.69 1046.22,-213.86 1037.61,-211.95"/>
<polygon fill="#63b8ff" stroke="#63b8ff" points="1537.26,-259.61 1547.7,-257.8 1538.41,-252.71 1537.26,-259.61"/>
</g>
<!-- Node106 -->
<g id="node28" class="node">
<title>Node106</title>
<g id="a_node28"><a xlink:href="f__pc__manager_8cpp.html" target="_top" xlink:title=" ">
<polygon fill="white" stroke="#666666" points="1207.04,-211.5 1073.04,-211.5 1073.04,-192.5 1207.04,-192.5 1207.04,-211.5"/>
<text text-anchor="middle" x="1140.04" y="-199.5" font-family="Helvetica,sans-Serif" font-size="10.00">src/f_pc/f_pc_manager.cpp</text>
</a>
</g>
</g>
<!-- Node3&#45;&gt;Node106 -->
<g id="edge36" class="edge">
<title>Node3&#45;&gt;Node106</title>
<path fill="none" stroke="#63b8ff" d="M1536.15,-256.16C1529.37,-255.04 1522.56,-253.96 1516.04,-253 1383.19,-233.42 1348.81,-237.17 1216.04,-217 1206.36,-215.53 1196.02,-213.76 1186.18,-211.98"/>
<polygon fill="#63b8ff" stroke="#63b8ff" points="1535.52,-259.6 1545.96,-257.81 1536.69,-252.7 1535.52,-259.6"/>
</g>
<!-- Node244 -->
<g id="node29" class="node">
<title>Node244</title>
<g id="a_node29"><a xlink:href="m__Do__Reset_8cpp.html" target="_top" xlink:title=" ">
<polygon fill="white" stroke="#666666" points="1361.04,-211.5 1225.04,-211.5 1225.04,-192.5 1361.04,-192.5 1361.04,-211.5"/>
<text text-anchor="middle" x="1293.04" y="-199.5" font-family="Helvetica,sans-Serif" font-size="10.00">src/m_Do/m_Do_Reset.cpp</text>
</a>
</g>
</g>
<!-- Node3&#45;&gt;Node244 -->
<g id="edge37" class="edge">
<title>Node3&#45;&gt;Node244</title>
<path fill="none" stroke="#63b8ff" d="M1542.61,-255.71C1483.48,-243.22 1389.38,-223.35 1335.2,-211.91"/>
<polygon fill="#63b8ff" stroke="#63b8ff" points="1541.6,-259.08 1552.11,-257.72 1543.05,-252.23 1541.6,-259.08"/>
</g>
<!-- Node108 -->
<g id="node30" class="node">
<title>Node108</title>
<g id="a_node30"><a xlink:href="m__Do__audio_8cpp.html" target="_top" xlink:title=" ">
<polygon fill="white" stroke="#666666" points="1513.04,-211.5 1379.04,-211.5 1379.04,-192.5 1513.04,-192.5 1513.04,-211.5"/>
<text text-anchor="middle" x="1446.04" y="-199.5" font-family="Helvetica,sans-Serif" font-size="10.00">src/m_Do/m_Do_audio.cpp</text>
</a>
</g>
</g>
<!-- Node3&#45;&gt;Node108 -->
<g id="edge38" class="edge">
<title>Node3&#45;&gt;Node108</title>
<path fill="none" stroke="#63b8ff" d="M1564.64,-253.6C1535.21,-241.04 1492.05,-222.63 1466.72,-211.82"/>
<polygon fill="#63b8ff" stroke="#63b8ff" points="1563.22,-256.8 1573.79,-257.51 1565.97,-250.36 1563.22,-256.8"/>
</g>
<!-- Node5 -->
<g id="node5" class="node">
<title>Node5</title>
<g id="a_node5"><a xlink:href="d__attention_8h.html" target="_top" xlink:title=" ">
<polygon fill="#fff0f0" stroke="red" points="846.04,-145.5 732.04,-145.5 732.04,-126.5 846.04,-126.5 846.04,-145.5"/>
<text text-anchor="middle" x="789.04" y="-133.5" font-family="Helvetica,sans-Serif" font-size="10.00">include/d/d_attention.h</text>
</a>
</g>
</g>
<!-- Node4&#45;&gt;Node5 -->
<g id="edge4" class="edge">
<title>Node4&#45;&gt;Node5</title>
<path fill="none" stroke="#63b8ff" d="M1542.25,-190.05C1535.46,-188.9 1528.6,-187.84 1522.04,-187 1455.82,-178.51 1007.6,-150.46 846.54,-140.53"/>
<polygon fill="#63b8ff" stroke="#63b8ff" points="1541.58,-193.49 1552.04,-191.8 1542.8,-186.59 1541.58,-193.49"/>
</g>
<!-- Node4&#45;&gt;Node17 -->
<g id="edge22" class="edge">
<title>Node4&#45;&gt;Node17</title>
<path fill="none" stroke="#63b8ff" d="M1576.98,-184.8C1550.04,-161.98 1503.59,-122.91 1499.04,-121 1318.95,-45.29 705.22,-18.68 517.83,-12.21"/>
<polygon fill="#63b8ff" stroke="#63b8ff" points="1574.55,-187.33 1584.44,-191.13 1579.08,-181.99 1574.55,-187.33"/>
</g>
<!-- Node113 -->
<g id="node8" class="node">
<title>Node113</title>
<g id="a_node8"><a xlink:href="d__resorce_8h.html" target="_top" xlink:title=" ">
<polygon fill="#fff0f0" stroke="red" points="1490.54,-145.5 1381.54,-145.5 1381.54,-126.5 1490.54,-126.5 1490.54,-145.5"/>
<text text-anchor="middle" x="1436.04" y="-133.5" font-family="Helvetica,sans-Serif" font-size="10.00">include/d/d_resorce.h</text>
</a>
</g>
</g>
<!-- Node4&#45;&gt;Node113 -->
<g id="edge7" class="edge">
<title>Node4&#45;&gt;Node113</title>
<path fill="none" stroke="#63b8ff" d="M1563.41,-187.95C1532.09,-175.42 1485.66,-156.85 1458.36,-145.93"/>
<polygon fill="#63b8ff" stroke="#63b8ff" points="1561.8,-191.07 1572.39,-191.54 1564.4,-184.58 1561.8,-191.07"/>
</g>
<!-- Node150 -->
<g id="node9" class="node">
<title>Node150</title>
<g id="a_node9"><a xlink:href="d__kankyo_8h.html" target="_top" xlink:title=" ">
<polygon fill="#fff0f0" stroke="red" points="1645.04,-151 1547.04,-151 1547.04,-121 1645.04,-121 1645.04,-151"/>
<text text-anchor="start" x="1555.04" y="-139" font-family="Helvetica,sans-Serif" font-size="10.00">include/d/kankyo/d</text>
<text text-anchor="middle" x="1596.04" y="-128" font-family="Helvetica,sans-Serif" font-size="10.00">_kankyo.h</text>
</a>
</g>
</g>
<!-- Node4&#45;&gt;Node150 -->
<g id="edge8" class="edge">
<title>Node4&#45;&gt;Node150</title>
<path fill="none" stroke="#63b8ff" d="M1596.04,-180.78C1596.04,-171.17 1596.04,-159.92 1596.04,-151.23"/>
<polygon fill="#63b8ff" stroke="#63b8ff" points="1592.54,-180.59 1596.04,-190.59 1599.54,-180.59 1592.54,-180.59"/>
</g>
<!-- Node235 -->
<g id="node15" class="node">
<title>Node235</title>
<g id="a_node15"><a xlink:href="d__meter__HIO_8h.html" target="_top" xlink:title=" ">
<polygon fill="#fff0f0" stroke="red" points="2057.04,-151 1935.04,-151 1935.04,-121 2057.04,-121 2057.04,-151"/>
<text text-anchor="start" x="1943.04" y="-139" font-family="Helvetica,sans-Serif" font-size="10.00">include/d/meter/d_meter</text>
<text text-anchor="middle" x="1996.04" y="-128" font-family="Helvetica,sans-Serif" font-size="10.00">_HIO.h</text>
</a>
</g>
</g>
<!-- Node4&#45;&gt;Node235 -->
<g id="edge16" class="edge">
<title>Node4&#45;&gt;Node235</title>
<path fill="none" stroke="#63b8ff" d="M1663.39,-190.22C1739.26,-178.08 1861.54,-158.52 1934.81,-146.8"/>
<polygon fill="#63b8ff" stroke="#63b8ff" points="1662.9,-186.76 1653.57,-191.79 1664,-193.67 1662.9,-186.76"/>
</g>
<!-- Node237 -->
<g id="node19" class="node">
<title>Node237</title>
<g id="a_node19"><a xlink:href="DynamicLink_8cpp.html" target="_top" xlink:title=" ">
<polygon fill="white" stroke="#666666" points="1137.54,-145.5 1030.54,-145.5 1030.54,-126.5 1137.54,-126.5 1137.54,-145.5"/>
<text text-anchor="middle" x="1084.04" y="-133.5" font-family="Helvetica,sans-Serif" font-size="10.00">src/DynamicLink.cpp</text>
</a>
</g>
</g>
<!-- Node4&#45;&gt;Node237 -->
<g id="edge20" class="edge">
<title>Node4&#45;&gt;Node237</title>
<path fill="none" stroke="#63b8ff" d="M1541.45,-190.09C1534.92,-188.96 1528.34,-187.9 1522.04,-187 1355.84,-163.37 1311.8,-177.54 1146.04,-151 1137.65,-149.66 1128.7,-147.85 1120.28,-145.99"/>
<polygon fill="#63b8ff" stroke="#63b8ff" points="1540.37,-193.45 1550.84,-191.78 1541.61,-186.56 1540.37,-193.45"/>
</g>
<!-- Node74 -->
<g id="node20" class="node">
<title>Node74</title>
<g id="a_node20"><a xlink:href="c__dylink_8cpp.html" target="_top" xlink:title=" ">
<polygon fill="white" stroke="#666666" points="1250.54,-145.5 1155.54,-145.5 1155.54,-126.5 1250.54,-126.5 1250.54,-145.5"/>
<text text-anchor="middle" x="1203.04" y="-133.5" font-family="Helvetica,sans-Serif" font-size="10.00">src/c/c_dylink.cpp</text>
</a>
</g>
</g>
<!-- Node4&#45;&gt;Node74 -->
<g id="edge21" class="edge">
<title>Node4&#45;&gt;Node74</title>
<path fill="none" stroke="#63b8ff" d="M1539.48,-190C1533.6,-188.94 1527.7,-187.92 1522.04,-187 1406.04,-168.07 1375.49,-173.05 1260.04,-151 1252.53,-149.57 1244.53,-147.77 1236.97,-145.95"/>
<polygon fill="#63b8ff" stroke="#63b8ff" points="1538.75,-193.42 1549.22,-191.78 1540.01,-186.54 1538.75,-193.42"/>
</g>
<!-- Node90 -->
<g id="node21" class="node">
<title>Node90</title>
<g id="a_node21"><a xlink:href="d__stage_8cpp.html" target="_top" xlink:title=" ">
<polygon fill="white" stroke="#666666" points="1363.04,-145.5 1269.04,-145.5 1269.04,-126.5 1363.04,-126.5 1363.04,-145.5"/>
<text text-anchor="middle" x="1316.04" y="-133.5" font-family="Helvetica,sans-Serif" font-size="10.00">src/d/d_stage.cpp</text>
</a>
</g>
</g>
<!-- Node4&#45;&gt;Node90 -->
<g id="edge23" class="edge">
<title>Node4&#45;&gt;Node90</title>
<path fill="none" stroke="#63b8ff" d="M1543.21,-189.6C1497.76,-179.7 1430.49,-164.83 1372.04,-151 1365.31,-149.41 1358.14,-147.66 1351.26,-145.95"/>
<polygon fill="#63b8ff" stroke="#63b8ff" points="1542.28,-192.98 1552.79,-191.69 1543.76,-186.14 1542.28,-192.98"/>
</g>
<!-- Node6 -->
<g id="node6" class="node">
<title>Node6</title>
<g id="a_node6"><a xlink:href="d__a__alink_8h.html" target="_top" xlink:title=" ">
<polygon fill="#fff0f0" stroke="red" points="521.04,-79.5 405.04,-79.5 405.04,-60.5 521.04,-60.5 521.04,-79.5"/>
<text text-anchor="middle" x="463.04" y="-67.5" font-family="Helvetica,sans-Serif" font-size="10.00">include/d/a/d_a_alink.h</text>
</a>
</g>
</g>
<!-- Node5&#45;&gt;Node6 -->
<g id="edge5" class="edge">
<title>Node5&#45;&gt;Node6</title>
<path fill="none" stroke="#63b8ff" d="M732.36,-123.87C668.89,-111.41 567.24,-91.46 508.67,-79.96"/>
<polygon fill="#63b8ff" stroke="#63b8ff" points="731.4,-127.25 741.88,-125.74 732.74,-120.38 731.4,-127.25"/>
</g>
<!-- Node6&#45;&gt;Node17 -->
<g id="edge6" class="edge">
<title>Node6&#45;&gt;Node17</title>
<path fill="none" stroke="#63b8ff" d="M463.04,-49.16C463.04,-38.95 463.04,-27.04 463.04,-19.17"/>
<polygon fill="#63b8ff" stroke="#63b8ff" points="459.54,-48.85 463.04,-58.85 466.54,-48.85 459.54,-48.85"/>
</g>
<!-- Node150&#45;&gt;Node6 -->
<g id="edge9" class="edge">
<title>Node150&#45;&gt;Node6</title>
<path fill="none" stroke="#63b8ff" d="M1535.46,-125.35C1523.42,-123.69 1510.85,-122.13 1499.04,-121 1127.78,-85.33 679.1,-74.65 521.31,-71.87"/>
<polygon fill="#63b8ff" stroke="#63b8ff" points="1534.91,-128.81 1545.3,-126.75 1535.9,-121.88 1534.91,-128.81"/>
</g>
<!-- Node138 -->
<g id="node10" class="node">
<title>Node138</title>
<g id="a_node10"><a xlink:href="d__bomb_8h.html" target="_top" xlink:title=" ">
<polygon fill="white" stroke="#666666" points="310.54,-79.5 209.54,-79.5 209.54,-60.5 310.54,-60.5 310.54,-79.5"/>
<text text-anchor="middle" x="260.04" y="-67.5" font-family="Helvetica,sans-Serif" font-size="10.00">include/d/d_bomb.h</text>
</a>
</g>
</g>
<!-- Node150&#45;&gt;Node138 -->
<g id="edge10" class="edge">
<title>Node150&#45;&gt;Node138</title>
<path fill="none" stroke="#63b8ff" d="M1535.48,-125.21C1523.43,-123.56 1510.86,-122.04 1499.04,-121 1010.45,-77.9 885.4,-118.13 396.04,-85 367.86,-83.09 336.49,-79.93 310.99,-77.1"/>
<polygon fill="#63b8ff" stroke="#63b8ff" points="1534.93,-128.66 1545.32,-126.61 1535.91,-121.73 1534.93,-128.66"/>
</g>
<!-- Node150&#45;&gt;Node22 -->
<g id="edge13" class="edge">
<title>Node150&#45;&gt;Node22</title>
<path fill="none" stroke="#63b8ff" d="M1562.14,-114.91C1545.93,-105.31 1526.91,-94.03 1512.2,-85.31"/>
<polygon fill="#63b8ff" stroke="#63b8ff" points="1560.11,-117.78 1570.5,-119.87 1563.68,-111.76 1560.11,-117.78"/>
</g>
<!-- Node150&#45;&gt;Node52 -->
<g id="edge14" class="edge">
<title>Node150&#45;&gt;Node52</title>
<path fill="none" stroke="#63b8ff" d="M1607.86,-110.6C1613.09,-99.8 1618.91,-87.78 1622.76,-79.84"/>
<polygon fill="#63b8ff" stroke="#63b8ff" points="1604.79,-108.91 1603.58,-119.43 1611.09,-111.96 1604.79,-108.91"/>
</g>
<!-- Node150&#45;&gt;Node96 -->
<g id="edge15" class="edge">
<title>Node150&#45;&gt;Node96</title>
<path fill="none" stroke="#63b8ff" d="M1645.87,-116.67C1672.84,-106.75 1705.69,-94.67 1730.82,-85.43"/>
<polygon fill="#63b8ff" stroke="#63b8ff" points="1644.69,-113.38 1636.51,-120.11 1647.1,-119.95 1644.69,-113.38"/>
</g>
<!-- Node138&#45;&gt;Node17 -->
<g id="edge11" class="edge">
<title>Node138&#45;&gt;Node17</title>
<path fill="none" stroke="#63b8ff" d="M301.76,-56.98C340.42,-45.84 397.07,-29.51 431.92,-19.47"/>
<polygon fill="#63b8ff" stroke="#63b8ff" points="300.97,-53.56 292.33,-59.7 302.9,-60.29 300.97,-53.56"/>
</g>
<!-- Node139 -->
<g id="node11" class="node">
<title>Node139</title>
<g id="a_node11"><a xlink:href="d__bomb_8cpp.html" target="_top" xlink:title=" ">
<polygon fill="white" stroke="#666666" points="307.04,-19 213.04,-19 213.04,0 307.04,0 307.04,-19"/>
<text text-anchor="middle" x="260.04" y="-7" font-family="Helvetica,sans-Serif" font-size="10.00">src/d/d_bomb.cpp</text>
</a>
</g>
</g>
<!-- Node138&#45;&gt;Node139 -->
<g id="edge12" class="edge">
<title>Node138&#45;&gt;Node139</title>
<path fill="none" stroke="#63b8ff" d="M260.04,-49.16C260.04,-38.95 260.04,-27.04 260.04,-19.17"/>
<polygon fill="#63b8ff" stroke="#63b8ff" points="256.54,-48.85 260.04,-58.85 263.54,-48.85 256.54,-48.85"/>
</g>
<!-- Node235&#45;&gt;Node40 -->
<g id="edge17" class="edge">
<title>Node235&#45;&gt;Node40</title>
<path fill="none" stroke="#63b8ff" d="M2062.53,-117.7C2109.35,-105.52 2170.13,-89.71 2207.59,-79.96"/>
<polygon fill="#63b8ff" stroke="#63b8ff" points="2061.82,-114.27 2053.02,-120.18 2063.58,-121.05 2061.82,-114.27"/>
</g>
<!-- Node235&#45;&gt;Node43 -->
<g id="edge18" class="edge">
<title>Node235&#45;&gt;Node43</title>
<path fill="none" stroke="#63b8ff" d="M1967.73,-113.93C1952.17,-102.35 1933.7,-88.61 1921.92,-79.84"/>
<polygon fill="#63b8ff" stroke="#63b8ff" points="1965.63,-116.73 1975.74,-119.89 1969.81,-111.11 1965.63,-116.73"/>
</g>
<!-- Node235&#45;&gt;Node11 -->
<g id="edge19" class="edge">
<title>Node235&#45;&gt;Node11</title>
<path fill="none" stroke="#63b8ff" d="M2020.48,-113.27C2033.35,-101.84 2048.42,-88.44 2058.09,-79.84"/>
<polygon fill="#63b8ff" stroke="#63b8ff" points="2018.3,-110.53 2013.15,-119.79 2022.95,-115.76 2018.3,-110.53"/>
</g>
<!-- Node246&#45;&gt;Node138 -->
<g id="edge61" class="edge">
<title>Node246&#45;&gt;Node138</title>
<path fill="none" stroke="#63b8ff" d="M347.18,-531.3C250,-530.44 67.79,-523.08 21.04,-481 -6.12,-456.55 2.04,-437.54 2.04,-401 2.04,-401 2.04,-401 2.04,-201 2.04,-109.21 133.88,-82.22 209.07,-74.29"/>
<polygon fill="#63b8ff" stroke="#63b8ff" points="347.06,-534.8 357.08,-531.36 347.11,-527.8 347.06,-534.8"/>
</g>
<!-- Node247 -->
<g id="node35" class="node">
<title>Node247</title>
<g id="a_node35"><a xlink:href="Z2Creature_8h.html" target="_top" xlink:title=" ">
<polygon fill="white" stroke="#666666" points="743.04,-481 643.04,-481 643.04,-451 743.04,-451 743.04,-481"/>
<text text-anchor="start" x="651.04" y="-469" font-family="Helvetica,sans-Serif" font-size="10.00">include/Z2AudioLib</text>
<text text-anchor="middle" x="693.04" y="-458" font-family="Helvetica,sans-Serif" font-size="10.00">/Z2Creature.h</text>
</a>
</g>
</g>
<!-- Node246&#45;&gt;Node247 -->
<g id="edge46" class="edge">
<title>Node246&#45;&gt;Node247</title>
<path fill="none" stroke="#63b8ff" d="M470.45,-517.16C521.91,-505.56 594.47,-489.21 642.59,-478.37"/>
<polygon fill="#63b8ff" stroke="#63b8ff" points="469.95,-513.69 460.96,-519.3 471.49,-520.51 469.95,-513.69"/>
</g>
<!-- Node252 -->
<g id="node42" class="node">
<title>Node252</title>
<g id="a_node42"><a xlink:href="Z2WolfHowlMgr_8h.html" target="_top" xlink:title=" ">
<polygon fill="white" stroke="#666666" points="614.04,-481 514.04,-481 514.04,-451 614.04,-451 614.04,-481"/>
<text text-anchor="start" x="522.04" y="-469" font-family="Helvetica,sans-Serif" font-size="10.00">include/Z2AudioLib</text>
<text text-anchor="middle" x="564.04" y="-458" font-family="Helvetica,sans-Serif" font-size="10.00">/Z2WolfHowlMgr.h</text>
</a>
</g>
</g>
<!-- Node246&#45;&gt;Node252 -->
<g id="edge58" class="edge">
<title>Node246&#45;&gt;Node252</title>
<path fill="none" stroke="#63b8ff" d="M454.39,-512.27C478.24,-502.43 507.01,-490.55 529.1,-481.43"/>
<polygon fill="#63b8ff" stroke="#63b8ff" points="453.13,-509.01 445.22,-516.06 455.8,-515.48 453.13,-509.01"/>
</g>
<!-- Node141 -->
<g id="node44" class="node">
<title>Node141</title>
<g id="a_node44"><a xlink:href="d__a__boomerang_8h.html" target="_top" xlink:title=" ">
<polygon fill="white" stroke="#666666" points="179.54,-481 30.54,-481 30.54,-451 179.54,-451 179.54,-481"/>
<text text-anchor="start" x="38.54" y="-469" font-family="Helvetica,sans-Serif" font-size="10.00">include/rel/d/a/d_a</text>
<text text-anchor="middle" x="105.04" y="-458" font-family="Helvetica,sans-Serif" font-size="10.00">_boomerang/d_a_boomerang.h</text>
</a>
</g>
</g>
<!-- Node246&#45;&gt;Node141 -->
<g id="edge62" class="edge">
<title>Node246&#45;&gt;Node141</title>
<path fill="none" stroke="#63b8ff" d="M347.79,-518.11C297.44,-507.5 226.11,-492.49 173.81,-481.48"/>
<polygon fill="#63b8ff" stroke="#63b8ff" points="346.85,-521.48 357.36,-520.12 348.3,-514.63 346.85,-521.48"/>
</g>
<!-- Node145 -->
<g id="node46" class="node">
<title>Node145</title>
<g id="a_node46"><a xlink:href="d__a__canoe_8h.html" target="_top" xlink:title=" ">
<polygon fill="white" stroke="#666666" points="304.04,-481 198.04,-481 198.04,-451 304.04,-451 304.04,-481"/>
<text text-anchor="start" x="206.04" y="-469" font-family="Helvetica,sans-Serif" font-size="10.00">include/rel/d/a/d_a</text>
<text text-anchor="middle" x="251.04" y="-458" font-family="Helvetica,sans-Serif" font-size="10.00">_canoe/d_a_canoe.h</text>
</a>
</g>
</g>
<!-- Node246&#45;&gt;Node145 -->
<g id="edge64" class="edge">
<title>Node246&#45;&gt;Node145</title>
<path fill="none" stroke="#63b8ff" d="M363.14,-512.41C338.77,-502.54 309.27,-490.59 286.65,-481.43"/>
<polygon fill="#63b8ff" stroke="#63b8ff" points="361.6,-515.56 372.18,-516.07 364.22,-509.07 361.6,-515.56"/>
</g>
<!-- Node254 -->
<g id="node47" class="node">
<title>Node254</title>
<g id="a_node47"><a xlink:href="Z2SoundObject_8cpp.html" target="_top" xlink:title=" ">
<polygon fill="white" stroke="#666666" points="495.54,-475.5 322.54,-475.5 322.54,-456.5 495.54,-456.5 495.54,-475.5"/>
<text text-anchor="middle" x="409.04" y="-463.5" font-family="Helvetica,sans-Serif" font-size="10.00">libs/Z2AudioLib/Z2SoundObject.cpp</text>
</a>
</g>
</g>
<!-- Node246&#45;&gt;Node254 -->
<g id="edge65" class="edge">
<title>Node246&#45;&gt;Node254</title>
<path fill="none" stroke="#63b8ff" d="M409.04,-505.59C409.04,-495.06 409.04,-483.53 409.04,-475.84"/>
<polygon fill="#63b8ff" stroke="#63b8ff" points="405.54,-505.28 409.04,-515.28 412.54,-505.28 405.54,-505.28"/>
</g>
<!-- Node247&#45;&gt;Node6 -->
<g id="edge49" class="edge">
<title>Node247&#45;&gt;Node6</title>
<path fill="none" stroke="#63b8ff" d="M754.52,-462.43C826.21,-456.92 930.66,-439.57 895.04,-385 793.67,-229.68 638.54,-353.56 513.04,-217 475.15,-175.77 465.8,-104.55 463.65,-79.79"/>
<polygon fill="#63b8ff" stroke="#63b8ff" points="754.56,-458.92 744.83,-463.12 755.05,-465.91 754.56,-458.92"/>
</g>
<!-- Node248 -->
<g id="node36" class="node">
<title>Node248</title>
<g id="a_node36"><a xlink:href="Z2SoundObjMgr_8h.html" target="_top" xlink:title=" ">
<polygon fill="#fff0f0" stroke="red" points="1312.04,-415 1212.04,-415 1212.04,-385 1312.04,-385 1312.04,-415"/>
<text text-anchor="start" x="1220.04" y="-403" font-family="Helvetica,sans-Serif" font-size="10.00">include/Z2AudioLib</text>
<text text-anchor="middle" x="1262.04" y="-392" font-family="Helvetica,sans-Serif" font-size="10.00">/Z2SoundObjMgr.h</text>
</a>
</g>
</g>
<!-- Node247&#45;&gt;Node248 -->
<g id="edge47" class="edge">
<title>Node247&#45;&gt;Node248</title>
<path fill="none" stroke="#63b8ff" d="M754.76,-458.06C868.11,-445.31 1107.36,-418.4 1211.66,-406.67"/>
<polygon fill="#63b8ff" stroke="#63b8ff" points="754.59,-454.56 745.04,-459.15 755.37,-461.51 754.59,-454.56"/>
</g>
<!-- Node129 -->
<g id="node37" class="node">
<title>Node129</title>
<g id="a_node37"><a xlink:href="d__a__horse_8h.html" target="_top" xlink:title=" ">
<polygon fill="#fff0f0" stroke="red" points="506.54,-415 405.54,-415 405.54,-385 506.54,-385 506.54,-415"/>
<text text-anchor="start" x="413.54" y="-403" font-family="Helvetica,sans-Serif" font-size="10.00">include/rel/d/a/d_a</text>
<text text-anchor="middle" x="456.04" y="-392" font-family="Helvetica,sans-Serif" font-size="10.00">_horse/d_a_horse.h</text>
</a>
</g>
</g>
<!-- Node247&#45;&gt;Node129 -->
<g id="edge50" class="edge">
<title>Node247&#45;&gt;Node129</title>
<path fill="none" stroke="#63b8ff" d="M632.11,-448.55C593.21,-438.04 543.36,-424.58 506.64,-414.66"/>
<polygon fill="#63b8ff" stroke="#63b8ff" points="630.75,-451.8 641.32,-451.03 632.58,-445.05 630.75,-451.8"/>
</g>
<!-- Node15 -->
<g id="node38" class="node">
<title>Node15</title>
<g id="a_node38"><a xlink:href="d__a__e__wb_8h.html" target="_top" xlink:title=" ">
<polygon fill="#fff0f0" stroke="red" points="656.04,-349 546.04,-349 546.04,-319 656.04,-319 656.04,-349"/>
<text text-anchor="start" x="554.04" y="-337" font-family="Helvetica,sans-Serif" font-size="10.00">include/rel/d/a/e/d</text>
<text text-anchor="middle" x="601.04" y="-326" font-family="Helvetica,sans-Serif" font-size="10.00">_a_e_wb/d_a_e_wb.h</text>
</a>
</g>
</g>
<!-- Node247&#45;&gt;Node15 -->
<g id="edge55" class="edge">
<title>Node247&#45;&gt;Node15</title>
<path fill="none" stroke="#63b8ff" d="M696.52,-439.61C697.52,-422.86 696.22,-401.13 686.04,-385 675.89,-368.93 658.57,-357.4 642.19,-349.49"/>
<polygon fill="#63b8ff" stroke="#63b8ff" points="693.07,-438.98 695.63,-449.26 700.04,-439.63 693.07,-438.98"/>
</g>
<!-- Node146 -->
<g id="node39" class="node">
<title>Node146</title>
<g id="a_node39"><a xlink:href="d__a__mg__rod_8h.html" target="_top" xlink:title=" ">
<polygon fill="white" stroke="#666666" points="349.04,-349 231.04,-349 231.04,-319 349.04,-319 349.04,-349"/>
<text text-anchor="start" x="239.04" y="-337" font-family="Helvetica,sans-Serif" font-size="10.00">include/rel/d/a/d_a</text>
<text text-anchor="middle" x="290.04" y="-326" font-family="Helvetica,sans-Serif" font-size="10.00">_mg_rod/d_a_mg_rod.h</text>
</a>
</g>
</g>
<!-- Node247&#45;&gt;Node146 -->
<g id="edge53" class="edge">
<title>Node247&#45;&gt;Node146</title>
<path fill="none" stroke="#63b8ff" d="M631.51,-452.55C628.65,-452.02 625.82,-451.5 623.04,-451 522.49,-432.98 490.05,-454.96 396.04,-415 358.91,-399.22 323.01,-367.63 304.01,-349.22"/>
<polygon fill="#63b8ff" stroke="#63b8ff" points="630.65,-455.95 641.13,-454.38 631.96,-449.07 630.65,-455.95"/>
</g>
<!-- Node250 -->
<g id="node40" class="node">
<title>Node250</title>
<g id="a_node40"><a xlink:href="Z2Creature_8cpp.html" target="_top" xlink:title=" ">
<polygon fill="white" stroke="#666666" points="886.54,-409.5 733.54,-409.5 733.54,-390.5 886.54,-390.5 886.54,-409.5"/>
<text text-anchor="middle" x="810.04" y="-397.5" font-family="Helvetica,sans-Serif" font-size="10.00">libs/Z2AudioLib/Z2Creature.cpp</text>
</a>
</g>
</g>
<!-- Node247&#45;&gt;Node250 -->
<g id="edge56" class="edge">
<title>Node247&#45;&gt;Node250</title>
<path fill="none" stroke="#63b8ff" d="M729.11,-445.27C750.65,-433.49 776.96,-419.1 793.61,-409.99"/>
<polygon fill="#63b8ff" stroke="#63b8ff" points="727.72,-442.04 720.63,-449.91 731.08,-448.18 727.72,-442.04"/>
</g>
<!-- Node251 -->
<g id="node41" class="node">
<title>Node251</title>
<g id="a_node41"><a xlink:href="Z2LinkMgr_8cpp.html" target="_top" xlink:title=" ">
<polygon fill="white" stroke="#666666" points="677.04,-409.5 525.04,-409.5 525.04,-390.5 677.04,-390.5 677.04,-409.5"/>
<text text-anchor="middle" x="601.04" y="-397.5" font-family="Helvetica,sans-Serif" font-size="10.00">libs/Z2AudioLib/Z2LinkMgr.cpp</text>
</a>
</g>
</g>
<!-- Node247&#45;&gt;Node251 -->
<g id="edge57" class="edge">
<title>Node247&#45;&gt;Node251</title>
<path fill="none" stroke="#63b8ff" d="M663.23,-444.26C646.49,-432.61 626.47,-418.69 613.75,-409.84"/>
<polygon fill="#63b8ff" stroke="#63b8ff" points="661.17,-447.09 671.38,-449.93 665.17,-441.35 661.17,-447.09"/>
</g>
<!-- Node248&#45;&gt;Node2 -->
<g id="edge48" class="edge">
<title>Node248&#45;&gt;Node2</title>
<path fill="none" stroke="#63b8ff" d="M1323.53,-387.22C1387.48,-374.96 1486.39,-356.01 1545.81,-344.62"/>
<polygon fill="#63b8ff" stroke="#63b8ff" points="1323.05,-383.74 1313.89,-389.06 1324.37,-390.62 1323.05,-383.74"/>
</g>
<!-- Node129&#45;&gt;Node17 -->
<g id="edge52" class="edge">
<title>Node129&#45;&gt;Node17</title>
<path fill="none" stroke="#63b8ff" d="M439.37,-375.02C416.19,-339.27 377.04,-269.12 377.04,-203 377.04,-203 377.04,-203 377.04,-135 377.04,-98.46 375.14,-84.98 396.04,-55 407.38,-38.73 426.75,-26.82 441.76,-19.44"/>
<polygon fill="#63b8ff" stroke="#63b8ff" points="436.42,-376.91 444.87,-383.3 442.25,-373.04 436.42,-376.91"/>
</g>
<!-- Node129&#45;&gt;Node15 -->
<g id="edge51" class="edge">
<title>Node129&#45;&gt;Node15</title>
<path fill="none" stroke="#63b8ff" d="M499.07,-380.01C521.26,-370.22 547.88,-358.46 568.36,-349.43"/>
<polygon fill="#63b8ff" stroke="#63b8ff" points="497.7,-376.79 489.97,-384.03 500.53,-383.19 497.7,-376.79"/>
</g>
<!-- Node146&#45;&gt;Node17 -->
<g id="edge54" class="edge">
<title>Node146&#45;&gt;Node17</title>
<path fill="none" stroke="#63b8ff" d="M305.04,-309.04C319.45,-283.69 339.04,-242.04 339.04,-203 339.04,-203 339.04,-203 339.04,-135 339.04,-97.88 338.51,-82.86 363.04,-55 378.86,-37.03 403.33,-25.97 424.11,-19.37"/>
<polygon fill="#63b8ff" stroke="#63b8ff" points="302.09,-307.15 300.03,-317.54 308.12,-310.7 302.09,-307.15"/>
</g>
<!-- Node252&#45;&gt;Node6 -->
<g id="edge59" class="edge">
<title>Node252&#45;&gt;Node6</title>
<path fill="none" stroke="#63b8ff" d="M502.99,-450.59C457.73,-439.29 402.76,-424.01 396.04,-415 314.02,-305.01 428.48,-121.88 456.92,-79.8"/>
<polygon fill="#63b8ff" stroke="#63b8ff" points="501.94,-453.93 512.48,-452.93 503.62,-447.14 501.94,-453.93"/>
</g>
<!-- Node253 -->
<g id="node43" class="node">
<title>Node253</title>
<g id="a_node43"><a xlink:href="Z2WolfHowlMgr_8cpp.html" target="_top" xlink:title=" ">
<polygon fill="white" stroke="#666666" points="311.04,-415 171.04,-415 171.04,-385 311.04,-385 311.04,-415"/>
<text text-anchor="start" x="179.04" y="-403" font-family="Helvetica,sans-Serif" font-size="10.00">libs/Z2AudioLib/Z2WolfHowl</text>
<text text-anchor="middle" x="241.04" y="-392" font-family="Helvetica,sans-Serif" font-size="10.00">Mgr.cpp</text>
</a>
</g>
</g>
<!-- Node252&#45;&gt;Node253 -->
<g id="edge60" class="edge">
<title>Node252&#45;&gt;Node253</title>
<path fill="none" stroke="#63b8ff" d="M502.73,-450.78C431.8,-435.88 361.98,-422.78 311.52,-413.58"/>
<polygon fill="#63b8ff" stroke="#63b8ff" points="501.67,-454.13 512.18,-452.77 503.12,-447.28 501.67,-454.13"/>
</g>
<!-- Node71 -->
<g id="node45" class="node">
<title>Node71</title>
<g id="a_node45"><a xlink:href="d__a__player_8cpp.html" target="_top" xlink:title=" ">
<polygon fill="white" stroke="#666666" points="153.04,-409.5 39.04,-409.5 39.04,-390.5 153.04,-390.5 153.04,-409.5"/>
<text text-anchor="middle" x="96.04" y="-397.5" font-family="Helvetica,sans-Serif" font-size="10.00">src/d/a/d_a_player.cpp</text>
</a>
</g>
</g>
<!-- Node141&#45;&gt;Node71 -->
<g id="edge63" class="edge">
<title>Node141&#45;&gt;Node71</title>
<path fill="none" stroke="#63b8ff" d="M101.47,-439.59C99.99,-429.06 98.37,-417.53 97.28,-409.84"/>
<polygon fill="#63b8ff" stroke="#63b8ff" points="97.97,-439.88 102.83,-449.3 104.91,-438.91 97.97,-439.88"/>
</g>
<!-- Node255&#45;&gt;Node2 -->
<g id="edge67" class="edge">
<title>Node255&#45;&gt;Node2</title>
<path fill="none" stroke="#63b8ff" d="M1613.41,-505.22C1609.15,-463.46 1600.87,-382.37 1597.51,-349.43"/>
<polygon fill="#63b8ff" stroke="#63b8ff" points="1609.92,-505.49 1614.42,-515.08 1616.88,-504.78 1609.92,-505.49"/>
</g>
<!-- Node256 -->
<g id="node49" class="node">
<title>Node256</title>
<g id="a_node49"><a xlink:href="Z2SpeechMgr2_8cpp.html" target="_top" xlink:title=" ">
<polygon fill="white" stroke="#666666" points="1755.54,-481 1624.54,-481 1624.54,-451 1755.54,-451 1755.54,-481"/>
<text text-anchor="start" x="1632.54" y="-469" font-family="Helvetica,sans-Serif" font-size="10.00">libs/Z2AudioLib/Z2Speech</text>
<text text-anchor="middle" x="1690.04" y="-458" font-family="Helvetica,sans-Serif" font-size="10.00">Mgr2.cpp</text>
</a>
</g>
</g>
<!-- Node255&#45;&gt;Node256 -->
<g id="edge68" class="edge">
<title>Node255&#45;&gt;Node256</title>
<path fill="none" stroke="#63b8ff" d="M1640.99,-509.42C1651.67,-500.18 1663.85,-489.65 1673.41,-481.39"/>
<polygon fill="#63b8ff" stroke="#63b8ff" points="1638.88,-506.62 1633.61,-515.81 1643.46,-511.91 1638.88,-506.62"/>
</g>
</g>
</svg>
