<?xml version="1.0" encoding="UTF-8" standalone="no"?>
<!DOCTYPE svg PUBLIC "-//W3C//DTD SVG 1.1//EN"
 "http://www.w3.org/Graphics/SVG/1.1/DTD/svg11.dtd">
<!-- Generated by graphviz version 2.44.0 ()
 -->
<!-- Title: include/Z2AudioLib/Z2StatusMgr.h Pages: 1 -->
<svg width="518pt" height="218pt"
 viewBox="0.00 0.00 517.50 218.00" xmlns="http://www.w3.org/2000/svg" xmlns:xlink="http://www.w3.org/1999/xlink">
<g id="graph0" class="graph" transform="scale(1 1) rotate(0) translate(4 214)">
<title>include/Z2AudioLib/Z2StatusMgr.h</title>
<polygon fill="white" stroke="transparent" points="-4,4 -4,-214 513.5,-214 513.5,4 -4,4"/>
<!-- Node1 -->
<g id="node1" class="node">
<title>Node1</title>
<g id="a_node1"><a xlink:title=" ">
<polygon fill="#bfbfbf" stroke="black" points="79.5,-179.5 79.5,-209.5 179.5,-209.5 179.5,-179.5 79.5,-179.5"/>
<text text-anchor="start" x="87.5" y="-197.5" font-family="Helvetica,sans-Serif" font-size="10.00">include/Z2AudioLib</text>
<text text-anchor="middle" x="129.5" y="-186.5" font-family="Helvetica,sans-Serif" font-size="10.00">/Z2StatusMgr.h</text>
</a>
</g>
</g>
<!-- Node2 -->
<g id="node2" class="node">
<title>Node2</title>
<g id="a_node2"><a xlink:href="Z2StatusMgr_8cpp.html" target="_top" xlink:title=" ">
<polygon fill="white" stroke="black" points="0,-112.5 0,-142.5 127,-142.5 127,-112.5 0,-112.5"/>
<text text-anchor="start" x="8" y="-130.5" font-family="Helvetica,sans-Serif" font-size="10.00">libs/Z2AudioLib/Z2Status</text>
<text text-anchor="middle" x="63.5" y="-119.5" font-family="Helvetica,sans-Serif" font-size="10.00">Mgr.cpp</text>
</a>
</g>
</g>
<!-- Node1&#45;&gt;Node2 -->
<g id="edge1" class="edge">
<title>Node1&#45;&gt;Node2</title>
<path fill="none" stroke="midnightblue" d="M107.99,-172.31C98.09,-162.56 86.61,-151.26 77.79,-142.58"/>
<polygon fill="midnightblue" stroke="midnightblue" points="105.6,-174.87 115.18,-179.4 110.51,-169.89 105.6,-174.87"/>
</g>
<!-- Node3 -->
<g id="node3" class="node">
<title>Node3</title>
<g id="a_node3"><a xlink:href="Z2AudioMgr_8h.html" target="_top" xlink:title=" ">
<polygon fill="white" stroke="black" points="145.5,-112.5 145.5,-142.5 245.5,-142.5 245.5,-112.5 145.5,-112.5"/>
<text text-anchor="start" x="153.5" y="-130.5" font-family="Helvetica,sans-Serif" font-size="10.00">include/Z2AudioLib</text>
<text text-anchor="middle" x="195.5" y="-119.5" font-family="Helvetica,sans-Serif" font-size="10.00">/Z2AudioMgr.h</text>
</a>
</g>
</g>
<!-- Node1&#45;&gt;Node3 -->
<g id="edge2" class="edge">
<title>Node1&#45;&gt;Node3</title>
<path fill="none" stroke="midnightblue" d="M151.01,-172.31C160.91,-162.56 172.39,-151.26 181.21,-142.58"/>
<polygon fill="midnightblue" stroke="midnightblue" points="148.49,-169.89 143.82,-179.4 153.4,-174.87 148.49,-169.89"/>
</g>
<!-- Node4 -->
<g id="node4" class="node">
<title>Node4</title>
<g id="a_node4"><a xlink:href="d__a__alink_8cpp.html" target="_top" xlink:title=" ">
<polygon fill="white" stroke="black" points="112,-0.5 112,-19.5 221,-19.5 221,-0.5 112,-0.5"/>
<text text-anchor="middle" x="166.5" y="-7.5" font-family="Helvetica,sans-Serif" font-size="10.00">src/d/a/d_a_alink.cpp</text>
</a>
</g>
</g>
<!-- Node3&#45;&gt;Node4 -->
<g id="edge3" class="edge">
<title>Node3&#45;&gt;Node4</title>
<path fill="none" stroke="midnightblue" d="M136.89,-109.45C99.42,-97.96 56.86,-83.56 51.5,-76 30.74,-46.72 78.34,-28.95 118.48,-19.56"/>
<polygon fill="midnightblue" stroke="midnightblue" points="136.2,-112.89 146.78,-112.45 138.23,-106.2 136.2,-112.89"/>
</g>
<!-- Node5 -->
<g id="node5" class="node">
<title>Node5</title>
<g id="a_node5"><a xlink:href="d__save_8cpp.html" target="_top" xlink:title=" ">
<polygon fill="white" stroke="black" points="61,-56.5 61,-75.5 176,-75.5 176,-56.5 61,-56.5"/>
<text text-anchor="middle" x="118.5" y="-63.5" font-family="Helvetica,sans-Serif" font-size="10.00">src/d/save/d_save.cpp</text>
</a>
</g>
</g>
<!-- Node3&#45;&gt;Node5 -->
<g id="edge4" class="edge">
<title>Node3&#45;&gt;Node5</title>
<path fill="none" stroke="midnightblue" d="M169.21,-106.19C155.73,-95.77 140.02,-83.63 129.7,-75.66"/>
<polygon fill="midnightblue" stroke="midnightblue" points="167.2,-109.05 177.25,-112.4 171.48,-103.52 167.2,-109.05"/>
</g>
<!-- Node6 -->
<g id="node6" class="node">
<title>Node6</title>
<g id="a_node6"><a xlink:href="Z2AudioMgr_8cpp.html" target="_top" xlink:title=" ">
<polygon fill="white" stroke="black" points="193.5,-56.5 193.5,-75.5 351.5,-75.5 351.5,-56.5 193.5,-56.5"/>
<text text-anchor="middle" x="272.5" y="-63.5" font-family="Helvetica,sans-Serif" font-size="10.00">libs/Z2AudioLib/Z2AudioMgr.cpp</text>
</a>
</g>
</g>
<!-- Node3&#45;&gt;Node6 -->
<g id="edge5" class="edge">
<title>Node3&#45;&gt;Node6</title>
<path fill="none" stroke="midnightblue" d="M221.79,-106.19C235.27,-95.77 250.98,-83.63 261.3,-75.66"/>
<polygon fill="midnightblue" stroke="midnightblue" points="219.52,-103.52 213.75,-112.4 223.8,-109.05 219.52,-103.52"/>
</g>
<!-- Node7 -->
<g id="node7" class="node">
<title>Node7</title>
<g id="a_node7"><a xlink:href="m__Do__audio_8h.html" target="_top" xlink:title=" ">
<polygon fill="white" stroke="black" points="369.5,-56.5 369.5,-75.5 509.5,-75.5 509.5,-56.5 369.5,-56.5"/>
<text text-anchor="middle" x="439.5" y="-63.5" font-family="Helvetica,sans-Serif" font-size="10.00">include/m_Do/m_Do_audio.h</text>
</a>
</g>
</g>
<!-- Node3&#45;&gt;Node7 -->
<g id="edge6" class="edge">
<title>Node3&#45;&gt;Node7</title>
<path fill="none" stroke="midnightblue" d="M255.76,-111.81C302.44,-100.42 365.5,-85.05 404.29,-75.59"/>
<polygon fill="midnightblue" stroke="midnightblue" points="254.65,-108.47 245.76,-114.24 256.31,-115.27 254.65,-108.47"/>
</g>
<!-- Node7&#45;&gt;Node4 -->
<g id="edge7" class="edge">
<title>Node7&#45;&gt;Node4</title>
<path fill="none" stroke="midnightblue" d="M386.28,-54.47C334.69,-44.27 257.4,-28.98 209.56,-19.52"/>
<polygon fill="midnightblue" stroke="midnightblue" points="385.75,-57.94 396.24,-56.44 387.11,-51.07 385.75,-57.94"/>
</g>
<!-- Node8 -->
<g id="node8" class="node">
<title>Node8</title>
<g id="a_node8"><a xlink:href="m__Do__audio_8cpp.html" target="_top" xlink:title=" ">
<polygon fill="white" stroke="black" points="372.5,-0.5 372.5,-19.5 506.5,-19.5 506.5,-0.5 372.5,-0.5"/>
<text text-anchor="middle" x="439.5" y="-7.5" font-family="Helvetica,sans-Serif" font-size="10.00">src/m_Do/m_Do_audio.cpp</text>
</a>
</g>
</g>
<!-- Node7&#45;&gt;Node8 -->
<g id="edge8" class="edge">
<title>Node7&#45;&gt;Node8</title>
<path fill="none" stroke="midnightblue" d="M439.5,-45.8C439.5,-36.91 439.5,-26.78 439.5,-19.75"/>
<polygon fill="midnightblue" stroke="midnightblue" points="436,-46.08 439.5,-56.08 443,-46.08 436,-46.08"/>
</g>
</g>
</svg>
